%TF.GenerationSoftware,KiCad,Pcbnew,9.0.2*%
%TF.CreationDate,2025-06-04T15:30:10+02:00*%
%TF.ProjectId,Temp_Sensor_Circuit_Side2,54656d70-5f53-4656-9e73-6f725f436972,rev?*%
%TF.SameCoordinates,Original*%
%TF.FileFunction,Copper,L2,Bot*%
%TF.FilePolarity,Positive*%
%FSLAX46Y46*%
G04 Gerber Fmt 4.6, Leading zero omitted, Abs format (unit mm)*
G04 Created by KiCad (PCBNEW 9.0.2) date 2025-06-04 15:30:10*
%MOMM*%
%LPD*%
G01*
G04 APERTURE LIST*
%TA.AperFunction,ViaPad*%
%ADD10C,0.600000*%
%TD*%
%TA.AperFunction,Conductor*%
%ADD11C,0.500000*%
%TD*%
G04 APERTURE END LIST*
D10*
%TO.N,GND*%
X150760000Y-103930000D03*
X106210000Y-95780000D03*
X178060000Y-112930000D03*
X82540000Y-124300000D03*
X82540000Y-151180000D03*
X182460000Y-112930000D03*
X106210000Y-91720000D03*
X150760000Y-95700000D03*
%TO.N,Net-(J2-Pin_6)*%
X183800000Y-89070000D03*
X177400000Y-89100000D03*
%TO.N,Net-(J2-Pin_4)*%
X55530000Y-139380000D03*
X55530000Y-134380000D03*
%TO.N,Net-(J2-Pin_3)*%
X78500000Y-147260000D03*
X59060000Y-121220000D03*
%TO.N,Net-(J2-Pin_2)*%
X58070000Y-144730000D03*
X58070000Y-134400000D03*
%TD*%
D11*
%TO.N,Net-(J2-Pin_6)*%
X183800000Y-89070000D02*
X177400000Y-89100000D01*
%TO.N,GND*%
X106210000Y-95780000D02*
X106210000Y-91720000D01*
X150760000Y-95700000D02*
X150760000Y-103930000D01*
X178060000Y-112930000D02*
X182460000Y-112930000D01*
X82540000Y-124300000D02*
X82540000Y-151180000D01*
%TO.N,Net-(J2-Pin_4)*%
X55530000Y-134380000D02*
X55530000Y-139380000D01*
%TO.N,Net-(J2-Pin_3)*%
X59060000Y-121220000D02*
X73510000Y-121220000D01*
X78500000Y-147260000D02*
X78500000Y-126210000D01*
X73510000Y-121220000D02*
X78500000Y-126210000D01*
%TO.N,Net-(J2-Pin_2)*%
X58070000Y-134400000D02*
X58070000Y-144730000D01*
%TD*%
%TA.AperFunction,Conductor*%
%TO.N,GND*%
G36*
X198092539Y-38370185D02*
G01*
X198138294Y-38422989D01*
X198149500Y-38474500D01*
X198149500Y-164925500D01*
X198129815Y-164992539D01*
X198077011Y-165038294D01*
X198025500Y-165049500D01*
X36074500Y-165049500D01*
X36007461Y-165029815D01*
X35961706Y-164977011D01*
X35950500Y-164925500D01*
X35950500Y-156422758D01*
X78749500Y-156422758D01*
X78749500Y-156652241D01*
X78762665Y-156752234D01*
X78779452Y-156879738D01*
X78806244Y-156979729D01*
X78838842Y-157101387D01*
X78926650Y-157313376D01*
X78926657Y-157313390D01*
X79041392Y-157512117D01*
X79181081Y-157694161D01*
X79181089Y-157694170D01*
X79343330Y-157856411D01*
X79343338Y-157856418D01*
X79525382Y-157996107D01*
X79525385Y-157996108D01*
X79525388Y-157996111D01*
X79724112Y-158110844D01*
X79724117Y-158110846D01*
X79724123Y-158110849D01*
X79815480Y-158148690D01*
X79936113Y-158198658D01*
X80157762Y-158258048D01*
X80385266Y-158288000D01*
X80385273Y-158288000D01*
X80614727Y-158288000D01*
X80614734Y-158288000D01*
X80842238Y-158258048D01*
X81063887Y-158198658D01*
X81275888Y-158110844D01*
X81474612Y-157996111D01*
X81656661Y-157856419D01*
X81656665Y-157856414D01*
X81656670Y-157856411D01*
X81818911Y-157694170D01*
X81818914Y-157694165D01*
X81818919Y-157694161D01*
X81958611Y-157512112D01*
X82073344Y-157313388D01*
X82161158Y-157101387D01*
X82220548Y-156879738D01*
X82250500Y-156652234D01*
X82250500Y-156522758D01*
X184149500Y-156522758D01*
X184149500Y-156752241D01*
X184172797Y-156929190D01*
X184179452Y-156979738D01*
X184215873Y-157115663D01*
X184238842Y-157201387D01*
X184326650Y-157413376D01*
X184326656Y-157413388D01*
X184436055Y-157602874D01*
X184441392Y-157612117D01*
X184581081Y-157794161D01*
X184581089Y-157794170D01*
X184743330Y-157956411D01*
X184743338Y-157956418D01*
X184925382Y-158096107D01*
X184925385Y-158096108D01*
X184925388Y-158096111D01*
X185124112Y-158210844D01*
X185124117Y-158210846D01*
X185124123Y-158210849D01*
X185215480Y-158248690D01*
X185336113Y-158298658D01*
X185557762Y-158358048D01*
X185785266Y-158388000D01*
X185785273Y-158388000D01*
X186014727Y-158388000D01*
X186014734Y-158388000D01*
X186242238Y-158358048D01*
X186463887Y-158298658D01*
X186675888Y-158210844D01*
X186874612Y-158096111D01*
X187056661Y-157956419D01*
X187056665Y-157956414D01*
X187056670Y-157956411D01*
X187218911Y-157794170D01*
X187218914Y-157794165D01*
X187218919Y-157794161D01*
X187358611Y-157612112D01*
X187473344Y-157413388D01*
X187561158Y-157201387D01*
X187620548Y-156979738D01*
X187650500Y-156752234D01*
X187650500Y-156522766D01*
X187620548Y-156295262D01*
X187561158Y-156073613D01*
X187473344Y-155861612D01*
X187358611Y-155662888D01*
X187358608Y-155662885D01*
X187358607Y-155662882D01*
X187218918Y-155480838D01*
X187218911Y-155480830D01*
X187056670Y-155318589D01*
X187056661Y-155318581D01*
X186874617Y-155178892D01*
X186675890Y-155064157D01*
X186675876Y-155064150D01*
X186463887Y-154976342D01*
X186418411Y-154964157D01*
X186242238Y-154916952D01*
X186204215Y-154911946D01*
X186014741Y-154887000D01*
X186014734Y-154887000D01*
X185785266Y-154887000D01*
X185785258Y-154887000D01*
X185568715Y-154915509D01*
X185557762Y-154916952D01*
X185464076Y-154942054D01*
X185336112Y-154976342D01*
X185124123Y-155064150D01*
X185124109Y-155064157D01*
X184925382Y-155178892D01*
X184743338Y-155318581D01*
X184581081Y-155480838D01*
X184441392Y-155662882D01*
X184326657Y-155861609D01*
X184326650Y-155861623D01*
X184238842Y-156073612D01*
X184206247Y-156195259D01*
X184192703Y-156245810D01*
X184179453Y-156295259D01*
X184179451Y-156295270D01*
X184149500Y-156522758D01*
X82250500Y-156522758D01*
X82250500Y-156422766D01*
X82220548Y-156195262D01*
X82161158Y-155973613D01*
X82073344Y-155761612D01*
X81958611Y-155562888D01*
X81958608Y-155562885D01*
X81958607Y-155562882D01*
X81850905Y-155422524D01*
X81818919Y-155380839D01*
X81818918Y-155380838D01*
X81818911Y-155380830D01*
X81656670Y-155218589D01*
X81656661Y-155218581D01*
X81474617Y-155078892D01*
X81449093Y-155064156D01*
X81275888Y-154964156D01*
X81275876Y-154964150D01*
X81063887Y-154876342D01*
X80842238Y-154816952D01*
X80804215Y-154811946D01*
X80614741Y-154787000D01*
X80614734Y-154787000D01*
X80385266Y-154787000D01*
X80385258Y-154787000D01*
X80168715Y-154815509D01*
X80157762Y-154816952D01*
X80064076Y-154842054D01*
X79936112Y-154876342D01*
X79724123Y-154964150D01*
X79724109Y-154964157D01*
X79525382Y-155078892D01*
X79343338Y-155218581D01*
X79181081Y-155380838D01*
X79041392Y-155562882D01*
X78926657Y-155761609D01*
X78926650Y-155761623D01*
X78838842Y-155973612D01*
X78779453Y-156195259D01*
X78779451Y-156195270D01*
X78749500Y-156422758D01*
X35950500Y-156422758D01*
X35950500Y-134301153D01*
X54729500Y-134301153D01*
X54729500Y-134458846D01*
X54760261Y-134613489D01*
X54760263Y-134613497D01*
X54770061Y-134637151D01*
X54779500Y-134684604D01*
X54779500Y-139075396D01*
X54770062Y-139122844D01*
X54760263Y-139146503D01*
X54760262Y-139146506D01*
X54760260Y-139146511D01*
X54729500Y-139301153D01*
X54729500Y-139458846D01*
X54760261Y-139613489D01*
X54760264Y-139613501D01*
X54820602Y-139759172D01*
X54820609Y-139759185D01*
X54908210Y-139890288D01*
X54908213Y-139890292D01*
X55019707Y-140001786D01*
X55019711Y-140001789D01*
X55150814Y-140089390D01*
X55150827Y-140089397D01*
X55296498Y-140149735D01*
X55296503Y-140149737D01*
X55451153Y-140180499D01*
X55451156Y-140180500D01*
X55451158Y-140180500D01*
X55608844Y-140180500D01*
X55608845Y-140180499D01*
X55763497Y-140149737D01*
X55909179Y-140089394D01*
X56040289Y-140001789D01*
X56151789Y-139890289D01*
X56239394Y-139759179D01*
X56299737Y-139613497D01*
X56330500Y-139458842D01*
X56330500Y-139301158D01*
X56330500Y-139301155D01*
X56330499Y-139301153D01*
X56299739Y-139146511D01*
X56299738Y-139146508D01*
X56299737Y-139146503D01*
X56289937Y-139122844D01*
X56280500Y-139075396D01*
X56280500Y-134684604D01*
X56289939Y-134637151D01*
X56299737Y-134613497D01*
X56330500Y-134458842D01*
X56330500Y-134321153D01*
X57269500Y-134321153D01*
X57269500Y-134478846D01*
X57300261Y-134633489D01*
X57300263Y-134633497D01*
X57310061Y-134657151D01*
X57319500Y-134704604D01*
X57319500Y-144425396D01*
X57310062Y-144472844D01*
X57300263Y-144496503D01*
X57300262Y-144496506D01*
X57300260Y-144496511D01*
X57269500Y-144651153D01*
X57269500Y-144808846D01*
X57300261Y-144963489D01*
X57300264Y-144963501D01*
X57360602Y-145109172D01*
X57360609Y-145109185D01*
X57448210Y-145240288D01*
X57448213Y-145240292D01*
X57559707Y-145351786D01*
X57559711Y-145351789D01*
X57690814Y-145439390D01*
X57690827Y-145439397D01*
X57836498Y-145499735D01*
X57836503Y-145499737D01*
X57991153Y-145530499D01*
X57991156Y-145530500D01*
X57991158Y-145530500D01*
X58148844Y-145530500D01*
X58148845Y-145530499D01*
X58303497Y-145499737D01*
X58449179Y-145439394D01*
X58580289Y-145351789D01*
X58691789Y-145240289D01*
X58779394Y-145109179D01*
X58839737Y-144963497D01*
X58870500Y-144808842D01*
X58870500Y-144651158D01*
X58870500Y-144651155D01*
X58870499Y-144651153D01*
X58839739Y-144496511D01*
X58839738Y-144496508D01*
X58839737Y-144496503D01*
X58829937Y-144472844D01*
X58820500Y-144425396D01*
X58820500Y-134704604D01*
X58829939Y-134657151D01*
X58838223Y-134637151D01*
X58839737Y-134633497D01*
X58870500Y-134478842D01*
X58870500Y-134321158D01*
X58870500Y-134321155D01*
X58870499Y-134321153D01*
X58839738Y-134166510D01*
X58839737Y-134166503D01*
X58831451Y-134146498D01*
X58779397Y-134020827D01*
X58779390Y-134020814D01*
X58691789Y-133889711D01*
X58691786Y-133889707D01*
X58580292Y-133778213D01*
X58580288Y-133778210D01*
X58449185Y-133690609D01*
X58449172Y-133690602D01*
X58303501Y-133630264D01*
X58303489Y-133630261D01*
X58148845Y-133599500D01*
X58148842Y-133599500D01*
X57991158Y-133599500D01*
X57991155Y-133599500D01*
X57836510Y-133630261D01*
X57836498Y-133630264D01*
X57690827Y-133690602D01*
X57690814Y-133690609D01*
X57559711Y-133778210D01*
X57559707Y-133778213D01*
X57448213Y-133889707D01*
X57448210Y-133889711D01*
X57360609Y-134020814D01*
X57360602Y-134020827D01*
X57300264Y-134166498D01*
X57300261Y-134166510D01*
X57269500Y-134321153D01*
X56330500Y-134321153D01*
X56330500Y-134301158D01*
X56330500Y-134301155D01*
X56330499Y-134301153D01*
X56299737Y-134146503D01*
X56247681Y-134020827D01*
X56239397Y-134000827D01*
X56239390Y-134000814D01*
X56151789Y-133869711D01*
X56151786Y-133869707D01*
X56040292Y-133758213D01*
X56040288Y-133758210D01*
X55909185Y-133670609D01*
X55909172Y-133670602D01*
X55763501Y-133610264D01*
X55763489Y-133610261D01*
X55608845Y-133579500D01*
X55608842Y-133579500D01*
X55451158Y-133579500D01*
X55451155Y-133579500D01*
X55296510Y-133610261D01*
X55296498Y-133610264D01*
X55150827Y-133670602D01*
X55150814Y-133670609D01*
X55019711Y-133758210D01*
X55019707Y-133758213D01*
X54908213Y-133869707D01*
X54908210Y-133869711D01*
X54820609Y-134000814D01*
X54820602Y-134000827D01*
X54760264Y-134146498D01*
X54760261Y-134146510D01*
X54729500Y-134301153D01*
X35950500Y-134301153D01*
X35950500Y-121141153D01*
X58259500Y-121141153D01*
X58259500Y-121298846D01*
X58290261Y-121453489D01*
X58290264Y-121453501D01*
X58350602Y-121599172D01*
X58350609Y-121599185D01*
X58438210Y-121730288D01*
X58438213Y-121730292D01*
X58549707Y-121841786D01*
X58549711Y-121841789D01*
X58680814Y-121929390D01*
X58680827Y-121929397D01*
X58780060Y-121970500D01*
X58826503Y-121989737D01*
X58981153Y-122020499D01*
X58981156Y-122020500D01*
X58981158Y-122020500D01*
X59138844Y-122020500D01*
X59138845Y-122020499D01*
X59215152Y-122005320D01*
X59293488Y-121989739D01*
X59293489Y-121989738D01*
X59293497Y-121989737D01*
X59317155Y-121979937D01*
X59364604Y-121970500D01*
X73147770Y-121970500D01*
X73214809Y-121990185D01*
X73235451Y-122006819D01*
X77713181Y-126484548D01*
X77746666Y-126545871D01*
X77749500Y-126572229D01*
X77749500Y-146955396D01*
X77740062Y-147002844D01*
X77730263Y-147026503D01*
X77730262Y-147026506D01*
X77730260Y-147026511D01*
X77699500Y-147181153D01*
X77699500Y-147338846D01*
X77730261Y-147493489D01*
X77730264Y-147493501D01*
X77790602Y-147639172D01*
X77790609Y-147639185D01*
X77878210Y-147770288D01*
X77878213Y-147770292D01*
X77989707Y-147881786D01*
X77989711Y-147881789D01*
X78120814Y-147969390D01*
X78120827Y-147969397D01*
X78266498Y-148029735D01*
X78266503Y-148029737D01*
X78421153Y-148060499D01*
X78421156Y-148060500D01*
X78421158Y-148060500D01*
X78578844Y-148060500D01*
X78578845Y-148060499D01*
X78733497Y-148029737D01*
X78879179Y-147969394D01*
X79010289Y-147881789D01*
X79121789Y-147770289D01*
X79209394Y-147639179D01*
X79269737Y-147493497D01*
X79300500Y-147338842D01*
X79300500Y-147181158D01*
X79300500Y-147181155D01*
X79300499Y-147181153D01*
X79269739Y-147026511D01*
X79269738Y-147026508D01*
X79269737Y-147026503D01*
X79259937Y-147002844D01*
X79250500Y-146955396D01*
X79250500Y-126136081D01*
X79244763Y-126107242D01*
X79244763Y-126107240D01*
X79221660Y-125991095D01*
X79221659Y-125991088D01*
X79167408Y-125860117D01*
X79165764Y-125855522D01*
X79082954Y-125731588D01*
X79082953Y-125731587D01*
X79082951Y-125731584D01*
X78978416Y-125627049D01*
X75280758Y-121929390D01*
X73988421Y-120637052D01*
X73988414Y-120637046D01*
X73914729Y-120587812D01*
X73914729Y-120587813D01*
X73865491Y-120554913D01*
X73728917Y-120498343D01*
X73728907Y-120498340D01*
X73583920Y-120469500D01*
X73583918Y-120469500D01*
X59364604Y-120469500D01*
X59317155Y-120460062D01*
X59293497Y-120450263D01*
X59293493Y-120450262D01*
X59293488Y-120450260D01*
X59138845Y-120419500D01*
X59138842Y-120419500D01*
X58981158Y-120419500D01*
X58981155Y-120419500D01*
X58826510Y-120450261D01*
X58826498Y-120450264D01*
X58680827Y-120510602D01*
X58680814Y-120510609D01*
X58549711Y-120598210D01*
X58549707Y-120598213D01*
X58438213Y-120709707D01*
X58438210Y-120709711D01*
X58350609Y-120840814D01*
X58350602Y-120840827D01*
X58290264Y-120986498D01*
X58290261Y-120986510D01*
X58259500Y-121141153D01*
X35950500Y-121141153D01*
X35950500Y-115485258D01*
X78949500Y-115485258D01*
X78949500Y-115714741D01*
X78972797Y-115891690D01*
X78979452Y-115942238D01*
X78979453Y-115942240D01*
X79038842Y-116163887D01*
X79126650Y-116375876D01*
X79126657Y-116375890D01*
X79241392Y-116574617D01*
X79381081Y-116756661D01*
X79381089Y-116756670D01*
X79543330Y-116918911D01*
X79543338Y-116918918D01*
X79725382Y-117058607D01*
X79725385Y-117058608D01*
X79725388Y-117058611D01*
X79924112Y-117173344D01*
X79924117Y-117173346D01*
X79924123Y-117173349D01*
X80014640Y-117210842D01*
X80136113Y-117261158D01*
X80357762Y-117320548D01*
X80585266Y-117350500D01*
X80585273Y-117350500D01*
X80814727Y-117350500D01*
X80814734Y-117350500D01*
X81042238Y-117320548D01*
X81263887Y-117261158D01*
X81475888Y-117173344D01*
X81674612Y-117058611D01*
X81856661Y-116918919D01*
X81856665Y-116918914D01*
X81856670Y-116918911D01*
X82018911Y-116756670D01*
X82018914Y-116756665D01*
X82018919Y-116756661D01*
X82158611Y-116574612D01*
X82273344Y-116375888D01*
X82361158Y-116163887D01*
X82420548Y-115942238D01*
X82450500Y-115714734D01*
X82450500Y-115522758D01*
X148649500Y-115522758D01*
X148649500Y-115752241D01*
X148667860Y-115891690D01*
X148679452Y-115979738D01*
X148679453Y-115979740D01*
X148738842Y-116201387D01*
X148826650Y-116413376D01*
X148826657Y-116413390D01*
X148941392Y-116612117D01*
X149081081Y-116794161D01*
X149081089Y-116794170D01*
X149243330Y-116956411D01*
X149243338Y-116956418D01*
X149425382Y-117096107D01*
X149425385Y-117096108D01*
X149425388Y-117096111D01*
X149624112Y-117210844D01*
X149624117Y-117210846D01*
X149624123Y-117210849D01*
X149715480Y-117248690D01*
X149836113Y-117298658D01*
X150057762Y-117358048D01*
X150285266Y-117388000D01*
X150285273Y-117388000D01*
X150514727Y-117388000D01*
X150514734Y-117388000D01*
X150742238Y-117358048D01*
X150963887Y-117298658D01*
X151175888Y-117210844D01*
X151374612Y-117096111D01*
X151556661Y-116956419D01*
X151556665Y-116956414D01*
X151556670Y-116956411D01*
X151718911Y-116794170D01*
X151718914Y-116794165D01*
X151718919Y-116794161D01*
X151858611Y-116612112D01*
X151973344Y-116413388D01*
X152061158Y-116201387D01*
X152120548Y-115979738D01*
X152150500Y-115752234D01*
X152150500Y-115522766D01*
X152120548Y-115295262D01*
X152061158Y-115073613D01*
X151973344Y-114861612D01*
X151858611Y-114662888D01*
X151858608Y-114662885D01*
X151858607Y-114662882D01*
X151718918Y-114480838D01*
X151718911Y-114480830D01*
X151556670Y-114318589D01*
X151556661Y-114318581D01*
X151374617Y-114178892D01*
X151175890Y-114064157D01*
X151175876Y-114064150D01*
X150963887Y-113976342D01*
X150742238Y-113916952D01*
X150704215Y-113911946D01*
X150514741Y-113887000D01*
X150514734Y-113887000D01*
X150285266Y-113887000D01*
X150285258Y-113887000D01*
X150068715Y-113915509D01*
X150057762Y-113916952D01*
X149964076Y-113942054D01*
X149836112Y-113976342D01*
X149624123Y-114064150D01*
X149624109Y-114064157D01*
X149425382Y-114178892D01*
X149243338Y-114318581D01*
X149081081Y-114480838D01*
X148941392Y-114662882D01*
X148826657Y-114861609D01*
X148826650Y-114861623D01*
X148738842Y-115073612D01*
X148679453Y-115295259D01*
X148679451Y-115295270D01*
X148649500Y-115522758D01*
X82450500Y-115522758D01*
X82450500Y-115485266D01*
X82420548Y-115257762D01*
X82361158Y-115036113D01*
X82288876Y-114861609D01*
X82273349Y-114824123D01*
X82273346Y-114824117D01*
X82273344Y-114824112D01*
X82158611Y-114625388D01*
X82158608Y-114625385D01*
X82158607Y-114625382D01*
X82018918Y-114443338D01*
X82018911Y-114443330D01*
X81856670Y-114281089D01*
X81856661Y-114281081D01*
X81674617Y-114141392D01*
X81475890Y-114026657D01*
X81475876Y-114026650D01*
X81263887Y-113938842D01*
X81182191Y-113916952D01*
X81042238Y-113879452D01*
X81004215Y-113874446D01*
X80814741Y-113849500D01*
X80814734Y-113849500D01*
X80585266Y-113849500D01*
X80585258Y-113849500D01*
X80368715Y-113878009D01*
X80357762Y-113879452D01*
X80264076Y-113904554D01*
X80136112Y-113938842D01*
X79924123Y-114026650D01*
X79924109Y-114026657D01*
X79725382Y-114141392D01*
X79543338Y-114281081D01*
X79381081Y-114443338D01*
X79241392Y-114625382D01*
X79126657Y-114824109D01*
X79126650Y-114824123D01*
X79038842Y-115036112D01*
X78979453Y-115257759D01*
X78979451Y-115257770D01*
X78949500Y-115485258D01*
X35950500Y-115485258D01*
X35950500Y-95185258D01*
X113549500Y-95185258D01*
X113549500Y-95414741D01*
X113560908Y-95501387D01*
X113579452Y-95642238D01*
X113615873Y-95778163D01*
X113638842Y-95863887D01*
X113726650Y-96075876D01*
X113726657Y-96075890D01*
X113841392Y-96274617D01*
X113981081Y-96456661D01*
X113981089Y-96456670D01*
X114143330Y-96618911D01*
X114143338Y-96618918D01*
X114325382Y-96758607D01*
X114325385Y-96758608D01*
X114325388Y-96758611D01*
X114524112Y-96873344D01*
X114524117Y-96873346D01*
X114524123Y-96873349D01*
X114615480Y-96911190D01*
X114736113Y-96961158D01*
X114957762Y-97020548D01*
X115185266Y-97050500D01*
X115185273Y-97050500D01*
X115414727Y-97050500D01*
X115414734Y-97050500D01*
X115642238Y-97020548D01*
X115863887Y-96961158D01*
X116075888Y-96873344D01*
X116274612Y-96758611D01*
X116456661Y-96618919D01*
X116456665Y-96618914D01*
X116456670Y-96618911D01*
X116618911Y-96456670D01*
X116618914Y-96456665D01*
X116618919Y-96456661D01*
X116758611Y-96274612D01*
X116873344Y-96075888D01*
X116961158Y-95863887D01*
X117020548Y-95642238D01*
X117050500Y-95414734D01*
X117050500Y-95185266D01*
X117020548Y-94957762D01*
X116984374Y-94822758D01*
X184049500Y-94822758D01*
X184049500Y-95052241D01*
X184067013Y-95185258D01*
X184079452Y-95279738D01*
X184079453Y-95279740D01*
X184138842Y-95501387D01*
X184226650Y-95713376D01*
X184226657Y-95713390D01*
X184341392Y-95912117D01*
X184481081Y-96094161D01*
X184481089Y-96094170D01*
X184643330Y-96256411D01*
X184643338Y-96256418D01*
X184643339Y-96256419D01*
X184667055Y-96274617D01*
X184825382Y-96396107D01*
X184825385Y-96396108D01*
X184825388Y-96396111D01*
X185024112Y-96510844D01*
X185024117Y-96510846D01*
X185024123Y-96510849D01*
X185034087Y-96514976D01*
X185236113Y-96598658D01*
X185457762Y-96658048D01*
X185685266Y-96688000D01*
X185685273Y-96688000D01*
X185914727Y-96688000D01*
X185914734Y-96688000D01*
X186142238Y-96658048D01*
X186363887Y-96598658D01*
X186575888Y-96510844D01*
X186774612Y-96396111D01*
X186956661Y-96256419D01*
X186956665Y-96256414D01*
X186956670Y-96256411D01*
X187118911Y-96094170D01*
X187118914Y-96094165D01*
X187118919Y-96094161D01*
X187258611Y-95912112D01*
X187373344Y-95713388D01*
X187461158Y-95501387D01*
X187520548Y-95279738D01*
X187550500Y-95052234D01*
X187550500Y-94822766D01*
X187520548Y-94595262D01*
X187461158Y-94373613D01*
X187411190Y-94252980D01*
X187373349Y-94161623D01*
X187373346Y-94161617D01*
X187373344Y-94161612D01*
X187258611Y-93962888D01*
X187258608Y-93962885D01*
X187258607Y-93962882D01*
X187118918Y-93780838D01*
X187118911Y-93780830D01*
X186956670Y-93618589D01*
X186956661Y-93618581D01*
X186774617Y-93478892D01*
X186575890Y-93364157D01*
X186575876Y-93364150D01*
X186363887Y-93276342D01*
X186142238Y-93216952D01*
X186104215Y-93211946D01*
X185914741Y-93187000D01*
X185914734Y-93187000D01*
X185685266Y-93187000D01*
X185685258Y-93187000D01*
X185468715Y-93215509D01*
X185457762Y-93216952D01*
X185364076Y-93242054D01*
X185236112Y-93276342D01*
X185024123Y-93364150D01*
X185024109Y-93364157D01*
X184825382Y-93478892D01*
X184643338Y-93618581D01*
X184481081Y-93780838D01*
X184341392Y-93962882D01*
X184226657Y-94161609D01*
X184226650Y-94161623D01*
X184138842Y-94373612D01*
X184079453Y-94595259D01*
X184079451Y-94595270D01*
X184049500Y-94822758D01*
X116984374Y-94822758D01*
X116961158Y-94736113D01*
X116873344Y-94524112D01*
X116758611Y-94325388D01*
X116758608Y-94325385D01*
X116758607Y-94325382D01*
X116618918Y-94143338D01*
X116618911Y-94143330D01*
X116456670Y-93981089D01*
X116456661Y-93981081D01*
X116274617Y-93841392D01*
X116075890Y-93726657D01*
X116075876Y-93726650D01*
X115863887Y-93638842D01*
X115642238Y-93579452D01*
X115604215Y-93574446D01*
X115414741Y-93549500D01*
X115414734Y-93549500D01*
X115185266Y-93549500D01*
X115185258Y-93549500D01*
X114968715Y-93578009D01*
X114957762Y-93579452D01*
X114864076Y-93604554D01*
X114736112Y-93638842D01*
X114524123Y-93726650D01*
X114524109Y-93726657D01*
X114325382Y-93841392D01*
X114143338Y-93981081D01*
X113981081Y-94143338D01*
X113841392Y-94325382D01*
X113726657Y-94524109D01*
X113726650Y-94524123D01*
X113638842Y-94736112D01*
X113579453Y-94957759D01*
X113579451Y-94957770D01*
X113549500Y-95185258D01*
X35950500Y-95185258D01*
X35950500Y-89021153D01*
X176599500Y-89021153D01*
X176599500Y-89178846D01*
X176630261Y-89333489D01*
X176630264Y-89333501D01*
X176690602Y-89479172D01*
X176690609Y-89479185D01*
X176778210Y-89610288D01*
X176778213Y-89610292D01*
X176889707Y-89721786D01*
X176889711Y-89721789D01*
X177020814Y-89809390D01*
X177020827Y-89809397D01*
X177139386Y-89858505D01*
X177166503Y-89869737D01*
X177321153Y-89900499D01*
X177321156Y-89900500D01*
X177321158Y-89900500D01*
X177478844Y-89900500D01*
X177478845Y-89900499D01*
X177633497Y-89869737D01*
X177660616Y-89858503D01*
X177707481Y-89849065D01*
X183498245Y-89821922D01*
X183546278Y-89831360D01*
X183566498Y-89839735D01*
X183566503Y-89839737D01*
X183717312Y-89869735D01*
X183721153Y-89870499D01*
X183721156Y-89870500D01*
X183721158Y-89870500D01*
X183878844Y-89870500D01*
X183878845Y-89870499D01*
X184033497Y-89839737D01*
X184179179Y-89779394D01*
X184310289Y-89691789D01*
X184421789Y-89580289D01*
X184509394Y-89449179D01*
X184569737Y-89303497D01*
X184600500Y-89148842D01*
X184600500Y-88991158D01*
X184600500Y-88991155D01*
X184600499Y-88991153D01*
X184569737Y-88836503D01*
X184521823Y-88720827D01*
X184509397Y-88690827D01*
X184509390Y-88690814D01*
X184421789Y-88559711D01*
X184421786Y-88559707D01*
X184310292Y-88448213D01*
X184310288Y-88448210D01*
X184179185Y-88360609D01*
X184179172Y-88360602D01*
X184033501Y-88300264D01*
X184033489Y-88300261D01*
X183878845Y-88269500D01*
X183878842Y-88269500D01*
X183721158Y-88269500D01*
X183721155Y-88269500D01*
X183566505Y-88300261D01*
X183566501Y-88300263D01*
X183539382Y-88311496D01*
X183492512Y-88320933D01*
X177701751Y-88348076D01*
X177653721Y-88338640D01*
X177633497Y-88330263D01*
X177633493Y-88330262D01*
X177633488Y-88330260D01*
X177478845Y-88299500D01*
X177478842Y-88299500D01*
X177321158Y-88299500D01*
X177321155Y-88299500D01*
X177166510Y-88330261D01*
X177166498Y-88330264D01*
X177020827Y-88390602D01*
X177020814Y-88390609D01*
X176889711Y-88478210D01*
X176889707Y-88478213D01*
X176778213Y-88589707D01*
X176778210Y-88589711D01*
X176690609Y-88720814D01*
X176690602Y-88720827D01*
X176630264Y-88866498D01*
X176630261Y-88866510D01*
X176599500Y-89021153D01*
X35950500Y-89021153D01*
X35950500Y-55685258D01*
X78749500Y-55685258D01*
X78749500Y-55914741D01*
X78771224Y-56079740D01*
X78779452Y-56142238D01*
X78779453Y-56142240D01*
X78838842Y-56363887D01*
X78926650Y-56575876D01*
X78926657Y-56575890D01*
X79041392Y-56774617D01*
X79181081Y-56956661D01*
X79181089Y-56956670D01*
X79343330Y-57118911D01*
X79343338Y-57118918D01*
X79525382Y-57258607D01*
X79525385Y-57258608D01*
X79525388Y-57258611D01*
X79724112Y-57373344D01*
X79724117Y-57373346D01*
X79724123Y-57373349D01*
X79785225Y-57398658D01*
X79936113Y-57461158D01*
X80157762Y-57520548D01*
X80385266Y-57550500D01*
X80385273Y-57550500D01*
X80614727Y-57550500D01*
X80614734Y-57550500D01*
X80842238Y-57520548D01*
X81063887Y-57461158D01*
X81275888Y-57373344D01*
X81474612Y-57258611D01*
X81656661Y-57118919D01*
X81656665Y-57118914D01*
X81656670Y-57118911D01*
X81818911Y-56956670D01*
X81818914Y-56956665D01*
X81818919Y-56956661D01*
X81958611Y-56774612D01*
X82073344Y-56575888D01*
X82161158Y-56363887D01*
X82220548Y-56142238D01*
X82250500Y-55914734D01*
X82250500Y-55685266D01*
X82242271Y-55622758D01*
X184049500Y-55622758D01*
X184049500Y-55852241D01*
X184057728Y-55914734D01*
X184079452Y-56079738D01*
X184115873Y-56215663D01*
X184138842Y-56301387D01*
X184226650Y-56513376D01*
X184226657Y-56513390D01*
X184341392Y-56712117D01*
X184481081Y-56894161D01*
X184481089Y-56894170D01*
X184643330Y-57056411D01*
X184643338Y-57056418D01*
X184825382Y-57196107D01*
X184825385Y-57196108D01*
X184825388Y-57196111D01*
X185024112Y-57310844D01*
X185024117Y-57310846D01*
X185024123Y-57310849D01*
X185115480Y-57348690D01*
X185236113Y-57398658D01*
X185457762Y-57458048D01*
X185685266Y-57488000D01*
X185685273Y-57488000D01*
X185914727Y-57488000D01*
X185914734Y-57488000D01*
X186142238Y-57458048D01*
X186363887Y-57398658D01*
X186575888Y-57310844D01*
X186774612Y-57196111D01*
X186956661Y-57056419D01*
X186956665Y-57056414D01*
X186956670Y-57056411D01*
X187118911Y-56894170D01*
X187118914Y-56894165D01*
X187118919Y-56894161D01*
X187258611Y-56712112D01*
X187373344Y-56513388D01*
X187461158Y-56301387D01*
X187520548Y-56079738D01*
X187550500Y-55852234D01*
X187550500Y-55622766D01*
X187520548Y-55395262D01*
X187461158Y-55173613D01*
X187399237Y-55024123D01*
X187373349Y-54961623D01*
X187373346Y-54961617D01*
X187373344Y-54961612D01*
X187258611Y-54762888D01*
X187258608Y-54762885D01*
X187258607Y-54762882D01*
X187118918Y-54580838D01*
X187118911Y-54580830D01*
X186956670Y-54418589D01*
X186956661Y-54418581D01*
X186774617Y-54278892D01*
X186575890Y-54164157D01*
X186575876Y-54164150D01*
X186363887Y-54076342D01*
X186142238Y-54016952D01*
X186104215Y-54011946D01*
X185914741Y-53987000D01*
X185914734Y-53987000D01*
X185685266Y-53987000D01*
X185685258Y-53987000D01*
X185468715Y-54015509D01*
X185457762Y-54016952D01*
X185364076Y-54042054D01*
X185236112Y-54076342D01*
X185024123Y-54164150D01*
X185024109Y-54164157D01*
X184825382Y-54278892D01*
X184643338Y-54418581D01*
X184481081Y-54580838D01*
X184341392Y-54762882D01*
X184226657Y-54961609D01*
X184226650Y-54961623D01*
X184138842Y-55173612D01*
X184079453Y-55395259D01*
X184079451Y-55395270D01*
X184049500Y-55622758D01*
X82242271Y-55622758D01*
X82220548Y-55457762D01*
X82161158Y-55236113D01*
X82073344Y-55024112D01*
X81958611Y-54825388D01*
X81958608Y-54825385D01*
X81958607Y-54825382D01*
X81818918Y-54643338D01*
X81818911Y-54643330D01*
X81656670Y-54481089D01*
X81656661Y-54481081D01*
X81474617Y-54341392D01*
X81275890Y-54226657D01*
X81275876Y-54226650D01*
X81063887Y-54138842D01*
X80842238Y-54079452D01*
X80804215Y-54074446D01*
X80614741Y-54049500D01*
X80614734Y-54049500D01*
X80385266Y-54049500D01*
X80385258Y-54049500D01*
X80181384Y-54076342D01*
X80157762Y-54079452D01*
X80064076Y-54104554D01*
X79936112Y-54138842D01*
X79724123Y-54226650D01*
X79724109Y-54226657D01*
X79525382Y-54341392D01*
X79343338Y-54481081D01*
X79181081Y-54643338D01*
X79041392Y-54825382D01*
X78926657Y-55024109D01*
X78926650Y-55024123D01*
X78838842Y-55236112D01*
X78804554Y-55364076D01*
X78782655Y-55445810D01*
X78779453Y-55457759D01*
X78779451Y-55457770D01*
X78749500Y-55685258D01*
X35950500Y-55685258D01*
X35950500Y-38474500D01*
X35970185Y-38407461D01*
X36022989Y-38361706D01*
X36074500Y-38350500D01*
X198025500Y-38350500D01*
X198092539Y-38370185D01*
G37*
%TD.AperFunction*%
%TD*%
M02*
