solid CATIA STL
  facet normal -2.670288e-007  1.000000e+000  0.000000e+000
    outer loop
      vertex -2.500000e+001 -8.552464e+000  6.000000e+000
      vertex  2.500000e+001 -8.552450e+000  6.000000e+000
      vertex -2.500000e+001 -8.552464e+000  0.000000e+000
    endloop
  endfacet
  facet normal -2.670288e-007  1.000000e+000  0.000000e+000
    outer loop
      vertex -2.500000e+001 -8.552464e+000  0.000000e+000
      vertex  2.500000e+001 -8.552450e+000  6.000000e+000
      vertex  2.500000e+001 -8.552450e+000  0.000000e+000
    endloop
  endfacet
  facet normal  9.999999e-001  -0.000000e+000  0.000000e+000
    outer loop
      vertex  2.500000e+001 -8.552450e+000  6.000000e+000
      vertex  2.500000e+001 -2.900000e+001  6.000000e+000
      vertex  2.500000e+001 -8.552450e+000  0.000000e+000
    endloop
  endfacet
  facet normal  9.999999e-001  0.000000e+000  0.000000e+000
    outer loop
      vertex  2.500000e+001 -8.552450e+000  0.000000e+000
      vertex  2.500000e+001 -2.900000e+001  6.000000e+000
      vertex  2.500000e+001 -2.900000e+001  0.000000e+000
    endloop
  endfacet
  facet normal -9.999999e-001  0.000000e+000  0.000000e+000
    outer loop
      vertex -2.500000e+001 -8.552464e+000  6.000000e+000
      vertex -2.500000e+001 -8.552464e+000  0.000000e+000
      vertex -2.500000e+001 -2.900000e+001  6.000000e+000
    endloop
  endfacet
  facet normal -9.999999e-001  0.000000e+000  0.000000e+000
    outer loop
      vertex -2.500000e+001 -2.900000e+001  6.000000e+000
      vertex -2.500000e+001 -8.552464e+000  0.000000e+000
      vertex -2.500000e+001 -2.900000e+001  0.000000e+000
    endloop
  endfacet
  facet normal  0.000000e+000  0.000000e+000 -1.000000e+000
    outer loop
      vertex -2.500000e+001 -8.552464e+000  0.000000e+000
      vertex  2.500000e+001 -8.552450e+000  0.000000e+000
      vertex  1.575987e+000 -2.414961e+001  0.000000e+000
    endloop
  endfacet
  facet normal  0.000000e+000  0.000000e+000 -1.000000e+000
    outer loop
      vertex -2.500000e+001 -8.552464e+000  0.000000e+000
      vertex  1.575987e+000 -2.414961e+001  0.000000e+000
      vertex -1.575987e+000 -2.414961e+001  0.000000e+000
    endloop
  endfacet
  facet normal  -0.000000e+000  0.000000e+000 -1.000000e+000
    outer loop
      vertex -2.500000e+001 -8.552464e+000  0.000000e+000
      vertex -1.575987e+000 -2.414961e+001  0.000000e+000
      vertex -4.125987e+000 -2.600229e+001  0.000000e+000
    endloop
  endfacet
  facet normal  -0.000000e+000  0.000000e+000 -1.000000e+000
    outer loop
      vertex -2.500000e+001 -8.552464e+000  0.000000e+000
      vertex -4.125987e+000 -2.600229e+001  0.000000e+000
      vertex -5.100000e+000 -2.900000e+001  0.000000e+000
    endloop
  endfacet
  facet normal  0.000000e+000  0.000000e+000 -1.000000e+000
    outer loop
      vertex -2.500000e+001 -8.552464e+000  0.000000e+000
      vertex -5.100000e+000 -2.900000e+001  0.000000e+000
      vertex -2.500000e+001 -2.900000e+001  0.000000e+000
    endloop
  endfacet
  facet normal  0.000000e+000  0.000000e+000 -9.999999e-001
    outer loop
      vertex -1.574025e+001 -4.285819e+001  0.000000e+000
      vertex -2.060660e+001 -3.960660e+001  0.000000e+000
      vertex -1.000000e+001 -4.400000e+001  0.000000e+000
    endloop
  endfacet
  facet normal  0.000000e+000  0.000000e+000 -1.000000e+000
    outer loop
      vertex -1.000000e+001 -4.400000e+001  0.000000e+000
      vertex -2.060660e+001 -3.960660e+001  0.000000e+000
      vertex -2.385819e+001 -3.474025e+001  0.000000e+000
    endloop
  endfacet
  facet normal  0.000000e+000  0.000000e+000 -1.000000e+000
    outer loop
      vertex -1.000000e+001 -4.400000e+001  0.000000e+000
      vertex -2.385819e+001 -3.474025e+001  0.000000e+000
      vertex  5.329071e-015 -4.400000e+001  0.000000e+000
    endloop
  endfacet
  facet normal  0.000000e+000  0.000000e+000 -1.000000e+000
    outer loop
      vertex  5.329071e-015 -4.400000e+001  0.000000e+000
      vertex -2.385819e+001 -3.474025e+001  0.000000e+000
      vertex -1.575987e+000 -3.385039e+001  0.000000e+000
    endloop
  endfacet
  facet normal  0.000000e+000  0.000000e+000 -1.000000e+000
    outer loop
      vertex  5.329071e-015 -4.400000e+001  0.000000e+000
      vertex -1.575987e+000 -3.385039e+001  0.000000e+000
      vertex  1.000000e+001 -4.400000e+001  0.000000e+000
    endloop
  endfacet
  facet normal  0.000000e+000  0.000000e+000 -1.000000e+000
    outer loop
      vertex  1.000000e+001 -4.400000e+001  0.000000e+000
      vertex -1.575987e+000 -3.385039e+001  0.000000e+000
      vertex  1.575987e+000 -3.385039e+001  0.000000e+000
    endloop
  endfacet
  facet normal  0.000000e+000  0.000000e+000 -1.000000e+000
    outer loop
      vertex  1.000000e+001 -4.400000e+001  0.000000e+000
      vertex  1.575987e+000 -3.385039e+001  0.000000e+000
      vertex  1.574025e+001 -4.285819e+001  0.000000e+000
    endloop
  endfacet
  facet normal  0.000000e+000  0.000000e+000 -1.000000e+000
    outer loop
      vertex  2.060660e+001 -3.960660e+001  0.000000e+000
      vertex  1.574025e+001 -4.285819e+001  0.000000e+000
      vertex  2.385819e+001 -3.474025e+001  0.000000e+000
    endloop
  endfacet
  facet normal  -0.000000e+000  0.000000e+000 -1.000000e+000
    outer loop
      vertex  2.385819e+001 -3.474025e+001  0.000000e+000
      vertex  1.574025e+001 -4.285819e+001  0.000000e+000
      vertex  1.575987e+000 -3.385039e+001  0.000000e+000
    endloop
  endfacet
  facet normal  0.000000e+000  0.000000e+000 -1.000000e+000
    outer loop
      vertex  2.385819e+001 -3.474025e+001  0.000000e+000
      vertex  1.575987e+000 -3.385039e+001  0.000000e+000
      vertex  2.500000e+001 -2.900000e+001  0.000000e+000
    endloop
  endfacet
  facet normal  0.000000e+000  0.000000e+000 -1.000000e+000
    outer loop
      vertex  2.500000e+001 -2.900000e+001  0.000000e+000
      vertex  1.575987e+000 -3.385039e+001  0.000000e+000
      vertex  4.125987e+000 -3.199771e+001  0.000000e+000
    endloop
  endfacet
  facet normal  0.000000e+000  0.000000e+000 -1.000000e+000
    outer loop
      vertex  2.500000e+001 -2.900000e+001  0.000000e+000
      vertex  4.125987e+000 -3.199771e+001  0.000000e+000
      vertex  5.100000e+000 -2.900000e+001  0.000000e+000
    endloop
  endfacet
  facet normal  0.000000e+000  0.000000e+000 -1.000000e+000
    outer loop
      vertex -1.575987e+000 -3.385039e+001  0.000000e+000
      vertex -2.385819e+001 -3.474025e+001  0.000000e+000
      vertex -4.125987e+000 -3.199771e+001  0.000000e+000
    endloop
  endfacet
  facet normal  -0.000000e+000  0.000000e+000 -1.000000e+000
    outer loop
      vertex -4.125987e+000 -3.199771e+001  0.000000e+000
      vertex -2.385819e+001 -3.474025e+001  0.000000e+000
      vertex -2.500000e+001 -2.900000e+001  0.000000e+000
    endloop
  endfacet
  facet normal  0.000000e+000  0.000000e+000 -1.000000e+000
    outer loop
      vertex -4.125987e+000 -3.199771e+001  0.000000e+000
      vertex -2.500000e+001 -2.900000e+001  0.000000e+000
      vertex -5.100000e+000 -2.900000e+001  0.000000e+000
    endloop
  endfacet
  facet normal  0.000000e+000  0.000000e+000 -1.000000e+000
    outer loop
      vertex  2.500000e+001 -2.900000e+001  0.000000e+000
      vertex  5.100000e+000 -2.900000e+001  0.000000e+000
      vertex  2.500000e+001 -8.552450e+000  0.000000e+000
    endloop
  endfacet
  facet normal  0.000000e+000  0.000000e+000 -1.000000e+000
    outer loop
      vertex  2.500000e+001 -8.552450e+000  0.000000e+000
      vertex  5.100000e+000 -2.900000e+001  0.000000e+000
      vertex  4.125987e+000 -2.600229e+001  0.000000e+000
    endloop
  endfacet
  facet normal  0.000000e+000  0.000000e+000 -1.000000e+000
    outer loop
      vertex  2.500000e+001 -8.552450e+000  0.000000e+000
      vertex  4.125987e+000 -2.600229e+001  0.000000e+000
      vertex  1.575987e+000 -2.414961e+001  0.000000e+000
    endloop
  endfacet
  facet normal  0.000000e+000  0.000000e+000  1.000000e+000
    outer loop
      vertex -2.500000e+001 -8.552464e+000  6.000000e+000
      vertex -2.500000e+001 -2.900000e+001  6.000000e+000
      vertex -5.100000e+000 -2.900000e+001  6.000000e+000
    endloop
  endfacet
  facet normal  0.000000e+000  -0.000000e+000  1.000000e+000
    outer loop
      vertex -2.500000e+001 -8.552464e+000  6.000000e+000
      vertex -5.100000e+000 -2.900000e+001  6.000000e+000
      vertex -4.125987e+000 -2.600229e+001  6.000000e+000
    endloop
  endfacet
  facet normal  0.000000e+000  -0.000000e+000  1.000000e+000
    outer loop
      vertex -2.500000e+001 -8.552464e+000  6.000000e+000
      vertex -4.125987e+000 -2.600229e+001  6.000000e+000
      vertex -1.575987e+000 -2.414961e+001  6.000000e+000
    endloop
  endfacet
  facet normal  0.000000e+000  -0.000000e+000  1.000000e+000
    outer loop
      vertex -2.500000e+001 -8.552464e+000  6.000000e+000
      vertex -1.575987e+000 -2.414961e+001  6.000000e+000
      vertex  1.575987e+000 -2.414961e+001  6.000000e+000
    endloop
  endfacet
  facet normal  0.000000e+000  -0.000000e+000  1.000000e+000
    outer loop
      vertex -2.500000e+001 -8.552464e+000  6.000000e+000
      vertex  1.575987e+000 -2.414961e+001  6.000000e+000
      vertex  2.500000e+001 -8.552450e+000  6.000000e+000
    endloop
  endfacet
  facet normal  0.000000e+000  0.000000e+000  1.000000e+000
    outer loop
      vertex  1.574025e+001 -4.285819e+001  6.000000e+000
      vertex  1.575987e+000 -3.385039e+001  6.000000e+000
      vertex  1.000000e+001 -4.400000e+001  6.000000e+000
    endloop
  endfacet
  facet normal  0.000000e+000  0.000000e+000  1.000000e+000
    outer loop
      vertex  1.000000e+001 -4.400000e+001  6.000000e+000
      vertex  1.575987e+000 -3.385039e+001  6.000000e+000
      vertex -1.575987e+000 -3.385039e+001  6.000000e+000
    endloop
  endfacet
  facet normal  0.000000e+000  0.000000e+000  1.000000e+000
    outer loop
      vertex  1.000000e+001 -4.400000e+001  6.000000e+000
      vertex -1.575987e+000 -3.385039e+001  6.000000e+000
      vertex  5.329071e-015 -4.400000e+001  6.000000e+000
    endloop
  endfacet
  facet normal  0.000000e+000  0.000000e+000  1.000000e+000
    outer loop
      vertex  5.329071e-015 -4.400000e+001  6.000000e+000
      vertex -1.575987e+000 -3.385039e+001  6.000000e+000
      vertex -2.385819e+001 -3.474025e+001  6.000000e+000
    endloop
  endfacet
  facet normal  0.000000e+000  0.000000e+000  1.000000e+000
    outer loop
      vertex  5.329071e-015 -4.400000e+001  6.000000e+000
      vertex -2.385819e+001 -3.474025e+001  6.000000e+000
      vertex -1.000000e+001 -4.400000e+001  6.000000e+000
    endloop
  endfacet
  facet normal  0.000000e+000  0.000000e+000  1.000000e+000
    outer loop
      vertex -1.000000e+001 -4.400000e+001  6.000000e+000
      vertex -2.385819e+001 -3.474025e+001  6.000000e+000
      vertex -2.060660e+001 -3.960660e+001  6.000000e+000
    endloop
  endfacet
  facet normal  0.000000e+000  0.000000e+000  9.999999e-001
    outer loop
      vertex -1.000000e+001 -4.400000e+001  6.000000e+000
      vertex -2.060660e+001 -3.960660e+001  6.000000e+000
      vertex -1.574025e+001 -4.285819e+001  6.000000e+000
    endloop
  endfacet
  facet normal  0.000000e+000  0.000000e+000  1.000000e+000
    outer loop
      vertex  5.100000e+000 -2.900000e+001  6.000000e+000
      vertex  4.125987e+000 -3.199771e+001  6.000000e+000
      vertex  2.500000e+001 -2.900000e+001  6.000000e+000
    endloop
  endfacet
  facet normal  0.000000e+000  0.000000e+000  1.000000e+000
    outer loop
      vertex  2.500000e+001 -2.900000e+001  6.000000e+000
      vertex  4.125987e+000 -3.199771e+001  6.000000e+000
      vertex  1.575987e+000 -3.385039e+001  6.000000e+000
    endloop
  endfacet
  facet normal  -0.000000e+000  0.000000e+000  1.000000e+000
    outer loop
      vertex  2.500000e+001 -2.900000e+001  6.000000e+000
      vertex  1.575987e+000 -3.385039e+001  6.000000e+000
      vertex  2.385819e+001 -3.474025e+001  6.000000e+000
    endloop
  endfacet
  facet normal  0.000000e+000  0.000000e+000  1.000000e+000
    outer loop
      vertex  2.385819e+001 -3.474025e+001  6.000000e+000
      vertex  1.575987e+000 -3.385039e+001  6.000000e+000
      vertex  1.574025e+001 -4.285819e+001  6.000000e+000
    endloop
  endfacet
  facet normal  0.000000e+000  0.000000e+000  1.000000e+000
    outer loop
      vertex  2.385819e+001 -3.474025e+001  6.000000e+000
      vertex  1.574025e+001 -4.285819e+001  6.000000e+000
      vertex  2.060660e+001 -3.960660e+001  6.000000e+000
    endloop
  endfacet
  facet normal  -0.000000e+000  0.000000e+000  1.000000e+000
    outer loop
      vertex -5.100000e+000 -2.900000e+001  6.000000e+000
      vertex -2.500000e+001 -2.900000e+001  6.000000e+000
      vertex -4.125987e+000 -3.199771e+001  6.000000e+000
    endloop
  endfacet
  facet normal  0.000000e+000  0.000000e+000  1.000000e+000
    outer loop
      vertex -4.125987e+000 -3.199771e+001  6.000000e+000
      vertex -2.500000e+001 -2.900000e+001  6.000000e+000
      vertex -2.385819e+001 -3.474025e+001  6.000000e+000
    endloop
  endfacet
  facet normal  0.000000e+000  0.000000e+000  1.000000e+000
    outer loop
      vertex -4.125987e+000 -3.199771e+001  6.000000e+000
      vertex -2.385819e+001 -3.474025e+001  6.000000e+000
      vertex -1.575987e+000 -3.385039e+001  6.000000e+000
    endloop
  endfacet
  facet normal  0.000000e+000  -0.000000e+000  1.000000e+000
    outer loop
      vertex  1.575987e+000 -2.414961e+001  6.000000e+000
      vertex  4.125987e+000 -2.600229e+001  6.000000e+000
      vertex  2.500000e+001 -8.552450e+000  6.000000e+000
    endloop
  endfacet
  facet normal  0.000000e+000  0.000000e+000  1.000000e+000
    outer loop
      vertex  2.500000e+001 -8.552450e+000  6.000000e+000
      vertex  4.125987e+000 -2.600229e+001  6.000000e+000
      vertex  5.100000e+000 -2.900000e+001  6.000000e+000
    endloop
  endfacet
  facet normal  0.000000e+000  0.000000e+000  1.000000e+000
    outer loop
      vertex  2.500000e+001 -8.552450e+000  6.000000e+000
      vertex  5.100000e+000 -2.900000e+001  6.000000e+000
      vertex  2.500000e+001 -2.900000e+001  6.000000e+000
    endloop
  endfacet
  facet normal  5.877850e-001  8.090172e-001  -0.000000e+000
    outer loop
      vertex -1.575987e+000 -3.385039e+001  6.000000e+000
      vertex -4.125987e+000 -3.199771e+001  0.000000e+000
      vertex -4.125987e+000 -3.199771e+001  6.000000e+000
    endloop
  endfacet
  facet normal  9.510565e-001  3.090169e-001  0.000000e+000
    outer loop
      vertex -4.125987e+000 -3.199771e+001  6.000000e+000
      vertex -4.125987e+000 -3.199771e+001  0.000000e+000
      vertex -5.100000e+000 -2.900000e+001  0.000000e+000
    endloop
  endfacet
  facet normal  9.510565e-001  3.090169e-001  -0.000000e+000
    outer loop
      vertex -4.125987e+000 -3.199771e+001  6.000000e+000
      vertex -5.100000e+000 -2.900000e+001  0.000000e+000
      vertex -5.100000e+000 -2.900000e+001  6.000000e+000
    endloop
  endfacet
  facet normal  5.877850e-001  8.090172e-001  0.000000e+000
    outer loop
      vertex -4.125987e+000 -3.199771e+001  0.000000e+000
      vertex -1.575987e+000 -3.385039e+001  6.000000e+000
      vertex -1.575987e+000 -3.385039e+001  0.000000e+000
    endloop
  endfacet
  facet normal  0.000000e+000  1.000000e+000  0.000000e+000
    outer loop
      vertex -1.575987e+000 -3.385039e+001  0.000000e+000
      vertex -1.575987e+000 -3.385039e+001  6.000000e+000
      vertex  1.575987e+000 -3.385039e+001  6.000000e+000
    endloop
  endfacet
  facet normal  0.000000e+000  1.000000e+000  0.000000e+000
    outer loop
      vertex -1.575987e+000 -3.385039e+001  0.000000e+000
      vertex  1.575987e+000 -3.385039e+001  6.000000e+000
      vertex  1.575987e+000 -3.385039e+001  0.000000e+000
    endloop
  endfacet
  facet normal -5.877850e-001  8.090172e-001  0.000000e+000
    outer loop
      vertex  1.575987e+000 -3.385039e+001  0.000000e+000
      vertex  1.575987e+000 -3.385039e+001  6.000000e+000
      vertex  4.125987e+000 -3.199771e+001  6.000000e+000
    endloop
  endfacet
  facet normal -5.877850e-001  8.090172e-001  0.000000e+000
    outer loop
      vertex  1.575987e+000 -3.385039e+001  0.000000e+000
      vertex  4.125987e+000 -3.199771e+001  6.000000e+000
      vertex  4.125987e+000 -3.199771e+001  0.000000e+000
    endloop
  endfacet
  facet normal -9.510565e-001  3.090169e-001  0.000000e+000
    outer loop
      vertex  4.125987e+000 -3.199771e+001  0.000000e+000
      vertex  4.125987e+000 -3.199771e+001  6.000000e+000
      vertex  5.100000e+000 -2.900000e+001  6.000000e+000
    endloop
  endfacet
  facet normal -9.510565e-001  3.090169e-001  0.000000e+000
    outer loop
      vertex  4.125987e+000 -3.199771e+001  0.000000e+000
      vertex  5.100000e+000 -2.900000e+001  6.000000e+000
      vertex  5.100000e+000 -2.900000e+001  0.000000e+000
    endloop
  endfacet
  facet normal -5.877850e-001 -8.090172e-001  0.000000e+000
    outer loop
      vertex  1.575987e+000 -2.414961e+001  6.000000e+000
      vertex  4.125987e+000 -2.600229e+001  0.000000e+000
      vertex  4.125987e+000 -2.600229e+001  6.000000e+000
    endloop
  endfacet
  facet normal -9.510565e-001 -3.090169e-001  -0.000000e+000
    outer loop
      vertex  4.125987e+000 -2.600229e+001  6.000000e+000
      vertex  4.125987e+000 -2.600229e+001  0.000000e+000
      vertex  5.100000e+000 -2.900000e+001  0.000000e+000
    endloop
  endfacet
  facet normal -9.510565e-001 -3.090169e-001  0.000000e+000
    outer loop
      vertex  4.125987e+000 -2.600229e+001  6.000000e+000
      vertex  5.100000e+000 -2.900000e+001  0.000000e+000
      vertex  5.100000e+000 -2.900000e+001  6.000000e+000
    endloop
  endfacet
  facet normal -5.877850e-001 -8.090172e-001  -0.000000e+000
    outer loop
      vertex  4.125987e+000 -2.600229e+001  0.000000e+000
      vertex  1.575987e+000 -2.414961e+001  6.000000e+000
      vertex  1.575987e+000 -2.414961e+001  0.000000e+000
    endloop
  endfacet
  facet normal  0.000000e+000 -1.000000e+000  0.000000e+000
    outer loop
      vertex  1.575987e+000 -2.414961e+001  0.000000e+000
      vertex  1.575987e+000 -2.414961e+001  6.000000e+000
      vertex -1.575987e+000 -2.414961e+001  6.000000e+000
    endloop
  endfacet
  facet normal  0.000000e+000 -1.000000e+000  0.000000e+000
    outer loop
      vertex  1.575987e+000 -2.414961e+001  0.000000e+000
      vertex -1.575987e+000 -2.414961e+001  6.000000e+000
      vertex -1.575987e+000 -2.414961e+001  0.000000e+000
    endloop
  endfacet
  facet normal  5.877850e-001 -8.090172e-001  0.000000e+000
    outer loop
      vertex -1.575987e+000 -2.414961e+001  0.000000e+000
      vertex -1.575987e+000 -2.414961e+001  6.000000e+000
      vertex -4.125987e+000 -2.600229e+001  6.000000e+000
    endloop
  endfacet
  facet normal  5.877850e-001 -8.090172e-001  0.000000e+000
    outer loop
      vertex -1.575987e+000 -2.414961e+001  0.000000e+000
      vertex -4.125987e+000 -2.600229e+001  6.000000e+000
      vertex -4.125987e+000 -2.600229e+001  0.000000e+000
    endloop
  endfacet
  facet normal  9.510565e-001 -3.090169e-001  0.000000e+000
    outer loop
      vertex -4.125987e+000 -2.600229e+001  0.000000e+000
      vertex -4.125987e+000 -2.600229e+001  6.000000e+000
      vertex -5.100000e+000 -2.900000e+001  6.000000e+000
    endloop
  endfacet
  facet normal  9.510565e-001 -3.090169e-001  0.000000e+000
    outer loop
      vertex -4.125987e+000 -2.600229e+001  0.000000e+000
      vertex -5.100000e+000 -2.900000e+001  6.000000e+000
      vertex -5.100000e+000 -2.900000e+001  0.000000e+000
    endloop
  endfacet
  facet normal -9.807852e-001 -1.950905e-001  0.000000e+000
    outer loop
      vertex -2.500000e+001 -2.900000e+001  6.000000e+000
      vertex -2.500000e+001 -2.900000e+001  0.000000e+000
      vertex -2.385819e+001 -3.474025e+001  6.000000e+000
    endloop
  endfacet
  facet normal -9.807852e-001 -1.950905e-001  -0.000000e+000
    outer loop
      vertex -2.385819e+001 -3.474025e+001  6.000000e+000
      vertex -2.500000e+001 -2.900000e+001  0.000000e+000
      vertex -2.385819e+001 -3.474025e+001  0.000000e+000
    endloop
  endfacet
  facet normal -8.314698e-001 -5.555700e-001  0.000000e+000
    outer loop
      vertex -2.385819e+001 -3.474025e+001  6.000000e+000
      vertex -2.385819e+001 -3.474025e+001  0.000000e+000
      vertex -2.060660e+001 -3.960660e+001  6.000000e+000
    endloop
  endfacet
  facet normal -8.314698e-001 -5.555700e-001  -0.000000e+000
    outer loop
      vertex -2.060660e+001 -3.960660e+001  6.000000e+000
      vertex -2.385819e+001 -3.474025e+001  0.000000e+000
      vertex -2.060660e+001 -3.960660e+001  0.000000e+000
    endloop
  endfacet
  facet normal -5.555702e-001 -8.314697e-001  0.000000e+000
    outer loop
      vertex -2.060660e+001 -3.960660e+001  6.000000e+000
      vertex -2.060660e+001 -3.960660e+001  0.000000e+000
      vertex -1.574025e+001 -4.285819e+001  6.000000e+000
    endloop
  endfacet
  facet normal -5.555702e-001 -8.314697e-001  -0.000000e+000
    outer loop
      vertex -1.574025e+001 -4.285819e+001  6.000000e+000
      vertex -2.060660e+001 -3.960660e+001  0.000000e+000
      vertex -1.574025e+001 -4.285819e+001  0.000000e+000
    endloop
  endfacet
  facet normal -1.950904e-001 -9.807854e-001  0.000000e+000
    outer loop
      vertex -1.574025e+001 -4.285819e+001  6.000000e+000
      vertex -1.574025e+001 -4.285819e+001  0.000000e+000
      vertex -1.000000e+001 -4.400000e+001  6.000000e+000
    endloop
  endfacet
  facet normal -1.950904e-001 -9.807854e-001  -0.000000e+000
    outer loop
      vertex -1.000000e+001 -4.400000e+001  6.000000e+000
      vertex -1.574025e+001 -4.285819e+001  0.000000e+000
      vertex -1.000000e+001 -4.400000e+001  0.000000e+000
    endloop
  endfacet
  facet normal  0.000000e+000 -1.000000e+000  0.000000e+000
    outer loop
      vertex  5.329071e-015 -4.400000e+001  6.000000e+000
      vertex -1.000000e+001 -4.400000e+001  6.000000e+000
      vertex  5.329071e-015 -4.400000e+001  0.000000e+000
    endloop
  endfacet
  facet normal  0.000000e+000 -1.000000e+000  0.000000e+000
    outer loop
      vertex  5.329071e-015 -4.400000e+001  0.000000e+000
      vertex -1.000000e+001 -4.400000e+001  6.000000e+000
      vertex -1.000000e+001 -4.400000e+001  0.000000e+000
    endloop
  endfacet
  facet normal  0.000000e+000 -1.000000e+000  0.000000e+000
    outer loop
      vertex  1.000000e+001 -4.400000e+001  6.000000e+000
      vertex  5.329071e-015 -4.400000e+001  6.000000e+000
      vertex  1.000000e+001 -4.400000e+001  0.000000e+000
    endloop
  endfacet
  facet normal  0.000000e+000 -1.000000e+000  0.000000e+000
    outer loop
      vertex  1.000000e+001 -4.400000e+001  0.000000e+000
      vertex  5.329071e-015 -4.400000e+001  6.000000e+000
      vertex  5.329071e-015 -4.400000e+001  0.000000e+000
    endloop
  endfacet
  facet normal  1.950904e-001 -9.807854e-001  0.000000e+000
    outer loop
      vertex  1.000000e+001 -4.400000e+001  6.000000e+000
      vertex  1.000000e+001 -4.400000e+001  0.000000e+000
      vertex  1.574025e+001 -4.285819e+001  6.000000e+000
    endloop
  endfacet
  facet normal  1.950904e-001 -9.807854e-001  0.000000e+000
    outer loop
      vertex  1.574025e+001 -4.285819e+001  6.000000e+000
      vertex  1.000000e+001 -4.400000e+001  0.000000e+000
      vertex  1.574025e+001 -4.285819e+001  0.000000e+000
    endloop
  endfacet
  facet normal  5.555702e-001 -8.314697e-001  0.000000e+000
    outer loop
      vertex  1.574025e+001 -4.285819e+001  6.000000e+000
      vertex  1.574025e+001 -4.285819e+001  0.000000e+000
      vertex  2.060660e+001 -3.960660e+001  6.000000e+000
    endloop
  endfacet
  facet normal  5.555702e-001 -8.314697e-001  0.000000e+000
    outer loop
      vertex  2.060660e+001 -3.960660e+001  6.000000e+000
      vertex  1.574025e+001 -4.285819e+001  0.000000e+000
      vertex  2.060660e+001 -3.960660e+001  0.000000e+000
    endloop
  endfacet
  facet normal  8.314698e-001 -5.555700e-001  0.000000e+000
    outer loop
      vertex  2.060660e+001 -3.960660e+001  6.000000e+000
      vertex  2.060660e+001 -3.960660e+001  0.000000e+000
      vertex  2.385819e+001 -3.474025e+001  6.000000e+000
    endloop
  endfacet
  facet normal  8.314698e-001 -5.555700e-001  0.000000e+000
    outer loop
      vertex  2.385819e+001 -3.474025e+001  6.000000e+000
      vertex  2.060660e+001 -3.960660e+001  0.000000e+000
      vertex  2.385819e+001 -3.474025e+001  0.000000e+000
    endloop
  endfacet
  facet normal  9.807852e-001 -1.950905e-001  0.000000e+000
    outer loop
      vertex  2.385819e+001 -3.474025e+001  6.000000e+000
      vertex  2.385819e+001 -3.474025e+001  0.000000e+000
      vertex  2.500000e+001 -2.900000e+001  6.000000e+000
    endloop
  endfacet
  facet normal  9.807852e-001 -1.950905e-001  0.000000e+000
    outer loop
      vertex  2.500000e+001 -2.900000e+001  6.000000e+000
      vertex  2.385819e+001 -3.474025e+001  0.000000e+000
      vertex  2.500000e+001 -2.900000e+001  0.000000e+000
    endloop
  endfacet
endsolid CATIA STL
