%TF.GenerationSoftware,KiCad,Pcbnew,8.0.0*%
%TF.CreationDate,2024-04-17T16:19:53+02:00*%
%TF.ProjectId,Screen Control,53637265-656e-4204-936f-6e74726f6c2e,rev?*%
%TF.SameCoordinates,Original*%
%TF.FileFunction,Legend,Top*%
%TF.FilePolarity,Positive*%
%FSLAX46Y46*%
G04 Gerber Fmt 4.6, Leading zero omitted, Abs format (unit mm)*
G04 Created by KiCad (PCBNEW 8.0.0) date 2024-04-17 16:19:53*
%MOMM*%
%LPD*%
G01*
G04 APERTURE LIST*
%ADD10C,0.300000*%
%ADD11C,0.150000*%
%ADD12C,0.254000*%
%ADD13C,0.127000*%
%ADD14C,0.200000*%
%ADD15C,0.120000*%
%ADD16C,0.100000*%
G04 APERTURE END LIST*
D10*
X156048748Y-62079712D02*
X156048748Y-60579712D01*
X156048748Y-60579712D02*
X156405891Y-60579712D01*
X156405891Y-60579712D02*
X156620177Y-60651141D01*
X156620177Y-60651141D02*
X156763034Y-60793998D01*
X156763034Y-60793998D02*
X156834463Y-60936855D01*
X156834463Y-60936855D02*
X156905891Y-61222569D01*
X156905891Y-61222569D02*
X156905891Y-61436855D01*
X156905891Y-61436855D02*
X156834463Y-61722569D01*
X156834463Y-61722569D02*
X156763034Y-61865426D01*
X156763034Y-61865426D02*
X156620177Y-62008284D01*
X156620177Y-62008284D02*
X156405891Y-62079712D01*
X156405891Y-62079712D02*
X156048748Y-62079712D01*
X157477320Y-62008284D02*
X157691606Y-62079712D01*
X157691606Y-62079712D02*
X158048748Y-62079712D01*
X158048748Y-62079712D02*
X158191606Y-62008284D01*
X158191606Y-62008284D02*
X158263034Y-61936855D01*
X158263034Y-61936855D02*
X158334463Y-61793998D01*
X158334463Y-61793998D02*
X158334463Y-61651141D01*
X158334463Y-61651141D02*
X158263034Y-61508284D01*
X158263034Y-61508284D02*
X158191606Y-61436855D01*
X158191606Y-61436855D02*
X158048748Y-61365426D01*
X158048748Y-61365426D02*
X157763034Y-61293998D01*
X157763034Y-61293998D02*
X157620177Y-61222569D01*
X157620177Y-61222569D02*
X157548748Y-61151141D01*
X157548748Y-61151141D02*
X157477320Y-61008284D01*
X157477320Y-61008284D02*
X157477320Y-60865426D01*
X157477320Y-60865426D02*
X157548748Y-60722569D01*
X157548748Y-60722569D02*
X157620177Y-60651141D01*
X157620177Y-60651141D02*
X157763034Y-60579712D01*
X157763034Y-60579712D02*
X158120177Y-60579712D01*
X158120177Y-60579712D02*
X158334463Y-60651141D01*
X159477319Y-61293998D02*
X159691605Y-61365426D01*
X159691605Y-61365426D02*
X159763034Y-61436855D01*
X159763034Y-61436855D02*
X159834462Y-61579712D01*
X159834462Y-61579712D02*
X159834462Y-61793998D01*
X159834462Y-61793998D02*
X159763034Y-61936855D01*
X159763034Y-61936855D02*
X159691605Y-62008284D01*
X159691605Y-62008284D02*
X159548748Y-62079712D01*
X159548748Y-62079712D02*
X158977319Y-62079712D01*
X158977319Y-62079712D02*
X158977319Y-60579712D01*
X158977319Y-60579712D02*
X159477319Y-60579712D01*
X159477319Y-60579712D02*
X159620177Y-60651141D01*
X159620177Y-60651141D02*
X159691605Y-60722569D01*
X159691605Y-60722569D02*
X159763034Y-60865426D01*
X159763034Y-60865426D02*
X159763034Y-61008284D01*
X159763034Y-61008284D02*
X159691605Y-61151141D01*
X159691605Y-61151141D02*
X159620177Y-61222569D01*
X159620177Y-61222569D02*
X159477319Y-61293998D01*
X159477319Y-61293998D02*
X158977319Y-61293998D01*
X162477319Y-61936855D02*
X162405891Y-62008284D01*
X162405891Y-62008284D02*
X162191605Y-62079712D01*
X162191605Y-62079712D02*
X162048748Y-62079712D01*
X162048748Y-62079712D02*
X161834462Y-62008284D01*
X161834462Y-62008284D02*
X161691605Y-61865426D01*
X161691605Y-61865426D02*
X161620176Y-61722569D01*
X161620176Y-61722569D02*
X161548748Y-61436855D01*
X161548748Y-61436855D02*
X161548748Y-61222569D01*
X161548748Y-61222569D02*
X161620176Y-60936855D01*
X161620176Y-60936855D02*
X161691605Y-60793998D01*
X161691605Y-60793998D02*
X161834462Y-60651141D01*
X161834462Y-60651141D02*
X162048748Y-60579712D01*
X162048748Y-60579712D02*
X162191605Y-60579712D01*
X162191605Y-60579712D02*
X162405891Y-60651141D01*
X162405891Y-60651141D02*
X162477319Y-60722569D01*
X163334462Y-62079712D02*
X163191605Y-62008284D01*
X163191605Y-62008284D02*
X163120176Y-61936855D01*
X163120176Y-61936855D02*
X163048748Y-61793998D01*
X163048748Y-61793998D02*
X163048748Y-61365426D01*
X163048748Y-61365426D02*
X163120176Y-61222569D01*
X163120176Y-61222569D02*
X163191605Y-61151141D01*
X163191605Y-61151141D02*
X163334462Y-61079712D01*
X163334462Y-61079712D02*
X163548748Y-61079712D01*
X163548748Y-61079712D02*
X163691605Y-61151141D01*
X163691605Y-61151141D02*
X163763034Y-61222569D01*
X163763034Y-61222569D02*
X163834462Y-61365426D01*
X163834462Y-61365426D02*
X163834462Y-61793998D01*
X163834462Y-61793998D02*
X163763034Y-61936855D01*
X163763034Y-61936855D02*
X163691605Y-62008284D01*
X163691605Y-62008284D02*
X163548748Y-62079712D01*
X163548748Y-62079712D02*
X163334462Y-62079712D01*
X164477319Y-61079712D02*
X164477319Y-62079712D01*
X164477319Y-61222569D02*
X164548748Y-61151141D01*
X164548748Y-61151141D02*
X164691605Y-61079712D01*
X164691605Y-61079712D02*
X164905891Y-61079712D01*
X164905891Y-61079712D02*
X165048748Y-61151141D01*
X165048748Y-61151141D02*
X165120177Y-61293998D01*
X165120177Y-61293998D02*
X165120177Y-62079712D01*
X165620177Y-61079712D02*
X166191605Y-61079712D01*
X165834462Y-60579712D02*
X165834462Y-61865426D01*
X165834462Y-61865426D02*
X165905891Y-62008284D01*
X165905891Y-62008284D02*
X166048748Y-62079712D01*
X166048748Y-62079712D02*
X166191605Y-62079712D01*
X166691605Y-62079712D02*
X166691605Y-61079712D01*
X166691605Y-61365426D02*
X166763034Y-61222569D01*
X166763034Y-61222569D02*
X166834463Y-61151141D01*
X166834463Y-61151141D02*
X166977320Y-61079712D01*
X166977320Y-61079712D02*
X167120177Y-61079712D01*
X167834462Y-62079712D02*
X167691605Y-62008284D01*
X167691605Y-62008284D02*
X167620176Y-61936855D01*
X167620176Y-61936855D02*
X167548748Y-61793998D01*
X167548748Y-61793998D02*
X167548748Y-61365426D01*
X167548748Y-61365426D02*
X167620176Y-61222569D01*
X167620176Y-61222569D02*
X167691605Y-61151141D01*
X167691605Y-61151141D02*
X167834462Y-61079712D01*
X167834462Y-61079712D02*
X168048748Y-61079712D01*
X168048748Y-61079712D02*
X168191605Y-61151141D01*
X168191605Y-61151141D02*
X168263034Y-61222569D01*
X168263034Y-61222569D02*
X168334462Y-61365426D01*
X168334462Y-61365426D02*
X168334462Y-61793998D01*
X168334462Y-61793998D02*
X168263034Y-61936855D01*
X168263034Y-61936855D02*
X168191605Y-62008284D01*
X168191605Y-62008284D02*
X168048748Y-62079712D01*
X168048748Y-62079712D02*
X167834462Y-62079712D01*
X169191605Y-62079712D02*
X169048748Y-62008284D01*
X169048748Y-62008284D02*
X168977319Y-61865426D01*
X168977319Y-61865426D02*
X168977319Y-60579712D01*
X169977319Y-62079712D02*
X169834462Y-62008284D01*
X169834462Y-62008284D02*
X169763033Y-61865426D01*
X169763033Y-61865426D02*
X169763033Y-60579712D01*
X171120176Y-62008284D02*
X170977319Y-62079712D01*
X170977319Y-62079712D02*
X170691605Y-62079712D01*
X170691605Y-62079712D02*
X170548747Y-62008284D01*
X170548747Y-62008284D02*
X170477319Y-61865426D01*
X170477319Y-61865426D02*
X170477319Y-61293998D01*
X170477319Y-61293998D02*
X170548747Y-61151141D01*
X170548747Y-61151141D02*
X170691605Y-61079712D01*
X170691605Y-61079712D02*
X170977319Y-61079712D01*
X170977319Y-61079712D02*
X171120176Y-61151141D01*
X171120176Y-61151141D02*
X171191605Y-61293998D01*
X171191605Y-61293998D02*
X171191605Y-61436855D01*
X171191605Y-61436855D02*
X170477319Y-61579712D01*
X171834461Y-62079712D02*
X171834461Y-61079712D01*
X171834461Y-61365426D02*
X171905890Y-61222569D01*
X171905890Y-61222569D02*
X171977319Y-61151141D01*
X171977319Y-61151141D02*
X172120176Y-61079712D01*
X172120176Y-61079712D02*
X172263033Y-61079712D01*
X173763032Y-61079712D02*
X174120175Y-62079712D01*
X174120175Y-62079712D02*
X174477318Y-61079712D01*
X175834461Y-62079712D02*
X174977318Y-62079712D01*
X175405889Y-62079712D02*
X175405889Y-60579712D01*
X175405889Y-60579712D02*
X175263032Y-60793998D01*
X175263032Y-60793998D02*
X175120175Y-60936855D01*
X175120175Y-60936855D02*
X174977318Y-61008284D01*
X176477317Y-61936855D02*
X176548746Y-62008284D01*
X176548746Y-62008284D02*
X176477317Y-62079712D01*
X176477317Y-62079712D02*
X176405889Y-62008284D01*
X176405889Y-62008284D02*
X176477317Y-61936855D01*
X176477317Y-61936855D02*
X176477317Y-62079712D01*
X177477318Y-60579712D02*
X177620175Y-60579712D01*
X177620175Y-60579712D02*
X177763032Y-60651141D01*
X177763032Y-60651141D02*
X177834461Y-60722569D01*
X177834461Y-60722569D02*
X177905889Y-60865426D01*
X177905889Y-60865426D02*
X177977318Y-61151141D01*
X177977318Y-61151141D02*
X177977318Y-61508284D01*
X177977318Y-61508284D02*
X177905889Y-61793998D01*
X177905889Y-61793998D02*
X177834461Y-61936855D01*
X177834461Y-61936855D02*
X177763032Y-62008284D01*
X177763032Y-62008284D02*
X177620175Y-62079712D01*
X177620175Y-62079712D02*
X177477318Y-62079712D01*
X177477318Y-62079712D02*
X177334461Y-62008284D01*
X177334461Y-62008284D02*
X177263032Y-61936855D01*
X177263032Y-61936855D02*
X177191603Y-61793998D01*
X177191603Y-61793998D02*
X177120175Y-61508284D01*
X177120175Y-61508284D02*
X177120175Y-61151141D01*
X177120175Y-61151141D02*
X177191603Y-60865426D01*
X177191603Y-60865426D02*
X177263032Y-60722569D01*
X177263032Y-60722569D02*
X177334461Y-60651141D01*
X177334461Y-60651141D02*
X177477318Y-60579712D01*
X173048746Y-63708914D02*
X173548746Y-63708914D01*
X173763032Y-64494628D02*
X173048746Y-64494628D01*
X173048746Y-64494628D02*
X173048746Y-62994628D01*
X173048746Y-62994628D02*
X173763032Y-62994628D01*
X174405889Y-64494628D02*
X174405889Y-62994628D01*
X174405889Y-62994628D02*
X174977318Y-62994628D01*
X174977318Y-62994628D02*
X175120175Y-63066057D01*
X175120175Y-63066057D02*
X175191604Y-63137485D01*
X175191604Y-63137485D02*
X175263032Y-63280342D01*
X175263032Y-63280342D02*
X175263032Y-63494628D01*
X175263032Y-63494628D02*
X175191604Y-63637485D01*
X175191604Y-63637485D02*
X175120175Y-63708914D01*
X175120175Y-63708914D02*
X174977318Y-63780342D01*
X174977318Y-63780342D02*
X174405889Y-63780342D01*
X175834461Y-64423200D02*
X176048747Y-64494628D01*
X176048747Y-64494628D02*
X176405889Y-64494628D01*
X176405889Y-64494628D02*
X176548747Y-64423200D01*
X176548747Y-64423200D02*
X176620175Y-64351771D01*
X176620175Y-64351771D02*
X176691604Y-64208914D01*
X176691604Y-64208914D02*
X176691604Y-64066057D01*
X176691604Y-64066057D02*
X176620175Y-63923200D01*
X176620175Y-63923200D02*
X176548747Y-63851771D01*
X176548747Y-63851771D02*
X176405889Y-63780342D01*
X176405889Y-63780342D02*
X176120175Y-63708914D01*
X176120175Y-63708914D02*
X175977318Y-63637485D01*
X175977318Y-63637485D02*
X175905889Y-63566057D01*
X175905889Y-63566057D02*
X175834461Y-63423200D01*
X175834461Y-63423200D02*
X175834461Y-63280342D01*
X175834461Y-63280342D02*
X175905889Y-63137485D01*
X175905889Y-63137485D02*
X175977318Y-63066057D01*
X175977318Y-63066057D02*
X176120175Y-62994628D01*
X176120175Y-62994628D02*
X176477318Y-62994628D01*
X176477318Y-62994628D02*
X176691604Y-63066057D01*
X177263032Y-64066057D02*
X177977318Y-64066057D01*
X177120175Y-64494628D02*
X177620175Y-62994628D01*
X177620175Y-62994628D02*
X178120175Y-64494628D01*
D11*
X124341666Y-91506066D02*
X125341666Y-91506066D01*
X125341666Y-91506066D02*
X125541666Y-91572733D01*
X125541666Y-91572733D02*
X125675000Y-91706066D01*
X125675000Y-91706066D02*
X125741666Y-91906066D01*
X125741666Y-91906066D02*
X125741666Y-92039400D01*
X124341666Y-90972733D02*
X124341666Y-90039399D01*
X124341666Y-90039399D02*
X125741666Y-90639399D01*
X142473019Y-92842733D02*
X143187304Y-92842733D01*
X143187304Y-92842733D02*
X143330161Y-92890352D01*
X143330161Y-92890352D02*
X143425400Y-92985590D01*
X143425400Y-92985590D02*
X143473019Y-93128447D01*
X143473019Y-93128447D02*
X143473019Y-93223685D01*
X142568257Y-92414161D02*
X142520638Y-92366542D01*
X142520638Y-92366542D02*
X142473019Y-92271304D01*
X142473019Y-92271304D02*
X142473019Y-92033209D01*
X142473019Y-92033209D02*
X142520638Y-91937971D01*
X142520638Y-91937971D02*
X142568257Y-91890352D01*
X142568257Y-91890352D02*
X142663495Y-91842733D01*
X142663495Y-91842733D02*
X142758733Y-91842733D01*
X142758733Y-91842733D02*
X142901590Y-91890352D01*
X142901590Y-91890352D02*
X143473019Y-92461780D01*
X143473019Y-92461780D02*
X143473019Y-91842733D01*
X134153447Y-65689105D02*
X134153447Y-66689825D01*
X134153447Y-66689825D02*
X134086732Y-66889969D01*
X134086732Y-66889969D02*
X133953303Y-67023399D01*
X133953303Y-67023399D02*
X133753159Y-67090113D01*
X133753159Y-67090113D02*
X133619730Y-67090113D01*
X135421026Y-66156108D02*
X135421026Y-67090113D01*
X135087453Y-65622391D02*
X134753879Y-66623111D01*
X134753879Y-66623111D02*
X135621170Y-66623111D01*
D12*
X114420918Y-99796523D02*
X113150918Y-99796523D01*
X113150918Y-99796523D02*
X113150918Y-99312713D01*
X113150918Y-99312713D02*
X113211394Y-99191761D01*
X113211394Y-99191761D02*
X113271870Y-99131284D01*
X113271870Y-99131284D02*
X113392822Y-99070808D01*
X113392822Y-99070808D02*
X113574251Y-99070808D01*
X113574251Y-99070808D02*
X113695203Y-99131284D01*
X113695203Y-99131284D02*
X113755680Y-99191761D01*
X113755680Y-99191761D02*
X113816156Y-99312713D01*
X113816156Y-99312713D02*
X113816156Y-99796523D01*
X114360442Y-98586999D02*
X114420918Y-98405570D01*
X114420918Y-98405570D02*
X114420918Y-98103189D01*
X114420918Y-98103189D02*
X114360442Y-97982237D01*
X114360442Y-97982237D02*
X114299965Y-97921761D01*
X114299965Y-97921761D02*
X114179013Y-97861284D01*
X114179013Y-97861284D02*
X114058061Y-97861284D01*
X114058061Y-97861284D02*
X113937108Y-97921761D01*
X113937108Y-97921761D02*
X113876632Y-97982237D01*
X113876632Y-97982237D02*
X113816156Y-98103189D01*
X113816156Y-98103189D02*
X113755680Y-98345094D01*
X113755680Y-98345094D02*
X113695203Y-98466046D01*
X113695203Y-98466046D02*
X113634727Y-98526523D01*
X113634727Y-98526523D02*
X113513775Y-98586999D01*
X113513775Y-98586999D02*
X113392822Y-98586999D01*
X113392822Y-98586999D02*
X113271870Y-98526523D01*
X113271870Y-98526523D02*
X113211394Y-98466046D01*
X113211394Y-98466046D02*
X113150918Y-98345094D01*
X113150918Y-98345094D02*
X113150918Y-98042713D01*
X113150918Y-98042713D02*
X113211394Y-97861284D01*
X114420918Y-96651760D02*
X114420918Y-97377475D01*
X114420918Y-97014618D02*
X113150918Y-97014618D01*
X113150918Y-97014618D02*
X113332346Y-97135570D01*
X113332346Y-97135570D02*
X113453299Y-97256522D01*
X113453299Y-97256522D02*
X113513775Y-97377475D01*
D11*
X133649580Y-99591666D02*
X133697200Y-99639285D01*
X133697200Y-99639285D02*
X133744819Y-99782142D01*
X133744819Y-99782142D02*
X133744819Y-99877380D01*
X133744819Y-99877380D02*
X133697200Y-100020237D01*
X133697200Y-100020237D02*
X133601961Y-100115475D01*
X133601961Y-100115475D02*
X133506723Y-100163094D01*
X133506723Y-100163094D02*
X133316247Y-100210713D01*
X133316247Y-100210713D02*
X133173390Y-100210713D01*
X133173390Y-100210713D02*
X132982914Y-100163094D01*
X132982914Y-100163094D02*
X132887676Y-100115475D01*
X132887676Y-100115475D02*
X132792438Y-100020237D01*
X132792438Y-100020237D02*
X132744819Y-99877380D01*
X132744819Y-99877380D02*
X132744819Y-99782142D01*
X132744819Y-99782142D02*
X132792438Y-99639285D01*
X132792438Y-99639285D02*
X132840057Y-99591666D01*
X133744819Y-98639285D02*
X133744819Y-99210713D01*
X133744819Y-98924999D02*
X132744819Y-98924999D01*
X132744819Y-98924999D02*
X132887676Y-99020237D01*
X132887676Y-99020237D02*
X132982914Y-99115475D01*
X132982914Y-99115475D02*
X133030533Y-99210713D01*
D12*
X115591565Y-70145066D02*
X115652042Y-70205542D01*
X115652042Y-70205542D02*
X115712518Y-70386971D01*
X115712518Y-70386971D02*
X115712518Y-70507923D01*
X115712518Y-70507923D02*
X115652042Y-70689352D01*
X115652042Y-70689352D02*
X115531089Y-70810304D01*
X115531089Y-70810304D02*
X115410137Y-70870781D01*
X115410137Y-70870781D02*
X115168232Y-70931257D01*
X115168232Y-70931257D02*
X114986803Y-70931257D01*
X114986803Y-70931257D02*
X114744899Y-70870781D01*
X114744899Y-70870781D02*
X114623946Y-70810304D01*
X114623946Y-70810304D02*
X114502994Y-70689352D01*
X114502994Y-70689352D02*
X114442518Y-70507923D01*
X114442518Y-70507923D02*
X114442518Y-70386971D01*
X114442518Y-70386971D02*
X114502994Y-70205542D01*
X114502994Y-70205542D02*
X114563470Y-70145066D01*
X114563470Y-69661257D02*
X114502994Y-69600781D01*
X114502994Y-69600781D02*
X114442518Y-69479828D01*
X114442518Y-69479828D02*
X114442518Y-69177447D01*
X114442518Y-69177447D02*
X114502994Y-69056495D01*
X114502994Y-69056495D02*
X114563470Y-68996019D01*
X114563470Y-68996019D02*
X114684422Y-68935542D01*
X114684422Y-68935542D02*
X114805375Y-68935542D01*
X114805375Y-68935542D02*
X114986803Y-68996019D01*
X114986803Y-68996019D02*
X115712518Y-69721733D01*
X115712518Y-69721733D02*
X115712518Y-68935542D01*
D11*
X146675647Y-65587505D02*
X146675647Y-66588225D01*
X146675647Y-66588225D02*
X146608932Y-66788369D01*
X146608932Y-66788369D02*
X146475503Y-66921799D01*
X146475503Y-66921799D02*
X146275359Y-66988513D01*
X146275359Y-66988513D02*
X146141930Y-66988513D01*
X148076655Y-66988513D02*
X147276079Y-66988513D01*
X147676367Y-66988513D02*
X147676367Y-65587505D01*
X147676367Y-65587505D02*
X147542938Y-65787649D01*
X147542938Y-65787649D02*
X147409509Y-65921079D01*
X147409509Y-65921079D02*
X147276079Y-65987793D01*
X123539866Y-65850419D02*
X123539866Y-66564704D01*
X123539866Y-66564704D02*
X123492247Y-66707561D01*
X123492247Y-66707561D02*
X123397009Y-66802800D01*
X123397009Y-66802800D02*
X123254152Y-66850419D01*
X123254152Y-66850419D02*
X123158914Y-66850419D01*
X124492247Y-65850419D02*
X124016057Y-65850419D01*
X124016057Y-65850419D02*
X123968438Y-66326609D01*
X123968438Y-66326609D02*
X124016057Y-66278990D01*
X124016057Y-66278990D02*
X124111295Y-66231371D01*
X124111295Y-66231371D02*
X124349390Y-66231371D01*
X124349390Y-66231371D02*
X124444628Y-66278990D01*
X124444628Y-66278990D02*
X124492247Y-66326609D01*
X124492247Y-66326609D02*
X124539866Y-66421847D01*
X124539866Y-66421847D02*
X124539866Y-66659942D01*
X124539866Y-66659942D02*
X124492247Y-66755180D01*
X124492247Y-66755180D02*
X124444628Y-66802800D01*
X124444628Y-66802800D02*
X124349390Y-66850419D01*
X124349390Y-66850419D02*
X124111295Y-66850419D01*
X124111295Y-66850419D02*
X124016057Y-66802800D01*
X124016057Y-66802800D02*
X123968438Y-66755180D01*
X170583266Y-95746219D02*
X170583266Y-96460504D01*
X170583266Y-96460504D02*
X170535647Y-96603361D01*
X170535647Y-96603361D02*
X170440409Y-96698600D01*
X170440409Y-96698600D02*
X170297552Y-96746219D01*
X170297552Y-96746219D02*
X170202314Y-96746219D01*
X171488028Y-95746219D02*
X171297552Y-95746219D01*
X171297552Y-95746219D02*
X171202314Y-95793838D01*
X171202314Y-95793838D02*
X171154695Y-95841457D01*
X171154695Y-95841457D02*
X171059457Y-95984314D01*
X171059457Y-95984314D02*
X171011838Y-96174790D01*
X171011838Y-96174790D02*
X171011838Y-96555742D01*
X171011838Y-96555742D02*
X171059457Y-96650980D01*
X171059457Y-96650980D02*
X171107076Y-96698600D01*
X171107076Y-96698600D02*
X171202314Y-96746219D01*
X171202314Y-96746219D02*
X171392790Y-96746219D01*
X171392790Y-96746219D02*
X171488028Y-96698600D01*
X171488028Y-96698600D02*
X171535647Y-96650980D01*
X171535647Y-96650980D02*
X171583266Y-96555742D01*
X171583266Y-96555742D02*
X171583266Y-96317647D01*
X171583266Y-96317647D02*
X171535647Y-96222409D01*
X171535647Y-96222409D02*
X171488028Y-96174790D01*
X171488028Y-96174790D02*
X171392790Y-96127171D01*
X171392790Y-96127171D02*
X171202314Y-96127171D01*
X171202314Y-96127171D02*
X171107076Y-96174790D01*
X171107076Y-96174790D02*
X171059457Y-96222409D01*
X171059457Y-96222409D02*
X171011838Y-96317647D01*
X156794295Y-93460219D02*
X157365723Y-93460219D01*
X157080009Y-94460219D02*
X157080009Y-93460219D01*
X158222866Y-94460219D02*
X157651438Y-94460219D01*
X157937152Y-94460219D02*
X157937152Y-93460219D01*
X157937152Y-93460219D02*
X157841914Y-93603076D01*
X157841914Y-93603076D02*
X157746676Y-93698314D01*
X157746676Y-93698314D02*
X157651438Y-93745933D01*
X132308695Y-76010419D02*
X132308695Y-76819942D01*
X132308695Y-76819942D02*
X132356314Y-76915180D01*
X132356314Y-76915180D02*
X132403933Y-76962800D01*
X132403933Y-76962800D02*
X132499171Y-77010419D01*
X132499171Y-77010419D02*
X132689647Y-77010419D01*
X132689647Y-77010419D02*
X132784885Y-76962800D01*
X132784885Y-76962800D02*
X132832504Y-76915180D01*
X132832504Y-76915180D02*
X132880123Y-76819942D01*
X132880123Y-76819942D02*
X132880123Y-76010419D01*
X133880123Y-77010419D02*
X133308695Y-77010419D01*
X133594409Y-77010419D02*
X133594409Y-76010419D01*
X133594409Y-76010419D02*
X133499171Y-76153276D01*
X133499171Y-76153276D02*
X133403933Y-76248514D01*
X133403933Y-76248514D02*
X133308695Y-76296133D01*
X147338580Y-76866033D02*
X147338580Y-76166033D01*
X147338580Y-76166033D02*
X147571914Y-76666033D01*
X147571914Y-76666033D02*
X147805247Y-76166033D01*
X147805247Y-76166033D02*
X147805247Y-76866033D01*
X148138580Y-76866033D02*
X148138580Y-76166033D01*
X148538580Y-76866033D02*
X148238580Y-76466033D01*
X148538580Y-76166033D02*
X148138580Y-76566033D01*
X149138580Y-76166033D02*
X149005247Y-76166033D01*
X149005247Y-76166033D02*
X148938580Y-76199366D01*
X148938580Y-76199366D02*
X148905247Y-76232700D01*
X148905247Y-76232700D02*
X148838580Y-76332700D01*
X148838580Y-76332700D02*
X148805247Y-76466033D01*
X148805247Y-76466033D02*
X148805247Y-76732700D01*
X148805247Y-76732700D02*
X148838580Y-76799366D01*
X148838580Y-76799366D02*
X148871914Y-76832700D01*
X148871914Y-76832700D02*
X148938580Y-76866033D01*
X148938580Y-76866033D02*
X149071914Y-76866033D01*
X149071914Y-76866033D02*
X149138580Y-76832700D01*
X149138580Y-76832700D02*
X149171914Y-76799366D01*
X149171914Y-76799366D02*
X149205247Y-76732700D01*
X149205247Y-76732700D02*
X149205247Y-76566033D01*
X149205247Y-76566033D02*
X149171914Y-76499366D01*
X149171914Y-76499366D02*
X149138580Y-76466033D01*
X149138580Y-76466033D02*
X149071914Y-76432700D01*
X149071914Y-76432700D02*
X148938580Y-76432700D01*
X148938580Y-76432700D02*
X148871914Y-76466033D01*
X148871914Y-76466033D02*
X148838580Y-76499366D01*
X148838580Y-76499366D02*
X148805247Y-76566033D01*
X149805247Y-76166033D02*
X149671914Y-76166033D01*
X149671914Y-76166033D02*
X149605247Y-76199366D01*
X149605247Y-76199366D02*
X149571914Y-76232700D01*
X149571914Y-76232700D02*
X149505247Y-76332700D01*
X149505247Y-76332700D02*
X149471914Y-76466033D01*
X149471914Y-76466033D02*
X149471914Y-76732700D01*
X149471914Y-76732700D02*
X149505247Y-76799366D01*
X149505247Y-76799366D02*
X149538581Y-76832700D01*
X149538581Y-76832700D02*
X149605247Y-76866033D01*
X149605247Y-76866033D02*
X149738581Y-76866033D01*
X149738581Y-76866033D02*
X149805247Y-76832700D01*
X149805247Y-76832700D02*
X149838581Y-76799366D01*
X149838581Y-76799366D02*
X149871914Y-76732700D01*
X149871914Y-76732700D02*
X149871914Y-76566033D01*
X149871914Y-76566033D02*
X149838581Y-76499366D01*
X149838581Y-76499366D02*
X149805247Y-76466033D01*
X149805247Y-76466033D02*
X149738581Y-76432700D01*
X149738581Y-76432700D02*
X149605247Y-76432700D01*
X149605247Y-76432700D02*
X149538581Y-76466033D01*
X149538581Y-76466033D02*
X149505247Y-76499366D01*
X149505247Y-76499366D02*
X149471914Y-76566033D01*
X150405248Y-76499366D02*
X150171914Y-76499366D01*
X150171914Y-76866033D02*
X150171914Y-76166033D01*
X150171914Y-76166033D02*
X150505248Y-76166033D01*
X150705248Y-76166033D02*
X151171914Y-76866033D01*
X151171914Y-76166033D02*
X150705248Y-76866033D01*
X151805248Y-76866033D02*
X151405248Y-76866033D01*
X151605248Y-76866033D02*
X151605248Y-76166033D01*
X151605248Y-76166033D02*
X151538581Y-76266033D01*
X151538581Y-76266033D02*
X151471915Y-76332700D01*
X151471915Y-76332700D02*
X151405248Y-76366033D01*
X152105248Y-76866033D02*
X152105248Y-76166033D01*
X152105248Y-76166033D02*
X152338582Y-76666033D01*
X152338582Y-76666033D02*
X152571915Y-76166033D01*
X152571915Y-76166033D02*
X152571915Y-76866033D01*
X153138582Y-76499366D02*
X153238582Y-76532700D01*
X153238582Y-76532700D02*
X153271915Y-76566033D01*
X153271915Y-76566033D02*
X153305248Y-76632700D01*
X153305248Y-76632700D02*
X153305248Y-76732700D01*
X153305248Y-76732700D02*
X153271915Y-76799366D01*
X153271915Y-76799366D02*
X153238582Y-76832700D01*
X153238582Y-76832700D02*
X153171915Y-76866033D01*
X153171915Y-76866033D02*
X152905248Y-76866033D01*
X152905248Y-76866033D02*
X152905248Y-76166033D01*
X152905248Y-76166033D02*
X153138582Y-76166033D01*
X153138582Y-76166033D02*
X153205248Y-76199366D01*
X153205248Y-76199366D02*
X153238582Y-76232700D01*
X153238582Y-76232700D02*
X153271915Y-76299366D01*
X153271915Y-76299366D02*
X153271915Y-76366033D01*
X153271915Y-76366033D02*
X153238582Y-76432700D01*
X153238582Y-76432700D02*
X153205248Y-76466033D01*
X153205248Y-76466033D02*
X153138582Y-76499366D01*
X153138582Y-76499366D02*
X152905248Y-76499366D01*
X153505248Y-76166033D02*
X153738582Y-76866033D01*
X153738582Y-76866033D02*
X153971915Y-76166033D01*
X154205248Y-76866033D02*
X154205248Y-76166033D01*
X154205248Y-76166033D02*
X154438582Y-76666033D01*
X154438582Y-76666033D02*
X154671915Y-76166033D01*
X154671915Y-76166033D02*
X154671915Y-76866033D01*
X155005248Y-76866033D02*
X155005248Y-76166033D01*
X155005248Y-76166033D02*
X155171915Y-76166033D01*
X155171915Y-76166033D02*
X155271915Y-76199366D01*
X155271915Y-76199366D02*
X155338582Y-76266033D01*
X155338582Y-76266033D02*
X155371915Y-76332700D01*
X155371915Y-76332700D02*
X155405248Y-76466033D01*
X155405248Y-76466033D02*
X155405248Y-76566033D01*
X155405248Y-76566033D02*
X155371915Y-76699366D01*
X155371915Y-76699366D02*
X155338582Y-76766033D01*
X155338582Y-76766033D02*
X155271915Y-76832700D01*
X155271915Y-76832700D02*
X155171915Y-76866033D01*
X155171915Y-76866033D02*
X155005248Y-76866033D01*
X156071915Y-76866033D02*
X155671915Y-76866033D01*
X155871915Y-76866033D02*
X155871915Y-76166033D01*
X155871915Y-76166033D02*
X155805248Y-76266033D01*
X155805248Y-76266033D02*
X155738582Y-76332700D01*
X155738582Y-76332700D02*
X155671915Y-76366033D01*
X156471915Y-76466033D02*
X156405249Y-76432700D01*
X156405249Y-76432700D02*
X156371915Y-76399366D01*
X156371915Y-76399366D02*
X156338582Y-76332700D01*
X156338582Y-76332700D02*
X156338582Y-76299366D01*
X156338582Y-76299366D02*
X156371915Y-76232700D01*
X156371915Y-76232700D02*
X156405249Y-76199366D01*
X156405249Y-76199366D02*
X156471915Y-76166033D01*
X156471915Y-76166033D02*
X156605249Y-76166033D01*
X156605249Y-76166033D02*
X156671915Y-76199366D01*
X156671915Y-76199366D02*
X156705249Y-76232700D01*
X156705249Y-76232700D02*
X156738582Y-76299366D01*
X156738582Y-76299366D02*
X156738582Y-76332700D01*
X156738582Y-76332700D02*
X156705249Y-76399366D01*
X156705249Y-76399366D02*
X156671915Y-76432700D01*
X156671915Y-76432700D02*
X156605249Y-76466033D01*
X156605249Y-76466033D02*
X156471915Y-76466033D01*
X156471915Y-76466033D02*
X156405249Y-76499366D01*
X156405249Y-76499366D02*
X156371915Y-76532700D01*
X156371915Y-76532700D02*
X156338582Y-76599366D01*
X156338582Y-76599366D02*
X156338582Y-76732700D01*
X156338582Y-76732700D02*
X156371915Y-76799366D01*
X156371915Y-76799366D02*
X156405249Y-76832700D01*
X156405249Y-76832700D02*
X156471915Y-76866033D01*
X156471915Y-76866033D02*
X156605249Y-76866033D01*
X156605249Y-76866033D02*
X156671915Y-76832700D01*
X156671915Y-76832700D02*
X156705249Y-76799366D01*
X156705249Y-76799366D02*
X156738582Y-76732700D01*
X156738582Y-76732700D02*
X156738582Y-76599366D01*
X156738582Y-76599366D02*
X156705249Y-76532700D01*
X156705249Y-76532700D02*
X156671915Y-76499366D01*
X156671915Y-76499366D02*
X156605249Y-76466033D01*
X157538582Y-76132700D02*
X156938582Y-77032700D01*
X147788579Y-78009033D02*
X147788579Y-77309033D01*
X147788579Y-77309033D02*
X148021913Y-77809033D01*
X148021913Y-77809033D02*
X148255246Y-77309033D01*
X148255246Y-77309033D02*
X148255246Y-78009033D01*
X148588579Y-78009033D02*
X148588579Y-77309033D01*
X148988579Y-78009033D02*
X148688579Y-77609033D01*
X148988579Y-77309033D02*
X148588579Y-77709033D01*
X149588579Y-77309033D02*
X149455246Y-77309033D01*
X149455246Y-77309033D02*
X149388579Y-77342366D01*
X149388579Y-77342366D02*
X149355246Y-77375700D01*
X149355246Y-77375700D02*
X149288579Y-77475700D01*
X149288579Y-77475700D02*
X149255246Y-77609033D01*
X149255246Y-77609033D02*
X149255246Y-77875700D01*
X149255246Y-77875700D02*
X149288579Y-77942366D01*
X149288579Y-77942366D02*
X149321913Y-77975700D01*
X149321913Y-77975700D02*
X149388579Y-78009033D01*
X149388579Y-78009033D02*
X149521913Y-78009033D01*
X149521913Y-78009033D02*
X149588579Y-77975700D01*
X149588579Y-77975700D02*
X149621913Y-77942366D01*
X149621913Y-77942366D02*
X149655246Y-77875700D01*
X149655246Y-77875700D02*
X149655246Y-77709033D01*
X149655246Y-77709033D02*
X149621913Y-77642366D01*
X149621913Y-77642366D02*
X149588579Y-77609033D01*
X149588579Y-77609033D02*
X149521913Y-77575700D01*
X149521913Y-77575700D02*
X149388579Y-77575700D01*
X149388579Y-77575700D02*
X149321913Y-77609033D01*
X149321913Y-77609033D02*
X149288579Y-77642366D01*
X149288579Y-77642366D02*
X149255246Y-77709033D01*
X150255246Y-77542366D02*
X150255246Y-78009033D01*
X150088580Y-77275700D02*
X149921913Y-77775700D01*
X149921913Y-77775700D02*
X150355246Y-77775700D01*
X150855247Y-77642366D02*
X150621913Y-77642366D01*
X150621913Y-78009033D02*
X150621913Y-77309033D01*
X150621913Y-77309033D02*
X150955247Y-77309033D01*
X151155247Y-77309033D02*
X151621913Y-78009033D01*
X151621913Y-77309033D02*
X151155247Y-78009033D01*
X152221914Y-77309033D02*
X151888580Y-77309033D01*
X151888580Y-77309033D02*
X151855247Y-77642366D01*
X151855247Y-77642366D02*
X151888580Y-77609033D01*
X151888580Y-77609033D02*
X151955247Y-77575700D01*
X151955247Y-77575700D02*
X152121914Y-77575700D01*
X152121914Y-77575700D02*
X152188580Y-77609033D01*
X152188580Y-77609033D02*
X152221914Y-77642366D01*
X152221914Y-77642366D02*
X152255247Y-77709033D01*
X152255247Y-77709033D02*
X152255247Y-77875700D01*
X152255247Y-77875700D02*
X152221914Y-77942366D01*
X152221914Y-77942366D02*
X152188580Y-77975700D01*
X152188580Y-77975700D02*
X152121914Y-78009033D01*
X152121914Y-78009033D02*
X151955247Y-78009033D01*
X151955247Y-78009033D02*
X151888580Y-77975700D01*
X151888580Y-77975700D02*
X151855247Y-77942366D01*
X152921914Y-78009033D02*
X152521914Y-78009033D01*
X152721914Y-78009033D02*
X152721914Y-77309033D01*
X152721914Y-77309033D02*
X152655247Y-77409033D01*
X152655247Y-77409033D02*
X152588581Y-77475700D01*
X152588581Y-77475700D02*
X152521914Y-77509033D01*
X153188581Y-77375700D02*
X153221914Y-77342366D01*
X153221914Y-77342366D02*
X153288581Y-77309033D01*
X153288581Y-77309033D02*
X153455248Y-77309033D01*
X153455248Y-77309033D02*
X153521914Y-77342366D01*
X153521914Y-77342366D02*
X153555248Y-77375700D01*
X153555248Y-77375700D02*
X153588581Y-77442366D01*
X153588581Y-77442366D02*
X153588581Y-77509033D01*
X153588581Y-77509033D02*
X153555248Y-77609033D01*
X153555248Y-77609033D02*
X153155248Y-78009033D01*
X153155248Y-78009033D02*
X153588581Y-78009033D01*
X153788581Y-77309033D02*
X154021915Y-78009033D01*
X154021915Y-78009033D02*
X154255248Y-77309033D01*
X154488581Y-78009033D02*
X154488581Y-77309033D01*
X154488581Y-77309033D02*
X154721915Y-77809033D01*
X154721915Y-77809033D02*
X154955248Y-77309033D01*
X154955248Y-77309033D02*
X154955248Y-78009033D01*
X155288581Y-78009033D02*
X155288581Y-77309033D01*
X155288581Y-77309033D02*
X155455248Y-77309033D01*
X155455248Y-77309033D02*
X155555248Y-77342366D01*
X155555248Y-77342366D02*
X155621915Y-77409033D01*
X155621915Y-77409033D02*
X155655248Y-77475700D01*
X155655248Y-77475700D02*
X155688581Y-77609033D01*
X155688581Y-77609033D02*
X155688581Y-77709033D01*
X155688581Y-77709033D02*
X155655248Y-77842366D01*
X155655248Y-77842366D02*
X155621915Y-77909033D01*
X155621915Y-77909033D02*
X155555248Y-77975700D01*
X155555248Y-77975700D02*
X155455248Y-78009033D01*
X155455248Y-78009033D02*
X155288581Y-78009033D01*
X156355248Y-78009033D02*
X155955248Y-78009033D01*
X156155248Y-78009033D02*
X156155248Y-77309033D01*
X156155248Y-77309033D02*
X156088581Y-77409033D01*
X156088581Y-77409033D02*
X156021915Y-77475700D01*
X156021915Y-77475700D02*
X155955248Y-77509033D01*
X156621915Y-77375700D02*
X156655248Y-77342366D01*
X156655248Y-77342366D02*
X156721915Y-77309033D01*
X156721915Y-77309033D02*
X156888582Y-77309033D01*
X156888582Y-77309033D02*
X156955248Y-77342366D01*
X156955248Y-77342366D02*
X156988582Y-77375700D01*
X156988582Y-77375700D02*
X157021915Y-77442366D01*
X157021915Y-77442366D02*
X157021915Y-77509033D01*
X157021915Y-77509033D02*
X156988582Y-77609033D01*
X156988582Y-77609033D02*
X156588582Y-78009033D01*
X156588582Y-78009033D02*
X157021915Y-78009033D01*
D13*
%TO.C,J7*%
X126490800Y-87349400D02*
X126490800Y-94819400D01*
X126490800Y-94819400D02*
X132840800Y-94819400D01*
X132840800Y-87349400D02*
X126490800Y-87349400D01*
X132840800Y-94819400D02*
X132840800Y-87349400D01*
D14*
X129590800Y-95384400D02*
G75*
G02*
X129390800Y-95384400I-100000J0D01*
G01*
X129390800Y-95384400D02*
G75*
G02*
X129590800Y-95384400I100000J0D01*
G01*
D13*
%TO.C,J2*%
X135383200Y-89889400D02*
X141733200Y-89889400D01*
X135383200Y-94819400D02*
X135383200Y-89889400D01*
X141733200Y-89889400D02*
X141733200Y-94819400D01*
X141733200Y-94819400D02*
X135383200Y-94819400D01*
D14*
X138733200Y-89084400D02*
G75*
G02*
X138533200Y-89084400I-100000J0D01*
G01*
X138533200Y-89084400D02*
G75*
G02*
X138733200Y-89084400I100000J0D01*
G01*
D10*
%TO.C,J4*%
X139726419Y-61747400D02*
G75*
G02*
X139443581Y-61747400I-141419J0D01*
G01*
X139443581Y-61747400D02*
G75*
G02*
X139726419Y-61747400I141419J0D01*
G01*
D13*
X138990000Y-64847400D02*
X128980000Y-64847400D01*
X138990000Y-58497400D02*
X138990000Y-64847400D01*
X128980000Y-64847400D02*
X128980000Y-58497400D01*
X128980000Y-58497400D02*
X138990000Y-58497400D01*
D12*
%TO.C,PS1*%
X115671600Y-87168200D02*
X123171600Y-87168200D01*
X115671600Y-101168200D02*
X115671600Y-87168200D01*
X123171600Y-87168200D02*
X123171600Y-101168200D01*
X123171600Y-101168200D02*
X115671600Y-101168200D01*
X119680960Y-102010200D02*
G75*
G02*
X119454240Y-102010200I-113360J0D01*
G01*
X119454240Y-102010200D02*
G75*
G02*
X119680960Y-102010200I113360J0D01*
G01*
D15*
%TO.C,C1*%
X128500000Y-99425000D02*
X126960000Y-99425000D01*
X128500000Y-99465000D02*
X126960000Y-99465000D01*
X128500000Y-99505000D02*
X126961000Y-99505000D01*
X128500000Y-99545000D02*
X126962000Y-99545000D01*
X128500000Y-99585000D02*
X126964000Y-99585000D01*
X128500000Y-99625000D02*
X126967000Y-99625000D01*
X128500000Y-99665000D02*
X126971000Y-99665000D01*
X128500000Y-99705000D02*
X126975000Y-99705000D01*
X128500000Y-99745000D02*
X126979000Y-99745000D01*
X128500000Y-99785000D02*
X126984000Y-99785000D01*
X128500000Y-99825000D02*
X126990000Y-99825000D01*
X128500000Y-99865000D02*
X126997000Y-99865000D01*
X128500000Y-99905000D02*
X127004000Y-99905000D01*
X128500000Y-99945000D02*
X127012000Y-99945000D01*
X128500000Y-99985000D02*
X127020000Y-99985000D01*
X128500000Y-100025000D02*
X127029000Y-100025000D01*
X128500000Y-100065000D02*
X127039000Y-100065000D01*
X128500000Y-100105000D02*
X127049000Y-100105000D01*
X128500000Y-100146000D02*
X127060000Y-100146000D01*
X128500000Y-100186000D02*
X127072000Y-100186000D01*
X128500000Y-100226000D02*
X127085000Y-100226000D01*
X128500000Y-100266000D02*
X127098000Y-100266000D01*
X128500000Y-100306000D02*
X127112000Y-100306000D01*
X128500000Y-100346000D02*
X127126000Y-100346000D01*
X128500000Y-100386000D02*
X127142000Y-100386000D01*
X128500000Y-100426000D02*
X127158000Y-100426000D01*
X128500000Y-100466000D02*
X127175000Y-100466000D01*
X128500000Y-100506000D02*
X127192000Y-100506000D01*
X128500000Y-100546000D02*
X127211000Y-100546000D01*
X128500000Y-100586000D02*
X127230000Y-100586000D01*
X128500000Y-100626000D02*
X127250000Y-100626000D01*
X128500000Y-100666000D02*
X127272000Y-100666000D01*
X128500000Y-100706000D02*
X127293000Y-100706000D01*
X128500000Y-100746000D02*
X127316000Y-100746000D01*
X128500000Y-100786000D02*
X127340000Y-100786000D01*
X128500000Y-100826000D02*
X127365000Y-100826000D01*
X128500000Y-100866000D02*
X127391000Y-100866000D01*
X128500000Y-100906000D02*
X127418000Y-100906000D01*
X128500000Y-100946000D02*
X127445000Y-100946000D01*
X128500000Y-100986000D02*
X127475000Y-100986000D01*
X128500000Y-101026000D02*
X127505000Y-101026000D01*
X128500000Y-101066000D02*
X127536000Y-101066000D01*
X128500000Y-101106000D02*
X127569000Y-101106000D01*
X128500000Y-101146000D02*
X127603000Y-101146000D01*
X128500000Y-101186000D02*
X127639000Y-101186000D01*
X128500000Y-101226000D02*
X127676000Y-101226000D01*
X128500000Y-101266000D02*
X127714000Y-101266000D01*
X128500000Y-101306000D02*
X127755000Y-101306000D01*
X128500000Y-101346000D02*
X127797000Y-101346000D01*
X128500000Y-101386000D02*
X127841000Y-101386000D01*
X128500000Y-101426000D02*
X127887000Y-101426000D01*
X129824000Y-102026000D02*
X129256000Y-102026000D01*
X130058000Y-101986000D02*
X129022000Y-101986000D01*
X130217000Y-101946000D02*
X128863000Y-101946000D01*
X130345000Y-101906000D02*
X128735000Y-101906000D01*
X130455000Y-101866000D02*
X128625000Y-101866000D01*
X130551000Y-101826000D02*
X128529000Y-101826000D01*
X130638000Y-101786000D02*
X128442000Y-101786000D01*
X130718000Y-101746000D02*
X128362000Y-101746000D01*
X130791000Y-101706000D02*
X128289000Y-101706000D01*
X130859000Y-101666000D02*
X128221000Y-101666000D01*
X130923000Y-101626000D02*
X128157000Y-101626000D01*
X130983000Y-101586000D02*
X128097000Y-101586000D01*
X131015000Y-96620225D02*
X131015000Y-97120225D01*
X131040000Y-101546000D02*
X128040000Y-101546000D01*
X131094000Y-101506000D02*
X127986000Y-101506000D01*
X131145000Y-101466000D02*
X127935000Y-101466000D01*
X131193000Y-101426000D02*
X130580000Y-101426000D01*
X131239000Y-101386000D02*
X130580000Y-101386000D01*
X131265000Y-96870225D02*
X130765000Y-96870225D01*
X131283000Y-101346000D02*
X130580000Y-101346000D01*
X131325000Y-101306000D02*
X130580000Y-101306000D01*
X131366000Y-101266000D02*
X130580000Y-101266000D01*
X131404000Y-101226000D02*
X130580000Y-101226000D01*
X131441000Y-101186000D02*
X130580000Y-101186000D01*
X131477000Y-101146000D02*
X130580000Y-101146000D01*
X131511000Y-101106000D02*
X130580000Y-101106000D01*
X131544000Y-101066000D02*
X130580000Y-101066000D01*
X131575000Y-101026000D02*
X130580000Y-101026000D01*
X131605000Y-100986000D02*
X130580000Y-100986000D01*
X131635000Y-100946000D02*
X130580000Y-100946000D01*
X131662000Y-100906000D02*
X130580000Y-100906000D01*
X131689000Y-100866000D02*
X130580000Y-100866000D01*
X131715000Y-100826000D02*
X130580000Y-100826000D01*
X131740000Y-100786000D02*
X130580000Y-100786000D01*
X131764000Y-100746000D02*
X130580000Y-100746000D01*
X131787000Y-100706000D02*
X130580000Y-100706000D01*
X131808000Y-100666000D02*
X130580000Y-100666000D01*
X131830000Y-100626000D02*
X130580000Y-100626000D01*
X131850000Y-100586000D02*
X130580000Y-100586000D01*
X131869000Y-100546000D02*
X130580000Y-100546000D01*
X131888000Y-100506000D02*
X130580000Y-100506000D01*
X131905000Y-100466000D02*
X130580000Y-100466000D01*
X131922000Y-100426000D02*
X130580000Y-100426000D01*
X131938000Y-100386000D02*
X130580000Y-100386000D01*
X131954000Y-100346000D02*
X130580000Y-100346000D01*
X131968000Y-100306000D02*
X130580000Y-100306000D01*
X131982000Y-100266000D02*
X130580000Y-100266000D01*
X131995000Y-100226000D02*
X130580000Y-100226000D01*
X132008000Y-100186000D02*
X130580000Y-100186000D01*
X132020000Y-100146000D02*
X130580000Y-100146000D01*
X132031000Y-100105000D02*
X130580000Y-100105000D01*
X132041000Y-100065000D02*
X130580000Y-100065000D01*
X132051000Y-100025000D02*
X130580000Y-100025000D01*
X132060000Y-99985000D02*
X130580000Y-99985000D01*
X132068000Y-99945000D02*
X130580000Y-99945000D01*
X132076000Y-99905000D02*
X130580000Y-99905000D01*
X132083000Y-99865000D02*
X130580000Y-99865000D01*
X132090000Y-99825000D02*
X130580000Y-99825000D01*
X132096000Y-99785000D02*
X130580000Y-99785000D01*
X132101000Y-99745000D02*
X130580000Y-99745000D01*
X132105000Y-99705000D02*
X130580000Y-99705000D01*
X132109000Y-99665000D02*
X130580000Y-99665000D01*
X132113000Y-99625000D02*
X130580000Y-99625000D01*
X132116000Y-99585000D02*
X130580000Y-99585000D01*
X132118000Y-99545000D02*
X130580000Y-99545000D01*
X132119000Y-99505000D02*
X130580000Y-99505000D01*
X132120000Y-99425000D02*
X130580000Y-99425000D01*
X132120000Y-99465000D02*
X130580000Y-99465000D01*
X132160000Y-99425000D02*
G75*
G02*
X126920000Y-99425000I-2620000J0D01*
G01*
X126920000Y-99425000D02*
G75*
G02*
X132160000Y-99425000I2620000J0D01*
G01*
D10*
%TO.C,J1*%
X152248619Y-61645800D02*
G75*
G02*
X151965781Y-61645800I-141419J0D01*
G01*
X151965781Y-61645800D02*
G75*
G02*
X152248619Y-61645800I141419J0D01*
G01*
D13*
X151512200Y-64745800D02*
X141502200Y-64745800D01*
X151512200Y-58395800D02*
X151512200Y-64745800D01*
X141502200Y-64745800D02*
X141502200Y-58395800D01*
X141502200Y-58395800D02*
X151512200Y-58395800D01*
D14*
%TO.C,J5*%
X127398200Y-61645800D02*
G75*
G02*
X127198200Y-61645800I-100000J0D01*
G01*
X127198200Y-61645800D02*
G75*
G02*
X127398200Y-61645800I100000J0D01*
G01*
D13*
X126493200Y-64745800D02*
X121563200Y-64745800D01*
X126493200Y-58395800D02*
X126493200Y-64745800D01*
X121563200Y-64745800D02*
X121563200Y-58395800D01*
X121563200Y-58395800D02*
X126493200Y-58395800D01*
%TO.C,J6*%
X168477000Y-97511800D02*
X173407000Y-97511800D01*
X168477000Y-103861800D02*
X168477000Y-97511800D01*
X173407000Y-97511800D02*
X173407000Y-103861800D01*
X173407000Y-103861800D02*
X168477000Y-103861800D01*
D14*
X174312000Y-100761800D02*
G75*
G02*
X174112000Y-100761800I-100000J0D01*
G01*
X174112000Y-100761800D02*
G75*
G02*
X174312000Y-100761800I100000J0D01*
G01*
%TO.C,T1*%
D15*
X147396200Y-86385400D02*
X165176200Y-86385400D01*
X165176200Y-104165400D01*
X147396200Y-104165400D01*
X147396200Y-86385400D01*
D16*
%TO.C,U1*%
X153150581Y-72613000D02*
X152769581Y-72867000D01*
X152515581Y-72613000D01*
X152896581Y-72359000D01*
X153150581Y-72613000D01*
G36*
X153150581Y-72613000D02*
G01*
X152769581Y-72867000D01*
X152515581Y-72613000D01*
X152896581Y-72359000D01*
X153150581Y-72613000D01*
G37*
X153023581Y-73375000D02*
X152642581Y-73629000D01*
X152388581Y-73375000D01*
X152769581Y-73121000D01*
X153023581Y-73375000D01*
G36*
X153023581Y-73375000D02*
G01*
X152642581Y-73629000D01*
X152388581Y-73375000D01*
X152769581Y-73121000D01*
X153023581Y-73375000D01*
G37*
X152769581Y-72232000D02*
X152388581Y-72486000D01*
X152134581Y-72232000D01*
X152515581Y-71978000D01*
X152769581Y-72232000D01*
G36*
X152769581Y-72232000D02*
G01*
X152388581Y-72486000D01*
X152134581Y-72232000D01*
X152515581Y-71978000D01*
X152769581Y-72232000D01*
G37*
X152642581Y-72994000D02*
X152261581Y-73248000D01*
X152007581Y-72994000D01*
X152388581Y-72740000D01*
X152642581Y-72994000D01*
G36*
X152642581Y-72994000D02*
G01*
X152261581Y-73248000D01*
X152007581Y-72994000D01*
X152388581Y-72740000D01*
X152642581Y-72994000D01*
G37*
X152515581Y-73756000D02*
X152134581Y-74010000D01*
X151880581Y-73756000D01*
X152261581Y-73502000D01*
X152515581Y-73756000D01*
G36*
X152515581Y-73756000D02*
G01*
X152134581Y-74010000D01*
X151880581Y-73756000D01*
X152261581Y-73502000D01*
X152515581Y-73756000D01*
G37*
X152388581Y-71851000D02*
X152007581Y-72105000D01*
X151753581Y-71851000D01*
X152134581Y-71597000D01*
X152388581Y-71851000D01*
G36*
X152388581Y-71851000D02*
G01*
X152007581Y-72105000D01*
X151753581Y-71851000D01*
X152134581Y-71597000D01*
X152388581Y-71851000D01*
G37*
X152134581Y-73375000D02*
X151753581Y-73629000D01*
X151499581Y-73375000D01*
X151880581Y-73121000D01*
X152134581Y-73375000D01*
G36*
X152134581Y-73375000D02*
G01*
X151753581Y-73629000D01*
X151499581Y-73375000D01*
X151880581Y-73121000D01*
X152134581Y-73375000D01*
G37*
X152007581Y-74137000D02*
X151626581Y-74391000D01*
X151372581Y-74137000D01*
X151753581Y-73883000D01*
X152007581Y-74137000D01*
G36*
X152007581Y-74137000D02*
G01*
X151626581Y-74391000D01*
X151372581Y-74137000D01*
X151753581Y-73883000D01*
X152007581Y-74137000D01*
G37*
D11*
X181598581Y-82900000D02*
X180328581Y-81630000D01*
X181598581Y-70200000D02*
X168898581Y-70200000D01*
X181598581Y-67660000D02*
X181598581Y-85440000D01*
X181598581Y-67660000D02*
X120638581Y-67660000D01*
X180328581Y-81630000D02*
X181598581Y-81630000D01*
X180328581Y-81630000D02*
X180328581Y-71470000D01*
X180328581Y-80360000D02*
X181598581Y-80360000D01*
X180328581Y-79090000D02*
X181598581Y-79090000D01*
X180328581Y-77820000D02*
X181598581Y-77820000D01*
X180328581Y-76550000D02*
X181598581Y-76550000D01*
X180328581Y-75280000D02*
X181598581Y-75280000D01*
X180328581Y-74010000D02*
X181598581Y-74010000D01*
X180328581Y-72740000D02*
X181598581Y-72740000D01*
X180328581Y-71470000D02*
X181598581Y-71470000D01*
X180328581Y-71470000D02*
X181598581Y-70200000D01*
X168898581Y-82900000D02*
X181598581Y-82900000D01*
X168898581Y-70200000D02*
X168898581Y-82900000D01*
X165088581Y-79090000D02*
X162548581Y-79090000D01*
X165088581Y-74010000D02*
X165088581Y-79090000D01*
X162548581Y-79090000D02*
X162548581Y-74010000D01*
X162548581Y-74010000D02*
X165088581Y-74010000D01*
X158738581Y-82900000D02*
X158738581Y-70200000D01*
X146038581Y-82900000D02*
X158738581Y-82900000D01*
X146038581Y-70200000D02*
X158738581Y-70200000D01*
X146038581Y-70200000D02*
X146038581Y-82900000D01*
X144768581Y-81630000D02*
X140958581Y-81630000D01*
X144768581Y-79090000D02*
X144768581Y-81630000D01*
X140958581Y-81630000D02*
X140958581Y-79090000D01*
X140958581Y-79090000D02*
X144768581Y-79090000D01*
X139688581Y-75280000D02*
X139688581Y-72740000D01*
X139688581Y-72740000D02*
X137148581Y-72740000D01*
X137148581Y-75280000D02*
X139688581Y-75280000D01*
X137148581Y-72740000D02*
X137148581Y-75280000D01*
X125718581Y-80360000D02*
X125718581Y-72740000D01*
X125718581Y-80360000D02*
X120638581Y-80360000D01*
X125718581Y-72740000D02*
X120638581Y-72740000D01*
X120638581Y-85440000D02*
X181598581Y-85440000D01*
X120638581Y-85440000D02*
X120638581Y-67660000D01*
X120638581Y-80360000D02*
X119368581Y-80360000D01*
X119368581Y-80360000D02*
X119368581Y-72740000D01*
X119368581Y-72740000D02*
X120638581Y-72740000D01*
%TD*%
M02*
