%TF.GenerationSoftware,KiCad,Pcbnew,9.0.2*%
%TF.CreationDate,2025-06-08T00:01:42+02:00*%
%TF.ProjectId,bspdv3,62737064-7633-42e6-9b69-6361645f7063,rev?*%
%TF.SameCoordinates,Original*%
%TF.FileFunction,Soldermask,Bot*%
%TF.FilePolarity,Negative*%
%FSLAX46Y46*%
G04 Gerber Fmt 4.6, Leading zero omitted, Abs format (unit mm)*
G04 Created by KiCad (PCBNEW 9.0.2) date 2025-06-08 00:01:42*
%MOMM*%
%LPD*%
G01*
G04 APERTURE LIST*
%ADD10R,1.530000X1.530000*%
%ADD11C,1.530000*%
%ADD12C,1.440000*%
%ADD13C,1.447000*%
%ADD14R,1.600000X1.600000*%
%ADD15C,1.600000*%
%ADD16R,1.217000X1.217000*%
%ADD17C,1.217000*%
%ADD18C,2.700000*%
%ADD19R,1.610000X1.610000*%
%ADD20C,1.610000*%
G04 APERTURE END LIST*
D10*
%TO.C,J3*%
X73460000Y-26710000D03*
D11*
X76000000Y-26710000D03*
%TD*%
D12*
%TO.C,U2*%
X48198500Y-73506000D03*
X45658500Y-73506000D03*
X43118500Y-73506000D03*
%TD*%
D13*
%TO.C,LED1*%
X104580000Y-69430000D03*
X102040000Y-69430000D03*
%TD*%
D14*
%TO.C,C1*%
X81915000Y-76960000D03*
D15*
X79915000Y-76960000D03*
%TD*%
D16*
%TO.C,RV1*%
X50800000Y-55880000D03*
D17*
X53340000Y-53340000D03*
X55880000Y-55880000D03*
%TD*%
D18*
%TO.C,H2*%
X27970000Y-64970000D03*
%TD*%
D13*
%TO.C,LED5*%
X104580000Y-37030000D03*
X102040000Y-37030000D03*
%TD*%
D19*
%TO.C,J1*%
X29210000Y-52195000D03*
D20*
X29210000Y-49655000D03*
X29210000Y-47115000D03*
%TD*%
D13*
%TO.C,LED3*%
X104580000Y-53230000D03*
X102040000Y-53230000D03*
%TD*%
D19*
%TO.C,J2*%
X29210000Y-43180000D03*
D20*
X29210000Y-40640000D03*
X29210000Y-38100000D03*
%TD*%
D14*
%TO.C,C4*%
X50070000Y-66040000D03*
D15*
X52070000Y-66040000D03*
%TD*%
D13*
%TO.C,LED2*%
X104580000Y-61330000D03*
X102040000Y-61330000D03*
%TD*%
D18*
%TO.C,H3*%
X30140000Y-26570000D03*
%TD*%
D14*
%TO.C,C5*%
X44360200Y-66040000D03*
D15*
X42360200Y-66040000D03*
%TD*%
D16*
%TO.C,RV2*%
X55920000Y-44655000D03*
D17*
X53380000Y-47195000D03*
X50840000Y-44655000D03*
%TD*%
D18*
%TO.C,H1*%
X99950000Y-78350000D03*
%TD*%
D13*
%TO.C,LED4*%
X104580000Y-45130000D03*
X102040000Y-45130000D03*
%TD*%
D10*
%TO.C,J4*%
X29210000Y-77470000D03*
D11*
X29210000Y-74930000D03*
%TD*%
M02*
