%TF.GenerationSoftware,KiCad,Pcbnew,9.0.2*%
%TF.CreationDate,2025-06-13T21:58:29+02:00*%
%TF.ProjectId,bspdv4,62737064-7634-42e6-9b69-6361645f7063,rev?*%
%TF.SameCoordinates,Original*%
%TF.FileFunction,Legend,Top*%
%TF.FilePolarity,Positive*%
%FSLAX46Y46*%
G04 Gerber Fmt 4.6, Leading zero omitted, Abs format (unit mm)*
G04 Created by KiCad (PCBNEW 9.0.2) date 2025-06-13 21:58:29*
%MOMM*%
%LPD*%
G01*
G04 APERTURE LIST*
G04 Aperture macros list*
%AMRoundRect*
0 Rectangle with rounded corners*
0 $1 Rounding radius*
0 $2 $3 $4 $5 $6 $7 $8 $9 X,Y pos of 4 corners*
0 Add a 4 corners polygon primitive as box body*
4,1,4,$2,$3,$4,$5,$6,$7,$8,$9,$2,$3,0*
0 Add four circle primitives for the rounded corners*
1,1,$1+$1,$2,$3*
1,1,$1+$1,$4,$5*
1,1,$1+$1,$6,$7*
1,1,$1+$1,$8,$9*
0 Add four rect primitives between the rounded corners*
20,1,$1+$1,$2,$3,$4,$5,0*
20,1,$1+$1,$4,$5,$6,$7,0*
20,1,$1+$1,$6,$7,$8,$9,0*
20,1,$1+$1,$8,$9,$2,$3,0*%
G04 Aperture macros list end*
%ADD10C,0.150000*%
%ADD11C,0.400000*%
%ADD12C,0.125000*%
%ADD13C,0.254000*%
%ADD14C,0.250000*%
%ADD15C,0.200000*%
%ADD16C,0.120000*%
%ADD17C,0.127000*%
%ADD18C,0.100000*%
%ADD19R,1.800000X1.050000*%
%ADD20R,1.470000X1.070000*%
%ADD21C,2.000000*%
%ADD22R,1.530000X1.530000*%
%ADD23C,1.530000*%
%ADD24R,1.050000X1.800000*%
%ADD25C,1.440000*%
%ADD26R,1.528000X0.650000*%
%ADD27R,0.600000X1.150000*%
%ADD28R,0.600000X1.300000*%
%ADD29R,1.150000X0.600000*%
%ADD30C,1.447000*%
%ADD31RoundRect,0.250000X0.550000X0.550000X-0.550000X0.550000X-0.550000X-0.550000X0.550000X-0.550000X0*%
%ADD32C,1.600000*%
%ADD33R,1.217000X1.217000*%
%ADD34C,1.217000*%
%ADD35C,2.700000*%
%ADD36O,1.600000X0.950000*%
%ADD37R,1.610000X1.610000*%
%ADD38C,1.610000*%
%ADD39RoundRect,0.100000X0.100000X-0.637500X0.100000X0.637500X-0.100000X0.637500X-0.100000X-0.637500X0*%
G04 APERTURE END LIST*
D10*
X165952987Y-44146303D02*
X165914892Y-44108207D01*
X165914892Y-44108207D02*
X165876796Y-43993922D01*
X165876796Y-43993922D02*
X165876796Y-43917731D01*
X165876796Y-43917731D02*
X165914892Y-43803445D01*
X165914892Y-43803445D02*
X165991082Y-43727255D01*
X165991082Y-43727255D02*
X166067272Y-43689160D01*
X166067272Y-43689160D02*
X166219653Y-43651064D01*
X166219653Y-43651064D02*
X166333939Y-43651064D01*
X166333939Y-43651064D02*
X166486320Y-43689160D01*
X166486320Y-43689160D02*
X166562511Y-43727255D01*
X166562511Y-43727255D02*
X166638701Y-43803445D01*
X166638701Y-43803445D02*
X166676796Y-43917731D01*
X166676796Y-43917731D02*
X166676796Y-43993922D01*
X166676796Y-43993922D02*
X166638701Y-44108207D01*
X166638701Y-44108207D02*
X166600606Y-44146303D01*
X166410130Y-44832017D02*
X165876796Y-44832017D01*
X166410130Y-44489160D02*
X165991082Y-44489160D01*
X165991082Y-44489160D02*
X165914892Y-44527255D01*
X165914892Y-44527255D02*
X165876796Y-44603445D01*
X165876796Y-44603445D02*
X165876796Y-44717731D01*
X165876796Y-44717731D02*
X165914892Y-44793922D01*
X165914892Y-44793922D02*
X165952987Y-44832017D01*
X165876796Y-45212970D02*
X166410130Y-45212970D01*
X166257749Y-45212970D02*
X166333939Y-45251065D01*
X166333939Y-45251065D02*
X166372034Y-45289160D01*
X166372034Y-45289160D02*
X166410130Y-45365351D01*
X166410130Y-45365351D02*
X166410130Y-45441541D01*
X165876796Y-45708208D02*
X166410130Y-45708208D01*
X166257749Y-45708208D02*
X166333939Y-45746303D01*
X166333939Y-45746303D02*
X166372034Y-45784398D01*
X166372034Y-45784398D02*
X166410130Y-45860589D01*
X166410130Y-45860589D02*
X166410130Y-45936779D01*
X165914892Y-46508208D02*
X165876796Y-46432017D01*
X165876796Y-46432017D02*
X165876796Y-46279636D01*
X165876796Y-46279636D02*
X165914892Y-46203446D01*
X165914892Y-46203446D02*
X165991082Y-46165350D01*
X165991082Y-46165350D02*
X166295844Y-46165350D01*
X166295844Y-46165350D02*
X166372034Y-46203446D01*
X166372034Y-46203446D02*
X166410130Y-46279636D01*
X166410130Y-46279636D02*
X166410130Y-46432017D01*
X166410130Y-46432017D02*
X166372034Y-46508208D01*
X166372034Y-46508208D02*
X166295844Y-46546303D01*
X166295844Y-46546303D02*
X166219653Y-46546303D01*
X166219653Y-46546303D02*
X166143463Y-46165350D01*
X166410130Y-46889160D02*
X165876796Y-46889160D01*
X166333939Y-46889160D02*
X166372034Y-46927255D01*
X166372034Y-46927255D02*
X166410130Y-47003445D01*
X166410130Y-47003445D02*
X166410130Y-47117731D01*
X166410130Y-47117731D02*
X166372034Y-47193922D01*
X166372034Y-47193922D02*
X166295844Y-47232017D01*
X166295844Y-47232017D02*
X165876796Y-47232017D01*
X166410130Y-47498684D02*
X166410130Y-47803446D01*
X166676796Y-47612970D02*
X165991082Y-47612970D01*
X165991082Y-47612970D02*
X165914892Y-47651065D01*
X165914892Y-47651065D02*
X165876796Y-47727255D01*
X165876796Y-47727255D02*
X165876796Y-47803446D01*
X165914892Y-48641541D02*
X165876796Y-48755827D01*
X165876796Y-48755827D02*
X165876796Y-48946303D01*
X165876796Y-48946303D02*
X165914892Y-49022494D01*
X165914892Y-49022494D02*
X165952987Y-49060589D01*
X165952987Y-49060589D02*
X166029177Y-49098684D01*
X166029177Y-49098684D02*
X166105368Y-49098684D01*
X166105368Y-49098684D02*
X166181558Y-49060589D01*
X166181558Y-49060589D02*
X166219653Y-49022494D01*
X166219653Y-49022494D02*
X166257749Y-48946303D01*
X166257749Y-48946303D02*
X166295844Y-48793922D01*
X166295844Y-48793922D02*
X166333939Y-48717732D01*
X166333939Y-48717732D02*
X166372034Y-48679637D01*
X166372034Y-48679637D02*
X166448225Y-48641541D01*
X166448225Y-48641541D02*
X166524415Y-48641541D01*
X166524415Y-48641541D02*
X166600606Y-48679637D01*
X166600606Y-48679637D02*
X166638701Y-48717732D01*
X166638701Y-48717732D02*
X166676796Y-48793922D01*
X166676796Y-48793922D02*
X166676796Y-48984399D01*
X166676796Y-48984399D02*
X166638701Y-49098684D01*
X165914892Y-49746304D02*
X165876796Y-49670113D01*
X165876796Y-49670113D02*
X165876796Y-49517732D01*
X165876796Y-49517732D02*
X165914892Y-49441542D01*
X165914892Y-49441542D02*
X165991082Y-49403446D01*
X165991082Y-49403446D02*
X166295844Y-49403446D01*
X166295844Y-49403446D02*
X166372034Y-49441542D01*
X166372034Y-49441542D02*
X166410130Y-49517732D01*
X166410130Y-49517732D02*
X166410130Y-49670113D01*
X166410130Y-49670113D02*
X166372034Y-49746304D01*
X166372034Y-49746304D02*
X166295844Y-49784399D01*
X166295844Y-49784399D02*
X166219653Y-49784399D01*
X166219653Y-49784399D02*
X166143463Y-49403446D01*
X166410130Y-50127256D02*
X165876796Y-50127256D01*
X166333939Y-50127256D02*
X166372034Y-50165351D01*
X166372034Y-50165351D02*
X166410130Y-50241541D01*
X166410130Y-50241541D02*
X166410130Y-50355827D01*
X166410130Y-50355827D02*
X166372034Y-50432018D01*
X166372034Y-50432018D02*
X166295844Y-50470113D01*
X166295844Y-50470113D02*
X165876796Y-50470113D01*
X165914892Y-50812970D02*
X165876796Y-50889161D01*
X165876796Y-50889161D02*
X165876796Y-51041542D01*
X165876796Y-51041542D02*
X165914892Y-51117732D01*
X165914892Y-51117732D02*
X165991082Y-51155828D01*
X165991082Y-51155828D02*
X166029177Y-51155828D01*
X166029177Y-51155828D02*
X166105368Y-51117732D01*
X166105368Y-51117732D02*
X166143463Y-51041542D01*
X166143463Y-51041542D02*
X166143463Y-50927256D01*
X166143463Y-50927256D02*
X166181558Y-50851066D01*
X166181558Y-50851066D02*
X166257749Y-50812970D01*
X166257749Y-50812970D02*
X166295844Y-50812970D01*
X166295844Y-50812970D02*
X166372034Y-50851066D01*
X166372034Y-50851066D02*
X166410130Y-50927256D01*
X166410130Y-50927256D02*
X166410130Y-51041542D01*
X166410130Y-51041542D02*
X166372034Y-51117732D01*
X165876796Y-51612970D02*
X165914892Y-51536780D01*
X165914892Y-51536780D02*
X165952987Y-51498685D01*
X165952987Y-51498685D02*
X166029177Y-51460589D01*
X166029177Y-51460589D02*
X166257749Y-51460589D01*
X166257749Y-51460589D02*
X166333939Y-51498685D01*
X166333939Y-51498685D02*
X166372034Y-51536780D01*
X166372034Y-51536780D02*
X166410130Y-51612970D01*
X166410130Y-51612970D02*
X166410130Y-51727256D01*
X166410130Y-51727256D02*
X166372034Y-51803447D01*
X166372034Y-51803447D02*
X166333939Y-51841542D01*
X166333939Y-51841542D02*
X166257749Y-51879637D01*
X166257749Y-51879637D02*
X166029177Y-51879637D01*
X166029177Y-51879637D02*
X165952987Y-51841542D01*
X165952987Y-51841542D02*
X165914892Y-51803447D01*
X165914892Y-51803447D02*
X165876796Y-51727256D01*
X165876796Y-51727256D02*
X165876796Y-51612970D01*
X165876796Y-52222495D02*
X166410130Y-52222495D01*
X166257749Y-52222495D02*
X166333939Y-52260590D01*
X166333939Y-52260590D02*
X166372034Y-52298685D01*
X166372034Y-52298685D02*
X166410130Y-52374876D01*
X166410130Y-52374876D02*
X166410130Y-52451066D01*
D11*
X166796014Y-32606819D02*
X167081728Y-32702057D01*
X167081728Y-32702057D02*
X167176966Y-32797295D01*
X167176966Y-32797295D02*
X167272204Y-32987771D01*
X167272204Y-32987771D02*
X167272204Y-33273485D01*
X167272204Y-33273485D02*
X167176966Y-33463961D01*
X167176966Y-33463961D02*
X167081728Y-33559200D01*
X167081728Y-33559200D02*
X166891252Y-33654438D01*
X166891252Y-33654438D02*
X166129347Y-33654438D01*
X166129347Y-33654438D02*
X166129347Y-31654438D01*
X166129347Y-31654438D02*
X166796014Y-31654438D01*
X166796014Y-31654438D02*
X166986490Y-31749676D01*
X166986490Y-31749676D02*
X167081728Y-31844914D01*
X167081728Y-31844914D02*
X167176966Y-32035390D01*
X167176966Y-32035390D02*
X167176966Y-32225866D01*
X167176966Y-32225866D02*
X167081728Y-32416342D01*
X167081728Y-32416342D02*
X166986490Y-32511580D01*
X166986490Y-32511580D02*
X166796014Y-32606819D01*
X166796014Y-32606819D02*
X166129347Y-32606819D01*
X168034109Y-33559200D02*
X168319823Y-33654438D01*
X168319823Y-33654438D02*
X168796014Y-33654438D01*
X168796014Y-33654438D02*
X168986490Y-33559200D01*
X168986490Y-33559200D02*
X169081728Y-33463961D01*
X169081728Y-33463961D02*
X169176966Y-33273485D01*
X169176966Y-33273485D02*
X169176966Y-33083009D01*
X169176966Y-33083009D02*
X169081728Y-32892533D01*
X169081728Y-32892533D02*
X168986490Y-32797295D01*
X168986490Y-32797295D02*
X168796014Y-32702057D01*
X168796014Y-32702057D02*
X168415061Y-32606819D01*
X168415061Y-32606819D02*
X168224585Y-32511580D01*
X168224585Y-32511580D02*
X168129347Y-32416342D01*
X168129347Y-32416342D02*
X168034109Y-32225866D01*
X168034109Y-32225866D02*
X168034109Y-32035390D01*
X168034109Y-32035390D02*
X168129347Y-31844914D01*
X168129347Y-31844914D02*
X168224585Y-31749676D01*
X168224585Y-31749676D02*
X168415061Y-31654438D01*
X168415061Y-31654438D02*
X168891252Y-31654438D01*
X168891252Y-31654438D02*
X169176966Y-31749676D01*
X170034109Y-33654438D02*
X170034109Y-31654438D01*
X170034109Y-31654438D02*
X170796014Y-31654438D01*
X170796014Y-31654438D02*
X170986490Y-31749676D01*
X170986490Y-31749676D02*
X171081728Y-31844914D01*
X171081728Y-31844914D02*
X171176966Y-32035390D01*
X171176966Y-32035390D02*
X171176966Y-32321104D01*
X171176966Y-32321104D02*
X171081728Y-32511580D01*
X171081728Y-32511580D02*
X170986490Y-32606819D01*
X170986490Y-32606819D02*
X170796014Y-32702057D01*
X170796014Y-32702057D02*
X170034109Y-32702057D01*
X172034109Y-33654438D02*
X172034109Y-31654438D01*
X172034109Y-31654438D02*
X172510299Y-31654438D01*
X172510299Y-31654438D02*
X172796014Y-31749676D01*
X172796014Y-31749676D02*
X172986490Y-31940152D01*
X172986490Y-31940152D02*
X173081728Y-32130628D01*
X173081728Y-32130628D02*
X173176966Y-32511580D01*
X173176966Y-32511580D02*
X173176966Y-32797295D01*
X173176966Y-32797295D02*
X173081728Y-33178247D01*
X173081728Y-33178247D02*
X172986490Y-33368723D01*
X172986490Y-33368723D02*
X172796014Y-33559200D01*
X172796014Y-33559200D02*
X172510299Y-33654438D01*
X172510299Y-33654438D02*
X172034109Y-33654438D01*
X175272205Y-31654438D02*
X175938871Y-33654438D01*
X175938871Y-33654438D02*
X176605538Y-31654438D01*
X178129348Y-32321104D02*
X178129348Y-33654438D01*
X177653157Y-31559200D02*
X177176967Y-32987771D01*
X177176967Y-32987771D02*
X178415062Y-32987771D01*
X179176967Y-33463961D02*
X179272205Y-33559200D01*
X179272205Y-33559200D02*
X179176967Y-33654438D01*
X179176967Y-33654438D02*
X179081729Y-33559200D01*
X179081729Y-33559200D02*
X179176967Y-33463961D01*
X179176967Y-33463961D02*
X179176967Y-33654438D01*
X180510300Y-31654438D02*
X180700777Y-31654438D01*
X180700777Y-31654438D02*
X180891253Y-31749676D01*
X180891253Y-31749676D02*
X180986491Y-31844914D01*
X180986491Y-31844914D02*
X181081729Y-32035390D01*
X181081729Y-32035390D02*
X181176967Y-32416342D01*
X181176967Y-32416342D02*
X181176967Y-32892533D01*
X181176967Y-32892533D02*
X181081729Y-33273485D01*
X181081729Y-33273485D02*
X180986491Y-33463961D01*
X180986491Y-33463961D02*
X180891253Y-33559200D01*
X180891253Y-33559200D02*
X180700777Y-33654438D01*
X180700777Y-33654438D02*
X180510300Y-33654438D01*
X180510300Y-33654438D02*
X180319824Y-33559200D01*
X180319824Y-33559200D02*
X180224586Y-33463961D01*
X180224586Y-33463961D02*
X180129348Y-33273485D01*
X180129348Y-33273485D02*
X180034110Y-32892533D01*
X180034110Y-32892533D02*
X180034110Y-32416342D01*
X180034110Y-32416342D02*
X180129348Y-32035390D01*
X180129348Y-32035390D02*
X180224586Y-31844914D01*
X180224586Y-31844914D02*
X180319824Y-31749676D01*
X180319824Y-31749676D02*
X180510300Y-31654438D01*
D10*
X240093292Y-53510839D02*
X240140911Y-53367982D01*
X240140911Y-53367982D02*
X240140911Y-53129887D01*
X240140911Y-53129887D02*
X240093292Y-53034649D01*
X240093292Y-53034649D02*
X240045672Y-52987030D01*
X240045672Y-52987030D02*
X239950434Y-52939411D01*
X239950434Y-52939411D02*
X239855196Y-52939411D01*
X239855196Y-52939411D02*
X239759958Y-52987030D01*
X239759958Y-52987030D02*
X239712339Y-53034649D01*
X239712339Y-53034649D02*
X239664720Y-53129887D01*
X239664720Y-53129887D02*
X239617101Y-53320363D01*
X239617101Y-53320363D02*
X239569482Y-53415601D01*
X239569482Y-53415601D02*
X239521863Y-53463220D01*
X239521863Y-53463220D02*
X239426625Y-53510839D01*
X239426625Y-53510839D02*
X239331387Y-53510839D01*
X239331387Y-53510839D02*
X239236149Y-53463220D01*
X239236149Y-53463220D02*
X239188530Y-53415601D01*
X239188530Y-53415601D02*
X239140911Y-53320363D01*
X239140911Y-53320363D02*
X239140911Y-53082268D01*
X239140911Y-53082268D02*
X239188530Y-52939411D01*
X240045672Y-51939411D02*
X240093292Y-51987030D01*
X240093292Y-51987030D02*
X240140911Y-52129887D01*
X240140911Y-52129887D02*
X240140911Y-52225125D01*
X240140911Y-52225125D02*
X240093292Y-52367982D01*
X240093292Y-52367982D02*
X239998053Y-52463220D01*
X239998053Y-52463220D02*
X239902815Y-52510839D01*
X239902815Y-52510839D02*
X239712339Y-52558458D01*
X239712339Y-52558458D02*
X239569482Y-52558458D01*
X239569482Y-52558458D02*
X239379006Y-52510839D01*
X239379006Y-52510839D02*
X239283768Y-52463220D01*
X239283768Y-52463220D02*
X239188530Y-52367982D01*
X239188530Y-52367982D02*
X239140911Y-52225125D01*
X239140911Y-52225125D02*
X239140911Y-52129887D01*
X239140911Y-52129887D02*
X239188530Y-51987030D01*
X239188530Y-51987030D02*
X239236149Y-51939411D01*
X240140911Y-50748934D02*
X239474244Y-50748934D01*
X239140911Y-50748934D02*
X239188530Y-50796553D01*
X239188530Y-50796553D02*
X239236149Y-50748934D01*
X239236149Y-50748934D02*
X239188530Y-50701315D01*
X239188530Y-50701315D02*
X239140911Y-50748934D01*
X239140911Y-50748934D02*
X239236149Y-50748934D01*
X239474244Y-50272744D02*
X240140911Y-50272744D01*
X239569482Y-50272744D02*
X239521863Y-50225125D01*
X239521863Y-50225125D02*
X239474244Y-50129887D01*
X239474244Y-50129887D02*
X239474244Y-49987030D01*
X239474244Y-49987030D02*
X239521863Y-49891792D01*
X239521863Y-49891792D02*
X239617101Y-49844173D01*
X239617101Y-49844173D02*
X240140911Y-49844173D01*
X240093292Y-48653696D02*
X240140911Y-48510839D01*
X240140911Y-48510839D02*
X240140911Y-48272744D01*
X240140911Y-48272744D02*
X240093292Y-48177506D01*
X240093292Y-48177506D02*
X240045672Y-48129887D01*
X240045672Y-48129887D02*
X239950434Y-48082268D01*
X239950434Y-48082268D02*
X239855196Y-48082268D01*
X239855196Y-48082268D02*
X239759958Y-48129887D01*
X239759958Y-48129887D02*
X239712339Y-48177506D01*
X239712339Y-48177506D02*
X239664720Y-48272744D01*
X239664720Y-48272744D02*
X239617101Y-48463220D01*
X239617101Y-48463220D02*
X239569482Y-48558458D01*
X239569482Y-48558458D02*
X239521863Y-48606077D01*
X239521863Y-48606077D02*
X239426625Y-48653696D01*
X239426625Y-48653696D02*
X239331387Y-48653696D01*
X239331387Y-48653696D02*
X239236149Y-48606077D01*
X239236149Y-48606077D02*
X239188530Y-48558458D01*
X239188530Y-48558458D02*
X239140911Y-48463220D01*
X239140911Y-48463220D02*
X239140911Y-48225125D01*
X239140911Y-48225125D02*
X239188530Y-48082268D01*
X240045672Y-47082268D02*
X240093292Y-47129887D01*
X240093292Y-47129887D02*
X240140911Y-47272744D01*
X240140911Y-47272744D02*
X240140911Y-47367982D01*
X240140911Y-47367982D02*
X240093292Y-47510839D01*
X240093292Y-47510839D02*
X239998053Y-47606077D01*
X239998053Y-47606077D02*
X239902815Y-47653696D01*
X239902815Y-47653696D02*
X239712339Y-47701315D01*
X239712339Y-47701315D02*
X239569482Y-47701315D01*
X239569482Y-47701315D02*
X239379006Y-47653696D01*
X239379006Y-47653696D02*
X239283768Y-47606077D01*
X239283768Y-47606077D02*
X239188530Y-47510839D01*
X239188530Y-47510839D02*
X239140911Y-47367982D01*
X239140911Y-47367982D02*
X239140911Y-47272744D01*
X239140911Y-47272744D02*
X239188530Y-47129887D01*
X239188530Y-47129887D02*
X239236149Y-47082268D01*
X240140911Y-45748934D02*
X240093292Y-45844172D01*
X240093292Y-45844172D02*
X240045672Y-45891791D01*
X240045672Y-45891791D02*
X239950434Y-45939410D01*
X239950434Y-45939410D02*
X239664720Y-45939410D01*
X239664720Y-45939410D02*
X239569482Y-45891791D01*
X239569482Y-45891791D02*
X239521863Y-45844172D01*
X239521863Y-45844172D02*
X239474244Y-45748934D01*
X239474244Y-45748934D02*
X239474244Y-45606077D01*
X239474244Y-45606077D02*
X239521863Y-45510839D01*
X239521863Y-45510839D02*
X239569482Y-45463220D01*
X239569482Y-45463220D02*
X239664720Y-45415601D01*
X239664720Y-45415601D02*
X239950434Y-45415601D01*
X239950434Y-45415601D02*
X240045672Y-45463220D01*
X240045672Y-45463220D02*
X240093292Y-45510839D01*
X240093292Y-45510839D02*
X240140911Y-45606077D01*
X240140911Y-45606077D02*
X240140911Y-45748934D01*
X239474244Y-44558458D02*
X240140911Y-44558458D01*
X239474244Y-44987029D02*
X239998053Y-44987029D01*
X239998053Y-44987029D02*
X240093292Y-44939410D01*
X240093292Y-44939410D02*
X240140911Y-44844172D01*
X240140911Y-44844172D02*
X240140911Y-44701315D01*
X240140911Y-44701315D02*
X240093292Y-44606077D01*
X240093292Y-44606077D02*
X240045672Y-44558458D01*
X239474244Y-44225124D02*
X239474244Y-43844172D01*
X239140911Y-44082267D02*
X239998053Y-44082267D01*
X239998053Y-44082267D02*
X240093292Y-44034648D01*
X240093292Y-44034648D02*
X240140911Y-43939410D01*
X240140911Y-43939410D02*
X240140911Y-43844172D01*
X165996303Y-35046009D02*
X166329636Y-35046009D01*
X166407017Y-35569819D02*
X165930826Y-35569819D01*
X165930826Y-35569819D02*
X166055826Y-34569819D01*
X166055826Y-34569819D02*
X166532017Y-34569819D01*
X166835588Y-35569819D02*
X166960588Y-34569819D01*
X166960588Y-34569819D02*
X167341541Y-34569819D01*
X167341541Y-34569819D02*
X167430826Y-34617438D01*
X167430826Y-34617438D02*
X167472493Y-34665057D01*
X167472493Y-34665057D02*
X167508207Y-34760295D01*
X167508207Y-34760295D02*
X167490350Y-34903152D01*
X167490350Y-34903152D02*
X167430826Y-34998390D01*
X167430826Y-34998390D02*
X167377255Y-35046009D01*
X167377255Y-35046009D02*
X167276065Y-35093628D01*
X167276065Y-35093628D02*
X166895112Y-35093628D01*
X167793922Y-35522200D02*
X167930826Y-35569819D01*
X167930826Y-35569819D02*
X168168922Y-35569819D01*
X168168922Y-35569819D02*
X168270112Y-35522200D01*
X168270112Y-35522200D02*
X168323684Y-35474580D01*
X168323684Y-35474580D02*
X168383207Y-35379342D01*
X168383207Y-35379342D02*
X168395112Y-35284104D01*
X168395112Y-35284104D02*
X168359398Y-35188866D01*
X168359398Y-35188866D02*
X168317731Y-35141247D01*
X168317731Y-35141247D02*
X168228446Y-35093628D01*
X168228446Y-35093628D02*
X168043922Y-35046009D01*
X168043922Y-35046009D02*
X167954636Y-34998390D01*
X167954636Y-34998390D02*
X167912969Y-34950771D01*
X167912969Y-34950771D02*
X167877255Y-34855533D01*
X167877255Y-34855533D02*
X167889160Y-34760295D01*
X167889160Y-34760295D02*
X167948684Y-34665057D01*
X167948684Y-34665057D02*
X168002255Y-34617438D01*
X168002255Y-34617438D02*
X168103446Y-34569819D01*
X168103446Y-34569819D02*
X168341541Y-34569819D01*
X168341541Y-34569819D02*
X168478446Y-34617438D01*
X168776065Y-35284104D02*
X169252255Y-35284104D01*
X168645112Y-35569819D02*
X169103446Y-34569819D01*
X169103446Y-34569819D02*
X169311779Y-35569819D01*
X170472494Y-34665057D02*
X170526065Y-34617438D01*
X170526065Y-34617438D02*
X170627255Y-34569819D01*
X170627255Y-34569819D02*
X170865351Y-34569819D01*
X170865351Y-34569819D02*
X170954636Y-34617438D01*
X170954636Y-34617438D02*
X170996303Y-34665057D01*
X170996303Y-34665057D02*
X171032017Y-34760295D01*
X171032017Y-34760295D02*
X171020113Y-34855533D01*
X171020113Y-34855533D02*
X170954636Y-34998390D01*
X170954636Y-34998390D02*
X170311779Y-35569819D01*
X170311779Y-35569819D02*
X170930827Y-35569819D01*
X171674875Y-34569819D02*
X171770113Y-34569819D01*
X171770113Y-34569819D02*
X171859398Y-34617438D01*
X171859398Y-34617438D02*
X171901065Y-34665057D01*
X171901065Y-34665057D02*
X171936779Y-34760295D01*
X171936779Y-34760295D02*
X171960589Y-34950771D01*
X171960589Y-34950771D02*
X171930827Y-35188866D01*
X171930827Y-35188866D02*
X171859398Y-35379342D01*
X171859398Y-35379342D02*
X171799875Y-35474580D01*
X171799875Y-35474580D02*
X171746303Y-35522200D01*
X171746303Y-35522200D02*
X171645113Y-35569819D01*
X171645113Y-35569819D02*
X171549875Y-35569819D01*
X171549875Y-35569819D02*
X171460589Y-35522200D01*
X171460589Y-35522200D02*
X171418922Y-35474580D01*
X171418922Y-35474580D02*
X171383208Y-35379342D01*
X171383208Y-35379342D02*
X171359398Y-35188866D01*
X171359398Y-35188866D02*
X171389160Y-34950771D01*
X171389160Y-34950771D02*
X171460589Y-34760295D01*
X171460589Y-34760295D02*
X171520113Y-34665057D01*
X171520113Y-34665057D02*
X171573684Y-34617438D01*
X171573684Y-34617438D02*
X171674875Y-34569819D01*
X172377256Y-34665057D02*
X172430827Y-34617438D01*
X172430827Y-34617438D02*
X172532017Y-34569819D01*
X172532017Y-34569819D02*
X172770113Y-34569819D01*
X172770113Y-34569819D02*
X172859398Y-34617438D01*
X172859398Y-34617438D02*
X172901065Y-34665057D01*
X172901065Y-34665057D02*
X172936779Y-34760295D01*
X172936779Y-34760295D02*
X172924875Y-34855533D01*
X172924875Y-34855533D02*
X172859398Y-34998390D01*
X172859398Y-34998390D02*
X172216541Y-35569819D01*
X172216541Y-35569819D02*
X172835589Y-35569819D01*
X173865351Y-34569819D02*
X173389160Y-34569819D01*
X173389160Y-34569819D02*
X173282018Y-35046009D01*
X173282018Y-35046009D02*
X173335589Y-34998390D01*
X173335589Y-34998390D02*
X173436779Y-34950771D01*
X173436779Y-34950771D02*
X173674875Y-34950771D01*
X173674875Y-34950771D02*
X173764160Y-34998390D01*
X173764160Y-34998390D02*
X173805827Y-35046009D01*
X173805827Y-35046009D02*
X173841541Y-35141247D01*
X173841541Y-35141247D02*
X173811779Y-35379342D01*
X173811779Y-35379342D02*
X173752256Y-35474580D01*
X173752256Y-35474580D02*
X173698684Y-35522200D01*
X173698684Y-35522200D02*
X173597494Y-35569819D01*
X173597494Y-35569819D02*
X173359398Y-35569819D01*
X173359398Y-35569819D02*
X173270113Y-35522200D01*
X173270113Y-35522200D02*
X173228446Y-35474580D01*
X215526918Y-32392247D02*
X215641204Y-32430342D01*
X215641204Y-32430342D02*
X215679299Y-32468438D01*
X215679299Y-32468438D02*
X215717395Y-32544628D01*
X215717395Y-32544628D02*
X215717395Y-32658914D01*
X215717395Y-32658914D02*
X215679299Y-32735104D01*
X215679299Y-32735104D02*
X215641204Y-32773200D01*
X215641204Y-32773200D02*
X215565014Y-32811295D01*
X215565014Y-32811295D02*
X215260252Y-32811295D01*
X215260252Y-32811295D02*
X215260252Y-32011295D01*
X215260252Y-32011295D02*
X215526918Y-32011295D01*
X215526918Y-32011295D02*
X215603109Y-32049390D01*
X215603109Y-32049390D02*
X215641204Y-32087485D01*
X215641204Y-32087485D02*
X215679299Y-32163676D01*
X215679299Y-32163676D02*
X215679299Y-32239866D01*
X215679299Y-32239866D02*
X215641204Y-32316057D01*
X215641204Y-32316057D02*
X215603109Y-32354152D01*
X215603109Y-32354152D02*
X215526918Y-32392247D01*
X215526918Y-32392247D02*
X215260252Y-32392247D01*
X216022156Y-32773200D02*
X216136442Y-32811295D01*
X216136442Y-32811295D02*
X216326918Y-32811295D01*
X216326918Y-32811295D02*
X216403109Y-32773200D01*
X216403109Y-32773200D02*
X216441204Y-32735104D01*
X216441204Y-32735104D02*
X216479299Y-32658914D01*
X216479299Y-32658914D02*
X216479299Y-32582723D01*
X216479299Y-32582723D02*
X216441204Y-32506533D01*
X216441204Y-32506533D02*
X216403109Y-32468438D01*
X216403109Y-32468438D02*
X216326918Y-32430342D01*
X216326918Y-32430342D02*
X216174537Y-32392247D01*
X216174537Y-32392247D02*
X216098347Y-32354152D01*
X216098347Y-32354152D02*
X216060252Y-32316057D01*
X216060252Y-32316057D02*
X216022156Y-32239866D01*
X216022156Y-32239866D02*
X216022156Y-32163676D01*
X216022156Y-32163676D02*
X216060252Y-32087485D01*
X216060252Y-32087485D02*
X216098347Y-32049390D01*
X216098347Y-32049390D02*
X216174537Y-32011295D01*
X216174537Y-32011295D02*
X216365014Y-32011295D01*
X216365014Y-32011295D02*
X216479299Y-32049390D01*
X216822157Y-32811295D02*
X216822157Y-32011295D01*
X216822157Y-32011295D02*
X217126919Y-32011295D01*
X217126919Y-32011295D02*
X217203109Y-32049390D01*
X217203109Y-32049390D02*
X217241204Y-32087485D01*
X217241204Y-32087485D02*
X217279300Y-32163676D01*
X217279300Y-32163676D02*
X217279300Y-32277961D01*
X217279300Y-32277961D02*
X217241204Y-32354152D01*
X217241204Y-32354152D02*
X217203109Y-32392247D01*
X217203109Y-32392247D02*
X217126919Y-32430342D01*
X217126919Y-32430342D02*
X216822157Y-32430342D01*
X217622157Y-32811295D02*
X217622157Y-32011295D01*
X217622157Y-32011295D02*
X217812633Y-32011295D01*
X217812633Y-32011295D02*
X217926919Y-32049390D01*
X217926919Y-32049390D02*
X218003109Y-32125580D01*
X218003109Y-32125580D02*
X218041204Y-32201771D01*
X218041204Y-32201771D02*
X218079300Y-32354152D01*
X218079300Y-32354152D02*
X218079300Y-32468438D01*
X218079300Y-32468438D02*
X218041204Y-32620819D01*
X218041204Y-32620819D02*
X218003109Y-32697009D01*
X218003109Y-32697009D02*
X217926919Y-32773200D01*
X217926919Y-32773200D02*
X217812633Y-32811295D01*
X217812633Y-32811295D02*
X217622157Y-32811295D01*
X219145966Y-32811295D02*
X219069776Y-32773200D01*
X219069776Y-32773200D02*
X219031681Y-32735104D01*
X219031681Y-32735104D02*
X218993585Y-32658914D01*
X218993585Y-32658914D02*
X218993585Y-32430342D01*
X218993585Y-32430342D02*
X219031681Y-32354152D01*
X219031681Y-32354152D02*
X219069776Y-32316057D01*
X219069776Y-32316057D02*
X219145966Y-32277961D01*
X219145966Y-32277961D02*
X219260252Y-32277961D01*
X219260252Y-32277961D02*
X219336443Y-32316057D01*
X219336443Y-32316057D02*
X219374538Y-32354152D01*
X219374538Y-32354152D02*
X219412633Y-32430342D01*
X219412633Y-32430342D02*
X219412633Y-32658914D01*
X219412633Y-32658914D02*
X219374538Y-32735104D01*
X219374538Y-32735104D02*
X219336443Y-32773200D01*
X219336443Y-32773200D02*
X219260252Y-32811295D01*
X219260252Y-32811295D02*
X219145966Y-32811295D01*
X220098348Y-32277961D02*
X220098348Y-32811295D01*
X219755491Y-32277961D02*
X219755491Y-32697009D01*
X219755491Y-32697009D02*
X219793586Y-32773200D01*
X219793586Y-32773200D02*
X219869776Y-32811295D01*
X219869776Y-32811295D02*
X219984062Y-32811295D01*
X219984062Y-32811295D02*
X220060253Y-32773200D01*
X220060253Y-32773200D02*
X220098348Y-32735104D01*
X220365015Y-32277961D02*
X220669777Y-32277961D01*
X220479301Y-32011295D02*
X220479301Y-32697009D01*
X220479301Y-32697009D02*
X220517396Y-32773200D01*
X220517396Y-32773200D02*
X220593586Y-32811295D01*
X220593586Y-32811295D02*
X220669777Y-32811295D01*
X166295844Y-56255826D02*
X166257749Y-56370112D01*
X166257749Y-56370112D02*
X166219653Y-56408207D01*
X166219653Y-56408207D02*
X166143463Y-56446303D01*
X166143463Y-56446303D02*
X166029177Y-56446303D01*
X166029177Y-56446303D02*
X165952987Y-56408207D01*
X165952987Y-56408207D02*
X165914892Y-56370112D01*
X165914892Y-56370112D02*
X165876796Y-56293922D01*
X165876796Y-56293922D02*
X165876796Y-55989160D01*
X165876796Y-55989160D02*
X166676796Y-55989160D01*
X166676796Y-55989160D02*
X166676796Y-56255826D01*
X166676796Y-56255826D02*
X166638701Y-56332017D01*
X166638701Y-56332017D02*
X166600606Y-56370112D01*
X166600606Y-56370112D02*
X166524415Y-56408207D01*
X166524415Y-56408207D02*
X166448225Y-56408207D01*
X166448225Y-56408207D02*
X166372034Y-56370112D01*
X166372034Y-56370112D02*
X166333939Y-56332017D01*
X166333939Y-56332017D02*
X166295844Y-56255826D01*
X166295844Y-56255826D02*
X166295844Y-55989160D01*
X165876796Y-56789160D02*
X166676796Y-56789160D01*
X166676796Y-56789160D02*
X166676796Y-57093922D01*
X166676796Y-57093922D02*
X166638701Y-57170112D01*
X166638701Y-57170112D02*
X166600606Y-57208207D01*
X166600606Y-57208207D02*
X166524415Y-57246303D01*
X166524415Y-57246303D02*
X166410130Y-57246303D01*
X166410130Y-57246303D02*
X166333939Y-57208207D01*
X166333939Y-57208207D02*
X166295844Y-57170112D01*
X166295844Y-57170112D02*
X166257749Y-57093922D01*
X166257749Y-57093922D02*
X166257749Y-56789160D01*
X165914892Y-57551064D02*
X165876796Y-57665350D01*
X165876796Y-57665350D02*
X165876796Y-57855826D01*
X165876796Y-57855826D02*
X165914892Y-57932017D01*
X165914892Y-57932017D02*
X165952987Y-57970112D01*
X165952987Y-57970112D02*
X166029177Y-58008207D01*
X166029177Y-58008207D02*
X166105368Y-58008207D01*
X166105368Y-58008207D02*
X166181558Y-57970112D01*
X166181558Y-57970112D02*
X166219653Y-57932017D01*
X166219653Y-57932017D02*
X166257749Y-57855826D01*
X166257749Y-57855826D02*
X166295844Y-57703445D01*
X166295844Y-57703445D02*
X166333939Y-57627255D01*
X166333939Y-57627255D02*
X166372034Y-57589160D01*
X166372034Y-57589160D02*
X166448225Y-57551064D01*
X166448225Y-57551064D02*
X166524415Y-57551064D01*
X166524415Y-57551064D02*
X166600606Y-57589160D01*
X166600606Y-57589160D02*
X166638701Y-57627255D01*
X166638701Y-57627255D02*
X166676796Y-57703445D01*
X166676796Y-57703445D02*
X166676796Y-57893922D01*
X166676796Y-57893922D02*
X166638701Y-58008207D01*
X192441204Y-32346009D02*
X192584061Y-32393628D01*
X192584061Y-32393628D02*
X192631680Y-32441247D01*
X192631680Y-32441247D02*
X192679299Y-32536485D01*
X192679299Y-32536485D02*
X192679299Y-32679342D01*
X192679299Y-32679342D02*
X192631680Y-32774580D01*
X192631680Y-32774580D02*
X192584061Y-32822200D01*
X192584061Y-32822200D02*
X192488823Y-32869819D01*
X192488823Y-32869819D02*
X192107871Y-32869819D01*
X192107871Y-32869819D02*
X192107871Y-31869819D01*
X192107871Y-31869819D02*
X192441204Y-31869819D01*
X192441204Y-31869819D02*
X192536442Y-31917438D01*
X192536442Y-31917438D02*
X192584061Y-31965057D01*
X192584061Y-31965057D02*
X192631680Y-32060295D01*
X192631680Y-32060295D02*
X192631680Y-32155533D01*
X192631680Y-32155533D02*
X192584061Y-32250771D01*
X192584061Y-32250771D02*
X192536442Y-32298390D01*
X192536442Y-32298390D02*
X192441204Y-32346009D01*
X192441204Y-32346009D02*
X192107871Y-32346009D01*
X193107871Y-32869819D02*
X193107871Y-31869819D01*
X193107871Y-31869819D02*
X193488823Y-31869819D01*
X193488823Y-31869819D02*
X193584061Y-31917438D01*
X193584061Y-31917438D02*
X193631680Y-31965057D01*
X193631680Y-31965057D02*
X193679299Y-32060295D01*
X193679299Y-32060295D02*
X193679299Y-32203152D01*
X193679299Y-32203152D02*
X193631680Y-32298390D01*
X193631680Y-32298390D02*
X193584061Y-32346009D01*
X193584061Y-32346009D02*
X193488823Y-32393628D01*
X193488823Y-32393628D02*
X193107871Y-32393628D01*
X194060252Y-32822200D02*
X194203109Y-32869819D01*
X194203109Y-32869819D02*
X194441204Y-32869819D01*
X194441204Y-32869819D02*
X194536442Y-32822200D01*
X194536442Y-32822200D02*
X194584061Y-32774580D01*
X194584061Y-32774580D02*
X194631680Y-32679342D01*
X194631680Y-32679342D02*
X194631680Y-32584104D01*
X194631680Y-32584104D02*
X194584061Y-32488866D01*
X194584061Y-32488866D02*
X194536442Y-32441247D01*
X194536442Y-32441247D02*
X194441204Y-32393628D01*
X194441204Y-32393628D02*
X194250728Y-32346009D01*
X194250728Y-32346009D02*
X194155490Y-32298390D01*
X194155490Y-32298390D02*
X194107871Y-32250771D01*
X194107871Y-32250771D02*
X194060252Y-32155533D01*
X194060252Y-32155533D02*
X194060252Y-32060295D01*
X194060252Y-32060295D02*
X194107871Y-31965057D01*
X194107871Y-31965057D02*
X194155490Y-31917438D01*
X194155490Y-31917438D02*
X194250728Y-31869819D01*
X194250728Y-31869819D02*
X194488823Y-31869819D01*
X194488823Y-31869819D02*
X194631680Y-31917438D01*
X199679299Y-32774580D02*
X199631680Y-32822200D01*
X199631680Y-32822200D02*
X199488823Y-32869819D01*
X199488823Y-32869819D02*
X199393585Y-32869819D01*
X199393585Y-32869819D02*
X199250728Y-32822200D01*
X199250728Y-32822200D02*
X199155490Y-32726961D01*
X199155490Y-32726961D02*
X199107871Y-32631723D01*
X199107871Y-32631723D02*
X199060252Y-32441247D01*
X199060252Y-32441247D02*
X199060252Y-32298390D01*
X199060252Y-32298390D02*
X199107871Y-32107914D01*
X199107871Y-32107914D02*
X199155490Y-32012676D01*
X199155490Y-32012676D02*
X199250728Y-31917438D01*
X199250728Y-31917438D02*
X199393585Y-31869819D01*
X199393585Y-31869819D02*
X199488823Y-31869819D01*
X199488823Y-31869819D02*
X199631680Y-31917438D01*
X199631680Y-31917438D02*
X199679299Y-31965057D01*
X200536442Y-32203152D02*
X200536442Y-32869819D01*
X200107871Y-32203152D02*
X200107871Y-32726961D01*
X200107871Y-32726961D02*
X200155490Y-32822200D01*
X200155490Y-32822200D02*
X200250728Y-32869819D01*
X200250728Y-32869819D02*
X200393585Y-32869819D01*
X200393585Y-32869819D02*
X200488823Y-32822200D01*
X200488823Y-32822200D02*
X200536442Y-32774580D01*
X201012633Y-32869819D02*
X201012633Y-32203152D01*
X201012633Y-32393628D02*
X201060252Y-32298390D01*
X201060252Y-32298390D02*
X201107871Y-32250771D01*
X201107871Y-32250771D02*
X201203109Y-32203152D01*
X201203109Y-32203152D02*
X201298347Y-32203152D01*
X201631681Y-32869819D02*
X201631681Y-32203152D01*
X201631681Y-32393628D02*
X201679300Y-32298390D01*
X201679300Y-32298390D02*
X201726919Y-32250771D01*
X201726919Y-32250771D02*
X201822157Y-32203152D01*
X201822157Y-32203152D02*
X201917395Y-32203152D01*
X202631681Y-32822200D02*
X202536443Y-32869819D01*
X202536443Y-32869819D02*
X202345967Y-32869819D01*
X202345967Y-32869819D02*
X202250729Y-32822200D01*
X202250729Y-32822200D02*
X202203110Y-32726961D01*
X202203110Y-32726961D02*
X202203110Y-32346009D01*
X202203110Y-32346009D02*
X202250729Y-32250771D01*
X202250729Y-32250771D02*
X202345967Y-32203152D01*
X202345967Y-32203152D02*
X202536443Y-32203152D01*
X202536443Y-32203152D02*
X202631681Y-32250771D01*
X202631681Y-32250771D02*
X202679300Y-32346009D01*
X202679300Y-32346009D02*
X202679300Y-32441247D01*
X202679300Y-32441247D02*
X202203110Y-32536485D01*
X203107872Y-32203152D02*
X203107872Y-32869819D01*
X203107872Y-32298390D02*
X203155491Y-32250771D01*
X203155491Y-32250771D02*
X203250729Y-32203152D01*
X203250729Y-32203152D02*
X203393586Y-32203152D01*
X203393586Y-32203152D02*
X203488824Y-32250771D01*
X203488824Y-32250771D02*
X203536443Y-32346009D01*
X203536443Y-32346009D02*
X203536443Y-32869819D01*
X203869777Y-32203152D02*
X204250729Y-32203152D01*
X204012634Y-31869819D02*
X204012634Y-32726961D01*
X204012634Y-32726961D02*
X204060253Y-32822200D01*
X204060253Y-32822200D02*
X204155491Y-32869819D01*
X204155491Y-32869819D02*
X204250729Y-32869819D01*
X167182561Y-64360588D02*
X167230180Y-64265350D01*
X167230180Y-64265350D02*
X167230180Y-64122493D01*
X167230180Y-64122493D02*
X167182561Y-63979636D01*
X167182561Y-63979636D02*
X167087323Y-63884398D01*
X167087323Y-63884398D02*
X166992085Y-63836779D01*
X166992085Y-63836779D02*
X166801609Y-63789160D01*
X166801609Y-63789160D02*
X166658752Y-63789160D01*
X166658752Y-63789160D02*
X166468276Y-63836779D01*
X166468276Y-63836779D02*
X166373038Y-63884398D01*
X166373038Y-63884398D02*
X166277800Y-63979636D01*
X166277800Y-63979636D02*
X166230180Y-64122493D01*
X166230180Y-64122493D02*
X166230180Y-64217731D01*
X166230180Y-64217731D02*
X166277800Y-64360588D01*
X166277800Y-64360588D02*
X166325419Y-64408207D01*
X166325419Y-64408207D02*
X166658752Y-64408207D01*
X166658752Y-64408207D02*
X166658752Y-64217731D01*
X166230180Y-64836779D02*
X167230180Y-64836779D01*
X167230180Y-64836779D02*
X166230180Y-65408207D01*
X166230180Y-65408207D02*
X167230180Y-65408207D01*
X166230180Y-65884398D02*
X167230180Y-65884398D01*
X167230180Y-65884398D02*
X167230180Y-66122493D01*
X167230180Y-66122493D02*
X167182561Y-66265350D01*
X167182561Y-66265350D02*
X167087323Y-66360588D01*
X167087323Y-66360588D02*
X166992085Y-66408207D01*
X166992085Y-66408207D02*
X166801609Y-66455826D01*
X166801609Y-66455826D02*
X166658752Y-66455826D01*
X166658752Y-66455826D02*
X166468276Y-66408207D01*
X166468276Y-66408207D02*
X166373038Y-66360588D01*
X166373038Y-66360588D02*
X166277800Y-66265350D01*
X166277800Y-66265350D02*
X166230180Y-66122493D01*
X166230180Y-66122493D02*
X166230180Y-65884398D01*
X166230180Y-68170112D02*
X166230180Y-67598684D01*
X166230180Y-67884398D02*
X167230180Y-67884398D01*
X167230180Y-67884398D02*
X167087323Y-67789160D01*
X167087323Y-67789160D02*
X166992085Y-67693922D01*
X166992085Y-67693922D02*
X166944466Y-67598684D01*
X167134942Y-68551065D02*
X167182561Y-68598684D01*
X167182561Y-68598684D02*
X167230180Y-68693922D01*
X167230180Y-68693922D02*
X167230180Y-68932017D01*
X167230180Y-68932017D02*
X167182561Y-69027255D01*
X167182561Y-69027255D02*
X167134942Y-69074874D01*
X167134942Y-69074874D02*
X167039704Y-69122493D01*
X167039704Y-69122493D02*
X166944466Y-69122493D01*
X166944466Y-69122493D02*
X166801609Y-69074874D01*
X166801609Y-69074874D02*
X166230180Y-68503446D01*
X166230180Y-68503446D02*
X166230180Y-69122493D01*
X167230180Y-69408208D02*
X166230180Y-69741541D01*
X166230180Y-69741541D02*
X167230180Y-70074874D01*
X206822156Y-32773200D02*
X206936442Y-32811295D01*
X206936442Y-32811295D02*
X207126918Y-32811295D01*
X207126918Y-32811295D02*
X207203109Y-32773200D01*
X207203109Y-32773200D02*
X207241204Y-32735104D01*
X207241204Y-32735104D02*
X207279299Y-32658914D01*
X207279299Y-32658914D02*
X207279299Y-32582723D01*
X207279299Y-32582723D02*
X207241204Y-32506533D01*
X207241204Y-32506533D02*
X207203109Y-32468438D01*
X207203109Y-32468438D02*
X207126918Y-32430342D01*
X207126918Y-32430342D02*
X206974537Y-32392247D01*
X206974537Y-32392247D02*
X206898347Y-32354152D01*
X206898347Y-32354152D02*
X206860252Y-32316057D01*
X206860252Y-32316057D02*
X206822156Y-32239866D01*
X206822156Y-32239866D02*
X206822156Y-32163676D01*
X206822156Y-32163676D02*
X206860252Y-32087485D01*
X206860252Y-32087485D02*
X206898347Y-32049390D01*
X206898347Y-32049390D02*
X206974537Y-32011295D01*
X206974537Y-32011295D02*
X207165014Y-32011295D01*
X207165014Y-32011295D02*
X207279299Y-32049390D01*
X208079300Y-32735104D02*
X208041204Y-32773200D01*
X208041204Y-32773200D02*
X207926919Y-32811295D01*
X207926919Y-32811295D02*
X207850728Y-32811295D01*
X207850728Y-32811295D02*
X207736442Y-32773200D01*
X207736442Y-32773200D02*
X207660252Y-32697009D01*
X207660252Y-32697009D02*
X207622157Y-32620819D01*
X207622157Y-32620819D02*
X207584061Y-32468438D01*
X207584061Y-32468438D02*
X207584061Y-32354152D01*
X207584061Y-32354152D02*
X207622157Y-32201771D01*
X207622157Y-32201771D02*
X207660252Y-32125580D01*
X207660252Y-32125580D02*
X207736442Y-32049390D01*
X207736442Y-32049390D02*
X207850728Y-32011295D01*
X207850728Y-32011295D02*
X207926919Y-32011295D01*
X207926919Y-32011295D02*
X208041204Y-32049390D01*
X208041204Y-32049390D02*
X208079300Y-32087485D01*
X208384061Y-32773200D02*
X208498347Y-32811295D01*
X208498347Y-32811295D02*
X208688823Y-32811295D01*
X208688823Y-32811295D02*
X208765014Y-32773200D01*
X208765014Y-32773200D02*
X208803109Y-32735104D01*
X208803109Y-32735104D02*
X208841204Y-32658914D01*
X208841204Y-32658914D02*
X208841204Y-32582723D01*
X208841204Y-32582723D02*
X208803109Y-32506533D01*
X208803109Y-32506533D02*
X208765014Y-32468438D01*
X208765014Y-32468438D02*
X208688823Y-32430342D01*
X208688823Y-32430342D02*
X208536442Y-32392247D01*
X208536442Y-32392247D02*
X208460252Y-32354152D01*
X208460252Y-32354152D02*
X208422157Y-32316057D01*
X208422157Y-32316057D02*
X208384061Y-32239866D01*
X208384061Y-32239866D02*
X208384061Y-32163676D01*
X208384061Y-32163676D02*
X208422157Y-32087485D01*
X208422157Y-32087485D02*
X208460252Y-32049390D01*
X208460252Y-32049390D02*
X208536442Y-32011295D01*
X208536442Y-32011295D02*
X208726919Y-32011295D01*
X208726919Y-32011295D02*
X208841204Y-32049390D01*
X210250729Y-32735104D02*
X210212633Y-32773200D01*
X210212633Y-32773200D02*
X210098348Y-32811295D01*
X210098348Y-32811295D02*
X210022157Y-32811295D01*
X210022157Y-32811295D02*
X209907871Y-32773200D01*
X209907871Y-32773200D02*
X209831681Y-32697009D01*
X209831681Y-32697009D02*
X209793586Y-32620819D01*
X209793586Y-32620819D02*
X209755490Y-32468438D01*
X209755490Y-32468438D02*
X209755490Y-32354152D01*
X209755490Y-32354152D02*
X209793586Y-32201771D01*
X209793586Y-32201771D02*
X209831681Y-32125580D01*
X209831681Y-32125580D02*
X209907871Y-32049390D01*
X209907871Y-32049390D02*
X210022157Y-32011295D01*
X210022157Y-32011295D02*
X210098348Y-32011295D01*
X210098348Y-32011295D02*
X210212633Y-32049390D01*
X210212633Y-32049390D02*
X210250729Y-32087485D01*
X210593586Y-32811295D02*
X210593586Y-32011295D01*
X210936443Y-32811295D02*
X210936443Y-32392247D01*
X210936443Y-32392247D02*
X210898348Y-32316057D01*
X210898348Y-32316057D02*
X210822157Y-32277961D01*
X210822157Y-32277961D02*
X210707871Y-32277961D01*
X210707871Y-32277961D02*
X210631681Y-32316057D01*
X210631681Y-32316057D02*
X210593586Y-32354152D01*
X211622158Y-32773200D02*
X211545967Y-32811295D01*
X211545967Y-32811295D02*
X211393586Y-32811295D01*
X211393586Y-32811295D02*
X211317396Y-32773200D01*
X211317396Y-32773200D02*
X211279300Y-32697009D01*
X211279300Y-32697009D02*
X211279300Y-32392247D01*
X211279300Y-32392247D02*
X211317396Y-32316057D01*
X211317396Y-32316057D02*
X211393586Y-32277961D01*
X211393586Y-32277961D02*
X211545967Y-32277961D01*
X211545967Y-32277961D02*
X211622158Y-32316057D01*
X211622158Y-32316057D02*
X211660253Y-32392247D01*
X211660253Y-32392247D02*
X211660253Y-32468438D01*
X211660253Y-32468438D02*
X211279300Y-32544628D01*
X212345967Y-32773200D02*
X212269776Y-32811295D01*
X212269776Y-32811295D02*
X212117395Y-32811295D01*
X212117395Y-32811295D02*
X212041205Y-32773200D01*
X212041205Y-32773200D02*
X212003110Y-32735104D01*
X212003110Y-32735104D02*
X211965014Y-32658914D01*
X211965014Y-32658914D02*
X211965014Y-32430342D01*
X211965014Y-32430342D02*
X212003110Y-32354152D01*
X212003110Y-32354152D02*
X212041205Y-32316057D01*
X212041205Y-32316057D02*
X212117395Y-32277961D01*
X212117395Y-32277961D02*
X212269776Y-32277961D01*
X212269776Y-32277961D02*
X212345967Y-32316057D01*
X212688824Y-32811295D02*
X212688824Y-32011295D01*
X212765014Y-32506533D02*
X212993586Y-32811295D01*
X212993586Y-32277961D02*
X212688824Y-32582723D01*
D12*
X223900947Y-32705279D02*
X223862851Y-32743375D01*
X223862851Y-32743375D02*
X223748566Y-32781470D01*
X223748566Y-32781470D02*
X223672375Y-32781470D01*
X223672375Y-32781470D02*
X223558089Y-32743375D01*
X223558089Y-32743375D02*
X223481899Y-32667184D01*
X223481899Y-32667184D02*
X223443804Y-32590994D01*
X223443804Y-32590994D02*
X223405708Y-32438613D01*
X223405708Y-32438613D02*
X223405708Y-32324327D01*
X223405708Y-32324327D02*
X223443804Y-32171946D01*
X223443804Y-32171946D02*
X223481899Y-32095755D01*
X223481899Y-32095755D02*
X223558089Y-32019565D01*
X223558089Y-32019565D02*
X223672375Y-31981470D01*
X223672375Y-31981470D02*
X223748566Y-31981470D01*
X223748566Y-31981470D02*
X223862851Y-32019565D01*
X223862851Y-32019565D02*
X223900947Y-32057660D01*
X224205708Y-32743375D02*
X224319994Y-32781470D01*
X224319994Y-32781470D02*
X224510470Y-32781470D01*
X224510470Y-32781470D02*
X224586661Y-32743375D01*
X224586661Y-32743375D02*
X224624756Y-32705279D01*
X224624756Y-32705279D02*
X224662851Y-32629089D01*
X224662851Y-32629089D02*
X224662851Y-32552898D01*
X224662851Y-32552898D02*
X224624756Y-32476708D01*
X224624756Y-32476708D02*
X224586661Y-32438613D01*
X224586661Y-32438613D02*
X224510470Y-32400517D01*
X224510470Y-32400517D02*
X224358089Y-32362422D01*
X224358089Y-32362422D02*
X224281899Y-32324327D01*
X224281899Y-32324327D02*
X224243804Y-32286232D01*
X224243804Y-32286232D02*
X224205708Y-32210041D01*
X224205708Y-32210041D02*
X224205708Y-32133851D01*
X224205708Y-32133851D02*
X224243804Y-32057660D01*
X224243804Y-32057660D02*
X224281899Y-32019565D01*
X224281899Y-32019565D02*
X224358089Y-31981470D01*
X224358089Y-31981470D02*
X224548566Y-31981470D01*
X224548566Y-31981470D02*
X224662851Y-32019565D01*
X225005709Y-32476708D02*
X225615233Y-32476708D01*
X225310471Y-32781470D02*
X225310471Y-32171946D01*
X226262851Y-32362422D02*
X226377137Y-32400517D01*
X226377137Y-32400517D02*
X226415232Y-32438613D01*
X226415232Y-32438613D02*
X226453328Y-32514803D01*
X226453328Y-32514803D02*
X226453328Y-32629089D01*
X226453328Y-32629089D02*
X226415232Y-32705279D01*
X226415232Y-32705279D02*
X226377137Y-32743375D01*
X226377137Y-32743375D02*
X226300947Y-32781470D01*
X226300947Y-32781470D02*
X225996185Y-32781470D01*
X225996185Y-32781470D02*
X225996185Y-31981470D01*
X225996185Y-31981470D02*
X226262851Y-31981470D01*
X226262851Y-31981470D02*
X226339042Y-32019565D01*
X226339042Y-32019565D02*
X226377137Y-32057660D01*
X226377137Y-32057660D02*
X226415232Y-32133851D01*
X226415232Y-32133851D02*
X226415232Y-32210041D01*
X226415232Y-32210041D02*
X226377137Y-32286232D01*
X226377137Y-32286232D02*
X226339042Y-32324327D01*
X226339042Y-32324327D02*
X226262851Y-32362422D01*
X226262851Y-32362422D02*
X225996185Y-32362422D01*
X226796185Y-32781470D02*
X226796185Y-31981470D01*
X226796185Y-31981470D02*
X227100947Y-31981470D01*
X227100947Y-31981470D02*
X227177137Y-32019565D01*
X227177137Y-32019565D02*
X227215232Y-32057660D01*
X227215232Y-32057660D02*
X227253328Y-32133851D01*
X227253328Y-32133851D02*
X227253328Y-32248136D01*
X227253328Y-32248136D02*
X227215232Y-32324327D01*
X227215232Y-32324327D02*
X227177137Y-32362422D01*
X227177137Y-32362422D02*
X227100947Y-32400517D01*
X227100947Y-32400517D02*
X226796185Y-32400517D01*
X227558089Y-32743375D02*
X227672375Y-32781470D01*
X227672375Y-32781470D02*
X227862851Y-32781470D01*
X227862851Y-32781470D02*
X227939042Y-32743375D01*
X227939042Y-32743375D02*
X227977137Y-32705279D01*
X227977137Y-32705279D02*
X228015232Y-32629089D01*
X228015232Y-32629089D02*
X228015232Y-32552898D01*
X228015232Y-32552898D02*
X227977137Y-32476708D01*
X227977137Y-32476708D02*
X227939042Y-32438613D01*
X227939042Y-32438613D02*
X227862851Y-32400517D01*
X227862851Y-32400517D02*
X227710470Y-32362422D01*
X227710470Y-32362422D02*
X227634280Y-32324327D01*
X227634280Y-32324327D02*
X227596185Y-32286232D01*
X227596185Y-32286232D02*
X227558089Y-32210041D01*
X227558089Y-32210041D02*
X227558089Y-32133851D01*
X227558089Y-32133851D02*
X227596185Y-32057660D01*
X227596185Y-32057660D02*
X227634280Y-32019565D01*
X227634280Y-32019565D02*
X227710470Y-31981470D01*
X227710470Y-31981470D02*
X227900947Y-31981470D01*
X227900947Y-31981470D02*
X228015232Y-32019565D01*
D13*
X213083571Y-83074318D02*
X212660237Y-82469556D01*
X212357856Y-83074318D02*
X212357856Y-81804318D01*
X212357856Y-81804318D02*
X212841666Y-81804318D01*
X212841666Y-81804318D02*
X212962618Y-81864794D01*
X212962618Y-81864794D02*
X213023095Y-81925270D01*
X213023095Y-81925270D02*
X213083571Y-82046222D01*
X213083571Y-82046222D02*
X213083571Y-82227651D01*
X213083571Y-82227651D02*
X213023095Y-82348603D01*
X213023095Y-82348603D02*
X212962618Y-82409080D01*
X212962618Y-82409080D02*
X212841666Y-82469556D01*
X212841666Y-82469556D02*
X212357856Y-82469556D01*
X214293095Y-83074318D02*
X213567380Y-83074318D01*
X213930237Y-83074318D02*
X213930237Y-81804318D01*
X213930237Y-81804318D02*
X213809285Y-81985746D01*
X213809285Y-81985746D02*
X213688333Y-82106699D01*
X213688333Y-82106699D02*
X213567380Y-82167175D01*
X215079285Y-81804318D02*
X215200238Y-81804318D01*
X215200238Y-81804318D02*
X215321190Y-81864794D01*
X215321190Y-81864794D02*
X215381666Y-81925270D01*
X215381666Y-81925270D02*
X215442142Y-82046222D01*
X215442142Y-82046222D02*
X215502619Y-82288127D01*
X215502619Y-82288127D02*
X215502619Y-82590508D01*
X215502619Y-82590508D02*
X215442142Y-82832413D01*
X215442142Y-82832413D02*
X215381666Y-82953365D01*
X215381666Y-82953365D02*
X215321190Y-83013842D01*
X215321190Y-83013842D02*
X215200238Y-83074318D01*
X215200238Y-83074318D02*
X215079285Y-83074318D01*
X215079285Y-83074318D02*
X214958333Y-83013842D01*
X214958333Y-83013842D02*
X214897857Y-82953365D01*
X214897857Y-82953365D02*
X214837380Y-82832413D01*
X214837380Y-82832413D02*
X214776904Y-82590508D01*
X214776904Y-82590508D02*
X214776904Y-82288127D01*
X214776904Y-82288127D02*
X214837380Y-82046222D01*
X214837380Y-82046222D02*
X214897857Y-81925270D01*
X214897857Y-81925270D02*
X214958333Y-81864794D01*
X214958333Y-81864794D02*
X215079285Y-81804318D01*
X239524457Y-70011666D02*
X239584934Y-70072142D01*
X239584934Y-70072142D02*
X239645410Y-70253571D01*
X239645410Y-70253571D02*
X239645410Y-70374523D01*
X239645410Y-70374523D02*
X239584934Y-70555952D01*
X239584934Y-70555952D02*
X239463981Y-70676904D01*
X239463981Y-70676904D02*
X239343029Y-70737381D01*
X239343029Y-70737381D02*
X239101124Y-70797857D01*
X239101124Y-70797857D02*
X238919695Y-70797857D01*
X238919695Y-70797857D02*
X238677791Y-70737381D01*
X238677791Y-70737381D02*
X238556838Y-70676904D01*
X238556838Y-70676904D02*
X238435886Y-70555952D01*
X238435886Y-70555952D02*
X238375410Y-70374523D01*
X238375410Y-70374523D02*
X238375410Y-70253571D01*
X238375410Y-70253571D02*
X238435886Y-70072142D01*
X238435886Y-70072142D02*
X238496362Y-70011666D01*
X238496362Y-69527857D02*
X238435886Y-69467381D01*
X238435886Y-69467381D02*
X238375410Y-69346428D01*
X238375410Y-69346428D02*
X238375410Y-69044047D01*
X238375410Y-69044047D02*
X238435886Y-68923095D01*
X238435886Y-68923095D02*
X238496362Y-68862619D01*
X238496362Y-68862619D02*
X238617314Y-68802142D01*
X238617314Y-68802142D02*
X238738267Y-68802142D01*
X238738267Y-68802142D02*
X238919695Y-68862619D01*
X238919695Y-68862619D02*
X239645410Y-69588333D01*
X239645410Y-69588333D02*
X239645410Y-68802142D01*
D10*
X236737758Y-44754819D02*
X236737758Y-45469104D01*
X236737758Y-45469104D02*
X236690139Y-45611961D01*
X236690139Y-45611961D02*
X236594901Y-45707200D01*
X236594901Y-45707200D02*
X236452044Y-45754819D01*
X236452044Y-45754819D02*
X236356806Y-45754819D01*
X237118711Y-44754819D02*
X237737758Y-44754819D01*
X237737758Y-44754819D02*
X237404425Y-45135771D01*
X237404425Y-45135771D02*
X237547282Y-45135771D01*
X237547282Y-45135771D02*
X237642520Y-45183390D01*
X237642520Y-45183390D02*
X237690139Y-45231009D01*
X237690139Y-45231009D02*
X237737758Y-45326247D01*
X237737758Y-45326247D02*
X237737758Y-45564342D01*
X237737758Y-45564342D02*
X237690139Y-45659580D01*
X237690139Y-45659580D02*
X237642520Y-45707200D01*
X237642520Y-45707200D02*
X237547282Y-45754819D01*
X237547282Y-45754819D02*
X237261568Y-45754819D01*
X237261568Y-45754819D02*
X237166330Y-45707200D01*
X237166330Y-45707200D02*
X237118711Y-45659580D01*
D14*
X184128234Y-51449619D02*
X183794901Y-50973428D01*
X183556806Y-51449619D02*
X183556806Y-50449619D01*
X183556806Y-50449619D02*
X183937758Y-50449619D01*
X183937758Y-50449619D02*
X184032996Y-50497238D01*
X184032996Y-50497238D02*
X184080615Y-50544857D01*
X184080615Y-50544857D02*
X184128234Y-50640095D01*
X184128234Y-50640095D02*
X184128234Y-50782952D01*
X184128234Y-50782952D02*
X184080615Y-50878190D01*
X184080615Y-50878190D02*
X184032996Y-50925809D01*
X184032996Y-50925809D02*
X183937758Y-50973428D01*
X183937758Y-50973428D02*
X183556806Y-50973428D01*
X185080615Y-51449619D02*
X184509187Y-51449619D01*
X184794901Y-51449619D02*
X184794901Y-50449619D01*
X184794901Y-50449619D02*
X184699663Y-50592476D01*
X184699663Y-50592476D02*
X184604425Y-50687714D01*
X184604425Y-50687714D02*
X184509187Y-50735333D01*
X185413949Y-50449619D02*
X186032996Y-50449619D01*
X186032996Y-50449619D02*
X185699663Y-50830571D01*
X185699663Y-50830571D02*
X185842520Y-50830571D01*
X185842520Y-50830571D02*
X185937758Y-50878190D01*
X185937758Y-50878190D02*
X185985377Y-50925809D01*
X185985377Y-50925809D02*
X186032996Y-51021047D01*
X186032996Y-51021047D02*
X186032996Y-51259142D01*
X186032996Y-51259142D02*
X185985377Y-51354380D01*
X185985377Y-51354380D02*
X185937758Y-51402000D01*
X185937758Y-51402000D02*
X185842520Y-51449619D01*
X185842520Y-51449619D02*
X185556806Y-51449619D01*
X185556806Y-51449619D02*
X185461568Y-51402000D01*
X185461568Y-51402000D02*
X185413949Y-51354380D01*
D13*
X196647524Y-78572347D02*
X196224190Y-77967585D01*
X195921809Y-78572347D02*
X195921809Y-77302347D01*
X195921809Y-77302347D02*
X196405619Y-77302347D01*
X196405619Y-77302347D02*
X196526571Y-77362823D01*
X196526571Y-77362823D02*
X196587048Y-77423299D01*
X196587048Y-77423299D02*
X196647524Y-77544251D01*
X196647524Y-77544251D02*
X196647524Y-77725680D01*
X196647524Y-77725680D02*
X196587048Y-77846632D01*
X196587048Y-77846632D02*
X196526571Y-77907109D01*
X196526571Y-77907109D02*
X196405619Y-77967585D01*
X196405619Y-77967585D02*
X195921809Y-77967585D01*
X197736095Y-77302347D02*
X197494190Y-77302347D01*
X197494190Y-77302347D02*
X197373238Y-77362823D01*
X197373238Y-77362823D02*
X197312762Y-77423299D01*
X197312762Y-77423299D02*
X197191809Y-77604728D01*
X197191809Y-77604728D02*
X197131333Y-77846632D01*
X197131333Y-77846632D02*
X197131333Y-78330442D01*
X197131333Y-78330442D02*
X197191809Y-78451394D01*
X197191809Y-78451394D02*
X197252286Y-78511871D01*
X197252286Y-78511871D02*
X197373238Y-78572347D01*
X197373238Y-78572347D02*
X197615143Y-78572347D01*
X197615143Y-78572347D02*
X197736095Y-78511871D01*
X197736095Y-78511871D02*
X197796571Y-78451394D01*
X197796571Y-78451394D02*
X197857048Y-78330442D01*
X197857048Y-78330442D02*
X197857048Y-78028061D01*
X197857048Y-78028061D02*
X197796571Y-77907109D01*
X197796571Y-77907109D02*
X197736095Y-77846632D01*
X197736095Y-77846632D02*
X197615143Y-77786156D01*
X197615143Y-77786156D02*
X197373238Y-77786156D01*
X197373238Y-77786156D02*
X197252286Y-77846632D01*
X197252286Y-77846632D02*
X197191809Y-77907109D01*
X197191809Y-77907109D02*
X197131333Y-78028061D01*
X169932380Y-80604318D02*
X169932380Y-81632413D01*
X169932380Y-81632413D02*
X169992857Y-81753365D01*
X169992857Y-81753365D02*
X170053333Y-81813842D01*
X170053333Y-81813842D02*
X170174285Y-81874318D01*
X170174285Y-81874318D02*
X170416190Y-81874318D01*
X170416190Y-81874318D02*
X170537142Y-81813842D01*
X170537142Y-81813842D02*
X170597619Y-81753365D01*
X170597619Y-81753365D02*
X170658095Y-81632413D01*
X170658095Y-81632413D02*
X170658095Y-80604318D01*
X171202380Y-80725270D02*
X171262856Y-80664794D01*
X171262856Y-80664794D02*
X171383809Y-80604318D01*
X171383809Y-80604318D02*
X171686190Y-80604318D01*
X171686190Y-80604318D02*
X171807142Y-80664794D01*
X171807142Y-80664794D02*
X171867618Y-80725270D01*
X171867618Y-80725270D02*
X171928095Y-80846222D01*
X171928095Y-80846222D02*
X171928095Y-80967175D01*
X171928095Y-80967175D02*
X171867618Y-81148603D01*
X171867618Y-81148603D02*
X171141904Y-81874318D01*
X171141904Y-81874318D02*
X171928095Y-81874318D01*
D10*
X202969187Y-42334819D02*
X203540615Y-42334819D01*
X203254901Y-43334819D02*
X203254901Y-42334819D01*
X203873949Y-43334819D02*
X203873949Y-42334819D01*
X203873949Y-42334819D02*
X204254901Y-42334819D01*
X204254901Y-42334819D02*
X204350139Y-42382438D01*
X204350139Y-42382438D02*
X204397758Y-42430057D01*
X204397758Y-42430057D02*
X204445377Y-42525295D01*
X204445377Y-42525295D02*
X204445377Y-42668152D01*
X204445377Y-42668152D02*
X204397758Y-42763390D01*
X204397758Y-42763390D02*
X204350139Y-42811009D01*
X204350139Y-42811009D02*
X204254901Y-42858628D01*
X204254901Y-42858628D02*
X203873949Y-42858628D01*
X204921568Y-43334819D02*
X205112044Y-43334819D01*
X205112044Y-43334819D02*
X205207282Y-43287200D01*
X205207282Y-43287200D02*
X205254901Y-43239580D01*
X205254901Y-43239580D02*
X205350139Y-43096723D01*
X205350139Y-43096723D02*
X205397758Y-42906247D01*
X205397758Y-42906247D02*
X205397758Y-42525295D01*
X205397758Y-42525295D02*
X205350139Y-42430057D01*
X205350139Y-42430057D02*
X205302520Y-42382438D01*
X205302520Y-42382438D02*
X205207282Y-42334819D01*
X205207282Y-42334819D02*
X205016806Y-42334819D01*
X205016806Y-42334819D02*
X204921568Y-42382438D01*
X204921568Y-42382438D02*
X204873949Y-42430057D01*
X204873949Y-42430057D02*
X204826330Y-42525295D01*
X204826330Y-42525295D02*
X204826330Y-42763390D01*
X204826330Y-42763390D02*
X204873949Y-42858628D01*
X204873949Y-42858628D02*
X204921568Y-42906247D01*
X204921568Y-42906247D02*
X205016806Y-42953866D01*
X205016806Y-42953866D02*
X205207282Y-42953866D01*
X205207282Y-42953866D02*
X205302520Y-42906247D01*
X205302520Y-42906247D02*
X205350139Y-42858628D01*
X205350139Y-42858628D02*
X205397758Y-42763390D01*
D13*
X236484425Y-65304318D02*
X236061091Y-64699556D01*
X235758710Y-65304318D02*
X235758710Y-64034318D01*
X235758710Y-64034318D02*
X236242520Y-64034318D01*
X236242520Y-64034318D02*
X236363472Y-64094794D01*
X236363472Y-64094794D02*
X236423949Y-64155270D01*
X236423949Y-64155270D02*
X236484425Y-64276222D01*
X236484425Y-64276222D02*
X236484425Y-64457651D01*
X236484425Y-64457651D02*
X236423949Y-64578603D01*
X236423949Y-64578603D02*
X236363472Y-64639080D01*
X236363472Y-64639080D02*
X236242520Y-64699556D01*
X236242520Y-64699556D02*
X235758710Y-64699556D01*
X236968234Y-64155270D02*
X237028710Y-64094794D01*
X237028710Y-64094794D02*
X237149663Y-64034318D01*
X237149663Y-64034318D02*
X237452044Y-64034318D01*
X237452044Y-64034318D02*
X237572996Y-64094794D01*
X237572996Y-64094794D02*
X237633472Y-64155270D01*
X237633472Y-64155270D02*
X237693949Y-64276222D01*
X237693949Y-64276222D02*
X237693949Y-64397175D01*
X237693949Y-64397175D02*
X237633472Y-64578603D01*
X237633472Y-64578603D02*
X236907758Y-65304318D01*
X236907758Y-65304318D02*
X237693949Y-65304318D01*
X193653333Y-52653365D02*
X193592857Y-52713842D01*
X193592857Y-52713842D02*
X193411428Y-52774318D01*
X193411428Y-52774318D02*
X193290476Y-52774318D01*
X193290476Y-52774318D02*
X193109047Y-52713842D01*
X193109047Y-52713842D02*
X192988095Y-52592889D01*
X192988095Y-52592889D02*
X192927618Y-52471937D01*
X192927618Y-52471937D02*
X192867142Y-52230032D01*
X192867142Y-52230032D02*
X192867142Y-52048603D01*
X192867142Y-52048603D02*
X192927618Y-51806699D01*
X192927618Y-51806699D02*
X192988095Y-51685746D01*
X192988095Y-51685746D02*
X193109047Y-51564794D01*
X193109047Y-51564794D02*
X193290476Y-51504318D01*
X193290476Y-51504318D02*
X193411428Y-51504318D01*
X193411428Y-51504318D02*
X193592857Y-51564794D01*
X193592857Y-51564794D02*
X193653333Y-51625270D01*
X194197618Y-52774318D02*
X194197618Y-51504318D01*
X194197618Y-51504318D02*
X194681428Y-51504318D01*
X194681428Y-51504318D02*
X194802380Y-51564794D01*
X194802380Y-51564794D02*
X194862857Y-51625270D01*
X194862857Y-51625270D02*
X194923333Y-51746222D01*
X194923333Y-51746222D02*
X194923333Y-51927651D01*
X194923333Y-51927651D02*
X194862857Y-52048603D01*
X194862857Y-52048603D02*
X194802380Y-52109080D01*
X194802380Y-52109080D02*
X194681428Y-52169556D01*
X194681428Y-52169556D02*
X194197618Y-52169556D01*
X196072380Y-51504318D02*
X195467618Y-51504318D01*
X195467618Y-51504318D02*
X195407142Y-52109080D01*
X195407142Y-52109080D02*
X195467618Y-52048603D01*
X195467618Y-52048603D02*
X195588571Y-51988127D01*
X195588571Y-51988127D02*
X195890952Y-51988127D01*
X195890952Y-51988127D02*
X196011904Y-52048603D01*
X196011904Y-52048603D02*
X196072380Y-52109080D01*
X196072380Y-52109080D02*
X196132857Y-52230032D01*
X196132857Y-52230032D02*
X196132857Y-52532413D01*
X196132857Y-52532413D02*
X196072380Y-52653365D01*
X196072380Y-52653365D02*
X196011904Y-52713842D01*
X196011904Y-52713842D02*
X195890952Y-52774318D01*
X195890952Y-52774318D02*
X195588571Y-52774318D01*
X195588571Y-52774318D02*
X195467618Y-52713842D01*
X195467618Y-52713842D02*
X195407142Y-52653365D01*
X215435886Y-73472142D02*
X215375410Y-73593095D01*
X215375410Y-73593095D02*
X215375410Y-73774523D01*
X215375410Y-73774523D02*
X215435886Y-73955952D01*
X215435886Y-73955952D02*
X215556838Y-74076904D01*
X215556838Y-74076904D02*
X215677791Y-74137381D01*
X215677791Y-74137381D02*
X215919695Y-74197857D01*
X215919695Y-74197857D02*
X216101124Y-74197857D01*
X216101124Y-74197857D02*
X216343029Y-74137381D01*
X216343029Y-74137381D02*
X216463981Y-74076904D01*
X216463981Y-74076904D02*
X216584934Y-73955952D01*
X216584934Y-73955952D02*
X216645410Y-73774523D01*
X216645410Y-73774523D02*
X216645410Y-73653571D01*
X216645410Y-73653571D02*
X216584934Y-73472142D01*
X216584934Y-73472142D02*
X216524457Y-73411666D01*
X216524457Y-73411666D02*
X216101124Y-73411666D01*
X216101124Y-73411666D02*
X216101124Y-73653571D01*
X216645410Y-72202142D02*
X216645410Y-72927857D01*
X216645410Y-72565000D02*
X215375410Y-72565000D01*
X215375410Y-72565000D02*
X215556838Y-72685952D01*
X215556838Y-72685952D02*
X215677791Y-72806904D01*
X215677791Y-72806904D02*
X215738267Y-72927857D01*
X235745410Y-73011666D02*
X235140648Y-73435000D01*
X235745410Y-73737381D02*
X234475410Y-73737381D01*
X234475410Y-73737381D02*
X234475410Y-73253571D01*
X234475410Y-73253571D02*
X234535886Y-73132619D01*
X234535886Y-73132619D02*
X234596362Y-73072142D01*
X234596362Y-73072142D02*
X234717314Y-73011666D01*
X234717314Y-73011666D02*
X234898743Y-73011666D01*
X234898743Y-73011666D02*
X235019695Y-73072142D01*
X235019695Y-73072142D02*
X235080172Y-73132619D01*
X235080172Y-73132619D02*
X235140648Y-73253571D01*
X235140648Y-73253571D02*
X235140648Y-73737381D01*
X234898743Y-71923095D02*
X235745410Y-71923095D01*
X234414934Y-72225476D02*
X235322076Y-72527857D01*
X235322076Y-72527857D02*
X235322076Y-71741666D01*
X201324457Y-82861666D02*
X201384934Y-82922142D01*
X201384934Y-82922142D02*
X201445410Y-83103571D01*
X201445410Y-83103571D02*
X201445410Y-83224523D01*
X201445410Y-83224523D02*
X201384934Y-83405952D01*
X201384934Y-83405952D02*
X201263981Y-83526904D01*
X201263981Y-83526904D02*
X201143029Y-83587381D01*
X201143029Y-83587381D02*
X200901124Y-83647857D01*
X200901124Y-83647857D02*
X200719695Y-83647857D01*
X200719695Y-83647857D02*
X200477791Y-83587381D01*
X200477791Y-83587381D02*
X200356838Y-83526904D01*
X200356838Y-83526904D02*
X200235886Y-83405952D01*
X200235886Y-83405952D02*
X200175410Y-83224523D01*
X200175410Y-83224523D02*
X200175410Y-83103571D01*
X200175410Y-83103571D02*
X200235886Y-82922142D01*
X200235886Y-82922142D02*
X200296362Y-82861666D01*
X200175410Y-82438333D02*
X200175410Y-81652142D01*
X200175410Y-81652142D02*
X200659219Y-82075476D01*
X200659219Y-82075476D02*
X200659219Y-81894047D01*
X200659219Y-81894047D02*
X200719695Y-81773095D01*
X200719695Y-81773095D02*
X200780172Y-81712619D01*
X200780172Y-81712619D02*
X200901124Y-81652142D01*
X200901124Y-81652142D02*
X201203505Y-81652142D01*
X201203505Y-81652142D02*
X201324457Y-81712619D01*
X201324457Y-81712619D02*
X201384934Y-81773095D01*
X201384934Y-81773095D02*
X201445410Y-81894047D01*
X201445410Y-81894047D02*
X201445410Y-82256904D01*
X201445410Y-82256904D02*
X201384934Y-82377857D01*
X201384934Y-82377857D02*
X201324457Y-82438333D01*
D10*
X236809187Y-58954819D02*
X237380615Y-58954819D01*
X237094901Y-59954819D02*
X237094901Y-58954819D01*
X237713949Y-59954819D02*
X237713949Y-58954819D01*
X237713949Y-58954819D02*
X238094901Y-58954819D01*
X238094901Y-58954819D02*
X238190139Y-59002438D01*
X238190139Y-59002438D02*
X238237758Y-59050057D01*
X238237758Y-59050057D02*
X238285377Y-59145295D01*
X238285377Y-59145295D02*
X238285377Y-59288152D01*
X238285377Y-59288152D02*
X238237758Y-59383390D01*
X238237758Y-59383390D02*
X238190139Y-59431009D01*
X238190139Y-59431009D02*
X238094901Y-59478628D01*
X238094901Y-59478628D02*
X237713949Y-59478628D01*
X238618711Y-58954819D02*
X239237758Y-58954819D01*
X239237758Y-58954819D02*
X238904425Y-59335771D01*
X238904425Y-59335771D02*
X239047282Y-59335771D01*
X239047282Y-59335771D02*
X239142520Y-59383390D01*
X239142520Y-59383390D02*
X239190139Y-59431009D01*
X239190139Y-59431009D02*
X239237758Y-59526247D01*
X239237758Y-59526247D02*
X239237758Y-59764342D01*
X239237758Y-59764342D02*
X239190139Y-59859580D01*
X239190139Y-59859580D02*
X239142520Y-59907200D01*
X239142520Y-59907200D02*
X239047282Y-59954819D01*
X239047282Y-59954819D02*
X238761568Y-59954819D01*
X238761568Y-59954819D02*
X238666330Y-59907200D01*
X238666330Y-59907200D02*
X238618711Y-59859580D01*
D13*
X176945410Y-52616428D02*
X176340648Y-53039762D01*
X176945410Y-53342143D02*
X175675410Y-53342143D01*
X175675410Y-53342143D02*
X175675410Y-52858333D01*
X175675410Y-52858333D02*
X175735886Y-52737381D01*
X175735886Y-52737381D02*
X175796362Y-52676904D01*
X175796362Y-52676904D02*
X175917314Y-52616428D01*
X175917314Y-52616428D02*
X176098743Y-52616428D01*
X176098743Y-52616428D02*
X176219695Y-52676904D01*
X176219695Y-52676904D02*
X176280172Y-52737381D01*
X176280172Y-52737381D02*
X176340648Y-52858333D01*
X176340648Y-52858333D02*
X176340648Y-53342143D01*
X176945410Y-51406904D02*
X176945410Y-52132619D01*
X176945410Y-51769762D02*
X175675410Y-51769762D01*
X175675410Y-51769762D02*
X175856838Y-51890714D01*
X175856838Y-51890714D02*
X175977791Y-52011666D01*
X175977791Y-52011666D02*
X176038267Y-52132619D01*
X175675410Y-50983571D02*
X175675410Y-50136904D01*
X175675410Y-50136904D02*
X176945410Y-50681190D01*
X214945410Y-50316428D02*
X214340648Y-50739762D01*
X214945410Y-51042143D02*
X213675410Y-51042143D01*
X213675410Y-51042143D02*
X213675410Y-50558333D01*
X213675410Y-50558333D02*
X213735886Y-50437381D01*
X213735886Y-50437381D02*
X213796362Y-50376904D01*
X213796362Y-50376904D02*
X213917314Y-50316428D01*
X213917314Y-50316428D02*
X214098743Y-50316428D01*
X214098743Y-50316428D02*
X214219695Y-50376904D01*
X214219695Y-50376904D02*
X214280172Y-50437381D01*
X214280172Y-50437381D02*
X214340648Y-50558333D01*
X214340648Y-50558333D02*
X214340648Y-51042143D01*
X214945410Y-49106904D02*
X214945410Y-49832619D01*
X214945410Y-49469762D02*
X213675410Y-49469762D01*
X213675410Y-49469762D02*
X213856838Y-49590714D01*
X213856838Y-49590714D02*
X213977791Y-49711666D01*
X213977791Y-49711666D02*
X214038267Y-49832619D01*
X213675410Y-47957857D02*
X213675410Y-48562619D01*
X213675410Y-48562619D02*
X214280172Y-48623095D01*
X214280172Y-48623095D02*
X214219695Y-48562619D01*
X214219695Y-48562619D02*
X214159219Y-48441666D01*
X214159219Y-48441666D02*
X214159219Y-48139285D01*
X214159219Y-48139285D02*
X214219695Y-48018333D01*
X214219695Y-48018333D02*
X214280172Y-47957857D01*
X214280172Y-47957857D02*
X214401124Y-47897380D01*
X214401124Y-47897380D02*
X214703505Y-47897380D01*
X214703505Y-47897380D02*
X214824457Y-47957857D01*
X214824457Y-47957857D02*
X214884934Y-48018333D01*
X214884934Y-48018333D02*
X214945410Y-48139285D01*
X214945410Y-48139285D02*
X214945410Y-48441666D01*
X214945410Y-48441666D02*
X214884934Y-48562619D01*
X214884934Y-48562619D02*
X214824457Y-48623095D01*
X182367663Y-69174318D02*
X181944329Y-68569556D01*
X181641948Y-69174318D02*
X181641948Y-67904318D01*
X181641948Y-67904318D02*
X182125758Y-67904318D01*
X182125758Y-67904318D02*
X182246710Y-67964794D01*
X182246710Y-67964794D02*
X182307187Y-68025270D01*
X182307187Y-68025270D02*
X182367663Y-68146222D01*
X182367663Y-68146222D02*
X182367663Y-68327651D01*
X182367663Y-68327651D02*
X182307187Y-68448603D01*
X182307187Y-68448603D02*
X182246710Y-68509080D01*
X182246710Y-68509080D02*
X182125758Y-68569556D01*
X182125758Y-68569556D02*
X181641948Y-68569556D01*
X183577187Y-69174318D02*
X182851472Y-69174318D01*
X183214329Y-69174318D02*
X183214329Y-67904318D01*
X183214329Y-67904318D02*
X183093377Y-68085746D01*
X183093377Y-68085746D02*
X182972425Y-68206699D01*
X182972425Y-68206699D02*
X182851472Y-68267175D01*
X184786711Y-69174318D02*
X184060996Y-69174318D01*
X184423853Y-69174318D02*
X184423853Y-67904318D01*
X184423853Y-67904318D02*
X184302901Y-68085746D01*
X184302901Y-68085746D02*
X184181949Y-68206699D01*
X184181949Y-68206699D02*
X184060996Y-68267175D01*
D10*
X208209187Y-53754819D02*
X208780615Y-53754819D01*
X208494901Y-54754819D02*
X208494901Y-53754819D01*
X209113949Y-54754819D02*
X209113949Y-53754819D01*
X209113949Y-53754819D02*
X209494901Y-53754819D01*
X209494901Y-53754819D02*
X209590139Y-53802438D01*
X209590139Y-53802438D02*
X209637758Y-53850057D01*
X209637758Y-53850057D02*
X209685377Y-53945295D01*
X209685377Y-53945295D02*
X209685377Y-54088152D01*
X209685377Y-54088152D02*
X209637758Y-54183390D01*
X209637758Y-54183390D02*
X209590139Y-54231009D01*
X209590139Y-54231009D02*
X209494901Y-54278628D01*
X209494901Y-54278628D02*
X209113949Y-54278628D01*
X210256806Y-54183390D02*
X210161568Y-54135771D01*
X210161568Y-54135771D02*
X210113949Y-54088152D01*
X210113949Y-54088152D02*
X210066330Y-53992914D01*
X210066330Y-53992914D02*
X210066330Y-53945295D01*
X210066330Y-53945295D02*
X210113949Y-53850057D01*
X210113949Y-53850057D02*
X210161568Y-53802438D01*
X210161568Y-53802438D02*
X210256806Y-53754819D01*
X210256806Y-53754819D02*
X210447282Y-53754819D01*
X210447282Y-53754819D02*
X210542520Y-53802438D01*
X210542520Y-53802438D02*
X210590139Y-53850057D01*
X210590139Y-53850057D02*
X210637758Y-53945295D01*
X210637758Y-53945295D02*
X210637758Y-53992914D01*
X210637758Y-53992914D02*
X210590139Y-54088152D01*
X210590139Y-54088152D02*
X210542520Y-54135771D01*
X210542520Y-54135771D02*
X210447282Y-54183390D01*
X210447282Y-54183390D02*
X210256806Y-54183390D01*
X210256806Y-54183390D02*
X210161568Y-54231009D01*
X210161568Y-54231009D02*
X210113949Y-54278628D01*
X210113949Y-54278628D02*
X210066330Y-54373866D01*
X210066330Y-54373866D02*
X210066330Y-54564342D01*
X210066330Y-54564342D02*
X210113949Y-54659580D01*
X210113949Y-54659580D02*
X210161568Y-54707200D01*
X210161568Y-54707200D02*
X210256806Y-54754819D01*
X210256806Y-54754819D02*
X210447282Y-54754819D01*
X210447282Y-54754819D02*
X210542520Y-54707200D01*
X210542520Y-54707200D02*
X210590139Y-54659580D01*
X210590139Y-54659580D02*
X210637758Y-54564342D01*
X210637758Y-54564342D02*
X210637758Y-54373866D01*
X210637758Y-54373866D02*
X210590139Y-54278628D01*
X210590139Y-54278628D02*
X210542520Y-54231009D01*
X210542520Y-54231009D02*
X210447282Y-54183390D01*
D13*
X220466362Y-68620952D02*
X220405886Y-68741904D01*
X220405886Y-68741904D02*
X220284934Y-68862857D01*
X220284934Y-68862857D02*
X220103505Y-69044285D01*
X220103505Y-69044285D02*
X220043029Y-69165238D01*
X220043029Y-69165238D02*
X220043029Y-69286190D01*
X220345410Y-69225714D02*
X220284934Y-69346666D01*
X220284934Y-69346666D02*
X220163981Y-69467619D01*
X220163981Y-69467619D02*
X219922076Y-69528095D01*
X219922076Y-69528095D02*
X219498743Y-69528095D01*
X219498743Y-69528095D02*
X219256838Y-69467619D01*
X219256838Y-69467619D02*
X219135886Y-69346666D01*
X219135886Y-69346666D02*
X219075410Y-69225714D01*
X219075410Y-69225714D02*
X219075410Y-68983809D01*
X219075410Y-68983809D02*
X219135886Y-68862857D01*
X219135886Y-68862857D02*
X219256838Y-68741904D01*
X219256838Y-68741904D02*
X219498743Y-68681428D01*
X219498743Y-68681428D02*
X219922076Y-68681428D01*
X219922076Y-68681428D02*
X220163981Y-68741904D01*
X220163981Y-68741904D02*
X220284934Y-68862857D01*
X220284934Y-68862857D02*
X220345410Y-68983809D01*
X220345410Y-68983809D02*
X220345410Y-69225714D01*
X220345410Y-67471904D02*
X220345410Y-68197619D01*
X220345410Y-67834762D02*
X219075410Y-67834762D01*
X219075410Y-67834762D02*
X219256838Y-67955714D01*
X219256838Y-67955714D02*
X219377791Y-68076666D01*
X219377791Y-68076666D02*
X219438267Y-68197619D01*
X177024457Y-74311666D02*
X177084934Y-74372142D01*
X177084934Y-74372142D02*
X177145410Y-74553571D01*
X177145410Y-74553571D02*
X177145410Y-74674523D01*
X177145410Y-74674523D02*
X177084934Y-74855952D01*
X177084934Y-74855952D02*
X176963981Y-74976904D01*
X176963981Y-74976904D02*
X176843029Y-75037381D01*
X176843029Y-75037381D02*
X176601124Y-75097857D01*
X176601124Y-75097857D02*
X176419695Y-75097857D01*
X176419695Y-75097857D02*
X176177791Y-75037381D01*
X176177791Y-75037381D02*
X176056838Y-74976904D01*
X176056838Y-74976904D02*
X175935886Y-74855952D01*
X175935886Y-74855952D02*
X175875410Y-74674523D01*
X175875410Y-74674523D02*
X175875410Y-74553571D01*
X175875410Y-74553571D02*
X175935886Y-74372142D01*
X175935886Y-74372142D02*
X175996362Y-74311666D01*
X175875410Y-73223095D02*
X175875410Y-73465000D01*
X175875410Y-73465000D02*
X175935886Y-73585952D01*
X175935886Y-73585952D02*
X175996362Y-73646428D01*
X175996362Y-73646428D02*
X176177791Y-73767381D01*
X176177791Y-73767381D02*
X176419695Y-73827857D01*
X176419695Y-73827857D02*
X176903505Y-73827857D01*
X176903505Y-73827857D02*
X177024457Y-73767381D01*
X177024457Y-73767381D02*
X177084934Y-73706904D01*
X177084934Y-73706904D02*
X177145410Y-73585952D01*
X177145410Y-73585952D02*
X177145410Y-73344047D01*
X177145410Y-73344047D02*
X177084934Y-73223095D01*
X177084934Y-73223095D02*
X177024457Y-73162619D01*
X177024457Y-73162619D02*
X176903505Y-73102142D01*
X176903505Y-73102142D02*
X176601124Y-73102142D01*
X176601124Y-73102142D02*
X176480172Y-73162619D01*
X176480172Y-73162619D02*
X176419695Y-73223095D01*
X176419695Y-73223095D02*
X176359219Y-73344047D01*
X176359219Y-73344047D02*
X176359219Y-73585952D01*
X176359219Y-73585952D02*
X176419695Y-73706904D01*
X176419695Y-73706904D02*
X176480172Y-73767381D01*
X176480172Y-73767381D02*
X176601124Y-73827857D01*
D10*
X178209187Y-42194819D02*
X178780615Y-42194819D01*
X178494901Y-43194819D02*
X178494901Y-42194819D01*
X179113949Y-43194819D02*
X179113949Y-42194819D01*
X179113949Y-42194819D02*
X179494901Y-42194819D01*
X179494901Y-42194819D02*
X179590139Y-42242438D01*
X179590139Y-42242438D02*
X179637758Y-42290057D01*
X179637758Y-42290057D02*
X179685377Y-42385295D01*
X179685377Y-42385295D02*
X179685377Y-42528152D01*
X179685377Y-42528152D02*
X179637758Y-42623390D01*
X179637758Y-42623390D02*
X179590139Y-42671009D01*
X179590139Y-42671009D02*
X179494901Y-42718628D01*
X179494901Y-42718628D02*
X179113949Y-42718628D01*
X180637758Y-43194819D02*
X180066330Y-43194819D01*
X180352044Y-43194819D02*
X180352044Y-42194819D01*
X180352044Y-42194819D02*
X180256806Y-42337676D01*
X180256806Y-42337676D02*
X180161568Y-42432914D01*
X180161568Y-42432914D02*
X180066330Y-42480533D01*
D13*
X228024425Y-73253365D02*
X227963949Y-73313842D01*
X227963949Y-73313842D02*
X227782520Y-73374318D01*
X227782520Y-73374318D02*
X227661568Y-73374318D01*
X227661568Y-73374318D02*
X227480139Y-73313842D01*
X227480139Y-73313842D02*
X227359187Y-73192889D01*
X227359187Y-73192889D02*
X227298710Y-73071937D01*
X227298710Y-73071937D02*
X227238234Y-72830032D01*
X227238234Y-72830032D02*
X227238234Y-72648603D01*
X227238234Y-72648603D02*
X227298710Y-72406699D01*
X227298710Y-72406699D02*
X227359187Y-72285746D01*
X227359187Y-72285746D02*
X227480139Y-72164794D01*
X227480139Y-72164794D02*
X227661568Y-72104318D01*
X227661568Y-72104318D02*
X227782520Y-72104318D01*
X227782520Y-72104318D02*
X227963949Y-72164794D01*
X227963949Y-72164794D02*
X228024425Y-72225270D01*
X228568710Y-73374318D02*
X228568710Y-72104318D01*
X228568710Y-72104318D02*
X229052520Y-72104318D01*
X229052520Y-72104318D02*
X229173472Y-72164794D01*
X229173472Y-72164794D02*
X229233949Y-72225270D01*
X229233949Y-72225270D02*
X229294425Y-72346222D01*
X229294425Y-72346222D02*
X229294425Y-72527651D01*
X229294425Y-72527651D02*
X229233949Y-72648603D01*
X229233949Y-72648603D02*
X229173472Y-72709080D01*
X229173472Y-72709080D02*
X229052520Y-72769556D01*
X229052520Y-72769556D02*
X228568710Y-72769556D01*
X229717758Y-72104318D02*
X230503949Y-72104318D01*
X230503949Y-72104318D02*
X230080615Y-72588127D01*
X230080615Y-72588127D02*
X230262044Y-72588127D01*
X230262044Y-72588127D02*
X230382996Y-72648603D01*
X230382996Y-72648603D02*
X230443472Y-72709080D01*
X230443472Y-72709080D02*
X230503949Y-72830032D01*
X230503949Y-72830032D02*
X230503949Y-73132413D01*
X230503949Y-73132413D02*
X230443472Y-73253365D01*
X230443472Y-73253365D02*
X230382996Y-73313842D01*
X230382996Y-73313842D02*
X230262044Y-73374318D01*
X230262044Y-73374318D02*
X229899187Y-73374318D01*
X229899187Y-73374318D02*
X229778234Y-73313842D01*
X229778234Y-73313842D02*
X229717758Y-73253365D01*
X193624425Y-67253365D02*
X193563949Y-67313842D01*
X193563949Y-67313842D02*
X193382520Y-67374318D01*
X193382520Y-67374318D02*
X193261568Y-67374318D01*
X193261568Y-67374318D02*
X193080139Y-67313842D01*
X193080139Y-67313842D02*
X192959187Y-67192889D01*
X192959187Y-67192889D02*
X192898710Y-67071937D01*
X192898710Y-67071937D02*
X192838234Y-66830032D01*
X192838234Y-66830032D02*
X192838234Y-66648603D01*
X192838234Y-66648603D02*
X192898710Y-66406699D01*
X192898710Y-66406699D02*
X192959187Y-66285746D01*
X192959187Y-66285746D02*
X193080139Y-66164794D01*
X193080139Y-66164794D02*
X193261568Y-66104318D01*
X193261568Y-66104318D02*
X193382520Y-66104318D01*
X193382520Y-66104318D02*
X193563949Y-66164794D01*
X193563949Y-66164794D02*
X193624425Y-66225270D01*
X194168710Y-67374318D02*
X194168710Y-66104318D01*
X194168710Y-66104318D02*
X194652520Y-66104318D01*
X194652520Y-66104318D02*
X194773472Y-66164794D01*
X194773472Y-66164794D02*
X194833949Y-66225270D01*
X194833949Y-66225270D02*
X194894425Y-66346222D01*
X194894425Y-66346222D02*
X194894425Y-66527651D01*
X194894425Y-66527651D02*
X194833949Y-66648603D01*
X194833949Y-66648603D02*
X194773472Y-66709080D01*
X194773472Y-66709080D02*
X194652520Y-66769556D01*
X194652520Y-66769556D02*
X194168710Y-66769556D01*
X195982996Y-66104318D02*
X195741091Y-66104318D01*
X195741091Y-66104318D02*
X195620139Y-66164794D01*
X195620139Y-66164794D02*
X195559663Y-66225270D01*
X195559663Y-66225270D02*
X195438710Y-66406699D01*
X195438710Y-66406699D02*
X195378234Y-66648603D01*
X195378234Y-66648603D02*
X195378234Y-67132413D01*
X195378234Y-67132413D02*
X195438710Y-67253365D01*
X195438710Y-67253365D02*
X195499187Y-67313842D01*
X195499187Y-67313842D02*
X195620139Y-67374318D01*
X195620139Y-67374318D02*
X195862044Y-67374318D01*
X195862044Y-67374318D02*
X195982996Y-67313842D01*
X195982996Y-67313842D02*
X196043472Y-67253365D01*
X196043472Y-67253365D02*
X196103949Y-67132413D01*
X196103949Y-67132413D02*
X196103949Y-66830032D01*
X196103949Y-66830032D02*
X196043472Y-66709080D01*
X196043472Y-66709080D02*
X195982996Y-66648603D01*
X195982996Y-66648603D02*
X195862044Y-66588127D01*
X195862044Y-66588127D02*
X195620139Y-66588127D01*
X195620139Y-66588127D02*
X195499187Y-66648603D01*
X195499187Y-66648603D02*
X195438710Y-66709080D01*
X195438710Y-66709080D02*
X195378234Y-66830032D01*
D10*
X196709187Y-75554819D02*
X197280615Y-75554819D01*
X196994901Y-76554819D02*
X196994901Y-75554819D01*
X197613949Y-76554819D02*
X197613949Y-75554819D01*
X197613949Y-75554819D02*
X197994901Y-75554819D01*
X197994901Y-75554819D02*
X198090139Y-75602438D01*
X198090139Y-75602438D02*
X198137758Y-75650057D01*
X198137758Y-75650057D02*
X198185377Y-75745295D01*
X198185377Y-75745295D02*
X198185377Y-75888152D01*
X198185377Y-75888152D02*
X198137758Y-75983390D01*
X198137758Y-75983390D02*
X198090139Y-76031009D01*
X198090139Y-76031009D02*
X197994901Y-76078628D01*
X197994901Y-76078628D02*
X197613949Y-76078628D01*
X199090139Y-75554819D02*
X198613949Y-75554819D01*
X198613949Y-75554819D02*
X198566330Y-76031009D01*
X198566330Y-76031009D02*
X198613949Y-75983390D01*
X198613949Y-75983390D02*
X198709187Y-75935771D01*
X198709187Y-75935771D02*
X198947282Y-75935771D01*
X198947282Y-75935771D02*
X199042520Y-75983390D01*
X199042520Y-75983390D02*
X199090139Y-76031009D01*
X199090139Y-76031009D02*
X199137758Y-76126247D01*
X199137758Y-76126247D02*
X199137758Y-76364342D01*
X199137758Y-76364342D02*
X199090139Y-76459580D01*
X199090139Y-76459580D02*
X199042520Y-76507200D01*
X199042520Y-76507200D02*
X198947282Y-76554819D01*
X198947282Y-76554819D02*
X198709187Y-76554819D01*
X198709187Y-76554819D02*
X198613949Y-76507200D01*
X198613949Y-76507200D02*
X198566330Y-76459580D01*
X229204425Y-64509580D02*
X229156806Y-64557200D01*
X229156806Y-64557200D02*
X229013949Y-64604819D01*
X229013949Y-64604819D02*
X228918711Y-64604819D01*
X228918711Y-64604819D02*
X228775854Y-64557200D01*
X228775854Y-64557200D02*
X228680616Y-64461961D01*
X228680616Y-64461961D02*
X228632997Y-64366723D01*
X228632997Y-64366723D02*
X228585378Y-64176247D01*
X228585378Y-64176247D02*
X228585378Y-64033390D01*
X228585378Y-64033390D02*
X228632997Y-63842914D01*
X228632997Y-63842914D02*
X228680616Y-63747676D01*
X228680616Y-63747676D02*
X228775854Y-63652438D01*
X228775854Y-63652438D02*
X228918711Y-63604819D01*
X228918711Y-63604819D02*
X229013949Y-63604819D01*
X229013949Y-63604819D02*
X229156806Y-63652438D01*
X229156806Y-63652438D02*
X229204425Y-63700057D01*
X230156806Y-64604819D02*
X229585378Y-64604819D01*
X229871092Y-64604819D02*
X229871092Y-63604819D01*
X229871092Y-63604819D02*
X229775854Y-63747676D01*
X229775854Y-63747676D02*
X229680616Y-63842914D01*
X229680616Y-63842914D02*
X229585378Y-63890533D01*
D15*
X201670787Y-71836189D02*
X201289834Y-72102856D01*
X201670787Y-72293332D02*
X200870787Y-72293332D01*
X200870787Y-72293332D02*
X200870787Y-71988570D01*
X200870787Y-71988570D02*
X200908882Y-71912380D01*
X200908882Y-71912380D02*
X200946977Y-71874285D01*
X200946977Y-71874285D02*
X201023168Y-71836189D01*
X201023168Y-71836189D02*
X201137453Y-71836189D01*
X201137453Y-71836189D02*
X201213644Y-71874285D01*
X201213644Y-71874285D02*
X201251739Y-71912380D01*
X201251739Y-71912380D02*
X201289834Y-71988570D01*
X201289834Y-71988570D02*
X201289834Y-72293332D01*
X200870787Y-71607618D02*
X201670787Y-71340951D01*
X201670787Y-71340951D02*
X200870787Y-71074285D01*
X201670787Y-70388571D02*
X201670787Y-70845714D01*
X201670787Y-70617142D02*
X200870787Y-70617142D01*
X200870787Y-70617142D02*
X200985072Y-70693333D01*
X200985072Y-70693333D02*
X201061263Y-70769523D01*
X201061263Y-70769523D02*
X201099358Y-70845714D01*
D13*
X215359425Y-57374318D02*
X214936091Y-56769556D01*
X214633710Y-57374318D02*
X214633710Y-56104318D01*
X214633710Y-56104318D02*
X215117520Y-56104318D01*
X215117520Y-56104318D02*
X215238472Y-56164794D01*
X215238472Y-56164794D02*
X215298949Y-56225270D01*
X215298949Y-56225270D02*
X215359425Y-56346222D01*
X215359425Y-56346222D02*
X215359425Y-56527651D01*
X215359425Y-56527651D02*
X215298949Y-56648603D01*
X215298949Y-56648603D02*
X215238472Y-56709080D01*
X215238472Y-56709080D02*
X215117520Y-56769556D01*
X215117520Y-56769556D02*
X214633710Y-56769556D01*
X216508472Y-56104318D02*
X215903710Y-56104318D01*
X215903710Y-56104318D02*
X215843234Y-56709080D01*
X215843234Y-56709080D02*
X215903710Y-56648603D01*
X215903710Y-56648603D02*
X216024663Y-56588127D01*
X216024663Y-56588127D02*
X216327044Y-56588127D01*
X216327044Y-56588127D02*
X216447996Y-56648603D01*
X216447996Y-56648603D02*
X216508472Y-56709080D01*
X216508472Y-56709080D02*
X216568949Y-56830032D01*
X216568949Y-56830032D02*
X216568949Y-57132413D01*
X216568949Y-57132413D02*
X216508472Y-57253365D01*
X216508472Y-57253365D02*
X216447996Y-57313842D01*
X216447996Y-57313842D02*
X216327044Y-57374318D01*
X216327044Y-57374318D02*
X216024663Y-57374318D01*
X216024663Y-57374318D02*
X215903710Y-57313842D01*
X215903710Y-57313842D02*
X215843234Y-57253365D01*
X208658949Y-60194794D02*
X208537996Y-60134318D01*
X208537996Y-60134318D02*
X208356568Y-60134318D01*
X208356568Y-60134318D02*
X208175139Y-60194794D01*
X208175139Y-60194794D02*
X208054187Y-60315746D01*
X208054187Y-60315746D02*
X207993710Y-60436699D01*
X207993710Y-60436699D02*
X207933234Y-60678603D01*
X207933234Y-60678603D02*
X207933234Y-60860032D01*
X207933234Y-60860032D02*
X207993710Y-61101937D01*
X207993710Y-61101937D02*
X208054187Y-61222889D01*
X208054187Y-61222889D02*
X208175139Y-61343842D01*
X208175139Y-61343842D02*
X208356568Y-61404318D01*
X208356568Y-61404318D02*
X208477520Y-61404318D01*
X208477520Y-61404318D02*
X208658949Y-61343842D01*
X208658949Y-61343842D02*
X208719425Y-61283365D01*
X208719425Y-61283365D02*
X208719425Y-60860032D01*
X208719425Y-60860032D02*
X208477520Y-60860032D01*
X209142758Y-60134318D02*
X209989425Y-60134318D01*
X209989425Y-60134318D02*
X209445139Y-61404318D01*
X204688333Y-76574318D02*
X204264999Y-75969556D01*
X203962618Y-76574318D02*
X203962618Y-75304318D01*
X203962618Y-75304318D02*
X204446428Y-75304318D01*
X204446428Y-75304318D02*
X204567380Y-75364794D01*
X204567380Y-75364794D02*
X204627857Y-75425270D01*
X204627857Y-75425270D02*
X204688333Y-75546222D01*
X204688333Y-75546222D02*
X204688333Y-75727651D01*
X204688333Y-75727651D02*
X204627857Y-75848603D01*
X204627857Y-75848603D02*
X204567380Y-75909080D01*
X204567380Y-75909080D02*
X204446428Y-75969556D01*
X204446428Y-75969556D02*
X203962618Y-75969556D01*
X205414047Y-75848603D02*
X205293095Y-75788127D01*
X205293095Y-75788127D02*
X205232618Y-75727651D01*
X205232618Y-75727651D02*
X205172142Y-75606699D01*
X205172142Y-75606699D02*
X205172142Y-75546222D01*
X205172142Y-75546222D02*
X205232618Y-75425270D01*
X205232618Y-75425270D02*
X205293095Y-75364794D01*
X205293095Y-75364794D02*
X205414047Y-75304318D01*
X205414047Y-75304318D02*
X205655952Y-75304318D01*
X205655952Y-75304318D02*
X205776904Y-75364794D01*
X205776904Y-75364794D02*
X205837380Y-75425270D01*
X205837380Y-75425270D02*
X205897857Y-75546222D01*
X205897857Y-75546222D02*
X205897857Y-75606699D01*
X205897857Y-75606699D02*
X205837380Y-75727651D01*
X205837380Y-75727651D02*
X205776904Y-75788127D01*
X205776904Y-75788127D02*
X205655952Y-75848603D01*
X205655952Y-75848603D02*
X205414047Y-75848603D01*
X205414047Y-75848603D02*
X205293095Y-75909080D01*
X205293095Y-75909080D02*
X205232618Y-75969556D01*
X205232618Y-75969556D02*
X205172142Y-76090508D01*
X205172142Y-76090508D02*
X205172142Y-76332413D01*
X205172142Y-76332413D02*
X205232618Y-76453365D01*
X205232618Y-76453365D02*
X205293095Y-76513842D01*
X205293095Y-76513842D02*
X205414047Y-76574318D01*
X205414047Y-76574318D02*
X205655952Y-76574318D01*
X205655952Y-76574318D02*
X205776904Y-76513842D01*
X205776904Y-76513842D02*
X205837380Y-76453365D01*
X205837380Y-76453365D02*
X205897857Y-76332413D01*
X205897857Y-76332413D02*
X205897857Y-76090508D01*
X205897857Y-76090508D02*
X205837380Y-75969556D01*
X205837380Y-75969556D02*
X205776904Y-75909080D01*
X205776904Y-75909080D02*
X205655952Y-75848603D01*
X212054663Y-63374318D02*
X211631329Y-62769556D01*
X211328948Y-63374318D02*
X211328948Y-62104318D01*
X211328948Y-62104318D02*
X211812758Y-62104318D01*
X211812758Y-62104318D02*
X211933710Y-62164794D01*
X211933710Y-62164794D02*
X211994187Y-62225270D01*
X211994187Y-62225270D02*
X212054663Y-62346222D01*
X212054663Y-62346222D02*
X212054663Y-62527651D01*
X212054663Y-62527651D02*
X211994187Y-62648603D01*
X211994187Y-62648603D02*
X211933710Y-62709080D01*
X211933710Y-62709080D02*
X211812758Y-62769556D01*
X211812758Y-62769556D02*
X211328948Y-62769556D01*
X213264187Y-63374318D02*
X212538472Y-63374318D01*
X212901329Y-63374318D02*
X212901329Y-62104318D01*
X212901329Y-62104318D02*
X212780377Y-62285746D01*
X212780377Y-62285746D02*
X212659425Y-62406699D01*
X212659425Y-62406699D02*
X212538472Y-62467175D01*
X214352758Y-62104318D02*
X214110853Y-62104318D01*
X214110853Y-62104318D02*
X213989901Y-62164794D01*
X213989901Y-62164794D02*
X213929425Y-62225270D01*
X213929425Y-62225270D02*
X213808472Y-62406699D01*
X213808472Y-62406699D02*
X213747996Y-62648603D01*
X213747996Y-62648603D02*
X213747996Y-63132413D01*
X213747996Y-63132413D02*
X213808472Y-63253365D01*
X213808472Y-63253365D02*
X213868949Y-63313842D01*
X213868949Y-63313842D02*
X213989901Y-63374318D01*
X213989901Y-63374318D02*
X214231806Y-63374318D01*
X214231806Y-63374318D02*
X214352758Y-63313842D01*
X214352758Y-63313842D02*
X214413234Y-63253365D01*
X214413234Y-63253365D02*
X214473711Y-63132413D01*
X214473711Y-63132413D02*
X214473711Y-62830032D01*
X214473711Y-62830032D02*
X214413234Y-62709080D01*
X214413234Y-62709080D02*
X214352758Y-62648603D01*
X214352758Y-62648603D02*
X214231806Y-62588127D01*
X214231806Y-62588127D02*
X213989901Y-62588127D01*
X213989901Y-62588127D02*
X213868949Y-62648603D01*
X213868949Y-62648603D02*
X213808472Y-62709080D01*
X213808472Y-62709080D02*
X213747996Y-62830032D01*
X189698949Y-75843755D02*
X189577996Y-75783279D01*
X189577996Y-75783279D02*
X189396568Y-75783279D01*
X189396568Y-75783279D02*
X189215139Y-75843755D01*
X189215139Y-75843755D02*
X189094187Y-75964707D01*
X189094187Y-75964707D02*
X189033710Y-76085660D01*
X189033710Y-76085660D02*
X188973234Y-76327564D01*
X188973234Y-76327564D02*
X188973234Y-76508993D01*
X188973234Y-76508993D02*
X189033710Y-76750898D01*
X189033710Y-76750898D02*
X189094187Y-76871850D01*
X189094187Y-76871850D02*
X189215139Y-76992803D01*
X189215139Y-76992803D02*
X189396568Y-77053279D01*
X189396568Y-77053279D02*
X189517520Y-77053279D01*
X189517520Y-77053279D02*
X189698949Y-76992803D01*
X189698949Y-76992803D02*
X189759425Y-76932326D01*
X189759425Y-76932326D02*
X189759425Y-76508993D01*
X189759425Y-76508993D02*
X189517520Y-76508993D01*
X190182758Y-75783279D02*
X190968949Y-75783279D01*
X190968949Y-75783279D02*
X190545615Y-76267088D01*
X190545615Y-76267088D02*
X190727044Y-76267088D01*
X190727044Y-76267088D02*
X190847996Y-76327564D01*
X190847996Y-76327564D02*
X190908472Y-76388041D01*
X190908472Y-76388041D02*
X190968949Y-76508993D01*
X190968949Y-76508993D02*
X190968949Y-76811374D01*
X190968949Y-76811374D02*
X190908472Y-76932326D01*
X190908472Y-76932326D02*
X190847996Y-76992803D01*
X190847996Y-76992803D02*
X190727044Y-77053279D01*
X190727044Y-77053279D02*
X190364187Y-77053279D01*
X190364187Y-77053279D02*
X190243234Y-76992803D01*
X190243234Y-76992803D02*
X190182758Y-76932326D01*
X207324425Y-83124404D02*
X207263949Y-83184881D01*
X207263949Y-83184881D02*
X207082520Y-83245357D01*
X207082520Y-83245357D02*
X206961568Y-83245357D01*
X206961568Y-83245357D02*
X206780139Y-83184881D01*
X206780139Y-83184881D02*
X206659187Y-83063928D01*
X206659187Y-83063928D02*
X206598710Y-82942976D01*
X206598710Y-82942976D02*
X206538234Y-82701071D01*
X206538234Y-82701071D02*
X206538234Y-82519642D01*
X206538234Y-82519642D02*
X206598710Y-82277738D01*
X206598710Y-82277738D02*
X206659187Y-82156785D01*
X206659187Y-82156785D02*
X206780139Y-82035833D01*
X206780139Y-82035833D02*
X206961568Y-81975357D01*
X206961568Y-81975357D02*
X207082520Y-81975357D01*
X207082520Y-81975357D02*
X207263949Y-82035833D01*
X207263949Y-82035833D02*
X207324425Y-82096309D01*
X207868710Y-83245357D02*
X207868710Y-81975357D01*
X207868710Y-81975357D02*
X208352520Y-81975357D01*
X208352520Y-81975357D02*
X208473472Y-82035833D01*
X208473472Y-82035833D02*
X208533949Y-82096309D01*
X208533949Y-82096309D02*
X208594425Y-82217261D01*
X208594425Y-82217261D02*
X208594425Y-82398690D01*
X208594425Y-82398690D02*
X208533949Y-82519642D01*
X208533949Y-82519642D02*
X208473472Y-82580119D01*
X208473472Y-82580119D02*
X208352520Y-82640595D01*
X208352520Y-82640595D02*
X207868710Y-82640595D01*
X209682996Y-82398690D02*
X209682996Y-83245357D01*
X209380615Y-81914881D02*
X209078234Y-82822023D01*
X209078234Y-82822023D02*
X209864425Y-82822023D01*
X220275886Y-63962142D02*
X220215410Y-64083095D01*
X220215410Y-64083095D02*
X220215410Y-64264523D01*
X220215410Y-64264523D02*
X220275886Y-64445952D01*
X220275886Y-64445952D02*
X220396838Y-64566904D01*
X220396838Y-64566904D02*
X220517791Y-64627381D01*
X220517791Y-64627381D02*
X220759695Y-64687857D01*
X220759695Y-64687857D02*
X220941124Y-64687857D01*
X220941124Y-64687857D02*
X221183029Y-64627381D01*
X221183029Y-64627381D02*
X221303981Y-64566904D01*
X221303981Y-64566904D02*
X221424934Y-64445952D01*
X221424934Y-64445952D02*
X221485410Y-64264523D01*
X221485410Y-64264523D02*
X221485410Y-64143571D01*
X221485410Y-64143571D02*
X221424934Y-63962142D01*
X221424934Y-63962142D02*
X221364457Y-63901666D01*
X221364457Y-63901666D02*
X220941124Y-63901666D01*
X220941124Y-63901666D02*
X220941124Y-64143571D01*
X220336362Y-63417857D02*
X220275886Y-63357381D01*
X220275886Y-63357381D02*
X220215410Y-63236428D01*
X220215410Y-63236428D02*
X220215410Y-62934047D01*
X220215410Y-62934047D02*
X220275886Y-62813095D01*
X220275886Y-62813095D02*
X220336362Y-62752619D01*
X220336362Y-62752619D02*
X220457314Y-62692142D01*
X220457314Y-62692142D02*
X220578267Y-62692142D01*
X220578267Y-62692142D02*
X220759695Y-62752619D01*
X220759695Y-62752619D02*
X221485410Y-63478333D01*
X221485410Y-63478333D02*
X221485410Y-62692142D01*
X224445410Y-58711666D02*
X223840648Y-59135000D01*
X224445410Y-59437381D02*
X223175410Y-59437381D01*
X223175410Y-59437381D02*
X223175410Y-58953571D01*
X223175410Y-58953571D02*
X223235886Y-58832619D01*
X223235886Y-58832619D02*
X223296362Y-58772142D01*
X223296362Y-58772142D02*
X223417314Y-58711666D01*
X223417314Y-58711666D02*
X223598743Y-58711666D01*
X223598743Y-58711666D02*
X223719695Y-58772142D01*
X223719695Y-58772142D02*
X223780172Y-58832619D01*
X223780172Y-58832619D02*
X223840648Y-58953571D01*
X223840648Y-58953571D02*
X223840648Y-59437381D01*
X224445410Y-57502142D02*
X224445410Y-58227857D01*
X224445410Y-57865000D02*
X223175410Y-57865000D01*
X223175410Y-57865000D02*
X223356838Y-57985952D01*
X223356838Y-57985952D02*
X223477791Y-58106904D01*
X223477791Y-58106904D02*
X223538267Y-58227857D01*
X217045410Y-46637381D02*
X215775410Y-46637381D01*
X217045410Y-45911666D02*
X216319695Y-46455952D01*
X215775410Y-45911666D02*
X216501124Y-46637381D01*
X215896362Y-45427857D02*
X215835886Y-45367381D01*
X215835886Y-45367381D02*
X215775410Y-45246428D01*
X215775410Y-45246428D02*
X215775410Y-44944047D01*
X215775410Y-44944047D02*
X215835886Y-44823095D01*
X215835886Y-44823095D02*
X215896362Y-44762619D01*
X215896362Y-44762619D02*
X216017314Y-44702142D01*
X216017314Y-44702142D02*
X216138267Y-44702142D01*
X216138267Y-44702142D02*
X216319695Y-44762619D01*
X216319695Y-44762619D02*
X217045410Y-45488333D01*
X217045410Y-45488333D02*
X217045410Y-44702142D01*
X183584425Y-75298365D02*
X183523949Y-75358842D01*
X183523949Y-75358842D02*
X183342520Y-75419318D01*
X183342520Y-75419318D02*
X183221568Y-75419318D01*
X183221568Y-75419318D02*
X183040139Y-75358842D01*
X183040139Y-75358842D02*
X182919187Y-75237889D01*
X182919187Y-75237889D02*
X182858710Y-75116937D01*
X182858710Y-75116937D02*
X182798234Y-74875032D01*
X182798234Y-74875032D02*
X182798234Y-74693603D01*
X182798234Y-74693603D02*
X182858710Y-74451699D01*
X182858710Y-74451699D02*
X182919187Y-74330746D01*
X182919187Y-74330746D02*
X183040139Y-74209794D01*
X183040139Y-74209794D02*
X183221568Y-74149318D01*
X183221568Y-74149318D02*
X183342520Y-74149318D01*
X183342520Y-74149318D02*
X183523949Y-74209794D01*
X183523949Y-74209794D02*
X183584425Y-74270270D01*
X184128710Y-75419318D02*
X184128710Y-74149318D01*
X184128710Y-74149318D02*
X184612520Y-74149318D01*
X184612520Y-74149318D02*
X184733472Y-74209794D01*
X184733472Y-74209794D02*
X184793949Y-74270270D01*
X184793949Y-74270270D02*
X184854425Y-74391222D01*
X184854425Y-74391222D02*
X184854425Y-74572651D01*
X184854425Y-74572651D02*
X184793949Y-74693603D01*
X184793949Y-74693603D02*
X184733472Y-74754080D01*
X184733472Y-74754080D02*
X184612520Y-74814556D01*
X184612520Y-74814556D02*
X184128710Y-74814556D01*
X185338234Y-74270270D02*
X185398710Y-74209794D01*
X185398710Y-74209794D02*
X185519663Y-74149318D01*
X185519663Y-74149318D02*
X185822044Y-74149318D01*
X185822044Y-74149318D02*
X185942996Y-74209794D01*
X185942996Y-74209794D02*
X186003472Y-74270270D01*
X186003472Y-74270270D02*
X186063949Y-74391222D01*
X186063949Y-74391222D02*
X186063949Y-74512175D01*
X186063949Y-74512175D02*
X186003472Y-74693603D01*
X186003472Y-74693603D02*
X185277758Y-75419318D01*
X185277758Y-75419318D02*
X186063949Y-75419318D01*
D10*
X175310958Y-57766666D02*
X176310958Y-57766666D01*
X176310958Y-57766666D02*
X176510958Y-57833333D01*
X176510958Y-57833333D02*
X176644292Y-57966666D01*
X176644292Y-57966666D02*
X176710958Y-58166666D01*
X176710958Y-58166666D02*
X176710958Y-58300000D01*
X176710958Y-56366666D02*
X176710958Y-57166666D01*
X176710958Y-56766666D02*
X175310958Y-56766666D01*
X175310958Y-56766666D02*
X175510958Y-56899999D01*
X175510958Y-56899999D02*
X175644292Y-57033333D01*
X175644292Y-57033333D02*
X175710958Y-57166666D01*
D13*
X216945410Y-54037381D02*
X215675410Y-54037381D01*
X216945410Y-53311666D02*
X216219695Y-53855952D01*
X215675410Y-53311666D02*
X216401124Y-54037381D01*
X216945410Y-52102142D02*
X216945410Y-52827857D01*
X216945410Y-52465000D02*
X215675410Y-52465000D01*
X215675410Y-52465000D02*
X215856838Y-52585952D01*
X215856838Y-52585952D02*
X215977791Y-52706904D01*
X215977791Y-52706904D02*
X216038267Y-52827857D01*
X229659425Y-80274318D02*
X229236091Y-79669556D01*
X228933710Y-80274318D02*
X228933710Y-79004318D01*
X228933710Y-79004318D02*
X229417520Y-79004318D01*
X229417520Y-79004318D02*
X229538472Y-79064794D01*
X229538472Y-79064794D02*
X229598949Y-79125270D01*
X229598949Y-79125270D02*
X229659425Y-79246222D01*
X229659425Y-79246222D02*
X229659425Y-79427651D01*
X229659425Y-79427651D02*
X229598949Y-79548603D01*
X229598949Y-79548603D02*
X229538472Y-79609080D01*
X229538472Y-79609080D02*
X229417520Y-79669556D01*
X229417520Y-79669556D02*
X228933710Y-79669556D01*
X230082758Y-79004318D02*
X230929425Y-79004318D01*
X230929425Y-79004318D02*
X230385139Y-80274318D01*
D10*
X236709187Y-55454819D02*
X237280615Y-55454819D01*
X236994901Y-56454819D02*
X236994901Y-55454819D01*
X237613949Y-56454819D02*
X237613949Y-55454819D01*
X237613949Y-55454819D02*
X237994901Y-55454819D01*
X237994901Y-55454819D02*
X238090139Y-55502438D01*
X238090139Y-55502438D02*
X238137758Y-55550057D01*
X238137758Y-55550057D02*
X238185377Y-55645295D01*
X238185377Y-55645295D02*
X238185377Y-55788152D01*
X238185377Y-55788152D02*
X238137758Y-55883390D01*
X238137758Y-55883390D02*
X238090139Y-55931009D01*
X238090139Y-55931009D02*
X237994901Y-55978628D01*
X237994901Y-55978628D02*
X237613949Y-55978628D01*
X239042520Y-55788152D02*
X239042520Y-56454819D01*
X238804425Y-55407200D02*
X238566330Y-56121485D01*
X238566330Y-56121485D02*
X239185377Y-56121485D01*
X175310958Y-48166666D02*
X176310958Y-48166666D01*
X176310958Y-48166666D02*
X176510958Y-48233333D01*
X176510958Y-48233333D02*
X176644292Y-48366666D01*
X176644292Y-48366666D02*
X176710958Y-48566666D01*
X176710958Y-48566666D02*
X176710958Y-48700000D01*
X175444292Y-47566666D02*
X175377625Y-47499999D01*
X175377625Y-47499999D02*
X175310958Y-47366666D01*
X175310958Y-47366666D02*
X175310958Y-47033333D01*
X175310958Y-47033333D02*
X175377625Y-46899999D01*
X175377625Y-46899999D02*
X175444292Y-46833333D01*
X175444292Y-46833333D02*
X175577625Y-46766666D01*
X175577625Y-46766666D02*
X175710958Y-46766666D01*
X175710958Y-46766666D02*
X175910958Y-46833333D01*
X175910958Y-46833333D02*
X176710958Y-47633333D01*
X176710958Y-47633333D02*
X176710958Y-46766666D01*
D13*
X210888333Y-76374318D02*
X210464999Y-75769556D01*
X210162618Y-76374318D02*
X210162618Y-75104318D01*
X210162618Y-75104318D02*
X210646428Y-75104318D01*
X210646428Y-75104318D02*
X210767380Y-75164794D01*
X210767380Y-75164794D02*
X210827857Y-75225270D01*
X210827857Y-75225270D02*
X210888333Y-75346222D01*
X210888333Y-75346222D02*
X210888333Y-75527651D01*
X210888333Y-75527651D02*
X210827857Y-75648603D01*
X210827857Y-75648603D02*
X210767380Y-75709080D01*
X210767380Y-75709080D02*
X210646428Y-75769556D01*
X210646428Y-75769556D02*
X210162618Y-75769556D01*
X211493095Y-76374318D02*
X211734999Y-76374318D01*
X211734999Y-76374318D02*
X211855952Y-76313842D01*
X211855952Y-76313842D02*
X211916428Y-76253365D01*
X211916428Y-76253365D02*
X212037380Y-76071937D01*
X212037380Y-76071937D02*
X212097857Y-75830032D01*
X212097857Y-75830032D02*
X212097857Y-75346222D01*
X212097857Y-75346222D02*
X212037380Y-75225270D01*
X212037380Y-75225270D02*
X211976904Y-75164794D01*
X211976904Y-75164794D02*
X211855952Y-75104318D01*
X211855952Y-75104318D02*
X211614047Y-75104318D01*
X211614047Y-75104318D02*
X211493095Y-75164794D01*
X211493095Y-75164794D02*
X211432618Y-75225270D01*
X211432618Y-75225270D02*
X211372142Y-75346222D01*
X211372142Y-75346222D02*
X211372142Y-75648603D01*
X211372142Y-75648603D02*
X211432618Y-75769556D01*
X211432618Y-75769556D02*
X211493095Y-75830032D01*
X211493095Y-75830032D02*
X211614047Y-75890508D01*
X211614047Y-75890508D02*
X211855952Y-75890508D01*
X211855952Y-75890508D02*
X211976904Y-75830032D01*
X211976904Y-75830032D02*
X212037380Y-75769556D01*
X212037380Y-75769556D02*
X212097857Y-75648603D01*
X221998949Y-76685833D02*
X221877996Y-76625357D01*
X221877996Y-76625357D02*
X221696568Y-76625357D01*
X221696568Y-76625357D02*
X221515139Y-76685833D01*
X221515139Y-76685833D02*
X221394187Y-76806785D01*
X221394187Y-76806785D02*
X221333710Y-76927738D01*
X221333710Y-76927738D02*
X221273234Y-77169642D01*
X221273234Y-77169642D02*
X221273234Y-77351071D01*
X221273234Y-77351071D02*
X221333710Y-77592976D01*
X221333710Y-77592976D02*
X221394187Y-77713928D01*
X221394187Y-77713928D02*
X221515139Y-77834881D01*
X221515139Y-77834881D02*
X221696568Y-77895357D01*
X221696568Y-77895357D02*
X221817520Y-77895357D01*
X221817520Y-77895357D02*
X221998949Y-77834881D01*
X221998949Y-77834881D02*
X222059425Y-77774404D01*
X222059425Y-77774404D02*
X222059425Y-77351071D01*
X222059425Y-77351071D02*
X221817520Y-77351071D01*
X223147996Y-77048690D02*
X223147996Y-77895357D01*
X222845615Y-76564881D02*
X222543234Y-77472023D01*
X222543234Y-77472023D02*
X223329425Y-77472023D01*
X204154663Y-51274318D02*
X203731329Y-50669556D01*
X203428948Y-51274318D02*
X203428948Y-50004318D01*
X203428948Y-50004318D02*
X203912758Y-50004318D01*
X203912758Y-50004318D02*
X204033710Y-50064794D01*
X204033710Y-50064794D02*
X204094187Y-50125270D01*
X204094187Y-50125270D02*
X204154663Y-50246222D01*
X204154663Y-50246222D02*
X204154663Y-50427651D01*
X204154663Y-50427651D02*
X204094187Y-50548603D01*
X204094187Y-50548603D02*
X204033710Y-50609080D01*
X204033710Y-50609080D02*
X203912758Y-50669556D01*
X203912758Y-50669556D02*
X203428948Y-50669556D01*
X205364187Y-51274318D02*
X204638472Y-51274318D01*
X205001329Y-51274318D02*
X205001329Y-50004318D01*
X205001329Y-50004318D02*
X204880377Y-50185746D01*
X204880377Y-50185746D02*
X204759425Y-50306699D01*
X204759425Y-50306699D02*
X204638472Y-50367175D01*
X206452758Y-50427651D02*
X206452758Y-51274318D01*
X206150377Y-49943842D02*
X205847996Y-50850984D01*
X205847996Y-50850984D02*
X206634187Y-50850984D01*
D10*
X170733333Y-77609580D02*
X170685714Y-77657200D01*
X170685714Y-77657200D02*
X170542857Y-77704819D01*
X170542857Y-77704819D02*
X170447619Y-77704819D01*
X170447619Y-77704819D02*
X170304762Y-77657200D01*
X170304762Y-77657200D02*
X170209524Y-77561961D01*
X170209524Y-77561961D02*
X170161905Y-77466723D01*
X170161905Y-77466723D02*
X170114286Y-77276247D01*
X170114286Y-77276247D02*
X170114286Y-77133390D01*
X170114286Y-77133390D02*
X170161905Y-76942914D01*
X170161905Y-76942914D02*
X170209524Y-76847676D01*
X170209524Y-76847676D02*
X170304762Y-76752438D01*
X170304762Y-76752438D02*
X170447619Y-76704819D01*
X170447619Y-76704819D02*
X170542857Y-76704819D01*
X170542857Y-76704819D02*
X170685714Y-76752438D01*
X170685714Y-76752438D02*
X170733333Y-76800057D01*
X171590476Y-77038152D02*
X171590476Y-77704819D01*
X171352381Y-76657200D02*
X171114286Y-77371485D01*
X171114286Y-77371485D02*
X171733333Y-77371485D01*
X182675911Y-61061904D02*
X181675911Y-61061904D01*
X181675911Y-61061904D02*
X181675911Y-60823809D01*
X181675911Y-60823809D02*
X181723530Y-60680952D01*
X181723530Y-60680952D02*
X181818768Y-60585714D01*
X181818768Y-60585714D02*
X181914006Y-60538095D01*
X181914006Y-60538095D02*
X182104482Y-60490476D01*
X182104482Y-60490476D02*
X182247339Y-60490476D01*
X182247339Y-60490476D02*
X182437815Y-60538095D01*
X182437815Y-60538095D02*
X182533053Y-60585714D01*
X182533053Y-60585714D02*
X182628292Y-60680952D01*
X182628292Y-60680952D02*
X182675911Y-60823809D01*
X182675911Y-60823809D02*
X182675911Y-61061904D01*
X181675911Y-60061904D02*
X182485434Y-60061904D01*
X182485434Y-60061904D02*
X182580672Y-60014285D01*
X182580672Y-60014285D02*
X182628292Y-59966666D01*
X182628292Y-59966666D02*
X182675911Y-59871428D01*
X182675911Y-59871428D02*
X182675911Y-59680952D01*
X182675911Y-59680952D02*
X182628292Y-59585714D01*
X182628292Y-59585714D02*
X182580672Y-59538095D01*
X182580672Y-59538095D02*
X182485434Y-59490476D01*
X182485434Y-59490476D02*
X181675911Y-59490476D01*
X182675911Y-58490476D02*
X182675911Y-59061904D01*
X182675911Y-58776190D02*
X181675911Y-58776190D01*
X181675911Y-58776190D02*
X181818768Y-58871428D01*
X181818768Y-58871428D02*
X181914006Y-58966666D01*
X181914006Y-58966666D02*
X181961625Y-59061904D01*
X233209187Y-40556819D02*
X233780615Y-40556819D01*
X233494901Y-41556819D02*
X233494901Y-40556819D01*
X234113949Y-41556819D02*
X234113949Y-40556819D01*
X234113949Y-40556819D02*
X234494901Y-40556819D01*
X234494901Y-40556819D02*
X234590139Y-40604438D01*
X234590139Y-40604438D02*
X234637758Y-40652057D01*
X234637758Y-40652057D02*
X234685377Y-40747295D01*
X234685377Y-40747295D02*
X234685377Y-40890152D01*
X234685377Y-40890152D02*
X234637758Y-40985390D01*
X234637758Y-40985390D02*
X234590139Y-41033009D01*
X234590139Y-41033009D02*
X234494901Y-41080628D01*
X234494901Y-41080628D02*
X234113949Y-41080628D01*
X235018711Y-40556819D02*
X235685377Y-40556819D01*
X235685377Y-40556819D02*
X235256806Y-41556819D01*
D13*
X177154663Y-70574318D02*
X176731329Y-69969556D01*
X176428948Y-70574318D02*
X176428948Y-69304318D01*
X176428948Y-69304318D02*
X176912758Y-69304318D01*
X176912758Y-69304318D02*
X177033710Y-69364794D01*
X177033710Y-69364794D02*
X177094187Y-69425270D01*
X177094187Y-69425270D02*
X177154663Y-69546222D01*
X177154663Y-69546222D02*
X177154663Y-69727651D01*
X177154663Y-69727651D02*
X177094187Y-69848603D01*
X177094187Y-69848603D02*
X177033710Y-69909080D01*
X177033710Y-69909080D02*
X176912758Y-69969556D01*
X176912758Y-69969556D02*
X176428948Y-69969556D01*
X178364187Y-70574318D02*
X177638472Y-70574318D01*
X178001329Y-70574318D02*
X178001329Y-69304318D01*
X178001329Y-69304318D02*
X177880377Y-69485746D01*
X177880377Y-69485746D02*
X177759425Y-69606699D01*
X177759425Y-69606699D02*
X177638472Y-69667175D01*
X179089901Y-69848603D02*
X178968949Y-69788127D01*
X178968949Y-69788127D02*
X178908472Y-69727651D01*
X178908472Y-69727651D02*
X178847996Y-69606699D01*
X178847996Y-69606699D02*
X178847996Y-69546222D01*
X178847996Y-69546222D02*
X178908472Y-69425270D01*
X178908472Y-69425270D02*
X178968949Y-69364794D01*
X178968949Y-69364794D02*
X179089901Y-69304318D01*
X179089901Y-69304318D02*
X179331806Y-69304318D01*
X179331806Y-69304318D02*
X179452758Y-69364794D01*
X179452758Y-69364794D02*
X179513234Y-69425270D01*
X179513234Y-69425270D02*
X179573711Y-69546222D01*
X179573711Y-69546222D02*
X179573711Y-69606699D01*
X179573711Y-69606699D02*
X179513234Y-69727651D01*
X179513234Y-69727651D02*
X179452758Y-69788127D01*
X179452758Y-69788127D02*
X179331806Y-69848603D01*
X179331806Y-69848603D02*
X179089901Y-69848603D01*
X179089901Y-69848603D02*
X178968949Y-69909080D01*
X178968949Y-69909080D02*
X178908472Y-69969556D01*
X178908472Y-69969556D02*
X178847996Y-70090508D01*
X178847996Y-70090508D02*
X178847996Y-70332413D01*
X178847996Y-70332413D02*
X178908472Y-70453365D01*
X178908472Y-70453365D02*
X178968949Y-70513842D01*
X178968949Y-70513842D02*
X179089901Y-70574318D01*
X179089901Y-70574318D02*
X179331806Y-70574318D01*
X179331806Y-70574318D02*
X179452758Y-70513842D01*
X179452758Y-70513842D02*
X179513234Y-70453365D01*
X179513234Y-70453365D02*
X179573711Y-70332413D01*
X179573711Y-70332413D02*
X179573711Y-70090508D01*
X179573711Y-70090508D02*
X179513234Y-69969556D01*
X179513234Y-69969556D02*
X179452758Y-69909080D01*
X179452758Y-69909080D02*
X179331806Y-69848603D01*
D10*
X207609187Y-42956819D02*
X208180615Y-42956819D01*
X207894901Y-43956819D02*
X207894901Y-42956819D01*
X208513949Y-43956819D02*
X208513949Y-42956819D01*
X208513949Y-42956819D02*
X208894901Y-42956819D01*
X208894901Y-42956819D02*
X208990139Y-43004438D01*
X208990139Y-43004438D02*
X209037758Y-43052057D01*
X209037758Y-43052057D02*
X209085377Y-43147295D01*
X209085377Y-43147295D02*
X209085377Y-43290152D01*
X209085377Y-43290152D02*
X209037758Y-43385390D01*
X209037758Y-43385390D02*
X208990139Y-43433009D01*
X208990139Y-43433009D02*
X208894901Y-43480628D01*
X208894901Y-43480628D02*
X208513949Y-43480628D01*
X209942520Y-42956819D02*
X209752044Y-42956819D01*
X209752044Y-42956819D02*
X209656806Y-43004438D01*
X209656806Y-43004438D02*
X209609187Y-43052057D01*
X209609187Y-43052057D02*
X209513949Y-43194914D01*
X209513949Y-43194914D02*
X209466330Y-43385390D01*
X209466330Y-43385390D02*
X209466330Y-43766342D01*
X209466330Y-43766342D02*
X209513949Y-43861580D01*
X209513949Y-43861580D02*
X209561568Y-43909200D01*
X209561568Y-43909200D02*
X209656806Y-43956819D01*
X209656806Y-43956819D02*
X209847282Y-43956819D01*
X209847282Y-43956819D02*
X209942520Y-43909200D01*
X209942520Y-43909200D02*
X209990139Y-43861580D01*
X209990139Y-43861580D02*
X210037758Y-43766342D01*
X210037758Y-43766342D02*
X210037758Y-43528247D01*
X210037758Y-43528247D02*
X209990139Y-43433009D01*
X209990139Y-43433009D02*
X209942520Y-43385390D01*
X209942520Y-43385390D02*
X209847282Y-43337771D01*
X209847282Y-43337771D02*
X209656806Y-43337771D01*
X209656806Y-43337771D02*
X209561568Y-43385390D01*
X209561568Y-43385390D02*
X209513949Y-43433009D01*
X209513949Y-43433009D02*
X209466330Y-43528247D01*
X227433333Y-84359580D02*
X227385714Y-84407200D01*
X227385714Y-84407200D02*
X227242857Y-84454819D01*
X227242857Y-84454819D02*
X227147619Y-84454819D01*
X227147619Y-84454819D02*
X227004762Y-84407200D01*
X227004762Y-84407200D02*
X226909524Y-84311961D01*
X226909524Y-84311961D02*
X226861905Y-84216723D01*
X226861905Y-84216723D02*
X226814286Y-84026247D01*
X226814286Y-84026247D02*
X226814286Y-83883390D01*
X226814286Y-83883390D02*
X226861905Y-83692914D01*
X226861905Y-83692914D02*
X226909524Y-83597676D01*
X226909524Y-83597676D02*
X227004762Y-83502438D01*
X227004762Y-83502438D02*
X227147619Y-83454819D01*
X227147619Y-83454819D02*
X227242857Y-83454819D01*
X227242857Y-83454819D02*
X227385714Y-83502438D01*
X227385714Y-83502438D02*
X227433333Y-83550057D01*
X228338095Y-83454819D02*
X227861905Y-83454819D01*
X227861905Y-83454819D02*
X227814286Y-83931009D01*
X227814286Y-83931009D02*
X227861905Y-83883390D01*
X227861905Y-83883390D02*
X227957143Y-83835771D01*
X227957143Y-83835771D02*
X228195238Y-83835771D01*
X228195238Y-83835771D02*
X228290476Y-83883390D01*
X228290476Y-83883390D02*
X228338095Y-83931009D01*
X228338095Y-83931009D02*
X228385714Y-84026247D01*
X228385714Y-84026247D02*
X228385714Y-84264342D01*
X228385714Y-84264342D02*
X228338095Y-84359580D01*
X228338095Y-84359580D02*
X228290476Y-84407200D01*
X228290476Y-84407200D02*
X228195238Y-84454819D01*
X228195238Y-84454819D02*
X227957143Y-84454819D01*
X227957143Y-84454819D02*
X227861905Y-84407200D01*
X227861905Y-84407200D02*
X227814286Y-84359580D01*
D13*
X209679685Y-67486212D02*
X209619209Y-67607165D01*
X209619209Y-67607165D02*
X209619209Y-67788593D01*
X209619209Y-67788593D02*
X209679685Y-67970022D01*
X209679685Y-67970022D02*
X209800637Y-68090974D01*
X209800637Y-68090974D02*
X209921590Y-68151451D01*
X209921590Y-68151451D02*
X210163494Y-68211927D01*
X210163494Y-68211927D02*
X210344923Y-68211927D01*
X210344923Y-68211927D02*
X210586828Y-68151451D01*
X210586828Y-68151451D02*
X210707780Y-68090974D01*
X210707780Y-68090974D02*
X210828733Y-67970022D01*
X210828733Y-67970022D02*
X210889209Y-67788593D01*
X210889209Y-67788593D02*
X210889209Y-67667641D01*
X210889209Y-67667641D02*
X210828733Y-67486212D01*
X210828733Y-67486212D02*
X210768256Y-67425736D01*
X210768256Y-67425736D02*
X210344923Y-67425736D01*
X210344923Y-67425736D02*
X210344923Y-67667641D01*
X209619209Y-66276689D02*
X209619209Y-66881451D01*
X209619209Y-66881451D02*
X210223971Y-66941927D01*
X210223971Y-66941927D02*
X210163494Y-66881451D01*
X210163494Y-66881451D02*
X210103018Y-66760498D01*
X210103018Y-66760498D02*
X210103018Y-66458117D01*
X210103018Y-66458117D02*
X210163494Y-66337165D01*
X210163494Y-66337165D02*
X210223971Y-66276689D01*
X210223971Y-66276689D02*
X210344923Y-66216212D01*
X210344923Y-66216212D02*
X210647304Y-66216212D01*
X210647304Y-66216212D02*
X210768256Y-66276689D01*
X210768256Y-66276689D02*
X210828733Y-66337165D01*
X210828733Y-66337165D02*
X210889209Y-66458117D01*
X210889209Y-66458117D02*
X210889209Y-66760498D01*
X210889209Y-66760498D02*
X210828733Y-66881451D01*
X210828733Y-66881451D02*
X210768256Y-66941927D01*
X205154663Y-70674318D02*
X204731329Y-70069556D01*
X204428948Y-70674318D02*
X204428948Y-69404318D01*
X204428948Y-69404318D02*
X204912758Y-69404318D01*
X204912758Y-69404318D02*
X205033710Y-69464794D01*
X205033710Y-69464794D02*
X205094187Y-69525270D01*
X205094187Y-69525270D02*
X205154663Y-69646222D01*
X205154663Y-69646222D02*
X205154663Y-69827651D01*
X205154663Y-69827651D02*
X205094187Y-69948603D01*
X205094187Y-69948603D02*
X205033710Y-70009080D01*
X205033710Y-70009080D02*
X204912758Y-70069556D01*
X204912758Y-70069556D02*
X204428948Y-70069556D01*
X206364187Y-70674318D02*
X205638472Y-70674318D01*
X206001329Y-70674318D02*
X206001329Y-69404318D01*
X206001329Y-69404318D02*
X205880377Y-69585746D01*
X205880377Y-69585746D02*
X205759425Y-69706699D01*
X205759425Y-69706699D02*
X205638472Y-69767175D01*
X206847996Y-69525270D02*
X206908472Y-69464794D01*
X206908472Y-69464794D02*
X207029425Y-69404318D01*
X207029425Y-69404318D02*
X207331806Y-69404318D01*
X207331806Y-69404318D02*
X207452758Y-69464794D01*
X207452758Y-69464794D02*
X207513234Y-69525270D01*
X207513234Y-69525270D02*
X207573711Y-69646222D01*
X207573711Y-69646222D02*
X207573711Y-69767175D01*
X207573711Y-69767175D02*
X207513234Y-69948603D01*
X207513234Y-69948603D02*
X206787520Y-70674318D01*
X206787520Y-70674318D02*
X207573711Y-70674318D01*
D15*
X202130787Y-49276189D02*
X201749834Y-49542856D01*
X202130787Y-49733332D02*
X201330787Y-49733332D01*
X201330787Y-49733332D02*
X201330787Y-49428570D01*
X201330787Y-49428570D02*
X201368882Y-49352380D01*
X201368882Y-49352380D02*
X201406977Y-49314285D01*
X201406977Y-49314285D02*
X201483168Y-49276189D01*
X201483168Y-49276189D02*
X201597453Y-49276189D01*
X201597453Y-49276189D02*
X201673644Y-49314285D01*
X201673644Y-49314285D02*
X201711739Y-49352380D01*
X201711739Y-49352380D02*
X201749834Y-49428570D01*
X201749834Y-49428570D02*
X201749834Y-49733332D01*
X201330787Y-49047618D02*
X202130787Y-48780951D01*
X202130787Y-48780951D02*
X201330787Y-48514285D01*
X201406977Y-48285714D02*
X201368882Y-48247618D01*
X201368882Y-48247618D02*
X201330787Y-48171428D01*
X201330787Y-48171428D02*
X201330787Y-47980952D01*
X201330787Y-47980952D02*
X201368882Y-47904761D01*
X201368882Y-47904761D02*
X201406977Y-47866666D01*
X201406977Y-47866666D02*
X201483168Y-47828571D01*
X201483168Y-47828571D02*
X201559358Y-47828571D01*
X201559358Y-47828571D02*
X201673644Y-47866666D01*
X201673644Y-47866666D02*
X202130787Y-48323809D01*
X202130787Y-48323809D02*
X202130787Y-47828571D01*
D13*
X231445410Y-66811666D02*
X230840648Y-67235000D01*
X231445410Y-67537381D02*
X230175410Y-67537381D01*
X230175410Y-67537381D02*
X230175410Y-67053571D01*
X230175410Y-67053571D02*
X230235886Y-66932619D01*
X230235886Y-66932619D02*
X230296362Y-66872142D01*
X230296362Y-66872142D02*
X230417314Y-66811666D01*
X230417314Y-66811666D02*
X230598743Y-66811666D01*
X230598743Y-66811666D02*
X230719695Y-66872142D01*
X230719695Y-66872142D02*
X230780172Y-66932619D01*
X230780172Y-66932619D02*
X230840648Y-67053571D01*
X230840648Y-67053571D02*
X230840648Y-67537381D01*
X230175410Y-66388333D02*
X230175410Y-65602142D01*
X230175410Y-65602142D02*
X230659219Y-66025476D01*
X230659219Y-66025476D02*
X230659219Y-65844047D01*
X230659219Y-65844047D02*
X230719695Y-65723095D01*
X230719695Y-65723095D02*
X230780172Y-65662619D01*
X230780172Y-65662619D02*
X230901124Y-65602142D01*
X230901124Y-65602142D02*
X231203505Y-65602142D01*
X231203505Y-65602142D02*
X231324457Y-65662619D01*
X231324457Y-65662619D02*
X231384934Y-65723095D01*
X231384934Y-65723095D02*
X231445410Y-65844047D01*
X231445410Y-65844047D02*
X231445410Y-66206904D01*
X231445410Y-66206904D02*
X231384934Y-66327857D01*
X231384934Y-66327857D02*
X231324457Y-66388333D01*
X215414847Y-78872142D02*
X215354371Y-78993095D01*
X215354371Y-78993095D02*
X215354371Y-79174523D01*
X215354371Y-79174523D02*
X215414847Y-79355952D01*
X215414847Y-79355952D02*
X215535799Y-79476904D01*
X215535799Y-79476904D02*
X215656752Y-79537381D01*
X215656752Y-79537381D02*
X215898656Y-79597857D01*
X215898656Y-79597857D02*
X216080085Y-79597857D01*
X216080085Y-79597857D02*
X216321990Y-79537381D01*
X216321990Y-79537381D02*
X216442942Y-79476904D01*
X216442942Y-79476904D02*
X216563895Y-79355952D01*
X216563895Y-79355952D02*
X216624371Y-79174523D01*
X216624371Y-79174523D02*
X216624371Y-79053571D01*
X216624371Y-79053571D02*
X216563895Y-78872142D01*
X216563895Y-78872142D02*
X216503418Y-78811666D01*
X216503418Y-78811666D02*
X216080085Y-78811666D01*
X216080085Y-78811666D02*
X216080085Y-79053571D01*
X215354371Y-77723095D02*
X215354371Y-77965000D01*
X215354371Y-77965000D02*
X215414847Y-78085952D01*
X215414847Y-78085952D02*
X215475323Y-78146428D01*
X215475323Y-78146428D02*
X215656752Y-78267381D01*
X215656752Y-78267381D02*
X215898656Y-78327857D01*
X215898656Y-78327857D02*
X216382466Y-78327857D01*
X216382466Y-78327857D02*
X216503418Y-78267381D01*
X216503418Y-78267381D02*
X216563895Y-78206904D01*
X216563895Y-78206904D02*
X216624371Y-78085952D01*
X216624371Y-78085952D02*
X216624371Y-77844047D01*
X216624371Y-77844047D02*
X216563895Y-77723095D01*
X216563895Y-77723095D02*
X216503418Y-77662619D01*
X216503418Y-77662619D02*
X216382466Y-77602142D01*
X216382466Y-77602142D02*
X216080085Y-77602142D01*
X216080085Y-77602142D02*
X215959133Y-77662619D01*
X215959133Y-77662619D02*
X215898656Y-77723095D01*
X215898656Y-77723095D02*
X215838180Y-77844047D01*
X215838180Y-77844047D02*
X215838180Y-78085952D01*
X215838180Y-78085952D02*
X215898656Y-78206904D01*
X215898656Y-78206904D02*
X215959133Y-78267381D01*
X215959133Y-78267381D02*
X216080085Y-78327857D01*
X183884425Y-45638365D02*
X183823949Y-45698842D01*
X183823949Y-45698842D02*
X183642520Y-45759318D01*
X183642520Y-45759318D02*
X183521568Y-45759318D01*
X183521568Y-45759318D02*
X183340139Y-45698842D01*
X183340139Y-45698842D02*
X183219187Y-45577889D01*
X183219187Y-45577889D02*
X183158710Y-45456937D01*
X183158710Y-45456937D02*
X183098234Y-45215032D01*
X183098234Y-45215032D02*
X183098234Y-45033603D01*
X183098234Y-45033603D02*
X183158710Y-44791699D01*
X183158710Y-44791699D02*
X183219187Y-44670746D01*
X183219187Y-44670746D02*
X183340139Y-44549794D01*
X183340139Y-44549794D02*
X183521568Y-44489318D01*
X183521568Y-44489318D02*
X183642520Y-44489318D01*
X183642520Y-44489318D02*
X183823949Y-44549794D01*
X183823949Y-44549794D02*
X183884425Y-44610270D01*
X184428710Y-45759318D02*
X184428710Y-44489318D01*
X184428710Y-44489318D02*
X184912520Y-44489318D01*
X184912520Y-44489318D02*
X185033472Y-44549794D01*
X185033472Y-44549794D02*
X185093949Y-44610270D01*
X185093949Y-44610270D02*
X185154425Y-44731222D01*
X185154425Y-44731222D02*
X185154425Y-44912651D01*
X185154425Y-44912651D02*
X185093949Y-45033603D01*
X185093949Y-45033603D02*
X185033472Y-45094080D01*
X185033472Y-45094080D02*
X184912520Y-45154556D01*
X184912520Y-45154556D02*
X184428710Y-45154556D01*
X186363949Y-45759318D02*
X185638234Y-45759318D01*
X186001091Y-45759318D02*
X186001091Y-44489318D01*
X186001091Y-44489318D02*
X185880139Y-44670746D01*
X185880139Y-44670746D02*
X185759187Y-44791699D01*
X185759187Y-44791699D02*
X185638234Y-44852175D01*
D10*
X175325911Y-67428333D02*
X176040196Y-67428333D01*
X176040196Y-67428333D02*
X176183053Y-67475952D01*
X176183053Y-67475952D02*
X176278292Y-67571190D01*
X176278292Y-67571190D02*
X176325911Y-67714047D01*
X176325911Y-67714047D02*
X176325911Y-67809285D01*
X175659244Y-66523571D02*
X176325911Y-66523571D01*
X175278292Y-66761666D02*
X175992577Y-66999761D01*
X175992577Y-66999761D02*
X175992577Y-66380714D01*
D15*
%TO.C,R10*%
X214471092Y-79200000D02*
X213071092Y-79200000D01*
D16*
%TO.C,TP2*%
X176700000Y-62400000D02*
G75*
G02*
X174300000Y-62400000I-1200000J0D01*
G01*
X174300000Y-62400000D02*
G75*
G02*
X176700000Y-62400000I1200000J0D01*
G01*
D17*
%TO.C,J3*%
X231471092Y-46565000D02*
X237821092Y-46565000D01*
X231471092Y-51495000D02*
X231471092Y-46565000D01*
X237821092Y-46565000D02*
X237821092Y-51495000D01*
X237821092Y-51495000D02*
X231471092Y-51495000D01*
D15*
X234821092Y-45760000D02*
G75*
G02*
X234621092Y-45760000I-100000J0D01*
G01*
X234621092Y-45760000D02*
G75*
G02*
X234821092Y-45760000I100000J0D01*
G01*
%TO.C,R13*%
X184945092Y-52100000D02*
X184945092Y-53500000D01*
%TO.C,R6*%
X196871092Y-79000000D02*
X196871092Y-80400000D01*
D13*
%TO.C,U2*%
X173382592Y-77274000D02*
X173382592Y-84824000D01*
X173382592Y-84824000D02*
X184882592Y-84824000D01*
X184882592Y-77274000D02*
X173382592Y-77274000D01*
X184882592Y-84824000D02*
X184882592Y-77274000D01*
X175777592Y-85437000D02*
G75*
G02*
X175599592Y-85437000I-89000J0D01*
G01*
X175599592Y-85437000D02*
G75*
G02*
X175777592Y-85437000I89000J0D01*
G01*
D16*
%TO.C,TP9*%
X205671092Y-45500000D02*
G75*
G02*
X203271092Y-45500000I-1200000J0D01*
G01*
X203271092Y-45500000D02*
G75*
G02*
X205671092Y-45500000I1200000J0D01*
G01*
D15*
%TO.C,R2*%
X236571092Y-61800000D02*
X236571092Y-63200000D01*
%TO.C,CP5*%
X193302000Y-53348000D02*
X196498000Y-53348000D01*
X193302000Y-58252000D02*
X193302000Y-53348000D01*
X196498000Y-53348000D02*
X196498000Y-58252000D01*
X196498000Y-58252000D02*
X193302000Y-58252000D01*
X198375000Y-58380000D02*
X196848000Y-58380000D01*
%TO.C,G1*%
X217571092Y-75175000D02*
X217571092Y-74025000D01*
X217621092Y-72925000D02*
X220521092Y-72925000D01*
X217621092Y-73675000D02*
X217621092Y-72925000D01*
X220521092Y-72925000D02*
X220521092Y-73675000D01*
X220521092Y-73675000D02*
X217621092Y-73675000D01*
%TO.C,R4*%
X232271092Y-72500000D02*
X233671092Y-72500000D01*
D16*
%TO.C,TP3*%
X236471092Y-57800000D02*
G75*
G02*
X234071092Y-57800000I-1200000J0D01*
G01*
X234071092Y-57800000D02*
G75*
G02*
X236471092Y-57800000I1200000J0D01*
G01*
D15*
%TO.C,R17*%
X178361092Y-51655000D02*
X179761092Y-51655000D01*
%TO.C,R15*%
X211271092Y-49500000D02*
X212671092Y-49500000D01*
%TO.C,R11*%
X183071092Y-65900000D02*
X183071092Y-67300000D01*
D16*
%TO.C,TP8*%
X213871092Y-54400000D02*
G75*
G02*
X211471092Y-54400000I-1200000J0D01*
G01*
X211471092Y-54400000D02*
G75*
G02*
X213871092Y-54400000I1200000J0D01*
G01*
D15*
%TO.C,Q1*%
X221471092Y-69400000D02*
X221471092Y-68100000D01*
X221511092Y-67650000D02*
X224431092Y-67650000D01*
X221511092Y-67750000D02*
X221511092Y-67650000D01*
X224431092Y-67650000D02*
X224431092Y-67750000D01*
X224431092Y-67750000D02*
X221511092Y-67750000D01*
D16*
%TO.C,TP1*%
X180671092Y-45000000D02*
G75*
G02*
X178271092Y-45000000I-1200000J0D01*
G01*
X178271092Y-45000000D02*
G75*
G02*
X180671092Y-45000000I1200000J0D01*
G01*
D15*
%TO.C,CP3*%
X227796092Y-68350000D02*
X228546092Y-68350000D01*
X227796092Y-71250000D02*
X227796092Y-68350000D01*
X228546092Y-68350000D02*
X228546092Y-71250000D01*
X228546092Y-71250000D02*
X227796092Y-71250000D01*
X230046092Y-71300000D02*
X228896092Y-71300000D01*
%TO.C,CP6*%
X191120092Y-60290000D02*
X192647092Y-60290000D01*
X192997092Y-60418000D02*
X196193092Y-60418000D01*
X192997092Y-65322000D02*
X192997092Y-60418000D01*
X196193092Y-60418000D02*
X196193092Y-65322000D01*
X196193092Y-65322000D02*
X192997092Y-65322000D01*
D16*
%TO.C,TP5*%
X202471092Y-76700000D02*
G75*
G02*
X200071092Y-76700000I-1200000J0D01*
G01*
X200071092Y-76700000D02*
G75*
G02*
X202471092Y-76700000I1200000J0D01*
G01*
D15*
%TO.C,LED1*%
X226471092Y-34460000D02*
X226471092Y-34460000D01*
X226471092Y-34460000D02*
X226471092Y-34460000D01*
X226471092Y-34560000D02*
X226471092Y-34560000D01*
D18*
X226471092Y-35265000D02*
X226471092Y-35265000D01*
X226471092Y-40195000D02*
X226471092Y-40195000D01*
D15*
X226471092Y-34460000D02*
G75*
G02*
X226471092Y-34560000I0J-50000D01*
G01*
X226471092Y-34560000D02*
G75*
G02*
X226471092Y-34460000I0J50000D01*
G01*
X226471092Y-34560000D02*
G75*
G02*
X226471092Y-34460000I0J50000D01*
G01*
D18*
X226471092Y-35265000D02*
G75*
G02*
X226471092Y-40195000I0J-2465000D01*
G01*
X226471092Y-40195000D02*
G75*
G02*
X226471092Y-35265000I0J2465000D01*
G01*
D16*
%TO.C,C1*%
X226771092Y-60683000D02*
X226771092Y-60117000D01*
X226811092Y-60917000D02*
X226811092Y-59883000D01*
X226851092Y-61077000D02*
X226851092Y-59723000D01*
X226891092Y-61205000D02*
X226891092Y-59595000D01*
X226931092Y-61314000D02*
X226931092Y-59486000D01*
X226971092Y-61411000D02*
X226971092Y-59389000D01*
X227011092Y-61498000D02*
X227011092Y-59302000D01*
X227051092Y-61577000D02*
X227051092Y-59223000D01*
X227091092Y-61651000D02*
X227091092Y-59149000D01*
X227131092Y-61719000D02*
X227131092Y-59081000D01*
X227171092Y-61783000D02*
X227171092Y-59017000D01*
X227211092Y-61843000D02*
X227211092Y-58957000D01*
X227251092Y-61899000D02*
X227251092Y-58901000D01*
X227291092Y-61953000D02*
X227291092Y-58847000D01*
X227331092Y-62004000D02*
X227331092Y-58796000D01*
X227371092Y-59360000D02*
X227371092Y-58748000D01*
X227371092Y-62052000D02*
X227371092Y-61440000D01*
X227411092Y-59360000D02*
X227411092Y-58701000D01*
X227411092Y-62099000D02*
X227411092Y-61440000D01*
X227451092Y-59360000D02*
X227451092Y-58657000D01*
X227451092Y-62143000D02*
X227451092Y-61440000D01*
X227491092Y-59360000D02*
X227491092Y-58615000D01*
X227491092Y-62185000D02*
X227491092Y-61440000D01*
X227531092Y-59360000D02*
X227531092Y-58575000D01*
X227531092Y-62225000D02*
X227531092Y-61440000D01*
X227571092Y-59360000D02*
X227571092Y-58536000D01*
X227571092Y-62264000D02*
X227571092Y-61440000D01*
X227611092Y-59360000D02*
X227611092Y-58499000D01*
X227611092Y-62301000D02*
X227611092Y-61440000D01*
X227651092Y-59360000D02*
X227651092Y-58464000D01*
X227651092Y-62336000D02*
X227651092Y-61440000D01*
X227691092Y-59360000D02*
X227691092Y-58430000D01*
X227691092Y-62370000D02*
X227691092Y-61440000D01*
X227731092Y-59360000D02*
X227731092Y-58397000D01*
X227731092Y-62403000D02*
X227731092Y-61440000D01*
X227771092Y-59360000D02*
X227771092Y-58365000D01*
X227771092Y-62435000D02*
X227771092Y-61440000D01*
X227811092Y-59360000D02*
X227811092Y-58335000D01*
X227811092Y-62465000D02*
X227811092Y-61440000D01*
X227851092Y-59360000D02*
X227851092Y-58306000D01*
X227851092Y-62494000D02*
X227851092Y-61440000D01*
X227891092Y-59360000D02*
X227891092Y-58278000D01*
X227891092Y-62522000D02*
X227891092Y-61440000D01*
X227931092Y-59360000D02*
X227931092Y-58251000D01*
X227931092Y-62549000D02*
X227931092Y-61440000D01*
X227971092Y-59360000D02*
X227971092Y-58225000D01*
X227971092Y-62575000D02*
X227971092Y-61440000D01*
X228011092Y-59360000D02*
X228011092Y-58201000D01*
X228011092Y-62599000D02*
X228011092Y-61440000D01*
X228051092Y-59360000D02*
X228051092Y-58177000D01*
X228051092Y-62623000D02*
X228051092Y-61440000D01*
X228091092Y-59360000D02*
X228091092Y-58154000D01*
X228091092Y-62646000D02*
X228091092Y-61440000D01*
X228131092Y-59360000D02*
X228131092Y-58132000D01*
X228131092Y-62668000D02*
X228131092Y-61440000D01*
X228171092Y-59360000D02*
X228171092Y-58111000D01*
X228171092Y-62689000D02*
X228171092Y-61440000D01*
X228211092Y-59360000D02*
X228211092Y-58091000D01*
X228211092Y-62709000D02*
X228211092Y-61440000D01*
X228251092Y-59360000D02*
X228251092Y-58071000D01*
X228251092Y-62729000D02*
X228251092Y-61440000D01*
X228291092Y-59360000D02*
X228291092Y-58053000D01*
X228291092Y-62747000D02*
X228291092Y-61440000D01*
X228331092Y-59360000D02*
X228331092Y-58035000D01*
X228331092Y-62765000D02*
X228331092Y-61440000D01*
X228371092Y-59360000D02*
X228371092Y-58018000D01*
X228371092Y-62782000D02*
X228371092Y-61440000D01*
X228411092Y-59360000D02*
X228411092Y-58002000D01*
X228411092Y-62798000D02*
X228411092Y-61440000D01*
X228451092Y-59360000D02*
X228451092Y-57987000D01*
X228451092Y-62813000D02*
X228451092Y-61440000D01*
X228491092Y-59360000D02*
X228491092Y-57972000D01*
X228491092Y-62828000D02*
X228491092Y-61440000D01*
X228531092Y-59360000D02*
X228531092Y-57958000D01*
X228531092Y-62842000D02*
X228531092Y-61440000D01*
X228571092Y-59360000D02*
X228571092Y-57945000D01*
X228571092Y-62855000D02*
X228571092Y-61440000D01*
X228611092Y-59360000D02*
X228611092Y-57933000D01*
X228611092Y-62867000D02*
X228611092Y-61440000D01*
X228651092Y-59360000D02*
X228651092Y-57921000D01*
X228651092Y-62879000D02*
X228651092Y-61440000D01*
X228691092Y-59360000D02*
X228691092Y-57910000D01*
X228691092Y-62890000D02*
X228691092Y-61440000D01*
X228731092Y-59360000D02*
X228731092Y-57899000D01*
X228731092Y-62901000D02*
X228731092Y-61440000D01*
X228771092Y-59360000D02*
X228771092Y-57890000D01*
X228771092Y-62910000D02*
X228771092Y-61440000D01*
X228811092Y-59360000D02*
X228811092Y-57881000D01*
X228811092Y-62919000D02*
X228811092Y-61440000D01*
X228851092Y-59360000D02*
X228851092Y-57872000D01*
X228851092Y-62928000D02*
X228851092Y-61440000D01*
X228891092Y-59360000D02*
X228891092Y-57864000D01*
X228891092Y-62936000D02*
X228891092Y-61440000D01*
X228931092Y-59360000D02*
X228931092Y-57857000D01*
X228931092Y-62943000D02*
X228931092Y-61440000D01*
X228971092Y-59360000D02*
X228971092Y-57851000D01*
X228971092Y-62949000D02*
X228971092Y-61440000D01*
X229011092Y-59360000D02*
X229011092Y-57845000D01*
X229011092Y-62955000D02*
X229011092Y-61440000D01*
X229051092Y-59360000D02*
X229051092Y-57840000D01*
X229051092Y-62960000D02*
X229051092Y-61440000D01*
X229091092Y-59360000D02*
X229091092Y-57835000D01*
X229091092Y-62965000D02*
X229091092Y-61440000D01*
X229131092Y-59360000D02*
X229131092Y-57831000D01*
X229131092Y-62969000D02*
X229131092Y-61440000D01*
X229171092Y-59360000D02*
X229171092Y-57828000D01*
X229171092Y-62972000D02*
X229171092Y-61440000D01*
X229211092Y-59360000D02*
X229211092Y-57825000D01*
X229211092Y-62975000D02*
X229211092Y-61440000D01*
X229251092Y-59360000D02*
X229251092Y-57823000D01*
X229251092Y-62977000D02*
X229251092Y-61440000D01*
X229291092Y-59360000D02*
X229291092Y-57821000D01*
X229291092Y-62979000D02*
X229291092Y-61440000D01*
X229331092Y-59360000D02*
X229331092Y-57820000D01*
X229331092Y-62980000D02*
X229331092Y-61440000D01*
X229371092Y-59360000D02*
X229371092Y-57820000D01*
X229371092Y-62980000D02*
X229371092Y-61440000D01*
X231925867Y-62125000D02*
X231925867Y-61625000D01*
X232175867Y-61875000D02*
X231675867Y-61875000D01*
X231991092Y-60400000D02*
G75*
G02*
X226751092Y-60400000I-2620000J0D01*
G01*
X226751092Y-60400000D02*
G75*
G02*
X231991092Y-60400000I2620000J0D01*
G01*
D18*
%TO.C,RV1*%
X189131092Y-72640000D02*
X189131092Y-72640000D01*
X189231092Y-72640000D02*
X189231092Y-72640000D01*
D15*
X189706092Y-68950000D02*
X189706092Y-73780000D01*
X189706092Y-73780000D02*
X199236092Y-73780000D01*
X199236092Y-68950000D02*
X189706092Y-68950000D01*
X199236092Y-73780000D02*
X199236092Y-68950000D01*
D18*
X189131092Y-72640000D02*
G75*
G02*
X189231092Y-72640000I50000J0D01*
G01*
X189231092Y-72640000D02*
G75*
G02*
X189131092Y-72640000I-50000J0D01*
G01*
D15*
%TO.C,R5*%
X216371092Y-59600000D02*
X216371092Y-58200000D01*
%TO.C,G7*%
X207096092Y-56300000D02*
X208246092Y-56300000D01*
X208596092Y-56350000D02*
X209346092Y-56350000D01*
X208596092Y-59250000D02*
X208596092Y-56350000D01*
X209346092Y-56350000D02*
X209346092Y-59250000D01*
X209346092Y-59250000D02*
X208596092Y-59250000D01*
%TO.C,R8*%
X204821092Y-74300000D02*
X204821092Y-72900000D01*
%TO.C,R16*%
X208471092Y-63200000D02*
X208471092Y-61800000D01*
%TO.C,G3*%
X188096092Y-77800000D02*
X189246092Y-77800000D01*
X189596092Y-77850000D02*
X190346092Y-77850000D01*
X189596092Y-80750000D02*
X189596092Y-77850000D01*
X190346092Y-77850000D02*
X190346092Y-80750000D01*
X190346092Y-80750000D02*
X189596092Y-80750000D01*
%TO.C,CP4*%
X207796092Y-78400000D02*
X208546092Y-78400000D01*
X207796092Y-81300000D02*
X207796092Y-78400000D01*
X208546092Y-78400000D02*
X208546092Y-81300000D01*
X208546092Y-81300000D02*
X207796092Y-81300000D01*
X210046092Y-81350000D02*
X208896092Y-81350000D01*
%TO.C,G2*%
X216571092Y-65575000D02*
X216571092Y-64425000D01*
X216621092Y-63325000D02*
X219521092Y-63325000D01*
X216621092Y-64075000D02*
X216621092Y-63325000D01*
X219521092Y-63325000D02*
X219521092Y-64075000D01*
X219521092Y-64075000D02*
X216621092Y-64075000D01*
%TO.C,R1*%
X224471092Y-62100000D02*
X223071092Y-62100000D01*
D18*
%TO.C,K2*%
X219471092Y-43500000D02*
X219471092Y-43500000D01*
X219471092Y-43600000D02*
X219471092Y-43600000D01*
X220696092Y-43414000D02*
X227046092Y-43414000D01*
X220696092Y-47986000D02*
X220696092Y-43414000D01*
X227046092Y-43414000D02*
X227046092Y-47986000D01*
X227046092Y-47986000D02*
X220696092Y-47986000D01*
X219471092Y-43500000D02*
G75*
G02*
X219471092Y-43600000I0J-50000D01*
G01*
X219471092Y-43600000D02*
G75*
G02*
X219471092Y-43500000I0J50000D01*
G01*
D15*
%TO.C,LED5*%
X202271092Y-34460000D02*
X202271092Y-34460000D01*
X202271092Y-34460000D02*
X202271092Y-34460000D01*
X202271092Y-34560000D02*
X202271092Y-34560000D01*
D18*
X202271092Y-35265000D02*
X202271092Y-35265000D01*
X202271092Y-40195000D02*
X202271092Y-40195000D01*
D15*
X202271092Y-34460000D02*
G75*
G02*
X202271092Y-34560000I0J-50000D01*
G01*
X202271092Y-34560000D02*
G75*
G02*
X202271092Y-34460000I0J50000D01*
G01*
X202271092Y-34560000D02*
G75*
G02*
X202271092Y-34460000I0J50000D01*
G01*
D18*
X202271092Y-35265000D02*
G75*
G02*
X202271092Y-40195000I0J-2465000D01*
G01*
X202271092Y-40195000D02*
G75*
G02*
X202271092Y-35265000I0J2465000D01*
G01*
D15*
%TO.C,CP2*%
X184096092Y-70150000D02*
X184846092Y-70150000D01*
X184096092Y-73050000D02*
X184096092Y-70150000D01*
X184846092Y-70150000D02*
X184846092Y-73050000D01*
X184846092Y-73050000D02*
X184096092Y-73050000D01*
X186346092Y-73100000D02*
X185196092Y-73100000D01*
D17*
%TO.C,J1*%
X168196092Y-52935000D02*
X168196092Y-60405000D01*
X168196092Y-60405000D02*
X174546092Y-60405000D01*
X174546092Y-52935000D02*
X168196092Y-52935000D01*
X174546092Y-60405000D02*
X174546092Y-52935000D01*
D15*
X171296092Y-60970000D02*
G75*
G02*
X171096092Y-60970000I-100000J0D01*
G01*
X171096092Y-60970000D02*
G75*
G02*
X171296092Y-60970000I100000J0D01*
G01*
D18*
%TO.C,K1*%
X219421092Y-50800000D02*
X219421092Y-50800000D01*
X219421092Y-50900000D02*
X219421092Y-50900000D01*
X220646092Y-50714000D02*
X226996092Y-50714000D01*
X220646092Y-55286000D02*
X220646092Y-50714000D01*
X226996092Y-50714000D02*
X226996092Y-55286000D01*
X226996092Y-55286000D02*
X220646092Y-55286000D01*
X219421092Y-50800000D02*
G75*
G02*
X219421092Y-50900000I0J-50000D01*
G01*
X219421092Y-50900000D02*
G75*
G02*
X219421092Y-50800000I0J50000D01*
G01*
D15*
%TO.C,R7*%
X230071092Y-77900000D02*
X230071092Y-76500000D01*
D16*
%TO.C,TP4*%
X236571092Y-54500000D02*
G75*
G02*
X234171092Y-54500000I-1200000J0D01*
G01*
X234171092Y-54500000D02*
G75*
G02*
X236571092Y-54500000I1200000J0D01*
G01*
D15*
%TO.C,LED3*%
X193871092Y-34460000D02*
X193871092Y-34460000D01*
X193871092Y-34460000D02*
X193871092Y-34460000D01*
X193871092Y-34560000D02*
X193871092Y-34560000D01*
D18*
X193871092Y-35265000D02*
X193871092Y-35265000D01*
X193871092Y-40195000D02*
X193871092Y-40195000D01*
D15*
X193871092Y-34460000D02*
G75*
G02*
X193871092Y-34560000I0J-50000D01*
G01*
X193871092Y-34560000D02*
G75*
G02*
X193871092Y-34460000I0J50000D01*
G01*
X193871092Y-34560000D02*
G75*
G02*
X193871092Y-34460000I0J50000D01*
G01*
D18*
X193871092Y-35265000D02*
G75*
G02*
X193871092Y-40195000I0J-2465000D01*
G01*
X193871092Y-40195000D02*
G75*
G02*
X193871092Y-35265000I0J2465000D01*
G01*
D17*
%TO.C,J2*%
X168196092Y-43920000D02*
X168196092Y-51390000D01*
X168196092Y-51390000D02*
X174546092Y-51390000D01*
X174546092Y-43920000D02*
X168196092Y-43920000D01*
X174546092Y-51390000D02*
X174546092Y-43920000D01*
D15*
X171296092Y-51955000D02*
G75*
G02*
X171096092Y-51955000I-100000J0D01*
G01*
X171096092Y-51955000D02*
G75*
G02*
X171296092Y-51955000I100000J0D01*
G01*
%TO.C,R9*%
X211171092Y-74300000D02*
X211171092Y-72900000D01*
%TO.C,G4*%
X224496092Y-73750000D02*
X225246092Y-73750000D01*
X224496092Y-76650000D02*
X224496092Y-73750000D01*
X225246092Y-73750000D02*
X225246092Y-76650000D01*
X225246092Y-76650000D02*
X224496092Y-76650000D01*
X226746092Y-76700000D02*
X225596092Y-76700000D01*
%TO.C,R14*%
X205258092Y-52100000D02*
X205258092Y-53500000D01*
D16*
%TO.C,C4*%
X168300000Y-73783000D02*
X168300000Y-73217000D01*
X168340000Y-74017000D02*
X168340000Y-72983000D01*
X168380000Y-74177000D02*
X168380000Y-72823000D01*
X168420000Y-74305000D02*
X168420000Y-72695000D01*
X168460000Y-74414000D02*
X168460000Y-72586000D01*
X168500000Y-74511000D02*
X168500000Y-72489000D01*
X168540000Y-74598000D02*
X168540000Y-72402000D01*
X168580000Y-74677000D02*
X168580000Y-72323000D01*
X168620000Y-74751000D02*
X168620000Y-72249000D01*
X168660000Y-74819000D02*
X168660000Y-72181000D01*
X168700000Y-74883000D02*
X168700000Y-72117000D01*
X168740000Y-74943000D02*
X168740000Y-72057000D01*
X168780000Y-74999000D02*
X168780000Y-72001000D01*
X168820000Y-75053000D02*
X168820000Y-71947000D01*
X168860000Y-75104000D02*
X168860000Y-71896000D01*
X168900000Y-72460000D02*
X168900000Y-71848000D01*
X168900000Y-75152000D02*
X168900000Y-74540000D01*
X168940000Y-72460000D02*
X168940000Y-71801000D01*
X168940000Y-75199000D02*
X168940000Y-74540000D01*
X168980000Y-72460000D02*
X168980000Y-71757000D01*
X168980000Y-75243000D02*
X168980000Y-74540000D01*
X169020000Y-72460000D02*
X169020000Y-71715000D01*
X169020000Y-75285000D02*
X169020000Y-74540000D01*
X169060000Y-72460000D02*
X169060000Y-71675000D01*
X169060000Y-75325000D02*
X169060000Y-74540000D01*
X169100000Y-72460000D02*
X169100000Y-71636000D01*
X169100000Y-75364000D02*
X169100000Y-74540000D01*
X169140000Y-72460000D02*
X169140000Y-71599000D01*
X169140000Y-75401000D02*
X169140000Y-74540000D01*
X169180000Y-72460000D02*
X169180000Y-71564000D01*
X169180000Y-75436000D02*
X169180000Y-74540000D01*
X169220000Y-72460000D02*
X169220000Y-71530000D01*
X169220000Y-75470000D02*
X169220000Y-74540000D01*
X169260000Y-72460000D02*
X169260000Y-71497000D01*
X169260000Y-75503000D02*
X169260000Y-74540000D01*
X169300000Y-72460000D02*
X169300000Y-71465000D01*
X169300000Y-75535000D02*
X169300000Y-74540000D01*
X169340000Y-72460000D02*
X169340000Y-71435000D01*
X169340000Y-75565000D02*
X169340000Y-74540000D01*
X169380000Y-72460000D02*
X169380000Y-71406000D01*
X169380000Y-75594000D02*
X169380000Y-74540000D01*
X169420000Y-72460000D02*
X169420000Y-71378000D01*
X169420000Y-75622000D02*
X169420000Y-74540000D01*
X169460000Y-72460000D02*
X169460000Y-71351000D01*
X169460000Y-75649000D02*
X169460000Y-74540000D01*
X169500000Y-72460000D02*
X169500000Y-71325000D01*
X169500000Y-75675000D02*
X169500000Y-74540000D01*
X169540000Y-72460000D02*
X169540000Y-71301000D01*
X169540000Y-75699000D02*
X169540000Y-74540000D01*
X169580000Y-72460000D02*
X169580000Y-71277000D01*
X169580000Y-75723000D02*
X169580000Y-74540000D01*
X169620000Y-72460000D02*
X169620000Y-71254000D01*
X169620000Y-75746000D02*
X169620000Y-74540000D01*
X169660000Y-72460000D02*
X169660000Y-71232000D01*
X169660000Y-75768000D02*
X169660000Y-74540000D01*
X169700000Y-72460000D02*
X169700000Y-71211000D01*
X169700000Y-75789000D02*
X169700000Y-74540000D01*
X169740000Y-72460000D02*
X169740000Y-71191000D01*
X169740000Y-75809000D02*
X169740000Y-74540000D01*
X169780000Y-72460000D02*
X169780000Y-71171000D01*
X169780000Y-75829000D02*
X169780000Y-74540000D01*
X169820000Y-72460000D02*
X169820000Y-71153000D01*
X169820000Y-75847000D02*
X169820000Y-74540000D01*
X169860000Y-72460000D02*
X169860000Y-71135000D01*
X169860000Y-75865000D02*
X169860000Y-74540000D01*
X169900000Y-72460000D02*
X169900000Y-71118000D01*
X169900000Y-75882000D02*
X169900000Y-74540000D01*
X169940000Y-72460000D02*
X169940000Y-71102000D01*
X169940000Y-75898000D02*
X169940000Y-74540000D01*
X169980000Y-72460000D02*
X169980000Y-71087000D01*
X169980000Y-75913000D02*
X169980000Y-74540000D01*
X170020000Y-72460000D02*
X170020000Y-71072000D01*
X170020000Y-75928000D02*
X170020000Y-74540000D01*
X170060000Y-72460000D02*
X170060000Y-71058000D01*
X170060000Y-75942000D02*
X170060000Y-74540000D01*
X170100000Y-72460000D02*
X170100000Y-71045000D01*
X170100000Y-75955000D02*
X170100000Y-74540000D01*
X170140000Y-72460000D02*
X170140000Y-71033000D01*
X170140000Y-75967000D02*
X170140000Y-74540000D01*
X170180000Y-72460000D02*
X170180000Y-71021000D01*
X170180000Y-75979000D02*
X170180000Y-74540000D01*
X170220000Y-72460000D02*
X170220000Y-71010000D01*
X170220000Y-75990000D02*
X170220000Y-74540000D01*
X170260000Y-72460000D02*
X170260000Y-70999000D01*
X170260000Y-76001000D02*
X170260000Y-74540000D01*
X170300000Y-72460000D02*
X170300000Y-70990000D01*
X170300000Y-76010000D02*
X170300000Y-74540000D01*
X170340000Y-72460000D02*
X170340000Y-70981000D01*
X170340000Y-76019000D02*
X170340000Y-74540000D01*
X170380000Y-72460000D02*
X170380000Y-70972000D01*
X170380000Y-76028000D02*
X170380000Y-74540000D01*
X170420000Y-72460000D02*
X170420000Y-70964000D01*
X170420000Y-76036000D02*
X170420000Y-74540000D01*
X170460000Y-72460000D02*
X170460000Y-70957000D01*
X170460000Y-76043000D02*
X170460000Y-74540000D01*
X170500000Y-72460000D02*
X170500000Y-70951000D01*
X170500000Y-76049000D02*
X170500000Y-74540000D01*
X170540000Y-72460000D02*
X170540000Y-70945000D01*
X170540000Y-76055000D02*
X170540000Y-74540000D01*
X170580000Y-72460000D02*
X170580000Y-70940000D01*
X170580000Y-76060000D02*
X170580000Y-74540000D01*
X170620000Y-72460000D02*
X170620000Y-70935000D01*
X170620000Y-76065000D02*
X170620000Y-74540000D01*
X170660000Y-72460000D02*
X170660000Y-70931000D01*
X170660000Y-76069000D02*
X170660000Y-74540000D01*
X170700000Y-72460000D02*
X170700000Y-70928000D01*
X170700000Y-76072000D02*
X170700000Y-74540000D01*
X170740000Y-72460000D02*
X170740000Y-70925000D01*
X170740000Y-76075000D02*
X170740000Y-74540000D01*
X170780000Y-72460000D02*
X170780000Y-70923000D01*
X170780000Y-76077000D02*
X170780000Y-74540000D01*
X170820000Y-72460000D02*
X170820000Y-70921000D01*
X170820000Y-76079000D02*
X170820000Y-74540000D01*
X170860000Y-72460000D02*
X170860000Y-70920000D01*
X170860000Y-76080000D02*
X170860000Y-74540000D01*
X170900000Y-72460000D02*
X170900000Y-70920000D01*
X170900000Y-76080000D02*
X170900000Y-74540000D01*
X173454775Y-75225000D02*
X173454775Y-74725000D01*
X173704775Y-74975000D02*
X173204775Y-74975000D01*
X173520000Y-73500000D02*
G75*
G02*
X168280000Y-73500000I-2620000J0D01*
G01*
X168280000Y-73500000D02*
G75*
G02*
X173520000Y-73500000I2620000J0D01*
G01*
%TO.C,DU1*%
X183061092Y-59800000D02*
X183061092Y-57600000D01*
X183061092Y-59800000D02*
X183061092Y-62000000D01*
X186281092Y-59800000D02*
X186281092Y-57600000D01*
X186281092Y-59800000D02*
X186281092Y-62000000D01*
X183236092Y-62700000D02*
X182906092Y-62940000D01*
X182906092Y-62460000D01*
X183236092Y-62700000D01*
G36*
X183236092Y-62700000D02*
G01*
X182906092Y-62940000D01*
X182906092Y-62460000D01*
X183236092Y-62700000D01*
G37*
%TO.C,TP7*%
X235671092Y-43100000D02*
G75*
G02*
X233271092Y-43100000I-1200000J0D01*
G01*
X233271092Y-43100000D02*
G75*
G02*
X235671092Y-43100000I1200000J0D01*
G01*
D15*
%TO.C,LED2*%
X218371092Y-34460000D02*
X218371092Y-34460000D01*
X218371092Y-34460000D02*
X218371092Y-34460000D01*
X218371092Y-34560000D02*
X218371092Y-34560000D01*
D18*
X218371092Y-35265000D02*
X218371092Y-35265000D01*
X218371092Y-40195000D02*
X218371092Y-40195000D01*
D15*
X218371092Y-34460000D02*
G75*
G02*
X218371092Y-34560000I0J-50000D01*
G01*
X218371092Y-34560000D02*
G75*
G02*
X218371092Y-34460000I0J50000D01*
G01*
X218371092Y-34560000D02*
G75*
G02*
X218371092Y-34460000I0J50000D01*
G01*
D18*
X218371092Y-35265000D02*
G75*
G02*
X218371092Y-40195000I0J-2465000D01*
G01*
X218371092Y-40195000D02*
G75*
G02*
X218371092Y-35265000I0J2465000D01*
G01*
D15*
%TO.C,R18*%
X178871092Y-66700000D02*
X177471092Y-66700000D01*
D16*
%TO.C,TP6*%
X210071092Y-45500000D02*
G75*
G02*
X207671092Y-45500000I-1200000J0D01*
G01*
X207671092Y-45500000D02*
G75*
G02*
X210071092Y-45500000I1200000J0D01*
G01*
%TO.C,C5*%
X222426205Y-81583000D02*
X222426205Y-81017000D01*
X222466205Y-81817000D02*
X222466205Y-80783000D01*
X222506205Y-81977000D02*
X222506205Y-80623000D01*
X222546205Y-82105000D02*
X222546205Y-80495000D01*
X222586205Y-82214000D02*
X222586205Y-80386000D01*
X222626205Y-82311000D02*
X222626205Y-80289000D01*
X222666205Y-82398000D02*
X222666205Y-80202000D01*
X222706205Y-82477000D02*
X222706205Y-80123000D01*
X222746205Y-82551000D02*
X222746205Y-80049000D01*
X222786205Y-82619000D02*
X222786205Y-79981000D01*
X222826205Y-82683000D02*
X222826205Y-79917000D01*
X222866205Y-82743000D02*
X222866205Y-79857000D01*
X222906205Y-82799000D02*
X222906205Y-79801000D01*
X222946205Y-82853000D02*
X222946205Y-79747000D01*
X222986205Y-82904000D02*
X222986205Y-79696000D01*
X223026205Y-80260000D02*
X223026205Y-79648000D01*
X223026205Y-82952000D02*
X223026205Y-82340000D01*
X223066205Y-80260000D02*
X223066205Y-79601000D01*
X223066205Y-82999000D02*
X223066205Y-82340000D01*
X223106205Y-80260000D02*
X223106205Y-79557000D01*
X223106205Y-83043000D02*
X223106205Y-82340000D01*
X223146205Y-80260000D02*
X223146205Y-79515000D01*
X223146205Y-83085000D02*
X223146205Y-82340000D01*
X223186205Y-80260000D02*
X223186205Y-79475000D01*
X223186205Y-83125000D02*
X223186205Y-82340000D01*
X223226205Y-80260000D02*
X223226205Y-79436000D01*
X223226205Y-83164000D02*
X223226205Y-82340000D01*
X223266205Y-80260000D02*
X223266205Y-79399000D01*
X223266205Y-83201000D02*
X223266205Y-82340000D01*
X223306205Y-80260000D02*
X223306205Y-79364000D01*
X223306205Y-83236000D02*
X223306205Y-82340000D01*
X223346205Y-80260000D02*
X223346205Y-79330000D01*
X223346205Y-83270000D02*
X223346205Y-82340000D01*
X223386205Y-80260000D02*
X223386205Y-79297000D01*
X223386205Y-83303000D02*
X223386205Y-82340000D01*
X223426205Y-80260000D02*
X223426205Y-79265000D01*
X223426205Y-83335000D02*
X223426205Y-82340000D01*
X223466205Y-80260000D02*
X223466205Y-79235000D01*
X223466205Y-83365000D02*
X223466205Y-82340000D01*
X223506205Y-80260000D02*
X223506205Y-79206000D01*
X223506205Y-83394000D02*
X223506205Y-82340000D01*
X223546205Y-80260000D02*
X223546205Y-79178000D01*
X223546205Y-83422000D02*
X223546205Y-82340000D01*
X223586205Y-80260000D02*
X223586205Y-79151000D01*
X223586205Y-83449000D02*
X223586205Y-82340000D01*
X223626205Y-80260000D02*
X223626205Y-79125000D01*
X223626205Y-83475000D02*
X223626205Y-82340000D01*
X223666205Y-80260000D02*
X223666205Y-79101000D01*
X223666205Y-83499000D02*
X223666205Y-82340000D01*
X223706205Y-80260000D02*
X223706205Y-79077000D01*
X223706205Y-83523000D02*
X223706205Y-82340000D01*
X223746205Y-80260000D02*
X223746205Y-79054000D01*
X223746205Y-83546000D02*
X223746205Y-82340000D01*
X223786205Y-80260000D02*
X223786205Y-79032000D01*
X223786205Y-83568000D02*
X223786205Y-82340000D01*
X223826205Y-80260000D02*
X223826205Y-79011000D01*
X223826205Y-83589000D02*
X223826205Y-82340000D01*
X223866205Y-80260000D02*
X223866205Y-78991000D01*
X223866205Y-83609000D02*
X223866205Y-82340000D01*
X223906205Y-80260000D02*
X223906205Y-78971000D01*
X223906205Y-83629000D02*
X223906205Y-82340000D01*
X223946205Y-80260000D02*
X223946205Y-78953000D01*
X223946205Y-83647000D02*
X223946205Y-82340000D01*
X223986205Y-80260000D02*
X223986205Y-78935000D01*
X223986205Y-83665000D02*
X223986205Y-82340000D01*
X224026205Y-80260000D02*
X224026205Y-78918000D01*
X224026205Y-83682000D02*
X224026205Y-82340000D01*
X224066205Y-80260000D02*
X224066205Y-78902000D01*
X224066205Y-83698000D02*
X224066205Y-82340000D01*
X224106205Y-80260000D02*
X224106205Y-78887000D01*
X224106205Y-83713000D02*
X224106205Y-82340000D01*
X224146205Y-80260000D02*
X224146205Y-78872000D01*
X224146205Y-83728000D02*
X224146205Y-82340000D01*
X224186205Y-80260000D02*
X224186205Y-78858000D01*
X224186205Y-83742000D02*
X224186205Y-82340000D01*
X224226205Y-80260000D02*
X224226205Y-78845000D01*
X224226205Y-83755000D02*
X224226205Y-82340000D01*
X224266205Y-80260000D02*
X224266205Y-78833000D01*
X224266205Y-83767000D02*
X224266205Y-82340000D01*
X224306205Y-80260000D02*
X224306205Y-78821000D01*
X224306205Y-83779000D02*
X224306205Y-82340000D01*
X224346205Y-80260000D02*
X224346205Y-78810000D01*
X224346205Y-83790000D02*
X224346205Y-82340000D01*
X224386205Y-80260000D02*
X224386205Y-78799000D01*
X224386205Y-83801000D02*
X224386205Y-82340000D01*
X224426205Y-80260000D02*
X224426205Y-78790000D01*
X224426205Y-83810000D02*
X224426205Y-82340000D01*
X224466205Y-80260000D02*
X224466205Y-78781000D01*
X224466205Y-83819000D02*
X224466205Y-82340000D01*
X224506205Y-80260000D02*
X224506205Y-78772000D01*
X224506205Y-83828000D02*
X224506205Y-82340000D01*
X224546205Y-80260000D02*
X224546205Y-78764000D01*
X224546205Y-83836000D02*
X224546205Y-82340000D01*
X224586205Y-80260000D02*
X224586205Y-78757000D01*
X224586205Y-83843000D02*
X224586205Y-82340000D01*
X224626205Y-80260000D02*
X224626205Y-78751000D01*
X224626205Y-83849000D02*
X224626205Y-82340000D01*
X224666205Y-80260000D02*
X224666205Y-78745000D01*
X224666205Y-83855000D02*
X224666205Y-82340000D01*
X224706205Y-80260000D02*
X224706205Y-78740000D01*
X224706205Y-83860000D02*
X224706205Y-82340000D01*
X224746205Y-80260000D02*
X224746205Y-78735000D01*
X224746205Y-83865000D02*
X224746205Y-82340000D01*
X224786205Y-80260000D02*
X224786205Y-78731000D01*
X224786205Y-83869000D02*
X224786205Y-82340000D01*
X224826205Y-80260000D02*
X224826205Y-78728000D01*
X224826205Y-83872000D02*
X224826205Y-82340000D01*
X224866205Y-80260000D02*
X224866205Y-78725000D01*
X224866205Y-83875000D02*
X224866205Y-82340000D01*
X224906205Y-80260000D02*
X224906205Y-78723000D01*
X224906205Y-83877000D02*
X224906205Y-82340000D01*
X224946205Y-80260000D02*
X224946205Y-78721000D01*
X224946205Y-83879000D02*
X224946205Y-82340000D01*
X224986205Y-80260000D02*
X224986205Y-78720000D01*
X224986205Y-83880000D02*
X224986205Y-82340000D01*
X225026205Y-80260000D02*
X225026205Y-78720000D01*
X225026205Y-83880000D02*
X225026205Y-82340000D01*
X227580980Y-83025000D02*
X227580980Y-82525000D01*
X227830980Y-82775000D02*
X227330980Y-82775000D01*
X227646205Y-81300000D02*
G75*
G02*
X222406205Y-81300000I-2620000J0D01*
G01*
X222406205Y-81300000D02*
G75*
G02*
X227646205Y-81300000I2620000J0D01*
G01*
D15*
%TO.C,G5*%
X211635930Y-69089070D02*
X211635930Y-67939070D01*
X211685930Y-66839070D02*
X214585930Y-66839070D01*
X211685930Y-67589070D02*
X211685930Y-66839070D01*
X214585930Y-66839070D02*
X214585930Y-67589070D01*
X214585930Y-67589070D02*
X211685930Y-67589070D01*
%TO.C,R12*%
X205771092Y-67300000D02*
X205771092Y-68700000D01*
D18*
%TO.C,RV2*%
X189771092Y-49900000D02*
X189771092Y-49900000D01*
X189871092Y-49900000D02*
X189871092Y-49900000D01*
D15*
X190346092Y-46210000D02*
X190346092Y-51040000D01*
X190346092Y-51040000D02*
X199876092Y-51040000D01*
X199876092Y-46210000D02*
X190346092Y-46210000D01*
X199876092Y-51040000D02*
X199876092Y-46210000D01*
D18*
X189771092Y-49900000D02*
G75*
G02*
X189871092Y-49900000I50000J0D01*
G01*
X189871092Y-49900000D02*
G75*
G02*
X189771092Y-49900000I-50000J0D01*
G01*
D15*
%TO.C,R3*%
X232371092Y-67200000D02*
X233771092Y-67200000D01*
%TO.C,G6*%
X217371092Y-80475000D02*
X217371092Y-79325000D01*
X217421092Y-78225000D02*
X220321092Y-78225000D01*
X217421092Y-78975000D02*
X217421092Y-78225000D01*
X220321092Y-78225000D02*
X220321092Y-78975000D01*
X220321092Y-78975000D02*
X217421092Y-78975000D01*
%TO.C,LED4*%
X210371092Y-34460000D02*
X210371092Y-34460000D01*
X210371092Y-34460000D02*
X210371092Y-34460000D01*
X210371092Y-34560000D02*
X210371092Y-34560000D01*
D18*
X210371092Y-35265000D02*
X210371092Y-35265000D01*
X210371092Y-40195000D02*
X210371092Y-40195000D01*
D15*
X210371092Y-34460000D02*
G75*
G02*
X210371092Y-34560000I0J-50000D01*
G01*
X210371092Y-34560000D02*
G75*
G02*
X210371092Y-34460000I0J50000D01*
G01*
X210371092Y-34560000D02*
G75*
G02*
X210371092Y-34460000I0J50000D01*
G01*
D18*
X210371092Y-35265000D02*
G75*
G02*
X210371092Y-40195000I0J-2465000D01*
G01*
X210371092Y-40195000D02*
G75*
G02*
X210371092Y-35265000I0J2465000D01*
G01*
D15*
%TO.C,CP1*%
X184596092Y-46750000D02*
X185346092Y-46750000D01*
X184596092Y-49650000D02*
X184596092Y-46750000D01*
X185346092Y-46750000D02*
X185346092Y-49650000D01*
X185346092Y-49650000D02*
X184596092Y-49650000D01*
X186846092Y-49700000D02*
X185696092Y-49700000D01*
D17*
%TO.C,J4*%
X168196092Y-64265000D02*
X174546092Y-64265000D01*
X168196092Y-69195000D02*
X168196092Y-64265000D01*
X174546092Y-64265000D02*
X174546092Y-69195000D01*
X174546092Y-69195000D02*
X168196092Y-69195000D01*
D15*
X171396092Y-70000000D02*
G75*
G02*
X171196092Y-70000000I-100000J0D01*
G01*
X171196092Y-70000000D02*
G75*
G02*
X171396092Y-70000000I100000J0D01*
G01*
%TD*%
%LPC*%
D19*
%TO.C,R10*%
X213771092Y-77650000D03*
X213771092Y-80750000D03*
%TD*%
D20*
%TO.C,C2*%
X236871092Y-70520000D03*
X236871092Y-68880000D03*
%TD*%
D21*
%TO.C,TP2*%
X175500000Y-62400000D03*
%TD*%
D22*
%TO.C,J3*%
X234721092Y-47760000D03*
D23*
X234721092Y-50300000D03*
%TD*%
D24*
%TO.C,R13*%
X183395092Y-52800000D03*
X186495092Y-52800000D03*
%TD*%
%TO.C,R6*%
X195321092Y-79700000D03*
X198421092Y-79700000D03*
%TD*%
D25*
%TO.C,U2*%
X176592592Y-82824000D03*
X179132592Y-82824000D03*
X181672592Y-82824000D03*
%TD*%
D21*
%TO.C,TP9*%
X204471092Y-45500000D03*
%TD*%
D24*
%TO.C,R2*%
X235021092Y-62500000D03*
X238121092Y-62500000D03*
%TD*%
D26*
%TO.C,CP5*%
X197611000Y-57705000D03*
X197611000Y-56435000D03*
X197611000Y-55165000D03*
X197611000Y-53895000D03*
X192189000Y-53895000D03*
X192189000Y-55165000D03*
X192189000Y-56435000D03*
X192189000Y-57705000D03*
%TD*%
D27*
%TO.C,G1*%
X218121092Y-74600000D03*
X219071092Y-74600000D03*
X220021092Y-74600000D03*
X220021092Y-72000000D03*
X218121092Y-72000000D03*
%TD*%
D19*
%TO.C,R4*%
X232971092Y-74050000D03*
X232971092Y-70950000D03*
%TD*%
D20*
%TO.C,C3*%
X203271092Y-79130000D03*
X203271092Y-80770000D03*
%TD*%
D21*
%TO.C,TP3*%
X235271092Y-57800000D03*
%TD*%
D19*
%TO.C,R17*%
X179061092Y-53205000D03*
X179061092Y-50105000D03*
%TD*%
%TO.C,R15*%
X211971092Y-51050000D03*
X211971092Y-47950000D03*
%TD*%
D24*
%TO.C,R11*%
X181521092Y-66600000D03*
X184621092Y-66600000D03*
%TD*%
D21*
%TO.C,TP8*%
X212671092Y-54400000D03*
%TD*%
D28*
%TO.C,Q1*%
X222021092Y-68750000D03*
X223921092Y-68750000D03*
X222971092Y-66650000D03*
%TD*%
D20*
%TO.C,C6*%
X178571092Y-73280000D03*
X178571092Y-74920000D03*
%TD*%
D21*
%TO.C,TP1*%
X179471092Y-45000000D03*
%TD*%
D29*
%TO.C,CP3*%
X229471092Y-70750000D03*
X229471092Y-69800000D03*
X229471092Y-68850000D03*
X226871092Y-68850000D03*
X226871092Y-70750000D03*
%TD*%
D26*
%TO.C,CP6*%
X191884092Y-60965000D03*
X191884092Y-62235000D03*
X191884092Y-63505000D03*
X191884092Y-64775000D03*
X197306092Y-64775000D03*
X197306092Y-63505000D03*
X197306092Y-62235000D03*
X197306092Y-60965000D03*
%TD*%
D21*
%TO.C,TP5*%
X201271092Y-76700000D03*
%TD*%
D30*
%TO.C,LED1*%
X226471092Y-36460000D03*
X226471092Y-39000000D03*
%TD*%
D31*
%TO.C,C1*%
X230371092Y-60400000D03*
D32*
X228371092Y-60400000D03*
%TD*%
D33*
%TO.C,RV1*%
X191931092Y-72640000D03*
D34*
X194471092Y-70100000D03*
X197011092Y-72640000D03*
%TD*%
D24*
%TO.C,R5*%
X217921092Y-58900000D03*
X214821092Y-58900000D03*
%TD*%
D29*
%TO.C,G7*%
X207671092Y-56850000D03*
X207671092Y-57800000D03*
X207671092Y-58750000D03*
X210271092Y-58750000D03*
X210271092Y-56850000D03*
%TD*%
D24*
%TO.C,R8*%
X206371092Y-73600000D03*
X203271092Y-73600000D03*
%TD*%
D35*
%TO.C,H2*%
X235871092Y-82100000D03*
%TD*%
D24*
%TO.C,R16*%
X210021092Y-62500000D03*
X206921092Y-62500000D03*
%TD*%
D29*
%TO.C,G3*%
X188671092Y-78350000D03*
X188671092Y-79300000D03*
X188671092Y-80250000D03*
X191271092Y-80250000D03*
X191271092Y-78350000D03*
%TD*%
%TO.C,CP4*%
X209471092Y-80800000D03*
X209471092Y-79850000D03*
X209471092Y-78900000D03*
X206871092Y-78900000D03*
X206871092Y-80800000D03*
%TD*%
D27*
%TO.C,G2*%
X217121092Y-65000000D03*
X218071092Y-65000000D03*
X219021092Y-65000000D03*
X219021092Y-62400000D03*
X217121092Y-62400000D03*
%TD*%
D19*
%TO.C,R1*%
X223771092Y-60550000D03*
X223771092Y-63650000D03*
%TD*%
D36*
%TO.C,K2*%
X219471092Y-44557000D03*
X219471092Y-46843000D03*
X228271092Y-46843000D03*
X228271092Y-44557000D03*
%TD*%
D30*
%TO.C,LED5*%
X202271092Y-36460000D03*
X202271092Y-39000000D03*
%TD*%
D29*
%TO.C,CP2*%
X185771092Y-72550000D03*
X185771092Y-71600000D03*
X185771092Y-70650000D03*
X183171092Y-70650000D03*
X183171092Y-72550000D03*
%TD*%
D37*
%TO.C,J1*%
X171296092Y-59210000D03*
D38*
X171296092Y-56670000D03*
X171296092Y-54130000D03*
%TD*%
D36*
%TO.C,K1*%
X219421092Y-51857000D03*
X219421092Y-54143000D03*
X228221092Y-54143000D03*
X228221092Y-51857000D03*
%TD*%
D24*
%TO.C,R7*%
X231621092Y-77200000D03*
X228521092Y-77200000D03*
%TD*%
D21*
%TO.C,TP4*%
X235371092Y-54500000D03*
%TD*%
D30*
%TO.C,LED3*%
X193871092Y-36460000D03*
X193871092Y-39000000D03*
%TD*%
D37*
%TO.C,J2*%
X171296092Y-50195000D03*
D38*
X171296092Y-47655000D03*
X171296092Y-45115000D03*
%TD*%
D24*
%TO.C,R9*%
X212721092Y-73600000D03*
X209621092Y-73600000D03*
%TD*%
D29*
%TO.C,G4*%
X226171092Y-76150000D03*
X226171092Y-75200000D03*
X226171092Y-74250000D03*
X223571092Y-74250000D03*
X223571092Y-76150000D03*
%TD*%
D24*
%TO.C,R14*%
X203708092Y-52800000D03*
X206808092Y-52800000D03*
%TD*%
D31*
%TO.C,C4*%
X171900000Y-73500000D03*
D32*
X169900000Y-73500000D03*
%TD*%
D39*
%TO.C,DU1*%
X183696092Y-62662500D03*
X184346092Y-62662500D03*
X184996092Y-62662500D03*
X185646092Y-62662500D03*
X185646092Y-56937500D03*
X184996092Y-56937500D03*
X184346092Y-56937500D03*
X183696092Y-56937500D03*
%TD*%
D21*
%TO.C,TP7*%
X234471092Y-43100000D03*
%TD*%
D30*
%TO.C,LED2*%
X218371092Y-36460000D03*
X218371092Y-39000000D03*
%TD*%
D19*
%TO.C,R18*%
X178171092Y-65150000D03*
X178171092Y-68250000D03*
%TD*%
D21*
%TO.C,TP6*%
X208871092Y-45500000D03*
%TD*%
D35*
%TO.C,H3*%
X184671092Y-40100000D03*
%TD*%
D31*
%TO.C,C5*%
X226026205Y-81300000D03*
D32*
X224026205Y-81300000D03*
%TD*%
D27*
%TO.C,G5*%
X212185930Y-68514070D03*
X213135930Y-68514070D03*
X214085930Y-68514070D03*
X214085930Y-65914070D03*
X212185930Y-65914070D03*
%TD*%
D24*
%TO.C,R12*%
X204221092Y-68000000D03*
X207321092Y-68000000D03*
%TD*%
D33*
%TO.C,RV2*%
X192571092Y-49900000D03*
D34*
X195111092Y-47360000D03*
X197651092Y-49900000D03*
%TD*%
D35*
%TO.C,H1*%
X235371092Y-35900000D03*
%TD*%
D19*
%TO.C,R3*%
X233071092Y-68750000D03*
X233071092Y-65650000D03*
%TD*%
D27*
%TO.C,G6*%
X217921092Y-79900000D03*
X218871092Y-79900000D03*
X219821092Y-79900000D03*
X219821092Y-77300000D03*
X217921092Y-77300000D03*
%TD*%
D30*
%TO.C,LED4*%
X210371092Y-36460000D03*
X210371092Y-39000000D03*
%TD*%
D29*
%TO.C,CP1*%
X186271092Y-49150000D03*
X186271092Y-48200000D03*
X186271092Y-47250000D03*
X183671092Y-47250000D03*
X183671092Y-49150000D03*
%TD*%
D22*
%TO.C,J4*%
X171296092Y-68000000D03*
D23*
X171296092Y-65460000D03*
%TD*%
%LPD*%
M02*
