M48
; DRILL file {KiCad 9.0.2} date 2025-06-08T00:01:42+0200
; FORMAT={-:-/ absolute / inch / decimal}
; #@! TF.CreationDate,2025-06-08T00:01:42+02:00
; #@! TF.GenerationSoftware,Kicad,Pcbnew,9.0.2
; #@! TF.FileFunction,Plated,1,2,PTH
FMAT,2
INCH
; #@! TA.AperFunction,Plated,PTH,ViaDrill
T1C0.0157
; #@! TA.AperFunction,Plated,PTH,ComponentDrill
T2C0.0280
; #@! TA.AperFunction,Plated,PTH,ComponentDrill
T3C0.0315
; #@! TA.AperFunction,Plated,PTH,ComponentDrill
T4C0.0366
; #@! TA.AperFunction,Plated,PTH,ComponentDrill
T5C0.0370
; #@! TA.AperFunction,Plated,PTH,ComponentDrill
T6C0.0402
; #@! TA.AperFunction,Plated,PTH,ComponentDrill
T7C0.0421
%
G90
G05
T1
X1.2933Y-2.25
X1.3333Y-1.62
X1.3685Y-1.4878
X1.6181Y-1.4433
X1.6185Y-1.3134
X1.6831Y-2.0071
X1.6984Y-2.1783
X1.787Y-1.1543
X1.8244Y-1.2736
X2.1083Y-1.1008
X2.1787Y-1.4366
X2.2067Y-1.2752
X2.3028Y-2.5602
X2.322Y-2.8024
X2.3555Y-1.7083
X2.4291Y-2.1807
X2.4811Y-2.7587
X2.5268Y-0.9953
X2.5469Y-2.8228
X2.5567Y-2.5224
X2.563Y-1.8886
X2.5738Y-2.0055
X2.6119Y-1.3807
X2.6327Y-3.1063
X2.9563Y-2.7681
X3.0707Y-2.113
X3.1917Y-2.5799
X3.3992Y-2.8909
X3.4587Y-2.2744
X3.6008Y-3.0299
X3.6185Y-2.0748
X3.6795Y-2.4969
X3.7541Y-2.2208
T2
X2.0Y-2.2
X2.0016Y-1.7581
X2.1Y-2.1
X2.1016Y-1.8581
X2.2Y-2.2
X2.2016Y-1.7581
T3
X1.6677Y-2.6
X1.7465Y-2.6
X1.9713Y-2.6
X2.05Y-2.6
X3.1463Y-3.0299
X3.225Y-3.0299
T4
X4.0173Y-1.4579
X4.0173Y-1.7768
X4.0173Y-2.0957
X4.0173Y-2.4146
X4.0173Y-2.7335
X4.1173Y-1.4579
X4.1173Y-1.7768
X4.1173Y-2.0957
X4.1173Y-2.4146
X4.1173Y-2.7335
T5
X1.6976Y-2.8939
X1.7976Y-2.8939
X1.8976Y-2.8939
T6
X1.15Y-2.95
X1.15Y-3.05
X2.8921Y-1.0516
X2.9921Y-1.0516
T7
X1.15Y-1.5
X1.15Y-1.6
X1.15Y-1.7
X1.15Y-1.8549
X1.15Y-1.9549
X1.15Y-2.0549
M30
