%TF.GenerationSoftware,KiCad,Pcbnew,9.0.2*%
%TF.CreationDate,2025-06-13T21:58:29+02:00*%
%TF.ProjectId,bspdv4,62737064-7634-42e6-9b69-6361645f7063,rev?*%
%TF.SameCoordinates,Original*%
%TF.FileFunction,Copper,L2,Bot*%
%TF.FilePolarity,Positive*%
%FSLAX46Y46*%
G04 Gerber Fmt 4.6, Leading zero omitted, Abs format (unit mm)*
G04 Created by KiCad (PCBNEW 9.0.2) date 2025-06-13 21:58:29*
%MOMM*%
%LPD*%
G01*
G04 APERTURE LIST*
G04 Aperture macros list*
%AMRoundRect*
0 Rectangle with rounded corners*
0 $1 Rounding radius*
0 $2 $3 $4 $5 $6 $7 $8 $9 X,Y pos of 4 corners*
0 Add a 4 corners polygon primitive as box body*
4,1,4,$2,$3,$4,$5,$6,$7,$8,$9,$2,$3,0*
0 Add four circle primitives for the rounded corners*
1,1,$1+$1,$2,$3*
1,1,$1+$1,$4,$5*
1,1,$1+$1,$6,$7*
1,1,$1+$1,$8,$9*
0 Add four rect primitives between the rounded corners*
20,1,$1+$1,$2,$3,$4,$5,0*
20,1,$1+$1,$4,$5,$6,$7,0*
20,1,$1+$1,$6,$7,$8,$9,0*
20,1,$1+$1,$8,$9,$2,$3,0*%
G04 Aperture macros list end*
%TA.AperFunction,ComponentPad*%
%ADD10R,1.530000X1.530000*%
%TD*%
%TA.AperFunction,ComponentPad*%
%ADD11C,1.530000*%
%TD*%
%TA.AperFunction,ComponentPad*%
%ADD12C,1.440000*%
%TD*%
%TA.AperFunction,ComponentPad*%
%ADD13C,1.447000*%
%TD*%
%TA.AperFunction,ComponentPad*%
%ADD14RoundRect,0.250000X0.550000X0.550000X-0.550000X0.550000X-0.550000X-0.550000X0.550000X-0.550000X0*%
%TD*%
%TA.AperFunction,ComponentPad*%
%ADD15C,1.600000*%
%TD*%
%TA.AperFunction,ComponentPad*%
%ADD16R,1.217000X1.217000*%
%TD*%
%TA.AperFunction,ComponentPad*%
%ADD17C,1.217000*%
%TD*%
%TA.AperFunction,ComponentPad*%
%ADD18R,1.610000X1.610000*%
%TD*%
%TA.AperFunction,ComponentPad*%
%ADD19C,1.610000*%
%TD*%
%TA.AperFunction,ViaPad*%
%ADD20C,0.800000*%
%TD*%
%TA.AperFunction,Conductor*%
%ADD21C,0.250000*%
%TD*%
%TA.AperFunction,Conductor*%
%ADD22C,0.400000*%
%TD*%
G04 APERTURE END LIST*
D10*
%TO.P,J3,1,1*%
%TO.N,SC in*%
X234721092Y-47760000D03*
D11*
%TO.P,J3,2,2*%
%TO.N,SC out*%
X234721092Y-50300000D03*
%TD*%
D12*
%TO.P,U2,1,+VIN*%
%TO.N,+12V*%
X176592592Y-82824000D03*
%TO.P,U2,2,GND*%
%TO.N,GND*%
X179132592Y-82824000D03*
%TO.P,U2,3,+VOUT*%
%TO.N,+5V*%
X181672592Y-82824000D03*
%TD*%
D13*
%TO.P,LED1,1,K*%
%TO.N,GND*%
X226471092Y-36460000D03*
%TO.P,LED1,2,A*%
%TO.N,Intput w{slash} 50msdelay*%
X226471092Y-39000000D03*
%TD*%
D14*
%TO.P,C1,1*%
%TO.N,GND*%
X230371092Y-60400000D03*
D15*
%TO.P,C1,2*%
%TO.N,Net-(CP3-IN+)*%
X228371092Y-60400000D03*
%TD*%
D16*
%TO.P,RV1,1,CCW*%
%TO.N,GND*%
X191931092Y-72640000D03*
D17*
%TO.P,RV1,2,WIPER*%
%TO.N,Net-(CP2-IN-)*%
X194471092Y-70100000D03*
%TO.P,RV1,3,CW*%
%TO.N,+5V*%
X197011092Y-72640000D03*
%TD*%
D13*
%TO.P,LED5,1,K*%
%TO.N,GND*%
X202271092Y-36460000D03*
%TO.P,LED5,2,A*%
%TO.N,Net-(CP1-OUT)*%
X202271092Y-39000000D03*
%TD*%
D18*
%TO.P,J1,1,1*%
%TO.N,Raw BPS Signal*%
X171296092Y-59210000D03*
D19*
%TO.P,J1,2,2*%
%TO.N,+5V*%
X171296092Y-56670000D03*
%TO.P,J1,3,3*%
%TO.N,GND*%
X171296092Y-54130000D03*
%TD*%
D13*
%TO.P,LED3,1,K*%
%TO.N,GND*%
X193871092Y-36460000D03*
%TO.P,LED3,2,A*%
%TO.N,Net-(CP2-OUT)*%
X193871092Y-39000000D03*
%TD*%
D18*
%TO.P,J2,1,1*%
%TO.N,Raw Current Sensor*%
X171296092Y-50195000D03*
D19*
%TO.P,J2,2,2*%
%TO.N,+5V*%
X171296092Y-47655000D03*
%TO.P,J2,3,3*%
%TO.N,GND*%
X171296092Y-45115000D03*
%TD*%
D14*
%TO.P,C4,1*%
%TO.N,+12V*%
X171900000Y-73500000D03*
D15*
%TO.P,C4,2*%
%TO.N,GND*%
X169900000Y-73500000D03*
%TD*%
D13*
%TO.P,LED2,1,K*%
%TO.N,GND*%
X218371092Y-36460000D03*
%TO.P,LED2,2,A*%
%TO.N,BSPD out*%
X218371092Y-39000000D03*
%TD*%
D14*
%TO.P,C5,1*%
%TO.N,GND*%
X226026205Y-81300000D03*
D15*
%TO.P,C5,2*%
%TO.N,+5V*%
X224026205Y-81300000D03*
%TD*%
D16*
%TO.P,RV2,1,CCW*%
%TO.N,GND*%
X192571092Y-49900000D03*
D17*
%TO.P,RV2,2,WIPER*%
%TO.N,Net-(CP1-IN-)*%
X195111092Y-47360000D03*
%TO.P,RV2,3,CW*%
%TO.N,+5V*%
X197651092Y-49900000D03*
%TD*%
D13*
%TO.P,LED4,1,K*%
%TO.N,GND*%
X210371092Y-36460000D03*
%TO.P,LED4,2,A*%
%TO.N,SCS Check*%
X210371092Y-39000000D03*
%TD*%
D10*
%TO.P,J4,1,1*%
%TO.N,+12V*%
X171296092Y-68000000D03*
D11*
%TO.P,J4,2,2*%
%TO.N,GND*%
X171296092Y-65460000D03*
%TD*%
D20*
%TO.N,GND*%
X221200000Y-79900000D03*
X235900000Y-73100000D03*
X186300000Y-62700000D03*
X214900000Y-68500000D03*
X207671092Y-60071092D03*
X226100000Y-73000000D03*
X207300000Y-70400000D03*
X223800000Y-58500000D03*
%TO.N,4.25V*%
X201058092Y-64800000D03*
X189358092Y-52800000D03*
X201058092Y-52800000D03*
%TO.N,+5V*%
X204771092Y-64100000D03*
X193471092Y-82800000D03*
X203171092Y-61000000D03*
%TO.N,SCS Check*%
X205671092Y-56800000D03*
%TO.N,Intput w{slash} 50msdelay*%
X216771092Y-74600000D03*
%TO.N,BSPD out*%
X218071092Y-66800000D03*
%TO.N,0.75V*%
X189258092Y-66500000D03*
X189258092Y-62200000D03*
X199656914Y-56425043D03*
X199158092Y-66500000D03*
%TO.N,Net-(CP2-OUT)*%
X185771092Y-75300000D03*
%TO.N,Net-(CP1-OUT)*%
X188671092Y-77000000D03*
X188800000Y-49600000D03*
%TD*%
D21*
%TO.N,4.25V*%
X201758092Y-64100000D02*
X201058092Y-64800000D01*
X201058092Y-52800000D02*
X201758092Y-53500000D01*
X189358092Y-52800000D02*
X201058092Y-52800000D01*
X201758092Y-53500000D02*
X201758092Y-64100000D01*
D22*
%TO.N,+5V*%
X203171092Y-64100000D02*
X204771092Y-64100000D01*
X189547092Y-82824000D02*
X193447092Y-82824000D01*
X201971092Y-49900000D02*
X203171092Y-51100000D01*
D21*
X193447092Y-82824000D02*
X193471092Y-82800000D01*
D22*
X197011092Y-75360000D02*
X197011092Y-72640000D01*
X203171092Y-64100000D02*
X203171092Y-66480000D01*
X203171092Y-66480000D02*
X197011092Y-72640000D01*
X203171092Y-61000000D02*
X203171092Y-64100000D01*
X197651092Y-49900000D02*
X201971092Y-49900000D01*
X189547092Y-82824000D02*
X197011092Y-75360000D01*
X203171092Y-51100000D02*
X203171092Y-61000000D01*
X181672592Y-82824000D02*
X189547092Y-82824000D01*
D21*
%TO.N,SCS Check*%
X210371092Y-40400000D02*
X205671092Y-45100000D01*
X205671092Y-45100000D02*
X205671092Y-56800000D01*
X210371092Y-39000000D02*
X210371092Y-40400000D01*
%TO.N,Intput w{slash} 50msdelay*%
X226471092Y-64900000D02*
X216771092Y-74600000D01*
X226471092Y-39000000D02*
X226471092Y-64900000D01*
%TO.N,BSPD out*%
X218371092Y-39000000D02*
X220471092Y-41100000D01*
X219571092Y-66900000D02*
X218171092Y-66900000D01*
X218171092Y-66900000D02*
X218071092Y-66800000D01*
X220471092Y-41100000D02*
X220471092Y-66000000D01*
X220471092Y-66000000D02*
X219571092Y-66900000D01*
%TO.N,0.75V*%
X199656914Y-56425043D02*
X199656914Y-58098822D01*
X199656914Y-58098822D02*
X199658092Y-58100000D01*
X189971092Y-62913000D02*
X189971092Y-65787000D01*
X199658092Y-58100000D02*
X199658092Y-66000000D01*
X199658092Y-66000000D02*
X199158092Y-66500000D01*
X189258092Y-62200000D02*
X189971092Y-62913000D01*
X189971092Y-65787000D02*
X189258092Y-66500000D01*
X189258092Y-66500000D02*
X199158092Y-66500000D01*
%TO.N,Net-(CP2-OUT)*%
X183471092Y-75300000D02*
X185771092Y-75300000D01*
X193871092Y-39000000D02*
X182271092Y-50600000D01*
X182271092Y-50600000D02*
X182271092Y-74100000D01*
X182271092Y-74100000D02*
X183471092Y-75300000D01*
%TO.N,Net-(CP1-OUT)*%
X188071092Y-76400000D02*
X188671092Y-77000000D01*
X198271092Y-39000000D02*
X202271092Y-39000000D01*
X188800000Y-49600000D02*
X188800000Y-48471092D01*
X188071092Y-50328908D02*
X188071092Y-76400000D01*
X188800000Y-49600000D02*
X188071092Y-50328908D01*
X188800000Y-48471092D02*
X198271092Y-39000000D01*
%TD*%
%TA.AperFunction,Conductor*%
%TO.N,GND*%
G36*
X241742539Y-30520185D02*
G01*
X241788294Y-30572989D01*
X241799500Y-30624500D01*
X241799500Y-86175500D01*
X241779815Y-86242539D01*
X241727011Y-86288294D01*
X241675500Y-86299500D01*
X164624500Y-86299500D01*
X164557461Y-86279815D01*
X164511706Y-86227011D01*
X164500500Y-86175500D01*
X164500500Y-82727945D01*
X175372092Y-82727945D01*
X175372092Y-82920054D01*
X175402145Y-83109802D01*
X175461508Y-83292506D01*
X175475922Y-83320794D01*
X175548727Y-83463681D01*
X175661647Y-83619102D01*
X175797490Y-83754945D01*
X175952911Y-83867865D01*
X176123168Y-83954616D01*
X176124085Y-83955083D01*
X176215437Y-83984764D01*
X176306791Y-84014447D01*
X176496537Y-84044500D01*
X176496538Y-84044500D01*
X176688646Y-84044500D01*
X176688647Y-84044500D01*
X176878393Y-84014447D01*
X177061101Y-83955082D01*
X177232273Y-83867865D01*
X177387694Y-83754945D01*
X177523537Y-83619102D01*
X177636457Y-83463681D01*
X177723674Y-83292509D01*
X177723736Y-83292319D01*
X177744924Y-83227109D01*
X177784361Y-83169433D01*
X177848719Y-83142234D01*
X177917565Y-83154148D01*
X177969042Y-83201392D01*
X177980786Y-83227107D01*
X178001975Y-83292321D01*
X178089153Y-83463415D01*
X178110390Y-83492646D01*
X178674123Y-82928914D01*
X178694621Y-83005413D01*
X178756498Y-83112587D01*
X178844005Y-83200094D01*
X178951179Y-83261971D01*
X179027677Y-83282468D01*
X178463943Y-83846200D01*
X178463944Y-83846201D01*
X178493169Y-83867434D01*
X178664270Y-83954616D01*
X178846907Y-84013959D01*
X179036577Y-84044000D01*
X179228607Y-84044000D01*
X179418276Y-84013959D01*
X179600913Y-83954616D01*
X179772011Y-83867436D01*
X179801238Y-83846201D01*
X179801238Y-83846200D01*
X179237507Y-83282468D01*
X179314005Y-83261971D01*
X179421179Y-83200094D01*
X179508686Y-83112587D01*
X179570563Y-83005413D01*
X179591060Y-82928914D01*
X180154792Y-83492646D01*
X180154793Y-83492646D01*
X180176028Y-83463419D01*
X180263208Y-83292319D01*
X180284397Y-83227108D01*
X180323834Y-83169433D01*
X180388192Y-83142234D01*
X180457039Y-83154148D01*
X180508515Y-83201392D01*
X180520259Y-83227108D01*
X180541508Y-83292505D01*
X180541509Y-83292506D01*
X180541510Y-83292509D01*
X180628727Y-83463681D01*
X180741647Y-83619102D01*
X180877490Y-83754945D01*
X181032911Y-83867865D01*
X181203168Y-83954616D01*
X181204085Y-83955083D01*
X181295437Y-83984764D01*
X181386791Y-84014447D01*
X181576537Y-84044500D01*
X181576538Y-84044500D01*
X181768646Y-84044500D01*
X181768647Y-84044500D01*
X181958393Y-84014447D01*
X182141101Y-83955082D01*
X182312273Y-83867865D01*
X182467694Y-83754945D01*
X182603537Y-83619102D01*
X182618858Y-83598015D01*
X182635133Y-83575615D01*
X182690463Y-83532949D01*
X182735451Y-83524500D01*
X189478098Y-83524500D01*
X189478099Y-83524500D01*
X192896911Y-83524500D01*
X192963950Y-83544185D01*
X192965791Y-83545391D01*
X193044545Y-83598013D01*
X193044548Y-83598014D01*
X193044549Y-83598015D01*
X193153799Y-83643267D01*
X193208426Y-83665894D01*
X193208428Y-83665894D01*
X193208433Y-83665896D01*
X193382396Y-83700499D01*
X193382399Y-83700500D01*
X193382401Y-83700500D01*
X193559785Y-83700500D01*
X193559786Y-83700499D01*
X193617774Y-83688964D01*
X193733750Y-83665896D01*
X193733753Y-83665894D01*
X193733758Y-83665894D01*
X193897639Y-83598013D01*
X194045127Y-83499464D01*
X194170556Y-83374035D01*
X194269105Y-83226547D01*
X194336986Y-83062666D01*
X194348375Y-83005413D01*
X194371591Y-82888695D01*
X194371592Y-82888693D01*
X194371592Y-82711306D01*
X194371591Y-82711304D01*
X194336988Y-82537341D01*
X194336985Y-82537332D01*
X194269108Y-82373459D01*
X194269101Y-82373446D01*
X194170556Y-82225965D01*
X194170553Y-82225961D01*
X194045130Y-82100538D01*
X194045126Y-82100535D01*
X193897645Y-82001990D01*
X193897632Y-82001983D01*
X193733759Y-81934106D01*
X193733750Y-81934103D01*
X193559786Y-81899500D01*
X193559783Y-81899500D01*
X193382401Y-81899500D01*
X193382398Y-81899500D01*
X193208433Y-81934103D01*
X193208424Y-81934106D01*
X193044551Y-82001983D01*
X193044539Y-82001990D01*
X192893965Y-82102602D01*
X192827288Y-82123480D01*
X192825074Y-82123500D01*
X191537611Y-82123500D01*
X191470572Y-82103815D01*
X191424817Y-82051011D01*
X191414873Y-81981853D01*
X191443898Y-81918297D01*
X191449930Y-81911819D01*
X192164101Y-81197648D01*
X222725705Y-81197648D01*
X222725705Y-81402351D01*
X222757727Y-81604534D01*
X222820986Y-81799223D01*
X222868797Y-81893055D01*
X222901156Y-81956564D01*
X222913920Y-81981613D01*
X223034233Y-82147213D01*
X223178991Y-82291971D01*
X223333954Y-82404556D01*
X223344595Y-82412287D01*
X223458738Y-82470446D01*
X223526981Y-82505218D01*
X223526983Y-82505218D01*
X223526986Y-82505220D01*
X223625817Y-82537332D01*
X223721670Y-82568477D01*
X223822762Y-82584488D01*
X223923853Y-82600500D01*
X223923854Y-82600500D01*
X224128556Y-82600500D01*
X224128557Y-82600500D01*
X224330739Y-82568477D01*
X224525424Y-82505220D01*
X224707815Y-82412287D01*
X224778528Y-82360911D01*
X224844333Y-82337432D01*
X224912386Y-82353257D01*
X224939093Y-82373549D01*
X225007859Y-82442315D01*
X225157080Y-82534356D01*
X225157085Y-82534358D01*
X225323507Y-82589505D01*
X225323514Y-82589506D01*
X225426224Y-82599999D01*
X225776204Y-82599999D01*
X225776205Y-82599998D01*
X225776205Y-81615686D01*
X225780599Y-81620080D01*
X225871811Y-81672741D01*
X225973544Y-81700000D01*
X226078866Y-81700000D01*
X226180599Y-81672741D01*
X226271811Y-81620080D01*
X226276205Y-81615686D01*
X226276205Y-82599999D01*
X226626177Y-82599999D01*
X226626191Y-82599998D01*
X226728902Y-82589505D01*
X226895324Y-82534358D01*
X226895329Y-82534356D01*
X227044550Y-82442315D01*
X227168520Y-82318345D01*
X227260561Y-82169124D01*
X227260563Y-82169119D01*
X227315710Y-82002697D01*
X227315711Y-82002689D01*
X227318639Y-81974038D01*
X234270592Y-81974038D01*
X234270592Y-82225962D01*
X234293953Y-82373459D01*
X234310002Y-82474785D01*
X234387852Y-82714383D01*
X234466505Y-82868747D01*
X234475233Y-82885877D01*
X234502224Y-82938848D01*
X234650293Y-83142649D01*
X234650297Y-83142654D01*
X234828437Y-83320794D01*
X234828442Y-83320798D01*
X235006209Y-83449952D01*
X235032247Y-83468870D01*
X235158009Y-83532949D01*
X235256708Y-83583239D01*
X235256710Y-83583239D01*
X235256713Y-83583241D01*
X235496307Y-83661090D01*
X235745130Y-83700500D01*
X235745131Y-83700500D01*
X235997053Y-83700500D01*
X235997054Y-83700500D01*
X236245877Y-83661090D01*
X236485471Y-83583241D01*
X236709937Y-83468870D01*
X236913748Y-83320793D01*
X237091885Y-83142656D01*
X237239962Y-82938845D01*
X237354333Y-82714379D01*
X237432182Y-82474785D01*
X237471592Y-82225962D01*
X237471592Y-81974038D01*
X237432182Y-81725215D01*
X237354333Y-81485621D01*
X237354331Y-81485618D01*
X237354331Y-81485616D01*
X237311905Y-81402351D01*
X237239962Y-81261155D01*
X237156011Y-81145606D01*
X237091890Y-81057350D01*
X237091886Y-81057345D01*
X236913746Y-80879205D01*
X236913741Y-80879201D01*
X236709940Y-80731132D01*
X236709939Y-80731131D01*
X236709937Y-80731130D01*
X236639839Y-80695413D01*
X236485475Y-80616760D01*
X236245877Y-80538910D01*
X235997054Y-80499500D01*
X235745130Y-80499500D01*
X235620718Y-80519205D01*
X235496306Y-80538910D01*
X235256708Y-80616760D01*
X235032243Y-80731132D01*
X234828442Y-80879201D01*
X234828437Y-80879205D01*
X234650297Y-81057345D01*
X234650293Y-81057350D01*
X234502224Y-81261151D01*
X234387852Y-81485616D01*
X234310002Y-81725214D01*
X234283418Y-81893057D01*
X234270592Y-81974038D01*
X227318639Y-81974038D01*
X227320424Y-81956564D01*
X227320424Y-81956563D01*
X227326204Y-81899986D01*
X227326205Y-81899973D01*
X227326205Y-81550000D01*
X226341891Y-81550000D01*
X226346285Y-81545606D01*
X226398946Y-81454394D01*
X226426205Y-81352661D01*
X226426205Y-81247339D01*
X226398946Y-81145606D01*
X226346285Y-81054394D01*
X226341891Y-81050000D01*
X227326204Y-81050000D01*
X227326204Y-80700028D01*
X227326203Y-80700013D01*
X227315710Y-80597302D01*
X227260563Y-80430880D01*
X227260561Y-80430875D01*
X227168520Y-80281654D01*
X227044550Y-80157684D01*
X226895329Y-80065643D01*
X226895324Y-80065641D01*
X226728902Y-80010494D01*
X226728895Y-80010493D01*
X226626191Y-80000000D01*
X226276205Y-80000000D01*
X226276205Y-80984314D01*
X226271811Y-80979920D01*
X226180599Y-80927259D01*
X226078866Y-80900000D01*
X225973544Y-80900000D01*
X225871811Y-80927259D01*
X225780599Y-80979920D01*
X225776205Y-80984314D01*
X225776205Y-80000000D01*
X225426233Y-80000000D01*
X225426217Y-80000001D01*
X225323507Y-80010494D01*
X225157085Y-80065641D01*
X225157080Y-80065643D01*
X225007859Y-80157684D01*
X224939091Y-80226451D01*
X224877767Y-80259936D01*
X224808076Y-80254950D01*
X224778528Y-80239088D01*
X224707815Y-80187713D01*
X224525428Y-80094781D01*
X224330739Y-80031522D01*
X224156200Y-80003878D01*
X224128557Y-79999500D01*
X223923853Y-79999500D01*
X223899534Y-80003351D01*
X223721670Y-80031522D01*
X223526981Y-80094781D01*
X223344591Y-80187715D01*
X223178991Y-80308028D01*
X223034233Y-80452786D01*
X222913920Y-80618386D01*
X222820986Y-80800776D01*
X222757727Y-80995465D01*
X222725705Y-81197648D01*
X192164101Y-81197648D01*
X197555204Y-75806545D01*
X197555206Y-75806543D01*
X197631867Y-75691811D01*
X197684672Y-75564328D01*
X197711592Y-75428994D01*
X197711592Y-75291006D01*
X197711592Y-74511304D01*
X215870592Y-74511304D01*
X215870592Y-74688695D01*
X215905195Y-74862658D01*
X215905198Y-74862667D01*
X215973075Y-75026540D01*
X215973082Y-75026553D01*
X216071627Y-75174034D01*
X216071630Y-75174038D01*
X216197053Y-75299461D01*
X216197057Y-75299464D01*
X216344538Y-75398009D01*
X216344551Y-75398016D01*
X216419345Y-75428996D01*
X216508426Y-75465894D01*
X216508428Y-75465894D01*
X216508433Y-75465896D01*
X216682396Y-75500499D01*
X216682399Y-75500500D01*
X216682401Y-75500500D01*
X216859785Y-75500500D01*
X216859786Y-75500499D01*
X216917774Y-75488964D01*
X217033750Y-75465896D01*
X217033753Y-75465894D01*
X217033758Y-75465894D01*
X217197639Y-75398013D01*
X217345127Y-75299464D01*
X217470556Y-75174035D01*
X217569105Y-75026547D01*
X217636986Y-74862666D01*
X217651441Y-74789999D01*
X217660056Y-74746682D01*
X217671592Y-74688691D01*
X217671592Y-74635452D01*
X217691277Y-74568413D01*
X217707911Y-74547771D01*
X226956947Y-65298736D01*
X226956947Y-65298735D01*
X226956950Y-65298733D01*
X227025404Y-65196285D01*
X227053024Y-65129603D01*
X227072555Y-65082452D01*
X227076543Y-65062402D01*
X227096593Y-64961606D01*
X227096593Y-64838393D01*
X227096593Y-64833283D01*
X227096592Y-64833257D01*
X227096592Y-61239977D01*
X227116277Y-61172938D01*
X227169081Y-61127183D01*
X227238239Y-61117239D01*
X227301795Y-61146264D01*
X227320911Y-61167092D01*
X227379126Y-61247219D01*
X227523878Y-61391971D01*
X227636163Y-61473549D01*
X227689482Y-61512287D01*
X227805699Y-61571503D01*
X227871868Y-61605218D01*
X227871870Y-61605218D01*
X227871873Y-61605220D01*
X227961551Y-61634358D01*
X228066557Y-61668477D01*
X228167649Y-61684488D01*
X228268740Y-61700500D01*
X228268741Y-61700500D01*
X228473443Y-61700500D01*
X228473444Y-61700500D01*
X228675626Y-61668477D01*
X228870311Y-61605220D01*
X229052702Y-61512287D01*
X229123415Y-61460911D01*
X229189220Y-61437432D01*
X229257273Y-61453257D01*
X229283980Y-61473549D01*
X229352746Y-61542315D01*
X229501967Y-61634356D01*
X229501972Y-61634358D01*
X229668394Y-61689505D01*
X229668401Y-61689506D01*
X229771111Y-61699999D01*
X230121091Y-61699999D01*
X230121092Y-61699998D01*
X230121092Y-60715686D01*
X230125486Y-60720080D01*
X230216698Y-60772741D01*
X230318431Y-60800000D01*
X230423753Y-60800000D01*
X230525486Y-60772741D01*
X230616698Y-60720080D01*
X230621092Y-60715686D01*
X230621092Y-61699999D01*
X230971064Y-61699999D01*
X230971078Y-61699998D01*
X231073789Y-61689505D01*
X231240211Y-61634358D01*
X231240216Y-61634356D01*
X231389437Y-61542315D01*
X231513407Y-61418345D01*
X231605448Y-61269124D01*
X231605450Y-61269119D01*
X231660597Y-61102697D01*
X231660598Y-61102690D01*
X231671091Y-60999986D01*
X231671092Y-60999973D01*
X231671092Y-60650000D01*
X230686778Y-60650000D01*
X230691172Y-60645606D01*
X230743833Y-60554394D01*
X230771092Y-60452661D01*
X230771092Y-60347339D01*
X230743833Y-60245606D01*
X230691172Y-60154394D01*
X230686778Y-60150000D01*
X231671091Y-60150000D01*
X231671091Y-59800028D01*
X231671090Y-59800013D01*
X231660597Y-59697302D01*
X231605450Y-59530880D01*
X231605448Y-59530875D01*
X231513407Y-59381654D01*
X231389437Y-59257684D01*
X231240216Y-59165643D01*
X231240211Y-59165641D01*
X231073789Y-59110494D01*
X231073782Y-59110493D01*
X230971078Y-59100000D01*
X230621092Y-59100000D01*
X230621092Y-60084314D01*
X230616698Y-60079920D01*
X230525486Y-60027259D01*
X230423753Y-60000000D01*
X230318431Y-60000000D01*
X230216698Y-60027259D01*
X230125486Y-60079920D01*
X230121092Y-60084314D01*
X230121092Y-59100000D01*
X229771120Y-59100000D01*
X229771104Y-59100001D01*
X229668394Y-59110494D01*
X229501972Y-59165641D01*
X229501967Y-59165643D01*
X229352746Y-59257684D01*
X229283978Y-59326451D01*
X229222654Y-59359936D01*
X229152963Y-59354950D01*
X229123415Y-59339088D01*
X229052702Y-59287713D01*
X228870315Y-59194781D01*
X228675626Y-59131522D01*
X228501087Y-59103878D01*
X228473444Y-59099500D01*
X228268740Y-59099500D01*
X228244421Y-59103351D01*
X228066557Y-59131522D01*
X227871868Y-59194781D01*
X227689478Y-59287715D01*
X227523878Y-59408028D01*
X227379124Y-59552782D01*
X227379120Y-59552787D01*
X227320910Y-59632907D01*
X227265580Y-59675573D01*
X227195967Y-59681552D01*
X227134172Y-59648946D01*
X227099815Y-59588108D01*
X227096592Y-59560022D01*
X227096592Y-46947135D01*
X233455592Y-46947135D01*
X233455592Y-48572870D01*
X233455593Y-48572876D01*
X233462000Y-48632483D01*
X233512294Y-48767328D01*
X233512298Y-48767335D01*
X233598544Y-48882544D01*
X233598547Y-48882547D01*
X233713756Y-48968793D01*
X233713763Y-48968797D01*
X233848609Y-49019091D01*
X233848608Y-49019091D01*
X233855536Y-49019835D01*
X233908219Y-49025500D01*
X233940660Y-49025499D01*
X234007697Y-49045182D01*
X234053453Y-49097984D01*
X234063398Y-49167143D01*
X234034375Y-49230699D01*
X234013547Y-49249816D01*
X233896674Y-49334730D01*
X233755825Y-49475579D01*
X233755825Y-49475580D01*
X233755823Y-49475582D01*
X233729868Y-49511306D01*
X233638739Y-49636733D01*
X233548305Y-49814219D01*
X233486753Y-50003656D01*
X233486753Y-50003659D01*
X233459768Y-50174034D01*
X233455592Y-50200403D01*
X233455592Y-50399597D01*
X233466093Y-50465896D01*
X233486753Y-50596340D01*
X233486753Y-50596343D01*
X233548305Y-50785780D01*
X233604298Y-50895672D01*
X233638739Y-50963266D01*
X233755823Y-51124418D01*
X233896674Y-51265269D01*
X234057826Y-51382353D01*
X234173946Y-51441519D01*
X234235311Y-51472786D01*
X234424749Y-51534338D01*
X234424750Y-51534338D01*
X234424753Y-51534339D01*
X234621495Y-51565500D01*
X234621496Y-51565500D01*
X234820688Y-51565500D01*
X234820689Y-51565500D01*
X235017431Y-51534339D01*
X235017434Y-51534338D01*
X235017435Y-51534338D01*
X235206872Y-51472786D01*
X235206872Y-51472785D01*
X235206875Y-51472785D01*
X235384358Y-51382353D01*
X235545510Y-51265269D01*
X235686361Y-51124418D01*
X235803445Y-50963266D01*
X235893877Y-50785783D01*
X235941453Y-50639360D01*
X235955430Y-50596343D01*
X235955430Y-50596342D01*
X235955431Y-50596339D01*
X235986592Y-50399597D01*
X235986592Y-50200403D01*
X235955431Y-50003661D01*
X235955430Y-50003657D01*
X235955430Y-50003656D01*
X235893878Y-49814219D01*
X235826522Y-49682025D01*
X235803445Y-49636734D01*
X235686361Y-49475582D01*
X235545510Y-49334731D01*
X235428635Y-49249816D01*
X235385970Y-49194487D01*
X235379991Y-49124874D01*
X235412597Y-49063079D01*
X235473435Y-49028722D01*
X235501520Y-49025499D01*
X235533964Y-49025499D01*
X235593575Y-49019091D01*
X235728423Y-48968796D01*
X235843638Y-48882546D01*
X235929888Y-48767331D01*
X235980183Y-48632483D01*
X235986592Y-48572873D01*
X235986591Y-46947128D01*
X235980183Y-46887517D01*
X235939619Y-46778760D01*
X235929889Y-46752671D01*
X235929885Y-46752664D01*
X235843639Y-46637455D01*
X235843636Y-46637452D01*
X235728427Y-46551206D01*
X235728420Y-46551202D01*
X235593574Y-46500908D01*
X235593575Y-46500908D01*
X235533975Y-46494501D01*
X235533973Y-46494500D01*
X235533965Y-46494500D01*
X235533956Y-46494500D01*
X233908221Y-46494500D01*
X233908215Y-46494501D01*
X233848608Y-46500908D01*
X233713763Y-46551202D01*
X233713756Y-46551206D01*
X233598547Y-46637452D01*
X233598544Y-46637455D01*
X233512298Y-46752664D01*
X233512294Y-46752671D01*
X233462000Y-46887517D01*
X233455593Y-46947116D01*
X233455593Y-46947123D01*
X233455592Y-46947135D01*
X227096592Y-46947135D01*
X227096592Y-40121676D01*
X227116277Y-40054637D01*
X227147707Y-40021358D01*
X227166316Y-40007838D01*
X227268475Y-39933615D01*
X227404707Y-39797383D01*
X227517951Y-39641516D01*
X227605417Y-39469853D01*
X227664953Y-39286621D01*
X227695092Y-39096331D01*
X227695092Y-38903669D01*
X227664953Y-38713379D01*
X227605417Y-38530147D01*
X227517951Y-38358484D01*
X227404707Y-38202617D01*
X227268475Y-38066385D01*
X227112608Y-37953141D01*
X226940949Y-37865676D01*
X226885525Y-37847668D01*
X226827850Y-37808230D01*
X226800652Y-37743871D01*
X226812567Y-37675025D01*
X226859812Y-37623549D01*
X226885527Y-37611806D01*
X226940747Y-37593864D01*
X226940753Y-37593862D01*
X227112348Y-37506429D01*
X227112352Y-37506427D01*
X227142244Y-37484707D01*
X227142245Y-37484706D01*
X226571924Y-36914385D01*
X226650575Y-36893311D01*
X226756608Y-36832092D01*
X226843184Y-36745516D01*
X226904403Y-36639483D01*
X226925477Y-36560831D01*
X227495799Y-37131153D01*
X227495799Y-37131152D01*
X227517519Y-37101260D01*
X227517521Y-37101256D01*
X227604954Y-36929661D01*
X227604955Y-36929658D01*
X227664464Y-36746508D01*
X227664464Y-36746505D01*
X227694592Y-36556291D01*
X227694592Y-36363708D01*
X227664464Y-36173494D01*
X227664464Y-36173491D01*
X227604955Y-35990341D01*
X227604954Y-35990338D01*
X227520944Y-35825461D01*
X227520943Y-35825458D01*
X227517524Y-35818748D01*
X227495798Y-35788846D01*
X227495798Y-35788845D01*
X226925477Y-36359167D01*
X226904403Y-36280517D01*
X226843184Y-36174484D01*
X226756608Y-36087908D01*
X226650575Y-36026689D01*
X226571924Y-36005614D01*
X226803500Y-35774038D01*
X233770592Y-35774038D01*
X233770592Y-36025962D01*
X233793959Y-36173494D01*
X233810002Y-36274785D01*
X233887852Y-36514383D01*
X234002224Y-36738848D01*
X234150293Y-36942649D01*
X234150297Y-36942654D01*
X234328437Y-37120794D01*
X234328442Y-37120798D01*
X234342695Y-37131153D01*
X234532247Y-37268870D01*
X234675276Y-37341747D01*
X234756708Y-37383239D01*
X234756710Y-37383239D01*
X234756713Y-37383241D01*
X234996307Y-37461090D01*
X235245130Y-37500500D01*
X235245131Y-37500500D01*
X235497053Y-37500500D01*
X235497054Y-37500500D01*
X235745877Y-37461090D01*
X235985471Y-37383241D01*
X236209937Y-37268870D01*
X236413748Y-37120793D01*
X236591885Y-36942656D01*
X236739962Y-36738845D01*
X236854333Y-36514379D01*
X236932182Y-36274785D01*
X236971592Y-36025962D01*
X236971592Y-35774038D01*
X236932182Y-35525215D01*
X236854333Y-35285621D01*
X236854331Y-35285618D01*
X236854331Y-35285616D01*
X236812839Y-35204184D01*
X236739962Y-35061155D01*
X236721044Y-35035117D01*
X236591890Y-34857350D01*
X236591886Y-34857345D01*
X236413746Y-34679205D01*
X236413741Y-34679201D01*
X236209940Y-34531132D01*
X236209939Y-34531131D01*
X236209937Y-34531130D01*
X236139839Y-34495413D01*
X235985475Y-34416760D01*
X235745877Y-34338910D01*
X235497054Y-34299500D01*
X235245130Y-34299500D01*
X235120718Y-34319205D01*
X234996306Y-34338910D01*
X234756708Y-34416760D01*
X234532243Y-34531132D01*
X234328442Y-34679201D01*
X234328437Y-34679205D01*
X234150297Y-34857345D01*
X234150293Y-34857350D01*
X234002224Y-35061151D01*
X233887852Y-35285616D01*
X233810002Y-35525214D01*
X233810002Y-35525215D01*
X233770592Y-35774038D01*
X226803500Y-35774038D01*
X227142245Y-35435293D01*
X227142244Y-35435292D01*
X227112346Y-35413569D01*
X226940753Y-35326137D01*
X226940750Y-35326136D01*
X226757598Y-35266627D01*
X226567383Y-35236500D01*
X226374801Y-35236500D01*
X226184586Y-35266627D01*
X226184583Y-35266627D01*
X226001433Y-35326136D01*
X226001430Y-35326137D01*
X225829835Y-35413570D01*
X225799938Y-35435291D01*
X225799938Y-35435292D01*
X226370260Y-36005614D01*
X226291609Y-36026689D01*
X226185576Y-36087908D01*
X226099000Y-36174484D01*
X226037781Y-36280517D01*
X226016706Y-36359167D01*
X225446384Y-35788846D01*
X225446383Y-35788846D01*
X225424662Y-35818743D01*
X225337229Y-35990338D01*
X225337228Y-35990341D01*
X225277719Y-36173491D01*
X225277719Y-36173494D01*
X225247592Y-36363708D01*
X225247592Y-36556291D01*
X225277719Y-36746505D01*
X225277719Y-36746508D01*
X225337228Y-36929658D01*
X225337229Y-36929661D01*
X225424661Y-37101254D01*
X225446384Y-37131152D01*
X225446385Y-37131153D01*
X226016706Y-36560831D01*
X226037781Y-36639483D01*
X226099000Y-36745516D01*
X226185576Y-36832092D01*
X226291609Y-36893311D01*
X226370260Y-36914385D01*
X225799937Y-37484706D01*
X225829838Y-37506431D01*
X226001430Y-37593862D01*
X226001436Y-37593864D01*
X226056656Y-37611806D01*
X226114332Y-37651243D01*
X226141531Y-37715601D01*
X226129617Y-37784448D01*
X226082373Y-37835924D01*
X226056659Y-37847667D01*
X226001238Y-37865675D01*
X225829575Y-37953141D01*
X225740648Y-38017750D01*
X225673709Y-38066385D01*
X225673707Y-38066387D01*
X225673706Y-38066387D01*
X225537479Y-38202614D01*
X225537479Y-38202615D01*
X225537477Y-38202617D01*
X225537475Y-38202620D01*
X225424233Y-38358483D01*
X225336768Y-38530144D01*
X225277230Y-38713381D01*
X225247092Y-38903669D01*
X225247092Y-39096330D01*
X225277230Y-39286618D01*
X225277231Y-39286621D01*
X225336767Y-39469853D01*
X225424233Y-39641516D01*
X225537477Y-39797383D01*
X225673709Y-39933615D01*
X225775868Y-40007838D01*
X225794477Y-40021358D01*
X225837143Y-40076688D01*
X225845592Y-40121676D01*
X225845592Y-64589547D01*
X225825907Y-64656586D01*
X225809273Y-64677228D01*
X216823321Y-73663181D01*
X216761998Y-73696666D01*
X216735640Y-73699500D01*
X216682398Y-73699500D01*
X216508433Y-73734103D01*
X216508424Y-73734106D01*
X216344551Y-73801983D01*
X216344538Y-73801990D01*
X216197057Y-73900535D01*
X216197053Y-73900538D01*
X216071630Y-74025961D01*
X216071627Y-74025965D01*
X215973082Y-74173446D01*
X215973075Y-74173459D01*
X215905198Y-74337332D01*
X215905195Y-74337341D01*
X215870592Y-74511304D01*
X197711592Y-74511304D01*
X197711592Y-73559225D01*
X197731277Y-73492186D01*
X197747911Y-73471544D01*
X197772116Y-73447339D01*
X197856990Y-73362465D01*
X197959594Y-73221243D01*
X198038842Y-73065708D01*
X198084863Y-72924070D01*
X198092783Y-72899695D01*
X198092783Y-72899694D01*
X198092784Y-72899691D01*
X198120092Y-72727280D01*
X198120092Y-72573018D01*
X198139777Y-72505979D01*
X198156411Y-72485337D01*
X203715203Y-66926546D01*
X203715204Y-66926545D01*
X203715204Y-66926544D01*
X203715206Y-66926543D01*
X203791867Y-66811811D01*
X203800404Y-66791202D01*
X203844670Y-66684332D01*
X203844672Y-66684328D01*
X203871592Y-66548994D01*
X203871592Y-66411006D01*
X203871592Y-64924500D01*
X203874142Y-64915814D01*
X203872854Y-64906853D01*
X203883832Y-64882812D01*
X203891277Y-64857461D01*
X203898117Y-64851533D01*
X203901879Y-64843297D01*
X203924113Y-64829007D01*
X203944081Y-64811706D01*
X203954595Y-64809418D01*
X203960657Y-64805523D01*
X203995592Y-64800500D01*
X204160992Y-64800500D01*
X204228031Y-64820185D01*
X204229880Y-64821396D01*
X204344545Y-64898013D01*
X204508426Y-64965894D01*
X204508428Y-64965894D01*
X204508433Y-64965896D01*
X204682396Y-65000499D01*
X204682399Y-65000500D01*
X204682401Y-65000500D01*
X204859785Y-65000500D01*
X204859786Y-65000499D01*
X204938938Y-64984755D01*
X205033750Y-64965896D01*
X205033753Y-64965894D01*
X205033758Y-64965894D01*
X205197639Y-64898013D01*
X205345127Y-64799464D01*
X205470556Y-64674035D01*
X205569105Y-64526547D01*
X205636986Y-64362666D01*
X205671592Y-64188691D01*
X205671592Y-64011309D01*
X205671592Y-64011306D01*
X205671591Y-64011304D01*
X205636988Y-63837341D01*
X205636985Y-63837332D01*
X205569108Y-63673459D01*
X205569101Y-63673446D01*
X205470556Y-63525965D01*
X205470553Y-63525961D01*
X205345130Y-63400538D01*
X205345126Y-63400535D01*
X205197645Y-63301990D01*
X205197632Y-63301983D01*
X205033759Y-63234106D01*
X205033750Y-63234103D01*
X204859786Y-63199500D01*
X204859783Y-63199500D01*
X204682401Y-63199500D01*
X204682398Y-63199500D01*
X204508433Y-63234103D01*
X204508424Y-63234106D01*
X204344544Y-63301987D01*
X204344542Y-63301988D01*
X204229883Y-63378602D01*
X204211836Y-63384252D01*
X204195927Y-63394477D01*
X204164967Y-63398928D01*
X204163206Y-63399480D01*
X204160992Y-63399500D01*
X203995592Y-63399500D01*
X203928553Y-63379815D01*
X203882798Y-63327011D01*
X203871592Y-63275500D01*
X203871592Y-61610099D01*
X203891277Y-61543060D01*
X203892490Y-61541208D01*
X203969105Y-61426547D01*
X204036986Y-61262666D01*
X204071592Y-61088691D01*
X204071592Y-60911309D01*
X204071592Y-60911306D01*
X204071591Y-60911304D01*
X204036988Y-60737341D01*
X204036985Y-60737332D01*
X203998991Y-60645606D01*
X203969105Y-60573453D01*
X203969103Y-60573451D01*
X203969103Y-60573449D01*
X203892490Y-60458790D01*
X203871612Y-60392112D01*
X203871592Y-60389899D01*
X203871592Y-56711304D01*
X204770592Y-56711304D01*
X204770592Y-56888695D01*
X204805195Y-57062658D01*
X204805198Y-57062667D01*
X204873075Y-57226540D01*
X204873082Y-57226553D01*
X204971627Y-57374034D01*
X204971630Y-57374038D01*
X205097053Y-57499461D01*
X205097057Y-57499464D01*
X205244538Y-57598009D01*
X205244551Y-57598016D01*
X205367455Y-57648923D01*
X205408426Y-57665894D01*
X205408428Y-57665894D01*
X205408433Y-57665896D01*
X205582396Y-57700499D01*
X205582399Y-57700500D01*
X205582401Y-57700500D01*
X205759785Y-57700500D01*
X205759786Y-57700499D01*
X205817774Y-57688964D01*
X205933750Y-57665896D01*
X205933753Y-57665894D01*
X205933758Y-57665894D01*
X206097639Y-57598013D01*
X206245127Y-57499464D01*
X206370556Y-57374035D01*
X206469105Y-57226547D01*
X206536986Y-57062666D01*
X206538041Y-57057365D01*
X206571591Y-56888695D01*
X206571592Y-56888693D01*
X206571592Y-56711306D01*
X206571591Y-56711304D01*
X206536988Y-56537341D01*
X206536985Y-56537332D01*
X206469108Y-56373459D01*
X206469101Y-56373446D01*
X206370556Y-56225965D01*
X206370553Y-56225961D01*
X206332911Y-56188319D01*
X206299426Y-56126996D01*
X206296592Y-56100638D01*
X206296592Y-45410451D01*
X206316277Y-45343412D01*
X206332906Y-45322775D01*
X210769821Y-40885860D01*
X210769825Y-40885858D01*
X210856950Y-40798733D01*
X210922075Y-40701267D01*
X210925404Y-40696285D01*
X210972555Y-40582451D01*
X210996592Y-40461606D01*
X210996592Y-40338393D01*
X210996592Y-40121676D01*
X211016277Y-40054637D01*
X211047707Y-40021358D01*
X211066316Y-40007838D01*
X211168475Y-39933615D01*
X211304707Y-39797383D01*
X211417951Y-39641516D01*
X211505417Y-39469853D01*
X211564953Y-39286621D01*
X211595092Y-39096331D01*
X211595092Y-38903669D01*
X217147092Y-38903669D01*
X217147092Y-39096330D01*
X217177230Y-39286618D01*
X217177231Y-39286621D01*
X217236767Y-39469853D01*
X217324233Y-39641516D01*
X217437477Y-39797383D01*
X217573709Y-39933615D01*
X217729576Y-40046859D01*
X217901239Y-40134325D01*
X218084471Y-40193861D01*
X218274761Y-40224000D01*
X218274762Y-40224000D01*
X218467421Y-40224000D01*
X218467423Y-40224000D01*
X218614864Y-40200647D01*
X218684155Y-40209601D01*
X218721941Y-40235439D01*
X219809273Y-41322771D01*
X219842758Y-41384094D01*
X219845592Y-41410452D01*
X219845592Y-65689548D01*
X219825907Y-65756587D01*
X219809273Y-65777229D01*
X219348321Y-66238181D01*
X219286998Y-66271666D01*
X219260640Y-66274500D01*
X218869036Y-66274500D01*
X218801997Y-66254815D01*
X218773184Y-66229167D01*
X218770551Y-66225959D01*
X218645130Y-66100538D01*
X218645126Y-66100535D01*
X218497645Y-66001990D01*
X218497632Y-66001983D01*
X218333759Y-65934106D01*
X218333750Y-65934103D01*
X218159786Y-65899500D01*
X218159783Y-65899500D01*
X217982401Y-65899500D01*
X217982398Y-65899500D01*
X217808433Y-65934103D01*
X217808424Y-65934106D01*
X217644551Y-66001983D01*
X217644538Y-66001990D01*
X217497057Y-66100535D01*
X217497053Y-66100538D01*
X217371630Y-66225961D01*
X217371627Y-66225965D01*
X217273082Y-66373446D01*
X217273075Y-66373459D01*
X217205198Y-66537332D01*
X217205195Y-66537341D01*
X217170592Y-66711304D01*
X217170592Y-66888695D01*
X217205195Y-67062658D01*
X217205198Y-67062667D01*
X217273075Y-67226540D01*
X217273082Y-67226553D01*
X217371627Y-67374034D01*
X217371630Y-67374038D01*
X217497053Y-67499461D01*
X217497057Y-67499464D01*
X217644538Y-67598009D01*
X217644551Y-67598016D01*
X217767455Y-67648923D01*
X217808426Y-67665894D01*
X217808428Y-67665894D01*
X217808433Y-67665896D01*
X217982396Y-67700499D01*
X217982399Y-67700500D01*
X217982401Y-67700500D01*
X218159785Y-67700500D01*
X218159786Y-67700499D01*
X218217774Y-67688964D01*
X218333750Y-67665896D01*
X218333753Y-67665894D01*
X218333758Y-67665894D01*
X218497639Y-67598013D01*
X218574886Y-67546397D01*
X218641563Y-67525520D01*
X218643777Y-67525500D01*
X219632699Y-67525500D01*
X219693121Y-67513481D01*
X219753544Y-67501463D01*
X219786884Y-67487652D01*
X219867378Y-67454312D01*
X219918601Y-67420084D01*
X219969825Y-67385858D01*
X220056950Y-67298733D01*
X220056951Y-67298731D01*
X220064017Y-67291665D01*
X220064020Y-67291661D01*
X220869821Y-66485860D01*
X220869825Y-66485858D01*
X220956950Y-66398733D01*
X221025403Y-66296286D01*
X221072555Y-66182452D01*
X221096592Y-66061606D01*
X221096592Y-41038394D01*
X221072555Y-40917548D01*
X221025403Y-40803714D01*
X221025402Y-40803713D01*
X221025399Y-40803707D01*
X220956951Y-40701268D01*
X220951968Y-40696285D01*
X220869825Y-40614142D01*
X220869824Y-40614141D01*
X219606530Y-39350848D01*
X219573046Y-39289526D01*
X219571739Y-39243774D01*
X219595092Y-39096331D01*
X219595092Y-38903669D01*
X219564953Y-38713379D01*
X219505417Y-38530147D01*
X219417951Y-38358484D01*
X219304707Y-38202617D01*
X219168475Y-38066385D01*
X219012608Y-37953141D01*
X218840949Y-37865676D01*
X218785525Y-37847668D01*
X218727850Y-37808230D01*
X218700652Y-37743871D01*
X218712567Y-37675025D01*
X218759812Y-37623549D01*
X218785527Y-37611806D01*
X218840747Y-37593864D01*
X218840753Y-37593862D01*
X219012348Y-37506429D01*
X219012352Y-37506427D01*
X219042244Y-37484707D01*
X219042245Y-37484706D01*
X218471924Y-36914385D01*
X218550575Y-36893311D01*
X218656608Y-36832092D01*
X218743184Y-36745516D01*
X218804403Y-36639483D01*
X218825477Y-36560831D01*
X219395799Y-37131153D01*
X219395799Y-37131152D01*
X219417519Y-37101260D01*
X219417521Y-37101256D01*
X219504954Y-36929661D01*
X219504955Y-36929658D01*
X219564464Y-36746508D01*
X219564464Y-36746505D01*
X219594592Y-36556291D01*
X219594592Y-36363708D01*
X219564464Y-36173494D01*
X219564464Y-36173491D01*
X219504955Y-35990341D01*
X219504954Y-35990338D01*
X219417523Y-35818746D01*
X219395798Y-35788846D01*
X219395798Y-35788845D01*
X218825477Y-36359167D01*
X218804403Y-36280517D01*
X218743184Y-36174484D01*
X218656608Y-36087908D01*
X218550575Y-36026689D01*
X218471924Y-36005614D01*
X219042245Y-35435292D01*
X219012346Y-35413569D01*
X218840753Y-35326137D01*
X218840750Y-35326136D01*
X218657598Y-35266627D01*
X218467383Y-35236500D01*
X218274801Y-35236500D01*
X218084586Y-35266627D01*
X218084583Y-35266627D01*
X217901433Y-35326136D01*
X217901430Y-35326137D01*
X217729835Y-35413570D01*
X217699938Y-35435291D01*
X217699938Y-35435292D01*
X218270260Y-36005614D01*
X218191609Y-36026689D01*
X218085576Y-36087908D01*
X217999000Y-36174484D01*
X217937781Y-36280517D01*
X217916706Y-36359167D01*
X217346384Y-35788846D01*
X217346383Y-35788846D01*
X217324662Y-35818743D01*
X217237229Y-35990338D01*
X217237228Y-35990341D01*
X217177719Y-36173491D01*
X217177719Y-36173494D01*
X217147592Y-36363708D01*
X217147592Y-36556291D01*
X217177719Y-36746505D01*
X217177719Y-36746508D01*
X217237228Y-36929658D01*
X217237229Y-36929661D01*
X217324661Y-37101254D01*
X217346384Y-37131152D01*
X217346385Y-37131153D01*
X217916706Y-36560831D01*
X217937781Y-36639483D01*
X217999000Y-36745516D01*
X218085576Y-36832092D01*
X218191609Y-36893311D01*
X218270260Y-36914385D01*
X217699937Y-37484706D01*
X217729838Y-37506431D01*
X217901430Y-37593862D01*
X217901436Y-37593864D01*
X217956656Y-37611806D01*
X218014332Y-37651243D01*
X218041531Y-37715601D01*
X218029617Y-37784448D01*
X217982373Y-37835924D01*
X217956659Y-37847667D01*
X217901238Y-37865675D01*
X217729575Y-37953141D01*
X217640648Y-38017750D01*
X217573709Y-38066385D01*
X217573707Y-38066387D01*
X217573706Y-38066387D01*
X217437479Y-38202614D01*
X217437479Y-38202615D01*
X217437477Y-38202617D01*
X217437475Y-38202620D01*
X217324233Y-38358483D01*
X217236768Y-38530144D01*
X217177230Y-38713381D01*
X217147092Y-38903669D01*
X211595092Y-38903669D01*
X211564953Y-38713379D01*
X211505417Y-38530147D01*
X211417951Y-38358484D01*
X211304707Y-38202617D01*
X211168475Y-38066385D01*
X211012608Y-37953141D01*
X210840949Y-37865676D01*
X210785525Y-37847668D01*
X210727850Y-37808230D01*
X210700652Y-37743871D01*
X210712567Y-37675025D01*
X210759812Y-37623549D01*
X210785527Y-37611806D01*
X210840747Y-37593864D01*
X210840753Y-37593862D01*
X211012348Y-37506429D01*
X211012352Y-37506427D01*
X211042244Y-37484707D01*
X211042245Y-37484706D01*
X210471924Y-36914385D01*
X210550575Y-36893311D01*
X210656608Y-36832092D01*
X210743184Y-36745516D01*
X210804403Y-36639483D01*
X210825477Y-36560831D01*
X211395799Y-37131153D01*
X211395799Y-37131152D01*
X211417519Y-37101260D01*
X211417521Y-37101256D01*
X211504954Y-36929661D01*
X211504955Y-36929658D01*
X211564464Y-36746508D01*
X211564464Y-36746505D01*
X211594592Y-36556291D01*
X211594592Y-36363708D01*
X211564464Y-36173494D01*
X211564464Y-36173491D01*
X211504955Y-35990341D01*
X211504954Y-35990338D01*
X211417523Y-35818746D01*
X211395798Y-35788846D01*
X211395798Y-35788845D01*
X210825477Y-36359167D01*
X210804403Y-36280517D01*
X210743184Y-36174484D01*
X210656608Y-36087908D01*
X210550575Y-36026689D01*
X210471924Y-36005614D01*
X211042245Y-35435292D01*
X211012346Y-35413569D01*
X210840753Y-35326137D01*
X210840750Y-35326136D01*
X210657598Y-35266627D01*
X210467383Y-35236500D01*
X210274801Y-35236500D01*
X210084586Y-35266627D01*
X210084583Y-35266627D01*
X209901433Y-35326136D01*
X209901430Y-35326137D01*
X209729835Y-35413570D01*
X209699938Y-35435291D01*
X209699938Y-35435292D01*
X210270260Y-36005614D01*
X210191609Y-36026689D01*
X210085576Y-36087908D01*
X209999000Y-36174484D01*
X209937781Y-36280517D01*
X209916706Y-36359168D01*
X209346384Y-35788846D01*
X209346383Y-35788846D01*
X209324662Y-35818743D01*
X209237229Y-35990338D01*
X209237228Y-35990341D01*
X209177719Y-36173491D01*
X209177719Y-36173494D01*
X209147592Y-36363708D01*
X209147592Y-36556291D01*
X209177719Y-36746505D01*
X209177719Y-36746508D01*
X209237228Y-36929658D01*
X209237229Y-36929661D01*
X209324661Y-37101254D01*
X209346384Y-37131152D01*
X209346385Y-37131153D01*
X209916706Y-36560831D01*
X209937781Y-36639483D01*
X209999000Y-36745516D01*
X210085576Y-36832092D01*
X210191609Y-36893311D01*
X210270260Y-36914385D01*
X209699937Y-37484706D01*
X209729838Y-37506431D01*
X209901430Y-37593862D01*
X209901436Y-37593864D01*
X209956656Y-37611806D01*
X210014332Y-37651243D01*
X210041531Y-37715601D01*
X210029617Y-37784448D01*
X209982373Y-37835924D01*
X209956659Y-37847667D01*
X209901238Y-37865675D01*
X209729575Y-37953141D01*
X209640648Y-38017750D01*
X209573709Y-38066385D01*
X209573707Y-38066387D01*
X209573706Y-38066387D01*
X209437479Y-38202614D01*
X209437479Y-38202615D01*
X209437477Y-38202617D01*
X209437475Y-38202620D01*
X209324233Y-38358483D01*
X209236768Y-38530144D01*
X209177230Y-38713381D01*
X209147092Y-38903669D01*
X209147092Y-39096330D01*
X209177230Y-39286618D01*
X209177231Y-39286621D01*
X209236767Y-39469853D01*
X209324233Y-39641516D01*
X209437477Y-39797383D01*
X209573709Y-39933615D01*
X209573712Y-39933617D01*
X209675868Y-40007838D01*
X209718534Y-40063168D01*
X209724513Y-40132781D01*
X209691907Y-40194576D01*
X209690664Y-40195837D01*
X205185236Y-44701264D01*
X205185230Y-44701272D01*
X205116784Y-44803705D01*
X205116776Y-44803719D01*
X205083439Y-44884207D01*
X205077915Y-44897543D01*
X205069629Y-44917545D01*
X205069627Y-44917553D01*
X205045592Y-45038389D01*
X205045592Y-56100638D01*
X205025907Y-56167677D01*
X205009273Y-56188319D01*
X204971630Y-56225961D01*
X204971627Y-56225965D01*
X204873082Y-56373446D01*
X204873075Y-56373459D01*
X204805198Y-56537332D01*
X204805195Y-56537341D01*
X204770592Y-56711304D01*
X203871592Y-56711304D01*
X203871592Y-51031004D01*
X203844673Y-50895676D01*
X203844672Y-50895674D01*
X203844672Y-50895672D01*
X203839514Y-50883220D01*
X203791867Y-50768189D01*
X203715206Y-50653457D01*
X203715204Y-50653454D01*
X202417637Y-49355887D01*
X202302899Y-49279222D01*
X202175424Y-49226421D01*
X202175414Y-49226418D01*
X202040088Y-49199500D01*
X202040086Y-49199500D01*
X202040085Y-49199500D01*
X198570318Y-49199500D01*
X198503279Y-49179815D01*
X198482637Y-49163182D01*
X198444329Y-49124874D01*
X198373557Y-49054102D01*
X198232335Y-48951498D01*
X198076800Y-48872250D01*
X198076799Y-48872249D01*
X198076798Y-48872249D01*
X197910785Y-48818308D01*
X197795842Y-48800102D01*
X197738372Y-48791000D01*
X197563812Y-48791000D01*
X197506341Y-48800102D01*
X197391399Y-48818308D01*
X197391396Y-48818308D01*
X197225385Y-48872249D01*
X197225384Y-48872249D01*
X197069852Y-48951496D01*
X197069844Y-48951501D01*
X197019169Y-48988319D01*
X196928627Y-49054102D01*
X196928625Y-49054104D01*
X196928624Y-49054104D01*
X196805196Y-49177532D01*
X196805196Y-49177533D01*
X196805194Y-49177535D01*
X196776051Y-49217647D01*
X196702593Y-49318752D01*
X196702588Y-49318760D01*
X196623341Y-49474292D01*
X196623341Y-49474293D01*
X196569400Y-49640304D01*
X196569400Y-49640307D01*
X196561736Y-49688695D01*
X196542092Y-49812720D01*
X196542092Y-49987280D01*
X196549273Y-50032617D01*
X196569400Y-50159692D01*
X196569400Y-50159695D01*
X196623341Y-50325706D01*
X196623341Y-50325707D01*
X196670137Y-50417549D01*
X196702590Y-50481243D01*
X196805194Y-50622465D01*
X196928627Y-50745898D01*
X197069849Y-50848502D01*
X197225384Y-50927750D01*
X197391401Y-50981692D01*
X197563812Y-51009000D01*
X197563813Y-51009000D01*
X197738371Y-51009000D01*
X197738372Y-51009000D01*
X197910783Y-50981692D01*
X197910786Y-50981691D01*
X197910787Y-50981691D01*
X198002615Y-50951854D01*
X198076800Y-50927750D01*
X198232335Y-50848502D01*
X198373557Y-50745898D01*
X198482637Y-50636818D01*
X198543960Y-50603334D01*
X198570318Y-50600500D01*
X201629573Y-50600500D01*
X201696612Y-50620185D01*
X201717254Y-50636819D01*
X202434273Y-51353838D01*
X202467758Y-51415161D01*
X202470592Y-51441519D01*
X202470592Y-53031687D01*
X202450907Y-53098726D01*
X202398103Y-53144481D01*
X202328945Y-53154425D01*
X202265389Y-53125400D01*
X202248066Y-53105766D01*
X202247813Y-53105974D01*
X202243946Y-53101262D01*
X201994911Y-52852227D01*
X201961426Y-52790904D01*
X201958592Y-52764546D01*
X201958592Y-52711306D01*
X201958591Y-52711304D01*
X201923988Y-52537341D01*
X201923985Y-52537332D01*
X201856108Y-52373459D01*
X201856101Y-52373446D01*
X201757556Y-52225965D01*
X201757553Y-52225961D01*
X201632130Y-52100538D01*
X201632126Y-52100535D01*
X201484645Y-52001990D01*
X201484632Y-52001983D01*
X201320759Y-51934106D01*
X201320750Y-51934103D01*
X201146786Y-51899500D01*
X201146783Y-51899500D01*
X200969401Y-51899500D01*
X200969398Y-51899500D01*
X200795433Y-51934103D01*
X200795424Y-51934106D01*
X200631551Y-52001983D01*
X200631538Y-52001990D01*
X200484057Y-52100535D01*
X200484053Y-52100538D01*
X200446413Y-52138180D01*
X200385091Y-52171666D01*
X200358731Y-52174500D01*
X190057453Y-52174500D01*
X189990414Y-52154815D01*
X189969771Y-52138180D01*
X189932130Y-52100538D01*
X189932126Y-52100535D01*
X189784645Y-52001990D01*
X189784632Y-52001983D01*
X189620759Y-51934106D01*
X189620750Y-51934103D01*
X189446786Y-51899500D01*
X189446783Y-51899500D01*
X189269401Y-51899500D01*
X189269398Y-51899500D01*
X189095433Y-51934103D01*
X189095424Y-51934106D01*
X188931551Y-52001983D01*
X188931533Y-52001993D01*
X188889482Y-52030091D01*
X188822805Y-52050969D01*
X188755425Y-52032484D01*
X188708735Y-51980505D01*
X188696592Y-51926989D01*
X188696592Y-50639360D01*
X188705236Y-50609919D01*
X188711760Y-50579933D01*
X188715514Y-50574917D01*
X188716277Y-50572321D01*
X188732911Y-50551679D01*
X188747771Y-50536819D01*
X188809094Y-50503334D01*
X188835452Y-50500500D01*
X188888693Y-50500500D01*
X188888694Y-50500499D01*
X188985482Y-50481247D01*
X189062658Y-50465896D01*
X189062661Y-50465894D01*
X189062666Y-50465894D01*
X189226547Y-50398013D01*
X189374035Y-50299464D01*
X189499464Y-50174035D01*
X189593954Y-50032622D01*
X189595875Y-50029747D01*
X189595877Y-50029745D01*
X189595878Y-50029743D01*
X189598009Y-50026553D01*
X189598009Y-50026552D01*
X189598013Y-50026547D01*
X189665894Y-49862666D01*
X189667765Y-49853263D01*
X189700499Y-49688695D01*
X189700500Y-49688693D01*
X189700500Y-49511306D01*
X189700499Y-49511304D01*
X189665896Y-49337341D01*
X189665894Y-49337338D01*
X189665894Y-49337334D01*
X189627091Y-49243655D01*
X191462592Y-49243655D01*
X191462592Y-49650000D01*
X192319047Y-49650000D01*
X192287022Y-49682025D01*
X192240285Y-49762975D01*
X192216092Y-49853263D01*
X192216092Y-49946737D01*
X192240285Y-50037025D01*
X192287022Y-50117975D01*
X192319047Y-50150000D01*
X191462592Y-50150000D01*
X191462592Y-50556344D01*
X191468993Y-50615872D01*
X191468995Y-50615879D01*
X191519237Y-50750586D01*
X191519241Y-50750593D01*
X191605401Y-50865687D01*
X191605404Y-50865690D01*
X191720498Y-50951850D01*
X191720505Y-50951854D01*
X191855212Y-51002096D01*
X191855219Y-51002098D01*
X191914747Y-51008499D01*
X191914764Y-51008500D01*
X192321092Y-51008500D01*
X192321092Y-50152045D01*
X192353117Y-50184070D01*
X192434067Y-50230807D01*
X192524355Y-50255000D01*
X192617829Y-50255000D01*
X192708117Y-50230807D01*
X192789067Y-50184070D01*
X192821092Y-50152045D01*
X192821092Y-51008500D01*
X193227420Y-51008500D01*
X193227436Y-51008499D01*
X193286964Y-51002098D01*
X193286971Y-51002096D01*
X193421678Y-50951854D01*
X193421685Y-50951850D01*
X193536779Y-50865690D01*
X193536782Y-50865687D01*
X193622942Y-50750593D01*
X193622946Y-50750586D01*
X193673188Y-50615879D01*
X193673190Y-50615872D01*
X193679591Y-50556344D01*
X193679592Y-50556327D01*
X193679592Y-50150000D01*
X192823137Y-50150000D01*
X192855162Y-50117975D01*
X192901899Y-50037025D01*
X192926092Y-49946737D01*
X192926092Y-49853263D01*
X192901899Y-49762975D01*
X192855162Y-49682025D01*
X192823137Y-49650000D01*
X193679592Y-49650000D01*
X193679592Y-49243672D01*
X193679591Y-49243655D01*
X193673190Y-49184127D01*
X193673188Y-49184120D01*
X193622946Y-49049413D01*
X193622942Y-49049406D01*
X193536782Y-48934312D01*
X193536779Y-48934309D01*
X193421685Y-48848149D01*
X193421678Y-48848145D01*
X193286971Y-48797903D01*
X193286964Y-48797901D01*
X193227436Y-48791500D01*
X192821092Y-48791500D01*
X192821092Y-49647955D01*
X192789067Y-49615930D01*
X192708117Y-49569193D01*
X192617829Y-49545000D01*
X192524355Y-49545000D01*
X192434067Y-49569193D01*
X192353117Y-49615930D01*
X192321092Y-49647955D01*
X192321092Y-48791500D01*
X191914747Y-48791500D01*
X191855219Y-48797901D01*
X191855212Y-48797903D01*
X191720505Y-48848145D01*
X191720498Y-48848149D01*
X191605404Y-48934309D01*
X191605401Y-48934312D01*
X191519241Y-49049406D01*
X191519237Y-49049413D01*
X191468995Y-49184120D01*
X191468993Y-49184127D01*
X191462592Y-49243655D01*
X189627091Y-49243655D01*
X189619953Y-49226421D01*
X189598016Y-49173459D01*
X189598009Y-49173446D01*
X189499464Y-49025965D01*
X189499461Y-49025961D01*
X189461819Y-48988319D01*
X189447115Y-48961391D01*
X189430523Y-48935573D01*
X189429631Y-48929372D01*
X189428334Y-48926996D01*
X189425500Y-48900638D01*
X189425500Y-48781544D01*
X189445185Y-48714505D01*
X189461819Y-48693863D01*
X190882961Y-47272721D01*
X194002092Y-47272721D01*
X194002092Y-47447278D01*
X194029400Y-47619692D01*
X194029400Y-47619695D01*
X194083341Y-47785706D01*
X194083341Y-47785707D01*
X194083342Y-47785708D01*
X194162590Y-47941243D01*
X194265194Y-48082465D01*
X194388627Y-48205898D01*
X194529849Y-48308502D01*
X194685384Y-48387750D01*
X194851401Y-48441692D01*
X195023812Y-48469000D01*
X195023813Y-48469000D01*
X195198371Y-48469000D01*
X195198372Y-48469000D01*
X195370783Y-48441692D01*
X195370786Y-48441691D01*
X195370787Y-48441691D01*
X195423181Y-48424666D01*
X195536800Y-48387750D01*
X195692335Y-48308502D01*
X195833557Y-48205898D01*
X195956990Y-48082465D01*
X196059594Y-47941243D01*
X196138842Y-47785708D01*
X196192784Y-47619691D01*
X196220092Y-47447280D01*
X196220092Y-47272720D01*
X196192784Y-47100309D01*
X196192783Y-47100305D01*
X196192783Y-47100304D01*
X196143013Y-46947129D01*
X196138842Y-46934292D01*
X196059594Y-46778757D01*
X195956990Y-46637535D01*
X195833557Y-46514102D01*
X195692335Y-46411498D01*
X195536800Y-46332250D01*
X195536799Y-46332249D01*
X195536798Y-46332249D01*
X195370785Y-46278308D01*
X195255842Y-46260102D01*
X195198372Y-46251000D01*
X195023812Y-46251000D01*
X194966341Y-46260102D01*
X194851399Y-46278308D01*
X194851396Y-46278308D01*
X194685385Y-46332249D01*
X194685384Y-46332249D01*
X194529852Y-46411496D01*
X194529844Y-46411501D01*
X194454098Y-46466534D01*
X194388627Y-46514102D01*
X194388625Y-46514104D01*
X194388624Y-46514104D01*
X194265196Y-46637532D01*
X194265196Y-46637533D01*
X194265194Y-46637535D01*
X194217626Y-46703006D01*
X194162593Y-46778752D01*
X194162588Y-46778760D01*
X194083341Y-46934292D01*
X194083341Y-46934293D01*
X194029400Y-47100304D01*
X194029400Y-47100307D01*
X194002092Y-47272721D01*
X190882961Y-47272721D01*
X198493863Y-39661819D01*
X198555186Y-39628334D01*
X198581544Y-39625500D01*
X201149416Y-39625500D01*
X201216455Y-39645185D01*
X201249733Y-39676614D01*
X201337477Y-39797383D01*
X201473709Y-39933615D01*
X201629576Y-40046859D01*
X201801239Y-40134325D01*
X201984471Y-40193861D01*
X202174761Y-40224000D01*
X202174762Y-40224000D01*
X202367422Y-40224000D01*
X202367423Y-40224000D01*
X202557713Y-40193861D01*
X202740945Y-40134325D01*
X202912608Y-40046859D01*
X203068475Y-39933615D01*
X203204707Y-39797383D01*
X203317951Y-39641516D01*
X203405417Y-39469853D01*
X203464953Y-39286621D01*
X203495092Y-39096331D01*
X203495092Y-38903669D01*
X203464953Y-38713379D01*
X203405417Y-38530147D01*
X203317951Y-38358484D01*
X203204707Y-38202617D01*
X203068475Y-38066385D01*
X202912608Y-37953141D01*
X202740949Y-37865676D01*
X202685525Y-37847668D01*
X202627850Y-37808230D01*
X202600652Y-37743871D01*
X202612567Y-37675025D01*
X202659812Y-37623549D01*
X202685527Y-37611806D01*
X202740747Y-37593864D01*
X202740753Y-37593862D01*
X202912348Y-37506429D01*
X202912352Y-37506427D01*
X202942244Y-37484707D01*
X202942245Y-37484706D01*
X202371924Y-36914385D01*
X202450575Y-36893311D01*
X202556608Y-36832092D01*
X202643184Y-36745516D01*
X202704403Y-36639483D01*
X202725477Y-36560831D01*
X203295798Y-37131153D01*
X203295799Y-37131152D01*
X203317519Y-37101260D01*
X203317521Y-37101256D01*
X203404954Y-36929661D01*
X203404955Y-36929658D01*
X203464464Y-36746508D01*
X203464464Y-36746505D01*
X203494592Y-36556291D01*
X203494592Y-36363708D01*
X203464464Y-36173494D01*
X203464464Y-36173491D01*
X203404955Y-35990341D01*
X203404954Y-35990338D01*
X203317523Y-35818746D01*
X203295798Y-35788846D01*
X203295798Y-35788845D01*
X202725477Y-36359167D01*
X202704403Y-36280517D01*
X202643184Y-36174484D01*
X202556608Y-36087908D01*
X202450575Y-36026689D01*
X202371924Y-36005614D01*
X202942245Y-35435292D01*
X202912346Y-35413569D01*
X202740753Y-35326137D01*
X202740750Y-35326136D01*
X202557598Y-35266627D01*
X202367383Y-35236500D01*
X202174801Y-35236500D01*
X201984586Y-35266627D01*
X201984583Y-35266627D01*
X201801433Y-35326136D01*
X201801430Y-35326137D01*
X201629835Y-35413570D01*
X201599938Y-35435291D01*
X201599938Y-35435292D01*
X202170260Y-36005614D01*
X202091609Y-36026689D01*
X201985576Y-36087908D01*
X201899000Y-36174484D01*
X201837781Y-36280517D01*
X201816706Y-36359168D01*
X201246384Y-35788846D01*
X201246383Y-35788846D01*
X201224662Y-35818743D01*
X201137229Y-35990338D01*
X201137228Y-35990341D01*
X201077719Y-36173491D01*
X201077719Y-36173494D01*
X201047592Y-36363708D01*
X201047592Y-36556291D01*
X201077719Y-36746505D01*
X201077719Y-36746508D01*
X201137228Y-36929658D01*
X201137229Y-36929661D01*
X201224661Y-37101254D01*
X201246384Y-37131152D01*
X201246385Y-37131153D01*
X201816706Y-36560831D01*
X201837781Y-36639483D01*
X201899000Y-36745516D01*
X201985576Y-36832092D01*
X202091609Y-36893311D01*
X202170260Y-36914385D01*
X201599937Y-37484706D01*
X201629838Y-37506431D01*
X201801430Y-37593862D01*
X201801436Y-37593864D01*
X201856656Y-37611806D01*
X201914332Y-37651243D01*
X201941531Y-37715601D01*
X201929617Y-37784448D01*
X201882373Y-37835924D01*
X201856659Y-37847667D01*
X201801238Y-37865675D01*
X201629575Y-37953141D01*
X201540648Y-38017750D01*
X201473709Y-38066385D01*
X201473707Y-38066387D01*
X201473706Y-38066387D01*
X201337479Y-38202614D01*
X201337474Y-38202620D01*
X201249734Y-38323385D01*
X201194404Y-38366051D01*
X201149416Y-38374500D01*
X198332699Y-38374500D01*
X198209485Y-38374500D01*
X198184275Y-38379514D01*
X198159064Y-38384529D01*
X198159063Y-38384528D01*
X198088644Y-38398535D01*
X198088633Y-38398539D01*
X198056354Y-38411909D01*
X198041489Y-38418067D01*
X198019261Y-38427274D01*
X197974805Y-38445688D01*
X197964649Y-38452475D01*
X197964541Y-38452547D01*
X197872360Y-38514140D01*
X197847591Y-38538910D01*
X197785234Y-38601267D01*
X188404128Y-47982372D01*
X188404120Y-47982380D01*
X188401270Y-47985231D01*
X188401267Y-47985234D01*
X188314142Y-48072359D01*
X188283556Y-48118134D01*
X188279028Y-48124910D01*
X188279024Y-48124915D01*
X188245687Y-48174807D01*
X188245685Y-48174810D01*
X188219243Y-48238648D01*
X188219244Y-48238649D01*
X188198537Y-48288641D01*
X188198535Y-48288648D01*
X188174500Y-48409481D01*
X188174500Y-48900638D01*
X188154815Y-48967677D01*
X188138181Y-48988319D01*
X188100538Y-49025961D01*
X188100535Y-49025965D01*
X188001990Y-49173446D01*
X188001983Y-49173459D01*
X187934106Y-49337332D01*
X187934103Y-49337341D01*
X187899500Y-49511304D01*
X187899500Y-49564547D01*
X187879815Y-49631586D01*
X187863181Y-49652228D01*
X187674966Y-49840442D01*
X187674958Y-49840450D01*
X187672361Y-49843048D01*
X187672359Y-49843050D01*
X187585234Y-49930175D01*
X187559297Y-49968993D01*
X187554575Y-49976058D01*
X187554570Y-49976065D01*
X187516782Y-50032617D01*
X187516780Y-50032621D01*
X187516780Y-50032622D01*
X187491766Y-50093012D01*
X187469629Y-50146456D01*
X187458727Y-50201267D01*
X187454847Y-50220775D01*
X187453794Y-50226063D01*
X187453792Y-50226074D01*
X187445592Y-50267300D01*
X187445592Y-76461610D01*
X187467839Y-76573453D01*
X187469629Y-76582452D01*
X187483439Y-76615792D01*
X187516780Y-76696286D01*
X187544208Y-76737334D01*
X187548389Y-76743591D01*
X187548392Y-76743597D01*
X187585233Y-76798732D01*
X187585236Y-76798736D01*
X187676678Y-76890178D01*
X187676700Y-76890198D01*
X187734273Y-76947771D01*
X187767758Y-77009094D01*
X187770592Y-77035452D01*
X187770592Y-77088695D01*
X187805195Y-77262658D01*
X187805198Y-77262667D01*
X187873075Y-77426540D01*
X187873082Y-77426553D01*
X187971627Y-77574034D01*
X187971630Y-77574038D01*
X188097053Y-77699461D01*
X188097057Y-77699464D01*
X188244538Y-77798009D01*
X188244551Y-77798016D01*
X188367455Y-77848923D01*
X188408426Y-77865894D01*
X188408428Y-77865894D01*
X188408433Y-77865896D01*
X188582396Y-77900499D01*
X188582399Y-77900500D01*
X188582401Y-77900500D01*
X188759785Y-77900500D01*
X188759786Y-77900499D01*
X188817774Y-77888964D01*
X188933750Y-77865896D01*
X188933753Y-77865894D01*
X188933758Y-77865894D01*
X189097639Y-77798013D01*
X189245127Y-77699464D01*
X189370556Y-77574035D01*
X189469105Y-77426547D01*
X189536986Y-77262666D01*
X189571592Y-77088691D01*
X189571592Y-76911309D01*
X189571592Y-76911306D01*
X189571591Y-76911304D01*
X189536988Y-76737341D01*
X189536985Y-76737332D01*
X189469108Y-76573459D01*
X189469101Y-76573446D01*
X189370556Y-76425965D01*
X189370553Y-76425961D01*
X189245130Y-76300538D01*
X189245126Y-76300535D01*
X189097645Y-76201990D01*
X189097632Y-76201983D01*
X188933759Y-76134106D01*
X188933751Y-76134104D01*
X188796400Y-76106783D01*
X188734489Y-76074398D01*
X188699915Y-76013682D01*
X188696592Y-75985166D01*
X188696592Y-71983655D01*
X190822592Y-71983655D01*
X190822592Y-72390000D01*
X191679047Y-72390000D01*
X191647022Y-72422025D01*
X191600285Y-72502975D01*
X191576092Y-72593263D01*
X191576092Y-72686737D01*
X191600285Y-72777025D01*
X191647022Y-72857975D01*
X191679047Y-72890000D01*
X190822592Y-72890000D01*
X190822592Y-73296344D01*
X190828993Y-73355872D01*
X190828995Y-73355879D01*
X190879237Y-73490586D01*
X190879241Y-73490593D01*
X190965401Y-73605687D01*
X190965404Y-73605690D01*
X191080498Y-73691850D01*
X191080505Y-73691854D01*
X191215212Y-73742096D01*
X191215219Y-73742098D01*
X191274747Y-73748499D01*
X191274764Y-73748500D01*
X191681092Y-73748500D01*
X191681092Y-72892045D01*
X191713117Y-72924070D01*
X191794067Y-72970807D01*
X191884355Y-72995000D01*
X191977829Y-72995000D01*
X192068117Y-72970807D01*
X192149067Y-72924070D01*
X192181092Y-72892045D01*
X192181092Y-73748500D01*
X192587420Y-73748500D01*
X192587436Y-73748499D01*
X192646964Y-73742098D01*
X192646971Y-73742096D01*
X192781678Y-73691854D01*
X192781685Y-73691850D01*
X192896779Y-73605690D01*
X192896782Y-73605687D01*
X192982942Y-73490593D01*
X192982946Y-73490586D01*
X193033188Y-73355879D01*
X193033190Y-73355872D01*
X193039591Y-73296344D01*
X193039592Y-73296327D01*
X193039592Y-72890000D01*
X192183137Y-72890000D01*
X192215162Y-72857975D01*
X192261899Y-72777025D01*
X192286092Y-72686737D01*
X192286092Y-72593263D01*
X192261899Y-72502975D01*
X192215162Y-72422025D01*
X192183137Y-72390000D01*
X193039592Y-72390000D01*
X193039592Y-71983672D01*
X193039591Y-71983655D01*
X193033190Y-71924127D01*
X193033188Y-71924120D01*
X192982946Y-71789413D01*
X192982942Y-71789406D01*
X192896782Y-71674312D01*
X192896779Y-71674309D01*
X192781685Y-71588149D01*
X192781678Y-71588145D01*
X192646971Y-71537903D01*
X192646964Y-71537901D01*
X192587436Y-71531500D01*
X192181092Y-71531500D01*
X192181092Y-72387955D01*
X192149067Y-72355930D01*
X192068117Y-72309193D01*
X191977829Y-72285000D01*
X191884355Y-72285000D01*
X191794067Y-72309193D01*
X191713117Y-72355930D01*
X191681092Y-72387955D01*
X191681092Y-71531500D01*
X191274747Y-71531500D01*
X191215219Y-71537901D01*
X191215212Y-71537903D01*
X191080505Y-71588145D01*
X191080498Y-71588149D01*
X190965404Y-71674309D01*
X190965401Y-71674312D01*
X190879241Y-71789406D01*
X190879237Y-71789413D01*
X190828995Y-71924120D01*
X190828993Y-71924127D01*
X190822592Y-71983655D01*
X188696592Y-71983655D01*
X188696592Y-70012721D01*
X193362092Y-70012721D01*
X193362092Y-70187278D01*
X193389400Y-70359692D01*
X193389400Y-70359695D01*
X193443341Y-70525706D01*
X193443341Y-70525707D01*
X193443342Y-70525708D01*
X193522590Y-70681243D01*
X193625194Y-70822465D01*
X193748627Y-70945898D01*
X193889849Y-71048502D01*
X194045384Y-71127750D01*
X194211401Y-71181692D01*
X194383812Y-71209000D01*
X194383813Y-71209000D01*
X194558371Y-71209000D01*
X194558372Y-71209000D01*
X194730783Y-71181692D01*
X194730786Y-71181691D01*
X194730787Y-71181691D01*
X194783181Y-71164666D01*
X194896800Y-71127750D01*
X195052335Y-71048502D01*
X195193557Y-70945898D01*
X195316990Y-70822465D01*
X195419594Y-70681243D01*
X195498842Y-70525708D01*
X195552784Y-70359691D01*
X195580092Y-70187280D01*
X195580092Y-70012720D01*
X195552784Y-69840309D01*
X195552783Y-69840305D01*
X195552783Y-69840304D01*
X195498842Y-69674293D01*
X195498842Y-69674292D01*
X195419594Y-69518757D01*
X195316990Y-69377535D01*
X195193557Y-69254102D01*
X195052335Y-69151498D01*
X194896800Y-69072250D01*
X194896799Y-69072249D01*
X194896798Y-69072249D01*
X194730785Y-69018308D01*
X194615842Y-69000102D01*
X194558372Y-68991000D01*
X194383812Y-68991000D01*
X194326341Y-69000102D01*
X194211399Y-69018308D01*
X194211396Y-69018308D01*
X194045385Y-69072249D01*
X194045384Y-69072249D01*
X193889852Y-69151496D01*
X193889844Y-69151501D01*
X193814098Y-69206534D01*
X193748627Y-69254102D01*
X193748625Y-69254104D01*
X193748624Y-69254104D01*
X193625196Y-69377532D01*
X193625196Y-69377533D01*
X193625194Y-69377535D01*
X193577626Y-69443006D01*
X193522593Y-69518752D01*
X193522588Y-69518760D01*
X193443341Y-69674292D01*
X193443341Y-69674293D01*
X193389400Y-69840304D01*
X193389400Y-69840307D01*
X193362092Y-70012721D01*
X188696592Y-70012721D01*
X188696592Y-67427692D01*
X188716277Y-67360653D01*
X188769081Y-67314898D01*
X188838239Y-67304954D01*
X188868042Y-67313130D01*
X188995426Y-67365894D01*
X188995428Y-67365894D01*
X188995433Y-67365896D01*
X189169396Y-67400499D01*
X189169399Y-67400500D01*
X189169401Y-67400500D01*
X189346785Y-67400500D01*
X189346786Y-67400499D01*
X189420398Y-67385857D01*
X189520750Y-67365896D01*
X189520753Y-67365894D01*
X189520758Y-67365894D01*
X189682901Y-67298733D01*
X189684632Y-67298016D01*
X189684632Y-67298015D01*
X189684639Y-67298013D01*
X189832127Y-67199464D01*
X189869771Y-67161820D01*
X189931093Y-67128334D01*
X189957453Y-67125500D01*
X198458731Y-67125500D01*
X198525770Y-67145185D01*
X198546413Y-67161820D01*
X198584053Y-67199461D01*
X198584057Y-67199464D01*
X198731538Y-67298009D01*
X198731551Y-67298016D01*
X198768043Y-67313131D01*
X198895426Y-67365894D01*
X198895428Y-67365894D01*
X198895433Y-67365896D01*
X199069396Y-67400499D01*
X199069399Y-67400500D01*
X199069401Y-67400500D01*
X199246785Y-67400500D01*
X199246786Y-67400499D01*
X199320398Y-67385857D01*
X199420750Y-67365896D01*
X199420753Y-67365894D01*
X199420758Y-67365894D01*
X199582901Y-67298733D01*
X199584632Y-67298016D01*
X199584632Y-67298015D01*
X199584639Y-67298013D01*
X199732127Y-67199464D01*
X199857556Y-67074035D01*
X199956105Y-66926547D01*
X200023986Y-66762666D01*
X200029589Y-66734501D01*
X200058591Y-66588695D01*
X200058592Y-66588693D01*
X200058592Y-66535453D01*
X200065378Y-66512341D01*
X200067874Y-66488381D01*
X200075996Y-66476182D01*
X200078277Y-66468414D01*
X200085783Y-66457968D01*
X200090065Y-66452617D01*
X200143950Y-66398733D01*
X200195348Y-66321809D01*
X200212404Y-66296285D01*
X200259555Y-66182451D01*
X200283592Y-66061607D01*
X200283592Y-65938393D01*
X200283592Y-65597122D01*
X200303277Y-65530083D01*
X200356081Y-65484328D01*
X200425239Y-65474384D01*
X200477962Y-65497620D01*
X200478992Y-65496080D01*
X200631538Y-65598009D01*
X200631551Y-65598016D01*
X200754455Y-65648923D01*
X200795426Y-65665894D01*
X200795428Y-65665894D01*
X200795433Y-65665896D01*
X200969396Y-65700499D01*
X200969399Y-65700500D01*
X200969401Y-65700500D01*
X201146785Y-65700500D01*
X201146786Y-65700499D01*
X201215310Y-65686869D01*
X201320750Y-65665896D01*
X201320753Y-65665894D01*
X201320758Y-65665894D01*
X201484639Y-65598013D01*
X201632127Y-65499464D01*
X201757556Y-65374035D01*
X201856105Y-65226547D01*
X201923986Y-65062666D01*
X201925610Y-65054505D01*
X201956738Y-64898011D01*
X201958592Y-64888691D01*
X201958592Y-64835452D01*
X201978277Y-64768413D01*
X201994906Y-64747775D01*
X202243949Y-64498734D01*
X202243951Y-64498729D01*
X202247813Y-64494026D01*
X202248890Y-64494909D01*
X202297097Y-64454618D01*
X202366421Y-64445908D01*
X202429450Y-64476060D01*
X202466172Y-64535501D01*
X202470592Y-64568312D01*
X202470592Y-66138480D01*
X202450907Y-66205519D01*
X202434273Y-66226161D01*
X197165753Y-71494681D01*
X197104430Y-71528166D01*
X197078072Y-71531000D01*
X196923812Y-71531000D01*
X196866341Y-71540102D01*
X196751399Y-71558308D01*
X196751396Y-71558308D01*
X196585385Y-71612249D01*
X196585384Y-71612249D01*
X196429852Y-71691496D01*
X196429844Y-71691501D01*
X196354098Y-71746534D01*
X196288627Y-71794102D01*
X196288625Y-71794104D01*
X196288624Y-71794104D01*
X196165196Y-71917532D01*
X196165196Y-71917533D01*
X196165194Y-71917535D01*
X196160410Y-71924120D01*
X196062593Y-72058752D01*
X196062588Y-72058760D01*
X195983341Y-72214292D01*
X195983341Y-72214293D01*
X195929400Y-72380304D01*
X195929400Y-72380307D01*
X195902092Y-72552721D01*
X195902092Y-72727278D01*
X195929400Y-72899692D01*
X195929400Y-72899695D01*
X195983341Y-73065706D01*
X195983341Y-73065707D01*
X195983342Y-73065708D01*
X196062590Y-73221243D01*
X196165194Y-73362465D01*
X196165196Y-73362467D01*
X196274273Y-73471544D01*
X196307758Y-73532867D01*
X196310592Y-73559225D01*
X196310592Y-75018481D01*
X196290907Y-75085520D01*
X196274273Y-75106162D01*
X189293254Y-82087181D01*
X189231931Y-82120666D01*
X189205573Y-82123500D01*
X182735451Y-82123500D01*
X182668412Y-82103815D01*
X182635133Y-82072385D01*
X182603542Y-82028904D01*
X182603538Y-82028899D01*
X182467696Y-81893057D01*
X182467694Y-81893055D01*
X182312273Y-81780135D01*
X182141098Y-81692916D01*
X181958394Y-81633553D01*
X181863520Y-81618526D01*
X181768647Y-81603500D01*
X181576537Y-81603500D01*
X181513288Y-81613517D01*
X181386789Y-81633553D01*
X181204085Y-81692916D01*
X181032910Y-81780135D01*
X181003094Y-81801798D01*
X180877490Y-81893055D01*
X180877488Y-81893057D01*
X180877487Y-81893057D01*
X180741649Y-82028895D01*
X180741649Y-82028896D01*
X180741647Y-82028898D01*
X180741643Y-82028904D01*
X180628727Y-82184318D01*
X180541509Y-82355492D01*
X180520259Y-82420892D01*
X180480821Y-82478567D01*
X180416462Y-82505765D01*
X180347616Y-82493850D01*
X180296140Y-82446605D01*
X180284397Y-82420891D01*
X180263208Y-82355680D01*
X180176026Y-82184577D01*
X180154793Y-82155352D01*
X180154792Y-82155351D01*
X179591060Y-82719084D01*
X179570563Y-82642587D01*
X179508686Y-82535413D01*
X179421179Y-82447906D01*
X179314005Y-82386029D01*
X179237506Y-82365531D01*
X179801238Y-81801798D01*
X179772007Y-81780561D01*
X179600913Y-81693383D01*
X179418276Y-81634040D01*
X179228607Y-81604000D01*
X179036577Y-81604000D01*
X178846907Y-81634040D01*
X178664270Y-81693383D01*
X178493170Y-81780564D01*
X178463944Y-81801798D01*
X178463943Y-81801798D01*
X179027677Y-82365531D01*
X178951179Y-82386029D01*
X178844005Y-82447906D01*
X178756498Y-82535413D01*
X178694621Y-82642587D01*
X178674123Y-82719084D01*
X178110390Y-82155351D01*
X178110390Y-82155352D01*
X178089156Y-82184578D01*
X178001976Y-82355677D01*
X177980786Y-82420893D01*
X177941347Y-82478568D01*
X177876988Y-82505765D01*
X177808142Y-82493850D01*
X177756667Y-82446605D01*
X177744924Y-82420890D01*
X177723676Y-82355495D01*
X177691306Y-82291966D01*
X177636457Y-82184319D01*
X177523537Y-82028898D01*
X177387694Y-81893055D01*
X177232273Y-81780135D01*
X177061098Y-81692916D01*
X176878394Y-81633553D01*
X176783520Y-81618526D01*
X176688647Y-81603500D01*
X176496537Y-81603500D01*
X176433288Y-81613517D01*
X176306789Y-81633553D01*
X176124085Y-81692916D01*
X175952910Y-81780135D01*
X175923094Y-81801798D01*
X175797490Y-81893055D01*
X175797488Y-81893057D01*
X175797487Y-81893057D01*
X175661649Y-82028895D01*
X175661649Y-82028896D01*
X175661647Y-82028898D01*
X175661643Y-82028904D01*
X175548727Y-82184318D01*
X175461508Y-82355493D01*
X175402145Y-82538197D01*
X175372092Y-82727945D01*
X164500500Y-82727945D01*
X164500500Y-73397682D01*
X168600000Y-73397682D01*
X168600000Y-73602317D01*
X168632009Y-73804417D01*
X168695244Y-73999031D01*
X168788141Y-74181350D01*
X168788147Y-74181359D01*
X168820523Y-74225921D01*
X168820524Y-74225922D01*
X169500000Y-73546446D01*
X169500000Y-73552661D01*
X169527259Y-73654394D01*
X169579920Y-73745606D01*
X169654394Y-73820080D01*
X169745606Y-73872741D01*
X169847339Y-73900000D01*
X169853552Y-73900000D01*
X169174076Y-74579474D01*
X169218650Y-74611859D01*
X169400968Y-74704755D01*
X169595582Y-74767990D01*
X169797683Y-74800000D01*
X170002317Y-74800000D01*
X170204417Y-74767990D01*
X170399031Y-74704755D01*
X170581341Y-74611863D01*
X170581349Y-74611858D01*
X170651552Y-74560852D01*
X170717358Y-74537371D01*
X170785412Y-74553196D01*
X170812120Y-74573488D01*
X170881344Y-74642712D01*
X171030666Y-74734814D01*
X171197203Y-74789999D01*
X171299991Y-74800500D01*
X172500008Y-74800499D01*
X172602797Y-74789999D01*
X172769334Y-74734814D01*
X172918656Y-74642712D01*
X173042712Y-74518656D01*
X173134814Y-74369334D01*
X173189999Y-74202797D01*
X173200500Y-74100009D01*
X173200499Y-72899992D01*
X173189999Y-72797203D01*
X173134814Y-72630666D01*
X173042712Y-72481344D01*
X172918656Y-72357288D01*
X172769334Y-72265186D01*
X172602797Y-72210001D01*
X172602795Y-72210000D01*
X172500010Y-72199500D01*
X171299998Y-72199500D01*
X171299981Y-72199501D01*
X171197203Y-72210000D01*
X171197200Y-72210001D01*
X171030668Y-72265185D01*
X171030663Y-72265187D01*
X170881345Y-72357287D01*
X170812121Y-72426511D01*
X170750797Y-72459995D01*
X170681106Y-72455010D01*
X170651555Y-72439147D01*
X170581352Y-72388142D01*
X170399031Y-72295244D01*
X170204417Y-72232009D01*
X170002317Y-72200000D01*
X169797683Y-72200000D01*
X169595582Y-72232009D01*
X169400968Y-72295244D01*
X169218644Y-72388143D01*
X169174077Y-72420523D01*
X169174077Y-72420524D01*
X169853553Y-73100000D01*
X169847339Y-73100000D01*
X169745606Y-73127259D01*
X169654394Y-73179920D01*
X169579920Y-73254394D01*
X169527259Y-73345606D01*
X169500000Y-73447339D01*
X169500000Y-73453553D01*
X168820524Y-72774077D01*
X168820523Y-72774077D01*
X168788143Y-72818644D01*
X168695244Y-73000968D01*
X168632009Y-73195582D01*
X168600000Y-73397682D01*
X164500500Y-73397682D01*
X164500500Y-67187135D01*
X170030592Y-67187135D01*
X170030592Y-68812870D01*
X170030593Y-68812876D01*
X170037000Y-68872483D01*
X170087294Y-69007328D01*
X170087298Y-69007335D01*
X170173544Y-69122544D01*
X170173547Y-69122547D01*
X170288756Y-69208793D01*
X170288763Y-69208797D01*
X170423609Y-69259091D01*
X170423608Y-69259091D01*
X170430536Y-69259835D01*
X170483219Y-69265500D01*
X172108964Y-69265499D01*
X172168575Y-69259091D01*
X172303423Y-69208796D01*
X172418638Y-69122546D01*
X172504888Y-69007331D01*
X172555183Y-68872483D01*
X172561592Y-68812873D01*
X172561591Y-67187128D01*
X172555183Y-67127517D01*
X172504888Y-66992669D01*
X172504887Y-66992668D01*
X172504885Y-66992664D01*
X172418639Y-66877455D01*
X172418636Y-66877452D01*
X172303427Y-66791206D01*
X172303420Y-66791202D01*
X172168574Y-66740908D01*
X172168575Y-66740908D01*
X172108975Y-66734501D01*
X172108973Y-66734500D01*
X172108965Y-66734500D01*
X172108957Y-66734500D01*
X172075671Y-66734500D01*
X172008632Y-66714815D01*
X171962877Y-66662011D01*
X171952933Y-66592853D01*
X171981958Y-66529297D01*
X171996860Y-66515619D01*
X171996955Y-66514417D01*
X171433666Y-65951128D01*
X171492945Y-65935245D01*
X171609239Y-65868102D01*
X171704194Y-65773147D01*
X171771337Y-65656853D01*
X171787220Y-65597574D01*
X172350509Y-66160863D01*
X172350510Y-66160863D01*
X172378016Y-66123005D01*
X172468412Y-65945594D01*
X172529944Y-65756222D01*
X172561092Y-65559563D01*
X172561092Y-65360436D01*
X172529944Y-65163777D01*
X172468412Y-64974405D01*
X172378016Y-64796994D01*
X172350509Y-64759135D01*
X172350509Y-64759134D01*
X171787220Y-65322424D01*
X171771337Y-65263147D01*
X171704194Y-65146853D01*
X171609239Y-65051898D01*
X171492945Y-64984755D01*
X171433666Y-64968871D01*
X171996956Y-64405581D01*
X171996955Y-64405580D01*
X171959100Y-64378077D01*
X171781686Y-64287679D01*
X171592314Y-64226147D01*
X171395655Y-64195000D01*
X171196529Y-64195000D01*
X170999869Y-64226147D01*
X170810497Y-64287679D01*
X170633082Y-64378077D01*
X170595227Y-64405580D01*
X170595227Y-64405581D01*
X171158517Y-64968871D01*
X171099239Y-64984755D01*
X170982945Y-65051898D01*
X170887990Y-65146853D01*
X170820847Y-65263147D01*
X170804963Y-65322425D01*
X170241673Y-64759135D01*
X170241672Y-64759135D01*
X170214169Y-64796990D01*
X170123771Y-64974405D01*
X170062239Y-65163777D01*
X170031092Y-65360436D01*
X170031092Y-65559563D01*
X170062239Y-65756222D01*
X170123771Y-65945594D01*
X170214169Y-66123008D01*
X170241672Y-66160863D01*
X170241673Y-66160864D01*
X170804963Y-65597574D01*
X170820847Y-65656853D01*
X170887990Y-65773147D01*
X170982945Y-65868102D01*
X171099239Y-65935245D01*
X171158517Y-65951128D01*
X170595226Y-66514417D01*
X170595518Y-66518119D01*
X170632063Y-66565511D01*
X170638042Y-66635124D01*
X170605437Y-66696920D01*
X170544598Y-66731277D01*
X170516515Y-66734500D01*
X170483223Y-66734500D01*
X170483215Y-66734501D01*
X170423608Y-66740908D01*
X170288763Y-66791202D01*
X170288756Y-66791206D01*
X170173547Y-66877452D01*
X170173544Y-66877455D01*
X170087298Y-66992664D01*
X170087294Y-66992671D01*
X170037000Y-67127517D01*
X170030593Y-67187116D01*
X170030593Y-67187123D01*
X170030592Y-67187135D01*
X164500500Y-67187135D01*
X164500500Y-56567255D01*
X169990592Y-56567255D01*
X169990592Y-56772744D01*
X170022738Y-56975706D01*
X170022738Y-56975709D01*
X170086236Y-57171135D01*
X170114470Y-57226547D01*
X170179528Y-57354231D01*
X170300312Y-57520476D01*
X170445616Y-57665780D01*
X170445619Y-57665782D01*
X170471112Y-57684304D01*
X170513778Y-57739634D01*
X170519757Y-57809247D01*
X170487151Y-57871042D01*
X170426312Y-57905400D01*
X170411483Y-57907911D01*
X170383611Y-57910907D01*
X170248763Y-57961202D01*
X170248756Y-57961206D01*
X170133547Y-58047452D01*
X170133544Y-58047455D01*
X170047298Y-58162664D01*
X170047294Y-58162671D01*
X169997000Y-58297517D01*
X169990593Y-58357116D01*
X169990593Y-58357123D01*
X169990592Y-58357135D01*
X169990592Y-60062870D01*
X169990593Y-60062876D01*
X169997000Y-60122483D01*
X170047294Y-60257328D01*
X170047298Y-60257335D01*
X170133544Y-60372544D01*
X170133547Y-60372547D01*
X170248756Y-60458793D01*
X170248763Y-60458797D01*
X170383609Y-60509091D01*
X170383608Y-60509091D01*
X170390536Y-60509835D01*
X170443219Y-60515500D01*
X172148964Y-60515499D01*
X172208575Y-60509091D01*
X172343423Y-60458796D01*
X172458638Y-60372546D01*
X172544888Y-60257331D01*
X172595183Y-60122483D01*
X172601592Y-60062873D01*
X172601591Y-58357128D01*
X172595183Y-58297517D01*
X172550786Y-58178483D01*
X172544889Y-58162671D01*
X172544885Y-58162664D01*
X172458639Y-58047455D01*
X172458636Y-58047452D01*
X172343427Y-57961206D01*
X172343420Y-57961202D01*
X172208575Y-57910908D01*
X172180697Y-57907911D01*
X172116146Y-57881172D01*
X172076300Y-57823778D01*
X172073808Y-57753953D01*
X172109461Y-57693865D01*
X172121060Y-57684312D01*
X172146568Y-57665780D01*
X172291872Y-57520476D01*
X172412656Y-57354231D01*
X172505946Y-57171138D01*
X172537819Y-57073042D01*
X172569445Y-56975709D01*
X172569445Y-56975708D01*
X172569446Y-56975705D01*
X172601592Y-56772745D01*
X172601592Y-56567255D01*
X172569446Y-56364295D01*
X172569445Y-56364291D01*
X172569445Y-56364290D01*
X172505947Y-56168864D01*
X172471184Y-56100638D01*
X172412656Y-55985769D01*
X172291872Y-55819524D01*
X172146568Y-55674220D01*
X171980323Y-55553436D01*
X171895475Y-55510204D01*
X171844679Y-55462230D01*
X171827884Y-55394409D01*
X171850421Y-55328274D01*
X171895476Y-55289234D01*
X171980058Y-55246137D01*
X171980059Y-55246137D01*
X172025592Y-55213054D01*
X172025592Y-55213053D01*
X171454078Y-54641539D01*
X171502594Y-54628540D01*
X171624589Y-54558106D01*
X171724198Y-54458497D01*
X171794632Y-54336502D01*
X171807631Y-54287986D01*
X172379145Y-54859500D01*
X172379146Y-54859500D01*
X172412227Y-54813969D01*
X172505483Y-54630946D01*
X172505484Y-54630943D01*
X172568957Y-54435589D01*
X172601092Y-54232705D01*
X172601092Y-54027294D01*
X172568957Y-53824410D01*
X172505484Y-53629056D01*
X172505483Y-53629053D01*
X172412227Y-53446030D01*
X172379145Y-53400498D01*
X172379145Y-53400497D01*
X171807631Y-53972012D01*
X171794632Y-53923498D01*
X171724198Y-53801503D01*
X171624589Y-53701894D01*
X171502594Y-53631460D01*
X171454078Y-53618459D01*
X172025593Y-53046945D01*
X171980061Y-53013864D01*
X171797038Y-52920608D01*
X171797035Y-52920607D01*
X171601681Y-52857134D01*
X171398797Y-52825000D01*
X171193387Y-52825000D01*
X170990502Y-52857134D01*
X170795148Y-52920607D01*
X170795145Y-52920608D01*
X170612126Y-53013862D01*
X170566590Y-53046945D01*
X171138105Y-53618459D01*
X171089590Y-53631460D01*
X170967595Y-53701894D01*
X170867986Y-53801503D01*
X170797552Y-53923498D01*
X170784552Y-53972013D01*
X170213037Y-53400498D01*
X170179954Y-53446034D01*
X170086700Y-53629053D01*
X170086699Y-53629056D01*
X170023226Y-53824410D01*
X169991092Y-54027294D01*
X169991092Y-54232705D01*
X170023226Y-54435589D01*
X170086699Y-54630943D01*
X170086700Y-54630946D01*
X170179956Y-54813969D01*
X170213037Y-54859500D01*
X170213037Y-54859501D01*
X170784552Y-54287986D01*
X170797552Y-54336502D01*
X170867986Y-54458497D01*
X170967595Y-54558106D01*
X171089590Y-54628540D01*
X171138104Y-54641539D01*
X170566589Y-55213053D01*
X170612122Y-55246135D01*
X170696708Y-55289234D01*
X170747504Y-55337208D01*
X170764299Y-55405029D01*
X170741762Y-55471164D01*
X170696708Y-55510204D01*
X170611860Y-55553436D01*
X170445613Y-55674222D01*
X170300314Y-55819521D01*
X170179528Y-55985768D01*
X170086236Y-56168864D01*
X170022738Y-56364290D01*
X170022738Y-56364293D01*
X169990592Y-56567255D01*
X164500500Y-56567255D01*
X164500500Y-47552255D01*
X169990592Y-47552255D01*
X169990592Y-47757744D01*
X170022738Y-47960706D01*
X170022738Y-47960709D01*
X170086236Y-48156135D01*
X170128279Y-48238649D01*
X170179528Y-48339231D01*
X170300312Y-48505476D01*
X170445616Y-48650780D01*
X170445619Y-48650782D01*
X170471112Y-48669304D01*
X170513778Y-48724634D01*
X170519757Y-48794247D01*
X170487151Y-48856042D01*
X170426312Y-48890400D01*
X170411483Y-48892911D01*
X170383611Y-48895907D01*
X170248763Y-48946202D01*
X170248756Y-48946206D01*
X170133547Y-49032452D01*
X170133544Y-49032455D01*
X170047298Y-49147664D01*
X170047294Y-49147671D01*
X169997000Y-49282517D01*
X169990593Y-49342116D01*
X169990593Y-49342123D01*
X169990592Y-49342135D01*
X169990592Y-51047870D01*
X169990593Y-51047876D01*
X169997000Y-51107483D01*
X170047294Y-51242328D01*
X170047298Y-51242335D01*
X170133544Y-51357544D01*
X170133547Y-51357547D01*
X170248756Y-51443793D01*
X170248763Y-51443797D01*
X170383609Y-51494091D01*
X170383608Y-51494091D01*
X170390536Y-51494835D01*
X170443219Y-51500500D01*
X172148964Y-51500499D01*
X172208575Y-51494091D01*
X172343423Y-51443796D01*
X172458638Y-51357546D01*
X172544888Y-51242331D01*
X172595183Y-51107483D01*
X172601592Y-51047873D01*
X172601591Y-50538394D01*
X181645592Y-50538394D01*
X181645592Y-50542452D01*
X181645592Y-74161611D01*
X181669627Y-74282444D01*
X181669632Y-74282461D01*
X181716777Y-74396280D01*
X181716779Y-74396283D01*
X181716780Y-74396286D01*
X181751007Y-74447509D01*
X181785234Y-74498733D01*
X181872359Y-74585858D01*
X181872362Y-74585860D01*
X181879646Y-74593144D01*
X182982108Y-75695606D01*
X182982137Y-75695637D01*
X183072355Y-75785855D01*
X183072359Y-75785858D01*
X183174799Y-75854307D01*
X183174805Y-75854310D01*
X183174806Y-75854311D01*
X183288640Y-75901463D01*
X183349063Y-75913481D01*
X183409485Y-75925500D01*
X183409486Y-75925500D01*
X185071731Y-75925500D01*
X185138770Y-75945185D01*
X185159413Y-75961820D01*
X185197053Y-75999461D01*
X185197057Y-75999464D01*
X185344538Y-76098009D01*
X185344551Y-76098016D01*
X185431677Y-76134104D01*
X185508426Y-76165894D01*
X185508428Y-76165894D01*
X185508433Y-76165896D01*
X185682396Y-76200499D01*
X185682399Y-76200500D01*
X185682401Y-76200500D01*
X185859785Y-76200500D01*
X185859786Y-76200499D01*
X185917774Y-76188964D01*
X186033750Y-76165896D01*
X186033753Y-76165894D01*
X186033758Y-76165894D01*
X186197639Y-76098013D01*
X186345127Y-75999464D01*
X186470556Y-75874035D01*
X186569105Y-75726547D01*
X186636986Y-75562666D01*
X186656236Y-75465893D01*
X186669738Y-75398013D01*
X186671592Y-75388691D01*
X186671592Y-75211309D01*
X186671592Y-75211306D01*
X186671591Y-75211304D01*
X186636988Y-75037341D01*
X186636985Y-75037332D01*
X186569108Y-74873459D01*
X186569101Y-74873446D01*
X186470556Y-74725965D01*
X186470553Y-74725961D01*
X186345130Y-74600538D01*
X186345126Y-74600535D01*
X186197645Y-74501990D01*
X186197632Y-74501983D01*
X186033759Y-74434106D01*
X186033750Y-74434103D01*
X185859786Y-74399500D01*
X185859783Y-74399500D01*
X185682401Y-74399500D01*
X185682398Y-74399500D01*
X185508433Y-74434103D01*
X185508424Y-74434106D01*
X185344551Y-74501983D01*
X185344538Y-74501990D01*
X185197057Y-74600535D01*
X185197053Y-74600538D01*
X185159413Y-74638180D01*
X185098091Y-74671666D01*
X185071731Y-74674500D01*
X183781544Y-74674500D01*
X183714505Y-74654815D01*
X183693863Y-74638181D01*
X182932911Y-73877229D01*
X182899426Y-73815906D01*
X182896592Y-73789548D01*
X182896592Y-50910452D01*
X182916277Y-50843413D01*
X182932911Y-50822771D01*
X188212576Y-45543106D01*
X193520244Y-40235437D01*
X193581565Y-40201954D01*
X193627316Y-40200647D01*
X193774761Y-40224000D01*
X193774762Y-40224000D01*
X193967422Y-40224000D01*
X193967423Y-40224000D01*
X194157713Y-40193861D01*
X194340945Y-40134325D01*
X194512608Y-40046859D01*
X194668475Y-39933615D01*
X194804707Y-39797383D01*
X194917951Y-39641516D01*
X195005417Y-39469853D01*
X195064953Y-39286621D01*
X195095092Y-39096331D01*
X195095092Y-38903669D01*
X195064953Y-38713379D01*
X195005417Y-38530147D01*
X194917951Y-38358484D01*
X194804707Y-38202617D01*
X194668475Y-38066385D01*
X194512608Y-37953141D01*
X194340949Y-37865676D01*
X194285525Y-37847668D01*
X194227850Y-37808230D01*
X194200652Y-37743871D01*
X194212567Y-37675025D01*
X194259812Y-37623549D01*
X194285527Y-37611806D01*
X194340747Y-37593864D01*
X194340753Y-37593862D01*
X194512348Y-37506429D01*
X194512352Y-37506427D01*
X194542244Y-37484707D01*
X194542245Y-37484706D01*
X193971924Y-36914385D01*
X194050575Y-36893311D01*
X194156608Y-36832092D01*
X194243184Y-36745516D01*
X194304403Y-36639483D01*
X194325477Y-36560831D01*
X194895798Y-37131153D01*
X194895799Y-37131152D01*
X194917519Y-37101260D01*
X194917521Y-37101256D01*
X195004954Y-36929661D01*
X195004955Y-36929658D01*
X195064464Y-36746508D01*
X195064464Y-36746505D01*
X195094592Y-36556291D01*
X195094592Y-36363708D01*
X195064464Y-36173494D01*
X195064464Y-36173491D01*
X195004955Y-35990341D01*
X195004954Y-35990338D01*
X194917523Y-35818746D01*
X194895798Y-35788846D01*
X194895798Y-35788845D01*
X194325477Y-36359167D01*
X194304403Y-36280517D01*
X194243184Y-36174484D01*
X194156608Y-36087908D01*
X194050575Y-36026689D01*
X193971924Y-36005614D01*
X194542245Y-35435292D01*
X194512346Y-35413569D01*
X194340753Y-35326137D01*
X194340750Y-35326136D01*
X194157598Y-35266627D01*
X193967383Y-35236500D01*
X193774801Y-35236500D01*
X193584586Y-35266627D01*
X193584583Y-35266627D01*
X193401433Y-35326136D01*
X193401430Y-35326137D01*
X193229835Y-35413570D01*
X193199938Y-35435291D01*
X193199938Y-35435292D01*
X193770260Y-36005614D01*
X193691609Y-36026689D01*
X193585576Y-36087908D01*
X193499000Y-36174484D01*
X193437781Y-36280517D01*
X193416706Y-36359168D01*
X192846384Y-35788846D01*
X192846383Y-35788846D01*
X192824662Y-35818743D01*
X192737229Y-35990338D01*
X192737228Y-35990341D01*
X192677719Y-36173491D01*
X192677719Y-36173494D01*
X192647592Y-36363708D01*
X192647592Y-36556291D01*
X192677719Y-36746505D01*
X192677719Y-36746508D01*
X192737228Y-36929658D01*
X192737229Y-36929661D01*
X192824661Y-37101254D01*
X192846384Y-37131152D01*
X192846385Y-37131153D01*
X193416706Y-36560831D01*
X193437781Y-36639483D01*
X193499000Y-36745516D01*
X193585576Y-36832092D01*
X193691609Y-36893311D01*
X193770260Y-36914385D01*
X193199937Y-37484706D01*
X193229838Y-37506431D01*
X193401430Y-37593862D01*
X193401436Y-37593864D01*
X193456656Y-37611806D01*
X193514332Y-37651243D01*
X193541531Y-37715601D01*
X193529617Y-37784448D01*
X193482373Y-37835924D01*
X193456659Y-37847667D01*
X193401238Y-37865675D01*
X193229575Y-37953141D01*
X193140648Y-38017750D01*
X193073709Y-38066385D01*
X193073707Y-38066387D01*
X193073706Y-38066387D01*
X192937479Y-38202614D01*
X192937479Y-38202615D01*
X192937477Y-38202617D01*
X192937475Y-38202620D01*
X192824233Y-38358483D01*
X192736768Y-38530144D01*
X192677230Y-38713381D01*
X192647092Y-38903669D01*
X192647092Y-39096331D01*
X192647091Y-39096331D01*
X192670443Y-39243770D01*
X192661488Y-39313063D01*
X192635651Y-39350848D01*
X181872361Y-50114140D01*
X181785236Y-50201264D01*
X181785230Y-50201272D01*
X181716782Y-50303708D01*
X181716780Y-50303713D01*
X181669632Y-50417538D01*
X181669630Y-50417545D01*
X181669629Y-50417548D01*
X181669629Y-50417549D01*
X181649097Y-50520775D01*
X181645592Y-50538394D01*
X172601591Y-50538394D01*
X172601591Y-50184070D01*
X172601591Y-49342129D01*
X172601590Y-49342123D01*
X172601589Y-49342116D01*
X172595183Y-49282517D01*
X172593955Y-49279225D01*
X172544889Y-49147671D01*
X172544885Y-49147664D01*
X172458639Y-49032455D01*
X172458636Y-49032452D01*
X172343427Y-48946206D01*
X172343420Y-48946202D01*
X172208575Y-48895908D01*
X172180697Y-48892911D01*
X172116146Y-48866172D01*
X172076300Y-48808778D01*
X172073808Y-48738953D01*
X172109461Y-48678865D01*
X172121060Y-48669312D01*
X172146568Y-48650780D01*
X172291872Y-48505476D01*
X172412656Y-48339231D01*
X172505946Y-48156138D01*
X172529883Y-48082467D01*
X172569445Y-47960709D01*
X172569445Y-47960708D01*
X172569446Y-47960705D01*
X172601592Y-47757745D01*
X172601592Y-47552255D01*
X172569446Y-47349295D01*
X172569445Y-47349291D01*
X172569445Y-47349290D01*
X172505947Y-47153864D01*
X172505946Y-47153862D01*
X172412656Y-46970769D01*
X172291872Y-46804524D01*
X172146568Y-46659220D01*
X171980323Y-46538436D01*
X171895475Y-46495204D01*
X171844679Y-46447230D01*
X171827884Y-46379409D01*
X171850421Y-46313274D01*
X171895476Y-46274234D01*
X171980058Y-46231137D01*
X171980059Y-46231137D01*
X172025592Y-46198054D01*
X172025592Y-46198053D01*
X171454078Y-45626539D01*
X171502594Y-45613540D01*
X171624589Y-45543106D01*
X171724198Y-45443497D01*
X171794632Y-45321502D01*
X171807631Y-45272986D01*
X172379145Y-45844500D01*
X172379146Y-45844500D01*
X172412227Y-45798969D01*
X172505483Y-45615946D01*
X172505484Y-45615943D01*
X172568957Y-45420589D01*
X172601092Y-45217705D01*
X172601092Y-45012294D01*
X172568957Y-44809410D01*
X172505484Y-44614056D01*
X172505483Y-44614053D01*
X172412227Y-44431030D01*
X172379145Y-44385498D01*
X172379145Y-44385497D01*
X171807631Y-44957012D01*
X171794632Y-44908498D01*
X171724198Y-44786503D01*
X171624589Y-44686894D01*
X171502594Y-44616460D01*
X171454078Y-44603459D01*
X172025593Y-44031945D01*
X171980061Y-43998864D01*
X171797038Y-43905608D01*
X171797035Y-43905607D01*
X171601681Y-43842134D01*
X171398797Y-43810000D01*
X171193387Y-43810000D01*
X170990502Y-43842134D01*
X170795148Y-43905607D01*
X170795145Y-43905608D01*
X170612126Y-43998862D01*
X170566590Y-44031945D01*
X171138105Y-44603459D01*
X171089590Y-44616460D01*
X170967595Y-44686894D01*
X170867986Y-44786503D01*
X170797552Y-44908498D01*
X170784552Y-44957013D01*
X170213037Y-44385498D01*
X170179954Y-44431034D01*
X170086700Y-44614053D01*
X170086699Y-44614056D01*
X170023226Y-44809410D01*
X169991092Y-45012294D01*
X169991092Y-45217705D01*
X170023226Y-45420589D01*
X170086699Y-45615943D01*
X170086700Y-45615946D01*
X170179956Y-45798969D01*
X170213037Y-45844500D01*
X170213037Y-45844501D01*
X170784552Y-45272986D01*
X170797552Y-45321502D01*
X170867986Y-45443497D01*
X170967595Y-45543106D01*
X171089590Y-45613540D01*
X171138104Y-45626539D01*
X170566589Y-46198053D01*
X170612122Y-46231135D01*
X170696708Y-46274234D01*
X170747504Y-46322208D01*
X170764299Y-46390029D01*
X170741762Y-46456164D01*
X170696708Y-46495204D01*
X170611860Y-46538436D01*
X170445613Y-46659222D01*
X170300314Y-46804521D01*
X170179528Y-46970768D01*
X170086236Y-47153864D01*
X170022738Y-47349290D01*
X170022738Y-47349293D01*
X169990592Y-47552255D01*
X164500500Y-47552255D01*
X164500500Y-39974038D01*
X183070592Y-39974038D01*
X183070592Y-40225962D01*
X183107915Y-40461606D01*
X183110002Y-40474785D01*
X183187852Y-40714383D01*
X183233369Y-40803714D01*
X183291374Y-40917555D01*
X183302224Y-40938848D01*
X183450293Y-41142649D01*
X183450297Y-41142654D01*
X183628437Y-41320794D01*
X183628442Y-41320798D01*
X183751841Y-41410452D01*
X183832247Y-41468870D01*
X183975276Y-41541747D01*
X184056708Y-41583239D01*
X184056710Y-41583239D01*
X184056713Y-41583241D01*
X184296307Y-41661090D01*
X184545130Y-41700500D01*
X184545131Y-41700500D01*
X184797053Y-41700500D01*
X184797054Y-41700500D01*
X185045877Y-41661090D01*
X185285471Y-41583241D01*
X185509937Y-41468870D01*
X185713748Y-41320793D01*
X185891885Y-41142656D01*
X186039962Y-40938845D01*
X186154333Y-40714379D01*
X186232182Y-40474785D01*
X186271592Y-40225962D01*
X186271592Y-39974038D01*
X186232182Y-39725215D01*
X186154333Y-39485621D01*
X186154331Y-39485618D01*
X186154331Y-39485616D01*
X186085663Y-39350849D01*
X186039962Y-39261155D01*
X185920210Y-39096330D01*
X185891890Y-39057350D01*
X185891886Y-39057345D01*
X185713746Y-38879205D01*
X185713741Y-38879201D01*
X185509940Y-38731132D01*
X185509939Y-38731131D01*
X185509937Y-38731130D01*
X185439839Y-38695413D01*
X185285475Y-38616760D01*
X185045877Y-38538910D01*
X184889499Y-38514142D01*
X184797054Y-38499500D01*
X184545130Y-38499500D01*
X184452685Y-38514142D01*
X184296306Y-38538910D01*
X184056708Y-38616760D01*
X183832243Y-38731132D01*
X183628442Y-38879201D01*
X183628437Y-38879205D01*
X183450297Y-39057345D01*
X183450293Y-39057350D01*
X183302224Y-39261151D01*
X183187852Y-39485616D01*
X183125793Y-39676615D01*
X183110002Y-39725215D01*
X183070592Y-39974038D01*
X164500500Y-39974038D01*
X164500500Y-30624500D01*
X164520185Y-30557461D01*
X164572989Y-30511706D01*
X164624500Y-30500500D01*
X241675500Y-30500500D01*
X241742539Y-30520185D01*
G37*
%TD.AperFunction*%
%TD*%
M02*
