<?xml version="1.0" standalone="no"?>
<!DOCTYPE svg PUBLIC "-//W3C//DTD SVG 1.0//EN" "http://www.w3.org/TR/2001/REC-SVG-20010904/DTD/svg10.dtd">
<svg xmlns="http://www.w3.org/2000/svg" xmlns:xlink="http://www.w3.org/1999/xlink" id="body_1976630216_10667" width="1058.5599365234375" height="1496.320068359375">

<g transform="matrix(5.8555332347064022 0 0 -5.8555332347064022 117.3227079060353 1492.4296149193106)" >
    <g>
            <path d="M69.293030000000002 250.087524L110.84848 254.21069299999999" stroke="#000000" stroke-width="0.16915623843669891" stroke-linecap="round" stroke-linejoin="round" fill="none" />
            <path d="M99.424437999999995 42.789337000000003L69.293030000000002 250.087524" stroke="#000000" stroke-width="0.16915623843669891" stroke-linecap="round" stroke-linejoin="round" fill="none" />
            <path d="M140.70700099999999 48.789856L99.424437999999995 42.789337000000003" stroke="#000000" stroke-width="0.16915623843669891" stroke-linecap="round" stroke-linejoin="round" fill="none" />
            <path d="M88.585534904632567 181.84137000000001L88.580419395599364 181.98785859202863L88.56509790245056 182.13363350784303L88.539644811782836 182.27798454319955L88.504184578094481 182.42020840799333L88.458889458808898 182.55961228763582L88.403980348739623 182.69551689779283L88.339724872741698 182.82726020967485L88.266435955200194 182.95420040046693L88.184470627937316 183.07571901237489L88.094228242073058 183.19122387325288L87.996148560676573 183.3001525536728L87.890709255371092 183.401974095459L87.778423998985289 183.49619246875764L87.659840081367491 183.58234883701326L87.535534952316283 183.66002322589875L87.406114373836516 183.72883738433839L87.27220878425598 183.78845597660066L87.134470675621031 183.83858860885621L86.993570957813262 183.87899102127076L86.850196157131194 183.90946616088868L86.705044765505789 183.92986596977235L86.558823939893244 183.94009055053712L86.412246060106753 183.94009055053712L86.266025234494208 183.92986596977235L86.120873842868804 183.90946616088868L85.977499042186736 183.87899102127076L85.836599324378966 183.83858860885621L85.698861215744017 183.78845597660066L85.564955626163481 183.72883738433839L85.435535047683715 183.66002322589875L85.311229918632506 183.58234883701326L85.192646001014708 183.49619246875764L85.080360744628905 183.401974095459L84.974921439323424 183.3001525536728L84.87684175792694 183.19122387325288L84.786599372062682 183.07571901237489L84.704634044799803 182.95420040046693L84.631345127258299 182.82726020967485L84.567089651260375 182.69551689779283L84.5121805411911 182.55961228763582L84.466885421905516 182.42020840799333L84.431425188217162 182.27798454319955L84.405972097549437 182.13363350784303L84.390650604400633 181.98785859202863L84.38553509536743 181.84137000000001L84.390650604400633 181.69488140797139L84.405972097549437 181.54910649215699L84.431425188217162 181.40475545680047L84.466885421905516 181.2625315920067L84.5121805411911 181.12312771236421L84.567089651260375 180.9872231022072L84.631345127258299 180.85547979032518L84.704634044799803 180.72853959953309L84.786599372062682 180.60702098762513L84.87684175792694 180.49151612674714L84.974921439323424 180.38258744632722L85.080360744628905 180.28076590454103L85.192646001014708 180.18654753124238L85.311229918632506 180.10039116298677L85.435535047683715 180.02271677410127L85.564955626163481 179.95390261566163L85.698861215744017 179.89428402339936L85.836599324378966 179.84415139114381L85.977499042186736 179.80374897872926L86.120873842868804 179.77327383911134L86.266025234494208 179.75287403022767L86.412246060106753 179.7426494494629L86.558823939893244 179.7426494494629L86.705044765505789 179.75287403022767L86.850196157131194 179.77327383911134L86.993570957813262 179.80374897872926L87.134470675621031 179.84415139114381L87.27220878425598 179.89428402339936L87.406114373836516 179.95390261566163L87.535534952316283 180.02271677410127L87.659840081367491 180.10039116298677L87.778423998985289 180.18654753124238L87.890709255371092 180.28076590454103L87.996148560676573 180.38258744632722L88.094228242073058 180.49151612674714L88.184470627937316 180.60702098762513L88.266435955200194 180.72853959953309L88.339724872741698 180.85547979032518L88.403980348739623 180.9872231022072L88.458889458808898 181.12312771236421L88.504184578094481 181.2625315920067L88.539644811782836 181.40475545680047L88.56509790245056 181.54910649215699L88.585534904632567 181.84137000000001" stroke="#000000" stroke-width="0.16915623843669891" stroke-linecap="round" stroke-linejoin="round" fill="none" />
            <path d="M113.168854 238.24688699999999L113.036469 239.157715" stroke="#000000" stroke-width="0.16915623843669891" stroke-linecap="round" stroke-linejoin="round" fill="none" />
            <path d="M110.84848 254.21069299999999L113.036469 239.157715" stroke="#000000" stroke-width="0.16915623843669891" stroke-linecap="round" stroke-linejoin="round" fill="none" />
            <path d="M99.248709843493771 232.26487885350298L98.76584112270038 231.39477121822742L98.343793368140709 230.49378186526943L97.984624085965862 229.56629964107668L97.690082039388486 228.61684391771277L97.461603324081423 227.65003953626629L97.300299767630122 226.6705974922649L97.206957957117055 225.68328923771898L97.182032359730186 224.69292411378396L97.225644863499653 223.70432821163638L97.337582638689696 222.72231673283952L97.517300582954945 221.75167583377265L97.763922207412463 220.79713261310854L98.076246825078101 219.86333744477457L98.452753302103361 218.95484058807344L98.891606261658296 218.07606732471851L99.390668833196173 217.23130028929839L99.947508365307939 216.42465378876352L100.55941277419799 215.66005842102842L101.22340034677819 214.94123850014452L101.93623698894646 214.27169724693653L102.69444934125055 213.65469556200719L103.4943435002521 213.0932396690196L104.33202254222864 212.59006502744583L105.20340521338029 212.14762288209727L106.10424655299298 211.768068989097L107.03015769905296 211.45325283288088L107.97662705353534 211.20470713902949L108.93904416953674 211.02364353959013L109.91272051900742 210.91094454961666L110.85724073634069 210.86753898092891" stroke="#000000" stroke-width="0.16915623843669891" stroke-linecap="round" stroke-linejoin="round" fill="none" />
            <path d="M111.1471053515467 238.41910942126893L110.16510913055436 238.39627345987208L109.1859869279576 238.30442078118384L108.2145071464881 238.14399743711596L107.2554044489296 237.91578548786117L106.31334982985784 237.62089759307065L105.39293499950406 237.26076858280763L104.49864196300362 236.83715479159517L103.63482838816932 236.35211892404342L102.80570381084546 235.80802374884743L102.01530551479476 235.2075215402603L101.26748680354538 234.55353636886861L100.56588564338584 233.84925259983896L99.913927324411105 233.0981063482582L99.314785587742165 232.30375402091573L99.007397610790306 231.8476102485281" stroke="#000000" stroke-width="0.16915623843669891" stroke-linecap="round" stroke-linejoin="round" fill="none" />
            <path d="M113.16886019831848 238.24686789135743L112.36334514743042 238.3512189350586L111.55311024314118 238.40831255535889L111.14708736664009 238.41907095532227" stroke="#000000" stroke-width="0.16915623843669891" stroke-linecap="round" stroke-linejoin="round" fill="none" />
            <path d="M110.85726390959358 210.86712008990477L111.84116222144699 210.89070254840087L112.82101889134979 210.98285991229247L113.79205997468567 211.14314395465087L114.74955471040344 211.37077456988524L115.68883879663086 211.6646416810913L116.60533507348633 212.02331477679442L116.95746214868164 212.18124991931151" stroke="#000000" stroke-width="0.16915623843669891" stroke-linecap="round" stroke-linejoin="round" fill="none" />
            <path d="M116.957626 212.18090799999999L133.64021299999999 97.407989999999998" stroke="#000000" stroke-width="0.16915623843669891" stroke-linecap="round" stroke-linejoin="round" fill="none" />
            <path d="M133.64022240407348 97.407960336898938L132.67511830838492 97.216523027250702L131.72306148605605 96.938978954762632L130.78869078522271 96.576678018867113L129.87655798471619 96.131388975234742L128.99110712053502 95.605278269572636L128.13665181995813 95.000911742734331L127.31735500265438 94.321231560437468L126.53720795175607 93.569550304179302L125.80001286736562 92.749528880127073L125.1093591363047 91.86516390904282L124.46861306342973 90.920762838105674L123.88089512906591 89.920927524803446L123.34906972883469 88.870528395118612L122.87572725034225 87.774682348162514L122.46317474110688 86.638729783782424L122.11341997338518 85.468203464674886L121.82816972842197 84.268807042544111L121.60881191569931 83.046388194554666L121.45641502362552 81.806893317093767L121.37172241686959 80.556365329016828L121.35381297987914 79.417338741183272" stroke="#000000" stroke-width="0.16915623843669891" stroke-linecap="round" stroke-linejoin="round" fill="none" />
            <path d="M121.35380336608887 79.417339981257442L121.37512943115235 78.609490529357913L121.42473766174317 77.802889839469913L121.46013042297363 77.400358811676028" stroke="#000000" stroke-width="0.16915623843669891" stroke-linecap="round" stroke-linejoin="round" fill="none" />
            <path d="M139.43867499999999 57.515746999999998L140.70700099999999 48.789856" stroke="#000000" stroke-width="0.16915623843669891" stroke-linecap="round" stroke-linejoin="round" fill="none" />
            <path d="M121.35381078454589 79.417342946588519L121.37513684960936 78.609511629402164L121.42474317285155 77.802916661560062L121.46013211938475 77.400397673904422" stroke="#000000" stroke-width="0.16915623843669891" stroke-linecap="round" stroke-linejoin="round" fill="none" />
            <path d="M139.43867499999999 57.515746999999998L135.41995199999999 57.515746999999998" stroke="#000000" stroke-width="0.16915623843669891" stroke-linecap="round" stroke-linejoin="round" fill="none" />
            <path d="M121.46015968751757 77.400407389592957L121.39569314517762 76.147772280660277L121.39940199002201 74.892014332542047L121.47126690164603 73.639251407428162L121.61094061142549 72.395586936102859L121.81773958579353 71.167080040200517L122.09065860131105 69.959715352132775L122.42836622253849 68.779375406477939L122.82921842107589 67.631810719606165L123.29126168332336 66.52261215976236L123.81224565034844 65.457183879088291L124.3896319517206 64.440715257960008L125.0206067857938 63.478160512464193L125.70209645878764 62.57420736059327L126.43078184255025 61.73325998447315L127.20311192975768 60.959416262261023L128.0153235792373 60.256446009008116L128.86346074191226 59.627773981448129L129.74339082583731 59.076462857249254L130.65082676602802 58.60519817261158L131.58134836203882 58.216275160753057L132.5304216571954 57.911591295189154L133.4934229327211 57.692629337081883L134.46566065839662 57.560455623745725L135.41994501524655 57.515758283302347" stroke="#000000" stroke-width="0.16915623843669891" stroke-linecap="round" stroke-linejoin="round" fill="none" />
    </g>
</g>
</svg>