<?xml version="1.0" encoding="utf-8" ?><!DOCTYPE svg PUBLIC "-//W3C//DTD SVG 1.1//EN" "http://www.w3.org/Graphics/SVG/1.1/DTD/svg11.dtd" 
[ <!ATTLIST svg 
  xmlns:dsy CDATA #FIXED "http://www.3ds.com/print"  
    dsy:text-version CDATA #IMPLIED > 

  <!ATTLIST text 
  xmlns:dsy CDATA #FIXED "http://www.3ds.com/print" 
    dsy:text-version CDATA #IMPLIED > 
]><svg xmlns="http://www.w3.org/2000/svg" xmlns:dsy="http://www.3ds.com/print" dsy:text-version="18000" width="594" height="420" viewBox="0 0 594 420" version="1.1"><g stroke="rgb(0, 0, 0)" stroke-width="0.35" stroke-linecap="butt" stroke-linejoin="miter" fill="none"><path d="M 123 218 L 123 202"/><path d="M 123 218 A 8 8 0 0 0 131 226"/><path d="M 463 226 L 131 226"/><path d="M 463 226 A 8 8 0 0 0 471 218"/><path d="M 471 202 L 471 218"/><path d="M 471 202 A 8 8 0 0 0 463 194"/><path d="M 463 194 L 397.5 194"/><path d="M 397.5 194 L 397.5 204"/><path d="M 397.5 204 L 393 204"/><path d="M 393 204 L 393 194"/><path d="M 393 194 L 287.5 194"/><path d="M 287.5 194 L 287.5 204"/><path d="M 287.5 204 L 283 204"/><path d="M 283 204 L 283 194"/><path d="M 283 194 L 131 194"/><path d="M 131 194 A 8 8 0 0 0 123 202"/><circle cx="459.167" cy="205.258" r="3.10001"/><circle cx="130.678" cy="210.023" r="3.10001"/><path d="M 457.24 214.83 L 460.63 219.78"/><path d="M 460.63 219.78 L 459.805 220.345"/><path d="M 459.805 220.345 L 456.415 215.395"/><path d="M 457.24 214.83 L 456.415 215.395"/><path d="M 135.786 216.534 L 134.988 215.931"/><path d="M 132.171 221.323 L 135.786 216.534"/><path d="M 131.373 220.72 L 132.171 221.323"/><path d="M 134.988 215.931 L 131.373 220.72"/></g></svg>