<?xml version="1.0" encoding="utf-8" ?><!DOCTYPE svg PUBLIC "-//W3C//DTD SVG 1.1//EN" "http://www.w3.org/Graphics/SVG/1.1/DTD/svg11.dtd" 
[ <!ATTLIST svg 
  xmlns:dsy CDATA #FIXED "http://www.3ds.com/print"  
    dsy:text-version CDATA #IMPLIED > 

  <!ATTLIST text 
  xmlns:dsy CDATA #FIXED "http://www.3ds.com/print" 
    dsy:text-version CDATA #IMPLIED > 
]><svg xmlns="http://www.w3.org/2000/svg" xmlns:dsy="http://www.3ds.com/print" dsy:text-version="18000" width="594" height="420" viewBox="0 0 594 420" version="1.1"><g stroke="rgb(0, 0, 0)" stroke-width="0.35" stroke-linecap="butt" stroke-linejoin="miter" fill="none"><path d="M 374.5 180.453 L 219.5 180.453"/><path d="M 219.5 180.453 A 8 8 0 0 0 211.5 188.453"/><path d="M 211.5 188.453 L 211.5 212.453"/><path d="M 211.5 212.453 A 8 8 0 0 0 219.5 220.453"/><path d="M 219.5 220.453 L 224.5 220.453"/><path d="M 224.5 220.453 L 224.5 210.453"/><path d="M 224.5 210.453 L 229 210.453"/><path d="M 229 210.453 L 229 220.453"/><path d="M 229 220.453 L 305 220.453"/><path d="M 305 220.453 L 305 210.453"/><path d="M 305 210.453 L 309.5 210.453"/><path d="M 309.5 210.453 L 309.5 220.453"/><path d="M 309.5 220.453 L 334.5 220.453"/><path d="M 342.5 228.453 A 8 8 0 0 0 334.5 220.453"/><path d="M 342.5 228.453 L 342.5 239.453"/><path d="M 382.5 188.453 L 382.5 239.453"/><path d="M 382.5 188.453 A 8 8 0 0 0 374.5 180.453"/><path d="M 373.748 239.453 L 382.5 239.453"/><path d="M 342.5 239.453 L 348.751 239.453"/><path d="M 373.749 239.453 A 12.4994 12.4994 0 0 0 353.125 230.264"/><path d="M 353.124 230.263 A 12.5063 12.5063 0 0 0 348.751 239.453"/><path d="M 353.174 230.221 A 12.5062 12.5062 0 0 0 348.849 239.453"/><path d="M 348.751 239.453 L 348.849 239.453"/></g></svg>