%TF.GenerationSoftware,KiCad,Pcbnew,8.0.2*%
%TF.CreationDate,2024-06-17T09:50:20+02:00*%
%TF.ProjectId,BMS,424d532e-6b69-4636-9164-5f7063625858,rev?*%
%TF.SameCoordinates,Original*%
%TF.FileFunction,Copper,L2,Bot*%
%TF.FilePolarity,Positive*%
%FSLAX46Y46*%
G04 Gerber Fmt 4.6, Leading zero omitted, Abs format (unit mm)*
G04 Created by KiCad (PCBNEW 8.0.2) date 2024-06-17 09:50:20*
%MOMM*%
%LPD*%
G01*
G04 APERTURE LIST*
%TA.AperFunction,ComponentPad*%
%ADD10R,2.325000X2.325000*%
%TD*%
%TA.AperFunction,ComponentPad*%
%ADD11C,2.325000*%
%TD*%
%TA.AperFunction,ComponentPad*%
%ADD12C,5.600000*%
%TD*%
%TA.AperFunction,ComponentPad*%
%ADD13R,1.800000X1.800000*%
%TD*%
%TA.AperFunction,ComponentPad*%
%ADD14C,1.800000*%
%TD*%
%TA.AperFunction,ComponentPad*%
%ADD15R,1.950000X1.950000*%
%TD*%
%TA.AperFunction,ComponentPad*%
%ADD16C,1.950000*%
%TD*%
%TA.AperFunction,ComponentPad*%
%ADD17R,1.530000X1.530000*%
%TD*%
%TA.AperFunction,ComponentPad*%
%ADD18C,1.530000*%
%TD*%
%TA.AperFunction,ViaPad*%
%ADD19C,0.500000*%
%TD*%
%TA.AperFunction,ViaPad*%
%ADD20C,0.800000*%
%TD*%
%TA.AperFunction,Conductor*%
%ADD21C,0.400000*%
%TD*%
%TA.AperFunction,Conductor*%
%ADD22C,0.300000*%
%TD*%
%TA.AperFunction,Conductor*%
%ADD23C,0.250000*%
%TD*%
G04 APERTURE END LIST*
D10*
%TO.P,J3,1,Pin_1*%
%TO.N,Net-(J3-Pin_1)*%
X163000000Y-68155000D03*
D11*
%TO.P,J3,2,Pin_2*%
%TO.N,Net-(J3-Pin_2)*%
X165540000Y-68155000D03*
%TD*%
D12*
%TO.P,,1*%
%TO.N,N/C*%
X203750000Y-113250000D03*
%TD*%
%TO.P,,1*%
%TO.N,N/C*%
X69500000Y-113250000D03*
%TD*%
D13*
%TO.P,J5,1,Pin_1*%
%TO.N,/T16*%
X196200000Y-77775000D03*
D14*
%TO.P,J5,2,Pin_2*%
%TO.N,/T15*%
X193660000Y-77775000D03*
%TO.P,J5,3,Pin_3*%
%TO.N,/T14*%
X191120000Y-77775000D03*
%TO.P,J5,4,Pin_4*%
%TO.N,/T13*%
X188580000Y-77775000D03*
%TO.P,J5,5,Pin_5*%
%TO.N,/T12*%
X186040000Y-77775000D03*
%TO.P,J5,6,Pin_6*%
%TO.N,/T11*%
X183500000Y-77775000D03*
%TO.P,J5,7,Pin_7*%
%TO.N,/T10*%
X180960000Y-77775000D03*
%TO.P,J5,8,Pin_8*%
%TO.N,/T9*%
X178420000Y-77775000D03*
%TO.P,J5,9,Pin_9*%
%TO.N,-VDC*%
X175880000Y-77775000D03*
%TD*%
D13*
%TO.P,J4,1,Pin_1*%
%TO.N,-VDC*%
X175840000Y-104000000D03*
D14*
%TO.P,J4,2,Pin_2*%
%TO.N,/T8*%
X178380000Y-104000000D03*
%TO.P,J4,3,Pin_3*%
%TO.N,/T7*%
X180920000Y-104000000D03*
%TO.P,J4,4,Pin_4*%
%TO.N,/T6*%
X183460000Y-104000000D03*
%TO.P,J4,5,Pin_5*%
%TO.N,/T5*%
X186000000Y-104000000D03*
%TO.P,J4,6,Pin_6*%
%TO.N,/T4*%
X188540000Y-104000000D03*
%TO.P,J4,7,Pin_7*%
%TO.N,/T3*%
X191080000Y-104000000D03*
%TO.P,J4,8,Pin_8*%
%TO.N,/T2*%
X193620000Y-104000000D03*
%TO.P,J4,9,Pin_9*%
%TO.N,/T1*%
X196160000Y-104000000D03*
%TD*%
D15*
%TO.P,J6,1,Pin_1*%
%TO.N,/Cell 11*%
X76930000Y-77500000D03*
D16*
%TO.P,J6,2,Pin_2*%
%TO.N,/Cell 9*%
X79470000Y-77500000D03*
%TO.P,J6,3,Pin_3*%
%TO.N,/Cell 7*%
X82010000Y-77500000D03*
%TO.P,J6,4,Pin_4*%
%TO.N,/Cell 5*%
X84550000Y-77500000D03*
%TO.P,J6,5,Pin_5*%
%TO.N,/Cell 3*%
X87090000Y-77500000D03*
%TO.P,J6,6,Pin_6*%
%TO.N,/Cell 1*%
X89630000Y-77500000D03*
%TO.P,J6,7,Pin_7*%
%TO.N,-VDC*%
X92170000Y-77500000D03*
%TD*%
D10*
%TO.P,J1,1,Pin_1*%
%TO.N,Net-(J1-Pin_1)*%
X153460000Y-68155000D03*
D11*
%TO.P,J1,2,Pin_2*%
%TO.N,Net-(J1-Pin_2)*%
X156000000Y-68155000D03*
%TD*%
D12*
%TO.P,,1*%
%TO.N,N/C*%
X203750000Y-68250000D03*
%TD*%
D17*
%TO.P,J7,1,1*%
%TO.N,/MOSI*%
X162460000Y-113540000D03*
D18*
%TO.P,J7,2,2*%
%TO.N,/MISO*%
X165000000Y-113540000D03*
%TO.P,J7,3,3*%
%TO.N,Net-(S1-NC)*%
X167540000Y-113540000D03*
%TO.P,J7,4,4*%
%TO.N,Net-(S2-NC)*%
X170080000Y-113540000D03*
%TD*%
D12*
%TO.P,REF\u002A\u002A,1*%
%TO.N,N/C*%
X69500000Y-68250000D03*
%TD*%
D15*
%TO.P,J2,1,Pin_1*%
%TO.N,-VDC*%
X92050000Y-104000000D03*
D16*
%TO.P,J2,2,Pin_2*%
%TO.N,+BATT*%
X89510000Y-104000000D03*
%TO.P,J2,3,Pin_3*%
%TO.N,/Cell 10*%
X86970000Y-104000000D03*
%TO.P,J2,4,Pin_4*%
%TO.N,/Cell 8*%
X84430000Y-104000000D03*
%TO.P,J2,5,Pin_5*%
%TO.N,/Cell 6*%
X81890000Y-104000000D03*
%TO.P,J2,6,Pin_6*%
%TO.N,/Cell 4*%
X79350000Y-104000000D03*
%TO.P,J2,7,Pin_7*%
%TO.N,/Cell 2*%
X76810000Y-104000000D03*
%TD*%
D19*
%TO.N,+5V*%
X181500000Y-82925500D03*
D20*
X147500000Y-99500000D03*
D19*
X143500000Y-89750000D03*
D20*
X137000000Y-116500000D03*
D19*
X177000000Y-83000000D03*
D20*
X194000000Y-90000000D03*
D19*
X184500000Y-90500000D03*
D20*
X180000000Y-86000000D03*
D19*
X173500000Y-106500000D03*
%TO.N,-VDC*%
X117000000Y-114500000D03*
X130761019Y-69616484D03*
X149500000Y-82500000D03*
X152264059Y-101663253D03*
X153000000Y-109500000D03*
X166500000Y-88000000D03*
X99000000Y-71500000D03*
X140000000Y-76500000D03*
X163500000Y-96500000D03*
X133750000Y-65000000D03*
X187844425Y-81312811D03*
X117000000Y-90500000D03*
X100000000Y-106500000D03*
X117000000Y-66500000D03*
X178000000Y-74500000D03*
X100500000Y-96500000D03*
X185500000Y-100000000D03*
X176500000Y-99500000D03*
X156500000Y-109500000D03*
X138000000Y-108000000D03*
X117000000Y-78500000D03*
X157000000Y-95500000D03*
X89000000Y-67500000D03*
X117000000Y-102500000D03*
X195000000Y-88500000D03*
X167500000Y-105350000D03*
X142500000Y-108000000D03*
X153500000Y-97500000D03*
X152500000Y-88000000D03*
X174500000Y-92500000D03*
%TO.N,/VREF2*%
X147500000Y-101500000D03*
D20*
X188500000Y-91000000D03*
%TO.N,/SCL*%
X160000000Y-103000000D03*
D19*
X182000000Y-82225000D03*
X192602012Y-91057008D03*
D20*
X151500000Y-103000000D03*
D19*
%TO.N,/SDA*%
X189635627Y-90635627D03*
D20*
X161000000Y-104000000D03*
D19*
X182500000Y-83525000D03*
D20*
X151500000Y-104000000D03*
%TO.N,/Therm_ADC*%
X151500000Y-105000000D03*
X162000000Y-105000000D03*
%TO.N,/IMA*%
X162000000Y-109000000D03*
X152000000Y-111500000D03*
%TO.N,/IPA*%
X161000000Y-108500000D03*
X158000000Y-111500000D03*
%TO.N,/MOSI*%
X157250000Y-99250000D03*
X148750000Y-96525000D03*
D19*
%TO.N,/Cell 10*%
X101050000Y-73000000D03*
%TO.N,/Cell 8*%
X101050000Y-82000000D03*
%TO.N,/Cell 6*%
X100550000Y-91000000D03*
%TO.N,/Cell 4*%
X100550000Y-101000000D03*
%TO.N,/Cell 2*%
X100550000Y-109000000D03*
%TO.N,Net-(Q1-G)*%
X119500000Y-108500000D03*
X102500000Y-112000000D03*
%TO.N,Net-(Q2-G)*%
X119500000Y-104500000D03*
X103000000Y-107500000D03*
%TO.N,Net-(Q3-G)*%
X103000000Y-103000000D03*
X119500000Y-100500000D03*
%TO.N,Net-(Q4-G)*%
X119500000Y-96500000D03*
X103000000Y-98500000D03*
%TO.N,Net-(Q5-G)*%
X103000000Y-94000000D03*
X119500000Y-92500000D03*
%TO.N,Net-(Q6-G)*%
X119500000Y-88500000D03*
X103000000Y-89500000D03*
%TO.N,Net-(Q7-G)*%
X103000000Y-85000000D03*
X119500000Y-84500000D03*
%TO.N,Net-(Q8-G)*%
X103000000Y-80500000D03*
X119500000Y-80500000D03*
%TO.N,Net-(Q9-G)*%
X119500000Y-76500000D03*
X103000000Y-76000000D03*
%TO.N,Net-(Q10-G)*%
X103000000Y-71500000D03*
X119500000Y-72500000D03*
%TO.N,Net-(Q11-G)*%
X119500000Y-68500000D03*
X103000000Y-67000000D03*
%TO.N,Net-(Q12-G)*%
X119500000Y-112500000D03*
X102500000Y-116500000D03*
D20*
%TO.N,/MISO*%
X158500000Y-99000000D03*
X148512653Y-95512653D03*
%TD*%
D21*
%TO.N,+5V*%
X181762689Y-80662811D02*
X184662811Y-80662811D01*
D22*
X139000000Y-116500000D02*
X148400000Y-107100000D01*
X143500000Y-102000000D02*
X148600000Y-107100000D01*
D21*
X178574500Y-82925500D02*
X178500000Y-83000000D01*
D22*
X148400000Y-107100000D02*
X148600000Y-107100000D01*
X143500000Y-89750000D02*
X143500000Y-99000000D01*
D21*
X179750000Y-85750000D02*
X177000000Y-83000000D01*
D22*
X137000000Y-116500000D02*
X139000000Y-116500000D01*
D21*
X179500000Y-82925500D02*
X178574500Y-82925500D01*
D22*
X144000000Y-99500000D02*
X143500000Y-99000000D01*
X143500000Y-99000000D02*
X143500000Y-102000000D01*
D21*
X184500000Y-90500000D02*
X179750000Y-85750000D01*
D22*
X147500000Y-99500000D02*
X144000000Y-99500000D01*
D21*
X184662811Y-80662811D02*
X194000000Y-90000000D01*
X179500000Y-82925500D02*
X181762689Y-80662811D01*
X178500000Y-83000000D02*
X177000000Y-83000000D01*
D22*
X148600000Y-107100000D02*
X172900000Y-107100000D01*
X172900000Y-107100000D02*
X173500000Y-106500000D01*
D21*
X181500000Y-82925500D02*
X179500000Y-82925500D01*
D22*
%TO.N,/VREF2*%
X147500000Y-101499500D02*
X148499500Y-100500000D01*
X148499500Y-100500000D02*
X179000000Y-100500000D01*
X179000000Y-100500000D02*
X188500000Y-91000000D01*
%TO.N,/SCL*%
X151500000Y-103000000D02*
X160000000Y-103000000D01*
X182000000Y-82225000D02*
X184564592Y-82225000D01*
X184564592Y-82225000D02*
X192602012Y-90262420D01*
X192602012Y-90262420D02*
X192602012Y-91057008D01*
%TO.N,/SDA*%
X189610627Y-90635627D02*
X182500000Y-83525000D01*
X160500000Y-104000000D02*
X161000000Y-104000000D01*
X189635627Y-90635627D02*
X189610627Y-90635627D01*
X151500000Y-104000000D02*
X160500000Y-104000000D01*
%TO.N,/Therm_ADC*%
X151500000Y-105000000D02*
X162000000Y-105000000D01*
D23*
%TO.N,/IMA*%
X153500000Y-113000000D02*
X158500000Y-113000000D01*
X162000000Y-109500000D02*
X162000000Y-109000000D01*
X152000000Y-111500000D02*
X153500000Y-113000000D01*
X158500000Y-113000000D02*
X162000000Y-109500000D01*
%TO.N,/IPA*%
X158000000Y-111500000D02*
X161000000Y-108500000D01*
%TO.N,/MOSI*%
X154525000Y-96525000D02*
X148750000Y-96525000D01*
X157250000Y-99250000D02*
X154525000Y-96525000D01*
D21*
%TO.N,/Cell 10*%
X101050000Y-73000000D02*
X97050000Y-77000000D01*
X88970000Y-106000000D02*
X86970000Y-104000000D01*
X97050000Y-77000000D02*
X97050000Y-104500000D01*
X95550000Y-106000000D02*
X88970000Y-106000000D01*
X97050000Y-104500000D02*
X95550000Y-106000000D01*
%TO.N,/Cell 8*%
X98050000Y-85000000D02*
X98050000Y-104348528D01*
X98050000Y-104348528D02*
X95798528Y-106600000D01*
X87030000Y-106600000D02*
X84430000Y-104000000D01*
X101050000Y-82000000D02*
X98050000Y-85000000D01*
X95798528Y-106600000D02*
X87030000Y-106600000D01*
%TO.N,/Cell 6*%
X96047056Y-107200000D02*
X85090000Y-107200000D01*
X100550000Y-91000000D02*
X99050000Y-92500000D01*
X99050000Y-104197056D02*
X96047056Y-107200000D01*
X99050000Y-92500000D02*
X99050000Y-104197056D01*
X85090000Y-107200000D02*
X81890000Y-104000000D01*
%TO.N,/Cell 4*%
X100550000Y-103545584D02*
X96295584Y-107800000D01*
X100550000Y-101000000D02*
X100550000Y-103545584D01*
X96295584Y-107800000D02*
X83150000Y-107800000D01*
X83150000Y-107800000D02*
X79350000Y-104000000D01*
%TO.N,/Cell 2*%
X100550000Y-109000000D02*
X81810000Y-109000000D01*
X81810000Y-109000000D02*
X76810000Y-104000000D01*
%TO.N,Net-(Q1-G)*%
X106000000Y-108500000D02*
X102500000Y-112000000D01*
X119500000Y-108500000D02*
X106000000Y-108500000D01*
%TO.N,Net-(Q2-G)*%
X106000000Y-104500000D02*
X103000000Y-107500000D01*
X119500000Y-104500000D02*
X106000000Y-104500000D01*
%TO.N,Net-(Q3-G)*%
X105500000Y-100500000D02*
X103000000Y-103000000D01*
X119500000Y-100500000D02*
X105500000Y-100500000D01*
%TO.N,Net-(Q4-G)*%
X105000000Y-96500000D02*
X103000000Y-98500000D01*
X119500000Y-96500000D02*
X105000000Y-96500000D01*
%TO.N,Net-(Q5-G)*%
X104500000Y-92500000D02*
X103000000Y-94000000D01*
X119500000Y-92500000D02*
X104500000Y-92500000D01*
%TO.N,Net-(Q6-G)*%
X104000000Y-88500000D02*
X103000000Y-89500000D01*
X119500000Y-88500000D02*
X104000000Y-88500000D01*
%TO.N,Net-(Q7-G)*%
X103500000Y-84500000D02*
X103000000Y-85000000D01*
X119500000Y-84500000D02*
X103500000Y-84500000D01*
%TO.N,Net-(Q8-G)*%
X119500000Y-80500000D02*
X103000000Y-80500000D01*
%TO.N,Net-(Q9-G)*%
X103500000Y-76500000D02*
X103000000Y-76000000D01*
X119500000Y-76500000D02*
X103500000Y-76500000D01*
%TO.N,Net-(Q10-G)*%
X104000000Y-72500000D02*
X103000000Y-71500000D01*
X119500000Y-72500000D02*
X104000000Y-72500000D01*
%TO.N,Net-(Q11-G)*%
X104500000Y-68500000D02*
X103000000Y-67000000D01*
X119500000Y-68500000D02*
X104500000Y-68500000D01*
%TO.N,Net-(Q12-G)*%
X106500000Y-112500000D02*
X102500000Y-116500000D01*
X119500000Y-112500000D02*
X106500000Y-112500000D01*
D23*
%TO.N,/MISO*%
X155012653Y-95512653D02*
X148512653Y-95512653D01*
X158500000Y-99000000D02*
X155012653Y-95512653D01*
%TD*%
%TA.AperFunction,Conductor*%
%TO.N,-VDC*%
G36*
X150943039Y-63519685D02*
G01*
X150988794Y-63572489D01*
X151000000Y-63624000D01*
X151000000Y-86000000D01*
X167750000Y-86000000D01*
X167775446Y-83709882D01*
X167841389Y-77774994D01*
X174475202Y-77774994D01*
X174475202Y-77775005D01*
X174494361Y-78006218D01*
X174551317Y-78231135D01*
X174644515Y-78443606D01*
X174728812Y-78572633D01*
X175315387Y-77986058D01*
X175320889Y-78006591D01*
X175399881Y-78143408D01*
X175511592Y-78255119D01*
X175648409Y-78334111D01*
X175668940Y-78339612D01*
X175081201Y-78927351D01*
X175111649Y-78951050D01*
X175315697Y-79061476D01*
X175315706Y-79061479D01*
X175535139Y-79136811D01*
X175763993Y-79175000D01*
X175996007Y-79175000D01*
X176224860Y-79136811D01*
X176444293Y-79061479D01*
X176444301Y-79061476D01*
X176648355Y-78951047D01*
X176678797Y-78927351D01*
X176678798Y-78927350D01*
X176091060Y-78339612D01*
X176111591Y-78334111D01*
X176248408Y-78255119D01*
X176360119Y-78143408D01*
X176439111Y-78006591D01*
X176444612Y-77986059D01*
X177031185Y-78572632D01*
X177045891Y-78550125D01*
X177099037Y-78504768D01*
X177168268Y-78495344D01*
X177231604Y-78524846D01*
X177253508Y-78550123D01*
X177311021Y-78638153D01*
X177468216Y-78808913D01*
X177468219Y-78808915D01*
X177468222Y-78808918D01*
X177651365Y-78951464D01*
X177651371Y-78951468D01*
X177651374Y-78951470D01*
X177801185Y-79032544D01*
X177854652Y-79061479D01*
X177855497Y-79061936D01*
X177969487Y-79101068D01*
X178075015Y-79137297D01*
X178075017Y-79137297D01*
X178075019Y-79137298D01*
X178303951Y-79175500D01*
X178303952Y-79175500D01*
X178536048Y-79175500D01*
X178536049Y-79175500D01*
X178764981Y-79137298D01*
X178984503Y-79061936D01*
X179188626Y-78951470D01*
X179189170Y-78951047D01*
X179311471Y-78855856D01*
X179371784Y-78808913D01*
X179528979Y-78638153D01*
X179586191Y-78550582D01*
X179639337Y-78505226D01*
X179708568Y-78495802D01*
X179771904Y-78525304D01*
X179793809Y-78550583D01*
X179851016Y-78638147D01*
X179851018Y-78638149D01*
X179851021Y-78638153D01*
X180008216Y-78808913D01*
X180008219Y-78808915D01*
X180008222Y-78808918D01*
X180191365Y-78951464D01*
X180191371Y-78951468D01*
X180191374Y-78951470D01*
X180341185Y-79032544D01*
X180394652Y-79061479D01*
X180395497Y-79061936D01*
X180509487Y-79101068D01*
X180615015Y-79137297D01*
X180615017Y-79137297D01*
X180615019Y-79137298D01*
X180843951Y-79175500D01*
X180843952Y-79175500D01*
X181076048Y-79175500D01*
X181076049Y-79175500D01*
X181304981Y-79137298D01*
X181524503Y-79061936D01*
X181728626Y-78951470D01*
X181729170Y-78951047D01*
X181851471Y-78855856D01*
X181911784Y-78808913D01*
X182068979Y-78638153D01*
X182126191Y-78550582D01*
X182179337Y-78505226D01*
X182248568Y-78495802D01*
X182311904Y-78525304D01*
X182333809Y-78550583D01*
X182391016Y-78638147D01*
X182391018Y-78638149D01*
X182391021Y-78638153D01*
X182548216Y-78808913D01*
X182548219Y-78808915D01*
X182548222Y-78808918D01*
X182731365Y-78951464D01*
X182731371Y-78951468D01*
X182731374Y-78951470D01*
X182881185Y-79032544D01*
X182934652Y-79061479D01*
X182935497Y-79061936D01*
X183049487Y-79101068D01*
X183155015Y-79137297D01*
X183155017Y-79137297D01*
X183155019Y-79137298D01*
X183383951Y-79175500D01*
X183383952Y-79175500D01*
X183616048Y-79175500D01*
X183616049Y-79175500D01*
X183844981Y-79137298D01*
X184064503Y-79061936D01*
X184268626Y-78951470D01*
X184269170Y-78951047D01*
X184391471Y-78855856D01*
X184451784Y-78808913D01*
X184608979Y-78638153D01*
X184666191Y-78550582D01*
X184719337Y-78505226D01*
X184788568Y-78495802D01*
X184851904Y-78525304D01*
X184873809Y-78550583D01*
X184931016Y-78638147D01*
X184931018Y-78638149D01*
X184931021Y-78638153D01*
X185088216Y-78808913D01*
X185088219Y-78808915D01*
X185088222Y-78808918D01*
X185271365Y-78951464D01*
X185271371Y-78951468D01*
X185271374Y-78951470D01*
X185421185Y-79032544D01*
X185474652Y-79061479D01*
X185475497Y-79061936D01*
X185589487Y-79101068D01*
X185695015Y-79137297D01*
X185695017Y-79137297D01*
X185695019Y-79137298D01*
X185923951Y-79175500D01*
X185923952Y-79175500D01*
X186156048Y-79175500D01*
X186156049Y-79175500D01*
X186384981Y-79137298D01*
X186604503Y-79061936D01*
X186808626Y-78951470D01*
X186809170Y-78951047D01*
X186931471Y-78855856D01*
X186991784Y-78808913D01*
X187148979Y-78638153D01*
X187206191Y-78550582D01*
X187259337Y-78505226D01*
X187328568Y-78495802D01*
X187391904Y-78525304D01*
X187413809Y-78550583D01*
X187471016Y-78638147D01*
X187471018Y-78638149D01*
X187471021Y-78638153D01*
X187628216Y-78808913D01*
X187628219Y-78808915D01*
X187628222Y-78808918D01*
X187811365Y-78951464D01*
X187811371Y-78951468D01*
X187811374Y-78951470D01*
X187961185Y-79032544D01*
X188014652Y-79061479D01*
X188015497Y-79061936D01*
X188129487Y-79101068D01*
X188235015Y-79137297D01*
X188235017Y-79137297D01*
X188235019Y-79137298D01*
X188463951Y-79175500D01*
X188463952Y-79175500D01*
X188696048Y-79175500D01*
X188696049Y-79175500D01*
X188924981Y-79137298D01*
X189144503Y-79061936D01*
X189348626Y-78951470D01*
X189349170Y-78951047D01*
X189471471Y-78855856D01*
X189531784Y-78808913D01*
X189688979Y-78638153D01*
X189746191Y-78550582D01*
X189799337Y-78505226D01*
X189868568Y-78495802D01*
X189931904Y-78525304D01*
X189953809Y-78550583D01*
X190011016Y-78638147D01*
X190011018Y-78638149D01*
X190011021Y-78638153D01*
X190168216Y-78808913D01*
X190168219Y-78808915D01*
X190168222Y-78808918D01*
X190351365Y-78951464D01*
X190351371Y-78951468D01*
X190351374Y-78951470D01*
X190501185Y-79032544D01*
X190554652Y-79061479D01*
X190555497Y-79061936D01*
X190669487Y-79101068D01*
X190775015Y-79137297D01*
X190775017Y-79137297D01*
X190775019Y-79137298D01*
X191003951Y-79175500D01*
X191003952Y-79175500D01*
X191236048Y-79175500D01*
X191236049Y-79175500D01*
X191464981Y-79137298D01*
X191684503Y-79061936D01*
X191888626Y-78951470D01*
X191889170Y-78951047D01*
X192011471Y-78855856D01*
X192071784Y-78808913D01*
X192228979Y-78638153D01*
X192286191Y-78550582D01*
X192339337Y-78505226D01*
X192408568Y-78495802D01*
X192471904Y-78525304D01*
X192493809Y-78550583D01*
X192551016Y-78638147D01*
X192551018Y-78638149D01*
X192551021Y-78638153D01*
X192708216Y-78808913D01*
X192708219Y-78808915D01*
X192708222Y-78808918D01*
X192891365Y-78951464D01*
X192891371Y-78951468D01*
X192891374Y-78951470D01*
X193041185Y-79032544D01*
X193094652Y-79061479D01*
X193095497Y-79061936D01*
X193209487Y-79101068D01*
X193315015Y-79137297D01*
X193315017Y-79137297D01*
X193315019Y-79137298D01*
X193543951Y-79175500D01*
X193543952Y-79175500D01*
X193776048Y-79175500D01*
X193776049Y-79175500D01*
X194004981Y-79137298D01*
X194224503Y-79061936D01*
X194428626Y-78951470D01*
X194429170Y-78951047D01*
X194551471Y-78855856D01*
X194611784Y-78808913D01*
X194620130Y-78799846D01*
X194680010Y-78763854D01*
X194749849Y-78765949D01*
X194807468Y-78805469D01*
X194827544Y-78840491D01*
X194856203Y-78917330D01*
X194856206Y-78917335D01*
X194942452Y-79032544D01*
X194942455Y-79032547D01*
X195057664Y-79118793D01*
X195057671Y-79118797D01*
X195192517Y-79169091D01*
X195192516Y-79169091D01*
X195199444Y-79169835D01*
X195252127Y-79175500D01*
X197147872Y-79175499D01*
X197207483Y-79169091D01*
X197342331Y-79118796D01*
X197457546Y-79032546D01*
X197543796Y-78917331D01*
X197594091Y-78782483D01*
X197600500Y-78722873D01*
X197600499Y-76827128D01*
X197594091Y-76767517D01*
X197584233Y-76741087D01*
X197543797Y-76632671D01*
X197543793Y-76632664D01*
X197457547Y-76517455D01*
X197457544Y-76517452D01*
X197342335Y-76431206D01*
X197342328Y-76431202D01*
X197207482Y-76380908D01*
X197207483Y-76380908D01*
X197147883Y-76374501D01*
X197147881Y-76374500D01*
X197147873Y-76374500D01*
X197147864Y-76374500D01*
X195252129Y-76374500D01*
X195252123Y-76374501D01*
X195192516Y-76380908D01*
X195057671Y-76431202D01*
X195057664Y-76431206D01*
X194942455Y-76517452D01*
X194942452Y-76517455D01*
X194856206Y-76632664D01*
X194856203Y-76632670D01*
X194827544Y-76709508D01*
X194785672Y-76765441D01*
X194720208Y-76789858D01*
X194651935Y-76775006D01*
X194620135Y-76750158D01*
X194611784Y-76741087D01*
X194611778Y-76741082D01*
X194611777Y-76741081D01*
X194428634Y-76598535D01*
X194428628Y-76598531D01*
X194224504Y-76488064D01*
X194224495Y-76488061D01*
X194004984Y-76412702D01*
X193814450Y-76380908D01*
X193776049Y-76374500D01*
X193543951Y-76374500D01*
X193505550Y-76380908D01*
X193315015Y-76412702D01*
X193095504Y-76488061D01*
X193095495Y-76488064D01*
X192891371Y-76598531D01*
X192891365Y-76598535D01*
X192708222Y-76741081D01*
X192708219Y-76741084D01*
X192708216Y-76741086D01*
X192708216Y-76741087D01*
X192663319Y-76789858D01*
X192551016Y-76911852D01*
X192493809Y-76999416D01*
X192440662Y-77044773D01*
X192371431Y-77054197D01*
X192308095Y-77024695D01*
X192286191Y-76999416D01*
X192228983Y-76911852D01*
X192228980Y-76911849D01*
X192228979Y-76911847D01*
X192071784Y-76741087D01*
X192071779Y-76741083D01*
X192071777Y-76741081D01*
X191888634Y-76598535D01*
X191888628Y-76598531D01*
X191684504Y-76488064D01*
X191684495Y-76488061D01*
X191464984Y-76412702D01*
X191274450Y-76380908D01*
X191236049Y-76374500D01*
X191003951Y-76374500D01*
X190965550Y-76380908D01*
X190775015Y-76412702D01*
X190555504Y-76488061D01*
X190555495Y-76488064D01*
X190351371Y-76598531D01*
X190351365Y-76598535D01*
X190168222Y-76741081D01*
X190168219Y-76741084D01*
X190168216Y-76741086D01*
X190168216Y-76741087D01*
X190123319Y-76789858D01*
X190011016Y-76911852D01*
X189953809Y-76999416D01*
X189900662Y-77044773D01*
X189831431Y-77054197D01*
X189768095Y-77024695D01*
X189746191Y-76999416D01*
X189688983Y-76911852D01*
X189688980Y-76911849D01*
X189688979Y-76911847D01*
X189531784Y-76741087D01*
X189531779Y-76741083D01*
X189531777Y-76741081D01*
X189348634Y-76598535D01*
X189348628Y-76598531D01*
X189144504Y-76488064D01*
X189144495Y-76488061D01*
X188924984Y-76412702D01*
X188734450Y-76380908D01*
X188696049Y-76374500D01*
X188463951Y-76374500D01*
X188425550Y-76380908D01*
X188235015Y-76412702D01*
X188015504Y-76488061D01*
X188015495Y-76488064D01*
X187811371Y-76598531D01*
X187811365Y-76598535D01*
X187628222Y-76741081D01*
X187628219Y-76741084D01*
X187628216Y-76741086D01*
X187628216Y-76741087D01*
X187583319Y-76789858D01*
X187471016Y-76911852D01*
X187413809Y-76999416D01*
X187360662Y-77044773D01*
X187291431Y-77054197D01*
X187228095Y-77024695D01*
X187206191Y-76999416D01*
X187148983Y-76911852D01*
X187148980Y-76911849D01*
X187148979Y-76911847D01*
X186991784Y-76741087D01*
X186991779Y-76741083D01*
X186991777Y-76741081D01*
X186808634Y-76598535D01*
X186808628Y-76598531D01*
X186604504Y-76488064D01*
X186604495Y-76488061D01*
X186384984Y-76412702D01*
X186194450Y-76380908D01*
X186156049Y-76374500D01*
X185923951Y-76374500D01*
X185885550Y-76380908D01*
X185695015Y-76412702D01*
X185475504Y-76488061D01*
X185475495Y-76488064D01*
X185271371Y-76598531D01*
X185271365Y-76598535D01*
X185088222Y-76741081D01*
X185088219Y-76741084D01*
X185088216Y-76741086D01*
X185088216Y-76741087D01*
X185043319Y-76789858D01*
X184931016Y-76911852D01*
X184873809Y-76999416D01*
X184820662Y-77044773D01*
X184751431Y-77054197D01*
X184688095Y-77024695D01*
X184666191Y-76999416D01*
X184608983Y-76911852D01*
X184608980Y-76911849D01*
X184608979Y-76911847D01*
X184451784Y-76741087D01*
X184451779Y-76741083D01*
X184451777Y-76741081D01*
X184268634Y-76598535D01*
X184268628Y-76598531D01*
X184064504Y-76488064D01*
X184064495Y-76488061D01*
X183844984Y-76412702D01*
X183654450Y-76380908D01*
X183616049Y-76374500D01*
X183383951Y-76374500D01*
X183345550Y-76380908D01*
X183155015Y-76412702D01*
X182935504Y-76488061D01*
X182935495Y-76488064D01*
X182731371Y-76598531D01*
X182731365Y-76598535D01*
X182548222Y-76741081D01*
X182548219Y-76741084D01*
X182548216Y-76741086D01*
X182548216Y-76741087D01*
X182503319Y-76789858D01*
X182391016Y-76911852D01*
X182333809Y-76999416D01*
X182280662Y-77044773D01*
X182211431Y-77054197D01*
X182148095Y-77024695D01*
X182126191Y-76999416D01*
X182068983Y-76911852D01*
X182068980Y-76911849D01*
X182068979Y-76911847D01*
X181911784Y-76741087D01*
X181911779Y-76741083D01*
X181911777Y-76741081D01*
X181728634Y-76598535D01*
X181728628Y-76598531D01*
X181524504Y-76488064D01*
X181524495Y-76488061D01*
X181304984Y-76412702D01*
X181114450Y-76380908D01*
X181076049Y-76374500D01*
X180843951Y-76374500D01*
X180805550Y-76380908D01*
X180615015Y-76412702D01*
X180395504Y-76488061D01*
X180395495Y-76488064D01*
X180191371Y-76598531D01*
X180191365Y-76598535D01*
X180008222Y-76741081D01*
X180008219Y-76741084D01*
X180008216Y-76741086D01*
X180008216Y-76741087D01*
X179963319Y-76789858D01*
X179851016Y-76911852D01*
X179793809Y-76999416D01*
X179740662Y-77044773D01*
X179671431Y-77054197D01*
X179608095Y-77024695D01*
X179586191Y-76999416D01*
X179528983Y-76911852D01*
X179528980Y-76911849D01*
X179528979Y-76911847D01*
X179371784Y-76741087D01*
X179371779Y-76741083D01*
X179371777Y-76741081D01*
X179188634Y-76598535D01*
X179188628Y-76598531D01*
X178984504Y-76488064D01*
X178984495Y-76488061D01*
X178764984Y-76412702D01*
X178574450Y-76380908D01*
X178536049Y-76374500D01*
X178303951Y-76374500D01*
X178265550Y-76380908D01*
X178075015Y-76412702D01*
X177855504Y-76488061D01*
X177855495Y-76488064D01*
X177651371Y-76598531D01*
X177651365Y-76598535D01*
X177468222Y-76741081D01*
X177468219Y-76741084D01*
X177468216Y-76741086D01*
X177468216Y-76741087D01*
X177344961Y-76874979D01*
X177311015Y-76911854D01*
X177253509Y-76999874D01*
X177200363Y-77045230D01*
X177131132Y-77054654D01*
X177067796Y-77025152D01*
X177045892Y-76999874D01*
X177031186Y-76977365D01*
X176444612Y-77563939D01*
X176439111Y-77543409D01*
X176360119Y-77406592D01*
X176248408Y-77294881D01*
X176111591Y-77215889D01*
X176091058Y-77210387D01*
X176678797Y-76622647D01*
X176678797Y-76622645D01*
X176648360Y-76598955D01*
X176648354Y-76598951D01*
X176444302Y-76488523D01*
X176444293Y-76488520D01*
X176224860Y-76413188D01*
X175996007Y-76375000D01*
X175763993Y-76375000D01*
X175535139Y-76413188D01*
X175315706Y-76488520D01*
X175315697Y-76488523D01*
X175111650Y-76598949D01*
X175081200Y-76622647D01*
X175668941Y-77210387D01*
X175648409Y-77215889D01*
X175511592Y-77294881D01*
X175399881Y-77406592D01*
X175320889Y-77543409D01*
X175315387Y-77563941D01*
X174728811Y-76977365D01*
X174644516Y-77106390D01*
X174551317Y-77318864D01*
X174494361Y-77543781D01*
X174475202Y-77774994D01*
X167841389Y-77774994D01*
X167947223Y-68249997D01*
X200444652Y-68249997D01*
X200444652Y-68250002D01*
X200464028Y-68607368D01*
X200464029Y-68607385D01*
X200521926Y-68960539D01*
X200521932Y-68960565D01*
X200617672Y-69305392D01*
X200617674Y-69305399D01*
X200750142Y-69637870D01*
X200750151Y-69637888D01*
X200917784Y-69954077D01*
X200917790Y-69954086D01*
X201118634Y-70250309D01*
X201118641Y-70250319D01*
X201350331Y-70523085D01*
X201350332Y-70523086D01*
X201610163Y-70769211D01*
X201895081Y-70985800D01*
X202201747Y-71170315D01*
X202201749Y-71170316D01*
X202201751Y-71170317D01*
X202201755Y-71170319D01*
X202388036Y-71256501D01*
X202526565Y-71320591D01*
X202865726Y-71434868D01*
X203215254Y-71511805D01*
X203571052Y-71550500D01*
X203571058Y-71550500D01*
X203928942Y-71550500D01*
X203928948Y-71550500D01*
X204284746Y-71511805D01*
X204634274Y-71434868D01*
X204973435Y-71320591D01*
X205298253Y-71170315D01*
X205604919Y-70985800D01*
X205889837Y-70769211D01*
X206149668Y-70523086D01*
X206381365Y-70250311D01*
X206582211Y-69954085D01*
X206749853Y-69637880D01*
X206882324Y-69305403D01*
X206978071Y-68960552D01*
X207035972Y-68607371D01*
X207055348Y-68250000D01*
X207035972Y-67892629D01*
X207023990Y-67819544D01*
X206978073Y-67539460D01*
X206978072Y-67539459D01*
X206978071Y-67539448D01*
X206914066Y-67308922D01*
X206882327Y-67194607D01*
X206882325Y-67194600D01*
X206749857Y-66862129D01*
X206749848Y-66862111D01*
X206582215Y-66545922D01*
X206582213Y-66545919D01*
X206582211Y-66545915D01*
X206381365Y-66249689D01*
X206381361Y-66249684D01*
X206381358Y-66249680D01*
X206149668Y-65976914D01*
X205889837Y-65730789D01*
X205889830Y-65730783D01*
X205889827Y-65730781D01*
X205822245Y-65679407D01*
X205604919Y-65514200D01*
X205298253Y-65329685D01*
X205298252Y-65329684D01*
X205298248Y-65329682D01*
X205298244Y-65329680D01*
X204973447Y-65179414D01*
X204973441Y-65179411D01*
X204973435Y-65179409D01*
X204770595Y-65111064D01*
X204634273Y-65065131D01*
X204284744Y-64988194D01*
X203928949Y-64949500D01*
X203928948Y-64949500D01*
X203571052Y-64949500D01*
X203571050Y-64949500D01*
X203215255Y-64988194D01*
X202865726Y-65065131D01*
X202609970Y-65151306D01*
X202526565Y-65179409D01*
X202526563Y-65179410D01*
X202526552Y-65179414D01*
X202201755Y-65329680D01*
X202201751Y-65329682D01*
X202005591Y-65447708D01*
X201895081Y-65514200D01*
X201806768Y-65581333D01*
X201610172Y-65730781D01*
X201610163Y-65730789D01*
X201350331Y-65976914D01*
X201118641Y-66249680D01*
X201118634Y-66249690D01*
X200917790Y-66545913D01*
X200917784Y-66545922D01*
X200750151Y-66862111D01*
X200750142Y-66862129D01*
X200617674Y-67194600D01*
X200617672Y-67194607D01*
X200521932Y-67539434D01*
X200521926Y-67539460D01*
X200464029Y-67892614D01*
X200464028Y-67892631D01*
X200444652Y-68249997D01*
X167947223Y-68249997D01*
X167998638Y-63622622D01*
X168019066Y-63555806D01*
X168072375Y-63510640D01*
X168122630Y-63500000D01*
X204499213Y-63500000D01*
X204500733Y-63500008D01*
X204691077Y-63502343D01*
X204701681Y-63502930D01*
X205081224Y-63540312D01*
X205093249Y-63542096D01*
X205466527Y-63616345D01*
X205478329Y-63619301D01*
X205842544Y-63729785D01*
X205854002Y-63733885D01*
X206205627Y-63879532D01*
X206216626Y-63884734D01*
X206552282Y-64064147D01*
X206562713Y-64070399D01*
X206879169Y-64281849D01*
X206888942Y-64289097D01*
X207183148Y-64530544D01*
X207192165Y-64538717D01*
X207461282Y-64807834D01*
X207469455Y-64816851D01*
X207710902Y-65111057D01*
X207718150Y-65120830D01*
X207929600Y-65437286D01*
X207935856Y-65447724D01*
X208115264Y-65783372D01*
X208120467Y-65794372D01*
X208266114Y-66145997D01*
X208270214Y-66157455D01*
X208380698Y-66521670D01*
X208383654Y-66533474D01*
X208457902Y-66906744D01*
X208459688Y-66918781D01*
X208497068Y-67298304D01*
X208497656Y-67308937D01*
X208499991Y-67499266D01*
X208500000Y-67500787D01*
X208500000Y-71256501D01*
X208499989Y-71258174D01*
X208497811Y-71419591D01*
X208497042Y-71431801D01*
X208460813Y-71753364D01*
X208458484Y-71767074D01*
X208386658Y-72081757D01*
X208382808Y-72095119D01*
X208276205Y-72399767D01*
X208270883Y-72412616D01*
X208130830Y-72703425D01*
X208124103Y-72715595D01*
X207952380Y-72988877D01*
X207944333Y-73000219D01*
X207742549Y-73253233D01*
X207734473Y-73262394D01*
X207621861Y-73378122D01*
X207620673Y-73379326D01*
X205378712Y-75621286D01*
X205261239Y-75741968D01*
X205051302Y-76005204D01*
X204872162Y-76290289D01*
X204872162Y-76290290D01*
X204727596Y-76590476D01*
X204726066Y-76593652D01*
X204614859Y-76911453D01*
X204539937Y-77239711D01*
X204539937Y-77239712D01*
X204502243Y-77574270D01*
X204502242Y-77574287D01*
X204502242Y-77574291D01*
X204500000Y-77742641D01*
X204500000Y-103757359D01*
X204500734Y-103811740D01*
X204502271Y-103925712D01*
X204502272Y-103925728D01*
X204539963Y-104260280D01*
X204539967Y-104260307D01*
X204614880Y-104588539D01*
X204614885Y-104588554D01*
X204726082Y-104906351D01*
X204726083Y-104906353D01*
X204726084Y-104906355D01*
X204872169Y-105209712D01*
X204905765Y-105263181D01*
X205039169Y-105475500D01*
X205051300Y-105494806D01*
X205261226Y-105758050D01*
X205378679Y-105878679D01*
X205378701Y-105878701D01*
X207620690Y-108120690D01*
X207621867Y-108121882D01*
X207734481Y-108237580D01*
X207742571Y-108246757D01*
X207944332Y-108499763D01*
X207952378Y-108511104D01*
X208124102Y-108784407D01*
X208130827Y-108796574D01*
X208147859Y-108831943D01*
X208270868Y-109087382D01*
X208276189Y-109100229D01*
X208382790Y-109404888D01*
X208386639Y-109418250D01*
X208458457Y-109732924D01*
X208460786Y-109746633D01*
X208497016Y-110068217D01*
X208497784Y-110080405D01*
X208499988Y-110241761D01*
X208500000Y-110243455D01*
X208500000Y-113999212D01*
X208499991Y-114000733D01*
X208497656Y-114191062D01*
X208497068Y-114201695D01*
X208459688Y-114581218D01*
X208457902Y-114593255D01*
X208383654Y-114966525D01*
X208380698Y-114978329D01*
X208270214Y-115342544D01*
X208266114Y-115354002D01*
X208120467Y-115705627D01*
X208115264Y-115716627D01*
X207935856Y-116052275D01*
X207929600Y-116062713D01*
X207718150Y-116379169D01*
X207710902Y-116388942D01*
X207469455Y-116683148D01*
X207461282Y-116692165D01*
X207192165Y-116961282D01*
X207183148Y-116969455D01*
X206888942Y-117210902D01*
X206879169Y-117218150D01*
X206562713Y-117429600D01*
X206552275Y-117435856D01*
X206216627Y-117615264D01*
X206205627Y-117620467D01*
X205854002Y-117766114D01*
X205842544Y-117770214D01*
X205478329Y-117880698D01*
X205466525Y-117883654D01*
X205093255Y-117957902D01*
X205081218Y-117959688D01*
X204701695Y-117997068D01*
X204691062Y-117997656D01*
X204500734Y-117999991D01*
X204499213Y-118000000D01*
X68000787Y-118000000D01*
X67999266Y-117999991D01*
X67808937Y-117997656D01*
X67798304Y-117997068D01*
X67418781Y-117959688D01*
X67406744Y-117957902D01*
X67033474Y-117883654D01*
X67021670Y-117880698D01*
X66657455Y-117770214D01*
X66645997Y-117766114D01*
X66294372Y-117620467D01*
X66283372Y-117615264D01*
X65947724Y-117435856D01*
X65937286Y-117429600D01*
X65620830Y-117218150D01*
X65611057Y-117210902D01*
X65316851Y-116969455D01*
X65307834Y-116961282D01*
X65038717Y-116692165D01*
X65030544Y-116683148D01*
X65018158Y-116668056D01*
X64789097Y-116388942D01*
X64781849Y-116379169D01*
X64570399Y-116062713D01*
X64564143Y-116052275D01*
X64551760Y-116029109D01*
X64384734Y-115716626D01*
X64379532Y-115705627D01*
X64233885Y-115354002D01*
X64229785Y-115342544D01*
X64119301Y-114978329D01*
X64116345Y-114966525D01*
X64084315Y-114805498D01*
X64042096Y-114593249D01*
X64040311Y-114581218D01*
X64018184Y-114356558D01*
X64002930Y-114201681D01*
X64002343Y-114191075D01*
X64000009Y-114000732D01*
X64000000Y-113999212D01*
X64000000Y-113249997D01*
X66194652Y-113249997D01*
X66194652Y-113250002D01*
X66198415Y-113319407D01*
X66209295Y-113520084D01*
X66214028Y-113607368D01*
X66214029Y-113607385D01*
X66271926Y-113960539D01*
X66271932Y-113960565D01*
X66367672Y-114305392D01*
X66367674Y-114305399D01*
X66500142Y-114637870D01*
X66500151Y-114637888D01*
X66667784Y-114954077D01*
X66667790Y-114954086D01*
X66868634Y-115250309D01*
X66868641Y-115250319D01*
X67100331Y-115523085D01*
X67100332Y-115523086D01*
X67360163Y-115769211D01*
X67645081Y-115985800D01*
X67951747Y-116170315D01*
X67951749Y-116170316D01*
X67951751Y-116170317D01*
X67951755Y-116170319D01*
X67956048Y-116172305D01*
X68276565Y-116320591D01*
X68615726Y-116434868D01*
X68965254Y-116511805D01*
X69321052Y-116550500D01*
X69321058Y-116550500D01*
X69678942Y-116550500D01*
X69678948Y-116550500D01*
X70034746Y-116511805D01*
X70088390Y-116499997D01*
X101744751Y-116499997D01*
X101744751Y-116500002D01*
X101763685Y-116668056D01*
X101819545Y-116827694D01*
X101819547Y-116827697D01*
X101909518Y-116970884D01*
X101909523Y-116970890D01*
X102029109Y-117090476D01*
X102029115Y-117090481D01*
X102172302Y-117180452D01*
X102172305Y-117180454D01*
X102172309Y-117180455D01*
X102172310Y-117180456D01*
X102244913Y-117205860D01*
X102331943Y-117236314D01*
X102499997Y-117255249D01*
X102500000Y-117255249D01*
X102500003Y-117255249D01*
X102668056Y-117236314D01*
X102668059Y-117236313D01*
X102827690Y-117180456D01*
X102827692Y-117180454D01*
X102827694Y-117180454D01*
X102827697Y-117180452D01*
X102970884Y-117090481D01*
X102970885Y-117090480D01*
X102970890Y-117090477D01*
X103090477Y-116970890D01*
X103180456Y-116827690D01*
X103180520Y-116827505D01*
X103180622Y-116827343D01*
X103183475Y-116821419D01*
X103184142Y-116821740D01*
X103209880Y-116780775D01*
X103490655Y-116500000D01*
X136094540Y-116500000D01*
X136114326Y-116688256D01*
X136114327Y-116688259D01*
X136172818Y-116868277D01*
X136172821Y-116868284D01*
X136267467Y-117032216D01*
X136373971Y-117150500D01*
X136394129Y-117172888D01*
X136547265Y-117284148D01*
X136547270Y-117284151D01*
X136720192Y-117361142D01*
X136720197Y-117361144D01*
X136905354Y-117400500D01*
X136905355Y-117400500D01*
X137094644Y-117400500D01*
X137094646Y-117400500D01*
X137279803Y-117361144D01*
X137452730Y-117284151D01*
X137564727Y-117202780D01*
X137604090Y-117174182D01*
X137669896Y-117150702D01*
X137676975Y-117150500D01*
X139064071Y-117150500D01*
X139148615Y-117133682D01*
X139189744Y-117125501D01*
X139308127Y-117076465D01*
X139356544Y-117044114D01*
X139356544Y-117044113D01*
X139356546Y-117044113D01*
X139385606Y-117024695D01*
X139414669Y-117005277D01*
X148633127Y-107786819D01*
X148694450Y-107753334D01*
X148720808Y-107750500D01*
X160184602Y-107750500D01*
X160251641Y-107770185D01*
X160297396Y-107822989D01*
X160307340Y-107892147D01*
X160278315Y-107955703D01*
X160276752Y-107957472D01*
X160267466Y-107967785D01*
X160172821Y-108131715D01*
X160172818Y-108131722D01*
X160124700Y-108279815D01*
X160114326Y-108311744D01*
X160097926Y-108467784D01*
X160096679Y-108479649D01*
X160070094Y-108544263D01*
X160061039Y-108554368D01*
X158052229Y-110563181D01*
X157990906Y-110596666D01*
X157964548Y-110599500D01*
X157905354Y-110599500D01*
X157872897Y-110606398D01*
X157720197Y-110638855D01*
X157720192Y-110638857D01*
X157547270Y-110715848D01*
X157547265Y-110715851D01*
X157394129Y-110827111D01*
X157267466Y-110967785D01*
X157172821Y-111131715D01*
X157172818Y-111131722D01*
X157121353Y-111290117D01*
X157114326Y-111311744D01*
X157094540Y-111500000D01*
X157114326Y-111688256D01*
X157114327Y-111688259D01*
X157172818Y-111868277D01*
X157172821Y-111868284D01*
X157267467Y-112032216D01*
X157389303Y-112167528D01*
X157419533Y-112230519D01*
X157410908Y-112299854D01*
X157366167Y-112353520D01*
X157299514Y-112374478D01*
X157297153Y-112374500D01*
X153810453Y-112374500D01*
X153743414Y-112354815D01*
X153722772Y-112338181D01*
X152938960Y-111554369D01*
X152905475Y-111493046D01*
X152903323Y-111479668D01*
X152885674Y-111311744D01*
X152827179Y-111131716D01*
X152732533Y-110967784D01*
X152605871Y-110827112D01*
X152605870Y-110827111D01*
X152452734Y-110715851D01*
X152452729Y-110715848D01*
X152279807Y-110638857D01*
X152279802Y-110638855D01*
X152134001Y-110607865D01*
X152094646Y-110599500D01*
X151905354Y-110599500D01*
X151872897Y-110606398D01*
X151720197Y-110638855D01*
X151720192Y-110638857D01*
X151547270Y-110715848D01*
X151547265Y-110715851D01*
X151394129Y-110827111D01*
X151267466Y-110967785D01*
X151172821Y-111131715D01*
X151172818Y-111131722D01*
X151121353Y-111290117D01*
X151114326Y-111311744D01*
X151094540Y-111500000D01*
X151114326Y-111688256D01*
X151114327Y-111688259D01*
X151172818Y-111868277D01*
X151172821Y-111868284D01*
X151267467Y-112032216D01*
X151389303Y-112167528D01*
X151394129Y-112172888D01*
X151547265Y-112284148D01*
X151547270Y-112284151D01*
X151720192Y-112361142D01*
X151720197Y-112361144D01*
X151905354Y-112400500D01*
X151964548Y-112400500D01*
X152031587Y-112420185D01*
X152052228Y-112436818D01*
X153014141Y-113398732D01*
X153014142Y-113398733D01*
X153101266Y-113485857D01*
X153101268Y-113485859D01*
X153203707Y-113554307D01*
X153203711Y-113554309D01*
X153203714Y-113554311D01*
X153317548Y-113601463D01*
X153377971Y-113613481D01*
X153438393Y-113625500D01*
X158561607Y-113625500D01*
X158622029Y-113613481D01*
X158682452Y-113601463D01*
X158682455Y-113601461D01*
X158682458Y-113601461D01*
X158715787Y-113587654D01*
X158715786Y-113587654D01*
X158715792Y-113587652D01*
X158796286Y-113554312D01*
X158847509Y-113520084D01*
X158898733Y-113485858D01*
X158985858Y-113398733D01*
X158985858Y-113398731D01*
X158996066Y-113388524D01*
X158996067Y-113388521D01*
X159657454Y-112727135D01*
X161194500Y-112727135D01*
X161194500Y-114352870D01*
X161194501Y-114352876D01*
X161200908Y-114412483D01*
X161251202Y-114547328D01*
X161251206Y-114547335D01*
X161337452Y-114662544D01*
X161337455Y-114662547D01*
X161452664Y-114748793D01*
X161452671Y-114748797D01*
X161587517Y-114799091D01*
X161587516Y-114799091D01*
X161594444Y-114799835D01*
X161647127Y-114805500D01*
X163272872Y-114805499D01*
X163332483Y-114799091D01*
X163467331Y-114748796D01*
X163582546Y-114662546D01*
X163668796Y-114547331D01*
X163719091Y-114412483D01*
X163725500Y-114352873D01*
X163725499Y-114319434D01*
X163745182Y-114252398D01*
X163797984Y-114206642D01*
X163867143Y-114196697D01*
X163930699Y-114225720D01*
X163951073Y-114248311D01*
X164026862Y-114356547D01*
X164026868Y-114356555D01*
X164183445Y-114513132D01*
X164364833Y-114640142D01*
X164485572Y-114696443D01*
X164565513Y-114733720D01*
X164565515Y-114733720D01*
X164565520Y-114733723D01*
X164779409Y-114791035D01*
X164936974Y-114804820D01*
X164999998Y-114810334D01*
X165000000Y-114810334D01*
X165000002Y-114810334D01*
X165055276Y-114805498D01*
X165220591Y-114791035D01*
X165434480Y-114733723D01*
X165635167Y-114640142D01*
X165816555Y-114513132D01*
X165973132Y-114356555D01*
X166100142Y-114175167D01*
X166157618Y-114051907D01*
X166203790Y-113999468D01*
X166270983Y-113980316D01*
X166337864Y-114000531D01*
X166382381Y-114051907D01*
X166439858Y-114175167D01*
X166566868Y-114356555D01*
X166723445Y-114513132D01*
X166904833Y-114640142D01*
X167025572Y-114696443D01*
X167105513Y-114733720D01*
X167105515Y-114733720D01*
X167105520Y-114733723D01*
X167319409Y-114791035D01*
X167476974Y-114804820D01*
X167539998Y-114810334D01*
X167540000Y-114810334D01*
X167540002Y-114810334D01*
X167595276Y-114805498D01*
X167760591Y-114791035D01*
X167974480Y-114733723D01*
X168175167Y-114640142D01*
X168356555Y-114513132D01*
X168513132Y-114356555D01*
X168640142Y-114175167D01*
X168697618Y-114051907D01*
X168743790Y-113999468D01*
X168810983Y-113980316D01*
X168877864Y-114000531D01*
X168922381Y-114051907D01*
X168979858Y-114175167D01*
X169106868Y-114356555D01*
X169263445Y-114513132D01*
X169444833Y-114640142D01*
X169565572Y-114696443D01*
X169645513Y-114733720D01*
X169645515Y-114733720D01*
X169645520Y-114733723D01*
X169859409Y-114791035D01*
X170016974Y-114804820D01*
X170079998Y-114810334D01*
X170080000Y-114810334D01*
X170080002Y-114810334D01*
X170135276Y-114805498D01*
X170300591Y-114791035D01*
X170514480Y-114733723D01*
X170715167Y-114640142D01*
X170896555Y-114513132D01*
X171053132Y-114356555D01*
X171180142Y-114175167D01*
X171273723Y-113974480D01*
X171331035Y-113760591D01*
X171350334Y-113540000D01*
X171331035Y-113319409D01*
X171312436Y-113249997D01*
X200444652Y-113249997D01*
X200444652Y-113250002D01*
X200448415Y-113319407D01*
X200459295Y-113520084D01*
X200464028Y-113607368D01*
X200464029Y-113607385D01*
X200521926Y-113960539D01*
X200521932Y-113960565D01*
X200617672Y-114305392D01*
X200617674Y-114305399D01*
X200750142Y-114637870D01*
X200750151Y-114637888D01*
X200917784Y-114954077D01*
X200917790Y-114954086D01*
X201118634Y-115250309D01*
X201118641Y-115250319D01*
X201350331Y-115523085D01*
X201350332Y-115523086D01*
X201610163Y-115769211D01*
X201895081Y-115985800D01*
X202201747Y-116170315D01*
X202201749Y-116170316D01*
X202201751Y-116170317D01*
X202201755Y-116170319D01*
X202206048Y-116172305D01*
X202526565Y-116320591D01*
X202865726Y-116434868D01*
X203215254Y-116511805D01*
X203571052Y-116550500D01*
X203571058Y-116550500D01*
X203928942Y-116550500D01*
X203928948Y-116550500D01*
X204284746Y-116511805D01*
X204634274Y-116434868D01*
X204973435Y-116320591D01*
X205298253Y-116170315D01*
X205604919Y-115985800D01*
X205889837Y-115769211D01*
X206149668Y-115523086D01*
X206381365Y-115250311D01*
X206582211Y-114954085D01*
X206749853Y-114637880D01*
X206882324Y-114305403D01*
X206978071Y-113960552D01*
X207033000Y-113625500D01*
X207035970Y-113607385D01*
X207035970Y-113607382D01*
X207035972Y-113607371D01*
X207055348Y-113250000D01*
X207035972Y-112892629D01*
X207025326Y-112827694D01*
X206978073Y-112539460D01*
X206978072Y-112539459D01*
X206978071Y-112539448D01*
X206917536Y-112321419D01*
X206882327Y-112194607D01*
X206882325Y-112194600D01*
X206749857Y-111862129D01*
X206749848Y-111862111D01*
X206730926Y-111826421D01*
X206649219Y-111672305D01*
X206582215Y-111545922D01*
X206582213Y-111545919D01*
X206582211Y-111545915D01*
X206381365Y-111249689D01*
X206381361Y-111249684D01*
X206381358Y-111249680D01*
X206149668Y-110976914D01*
X206140030Y-110967784D01*
X205889837Y-110730789D01*
X205889830Y-110730783D01*
X205889827Y-110730781D01*
X205822245Y-110679407D01*
X205604919Y-110514200D01*
X205298253Y-110329685D01*
X205298252Y-110329684D01*
X205298248Y-110329682D01*
X205298244Y-110329680D01*
X204973447Y-110179414D01*
X204973441Y-110179411D01*
X204973435Y-110179409D01*
X204803854Y-110122270D01*
X204634273Y-110065131D01*
X204284744Y-109988194D01*
X203928949Y-109949500D01*
X203928948Y-109949500D01*
X203571052Y-109949500D01*
X203571050Y-109949500D01*
X203215255Y-109988194D01*
X202865726Y-110065131D01*
X202609970Y-110151306D01*
X202526565Y-110179409D01*
X202526563Y-110179410D01*
X202526552Y-110179414D01*
X202201755Y-110329680D01*
X202201751Y-110329682D01*
X201973367Y-110467096D01*
X201895081Y-110514200D01*
X201830648Y-110563181D01*
X201610172Y-110730781D01*
X201610163Y-110730789D01*
X201350331Y-110976914D01*
X201118641Y-111249680D01*
X201118634Y-111249690D01*
X200917790Y-111545913D01*
X200917784Y-111545922D01*
X200750151Y-111862111D01*
X200750142Y-111862129D01*
X200617674Y-112194600D01*
X200617672Y-112194607D01*
X200521932Y-112539434D01*
X200521926Y-112539460D01*
X200464029Y-112892614D01*
X200464028Y-112892627D01*
X200464028Y-112892629D01*
X200456277Y-113035577D01*
X200444652Y-113249997D01*
X171312436Y-113249997D01*
X171273723Y-113105520D01*
X171266708Y-113090477D01*
X171236443Y-113025572D01*
X171180142Y-112904833D01*
X171053132Y-112723445D01*
X170896555Y-112566868D01*
X170715167Y-112439858D01*
X170672978Y-112420185D01*
X170514486Y-112346279D01*
X170514475Y-112346275D01*
X170300592Y-112288965D01*
X170300585Y-112288964D01*
X170080002Y-112269666D01*
X170079998Y-112269666D01*
X169859414Y-112288964D01*
X169859407Y-112288965D01*
X169645524Y-112346275D01*
X169645513Y-112346279D01*
X169444836Y-112439856D01*
X169444834Y-112439857D01*
X169263444Y-112566868D01*
X169106868Y-112723444D01*
X168979857Y-112904834D01*
X168979856Y-112904836D01*
X168922382Y-113028091D01*
X168876210Y-113080531D01*
X168809017Y-113099683D01*
X168742135Y-113079467D01*
X168697618Y-113028091D01*
X168640143Y-112904836D01*
X168640142Y-112904834D01*
X168640142Y-112904833D01*
X168513132Y-112723445D01*
X168356555Y-112566868D01*
X168175167Y-112439858D01*
X168132978Y-112420185D01*
X167974486Y-112346279D01*
X167974475Y-112346275D01*
X167760592Y-112288965D01*
X167760585Y-112288964D01*
X167540002Y-112269666D01*
X167539998Y-112269666D01*
X167319414Y-112288964D01*
X167319407Y-112288965D01*
X167105524Y-112346275D01*
X167105513Y-112346279D01*
X166904836Y-112439856D01*
X166904834Y-112439857D01*
X166723444Y-112566868D01*
X166566868Y-112723444D01*
X166439857Y-112904834D01*
X166439856Y-112904836D01*
X166382382Y-113028091D01*
X166336210Y-113080531D01*
X166269017Y-113099683D01*
X166202135Y-113079467D01*
X166157618Y-113028091D01*
X166100143Y-112904836D01*
X166100142Y-112904834D01*
X166100142Y-112904833D01*
X165973132Y-112723445D01*
X165816555Y-112566868D01*
X165635167Y-112439858D01*
X165592978Y-112420185D01*
X165434486Y-112346279D01*
X165434475Y-112346275D01*
X165220592Y-112288965D01*
X165220585Y-112288964D01*
X165000002Y-112269666D01*
X164999998Y-112269666D01*
X164779414Y-112288964D01*
X164779407Y-112288965D01*
X164565524Y-112346275D01*
X164565513Y-112346279D01*
X164364836Y-112439856D01*
X164364834Y-112439857D01*
X164183444Y-112566868D01*
X164026868Y-112723444D01*
X164004598Y-112755249D01*
X163953875Y-112827690D01*
X163951074Y-112831690D01*
X163896497Y-112875315D01*
X163826998Y-112882507D01*
X163764644Y-112850985D01*
X163729230Y-112790755D01*
X163725499Y-112760566D01*
X163725499Y-112727129D01*
X163725498Y-112727123D01*
X163725497Y-112727116D01*
X163719091Y-112667517D01*
X163690358Y-112590481D01*
X163668797Y-112532671D01*
X163668793Y-112532664D01*
X163582547Y-112417455D01*
X163582544Y-112417452D01*
X163467335Y-112331206D01*
X163467328Y-112331202D01*
X163332482Y-112280908D01*
X163332483Y-112280908D01*
X163272883Y-112274501D01*
X163272881Y-112274500D01*
X163272873Y-112274500D01*
X163272864Y-112274500D01*
X161647129Y-112274500D01*
X161647123Y-112274501D01*
X161587516Y-112280908D01*
X161452671Y-112331202D01*
X161452664Y-112331206D01*
X161337455Y-112417452D01*
X161337452Y-112417455D01*
X161251206Y-112532664D01*
X161251202Y-112532671D01*
X161200908Y-112667517D01*
X161194896Y-112723444D01*
X161194501Y-112727123D01*
X161194500Y-112727135D01*
X159657454Y-112727135D01*
X162485857Y-109898734D01*
X162554311Y-109796286D01*
X162596890Y-109693491D01*
X162619301Y-109657972D01*
X162732533Y-109532216D01*
X162827179Y-109368284D01*
X162885674Y-109188256D01*
X162905460Y-109000000D01*
X162885674Y-108811744D01*
X162827179Y-108631716D01*
X162732533Y-108467784D01*
X162605871Y-108327112D01*
X162595456Y-108319545D01*
X162452734Y-108215851D01*
X162452729Y-108215848D01*
X162279807Y-108138857D01*
X162279802Y-108138855D01*
X162097840Y-108100179D01*
X162094646Y-108099500D01*
X161905354Y-108099500D01*
X161905349Y-108099500D01*
X161898886Y-108100179D01*
X161898703Y-108098440D01*
X161837586Y-108093763D01*
X161781862Y-108051613D01*
X161774111Y-108039799D01*
X161769416Y-108031667D01*
X161732533Y-107967784D01*
X161723247Y-107957471D01*
X161693018Y-107894481D01*
X161701643Y-107825145D01*
X161746385Y-107771480D01*
X161813037Y-107750522D01*
X161815398Y-107750500D01*
X172964071Y-107750500D01*
X173048615Y-107733682D01*
X173089744Y-107725501D01*
X173208127Y-107676465D01*
X173314669Y-107605277D01*
X173672004Y-107247939D01*
X173718725Y-107218583D01*
X173827690Y-107180456D01*
X173827693Y-107180453D01*
X173827697Y-107180452D01*
X173970884Y-107090481D01*
X173970885Y-107090480D01*
X173970890Y-107090477D01*
X174090477Y-106970890D01*
X174090481Y-106970884D01*
X174180452Y-106827697D01*
X174180454Y-106827694D01*
X174180454Y-106827692D01*
X174180456Y-106827690D01*
X174236313Y-106668059D01*
X174236313Y-106668058D01*
X174236314Y-106668056D01*
X174255249Y-106500002D01*
X174255249Y-106499997D01*
X174236314Y-106331943D01*
X174180454Y-106172305D01*
X174180452Y-106172302D01*
X174090481Y-106029115D01*
X174090476Y-106029109D01*
X173970890Y-105909523D01*
X173970884Y-105909518D01*
X173827697Y-105819547D01*
X173827694Y-105819545D01*
X173668056Y-105763685D01*
X173500003Y-105744751D01*
X173499997Y-105744751D01*
X173331943Y-105763685D01*
X173172305Y-105819545D01*
X173172302Y-105819547D01*
X173029115Y-105909518D01*
X173029109Y-105909523D01*
X172909523Y-106029109D01*
X172909518Y-106029115D01*
X172819548Y-106172300D01*
X172819543Y-106172311D01*
X172781416Y-106281271D01*
X172752057Y-106327997D01*
X172666871Y-106413182D01*
X172605551Y-106446666D01*
X172579192Y-106449500D01*
X148920807Y-106449500D01*
X148853768Y-106429815D01*
X148833126Y-106413181D01*
X145419946Y-103000000D01*
X150594540Y-103000000D01*
X150614326Y-103188256D01*
X150614327Y-103188259D01*
X150672818Y-103368277D01*
X150672820Y-103368281D01*
X150672821Y-103368284D01*
X150696234Y-103408836D01*
X150713072Y-103438001D01*
X150729543Y-103505901D01*
X150713072Y-103561998D01*
X150682715Y-103614580D01*
X150672820Y-103631718D01*
X150672818Y-103631722D01*
X150628311Y-103768702D01*
X150614326Y-103811744D01*
X150594540Y-104000000D01*
X150614326Y-104188256D01*
X150614327Y-104188259D01*
X150672818Y-104368277D01*
X150672820Y-104368281D01*
X150672821Y-104368284D01*
X150672893Y-104368408D01*
X150713072Y-104438001D01*
X150729543Y-104505901D01*
X150713072Y-104561999D01*
X150672820Y-104631718D01*
X150672818Y-104631722D01*
X150634289Y-104750304D01*
X150614326Y-104811744D01*
X150594540Y-105000000D01*
X150614326Y-105188256D01*
X150614327Y-105188259D01*
X150672818Y-105368277D01*
X150672821Y-105368284D01*
X150767467Y-105532216D01*
X150873971Y-105650500D01*
X150894129Y-105672888D01*
X151047265Y-105784148D01*
X151047270Y-105784151D01*
X151220192Y-105861142D01*
X151220197Y-105861144D01*
X151405354Y-105900500D01*
X151405355Y-105900500D01*
X151594644Y-105900500D01*
X151594646Y-105900500D01*
X151779803Y-105861144D01*
X151952730Y-105784151D01*
X152104090Y-105674182D01*
X152169896Y-105650702D01*
X152176975Y-105650500D01*
X161323025Y-105650500D01*
X161390064Y-105670185D01*
X161395910Y-105674182D01*
X161547265Y-105784148D01*
X161547270Y-105784151D01*
X161720192Y-105861142D01*
X161720197Y-105861144D01*
X161905354Y-105900500D01*
X161905355Y-105900500D01*
X162094644Y-105900500D01*
X162094646Y-105900500D01*
X162279803Y-105861144D01*
X162452730Y-105784151D01*
X162605871Y-105672888D01*
X162732533Y-105532216D01*
X162827179Y-105368284D01*
X162885674Y-105188256D01*
X162905460Y-105000000D01*
X162885674Y-104811744D01*
X162827179Y-104631716D01*
X162732533Y-104467784D01*
X162605871Y-104327112D01*
X162605870Y-104327111D01*
X162452734Y-104215851D01*
X162452729Y-104215848D01*
X162279807Y-104138857D01*
X162279802Y-104138855D01*
X162134001Y-104107865D01*
X162094646Y-104099500D01*
X162027568Y-104099500D01*
X161960529Y-104079815D01*
X161914774Y-104027011D01*
X161904247Y-103988462D01*
X161885674Y-103811744D01*
X161827179Y-103631716D01*
X161732533Y-103467784D01*
X161605871Y-103327112D01*
X161598477Y-103321740D01*
X161452734Y-103215851D01*
X161452729Y-103215848D01*
X161279807Y-103138857D01*
X161279802Y-103138855D01*
X161134001Y-103107865D01*
X161094646Y-103099500D01*
X161027568Y-103099500D01*
X160960529Y-103079815D01*
X160936561Y-103052155D01*
X174440000Y-103052155D01*
X174440000Y-103750000D01*
X175291518Y-103750000D01*
X175280889Y-103768409D01*
X175240000Y-103921009D01*
X175240000Y-104078991D01*
X175280889Y-104231591D01*
X175291518Y-104250000D01*
X174440000Y-104250000D01*
X174440000Y-104947844D01*
X174446401Y-105007372D01*
X174446403Y-105007379D01*
X174496645Y-105142086D01*
X174496649Y-105142093D01*
X174582809Y-105257187D01*
X174582812Y-105257190D01*
X174697906Y-105343350D01*
X174697913Y-105343354D01*
X174832620Y-105393596D01*
X174832627Y-105393598D01*
X174892155Y-105399999D01*
X174892172Y-105400000D01*
X175590000Y-105400000D01*
X175590000Y-104548482D01*
X175608409Y-104559111D01*
X175761009Y-104600000D01*
X175918991Y-104600000D01*
X176071591Y-104559111D01*
X176090000Y-104548482D01*
X176090000Y-105400000D01*
X176787828Y-105400000D01*
X176787844Y-105399999D01*
X176847372Y-105393598D01*
X176847379Y-105393596D01*
X176982086Y-105343354D01*
X176982093Y-105343350D01*
X177097187Y-105257190D01*
X177097190Y-105257187D01*
X177183350Y-105142093D01*
X177183355Y-105142084D01*
X177212075Y-105065081D01*
X177253945Y-105009147D01*
X177319409Y-104984729D01*
X177387682Y-104999580D01*
X177419484Y-105024428D01*
X177428216Y-105033913D01*
X177428219Y-105033915D01*
X177428222Y-105033918D01*
X177611365Y-105176464D01*
X177611371Y-105176468D01*
X177611374Y-105176470D01*
X177721954Y-105236313D01*
X177802338Y-105279815D01*
X177815497Y-105286936D01*
X177843840Y-105296666D01*
X178035015Y-105362297D01*
X178035017Y-105362297D01*
X178035019Y-105362298D01*
X178263951Y-105400500D01*
X178263952Y-105400500D01*
X178496048Y-105400500D01*
X178496049Y-105400500D01*
X178724981Y-105362298D01*
X178944503Y-105286936D01*
X179148626Y-105176470D01*
X179331784Y-105033913D01*
X179488979Y-104863153D01*
X179546191Y-104775582D01*
X179599337Y-104730226D01*
X179668568Y-104720802D01*
X179731904Y-104750304D01*
X179753809Y-104775583D01*
X179811016Y-104863147D01*
X179811019Y-104863151D01*
X179811021Y-104863153D01*
X179968216Y-105033913D01*
X179968219Y-105033915D01*
X179968222Y-105033918D01*
X180151365Y-105176464D01*
X180151371Y-105176468D01*
X180151374Y-105176470D01*
X180261954Y-105236313D01*
X180342338Y-105279815D01*
X180355497Y-105286936D01*
X180383840Y-105296666D01*
X180575015Y-105362297D01*
X180575017Y-105362297D01*
X180575019Y-105362298D01*
X180803951Y-105400500D01*
X180803952Y-105400500D01*
X181036048Y-105400500D01*
X181036049Y-105400500D01*
X181264981Y-105362298D01*
X181484503Y-105286936D01*
X181688626Y-105176470D01*
X181871784Y-105033913D01*
X182028979Y-104863153D01*
X182086191Y-104775582D01*
X182139337Y-104730226D01*
X182208568Y-104720802D01*
X182271904Y-104750304D01*
X182293809Y-104775583D01*
X182351016Y-104863147D01*
X182351019Y-104863151D01*
X182351021Y-104863153D01*
X182508216Y-105033913D01*
X182508219Y-105033915D01*
X182508222Y-105033918D01*
X182691365Y-105176464D01*
X182691371Y-105176468D01*
X182691374Y-105176470D01*
X182801954Y-105236313D01*
X182882338Y-105279815D01*
X182895497Y-105286936D01*
X182923840Y-105296666D01*
X183115015Y-105362297D01*
X183115017Y-105362297D01*
X183115019Y-105362298D01*
X183343951Y-105400500D01*
X183343952Y-105400500D01*
X183576048Y-105400500D01*
X183576049Y-105400500D01*
X183804981Y-105362298D01*
X184024503Y-105286936D01*
X184228626Y-105176470D01*
X184411784Y-105033913D01*
X184568979Y-104863153D01*
X184626191Y-104775582D01*
X184679337Y-104730226D01*
X184748568Y-104720802D01*
X184811904Y-104750304D01*
X184833809Y-104775583D01*
X184891016Y-104863147D01*
X184891019Y-104863151D01*
X184891021Y-104863153D01*
X185048216Y-105033913D01*
X185048219Y-105033915D01*
X185048222Y-105033918D01*
X185231365Y-105176464D01*
X185231371Y-105176468D01*
X185231374Y-105176470D01*
X185341954Y-105236313D01*
X185422338Y-105279815D01*
X185435497Y-105286936D01*
X185463840Y-105296666D01*
X185655015Y-105362297D01*
X185655017Y-105362297D01*
X185655019Y-105362298D01*
X185883951Y-105400500D01*
X185883952Y-105400500D01*
X186116048Y-105400500D01*
X186116049Y-105400500D01*
X186344981Y-105362298D01*
X186564503Y-105286936D01*
X186768626Y-105176470D01*
X186951784Y-105033913D01*
X187108979Y-104863153D01*
X187166191Y-104775582D01*
X187219337Y-104730226D01*
X187288568Y-104720802D01*
X187351904Y-104750304D01*
X187373809Y-104775583D01*
X187431016Y-104863147D01*
X187431019Y-104863151D01*
X187431021Y-104863153D01*
X187588216Y-105033913D01*
X187588219Y-105033915D01*
X187588222Y-105033918D01*
X187771365Y-105176464D01*
X187771371Y-105176468D01*
X187771374Y-105176470D01*
X187881954Y-105236313D01*
X187962338Y-105279815D01*
X187975497Y-105286936D01*
X188003840Y-105296666D01*
X188195015Y-105362297D01*
X188195017Y-105362297D01*
X188195019Y-105362298D01*
X188423951Y-105400500D01*
X188423952Y-105400500D01*
X188656048Y-105400500D01*
X188656049Y-105400500D01*
X188884981Y-105362298D01*
X189104503Y-105286936D01*
X189308626Y-105176470D01*
X189491784Y-105033913D01*
X189648979Y-104863153D01*
X189706191Y-104775582D01*
X189759337Y-104730226D01*
X189828568Y-104720802D01*
X189891904Y-104750304D01*
X189913809Y-104775583D01*
X189971016Y-104863147D01*
X189971019Y-104863151D01*
X189971021Y-104863153D01*
X190128216Y-105033913D01*
X190128219Y-105033915D01*
X190128222Y-105033918D01*
X190311365Y-105176464D01*
X190311371Y-105176468D01*
X190311374Y-105176470D01*
X190421954Y-105236313D01*
X190502338Y-105279815D01*
X190515497Y-105286936D01*
X190543840Y-105296666D01*
X190735015Y-105362297D01*
X190735017Y-105362297D01*
X190735019Y-105362298D01*
X190963951Y-105400500D01*
X190963952Y-105400500D01*
X191196048Y-105400500D01*
X191196049Y-105400500D01*
X191424981Y-105362298D01*
X191644503Y-105286936D01*
X191848626Y-105176470D01*
X192031784Y-105033913D01*
X192188979Y-104863153D01*
X192246191Y-104775582D01*
X192299337Y-104730226D01*
X192368568Y-104720802D01*
X192431904Y-104750304D01*
X192453809Y-104775583D01*
X192511016Y-104863147D01*
X192511019Y-104863151D01*
X192511021Y-104863153D01*
X192668216Y-105033913D01*
X192668219Y-105033915D01*
X192668222Y-105033918D01*
X192851365Y-105176464D01*
X192851371Y-105176468D01*
X192851374Y-105176470D01*
X192961954Y-105236313D01*
X193042338Y-105279815D01*
X193055497Y-105286936D01*
X193083840Y-105296666D01*
X193275015Y-105362297D01*
X193275017Y-105362297D01*
X193275019Y-105362298D01*
X193503951Y-105400500D01*
X193503952Y-105400500D01*
X193736048Y-105400500D01*
X193736049Y-105400500D01*
X193964981Y-105362298D01*
X194184503Y-105286936D01*
X194388626Y-105176470D01*
X194571784Y-105033913D01*
X194728979Y-104863153D01*
X194786191Y-104775582D01*
X194839337Y-104730226D01*
X194908568Y-104720802D01*
X194971904Y-104750304D01*
X194993809Y-104775583D01*
X195051016Y-104863147D01*
X195051019Y-104863151D01*
X195051021Y-104863153D01*
X195208216Y-105033913D01*
X195208219Y-105033915D01*
X195208222Y-105033918D01*
X195391365Y-105176464D01*
X195391371Y-105176468D01*
X195391374Y-105176470D01*
X195501954Y-105236313D01*
X195582338Y-105279815D01*
X195595497Y-105286936D01*
X195623840Y-105296666D01*
X195815015Y-105362297D01*
X195815017Y-105362297D01*
X195815019Y-105362298D01*
X196043951Y-105400500D01*
X196043952Y-105400500D01*
X196276048Y-105400500D01*
X196276049Y-105400500D01*
X196504981Y-105362298D01*
X196724503Y-105286936D01*
X196928626Y-105176470D01*
X197111784Y-105033913D01*
X197268979Y-104863153D01*
X197395924Y-104668849D01*
X197489157Y-104456300D01*
X197546134Y-104231305D01*
X197546216Y-104230315D01*
X197565300Y-104000006D01*
X197565300Y-103999993D01*
X197546135Y-103768702D01*
X197546133Y-103768691D01*
X197489157Y-103543699D01*
X197395924Y-103331151D01*
X197268983Y-103136852D01*
X197268980Y-103136849D01*
X197268979Y-103136847D01*
X197111784Y-102966087D01*
X197111779Y-102966083D01*
X197111777Y-102966081D01*
X196928634Y-102823535D01*
X196928628Y-102823531D01*
X196724504Y-102713064D01*
X196724495Y-102713061D01*
X196504984Y-102637702D01*
X196317404Y-102606401D01*
X196276049Y-102599500D01*
X196043951Y-102599500D01*
X196002596Y-102606401D01*
X195815015Y-102637702D01*
X195595504Y-102713061D01*
X195595495Y-102713064D01*
X195391371Y-102823531D01*
X195391365Y-102823535D01*
X195208222Y-102966081D01*
X195208219Y-102966084D01*
X195208216Y-102966086D01*
X195208216Y-102966087D01*
X195183791Y-102992620D01*
X195051016Y-103136852D01*
X194993809Y-103224416D01*
X194940662Y-103269773D01*
X194871431Y-103279197D01*
X194808095Y-103249695D01*
X194786191Y-103224416D01*
X194728983Y-103136852D01*
X194728980Y-103136849D01*
X194728979Y-103136847D01*
X194571784Y-102966087D01*
X194571779Y-102966083D01*
X194571777Y-102966081D01*
X194388634Y-102823535D01*
X194388628Y-102823531D01*
X194184504Y-102713064D01*
X194184495Y-102713061D01*
X193964984Y-102637702D01*
X193777404Y-102606401D01*
X193736049Y-102599500D01*
X193503951Y-102599500D01*
X193462596Y-102606401D01*
X193275015Y-102637702D01*
X193055504Y-102713061D01*
X193055495Y-102713064D01*
X192851371Y-102823531D01*
X192851365Y-102823535D01*
X192668222Y-102966081D01*
X192668219Y-102966084D01*
X192668216Y-102966086D01*
X192668216Y-102966087D01*
X192643791Y-102992620D01*
X192511016Y-103136852D01*
X192453809Y-103224416D01*
X192400662Y-103269773D01*
X192331431Y-103279197D01*
X192268095Y-103249695D01*
X192246191Y-103224416D01*
X192188983Y-103136852D01*
X192188980Y-103136849D01*
X192188979Y-103136847D01*
X192031784Y-102966087D01*
X192031779Y-102966083D01*
X192031777Y-102966081D01*
X191848634Y-102823535D01*
X191848628Y-102823531D01*
X191644504Y-102713064D01*
X191644495Y-102713061D01*
X191424984Y-102637702D01*
X191237404Y-102606401D01*
X191196049Y-102599500D01*
X190963951Y-102599500D01*
X190922596Y-102606401D01*
X190735015Y-102637702D01*
X190515504Y-102713061D01*
X190515495Y-102713064D01*
X190311371Y-102823531D01*
X190311365Y-102823535D01*
X190128222Y-102966081D01*
X190128219Y-102966084D01*
X190128216Y-102966086D01*
X190128216Y-102966087D01*
X190103791Y-102992620D01*
X189971016Y-103136852D01*
X189913809Y-103224416D01*
X189860662Y-103269773D01*
X189791431Y-103279197D01*
X189728095Y-103249695D01*
X189706191Y-103224416D01*
X189648983Y-103136852D01*
X189648980Y-103136849D01*
X189648979Y-103136847D01*
X189491784Y-102966087D01*
X189491779Y-102966083D01*
X189491777Y-102966081D01*
X189308634Y-102823535D01*
X189308628Y-102823531D01*
X189104504Y-102713064D01*
X189104495Y-102713061D01*
X188884984Y-102637702D01*
X188697404Y-102606401D01*
X188656049Y-102599500D01*
X188423951Y-102599500D01*
X188382596Y-102606401D01*
X188195015Y-102637702D01*
X187975504Y-102713061D01*
X187975495Y-102713064D01*
X187771371Y-102823531D01*
X187771365Y-102823535D01*
X187588222Y-102966081D01*
X187588219Y-102966084D01*
X187588216Y-102966086D01*
X187588216Y-102966087D01*
X187563791Y-102992620D01*
X187431016Y-103136852D01*
X187373809Y-103224416D01*
X187320662Y-103269773D01*
X187251431Y-103279197D01*
X187188095Y-103249695D01*
X187166191Y-103224416D01*
X187108983Y-103136852D01*
X187108980Y-103136849D01*
X187108979Y-103136847D01*
X186951784Y-102966087D01*
X186951779Y-102966083D01*
X186951777Y-102966081D01*
X186768634Y-102823535D01*
X186768628Y-102823531D01*
X186564504Y-102713064D01*
X186564495Y-102713061D01*
X186344984Y-102637702D01*
X186157404Y-102606401D01*
X186116049Y-102599500D01*
X185883951Y-102599500D01*
X185842596Y-102606401D01*
X185655015Y-102637702D01*
X185435504Y-102713061D01*
X185435495Y-102713064D01*
X185231371Y-102823531D01*
X185231365Y-102823535D01*
X185048222Y-102966081D01*
X185048219Y-102966084D01*
X185048216Y-102966086D01*
X185048216Y-102966087D01*
X185023791Y-102992620D01*
X184891016Y-103136852D01*
X184833809Y-103224416D01*
X184780662Y-103269773D01*
X184711431Y-103279197D01*
X184648095Y-103249695D01*
X184626191Y-103224416D01*
X184568983Y-103136852D01*
X184568980Y-103136849D01*
X184568979Y-103136847D01*
X184411784Y-102966087D01*
X184411779Y-102966083D01*
X184411777Y-102966081D01*
X184228634Y-102823535D01*
X184228628Y-102823531D01*
X184024504Y-102713064D01*
X184024495Y-102713061D01*
X183804984Y-102637702D01*
X183617404Y-102606401D01*
X183576049Y-102599500D01*
X183343951Y-102599500D01*
X183302596Y-102606401D01*
X183115015Y-102637702D01*
X182895504Y-102713061D01*
X182895495Y-102713064D01*
X182691371Y-102823531D01*
X182691365Y-102823535D01*
X182508222Y-102966081D01*
X182508219Y-102966084D01*
X182508216Y-102966086D01*
X182508216Y-102966087D01*
X182483791Y-102992620D01*
X182351016Y-103136852D01*
X182293809Y-103224416D01*
X182240662Y-103269773D01*
X182171431Y-103279197D01*
X182108095Y-103249695D01*
X182086191Y-103224416D01*
X182028983Y-103136852D01*
X182028980Y-103136849D01*
X182028979Y-103136847D01*
X181871784Y-102966087D01*
X181871779Y-102966083D01*
X181871777Y-102966081D01*
X181688634Y-102823535D01*
X181688628Y-102823531D01*
X181484504Y-102713064D01*
X181484495Y-102713061D01*
X181264984Y-102637702D01*
X181077404Y-102606401D01*
X181036049Y-102599500D01*
X180803951Y-102599500D01*
X180762596Y-102606401D01*
X180575015Y-102637702D01*
X180355504Y-102713061D01*
X180355495Y-102713064D01*
X180151371Y-102823531D01*
X180151365Y-102823535D01*
X179968222Y-102966081D01*
X179968219Y-102966084D01*
X179968216Y-102966086D01*
X179968216Y-102966087D01*
X179943791Y-102992620D01*
X179811016Y-103136852D01*
X179753809Y-103224416D01*
X179700662Y-103269773D01*
X179631431Y-103279197D01*
X179568095Y-103249695D01*
X179546191Y-103224416D01*
X179488983Y-103136852D01*
X179488980Y-103136849D01*
X179488979Y-103136847D01*
X179331784Y-102966087D01*
X179331779Y-102966083D01*
X179331777Y-102966081D01*
X179148634Y-102823535D01*
X179148628Y-102823531D01*
X178944504Y-102713064D01*
X178944495Y-102713061D01*
X178724984Y-102637702D01*
X178537404Y-102606401D01*
X178496049Y-102599500D01*
X178263951Y-102599500D01*
X178222596Y-102606401D01*
X178035015Y-102637702D01*
X177815504Y-102713061D01*
X177815495Y-102713064D01*
X177611371Y-102823531D01*
X177611365Y-102823535D01*
X177428222Y-102966081D01*
X177428215Y-102966087D01*
X177419484Y-102975572D01*
X177359595Y-103011561D01*
X177289757Y-103009458D01*
X177232143Y-102969932D01*
X177212075Y-102934918D01*
X177183355Y-102857915D01*
X177183350Y-102857906D01*
X177097190Y-102742812D01*
X177097187Y-102742809D01*
X176982093Y-102656649D01*
X176982086Y-102656645D01*
X176847379Y-102606403D01*
X176847372Y-102606401D01*
X176787844Y-102600000D01*
X176090000Y-102600000D01*
X176090000Y-103451517D01*
X176071591Y-103440889D01*
X175918991Y-103400000D01*
X175761009Y-103400000D01*
X175608409Y-103440889D01*
X175590000Y-103451517D01*
X175590000Y-102600000D01*
X174892155Y-102600000D01*
X174832627Y-102606401D01*
X174832620Y-102606403D01*
X174697913Y-102656645D01*
X174697906Y-102656649D01*
X174582812Y-102742809D01*
X174582809Y-102742812D01*
X174496649Y-102857906D01*
X174496645Y-102857913D01*
X174446403Y-102992620D01*
X174446401Y-102992627D01*
X174440000Y-103052155D01*
X160936561Y-103052155D01*
X160914774Y-103027011D01*
X160904247Y-102988462D01*
X160885674Y-102811744D01*
X160827179Y-102631716D01*
X160732533Y-102467784D01*
X160605871Y-102327112D01*
X160604090Y-102325818D01*
X160452734Y-102215851D01*
X160452729Y-102215848D01*
X160279807Y-102138857D01*
X160279802Y-102138855D01*
X160134001Y-102107865D01*
X160094646Y-102099500D01*
X159905354Y-102099500D01*
X159872897Y-102106398D01*
X159720197Y-102138855D01*
X159720192Y-102138857D01*
X159547270Y-102215848D01*
X159547265Y-102215851D01*
X159395910Y-102325818D01*
X159330104Y-102349298D01*
X159323025Y-102349500D01*
X152176975Y-102349500D01*
X152109936Y-102329815D01*
X152104090Y-102325818D01*
X151952734Y-102215851D01*
X151952729Y-102215848D01*
X151779807Y-102138857D01*
X151779802Y-102138855D01*
X151634001Y-102107865D01*
X151594646Y-102099500D01*
X151405354Y-102099500D01*
X151372897Y-102106398D01*
X151220197Y-102138855D01*
X151220192Y-102138857D01*
X151047270Y-102215848D01*
X151047265Y-102215851D01*
X150894129Y-102327111D01*
X150767466Y-102467785D01*
X150672821Y-102631715D01*
X150672818Y-102631722D01*
X150614327Y-102811740D01*
X150614326Y-102811744D01*
X150594540Y-103000000D01*
X145419946Y-103000000D01*
X144186819Y-101766873D01*
X144153334Y-101705550D01*
X144150500Y-101679192D01*
X144150500Y-100274500D01*
X144170185Y-100207461D01*
X144222989Y-100161706D01*
X144274500Y-100150500D01*
X146823025Y-100150500D01*
X146890064Y-100170185D01*
X146895910Y-100174182D01*
X147047265Y-100284148D01*
X147047270Y-100284151D01*
X147220192Y-100361142D01*
X147220193Y-100361142D01*
X147220197Y-100361144D01*
X147405354Y-100400500D01*
X147405356Y-100400500D01*
X147407685Y-100400995D01*
X147469167Y-100434187D01*
X147502944Y-100495350D01*
X147498292Y-100565064D01*
X147469586Y-100609966D01*
X147327227Y-100752325D01*
X147280502Y-100781685D01*
X147172308Y-100819544D01*
X147172300Y-100819548D01*
X147029115Y-100909518D01*
X147029109Y-100909523D01*
X146909523Y-101029109D01*
X146909518Y-101029115D01*
X146819547Y-101172302D01*
X146819545Y-101172305D01*
X146763685Y-101331943D01*
X146744751Y-101499997D01*
X146744751Y-101500002D01*
X146763685Y-101668056D01*
X146819545Y-101827694D01*
X146819547Y-101827697D01*
X146909518Y-101970884D01*
X146909523Y-101970890D01*
X147029109Y-102090476D01*
X147029115Y-102090481D01*
X147172302Y-102180452D01*
X147172305Y-102180454D01*
X147172309Y-102180455D01*
X147172310Y-102180456D01*
X147198837Y-102189738D01*
X147331943Y-102236314D01*
X147499997Y-102255249D01*
X147500000Y-102255249D01*
X147500003Y-102255249D01*
X147668056Y-102236314D01*
X147726536Y-102215851D01*
X147827690Y-102180456D01*
X147827692Y-102180454D01*
X147827694Y-102180454D01*
X147827697Y-102180452D01*
X147970884Y-102090481D01*
X147970885Y-102090480D01*
X147970890Y-102090477D01*
X148090477Y-101970890D01*
X148180454Y-101827694D01*
X148180456Y-101827689D01*
X148201736Y-101766873D01*
X148218852Y-101717958D01*
X148248210Y-101671234D01*
X148732627Y-101186819D01*
X148793950Y-101153334D01*
X148820308Y-101150500D01*
X179064071Y-101150500D01*
X179148615Y-101133682D01*
X179189744Y-101125501D01*
X179308127Y-101076465D01*
X179356544Y-101044114D01*
X179356544Y-101044113D01*
X179356546Y-101044113D01*
X179385606Y-101024695D01*
X179414669Y-101005277D01*
X188483127Y-91936819D01*
X188544450Y-91903334D01*
X188570808Y-91900500D01*
X188594644Y-91900500D01*
X188594646Y-91900500D01*
X188779803Y-91861144D01*
X188952730Y-91784151D01*
X189105871Y-91672888D01*
X189232533Y-91532216D01*
X189235026Y-91527898D01*
X189297649Y-91419432D01*
X189348215Y-91371216D01*
X189416822Y-91357992D01*
X189445986Y-91364388D01*
X189467568Y-91371940D01*
X189467571Y-91371940D01*
X189467573Y-91371941D01*
X189635624Y-91390876D01*
X189635627Y-91390876D01*
X189635630Y-91390876D01*
X189803683Y-91371941D01*
X189814134Y-91368284D01*
X189963317Y-91316083D01*
X189963319Y-91316081D01*
X189963321Y-91316081D01*
X189963324Y-91316079D01*
X190106511Y-91226108D01*
X190106512Y-91226107D01*
X190106517Y-91226104D01*
X190226104Y-91106517D01*
X190236183Y-91090477D01*
X190316079Y-90963324D01*
X190316081Y-90963321D01*
X190316081Y-90963319D01*
X190316083Y-90963317D01*
X190371940Y-90803686D01*
X190371940Y-90803685D01*
X190371941Y-90803683D01*
X190390876Y-90635629D01*
X190390876Y-90635624D01*
X190371941Y-90467570D01*
X190324482Y-90331941D01*
X190316083Y-90307937D01*
X190316082Y-90307936D01*
X190316081Y-90307932D01*
X190316079Y-90307929D01*
X190226108Y-90164742D01*
X190226103Y-90164736D01*
X190106517Y-90045150D01*
X190106511Y-90045145D01*
X189963324Y-89955174D01*
X189963321Y-89955172D01*
X189857251Y-89918057D01*
X189815896Y-89903586D01*
X189769171Y-89874226D01*
X183247943Y-83352997D01*
X183218582Y-83306270D01*
X183180455Y-83197307D01*
X183097617Y-83065473D01*
X183078616Y-82998236D01*
X183098983Y-82931401D01*
X183152251Y-82886186D01*
X183202610Y-82875500D01*
X184243784Y-82875500D01*
X184310823Y-82895185D01*
X184331465Y-82911819D01*
X191915193Y-90495547D01*
X191948678Y-90556870D01*
X191951512Y-90583228D01*
X191951512Y-90645919D01*
X191932507Y-90711889D01*
X191921556Y-90729318D01*
X191865697Y-90888951D01*
X191846763Y-91057005D01*
X191846763Y-91057010D01*
X191865697Y-91225064D01*
X191921557Y-91384702D01*
X191921559Y-91384705D01*
X192011530Y-91527892D01*
X192011535Y-91527898D01*
X192131121Y-91647484D01*
X192131127Y-91647489D01*
X192274314Y-91737460D01*
X192274317Y-91737462D01*
X192274321Y-91737463D01*
X192274322Y-91737464D01*
X192346925Y-91762868D01*
X192433955Y-91793322D01*
X192602009Y-91812257D01*
X192602012Y-91812257D01*
X192602015Y-91812257D01*
X192770068Y-91793322D01*
X192796286Y-91784148D01*
X192929702Y-91737464D01*
X192929704Y-91737462D01*
X192929706Y-91737462D01*
X192929709Y-91737460D01*
X193072896Y-91647489D01*
X193072897Y-91647488D01*
X193072902Y-91647485D01*
X193192489Y-91527898D01*
X193228310Y-91470890D01*
X193282464Y-91384705D01*
X193282466Y-91384702D01*
X193282466Y-91384700D01*
X193282468Y-91384698D01*
X193338325Y-91225067D01*
X193338325Y-91225066D01*
X193338326Y-91225064D01*
X193357261Y-91057010D01*
X193357261Y-91057005D01*
X193338335Y-90889032D01*
X193350389Y-90820210D01*
X193397738Y-90768830D01*
X193465349Y-90751206D01*
X193531755Y-90772932D01*
X193534440Y-90774830D01*
X193547265Y-90784148D01*
X193547270Y-90784151D01*
X193720192Y-90861142D01*
X193720197Y-90861144D01*
X193905354Y-90900500D01*
X193905355Y-90900500D01*
X194094644Y-90900500D01*
X194094646Y-90900500D01*
X194279803Y-90861144D01*
X194452730Y-90784151D01*
X194605871Y-90672888D01*
X194732533Y-90532216D01*
X194827179Y-90368284D01*
X194885674Y-90188256D01*
X194905460Y-90000000D01*
X194885674Y-89811744D01*
X194827179Y-89631716D01*
X194732533Y-89467784D01*
X194605871Y-89327112D01*
X194539802Y-89279110D01*
X194452734Y-89215851D01*
X194452729Y-89215848D01*
X194279807Y-89138857D01*
X194279802Y-89138855D01*
X194124871Y-89105924D01*
X194063389Y-89072732D01*
X194062971Y-89072315D01*
X185109357Y-80118699D01*
X185109356Y-80118698D01*
X184994618Y-80042033D01*
X184867143Y-79989232D01*
X184867133Y-79989229D01*
X184731807Y-79962311D01*
X184731805Y-79962311D01*
X184731804Y-79962311D01*
X181693696Y-79962311D01*
X181693692Y-79962311D01*
X181585279Y-79983876D01*
X181585278Y-79983876D01*
X181571820Y-79986553D01*
X181558362Y-79989230D01*
X181505555Y-80011102D01*
X181505555Y-80011103D01*
X181462086Y-80029109D01*
X181430875Y-80042037D01*
X181420723Y-80048821D01*
X181420612Y-80048895D01*
X181316146Y-80118697D01*
X181316142Y-80118700D01*
X179246162Y-82188681D01*
X179184839Y-82222166D01*
X179158481Y-82225000D01*
X178505504Y-82225000D01*
X178370177Y-82251918D01*
X178370171Y-82251920D01*
X178326231Y-82270120D01*
X178278089Y-82290061D01*
X178230639Y-82299500D01*
X177291476Y-82299500D01*
X177250521Y-82292541D01*
X177168060Y-82263686D01*
X177000003Y-82244751D01*
X176999997Y-82244751D01*
X176831943Y-82263685D01*
X176672305Y-82319545D01*
X176672302Y-82319547D01*
X176529115Y-82409518D01*
X176529109Y-82409523D01*
X176409523Y-82529109D01*
X176409518Y-82529115D01*
X176319547Y-82672302D01*
X176319545Y-82672305D01*
X176263685Y-82831943D01*
X176244751Y-82999997D01*
X176244751Y-83000002D01*
X176263685Y-83168056D01*
X176319545Y-83327694D01*
X176319547Y-83327697D01*
X176409518Y-83470884D01*
X176409523Y-83470890D01*
X176529110Y-83590477D01*
X176672310Y-83680456D01*
X176672494Y-83680520D01*
X176672658Y-83680623D01*
X176678584Y-83683477D01*
X176678262Y-83684144D01*
X176719225Y-83709882D01*
X179073495Y-86064152D01*
X179106980Y-86125475D01*
X179109134Y-86138869D01*
X179114325Y-86188249D01*
X179114327Y-86188260D01*
X179172818Y-86368277D01*
X179172821Y-86368284D01*
X179267467Y-86532216D01*
X179394129Y-86672888D01*
X179547265Y-86784148D01*
X179547270Y-86784151D01*
X179720191Y-86861142D01*
X179720193Y-86861142D01*
X179720197Y-86861144D01*
X179875130Y-86894075D01*
X179936607Y-86927266D01*
X179937026Y-86927683D01*
X183790116Y-90780772D01*
X183815855Y-90821732D01*
X183816521Y-90821412D01*
X183819366Y-90827319D01*
X183819474Y-90827491D01*
X183819540Y-90827682D01*
X183819543Y-90827687D01*
X183819544Y-90827690D01*
X183840565Y-90861144D01*
X183909523Y-90970890D01*
X184029109Y-91090476D01*
X184029115Y-91090481D01*
X184172302Y-91180452D01*
X184172305Y-91180454D01*
X184172309Y-91180455D01*
X184172310Y-91180456D01*
X184244913Y-91205860D01*
X184331943Y-91236314D01*
X184499997Y-91255249D01*
X184500000Y-91255249D01*
X184500003Y-91255249D01*
X184668056Y-91236314D01*
X184697223Y-91226108D01*
X184827690Y-91180456D01*
X184827692Y-91180454D01*
X184827694Y-91180454D01*
X184827697Y-91180452D01*
X184970884Y-91090481D01*
X184970885Y-91090480D01*
X184970890Y-91090477D01*
X185090477Y-90970890D01*
X185095233Y-90963321D01*
X185180452Y-90827697D01*
X185180454Y-90827694D01*
X185180454Y-90827692D01*
X185180456Y-90827690D01*
X185236313Y-90668059D01*
X185236313Y-90668058D01*
X185236314Y-90668056D01*
X185255249Y-90500002D01*
X185255249Y-90499997D01*
X185236314Y-90331943D01*
X185183306Y-90180456D01*
X185180456Y-90172310D01*
X185180455Y-90172309D01*
X185180454Y-90172305D01*
X185180452Y-90172302D01*
X185090481Y-90029115D01*
X185090476Y-90029109D01*
X184970890Y-89909523D01*
X184961443Y-89903587D01*
X184827690Y-89819544D01*
X184827687Y-89819543D01*
X184827682Y-89819540D01*
X184827491Y-89819474D01*
X184827319Y-89819366D01*
X184821412Y-89816521D01*
X184821732Y-89815855D01*
X184780772Y-89790116D01*
X180926503Y-85935846D01*
X180893018Y-85874523D01*
X180890865Y-85861143D01*
X180885674Y-85811744D01*
X180843014Y-85680452D01*
X180827181Y-85631722D01*
X180827180Y-85631721D01*
X180827179Y-85631716D01*
X180732533Y-85467784D01*
X180605871Y-85327112D01*
X180598477Y-85321740D01*
X180452734Y-85215851D01*
X180452729Y-85215848D01*
X180279807Y-85138857D01*
X180279802Y-85138855D01*
X180143490Y-85109882D01*
X180124872Y-85105924D01*
X180063391Y-85072733D01*
X180062973Y-85072316D01*
X178828338Y-83837681D01*
X178794853Y-83776358D01*
X178799837Y-83706666D01*
X178841709Y-83650733D01*
X178907173Y-83626316D01*
X178916019Y-83626000D01*
X179431006Y-83626000D01*
X179431007Y-83626000D01*
X181208524Y-83626000D01*
X181249479Y-83632959D01*
X181331939Y-83661813D01*
X181499997Y-83680749D01*
X181500000Y-83680749D01*
X181500002Y-83680749D01*
X181595283Y-83670012D01*
X181651275Y-83663704D01*
X181720097Y-83675758D01*
X181771476Y-83723107D01*
X181782201Y-83745969D01*
X181819545Y-83852694D01*
X181819547Y-83852697D01*
X181909518Y-83995884D01*
X181909523Y-83995890D01*
X182029109Y-84115476D01*
X182029115Y-84115481D01*
X182172302Y-84205452D01*
X182172307Y-84205455D01*
X182172310Y-84205456D01*
X182281271Y-84243582D01*
X182327997Y-84272943D01*
X188074779Y-90019724D01*
X188108264Y-90081047D01*
X188103280Y-90150739D01*
X188061408Y-90206672D01*
X188049112Y-90214784D01*
X188047274Y-90215845D01*
X187894129Y-90327111D01*
X187767466Y-90467785D01*
X187672821Y-90631715D01*
X187672818Y-90631722D01*
X187614327Y-90811739D01*
X187614326Y-90811741D01*
X187600831Y-90940142D01*
X187574246Y-91004757D01*
X187565191Y-91014861D01*
X178766873Y-99813181D01*
X178705550Y-99846666D01*
X178679192Y-99849500D01*
X159225357Y-99849500D01*
X159158318Y-99829815D01*
X159112563Y-99777011D01*
X159102619Y-99707853D01*
X159131644Y-99644297D01*
X159133207Y-99642528D01*
X159232533Y-99532216D01*
X159327179Y-99368284D01*
X159385674Y-99188256D01*
X159405460Y-99000000D01*
X159385674Y-98811744D01*
X159327179Y-98631716D01*
X159232533Y-98467784D01*
X159105871Y-98327112D01*
X159105870Y-98327111D01*
X158952734Y-98215851D01*
X158952729Y-98215848D01*
X158779807Y-98138857D01*
X158779802Y-98138855D01*
X158634001Y-98107865D01*
X158594646Y-98099500D01*
X158594645Y-98099500D01*
X158535453Y-98099500D01*
X158468414Y-98079815D01*
X158447772Y-98063181D01*
X155505581Y-95120991D01*
X155505578Y-95120987D01*
X155505578Y-95120988D01*
X155498511Y-95113921D01*
X155498511Y-95113920D01*
X155411386Y-95026795D01*
X155411385Y-95026794D01*
X155411384Y-95026793D01*
X155360162Y-94992568D01*
X155308939Y-94958341D01*
X155308936Y-94958339D01*
X155308933Y-94958338D01*
X155228445Y-94925000D01*
X155195106Y-94911190D01*
X155185080Y-94909196D01*
X155134682Y-94899171D01*
X155074263Y-94887153D01*
X155074260Y-94887153D01*
X155074259Y-94887153D01*
X149216401Y-94887153D01*
X149149362Y-94867468D01*
X149124253Y-94846127D01*
X149118526Y-94839767D01*
X149118522Y-94839763D01*
X148965387Y-94728504D01*
X148965382Y-94728501D01*
X148792460Y-94651510D01*
X148792455Y-94651508D01*
X148646654Y-94620518D01*
X148607299Y-94612153D01*
X148418007Y-94612153D01*
X148385550Y-94619051D01*
X148232850Y-94651508D01*
X148232845Y-94651510D01*
X148059923Y-94728501D01*
X148059918Y-94728504D01*
X147906782Y-94839764D01*
X147780119Y-94980438D01*
X147685474Y-95144368D01*
X147685471Y-95144375D01*
X147626980Y-95324393D01*
X147626979Y-95324397D01*
X147607193Y-95512653D01*
X147626979Y-95700909D01*
X147626980Y-95700912D01*
X147685471Y-95880930D01*
X147685474Y-95880937D01*
X147780120Y-96044869D01*
X147842046Y-96113644D01*
X147863781Y-96137784D01*
X147894011Y-96200775D01*
X147889562Y-96259073D01*
X147865886Y-96331943D01*
X147864326Y-96336744D01*
X147844540Y-96525000D01*
X147864326Y-96713256D01*
X147864327Y-96713259D01*
X147922818Y-96893277D01*
X147922821Y-96893284D01*
X148017467Y-97057216D01*
X148119185Y-97170185D01*
X148144129Y-97197888D01*
X148297265Y-97309148D01*
X148297270Y-97309151D01*
X148470192Y-97386142D01*
X148470197Y-97386144D01*
X148655354Y-97425500D01*
X148655355Y-97425500D01*
X148844644Y-97425500D01*
X148844646Y-97425500D01*
X149029803Y-97386144D01*
X149202730Y-97309151D01*
X149355871Y-97197888D01*
X149358788Y-97194647D01*
X149361600Y-97191526D01*
X149421087Y-97154879D01*
X149453748Y-97150500D01*
X154214548Y-97150500D01*
X154281587Y-97170185D01*
X154302229Y-97186819D01*
X156311038Y-99195628D01*
X156344523Y-99256951D01*
X156346678Y-99270347D01*
X156351029Y-99311740D01*
X156364326Y-99438256D01*
X156364327Y-99438259D01*
X156422818Y-99618277D01*
X156422821Y-99618284D01*
X156448927Y-99663501D01*
X156465400Y-99731400D01*
X156442548Y-99797427D01*
X156387626Y-99840617D01*
X156341540Y-99849500D01*
X148503954Y-99849500D01*
X148436915Y-99829815D01*
X148391160Y-99777011D01*
X148381216Y-99707853D01*
X148384617Y-99693227D01*
X148385672Y-99688261D01*
X148385674Y-99688256D01*
X148405460Y-99500000D01*
X148385674Y-99311744D01*
X148327179Y-99131716D01*
X148232533Y-98967784D01*
X148105871Y-98827112D01*
X148098477Y-98821740D01*
X147952734Y-98715851D01*
X147952729Y-98715848D01*
X147779807Y-98638857D01*
X147779802Y-98638855D01*
X147634001Y-98607865D01*
X147594646Y-98599500D01*
X147405354Y-98599500D01*
X147372897Y-98606398D01*
X147220197Y-98638855D01*
X147220192Y-98638857D01*
X147047270Y-98715848D01*
X147047265Y-98715851D01*
X146895910Y-98825818D01*
X146830104Y-98849298D01*
X146823025Y-98849500D01*
X144320808Y-98849500D01*
X144253769Y-98829815D01*
X144233127Y-98813181D01*
X144186819Y-98766873D01*
X144153334Y-98705550D01*
X144150500Y-98679192D01*
X144150500Y-90161087D01*
X144169506Y-90095115D01*
X144180456Y-90077690D01*
X144236313Y-89918059D01*
X144248292Y-89811744D01*
X144255249Y-89750002D01*
X144255249Y-89749997D01*
X144236314Y-89581943D01*
X144180454Y-89422305D01*
X144180452Y-89422302D01*
X144090481Y-89279115D01*
X144090476Y-89279109D01*
X143970890Y-89159523D01*
X143970884Y-89159518D01*
X143827697Y-89069547D01*
X143827694Y-89069545D01*
X143668056Y-89013685D01*
X143500003Y-88994751D01*
X143499997Y-88994751D01*
X143331943Y-89013685D01*
X143172305Y-89069545D01*
X143172302Y-89069547D01*
X143029115Y-89159518D01*
X143029109Y-89159523D01*
X142909523Y-89279109D01*
X142909518Y-89279115D01*
X142819547Y-89422302D01*
X142819545Y-89422305D01*
X142763685Y-89581943D01*
X142744751Y-89749997D01*
X142744751Y-89750002D01*
X142763686Y-89918057D01*
X142819542Y-90077687D01*
X142819544Y-90077690D01*
X142830493Y-90095115D01*
X142849500Y-90161087D01*
X142849500Y-98935931D01*
X142849500Y-102064069D01*
X142849500Y-102064071D01*
X142849499Y-102064071D01*
X142874497Y-102189738D01*
X142874499Y-102189744D01*
X142923535Y-102308127D01*
X142951044Y-102349298D01*
X142994726Y-102414673D01*
X142994727Y-102414674D01*
X147492372Y-106912318D01*
X147525857Y-106973641D01*
X147520873Y-107043333D01*
X147492372Y-107087680D01*
X138766873Y-115813181D01*
X138705550Y-115846666D01*
X138679192Y-115849500D01*
X137676975Y-115849500D01*
X137609936Y-115829815D01*
X137604090Y-115825818D01*
X137452734Y-115715851D01*
X137452729Y-115715848D01*
X137279807Y-115638857D01*
X137279802Y-115638855D01*
X137134001Y-115607865D01*
X137094646Y-115599500D01*
X136905354Y-115599500D01*
X136872897Y-115606398D01*
X136720197Y-115638855D01*
X136720192Y-115638857D01*
X136547270Y-115715848D01*
X136547265Y-115715851D01*
X136394129Y-115827111D01*
X136267466Y-115967785D01*
X136172821Y-116131715D01*
X136172818Y-116131722D01*
X136114327Y-116311740D01*
X136114326Y-116311744D01*
X136094540Y-116500000D01*
X103490655Y-116500000D01*
X106753838Y-113236819D01*
X106815161Y-113203334D01*
X106841519Y-113200500D01*
X119208524Y-113200500D01*
X119249479Y-113207459D01*
X119331939Y-113236313D01*
X119499997Y-113255249D01*
X119500000Y-113255249D01*
X119500003Y-113255249D01*
X119668056Y-113236314D01*
X119668059Y-113236313D01*
X119827690Y-113180456D01*
X119827692Y-113180454D01*
X119827694Y-113180454D01*
X119827697Y-113180452D01*
X119970884Y-113090481D01*
X119970885Y-113090480D01*
X119970890Y-113090477D01*
X120090477Y-112970890D01*
X120139652Y-112892629D01*
X120180452Y-112827697D01*
X120180454Y-112827694D01*
X120180454Y-112827692D01*
X120180456Y-112827690D01*
X120236313Y-112668059D01*
X120236313Y-112668058D01*
X120236314Y-112668056D01*
X120255249Y-112500002D01*
X120255249Y-112499997D01*
X120236314Y-112331943D01*
X120188258Y-112194607D01*
X120180456Y-112172310D01*
X120180455Y-112172309D01*
X120180454Y-112172305D01*
X120180452Y-112172302D01*
X120090481Y-112029115D01*
X120090476Y-112029109D01*
X119970890Y-111909523D01*
X119970884Y-111909518D01*
X119827697Y-111819547D01*
X119827694Y-111819545D01*
X119668056Y-111763685D01*
X119500003Y-111744751D01*
X119499997Y-111744751D01*
X119331940Y-111763686D01*
X119331938Y-111763686D01*
X119249479Y-111792541D01*
X119208524Y-111799500D01*
X106431002Y-111799500D01*
X106330241Y-111819542D01*
X106330242Y-111819543D01*
X106295675Y-111826419D01*
X106295672Y-111826419D01*
X106295671Y-111826420D01*
X106295669Y-111826420D01*
X106295668Y-111826421D01*
X106168190Y-111879224D01*
X106053454Y-111955887D01*
X102219224Y-115790117D01*
X102178267Y-115815855D01*
X102178588Y-115816521D01*
X102172682Y-115819365D01*
X102172511Y-115819473D01*
X102172319Y-115819539D01*
X102172310Y-115819544D01*
X102029109Y-115909523D01*
X101909523Y-116029109D01*
X101909518Y-116029115D01*
X101819547Y-116172302D01*
X101819545Y-116172305D01*
X101763685Y-116331943D01*
X101744751Y-116499997D01*
X70088390Y-116499997D01*
X70384274Y-116434868D01*
X70723435Y-116320591D01*
X71048253Y-116170315D01*
X71354919Y-115985800D01*
X71639837Y-115769211D01*
X71899668Y-115523086D01*
X72131365Y-115250311D01*
X72332211Y-114954085D01*
X72499853Y-114637880D01*
X72632324Y-114305403D01*
X72728071Y-113960552D01*
X72783000Y-113625500D01*
X72785970Y-113607385D01*
X72785970Y-113607382D01*
X72785972Y-113607371D01*
X72805348Y-113250000D01*
X72785972Y-112892629D01*
X72775326Y-112827694D01*
X72728073Y-112539460D01*
X72728072Y-112539459D01*
X72728071Y-112539448D01*
X72667536Y-112321419D01*
X72632327Y-112194607D01*
X72632325Y-112194600D01*
X72554788Y-111999997D01*
X101744751Y-111999997D01*
X101744751Y-112000002D01*
X101763685Y-112168056D01*
X101819545Y-112327694D01*
X101819547Y-112327697D01*
X101909518Y-112470884D01*
X101909523Y-112470890D01*
X102029109Y-112590476D01*
X102029115Y-112590481D01*
X102172302Y-112680452D01*
X102172305Y-112680454D01*
X102172309Y-112680455D01*
X102172310Y-112680456D01*
X102244913Y-112705860D01*
X102331943Y-112736314D01*
X102499997Y-112755249D01*
X102500000Y-112755249D01*
X102500003Y-112755249D01*
X102668056Y-112736314D01*
X102694288Y-112727135D01*
X102827690Y-112680456D01*
X102827692Y-112680454D01*
X102827694Y-112680454D01*
X102827697Y-112680452D01*
X102970884Y-112590481D01*
X102970885Y-112590480D01*
X102970890Y-112590477D01*
X103090477Y-112470890D01*
X103180456Y-112327690D01*
X103180520Y-112327505D01*
X103180622Y-112327343D01*
X103183475Y-112321419D01*
X103184142Y-112321740D01*
X103209880Y-112280775D01*
X106253837Y-109236819D01*
X106315160Y-109203334D01*
X106341518Y-109200500D01*
X119208524Y-109200500D01*
X119249479Y-109207459D01*
X119331939Y-109236313D01*
X119499997Y-109255249D01*
X119500000Y-109255249D01*
X119500003Y-109255249D01*
X119668056Y-109236314D01*
X119668059Y-109236313D01*
X119827690Y-109180456D01*
X119827692Y-109180454D01*
X119827694Y-109180454D01*
X119827697Y-109180452D01*
X119970884Y-109090481D01*
X119970885Y-109090480D01*
X119970890Y-109090477D01*
X120090477Y-108970890D01*
X120180452Y-108827697D01*
X120180454Y-108827694D01*
X120180454Y-108827692D01*
X120180456Y-108827690D01*
X120236313Y-108668059D01*
X120236313Y-108668058D01*
X120236314Y-108668056D01*
X120255249Y-108500002D01*
X120255249Y-108499997D01*
X120236314Y-108331943D01*
X120196735Y-108218834D01*
X120180456Y-108172310D01*
X120180455Y-108172309D01*
X120180454Y-108172305D01*
X120180452Y-108172302D01*
X120090481Y-108029115D01*
X120090476Y-108029109D01*
X119970890Y-107909523D01*
X119970884Y-107909518D01*
X119827697Y-107819547D01*
X119827694Y-107819545D01*
X119668056Y-107763685D01*
X119500003Y-107744751D01*
X119499997Y-107744751D01*
X119331940Y-107763686D01*
X119331938Y-107763686D01*
X119249479Y-107792541D01*
X119208524Y-107799500D01*
X105931002Y-107799500D01*
X105830240Y-107819542D01*
X105830241Y-107819543D01*
X105795676Y-107826418D01*
X105795667Y-107826421D01*
X105762379Y-107840210D01*
X105668191Y-107879223D01*
X105568721Y-107945688D01*
X105568719Y-107945689D01*
X105553458Y-107955885D01*
X105553453Y-107955889D01*
X102219224Y-111290117D01*
X102178267Y-111315855D01*
X102178588Y-111316521D01*
X102172682Y-111319365D01*
X102172511Y-111319473D01*
X102172319Y-111319539D01*
X102172310Y-111319544D01*
X102029109Y-111409523D01*
X101909523Y-111529109D01*
X101909518Y-111529115D01*
X101819547Y-111672302D01*
X101819545Y-111672305D01*
X101763685Y-111831943D01*
X101744751Y-111999997D01*
X72554788Y-111999997D01*
X72499857Y-111862129D01*
X72499848Y-111862111D01*
X72480926Y-111826421D01*
X72399219Y-111672305D01*
X72332215Y-111545922D01*
X72332213Y-111545919D01*
X72332211Y-111545915D01*
X72131365Y-111249689D01*
X72131361Y-111249684D01*
X72131358Y-111249680D01*
X71899668Y-110976914D01*
X71890030Y-110967784D01*
X71639837Y-110730789D01*
X71639830Y-110730783D01*
X71639827Y-110730781D01*
X71572245Y-110679407D01*
X71354919Y-110514200D01*
X71048253Y-110329685D01*
X71048252Y-110329684D01*
X71048248Y-110329682D01*
X71048244Y-110329680D01*
X70723447Y-110179414D01*
X70723441Y-110179411D01*
X70723435Y-110179409D01*
X70553854Y-110122270D01*
X70384273Y-110065131D01*
X70034744Y-109988194D01*
X69678949Y-109949500D01*
X69678948Y-109949500D01*
X69321052Y-109949500D01*
X69321050Y-109949500D01*
X68965255Y-109988194D01*
X68615726Y-110065131D01*
X68359970Y-110151306D01*
X68276565Y-110179409D01*
X68276563Y-110179410D01*
X68276552Y-110179414D01*
X67951755Y-110329680D01*
X67951751Y-110329682D01*
X67723367Y-110467096D01*
X67645081Y-110514200D01*
X67580648Y-110563181D01*
X67360172Y-110730781D01*
X67360163Y-110730789D01*
X67100331Y-110976914D01*
X66868641Y-111249680D01*
X66868634Y-111249690D01*
X66667790Y-111545913D01*
X66667784Y-111545922D01*
X66500151Y-111862111D01*
X66500142Y-111862129D01*
X66367674Y-112194600D01*
X66367672Y-112194607D01*
X66271932Y-112539434D01*
X66271926Y-112539460D01*
X66214029Y-112892614D01*
X66214028Y-112892627D01*
X66214028Y-112892629D01*
X66206277Y-113035577D01*
X66194652Y-113249997D01*
X64000000Y-113249997D01*
X64000000Y-110243498D01*
X64000011Y-110241826D01*
X64002188Y-110080409D01*
X64002189Y-110080405D01*
X64002188Y-110080399D01*
X64002956Y-110068209D01*
X64039188Y-109746617D01*
X64041511Y-109732943D01*
X64113342Y-109418236D01*
X64117191Y-109404880D01*
X64129997Y-109368284D01*
X64223797Y-109100223D01*
X64229112Y-109087391D01*
X64369171Y-108796568D01*
X64375893Y-108784409D01*
X64547625Y-108511113D01*
X64555660Y-108499788D01*
X64757460Y-108246753D01*
X64765526Y-108237605D01*
X64878138Y-108121877D01*
X64879251Y-108120748D01*
X67121321Y-105878679D01*
X67238759Y-105758034D01*
X67448696Y-105494798D01*
X67627838Y-105209710D01*
X67773931Y-104906355D01*
X67885139Y-104588551D01*
X67960062Y-104260292D01*
X67989389Y-103999994D01*
X75329443Y-103999994D01*
X75329443Y-104000005D01*
X75349634Y-104243683D01*
X75349636Y-104243695D01*
X75409663Y-104480734D01*
X75507888Y-104704666D01*
X75641632Y-104909378D01*
X75807242Y-105089277D01*
X75807252Y-105089286D01*
X76000208Y-105239470D01*
X76000212Y-105239473D01*
X76044020Y-105263181D01*
X76215267Y-105355855D01*
X76215270Y-105355856D01*
X76446541Y-105435251D01*
X76446543Y-105435251D01*
X76446545Y-105435252D01*
X76687737Y-105475500D01*
X76687738Y-105475500D01*
X76932262Y-105475500D01*
X76932263Y-105475500D01*
X77043833Y-105456882D01*
X77178514Y-105434408D01*
X77178863Y-105436501D01*
X77239667Y-105438760D01*
X77288020Y-105468677D01*
X81363453Y-109544111D01*
X81363454Y-109544112D01*
X81478192Y-109620777D01*
X81604001Y-109672888D01*
X81605672Y-109673580D01*
X81605676Y-109673580D01*
X81605677Y-109673581D01*
X81741003Y-109700500D01*
X81741006Y-109700500D01*
X81741007Y-109700500D01*
X100258524Y-109700500D01*
X100299479Y-109707459D01*
X100381939Y-109736313D01*
X100549997Y-109755249D01*
X100550000Y-109755249D01*
X100550003Y-109755249D01*
X100718056Y-109736314D01*
X100727744Y-109732924D01*
X100877690Y-109680456D01*
X100877692Y-109680454D01*
X100877694Y-109680454D01*
X100877697Y-109680452D01*
X101020884Y-109590481D01*
X101020885Y-109590480D01*
X101020890Y-109590477D01*
X101140477Y-109470890D01*
X101181954Y-109404880D01*
X101230452Y-109327697D01*
X101230454Y-109327694D01*
X101230454Y-109327692D01*
X101230456Y-109327690D01*
X101286313Y-109168059D01*
X101286313Y-109168058D01*
X101286314Y-109168056D01*
X101305249Y-109000002D01*
X101305249Y-108999997D01*
X101286314Y-108831943D01*
X101230454Y-108672305D01*
X101230452Y-108672302D01*
X101140481Y-108529115D01*
X101140476Y-108529109D01*
X101020890Y-108409523D01*
X101020884Y-108409518D01*
X100877697Y-108319547D01*
X100877694Y-108319545D01*
X100718056Y-108263685D01*
X100550003Y-108244751D01*
X100549997Y-108244751D01*
X100381940Y-108263686D01*
X100381938Y-108263686D01*
X100299479Y-108292541D01*
X100258524Y-108299500D01*
X97086103Y-108299500D01*
X97019064Y-108279815D01*
X96973309Y-108227011D01*
X96963365Y-108157853D01*
X96992390Y-108094297D01*
X96998422Y-108087819D01*
X97586244Y-107499997D01*
X102244751Y-107499997D01*
X102244751Y-107500002D01*
X102263685Y-107668056D01*
X102319545Y-107827694D01*
X102319547Y-107827697D01*
X102409518Y-107970884D01*
X102409523Y-107970890D01*
X102529109Y-108090476D01*
X102529115Y-108090481D01*
X102672302Y-108180452D01*
X102672305Y-108180454D01*
X102672309Y-108180455D01*
X102672310Y-108180456D01*
X102744913Y-108205860D01*
X102831943Y-108236314D01*
X102999997Y-108255249D01*
X103000000Y-108255249D01*
X103000003Y-108255249D01*
X103168056Y-108236314D01*
X103168059Y-108236313D01*
X103327690Y-108180456D01*
X103327692Y-108180454D01*
X103327694Y-108180454D01*
X103327697Y-108180452D01*
X103470884Y-108090481D01*
X103470885Y-108090480D01*
X103470890Y-108090477D01*
X103590477Y-107970890D01*
X103680456Y-107827690D01*
X103680520Y-107827505D01*
X103680622Y-107827343D01*
X103683475Y-107821419D01*
X103684142Y-107821740D01*
X103709880Y-107780775D01*
X106253838Y-105236819D01*
X106315161Y-105203334D01*
X106341519Y-105200500D01*
X119208524Y-105200500D01*
X119249479Y-105207459D01*
X119331939Y-105236313D01*
X119499997Y-105255249D01*
X119500000Y-105255249D01*
X119500003Y-105255249D01*
X119668056Y-105236314D01*
X119668059Y-105236313D01*
X119827690Y-105180456D01*
X119827692Y-105180454D01*
X119827694Y-105180454D01*
X119827697Y-105180452D01*
X119970884Y-105090481D01*
X119970885Y-105090480D01*
X119970890Y-105090477D01*
X120090477Y-104970890D01*
X120129128Y-104909378D01*
X120180452Y-104827697D01*
X120180454Y-104827694D01*
X120180454Y-104827692D01*
X120180456Y-104827690D01*
X120236313Y-104668059D01*
X120236313Y-104668058D01*
X120236314Y-104668056D01*
X120255249Y-104500002D01*
X120255249Y-104499997D01*
X120236314Y-104331943D01*
X120199075Y-104225520D01*
X120180456Y-104172310D01*
X120180455Y-104172309D01*
X120180454Y-104172305D01*
X120180452Y-104172302D01*
X120090481Y-104029115D01*
X120090476Y-104029109D01*
X119970890Y-103909523D01*
X119970884Y-103909518D01*
X119827697Y-103819547D01*
X119827694Y-103819545D01*
X119668056Y-103763685D01*
X119500003Y-103744751D01*
X119499997Y-103744751D01*
X119331940Y-103763686D01*
X119331938Y-103763686D01*
X119249479Y-103792541D01*
X119208524Y-103799500D01*
X105931004Y-103799500D01*
X105795677Y-103826418D01*
X105795667Y-103826421D01*
X105668192Y-103879222D01*
X105553454Y-103955887D01*
X102719224Y-106790117D01*
X102678267Y-106815855D01*
X102678588Y-106816521D01*
X102672682Y-106819365D01*
X102672511Y-106819473D01*
X102672319Y-106819539D01*
X102672310Y-106819544D01*
X102529109Y-106909523D01*
X102409523Y-107029109D01*
X102409518Y-107029115D01*
X102319547Y-107172302D01*
X102319545Y-107172305D01*
X102263685Y-107331943D01*
X102244751Y-107499997D01*
X97586244Y-107499997D01*
X101094112Y-103992129D01*
X101094114Y-103992127D01*
X101170775Y-103877395D01*
X101191890Y-103826420D01*
X101203040Y-103799500D01*
X101223580Y-103749912D01*
X101247091Y-103631716D01*
X101250500Y-103614580D01*
X101250500Y-102999997D01*
X102244751Y-102999997D01*
X102244751Y-103000002D01*
X102263685Y-103168056D01*
X102319545Y-103327694D01*
X102319547Y-103327697D01*
X102409518Y-103470884D01*
X102409523Y-103470890D01*
X102529109Y-103590476D01*
X102529115Y-103590481D01*
X102672302Y-103680452D01*
X102672305Y-103680454D01*
X102672309Y-103680455D01*
X102672310Y-103680456D01*
X102744913Y-103705860D01*
X102831943Y-103736314D01*
X102999997Y-103755249D01*
X103000000Y-103755249D01*
X103000003Y-103755249D01*
X103168056Y-103736314D01*
X103168059Y-103736313D01*
X103327690Y-103680456D01*
X103327692Y-103680454D01*
X103327694Y-103680454D01*
X103327697Y-103680452D01*
X103470884Y-103590481D01*
X103470885Y-103590480D01*
X103470890Y-103590477D01*
X103590477Y-103470890D01*
X103680456Y-103327690D01*
X103680520Y-103327505D01*
X103680622Y-103327343D01*
X103683475Y-103321419D01*
X103684142Y-103321740D01*
X103709880Y-103280775D01*
X105753838Y-101236819D01*
X105815161Y-101203334D01*
X105841519Y-101200500D01*
X119208524Y-101200500D01*
X119249479Y-101207459D01*
X119331939Y-101236313D01*
X119499997Y-101255249D01*
X119500000Y-101255249D01*
X119500003Y-101255249D01*
X119668056Y-101236314D01*
X119668059Y-101236313D01*
X119827690Y-101180456D01*
X119827692Y-101180454D01*
X119827694Y-101180454D01*
X119827697Y-101180452D01*
X119970884Y-101090481D01*
X119970885Y-101090480D01*
X119970890Y-101090477D01*
X120090477Y-100970890D01*
X120180452Y-100827697D01*
X120180454Y-100827694D01*
X120180454Y-100827692D01*
X120180456Y-100827690D01*
X120236313Y-100668059D01*
X120236313Y-100668058D01*
X120236314Y-100668056D01*
X120255249Y-100500002D01*
X120255249Y-100499997D01*
X120236314Y-100331943D01*
X120180454Y-100172305D01*
X120180452Y-100172302D01*
X120090481Y-100029115D01*
X120090476Y-100029109D01*
X119970890Y-99909523D01*
X119970884Y-99909518D01*
X119827697Y-99819547D01*
X119827694Y-99819545D01*
X119668056Y-99763685D01*
X119500003Y-99744751D01*
X119499997Y-99744751D01*
X119331940Y-99763686D01*
X119331938Y-99763686D01*
X119249479Y-99792541D01*
X119208524Y-99799500D01*
X105431004Y-99799500D01*
X105295677Y-99826418D01*
X105295667Y-99826421D01*
X105168192Y-99879222D01*
X105053454Y-99955887D01*
X102719224Y-102290117D01*
X102678267Y-102315855D01*
X102678588Y-102316521D01*
X102672682Y-102319365D01*
X102672511Y-102319473D01*
X102672319Y-102319539D01*
X102672310Y-102319544D01*
X102529109Y-102409523D01*
X102409523Y-102529109D01*
X102409518Y-102529115D01*
X102319547Y-102672302D01*
X102319545Y-102672305D01*
X102263685Y-102831943D01*
X102244751Y-102999997D01*
X101250500Y-102999997D01*
X101250500Y-101291476D01*
X101257459Y-101250521D01*
X101286313Y-101168061D01*
X101286313Y-101168059D01*
X101305249Y-101000002D01*
X101305249Y-100999997D01*
X101286314Y-100831943D01*
X101230454Y-100672305D01*
X101230452Y-100672302D01*
X101140481Y-100529115D01*
X101140476Y-100529109D01*
X101020890Y-100409523D01*
X101020884Y-100409518D01*
X100877697Y-100319547D01*
X100877694Y-100319545D01*
X100718056Y-100263685D01*
X100550003Y-100244751D01*
X100549997Y-100244751D01*
X100381943Y-100263685D01*
X100222305Y-100319545D01*
X100222302Y-100319547D01*
X100079115Y-100409518D01*
X100079109Y-100409523D01*
X99962181Y-100526452D01*
X99900858Y-100559937D01*
X99831166Y-100554953D01*
X99775233Y-100513081D01*
X99750816Y-100447617D01*
X99750500Y-100438771D01*
X99750500Y-98499997D01*
X102244751Y-98499997D01*
X102244751Y-98500002D01*
X102263685Y-98668056D01*
X102319545Y-98827694D01*
X102319547Y-98827697D01*
X102409518Y-98970884D01*
X102409523Y-98970890D01*
X102529109Y-99090476D01*
X102529115Y-99090481D01*
X102672302Y-99180452D01*
X102672305Y-99180454D01*
X102672309Y-99180455D01*
X102672310Y-99180456D01*
X102744913Y-99205860D01*
X102831943Y-99236314D01*
X102999997Y-99255249D01*
X103000000Y-99255249D01*
X103000003Y-99255249D01*
X103168056Y-99236314D01*
X103182917Y-99231114D01*
X103327690Y-99180456D01*
X103327692Y-99180454D01*
X103327694Y-99180454D01*
X103327697Y-99180452D01*
X103470884Y-99090481D01*
X103470885Y-99090480D01*
X103470890Y-99090477D01*
X103590477Y-98970890D01*
X103680456Y-98827690D01*
X103680520Y-98827505D01*
X103680622Y-98827343D01*
X103683475Y-98821419D01*
X103684142Y-98821740D01*
X103709880Y-98780775D01*
X105253838Y-97236819D01*
X105315161Y-97203334D01*
X105341519Y-97200500D01*
X119208524Y-97200500D01*
X119249479Y-97207459D01*
X119331939Y-97236313D01*
X119499997Y-97255249D01*
X119500000Y-97255249D01*
X119500003Y-97255249D01*
X119668056Y-97236314D01*
X119668059Y-97236313D01*
X119827690Y-97180456D01*
X119827692Y-97180454D01*
X119827694Y-97180454D01*
X119827697Y-97180452D01*
X119970884Y-97090481D01*
X119970885Y-97090480D01*
X119970890Y-97090477D01*
X120090477Y-96970890D01*
X120090481Y-96970884D01*
X120180452Y-96827697D01*
X120180454Y-96827694D01*
X120180454Y-96827692D01*
X120180456Y-96827690D01*
X120236313Y-96668059D01*
X120236313Y-96668058D01*
X120236314Y-96668056D01*
X120255249Y-96500002D01*
X120255249Y-96499997D01*
X120236314Y-96331943D01*
X120186458Y-96189463D01*
X120180456Y-96172310D01*
X120180455Y-96172309D01*
X120180454Y-96172305D01*
X120180452Y-96172302D01*
X120090481Y-96029115D01*
X120090476Y-96029109D01*
X119970890Y-95909523D01*
X119970884Y-95909518D01*
X119827697Y-95819547D01*
X119827694Y-95819545D01*
X119668056Y-95763685D01*
X119500003Y-95744751D01*
X119499997Y-95744751D01*
X119331940Y-95763686D01*
X119331938Y-95763686D01*
X119249479Y-95792541D01*
X119208524Y-95799500D01*
X104931005Y-95799500D01*
X104795677Y-95826418D01*
X104795667Y-95826421D01*
X104668192Y-95879222D01*
X104553454Y-95955887D01*
X102719224Y-97790117D01*
X102678267Y-97815855D01*
X102678588Y-97816521D01*
X102672682Y-97819365D01*
X102672511Y-97819473D01*
X102672319Y-97819539D01*
X102672310Y-97819544D01*
X102529109Y-97909523D01*
X102409523Y-98029109D01*
X102409518Y-98029115D01*
X102319547Y-98172302D01*
X102319545Y-98172305D01*
X102263685Y-98331943D01*
X102244751Y-98499997D01*
X99750500Y-98499997D01*
X99750500Y-93999997D01*
X102244751Y-93999997D01*
X102244751Y-94000002D01*
X102263685Y-94168056D01*
X102319545Y-94327694D01*
X102319547Y-94327697D01*
X102409518Y-94470884D01*
X102409523Y-94470890D01*
X102529109Y-94590476D01*
X102529115Y-94590481D01*
X102672302Y-94680452D01*
X102672305Y-94680454D01*
X102672309Y-94680455D01*
X102672310Y-94680456D01*
X102744913Y-94705860D01*
X102831943Y-94736314D01*
X102999997Y-94755249D01*
X103000000Y-94755249D01*
X103000003Y-94755249D01*
X103168056Y-94736314D01*
X103190376Y-94728504D01*
X103327690Y-94680456D01*
X103327692Y-94680454D01*
X103327694Y-94680454D01*
X103327697Y-94680452D01*
X103470884Y-94590481D01*
X103470885Y-94590480D01*
X103470890Y-94590477D01*
X103590477Y-94470890D01*
X103680456Y-94327690D01*
X103680520Y-94327505D01*
X103680622Y-94327343D01*
X103683475Y-94321419D01*
X103684142Y-94321740D01*
X103709880Y-94280775D01*
X104753837Y-93236819D01*
X104815160Y-93203334D01*
X104841518Y-93200500D01*
X119208524Y-93200500D01*
X119249479Y-93207459D01*
X119331939Y-93236313D01*
X119499997Y-93255249D01*
X119500000Y-93255249D01*
X119500003Y-93255249D01*
X119668056Y-93236314D01*
X119668059Y-93236313D01*
X119827690Y-93180456D01*
X119827692Y-93180454D01*
X119827694Y-93180454D01*
X119827697Y-93180452D01*
X119970884Y-93090481D01*
X119970885Y-93090480D01*
X119970890Y-93090477D01*
X120090477Y-92970890D01*
X120090481Y-92970884D01*
X120180452Y-92827697D01*
X120180454Y-92827694D01*
X120180454Y-92827692D01*
X120180456Y-92827690D01*
X120236313Y-92668059D01*
X120236313Y-92668058D01*
X120236314Y-92668056D01*
X120255249Y-92500002D01*
X120255249Y-92499997D01*
X120236314Y-92331943D01*
X120180454Y-92172305D01*
X120180452Y-92172302D01*
X120090481Y-92029115D01*
X120090476Y-92029109D01*
X119970890Y-91909523D01*
X119970884Y-91909518D01*
X119827697Y-91819547D01*
X119827694Y-91819545D01*
X119668056Y-91763685D01*
X119500003Y-91744751D01*
X119499997Y-91744751D01*
X119331940Y-91763686D01*
X119331938Y-91763686D01*
X119249479Y-91792541D01*
X119208524Y-91799500D01*
X104431002Y-91799500D01*
X104330241Y-91819542D01*
X104330242Y-91819543D01*
X104295673Y-91826419D01*
X104295660Y-91826423D01*
X104242866Y-91848291D01*
X104242866Y-91848292D01*
X104195774Y-91867798D01*
X104168186Y-91879226D01*
X104158034Y-91886010D01*
X104157923Y-91886084D01*
X104053457Y-91955886D01*
X104053453Y-91955889D01*
X102719224Y-93290117D01*
X102678267Y-93315855D01*
X102678588Y-93316521D01*
X102672682Y-93319365D01*
X102672511Y-93319473D01*
X102672319Y-93319539D01*
X102672310Y-93319544D01*
X102529109Y-93409523D01*
X102409523Y-93529109D01*
X102409518Y-93529115D01*
X102319547Y-93672302D01*
X102319545Y-93672305D01*
X102263685Y-93831943D01*
X102244751Y-93999997D01*
X99750500Y-93999997D01*
X99750500Y-92841518D01*
X99770185Y-92774479D01*
X99786819Y-92753837D01*
X100208715Y-92331941D01*
X100830774Y-91709881D01*
X100871738Y-91684144D01*
X100871417Y-91683477D01*
X100877344Y-91680622D01*
X100877508Y-91680519D01*
X100877690Y-91680456D01*
X100877693Y-91680453D01*
X100877696Y-91680453D01*
X100877697Y-91680452D01*
X101020884Y-91590481D01*
X101020885Y-91590480D01*
X101020890Y-91590477D01*
X101140477Y-91470890D01*
X101140481Y-91470884D01*
X101230452Y-91327697D01*
X101230454Y-91327694D01*
X101230454Y-91327692D01*
X101230456Y-91327690D01*
X101286313Y-91168059D01*
X101286313Y-91168058D01*
X101286314Y-91168056D01*
X101305249Y-91000002D01*
X101305249Y-90999997D01*
X101286314Y-90831943D01*
X101246872Y-90719224D01*
X101230456Y-90672310D01*
X101230455Y-90672309D01*
X101230454Y-90672305D01*
X101230452Y-90672302D01*
X101140481Y-90529115D01*
X101140476Y-90529109D01*
X101020890Y-90409523D01*
X101020884Y-90409518D01*
X100877697Y-90319547D01*
X100877694Y-90319545D01*
X100718056Y-90263685D01*
X100550003Y-90244751D01*
X100549997Y-90244751D01*
X100381943Y-90263685D01*
X100222305Y-90319545D01*
X100222302Y-90319547D01*
X100079115Y-90409518D01*
X100079109Y-90409523D01*
X99959523Y-90529109D01*
X99869545Y-90672307D01*
X99869539Y-90672320D01*
X99869471Y-90672516D01*
X99869361Y-90672690D01*
X99866524Y-90678582D01*
X99865859Y-90678262D01*
X99840117Y-90719224D01*
X98962181Y-91597161D01*
X98900858Y-91630646D01*
X98831167Y-91625662D01*
X98775233Y-91583790D01*
X98750816Y-91518326D01*
X98750500Y-91509480D01*
X98750500Y-89499997D01*
X102244751Y-89499997D01*
X102244751Y-89500002D01*
X102263685Y-89668056D01*
X102319545Y-89827694D01*
X102319547Y-89827697D01*
X102409518Y-89970884D01*
X102409523Y-89970890D01*
X102529109Y-90090476D01*
X102529115Y-90090481D01*
X102672302Y-90180452D01*
X102672305Y-90180454D01*
X102672309Y-90180455D01*
X102672310Y-90180456D01*
X102694610Y-90188259D01*
X102831943Y-90236314D01*
X102999997Y-90255249D01*
X103000000Y-90255249D01*
X103000003Y-90255249D01*
X103168056Y-90236314D01*
X103168059Y-90236313D01*
X103327690Y-90180456D01*
X103327692Y-90180454D01*
X103327694Y-90180454D01*
X103327697Y-90180452D01*
X103470884Y-90090481D01*
X103470885Y-90090480D01*
X103470890Y-90090477D01*
X103590477Y-89970890D01*
X103680456Y-89827690D01*
X103680520Y-89827505D01*
X103680622Y-89827343D01*
X103683475Y-89821419D01*
X103684142Y-89821740D01*
X103709880Y-89780775D01*
X104253838Y-89236819D01*
X104315161Y-89203334D01*
X104341519Y-89200500D01*
X119208524Y-89200500D01*
X119249479Y-89207459D01*
X119331939Y-89236313D01*
X119499997Y-89255249D01*
X119500000Y-89255249D01*
X119500003Y-89255249D01*
X119668056Y-89236314D01*
X119726536Y-89215851D01*
X119827690Y-89180456D01*
X119827692Y-89180454D01*
X119827694Y-89180454D01*
X119827697Y-89180452D01*
X119970884Y-89090481D01*
X119970885Y-89090480D01*
X119970890Y-89090477D01*
X120090477Y-88970890D01*
X120180452Y-88827697D01*
X120180454Y-88827694D01*
X120180454Y-88827692D01*
X120180456Y-88827690D01*
X120236313Y-88668059D01*
X120236313Y-88668058D01*
X120236314Y-88668056D01*
X120255249Y-88500002D01*
X120255249Y-88499997D01*
X120236314Y-88331943D01*
X120180454Y-88172305D01*
X120180452Y-88172302D01*
X120090481Y-88029115D01*
X120090476Y-88029109D01*
X119970890Y-87909523D01*
X119970884Y-87909518D01*
X119827697Y-87819547D01*
X119827694Y-87819545D01*
X119668056Y-87763685D01*
X119500003Y-87744751D01*
X119499997Y-87744751D01*
X119331940Y-87763686D01*
X119331938Y-87763686D01*
X119249479Y-87792541D01*
X119208524Y-87799500D01*
X103931004Y-87799500D01*
X103795677Y-87826418D01*
X103795667Y-87826421D01*
X103668192Y-87879222D01*
X103553454Y-87955887D01*
X102719224Y-88790117D01*
X102678267Y-88815855D01*
X102678588Y-88816521D01*
X102672682Y-88819365D01*
X102672511Y-88819473D01*
X102672319Y-88819539D01*
X102672310Y-88819544D01*
X102529109Y-88909523D01*
X102409523Y-89029109D01*
X102409518Y-89029115D01*
X102319547Y-89172302D01*
X102319545Y-89172305D01*
X102263685Y-89331943D01*
X102244751Y-89499997D01*
X98750500Y-89499997D01*
X98750500Y-85341518D01*
X98770185Y-85274479D01*
X98786814Y-85253842D01*
X99040659Y-84999997D01*
X102244751Y-84999997D01*
X102244751Y-85000002D01*
X102263685Y-85168056D01*
X102319545Y-85327694D01*
X102319547Y-85327697D01*
X102409518Y-85470884D01*
X102409523Y-85470890D01*
X102529109Y-85590476D01*
X102529115Y-85590481D01*
X102672302Y-85680452D01*
X102672305Y-85680454D01*
X102672309Y-85680455D01*
X102672310Y-85680456D01*
X102744913Y-85705860D01*
X102831943Y-85736314D01*
X102999997Y-85755249D01*
X103000000Y-85755249D01*
X103000003Y-85755249D01*
X103168056Y-85736314D01*
X103168059Y-85736313D01*
X103327690Y-85680456D01*
X103327692Y-85680454D01*
X103327694Y-85680454D01*
X103327697Y-85680452D01*
X103470884Y-85590481D01*
X103470885Y-85590480D01*
X103470890Y-85590477D01*
X103590477Y-85470890D01*
X103680456Y-85327690D01*
X103680521Y-85327501D01*
X103680625Y-85327336D01*
X103683475Y-85321419D01*
X103684142Y-85321740D01*
X103709883Y-85280774D01*
X103753840Y-85236818D01*
X103815163Y-85203333D01*
X103841520Y-85200500D01*
X119208524Y-85200500D01*
X119249479Y-85207459D01*
X119331939Y-85236313D01*
X119499997Y-85255249D01*
X119500000Y-85255249D01*
X119500003Y-85255249D01*
X119668056Y-85236314D01*
X119726536Y-85215851D01*
X119827690Y-85180456D01*
X119827692Y-85180454D01*
X119827694Y-85180454D01*
X119827697Y-85180452D01*
X119970884Y-85090481D01*
X119970885Y-85090480D01*
X119970890Y-85090477D01*
X120090477Y-84970890D01*
X120180452Y-84827697D01*
X120180454Y-84827694D01*
X120180454Y-84827692D01*
X120180456Y-84827690D01*
X120236313Y-84668059D01*
X120236313Y-84668058D01*
X120236314Y-84668056D01*
X120255249Y-84500002D01*
X120255249Y-84499997D01*
X120236314Y-84331943D01*
X120180454Y-84172305D01*
X120180452Y-84172302D01*
X120090481Y-84029115D01*
X120090476Y-84029109D01*
X119970890Y-83909523D01*
X119970884Y-83909518D01*
X119827697Y-83819547D01*
X119827694Y-83819545D01*
X119668056Y-83763685D01*
X119500003Y-83744751D01*
X119499997Y-83744751D01*
X119331940Y-83763686D01*
X119331938Y-83763686D01*
X119249479Y-83792541D01*
X119208524Y-83799500D01*
X103431004Y-83799500D01*
X103295677Y-83826418D01*
X103295667Y-83826421D01*
X103168192Y-83879222D01*
X103053454Y-83955887D01*
X102719224Y-84290117D01*
X102678267Y-84315855D01*
X102678588Y-84316521D01*
X102672682Y-84319365D01*
X102672511Y-84319473D01*
X102672319Y-84319539D01*
X102672310Y-84319544D01*
X102529109Y-84409523D01*
X102409523Y-84529109D01*
X102409518Y-84529115D01*
X102319547Y-84672302D01*
X102319545Y-84672305D01*
X102263685Y-84831943D01*
X102244751Y-84999997D01*
X99040659Y-84999997D01*
X101330775Y-82709880D01*
X101371740Y-82684142D01*
X101371419Y-82683475D01*
X101377343Y-82680622D01*
X101377505Y-82680520D01*
X101377690Y-82680456D01*
X101520890Y-82590477D01*
X101640477Y-82470890D01*
X101730452Y-82327697D01*
X101730454Y-82327694D01*
X101730454Y-82327692D01*
X101730456Y-82327690D01*
X101786313Y-82168059D01*
X101786313Y-82168058D01*
X101786314Y-82168056D01*
X101805249Y-82000002D01*
X101805249Y-81999997D01*
X101786314Y-81831943D01*
X101730454Y-81672305D01*
X101730452Y-81672302D01*
X101640481Y-81529115D01*
X101640476Y-81529109D01*
X101520890Y-81409523D01*
X101520884Y-81409518D01*
X101377697Y-81319547D01*
X101377694Y-81319545D01*
X101218056Y-81263685D01*
X101050003Y-81244751D01*
X101049997Y-81244751D01*
X100881943Y-81263685D01*
X100722305Y-81319545D01*
X100722302Y-81319547D01*
X100579115Y-81409518D01*
X100579109Y-81409523D01*
X100459523Y-81529109D01*
X100369544Y-81672310D01*
X100369539Y-81672319D01*
X100369473Y-81672511D01*
X100369365Y-81672682D01*
X100366521Y-81678588D01*
X100365855Y-81678267D01*
X100340117Y-81719224D01*
X97962181Y-84097161D01*
X97900858Y-84130646D01*
X97831166Y-84125662D01*
X97775233Y-84083790D01*
X97750816Y-84018326D01*
X97750500Y-84009480D01*
X97750500Y-80499997D01*
X102244751Y-80499997D01*
X102244751Y-80500002D01*
X102263685Y-80668056D01*
X102319545Y-80827694D01*
X102319547Y-80827697D01*
X102409518Y-80970884D01*
X102409523Y-80970890D01*
X102529109Y-81090476D01*
X102529115Y-81090481D01*
X102672302Y-81180452D01*
X102672305Y-81180454D01*
X102672309Y-81180455D01*
X102672310Y-81180456D01*
X102729593Y-81200500D01*
X102831943Y-81236314D01*
X102999997Y-81255249D01*
X103000000Y-81255249D01*
X103000003Y-81255249D01*
X103168059Y-81236313D01*
X103168061Y-81236313D01*
X103250521Y-81207459D01*
X103291476Y-81200500D01*
X119208524Y-81200500D01*
X119249479Y-81207459D01*
X119331939Y-81236313D01*
X119499997Y-81255249D01*
X119500000Y-81255249D01*
X119500003Y-81255249D01*
X119668056Y-81236314D01*
X119668059Y-81236313D01*
X119827690Y-81180456D01*
X119827692Y-81180454D01*
X119827694Y-81180454D01*
X119827697Y-81180452D01*
X119970884Y-81090481D01*
X119970885Y-81090480D01*
X119970890Y-81090477D01*
X120090477Y-80970890D01*
X120180452Y-80827697D01*
X120180454Y-80827694D01*
X120180454Y-80827692D01*
X120180456Y-80827690D01*
X120236313Y-80668059D01*
X120236313Y-80668058D01*
X120236314Y-80668056D01*
X120255249Y-80500002D01*
X120255249Y-80499997D01*
X120236314Y-80331943D01*
X120180454Y-80172305D01*
X120180452Y-80172302D01*
X120090481Y-80029115D01*
X120090476Y-80029109D01*
X119970890Y-79909523D01*
X119970884Y-79909518D01*
X119827697Y-79819547D01*
X119827694Y-79819545D01*
X119668056Y-79763685D01*
X119500003Y-79744751D01*
X119499997Y-79744751D01*
X119331940Y-79763686D01*
X119331938Y-79763686D01*
X119249479Y-79792541D01*
X119208524Y-79799500D01*
X103291476Y-79799500D01*
X103250521Y-79792541D01*
X103168060Y-79763686D01*
X103000003Y-79744751D01*
X102999997Y-79744751D01*
X102831943Y-79763685D01*
X102672305Y-79819545D01*
X102672302Y-79819547D01*
X102529115Y-79909518D01*
X102529109Y-79909523D01*
X102409523Y-80029109D01*
X102409518Y-80029115D01*
X102319547Y-80172302D01*
X102319545Y-80172305D01*
X102263685Y-80331943D01*
X102244751Y-80499997D01*
X97750500Y-80499997D01*
X97750500Y-77341518D01*
X97770185Y-77274479D01*
X97786814Y-77253842D01*
X99040659Y-75999997D01*
X102244751Y-75999997D01*
X102244751Y-76000002D01*
X102263685Y-76168056D01*
X102319545Y-76327694D01*
X102319547Y-76327697D01*
X102409518Y-76470884D01*
X102409523Y-76470890D01*
X102529110Y-76590477D01*
X102672310Y-76680456D01*
X102672494Y-76680520D01*
X102672658Y-76680623D01*
X102678584Y-76683477D01*
X102678262Y-76684144D01*
X102719225Y-76709882D01*
X103053453Y-77044111D01*
X103053454Y-77044112D01*
X103168192Y-77120777D01*
X103295667Y-77173578D01*
X103295672Y-77173580D01*
X103295676Y-77173580D01*
X103295677Y-77173581D01*
X103431003Y-77200500D01*
X103431006Y-77200500D01*
X103431007Y-77200500D01*
X119208524Y-77200500D01*
X119249479Y-77207459D01*
X119331939Y-77236313D01*
X119499997Y-77255249D01*
X119500000Y-77255249D01*
X119500003Y-77255249D01*
X119668056Y-77236314D01*
X119668059Y-77236313D01*
X119827690Y-77180456D01*
X119827692Y-77180454D01*
X119827694Y-77180454D01*
X119827697Y-77180452D01*
X119970884Y-77090481D01*
X119970885Y-77090480D01*
X119970890Y-77090477D01*
X120090477Y-76970890D01*
X120098223Y-76958563D01*
X120180452Y-76827697D01*
X120180454Y-76827694D01*
X120180454Y-76827692D01*
X120180456Y-76827690D01*
X120236313Y-76668059D01*
X120236313Y-76668058D01*
X120236314Y-76668056D01*
X120255249Y-76500002D01*
X120255249Y-76499997D01*
X120236314Y-76331943D01*
X120180454Y-76172305D01*
X120180452Y-76172302D01*
X120090481Y-76029115D01*
X120090476Y-76029109D01*
X119970890Y-75909523D01*
X119970884Y-75909518D01*
X119827697Y-75819547D01*
X119827694Y-75819545D01*
X119668056Y-75763685D01*
X119500003Y-75744751D01*
X119499997Y-75744751D01*
X119331940Y-75763686D01*
X119331938Y-75763686D01*
X119249479Y-75792541D01*
X119208524Y-75799500D01*
X103841519Y-75799500D01*
X103774480Y-75779815D01*
X103753838Y-75763181D01*
X103709882Y-75719225D01*
X103684144Y-75678262D01*
X103683477Y-75678584D01*
X103680623Y-75672658D01*
X103680520Y-75672494D01*
X103680456Y-75672310D01*
X103590477Y-75529110D01*
X103470890Y-75409523D01*
X103470884Y-75409518D01*
X103327697Y-75319547D01*
X103327694Y-75319545D01*
X103168056Y-75263685D01*
X103000003Y-75244751D01*
X102999997Y-75244751D01*
X102831943Y-75263685D01*
X102672305Y-75319545D01*
X102672302Y-75319547D01*
X102529115Y-75409518D01*
X102529109Y-75409523D01*
X102409523Y-75529109D01*
X102409518Y-75529115D01*
X102319547Y-75672302D01*
X102319545Y-75672305D01*
X102263685Y-75831943D01*
X102244751Y-75999997D01*
X99040659Y-75999997D01*
X101330775Y-73709880D01*
X101371740Y-73684142D01*
X101371419Y-73683475D01*
X101377343Y-73680622D01*
X101377505Y-73680520D01*
X101377690Y-73680456D01*
X101520890Y-73590477D01*
X101640477Y-73470890D01*
X101698011Y-73379326D01*
X101730452Y-73327697D01*
X101730454Y-73327694D01*
X101730454Y-73327692D01*
X101730456Y-73327690D01*
X101786313Y-73168059D01*
X101786313Y-73168058D01*
X101786314Y-73168056D01*
X101805249Y-73000002D01*
X101805249Y-72999997D01*
X101786314Y-72831943D01*
X101741346Y-72703431D01*
X101730456Y-72672310D01*
X101730455Y-72672309D01*
X101730454Y-72672305D01*
X101730452Y-72672302D01*
X101640481Y-72529115D01*
X101640476Y-72529109D01*
X101520890Y-72409523D01*
X101520884Y-72409518D01*
X101377697Y-72319547D01*
X101377694Y-72319545D01*
X101218056Y-72263685D01*
X101050003Y-72244751D01*
X101049997Y-72244751D01*
X100881943Y-72263685D01*
X100722305Y-72319545D01*
X100722302Y-72319547D01*
X100579115Y-72409518D01*
X100579109Y-72409523D01*
X100459523Y-72529109D01*
X100369544Y-72672310D01*
X100369539Y-72672319D01*
X100369473Y-72672511D01*
X100369365Y-72672682D01*
X100366521Y-72678588D01*
X100365855Y-72678267D01*
X100340117Y-72719224D01*
X96505888Y-76553453D01*
X96505884Y-76553458D01*
X96476554Y-76597355D01*
X96466304Y-76612696D01*
X96459655Y-76622647D01*
X96429223Y-76668191D01*
X96376421Y-76795667D01*
X96376418Y-76795677D01*
X96349500Y-76931004D01*
X96349500Y-104158481D01*
X96329815Y-104225520D01*
X96313181Y-104246162D01*
X95296162Y-105263181D01*
X95234839Y-105296666D01*
X95208481Y-105299500D01*
X93616209Y-105299500D01*
X93549170Y-105279815D01*
X93503415Y-105227011D01*
X93493471Y-105157853D01*
X93500027Y-105132166D01*
X93518597Y-105082376D01*
X93518598Y-105082372D01*
X93524999Y-105022844D01*
X93525000Y-105022827D01*
X93525000Y-104250000D01*
X92650001Y-104250000D01*
X92675021Y-104189598D01*
X92700000Y-104064019D01*
X92700000Y-103935981D01*
X92675021Y-103810402D01*
X92650001Y-103750000D01*
X93525000Y-103750000D01*
X93525000Y-102977172D01*
X93524999Y-102977155D01*
X93518598Y-102917627D01*
X93518596Y-102917620D01*
X93468354Y-102782913D01*
X93468350Y-102782906D01*
X93382190Y-102667812D01*
X93382187Y-102667809D01*
X93267093Y-102581649D01*
X93267086Y-102581645D01*
X93132379Y-102531403D01*
X93132372Y-102531401D01*
X93072844Y-102525000D01*
X92300000Y-102525000D01*
X92300000Y-103399998D01*
X92239598Y-103374979D01*
X92114019Y-103350000D01*
X91985981Y-103350000D01*
X91860402Y-103374979D01*
X91800000Y-103399998D01*
X91800000Y-102525000D01*
X91027155Y-102525000D01*
X90967627Y-102531401D01*
X90967620Y-102531403D01*
X90832913Y-102581645D01*
X90832906Y-102581649D01*
X90717812Y-102667809D01*
X90717809Y-102667812D01*
X90631649Y-102782906D01*
X90631646Y-102782912D01*
X90626986Y-102795406D01*
X90585113Y-102851338D01*
X90519648Y-102875753D01*
X90451375Y-102860900D01*
X90434643Y-102849922D01*
X90348540Y-102782906D01*
X90319788Y-102760527D01*
X90319787Y-102760526D01*
X90104734Y-102644145D01*
X90104729Y-102644143D01*
X89873458Y-102564748D01*
X89659883Y-102529109D01*
X89632263Y-102524500D01*
X89387737Y-102524500D01*
X89360117Y-102529109D01*
X89146541Y-102564748D01*
X88915270Y-102644143D01*
X88915265Y-102644145D01*
X88700212Y-102760526D01*
X88700208Y-102760529D01*
X88507252Y-102910713D01*
X88507242Y-102910722D01*
X88341632Y-103090622D01*
X88338479Y-103094673D01*
X88336744Y-103093322D01*
X88290650Y-103132653D01*
X88221418Y-103142069D01*
X88158085Y-103112560D01*
X88142156Y-103094177D01*
X88141521Y-103094673D01*
X88138367Y-103090622D01*
X87972757Y-102910722D01*
X87972747Y-102910713D01*
X87779791Y-102760529D01*
X87779787Y-102760526D01*
X87564734Y-102644145D01*
X87564729Y-102644143D01*
X87333458Y-102564748D01*
X87119883Y-102529109D01*
X87092263Y-102524500D01*
X86847737Y-102524500D01*
X86820117Y-102529109D01*
X86606541Y-102564748D01*
X86375270Y-102644143D01*
X86375265Y-102644145D01*
X86160212Y-102760526D01*
X86160208Y-102760529D01*
X85967252Y-102910713D01*
X85967242Y-102910722D01*
X85801632Y-103090622D01*
X85798479Y-103094673D01*
X85796744Y-103093322D01*
X85750650Y-103132653D01*
X85681418Y-103142069D01*
X85618085Y-103112560D01*
X85602156Y-103094177D01*
X85601521Y-103094673D01*
X85598367Y-103090622D01*
X85432757Y-102910722D01*
X85432747Y-102910713D01*
X85239791Y-102760529D01*
X85239787Y-102760526D01*
X85024734Y-102644145D01*
X85024729Y-102644143D01*
X84793458Y-102564748D01*
X84579883Y-102529109D01*
X84552263Y-102524500D01*
X84307737Y-102524500D01*
X84280117Y-102529109D01*
X84066541Y-102564748D01*
X83835270Y-102644143D01*
X83835265Y-102644145D01*
X83620212Y-102760526D01*
X83620208Y-102760529D01*
X83427252Y-102910713D01*
X83427242Y-102910722D01*
X83261632Y-103090622D01*
X83258479Y-103094673D01*
X83256744Y-103093322D01*
X83210650Y-103132653D01*
X83141418Y-103142069D01*
X83078085Y-103112560D01*
X83062156Y-103094177D01*
X83061521Y-103094673D01*
X83058367Y-103090622D01*
X82892757Y-102910722D01*
X82892747Y-102910713D01*
X82699791Y-102760529D01*
X82699787Y-102760526D01*
X82484734Y-102644145D01*
X82484729Y-102644143D01*
X82253458Y-102564748D01*
X82039883Y-102529109D01*
X82012263Y-102524500D01*
X81767737Y-102524500D01*
X81740117Y-102529109D01*
X81526541Y-102564748D01*
X81295270Y-102644143D01*
X81295265Y-102644145D01*
X81080212Y-102760526D01*
X81080208Y-102760529D01*
X80887252Y-102910713D01*
X80887242Y-102910722D01*
X80721632Y-103090622D01*
X80718479Y-103094673D01*
X80716744Y-103093322D01*
X80670650Y-103132653D01*
X80601418Y-103142069D01*
X80538085Y-103112560D01*
X80522156Y-103094177D01*
X80521521Y-103094673D01*
X80518367Y-103090622D01*
X80352757Y-102910722D01*
X80352747Y-102910713D01*
X80159791Y-102760529D01*
X80159787Y-102760526D01*
X79944734Y-102644145D01*
X79944729Y-102644143D01*
X79713458Y-102564748D01*
X79499883Y-102529109D01*
X79472263Y-102524500D01*
X79227737Y-102524500D01*
X79200117Y-102529109D01*
X78986541Y-102564748D01*
X78755270Y-102644143D01*
X78755265Y-102644145D01*
X78540212Y-102760526D01*
X78540208Y-102760529D01*
X78347252Y-102910713D01*
X78347242Y-102910722D01*
X78181632Y-103090622D01*
X78178479Y-103094673D01*
X78176744Y-103093322D01*
X78130650Y-103132653D01*
X78061418Y-103142069D01*
X77998085Y-103112560D01*
X77982156Y-103094177D01*
X77981521Y-103094673D01*
X77978367Y-103090622D01*
X77812757Y-102910722D01*
X77812747Y-102910713D01*
X77619791Y-102760529D01*
X77619787Y-102760526D01*
X77404734Y-102644145D01*
X77404729Y-102644143D01*
X77173458Y-102564748D01*
X76959883Y-102529109D01*
X76932263Y-102524500D01*
X76687737Y-102524500D01*
X76660117Y-102529109D01*
X76446541Y-102564748D01*
X76215270Y-102644143D01*
X76215265Y-102644145D01*
X76000212Y-102760526D01*
X76000208Y-102760529D01*
X75807252Y-102910713D01*
X75807242Y-102910722D01*
X75641632Y-103090621D01*
X75507888Y-103295333D01*
X75409663Y-103519265D01*
X75349636Y-103756304D01*
X75349634Y-103756316D01*
X75329443Y-103999994D01*
X67989389Y-103999994D01*
X67997758Y-103925709D01*
X68000000Y-103757359D01*
X68000000Y-77742641D01*
X67997729Y-77574291D01*
X67989359Y-77500000D01*
X67960036Y-77239719D01*
X67960034Y-77239708D01*
X67960033Y-77239702D01*
X67960032Y-77239692D01*
X67885209Y-76911854D01*
X67885117Y-76911451D01*
X67773916Y-76593645D01*
X67717809Y-76477135D01*
X75454500Y-76477135D01*
X75454500Y-78522870D01*
X75454501Y-78522876D01*
X75460908Y-78582483D01*
X75511202Y-78717328D01*
X75511206Y-78717335D01*
X75597452Y-78832544D01*
X75597455Y-78832547D01*
X75712664Y-78918793D01*
X75712671Y-78918797D01*
X75847517Y-78969091D01*
X75847516Y-78969091D01*
X75854444Y-78969835D01*
X75907127Y-78975500D01*
X77952872Y-78975499D01*
X78012483Y-78969091D01*
X78147331Y-78918796D01*
X78262546Y-78832546D01*
X78348796Y-78717331D01*
X78353424Y-78704923D01*
X78395293Y-78648988D01*
X78460756Y-78624568D01*
X78529030Y-78639418D01*
X78545768Y-78650397D01*
X78660212Y-78739473D01*
X78767739Y-78797664D01*
X78788529Y-78808915D01*
X78875267Y-78855855D01*
X78875270Y-78855856D01*
X79106541Y-78935251D01*
X79106543Y-78935251D01*
X79106545Y-78935252D01*
X79347737Y-78975500D01*
X79347738Y-78975500D01*
X79592262Y-78975500D01*
X79592263Y-78975500D01*
X79833455Y-78935252D01*
X80064733Y-78855855D01*
X80279788Y-78739473D01*
X80472754Y-78589281D01*
X80638368Y-78409377D01*
X80638373Y-78409369D01*
X80641521Y-78405327D01*
X80643264Y-78406684D01*
X80689296Y-78367370D01*
X80758524Y-78357921D01*
X80821870Y-78387400D01*
X80837837Y-78405826D01*
X80838479Y-78405327D01*
X80841632Y-78409377D01*
X81007242Y-78589277D01*
X81007252Y-78589286D01*
X81200208Y-78739470D01*
X81200212Y-78739473D01*
X81372197Y-78832547D01*
X81415267Y-78855855D01*
X81415270Y-78855856D01*
X81646541Y-78935251D01*
X81646543Y-78935251D01*
X81646545Y-78935252D01*
X81887737Y-78975500D01*
X81887738Y-78975500D01*
X82132262Y-78975500D01*
X82132263Y-78975500D01*
X82373455Y-78935252D01*
X82604733Y-78855855D01*
X82819788Y-78739473D01*
X83012754Y-78589281D01*
X83178368Y-78409377D01*
X83178373Y-78409369D01*
X83181521Y-78405327D01*
X83183264Y-78406684D01*
X83229296Y-78367370D01*
X83298524Y-78357921D01*
X83361870Y-78387400D01*
X83377837Y-78405826D01*
X83378479Y-78405327D01*
X83381632Y-78409377D01*
X83547242Y-78589277D01*
X83547252Y-78589286D01*
X83740208Y-78739470D01*
X83740212Y-78739473D01*
X83912197Y-78832547D01*
X83955267Y-78855855D01*
X83955270Y-78855856D01*
X84186541Y-78935251D01*
X84186543Y-78935251D01*
X84186545Y-78935252D01*
X84427737Y-78975500D01*
X84427738Y-78975500D01*
X84672262Y-78975500D01*
X84672263Y-78975500D01*
X84913455Y-78935252D01*
X85144733Y-78855855D01*
X85359788Y-78739473D01*
X85552754Y-78589281D01*
X85718368Y-78409377D01*
X85718373Y-78409369D01*
X85721521Y-78405327D01*
X85723264Y-78406684D01*
X85769296Y-78367370D01*
X85838524Y-78357921D01*
X85901870Y-78387400D01*
X85917837Y-78405826D01*
X85918479Y-78405327D01*
X85921632Y-78409377D01*
X86087242Y-78589277D01*
X86087252Y-78589286D01*
X86280208Y-78739470D01*
X86280212Y-78739473D01*
X86452197Y-78832547D01*
X86495267Y-78855855D01*
X86495270Y-78855856D01*
X86726541Y-78935251D01*
X86726543Y-78935251D01*
X86726545Y-78935252D01*
X86967737Y-78975500D01*
X86967738Y-78975500D01*
X87212262Y-78975500D01*
X87212263Y-78975500D01*
X87453455Y-78935252D01*
X87684733Y-78855855D01*
X87899788Y-78739473D01*
X88092754Y-78589281D01*
X88258368Y-78409377D01*
X88258373Y-78409369D01*
X88261521Y-78405327D01*
X88263264Y-78406684D01*
X88309296Y-78367370D01*
X88378524Y-78357921D01*
X88441870Y-78387400D01*
X88457837Y-78405826D01*
X88458479Y-78405327D01*
X88461632Y-78409377D01*
X88627242Y-78589277D01*
X88627252Y-78589286D01*
X88820208Y-78739470D01*
X88820212Y-78739473D01*
X88992197Y-78832547D01*
X89035267Y-78855855D01*
X89035270Y-78855856D01*
X89266541Y-78935251D01*
X89266543Y-78935251D01*
X89266545Y-78935252D01*
X89507737Y-78975500D01*
X89507738Y-78975500D01*
X89752262Y-78975500D01*
X89752263Y-78975500D01*
X89993455Y-78935252D01*
X90224733Y-78855855D01*
X90439788Y-78739473D01*
X90632754Y-78589281D01*
X90798368Y-78409377D01*
X90802766Y-78402644D01*
X90855910Y-78357287D01*
X90919370Y-78347125D01*
X90964627Y-78351819D01*
X91568958Y-77747487D01*
X91593978Y-77807890D01*
X91665112Y-77914351D01*
X91755649Y-78004888D01*
X91862110Y-78076022D01*
X91922511Y-78101041D01*
X91317758Y-78705794D01*
X91317758Y-78705796D01*
X91360478Y-78739046D01*
X91360484Y-78739050D01*
X91575468Y-78855394D01*
X91575476Y-78855397D01*
X91806664Y-78934765D01*
X92047779Y-78975000D01*
X92292221Y-78975000D01*
X92533335Y-78934765D01*
X92764523Y-78855397D01*
X92764531Y-78855394D01*
X92979514Y-78739051D01*
X92979514Y-78739050D01*
X93022240Y-78705795D01*
X93022240Y-78705794D01*
X92417488Y-78101041D01*
X92477890Y-78076022D01*
X92584351Y-78004888D01*
X92674888Y-77914351D01*
X92746022Y-77807890D01*
X92771041Y-77747488D01*
X93375372Y-78351819D01*
X93471667Y-78204431D01*
X93471672Y-78204423D01*
X93569861Y-77980573D01*
X93629869Y-77743605D01*
X93650055Y-77500005D01*
X93650055Y-77499994D01*
X93629869Y-77256394D01*
X93569861Y-77019426D01*
X93471669Y-76795570D01*
X93375372Y-76648179D01*
X92771041Y-77252510D01*
X92746022Y-77192110D01*
X92674888Y-77085649D01*
X92584351Y-76995112D01*
X92477890Y-76923978D01*
X92417487Y-76898958D01*
X93022240Y-76294204D01*
X93022240Y-76294203D01*
X92979514Y-76260949D01*
X92764531Y-76144605D01*
X92764523Y-76144602D01*
X92533335Y-76065234D01*
X92292221Y-76025000D01*
X92047779Y-76025000D01*
X91806664Y-76065234D01*
X91575476Y-76144602D01*
X91575468Y-76144605D01*
X91360481Y-76260951D01*
X91317758Y-76294202D01*
X91317757Y-76294204D01*
X91922511Y-76898958D01*
X91862110Y-76923978D01*
X91755649Y-76995112D01*
X91665112Y-77085649D01*
X91593978Y-77192110D01*
X91568958Y-77252511D01*
X90964626Y-76648179D01*
X90919367Y-76652873D01*
X90850655Y-76640209D01*
X90802766Y-76597355D01*
X90798366Y-76590620D01*
X90632757Y-76410722D01*
X90632747Y-76410713D01*
X90439791Y-76260529D01*
X90439787Y-76260526D01*
X90224734Y-76144145D01*
X90224729Y-76144143D01*
X89993458Y-76064748D01*
X89779883Y-76029109D01*
X89752263Y-76024500D01*
X89507737Y-76024500D01*
X89480117Y-76029109D01*
X89266541Y-76064748D01*
X89035270Y-76144143D01*
X89035265Y-76144145D01*
X88820212Y-76260526D01*
X88820208Y-76260529D01*
X88627252Y-76410713D01*
X88627242Y-76410722D01*
X88461632Y-76590622D01*
X88458479Y-76594673D01*
X88456744Y-76593322D01*
X88410650Y-76632653D01*
X88341418Y-76642069D01*
X88278085Y-76612560D01*
X88262156Y-76594177D01*
X88261521Y-76594673D01*
X88258367Y-76590622D01*
X88092757Y-76410722D01*
X88092747Y-76410713D01*
X87899791Y-76260529D01*
X87899787Y-76260526D01*
X87684734Y-76144145D01*
X87684729Y-76144143D01*
X87453458Y-76064748D01*
X87239883Y-76029109D01*
X87212263Y-76024500D01*
X86967737Y-76024500D01*
X86940117Y-76029109D01*
X86726541Y-76064748D01*
X86495270Y-76144143D01*
X86495265Y-76144145D01*
X86280212Y-76260526D01*
X86280208Y-76260529D01*
X86087252Y-76410713D01*
X86087242Y-76410722D01*
X85921632Y-76590622D01*
X85918479Y-76594673D01*
X85916744Y-76593322D01*
X85870650Y-76632653D01*
X85801418Y-76642069D01*
X85738085Y-76612560D01*
X85722156Y-76594177D01*
X85721521Y-76594673D01*
X85718367Y-76590622D01*
X85552757Y-76410722D01*
X85552747Y-76410713D01*
X85359791Y-76260529D01*
X85359787Y-76260526D01*
X85144734Y-76144145D01*
X85144729Y-76144143D01*
X84913458Y-76064748D01*
X84699883Y-76029109D01*
X84672263Y-76024500D01*
X84427737Y-76024500D01*
X84400117Y-76029109D01*
X84186541Y-76064748D01*
X83955270Y-76144143D01*
X83955265Y-76144145D01*
X83740212Y-76260526D01*
X83740208Y-76260529D01*
X83547252Y-76410713D01*
X83547242Y-76410722D01*
X83381632Y-76590622D01*
X83378479Y-76594673D01*
X83376744Y-76593322D01*
X83330650Y-76632653D01*
X83261418Y-76642069D01*
X83198085Y-76612560D01*
X83182156Y-76594177D01*
X83181521Y-76594673D01*
X83178367Y-76590622D01*
X83012757Y-76410722D01*
X83012747Y-76410713D01*
X82819791Y-76260529D01*
X82819787Y-76260526D01*
X82604734Y-76144145D01*
X82604729Y-76144143D01*
X82373458Y-76064748D01*
X82159883Y-76029109D01*
X82132263Y-76024500D01*
X81887737Y-76024500D01*
X81860117Y-76029109D01*
X81646541Y-76064748D01*
X81415270Y-76144143D01*
X81415265Y-76144145D01*
X81200212Y-76260526D01*
X81200208Y-76260529D01*
X81007252Y-76410713D01*
X81007242Y-76410722D01*
X80841632Y-76590622D01*
X80838479Y-76594673D01*
X80836744Y-76593322D01*
X80790650Y-76632653D01*
X80721418Y-76642069D01*
X80658085Y-76612560D01*
X80642156Y-76594177D01*
X80641521Y-76594673D01*
X80638367Y-76590622D01*
X80472757Y-76410722D01*
X80472747Y-76410713D01*
X80279791Y-76260529D01*
X80279787Y-76260526D01*
X80064734Y-76144145D01*
X80064729Y-76144143D01*
X79833458Y-76064748D01*
X79619883Y-76029109D01*
X79592263Y-76024500D01*
X79347737Y-76024500D01*
X79320117Y-76029109D01*
X79106541Y-76064748D01*
X78875270Y-76144143D01*
X78875265Y-76144145D01*
X78675418Y-76252297D01*
X78660212Y-76260527D01*
X78621975Y-76290288D01*
X78545769Y-76349601D01*
X78480774Y-76375243D01*
X78412235Y-76361676D01*
X78361910Y-76313207D01*
X78353424Y-76295078D01*
X78353097Y-76294202D01*
X78348796Y-76282669D01*
X78348793Y-76282664D01*
X78262547Y-76167455D01*
X78262544Y-76167452D01*
X78147335Y-76081206D01*
X78147328Y-76081202D01*
X78012482Y-76030908D01*
X78012483Y-76030908D01*
X77952883Y-76024501D01*
X77952881Y-76024500D01*
X77952873Y-76024500D01*
X77952864Y-76024500D01*
X75907129Y-76024500D01*
X75907123Y-76024501D01*
X75847516Y-76030908D01*
X75712671Y-76081202D01*
X75712664Y-76081206D01*
X75597455Y-76167452D01*
X75597452Y-76167455D01*
X75511206Y-76282664D01*
X75511202Y-76282671D01*
X75460908Y-76417517D01*
X75454501Y-76477116D01*
X75454500Y-76477135D01*
X67717809Y-76477135D01*
X67627831Y-76290288D01*
X67448700Y-76005194D01*
X67238774Y-75741950D01*
X67121321Y-75621321D01*
X64879309Y-73379309D01*
X64878132Y-73378117D01*
X64765518Y-73262419D01*
X64757428Y-73253242D01*
X64555667Y-73000236D01*
X64547621Y-72988895D01*
X64375897Y-72715592D01*
X64369175Y-72703431D01*
X64229128Y-72412611D01*
X64223810Y-72399770D01*
X64223809Y-72399767D01*
X64117206Y-72095102D01*
X64113362Y-72081757D01*
X64041541Y-71767071D01*
X64039213Y-71753366D01*
X64039213Y-71753364D01*
X64002982Y-71431773D01*
X64002215Y-71419603D01*
X64000012Y-71258237D01*
X64000000Y-71256544D01*
X64000000Y-68249997D01*
X66194652Y-68249997D01*
X66194652Y-68250002D01*
X66214028Y-68607368D01*
X66214029Y-68607385D01*
X66271926Y-68960539D01*
X66271932Y-68960565D01*
X66367672Y-69305392D01*
X66367674Y-69305399D01*
X66500142Y-69637870D01*
X66500151Y-69637888D01*
X66667784Y-69954077D01*
X66667790Y-69954086D01*
X66868634Y-70250309D01*
X66868641Y-70250319D01*
X67100331Y-70523085D01*
X67100332Y-70523086D01*
X67360163Y-70769211D01*
X67645081Y-70985800D01*
X67951747Y-71170315D01*
X67951749Y-71170316D01*
X67951751Y-71170317D01*
X67951755Y-71170319D01*
X68138036Y-71256501D01*
X68276565Y-71320591D01*
X68615726Y-71434868D01*
X68965254Y-71511805D01*
X69321052Y-71550500D01*
X69321058Y-71550500D01*
X69678942Y-71550500D01*
X69678948Y-71550500D01*
X70034746Y-71511805D01*
X70088390Y-71499997D01*
X102244751Y-71499997D01*
X102244751Y-71500002D01*
X102263685Y-71668056D01*
X102319545Y-71827694D01*
X102319547Y-71827697D01*
X102409518Y-71970884D01*
X102409523Y-71970890D01*
X102529110Y-72090477D01*
X102672310Y-72180456D01*
X102672494Y-72180520D01*
X102672658Y-72180623D01*
X102678584Y-72183477D01*
X102678262Y-72184144D01*
X102719225Y-72209882D01*
X103553453Y-73044111D01*
X103553454Y-73044112D01*
X103668192Y-73120777D01*
X103782343Y-73168059D01*
X103795672Y-73173580D01*
X103795676Y-73173580D01*
X103795677Y-73173581D01*
X103931003Y-73200500D01*
X103931006Y-73200500D01*
X103931007Y-73200500D01*
X119208524Y-73200500D01*
X119249479Y-73207459D01*
X119331939Y-73236313D01*
X119499997Y-73255249D01*
X119500000Y-73255249D01*
X119500003Y-73255249D01*
X119668056Y-73236314D01*
X119668059Y-73236313D01*
X119827690Y-73180456D01*
X119827692Y-73180454D01*
X119827694Y-73180454D01*
X119827697Y-73180452D01*
X119970884Y-73090481D01*
X119970885Y-73090480D01*
X119970890Y-73090477D01*
X120090477Y-72970890D01*
X120180452Y-72827697D01*
X120180454Y-72827694D01*
X120180454Y-72827692D01*
X120180456Y-72827690D01*
X120236313Y-72668059D01*
X120236313Y-72668058D01*
X120236314Y-72668056D01*
X120255249Y-72500002D01*
X120255249Y-72499997D01*
X120236314Y-72331943D01*
X120183306Y-72180456D01*
X120180456Y-72172310D01*
X120180455Y-72172309D01*
X120180454Y-72172305D01*
X120180452Y-72172302D01*
X120090481Y-72029115D01*
X120090476Y-72029109D01*
X119970890Y-71909523D01*
X119970884Y-71909518D01*
X119827697Y-71819547D01*
X119827694Y-71819545D01*
X119668056Y-71763685D01*
X119500003Y-71744751D01*
X119499997Y-71744751D01*
X119331940Y-71763686D01*
X119331938Y-71763686D01*
X119249479Y-71792541D01*
X119208524Y-71799500D01*
X104341519Y-71799500D01*
X104274480Y-71779815D01*
X104253838Y-71763181D01*
X103709882Y-71219225D01*
X103684144Y-71178262D01*
X103683477Y-71178584D01*
X103680623Y-71172658D01*
X103680520Y-71172494D01*
X103680456Y-71172310D01*
X103590477Y-71029110D01*
X103470890Y-70909523D01*
X103470884Y-70909518D01*
X103327697Y-70819547D01*
X103327694Y-70819545D01*
X103168056Y-70763685D01*
X103000003Y-70744751D01*
X102999997Y-70744751D01*
X102831943Y-70763685D01*
X102672305Y-70819545D01*
X102672302Y-70819547D01*
X102529115Y-70909518D01*
X102529109Y-70909523D01*
X102409523Y-71029109D01*
X102409518Y-71029115D01*
X102319547Y-71172302D01*
X102319545Y-71172305D01*
X102263685Y-71331943D01*
X102244751Y-71499997D01*
X70088390Y-71499997D01*
X70384274Y-71434868D01*
X70723435Y-71320591D01*
X71048253Y-71170315D01*
X71354919Y-70985800D01*
X71639837Y-70769211D01*
X71899668Y-70523086D01*
X72131365Y-70250311D01*
X72332211Y-69954085D01*
X72499853Y-69637880D01*
X72632324Y-69305403D01*
X72728071Y-68960552D01*
X72785972Y-68607371D01*
X72805348Y-68250000D01*
X72785972Y-67892629D01*
X72773990Y-67819544D01*
X72728073Y-67539460D01*
X72728072Y-67539459D01*
X72728071Y-67539448D01*
X72664066Y-67308922D01*
X72632327Y-67194607D01*
X72632325Y-67194600D01*
X72554788Y-66999997D01*
X102244751Y-66999997D01*
X102244751Y-67000002D01*
X102263685Y-67168056D01*
X102319545Y-67327694D01*
X102319547Y-67327697D01*
X102409518Y-67470884D01*
X102409523Y-67470890D01*
X102529110Y-67590477D01*
X102672310Y-67680456D01*
X102672494Y-67680520D01*
X102672658Y-67680623D01*
X102678584Y-67683477D01*
X102678262Y-67684144D01*
X102719225Y-67709882D01*
X103955886Y-68946542D01*
X104053458Y-69044114D01*
X104053459Y-69044115D01*
X104168182Y-69120771D01*
X104168189Y-69120775D01*
X104239951Y-69150499D01*
X104239953Y-69150501D01*
X104295666Y-69173578D01*
X104295671Y-69173580D01*
X104295680Y-69173581D01*
X104295681Y-69173582D01*
X104322545Y-69178925D01*
X104322551Y-69178926D01*
X104322591Y-69178934D01*
X104412937Y-69196905D01*
X104431006Y-69200500D01*
X104431007Y-69200500D01*
X119208524Y-69200500D01*
X119249479Y-69207459D01*
X119331939Y-69236313D01*
X119499997Y-69255249D01*
X119500000Y-69255249D01*
X119500003Y-69255249D01*
X119668056Y-69236314D01*
X119668059Y-69236313D01*
X119827690Y-69180456D01*
X119827692Y-69180454D01*
X119827694Y-69180454D01*
X119827697Y-69180452D01*
X119970884Y-69090481D01*
X119970885Y-69090480D01*
X119970890Y-69090477D01*
X120090477Y-68970890D01*
X120180452Y-68827697D01*
X120180454Y-68827694D01*
X120180454Y-68827692D01*
X120180456Y-68827690D01*
X120236313Y-68668059D01*
X120236313Y-68668058D01*
X120236314Y-68668056D01*
X120255249Y-68500002D01*
X120255249Y-68499997D01*
X120236314Y-68331943D01*
X120180454Y-68172305D01*
X120180452Y-68172302D01*
X120090481Y-68029115D01*
X120090476Y-68029109D01*
X119970890Y-67909523D01*
X119970884Y-67909518D01*
X119827697Y-67819547D01*
X119827694Y-67819545D01*
X119668056Y-67763685D01*
X119500003Y-67744751D01*
X119499997Y-67744751D01*
X119331940Y-67763686D01*
X119331938Y-67763686D01*
X119249479Y-67792541D01*
X119208524Y-67799500D01*
X104841518Y-67799500D01*
X104774479Y-67779815D01*
X104753837Y-67763181D01*
X103709882Y-66719225D01*
X103684144Y-66678262D01*
X103683477Y-66678584D01*
X103680623Y-66672658D01*
X103680520Y-66672494D01*
X103680456Y-66672310D01*
X103590477Y-66529110D01*
X103470890Y-66409523D01*
X103470884Y-66409518D01*
X103327697Y-66319547D01*
X103327694Y-66319545D01*
X103168056Y-66263685D01*
X103000003Y-66244751D01*
X102999997Y-66244751D01*
X102831943Y-66263685D01*
X102672305Y-66319545D01*
X102672302Y-66319547D01*
X102529115Y-66409518D01*
X102529109Y-66409523D01*
X102409523Y-66529109D01*
X102409518Y-66529115D01*
X102319547Y-66672302D01*
X102319545Y-66672305D01*
X102263685Y-66831943D01*
X102244751Y-66999997D01*
X72554788Y-66999997D01*
X72499857Y-66862129D01*
X72499848Y-66862111D01*
X72332215Y-66545922D01*
X72332213Y-66545919D01*
X72332211Y-66545915D01*
X72131365Y-66249689D01*
X72131361Y-66249684D01*
X72131358Y-66249680D01*
X71899668Y-65976914D01*
X71639837Y-65730789D01*
X71639830Y-65730783D01*
X71639827Y-65730781D01*
X71572245Y-65679407D01*
X71354919Y-65514200D01*
X71048253Y-65329685D01*
X71048252Y-65329684D01*
X71048248Y-65329682D01*
X71048244Y-65329680D01*
X70723447Y-65179414D01*
X70723441Y-65179411D01*
X70723435Y-65179409D01*
X70520595Y-65111064D01*
X70384273Y-65065131D01*
X70034744Y-64988194D01*
X69678949Y-64949500D01*
X69678948Y-64949500D01*
X69321052Y-64949500D01*
X69321050Y-64949500D01*
X68965255Y-64988194D01*
X68615726Y-65065131D01*
X68359970Y-65151306D01*
X68276565Y-65179409D01*
X68276563Y-65179410D01*
X68276552Y-65179414D01*
X67951755Y-65329680D01*
X67951751Y-65329682D01*
X67755591Y-65447708D01*
X67645081Y-65514200D01*
X67556768Y-65581333D01*
X67360172Y-65730781D01*
X67360163Y-65730789D01*
X67100331Y-65976914D01*
X66868641Y-66249680D01*
X66868634Y-66249690D01*
X66667790Y-66545913D01*
X66667784Y-66545922D01*
X66500151Y-66862111D01*
X66500142Y-66862129D01*
X66367674Y-67194600D01*
X66367672Y-67194607D01*
X66271932Y-67539434D01*
X66271926Y-67539460D01*
X66214029Y-67892614D01*
X66214028Y-67892631D01*
X66194652Y-68249997D01*
X64000000Y-68249997D01*
X64000000Y-67500787D01*
X64000009Y-67499267D01*
X64000357Y-67470884D01*
X64002343Y-67308922D01*
X64002930Y-67298320D01*
X64040312Y-66918772D01*
X64042097Y-66906744D01*
X64050972Y-66862129D01*
X64116346Y-66533468D01*
X64119301Y-66521670D01*
X64153323Y-66409518D01*
X64229787Y-66157447D01*
X64233885Y-66145997D01*
X64379535Y-65794363D01*
X64384730Y-65783380D01*
X64564152Y-65447708D01*
X64570390Y-65437300D01*
X64781852Y-65120825D01*
X64789091Y-65111064D01*
X65030555Y-64816838D01*
X65038707Y-64807844D01*
X65307844Y-64538707D01*
X65316838Y-64530555D01*
X65611064Y-64289091D01*
X65620825Y-64281852D01*
X65937300Y-64070390D01*
X65947708Y-64064152D01*
X66283380Y-63884730D01*
X66294363Y-63879535D01*
X66646004Y-63733882D01*
X66657447Y-63729787D01*
X67021677Y-63619299D01*
X67033468Y-63616346D01*
X67406753Y-63542095D01*
X67418772Y-63540312D01*
X67798320Y-63502930D01*
X67808922Y-63502343D01*
X67996784Y-63500039D01*
X67999267Y-63500009D01*
X68000787Y-63500000D01*
X150876000Y-63500000D01*
X150943039Y-63519685D01*
G37*
%TD.AperFunction*%
%TD*%
M02*
