M48
; DRILL file {KiCad 8.0.2} date 2024-06-16T16:45:59+0200
; FORMAT={-:-/ absolute / inch / decimal}
; #@! TF.CreationDate,2024-06-16T16:45:59+02:00
; #@! TF.GenerationSoftware,Kicad,Pcbnew,8.0.2
; #@! TF.FileFunction,Plated,1,2,PTH
FMAT,2
INCH
; #@! TA.AperFunction,Plated,PTH,ViaDrill
T1C0.0118
; #@! TA.AperFunction,Plated,PTH,ComponentDrill
T2C0.0256
; #@! TA.AperFunction,Plated,PTH,ComponentDrill
T3C0.0366
%
G90
G05
T1
X3.9828Y-2.6107
T2
X2.6Y-2.675
X2.6Y-2.725
X2.65Y-2.675
X2.65Y-2.725
X2.7Y-2.675
X2.7Y-2.725
X2.75Y-2.675
X2.75Y-2.725
X2.8Y-2.675
X2.8Y-2.725
X2.85Y-2.675
X2.85Y-2.725
T3
X3.1Y-2.675
X3.1Y-2.775
X3.4Y-2.675
X3.4Y-2.775
X3.7Y-2.675
X3.7Y-2.775
X4.0Y-2.675
X4.0Y-2.775
X4.3Y-2.675
X4.3Y-2.775
X4.6Y-2.675
X4.6Y-2.775
X4.9Y-2.675
X4.9Y-2.775
X5.2Y-2.675
X5.2Y-2.775
X5.5Y-2.675
X5.5Y-2.775
X5.8Y-2.675
X5.8Y-2.775
M30
