%TF.GenerationSoftware,KiCad,Pcbnew,7.0.6*%
%TF.CreationDate,2023-08-31T22:42:39+02:00*%
%TF.ProjectId,BMS V1.0,424d5320-5631-42e3-902e-6b696361645f,rev?*%
%TF.SameCoordinates,Original*%
%TF.FileFunction,Plated,1,2,PTH,Drill*%
%TF.FilePolarity,Positive*%
%FSLAX46Y46*%
G04 Gerber Fmt 4.6, Leading zero omitted, Abs format (unit mm)*
G04 Created by KiCad (PCBNEW 7.0.6) date 2023-08-31 22:42:39*
%MOMM*%
%LPD*%
G01*
G04 APERTURE LIST*
%TA.AperFunction,ViaDrill*%
%ADD10C,0.300000*%
%TD*%
%TA.AperFunction,ViaDrill*%
%ADD11C,0.400000*%
%TD*%
%TA.AperFunction,ComponentDrill*%
%ADD12C,1.200000*%
%TD*%
%TA.AperFunction,ComponentDrill*%
%ADD13C,1.300000*%
%TD*%
%TA.AperFunction,ComponentDrill*%
%ADD14C,1.550000*%
%TD*%
%TA.AperFunction,ComponentDrill*%
%ADD15C,3.200000*%
%TD*%
G04 APERTURE END LIST*
D10*
X100550000Y-91000000D03*
X100550000Y-101000000D03*
X100550000Y-109000000D03*
X101050000Y-73000000D03*
X101050000Y-82000000D03*
X102500000Y-112000000D03*
X102500000Y-116500000D03*
X103000000Y-67000000D03*
X103000000Y-71500000D03*
X103000000Y-76000000D03*
X103000000Y-80500000D03*
X103000000Y-85000000D03*
X103000000Y-89500000D03*
X103000000Y-94000000D03*
X103000000Y-98500000D03*
X103000000Y-103000000D03*
X103000000Y-107500000D03*
X119500000Y-68500000D03*
X119500000Y-72500000D03*
X119500000Y-76500000D03*
X119500000Y-80500000D03*
X119500000Y-84500000D03*
X119500000Y-88500000D03*
X119500000Y-92500000D03*
X119500000Y-96500000D03*
X119500000Y-100500000D03*
X119500000Y-104500000D03*
X119500000Y-108500000D03*
X119500000Y-112500000D03*
X133750000Y-65000000D03*
X138000000Y-108000000D03*
X140000000Y-76500000D03*
X143500000Y-89750000D03*
X147500000Y-101500000D03*
X149500000Y-82500000D03*
X157000000Y-95500000D03*
X159500000Y-99500000D03*
X167500000Y-106500000D03*
X173500000Y-106500000D03*
X176500000Y-99500000D03*
X177000000Y-83000000D03*
X178000000Y-74500000D03*
X181500000Y-82925500D03*
X182000000Y-82225000D03*
X182500000Y-83525000D03*
X184500000Y-90500000D03*
X185500000Y-100000000D03*
X187844425Y-81312811D03*
X189635627Y-90635627D03*
X192602012Y-91057008D03*
X195000000Y-88500000D03*
D11*
X188500000Y-91000000D03*
D12*
%TO.C,J4*%
X175840000Y-104000000D03*
%TO.C,J5*%
X175880000Y-77775000D03*
%TO.C,J4*%
X178380000Y-104000000D03*
%TO.C,J5*%
X178420000Y-77775000D03*
%TO.C,J4*%
X180920000Y-104000000D03*
%TO.C,J5*%
X180960000Y-77775000D03*
%TO.C,J4*%
X183460000Y-104000000D03*
%TO.C,J5*%
X183500000Y-77775000D03*
%TO.C,J4*%
X186000000Y-104000000D03*
%TO.C,J5*%
X186040000Y-77775000D03*
%TO.C,J4*%
X188540000Y-104000000D03*
%TO.C,J5*%
X188580000Y-77775000D03*
%TO.C,J4*%
X191080000Y-104000000D03*
%TO.C,J5*%
X191120000Y-77775000D03*
%TO.C,J4*%
X193620000Y-104000000D03*
%TO.C,J5*%
X193660000Y-77775000D03*
%TO.C,J4*%
X196160000Y-104000000D03*
%TO.C,J5*%
X196200000Y-77775000D03*
D13*
%TO.C,J2*%
X76810000Y-104000000D03*
%TO.C,J6*%
X76930000Y-77500000D03*
%TO.C,J2*%
X79350000Y-104000000D03*
%TO.C,J6*%
X79470000Y-77500000D03*
%TO.C,J2*%
X81890000Y-104000000D03*
%TO.C,J6*%
X82010000Y-77500000D03*
%TO.C,J2*%
X84430000Y-104000000D03*
%TO.C,J6*%
X84550000Y-77500000D03*
%TO.C,J2*%
X86970000Y-104000000D03*
%TO.C,J6*%
X87090000Y-77500000D03*
%TO.C,J2*%
X89510000Y-104000000D03*
%TO.C,J6*%
X89630000Y-77500000D03*
%TO.C,J2*%
X92050000Y-104000000D03*
%TO.C,J6*%
X92170000Y-77500000D03*
D14*
%TO.C,J1*%
X153460000Y-68155000D03*
X156000000Y-68155000D03*
%TO.C,J3*%
X163000000Y-68155000D03*
X165540000Y-68155000D03*
D15*
%TO.C,REF\u002A\u002A*%
X69500000Y-68250000D03*
%TO.C,*%
X69500000Y-113250000D03*
X203750000Y-68250000D03*
X203750000Y-113250000D03*
M02*
