%TF.GenerationSoftware,KiCad,Pcbnew,7.0.6*%
%TF.CreationDate,2023-08-31T22:42:44+02:00*%
%TF.ProjectId,BMS V1.0,424d5320-5631-42e3-902e-6b696361645f,rev?*%
%TF.SameCoordinates,Original*%
%TF.FileFunction,Profile,NP*%
%FSLAX46Y46*%
G04 Gerber Fmt 4.6, Leading zero omitted, Abs format (unit mm)*
G04 Created by KiCad (PCBNEW 7.0.6) date 2023-08-31 22:42:44*
%MOMM*%
%LPD*%
G01*
G04 APERTURE LIST*
%TA.AperFunction,Profile*%
%ADD10C,0.100000*%
%TD*%
G04 APERTURE END LIST*
D10*
X207621320Y-73378680D02*
X205378679Y-75621321D01*
X208500000Y-67500000D02*
X208500000Y-71257359D01*
X204500029Y-103757359D02*
G75*
G03*
X205378679Y-105878679I2999971J-41D01*
G01*
X68000000Y-103757359D02*
X68000000Y-77742641D01*
X204500000Y-118000000D02*
X68000000Y-118000000D01*
X64878680Y-73378680D02*
X67121321Y-75621321D01*
X68000000Y-63500000D02*
X204500000Y-63500000D01*
X67121300Y-105878658D02*
G75*
G03*
X68000000Y-103757359I-2121100J2121258D01*
G01*
X207621299Y-73378659D02*
G75*
G03*
X208500000Y-71257359I-2121099J2121259D01*
G01*
X64000000Y-114000000D02*
X64000000Y-110242641D01*
X64000029Y-71257359D02*
G75*
G03*
X64878680Y-73378680I2999971J-41D01*
G01*
X208500000Y-67500000D02*
G75*
G03*
X204500000Y-63500000I-4000000J0D01*
G01*
X205378700Y-75621342D02*
G75*
G03*
X204500000Y-77742641I2121100J-2121258D01*
G01*
X67999971Y-77742641D02*
G75*
G03*
X67121321Y-75621321I-2999971J41D01*
G01*
X208500000Y-110242641D02*
X208500000Y-114000000D01*
X64000000Y-114000000D02*
G75*
G03*
X68000000Y-118000000I4000000J0D01*
G01*
X208499971Y-110242641D02*
G75*
G03*
X207621320Y-108121320I-2999971J41D01*
G01*
X204500000Y-118000000D02*
G75*
G03*
X208500000Y-114000000I0J4000000D01*
G01*
X204500000Y-103757359D02*
X204500000Y-77742641D01*
X64878680Y-108121320D02*
X67121321Y-105878679D01*
X64000000Y-67500000D02*
X64000000Y-71257359D01*
X64878701Y-108121341D02*
G75*
G03*
X64000000Y-110242641I2121099J-2121259D01*
G01*
X207621320Y-108121320D02*
X205378679Y-105878679D01*
X68000000Y-63500000D02*
G75*
G03*
X64000000Y-67500000I0J-4000000D01*
G01*
M02*
