<?xml version="1.0" standalone="no"?>
<svg viewBox="0 0 1024 768" version="1.1" xmlns="http://www.w3.org/2000/svg" xmlns:xlink="http://www.w3.org/1999/xlink" stroke-linecap="round" stroke-linejoin="round" fill-rule="evenodd" xml:space="preserve" style="background-color:rgb(0,0,0);" >
<defs >
<clipPath id="clipId0" >
<path d="M0,768 1024,768 1024,0 0,0 z" />
</clipPath>
</defs>
<rect width="100%" height="100%" fill="rgb(0,0,0)" />
<g clip-path="url(#clipId0)" fill="none" stroke="rgb(255,255,255)" stroke-width="0.1" />
<g clip-path="url(#clipId0)" fill="none" stroke="rgb(255,255,255)" stroke-width="0.1" >
<circle cx="109.048" cy="354.678" r="16.0664" />
<path d="M80.6484,239.425  A258.756,258.756 0 0,0 100.847,228.685 " />
<path d="M100.847,228.685  A258.217,258.217 0 0,0 123.633,213.574 " />
<polyline points="1013.96,213.574 123.632,213.574 " />
<polyline points="1013.96,443.094 1013.96,213.574 " />
<polyline points="923.184,443.094 1013.96,443.094 " />
<polyline points="923.184,480.582 923.184,443.094 " />
<polyline points="1013.96,480.582 923.184,480.582 " />
<polyline points="1013.96,554.426 1013.96,480.582 " />
<polyline points="10.04,554.426 1013.96,554.426 " />
<polyline points="10.04,275.011 10.04,554.426 " />
<path d="M10.0392,275.011  A166.871,107.088 -30.5256 0,0 80.6481,239.425 " />
<path d="M61.4755,251.902  A259.913,259.913 0 0,0 67.3471,248.334 " />
<path d="M80.6489,239.425  A258.76,258.76 0 0,0 100.847,228.685 " />
</g>
</svg>
