%TF.GenerationSoftware,KiCad,Pcbnew,(6.0.8)*%
%TF.CreationDate,2023-01-11T15:29:54+01:00*%
%TF.ProjectId,BSPD,42535044-2e6b-4696-9361-645f70636258,rev?*%
%TF.SameCoordinates,Original*%
%TF.FileFunction,Drillmap*%
%TF.FilePolarity,Positive*%
%FSLAX45Y45*%
G04 Gerber Fmt 4.5, Leading zero omitted, Abs format (unit mm)*
G04 Created by KiCad (PCBNEW (6.0.8)) date 2023-01-11 15:29:54*
%MOMM*%
%LPD*%
G01*
G04 APERTURE LIST*
%ADD10C,0.100000*%
%ADD11C,0.200000*%
%ADD12C,0.040000*%
%ADD13C,0.071000*%
%ADD14C,0.080000*%
%ADD15C,0.090000*%
%ADD16C,0.094000*%
%ADD17C,0.102000*%
%ADD18C,0.107000*%
%ADD19C,0.320000*%
G04 APERTURE END LIST*
D10*
X9398000Y-6604000D02*
X17018000Y-6604000D01*
X17018000Y-6604000D02*
X17018000Y-12192000D01*
X17018000Y-12192000D02*
X9398000Y-12192000D01*
X9398000Y-12192000D02*
X9398000Y-6604000D01*
D11*
D12*
X11905122Y-9382830D02*
X11945122Y-9422830D01*
X11945122Y-9382830D02*
X11905122Y-9422830D01*
X12521000Y-9029000D02*
X12561000Y-9069000D01*
X12561000Y-9029000D02*
X12521000Y-9069000D01*
X12593374Y-9125333D02*
X12633374Y-9165333D01*
X12633374Y-9125333D02*
X12593374Y-9165333D01*
X13950000Y-9632000D02*
X13990000Y-9672000D01*
X13990000Y-9632000D02*
X13950000Y-9672000D01*
X14179118Y-10385291D02*
X14219118Y-10425291D01*
X14219118Y-10385291D02*
X14179118Y-10425291D01*
X14639550Y-10149213D02*
X14679550Y-10189213D01*
X14679550Y-10149213D02*
X14639550Y-10189213D01*
X14712000Y-7854000D02*
X14752000Y-7894000D01*
X14752000Y-7854000D02*
X14712000Y-7894000D01*
X14712000Y-9886000D02*
X14752000Y-9926000D01*
X14752000Y-9886000D02*
X14712000Y-9926000D01*
D13*
X10195500Y-9906000D02*
G75*
G03*
X10195500Y-9906000I-35500J0D01*
G01*
X10449500Y-7874000D02*
G75*
G03*
X10449500Y-7874000I-35500J0D01*
G01*
X10449500Y-8382000D02*
G75*
G03*
X10449500Y-8382000I-35500J0D01*
G01*
X10449500Y-9652000D02*
G75*
G03*
X10449500Y-9652000I-35500J0D01*
G01*
X10703500Y-8128000D02*
G75*
G03*
X10703500Y-8128000I-35500J0D01*
G01*
X10703500Y-9906000D02*
G75*
G03*
X10703500Y-9906000I-35500J0D01*
G01*
X11719500Y-7874000D02*
G75*
G03*
X11719500Y-7874000I-35500J0D01*
G01*
X11719500Y-8382000D02*
G75*
G03*
X11719500Y-8382000I-35500J0D01*
G01*
X11719500Y-9906000D02*
G75*
G03*
X11719500Y-9906000I-35500J0D01*
G01*
X11973500Y-8128000D02*
G75*
G03*
X11973500Y-8128000I-35500J0D01*
G01*
X11973500Y-9652000D02*
G75*
G03*
X11973500Y-9652000I-35500J0D01*
G01*
X12227500Y-9906000D02*
G75*
G03*
X12227500Y-9906000I-35500J0D01*
G01*
X12989500Y-8128000D02*
G75*
G03*
X12989500Y-8128000I-35500J0D01*
G01*
X13243500Y-7874000D02*
G75*
G03*
X13243500Y-7874000I-35500J0D01*
G01*
X13243500Y-8382000D02*
G75*
G03*
X13243500Y-8382000I-35500J0D01*
G01*
D14*
X11938894Y-10469818D02*
X11938894Y-10549818D01*
X11898894Y-10509818D02*
X11978894Y-10509818D01*
X11938894Y-10723818D02*
X11938894Y-10803818D01*
X11898894Y-10763818D02*
X11978894Y-10763818D01*
X11938894Y-10977818D02*
X11938894Y-11057818D01*
X11898894Y-11017818D02*
X11978894Y-11017818D01*
X11938894Y-11231818D02*
X11938894Y-11311818D01*
X11898894Y-11271818D02*
X11978894Y-11271818D01*
X12700894Y-10469818D02*
X12700894Y-10549818D01*
X12660894Y-10509818D02*
X12740894Y-10509818D01*
X12700894Y-10723818D02*
X12700894Y-10803818D01*
X12660894Y-10763818D02*
X12740894Y-10763818D01*
X12700894Y-10977818D02*
X12700894Y-11057818D01*
X12660894Y-11017818D02*
X12740894Y-11017818D01*
X12700894Y-11231818D02*
X12700894Y-11311818D01*
X12660894Y-11271818D02*
X12740894Y-11271818D01*
X15810337Y-11497015D02*
X15810337Y-11577015D01*
X15770337Y-11537015D02*
X15850337Y-11537015D01*
X15810337Y-11697015D02*
X15810337Y-11777015D01*
X15770337Y-11737015D02*
X15850337Y-11737015D01*
D15*
X12989754Y-6889820D02*
X12989754Y-6826180D01*
X12926114Y-6826180D01*
X12926114Y-6889820D01*
X12989754Y-6889820D01*
X12989754Y-7143820D02*
X12989754Y-7080180D01*
X12926114Y-7080180D01*
X12926114Y-7143820D01*
X12989754Y-7143820D01*
X13464838Y-10321438D02*
X13464838Y-10257798D01*
X13401198Y-10257798D01*
X13401198Y-10321438D01*
X13464838Y-10321438D01*
X13464838Y-10575438D02*
X13464838Y-10511798D01*
X13401198Y-10511798D01*
X13401198Y-10575438D01*
X13464838Y-10575438D01*
X13747820Y-6889820D02*
X13747820Y-6826180D01*
X13684180Y-6826180D01*
X13684180Y-6889820D01*
X13747820Y-6889820D01*
X13747820Y-7143820D02*
X13747820Y-7080180D01*
X13684180Y-7080180D01*
X13684180Y-7143820D01*
X13747820Y-7143820D01*
D16*
X16113600Y-9197150D02*
X16160600Y-9150150D01*
X16113600Y-9103150D01*
X16066600Y-9150150D01*
X16113600Y-9197150D01*
X16113600Y-9451150D02*
X16160600Y-9404150D01*
X16113600Y-9357150D01*
X16066600Y-9404150D01*
X16113600Y-9451150D01*
X16113600Y-9705150D02*
X16160600Y-9658150D01*
X16113600Y-9611150D01*
X16066600Y-9658150D01*
X16113600Y-9705150D01*
D17*
X14935000Y-11633000D02*
X15037000Y-11735000D01*
X15037000Y-11633000D02*
X14935000Y-11735000D01*
X15037000Y-11684000D02*
G75*
G03*
X15037000Y-11684000I-51000J0D01*
G01*
X15189000Y-11633000D02*
X15291000Y-11735000D01*
X15291000Y-11633000D02*
X15189000Y-11735000D01*
X15291000Y-11684000D02*
G75*
G03*
X15291000Y-11684000I-51000J0D01*
G01*
X16459000Y-10363000D02*
X16561000Y-10465000D01*
X16561000Y-10363000D02*
X16459000Y-10465000D01*
X16561000Y-10414000D02*
G75*
G03*
X16561000Y-10414000I-51000J0D01*
G01*
X16459000Y-10617000D02*
X16561000Y-10719000D01*
X16561000Y-10617000D02*
X16459000Y-10719000D01*
X16561000Y-10668000D02*
G75*
G03*
X16561000Y-10668000I-51000J0D01*
G01*
D18*
X10614500Y-7058500D02*
X10721500Y-7165500D01*
X10721500Y-7058500D02*
X10614500Y-7165500D01*
X10668000Y-7058500D02*
X10668000Y-7165500D01*
X10614500Y-7112000D02*
X10721500Y-7112000D01*
X10868500Y-7058500D02*
X10975500Y-7165500D01*
X10975500Y-7058500D02*
X10868500Y-7165500D01*
X10922000Y-7058500D02*
X10922000Y-7165500D01*
X10868500Y-7112000D02*
X10975500Y-7112000D01*
X11122500Y-7058500D02*
X11229500Y-7165500D01*
X11229500Y-7058500D02*
X11122500Y-7165500D01*
X11176000Y-7058500D02*
X11176000Y-7165500D01*
X11122500Y-7112000D02*
X11229500Y-7112000D01*
X11630500Y-7058500D02*
X11737500Y-7165500D01*
X11737500Y-7058500D02*
X11630500Y-7165500D01*
X11684000Y-7058500D02*
X11684000Y-7165500D01*
X11630500Y-7112000D02*
X11737500Y-7112000D01*
X11884500Y-7058500D02*
X11991500Y-7165500D01*
X11991500Y-7058500D02*
X11884500Y-7165500D01*
X11938000Y-7058500D02*
X11938000Y-7165500D01*
X11884500Y-7112000D02*
X11991500Y-7112000D01*
X12138500Y-7058500D02*
X12245500Y-7165500D01*
X12245500Y-7058500D02*
X12138500Y-7165500D01*
X12192000Y-7058500D02*
X12192000Y-7165500D01*
X12138500Y-7112000D02*
X12245500Y-7112000D01*
D19*
X9746000Y-6952000D02*
X10066000Y-7272000D01*
X10066000Y-6952000D02*
X9746000Y-7272000D01*
X10019138Y-7225138D02*
X10019138Y-6998862D01*
X9792862Y-6998862D01*
X9792862Y-7225138D01*
X10019138Y-7225138D01*
X9746000Y-11524000D02*
X10066000Y-11844000D01*
X10066000Y-11524000D02*
X9746000Y-11844000D01*
X10019138Y-11797138D02*
X10019138Y-11570862D01*
X9792862Y-11570862D01*
X9792862Y-11797138D01*
X10019138Y-11797138D01*
X16350000Y-6952000D02*
X16670000Y-7272000D01*
X16670000Y-6952000D02*
X16350000Y-7272000D01*
X16623138Y-7225138D02*
X16623138Y-6998862D01*
X16396862Y-6998862D01*
X16396862Y-7225138D01*
X16623138Y-7225138D01*
X16350000Y-11524000D02*
X16670000Y-11844000D01*
X16670000Y-11524000D02*
X16350000Y-11844000D01*
X16623138Y-11797138D02*
X16623138Y-11570862D01*
X16396862Y-11570862D01*
X16396862Y-11797138D01*
X16623138Y-11797138D01*
D11*
X9650619Y-12507476D02*
X9650619Y-12307476D01*
X9698238Y-12307476D01*
X9726810Y-12317000D01*
X9745857Y-12336048D01*
X9755381Y-12355095D01*
X9764905Y-12393190D01*
X9764905Y-12421762D01*
X9755381Y-12459857D01*
X9745857Y-12478905D01*
X9726810Y-12497952D01*
X9698238Y-12507476D01*
X9650619Y-12507476D01*
X9850619Y-12507476D02*
X9850619Y-12374143D01*
X9850619Y-12412238D02*
X9860143Y-12393190D01*
X9869667Y-12383667D01*
X9888714Y-12374143D01*
X9907762Y-12374143D01*
X9974429Y-12507476D02*
X9974429Y-12374143D01*
X9974429Y-12307476D02*
X9964905Y-12317000D01*
X9974429Y-12326524D01*
X9983952Y-12317000D01*
X9974429Y-12307476D01*
X9974429Y-12326524D01*
X10098238Y-12507476D02*
X10079190Y-12497952D01*
X10069667Y-12478905D01*
X10069667Y-12307476D01*
X10203000Y-12507476D02*
X10183952Y-12497952D01*
X10174429Y-12478905D01*
X10174429Y-12307476D01*
X10431571Y-12507476D02*
X10431571Y-12307476D01*
X10498238Y-12450333D01*
X10564905Y-12307476D01*
X10564905Y-12507476D01*
X10745857Y-12507476D02*
X10745857Y-12402714D01*
X10736333Y-12383667D01*
X10717286Y-12374143D01*
X10679190Y-12374143D01*
X10660143Y-12383667D01*
X10745857Y-12497952D02*
X10726810Y-12507476D01*
X10679190Y-12507476D01*
X10660143Y-12497952D01*
X10650619Y-12478905D01*
X10650619Y-12459857D01*
X10660143Y-12440809D01*
X10679190Y-12431286D01*
X10726810Y-12431286D01*
X10745857Y-12421762D01*
X10841095Y-12374143D02*
X10841095Y-12574143D01*
X10841095Y-12383667D02*
X10860143Y-12374143D01*
X10898238Y-12374143D01*
X10917286Y-12383667D01*
X10926810Y-12393190D01*
X10936333Y-12412238D01*
X10936333Y-12469381D01*
X10926810Y-12488428D01*
X10917286Y-12497952D01*
X10898238Y-12507476D01*
X10860143Y-12507476D01*
X10841095Y-12497952D01*
X11022048Y-12488428D02*
X11031571Y-12497952D01*
X11022048Y-12507476D01*
X11012524Y-12497952D01*
X11022048Y-12488428D01*
X11022048Y-12507476D01*
X11022048Y-12383667D02*
X11031571Y-12393190D01*
X11022048Y-12402714D01*
X11012524Y-12393190D01*
X11022048Y-12383667D01*
X11022048Y-12402714D01*
D12*
X9353000Y-12817000D02*
X9393000Y-12857000D01*
X9393000Y-12817000D02*
X9353000Y-12857000D01*
D11*
X9688714Y-12727476D02*
X9707762Y-12727476D01*
X9726810Y-12737000D01*
X9736333Y-12746524D01*
X9745857Y-12765571D01*
X9755381Y-12803667D01*
X9755381Y-12851286D01*
X9745857Y-12889381D01*
X9736333Y-12908428D01*
X9726810Y-12917952D01*
X9707762Y-12927476D01*
X9688714Y-12927476D01*
X9669667Y-12917952D01*
X9660143Y-12908428D01*
X9650619Y-12889381D01*
X9641095Y-12851286D01*
X9641095Y-12803667D01*
X9650619Y-12765571D01*
X9660143Y-12746524D01*
X9669667Y-12737000D01*
X9688714Y-12727476D01*
X9841095Y-12908428D02*
X9850619Y-12917952D01*
X9841095Y-12927476D01*
X9831571Y-12917952D01*
X9841095Y-12908428D01*
X9841095Y-12927476D01*
X10022048Y-12794143D02*
X10022048Y-12927476D01*
X9974429Y-12717952D02*
X9926810Y-12860809D01*
X10050619Y-12860809D01*
X10164905Y-12727476D02*
X10183952Y-12727476D01*
X10203000Y-12737000D01*
X10212524Y-12746524D01*
X10222048Y-12765571D01*
X10231571Y-12803667D01*
X10231571Y-12851286D01*
X10222048Y-12889381D01*
X10212524Y-12908428D01*
X10203000Y-12917952D01*
X10183952Y-12927476D01*
X10164905Y-12927476D01*
X10145857Y-12917952D01*
X10136333Y-12908428D01*
X10126810Y-12889381D01*
X10117286Y-12851286D01*
X10117286Y-12803667D01*
X10126810Y-12765571D01*
X10136333Y-12746524D01*
X10145857Y-12737000D01*
X10164905Y-12727476D01*
X10355381Y-12727476D02*
X10374429Y-12727476D01*
X10393476Y-12737000D01*
X10403000Y-12746524D01*
X10412524Y-12765571D01*
X10422048Y-12803667D01*
X10422048Y-12851286D01*
X10412524Y-12889381D01*
X10403000Y-12908428D01*
X10393476Y-12917952D01*
X10374429Y-12927476D01*
X10355381Y-12927476D01*
X10336333Y-12917952D01*
X10326810Y-12908428D01*
X10317286Y-12889381D01*
X10307762Y-12851286D01*
X10307762Y-12803667D01*
X10317286Y-12765571D01*
X10326810Y-12746524D01*
X10336333Y-12737000D01*
X10355381Y-12727476D01*
X10507762Y-12927476D02*
X10507762Y-12794143D01*
X10507762Y-12813190D02*
X10517286Y-12803667D01*
X10536333Y-12794143D01*
X10564905Y-12794143D01*
X10583952Y-12803667D01*
X10593476Y-12822714D01*
X10593476Y-12927476D01*
X10593476Y-12822714D02*
X10603000Y-12803667D01*
X10622048Y-12794143D01*
X10650619Y-12794143D01*
X10669667Y-12803667D01*
X10679190Y-12822714D01*
X10679190Y-12927476D01*
X10774429Y-12927476D02*
X10774429Y-12794143D01*
X10774429Y-12813190D02*
X10783952Y-12803667D01*
X10803000Y-12794143D01*
X10831571Y-12794143D01*
X10850619Y-12803667D01*
X10860143Y-12822714D01*
X10860143Y-12927476D01*
X10860143Y-12822714D02*
X10869667Y-12803667D01*
X10888714Y-12794143D01*
X10917286Y-12794143D01*
X10936333Y-12803667D01*
X10945857Y-12822714D01*
X10945857Y-12927476D01*
X11336333Y-12717952D02*
X11164905Y-12975095D01*
X11593476Y-12727476D02*
X11612524Y-12727476D01*
X11631571Y-12737000D01*
X11641095Y-12746524D01*
X11650619Y-12765571D01*
X11660143Y-12803667D01*
X11660143Y-12851286D01*
X11650619Y-12889381D01*
X11641095Y-12908428D01*
X11631571Y-12917952D01*
X11612524Y-12927476D01*
X11593476Y-12927476D01*
X11574428Y-12917952D01*
X11564905Y-12908428D01*
X11555381Y-12889381D01*
X11545857Y-12851286D01*
X11545857Y-12803667D01*
X11555381Y-12765571D01*
X11564905Y-12746524D01*
X11574428Y-12737000D01*
X11593476Y-12727476D01*
X11745857Y-12908428D02*
X11755381Y-12917952D01*
X11745857Y-12927476D01*
X11736333Y-12917952D01*
X11745857Y-12908428D01*
X11745857Y-12927476D01*
X11879190Y-12727476D02*
X11898238Y-12727476D01*
X11917286Y-12737000D01*
X11926809Y-12746524D01*
X11936333Y-12765571D01*
X11945857Y-12803667D01*
X11945857Y-12851286D01*
X11936333Y-12889381D01*
X11926809Y-12908428D01*
X11917286Y-12917952D01*
X11898238Y-12927476D01*
X11879190Y-12927476D01*
X11860143Y-12917952D01*
X11850619Y-12908428D01*
X11841095Y-12889381D01*
X11831571Y-12851286D01*
X11831571Y-12803667D01*
X11841095Y-12765571D01*
X11850619Y-12746524D01*
X11860143Y-12737000D01*
X11879190Y-12727476D01*
X12136333Y-12927476D02*
X12022048Y-12927476D01*
X12079190Y-12927476D02*
X12079190Y-12727476D01*
X12060143Y-12756048D01*
X12041095Y-12775095D01*
X12022048Y-12784619D01*
X12317286Y-12727476D02*
X12222048Y-12727476D01*
X12212524Y-12822714D01*
X12222048Y-12813190D01*
X12241095Y-12803667D01*
X12288714Y-12803667D01*
X12307762Y-12813190D01*
X12317286Y-12822714D01*
X12326809Y-12841762D01*
X12326809Y-12889381D01*
X12317286Y-12908428D01*
X12307762Y-12917952D01*
X12288714Y-12927476D01*
X12241095Y-12927476D01*
X12222048Y-12917952D01*
X12212524Y-12908428D01*
X12393476Y-12727476D02*
X12526809Y-12727476D01*
X12441095Y-12927476D01*
X12593476Y-12727476D02*
X12593476Y-12765571D01*
X12669667Y-12727476D02*
X12669667Y-12765571D01*
X12964905Y-13003667D02*
X12955381Y-12994143D01*
X12936333Y-12965571D01*
X12926809Y-12946524D01*
X12917286Y-12917952D01*
X12907762Y-12870333D01*
X12907762Y-12832238D01*
X12917286Y-12784619D01*
X12926809Y-12756048D01*
X12936333Y-12737000D01*
X12955381Y-12708428D01*
X12964905Y-12698905D01*
X13069667Y-12813190D02*
X13050619Y-12803667D01*
X13041095Y-12794143D01*
X13031571Y-12775095D01*
X13031571Y-12765571D01*
X13041095Y-12746524D01*
X13050619Y-12737000D01*
X13069667Y-12727476D01*
X13107762Y-12727476D01*
X13126809Y-12737000D01*
X13136333Y-12746524D01*
X13145857Y-12765571D01*
X13145857Y-12775095D01*
X13136333Y-12794143D01*
X13126809Y-12803667D01*
X13107762Y-12813190D01*
X13069667Y-12813190D01*
X13050619Y-12822714D01*
X13041095Y-12832238D01*
X13031571Y-12851286D01*
X13031571Y-12889381D01*
X13041095Y-12908428D01*
X13050619Y-12917952D01*
X13069667Y-12927476D01*
X13107762Y-12927476D01*
X13126809Y-12917952D01*
X13136333Y-12908428D01*
X13145857Y-12889381D01*
X13145857Y-12851286D01*
X13136333Y-12832238D01*
X13126809Y-12822714D01*
X13107762Y-12813190D01*
X13383952Y-12927476D02*
X13383952Y-12727476D01*
X13469667Y-12927476D02*
X13469667Y-12822714D01*
X13460143Y-12803667D01*
X13441095Y-12794143D01*
X13412524Y-12794143D01*
X13393476Y-12803667D01*
X13383952Y-12813190D01*
X13593476Y-12927476D02*
X13574428Y-12917952D01*
X13564905Y-12908428D01*
X13555381Y-12889381D01*
X13555381Y-12832238D01*
X13564905Y-12813190D01*
X13574428Y-12803667D01*
X13593476Y-12794143D01*
X13622048Y-12794143D01*
X13641095Y-12803667D01*
X13650619Y-12813190D01*
X13660143Y-12832238D01*
X13660143Y-12889381D01*
X13650619Y-12908428D01*
X13641095Y-12917952D01*
X13622048Y-12927476D01*
X13593476Y-12927476D01*
X13774428Y-12927476D02*
X13755381Y-12917952D01*
X13745857Y-12898905D01*
X13745857Y-12727476D01*
X13926809Y-12917952D02*
X13907762Y-12927476D01*
X13869667Y-12927476D01*
X13850619Y-12917952D01*
X13841095Y-12898905D01*
X13841095Y-12822714D01*
X13850619Y-12803667D01*
X13869667Y-12794143D01*
X13907762Y-12794143D01*
X13926809Y-12803667D01*
X13936333Y-12822714D01*
X13936333Y-12841762D01*
X13841095Y-12860809D01*
X14012524Y-12917952D02*
X14031571Y-12927476D01*
X14069667Y-12927476D01*
X14088714Y-12917952D01*
X14098238Y-12898905D01*
X14098238Y-12889381D01*
X14088714Y-12870333D01*
X14069667Y-12860809D01*
X14041095Y-12860809D01*
X14022048Y-12851286D01*
X14012524Y-12832238D01*
X14012524Y-12822714D01*
X14022048Y-12803667D01*
X14041095Y-12794143D01*
X14069667Y-12794143D01*
X14088714Y-12803667D01*
X14164905Y-13003667D02*
X14174428Y-12994143D01*
X14193476Y-12965571D01*
X14203000Y-12946524D01*
X14212524Y-12917952D01*
X14222048Y-12870333D01*
X14222048Y-12832238D01*
X14212524Y-12784619D01*
X14203000Y-12756048D01*
X14193476Y-12737000D01*
X14174428Y-12708428D01*
X14164905Y-12698905D01*
D13*
X9393000Y-13101000D02*
G75*
G03*
X9393000Y-13101000I-35500J0D01*
G01*
D11*
X9688714Y-12991476D02*
X9707762Y-12991476D01*
X9726810Y-13001000D01*
X9736333Y-13010524D01*
X9745857Y-13029571D01*
X9755381Y-13067667D01*
X9755381Y-13115286D01*
X9745857Y-13153381D01*
X9736333Y-13172428D01*
X9726810Y-13181952D01*
X9707762Y-13191476D01*
X9688714Y-13191476D01*
X9669667Y-13181952D01*
X9660143Y-13172428D01*
X9650619Y-13153381D01*
X9641095Y-13115286D01*
X9641095Y-13067667D01*
X9650619Y-13029571D01*
X9660143Y-13010524D01*
X9669667Y-13001000D01*
X9688714Y-12991476D01*
X9841095Y-13172428D02*
X9850619Y-13181952D01*
X9841095Y-13191476D01*
X9831571Y-13181952D01*
X9841095Y-13172428D01*
X9841095Y-13191476D01*
X9917286Y-12991476D02*
X10050619Y-12991476D01*
X9964905Y-13191476D01*
X10231571Y-13191476D02*
X10117286Y-13191476D01*
X10174429Y-13191476D02*
X10174429Y-12991476D01*
X10155381Y-13020048D01*
X10136333Y-13039095D01*
X10117286Y-13048619D01*
X10355381Y-12991476D02*
X10374429Y-12991476D01*
X10393476Y-13001000D01*
X10403000Y-13010524D01*
X10412524Y-13029571D01*
X10422048Y-13067667D01*
X10422048Y-13115286D01*
X10412524Y-13153381D01*
X10403000Y-13172428D01*
X10393476Y-13181952D01*
X10374429Y-13191476D01*
X10355381Y-13191476D01*
X10336333Y-13181952D01*
X10326810Y-13172428D01*
X10317286Y-13153381D01*
X10307762Y-13115286D01*
X10307762Y-13067667D01*
X10317286Y-13029571D01*
X10326810Y-13010524D01*
X10336333Y-13001000D01*
X10355381Y-12991476D01*
X10507762Y-13191476D02*
X10507762Y-13058143D01*
X10507762Y-13077190D02*
X10517286Y-13067667D01*
X10536333Y-13058143D01*
X10564905Y-13058143D01*
X10583952Y-13067667D01*
X10593476Y-13086714D01*
X10593476Y-13191476D01*
X10593476Y-13086714D02*
X10603000Y-13067667D01*
X10622048Y-13058143D01*
X10650619Y-13058143D01*
X10669667Y-13067667D01*
X10679190Y-13086714D01*
X10679190Y-13191476D01*
X10774429Y-13191476D02*
X10774429Y-13058143D01*
X10774429Y-13077190D02*
X10783952Y-13067667D01*
X10803000Y-13058143D01*
X10831571Y-13058143D01*
X10850619Y-13067667D01*
X10860143Y-13086714D01*
X10860143Y-13191476D01*
X10860143Y-13086714D02*
X10869667Y-13067667D01*
X10888714Y-13058143D01*
X10917286Y-13058143D01*
X10936333Y-13067667D01*
X10945857Y-13086714D01*
X10945857Y-13191476D01*
X11336333Y-12981952D02*
X11164905Y-13239095D01*
X11593476Y-12991476D02*
X11612524Y-12991476D01*
X11631571Y-13001000D01*
X11641095Y-13010524D01*
X11650619Y-13029571D01*
X11660143Y-13067667D01*
X11660143Y-13115286D01*
X11650619Y-13153381D01*
X11641095Y-13172428D01*
X11631571Y-13181952D01*
X11612524Y-13191476D01*
X11593476Y-13191476D01*
X11574428Y-13181952D01*
X11564905Y-13172428D01*
X11555381Y-13153381D01*
X11545857Y-13115286D01*
X11545857Y-13067667D01*
X11555381Y-13029571D01*
X11564905Y-13010524D01*
X11574428Y-13001000D01*
X11593476Y-12991476D01*
X11745857Y-13172428D02*
X11755381Y-13181952D01*
X11745857Y-13191476D01*
X11736333Y-13181952D01*
X11745857Y-13172428D01*
X11745857Y-13191476D01*
X11879190Y-12991476D02*
X11898238Y-12991476D01*
X11917286Y-13001000D01*
X11926809Y-13010524D01*
X11936333Y-13029571D01*
X11945857Y-13067667D01*
X11945857Y-13115286D01*
X11936333Y-13153381D01*
X11926809Y-13172428D01*
X11917286Y-13181952D01*
X11898238Y-13191476D01*
X11879190Y-13191476D01*
X11860143Y-13181952D01*
X11850619Y-13172428D01*
X11841095Y-13153381D01*
X11831571Y-13115286D01*
X11831571Y-13067667D01*
X11841095Y-13029571D01*
X11850619Y-13010524D01*
X11860143Y-13001000D01*
X11879190Y-12991476D01*
X12022048Y-13010524D02*
X12031571Y-13001000D01*
X12050619Y-12991476D01*
X12098238Y-12991476D01*
X12117286Y-13001000D01*
X12126809Y-13010524D01*
X12136333Y-13029571D01*
X12136333Y-13048619D01*
X12126809Y-13077190D01*
X12012524Y-13191476D01*
X12136333Y-13191476D01*
X12250619Y-13077190D02*
X12231571Y-13067667D01*
X12222048Y-13058143D01*
X12212524Y-13039095D01*
X12212524Y-13029571D01*
X12222048Y-13010524D01*
X12231571Y-13001000D01*
X12250619Y-12991476D01*
X12288714Y-12991476D01*
X12307762Y-13001000D01*
X12317286Y-13010524D01*
X12326809Y-13029571D01*
X12326809Y-13039095D01*
X12317286Y-13058143D01*
X12307762Y-13067667D01*
X12288714Y-13077190D01*
X12250619Y-13077190D01*
X12231571Y-13086714D01*
X12222048Y-13096238D01*
X12212524Y-13115286D01*
X12212524Y-13153381D01*
X12222048Y-13172428D01*
X12231571Y-13181952D01*
X12250619Y-13191476D01*
X12288714Y-13191476D01*
X12307762Y-13181952D01*
X12317286Y-13172428D01*
X12326809Y-13153381D01*
X12326809Y-13115286D01*
X12317286Y-13096238D01*
X12307762Y-13086714D01*
X12288714Y-13077190D01*
X12450619Y-12991476D02*
X12469667Y-12991476D01*
X12488714Y-13001000D01*
X12498238Y-13010524D01*
X12507762Y-13029571D01*
X12517286Y-13067667D01*
X12517286Y-13115286D01*
X12507762Y-13153381D01*
X12498238Y-13172428D01*
X12488714Y-13181952D01*
X12469667Y-13191476D01*
X12450619Y-13191476D01*
X12431571Y-13181952D01*
X12422048Y-13172428D01*
X12412524Y-13153381D01*
X12403000Y-13115286D01*
X12403000Y-13067667D01*
X12412524Y-13029571D01*
X12422048Y-13010524D01*
X12431571Y-13001000D01*
X12450619Y-12991476D01*
X12593476Y-12991476D02*
X12593476Y-13029571D01*
X12669667Y-12991476D02*
X12669667Y-13029571D01*
X12964905Y-13267667D02*
X12955381Y-13258143D01*
X12936333Y-13229571D01*
X12926809Y-13210524D01*
X12917286Y-13181952D01*
X12907762Y-13134333D01*
X12907762Y-13096238D01*
X12917286Y-13048619D01*
X12926809Y-13020048D01*
X12936333Y-13001000D01*
X12955381Y-12972428D01*
X12964905Y-12962905D01*
X13145857Y-13191476D02*
X13031571Y-13191476D01*
X13088714Y-13191476D02*
X13088714Y-12991476D01*
X13069667Y-13020048D01*
X13050619Y-13039095D01*
X13031571Y-13048619D01*
X13326809Y-12991476D02*
X13231571Y-12991476D01*
X13222048Y-13086714D01*
X13231571Y-13077190D01*
X13250619Y-13067667D01*
X13298238Y-13067667D01*
X13317286Y-13077190D01*
X13326809Y-13086714D01*
X13336333Y-13105762D01*
X13336333Y-13153381D01*
X13326809Y-13172428D01*
X13317286Y-13181952D01*
X13298238Y-13191476D01*
X13250619Y-13191476D01*
X13231571Y-13181952D01*
X13222048Y-13172428D01*
X13574428Y-13191476D02*
X13574428Y-12991476D01*
X13660143Y-13191476D02*
X13660143Y-13086714D01*
X13650619Y-13067667D01*
X13631571Y-13058143D01*
X13603000Y-13058143D01*
X13583952Y-13067667D01*
X13574428Y-13077190D01*
X13783952Y-13191476D02*
X13764905Y-13181952D01*
X13755381Y-13172428D01*
X13745857Y-13153381D01*
X13745857Y-13096238D01*
X13755381Y-13077190D01*
X13764905Y-13067667D01*
X13783952Y-13058143D01*
X13812524Y-13058143D01*
X13831571Y-13067667D01*
X13841095Y-13077190D01*
X13850619Y-13096238D01*
X13850619Y-13153381D01*
X13841095Y-13172428D01*
X13831571Y-13181952D01*
X13812524Y-13191476D01*
X13783952Y-13191476D01*
X13964905Y-13191476D02*
X13945857Y-13181952D01*
X13936333Y-13162905D01*
X13936333Y-12991476D01*
X14117286Y-13181952D02*
X14098238Y-13191476D01*
X14060143Y-13191476D01*
X14041095Y-13181952D01*
X14031571Y-13162905D01*
X14031571Y-13086714D01*
X14041095Y-13067667D01*
X14060143Y-13058143D01*
X14098238Y-13058143D01*
X14117286Y-13067667D01*
X14126809Y-13086714D01*
X14126809Y-13105762D01*
X14031571Y-13124809D01*
X14203000Y-13181952D02*
X14222048Y-13191476D01*
X14260143Y-13191476D01*
X14279190Y-13181952D01*
X14288714Y-13162905D01*
X14288714Y-13153381D01*
X14279190Y-13134333D01*
X14260143Y-13124809D01*
X14231571Y-13124809D01*
X14212524Y-13115286D01*
X14203000Y-13096238D01*
X14203000Y-13086714D01*
X14212524Y-13067667D01*
X14231571Y-13058143D01*
X14260143Y-13058143D01*
X14279190Y-13067667D01*
X14355381Y-13267667D02*
X14364905Y-13258143D01*
X14383952Y-13229571D01*
X14393476Y-13210524D01*
X14403000Y-13181952D01*
X14412524Y-13134333D01*
X14412524Y-13096238D01*
X14403000Y-13048619D01*
X14393476Y-13020048D01*
X14383952Y-13001000D01*
X14364905Y-12972428D01*
X14355381Y-12962905D01*
D14*
X9353000Y-13325000D02*
X9353000Y-13405000D01*
X9313000Y-13365000D02*
X9393000Y-13365000D01*
D11*
X9688714Y-13255476D02*
X9707762Y-13255476D01*
X9726810Y-13265000D01*
X9736333Y-13274524D01*
X9745857Y-13293571D01*
X9755381Y-13331667D01*
X9755381Y-13379286D01*
X9745857Y-13417381D01*
X9736333Y-13436428D01*
X9726810Y-13445952D01*
X9707762Y-13455476D01*
X9688714Y-13455476D01*
X9669667Y-13445952D01*
X9660143Y-13436428D01*
X9650619Y-13417381D01*
X9641095Y-13379286D01*
X9641095Y-13331667D01*
X9650619Y-13293571D01*
X9660143Y-13274524D01*
X9669667Y-13265000D01*
X9688714Y-13255476D01*
X9841095Y-13436428D02*
X9850619Y-13445952D01*
X9841095Y-13455476D01*
X9831571Y-13445952D01*
X9841095Y-13436428D01*
X9841095Y-13455476D01*
X9964905Y-13341190D02*
X9945857Y-13331667D01*
X9936333Y-13322143D01*
X9926810Y-13303095D01*
X9926810Y-13293571D01*
X9936333Y-13274524D01*
X9945857Y-13265000D01*
X9964905Y-13255476D01*
X10003000Y-13255476D01*
X10022048Y-13265000D01*
X10031571Y-13274524D01*
X10041095Y-13293571D01*
X10041095Y-13303095D01*
X10031571Y-13322143D01*
X10022048Y-13331667D01*
X10003000Y-13341190D01*
X9964905Y-13341190D01*
X9945857Y-13350714D01*
X9936333Y-13360238D01*
X9926810Y-13379286D01*
X9926810Y-13417381D01*
X9936333Y-13436428D01*
X9945857Y-13445952D01*
X9964905Y-13455476D01*
X10003000Y-13455476D01*
X10022048Y-13445952D01*
X10031571Y-13436428D01*
X10041095Y-13417381D01*
X10041095Y-13379286D01*
X10031571Y-13360238D01*
X10022048Y-13350714D01*
X10003000Y-13341190D01*
X10164905Y-13255476D02*
X10183952Y-13255476D01*
X10203000Y-13265000D01*
X10212524Y-13274524D01*
X10222048Y-13293571D01*
X10231571Y-13331667D01*
X10231571Y-13379286D01*
X10222048Y-13417381D01*
X10212524Y-13436428D01*
X10203000Y-13445952D01*
X10183952Y-13455476D01*
X10164905Y-13455476D01*
X10145857Y-13445952D01*
X10136333Y-13436428D01*
X10126810Y-13417381D01*
X10117286Y-13379286D01*
X10117286Y-13331667D01*
X10126810Y-13293571D01*
X10136333Y-13274524D01*
X10145857Y-13265000D01*
X10164905Y-13255476D01*
X10355381Y-13255476D02*
X10374429Y-13255476D01*
X10393476Y-13265000D01*
X10403000Y-13274524D01*
X10412524Y-13293571D01*
X10422048Y-13331667D01*
X10422048Y-13379286D01*
X10412524Y-13417381D01*
X10403000Y-13436428D01*
X10393476Y-13445952D01*
X10374429Y-13455476D01*
X10355381Y-13455476D01*
X10336333Y-13445952D01*
X10326810Y-13436428D01*
X10317286Y-13417381D01*
X10307762Y-13379286D01*
X10307762Y-13331667D01*
X10317286Y-13293571D01*
X10326810Y-13274524D01*
X10336333Y-13265000D01*
X10355381Y-13255476D01*
X10507762Y-13455476D02*
X10507762Y-13322143D01*
X10507762Y-13341190D02*
X10517286Y-13331667D01*
X10536333Y-13322143D01*
X10564905Y-13322143D01*
X10583952Y-13331667D01*
X10593476Y-13350714D01*
X10593476Y-13455476D01*
X10593476Y-13350714D02*
X10603000Y-13331667D01*
X10622048Y-13322143D01*
X10650619Y-13322143D01*
X10669667Y-13331667D01*
X10679190Y-13350714D01*
X10679190Y-13455476D01*
X10774429Y-13455476D02*
X10774429Y-13322143D01*
X10774429Y-13341190D02*
X10783952Y-13331667D01*
X10803000Y-13322143D01*
X10831571Y-13322143D01*
X10850619Y-13331667D01*
X10860143Y-13350714D01*
X10860143Y-13455476D01*
X10860143Y-13350714D02*
X10869667Y-13331667D01*
X10888714Y-13322143D01*
X10917286Y-13322143D01*
X10936333Y-13331667D01*
X10945857Y-13350714D01*
X10945857Y-13455476D01*
X11336333Y-13245952D02*
X11164905Y-13503095D01*
X11593476Y-13255476D02*
X11612524Y-13255476D01*
X11631571Y-13265000D01*
X11641095Y-13274524D01*
X11650619Y-13293571D01*
X11660143Y-13331667D01*
X11660143Y-13379286D01*
X11650619Y-13417381D01*
X11641095Y-13436428D01*
X11631571Y-13445952D01*
X11612524Y-13455476D01*
X11593476Y-13455476D01*
X11574428Y-13445952D01*
X11564905Y-13436428D01*
X11555381Y-13417381D01*
X11545857Y-13379286D01*
X11545857Y-13331667D01*
X11555381Y-13293571D01*
X11564905Y-13274524D01*
X11574428Y-13265000D01*
X11593476Y-13255476D01*
X11745857Y-13436428D02*
X11755381Y-13445952D01*
X11745857Y-13455476D01*
X11736333Y-13445952D01*
X11745857Y-13436428D01*
X11745857Y-13455476D01*
X11879190Y-13255476D02*
X11898238Y-13255476D01*
X11917286Y-13265000D01*
X11926809Y-13274524D01*
X11936333Y-13293571D01*
X11945857Y-13331667D01*
X11945857Y-13379286D01*
X11936333Y-13417381D01*
X11926809Y-13436428D01*
X11917286Y-13445952D01*
X11898238Y-13455476D01*
X11879190Y-13455476D01*
X11860143Y-13445952D01*
X11850619Y-13436428D01*
X11841095Y-13417381D01*
X11831571Y-13379286D01*
X11831571Y-13331667D01*
X11841095Y-13293571D01*
X11850619Y-13274524D01*
X11860143Y-13265000D01*
X11879190Y-13255476D01*
X12012524Y-13255476D02*
X12136333Y-13255476D01*
X12069667Y-13331667D01*
X12098238Y-13331667D01*
X12117286Y-13341190D01*
X12126809Y-13350714D01*
X12136333Y-13369762D01*
X12136333Y-13417381D01*
X12126809Y-13436428D01*
X12117286Y-13445952D01*
X12098238Y-13455476D01*
X12041095Y-13455476D01*
X12022048Y-13445952D01*
X12012524Y-13436428D01*
X12326809Y-13455476D02*
X12212524Y-13455476D01*
X12269667Y-13455476D02*
X12269667Y-13255476D01*
X12250619Y-13284048D01*
X12231571Y-13303095D01*
X12212524Y-13312619D01*
X12507762Y-13255476D02*
X12412524Y-13255476D01*
X12403000Y-13350714D01*
X12412524Y-13341190D01*
X12431571Y-13331667D01*
X12479190Y-13331667D01*
X12498238Y-13341190D01*
X12507762Y-13350714D01*
X12517286Y-13369762D01*
X12517286Y-13417381D01*
X12507762Y-13436428D01*
X12498238Y-13445952D01*
X12479190Y-13455476D01*
X12431571Y-13455476D01*
X12412524Y-13445952D01*
X12403000Y-13436428D01*
X12593476Y-13255476D02*
X12593476Y-13293571D01*
X12669667Y-13255476D02*
X12669667Y-13293571D01*
X12964905Y-13531667D02*
X12955381Y-13522143D01*
X12936333Y-13493571D01*
X12926809Y-13474524D01*
X12917286Y-13445952D01*
X12907762Y-13398333D01*
X12907762Y-13360238D01*
X12917286Y-13312619D01*
X12926809Y-13284048D01*
X12936333Y-13265000D01*
X12955381Y-13236428D01*
X12964905Y-13226905D01*
X13145857Y-13455476D02*
X13031571Y-13455476D01*
X13088714Y-13455476D02*
X13088714Y-13255476D01*
X13069667Y-13284048D01*
X13050619Y-13303095D01*
X13031571Y-13312619D01*
X13269667Y-13255476D02*
X13288714Y-13255476D01*
X13307762Y-13265000D01*
X13317286Y-13274524D01*
X13326809Y-13293571D01*
X13336333Y-13331667D01*
X13336333Y-13379286D01*
X13326809Y-13417381D01*
X13317286Y-13436428D01*
X13307762Y-13445952D01*
X13288714Y-13455476D01*
X13269667Y-13455476D01*
X13250619Y-13445952D01*
X13241095Y-13436428D01*
X13231571Y-13417381D01*
X13222048Y-13379286D01*
X13222048Y-13331667D01*
X13231571Y-13293571D01*
X13241095Y-13274524D01*
X13250619Y-13265000D01*
X13269667Y-13255476D01*
X13574428Y-13455476D02*
X13574428Y-13255476D01*
X13660143Y-13455476D02*
X13660143Y-13350714D01*
X13650619Y-13331667D01*
X13631571Y-13322143D01*
X13603000Y-13322143D01*
X13583952Y-13331667D01*
X13574428Y-13341190D01*
X13783952Y-13455476D02*
X13764905Y-13445952D01*
X13755381Y-13436428D01*
X13745857Y-13417381D01*
X13745857Y-13360238D01*
X13755381Y-13341190D01*
X13764905Y-13331667D01*
X13783952Y-13322143D01*
X13812524Y-13322143D01*
X13831571Y-13331667D01*
X13841095Y-13341190D01*
X13850619Y-13360238D01*
X13850619Y-13417381D01*
X13841095Y-13436428D01*
X13831571Y-13445952D01*
X13812524Y-13455476D01*
X13783952Y-13455476D01*
X13964905Y-13455476D02*
X13945857Y-13445952D01*
X13936333Y-13426905D01*
X13936333Y-13255476D01*
X14117286Y-13445952D02*
X14098238Y-13455476D01*
X14060143Y-13455476D01*
X14041095Y-13445952D01*
X14031571Y-13426905D01*
X14031571Y-13350714D01*
X14041095Y-13331667D01*
X14060143Y-13322143D01*
X14098238Y-13322143D01*
X14117286Y-13331667D01*
X14126809Y-13350714D01*
X14126809Y-13369762D01*
X14031571Y-13388809D01*
X14203000Y-13445952D02*
X14222048Y-13455476D01*
X14260143Y-13455476D01*
X14279190Y-13445952D01*
X14288714Y-13426905D01*
X14288714Y-13417381D01*
X14279190Y-13398333D01*
X14260143Y-13388809D01*
X14231571Y-13388809D01*
X14212524Y-13379286D01*
X14203000Y-13360238D01*
X14203000Y-13350714D01*
X14212524Y-13331667D01*
X14231571Y-13322143D01*
X14260143Y-13322143D01*
X14279190Y-13331667D01*
X14355381Y-13531667D02*
X14364905Y-13522143D01*
X14383952Y-13493571D01*
X14393476Y-13474524D01*
X14403000Y-13445952D01*
X14412524Y-13398333D01*
X14412524Y-13360238D01*
X14403000Y-13312619D01*
X14393476Y-13284048D01*
X14383952Y-13265000D01*
X14364905Y-13236428D01*
X14355381Y-13226905D01*
D15*
X9379820Y-13660820D02*
X9379820Y-13597180D01*
X9316180Y-13597180D01*
X9316180Y-13660820D01*
X9379820Y-13660820D01*
D11*
X9688714Y-13519476D02*
X9707762Y-13519476D01*
X9726810Y-13529000D01*
X9736333Y-13538524D01*
X9745857Y-13557571D01*
X9755381Y-13595667D01*
X9755381Y-13643286D01*
X9745857Y-13681381D01*
X9736333Y-13700428D01*
X9726810Y-13709952D01*
X9707762Y-13719476D01*
X9688714Y-13719476D01*
X9669667Y-13709952D01*
X9660143Y-13700428D01*
X9650619Y-13681381D01*
X9641095Y-13643286D01*
X9641095Y-13595667D01*
X9650619Y-13557571D01*
X9660143Y-13538524D01*
X9669667Y-13529000D01*
X9688714Y-13519476D01*
X9841095Y-13700428D02*
X9850619Y-13709952D01*
X9841095Y-13719476D01*
X9831571Y-13709952D01*
X9841095Y-13700428D01*
X9841095Y-13719476D01*
X9945857Y-13719476D02*
X9983952Y-13719476D01*
X10003000Y-13709952D01*
X10012524Y-13700428D01*
X10031571Y-13671857D01*
X10041095Y-13633762D01*
X10041095Y-13557571D01*
X10031571Y-13538524D01*
X10022048Y-13529000D01*
X10003000Y-13519476D01*
X9964905Y-13519476D01*
X9945857Y-13529000D01*
X9936333Y-13538524D01*
X9926810Y-13557571D01*
X9926810Y-13605190D01*
X9936333Y-13624238D01*
X9945857Y-13633762D01*
X9964905Y-13643286D01*
X10003000Y-13643286D01*
X10022048Y-13633762D01*
X10031571Y-13624238D01*
X10041095Y-13605190D01*
X10164905Y-13519476D02*
X10183952Y-13519476D01*
X10203000Y-13529000D01*
X10212524Y-13538524D01*
X10222048Y-13557571D01*
X10231571Y-13595667D01*
X10231571Y-13643286D01*
X10222048Y-13681381D01*
X10212524Y-13700428D01*
X10203000Y-13709952D01*
X10183952Y-13719476D01*
X10164905Y-13719476D01*
X10145857Y-13709952D01*
X10136333Y-13700428D01*
X10126810Y-13681381D01*
X10117286Y-13643286D01*
X10117286Y-13595667D01*
X10126810Y-13557571D01*
X10136333Y-13538524D01*
X10145857Y-13529000D01*
X10164905Y-13519476D01*
X10355381Y-13519476D02*
X10374429Y-13519476D01*
X10393476Y-13529000D01*
X10403000Y-13538524D01*
X10412524Y-13557571D01*
X10422048Y-13595667D01*
X10422048Y-13643286D01*
X10412524Y-13681381D01*
X10403000Y-13700428D01*
X10393476Y-13709952D01*
X10374429Y-13719476D01*
X10355381Y-13719476D01*
X10336333Y-13709952D01*
X10326810Y-13700428D01*
X10317286Y-13681381D01*
X10307762Y-13643286D01*
X10307762Y-13595667D01*
X10317286Y-13557571D01*
X10326810Y-13538524D01*
X10336333Y-13529000D01*
X10355381Y-13519476D01*
X10507762Y-13719476D02*
X10507762Y-13586143D01*
X10507762Y-13605190D02*
X10517286Y-13595667D01*
X10536333Y-13586143D01*
X10564905Y-13586143D01*
X10583952Y-13595667D01*
X10593476Y-13614714D01*
X10593476Y-13719476D01*
X10593476Y-13614714D02*
X10603000Y-13595667D01*
X10622048Y-13586143D01*
X10650619Y-13586143D01*
X10669667Y-13595667D01*
X10679190Y-13614714D01*
X10679190Y-13719476D01*
X10774429Y-13719476D02*
X10774429Y-13586143D01*
X10774429Y-13605190D02*
X10783952Y-13595667D01*
X10803000Y-13586143D01*
X10831571Y-13586143D01*
X10850619Y-13595667D01*
X10860143Y-13614714D01*
X10860143Y-13719476D01*
X10860143Y-13614714D02*
X10869667Y-13595667D01*
X10888714Y-13586143D01*
X10917286Y-13586143D01*
X10936333Y-13595667D01*
X10945857Y-13614714D01*
X10945857Y-13719476D01*
X11336333Y-13509952D02*
X11164905Y-13767095D01*
X11593476Y-13519476D02*
X11612524Y-13519476D01*
X11631571Y-13529000D01*
X11641095Y-13538524D01*
X11650619Y-13557571D01*
X11660143Y-13595667D01*
X11660143Y-13643286D01*
X11650619Y-13681381D01*
X11641095Y-13700428D01*
X11631571Y-13709952D01*
X11612524Y-13719476D01*
X11593476Y-13719476D01*
X11574428Y-13709952D01*
X11564905Y-13700428D01*
X11555381Y-13681381D01*
X11545857Y-13643286D01*
X11545857Y-13595667D01*
X11555381Y-13557571D01*
X11564905Y-13538524D01*
X11574428Y-13529000D01*
X11593476Y-13519476D01*
X11745857Y-13700428D02*
X11755381Y-13709952D01*
X11745857Y-13719476D01*
X11736333Y-13709952D01*
X11745857Y-13700428D01*
X11745857Y-13719476D01*
X11879190Y-13519476D02*
X11898238Y-13519476D01*
X11917286Y-13529000D01*
X11926809Y-13538524D01*
X11936333Y-13557571D01*
X11945857Y-13595667D01*
X11945857Y-13643286D01*
X11936333Y-13681381D01*
X11926809Y-13700428D01*
X11917286Y-13709952D01*
X11898238Y-13719476D01*
X11879190Y-13719476D01*
X11860143Y-13709952D01*
X11850619Y-13700428D01*
X11841095Y-13681381D01*
X11831571Y-13643286D01*
X11831571Y-13595667D01*
X11841095Y-13557571D01*
X11850619Y-13538524D01*
X11860143Y-13529000D01*
X11879190Y-13519476D01*
X12012524Y-13519476D02*
X12136333Y-13519476D01*
X12069667Y-13595667D01*
X12098238Y-13595667D01*
X12117286Y-13605190D01*
X12126809Y-13614714D01*
X12136333Y-13633762D01*
X12136333Y-13681381D01*
X12126809Y-13700428D01*
X12117286Y-13709952D01*
X12098238Y-13719476D01*
X12041095Y-13719476D01*
X12022048Y-13709952D01*
X12012524Y-13700428D01*
X12317286Y-13519476D02*
X12222048Y-13519476D01*
X12212524Y-13614714D01*
X12222048Y-13605190D01*
X12241095Y-13595667D01*
X12288714Y-13595667D01*
X12307762Y-13605190D01*
X12317286Y-13614714D01*
X12326809Y-13633762D01*
X12326809Y-13681381D01*
X12317286Y-13700428D01*
X12307762Y-13709952D01*
X12288714Y-13719476D01*
X12241095Y-13719476D01*
X12222048Y-13709952D01*
X12212524Y-13700428D01*
X12498238Y-13586143D02*
X12498238Y-13719476D01*
X12450619Y-13509952D02*
X12403000Y-13652809D01*
X12526809Y-13652809D01*
X12593476Y-13519476D02*
X12593476Y-13557571D01*
X12669667Y-13519476D02*
X12669667Y-13557571D01*
X12964905Y-13795667D02*
X12955381Y-13786143D01*
X12936333Y-13757571D01*
X12926809Y-13738524D01*
X12917286Y-13709952D01*
X12907762Y-13662333D01*
X12907762Y-13624238D01*
X12917286Y-13576619D01*
X12926809Y-13548048D01*
X12936333Y-13529000D01*
X12955381Y-13500428D01*
X12964905Y-13490905D01*
X13126809Y-13519476D02*
X13088714Y-13519476D01*
X13069667Y-13529000D01*
X13060143Y-13538524D01*
X13041095Y-13567095D01*
X13031571Y-13605190D01*
X13031571Y-13681381D01*
X13041095Y-13700428D01*
X13050619Y-13709952D01*
X13069667Y-13719476D01*
X13107762Y-13719476D01*
X13126809Y-13709952D01*
X13136333Y-13700428D01*
X13145857Y-13681381D01*
X13145857Y-13633762D01*
X13136333Y-13614714D01*
X13126809Y-13605190D01*
X13107762Y-13595667D01*
X13069667Y-13595667D01*
X13050619Y-13605190D01*
X13041095Y-13614714D01*
X13031571Y-13633762D01*
X13383952Y-13719476D02*
X13383952Y-13519476D01*
X13469667Y-13719476D02*
X13469667Y-13614714D01*
X13460143Y-13595667D01*
X13441095Y-13586143D01*
X13412524Y-13586143D01*
X13393476Y-13595667D01*
X13383952Y-13605190D01*
X13593476Y-13719476D02*
X13574428Y-13709952D01*
X13564905Y-13700428D01*
X13555381Y-13681381D01*
X13555381Y-13624238D01*
X13564905Y-13605190D01*
X13574428Y-13595667D01*
X13593476Y-13586143D01*
X13622048Y-13586143D01*
X13641095Y-13595667D01*
X13650619Y-13605190D01*
X13660143Y-13624238D01*
X13660143Y-13681381D01*
X13650619Y-13700428D01*
X13641095Y-13709952D01*
X13622048Y-13719476D01*
X13593476Y-13719476D01*
X13774428Y-13719476D02*
X13755381Y-13709952D01*
X13745857Y-13690905D01*
X13745857Y-13519476D01*
X13926809Y-13709952D02*
X13907762Y-13719476D01*
X13869667Y-13719476D01*
X13850619Y-13709952D01*
X13841095Y-13690905D01*
X13841095Y-13614714D01*
X13850619Y-13595667D01*
X13869667Y-13586143D01*
X13907762Y-13586143D01*
X13926809Y-13595667D01*
X13936333Y-13614714D01*
X13936333Y-13633762D01*
X13841095Y-13652809D01*
X14012524Y-13709952D02*
X14031571Y-13719476D01*
X14069667Y-13719476D01*
X14088714Y-13709952D01*
X14098238Y-13690905D01*
X14098238Y-13681381D01*
X14088714Y-13662333D01*
X14069667Y-13652809D01*
X14041095Y-13652809D01*
X14022048Y-13643286D01*
X14012524Y-13624238D01*
X14012524Y-13614714D01*
X14022048Y-13595667D01*
X14041095Y-13586143D01*
X14069667Y-13586143D01*
X14088714Y-13595667D01*
X14164905Y-13795667D02*
X14174428Y-13786143D01*
X14193476Y-13757571D01*
X14203000Y-13738524D01*
X14212524Y-13709952D01*
X14222048Y-13662333D01*
X14222048Y-13624238D01*
X14212524Y-13576619D01*
X14203000Y-13548048D01*
X14193476Y-13529000D01*
X14174428Y-13500428D01*
X14164905Y-13490905D01*
D16*
X9346000Y-13940000D02*
X9393000Y-13893000D01*
X9346000Y-13846000D01*
X9299000Y-13893000D01*
X9346000Y-13940000D01*
D11*
X9688714Y-13783476D02*
X9707762Y-13783476D01*
X9726810Y-13793000D01*
X9736333Y-13802524D01*
X9745857Y-13821571D01*
X9755381Y-13859667D01*
X9755381Y-13907286D01*
X9745857Y-13945381D01*
X9736333Y-13964428D01*
X9726810Y-13973952D01*
X9707762Y-13983476D01*
X9688714Y-13983476D01*
X9669667Y-13973952D01*
X9660143Y-13964428D01*
X9650619Y-13945381D01*
X9641095Y-13907286D01*
X9641095Y-13859667D01*
X9650619Y-13821571D01*
X9660143Y-13802524D01*
X9669667Y-13793000D01*
X9688714Y-13783476D01*
X9841095Y-13964428D02*
X9850619Y-13973952D01*
X9841095Y-13983476D01*
X9831571Y-13973952D01*
X9841095Y-13964428D01*
X9841095Y-13983476D01*
X9945857Y-13983476D02*
X9983952Y-13983476D01*
X10003000Y-13973952D01*
X10012524Y-13964428D01*
X10031571Y-13935857D01*
X10041095Y-13897762D01*
X10041095Y-13821571D01*
X10031571Y-13802524D01*
X10022048Y-13793000D01*
X10003000Y-13783476D01*
X9964905Y-13783476D01*
X9945857Y-13793000D01*
X9936333Y-13802524D01*
X9926810Y-13821571D01*
X9926810Y-13869190D01*
X9936333Y-13888238D01*
X9945857Y-13897762D01*
X9964905Y-13907286D01*
X10003000Y-13907286D01*
X10022048Y-13897762D01*
X10031571Y-13888238D01*
X10041095Y-13869190D01*
X10212524Y-13850143D02*
X10212524Y-13983476D01*
X10164905Y-13773952D02*
X10117286Y-13916809D01*
X10241095Y-13916809D01*
X10355381Y-13783476D02*
X10374429Y-13783476D01*
X10393476Y-13793000D01*
X10403000Y-13802524D01*
X10412524Y-13821571D01*
X10422048Y-13859667D01*
X10422048Y-13907286D01*
X10412524Y-13945381D01*
X10403000Y-13964428D01*
X10393476Y-13973952D01*
X10374429Y-13983476D01*
X10355381Y-13983476D01*
X10336333Y-13973952D01*
X10326810Y-13964428D01*
X10317286Y-13945381D01*
X10307762Y-13907286D01*
X10307762Y-13859667D01*
X10317286Y-13821571D01*
X10326810Y-13802524D01*
X10336333Y-13793000D01*
X10355381Y-13783476D01*
X10507762Y-13983476D02*
X10507762Y-13850143D01*
X10507762Y-13869190D02*
X10517286Y-13859667D01*
X10536333Y-13850143D01*
X10564905Y-13850143D01*
X10583952Y-13859667D01*
X10593476Y-13878714D01*
X10593476Y-13983476D01*
X10593476Y-13878714D02*
X10603000Y-13859667D01*
X10622048Y-13850143D01*
X10650619Y-13850143D01*
X10669667Y-13859667D01*
X10679190Y-13878714D01*
X10679190Y-13983476D01*
X10774429Y-13983476D02*
X10774429Y-13850143D01*
X10774429Y-13869190D02*
X10783952Y-13859667D01*
X10803000Y-13850143D01*
X10831571Y-13850143D01*
X10850619Y-13859667D01*
X10860143Y-13878714D01*
X10860143Y-13983476D01*
X10860143Y-13878714D02*
X10869667Y-13859667D01*
X10888714Y-13850143D01*
X10917286Y-13850143D01*
X10936333Y-13859667D01*
X10945857Y-13878714D01*
X10945857Y-13983476D01*
X11336333Y-13773952D02*
X11164905Y-14031095D01*
X11593476Y-13783476D02*
X11612524Y-13783476D01*
X11631571Y-13793000D01*
X11641095Y-13802524D01*
X11650619Y-13821571D01*
X11660143Y-13859667D01*
X11660143Y-13907286D01*
X11650619Y-13945381D01*
X11641095Y-13964428D01*
X11631571Y-13973952D01*
X11612524Y-13983476D01*
X11593476Y-13983476D01*
X11574428Y-13973952D01*
X11564905Y-13964428D01*
X11555381Y-13945381D01*
X11545857Y-13907286D01*
X11545857Y-13859667D01*
X11555381Y-13821571D01*
X11564905Y-13802524D01*
X11574428Y-13793000D01*
X11593476Y-13783476D01*
X11745857Y-13964428D02*
X11755381Y-13973952D01*
X11745857Y-13983476D01*
X11736333Y-13973952D01*
X11745857Y-13964428D01*
X11745857Y-13983476D01*
X11879190Y-13783476D02*
X11898238Y-13783476D01*
X11917286Y-13793000D01*
X11926809Y-13802524D01*
X11936333Y-13821571D01*
X11945857Y-13859667D01*
X11945857Y-13907286D01*
X11936333Y-13945381D01*
X11926809Y-13964428D01*
X11917286Y-13973952D01*
X11898238Y-13983476D01*
X11879190Y-13983476D01*
X11860143Y-13973952D01*
X11850619Y-13964428D01*
X11841095Y-13945381D01*
X11831571Y-13907286D01*
X11831571Y-13859667D01*
X11841095Y-13821571D01*
X11850619Y-13802524D01*
X11860143Y-13793000D01*
X11879190Y-13783476D01*
X12012524Y-13783476D02*
X12136333Y-13783476D01*
X12069667Y-13859667D01*
X12098238Y-13859667D01*
X12117286Y-13869190D01*
X12126809Y-13878714D01*
X12136333Y-13897762D01*
X12136333Y-13945381D01*
X12126809Y-13964428D01*
X12117286Y-13973952D01*
X12098238Y-13983476D01*
X12041095Y-13983476D01*
X12022048Y-13973952D01*
X12012524Y-13964428D01*
X12203000Y-13783476D02*
X12336333Y-13783476D01*
X12250619Y-13983476D01*
X12450619Y-13783476D02*
X12469667Y-13783476D01*
X12488714Y-13793000D01*
X12498238Y-13802524D01*
X12507762Y-13821571D01*
X12517286Y-13859667D01*
X12517286Y-13907286D01*
X12507762Y-13945381D01*
X12498238Y-13964428D01*
X12488714Y-13973952D01*
X12469667Y-13983476D01*
X12450619Y-13983476D01*
X12431571Y-13973952D01*
X12422048Y-13964428D01*
X12412524Y-13945381D01*
X12403000Y-13907286D01*
X12403000Y-13859667D01*
X12412524Y-13821571D01*
X12422048Y-13802524D01*
X12431571Y-13793000D01*
X12450619Y-13783476D01*
X12593476Y-13783476D02*
X12593476Y-13821571D01*
X12669667Y-13783476D02*
X12669667Y-13821571D01*
X12964905Y-14059667D02*
X12955381Y-14050143D01*
X12936333Y-14021571D01*
X12926809Y-14002524D01*
X12917286Y-13973952D01*
X12907762Y-13926333D01*
X12907762Y-13888238D01*
X12917286Y-13840619D01*
X12926809Y-13812048D01*
X12936333Y-13793000D01*
X12955381Y-13764428D01*
X12964905Y-13754905D01*
X13022048Y-13783476D02*
X13145857Y-13783476D01*
X13079190Y-13859667D01*
X13107762Y-13859667D01*
X13126809Y-13869190D01*
X13136333Y-13878714D01*
X13145857Y-13897762D01*
X13145857Y-13945381D01*
X13136333Y-13964428D01*
X13126809Y-13973952D01*
X13107762Y-13983476D01*
X13050619Y-13983476D01*
X13031571Y-13973952D01*
X13022048Y-13964428D01*
X13383952Y-13983476D02*
X13383952Y-13783476D01*
X13469667Y-13983476D02*
X13469667Y-13878714D01*
X13460143Y-13859667D01*
X13441095Y-13850143D01*
X13412524Y-13850143D01*
X13393476Y-13859667D01*
X13383952Y-13869190D01*
X13593476Y-13983476D02*
X13574428Y-13973952D01*
X13564905Y-13964428D01*
X13555381Y-13945381D01*
X13555381Y-13888238D01*
X13564905Y-13869190D01*
X13574428Y-13859667D01*
X13593476Y-13850143D01*
X13622048Y-13850143D01*
X13641095Y-13859667D01*
X13650619Y-13869190D01*
X13660143Y-13888238D01*
X13660143Y-13945381D01*
X13650619Y-13964428D01*
X13641095Y-13973952D01*
X13622048Y-13983476D01*
X13593476Y-13983476D01*
X13774428Y-13983476D02*
X13755381Y-13973952D01*
X13745857Y-13954905D01*
X13745857Y-13783476D01*
X13926809Y-13973952D02*
X13907762Y-13983476D01*
X13869667Y-13983476D01*
X13850619Y-13973952D01*
X13841095Y-13954905D01*
X13841095Y-13878714D01*
X13850619Y-13859667D01*
X13869667Y-13850143D01*
X13907762Y-13850143D01*
X13926809Y-13859667D01*
X13936333Y-13878714D01*
X13936333Y-13897762D01*
X13841095Y-13916809D01*
X14012524Y-13973952D02*
X14031571Y-13983476D01*
X14069667Y-13983476D01*
X14088714Y-13973952D01*
X14098238Y-13954905D01*
X14098238Y-13945381D01*
X14088714Y-13926333D01*
X14069667Y-13916809D01*
X14041095Y-13916809D01*
X14022048Y-13907286D01*
X14012524Y-13888238D01*
X14012524Y-13878714D01*
X14022048Y-13859667D01*
X14041095Y-13850143D01*
X14069667Y-13850143D01*
X14088714Y-13859667D01*
X14164905Y-14059667D02*
X14174428Y-14050143D01*
X14193476Y-14021571D01*
X14203000Y-14002524D01*
X14212524Y-13973952D01*
X14222048Y-13926333D01*
X14222048Y-13888238D01*
X14212524Y-13840619D01*
X14203000Y-13812048D01*
X14193476Y-13793000D01*
X14174428Y-13764428D01*
X14164905Y-13754905D01*
D17*
X9291000Y-14106000D02*
X9393000Y-14208000D01*
X9393000Y-14106000D02*
X9291000Y-14208000D01*
X9393000Y-14157000D02*
G75*
G03*
X9393000Y-14157000I-51000J0D01*
G01*
D11*
X9755381Y-14247476D02*
X9641095Y-14247476D01*
X9698238Y-14247476D02*
X9698238Y-14047476D01*
X9679190Y-14076048D01*
X9660143Y-14095095D01*
X9641095Y-14104619D01*
X9841095Y-14228428D02*
X9850619Y-14237952D01*
X9841095Y-14247476D01*
X9831571Y-14237952D01*
X9841095Y-14228428D01*
X9841095Y-14247476D01*
X9974429Y-14047476D02*
X9993476Y-14047476D01*
X10012524Y-14057000D01*
X10022048Y-14066524D01*
X10031571Y-14085571D01*
X10041095Y-14123667D01*
X10041095Y-14171286D01*
X10031571Y-14209381D01*
X10022048Y-14228428D01*
X10012524Y-14237952D01*
X9993476Y-14247476D01*
X9974429Y-14247476D01*
X9955381Y-14237952D01*
X9945857Y-14228428D01*
X9936333Y-14209381D01*
X9926810Y-14171286D01*
X9926810Y-14123667D01*
X9936333Y-14085571D01*
X9945857Y-14066524D01*
X9955381Y-14057000D01*
X9974429Y-14047476D01*
X10117286Y-14066524D02*
X10126810Y-14057000D01*
X10145857Y-14047476D01*
X10193476Y-14047476D01*
X10212524Y-14057000D01*
X10222048Y-14066524D01*
X10231571Y-14085571D01*
X10231571Y-14104619D01*
X10222048Y-14133190D01*
X10107762Y-14247476D01*
X10231571Y-14247476D01*
X10355381Y-14047476D02*
X10374429Y-14047476D01*
X10393476Y-14057000D01*
X10403000Y-14066524D01*
X10412524Y-14085571D01*
X10422048Y-14123667D01*
X10422048Y-14171286D01*
X10412524Y-14209381D01*
X10403000Y-14228428D01*
X10393476Y-14237952D01*
X10374429Y-14247476D01*
X10355381Y-14247476D01*
X10336333Y-14237952D01*
X10326810Y-14228428D01*
X10317286Y-14209381D01*
X10307762Y-14171286D01*
X10307762Y-14123667D01*
X10317286Y-14085571D01*
X10326810Y-14066524D01*
X10336333Y-14057000D01*
X10355381Y-14047476D01*
X10507762Y-14247476D02*
X10507762Y-14114143D01*
X10507762Y-14133190D02*
X10517286Y-14123667D01*
X10536333Y-14114143D01*
X10564905Y-14114143D01*
X10583952Y-14123667D01*
X10593476Y-14142714D01*
X10593476Y-14247476D01*
X10593476Y-14142714D02*
X10603000Y-14123667D01*
X10622048Y-14114143D01*
X10650619Y-14114143D01*
X10669667Y-14123667D01*
X10679190Y-14142714D01*
X10679190Y-14247476D01*
X10774429Y-14247476D02*
X10774429Y-14114143D01*
X10774429Y-14133190D02*
X10783952Y-14123667D01*
X10803000Y-14114143D01*
X10831571Y-14114143D01*
X10850619Y-14123667D01*
X10860143Y-14142714D01*
X10860143Y-14247476D01*
X10860143Y-14142714D02*
X10869667Y-14123667D01*
X10888714Y-14114143D01*
X10917286Y-14114143D01*
X10936333Y-14123667D01*
X10945857Y-14142714D01*
X10945857Y-14247476D01*
X11336333Y-14037952D02*
X11164905Y-14295095D01*
X11593476Y-14047476D02*
X11612524Y-14047476D01*
X11631571Y-14057000D01*
X11641095Y-14066524D01*
X11650619Y-14085571D01*
X11660143Y-14123667D01*
X11660143Y-14171286D01*
X11650619Y-14209381D01*
X11641095Y-14228428D01*
X11631571Y-14237952D01*
X11612524Y-14247476D01*
X11593476Y-14247476D01*
X11574428Y-14237952D01*
X11564905Y-14228428D01*
X11555381Y-14209381D01*
X11545857Y-14171286D01*
X11545857Y-14123667D01*
X11555381Y-14085571D01*
X11564905Y-14066524D01*
X11574428Y-14057000D01*
X11593476Y-14047476D01*
X11745857Y-14228428D02*
X11755381Y-14237952D01*
X11745857Y-14247476D01*
X11736333Y-14237952D01*
X11745857Y-14228428D01*
X11745857Y-14247476D01*
X11879190Y-14047476D02*
X11898238Y-14047476D01*
X11917286Y-14057000D01*
X11926809Y-14066524D01*
X11936333Y-14085571D01*
X11945857Y-14123667D01*
X11945857Y-14171286D01*
X11936333Y-14209381D01*
X11926809Y-14228428D01*
X11917286Y-14237952D01*
X11898238Y-14247476D01*
X11879190Y-14247476D01*
X11860143Y-14237952D01*
X11850619Y-14228428D01*
X11841095Y-14209381D01*
X11831571Y-14171286D01*
X11831571Y-14123667D01*
X11841095Y-14085571D01*
X11850619Y-14066524D01*
X11860143Y-14057000D01*
X11879190Y-14047476D01*
X12117286Y-14114143D02*
X12117286Y-14247476D01*
X12069667Y-14037952D02*
X12022048Y-14180809D01*
X12145857Y-14180809D01*
X12260143Y-14047476D02*
X12279190Y-14047476D01*
X12298238Y-14057000D01*
X12307762Y-14066524D01*
X12317286Y-14085571D01*
X12326809Y-14123667D01*
X12326809Y-14171286D01*
X12317286Y-14209381D01*
X12307762Y-14228428D01*
X12298238Y-14237952D01*
X12279190Y-14247476D01*
X12260143Y-14247476D01*
X12241095Y-14237952D01*
X12231571Y-14228428D01*
X12222048Y-14209381D01*
X12212524Y-14171286D01*
X12212524Y-14123667D01*
X12222048Y-14085571D01*
X12231571Y-14066524D01*
X12241095Y-14057000D01*
X12260143Y-14047476D01*
X12403000Y-14066524D02*
X12412524Y-14057000D01*
X12431571Y-14047476D01*
X12479190Y-14047476D01*
X12498238Y-14057000D01*
X12507762Y-14066524D01*
X12517286Y-14085571D01*
X12517286Y-14104619D01*
X12507762Y-14133190D01*
X12393476Y-14247476D01*
X12517286Y-14247476D01*
X12593476Y-14047476D02*
X12593476Y-14085571D01*
X12669667Y-14047476D02*
X12669667Y-14085571D01*
X12964905Y-14323667D02*
X12955381Y-14314143D01*
X12936333Y-14285571D01*
X12926809Y-14266524D01*
X12917286Y-14237952D01*
X12907762Y-14190333D01*
X12907762Y-14152238D01*
X12917286Y-14104619D01*
X12926809Y-14076048D01*
X12936333Y-14057000D01*
X12955381Y-14028428D01*
X12964905Y-14018905D01*
X13126809Y-14114143D02*
X13126809Y-14247476D01*
X13079190Y-14037952D02*
X13031571Y-14180809D01*
X13155381Y-14180809D01*
X13383952Y-14247476D02*
X13383952Y-14047476D01*
X13469667Y-14247476D02*
X13469667Y-14142714D01*
X13460143Y-14123667D01*
X13441095Y-14114143D01*
X13412524Y-14114143D01*
X13393476Y-14123667D01*
X13383952Y-14133190D01*
X13593476Y-14247476D02*
X13574428Y-14237952D01*
X13564905Y-14228428D01*
X13555381Y-14209381D01*
X13555381Y-14152238D01*
X13564905Y-14133190D01*
X13574428Y-14123667D01*
X13593476Y-14114143D01*
X13622048Y-14114143D01*
X13641095Y-14123667D01*
X13650619Y-14133190D01*
X13660143Y-14152238D01*
X13660143Y-14209381D01*
X13650619Y-14228428D01*
X13641095Y-14237952D01*
X13622048Y-14247476D01*
X13593476Y-14247476D01*
X13774428Y-14247476D02*
X13755381Y-14237952D01*
X13745857Y-14218905D01*
X13745857Y-14047476D01*
X13926809Y-14237952D02*
X13907762Y-14247476D01*
X13869667Y-14247476D01*
X13850619Y-14237952D01*
X13841095Y-14218905D01*
X13841095Y-14142714D01*
X13850619Y-14123667D01*
X13869667Y-14114143D01*
X13907762Y-14114143D01*
X13926809Y-14123667D01*
X13936333Y-14142714D01*
X13936333Y-14161762D01*
X13841095Y-14180809D01*
X14012524Y-14237952D02*
X14031571Y-14247476D01*
X14069667Y-14247476D01*
X14088714Y-14237952D01*
X14098238Y-14218905D01*
X14098238Y-14209381D01*
X14088714Y-14190333D01*
X14069667Y-14180809D01*
X14041095Y-14180809D01*
X14022048Y-14171286D01*
X14012524Y-14152238D01*
X14012524Y-14142714D01*
X14022048Y-14123667D01*
X14041095Y-14114143D01*
X14069667Y-14114143D01*
X14088714Y-14123667D01*
X14164905Y-14323667D02*
X14174428Y-14314143D01*
X14193476Y-14285571D01*
X14203000Y-14266524D01*
X14212524Y-14237952D01*
X14222048Y-14190333D01*
X14222048Y-14152238D01*
X14212524Y-14104619D01*
X14203000Y-14076048D01*
X14193476Y-14057000D01*
X14174428Y-14028428D01*
X14164905Y-14018905D01*
D18*
X9286000Y-14367500D02*
X9393000Y-14474500D01*
X9393000Y-14367500D02*
X9286000Y-14474500D01*
X9339500Y-14367500D02*
X9339500Y-14474500D01*
X9286000Y-14421000D02*
X9393000Y-14421000D01*
D11*
X9755381Y-14511476D02*
X9641095Y-14511476D01*
X9698238Y-14511476D02*
X9698238Y-14311476D01*
X9679190Y-14340048D01*
X9660143Y-14359095D01*
X9641095Y-14368619D01*
X9841095Y-14492428D02*
X9850619Y-14501952D01*
X9841095Y-14511476D01*
X9831571Y-14501952D01*
X9841095Y-14492428D01*
X9841095Y-14511476D01*
X9974429Y-14311476D02*
X9993476Y-14311476D01*
X10012524Y-14321000D01*
X10022048Y-14330524D01*
X10031571Y-14349571D01*
X10041095Y-14387667D01*
X10041095Y-14435286D01*
X10031571Y-14473381D01*
X10022048Y-14492428D01*
X10012524Y-14501952D01*
X9993476Y-14511476D01*
X9974429Y-14511476D01*
X9955381Y-14501952D01*
X9945857Y-14492428D01*
X9936333Y-14473381D01*
X9926810Y-14435286D01*
X9926810Y-14387667D01*
X9936333Y-14349571D01*
X9945857Y-14330524D01*
X9955381Y-14321000D01*
X9974429Y-14311476D01*
X10107762Y-14311476D02*
X10241095Y-14311476D01*
X10155381Y-14511476D01*
X10355381Y-14311476D02*
X10374429Y-14311476D01*
X10393476Y-14321000D01*
X10403000Y-14330524D01*
X10412524Y-14349571D01*
X10422048Y-14387667D01*
X10422048Y-14435286D01*
X10412524Y-14473381D01*
X10403000Y-14492428D01*
X10393476Y-14501952D01*
X10374429Y-14511476D01*
X10355381Y-14511476D01*
X10336333Y-14501952D01*
X10326810Y-14492428D01*
X10317286Y-14473381D01*
X10307762Y-14435286D01*
X10307762Y-14387667D01*
X10317286Y-14349571D01*
X10326810Y-14330524D01*
X10336333Y-14321000D01*
X10355381Y-14311476D01*
X10507762Y-14511476D02*
X10507762Y-14378143D01*
X10507762Y-14397190D02*
X10517286Y-14387667D01*
X10536333Y-14378143D01*
X10564905Y-14378143D01*
X10583952Y-14387667D01*
X10593476Y-14406714D01*
X10593476Y-14511476D01*
X10593476Y-14406714D02*
X10603000Y-14387667D01*
X10622048Y-14378143D01*
X10650619Y-14378143D01*
X10669667Y-14387667D01*
X10679190Y-14406714D01*
X10679190Y-14511476D01*
X10774429Y-14511476D02*
X10774429Y-14378143D01*
X10774429Y-14397190D02*
X10783952Y-14387667D01*
X10803000Y-14378143D01*
X10831571Y-14378143D01*
X10850619Y-14387667D01*
X10860143Y-14406714D01*
X10860143Y-14511476D01*
X10860143Y-14406714D02*
X10869667Y-14387667D01*
X10888714Y-14378143D01*
X10917286Y-14378143D01*
X10936333Y-14387667D01*
X10945857Y-14406714D01*
X10945857Y-14511476D01*
X11336333Y-14301952D02*
X11164905Y-14559095D01*
X11593476Y-14311476D02*
X11612524Y-14311476D01*
X11631571Y-14321000D01*
X11641095Y-14330524D01*
X11650619Y-14349571D01*
X11660143Y-14387667D01*
X11660143Y-14435286D01*
X11650619Y-14473381D01*
X11641095Y-14492428D01*
X11631571Y-14501952D01*
X11612524Y-14511476D01*
X11593476Y-14511476D01*
X11574428Y-14501952D01*
X11564905Y-14492428D01*
X11555381Y-14473381D01*
X11545857Y-14435286D01*
X11545857Y-14387667D01*
X11555381Y-14349571D01*
X11564905Y-14330524D01*
X11574428Y-14321000D01*
X11593476Y-14311476D01*
X11745857Y-14492428D02*
X11755381Y-14501952D01*
X11745857Y-14511476D01*
X11736333Y-14501952D01*
X11745857Y-14492428D01*
X11745857Y-14511476D01*
X11879190Y-14311476D02*
X11898238Y-14311476D01*
X11917286Y-14321000D01*
X11926809Y-14330524D01*
X11936333Y-14349571D01*
X11945857Y-14387667D01*
X11945857Y-14435286D01*
X11936333Y-14473381D01*
X11926809Y-14492428D01*
X11917286Y-14501952D01*
X11898238Y-14511476D01*
X11879190Y-14511476D01*
X11860143Y-14501952D01*
X11850619Y-14492428D01*
X11841095Y-14473381D01*
X11831571Y-14435286D01*
X11831571Y-14387667D01*
X11841095Y-14349571D01*
X11850619Y-14330524D01*
X11860143Y-14321000D01*
X11879190Y-14311476D01*
X12117286Y-14378143D02*
X12117286Y-14511476D01*
X12069667Y-14301952D02*
X12022048Y-14444809D01*
X12145857Y-14444809D01*
X12212524Y-14330524D02*
X12222048Y-14321000D01*
X12241095Y-14311476D01*
X12288714Y-14311476D01*
X12307762Y-14321000D01*
X12317286Y-14330524D01*
X12326809Y-14349571D01*
X12326809Y-14368619D01*
X12317286Y-14397190D01*
X12203000Y-14511476D01*
X12326809Y-14511476D01*
X12517286Y-14511476D02*
X12403000Y-14511476D01*
X12460143Y-14511476D02*
X12460143Y-14311476D01*
X12441095Y-14340048D01*
X12422048Y-14359095D01*
X12403000Y-14368619D01*
X12593476Y-14311476D02*
X12593476Y-14349571D01*
X12669667Y-14311476D02*
X12669667Y-14349571D01*
X12964905Y-14587667D02*
X12955381Y-14578143D01*
X12936333Y-14549571D01*
X12926809Y-14530524D01*
X12917286Y-14501952D01*
X12907762Y-14454333D01*
X12907762Y-14416238D01*
X12917286Y-14368619D01*
X12926809Y-14340048D01*
X12936333Y-14321000D01*
X12955381Y-14292428D01*
X12964905Y-14282905D01*
X13126809Y-14311476D02*
X13088714Y-14311476D01*
X13069667Y-14321000D01*
X13060143Y-14330524D01*
X13041095Y-14359095D01*
X13031571Y-14397190D01*
X13031571Y-14473381D01*
X13041095Y-14492428D01*
X13050619Y-14501952D01*
X13069667Y-14511476D01*
X13107762Y-14511476D01*
X13126809Y-14501952D01*
X13136333Y-14492428D01*
X13145857Y-14473381D01*
X13145857Y-14425762D01*
X13136333Y-14406714D01*
X13126809Y-14397190D01*
X13107762Y-14387667D01*
X13069667Y-14387667D01*
X13050619Y-14397190D01*
X13041095Y-14406714D01*
X13031571Y-14425762D01*
X13383952Y-14511476D02*
X13383952Y-14311476D01*
X13469667Y-14511476D02*
X13469667Y-14406714D01*
X13460143Y-14387667D01*
X13441095Y-14378143D01*
X13412524Y-14378143D01*
X13393476Y-14387667D01*
X13383952Y-14397190D01*
X13593476Y-14511476D02*
X13574428Y-14501952D01*
X13564905Y-14492428D01*
X13555381Y-14473381D01*
X13555381Y-14416238D01*
X13564905Y-14397190D01*
X13574428Y-14387667D01*
X13593476Y-14378143D01*
X13622048Y-14378143D01*
X13641095Y-14387667D01*
X13650619Y-14397190D01*
X13660143Y-14416238D01*
X13660143Y-14473381D01*
X13650619Y-14492428D01*
X13641095Y-14501952D01*
X13622048Y-14511476D01*
X13593476Y-14511476D01*
X13774428Y-14511476D02*
X13755381Y-14501952D01*
X13745857Y-14482905D01*
X13745857Y-14311476D01*
X13926809Y-14501952D02*
X13907762Y-14511476D01*
X13869667Y-14511476D01*
X13850619Y-14501952D01*
X13841095Y-14482905D01*
X13841095Y-14406714D01*
X13850619Y-14387667D01*
X13869667Y-14378143D01*
X13907762Y-14378143D01*
X13926809Y-14387667D01*
X13936333Y-14406714D01*
X13936333Y-14425762D01*
X13841095Y-14444809D01*
X14012524Y-14501952D02*
X14031571Y-14511476D01*
X14069667Y-14511476D01*
X14088714Y-14501952D01*
X14098238Y-14482905D01*
X14098238Y-14473381D01*
X14088714Y-14454333D01*
X14069667Y-14444809D01*
X14041095Y-14444809D01*
X14022048Y-14435286D01*
X14012524Y-14416238D01*
X14012524Y-14406714D01*
X14022048Y-14387667D01*
X14041095Y-14378143D01*
X14069667Y-14378143D01*
X14088714Y-14387667D01*
X14164905Y-14587667D02*
X14174428Y-14578143D01*
X14193476Y-14549571D01*
X14203000Y-14530524D01*
X14212524Y-14501952D01*
X14222048Y-14454333D01*
X14222048Y-14416238D01*
X14212524Y-14368619D01*
X14203000Y-14340048D01*
X14193476Y-14321000D01*
X14174428Y-14292428D01*
X14164905Y-14282905D01*
X9193000Y-14585000D02*
X9393000Y-14785000D01*
X9393000Y-14585000D02*
X9193000Y-14785000D01*
X9363711Y-14755711D02*
X9363711Y-14614289D01*
X9222289Y-14614289D01*
X9222289Y-14755711D01*
X9363711Y-14755711D01*
X9631571Y-14575476D02*
X9755381Y-14575476D01*
X9688714Y-14651667D01*
X9717286Y-14651667D01*
X9736333Y-14661190D01*
X9745857Y-14670714D01*
X9755381Y-14689762D01*
X9755381Y-14737381D01*
X9745857Y-14756428D01*
X9736333Y-14765952D01*
X9717286Y-14775476D01*
X9660143Y-14775476D01*
X9641095Y-14765952D01*
X9631571Y-14756428D01*
X9841095Y-14756428D02*
X9850619Y-14765952D01*
X9841095Y-14775476D01*
X9831571Y-14765952D01*
X9841095Y-14756428D01*
X9841095Y-14775476D01*
X9926810Y-14594524D02*
X9936333Y-14585000D01*
X9955381Y-14575476D01*
X10003000Y-14575476D01*
X10022048Y-14585000D01*
X10031571Y-14594524D01*
X10041095Y-14613571D01*
X10041095Y-14632619D01*
X10031571Y-14661190D01*
X9917286Y-14775476D01*
X10041095Y-14775476D01*
X10164905Y-14575476D02*
X10183952Y-14575476D01*
X10203000Y-14585000D01*
X10212524Y-14594524D01*
X10222048Y-14613571D01*
X10231571Y-14651667D01*
X10231571Y-14699286D01*
X10222048Y-14737381D01*
X10212524Y-14756428D01*
X10203000Y-14765952D01*
X10183952Y-14775476D01*
X10164905Y-14775476D01*
X10145857Y-14765952D01*
X10136333Y-14756428D01*
X10126810Y-14737381D01*
X10117286Y-14699286D01*
X10117286Y-14651667D01*
X10126810Y-14613571D01*
X10136333Y-14594524D01*
X10145857Y-14585000D01*
X10164905Y-14575476D01*
X10355381Y-14575476D02*
X10374429Y-14575476D01*
X10393476Y-14585000D01*
X10403000Y-14594524D01*
X10412524Y-14613571D01*
X10422048Y-14651667D01*
X10422048Y-14699286D01*
X10412524Y-14737381D01*
X10403000Y-14756428D01*
X10393476Y-14765952D01*
X10374429Y-14775476D01*
X10355381Y-14775476D01*
X10336333Y-14765952D01*
X10326810Y-14756428D01*
X10317286Y-14737381D01*
X10307762Y-14699286D01*
X10307762Y-14651667D01*
X10317286Y-14613571D01*
X10326810Y-14594524D01*
X10336333Y-14585000D01*
X10355381Y-14575476D01*
X10507762Y-14775476D02*
X10507762Y-14642143D01*
X10507762Y-14661190D02*
X10517286Y-14651667D01*
X10536333Y-14642143D01*
X10564905Y-14642143D01*
X10583952Y-14651667D01*
X10593476Y-14670714D01*
X10593476Y-14775476D01*
X10593476Y-14670714D02*
X10603000Y-14651667D01*
X10622048Y-14642143D01*
X10650619Y-14642143D01*
X10669667Y-14651667D01*
X10679190Y-14670714D01*
X10679190Y-14775476D01*
X10774429Y-14775476D02*
X10774429Y-14642143D01*
X10774429Y-14661190D02*
X10783952Y-14651667D01*
X10803000Y-14642143D01*
X10831571Y-14642143D01*
X10850619Y-14651667D01*
X10860143Y-14670714D01*
X10860143Y-14775476D01*
X10860143Y-14670714D02*
X10869667Y-14651667D01*
X10888714Y-14642143D01*
X10917286Y-14642143D01*
X10936333Y-14651667D01*
X10945857Y-14670714D01*
X10945857Y-14775476D01*
X11336333Y-14565952D02*
X11164905Y-14823095D01*
X11593476Y-14575476D02*
X11612524Y-14575476D01*
X11631571Y-14585000D01*
X11641095Y-14594524D01*
X11650619Y-14613571D01*
X11660143Y-14651667D01*
X11660143Y-14699286D01*
X11650619Y-14737381D01*
X11641095Y-14756428D01*
X11631571Y-14765952D01*
X11612524Y-14775476D01*
X11593476Y-14775476D01*
X11574428Y-14765952D01*
X11564905Y-14756428D01*
X11555381Y-14737381D01*
X11545857Y-14699286D01*
X11545857Y-14651667D01*
X11555381Y-14613571D01*
X11564905Y-14594524D01*
X11574428Y-14585000D01*
X11593476Y-14575476D01*
X11745857Y-14756428D02*
X11755381Y-14765952D01*
X11745857Y-14775476D01*
X11736333Y-14765952D01*
X11745857Y-14756428D01*
X11745857Y-14775476D01*
X11945857Y-14775476D02*
X11831571Y-14775476D01*
X11888714Y-14775476D02*
X11888714Y-14575476D01*
X11869667Y-14604048D01*
X11850619Y-14623095D01*
X11831571Y-14632619D01*
X12022048Y-14594524D02*
X12031571Y-14585000D01*
X12050619Y-14575476D01*
X12098238Y-14575476D01*
X12117286Y-14585000D01*
X12126809Y-14594524D01*
X12136333Y-14613571D01*
X12136333Y-14632619D01*
X12126809Y-14661190D01*
X12012524Y-14775476D01*
X12136333Y-14775476D01*
X12307762Y-14575476D02*
X12269667Y-14575476D01*
X12250619Y-14585000D01*
X12241095Y-14594524D01*
X12222048Y-14623095D01*
X12212524Y-14661190D01*
X12212524Y-14737381D01*
X12222048Y-14756428D01*
X12231571Y-14765952D01*
X12250619Y-14775476D01*
X12288714Y-14775476D01*
X12307762Y-14765952D01*
X12317286Y-14756428D01*
X12326809Y-14737381D01*
X12326809Y-14689762D01*
X12317286Y-14670714D01*
X12307762Y-14661190D01*
X12288714Y-14651667D01*
X12250619Y-14651667D01*
X12231571Y-14661190D01*
X12222048Y-14670714D01*
X12212524Y-14689762D01*
X12450619Y-14575476D02*
X12469667Y-14575476D01*
X12488714Y-14585000D01*
X12498238Y-14594524D01*
X12507762Y-14613571D01*
X12517286Y-14651667D01*
X12517286Y-14699286D01*
X12507762Y-14737381D01*
X12498238Y-14756428D01*
X12488714Y-14765952D01*
X12469667Y-14775476D01*
X12450619Y-14775476D01*
X12431571Y-14765952D01*
X12422048Y-14756428D01*
X12412524Y-14737381D01*
X12403000Y-14699286D01*
X12403000Y-14651667D01*
X12412524Y-14613571D01*
X12422048Y-14594524D01*
X12431571Y-14585000D01*
X12450619Y-14575476D01*
X12593476Y-14575476D02*
X12593476Y-14613571D01*
X12669667Y-14575476D02*
X12669667Y-14613571D01*
X12964905Y-14851667D02*
X12955381Y-14842143D01*
X12936333Y-14813571D01*
X12926809Y-14794524D01*
X12917286Y-14765952D01*
X12907762Y-14718333D01*
X12907762Y-14680238D01*
X12917286Y-14632619D01*
X12926809Y-14604048D01*
X12936333Y-14585000D01*
X12955381Y-14556428D01*
X12964905Y-14546905D01*
X13126809Y-14642143D02*
X13126809Y-14775476D01*
X13079190Y-14565952D02*
X13031571Y-14708809D01*
X13155381Y-14708809D01*
X13383952Y-14775476D02*
X13383952Y-14575476D01*
X13469667Y-14775476D02*
X13469667Y-14670714D01*
X13460143Y-14651667D01*
X13441095Y-14642143D01*
X13412524Y-14642143D01*
X13393476Y-14651667D01*
X13383952Y-14661190D01*
X13593476Y-14775476D02*
X13574428Y-14765952D01*
X13564905Y-14756428D01*
X13555381Y-14737381D01*
X13555381Y-14680238D01*
X13564905Y-14661190D01*
X13574428Y-14651667D01*
X13593476Y-14642143D01*
X13622048Y-14642143D01*
X13641095Y-14651667D01*
X13650619Y-14661190D01*
X13660143Y-14680238D01*
X13660143Y-14737381D01*
X13650619Y-14756428D01*
X13641095Y-14765952D01*
X13622048Y-14775476D01*
X13593476Y-14775476D01*
X13774428Y-14775476D02*
X13755381Y-14765952D01*
X13745857Y-14746905D01*
X13745857Y-14575476D01*
X13926809Y-14765952D02*
X13907762Y-14775476D01*
X13869667Y-14775476D01*
X13850619Y-14765952D01*
X13841095Y-14746905D01*
X13841095Y-14670714D01*
X13850619Y-14651667D01*
X13869667Y-14642143D01*
X13907762Y-14642143D01*
X13926809Y-14651667D01*
X13936333Y-14670714D01*
X13936333Y-14689762D01*
X13841095Y-14708809D01*
X14012524Y-14765952D02*
X14031571Y-14775476D01*
X14069667Y-14775476D01*
X14088714Y-14765952D01*
X14098238Y-14746905D01*
X14098238Y-14737381D01*
X14088714Y-14718333D01*
X14069667Y-14708809D01*
X14041095Y-14708809D01*
X14022048Y-14699286D01*
X14012524Y-14680238D01*
X14012524Y-14670714D01*
X14022048Y-14651667D01*
X14041095Y-14642143D01*
X14069667Y-14642143D01*
X14088714Y-14651667D01*
X14164905Y-14851667D02*
X14174428Y-14842143D01*
X14193476Y-14813571D01*
X14203000Y-14794524D01*
X14212524Y-14765952D01*
X14222048Y-14718333D01*
X14222048Y-14680238D01*
X14212524Y-14632619D01*
X14203000Y-14604048D01*
X14193476Y-14585000D01*
X14174428Y-14556428D01*
X14164905Y-14546905D01*
M02*
