<?xml version="1.0" encoding="utf-8" ?><!DOCTYPE svg PUBLIC "-//W3C//DTD SVG 1.1//EN" "http://www.w3.org/Graphics/SVG/1.1/DTD/svg11.dtd" 
[ <!ATTLIST svg 
  xmlns:dsy CDATA #FIXED "http://www.3ds.com/print"  
    dsy:text-version CDATA #IMPLIED > 

  <!ATTLIST text 
  xmlns:dsy CDATA #FIXED "http://www.3ds.com/print" 
    dsy:text-version CDATA #IMPLIED > 
]><svg xmlns="http://www.w3.org/2000/svg" xmlns:dsy="http://www.3ds.com/print" dsy:text-version="18000" width="297" height="210" viewBox="0 0 297 210" version="1.1"><g stroke="rgb(0, 0, 0)" stroke-width="0.35" stroke-linecap="butt" stroke-linejoin="miter" fill="none"><path d="M 267.34 127.499 L 267.34 82.4994"/><path d="M 29.66 82.5005 L 29.6602 127.501"/><path d="M 191.414 111.429 L 194.081 91.7089"/><path d="M 196.369 112.1 L 191.414 111.429"/><path d="M 194.081 91.7089 L 199.036 92.3791"/><path d="M 199.036 92.3791 L 196.369 112.1"/><path d="M 29.6602 127.501 L 232.34 127.5"/><path d="M 252.34 127.5 L 267.34 127.499"/><path d="M 252.34 127.5 A 9.99996 9.99996 0 0 0 232.34 127.5"/><path d="M 237.44 82.4996 L 29.66 82.5005"/><path d="M 267.34 82.4994 L 242.34 82.4996"/><path d="M 242.34 97.4996 L 242.34 82.4996"/><path d="M 237.44 97.4996 L 242.34 97.4996"/><path d="M 237.44 82.4996 L 237.44 97.4996"/></g></svg>