<?xml version="1.0" encoding="utf-8" ?><!DOCTYPE svg PUBLIC "-//W3C//DTD SVG 1.1//EN" "http://www.w3.org/Graphics/SVG/1.1/DTD/svg11.dtd" 
[ <!ATTLIST svg 
  xmlns:dsy CDATA #FIXED "http://www.3ds.com/print"  
    dsy:text-version CDATA #IMPLIED > 

  <!ATTLIST text 
  xmlns:dsy CDATA #FIXED "http://www.3ds.com/print" 
    dsy:text-version CDATA #IMPLIED > 
]><svg xmlns="http://www.w3.org/2000/svg" xmlns:dsy="http://www.3ds.com/print" dsy:text-version="18000" width="297" height="210" viewBox="0 0 297 210" version="1.1"><g stroke="rgb(0, 0, 0)" stroke-width="0.35" stroke-linecap="butt" stroke-linejoin="miter" fill="none"><path d="M 37.9663 135 L 259.034 135"/><path d="M 259.034 135 L 259.034 75"/><path d="M 259.034 75 L 37.9663 75"/><path d="M 37.9663 75 L 37.9663 100"/><path d="M 37.9663 100 L 52.9663 100"/><path d="M 52.9663 100 L 52.9663 104.9"/><path d="M 52.9663 104.9 L 37.9663 104.9"/><path d="M 37.9663 104.9 L 37.9663 135"/><circle cx="88.3956" cy="122.12" r="3.10001"/><circle cx="223.604" cy="122" r="3.10001"/><path d="M 97.9662 125 L 99.9662 125"/><path d="M 99.9662 130 L 99.9662 125"/><path d="M 99.9662 130 L 97.9662 130"/><path d="M 97.9662 125 L 97.9662 130"/><path d="M 75.9662 125 L 77.9662 125"/><path d="M 77.9662 130 L 77.9662 125"/><path d="M 77.9662 130 L 75.9662 130"/><path d="M 75.9662 125 L 75.9662 130"/><path d="M 212.034 125 L 214.034 125"/><path d="M 214.034 130 L 214.034 125"/><path d="M 214.034 130 L 212.034 130"/><path d="M 212.034 125 L 212.034 130"/><path d="M 234.034 125 L 236.034 125"/><path d="M 236.034 130 L 236.034 125"/><path d="M 236.034 130 L 234.034 130"/><path d="M 234.034 125 L 234.034 130"/></g></svg>