%TF.GenerationSoftware,KiCad,Pcbnew,8.0.0*%
%TF.CreationDate,2024-04-17T17:35:18+02:00*%
%TF.ProjectId,Discharge Controller,44697363-6861-4726-9765-20436f6e7472,rev?*%
%TF.SameCoordinates,Original*%
%TF.FileFunction,Legend,Top*%
%TF.FilePolarity,Positive*%
%FSLAX46Y46*%
G04 Gerber Fmt 4.6, Leading zero omitted, Abs format (unit mm)*
G04 Created by KiCad (PCBNEW 8.0.0) date 2024-04-17 17:35:18*
%MOMM*%
%LPD*%
G01*
G04 APERTURE LIST*
%ADD10C,0.150000*%
%ADD11C,0.254000*%
%ADD12C,0.200000*%
%ADD13C,0.053000*%
%ADD14C,0.120000*%
%ADD15C,0.127000*%
G04 APERTURE END LIST*
D10*
X156724579Y-83648609D02*
X157057912Y-83648609D01*
X157200769Y-84172419D02*
X156724579Y-84172419D01*
X156724579Y-84172419D02*
X156724579Y-83172419D01*
X156724579Y-83172419D02*
X157200769Y-83172419D01*
X157629341Y-84172419D02*
X157629341Y-83172419D01*
X157629341Y-83172419D02*
X158010293Y-83172419D01*
X158010293Y-83172419D02*
X158105531Y-83220038D01*
X158105531Y-83220038D02*
X158153150Y-83267657D01*
X158153150Y-83267657D02*
X158200769Y-83362895D01*
X158200769Y-83362895D02*
X158200769Y-83505752D01*
X158200769Y-83505752D02*
X158153150Y-83600990D01*
X158153150Y-83600990D02*
X158105531Y-83648609D01*
X158105531Y-83648609D02*
X158010293Y-83696228D01*
X158010293Y-83696228D02*
X157629341Y-83696228D01*
X158581722Y-84124800D02*
X158724579Y-84172419D01*
X158724579Y-84172419D02*
X158962674Y-84172419D01*
X158962674Y-84172419D02*
X159057912Y-84124800D01*
X159057912Y-84124800D02*
X159105531Y-84077180D01*
X159105531Y-84077180D02*
X159153150Y-83981942D01*
X159153150Y-83981942D02*
X159153150Y-83886704D01*
X159153150Y-83886704D02*
X159105531Y-83791466D01*
X159105531Y-83791466D02*
X159057912Y-83743847D01*
X159057912Y-83743847D02*
X158962674Y-83696228D01*
X158962674Y-83696228D02*
X158772198Y-83648609D01*
X158772198Y-83648609D02*
X158676960Y-83600990D01*
X158676960Y-83600990D02*
X158629341Y-83553371D01*
X158629341Y-83553371D02*
X158581722Y-83458133D01*
X158581722Y-83458133D02*
X158581722Y-83362895D01*
X158581722Y-83362895D02*
X158629341Y-83267657D01*
X158629341Y-83267657D02*
X158676960Y-83220038D01*
X158676960Y-83220038D02*
X158772198Y-83172419D01*
X158772198Y-83172419D02*
X159010293Y-83172419D01*
X159010293Y-83172419D02*
X159153150Y-83220038D01*
X159534103Y-83886704D02*
X160010293Y-83886704D01*
X159438865Y-84172419D02*
X159772198Y-83172419D01*
X159772198Y-83172419D02*
X160105531Y-84172419D01*
X184025731Y-84257992D02*
X183549540Y-84591325D01*
X184025731Y-84829420D02*
X183025731Y-84829420D01*
X183025731Y-84829420D02*
X183025731Y-84448468D01*
X183025731Y-84448468D02*
X183073350Y-84353230D01*
X183073350Y-84353230D02*
X183120969Y-84305611D01*
X183120969Y-84305611D02*
X183216207Y-84257992D01*
X183216207Y-84257992D02*
X183359064Y-84257992D01*
X183359064Y-84257992D02*
X183454302Y-84305611D01*
X183454302Y-84305611D02*
X183501921Y-84353230D01*
X183501921Y-84353230D02*
X183549540Y-84448468D01*
X183549540Y-84448468D02*
X183549540Y-84829420D01*
X183978112Y-83448468D02*
X184025731Y-83543706D01*
X184025731Y-83543706D02*
X184025731Y-83734182D01*
X184025731Y-83734182D02*
X183978112Y-83829420D01*
X183978112Y-83829420D02*
X183882873Y-83877039D01*
X183882873Y-83877039D02*
X183501921Y-83877039D01*
X183501921Y-83877039D02*
X183406683Y-83829420D01*
X183406683Y-83829420D02*
X183359064Y-83734182D01*
X183359064Y-83734182D02*
X183359064Y-83543706D01*
X183359064Y-83543706D02*
X183406683Y-83448468D01*
X183406683Y-83448468D02*
X183501921Y-83400849D01*
X183501921Y-83400849D02*
X183597159Y-83400849D01*
X183597159Y-83400849D02*
X183692397Y-83877039D01*
X184025731Y-82829420D02*
X183978112Y-82924658D01*
X183978112Y-82924658D02*
X183882873Y-82972277D01*
X183882873Y-82972277D02*
X183025731Y-82972277D01*
X184025731Y-82019896D02*
X183501921Y-82019896D01*
X183501921Y-82019896D02*
X183406683Y-82067515D01*
X183406683Y-82067515D02*
X183359064Y-82162753D01*
X183359064Y-82162753D02*
X183359064Y-82353229D01*
X183359064Y-82353229D02*
X183406683Y-82448467D01*
X183978112Y-82019896D02*
X184025731Y-82115134D01*
X184025731Y-82115134D02*
X184025731Y-82353229D01*
X184025731Y-82353229D02*
X183978112Y-82448467D01*
X183978112Y-82448467D02*
X183882873Y-82496086D01*
X183882873Y-82496086D02*
X183787635Y-82496086D01*
X183787635Y-82496086D02*
X183692397Y-82448467D01*
X183692397Y-82448467D02*
X183644778Y-82353229D01*
X183644778Y-82353229D02*
X183644778Y-82115134D01*
X183644778Y-82115134D02*
X183597159Y-82019896D01*
X183359064Y-81638943D02*
X184025731Y-81400848D01*
X183359064Y-81162753D02*
X184025731Y-81400848D01*
X184025731Y-81400848D02*
X184263826Y-81496086D01*
X184263826Y-81496086D02*
X184311445Y-81543705D01*
X184311445Y-81543705D02*
X184359064Y-81638943D01*
X185540436Y-84257992D02*
X185588056Y-84305611D01*
X185588056Y-84305611D02*
X185635675Y-84448468D01*
X185635675Y-84448468D02*
X185635675Y-84543706D01*
X185635675Y-84543706D02*
X185588056Y-84686563D01*
X185588056Y-84686563D02*
X185492817Y-84781801D01*
X185492817Y-84781801D02*
X185397579Y-84829420D01*
X185397579Y-84829420D02*
X185207103Y-84877039D01*
X185207103Y-84877039D02*
X185064246Y-84877039D01*
X185064246Y-84877039D02*
X184873770Y-84829420D01*
X184873770Y-84829420D02*
X184778532Y-84781801D01*
X184778532Y-84781801D02*
X184683294Y-84686563D01*
X184683294Y-84686563D02*
X184635675Y-84543706D01*
X184635675Y-84543706D02*
X184635675Y-84448468D01*
X184635675Y-84448468D02*
X184683294Y-84305611D01*
X184683294Y-84305611D02*
X184730913Y-84257992D01*
X185635675Y-83686563D02*
X185588056Y-83781801D01*
X185588056Y-83781801D02*
X185540436Y-83829420D01*
X185540436Y-83829420D02*
X185445198Y-83877039D01*
X185445198Y-83877039D02*
X185159484Y-83877039D01*
X185159484Y-83877039D02*
X185064246Y-83829420D01*
X185064246Y-83829420D02*
X185016627Y-83781801D01*
X185016627Y-83781801D02*
X184969008Y-83686563D01*
X184969008Y-83686563D02*
X184969008Y-83543706D01*
X184969008Y-83543706D02*
X185016627Y-83448468D01*
X185016627Y-83448468D02*
X185064246Y-83400849D01*
X185064246Y-83400849D02*
X185159484Y-83353230D01*
X185159484Y-83353230D02*
X185445198Y-83353230D01*
X185445198Y-83353230D02*
X185540436Y-83400849D01*
X185540436Y-83400849D02*
X185588056Y-83448468D01*
X185588056Y-83448468D02*
X185635675Y-83543706D01*
X185635675Y-83543706D02*
X185635675Y-83686563D01*
X184969008Y-82924658D02*
X185635675Y-82924658D01*
X185064246Y-82924658D02*
X185016627Y-82877039D01*
X185016627Y-82877039D02*
X184969008Y-82781801D01*
X184969008Y-82781801D02*
X184969008Y-82638944D01*
X184969008Y-82638944D02*
X185016627Y-82543706D01*
X185016627Y-82543706D02*
X185111865Y-82496087D01*
X185111865Y-82496087D02*
X185635675Y-82496087D01*
X184969008Y-82162753D02*
X184969008Y-81781801D01*
X184635675Y-82019896D02*
X185492817Y-82019896D01*
X185492817Y-82019896D02*
X185588056Y-81972277D01*
X185588056Y-81972277D02*
X185635675Y-81877039D01*
X185635675Y-81877039D02*
X185635675Y-81781801D01*
X185635675Y-81448467D02*
X184969008Y-81448467D01*
X185159484Y-81448467D02*
X185064246Y-81400848D01*
X185064246Y-81400848D02*
X185016627Y-81353229D01*
X185016627Y-81353229D02*
X184969008Y-81257991D01*
X184969008Y-81257991D02*
X184969008Y-81162753D01*
X185635675Y-80686562D02*
X185588056Y-80781800D01*
X185588056Y-80781800D02*
X185540436Y-80829419D01*
X185540436Y-80829419D02*
X185445198Y-80877038D01*
X185445198Y-80877038D02*
X185159484Y-80877038D01*
X185159484Y-80877038D02*
X185064246Y-80829419D01*
X185064246Y-80829419D02*
X185016627Y-80781800D01*
X185016627Y-80781800D02*
X184969008Y-80686562D01*
X184969008Y-80686562D02*
X184969008Y-80543705D01*
X184969008Y-80543705D02*
X185016627Y-80448467D01*
X185016627Y-80448467D02*
X185064246Y-80400848D01*
X185064246Y-80400848D02*
X185159484Y-80353229D01*
X185159484Y-80353229D02*
X185445198Y-80353229D01*
X185445198Y-80353229D02*
X185540436Y-80400848D01*
X185540436Y-80400848D02*
X185588056Y-80448467D01*
X185588056Y-80448467D02*
X185635675Y-80543705D01*
X185635675Y-80543705D02*
X185635675Y-80686562D01*
X185635675Y-79781800D02*
X185588056Y-79877038D01*
X185588056Y-79877038D02*
X185492817Y-79924657D01*
X185492817Y-79924657D02*
X184635675Y-79924657D01*
X185635675Y-79257990D02*
X185588056Y-79353228D01*
X185588056Y-79353228D02*
X185492817Y-79400847D01*
X185492817Y-79400847D02*
X184635675Y-79400847D01*
X185588056Y-78496085D02*
X185635675Y-78591323D01*
X185635675Y-78591323D02*
X185635675Y-78781799D01*
X185635675Y-78781799D02*
X185588056Y-78877037D01*
X185588056Y-78877037D02*
X185492817Y-78924656D01*
X185492817Y-78924656D02*
X185111865Y-78924656D01*
X185111865Y-78924656D02*
X185016627Y-78877037D01*
X185016627Y-78877037D02*
X184969008Y-78781799D01*
X184969008Y-78781799D02*
X184969008Y-78591323D01*
X184969008Y-78591323D02*
X185016627Y-78496085D01*
X185016627Y-78496085D02*
X185111865Y-78448466D01*
X185111865Y-78448466D02*
X185207103Y-78448466D01*
X185207103Y-78448466D02*
X185302341Y-78924656D01*
X185635675Y-78019894D02*
X184969008Y-78019894D01*
X185159484Y-78019894D02*
X185064246Y-77972275D01*
X185064246Y-77972275D02*
X185016627Y-77924656D01*
X185016627Y-77924656D02*
X184969008Y-77829418D01*
X184969008Y-77829418D02*
X184969008Y-77734180D01*
X186578952Y-84924658D02*
X187245619Y-84686563D01*
X187245619Y-84686563D02*
X186578952Y-84448468D01*
X187245619Y-83543706D02*
X187245619Y-84115134D01*
X187245619Y-83829420D02*
X186245619Y-83829420D01*
X186245619Y-83829420D02*
X186388476Y-83924658D01*
X186388476Y-83924658D02*
X186483714Y-84019896D01*
X186483714Y-84019896D02*
X186531333Y-84115134D01*
X187150380Y-83115134D02*
X187198000Y-83067515D01*
X187198000Y-83067515D02*
X187245619Y-83115134D01*
X187245619Y-83115134D02*
X187198000Y-83162753D01*
X187198000Y-83162753D02*
X187150380Y-83115134D01*
X187150380Y-83115134D02*
X187245619Y-83115134D01*
X186245619Y-82448468D02*
X186245619Y-82353230D01*
X186245619Y-82353230D02*
X186293238Y-82257992D01*
X186293238Y-82257992D02*
X186340857Y-82210373D01*
X186340857Y-82210373D02*
X186436095Y-82162754D01*
X186436095Y-82162754D02*
X186626571Y-82115135D01*
X186626571Y-82115135D02*
X186864666Y-82115135D01*
X186864666Y-82115135D02*
X187055142Y-82162754D01*
X187055142Y-82162754D02*
X187150380Y-82210373D01*
X187150380Y-82210373D02*
X187198000Y-82257992D01*
X187198000Y-82257992D02*
X187245619Y-82353230D01*
X187245619Y-82353230D02*
X187245619Y-82448468D01*
X187245619Y-82448468D02*
X187198000Y-82543706D01*
X187198000Y-82543706D02*
X187150380Y-82591325D01*
X187150380Y-82591325D02*
X187055142Y-82638944D01*
X187055142Y-82638944D02*
X186864666Y-82686563D01*
X186864666Y-82686563D02*
X186626571Y-82686563D01*
X186626571Y-82686563D02*
X186436095Y-82638944D01*
X186436095Y-82638944D02*
X186340857Y-82591325D01*
X186340857Y-82591325D02*
X186293238Y-82543706D01*
X186293238Y-82543706D02*
X186245619Y-82448468D01*
D11*
X180636333Y-67630318D02*
X180212999Y-67025556D01*
X179910618Y-67630318D02*
X179910618Y-66360318D01*
X179910618Y-66360318D02*
X180394428Y-66360318D01*
X180394428Y-66360318D02*
X180515380Y-66420794D01*
X180515380Y-66420794D02*
X180575857Y-66481270D01*
X180575857Y-66481270D02*
X180636333Y-66602222D01*
X180636333Y-66602222D02*
X180636333Y-66783651D01*
X180636333Y-66783651D02*
X180575857Y-66904603D01*
X180575857Y-66904603D02*
X180515380Y-66965080D01*
X180515380Y-66965080D02*
X180394428Y-67025556D01*
X180394428Y-67025556D02*
X179910618Y-67025556D01*
X181845857Y-67630318D02*
X181120142Y-67630318D01*
X181482999Y-67630318D02*
X181482999Y-66360318D01*
X181482999Y-66360318D02*
X181362047Y-66541746D01*
X181362047Y-66541746D02*
X181241095Y-66662699D01*
X181241095Y-66662699D02*
X181120142Y-66723175D01*
X170132118Y-60772818D02*
X170132118Y-59502818D01*
X170857833Y-60772818D02*
X170313547Y-60047103D01*
X170857833Y-59502818D02*
X170132118Y-60228532D01*
X171341642Y-59623770D02*
X171402118Y-59563294D01*
X171402118Y-59563294D02*
X171523071Y-59502818D01*
X171523071Y-59502818D02*
X171825452Y-59502818D01*
X171825452Y-59502818D02*
X171946404Y-59563294D01*
X171946404Y-59563294D02*
X172006880Y-59623770D01*
X172006880Y-59623770D02*
X172067357Y-59744722D01*
X172067357Y-59744722D02*
X172067357Y-59865675D01*
X172067357Y-59865675D02*
X172006880Y-60047103D01*
X172006880Y-60047103D02*
X171281166Y-60772818D01*
X171281166Y-60772818D02*
X172067357Y-60772818D01*
X170379365Y-75395666D02*
X170439842Y-75456142D01*
X170439842Y-75456142D02*
X170500318Y-75637571D01*
X170500318Y-75637571D02*
X170500318Y-75758523D01*
X170500318Y-75758523D02*
X170439842Y-75939952D01*
X170439842Y-75939952D02*
X170318889Y-76060904D01*
X170318889Y-76060904D02*
X170197937Y-76121381D01*
X170197937Y-76121381D02*
X169956032Y-76181857D01*
X169956032Y-76181857D02*
X169774603Y-76181857D01*
X169774603Y-76181857D02*
X169532699Y-76121381D01*
X169532699Y-76121381D02*
X169411746Y-76060904D01*
X169411746Y-76060904D02*
X169290794Y-75939952D01*
X169290794Y-75939952D02*
X169230318Y-75758523D01*
X169230318Y-75758523D02*
X169230318Y-75637571D01*
X169230318Y-75637571D02*
X169290794Y-75456142D01*
X169290794Y-75456142D02*
X169351270Y-75395666D01*
X169230318Y-74246619D02*
X169230318Y-74851381D01*
X169230318Y-74851381D02*
X169835080Y-74911857D01*
X169835080Y-74911857D02*
X169774603Y-74851381D01*
X169774603Y-74851381D02*
X169714127Y-74730428D01*
X169714127Y-74730428D02*
X169714127Y-74428047D01*
X169714127Y-74428047D02*
X169774603Y-74307095D01*
X169774603Y-74307095D02*
X169835080Y-74246619D01*
X169835080Y-74246619D02*
X169956032Y-74186142D01*
X169956032Y-74186142D02*
X170258413Y-74186142D01*
X170258413Y-74186142D02*
X170379365Y-74246619D01*
X170379365Y-74246619D02*
X170439842Y-74307095D01*
X170439842Y-74307095D02*
X170500318Y-74428047D01*
X170500318Y-74428047D02*
X170500318Y-74730428D01*
X170500318Y-74730428D02*
X170439842Y-74851381D01*
X170439842Y-74851381D02*
X170379365Y-74911857D01*
D10*
X172770895Y-82817619D02*
X172770895Y-83627142D01*
X172770895Y-83627142D02*
X172818514Y-83722380D01*
X172818514Y-83722380D02*
X172866133Y-83770000D01*
X172866133Y-83770000D02*
X172961371Y-83817619D01*
X172961371Y-83817619D02*
X173151847Y-83817619D01*
X173151847Y-83817619D02*
X173247085Y-83770000D01*
X173247085Y-83770000D02*
X173294704Y-83722380D01*
X173294704Y-83722380D02*
X173342323Y-83627142D01*
X173342323Y-83627142D02*
X173342323Y-82817619D01*
X173723276Y-82817619D02*
X174342323Y-82817619D01*
X174342323Y-82817619D02*
X174008990Y-83198571D01*
X174008990Y-83198571D02*
X174151847Y-83198571D01*
X174151847Y-83198571D02*
X174247085Y-83246190D01*
X174247085Y-83246190D02*
X174294704Y-83293809D01*
X174294704Y-83293809D02*
X174342323Y-83389047D01*
X174342323Y-83389047D02*
X174342323Y-83627142D01*
X174342323Y-83627142D02*
X174294704Y-83722380D01*
X174294704Y-83722380D02*
X174247085Y-83770000D01*
X174247085Y-83770000D02*
X174151847Y-83817619D01*
X174151847Y-83817619D02*
X173866133Y-83817619D01*
X173866133Y-83817619D02*
X173770895Y-83770000D01*
X173770895Y-83770000D02*
X173723276Y-83722380D01*
D11*
X172498657Y-78628518D02*
X172498657Y-77358518D01*
X172498657Y-77358518D02*
X173224372Y-78628518D01*
X173224372Y-78628518D02*
X173224372Y-77358518D01*
X173768657Y-78265661D02*
X174373419Y-78265661D01*
X173647705Y-78628518D02*
X174071038Y-77358518D01*
X174071038Y-77358518D02*
X174494372Y-78628518D01*
X174917704Y-78628518D02*
X174917704Y-77358518D01*
X174917704Y-77358518D02*
X175643419Y-78628518D01*
X175643419Y-78628518D02*
X175643419Y-77358518D01*
X176248180Y-78628518D02*
X176248180Y-77358518D01*
X176248180Y-77358518D02*
X176550561Y-77358518D01*
X176550561Y-77358518D02*
X176731990Y-77418994D01*
X176731990Y-77418994D02*
X176852942Y-77539946D01*
X176852942Y-77539946D02*
X176913419Y-77660899D01*
X176913419Y-77660899D02*
X176973895Y-77902803D01*
X176973895Y-77902803D02*
X176973895Y-78084232D01*
X176973895Y-78084232D02*
X176913419Y-78326137D01*
X176913419Y-78326137D02*
X176852942Y-78447089D01*
X176852942Y-78447089D02*
X176731990Y-78568042D01*
X176731990Y-78568042D02*
X176550561Y-78628518D01*
X176550561Y-78628518D02*
X176248180Y-78628518D01*
X178183419Y-78628518D02*
X177457704Y-78628518D01*
X177820561Y-78628518D02*
X177820561Y-77358518D01*
X177820561Y-77358518D02*
X177699609Y-77539946D01*
X177699609Y-77539946D02*
X177578657Y-77660899D01*
X177578657Y-77660899D02*
X177457704Y-77721375D01*
X164937718Y-76792666D02*
X164332956Y-77216000D01*
X164937718Y-77518381D02*
X163667718Y-77518381D01*
X163667718Y-77518381D02*
X163667718Y-77034571D01*
X163667718Y-77034571D02*
X163728194Y-76913619D01*
X163728194Y-76913619D02*
X163788670Y-76853142D01*
X163788670Y-76853142D02*
X163909622Y-76792666D01*
X163909622Y-76792666D02*
X164091051Y-76792666D01*
X164091051Y-76792666D02*
X164212003Y-76853142D01*
X164212003Y-76853142D02*
X164272480Y-76913619D01*
X164272480Y-76913619D02*
X164332956Y-77034571D01*
X164332956Y-77034571D02*
X164332956Y-77518381D01*
X163667718Y-75704095D02*
X163667718Y-75946000D01*
X163667718Y-75946000D02*
X163728194Y-76066952D01*
X163728194Y-76066952D02*
X163788670Y-76127428D01*
X163788670Y-76127428D02*
X163970099Y-76248381D01*
X163970099Y-76248381D02*
X164212003Y-76308857D01*
X164212003Y-76308857D02*
X164695813Y-76308857D01*
X164695813Y-76308857D02*
X164816765Y-76248381D01*
X164816765Y-76248381D02*
X164877242Y-76187904D01*
X164877242Y-76187904D02*
X164937718Y-76066952D01*
X164937718Y-76066952D02*
X164937718Y-75825047D01*
X164937718Y-75825047D02*
X164877242Y-75704095D01*
X164877242Y-75704095D02*
X164816765Y-75643619D01*
X164816765Y-75643619D02*
X164695813Y-75583142D01*
X164695813Y-75583142D02*
X164393432Y-75583142D01*
X164393432Y-75583142D02*
X164272480Y-75643619D01*
X164272480Y-75643619D02*
X164212003Y-75704095D01*
X164212003Y-75704095D02*
X164151527Y-75825047D01*
X164151527Y-75825047D02*
X164151527Y-76066952D01*
X164151527Y-76066952D02*
X164212003Y-76187904D01*
X164212003Y-76187904D02*
X164272480Y-76248381D01*
X164272480Y-76248381D02*
X164393432Y-76308857D01*
X183022518Y-75776666D02*
X182417756Y-76200000D01*
X183022518Y-76502381D02*
X181752518Y-76502381D01*
X181752518Y-76502381D02*
X181752518Y-76018571D01*
X181752518Y-76018571D02*
X181812994Y-75897619D01*
X181812994Y-75897619D02*
X181873470Y-75837142D01*
X181873470Y-75837142D02*
X181994422Y-75776666D01*
X181994422Y-75776666D02*
X182175851Y-75776666D01*
X182175851Y-75776666D02*
X182296803Y-75837142D01*
X182296803Y-75837142D02*
X182357280Y-75897619D01*
X182357280Y-75897619D02*
X182417756Y-76018571D01*
X182417756Y-76018571D02*
X182417756Y-76502381D01*
X181873470Y-75292857D02*
X181812994Y-75232381D01*
X181812994Y-75232381D02*
X181752518Y-75111428D01*
X181752518Y-75111428D02*
X181752518Y-74809047D01*
X181752518Y-74809047D02*
X181812994Y-74688095D01*
X181812994Y-74688095D02*
X181873470Y-74627619D01*
X181873470Y-74627619D02*
X181994422Y-74567142D01*
X181994422Y-74567142D02*
X182115375Y-74567142D01*
X182115375Y-74567142D02*
X182296803Y-74627619D01*
X182296803Y-74627619D02*
X183022518Y-75353333D01*
X183022518Y-75353333D02*
X183022518Y-74567142D01*
X175256708Y-70224952D02*
X175196232Y-70345904D01*
X175196232Y-70345904D02*
X175075280Y-70466857D01*
X175075280Y-70466857D02*
X174893851Y-70648285D01*
X174893851Y-70648285D02*
X174833375Y-70769238D01*
X174833375Y-70769238D02*
X174833375Y-70890190D01*
X175135756Y-70829714D02*
X175075280Y-70950666D01*
X175075280Y-70950666D02*
X174954327Y-71071619D01*
X174954327Y-71071619D02*
X174712422Y-71132095D01*
X174712422Y-71132095D02*
X174289089Y-71132095D01*
X174289089Y-71132095D02*
X174047184Y-71071619D01*
X174047184Y-71071619D02*
X173926232Y-70950666D01*
X173926232Y-70950666D02*
X173865756Y-70829714D01*
X173865756Y-70829714D02*
X173865756Y-70587809D01*
X173865756Y-70587809D02*
X173926232Y-70466857D01*
X173926232Y-70466857D02*
X174047184Y-70345904D01*
X174047184Y-70345904D02*
X174289089Y-70285428D01*
X174289089Y-70285428D02*
X174712422Y-70285428D01*
X174712422Y-70285428D02*
X174954327Y-70345904D01*
X174954327Y-70345904D02*
X175075280Y-70466857D01*
X175075280Y-70466857D02*
X175135756Y-70587809D01*
X175135756Y-70587809D02*
X175135756Y-70829714D01*
X175135756Y-69075904D02*
X175135756Y-69801619D01*
X175135756Y-69438762D02*
X173865756Y-69438762D01*
X173865756Y-69438762D02*
X174047184Y-69559714D01*
X174047184Y-69559714D02*
X174168137Y-69680666D01*
X174168137Y-69680666D02*
X174228613Y-69801619D01*
X185970333Y-77085165D02*
X185909857Y-77145642D01*
X185909857Y-77145642D02*
X185728428Y-77206118D01*
X185728428Y-77206118D02*
X185607476Y-77206118D01*
X185607476Y-77206118D02*
X185426047Y-77145642D01*
X185426047Y-77145642D02*
X185305095Y-77024689D01*
X185305095Y-77024689D02*
X185244618Y-76903737D01*
X185244618Y-76903737D02*
X185184142Y-76661832D01*
X185184142Y-76661832D02*
X185184142Y-76480403D01*
X185184142Y-76480403D02*
X185244618Y-76238499D01*
X185244618Y-76238499D02*
X185305095Y-76117546D01*
X185305095Y-76117546D02*
X185426047Y-75996594D01*
X185426047Y-75996594D02*
X185607476Y-75936118D01*
X185607476Y-75936118D02*
X185728428Y-75936118D01*
X185728428Y-75936118D02*
X185909857Y-75996594D01*
X185909857Y-75996594D02*
X185970333Y-76057070D01*
X186454142Y-76057070D02*
X186514618Y-75996594D01*
X186514618Y-75996594D02*
X186635571Y-75936118D01*
X186635571Y-75936118D02*
X186937952Y-75936118D01*
X186937952Y-75936118D02*
X187058904Y-75996594D01*
X187058904Y-75996594D02*
X187119380Y-76057070D01*
X187119380Y-76057070D02*
X187179857Y-76178022D01*
X187179857Y-76178022D02*
X187179857Y-76298975D01*
X187179857Y-76298975D02*
X187119380Y-76480403D01*
X187119380Y-76480403D02*
X186393666Y-77206118D01*
X186393666Y-77206118D02*
X187179857Y-77206118D01*
D10*
X184685266Y-61096466D02*
X185685266Y-61096466D01*
X185685266Y-61096466D02*
X185885266Y-61163133D01*
X185885266Y-61163133D02*
X186018600Y-61296466D01*
X186018600Y-61296466D02*
X186085266Y-61496466D01*
X186085266Y-61496466D02*
X186085266Y-61629800D01*
X186085266Y-59696466D02*
X186085266Y-60496466D01*
X186085266Y-60096466D02*
X184685266Y-60096466D01*
X184685266Y-60096466D02*
X184885266Y-60229799D01*
X184885266Y-60229799D02*
X185018600Y-60363133D01*
X185018600Y-60363133D02*
X185085266Y-60496466D01*
X153124819Y-77422333D02*
X153839104Y-77422333D01*
X153839104Y-77422333D02*
X153981961Y-77469952D01*
X153981961Y-77469952D02*
X154077200Y-77565190D01*
X154077200Y-77565190D02*
X154124819Y-77708047D01*
X154124819Y-77708047D02*
X154124819Y-77803285D01*
X153124819Y-77041380D02*
X153124819Y-76422333D01*
X153124819Y-76422333D02*
X153505771Y-76755666D01*
X153505771Y-76755666D02*
X153505771Y-76612809D01*
X153505771Y-76612809D02*
X153553390Y-76517571D01*
X153553390Y-76517571D02*
X153601009Y-76469952D01*
X153601009Y-76469952D02*
X153696247Y-76422333D01*
X153696247Y-76422333D02*
X153934342Y-76422333D01*
X153934342Y-76422333D02*
X154029580Y-76469952D01*
X154029580Y-76469952D02*
X154077200Y-76517571D01*
X154077200Y-76517571D02*
X154124819Y-76612809D01*
X154124819Y-76612809D02*
X154124819Y-76898523D01*
X154124819Y-76898523D02*
X154077200Y-76993761D01*
X154077200Y-76993761D02*
X154029580Y-77041380D01*
D11*
X169998365Y-83879266D02*
X170058842Y-83939742D01*
X170058842Y-83939742D02*
X170119318Y-84121171D01*
X170119318Y-84121171D02*
X170119318Y-84242123D01*
X170119318Y-84242123D02*
X170058842Y-84423552D01*
X170058842Y-84423552D02*
X169937889Y-84544504D01*
X169937889Y-84544504D02*
X169816937Y-84604981D01*
X169816937Y-84604981D02*
X169575032Y-84665457D01*
X169575032Y-84665457D02*
X169393603Y-84665457D01*
X169393603Y-84665457D02*
X169151699Y-84604981D01*
X169151699Y-84604981D02*
X169030746Y-84544504D01*
X169030746Y-84544504D02*
X168909794Y-84423552D01*
X168909794Y-84423552D02*
X168849318Y-84242123D01*
X168849318Y-84242123D02*
X168849318Y-84121171D01*
X168849318Y-84121171D02*
X168909794Y-83939742D01*
X168909794Y-83939742D02*
X168970270Y-83879266D01*
X168849318Y-83455933D02*
X168849318Y-82669742D01*
X168849318Y-82669742D02*
X169333127Y-83093076D01*
X169333127Y-83093076D02*
X169333127Y-82911647D01*
X169333127Y-82911647D02*
X169393603Y-82790695D01*
X169393603Y-82790695D02*
X169454080Y-82730219D01*
X169454080Y-82730219D02*
X169575032Y-82669742D01*
X169575032Y-82669742D02*
X169877413Y-82669742D01*
X169877413Y-82669742D02*
X169998365Y-82730219D01*
X169998365Y-82730219D02*
X170058842Y-82790695D01*
X170058842Y-82790695D02*
X170119318Y-82911647D01*
X170119318Y-82911647D02*
X170119318Y-83274504D01*
X170119318Y-83274504D02*
X170058842Y-83395457D01*
X170058842Y-83395457D02*
X169998365Y-83455933D01*
X171141365Y-70823666D02*
X171201842Y-70884142D01*
X171201842Y-70884142D02*
X171262318Y-71065571D01*
X171262318Y-71065571D02*
X171262318Y-71186523D01*
X171262318Y-71186523D02*
X171201842Y-71367952D01*
X171201842Y-71367952D02*
X171080889Y-71488904D01*
X171080889Y-71488904D02*
X170959937Y-71549381D01*
X170959937Y-71549381D02*
X170718032Y-71609857D01*
X170718032Y-71609857D02*
X170536603Y-71609857D01*
X170536603Y-71609857D02*
X170294699Y-71549381D01*
X170294699Y-71549381D02*
X170173746Y-71488904D01*
X170173746Y-71488904D02*
X170052794Y-71367952D01*
X170052794Y-71367952D02*
X169992318Y-71186523D01*
X169992318Y-71186523D02*
X169992318Y-71065571D01*
X169992318Y-71065571D02*
X170052794Y-70884142D01*
X170052794Y-70884142D02*
X170113270Y-70823666D01*
X170415651Y-69735095D02*
X171262318Y-69735095D01*
X169931842Y-70037476D02*
X170838984Y-70339857D01*
X170838984Y-70339857D02*
X170838984Y-69553666D01*
X166097857Y-73024794D02*
X165976904Y-72964318D01*
X165976904Y-72964318D02*
X165795476Y-72964318D01*
X165795476Y-72964318D02*
X165614047Y-73024794D01*
X165614047Y-73024794D02*
X165493095Y-73145746D01*
X165493095Y-73145746D02*
X165432618Y-73266699D01*
X165432618Y-73266699D02*
X165372142Y-73508603D01*
X165372142Y-73508603D02*
X165372142Y-73690032D01*
X165372142Y-73690032D02*
X165432618Y-73931937D01*
X165432618Y-73931937D02*
X165493095Y-74052889D01*
X165493095Y-74052889D02*
X165614047Y-74173842D01*
X165614047Y-74173842D02*
X165795476Y-74234318D01*
X165795476Y-74234318D02*
X165916428Y-74234318D01*
X165916428Y-74234318D02*
X166097857Y-74173842D01*
X166097857Y-74173842D02*
X166158333Y-74113365D01*
X166158333Y-74113365D02*
X166158333Y-73690032D01*
X166158333Y-73690032D02*
X165916428Y-73690032D01*
X167367857Y-74234318D02*
X166642142Y-74234318D01*
X167004999Y-74234318D02*
X167004999Y-72964318D01*
X167004999Y-72964318D02*
X166884047Y-73145746D01*
X166884047Y-73145746D02*
X166763095Y-73266699D01*
X166763095Y-73266699D02*
X166642142Y-73327175D01*
X178907718Y-82406066D02*
X178302956Y-82829400D01*
X178907718Y-83131781D02*
X177637718Y-83131781D01*
X177637718Y-83131781D02*
X177637718Y-82647971D01*
X177637718Y-82647971D02*
X177698194Y-82527019D01*
X177698194Y-82527019D02*
X177758670Y-82466542D01*
X177758670Y-82466542D02*
X177879622Y-82406066D01*
X177879622Y-82406066D02*
X178061051Y-82406066D01*
X178061051Y-82406066D02*
X178182003Y-82466542D01*
X178182003Y-82466542D02*
X178242480Y-82527019D01*
X178242480Y-82527019D02*
X178302956Y-82647971D01*
X178302956Y-82647971D02*
X178302956Y-83131781D01*
X177637718Y-81257019D02*
X177637718Y-81861781D01*
X177637718Y-81861781D02*
X178242480Y-81922257D01*
X178242480Y-81922257D02*
X178182003Y-81861781D01*
X178182003Y-81861781D02*
X178121527Y-81740828D01*
X178121527Y-81740828D02*
X178121527Y-81438447D01*
X178121527Y-81438447D02*
X178182003Y-81317495D01*
X178182003Y-81317495D02*
X178242480Y-81257019D01*
X178242480Y-81257019D02*
X178363432Y-81196542D01*
X178363432Y-81196542D02*
X178665813Y-81196542D01*
X178665813Y-81196542D02*
X178786765Y-81257019D01*
X178786765Y-81257019D02*
X178847242Y-81317495D01*
X178847242Y-81317495D02*
X178907718Y-81438447D01*
X178907718Y-81438447D02*
X178907718Y-81740828D01*
X178907718Y-81740828D02*
X178847242Y-81861781D01*
X178847242Y-81861781D02*
X178786765Y-81922257D01*
X165928318Y-82431466D02*
X165323556Y-82854800D01*
X165928318Y-83157181D02*
X164658318Y-83157181D01*
X164658318Y-83157181D02*
X164658318Y-82673371D01*
X164658318Y-82673371D02*
X164718794Y-82552419D01*
X164718794Y-82552419D02*
X164779270Y-82491942D01*
X164779270Y-82491942D02*
X164900222Y-82431466D01*
X164900222Y-82431466D02*
X165081651Y-82431466D01*
X165081651Y-82431466D02*
X165202603Y-82491942D01*
X165202603Y-82491942D02*
X165263080Y-82552419D01*
X165263080Y-82552419D02*
X165323556Y-82673371D01*
X165323556Y-82673371D02*
X165323556Y-83157181D01*
X164658318Y-82008133D02*
X164658318Y-81161466D01*
X164658318Y-81161466D02*
X165928318Y-81705752D01*
X152720318Y-63324619D02*
X153748413Y-63324619D01*
X153748413Y-63324619D02*
X153869365Y-63264142D01*
X153869365Y-63264142D02*
X153929842Y-63203666D01*
X153929842Y-63203666D02*
X153990318Y-63082714D01*
X153990318Y-63082714D02*
X153990318Y-62840809D01*
X153990318Y-62840809D02*
X153929842Y-62719857D01*
X153929842Y-62719857D02*
X153869365Y-62659380D01*
X153869365Y-62659380D02*
X153748413Y-62598904D01*
X153748413Y-62598904D02*
X152720318Y-62598904D01*
X153990318Y-61328904D02*
X153990318Y-62054619D01*
X153990318Y-61691762D02*
X152720318Y-61691762D01*
X152720318Y-61691762D02*
X152901746Y-61812714D01*
X152901746Y-61812714D02*
X153022699Y-61933666D01*
X153022699Y-61933666D02*
X153083175Y-62054619D01*
X161356318Y-71065765D02*
X160751556Y-71489099D01*
X161356318Y-71791480D02*
X160086318Y-71791480D01*
X160086318Y-71791480D02*
X160086318Y-71307670D01*
X160086318Y-71307670D02*
X160146794Y-71186718D01*
X160146794Y-71186718D02*
X160207270Y-71126241D01*
X160207270Y-71126241D02*
X160328222Y-71065765D01*
X160328222Y-71065765D02*
X160509651Y-71065765D01*
X160509651Y-71065765D02*
X160630603Y-71126241D01*
X160630603Y-71126241D02*
X160691080Y-71186718D01*
X160691080Y-71186718D02*
X160751556Y-71307670D01*
X160751556Y-71307670D02*
X160751556Y-71791480D01*
X160086318Y-70642432D02*
X160086318Y-69856241D01*
X160086318Y-69856241D02*
X160570127Y-70279575D01*
X160570127Y-70279575D02*
X160570127Y-70098146D01*
X160570127Y-70098146D02*
X160630603Y-69977194D01*
X160630603Y-69977194D02*
X160691080Y-69916718D01*
X160691080Y-69916718D02*
X160812032Y-69856241D01*
X160812032Y-69856241D02*
X161114413Y-69856241D01*
X161114413Y-69856241D02*
X161235365Y-69916718D01*
X161235365Y-69916718D02*
X161295842Y-69977194D01*
X161295842Y-69977194D02*
X161356318Y-70098146D01*
X161356318Y-70098146D02*
X161356318Y-70461003D01*
X161356318Y-70461003D02*
X161295842Y-70581956D01*
X161295842Y-70581956D02*
X161235365Y-70642432D01*
D10*
X183642095Y-68451819D02*
X183642095Y-69261342D01*
X183642095Y-69261342D02*
X183689714Y-69356580D01*
X183689714Y-69356580D02*
X183737333Y-69404200D01*
X183737333Y-69404200D02*
X183832571Y-69451819D01*
X183832571Y-69451819D02*
X184023047Y-69451819D01*
X184023047Y-69451819D02*
X184118285Y-69404200D01*
X184118285Y-69404200D02*
X184165904Y-69356580D01*
X184165904Y-69356580D02*
X184213523Y-69261342D01*
X184213523Y-69261342D02*
X184213523Y-68451819D01*
X184642095Y-68547057D02*
X184689714Y-68499438D01*
X184689714Y-68499438D02*
X184784952Y-68451819D01*
X184784952Y-68451819D02*
X185023047Y-68451819D01*
X185023047Y-68451819D02*
X185118285Y-68499438D01*
X185118285Y-68499438D02*
X185165904Y-68547057D01*
X185165904Y-68547057D02*
X185213523Y-68642295D01*
X185213523Y-68642295D02*
X185213523Y-68737533D01*
X185213523Y-68737533D02*
X185165904Y-68880390D01*
X185165904Y-68880390D02*
X184594476Y-69451819D01*
X184594476Y-69451819D02*
X185213523Y-69451819D01*
X159218335Y-52810580D02*
X159170716Y-52858200D01*
X159170716Y-52858200D02*
X159027859Y-52905819D01*
X159027859Y-52905819D02*
X158932621Y-52905819D01*
X158932621Y-52905819D02*
X158789764Y-52858200D01*
X158789764Y-52858200D02*
X158694526Y-52762961D01*
X158694526Y-52762961D02*
X158646907Y-52667723D01*
X158646907Y-52667723D02*
X158599288Y-52477247D01*
X158599288Y-52477247D02*
X158599288Y-52334390D01*
X158599288Y-52334390D02*
X158646907Y-52143914D01*
X158646907Y-52143914D02*
X158694526Y-52048676D01*
X158694526Y-52048676D02*
X158789764Y-51953438D01*
X158789764Y-51953438D02*
X158932621Y-51905819D01*
X158932621Y-51905819D02*
X159027859Y-51905819D01*
X159027859Y-51905819D02*
X159170716Y-51953438D01*
X159170716Y-51953438D02*
X159218335Y-52001057D01*
X160170716Y-52905819D02*
X159599288Y-52905819D01*
X159885002Y-52905819D02*
X159885002Y-51905819D01*
X159885002Y-51905819D02*
X159789764Y-52048676D01*
X159789764Y-52048676D02*
X159694526Y-52143914D01*
X159694526Y-52143914D02*
X159599288Y-52191533D01*
D12*
%TO.C,R1*%
X184598000Y-66399000D02*
X184598000Y-67799000D01*
%TO.C,K2*%
X164069500Y-53506500D02*
X164069500Y-59006500D01*
X164069500Y-66506500D02*
X164069500Y-62006500D01*
X164219500Y-53506500D02*
X164069500Y-53506500D01*
X169219500Y-53506500D02*
X164219500Y-53506500D01*
D13*
X173705500Y-66962500D02*
X173705500Y-66962500D01*
X173758500Y-66962500D02*
X173758500Y-66962500D01*
D12*
X178069500Y-53506500D02*
X172219500Y-53506500D01*
X178069500Y-59006500D02*
X178069500Y-53506500D01*
X178069500Y-62006500D02*
X178069500Y-66506500D01*
X178069500Y-66506500D02*
X164069500Y-66506500D01*
D13*
X173705501Y-66961500D02*
G75*
G02*
X173758499Y-66962500I26499J-500D01*
G01*
X173758499Y-66961500D02*
G75*
G02*
X173705501Y-66962500I-26499J-500D01*
G01*
D14*
%TO.C,U3*%
X173398100Y-78917800D02*
X171198100Y-78917800D01*
X173398100Y-78917800D02*
X175598100Y-78917800D01*
X173398100Y-82137800D02*
X171198100Y-82137800D01*
X173398100Y-82137800D02*
X175598100Y-82137800D01*
X176538100Y-82292800D02*
X176058100Y-82292800D01*
X176298100Y-81962800D01*
X176538100Y-82292800D01*
G36*
X176538100Y-82292800D02*
G01*
X176058100Y-82292800D01*
X176298100Y-81962800D01*
X176538100Y-82292800D01*
G37*
D12*
%TO.C,NAND1*%
X174885000Y-73988000D02*
X175635000Y-73988000D01*
X174885000Y-76888000D02*
X174885000Y-73988000D01*
X175635000Y-73988000D02*
X175635000Y-76888000D01*
X175635000Y-76888000D02*
X174885000Y-76888000D01*
X177135000Y-76938000D02*
X175985000Y-76938000D01*
%TO.C,R6*%
X161275800Y-76479400D02*
X162675800Y-76479400D01*
%TO.C,R2*%
X179640000Y-75412000D02*
X181040000Y-75412000D01*
%TO.C,Q1*%
X175792000Y-72312000D02*
X175792000Y-71012000D01*
X175832000Y-70562000D02*
X178752000Y-70562000D01*
X175832000Y-70662000D02*
X175832000Y-70562000D01*
X178752000Y-70562000D02*
X178752000Y-70662000D01*
X178752000Y-70662000D02*
X175832000Y-70662000D01*
D15*
%TO.C,J1*%
X180288000Y-56971000D02*
X180288000Y-64441000D01*
X180288000Y-64441000D02*
X186638000Y-64441000D01*
X186638000Y-56971000D02*
X180288000Y-56971000D01*
X186638000Y-64441000D02*
X186638000Y-56971000D01*
D12*
X183388000Y-65006000D02*
G75*
G02*
X183188000Y-65006000I-100000J0D01*
G01*
X183188000Y-65006000D02*
G75*
G02*
X183388000Y-65006000I100000J0D01*
G01*
D15*
%TO.C,J3*%
X152602000Y-73227000D02*
X158952000Y-73227000D01*
X152602000Y-78157000D02*
X152602000Y-73227000D01*
X158952000Y-73227000D02*
X158952000Y-78157000D01*
X158952000Y-78157000D02*
X152602000Y-78157000D01*
D12*
X155802000Y-78962000D02*
G75*
G02*
X155602000Y-78962000I-100000J0D01*
G01*
X155602000Y-78962000D02*
G75*
G02*
X155802000Y-78962000I100000J0D01*
G01*
%TO.C,G1*%
X165511000Y-69300000D02*
X166661000Y-69300000D01*
X167011000Y-69350000D02*
X167761000Y-69350000D01*
X167011000Y-72250000D02*
X167011000Y-69350000D01*
X167761000Y-69350000D02*
X167761000Y-72250000D01*
X167761000Y-72250000D02*
X167011000Y-72250000D01*
%TO.C,R5*%
X179614000Y-82042000D02*
X181014000Y-82042000D01*
%TO.C,R7*%
X162622000Y-82143600D02*
X164022000Y-82143600D01*
D11*
%TO.C,U1*%
X151676000Y-60290000D02*
X151676000Y-71790000D01*
X151676000Y-71790000D02*
X159226000Y-71790000D01*
X159226000Y-60290000D02*
X151676000Y-60290000D01*
X159226000Y-71790000D02*
X159226000Y-60290000D01*
X159928000Y-69484000D02*
G75*
G02*
X159750000Y-69484000I-89000J0D01*
G01*
X159750000Y-69484000D02*
G75*
G02*
X159928000Y-69484000I89000J0D01*
G01*
D12*
%TO.C,R3*%
X163514000Y-70866000D02*
X162114000Y-70866000D01*
D14*
%TO.C,U2*%
X183694000Y-70087000D02*
X185104000Y-70087000D01*
X183704000Y-72407000D02*
X185104000Y-72407000D01*
X183324000Y-70137000D02*
X183084000Y-69807000D01*
X183564000Y-69807000D01*
X183324000Y-70137000D01*
G36*
X183324000Y-70137000D02*
G01*
X183084000Y-69807000D01*
X183564000Y-69807000D01*
X183324000Y-70137000D01*
G37*
%TO.C,C1*%
X158218000Y-56432888D02*
X156678000Y-56432888D01*
X158218000Y-56472888D02*
X156678000Y-56472888D01*
X158218000Y-56512888D02*
X156679000Y-56512888D01*
X158218000Y-56552888D02*
X156680000Y-56552888D01*
X158218000Y-56592888D02*
X156682000Y-56592888D01*
X158218000Y-56632888D02*
X156685000Y-56632888D01*
X158218000Y-56672888D02*
X156689000Y-56672888D01*
X158218000Y-56712888D02*
X156693000Y-56712888D01*
X158218000Y-56752888D02*
X156697000Y-56752888D01*
X158218000Y-56792888D02*
X156702000Y-56792888D01*
X158218000Y-56832888D02*
X156708000Y-56832888D01*
X158218000Y-56872888D02*
X156715000Y-56872888D01*
X158218000Y-56912888D02*
X156722000Y-56912888D01*
X158218000Y-56952888D02*
X156730000Y-56952888D01*
X158218000Y-56992888D02*
X156738000Y-56992888D01*
X158218000Y-57032888D02*
X156747000Y-57032888D01*
X158218000Y-57072888D02*
X156757000Y-57072888D01*
X158218000Y-57112888D02*
X156767000Y-57112888D01*
X158218000Y-57153888D02*
X156778000Y-57153888D01*
X158218000Y-57193888D02*
X156790000Y-57193888D01*
X158218000Y-57233888D02*
X156803000Y-57233888D01*
X158218000Y-57273888D02*
X156816000Y-57273888D01*
X158218000Y-57313888D02*
X156830000Y-57313888D01*
X158218000Y-57353888D02*
X156844000Y-57353888D01*
X158218000Y-57393888D02*
X156860000Y-57393888D01*
X158218000Y-57433888D02*
X156876000Y-57433888D01*
X158218000Y-57473888D02*
X156893000Y-57473888D01*
X158218000Y-57513888D02*
X156910000Y-57513888D01*
X158218000Y-57553888D02*
X156929000Y-57553888D01*
X158218000Y-57593888D02*
X156948000Y-57593888D01*
X158218000Y-57633888D02*
X156968000Y-57633888D01*
X158218000Y-57673888D02*
X156990000Y-57673888D01*
X158218000Y-57713888D02*
X157011000Y-57713888D01*
X158218000Y-57753888D02*
X157034000Y-57753888D01*
X158218000Y-57793888D02*
X157058000Y-57793888D01*
X158218000Y-57833888D02*
X157083000Y-57833888D01*
X158218000Y-57873888D02*
X157109000Y-57873888D01*
X158218000Y-57913888D02*
X157136000Y-57913888D01*
X158218000Y-57953888D02*
X157163000Y-57953888D01*
X158218000Y-57993888D02*
X157193000Y-57993888D01*
X158218000Y-58033888D02*
X157223000Y-58033888D01*
X158218000Y-58073888D02*
X157254000Y-58073888D01*
X158218000Y-58113888D02*
X157287000Y-58113888D01*
X158218000Y-58153888D02*
X157321000Y-58153888D01*
X158218000Y-58193888D02*
X157357000Y-58193888D01*
X158218000Y-58233888D02*
X157394000Y-58233888D01*
X158218000Y-58273888D02*
X157432000Y-58273888D01*
X158218000Y-58313888D02*
X157473000Y-58313888D01*
X158218000Y-58353888D02*
X157515000Y-58353888D01*
X158218000Y-58393888D02*
X157559000Y-58393888D01*
X158218000Y-58433888D02*
X157605000Y-58433888D01*
X159542000Y-59033888D02*
X158974000Y-59033888D01*
X159776000Y-58993888D02*
X158740000Y-58993888D01*
X159935000Y-58953888D02*
X158581000Y-58953888D01*
X160063000Y-58913888D02*
X158453000Y-58913888D01*
X160173000Y-58873888D02*
X158343000Y-58873888D01*
X160269000Y-58833888D02*
X158247000Y-58833888D01*
X160356000Y-58793888D02*
X158160000Y-58793888D01*
X160436000Y-58753888D02*
X158080000Y-58753888D01*
X160509000Y-58713888D02*
X158007000Y-58713888D01*
X160577000Y-58673888D02*
X157939000Y-58673888D01*
X160641000Y-58633888D02*
X157875000Y-58633888D01*
X160701000Y-58593888D02*
X157815000Y-58593888D01*
X160733000Y-53628113D02*
X160733000Y-54128113D01*
X160758000Y-58553888D02*
X157758000Y-58553888D01*
X160812000Y-58513888D02*
X157704000Y-58513888D01*
X160863000Y-58473888D02*
X157653000Y-58473888D01*
X160911000Y-58433888D02*
X160298000Y-58433888D01*
X160957000Y-58393888D02*
X160298000Y-58393888D01*
X160983000Y-53878113D02*
X160483000Y-53878113D01*
X161001000Y-58353888D02*
X160298000Y-58353888D01*
X161043000Y-58313888D02*
X160298000Y-58313888D01*
X161084000Y-58273888D02*
X160298000Y-58273888D01*
X161122000Y-58233888D02*
X160298000Y-58233888D01*
X161159000Y-58193888D02*
X160298000Y-58193888D01*
X161195000Y-58153888D02*
X160298000Y-58153888D01*
X161229000Y-58113888D02*
X160298000Y-58113888D01*
X161262000Y-58073888D02*
X160298000Y-58073888D01*
X161293000Y-58033888D02*
X160298000Y-58033888D01*
X161323000Y-57993888D02*
X160298000Y-57993888D01*
X161353000Y-57953888D02*
X160298000Y-57953888D01*
X161380000Y-57913888D02*
X160298000Y-57913888D01*
X161407000Y-57873888D02*
X160298000Y-57873888D01*
X161433000Y-57833888D02*
X160298000Y-57833888D01*
X161458000Y-57793888D02*
X160298000Y-57793888D01*
X161482000Y-57753888D02*
X160298000Y-57753888D01*
X161505000Y-57713888D02*
X160298000Y-57713888D01*
X161526000Y-57673888D02*
X160298000Y-57673888D01*
X161548000Y-57633888D02*
X160298000Y-57633888D01*
X161568000Y-57593888D02*
X160298000Y-57593888D01*
X161587000Y-57553888D02*
X160298000Y-57553888D01*
X161606000Y-57513888D02*
X160298000Y-57513888D01*
X161623000Y-57473888D02*
X160298000Y-57473888D01*
X161640000Y-57433888D02*
X160298000Y-57433888D01*
X161656000Y-57393888D02*
X160298000Y-57393888D01*
X161672000Y-57353888D02*
X160298000Y-57353888D01*
X161686000Y-57313888D02*
X160298000Y-57313888D01*
X161700000Y-57273888D02*
X160298000Y-57273888D01*
X161713000Y-57233888D02*
X160298000Y-57233888D01*
X161726000Y-57193888D02*
X160298000Y-57193888D01*
X161738000Y-57153888D02*
X160298000Y-57153888D01*
X161749000Y-57112888D02*
X160298000Y-57112888D01*
X161759000Y-57072888D02*
X160298000Y-57072888D01*
X161769000Y-57032888D02*
X160298000Y-57032888D01*
X161778000Y-56992888D02*
X160298000Y-56992888D01*
X161786000Y-56952888D02*
X160298000Y-56952888D01*
X161794000Y-56912888D02*
X160298000Y-56912888D01*
X161801000Y-56872888D02*
X160298000Y-56872888D01*
X161808000Y-56832888D02*
X160298000Y-56832888D01*
X161814000Y-56792888D02*
X160298000Y-56792888D01*
X161819000Y-56752888D02*
X160298000Y-56752888D01*
X161823000Y-56712888D02*
X160298000Y-56712888D01*
X161827000Y-56672888D02*
X160298000Y-56672888D01*
X161831000Y-56632888D02*
X160298000Y-56632888D01*
X161834000Y-56592888D02*
X160298000Y-56592888D01*
X161836000Y-56552888D02*
X160298000Y-56552888D01*
X161837000Y-56512888D02*
X160298000Y-56512888D01*
X161838000Y-56432888D02*
X160298000Y-56432888D01*
X161838000Y-56472888D02*
X160298000Y-56472888D01*
X161878000Y-56432888D02*
G75*
G02*
X156638000Y-56432888I-2620000J0D01*
G01*
X156638000Y-56432888D02*
G75*
G02*
X161878000Y-56432888I2620000J0D01*
G01*
%TD*%
M02*
