%TF.GenerationSoftware,KiCad,Pcbnew,(6.0.8)*%
%TF.CreationDate,2023-01-11T15:10:29+01:00*%
%TF.ProjectId,TSAL_Voltage_Sensor,5453414c-5f56-46f6-9c74-6167655f5365,rev?*%
%TF.SameCoordinates,Original*%
%TF.FileFunction,Legend,Top*%
%TF.FilePolarity,Positive*%
%FSLAX46Y46*%
G04 Gerber Fmt 4.6, Leading zero omitted, Abs format (unit mm)*
G04 Created by KiCad (PCBNEW (6.0.8)) date 2023-01-11 15:10:29*
%MOMM*%
%LPD*%
G01*
G04 APERTURE LIST*
%ADD10C,0.150000*%
%ADD11C,0.200000*%
%ADD12C,0.500000*%
%ADD13C,0.250000*%
%ADD14C,0.254000*%
%ADD15C,0.100000*%
%ADD16C,0.120000*%
%ADD17C,0.127000*%
G04 APERTURE END LIST*
D10*
X119380000Y-55880000D02*
X119380000Y-124460000D01*
X106680000Y-96520000D02*
X104140000Y-93980000D01*
X116840000Y-91440000D02*
X119380000Y-93980000D01*
X104140000Y-93980000D02*
X106680000Y-91440000D01*
X104140000Y-55880000D02*
X104140000Y-124460000D01*
X104140000Y-93980000D02*
X119380000Y-93980000D01*
X119380000Y-93980000D02*
X116840000Y-96520000D01*
X106680000Y-91440000D02*
X104140000Y-93980000D01*
D11*
X78597142Y-122522857D02*
X78692380Y-122237142D01*
X78787619Y-122141904D01*
X78978095Y-122046666D01*
X79263809Y-122046666D01*
X79454285Y-122141904D01*
X79549523Y-122237142D01*
X79644761Y-122427619D01*
X79644761Y-123189523D01*
X77644761Y-123189523D01*
X77644761Y-122522857D01*
X77740000Y-122332380D01*
X77835238Y-122237142D01*
X78025714Y-122141904D01*
X78216190Y-122141904D01*
X78406666Y-122237142D01*
X78501904Y-122332380D01*
X78597142Y-122522857D01*
X78597142Y-123189523D01*
X79644761Y-120332380D02*
X78597142Y-120332380D01*
X78406666Y-120427619D01*
X78311428Y-120618095D01*
X78311428Y-120999047D01*
X78406666Y-121189523D01*
X79549523Y-120332380D02*
X79644761Y-120522857D01*
X79644761Y-120999047D01*
X79549523Y-121189523D01*
X79359047Y-121284761D01*
X79168571Y-121284761D01*
X78978095Y-121189523D01*
X78882857Y-120999047D01*
X78882857Y-120522857D01*
X78787619Y-120332380D01*
X78311428Y-119665714D02*
X78311428Y-118903809D01*
X77644761Y-119380000D02*
X79359047Y-119380000D01*
X79549523Y-119284761D01*
X79644761Y-119094285D01*
X79644761Y-118903809D01*
X78311428Y-118522857D02*
X78311428Y-117760952D01*
X77644761Y-118237142D02*
X79359047Y-118237142D01*
X79549523Y-118141904D01*
X79644761Y-117951428D01*
X79644761Y-117760952D01*
X78882857Y-117094285D02*
X78882857Y-115570476D01*
X79644761Y-116332380D02*
X78120952Y-116332380D01*
D12*
X96774285Y-92337142D02*
X98488571Y-92337142D01*
X97631428Y-95337142D02*
X97631428Y-92337142D01*
X99345714Y-95194285D02*
X99774285Y-95337142D01*
X100488571Y-95337142D01*
X100774285Y-95194285D01*
X100917142Y-95051428D01*
X101060000Y-94765714D01*
X101060000Y-94480000D01*
X100917142Y-94194285D01*
X100774285Y-94051428D01*
X100488571Y-93908571D01*
X99917142Y-93765714D01*
X99631428Y-93622857D01*
X99488571Y-93480000D01*
X99345714Y-93194285D01*
X99345714Y-92908571D01*
X99488571Y-92622857D01*
X99631428Y-92480000D01*
X99917142Y-92337142D01*
X100631428Y-92337142D01*
X101060000Y-92480000D01*
D13*
X79486808Y-58281232D02*
X80153475Y-58281232D01*
X80439189Y-59328851D02*
X79486808Y-59328851D01*
X79486808Y-57328851D01*
X80439189Y-57328851D01*
X81296332Y-59328851D02*
X81296332Y-57328851D01*
X82058236Y-57328851D01*
X82248713Y-57424090D01*
X82343951Y-57519328D01*
X82439189Y-57709804D01*
X82439189Y-57995518D01*
X82343951Y-58185994D01*
X82248713Y-58281232D01*
X82058236Y-58376470D01*
X81296332Y-58376470D01*
X83201094Y-59233613D02*
X83486808Y-59328851D01*
X83962998Y-59328851D01*
X84153475Y-59233613D01*
X84248713Y-59138375D01*
X84343951Y-58947899D01*
X84343951Y-58757423D01*
X84248713Y-58566947D01*
X84153475Y-58471709D01*
X83962998Y-58376470D01*
X83582046Y-58281232D01*
X83391570Y-58185994D01*
X83296332Y-58090756D01*
X83201094Y-57900280D01*
X83201094Y-57709804D01*
X83296332Y-57519328D01*
X83391570Y-57424090D01*
X83582046Y-57328851D01*
X84058236Y-57328851D01*
X84343951Y-57424090D01*
X85105855Y-58757423D02*
X86058236Y-58757423D01*
X84915379Y-59328851D02*
X85582046Y-57328851D01*
X86248713Y-59328851D01*
X88153475Y-57328851D02*
X89296332Y-57328851D01*
X88724903Y-59328851D02*
X88724903Y-57328851D01*
X89867760Y-59233613D02*
X90153475Y-59328851D01*
X90629665Y-59328851D01*
X90820141Y-59233613D01*
X90915379Y-59138375D01*
X91010617Y-58947899D01*
X91010617Y-58757423D01*
X90915379Y-58566947D01*
X90820141Y-58471709D01*
X90629665Y-58376470D01*
X90248713Y-58281232D01*
X90058236Y-58185994D01*
X89962998Y-58090756D01*
X89867760Y-57900280D01*
X89867760Y-57709804D01*
X89962998Y-57519328D01*
X90058236Y-57424090D01*
X90248713Y-57328851D01*
X90724903Y-57328851D01*
X91010617Y-57424090D01*
X91772522Y-58757423D02*
X92724903Y-58757423D01*
X91582046Y-59328851D02*
X92248713Y-57328851D01*
X92915379Y-59328851D01*
X94534427Y-59328851D02*
X93582046Y-59328851D01*
X93582046Y-57328851D01*
X96439189Y-57328851D02*
X97105855Y-59328851D01*
X97772522Y-57328851D01*
X98724903Y-59328851D02*
X98534427Y-59233613D01*
X98439189Y-59138375D01*
X98343951Y-58947899D01*
X98343951Y-58376470D01*
X98439189Y-58185994D01*
X98534427Y-58090756D01*
X98724903Y-57995518D01*
X99010617Y-57995518D01*
X99201094Y-58090756D01*
X99296332Y-58185994D01*
X99391570Y-58376470D01*
X99391570Y-58947899D01*
X99296332Y-59138375D01*
X99201094Y-59233613D01*
X99010617Y-59328851D01*
X98724903Y-59328851D01*
X100534427Y-59328851D02*
X100343951Y-59233613D01*
X100248713Y-59043137D01*
X100248713Y-57328851D01*
X101010617Y-57995518D02*
X101772522Y-57995518D01*
X101296332Y-57328851D02*
X101296332Y-59043137D01*
X101391570Y-59233613D01*
X101582046Y-59328851D01*
X101772522Y-59328851D01*
X103296332Y-59328851D02*
X103296332Y-58281232D01*
X103201094Y-58090756D01*
X103010617Y-57995518D01*
X102629665Y-57995518D01*
X102439189Y-58090756D01*
X103296332Y-59233613D02*
X103105855Y-59328851D01*
X102629665Y-59328851D01*
X102439189Y-59233613D01*
X102343951Y-59043137D01*
X102343951Y-58852661D01*
X102439189Y-58662185D01*
X102629665Y-58566947D01*
X103105855Y-58566947D01*
X103296332Y-58471709D01*
X105105855Y-57995518D02*
X105105855Y-59614566D01*
X105010617Y-59805042D01*
X104915379Y-59900280D01*
X104724903Y-59995518D01*
X104439189Y-59995518D01*
X104248713Y-59900280D01*
X105105855Y-59233613D02*
X104915379Y-59328851D01*
X104534427Y-59328851D01*
X104343951Y-59233613D01*
X104248713Y-59138375D01*
X104153475Y-58947899D01*
X104153475Y-58376470D01*
X104248713Y-58185994D01*
X104343951Y-58090756D01*
X104534427Y-57995518D01*
X104915379Y-57995518D01*
X105105855Y-58090756D01*
X106820141Y-59233613D02*
X106629665Y-59328851D01*
X106248713Y-59328851D01*
X106058236Y-59233613D01*
X105962998Y-59043137D01*
X105962998Y-58281232D01*
X106058236Y-58090756D01*
X106248713Y-57995518D01*
X106629665Y-57995518D01*
X106820141Y-58090756D01*
X106915379Y-58281232D01*
X106915379Y-58471709D01*
X105962998Y-58662185D01*
X109296332Y-59328851D02*
X109296332Y-57328851D01*
X109772522Y-57328851D01*
X110058236Y-57424090D01*
X110248713Y-57614566D01*
X110343951Y-57805042D01*
X110439189Y-58185994D01*
X110439189Y-58471709D01*
X110343951Y-58852661D01*
X110248713Y-59043137D01*
X110058236Y-59233613D01*
X109772522Y-59328851D01*
X109296332Y-59328851D01*
X112058236Y-59233613D02*
X111867760Y-59328851D01*
X111486808Y-59328851D01*
X111296332Y-59233613D01*
X111201094Y-59043137D01*
X111201094Y-58281232D01*
X111296332Y-58090756D01*
X111486808Y-57995518D01*
X111867760Y-57995518D01*
X112058236Y-58090756D01*
X112153474Y-58281232D01*
X112153474Y-58471709D01*
X111201094Y-58662185D01*
X112724903Y-57995518D02*
X113486808Y-57995518D01*
X113010617Y-57328851D02*
X113010617Y-59043137D01*
X113105855Y-59233613D01*
X113296332Y-59328851D01*
X113486808Y-59328851D01*
X114915379Y-59233613D02*
X114724903Y-59328851D01*
X114343951Y-59328851D01*
X114153475Y-59233613D01*
X114058236Y-59043137D01*
X114058236Y-58281232D01*
X114153475Y-58090756D01*
X114343951Y-57995518D01*
X114724903Y-57995518D01*
X114915379Y-58090756D01*
X115010617Y-58281232D01*
X115010617Y-58471709D01*
X114058236Y-58662185D01*
X116724903Y-59233613D02*
X116534427Y-59328851D01*
X116153475Y-59328851D01*
X115962998Y-59233613D01*
X115867760Y-59138375D01*
X115772522Y-58947899D01*
X115772522Y-58376470D01*
X115867760Y-58185994D01*
X115962998Y-58090756D01*
X116153475Y-57995518D01*
X116534427Y-57995518D01*
X116724903Y-58090756D01*
X117296332Y-57995518D02*
X118058236Y-57995518D01*
X117582046Y-57328851D02*
X117582046Y-59043137D01*
X117677284Y-59233613D01*
X117867760Y-59328851D01*
X118058236Y-59328851D01*
X119010617Y-59328851D02*
X118820141Y-59233613D01*
X118724903Y-59138375D01*
X118629665Y-58947899D01*
X118629665Y-58376470D01*
X118724903Y-58185994D01*
X118820141Y-58090756D01*
X119010617Y-57995518D01*
X119296332Y-57995518D01*
X119486808Y-58090756D01*
X119582046Y-58185994D01*
X119677284Y-58376470D01*
X119677284Y-58947899D01*
X119582046Y-59138375D01*
X119486808Y-59233613D01*
X119296332Y-59328851D01*
X119010617Y-59328851D01*
X120534427Y-59328851D02*
X120534427Y-57995518D01*
X120534427Y-58376470D02*
X120629665Y-58185994D01*
X120724903Y-58090756D01*
X120915379Y-57995518D01*
X121105855Y-57995518D01*
X123010617Y-57328851D02*
X123677284Y-59328851D01*
X124343951Y-57328851D01*
X126058236Y-59328851D02*
X124915379Y-59328851D01*
X125486808Y-59328851D02*
X125486808Y-57328851D01*
X125296332Y-57614566D01*
X125105855Y-57805042D01*
X124915379Y-57900280D01*
X126915379Y-59138375D02*
X127010617Y-59233613D01*
X126915379Y-59328851D01*
X126820141Y-59233613D01*
X126915379Y-59138375D01*
X126915379Y-59328851D01*
X128248713Y-57328851D02*
X128439189Y-57328851D01*
X128629665Y-57424090D01*
X128724903Y-57519328D01*
X128820141Y-57709804D01*
X128915379Y-58090756D01*
X128915379Y-58566947D01*
X128820141Y-58947899D01*
X128724903Y-59138375D01*
X128629665Y-59233613D01*
X128439189Y-59328851D01*
X128248713Y-59328851D01*
X128058236Y-59233613D01*
X127962998Y-59138375D01*
X127867760Y-58947899D01*
X127772522Y-58566947D01*
X127772522Y-58090756D01*
X127867760Y-57709804D01*
X127962998Y-57519328D01*
X128058236Y-57424090D01*
X128248713Y-57328851D01*
D10*
X108998095Y-96119761D02*
X109140952Y-96167380D01*
X109379047Y-96167380D01*
X109474285Y-96119761D01*
X109521904Y-96072142D01*
X109569523Y-95976904D01*
X109569523Y-95881666D01*
X109521904Y-95786428D01*
X109474285Y-95738809D01*
X109379047Y-95691190D01*
X109188571Y-95643571D01*
X109093333Y-95595952D01*
X109045714Y-95548333D01*
X108998095Y-95453095D01*
X108998095Y-95357857D01*
X109045714Y-95262619D01*
X109093333Y-95215000D01*
X109188571Y-95167380D01*
X109426666Y-95167380D01*
X109569523Y-95215000D01*
X109998095Y-95500714D02*
X109998095Y-96500714D01*
X109998095Y-95548333D02*
X110093333Y-95500714D01*
X110283809Y-95500714D01*
X110379047Y-95548333D01*
X110426666Y-95595952D01*
X110474285Y-95691190D01*
X110474285Y-95976904D01*
X110426666Y-96072142D01*
X110379047Y-96119761D01*
X110283809Y-96167380D01*
X110093333Y-96167380D01*
X109998095Y-96119761D01*
X111331428Y-96167380D02*
X111331428Y-95643571D01*
X111283809Y-95548333D01*
X111188571Y-95500714D01*
X110998095Y-95500714D01*
X110902857Y-95548333D01*
X111331428Y-96119761D02*
X111236190Y-96167380D01*
X110998095Y-96167380D01*
X110902857Y-96119761D01*
X110855238Y-96024523D01*
X110855238Y-95929285D01*
X110902857Y-95834047D01*
X110998095Y-95786428D01*
X111236190Y-95786428D01*
X111331428Y-95738809D01*
X112236190Y-96119761D02*
X112140952Y-96167380D01*
X111950476Y-96167380D01*
X111855238Y-96119761D01*
X111807619Y-96072142D01*
X111760000Y-95976904D01*
X111760000Y-95691190D01*
X111807619Y-95595952D01*
X111855238Y-95548333D01*
X111950476Y-95500714D01*
X112140952Y-95500714D01*
X112236190Y-95548333D01*
X112664761Y-96167380D02*
X112664761Y-95500714D01*
X112664761Y-95167380D02*
X112617142Y-95215000D01*
X112664761Y-95262619D01*
X112712380Y-95215000D01*
X112664761Y-95167380D01*
X112664761Y-95262619D01*
X113140952Y-95500714D02*
X113140952Y-96167380D01*
X113140952Y-95595952D02*
X113188571Y-95548333D01*
X113283809Y-95500714D01*
X113426666Y-95500714D01*
X113521904Y-95548333D01*
X113569523Y-95643571D01*
X113569523Y-96167380D01*
X114474285Y-95500714D02*
X114474285Y-96310238D01*
X114426666Y-96405476D01*
X114379047Y-96453095D01*
X114283809Y-96500714D01*
X114140952Y-96500714D01*
X114045714Y-96453095D01*
X114474285Y-96119761D02*
X114379047Y-96167380D01*
X114188571Y-96167380D01*
X114093333Y-96119761D01*
X114045714Y-96072142D01*
X113998095Y-95976904D01*
X113998095Y-95691190D01*
X114045714Y-95595952D01*
X114093333Y-95548333D01*
X114188571Y-95500714D01*
X114379047Y-95500714D01*
X114474285Y-95548333D01*
X107545714Y-97777380D02*
X107545714Y-97110714D01*
X107545714Y-97301190D02*
X107593333Y-97205952D01*
X107640952Y-97158333D01*
X107736190Y-97110714D01*
X107831428Y-97110714D01*
X108545714Y-97729761D02*
X108450476Y-97777380D01*
X108260000Y-97777380D01*
X108164761Y-97729761D01*
X108117142Y-97634523D01*
X108117142Y-97253571D01*
X108164761Y-97158333D01*
X108260000Y-97110714D01*
X108450476Y-97110714D01*
X108545714Y-97158333D01*
X108593333Y-97253571D01*
X108593333Y-97348809D01*
X108117142Y-97444047D01*
X109450476Y-97110714D02*
X109450476Y-98110714D01*
X109450476Y-97729761D02*
X109355238Y-97777380D01*
X109164761Y-97777380D01*
X109069523Y-97729761D01*
X109021904Y-97682142D01*
X108974285Y-97586904D01*
X108974285Y-97301190D01*
X109021904Y-97205952D01*
X109069523Y-97158333D01*
X109164761Y-97110714D01*
X109355238Y-97110714D01*
X109450476Y-97158333D01*
X110355238Y-97110714D02*
X110355238Y-97777380D01*
X109926666Y-97110714D02*
X109926666Y-97634523D01*
X109974285Y-97729761D01*
X110069523Y-97777380D01*
X110212380Y-97777380D01*
X110307619Y-97729761D01*
X110355238Y-97682142D01*
X110831428Y-97777380D02*
X110831428Y-97110714D01*
X110831428Y-96777380D02*
X110783809Y-96825000D01*
X110831428Y-96872619D01*
X110879047Y-96825000D01*
X110831428Y-96777380D01*
X110831428Y-96872619D01*
X111307619Y-97777380D02*
X111307619Y-97110714D01*
X111307619Y-97301190D02*
X111355238Y-97205952D01*
X111402857Y-97158333D01*
X111498095Y-97110714D01*
X111593333Y-97110714D01*
X112307619Y-97729761D02*
X112212380Y-97777380D01*
X112021904Y-97777380D01*
X111926666Y-97729761D01*
X111879047Y-97634523D01*
X111879047Y-97253571D01*
X111926666Y-97158333D01*
X112021904Y-97110714D01*
X112212380Y-97110714D01*
X112307619Y-97158333D01*
X112355238Y-97253571D01*
X112355238Y-97348809D01*
X111879047Y-97444047D01*
X112783809Y-97777380D02*
X112783809Y-97110714D01*
X112783809Y-97205952D02*
X112831428Y-97158333D01*
X112926666Y-97110714D01*
X113069523Y-97110714D01*
X113164761Y-97158333D01*
X113212380Y-97253571D01*
X113212380Y-97777380D01*
X113212380Y-97253571D02*
X113260000Y-97158333D01*
X113355238Y-97110714D01*
X113498095Y-97110714D01*
X113593333Y-97158333D01*
X113640952Y-97253571D01*
X113640952Y-97777380D01*
X114498095Y-97729761D02*
X114402857Y-97777380D01*
X114212380Y-97777380D01*
X114117142Y-97729761D01*
X114069523Y-97634523D01*
X114069523Y-97253571D01*
X114117142Y-97158333D01*
X114212380Y-97110714D01*
X114402857Y-97110714D01*
X114498095Y-97158333D01*
X114545714Y-97253571D01*
X114545714Y-97348809D01*
X114069523Y-97444047D01*
X114974285Y-97110714D02*
X114974285Y-97777380D01*
X114974285Y-97205952D02*
X115021904Y-97158333D01*
X115117142Y-97110714D01*
X115260000Y-97110714D01*
X115355238Y-97158333D01*
X115402857Y-97253571D01*
X115402857Y-97777380D01*
X115736190Y-97110714D02*
X116117142Y-97110714D01*
X115879047Y-96777380D02*
X115879047Y-97634523D01*
X115926666Y-97729761D01*
X116021904Y-97777380D01*
X116117142Y-97777380D01*
D11*
X78597142Y-66642857D02*
X78692380Y-66357142D01*
X78787619Y-66261904D01*
X78978095Y-66166666D01*
X79263809Y-66166666D01*
X79454285Y-66261904D01*
X79549523Y-66357142D01*
X79644761Y-66547619D01*
X79644761Y-67309523D01*
X77644761Y-67309523D01*
X77644761Y-66642857D01*
X77740000Y-66452380D01*
X77835238Y-66357142D01*
X78025714Y-66261904D01*
X78216190Y-66261904D01*
X78406666Y-66357142D01*
X78501904Y-66452380D01*
X78597142Y-66642857D01*
X78597142Y-67309523D01*
X79644761Y-64452380D02*
X78597142Y-64452380D01*
X78406666Y-64547619D01*
X78311428Y-64738095D01*
X78311428Y-65119047D01*
X78406666Y-65309523D01*
X79549523Y-64452380D02*
X79644761Y-64642857D01*
X79644761Y-65119047D01*
X79549523Y-65309523D01*
X79359047Y-65404761D01*
X79168571Y-65404761D01*
X78978095Y-65309523D01*
X78882857Y-65119047D01*
X78882857Y-64642857D01*
X78787619Y-64452380D01*
X78311428Y-63785714D02*
X78311428Y-63023809D01*
X77644761Y-63500000D02*
X79359047Y-63500000D01*
X79549523Y-63404761D01*
X79644761Y-63214285D01*
X79644761Y-63023809D01*
X78311428Y-62642857D02*
X78311428Y-61880952D01*
X77644761Y-62357142D02*
X79359047Y-62357142D01*
X79549523Y-62261904D01*
X79644761Y-62071428D01*
X79644761Y-61880952D01*
X78882857Y-61214285D02*
X78882857Y-59690476D01*
D12*
X124102857Y-97877142D02*
X122674285Y-97877142D01*
X122674285Y-94877142D01*
X124674285Y-94877142D02*
X125674285Y-97877142D01*
X126674285Y-94877142D01*
D14*
%TO.C,RV1*%
X92906109Y-63115952D02*
X92301347Y-63539285D01*
X92906109Y-63841666D02*
X91636109Y-63841666D01*
X91636109Y-63357857D01*
X91696586Y-63236904D01*
X91757062Y-63176428D01*
X91878014Y-63115952D01*
X92059443Y-63115952D01*
X92180395Y-63176428D01*
X92240871Y-63236904D01*
X92301347Y-63357857D01*
X92301347Y-63841666D01*
X91636109Y-62753095D02*
X92906109Y-62329761D01*
X91636109Y-61906428D01*
X92906109Y-60817857D02*
X92906109Y-61543571D01*
X92906109Y-61180714D02*
X91636109Y-61180714D01*
X91817538Y-61301666D01*
X91938490Y-61422619D01*
X91998966Y-61543571D01*
D10*
%TO.C,Z1*%
X86352380Y-71929523D02*
X86352380Y-71262857D01*
X87352380Y-71929523D01*
X87352380Y-71262857D01*
X87352380Y-70358095D02*
X87352380Y-70929523D01*
X87352380Y-70643809D02*
X86352380Y-70643809D01*
X86495238Y-70739047D01*
X86590476Y-70834285D01*
X86638095Y-70929523D01*
%TO.C,*%
D14*
%TO.C,K1*%
X117414523Y-84757380D02*
X116144523Y-84757380D01*
X117414523Y-84031666D02*
X116688809Y-84575952D01*
X116144523Y-84031666D02*
X116870238Y-84757380D01*
X117414523Y-82822142D02*
X117414523Y-83547857D01*
X117414523Y-83185000D02*
X116144523Y-83185000D01*
X116325952Y-83305952D01*
X116446904Y-83426904D01*
X116507380Y-83547857D01*
%TO.C,CP1*%
X93237321Y-77084941D02*
X93176845Y-77145417D01*
X92995416Y-77205893D01*
X92874464Y-77205893D01*
X92693035Y-77145417D01*
X92572083Y-77024465D01*
X92511607Y-76903512D01*
X92451130Y-76661608D01*
X92451130Y-76480179D01*
X92511607Y-76238274D01*
X92572083Y-76117322D01*
X92693035Y-75996370D01*
X92874464Y-75935893D01*
X92995416Y-75935893D01*
X93176845Y-75996370D01*
X93237321Y-76056846D01*
X93781607Y-77205893D02*
X93781607Y-75935893D01*
X94265416Y-75935893D01*
X94386368Y-75996370D01*
X94446845Y-76056846D01*
X94507321Y-76177798D01*
X94507321Y-76359227D01*
X94446845Y-76480179D01*
X94386368Y-76540655D01*
X94265416Y-76601131D01*
X93781607Y-76601131D01*
X95716845Y-77205893D02*
X94991130Y-77205893D01*
X95353988Y-77205893D02*
X95353988Y-75935893D01*
X95233035Y-76117322D01*
X95112083Y-76238274D01*
X94991130Y-76298750D01*
%TO.C,R7*%
X124248333Y-92014523D02*
X123825000Y-91409761D01*
X123522619Y-92014523D02*
X123522619Y-90744523D01*
X124006428Y-90744523D01*
X124127380Y-90805000D01*
X124187857Y-90865476D01*
X124248333Y-90986428D01*
X124248333Y-91167857D01*
X124187857Y-91288809D01*
X124127380Y-91349285D01*
X124006428Y-91409761D01*
X123522619Y-91409761D01*
X124671666Y-90744523D02*
X125518333Y-90744523D01*
X124974047Y-92014523D01*
D10*
%TO.C,J1*%
X126824333Y-84241666D02*
X127824333Y-84241666D01*
X128024333Y-84308333D01*
X128157666Y-84441666D01*
X128224333Y-84641666D01*
X128224333Y-84775000D01*
X128224333Y-82841666D02*
X128224333Y-83641666D01*
X128224333Y-83241666D02*
X126824333Y-83241666D01*
X127024333Y-83375000D01*
X127157666Y-83508333D01*
X127224333Y-83641666D01*
D14*
%TO.C,R5*%
X79314523Y-71331666D02*
X78709761Y-71755000D01*
X79314523Y-72057380D02*
X78044523Y-72057380D01*
X78044523Y-71573571D01*
X78105000Y-71452619D01*
X78165476Y-71392142D01*
X78286428Y-71331666D01*
X78467857Y-71331666D01*
X78588809Y-71392142D01*
X78649285Y-71452619D01*
X78709761Y-71573571D01*
X78709761Y-72057380D01*
X78044523Y-70182619D02*
X78044523Y-70787380D01*
X78649285Y-70847857D01*
X78588809Y-70787380D01*
X78528333Y-70666428D01*
X78528333Y-70364047D01*
X78588809Y-70243095D01*
X78649285Y-70182619D01*
X78770238Y-70122142D01*
X79072619Y-70122142D01*
X79193571Y-70182619D01*
X79254047Y-70243095D01*
X79314523Y-70364047D01*
X79314523Y-70666428D01*
X79254047Y-70787380D01*
X79193571Y-70847857D01*
%TO.C,F1*%
X83248402Y-88724218D02*
X83248402Y-89147551D01*
X83913640Y-89147551D02*
X82643640Y-89147551D01*
X82643640Y-88542789D01*
X83913640Y-87393742D02*
X83913640Y-88119456D01*
X83913640Y-87756599D02*
X82643640Y-87756599D01*
X82825069Y-87877551D01*
X82946021Y-87998504D01*
X83006497Y-88119456D01*
%TO.C,R6*%
X98835446Y-72913964D02*
X98412113Y-72309202D01*
X98109732Y-72913964D02*
X98109732Y-71643964D01*
X98593541Y-71643964D01*
X98714493Y-71704441D01*
X98774970Y-71764917D01*
X98835446Y-71885869D01*
X98835446Y-72067298D01*
X98774970Y-72188250D01*
X98714493Y-72248726D01*
X98593541Y-72309202D01*
X98109732Y-72309202D01*
X99924017Y-71643964D02*
X99682113Y-71643964D01*
X99561160Y-71704441D01*
X99500684Y-71764917D01*
X99379732Y-71946345D01*
X99319255Y-72188250D01*
X99319255Y-72672060D01*
X99379732Y-72793012D01*
X99440208Y-72853488D01*
X99561160Y-72913964D01*
X99803065Y-72913964D01*
X99924017Y-72853488D01*
X99984493Y-72793012D01*
X100044970Y-72672060D01*
X100044970Y-72369679D01*
X99984493Y-72248726D01*
X99924017Y-72188250D01*
X99803065Y-72127774D01*
X99561160Y-72127774D01*
X99440208Y-72188250D01*
X99379732Y-72248726D01*
X99319255Y-72369679D01*
%TO.C,C1*%
X93127922Y-69840158D02*
X93067446Y-69900634D01*
X92886017Y-69961110D01*
X92765065Y-69961110D01*
X92583636Y-69900634D01*
X92462684Y-69779682D01*
X92402208Y-69658729D01*
X92341731Y-69416825D01*
X92341731Y-69235396D01*
X92402208Y-68993491D01*
X92462684Y-68872539D01*
X92583636Y-68751587D01*
X92765065Y-68691110D01*
X92886017Y-68691110D01*
X93067446Y-68751587D01*
X93127922Y-68812063D01*
X94337446Y-69961110D02*
X93611731Y-69961110D01*
X93974589Y-69961110D02*
X93974589Y-68691110D01*
X93853636Y-68872539D01*
X93732684Y-68993491D01*
X93611731Y-69053967D01*
D10*
%TO.C,*%
%TO.C,R1*%
X99657686Y-110084488D02*
X99181496Y-110417822D01*
X99657686Y-110655917D02*
X98657686Y-110655917D01*
X98657686Y-110274964D01*
X98705306Y-110179726D01*
X98752925Y-110132107D01*
X98848163Y-110084488D01*
X98991020Y-110084488D01*
X99086258Y-110132107D01*
X99133877Y-110179726D01*
X99181496Y-110274964D01*
X99181496Y-110655917D01*
X99657686Y-109132107D02*
X99657686Y-109703536D01*
X99657686Y-109417822D02*
X98657686Y-109417822D01*
X98800544Y-109513060D01*
X98895782Y-109608298D01*
X98943401Y-109703536D01*
D14*
%TO.C,PS1*%
X115297857Y-71694523D02*
X115297857Y-70424523D01*
X115781666Y-70424523D01*
X115902619Y-70485000D01*
X115963095Y-70545476D01*
X116023571Y-70666428D01*
X116023571Y-70847857D01*
X115963095Y-70968809D01*
X115902619Y-71029285D01*
X115781666Y-71089761D01*
X115297857Y-71089761D01*
X116507380Y-71634047D02*
X116688809Y-71694523D01*
X116991190Y-71694523D01*
X117112142Y-71634047D01*
X117172619Y-71573571D01*
X117233095Y-71452619D01*
X117233095Y-71331666D01*
X117172619Y-71210714D01*
X117112142Y-71150238D01*
X116991190Y-71089761D01*
X116749285Y-71029285D01*
X116628333Y-70968809D01*
X116567857Y-70908333D01*
X116507380Y-70787380D01*
X116507380Y-70666428D01*
X116567857Y-70545476D01*
X116628333Y-70485000D01*
X116749285Y-70424523D01*
X117051666Y-70424523D01*
X117233095Y-70485000D01*
X118442619Y-71694523D02*
X117716904Y-71694523D01*
X118079761Y-71694523D02*
X118079761Y-70424523D01*
X117958809Y-70605952D01*
X117837857Y-70726904D01*
X117716904Y-70787380D01*
D11*
%TO.C,RV1*%
X103825000Y-67190000D02*
X103825000Y-62360000D01*
D15*
X104300000Y-63500000D02*
X104300000Y-63500000D01*
D11*
X94295000Y-67190000D02*
X103825000Y-67190000D01*
X94295000Y-62360000D02*
X94295000Y-67190000D01*
X103825000Y-62360000D02*
X94295000Y-62360000D01*
D15*
X104400000Y-63500000D02*
X104400000Y-63500000D01*
X104400000Y-63500000D02*
G75*
G03*
X104300000Y-63500000I-50000J0D01*
G01*
X104300000Y-63500000D02*
G75*
G03*
X104400000Y-63500000I50000J0D01*
G01*
D16*
%TO.C,Z1*%
X89900000Y-73670000D02*
X89900000Y-69370000D01*
X87900000Y-69370000D02*
X87900000Y-73670000D01*
X87900000Y-73670000D02*
X89900000Y-73670000D01*
D15*
%TO.C,K1*%
X113665000Y-76454000D02*
X120015000Y-76454000D01*
X120015000Y-76454000D02*
X120015000Y-81026000D01*
X113665000Y-81026000D02*
X113665000Y-76454000D01*
X112440000Y-76540000D02*
X112440000Y-76540000D01*
X112440000Y-76640000D02*
X112440000Y-76640000D01*
X120015000Y-81026000D02*
X113665000Y-81026000D01*
X112440000Y-76640000D02*
G75*
G03*
X112440000Y-76540000I0J50000D01*
G01*
X112440000Y-76540000D02*
G75*
G03*
X112440000Y-76640000I0J-50000D01*
G01*
D11*
%TO.C,CP1*%
X93605000Y-72210000D02*
X94355000Y-72210000D01*
X94355000Y-75110000D02*
X93605000Y-75110000D01*
X93605000Y-75110000D02*
X93605000Y-72210000D01*
X92105000Y-72160000D02*
X93255000Y-72160000D01*
X94355000Y-72210000D02*
X94355000Y-75110000D01*
%TO.C,R7*%
X124460000Y-89600000D02*
X124460000Y-88200000D01*
D17*
%TO.C,J1*%
X135330000Y-80085000D02*
X128980000Y-80085000D01*
X128980000Y-87555000D02*
X135330000Y-87555000D01*
X128980000Y-80085000D02*
X128980000Y-87555000D01*
X135330000Y-87555000D02*
X135330000Y-80085000D01*
D11*
X132080000Y-88120000D02*
G75*
G03*
X132080000Y-88120000I-100000J0D01*
G01*
%TO.C,R5*%
X81980000Y-71120000D02*
X80580000Y-71120000D01*
D15*
%TO.C,F1*%
X88039117Y-76100885D02*
X85339117Y-76100885D01*
X81339117Y-100500885D02*
X78639117Y-100500885D01*
X85339117Y-100500885D02*
X88039117Y-100500885D01*
X78639117Y-100500885D02*
X78639117Y-76100885D01*
X78639117Y-76100885D02*
X81339117Y-76100885D01*
X88039117Y-100500885D02*
X88039117Y-76100885D01*
D11*
%TO.C,R6*%
X99035212Y-70499441D02*
X99035212Y-69099441D01*
D16*
%TO.C,R1*%
X91965306Y-118537822D02*
X98205306Y-118537822D01*
X98205306Y-118537822D02*
X98205306Y-101297822D01*
X91965306Y-101297822D02*
X91965306Y-118537822D01*
X95085306Y-101197822D02*
X95085306Y-101297822D01*
X95085306Y-118637822D02*
X95085306Y-118537822D01*
X98205306Y-101297822D02*
X91965306Y-101297822D01*
D11*
%TO.C,PS1*%
X123190000Y-69815000D02*
X123190000Y-69815000D01*
D15*
X107015000Y-62165000D02*
X107015000Y-69215000D01*
X126665000Y-69215000D02*
X126665000Y-62165000D01*
X126665000Y-62165000D02*
X107015000Y-62165000D01*
D11*
X123390000Y-69815000D02*
X123390000Y-69815000D01*
X123390000Y-69815000D02*
G75*
G03*
X123190000Y-69815000I-100000J0D01*
G01*
X123190000Y-69815000D02*
G75*
G03*
X123390000Y-69815000I100000J0D01*
G01*
%TD*%
M02*
