%TF.GenerationSoftware,KiCad,Pcbnew,8.0.0*%
%TF.CreationDate,2024-06-23T14:13:46+02:00*%
%TF.ProjectId,SCS TSAL Red LED,53435320-5453-4414-9c20-526564204c45,rev?*%
%TF.SameCoordinates,Original*%
%TF.FileFunction,Copper,L1,Top*%
%TF.FilePolarity,Positive*%
%FSLAX46Y46*%
G04 Gerber Fmt 4.6, Leading zero omitted, Abs format (unit mm)*
G04 Created by KiCad (PCBNEW 8.0.0) date 2024-06-23 14:13:46*
%MOMM*%
%LPD*%
G01*
G04 APERTURE LIST*
G04 Aperture macros list*
%AMRoundRect*
0 Rectangle with rounded corners*
0 $1 Rounding radius*
0 $2 $3 $4 $5 $6 $7 $8 $9 X,Y pos of 4 corners*
0 Add a 4 corners polygon primitive as box body*
4,1,4,$2,$3,$4,$5,$6,$7,$8,$9,$2,$3,0*
0 Add four circle primitives for the rounded corners*
1,1,$1+$1,$2,$3*
1,1,$1+$1,$4,$5*
1,1,$1+$1,$6,$7*
1,1,$1+$1,$8,$9*
0 Add four rect primitives between the rounded corners*
20,1,$1+$1,$2,$3,$4,$5,0*
20,1,$1+$1,$4,$5,$6,$7,0*
20,1,$1+$1,$6,$7,$8,$9,0*
20,1,$1+$1,$8,$9,$2,$3,0*%
G04 Aperture macros list end*
%TA.AperFunction,SMDPad,CuDef*%
%ADD10RoundRect,0.100000X0.100000X-0.637500X0.100000X0.637500X-0.100000X0.637500X-0.100000X-0.637500X0*%
%TD*%
%TA.AperFunction,SMDPad,CuDef*%
%ADD11R,1.050000X1.800000*%
%TD*%
%TA.AperFunction,ComponentPad*%
%ADD12R,1.600000X1.600000*%
%TD*%
%TA.AperFunction,ComponentPad*%
%ADD13C,1.600000*%
%TD*%
%TA.AperFunction,SMDPad,CuDef*%
%ADD14O,0.950000X1.600000*%
%TD*%
%TA.AperFunction,SMDPad,CuDef*%
%ADD15R,1.150000X0.600000*%
%TD*%
%TA.AperFunction,ComponentPad*%
%ADD16R,1.530000X1.530000*%
%TD*%
%TA.AperFunction,ComponentPad*%
%ADD17C,1.530000*%
%TD*%
%TA.AperFunction,SMDPad,CuDef*%
%ADD18R,1.470000X1.070000*%
%TD*%
%TA.AperFunction,ComponentPad*%
%ADD19C,3.000000*%
%TD*%
%TA.AperFunction,SMDPad,CuDef*%
%ADD20R,1.070000X1.470000*%
%TD*%
%TA.AperFunction,SMDPad,CuDef*%
%ADD21R,1.800000X1.050000*%
%TD*%
%TA.AperFunction,ComponentPad*%
%ADD22C,1.440000*%
%TD*%
%TA.AperFunction,SMDPad,CuDef*%
%ADD23RoundRect,0.100000X-0.650000X-0.100000X0.650000X-0.100000X0.650000X0.100000X-0.650000X0.100000X0*%
%TD*%
%TA.AperFunction,ViaPad*%
%ADD24C,0.800000*%
%TD*%
%TA.AperFunction,Conductor*%
%ADD25C,0.250000*%
%TD*%
G04 APERTURE END LIST*
D10*
%TO.P,U2,1*%
%TO.N,/SCS_Compliance*%
X76520000Y-73805100D03*
%TO.P,U2,2,-*%
%TO.N,/0.75V*%
X77170000Y-73805100D03*
%TO.P,U2,3,+*%
%TO.N,/LED_On*%
X77820000Y-73805100D03*
%TO.P,U2,4,V-*%
%TO.N,GND*%
X78470000Y-73805100D03*
%TO.P,U2,5,+*%
%TO.N,/4.25V*%
X78470000Y-68080100D03*
%TO.P,U2,6,-*%
%TO.N,/LED_On*%
X77820000Y-68080100D03*
%TO.P,U2,7*%
%TO.N,/SCS_Compliance*%
X77170000Y-68080100D03*
%TO.P,U2,8,V+*%
%TO.N,+5V*%
X76520000Y-68080100D03*
%TD*%
D11*
%TO.P,R1,1*%
%TO.N,Net-(K1-+_CONTROL)*%
X89815000Y-73660000D03*
%TO.P,R1,2*%
%TO.N,Net-(G1-Pad4)*%
X86715000Y-73660000D03*
%TD*%
D12*
%TO.P,C1,1*%
%TO.N,GND*%
X97028000Y-64516000D03*
D13*
%TO.P,C1,2*%
%TO.N,+12V*%
X95028000Y-64516000D03*
%TD*%
D11*
%TO.P,R3,1*%
%TO.N,+5V*%
X71602000Y-64770000D03*
%TO.P,R3,2*%
%TO.N,/SCS_Compliance*%
X74702000Y-64770000D03*
%TD*%
D14*
%TO.P,K1,1,+_CONTROL*%
%TO.N,Net-(K1-+_CONTROL)*%
X86614000Y-67220000D03*
%TO.P,K1,2,-_CONTROL*%
%TO.N,GND*%
X88900000Y-67220000D03*
%TO.P,K1,3,LOAD_1*%
%TO.N,/LED_Power*%
X88900000Y-58420000D03*
%TO.P,K1,4,LOAD_2*%
%TO.N,+12V*%
X86614000Y-58420000D03*
%TD*%
D15*
%TO.P,G1,1*%
%TO.N,/LED_On*%
X81220000Y-74300000D03*
%TO.P,G1,2*%
%TO.N,/SCS_Compliance*%
X81220000Y-75250000D03*
%TO.P,G1,3,GND*%
%TO.N,GND*%
X81220000Y-76200000D03*
%TO.P,G1,4*%
%TO.N,Net-(G1-Pad4)*%
X83820000Y-76200000D03*
%TO.P,G1,5,VCC*%
%TO.N,+5V*%
X83820000Y-74300000D03*
%TD*%
D16*
%TO.P,J1,1,1*%
%TO.N,/LED_Power*%
X88900000Y-52705000D03*
D17*
%TO.P,J1,2,2*%
%TO.N,/Raw_LED_On*%
X86360000Y-52705000D03*
%TD*%
D18*
%TO.P,C4,1*%
%TO.N,GND*%
X81889600Y-56736400D03*
%TO.P,C4,2*%
%TO.N,+5V*%
X81889600Y-58376400D03*
%TD*%
D11*
%TO.P,R5,1*%
%TO.N,GND*%
X69824000Y-73152000D03*
%TO.P,R5,2*%
%TO.N,/0.75V*%
X72924000Y-73152000D03*
%TD*%
D19*
%TO.P,,1*%
%TO.N,N/C*%
X71628000Y-51308000D03*
%TD*%
%TO.P,,1*%
%TO.N,N/C*%
X96266000Y-51816000D03*
%TD*%
D11*
%TO.P,R4,1*%
%TO.N,/0.75V*%
X72924000Y-69977000D03*
%TO.P,R4,2*%
%TO.N,+5V*%
X69824000Y-69977000D03*
%TD*%
D18*
%TO.P,C3,1*%
%TO.N,GND*%
X76708000Y-79306000D03*
%TO.P,C3,2*%
%TO.N,+5V*%
X76708000Y-77666000D03*
%TD*%
D11*
%TO.P,R7,1*%
%TO.N,GND*%
X81560000Y-61595000D03*
%TO.P,R7,2*%
%TO.N,/4.25V*%
X78460000Y-61595000D03*
%TD*%
D20*
%TO.P,C2,1*%
%TO.N,GND*%
X88080000Y-70485000D03*
%TO.P,C2,2*%
%TO.N,+5V*%
X89720000Y-70485000D03*
%TD*%
D16*
%TO.P,J2,1,1*%
%TO.N,GND*%
X96520000Y-57150000D03*
D17*
%TO.P,J2,2,2*%
%TO.N,+12V*%
X96520000Y-59690000D03*
%TD*%
D21*
%TO.P,R2,1*%
%TO.N,/Raw_LED_On*%
X82905600Y-50748600D03*
%TO.P,R2,2*%
%TO.N,GND*%
X82905600Y-53848600D03*
%TD*%
D11*
%TO.P,R6,1*%
%TO.N,/4.25V*%
X78079000Y-64897000D03*
%TO.P,R6,2*%
%TO.N,+5V*%
X81179000Y-64897000D03*
%TD*%
D22*
%TO.P,U3,1,+VIN*%
%TO.N,+12V*%
X93948000Y-71435500D03*
%TO.P,U3,2,GND*%
%TO.N,GND*%
X93948000Y-73975500D03*
%TO.P,U3,3,+VOUT*%
%TO.N,+5V*%
X93948000Y-76515500D03*
%TD*%
D19*
%TO.P,,1*%
%TO.N,N/C*%
X71272400Y-78536800D03*
%TD*%
D23*
%TO.P,U1,1,+*%
%TO.N,/Raw_LED_On*%
X75073200Y-56855600D03*
%TO.P,U1,2,-*%
%TO.N,/LED_On*%
X75073200Y-57505600D03*
%TO.P,U1,3*%
X75073200Y-58155600D03*
%TO.P,U1,4,V+*%
%TO.N,+5V*%
X77733200Y-58155600D03*
%TO.P,U1,5,V-*%
%TO.N,GND*%
X77733200Y-56855600D03*
%TD*%
D24*
%TO.N,/LED_On*%
X80416400Y-72237600D03*
X77825600Y-72212200D03*
%TO.N,GND*%
X81203800Y-78917800D03*
X78486000Y-76200000D03*
%TD*%
D25*
%TO.N,+5V*%
X78501000Y-58155600D02*
X80290000Y-59944600D01*
X83445799Y-77235499D02*
X93228001Y-77235499D01*
X71374000Y-73677000D02*
X71374000Y-71527000D01*
X83820000Y-74300000D02*
X83369200Y-74300000D01*
X82918300Y-76708000D02*
X83445799Y-77235499D01*
X80290000Y-59976000D02*
X81889600Y-58376400D01*
X74835500Y-68003500D02*
X76495000Y-68003500D01*
X71374000Y-71527000D02*
X69824000Y-69977000D01*
X93948000Y-76515500D02*
X93948000Y-76422000D01*
X69824000Y-66548000D02*
X71602000Y-64770000D01*
X82918300Y-76854400D02*
X82106700Y-77666000D01*
X83820000Y-69850000D02*
X83820000Y-74300000D01*
X81179000Y-67209000D02*
X83820000Y-69850000D01*
X81179000Y-64897000D02*
X80290000Y-64008000D01*
X80290000Y-59944600D02*
X80290000Y-59976000D01*
X80290000Y-64008000D02*
X80290000Y-59976000D01*
X83369200Y-74300000D02*
X82918300Y-74300000D01*
X76708000Y-77666000D02*
X75363000Y-77666000D01*
X71602000Y-64770000D02*
X74835500Y-68003500D01*
X93228001Y-77235499D02*
X93948000Y-76515500D01*
X82106700Y-77666000D02*
X76708000Y-77666000D01*
X82918300Y-76708000D02*
X82918300Y-74300000D01*
X81179000Y-64897000D02*
X81179000Y-67209000D01*
X75363000Y-77666000D02*
X71374000Y-73677000D01*
X91694000Y-74168000D02*
X91694000Y-72459000D01*
X69824000Y-69977000D02*
X69824000Y-66548000D01*
X93948000Y-76422000D02*
X91694000Y-74168000D01*
X91694000Y-72459000D02*
X89720000Y-70485000D01*
X77733200Y-58155600D02*
X78501000Y-58155600D01*
X82918300Y-76854400D02*
X82918300Y-76708000D01*
%TO.N,/LED_On*%
X77820000Y-69641200D02*
X77820000Y-68080100D01*
X76428600Y-65405000D02*
X77820000Y-66796400D01*
X75073200Y-57505600D02*
X75073200Y-58155600D01*
X77820000Y-72217800D02*
X77820000Y-73805100D01*
X77825600Y-72212200D02*
X77820000Y-72217800D01*
X80416400Y-72237600D02*
X77820000Y-69641200D01*
X75073200Y-58155600D02*
X76428600Y-59511000D01*
X81220000Y-73041200D02*
X81220000Y-74300000D01*
X76428600Y-59511000D02*
X76428600Y-65405000D01*
X80416400Y-72237600D02*
X81220000Y-73041200D01*
X77820000Y-66796400D02*
X77820000Y-68080100D01*
%TO.N,GND*%
X78486000Y-76200000D02*
X78486000Y-73769500D01*
X78486000Y-76200000D02*
X81220000Y-76200000D01*
X78486000Y-73769500D02*
X78445000Y-73728500D01*
%TO.N,+12V*%
X94996000Y-64484000D02*
X94996000Y-61214000D01*
X92710000Y-64516000D02*
X95028000Y-64516000D01*
X94996000Y-64548000D02*
X95028000Y-64516000D01*
X86614000Y-58420000D02*
X92710000Y-64516000D01*
X95028000Y-64516000D02*
X94996000Y-64484000D01*
X94996000Y-61214000D02*
X96520000Y-59690000D01*
X93948000Y-71435500D02*
X94996000Y-70387500D01*
X94996000Y-70387500D02*
X94996000Y-64548000D01*
%TO.N,/Raw_LED_On*%
X82905600Y-50748600D02*
X81180200Y-50748600D01*
X86360000Y-52705000D02*
X84862000Y-52705000D01*
X84862000Y-52705000D02*
X82905600Y-50748600D01*
X81180200Y-50748600D02*
X75073200Y-56855600D01*
%TO.N,/LED_Power*%
X88900000Y-52705000D02*
X88900000Y-58420000D01*
%TO.N,Net-(K1-+_CONTROL)*%
X88683300Y-73660000D02*
X86614000Y-71590700D01*
X86614000Y-71590700D02*
X86614000Y-67220000D01*
X89815000Y-73660000D02*
X88683300Y-73660000D01*
%TO.N,/0.75V*%
X72924000Y-69977000D02*
X72924000Y-73152000D01*
X72924000Y-73152000D02*
X75133800Y-75361800D01*
X75133800Y-75361800D02*
X76631800Y-75361800D01*
X77170000Y-74823600D02*
X77170000Y-73805100D01*
X76631800Y-75361800D02*
X77170000Y-74823600D01*
%TO.N,/4.25V*%
X78079000Y-61976000D02*
X78079000Y-64897000D01*
X78470000Y-65288000D02*
X78079000Y-64897000D01*
X78470000Y-68080100D02*
X78470000Y-65288000D01*
X78460000Y-61595000D02*
X78079000Y-61976000D01*
X77820000Y-65156000D02*
X78079000Y-64897000D01*
%TO.N,Net-(G1-Pad4)*%
X84175000Y-76200000D02*
X83820000Y-76200000D01*
X86715000Y-73660000D02*
X84175000Y-76200000D01*
%TO.N,/SCS_Compliance*%
X77170000Y-70286600D02*
X77170000Y-70302400D01*
X76520000Y-70952400D02*
X76520000Y-73805100D01*
X77170000Y-70302400D02*
X76520000Y-70952400D01*
X79832200Y-72948800D02*
X77170000Y-70286600D01*
X80645000Y-75250000D02*
X79832200Y-74437200D01*
X74702000Y-64823001D02*
X77145000Y-67266001D01*
X81220000Y-75250000D02*
X80645000Y-75250000D01*
X79832200Y-74437200D02*
X79832200Y-72948800D01*
X74702000Y-64770000D02*
X74702000Y-64823001D01*
X77170000Y-70286600D02*
X77170000Y-68080100D01*
%TD*%
%TA.AperFunction,Conductor*%
%TO.N,GND*%
G36*
X78634718Y-74730270D02*
G01*
X78667471Y-74791987D01*
X78670000Y-74816902D01*
X78670000Y-75034610D01*
X78670001Y-75034611D01*
X78726627Y-75027157D01*
X78726633Y-75027155D01*
X78872585Y-74966700D01*
X78997924Y-74870524D01*
X79091179Y-74748993D01*
X79147607Y-74707791D01*
X79217353Y-74703636D01*
X79278274Y-74737848D01*
X79292656Y-74755587D01*
X79301928Y-74769463D01*
X79301929Y-74769465D01*
X79346341Y-74835932D01*
X79346344Y-74835936D01*
X79437786Y-74927378D01*
X79437808Y-74927398D01*
X80121731Y-75611321D01*
X80150232Y-75655669D01*
X80160195Y-75682381D01*
X80165179Y-75752072D01*
X80160196Y-75769044D01*
X80151402Y-75792623D01*
X80151401Y-75792624D01*
X80145000Y-75852155D01*
X80145000Y-75950000D01*
X80302893Y-75950000D01*
X80369932Y-75969685D01*
X80377204Y-75974733D01*
X80377936Y-75975281D01*
X80393991Y-75987300D01*
X80402668Y-75993795D01*
X80402671Y-75993797D01*
X80537517Y-76044091D01*
X80537516Y-76044091D01*
X80544444Y-76044835D01*
X80597127Y-76050500D01*
X81346001Y-76050499D01*
X81413039Y-76070183D01*
X81458794Y-76122987D01*
X81470000Y-76174499D01*
X81470000Y-76326000D01*
X81450315Y-76393039D01*
X81397511Y-76438794D01*
X81346000Y-76450000D01*
X80145000Y-76450000D01*
X80145000Y-76547844D01*
X80151401Y-76607372D01*
X80151403Y-76607379D01*
X80201645Y-76742086D01*
X80201647Y-76742089D01*
X80276582Y-76842188D01*
X80301000Y-76907652D01*
X80286149Y-76975926D01*
X80236744Y-77025331D01*
X80177316Y-77040500D01*
X78029521Y-77040500D01*
X77962482Y-77020815D01*
X77916727Y-76968011D01*
X77913339Y-76959833D01*
X77886797Y-76888671D01*
X77886793Y-76888664D01*
X77800547Y-76773455D01*
X77800544Y-76773452D01*
X77685335Y-76687206D01*
X77685328Y-76687202D01*
X77550482Y-76636908D01*
X77550483Y-76636908D01*
X77490883Y-76630501D01*
X77490881Y-76630500D01*
X77490873Y-76630500D01*
X77490864Y-76630500D01*
X75925129Y-76630500D01*
X75925123Y-76630501D01*
X75865516Y-76636908D01*
X75730671Y-76687202D01*
X75730664Y-76687206D01*
X75615455Y-76773452D01*
X75615452Y-76773455D01*
X75589727Y-76807820D01*
X75533793Y-76849691D01*
X75464102Y-76854675D01*
X75402780Y-76821190D01*
X74698221Y-76116631D01*
X74664736Y-76055308D01*
X74669720Y-75985616D01*
X74711592Y-75929683D01*
X74777056Y-75905266D01*
X74833354Y-75914389D01*
X74837514Y-75916112D01*
X74918007Y-75949452D01*
X74951348Y-75963263D01*
X75011771Y-75975281D01*
X75072193Y-75987300D01*
X76693407Y-75987300D01*
X76753829Y-75975281D01*
X76814252Y-75963263D01*
X76814255Y-75963261D01*
X76814258Y-75963261D01*
X76847587Y-75949454D01*
X76847586Y-75949454D01*
X76847592Y-75949452D01*
X76928086Y-75916112D01*
X76979309Y-75881884D01*
X77030533Y-75847658D01*
X77117658Y-75760533D01*
X77117659Y-75760531D01*
X77124725Y-75753465D01*
X77124728Y-75753461D01*
X77568729Y-75309460D01*
X77568733Y-75309458D01*
X77655858Y-75222333D01*
X77724311Y-75119886D01*
X77724312Y-75119885D01*
X77724410Y-75119647D01*
X77724759Y-75119214D01*
X77731099Y-75109727D01*
X77731947Y-75110294D01*
X77768251Y-75065244D01*
X77834545Y-75043178D01*
X77838972Y-75043099D01*
X77959362Y-75043099D01*
X77983829Y-75039877D01*
X78076762Y-75027644D01*
X78098200Y-75018763D01*
X78167668Y-75011294D01*
X78193106Y-75018763D01*
X78213365Y-75027154D01*
X78213377Y-75027158D01*
X78269998Y-75034611D01*
X78270000Y-75034610D01*
X78270000Y-74992099D01*
X78289685Y-74925060D01*
X78318512Y-74893725D01*
X78348282Y-74870882D01*
X78444536Y-74745441D01*
X78444536Y-74745439D01*
X78447624Y-74741416D01*
X78504052Y-74700213D01*
X78573798Y-74696058D01*
X78634718Y-74730270D01*
G37*
%TD.AperFunction*%
%TA.AperFunction,Conductor*%
G36*
X81484572Y-51431331D02*
G01*
X81540505Y-51473203D01*
X81557419Y-51504176D01*
X81561803Y-51515929D01*
X81561806Y-51515935D01*
X81648052Y-51631144D01*
X81648055Y-51631147D01*
X81763264Y-51717393D01*
X81763271Y-51717397D01*
X81898117Y-51767691D01*
X81898116Y-51767691D01*
X81905044Y-51768435D01*
X81957727Y-51774100D01*
X82995146Y-51774099D01*
X83062185Y-51793783D01*
X83082827Y-51810418D01*
X83884328Y-52611919D01*
X83917813Y-52673242D01*
X83912829Y-52742934D01*
X83870957Y-52798867D01*
X83805493Y-52823284D01*
X83796647Y-52823600D01*
X83155600Y-52823600D01*
X83155600Y-53598600D01*
X84305600Y-53598600D01*
X84305600Y-53317495D01*
X84325285Y-53250456D01*
X84378089Y-53204701D01*
X84447247Y-53194757D01*
X84498488Y-53214392D01*
X84565714Y-53259311D01*
X84679548Y-53306463D01*
X84800388Y-53330499D01*
X84800392Y-53330500D01*
X84800393Y-53330500D01*
X84800394Y-53330500D01*
X85188539Y-53330500D01*
X85255578Y-53350185D01*
X85290112Y-53383374D01*
X85386868Y-53521555D01*
X85543445Y-53678132D01*
X85724833Y-53805142D01*
X85845572Y-53861443D01*
X85925513Y-53898720D01*
X85925515Y-53898720D01*
X85925520Y-53898723D01*
X86139409Y-53956035D01*
X86296974Y-53969820D01*
X86359998Y-53975334D01*
X86360000Y-53975334D01*
X86360002Y-53975334D01*
X86415276Y-53970498D01*
X86580591Y-53956035D01*
X86794480Y-53898723D01*
X86995167Y-53805142D01*
X87176555Y-53678132D01*
X87333132Y-53521555D01*
X87408928Y-53413307D01*
X87463501Y-53369685D01*
X87533000Y-53362491D01*
X87595355Y-53394013D01*
X87630769Y-53454243D01*
X87634500Y-53484430D01*
X87634500Y-53517868D01*
X87634501Y-53517876D01*
X87640908Y-53577483D01*
X87691202Y-53712328D01*
X87691206Y-53712335D01*
X87777452Y-53827544D01*
X87777455Y-53827547D01*
X87892664Y-53913793D01*
X87892671Y-53913797D01*
X87937618Y-53930561D01*
X88027517Y-53964091D01*
X88087127Y-53970500D01*
X88150500Y-53970499D01*
X88217538Y-53990183D01*
X88263294Y-54042986D01*
X88274500Y-54094499D01*
X88274500Y-57289572D01*
X88254815Y-57356611D01*
X88238181Y-57377253D01*
X88142282Y-57473151D01*
X88142279Y-57473155D01*
X88035521Y-57632929D01*
X88035520Y-57632931D01*
X87961989Y-57810452D01*
X87961986Y-57810464D01*
X87924500Y-57998917D01*
X87924500Y-58546548D01*
X87904815Y-58613587D01*
X87852011Y-58659342D01*
X87782853Y-58669286D01*
X87719297Y-58640261D01*
X87712819Y-58634229D01*
X87625819Y-58547229D01*
X87592334Y-58485906D01*
X87589500Y-58459548D01*
X87589500Y-57998919D01*
X87589499Y-57998917D01*
X87565457Y-57878050D01*
X87552012Y-57810457D01*
X87540701Y-57783150D01*
X87478479Y-57632931D01*
X87478478Y-57632929D01*
X87474727Y-57627316D01*
X87371720Y-57473155D01*
X87371717Y-57473151D01*
X87235848Y-57337282D01*
X87235844Y-57337279D01*
X87076070Y-57230521D01*
X87076068Y-57230520D01*
X86898547Y-57156989D01*
X86898535Y-57156986D01*
X86710081Y-57119500D01*
X86710078Y-57119500D01*
X86517922Y-57119500D01*
X86517919Y-57119500D01*
X86329464Y-57156986D01*
X86329452Y-57156989D01*
X86151931Y-57230520D01*
X86151929Y-57230521D01*
X85992155Y-57337279D01*
X85992151Y-57337282D01*
X85856282Y-57473151D01*
X85856279Y-57473155D01*
X85749521Y-57632929D01*
X85749520Y-57632931D01*
X85675989Y-57810452D01*
X85675986Y-57810464D01*
X85638500Y-57998917D01*
X85638500Y-58841082D01*
X85675986Y-59029535D01*
X85675989Y-59029547D01*
X85749520Y-59207068D01*
X85749521Y-59207070D01*
X85856279Y-59366844D01*
X85856282Y-59366848D01*
X85992151Y-59502717D01*
X85992155Y-59502720D01*
X86151927Y-59609477D01*
X86151928Y-59609477D01*
X86151929Y-59609478D01*
X86151931Y-59609479D01*
X86263073Y-59655515D01*
X86329457Y-59683012D01*
X86483817Y-59713716D01*
X86517917Y-59720499D01*
X86517920Y-59720500D01*
X86517922Y-59720500D01*
X86710080Y-59720500D01*
X86710081Y-59720499D01*
X86898543Y-59683012D01*
X86898550Y-59683008D01*
X86899439Y-59682740D01*
X86899935Y-59682735D01*
X86904518Y-59681824D01*
X86904690Y-59682692D01*
X86969306Y-59682110D01*
X87023126Y-59713716D01*
X92221016Y-64911606D01*
X92221045Y-64911637D01*
X92311264Y-65001856D01*
X92311267Y-65001858D01*
X92359157Y-65033857D01*
X92413715Y-65070312D01*
X92480396Y-65097931D01*
X92480398Y-65097933D01*
X92520640Y-65114601D01*
X92527548Y-65117463D01*
X92587971Y-65129481D01*
X92648393Y-65141500D01*
X92648394Y-65141500D01*
X93813812Y-65141500D01*
X93880851Y-65161185D01*
X93915387Y-65194377D01*
X94027954Y-65355141D01*
X94188857Y-65516044D01*
X94188860Y-65516046D01*
X94188861Y-65516047D01*
X94317623Y-65606206D01*
X94361248Y-65660781D01*
X94370500Y-65707780D01*
X94370500Y-70077046D01*
X94350815Y-70144085D01*
X94334180Y-70164728D01*
X94297500Y-70201407D01*
X94236176Y-70234892D01*
X94177731Y-70233501D01*
X94160754Y-70228952D01*
X94160741Y-70228950D01*
X93948002Y-70210338D01*
X93947998Y-70210338D01*
X93735258Y-70228950D01*
X93735247Y-70228952D01*
X93528977Y-70284221D01*
X93528968Y-70284225D01*
X93335421Y-70374477D01*
X93160478Y-70496972D01*
X93009472Y-70647978D01*
X92886977Y-70822921D01*
X92796725Y-71016468D01*
X92796721Y-71016477D01*
X92741452Y-71222747D01*
X92741450Y-71222758D01*
X92722838Y-71435498D01*
X92722838Y-71435501D01*
X92741450Y-71648241D01*
X92741452Y-71648252D01*
X92796721Y-71854522D01*
X92796723Y-71854526D01*
X92796724Y-71854530D01*
X92815507Y-71894809D01*
X92886977Y-72048078D01*
X92886978Y-72048080D01*
X92886979Y-72048081D01*
X92895509Y-72060263D01*
X93009472Y-72223021D01*
X93160478Y-72374027D01*
X93160481Y-72374029D01*
X93335419Y-72496521D01*
X93335421Y-72496522D01*
X93335420Y-72496522D01*
X93380775Y-72517671D01*
X93528970Y-72586776D01*
X93528983Y-72586779D01*
X93534064Y-72588630D01*
X93533390Y-72590478D01*
X93585680Y-72622357D01*
X93616204Y-72685207D01*
X93607903Y-72754582D01*
X93563413Y-72808456D01*
X93533904Y-72821932D01*
X93534236Y-72822842D01*
X93529140Y-72824697D01*
X93335671Y-72914912D01*
X93335669Y-72914913D01*
X93279969Y-72953915D01*
X93279968Y-72953915D01*
X93843085Y-73517031D01*
X93766587Y-73537529D01*
X93659413Y-73599406D01*
X93571906Y-73686913D01*
X93510029Y-73794087D01*
X93489531Y-73870584D01*
X92926415Y-73307468D01*
X92926415Y-73307469D01*
X92887413Y-73363169D01*
X92887412Y-73363171D01*
X92797197Y-73556640D01*
X92797194Y-73556646D01*
X92741945Y-73762837D01*
X92741944Y-73762845D01*
X92723340Y-73975497D01*
X92723340Y-73975503D01*
X92725981Y-74005694D01*
X92712214Y-74074194D01*
X92663598Y-74124376D01*
X92595569Y-74140309D01*
X92529726Y-74116933D01*
X92514772Y-74104181D01*
X92355819Y-73945228D01*
X92322334Y-73883905D01*
X92319500Y-73857547D01*
X92319500Y-72526741D01*
X92319501Y-72526720D01*
X92319501Y-72397391D01*
X92295464Y-72276555D01*
X92295463Y-72276549D01*
X92248312Y-72162715D01*
X92179858Y-72060267D01*
X92179855Y-72060263D01*
X90791818Y-70672227D01*
X90758333Y-70610904D01*
X90755499Y-70584546D01*
X90755499Y-69702129D01*
X90755498Y-69702123D01*
X90751782Y-69667556D01*
X90749091Y-69642517D01*
X90698796Y-69507669D01*
X90698795Y-69507668D01*
X90698793Y-69507664D01*
X90612547Y-69392455D01*
X90612544Y-69392452D01*
X90497335Y-69306206D01*
X90497328Y-69306202D01*
X90362482Y-69255908D01*
X90362483Y-69255908D01*
X90302883Y-69249501D01*
X90302881Y-69249500D01*
X90302873Y-69249500D01*
X90302864Y-69249500D01*
X89137129Y-69249500D01*
X89137123Y-69249501D01*
X89077515Y-69255909D01*
X88942617Y-69306222D01*
X88872926Y-69311206D01*
X88855952Y-69306222D01*
X88722380Y-69256403D01*
X88722372Y-69256401D01*
X88662844Y-69250000D01*
X88330000Y-69250000D01*
X88330000Y-71720000D01*
X88662828Y-71720000D01*
X88662844Y-71719999D01*
X88722372Y-71713598D01*
X88722376Y-71713597D01*
X88855951Y-71663776D01*
X88925642Y-71658792D01*
X88942619Y-71663776D01*
X88942665Y-71663793D01*
X88942669Y-71663796D01*
X89077517Y-71714091D01*
X89137127Y-71720500D01*
X90019546Y-71720499D01*
X90086585Y-71740183D01*
X90107227Y-71756818D01*
X90398228Y-72047819D01*
X90431713Y-72109142D01*
X90426729Y-72178834D01*
X90384857Y-72234767D01*
X90319393Y-72259184D01*
X90310547Y-72259500D01*
X89242129Y-72259500D01*
X89242123Y-72259501D01*
X89182516Y-72265908D01*
X89047671Y-72316202D01*
X89047664Y-72316206D01*
X88932455Y-72402452D01*
X88932452Y-72402455D01*
X88846206Y-72517664D01*
X88846202Y-72517671D01*
X88799361Y-72643260D01*
X88757490Y-72699194D01*
X88692025Y-72723611D01*
X88623752Y-72708759D01*
X88595498Y-72687608D01*
X87816626Y-71908736D01*
X87783141Y-71847413D01*
X87788125Y-71777721D01*
X87816626Y-71733374D01*
X87830000Y-71720000D01*
X87830000Y-69250000D01*
X87497155Y-69250000D01*
X87437627Y-69256401D01*
X87437619Y-69256403D01*
X87406833Y-69267886D01*
X87337141Y-69272870D01*
X87275818Y-69239385D01*
X87242334Y-69178061D01*
X87239500Y-69151704D01*
X87239500Y-68350427D01*
X87259185Y-68283388D01*
X87275814Y-68262750D01*
X87371720Y-68166845D01*
X87478477Y-68007073D01*
X87552012Y-67829543D01*
X87589500Y-67641078D01*
X87589500Y-67470000D01*
X87925000Y-67470000D01*
X87925000Y-67641033D01*
X87962466Y-67829389D01*
X87962468Y-67829397D01*
X88035964Y-68006833D01*
X88035969Y-68006842D01*
X88142667Y-68166526D01*
X88142670Y-68166530D01*
X88278469Y-68302329D01*
X88278473Y-68302332D01*
X88438157Y-68409030D01*
X88438167Y-68409035D01*
X88615599Y-68482530D01*
X88615606Y-68482533D01*
X88650000Y-68489373D01*
X88650000Y-67470000D01*
X89150000Y-67470000D01*
X89150000Y-68489372D01*
X89184393Y-68482533D01*
X89184400Y-68482530D01*
X89361832Y-68409035D01*
X89361842Y-68409030D01*
X89521526Y-68302332D01*
X89521530Y-68302329D01*
X89657329Y-68166530D01*
X89657332Y-68166526D01*
X89764030Y-68006842D01*
X89764035Y-68006833D01*
X89837531Y-67829397D01*
X89837533Y-67829389D01*
X89874999Y-67641033D01*
X89875000Y-67641030D01*
X89875000Y-67470000D01*
X89150000Y-67470000D01*
X88650000Y-67470000D01*
X87925000Y-67470000D01*
X87589500Y-67470000D01*
X87589500Y-66970000D01*
X87925000Y-66970000D01*
X88650000Y-66970000D01*
X88650000Y-65950625D01*
X89150000Y-65950625D01*
X89150000Y-66970000D01*
X89875000Y-66970000D01*
X89875000Y-66798970D01*
X89874999Y-66798966D01*
X89837533Y-66610610D01*
X89837531Y-66610602D01*
X89764035Y-66433166D01*
X89764030Y-66433157D01*
X89657332Y-66273473D01*
X89657329Y-66273469D01*
X89521530Y-66137670D01*
X89521526Y-66137667D01*
X89361842Y-66030969D01*
X89361833Y-66030964D01*
X89184397Y-65957468D01*
X89184389Y-65957466D01*
X89150000Y-65950625D01*
X88650000Y-65950625D01*
X88615610Y-65957466D01*
X88615602Y-65957468D01*
X88438166Y-66030964D01*
X88438157Y-66030969D01*
X88278473Y-66137667D01*
X88278469Y-66137670D01*
X88142670Y-66273469D01*
X88142667Y-66273473D01*
X88035969Y-66433157D01*
X88035964Y-66433166D01*
X87962468Y-66610602D01*
X87962466Y-66610610D01*
X87925000Y-66798966D01*
X87925000Y-66970000D01*
X87589500Y-66970000D01*
X87589500Y-66798922D01*
X87589500Y-66798919D01*
X87589499Y-66798917D01*
X87552042Y-66610610D01*
X87552012Y-66610457D01*
X87478576Y-66433166D01*
X87478479Y-66432931D01*
X87478478Y-66432929D01*
X87444568Y-66382180D01*
X87371720Y-66273155D01*
X87371717Y-66273151D01*
X87235848Y-66137282D01*
X87235844Y-66137279D01*
X87076070Y-66030521D01*
X87076068Y-66030520D01*
X86898547Y-65956989D01*
X86898535Y-65956986D01*
X86710081Y-65919500D01*
X86710078Y-65919500D01*
X86517922Y-65919500D01*
X86517919Y-65919500D01*
X86329464Y-65956986D01*
X86329452Y-65956989D01*
X86151931Y-66030520D01*
X86151929Y-66030521D01*
X85992155Y-66137279D01*
X85992151Y-66137282D01*
X85856282Y-66273151D01*
X85856279Y-66273155D01*
X85749521Y-66432929D01*
X85749520Y-66432931D01*
X85675989Y-66610452D01*
X85675986Y-66610464D01*
X85638500Y-66798917D01*
X85638500Y-67641082D01*
X85675986Y-67829535D01*
X85675989Y-67829547D01*
X85749520Y-68007068D01*
X85749521Y-68007070D01*
X85856278Y-68166843D01*
X85856279Y-68166844D01*
X85856280Y-68166845D01*
X85952182Y-68262747D01*
X85985666Y-68324068D01*
X85988500Y-68350427D01*
X85988500Y-71652308D01*
X85999057Y-71705378D01*
X85999057Y-71705383D01*
X85999058Y-71705383D01*
X85999058Y-71705384D01*
X86008230Y-71751501D01*
X86012537Y-71773151D01*
X86036112Y-71830068D01*
X86059688Y-71886987D01*
X86079018Y-71915914D01*
X86079019Y-71915916D01*
X86128141Y-71989432D01*
X86128144Y-71989436D01*
X86190083Y-72051375D01*
X86223568Y-72112698D01*
X86218584Y-72182390D01*
X86176712Y-72238323D01*
X86115657Y-72262345D01*
X86082520Y-72265907D01*
X85947671Y-72316202D01*
X85947664Y-72316206D01*
X85832455Y-72402452D01*
X85832452Y-72402455D01*
X85746206Y-72517664D01*
X85746202Y-72517671D01*
X85695908Y-72652517D01*
X85689501Y-72712116D01*
X85689500Y-72712135D01*
X85689500Y-73749546D01*
X85669815Y-73816585D01*
X85653181Y-73837227D01*
X85107180Y-74383228D01*
X85045857Y-74416713D01*
X84976165Y-74411729D01*
X84920232Y-74369857D01*
X84895815Y-74304393D01*
X84895499Y-74295547D01*
X84895499Y-73952129D01*
X84895498Y-73952123D01*
X84889091Y-73892516D01*
X84838797Y-73757671D01*
X84838793Y-73757664D01*
X84752547Y-73642455D01*
X84752544Y-73642452D01*
X84637335Y-73556206D01*
X84637329Y-73556203D01*
X84526166Y-73514741D01*
X84470233Y-73472869D01*
X84445816Y-73407405D01*
X84445500Y-73398559D01*
X84445500Y-69788393D01*
X84445499Y-69788389D01*
X84428340Y-69702123D01*
X84421463Y-69667548D01*
X84385031Y-69579593D01*
X84374312Y-69553714D01*
X84332502Y-69491143D01*
X84305858Y-69451267D01*
X84305856Y-69451264D01*
X84215637Y-69361045D01*
X84215606Y-69361016D01*
X81840819Y-66986229D01*
X81807334Y-66924906D01*
X81804500Y-66898548D01*
X81804500Y-66379790D01*
X81824185Y-66312751D01*
X81876989Y-66266996D01*
X81885146Y-66263616D01*
X81946331Y-66240796D01*
X82061546Y-66154546D01*
X82147796Y-66039331D01*
X82198091Y-65904483D01*
X82204500Y-65844873D01*
X82204499Y-63949128D01*
X82198091Y-63889517D01*
X82147796Y-63754669D01*
X82147795Y-63754668D01*
X82147793Y-63754664D01*
X82061547Y-63639455D01*
X82061544Y-63639452D01*
X81946335Y-63553206D01*
X81946328Y-63553202D01*
X81811482Y-63502908D01*
X81811483Y-63502908D01*
X81751883Y-63496501D01*
X81751881Y-63496500D01*
X81751873Y-63496500D01*
X81751865Y-63496500D01*
X81039500Y-63496500D01*
X80972461Y-63476815D01*
X80926706Y-63424011D01*
X80915500Y-63372500D01*
X80915500Y-63119000D01*
X80935185Y-63051961D01*
X80987989Y-63006206D01*
X81039500Y-62995000D01*
X81310000Y-62995000D01*
X81310000Y-61845000D01*
X81810000Y-61845000D01*
X81810000Y-62995000D01*
X82132828Y-62995000D01*
X82132844Y-62994999D01*
X82192372Y-62988598D01*
X82192379Y-62988596D01*
X82327086Y-62938354D01*
X82327093Y-62938350D01*
X82442187Y-62852190D01*
X82442190Y-62852187D01*
X82528350Y-62737093D01*
X82528354Y-62737086D01*
X82578596Y-62602379D01*
X82578598Y-62602372D01*
X82584999Y-62542844D01*
X82585000Y-62542827D01*
X82585000Y-61845000D01*
X81810000Y-61845000D01*
X81310000Y-61845000D01*
X81310000Y-60195000D01*
X81810000Y-60195000D01*
X81810000Y-61345000D01*
X82585000Y-61345000D01*
X82585000Y-60647172D01*
X82584999Y-60647155D01*
X82578598Y-60587627D01*
X82578596Y-60587620D01*
X82528354Y-60452913D01*
X82528350Y-60452906D01*
X82442190Y-60337812D01*
X82442187Y-60337809D01*
X82327093Y-60251649D01*
X82327086Y-60251645D01*
X82192379Y-60201403D01*
X82192372Y-60201401D01*
X82132844Y-60195000D01*
X81810000Y-60195000D01*
X81310000Y-60195000D01*
X81254951Y-60195000D01*
X81187912Y-60175315D01*
X81142157Y-60122511D01*
X81132213Y-60053353D01*
X81161238Y-59989797D01*
X81167260Y-59983329D01*
X81702371Y-59448217D01*
X81763694Y-59414733D01*
X81790052Y-59411899D01*
X82672471Y-59411899D01*
X82672472Y-59411899D01*
X82732083Y-59405491D01*
X82866931Y-59355196D01*
X82982146Y-59268946D01*
X83068396Y-59153731D01*
X83118691Y-59018883D01*
X83125100Y-58959273D01*
X83125099Y-57793528D01*
X83118691Y-57733917D01*
X83068396Y-57599069D01*
X83068393Y-57599065D01*
X83068376Y-57599019D01*
X83063392Y-57529327D01*
X83068376Y-57512351D01*
X83118197Y-57378776D01*
X83118198Y-57378772D01*
X83124599Y-57319244D01*
X83124600Y-57319227D01*
X83124600Y-56986400D01*
X80654600Y-56986400D01*
X80654600Y-57319244D01*
X80661001Y-57378772D01*
X80661003Y-57378780D01*
X80710822Y-57512352D01*
X80715806Y-57582044D01*
X80710822Y-57599017D01*
X80660509Y-57733914D01*
X80660508Y-57733916D01*
X80654101Y-57793516D01*
X80654101Y-57793523D01*
X80654100Y-57793535D01*
X80654100Y-58675947D01*
X80634415Y-58742986D01*
X80617781Y-58763628D01*
X80393380Y-58988028D01*
X80332057Y-59021513D01*
X80262365Y-59016529D01*
X80218018Y-58988028D01*
X78991198Y-57761208D01*
X78991178Y-57761186D01*
X78899735Y-57669743D01*
X78878379Y-57655473D01*
X78836241Y-57627318D01*
X78836242Y-57627318D01*
X78836240Y-57627316D01*
X78796863Y-57601005D01*
X78752058Y-57547392D01*
X78743352Y-57478067D01*
X78773508Y-57415040D01*
X78790269Y-57399528D01*
X78811123Y-57383526D01*
X78907300Y-57258186D01*
X78967755Y-57112231D01*
X78975212Y-57055600D01*
X77657200Y-57055600D01*
X77590161Y-57035915D01*
X77544406Y-56983111D01*
X77533200Y-56931600D01*
X77533200Y-56155600D01*
X77933200Y-56155600D01*
X77933200Y-56655600D01*
X78975210Y-56655600D01*
X78975211Y-56655598D01*
X78967757Y-56598972D01*
X78967755Y-56598966D01*
X78921129Y-56486400D01*
X80654600Y-56486400D01*
X81639600Y-56486400D01*
X81639600Y-55701400D01*
X82139600Y-55701400D01*
X82139600Y-56486400D01*
X83124600Y-56486400D01*
X83124600Y-56153572D01*
X83124599Y-56153555D01*
X83118198Y-56094027D01*
X83118196Y-56094020D01*
X83067954Y-55959313D01*
X83067950Y-55959306D01*
X82981790Y-55844212D01*
X82981787Y-55844209D01*
X82866693Y-55758049D01*
X82866686Y-55758045D01*
X82731979Y-55707803D01*
X82731972Y-55707801D01*
X82672444Y-55701400D01*
X82139600Y-55701400D01*
X81639600Y-55701400D01*
X81106755Y-55701400D01*
X81047227Y-55707801D01*
X81047220Y-55707803D01*
X80912513Y-55758045D01*
X80912506Y-55758049D01*
X80797412Y-55844209D01*
X80797409Y-55844212D01*
X80711249Y-55959306D01*
X80711245Y-55959313D01*
X80661003Y-56094020D01*
X80661001Y-56094027D01*
X80654600Y-56153555D01*
X80654600Y-56486400D01*
X78921129Y-56486400D01*
X78907300Y-56453014D01*
X78811124Y-56327675D01*
X78685786Y-56231499D01*
X78539834Y-56171045D01*
X78539830Y-56171044D01*
X78422530Y-56155600D01*
X77933200Y-56155600D01*
X77533200Y-56155600D01*
X77043882Y-56155600D01*
X76961417Y-56166456D01*
X76892382Y-56155688D01*
X76840127Y-56109307D01*
X76821243Y-56042038D01*
X76841725Y-55975238D01*
X76857548Y-55955841D01*
X78714789Y-54098600D01*
X81505600Y-54098600D01*
X81505600Y-54421444D01*
X81512001Y-54480972D01*
X81512003Y-54480979D01*
X81562245Y-54615686D01*
X81562249Y-54615693D01*
X81648409Y-54730787D01*
X81648412Y-54730790D01*
X81763506Y-54816950D01*
X81763513Y-54816954D01*
X81898220Y-54867196D01*
X81898227Y-54867198D01*
X81957755Y-54873599D01*
X81957772Y-54873600D01*
X82655600Y-54873600D01*
X82655600Y-54098600D01*
X83155600Y-54098600D01*
X83155600Y-54873600D01*
X83853428Y-54873600D01*
X83853444Y-54873599D01*
X83912972Y-54867198D01*
X83912979Y-54867196D01*
X84047686Y-54816954D01*
X84047693Y-54816950D01*
X84162787Y-54730790D01*
X84162790Y-54730787D01*
X84248950Y-54615693D01*
X84248954Y-54615686D01*
X84299196Y-54480979D01*
X84299198Y-54480972D01*
X84305599Y-54421444D01*
X84305600Y-54421427D01*
X84305600Y-54098600D01*
X83155600Y-54098600D01*
X82655600Y-54098600D01*
X81505600Y-54098600D01*
X78714789Y-54098600D01*
X79214789Y-53598600D01*
X81505600Y-53598600D01*
X82655600Y-53598600D01*
X82655600Y-52823600D01*
X81957755Y-52823600D01*
X81898227Y-52830001D01*
X81898220Y-52830003D01*
X81763513Y-52880245D01*
X81763506Y-52880249D01*
X81648412Y-52966409D01*
X81648409Y-52966412D01*
X81562249Y-53081506D01*
X81562245Y-53081513D01*
X81512003Y-53216220D01*
X81512001Y-53216227D01*
X81505600Y-53275755D01*
X81505600Y-53598600D01*
X79214789Y-53598600D01*
X81353559Y-51459830D01*
X81414880Y-51426347D01*
X81484572Y-51431331D01*
G37*
%TD.AperFunction*%
%TA.AperFunction,Conductor*%
G36*
X98839121Y-48006020D02*
G01*
X98973109Y-48008409D01*
X98988528Y-48009650D01*
X99254897Y-48047948D01*
X99272184Y-48051708D01*
X99529313Y-48127209D01*
X99545887Y-48133391D01*
X99655159Y-48183293D01*
X99789659Y-48244717D01*
X99805173Y-48253188D01*
X100030628Y-48398080D01*
X100044787Y-48408679D01*
X100247317Y-48584172D01*
X100259827Y-48596682D01*
X100435320Y-48799212D01*
X100445921Y-48813374D01*
X100590808Y-49038821D01*
X100599284Y-49054345D01*
X100710608Y-49298112D01*
X100716791Y-49314688D01*
X100792290Y-49571814D01*
X100796051Y-49589102D01*
X100834348Y-49855463D01*
X100835590Y-49870898D01*
X100837980Y-50004877D01*
X100838000Y-50007089D01*
X100838000Y-79278910D01*
X100837980Y-79281122D01*
X100835590Y-79415101D01*
X100834348Y-79430536D01*
X100796051Y-79696897D01*
X100792290Y-79714185D01*
X100716791Y-79971311D01*
X100710608Y-79987887D01*
X100599284Y-80231654D01*
X100590805Y-80247183D01*
X100445922Y-80472624D01*
X100435320Y-80486787D01*
X100259827Y-80689317D01*
X100247317Y-80701827D01*
X100044787Y-80877320D01*
X100030624Y-80887922D01*
X99805183Y-81032805D01*
X99789654Y-81041284D01*
X99545887Y-81152608D01*
X99529311Y-81158791D01*
X99272185Y-81234290D01*
X99254897Y-81238051D01*
X98988536Y-81276348D01*
X98973101Y-81277590D01*
X98842818Y-81279914D01*
X98839120Y-81279980D01*
X98836910Y-81280000D01*
X69819090Y-81280000D01*
X69816879Y-81279980D01*
X69813015Y-81279911D01*
X69682898Y-81277590D01*
X69667463Y-81276348D01*
X69401102Y-81238051D01*
X69383814Y-81234290D01*
X69126688Y-81158791D01*
X69110112Y-81152608D01*
X68866345Y-81041284D01*
X68850821Y-81032808D01*
X68625374Y-80887921D01*
X68611212Y-80877320D01*
X68408682Y-80701827D01*
X68396172Y-80689317D01*
X68220679Y-80486787D01*
X68210077Y-80472624D01*
X68138446Y-80361164D01*
X68065188Y-80247173D01*
X68056715Y-80231654D01*
X68041431Y-80198187D01*
X67945391Y-79987887D01*
X67939208Y-79971311D01*
X67863709Y-79714185D01*
X67859948Y-79696897D01*
X67821650Y-79430528D01*
X67820409Y-79415109D01*
X67818020Y-79281121D01*
X67818000Y-79278910D01*
X67818000Y-78536801D01*
X69266790Y-78536801D01*
X69287204Y-78822233D01*
X69348028Y-79101837D01*
X69348030Y-79101843D01*
X69348031Y-79101846D01*
X69414898Y-79281122D01*
X69448035Y-79369966D01*
X69585170Y-79621109D01*
X69585175Y-79621117D01*
X69756654Y-79850187D01*
X69756670Y-79850205D01*
X69958994Y-80052529D01*
X69959012Y-80052545D01*
X70188082Y-80224024D01*
X70188090Y-80224029D01*
X70439233Y-80361164D01*
X70439232Y-80361164D01*
X70439236Y-80361165D01*
X70439239Y-80361167D01*
X70707354Y-80461169D01*
X70707360Y-80461170D01*
X70707362Y-80461171D01*
X70986966Y-80521995D01*
X70986968Y-80521995D01*
X70986972Y-80521996D01*
X71240620Y-80540137D01*
X71272399Y-80542410D01*
X71272400Y-80542410D01*
X71272401Y-80542410D01*
X71300995Y-80540364D01*
X71557828Y-80521996D01*
X71837446Y-80461169D01*
X72105561Y-80361167D01*
X72356715Y-80224026D01*
X72585795Y-80052539D01*
X72788139Y-79850195D01*
X72959626Y-79621115D01*
X72995182Y-79556000D01*
X75473000Y-79556000D01*
X75473000Y-79888844D01*
X75479401Y-79948372D01*
X75479403Y-79948379D01*
X75529645Y-80083086D01*
X75529649Y-80083093D01*
X75615809Y-80198187D01*
X75615812Y-80198190D01*
X75730906Y-80284350D01*
X75730913Y-80284354D01*
X75865620Y-80334596D01*
X75865627Y-80334598D01*
X75925155Y-80340999D01*
X75925172Y-80341000D01*
X76458000Y-80341000D01*
X76458000Y-79556000D01*
X76958000Y-79556000D01*
X76958000Y-80341000D01*
X77490828Y-80341000D01*
X77490844Y-80340999D01*
X77550372Y-80334598D01*
X77550379Y-80334596D01*
X77685086Y-80284354D01*
X77685093Y-80284350D01*
X77800187Y-80198190D01*
X77800190Y-80198187D01*
X77886350Y-80083093D01*
X77886354Y-80083086D01*
X77936596Y-79948379D01*
X77936598Y-79948372D01*
X77942999Y-79888844D01*
X77943000Y-79888827D01*
X77943000Y-79556000D01*
X76958000Y-79556000D01*
X76458000Y-79556000D01*
X75473000Y-79556000D01*
X72995182Y-79556000D01*
X73096767Y-79369961D01*
X73196769Y-79101846D01*
X73257596Y-78822228D01*
X73278010Y-78536800D01*
X73257596Y-78251372D01*
X73257052Y-78248873D01*
X73196771Y-77971762D01*
X73196770Y-77971760D01*
X73196769Y-77971754D01*
X73096767Y-77703639D01*
X73076639Y-77666778D01*
X72959629Y-77452490D01*
X72959624Y-77452482D01*
X72788145Y-77223412D01*
X72788129Y-77223394D01*
X72585805Y-77021070D01*
X72585787Y-77021054D01*
X72356717Y-76849575D01*
X72356709Y-76849570D01*
X72105566Y-76712435D01*
X72105567Y-76712435D01*
X71998315Y-76672432D01*
X71837446Y-76612431D01*
X71837443Y-76612430D01*
X71837437Y-76612428D01*
X71557833Y-76551604D01*
X71272401Y-76531190D01*
X71272399Y-76531190D01*
X70986966Y-76551604D01*
X70707362Y-76612428D01*
X70439233Y-76712435D01*
X70188090Y-76849570D01*
X70188082Y-76849575D01*
X69959012Y-77021054D01*
X69958994Y-77021070D01*
X69756670Y-77223394D01*
X69756654Y-77223412D01*
X69585175Y-77452482D01*
X69585170Y-77452490D01*
X69448035Y-77703633D01*
X69348028Y-77971762D01*
X69287204Y-78251366D01*
X69266790Y-78536798D01*
X69266790Y-78536801D01*
X67818000Y-78536801D01*
X67818000Y-73402000D01*
X68799000Y-73402000D01*
X68799000Y-74099844D01*
X68805401Y-74159372D01*
X68805403Y-74159379D01*
X68855645Y-74294086D01*
X68855649Y-74294093D01*
X68941809Y-74409187D01*
X68941812Y-74409190D01*
X69056906Y-74495350D01*
X69056913Y-74495354D01*
X69191620Y-74545596D01*
X69191627Y-74545598D01*
X69251155Y-74551999D01*
X69251172Y-74552000D01*
X69574000Y-74552000D01*
X69574000Y-73402000D01*
X68799000Y-73402000D01*
X67818000Y-73402000D01*
X67818000Y-72902000D01*
X68799000Y-72902000D01*
X69574000Y-72902000D01*
X69574000Y-71752000D01*
X69251155Y-71752000D01*
X69191627Y-71758401D01*
X69191620Y-71758403D01*
X69056913Y-71808645D01*
X69056906Y-71808649D01*
X68941812Y-71894809D01*
X68941809Y-71894812D01*
X68855649Y-72009906D01*
X68855645Y-72009913D01*
X68805403Y-72144620D01*
X68805401Y-72144627D01*
X68799000Y-72204155D01*
X68799000Y-72902000D01*
X67818000Y-72902000D01*
X67818000Y-70924870D01*
X68798500Y-70924870D01*
X68798501Y-70924876D01*
X68804908Y-70984483D01*
X68855202Y-71119328D01*
X68855206Y-71119335D01*
X68941452Y-71234544D01*
X68941455Y-71234547D01*
X69056664Y-71320793D01*
X69056671Y-71320797D01*
X69191517Y-71371091D01*
X69191516Y-71371091D01*
X69198444Y-71371835D01*
X69251127Y-71377500D01*
X70288547Y-71377499D01*
X70355586Y-71397183D01*
X70376228Y-71413818D01*
X70504122Y-71541712D01*
X70537607Y-71603035D01*
X70532623Y-71672727D01*
X70490751Y-71728660D01*
X70425287Y-71753077D01*
X70403193Y-71752683D01*
X70396845Y-71752000D01*
X70074000Y-71752000D01*
X70074000Y-74552000D01*
X70396828Y-74552000D01*
X70396844Y-74551999D01*
X70456372Y-74545598D01*
X70456379Y-74545596D01*
X70591086Y-74495354D01*
X70591093Y-74495350D01*
X70706187Y-74409190D01*
X70706190Y-74409187D01*
X70792350Y-74294093D01*
X70792353Y-74294088D01*
X70810263Y-74246067D01*
X70852133Y-74190133D01*
X70917597Y-74165714D01*
X70985870Y-74180564D01*
X71014127Y-74201717D01*
X74874016Y-78061606D01*
X74874045Y-78061637D01*
X74964264Y-78151856D01*
X74964267Y-78151858D01*
X75041190Y-78203256D01*
X75066710Y-78220309D01*
X75066712Y-78220310D01*
X75066715Y-78220312D01*
X75133396Y-78247931D01*
X75133398Y-78247933D01*
X75173640Y-78264601D01*
X75180548Y-78267463D01*
X75240971Y-78279481D01*
X75301393Y-78291500D01*
X75301394Y-78291500D01*
X75386479Y-78291500D01*
X75453518Y-78311185D01*
X75499273Y-78363989D01*
X75502661Y-78372167D01*
X75529222Y-78443381D01*
X75534206Y-78513073D01*
X75529222Y-78530046D01*
X75479403Y-78663617D01*
X75479401Y-78663627D01*
X75473000Y-78723155D01*
X75473000Y-79056000D01*
X77943000Y-79056000D01*
X77943000Y-78723172D01*
X77942999Y-78723155D01*
X77936598Y-78663627D01*
X77936597Y-78663623D01*
X77886776Y-78530049D01*
X77881792Y-78460358D01*
X77886776Y-78443381D01*
X77886793Y-78443334D01*
X77886796Y-78443331D01*
X77913339Y-78372163D01*
X77955210Y-78316233D01*
X78020674Y-78291816D01*
X78029520Y-78291500D01*
X82168307Y-78291500D01*
X82228729Y-78279481D01*
X82289152Y-78267463D01*
X82334032Y-78248873D01*
X82402986Y-78220312D01*
X82456153Y-78184786D01*
X82456154Y-78184786D01*
X82488781Y-78162984D01*
X82505433Y-78151858D01*
X82592558Y-78064733D01*
X82592558Y-78064731D01*
X82602766Y-78054524D01*
X82602768Y-78054521D01*
X82908489Y-77748799D01*
X82969810Y-77715316D01*
X83039502Y-77720300D01*
X83065059Y-77733380D01*
X83149506Y-77789806D01*
X83149510Y-77789808D01*
X83149513Y-77789810D01*
X83263347Y-77836962D01*
X83293690Y-77842997D01*
X83321066Y-77848443D01*
X83321086Y-77848446D01*
X83321108Y-77848451D01*
X83384190Y-77860998D01*
X83384191Y-77860999D01*
X83384192Y-77860999D01*
X93289609Y-77860999D01*
X93289609Y-77860998D01*
X93352692Y-77848451D01*
X93352693Y-77848451D01*
X93372301Y-77844550D01*
X93410453Y-77836962D01*
X93443793Y-77823151D01*
X93524287Y-77789811D01*
X93575510Y-77755583D01*
X93610340Y-77732310D01*
X93677016Y-77711432D01*
X93711320Y-77715636D01*
X93735253Y-77722049D01*
X93864767Y-77733380D01*
X93947998Y-77740662D01*
X93948000Y-77740662D01*
X93948002Y-77740662D01*
X94001186Y-77736008D01*
X94160747Y-77722049D01*
X94367030Y-77666776D01*
X94560581Y-77576521D01*
X94735519Y-77454029D01*
X94886529Y-77303019D01*
X95009021Y-77128081D01*
X95099276Y-76934530D01*
X95154549Y-76728247D01*
X95173162Y-76515500D01*
X95154549Y-76302753D01*
X95099276Y-76096470D01*
X95009021Y-75902919D01*
X94886529Y-75727981D01*
X94886527Y-75727978D01*
X94735521Y-75576972D01*
X94560578Y-75454477D01*
X94560579Y-75454477D01*
X94431547Y-75394309D01*
X94367030Y-75364224D01*
X94367023Y-75364222D01*
X94361936Y-75362370D01*
X94362606Y-75360528D01*
X94310293Y-75328614D01*
X94279789Y-75265755D01*
X94288111Y-75196383D01*
X94332617Y-75142522D01*
X94362097Y-75129074D01*
X94361764Y-75128158D01*
X94366864Y-75126301D01*
X94560325Y-75036089D01*
X94616030Y-74997083D01*
X94052915Y-74433968D01*
X94129413Y-74413471D01*
X94236587Y-74351594D01*
X94324094Y-74264087D01*
X94385971Y-74156913D01*
X94406468Y-74080415D01*
X94969583Y-74643529D01*
X95008589Y-74587825D01*
X95098801Y-74394364D01*
X95098805Y-74394353D01*
X95154054Y-74188162D01*
X95154055Y-74188154D01*
X95172660Y-73975502D01*
X95172660Y-73975497D01*
X95154055Y-73762845D01*
X95154054Y-73762837D01*
X95098805Y-73556646D01*
X95098802Y-73556640D01*
X95008586Y-73363169D01*
X95008582Y-73363163D01*
X94969584Y-73307468D01*
X94406468Y-73870584D01*
X94385971Y-73794087D01*
X94324094Y-73686913D01*
X94236587Y-73599406D01*
X94129413Y-73537529D01*
X94052914Y-73517031D01*
X94616030Y-72953915D01*
X94560329Y-72914913D01*
X94366859Y-72824697D01*
X94361764Y-72822842D01*
X94362455Y-72820943D01*
X94310325Y-72789167D01*
X94279797Y-72726320D01*
X94288093Y-72656944D01*
X94332579Y-72603067D01*
X94362257Y-72589514D01*
X94361936Y-72588630D01*
X94367013Y-72586780D01*
X94367030Y-72586776D01*
X94560581Y-72496521D01*
X94735519Y-72374029D01*
X94886529Y-72223019D01*
X95009021Y-72048081D01*
X95099276Y-71854530D01*
X95154549Y-71648247D01*
X95171037Y-71459790D01*
X95173162Y-71435501D01*
X95173162Y-71435498D01*
X95169422Y-71392751D01*
X95154549Y-71222753D01*
X95149999Y-71205772D01*
X95151660Y-71135924D01*
X95182090Y-71085998D01*
X95394729Y-70873360D01*
X95394733Y-70873358D01*
X95481858Y-70786233D01*
X95538719Y-70701135D01*
X95538720Y-70701134D01*
X95550309Y-70683789D01*
X95550312Y-70683785D01*
X95585561Y-70598685D01*
X95597463Y-70569952D01*
X95621500Y-70449106D01*
X95621500Y-65752357D01*
X95641185Y-65685318D01*
X95677209Y-65650977D01*
X95676297Y-65649674D01*
X95680730Y-65646569D01*
X95680734Y-65646568D01*
X95693967Y-65637301D01*
X95760170Y-65614975D01*
X95827937Y-65631984D01*
X95864356Y-65664567D01*
X95870806Y-65673184D01*
X95870814Y-65673191D01*
X95985906Y-65759350D01*
X95985913Y-65759354D01*
X96120620Y-65809596D01*
X96120627Y-65809598D01*
X96180155Y-65815999D01*
X96180172Y-65816000D01*
X96778000Y-65816000D01*
X96778000Y-64831686D01*
X96782394Y-64836080D01*
X96873606Y-64888741D01*
X96975339Y-64916000D01*
X97080661Y-64916000D01*
X97182394Y-64888741D01*
X97273606Y-64836080D01*
X97278000Y-64831686D01*
X97278000Y-65816000D01*
X97875828Y-65816000D01*
X97875844Y-65815999D01*
X97935372Y-65809598D01*
X97935379Y-65809596D01*
X98070086Y-65759354D01*
X98070093Y-65759350D01*
X98185187Y-65673190D01*
X98185190Y-65673187D01*
X98271350Y-65558093D01*
X98271354Y-65558086D01*
X98321596Y-65423379D01*
X98321598Y-65423372D01*
X98327999Y-65363844D01*
X98328000Y-65363827D01*
X98328000Y-64766000D01*
X97343686Y-64766000D01*
X97348080Y-64761606D01*
X97400741Y-64670394D01*
X97428000Y-64568661D01*
X97428000Y-64463339D01*
X97400741Y-64361606D01*
X97348080Y-64270394D01*
X97343686Y-64266000D01*
X98328000Y-64266000D01*
X98328000Y-63668172D01*
X98327999Y-63668155D01*
X98321598Y-63608627D01*
X98321596Y-63608620D01*
X98271354Y-63473913D01*
X98271350Y-63473906D01*
X98185190Y-63358812D01*
X98185187Y-63358809D01*
X98070093Y-63272649D01*
X98070086Y-63272645D01*
X97935379Y-63222403D01*
X97935372Y-63222401D01*
X97875844Y-63216000D01*
X97278000Y-63216000D01*
X97278000Y-64200314D01*
X97273606Y-64195920D01*
X97182394Y-64143259D01*
X97080661Y-64116000D01*
X96975339Y-64116000D01*
X96873606Y-64143259D01*
X96782394Y-64195920D01*
X96778000Y-64200314D01*
X96778000Y-63216000D01*
X96180155Y-63216000D01*
X96120627Y-63222401D01*
X96120620Y-63222403D01*
X95985913Y-63272645D01*
X95985906Y-63272649D01*
X95870814Y-63358808D01*
X95870806Y-63358816D01*
X95864354Y-63367435D01*
X95808419Y-63409305D01*
X95738728Y-63414288D01*
X95693968Y-63394698D01*
X95676301Y-63382328D01*
X95677449Y-63380688D01*
X95635277Y-63336448D01*
X95621500Y-63279642D01*
X95621500Y-61524452D01*
X95641185Y-61457413D01*
X95657819Y-61436771D01*
X95749590Y-61345000D01*
X96133756Y-60960833D01*
X96195077Y-60927350D01*
X96253527Y-60928740D01*
X96299409Y-60941035D01*
X96456974Y-60954820D01*
X96519998Y-60960334D01*
X96520000Y-60960334D01*
X96520002Y-60960334D01*
X96575147Y-60955509D01*
X96740591Y-60941035D01*
X96954480Y-60883723D01*
X97155167Y-60790142D01*
X97336555Y-60663132D01*
X97493132Y-60506555D01*
X97620142Y-60325167D01*
X97713723Y-60124480D01*
X97771035Y-59910591D01*
X97790334Y-59690000D01*
X97789722Y-59683010D01*
X97771035Y-59469414D01*
X97771035Y-59469409D01*
X97713723Y-59255520D01*
X97620142Y-59054833D01*
X97493132Y-58873445D01*
X97336555Y-58716868D01*
X97227595Y-58640573D01*
X97183973Y-58585998D01*
X97176780Y-58516499D01*
X97208302Y-58454145D01*
X97268532Y-58418731D01*
X97298721Y-58415000D01*
X97332828Y-58415000D01*
X97332844Y-58414999D01*
X97392372Y-58408598D01*
X97392379Y-58408596D01*
X97527086Y-58358354D01*
X97527093Y-58358350D01*
X97642187Y-58272190D01*
X97642190Y-58272187D01*
X97728350Y-58157093D01*
X97728354Y-58157086D01*
X97778596Y-58022379D01*
X97778598Y-58022372D01*
X97784999Y-57962844D01*
X97785000Y-57962827D01*
X97785000Y-57400000D01*
X96964560Y-57400000D01*
X96995245Y-57346853D01*
X97030000Y-57217143D01*
X97030000Y-57082857D01*
X96995245Y-56953147D01*
X96964560Y-56900000D01*
X97785000Y-56900000D01*
X97785000Y-56337172D01*
X97784999Y-56337155D01*
X97778598Y-56277627D01*
X97778596Y-56277620D01*
X97728354Y-56142913D01*
X97728350Y-56142906D01*
X97642190Y-56027812D01*
X97642187Y-56027809D01*
X97527093Y-55941649D01*
X97527086Y-55941645D01*
X97392379Y-55891403D01*
X97392372Y-55891401D01*
X97332844Y-55885000D01*
X96770000Y-55885000D01*
X96770000Y-56705439D01*
X96716853Y-56674755D01*
X96587143Y-56640000D01*
X96452857Y-56640000D01*
X96323147Y-56674755D01*
X96270000Y-56705439D01*
X96270000Y-55885000D01*
X95707155Y-55885000D01*
X95647627Y-55891401D01*
X95647620Y-55891403D01*
X95512913Y-55941645D01*
X95512906Y-55941649D01*
X95397812Y-56027809D01*
X95397809Y-56027812D01*
X95311649Y-56142906D01*
X95311645Y-56142913D01*
X95261403Y-56277620D01*
X95261401Y-56277627D01*
X95255000Y-56337155D01*
X95255000Y-56900000D01*
X96075440Y-56900000D01*
X96044755Y-56953147D01*
X96010000Y-57082857D01*
X96010000Y-57217143D01*
X96044755Y-57346853D01*
X96075440Y-57400000D01*
X95255000Y-57400000D01*
X95255000Y-57962844D01*
X95261401Y-58022372D01*
X95261403Y-58022379D01*
X95311645Y-58157086D01*
X95311649Y-58157093D01*
X95397809Y-58272187D01*
X95397812Y-58272190D01*
X95512906Y-58358350D01*
X95512913Y-58358354D01*
X95647620Y-58408596D01*
X95647627Y-58408598D01*
X95707155Y-58414999D01*
X95707172Y-58415000D01*
X95741279Y-58415000D01*
X95808318Y-58434685D01*
X95854073Y-58487489D01*
X95864017Y-58556647D01*
X95834992Y-58620203D01*
X95812406Y-58640572D01*
X95771399Y-58669286D01*
X95703444Y-58716868D01*
X95546868Y-58873444D01*
X95419857Y-59054834D01*
X95419856Y-59054836D01*
X95326279Y-59255513D01*
X95326277Y-59255520D01*
X95268965Y-59469407D01*
X95268964Y-59469414D01*
X95249666Y-59689998D01*
X95249666Y-59690001D01*
X95268964Y-59910585D01*
X95268966Y-59910596D01*
X95281258Y-59956469D01*
X95279595Y-60026318D01*
X95249164Y-60076243D01*
X94597269Y-60728140D01*
X94510144Y-60815264D01*
X94510138Y-60815272D01*
X94475914Y-60866489D01*
X94475915Y-60866490D01*
X94441691Y-60917708D01*
X94441689Y-60917712D01*
X94441688Y-60917714D01*
X94424035Y-60960334D01*
X94394538Y-61031545D01*
X94394535Y-61031555D01*
X94370500Y-61152389D01*
X94370500Y-63324218D01*
X94350815Y-63391257D01*
X94317623Y-63425793D01*
X94188859Y-63515953D01*
X94027954Y-63676858D01*
X93915387Y-63837623D01*
X93860811Y-63881248D01*
X93813812Y-63890500D01*
X93020452Y-63890500D01*
X92953413Y-63870815D01*
X92932771Y-63854181D01*
X88995812Y-59917222D01*
X88962327Y-59855899D01*
X88967311Y-59786207D01*
X89009183Y-59730274D01*
X89059302Y-59707924D01*
X89065163Y-59706758D01*
X89184543Y-59683012D01*
X89362073Y-59609477D01*
X89521845Y-59502720D01*
X89657720Y-59366845D01*
X89764477Y-59207073D01*
X89838012Y-59029543D01*
X89875500Y-58841078D01*
X89875500Y-57998922D01*
X89875500Y-57998919D01*
X89875499Y-57998917D01*
X89851457Y-57878050D01*
X89838012Y-57810457D01*
X89826701Y-57783150D01*
X89764479Y-57632931D01*
X89764478Y-57632929D01*
X89760727Y-57627316D01*
X89657720Y-57473155D01*
X89657717Y-57473151D01*
X89561819Y-57377253D01*
X89528334Y-57315930D01*
X89525500Y-57289572D01*
X89525500Y-54094499D01*
X89545185Y-54027460D01*
X89597989Y-53981705D01*
X89649500Y-53970499D01*
X89712871Y-53970499D01*
X89712872Y-53970499D01*
X89772483Y-53964091D01*
X89907331Y-53913796D01*
X90022546Y-53827546D01*
X90108796Y-53712331D01*
X90159091Y-53577483D01*
X90165500Y-53517873D01*
X90165499Y-51892128D01*
X90159091Y-51832517D01*
X90152931Y-51816001D01*
X94260390Y-51816001D01*
X94280804Y-52101433D01*
X94341628Y-52381037D01*
X94341630Y-52381043D01*
X94341631Y-52381046D01*
X94431274Y-52621387D01*
X94441635Y-52649166D01*
X94578770Y-52900309D01*
X94578775Y-52900317D01*
X94750254Y-53129387D01*
X94750270Y-53129405D01*
X94952594Y-53331729D01*
X94952612Y-53331745D01*
X95181682Y-53503224D01*
X95181690Y-53503229D01*
X95432833Y-53640364D01*
X95432832Y-53640364D01*
X95432836Y-53640365D01*
X95432839Y-53640367D01*
X95700954Y-53740369D01*
X95700960Y-53740370D01*
X95700962Y-53740371D01*
X95980566Y-53801195D01*
X95980568Y-53801195D01*
X95980572Y-53801196D01*
X96234220Y-53819337D01*
X96265999Y-53821610D01*
X96266000Y-53821610D01*
X96266001Y-53821610D01*
X96294595Y-53819564D01*
X96551428Y-53801196D01*
X96831046Y-53740369D01*
X97099161Y-53640367D01*
X97350315Y-53503226D01*
X97579395Y-53331739D01*
X97781739Y-53129395D01*
X97953226Y-52900315D01*
X98090367Y-52649161D01*
X98190369Y-52381046D01*
X98251196Y-52101428D01*
X98271610Y-51816000D01*
X98251196Y-51530572D01*
X98246998Y-51511275D01*
X98190371Y-51250962D01*
X98190370Y-51250960D01*
X98190369Y-51250954D01*
X98090367Y-50982839D01*
X97959379Y-50742954D01*
X97953229Y-50731690D01*
X97953224Y-50731682D01*
X97781745Y-50502612D01*
X97781729Y-50502594D01*
X97579405Y-50300270D01*
X97579387Y-50300254D01*
X97350317Y-50128775D01*
X97350309Y-50128770D01*
X97099166Y-49991635D01*
X97099167Y-49991635D01*
X96991915Y-49951632D01*
X96831046Y-49891631D01*
X96831043Y-49891630D01*
X96831037Y-49891628D01*
X96551433Y-49830804D01*
X96266001Y-49810390D01*
X96265999Y-49810390D01*
X95980566Y-49830804D01*
X95700962Y-49891628D01*
X95432833Y-49991635D01*
X95181690Y-50128770D01*
X95181682Y-50128775D01*
X94952612Y-50300254D01*
X94952594Y-50300270D01*
X94750270Y-50502594D01*
X94750254Y-50502612D01*
X94578775Y-50731682D01*
X94578770Y-50731690D01*
X94441635Y-50982833D01*
X94341628Y-51250962D01*
X94280804Y-51530566D01*
X94260390Y-51815998D01*
X94260390Y-51816001D01*
X90152931Y-51816001D01*
X90144644Y-51793783D01*
X90108797Y-51697671D01*
X90108793Y-51697664D01*
X90022547Y-51582455D01*
X90022544Y-51582452D01*
X89907335Y-51496206D01*
X89907328Y-51496202D01*
X89772482Y-51445908D01*
X89772483Y-51445908D01*
X89712883Y-51439501D01*
X89712881Y-51439500D01*
X89712873Y-51439500D01*
X89712864Y-51439500D01*
X88087129Y-51439500D01*
X88087123Y-51439501D01*
X88027516Y-51445908D01*
X87892671Y-51496202D01*
X87892664Y-51496206D01*
X87777455Y-51582452D01*
X87777452Y-51582455D01*
X87691206Y-51697664D01*
X87691202Y-51697671D01*
X87640908Y-51832517D01*
X87634896Y-51888441D01*
X87634501Y-51892123D01*
X87634500Y-51892135D01*
X87634500Y-51925564D01*
X87614815Y-51992603D01*
X87562011Y-52038358D01*
X87492853Y-52048302D01*
X87429297Y-52019277D01*
X87408926Y-51996688D01*
X87333137Y-51888452D01*
X87333136Y-51888451D01*
X87333132Y-51888445D01*
X87176555Y-51731868D01*
X86995167Y-51604858D01*
X86970666Y-51593433D01*
X86794486Y-51511279D01*
X86794475Y-51511275D01*
X86580592Y-51453965D01*
X86580585Y-51453964D01*
X86360002Y-51434666D01*
X86359998Y-51434666D01*
X86139414Y-51453964D01*
X86139407Y-51453965D01*
X85925524Y-51511275D01*
X85925513Y-51511279D01*
X85724836Y-51604856D01*
X85724834Y-51604857D01*
X85543444Y-51731868D01*
X85386868Y-51888444D01*
X85332791Y-51965673D01*
X85290112Y-52026625D01*
X85235537Y-52070249D01*
X85188539Y-52079500D01*
X85172453Y-52079500D01*
X85105414Y-52059815D01*
X85084772Y-52043181D01*
X84342418Y-51300827D01*
X84308933Y-51239504D01*
X84306099Y-51213146D01*
X84306099Y-50175729D01*
X84306098Y-50175723D01*
X84303025Y-50147137D01*
X84299691Y-50116117D01*
X84259026Y-50007089D01*
X84249397Y-49981271D01*
X84249393Y-49981264D01*
X84163147Y-49866055D01*
X84163144Y-49866052D01*
X84047935Y-49779806D01*
X84047928Y-49779802D01*
X83913082Y-49729508D01*
X83913083Y-49729508D01*
X83853483Y-49723101D01*
X83853481Y-49723100D01*
X83853473Y-49723100D01*
X83853464Y-49723100D01*
X81957729Y-49723100D01*
X81957723Y-49723101D01*
X81898116Y-49729508D01*
X81763271Y-49779802D01*
X81763264Y-49779806D01*
X81648055Y-49866052D01*
X81648052Y-49866055D01*
X81561806Y-49981264D01*
X81561802Y-49981271D01*
X81538991Y-50042433D01*
X81497120Y-50098367D01*
X81431656Y-50122784D01*
X81422809Y-50123100D01*
X81118589Y-50123100D01*
X81058171Y-50135118D01*
X81014943Y-50143716D01*
X80997746Y-50147137D01*
X80883916Y-50194287D01*
X80883907Y-50194292D01*
X80781468Y-50262740D01*
X80743955Y-50300254D01*
X80694342Y-50349867D01*
X80694339Y-50349870D01*
X74925427Y-56118781D01*
X74864104Y-56152266D01*
X74837746Y-56155100D01*
X74383836Y-56155100D01*
X74266446Y-56170553D01*
X74266437Y-56170556D01*
X74120360Y-56231063D01*
X73994918Y-56327318D01*
X73898663Y-56452760D01*
X73838156Y-56598837D01*
X73838155Y-56598839D01*
X73822700Y-56716238D01*
X73822700Y-56994963D01*
X73838153Y-57112353D01*
X73838157Y-57112365D01*
X73846766Y-57133150D01*
X73854233Y-57202619D01*
X73846766Y-57228050D01*
X73838157Y-57248834D01*
X73838155Y-57248839D01*
X73822700Y-57366238D01*
X73822700Y-57644963D01*
X73838153Y-57762353D01*
X73838157Y-57762365D01*
X73846766Y-57783150D01*
X73854233Y-57852619D01*
X73846766Y-57878050D01*
X73838157Y-57898834D01*
X73838155Y-57898839D01*
X73822700Y-58016238D01*
X73822700Y-58294963D01*
X73838153Y-58412353D01*
X73838156Y-58412362D01*
X73847402Y-58434685D01*
X73898664Y-58558441D01*
X73994918Y-58683882D01*
X74120359Y-58780136D01*
X74266438Y-58840644D01*
X74383839Y-58856100D01*
X74837747Y-58856099D01*
X74904786Y-58875783D01*
X74925428Y-58892418D01*
X75766781Y-59733771D01*
X75800266Y-59795094D01*
X75803100Y-59821452D01*
X75803100Y-63431848D01*
X75783415Y-63498887D01*
X75730611Y-63544642D01*
X75661453Y-63554586D01*
X75597897Y-63525561D01*
X75591187Y-63518354D01*
X75590817Y-63518725D01*
X75584544Y-63512452D01*
X75469335Y-63426206D01*
X75469328Y-63426202D01*
X75334482Y-63375908D01*
X75334483Y-63375908D01*
X75274883Y-63369501D01*
X75274881Y-63369500D01*
X75274873Y-63369500D01*
X75274864Y-63369500D01*
X74129129Y-63369500D01*
X74129123Y-63369501D01*
X74069516Y-63375908D01*
X73934671Y-63426202D01*
X73934664Y-63426206D01*
X73819455Y-63512452D01*
X73819452Y-63512455D01*
X73733206Y-63627664D01*
X73733202Y-63627671D01*
X73682908Y-63762517D01*
X73676501Y-63822116D01*
X73676501Y-63822123D01*
X73676500Y-63822135D01*
X73676500Y-65660548D01*
X73656815Y-65727587D01*
X73604011Y-65773342D01*
X73534853Y-65783286D01*
X73471297Y-65754261D01*
X73464819Y-65748229D01*
X72663818Y-64947227D01*
X72630333Y-64885904D01*
X72627499Y-64859546D01*
X72627499Y-63822129D01*
X72627498Y-63822123D01*
X72627497Y-63822116D01*
X72621091Y-63762517D01*
X72589143Y-63676861D01*
X72570797Y-63627671D01*
X72570793Y-63627664D01*
X72484547Y-63512455D01*
X72484544Y-63512452D01*
X72369335Y-63426206D01*
X72369328Y-63426202D01*
X72234482Y-63375908D01*
X72234483Y-63375908D01*
X72174883Y-63369501D01*
X72174881Y-63369500D01*
X72174873Y-63369500D01*
X72174864Y-63369500D01*
X71029129Y-63369500D01*
X71029123Y-63369501D01*
X70969516Y-63375908D01*
X70834671Y-63426202D01*
X70834664Y-63426206D01*
X70719455Y-63512452D01*
X70719452Y-63512455D01*
X70633206Y-63627664D01*
X70633202Y-63627671D01*
X70582908Y-63762517D01*
X70576501Y-63822116D01*
X70576501Y-63822123D01*
X70576500Y-63822135D01*
X70576500Y-64859546D01*
X70556815Y-64926585D01*
X70540180Y-64947227D01*
X69425269Y-66062140D01*
X69425267Y-66062142D01*
X69381704Y-66105704D01*
X69338142Y-66149266D01*
X69307626Y-66194937D01*
X69307625Y-66194936D01*
X69269687Y-66251714D01*
X69260807Y-66273155D01*
X69245321Y-66310542D01*
X69222538Y-66365544D01*
X69222535Y-66365556D01*
X69198500Y-66486389D01*
X69198500Y-68494209D01*
X69178815Y-68561248D01*
X69126011Y-68607003D01*
X69117833Y-68610391D01*
X69056671Y-68633202D01*
X69056664Y-68633206D01*
X68941455Y-68719452D01*
X68941452Y-68719455D01*
X68855206Y-68834664D01*
X68855202Y-68834671D01*
X68804908Y-68969517D01*
X68799434Y-69020439D01*
X68798501Y-69029123D01*
X68798500Y-69029135D01*
X68798500Y-70924870D01*
X67818000Y-70924870D01*
X67818000Y-51308001D01*
X69622390Y-51308001D01*
X69642804Y-51593433D01*
X69703628Y-51873037D01*
X69703630Y-51873043D01*
X69703631Y-51873046D01*
X69777029Y-52069833D01*
X69803635Y-52141166D01*
X69940770Y-52392309D01*
X69940775Y-52392317D01*
X70112254Y-52621387D01*
X70112270Y-52621405D01*
X70314594Y-52823729D01*
X70314612Y-52823745D01*
X70543682Y-52995224D01*
X70543690Y-52995229D01*
X70794833Y-53132364D01*
X70794832Y-53132364D01*
X70794836Y-53132365D01*
X70794839Y-53132367D01*
X71062954Y-53232369D01*
X71062960Y-53232370D01*
X71062962Y-53232371D01*
X71342566Y-53293195D01*
X71342568Y-53293195D01*
X71342572Y-53293196D01*
X71596220Y-53311337D01*
X71627999Y-53313610D01*
X71628000Y-53313610D01*
X71628001Y-53313610D01*
X71656595Y-53311564D01*
X71913428Y-53293196D01*
X71993604Y-53275755D01*
X72193037Y-53232371D01*
X72193037Y-53232370D01*
X72193046Y-53232369D01*
X72461161Y-53132367D01*
X72712315Y-52995226D01*
X72941395Y-52823739D01*
X73143739Y-52621395D01*
X73315226Y-52392315D01*
X73452367Y-52141161D01*
X73552369Y-51873046D01*
X73586228Y-51717397D01*
X73613195Y-51593433D01*
X73613195Y-51593432D01*
X73613196Y-51593428D01*
X73633610Y-51308000D01*
X73630499Y-51264509D01*
X73626826Y-51213146D01*
X73613196Y-51022572D01*
X73604551Y-50982833D01*
X73552371Y-50742962D01*
X73552370Y-50742960D01*
X73552369Y-50742954D01*
X73452367Y-50474839D01*
X73384128Y-50349870D01*
X73315229Y-50223690D01*
X73315224Y-50223682D01*
X73143745Y-49994612D01*
X73143729Y-49994594D01*
X72941405Y-49792270D01*
X72941387Y-49792254D01*
X72712317Y-49620775D01*
X72712309Y-49620770D01*
X72461166Y-49483635D01*
X72461167Y-49483635D01*
X72353915Y-49443632D01*
X72193046Y-49383631D01*
X72193043Y-49383630D01*
X72193037Y-49383628D01*
X71913433Y-49322804D01*
X71628001Y-49302390D01*
X71627999Y-49302390D01*
X71342566Y-49322804D01*
X71062962Y-49383628D01*
X70794833Y-49483635D01*
X70543690Y-49620770D01*
X70543682Y-49620775D01*
X70314612Y-49792254D01*
X70314594Y-49792270D01*
X70112270Y-49994594D01*
X70112254Y-49994612D01*
X69940775Y-50223682D01*
X69940770Y-50223690D01*
X69803635Y-50474833D01*
X69703628Y-50742962D01*
X69642804Y-51022566D01*
X69622390Y-51307998D01*
X69622390Y-51308001D01*
X67818000Y-51308001D01*
X67818000Y-50007089D01*
X67818020Y-50004878D01*
X67818441Y-49981264D01*
X67820409Y-49870889D01*
X67821650Y-49855472D01*
X67859948Y-49589099D01*
X67863709Y-49571814D01*
X67889601Y-49483635D01*
X67939210Y-49314681D01*
X67945391Y-49298112D01*
X68056720Y-49054334D01*
X68065185Y-49038832D01*
X68210084Y-48813364D01*
X68220670Y-48799222D01*
X68396177Y-48596676D01*
X68408676Y-48584177D01*
X68611222Y-48408670D01*
X68625364Y-48398084D01*
X68850832Y-48253185D01*
X68866334Y-48244720D01*
X69110112Y-48133390D01*
X69126681Y-48127210D01*
X69383818Y-48051707D01*
X69401099Y-48047948D01*
X69667472Y-48009650D01*
X69682889Y-48008409D01*
X69816879Y-48006020D01*
X69819090Y-48006000D01*
X98836910Y-48006000D01*
X98839121Y-48006020D01*
G37*
%TD.AperFunction*%
%TD*%
M02*
