%TF.GenerationSoftware,KiCad,Pcbnew,8.0.0*%
%TF.CreationDate,2024-06-23T16:30:46+02:00*%
%TF.ProjectId,TSAL,5453414c-2e6b-4696-9361-645f70636258,V2.1*%
%TF.SameCoordinates,Original*%
%TF.FileFunction,Paste,Top*%
%TF.FilePolarity,Positive*%
%FSLAX46Y46*%
G04 Gerber Fmt 4.6, Leading zero omitted, Abs format (unit mm)*
G04 Created by KiCad (PCBNEW 8.0.0) date 2024-06-23 16:30:46*
%MOMM*%
%LPD*%
G01*
G04 APERTURE LIST*
G04 Aperture macros list*
%AMRoundRect*
0 Rectangle with rounded corners*
0 $1 Rounding radius*
0 $2 $3 $4 $5 $6 $7 $8 $9 X,Y pos of 4 corners*
0 Add a 4 corners polygon primitive as box body*
4,1,4,$2,$3,$4,$5,$6,$7,$8,$9,$2,$3,0*
0 Add four circle primitives for the rounded corners*
1,1,$1+$1,$2,$3*
1,1,$1+$1,$4,$5*
1,1,$1+$1,$6,$7*
1,1,$1+$1,$8,$9*
0 Add four rect primitives between the rounded corners*
20,1,$1+$1,$2,$3,$4,$5,0*
20,1,$1+$1,$4,$5,$6,$7,0*
20,1,$1+$1,$6,$7,$8,$9,0*
20,1,$1+$1,$8,$9,$2,$3,0*%
G04 Aperture macros list end*
%ADD10R,1.050000X1.800000*%
%ADD11R,1.800000X1.050000*%
%ADD12R,1.150000X0.600000*%
%ADD13RoundRect,0.250000X0.625000X-0.312500X0.625000X0.312500X-0.625000X0.312500X-0.625000X-0.312500X0*%
%ADD14RoundRect,0.243750X0.243750X0.456250X-0.243750X0.456250X-0.243750X-0.456250X0.243750X-0.456250X0*%
%ADD15RoundRect,0.100000X-0.100000X0.637500X-0.100000X-0.637500X0.100000X-0.637500X0.100000X0.637500X0*%
%ADD16R,1.470000X1.070000*%
%ADD17RoundRect,0.243750X-0.243750X-0.456250X0.243750X-0.456250X0.243750X0.456250X-0.243750X0.456250X0*%
%ADD18R,1.528000X0.650000*%
%ADD19R,0.600000X1.150000*%
%ADD20RoundRect,0.250000X0.312500X0.625000X-0.312500X0.625000X-0.312500X-0.625000X0.312500X-0.625000X0*%
%ADD21R,1.500000X0.400000*%
%ADD22RoundRect,0.150000X-0.512500X-0.150000X0.512500X-0.150000X0.512500X0.150000X-0.512500X0.150000X0*%
%ADD23RoundRect,0.243750X-0.456250X0.243750X-0.456250X-0.243750X0.456250X-0.243750X0.456250X0.243750X0*%
%ADD24RoundRect,0.100000X0.100000X-0.637500X0.100000X0.637500X-0.100000X0.637500X-0.100000X-0.637500X0*%
%ADD25RoundRect,0.100000X-0.637500X-0.100000X0.637500X-0.100000X0.637500X0.100000X-0.637500X0.100000X0*%
%ADD26RoundRect,0.100000X-0.225000X-0.100000X0.225000X-0.100000X0.225000X0.100000X-0.225000X0.100000X0*%
%ADD27R,0.650000X1.525000*%
%ADD28RoundRect,0.250000X-0.312500X-0.625000X0.312500X-0.625000X0.312500X0.625000X-0.312500X0.625000X0*%
G04 APERTURE END LIST*
D10*
%TO.C,R6*%
X121487600Y-72237600D03*
X124587600Y-72237600D03*
%TD*%
%TO.C,R48*%
X125704000Y-65811400D03*
X128804000Y-65811400D03*
%TD*%
D11*
%TO.C,R47*%
X122707400Y-68682200D03*
X122707400Y-65582200D03*
%TD*%
D10*
%TO.C,R46*%
X120903400Y-43840400D03*
X124003400Y-43840400D03*
%TD*%
%TO.C,R45*%
X124028800Y-41071800D03*
X120928800Y-41071800D03*
%TD*%
%TO.C,R18*%
X124028800Y-38277800D03*
X120928800Y-38277800D03*
%TD*%
D12*
%TO.C,G5*%
X93726000Y-57917000D03*
X93726000Y-58867000D03*
X93726000Y-59817000D03*
X96326000Y-59817000D03*
X96326000Y-57917000D03*
%TD*%
D13*
%TO.C,R38*%
X114808000Y-79440500D03*
X114808000Y-76515500D03*
%TD*%
D14*
%TO.C,D5*%
X96568500Y-48387000D03*
X94693500Y-48387000D03*
%TD*%
D15*
%TO.C,CP4*%
X113456000Y-44254500D03*
X112806000Y-44254500D03*
X112156000Y-44254500D03*
X111506000Y-44254500D03*
X110856000Y-44254500D03*
X110206000Y-44254500D03*
X109556000Y-44254500D03*
X109556000Y-49979500D03*
X110206000Y-49979500D03*
X110856000Y-49979500D03*
X111506000Y-49979500D03*
X112156000Y-49979500D03*
X112806000Y-49979500D03*
X113456000Y-49979500D03*
%TD*%
D16*
%TO.C,C23*%
X104521000Y-70601000D03*
X104521000Y-68961000D03*
%TD*%
D11*
%TO.C,R23*%
X115316000Y-35967000D03*
X115316000Y-32867000D03*
%TD*%
D17*
%TO.C,D3*%
X83973500Y-48117000D03*
X85848500Y-48117000D03*
%TD*%
D18*
%TO.C,TI1*%
X118955000Y-31902400D03*
X118955000Y-33172400D03*
X118955000Y-34442400D03*
X118955000Y-35712400D03*
X124377000Y-35712400D03*
X124377000Y-34442400D03*
X124377000Y-33172400D03*
X124377000Y-31902400D03*
%TD*%
D10*
%TO.C,R2*%
X81381000Y-38592000D03*
X78281000Y-38592000D03*
%TD*%
D19*
%TO.C,G15*%
X92903000Y-78770000D03*
X93853000Y-78770000D03*
X94803000Y-78770000D03*
X94803000Y-76170000D03*
X92903000Y-76170000D03*
%TD*%
D11*
%TO.C,R28*%
X118617870Y-50853974D03*
X118617870Y-47753974D03*
%TD*%
D20*
%TO.C,R37*%
X129732500Y-74930000D03*
X126807500Y-74930000D03*
%TD*%
D21*
%TO.C,U2*%
X88198000Y-67452000D03*
X88198000Y-66802000D03*
X88198000Y-66152000D03*
X85538000Y-66152000D03*
X85538000Y-67452000D03*
%TD*%
D12*
%TO.C,G6*%
X93756000Y-62362000D03*
X93756000Y-63312000D03*
X93756000Y-64262000D03*
X96356000Y-64262000D03*
X96356000Y-62362000D03*
%TD*%
D22*
%TO.C,Q4*%
X117353500Y-76774000D03*
X117353500Y-78674000D03*
X119628500Y-77724000D03*
%TD*%
D23*
%TO.C,D7*%
X115951000Y-43004500D03*
X115951000Y-44879500D03*
%TD*%
D17*
%TO.C,D6*%
X92915500Y-74168000D03*
X94790500Y-74168000D03*
%TD*%
D19*
%TO.C,G8*%
X117541000Y-71912000D03*
X118491000Y-71912000D03*
X119441000Y-71912000D03*
X119441000Y-69312000D03*
X117541000Y-69312000D03*
%TD*%
D24*
%TO.C,CP2*%
X105197000Y-49979500D03*
X105847000Y-49979500D03*
X106497000Y-49979500D03*
X107147000Y-49979500D03*
X107147000Y-44254500D03*
X106497000Y-44254500D03*
X105847000Y-44254500D03*
X105197000Y-44254500D03*
%TD*%
D17*
%TO.C,D1*%
X83973500Y-38592000D03*
X85848500Y-38592000D03*
%TD*%
D25*
%TO.C,U1*%
X103563500Y-37874159D03*
X103563500Y-38524159D03*
X103563500Y-39174159D03*
X103563500Y-39824159D03*
X103563500Y-40474159D03*
X103563500Y-41124159D03*
X103563500Y-41774159D03*
X109288500Y-41774159D03*
X109288500Y-41124159D03*
X109288500Y-40474159D03*
X109288500Y-39824159D03*
X109288500Y-39174159D03*
X109288500Y-38524159D03*
X109288500Y-37874159D03*
%TD*%
D14*
%TO.C,D8*%
X114089634Y-52207993D03*
X112214634Y-52207993D03*
%TD*%
D17*
%TO.C,D4*%
X83898500Y-57642000D03*
X85773500Y-57642000D03*
%TD*%
%TO.C,D10*%
X98201000Y-42037000D03*
X100076000Y-42037000D03*
%TD*%
D10*
%TO.C,R27*%
X107733500Y-66167000D03*
X110833500Y-66167000D03*
%TD*%
%TO.C,R21*%
X94921000Y-38227000D03*
X91821000Y-38227000D03*
%TD*%
%TO.C,R4*%
X81381000Y-48117000D03*
X78281000Y-48117000D03*
%TD*%
D12*
%TO.C,G11*%
X98836000Y-62362000D03*
X98836000Y-63312000D03*
X98836000Y-64262000D03*
X101436000Y-64262000D03*
X101436000Y-62362000D03*
%TD*%
D16*
%TO.C,C22*%
X113157000Y-64458000D03*
X113157000Y-66098000D03*
%TD*%
D12*
%TO.C,G2*%
X88646000Y-49022000D03*
X88646000Y-49972000D03*
X88646000Y-50922000D03*
X91246000Y-50922000D03*
X91246000Y-49022000D03*
%TD*%
D19*
%TO.C,G14*%
X100319800Y-69295800D03*
X101269800Y-69295800D03*
X102219800Y-69295800D03*
X102219800Y-66695800D03*
X100319800Y-66695800D03*
%TD*%
D22*
%TO.C,Q3*%
X122179500Y-75504000D03*
X122179500Y-77404000D03*
X124454500Y-76454000D03*
%TD*%
D26*
%TO.C,CP1*%
X92750600Y-70663000D03*
X92750600Y-71313000D03*
X92750600Y-71963000D03*
X94650600Y-71963000D03*
X94650600Y-70663000D03*
%TD*%
D12*
%TO.C,G4*%
X88676000Y-57917000D03*
X88676000Y-58867000D03*
X88676000Y-59817000D03*
X91276000Y-59817000D03*
X91276000Y-57917000D03*
%TD*%
%TO.C,G12*%
X98836000Y-53472000D03*
X98836000Y-54422000D03*
X98836000Y-55372000D03*
X101436000Y-55372000D03*
X101436000Y-53472000D03*
%TD*%
D10*
%TO.C,R22*%
X100001000Y-38227000D03*
X96901000Y-38227000D03*
%TD*%
D12*
%TO.C,G9*%
X93726000Y-53472000D03*
X93726000Y-54422000D03*
X93726000Y-55372000D03*
X96326000Y-55372000D03*
X96326000Y-53472000D03*
%TD*%
D23*
%TO.C,D11*%
X112860243Y-39745325D03*
X112860243Y-41620325D03*
%TD*%
D12*
%TO.C,G7*%
X88676000Y-62362000D03*
X88676000Y-63312000D03*
X88676000Y-64262000D03*
X91276000Y-64262000D03*
X91276000Y-62362000D03*
%TD*%
%TO.C,G10*%
X93756000Y-44577000D03*
X93756000Y-45527000D03*
X93756000Y-46477000D03*
X96356000Y-46477000D03*
X96356000Y-44577000D03*
%TD*%
D19*
%TO.C,G16*%
X96840000Y-78516000D03*
X97790000Y-78516000D03*
X98740000Y-78516000D03*
X98740000Y-75916000D03*
X96840000Y-75916000D03*
%TD*%
D10*
%TO.C,R26*%
X110833500Y-63627000D03*
X107733500Y-63627000D03*
%TD*%
D12*
%TO.C,G1*%
X88646000Y-45212000D03*
X88646000Y-46162000D03*
X88646000Y-47112000D03*
X91246000Y-47112000D03*
X91246000Y-45212000D03*
%TD*%
D11*
%TO.C,R25*%
X115951000Y-46837000D03*
X115951000Y-49937000D03*
%TD*%
D12*
%TO.C,G3*%
X88676000Y-53472000D03*
X88676000Y-54422000D03*
X88676000Y-55372000D03*
X91276000Y-55372000D03*
X91276000Y-53472000D03*
%TD*%
D14*
%TO.C,D9*%
X95926950Y-51370969D03*
X94051950Y-51370969D03*
%TD*%
D23*
%TO.C,D2*%
X110871000Y-76327000D03*
X110871000Y-78202000D03*
%TD*%
D27*
%TO.C,DL1*%
X100711000Y-77941000D03*
X101981000Y-77941000D03*
X103251000Y-77941000D03*
X104521000Y-77941000D03*
X105791000Y-77941000D03*
X107061000Y-77941000D03*
X108331000Y-77941000D03*
X108331000Y-72517000D03*
X107061000Y-72517000D03*
X105791000Y-72517000D03*
X104521000Y-72517000D03*
X103251000Y-72517000D03*
X101981000Y-72517000D03*
X100711000Y-72517000D03*
%TD*%
D11*
%TO.C,R24*%
X115316000Y-41047000D03*
X115316000Y-37947000D03*
%TD*%
%TO.C,R30*%
X116078000Y-66828000D03*
X116078000Y-63728000D03*
%TD*%
D15*
%TO.C,CP3*%
X102630800Y-44273200D03*
X101980800Y-44273200D03*
X101330800Y-44273200D03*
X100680800Y-44273200D03*
X100030800Y-44273200D03*
X99380800Y-44273200D03*
X98730800Y-44273200D03*
X98730800Y-49998200D03*
X99380800Y-49998200D03*
X100030800Y-49998200D03*
X100680800Y-49998200D03*
X101330800Y-49998200D03*
X101980800Y-49998200D03*
X102630800Y-49998200D03*
%TD*%
D10*
%TO.C,R20*%
X94589000Y-67437000D03*
X97689000Y-67437000D03*
%TD*%
D28*
%TO.C,R40*%
X121981500Y-79756000D03*
X124906500Y-79756000D03*
%TD*%
D12*
%TO.C,G13*%
X98836000Y-57917000D03*
X98836000Y-58867000D03*
X98836000Y-59817000D03*
X101436000Y-59817000D03*
X101436000Y-57917000D03*
%TD*%
D10*
%TO.C,R7*%
X81306000Y-57502000D03*
X78206000Y-57502000D03*
%TD*%
D25*
%TO.C,CP5*%
X107119500Y-68367000D03*
X107119500Y-69017000D03*
X107119500Y-69667000D03*
X107119500Y-70317000D03*
X112844500Y-70317000D03*
X112844500Y-69667000D03*
X112844500Y-69017000D03*
X112844500Y-68367000D03*
%TD*%
M02*
