%TF.GenerationSoftware,KiCad,Pcbnew,8.0.5*%
%TF.CreationDate,2024-10-12T23:20:49+02:00*%
%TF.ProjectId,TSAL,5453414c-2e6b-4696-9361-645f70636258,V2.1*%
%TF.SameCoordinates,Original*%
%TF.FileFunction,Drillmap*%
%TF.FilePolarity,Positive*%
%FSLAX45Y45*%
G04 Gerber Fmt 4.5, Leading zero omitted, Abs format (unit mm)*
G04 Created by KiCad (PCBNEW 8.0.5) date 2024-10-12 23:20:49*
%MOMM*%
%LPD*%
G01*
G04 APERTURE LIST*
%ADD10C,0.100000*%
%ADD11C,0.200000*%
%ADD12C,0.320000*%
G04 APERTURE END LIST*
D10*
X12273547Y-2791253D02*
G75*
G02*
X11919993Y-2937698I-353547J353543D01*
G01*
X7702100Y-7304367D02*
G75*
G02*
X7682098Y-7364365I-99980J-3D01*
G01*
X13027100Y-8437700D02*
X12634207Y-8437700D01*
X13352100Y-3771033D02*
X13352100Y-7304367D01*
X8519993Y-2637700D02*
G75*
G02*
X8873545Y-2784148I-3J-500000D01*
G01*
X13372100Y-7364367D02*
X13407100Y-7411033D01*
X9234207Y-2937700D02*
X11919993Y-2937700D01*
X7627100Y-8037700D02*
X7627100Y-7471033D01*
X7682100Y-3711033D02*
G75*
G02*
X7702100Y-3771033I-80020J-60007D01*
G01*
X8027100Y-8437700D02*
G75*
G02*
X7627100Y-8037700I0J400000D01*
G01*
X9234207Y-2937700D02*
G75*
G02*
X8880655Y-2791252I3J500000D01*
G01*
X7627100Y-3037700D02*
G75*
G02*
X8027100Y-2637700I400000J0D01*
G01*
X13427100Y-7471033D02*
X13427100Y-8037700D01*
X13407100Y-3664367D02*
X13372100Y-3711033D01*
X7647100Y-3664367D02*
G75*
G02*
X7627100Y-3604367I80020J60007D01*
G01*
X12280653Y-2784147D02*
G75*
G02*
X12634207Y-2637702I353547J-353543D01*
G01*
X8519993Y-8437700D02*
X8027100Y-8437700D01*
X8880653Y-8284147D02*
X8873547Y-8291253D01*
X11919993Y-8137700D02*
X9234207Y-8137700D01*
X12634207Y-8437700D02*
G75*
G02*
X12280655Y-8291252I3J500000D01*
G01*
X8873547Y-2784147D02*
X8880653Y-2791253D01*
X13407100Y-7411033D02*
G75*
G02*
X13427100Y-7471033I-80020J-60007D01*
G01*
X13427100Y-3037700D02*
X13427100Y-3604367D01*
X12280653Y-8291253D02*
X12273547Y-8284147D01*
X13427100Y-8037700D02*
G75*
G02*
X13027100Y-8437700I-400000J0D01*
G01*
X13027100Y-2637700D02*
G75*
G02*
X13427100Y-3037700I0J-400000D01*
G01*
X7702100Y-7304367D02*
X7702100Y-3771033D01*
X7647100Y-7411033D02*
X7682100Y-7364367D01*
X13372100Y-7364367D02*
G75*
G02*
X13352100Y-7304367I80020J60007D01*
G01*
X13352100Y-3771033D02*
G75*
G02*
X13372102Y-3711034I99980J3D01*
G01*
X7627100Y-7471033D02*
G75*
G02*
X7647102Y-7411034I99980J3D01*
G01*
X7627100Y-3604367D02*
X7627100Y-3037700D01*
X13427100Y-3604367D02*
G75*
G02*
X13407102Y-3664368I-100000J-3D01*
G01*
X7682100Y-3711033D02*
X7647100Y-3664367D01*
X8027100Y-2637700D02*
X8519993Y-2637700D01*
X11919993Y-8137700D02*
G75*
G02*
X12273550Y-8284143I7J-500000D01*
G01*
X8873547Y-8291253D02*
G75*
G02*
X8519993Y-8437702I-353557J353553D01*
G01*
X12634207Y-2637700D02*
X13027100Y-2637700D01*
X12273547Y-2791253D02*
X12280653Y-2784147D01*
X8880653Y-8284147D02*
G75*
G02*
X9234207Y-8137698I353557J-353553D01*
G01*
D11*
D12*
X7867100Y-2877700D02*
X8187100Y-3197700D01*
X8187100Y-2877700D02*
X7867100Y-3197700D01*
X7867100Y-7877700D02*
X8187100Y-8197700D01*
X8187100Y-7877700D02*
X7867100Y-8197700D01*
X12867100Y-2877700D02*
X13187100Y-3197700D01*
X13187100Y-2877700D02*
X12867100Y-3197700D01*
X12867100Y-7877700D02*
X13187100Y-8197700D01*
X13187100Y-7877700D02*
X12867100Y-8197700D01*
D11*
X7882877Y-8754184D02*
X7882877Y-8554184D01*
X7882877Y-8554184D02*
X7930496Y-8554184D01*
X7930496Y-8554184D02*
X7959067Y-8563708D01*
X7959067Y-8563708D02*
X7978115Y-8582755D01*
X7978115Y-8582755D02*
X7987639Y-8601803D01*
X7987639Y-8601803D02*
X7997162Y-8639898D01*
X7997162Y-8639898D02*
X7997162Y-8668470D01*
X7997162Y-8668470D02*
X7987639Y-8706565D01*
X7987639Y-8706565D02*
X7978115Y-8725612D01*
X7978115Y-8725612D02*
X7959067Y-8744660D01*
X7959067Y-8744660D02*
X7930496Y-8754184D01*
X7930496Y-8754184D02*
X7882877Y-8754184D01*
X8082877Y-8754184D02*
X8082877Y-8620850D01*
X8082877Y-8658946D02*
X8092401Y-8639898D01*
X8092401Y-8639898D02*
X8101924Y-8630374D01*
X8101924Y-8630374D02*
X8120972Y-8620850D01*
X8120972Y-8620850D02*
X8140020Y-8620850D01*
X8206686Y-8754184D02*
X8206686Y-8620850D01*
X8206686Y-8554184D02*
X8197162Y-8563708D01*
X8197162Y-8563708D02*
X8206686Y-8573231D01*
X8206686Y-8573231D02*
X8216210Y-8563708D01*
X8216210Y-8563708D02*
X8206686Y-8554184D01*
X8206686Y-8554184D02*
X8206686Y-8573231D01*
X8330496Y-8754184D02*
X8311448Y-8744660D01*
X8311448Y-8744660D02*
X8301924Y-8725612D01*
X8301924Y-8725612D02*
X8301924Y-8554184D01*
X8435258Y-8754184D02*
X8416210Y-8744660D01*
X8416210Y-8744660D02*
X8406686Y-8725612D01*
X8406686Y-8725612D02*
X8406686Y-8554184D01*
X8663829Y-8754184D02*
X8663829Y-8554184D01*
X8663829Y-8554184D02*
X8730496Y-8697041D01*
X8730496Y-8697041D02*
X8797163Y-8554184D01*
X8797163Y-8554184D02*
X8797163Y-8754184D01*
X8978115Y-8754184D02*
X8978115Y-8649422D01*
X8978115Y-8649422D02*
X8968591Y-8630374D01*
X8968591Y-8630374D02*
X8949544Y-8620850D01*
X8949544Y-8620850D02*
X8911448Y-8620850D01*
X8911448Y-8620850D02*
X8892401Y-8630374D01*
X8978115Y-8744660D02*
X8959067Y-8754184D01*
X8959067Y-8754184D02*
X8911448Y-8754184D01*
X8911448Y-8754184D02*
X8892401Y-8744660D01*
X8892401Y-8744660D02*
X8882877Y-8725612D01*
X8882877Y-8725612D02*
X8882877Y-8706565D01*
X8882877Y-8706565D02*
X8892401Y-8687517D01*
X8892401Y-8687517D02*
X8911448Y-8677993D01*
X8911448Y-8677993D02*
X8959067Y-8677993D01*
X8959067Y-8677993D02*
X8978115Y-8668470D01*
X9073353Y-8620850D02*
X9073353Y-8820850D01*
X9073353Y-8630374D02*
X9092401Y-8620850D01*
X9092401Y-8620850D02*
X9130496Y-8620850D01*
X9130496Y-8620850D02*
X9149544Y-8630374D01*
X9149544Y-8630374D02*
X9159067Y-8639898D01*
X9159067Y-8639898D02*
X9168591Y-8658946D01*
X9168591Y-8658946D02*
X9168591Y-8716089D01*
X9168591Y-8716089D02*
X9159067Y-8735136D01*
X9159067Y-8735136D02*
X9149544Y-8744660D01*
X9149544Y-8744660D02*
X9130496Y-8754184D01*
X9130496Y-8754184D02*
X9092401Y-8754184D01*
X9092401Y-8754184D02*
X9073353Y-8744660D01*
X9254305Y-8735136D02*
X9263829Y-8744660D01*
X9263829Y-8744660D02*
X9254305Y-8754184D01*
X9254305Y-8754184D02*
X9244782Y-8744660D01*
X9244782Y-8744660D02*
X9254305Y-8735136D01*
X9254305Y-8735136D02*
X9254305Y-8754184D01*
X9254305Y-8630374D02*
X9263829Y-8639898D01*
X9263829Y-8639898D02*
X9254305Y-8649422D01*
X9254305Y-8649422D02*
X9244782Y-8639898D01*
X9244782Y-8639898D02*
X9254305Y-8630374D01*
X9254305Y-8630374D02*
X9254305Y-8649422D01*
X7422100Y-8982700D02*
X7622100Y-9182700D01*
X7622100Y-8982700D02*
X7422100Y-9182700D01*
X7863829Y-8974184D02*
X7987639Y-8974184D01*
X7987639Y-8974184D02*
X7920972Y-9050374D01*
X7920972Y-9050374D02*
X7949543Y-9050374D01*
X7949543Y-9050374D02*
X7968591Y-9059898D01*
X7968591Y-9059898D02*
X7978115Y-9069422D01*
X7978115Y-9069422D02*
X7987639Y-9088470D01*
X7987639Y-9088470D02*
X7987639Y-9136089D01*
X7987639Y-9136089D02*
X7978115Y-9155136D01*
X7978115Y-9155136D02*
X7968591Y-9164660D01*
X7968591Y-9164660D02*
X7949543Y-9174184D01*
X7949543Y-9174184D02*
X7892401Y-9174184D01*
X7892401Y-9174184D02*
X7873353Y-9164660D01*
X7873353Y-9164660D02*
X7863829Y-9155136D01*
X8073353Y-9155136D02*
X8082877Y-9164660D01*
X8082877Y-9164660D02*
X8073353Y-9174184D01*
X8073353Y-9174184D02*
X8063829Y-9164660D01*
X8063829Y-9164660D02*
X8073353Y-9155136D01*
X8073353Y-9155136D02*
X8073353Y-9174184D01*
X8159067Y-8993231D02*
X8168591Y-8983708D01*
X8168591Y-8983708D02*
X8187639Y-8974184D01*
X8187639Y-8974184D02*
X8235258Y-8974184D01*
X8235258Y-8974184D02*
X8254305Y-8983708D01*
X8254305Y-8983708D02*
X8263829Y-8993231D01*
X8263829Y-8993231D02*
X8273353Y-9012279D01*
X8273353Y-9012279D02*
X8273353Y-9031327D01*
X8273353Y-9031327D02*
X8263829Y-9059898D01*
X8263829Y-9059898D02*
X8149543Y-9174184D01*
X8149543Y-9174184D02*
X8273353Y-9174184D01*
X8397163Y-8974184D02*
X8416210Y-8974184D01*
X8416210Y-8974184D02*
X8435258Y-8983708D01*
X8435258Y-8983708D02*
X8444782Y-8993231D01*
X8444782Y-8993231D02*
X8454305Y-9012279D01*
X8454305Y-9012279D02*
X8463829Y-9050374D01*
X8463829Y-9050374D02*
X8463829Y-9097993D01*
X8463829Y-9097993D02*
X8454305Y-9136089D01*
X8454305Y-9136089D02*
X8444782Y-9155136D01*
X8444782Y-9155136D02*
X8435258Y-9164660D01*
X8435258Y-9164660D02*
X8416210Y-9174184D01*
X8416210Y-9174184D02*
X8397163Y-9174184D01*
X8397163Y-9174184D02*
X8378115Y-9164660D01*
X8378115Y-9164660D02*
X8368591Y-9155136D01*
X8368591Y-9155136D02*
X8359067Y-9136089D01*
X8359067Y-9136089D02*
X8349543Y-9097993D01*
X8349543Y-9097993D02*
X8349543Y-9050374D01*
X8349543Y-9050374D02*
X8359067Y-9012279D01*
X8359067Y-9012279D02*
X8368591Y-8993231D01*
X8368591Y-8993231D02*
X8378115Y-8983708D01*
X8378115Y-8983708D02*
X8397163Y-8974184D01*
X8587639Y-8974184D02*
X8606686Y-8974184D01*
X8606686Y-8974184D02*
X8625734Y-8983708D01*
X8625734Y-8983708D02*
X8635258Y-8993231D01*
X8635258Y-8993231D02*
X8644782Y-9012279D01*
X8644782Y-9012279D02*
X8654305Y-9050374D01*
X8654305Y-9050374D02*
X8654305Y-9097993D01*
X8654305Y-9097993D02*
X8644782Y-9136089D01*
X8644782Y-9136089D02*
X8635258Y-9155136D01*
X8635258Y-9155136D02*
X8625734Y-9164660D01*
X8625734Y-9164660D02*
X8606686Y-9174184D01*
X8606686Y-9174184D02*
X8587639Y-9174184D01*
X8587639Y-9174184D02*
X8568591Y-9164660D01*
X8568591Y-9164660D02*
X8559067Y-9155136D01*
X8559067Y-9155136D02*
X8549544Y-9136089D01*
X8549544Y-9136089D02*
X8540020Y-9097993D01*
X8540020Y-9097993D02*
X8540020Y-9050374D01*
X8540020Y-9050374D02*
X8549544Y-9012279D01*
X8549544Y-9012279D02*
X8559067Y-8993231D01*
X8559067Y-8993231D02*
X8568591Y-8983708D01*
X8568591Y-8983708D02*
X8587639Y-8974184D01*
X8740020Y-9174184D02*
X8740020Y-9040850D01*
X8740020Y-9059898D02*
X8749544Y-9050374D01*
X8749544Y-9050374D02*
X8768591Y-9040850D01*
X8768591Y-9040850D02*
X8797163Y-9040850D01*
X8797163Y-9040850D02*
X8816210Y-9050374D01*
X8816210Y-9050374D02*
X8825734Y-9069422D01*
X8825734Y-9069422D02*
X8825734Y-9174184D01*
X8825734Y-9069422D02*
X8835258Y-9050374D01*
X8835258Y-9050374D02*
X8854305Y-9040850D01*
X8854305Y-9040850D02*
X8882877Y-9040850D01*
X8882877Y-9040850D02*
X8901925Y-9050374D01*
X8901925Y-9050374D02*
X8911448Y-9069422D01*
X8911448Y-9069422D02*
X8911448Y-9174184D01*
X9006686Y-9174184D02*
X9006686Y-9040850D01*
X9006686Y-9059898D02*
X9016210Y-9050374D01*
X9016210Y-9050374D02*
X9035258Y-9040850D01*
X9035258Y-9040850D02*
X9063829Y-9040850D01*
X9063829Y-9040850D02*
X9082877Y-9050374D01*
X9082877Y-9050374D02*
X9092401Y-9069422D01*
X9092401Y-9069422D02*
X9092401Y-9174184D01*
X9092401Y-9069422D02*
X9101925Y-9050374D01*
X9101925Y-9050374D02*
X9120972Y-9040850D01*
X9120972Y-9040850D02*
X9149544Y-9040850D01*
X9149544Y-9040850D02*
X9168591Y-9050374D01*
X9168591Y-9050374D02*
X9178115Y-9069422D01*
X9178115Y-9069422D02*
X9178115Y-9174184D01*
X9568591Y-8964660D02*
X9397163Y-9221803D01*
X9825734Y-8974184D02*
X9844782Y-8974184D01*
X9844782Y-8974184D02*
X9863829Y-8983708D01*
X9863829Y-8983708D02*
X9873353Y-8993231D01*
X9873353Y-8993231D02*
X9882877Y-9012279D01*
X9882877Y-9012279D02*
X9892401Y-9050374D01*
X9892401Y-9050374D02*
X9892401Y-9097993D01*
X9892401Y-9097993D02*
X9882877Y-9136089D01*
X9882877Y-9136089D02*
X9873353Y-9155136D01*
X9873353Y-9155136D02*
X9863829Y-9164660D01*
X9863829Y-9164660D02*
X9844782Y-9174184D01*
X9844782Y-9174184D02*
X9825734Y-9174184D01*
X9825734Y-9174184D02*
X9806687Y-9164660D01*
X9806687Y-9164660D02*
X9797163Y-9155136D01*
X9797163Y-9155136D02*
X9787639Y-9136089D01*
X9787639Y-9136089D02*
X9778115Y-9097993D01*
X9778115Y-9097993D02*
X9778115Y-9050374D01*
X9778115Y-9050374D02*
X9787639Y-9012279D01*
X9787639Y-9012279D02*
X9797163Y-8993231D01*
X9797163Y-8993231D02*
X9806687Y-8983708D01*
X9806687Y-8983708D02*
X9825734Y-8974184D01*
X9978115Y-9155136D02*
X9987639Y-9164660D01*
X9987639Y-9164660D02*
X9978115Y-9174184D01*
X9978115Y-9174184D02*
X9968591Y-9164660D01*
X9968591Y-9164660D02*
X9978115Y-9155136D01*
X9978115Y-9155136D02*
X9978115Y-9174184D01*
X10178115Y-9174184D02*
X10063829Y-9174184D01*
X10120972Y-9174184D02*
X10120972Y-8974184D01*
X10120972Y-8974184D02*
X10101925Y-9002755D01*
X10101925Y-9002755D02*
X10082877Y-9021803D01*
X10082877Y-9021803D02*
X10063829Y-9031327D01*
X10254306Y-8993231D02*
X10263829Y-8983708D01*
X10263829Y-8983708D02*
X10282877Y-8974184D01*
X10282877Y-8974184D02*
X10330496Y-8974184D01*
X10330496Y-8974184D02*
X10349544Y-8983708D01*
X10349544Y-8983708D02*
X10359068Y-8993231D01*
X10359068Y-8993231D02*
X10368591Y-9012279D01*
X10368591Y-9012279D02*
X10368591Y-9031327D01*
X10368591Y-9031327D02*
X10359068Y-9059898D01*
X10359068Y-9059898D02*
X10244782Y-9174184D01*
X10244782Y-9174184D02*
X10368591Y-9174184D01*
X10540020Y-8974184D02*
X10501925Y-8974184D01*
X10501925Y-8974184D02*
X10482877Y-8983708D01*
X10482877Y-8983708D02*
X10473353Y-8993231D01*
X10473353Y-8993231D02*
X10454306Y-9021803D01*
X10454306Y-9021803D02*
X10444782Y-9059898D01*
X10444782Y-9059898D02*
X10444782Y-9136089D01*
X10444782Y-9136089D02*
X10454306Y-9155136D01*
X10454306Y-9155136D02*
X10463829Y-9164660D01*
X10463829Y-9164660D02*
X10482877Y-9174184D01*
X10482877Y-9174184D02*
X10520972Y-9174184D01*
X10520972Y-9174184D02*
X10540020Y-9164660D01*
X10540020Y-9164660D02*
X10549544Y-9155136D01*
X10549544Y-9155136D02*
X10559068Y-9136089D01*
X10559068Y-9136089D02*
X10559068Y-9088470D01*
X10559068Y-9088470D02*
X10549544Y-9069422D01*
X10549544Y-9069422D02*
X10540020Y-9059898D01*
X10540020Y-9059898D02*
X10520972Y-9050374D01*
X10520972Y-9050374D02*
X10482877Y-9050374D01*
X10482877Y-9050374D02*
X10463829Y-9059898D01*
X10463829Y-9059898D02*
X10454306Y-9069422D01*
X10454306Y-9069422D02*
X10444782Y-9088470D01*
X10682877Y-8974184D02*
X10701925Y-8974184D01*
X10701925Y-8974184D02*
X10720972Y-8983708D01*
X10720972Y-8983708D02*
X10730496Y-8993231D01*
X10730496Y-8993231D02*
X10740020Y-9012279D01*
X10740020Y-9012279D02*
X10749544Y-9050374D01*
X10749544Y-9050374D02*
X10749544Y-9097993D01*
X10749544Y-9097993D02*
X10740020Y-9136089D01*
X10740020Y-9136089D02*
X10730496Y-9155136D01*
X10730496Y-9155136D02*
X10720972Y-9164660D01*
X10720972Y-9164660D02*
X10701925Y-9174184D01*
X10701925Y-9174184D02*
X10682877Y-9174184D01*
X10682877Y-9174184D02*
X10663829Y-9164660D01*
X10663829Y-9164660D02*
X10654306Y-9155136D01*
X10654306Y-9155136D02*
X10644782Y-9136089D01*
X10644782Y-9136089D02*
X10635258Y-9097993D01*
X10635258Y-9097993D02*
X10635258Y-9050374D01*
X10635258Y-9050374D02*
X10644782Y-9012279D01*
X10644782Y-9012279D02*
X10654306Y-8993231D01*
X10654306Y-8993231D02*
X10663829Y-8983708D01*
X10663829Y-8983708D02*
X10682877Y-8974184D01*
X10825734Y-8974184D02*
X10825734Y-9012279D01*
X10901925Y-8974184D02*
X10901925Y-9012279D01*
X11197163Y-9250374D02*
X11187639Y-9240850D01*
X11187639Y-9240850D02*
X11168591Y-9212279D01*
X11168591Y-9212279D02*
X11159068Y-9193231D01*
X11159068Y-9193231D02*
X11149544Y-9164660D01*
X11149544Y-9164660D02*
X11140020Y-9117041D01*
X11140020Y-9117041D02*
X11140020Y-9078946D01*
X11140020Y-9078946D02*
X11149544Y-9031327D01*
X11149544Y-9031327D02*
X11159068Y-9002755D01*
X11159068Y-9002755D02*
X11168591Y-8983708D01*
X11168591Y-8983708D02*
X11187639Y-8955136D01*
X11187639Y-8955136D02*
X11197163Y-8945612D01*
X11359068Y-9040850D02*
X11359068Y-9174184D01*
X11311448Y-8964660D02*
X11263829Y-9107517D01*
X11263829Y-9107517D02*
X11387639Y-9107517D01*
X11616210Y-9174184D02*
X11616210Y-8974184D01*
X11701925Y-9174184D02*
X11701925Y-9069422D01*
X11701925Y-9069422D02*
X11692401Y-9050374D01*
X11692401Y-9050374D02*
X11673353Y-9040850D01*
X11673353Y-9040850D02*
X11644782Y-9040850D01*
X11644782Y-9040850D02*
X11625734Y-9050374D01*
X11625734Y-9050374D02*
X11616210Y-9059898D01*
X11825734Y-9174184D02*
X11806687Y-9164660D01*
X11806687Y-9164660D02*
X11797163Y-9155136D01*
X11797163Y-9155136D02*
X11787639Y-9136089D01*
X11787639Y-9136089D02*
X11787639Y-9078946D01*
X11787639Y-9078946D02*
X11797163Y-9059898D01*
X11797163Y-9059898D02*
X11806687Y-9050374D01*
X11806687Y-9050374D02*
X11825734Y-9040850D01*
X11825734Y-9040850D02*
X11854306Y-9040850D01*
X11854306Y-9040850D02*
X11873353Y-9050374D01*
X11873353Y-9050374D02*
X11882877Y-9059898D01*
X11882877Y-9059898D02*
X11892401Y-9078946D01*
X11892401Y-9078946D02*
X11892401Y-9136089D01*
X11892401Y-9136089D02*
X11882877Y-9155136D01*
X11882877Y-9155136D02*
X11873353Y-9164660D01*
X11873353Y-9164660D02*
X11854306Y-9174184D01*
X11854306Y-9174184D02*
X11825734Y-9174184D01*
X12006687Y-9174184D02*
X11987639Y-9164660D01*
X11987639Y-9164660D02*
X11978115Y-9145612D01*
X11978115Y-9145612D02*
X11978115Y-8974184D01*
X12159068Y-9164660D02*
X12140020Y-9174184D01*
X12140020Y-9174184D02*
X12101925Y-9174184D01*
X12101925Y-9174184D02*
X12082877Y-9164660D01*
X12082877Y-9164660D02*
X12073353Y-9145612D01*
X12073353Y-9145612D02*
X12073353Y-9069422D01*
X12073353Y-9069422D02*
X12082877Y-9050374D01*
X12082877Y-9050374D02*
X12101925Y-9040850D01*
X12101925Y-9040850D02*
X12140020Y-9040850D01*
X12140020Y-9040850D02*
X12159068Y-9050374D01*
X12159068Y-9050374D02*
X12168591Y-9069422D01*
X12168591Y-9069422D02*
X12168591Y-9088470D01*
X12168591Y-9088470D02*
X12073353Y-9107517D01*
X12244782Y-9164660D02*
X12263830Y-9174184D01*
X12263830Y-9174184D02*
X12301925Y-9174184D01*
X12301925Y-9174184D02*
X12320972Y-9164660D01*
X12320972Y-9164660D02*
X12330496Y-9145612D01*
X12330496Y-9145612D02*
X12330496Y-9136089D01*
X12330496Y-9136089D02*
X12320972Y-9117041D01*
X12320972Y-9117041D02*
X12301925Y-9107517D01*
X12301925Y-9107517D02*
X12273353Y-9107517D01*
X12273353Y-9107517D02*
X12254306Y-9097993D01*
X12254306Y-9097993D02*
X12244782Y-9078946D01*
X12244782Y-9078946D02*
X12244782Y-9069422D01*
X12244782Y-9069422D02*
X12254306Y-9050374D01*
X12254306Y-9050374D02*
X12273353Y-9040850D01*
X12273353Y-9040850D02*
X12301925Y-9040850D01*
X12301925Y-9040850D02*
X12320972Y-9050374D01*
X12397163Y-9250374D02*
X12406687Y-9240850D01*
X12406687Y-9240850D02*
X12425734Y-9212279D01*
X12425734Y-9212279D02*
X12435258Y-9193231D01*
X12435258Y-9193231D02*
X12444782Y-9164660D01*
X12444782Y-9164660D02*
X12454306Y-9117041D01*
X12454306Y-9117041D02*
X12454306Y-9078946D01*
X12454306Y-9078946D02*
X12444782Y-9031327D01*
X12444782Y-9031327D02*
X12435258Y-9002755D01*
X12435258Y-9002755D02*
X12425734Y-8983708D01*
X12425734Y-8983708D02*
X12406687Y-8955136D01*
X12406687Y-8955136D02*
X12397163Y-8945612D01*
X12759068Y-9250374D02*
X12749544Y-9240850D01*
X12749544Y-9240850D02*
X12730496Y-9212279D01*
X12730496Y-9212279D02*
X12720972Y-9193231D01*
X12720972Y-9193231D02*
X12711449Y-9164660D01*
X12711449Y-9164660D02*
X12701925Y-9117041D01*
X12701925Y-9117041D02*
X12701925Y-9078946D01*
X12701925Y-9078946D02*
X12711449Y-9031327D01*
X12711449Y-9031327D02*
X12720972Y-9002755D01*
X12720972Y-9002755D02*
X12730496Y-8983708D01*
X12730496Y-8983708D02*
X12749544Y-8955136D01*
X12749544Y-8955136D02*
X12759068Y-8945612D01*
X12835258Y-9040850D02*
X12835258Y-9174184D01*
X12835258Y-9059898D02*
X12844782Y-9050374D01*
X12844782Y-9050374D02*
X12863830Y-9040850D01*
X12863830Y-9040850D02*
X12892401Y-9040850D01*
X12892401Y-9040850D02*
X12911449Y-9050374D01*
X12911449Y-9050374D02*
X12920972Y-9069422D01*
X12920972Y-9069422D02*
X12920972Y-9174184D01*
X13044782Y-9174184D02*
X13025734Y-9164660D01*
X13025734Y-9164660D02*
X13016211Y-9155136D01*
X13016211Y-9155136D02*
X13006687Y-9136089D01*
X13006687Y-9136089D02*
X13006687Y-9078946D01*
X13006687Y-9078946D02*
X13016211Y-9059898D01*
X13016211Y-9059898D02*
X13025734Y-9050374D01*
X13025734Y-9050374D02*
X13044782Y-9040850D01*
X13044782Y-9040850D02*
X13073353Y-9040850D01*
X13073353Y-9040850D02*
X13092401Y-9050374D01*
X13092401Y-9050374D02*
X13101925Y-9059898D01*
X13101925Y-9059898D02*
X13111449Y-9078946D01*
X13111449Y-9078946D02*
X13111449Y-9136089D01*
X13111449Y-9136089D02*
X13101925Y-9155136D01*
X13101925Y-9155136D02*
X13092401Y-9164660D01*
X13092401Y-9164660D02*
X13073353Y-9174184D01*
X13073353Y-9174184D02*
X13044782Y-9174184D01*
X13168592Y-9040850D02*
X13244782Y-9040850D01*
X13197163Y-8974184D02*
X13197163Y-9145612D01*
X13197163Y-9145612D02*
X13206687Y-9164660D01*
X13206687Y-9164660D02*
X13225734Y-9174184D01*
X13225734Y-9174184D02*
X13244782Y-9174184D01*
X13463830Y-9040850D02*
X13463830Y-9240850D01*
X13463830Y-9050374D02*
X13482877Y-9040850D01*
X13482877Y-9040850D02*
X13520973Y-9040850D01*
X13520973Y-9040850D02*
X13540020Y-9050374D01*
X13540020Y-9050374D02*
X13549544Y-9059898D01*
X13549544Y-9059898D02*
X13559068Y-9078946D01*
X13559068Y-9078946D02*
X13559068Y-9136089D01*
X13559068Y-9136089D02*
X13549544Y-9155136D01*
X13549544Y-9155136D02*
X13540020Y-9164660D01*
X13540020Y-9164660D02*
X13520973Y-9174184D01*
X13520973Y-9174184D02*
X13482877Y-9174184D01*
X13482877Y-9174184D02*
X13463830Y-9164660D01*
X13673353Y-9174184D02*
X13654306Y-9164660D01*
X13654306Y-9164660D02*
X13644782Y-9145612D01*
X13644782Y-9145612D02*
X13644782Y-8974184D01*
X13835258Y-9174184D02*
X13835258Y-9069422D01*
X13835258Y-9069422D02*
X13825734Y-9050374D01*
X13825734Y-9050374D02*
X13806687Y-9040850D01*
X13806687Y-9040850D02*
X13768592Y-9040850D01*
X13768592Y-9040850D02*
X13749544Y-9050374D01*
X13835258Y-9164660D02*
X13816211Y-9174184D01*
X13816211Y-9174184D02*
X13768592Y-9174184D01*
X13768592Y-9174184D02*
X13749544Y-9164660D01*
X13749544Y-9164660D02*
X13740020Y-9145612D01*
X13740020Y-9145612D02*
X13740020Y-9126565D01*
X13740020Y-9126565D02*
X13749544Y-9107517D01*
X13749544Y-9107517D02*
X13768592Y-9097993D01*
X13768592Y-9097993D02*
X13816211Y-9097993D01*
X13816211Y-9097993D02*
X13835258Y-9088470D01*
X13901925Y-9040850D02*
X13978115Y-9040850D01*
X13930496Y-8974184D02*
X13930496Y-9145612D01*
X13930496Y-9145612D02*
X13940020Y-9164660D01*
X13940020Y-9164660D02*
X13959068Y-9174184D01*
X13959068Y-9174184D02*
X13978115Y-9174184D01*
X14120973Y-9164660D02*
X14101925Y-9174184D01*
X14101925Y-9174184D02*
X14063830Y-9174184D01*
X14063830Y-9174184D02*
X14044782Y-9164660D01*
X14044782Y-9164660D02*
X14035258Y-9145612D01*
X14035258Y-9145612D02*
X14035258Y-9069422D01*
X14035258Y-9069422D02*
X14044782Y-9050374D01*
X14044782Y-9050374D02*
X14063830Y-9040850D01*
X14063830Y-9040850D02*
X14101925Y-9040850D01*
X14101925Y-9040850D02*
X14120973Y-9050374D01*
X14120973Y-9050374D02*
X14130496Y-9069422D01*
X14130496Y-9069422D02*
X14130496Y-9088470D01*
X14130496Y-9088470D02*
X14035258Y-9107517D01*
X14301925Y-9174184D02*
X14301925Y-8974184D01*
X14301925Y-9164660D02*
X14282877Y-9174184D01*
X14282877Y-9174184D02*
X14244782Y-9174184D01*
X14244782Y-9174184D02*
X14225734Y-9164660D01*
X14225734Y-9164660D02*
X14216211Y-9155136D01*
X14216211Y-9155136D02*
X14206687Y-9136089D01*
X14206687Y-9136089D02*
X14206687Y-9078946D01*
X14206687Y-9078946D02*
X14216211Y-9059898D01*
X14216211Y-9059898D02*
X14225734Y-9050374D01*
X14225734Y-9050374D02*
X14244782Y-9040850D01*
X14244782Y-9040850D02*
X14282877Y-9040850D01*
X14282877Y-9040850D02*
X14301925Y-9050374D01*
X14378115Y-9250374D02*
X14387639Y-9240850D01*
X14387639Y-9240850D02*
X14406687Y-9212279D01*
X14406687Y-9212279D02*
X14416211Y-9193231D01*
X14416211Y-9193231D02*
X14425734Y-9164660D01*
X14425734Y-9164660D02*
X14435258Y-9117041D01*
X14435258Y-9117041D02*
X14435258Y-9078946D01*
X14435258Y-9078946D02*
X14425734Y-9031327D01*
X14425734Y-9031327D02*
X14416211Y-9002755D01*
X14416211Y-9002755D02*
X14406687Y-8983708D01*
X14406687Y-8983708D02*
X14387639Y-8955136D01*
X14387639Y-8955136D02*
X14378115Y-8945612D01*
M02*
