M48
; DRILL file {KiCad 8.0.5} date 2024-10-12T23:20:50+0200
; FORMAT={-:-/ absolute / inch / decimal}
; #@! TF.CreationDate,2024-10-12T23:20:50+02:00
; #@! TF.GenerationSoftware,Kicad,Pcbnew,8.0.5
; #@! TF.FileFunction,Plated,1,2,PTH
FMAT,2
INCH
; #@! TA.AperFunction,Plated,PTH,ViaDrill
T1C0.0157
; #@! TA.AperFunction,Plated,PTH,ComponentDrill
T2C0.0280
; #@! TA.AperFunction,Plated,PTH,ComponentDrill
T3C0.0315
; #@! TA.AperFunction,Plated,PTH,ComponentDrill
T4C0.0335
; #@! TA.AperFunction,Plated,PTH,ComponentDrill
T5C0.0402
; #@! TA.AperFunction,Plated,PTH,ComponentDrill
T6C0.0421
%
G90
G05
T1
X3.105Y-2.185
X3.1519Y-1.5191
X3.1597Y-1.8944
X3.295Y-2.705
X3.3676Y-2.6556
X3.3915Y-2.33
X3.4232Y-1.505
X3.4298Y-1.8416
X3.44Y-1.88
X3.48Y-2.05
X3.4885Y-2.2312
X3.495Y-2.4
X3.5268Y-2.2222
X3.54Y-2.53
X3.565Y-2.82
X3.585Y-2.93
X3.5912Y-1.8156
X3.61Y-3.075
X3.6194Y-1.905
X3.6261Y-2.2748
X3.635Y-2.085
X3.6356Y-2.438
X3.64Y-2.0265
X3.645Y-2.53
X3.66Y-2.695
X3.661Y-2.3844
X3.6635Y-2.2103
X3.665Y-3.155
X3.6771Y-1.917
X3.689Y-2.7774
X3.695Y-1.585
X3.695Y-2.405
X3.7107Y-2.2281
X3.7441Y-1.8497
X3.7458Y-1.7857
X3.7551Y-2.105
X3.7551Y-2.2647
X3.7551Y-2.445
X3.761Y-2.86
X3.77Y-2.985
X3.795Y-1.705
X3.8004Y-1.9622
X3.8123Y-2.5677
X3.835Y-1.605
X3.8368Y-2.0843
X3.855Y-2.025
X3.855Y-2.405
X3.875Y-2.225
X3.8813Y-1.87
X3.885Y-1.8
X3.891Y-2.5685
X3.895Y-1.605
X3.895Y-3.04
X3.9002Y-2.8698
X3.905Y-1.905
X3.905Y-2.025
X3.927Y-2.672
X3.9287Y-2.821
X3.935Y-1.605
X3.958Y-2.786
X3.995Y-1.805
X3.995Y-2.1446
X3.995Y-2.245
X3.995Y-2.425
X4.0Y-1.89
X4.0191Y-1.5452
X4.0191Y-1.645
X4.029Y-2.783
X4.033Y-3.002
X4.035Y-2.0935
X4.04Y-2.035
X4.0752Y-2.145
X4.0874Y-2.6735
X4.0984Y-1.7815
X4.1043Y-2.4707
X4.105Y-1.73
X4.114Y-2.621
X4.135Y-1.625
X4.14Y-2.03
X4.144Y-2.564
X4.155Y-2.915
X4.159Y-1.893
X4.168Y-1.805
X4.176Y-3.004
X4.185Y-1.669
X4.193Y-2.0422
X4.2235Y-1.545
X4.2297Y-2.028
X4.238Y-1.665
X4.249Y-3.003
X4.255Y-1.805
X4.27Y-1.9
X4.2798Y-2.0365
X4.28Y-2.751
X4.3225Y-1.8025
X4.3275Y-2.805
X4.345Y-1.89
X4.3525Y-2.73
X4.365Y-1.655
X4.39Y-1.9106
X4.395Y-1.485
X4.4068Y-1.685
X4.415Y-3.035
X4.455Y-3.005
X4.4668Y-2.805
X4.475Y-1.8306
X4.4865Y-1.905
X4.4948Y-2.7048
X4.495Y-1.665
X4.495Y-1.745
X4.5455Y-2.0463
X4.575Y-1.905
X4.5762Y-2.7458
X4.586Y-3.057
X4.595Y-1.345
X4.61Y-1.565
X4.6152Y-2.0652
X4.624Y-1.965
X4.655Y-1.805
X4.664Y-2.885
X4.683Y-1.457
X4.715Y-1.2335
X4.721Y-2.881
X4.75Y-3.01
X4.755Y-2.535
X4.813Y-1.577
X4.815Y-1.3756
X4.84Y-1.3256
X4.928Y-1.231
X4.96Y-1.435
T2
X3.4148Y-2.83
X3.4148Y-3.03
X3.5148Y-2.93
T3
X4.8353Y-1.8559
X4.8353Y-1.9346
T4
X4.7946Y-2.23
X4.8946Y-2.23
X4.9946Y-2.23
T5
X3.19Y-1.63
X3.19Y-1.73
X3.19Y-2.005
X3.19Y-2.105
X3.19Y-2.38
X3.19Y-2.48
X4.04Y-1.3004
X4.14Y-1.3004
X4.24Y-1.3004
X4.34Y-1.3004
X5.09Y-1.58
X5.09Y-1.68
X5.093Y-1.8444
X5.093Y-1.9444
X5.093Y-2.7194
X5.093Y-2.8194
T6
X3.187Y-2.63
X3.187Y-2.73
X3.187Y-2.83
X3.6746Y-1.2974
X3.7746Y-1.2974
X3.8746Y-1.2974
M30
