%TF.GenerationSoftware,KiCad,Pcbnew,8.0.5*%
%TF.CreationDate,2024-10-12T23:20:52+02:00*%
%TF.ProjectId,TSAL,5453414c-2e6b-4696-9361-645f70636258,V2.1*%
%TF.SameCoordinates,Original*%
%TF.FileFunction,Copper,L2,Bot*%
%TF.FilePolarity,Positive*%
%FSLAX46Y46*%
G04 Gerber Fmt 4.6, Leading zero omitted, Abs format (unit mm)*
G04 Created by KiCad (PCBNEW 8.0.5) date 2024-10-12 23:20:52*
%MOMM*%
%LPD*%
G01*
G04 APERTURE LIST*
%TA.AperFunction,ComponentPad*%
%ADD10R,1.530000X1.530000*%
%TD*%
%TA.AperFunction,ComponentPad*%
%ADD11C,1.530000*%
%TD*%
%TA.AperFunction,ComponentPad*%
%ADD12R,1.610000X1.610000*%
%TD*%
%TA.AperFunction,ComponentPad*%
%ADD13C,1.610000*%
%TD*%
%TA.AperFunction,ComponentPad*%
%ADD14R,1.600000X1.600000*%
%TD*%
%TA.AperFunction,ComponentPad*%
%ADD15C,1.600000*%
%TD*%
%TA.AperFunction,ComponentPad*%
%ADD16R,1.217000X1.217000*%
%TD*%
%TA.AperFunction,ComponentPad*%
%ADD17C,1.217000*%
%TD*%
%TA.AperFunction,ComponentPad*%
%ADD18C,1.350000*%
%TD*%
%TA.AperFunction,SMDPad,CuDef*%
%ADD19R,1.050000X1.800000*%
%TD*%
%TA.AperFunction,SMDPad,CuDef*%
%ADD20R,1.470000X1.070000*%
%TD*%
%TA.AperFunction,SMDPad,CuDef*%
%ADD21R,1.070000X1.470000*%
%TD*%
%TA.AperFunction,SMDPad,CuDef*%
%ADD22R,1.800000X1.050000*%
%TD*%
%TA.AperFunction,ViaPad*%
%ADD23C,0.800000*%
%TD*%
%TA.AperFunction,Conductor*%
%ADD24C,0.250000*%
%TD*%
G04 APERTURE END LIST*
D10*
%TO.P,J5,1,1*%
%TO.N,Net-(J5-Pad1)*%
X129361000Y-69072000D03*
D11*
%TO.P,J5,2,2*%
%TO.N,GND*%
X129361000Y-71612000D03*
%TD*%
D12*
%TO.P,J4,1,1*%
%TO.N,GND*%
X80951000Y-71882000D03*
D13*
%TO.P,J4,2,2*%
%TO.N,+5V*%
X80951000Y-69342000D03*
%TO.P,J4,3,3*%
%TO.N,/Raw_VoltageAIR*%
X80951000Y-66802000D03*
%TD*%
D14*
%TO.P,C13,1*%
%TO.N,GND*%
X122816120Y-47139197D03*
D15*
%TO.P,C13,2*%
%TO.N,+12V*%
X122816120Y-49139197D03*
%TD*%
D10*
%TO.P,J3,1,1*%
%TO.N,GND*%
X81026000Y-62992000D03*
D11*
%TO.P,J3,2,2*%
%TO.N,/PreCharge*%
X81026000Y-60452000D03*
%TD*%
D16*
%TO.P,RV1,1,CCW*%
%TO.N,+5V*%
X86736000Y-71882000D03*
D17*
%TO.P,RV1,2,WIPER*%
%TO.N,Net-(CP1--)*%
X89276000Y-74422000D03*
%TO.P,RV1,3,CW*%
%TO.N,GND*%
X86736000Y-76962000D03*
%TD*%
D10*
%TO.P,J7,1,1*%
%TO.N,GND*%
X102616000Y-33029680D03*
D11*
%TO.P,J7,2,2*%
%TO.N,/Raw_Int_AIR_1*%
X105156000Y-33029680D03*
%TO.P,J7,3,3*%
%TO.N,/Raw_Int_AIR_2*%
X107696000Y-33029680D03*
%TO.P,J7,4,4*%
%TO.N,/Raw_Int_PreCharge*%
X110236000Y-33029680D03*
%TD*%
D10*
%TO.P,J6,1,1*%
%TO.N,GND*%
X129361000Y-46847000D03*
D11*
%TO.P,J6,2,2*%
%TO.N,+12V*%
X129361000Y-49387000D03*
%TD*%
D10*
%TO.P,J9,1,1*%
%TO.N,Net-(J9-Pad1)*%
X129286000Y-40132000D03*
D11*
%TO.P,J9,2,2*%
%TO.N,GND*%
X129286000Y-42672000D03*
%TD*%
D12*
%TO.P,J8,1,1*%
%TO.N,GND*%
X93336000Y-32954680D03*
D13*
%TO.P,J8,2,2*%
%TO.N,+5V*%
X95876000Y-32954680D03*
%TO.P,J8,3,3*%
%TO.N,/Raw_DC-Link_In*%
X98416000Y-32954680D03*
%TD*%
D10*
%TO.P,J2,1,1*%
%TO.N,GND*%
X81026000Y-53467000D03*
D11*
%TO.P,J2,2,2*%
%TO.N,/AIR_2*%
X81026000Y-50927000D03*
%TD*%
D18*
%TO.P,PS1,1,+VIN*%
%TO.N,+12V*%
X126863320Y-56642000D03*
%TO.P,PS1,2,GND*%
%TO.N,GND*%
X124323320Y-56642000D03*
%TO.P,PS1,3,+VOUT*%
%TO.N,+5V*%
X121783320Y-56642000D03*
%TD*%
D10*
%TO.P,J1,1,1*%
%TO.N,GND*%
X81026000Y-43942000D03*
D11*
%TO.P,J1,2,2*%
%TO.N,/AIR_1*%
X81026000Y-41402000D03*
%TD*%
D19*
%TO.P,R39,1*%
%TO.N,+5V*%
X123927200Y-38379400D03*
%TO.P,R39,2*%
%TO.N,/DC-Link_In_SCS*%
X120827200Y-38379400D03*
%TD*%
D20*
%TO.P,C15,1*%
%TO.N,GND*%
X117856000Y-32214500D03*
%TO.P,C15,2*%
%TO.N,Net-(TI1-THRESHOLD)*%
X117856000Y-33854500D03*
%TD*%
D19*
%TO.P,R13,1*%
%TO.N,GND*%
X95351000Y-30607000D03*
%TO.P,R13,2*%
%TO.N,/Raw_DC-Link_In*%
X98451000Y-30607000D03*
%TD*%
D20*
%TO.P,C3,1*%
%TO.N,GND*%
X111496279Y-46945306D03*
%TO.P,C3,2*%
%TO.N,+5V*%
X111496279Y-45305306D03*
%TD*%
D19*
%TO.P,R12,1*%
%TO.N,GND*%
X110516000Y-30607000D03*
%TO.P,R12,2*%
%TO.N,/Raw_Int_AIR_2*%
X107416000Y-30607000D03*
%TD*%
D21*
%TO.P,C16,1*%
%TO.N,GND*%
X93541000Y-42799000D03*
%TO.P,C16,2*%
%TO.N,+5V*%
X95181000Y-42799000D03*
%TD*%
D19*
%TO.P,R31,1*%
%TO.N,Net-(D9-A)*%
X93439450Y-51370969D03*
%TO.P,R31,2*%
%TO.N,/Int_AIR_1*%
X96539450Y-51370969D03*
%TD*%
D22*
%TO.P,R35,1*%
%TO.N,/dis2*%
X103759000Y-72084600D03*
%TO.P,R35,2*%
%TO.N,+5V*%
X103759000Y-75184600D03*
%TD*%
D21*
%TO.P,C10,1*%
%TO.N,GND*%
X89477000Y-47371000D03*
%TO.P,C10,2*%
%TO.N,+5V*%
X91117000Y-47371000D03*
%TD*%
D19*
%TO.P,R34,1*%
%TO.N,Net-(D11-A)*%
X113056000Y-43307000D03*
%TO.P,R34,2*%
%TO.N,/Int_PreCharge*%
X109956000Y-43307000D03*
%TD*%
%TO.P,R32,1*%
%TO.N,Net-(D10-A)*%
X100786000Y-41402000D03*
%TO.P,R32,2*%
%TO.N,/Int_AIR_2*%
X103886000Y-41402000D03*
%TD*%
%TO.P,R9,1*%
%TO.N,/Lightning_cond*%
X96546000Y-47117000D03*
%TO.P,R9,2*%
%TO.N,Net-(D5-A)*%
X93446000Y-47117000D03*
%TD*%
%TO.P,R8,1*%
%TO.N,Net-(D4-A)*%
X85826000Y-57531000D03*
%TO.P,R8,2*%
%TO.N,+5V*%
X82726000Y-57531000D03*
%TD*%
D20*
%TO.P,C21,1*%
%TO.N,Net-(CP1-+)*%
X95631000Y-68511000D03*
%TO.P,C21,2*%
%TO.N,GND*%
X95631000Y-66871000D03*
%TD*%
D22*
%TO.P,R15,1*%
%TO.N,Net-(TI1-DISCHARGE)*%
X120319800Y-32714600D03*
%TO.P,R15,2*%
%TO.N,/DC-Link_In_SCS*%
X120319800Y-35814600D03*
%TD*%
D19*
%TO.P,R14,1*%
%TO.N,GND*%
X107797000Y-35687000D03*
%TO.P,R14,2*%
%TO.N,/Raw_Int_PreCharge*%
X110897000Y-35687000D03*
%TD*%
D20*
%TO.P,C12,1*%
%TO.N,GND*%
X93853000Y-59367000D03*
%TO.P,C12,2*%
%TO.N,+5V*%
X93853000Y-57727000D03*
%TD*%
D21*
%TO.P,C18,1*%
%TO.N,GND*%
X92271000Y-71882000D03*
%TO.P,C18,2*%
%TO.N,+5V*%
X93911000Y-71882000D03*
%TD*%
D20*
%TO.P,C9,1*%
%TO.N,GND*%
X103612553Y-37761380D03*
%TO.P,C9,2*%
%TO.N,+5V*%
X103612553Y-39401380D03*
%TD*%
D19*
%TO.P,R41,1*%
%TO.N,/2.5V*%
X115594800Y-39751000D03*
%TO.P,R41,2*%
%TO.N,+5V*%
X118694800Y-39751000D03*
%TD*%
D21*
%TO.P,C19,1*%
%TO.N,GND*%
X129471000Y-37287200D03*
%TO.P,C19,2*%
%TO.N,Net-(TI1-CONTROL_VOLTAGE)*%
X127831000Y-37287200D03*
%TD*%
D22*
%TO.P,R36,1*%
%TO.N,/CLR*%
X107315000Y-71552400D03*
%TO.P,R36,2*%
%TO.N,+5V*%
X107315000Y-68452400D03*
%TD*%
%TO.P,R1,1*%
%TO.N,Net-(G14-Pad4)*%
X110972600Y-78867600D03*
%TO.P,R1,2*%
%TO.N,Net-(D2-K)*%
X110972600Y-75767600D03*
%TD*%
D19*
%TO.P,R11,1*%
%TO.N,GND*%
X101701000Y-30607000D03*
%TO.P,R11,2*%
%TO.N,/Raw_Int_AIR_1*%
X104801000Y-30607000D03*
%TD*%
%TO.P,R10,1*%
%TO.N,Net-(G15-Pad4)*%
X95276000Y-74295000D03*
%TO.P,R10,2*%
%TO.N,Net-(D6-K)*%
X92176000Y-74295000D03*
%TD*%
%TO.P,R42,1*%
%TO.N,GND*%
X121057000Y-42291000D03*
%TO.P,R42,2*%
%TO.N,/2.5V*%
X117957000Y-42291000D03*
%TD*%
%TO.P,R33,1*%
%TO.N,/PRE*%
X111480000Y-71374000D03*
%TO.P,R33,2*%
%TO.N,+5V*%
X114580000Y-71374000D03*
%TD*%
%TO.P,R29,1*%
%TO.N,Net-(D8-A)*%
X108611000Y-50292000D03*
%TO.P,R29,2*%
%TO.N,/DC-Link_In*%
X105511000Y-50292000D03*
%TD*%
D21*
%TO.P,C2,1*%
%TO.N,GND*%
X91313000Y-76454000D03*
%TO.P,C2,2*%
%TO.N,+5V*%
X92953000Y-76454000D03*
%TD*%
D19*
%TO.P,R5,1*%
%TO.N,Net-(D3-A)*%
X85826000Y-48117000D03*
%TO.P,R5,2*%
%TO.N,+5V*%
X82726000Y-48117000D03*
%TD*%
D20*
%TO.P,C6,1*%
%TO.N,GND*%
X93726000Y-55303000D03*
%TO.P,C6,2*%
%TO.N,+5V*%
X93726000Y-53663000D03*
%TD*%
D22*
%TO.P,R16,1*%
%TO.N,GND*%
X83566000Y-70257000D03*
%TO.P,R16,2*%
%TO.N,/Raw_VoltageAIR*%
X83566000Y-67157000D03*
%TD*%
%TO.P,R19,1*%
%TO.N,Net-(G15-Pad4)*%
X97409000Y-73305000D03*
%TO.P,R19,2*%
%TO.N,Net-(CP1-+)*%
X97409000Y-70205000D03*
%TD*%
D20*
%TO.P,C7,1*%
%TO.N,GND*%
X87249000Y-69404650D03*
%TO.P,C7,2*%
%TO.N,+5V*%
X87249000Y-67764650D03*
%TD*%
%TO.P,C8,1*%
%TO.N,GND*%
X117914322Y-71179060D03*
%TO.P,C8,2*%
%TO.N,+5V*%
X117914322Y-69539060D03*
%TD*%
%TO.P,C20,1*%
%TO.N,GND*%
X94049000Y-63939000D03*
%TO.P,C20,2*%
%TO.N,+5V*%
X94049000Y-62299000D03*
%TD*%
D21*
%TO.P,C17,1*%
%TO.N,GND*%
X99637000Y-62611000D03*
%TO.P,C17,2*%
%TO.N,+5V*%
X101277000Y-62611000D03*
%TD*%
D20*
%TO.P,C14,1*%
%TO.N,GND*%
X101981000Y-69273000D03*
%TO.P,C14,2*%
%TO.N,+5V*%
X101981000Y-67633000D03*
%TD*%
%TO.P,C1,1*%
%TO.N,GND*%
X100711000Y-76359600D03*
%TO.P,C1,2*%
%TO.N,+5V*%
X100711000Y-74719600D03*
%TD*%
D21*
%TO.P,C11,1*%
%TO.N,GND*%
X99621905Y-55779074D03*
%TO.P,C11,2*%
%TO.N,+5V*%
X101261905Y-55779074D03*
%TD*%
D20*
%TO.P,C5,1*%
%TO.N,GND*%
X126339600Y-34246400D03*
%TO.P,C5,2*%
%TO.N,+5V*%
X126339600Y-32606400D03*
%TD*%
D22*
%TO.P,R17,1*%
%TO.N,Net-(TI1-THRESHOLD)*%
X122936000Y-35854500D03*
%TO.P,R17,2*%
%TO.N,Net-(TI1-DISCHARGE)*%
X122936000Y-32754500D03*
%TD*%
D19*
%TO.P,R3,1*%
%TO.N,Net-(D1-A)*%
X85751000Y-38735000D03*
%TO.P,R3,2*%
%TO.N,+5V*%
X82651000Y-38735000D03*
%TD*%
D21*
%TO.P,C4,1*%
%TO.N,GND*%
X101415000Y-44196000D03*
%TO.P,C4,2*%
%TO.N,+5V*%
X103055000Y-44196000D03*
%TD*%
D23*
%TO.N,+5V*%
X114168701Y-68702701D03*
X120777000Y-64389000D03*
X122250800Y-40055800D03*
X92964000Y-68453000D03*
X99745800Y-67868800D03*
X104267000Y-43942000D03*
X96393000Y-43307000D03*
X105257600Y-65125600D03*
X85538000Y-67452000D03*
X78867000Y-55499000D03*
X92102000Y-57779837D03*
X95380500Y-57523436D03*
X101473000Y-61595000D03*
X92343336Y-61925065D03*
X102489000Y-53175500D03*
X92329000Y-52959000D03*
X101473000Y-57023000D03*
X116236321Y-69743881D03*
X111931498Y-42799000D03*
X95380500Y-62103000D03*
X117450502Y-49911000D03*
X99789299Y-71653400D03*
X91216952Y-46116450D03*
X95380500Y-53467000D03*
X102085500Y-39248659D03*
X91931500Y-48387000D03*
X113157000Y-76327000D03*
X95529400Y-72644000D03*
X80058100Y-38583953D03*
X91694000Y-78105000D03*
X101473000Y-54472498D03*
X80256498Y-48117000D03*
X106500991Y-51871786D03*
X125171200Y-31267400D03*
%TO.N,Net-(D1-A)*%
X86950502Y-38227000D03*
%TO.N,Net-(D2-K)*%
X112141000Y-77089000D03*
%TO.N,Net-(D3-A)*%
X87376000Y-47752000D03*
%TO.N,Net-(D4-A)*%
X86143500Y-59182000D03*
%TO.N,Net-(D5-A)*%
X93397702Y-48692004D03*
%TO.N,Net-(D9-A)*%
X92456000Y-51472500D03*
%TO.N,Net-(D10-A)*%
X99949000Y-40767000D03*
%TO.N,Net-(D11-A)*%
X114173000Y-42291000D03*
%TO.N,GND*%
X102438200Y-76250800D03*
X88773000Y-60960000D03*
X89916000Y-64262000D03*
X92990596Y-60564044D03*
X116205000Y-48387000D03*
X113956500Y-48387000D03*
X104249727Y-62756164D03*
X107924600Y-76276200D03*
X93053500Y-56142500D03*
X98933000Y-77216000D03*
X90551000Y-71628000D03*
X102336600Y-70688200D03*
X98425000Y-56515000D03*
X88392000Y-52070000D03*
X107433202Y-51511248D03*
X87115681Y-46776425D03*
X115456916Y-51976186D03*
X95142654Y-45356475D03*
X92583000Y-64262000D03*
X117094000Y-39751000D03*
X98831400Y-65238800D03*
X93853000Y-40259000D03*
X119913400Y-73177400D03*
X107277500Y-39243000D03*
X97453869Y-52940187D03*
X105537000Y-74041000D03*
X102616000Y-51689000D03*
X119761000Y-31331500D03*
X98933000Y-40766500D03*
X97917000Y-61087000D03*
%TO.N,/CLR*%
X109918500Y-71247000D03*
%TO.N,/PRE*%
X110553500Y-69342000D03*
%TO.N,/SCS compliance*%
X114173000Y-44323000D03*
X118237000Y-45847000D03*
%TO.N,/DC-Link_In*%
X105156000Y-51562000D03*
X108077000Y-45847000D03*
%TO.N,/4.25V*%
X111506000Y-48529806D03*
X98679000Y-45720000D03*
X108458000Y-48260000D03*
X97409000Y-40767000D03*
X109790385Y-45784615D03*
%TO.N,/0.75V*%
X101600000Y-48006000D03*
X99187000Y-51435000D03*
X104098101Y-45250117D03*
X113665000Y-46496451D03*
X110363000Y-48006000D03*
X111633000Y-37719000D03*
X101473000Y-45847000D03*
%TO.N,/VoltageAIR*%
X96832728Y-65219272D03*
X117225299Y-52455299D03*
%TO.N,/Raw_VoltageAIR*%
X83693000Y-68707000D03*
%TO.N,/AIR_2*%
X88608360Y-56673182D03*
%TO.N,/PreCharge*%
X94251500Y-56592498D03*
%TO.N,Net-(D6-K)*%
X91059000Y-74422000D03*
%TO.N,Net-(D8-A)*%
X108707701Y-51726500D03*
%TO.N,/Int_AIR_1*%
X96530898Y-49840996D03*
%TO.N,/Int_AIR_2*%
X105029000Y-41275000D03*
X99187000Y-48387000D03*
X89581321Y-56444375D03*
X102085500Y-41783000D03*
%TO.N,/Int_PreCharge*%
X110871000Y-42037000D03*
X93853000Y-61087000D03*
%TO.N,/Int_log*%
X99064299Y-72893701D03*
X93091000Y-80137000D03*
%TO.N,Net-(TI1-THRESHOLD)*%
X116713000Y-34163000D03*
X122301000Y-34939500D03*
%TO.N,Net-(TI1-CONTROL_VOLTAGE)*%
X125984000Y-36449000D03*
%TO.N,/INT*%
X106070400Y-76301600D03*
X100533200Y-70764400D03*
%TO.N,/Lightning_cond*%
X103510500Y-54483000D03*
X98585500Y-47498000D03*
X97917000Y-51435000D03*
X95101029Y-46981569D03*
%TO.N,Net-(CP1-+)*%
X93700600Y-70546998D03*
%TO.N,Net-(TI1-DISCHARGE)*%
X122936000Y-33669500D03*
%TO.N,Net-(G15-Pad4)*%
X95758000Y-75819000D03*
%TO.N,/dis2*%
X103818890Y-67907500D03*
X116484400Y-77647800D03*
X108712000Y-69874498D03*
%TO.N,/dis1*%
X113455498Y-71247000D03*
X120650000Y-76454000D03*
%TO.N,/DC-Link_In_SCS*%
X118948200Y-37007800D03*
X105638600Y-48082200D03*
X105867200Y-45847000D03*
X106299000Y-42392600D03*
%TO.N,Net-(G14-Pad4)*%
X118465600Y-73279000D03*
X104495600Y-66573400D03*
%TO.N,/2.5V*%
X107645200Y-42291000D03*
%TD*%
D24*
%TO.N,+5V*%
X85538000Y-67452000D02*
X86639400Y-67230817D01*
X86639400Y-67230817D02*
X87173233Y-67764650D01*
X94869000Y-53467000D02*
X94673000Y-53663000D01*
X87249000Y-67764650D02*
X90751650Y-67764650D01*
X88011000Y-71882000D02*
X83101000Y-71882000D01*
X102085500Y-39248659D02*
X102238221Y-39401380D01*
X110236000Y-72771000D02*
X113157000Y-75692000D01*
X80256498Y-48117000D02*
X82726000Y-48117000D01*
X91694000Y-78105000D02*
X91948000Y-78105000D01*
X99466400Y-68148200D02*
X99745800Y-67868800D01*
X103055000Y-42468000D02*
X103055000Y-44196000D01*
X96520000Y-71653400D02*
X95529400Y-72644000D01*
X102810500Y-42223500D02*
X103055000Y-42468000D01*
X101473000Y-54472498D02*
X101473000Y-55567979D01*
X105257600Y-65125600D02*
X104216200Y-65125600D01*
X99789299Y-71653400D02*
X100711000Y-72575101D01*
X95380500Y-53467000D02*
X94869000Y-53467000D01*
X125171200Y-31267400D02*
X125171200Y-31438000D01*
X115199440Y-68707000D02*
X116236321Y-69743881D01*
X105257600Y-65125600D02*
X107315000Y-67183000D01*
X99789299Y-71653400D02*
X96520000Y-71653400D01*
X103612553Y-39401380D02*
X102322700Y-39401380D01*
X110236000Y-72771000D02*
X106458600Y-72771000D01*
X103294000Y-74719600D02*
X103759000Y-75184600D01*
X106458600Y-72771000D02*
X105994200Y-72306600D01*
X124841000Y-37465600D02*
X123927200Y-38379400D01*
X95380500Y-57523436D02*
X100972564Y-57523436D01*
X117450502Y-49911000D02*
X117450502Y-47092502D01*
X120777000Y-66676382D02*
X117914322Y-69539060D01*
X115663306Y-45305306D02*
X111496279Y-45305306D01*
X99789299Y-71653400D02*
X99466400Y-71330501D01*
X107315000Y-68452400D02*
X107315000Y-67183000D01*
X114168701Y-68702701D02*
X115195141Y-68702701D01*
X104013000Y-44196000D02*
X104267000Y-43942000D01*
X103192586Y-52471914D02*
X102489000Y-53175500D01*
X101745200Y-67868800D02*
X101981000Y-67633000D01*
X95380500Y-62103000D02*
X95184500Y-62299000D01*
X100972564Y-57523436D02*
X101473000Y-57023000D01*
X101981000Y-67633000D02*
X101981000Y-67360800D01*
X116236321Y-70453679D02*
X116236321Y-69743881D01*
X82726000Y-38592000D02*
X80066147Y-38592000D01*
X102810500Y-42223500D02*
X102810500Y-40715104D01*
X95176936Y-57727000D02*
X94260128Y-57727000D01*
X120777000Y-64389000D02*
X120777000Y-66676382D01*
X102362000Y-40266604D02*
X102362000Y-39401380D01*
X101981000Y-67360800D02*
X104216200Y-65125600D01*
X99745800Y-67868800D02*
X101745200Y-67868800D01*
X116236321Y-69743881D02*
X117709501Y-69743881D01*
X91931500Y-48387000D02*
X91186000Y-48387000D01*
X111496279Y-43234219D02*
X111496279Y-45305306D01*
X122250800Y-40055800D02*
X118999600Y-40055800D01*
X107315000Y-67183000D02*
X112649000Y-67183000D01*
X90751650Y-67764650D02*
X91440000Y-68453000D01*
X92329000Y-53467000D02*
X92525000Y-53663000D01*
X118999600Y-40055800D02*
X118694800Y-39751000D01*
X92102000Y-57779837D02*
X93800163Y-57779837D01*
X111931498Y-42799000D02*
X111496279Y-43234219D01*
X91117000Y-48318000D02*
X91117000Y-47879000D01*
X125171200Y-31438000D02*
X126339600Y-32606400D01*
X105900863Y-52471914D02*
X103192586Y-52471914D01*
X124841000Y-33905000D02*
X124841000Y-37465600D01*
X103055000Y-44196000D02*
X104013000Y-44196000D01*
X94767400Y-71882000D02*
X93911000Y-71882000D01*
X91186000Y-48387000D02*
X91117000Y-48318000D01*
X102238221Y-39401380D02*
X103612553Y-39401380D01*
X99466400Y-71330501D02*
X99466400Y-68148200D01*
X101473000Y-61595000D02*
X101473000Y-62415000D01*
X126139600Y-32606400D02*
X124841000Y-33905000D01*
X115316000Y-71374000D02*
X116236321Y-70453679D01*
X95184500Y-62299000D02*
X94049000Y-62299000D01*
X100711000Y-72575101D02*
X100711000Y-74719600D01*
X117450502Y-47092502D02*
X115663306Y-45305306D01*
X102810500Y-40715104D02*
X102362000Y-40266604D01*
X95529400Y-72644000D02*
X94767400Y-71882000D01*
X95689000Y-43307000D02*
X95181000Y-42799000D01*
X94673000Y-53663000D02*
X93726000Y-53663000D01*
X91948000Y-78105000D02*
X92953000Y-77100000D01*
X91440000Y-68453000D02*
X88011000Y-71882000D01*
X100711000Y-74719600D02*
X103294000Y-74719600D01*
X92717271Y-62299000D02*
X94049000Y-62299000D01*
X92953000Y-77100000D02*
X92953000Y-76454000D01*
X91117000Y-46216402D02*
X91216952Y-46116450D01*
X92525000Y-53663000D02*
X93726000Y-53663000D01*
X96393000Y-43307000D02*
X95689000Y-43307000D01*
X102362000Y-39401380D02*
X103612553Y-39401380D01*
X83101000Y-71882000D02*
X80951000Y-69732000D01*
X80066147Y-38592000D02*
X80058100Y-38583953D01*
X95380500Y-57523436D02*
X95176936Y-57727000D01*
X105994200Y-72306600D02*
X105994200Y-69773200D01*
X114580000Y-71374000D02*
X115316000Y-71374000D01*
X92964000Y-68453000D02*
X91440000Y-68453000D01*
X92343336Y-61925065D02*
X92717271Y-62299000D01*
X115195141Y-68702701D02*
X115199440Y-68707000D01*
X123927200Y-38379400D02*
X122250800Y-40055800D01*
X126339600Y-32606400D02*
X126139600Y-32606400D01*
X102322700Y-39401380D02*
X95876000Y-32954680D01*
X92329000Y-52959000D02*
X92329000Y-53467000D01*
X113157000Y-75692000D02*
X113157000Y-76327000D01*
X101473000Y-55990169D02*
X101473000Y-57023000D01*
X78867000Y-55499000D02*
X81010000Y-57642000D01*
X91117000Y-47371000D02*
X91117000Y-46216402D01*
X81010000Y-57642000D02*
X82651000Y-57642000D01*
X112649000Y-67183000D02*
X114168701Y-68702701D01*
X105994200Y-69773200D02*
X107315000Y-68452400D01*
X106500991Y-51871786D02*
X105900863Y-52471914D01*
%TO.N,Net-(D1-A)*%
X86950502Y-38227000D02*
X86259000Y-38227000D01*
X86259000Y-38227000D02*
X85751000Y-38735000D01*
%TO.N,Net-(D2-K)*%
X110871000Y-76708000D02*
X110871000Y-76047000D01*
X112141000Y-77089000D02*
X111252000Y-77089000D01*
X111252000Y-77089000D02*
X110871000Y-76708000D01*
%TO.N,Net-(D3-A)*%
X85826000Y-48117000D02*
X87011000Y-48117000D01*
X87011000Y-48117000D02*
X87376000Y-47752000D01*
%TO.N,Net-(D4-A)*%
X85826000Y-58864500D02*
X85826000Y-57531000D01*
X86143500Y-59182000D02*
X85826000Y-58864500D01*
%TO.N,Net-(D5-A)*%
X93397702Y-48692004D02*
X93446000Y-48643706D01*
X93446000Y-48643706D02*
X93446000Y-47117000D01*
%TO.N,Net-(D9-A)*%
X92456000Y-51472500D02*
X93337919Y-51472500D01*
%TO.N,Net-(D10-A)*%
X100584000Y-41402000D02*
X99949000Y-40767000D01*
%TO.N,Net-(D11-A)*%
X114173000Y-42291000D02*
X114173000Y-43015444D01*
X113881444Y-43307000D02*
X113056000Y-43307000D01*
X114173000Y-43015444D02*
X113881444Y-43307000D01*
%TO.N,GND*%
X94361000Y-41275000D02*
X93541000Y-42095000D01*
X112693694Y-46945306D02*
X112940000Y-46699000D01*
X112940000Y-46196146D02*
X113364695Y-45771451D01*
X95885000Y-41275000D02*
X94361000Y-41275000D01*
X119912662Y-73177400D02*
X117914322Y-71179060D01*
X93541000Y-42095000D02*
X93541000Y-42799000D01*
X93053500Y-55975500D02*
X93726000Y-55303000D01*
X102293000Y-69215000D02*
X102293000Y-69015000D01*
X92990596Y-60564044D02*
X93232956Y-60564044D01*
X95142654Y-45356475D02*
X96248525Y-45356475D01*
X115189000Y-47371000D02*
X116205000Y-48387000D01*
X96248525Y-45356475D02*
X97118000Y-44487000D01*
X107277500Y-39243000D02*
X107797000Y-38723500D01*
X111496279Y-46945306D02*
X112693694Y-46945306D01*
X100628253Y-44919649D02*
X98933000Y-43224396D01*
X119913400Y-73177400D02*
X119912662Y-73177400D01*
X107797000Y-38723500D02*
X107797000Y-35687000D01*
X90551000Y-71628000D02*
X90805000Y-71882000D01*
X93232956Y-60564044D02*
X93853000Y-59944000D01*
X113364695Y-45771451D02*
X114097451Y-45771451D01*
X97118000Y-42508000D02*
X95885000Y-41275000D01*
X97118000Y-44487000D02*
X97118000Y-42508000D01*
X101001045Y-44919649D02*
X100628253Y-44919649D01*
X114390000Y-47953500D02*
X113956500Y-48387000D01*
X114390000Y-46064000D02*
X114390000Y-47371000D01*
X114390000Y-47371000D02*
X115189000Y-47371000D01*
X112940000Y-46699000D02*
X112940000Y-46196146D01*
X101981000Y-69273000D02*
X101981000Y-70332600D01*
X114097451Y-45771451D02*
X114390000Y-46064000D01*
X90805000Y-71882000D02*
X92271000Y-71882000D01*
X98933000Y-43224396D02*
X98933000Y-40766500D01*
X93053500Y-56142500D02*
X93053500Y-55975500D01*
X101981000Y-70332600D02*
X102336600Y-70688200D01*
X93853000Y-59944000D02*
X93853000Y-59367000D01*
X101415000Y-44505694D02*
X101001045Y-44919649D01*
X114390000Y-47371000D02*
X114390000Y-47953500D01*
%TO.N,/CLR*%
X108928500Y-71247000D02*
X109918500Y-71247000D01*
X108928500Y-71247000D02*
X108623100Y-71552400D01*
X108623100Y-71552400D02*
X107315000Y-71552400D01*
%TO.N,/PRE*%
X111480000Y-70078000D02*
X111480000Y-71374000D01*
X110553500Y-69342000D02*
X110744000Y-69342000D01*
X110744000Y-69342000D02*
X111480000Y-70078000D01*
%TO.N,/SCS compliance*%
X114173000Y-44323000D02*
X116713000Y-44323000D01*
X116713000Y-44323000D02*
X118237000Y-45847000D01*
%TO.N,/DC-Link_In*%
X108077000Y-45847000D02*
X108077000Y-47040800D01*
X108077000Y-47040800D02*
X105511000Y-49606800D01*
X105511000Y-49606800D02*
X105511000Y-50292000D01*
X105156000Y-51562000D02*
X105156000Y-50647000D01*
%TO.N,/4.25V*%
X98314649Y-44622486D02*
X98314649Y-41672649D01*
X110864499Y-48529806D02*
X110663305Y-48731000D01*
X103759000Y-46736000D02*
X99695000Y-46736000D01*
X108963770Y-44958000D02*
X105537000Y-44958000D01*
X108458000Y-48260000D02*
X109474000Y-48260000D01*
X111506000Y-48529806D02*
X110864499Y-48529806D01*
X99695000Y-46736000D02*
X98679000Y-45720000D01*
X109790385Y-45784615D02*
X109474000Y-46101000D01*
X109945000Y-48731000D02*
X109474000Y-48260000D01*
X110663305Y-48731000D02*
X109945000Y-48731000D01*
X105537000Y-44958000D02*
X103759000Y-46736000D01*
X98679000Y-44986837D02*
X98314649Y-44622486D01*
X98314649Y-41672649D02*
X97409000Y-40767000D01*
X98679000Y-45720000D02*
X98679000Y-44986837D01*
X109474000Y-46101000D02*
X109474000Y-48260000D01*
X109790385Y-45784615D02*
X108963770Y-44958000D01*
%TO.N,/0.75V*%
X104926498Y-42901502D02*
X104992000Y-42967004D01*
X107577805Y-39968000D02*
X108002500Y-39543305D01*
X110563694Y-47805306D02*
X113230694Y-47805306D01*
X106121200Y-41325800D02*
X105918000Y-41529000D01*
X104926498Y-42901502D02*
X104926498Y-42520502D01*
X99187000Y-51435000D02*
X100711000Y-51435000D01*
X109728000Y-37719000D02*
X111633000Y-37719000D01*
X113230694Y-47805306D02*
X113665000Y-47371000D01*
X103387305Y-45847000D02*
X101473000Y-45847000D01*
X104926498Y-42520502D02*
X105918000Y-41529000D01*
X107479000Y-39968000D02*
X107577805Y-39968000D01*
X105918000Y-41529000D02*
X107479000Y-39968000D01*
X108002500Y-39543305D02*
X108002500Y-39444500D01*
X104992000Y-42967004D02*
X104992000Y-44242305D01*
X108002500Y-39444500D02*
X109728000Y-37719000D01*
X101600000Y-50546000D02*
X101600000Y-48006000D01*
X110363000Y-48006000D02*
X110563694Y-47805306D01*
X100711000Y-51435000D02*
X101600000Y-50546000D01*
X104992000Y-44242305D02*
X103387305Y-45847000D01*
X113665000Y-47371000D02*
X113665000Y-46496451D01*
%TO.N,/VoltageAIR*%
X103860600Y-64058800D02*
X106756200Y-64058800D01*
X117225299Y-53589701D02*
X117225299Y-52455299D01*
X96832728Y-65219272D02*
X97577256Y-65963800D01*
X106756200Y-64058800D02*
X117225299Y-53589701D01*
X101955600Y-65963800D02*
X103860600Y-64058800D01*
X97577256Y-65963800D02*
X101955600Y-65963800D01*
%TO.N,/Raw_VoltageAIR*%
X83211000Y-66802000D02*
X80951000Y-66802000D01*
X83693000Y-68707000D02*
X83693000Y-67284000D01*
%TO.N,/AIR_2*%
X87407182Y-56673182D02*
X81661000Y-50927000D01*
X88608360Y-56673182D02*
X87407182Y-56673182D01*
%TO.N,/PreCharge*%
X93976498Y-56867500D02*
X90452500Y-56867500D01*
X90452500Y-56867500D02*
X86868000Y-60452000D01*
X94251500Y-56592498D02*
X93976498Y-56867500D01*
X86868000Y-60452000D02*
X81026000Y-60452000D01*
%TO.N,Net-(D6-K)*%
X91059000Y-74422000D02*
X92049000Y-74422000D01*
%TO.N,Net-(D8-A)*%
X108611000Y-51629799D02*
X108611000Y-50292000D01*
X108707701Y-51726500D02*
X108611000Y-51629799D01*
%TO.N,/Int_AIR_1*%
X96530898Y-49840996D02*
X96539450Y-49849548D01*
X96539450Y-49849548D02*
X96539450Y-51370969D01*
%TO.N,/Int_AIR_2*%
X86741000Y-50419000D02*
X86741000Y-54991000D01*
X92329000Y-49911000D02*
X87249000Y-49911000D01*
X89085128Y-55948182D02*
X89581321Y-56444375D01*
X96393000Y-40776305D02*
X97864649Y-42247954D01*
X99310500Y-48263500D02*
X99187000Y-48387000D01*
X101501000Y-40042000D02*
X97108695Y-40042000D01*
X87698182Y-55948182D02*
X89085128Y-55948182D01*
X87249000Y-49911000D02*
X86741000Y-50419000D01*
X96393000Y-40757695D02*
X96393000Y-40776305D01*
X97864649Y-45930954D02*
X98378695Y-46445000D01*
X92563969Y-50145969D02*
X92329000Y-49911000D01*
X86741000Y-54991000D02*
X87698182Y-55948182D01*
X102085500Y-41783000D02*
X102085500Y-40626500D01*
X98679000Y-48895000D02*
X96393000Y-48895000D01*
X97864649Y-42247954D02*
X97864649Y-45930954D01*
X98378695Y-46445000D02*
X98557805Y-46445000D01*
X102085500Y-40626500D02*
X101501000Y-40042000D01*
X98557805Y-46445000D02*
X99310500Y-47197695D01*
X97108695Y-40042000D02*
X96393000Y-40757695D01*
X99187000Y-48387000D02*
X98679000Y-48895000D01*
X95142031Y-50145969D02*
X92563969Y-50145969D01*
X99310500Y-47197695D02*
X99310500Y-48263500D01*
X105029000Y-41275000D02*
X104013000Y-41275000D01*
X96393000Y-48895000D02*
X95142031Y-50145969D01*
%TO.N,/Int_PreCharge*%
X110871000Y-42037000D02*
X111342000Y-41566000D01*
X114981305Y-41566000D02*
X118962000Y-45546695D01*
X111342000Y-41566000D02*
X114981305Y-41566000D01*
X94969000Y-61087000D02*
X93853000Y-61087000D01*
X118962000Y-49567000D02*
X109474000Y-59055000D01*
X118962000Y-45546695D02*
X118962000Y-49567000D01*
X109956000Y-42952000D02*
X110871000Y-42037000D01*
X97001000Y-59055000D02*
X94969000Y-61087000D01*
X109474000Y-59055000D02*
X97001000Y-59055000D01*
%TO.N,/Int_log*%
X94869000Y-80137000D02*
X99064299Y-75941701D01*
X93091000Y-80137000D02*
X94869000Y-80137000D01*
X99064299Y-75941701D02*
X99064299Y-72893701D01*
%TO.N,/Raw_Int_AIR_1*%
X104801000Y-30607000D02*
X104801000Y-32674680D01*
%TO.N,/Raw_Int_AIR_2*%
X107416000Y-30607000D02*
X107416000Y-32749680D01*
%TO.N,/Raw_DC-Link_In*%
X98451000Y-30607000D02*
X98451000Y-32919680D01*
%TO.N,/Raw_Int_PreCharge*%
X110897000Y-33690680D02*
X110516000Y-33309680D01*
X110897000Y-35687000D02*
X110897000Y-33690680D01*
%TO.N,Net-(TI1-THRESHOLD)*%
X116713000Y-34163000D02*
X117547500Y-34163000D01*
X122301000Y-35219500D02*
X122936000Y-35854500D01*
X122301000Y-34939500D02*
X122301000Y-35219500D01*
%TO.N,Net-(TI1-CONTROL_VOLTAGE)*%
X125984000Y-36449000D02*
X126822200Y-37287200D01*
X126822200Y-37287200D02*
X127831000Y-37287200D01*
%TO.N,/INT*%
X106070400Y-75599705D02*
X106070400Y-76301600D01*
X103405295Y-72934600D02*
X106070400Y-75599705D01*
X102703400Y-72934600D02*
X103405295Y-72934600D01*
X100533200Y-70764400D02*
X102703400Y-72934600D01*
%TO.N,/Lightning_cond*%
X103510500Y-54483000D02*
X102508807Y-54483000D01*
X100229498Y-53747498D02*
X97917000Y-51435000D01*
X98585500Y-47498000D02*
X98136700Y-47049200D01*
X95101029Y-46981569D02*
X95236460Y-47117000D01*
X101773305Y-53747498D02*
X100229498Y-53747498D01*
X95236460Y-47117000D02*
X96546000Y-47117000D01*
X98136700Y-47049200D02*
X96613800Y-47049200D01*
X102508807Y-54483000D02*
X101773305Y-53747498D01*
%TO.N,Net-(CP1-+)*%
X97409000Y-69088000D02*
X97409000Y-70205000D01*
X95631000Y-69596000D02*
X95631000Y-68511000D01*
X95631000Y-68511000D02*
X96832000Y-68511000D01*
X94016598Y-70231000D02*
X94996000Y-70231000D01*
X96832000Y-68511000D02*
X97409000Y-69088000D01*
X93700600Y-70546998D02*
X94016598Y-70231000D01*
X94996000Y-70231000D02*
X95631000Y-69596000D01*
%TO.N,Net-(TI1-DISCHARGE)*%
X120396000Y-32754500D02*
X122936000Y-32754500D01*
X122936000Y-33669500D02*
X122936000Y-32754500D01*
%TO.N,Net-(G15-Pad4)*%
X96419000Y-74295000D02*
X95276000Y-74295000D01*
X95758000Y-75819000D02*
X95758000Y-74777000D01*
X97409000Y-73305000D02*
X96419000Y-74295000D01*
X95758000Y-74777000D02*
X95276000Y-74295000D01*
%TO.N,/dis2*%
X112730498Y-74376498D02*
X112730498Y-69587498D01*
X109969498Y-68617000D02*
X108712000Y-69874498D01*
X116001800Y-77647800D02*
X112730498Y-74376498D01*
X116484400Y-77647800D02*
X116001800Y-77647800D01*
X103818890Y-67907500D02*
X103759000Y-67967390D01*
X111760000Y-68617000D02*
X109969498Y-68617000D01*
X103759000Y-67967390D02*
X103759000Y-72084600D01*
X112730498Y-69587498D02*
X111760000Y-68617000D01*
%TO.N,/dis1*%
X119507000Y-75311000D02*
X120650000Y-76454000D01*
X113455498Y-72201639D02*
X116564859Y-75311000D01*
X118237000Y-75311000D02*
X119507000Y-75311000D01*
X116564859Y-75311000D02*
X118237000Y-75311000D01*
X113455498Y-71247000D02*
X113455498Y-72201639D01*
%TO.N,/DC-Link_In_SCS*%
X113207800Y-37414200D02*
X111810800Y-38811200D01*
X120319800Y-38379400D02*
X120827200Y-38379400D01*
X105867200Y-45847000D02*
X105638600Y-46075600D01*
X118948200Y-37007800D02*
X120319800Y-38379400D01*
X118948200Y-37007800D02*
X118541800Y-37414200D01*
X111810800Y-38811200D02*
X109880400Y-38811200D01*
X109880400Y-38811200D02*
X106299000Y-42392600D01*
X105638600Y-46075600D02*
X105638600Y-48082200D01*
X118541800Y-37414200D02*
X113207800Y-37414200D01*
X119242700Y-37007800D02*
X120396000Y-35854500D01*
X118948200Y-37007800D02*
X119242700Y-37007800D01*
%TO.N,Net-(G14-Pad4)*%
X105359200Y-67437000D02*
X104495600Y-66573400D01*
X118500305Y-73279000D02*
X121375000Y-76153695D01*
X118465600Y-73279000D02*
X118500305Y-73279000D01*
X121375000Y-76754305D02*
X119261705Y-78867600D01*
X109347000Y-76295796D02*
X105359200Y-72307996D01*
X110972600Y-78867600D02*
X109347000Y-77242000D01*
X119261705Y-78867600D02*
X110972600Y-78867600D01*
X121375000Y-76153695D02*
X121375000Y-76754305D01*
X109347000Y-77242000D02*
X109347000Y-76295796D01*
X105359200Y-72307996D02*
X105359200Y-67437000D01*
%TO.N,/2.5V*%
X115594800Y-39928800D02*
X117957000Y-42291000D01*
X115594800Y-39751000D02*
X110185200Y-39751000D01*
X115594800Y-39751000D02*
X115594800Y-39928800D01*
X110185200Y-39751000D02*
X107645200Y-42291000D01*
%TD*%
%TA.AperFunction,Conductor*%
%TO.N,GND*%
G36*
X84884515Y-68094446D02*
G01*
X84917237Y-68120305D01*
X84921400Y-68124928D01*
X84926747Y-68130866D01*
X85081248Y-68243118D01*
X85255712Y-68320794D01*
X85442513Y-68360500D01*
X85633487Y-68360500D01*
X85820288Y-68320794D01*
X85838690Y-68312600D01*
X85907939Y-68303314D01*
X85971216Y-68332941D01*
X86008431Y-68392076D01*
X86010222Y-68401310D01*
X86010229Y-68401309D01*
X86012011Y-68408854D01*
X86046866Y-68502300D01*
X86062168Y-68543327D01*
X86065953Y-68553473D01*
X86070938Y-68623165D01*
X86065954Y-68640141D01*
X86020403Y-68762269D01*
X86020401Y-68762277D01*
X86014000Y-68821805D01*
X86014000Y-69154650D01*
X88484000Y-69154650D01*
X88484000Y-68821822D01*
X88483999Y-68821805D01*
X88477598Y-68762277D01*
X88477597Y-68762273D01*
X88432045Y-68640143D01*
X88427061Y-68570451D01*
X88432046Y-68553473D01*
X88434886Y-68545856D01*
X88434889Y-68545854D01*
X88459894Y-68478814D01*
X88501766Y-68422881D01*
X88567231Y-68398466D01*
X88576075Y-68398150D01*
X90299584Y-68398150D01*
X90366623Y-68417835D01*
X90412378Y-68470639D01*
X90422322Y-68539797D01*
X90393297Y-68603353D01*
X90387265Y-68609831D01*
X87971245Y-71025849D01*
X87909922Y-71059334D01*
X87840230Y-71054350D01*
X87784297Y-71012479D01*
X87770568Y-70994139D01*
X87707761Y-70910239D01*
X87590704Y-70822611D01*
X87453703Y-70771511D01*
X87393154Y-70765000D01*
X87393138Y-70765000D01*
X86078862Y-70765000D01*
X86078845Y-70765000D01*
X86018297Y-70771511D01*
X86018295Y-70771511D01*
X85881295Y-70822611D01*
X85764239Y-70910239D01*
X85676611Y-71027295D01*
X85624191Y-71167835D01*
X85582319Y-71223768D01*
X85516855Y-71248184D01*
X85508010Y-71248500D01*
X84989081Y-71248500D01*
X84922042Y-71228815D01*
X84876287Y-71176011D01*
X84866343Y-71106853D01*
X84889815Y-71050188D01*
X84909352Y-71024089D01*
X84909354Y-71024086D01*
X84959596Y-70889379D01*
X84959598Y-70889372D01*
X84965999Y-70829844D01*
X84966000Y-70829827D01*
X84966000Y-70507000D01*
X83440000Y-70507000D01*
X83372961Y-70487315D01*
X83327206Y-70434511D01*
X83316000Y-70383000D01*
X83316000Y-70131000D01*
X83335685Y-70063961D01*
X83388489Y-70018206D01*
X83440000Y-70007000D01*
X84966000Y-70007000D01*
X84966000Y-69987494D01*
X86014000Y-69987494D01*
X86020401Y-70047022D01*
X86020403Y-70047029D01*
X86070645Y-70181736D01*
X86070649Y-70181743D01*
X86156809Y-70296837D01*
X86156812Y-70296840D01*
X86271906Y-70383000D01*
X86271913Y-70383004D01*
X86406620Y-70433246D01*
X86406627Y-70433248D01*
X86466155Y-70439649D01*
X86466172Y-70439650D01*
X86999000Y-70439650D01*
X87499000Y-70439650D01*
X88031828Y-70439650D01*
X88031844Y-70439649D01*
X88091372Y-70433248D01*
X88091379Y-70433246D01*
X88226086Y-70383004D01*
X88226093Y-70383000D01*
X88341187Y-70296840D01*
X88341190Y-70296837D01*
X88427350Y-70181743D01*
X88427354Y-70181736D01*
X88477596Y-70047029D01*
X88477598Y-70047022D01*
X88483999Y-69987494D01*
X88484000Y-69987477D01*
X88484000Y-69654650D01*
X87499000Y-69654650D01*
X87499000Y-70439650D01*
X86999000Y-70439650D01*
X86999000Y-69654650D01*
X86014000Y-69654650D01*
X86014000Y-69987494D01*
X84966000Y-69987494D01*
X84966000Y-69684172D01*
X84965999Y-69684155D01*
X84959598Y-69624627D01*
X84959596Y-69624620D01*
X84909354Y-69489913D01*
X84909350Y-69489906D01*
X84823190Y-69374812D01*
X84823187Y-69374809D01*
X84708093Y-69288649D01*
X84708088Y-69288646D01*
X84596626Y-69247073D01*
X84540693Y-69205201D01*
X84516276Y-69139737D01*
X84525910Y-69084864D01*
X84525519Y-69084737D01*
X84526419Y-69081966D01*
X84526687Y-69080441D01*
X84527522Y-69078564D01*
X84527527Y-69078556D01*
X84586542Y-68896928D01*
X84606504Y-68707000D01*
X84586542Y-68517072D01*
X84533172Y-68352818D01*
X84525519Y-68329263D01*
X84528455Y-68328308D01*
X84520812Y-68272384D01*
X84550280Y-68209032D01*
X84600087Y-68174706D01*
X84712204Y-68132889D01*
X84750778Y-68104012D01*
X84816241Y-68079595D01*
X84884515Y-68094446D01*
G37*
%TD.AperFunction*%
%TA.AperFunction,Conductor*%
G36*
X85200579Y-26377007D02*
G01*
X85202791Y-26377030D01*
X85413413Y-26379306D01*
X85422842Y-26379770D01*
X85847482Y-26416924D01*
X85858205Y-26418335D01*
X86276953Y-26492175D01*
X86277311Y-26492238D01*
X86287870Y-26494578D01*
X86698961Y-26604732D01*
X86709254Y-26607978D01*
X87108987Y-26753472D01*
X87109177Y-26753541D01*
X87119168Y-26757680D01*
X87127865Y-26761735D01*
X87504866Y-26937535D01*
X87514463Y-26942530D01*
X87883034Y-27155329D01*
X87892145Y-27161134D01*
X88240760Y-27405240D01*
X88249342Y-27411825D01*
X88575862Y-27685810D01*
X88582876Y-27692167D01*
X88735002Y-27841012D01*
X88735876Y-27841876D01*
X88806496Y-27912496D01*
X88806551Y-27912551D01*
X88893728Y-27997830D01*
X88962523Y-28065127D01*
X89296824Y-28345641D01*
X89654301Y-28595952D01*
X89654305Y-28595954D01*
X89654309Y-28595957D01*
X90032225Y-28814149D01*
X90032234Y-28814154D01*
X90427746Y-28998587D01*
X90837828Y-29147848D01*
X91259358Y-29260799D01*
X91689128Y-29336581D01*
X92123868Y-29374619D01*
X92342068Y-29377000D01*
X92342102Y-29377000D01*
X94236842Y-29377000D01*
X94303881Y-29396685D01*
X94349636Y-29449489D01*
X94359580Y-29518647D01*
X94353024Y-29544333D01*
X94332403Y-29599620D01*
X94332401Y-29599627D01*
X94326000Y-29659155D01*
X94326000Y-30357000D01*
X96376000Y-30357000D01*
X96376000Y-29659172D01*
X96375999Y-29659155D01*
X96369598Y-29599627D01*
X96369596Y-29599620D01*
X96348976Y-29544333D01*
X96343992Y-29474641D01*
X96377477Y-29413318D01*
X96438800Y-29379834D01*
X96465158Y-29377000D01*
X97327771Y-29377000D01*
X97394810Y-29396685D01*
X97440565Y-29449489D01*
X97450509Y-29518647D01*
X97443952Y-29544335D01*
X97424011Y-29597795D01*
X97424011Y-29597797D01*
X97417500Y-29658345D01*
X97417500Y-31555654D01*
X97424011Y-31616202D01*
X97424011Y-31616204D01*
X97462666Y-31719839D01*
X97475111Y-31753204D01*
X97532645Y-31830061D01*
X97557062Y-31895523D01*
X97542211Y-31963796D01*
X97521059Y-31992051D01*
X97405958Y-32107151D01*
X97274131Y-32295421D01*
X97274130Y-32295423D01*
X97258382Y-32329196D01*
X97212209Y-32381635D01*
X97145016Y-32400787D01*
X97078135Y-32380571D01*
X97033618Y-32329196D01*
X97017869Y-32295423D01*
X97017868Y-32295421D01*
X96886042Y-32107152D01*
X96723527Y-31944638D01*
X96723521Y-31944633D01*
X96535263Y-31812813D01*
X96535259Y-31812811D01*
X96461917Y-31778611D01*
X96434895Y-31766010D01*
X96382457Y-31719839D01*
X96363305Y-31652645D01*
X96368926Y-31622186D01*
X96367814Y-31621924D01*
X96369598Y-31614372D01*
X96375999Y-31554844D01*
X96376000Y-31554827D01*
X96376000Y-30857000D01*
X94326000Y-30857000D01*
X94326000Y-31526381D01*
X94306315Y-31593420D01*
X94253511Y-31639175D01*
X94192192Y-31649112D01*
X94192153Y-31649858D01*
X94188828Y-31649680D01*
X93586000Y-31649680D01*
X93586000Y-32481253D01*
X93542502Y-32456140D01*
X93406434Y-32419680D01*
X93265566Y-32419680D01*
X93129498Y-32456140D01*
X93086000Y-32481253D01*
X93086000Y-31649680D01*
X92483155Y-31649680D01*
X92423627Y-31656081D01*
X92423620Y-31656083D01*
X92288913Y-31706325D01*
X92288906Y-31706329D01*
X92173812Y-31792489D01*
X92173809Y-31792492D01*
X92087649Y-31907586D01*
X92087645Y-31907593D01*
X92037403Y-32042300D01*
X92037401Y-32042307D01*
X92031000Y-32101835D01*
X92031000Y-32704680D01*
X92862574Y-32704680D01*
X92837460Y-32748178D01*
X92801000Y-32884246D01*
X92801000Y-33025114D01*
X92837460Y-33161182D01*
X92862574Y-33204680D01*
X92031000Y-33204680D01*
X92031000Y-33807524D01*
X92037401Y-33867052D01*
X92037403Y-33867059D01*
X92087645Y-34001766D01*
X92087649Y-34001773D01*
X92173809Y-34116867D01*
X92173812Y-34116870D01*
X92288906Y-34203030D01*
X92288913Y-34203034D01*
X92423620Y-34253276D01*
X92423627Y-34253278D01*
X92483155Y-34259679D01*
X92483172Y-34259680D01*
X93086000Y-34259680D01*
X93086000Y-33428106D01*
X93129498Y-33453220D01*
X93265566Y-33489680D01*
X93406434Y-33489680D01*
X93542502Y-33453220D01*
X93586000Y-33428106D01*
X93586000Y-34259680D01*
X94188828Y-34259680D01*
X94188844Y-34259679D01*
X94248372Y-34253278D01*
X94248379Y-34253276D01*
X94383086Y-34203034D01*
X94383093Y-34203030D01*
X94498187Y-34116870D01*
X94498190Y-34116867D01*
X94584350Y-34001773D01*
X94584354Y-34001766D01*
X94634596Y-33867059D01*
X94636112Y-33852965D01*
X94662849Y-33788413D01*
X94720241Y-33748564D01*
X94790066Y-33746069D01*
X94850156Y-33781721D01*
X94860975Y-33795092D01*
X94865952Y-33802200D01*
X94865958Y-33802207D01*
X95028472Y-33964721D01*
X95028478Y-33964726D01*
X95216736Y-34096546D01*
X95216738Y-34096547D01*
X95216741Y-34096549D01*
X95425041Y-34193681D01*
X95647042Y-34253166D01*
X95806276Y-34267097D01*
X95875998Y-34273197D01*
X95876000Y-34273197D01*
X95876002Y-34273197D01*
X95907734Y-34270420D01*
X96104958Y-34253166D01*
X96104966Y-34253164D01*
X96116368Y-34250108D01*
X96172737Y-34235004D01*
X96242586Y-34236665D01*
X96292513Y-34267097D01*
X101139882Y-39114467D01*
X101173367Y-39175790D01*
X101175522Y-39215108D01*
X101173431Y-39235006D01*
X101171996Y-39248659D01*
X101173484Y-39262819D01*
X101174401Y-39271538D01*
X101161832Y-39340268D01*
X101114100Y-39391292D01*
X101051080Y-39408500D01*
X97046296Y-39408500D01*
X96923916Y-39432843D01*
X96923906Y-39432846D01*
X96910047Y-39438587D01*
X96808616Y-39480600D01*
X96704862Y-39549927D01*
X96704858Y-39549930D01*
X96091173Y-40163618D01*
X95989167Y-40265624D01*
X95960780Y-40294011D01*
X95900927Y-40353863D01*
X95831603Y-40457613D01*
X95831598Y-40457622D01*
X95783845Y-40572909D01*
X95783843Y-40572917D01*
X95759500Y-40695296D01*
X95759500Y-40838703D01*
X95783843Y-40961082D01*
X95783845Y-40961090D01*
X95831598Y-41076377D01*
X95831603Y-41076386D01*
X95900928Y-41180137D01*
X95900931Y-41180141D01*
X96214717Y-41493927D01*
X96240870Y-41541823D01*
X96272701Y-41553695D01*
X96286072Y-41565282D01*
X97150581Y-42429790D01*
X97184066Y-42491113D01*
X97179082Y-42560804D01*
X97137210Y-42616738D01*
X97071746Y-42641155D01*
X97003473Y-42626303D01*
X96990014Y-42617789D01*
X96988567Y-42616738D01*
X96849752Y-42515882D01*
X96675288Y-42438206D01*
X96675286Y-42438205D01*
X96488487Y-42398500D01*
X96348500Y-42398500D01*
X96281461Y-42378815D01*
X96235706Y-42326011D01*
X96224500Y-42274500D01*
X96224500Y-42015362D01*
X96224499Y-42015345D01*
X96219801Y-41971656D01*
X96217989Y-41954799D01*
X96214552Y-41945585D01*
X96195522Y-41894564D01*
X96166889Y-41817796D01*
X96099123Y-41727271D01*
X96086955Y-41694648D01*
X96067609Y-41690440D01*
X96052731Y-41680878D01*
X95962204Y-41613111D01*
X95954544Y-41610254D01*
X95825203Y-41562011D01*
X95764654Y-41555500D01*
X95764638Y-41555500D01*
X94597362Y-41555500D01*
X94597345Y-41555500D01*
X94536797Y-41562011D01*
X94536796Y-41562011D01*
X94392172Y-41615953D01*
X94322481Y-41620937D01*
X94305506Y-41615953D01*
X94183380Y-41570403D01*
X94183372Y-41570401D01*
X94123844Y-41564000D01*
X93791000Y-41564000D01*
X93791000Y-44034000D01*
X94123828Y-44034000D01*
X94123844Y-44033999D01*
X94183372Y-44027598D01*
X94183376Y-44027597D01*
X94305506Y-43982045D01*
X94375198Y-43977061D01*
X94392175Y-43982046D01*
X94399794Y-43984888D01*
X94399796Y-43984889D01*
X94464823Y-44009143D01*
X94531463Y-44033999D01*
X94536799Y-44035989D01*
X94562053Y-44038704D01*
X94597345Y-44042499D01*
X94597362Y-44042500D01*
X95764638Y-44042500D01*
X95764651Y-44042499D01*
X95792209Y-44039535D01*
X95799946Y-44038704D01*
X95868705Y-44051108D01*
X95886089Y-44061675D01*
X95936248Y-44098118D01*
X96110712Y-44175794D01*
X96297513Y-44215500D01*
X96488487Y-44215500D01*
X96675288Y-44175794D01*
X96849752Y-44098118D01*
X97004253Y-43985866D01*
X97014998Y-43973931D01*
X97074484Y-43937283D01*
X97144341Y-43938612D01*
X97202390Y-43977498D01*
X97230200Y-44041594D01*
X97231149Y-44056903D01*
X97231149Y-45584500D01*
X97211464Y-45651539D01*
X97158660Y-45697294D01*
X97107149Y-45708500D01*
X95972345Y-45708500D01*
X95911797Y-45715011D01*
X95911795Y-45715011D01*
X95774795Y-45766111D01*
X95657739Y-45853739D01*
X95570111Y-45970794D01*
X95544195Y-46040276D01*
X95502322Y-46096209D01*
X95436857Y-46120624D01*
X95390238Y-46112501D01*
X95389497Y-46114783D01*
X95383315Y-46112774D01*
X95196516Y-46073069D01*
X95005542Y-46073069D01*
X94818743Y-46112774D01*
X94643666Y-46190723D01*
X94574416Y-46200007D01*
X94511140Y-46170378D01*
X94476213Y-46114876D01*
X94475701Y-46115068D01*
X94474779Y-46112598D01*
X94473927Y-46111243D01*
X94473130Y-46108176D01*
X94426070Y-45982006D01*
X94421889Y-45970796D01*
X94334261Y-45853739D01*
X94217204Y-45766111D01*
X94080203Y-45715011D01*
X94019654Y-45708500D01*
X94019638Y-45708500D01*
X92872362Y-45708500D01*
X92872345Y-45708500D01*
X92811797Y-45715011D01*
X92811795Y-45715011D01*
X92674795Y-45766111D01*
X92557739Y-45853739D01*
X92470111Y-45970795D01*
X92419011Y-46107795D01*
X92419011Y-46107797D01*
X92412500Y-46168345D01*
X92412500Y-47415734D01*
X92392815Y-47482773D01*
X92340011Y-47528528D01*
X92270853Y-47538472D01*
X92238063Y-47529013D01*
X92234063Y-47527232D01*
X92180826Y-47481981D01*
X92160506Y-47415131D01*
X92160500Y-47413953D01*
X92160500Y-46587362D01*
X92160499Y-46587345D01*
X92157157Y-46556270D01*
X92153989Y-46526799D01*
X92153987Y-46526795D01*
X92153987Y-46526792D01*
X92107582Y-46402377D01*
X92102597Y-46332686D01*
X92105833Y-46320721D01*
X92110493Y-46306380D01*
X92110494Y-46306378D01*
X92130456Y-46116450D01*
X92110494Y-45926522D01*
X92051479Y-45744894D01*
X91955992Y-45579506D01*
X91828205Y-45437584D01*
X91673704Y-45325332D01*
X91499240Y-45247656D01*
X91499238Y-45247655D01*
X91312439Y-45207950D01*
X91121465Y-45207950D01*
X90934666Y-45247655D01*
X90760198Y-45325333D01*
X90605697Y-45437585D01*
X90477911Y-45579507D01*
X90382425Y-45744893D01*
X90382422Y-45744900D01*
X90333377Y-45895846D01*
X90323410Y-45926522D01*
X90312096Y-46034172D01*
X90310606Y-46048348D01*
X90284021Y-46112962D01*
X90226724Y-46152947D01*
X90156905Y-46155607D01*
X90143952Y-46151568D01*
X90119379Y-46142403D01*
X90119372Y-46142401D01*
X90059844Y-46136000D01*
X89727000Y-46136000D01*
X89727000Y-48606000D01*
X90059828Y-48606000D01*
X90059844Y-48605999D01*
X90119372Y-48599598D01*
X90119376Y-48599597D01*
X90241506Y-48554045D01*
X90311198Y-48549061D01*
X90328175Y-48554046D01*
X90335794Y-48556888D01*
X90335796Y-48556889D01*
X90425191Y-48590232D01*
X90472793Y-48607987D01*
X90472799Y-48607989D01*
X90497108Y-48610602D01*
X90561657Y-48637338D01*
X90586954Y-48665000D01*
X90624928Y-48721832D01*
X90782168Y-48879073D01*
X90871264Y-48938605D01*
X90885925Y-48948401D01*
X90948614Y-48974367D01*
X91001215Y-48996155D01*
X91113310Y-49018452D01*
X91123601Y-49020499D01*
X91123605Y-49020500D01*
X91123606Y-49020500D01*
X91224191Y-49020500D01*
X91291230Y-49040185D01*
X91316339Y-49061526D01*
X91324443Y-49070526D01*
X91354674Y-49133517D01*
X91346051Y-49202852D01*
X91301311Y-49256519D01*
X91234659Y-49277477D01*
X91232295Y-49277500D01*
X87186601Y-49277500D01*
X87064222Y-49301843D01*
X87064210Y-49301846D01*
X87000096Y-49328403D01*
X86930626Y-49335872D01*
X86868147Y-49304596D01*
X86832495Y-49244507D01*
X86834990Y-49174682D01*
X86836440Y-49170568D01*
X86852989Y-49126201D01*
X86858975Y-49070526D01*
X86859499Y-49065654D01*
X86859500Y-49065637D01*
X86859500Y-48874500D01*
X86879185Y-48807461D01*
X86931989Y-48761706D01*
X86983500Y-48750500D01*
X87073395Y-48750500D01*
X87073396Y-48750499D01*
X87195785Y-48726155D01*
X87311075Y-48678400D01*
X87311082Y-48678394D01*
X87316442Y-48675531D01*
X87317713Y-48677908D01*
X87373296Y-48660519D01*
X87375479Y-48660500D01*
X87471487Y-48660500D01*
X87658288Y-48620794D01*
X87832752Y-48543118D01*
X87987253Y-48430866D01*
X88115040Y-48288944D01*
X88210527Y-48123556D01*
X88210528Y-48123552D01*
X88212872Y-48119493D01*
X88263438Y-48071278D01*
X88332045Y-48058054D01*
X88396910Y-48084022D01*
X88437439Y-48140936D01*
X88443548Y-48168236D01*
X88448401Y-48213373D01*
X88448403Y-48213379D01*
X88498645Y-48348086D01*
X88498649Y-48348093D01*
X88584809Y-48463187D01*
X88584812Y-48463190D01*
X88699906Y-48549350D01*
X88699913Y-48549354D01*
X88834620Y-48599596D01*
X88834627Y-48599598D01*
X88894155Y-48605999D01*
X88894172Y-48606000D01*
X89227000Y-48606000D01*
X89227000Y-47621000D01*
X88419243Y-47621000D01*
X88408039Y-47627117D01*
X88338348Y-47622128D01*
X88282417Y-47580254D01*
X88263757Y-47544267D01*
X88210529Y-47380450D01*
X88210528Y-47380449D01*
X88210527Y-47380444D01*
X88115040Y-47215056D01*
X87987253Y-47073134D01*
X87832752Y-46960882D01*
X87658288Y-46883206D01*
X87658286Y-46883205D01*
X87471487Y-46843500D01*
X87280513Y-46843500D01*
X87093714Y-46883205D01*
X86916059Y-46962301D01*
X86846808Y-46971585D01*
X86783532Y-46941956D01*
X86766361Y-46923336D01*
X86714261Y-46853739D01*
X86597204Y-46766111D01*
X86460203Y-46715011D01*
X86399654Y-46708500D01*
X86399638Y-46708500D01*
X85252362Y-46708500D01*
X85252345Y-46708500D01*
X85191797Y-46715011D01*
X85191795Y-46715011D01*
X85054795Y-46766111D01*
X84937739Y-46853739D01*
X84850111Y-46970795D01*
X84799011Y-47107795D01*
X84799011Y-47107797D01*
X84792500Y-47168345D01*
X84792500Y-49065654D01*
X84799011Y-49126202D01*
X84799011Y-49126204D01*
X84837333Y-49228946D01*
X84850111Y-49263204D01*
X84937739Y-49380261D01*
X85054796Y-49467889D01*
X85191799Y-49518989D01*
X85219050Y-49521918D01*
X85252345Y-49525499D01*
X85252362Y-49525500D01*
X86399638Y-49525500D01*
X86399652Y-49525499D01*
X86429945Y-49522242D01*
X86498705Y-49534646D01*
X86549843Y-49582256D01*
X86567123Y-49649955D01*
X86545059Y-49716250D01*
X86530883Y-49733212D01*
X86423100Y-49840996D01*
X86337167Y-49926929D01*
X86293264Y-49970832D01*
X86248927Y-50015168D01*
X86179603Y-50118918D01*
X86179598Y-50118927D01*
X86131845Y-50234214D01*
X86131843Y-50234222D01*
X86107500Y-50356601D01*
X86107500Y-54178233D01*
X86087815Y-54245272D01*
X86035011Y-54291027D01*
X85965853Y-54300971D01*
X85902297Y-54271946D01*
X85895819Y-54265914D01*
X82290146Y-50660242D01*
X82258052Y-50604654D01*
X82227272Y-50489780D01*
X82227271Y-50489779D01*
X82227270Y-50489773D01*
X82133097Y-50287818D01*
X82005284Y-50105283D01*
X81847717Y-49947716D01*
X81847715Y-49947714D01*
X81847710Y-49947710D01*
X81665189Y-49819907D01*
X81665186Y-49819905D01*
X81665183Y-49819903D01*
X81613807Y-49795946D01*
X81463233Y-49725732D01*
X81463219Y-49725727D01*
X81247990Y-49668057D01*
X81247988Y-49668056D01*
X81247986Y-49668056D01*
X81247984Y-49668055D01*
X81247980Y-49668055D01*
X81026002Y-49648635D01*
X81025998Y-49648635D01*
X80804019Y-49668055D01*
X80804009Y-49668057D01*
X80588780Y-49725727D01*
X80588771Y-49725731D01*
X80386817Y-49819903D01*
X80386811Y-49819907D01*
X80204282Y-49947716D01*
X80046716Y-50105282D01*
X79918907Y-50287811D01*
X79918903Y-50287817D01*
X79824731Y-50489771D01*
X79824727Y-50489780D01*
X79767057Y-50705009D01*
X79767055Y-50705019D01*
X79747635Y-50926998D01*
X79747635Y-50927001D01*
X79767055Y-51148980D01*
X79767057Y-51148990D01*
X79824727Y-51364219D01*
X79824732Y-51364233D01*
X79918901Y-51566179D01*
X79918907Y-51566189D01*
X80046710Y-51748710D01*
X80046714Y-51748715D01*
X80046716Y-51748717D01*
X80204283Y-51906284D01*
X80204289Y-51906288D01*
X80204290Y-51906289D01*
X80304454Y-51976426D01*
X80348079Y-52031003D01*
X80355271Y-52100501D01*
X80323748Y-52162856D01*
X80263518Y-52198269D01*
X80233330Y-52202000D01*
X80213155Y-52202000D01*
X80153627Y-52208401D01*
X80153620Y-52208403D01*
X80018913Y-52258645D01*
X80018906Y-52258649D01*
X79903812Y-52344809D01*
X79903809Y-52344812D01*
X79817649Y-52459906D01*
X79817645Y-52459913D01*
X79767403Y-52594620D01*
X79767401Y-52594627D01*
X79761000Y-52654155D01*
X79761000Y-53217000D01*
X80581440Y-53217000D01*
X80550755Y-53270147D01*
X80516000Y-53399857D01*
X80516000Y-53534143D01*
X80550755Y-53663853D01*
X80581440Y-53717000D01*
X79761000Y-53717000D01*
X79761000Y-54279844D01*
X79767401Y-54339372D01*
X79767403Y-54339379D01*
X79817645Y-54474086D01*
X79817649Y-54474093D01*
X79903809Y-54589187D01*
X79903812Y-54589190D01*
X80018906Y-54675350D01*
X80018913Y-54675354D01*
X80153620Y-54725596D01*
X80153627Y-54725598D01*
X80213155Y-54731999D01*
X80213172Y-54732000D01*
X80776000Y-54732000D01*
X80776000Y-53911560D01*
X80829147Y-53942245D01*
X80958857Y-53977000D01*
X81093143Y-53977000D01*
X81222853Y-53942245D01*
X81276000Y-53911560D01*
X81276000Y-54732000D01*
X81838828Y-54732000D01*
X81838844Y-54731999D01*
X81898372Y-54725598D01*
X81898379Y-54725596D01*
X82033086Y-54675354D01*
X82033093Y-54675350D01*
X82148187Y-54589190D01*
X82148190Y-54589187D01*
X82234350Y-54474093D01*
X82234354Y-54474086D01*
X82284596Y-54339379D01*
X82284598Y-54339372D01*
X82290999Y-54279844D01*
X82291000Y-54279827D01*
X82291000Y-53717000D01*
X81470560Y-53717000D01*
X81501245Y-53663853D01*
X81536000Y-53534143D01*
X81536000Y-53399857D01*
X81501245Y-53270147D01*
X81470560Y-53217000D01*
X82291000Y-53217000D01*
X82291000Y-52752266D01*
X82310685Y-52685227D01*
X82363489Y-52639472D01*
X82432647Y-52629528D01*
X82496203Y-52658553D01*
X82502678Y-52664582D01*
X84125920Y-54287825D01*
X85748914Y-55910819D01*
X85782399Y-55972142D01*
X85777415Y-56041834D01*
X85735543Y-56097767D01*
X85670079Y-56122184D01*
X85661233Y-56122500D01*
X85252345Y-56122500D01*
X85191797Y-56129011D01*
X85191795Y-56129011D01*
X85054795Y-56180111D01*
X84937739Y-56267739D01*
X84850111Y-56384795D01*
X84799011Y-56521795D01*
X84799011Y-56521797D01*
X84792500Y-56582345D01*
X84792500Y-58479654D01*
X84799011Y-58540202D01*
X84799011Y-58540204D01*
X84839454Y-58648632D01*
X84850111Y-58677204D01*
X84937739Y-58794261D01*
X85054796Y-58881889D01*
X85129076Y-58909594D01*
X85185006Y-58951464D01*
X85207356Y-59001583D01*
X85216843Y-59049277D01*
X85216846Y-59049289D01*
X85226408Y-59072373D01*
X85235168Y-59132785D01*
X85231713Y-59165660D01*
X85229996Y-59182000D01*
X85249958Y-59371928D01*
X85249959Y-59371931D01*
X85308970Y-59553549D01*
X85308972Y-59553553D01*
X85308973Y-59553556D01*
X85353269Y-59630278D01*
X85354552Y-59632501D01*
X85371024Y-59700401D01*
X85348171Y-59766428D01*
X85293249Y-59809618D01*
X85247164Y-59818500D01*
X82201625Y-59818500D01*
X82134586Y-59798815D01*
X82100053Y-59765627D01*
X82005284Y-59630283D01*
X81847717Y-59472716D01*
X81847715Y-59472714D01*
X81847710Y-59472710D01*
X81665189Y-59344907D01*
X81665186Y-59344905D01*
X81665183Y-59344903D01*
X81665179Y-59344901D01*
X81463233Y-59250732D01*
X81463219Y-59250727D01*
X81247990Y-59193057D01*
X81247988Y-59193056D01*
X81247986Y-59193056D01*
X81247984Y-59193055D01*
X81247980Y-59193055D01*
X81026002Y-59173635D01*
X81025998Y-59173635D01*
X80804019Y-59193055D01*
X80804009Y-59193057D01*
X80588780Y-59250727D01*
X80588771Y-59250731D01*
X80386817Y-59344903D01*
X80386811Y-59344907D01*
X80204282Y-59472716D01*
X80046716Y-59630282D01*
X79918907Y-59812811D01*
X79918903Y-59812817D01*
X79824731Y-60014771D01*
X79824727Y-60014780D01*
X79767057Y-60230009D01*
X79767055Y-60230019D01*
X79747635Y-60451998D01*
X79747635Y-60452001D01*
X79767055Y-60673980D01*
X79767057Y-60673990D01*
X79824727Y-60889219D01*
X79824732Y-60889233D01*
X79918901Y-61091179D01*
X79918907Y-61091189D01*
X80046710Y-61273710D01*
X80046714Y-61273715D01*
X80046716Y-61273717D01*
X80204283Y-61431284D01*
X80204289Y-61431288D01*
X80204290Y-61431289D01*
X80304454Y-61501426D01*
X80348079Y-61556003D01*
X80355271Y-61625501D01*
X80323748Y-61687856D01*
X80263518Y-61723269D01*
X80233330Y-61727000D01*
X80213155Y-61727000D01*
X80153627Y-61733401D01*
X80153620Y-61733403D01*
X80018913Y-61783645D01*
X80018906Y-61783649D01*
X79903812Y-61869809D01*
X79903809Y-61869812D01*
X79817649Y-61984906D01*
X79817645Y-61984913D01*
X79767403Y-62119620D01*
X79767401Y-62119627D01*
X79761000Y-62179155D01*
X79761000Y-62742000D01*
X80581440Y-62742000D01*
X80550755Y-62795147D01*
X80516000Y-62924857D01*
X80516000Y-63059143D01*
X80550755Y-63188853D01*
X80581440Y-63242000D01*
X79761000Y-63242000D01*
X79761000Y-63804844D01*
X79767401Y-63864372D01*
X79767403Y-63864379D01*
X79817645Y-63999086D01*
X79817649Y-63999093D01*
X79903809Y-64114187D01*
X79903812Y-64114190D01*
X80018906Y-64200350D01*
X80018913Y-64200354D01*
X80153620Y-64250596D01*
X80153627Y-64250598D01*
X80213155Y-64256999D01*
X80213172Y-64257000D01*
X80776000Y-64257000D01*
X80776000Y-63436560D01*
X80829147Y-63467245D01*
X80958857Y-63502000D01*
X81093143Y-63502000D01*
X81222853Y-63467245D01*
X81276000Y-63436560D01*
X81276000Y-64257000D01*
X81838828Y-64257000D01*
X81838844Y-64256999D01*
X81898372Y-64250598D01*
X81898379Y-64250596D01*
X82033086Y-64200354D01*
X82033093Y-64200350D01*
X82148187Y-64114190D01*
X82148190Y-64114187D01*
X82234350Y-63999093D01*
X82234354Y-63999086D01*
X82284596Y-63864379D01*
X82284598Y-63864372D01*
X82290999Y-63804844D01*
X82291000Y-63804827D01*
X82291000Y-63242000D01*
X81470560Y-63242000D01*
X81501245Y-63188853D01*
X81536000Y-63059143D01*
X81536000Y-62924857D01*
X81501245Y-62795147D01*
X81470560Y-62742000D01*
X82291000Y-62742000D01*
X82291000Y-62179172D01*
X82290999Y-62179155D01*
X82284598Y-62119627D01*
X82284596Y-62119620D01*
X82234354Y-61984913D01*
X82234350Y-61984906D01*
X82148190Y-61869812D01*
X82148187Y-61869809D01*
X82033093Y-61783649D01*
X82033086Y-61783645D01*
X81898379Y-61733403D01*
X81898372Y-61733401D01*
X81838844Y-61727000D01*
X81818670Y-61727000D01*
X81751631Y-61707315D01*
X81705876Y-61654511D01*
X81695932Y-61585353D01*
X81724957Y-61521797D01*
X81747546Y-61501426D01*
X81845353Y-61432939D01*
X81847717Y-61431284D01*
X82005284Y-61273717D01*
X82100052Y-61138374D01*
X82154628Y-61094751D01*
X82201626Y-61085500D01*
X86930395Y-61085500D01*
X86930396Y-61085499D01*
X87052785Y-61061155D01*
X87168075Y-61013400D01*
X87271833Y-60944071D01*
X90678586Y-57537319D01*
X90739909Y-57503834D01*
X90766267Y-57501000D01*
X91080087Y-57501000D01*
X91147126Y-57520685D01*
X91192881Y-57573489D01*
X91203407Y-57637959D01*
X91188496Y-57779837D01*
X91208458Y-57969765D01*
X91208459Y-57969768D01*
X91267470Y-58151386D01*
X91267473Y-58151393D01*
X91362960Y-58316781D01*
X91490747Y-58458703D01*
X91645248Y-58570955D01*
X91819712Y-58648631D01*
X92006513Y-58688337D01*
X92197487Y-58688337D01*
X92384283Y-58648632D01*
X92384282Y-58648632D01*
X92384288Y-58648631D01*
X92448310Y-58620126D01*
X92517557Y-58610843D01*
X92580834Y-58640471D01*
X92618047Y-58699606D01*
X92622032Y-58746663D01*
X92618000Y-58784155D01*
X92618000Y-59117000D01*
X95088000Y-59117000D01*
X95088000Y-58784172D01*
X95087999Y-58784155D01*
X95081598Y-58724627D01*
X95081595Y-58724616D01*
X95036046Y-58602495D01*
X95031061Y-58532804D01*
X95036045Y-58515828D01*
X95038889Y-58508204D01*
X95045957Y-58489253D01*
X95087827Y-58433321D01*
X95153291Y-58408904D01*
X95187919Y-58411298D01*
X95285013Y-58431936D01*
X95475987Y-58431936D01*
X95662788Y-58392230D01*
X95837252Y-58314554D01*
X95991753Y-58202302D01*
X95995660Y-58197963D01*
X96055146Y-58161315D01*
X96087809Y-58156936D01*
X101034959Y-58156936D01*
X101034960Y-58156935D01*
X101157349Y-58132591D01*
X101272639Y-58084836D01*
X101376397Y-58015507D01*
X101424084Y-57967820D01*
X101485407Y-57934334D01*
X101511766Y-57931500D01*
X101568487Y-57931500D01*
X101755288Y-57891794D01*
X101929752Y-57814118D01*
X102084253Y-57701866D01*
X102212040Y-57559944D01*
X102307527Y-57394556D01*
X102366542Y-57212928D01*
X102386504Y-57023000D01*
X102366542Y-56833072D01*
X102307527Y-56651444D01*
X102306957Y-56649689D01*
X102301599Y-56598114D01*
X102305404Y-56562725D01*
X102305405Y-56562711D01*
X102305405Y-55239424D01*
X102325090Y-55172385D01*
X102377894Y-55126630D01*
X102441569Y-55116022D01*
X102446408Y-55116499D01*
X102446413Y-55116500D01*
X102571201Y-55116500D01*
X102803191Y-55116500D01*
X102870230Y-55136185D01*
X102895340Y-55157527D01*
X102899247Y-55161866D01*
X103053748Y-55274118D01*
X103228212Y-55351794D01*
X103415013Y-55391500D01*
X103605987Y-55391500D01*
X103792788Y-55351794D01*
X103967252Y-55274118D01*
X104121753Y-55161866D01*
X104249540Y-55019944D01*
X104345027Y-54854556D01*
X104404042Y-54672928D01*
X104424004Y-54483000D01*
X104404042Y-54293072D01*
X104345027Y-54111444D01*
X104249540Y-53946056D01*
X104121753Y-53804134D01*
X103967252Y-53691882D01*
X103792788Y-53614206D01*
X103792786Y-53614205D01*
X103605987Y-53574500D01*
X103485282Y-53574500D01*
X103418243Y-53554815D01*
X103372488Y-53502011D01*
X103362544Y-53432853D01*
X103367351Y-53412182D01*
X103371768Y-53398585D01*
X103382542Y-53365428D01*
X103398199Y-53216450D01*
X103424783Y-53151838D01*
X103482081Y-53111853D01*
X103521520Y-53105414D01*
X105963258Y-53105414D01*
X105963259Y-53105413D01*
X106085648Y-53081069D01*
X106200938Y-53033314D01*
X106304696Y-52963985D01*
X106452077Y-52816603D01*
X106513399Y-52783120D01*
X106539757Y-52780286D01*
X106596478Y-52780286D01*
X106783279Y-52740580D01*
X106957743Y-52662904D01*
X107112244Y-52550652D01*
X107240031Y-52408730D01*
X107335518Y-52243342D01*
X107394533Y-52061714D01*
X107414495Y-51871786D01*
X107394533Y-51681858D01*
X107335518Y-51500230D01*
X107240031Y-51334842D01*
X107112244Y-51192920D01*
X106957743Y-51080668D01*
X106783279Y-51002992D01*
X106783277Y-51002991D01*
X106783278Y-51002991D01*
X106642718Y-50973114D01*
X106581237Y-50939921D01*
X106547460Y-50878758D01*
X106544500Y-50851824D01*
X106544500Y-49520565D01*
X106564185Y-49453526D01*
X106580814Y-49432888D01*
X107421553Y-48592149D01*
X107482874Y-48558666D01*
X107552565Y-48563650D01*
X107608499Y-48605522D01*
X107622509Y-48629392D01*
X107623470Y-48631550D01*
X107623472Y-48631554D01*
X107623473Y-48631556D01*
X107718960Y-48796944D01*
X107742411Y-48822989D01*
X107754319Y-48836214D01*
X107784549Y-48899205D01*
X107775924Y-48968541D01*
X107736481Y-49018452D01*
X107722739Y-49028738D01*
X107635111Y-49145795D01*
X107584011Y-49282795D01*
X107584011Y-49282797D01*
X107577500Y-49343345D01*
X107577500Y-51240654D01*
X107584011Y-51301202D01*
X107584011Y-51301204D01*
X107629407Y-51422911D01*
X107635111Y-51438204D01*
X107722739Y-51555261D01*
X107749300Y-51575144D01*
X107791170Y-51631077D01*
X107798309Y-51687369D01*
X107794197Y-51726500D01*
X107814159Y-51916428D01*
X107814160Y-51916431D01*
X107873171Y-52098049D01*
X107873174Y-52098056D01*
X107968661Y-52263444D01*
X108096448Y-52405366D01*
X108250949Y-52517618D01*
X108425413Y-52595294D01*
X108612214Y-52635000D01*
X108803188Y-52635000D01*
X108989989Y-52595294D01*
X109164453Y-52517618D01*
X109318954Y-52405366D01*
X109446741Y-52263444D01*
X109542228Y-52098056D01*
X109601243Y-51916428D01*
X109621205Y-51726500D01*
X109601243Y-51536572D01*
X109590843Y-51504564D01*
X109588848Y-51434723D01*
X109592593Y-51422911D01*
X109637988Y-51301204D01*
X109637988Y-51301203D01*
X109637989Y-51301201D01*
X109641591Y-51267692D01*
X109644499Y-51240654D01*
X109644500Y-51240637D01*
X109644500Y-49468232D01*
X109664185Y-49401193D01*
X109716989Y-49355438D01*
X109786147Y-49345494D01*
X109792690Y-49346614D01*
X109882604Y-49364499D01*
X109882605Y-49364500D01*
X109882606Y-49364500D01*
X110725700Y-49364500D01*
X110725701Y-49364499D01*
X110848090Y-49340155D01*
X110928907Y-49306678D01*
X110998376Y-49299210D01*
X111043229Y-49318355D01*
X111043622Y-49317676D01*
X111049247Y-49320924D01*
X111092444Y-49340156D01*
X111223712Y-49398600D01*
X111410513Y-49438306D01*
X111601487Y-49438306D01*
X111788288Y-49398600D01*
X111962752Y-49320924D01*
X112117253Y-49208672D01*
X112245040Y-49066750D01*
X112340527Y-48901362D01*
X112399542Y-48719734D01*
X112417398Y-48549844D01*
X112443983Y-48485229D01*
X112501280Y-48445245D01*
X112540719Y-48438806D01*
X113293089Y-48438806D01*
X113293090Y-48438805D01*
X113415479Y-48414461D01*
X113530769Y-48366706D01*
X113634527Y-48297377D01*
X114157071Y-47774833D01*
X114226400Y-47671075D01*
X114274155Y-47555785D01*
X114278713Y-47532871D01*
X114298500Y-47433394D01*
X114298500Y-47198207D01*
X114318185Y-47131168D01*
X114330346Y-47115239D01*
X114404040Y-47033395D01*
X114499527Y-46868007D01*
X114558542Y-46686379D01*
X114578504Y-46496451D01*
X114558542Y-46306523D01*
X114499527Y-46124895D01*
X114499476Y-46124807D01*
X114499462Y-46124751D01*
X114496886Y-46118965D01*
X114497944Y-46118493D01*
X114483002Y-46056911D01*
X114505852Y-45990883D01*
X114560771Y-45947690D01*
X114606862Y-45938806D01*
X115349540Y-45938806D01*
X115416579Y-45958491D01*
X115437221Y-45975125D01*
X116780683Y-47318587D01*
X116814168Y-47379910D01*
X116817002Y-47406268D01*
X116817002Y-49209241D01*
X116797317Y-49276280D01*
X116785152Y-49292213D01*
X116711465Y-49374050D01*
X116711460Y-49374057D01*
X116615975Y-49539443D01*
X116615972Y-49539450D01*
X116556961Y-49721068D01*
X116556960Y-49721072D01*
X116536998Y-49911000D01*
X116556960Y-50100928D01*
X116556961Y-50100931D01*
X116615972Y-50282549D01*
X116615975Y-50282556D01*
X116711462Y-50447944D01*
X116753019Y-50494098D01*
X116839248Y-50589866D01*
X116839936Y-50590366D01*
X116840237Y-50590756D01*
X116844078Y-50594215D01*
X116843445Y-50594917D01*
X116882601Y-50645697D01*
X116888579Y-50715310D01*
X116855972Y-50777105D01*
X116854730Y-50778364D01*
X109247915Y-58385181D01*
X109186592Y-58418666D01*
X109160234Y-58421500D01*
X96938601Y-58421500D01*
X96816222Y-58445843D01*
X96816214Y-58445845D01*
X96700927Y-58493598D01*
X96700918Y-58493603D01*
X96597167Y-58562928D01*
X96597163Y-58562931D01*
X95299681Y-59860414D01*
X95238358Y-59893899D01*
X95168666Y-59888915D01*
X95112733Y-59847043D01*
X95088316Y-59781579D01*
X95088000Y-59772733D01*
X95088000Y-59617000D01*
X92618000Y-59617000D01*
X92618000Y-59949844D01*
X92624401Y-60009372D01*
X92624403Y-60009379D01*
X92674645Y-60144086D01*
X92674649Y-60144093D01*
X92760809Y-60259187D01*
X92760812Y-60259190D01*
X92875906Y-60345350D01*
X92875913Y-60345354D01*
X93010616Y-60395595D01*
X93017807Y-60397294D01*
X93078525Y-60431864D01*
X93110915Y-60493773D01*
X93104692Y-60563365D01*
X93096687Y-60579972D01*
X93018472Y-60715446D01*
X93018470Y-60715450D01*
X92962007Y-60889227D01*
X92959458Y-60897072D01*
X92948712Y-60999305D01*
X92946390Y-61021406D01*
X92919805Y-61086021D01*
X92862507Y-61126005D01*
X92792688Y-61128665D01*
X92772636Y-61121724D01*
X92625624Y-61056271D01*
X92625622Y-61056270D01*
X92438823Y-61016565D01*
X92247849Y-61016565D01*
X92061050Y-61056270D01*
X91974620Y-61094751D01*
X91914038Y-61121724D01*
X91886582Y-61133948D01*
X91732081Y-61246200D01*
X91604295Y-61388122D01*
X91508809Y-61553508D01*
X91508806Y-61553515D01*
X91450994Y-61731443D01*
X91449794Y-61735137D01*
X91429832Y-61925065D01*
X91449794Y-62114993D01*
X91449795Y-62114996D01*
X91508806Y-62296614D01*
X91508809Y-62296621D01*
X91604296Y-62462009D01*
X91732083Y-62603931D01*
X91886584Y-62716183D01*
X92061048Y-62793859D01*
X92247849Y-62833565D01*
X92339420Y-62833565D01*
X92406459Y-62853250D01*
X92408272Y-62854437D01*
X92417196Y-62860400D01*
X92532486Y-62908155D01*
X92654872Y-62932499D01*
X92654876Y-62932500D01*
X92654877Y-62932500D01*
X92721925Y-62932500D01*
X92788964Y-62952185D01*
X92834719Y-63004989D01*
X92838106Y-63013165D01*
X92865953Y-63087823D01*
X92870939Y-63157515D01*
X92865954Y-63174491D01*
X92820403Y-63296619D01*
X92820401Y-63296627D01*
X92814000Y-63356155D01*
X92814000Y-63689000D01*
X95284000Y-63689000D01*
X95284000Y-63393844D01*
X98602000Y-63393844D01*
X98608401Y-63453372D01*
X98608403Y-63453379D01*
X98658645Y-63588086D01*
X98658649Y-63588093D01*
X98744809Y-63703187D01*
X98744812Y-63703190D01*
X98859906Y-63789350D01*
X98859913Y-63789354D01*
X98994620Y-63839596D01*
X98994627Y-63839598D01*
X99054155Y-63845999D01*
X99054172Y-63846000D01*
X99387000Y-63846000D01*
X99387000Y-62861000D01*
X98602000Y-62861000D01*
X98602000Y-63393844D01*
X95284000Y-63393844D01*
X95284000Y-63356172D01*
X95283999Y-63356155D01*
X95277598Y-63296627D01*
X95277597Y-63296623D01*
X95233664Y-63178834D01*
X95228680Y-63109142D01*
X95262165Y-63047819D01*
X95323488Y-63014334D01*
X95349846Y-63011500D01*
X95475987Y-63011500D01*
X95662788Y-62971794D01*
X95837252Y-62894118D01*
X95991753Y-62781866D01*
X96119540Y-62639944D01*
X96215027Y-62474556D01*
X96274042Y-62292928D01*
X96294004Y-62103000D01*
X96274042Y-61913072D01*
X96246451Y-61828155D01*
X98602000Y-61828155D01*
X98602000Y-62361000D01*
X99387000Y-62361000D01*
X99387000Y-61376000D01*
X99887000Y-61376000D01*
X99887000Y-63846000D01*
X100219828Y-63846000D01*
X100219844Y-63845999D01*
X100279372Y-63839598D01*
X100279376Y-63839597D01*
X100401506Y-63794045D01*
X100471198Y-63789061D01*
X100488175Y-63794046D01*
X100495794Y-63796888D01*
X100495796Y-63796889D01*
X100604305Y-63837361D01*
X100627463Y-63845999D01*
X100632799Y-63847989D01*
X100660050Y-63850918D01*
X100693345Y-63854499D01*
X100693362Y-63854500D01*
X101860638Y-63854500D01*
X101860654Y-63854499D01*
X101887692Y-63851591D01*
X101921201Y-63847989D01*
X101926537Y-63845999D01*
X101943698Y-63839598D01*
X102058204Y-63796889D01*
X102175261Y-63709261D01*
X102262889Y-63592204D01*
X102313989Y-63455201D01*
X102319913Y-63400102D01*
X102320499Y-63394654D01*
X102320500Y-63394637D01*
X102320500Y-61946269D01*
X102326569Y-61907951D01*
X102338962Y-61869809D01*
X102366542Y-61784928D01*
X102386504Y-61595000D01*
X102366542Y-61405072D01*
X102307527Y-61223444D01*
X102212040Y-61058056D01*
X102084253Y-60916134D01*
X101929752Y-60803882D01*
X101755288Y-60726206D01*
X101755286Y-60726205D01*
X101568487Y-60686500D01*
X101377513Y-60686500D01*
X101190714Y-60726205D01*
X101016246Y-60803883D01*
X100861745Y-60916135D01*
X100733959Y-61058057D01*
X100638473Y-61223443D01*
X100638471Y-61223447D01*
X100602086Y-61335427D01*
X100562647Y-61393102D01*
X100527490Y-61413289D01*
X100488176Y-61427953D01*
X100418485Y-61432939D01*
X100401508Y-61427954D01*
X100279379Y-61382403D01*
X100279372Y-61382401D01*
X100219844Y-61376000D01*
X99887000Y-61376000D01*
X99387000Y-61376000D01*
X99054155Y-61376000D01*
X98994627Y-61382401D01*
X98994620Y-61382403D01*
X98859913Y-61432645D01*
X98859906Y-61432649D01*
X98744812Y-61518809D01*
X98744809Y-61518812D01*
X98658649Y-61633906D01*
X98658645Y-61633913D01*
X98608403Y-61768620D01*
X98608401Y-61768627D01*
X98602000Y-61828155D01*
X96246451Y-61828155D01*
X96215027Y-61731444D01*
X96119540Y-61566056D01*
X95991753Y-61424134D01*
X95991751Y-61424132D01*
X95840474Y-61314223D01*
X95797808Y-61258893D01*
X95791829Y-61189280D01*
X95824435Y-61127485D01*
X95825603Y-61126299D01*
X97227085Y-59724819D01*
X97288408Y-59691334D01*
X97314766Y-59688500D01*
X109536395Y-59688500D01*
X109536396Y-59688499D01*
X109658785Y-59664155D01*
X109774075Y-59616400D01*
X109877833Y-59547071D01*
X116368469Y-53056433D01*
X116429790Y-53022950D01*
X116499482Y-53027934D01*
X116548293Y-53061139D01*
X116559948Y-53074083D01*
X116590178Y-53137071D01*
X116591799Y-53157055D01*
X116591799Y-53275934D01*
X116572114Y-53342973D01*
X116555480Y-53363615D01*
X106530115Y-63388981D01*
X106468792Y-63422466D01*
X106442434Y-63425300D01*
X103798201Y-63425300D01*
X103675822Y-63449643D01*
X103675814Y-63449645D01*
X103560527Y-63497398D01*
X103560518Y-63497403D01*
X103456767Y-63566728D01*
X103456763Y-63566731D01*
X101729515Y-65293981D01*
X101668192Y-65327466D01*
X101641834Y-65330300D01*
X97891023Y-65330300D01*
X97823984Y-65310615D01*
X97803342Y-65293981D01*
X97779348Y-65269987D01*
X97745863Y-65208664D01*
X97743710Y-65195284D01*
X97726270Y-65029344D01*
X97667255Y-64847716D01*
X97571768Y-64682328D01*
X97443981Y-64540406D01*
X97289480Y-64428154D01*
X97115016Y-64350478D01*
X97115014Y-64350477D01*
X96928215Y-64310772D01*
X96737241Y-64310772D01*
X96550442Y-64350477D01*
X96375974Y-64428155D01*
X96221473Y-64540407D01*
X96093687Y-64682329D01*
X95998201Y-64847715D01*
X95998198Y-64847722D01*
X95941014Y-65023717D01*
X95939186Y-65029344D01*
X95919224Y-65219272D01*
X95939186Y-65409200D01*
X95939187Y-65409203D01*
X95998198Y-65590821D01*
X95998201Y-65590828D01*
X96032364Y-65650000D01*
X96048837Y-65717901D01*
X96025984Y-65783927D01*
X95971063Y-65827118D01*
X95924977Y-65836000D01*
X95881000Y-65836000D01*
X95881000Y-66621000D01*
X96866000Y-66621000D01*
X96866000Y-66447811D01*
X96885685Y-66380772D01*
X96938489Y-66335017D01*
X97007647Y-66325073D01*
X97071203Y-66354098D01*
X97077667Y-66360116D01*
X97131529Y-66413978D01*
X97173424Y-66455873D01*
X97277177Y-66525199D01*
X97277179Y-66525199D01*
X97277181Y-66525201D01*
X97358703Y-66558968D01*
X97392471Y-66572955D01*
X97392473Y-66572955D01*
X97392478Y-66572957D01*
X97514857Y-66597299D01*
X97514861Y-66597300D01*
X97514862Y-66597300D01*
X97514863Y-66597300D01*
X97639650Y-66597300D01*
X100737904Y-66597300D01*
X100804943Y-66616985D01*
X100850698Y-66669789D01*
X100860642Y-66738947D01*
X100837171Y-66795610D01*
X100832388Y-66802000D01*
X100795111Y-66851795D01*
X100744011Y-66988795D01*
X100744011Y-66988797D01*
X100737500Y-67049345D01*
X100737500Y-67111300D01*
X100717815Y-67178339D01*
X100665011Y-67224094D01*
X100613500Y-67235300D01*
X100453109Y-67235300D01*
X100386070Y-67215615D01*
X100360960Y-67194273D01*
X100357054Y-67189935D01*
X100284093Y-67136925D01*
X100202552Y-67077682D01*
X100028088Y-67000006D01*
X100028086Y-67000005D01*
X99841287Y-66960300D01*
X99650313Y-66960300D01*
X99463514Y-67000005D01*
X99289046Y-67077683D01*
X99134545Y-67189935D01*
X99006759Y-67331857D01*
X98911273Y-67497243D01*
X98911270Y-67497250D01*
X98860832Y-67652483D01*
X98852258Y-67678872D01*
X98835963Y-67833907D01*
X98832296Y-67868800D01*
X98845461Y-67994064D01*
X98843758Y-68031214D01*
X98832900Y-68085805D01*
X98832900Y-69189271D01*
X98813215Y-69256310D01*
X98760411Y-69302065D01*
X98691253Y-69312009D01*
X98634589Y-69288538D01*
X98555204Y-69229111D01*
X98418203Y-69178011D01*
X98357654Y-69171500D01*
X98357638Y-69171500D01*
X98166500Y-69171500D01*
X98099461Y-69151815D01*
X98053706Y-69099011D01*
X98042500Y-69047500D01*
X98042500Y-69025605D01*
X98042499Y-69025601D01*
X98018156Y-68903222D01*
X98018155Y-68903215D01*
X97970400Y-68787925D01*
X97970399Y-68787924D01*
X97970396Y-68787918D01*
X97901072Y-68684168D01*
X97857045Y-68640141D01*
X97812833Y-68595929D01*
X97524402Y-68307498D01*
X97235836Y-68018931D01*
X97235832Y-68018928D01*
X97132081Y-67949603D01*
X97132072Y-67949598D01*
X97016785Y-67901845D01*
X97016779Y-67901843D01*
X96938007Y-67886174D01*
X96876096Y-67853789D01*
X96846018Y-67807892D01*
X96814046Y-67722175D01*
X96809060Y-67652483D01*
X96814045Y-67635506D01*
X96859597Y-67513376D01*
X96859598Y-67513372D01*
X96865999Y-67453844D01*
X96866000Y-67453827D01*
X96866000Y-67121000D01*
X94396000Y-67121000D01*
X94396000Y-67453844D01*
X94402401Y-67513372D01*
X94402403Y-67513380D01*
X94447953Y-67635506D01*
X94452937Y-67705198D01*
X94447953Y-67722172D01*
X94394011Y-67866796D01*
X94394011Y-67866797D01*
X94387500Y-67927345D01*
X94387500Y-69094654D01*
X94394011Y-69155202D01*
X94394011Y-69155204D01*
X94431723Y-69256310D01*
X94445111Y-69292204D01*
X94525200Y-69399191D01*
X94549617Y-69464653D01*
X94534766Y-69532926D01*
X94485361Y-69582332D01*
X94425933Y-69597500D01*
X93954199Y-69597500D01*
X93831820Y-69621843D01*
X93831808Y-69621846D01*
X93814396Y-69629059D01*
X93766944Y-69638498D01*
X93605113Y-69638498D01*
X93418314Y-69678203D01*
X93243846Y-69755881D01*
X93089345Y-69868133D01*
X92961559Y-70010055D01*
X92866073Y-70175441D01*
X92866070Y-70175448D01*
X92807073Y-70357023D01*
X92807058Y-70357070D01*
X92788256Y-70535962D01*
X92761671Y-70600576D01*
X92704374Y-70640561D01*
X92664935Y-70647000D01*
X92521000Y-70647000D01*
X92521000Y-72008000D01*
X92501315Y-72075039D01*
X92448511Y-72120794D01*
X92397000Y-72132000D01*
X91236000Y-72132000D01*
X91236000Y-72664844D01*
X91242401Y-72724372D01*
X91242403Y-72724379D01*
X91292645Y-72859086D01*
X91292648Y-72859091D01*
X91300070Y-72869006D01*
X91324485Y-72934470D01*
X91309632Y-73002743D01*
X91288488Y-73030989D01*
X91287744Y-73031732D01*
X91200111Y-73148795D01*
X91149011Y-73285795D01*
X91149011Y-73285797D01*
X91142500Y-73346345D01*
X91142500Y-73389500D01*
X91122815Y-73456539D01*
X91070011Y-73502294D01*
X91018500Y-73513500D01*
X90963513Y-73513500D01*
X90776714Y-73553205D01*
X90602246Y-73630883D01*
X90447745Y-73743135D01*
X90393466Y-73803419D01*
X90333979Y-73840068D01*
X90264122Y-73838737D01*
X90206074Y-73799851D01*
X90202362Y-73795174D01*
X90105007Y-73666256D01*
X89952027Y-73526797D01*
X89952026Y-73526796D01*
X89884792Y-73485166D01*
X89776024Y-73417819D01*
X89776022Y-73417818D01*
X89634878Y-73363139D01*
X89582991Y-73343038D01*
X89379505Y-73305000D01*
X89172495Y-73305000D01*
X88969009Y-73343038D01*
X88969006Y-73343038D01*
X88969006Y-73343039D01*
X88775977Y-73417818D01*
X88775975Y-73417819D01*
X88599972Y-73526797D01*
X88446992Y-73666256D01*
X88322237Y-73831457D01*
X88229970Y-74016756D01*
X88229966Y-74016766D01*
X88202984Y-74111600D01*
X88175401Y-74208547D01*
X88173315Y-74215877D01*
X88154215Y-74422000D01*
X88173315Y-74628122D01*
X88173315Y-74628124D01*
X88173316Y-74628127D01*
X88181763Y-74657815D01*
X88229966Y-74827233D01*
X88229970Y-74827243D01*
X88322237Y-75012542D01*
X88349638Y-75048826D01*
X88446989Y-75177740D01*
X88446992Y-75177743D01*
X88466874Y-75195868D01*
X88599974Y-75317204D01*
X88775977Y-75426181D01*
X88969009Y-75500962D01*
X89172495Y-75539000D01*
X89172497Y-75539000D01*
X89379503Y-75539000D01*
X89379505Y-75539000D01*
X89582991Y-75500962D01*
X89776023Y-75426181D01*
X89952026Y-75317204D01*
X90105009Y-75177742D01*
X90202362Y-75048825D01*
X90258471Y-75007189D01*
X90328182Y-75002497D01*
X90389365Y-75036240D01*
X90393431Y-75040542D01*
X90447747Y-75100866D01*
X90474952Y-75120631D01*
X90517616Y-75175959D01*
X90523595Y-75245572D01*
X90490990Y-75307368D01*
X90476377Y-75320214D01*
X90420809Y-75361812D01*
X90334649Y-75476906D01*
X90334645Y-75476913D01*
X90284403Y-75611620D01*
X90284401Y-75611627D01*
X90278000Y-75671155D01*
X90278000Y-76204000D01*
X91439000Y-76204000D01*
X91506039Y-76223685D01*
X91551794Y-76276489D01*
X91563000Y-76328000D01*
X91563000Y-76580000D01*
X91543315Y-76647039D01*
X91490511Y-76692794D01*
X91439000Y-76704000D01*
X90278000Y-76704000D01*
X90278000Y-77236844D01*
X90284401Y-77296372D01*
X90284403Y-77296379D01*
X90334645Y-77431086D01*
X90334649Y-77431093D01*
X90420809Y-77546187D01*
X90420812Y-77546190D01*
X90535906Y-77632350D01*
X90535913Y-77632354D01*
X90670620Y-77682596D01*
X90670627Y-77682598D01*
X90717182Y-77687604D01*
X90781733Y-77714342D01*
X90821581Y-77771735D01*
X90824074Y-77841560D01*
X90821857Y-77849210D01*
X90800459Y-77915066D01*
X90800458Y-77915070D01*
X90800458Y-77915072D01*
X90780496Y-78105000D01*
X90800458Y-78294928D01*
X90800459Y-78294931D01*
X90859470Y-78476549D01*
X90859473Y-78476556D01*
X90954960Y-78641944D01*
X91082747Y-78783866D01*
X91237248Y-78896118D01*
X91411712Y-78973794D01*
X91598513Y-79013500D01*
X91789487Y-79013500D01*
X91976288Y-78973794D01*
X92150752Y-78896118D01*
X92305253Y-78783866D01*
X92433040Y-78641944D01*
X92528527Y-78476556D01*
X92546367Y-78421646D01*
X92576614Y-78372288D01*
X93215086Y-77733819D01*
X93276409Y-77700334D01*
X93302767Y-77697500D01*
X93536638Y-77697500D01*
X93536654Y-77697499D01*
X93563692Y-77694591D01*
X93597201Y-77690989D01*
X93606277Y-77687604D01*
X93619703Y-77682596D01*
X93734204Y-77639889D01*
X93851261Y-77552261D01*
X93938889Y-77435204D01*
X93989989Y-77298201D01*
X93994979Y-77251787D01*
X93996499Y-77237654D01*
X93996500Y-77237637D01*
X93996500Y-75670362D01*
X93996499Y-75670345D01*
X93992061Y-75629072D01*
X93989989Y-75609799D01*
X93938889Y-75472796D01*
X93851261Y-75355739D01*
X93734204Y-75268111D01*
X93597203Y-75217011D01*
X93536654Y-75210500D01*
X93536638Y-75210500D01*
X93333500Y-75210500D01*
X93266461Y-75190815D01*
X93220706Y-75138011D01*
X93209500Y-75086500D01*
X93209500Y-73346362D01*
X93209499Y-73346345D01*
X93205053Y-73305000D01*
X93202989Y-73285799D01*
X93202987Y-73285795D01*
X93201204Y-73278242D01*
X93204487Y-73277466D01*
X93200569Y-73223084D01*
X93234020Y-73161743D01*
X93295326Y-73128225D01*
X93324041Y-73125906D01*
X93324041Y-73125500D01*
X93327362Y-73125500D01*
X94130205Y-73125500D01*
X94197244Y-73145185D01*
X94242999Y-73197989D01*
X94252943Y-73267147D01*
X94250147Y-73278088D01*
X94250796Y-73278242D01*
X94249011Y-73285797D01*
X94242500Y-73346345D01*
X94242500Y-75243654D01*
X94249011Y-75304202D01*
X94249011Y-75304204D01*
X94279024Y-75384669D01*
X94300111Y-75441204D01*
X94387739Y-75558261D01*
X94504796Y-75645889D01*
X94641799Y-75696989D01*
X94669050Y-75699918D01*
X94702345Y-75703499D01*
X94702362Y-75703500D01*
X94720706Y-75703500D01*
X94787745Y-75723185D01*
X94833500Y-75775989D01*
X94844027Y-75814538D01*
X94844496Y-75819000D01*
X94864458Y-76008928D01*
X94864459Y-76008931D01*
X94923470Y-76190549D01*
X94923473Y-76190556D01*
X95018960Y-76355944D01*
X95146747Y-76497866D01*
X95301248Y-76610118D01*
X95475712Y-76687794D01*
X95662513Y-76727500D01*
X95853487Y-76727500D01*
X96040288Y-76687794D01*
X96214752Y-76610118D01*
X96369253Y-76497866D01*
X96497040Y-76355944D01*
X96592527Y-76190556D01*
X96651542Y-76008928D01*
X96671504Y-75819000D01*
X96651542Y-75629072D01*
X96592527Y-75447444D01*
X96509826Y-75304202D01*
X96497041Y-75282057D01*
X96497036Y-75282050D01*
X96423350Y-75200213D01*
X96393120Y-75137221D01*
X96391500Y-75117241D01*
X96391500Y-75048145D01*
X96411185Y-74981106D01*
X96463989Y-74935351D01*
X96491309Y-74926528D01*
X96520717Y-74920678D01*
X96603785Y-74904155D01*
X96719075Y-74856400D01*
X96822833Y-74787071D01*
X97235085Y-74374819D01*
X97296408Y-74341334D01*
X97322766Y-74338500D01*
X98306799Y-74338500D01*
X98373838Y-74358185D01*
X98419593Y-74410989D01*
X98430799Y-74462500D01*
X98430799Y-75627934D01*
X98411114Y-75694973D01*
X98394480Y-75715615D01*
X94642915Y-79467181D01*
X94581592Y-79500666D01*
X94555234Y-79503500D01*
X93798309Y-79503500D01*
X93731270Y-79483815D01*
X93706160Y-79462473D01*
X93702254Y-79458135D01*
X93679020Y-79441254D01*
X93547752Y-79345882D01*
X93373288Y-79268206D01*
X93373286Y-79268205D01*
X93186487Y-79228500D01*
X92995513Y-79228500D01*
X92808714Y-79268205D01*
X92634246Y-79345883D01*
X92479745Y-79458135D01*
X92351959Y-79600057D01*
X92256473Y-79765443D01*
X92256470Y-79765450D01*
X92212395Y-79901100D01*
X92197458Y-79947072D01*
X92177496Y-80137000D01*
X92197458Y-80326928D01*
X92197459Y-80326931D01*
X92256470Y-80508549D01*
X92256473Y-80508556D01*
X92351960Y-80673944D01*
X92479747Y-80815866D01*
X92634248Y-80928118D01*
X92808712Y-81005794D01*
X92995513Y-81045500D01*
X93186487Y-81045500D01*
X93373288Y-81005794D01*
X93547752Y-80928118D01*
X93702253Y-80815866D01*
X93706160Y-80811527D01*
X93765646Y-80774879D01*
X93798309Y-80770500D01*
X94931395Y-80770500D01*
X94931396Y-80770499D01*
X95053785Y-80746155D01*
X95169075Y-80698400D01*
X95272833Y-80629071D01*
X95646193Y-80255711D01*
X128420500Y-80255711D01*
X128420500Y-80498288D01*
X128446844Y-80698400D01*
X128452162Y-80738789D01*
X128454136Y-80746155D01*
X128514947Y-80973104D01*
X128528488Y-81005794D01*
X128607776Y-81197212D01*
X128729064Y-81407289D01*
X128729066Y-81407292D01*
X128729067Y-81407293D01*
X128876733Y-81599736D01*
X128876739Y-81599743D01*
X129048256Y-81771260D01*
X129048262Y-81771265D01*
X129240711Y-81918936D01*
X129450788Y-82040224D01*
X129674900Y-82133054D01*
X129909211Y-82195838D01*
X130089586Y-82219584D01*
X130149711Y-82227500D01*
X130149712Y-82227500D01*
X130392289Y-82227500D01*
X130440388Y-82221167D01*
X130632789Y-82195838D01*
X130867100Y-82133054D01*
X131091212Y-82040224D01*
X131301289Y-81918936D01*
X131493738Y-81771265D01*
X131665265Y-81599738D01*
X131812936Y-81407289D01*
X131934224Y-81197212D01*
X132027054Y-80973100D01*
X132089838Y-80738789D01*
X132121500Y-80498288D01*
X132121500Y-80255712D01*
X132089838Y-80015211D01*
X132027054Y-79780900D01*
X131934224Y-79556788D01*
X131812936Y-79346711D01*
X131665265Y-79154262D01*
X131665260Y-79154256D01*
X131493743Y-78982739D01*
X131493736Y-78982733D01*
X131301293Y-78835067D01*
X131301292Y-78835066D01*
X131301289Y-78835064D01*
X131091212Y-78713776D01*
X131091205Y-78713773D01*
X130867104Y-78620947D01*
X130632785Y-78558161D01*
X130392289Y-78526500D01*
X130392288Y-78526500D01*
X130149712Y-78526500D01*
X130149711Y-78526500D01*
X129909214Y-78558161D01*
X129674895Y-78620947D01*
X129450794Y-78713773D01*
X129450785Y-78713777D01*
X129240706Y-78835067D01*
X129048263Y-78982733D01*
X129048256Y-78982739D01*
X128876739Y-79154256D01*
X128876733Y-79154263D01*
X128729067Y-79346706D01*
X128607777Y-79556785D01*
X128607773Y-79556794D01*
X128514947Y-79780895D01*
X128452161Y-80015214D01*
X128420500Y-80255711D01*
X95646193Y-80255711D01*
X99264321Y-76637583D01*
X99325642Y-76604100D01*
X99395334Y-76609084D01*
X99451267Y-76650956D01*
X99475684Y-76716420D01*
X99476000Y-76725266D01*
X99476000Y-76942444D01*
X99482401Y-77001972D01*
X99482403Y-77001979D01*
X99532645Y-77136686D01*
X99532649Y-77136693D01*
X99618809Y-77251787D01*
X99618812Y-77251790D01*
X99733906Y-77337950D01*
X99733913Y-77337954D01*
X99868620Y-77388196D01*
X99868627Y-77388198D01*
X99928155Y-77394599D01*
X99928172Y-77394600D01*
X100461000Y-77394600D01*
X100961000Y-77394600D01*
X101493828Y-77394600D01*
X101493844Y-77394599D01*
X101553372Y-77388198D01*
X101553379Y-77388196D01*
X101688086Y-77337954D01*
X101688093Y-77337950D01*
X101803187Y-77251790D01*
X101803190Y-77251787D01*
X101889350Y-77136693D01*
X101889354Y-77136686D01*
X101939596Y-77001979D01*
X101939598Y-77001972D01*
X101945999Y-76942444D01*
X101946000Y-76942427D01*
X101946000Y-76609600D01*
X100961000Y-76609600D01*
X100961000Y-77394600D01*
X100461000Y-77394600D01*
X100461000Y-76233600D01*
X100480685Y-76166561D01*
X100533489Y-76120806D01*
X100585000Y-76109600D01*
X101946000Y-76109600D01*
X101946000Y-75776772D01*
X101945999Y-75776755D01*
X101939598Y-75717227D01*
X101939597Y-75717223D01*
X101894045Y-75595093D01*
X101889061Y-75525401D01*
X101894046Y-75508423D01*
X101896886Y-75500806D01*
X101896889Y-75500804D01*
X101921894Y-75433764D01*
X101963766Y-75377831D01*
X102029231Y-75353416D01*
X102038075Y-75353100D01*
X102226500Y-75353100D01*
X102293539Y-75372785D01*
X102339294Y-75425589D01*
X102350500Y-75477100D01*
X102350500Y-75758254D01*
X102357011Y-75818802D01*
X102357011Y-75818804D01*
X102398503Y-75930044D01*
X102408111Y-75955804D01*
X102495739Y-76072861D01*
X102612796Y-76160489D01*
X102749799Y-76211589D01*
X102777050Y-76214518D01*
X102810345Y-76218099D01*
X102810362Y-76218100D01*
X104707638Y-76218100D01*
X104707654Y-76218099D01*
X104734692Y-76215191D01*
X104768201Y-76211589D01*
X104905204Y-76160489D01*
X104967177Y-76114096D01*
X105032639Y-76089679D01*
X105100913Y-76104530D01*
X105150318Y-76153935D01*
X105165171Y-76222208D01*
X105164809Y-76226308D01*
X105156896Y-76301600D01*
X105176858Y-76491528D01*
X105176859Y-76491531D01*
X105235870Y-76673149D01*
X105235873Y-76673156D01*
X105331360Y-76838544D01*
X105380199Y-76892785D01*
X105448763Y-76968934D01*
X105459147Y-76980466D01*
X105613648Y-77092718D01*
X105788112Y-77170394D01*
X105974913Y-77210100D01*
X106165887Y-77210100D01*
X106352688Y-77170394D01*
X106527152Y-77092718D01*
X106681653Y-76980466D01*
X106809440Y-76838544D01*
X106904927Y-76673156D01*
X106963942Y-76491528D01*
X106983904Y-76301600D01*
X106963942Y-76111672D01*
X106904927Y-75930044D01*
X106840816Y-75819000D01*
X106809441Y-75764657D01*
X106809436Y-75764650D01*
X106735750Y-75682813D01*
X106705520Y-75619821D01*
X106703900Y-75599841D01*
X106703900Y-75537310D01*
X106703899Y-75537306D01*
X106679557Y-75414927D01*
X106679554Y-75414918D01*
X106658381Y-75363801D01*
X106654079Y-75353416D01*
X106631801Y-75299630D01*
X106631799Y-75299628D01*
X106631799Y-75299626D01*
X106562472Y-75195872D01*
X106562469Y-75195868D01*
X104689606Y-73323007D01*
X104656121Y-73261684D01*
X104661105Y-73191993D01*
X104702977Y-73136059D01*
X104764031Y-73112037D01*
X104768201Y-73111589D01*
X104905204Y-73060489D01*
X104996810Y-72991913D01*
X105062272Y-72967497D01*
X105130545Y-72982348D01*
X105158800Y-73003500D01*
X108677181Y-76521881D01*
X108710666Y-76583204D01*
X108713500Y-76609562D01*
X108713500Y-77304398D01*
X108737843Y-77426777D01*
X108737845Y-77426785D01*
X108785598Y-77542072D01*
X108785603Y-77542081D01*
X108854928Y-77645832D01*
X108854931Y-77645836D01*
X109527781Y-78318685D01*
X109561266Y-78380008D01*
X109564100Y-78406366D01*
X109564100Y-79441254D01*
X109570611Y-79501802D01*
X109570611Y-79501804D01*
X109607259Y-79600057D01*
X109621711Y-79638804D01*
X109709339Y-79755861D01*
X109826396Y-79843489D01*
X109963399Y-79894589D01*
X109990650Y-79897518D01*
X110023945Y-79901099D01*
X110023962Y-79901100D01*
X111921238Y-79901100D01*
X111921254Y-79901099D01*
X111948292Y-79898191D01*
X111981801Y-79894589D01*
X112118804Y-79843489D01*
X112235861Y-79755861D01*
X112323489Y-79638804D01*
X112344764Y-79581765D01*
X112386636Y-79525832D01*
X112452100Y-79501416D01*
X112460945Y-79501100D01*
X119324100Y-79501100D01*
X119324101Y-79501099D01*
X119446490Y-79476755D01*
X119561780Y-79429000D01*
X119665538Y-79359671D01*
X121867071Y-77158138D01*
X121936400Y-77054380D01*
X121952546Y-77015400D01*
X121984155Y-76939090D01*
X122008500Y-76816699D01*
X122008500Y-76091301D01*
X121984155Y-75968910D01*
X121968059Y-75930050D01*
X121963960Y-75920154D01*
X121936404Y-75853627D01*
X121936403Y-75853626D01*
X121936401Y-75853620D01*
X121913138Y-75818804D01*
X121867072Y-75749861D01*
X121867069Y-75749858D01*
X119408144Y-73290934D01*
X119374659Y-73229611D01*
X119372506Y-73216232D01*
X119359142Y-73089072D01*
X119300127Y-72907444D01*
X119204640Y-72742056D01*
X119076853Y-72600134D01*
X118922352Y-72487882D01*
X118781559Y-72425197D01*
X118728322Y-72379947D01*
X118708001Y-72313098D01*
X118727046Y-72245875D01*
X118779412Y-72199619D01*
X118788662Y-72195736D01*
X118891408Y-72157414D01*
X118891415Y-72157410D01*
X119006509Y-72071250D01*
X119006512Y-72071247D01*
X119092672Y-71956153D01*
X119092676Y-71956146D01*
X119142918Y-71821439D01*
X119142920Y-71821432D01*
X119149321Y-71761904D01*
X119149322Y-71761887D01*
X119149322Y-71429060D01*
X118164322Y-71429060D01*
X118164322Y-72214060D01*
X118178315Y-72228053D01*
X118211800Y-72289376D01*
X118206816Y-72359068D01*
X118164944Y-72415001D01*
X118141071Y-72429012D01*
X118008848Y-72487882D01*
X118008846Y-72487883D01*
X117854345Y-72600135D01*
X117726559Y-72742057D01*
X117631073Y-72907443D01*
X117631070Y-72907450D01*
X117572059Y-73089068D01*
X117572058Y-73089072D01*
X117552096Y-73279000D01*
X117572058Y-73468928D01*
X117572059Y-73468931D01*
X117631070Y-73650549D01*
X117631073Y-73650556D01*
X117726560Y-73815944D01*
X117854347Y-73957866D01*
X118008848Y-74070118D01*
X118183312Y-74147794D01*
X118370113Y-74187500D01*
X118461539Y-74187500D01*
X118528578Y-74207185D01*
X118549220Y-74223819D01*
X118791220Y-74465819D01*
X118824705Y-74527142D01*
X118819721Y-74596834D01*
X118777849Y-74652767D01*
X118712385Y-74677184D01*
X118703539Y-74677500D01*
X116878625Y-74677500D01*
X116811586Y-74657815D01*
X116790944Y-74641181D01*
X115137018Y-72987255D01*
X115103533Y-72925932D01*
X115108517Y-72856240D01*
X115150389Y-72800307D01*
X115206745Y-72778135D01*
X115206659Y-72777771D01*
X115209190Y-72777172D01*
X115211447Y-72776285D01*
X115214201Y-72775989D01*
X115351204Y-72724889D01*
X115468261Y-72637261D01*
X115555889Y-72520204D01*
X115606989Y-72383201D01*
X115610591Y-72349692D01*
X115613499Y-72322654D01*
X115613500Y-72322637D01*
X115613500Y-72003400D01*
X115633185Y-71936361D01*
X115668609Y-71900298D01*
X115719833Y-71866071D01*
X115824000Y-71761904D01*
X116679322Y-71761904D01*
X116685723Y-71821432D01*
X116685725Y-71821439D01*
X116735967Y-71956146D01*
X116735971Y-71956153D01*
X116822131Y-72071247D01*
X116822134Y-72071250D01*
X116937228Y-72157410D01*
X116937235Y-72157414D01*
X117071942Y-72207656D01*
X117071949Y-72207658D01*
X117131477Y-72214059D01*
X117131494Y-72214060D01*
X117664322Y-72214060D01*
X117664322Y-71429060D01*
X116679322Y-71429060D01*
X116679322Y-71761904D01*
X115824000Y-71761904D01*
X116620525Y-70965379D01*
X116681848Y-70931894D01*
X116708206Y-70929060D01*
X119149322Y-70929060D01*
X119149322Y-70596232D01*
X119149321Y-70596215D01*
X119142920Y-70536687D01*
X119142919Y-70536683D01*
X119097367Y-70414553D01*
X119092383Y-70344861D01*
X119097368Y-70327884D01*
X119100209Y-70320266D01*
X119100211Y-70320264D01*
X119151311Y-70183261D01*
X119156702Y-70133118D01*
X119157821Y-70122714D01*
X119157822Y-70122697D01*
X119157822Y-69242826D01*
X119177507Y-69175787D01*
X119194141Y-69155145D01*
X120090941Y-68258345D01*
X128087500Y-68258345D01*
X128087500Y-69885654D01*
X128094011Y-69946202D01*
X128094011Y-69946204D01*
X128131618Y-70047029D01*
X128145111Y-70083204D01*
X128232739Y-70200261D01*
X128349796Y-70287889D01*
X128426183Y-70316380D01*
X128476849Y-70335278D01*
X128486799Y-70338989D01*
X128514050Y-70341918D01*
X128547345Y-70345499D01*
X128547362Y-70345500D01*
X128571009Y-70345500D01*
X128638048Y-70365185D01*
X128683803Y-70417989D01*
X128693747Y-70487147D01*
X128664722Y-70550703D01*
X128661011Y-70554048D01*
X128660656Y-70558103D01*
X129223424Y-71120871D01*
X129164147Y-71136755D01*
X129047853Y-71203898D01*
X128952898Y-71298853D01*
X128885755Y-71415147D01*
X128869871Y-71474424D01*
X128307104Y-70911657D01*
X128261293Y-70977084D01*
X128167749Y-71177690D01*
X128167745Y-71177699D01*
X128110461Y-71391490D01*
X128110459Y-71391500D01*
X128091168Y-71611999D01*
X128091168Y-71612000D01*
X128110459Y-71832499D01*
X128110461Y-71832509D01*
X128167745Y-72046300D01*
X128167749Y-72046309D01*
X128261295Y-72246919D01*
X128307103Y-72312341D01*
X128307105Y-72312342D01*
X128869871Y-71749575D01*
X128885755Y-71808853D01*
X128952898Y-71925147D01*
X129047853Y-72020102D01*
X129164147Y-72087245D01*
X129223424Y-72103128D01*
X128660656Y-72665894D01*
X128726083Y-72711706D01*
X128726085Y-72711707D01*
X128926690Y-72805250D01*
X128926699Y-72805254D01*
X129140490Y-72862538D01*
X129140500Y-72862540D01*
X129360999Y-72881832D01*
X129361001Y-72881832D01*
X129581499Y-72862540D01*
X129581509Y-72862538D01*
X129795300Y-72805254D01*
X129795309Y-72805250D01*
X129995915Y-72711706D01*
X130061342Y-72665894D01*
X129498575Y-72103127D01*
X129557853Y-72087245D01*
X129674147Y-72020102D01*
X129769102Y-71925147D01*
X129836245Y-71808853D01*
X129852128Y-71749575D01*
X130414894Y-72312342D01*
X130460706Y-72246915D01*
X130554250Y-72046309D01*
X130554254Y-72046300D01*
X130611538Y-71832509D01*
X130611540Y-71832499D01*
X130630832Y-71612000D01*
X130630832Y-71611999D01*
X130611540Y-71391500D01*
X130611538Y-71391490D01*
X130554254Y-71177699D01*
X130554250Y-71177690D01*
X130460707Y-70977085D01*
X130460706Y-70977083D01*
X130414894Y-70911657D01*
X130414894Y-70911656D01*
X129852127Y-71474423D01*
X129836245Y-71415147D01*
X129769102Y-71298853D01*
X129674147Y-71203898D01*
X129557853Y-71136755D01*
X129498575Y-71120872D01*
X130061342Y-70558105D01*
X130060339Y-70546645D01*
X130036242Y-70516498D01*
X130029049Y-70446999D01*
X130060571Y-70384645D01*
X130120801Y-70349231D01*
X130150990Y-70345500D01*
X130174638Y-70345500D01*
X130174654Y-70345499D01*
X130201692Y-70342591D01*
X130235201Y-70338989D01*
X130245151Y-70335278D01*
X130264974Y-70327884D01*
X130372204Y-70287889D01*
X130489261Y-70200261D01*
X130576889Y-70083204D01*
X130627989Y-69946201D01*
X130631591Y-69912692D01*
X130634499Y-69885654D01*
X130634500Y-69885637D01*
X130634500Y-68258362D01*
X130634499Y-68258345D01*
X130629368Y-68210627D01*
X130627989Y-68197799D01*
X130625266Y-68190499D01*
X130586217Y-68085805D01*
X130576889Y-68060796D01*
X130489261Y-67943739D01*
X130372204Y-67856111D01*
X130363378Y-67852819D01*
X130235203Y-67805011D01*
X130174654Y-67798500D01*
X130174638Y-67798500D01*
X128547362Y-67798500D01*
X128547345Y-67798500D01*
X128486797Y-67805011D01*
X128486795Y-67805011D01*
X128349795Y-67856111D01*
X128232739Y-67943739D01*
X128145111Y-68060795D01*
X128094011Y-68197795D01*
X128094011Y-68197797D01*
X128087500Y-68258345D01*
X120090941Y-68258345D01*
X121269068Y-67080218D01*
X121269071Y-67080215D01*
X121338400Y-66976457D01*
X121386155Y-66861167D01*
X121410500Y-66738776D01*
X121410500Y-66613988D01*
X121410500Y-65090756D01*
X121430185Y-65023717D01*
X121442346Y-65007788D01*
X121516040Y-64925944D01*
X121611527Y-64760556D01*
X121670542Y-64578928D01*
X121690504Y-64389000D01*
X121670542Y-64199072D01*
X121611527Y-64017444D01*
X121516040Y-63852056D01*
X121388253Y-63710134D01*
X121233752Y-63597882D01*
X121059288Y-63520206D01*
X121059286Y-63520205D01*
X120872487Y-63480500D01*
X120681513Y-63480500D01*
X120494714Y-63520205D01*
X120320246Y-63597883D01*
X120165745Y-63710135D01*
X120037959Y-63852057D01*
X119942473Y-64017443D01*
X119942470Y-64017450D01*
X119883459Y-64199068D01*
X119883458Y-64199072D01*
X119863496Y-64389000D01*
X119883458Y-64578928D01*
X119883459Y-64578931D01*
X119942470Y-64760549D01*
X119942473Y-64760556D01*
X120033000Y-64917354D01*
X120037960Y-64925944D01*
X120111649Y-65007784D01*
X120141880Y-65070775D01*
X120143500Y-65090756D01*
X120143500Y-66362616D01*
X120123815Y-66429655D01*
X120107181Y-66450297D01*
X118098237Y-68459241D01*
X118036914Y-68492726D01*
X118010556Y-68495560D01*
X117130667Y-68495560D01*
X117070119Y-68502071D01*
X117070117Y-68502071D01*
X116933117Y-68553171D01*
X116816061Y-68640799D01*
X116728433Y-68757855D01*
X116707154Y-68814905D01*
X116665282Y-68870838D01*
X116599817Y-68895254D01*
X116540540Y-68884851D01*
X116531400Y-68880782D01*
X116518609Y-68875087D01*
X116518607Y-68875086D01*
X116331808Y-68835381D01*
X116275087Y-68835381D01*
X116208048Y-68815696D01*
X116187406Y-68799062D01*
X115695842Y-68307498D01*
X115691514Y-68303170D01*
X115691512Y-68303167D01*
X115598974Y-68210630D01*
X115598970Y-68210627D01*
X115495222Y-68141304D01*
X115495213Y-68141299D01*
X115379926Y-68093546D01*
X115379918Y-68093544D01*
X115257539Y-68069201D01*
X115257535Y-68069201D01*
X114876010Y-68069201D01*
X114808971Y-68049516D01*
X114783861Y-68028174D01*
X114779955Y-68023836D01*
X114777020Y-68021703D01*
X114625453Y-67911583D01*
X114450989Y-67833907D01*
X114450987Y-67833906D01*
X114264188Y-67794201D01*
X114207468Y-67794201D01*
X114140429Y-67774516D01*
X114119787Y-67757882D01*
X113052836Y-66690931D01*
X113052832Y-66690928D01*
X112949081Y-66621603D01*
X112949072Y-66621598D01*
X112833785Y-66573845D01*
X112833777Y-66573843D01*
X112711398Y-66549500D01*
X112711394Y-66549500D01*
X107628766Y-66549500D01*
X107561727Y-66529815D01*
X107541085Y-66513181D01*
X106204220Y-65176316D01*
X106170735Y-65114993D01*
X106168583Y-65101615D01*
X106151142Y-64935672D01*
X106124806Y-64854618D01*
X106122811Y-64784777D01*
X106158891Y-64724944D01*
X106221592Y-64694116D01*
X106242737Y-64692300D01*
X106818595Y-64692300D01*
X106818596Y-64692299D01*
X106940985Y-64667955D01*
X107056275Y-64620200D01*
X107160033Y-64550871D01*
X115068906Y-56641999D01*
X120594750Y-56641999D01*
X120594750Y-56642000D01*
X120614987Y-56860396D01*
X120675011Y-57071363D01*
X120772773Y-57267695D01*
X120772778Y-57267703D01*
X120833196Y-57347709D01*
X120904956Y-57442734D01*
X121067047Y-57590499D01*
X121143701Y-57637961D01*
X121246910Y-57701866D01*
X121253529Y-57705964D01*
X121458052Y-57785197D01*
X121673653Y-57825500D01*
X121673655Y-57825500D01*
X121892985Y-57825500D01*
X121892987Y-57825500D01*
X122108588Y-57785197D01*
X122313111Y-57705964D01*
X122499593Y-57590499D01*
X122661684Y-57442734D01*
X122793863Y-57267701D01*
X122891629Y-57071361D01*
X122938472Y-56906720D01*
X122975750Y-56847629D01*
X123039059Y-56818071D01*
X123108299Y-56827432D01*
X123161486Y-56872742D01*
X123177004Y-56906721D01*
X123222970Y-57068274D01*
X123222975Y-57068287D01*
X123320031Y-57263202D01*
X123320033Y-57263204D01*
X123332307Y-57279457D01*
X123901594Y-56710171D01*
X123927283Y-56806044D01*
X123983236Y-56902956D01*
X124062364Y-56982084D01*
X124159276Y-57038037D01*
X124255147Y-57063725D01*
X123688153Y-57630719D01*
X123688153Y-57630720D01*
X123797330Y-57698321D01*
X123797334Y-57698323D01*
X124000380Y-57776983D01*
X124000390Y-57776986D01*
X124214442Y-57817000D01*
X124432198Y-57817000D01*
X124646249Y-57776986D01*
X124646259Y-57776983D01*
X124849296Y-57698326D01*
X124849309Y-57698320D01*
X124958485Y-57630719D01*
X124391493Y-57063725D01*
X124487364Y-57038037D01*
X124584276Y-56982084D01*
X124663404Y-56902956D01*
X124719357Y-56806044D01*
X124745045Y-56710172D01*
X125314331Y-57279457D01*
X125314332Y-57279457D01*
X125326604Y-57263208D01*
X125423664Y-57068287D01*
X125423670Y-57068272D01*
X125469635Y-56906722D01*
X125506914Y-56847629D01*
X125570223Y-56818071D01*
X125639463Y-56827433D01*
X125692650Y-56872743D01*
X125708167Y-56906721D01*
X125755011Y-57071361D01*
X125755012Y-57071364D01*
X125852773Y-57267695D01*
X125852778Y-57267703D01*
X125913196Y-57347709D01*
X125984956Y-57442734D01*
X126147047Y-57590499D01*
X126223701Y-57637961D01*
X126326910Y-57701866D01*
X126333529Y-57705964D01*
X126538052Y-57785197D01*
X126753653Y-57825500D01*
X126753655Y-57825500D01*
X126972985Y-57825500D01*
X126972987Y-57825500D01*
X127188588Y-57785197D01*
X127393111Y-57705964D01*
X127579593Y-57590499D01*
X127741684Y-57442734D01*
X127873863Y-57267701D01*
X127971629Y-57071361D01*
X128031652Y-56860399D01*
X128051890Y-56642000D01*
X128031652Y-56423601D01*
X127971629Y-56212639D01*
X127971628Y-56212636D01*
X127873866Y-56016304D01*
X127873861Y-56016296D01*
X127791650Y-55907432D01*
X127741684Y-55841266D01*
X127579593Y-55693501D01*
X127508577Y-55649529D01*
X127393112Y-55578036D01*
X127393110Y-55578035D01*
X127284281Y-55535875D01*
X127188588Y-55498803D01*
X126972987Y-55458500D01*
X126753653Y-55458500D01*
X126538052Y-55498803D01*
X126496437Y-55514925D01*
X126333529Y-55578035D01*
X126333527Y-55578036D01*
X126147045Y-55693502D01*
X125984957Y-55841264D01*
X125852778Y-56016296D01*
X125852773Y-56016304D01*
X125755011Y-56212637D01*
X125755008Y-56212643D01*
X125708167Y-56377277D01*
X125670888Y-56436370D01*
X125607579Y-56465928D01*
X125538339Y-56456566D01*
X125485153Y-56411257D01*
X125469635Y-56377277D01*
X125423670Y-56215727D01*
X125423664Y-56215712D01*
X125326605Y-56020794D01*
X125326604Y-56020791D01*
X125314330Y-56004540D01*
X124745045Y-56573826D01*
X124719357Y-56477956D01*
X124663404Y-56381044D01*
X124584276Y-56301916D01*
X124487364Y-56245963D01*
X124391492Y-56220274D01*
X124958486Y-55653279D01*
X124849307Y-55585677D01*
X124849305Y-55585676D01*
X124646259Y-55507016D01*
X124646249Y-55507013D01*
X124432198Y-55467000D01*
X124214442Y-55467000D01*
X124000390Y-55507013D01*
X124000389Y-55507013D01*
X123797336Y-55585676D01*
X123797335Y-55585676D01*
X123688152Y-55653279D01*
X124255148Y-56220274D01*
X124159276Y-56245963D01*
X124062364Y-56301916D01*
X123983236Y-56381044D01*
X123927283Y-56477956D01*
X123901594Y-56573827D01*
X123332307Y-56004540D01*
X123320039Y-56020785D01*
X123320031Y-56020798D01*
X123222975Y-56215712D01*
X123222970Y-56215725D01*
X123177004Y-56377278D01*
X123139725Y-56436371D01*
X123076415Y-56465928D01*
X123007175Y-56456566D01*
X122953989Y-56411256D01*
X122938472Y-56377278D01*
X122891629Y-56212639D01*
X122891628Y-56212636D01*
X122793866Y-56016304D01*
X122793861Y-56016296D01*
X122711650Y-55907432D01*
X122661684Y-55841266D01*
X122499593Y-55693501D01*
X122428577Y-55649529D01*
X122313112Y-55578036D01*
X122313110Y-55578035D01*
X122204281Y-55535875D01*
X122108588Y-55498803D01*
X121892987Y-55458500D01*
X121673653Y-55458500D01*
X121458052Y-55498803D01*
X121416437Y-55514925D01*
X121253529Y-55578035D01*
X121253527Y-55578036D01*
X121067045Y-55693502D01*
X120904957Y-55841264D01*
X120772778Y-56016296D01*
X120772773Y-56016304D01*
X120675011Y-56212636D01*
X120614987Y-56423603D01*
X120594750Y-56641999D01*
X115068906Y-56641999D01*
X117717371Y-53993534D01*
X117786700Y-53889776D01*
X117834454Y-53774486D01*
X117835929Y-53767075D01*
X117857837Y-53656931D01*
X117858799Y-53652095D01*
X117858799Y-53527307D01*
X117858799Y-53157055D01*
X117878484Y-53090016D01*
X117890645Y-53074087D01*
X117964339Y-52992243D01*
X118059826Y-52826855D01*
X118118841Y-52645227D01*
X118138803Y-52455299D01*
X118118841Y-52265371D01*
X118059826Y-52083743D01*
X117964339Y-51918355D01*
X117836552Y-51776433D01*
X117836550Y-51776431D01*
X117836547Y-51776428D01*
X117834683Y-51774749D01*
X117833918Y-51773508D01*
X117832204Y-51771604D01*
X117832552Y-51771290D01*
X117798037Y-51715260D01*
X117799372Y-51645404D01*
X117829977Y-51594925D01*
X119454071Y-49970833D01*
X119523400Y-49867075D01*
X119571155Y-49751785D01*
X119595500Y-49629394D01*
X119595500Y-49504607D01*
X119595500Y-49139195D01*
X121502622Y-49139195D01*
X121502622Y-49139198D01*
X121522576Y-49367278D01*
X121522577Y-49367286D01*
X121581834Y-49588435D01*
X121581838Y-49588446D01*
X121678595Y-49795942D01*
X121678597Y-49795946D01*
X121809922Y-49983497D01*
X121971820Y-50145395D01*
X122159371Y-50276720D01*
X122252004Y-50319915D01*
X122366870Y-50373478D01*
X122366872Y-50373478D01*
X122366877Y-50373481D01*
X122588033Y-50432740D01*
X122750952Y-50446993D01*
X122816118Y-50452695D01*
X122816120Y-50452695D01*
X122816122Y-50452695D01*
X122873141Y-50447706D01*
X123044207Y-50432740D01*
X123265363Y-50373481D01*
X123472869Y-50276720D01*
X123660420Y-50145395D01*
X123822318Y-49983497D01*
X123953643Y-49795946D01*
X124050404Y-49588440D01*
X124104381Y-49386998D01*
X128082635Y-49386998D01*
X128082635Y-49387001D01*
X128102055Y-49608980D01*
X128102057Y-49608990D01*
X128159727Y-49824219D01*
X128159732Y-49824233D01*
X128253901Y-50026179D01*
X128253907Y-50026189D01*
X128381710Y-50208710D01*
X128381719Y-50208720D01*
X128539279Y-50366280D01*
X128539289Y-50366289D01*
X128655904Y-50447944D01*
X128721817Y-50494097D01*
X128791306Y-50526500D01*
X128923766Y-50588267D01*
X128923768Y-50588267D01*
X128923773Y-50588270D01*
X128923778Y-50588271D01*
X128923780Y-50588272D01*
X128944053Y-50593704D01*
X129139014Y-50645944D01*
X129297575Y-50659816D01*
X129360998Y-50665365D01*
X129361000Y-50665365D01*
X129361002Y-50665365D01*
X129419557Y-50660242D01*
X129582986Y-50645944D01*
X129798227Y-50588270D01*
X130000183Y-50494097D01*
X130182717Y-50366284D01*
X130340284Y-50208717D01*
X130468097Y-50026183D01*
X130562270Y-49824227D01*
X130619944Y-49608986D01*
X130639365Y-49387000D01*
X130638775Y-49380261D01*
X130632338Y-49306679D01*
X130619944Y-49165014D01*
X130562270Y-48949773D01*
X130468097Y-48747818D01*
X130340284Y-48565283D01*
X130182717Y-48407716D01*
X130182712Y-48407712D01*
X130182709Y-48407710D01*
X130082546Y-48337574D01*
X130038921Y-48282997D01*
X130031729Y-48213499D01*
X130063252Y-48151144D01*
X130123482Y-48115731D01*
X130153670Y-48112000D01*
X130173828Y-48112000D01*
X130173844Y-48111999D01*
X130233372Y-48105598D01*
X130233379Y-48105596D01*
X130368086Y-48055354D01*
X130368093Y-48055350D01*
X130483187Y-47969190D01*
X130483190Y-47969187D01*
X130569350Y-47854093D01*
X130569354Y-47854086D01*
X130619596Y-47719379D01*
X130619598Y-47719372D01*
X130625999Y-47659844D01*
X130626000Y-47659827D01*
X130626000Y-47097000D01*
X129805560Y-47097000D01*
X129836245Y-47043853D01*
X129871000Y-46914143D01*
X129871000Y-46779857D01*
X129836245Y-46650147D01*
X129805560Y-46597000D01*
X130626000Y-46597000D01*
X130626000Y-46034172D01*
X130625999Y-46034155D01*
X130619598Y-45974627D01*
X130619596Y-45974620D01*
X130569354Y-45839913D01*
X130569350Y-45839906D01*
X130483190Y-45724812D01*
X130483187Y-45724809D01*
X130368093Y-45638649D01*
X130368086Y-45638645D01*
X130233379Y-45588403D01*
X130233372Y-45588401D01*
X130173844Y-45582000D01*
X129611000Y-45582000D01*
X129611000Y-46402439D01*
X129557853Y-46371755D01*
X129428143Y-46337000D01*
X129293857Y-46337000D01*
X129164147Y-46371755D01*
X129111000Y-46402439D01*
X129111000Y-45582000D01*
X128548155Y-45582000D01*
X128488627Y-45588401D01*
X128488620Y-45588403D01*
X128353913Y-45638645D01*
X128353906Y-45638649D01*
X128238812Y-45724809D01*
X128238809Y-45724812D01*
X128152649Y-45839906D01*
X128152645Y-45839913D01*
X128102403Y-45974620D01*
X128102401Y-45974627D01*
X128096000Y-46034155D01*
X128096000Y-46597000D01*
X128916440Y-46597000D01*
X128885755Y-46650147D01*
X128851000Y-46779857D01*
X128851000Y-46914143D01*
X128885755Y-47043853D01*
X128916440Y-47097000D01*
X128096000Y-47097000D01*
X128096000Y-47659844D01*
X128102401Y-47719372D01*
X128102403Y-47719379D01*
X128152645Y-47854086D01*
X128152649Y-47854093D01*
X128238809Y-47969187D01*
X128238812Y-47969190D01*
X128353906Y-48055350D01*
X128353913Y-48055354D01*
X128488620Y-48105596D01*
X128488627Y-48105598D01*
X128548155Y-48111999D01*
X128548172Y-48112000D01*
X128568331Y-48112000D01*
X128635370Y-48131685D01*
X128681125Y-48184489D01*
X128691069Y-48253647D01*
X128662044Y-48317203D01*
X128639455Y-48337574D01*
X128539282Y-48407716D01*
X128381716Y-48565282D01*
X128253907Y-48747811D01*
X128253903Y-48747817D01*
X128159731Y-48949771D01*
X128159727Y-48949780D01*
X128102057Y-49165009D01*
X128102055Y-49165019D01*
X128082635Y-49386998D01*
X124104381Y-49386998D01*
X124109663Y-49367284D01*
X124129618Y-49139197D01*
X124109663Y-48911110D01*
X124050404Y-48689954D01*
X124045016Y-48678400D01*
X123985070Y-48549844D01*
X123953643Y-48482448D01*
X123953641Y-48482445D01*
X123953640Y-48482443D01*
X123943830Y-48468433D01*
X123921503Y-48402227D01*
X123938513Y-48334460D01*
X123971097Y-48298041D01*
X123973310Y-48296384D01*
X123973310Y-48296383D01*
X124059472Y-48181285D01*
X124059474Y-48181283D01*
X124109716Y-48046576D01*
X124109718Y-48046569D01*
X124116119Y-47987041D01*
X124116120Y-47987024D01*
X124116120Y-47389197D01*
X123131806Y-47389197D01*
X123136200Y-47384803D01*
X123188861Y-47293591D01*
X123216120Y-47191858D01*
X123216120Y-47086536D01*
X123188861Y-46984803D01*
X123136200Y-46893591D01*
X123131806Y-46889197D01*
X124116120Y-46889197D01*
X124116120Y-46291369D01*
X124116119Y-46291352D01*
X124109718Y-46231824D01*
X124109716Y-46231817D01*
X124059474Y-46097110D01*
X124059470Y-46097103D01*
X123973310Y-45982009D01*
X123973307Y-45982006D01*
X123858213Y-45895846D01*
X123858206Y-45895842D01*
X123723499Y-45845600D01*
X123723492Y-45845598D01*
X123663964Y-45839197D01*
X123066120Y-45839197D01*
X123066120Y-46823511D01*
X123061726Y-46819117D01*
X122970514Y-46766456D01*
X122868781Y-46739197D01*
X122763459Y-46739197D01*
X122661726Y-46766456D01*
X122570514Y-46819117D01*
X122566120Y-46823511D01*
X122566120Y-45839197D01*
X121968275Y-45839197D01*
X121908747Y-45845598D01*
X121908740Y-45845600D01*
X121774033Y-45895842D01*
X121774026Y-45895846D01*
X121658932Y-45982006D01*
X121658929Y-45982009D01*
X121572769Y-46097103D01*
X121572765Y-46097110D01*
X121522523Y-46231817D01*
X121522521Y-46231824D01*
X121516120Y-46291352D01*
X121516120Y-46889197D01*
X122500434Y-46889197D01*
X122496040Y-46893591D01*
X122443379Y-46984803D01*
X122416120Y-47086536D01*
X122416120Y-47191858D01*
X122443379Y-47293591D01*
X122496040Y-47384803D01*
X122500434Y-47389197D01*
X121516120Y-47389197D01*
X121516120Y-47987041D01*
X121522521Y-48046569D01*
X121522523Y-48046576D01*
X121572765Y-48181283D01*
X121572769Y-48181290D01*
X121658928Y-48296382D01*
X121658934Y-48296389D01*
X121661149Y-48298047D01*
X121662806Y-48300261D01*
X121665205Y-48302660D01*
X121664860Y-48303004D01*
X121703018Y-48353982D01*
X121707999Y-48423674D01*
X121688412Y-48468430D01*
X121678597Y-48482447D01*
X121678594Y-48482453D01*
X121581838Y-48689947D01*
X121581834Y-48689958D01*
X121522577Y-48911107D01*
X121522576Y-48911115D01*
X121502622Y-49139195D01*
X119595500Y-49139195D01*
X119595500Y-45484301D01*
X119571155Y-45361910D01*
X119523400Y-45246620D01*
X119523399Y-45246619D01*
X119523396Y-45246613D01*
X119454072Y-45142863D01*
X119412422Y-45101213D01*
X119365833Y-45054624D01*
X118222390Y-43911181D01*
X118188905Y-43849858D01*
X118193889Y-43780166D01*
X118235761Y-43724233D01*
X118301225Y-43699816D01*
X118310071Y-43699500D01*
X118530638Y-43699500D01*
X118530654Y-43699499D01*
X118557692Y-43696591D01*
X118591201Y-43692989D01*
X118596537Y-43690999D01*
X118613703Y-43684596D01*
X118728204Y-43641889D01*
X118845261Y-43554261D01*
X118932889Y-43437204D01*
X118983989Y-43300201D01*
X118988161Y-43261394D01*
X118990499Y-43239654D01*
X118990500Y-43239637D01*
X118990500Y-43238844D01*
X120032000Y-43238844D01*
X120038401Y-43298372D01*
X120038403Y-43298379D01*
X120088645Y-43433086D01*
X120088649Y-43433093D01*
X120174809Y-43548187D01*
X120174812Y-43548190D01*
X120289906Y-43634350D01*
X120289913Y-43634354D01*
X120424620Y-43684596D01*
X120424627Y-43684598D01*
X120484155Y-43690999D01*
X120484172Y-43691000D01*
X120807000Y-43691000D01*
X121307000Y-43691000D01*
X121629828Y-43691000D01*
X121629844Y-43690999D01*
X121689372Y-43684598D01*
X121689379Y-43684596D01*
X121824086Y-43634354D01*
X121824093Y-43634350D01*
X121939187Y-43548190D01*
X121939190Y-43548187D01*
X122025350Y-43433093D01*
X122025354Y-43433086D01*
X122075596Y-43298379D01*
X122075598Y-43298372D01*
X122081999Y-43238844D01*
X122082000Y-43238827D01*
X122082000Y-42541000D01*
X121307000Y-42541000D01*
X121307000Y-43691000D01*
X120807000Y-43691000D01*
X120807000Y-42541000D01*
X120032000Y-42541000D01*
X120032000Y-43238844D01*
X118990500Y-43238844D01*
X118990500Y-41342362D01*
X118990499Y-41342348D01*
X118985597Y-41296757D01*
X118998001Y-41227997D01*
X119045611Y-41176859D01*
X119108886Y-41159500D01*
X119268438Y-41159500D01*
X119268454Y-41159499D01*
X119295492Y-41156591D01*
X119329001Y-41152989D01*
X119466004Y-41101889D01*
X119583061Y-41014261D01*
X119670689Y-40897204D01*
X119711966Y-40786538D01*
X119718148Y-40769965D01*
X119760020Y-40714032D01*
X119825484Y-40689616D01*
X119834329Y-40689300D01*
X120295280Y-40689300D01*
X120362319Y-40708985D01*
X120408074Y-40761789D01*
X120418018Y-40830947D01*
X120388993Y-40894503D01*
X120338613Y-40929482D01*
X120289913Y-40947645D01*
X120289906Y-40947649D01*
X120174812Y-41033809D01*
X120174809Y-41033812D01*
X120088649Y-41148906D01*
X120088645Y-41148913D01*
X120038403Y-41283620D01*
X120038401Y-41283627D01*
X120032000Y-41343155D01*
X120032000Y-42041000D01*
X122082000Y-42041000D01*
X122082000Y-41343172D01*
X122081999Y-41343155D01*
X122075598Y-41283627D01*
X122075596Y-41283620D01*
X122025354Y-41148914D01*
X122023561Y-41145630D01*
X122022764Y-41141969D01*
X122022254Y-41140601D01*
X122022450Y-41140527D01*
X122008705Y-41077358D01*
X122033119Y-41011892D01*
X122089050Y-40970018D01*
X122148644Y-40965615D01*
X122148854Y-40963621D01*
X122155312Y-40964300D01*
X122155313Y-40964300D01*
X122346287Y-40964300D01*
X122533088Y-40924594D01*
X122707552Y-40846918D01*
X122862053Y-40734666D01*
X122989840Y-40592744D01*
X123085327Y-40427356D01*
X123144342Y-40245728D01*
X123161781Y-40079799D01*
X123188364Y-40015188D01*
X123197411Y-40005092D01*
X123378285Y-39824219D01*
X123439608Y-39790734D01*
X123465966Y-39787900D01*
X124500838Y-39787900D01*
X124500854Y-39787899D01*
X124527892Y-39784991D01*
X124561401Y-39781389D01*
X124698404Y-39730289D01*
X124815461Y-39642661D01*
X124903089Y-39525604D01*
X124954189Y-39388601D01*
X124959023Y-39343636D01*
X124960699Y-39328054D01*
X124960700Y-39328037D01*
X124960700Y-39318345D01*
X128012500Y-39318345D01*
X128012500Y-40945654D01*
X128019011Y-41006202D01*
X128019011Y-41006204D01*
X128069140Y-41140601D01*
X128070111Y-41143204D01*
X128157739Y-41260261D01*
X128274796Y-41347889D01*
X128411799Y-41398989D01*
X128439050Y-41401918D01*
X128472345Y-41405499D01*
X128472362Y-41405500D01*
X128496009Y-41405500D01*
X128563048Y-41425185D01*
X128608803Y-41477989D01*
X128618747Y-41547147D01*
X128589722Y-41610703D01*
X128586011Y-41614048D01*
X128585656Y-41618103D01*
X129148424Y-42180871D01*
X129089147Y-42196755D01*
X128972853Y-42263898D01*
X128877898Y-42358853D01*
X128810755Y-42475147D01*
X128794871Y-42534424D01*
X128232104Y-41971657D01*
X128186293Y-42037084D01*
X128092749Y-42237690D01*
X128092745Y-42237699D01*
X128035461Y-42451490D01*
X128035459Y-42451500D01*
X128016168Y-42671999D01*
X128016168Y-42672000D01*
X128035459Y-42892499D01*
X128035461Y-42892509D01*
X128092745Y-43106300D01*
X128092749Y-43106309D01*
X128186295Y-43306919D01*
X128232103Y-43372341D01*
X128232105Y-43372342D01*
X128794871Y-42809575D01*
X128810755Y-42868853D01*
X128877898Y-42985147D01*
X128972853Y-43080102D01*
X129089147Y-43147245D01*
X129148424Y-43163128D01*
X128585656Y-43725894D01*
X128651083Y-43771706D01*
X128651085Y-43771707D01*
X128851690Y-43865250D01*
X128851699Y-43865254D01*
X129065490Y-43922538D01*
X129065500Y-43922540D01*
X129285999Y-43941832D01*
X129286001Y-43941832D01*
X129506499Y-43922540D01*
X129506509Y-43922538D01*
X129720300Y-43865254D01*
X129720309Y-43865250D01*
X129920915Y-43771706D01*
X129986342Y-43725894D01*
X129423575Y-43163127D01*
X129482853Y-43147245D01*
X129599147Y-43080102D01*
X129694102Y-42985147D01*
X129761245Y-42868853D01*
X129777128Y-42809575D01*
X130339894Y-43372342D01*
X130385706Y-43306915D01*
X130479250Y-43106309D01*
X130479254Y-43106300D01*
X130536538Y-42892509D01*
X130536540Y-42892499D01*
X130555832Y-42672000D01*
X130555832Y-42671999D01*
X130536540Y-42451500D01*
X130536538Y-42451490D01*
X130479254Y-42237699D01*
X130479250Y-42237690D01*
X130385707Y-42037085D01*
X130385706Y-42037083D01*
X130339894Y-41971657D01*
X130339894Y-41971656D01*
X129777127Y-42534423D01*
X129761245Y-42475147D01*
X129694102Y-42358853D01*
X129599147Y-42263898D01*
X129482853Y-42196755D01*
X129423575Y-42180872D01*
X129986342Y-41618105D01*
X129985339Y-41606645D01*
X129961242Y-41576498D01*
X129954049Y-41506999D01*
X129985571Y-41444645D01*
X130045801Y-41409231D01*
X130075990Y-41405500D01*
X130099638Y-41405500D01*
X130099654Y-41405499D01*
X130126692Y-41402591D01*
X130160201Y-41398989D01*
X130297204Y-41347889D01*
X130414261Y-41260261D01*
X130501889Y-41143204D01*
X130552989Y-41006201D01*
X130557139Y-40967599D01*
X130559499Y-40945654D01*
X130559500Y-40945637D01*
X130559500Y-39318362D01*
X130559499Y-39318345D01*
X130554466Y-39271538D01*
X130552989Y-39257799D01*
X130551692Y-39254322D01*
X130515127Y-39156289D01*
X130501889Y-39120796D01*
X130414261Y-39003739D01*
X130297204Y-38916111D01*
X130160203Y-38865011D01*
X130099654Y-38858500D01*
X130099638Y-38858500D01*
X128472362Y-38858500D01*
X128472345Y-38858500D01*
X128411797Y-38865011D01*
X128411795Y-38865011D01*
X128274795Y-38916111D01*
X128157739Y-39003739D01*
X128070111Y-39120795D01*
X128019011Y-39257795D01*
X128019011Y-39257797D01*
X128012500Y-39318345D01*
X124960700Y-39318345D01*
X124960700Y-38293166D01*
X124980385Y-38226127D01*
X124997019Y-38205485D01*
X125333068Y-37869436D01*
X125333071Y-37869433D01*
X125402400Y-37765675D01*
X125450155Y-37650385D01*
X125474500Y-37527994D01*
X125474500Y-37407575D01*
X125494185Y-37340536D01*
X125546989Y-37294781D01*
X125616147Y-37284837D01*
X125648929Y-37294293D01*
X125701712Y-37317794D01*
X125888513Y-37357500D01*
X125945233Y-37357500D01*
X126012272Y-37377185D01*
X126032914Y-37393819D01*
X126418361Y-37779267D01*
X126418368Y-37779273D01*
X126522123Y-37848599D01*
X126522124Y-37848599D01*
X126522125Y-37848600D01*
X126637415Y-37896355D01*
X126687692Y-37906355D01*
X126749601Y-37938738D01*
X126784176Y-37999453D01*
X126787500Y-38027972D01*
X126787500Y-38070854D01*
X126794011Y-38131402D01*
X126794011Y-38131404D01*
X126842660Y-38261834D01*
X126845111Y-38268404D01*
X126932739Y-38385461D01*
X127049796Y-38473089D01*
X127130309Y-38503119D01*
X127181463Y-38522199D01*
X127186799Y-38524189D01*
X127214050Y-38527118D01*
X127247345Y-38530699D01*
X127247362Y-38530700D01*
X128414638Y-38530700D01*
X128414654Y-38530699D01*
X128441692Y-38527791D01*
X128475201Y-38524189D01*
X128480537Y-38522199D01*
X128531691Y-38503119D01*
X128612204Y-38473089D01*
X128612206Y-38473087D01*
X128619824Y-38470246D01*
X128689516Y-38465260D01*
X128706493Y-38470245D01*
X128828623Y-38515797D01*
X128828627Y-38515798D01*
X128888155Y-38522199D01*
X128888172Y-38522200D01*
X129221000Y-38522200D01*
X129721000Y-38522200D01*
X130053828Y-38522200D01*
X130053844Y-38522199D01*
X130113372Y-38515798D01*
X130113379Y-38515796D01*
X130248086Y-38465554D01*
X130248093Y-38465550D01*
X130363187Y-38379390D01*
X130363190Y-38379387D01*
X130449350Y-38264293D01*
X130449354Y-38264286D01*
X130499596Y-38129579D01*
X130499598Y-38129572D01*
X130505999Y-38070044D01*
X130506000Y-38070027D01*
X130506000Y-37537200D01*
X129721000Y-37537200D01*
X129721000Y-38522200D01*
X129221000Y-38522200D01*
X129221000Y-37037200D01*
X129721000Y-37037200D01*
X130506000Y-37037200D01*
X130506000Y-36504372D01*
X130505999Y-36504355D01*
X130499598Y-36444827D01*
X130499596Y-36444820D01*
X130449354Y-36310113D01*
X130449350Y-36310106D01*
X130363190Y-36195012D01*
X130363187Y-36195009D01*
X130248093Y-36108849D01*
X130248086Y-36108845D01*
X130113379Y-36058603D01*
X130113372Y-36058601D01*
X130053844Y-36052200D01*
X129721000Y-36052200D01*
X129721000Y-37037200D01*
X129221000Y-37037200D01*
X129221000Y-36052200D01*
X128888155Y-36052200D01*
X128828627Y-36058601D01*
X128828619Y-36058603D01*
X128706491Y-36104154D01*
X128636799Y-36109138D01*
X128619823Y-36104153D01*
X128475203Y-36050211D01*
X128414654Y-36043700D01*
X128414638Y-36043700D01*
X127247362Y-36043700D01*
X127247345Y-36043700D01*
X127186797Y-36050211D01*
X127186795Y-36050211D01*
X127049793Y-36101311D01*
X127049793Y-36101312D01*
X127008699Y-36132075D01*
X126943235Y-36156492D01*
X126874962Y-36141640D01*
X126825557Y-36092235D01*
X126821112Y-36083250D01*
X126818528Y-36077448D01*
X126818527Y-36077444D01*
X126723040Y-35912056D01*
X126595253Y-35770134D01*
X126440752Y-35657882D01*
X126266288Y-35580206D01*
X126266286Y-35580205D01*
X126079487Y-35540500D01*
X125888513Y-35540500D01*
X125701713Y-35580205D01*
X125701706Y-35580207D01*
X125648933Y-35603703D01*
X125579683Y-35612987D01*
X125516407Y-35583357D01*
X125479195Y-35524222D01*
X125474500Y-35490423D01*
X125474500Y-35405400D01*
X125494185Y-35338361D01*
X125546989Y-35292606D01*
X125598500Y-35281400D01*
X126089600Y-35281400D01*
X126589600Y-35281400D01*
X127122428Y-35281400D01*
X127122444Y-35281399D01*
X127181972Y-35274998D01*
X127181979Y-35274996D01*
X127316686Y-35224754D01*
X127316693Y-35224750D01*
X127431787Y-35138590D01*
X127431790Y-35138587D01*
X127517950Y-35023493D01*
X127517954Y-35023486D01*
X127568196Y-34888779D01*
X127568198Y-34888772D01*
X127574599Y-34829244D01*
X127574600Y-34829227D01*
X127574600Y-34496400D01*
X126589600Y-34496400D01*
X126589600Y-35281400D01*
X126089600Y-35281400D01*
X126089600Y-34120400D01*
X126109285Y-34053361D01*
X126162089Y-34007606D01*
X126213600Y-33996400D01*
X127574600Y-33996400D01*
X127574600Y-33663572D01*
X127574599Y-33663555D01*
X127568198Y-33604027D01*
X127568197Y-33604023D01*
X127522645Y-33481893D01*
X127517661Y-33412201D01*
X127522646Y-33395224D01*
X127525487Y-33387606D01*
X127525489Y-33387604D01*
X127574871Y-33255207D01*
X127576588Y-33250604D01*
X127576588Y-33250603D01*
X127576589Y-33250601D01*
X127581526Y-33204680D01*
X127583099Y-33190054D01*
X127583100Y-33190037D01*
X127583100Y-32022762D01*
X127583099Y-32022745D01*
X127576836Y-31964500D01*
X127576589Y-31962199D01*
X127575367Y-31958923D01*
X127542971Y-31872066D01*
X127525489Y-31825196D01*
X127437861Y-31708139D01*
X127320804Y-31620511D01*
X127304345Y-31614372D01*
X127183803Y-31569411D01*
X127123254Y-31562900D01*
X127123238Y-31562900D01*
X126243366Y-31562900D01*
X126176327Y-31543215D01*
X126155685Y-31526581D01*
X126108626Y-31479522D01*
X126075141Y-31418199D01*
X126072986Y-31378882D01*
X126084704Y-31267400D01*
X126064742Y-31077472D01*
X126005727Y-30895844D01*
X125910240Y-30730456D01*
X125782453Y-30588534D01*
X125627952Y-30476282D01*
X125453488Y-30398606D01*
X125453486Y-30398605D01*
X125266687Y-30358900D01*
X125075713Y-30358900D01*
X124888914Y-30398605D01*
X124714446Y-30476283D01*
X124559945Y-30588535D01*
X124432159Y-30730457D01*
X124336673Y-30895843D01*
X124336670Y-30895850D01*
X124311569Y-30973104D01*
X124277658Y-31077472D01*
X124257696Y-31267400D01*
X124277658Y-31457328D01*
X124277659Y-31457331D01*
X124336670Y-31638949D01*
X124336673Y-31638956D01*
X124370090Y-31696836D01*
X124386563Y-31764737D01*
X124363710Y-31830763D01*
X124308789Y-31873954D01*
X124239235Y-31880595D01*
X124188393Y-31858103D01*
X124082204Y-31778611D01*
X123945203Y-31727511D01*
X123884654Y-31721000D01*
X123884638Y-31721000D01*
X121987362Y-31721000D01*
X121987345Y-31721000D01*
X121926797Y-31727511D01*
X121926795Y-31727511D01*
X121789793Y-31778611D01*
X121728858Y-31824227D01*
X121663394Y-31848643D01*
X121595121Y-31833791D01*
X121580238Y-31824226D01*
X121564989Y-31812811D01*
X121466004Y-31738711D01*
X121435976Y-31727511D01*
X121329003Y-31687611D01*
X121268454Y-31681100D01*
X121268438Y-31681100D01*
X119371162Y-31681100D01*
X119371145Y-31681100D01*
X119310597Y-31687611D01*
X119310592Y-31687612D01*
X119254809Y-31708419D01*
X119185118Y-31713404D01*
X119123794Y-31679920D01*
X119090309Y-31618597D01*
X119088186Y-31605494D01*
X119084598Y-31572127D01*
X119084596Y-31572120D01*
X119034354Y-31437413D01*
X119034350Y-31437406D01*
X118948190Y-31322312D01*
X118948187Y-31322309D01*
X118833093Y-31236149D01*
X118833086Y-31236145D01*
X118698379Y-31185903D01*
X118698372Y-31185901D01*
X118638844Y-31179500D01*
X118106000Y-31179500D01*
X118106000Y-32340500D01*
X118086315Y-32407539D01*
X118033511Y-32453294D01*
X117982000Y-32464500D01*
X116621000Y-32464500D01*
X116621000Y-32797344D01*
X116627401Y-32856872D01*
X116627403Y-32856880D01*
X116672953Y-32979006D01*
X116677937Y-33048698D01*
X116672953Y-33065672D01*
X116625030Y-33194159D01*
X116583159Y-33250093D01*
X116534631Y-33272116D01*
X116430712Y-33294205D01*
X116256244Y-33371884D01*
X116101745Y-33484135D01*
X115973959Y-33626057D01*
X115878473Y-33791443D01*
X115878470Y-33791450D01*
X115819459Y-33973068D01*
X115819458Y-33973072D01*
X115799496Y-34163000D01*
X115819458Y-34352928D01*
X115819459Y-34352931D01*
X115878470Y-34534549D01*
X115878473Y-34534556D01*
X115973960Y-34699944D01*
X116052895Y-34787610D01*
X116101127Y-34841178D01*
X116101747Y-34841866D01*
X116256248Y-34954118D01*
X116430712Y-35031794D01*
X116617513Y-35071500D01*
X116808487Y-35071500D01*
X116995288Y-35031794D01*
X117169752Y-34954118D01*
X117174301Y-34950812D01*
X117214397Y-34921682D01*
X117280203Y-34898202D01*
X117287282Y-34898000D01*
X118639638Y-34898000D01*
X118639654Y-34897999D01*
X118666692Y-34895091D01*
X118700201Y-34891489D01*
X118707486Y-34888772D01*
X118714787Y-34886048D01*
X118835089Y-34841177D01*
X118904777Y-34836192D01*
X118966101Y-34869677D01*
X118999587Y-34930999D01*
X118994603Y-35000691D01*
X118977691Y-35031666D01*
X118968911Y-35043394D01*
X118917811Y-35180395D01*
X118917811Y-35180397D01*
X118911300Y-35240945D01*
X118911300Y-35986434D01*
X118891615Y-36053473D01*
X118838811Y-36099228D01*
X118813081Y-36107724D01*
X118665914Y-36139005D01*
X118491446Y-36216683D01*
X118336945Y-36328935D01*
X118209159Y-36470857D01*
X118113673Y-36636243D01*
X118113670Y-36636249D01*
X118094576Y-36695018D01*
X118055139Y-36752693D01*
X117990780Y-36779892D01*
X117976645Y-36780700D01*
X113145401Y-36780700D01*
X113023022Y-36805043D01*
X113023014Y-36805045D01*
X112907727Y-36852798D01*
X112907718Y-36852803D01*
X112803967Y-36922128D01*
X112803963Y-36922131D01*
X112545929Y-37180165D01*
X112484606Y-37213650D01*
X112414914Y-37208666D01*
X112366098Y-37175456D01*
X112244254Y-37040135D01*
X112240214Y-37037200D01*
X112089752Y-36927882D01*
X112089751Y-36927881D01*
X111979967Y-36879002D01*
X111926730Y-36833752D01*
X111906409Y-36766903D01*
X111914222Y-36722388D01*
X111923988Y-36696204D01*
X111923988Y-36696203D01*
X111923989Y-36696201D01*
X111927591Y-36662692D01*
X111930499Y-36635654D01*
X111930500Y-36635637D01*
X111930500Y-34738362D01*
X111930499Y-34738345D01*
X111926370Y-34699944D01*
X111923989Y-34677799D01*
X111872889Y-34540796D01*
X111785261Y-34423739D01*
X111668204Y-34336111D01*
X111611165Y-34314836D01*
X111555232Y-34272964D01*
X111530816Y-34207500D01*
X111530500Y-34198655D01*
X111530500Y-33628285D01*
X111530499Y-33628281D01*
X111530056Y-33626056D01*
X111506155Y-33505895D01*
X111474091Y-33428488D01*
X111466623Y-33359020D01*
X111468875Y-33348955D01*
X111494944Y-33251666D01*
X111514365Y-33029680D01*
X111494944Y-32807694D01*
X111437270Y-32592453D01*
X111343097Y-32390498D01*
X111215284Y-32207963D01*
X111182510Y-32175189D01*
X111149025Y-32113866D01*
X111154009Y-32044174D01*
X111195881Y-31988241D01*
X111226858Y-31971326D01*
X111283086Y-31950354D01*
X111283093Y-31950350D01*
X111398187Y-31864190D01*
X111398190Y-31864187D01*
X111484350Y-31749093D01*
X111484354Y-31749086D01*
X111528153Y-31631655D01*
X116621000Y-31631655D01*
X116621000Y-31964500D01*
X117606000Y-31964500D01*
X117606000Y-31179500D01*
X117073155Y-31179500D01*
X117013627Y-31185901D01*
X117013620Y-31185903D01*
X116878913Y-31236145D01*
X116878906Y-31236149D01*
X116763812Y-31322309D01*
X116763809Y-31322312D01*
X116677649Y-31437406D01*
X116677645Y-31437413D01*
X116627403Y-31572120D01*
X116627401Y-31572127D01*
X116621000Y-31631655D01*
X111528153Y-31631655D01*
X111534596Y-31614379D01*
X111534598Y-31614372D01*
X111540999Y-31554844D01*
X111541000Y-31554827D01*
X111541000Y-30857000D01*
X109491000Y-30857000D01*
X109491000Y-31554844D01*
X109497401Y-31614372D01*
X109497403Y-31614379D01*
X109547645Y-31749086D01*
X109547647Y-31749089D01*
X109573061Y-31783038D01*
X109597478Y-31848503D01*
X109582626Y-31916776D01*
X109544918Y-31958923D01*
X109414282Y-32050396D01*
X109256716Y-32207962D01*
X109128907Y-32390491D01*
X109128903Y-32390497D01*
X109078382Y-32498841D01*
X109032210Y-32551280D01*
X108965016Y-32570432D01*
X108898135Y-32550216D01*
X108853618Y-32498841D01*
X108803097Y-32390498D01*
X108675284Y-32207963D01*
X108517717Y-32050396D01*
X108394045Y-31963799D01*
X108350422Y-31909223D01*
X108343230Y-31839725D01*
X108365905Y-31787915D01*
X108391887Y-31753207D01*
X108391888Y-31753206D01*
X108391890Y-31753202D01*
X108434504Y-31638949D01*
X108442988Y-31616204D01*
X108442988Y-31616203D01*
X108442989Y-31616201D01*
X108446591Y-31582692D01*
X108449499Y-31555654D01*
X108449500Y-31555637D01*
X108449500Y-29658362D01*
X108449499Y-29658345D01*
X108446157Y-29627270D01*
X108442989Y-29597799D01*
X108427691Y-29556785D01*
X108423048Y-29544335D01*
X108418062Y-29474643D01*
X108451547Y-29413320D01*
X108512870Y-29379834D01*
X108539229Y-29377000D01*
X109401842Y-29377000D01*
X109468881Y-29396685D01*
X109514636Y-29449489D01*
X109524580Y-29518647D01*
X109518024Y-29544333D01*
X109497403Y-29599620D01*
X109497401Y-29599627D01*
X109491000Y-29659155D01*
X109491000Y-30357000D01*
X111541000Y-30357000D01*
X111541000Y-30255711D01*
X128420500Y-30255711D01*
X128420500Y-30498288D01*
X128452161Y-30738785D01*
X128514947Y-30973104D01*
X128558178Y-31077472D01*
X128607776Y-31197212D01*
X128729064Y-31407289D01*
X128729066Y-31407292D01*
X128729067Y-31407293D01*
X128876733Y-31599736D01*
X128876739Y-31599743D01*
X129048256Y-31771260D01*
X129048263Y-31771266D01*
X129118545Y-31825195D01*
X129240711Y-31918936D01*
X129450788Y-32040224D01*
X129674900Y-32133054D01*
X129909211Y-32195838D01*
X130068702Y-32216835D01*
X130149711Y-32227500D01*
X130149712Y-32227500D01*
X130392289Y-32227500D01*
X130440719Y-32221124D01*
X130632789Y-32195838D01*
X130867100Y-32133054D01*
X131091212Y-32040224D01*
X131301289Y-31918936D01*
X131493738Y-31771265D01*
X131665265Y-31599738D01*
X131812936Y-31407289D01*
X131934224Y-31197212D01*
X132027054Y-30973100D01*
X132089838Y-30738789D01*
X132121500Y-30498288D01*
X132121500Y-30255712D01*
X132089838Y-30015211D01*
X132027054Y-29780900D01*
X131934224Y-29556788D01*
X131812936Y-29346711D01*
X131747067Y-29260869D01*
X131665266Y-29154263D01*
X131665260Y-29154256D01*
X131493743Y-28982739D01*
X131493736Y-28982733D01*
X131301293Y-28835067D01*
X131301292Y-28835066D01*
X131301289Y-28835064D01*
X131091212Y-28713776D01*
X131091205Y-28713773D01*
X130867104Y-28620947D01*
X130632785Y-28558161D01*
X130392289Y-28526500D01*
X130392288Y-28526500D01*
X130149712Y-28526500D01*
X130149711Y-28526500D01*
X129909214Y-28558161D01*
X129674895Y-28620947D01*
X129450794Y-28713773D01*
X129450785Y-28713777D01*
X129240706Y-28835067D01*
X129048263Y-28982733D01*
X129048256Y-28982739D01*
X128876739Y-29154256D01*
X128876733Y-29154263D01*
X128729067Y-29346706D01*
X128607777Y-29556785D01*
X128607773Y-29556794D01*
X128514947Y-29780895D01*
X128452161Y-30015214D01*
X128420500Y-30255711D01*
X111541000Y-30255711D01*
X111541000Y-29659172D01*
X111540999Y-29659155D01*
X111534598Y-29599627D01*
X111534596Y-29599620D01*
X111513976Y-29544333D01*
X111508992Y-29474641D01*
X111542477Y-29413318D01*
X111603800Y-29379834D01*
X111630158Y-29377000D01*
X119199926Y-29377000D01*
X119199932Y-29377000D01*
X119418136Y-29374672D01*
X119852883Y-29336642D01*
X120209431Y-29273776D01*
X120282639Y-29260869D01*
X120282640Y-29260868D01*
X120282661Y-29260865D01*
X120704199Y-29147918D01*
X121114288Y-28998660D01*
X121509808Y-28814227D01*
X121887748Y-28596024D01*
X122245232Y-28345711D01*
X122579539Y-28065193D01*
X122735466Y-27912534D01*
X122806132Y-27841867D01*
X122806967Y-27841042D01*
X122806998Y-27841012D01*
X122959054Y-27692116D01*
X122966080Y-27685746D01*
X123292615Y-27411749D01*
X123301174Y-27405180D01*
X123649826Y-27161051D01*
X123658920Y-27155258D01*
X124027505Y-26942456D01*
X124037084Y-26937470D01*
X124422813Y-26757603D01*
X124432768Y-26753480D01*
X124832711Y-26607915D01*
X124843019Y-26604665D01*
X125254131Y-26494511D01*
X125264650Y-26492179D01*
X125683791Y-26418277D01*
X125694496Y-26416868D01*
X126119141Y-26379722D01*
X126128598Y-26379258D01*
X126341406Y-26377006D01*
X126342718Y-26377000D01*
X130270213Y-26377000D01*
X130271733Y-26377008D01*
X130462077Y-26379343D01*
X130472681Y-26379930D01*
X130852224Y-26417312D01*
X130864249Y-26419096D01*
X131237527Y-26493345D01*
X131249329Y-26496301D01*
X131613544Y-26606785D01*
X131625002Y-26610885D01*
X131976627Y-26756532D01*
X131987626Y-26761734D01*
X132323282Y-26941147D01*
X132333713Y-26947399D01*
X132650169Y-27158849D01*
X132659942Y-27166097D01*
X132951340Y-27405240D01*
X132954148Y-27407544D01*
X132963165Y-27415717D01*
X133232282Y-27684834D01*
X133240455Y-27693851D01*
X133481902Y-27988057D01*
X133489150Y-27997830D01*
X133700600Y-28314286D01*
X133706856Y-28324724D01*
X133886264Y-28660372D01*
X133891467Y-28671372D01*
X134037114Y-29022997D01*
X134041214Y-29034455D01*
X134151698Y-29398670D01*
X134154654Y-29410474D01*
X134228902Y-29783744D01*
X134230688Y-29795781D01*
X134268068Y-30175304D01*
X134268656Y-30185937D01*
X134270991Y-30376266D01*
X134271000Y-30377787D01*
X134271000Y-36042028D01*
X134270957Y-36045297D01*
X134268477Y-36139334D01*
X134265679Y-36162456D01*
X134225312Y-36347779D01*
X134216918Y-36372964D01*
X134138030Y-36545443D01*
X134126383Y-36565639D01*
X134071948Y-36642331D01*
X134070030Y-36644959D01*
X133721012Y-37110316D01*
X133721005Y-37110326D01*
X133721000Y-37110333D01*
X133687457Y-37157600D01*
X133658844Y-37197919D01*
X133658843Y-37197921D01*
X133569519Y-37393176D01*
X133569519Y-37393177D01*
X133523813Y-37602969D01*
X133523812Y-37602972D01*
X133521000Y-37710316D01*
X133521000Y-73043677D01*
X133523818Y-73151023D01*
X133565654Y-73343039D01*
X133569529Y-73360824D01*
X133658840Y-73556088D01*
X133667365Y-73568099D01*
X133721004Y-73643673D01*
X134070024Y-74109032D01*
X134071927Y-74111639D01*
X134126389Y-74188373D01*
X134138025Y-74208548D01*
X134216919Y-74381038D01*
X134225311Y-74406214D01*
X134265688Y-74591538D01*
X134268487Y-74614678D01*
X134270957Y-74708694D01*
X134271000Y-74711951D01*
X134271000Y-80376212D01*
X134270991Y-80377733D01*
X134268656Y-80568062D01*
X134268068Y-80578695D01*
X134230688Y-80958218D01*
X134228902Y-80970255D01*
X134154654Y-81343525D01*
X134151698Y-81355329D01*
X134041214Y-81719544D01*
X134037114Y-81731002D01*
X133891467Y-82082627D01*
X133886264Y-82093627D01*
X133706856Y-82429275D01*
X133700600Y-82439713D01*
X133489150Y-82756169D01*
X133481902Y-82765942D01*
X133240455Y-83060148D01*
X133232282Y-83069165D01*
X132963165Y-83338282D01*
X132954148Y-83346455D01*
X132659942Y-83587902D01*
X132650169Y-83595150D01*
X132333713Y-83806600D01*
X132323275Y-83812856D01*
X131987627Y-83992264D01*
X131976627Y-83997467D01*
X131625002Y-84143114D01*
X131613544Y-84147214D01*
X131249329Y-84257698D01*
X131237525Y-84260654D01*
X130864255Y-84334902D01*
X130852218Y-84336688D01*
X130472695Y-84374068D01*
X130462062Y-84374656D01*
X130271734Y-84376991D01*
X130270213Y-84377000D01*
X126342760Y-84377000D01*
X126341420Y-84376993D01*
X126128605Y-84374693D01*
X126119137Y-84374228D01*
X125694518Y-84337075D01*
X125683793Y-84335663D01*
X125264688Y-84261761D01*
X125254127Y-84259420D01*
X124843050Y-84149270D01*
X124832733Y-84146017D01*
X124432822Y-84000458D01*
X124422828Y-83996318D01*
X124037133Y-83816464D01*
X124027537Y-83811469D01*
X123808769Y-83685161D01*
X123658971Y-83598674D01*
X123649854Y-83592865D01*
X123301239Y-83348759D01*
X123292657Y-83342174D01*
X122966137Y-83068189D01*
X122959123Y-83061832D01*
X122806997Y-82912987D01*
X122806036Y-82912036D01*
X122735488Y-82841488D01*
X122579574Y-82688778D01*
X122579562Y-82688767D01*
X122245259Y-82408259D01*
X121887766Y-82157946D01*
X121509829Y-81939749D01*
X121509825Y-81939747D01*
X121114301Y-81755317D01*
X121114298Y-81755316D01*
X121114294Y-81755314D01*
X121114289Y-81755312D01*
X120704226Y-81606066D01*
X120704198Y-81606057D01*
X120353763Y-81512164D01*
X120282667Y-81493115D01*
X120282663Y-81493114D01*
X120282649Y-81493111D01*
X119852885Y-81417338D01*
X119852872Y-81417336D01*
X119418138Y-81379309D01*
X119418130Y-81379308D01*
X119199938Y-81377000D01*
X119199932Y-81377000D01*
X92342068Y-81377000D01*
X92192054Y-81378621D01*
X92123857Y-81379358D01*
X91689120Y-81417396D01*
X91259357Y-81493178D01*
X91259350Y-81493179D01*
X90920494Y-81583978D01*
X90837821Y-81606131D01*
X90837818Y-81606132D01*
X90837816Y-81606132D01*
X90427737Y-81755392D01*
X90032220Y-81939826D01*
X89654292Y-82158027D01*
X89296810Y-82408340D01*
X88962512Y-82688852D01*
X88962499Y-82688864D01*
X88806560Y-82841440D01*
X88735976Y-82912024D01*
X88735006Y-82912983D01*
X88582855Y-83061821D01*
X88575850Y-83068169D01*
X88249321Y-83342162D01*
X88240739Y-83348748D01*
X87892136Y-83592845D01*
X87883013Y-83598657D01*
X87514456Y-83811446D01*
X87504860Y-83816441D01*
X87119163Y-83996297D01*
X87109169Y-84000437D01*
X86709259Y-84145996D01*
X86698942Y-84149249D01*
X86287867Y-84259398D01*
X86277306Y-84261739D01*
X85858203Y-84335640D01*
X85847478Y-84337052D01*
X85422856Y-84374205D01*
X85413401Y-84374670D01*
X85200573Y-84376993D01*
X85199220Y-84377000D01*
X80271787Y-84377000D01*
X80270266Y-84376991D01*
X80079937Y-84374656D01*
X80069304Y-84374068D01*
X79689781Y-84336688D01*
X79677744Y-84334902D01*
X79304474Y-84260654D01*
X79292670Y-84257698D01*
X78928455Y-84147214D01*
X78916997Y-84143114D01*
X78565372Y-83997467D01*
X78554372Y-83992264D01*
X78218724Y-83812856D01*
X78208286Y-83806600D01*
X77891830Y-83595150D01*
X77882057Y-83587902D01*
X77634218Y-83384507D01*
X77587850Y-83346454D01*
X77578834Y-83338282D01*
X77309717Y-83069165D01*
X77301544Y-83060148D01*
X77060097Y-82765942D01*
X77052849Y-82756169D01*
X76841399Y-82439713D01*
X76835143Y-82429275D01*
X76655735Y-82093627D01*
X76650532Y-82082627D01*
X76504885Y-81731002D01*
X76500785Y-81719544D01*
X76464444Y-81599743D01*
X76390300Y-81355327D01*
X76387345Y-81343525D01*
X76313097Y-80970255D01*
X76311311Y-80958218D01*
X76273930Y-80578681D01*
X76273343Y-80568075D01*
X76271009Y-80377732D01*
X76271000Y-80376212D01*
X76271000Y-80255711D01*
X78420500Y-80255711D01*
X78420500Y-80498288D01*
X78446844Y-80698400D01*
X78452162Y-80738789D01*
X78454136Y-80746155D01*
X78514947Y-80973104D01*
X78528488Y-81005794D01*
X78607776Y-81197212D01*
X78729064Y-81407289D01*
X78729066Y-81407292D01*
X78729067Y-81407293D01*
X78876733Y-81599736D01*
X78876739Y-81599743D01*
X79048256Y-81771260D01*
X79048262Y-81771265D01*
X79240711Y-81918936D01*
X79450788Y-82040224D01*
X79674900Y-82133054D01*
X79909211Y-82195838D01*
X80089586Y-82219584D01*
X80149711Y-82227500D01*
X80149712Y-82227500D01*
X80392289Y-82227500D01*
X80440388Y-82221167D01*
X80632789Y-82195838D01*
X80867100Y-82133054D01*
X81091212Y-82040224D01*
X81301289Y-81918936D01*
X81493738Y-81771265D01*
X81665265Y-81599738D01*
X81812936Y-81407289D01*
X81934224Y-81197212D01*
X82027054Y-80973100D01*
X82089838Y-80738789D01*
X82121500Y-80498288D01*
X82121500Y-80255712D01*
X82089838Y-80015211D01*
X82027054Y-79780900D01*
X81934224Y-79556788D01*
X81812936Y-79346711D01*
X81665265Y-79154262D01*
X81665260Y-79154256D01*
X81493743Y-78982739D01*
X81493736Y-78982733D01*
X81301293Y-78835067D01*
X81301292Y-78835066D01*
X81301289Y-78835064D01*
X81091212Y-78713776D01*
X81091205Y-78713773D01*
X80867104Y-78620947D01*
X80632785Y-78558161D01*
X80392289Y-78526500D01*
X80392288Y-78526500D01*
X80149712Y-78526500D01*
X80149711Y-78526500D01*
X79909214Y-78558161D01*
X79674895Y-78620947D01*
X79450794Y-78713773D01*
X79450785Y-78713777D01*
X79240706Y-78835067D01*
X79048263Y-78982733D01*
X79048256Y-78982739D01*
X78876739Y-79154256D01*
X78876733Y-79154263D01*
X78729067Y-79346706D01*
X78607777Y-79556785D01*
X78607773Y-79556794D01*
X78514947Y-79780895D01*
X78452161Y-80015214D01*
X78420500Y-80255711D01*
X76271000Y-80255711D01*
X76271000Y-76961999D01*
X85622751Y-76961999D01*
X85622751Y-76962000D01*
X85641705Y-77166558D01*
X85641706Y-77166560D01*
X85697924Y-77364147D01*
X85697930Y-77364162D01*
X85789497Y-77548051D01*
X85789498Y-77548052D01*
X85792464Y-77551980D01*
X85792465Y-77551981D01*
X86381000Y-76963446D01*
X86381000Y-77008737D01*
X86405193Y-77099025D01*
X86451930Y-77179975D01*
X86518025Y-77246070D01*
X86598975Y-77292807D01*
X86689263Y-77317000D01*
X86734553Y-77317000D01*
X86149136Y-77902414D01*
X86239781Y-77958539D01*
X86239783Y-77958540D01*
X86431342Y-78032749D01*
X86633284Y-78070500D01*
X86838716Y-78070500D01*
X87040659Y-78032749D01*
X87232214Y-77958541D01*
X87232218Y-77958539D01*
X87322862Y-77902414D01*
X86737448Y-77317000D01*
X86782737Y-77317000D01*
X86873025Y-77292807D01*
X86953975Y-77246070D01*
X87020070Y-77179975D01*
X87066807Y-77099025D01*
X87091000Y-77008737D01*
X87091000Y-76963448D01*
X87679533Y-77551981D01*
X87679533Y-77551980D01*
X87682502Y-77548050D01*
X87682505Y-77548045D01*
X87774069Y-77364162D01*
X87774075Y-77364147D01*
X87830293Y-77166560D01*
X87830294Y-77166558D01*
X87849249Y-76962000D01*
X87849249Y-76961999D01*
X87830294Y-76757441D01*
X87830293Y-76757439D01*
X87774075Y-76559852D01*
X87774069Y-76559837D01*
X87682502Y-76375950D01*
X87679533Y-76372018D01*
X87091000Y-76960551D01*
X87091000Y-76915263D01*
X87066807Y-76824975D01*
X87020070Y-76744025D01*
X86953975Y-76677930D01*
X86873025Y-76631193D01*
X86782737Y-76607000D01*
X86737448Y-76607000D01*
X87322862Y-76021584D01*
X87322861Y-76021583D01*
X87232223Y-75965463D01*
X87232216Y-75965459D01*
X87040657Y-75891250D01*
X86838716Y-75853500D01*
X86633284Y-75853500D01*
X86431342Y-75891250D01*
X86239783Y-75965459D01*
X86149136Y-76021584D01*
X86734553Y-76607000D01*
X86689263Y-76607000D01*
X86598975Y-76631193D01*
X86518025Y-76677930D01*
X86451930Y-76744025D01*
X86405193Y-76824975D01*
X86381000Y-76915263D01*
X86381000Y-76960553D01*
X85792465Y-76372018D01*
X85792464Y-76372018D01*
X85789497Y-76375948D01*
X85789495Y-76375952D01*
X85697930Y-76559837D01*
X85697924Y-76559852D01*
X85641706Y-76757439D01*
X85641705Y-76757441D01*
X85622751Y-76961999D01*
X76271000Y-76961999D01*
X76271000Y-74711941D01*
X76271042Y-74708718D01*
X76273487Y-74614690D01*
X76276287Y-74591517D01*
X76304395Y-74462500D01*
X76316658Y-74406210D01*
X76325052Y-74381031D01*
X76403959Y-74208547D01*
X76415601Y-74188364D01*
X76470100Y-74111600D01*
X76471937Y-74109082D01*
X76821000Y-73643667D01*
X76883155Y-73556083D01*
X76972480Y-73360825D01*
X77018187Y-73151027D01*
X77018729Y-73130350D01*
X77021000Y-73043683D01*
X77021000Y-66801998D01*
X79632483Y-66801998D01*
X79632483Y-66802001D01*
X79652513Y-67030952D01*
X79652515Y-67030963D01*
X79711996Y-67252951D01*
X79711998Y-67252955D01*
X79711999Y-67252959D01*
X79748790Y-67331857D01*
X79809131Y-67461259D01*
X79809133Y-67461263D01*
X79940953Y-67649521D01*
X79940958Y-67649527D01*
X80103472Y-67812041D01*
X80103478Y-67812046D01*
X80291736Y-67943866D01*
X80291737Y-67943866D01*
X80291741Y-67943869D01*
X80325515Y-67959618D01*
X80377954Y-68005791D01*
X80397106Y-68072984D01*
X80376890Y-68139865D01*
X80325516Y-68184381D01*
X80291748Y-68200127D01*
X80291741Y-68200131D01*
X80103471Y-68331958D01*
X79940958Y-68494471D01*
X79809131Y-68682741D01*
X79809130Y-68682743D01*
X79743005Y-68824549D01*
X79714886Y-68884851D01*
X79712000Y-68891039D01*
X79711996Y-68891048D01*
X79652515Y-69113036D01*
X79652513Y-69113047D01*
X79632483Y-69341998D01*
X79632483Y-69342001D01*
X79652513Y-69570952D01*
X79652515Y-69570963D01*
X79711996Y-69792951D01*
X79711998Y-69792955D01*
X79711999Y-69792959D01*
X79794854Y-69970641D01*
X79809131Y-70001259D01*
X79809133Y-70001263D01*
X79936572Y-70183264D01*
X79940957Y-70189526D01*
X80103474Y-70352043D01*
X80103479Y-70352047D01*
X80103481Y-70352048D01*
X80110585Y-70357023D01*
X80154210Y-70411600D01*
X80161402Y-70481098D01*
X80129880Y-70543453D01*
X80069649Y-70578866D01*
X80052721Y-70581886D01*
X80038625Y-70583401D01*
X80038620Y-70583403D01*
X79903913Y-70633645D01*
X79903906Y-70633649D01*
X79788812Y-70719809D01*
X79788809Y-70719812D01*
X79702649Y-70834906D01*
X79702645Y-70834913D01*
X79652403Y-70969620D01*
X79652401Y-70969627D01*
X79646000Y-71029155D01*
X79646000Y-71632000D01*
X80477574Y-71632000D01*
X80452460Y-71675498D01*
X80416000Y-71811566D01*
X80416000Y-71952434D01*
X80452460Y-72088502D01*
X80477574Y-72132000D01*
X79646000Y-72132000D01*
X79646000Y-72734844D01*
X79652401Y-72794372D01*
X79652403Y-72794379D01*
X79702645Y-72929086D01*
X79702649Y-72929093D01*
X79788809Y-73044187D01*
X79788812Y-73044190D01*
X79903906Y-73130350D01*
X79903913Y-73130354D01*
X80038620Y-73180596D01*
X80038627Y-73180598D01*
X80098155Y-73186999D01*
X80098172Y-73187000D01*
X80701000Y-73187000D01*
X80701000Y-72355426D01*
X80744498Y-72380540D01*
X80880566Y-72417000D01*
X81021434Y-72417000D01*
X81157502Y-72380540D01*
X81201000Y-72355426D01*
X81201000Y-73187000D01*
X81803828Y-73187000D01*
X81803844Y-73186999D01*
X81863372Y-73180598D01*
X81863379Y-73180596D01*
X81998086Y-73130354D01*
X81998093Y-73130350D01*
X82113187Y-73044190D01*
X82113190Y-73044187D01*
X82199350Y-72929093D01*
X82199354Y-72929086D01*
X82249596Y-72794379D01*
X82249598Y-72794372D01*
X82255999Y-72734844D01*
X82256000Y-72734827D01*
X82256000Y-72232266D01*
X82275685Y-72165227D01*
X82328489Y-72119472D01*
X82397647Y-72109528D01*
X82461203Y-72138553D01*
X82467681Y-72144585D01*
X82697163Y-72374068D01*
X82697167Y-72374071D01*
X82800918Y-72443396D01*
X82800924Y-72443399D01*
X82800925Y-72443400D01*
X82916215Y-72491155D01*
X83024565Y-72512707D01*
X83038601Y-72515499D01*
X83038605Y-72515500D01*
X83038606Y-72515500D01*
X83163394Y-72515500D01*
X85508010Y-72515500D01*
X85575049Y-72535185D01*
X85620804Y-72587989D01*
X85624191Y-72596165D01*
X85675911Y-72734827D01*
X85676611Y-72736704D01*
X85764239Y-72853761D01*
X85881296Y-72941389D01*
X86018299Y-72992489D01*
X86045550Y-72995418D01*
X86078845Y-72998999D01*
X86078862Y-72999000D01*
X87393138Y-72999000D01*
X87393154Y-72998999D01*
X87420192Y-72996091D01*
X87453701Y-72992489D01*
X87590704Y-72941389D01*
X87707761Y-72853761D01*
X87795389Y-72736704D01*
X87824680Y-72658172D01*
X87847809Y-72596165D01*
X87889681Y-72540232D01*
X87955145Y-72515816D01*
X87963990Y-72515500D01*
X88073395Y-72515500D01*
X88073396Y-72515499D01*
X88195785Y-72491155D01*
X88311075Y-72443400D01*
X88414833Y-72374071D01*
X89689749Y-71099155D01*
X91236000Y-71099155D01*
X91236000Y-71632000D01*
X92021000Y-71632000D01*
X92021000Y-70647000D01*
X91688155Y-70647000D01*
X91628627Y-70653401D01*
X91628620Y-70653403D01*
X91493913Y-70703645D01*
X91493906Y-70703649D01*
X91378812Y-70789809D01*
X91378809Y-70789812D01*
X91292649Y-70904906D01*
X91292645Y-70904913D01*
X91242403Y-71039620D01*
X91242401Y-71039627D01*
X91236000Y-71099155D01*
X89689749Y-71099155D01*
X91666085Y-69122819D01*
X91727408Y-69089334D01*
X91753766Y-69086500D01*
X92256691Y-69086500D01*
X92323730Y-69106185D01*
X92348840Y-69127527D01*
X92352747Y-69131866D01*
X92507248Y-69244118D01*
X92681712Y-69321794D01*
X92868513Y-69361500D01*
X93059487Y-69361500D01*
X93246288Y-69321794D01*
X93420752Y-69244118D01*
X93575253Y-69131866D01*
X93703040Y-68989944D01*
X93798527Y-68824556D01*
X93857542Y-68642928D01*
X93877504Y-68453000D01*
X93857542Y-68263072D01*
X93798527Y-68081444D01*
X93703040Y-67916056D01*
X93575253Y-67774134D01*
X93420752Y-67661882D01*
X93246288Y-67584206D01*
X93246286Y-67584205D01*
X93059487Y-67544500D01*
X92868513Y-67544500D01*
X92681714Y-67584205D01*
X92594480Y-67623044D01*
X92535012Y-67649521D01*
X92507246Y-67661883D01*
X92352745Y-67774135D01*
X92348840Y-67778473D01*
X92289354Y-67815121D01*
X92256691Y-67819500D01*
X91753766Y-67819500D01*
X91686727Y-67799815D01*
X91666085Y-67783181D01*
X91155486Y-67272581D01*
X91155482Y-67272578D01*
X91051731Y-67203253D01*
X91051722Y-67203248D01*
X90936435Y-67155495D01*
X90936427Y-67155493D01*
X90814048Y-67131150D01*
X90814044Y-67131150D01*
X88576075Y-67131150D01*
X88509036Y-67111465D01*
X88463281Y-67058661D01*
X88459894Y-67050485D01*
X88442888Y-67004893D01*
X88434889Y-66983446D01*
X88347261Y-66866389D01*
X88230204Y-66778761D01*
X88093203Y-66727661D01*
X88032654Y-66721150D01*
X88032638Y-66721150D01*
X87054515Y-66721150D01*
X86987476Y-66701465D01*
X86985626Y-66700253D01*
X86939465Y-66669410D01*
X86939393Y-66669372D01*
X86939072Y-66669201D01*
X86938473Y-66668880D01*
X86919068Y-66660884D01*
X86881720Y-66645494D01*
X86824185Y-66621662D01*
X86824173Y-66621657D01*
X86824090Y-66621632D01*
X86823102Y-66621332D01*
X86823067Y-66621325D01*
X86798224Y-66616430D01*
X86762993Y-66609489D01*
X86762787Y-66609382D01*
X86762775Y-66609446D01*
X86701778Y-66597313D01*
X86701386Y-66597276D01*
X86701169Y-66597255D01*
X86700651Y-66597204D01*
X86700632Y-66597204D01*
X86642133Y-66597311D01*
X86639054Y-66597317D01*
X86576977Y-66597317D01*
X86576551Y-66597360D01*
X86576165Y-66597399D01*
X86575860Y-66597428D01*
X86515412Y-66609567D01*
X86515193Y-66609611D01*
X86450104Y-66622559D01*
X86447637Y-66623179D01*
X86105477Y-66691891D01*
X86035874Y-66685791D01*
X86008178Y-66670636D01*
X85994756Y-66660884D01*
X85965344Y-66647789D01*
X85820288Y-66583206D01*
X85820286Y-66583205D01*
X85633487Y-66543500D01*
X85442513Y-66543500D01*
X85255713Y-66583205D01*
X85255710Y-66583206D01*
X85142854Y-66633452D01*
X85073604Y-66642736D01*
X85010328Y-66613107D01*
X84973115Y-66553971D01*
X84969132Y-66533434D01*
X84967989Y-66522799D01*
X84916889Y-66385796D01*
X84843796Y-66288155D01*
X94396000Y-66288155D01*
X94396000Y-66621000D01*
X95381000Y-66621000D01*
X95381000Y-65836000D01*
X94848155Y-65836000D01*
X94788627Y-65842401D01*
X94788620Y-65842403D01*
X94653913Y-65892645D01*
X94653906Y-65892649D01*
X94538812Y-65978809D01*
X94538809Y-65978812D01*
X94452649Y-66093906D01*
X94452645Y-66093913D01*
X94402403Y-66228620D01*
X94402401Y-66228627D01*
X94396000Y-66288155D01*
X84843796Y-66288155D01*
X84829261Y-66268739D01*
X84712204Y-66181111D01*
X84678393Y-66168500D01*
X84575203Y-66130011D01*
X84514654Y-66123500D01*
X84514638Y-66123500D01*
X82617362Y-66123500D01*
X82617345Y-66123500D01*
X82556798Y-66130010D01*
X82474568Y-66160682D01*
X82431234Y-66168500D01*
X82175455Y-66168500D01*
X82108416Y-66148815D01*
X82073880Y-66115623D01*
X81961042Y-65954472D01*
X81798527Y-65791958D01*
X81798521Y-65791953D01*
X81610263Y-65660133D01*
X81610259Y-65660131D01*
X81461623Y-65590821D01*
X81401959Y-65562999D01*
X81401955Y-65562998D01*
X81401951Y-65562996D01*
X81179963Y-65503515D01*
X81179959Y-65503514D01*
X81179958Y-65503514D01*
X81179957Y-65503513D01*
X81179952Y-65503513D01*
X80951002Y-65483483D01*
X80950998Y-65483483D01*
X80722047Y-65503513D01*
X80722036Y-65503515D01*
X80500048Y-65562996D01*
X80500039Y-65563000D01*
X80291743Y-65660130D01*
X80291741Y-65660131D01*
X80103471Y-65791958D01*
X79940958Y-65954471D01*
X79809131Y-66142741D01*
X79809130Y-66142743D01*
X79712000Y-66351039D01*
X79711996Y-66351048D01*
X79652515Y-66573036D01*
X79652513Y-66573047D01*
X79632483Y-66801998D01*
X77021000Y-66801998D01*
X77021000Y-64521844D01*
X92814000Y-64521844D01*
X92820401Y-64581372D01*
X92820403Y-64581379D01*
X92870645Y-64716086D01*
X92870649Y-64716093D01*
X92956809Y-64831187D01*
X92956812Y-64831190D01*
X93071906Y-64917350D01*
X93071913Y-64917354D01*
X93206620Y-64967596D01*
X93206627Y-64967598D01*
X93266155Y-64973999D01*
X93266172Y-64974000D01*
X93799000Y-64974000D01*
X94299000Y-64974000D01*
X94831828Y-64974000D01*
X94831844Y-64973999D01*
X94891372Y-64967598D01*
X94891379Y-64967596D01*
X95026086Y-64917354D01*
X95026093Y-64917350D01*
X95141187Y-64831190D01*
X95141190Y-64831187D01*
X95227350Y-64716093D01*
X95227354Y-64716086D01*
X95277596Y-64581379D01*
X95277598Y-64581372D01*
X95283999Y-64521844D01*
X95284000Y-64521827D01*
X95284000Y-64189000D01*
X94299000Y-64189000D01*
X94299000Y-64974000D01*
X93799000Y-64974000D01*
X93799000Y-64189000D01*
X92814000Y-64189000D01*
X92814000Y-64521844D01*
X77021000Y-64521844D01*
X77021000Y-55499000D01*
X77953496Y-55499000D01*
X77973458Y-55688928D01*
X77973459Y-55688931D01*
X78032470Y-55870549D01*
X78032473Y-55870556D01*
X78127960Y-56035944D01*
X78255747Y-56177866D01*
X78410248Y-56290118D01*
X78584712Y-56367794D01*
X78771513Y-56407500D01*
X78828234Y-56407500D01*
X78895273Y-56427185D01*
X78915915Y-56443819D01*
X80606163Y-58134069D01*
X80606167Y-58134072D01*
X80709921Y-58203399D01*
X80709923Y-58203399D01*
X80709925Y-58203401D01*
X80791447Y-58237168D01*
X80825215Y-58251155D01*
X80825217Y-58251155D01*
X80825222Y-58251157D01*
X80947601Y-58275499D01*
X80947605Y-58275500D01*
X80947606Y-58275500D01*
X80947607Y-58275500D01*
X81072394Y-58275500D01*
X81568500Y-58275500D01*
X81635539Y-58295185D01*
X81681294Y-58347989D01*
X81692500Y-58399500D01*
X81692500Y-58479654D01*
X81699011Y-58540202D01*
X81699011Y-58540204D01*
X81739454Y-58648632D01*
X81750111Y-58677204D01*
X81837739Y-58794261D01*
X81954796Y-58881889D01*
X82091799Y-58932989D01*
X82119050Y-58935918D01*
X82152345Y-58939499D01*
X82152362Y-58939500D01*
X83299638Y-58939500D01*
X83299654Y-58939499D01*
X83326692Y-58936591D01*
X83360201Y-58932989D01*
X83497204Y-58881889D01*
X83614261Y-58794261D01*
X83701889Y-58677204D01*
X83752989Y-58540201D01*
X83756591Y-58506692D01*
X83759499Y-58479654D01*
X83759500Y-58479637D01*
X83759500Y-56582362D01*
X83759499Y-56582345D01*
X83755209Y-56542447D01*
X83752989Y-56521799D01*
X83701889Y-56384796D01*
X83614261Y-56267739D01*
X83497204Y-56180111D01*
X83491180Y-56177864D01*
X83360203Y-56129011D01*
X83299654Y-56122500D01*
X83299638Y-56122500D01*
X82152362Y-56122500D01*
X82152345Y-56122500D01*
X82091797Y-56129011D01*
X82091795Y-56129011D01*
X81954795Y-56180111D01*
X81837739Y-56267739D01*
X81750111Y-56384795D01*
X81699011Y-56521795D01*
X81699011Y-56521797D01*
X81692500Y-56582345D01*
X81692500Y-56884500D01*
X81672815Y-56951539D01*
X81620011Y-56997294D01*
X81568500Y-57008500D01*
X81323767Y-57008500D01*
X81256728Y-56988815D01*
X81236086Y-56972181D01*
X79813620Y-55549715D01*
X79780135Y-55488392D01*
X79777982Y-55475012D01*
X79760542Y-55309072D01*
X79701527Y-55127444D01*
X79606040Y-54962056D01*
X79478253Y-54820134D01*
X79323752Y-54707882D01*
X79149288Y-54630206D01*
X79149286Y-54630205D01*
X78962487Y-54590500D01*
X78771513Y-54590500D01*
X78584714Y-54630205D01*
X78410246Y-54707883D01*
X78255745Y-54820135D01*
X78127959Y-54962057D01*
X78032473Y-55127443D01*
X78032470Y-55127450D01*
X77996088Y-55239424D01*
X77973458Y-55309072D01*
X77953496Y-55499000D01*
X77021000Y-55499000D01*
X77021000Y-48117000D01*
X79342994Y-48117000D01*
X79362956Y-48306928D01*
X79362957Y-48306931D01*
X79421968Y-48488549D01*
X79421971Y-48488556D01*
X79517458Y-48653944D01*
X79645245Y-48795866D01*
X79799746Y-48908118D01*
X79974210Y-48985794D01*
X80161011Y-49025500D01*
X80351985Y-49025500D01*
X80538786Y-48985794D01*
X80713250Y-48908118D01*
X80867751Y-48795866D01*
X80871658Y-48791527D01*
X80931144Y-48754879D01*
X80963807Y-48750500D01*
X81568500Y-48750500D01*
X81635539Y-48770185D01*
X81681294Y-48822989D01*
X81692500Y-48874500D01*
X81692500Y-49065654D01*
X81699011Y-49126202D01*
X81699011Y-49126204D01*
X81737333Y-49228946D01*
X81750111Y-49263204D01*
X81837739Y-49380261D01*
X81954796Y-49467889D01*
X82091799Y-49518989D01*
X82119050Y-49521918D01*
X82152345Y-49525499D01*
X82152362Y-49525500D01*
X83299638Y-49525500D01*
X83299654Y-49525499D01*
X83326692Y-49522591D01*
X83360201Y-49518989D01*
X83497204Y-49467889D01*
X83614261Y-49380261D01*
X83701889Y-49263204D01*
X83752989Y-49126201D01*
X83758975Y-49070526D01*
X83759499Y-49065654D01*
X83759500Y-49065637D01*
X83759500Y-47168362D01*
X83759499Y-47168345D01*
X83755501Y-47131168D01*
X83752989Y-47107799D01*
X83751271Y-47103194D01*
X83702183Y-46971585D01*
X83701889Y-46970796D01*
X83614261Y-46853739D01*
X83497204Y-46766111D01*
X83360203Y-46715011D01*
X83299654Y-46708500D01*
X83299638Y-46708500D01*
X82152362Y-46708500D01*
X82152345Y-46708500D01*
X82091797Y-46715011D01*
X82091795Y-46715011D01*
X81954795Y-46766111D01*
X81837739Y-46853739D01*
X81750111Y-46970795D01*
X81699011Y-47107795D01*
X81699011Y-47107797D01*
X81692500Y-47168345D01*
X81692500Y-47359500D01*
X81672815Y-47426539D01*
X81620011Y-47472294D01*
X81568500Y-47483500D01*
X80963807Y-47483500D01*
X80896768Y-47463815D01*
X80871658Y-47442473D01*
X80867752Y-47438135D01*
X80851685Y-47426461D01*
X80713250Y-47325882D01*
X80538786Y-47248206D01*
X80538784Y-47248205D01*
X80351985Y-47208500D01*
X80161011Y-47208500D01*
X79974212Y-47248205D01*
X79799744Y-47325883D01*
X79645243Y-47438135D01*
X79517457Y-47580057D01*
X79421971Y-47745443D01*
X79421968Y-47745450D01*
X79362957Y-47927068D01*
X79362956Y-47927072D01*
X79342994Y-48117000D01*
X77021000Y-48117000D01*
X77021000Y-46588155D01*
X88442000Y-46588155D01*
X88442000Y-47121000D01*
X89227000Y-47121000D01*
X89227000Y-46136000D01*
X88894155Y-46136000D01*
X88834627Y-46142401D01*
X88834620Y-46142403D01*
X88699913Y-46192645D01*
X88699906Y-46192649D01*
X88584812Y-46278809D01*
X88584809Y-46278812D01*
X88498649Y-46393906D01*
X88498645Y-46393913D01*
X88448403Y-46528620D01*
X88448401Y-46528627D01*
X88442000Y-46588155D01*
X77021000Y-46588155D01*
X77021000Y-41401998D01*
X79747635Y-41401998D01*
X79747635Y-41402001D01*
X79767055Y-41623980D01*
X79767057Y-41623990D01*
X79824727Y-41839219D01*
X79824732Y-41839233D01*
X79918901Y-42041179D01*
X79918907Y-42041189D01*
X80046710Y-42223710D01*
X80046714Y-42223715D01*
X80046716Y-42223717D01*
X80204283Y-42381284D01*
X80204289Y-42381288D01*
X80204290Y-42381289D01*
X80304454Y-42451426D01*
X80348079Y-42506003D01*
X80355271Y-42575501D01*
X80323748Y-42637856D01*
X80263518Y-42673269D01*
X80233330Y-42677000D01*
X80213155Y-42677000D01*
X80153627Y-42683401D01*
X80153620Y-42683403D01*
X80018913Y-42733645D01*
X80018906Y-42733649D01*
X79903812Y-42819809D01*
X79903809Y-42819812D01*
X79817649Y-42934906D01*
X79817645Y-42934913D01*
X79767403Y-43069620D01*
X79767401Y-43069627D01*
X79761000Y-43129155D01*
X79761000Y-43692000D01*
X80581440Y-43692000D01*
X80550755Y-43745147D01*
X80516000Y-43874857D01*
X80516000Y-44009143D01*
X80550755Y-44138853D01*
X80581440Y-44192000D01*
X79761000Y-44192000D01*
X79761000Y-44754844D01*
X79767401Y-44814372D01*
X79767403Y-44814379D01*
X79817645Y-44949086D01*
X79817649Y-44949093D01*
X79903809Y-45064187D01*
X79903812Y-45064190D01*
X80018906Y-45150350D01*
X80018913Y-45150354D01*
X80153620Y-45200596D01*
X80153627Y-45200598D01*
X80213155Y-45206999D01*
X80213172Y-45207000D01*
X80776000Y-45207000D01*
X80776000Y-44386560D01*
X80829147Y-44417245D01*
X80958857Y-44452000D01*
X81093143Y-44452000D01*
X81222853Y-44417245D01*
X81276000Y-44386560D01*
X81276000Y-45207000D01*
X81838828Y-45207000D01*
X81838844Y-45206999D01*
X81898372Y-45200598D01*
X81898379Y-45200596D01*
X82033086Y-45150354D01*
X82033093Y-45150350D01*
X82148187Y-45064190D01*
X82148190Y-45064187D01*
X82234350Y-44949093D01*
X82234354Y-44949086D01*
X82284596Y-44814379D01*
X82284598Y-44814372D01*
X82290999Y-44754844D01*
X82291000Y-44754827D01*
X82291000Y-44192000D01*
X81470560Y-44192000D01*
X81501245Y-44138853D01*
X81536000Y-44009143D01*
X81536000Y-43874857D01*
X81501245Y-43745147D01*
X81470560Y-43692000D01*
X82291000Y-43692000D01*
X82291000Y-43581844D01*
X92506000Y-43581844D01*
X92512401Y-43641372D01*
X92512403Y-43641379D01*
X92562645Y-43776086D01*
X92562649Y-43776093D01*
X92648809Y-43891187D01*
X92648812Y-43891190D01*
X92763906Y-43977350D01*
X92763913Y-43977354D01*
X92898620Y-44027596D01*
X92898627Y-44027598D01*
X92958155Y-44033999D01*
X92958172Y-44034000D01*
X93291000Y-44034000D01*
X93291000Y-43049000D01*
X92506000Y-43049000D01*
X92506000Y-43581844D01*
X82291000Y-43581844D01*
X82291000Y-43129172D01*
X82290999Y-43129155D01*
X82284598Y-43069627D01*
X82284596Y-43069620D01*
X82234354Y-42934913D01*
X82234350Y-42934906D01*
X82148190Y-42819812D01*
X82148187Y-42819809D01*
X82033093Y-42733649D01*
X82033086Y-42733645D01*
X81898379Y-42683403D01*
X81898372Y-42683401D01*
X81838844Y-42677000D01*
X81818670Y-42677000D01*
X81751631Y-42657315D01*
X81705876Y-42604511D01*
X81695932Y-42535353D01*
X81724957Y-42471797D01*
X81747546Y-42451426D01*
X81823130Y-42398500D01*
X81847717Y-42381284D01*
X82005284Y-42223717D01*
X82133097Y-42041183D01*
X82144768Y-42016155D01*
X92506000Y-42016155D01*
X92506000Y-42549000D01*
X93291000Y-42549000D01*
X93291000Y-41564000D01*
X92958155Y-41564000D01*
X92898627Y-41570401D01*
X92898620Y-41570403D01*
X92763913Y-41620645D01*
X92763906Y-41620649D01*
X92648812Y-41706809D01*
X92648809Y-41706812D01*
X92562649Y-41821906D01*
X92562645Y-41821913D01*
X92512403Y-41956620D01*
X92512401Y-41956627D01*
X92506000Y-42016155D01*
X82144768Y-42016155D01*
X82227270Y-41839227D01*
X82284944Y-41623986D01*
X82304365Y-41402000D01*
X82304101Y-41398988D01*
X82295786Y-41303942D01*
X82284944Y-41180014D01*
X82236411Y-40998890D01*
X82227272Y-40964780D01*
X82227271Y-40964779D01*
X82227270Y-40964773D01*
X82133097Y-40762818D01*
X82005284Y-40580283D01*
X81847717Y-40422716D01*
X81847715Y-40422714D01*
X81847710Y-40422710D01*
X81665189Y-40294907D01*
X81665186Y-40294905D01*
X81665183Y-40294903D01*
X81663270Y-40294011D01*
X81463233Y-40200732D01*
X81463219Y-40200727D01*
X81247990Y-40143057D01*
X81247988Y-40143056D01*
X81247986Y-40143056D01*
X81247984Y-40143055D01*
X81247980Y-40143055D01*
X81026002Y-40123635D01*
X81025998Y-40123635D01*
X80804019Y-40143055D01*
X80804009Y-40143057D01*
X80588780Y-40200727D01*
X80588771Y-40200731D01*
X80386817Y-40294903D01*
X80386811Y-40294907D01*
X80204282Y-40422716D01*
X80046716Y-40580282D01*
X79918907Y-40762811D01*
X79918903Y-40762817D01*
X79824731Y-40964771D01*
X79824727Y-40964780D01*
X79767057Y-41180009D01*
X79767055Y-41180019D01*
X79747635Y-41401998D01*
X77021000Y-41401998D01*
X77021000Y-38583953D01*
X79144596Y-38583953D01*
X79164558Y-38773881D01*
X79164559Y-38773884D01*
X79223570Y-38955502D01*
X79223573Y-38955509D01*
X79319060Y-39120897D01*
X79403888Y-39215108D01*
X79443858Y-39259500D01*
X79446847Y-39262819D01*
X79601348Y-39375071D01*
X79775812Y-39452747D01*
X79962613Y-39492453D01*
X80153587Y-39492453D01*
X80340388Y-39452747D01*
X80514852Y-39375071D01*
X80669353Y-39262819D01*
X80669358Y-39262812D01*
X80674183Y-39258470D01*
X80675938Y-39260419D01*
X80725473Y-39229887D01*
X80758163Y-39225500D01*
X81493500Y-39225500D01*
X81560539Y-39245185D01*
X81606294Y-39297989D01*
X81617500Y-39349500D01*
X81617500Y-39683654D01*
X81624011Y-39744202D01*
X81624011Y-39744204D01*
X81653856Y-39824219D01*
X81675111Y-39881204D01*
X81762739Y-39998261D01*
X81879796Y-40085889D01*
X82016799Y-40136989D01*
X82044050Y-40139918D01*
X82077345Y-40143499D01*
X82077362Y-40143500D01*
X83224638Y-40143500D01*
X83224654Y-40143499D01*
X83251692Y-40140591D01*
X83285201Y-40136989D01*
X83422204Y-40085889D01*
X83539261Y-39998261D01*
X83626889Y-39881204D01*
X83677989Y-39744201D01*
X83681591Y-39710692D01*
X83684499Y-39683654D01*
X83684500Y-39683637D01*
X83684500Y-37786362D01*
X83684499Y-37786345D01*
X84717500Y-37786345D01*
X84717500Y-39683654D01*
X84724011Y-39744202D01*
X84724011Y-39744204D01*
X84753856Y-39824219D01*
X84775111Y-39881204D01*
X84862739Y-39998261D01*
X84979796Y-40085889D01*
X85116799Y-40136989D01*
X85144050Y-40139918D01*
X85177345Y-40143499D01*
X85177362Y-40143500D01*
X86324638Y-40143500D01*
X86324654Y-40143499D01*
X86351692Y-40140591D01*
X86385201Y-40136989D01*
X86522204Y-40085889D01*
X86639261Y-39998261D01*
X86726889Y-39881204D01*
X86777989Y-39744201D01*
X86781591Y-39710692D01*
X86784499Y-39683654D01*
X86784500Y-39683637D01*
X86784500Y-39259500D01*
X86804185Y-39192461D01*
X86856989Y-39146706D01*
X86908500Y-39135500D01*
X87045989Y-39135500D01*
X87232790Y-39095794D01*
X87407254Y-39018118D01*
X87561755Y-38905866D01*
X87689542Y-38763944D01*
X87785029Y-38598556D01*
X87844044Y-38416928D01*
X87864006Y-38227000D01*
X87844044Y-38037072D01*
X87785029Y-37855444D01*
X87689542Y-37690056D01*
X87561755Y-37548134D01*
X87407254Y-37435882D01*
X87232790Y-37358206D01*
X87232788Y-37358205D01*
X87045989Y-37318500D01*
X86855015Y-37318500D01*
X86668215Y-37358205D01*
X86668212Y-37358206D01*
X86616283Y-37381326D01*
X86547032Y-37390610D01*
X86522514Y-37384227D01*
X86522204Y-37384111D01*
X86452751Y-37358206D01*
X86385203Y-37333011D01*
X86324654Y-37326500D01*
X86324638Y-37326500D01*
X85177362Y-37326500D01*
X85177345Y-37326500D01*
X85116797Y-37333011D01*
X85116795Y-37333011D01*
X84979795Y-37384111D01*
X84862739Y-37471739D01*
X84775111Y-37588795D01*
X84724011Y-37725795D01*
X84724011Y-37725797D01*
X84717500Y-37786345D01*
X83684499Y-37786345D01*
X83681157Y-37755270D01*
X83677989Y-37725799D01*
X83674020Y-37715159D01*
X83649858Y-37650377D01*
X83626889Y-37588796D01*
X83539261Y-37471739D01*
X83422204Y-37384111D01*
X83384900Y-37370197D01*
X83285203Y-37333011D01*
X83224654Y-37326500D01*
X83224638Y-37326500D01*
X82077362Y-37326500D01*
X82077345Y-37326500D01*
X82016797Y-37333011D01*
X82016795Y-37333011D01*
X81879795Y-37384111D01*
X81762739Y-37471739D01*
X81675111Y-37588795D01*
X81624011Y-37725795D01*
X81624011Y-37725797D01*
X81617500Y-37786345D01*
X81617500Y-37834500D01*
X81597815Y-37901539D01*
X81545011Y-37947294D01*
X81493500Y-37958500D01*
X80772654Y-37958500D01*
X80705615Y-37938815D01*
X80680505Y-37917472D01*
X80669353Y-37905087D01*
X80514852Y-37792835D01*
X80340388Y-37715159D01*
X80340386Y-37715158D01*
X80153587Y-37675453D01*
X79962613Y-37675453D01*
X79775814Y-37715158D01*
X79751914Y-37725799D01*
X79631823Y-37779267D01*
X79601346Y-37792836D01*
X79446845Y-37905088D01*
X79319059Y-38047010D01*
X79223573Y-38212396D01*
X79223570Y-38212403D01*
X79166716Y-38387382D01*
X79164558Y-38394025D01*
X79144596Y-38583953D01*
X77021000Y-38583953D01*
X77021000Y-37710322D01*
X77018181Y-37602976D01*
X77018181Y-37602974D01*
X76972471Y-37393176D01*
X76883160Y-37197912D01*
X76821000Y-37110333D01*
X76820632Y-37109843D01*
X76471975Y-36644967D01*
X76470082Y-36642374D01*
X76415608Y-36565623D01*
X76403976Y-36545454D01*
X76325077Y-36372955D01*
X76316688Y-36347785D01*
X76312581Y-36328935D01*
X76276310Y-36162456D01*
X76273512Y-36139319D01*
X76272719Y-36109138D01*
X76271043Y-36045297D01*
X76271000Y-36042048D01*
X76271000Y-30377787D01*
X76271009Y-30376267D01*
X76271245Y-30357000D01*
X76272487Y-30255711D01*
X78420500Y-30255711D01*
X78420500Y-30498288D01*
X78452161Y-30738785D01*
X78514947Y-30973104D01*
X78558178Y-31077472D01*
X78607776Y-31197212D01*
X78729064Y-31407289D01*
X78729066Y-31407292D01*
X78729067Y-31407293D01*
X78876733Y-31599736D01*
X78876739Y-31599743D01*
X79048256Y-31771260D01*
X79048263Y-31771266D01*
X79118545Y-31825195D01*
X79240711Y-31918936D01*
X79450788Y-32040224D01*
X79674900Y-32133054D01*
X79909211Y-32195838D01*
X80068702Y-32216835D01*
X80149711Y-32227500D01*
X80149712Y-32227500D01*
X80392289Y-32227500D01*
X80440719Y-32221124D01*
X80632789Y-32195838D01*
X80867100Y-32133054D01*
X81091212Y-32040224D01*
X81301289Y-31918936D01*
X81493738Y-31771265D01*
X81665265Y-31599738D01*
X81812936Y-31407289D01*
X81934224Y-31197212D01*
X82027054Y-30973100D01*
X82089838Y-30738789D01*
X82121500Y-30498288D01*
X82121500Y-30255712D01*
X82089838Y-30015211D01*
X82027054Y-29780900D01*
X81934224Y-29556788D01*
X81812936Y-29346711D01*
X81747067Y-29260869D01*
X81665266Y-29154263D01*
X81665260Y-29154256D01*
X81493743Y-28982739D01*
X81493736Y-28982733D01*
X81301293Y-28835067D01*
X81301292Y-28835066D01*
X81301289Y-28835064D01*
X81091212Y-28713776D01*
X81091205Y-28713773D01*
X80867104Y-28620947D01*
X80632785Y-28558161D01*
X80392289Y-28526500D01*
X80392288Y-28526500D01*
X80149712Y-28526500D01*
X80149711Y-28526500D01*
X79909214Y-28558161D01*
X79674895Y-28620947D01*
X79450794Y-28713773D01*
X79450785Y-28713777D01*
X79240706Y-28835067D01*
X79048263Y-28982733D01*
X79048256Y-28982739D01*
X78876739Y-29154256D01*
X78876733Y-29154263D01*
X78729067Y-29346706D01*
X78607777Y-29556785D01*
X78607773Y-29556794D01*
X78514947Y-29780895D01*
X78452161Y-30015214D01*
X78420500Y-30255711D01*
X76272487Y-30255711D01*
X76273343Y-30185922D01*
X76273930Y-30175320D01*
X76311312Y-29795772D01*
X76313097Y-29783744D01*
X76337880Y-29659155D01*
X76387346Y-29410468D01*
X76390301Y-29398670D01*
X76390904Y-29396685D01*
X76500787Y-29034447D01*
X76504885Y-29022997D01*
X76650535Y-28671363D01*
X76655730Y-28660380D01*
X76835152Y-28324708D01*
X76841390Y-28314300D01*
X77052852Y-27997825D01*
X77060091Y-27988064D01*
X77301555Y-27693838D01*
X77309707Y-27684844D01*
X77578844Y-27415707D01*
X77587838Y-27407555D01*
X77882064Y-27166091D01*
X77891825Y-27158852D01*
X78208300Y-26947390D01*
X78218708Y-26941152D01*
X78554380Y-26761730D01*
X78565363Y-26756535D01*
X78917004Y-26610882D01*
X78928447Y-26606787D01*
X79292677Y-26496299D01*
X79304468Y-26493346D01*
X79677753Y-26419095D01*
X79689772Y-26417312D01*
X80069320Y-26379930D01*
X80079922Y-26379343D01*
X80267784Y-26377039D01*
X80270267Y-26377009D01*
X80271787Y-26377000D01*
X85199240Y-26377000D01*
X85200579Y-26377007D01*
G37*
%TD.AperFunction*%
%TA.AperFunction,Conductor*%
G36*
X100695192Y-68521985D02*
G01*
X100740947Y-68574789D01*
X100751442Y-68639557D01*
X100746000Y-68690158D01*
X100746000Y-69023000D01*
X102107000Y-69023000D01*
X102174039Y-69042685D01*
X102219794Y-69095489D01*
X102231000Y-69147000D01*
X102231000Y-70308000D01*
X102763828Y-70308000D01*
X102763844Y-70307999D01*
X102823372Y-70301598D01*
X102823379Y-70301596D01*
X102958167Y-70251324D01*
X103027858Y-70246340D01*
X103089181Y-70279825D01*
X103122666Y-70341148D01*
X103125500Y-70367506D01*
X103125500Y-70927100D01*
X103105815Y-70994139D01*
X103053011Y-71039894D01*
X103001500Y-71051100D01*
X102810345Y-71051100D01*
X102749797Y-71057611D01*
X102749795Y-71057611D01*
X102612795Y-71108711D01*
X102495739Y-71196339D01*
X102408111Y-71313394D01*
X102358721Y-71445810D01*
X102316849Y-71501742D01*
X102251384Y-71526158D01*
X102183111Y-71511305D01*
X102154859Y-71490155D01*
X101479820Y-70815116D01*
X101446335Y-70753793D01*
X101444183Y-70740415D01*
X101426742Y-70574472D01*
X101392899Y-70470317D01*
X101390905Y-70400477D01*
X101426985Y-70340644D01*
X101489686Y-70309816D01*
X101510831Y-70308000D01*
X101731000Y-70308000D01*
X101731000Y-69523000D01*
X100746000Y-69523000D01*
X100746000Y-69731900D01*
X100726315Y-69798939D01*
X100673511Y-69844694D01*
X100622000Y-69855900D01*
X100437713Y-69855900D01*
X100249681Y-69895867D01*
X100180014Y-69890551D01*
X100124280Y-69848414D01*
X100100175Y-69782834D01*
X100099900Y-69774577D01*
X100099900Y-68786148D01*
X100119585Y-68719109D01*
X100172389Y-68673354D01*
X100173467Y-68672868D01*
X100202546Y-68659921D01*
X100202548Y-68659920D01*
X100202548Y-68659919D01*
X100202552Y-68659918D01*
X100357053Y-68547666D01*
X100360960Y-68543327D01*
X100420446Y-68506679D01*
X100453109Y-68502300D01*
X100628153Y-68502300D01*
X100695192Y-68521985D01*
G37*
%TD.AperFunction*%
%TA.AperFunction,Conductor*%
G36*
X91873057Y-50564185D02*
G01*
X91918812Y-50616989D01*
X91928756Y-50686147D01*
X91899731Y-50749703D01*
X91878903Y-50768818D01*
X91844748Y-50793632D01*
X91844746Y-50793634D01*
X91716959Y-50935557D01*
X91621473Y-51100943D01*
X91621470Y-51100950D01*
X91576083Y-51240638D01*
X91562458Y-51282572D01*
X91542496Y-51472500D01*
X91562458Y-51662428D01*
X91562459Y-51662431D01*
X91621470Y-51844049D01*
X91621473Y-51844056D01*
X91716960Y-52009444D01*
X91772463Y-52071086D01*
X91802693Y-52134077D01*
X91794068Y-52203412D01*
X91753200Y-52254375D01*
X91717746Y-52280134D01*
X91589959Y-52422057D01*
X91494473Y-52587443D01*
X91494470Y-52587450D01*
X91439599Y-52756327D01*
X91435458Y-52769072D01*
X91415496Y-52959000D01*
X91435458Y-53148928D01*
X91435459Y-53148931D01*
X91494470Y-53330549D01*
X91494473Y-53330556D01*
X91589960Y-53495944D01*
X91684108Y-53600505D01*
X91696697Y-53614487D01*
X91719108Y-53650006D01*
X91767598Y-53767071D01*
X91767603Y-53767081D01*
X91836928Y-53870832D01*
X91836931Y-53870836D01*
X92032929Y-54066833D01*
X92077539Y-54111443D01*
X92121168Y-54155072D01*
X92224918Y-54224396D01*
X92224924Y-54224399D01*
X92224925Y-54224400D01*
X92340215Y-54272155D01*
X92373617Y-54278799D01*
X92418991Y-54287825D01*
X92480902Y-54320210D01*
X92510981Y-54366107D01*
X92542953Y-54451823D01*
X92547939Y-54521514D01*
X92542954Y-54538491D01*
X92497403Y-54660619D01*
X92497401Y-54660627D01*
X92491000Y-54720155D01*
X92491000Y-55053000D01*
X94961000Y-55053000D01*
X94961000Y-54996229D01*
X98586905Y-54996229D01*
X98586905Y-55529074D01*
X99371905Y-55529074D01*
X99371905Y-54544074D01*
X99039060Y-54544074D01*
X98979532Y-54550475D01*
X98979525Y-54550477D01*
X98844818Y-54600719D01*
X98844811Y-54600723D01*
X98729717Y-54686883D01*
X98729714Y-54686886D01*
X98643554Y-54801980D01*
X98643550Y-54801987D01*
X98593308Y-54936694D01*
X98593306Y-54936701D01*
X98586905Y-54996229D01*
X94961000Y-54996229D01*
X94961000Y-54720172D01*
X94960999Y-54720155D01*
X94954598Y-54660627D01*
X94954597Y-54660623D01*
X94909045Y-54538493D01*
X94904061Y-54468801D01*
X94909046Y-54451824D01*
X94911887Y-54444206D01*
X94911889Y-54444204D01*
X94926999Y-54403691D01*
X94968871Y-54347759D01*
X95034336Y-54323343D01*
X95093613Y-54333746D01*
X95098212Y-54335794D01*
X95285013Y-54375500D01*
X95475987Y-54375500D01*
X95662788Y-54335794D01*
X95837252Y-54258118D01*
X95991753Y-54145866D01*
X96119540Y-54003944D01*
X96215027Y-53838556D01*
X96274042Y-53656928D01*
X96294004Y-53467000D01*
X96274042Y-53277072D01*
X96215027Y-53095444D01*
X96139986Y-52965469D01*
X96123513Y-52897569D01*
X96146366Y-52831542D01*
X96201287Y-52788351D01*
X96247373Y-52779469D01*
X97113088Y-52779469D01*
X97113104Y-52779468D01*
X97140142Y-52776560D01*
X97173651Y-52772958D01*
X97310654Y-52721858D01*
X97427711Y-52634230D01*
X97515339Y-52517173D01*
X97560481Y-52396142D01*
X97602351Y-52340213D01*
X97667815Y-52315796D01*
X97702437Y-52318189D01*
X97821513Y-52343500D01*
X97878234Y-52343500D01*
X97945273Y-52363185D01*
X97965915Y-52379819D01*
X99737427Y-54151331D01*
X99810492Y-54224396D01*
X99825666Y-54239570D01*
X99929416Y-54308894D01*
X99932821Y-54310714D01*
X99934270Y-54312137D01*
X99934488Y-54312283D01*
X99934460Y-54312324D01*
X99982666Y-54359676D01*
X99998128Y-54427813D01*
X99974298Y-54493493D01*
X99918741Y-54535863D01*
X99874370Y-54544074D01*
X99871905Y-54544074D01*
X99871905Y-55905074D01*
X99852220Y-55972113D01*
X99799416Y-56017868D01*
X99747905Y-56029074D01*
X98586905Y-56029074D01*
X98586905Y-56561918D01*
X98593306Y-56621446D01*
X98593308Y-56621454D01*
X98631034Y-56722603D01*
X98636018Y-56792295D01*
X98602533Y-56853618D01*
X98541209Y-56887102D01*
X98514852Y-56889936D01*
X96087809Y-56889936D01*
X96020770Y-56870251D01*
X95995660Y-56848909D01*
X95991754Y-56844571D01*
X95968165Y-56827432D01*
X95837252Y-56732318D01*
X95662788Y-56654642D01*
X95662786Y-56654641D01*
X95475987Y-56614936D01*
X95285013Y-56614936D01*
X95279012Y-56614936D01*
X95211973Y-56595251D01*
X95166218Y-56542447D01*
X95155692Y-56503901D01*
X95145042Y-56402570D01*
X95086027Y-56220942D01*
X95000508Y-56072819D01*
X94990542Y-56055557D01*
X94990538Y-56055552D01*
X94984909Y-56049300D01*
X94954679Y-55986308D01*
X94953770Y-55953071D01*
X94960999Y-55885841D01*
X94961000Y-55885827D01*
X94961000Y-55553000D01*
X92491000Y-55553000D01*
X92491000Y-55885844D01*
X92497401Y-55945372D01*
X92497403Y-55945380D01*
X92542640Y-56066667D01*
X92547624Y-56136359D01*
X92514139Y-56197682D01*
X92452815Y-56231166D01*
X92426458Y-56234000D01*
X90558310Y-56234000D01*
X90491271Y-56214315D01*
X90445516Y-56161511D01*
X90440379Y-56148318D01*
X90415850Y-56072824D01*
X90415847Y-56072818D01*
X90412296Y-56066667D01*
X90320361Y-55907431D01*
X90192574Y-55765509D01*
X90038073Y-55653257D01*
X89863609Y-55575581D01*
X89863607Y-55575580D01*
X89676808Y-55535875D01*
X89620087Y-55535875D01*
X89553048Y-55516190D01*
X89532405Y-55499555D01*
X89488964Y-55456113D01*
X89488960Y-55456110D01*
X89385209Y-55386785D01*
X89385200Y-55386780D01*
X89269913Y-55339027D01*
X89269905Y-55339025D01*
X89147526Y-55314682D01*
X89147522Y-55314682D01*
X88011949Y-55314682D01*
X87944910Y-55294997D01*
X87924268Y-55278363D01*
X87410819Y-54764914D01*
X87377334Y-54703591D01*
X87374500Y-54677233D01*
X87374500Y-50732766D01*
X87394185Y-50665727D01*
X87410819Y-50645085D01*
X87475085Y-50580819D01*
X87536408Y-50547334D01*
X87562766Y-50544500D01*
X91806018Y-50544500D01*
X91873057Y-50564185D01*
G37*
%TD.AperFunction*%
%TA.AperFunction,Conductor*%
G36*
X104924433Y-46568984D02*
G01*
X104980367Y-46610855D01*
X105004784Y-46676320D01*
X105005100Y-46685166D01*
X105005100Y-47380441D01*
X104985415Y-47447480D01*
X104973250Y-47463413D01*
X104899563Y-47545250D01*
X104899558Y-47545257D01*
X104804073Y-47710643D01*
X104804070Y-47710650D01*
X104745059Y-47892268D01*
X104745058Y-47892272D01*
X104725096Y-48082200D01*
X104745058Y-48272128D01*
X104745059Y-48272131D01*
X104804070Y-48453749D01*
X104804073Y-48453756D01*
X104899560Y-48619144D01*
X104930892Y-48653942D01*
X104957551Y-48683550D01*
X104987781Y-48746542D01*
X104979155Y-48815877D01*
X104934414Y-48869542D01*
X104884235Y-48887783D01*
X104884341Y-48888229D01*
X104880541Y-48889126D01*
X104878659Y-48889811D01*
X104876796Y-48890011D01*
X104876795Y-48890011D01*
X104739795Y-48941111D01*
X104622739Y-49028739D01*
X104535111Y-49145795D01*
X104484011Y-49282795D01*
X104484011Y-49282797D01*
X104477500Y-49343345D01*
X104477500Y-50910219D01*
X104457815Y-50977258D01*
X104445650Y-50993191D01*
X104416963Y-51025050D01*
X104416958Y-51025057D01*
X104321473Y-51190443D01*
X104321470Y-51190450D01*
X104265007Y-51364227D01*
X104262458Y-51372072D01*
X104242496Y-51562000D01*
X104257153Y-51701456D01*
X104244585Y-51770182D01*
X104196853Y-51821206D01*
X104133833Y-51838414D01*
X103130187Y-51838414D01*
X103007808Y-51862757D01*
X103007800Y-51862759D01*
X102892513Y-51910512D01*
X102892504Y-51910517D01*
X102788753Y-51979842D01*
X102788749Y-51979845D01*
X102537915Y-52230681D01*
X102476592Y-52264166D01*
X102450234Y-52267000D01*
X102393513Y-52267000D01*
X102206714Y-52306705D01*
X102206712Y-52306706D01*
X102041709Y-52380170D01*
X102032246Y-52384383D01*
X101877745Y-52496635D01*
X101749959Y-52638557D01*
X101654473Y-52803943D01*
X101654470Y-52803950D01*
X101601990Y-52965469D01*
X101595458Y-52985572D01*
X101593630Y-53002963D01*
X101567046Y-53067575D01*
X101509748Y-53107559D01*
X101470310Y-53113998D01*
X100543264Y-53113998D01*
X100476225Y-53094313D01*
X100455583Y-53077679D01*
X99723401Y-52345497D01*
X99689916Y-52284174D01*
X99694900Y-52214482D01*
X99736772Y-52158549D01*
X99738047Y-52157608D01*
X99798253Y-52113866D01*
X99802160Y-52109527D01*
X99861646Y-52072879D01*
X99894309Y-52068500D01*
X100773395Y-52068500D01*
X100773396Y-52068499D01*
X100895785Y-52044155D01*
X101011075Y-51996400D01*
X101114833Y-51927071D01*
X102092071Y-50949833D01*
X102161400Y-50846075D01*
X102209155Y-50730785D01*
X102233500Y-50608394D01*
X102233500Y-50483606D01*
X102233500Y-48707756D01*
X102253185Y-48640717D01*
X102265346Y-48624788D01*
X102339040Y-48542944D01*
X102434527Y-48377556D01*
X102493542Y-48195928D01*
X102513504Y-48006000D01*
X102493542Y-47816072D01*
X102434527Y-47634444D01*
X102388948Y-47555499D01*
X102372476Y-47487599D01*
X102395329Y-47421572D01*
X102450251Y-47378382D01*
X102496336Y-47369500D01*
X103821395Y-47369500D01*
X103821396Y-47369499D01*
X103943785Y-47345155D01*
X104059075Y-47297400D01*
X104162833Y-47228071D01*
X104793419Y-46597485D01*
X104854742Y-46564000D01*
X104924433Y-46568984D01*
G37*
%TD.AperFunction*%
%TA.AperFunction,Conductor*%
G36*
X98981268Y-40695185D02*
G01*
X99027023Y-40747989D01*
X99037549Y-40786535D01*
X99055458Y-40956928D01*
X99055459Y-40956931D01*
X99114470Y-41138549D01*
X99114473Y-41138556D01*
X99209960Y-41303944D01*
X99301401Y-41405500D01*
X99336647Y-41444645D01*
X99337747Y-41445866D01*
X99492248Y-41558118D01*
X99666712Y-41635794D01*
X99666714Y-41635794D01*
X99666811Y-41635826D01*
X99666860Y-41635859D01*
X99672649Y-41638437D01*
X99672177Y-41639495D01*
X99724489Y-41675259D01*
X99751691Y-41739616D01*
X99752500Y-41753759D01*
X99752500Y-42350654D01*
X99759011Y-42411202D01*
X99759011Y-42411204D01*
X99795995Y-42510358D01*
X99810111Y-42548204D01*
X99897739Y-42665261D01*
X100014796Y-42752889D01*
X100151799Y-42803989D01*
X100179050Y-42806918D01*
X100212345Y-42810499D01*
X100212362Y-42810500D01*
X100542067Y-42810500D01*
X100609106Y-42830185D01*
X100654861Y-42882989D01*
X100664805Y-42952147D01*
X100635780Y-43015703D01*
X100616378Y-43033766D01*
X100522812Y-43103809D01*
X100522809Y-43103812D01*
X100436649Y-43218906D01*
X100436645Y-43218913D01*
X100386403Y-43353620D01*
X100386401Y-43353627D01*
X100380000Y-43413155D01*
X100380000Y-43946000D01*
X101541000Y-43946000D01*
X101608039Y-43965685D01*
X101653794Y-44018489D01*
X101665000Y-44070000D01*
X101665000Y-44322000D01*
X101645315Y-44389039D01*
X101592511Y-44434794D01*
X101541000Y-44446000D01*
X100380000Y-44446000D01*
X100380000Y-44978844D01*
X100386401Y-45038372D01*
X100386403Y-45038379D01*
X100436645Y-45173086D01*
X100436649Y-45173093D01*
X100522809Y-45288186D01*
X100593739Y-45341285D01*
X100635610Y-45397219D01*
X100640594Y-45466911D01*
X100637359Y-45478870D01*
X100579459Y-45657068D01*
X100579458Y-45657072D01*
X100559496Y-45847000D01*
X100564629Y-45895842D01*
X100571955Y-45965539D01*
X100559385Y-46034268D01*
X100511653Y-46085292D01*
X100448634Y-46102500D01*
X100008766Y-46102500D01*
X99941727Y-46082815D01*
X99921085Y-46066181D01*
X99625620Y-45770716D01*
X99592135Y-45709393D01*
X99589983Y-45696015D01*
X99572542Y-45530072D01*
X99513527Y-45348444D01*
X99418040Y-45183056D01*
X99418036Y-45183050D01*
X99344350Y-45101213D01*
X99314120Y-45038221D01*
X99312500Y-45018241D01*
X99312500Y-44924442D01*
X99312499Y-44924438D01*
X99290607Y-44814379D01*
X99288155Y-44802052D01*
X99240400Y-44686762D01*
X99240399Y-44686761D01*
X99240396Y-44686755D01*
X99171072Y-44583005D01*
X99171071Y-44583004D01*
X99082833Y-44494766D01*
X98984468Y-44396401D01*
X98950983Y-44335078D01*
X98948149Y-44308720D01*
X98948149Y-41610254D01*
X98948148Y-41610250D01*
X98940222Y-41570403D01*
X98923804Y-41487864D01*
X98876049Y-41372574D01*
X98876048Y-41372573D01*
X98876045Y-41372567D01*
X98806721Y-41268817D01*
X98765901Y-41227997D01*
X98718482Y-41180578D01*
X98425085Y-40887181D01*
X98391600Y-40825858D01*
X98396584Y-40756166D01*
X98438456Y-40700233D01*
X98503920Y-40675816D01*
X98512766Y-40675500D01*
X98914229Y-40675500D01*
X98981268Y-40695185D01*
G37*
%TD.AperFunction*%
%TA.AperFunction,Conductor*%
G36*
X118998154Y-37958358D02*
G01*
X119020669Y-37976173D01*
X119175315Y-38130819D01*
X119208800Y-38192142D01*
X119203816Y-38261834D01*
X119161944Y-38317767D01*
X119096480Y-38342184D01*
X119087634Y-38342500D01*
X118121145Y-38342500D01*
X118060597Y-38349011D01*
X118060595Y-38349011D01*
X117923595Y-38400111D01*
X117806539Y-38487739D01*
X117718911Y-38604795D01*
X117667811Y-38741795D01*
X117667811Y-38741797D01*
X117661300Y-38802345D01*
X117661300Y-40699651D01*
X117666203Y-40745243D01*
X117653799Y-40814003D01*
X117606189Y-40865141D01*
X117542914Y-40882500D01*
X117495766Y-40882500D01*
X117428727Y-40862815D01*
X117408085Y-40846181D01*
X116664619Y-40102715D01*
X116631134Y-40041392D01*
X116628300Y-40015034D01*
X116628300Y-38802362D01*
X116628299Y-38802345D01*
X116624170Y-38763944D01*
X116621789Y-38741799D01*
X116570689Y-38604796D01*
X116483061Y-38487739D01*
X116366004Y-38400111D01*
X116331877Y-38387382D01*
X116229003Y-38349011D01*
X116168454Y-38342500D01*
X116168438Y-38342500D01*
X115021162Y-38342500D01*
X115021145Y-38342500D01*
X114960597Y-38349011D01*
X114960595Y-38349011D01*
X114823595Y-38400111D01*
X114706539Y-38487739D01*
X114618911Y-38604795D01*
X114567811Y-38741795D01*
X114567811Y-38741797D01*
X114561300Y-38802345D01*
X114561300Y-38993500D01*
X114541615Y-39060539D01*
X114488811Y-39106294D01*
X114437300Y-39117500D01*
X112699766Y-39117500D01*
X112632727Y-39097815D01*
X112586972Y-39045011D01*
X112577028Y-38975853D01*
X112606053Y-38912297D01*
X112612085Y-38905819D01*
X113433885Y-38084019D01*
X113495208Y-38050534D01*
X113521566Y-38047700D01*
X118604195Y-38047700D01*
X118604196Y-38047699D01*
X118726585Y-38023355D01*
X118841875Y-37975600D01*
X118864097Y-37960751D01*
X118930773Y-37939874D01*
X118998154Y-37958358D01*
G37*
%TD.AperFunction*%
%TA.AperFunction,Conductor*%
G36*
X100653881Y-29396685D02*
G01*
X100699636Y-29449489D01*
X100709580Y-29518647D01*
X100703024Y-29544333D01*
X100682403Y-29599620D01*
X100682401Y-29599627D01*
X100676000Y-29659155D01*
X100676000Y-30357000D01*
X102726000Y-30357000D01*
X102726000Y-29659172D01*
X102725999Y-29659155D01*
X102719598Y-29599627D01*
X102719596Y-29599620D01*
X102698976Y-29544333D01*
X102693992Y-29474641D01*
X102727477Y-29413318D01*
X102788800Y-29379834D01*
X102815158Y-29377000D01*
X103677771Y-29377000D01*
X103744810Y-29396685D01*
X103790565Y-29449489D01*
X103800509Y-29518647D01*
X103793952Y-29544335D01*
X103774011Y-29597795D01*
X103774011Y-29597797D01*
X103767500Y-29658345D01*
X103767500Y-31555654D01*
X103774010Y-31616201D01*
X103792502Y-31665777D01*
X103797486Y-31735469D01*
X103764002Y-31796792D01*
X103702679Y-31830277D01*
X103632987Y-31825293D01*
X103629704Y-31823794D01*
X103488379Y-31771083D01*
X103488372Y-31771081D01*
X103428844Y-31764680D01*
X102840797Y-31764680D01*
X102773758Y-31744995D01*
X102728003Y-31692191D01*
X102718059Y-31623033D01*
X102719463Y-31615628D01*
X102725999Y-31554844D01*
X102726000Y-31554827D01*
X102726000Y-30857000D01*
X100676000Y-30857000D01*
X100676000Y-31554844D01*
X100682401Y-31614372D01*
X100682403Y-31614379D01*
X100732645Y-31749086D01*
X100732649Y-31749093D01*
X100818809Y-31864187D01*
X100818812Y-31864190D01*
X100933906Y-31950350D01*
X100933913Y-31950354D01*
X101068620Y-32000596D01*
X101068627Y-32000598D01*
X101128155Y-32006999D01*
X101128172Y-32007000D01*
X101236203Y-32007000D01*
X101303242Y-32026685D01*
X101348997Y-32079489D01*
X101358941Y-32148647D01*
X101357536Y-32156051D01*
X101351000Y-32216835D01*
X101351000Y-32779680D01*
X102171440Y-32779680D01*
X102140755Y-32832827D01*
X102106000Y-32962537D01*
X102106000Y-33096823D01*
X102140755Y-33226533D01*
X102171440Y-33279680D01*
X101351000Y-33279680D01*
X101351000Y-33842524D01*
X101357401Y-33902052D01*
X101357403Y-33902059D01*
X101407645Y-34036766D01*
X101407649Y-34036773D01*
X101493809Y-34151867D01*
X101493812Y-34151870D01*
X101608906Y-34238030D01*
X101608913Y-34238034D01*
X101743620Y-34288276D01*
X101743627Y-34288278D01*
X101803155Y-34294679D01*
X101803172Y-34294680D01*
X102366000Y-34294680D01*
X102366000Y-33474240D01*
X102419147Y-33504925D01*
X102548857Y-33539680D01*
X102683143Y-33539680D01*
X102812853Y-33504925D01*
X102866000Y-33474240D01*
X102866000Y-34294680D01*
X103428828Y-34294680D01*
X103428844Y-34294679D01*
X103488372Y-34288278D01*
X103488379Y-34288276D01*
X103623086Y-34238034D01*
X103623093Y-34238030D01*
X103738187Y-34151870D01*
X103738190Y-34151867D01*
X103824350Y-34036773D01*
X103824354Y-34036766D01*
X103874596Y-33902059D01*
X103874598Y-33902052D01*
X103880999Y-33842524D01*
X103881000Y-33842507D01*
X103881000Y-33822349D01*
X103900685Y-33755310D01*
X103953489Y-33709555D01*
X104022647Y-33699611D01*
X104086203Y-33728636D01*
X104106570Y-33751220D01*
X104156376Y-33822349D01*
X104176716Y-33851397D01*
X104334279Y-34008960D01*
X104334289Y-34008969D01*
X104459366Y-34096549D01*
X104516817Y-34136777D01*
X104619591Y-34184701D01*
X104718766Y-34230947D01*
X104718768Y-34230947D01*
X104718773Y-34230950D01*
X104718778Y-34230951D01*
X104718780Y-34230952D01*
X104745196Y-34238030D01*
X104934014Y-34288624D01*
X105092575Y-34302496D01*
X105155998Y-34308045D01*
X105156000Y-34308045D01*
X105156002Y-34308045D01*
X105211496Y-34303189D01*
X105377986Y-34288624D01*
X105593227Y-34230950D01*
X105795183Y-34136777D01*
X105977717Y-34008964D01*
X106135284Y-33851397D01*
X106263097Y-33668863D01*
X106313618Y-33560520D01*
X106359790Y-33508080D01*
X106426983Y-33488928D01*
X106493865Y-33509144D01*
X106538382Y-33560520D01*
X106588901Y-33668859D01*
X106588907Y-33668869D01*
X106716710Y-33851390D01*
X106716714Y-33851395D01*
X106716716Y-33851397D01*
X106874283Y-34008964D01*
X107047316Y-34130124D01*
X107090940Y-34184701D01*
X107098132Y-34254199D01*
X107066610Y-34316554D01*
X107035620Y-34340529D01*
X107029909Y-34343647D01*
X106914812Y-34429809D01*
X106914809Y-34429812D01*
X106828649Y-34544906D01*
X106828645Y-34544913D01*
X106778403Y-34679620D01*
X106778401Y-34679627D01*
X106772000Y-34739155D01*
X106772000Y-35437000D01*
X108822000Y-35437000D01*
X108822000Y-34739172D01*
X108821999Y-34739155D01*
X108815598Y-34679627D01*
X108815596Y-34679620D01*
X108765354Y-34544913D01*
X108765350Y-34544906D01*
X108679190Y-34429812D01*
X108679187Y-34429809D01*
X108564093Y-34343649D01*
X108564086Y-34343645D01*
X108443013Y-34298488D01*
X108387079Y-34256617D01*
X108362662Y-34191152D01*
X108377514Y-34122879D01*
X108415221Y-34080733D01*
X108517717Y-34008964D01*
X108675284Y-33851397D01*
X108803097Y-33668863D01*
X108853618Y-33560520D01*
X108899790Y-33508080D01*
X108966983Y-33488928D01*
X109033865Y-33509144D01*
X109078382Y-33560520D01*
X109128901Y-33668859D01*
X109128907Y-33668869D01*
X109256710Y-33851390D01*
X109256719Y-33851400D01*
X109414279Y-34008960D01*
X109414289Y-34008969D01*
X109539366Y-34096549D01*
X109596817Y-34136777D01*
X109699591Y-34184701D01*
X109798766Y-34230947D01*
X109798768Y-34230947D01*
X109798773Y-34230950D01*
X109798778Y-34230951D01*
X109798780Y-34230952D01*
X109916899Y-34262602D01*
X109976560Y-34298967D01*
X110007089Y-34361814D01*
X109998794Y-34431190D01*
X109984073Y-34456687D01*
X109921112Y-34540793D01*
X109921111Y-34540793D01*
X109870011Y-34677795D01*
X109870011Y-34677797D01*
X109863500Y-34738345D01*
X109863500Y-36635654D01*
X109870011Y-36696202D01*
X109870011Y-36696204D01*
X109905179Y-36790489D01*
X109921111Y-36833204D01*
X109948051Y-36869192D01*
X109961524Y-36887189D01*
X109985941Y-36952653D01*
X109971089Y-37020926D01*
X109921684Y-37070332D01*
X109862257Y-37085500D01*
X109665602Y-37085500D01*
X109543219Y-37109843D01*
X109543214Y-37109845D01*
X109509448Y-37123829D01*
X109509449Y-37123830D01*
X109427926Y-37157598D01*
X109427922Y-37157600D01*
X109324171Y-37226924D01*
X109324163Y-37226930D01*
X107809301Y-38741795D01*
X107598667Y-38952429D01*
X107575243Y-38975853D01*
X107510426Y-39040669D01*
X107510425Y-39040671D01*
X107441101Y-39144421D01*
X107441100Y-39144424D01*
X107405015Y-39231537D01*
X107378136Y-39271763D01*
X107306263Y-39343636D01*
X107266037Y-39370515D01*
X107178924Y-39406600D01*
X107178921Y-39406601D01*
X107075171Y-39475925D01*
X107075163Y-39475931D01*
X105881757Y-40669337D01*
X105820434Y-40702822D01*
X105750742Y-40697838D01*
X105701926Y-40664629D01*
X105640252Y-40596133D01*
X105563002Y-40540008D01*
X105485752Y-40483882D01*
X105311288Y-40406206D01*
X105311286Y-40406205D01*
X105124487Y-40366500D01*
X104989274Y-40366500D01*
X104922235Y-40346815D01*
X104876480Y-40294011D01*
X104873092Y-40285833D01*
X104861889Y-40255796D01*
X104861886Y-40255793D01*
X104861886Y-40255791D01*
X104841892Y-40229082D01*
X104817475Y-40163618D01*
X104824978Y-40111437D01*
X104849542Y-40045581D01*
X104851976Y-40022940D01*
X104856052Y-39985034D01*
X104856053Y-39985017D01*
X104856053Y-38817742D01*
X104856052Y-38817725D01*
X104851338Y-38773884D01*
X104849542Y-38757179D01*
X104846567Y-38749204D01*
X104822374Y-38684341D01*
X104798442Y-38620176D01*
X104798441Y-38620174D01*
X104795599Y-38612555D01*
X104790614Y-38542863D01*
X104795598Y-38525886D01*
X104841150Y-38403756D01*
X104841151Y-38403752D01*
X104847552Y-38344224D01*
X104847553Y-38344207D01*
X104847553Y-38011380D01*
X102377553Y-38011380D01*
X102377553Y-38228813D01*
X102357868Y-38295852D01*
X102305064Y-38341607D01*
X102235906Y-38351551D01*
X102227772Y-38350103D01*
X102186940Y-38341424D01*
X102125458Y-38308232D01*
X102125040Y-38307815D01*
X100995760Y-37178535D01*
X102377553Y-37178535D01*
X102377553Y-37511380D01*
X103362553Y-37511380D01*
X103862553Y-37511380D01*
X104847553Y-37511380D01*
X104847553Y-37178552D01*
X104847552Y-37178535D01*
X104841151Y-37119007D01*
X104841149Y-37119000D01*
X104790907Y-36984293D01*
X104790903Y-36984286D01*
X104704743Y-36869192D01*
X104704740Y-36869189D01*
X104589646Y-36783029D01*
X104589639Y-36783025D01*
X104454932Y-36732783D01*
X104454925Y-36732781D01*
X104395397Y-36726380D01*
X103862553Y-36726380D01*
X103862553Y-37511380D01*
X103362553Y-37511380D01*
X103362553Y-36726380D01*
X102829708Y-36726380D01*
X102770180Y-36732781D01*
X102770173Y-36732783D01*
X102635466Y-36783025D01*
X102635459Y-36783029D01*
X102520365Y-36869189D01*
X102520362Y-36869192D01*
X102434202Y-36984286D01*
X102434198Y-36984293D01*
X102383956Y-37119000D01*
X102383954Y-37119007D01*
X102377553Y-37178535D01*
X100995760Y-37178535D01*
X100452069Y-36634844D01*
X106772000Y-36634844D01*
X106778401Y-36694372D01*
X106778403Y-36694379D01*
X106828645Y-36829086D01*
X106828649Y-36829093D01*
X106914809Y-36944187D01*
X106914812Y-36944190D01*
X107029906Y-37030350D01*
X107029913Y-37030354D01*
X107164620Y-37080596D01*
X107164627Y-37080598D01*
X107224155Y-37086999D01*
X107224172Y-37087000D01*
X107547000Y-37087000D01*
X108047000Y-37087000D01*
X108369828Y-37087000D01*
X108369844Y-37086999D01*
X108429372Y-37080598D01*
X108429379Y-37080596D01*
X108564086Y-37030354D01*
X108564093Y-37030350D01*
X108679187Y-36944190D01*
X108679190Y-36944187D01*
X108765350Y-36829093D01*
X108765354Y-36829086D01*
X108815596Y-36694379D01*
X108815598Y-36694372D01*
X108821999Y-36634844D01*
X108822000Y-36634827D01*
X108822000Y-35937000D01*
X108047000Y-35937000D01*
X108047000Y-37087000D01*
X107547000Y-37087000D01*
X107547000Y-35937000D01*
X106772000Y-35937000D01*
X106772000Y-36634844D01*
X100452069Y-36634844D01*
X100260224Y-36442999D01*
X98300106Y-34482882D01*
X98266622Y-34421560D01*
X98271606Y-34351868D01*
X98313478Y-34295935D01*
X98378942Y-34271518D01*
X98398591Y-34271673D01*
X98416000Y-34273197D01*
X98644958Y-34253166D01*
X98866959Y-34193681D01*
X99075259Y-34096549D01*
X99263526Y-33964723D01*
X99426043Y-33802206D01*
X99557869Y-33613939D01*
X99655001Y-33405639D01*
X99714486Y-33183638D01*
X99734517Y-32954680D01*
X99714486Y-32725722D01*
X99667459Y-32550216D01*
X99655003Y-32503728D01*
X99655002Y-32503727D01*
X99655001Y-32503721D01*
X99557869Y-32295422D01*
X99450568Y-32142179D01*
X99426041Y-32107151D01*
X99350973Y-32032083D01*
X99317488Y-31970760D01*
X99322472Y-31901068D01*
X99339383Y-31870097D01*
X99426889Y-31753204D01*
X99475854Y-31621924D01*
X99477988Y-31616204D01*
X99477988Y-31616203D01*
X99477989Y-31616201D01*
X99481591Y-31582692D01*
X99484499Y-31555654D01*
X99484500Y-31555637D01*
X99484500Y-29658362D01*
X99484499Y-29658345D01*
X99481157Y-29627270D01*
X99477989Y-29597799D01*
X99462691Y-29556785D01*
X99458048Y-29544335D01*
X99453062Y-29474643D01*
X99486547Y-29413320D01*
X99547870Y-29379834D01*
X99574229Y-29377000D01*
X100586842Y-29377000D01*
X100653881Y-29396685D01*
G37*
%TD.AperFunction*%
%TD*%
M02*
