%TF.GenerationSoftware,KiCad,Pcbnew,8.0.0*%
%TF.CreationDate,2024-06-23T16:30:46+02:00*%
%TF.ProjectId,TSAL,5453414c-2e6b-4696-9361-645f70636258,V2.1*%
%TF.SameCoordinates,Original*%
%TF.FileFunction,Legend,Bot*%
%TF.FilePolarity,Positive*%
%FSLAX46Y46*%
G04 Gerber Fmt 4.6, Leading zero omitted, Abs format (unit mm)*
G04 Created by KiCad (PCBNEW 8.0.0) date 2024-06-23 16:30:46*
%MOMM*%
%LPD*%
G01*
G04 APERTURE LIST*
%ADD10C,0.087500*%
%ADD11C,0.200000*%
G04 APERTURE END LIST*
D10*
X90758623Y-49250884D02*
X90791956Y-49284218D01*
X90791956Y-49284218D02*
X90891956Y-49317551D01*
X90891956Y-49317551D02*
X90958623Y-49317551D01*
X90958623Y-49317551D02*
X91058623Y-49284218D01*
X91058623Y-49284218D02*
X91125290Y-49217551D01*
X91125290Y-49217551D02*
X91158623Y-49150884D01*
X91158623Y-49150884D02*
X91191956Y-49017551D01*
X91191956Y-49017551D02*
X91191956Y-48917551D01*
X91191956Y-48917551D02*
X91158623Y-48784218D01*
X91158623Y-48784218D02*
X91125290Y-48717551D01*
X91125290Y-48717551D02*
X91058623Y-48650884D01*
X91058623Y-48650884D02*
X90958623Y-48617551D01*
X90958623Y-48617551D02*
X90891956Y-48617551D01*
X90891956Y-48617551D02*
X90791956Y-48650884D01*
X90791956Y-48650884D02*
X90758623Y-48684218D01*
X90091956Y-49317551D02*
X90491956Y-49317551D01*
X90291956Y-49317551D02*
X90291956Y-48617551D01*
X90291956Y-48617551D02*
X90358623Y-48717551D01*
X90358623Y-48717551D02*
X90425290Y-48784218D01*
X90425290Y-48784218D02*
X90491956Y-48817551D01*
X89658623Y-48617551D02*
X89591956Y-48617551D01*
X89591956Y-48617551D02*
X89525289Y-48650884D01*
X89525289Y-48650884D02*
X89491956Y-48684218D01*
X89491956Y-48684218D02*
X89458623Y-48750884D01*
X89458623Y-48750884D02*
X89425289Y-48884218D01*
X89425289Y-48884218D02*
X89425289Y-49050884D01*
X89425289Y-49050884D02*
X89458623Y-49184218D01*
X89458623Y-49184218D02*
X89491956Y-49250884D01*
X89491956Y-49250884D02*
X89525289Y-49284218D01*
X89525289Y-49284218D02*
X89591956Y-49317551D01*
X89591956Y-49317551D02*
X89658623Y-49317551D01*
X89658623Y-49317551D02*
X89725289Y-49284218D01*
X89725289Y-49284218D02*
X89758623Y-49250884D01*
X89758623Y-49250884D02*
X89791956Y-49184218D01*
X89791956Y-49184218D02*
X89825289Y-49050884D01*
X89825289Y-49050884D02*
X89825289Y-48884218D01*
X89825289Y-48884218D02*
X89791956Y-48750884D01*
X89791956Y-48750884D02*
X89758623Y-48684218D01*
X89758623Y-48684218D02*
X89725289Y-48650884D01*
X89725289Y-48650884D02*
X89658623Y-48617551D01*
X84329567Y-37352312D02*
X84562900Y-37018979D01*
X84729567Y-37352312D02*
X84729567Y-36652312D01*
X84729567Y-36652312D02*
X84462900Y-36652312D01*
X84462900Y-36652312D02*
X84396234Y-36685645D01*
X84396234Y-36685645D02*
X84362900Y-36718979D01*
X84362900Y-36718979D02*
X84329567Y-36785645D01*
X84329567Y-36785645D02*
X84329567Y-36885645D01*
X84329567Y-36885645D02*
X84362900Y-36952312D01*
X84362900Y-36952312D02*
X84396234Y-36985645D01*
X84396234Y-36985645D02*
X84462900Y-37018979D01*
X84462900Y-37018979D02*
X84729567Y-37018979D01*
X84096234Y-36652312D02*
X83662900Y-36652312D01*
X83662900Y-36652312D02*
X83896234Y-36918979D01*
X83896234Y-36918979D02*
X83796234Y-36918979D01*
X83796234Y-36918979D02*
X83729567Y-36952312D01*
X83729567Y-36952312D02*
X83696234Y-36985645D01*
X83696234Y-36985645D02*
X83662900Y-37052312D01*
X83662900Y-37052312D02*
X83662900Y-37218979D01*
X83662900Y-37218979D02*
X83696234Y-37285645D01*
X83696234Y-37285645D02*
X83729567Y-37318979D01*
X83729567Y-37318979D02*
X83796234Y-37352312D01*
X83796234Y-37352312D02*
X83996234Y-37352312D01*
X83996234Y-37352312D02*
X84062900Y-37318979D01*
X84062900Y-37318979D02*
X84096234Y-37285645D01*
X94045283Y-30156999D02*
X93711950Y-29923666D01*
X94045283Y-29756999D02*
X93345283Y-29756999D01*
X93345283Y-29756999D02*
X93345283Y-30023666D01*
X93345283Y-30023666D02*
X93378616Y-30090333D01*
X93378616Y-30090333D02*
X93411950Y-30123666D01*
X93411950Y-30123666D02*
X93478616Y-30156999D01*
X93478616Y-30156999D02*
X93578616Y-30156999D01*
X93578616Y-30156999D02*
X93645283Y-30123666D01*
X93645283Y-30123666D02*
X93678616Y-30090333D01*
X93678616Y-30090333D02*
X93711950Y-30023666D01*
X93711950Y-30023666D02*
X93711950Y-29756999D01*
X94045283Y-30823666D02*
X94045283Y-30423666D01*
X94045283Y-30623666D02*
X93345283Y-30623666D01*
X93345283Y-30623666D02*
X93445283Y-30556999D01*
X93445283Y-30556999D02*
X93511950Y-30490333D01*
X93511950Y-30490333D02*
X93545283Y-30423666D01*
X93345283Y-31057000D02*
X93345283Y-31490333D01*
X93345283Y-31490333D02*
X93611950Y-31257000D01*
X93611950Y-31257000D02*
X93611950Y-31357000D01*
X93611950Y-31357000D02*
X93645283Y-31423666D01*
X93645283Y-31423666D02*
X93678616Y-31457000D01*
X93678616Y-31457000D02*
X93745283Y-31490333D01*
X93745283Y-31490333D02*
X93911950Y-31490333D01*
X93911950Y-31490333D02*
X93978616Y-31457000D01*
X93978616Y-31457000D02*
X94011950Y-31423666D01*
X94011950Y-31423666D02*
X94045283Y-31357000D01*
X94045283Y-31357000D02*
X94045283Y-31157000D01*
X94045283Y-31157000D02*
X94011950Y-31090333D01*
X94011950Y-31090333D02*
X93978616Y-31057000D01*
X121785200Y-37047683D02*
X122018533Y-36714350D01*
X122185200Y-37047683D02*
X122185200Y-36347683D01*
X122185200Y-36347683D02*
X121918533Y-36347683D01*
X121918533Y-36347683D02*
X121851867Y-36381016D01*
X121851867Y-36381016D02*
X121818533Y-36414350D01*
X121818533Y-36414350D02*
X121785200Y-36481016D01*
X121785200Y-36481016D02*
X121785200Y-36581016D01*
X121785200Y-36581016D02*
X121818533Y-36647683D01*
X121818533Y-36647683D02*
X121851867Y-36681016D01*
X121851867Y-36681016D02*
X121918533Y-36714350D01*
X121918533Y-36714350D02*
X122185200Y-36714350D01*
X121551867Y-36347683D02*
X121118533Y-36347683D01*
X121118533Y-36347683D02*
X121351867Y-36614350D01*
X121351867Y-36614350D02*
X121251867Y-36614350D01*
X121251867Y-36614350D02*
X121185200Y-36647683D01*
X121185200Y-36647683D02*
X121151867Y-36681016D01*
X121151867Y-36681016D02*
X121118533Y-36747683D01*
X121118533Y-36747683D02*
X121118533Y-36914350D01*
X121118533Y-36914350D02*
X121151867Y-36981016D01*
X121151867Y-36981016D02*
X121185200Y-37014350D01*
X121185200Y-37014350D02*
X121251867Y-37047683D01*
X121251867Y-37047683D02*
X121451867Y-37047683D01*
X121451867Y-37047683D02*
X121518533Y-37014350D01*
X121518533Y-37014350D02*
X121551867Y-36981016D01*
X120785200Y-37047683D02*
X120651866Y-37047683D01*
X120651866Y-37047683D02*
X120585200Y-37014350D01*
X120585200Y-37014350D02*
X120551866Y-36981016D01*
X120551866Y-36981016D02*
X120485200Y-36881016D01*
X120485200Y-36881016D02*
X120451866Y-36747683D01*
X120451866Y-36747683D02*
X120451866Y-36481016D01*
X120451866Y-36481016D02*
X120485200Y-36414350D01*
X120485200Y-36414350D02*
X120518533Y-36381016D01*
X120518533Y-36381016D02*
X120585200Y-36347683D01*
X120585200Y-36347683D02*
X120718533Y-36347683D01*
X120718533Y-36347683D02*
X120785200Y-36381016D01*
X120785200Y-36381016D02*
X120818533Y-36414350D01*
X120818533Y-36414350D02*
X120851866Y-36481016D01*
X120851866Y-36481016D02*
X120851866Y-36647683D01*
X120851866Y-36647683D02*
X120818533Y-36714350D01*
X120818533Y-36714350D02*
X120785200Y-36747683D01*
X120785200Y-36747683D02*
X120718533Y-36781016D01*
X120718533Y-36781016D02*
X120585200Y-36781016D01*
X120585200Y-36781016D02*
X120518533Y-36747683D01*
X120518533Y-36747683D02*
X120485200Y-36714350D01*
X120485200Y-36714350D02*
X120451866Y-36647683D01*
X95065000Y-49976283D02*
X95298333Y-49642950D01*
X95465000Y-49976283D02*
X95465000Y-49276283D01*
X95465000Y-49276283D02*
X95198333Y-49276283D01*
X95198333Y-49276283D02*
X95131667Y-49309616D01*
X95131667Y-49309616D02*
X95098333Y-49342950D01*
X95098333Y-49342950D02*
X95065000Y-49409616D01*
X95065000Y-49409616D02*
X95065000Y-49509616D01*
X95065000Y-49509616D02*
X95098333Y-49576283D01*
X95098333Y-49576283D02*
X95131667Y-49609616D01*
X95131667Y-49609616D02*
X95198333Y-49642950D01*
X95198333Y-49642950D02*
X95465000Y-49642950D01*
X94831667Y-49276283D02*
X94398333Y-49276283D01*
X94398333Y-49276283D02*
X94631667Y-49542950D01*
X94631667Y-49542950D02*
X94531667Y-49542950D01*
X94531667Y-49542950D02*
X94465000Y-49576283D01*
X94465000Y-49576283D02*
X94431667Y-49609616D01*
X94431667Y-49609616D02*
X94398333Y-49676283D01*
X94398333Y-49676283D02*
X94398333Y-49842950D01*
X94398333Y-49842950D02*
X94431667Y-49909616D01*
X94431667Y-49909616D02*
X94465000Y-49942950D01*
X94465000Y-49942950D02*
X94531667Y-49976283D01*
X94531667Y-49976283D02*
X94731667Y-49976283D01*
X94731667Y-49976283D02*
X94798333Y-49942950D01*
X94798333Y-49942950D02*
X94831667Y-49909616D01*
X93731666Y-49976283D02*
X94131666Y-49976283D01*
X93931666Y-49976283D02*
X93931666Y-49276283D01*
X93931666Y-49276283D02*
X93998333Y-49376283D01*
X93998333Y-49376283D02*
X94065000Y-49442950D01*
X94065000Y-49442950D02*
X94131666Y-49476283D01*
X112993854Y-77212834D02*
X112660521Y-76979501D01*
X112993854Y-76812834D02*
X112293854Y-76812834D01*
X112293854Y-76812834D02*
X112293854Y-77079501D01*
X112293854Y-77079501D02*
X112327187Y-77146168D01*
X112327187Y-77146168D02*
X112360521Y-77179501D01*
X112360521Y-77179501D02*
X112427187Y-77212834D01*
X112427187Y-77212834D02*
X112527187Y-77212834D01*
X112527187Y-77212834D02*
X112593854Y-77179501D01*
X112593854Y-77179501D02*
X112627187Y-77146168D01*
X112627187Y-77146168D02*
X112660521Y-77079501D01*
X112660521Y-77079501D02*
X112660521Y-76812834D01*
X112993854Y-77879501D02*
X112993854Y-77479501D01*
X112993854Y-77679501D02*
X112293854Y-77679501D01*
X112293854Y-77679501D02*
X112393854Y-77612834D01*
X112393854Y-77612834D02*
X112460521Y-77546168D01*
X112460521Y-77546168D02*
X112493854Y-77479501D01*
X84404567Y-56148312D02*
X84637900Y-55814979D01*
X84804567Y-56148312D02*
X84804567Y-55448312D01*
X84804567Y-55448312D02*
X84537900Y-55448312D01*
X84537900Y-55448312D02*
X84471234Y-55481645D01*
X84471234Y-55481645D02*
X84437900Y-55514979D01*
X84437900Y-55514979D02*
X84404567Y-55581645D01*
X84404567Y-55581645D02*
X84404567Y-55681645D01*
X84404567Y-55681645D02*
X84437900Y-55748312D01*
X84437900Y-55748312D02*
X84471234Y-55781645D01*
X84471234Y-55781645D02*
X84537900Y-55814979D01*
X84537900Y-55814979D02*
X84804567Y-55814979D01*
X84004567Y-55748312D02*
X84071234Y-55714979D01*
X84071234Y-55714979D02*
X84104567Y-55681645D01*
X84104567Y-55681645D02*
X84137900Y-55614979D01*
X84137900Y-55614979D02*
X84137900Y-55581645D01*
X84137900Y-55581645D02*
X84104567Y-55514979D01*
X84104567Y-55514979D02*
X84071234Y-55481645D01*
X84071234Y-55481645D02*
X84004567Y-55448312D01*
X84004567Y-55448312D02*
X83871234Y-55448312D01*
X83871234Y-55448312D02*
X83804567Y-55481645D01*
X83804567Y-55481645D02*
X83771234Y-55514979D01*
X83771234Y-55514979D02*
X83737900Y-55581645D01*
X83737900Y-55581645D02*
X83737900Y-55614979D01*
X83737900Y-55614979D02*
X83771234Y-55681645D01*
X83771234Y-55681645D02*
X83804567Y-55714979D01*
X83804567Y-55714979D02*
X83871234Y-55748312D01*
X83871234Y-55748312D02*
X84004567Y-55748312D01*
X84004567Y-55748312D02*
X84071234Y-55781645D01*
X84071234Y-55781645D02*
X84104567Y-55814979D01*
X84104567Y-55814979D02*
X84137900Y-55881645D01*
X84137900Y-55881645D02*
X84137900Y-56014979D01*
X84137900Y-56014979D02*
X84104567Y-56081645D01*
X84104567Y-56081645D02*
X84071234Y-56114979D01*
X84071234Y-56114979D02*
X84004567Y-56148312D01*
X84004567Y-56148312D02*
X83871234Y-56148312D01*
X83871234Y-56148312D02*
X83804567Y-56114979D01*
X83804567Y-56114979D02*
X83771234Y-56081645D01*
X83771234Y-56081645D02*
X83737900Y-56014979D01*
X83737900Y-56014979D02*
X83737900Y-55881645D01*
X83737900Y-55881645D02*
X83771234Y-55814979D01*
X83771234Y-55814979D02*
X83804567Y-55781645D01*
X83804567Y-55781645D02*
X83871234Y-55748312D01*
X93969666Y-45658283D02*
X94202999Y-45324950D01*
X94369666Y-45658283D02*
X94369666Y-44958283D01*
X94369666Y-44958283D02*
X94102999Y-44958283D01*
X94102999Y-44958283D02*
X94036333Y-44991616D01*
X94036333Y-44991616D02*
X94002999Y-45024950D01*
X94002999Y-45024950D02*
X93969666Y-45091616D01*
X93969666Y-45091616D02*
X93969666Y-45191616D01*
X93969666Y-45191616D02*
X94002999Y-45258283D01*
X94002999Y-45258283D02*
X94036333Y-45291616D01*
X94036333Y-45291616D02*
X94102999Y-45324950D01*
X94102999Y-45324950D02*
X94369666Y-45324950D01*
X93636333Y-45658283D02*
X93502999Y-45658283D01*
X93502999Y-45658283D02*
X93436333Y-45624950D01*
X93436333Y-45624950D02*
X93402999Y-45591616D01*
X93402999Y-45591616D02*
X93336333Y-45491616D01*
X93336333Y-45491616D02*
X93302999Y-45358283D01*
X93302999Y-45358283D02*
X93302999Y-45091616D01*
X93302999Y-45091616D02*
X93336333Y-45024950D01*
X93336333Y-45024950D02*
X93369666Y-44991616D01*
X93369666Y-44991616D02*
X93436333Y-44958283D01*
X93436333Y-44958283D02*
X93569666Y-44958283D01*
X93569666Y-44958283D02*
X93636333Y-44991616D01*
X93636333Y-44991616D02*
X93669666Y-45024950D01*
X93669666Y-45024950D02*
X93702999Y-45091616D01*
X93702999Y-45091616D02*
X93702999Y-45258283D01*
X93702999Y-45258283D02*
X93669666Y-45324950D01*
X93669666Y-45324950D02*
X93636333Y-45358283D01*
X93636333Y-45358283D02*
X93569666Y-45391616D01*
X93569666Y-45391616D02*
X93436333Y-45391616D01*
X93436333Y-45391616D02*
X93369666Y-45358283D01*
X93369666Y-45358283D02*
X93336333Y-45324950D01*
X93336333Y-45324950D02*
X93302999Y-45258283D01*
X95732884Y-58731999D02*
X95766218Y-58698666D01*
X95766218Y-58698666D02*
X95799551Y-58598666D01*
X95799551Y-58598666D02*
X95799551Y-58531999D01*
X95799551Y-58531999D02*
X95766218Y-58431999D01*
X95766218Y-58431999D02*
X95699551Y-58365333D01*
X95699551Y-58365333D02*
X95632884Y-58331999D01*
X95632884Y-58331999D02*
X95499551Y-58298666D01*
X95499551Y-58298666D02*
X95399551Y-58298666D01*
X95399551Y-58298666D02*
X95266218Y-58331999D01*
X95266218Y-58331999D02*
X95199551Y-58365333D01*
X95199551Y-58365333D02*
X95132884Y-58431999D01*
X95132884Y-58431999D02*
X95099551Y-58531999D01*
X95099551Y-58531999D02*
X95099551Y-58598666D01*
X95099551Y-58598666D02*
X95132884Y-58698666D01*
X95132884Y-58698666D02*
X95166218Y-58731999D01*
X95799551Y-59398666D02*
X95799551Y-58998666D01*
X95799551Y-59198666D02*
X95099551Y-59198666D01*
X95099551Y-59198666D02*
X95199551Y-59131999D01*
X95199551Y-59131999D02*
X95266218Y-59065333D01*
X95266218Y-59065333D02*
X95299551Y-58998666D01*
X95166218Y-59665333D02*
X95132884Y-59698666D01*
X95132884Y-59698666D02*
X95099551Y-59765333D01*
X95099551Y-59765333D02*
X95099551Y-59932000D01*
X95099551Y-59932000D02*
X95132884Y-59998666D01*
X95132884Y-59998666D02*
X95166218Y-60032000D01*
X95166218Y-60032000D02*
X95232884Y-60065333D01*
X95232884Y-60065333D02*
X95299551Y-60065333D01*
X95299551Y-60065333D02*
X95399551Y-60032000D01*
X95399551Y-60032000D02*
X95799551Y-59632000D01*
X95799551Y-59632000D02*
X95799551Y-60065333D01*
X105408616Y-38476336D02*
X105441950Y-38443003D01*
X105441950Y-38443003D02*
X105475283Y-38343003D01*
X105475283Y-38343003D02*
X105475283Y-38276336D01*
X105475283Y-38276336D02*
X105441950Y-38176336D01*
X105441950Y-38176336D02*
X105375283Y-38109670D01*
X105375283Y-38109670D02*
X105308616Y-38076336D01*
X105308616Y-38076336D02*
X105175283Y-38043003D01*
X105175283Y-38043003D02*
X105075283Y-38043003D01*
X105075283Y-38043003D02*
X104941950Y-38076336D01*
X104941950Y-38076336D02*
X104875283Y-38109670D01*
X104875283Y-38109670D02*
X104808616Y-38176336D01*
X104808616Y-38176336D02*
X104775283Y-38276336D01*
X104775283Y-38276336D02*
X104775283Y-38343003D01*
X104775283Y-38343003D02*
X104808616Y-38443003D01*
X104808616Y-38443003D02*
X104841950Y-38476336D01*
X105475283Y-38809670D02*
X105475283Y-38943003D01*
X105475283Y-38943003D02*
X105441950Y-39009670D01*
X105441950Y-39009670D02*
X105408616Y-39043003D01*
X105408616Y-39043003D02*
X105308616Y-39109670D01*
X105308616Y-39109670D02*
X105175283Y-39143003D01*
X105175283Y-39143003D02*
X104908616Y-39143003D01*
X104908616Y-39143003D02*
X104841950Y-39109670D01*
X104841950Y-39109670D02*
X104808616Y-39076336D01*
X104808616Y-39076336D02*
X104775283Y-39009670D01*
X104775283Y-39009670D02*
X104775283Y-38876336D01*
X104775283Y-38876336D02*
X104808616Y-38809670D01*
X104808616Y-38809670D02*
X104841950Y-38776336D01*
X104841950Y-38776336D02*
X104908616Y-38743003D01*
X104908616Y-38743003D02*
X105075283Y-38743003D01*
X105075283Y-38743003D02*
X105141950Y-38776336D01*
X105141950Y-38776336D02*
X105175283Y-38809670D01*
X105175283Y-38809670D02*
X105208616Y-38876336D01*
X105208616Y-38876336D02*
X105208616Y-39009670D01*
X105208616Y-39009670D02*
X105175283Y-39076336D01*
X105175283Y-39076336D02*
X105141950Y-39109670D01*
X105141950Y-39109670D02*
X105075283Y-39143003D01*
X118734083Y-35451099D02*
X118400750Y-35217766D01*
X118734083Y-35051099D02*
X118034083Y-35051099D01*
X118034083Y-35051099D02*
X118034083Y-35317766D01*
X118034083Y-35317766D02*
X118067416Y-35384433D01*
X118067416Y-35384433D02*
X118100750Y-35417766D01*
X118100750Y-35417766D02*
X118167416Y-35451099D01*
X118167416Y-35451099D02*
X118267416Y-35451099D01*
X118267416Y-35451099D02*
X118334083Y-35417766D01*
X118334083Y-35417766D02*
X118367416Y-35384433D01*
X118367416Y-35384433D02*
X118400750Y-35317766D01*
X118400750Y-35317766D02*
X118400750Y-35051099D01*
X118734083Y-36117766D02*
X118734083Y-35717766D01*
X118734083Y-35917766D02*
X118034083Y-35917766D01*
X118034083Y-35917766D02*
X118134083Y-35851099D01*
X118134083Y-35851099D02*
X118200750Y-35784433D01*
X118200750Y-35784433D02*
X118234083Y-35717766D01*
X118034083Y-36751100D02*
X118034083Y-36417766D01*
X118034083Y-36417766D02*
X118367416Y-36384433D01*
X118367416Y-36384433D02*
X118334083Y-36417766D01*
X118334083Y-36417766D02*
X118300750Y-36484433D01*
X118300750Y-36484433D02*
X118300750Y-36651100D01*
X118300750Y-36651100D02*
X118334083Y-36717766D01*
X118334083Y-36717766D02*
X118367416Y-36751100D01*
X118367416Y-36751100D02*
X118434083Y-36784433D01*
X118434083Y-36784433D02*
X118600750Y-36784433D01*
X118600750Y-36784433D02*
X118667416Y-36751100D01*
X118667416Y-36751100D02*
X118700750Y-36717766D01*
X118700750Y-36717766D02*
X118734083Y-36651100D01*
X118734083Y-36651100D02*
X118734083Y-36484433D01*
X118734083Y-36484433D02*
X118700750Y-36417766D01*
X118700750Y-36417766D02*
X118667416Y-36384433D01*
X112460283Y-30156999D02*
X112126950Y-29923666D01*
X112460283Y-29756999D02*
X111760283Y-29756999D01*
X111760283Y-29756999D02*
X111760283Y-30023666D01*
X111760283Y-30023666D02*
X111793616Y-30090333D01*
X111793616Y-30090333D02*
X111826950Y-30123666D01*
X111826950Y-30123666D02*
X111893616Y-30156999D01*
X111893616Y-30156999D02*
X111993616Y-30156999D01*
X111993616Y-30156999D02*
X112060283Y-30123666D01*
X112060283Y-30123666D02*
X112093616Y-30090333D01*
X112093616Y-30090333D02*
X112126950Y-30023666D01*
X112126950Y-30023666D02*
X112126950Y-29756999D01*
X112460283Y-30823666D02*
X112460283Y-30423666D01*
X112460283Y-30623666D02*
X111760283Y-30623666D01*
X111760283Y-30623666D02*
X111860283Y-30556999D01*
X111860283Y-30556999D02*
X111926950Y-30490333D01*
X111926950Y-30490333D02*
X111960283Y-30423666D01*
X111826950Y-31090333D02*
X111793616Y-31123666D01*
X111793616Y-31123666D02*
X111760283Y-31190333D01*
X111760283Y-31190333D02*
X111760283Y-31357000D01*
X111760283Y-31357000D02*
X111793616Y-31423666D01*
X111793616Y-31423666D02*
X111826950Y-31457000D01*
X111826950Y-31457000D02*
X111893616Y-31490333D01*
X111893616Y-31490333D02*
X111960283Y-31490333D01*
X111960283Y-31490333D02*
X112060283Y-31457000D01*
X112060283Y-31457000D02*
X112460283Y-31057000D01*
X112460283Y-31057000D02*
X112460283Y-31490333D01*
X92261289Y-78333884D02*
X92294622Y-78367218D01*
X92294622Y-78367218D02*
X92394622Y-78400551D01*
X92394622Y-78400551D02*
X92461289Y-78400551D01*
X92461289Y-78400551D02*
X92561289Y-78367218D01*
X92561289Y-78367218D02*
X92627956Y-78300551D01*
X92627956Y-78300551D02*
X92661289Y-78233884D01*
X92661289Y-78233884D02*
X92694622Y-78100551D01*
X92694622Y-78100551D02*
X92694622Y-78000551D01*
X92694622Y-78000551D02*
X92661289Y-77867218D01*
X92661289Y-77867218D02*
X92627956Y-77800551D01*
X92627956Y-77800551D02*
X92561289Y-77733884D01*
X92561289Y-77733884D02*
X92461289Y-77700551D01*
X92461289Y-77700551D02*
X92394622Y-77700551D01*
X92394622Y-77700551D02*
X92294622Y-77733884D01*
X92294622Y-77733884D02*
X92261289Y-77767218D01*
X91994622Y-77767218D02*
X91961289Y-77733884D01*
X91961289Y-77733884D02*
X91894622Y-77700551D01*
X91894622Y-77700551D02*
X91727956Y-77700551D01*
X91727956Y-77700551D02*
X91661289Y-77733884D01*
X91661289Y-77733884D02*
X91627956Y-77767218D01*
X91627956Y-77767218D02*
X91594622Y-77833884D01*
X91594622Y-77833884D02*
X91594622Y-77900551D01*
X91594622Y-77900551D02*
X91627956Y-78000551D01*
X91627956Y-78000551D02*
X92027956Y-78400551D01*
X92027956Y-78400551D02*
X91594622Y-78400551D01*
X92984305Y-70458500D02*
X93017638Y-70491834D01*
X93017638Y-70491834D02*
X93117638Y-70525167D01*
X93117638Y-70525167D02*
X93184305Y-70525167D01*
X93184305Y-70525167D02*
X93284305Y-70491834D01*
X93284305Y-70491834D02*
X93350972Y-70425167D01*
X93350972Y-70425167D02*
X93384305Y-70358500D01*
X93384305Y-70358500D02*
X93417638Y-70225167D01*
X93417638Y-70225167D02*
X93417638Y-70125167D01*
X93417638Y-70125167D02*
X93384305Y-69991834D01*
X93384305Y-69991834D02*
X93350972Y-69925167D01*
X93350972Y-69925167D02*
X93284305Y-69858500D01*
X93284305Y-69858500D02*
X93184305Y-69825167D01*
X93184305Y-69825167D02*
X93117638Y-69825167D01*
X93117638Y-69825167D02*
X93017638Y-69858500D01*
X93017638Y-69858500D02*
X92984305Y-69891834D01*
X92317638Y-70525167D02*
X92717638Y-70525167D01*
X92517638Y-70525167D02*
X92517638Y-69825167D01*
X92517638Y-69825167D02*
X92584305Y-69925167D01*
X92584305Y-69925167D02*
X92650972Y-69991834D01*
X92650972Y-69991834D02*
X92717638Y-70025167D01*
X91917638Y-70125167D02*
X91984305Y-70091834D01*
X91984305Y-70091834D02*
X92017638Y-70058500D01*
X92017638Y-70058500D02*
X92050971Y-69991834D01*
X92050971Y-69991834D02*
X92050971Y-69958500D01*
X92050971Y-69958500D02*
X92017638Y-69891834D01*
X92017638Y-69891834D02*
X91984305Y-69858500D01*
X91984305Y-69858500D02*
X91917638Y-69825167D01*
X91917638Y-69825167D02*
X91784305Y-69825167D01*
X91784305Y-69825167D02*
X91717638Y-69858500D01*
X91717638Y-69858500D02*
X91684305Y-69891834D01*
X91684305Y-69891834D02*
X91650971Y-69958500D01*
X91650971Y-69958500D02*
X91650971Y-69991834D01*
X91650971Y-69991834D02*
X91684305Y-70058500D01*
X91684305Y-70058500D02*
X91717638Y-70091834D01*
X91717638Y-70091834D02*
X91784305Y-70125167D01*
X91784305Y-70125167D02*
X91917638Y-70125167D01*
X91917638Y-70125167D02*
X91984305Y-70158500D01*
X91984305Y-70158500D02*
X92017638Y-70191834D01*
X92017638Y-70191834D02*
X92050971Y-70258500D01*
X92050971Y-70258500D02*
X92050971Y-70391834D01*
X92050971Y-70391834D02*
X92017638Y-70458500D01*
X92017638Y-70458500D02*
X91984305Y-70491834D01*
X91984305Y-70491834D02*
X91917638Y-70525167D01*
X91917638Y-70525167D02*
X91784305Y-70525167D01*
X91784305Y-70525167D02*
X91717638Y-70491834D01*
X91717638Y-70491834D02*
X91684305Y-70458500D01*
X91684305Y-70458500D02*
X91650971Y-70391834D01*
X91650971Y-70391834D02*
X91650971Y-70258500D01*
X91650971Y-70258500D02*
X91684305Y-70191834D01*
X91684305Y-70191834D02*
X91717638Y-70158500D01*
X91717638Y-70158500D02*
X91784305Y-70125167D01*
X85587254Y-68268900D02*
X85253921Y-68035567D01*
X85587254Y-67868900D02*
X84887254Y-67868900D01*
X84887254Y-67868900D02*
X84887254Y-68135567D01*
X84887254Y-68135567D02*
X84920587Y-68202234D01*
X84920587Y-68202234D02*
X84953921Y-68235567D01*
X84953921Y-68235567D02*
X85020587Y-68268900D01*
X85020587Y-68268900D02*
X85120587Y-68268900D01*
X85120587Y-68268900D02*
X85187254Y-68235567D01*
X85187254Y-68235567D02*
X85220587Y-68202234D01*
X85220587Y-68202234D02*
X85253921Y-68135567D01*
X85253921Y-68135567D02*
X85253921Y-67868900D01*
X85587254Y-68935567D02*
X85587254Y-68535567D01*
X85587254Y-68735567D02*
X84887254Y-68735567D01*
X84887254Y-68735567D02*
X84987254Y-68668900D01*
X84987254Y-68668900D02*
X85053921Y-68602234D01*
X85053921Y-68602234D02*
X85087254Y-68535567D01*
X84887254Y-69535567D02*
X84887254Y-69402234D01*
X84887254Y-69402234D02*
X84920587Y-69335567D01*
X84920587Y-69335567D02*
X84953921Y-69302234D01*
X84953921Y-69302234D02*
X85053921Y-69235567D01*
X85053921Y-69235567D02*
X85187254Y-69202234D01*
X85187254Y-69202234D02*
X85453921Y-69202234D01*
X85453921Y-69202234D02*
X85520587Y-69235567D01*
X85520587Y-69235567D02*
X85553921Y-69268901D01*
X85553921Y-69268901D02*
X85587254Y-69335567D01*
X85587254Y-69335567D02*
X85587254Y-69468901D01*
X85587254Y-69468901D02*
X85553921Y-69535567D01*
X85553921Y-69535567D02*
X85520587Y-69568901D01*
X85520587Y-69568901D02*
X85453921Y-69602234D01*
X85453921Y-69602234D02*
X85287254Y-69602234D01*
X85287254Y-69602234D02*
X85220587Y-69568901D01*
X85220587Y-69568901D02*
X85187254Y-69535567D01*
X85187254Y-69535567D02*
X85153921Y-69468901D01*
X85153921Y-69468901D02*
X85153921Y-69335567D01*
X85153921Y-69335567D02*
X85187254Y-69268901D01*
X85187254Y-69268901D02*
X85220587Y-69235567D01*
X85220587Y-69235567D02*
X85287254Y-69202234D01*
X98621000Y-75122283D02*
X98854333Y-74788950D01*
X99021000Y-75122283D02*
X99021000Y-74422283D01*
X99021000Y-74422283D02*
X98754333Y-74422283D01*
X98754333Y-74422283D02*
X98687667Y-74455616D01*
X98687667Y-74455616D02*
X98654333Y-74488950D01*
X98654333Y-74488950D02*
X98621000Y-74555616D01*
X98621000Y-74555616D02*
X98621000Y-74655616D01*
X98621000Y-74655616D02*
X98654333Y-74722283D01*
X98654333Y-74722283D02*
X98687667Y-74755616D01*
X98687667Y-74755616D02*
X98754333Y-74788950D01*
X98754333Y-74788950D02*
X99021000Y-74788950D01*
X97954333Y-75122283D02*
X98354333Y-75122283D01*
X98154333Y-75122283D02*
X98154333Y-74422283D01*
X98154333Y-74422283D02*
X98221000Y-74522283D01*
X98221000Y-74522283D02*
X98287667Y-74588950D01*
X98287667Y-74588950D02*
X98354333Y-74622283D01*
X97621000Y-75122283D02*
X97487666Y-75122283D01*
X97487666Y-75122283D02*
X97421000Y-75088950D01*
X97421000Y-75088950D02*
X97387666Y-75055616D01*
X97387666Y-75055616D02*
X97321000Y-74955616D01*
X97321000Y-74955616D02*
X97287666Y-74822283D01*
X97287666Y-74822283D02*
X97287666Y-74555616D01*
X97287666Y-74555616D02*
X97321000Y-74488950D01*
X97321000Y-74488950D02*
X97354333Y-74455616D01*
X97354333Y-74455616D02*
X97421000Y-74422283D01*
X97421000Y-74422283D02*
X97554333Y-74422283D01*
X97554333Y-74422283D02*
X97621000Y-74455616D01*
X97621000Y-74455616D02*
X97654333Y-74488950D01*
X97654333Y-74488950D02*
X97687666Y-74555616D01*
X97687666Y-74555616D02*
X97687666Y-74722283D01*
X97687666Y-74722283D02*
X97654333Y-74788950D01*
X97654333Y-74788950D02*
X97621000Y-74822283D01*
X97621000Y-74822283D02*
X97554333Y-74855616D01*
X97554333Y-74855616D02*
X97421000Y-74855616D01*
X97421000Y-74855616D02*
X97354333Y-74822283D01*
X97354333Y-74822283D02*
X97321000Y-74788950D01*
X97321000Y-74788950D02*
X97287666Y-74722283D01*
X113376163Y-45095333D02*
X113409497Y-45062000D01*
X113409497Y-45062000D02*
X113442830Y-44962000D01*
X113442830Y-44962000D02*
X113442830Y-44895333D01*
X113442830Y-44895333D02*
X113409497Y-44795333D01*
X113409497Y-44795333D02*
X113342830Y-44728667D01*
X113342830Y-44728667D02*
X113276163Y-44695333D01*
X113276163Y-44695333D02*
X113142830Y-44662000D01*
X113142830Y-44662000D02*
X113042830Y-44662000D01*
X113042830Y-44662000D02*
X112909497Y-44695333D01*
X112909497Y-44695333D02*
X112842830Y-44728667D01*
X112842830Y-44728667D02*
X112776163Y-44795333D01*
X112776163Y-44795333D02*
X112742830Y-44895333D01*
X112742830Y-44895333D02*
X112742830Y-44962000D01*
X112742830Y-44962000D02*
X112776163Y-45062000D01*
X112776163Y-45062000D02*
X112809497Y-45095333D01*
X112742830Y-45328667D02*
X112742830Y-45762000D01*
X112742830Y-45762000D02*
X113009497Y-45528667D01*
X113009497Y-45528667D02*
X113009497Y-45628667D01*
X113009497Y-45628667D02*
X113042830Y-45695333D01*
X113042830Y-45695333D02*
X113076163Y-45728667D01*
X113076163Y-45728667D02*
X113142830Y-45762000D01*
X113142830Y-45762000D02*
X113309497Y-45762000D01*
X113309497Y-45762000D02*
X113376163Y-45728667D01*
X113376163Y-45728667D02*
X113409497Y-45695333D01*
X113409497Y-45695333D02*
X113442830Y-45628667D01*
X113442830Y-45628667D02*
X113442830Y-45428667D01*
X113442830Y-45428667D02*
X113409497Y-45362000D01*
X113409497Y-45362000D02*
X113376163Y-45328667D01*
X109785099Y-37911283D02*
X110018432Y-37577950D01*
X110185099Y-37911283D02*
X110185099Y-37211283D01*
X110185099Y-37211283D02*
X109918432Y-37211283D01*
X109918432Y-37211283D02*
X109851766Y-37244616D01*
X109851766Y-37244616D02*
X109818432Y-37277950D01*
X109818432Y-37277950D02*
X109785099Y-37344616D01*
X109785099Y-37344616D02*
X109785099Y-37444616D01*
X109785099Y-37444616D02*
X109818432Y-37511283D01*
X109818432Y-37511283D02*
X109851766Y-37544616D01*
X109851766Y-37544616D02*
X109918432Y-37577950D01*
X109918432Y-37577950D02*
X110185099Y-37577950D01*
X109118432Y-37911283D02*
X109518432Y-37911283D01*
X109318432Y-37911283D02*
X109318432Y-37211283D01*
X109318432Y-37211283D02*
X109385099Y-37311283D01*
X109385099Y-37311283D02*
X109451766Y-37377950D01*
X109451766Y-37377950D02*
X109518432Y-37411283D01*
X108518432Y-37444616D02*
X108518432Y-37911283D01*
X108685099Y-37177950D02*
X108851765Y-37677950D01*
X108851765Y-37677950D02*
X108418432Y-37677950D01*
X113468099Y-73395254D02*
X113701432Y-73061921D01*
X113868099Y-73395254D02*
X113868099Y-72695254D01*
X113868099Y-72695254D02*
X113601432Y-72695254D01*
X113601432Y-72695254D02*
X113534766Y-72728587D01*
X113534766Y-72728587D02*
X113501432Y-72761921D01*
X113501432Y-72761921D02*
X113468099Y-72828587D01*
X113468099Y-72828587D02*
X113468099Y-72928587D01*
X113468099Y-72928587D02*
X113501432Y-72995254D01*
X113501432Y-72995254D02*
X113534766Y-73028587D01*
X113534766Y-73028587D02*
X113601432Y-73061921D01*
X113601432Y-73061921D02*
X113868099Y-73061921D01*
X113234766Y-72695254D02*
X112801432Y-72695254D01*
X112801432Y-72695254D02*
X113034766Y-72961921D01*
X113034766Y-72961921D02*
X112934766Y-72961921D01*
X112934766Y-72961921D02*
X112868099Y-72995254D01*
X112868099Y-72995254D02*
X112834766Y-73028587D01*
X112834766Y-73028587D02*
X112801432Y-73095254D01*
X112801432Y-73095254D02*
X112801432Y-73261921D01*
X112801432Y-73261921D02*
X112834766Y-73328587D01*
X112834766Y-73328587D02*
X112868099Y-73361921D01*
X112868099Y-73361921D02*
X112934766Y-73395254D01*
X112934766Y-73395254D02*
X113134766Y-73395254D01*
X113134766Y-73395254D02*
X113201432Y-73361921D01*
X113201432Y-73361921D02*
X113234766Y-73328587D01*
X112568099Y-72695254D02*
X112134765Y-72695254D01*
X112134765Y-72695254D02*
X112368099Y-72961921D01*
X112368099Y-72961921D02*
X112268099Y-72961921D01*
X112268099Y-72961921D02*
X112201432Y-72995254D01*
X112201432Y-72995254D02*
X112168099Y-73028587D01*
X112168099Y-73028587D02*
X112134765Y-73095254D01*
X112134765Y-73095254D02*
X112134765Y-73261921D01*
X112134765Y-73261921D02*
X112168099Y-73328587D01*
X112168099Y-73328587D02*
X112201432Y-73361921D01*
X112201432Y-73361921D02*
X112268099Y-73395254D01*
X112268099Y-73395254D02*
X112468099Y-73395254D01*
X112468099Y-73395254D02*
X112534765Y-73361921D01*
X112534765Y-73361921D02*
X112568099Y-73328587D01*
X100653000Y-39816283D02*
X100886333Y-39482950D01*
X101053000Y-39816283D02*
X101053000Y-39116283D01*
X101053000Y-39116283D02*
X100786333Y-39116283D01*
X100786333Y-39116283D02*
X100719667Y-39149616D01*
X100719667Y-39149616D02*
X100686333Y-39182950D01*
X100686333Y-39182950D02*
X100653000Y-39249616D01*
X100653000Y-39249616D02*
X100653000Y-39349616D01*
X100653000Y-39349616D02*
X100686333Y-39416283D01*
X100686333Y-39416283D02*
X100719667Y-39449616D01*
X100719667Y-39449616D02*
X100786333Y-39482950D01*
X100786333Y-39482950D02*
X101053000Y-39482950D01*
X100419667Y-39116283D02*
X99986333Y-39116283D01*
X99986333Y-39116283D02*
X100219667Y-39382950D01*
X100219667Y-39382950D02*
X100119667Y-39382950D01*
X100119667Y-39382950D02*
X100053000Y-39416283D01*
X100053000Y-39416283D02*
X100019667Y-39449616D01*
X100019667Y-39449616D02*
X99986333Y-39516283D01*
X99986333Y-39516283D02*
X99986333Y-39682950D01*
X99986333Y-39682950D02*
X100019667Y-39749616D01*
X100019667Y-39749616D02*
X100053000Y-39782950D01*
X100053000Y-39782950D02*
X100119667Y-39816283D01*
X100119667Y-39816283D02*
X100319667Y-39816283D01*
X100319667Y-39816283D02*
X100386333Y-39782950D01*
X100386333Y-39782950D02*
X100419667Y-39749616D01*
X99719666Y-39182950D02*
X99686333Y-39149616D01*
X99686333Y-39149616D02*
X99619666Y-39116283D01*
X99619666Y-39116283D02*
X99453000Y-39116283D01*
X99453000Y-39116283D02*
X99386333Y-39149616D01*
X99386333Y-39149616D02*
X99353000Y-39182950D01*
X99353000Y-39182950D02*
X99319666Y-39249616D01*
X99319666Y-39249616D02*
X99319666Y-39316283D01*
X99319666Y-39316283D02*
X99353000Y-39416283D01*
X99353000Y-39416283D02*
X99753000Y-39816283D01*
X99753000Y-39816283D02*
X99319666Y-39816283D01*
X100455616Y-68764999D02*
X100488950Y-68731666D01*
X100488950Y-68731666D02*
X100522283Y-68631666D01*
X100522283Y-68631666D02*
X100522283Y-68564999D01*
X100522283Y-68564999D02*
X100488950Y-68464999D01*
X100488950Y-68464999D02*
X100422283Y-68398333D01*
X100422283Y-68398333D02*
X100355616Y-68364999D01*
X100355616Y-68364999D02*
X100222283Y-68331666D01*
X100222283Y-68331666D02*
X100122283Y-68331666D01*
X100122283Y-68331666D02*
X99988950Y-68364999D01*
X99988950Y-68364999D02*
X99922283Y-68398333D01*
X99922283Y-68398333D02*
X99855616Y-68464999D01*
X99855616Y-68464999D02*
X99822283Y-68564999D01*
X99822283Y-68564999D02*
X99822283Y-68631666D01*
X99822283Y-68631666D02*
X99855616Y-68731666D01*
X99855616Y-68731666D02*
X99888950Y-68764999D01*
X100522283Y-69431666D02*
X100522283Y-69031666D01*
X100522283Y-69231666D02*
X99822283Y-69231666D01*
X99822283Y-69231666D02*
X99922283Y-69164999D01*
X99922283Y-69164999D02*
X99988950Y-69098333D01*
X99988950Y-69098333D02*
X100022283Y-69031666D01*
X100055616Y-70031666D02*
X100522283Y-70031666D01*
X99788950Y-69865000D02*
X100288950Y-69698333D01*
X100288950Y-69698333D02*
X100288950Y-70131666D01*
X96137616Y-63176999D02*
X96170950Y-63143666D01*
X96170950Y-63143666D02*
X96204283Y-63043666D01*
X96204283Y-63043666D02*
X96204283Y-62976999D01*
X96204283Y-62976999D02*
X96170950Y-62876999D01*
X96170950Y-62876999D02*
X96104283Y-62810333D01*
X96104283Y-62810333D02*
X96037616Y-62776999D01*
X96037616Y-62776999D02*
X95904283Y-62743666D01*
X95904283Y-62743666D02*
X95804283Y-62743666D01*
X95804283Y-62743666D02*
X95670950Y-62776999D01*
X95670950Y-62776999D02*
X95604283Y-62810333D01*
X95604283Y-62810333D02*
X95537616Y-62876999D01*
X95537616Y-62876999D02*
X95504283Y-62976999D01*
X95504283Y-62976999D02*
X95504283Y-63043666D01*
X95504283Y-63043666D02*
X95537616Y-63143666D01*
X95537616Y-63143666D02*
X95570950Y-63176999D01*
X95570950Y-63443666D02*
X95537616Y-63476999D01*
X95537616Y-63476999D02*
X95504283Y-63543666D01*
X95504283Y-63543666D02*
X95504283Y-63710333D01*
X95504283Y-63710333D02*
X95537616Y-63776999D01*
X95537616Y-63776999D02*
X95570950Y-63810333D01*
X95570950Y-63810333D02*
X95637616Y-63843666D01*
X95637616Y-63843666D02*
X95704283Y-63843666D01*
X95704283Y-63843666D02*
X95804283Y-63810333D01*
X95804283Y-63810333D02*
X96204283Y-63410333D01*
X96204283Y-63410333D02*
X96204283Y-63843666D01*
X95504283Y-64277000D02*
X95504283Y-64343666D01*
X95504283Y-64343666D02*
X95537616Y-64410333D01*
X95537616Y-64410333D02*
X95570950Y-64443666D01*
X95570950Y-64443666D02*
X95637616Y-64477000D01*
X95637616Y-64477000D02*
X95770950Y-64510333D01*
X95770950Y-64510333D02*
X95937616Y-64510333D01*
X95937616Y-64510333D02*
X96070950Y-64477000D01*
X96070950Y-64477000D02*
X96137616Y-64443666D01*
X96137616Y-64443666D02*
X96170950Y-64410333D01*
X96170950Y-64410333D02*
X96204283Y-64343666D01*
X96204283Y-64343666D02*
X96204283Y-64277000D01*
X96204283Y-64277000D02*
X96170950Y-64210333D01*
X96170950Y-64210333D02*
X96137616Y-64177000D01*
X96137616Y-64177000D02*
X96070950Y-64143666D01*
X96070950Y-64143666D02*
X95937616Y-64110333D01*
X95937616Y-64110333D02*
X95770950Y-64110333D01*
X95770950Y-64110333D02*
X95637616Y-64143666D01*
X95637616Y-64143666D02*
X95570950Y-64177000D01*
X95570950Y-64177000D02*
X95537616Y-64210333D01*
X95537616Y-64210333D02*
X95504283Y-64277000D01*
X112591000Y-41924312D02*
X112824333Y-41590979D01*
X112991000Y-41924312D02*
X112991000Y-41224312D01*
X112991000Y-41224312D02*
X112724333Y-41224312D01*
X112724333Y-41224312D02*
X112657667Y-41257645D01*
X112657667Y-41257645D02*
X112624333Y-41290979D01*
X112624333Y-41290979D02*
X112591000Y-41357645D01*
X112591000Y-41357645D02*
X112591000Y-41457645D01*
X112591000Y-41457645D02*
X112624333Y-41524312D01*
X112624333Y-41524312D02*
X112657667Y-41557645D01*
X112657667Y-41557645D02*
X112724333Y-41590979D01*
X112724333Y-41590979D02*
X112991000Y-41590979D01*
X112357667Y-41224312D02*
X111924333Y-41224312D01*
X111924333Y-41224312D02*
X112157667Y-41490979D01*
X112157667Y-41490979D02*
X112057667Y-41490979D01*
X112057667Y-41490979D02*
X111991000Y-41524312D01*
X111991000Y-41524312D02*
X111957667Y-41557645D01*
X111957667Y-41557645D02*
X111924333Y-41624312D01*
X111924333Y-41624312D02*
X111924333Y-41790979D01*
X111924333Y-41790979D02*
X111957667Y-41857645D01*
X111957667Y-41857645D02*
X111991000Y-41890979D01*
X111991000Y-41890979D02*
X112057667Y-41924312D01*
X112057667Y-41924312D02*
X112257667Y-41924312D01*
X112257667Y-41924312D02*
X112324333Y-41890979D01*
X112324333Y-41890979D02*
X112357667Y-41857645D01*
X111324333Y-41457645D02*
X111324333Y-41924312D01*
X111491000Y-41190979D02*
X111657666Y-41690979D01*
X111657666Y-41690979D02*
X111224333Y-41690979D01*
X84404567Y-46734312D02*
X84637900Y-46400979D01*
X84804567Y-46734312D02*
X84804567Y-46034312D01*
X84804567Y-46034312D02*
X84537900Y-46034312D01*
X84537900Y-46034312D02*
X84471234Y-46067645D01*
X84471234Y-46067645D02*
X84437900Y-46100979D01*
X84437900Y-46100979D02*
X84404567Y-46167645D01*
X84404567Y-46167645D02*
X84404567Y-46267645D01*
X84404567Y-46267645D02*
X84437900Y-46334312D01*
X84437900Y-46334312D02*
X84471234Y-46367645D01*
X84471234Y-46367645D02*
X84537900Y-46400979D01*
X84537900Y-46400979D02*
X84804567Y-46400979D01*
X83771234Y-46034312D02*
X84104567Y-46034312D01*
X84104567Y-46034312D02*
X84137900Y-46367645D01*
X84137900Y-46367645D02*
X84104567Y-46334312D01*
X84104567Y-46334312D02*
X84037900Y-46300979D01*
X84037900Y-46300979D02*
X83871234Y-46300979D01*
X83871234Y-46300979D02*
X83804567Y-46334312D01*
X83804567Y-46334312D02*
X83771234Y-46367645D01*
X83771234Y-46367645D02*
X83737900Y-46434312D01*
X83737900Y-46434312D02*
X83737900Y-46600979D01*
X83737900Y-46600979D02*
X83771234Y-46667645D01*
X83771234Y-46667645D02*
X83804567Y-46700979D01*
X83804567Y-46700979D02*
X83871234Y-46734312D01*
X83871234Y-46734312D02*
X84037900Y-46734312D01*
X84037900Y-46734312D02*
X84104567Y-46700979D01*
X84104567Y-46700979D02*
X84137900Y-46667645D01*
X100903528Y-57658958D02*
X100936861Y-57692292D01*
X100936861Y-57692292D02*
X101036861Y-57725625D01*
X101036861Y-57725625D02*
X101103528Y-57725625D01*
X101103528Y-57725625D02*
X101203528Y-57692292D01*
X101203528Y-57692292D02*
X101270195Y-57625625D01*
X101270195Y-57625625D02*
X101303528Y-57558958D01*
X101303528Y-57558958D02*
X101336861Y-57425625D01*
X101336861Y-57425625D02*
X101336861Y-57325625D01*
X101336861Y-57325625D02*
X101303528Y-57192292D01*
X101303528Y-57192292D02*
X101270195Y-57125625D01*
X101270195Y-57125625D02*
X101203528Y-57058958D01*
X101203528Y-57058958D02*
X101103528Y-57025625D01*
X101103528Y-57025625D02*
X101036861Y-57025625D01*
X101036861Y-57025625D02*
X100936861Y-57058958D01*
X100936861Y-57058958D02*
X100903528Y-57092292D01*
X100236861Y-57725625D02*
X100636861Y-57725625D01*
X100436861Y-57725625D02*
X100436861Y-57025625D01*
X100436861Y-57025625D02*
X100503528Y-57125625D01*
X100503528Y-57125625D02*
X100570195Y-57192292D01*
X100570195Y-57192292D02*
X100636861Y-57225625D01*
X99570194Y-57725625D02*
X99970194Y-57725625D01*
X99770194Y-57725625D02*
X99770194Y-57025625D01*
X99770194Y-57025625D02*
X99836861Y-57125625D01*
X99836861Y-57125625D02*
X99903528Y-57192292D01*
X99903528Y-57192292D02*
X99970194Y-57225625D01*
X108781000Y-52516283D02*
X109014333Y-52182950D01*
X109181000Y-52516283D02*
X109181000Y-51816283D01*
X109181000Y-51816283D02*
X108914333Y-51816283D01*
X108914333Y-51816283D02*
X108847667Y-51849616D01*
X108847667Y-51849616D02*
X108814333Y-51882950D01*
X108814333Y-51882950D02*
X108781000Y-51949616D01*
X108781000Y-51949616D02*
X108781000Y-52049616D01*
X108781000Y-52049616D02*
X108814333Y-52116283D01*
X108814333Y-52116283D02*
X108847667Y-52149616D01*
X108847667Y-52149616D02*
X108914333Y-52182950D01*
X108914333Y-52182950D02*
X109181000Y-52182950D01*
X108514333Y-51882950D02*
X108481000Y-51849616D01*
X108481000Y-51849616D02*
X108414333Y-51816283D01*
X108414333Y-51816283D02*
X108247667Y-51816283D01*
X108247667Y-51816283D02*
X108181000Y-51849616D01*
X108181000Y-51849616D02*
X108147667Y-51882950D01*
X108147667Y-51882950D02*
X108114333Y-51949616D01*
X108114333Y-51949616D02*
X108114333Y-52016283D01*
X108114333Y-52016283D02*
X108147667Y-52116283D01*
X108147667Y-52116283D02*
X108547667Y-52516283D01*
X108547667Y-52516283D02*
X108114333Y-52516283D01*
X107781000Y-52516283D02*
X107647666Y-52516283D01*
X107647666Y-52516283D02*
X107581000Y-52482950D01*
X107581000Y-52482950D02*
X107547666Y-52449616D01*
X107547666Y-52449616D02*
X107481000Y-52349616D01*
X107481000Y-52349616D02*
X107447666Y-52216283D01*
X107447666Y-52216283D02*
X107447666Y-51949616D01*
X107447666Y-51949616D02*
X107481000Y-51882950D01*
X107481000Y-51882950D02*
X107514333Y-51849616D01*
X107514333Y-51849616D02*
X107581000Y-51816283D01*
X107581000Y-51816283D02*
X107714333Y-51816283D01*
X107714333Y-51816283D02*
X107781000Y-51849616D01*
X107781000Y-51849616D02*
X107814333Y-51882950D01*
X107814333Y-51882950D02*
X107847666Y-51949616D01*
X107847666Y-51949616D02*
X107847666Y-52116283D01*
X107847666Y-52116283D02*
X107814333Y-52182950D01*
X107814333Y-52182950D02*
X107781000Y-52216283D01*
X107781000Y-52216283D02*
X107714333Y-52249616D01*
X107714333Y-52249616D02*
X107581000Y-52249616D01*
X107581000Y-52249616D02*
X107514333Y-52216283D01*
X107514333Y-52216283D02*
X107481000Y-52182950D01*
X107481000Y-52182950D02*
X107447666Y-52116283D01*
X128219484Y-32292732D02*
X128252818Y-32259399D01*
X128252818Y-32259399D02*
X128286151Y-32159399D01*
X128286151Y-32159399D02*
X128286151Y-32092732D01*
X128286151Y-32092732D02*
X128252818Y-31992732D01*
X128252818Y-31992732D02*
X128186151Y-31926066D01*
X128186151Y-31926066D02*
X128119484Y-31892732D01*
X128119484Y-31892732D02*
X127986151Y-31859399D01*
X127986151Y-31859399D02*
X127886151Y-31859399D01*
X127886151Y-31859399D02*
X127752818Y-31892732D01*
X127752818Y-31892732D02*
X127686151Y-31926066D01*
X127686151Y-31926066D02*
X127619484Y-31992732D01*
X127619484Y-31992732D02*
X127586151Y-32092732D01*
X127586151Y-32092732D02*
X127586151Y-32159399D01*
X127586151Y-32159399D02*
X127619484Y-32259399D01*
X127619484Y-32259399D02*
X127652818Y-32292732D01*
X127586151Y-32926066D02*
X127586151Y-32592732D01*
X127586151Y-32592732D02*
X127919484Y-32559399D01*
X127919484Y-32559399D02*
X127886151Y-32592732D01*
X127886151Y-32592732D02*
X127852818Y-32659399D01*
X127852818Y-32659399D02*
X127852818Y-32826066D01*
X127852818Y-32826066D02*
X127886151Y-32892732D01*
X127886151Y-32892732D02*
X127919484Y-32926066D01*
X127919484Y-32926066D02*
X127986151Y-32959399D01*
X127986151Y-32959399D02*
X128152818Y-32959399D01*
X128152818Y-32959399D02*
X128219484Y-32926066D01*
X128219484Y-32926066D02*
X128252818Y-32892732D01*
X128252818Y-32892732D02*
X128286151Y-32826066D01*
X128286151Y-32826066D02*
X128286151Y-32659399D01*
X128286151Y-32659399D02*
X128252818Y-32592732D01*
X128252818Y-32592732D02*
X128219484Y-32559399D01*
X89128884Y-68456360D02*
X89162218Y-68423027D01*
X89162218Y-68423027D02*
X89195551Y-68323027D01*
X89195551Y-68323027D02*
X89195551Y-68256360D01*
X89195551Y-68256360D02*
X89162218Y-68156360D01*
X89162218Y-68156360D02*
X89095551Y-68089694D01*
X89095551Y-68089694D02*
X89028884Y-68056360D01*
X89028884Y-68056360D02*
X88895551Y-68023027D01*
X88895551Y-68023027D02*
X88795551Y-68023027D01*
X88795551Y-68023027D02*
X88662218Y-68056360D01*
X88662218Y-68056360D02*
X88595551Y-68089694D01*
X88595551Y-68089694D02*
X88528884Y-68156360D01*
X88528884Y-68156360D02*
X88495551Y-68256360D01*
X88495551Y-68256360D02*
X88495551Y-68323027D01*
X88495551Y-68323027D02*
X88528884Y-68423027D01*
X88528884Y-68423027D02*
X88562218Y-68456360D01*
X88495551Y-68689694D02*
X88495551Y-69156360D01*
X88495551Y-69156360D02*
X89195551Y-68856360D01*
X119794206Y-70230770D02*
X119827540Y-70197437D01*
X119827540Y-70197437D02*
X119860873Y-70097437D01*
X119860873Y-70097437D02*
X119860873Y-70030770D01*
X119860873Y-70030770D02*
X119827540Y-69930770D01*
X119827540Y-69930770D02*
X119760873Y-69864104D01*
X119760873Y-69864104D02*
X119694206Y-69830770D01*
X119694206Y-69830770D02*
X119560873Y-69797437D01*
X119560873Y-69797437D02*
X119460873Y-69797437D01*
X119460873Y-69797437D02*
X119327540Y-69830770D01*
X119327540Y-69830770D02*
X119260873Y-69864104D01*
X119260873Y-69864104D02*
X119194206Y-69930770D01*
X119194206Y-69930770D02*
X119160873Y-70030770D01*
X119160873Y-70030770D02*
X119160873Y-70097437D01*
X119160873Y-70097437D02*
X119194206Y-70197437D01*
X119194206Y-70197437D02*
X119227540Y-70230770D01*
X119460873Y-70630770D02*
X119427540Y-70564104D01*
X119427540Y-70564104D02*
X119394206Y-70530770D01*
X119394206Y-70530770D02*
X119327540Y-70497437D01*
X119327540Y-70497437D02*
X119294206Y-70497437D01*
X119294206Y-70497437D02*
X119227540Y-70530770D01*
X119227540Y-70530770D02*
X119194206Y-70564104D01*
X119194206Y-70564104D02*
X119160873Y-70630770D01*
X119160873Y-70630770D02*
X119160873Y-70764104D01*
X119160873Y-70764104D02*
X119194206Y-70830770D01*
X119194206Y-70830770D02*
X119227540Y-70864104D01*
X119227540Y-70864104D02*
X119294206Y-70897437D01*
X119294206Y-70897437D02*
X119327540Y-70897437D01*
X119327540Y-70897437D02*
X119394206Y-70864104D01*
X119394206Y-70864104D02*
X119427540Y-70830770D01*
X119427540Y-70830770D02*
X119460873Y-70764104D01*
X119460873Y-70764104D02*
X119460873Y-70630770D01*
X119460873Y-70630770D02*
X119494206Y-70564104D01*
X119494206Y-70564104D02*
X119527540Y-70530770D01*
X119527540Y-70530770D02*
X119594206Y-70497437D01*
X119594206Y-70497437D02*
X119727540Y-70497437D01*
X119727540Y-70497437D02*
X119794206Y-70530770D01*
X119794206Y-70530770D02*
X119827540Y-70564104D01*
X119827540Y-70564104D02*
X119860873Y-70630770D01*
X119860873Y-70630770D02*
X119860873Y-70764104D01*
X119860873Y-70764104D02*
X119827540Y-70830770D01*
X119827540Y-70830770D02*
X119794206Y-70864104D01*
X119794206Y-70864104D02*
X119727540Y-70897437D01*
X119727540Y-70897437D02*
X119594206Y-70897437D01*
X119594206Y-70897437D02*
X119527540Y-70864104D01*
X119527540Y-70864104D02*
X119494206Y-70830770D01*
X119494206Y-70830770D02*
X119460873Y-70764104D01*
X95605884Y-54620333D02*
X95639218Y-54587000D01*
X95639218Y-54587000D02*
X95672551Y-54487000D01*
X95672551Y-54487000D02*
X95672551Y-54420333D01*
X95672551Y-54420333D02*
X95639218Y-54320333D01*
X95639218Y-54320333D02*
X95572551Y-54253667D01*
X95572551Y-54253667D02*
X95505884Y-54220333D01*
X95505884Y-54220333D02*
X95372551Y-54187000D01*
X95372551Y-54187000D02*
X95272551Y-54187000D01*
X95272551Y-54187000D02*
X95139218Y-54220333D01*
X95139218Y-54220333D02*
X95072551Y-54253667D01*
X95072551Y-54253667D02*
X95005884Y-54320333D01*
X95005884Y-54320333D02*
X94972551Y-54420333D01*
X94972551Y-54420333D02*
X94972551Y-54487000D01*
X94972551Y-54487000D02*
X95005884Y-54587000D01*
X95005884Y-54587000D02*
X95039218Y-54620333D01*
X94972551Y-55220333D02*
X94972551Y-55087000D01*
X94972551Y-55087000D02*
X95005884Y-55020333D01*
X95005884Y-55020333D02*
X95039218Y-54987000D01*
X95039218Y-54987000D02*
X95139218Y-54920333D01*
X95139218Y-54920333D02*
X95272551Y-54887000D01*
X95272551Y-54887000D02*
X95539218Y-54887000D01*
X95539218Y-54887000D02*
X95605884Y-54920333D01*
X95605884Y-54920333D02*
X95639218Y-54953667D01*
X95639218Y-54953667D02*
X95672551Y-55020333D01*
X95672551Y-55020333D02*
X95672551Y-55153667D01*
X95672551Y-55153667D02*
X95639218Y-55220333D01*
X95639218Y-55220333D02*
X95605884Y-55253667D01*
X95605884Y-55253667D02*
X95539218Y-55287000D01*
X95539218Y-55287000D02*
X95372551Y-55287000D01*
X95372551Y-55287000D02*
X95305884Y-55253667D01*
X95305884Y-55253667D02*
X95272551Y-55220333D01*
X95272551Y-55220333D02*
X95239218Y-55153667D01*
X95239218Y-55153667D02*
X95239218Y-55020333D01*
X95239218Y-55020333D02*
X95272551Y-54953667D01*
X95272551Y-54953667D02*
X95305884Y-54920333D01*
X95305884Y-54920333D02*
X95372551Y-54887000D01*
X109336254Y-69564300D02*
X109002921Y-69330967D01*
X109336254Y-69164300D02*
X108636254Y-69164300D01*
X108636254Y-69164300D02*
X108636254Y-69430967D01*
X108636254Y-69430967D02*
X108669587Y-69497634D01*
X108669587Y-69497634D02*
X108702921Y-69530967D01*
X108702921Y-69530967D02*
X108769587Y-69564300D01*
X108769587Y-69564300D02*
X108869587Y-69564300D01*
X108869587Y-69564300D02*
X108936254Y-69530967D01*
X108936254Y-69530967D02*
X108969587Y-69497634D01*
X108969587Y-69497634D02*
X109002921Y-69430967D01*
X109002921Y-69430967D02*
X109002921Y-69164300D01*
X108636254Y-69797634D02*
X108636254Y-70230967D01*
X108636254Y-70230967D02*
X108902921Y-69997634D01*
X108902921Y-69997634D02*
X108902921Y-70097634D01*
X108902921Y-70097634D02*
X108936254Y-70164300D01*
X108936254Y-70164300D02*
X108969587Y-70197634D01*
X108969587Y-70197634D02*
X109036254Y-70230967D01*
X109036254Y-70230967D02*
X109202921Y-70230967D01*
X109202921Y-70230967D02*
X109269587Y-70197634D01*
X109269587Y-70197634D02*
X109302921Y-70164300D01*
X109302921Y-70164300D02*
X109336254Y-70097634D01*
X109336254Y-70097634D02*
X109336254Y-69897634D01*
X109336254Y-69897634D02*
X109302921Y-69830967D01*
X109302921Y-69830967D02*
X109269587Y-69797634D01*
X108636254Y-70830967D02*
X108636254Y-70697634D01*
X108636254Y-70697634D02*
X108669587Y-70630967D01*
X108669587Y-70630967D02*
X108702921Y-70597634D01*
X108702921Y-70597634D02*
X108802921Y-70530967D01*
X108802921Y-70530967D02*
X108936254Y-70497634D01*
X108936254Y-70497634D02*
X109202921Y-70497634D01*
X109202921Y-70497634D02*
X109269587Y-70530967D01*
X109269587Y-70530967D02*
X109302921Y-70564301D01*
X109302921Y-70564301D02*
X109336254Y-70630967D01*
X109336254Y-70630967D02*
X109336254Y-70764301D01*
X109336254Y-70764301D02*
X109302921Y-70830967D01*
X109302921Y-70830967D02*
X109269587Y-70864301D01*
X109269587Y-70864301D02*
X109202921Y-70897634D01*
X109202921Y-70897634D02*
X109036254Y-70897634D01*
X109036254Y-70897634D02*
X108969587Y-70864301D01*
X108969587Y-70864301D02*
X108936254Y-70830967D01*
X108936254Y-70830967D02*
X108902921Y-70764301D01*
X108902921Y-70764301D02*
X108902921Y-70630967D01*
X108902921Y-70630967D02*
X108936254Y-70564301D01*
X108936254Y-70564301D02*
X108969587Y-70530967D01*
X108969587Y-70530967D02*
X109036254Y-70497634D01*
X116203616Y-32584499D02*
X116236950Y-32551166D01*
X116236950Y-32551166D02*
X116270283Y-32451166D01*
X116270283Y-32451166D02*
X116270283Y-32384499D01*
X116270283Y-32384499D02*
X116236950Y-32284499D01*
X116236950Y-32284499D02*
X116170283Y-32217833D01*
X116170283Y-32217833D02*
X116103616Y-32184499D01*
X116103616Y-32184499D02*
X115970283Y-32151166D01*
X115970283Y-32151166D02*
X115870283Y-32151166D01*
X115870283Y-32151166D02*
X115736950Y-32184499D01*
X115736950Y-32184499D02*
X115670283Y-32217833D01*
X115670283Y-32217833D02*
X115603616Y-32284499D01*
X115603616Y-32284499D02*
X115570283Y-32384499D01*
X115570283Y-32384499D02*
X115570283Y-32451166D01*
X115570283Y-32451166D02*
X115603616Y-32551166D01*
X115603616Y-32551166D02*
X115636950Y-32584499D01*
X116270283Y-33251166D02*
X116270283Y-32851166D01*
X116270283Y-33051166D02*
X115570283Y-33051166D01*
X115570283Y-33051166D02*
X115670283Y-32984499D01*
X115670283Y-32984499D02*
X115736950Y-32917833D01*
X115736950Y-32917833D02*
X115770283Y-32851166D01*
X115570283Y-33884500D02*
X115570283Y-33551166D01*
X115570283Y-33551166D02*
X115903616Y-33517833D01*
X115903616Y-33517833D02*
X115870283Y-33551166D01*
X115870283Y-33551166D02*
X115836950Y-33617833D01*
X115836950Y-33617833D02*
X115836950Y-33784500D01*
X115836950Y-33784500D02*
X115870283Y-33851166D01*
X115870283Y-33851166D02*
X115903616Y-33884500D01*
X115903616Y-33884500D02*
X115970283Y-33917833D01*
X115970283Y-33917833D02*
X116136950Y-33917833D01*
X116136950Y-33917833D02*
X116203616Y-33884500D01*
X116203616Y-33884500D02*
X116236950Y-33851166D01*
X116236950Y-33851166D02*
X116270283Y-33784500D01*
X116270283Y-33784500D02*
X116270283Y-33617833D01*
X116270283Y-33617833D02*
X116236950Y-33551166D01*
X116236950Y-33551166D02*
X116203616Y-33517833D01*
X101163017Y-46098130D02*
X101196350Y-46131464D01*
X101196350Y-46131464D02*
X101296350Y-46164797D01*
X101296350Y-46164797D02*
X101363017Y-46164797D01*
X101363017Y-46164797D02*
X101463017Y-46131464D01*
X101463017Y-46131464D02*
X101529684Y-46064797D01*
X101529684Y-46064797D02*
X101563017Y-45998130D01*
X101563017Y-45998130D02*
X101596350Y-45864797D01*
X101596350Y-45864797D02*
X101596350Y-45764797D01*
X101596350Y-45764797D02*
X101563017Y-45631464D01*
X101563017Y-45631464D02*
X101529684Y-45564797D01*
X101529684Y-45564797D02*
X101463017Y-45498130D01*
X101463017Y-45498130D02*
X101363017Y-45464797D01*
X101363017Y-45464797D02*
X101296350Y-45464797D01*
X101296350Y-45464797D02*
X101196350Y-45498130D01*
X101196350Y-45498130D02*
X101163017Y-45531464D01*
X100563017Y-45698130D02*
X100563017Y-46164797D01*
X100729684Y-45431464D02*
X100896350Y-45931464D01*
X100896350Y-45931464D02*
X100463017Y-45931464D01*
X95446000Y-41654616D02*
X95479333Y-41687950D01*
X95479333Y-41687950D02*
X95579333Y-41721283D01*
X95579333Y-41721283D02*
X95646000Y-41721283D01*
X95646000Y-41721283D02*
X95746000Y-41687950D01*
X95746000Y-41687950D02*
X95812667Y-41621283D01*
X95812667Y-41621283D02*
X95846000Y-41554616D01*
X95846000Y-41554616D02*
X95879333Y-41421283D01*
X95879333Y-41421283D02*
X95879333Y-41321283D01*
X95879333Y-41321283D02*
X95846000Y-41187950D01*
X95846000Y-41187950D02*
X95812667Y-41121283D01*
X95812667Y-41121283D02*
X95746000Y-41054616D01*
X95746000Y-41054616D02*
X95646000Y-41021283D01*
X95646000Y-41021283D02*
X95579333Y-41021283D01*
X95579333Y-41021283D02*
X95479333Y-41054616D01*
X95479333Y-41054616D02*
X95446000Y-41087950D01*
X94779333Y-41721283D02*
X95179333Y-41721283D01*
X94979333Y-41721283D02*
X94979333Y-41021283D01*
X94979333Y-41021283D02*
X95046000Y-41121283D01*
X95046000Y-41121283D02*
X95112667Y-41187950D01*
X95112667Y-41187950D02*
X95179333Y-41221283D01*
X94179333Y-41021283D02*
X94312666Y-41021283D01*
X94312666Y-41021283D02*
X94379333Y-41054616D01*
X94379333Y-41054616D02*
X94412666Y-41087950D01*
X94412666Y-41087950D02*
X94479333Y-41187950D01*
X94479333Y-41187950D02*
X94512666Y-41321283D01*
X94512666Y-41321283D02*
X94512666Y-41587950D01*
X94512666Y-41587950D02*
X94479333Y-41654616D01*
X94479333Y-41654616D02*
X94446000Y-41687950D01*
X94446000Y-41687950D02*
X94379333Y-41721283D01*
X94379333Y-41721283D02*
X94246000Y-41721283D01*
X94246000Y-41721283D02*
X94179333Y-41687950D01*
X94179333Y-41687950D02*
X94146000Y-41654616D01*
X94146000Y-41654616D02*
X94112666Y-41587950D01*
X94112666Y-41587950D02*
X94112666Y-41421283D01*
X94112666Y-41421283D02*
X94146000Y-41354616D01*
X94146000Y-41354616D02*
X94179333Y-41321283D01*
X94179333Y-41321283D02*
X94246000Y-41287950D01*
X94246000Y-41287950D02*
X94379333Y-41287950D01*
X94379333Y-41287950D02*
X94446000Y-41321283D01*
X94446000Y-41321283D02*
X94479333Y-41354616D01*
X94479333Y-41354616D02*
X94512666Y-41421283D01*
X100395283Y-30156999D02*
X100061950Y-29923666D01*
X100395283Y-29756999D02*
X99695283Y-29756999D01*
X99695283Y-29756999D02*
X99695283Y-30023666D01*
X99695283Y-30023666D02*
X99728616Y-30090333D01*
X99728616Y-30090333D02*
X99761950Y-30123666D01*
X99761950Y-30123666D02*
X99828616Y-30156999D01*
X99828616Y-30156999D02*
X99928616Y-30156999D01*
X99928616Y-30156999D02*
X99995283Y-30123666D01*
X99995283Y-30123666D02*
X100028616Y-30090333D01*
X100028616Y-30090333D02*
X100061950Y-30023666D01*
X100061950Y-30023666D02*
X100061950Y-29756999D01*
X100395283Y-30823666D02*
X100395283Y-30423666D01*
X100395283Y-30623666D02*
X99695283Y-30623666D01*
X99695283Y-30623666D02*
X99795283Y-30556999D01*
X99795283Y-30556999D02*
X99861950Y-30490333D01*
X99861950Y-30490333D02*
X99895283Y-30423666D01*
X100395283Y-31490333D02*
X100395283Y-31090333D01*
X100395283Y-31290333D02*
X99695283Y-31290333D01*
X99695283Y-31290333D02*
X99795283Y-31223666D01*
X99795283Y-31223666D02*
X99861950Y-31157000D01*
X99861950Y-31157000D02*
X99895283Y-31090333D01*
X102536852Y-75380995D02*
X102570186Y-75347662D01*
X102570186Y-75347662D02*
X102603519Y-75247662D01*
X102603519Y-75247662D02*
X102603519Y-75180995D01*
X102603519Y-75180995D02*
X102570186Y-75080995D01*
X102570186Y-75080995D02*
X102503519Y-75014329D01*
X102503519Y-75014329D02*
X102436852Y-74980995D01*
X102436852Y-74980995D02*
X102303519Y-74947662D01*
X102303519Y-74947662D02*
X102203519Y-74947662D01*
X102203519Y-74947662D02*
X102070186Y-74980995D01*
X102070186Y-74980995D02*
X102003519Y-75014329D01*
X102003519Y-75014329D02*
X101936852Y-75080995D01*
X101936852Y-75080995D02*
X101903519Y-75180995D01*
X101903519Y-75180995D02*
X101903519Y-75247662D01*
X101903519Y-75247662D02*
X101936852Y-75347662D01*
X101936852Y-75347662D02*
X101970186Y-75380995D01*
X102603519Y-76047662D02*
X102603519Y-75647662D01*
X102603519Y-75847662D02*
X101903519Y-75847662D01*
X101903519Y-75847662D02*
X102003519Y-75780995D01*
X102003519Y-75780995D02*
X102070186Y-75714329D01*
X102070186Y-75714329D02*
X102103519Y-75647662D01*
X104717000Y-76874883D02*
X104950333Y-76541550D01*
X105117000Y-76874883D02*
X105117000Y-76174883D01*
X105117000Y-76174883D02*
X104850333Y-76174883D01*
X104850333Y-76174883D02*
X104783667Y-76208216D01*
X104783667Y-76208216D02*
X104750333Y-76241550D01*
X104750333Y-76241550D02*
X104717000Y-76308216D01*
X104717000Y-76308216D02*
X104717000Y-76408216D01*
X104717000Y-76408216D02*
X104750333Y-76474883D01*
X104750333Y-76474883D02*
X104783667Y-76508216D01*
X104783667Y-76508216D02*
X104850333Y-76541550D01*
X104850333Y-76541550D02*
X105117000Y-76541550D01*
X104483667Y-76174883D02*
X104050333Y-76174883D01*
X104050333Y-76174883D02*
X104283667Y-76441550D01*
X104283667Y-76441550D02*
X104183667Y-76441550D01*
X104183667Y-76441550D02*
X104117000Y-76474883D01*
X104117000Y-76474883D02*
X104083667Y-76508216D01*
X104083667Y-76508216D02*
X104050333Y-76574883D01*
X104050333Y-76574883D02*
X104050333Y-76741550D01*
X104050333Y-76741550D02*
X104083667Y-76808216D01*
X104083667Y-76808216D02*
X104117000Y-76841550D01*
X104117000Y-76841550D02*
X104183667Y-76874883D01*
X104183667Y-76874883D02*
X104383667Y-76874883D01*
X104383667Y-76874883D02*
X104450333Y-76841550D01*
X104450333Y-76841550D02*
X104483667Y-76808216D01*
X103417000Y-76174883D02*
X103750333Y-76174883D01*
X103750333Y-76174883D02*
X103783666Y-76508216D01*
X103783666Y-76508216D02*
X103750333Y-76474883D01*
X103750333Y-76474883D02*
X103683666Y-76441550D01*
X103683666Y-76441550D02*
X103517000Y-76441550D01*
X103517000Y-76441550D02*
X103450333Y-76474883D01*
X103450333Y-76474883D02*
X103417000Y-76508216D01*
X103417000Y-76508216D02*
X103383666Y-76574883D01*
X103383666Y-76574883D02*
X103383666Y-76741550D01*
X103383666Y-76741550D02*
X103417000Y-76808216D01*
X103417000Y-76808216D02*
X103450333Y-76841550D01*
X103450333Y-76841550D02*
X103517000Y-76874883D01*
X103517000Y-76874883D02*
X103683666Y-76874883D01*
X103683666Y-76874883D02*
X103750333Y-76841550D01*
X103750333Y-76841550D02*
X103783666Y-76808216D01*
X118636800Y-41721283D02*
X118870133Y-41387950D01*
X119036800Y-41721283D02*
X119036800Y-41021283D01*
X119036800Y-41021283D02*
X118770133Y-41021283D01*
X118770133Y-41021283D02*
X118703467Y-41054616D01*
X118703467Y-41054616D02*
X118670133Y-41087950D01*
X118670133Y-41087950D02*
X118636800Y-41154616D01*
X118636800Y-41154616D02*
X118636800Y-41254616D01*
X118636800Y-41254616D02*
X118670133Y-41321283D01*
X118670133Y-41321283D02*
X118703467Y-41354616D01*
X118703467Y-41354616D02*
X118770133Y-41387950D01*
X118770133Y-41387950D02*
X119036800Y-41387950D01*
X118036800Y-41254616D02*
X118036800Y-41721283D01*
X118203467Y-40987950D02*
X118370133Y-41487950D01*
X118370133Y-41487950D02*
X117936800Y-41487950D01*
X117303466Y-41721283D02*
X117703466Y-41721283D01*
X117503466Y-41721283D02*
X117503466Y-41021283D01*
X117503466Y-41021283D02*
X117570133Y-41121283D01*
X117570133Y-41121283D02*
X117636800Y-41187950D01*
X117636800Y-41187950D02*
X117703466Y-41221283D01*
X96966283Y-74733999D02*
X96632950Y-74500666D01*
X96966283Y-74333999D02*
X96266283Y-74333999D01*
X96266283Y-74333999D02*
X96266283Y-74600666D01*
X96266283Y-74600666D02*
X96299616Y-74667333D01*
X96299616Y-74667333D02*
X96332950Y-74700666D01*
X96332950Y-74700666D02*
X96399616Y-74733999D01*
X96399616Y-74733999D02*
X96499616Y-74733999D01*
X96499616Y-74733999D02*
X96566283Y-74700666D01*
X96566283Y-74700666D02*
X96599616Y-74667333D01*
X96599616Y-74667333D02*
X96632950Y-74600666D01*
X96632950Y-74600666D02*
X96632950Y-74333999D01*
X96966283Y-75400666D02*
X96966283Y-75000666D01*
X96966283Y-75200666D02*
X96266283Y-75200666D01*
X96266283Y-75200666D02*
X96366283Y-75133999D01*
X96366283Y-75133999D02*
X96432950Y-75067333D01*
X96432950Y-75067333D02*
X96466283Y-75000666D01*
X96266283Y-75834000D02*
X96266283Y-75900666D01*
X96266283Y-75900666D02*
X96299616Y-75967333D01*
X96299616Y-75967333D02*
X96332950Y-76000666D01*
X96332950Y-76000666D02*
X96399616Y-76034000D01*
X96399616Y-76034000D02*
X96532950Y-76067333D01*
X96532950Y-76067333D02*
X96699616Y-76067333D01*
X96699616Y-76067333D02*
X96832950Y-76034000D01*
X96832950Y-76034000D02*
X96899616Y-76000666D01*
X96899616Y-76000666D02*
X96932950Y-75967333D01*
X96932950Y-75967333D02*
X96966283Y-75900666D01*
X96966283Y-75900666D02*
X96966283Y-75834000D01*
X96966283Y-75834000D02*
X96932950Y-75767333D01*
X96932950Y-75767333D02*
X96899616Y-75734000D01*
X96899616Y-75734000D02*
X96832950Y-75700666D01*
X96832950Y-75700666D02*
X96699616Y-75667333D01*
X96699616Y-75667333D02*
X96532950Y-75667333D01*
X96532950Y-75667333D02*
X96399616Y-75700666D01*
X96399616Y-75700666D02*
X96332950Y-75734000D01*
X96332950Y-75734000D02*
X96299616Y-75767333D01*
X96299616Y-75767333D02*
X96266283Y-75834000D01*
X100918623Y-64490884D02*
X100951956Y-64524218D01*
X100951956Y-64524218D02*
X101051956Y-64557551D01*
X101051956Y-64557551D02*
X101118623Y-64557551D01*
X101118623Y-64557551D02*
X101218623Y-64524218D01*
X101218623Y-64524218D02*
X101285290Y-64457551D01*
X101285290Y-64457551D02*
X101318623Y-64390884D01*
X101318623Y-64390884D02*
X101351956Y-64257551D01*
X101351956Y-64257551D02*
X101351956Y-64157551D01*
X101351956Y-64157551D02*
X101318623Y-64024218D01*
X101318623Y-64024218D02*
X101285290Y-63957551D01*
X101285290Y-63957551D02*
X101218623Y-63890884D01*
X101218623Y-63890884D02*
X101118623Y-63857551D01*
X101118623Y-63857551D02*
X101051956Y-63857551D01*
X101051956Y-63857551D02*
X100951956Y-63890884D01*
X100951956Y-63890884D02*
X100918623Y-63924218D01*
X100251956Y-64557551D02*
X100651956Y-64557551D01*
X100451956Y-64557551D02*
X100451956Y-63857551D01*
X100451956Y-63857551D02*
X100518623Y-63957551D01*
X100518623Y-63957551D02*
X100585290Y-64024218D01*
X100585290Y-64024218D02*
X100651956Y-64057551D01*
X100018623Y-63857551D02*
X99551956Y-63857551D01*
X99551956Y-63857551D02*
X99851956Y-64557551D01*
X129089377Y-35912548D02*
X129122710Y-35945882D01*
X129122710Y-35945882D02*
X129222710Y-35979215D01*
X129222710Y-35979215D02*
X129289377Y-35979215D01*
X129289377Y-35979215D02*
X129389377Y-35945882D01*
X129389377Y-35945882D02*
X129456044Y-35879215D01*
X129456044Y-35879215D02*
X129489377Y-35812548D01*
X129489377Y-35812548D02*
X129522710Y-35679215D01*
X129522710Y-35679215D02*
X129522710Y-35579215D01*
X129522710Y-35579215D02*
X129489377Y-35445882D01*
X129489377Y-35445882D02*
X129456044Y-35379215D01*
X129456044Y-35379215D02*
X129389377Y-35312548D01*
X129389377Y-35312548D02*
X129289377Y-35279215D01*
X129289377Y-35279215D02*
X129222710Y-35279215D01*
X129222710Y-35279215D02*
X129122710Y-35312548D01*
X129122710Y-35312548D02*
X129089377Y-35345882D01*
X128422710Y-35979215D02*
X128822710Y-35979215D01*
X128622710Y-35979215D02*
X128622710Y-35279215D01*
X128622710Y-35279215D02*
X128689377Y-35379215D01*
X128689377Y-35379215D02*
X128756044Y-35445882D01*
X128756044Y-35445882D02*
X128822710Y-35479215D01*
X128089377Y-35979215D02*
X127956043Y-35979215D01*
X127956043Y-35979215D02*
X127889377Y-35945882D01*
X127889377Y-35945882D02*
X127856043Y-35912548D01*
X127856043Y-35912548D02*
X127789377Y-35812548D01*
X127789377Y-35812548D02*
X127756043Y-35679215D01*
X127756043Y-35679215D02*
X127756043Y-35412548D01*
X127756043Y-35412548D02*
X127789377Y-35345882D01*
X127789377Y-35345882D02*
X127822710Y-35312548D01*
X127822710Y-35312548D02*
X127889377Y-35279215D01*
X127889377Y-35279215D02*
X128022710Y-35279215D01*
X128022710Y-35279215D02*
X128089377Y-35312548D01*
X128089377Y-35312548D02*
X128122710Y-35345882D01*
X128122710Y-35345882D02*
X128156043Y-35412548D01*
X128156043Y-35412548D02*
X128156043Y-35579215D01*
X128156043Y-35579215D02*
X128122710Y-35645882D01*
X128122710Y-35645882D02*
X128089377Y-35679215D01*
X128089377Y-35679215D02*
X128022710Y-35712548D01*
X128022710Y-35712548D02*
X127889377Y-35712548D01*
X127889377Y-35712548D02*
X127822710Y-35679215D01*
X127822710Y-35679215D02*
X127789377Y-35645882D01*
X127789377Y-35645882D02*
X127756043Y-35579215D01*
X123386000Y-31561283D02*
X123619333Y-31227950D01*
X123786000Y-31561283D02*
X123786000Y-30861283D01*
X123786000Y-30861283D02*
X123519333Y-30861283D01*
X123519333Y-30861283D02*
X123452667Y-30894616D01*
X123452667Y-30894616D02*
X123419333Y-30927950D01*
X123419333Y-30927950D02*
X123386000Y-30994616D01*
X123386000Y-30994616D02*
X123386000Y-31094616D01*
X123386000Y-31094616D02*
X123419333Y-31161283D01*
X123419333Y-31161283D02*
X123452667Y-31194616D01*
X123452667Y-31194616D02*
X123519333Y-31227950D01*
X123519333Y-31227950D02*
X123786000Y-31227950D01*
X122719333Y-31561283D02*
X123119333Y-31561283D01*
X122919333Y-31561283D02*
X122919333Y-30861283D01*
X122919333Y-30861283D02*
X122986000Y-30961283D01*
X122986000Y-30961283D02*
X123052667Y-31027950D01*
X123052667Y-31027950D02*
X123119333Y-31061283D01*
X122486000Y-30861283D02*
X122019333Y-30861283D01*
X122019333Y-30861283D02*
X122319333Y-31561283D01*
X94360655Y-67379381D02*
X94393989Y-67346048D01*
X94393989Y-67346048D02*
X94427322Y-67246048D01*
X94427322Y-67246048D02*
X94427322Y-67179381D01*
X94427322Y-67179381D02*
X94393989Y-67079381D01*
X94393989Y-67079381D02*
X94327322Y-67012715D01*
X94327322Y-67012715D02*
X94260655Y-66979381D01*
X94260655Y-66979381D02*
X94127322Y-66946048D01*
X94127322Y-66946048D02*
X94027322Y-66946048D01*
X94027322Y-66946048D02*
X93893989Y-66979381D01*
X93893989Y-66979381D02*
X93827322Y-67012715D01*
X93827322Y-67012715D02*
X93760655Y-67079381D01*
X93760655Y-67079381D02*
X93727322Y-67179381D01*
X93727322Y-67179381D02*
X93727322Y-67246048D01*
X93727322Y-67246048D02*
X93760655Y-67346048D01*
X93760655Y-67346048D02*
X93793989Y-67379381D01*
X93793989Y-67646048D02*
X93760655Y-67679381D01*
X93760655Y-67679381D02*
X93727322Y-67746048D01*
X93727322Y-67746048D02*
X93727322Y-67912715D01*
X93727322Y-67912715D02*
X93760655Y-67979381D01*
X93760655Y-67979381D02*
X93793989Y-68012715D01*
X93793989Y-68012715D02*
X93860655Y-68046048D01*
X93860655Y-68046048D02*
X93927322Y-68046048D01*
X93927322Y-68046048D02*
X94027322Y-68012715D01*
X94027322Y-68012715D02*
X94427322Y-67612715D01*
X94427322Y-67612715D02*
X94427322Y-68046048D01*
X94427322Y-68712715D02*
X94427322Y-68312715D01*
X94427322Y-68512715D02*
X93727322Y-68512715D01*
X93727322Y-68512715D02*
X93827322Y-68446048D01*
X93827322Y-68446048D02*
X93893989Y-68379382D01*
X93893989Y-68379382D02*
X93927322Y-68312715D01*
X118915000Y-40959283D02*
X119148333Y-40625950D01*
X119315000Y-40959283D02*
X119315000Y-40259283D01*
X119315000Y-40259283D02*
X119048333Y-40259283D01*
X119048333Y-40259283D02*
X118981667Y-40292616D01*
X118981667Y-40292616D02*
X118948333Y-40325950D01*
X118948333Y-40325950D02*
X118915000Y-40392616D01*
X118915000Y-40392616D02*
X118915000Y-40492616D01*
X118915000Y-40492616D02*
X118948333Y-40559283D01*
X118948333Y-40559283D02*
X118981667Y-40592616D01*
X118981667Y-40592616D02*
X119048333Y-40625950D01*
X119048333Y-40625950D02*
X119315000Y-40625950D01*
X118315000Y-40492616D02*
X118315000Y-40959283D01*
X118481667Y-40225950D02*
X118648333Y-40725950D01*
X118648333Y-40725950D02*
X118215000Y-40725950D01*
X117981666Y-40325950D02*
X117948333Y-40292616D01*
X117948333Y-40292616D02*
X117881666Y-40259283D01*
X117881666Y-40259283D02*
X117715000Y-40259283D01*
X117715000Y-40259283D02*
X117648333Y-40292616D01*
X117648333Y-40292616D02*
X117615000Y-40325950D01*
X117615000Y-40325950D02*
X117581666Y-40392616D01*
X117581666Y-40392616D02*
X117581666Y-40459283D01*
X117581666Y-40459283D02*
X117615000Y-40559283D01*
X117615000Y-40559283D02*
X118015000Y-40959283D01*
X118015000Y-40959283D02*
X117581666Y-40959283D01*
D11*
%TO.C,R3*%
X84201000Y-38035000D02*
X84201000Y-39435000D01*
%TO.C,R13*%
X96901000Y-31307000D02*
X96901000Y-29907000D01*
%TO.C,R39*%
X122377200Y-39079400D02*
X122377200Y-37679400D01*
%TO.C,R31*%
X94989450Y-52070969D02*
X94989450Y-50670969D01*
%TO.C,R1*%
X111672600Y-77317600D02*
X110272600Y-77317600D01*
%TO.C,R8*%
X84276000Y-56831000D02*
X84276000Y-58231000D01*
%TO.C,R9*%
X94996000Y-46417000D02*
X94996000Y-47817000D01*
%TO.C,R15*%
X119619800Y-34264600D02*
X121019800Y-34264600D01*
%TO.C,R12*%
X108966000Y-29907000D02*
X108966000Y-31307000D01*
%TO.C,R16*%
X84266000Y-68707000D02*
X82866000Y-68707000D01*
%TO.C,R19*%
X98109000Y-71755000D02*
X96709000Y-71755000D01*
%TO.C,R14*%
X109347000Y-36387000D02*
X109347000Y-34987000D01*
%TO.C,R33*%
X113030000Y-72074000D02*
X113030000Y-70674000D01*
%TO.C,R32*%
X102336000Y-42102000D02*
X102336000Y-40702000D01*
%TO.C,R34*%
X111506000Y-42607000D02*
X111506000Y-44007000D01*
%TO.C,R5*%
X84276000Y-47417000D02*
X84276000Y-48817000D01*
%TO.C,R29*%
X107061000Y-49592000D02*
X107061000Y-50992000D01*
%TO.C,R36*%
X108015000Y-70002400D02*
X106615000Y-70002400D01*
%TO.C,R11*%
X103251000Y-31307000D02*
X103251000Y-29907000D01*
%TO.C,R35*%
X103059000Y-73634600D02*
X104459000Y-73634600D01*
%TO.C,R41*%
X117144800Y-39051000D02*
X117144800Y-40451000D01*
%TO.C,R10*%
X93726000Y-73595000D02*
X93726000Y-74995000D01*
%TO.C,R17*%
X123636000Y-34304500D02*
X122236000Y-34304500D01*
%TO.C,R42*%
X119507000Y-42991000D02*
X119507000Y-41591000D01*
%TD*%
M02*
