%TF.GenerationSoftware,KiCad,Pcbnew,8.0.2*%
%TF.CreationDate,2024-09-30T17:14:49+02:00*%
%TF.ProjectId,Indicator_voltage,496e6469-6361-4746-9f72-5f766f6c7461,rev?*%
%TF.SameCoordinates,Original*%
%TF.FileFunction,Legend,Top*%
%TF.FilePolarity,Positive*%
%FSLAX46Y46*%
G04 Gerber Fmt 4.6, Leading zero omitted, Abs format (unit mm)*
G04 Created by KiCad (PCBNEW 8.0.2) date 2024-09-30 17:14:49*
%MOMM*%
%LPD*%
G01*
G04 APERTURE LIST*
%ADD10C,0.150000*%
%ADD11C,0.300000*%
%ADD12C,0.254000*%
%ADD13C,0.200000*%
%ADD14C,0.127000*%
%ADD15C,0.100000*%
G04 APERTURE END LIST*
D10*
X120952152Y-91991792D02*
X120952152Y-91558458D01*
X121633104Y-91372744D02*
X121633104Y-91991792D01*
X121633104Y-91991792D02*
X120333104Y-91991792D01*
X120333104Y-91991792D02*
X120333104Y-91372744D01*
X121633104Y-90815602D02*
X120333104Y-90815602D01*
X120333104Y-90815602D02*
X120333104Y-90320364D01*
X120333104Y-90320364D02*
X120395009Y-90196554D01*
X120395009Y-90196554D02*
X120456914Y-90134649D01*
X120456914Y-90134649D02*
X120580723Y-90072745D01*
X120580723Y-90072745D02*
X120766438Y-90072745D01*
X120766438Y-90072745D02*
X120890247Y-90134649D01*
X120890247Y-90134649D02*
X120952152Y-90196554D01*
X120952152Y-90196554D02*
X121014057Y-90320364D01*
X121014057Y-90320364D02*
X121014057Y-90815602D01*
X121571200Y-89577506D02*
X121633104Y-89391792D01*
X121633104Y-89391792D02*
X121633104Y-89082268D01*
X121633104Y-89082268D02*
X121571200Y-88958459D01*
X121571200Y-88958459D02*
X121509295Y-88896554D01*
X121509295Y-88896554D02*
X121385485Y-88834649D01*
X121385485Y-88834649D02*
X121261676Y-88834649D01*
X121261676Y-88834649D02*
X121137866Y-88896554D01*
X121137866Y-88896554D02*
X121075961Y-88958459D01*
X121075961Y-88958459D02*
X121014057Y-89082268D01*
X121014057Y-89082268D02*
X120952152Y-89329887D01*
X120952152Y-89329887D02*
X120890247Y-89453697D01*
X120890247Y-89453697D02*
X120828342Y-89515602D01*
X120828342Y-89515602D02*
X120704533Y-89577506D01*
X120704533Y-89577506D02*
X120580723Y-89577506D01*
X120580723Y-89577506D02*
X120456914Y-89515602D01*
X120456914Y-89515602D02*
X120395009Y-89453697D01*
X120395009Y-89453697D02*
X120333104Y-89329887D01*
X120333104Y-89329887D02*
X120333104Y-89020364D01*
X120333104Y-89020364D02*
X120395009Y-88834649D01*
X121261676Y-88339411D02*
X121261676Y-87720364D01*
X121633104Y-88463221D02*
X120333104Y-88029888D01*
X120333104Y-88029888D02*
X121633104Y-87596554D01*
X120456914Y-86234649D02*
X120395009Y-86172745D01*
X120395009Y-86172745D02*
X120333104Y-86048935D01*
X120333104Y-86048935D02*
X120333104Y-85739411D01*
X120333104Y-85739411D02*
X120395009Y-85615602D01*
X120395009Y-85615602D02*
X120456914Y-85553697D01*
X120456914Y-85553697D02*
X120580723Y-85491792D01*
X120580723Y-85491792D02*
X120704533Y-85491792D01*
X120704533Y-85491792D02*
X120890247Y-85553697D01*
X120890247Y-85553697D02*
X121633104Y-86296554D01*
X121633104Y-86296554D02*
X121633104Y-85491792D01*
X120333104Y-84687031D02*
X120333104Y-84563221D01*
X120333104Y-84563221D02*
X120395009Y-84439412D01*
X120395009Y-84439412D02*
X120456914Y-84377507D01*
X120456914Y-84377507D02*
X120580723Y-84315602D01*
X120580723Y-84315602D02*
X120828342Y-84253697D01*
X120828342Y-84253697D02*
X121137866Y-84253697D01*
X121137866Y-84253697D02*
X121385485Y-84315602D01*
X121385485Y-84315602D02*
X121509295Y-84377507D01*
X121509295Y-84377507D02*
X121571200Y-84439412D01*
X121571200Y-84439412D02*
X121633104Y-84563221D01*
X121633104Y-84563221D02*
X121633104Y-84687031D01*
X121633104Y-84687031D02*
X121571200Y-84810840D01*
X121571200Y-84810840D02*
X121509295Y-84872745D01*
X121509295Y-84872745D02*
X121385485Y-84934650D01*
X121385485Y-84934650D02*
X121137866Y-84996554D01*
X121137866Y-84996554D02*
X120828342Y-84996554D01*
X120828342Y-84996554D02*
X120580723Y-84934650D01*
X120580723Y-84934650D02*
X120456914Y-84872745D01*
X120456914Y-84872745D02*
X120395009Y-84810840D01*
X120395009Y-84810840D02*
X120333104Y-84687031D01*
X120456914Y-83758459D02*
X120395009Y-83696555D01*
X120395009Y-83696555D02*
X120333104Y-83572745D01*
X120333104Y-83572745D02*
X120333104Y-83263221D01*
X120333104Y-83263221D02*
X120395009Y-83139412D01*
X120395009Y-83139412D02*
X120456914Y-83077507D01*
X120456914Y-83077507D02*
X120580723Y-83015602D01*
X120580723Y-83015602D02*
X120704533Y-83015602D01*
X120704533Y-83015602D02*
X120890247Y-83077507D01*
X120890247Y-83077507D02*
X121633104Y-83820364D01*
X121633104Y-83820364D02*
X121633104Y-83015602D01*
X120766438Y-81901317D02*
X121633104Y-81901317D01*
X120271200Y-82210841D02*
X121199771Y-82520364D01*
X121199771Y-82520364D02*
X121199771Y-81715603D01*
X120333104Y-80415603D02*
X121633104Y-79982270D01*
X121633104Y-79982270D02*
X120333104Y-79548936D01*
X120333104Y-78867984D02*
X120333104Y-78620365D01*
X120333104Y-78620365D02*
X120395009Y-78496555D01*
X120395009Y-78496555D02*
X120518819Y-78372746D01*
X120518819Y-78372746D02*
X120766438Y-78310841D01*
X120766438Y-78310841D02*
X121199771Y-78310841D01*
X121199771Y-78310841D02*
X121447390Y-78372746D01*
X121447390Y-78372746D02*
X121571200Y-78496555D01*
X121571200Y-78496555D02*
X121633104Y-78620365D01*
X121633104Y-78620365D02*
X121633104Y-78867984D01*
X121633104Y-78867984D02*
X121571200Y-78991793D01*
X121571200Y-78991793D02*
X121447390Y-79115603D01*
X121447390Y-79115603D02*
X121199771Y-79177507D01*
X121199771Y-79177507D02*
X120766438Y-79177507D01*
X120766438Y-79177507D02*
X120518819Y-79115603D01*
X120518819Y-79115603D02*
X120395009Y-78991793D01*
X120395009Y-78991793D02*
X120333104Y-78867984D01*
X121633104Y-77134650D02*
X121633104Y-77753698D01*
X121633104Y-77753698D02*
X120333104Y-77753698D01*
X120333104Y-76887031D02*
X120333104Y-76144174D01*
X121633104Y-76515602D02*
X120333104Y-76515602D01*
X121261676Y-75772745D02*
X121261676Y-75153698D01*
X121633104Y-75896555D02*
X120333104Y-75463222D01*
X120333104Y-75463222D02*
X121633104Y-75029888D01*
X120395009Y-73915602D02*
X120333104Y-74039412D01*
X120333104Y-74039412D02*
X120333104Y-74225126D01*
X120333104Y-74225126D02*
X120395009Y-74410840D01*
X120395009Y-74410840D02*
X120518819Y-74534650D01*
X120518819Y-74534650D02*
X120642628Y-74596555D01*
X120642628Y-74596555D02*
X120890247Y-74658459D01*
X120890247Y-74658459D02*
X121075961Y-74658459D01*
X121075961Y-74658459D02*
X121323580Y-74596555D01*
X121323580Y-74596555D02*
X121447390Y-74534650D01*
X121447390Y-74534650D02*
X121571200Y-74410840D01*
X121571200Y-74410840D02*
X121633104Y-74225126D01*
X121633104Y-74225126D02*
X121633104Y-74101317D01*
X121633104Y-74101317D02*
X121571200Y-73915602D01*
X121571200Y-73915602D02*
X121509295Y-73853698D01*
X121509295Y-73853698D02*
X121075961Y-73853698D01*
X121075961Y-73853698D02*
X121075961Y-74101317D01*
X120952152Y-73296555D02*
X120952152Y-72863221D01*
X121633104Y-72677507D02*
X121633104Y-73296555D01*
X121633104Y-73296555D02*
X120333104Y-73296555D01*
X120333104Y-73296555D02*
X120333104Y-72677507D01*
X121756914Y-72429889D02*
X121756914Y-71439412D01*
X121633104Y-71129889D02*
X120333104Y-71129889D01*
X121633104Y-70510841D02*
X120333104Y-70510841D01*
X120333104Y-70510841D02*
X121633104Y-69767984D01*
X121633104Y-69767984D02*
X120333104Y-69767984D01*
X121633104Y-69148936D02*
X120333104Y-69148936D01*
X120333104Y-69148936D02*
X120333104Y-68839412D01*
X120333104Y-68839412D02*
X120395009Y-68653698D01*
X120395009Y-68653698D02*
X120518819Y-68529888D01*
X120518819Y-68529888D02*
X120642628Y-68467983D01*
X120642628Y-68467983D02*
X120890247Y-68406079D01*
X120890247Y-68406079D02*
X121075961Y-68406079D01*
X121075961Y-68406079D02*
X121323580Y-68467983D01*
X121323580Y-68467983D02*
X121447390Y-68529888D01*
X121447390Y-68529888D02*
X121571200Y-68653698D01*
X121571200Y-68653698D02*
X121633104Y-68839412D01*
X121633104Y-68839412D02*
X121633104Y-69148936D01*
X121633104Y-67848936D02*
X120333104Y-67848936D01*
X121509295Y-66487031D02*
X121571200Y-66548935D01*
X121571200Y-66548935D02*
X121633104Y-66734650D01*
X121633104Y-66734650D02*
X121633104Y-66858459D01*
X121633104Y-66858459D02*
X121571200Y-67044173D01*
X121571200Y-67044173D02*
X121447390Y-67167983D01*
X121447390Y-67167983D02*
X121323580Y-67229888D01*
X121323580Y-67229888D02*
X121075961Y-67291792D01*
X121075961Y-67291792D02*
X120890247Y-67291792D01*
X120890247Y-67291792D02*
X120642628Y-67229888D01*
X120642628Y-67229888D02*
X120518819Y-67167983D01*
X120518819Y-67167983D02*
X120395009Y-67044173D01*
X120395009Y-67044173D02*
X120333104Y-66858459D01*
X120333104Y-66858459D02*
X120333104Y-66734650D01*
X120333104Y-66734650D02*
X120395009Y-66548935D01*
X120395009Y-66548935D02*
X120456914Y-66487031D01*
X121261676Y-65991792D02*
X121261676Y-65372745D01*
X121633104Y-66115602D02*
X120333104Y-65682269D01*
X120333104Y-65682269D02*
X121633104Y-65248935D01*
X120333104Y-65001316D02*
X120333104Y-64258459D01*
X121633104Y-64629887D02*
X120333104Y-64629887D01*
X120333104Y-63577507D02*
X120333104Y-63329888D01*
X120333104Y-63329888D02*
X120395009Y-63206078D01*
X120395009Y-63206078D02*
X120518819Y-63082269D01*
X120518819Y-63082269D02*
X120766438Y-63020364D01*
X120766438Y-63020364D02*
X121199771Y-63020364D01*
X121199771Y-63020364D02*
X121447390Y-63082269D01*
X121447390Y-63082269D02*
X121571200Y-63206078D01*
X121571200Y-63206078D02*
X121633104Y-63329888D01*
X121633104Y-63329888D02*
X121633104Y-63577507D01*
X121633104Y-63577507D02*
X121571200Y-63701316D01*
X121571200Y-63701316D02*
X121447390Y-63825126D01*
X121447390Y-63825126D02*
X121199771Y-63887030D01*
X121199771Y-63887030D02*
X120766438Y-63887030D01*
X120766438Y-63887030D02*
X120518819Y-63825126D01*
X120518819Y-63825126D02*
X120395009Y-63701316D01*
X120395009Y-63701316D02*
X120333104Y-63577507D01*
X121633104Y-61720364D02*
X121014057Y-62153697D01*
X121633104Y-62463221D02*
X120333104Y-62463221D01*
X120333104Y-62463221D02*
X120333104Y-61967983D01*
X120333104Y-61967983D02*
X120395009Y-61844173D01*
X120395009Y-61844173D02*
X120456914Y-61782268D01*
X120456914Y-61782268D02*
X120580723Y-61720364D01*
X120580723Y-61720364D02*
X120766438Y-61720364D01*
X120766438Y-61720364D02*
X120890247Y-61782268D01*
X120890247Y-61782268D02*
X120952152Y-61844173D01*
X120952152Y-61844173D02*
X121014057Y-61967983D01*
X121014057Y-61967983D02*
X121014057Y-62463221D01*
X120333104Y-60358459D02*
X121633104Y-59925126D01*
X121633104Y-59925126D02*
X120333104Y-59491792D01*
X120456914Y-59120363D02*
X120395009Y-59058459D01*
X120395009Y-59058459D02*
X120333104Y-58934649D01*
X120333104Y-58934649D02*
X120333104Y-58625125D01*
X120333104Y-58625125D02*
X120395009Y-58501316D01*
X120395009Y-58501316D02*
X120456914Y-58439411D01*
X120456914Y-58439411D02*
X120580723Y-58377506D01*
X120580723Y-58377506D02*
X120704533Y-58377506D01*
X120704533Y-58377506D02*
X120890247Y-58439411D01*
X120890247Y-58439411D02*
X121633104Y-59182268D01*
X121633104Y-59182268D02*
X121633104Y-58377506D01*
X121509295Y-57820364D02*
X121571200Y-57758459D01*
X121571200Y-57758459D02*
X121633104Y-57820364D01*
X121633104Y-57820364D02*
X121571200Y-57882268D01*
X121571200Y-57882268D02*
X121509295Y-57820364D01*
X121509295Y-57820364D02*
X121633104Y-57820364D01*
X121633104Y-56520363D02*
X121633104Y-57263220D01*
X121633104Y-56891792D02*
X120333104Y-56891792D01*
X120333104Y-56891792D02*
X120518819Y-57015601D01*
X120518819Y-57015601D02*
X120642628Y-57139411D01*
X120642628Y-57139411D02*
X120704533Y-57263220D01*
D11*
X102554510Y-70300828D02*
X102554510Y-68800828D01*
X102554510Y-69515114D02*
X103411653Y-69515114D01*
X103411653Y-70300828D02*
X103411653Y-68800828D01*
X103911654Y-68800828D02*
X104411654Y-70300828D01*
X104411654Y-70300828D02*
X104911654Y-68800828D01*
X105411653Y-69729400D02*
X106554511Y-69729400D01*
X105983082Y-70300828D02*
X105983082Y-69157971D01*
X109068796Y-98400828D02*
X108354510Y-98400828D01*
X108354510Y-98400828D02*
X108354510Y-96900828D01*
X109568796Y-97615114D02*
X110068796Y-97615114D01*
X110283082Y-98400828D02*
X109568796Y-98400828D01*
X109568796Y-98400828D02*
X109568796Y-96900828D01*
X109568796Y-96900828D02*
X110283082Y-96900828D01*
X110925939Y-98400828D02*
X110925939Y-96900828D01*
X110925939Y-96900828D02*
X111283082Y-96900828D01*
X111283082Y-96900828D02*
X111497368Y-96972257D01*
X111497368Y-96972257D02*
X111640225Y-97115114D01*
X111640225Y-97115114D02*
X111711654Y-97257971D01*
X111711654Y-97257971D02*
X111783082Y-97543685D01*
X111783082Y-97543685D02*
X111783082Y-97757971D01*
X111783082Y-97757971D02*
X111711654Y-98043685D01*
X111711654Y-98043685D02*
X111640225Y-98186542D01*
X111640225Y-98186542D02*
X111497368Y-98329400D01*
X111497368Y-98329400D02*
X111283082Y-98400828D01*
X111283082Y-98400828D02*
X110925939Y-98400828D01*
X112425939Y-97829400D02*
X113568797Y-97829400D01*
X112997368Y-98400828D02*
X112997368Y-97257971D01*
X101668796Y-98400828D02*
X100954510Y-98400828D01*
X100954510Y-98400828D02*
X100954510Y-96900828D01*
X102168796Y-97615114D02*
X102668796Y-97615114D01*
X102883082Y-98400828D02*
X102168796Y-98400828D01*
X102168796Y-98400828D02*
X102168796Y-96900828D01*
X102168796Y-96900828D02*
X102883082Y-96900828D01*
X103525939Y-98400828D02*
X103525939Y-96900828D01*
X103525939Y-96900828D02*
X103883082Y-96900828D01*
X103883082Y-96900828D02*
X104097368Y-96972257D01*
X104097368Y-96972257D02*
X104240225Y-97115114D01*
X104240225Y-97115114D02*
X104311654Y-97257971D01*
X104311654Y-97257971D02*
X104383082Y-97543685D01*
X104383082Y-97543685D02*
X104383082Y-97757971D01*
X104383082Y-97757971D02*
X104311654Y-98043685D01*
X104311654Y-98043685D02*
X104240225Y-98186542D01*
X104240225Y-98186542D02*
X104097368Y-98329400D01*
X104097368Y-98329400D02*
X103883082Y-98400828D01*
X103883082Y-98400828D02*
X103525939Y-98400828D01*
X105025939Y-97829400D02*
X106168797Y-97829400D01*
X102554510Y-86800828D02*
X102554510Y-85300828D01*
X102554510Y-86015114D02*
X103411653Y-86015114D01*
X103411653Y-86800828D02*
X103411653Y-85300828D01*
X103911654Y-85300828D02*
X104411654Y-86800828D01*
X104411654Y-86800828D02*
X104911654Y-85300828D01*
X105411653Y-86229400D02*
X106554511Y-86229400D01*
D12*
X82174318Y-96204527D02*
X81569556Y-96627861D01*
X82174318Y-96930242D02*
X80904318Y-96930242D01*
X80904318Y-96930242D02*
X80904318Y-96446432D01*
X80904318Y-96446432D02*
X80964794Y-96325480D01*
X80964794Y-96325480D02*
X81025270Y-96265003D01*
X81025270Y-96265003D02*
X81146222Y-96204527D01*
X81146222Y-96204527D02*
X81327651Y-96204527D01*
X81327651Y-96204527D02*
X81448603Y-96265003D01*
X81448603Y-96265003D02*
X81509080Y-96325480D01*
X81509080Y-96325480D02*
X81569556Y-96446432D01*
X81569556Y-96446432D02*
X81569556Y-96930242D01*
X82174318Y-94995003D02*
X82174318Y-95720718D01*
X82174318Y-95357861D02*
X80904318Y-95357861D01*
X80904318Y-95357861D02*
X81085746Y-95478813D01*
X81085746Y-95478813D02*
X81206699Y-95599765D01*
X81206699Y-95599765D02*
X81267175Y-95720718D01*
X80904318Y-94571670D02*
X80904318Y-93785479D01*
X80904318Y-93785479D02*
X81388127Y-94208813D01*
X81388127Y-94208813D02*
X81388127Y-94027384D01*
X81388127Y-94027384D02*
X81448603Y-93906432D01*
X81448603Y-93906432D02*
X81509080Y-93845956D01*
X81509080Y-93845956D02*
X81630032Y-93785479D01*
X81630032Y-93785479D02*
X81932413Y-93785479D01*
X81932413Y-93785479D02*
X82053365Y-93845956D01*
X82053365Y-93845956D02*
X82113842Y-93906432D01*
X82113842Y-93906432D02*
X82174318Y-94027384D01*
X82174318Y-94027384D02*
X82174318Y-94390241D01*
X82174318Y-94390241D02*
X82113842Y-94511194D01*
X82113842Y-94511194D02*
X82053365Y-94571670D01*
X49788333Y-96553365D02*
X49727857Y-96613842D01*
X49727857Y-96613842D02*
X49546428Y-96674318D01*
X49546428Y-96674318D02*
X49425476Y-96674318D01*
X49425476Y-96674318D02*
X49244047Y-96613842D01*
X49244047Y-96613842D02*
X49123095Y-96492889D01*
X49123095Y-96492889D02*
X49062618Y-96371937D01*
X49062618Y-96371937D02*
X49002142Y-96130032D01*
X49002142Y-96130032D02*
X49002142Y-95948603D01*
X49002142Y-95948603D02*
X49062618Y-95706699D01*
X49062618Y-95706699D02*
X49123095Y-95585746D01*
X49123095Y-95585746D02*
X49244047Y-95464794D01*
X49244047Y-95464794D02*
X49425476Y-95404318D01*
X49425476Y-95404318D02*
X49546428Y-95404318D01*
X49546428Y-95404318D02*
X49727857Y-95464794D01*
X49727857Y-95464794D02*
X49788333Y-95525270D01*
X50272142Y-95525270D02*
X50332618Y-95464794D01*
X50332618Y-95464794D02*
X50453571Y-95404318D01*
X50453571Y-95404318D02*
X50755952Y-95404318D01*
X50755952Y-95404318D02*
X50876904Y-95464794D01*
X50876904Y-95464794D02*
X50937380Y-95525270D01*
X50937380Y-95525270D02*
X50997857Y-95646222D01*
X50997857Y-95646222D02*
X50997857Y-95767175D01*
X50997857Y-95767175D02*
X50937380Y-95948603D01*
X50937380Y-95948603D02*
X50211666Y-96674318D01*
X50211666Y-96674318D02*
X50997857Y-96674318D01*
X75399956Y-79753365D02*
X75339480Y-79813842D01*
X75339480Y-79813842D02*
X75158051Y-79874318D01*
X75158051Y-79874318D02*
X75037099Y-79874318D01*
X75037099Y-79874318D02*
X74855670Y-79813842D01*
X74855670Y-79813842D02*
X74734718Y-79692889D01*
X74734718Y-79692889D02*
X74674241Y-79571937D01*
X74674241Y-79571937D02*
X74613765Y-79330032D01*
X74613765Y-79330032D02*
X74613765Y-79148603D01*
X74613765Y-79148603D02*
X74674241Y-78906699D01*
X74674241Y-78906699D02*
X74734718Y-78785746D01*
X74734718Y-78785746D02*
X74855670Y-78664794D01*
X74855670Y-78664794D02*
X75037099Y-78604318D01*
X75037099Y-78604318D02*
X75158051Y-78604318D01*
X75158051Y-78604318D02*
X75339480Y-78664794D01*
X75339480Y-78664794D02*
X75399956Y-78725270D01*
X76549003Y-78604318D02*
X75944241Y-78604318D01*
X75944241Y-78604318D02*
X75883765Y-79209080D01*
X75883765Y-79209080D02*
X75944241Y-79148603D01*
X75944241Y-79148603D02*
X76065194Y-79088127D01*
X76065194Y-79088127D02*
X76367575Y-79088127D01*
X76367575Y-79088127D02*
X76488527Y-79148603D01*
X76488527Y-79148603D02*
X76549003Y-79209080D01*
X76549003Y-79209080D02*
X76609480Y-79330032D01*
X76609480Y-79330032D02*
X76609480Y-79632413D01*
X76609480Y-79632413D02*
X76549003Y-79753365D01*
X76549003Y-79753365D02*
X76488527Y-79813842D01*
X76488527Y-79813842D02*
X76367575Y-79874318D01*
X76367575Y-79874318D02*
X76065194Y-79874318D01*
X76065194Y-79874318D02*
X75944241Y-79813842D01*
X75944241Y-79813842D02*
X75883765Y-79753365D01*
X98308333Y-84584318D02*
X97703571Y-84584318D01*
X97703571Y-84584318D02*
X97703571Y-83314318D01*
X99396905Y-84584318D02*
X98671190Y-84584318D01*
X99034047Y-84584318D02*
X99034047Y-83314318D01*
X99034047Y-83314318D02*
X98913095Y-83495746D01*
X98913095Y-83495746D02*
X98792143Y-83616699D01*
X98792143Y-83616699D02*
X98671190Y-83677175D01*
X55288333Y-84453365D02*
X55227857Y-84513842D01*
X55227857Y-84513842D02*
X55046428Y-84574318D01*
X55046428Y-84574318D02*
X54925476Y-84574318D01*
X54925476Y-84574318D02*
X54744047Y-84513842D01*
X54744047Y-84513842D02*
X54623095Y-84392889D01*
X54623095Y-84392889D02*
X54562618Y-84271937D01*
X54562618Y-84271937D02*
X54502142Y-84030032D01*
X54502142Y-84030032D02*
X54502142Y-83848603D01*
X54502142Y-83848603D02*
X54562618Y-83606699D01*
X54562618Y-83606699D02*
X54623095Y-83485746D01*
X54623095Y-83485746D02*
X54744047Y-83364794D01*
X54744047Y-83364794D02*
X54925476Y-83304318D01*
X54925476Y-83304318D02*
X55046428Y-83304318D01*
X55046428Y-83304318D02*
X55227857Y-83364794D01*
X55227857Y-83364794D02*
X55288333Y-83425270D01*
X56376904Y-83727651D02*
X56376904Y-84574318D01*
X56074523Y-83243842D02*
X55772142Y-84150984D01*
X55772142Y-84150984D02*
X56558333Y-84150984D01*
X74988333Y-56953365D02*
X74927857Y-57013842D01*
X74927857Y-57013842D02*
X74746428Y-57074318D01*
X74746428Y-57074318D02*
X74625476Y-57074318D01*
X74625476Y-57074318D02*
X74444047Y-57013842D01*
X74444047Y-57013842D02*
X74323095Y-56892889D01*
X74323095Y-56892889D02*
X74262618Y-56771937D01*
X74262618Y-56771937D02*
X74202142Y-56530032D01*
X74202142Y-56530032D02*
X74202142Y-56348603D01*
X74202142Y-56348603D02*
X74262618Y-56106699D01*
X74262618Y-56106699D02*
X74323095Y-55985746D01*
X74323095Y-55985746D02*
X74444047Y-55864794D01*
X74444047Y-55864794D02*
X74625476Y-55804318D01*
X74625476Y-55804318D02*
X74746428Y-55804318D01*
X74746428Y-55804318D02*
X74927857Y-55864794D01*
X74927857Y-55864794D02*
X74988333Y-55925270D01*
X76197857Y-57074318D02*
X75472142Y-57074318D01*
X75834999Y-57074318D02*
X75834999Y-55804318D01*
X75834999Y-55804318D02*
X75714047Y-55985746D01*
X75714047Y-55985746D02*
X75593095Y-56106699D01*
X75593095Y-56106699D02*
X75472142Y-56167175D01*
X105444318Y-77986332D02*
X106351461Y-77986332D01*
X106351461Y-77986332D02*
X106532889Y-78046809D01*
X106532889Y-78046809D02*
X106653842Y-78167761D01*
X106653842Y-78167761D02*
X106714318Y-78349190D01*
X106714318Y-78349190D02*
X106714318Y-78470142D01*
X106714318Y-76716332D02*
X106714318Y-77442047D01*
X106714318Y-77079190D02*
X105444318Y-77079190D01*
X105444318Y-77079190D02*
X105625746Y-77200142D01*
X105625746Y-77200142D02*
X105746699Y-77321094D01*
X105746699Y-77321094D02*
X105807175Y-77442047D01*
X42088333Y-87374318D02*
X41664999Y-86769556D01*
X41362618Y-87374318D02*
X41362618Y-86104318D01*
X41362618Y-86104318D02*
X41846428Y-86104318D01*
X41846428Y-86104318D02*
X41967380Y-86164794D01*
X41967380Y-86164794D02*
X42027857Y-86225270D01*
X42027857Y-86225270D02*
X42088333Y-86346222D01*
X42088333Y-86346222D02*
X42088333Y-86527651D01*
X42088333Y-86527651D02*
X42027857Y-86648603D01*
X42027857Y-86648603D02*
X41967380Y-86709080D01*
X41967380Y-86709080D02*
X41846428Y-86769556D01*
X41846428Y-86769556D02*
X41362618Y-86769556D01*
X43176904Y-86104318D02*
X42934999Y-86104318D01*
X42934999Y-86104318D02*
X42814047Y-86164794D01*
X42814047Y-86164794D02*
X42753571Y-86225270D01*
X42753571Y-86225270D02*
X42632618Y-86406699D01*
X42632618Y-86406699D02*
X42572142Y-86648603D01*
X42572142Y-86648603D02*
X42572142Y-87132413D01*
X42572142Y-87132413D02*
X42632618Y-87253365D01*
X42632618Y-87253365D02*
X42693095Y-87313842D01*
X42693095Y-87313842D02*
X42814047Y-87374318D01*
X42814047Y-87374318D02*
X43055952Y-87374318D01*
X43055952Y-87374318D02*
X43176904Y-87313842D01*
X43176904Y-87313842D02*
X43237380Y-87253365D01*
X43237380Y-87253365D02*
X43297857Y-87132413D01*
X43297857Y-87132413D02*
X43297857Y-86830032D01*
X43297857Y-86830032D02*
X43237380Y-86709080D01*
X43237380Y-86709080D02*
X43176904Y-86648603D01*
X43176904Y-86648603D02*
X43055952Y-86588127D01*
X43055952Y-86588127D02*
X42814047Y-86588127D01*
X42814047Y-86588127D02*
X42693095Y-86648603D01*
X42693095Y-86648603D02*
X42632618Y-86709080D01*
X42632618Y-86709080D02*
X42572142Y-86830032D01*
X82983571Y-57953365D02*
X82923095Y-58013842D01*
X82923095Y-58013842D02*
X82741666Y-58074318D01*
X82741666Y-58074318D02*
X82620714Y-58074318D01*
X82620714Y-58074318D02*
X82439285Y-58013842D01*
X82439285Y-58013842D02*
X82318333Y-57892889D01*
X82318333Y-57892889D02*
X82257856Y-57771937D01*
X82257856Y-57771937D02*
X82197380Y-57530032D01*
X82197380Y-57530032D02*
X82197380Y-57348603D01*
X82197380Y-57348603D02*
X82257856Y-57106699D01*
X82257856Y-57106699D02*
X82318333Y-56985746D01*
X82318333Y-56985746D02*
X82439285Y-56864794D01*
X82439285Y-56864794D02*
X82620714Y-56804318D01*
X82620714Y-56804318D02*
X82741666Y-56804318D01*
X82741666Y-56804318D02*
X82923095Y-56864794D01*
X82923095Y-56864794D02*
X82983571Y-56925270D01*
X84193095Y-58074318D02*
X83467380Y-58074318D01*
X83830237Y-58074318D02*
X83830237Y-56804318D01*
X83830237Y-56804318D02*
X83709285Y-56985746D01*
X83709285Y-56985746D02*
X83588333Y-57106699D01*
X83588333Y-57106699D02*
X83467380Y-57167175D01*
X84616428Y-56804318D02*
X85402619Y-56804318D01*
X85402619Y-56804318D02*
X84979285Y-57288127D01*
X84979285Y-57288127D02*
X85160714Y-57288127D01*
X85160714Y-57288127D02*
X85281666Y-57348603D01*
X85281666Y-57348603D02*
X85342142Y-57409080D01*
X85342142Y-57409080D02*
X85402619Y-57530032D01*
X85402619Y-57530032D02*
X85402619Y-57832413D01*
X85402619Y-57832413D02*
X85342142Y-57953365D01*
X85342142Y-57953365D02*
X85281666Y-58013842D01*
X85281666Y-58013842D02*
X85160714Y-58074318D01*
X85160714Y-58074318D02*
X84797857Y-58074318D01*
X84797857Y-58074318D02*
X84676904Y-58013842D01*
X84676904Y-58013842D02*
X84616428Y-57953365D01*
X74195472Y-95574318D02*
X73772138Y-94969556D01*
X73469757Y-95574318D02*
X73469757Y-94304318D01*
X73469757Y-94304318D02*
X73953567Y-94304318D01*
X73953567Y-94304318D02*
X74074519Y-94364794D01*
X74074519Y-94364794D02*
X74134996Y-94425270D01*
X74134996Y-94425270D02*
X74195472Y-94546222D01*
X74195472Y-94546222D02*
X74195472Y-94727651D01*
X74195472Y-94727651D02*
X74134996Y-94848603D01*
X74134996Y-94848603D02*
X74074519Y-94909080D01*
X74074519Y-94909080D02*
X73953567Y-94969556D01*
X73953567Y-94969556D02*
X73469757Y-94969556D01*
X75404996Y-95574318D02*
X74679281Y-95574318D01*
X75042138Y-95574318D02*
X75042138Y-94304318D01*
X75042138Y-94304318D02*
X74921186Y-94485746D01*
X74921186Y-94485746D02*
X74800234Y-94606699D01*
X74800234Y-94606699D02*
X74679281Y-94667175D01*
X76191186Y-94304318D02*
X76312139Y-94304318D01*
X76312139Y-94304318D02*
X76433091Y-94364794D01*
X76433091Y-94364794D02*
X76493567Y-94425270D01*
X76493567Y-94425270D02*
X76554043Y-94546222D01*
X76554043Y-94546222D02*
X76614520Y-94788127D01*
X76614520Y-94788127D02*
X76614520Y-95090508D01*
X76614520Y-95090508D02*
X76554043Y-95332413D01*
X76554043Y-95332413D02*
X76493567Y-95453365D01*
X76493567Y-95453365D02*
X76433091Y-95513842D01*
X76433091Y-95513842D02*
X76312139Y-95574318D01*
X76312139Y-95574318D02*
X76191186Y-95574318D01*
X76191186Y-95574318D02*
X76070234Y-95513842D01*
X76070234Y-95513842D02*
X76009758Y-95453365D01*
X76009758Y-95453365D02*
X75949281Y-95332413D01*
X75949281Y-95332413D02*
X75888805Y-95090508D01*
X75888805Y-95090508D02*
X75888805Y-94788127D01*
X75888805Y-94788127D02*
X75949281Y-94546222D01*
X75949281Y-94546222D02*
X76009758Y-94425270D01*
X76009758Y-94425270D02*
X76070234Y-94364794D01*
X76070234Y-94364794D02*
X76191186Y-94304318D01*
X78562618Y-90074318D02*
X78562618Y-88804318D01*
X78562618Y-88804318D02*
X78864999Y-88804318D01*
X78864999Y-88804318D02*
X79046428Y-88864794D01*
X79046428Y-88864794D02*
X79167380Y-88985746D01*
X79167380Y-88985746D02*
X79227857Y-89106699D01*
X79227857Y-89106699D02*
X79288333Y-89348603D01*
X79288333Y-89348603D02*
X79288333Y-89530032D01*
X79288333Y-89530032D02*
X79227857Y-89771937D01*
X79227857Y-89771937D02*
X79167380Y-89892889D01*
X79167380Y-89892889D02*
X79046428Y-90013842D01*
X79046428Y-90013842D02*
X78864999Y-90074318D01*
X78864999Y-90074318D02*
X78562618Y-90074318D01*
X79772142Y-88925270D02*
X79832618Y-88864794D01*
X79832618Y-88864794D02*
X79953571Y-88804318D01*
X79953571Y-88804318D02*
X80255952Y-88804318D01*
X80255952Y-88804318D02*
X80376904Y-88864794D01*
X80376904Y-88864794D02*
X80437380Y-88925270D01*
X80437380Y-88925270D02*
X80497857Y-89046222D01*
X80497857Y-89046222D02*
X80497857Y-89167175D01*
X80497857Y-89167175D02*
X80437380Y-89348603D01*
X80437380Y-89348603D02*
X79711666Y-90074318D01*
X79711666Y-90074318D02*
X80497857Y-90074318D01*
D10*
X102806666Y-90054819D02*
X102806666Y-90769104D01*
X102806666Y-90769104D02*
X102759047Y-90911961D01*
X102759047Y-90911961D02*
X102663809Y-91007200D01*
X102663809Y-91007200D02*
X102520952Y-91054819D01*
X102520952Y-91054819D02*
X102425714Y-91054819D01*
X103187619Y-90054819D02*
X103854285Y-90054819D01*
X103854285Y-90054819D02*
X103425714Y-91054819D01*
D12*
X48088333Y-78874318D02*
X47664999Y-78269556D01*
X47362618Y-78874318D02*
X47362618Y-77604318D01*
X47362618Y-77604318D02*
X47846428Y-77604318D01*
X47846428Y-77604318D02*
X47967380Y-77664794D01*
X47967380Y-77664794D02*
X48027857Y-77725270D01*
X48027857Y-77725270D02*
X48088333Y-77846222D01*
X48088333Y-77846222D02*
X48088333Y-78027651D01*
X48088333Y-78027651D02*
X48027857Y-78148603D01*
X48027857Y-78148603D02*
X47967380Y-78209080D01*
X47967380Y-78209080D02*
X47846428Y-78269556D01*
X47846428Y-78269556D02*
X47362618Y-78269556D01*
X48511666Y-77604318D02*
X49297857Y-77604318D01*
X49297857Y-77604318D02*
X48874523Y-78088127D01*
X48874523Y-78088127D02*
X49055952Y-78088127D01*
X49055952Y-78088127D02*
X49176904Y-78148603D01*
X49176904Y-78148603D02*
X49237380Y-78209080D01*
X49237380Y-78209080D02*
X49297857Y-78330032D01*
X49297857Y-78330032D02*
X49297857Y-78632413D01*
X49297857Y-78632413D02*
X49237380Y-78753365D01*
X49237380Y-78753365D02*
X49176904Y-78813842D01*
X49176904Y-78813842D02*
X49055952Y-78874318D01*
X49055952Y-78874318D02*
X48693095Y-78874318D01*
X48693095Y-78874318D02*
X48572142Y-78813842D01*
X48572142Y-78813842D02*
X48511666Y-78753365D01*
X97377168Y-90973690D02*
X97377168Y-92001785D01*
X97377168Y-92001785D02*
X97437645Y-92122737D01*
X97437645Y-92122737D02*
X97498121Y-92183214D01*
X97498121Y-92183214D02*
X97619073Y-92243690D01*
X97619073Y-92243690D02*
X97860978Y-92243690D01*
X97860978Y-92243690D02*
X97981930Y-92183214D01*
X97981930Y-92183214D02*
X98042407Y-92122737D01*
X98042407Y-92122737D02*
X98102883Y-92001785D01*
X98102883Y-92001785D02*
X98102883Y-90973690D01*
X99372883Y-92243690D02*
X98647168Y-92243690D01*
X99010025Y-92243690D02*
X99010025Y-90973690D01*
X99010025Y-90973690D02*
X98889073Y-91155118D01*
X98889073Y-91155118D02*
X98768121Y-91276071D01*
X98768121Y-91276071D02*
X98647168Y-91336547D01*
X79062618Y-66174318D02*
X79062618Y-64904318D01*
X79062618Y-64904318D02*
X79364999Y-64904318D01*
X79364999Y-64904318D02*
X79546428Y-64964794D01*
X79546428Y-64964794D02*
X79667380Y-65085746D01*
X79667380Y-65085746D02*
X79727857Y-65206699D01*
X79727857Y-65206699D02*
X79788333Y-65448603D01*
X79788333Y-65448603D02*
X79788333Y-65630032D01*
X79788333Y-65630032D02*
X79727857Y-65871937D01*
X79727857Y-65871937D02*
X79667380Y-65992889D01*
X79667380Y-65992889D02*
X79546428Y-66113842D01*
X79546428Y-66113842D02*
X79364999Y-66174318D01*
X79364999Y-66174318D02*
X79062618Y-66174318D01*
X80211666Y-64904318D02*
X80997857Y-64904318D01*
X80997857Y-64904318D02*
X80574523Y-65388127D01*
X80574523Y-65388127D02*
X80755952Y-65388127D01*
X80755952Y-65388127D02*
X80876904Y-65448603D01*
X80876904Y-65448603D02*
X80937380Y-65509080D01*
X80937380Y-65509080D02*
X80997857Y-65630032D01*
X80997857Y-65630032D02*
X80997857Y-65932413D01*
X80997857Y-65932413D02*
X80937380Y-66053365D01*
X80937380Y-66053365D02*
X80876904Y-66113842D01*
X80876904Y-66113842D02*
X80755952Y-66174318D01*
X80755952Y-66174318D02*
X80393095Y-66174318D01*
X80393095Y-66174318D02*
X80272142Y-66113842D01*
X80272142Y-66113842D02*
X80211666Y-66053365D01*
X98971904Y-61104318D02*
X99818571Y-61104318D01*
X99818571Y-61104318D02*
X98971904Y-62374318D01*
X98971904Y-62374318D02*
X99818571Y-62374318D01*
X100967619Y-62374318D02*
X100241904Y-62374318D01*
X100604761Y-62374318D02*
X100604761Y-61104318D01*
X100604761Y-61104318D02*
X100483809Y-61285746D01*
X100483809Y-61285746D02*
X100362857Y-61406699D01*
X100362857Y-61406699D02*
X100241904Y-61467175D01*
X53400234Y-94074318D02*
X52976900Y-93469556D01*
X52674519Y-94074318D02*
X52674519Y-92804318D01*
X52674519Y-92804318D02*
X53158329Y-92804318D01*
X53158329Y-92804318D02*
X53279281Y-92864794D01*
X53279281Y-92864794D02*
X53339758Y-92925270D01*
X53339758Y-92925270D02*
X53400234Y-93046222D01*
X53400234Y-93046222D02*
X53400234Y-93227651D01*
X53400234Y-93227651D02*
X53339758Y-93348603D01*
X53339758Y-93348603D02*
X53279281Y-93409080D01*
X53279281Y-93409080D02*
X53158329Y-93469556D01*
X53158329Y-93469556D02*
X52674519Y-93469556D01*
X54125948Y-93348603D02*
X54004996Y-93288127D01*
X54004996Y-93288127D02*
X53944519Y-93227651D01*
X53944519Y-93227651D02*
X53884043Y-93106699D01*
X53884043Y-93106699D02*
X53884043Y-93046222D01*
X53884043Y-93046222D02*
X53944519Y-92925270D01*
X53944519Y-92925270D02*
X54004996Y-92864794D01*
X54004996Y-92864794D02*
X54125948Y-92804318D01*
X54125948Y-92804318D02*
X54367853Y-92804318D01*
X54367853Y-92804318D02*
X54488805Y-92864794D01*
X54488805Y-92864794D02*
X54549281Y-92925270D01*
X54549281Y-92925270D02*
X54609758Y-93046222D01*
X54609758Y-93046222D02*
X54609758Y-93106699D01*
X54609758Y-93106699D02*
X54549281Y-93227651D01*
X54549281Y-93227651D02*
X54488805Y-93288127D01*
X54488805Y-93288127D02*
X54367853Y-93348603D01*
X54367853Y-93348603D02*
X54125948Y-93348603D01*
X54125948Y-93348603D02*
X54004996Y-93409080D01*
X54004996Y-93409080D02*
X53944519Y-93469556D01*
X53944519Y-93469556D02*
X53884043Y-93590508D01*
X53884043Y-93590508D02*
X53884043Y-93832413D01*
X53884043Y-93832413D02*
X53944519Y-93953365D01*
X53944519Y-93953365D02*
X54004996Y-94013842D01*
X54004996Y-94013842D02*
X54125948Y-94074318D01*
X54125948Y-94074318D02*
X54367853Y-94074318D01*
X54367853Y-94074318D02*
X54488805Y-94013842D01*
X54488805Y-94013842D02*
X54549281Y-93953365D01*
X54549281Y-93953365D02*
X54609758Y-93832413D01*
X54609758Y-93832413D02*
X54609758Y-93590508D01*
X54609758Y-93590508D02*
X54549281Y-93469556D01*
X54549281Y-93469556D02*
X54488805Y-93409080D01*
X54488805Y-93409080D02*
X54367853Y-93348603D01*
X72288333Y-67074318D02*
X71864999Y-66469556D01*
X71562618Y-67074318D02*
X71562618Y-65804318D01*
X71562618Y-65804318D02*
X72046428Y-65804318D01*
X72046428Y-65804318D02*
X72167380Y-65864794D01*
X72167380Y-65864794D02*
X72227857Y-65925270D01*
X72227857Y-65925270D02*
X72288333Y-66046222D01*
X72288333Y-66046222D02*
X72288333Y-66227651D01*
X72288333Y-66227651D02*
X72227857Y-66348603D01*
X72227857Y-66348603D02*
X72167380Y-66409080D01*
X72167380Y-66409080D02*
X72046428Y-66469556D01*
X72046428Y-66469556D02*
X71562618Y-66469556D01*
X73497857Y-67074318D02*
X72772142Y-67074318D01*
X73134999Y-67074318D02*
X73134999Y-65804318D01*
X73134999Y-65804318D02*
X73014047Y-65985746D01*
X73014047Y-65985746D02*
X72893095Y-66106699D01*
X72893095Y-66106699D02*
X72772142Y-66167175D01*
X71588333Y-79974318D02*
X71164999Y-79369556D01*
X70862618Y-79974318D02*
X70862618Y-78704318D01*
X70862618Y-78704318D02*
X71346428Y-78704318D01*
X71346428Y-78704318D02*
X71467380Y-78764794D01*
X71467380Y-78764794D02*
X71527857Y-78825270D01*
X71527857Y-78825270D02*
X71588333Y-78946222D01*
X71588333Y-78946222D02*
X71588333Y-79127651D01*
X71588333Y-79127651D02*
X71527857Y-79248603D01*
X71527857Y-79248603D02*
X71467380Y-79309080D01*
X71467380Y-79309080D02*
X71346428Y-79369556D01*
X71346428Y-79369556D02*
X70862618Y-79369556D01*
X72676904Y-79127651D02*
X72676904Y-79974318D01*
X72374523Y-78643842D02*
X72072142Y-79550984D01*
X72072142Y-79550984D02*
X72858333Y-79550984D01*
X94679047Y-101295270D02*
X94558095Y-101234794D01*
X94558095Y-101234794D02*
X94437142Y-101113842D01*
X94437142Y-101113842D02*
X94255714Y-100932413D01*
X94255714Y-100932413D02*
X94134761Y-100871937D01*
X94134761Y-100871937D02*
X94013809Y-100871937D01*
X94074285Y-101174318D02*
X93953333Y-101113842D01*
X93953333Y-101113842D02*
X93832380Y-100992889D01*
X93832380Y-100992889D02*
X93771904Y-100750984D01*
X93771904Y-100750984D02*
X93771904Y-100327651D01*
X93771904Y-100327651D02*
X93832380Y-100085746D01*
X93832380Y-100085746D02*
X93953333Y-99964794D01*
X93953333Y-99964794D02*
X94074285Y-99904318D01*
X94074285Y-99904318D02*
X94316190Y-99904318D01*
X94316190Y-99904318D02*
X94437142Y-99964794D01*
X94437142Y-99964794D02*
X94558095Y-100085746D01*
X94558095Y-100085746D02*
X94618571Y-100327651D01*
X94618571Y-100327651D02*
X94618571Y-100750984D01*
X94618571Y-100750984D02*
X94558095Y-100992889D01*
X94558095Y-100992889D02*
X94437142Y-101113842D01*
X94437142Y-101113842D02*
X94316190Y-101174318D01*
X94316190Y-101174318D02*
X94074285Y-101174318D01*
X95102380Y-100025270D02*
X95162856Y-99964794D01*
X95162856Y-99964794D02*
X95283809Y-99904318D01*
X95283809Y-99904318D02*
X95586190Y-99904318D01*
X95586190Y-99904318D02*
X95707142Y-99964794D01*
X95707142Y-99964794D02*
X95767618Y-100025270D01*
X95767618Y-100025270D02*
X95828095Y-100146222D01*
X95828095Y-100146222D02*
X95828095Y-100267175D01*
X95828095Y-100267175D02*
X95767618Y-100448603D01*
X95767618Y-100448603D02*
X95041904Y-101174318D01*
X95041904Y-101174318D02*
X95828095Y-101174318D01*
X59988333Y-94474318D02*
X59564999Y-93869556D01*
X59262618Y-94474318D02*
X59262618Y-93204318D01*
X59262618Y-93204318D02*
X59746428Y-93204318D01*
X59746428Y-93204318D02*
X59867380Y-93264794D01*
X59867380Y-93264794D02*
X59927857Y-93325270D01*
X59927857Y-93325270D02*
X59988333Y-93446222D01*
X59988333Y-93446222D02*
X59988333Y-93627651D01*
X59988333Y-93627651D02*
X59927857Y-93748603D01*
X59927857Y-93748603D02*
X59867380Y-93809080D01*
X59867380Y-93809080D02*
X59746428Y-93869556D01*
X59746428Y-93869556D02*
X59262618Y-93869556D01*
X60593095Y-94474318D02*
X60834999Y-94474318D01*
X60834999Y-94474318D02*
X60955952Y-94413842D01*
X60955952Y-94413842D02*
X61016428Y-94353365D01*
X61016428Y-94353365D02*
X61137380Y-94171937D01*
X61137380Y-94171937D02*
X61197857Y-93930032D01*
X61197857Y-93930032D02*
X61197857Y-93446222D01*
X61197857Y-93446222D02*
X61137380Y-93325270D01*
X61137380Y-93325270D02*
X61076904Y-93264794D01*
X61076904Y-93264794D02*
X60955952Y-93204318D01*
X60955952Y-93204318D02*
X60714047Y-93204318D01*
X60714047Y-93204318D02*
X60593095Y-93264794D01*
X60593095Y-93264794D02*
X60532618Y-93325270D01*
X60532618Y-93325270D02*
X60472142Y-93446222D01*
X60472142Y-93446222D02*
X60472142Y-93748603D01*
X60472142Y-93748603D02*
X60532618Y-93869556D01*
X60532618Y-93869556D02*
X60593095Y-93930032D01*
X60593095Y-93930032D02*
X60714047Y-93990508D01*
X60714047Y-93990508D02*
X60955952Y-93990508D01*
X60955952Y-93990508D02*
X61076904Y-93930032D01*
X61076904Y-93930032D02*
X61137380Y-93869556D01*
X61137380Y-93869556D02*
X61197857Y-93748603D01*
X57788333Y-87453365D02*
X57727857Y-87513842D01*
X57727857Y-87513842D02*
X57546428Y-87574318D01*
X57546428Y-87574318D02*
X57425476Y-87574318D01*
X57425476Y-87574318D02*
X57244047Y-87513842D01*
X57244047Y-87513842D02*
X57123095Y-87392889D01*
X57123095Y-87392889D02*
X57062618Y-87271937D01*
X57062618Y-87271937D02*
X57002142Y-87030032D01*
X57002142Y-87030032D02*
X57002142Y-86848603D01*
X57002142Y-86848603D02*
X57062618Y-86606699D01*
X57062618Y-86606699D02*
X57123095Y-86485746D01*
X57123095Y-86485746D02*
X57244047Y-86364794D01*
X57244047Y-86364794D02*
X57425476Y-86304318D01*
X57425476Y-86304318D02*
X57546428Y-86304318D01*
X57546428Y-86304318D02*
X57727857Y-86364794D01*
X57727857Y-86364794D02*
X57788333Y-86425270D01*
X58514047Y-86848603D02*
X58393095Y-86788127D01*
X58393095Y-86788127D02*
X58332618Y-86727651D01*
X58332618Y-86727651D02*
X58272142Y-86606699D01*
X58272142Y-86606699D02*
X58272142Y-86546222D01*
X58272142Y-86546222D02*
X58332618Y-86425270D01*
X58332618Y-86425270D02*
X58393095Y-86364794D01*
X58393095Y-86364794D02*
X58514047Y-86304318D01*
X58514047Y-86304318D02*
X58755952Y-86304318D01*
X58755952Y-86304318D02*
X58876904Y-86364794D01*
X58876904Y-86364794D02*
X58937380Y-86425270D01*
X58937380Y-86425270D02*
X58997857Y-86546222D01*
X58997857Y-86546222D02*
X58997857Y-86606699D01*
X58997857Y-86606699D02*
X58937380Y-86727651D01*
X58937380Y-86727651D02*
X58876904Y-86788127D01*
X58876904Y-86788127D02*
X58755952Y-86848603D01*
X58755952Y-86848603D02*
X58514047Y-86848603D01*
X58514047Y-86848603D02*
X58393095Y-86909080D01*
X58393095Y-86909080D02*
X58332618Y-86969556D01*
X58332618Y-86969556D02*
X58272142Y-87090508D01*
X58272142Y-87090508D02*
X58272142Y-87332413D01*
X58272142Y-87332413D02*
X58332618Y-87453365D01*
X58332618Y-87453365D02*
X58393095Y-87513842D01*
X58393095Y-87513842D02*
X58514047Y-87574318D01*
X58514047Y-87574318D02*
X58755952Y-87574318D01*
X58755952Y-87574318D02*
X58876904Y-87513842D01*
X58876904Y-87513842D02*
X58937380Y-87453365D01*
X58937380Y-87453365D02*
X58997857Y-87332413D01*
X58997857Y-87332413D02*
X58997857Y-87090508D01*
X58997857Y-87090508D02*
X58937380Y-86969556D01*
X58937380Y-86969556D02*
X58876904Y-86909080D01*
X58876904Y-86909080D02*
X58755952Y-86848603D01*
X47200234Y-94274318D02*
X46776900Y-93669556D01*
X46474519Y-94274318D02*
X46474519Y-93004318D01*
X46474519Y-93004318D02*
X46958329Y-93004318D01*
X46958329Y-93004318D02*
X47079281Y-93064794D01*
X47079281Y-93064794D02*
X47139758Y-93125270D01*
X47139758Y-93125270D02*
X47200234Y-93246222D01*
X47200234Y-93246222D02*
X47200234Y-93427651D01*
X47200234Y-93427651D02*
X47139758Y-93548603D01*
X47139758Y-93548603D02*
X47079281Y-93609080D01*
X47079281Y-93609080D02*
X46958329Y-93669556D01*
X46958329Y-93669556D02*
X46474519Y-93669556D01*
X47623567Y-93004318D02*
X48470234Y-93004318D01*
X48470234Y-93004318D02*
X47925948Y-94274318D01*
X91183571Y-57953365D02*
X91123095Y-58013842D01*
X91123095Y-58013842D02*
X90941666Y-58074318D01*
X90941666Y-58074318D02*
X90820714Y-58074318D01*
X90820714Y-58074318D02*
X90639285Y-58013842D01*
X90639285Y-58013842D02*
X90518333Y-57892889D01*
X90518333Y-57892889D02*
X90457856Y-57771937D01*
X90457856Y-57771937D02*
X90397380Y-57530032D01*
X90397380Y-57530032D02*
X90397380Y-57348603D01*
X90397380Y-57348603D02*
X90457856Y-57106699D01*
X90457856Y-57106699D02*
X90518333Y-56985746D01*
X90518333Y-56985746D02*
X90639285Y-56864794D01*
X90639285Y-56864794D02*
X90820714Y-56804318D01*
X90820714Y-56804318D02*
X90941666Y-56804318D01*
X90941666Y-56804318D02*
X91123095Y-56864794D01*
X91123095Y-56864794D02*
X91183571Y-56925270D01*
X92393095Y-58074318D02*
X91667380Y-58074318D01*
X92030237Y-58074318D02*
X92030237Y-56804318D01*
X92030237Y-56804318D02*
X91909285Y-56985746D01*
X91909285Y-56985746D02*
X91788333Y-57106699D01*
X91788333Y-57106699D02*
X91667380Y-57167175D01*
X93602619Y-58074318D02*
X92876904Y-58074318D01*
X93239761Y-58074318D02*
X93239761Y-56804318D01*
X93239761Y-56804318D02*
X93118809Y-56985746D01*
X93118809Y-56985746D02*
X92997857Y-57106699D01*
X92997857Y-57106699D02*
X92876904Y-57167175D01*
X79656667Y-50409080D02*
X79233333Y-50409080D01*
X79233333Y-51074318D02*
X79233333Y-49804318D01*
X79233333Y-49804318D02*
X79838095Y-49804318D01*
X80987143Y-51074318D02*
X80261428Y-51074318D01*
X80624285Y-51074318D02*
X80624285Y-49804318D01*
X80624285Y-49804318D02*
X80503333Y-49985746D01*
X80503333Y-49985746D02*
X80382381Y-50106699D01*
X80382381Y-50106699D02*
X80261428Y-50167175D01*
X66588333Y-82253365D02*
X66527857Y-82313842D01*
X66527857Y-82313842D02*
X66346428Y-82374318D01*
X66346428Y-82374318D02*
X66225476Y-82374318D01*
X66225476Y-82374318D02*
X66044047Y-82313842D01*
X66044047Y-82313842D02*
X65923095Y-82192889D01*
X65923095Y-82192889D02*
X65862618Y-82071937D01*
X65862618Y-82071937D02*
X65802142Y-81830032D01*
X65802142Y-81830032D02*
X65802142Y-81648603D01*
X65802142Y-81648603D02*
X65862618Y-81406699D01*
X65862618Y-81406699D02*
X65923095Y-81285746D01*
X65923095Y-81285746D02*
X66044047Y-81164794D01*
X66044047Y-81164794D02*
X66225476Y-81104318D01*
X66225476Y-81104318D02*
X66346428Y-81104318D01*
X66346428Y-81104318D02*
X66527857Y-81164794D01*
X66527857Y-81164794D02*
X66588333Y-81225270D01*
X67011666Y-81104318D02*
X67797857Y-81104318D01*
X67797857Y-81104318D02*
X67374523Y-81588127D01*
X67374523Y-81588127D02*
X67555952Y-81588127D01*
X67555952Y-81588127D02*
X67676904Y-81648603D01*
X67676904Y-81648603D02*
X67737380Y-81709080D01*
X67737380Y-81709080D02*
X67797857Y-81830032D01*
X67797857Y-81830032D02*
X67797857Y-82132413D01*
X67797857Y-82132413D02*
X67737380Y-82253365D01*
X67737380Y-82253365D02*
X67676904Y-82313842D01*
X67676904Y-82313842D02*
X67555952Y-82374318D01*
X67555952Y-82374318D02*
X67193095Y-82374318D01*
X67193095Y-82374318D02*
X67072142Y-82313842D01*
X67072142Y-82313842D02*
X67011666Y-82253365D01*
X67383571Y-94386219D02*
X66960237Y-93781457D01*
X66657856Y-94386219D02*
X66657856Y-93116219D01*
X66657856Y-93116219D02*
X67141666Y-93116219D01*
X67141666Y-93116219D02*
X67262618Y-93176695D01*
X67262618Y-93176695D02*
X67323095Y-93237171D01*
X67323095Y-93237171D02*
X67383571Y-93358123D01*
X67383571Y-93358123D02*
X67383571Y-93539552D01*
X67383571Y-93539552D02*
X67323095Y-93660504D01*
X67323095Y-93660504D02*
X67262618Y-93720981D01*
X67262618Y-93720981D02*
X67141666Y-93781457D01*
X67141666Y-93781457D02*
X66657856Y-93781457D01*
X68593095Y-94386219D02*
X67867380Y-94386219D01*
X68230237Y-94386219D02*
X68230237Y-93116219D01*
X68230237Y-93116219D02*
X68109285Y-93297647D01*
X68109285Y-93297647D02*
X67988333Y-93418600D01*
X67988333Y-93418600D02*
X67867380Y-93479076D01*
X69802619Y-94386219D02*
X69076904Y-94386219D01*
X69439761Y-94386219D02*
X69439761Y-93116219D01*
X69439761Y-93116219D02*
X69318809Y-93297647D01*
X69318809Y-93297647D02*
X69197857Y-93418600D01*
X69197857Y-93418600D02*
X69076904Y-93479076D01*
X68200234Y-88074318D02*
X67776900Y-87469556D01*
X67474519Y-88074318D02*
X67474519Y-86804318D01*
X67474519Y-86804318D02*
X67958329Y-86804318D01*
X67958329Y-86804318D02*
X68079281Y-86864794D01*
X68079281Y-86864794D02*
X68139758Y-86925270D01*
X68139758Y-86925270D02*
X68200234Y-87046222D01*
X68200234Y-87046222D02*
X68200234Y-87227651D01*
X68200234Y-87227651D02*
X68139758Y-87348603D01*
X68139758Y-87348603D02*
X68079281Y-87409080D01*
X68079281Y-87409080D02*
X67958329Y-87469556D01*
X67958329Y-87469556D02*
X67474519Y-87469556D01*
X68684043Y-86925270D02*
X68744519Y-86864794D01*
X68744519Y-86864794D02*
X68865472Y-86804318D01*
X68865472Y-86804318D02*
X69167853Y-86804318D01*
X69167853Y-86804318D02*
X69288805Y-86864794D01*
X69288805Y-86864794D02*
X69349281Y-86925270D01*
X69349281Y-86925270D02*
X69409758Y-87046222D01*
X69409758Y-87046222D02*
X69409758Y-87167175D01*
X69409758Y-87167175D02*
X69349281Y-87348603D01*
X69349281Y-87348603D02*
X68623567Y-88074318D01*
X68623567Y-88074318D02*
X69409758Y-88074318D01*
X55260237Y-75574318D02*
X55260237Y-74304318D01*
X56590714Y-75453365D02*
X56530238Y-75513842D01*
X56530238Y-75513842D02*
X56348809Y-75574318D01*
X56348809Y-75574318D02*
X56227857Y-75574318D01*
X56227857Y-75574318D02*
X56046428Y-75513842D01*
X56046428Y-75513842D02*
X55925476Y-75392889D01*
X55925476Y-75392889D02*
X55864999Y-75271937D01*
X55864999Y-75271937D02*
X55804523Y-75030032D01*
X55804523Y-75030032D02*
X55804523Y-74848603D01*
X55804523Y-74848603D02*
X55864999Y-74606699D01*
X55864999Y-74606699D02*
X55925476Y-74485746D01*
X55925476Y-74485746D02*
X56046428Y-74364794D01*
X56046428Y-74364794D02*
X56227857Y-74304318D01*
X56227857Y-74304318D02*
X56348809Y-74304318D01*
X56348809Y-74304318D02*
X56530238Y-74364794D01*
X56530238Y-74364794D02*
X56590714Y-74425270D01*
X57800238Y-75574318D02*
X57074523Y-75574318D01*
X57437380Y-75574318D02*
X57437380Y-74304318D01*
X57437380Y-74304318D02*
X57316428Y-74485746D01*
X57316428Y-74485746D02*
X57195476Y-74606699D01*
X57195476Y-74606699D02*
X57074523Y-74667175D01*
X60379047Y-61695270D02*
X60258095Y-61634794D01*
X60258095Y-61634794D02*
X60137142Y-61513842D01*
X60137142Y-61513842D02*
X59955714Y-61332413D01*
X59955714Y-61332413D02*
X59834761Y-61271937D01*
X59834761Y-61271937D02*
X59713809Y-61271937D01*
X59774285Y-61574318D02*
X59653333Y-61513842D01*
X59653333Y-61513842D02*
X59532380Y-61392889D01*
X59532380Y-61392889D02*
X59471904Y-61150984D01*
X59471904Y-61150984D02*
X59471904Y-60727651D01*
X59471904Y-60727651D02*
X59532380Y-60485746D01*
X59532380Y-60485746D02*
X59653333Y-60364794D01*
X59653333Y-60364794D02*
X59774285Y-60304318D01*
X59774285Y-60304318D02*
X60016190Y-60304318D01*
X60016190Y-60304318D02*
X60137142Y-60364794D01*
X60137142Y-60364794D02*
X60258095Y-60485746D01*
X60258095Y-60485746D02*
X60318571Y-60727651D01*
X60318571Y-60727651D02*
X60318571Y-61150984D01*
X60318571Y-61150984D02*
X60258095Y-61392889D01*
X60258095Y-61392889D02*
X60137142Y-61513842D01*
X60137142Y-61513842D02*
X60016190Y-61574318D01*
X60016190Y-61574318D02*
X59774285Y-61574318D01*
X61528095Y-61574318D02*
X60802380Y-61574318D01*
X61165237Y-61574318D02*
X61165237Y-60304318D01*
X61165237Y-60304318D02*
X61044285Y-60485746D01*
X61044285Y-60485746D02*
X60923333Y-60606699D01*
X60923333Y-60606699D02*
X60802380Y-60667175D01*
X83971670Y-100974318D02*
X83548336Y-100369556D01*
X83245955Y-100974318D02*
X83245955Y-99704318D01*
X83245955Y-99704318D02*
X83729765Y-99704318D01*
X83729765Y-99704318D02*
X83850717Y-99764794D01*
X83850717Y-99764794D02*
X83911194Y-99825270D01*
X83911194Y-99825270D02*
X83971670Y-99946222D01*
X83971670Y-99946222D02*
X83971670Y-100127651D01*
X83971670Y-100127651D02*
X83911194Y-100248603D01*
X83911194Y-100248603D02*
X83850717Y-100309080D01*
X83850717Y-100309080D02*
X83729765Y-100369556D01*
X83729765Y-100369556D02*
X83245955Y-100369556D01*
X85181194Y-100974318D02*
X84455479Y-100974318D01*
X84818336Y-100974318D02*
X84818336Y-99704318D01*
X84818336Y-99704318D02*
X84697384Y-99885746D01*
X84697384Y-99885746D02*
X84576432Y-100006699D01*
X84576432Y-100006699D02*
X84455479Y-100067175D01*
X85665003Y-99825270D02*
X85725479Y-99764794D01*
X85725479Y-99764794D02*
X85846432Y-99704318D01*
X85846432Y-99704318D02*
X86148813Y-99704318D01*
X86148813Y-99704318D02*
X86269765Y-99764794D01*
X86269765Y-99764794D02*
X86330241Y-99825270D01*
X86330241Y-99825270D02*
X86390718Y-99946222D01*
X86390718Y-99946222D02*
X86390718Y-100067175D01*
X86390718Y-100067175D02*
X86330241Y-100248603D01*
X86330241Y-100248603D02*
X85604527Y-100974318D01*
X85604527Y-100974318D02*
X86390718Y-100974318D01*
X70183571Y-71853365D02*
X70123095Y-71913842D01*
X70123095Y-71913842D02*
X69941666Y-71974318D01*
X69941666Y-71974318D02*
X69820714Y-71974318D01*
X69820714Y-71974318D02*
X69639285Y-71913842D01*
X69639285Y-71913842D02*
X69518333Y-71792889D01*
X69518333Y-71792889D02*
X69457856Y-71671937D01*
X69457856Y-71671937D02*
X69397380Y-71430032D01*
X69397380Y-71430032D02*
X69397380Y-71248603D01*
X69397380Y-71248603D02*
X69457856Y-71006699D01*
X69457856Y-71006699D02*
X69518333Y-70885746D01*
X69518333Y-70885746D02*
X69639285Y-70764794D01*
X69639285Y-70764794D02*
X69820714Y-70704318D01*
X69820714Y-70704318D02*
X69941666Y-70704318D01*
X69941666Y-70704318D02*
X70123095Y-70764794D01*
X70123095Y-70764794D02*
X70183571Y-70825270D01*
X71393095Y-71974318D02*
X70667380Y-71974318D01*
X71030237Y-71974318D02*
X71030237Y-70704318D01*
X71030237Y-70704318D02*
X70909285Y-70885746D01*
X70909285Y-70885746D02*
X70788333Y-71006699D01*
X70788333Y-71006699D02*
X70667380Y-71067175D01*
X72179285Y-70704318D02*
X72300238Y-70704318D01*
X72300238Y-70704318D02*
X72421190Y-70764794D01*
X72421190Y-70764794D02*
X72481666Y-70825270D01*
X72481666Y-70825270D02*
X72542142Y-70946222D01*
X72542142Y-70946222D02*
X72602619Y-71188127D01*
X72602619Y-71188127D02*
X72602619Y-71490508D01*
X72602619Y-71490508D02*
X72542142Y-71732413D01*
X72542142Y-71732413D02*
X72481666Y-71853365D01*
X72481666Y-71853365D02*
X72421190Y-71913842D01*
X72421190Y-71913842D02*
X72300238Y-71974318D01*
X72300238Y-71974318D02*
X72179285Y-71974318D01*
X72179285Y-71974318D02*
X72058333Y-71913842D01*
X72058333Y-71913842D02*
X71997857Y-71853365D01*
X71997857Y-71853365D02*
X71937380Y-71732413D01*
X71937380Y-71732413D02*
X71876904Y-71490508D01*
X71876904Y-71490508D02*
X71876904Y-71188127D01*
X71876904Y-71188127D02*
X71937380Y-70946222D01*
X71937380Y-70946222D02*
X71997857Y-70825270D01*
X71997857Y-70825270D02*
X72058333Y-70764794D01*
X72058333Y-70764794D02*
X72179285Y-70704318D01*
X58753333Y-99874404D02*
X58692857Y-99934881D01*
X58692857Y-99934881D02*
X58511428Y-99995357D01*
X58511428Y-99995357D02*
X58390476Y-99995357D01*
X58390476Y-99995357D02*
X58209047Y-99934881D01*
X58209047Y-99934881D02*
X58088095Y-99813928D01*
X58088095Y-99813928D02*
X58027618Y-99692976D01*
X58027618Y-99692976D02*
X57967142Y-99451071D01*
X57967142Y-99451071D02*
X57967142Y-99269642D01*
X57967142Y-99269642D02*
X58027618Y-99027738D01*
X58027618Y-99027738D02*
X58088095Y-98906785D01*
X58088095Y-98906785D02*
X58209047Y-98785833D01*
X58209047Y-98785833D02*
X58390476Y-98725357D01*
X58390476Y-98725357D02*
X58511428Y-98725357D01*
X58511428Y-98725357D02*
X58692857Y-98785833D01*
X58692857Y-98785833D02*
X58753333Y-98846309D01*
X59297618Y-99995357D02*
X59297618Y-98725357D01*
X59297618Y-98725357D02*
X59781428Y-98725357D01*
X59781428Y-98725357D02*
X59902380Y-98785833D01*
X59902380Y-98785833D02*
X59962857Y-98846309D01*
X59962857Y-98846309D02*
X60023333Y-98967261D01*
X60023333Y-98967261D02*
X60023333Y-99148690D01*
X60023333Y-99148690D02*
X59962857Y-99269642D01*
X59962857Y-99269642D02*
X59902380Y-99330119D01*
X59902380Y-99330119D02*
X59781428Y-99390595D01*
X59781428Y-99390595D02*
X59297618Y-99390595D01*
X61232857Y-99995357D02*
X60507142Y-99995357D01*
X60869999Y-99995357D02*
X60869999Y-98725357D01*
X60869999Y-98725357D02*
X60749047Y-98906785D01*
X60749047Y-98906785D02*
X60628095Y-99027738D01*
X60628095Y-99027738D02*
X60507142Y-99088214D01*
X73588333Y-87874318D02*
X73164999Y-87269556D01*
X72862618Y-87874318D02*
X72862618Y-86604318D01*
X72862618Y-86604318D02*
X73346428Y-86604318D01*
X73346428Y-86604318D02*
X73467380Y-86664794D01*
X73467380Y-86664794D02*
X73527857Y-86725270D01*
X73527857Y-86725270D02*
X73588333Y-86846222D01*
X73588333Y-86846222D02*
X73588333Y-87027651D01*
X73588333Y-87027651D02*
X73527857Y-87148603D01*
X73527857Y-87148603D02*
X73467380Y-87209080D01*
X73467380Y-87209080D02*
X73346428Y-87269556D01*
X73346428Y-87269556D02*
X72862618Y-87269556D01*
X74737380Y-86604318D02*
X74132618Y-86604318D01*
X74132618Y-86604318D02*
X74072142Y-87209080D01*
X74072142Y-87209080D02*
X74132618Y-87148603D01*
X74132618Y-87148603D02*
X74253571Y-87088127D01*
X74253571Y-87088127D02*
X74555952Y-87088127D01*
X74555952Y-87088127D02*
X74676904Y-87148603D01*
X74676904Y-87148603D02*
X74737380Y-87209080D01*
X74737380Y-87209080D02*
X74797857Y-87330032D01*
X74797857Y-87330032D02*
X74797857Y-87632413D01*
X74797857Y-87632413D02*
X74737380Y-87753365D01*
X74737380Y-87753365D02*
X74676904Y-87813842D01*
X74676904Y-87813842D02*
X74555952Y-87874318D01*
X74555952Y-87874318D02*
X74253571Y-87874318D01*
X74253571Y-87874318D02*
X74132618Y-87813842D01*
X74132618Y-87813842D02*
X74072142Y-87753365D01*
X87183571Y-57953365D02*
X87123095Y-58013842D01*
X87123095Y-58013842D02*
X86941666Y-58074318D01*
X86941666Y-58074318D02*
X86820714Y-58074318D01*
X86820714Y-58074318D02*
X86639285Y-58013842D01*
X86639285Y-58013842D02*
X86518333Y-57892889D01*
X86518333Y-57892889D02*
X86457856Y-57771937D01*
X86457856Y-57771937D02*
X86397380Y-57530032D01*
X86397380Y-57530032D02*
X86397380Y-57348603D01*
X86397380Y-57348603D02*
X86457856Y-57106699D01*
X86457856Y-57106699D02*
X86518333Y-56985746D01*
X86518333Y-56985746D02*
X86639285Y-56864794D01*
X86639285Y-56864794D02*
X86820714Y-56804318D01*
X86820714Y-56804318D02*
X86941666Y-56804318D01*
X86941666Y-56804318D02*
X87123095Y-56864794D01*
X87123095Y-56864794D02*
X87183571Y-56925270D01*
X88393095Y-58074318D02*
X87667380Y-58074318D01*
X88030237Y-58074318D02*
X88030237Y-56804318D01*
X88030237Y-56804318D02*
X87909285Y-56985746D01*
X87909285Y-56985746D02*
X87788333Y-57106699D01*
X87788333Y-57106699D02*
X87667380Y-57167175D01*
X88876904Y-56925270D02*
X88937380Y-56864794D01*
X88937380Y-56864794D02*
X89058333Y-56804318D01*
X89058333Y-56804318D02*
X89360714Y-56804318D01*
X89360714Y-56804318D02*
X89481666Y-56864794D01*
X89481666Y-56864794D02*
X89542142Y-56925270D01*
X89542142Y-56925270D02*
X89602619Y-57046222D01*
X89602619Y-57046222D02*
X89602619Y-57167175D01*
X89602619Y-57167175D02*
X89542142Y-57348603D01*
X89542142Y-57348603D02*
X88816428Y-58074318D01*
X88816428Y-58074318D02*
X89602619Y-58074318D01*
X69862618Y-92374318D02*
X69862618Y-91104318D01*
X69862618Y-91104318D02*
X70164999Y-91104318D01*
X70164999Y-91104318D02*
X70346428Y-91164794D01*
X70346428Y-91164794D02*
X70467380Y-91285746D01*
X70467380Y-91285746D02*
X70527857Y-91406699D01*
X70527857Y-91406699D02*
X70588333Y-91648603D01*
X70588333Y-91648603D02*
X70588333Y-91830032D01*
X70588333Y-91830032D02*
X70527857Y-92071937D01*
X70527857Y-92071937D02*
X70467380Y-92192889D01*
X70467380Y-92192889D02*
X70346428Y-92313842D01*
X70346428Y-92313842D02*
X70164999Y-92374318D01*
X70164999Y-92374318D02*
X69862618Y-92374318D01*
X71676904Y-91527651D02*
X71676904Y-92374318D01*
X71374523Y-91043842D02*
X71072142Y-91950984D01*
X71072142Y-91950984D02*
X71858333Y-91950984D01*
D13*
%TO.C,R13*%
X80100000Y-95400000D02*
X78700000Y-95400000D01*
D14*
%TO.C,L1*%
X84400000Y-71700000D02*
X84400000Y-83700000D01*
X96400000Y-83700000D02*
X96400000Y-71700000D01*
D13*
%TO.C,C4*%
X55600000Y-80700000D02*
X55600000Y-82100000D01*
%TO.C,C1*%
X75200000Y-57900000D02*
X75200000Y-60900000D01*
D15*
%TO.C,J1*%
X104650000Y-71825000D02*
X111440000Y-71825000D01*
X104650000Y-83875000D02*
X104650000Y-71825000D01*
D11*
X108340000Y-71250000D02*
X108340000Y-71250000D01*
X108340000Y-71350000D02*
X108340000Y-71350000D01*
D15*
X111440000Y-71825000D02*
X111440000Y-83875000D01*
X111440000Y-83875000D02*
X104650000Y-83875000D01*
D11*
X108340000Y-71250000D02*
G75*
G02*
X108340000Y-71350000I0J-50000D01*
G01*
X108340000Y-71350000D02*
G75*
G02*
X108340000Y-71250000I0J50000D01*
G01*
D13*
%TO.C,R6*%
X45100000Y-86800000D02*
X46500000Y-86800000D01*
%TO.C,C13*%
X84950000Y-61400000D02*
X82650000Y-61400000D01*
%TO.C,R10*%
X75000000Y-93500000D02*
X75000000Y-92100000D01*
%TO.C,D2*%
X76890000Y-86100000D02*
X80400000Y-86100000D01*
X77600000Y-87900000D02*
X80400000Y-87900000D01*
D14*
%TO.C,J7*%
X105005000Y-89350000D02*
X109935000Y-89350000D01*
X105005000Y-95700000D02*
X105005000Y-89350000D01*
X109935000Y-89350000D02*
X109935000Y-95700000D01*
X109935000Y-95700000D02*
X105005000Y-95700000D01*
D13*
X110840000Y-92600000D02*
G75*
G02*
X110640000Y-92600000I-100000J0D01*
G01*
X110640000Y-92600000D02*
G75*
G02*
X110840000Y-92600000I100000J0D01*
G01*
%TO.C,R3*%
X47200000Y-80000000D02*
X47200000Y-81400000D01*
D12*
%TO.C,U1*%
X84900000Y-88000000D02*
X84900000Y-95550000D01*
X84900000Y-95550000D02*
X96400000Y-95550000D01*
X96400000Y-88000000D02*
X84900000Y-88000000D01*
X96400000Y-95550000D02*
X96400000Y-88000000D01*
X94183000Y-87387000D02*
G75*
G02*
X94005000Y-87387000I-89000J0D01*
G01*
X94005000Y-87387000D02*
G75*
G02*
X94183000Y-87387000I89000J0D01*
G01*
D13*
%TO.C,D3*%
X76500000Y-67710000D02*
X76500000Y-64200000D01*
X78300000Y-67000000D02*
X78300000Y-64200000D01*
%TO.C,Z1*%
X96000000Y-64125000D02*
X96000000Y-60475000D01*
X97600000Y-63125000D02*
X97600000Y-60475000D01*
%TO.C,R8*%
X53600000Y-91900000D02*
X53600000Y-90500000D01*
%TO.C,R1*%
X73400000Y-64300000D02*
X73400000Y-64900000D01*
%TO.C,R4*%
X71000000Y-76500000D02*
X71000000Y-77900000D01*
%TO.C,Q2*%
X89100000Y-97500000D02*
X90400000Y-97500000D01*
X90750000Y-97540000D02*
X90850000Y-97540000D01*
X90750000Y-100460000D02*
X90750000Y-97540000D01*
X90850000Y-97540000D02*
X90850000Y-100460000D01*
X90850000Y-100460000D02*
X90750000Y-100460000D01*
%TO.C,R9*%
X59600000Y-92500000D02*
X59600000Y-91100000D01*
%TO.C,R7*%
X47400000Y-92100000D02*
X47400000Y-90700000D01*
%TO.C,C11*%
X93150000Y-61400000D02*
X90850000Y-61400000D01*
%TO.C,F1*%
X63680000Y-47120000D02*
X96480000Y-47120000D01*
X63680000Y-50500000D02*
X51500000Y-50500000D01*
X63680000Y-53880000D02*
X63680000Y-47120000D01*
X96480000Y-47120000D02*
X96480000Y-53880000D01*
X96480000Y-53880000D02*
X63680000Y-53880000D01*
X108800000Y-50500000D02*
X96500000Y-50500000D01*
X110000000Y-49300000D02*
X110000000Y-49300000D01*
X110100000Y-49300000D02*
X110100000Y-49300000D01*
X110100000Y-49300000D02*
X110100000Y-49300000D01*
X110000000Y-49300000D02*
G75*
G02*
X110100000Y-49300000I50000J0D01*
G01*
X110000000Y-49300000D02*
G75*
G02*
X110100000Y-49300000I50000J0D01*
G01*
X110100000Y-49300000D02*
G75*
G02*
X110000000Y-49300000I-50000J0D01*
G01*
%TO.C,R11*%
X64900000Y-93800000D02*
X66300000Y-93800000D01*
%TO.C,R2*%
X68400000Y-85900000D02*
X68400000Y-84500000D01*
%TO.C,IC1*%
X59575000Y-71950000D02*
X59575000Y-71950000D01*
X59575000Y-72150000D02*
X59575000Y-72150000D01*
D15*
X61075000Y-71700000D02*
X65475000Y-71700000D01*
X61075000Y-78200000D02*
X61075000Y-71700000D01*
X65475000Y-71700000D02*
X65475000Y-78200000D01*
X65475000Y-78200000D02*
X61075000Y-78200000D01*
D13*
X59575000Y-71950000D02*
G75*
G02*
X59575000Y-72150000I0J-100000D01*
G01*
X59575000Y-72150000D02*
G75*
G02*
X59575000Y-71950000I0J100000D01*
G01*
D15*
%TO.C,Q1*%
X62900000Y-57980000D02*
X62900000Y-64080000D01*
X62900000Y-64080000D02*
X69500000Y-64080000D01*
D13*
X63600000Y-68390000D02*
X63600000Y-68390000D01*
X63800000Y-68390000D02*
X63800000Y-68390000D01*
D15*
X69500000Y-64080000D02*
X69500000Y-57980000D01*
D13*
X63600000Y-68390000D02*
G75*
G02*
X63800000Y-68390000I100000J0D01*
G01*
X63800000Y-68390000D02*
G75*
G02*
X63600000Y-68390000I-100000J0D01*
G01*
%TO.C,R12*%
X84800000Y-97300000D02*
X84800000Y-98700000D01*
%TO.C,CP1*%
X59225000Y-95150000D02*
X59975000Y-95150000D01*
X59225000Y-98050000D02*
X59225000Y-95150000D01*
X59975000Y-95150000D02*
X59975000Y-98050000D01*
X59975000Y-98050000D02*
X59225000Y-98050000D01*
X61475000Y-98100000D02*
X60325000Y-98100000D01*
%TO.C,R5*%
X73800000Y-84500000D02*
X73800000Y-85900000D01*
%TO.C,C12*%
X89150000Y-61400000D02*
X86850000Y-61400000D01*
%TO.C,D4*%
X71575000Y-89175000D02*
X74100000Y-89175000D01*
X72400000Y-90425000D02*
X74100000Y-90425000D01*
%TD*%
M02*
