%TF.GenerationSoftware,KiCad,Pcbnew,8.0.2*%
%TF.CreationDate,2024-09-26T14:02:14+02:00*%
%TF.ProjectId,Indicator_voltage,496e6469-6361-4746-9f72-5f766f6c7461,rev?*%
%TF.SameCoordinates,Original*%
%TF.FileFunction,Drillmap*%
%TF.FilePolarity,Positive*%
%FSLAX45Y45*%
G04 Gerber Fmt 4.5, Leading zero omitted, Abs format (unit mm)*
G04 Created by KiCad (PCBNEW 8.0.2) date 2024-09-26 14:02:14*
%MOMM*%
%LPD*%
G01*
G04 APERTURE LIST*
%ADD10C,0.100000*%
%ADD11C,0.200000*%
%ADD12C,0.305000*%
G04 APERTURE END LIST*
D10*
X12100000Y-4500000D02*
G75*
G02*
X12300000Y-4700000I0J-200000D01*
G01*
X3900000Y-4500000D02*
X12100000Y-4500000D01*
X12100000Y-10200000D02*
X3900000Y-10200000D01*
X12300000Y-4700000D02*
X12300000Y-10000000D01*
X12300000Y-10000000D02*
G75*
G02*
X12100000Y-10200000I-200000J0D01*
G01*
X3700000Y-4700000D02*
G75*
G02*
X3900000Y-4500000I200000J0D01*
G01*
X3700000Y-10000000D02*
X3700000Y-4700000D01*
X3900000Y-10200000D02*
G75*
G02*
X3700000Y-10000000I0J200000D01*
G01*
D11*
D12*
X10831500Y-7632500D02*
X11136500Y-7937500D01*
X11136500Y-7632500D02*
X10831500Y-7937500D01*
D11*
X3955777Y-10516484D02*
X3955777Y-10316484D01*
X3955777Y-10316484D02*
X4003396Y-10316484D01*
X4003396Y-10316484D02*
X4031967Y-10326008D01*
X4031967Y-10326008D02*
X4051015Y-10345055D01*
X4051015Y-10345055D02*
X4060539Y-10364103D01*
X4060539Y-10364103D02*
X4070062Y-10402198D01*
X4070062Y-10402198D02*
X4070062Y-10430770D01*
X4070062Y-10430770D02*
X4060539Y-10468865D01*
X4060539Y-10468865D02*
X4051015Y-10487912D01*
X4051015Y-10487912D02*
X4031967Y-10506960D01*
X4031967Y-10506960D02*
X4003396Y-10516484D01*
X4003396Y-10516484D02*
X3955777Y-10516484D01*
X4155777Y-10516484D02*
X4155777Y-10383150D01*
X4155777Y-10421246D02*
X4165301Y-10402198D01*
X4165301Y-10402198D02*
X4174824Y-10392674D01*
X4174824Y-10392674D02*
X4193872Y-10383150D01*
X4193872Y-10383150D02*
X4212920Y-10383150D01*
X4279586Y-10516484D02*
X4279586Y-10383150D01*
X4279586Y-10316484D02*
X4270063Y-10326008D01*
X4270063Y-10326008D02*
X4279586Y-10335531D01*
X4279586Y-10335531D02*
X4289110Y-10326008D01*
X4289110Y-10326008D02*
X4279586Y-10316484D01*
X4279586Y-10316484D02*
X4279586Y-10335531D01*
X4403396Y-10516484D02*
X4384348Y-10506960D01*
X4384348Y-10506960D02*
X4374824Y-10487912D01*
X4374824Y-10487912D02*
X4374824Y-10316484D01*
X4508158Y-10516484D02*
X4489110Y-10506960D01*
X4489110Y-10506960D02*
X4479586Y-10487912D01*
X4479586Y-10487912D02*
X4479586Y-10316484D01*
X4736729Y-10516484D02*
X4736729Y-10316484D01*
X4736729Y-10316484D02*
X4803396Y-10459341D01*
X4803396Y-10459341D02*
X4870063Y-10316484D01*
X4870063Y-10316484D02*
X4870063Y-10516484D01*
X5051015Y-10516484D02*
X5051015Y-10411722D01*
X5051015Y-10411722D02*
X5041491Y-10392674D01*
X5041491Y-10392674D02*
X5022444Y-10383150D01*
X5022444Y-10383150D02*
X4984348Y-10383150D01*
X4984348Y-10383150D02*
X4965301Y-10392674D01*
X5051015Y-10506960D02*
X5031967Y-10516484D01*
X5031967Y-10516484D02*
X4984348Y-10516484D01*
X4984348Y-10516484D02*
X4965301Y-10506960D01*
X4965301Y-10506960D02*
X4955777Y-10487912D01*
X4955777Y-10487912D02*
X4955777Y-10468865D01*
X4955777Y-10468865D02*
X4965301Y-10449817D01*
X4965301Y-10449817D02*
X4984348Y-10440293D01*
X4984348Y-10440293D02*
X5031967Y-10440293D01*
X5031967Y-10440293D02*
X5051015Y-10430770D01*
X5146253Y-10383150D02*
X5146253Y-10583150D01*
X5146253Y-10392674D02*
X5165301Y-10383150D01*
X5165301Y-10383150D02*
X5203396Y-10383150D01*
X5203396Y-10383150D02*
X5222444Y-10392674D01*
X5222444Y-10392674D02*
X5231967Y-10402198D01*
X5231967Y-10402198D02*
X5241491Y-10421246D01*
X5241491Y-10421246D02*
X5241491Y-10478389D01*
X5241491Y-10478389D02*
X5231967Y-10497436D01*
X5231967Y-10497436D02*
X5222444Y-10506960D01*
X5222444Y-10506960D02*
X5203396Y-10516484D01*
X5203396Y-10516484D02*
X5165301Y-10516484D01*
X5165301Y-10516484D02*
X5146253Y-10506960D01*
X5327205Y-10497436D02*
X5336729Y-10506960D01*
X5336729Y-10506960D02*
X5327205Y-10516484D01*
X5327205Y-10516484D02*
X5317682Y-10506960D01*
X5317682Y-10506960D02*
X5327205Y-10497436D01*
X5327205Y-10497436D02*
X5327205Y-10516484D01*
X5327205Y-10392674D02*
X5336729Y-10402198D01*
X5336729Y-10402198D02*
X5327205Y-10411722D01*
X5327205Y-10411722D02*
X5317682Y-10402198D01*
X5317682Y-10402198D02*
X5327205Y-10392674D01*
X5327205Y-10392674D02*
X5327205Y-10411722D01*
X3495000Y-10745000D02*
X3695000Y-10945000D01*
X3695000Y-10745000D02*
X3495000Y-10945000D01*
X3936729Y-10736484D02*
X4060539Y-10736484D01*
X4060539Y-10736484D02*
X3993872Y-10812674D01*
X3993872Y-10812674D02*
X4022443Y-10812674D01*
X4022443Y-10812674D02*
X4041491Y-10822198D01*
X4041491Y-10822198D02*
X4051015Y-10831722D01*
X4051015Y-10831722D02*
X4060539Y-10850770D01*
X4060539Y-10850770D02*
X4060539Y-10898389D01*
X4060539Y-10898389D02*
X4051015Y-10917436D01*
X4051015Y-10917436D02*
X4041491Y-10926960D01*
X4041491Y-10926960D02*
X4022443Y-10936484D01*
X4022443Y-10936484D02*
X3965301Y-10936484D01*
X3965301Y-10936484D02*
X3946253Y-10926960D01*
X3946253Y-10926960D02*
X3936729Y-10917436D01*
X4146253Y-10917436D02*
X4155777Y-10926960D01*
X4155777Y-10926960D02*
X4146253Y-10936484D01*
X4146253Y-10936484D02*
X4136729Y-10926960D01*
X4136729Y-10926960D02*
X4146253Y-10917436D01*
X4146253Y-10917436D02*
X4146253Y-10936484D01*
X4279586Y-10736484D02*
X4298634Y-10736484D01*
X4298634Y-10736484D02*
X4317682Y-10746008D01*
X4317682Y-10746008D02*
X4327205Y-10755531D01*
X4327205Y-10755531D02*
X4336729Y-10774579D01*
X4336729Y-10774579D02*
X4346253Y-10812674D01*
X4346253Y-10812674D02*
X4346253Y-10860293D01*
X4346253Y-10860293D02*
X4336729Y-10898389D01*
X4336729Y-10898389D02*
X4327205Y-10917436D01*
X4327205Y-10917436D02*
X4317682Y-10926960D01*
X4317682Y-10926960D02*
X4298634Y-10936484D01*
X4298634Y-10936484D02*
X4279586Y-10936484D01*
X4279586Y-10936484D02*
X4260539Y-10926960D01*
X4260539Y-10926960D02*
X4251015Y-10917436D01*
X4251015Y-10917436D02*
X4241491Y-10898389D01*
X4241491Y-10898389D02*
X4231967Y-10860293D01*
X4231967Y-10860293D02*
X4231967Y-10812674D01*
X4231967Y-10812674D02*
X4241491Y-10774579D01*
X4241491Y-10774579D02*
X4251015Y-10755531D01*
X4251015Y-10755531D02*
X4260539Y-10746008D01*
X4260539Y-10746008D02*
X4279586Y-10736484D01*
X4527205Y-10736484D02*
X4431967Y-10736484D01*
X4431967Y-10736484D02*
X4422444Y-10831722D01*
X4422444Y-10831722D02*
X4431967Y-10822198D01*
X4431967Y-10822198D02*
X4451015Y-10812674D01*
X4451015Y-10812674D02*
X4498634Y-10812674D01*
X4498634Y-10812674D02*
X4517682Y-10822198D01*
X4517682Y-10822198D02*
X4527205Y-10831722D01*
X4527205Y-10831722D02*
X4536729Y-10850770D01*
X4536729Y-10850770D02*
X4536729Y-10898389D01*
X4536729Y-10898389D02*
X4527205Y-10917436D01*
X4527205Y-10917436D02*
X4517682Y-10926960D01*
X4517682Y-10926960D02*
X4498634Y-10936484D01*
X4498634Y-10936484D02*
X4451015Y-10936484D01*
X4451015Y-10936484D02*
X4431967Y-10926960D01*
X4431967Y-10926960D02*
X4422444Y-10917436D01*
X4660539Y-10736484D02*
X4679586Y-10736484D01*
X4679586Y-10736484D02*
X4698634Y-10746008D01*
X4698634Y-10746008D02*
X4708158Y-10755531D01*
X4708158Y-10755531D02*
X4717682Y-10774579D01*
X4717682Y-10774579D02*
X4727205Y-10812674D01*
X4727205Y-10812674D02*
X4727205Y-10860293D01*
X4727205Y-10860293D02*
X4717682Y-10898389D01*
X4717682Y-10898389D02*
X4708158Y-10917436D01*
X4708158Y-10917436D02*
X4698634Y-10926960D01*
X4698634Y-10926960D02*
X4679586Y-10936484D01*
X4679586Y-10936484D02*
X4660539Y-10936484D01*
X4660539Y-10936484D02*
X4641491Y-10926960D01*
X4641491Y-10926960D02*
X4631967Y-10917436D01*
X4631967Y-10917436D02*
X4622444Y-10898389D01*
X4622444Y-10898389D02*
X4612920Y-10860293D01*
X4612920Y-10860293D02*
X4612920Y-10812674D01*
X4612920Y-10812674D02*
X4622444Y-10774579D01*
X4622444Y-10774579D02*
X4631967Y-10755531D01*
X4631967Y-10755531D02*
X4641491Y-10746008D01*
X4641491Y-10746008D02*
X4660539Y-10736484D01*
X4812920Y-10936484D02*
X4812920Y-10803150D01*
X4812920Y-10822198D02*
X4822444Y-10812674D01*
X4822444Y-10812674D02*
X4841491Y-10803150D01*
X4841491Y-10803150D02*
X4870063Y-10803150D01*
X4870063Y-10803150D02*
X4889110Y-10812674D01*
X4889110Y-10812674D02*
X4898634Y-10831722D01*
X4898634Y-10831722D02*
X4898634Y-10936484D01*
X4898634Y-10831722D02*
X4908158Y-10812674D01*
X4908158Y-10812674D02*
X4927205Y-10803150D01*
X4927205Y-10803150D02*
X4955777Y-10803150D01*
X4955777Y-10803150D02*
X4974825Y-10812674D01*
X4974825Y-10812674D02*
X4984348Y-10831722D01*
X4984348Y-10831722D02*
X4984348Y-10936484D01*
X5079586Y-10936484D02*
X5079586Y-10803150D01*
X5079586Y-10822198D02*
X5089110Y-10812674D01*
X5089110Y-10812674D02*
X5108158Y-10803150D01*
X5108158Y-10803150D02*
X5136729Y-10803150D01*
X5136729Y-10803150D02*
X5155777Y-10812674D01*
X5155777Y-10812674D02*
X5165301Y-10831722D01*
X5165301Y-10831722D02*
X5165301Y-10936484D01*
X5165301Y-10831722D02*
X5174825Y-10812674D01*
X5174825Y-10812674D02*
X5193872Y-10803150D01*
X5193872Y-10803150D02*
X5222444Y-10803150D01*
X5222444Y-10803150D02*
X5241491Y-10812674D01*
X5241491Y-10812674D02*
X5251015Y-10831722D01*
X5251015Y-10831722D02*
X5251015Y-10936484D01*
X5641491Y-10726960D02*
X5470063Y-10984103D01*
X5898634Y-10736484D02*
X5917682Y-10736484D01*
X5917682Y-10736484D02*
X5936729Y-10746008D01*
X5936729Y-10746008D02*
X5946253Y-10755531D01*
X5946253Y-10755531D02*
X5955777Y-10774579D01*
X5955777Y-10774579D02*
X5965301Y-10812674D01*
X5965301Y-10812674D02*
X5965301Y-10860293D01*
X5965301Y-10860293D02*
X5955777Y-10898389D01*
X5955777Y-10898389D02*
X5946253Y-10917436D01*
X5946253Y-10917436D02*
X5936729Y-10926960D01*
X5936729Y-10926960D02*
X5917682Y-10936484D01*
X5917682Y-10936484D02*
X5898634Y-10936484D01*
X5898634Y-10936484D02*
X5879586Y-10926960D01*
X5879586Y-10926960D02*
X5870063Y-10917436D01*
X5870063Y-10917436D02*
X5860539Y-10898389D01*
X5860539Y-10898389D02*
X5851015Y-10860293D01*
X5851015Y-10860293D02*
X5851015Y-10812674D01*
X5851015Y-10812674D02*
X5860539Y-10774579D01*
X5860539Y-10774579D02*
X5870063Y-10755531D01*
X5870063Y-10755531D02*
X5879586Y-10746008D01*
X5879586Y-10746008D02*
X5898634Y-10736484D01*
X6051015Y-10917436D02*
X6060539Y-10926960D01*
X6060539Y-10926960D02*
X6051015Y-10936484D01*
X6051015Y-10936484D02*
X6041491Y-10926960D01*
X6041491Y-10926960D02*
X6051015Y-10917436D01*
X6051015Y-10917436D02*
X6051015Y-10936484D01*
X6251015Y-10936484D02*
X6136729Y-10936484D01*
X6193872Y-10936484D02*
X6193872Y-10736484D01*
X6193872Y-10736484D02*
X6174825Y-10765055D01*
X6174825Y-10765055D02*
X6155777Y-10784103D01*
X6155777Y-10784103D02*
X6136729Y-10793627D01*
X6327206Y-10755531D02*
X6336729Y-10746008D01*
X6336729Y-10746008D02*
X6355777Y-10736484D01*
X6355777Y-10736484D02*
X6403396Y-10736484D01*
X6403396Y-10736484D02*
X6422444Y-10746008D01*
X6422444Y-10746008D02*
X6431967Y-10755531D01*
X6431967Y-10755531D02*
X6441491Y-10774579D01*
X6441491Y-10774579D02*
X6441491Y-10793627D01*
X6441491Y-10793627D02*
X6431967Y-10822198D01*
X6431967Y-10822198D02*
X6317682Y-10936484D01*
X6317682Y-10936484D02*
X6441491Y-10936484D01*
X6565301Y-10736484D02*
X6584348Y-10736484D01*
X6584348Y-10736484D02*
X6603396Y-10746008D01*
X6603396Y-10746008D02*
X6612920Y-10755531D01*
X6612920Y-10755531D02*
X6622444Y-10774579D01*
X6622444Y-10774579D02*
X6631967Y-10812674D01*
X6631967Y-10812674D02*
X6631967Y-10860293D01*
X6631967Y-10860293D02*
X6622444Y-10898389D01*
X6622444Y-10898389D02*
X6612920Y-10917436D01*
X6612920Y-10917436D02*
X6603396Y-10926960D01*
X6603396Y-10926960D02*
X6584348Y-10936484D01*
X6584348Y-10936484D02*
X6565301Y-10936484D01*
X6565301Y-10936484D02*
X6546253Y-10926960D01*
X6546253Y-10926960D02*
X6536729Y-10917436D01*
X6536729Y-10917436D02*
X6527206Y-10898389D01*
X6527206Y-10898389D02*
X6517682Y-10860293D01*
X6517682Y-10860293D02*
X6517682Y-10812674D01*
X6517682Y-10812674D02*
X6527206Y-10774579D01*
X6527206Y-10774579D02*
X6536729Y-10755531D01*
X6536729Y-10755531D02*
X6546253Y-10746008D01*
X6546253Y-10746008D02*
X6565301Y-10736484D01*
X6822444Y-10936484D02*
X6708158Y-10936484D01*
X6765301Y-10936484D02*
X6765301Y-10736484D01*
X6765301Y-10736484D02*
X6746253Y-10765055D01*
X6746253Y-10765055D02*
X6727206Y-10784103D01*
X6727206Y-10784103D02*
X6708158Y-10793627D01*
X6898634Y-10736484D02*
X6898634Y-10774579D01*
X6974825Y-10736484D02*
X6974825Y-10774579D01*
X7270063Y-11012674D02*
X7260539Y-11003150D01*
X7260539Y-11003150D02*
X7241491Y-10974579D01*
X7241491Y-10974579D02*
X7231968Y-10955531D01*
X7231968Y-10955531D02*
X7222444Y-10926960D01*
X7222444Y-10926960D02*
X7212920Y-10879341D01*
X7212920Y-10879341D02*
X7212920Y-10841246D01*
X7212920Y-10841246D02*
X7222444Y-10793627D01*
X7222444Y-10793627D02*
X7231968Y-10765055D01*
X7231968Y-10765055D02*
X7241491Y-10746008D01*
X7241491Y-10746008D02*
X7260539Y-10717436D01*
X7260539Y-10717436D02*
X7270063Y-10707912D01*
X7451015Y-10936484D02*
X7336729Y-10936484D01*
X7393872Y-10936484D02*
X7393872Y-10736484D01*
X7393872Y-10736484D02*
X7374825Y-10765055D01*
X7374825Y-10765055D02*
X7355777Y-10784103D01*
X7355777Y-10784103D02*
X7336729Y-10793627D01*
X7689110Y-10936484D02*
X7689110Y-10736484D01*
X7774825Y-10936484D02*
X7774825Y-10831722D01*
X7774825Y-10831722D02*
X7765301Y-10812674D01*
X7765301Y-10812674D02*
X7746253Y-10803150D01*
X7746253Y-10803150D02*
X7717682Y-10803150D01*
X7717682Y-10803150D02*
X7698634Y-10812674D01*
X7698634Y-10812674D02*
X7689110Y-10822198D01*
X7898634Y-10936484D02*
X7879587Y-10926960D01*
X7879587Y-10926960D02*
X7870063Y-10917436D01*
X7870063Y-10917436D02*
X7860539Y-10898389D01*
X7860539Y-10898389D02*
X7860539Y-10841246D01*
X7860539Y-10841246D02*
X7870063Y-10822198D01*
X7870063Y-10822198D02*
X7879587Y-10812674D01*
X7879587Y-10812674D02*
X7898634Y-10803150D01*
X7898634Y-10803150D02*
X7927206Y-10803150D01*
X7927206Y-10803150D02*
X7946253Y-10812674D01*
X7946253Y-10812674D02*
X7955777Y-10822198D01*
X7955777Y-10822198D02*
X7965301Y-10841246D01*
X7965301Y-10841246D02*
X7965301Y-10898389D01*
X7965301Y-10898389D02*
X7955777Y-10917436D01*
X7955777Y-10917436D02*
X7946253Y-10926960D01*
X7946253Y-10926960D02*
X7927206Y-10936484D01*
X7927206Y-10936484D02*
X7898634Y-10936484D01*
X8079587Y-10936484D02*
X8060539Y-10926960D01*
X8060539Y-10926960D02*
X8051015Y-10907912D01*
X8051015Y-10907912D02*
X8051015Y-10736484D01*
X8231968Y-10926960D02*
X8212920Y-10936484D01*
X8212920Y-10936484D02*
X8174825Y-10936484D01*
X8174825Y-10936484D02*
X8155777Y-10926960D01*
X8155777Y-10926960D02*
X8146253Y-10907912D01*
X8146253Y-10907912D02*
X8146253Y-10831722D01*
X8146253Y-10831722D02*
X8155777Y-10812674D01*
X8155777Y-10812674D02*
X8174825Y-10803150D01*
X8174825Y-10803150D02*
X8212920Y-10803150D01*
X8212920Y-10803150D02*
X8231968Y-10812674D01*
X8231968Y-10812674D02*
X8241491Y-10831722D01*
X8241491Y-10831722D02*
X8241491Y-10850770D01*
X8241491Y-10850770D02*
X8146253Y-10869817D01*
X8308158Y-11012674D02*
X8317682Y-11003150D01*
X8317682Y-11003150D02*
X8336730Y-10974579D01*
X8336730Y-10974579D02*
X8346253Y-10955531D01*
X8346253Y-10955531D02*
X8355777Y-10926960D01*
X8355777Y-10926960D02*
X8365301Y-10879341D01*
X8365301Y-10879341D02*
X8365301Y-10841246D01*
X8365301Y-10841246D02*
X8355777Y-10793627D01*
X8355777Y-10793627D02*
X8346253Y-10765055D01*
X8346253Y-10765055D02*
X8336730Y-10746008D01*
X8336730Y-10746008D02*
X8317682Y-10717436D01*
X8317682Y-10717436D02*
X8308158Y-10707912D01*
X8670063Y-11012674D02*
X8660539Y-11003150D01*
X8660539Y-11003150D02*
X8641492Y-10974579D01*
X8641492Y-10974579D02*
X8631968Y-10955531D01*
X8631968Y-10955531D02*
X8622444Y-10926960D01*
X8622444Y-10926960D02*
X8612920Y-10879341D01*
X8612920Y-10879341D02*
X8612920Y-10841246D01*
X8612920Y-10841246D02*
X8622444Y-10793627D01*
X8622444Y-10793627D02*
X8631968Y-10765055D01*
X8631968Y-10765055D02*
X8641492Y-10746008D01*
X8641492Y-10746008D02*
X8660539Y-10717436D01*
X8660539Y-10717436D02*
X8670063Y-10707912D01*
X8746253Y-10803150D02*
X8746253Y-10936484D01*
X8746253Y-10822198D02*
X8755777Y-10812674D01*
X8755777Y-10812674D02*
X8774825Y-10803150D01*
X8774825Y-10803150D02*
X8803396Y-10803150D01*
X8803396Y-10803150D02*
X8822444Y-10812674D01*
X8822444Y-10812674D02*
X8831968Y-10831722D01*
X8831968Y-10831722D02*
X8831968Y-10936484D01*
X8955777Y-10936484D02*
X8936730Y-10926960D01*
X8936730Y-10926960D02*
X8927206Y-10917436D01*
X8927206Y-10917436D02*
X8917682Y-10898389D01*
X8917682Y-10898389D02*
X8917682Y-10841246D01*
X8917682Y-10841246D02*
X8927206Y-10822198D01*
X8927206Y-10822198D02*
X8936730Y-10812674D01*
X8936730Y-10812674D02*
X8955777Y-10803150D01*
X8955777Y-10803150D02*
X8984349Y-10803150D01*
X8984349Y-10803150D02*
X9003396Y-10812674D01*
X9003396Y-10812674D02*
X9012920Y-10822198D01*
X9012920Y-10822198D02*
X9022444Y-10841246D01*
X9022444Y-10841246D02*
X9022444Y-10898389D01*
X9022444Y-10898389D02*
X9012920Y-10917436D01*
X9012920Y-10917436D02*
X9003396Y-10926960D01*
X9003396Y-10926960D02*
X8984349Y-10936484D01*
X8984349Y-10936484D02*
X8955777Y-10936484D01*
X9079587Y-10803150D02*
X9155777Y-10803150D01*
X9108158Y-10736484D02*
X9108158Y-10907912D01*
X9108158Y-10907912D02*
X9117682Y-10926960D01*
X9117682Y-10926960D02*
X9136730Y-10936484D01*
X9136730Y-10936484D02*
X9155777Y-10936484D01*
X9374825Y-10803150D02*
X9374825Y-11003150D01*
X9374825Y-10812674D02*
X9393873Y-10803150D01*
X9393873Y-10803150D02*
X9431968Y-10803150D01*
X9431968Y-10803150D02*
X9451015Y-10812674D01*
X9451015Y-10812674D02*
X9460539Y-10822198D01*
X9460539Y-10822198D02*
X9470063Y-10841246D01*
X9470063Y-10841246D02*
X9470063Y-10898389D01*
X9470063Y-10898389D02*
X9460539Y-10917436D01*
X9460539Y-10917436D02*
X9451015Y-10926960D01*
X9451015Y-10926960D02*
X9431968Y-10936484D01*
X9431968Y-10936484D02*
X9393873Y-10936484D01*
X9393873Y-10936484D02*
X9374825Y-10926960D01*
X9584349Y-10936484D02*
X9565301Y-10926960D01*
X9565301Y-10926960D02*
X9555777Y-10907912D01*
X9555777Y-10907912D02*
X9555777Y-10736484D01*
X9746254Y-10936484D02*
X9746254Y-10831722D01*
X9746254Y-10831722D02*
X9736730Y-10812674D01*
X9736730Y-10812674D02*
X9717682Y-10803150D01*
X9717682Y-10803150D02*
X9679587Y-10803150D01*
X9679587Y-10803150D02*
X9660539Y-10812674D01*
X9746254Y-10926960D02*
X9727206Y-10936484D01*
X9727206Y-10936484D02*
X9679587Y-10936484D01*
X9679587Y-10936484D02*
X9660539Y-10926960D01*
X9660539Y-10926960D02*
X9651015Y-10907912D01*
X9651015Y-10907912D02*
X9651015Y-10888865D01*
X9651015Y-10888865D02*
X9660539Y-10869817D01*
X9660539Y-10869817D02*
X9679587Y-10860293D01*
X9679587Y-10860293D02*
X9727206Y-10860293D01*
X9727206Y-10860293D02*
X9746254Y-10850770D01*
X9812920Y-10803150D02*
X9889111Y-10803150D01*
X9841492Y-10736484D02*
X9841492Y-10907912D01*
X9841492Y-10907912D02*
X9851015Y-10926960D01*
X9851015Y-10926960D02*
X9870063Y-10936484D01*
X9870063Y-10936484D02*
X9889111Y-10936484D01*
X10031968Y-10926960D02*
X10012920Y-10936484D01*
X10012920Y-10936484D02*
X9974825Y-10936484D01*
X9974825Y-10936484D02*
X9955777Y-10926960D01*
X9955777Y-10926960D02*
X9946254Y-10907912D01*
X9946254Y-10907912D02*
X9946254Y-10831722D01*
X9946254Y-10831722D02*
X9955777Y-10812674D01*
X9955777Y-10812674D02*
X9974825Y-10803150D01*
X9974825Y-10803150D02*
X10012920Y-10803150D01*
X10012920Y-10803150D02*
X10031968Y-10812674D01*
X10031968Y-10812674D02*
X10041492Y-10831722D01*
X10041492Y-10831722D02*
X10041492Y-10850770D01*
X10041492Y-10850770D02*
X9946254Y-10869817D01*
X10212920Y-10936484D02*
X10212920Y-10736484D01*
X10212920Y-10926960D02*
X10193873Y-10936484D01*
X10193873Y-10936484D02*
X10155777Y-10936484D01*
X10155777Y-10936484D02*
X10136730Y-10926960D01*
X10136730Y-10926960D02*
X10127206Y-10917436D01*
X10127206Y-10917436D02*
X10117682Y-10898389D01*
X10117682Y-10898389D02*
X10117682Y-10841246D01*
X10117682Y-10841246D02*
X10127206Y-10822198D01*
X10127206Y-10822198D02*
X10136730Y-10812674D01*
X10136730Y-10812674D02*
X10155777Y-10803150D01*
X10155777Y-10803150D02*
X10193873Y-10803150D01*
X10193873Y-10803150D02*
X10212920Y-10812674D01*
X10289111Y-11012674D02*
X10298635Y-11003150D01*
X10298635Y-11003150D02*
X10317682Y-10974579D01*
X10317682Y-10974579D02*
X10327206Y-10955531D01*
X10327206Y-10955531D02*
X10336730Y-10926960D01*
X10336730Y-10926960D02*
X10346254Y-10879341D01*
X10346254Y-10879341D02*
X10346254Y-10841246D01*
X10346254Y-10841246D02*
X10336730Y-10793627D01*
X10336730Y-10793627D02*
X10327206Y-10765055D01*
X10327206Y-10765055D02*
X10317682Y-10746008D01*
X10317682Y-10746008D02*
X10298635Y-10717436D01*
X10298635Y-10717436D02*
X10289111Y-10707912D01*
M02*
