%TF.GenerationSoftware,KiCad,Pcbnew,8.0.2*%
%TF.CreationDate,2024-09-26T14:02:11+02:00*%
%TF.ProjectId,Indicator_voltage,496e6469-6361-4746-9f72-5f766f6c7461,rev?*%
%TF.SameCoordinates,Original*%
%TF.FileFunction,Legend,Top*%
%TF.FilePolarity,Positive*%
%FSLAX46Y46*%
G04 Gerber Fmt 4.6, Leading zero omitted, Abs format (unit mm)*
G04 Created by KiCad (PCBNEW 8.0.2) date 2024-09-26 14:02:11*
%MOMM*%
%LPD*%
G01*
G04 APERTURE LIST*
%ADD10C,0.150000*%
%ADD11C,0.300000*%
%ADD12C,0.254000*%
%ADD13C,0.127000*%
%ADD14C,0.200000*%
%ADD15C,0.100000*%
G04 APERTURE END LIST*
D10*
X120952152Y-91991792D02*
X120952152Y-91558458D01*
X121633104Y-91372744D02*
X121633104Y-91991792D01*
X121633104Y-91991792D02*
X120333104Y-91991792D01*
X120333104Y-91991792D02*
X120333104Y-91372744D01*
X121633104Y-90815602D02*
X120333104Y-90815602D01*
X120333104Y-90815602D02*
X120333104Y-90320364D01*
X120333104Y-90320364D02*
X120395009Y-90196554D01*
X120395009Y-90196554D02*
X120456914Y-90134649D01*
X120456914Y-90134649D02*
X120580723Y-90072745D01*
X120580723Y-90072745D02*
X120766438Y-90072745D01*
X120766438Y-90072745D02*
X120890247Y-90134649D01*
X120890247Y-90134649D02*
X120952152Y-90196554D01*
X120952152Y-90196554D02*
X121014057Y-90320364D01*
X121014057Y-90320364D02*
X121014057Y-90815602D01*
X121571200Y-89577506D02*
X121633104Y-89391792D01*
X121633104Y-89391792D02*
X121633104Y-89082268D01*
X121633104Y-89082268D02*
X121571200Y-88958459D01*
X121571200Y-88958459D02*
X121509295Y-88896554D01*
X121509295Y-88896554D02*
X121385485Y-88834649D01*
X121385485Y-88834649D02*
X121261676Y-88834649D01*
X121261676Y-88834649D02*
X121137866Y-88896554D01*
X121137866Y-88896554D02*
X121075961Y-88958459D01*
X121075961Y-88958459D02*
X121014057Y-89082268D01*
X121014057Y-89082268D02*
X120952152Y-89329887D01*
X120952152Y-89329887D02*
X120890247Y-89453697D01*
X120890247Y-89453697D02*
X120828342Y-89515602D01*
X120828342Y-89515602D02*
X120704533Y-89577506D01*
X120704533Y-89577506D02*
X120580723Y-89577506D01*
X120580723Y-89577506D02*
X120456914Y-89515602D01*
X120456914Y-89515602D02*
X120395009Y-89453697D01*
X120395009Y-89453697D02*
X120333104Y-89329887D01*
X120333104Y-89329887D02*
X120333104Y-89020364D01*
X120333104Y-89020364D02*
X120395009Y-88834649D01*
X121261676Y-88339411D02*
X121261676Y-87720364D01*
X121633104Y-88463221D02*
X120333104Y-88029888D01*
X120333104Y-88029888D02*
X121633104Y-87596554D01*
X120456914Y-86234649D02*
X120395009Y-86172745D01*
X120395009Y-86172745D02*
X120333104Y-86048935D01*
X120333104Y-86048935D02*
X120333104Y-85739411D01*
X120333104Y-85739411D02*
X120395009Y-85615602D01*
X120395009Y-85615602D02*
X120456914Y-85553697D01*
X120456914Y-85553697D02*
X120580723Y-85491792D01*
X120580723Y-85491792D02*
X120704533Y-85491792D01*
X120704533Y-85491792D02*
X120890247Y-85553697D01*
X120890247Y-85553697D02*
X121633104Y-86296554D01*
X121633104Y-86296554D02*
X121633104Y-85491792D01*
X120333104Y-84687031D02*
X120333104Y-84563221D01*
X120333104Y-84563221D02*
X120395009Y-84439412D01*
X120395009Y-84439412D02*
X120456914Y-84377507D01*
X120456914Y-84377507D02*
X120580723Y-84315602D01*
X120580723Y-84315602D02*
X120828342Y-84253697D01*
X120828342Y-84253697D02*
X121137866Y-84253697D01*
X121137866Y-84253697D02*
X121385485Y-84315602D01*
X121385485Y-84315602D02*
X121509295Y-84377507D01*
X121509295Y-84377507D02*
X121571200Y-84439412D01*
X121571200Y-84439412D02*
X121633104Y-84563221D01*
X121633104Y-84563221D02*
X121633104Y-84687031D01*
X121633104Y-84687031D02*
X121571200Y-84810840D01*
X121571200Y-84810840D02*
X121509295Y-84872745D01*
X121509295Y-84872745D02*
X121385485Y-84934650D01*
X121385485Y-84934650D02*
X121137866Y-84996554D01*
X121137866Y-84996554D02*
X120828342Y-84996554D01*
X120828342Y-84996554D02*
X120580723Y-84934650D01*
X120580723Y-84934650D02*
X120456914Y-84872745D01*
X120456914Y-84872745D02*
X120395009Y-84810840D01*
X120395009Y-84810840D02*
X120333104Y-84687031D01*
X120456914Y-83758459D02*
X120395009Y-83696555D01*
X120395009Y-83696555D02*
X120333104Y-83572745D01*
X120333104Y-83572745D02*
X120333104Y-83263221D01*
X120333104Y-83263221D02*
X120395009Y-83139412D01*
X120395009Y-83139412D02*
X120456914Y-83077507D01*
X120456914Y-83077507D02*
X120580723Y-83015602D01*
X120580723Y-83015602D02*
X120704533Y-83015602D01*
X120704533Y-83015602D02*
X120890247Y-83077507D01*
X120890247Y-83077507D02*
X121633104Y-83820364D01*
X121633104Y-83820364D02*
X121633104Y-83015602D01*
X120766438Y-81901317D02*
X121633104Y-81901317D01*
X120271200Y-82210841D02*
X121199771Y-82520364D01*
X121199771Y-82520364D02*
X121199771Y-81715603D01*
X120333104Y-80415603D02*
X121633104Y-79982270D01*
X121633104Y-79982270D02*
X120333104Y-79548936D01*
X120333104Y-78867984D02*
X120333104Y-78620365D01*
X120333104Y-78620365D02*
X120395009Y-78496555D01*
X120395009Y-78496555D02*
X120518819Y-78372746D01*
X120518819Y-78372746D02*
X120766438Y-78310841D01*
X120766438Y-78310841D02*
X121199771Y-78310841D01*
X121199771Y-78310841D02*
X121447390Y-78372746D01*
X121447390Y-78372746D02*
X121571200Y-78496555D01*
X121571200Y-78496555D02*
X121633104Y-78620365D01*
X121633104Y-78620365D02*
X121633104Y-78867984D01*
X121633104Y-78867984D02*
X121571200Y-78991793D01*
X121571200Y-78991793D02*
X121447390Y-79115603D01*
X121447390Y-79115603D02*
X121199771Y-79177507D01*
X121199771Y-79177507D02*
X120766438Y-79177507D01*
X120766438Y-79177507D02*
X120518819Y-79115603D01*
X120518819Y-79115603D02*
X120395009Y-78991793D01*
X120395009Y-78991793D02*
X120333104Y-78867984D01*
X121633104Y-77134650D02*
X121633104Y-77753698D01*
X121633104Y-77753698D02*
X120333104Y-77753698D01*
X120333104Y-76887031D02*
X120333104Y-76144174D01*
X121633104Y-76515602D02*
X120333104Y-76515602D01*
X121261676Y-75772745D02*
X121261676Y-75153698D01*
X121633104Y-75896555D02*
X120333104Y-75463222D01*
X120333104Y-75463222D02*
X121633104Y-75029888D01*
X120395009Y-73915602D02*
X120333104Y-74039412D01*
X120333104Y-74039412D02*
X120333104Y-74225126D01*
X120333104Y-74225126D02*
X120395009Y-74410840D01*
X120395009Y-74410840D02*
X120518819Y-74534650D01*
X120518819Y-74534650D02*
X120642628Y-74596555D01*
X120642628Y-74596555D02*
X120890247Y-74658459D01*
X120890247Y-74658459D02*
X121075961Y-74658459D01*
X121075961Y-74658459D02*
X121323580Y-74596555D01*
X121323580Y-74596555D02*
X121447390Y-74534650D01*
X121447390Y-74534650D02*
X121571200Y-74410840D01*
X121571200Y-74410840D02*
X121633104Y-74225126D01*
X121633104Y-74225126D02*
X121633104Y-74101317D01*
X121633104Y-74101317D02*
X121571200Y-73915602D01*
X121571200Y-73915602D02*
X121509295Y-73853698D01*
X121509295Y-73853698D02*
X121075961Y-73853698D01*
X121075961Y-73853698D02*
X121075961Y-74101317D01*
X120952152Y-73296555D02*
X120952152Y-72863221D01*
X121633104Y-72677507D02*
X121633104Y-73296555D01*
X121633104Y-73296555D02*
X120333104Y-73296555D01*
X120333104Y-73296555D02*
X120333104Y-72677507D01*
X121756914Y-72429889D02*
X121756914Y-71439412D01*
X121633104Y-71129889D02*
X120333104Y-71129889D01*
X121633104Y-70510841D02*
X120333104Y-70510841D01*
X120333104Y-70510841D02*
X121633104Y-69767984D01*
X121633104Y-69767984D02*
X120333104Y-69767984D01*
X121633104Y-69148936D02*
X120333104Y-69148936D01*
X120333104Y-69148936D02*
X120333104Y-68839412D01*
X120333104Y-68839412D02*
X120395009Y-68653698D01*
X120395009Y-68653698D02*
X120518819Y-68529888D01*
X120518819Y-68529888D02*
X120642628Y-68467983D01*
X120642628Y-68467983D02*
X120890247Y-68406079D01*
X120890247Y-68406079D02*
X121075961Y-68406079D01*
X121075961Y-68406079D02*
X121323580Y-68467983D01*
X121323580Y-68467983D02*
X121447390Y-68529888D01*
X121447390Y-68529888D02*
X121571200Y-68653698D01*
X121571200Y-68653698D02*
X121633104Y-68839412D01*
X121633104Y-68839412D02*
X121633104Y-69148936D01*
X121633104Y-67848936D02*
X120333104Y-67848936D01*
X121509295Y-66487031D02*
X121571200Y-66548935D01*
X121571200Y-66548935D02*
X121633104Y-66734650D01*
X121633104Y-66734650D02*
X121633104Y-66858459D01*
X121633104Y-66858459D02*
X121571200Y-67044173D01*
X121571200Y-67044173D02*
X121447390Y-67167983D01*
X121447390Y-67167983D02*
X121323580Y-67229888D01*
X121323580Y-67229888D02*
X121075961Y-67291792D01*
X121075961Y-67291792D02*
X120890247Y-67291792D01*
X120890247Y-67291792D02*
X120642628Y-67229888D01*
X120642628Y-67229888D02*
X120518819Y-67167983D01*
X120518819Y-67167983D02*
X120395009Y-67044173D01*
X120395009Y-67044173D02*
X120333104Y-66858459D01*
X120333104Y-66858459D02*
X120333104Y-66734650D01*
X120333104Y-66734650D02*
X120395009Y-66548935D01*
X120395009Y-66548935D02*
X120456914Y-66487031D01*
X121261676Y-65991792D02*
X121261676Y-65372745D01*
X121633104Y-66115602D02*
X120333104Y-65682269D01*
X120333104Y-65682269D02*
X121633104Y-65248935D01*
X120333104Y-65001316D02*
X120333104Y-64258459D01*
X121633104Y-64629887D02*
X120333104Y-64629887D01*
X120333104Y-63577507D02*
X120333104Y-63329888D01*
X120333104Y-63329888D02*
X120395009Y-63206078D01*
X120395009Y-63206078D02*
X120518819Y-63082269D01*
X120518819Y-63082269D02*
X120766438Y-63020364D01*
X120766438Y-63020364D02*
X121199771Y-63020364D01*
X121199771Y-63020364D02*
X121447390Y-63082269D01*
X121447390Y-63082269D02*
X121571200Y-63206078D01*
X121571200Y-63206078D02*
X121633104Y-63329888D01*
X121633104Y-63329888D02*
X121633104Y-63577507D01*
X121633104Y-63577507D02*
X121571200Y-63701316D01*
X121571200Y-63701316D02*
X121447390Y-63825126D01*
X121447390Y-63825126D02*
X121199771Y-63887030D01*
X121199771Y-63887030D02*
X120766438Y-63887030D01*
X120766438Y-63887030D02*
X120518819Y-63825126D01*
X120518819Y-63825126D02*
X120395009Y-63701316D01*
X120395009Y-63701316D02*
X120333104Y-63577507D01*
X121633104Y-61720364D02*
X121014057Y-62153697D01*
X121633104Y-62463221D02*
X120333104Y-62463221D01*
X120333104Y-62463221D02*
X120333104Y-61967983D01*
X120333104Y-61967983D02*
X120395009Y-61844173D01*
X120395009Y-61844173D02*
X120456914Y-61782268D01*
X120456914Y-61782268D02*
X120580723Y-61720364D01*
X120580723Y-61720364D02*
X120766438Y-61720364D01*
X120766438Y-61720364D02*
X120890247Y-61782268D01*
X120890247Y-61782268D02*
X120952152Y-61844173D01*
X120952152Y-61844173D02*
X121014057Y-61967983D01*
X121014057Y-61967983D02*
X121014057Y-62463221D01*
X120333104Y-60358459D02*
X121633104Y-59925126D01*
X121633104Y-59925126D02*
X120333104Y-59491792D01*
X120456914Y-59120363D02*
X120395009Y-59058459D01*
X120395009Y-59058459D02*
X120333104Y-58934649D01*
X120333104Y-58934649D02*
X120333104Y-58625125D01*
X120333104Y-58625125D02*
X120395009Y-58501316D01*
X120395009Y-58501316D02*
X120456914Y-58439411D01*
X120456914Y-58439411D02*
X120580723Y-58377506D01*
X120580723Y-58377506D02*
X120704533Y-58377506D01*
X120704533Y-58377506D02*
X120890247Y-58439411D01*
X120890247Y-58439411D02*
X121633104Y-59182268D01*
X121633104Y-59182268D02*
X121633104Y-58377506D01*
X121509295Y-57820364D02*
X121571200Y-57758459D01*
X121571200Y-57758459D02*
X121633104Y-57820364D01*
X121633104Y-57820364D02*
X121571200Y-57882268D01*
X121571200Y-57882268D02*
X121509295Y-57820364D01*
X121509295Y-57820364D02*
X121633104Y-57820364D01*
X121633104Y-56520363D02*
X121633104Y-57263220D01*
X121633104Y-56891792D02*
X120333104Y-56891792D01*
X120333104Y-56891792D02*
X120518819Y-57015601D01*
X120518819Y-57015601D02*
X120642628Y-57139411D01*
X120642628Y-57139411D02*
X120704533Y-57263220D01*
D11*
X102554510Y-70300828D02*
X102554510Y-68800828D01*
X102554510Y-69515114D02*
X103411653Y-69515114D01*
X103411653Y-70300828D02*
X103411653Y-68800828D01*
X103911654Y-68800828D02*
X104411654Y-70300828D01*
X104411654Y-70300828D02*
X104911654Y-68800828D01*
X105411653Y-69729400D02*
X106554511Y-69729400D01*
X105983082Y-70300828D02*
X105983082Y-69157971D01*
X109068796Y-98400828D02*
X108354510Y-98400828D01*
X108354510Y-98400828D02*
X108354510Y-96900828D01*
X109568796Y-97615114D02*
X110068796Y-97615114D01*
X110283082Y-98400828D02*
X109568796Y-98400828D01*
X109568796Y-98400828D02*
X109568796Y-96900828D01*
X109568796Y-96900828D02*
X110283082Y-96900828D01*
X110925939Y-98400828D02*
X110925939Y-96900828D01*
X110925939Y-96900828D02*
X111283082Y-96900828D01*
X111283082Y-96900828D02*
X111497368Y-96972257D01*
X111497368Y-96972257D02*
X111640225Y-97115114D01*
X111640225Y-97115114D02*
X111711654Y-97257971D01*
X111711654Y-97257971D02*
X111783082Y-97543685D01*
X111783082Y-97543685D02*
X111783082Y-97757971D01*
X111783082Y-97757971D02*
X111711654Y-98043685D01*
X111711654Y-98043685D02*
X111640225Y-98186542D01*
X111640225Y-98186542D02*
X111497368Y-98329400D01*
X111497368Y-98329400D02*
X111283082Y-98400828D01*
X111283082Y-98400828D02*
X110925939Y-98400828D01*
X112425939Y-97829400D02*
X113568797Y-97829400D01*
X112997368Y-98400828D02*
X112997368Y-97257971D01*
X101668796Y-98400828D02*
X100954510Y-98400828D01*
X100954510Y-98400828D02*
X100954510Y-96900828D01*
X102168796Y-97615114D02*
X102668796Y-97615114D01*
X102883082Y-98400828D02*
X102168796Y-98400828D01*
X102168796Y-98400828D02*
X102168796Y-96900828D01*
X102168796Y-96900828D02*
X102883082Y-96900828D01*
X103525939Y-98400828D02*
X103525939Y-96900828D01*
X103525939Y-96900828D02*
X103883082Y-96900828D01*
X103883082Y-96900828D02*
X104097368Y-96972257D01*
X104097368Y-96972257D02*
X104240225Y-97115114D01*
X104240225Y-97115114D02*
X104311654Y-97257971D01*
X104311654Y-97257971D02*
X104383082Y-97543685D01*
X104383082Y-97543685D02*
X104383082Y-97757971D01*
X104383082Y-97757971D02*
X104311654Y-98043685D01*
X104311654Y-98043685D02*
X104240225Y-98186542D01*
X104240225Y-98186542D02*
X104097368Y-98329400D01*
X104097368Y-98329400D02*
X103883082Y-98400828D01*
X103883082Y-98400828D02*
X103525939Y-98400828D01*
X105025939Y-97829400D02*
X106168797Y-97829400D01*
X102554510Y-86800828D02*
X102554510Y-85300828D01*
X102554510Y-86015114D02*
X103411653Y-86015114D01*
X103411653Y-86800828D02*
X103411653Y-85300828D01*
X103911654Y-85300828D02*
X104411654Y-86800828D01*
X104411654Y-86800828D02*
X104911654Y-85300828D01*
X105411653Y-86229400D02*
X106554511Y-86229400D01*
D12*
X49183571Y-96553365D02*
X49123095Y-96613842D01*
X49123095Y-96613842D02*
X48941666Y-96674318D01*
X48941666Y-96674318D02*
X48820714Y-96674318D01*
X48820714Y-96674318D02*
X48639285Y-96613842D01*
X48639285Y-96613842D02*
X48518333Y-96492889D01*
X48518333Y-96492889D02*
X48457856Y-96371937D01*
X48457856Y-96371937D02*
X48397380Y-96130032D01*
X48397380Y-96130032D02*
X48397380Y-95948603D01*
X48397380Y-95948603D02*
X48457856Y-95706699D01*
X48457856Y-95706699D02*
X48518333Y-95585746D01*
X48518333Y-95585746D02*
X48639285Y-95464794D01*
X48639285Y-95464794D02*
X48820714Y-95404318D01*
X48820714Y-95404318D02*
X48941666Y-95404318D01*
X48941666Y-95404318D02*
X49123095Y-95464794D01*
X49123095Y-95464794D02*
X49183571Y-95525270D01*
X50393095Y-96674318D02*
X49667380Y-96674318D01*
X50030237Y-96674318D02*
X50030237Y-95404318D01*
X50030237Y-95404318D02*
X49909285Y-95585746D01*
X49909285Y-95585746D02*
X49788333Y-95706699D01*
X49788333Y-95706699D02*
X49667380Y-95767175D01*
X51179285Y-95404318D02*
X51300238Y-95404318D01*
X51300238Y-95404318D02*
X51421190Y-95464794D01*
X51421190Y-95464794D02*
X51481666Y-95525270D01*
X51481666Y-95525270D02*
X51542142Y-95646222D01*
X51542142Y-95646222D02*
X51602619Y-95888127D01*
X51602619Y-95888127D02*
X51602619Y-96190508D01*
X51602619Y-96190508D02*
X51542142Y-96432413D01*
X51542142Y-96432413D02*
X51481666Y-96553365D01*
X51481666Y-96553365D02*
X51421190Y-96613842D01*
X51421190Y-96613842D02*
X51300238Y-96674318D01*
X51300238Y-96674318D02*
X51179285Y-96674318D01*
X51179285Y-96674318D02*
X51058333Y-96613842D01*
X51058333Y-96613842D02*
X50997857Y-96553365D01*
X50997857Y-96553365D02*
X50937380Y-96432413D01*
X50937380Y-96432413D02*
X50876904Y-96190508D01*
X50876904Y-96190508D02*
X50876904Y-95888127D01*
X50876904Y-95888127D02*
X50937380Y-95646222D01*
X50937380Y-95646222D02*
X50997857Y-95525270D01*
X50997857Y-95525270D02*
X51058333Y-95464794D01*
X51058333Y-95464794D02*
X51179285Y-95404318D01*
X75399956Y-79753365D02*
X75339480Y-79813842D01*
X75339480Y-79813842D02*
X75158051Y-79874318D01*
X75158051Y-79874318D02*
X75037099Y-79874318D01*
X75037099Y-79874318D02*
X74855670Y-79813842D01*
X74855670Y-79813842D02*
X74734718Y-79692889D01*
X74734718Y-79692889D02*
X74674241Y-79571937D01*
X74674241Y-79571937D02*
X74613765Y-79330032D01*
X74613765Y-79330032D02*
X74613765Y-79148603D01*
X74613765Y-79148603D02*
X74674241Y-78906699D01*
X74674241Y-78906699D02*
X74734718Y-78785746D01*
X74734718Y-78785746D02*
X74855670Y-78664794D01*
X74855670Y-78664794D02*
X75037099Y-78604318D01*
X75037099Y-78604318D02*
X75158051Y-78604318D01*
X75158051Y-78604318D02*
X75339480Y-78664794D01*
X75339480Y-78664794D02*
X75399956Y-78725270D01*
X75823289Y-78604318D02*
X76609480Y-78604318D01*
X76609480Y-78604318D02*
X76186146Y-79088127D01*
X76186146Y-79088127D02*
X76367575Y-79088127D01*
X76367575Y-79088127D02*
X76488527Y-79148603D01*
X76488527Y-79148603D02*
X76549003Y-79209080D01*
X76549003Y-79209080D02*
X76609480Y-79330032D01*
X76609480Y-79330032D02*
X76609480Y-79632413D01*
X76609480Y-79632413D02*
X76549003Y-79753365D01*
X76549003Y-79753365D02*
X76488527Y-79813842D01*
X76488527Y-79813842D02*
X76367575Y-79874318D01*
X76367575Y-79874318D02*
X76004718Y-79874318D01*
X76004718Y-79874318D02*
X75883765Y-79813842D01*
X75883765Y-79813842D02*
X75823289Y-79753365D01*
X98308333Y-84584318D02*
X97703571Y-84584318D01*
X97703571Y-84584318D02*
X97703571Y-83314318D01*
X99396905Y-84584318D02*
X98671190Y-84584318D01*
X99034047Y-84584318D02*
X99034047Y-83314318D01*
X99034047Y-83314318D02*
X98913095Y-83495746D01*
X98913095Y-83495746D02*
X98792143Y-83616699D01*
X98792143Y-83616699D02*
X98671190Y-83677175D01*
X55288333Y-84453365D02*
X55227857Y-84513842D01*
X55227857Y-84513842D02*
X55046428Y-84574318D01*
X55046428Y-84574318D02*
X54925476Y-84574318D01*
X54925476Y-84574318D02*
X54744047Y-84513842D01*
X54744047Y-84513842D02*
X54623095Y-84392889D01*
X54623095Y-84392889D02*
X54562618Y-84271937D01*
X54562618Y-84271937D02*
X54502142Y-84030032D01*
X54502142Y-84030032D02*
X54502142Y-83848603D01*
X54502142Y-83848603D02*
X54562618Y-83606699D01*
X54562618Y-83606699D02*
X54623095Y-83485746D01*
X54623095Y-83485746D02*
X54744047Y-83364794D01*
X54744047Y-83364794D02*
X54925476Y-83304318D01*
X54925476Y-83304318D02*
X55046428Y-83304318D01*
X55046428Y-83304318D02*
X55227857Y-83364794D01*
X55227857Y-83364794D02*
X55288333Y-83425270D01*
X55772142Y-83425270D02*
X55832618Y-83364794D01*
X55832618Y-83364794D02*
X55953571Y-83304318D01*
X55953571Y-83304318D02*
X56255952Y-83304318D01*
X56255952Y-83304318D02*
X56376904Y-83364794D01*
X56376904Y-83364794D02*
X56437380Y-83425270D01*
X56437380Y-83425270D02*
X56497857Y-83546222D01*
X56497857Y-83546222D02*
X56497857Y-83667175D01*
X56497857Y-83667175D02*
X56437380Y-83848603D01*
X56437380Y-83848603D02*
X55711666Y-84574318D01*
X55711666Y-84574318D02*
X56497857Y-84574318D01*
X74988333Y-56953365D02*
X74927857Y-57013842D01*
X74927857Y-57013842D02*
X74746428Y-57074318D01*
X74746428Y-57074318D02*
X74625476Y-57074318D01*
X74625476Y-57074318D02*
X74444047Y-57013842D01*
X74444047Y-57013842D02*
X74323095Y-56892889D01*
X74323095Y-56892889D02*
X74262618Y-56771937D01*
X74262618Y-56771937D02*
X74202142Y-56530032D01*
X74202142Y-56530032D02*
X74202142Y-56348603D01*
X74202142Y-56348603D02*
X74262618Y-56106699D01*
X74262618Y-56106699D02*
X74323095Y-55985746D01*
X74323095Y-55985746D02*
X74444047Y-55864794D01*
X74444047Y-55864794D02*
X74625476Y-55804318D01*
X74625476Y-55804318D02*
X74746428Y-55804318D01*
X74746428Y-55804318D02*
X74927857Y-55864794D01*
X74927857Y-55864794D02*
X74988333Y-55925270D01*
X76197857Y-57074318D02*
X75472142Y-57074318D01*
X75834999Y-57074318D02*
X75834999Y-55804318D01*
X75834999Y-55804318D02*
X75714047Y-55985746D01*
X75714047Y-55985746D02*
X75593095Y-56106699D01*
X75593095Y-56106699D02*
X75472142Y-56167175D01*
X105444318Y-77986332D02*
X106351461Y-77986332D01*
X106351461Y-77986332D02*
X106532889Y-78046809D01*
X106532889Y-78046809D02*
X106653842Y-78167761D01*
X106653842Y-78167761D02*
X106714318Y-78349190D01*
X106714318Y-78349190D02*
X106714318Y-78470142D01*
X106714318Y-76716332D02*
X106714318Y-77442047D01*
X106714318Y-77079190D02*
X105444318Y-77079190D01*
X105444318Y-77079190D02*
X105625746Y-77200142D01*
X105625746Y-77200142D02*
X105746699Y-77321094D01*
X105746699Y-77321094D02*
X105807175Y-77442047D01*
X41483571Y-87374318D02*
X41060237Y-86769556D01*
X40757856Y-87374318D02*
X40757856Y-86104318D01*
X40757856Y-86104318D02*
X41241666Y-86104318D01*
X41241666Y-86104318D02*
X41362618Y-86164794D01*
X41362618Y-86164794D02*
X41423095Y-86225270D01*
X41423095Y-86225270D02*
X41483571Y-86346222D01*
X41483571Y-86346222D02*
X41483571Y-86527651D01*
X41483571Y-86527651D02*
X41423095Y-86648603D01*
X41423095Y-86648603D02*
X41362618Y-86709080D01*
X41362618Y-86709080D02*
X41241666Y-86769556D01*
X41241666Y-86769556D02*
X40757856Y-86769556D01*
X42693095Y-87374318D02*
X41967380Y-87374318D01*
X42330237Y-87374318D02*
X42330237Y-86104318D01*
X42330237Y-86104318D02*
X42209285Y-86285746D01*
X42209285Y-86285746D02*
X42088333Y-86406699D01*
X42088333Y-86406699D02*
X41967380Y-86467175D01*
X43781666Y-86527651D02*
X43781666Y-87374318D01*
X43479285Y-86043842D02*
X43176904Y-86950984D01*
X43176904Y-86950984D02*
X43963095Y-86950984D01*
X83588333Y-57953365D02*
X83527857Y-58013842D01*
X83527857Y-58013842D02*
X83346428Y-58074318D01*
X83346428Y-58074318D02*
X83225476Y-58074318D01*
X83225476Y-58074318D02*
X83044047Y-58013842D01*
X83044047Y-58013842D02*
X82923095Y-57892889D01*
X82923095Y-57892889D02*
X82862618Y-57771937D01*
X82862618Y-57771937D02*
X82802142Y-57530032D01*
X82802142Y-57530032D02*
X82802142Y-57348603D01*
X82802142Y-57348603D02*
X82862618Y-57106699D01*
X82862618Y-57106699D02*
X82923095Y-56985746D01*
X82923095Y-56985746D02*
X83044047Y-56864794D01*
X83044047Y-56864794D02*
X83225476Y-56804318D01*
X83225476Y-56804318D02*
X83346428Y-56804318D01*
X83346428Y-56804318D02*
X83527857Y-56864794D01*
X83527857Y-56864794D02*
X83588333Y-56925270D01*
X84011666Y-56804318D02*
X84858333Y-56804318D01*
X84858333Y-56804318D02*
X84314047Y-58074318D01*
X76200234Y-95574318D02*
X75776900Y-94969556D01*
X75474519Y-95574318D02*
X75474519Y-94304318D01*
X75474519Y-94304318D02*
X75958329Y-94304318D01*
X75958329Y-94304318D02*
X76079281Y-94364794D01*
X76079281Y-94364794D02*
X76139758Y-94425270D01*
X76139758Y-94425270D02*
X76200234Y-94546222D01*
X76200234Y-94546222D02*
X76200234Y-94727651D01*
X76200234Y-94727651D02*
X76139758Y-94848603D01*
X76139758Y-94848603D02*
X76079281Y-94909080D01*
X76079281Y-94909080D02*
X75958329Y-94969556D01*
X75958329Y-94969556D02*
X75474519Y-94969556D01*
X77409758Y-95574318D02*
X76684043Y-95574318D01*
X77046900Y-95574318D02*
X77046900Y-94304318D01*
X77046900Y-94304318D02*
X76925948Y-94485746D01*
X76925948Y-94485746D02*
X76804996Y-94606699D01*
X76804996Y-94606699D02*
X76684043Y-94667175D01*
X78562618Y-90074318D02*
X78562618Y-88804318D01*
X78562618Y-88804318D02*
X78864999Y-88804318D01*
X78864999Y-88804318D02*
X79046428Y-88864794D01*
X79046428Y-88864794D02*
X79167380Y-88985746D01*
X79167380Y-88985746D02*
X79227857Y-89106699D01*
X79227857Y-89106699D02*
X79288333Y-89348603D01*
X79288333Y-89348603D02*
X79288333Y-89530032D01*
X79288333Y-89530032D02*
X79227857Y-89771937D01*
X79227857Y-89771937D02*
X79167380Y-89892889D01*
X79167380Y-89892889D02*
X79046428Y-90013842D01*
X79046428Y-90013842D02*
X78864999Y-90074318D01*
X78864999Y-90074318D02*
X78562618Y-90074318D01*
X79772142Y-88925270D02*
X79832618Y-88864794D01*
X79832618Y-88864794D02*
X79953571Y-88804318D01*
X79953571Y-88804318D02*
X80255952Y-88804318D01*
X80255952Y-88804318D02*
X80376904Y-88864794D01*
X80376904Y-88864794D02*
X80437380Y-88925270D01*
X80437380Y-88925270D02*
X80497857Y-89046222D01*
X80497857Y-89046222D02*
X80497857Y-89167175D01*
X80497857Y-89167175D02*
X80437380Y-89348603D01*
X80437380Y-89348603D02*
X79711666Y-90074318D01*
X79711666Y-90074318D02*
X80497857Y-90074318D01*
D10*
X102806666Y-90054819D02*
X102806666Y-90769104D01*
X102806666Y-90769104D02*
X102759047Y-90911961D01*
X102759047Y-90911961D02*
X102663809Y-91007200D01*
X102663809Y-91007200D02*
X102520952Y-91054819D01*
X102520952Y-91054819D02*
X102425714Y-91054819D01*
X103187619Y-90054819D02*
X103854285Y-90054819D01*
X103854285Y-90054819D02*
X103425714Y-91054819D01*
D12*
X48088333Y-78874318D02*
X47664999Y-78269556D01*
X47362618Y-78874318D02*
X47362618Y-77604318D01*
X47362618Y-77604318D02*
X47846428Y-77604318D01*
X47846428Y-77604318D02*
X47967380Y-77664794D01*
X47967380Y-77664794D02*
X48027857Y-77725270D01*
X48027857Y-77725270D02*
X48088333Y-77846222D01*
X48088333Y-77846222D02*
X48088333Y-78027651D01*
X48088333Y-78027651D02*
X48027857Y-78148603D01*
X48027857Y-78148603D02*
X47967380Y-78209080D01*
X47967380Y-78209080D02*
X47846428Y-78269556D01*
X47846428Y-78269556D02*
X47362618Y-78269556D01*
X48572142Y-77725270D02*
X48632618Y-77664794D01*
X48632618Y-77664794D02*
X48753571Y-77604318D01*
X48753571Y-77604318D02*
X49055952Y-77604318D01*
X49055952Y-77604318D02*
X49176904Y-77664794D01*
X49176904Y-77664794D02*
X49237380Y-77725270D01*
X49237380Y-77725270D02*
X49297857Y-77846222D01*
X49297857Y-77846222D02*
X49297857Y-77967175D01*
X49297857Y-77967175D02*
X49237380Y-78148603D01*
X49237380Y-78148603D02*
X48511666Y-78874318D01*
X48511666Y-78874318D02*
X49297857Y-78874318D01*
X97377168Y-90973690D02*
X97377168Y-92001785D01*
X97377168Y-92001785D02*
X97437645Y-92122737D01*
X97437645Y-92122737D02*
X97498121Y-92183214D01*
X97498121Y-92183214D02*
X97619073Y-92243690D01*
X97619073Y-92243690D02*
X97860978Y-92243690D01*
X97860978Y-92243690D02*
X97981930Y-92183214D01*
X97981930Y-92183214D02*
X98042407Y-92122737D01*
X98042407Y-92122737D02*
X98102883Y-92001785D01*
X98102883Y-92001785D02*
X98102883Y-90973690D01*
X99372883Y-92243690D02*
X98647168Y-92243690D01*
X99010025Y-92243690D02*
X99010025Y-90973690D01*
X99010025Y-90973690D02*
X98889073Y-91155118D01*
X98889073Y-91155118D02*
X98768121Y-91276071D01*
X98768121Y-91276071D02*
X98647168Y-91336547D01*
X79062618Y-66174318D02*
X79062618Y-64904318D01*
X79062618Y-64904318D02*
X79364999Y-64904318D01*
X79364999Y-64904318D02*
X79546428Y-64964794D01*
X79546428Y-64964794D02*
X79667380Y-65085746D01*
X79667380Y-65085746D02*
X79727857Y-65206699D01*
X79727857Y-65206699D02*
X79788333Y-65448603D01*
X79788333Y-65448603D02*
X79788333Y-65630032D01*
X79788333Y-65630032D02*
X79727857Y-65871937D01*
X79727857Y-65871937D02*
X79667380Y-65992889D01*
X79667380Y-65992889D02*
X79546428Y-66113842D01*
X79546428Y-66113842D02*
X79364999Y-66174318D01*
X79364999Y-66174318D02*
X79062618Y-66174318D01*
X80211666Y-64904318D02*
X80997857Y-64904318D01*
X80997857Y-64904318D02*
X80574523Y-65388127D01*
X80574523Y-65388127D02*
X80755952Y-65388127D01*
X80755952Y-65388127D02*
X80876904Y-65448603D01*
X80876904Y-65448603D02*
X80937380Y-65509080D01*
X80937380Y-65509080D02*
X80997857Y-65630032D01*
X80997857Y-65630032D02*
X80997857Y-65932413D01*
X80997857Y-65932413D02*
X80937380Y-66053365D01*
X80937380Y-66053365D02*
X80876904Y-66113842D01*
X80876904Y-66113842D02*
X80755952Y-66174318D01*
X80755952Y-66174318D02*
X80393095Y-66174318D01*
X80393095Y-66174318D02*
X80272142Y-66113842D01*
X80272142Y-66113842D02*
X80211666Y-66053365D01*
X98971904Y-61104318D02*
X99818571Y-61104318D01*
X99818571Y-61104318D02*
X98971904Y-62374318D01*
X98971904Y-62374318D02*
X99818571Y-62374318D01*
X100967619Y-62374318D02*
X100241904Y-62374318D01*
X100604761Y-62374318D02*
X100604761Y-61104318D01*
X100604761Y-61104318D02*
X100483809Y-61285746D01*
X100483809Y-61285746D02*
X100362857Y-61406699D01*
X100362857Y-61406699D02*
X100241904Y-61467175D01*
X52795472Y-94074318D02*
X52372138Y-93469556D01*
X52069757Y-94074318D02*
X52069757Y-92804318D01*
X52069757Y-92804318D02*
X52553567Y-92804318D01*
X52553567Y-92804318D02*
X52674519Y-92864794D01*
X52674519Y-92864794D02*
X52734996Y-92925270D01*
X52734996Y-92925270D02*
X52795472Y-93046222D01*
X52795472Y-93046222D02*
X52795472Y-93227651D01*
X52795472Y-93227651D02*
X52734996Y-93348603D01*
X52734996Y-93348603D02*
X52674519Y-93409080D01*
X52674519Y-93409080D02*
X52553567Y-93469556D01*
X52553567Y-93469556D02*
X52069757Y-93469556D01*
X54004996Y-94074318D02*
X53279281Y-94074318D01*
X53642138Y-94074318D02*
X53642138Y-92804318D01*
X53642138Y-92804318D02*
X53521186Y-92985746D01*
X53521186Y-92985746D02*
X53400234Y-93106699D01*
X53400234Y-93106699D02*
X53279281Y-93167175D01*
X54488805Y-92925270D02*
X54549281Y-92864794D01*
X54549281Y-92864794D02*
X54670234Y-92804318D01*
X54670234Y-92804318D02*
X54972615Y-92804318D01*
X54972615Y-92804318D02*
X55093567Y-92864794D01*
X55093567Y-92864794D02*
X55154043Y-92925270D01*
X55154043Y-92925270D02*
X55214520Y-93046222D01*
X55214520Y-93046222D02*
X55214520Y-93167175D01*
X55214520Y-93167175D02*
X55154043Y-93348603D01*
X55154043Y-93348603D02*
X54428329Y-94074318D01*
X54428329Y-94074318D02*
X55214520Y-94074318D01*
X72288333Y-67074318D02*
X71864999Y-66469556D01*
X71562618Y-67074318D02*
X71562618Y-65804318D01*
X71562618Y-65804318D02*
X72046428Y-65804318D01*
X72046428Y-65804318D02*
X72167380Y-65864794D01*
X72167380Y-65864794D02*
X72227857Y-65925270D01*
X72227857Y-65925270D02*
X72288333Y-66046222D01*
X72288333Y-66046222D02*
X72288333Y-66227651D01*
X72288333Y-66227651D02*
X72227857Y-66348603D01*
X72227857Y-66348603D02*
X72167380Y-66409080D01*
X72167380Y-66409080D02*
X72046428Y-66469556D01*
X72046428Y-66469556D02*
X71562618Y-66469556D01*
X72711666Y-65804318D02*
X73497857Y-65804318D01*
X73497857Y-65804318D02*
X73074523Y-66288127D01*
X73074523Y-66288127D02*
X73255952Y-66288127D01*
X73255952Y-66288127D02*
X73376904Y-66348603D01*
X73376904Y-66348603D02*
X73437380Y-66409080D01*
X73437380Y-66409080D02*
X73497857Y-66530032D01*
X73497857Y-66530032D02*
X73497857Y-66832413D01*
X73497857Y-66832413D02*
X73437380Y-66953365D01*
X73437380Y-66953365D02*
X73376904Y-67013842D01*
X73376904Y-67013842D02*
X73255952Y-67074318D01*
X73255952Y-67074318D02*
X72893095Y-67074318D01*
X72893095Y-67074318D02*
X72772142Y-67013842D01*
X72772142Y-67013842D02*
X72711666Y-66953365D01*
X71588333Y-79974318D02*
X71164999Y-79369556D01*
X70862618Y-79974318D02*
X70862618Y-78704318D01*
X70862618Y-78704318D02*
X71346428Y-78704318D01*
X71346428Y-78704318D02*
X71467380Y-78764794D01*
X71467380Y-78764794D02*
X71527857Y-78825270D01*
X71527857Y-78825270D02*
X71588333Y-78946222D01*
X71588333Y-78946222D02*
X71588333Y-79127651D01*
X71588333Y-79127651D02*
X71527857Y-79248603D01*
X71527857Y-79248603D02*
X71467380Y-79309080D01*
X71467380Y-79309080D02*
X71346428Y-79369556D01*
X71346428Y-79369556D02*
X70862618Y-79369556D01*
X72314047Y-79248603D02*
X72193095Y-79188127D01*
X72193095Y-79188127D02*
X72132618Y-79127651D01*
X72132618Y-79127651D02*
X72072142Y-79006699D01*
X72072142Y-79006699D02*
X72072142Y-78946222D01*
X72072142Y-78946222D02*
X72132618Y-78825270D01*
X72132618Y-78825270D02*
X72193095Y-78764794D01*
X72193095Y-78764794D02*
X72314047Y-78704318D01*
X72314047Y-78704318D02*
X72555952Y-78704318D01*
X72555952Y-78704318D02*
X72676904Y-78764794D01*
X72676904Y-78764794D02*
X72737380Y-78825270D01*
X72737380Y-78825270D02*
X72797857Y-78946222D01*
X72797857Y-78946222D02*
X72797857Y-79006699D01*
X72797857Y-79006699D02*
X72737380Y-79127651D01*
X72737380Y-79127651D02*
X72676904Y-79188127D01*
X72676904Y-79188127D02*
X72555952Y-79248603D01*
X72555952Y-79248603D02*
X72314047Y-79248603D01*
X72314047Y-79248603D02*
X72193095Y-79309080D01*
X72193095Y-79309080D02*
X72132618Y-79369556D01*
X72132618Y-79369556D02*
X72072142Y-79490508D01*
X72072142Y-79490508D02*
X72072142Y-79732413D01*
X72072142Y-79732413D02*
X72132618Y-79853365D01*
X72132618Y-79853365D02*
X72193095Y-79913842D01*
X72193095Y-79913842D02*
X72314047Y-79974318D01*
X72314047Y-79974318D02*
X72555952Y-79974318D01*
X72555952Y-79974318D02*
X72676904Y-79913842D01*
X72676904Y-79913842D02*
X72737380Y-79853365D01*
X72737380Y-79853365D02*
X72797857Y-79732413D01*
X72797857Y-79732413D02*
X72797857Y-79490508D01*
X72797857Y-79490508D02*
X72737380Y-79369556D01*
X72737380Y-79369556D02*
X72676904Y-79309080D01*
X72676904Y-79309080D02*
X72555952Y-79248603D01*
X78679047Y-99695270D02*
X78558095Y-99634794D01*
X78558095Y-99634794D02*
X78437142Y-99513842D01*
X78437142Y-99513842D02*
X78255714Y-99332413D01*
X78255714Y-99332413D02*
X78134761Y-99271937D01*
X78134761Y-99271937D02*
X78013809Y-99271937D01*
X78074285Y-99574318D02*
X77953333Y-99513842D01*
X77953333Y-99513842D02*
X77832380Y-99392889D01*
X77832380Y-99392889D02*
X77771904Y-99150984D01*
X77771904Y-99150984D02*
X77771904Y-98727651D01*
X77771904Y-98727651D02*
X77832380Y-98485746D01*
X77832380Y-98485746D02*
X77953333Y-98364794D01*
X77953333Y-98364794D02*
X78074285Y-98304318D01*
X78074285Y-98304318D02*
X78316190Y-98304318D01*
X78316190Y-98304318D02*
X78437142Y-98364794D01*
X78437142Y-98364794D02*
X78558095Y-98485746D01*
X78558095Y-98485746D02*
X78618571Y-98727651D01*
X78618571Y-98727651D02*
X78618571Y-99150984D01*
X78618571Y-99150984D02*
X78558095Y-99392889D01*
X78558095Y-99392889D02*
X78437142Y-99513842D01*
X78437142Y-99513842D02*
X78316190Y-99574318D01*
X78316190Y-99574318D02*
X78074285Y-99574318D01*
X79828095Y-99574318D02*
X79102380Y-99574318D01*
X79465237Y-99574318D02*
X79465237Y-98304318D01*
X79465237Y-98304318D02*
X79344285Y-98485746D01*
X79344285Y-98485746D02*
X79223333Y-98606699D01*
X79223333Y-98606699D02*
X79102380Y-98667175D01*
X59988333Y-94474318D02*
X59564999Y-93869556D01*
X59262618Y-94474318D02*
X59262618Y-93204318D01*
X59262618Y-93204318D02*
X59746428Y-93204318D01*
X59746428Y-93204318D02*
X59867380Y-93264794D01*
X59867380Y-93264794D02*
X59927857Y-93325270D01*
X59927857Y-93325270D02*
X59988333Y-93446222D01*
X59988333Y-93446222D02*
X59988333Y-93627651D01*
X59988333Y-93627651D02*
X59927857Y-93748603D01*
X59927857Y-93748603D02*
X59867380Y-93809080D01*
X59867380Y-93809080D02*
X59746428Y-93869556D01*
X59746428Y-93869556D02*
X59262618Y-93869556D01*
X61076904Y-93627651D02*
X61076904Y-94474318D01*
X60774523Y-93143842D02*
X60472142Y-94050984D01*
X60472142Y-94050984D02*
X61258333Y-94050984D01*
X47200234Y-94274318D02*
X46776900Y-93669556D01*
X46474519Y-94274318D02*
X46474519Y-93004318D01*
X46474519Y-93004318D02*
X46958329Y-93004318D01*
X46958329Y-93004318D02*
X47079281Y-93064794D01*
X47079281Y-93064794D02*
X47139758Y-93125270D01*
X47139758Y-93125270D02*
X47200234Y-93246222D01*
X47200234Y-93246222D02*
X47200234Y-93427651D01*
X47200234Y-93427651D02*
X47139758Y-93548603D01*
X47139758Y-93548603D02*
X47079281Y-93609080D01*
X47079281Y-93609080D02*
X46958329Y-93669556D01*
X46958329Y-93669556D02*
X46474519Y-93669556D01*
X48288805Y-93004318D02*
X48046900Y-93004318D01*
X48046900Y-93004318D02*
X47925948Y-93064794D01*
X47925948Y-93064794D02*
X47865472Y-93125270D01*
X47865472Y-93125270D02*
X47744519Y-93306699D01*
X47744519Y-93306699D02*
X47684043Y-93548603D01*
X47684043Y-93548603D02*
X47684043Y-94032413D01*
X47684043Y-94032413D02*
X47744519Y-94153365D01*
X47744519Y-94153365D02*
X47804996Y-94213842D01*
X47804996Y-94213842D02*
X47925948Y-94274318D01*
X47925948Y-94274318D02*
X48167853Y-94274318D01*
X48167853Y-94274318D02*
X48288805Y-94213842D01*
X48288805Y-94213842D02*
X48349281Y-94153365D01*
X48349281Y-94153365D02*
X48409758Y-94032413D01*
X48409758Y-94032413D02*
X48409758Y-93730032D01*
X48409758Y-93730032D02*
X48349281Y-93609080D01*
X48349281Y-93609080D02*
X48288805Y-93548603D01*
X48288805Y-93548603D02*
X48167853Y-93488127D01*
X48167853Y-93488127D02*
X47925948Y-93488127D01*
X47925948Y-93488127D02*
X47804996Y-93548603D01*
X47804996Y-93548603D02*
X47744519Y-93609080D01*
X47744519Y-93609080D02*
X47684043Y-93730032D01*
X91788333Y-57953365D02*
X91727857Y-58013842D01*
X91727857Y-58013842D02*
X91546428Y-58074318D01*
X91546428Y-58074318D02*
X91425476Y-58074318D01*
X91425476Y-58074318D02*
X91244047Y-58013842D01*
X91244047Y-58013842D02*
X91123095Y-57892889D01*
X91123095Y-57892889D02*
X91062618Y-57771937D01*
X91062618Y-57771937D02*
X91002142Y-57530032D01*
X91002142Y-57530032D02*
X91002142Y-57348603D01*
X91002142Y-57348603D02*
X91062618Y-57106699D01*
X91062618Y-57106699D02*
X91123095Y-56985746D01*
X91123095Y-56985746D02*
X91244047Y-56864794D01*
X91244047Y-56864794D02*
X91425476Y-56804318D01*
X91425476Y-56804318D02*
X91546428Y-56804318D01*
X91546428Y-56804318D02*
X91727857Y-56864794D01*
X91727857Y-56864794D02*
X91788333Y-56925270D01*
X92393095Y-58074318D02*
X92634999Y-58074318D01*
X92634999Y-58074318D02*
X92755952Y-58013842D01*
X92755952Y-58013842D02*
X92816428Y-57953365D01*
X92816428Y-57953365D02*
X92937380Y-57771937D01*
X92937380Y-57771937D02*
X92997857Y-57530032D01*
X92997857Y-57530032D02*
X92997857Y-57046222D01*
X92997857Y-57046222D02*
X92937380Y-56925270D01*
X92937380Y-56925270D02*
X92876904Y-56864794D01*
X92876904Y-56864794D02*
X92755952Y-56804318D01*
X92755952Y-56804318D02*
X92514047Y-56804318D01*
X92514047Y-56804318D02*
X92393095Y-56864794D01*
X92393095Y-56864794D02*
X92332618Y-56925270D01*
X92332618Y-56925270D02*
X92272142Y-57046222D01*
X92272142Y-57046222D02*
X92272142Y-57348603D01*
X92272142Y-57348603D02*
X92332618Y-57469556D01*
X92332618Y-57469556D02*
X92393095Y-57530032D01*
X92393095Y-57530032D02*
X92514047Y-57590508D01*
X92514047Y-57590508D02*
X92755952Y-57590508D01*
X92755952Y-57590508D02*
X92876904Y-57530032D01*
X92876904Y-57530032D02*
X92937380Y-57469556D01*
X92937380Y-57469556D02*
X92997857Y-57348603D01*
X79656667Y-50409080D02*
X79233333Y-50409080D01*
X79233333Y-51074318D02*
X79233333Y-49804318D01*
X79233333Y-49804318D02*
X79838095Y-49804318D01*
X80987143Y-51074318D02*
X80261428Y-51074318D01*
X80624285Y-51074318D02*
X80624285Y-49804318D01*
X80624285Y-49804318D02*
X80503333Y-49985746D01*
X80503333Y-49985746D02*
X80382381Y-50106699D01*
X80382381Y-50106699D02*
X80261428Y-50167175D01*
X66588333Y-82253365D02*
X66527857Y-82313842D01*
X66527857Y-82313842D02*
X66346428Y-82374318D01*
X66346428Y-82374318D02*
X66225476Y-82374318D01*
X66225476Y-82374318D02*
X66044047Y-82313842D01*
X66044047Y-82313842D02*
X65923095Y-82192889D01*
X65923095Y-82192889D02*
X65862618Y-82071937D01*
X65862618Y-82071937D02*
X65802142Y-81830032D01*
X65802142Y-81830032D02*
X65802142Y-81648603D01*
X65802142Y-81648603D02*
X65862618Y-81406699D01*
X65862618Y-81406699D02*
X65923095Y-81285746D01*
X65923095Y-81285746D02*
X66044047Y-81164794D01*
X66044047Y-81164794D02*
X66225476Y-81104318D01*
X66225476Y-81104318D02*
X66346428Y-81104318D01*
X66346428Y-81104318D02*
X66527857Y-81164794D01*
X66527857Y-81164794D02*
X66588333Y-81225270D01*
X67737380Y-81104318D02*
X67132618Y-81104318D01*
X67132618Y-81104318D02*
X67072142Y-81709080D01*
X67072142Y-81709080D02*
X67132618Y-81648603D01*
X67132618Y-81648603D02*
X67253571Y-81588127D01*
X67253571Y-81588127D02*
X67555952Y-81588127D01*
X67555952Y-81588127D02*
X67676904Y-81648603D01*
X67676904Y-81648603D02*
X67737380Y-81709080D01*
X67737380Y-81709080D02*
X67797857Y-81830032D01*
X67797857Y-81830032D02*
X67797857Y-82132413D01*
X67797857Y-82132413D02*
X67737380Y-82253365D01*
X67737380Y-82253365D02*
X67676904Y-82313842D01*
X67676904Y-82313842D02*
X67555952Y-82374318D01*
X67555952Y-82374318D02*
X67253571Y-82374318D01*
X67253571Y-82374318D02*
X67132618Y-82313842D01*
X67132618Y-82313842D02*
X67072142Y-82253365D01*
X67988333Y-94386219D02*
X67564999Y-93781457D01*
X67262618Y-94386219D02*
X67262618Y-93116219D01*
X67262618Y-93116219D02*
X67746428Y-93116219D01*
X67746428Y-93116219D02*
X67867380Y-93176695D01*
X67867380Y-93176695D02*
X67927857Y-93237171D01*
X67927857Y-93237171D02*
X67988333Y-93358123D01*
X67988333Y-93358123D02*
X67988333Y-93539552D01*
X67988333Y-93539552D02*
X67927857Y-93660504D01*
X67927857Y-93660504D02*
X67867380Y-93720981D01*
X67867380Y-93720981D02*
X67746428Y-93781457D01*
X67746428Y-93781457D02*
X67262618Y-93781457D01*
X69137380Y-93116219D02*
X68532618Y-93116219D01*
X68532618Y-93116219D02*
X68472142Y-93720981D01*
X68472142Y-93720981D02*
X68532618Y-93660504D01*
X68532618Y-93660504D02*
X68653571Y-93600028D01*
X68653571Y-93600028D02*
X68955952Y-93600028D01*
X68955952Y-93600028D02*
X69076904Y-93660504D01*
X69076904Y-93660504D02*
X69137380Y-93720981D01*
X69137380Y-93720981D02*
X69197857Y-93841933D01*
X69197857Y-93841933D02*
X69197857Y-94144314D01*
X69197857Y-94144314D02*
X69137380Y-94265266D01*
X69137380Y-94265266D02*
X69076904Y-94325743D01*
X69076904Y-94325743D02*
X68955952Y-94386219D01*
X68955952Y-94386219D02*
X68653571Y-94386219D01*
X68653571Y-94386219D02*
X68532618Y-94325743D01*
X68532618Y-94325743D02*
X68472142Y-94265266D01*
X67595472Y-88074318D02*
X67172138Y-87469556D01*
X66869757Y-88074318D02*
X66869757Y-86804318D01*
X66869757Y-86804318D02*
X67353567Y-86804318D01*
X67353567Y-86804318D02*
X67474519Y-86864794D01*
X67474519Y-86864794D02*
X67534996Y-86925270D01*
X67534996Y-86925270D02*
X67595472Y-87046222D01*
X67595472Y-87046222D02*
X67595472Y-87227651D01*
X67595472Y-87227651D02*
X67534996Y-87348603D01*
X67534996Y-87348603D02*
X67474519Y-87409080D01*
X67474519Y-87409080D02*
X67353567Y-87469556D01*
X67353567Y-87469556D02*
X66869757Y-87469556D01*
X68804996Y-88074318D02*
X68079281Y-88074318D01*
X68442138Y-88074318D02*
X68442138Y-86804318D01*
X68442138Y-86804318D02*
X68321186Y-86985746D01*
X68321186Y-86985746D02*
X68200234Y-87106699D01*
X68200234Y-87106699D02*
X68079281Y-87167175D01*
X69591186Y-86804318D02*
X69712139Y-86804318D01*
X69712139Y-86804318D02*
X69833091Y-86864794D01*
X69833091Y-86864794D02*
X69893567Y-86925270D01*
X69893567Y-86925270D02*
X69954043Y-87046222D01*
X69954043Y-87046222D02*
X70014520Y-87288127D01*
X70014520Y-87288127D02*
X70014520Y-87590508D01*
X70014520Y-87590508D02*
X69954043Y-87832413D01*
X69954043Y-87832413D02*
X69893567Y-87953365D01*
X69893567Y-87953365D02*
X69833091Y-88013842D01*
X69833091Y-88013842D02*
X69712139Y-88074318D01*
X69712139Y-88074318D02*
X69591186Y-88074318D01*
X69591186Y-88074318D02*
X69470234Y-88013842D01*
X69470234Y-88013842D02*
X69409758Y-87953365D01*
X69409758Y-87953365D02*
X69349281Y-87832413D01*
X69349281Y-87832413D02*
X69288805Y-87590508D01*
X69288805Y-87590508D02*
X69288805Y-87288127D01*
X69288805Y-87288127D02*
X69349281Y-87046222D01*
X69349281Y-87046222D02*
X69409758Y-86925270D01*
X69409758Y-86925270D02*
X69470234Y-86864794D01*
X69470234Y-86864794D02*
X69591186Y-86804318D01*
X55260237Y-75574318D02*
X55260237Y-74304318D01*
X56590714Y-75453365D02*
X56530238Y-75513842D01*
X56530238Y-75513842D02*
X56348809Y-75574318D01*
X56348809Y-75574318D02*
X56227857Y-75574318D01*
X56227857Y-75574318D02*
X56046428Y-75513842D01*
X56046428Y-75513842D02*
X55925476Y-75392889D01*
X55925476Y-75392889D02*
X55864999Y-75271937D01*
X55864999Y-75271937D02*
X55804523Y-75030032D01*
X55804523Y-75030032D02*
X55804523Y-74848603D01*
X55804523Y-74848603D02*
X55864999Y-74606699D01*
X55864999Y-74606699D02*
X55925476Y-74485746D01*
X55925476Y-74485746D02*
X56046428Y-74364794D01*
X56046428Y-74364794D02*
X56227857Y-74304318D01*
X56227857Y-74304318D02*
X56348809Y-74304318D01*
X56348809Y-74304318D02*
X56530238Y-74364794D01*
X56530238Y-74364794D02*
X56590714Y-74425270D01*
X57800238Y-75574318D02*
X57074523Y-75574318D01*
X57437380Y-75574318D02*
X57437380Y-74304318D01*
X57437380Y-74304318D02*
X57316428Y-74485746D01*
X57316428Y-74485746D02*
X57195476Y-74606699D01*
X57195476Y-74606699D02*
X57074523Y-74667175D01*
X60379047Y-61695270D02*
X60258095Y-61634794D01*
X60258095Y-61634794D02*
X60137142Y-61513842D01*
X60137142Y-61513842D02*
X59955714Y-61332413D01*
X59955714Y-61332413D02*
X59834761Y-61271937D01*
X59834761Y-61271937D02*
X59713809Y-61271937D01*
X59774285Y-61574318D02*
X59653333Y-61513842D01*
X59653333Y-61513842D02*
X59532380Y-61392889D01*
X59532380Y-61392889D02*
X59471904Y-61150984D01*
X59471904Y-61150984D02*
X59471904Y-60727651D01*
X59471904Y-60727651D02*
X59532380Y-60485746D01*
X59532380Y-60485746D02*
X59653333Y-60364794D01*
X59653333Y-60364794D02*
X59774285Y-60304318D01*
X59774285Y-60304318D02*
X60016190Y-60304318D01*
X60016190Y-60304318D02*
X60137142Y-60364794D01*
X60137142Y-60364794D02*
X60258095Y-60485746D01*
X60258095Y-60485746D02*
X60318571Y-60727651D01*
X60318571Y-60727651D02*
X60318571Y-61150984D01*
X60318571Y-61150984D02*
X60258095Y-61392889D01*
X60258095Y-61392889D02*
X60137142Y-61513842D01*
X60137142Y-61513842D02*
X60016190Y-61574318D01*
X60016190Y-61574318D02*
X59774285Y-61574318D01*
X60802380Y-60425270D02*
X60862856Y-60364794D01*
X60862856Y-60364794D02*
X60983809Y-60304318D01*
X60983809Y-60304318D02*
X61286190Y-60304318D01*
X61286190Y-60304318D02*
X61407142Y-60364794D01*
X61407142Y-60364794D02*
X61467618Y-60425270D01*
X61467618Y-60425270D02*
X61528095Y-60546222D01*
X61528095Y-60546222D02*
X61528095Y-60667175D01*
X61528095Y-60667175D02*
X61467618Y-60848603D01*
X61467618Y-60848603D02*
X60741904Y-61574318D01*
X60741904Y-61574318D02*
X61528095Y-61574318D01*
X70176432Y-100574318D02*
X69753098Y-99969556D01*
X69450717Y-100574318D02*
X69450717Y-99304318D01*
X69450717Y-99304318D02*
X69934527Y-99304318D01*
X69934527Y-99304318D02*
X70055479Y-99364794D01*
X70055479Y-99364794D02*
X70115956Y-99425270D01*
X70115956Y-99425270D02*
X70176432Y-99546222D01*
X70176432Y-99546222D02*
X70176432Y-99727651D01*
X70176432Y-99727651D02*
X70115956Y-99848603D01*
X70115956Y-99848603D02*
X70055479Y-99909080D01*
X70055479Y-99909080D02*
X69934527Y-99969556D01*
X69934527Y-99969556D02*
X69450717Y-99969556D01*
X70599765Y-99304318D02*
X71446432Y-99304318D01*
X71446432Y-99304318D02*
X70902146Y-100574318D01*
X56788333Y-87453365D02*
X56727857Y-87513842D01*
X56727857Y-87513842D02*
X56546428Y-87574318D01*
X56546428Y-87574318D02*
X56425476Y-87574318D01*
X56425476Y-87574318D02*
X56244047Y-87513842D01*
X56244047Y-87513842D02*
X56123095Y-87392889D01*
X56123095Y-87392889D02*
X56062618Y-87271937D01*
X56062618Y-87271937D02*
X56002142Y-87030032D01*
X56002142Y-87030032D02*
X56002142Y-86848603D01*
X56002142Y-86848603D02*
X56062618Y-86606699D01*
X56062618Y-86606699D02*
X56123095Y-86485746D01*
X56123095Y-86485746D02*
X56244047Y-86364794D01*
X56244047Y-86364794D02*
X56425476Y-86304318D01*
X56425476Y-86304318D02*
X56546428Y-86304318D01*
X56546428Y-86304318D02*
X56727857Y-86364794D01*
X56727857Y-86364794D02*
X56788333Y-86425270D01*
X57876904Y-86304318D02*
X57634999Y-86304318D01*
X57634999Y-86304318D02*
X57514047Y-86364794D01*
X57514047Y-86364794D02*
X57453571Y-86425270D01*
X57453571Y-86425270D02*
X57332618Y-86606699D01*
X57332618Y-86606699D02*
X57272142Y-86848603D01*
X57272142Y-86848603D02*
X57272142Y-87332413D01*
X57272142Y-87332413D02*
X57332618Y-87453365D01*
X57332618Y-87453365D02*
X57393095Y-87513842D01*
X57393095Y-87513842D02*
X57514047Y-87574318D01*
X57514047Y-87574318D02*
X57755952Y-87574318D01*
X57755952Y-87574318D02*
X57876904Y-87513842D01*
X57876904Y-87513842D02*
X57937380Y-87453365D01*
X57937380Y-87453365D02*
X57997857Y-87332413D01*
X57997857Y-87332413D02*
X57997857Y-87030032D01*
X57997857Y-87030032D02*
X57937380Y-86909080D01*
X57937380Y-86909080D02*
X57876904Y-86848603D01*
X57876904Y-86848603D02*
X57755952Y-86788127D01*
X57755952Y-86788127D02*
X57514047Y-86788127D01*
X57514047Y-86788127D02*
X57393095Y-86848603D01*
X57393095Y-86848603D02*
X57332618Y-86909080D01*
X57332618Y-86909080D02*
X57272142Y-87030032D01*
X70788333Y-71853365D02*
X70727857Y-71913842D01*
X70727857Y-71913842D02*
X70546428Y-71974318D01*
X70546428Y-71974318D02*
X70425476Y-71974318D01*
X70425476Y-71974318D02*
X70244047Y-71913842D01*
X70244047Y-71913842D02*
X70123095Y-71792889D01*
X70123095Y-71792889D02*
X70062618Y-71671937D01*
X70062618Y-71671937D02*
X70002142Y-71430032D01*
X70002142Y-71430032D02*
X70002142Y-71248603D01*
X70002142Y-71248603D02*
X70062618Y-71006699D01*
X70062618Y-71006699D02*
X70123095Y-70885746D01*
X70123095Y-70885746D02*
X70244047Y-70764794D01*
X70244047Y-70764794D02*
X70425476Y-70704318D01*
X70425476Y-70704318D02*
X70546428Y-70704318D01*
X70546428Y-70704318D02*
X70727857Y-70764794D01*
X70727857Y-70764794D02*
X70788333Y-70825270D01*
X71876904Y-71127651D02*
X71876904Y-71974318D01*
X71574523Y-70643842D02*
X71272142Y-71550984D01*
X71272142Y-71550984D02*
X72058333Y-71550984D01*
X58753333Y-99874404D02*
X58692857Y-99934881D01*
X58692857Y-99934881D02*
X58511428Y-99995357D01*
X58511428Y-99995357D02*
X58390476Y-99995357D01*
X58390476Y-99995357D02*
X58209047Y-99934881D01*
X58209047Y-99934881D02*
X58088095Y-99813928D01*
X58088095Y-99813928D02*
X58027618Y-99692976D01*
X58027618Y-99692976D02*
X57967142Y-99451071D01*
X57967142Y-99451071D02*
X57967142Y-99269642D01*
X57967142Y-99269642D02*
X58027618Y-99027738D01*
X58027618Y-99027738D02*
X58088095Y-98906785D01*
X58088095Y-98906785D02*
X58209047Y-98785833D01*
X58209047Y-98785833D02*
X58390476Y-98725357D01*
X58390476Y-98725357D02*
X58511428Y-98725357D01*
X58511428Y-98725357D02*
X58692857Y-98785833D01*
X58692857Y-98785833D02*
X58753333Y-98846309D01*
X59297618Y-99995357D02*
X59297618Y-98725357D01*
X59297618Y-98725357D02*
X59781428Y-98725357D01*
X59781428Y-98725357D02*
X59902380Y-98785833D01*
X59902380Y-98785833D02*
X59962857Y-98846309D01*
X59962857Y-98846309D02*
X60023333Y-98967261D01*
X60023333Y-98967261D02*
X60023333Y-99148690D01*
X60023333Y-99148690D02*
X59962857Y-99269642D01*
X59962857Y-99269642D02*
X59902380Y-99330119D01*
X59902380Y-99330119D02*
X59781428Y-99390595D01*
X59781428Y-99390595D02*
X59297618Y-99390595D01*
X61232857Y-99995357D02*
X60507142Y-99995357D01*
X60869999Y-99995357D02*
X60869999Y-98725357D01*
X60869999Y-98725357D02*
X60749047Y-98906785D01*
X60749047Y-98906785D02*
X60628095Y-99027738D01*
X60628095Y-99027738D02*
X60507142Y-99088214D01*
X73588333Y-87874318D02*
X73164999Y-87269556D01*
X72862618Y-87874318D02*
X72862618Y-86604318D01*
X72862618Y-86604318D02*
X73346428Y-86604318D01*
X73346428Y-86604318D02*
X73467380Y-86664794D01*
X73467380Y-86664794D02*
X73527857Y-86725270D01*
X73527857Y-86725270D02*
X73588333Y-86846222D01*
X73588333Y-86846222D02*
X73588333Y-87027651D01*
X73588333Y-87027651D02*
X73527857Y-87148603D01*
X73527857Y-87148603D02*
X73467380Y-87209080D01*
X73467380Y-87209080D02*
X73346428Y-87269556D01*
X73346428Y-87269556D02*
X72862618Y-87269556D01*
X74193095Y-87874318D02*
X74434999Y-87874318D01*
X74434999Y-87874318D02*
X74555952Y-87813842D01*
X74555952Y-87813842D02*
X74616428Y-87753365D01*
X74616428Y-87753365D02*
X74737380Y-87571937D01*
X74737380Y-87571937D02*
X74797857Y-87330032D01*
X74797857Y-87330032D02*
X74797857Y-86846222D01*
X74797857Y-86846222D02*
X74737380Y-86725270D01*
X74737380Y-86725270D02*
X74676904Y-86664794D01*
X74676904Y-86664794D02*
X74555952Y-86604318D01*
X74555952Y-86604318D02*
X74314047Y-86604318D01*
X74314047Y-86604318D02*
X74193095Y-86664794D01*
X74193095Y-86664794D02*
X74132618Y-86725270D01*
X74132618Y-86725270D02*
X74072142Y-86846222D01*
X74072142Y-86846222D02*
X74072142Y-87148603D01*
X74072142Y-87148603D02*
X74132618Y-87269556D01*
X74132618Y-87269556D02*
X74193095Y-87330032D01*
X74193095Y-87330032D02*
X74314047Y-87390508D01*
X74314047Y-87390508D02*
X74555952Y-87390508D01*
X74555952Y-87390508D02*
X74676904Y-87330032D01*
X74676904Y-87330032D02*
X74737380Y-87269556D01*
X74737380Y-87269556D02*
X74797857Y-87148603D01*
X87788333Y-57953365D02*
X87727857Y-58013842D01*
X87727857Y-58013842D02*
X87546428Y-58074318D01*
X87546428Y-58074318D02*
X87425476Y-58074318D01*
X87425476Y-58074318D02*
X87244047Y-58013842D01*
X87244047Y-58013842D02*
X87123095Y-57892889D01*
X87123095Y-57892889D02*
X87062618Y-57771937D01*
X87062618Y-57771937D02*
X87002142Y-57530032D01*
X87002142Y-57530032D02*
X87002142Y-57348603D01*
X87002142Y-57348603D02*
X87062618Y-57106699D01*
X87062618Y-57106699D02*
X87123095Y-56985746D01*
X87123095Y-56985746D02*
X87244047Y-56864794D01*
X87244047Y-56864794D02*
X87425476Y-56804318D01*
X87425476Y-56804318D02*
X87546428Y-56804318D01*
X87546428Y-56804318D02*
X87727857Y-56864794D01*
X87727857Y-56864794D02*
X87788333Y-56925270D01*
X88514047Y-57348603D02*
X88393095Y-57288127D01*
X88393095Y-57288127D02*
X88332618Y-57227651D01*
X88332618Y-57227651D02*
X88272142Y-57106699D01*
X88272142Y-57106699D02*
X88272142Y-57046222D01*
X88272142Y-57046222D02*
X88332618Y-56925270D01*
X88332618Y-56925270D02*
X88393095Y-56864794D01*
X88393095Y-56864794D02*
X88514047Y-56804318D01*
X88514047Y-56804318D02*
X88755952Y-56804318D01*
X88755952Y-56804318D02*
X88876904Y-56864794D01*
X88876904Y-56864794D02*
X88937380Y-56925270D01*
X88937380Y-56925270D02*
X88997857Y-57046222D01*
X88997857Y-57046222D02*
X88997857Y-57106699D01*
X88997857Y-57106699D02*
X88937380Y-57227651D01*
X88937380Y-57227651D02*
X88876904Y-57288127D01*
X88876904Y-57288127D02*
X88755952Y-57348603D01*
X88755952Y-57348603D02*
X88514047Y-57348603D01*
X88514047Y-57348603D02*
X88393095Y-57409080D01*
X88393095Y-57409080D02*
X88332618Y-57469556D01*
X88332618Y-57469556D02*
X88272142Y-57590508D01*
X88272142Y-57590508D02*
X88272142Y-57832413D01*
X88272142Y-57832413D02*
X88332618Y-57953365D01*
X88332618Y-57953365D02*
X88393095Y-58013842D01*
X88393095Y-58013842D02*
X88514047Y-58074318D01*
X88514047Y-58074318D02*
X88755952Y-58074318D01*
X88755952Y-58074318D02*
X88876904Y-58013842D01*
X88876904Y-58013842D02*
X88937380Y-57953365D01*
X88937380Y-57953365D02*
X88997857Y-57832413D01*
X88997857Y-57832413D02*
X88997857Y-57590508D01*
X88997857Y-57590508D02*
X88937380Y-57469556D01*
X88937380Y-57469556D02*
X88876904Y-57409080D01*
X88876904Y-57409080D02*
X88755952Y-57348603D01*
X69862618Y-92374318D02*
X69862618Y-91104318D01*
X69862618Y-91104318D02*
X70164999Y-91104318D01*
X70164999Y-91104318D02*
X70346428Y-91164794D01*
X70346428Y-91164794D02*
X70467380Y-91285746D01*
X70467380Y-91285746D02*
X70527857Y-91406699D01*
X70527857Y-91406699D02*
X70588333Y-91648603D01*
X70588333Y-91648603D02*
X70588333Y-91830032D01*
X70588333Y-91830032D02*
X70527857Y-92071937D01*
X70527857Y-92071937D02*
X70467380Y-92192889D01*
X70467380Y-92192889D02*
X70346428Y-92313842D01*
X70346428Y-92313842D02*
X70164999Y-92374318D01*
X70164999Y-92374318D02*
X69862618Y-92374318D01*
X71797857Y-92374318D02*
X71072142Y-92374318D01*
X71434999Y-92374318D02*
X71434999Y-91104318D01*
X71434999Y-91104318D02*
X71314047Y-91285746D01*
X71314047Y-91285746D02*
X71193095Y-91406699D01*
X71193095Y-91406699D02*
X71072142Y-91467175D01*
D13*
%TO.C,L1*%
X84400000Y-71700000D02*
X84400000Y-83700000D01*
X96400000Y-83700000D02*
X96400000Y-71700000D01*
D14*
%TO.C,C2*%
X55600000Y-80700000D02*
X55600000Y-82100000D01*
%TO.C,C1*%
X75200000Y-57900000D02*
X75200000Y-60900000D01*
D15*
%TO.C,J1*%
X104650000Y-71825000D02*
X111440000Y-71825000D01*
X104650000Y-83875000D02*
X104650000Y-71825000D01*
D11*
X108340000Y-71250000D02*
X108340000Y-71250000D01*
X108340000Y-71350000D02*
X108340000Y-71350000D01*
D15*
X111440000Y-71825000D02*
X111440000Y-83875000D01*
X111440000Y-83875000D02*
X104650000Y-83875000D01*
D11*
X108340000Y-71250000D02*
G75*
G02*
X108340000Y-71350000I0J-50000D01*
G01*
X108340000Y-71350000D02*
G75*
G02*
X108340000Y-71250000I0J50000D01*
G01*
D14*
%TO.C,R14*%
X45100000Y-86800000D02*
X46500000Y-86800000D01*
%TO.C,C7*%
X84950000Y-61400000D02*
X82650000Y-61400000D01*
%TO.C,R1*%
X76400000Y-93500000D02*
X76400000Y-92100000D01*
%TO.C,D2*%
X76890000Y-86100000D02*
X80400000Y-86100000D01*
X77600000Y-87900000D02*
X80400000Y-87900000D01*
D13*
%TO.C,J7*%
X105005000Y-89350000D02*
X109935000Y-89350000D01*
X105005000Y-95700000D02*
X105005000Y-89350000D01*
X109935000Y-89350000D02*
X109935000Y-95700000D01*
X109935000Y-95700000D02*
X105005000Y-95700000D01*
D14*
X110840000Y-92600000D02*
G75*
G02*
X110640000Y-92600000I-100000J0D01*
G01*
X110640000Y-92600000D02*
G75*
G02*
X110840000Y-92600000I100000J0D01*
G01*
%TO.C,R2*%
X47200000Y-80000000D02*
X47200000Y-81400000D01*
D12*
%TO.C,U1*%
X84900000Y-88000000D02*
X84900000Y-95550000D01*
X84900000Y-95550000D02*
X96400000Y-95550000D01*
X96400000Y-88000000D02*
X84900000Y-88000000D01*
X96400000Y-95550000D02*
X96400000Y-88000000D01*
X94183000Y-87387000D02*
G75*
G02*
X94005000Y-87387000I-89000J0D01*
G01*
X94005000Y-87387000D02*
G75*
G02*
X94183000Y-87387000I89000J0D01*
G01*
D14*
%TO.C,D3*%
X76500000Y-67710000D02*
X76500000Y-64200000D01*
X78300000Y-67000000D02*
X78300000Y-64200000D01*
%TO.C,Z1*%
X96000000Y-64125000D02*
X96000000Y-60475000D01*
X97600000Y-63125000D02*
X97600000Y-60475000D01*
%TO.C,R12*%
X53600000Y-91900000D02*
X53600000Y-90500000D01*
%TO.C,R3*%
X73400000Y-64300000D02*
X73400000Y-64900000D01*
%TO.C,R8*%
X71000000Y-76500000D02*
X71000000Y-77900000D01*
%TO.C,Q1*%
X80100000Y-94700000D02*
X81400000Y-94700000D01*
X81750000Y-94740000D02*
X81850000Y-94740000D01*
X81750000Y-97660000D02*
X81750000Y-94740000D01*
X81850000Y-94740000D02*
X81850000Y-97660000D01*
X81850000Y-97660000D02*
X81750000Y-97660000D01*
%TO.C,R4*%
X59600000Y-92500000D02*
X59600000Y-91100000D01*
%TO.C,R6*%
X47400000Y-92100000D02*
X47400000Y-90700000D01*
%TO.C,C9*%
X93150000Y-61400000D02*
X90850000Y-61400000D01*
%TO.C,F1*%
X63680000Y-47120000D02*
X96480000Y-47120000D01*
X63680000Y-50500000D02*
X51500000Y-50500000D01*
X63680000Y-53880000D02*
X63680000Y-47120000D01*
X96480000Y-47120000D02*
X96480000Y-53880000D01*
X96480000Y-53880000D02*
X63680000Y-53880000D01*
X108800000Y-50500000D02*
X96500000Y-50500000D01*
X110000000Y-49300000D02*
X110000000Y-49300000D01*
X110100000Y-49300000D02*
X110100000Y-49300000D01*
X110100000Y-49300000D02*
X110100000Y-49300000D01*
X110000000Y-49300000D02*
G75*
G02*
X110100000Y-49300000I50000J0D01*
G01*
X110000000Y-49300000D02*
G75*
G02*
X110100000Y-49300000I50000J0D01*
G01*
X110100000Y-49300000D02*
G75*
G02*
X110000000Y-49300000I-50000J0D01*
G01*
%TO.C,R5*%
X64900000Y-93800000D02*
X66300000Y-93800000D01*
%TO.C,R10*%
X68400000Y-85900000D02*
X68400000Y-84500000D01*
%TO.C,IC1*%
X59575000Y-71950000D02*
X59575000Y-71950000D01*
X59575000Y-72150000D02*
X59575000Y-72150000D01*
D15*
X61075000Y-71700000D02*
X65475000Y-71700000D01*
X61075000Y-78200000D02*
X61075000Y-71700000D01*
X65475000Y-71700000D02*
X65475000Y-78200000D01*
X65475000Y-78200000D02*
X61075000Y-78200000D01*
D14*
X59575000Y-71950000D02*
G75*
G02*
X59575000Y-72150000I0J-100000D01*
G01*
X59575000Y-72150000D02*
G75*
G02*
X59575000Y-71950000I0J100000D01*
G01*
D15*
%TO.C,Q2*%
X62900000Y-57980000D02*
X62900000Y-64080000D01*
X62900000Y-64080000D02*
X69500000Y-64080000D01*
D14*
X63600000Y-68390000D02*
X63600000Y-68390000D01*
X63800000Y-68390000D02*
X63800000Y-68390000D01*
D15*
X69500000Y-64080000D02*
X69500000Y-57980000D01*
D14*
X63600000Y-68390000D02*
G75*
G02*
X63800000Y-68390000I100000J0D01*
G01*
X63800000Y-68390000D02*
G75*
G02*
X63600000Y-68390000I-100000J0D01*
G01*
%TO.C,R7*%
X70400000Y-96900000D02*
X70400000Y-98300000D01*
%TO.C,C6*%
X62300000Y-86200000D02*
X60900000Y-86200000D01*
X62300000Y-87800000D02*
X60900000Y-87800000D01*
X64000000Y-86900000D02*
X64000000Y-86900000D01*
X64000000Y-87100000D02*
X64000000Y-87100000D01*
X64000000Y-86900000D02*
G75*
G02*
X64000000Y-87100000I0J-100000D01*
G01*
X64000000Y-87100000D02*
G75*
G02*
X64000000Y-86900000I0J100000D01*
G01*
%TO.C,CP1*%
X59225000Y-95150000D02*
X59975000Y-95150000D01*
X59225000Y-98050000D02*
X59225000Y-95150000D01*
X59975000Y-95150000D02*
X59975000Y-98050000D01*
X59975000Y-98050000D02*
X59225000Y-98050000D01*
X61475000Y-98100000D02*
X60325000Y-98100000D01*
%TO.C,R9*%
X73800000Y-84500000D02*
X73800000Y-85900000D01*
%TO.C,C8*%
X89150000Y-61400000D02*
X86850000Y-61400000D01*
%TO.C,D1*%
X71575000Y-89175000D02*
X74100000Y-89175000D01*
X72400000Y-90425000D02*
X74100000Y-90425000D01*
%TD*%
M02*
