solid CATIA STL
  facet normal  1.162241e-02  9.997754e-01  1.772291e-02
    outer loop
      vertex -3.263698e+02  4.908456e+01  4.063770e+01
      vertex -3.263881e+02  4.751897e+01  1.289664e+02
      vertex -3.246197e+02  4.908675e+01  3.936645e+01
    endloop
  endfacet
  facet normal  1.162390e-02  9.997754e-01  1.772294e-02
    outer loop
      vertex -3.154732e+02  4.714697e+01  1.427930e+02
      vertex -3.154481e+02  4.930902e+01  2.081211e+01
      vertex -3.239705e+02  4.743187e+01  1.322946e+02
    endloop
  endfacet
  facet normal  1.162409e-02  9.997754e-01  1.772279e-02
    outer loop
      vertex -3.154732e+02  4.714697e+01  1.427930e+02
      vertex -3.239705e+02  4.743187e+01  1.322946e+02
      vertex -3.246393e+02  4.740318e+01  1.343515e+02
    endloop
  endfacet
  facet normal  1.162441e-02  9.997754e-01  1.772243e-02
    outer loop
      vertex -3.154732e+02  4.714697e+01  1.427930e+02
      vertex -3.246393e+02  4.740318e+01  1.343515e+02
      vertex -3.263894e+02  4.740099e+01  1.356228e+02
    endloop
  endfacet
  facet normal  1.162316e-02  9.997754e-01  1.772434e-02
    outer loop
      vertex -3.154732e+02  4.714697e+01  1.427930e+02
      vertex -3.263894e+02  4.740099e+01  1.356228e+02
      vertex -3.285524e+02  4.742614e+01  1.356228e+02
    endloop
  endfacet
  facet normal  1.162411e-02  9.997754e-01  1.772260e-02
    outer loop
      vertex -3.154732e+02  4.714697e+01  1.427930e+02
      vertex -3.285524e+02  4.742614e+01  1.356228e+02
      vertex -3.394716e+02  4.742599e+01  1.427930e+02
    endloop
  endfacet
  facet normal  1.162410e-02  9.997754e-01  1.772292e-02
    outer loop
      vertex -3.154481e+02  4.930902e+01  2.081211e+01
      vertex -3.394464e+02  4.958804e+01  2.081211e+01
      vertex -3.285314e+02  4.922769e+01  3.398135e+01
    endloop
  endfacet
  facet normal  1.162509e-02  9.997754e-01  1.772391e-02
    outer loop
      vertex -3.154481e+02  4.930902e+01  2.081211e+01
      vertex -3.285314e+02  4.922769e+01  3.398135e+01
      vertex -3.263685e+02  4.920254e+01  3.398135e+01
    endloop
  endfacet
  facet normal  1.162392e-02  9.997754e-01  1.772294e-02
    outer loop
      vertex -3.154481e+02  4.930902e+01  2.081211e+01
      vertex -3.263685e+02  4.920254e+01  3.398135e+01
      vertex -3.246189e+02  4.915966e+01  3.525260e+01
    endloop
  endfacet
  facet normal  1.162318e-02  9.997754e-01  1.772247e-02
    outer loop
      vertex -3.154481e+02  4.930902e+01  2.081211e+01
      vertex -3.246189e+02  4.915966e+01  3.525260e+01
      vertex -3.239509e+02  4.911543e+01  3.730952e+01
    endloop
  endfacet
  facet normal  1.162256e-02  9.997753e-01  1.772215e-02
    outer loop
      vertex -3.154481e+02  4.930902e+01  2.081211e+01
      vertex -3.239509e+02  4.911543e+01  3.730952e+01
      vertex -3.246197e+02  4.908675e+01  3.936645e+01
    endloop
  endfacet
  facet normal  1.162417e-02  9.997754e-01  1.772295e-02
    outer loop
      vertex -3.154481e+02  4.930902e+01  2.081211e+01
      vertex -3.246197e+02  4.908675e+01  3.936645e+01
      vertex -3.263881e+02  4.751897e+01  1.289664e+02
    endloop
  endfacet
  facet normal  1.162385e-02  9.997754e-01  1.772291e-02
    outer loop
      vertex -3.154481e+02  4.930902e+01  2.081211e+01
      vertex -3.263881e+02  4.751897e+01  1.289664e+02
      vertex -3.246384e+02  4.747610e+01  1.302377e+02
    endloop
  endfacet
  facet normal  1.162660e-02  9.997754e-01  1.772314e-02
    outer loop
      vertex -3.154481e+02  4.930902e+01  2.081211e+01
      vertex -3.246384e+02  4.747610e+01  1.302377e+02
      vertex -3.239705e+02  4.743187e+01  1.322946e+02
    endloop
  endfacet
  facet normal  1.162490e-02  9.997754e-01  1.772288e-02
    outer loop
      vertex -3.394464e+02  4.958804e+01  2.081211e+01
      vertex -3.309700e+02  4.751325e+01  1.322946e+02
      vertex -3.303012e+02  4.754193e+01  1.302377e+02
    endloop
  endfacet
  facet normal  1.162455e-02  9.997754e-01  1.772291e-02
    outer loop
      vertex -3.394464e+02  4.958804e+01  2.081211e+01
      vertex -3.303012e+02  4.754193e+01  1.302377e+02
      vertex -3.285510e+02  4.754412e+01  1.289664e+02
    endloop
  endfacet
  facet normal  1.162417e-02  9.997754e-01  1.772295e-02
    outer loop
      vertex -3.394464e+02  4.958804e+01  2.081211e+01
      vertex -3.285510e+02  4.754412e+01  1.289664e+02
      vertex -3.302824e+02  4.915258e+01  3.936645e+01
    endloop
  endfacet
  facet normal  1.162909e-02  9.997754e-01  1.772051e-02
    outer loop
      vertex -3.394464e+02  4.958804e+01  2.081211e+01
      vertex -3.302824e+02  4.915258e+01  3.936645e+01
      vertex -3.309504e+02  4.919681e+01  3.730952e+01
    endloop
  endfacet
  facet normal  1.162437e-02  9.997753e-01  1.772294e-02
    outer loop
      vertex -3.394464e+02  4.958804e+01  2.081211e+01
      vertex -3.309504e+02  4.919681e+01  3.730952e+01
      vertex -3.302816e+02  4.922550e+01  3.525260e+01
    endloop
  endfacet
  facet normal  1.162310e-02  9.997754e-01  1.772375e-02
    outer loop
      vertex -3.394464e+02  4.958804e+01  2.081211e+01
      vertex -3.302816e+02  4.922550e+01  3.525260e+01
      vertex -3.285314e+02  4.922769e+01  3.398135e+01
    endloop
  endfacet
  facet normal  1.162419e-02  9.997754e-01  1.772272e-02
    outer loop
      vertex -3.394716e+02  4.742599e+01  1.427930e+02
      vertex -3.285524e+02  4.742614e+01  1.356228e+02
      vertex -3.303020e+02  4.746902e+01  1.343515e+02
    endloop
  endfacet
  facet normal  1.162504e-02  9.997752e-01  1.772365e-02
    outer loop
      vertex -3.394716e+02  4.742599e+01  1.427930e+02
      vertex -3.303020e+02  4.746902e+01  1.343515e+02
      vertex -3.309700e+02  4.751325e+01  1.322946e+02
    endloop
  endfacet
  facet normal  1.162416e-02  9.997754e-01  1.772293e-02
    outer loop
      vertex -3.394716e+02  4.742599e+01  1.427930e+02
      vertex -3.309700e+02  4.751325e+01  1.322946e+02
      vertex -3.394464e+02  4.958804e+01  2.081211e+01
    endloop
  endfacet
  facet normal  1.162335e-02  9.997754e-01  1.772291e-02
    outer loop
      vertex -3.263881e+02  4.751897e+01  1.289664e+02
      vertex -3.263698e+02  4.908456e+01  4.063770e+01
      vertex -3.285510e+02  4.754412e+01  1.289664e+02
    endloop
  endfacet
  facet normal  1.162510e-02  9.997754e-01  1.772296e-02
    outer loop
      vertex -3.285510e+02  4.754412e+01  1.289664e+02
      vertex -3.263698e+02  4.908456e+01  4.063770e+01
      vertex -3.285328e+02  4.910971e+01  4.063770e+01
    endloop
  endfacet
  facet normal  1.162374e-02  9.997754e-01  1.772295e-02
    outer loop
      vertex -3.285510e+02  4.754412e+01  1.289664e+02
      vertex -3.285328e+02  4.910971e+01  4.063770e+01
      vertex -3.302824e+02  4.915258e+01  3.936645e+01
    endloop
  endfacet
  facet normal -1.162396e-02 -9.997754e-01 -1.772295e-02
    outer loop
      vertex -3.286026e+02  4.311105e+01  4.053136e+01
      vertex -3.286208e+02  4.154547e+01  1.288601e+02
      vertex -3.303522e+02  4.315393e+01  3.926011e+01
    endloop
  endfacet
  facet normal -1.162412e-02 -9.997754e-01 -1.772292e-02
    outer loop
      vertex -3.395413e+02  4.142734e+01  1.426866e+02
      vertex -3.395154e+02  4.366027e+01  1.670640e+01
      vertex -3.310397e+02  4.151460e+01  1.321883e+02
    endloop
  endfacet
  facet normal -1.162341e-02 -9.997754e-01 -1.772233e-02
    outer loop
      vertex -3.395413e+02  4.142734e+01  1.426866e+02
      vertex -3.310397e+02  4.151460e+01  1.321883e+02
      vertex -3.303718e+02  4.147037e+01  1.342452e+02
    endloop
  endfacet
  facet normal -1.162390e-02 -9.997754e-01 -1.772285e-02
    outer loop
      vertex -3.395413e+02  4.142734e+01  1.426866e+02
      vertex -3.303718e+02  4.147037e+01  1.342452e+02
      vertex -3.286221e+02  4.142749e+01  1.355164e+02
    endloop
  endfacet
  facet normal -1.162509e-02 -9.997753e-01 -1.772467e-02
    outer loop
      vertex -3.395413e+02  4.142734e+01  1.426866e+02
      vertex -3.286221e+02  4.142749e+01  1.355164e+02
      vertex -3.264592e+02  4.140234e+01  1.355164e+02
    endloop
  endfacet
  facet normal -1.162410e-02 -9.997753e-01 -1.772286e-02
    outer loop
      vertex -3.395413e+02  4.142734e+01  1.426866e+02
      vertex -3.264592e+02  4.140234e+01  1.355164e+02
      vertex -3.155429e+02  4.114832e+01  1.426866e+02
    endloop
  endfacet
  facet normal -1.162394e-02 -9.997754e-01 -1.772306e-02
    outer loop
      vertex -3.395154e+02  4.366027e+01  1.670640e+01
      vertex -3.155170e+02  4.338126e+01  1.670640e+01
      vertex -3.264382e+02  4.320388e+01  3.387501e+01
    endloop
  endfacet
  facet normal -1.162509e-02 -9.997754e-01 -1.772219e-02
    outer loop
      vertex -3.395154e+02  4.366027e+01  1.670640e+01
      vertex -3.264382e+02  4.320388e+01  3.387501e+01
      vertex -3.286012e+02  4.322903e+01  3.387501e+01
    endloop
  endfacet
  facet normal -1.162444e-02 -9.997754e-01 -1.772260e-02
    outer loop
      vertex -3.395154e+02  4.366027e+01  1.670640e+01
      vertex -3.286012e+02  4.322903e+01  3.387501e+01
      vertex -3.303513e+02  4.322685e+01  3.514626e+01
    endloop
  endfacet
  facet normal -1.162424e-02 -9.997753e-01 -1.772269e-02
    outer loop
      vertex -3.395154e+02  4.366027e+01  1.670640e+01
      vertex -3.303513e+02  4.322685e+01  3.514626e+01
      vertex -3.310201e+02  4.319816e+01  3.720319e+01
    endloop
  endfacet
  facet normal -1.161001e-02 -9.997755e-01 -1.772860e-02
    outer loop
      vertex -3.395154e+02  4.366027e+01  1.670640e+01
      vertex -3.310201e+02  4.319816e+01  3.720319e+01
      vertex -3.303522e+02  4.315393e+01  3.926011e+01
    endloop
  endfacet
  facet normal -1.162390e-02 -9.997755e-01 -1.772295e-02
    outer loop
      vertex -3.395154e+02  4.366027e+01  1.670640e+01
      vertex -3.303522e+02  4.315393e+01  3.926011e+01
      vertex -3.286208e+02  4.154547e+01  1.288601e+02
    endloop
  endfacet
  facet normal -1.162454e-02 -9.997754e-01 -1.772289e-02
    outer loop
      vertex -3.395154e+02  4.366027e+01  1.670640e+01
      vertex -3.286208e+02  4.154547e+01  1.288601e+02
      vertex -3.303709e+02  4.154328e+01  1.301313e+02
    endloop
  endfacet
  facet normal -1.162443e-02 -9.997754e-01 -1.772290e-02
    outer loop
      vertex -3.395154e+02  4.366027e+01  1.670640e+01
      vertex -3.303709e+02  4.154328e+01  1.301313e+02
      vertex -3.310397e+02  4.151460e+01  1.321883e+02
    endloop
  endfacet
  facet normal -1.162658e-02 -9.997754e-01 -1.772315e-02
    outer loop
      vertex -3.155170e+02  4.338126e+01  1.670640e+01
      vertex -3.240402e+02  4.143321e+01  1.321883e+02
      vertex -3.247082e+02  4.147744e+01  1.301313e+02
    endloop
  endfacet
  facet normal -1.162384e-02 -9.997754e-01 -1.772293e-02
    outer loop
      vertex -3.155170e+02  4.338126e+01  1.670640e+01
      vertex -3.247082e+02  4.147744e+01  1.301313e+02
      vertex -3.264578e+02  4.152032e+01  1.288601e+02
    endloop
  endfacet
  facet normal -1.162395e-02 -9.997753e-01 -1.772294e-02
    outer loop
      vertex -3.155170e+02  4.338126e+01  1.670640e+01
      vertex -3.264578e+02  4.152032e+01  1.288601e+02
      vertex -3.246895e+02  4.308809e+01  3.926011e+01
    endloop
  endfacet
  facet normal -1.162232e-02 -9.997754e-01 -1.772228e-02
    outer loop
      vertex -3.155170e+02  4.338126e+01  1.670640e+01
      vertex -3.246895e+02  4.308809e+01  3.926011e+01
      vertex -3.240206e+02  4.311678e+01  3.720319e+01
    endloop
  endfacet
  facet normal -1.162291e-02 -9.997754e-01 -1.772252e-02
    outer loop
      vertex -3.155170e+02  4.338126e+01  1.670640e+01
      vertex -3.240206e+02  4.311678e+01  3.720319e+01
      vertex -3.246886e+02  4.316101e+01  3.514626e+01
    endloop
  endfacet
  facet normal -1.162373e-02 -9.997754e-01 -1.772293e-02
    outer loop
      vertex -3.155170e+02  4.338126e+01  1.670640e+01
      vertex -3.246886e+02  4.316101e+01  3.514626e+01
      vertex -3.264382e+02  4.320388e+01  3.387501e+01
    endloop
  endfacet
  facet normal -1.162430e-02 -9.997754e-01 -1.772256e-02
    outer loop
      vertex -3.155429e+02  4.114832e+01  1.426866e+02
      vertex -3.264592e+02  4.140234e+01  1.355164e+02
      vertex -3.247090e+02  4.140453e+01  1.342452e+02
    endloop
  endfacet
  facet normal -1.162409e-02 -9.997754e-01 -1.772279e-02
    outer loop
      vertex -3.155429e+02  4.114832e+01  1.426866e+02
      vertex -3.247090e+02  4.140453e+01  1.342452e+02
      vertex -3.240402e+02  4.143321e+01  1.321883e+02
    endloop
  endfacet
  facet normal -1.162388e-02 -9.997754e-01 -1.772295e-02
    outer loop
      vertex -3.155429e+02  4.114832e+01  1.426866e+02
      vertex -3.240402e+02  4.143321e+01  1.321883e+02
      vertex -3.155170e+02  4.338126e+01  1.670640e+01
    endloop
  endfacet
  facet normal -1.162335e-02 -9.997754e-01 -1.772295e-02
    outer loop
      vertex -3.286208e+02  4.154547e+01  1.288601e+02
      vertex -3.286026e+02  4.311105e+01  4.053136e+01
      vertex -3.264578e+02  4.152032e+01  1.288601e+02
    endloop
  endfacet
  facet normal -1.162318e-02 -9.997754e-01 -1.772295e-02
    outer loop
      vertex -3.264578e+02  4.152032e+01  1.288601e+02
      vertex -3.286026e+02  4.311105e+01  4.053136e+01
      vertex -3.264396e+02  4.308591e+01  4.053136e+01
    endloop
  endfacet
  facet normal -1.162491e-02 -9.997754e-01 -1.772295e-02
    outer loop
      vertex -3.264578e+02  4.152032e+01  1.288601e+02
      vertex -3.264396e+02  4.308591e+01  4.053136e+01
      vertex -3.246895e+02  4.308809e+01  3.926011e+01
    endloop
  endfacet
  facet normal -5.875740e-01  2.116969e-02 -8.088934e-01
    outer loop
      vertex -3.264592e+02  4.140234e+01  1.355164e+02
      vertex -3.246393e+02  4.740318e+01  1.343515e+02
      vertex -3.247090e+02  4.140453e+01  1.342452e+02
    endloop
  endfacet
  facet normal -9.509283e-01  1.653140e-02 -3.089695e-01
    outer loop
      vertex -3.247090e+02  4.140453e+01  1.342452e+02
      vertex -3.246393e+02  4.740318e+01  1.343515e+02
      vertex -3.239705e+02  4.743187e+01  1.322946e+02
    endloop
  endfacet
  facet normal -9.509283e-01  1.653140e-02 -3.089695e-01
    outer loop
      vertex -3.247090e+02  4.140453e+01  1.342452e+02
      vertex -3.239705e+02  4.743187e+01  1.322946e+02
      vertex -3.240402e+02  4.143321e+01  1.321883e+02
    endloop
  endfacet
  facet normal -5.875806e-01  2.117267e-02 -8.088885e-01
    outer loop
      vertex -3.246393e+02  4.740318e+01  1.343515e+02
      vertex -3.264592e+02  4.140234e+01  1.355164e+02
      vertex -3.263894e+02  4.740099e+01  1.356228e+02
    endloop
  endfacet
  facet normal  2.060659e-04  1.772188e-02 -9.998429e-01
    outer loop
      vertex -3.263894e+02  4.740099e+01  1.356228e+02
      vertex -3.264592e+02  4.140234e+01  1.355164e+02
      vertex -3.286221e+02  4.142749e+01  1.355164e+02
    endloop
  endfacet
  facet normal  2.060310e-04  1.772190e-02 -9.998429e-01
    outer loop
      vertex -3.263894e+02  4.740099e+01  1.356228e+02
      vertex -3.286221e+02  4.142749e+01  1.355164e+02
      vertex -3.285524e+02  4.742614e+01  1.356228e+02
    endloop
  endfacet
  facet normal  5.879062e-01  7.505078e-03 -8.088943e-01
    outer loop
      vertex -3.285524e+02  4.742614e+01  1.356228e+02
      vertex -3.286221e+02  4.142749e+01  1.355164e+02
      vertex -3.303718e+02  4.147037e+01  1.342452e+02
    endloop
  endfacet
  facet normal  5.879129e-01  7.501923e-03 -8.088894e-01
    outer loop
      vertex -3.285524e+02  4.742614e+01  1.356228e+02
      vertex -3.303718e+02  4.147037e+01  1.342452e+02
      vertex -3.303020e+02  4.746902e+01  1.343515e+02
    endloop
  endfacet
  facet normal  9.510564e-01 -5.583535e-03 -3.089666e-01
    outer loop
      vertex -3.303020e+02  4.746902e+01  1.343515e+02
      vertex -3.303718e+02  4.147037e+01  1.342452e+02
      vertex -3.310397e+02  4.151460e+01  1.321883e+02
    endloop
  endfacet
  facet normal  9.510564e-01 -5.583532e-03 -3.089667e-01
    outer loop
      vertex -3.303020e+02  4.746902e+01  1.343515e+02
      vertex -3.310397e+02  4.151460e+01  1.321883e+02
      vertex -3.309700e+02  4.751325e+01  1.322946e+02
    endloop
  endfacet
  facet normal  5.875740e-01 -2.116969e-02  8.088934e-01
    outer loop
      vertex -3.286208e+02  4.154547e+01  1.288601e+02
      vertex -3.303012e+02  4.754193e+01  1.302377e+02
      vertex -3.303709e+02  4.154328e+01  1.301313e+02
    endloop
  endfacet
  facet normal  9.509324e-01 -1.653122e-02  3.089567e-01
    outer loop
      vertex -3.303709e+02  4.154328e+01  1.301313e+02
      vertex -3.303012e+02  4.754193e+01  1.302377e+02
      vertex -3.309700e+02  4.751325e+01  1.322946e+02
    endloop
  endfacet
  facet normal  9.509283e-01 -1.653623e-02  3.089694e-01
    outer loop
      vertex -3.303709e+02  4.154328e+01  1.301313e+02
      vertex -3.309700e+02  4.751325e+01  1.322946e+02
      vertex -3.310397e+02  4.151460e+01  1.321883e+02
    endloop
  endfacet
  facet normal  5.875740e-01 -2.116969e-02  8.088934e-01
    outer loop
      vertex -3.303012e+02  4.754193e+01  1.302377e+02
      vertex -3.286208e+02  4.154547e+01  1.288601e+02
      vertex -3.285510e+02  4.754412e+01  1.289664e+02
    endloop
  endfacet
  facet normal -2.060338e-04 -1.772188e-02  9.998429e-01
    outer loop
      vertex -3.285510e+02  4.754412e+01  1.289664e+02
      vertex -3.286208e+02  4.154547e+01  1.288601e+02
      vertex -3.264578e+02  4.152032e+01  1.288601e+02
    endloop
  endfacet
  facet normal -2.060338e-04 -1.772188e-02  9.998429e-01
    outer loop
      vertex -3.285510e+02  4.754412e+01  1.289664e+02
      vertex -3.264578e+02  4.152032e+01  1.288601e+02
      vertex -3.263881e+02  4.751897e+01  1.289664e+02
    endloop
  endfacet
  facet normal -5.879063e-01 -7.505072e-03  8.088943e-01
    outer loop
      vertex -3.263881e+02  4.751897e+01  1.289664e+02
      vertex -3.264578e+02  4.152032e+01  1.288601e+02
      vertex -3.247082e+02  4.147744e+01  1.301313e+02
    endloop
  endfacet
  facet normal -5.879063e-01 -7.505072e-03  8.088943e-01
    outer loop
      vertex -3.263881e+02  4.751897e+01  1.289664e+02
      vertex -3.247082e+02  4.147744e+01  1.301313e+02
      vertex -3.246384e+02  4.747610e+01  1.302377e+02
    endloop
  endfacet
  facet normal -9.510565e-01  5.578696e-03  3.089666e-01
    outer loop
      vertex -3.246384e+02  4.747610e+01  1.302377e+02
      vertex -3.247082e+02  4.147744e+01  1.301313e+02
      vertex -3.240402e+02  4.143321e+01  1.321883e+02
    endloop
  endfacet
  facet normal -9.510565e-01  5.578696e-03  3.089666e-01
    outer loop
      vertex -3.246384e+02  4.747610e+01  1.302377e+02
      vertex -3.240402e+02  4.143321e+01  1.321883e+02
      vertex -3.239705e+02  4.743187e+01  1.322946e+02
    endloop
  endfacet
  facet normal -5.875841e-01  2.117266e-02 -8.088860e-01
    outer loop
      vertex -3.264396e+02  4.308591e+01  4.053136e+01
      vertex -3.246197e+02  4.908675e+01  3.936645e+01
      vertex -3.246895e+02  4.308809e+01  3.926011e+01
    endloop
  endfacet
  facet normal -9.509322e-01  1.653606e-02 -3.089571e-01
    outer loop
      vertex -3.246895e+02  4.308809e+01  3.926011e+01
      vertex -3.246197e+02  4.908675e+01  3.936645e+01
      vertex -3.239509e+02  4.911543e+01  3.730952e+01
    endloop
  endfacet
  facet normal -9.509279e-01  1.653121e-02 -3.089705e-01
    outer loop
      vertex -3.246895e+02  4.308809e+01  3.926011e+01
      vertex -3.239509e+02  4.911543e+01  3.730952e+01
      vertex -3.240206e+02  4.311678e+01  3.720319e+01
    endloop
  endfacet
  facet normal -5.875763e-01  2.116918e-02 -8.088918e-01
    outer loop
      vertex -3.246197e+02  4.908675e+01  3.936645e+01
      vertex -3.264396e+02  4.308591e+01  4.053136e+01
      vertex -3.263698e+02  4.908456e+01  4.063770e+01
    endloop
  endfacet
  facet normal  2.060219e-04  1.772126e-02 -9.998429e-01
    outer loop
      vertex -3.263698e+02  4.908456e+01  4.063770e+01
      vertex -3.264396e+02  4.308591e+01  4.053136e+01
      vertex -3.286026e+02  4.311105e+01  4.053136e+01
    endloop
  endfacet
  facet normal  2.060567e-04  1.772125e-02 -9.998429e-01
    outer loop
      vertex -3.263698e+02  4.908456e+01  4.063770e+01
      vertex -3.286026e+02  4.311105e+01  4.053136e+01
      vertex -3.285328e+02  4.910971e+01  4.063770e+01
    endloop
  endfacet
  facet normal  5.879164e-01  7.501320e-03 -8.088869e-01
    outer loop
      vertex -3.285328e+02  4.910971e+01  4.063770e+01
      vertex -3.286026e+02  4.311105e+01  4.053136e+01
      vertex -3.303522e+02  4.315393e+01  3.926011e+01
    endloop
  endfacet
  facet normal  5.879086e-01  7.505016e-03 -8.088926e-01
    outer loop
      vertex -3.285328e+02  4.910971e+01  4.063770e+01
      vertex -3.303522e+02  4.315393e+01  3.926011e+01
      vertex -3.302824e+02  4.915258e+01  3.936645e+01
    endloop
  endfacet
  facet normal  9.510561e-01 -5.578674e-03 -3.089676e-01
    outer loop
      vertex -3.302824e+02  4.915258e+01  3.936645e+01
      vertex -3.303522e+02  4.315393e+01  3.926011e+01
      vertex -3.310201e+02  4.319816e+01  3.720319e+01
    endloop
  endfacet
  facet normal  9.510563e-01 -5.578884e-03 -3.089671e-01
    outer loop
      vertex -3.302824e+02  4.915258e+01  3.936645e+01
      vertex -3.310201e+02  4.319816e+01  3.720319e+01
      vertex -3.309504e+02  4.919681e+01  3.730952e+01
    endloop
  endfacet
  facet normal  5.875775e-01 -2.117269e-02  8.088909e-01
    outer loop
      vertex -3.286012e+02  4.322903e+01  3.387501e+01
      vertex -3.302816e+02  4.922550e+01  3.525260e+01
      vertex -3.303513e+02  4.322685e+01  3.514626e+01
    endloop
  endfacet
  facet normal  9.509279e-01 -1.653626e-02  3.089704e-01
    outer loop
      vertex -3.303513e+02  4.322685e+01  3.514626e+01
      vertex -3.302816e+02  4.922550e+01  3.525260e+01
      vertex -3.309504e+02  4.919681e+01  3.730952e+01
    endloop
  endfacet
  facet normal  9.509323e-01 -1.653104e-02  3.089572e-01
    outer loop
      vertex -3.303513e+02  4.322685e+01  3.514626e+01
      vertex -3.309504e+02  4.919681e+01  3.730952e+01
      vertex -3.310201e+02  4.319816e+01  3.720319e+01
    endloop
  endfacet
  facet normal  5.875775e-01 -2.117267e-02  8.088909e-01
    outer loop
      vertex -3.302816e+02  4.922550e+01  3.525260e+01
      vertex -3.286012e+02  4.322903e+01  3.387501e+01
      vertex -3.285314e+02  4.922769e+01  3.398135e+01
    endloop
  endfacet
  facet normal -2.060613e-04 -1.772188e-02  9.998429e-01
    outer loop
      vertex -3.285314e+02  4.922769e+01  3.398135e+01
      vertex -3.286012e+02  4.322903e+01  3.387501e+01
      vertex -3.264382e+02  4.320388e+01  3.387501e+01
    endloop
  endfacet
  facet normal -2.060613e-04 -1.772188e-02  9.998429e-01
    outer loop
      vertex -3.285314e+02  4.922769e+01  3.398135e+01
      vertex -3.264382e+02  4.320388e+01  3.387501e+01
      vertex -3.263685e+02  4.920254e+01  3.398135e+01
    endloop
  endfacet
  facet normal -5.879097e-01 -7.501998e-03  8.088917e-01
    outer loop
      vertex -3.263685e+02  4.920254e+01  3.398135e+01
      vertex -3.264382e+02  4.320388e+01  3.387501e+01
      vertex -3.246886e+02  4.316101e+01  3.514626e+01
    endloop
  endfacet
  facet normal -5.879164e-01 -7.504824e-03  8.088869e-01
    outer loop
      vertex -3.263685e+02  4.920254e+01  3.398135e+01
      vertex -3.246886e+02  4.316101e+01  3.514626e+01
      vertex -3.246189e+02  4.915966e+01  3.525260e+01
    endloop
  endfacet
  facet normal -9.510564e-01  5.578685e-03  3.089671e-01
    outer loop
      vertex -3.246189e+02  4.915966e+01  3.525260e+01
      vertex -3.246886e+02  4.316101e+01  3.514626e+01
      vertex -3.240206e+02  4.311678e+01  3.720319e+01
    endloop
  endfacet
  facet normal -9.510561e-01  5.578870e-03  3.089676e-01
    outer loop
      vertex -3.246189e+02  4.915966e+01  3.525260e+01
      vertex -3.240206e+02  4.311678e+01  3.720319e+01
      vertex -3.239509e+02  4.911543e+01  3.730952e+01
    endloop
  endfacet
  facet normal  2.057066e-04  1.772142e-02 -9.998430e-01
    outer loop
      vertex -3.391666e+02  7.365353e+01  1.723809e+01
      vertex -3.282007e+02  6.438003e+01  1.707598e+01
      vertex -3.297133e+02  6.330790e+01  1.705667e+01
    endloop
  endfacet
  facet normal  2.060042e-04  1.772176e-02 -9.998429e-01
    outer loop
      vertex -3.151682e+02  7.337451e+01  1.723809e+01
      vertex -3.155170e+02  4.338126e+01  1.670640e+01
      vertex -3.248596e+02  6.325146e+01  1.705667e+01
    endloop
  endfacet
  facet normal  2.064038e-04  1.772138e-02 -9.998429e-01
    outer loop
      vertex -3.151682e+02  7.337451e+01  1.723809e+01
      vertex -3.248596e+02  6.325146e+01  1.705667e+01
      vertex -3.263468e+02  6.435847e+01  1.707598e+01
    endloop
  endfacet
  facet normal  2.060223e-04  1.772186e-02 -9.998430e-01
    outer loop
      vertex -3.151682e+02  7.337451e+01  1.723809e+01
      vertex -3.263468e+02  6.435847e+01  1.707598e+01
      vertex -3.282007e+02  6.438003e+01  1.707598e+01
    endloop
  endfacet
  facet normal  2.060462e-04  1.772182e-02 -9.998429e-01
    outer loop
      vertex -3.151682e+02  7.337451e+01  1.723809e+01
      vertex -3.282007e+02  6.438003e+01  1.707598e+01
      vertex -3.391666e+02  7.365353e+01  1.723809e+01
    endloop
  endfacet
  facet normal  2.060424e-04  1.772171e-02 -9.998429e-01
    outer loop
      vertex -3.155170e+02  4.338126e+01  1.670640e+01
      vertex -3.395154e+02  4.366027e+01  1.670640e+01
      vertex -3.282671e+02  5.867497e+01  1.697485e+01
    endloop
  endfacet
  facet normal  2.060573e-04  1.772173e-02 -9.998429e-01
    outer loop
      vertex -3.155170e+02  4.338126e+01  1.670640e+01
      vertex -3.282671e+02  5.867497e+01  1.697485e+01
      vertex -3.264131e+02  5.865342e+01  1.697485e+01
    endloop
  endfacet
  facet normal  2.065161e-04  1.772205e-02 -9.998430e-01
    outer loop
      vertex -3.155170e+02  4.338126e+01  1.670640e+01
      vertex -3.264131e+02  5.865342e+01  1.697485e+01
      vertex -3.249005e+02  5.972554e+01  1.699417e+01
    endloop
  endfacet
  facet normal  2.060006e-04  1.772176e-02 -9.998429e-01
    outer loop
      vertex -3.155170e+02  4.338126e+01  1.670640e+01
      vertex -3.249005e+02  5.972554e+01  1.699417e+01
      vertex -3.243071e+02  6.148185e+01  1.702542e+01
    endloop
  endfacet
  facet normal  2.061293e-04  1.772182e-02 -9.998429e-01
    outer loop
      vertex -3.155170e+02  4.338126e+01  1.670640e+01
      vertex -3.243071e+02  6.148185e+01  1.702542e+01
      vertex -3.248596e+02  6.325146e+01  1.705667e+01
    endloop
  endfacet
  facet normal  2.060810e-04  1.772176e-02 -9.998429e-01
    outer loop
      vertex -3.395154e+02  4.366027e+01  1.670640e+01
      vertex -3.391666e+02  7.365353e+01  1.723809e+01
      vertex -3.297133e+02  6.330790e+01  1.705667e+01
    endloop
  endfacet
  facet normal  2.060159e-04  1.772179e-02 -9.998430e-01
    outer loop
      vertex -3.395154e+02  4.366027e+01  1.670640e+01
      vertex -3.297133e+02  6.330790e+01  1.705667e+01
      vertex -3.303067e+02  6.155160e+01  1.702542e+01
    endloop
  endfacet
  facet normal  2.060677e-04  1.772176e-02 -9.998430e-01
    outer loop
      vertex -3.395154e+02  4.366027e+01  1.670640e+01
      vertex -3.303067e+02  6.155160e+01  1.702542e+01
      vertex -3.297543e+02  5.978198e+01  1.699417e+01
    endloop
  endfacet
  facet normal  2.055802e-04  1.772206e-02 -9.998429e-01
    outer loop
      vertex -3.395154e+02  4.366027e+01  1.670640e+01
      vertex -3.297543e+02  5.978198e+01  1.699417e+01
      vertex -3.282671e+02  5.867497e+01  1.697485e+01
    endloop
  endfacet
  facet normal -2.060472e-04 -1.772188e-02  9.998430e-01
    outer loop
      vertex -3.395413e+02  4.142734e+01  1.426866e+02
      vertex -3.155429e+02  4.114832e+01  1.426866e+02
      vertex -3.394716e+02  4.742599e+01  1.427930e+02
    endloop
  endfacet
  facet normal -2.060474e-04 -1.772188e-02  9.998429e-01
    outer loop
      vertex -3.394716e+02  4.742599e+01  1.427930e+02
      vertex -3.155429e+02  4.114832e+01  1.426866e+02
      vertex -3.154732e+02  4.714697e+01  1.427930e+02
    endloop
  endfacet
  facet normal  9.999325e-01 -1.162394e-02  1.043377e-07
    outer loop
      vertex -3.155429e+02  4.114832e+01  1.426866e+02
      vertex -3.155170e+02  4.338126e+01  1.670640e+01
      vertex -3.154732e+02  4.714697e+01  1.427930e+02
    endloop
  endfacet
  facet normal  9.999324e-01 -1.162402e-02  1.069138e-07
    outer loop
      vertex -3.154732e+02  4.714697e+01  1.427930e+02
      vertex -3.155170e+02  4.338126e+01  1.670640e+01
      vertex -3.154481e+02  4.930902e+01  2.081211e+01
    endloop
  endfacet
  facet normal  9.999324e-01 -1.162603e-02  2.996128e-06
    outer loop
      vertex -3.155170e+02  4.338126e+01  1.670640e+01
      vertex -3.151682e+02  7.337451e+01  1.723809e+01
      vertex -3.154481e+02  4.930902e+01  2.081211e+01
    endloop
  endfacet
  facet normal  9.999324e-01 -1.162648e-02 -5.463759e-08
    outer loop
      vertex -3.154481e+02  4.930902e+01  2.081211e+01
      vertex -3.151682e+02  7.337451e+01  1.723809e+01
      vertex -3.151691e+02  7.330363e+01  2.123746e+01
    endloop
  endfacet
  facet normal -9.999324e-01  1.162902e-02  2.317822e-07
    outer loop
      vertex -3.394716e+02  4.742599e+01  1.427930e+02
      vertex -3.394464e+02  4.958804e+01  2.081211e+01
      vertex -3.395413e+02  4.142734e+01  1.426866e+02
    endloop
  endfacet
  facet normal -9.999324e-01  1.162401e-02 -1.033225e-07
    outer loop
      vertex -3.395413e+02  4.142734e+01  1.426866e+02
      vertex -3.394464e+02  4.958804e+01  2.081211e+01
      vertex -3.395154e+02  4.366027e+01  1.670640e+01
    endloop
  endfacet
  facet normal -9.999323e-01  1.162655e-02 -3.765027e-06
    outer loop
      vertex -3.394464e+02  4.958804e+01  2.081211e+01
      vertex -3.391674e+02  7.358265e+01  2.123746e+01
      vertex -3.395154e+02  4.366027e+01  1.670640e+01
    endloop
  endfacet
  facet normal -9.999323e-01  1.162597e-02  4.768371e-08
    outer loop
      vertex -3.395154e+02  4.366027e+01  1.670640e+01
      vertex -3.391674e+02  7.358265e+01  2.123746e+01
      vertex -3.391666e+02  7.365353e+01  1.723809e+01
    endloop
  endfacet
  facet normal -2.063679e-04 -1.772220e-02  9.998430e-01
    outer loop
      vertex -3.297141e+02  6.323701e+01  2.105604e+01
      vertex -3.282016e+02  6.430914e+01  2.107536e+01
      vertex -3.391674e+02  7.358265e+01  2.123746e+01
    endloop
  endfacet
  facet normal -2.060464e-04 -1.772182e-02  9.998429e-01
    outer loop
      vertex -3.151691e+02  7.330363e+01  2.123746e+01
      vertex -3.391674e+02  7.358265e+01  2.123746e+01
      vertex -3.282016e+02  6.430914e+01  2.107536e+01
    endloop
  endfacet
  facet normal -2.060940e-04 -1.772175e-02  9.998429e-01
    outer loop
      vertex -3.151691e+02  7.330363e+01  2.123746e+01
      vertex -3.282016e+02  6.430914e+01  2.107536e+01
      vertex -3.263476e+02  6.428758e+01  2.107536e+01
    endloop
  endfacet
  facet normal -2.057066e-04 -1.772223e-02  9.998429e-01
    outer loop
      vertex -3.151691e+02  7.330363e+01  2.123746e+01
      vertex -3.263476e+02  6.428758e+01  2.107536e+01
      vertex -3.248604e+02  6.318058e+01  2.105604e+01
    endloop
  endfacet
  facet normal -2.061483e-04 -1.772181e-02  9.998429e-01
    outer loop
      vertex -3.151691e+02  7.330363e+01  2.123746e+01
      vertex -3.248604e+02  6.318058e+01  2.105604e+01
      vertex -3.154481e+02  4.930902e+01  2.081211e+01
    endloop
  endfacet
  facet normal -2.032615e-04 -1.771985e-02  9.998429e-01
    outer loop
      vertex -3.154481e+02  4.930902e+01  2.081211e+01
      vertex -3.248604e+02  6.318058e+01  2.105604e+01
      vertex -3.243080e+02  6.141096e+01  2.102479e+01
    endloop
  endfacet
  facet normal -2.059466e-04 -1.772181e-02  9.998429e-01
    outer loop
      vertex -3.154481e+02  4.930902e+01  2.081211e+01
      vertex -3.243080e+02  6.141096e+01  2.102479e+01
      vertex -3.249014e+02  5.965466e+01  2.099354e+01
    endloop
  endfacet
  facet normal -2.063685e-04 -1.772220e-02  9.998430e-01
    outer loop
      vertex -3.154481e+02  4.930902e+01  2.081211e+01
      vertex -3.249014e+02  5.965466e+01  2.099354e+01
      vertex -3.264139e+02  5.858253e+01  2.097422e+01
    endloop
  endfacet
  facet normal -2.060585e-04 -1.772183e-02  9.998429e-01
    outer loop
      vertex -3.154481e+02  4.930902e+01  2.081211e+01
      vertex -3.264139e+02  5.858253e+01  2.097422e+01
      vertex -3.282679e+02  5.860408e+01  2.097422e+01
    endloop
  endfacet
  facet normal -2.060467e-04 -1.772182e-02  9.998429e-01
    outer loop
      vertex -3.154481e+02  4.930902e+01  2.081211e+01
      vertex -3.282679e+02  5.860408e+01  2.097422e+01
      vertex -3.394464e+02  4.958804e+01  2.081211e+01
    endloop
  endfacet
  facet normal -2.057095e-04 -1.772223e-02  9.998430e-01
    outer loop
      vertex -3.394464e+02  4.958804e+01  2.081211e+01
      vertex -3.282679e+02  5.860408e+01  2.097422e+01
      vertex -3.297551e+02  5.971109e+01  2.099354e+01
    endloop
  endfacet
  facet normal -2.061679e-04 -1.772179e-02  9.998429e-01
    outer loop
      vertex -3.394464e+02  4.958804e+01  2.081211e+01
      vertex -3.297551e+02  5.971109e+01  2.099354e+01
      vertex -3.303076e+02  6.148071e+01  2.102479e+01
    endloop
  endfacet
  facet normal -2.088211e-04 -1.771976e-02  9.998430e-01
    outer loop
      vertex -3.394464e+02  4.958804e+01  2.081211e+01
      vertex -3.303076e+02  6.148071e+01  2.102479e+01
      vertex -3.297141e+02  6.323701e+01  2.105604e+01
    endloop
  endfacet
  facet normal -2.059421e-04 -1.772181e-02  9.998429e-01
    outer loop
      vertex -3.394464e+02  4.958804e+01  2.081211e+01
      vertex -3.297141e+02  6.323701e+01  2.105604e+01
      vertex -3.391674e+02  7.358265e+01  2.123746e+01
    endloop
  endfacet
  facet normal -5.971534e-01 -8.019988e-01 -1.433839e-02
    outer loop
      vertex -3.263476e+02  6.428758e+01  2.107536e+01
      vertex -3.248596e+02  6.325146e+01  1.705667e+01
      vertex -3.248604e+02  6.318058e+01  2.105604e+01
    endloop
  endfacet
  facet normal -9.545816e-01 -2.978989e-01 -5.476903e-03
    outer loop
      vertex -3.248604e+02  6.318058e+01  2.105604e+01
      vertex -3.248596e+02  6.325146e+01  1.705667e+01
      vertex -3.243071e+02  6.148185e+01  1.702542e+01
    endloop
  endfacet
  facet normal -9.545817e-01 -2.978990e-01 -5.476901e-03
    outer loop
      vertex -3.248604e+02  6.318058e+01  2.105604e+01
      vertex -3.243071e+02  6.148185e+01  1.702542e+01
      vertex -3.243080e+02  6.141096e+01  2.102479e+01
    endloop
  endfacet
  facet normal -5.971547e-01 -8.019978e-01 -1.433913e-02
    outer loop
      vertex -3.248596e+02  6.325146e+01  1.705667e+01
      vertex -3.263476e+02  6.428758e+01  2.107536e+01
      vertex -3.263468e+02  6.435847e+01  1.707598e+01
    endloop
  endfacet
  facet normal -1.162682e-02 -9.997754e-01 -1.772428e-02
    outer loop
      vertex -3.263468e+02  6.435847e+01  1.707598e+01
      vertex -3.263476e+02  6.428758e+01  2.107536e+01
      vertex -3.282016e+02  6.430914e+01  2.107536e+01
    endloop
  endfacet
  facet normal -1.162271e-02 -9.997754e-01 -1.772237e-02
    outer loop
      vertex -3.263468e+02  6.435847e+01  1.707598e+01
      vertex -3.282016e+02  6.430914e+01  2.107536e+01
      vertex -3.282007e+02  6.438003e+01  1.707598e+01
    endloop
  endfacet
  facet normal  5.783406e-01 -8.156695e-01 -1.433774e-02
    outer loop
      vertex -3.282007e+02  6.438003e+01  1.707598e+01
      vertex -3.282016e+02  6.430914e+01  2.107536e+01
      vertex -3.297141e+02  6.323701e+01  2.105604e+01
    endloop
  endfacet
  facet normal  5.783392e-01 -8.156704e-01 -1.433854e-02
    outer loop
      vertex -3.282007e+02  6.438003e+01  1.707598e+01
      vertex -3.297141e+02  6.323701e+01  2.105604e+01
      vertex -3.297133e+02  6.330790e+01  1.705667e+01
    endloop
  endfacet
  facet normal  9.473990e-01 -3.200077e-01 -5.476923e-03
    outer loop
      vertex -3.297133e+02  6.330790e+01  1.705667e+01
      vertex -3.297141e+02  6.323701e+01  2.105604e+01
      vertex -3.303076e+02  6.148071e+01  2.102479e+01
    endloop
  endfacet
  facet normal  9.473990e-01 -3.200077e-01 -5.476920e-03
    outer loop
      vertex -3.297133e+02  6.330790e+01  1.705667e+01
      vertex -3.303076e+02  6.148071e+01  2.102479e+01
      vertex -3.303067e+02  6.155160e+01  1.702542e+01
    endloop
  endfacet
  facet normal  5.971535e-01  8.019988e-01  1.433839e-02
    outer loop
      vertex -3.282679e+02  5.860408e+01  2.097422e+01
      vertex -3.297543e+02  5.978198e+01  1.699417e+01
      vertex -3.297551e+02  5.971109e+01  2.099354e+01
    endloop
  endfacet
  facet normal  9.545819e-01  2.978984e-01  5.476891e-03
    outer loop
      vertex -3.297551e+02  5.971109e+01  2.099354e+01
      vertex -3.297543e+02  5.978198e+01  1.699417e+01
      vertex -3.303067e+02  6.155160e+01  1.702542e+01
    endloop
  endfacet
  facet normal  9.545819e-01  2.978984e-01  5.476891e-03
    outer loop
      vertex -3.297551e+02  5.971109e+01  2.099354e+01
      vertex -3.303067e+02  6.155160e+01  1.702542e+01
      vertex -3.303076e+02  6.148071e+01  2.102479e+01
    endloop
  endfacet
  facet normal  5.971535e-01  8.019988e-01  1.433839e-02
    outer loop
      vertex -3.297543e+02  5.978198e+01  1.699417e+01
      vertex -3.282679e+02  5.860408e+01  2.097422e+01
      vertex -3.282671e+02  5.867497e+01  1.697485e+01
    endloop
  endfacet
  facet normal  1.162477e-02  9.997754e-01  1.772332e-02
    outer loop
      vertex -3.282671e+02  5.867497e+01  1.697485e+01
      vertex -3.282679e+02  5.860408e+01  2.097422e+01
      vertex -3.264139e+02  5.858253e+01  2.097422e+01
    endloop
  endfacet
  facet normal  1.162477e-02  9.997754e-01  1.772332e-02
    outer loop
      vertex -3.282671e+02  5.867497e+01  1.697485e+01
      vertex -3.264139e+02  5.858253e+01  2.097422e+01
      vertex -3.264131e+02  5.865342e+01  1.697485e+01
    endloop
  endfacet
  facet normal -5.783405e-01  8.156695e-01  1.433851e-02
    outer loop
      vertex -3.264131e+02  5.865342e+01  1.697485e+01
      vertex -3.264139e+02  5.858253e+01  2.097422e+01
      vertex -3.249014e+02  5.965466e+01  2.099354e+01
    endloop
  endfacet
  facet normal -5.783392e-01  8.156705e-01  1.433775e-02
    outer loop
      vertex -3.264131e+02  5.865342e+01  1.697485e+01
      vertex -3.249014e+02  5.965466e+01  2.099354e+01
      vertex -3.249005e+02  5.972554e+01  1.699417e+01
    endloop
  endfacet
  facet normal -9.473991e-01  3.200078e-01  5.476615e-03
    outer loop
      vertex -3.249005e+02  5.972554e+01  1.699417e+01
      vertex -3.249014e+02  5.965466e+01  2.099354e+01
      vertex -3.243080e+02  6.141096e+01  2.102479e+01
    endloop
  endfacet
  facet normal -9.473993e-01  3.200071e-01  5.476909e-03
    outer loop
      vertex -3.249005e+02  5.972554e+01  1.699417e+01
      vertex -3.243080e+02  6.141096e+01  2.102479e+01
      vertex -3.243071e+02  6.148185e+01  1.702542e+01
    endloop
  endfacet
  facet normal  1.162410e-02  9.997754e-01  1.772237e-02
    outer loop
      vertex -3.151691e+02  7.330363e+01  2.123746e+01
      vertex -3.151682e+02  7.337451e+01  1.723809e+01
      vertex -3.391674e+02  7.358265e+01  2.123746e+01
    endloop
  endfacet
  facet normal  1.162410e-02  9.997754e-01  1.772237e-02
    outer loop
      vertex -3.391674e+02  7.358265e+01  2.123746e+01
      vertex -3.151682e+02  7.337451e+01  1.723809e+01
      vertex -3.391666e+02  7.365353e+01  1.723809e+01
    endloop
  endfacet
endsolid CATIA STL
