%TF.GenerationSoftware,KiCad,Pcbnew,8.0.2*%
%TF.CreationDate,2024-06-16T16:44:20+02:00*%
%TF.ProjectId,AMS_IMD_Reset,414d535f-494d-4445-9f52-657365742e6b,rev?*%
%TF.SameCoordinates,Original*%
%TF.FileFunction,Drillmap*%
%TF.FilePolarity,Positive*%
%FSLAX45Y45*%
G04 Gerber Fmt 4.5, Leading zero omitted, Abs format (unit mm)*
G04 Created by KiCad (PCBNEW 8.0.2) date 2024-06-16 16:44:20*
%MOMM*%
%LPD*%
G01*
G04 APERTURE LIST*
%ADD10C,0.100000*%
%ADD11C,0.200000*%
G04 APERTURE END LIST*
D10*
X14841220Y-6675120D02*
X20132040Y-6675120D01*
X20132040Y-12120880D01*
X14841220Y-12120880D01*
X14841220Y-6675120D01*
D11*
X15096997Y-12437364D02*
X15096997Y-12237364D01*
X15096997Y-12237364D02*
X15144616Y-12237364D01*
X15144616Y-12237364D02*
X15173187Y-12246888D01*
X15173187Y-12246888D02*
X15192235Y-12265935D01*
X15192235Y-12265935D02*
X15201759Y-12284983D01*
X15201759Y-12284983D02*
X15211282Y-12323078D01*
X15211282Y-12323078D02*
X15211282Y-12351649D01*
X15211282Y-12351649D02*
X15201759Y-12389745D01*
X15201759Y-12389745D02*
X15192235Y-12408792D01*
X15192235Y-12408792D02*
X15173187Y-12427840D01*
X15173187Y-12427840D02*
X15144616Y-12437364D01*
X15144616Y-12437364D02*
X15096997Y-12437364D01*
X15296997Y-12437364D02*
X15296997Y-12304030D01*
X15296997Y-12342126D02*
X15306521Y-12323078D01*
X15306521Y-12323078D02*
X15316044Y-12313554D01*
X15316044Y-12313554D02*
X15335092Y-12304030D01*
X15335092Y-12304030D02*
X15354140Y-12304030D01*
X15420806Y-12437364D02*
X15420806Y-12304030D01*
X15420806Y-12237364D02*
X15411282Y-12246888D01*
X15411282Y-12246888D02*
X15420806Y-12256411D01*
X15420806Y-12256411D02*
X15430330Y-12246888D01*
X15430330Y-12246888D02*
X15420806Y-12237364D01*
X15420806Y-12237364D02*
X15420806Y-12256411D01*
X15544616Y-12437364D02*
X15525568Y-12427840D01*
X15525568Y-12427840D02*
X15516044Y-12408792D01*
X15516044Y-12408792D02*
X15516044Y-12237364D01*
X15649378Y-12437364D02*
X15630330Y-12427840D01*
X15630330Y-12427840D02*
X15620806Y-12408792D01*
X15620806Y-12408792D02*
X15620806Y-12237364D01*
X15877949Y-12437364D02*
X15877949Y-12237364D01*
X15877949Y-12237364D02*
X15944616Y-12380221D01*
X15944616Y-12380221D02*
X16011282Y-12237364D01*
X16011282Y-12237364D02*
X16011282Y-12437364D01*
X16192235Y-12437364D02*
X16192235Y-12332602D01*
X16192235Y-12332602D02*
X16182711Y-12313554D01*
X16182711Y-12313554D02*
X16163663Y-12304030D01*
X16163663Y-12304030D02*
X16125568Y-12304030D01*
X16125568Y-12304030D02*
X16106521Y-12313554D01*
X16192235Y-12427840D02*
X16173187Y-12437364D01*
X16173187Y-12437364D02*
X16125568Y-12437364D01*
X16125568Y-12437364D02*
X16106521Y-12427840D01*
X16106521Y-12427840D02*
X16096997Y-12408792D01*
X16096997Y-12408792D02*
X16096997Y-12389745D01*
X16096997Y-12389745D02*
X16106521Y-12370697D01*
X16106521Y-12370697D02*
X16125568Y-12361173D01*
X16125568Y-12361173D02*
X16173187Y-12361173D01*
X16173187Y-12361173D02*
X16192235Y-12351649D01*
X16287473Y-12304030D02*
X16287473Y-12504030D01*
X16287473Y-12313554D02*
X16306521Y-12304030D01*
X16306521Y-12304030D02*
X16344616Y-12304030D01*
X16344616Y-12304030D02*
X16363663Y-12313554D01*
X16363663Y-12313554D02*
X16373187Y-12323078D01*
X16373187Y-12323078D02*
X16382711Y-12342126D01*
X16382711Y-12342126D02*
X16382711Y-12399268D01*
X16382711Y-12399268D02*
X16373187Y-12418316D01*
X16373187Y-12418316D02*
X16363663Y-12427840D01*
X16363663Y-12427840D02*
X16344616Y-12437364D01*
X16344616Y-12437364D02*
X16306521Y-12437364D01*
X16306521Y-12437364D02*
X16287473Y-12427840D01*
X16468425Y-12418316D02*
X16477949Y-12427840D01*
X16477949Y-12427840D02*
X16468425Y-12437364D01*
X16468425Y-12437364D02*
X16458902Y-12427840D01*
X16458902Y-12427840D02*
X16468425Y-12418316D01*
X16468425Y-12418316D02*
X16468425Y-12437364D01*
X16468425Y-12313554D02*
X16477949Y-12323078D01*
X16477949Y-12323078D02*
X16468425Y-12332602D01*
X16468425Y-12332602D02*
X16458902Y-12323078D01*
X16458902Y-12323078D02*
X16468425Y-12313554D01*
X16468425Y-12313554D02*
X16468425Y-12332602D01*
M02*
