M48
; DRILL file {KiCad 8.0.2} date 2024-06-16T16:44:19+0200
; FORMAT={-:-/ absolute / inch / decimal}
; #@! TF.CreationDate,2024-06-16T16:44:19+02:00
; #@! TF.GenerationSoftware,Kicad,Pcbnew,8.0.2
; #@! TF.FileFunction,Plated,1,2,PTH
FMAT,2
INCH
; #@! TA.AperFunction,Plated,PTH,ViaDrill
T1C0.0157
; #@! TA.AperFunction,Plated,PTH,ComponentDrill
T2C0.0315
; #@! TA.AperFunction,Plated,PTH,ComponentDrill
T3C0.0370
; #@! TA.AperFunction,Plated,PTH,ComponentDrill
T4C0.0394
; #@! TA.AperFunction,Plated,PTH,ComponentDrill
T5C0.0402
; #@! TA.AperFunction,Plated,PTH,ComponentDrill
T6C0.0551
; #@! TA.AperFunction,Plated,PTH,ComponentDrill
T7C0.0917
; #@! TA.AperFunction,Plated,PTH,ComponentDrill
T8C0.1260
%
G90
G05
T1
X6.654Y-4.074
X6.818Y-3.152
X6.922Y-3.378
X6.942Y-3.94
X7.198Y-3.915
X7.216Y-3.554
X7.216Y-3.98
X7.3Y-3.21
X7.308Y-3.582
X7.482Y-4.078
X7.491Y-4.396
X7.684Y-4.074
X7.844Y-3.9
T2
X6.326Y-4.331
X6.4047Y-4.331
T3
X6.782Y-4.24
X6.782Y-4.34
X6.782Y-4.44
T4
X6.63Y-3.488
X6.63Y-3.688
X6.83Y-3.488
X6.83Y-3.688
X6.93Y-3.488
X6.93Y-3.688
X7.03Y-3.488
X7.03Y-3.688
X7.13Y-3.488
X7.13Y-3.688
X7.296Y-3.488
X7.296Y-3.688
X7.396Y-3.488
X7.396Y-3.688
X7.496Y-3.488
X7.496Y-3.688
X7.596Y-3.488
X7.596Y-3.688
X7.796Y-3.488
X7.796Y-3.688
T5
X6.0153Y-4.29
X6.0153Y-4.39
X6.0192Y-2.7567
X6.0192Y-2.8567
X6.3654Y-4.5126
X6.3654Y-4.6126
X7.048Y-4.467
X7.148Y-4.467
X7.282Y-2.79
X7.282Y-2.89
X7.282Y-2.99
X7.282Y-3.09
X7.3173Y-4.4729
X7.4173Y-4.4729
T6
X6.0641Y-4.0821
X6.0665Y-3.437
X6.3004Y-4.0821
X6.3027Y-3.437
T7
X5.9854Y-3.905
X5.9878Y-3.2598
X6.1823Y-3.6924
X6.1846Y-3.0472
X6.4067Y-3.905
X6.409Y-3.2598
T8
X6.079Y-4.591
X6.428Y-2.774
X7.744Y-4.613
X7.752Y-2.785
M30
