<?xml version="1.0" encoding="utf-8" ?><!DOCTYPE svg PUBLIC "-//W3C//DTD SVG 1.1//EN" "http://www.w3.org/Graphics/SVG/1.1/DTD/svg11.dtd" 
[ <!ATTLIST svg 
  xmlns:dsy CDATA #FIXED "http://www.3ds.com/print"  
    dsy:text-version CDATA #IMPLIED > 

  <!ATTLIST text 
  xmlns:dsy CDATA #FIXED "http://www.3ds.com/print" 
    dsy:text-version CDATA #IMPLIED > 
]><svg xmlns="http://www.w3.org/2000/svg" xmlns:dsy="http://www.3ds.com/print" dsy:text-version="18000" width="420" height="297" viewBox="0 0 420 297" version="1.1"><g stroke="rgb(0, 0, 0)" stroke-width="0.35" stroke-linecap="butt" stroke-linejoin="miter" fill="none"><circle cx="340.727" cy="164.479" r="3"/><path d="M 259.229 183.512 A 16.6837 13.9999 -38.1455 0 0 252.962 192.257"/><path d="M 283.416 194.211 A 16.6835 14 -38.1494 0 0 259.229 183.512"/><path d="M 281.506 199.71 A 16.6726 13.989 -38.2253 0 0 283.416 194.211"/><path d="M 281.506 199.71 L 287.62 200.891"/><path d="M 287.62 200.891 L 299.641 132.719"/><path d="M 307.519 126.109 A 8 8 0 0 0 299.641 132.719"/><path d="M 307.519 126.109 L 309.489 126.109"/><path d="M 317.489 134.109 A 8 8 0 0 0 309.489 126.109"/><path d="M 317.489 134.109 L 317.489 191.898"/><path d="M 317.489 191.898 L 328.743 193.065"/><path d="M 328.871 191.483 A 16.1862 16.1862 0 0 0 328.743 193.065"/><path d="M 356.772 193.013 A 15.0587 14 -262.559 0 0 328.871 191.483"/><path d="M 356.504 195.942 A 16.1942 16.1942 0 0 0 356.635 195.108"/><path d="M 356.635 195.108 A 16.1786 16.1786 0 0 0 356.772 193.013"/><path d="M 356.504 195.942 L 365.008 196.823"/><path d="M 365.008 196.823 L 365.008 126.109"/><path d="M 365.008 126.109 A 30 30 0 0 0 335.008 96.1086"/><path d="M 335.008 96.1086 L 84.9922 96.1086"/><path d="M 84.9922 96.1086 A 30 30 0 0 0 54.9922 126.109"/><path d="M 54.9922 126.109 L 54.9922 156.883"/><path d="M 54.9922 156.883 L 63.2589 158.48"/><path d="M 91.31 157.843 A 17.7674 17.7674 0 0 0 91.1016 155.942"/><path d="M 91.1016 155.942 A 15.7827 14 -279.341 0 0 63.2589 158.48"/><path d="M 90.6156 163.766 A 17.2259 17.2259 0 0 0 91.3092 157.843"/><path d="M 90.6147 163.766 L 97.4843 165.093"/><path d="M 97.4843 165.093 L 97.4843 126.109"/><path d="M 97.4843 126.109 L 232.456 126.109"/><path d="M 232.456 126.109 L 244.162 192.495"/><path d="M 244.162 192.495 L 252.172 194.042"/><path d="M 252.962 192.257 A 15.5417 15.5417 0 0 0 252.172 194.042"/><circle cx="73.6871" cy="130.204" r="3"/><path d="M 356.504 195.942 L 356.486 195.94"/></g></svg>