%TF.GenerationSoftware,KiCad,Pcbnew,7.0.2*%
%TF.CreationDate,2023-06-01T11:44:41+02:00*%
%TF.ProjectId,AMS & IMD Reset,414d5320-2620-4494-9d44-205265736574,rev?*%
%TF.SameCoordinates,Original*%
%TF.FileFunction,Legend,Top*%
%TF.FilePolarity,Positive*%
%FSLAX46Y46*%
G04 Gerber Fmt 4.6, Leading zero omitted, Abs format (unit mm)*
G04 Created by KiCad (PCBNEW 7.0.2) date 2023-06-01 11:44:41*
%MOMM*%
%LPD*%
G01*
G04 APERTURE LIST*
%ADD10C,0.150000*%
%ADD11C,0.254000*%
%ADD12C,0.200000*%
%ADD13C,0.100000*%
%ADD14C,0.127000*%
%ADD15C,0.120000*%
G04 APERTURE END LIST*
D10*
X155140001Y-78368214D02*
X155640001Y-78368214D01*
X155854287Y-79153928D02*
X155140001Y-79153928D01*
X155140001Y-79153928D02*
X155140001Y-77653928D01*
X155140001Y-77653928D02*
X155854287Y-77653928D01*
X156497144Y-79153928D02*
X156497144Y-77653928D01*
X156497144Y-77653928D02*
X157068573Y-77653928D01*
X157068573Y-77653928D02*
X157211430Y-77725357D01*
X157211430Y-77725357D02*
X157282859Y-77796785D01*
X157282859Y-77796785D02*
X157354287Y-77939642D01*
X157354287Y-77939642D02*
X157354287Y-78153928D01*
X157354287Y-78153928D02*
X157282859Y-78296785D01*
X157282859Y-78296785D02*
X157211430Y-78368214D01*
X157211430Y-78368214D02*
X157068573Y-78439642D01*
X157068573Y-78439642D02*
X156497144Y-78439642D01*
X157925716Y-79082500D02*
X158140002Y-79153928D01*
X158140002Y-79153928D02*
X158497144Y-79153928D01*
X158497144Y-79153928D02*
X158640002Y-79082500D01*
X158640002Y-79082500D02*
X158711430Y-79011071D01*
X158711430Y-79011071D02*
X158782859Y-78868214D01*
X158782859Y-78868214D02*
X158782859Y-78725357D01*
X158782859Y-78725357D02*
X158711430Y-78582500D01*
X158711430Y-78582500D02*
X158640002Y-78511071D01*
X158640002Y-78511071D02*
X158497144Y-78439642D01*
X158497144Y-78439642D02*
X158211430Y-78368214D01*
X158211430Y-78368214D02*
X158068573Y-78296785D01*
X158068573Y-78296785D02*
X157997144Y-78225357D01*
X157997144Y-78225357D02*
X157925716Y-78082500D01*
X157925716Y-78082500D02*
X157925716Y-77939642D01*
X157925716Y-77939642D02*
X157997144Y-77796785D01*
X157997144Y-77796785D02*
X158068573Y-77725357D01*
X158068573Y-77725357D02*
X158211430Y-77653928D01*
X158211430Y-77653928D02*
X158568573Y-77653928D01*
X158568573Y-77653928D02*
X158782859Y-77725357D01*
X159354287Y-78725357D02*
X160068573Y-78725357D01*
X159211430Y-79153928D02*
X159711430Y-77653928D01*
X159711430Y-77653928D02*
X160211430Y-79153928D01*
X161782858Y-77796785D02*
X161854286Y-77725357D01*
X161854286Y-77725357D02*
X161997144Y-77653928D01*
X161997144Y-77653928D02*
X162354286Y-77653928D01*
X162354286Y-77653928D02*
X162497144Y-77725357D01*
X162497144Y-77725357D02*
X162568572Y-77796785D01*
X162568572Y-77796785D02*
X162640001Y-77939642D01*
X162640001Y-77939642D02*
X162640001Y-78082500D01*
X162640001Y-78082500D02*
X162568572Y-78296785D01*
X162568572Y-78296785D02*
X161711429Y-79153928D01*
X161711429Y-79153928D02*
X162640001Y-79153928D01*
X163568572Y-77653928D02*
X163711429Y-77653928D01*
X163711429Y-77653928D02*
X163854286Y-77725357D01*
X163854286Y-77725357D02*
X163925715Y-77796785D01*
X163925715Y-77796785D02*
X163997143Y-77939642D01*
X163997143Y-77939642D02*
X164068572Y-78225357D01*
X164068572Y-78225357D02*
X164068572Y-78582500D01*
X164068572Y-78582500D02*
X163997143Y-78868214D01*
X163997143Y-78868214D02*
X163925715Y-79011071D01*
X163925715Y-79011071D02*
X163854286Y-79082500D01*
X163854286Y-79082500D02*
X163711429Y-79153928D01*
X163711429Y-79153928D02*
X163568572Y-79153928D01*
X163568572Y-79153928D02*
X163425715Y-79082500D01*
X163425715Y-79082500D02*
X163354286Y-79011071D01*
X163354286Y-79011071D02*
X163282857Y-78868214D01*
X163282857Y-78868214D02*
X163211429Y-78582500D01*
X163211429Y-78582500D02*
X163211429Y-78225357D01*
X163211429Y-78225357D02*
X163282857Y-77939642D01*
X163282857Y-77939642D02*
X163354286Y-77796785D01*
X163354286Y-77796785D02*
X163425715Y-77725357D01*
X163425715Y-77725357D02*
X163568572Y-77653928D01*
X164640000Y-77796785D02*
X164711428Y-77725357D01*
X164711428Y-77725357D02*
X164854286Y-77653928D01*
X164854286Y-77653928D02*
X165211428Y-77653928D01*
X165211428Y-77653928D02*
X165354286Y-77725357D01*
X165354286Y-77725357D02*
X165425714Y-77796785D01*
X165425714Y-77796785D02*
X165497143Y-77939642D01*
X165497143Y-77939642D02*
X165497143Y-78082500D01*
X165497143Y-78082500D02*
X165425714Y-78296785D01*
X165425714Y-78296785D02*
X164568571Y-79153928D01*
X164568571Y-79153928D02*
X165497143Y-79153928D01*
X165997142Y-77653928D02*
X166925714Y-77653928D01*
X166925714Y-77653928D02*
X166425714Y-78225357D01*
X166425714Y-78225357D02*
X166639999Y-78225357D01*
X166639999Y-78225357D02*
X166782857Y-78296785D01*
X166782857Y-78296785D02*
X166854285Y-78368214D01*
X166854285Y-78368214D02*
X166925714Y-78511071D01*
X166925714Y-78511071D02*
X166925714Y-78868214D01*
X166925714Y-78868214D02*
X166854285Y-79011071D01*
X166854285Y-79011071D02*
X166782857Y-79082500D01*
X166782857Y-79082500D02*
X166639999Y-79153928D01*
X166639999Y-79153928D02*
X166211428Y-79153928D01*
X166211428Y-79153928D02*
X166068571Y-79082500D01*
X166068571Y-79082500D02*
X165997142Y-79011071D01*
X169568570Y-79153928D02*
X169068570Y-78439642D01*
X168711427Y-79153928D02*
X168711427Y-77653928D01*
X168711427Y-77653928D02*
X169282856Y-77653928D01*
X169282856Y-77653928D02*
X169425713Y-77725357D01*
X169425713Y-77725357D02*
X169497142Y-77796785D01*
X169497142Y-77796785D02*
X169568570Y-77939642D01*
X169568570Y-77939642D02*
X169568570Y-78153928D01*
X169568570Y-78153928D02*
X169497142Y-78296785D01*
X169497142Y-78296785D02*
X169425713Y-78368214D01*
X169425713Y-78368214D02*
X169282856Y-78439642D01*
X169282856Y-78439642D02*
X168711427Y-78439642D01*
X170782856Y-79082500D02*
X170639999Y-79153928D01*
X170639999Y-79153928D02*
X170354285Y-79153928D01*
X170354285Y-79153928D02*
X170211427Y-79082500D01*
X170211427Y-79082500D02*
X170139999Y-78939642D01*
X170139999Y-78939642D02*
X170139999Y-78368214D01*
X170139999Y-78368214D02*
X170211427Y-78225357D01*
X170211427Y-78225357D02*
X170354285Y-78153928D01*
X170354285Y-78153928D02*
X170639999Y-78153928D01*
X170639999Y-78153928D02*
X170782856Y-78225357D01*
X170782856Y-78225357D02*
X170854285Y-78368214D01*
X170854285Y-78368214D02*
X170854285Y-78511071D01*
X170854285Y-78511071D02*
X170139999Y-78653928D01*
X171425713Y-79082500D02*
X171568570Y-79153928D01*
X171568570Y-79153928D02*
X171854284Y-79153928D01*
X171854284Y-79153928D02*
X171997141Y-79082500D01*
X171997141Y-79082500D02*
X172068570Y-78939642D01*
X172068570Y-78939642D02*
X172068570Y-78868214D01*
X172068570Y-78868214D02*
X171997141Y-78725357D01*
X171997141Y-78725357D02*
X171854284Y-78653928D01*
X171854284Y-78653928D02*
X171639999Y-78653928D01*
X171639999Y-78653928D02*
X171497141Y-78582500D01*
X171497141Y-78582500D02*
X171425713Y-78439642D01*
X171425713Y-78439642D02*
X171425713Y-78368214D01*
X171425713Y-78368214D02*
X171497141Y-78225357D01*
X171497141Y-78225357D02*
X171639999Y-78153928D01*
X171639999Y-78153928D02*
X171854284Y-78153928D01*
X171854284Y-78153928D02*
X171997141Y-78225357D01*
X173282856Y-79082500D02*
X173139999Y-79153928D01*
X173139999Y-79153928D02*
X172854285Y-79153928D01*
X172854285Y-79153928D02*
X172711427Y-79082500D01*
X172711427Y-79082500D02*
X172639999Y-78939642D01*
X172639999Y-78939642D02*
X172639999Y-78368214D01*
X172639999Y-78368214D02*
X172711427Y-78225357D01*
X172711427Y-78225357D02*
X172854285Y-78153928D01*
X172854285Y-78153928D02*
X173139999Y-78153928D01*
X173139999Y-78153928D02*
X173282856Y-78225357D01*
X173282856Y-78225357D02*
X173354285Y-78368214D01*
X173354285Y-78368214D02*
X173354285Y-78511071D01*
X173354285Y-78511071D02*
X172639999Y-78653928D01*
X173782856Y-78153928D02*
X174354284Y-78153928D01*
X173997141Y-77653928D02*
X173997141Y-78939642D01*
X173997141Y-78939642D02*
X174068570Y-79082500D01*
X174068570Y-79082500D02*
X174211427Y-79153928D01*
X174211427Y-79153928D02*
X174354284Y-79153928D01*
X175782856Y-77653928D02*
X176282856Y-79153928D01*
X176282856Y-79153928D02*
X176782856Y-77653928D01*
X178068570Y-79153928D02*
X177211427Y-79153928D01*
X177639998Y-79153928D02*
X177639998Y-77653928D01*
X177639998Y-77653928D02*
X177497141Y-77868214D01*
X177497141Y-77868214D02*
X177354284Y-78011071D01*
X177354284Y-78011071D02*
X177211427Y-78082500D01*
X178711426Y-79011071D02*
X178782855Y-79082500D01*
X178782855Y-79082500D02*
X178711426Y-79153928D01*
X178711426Y-79153928D02*
X178639998Y-79082500D01*
X178639998Y-79082500D02*
X178711426Y-79011071D01*
X178711426Y-79011071D02*
X178711426Y-79153928D01*
X179711427Y-77653928D02*
X179854284Y-77653928D01*
X179854284Y-77653928D02*
X179997141Y-77725357D01*
X179997141Y-77725357D02*
X180068570Y-77796785D01*
X180068570Y-77796785D02*
X180139998Y-77939642D01*
X180139998Y-77939642D02*
X180211427Y-78225357D01*
X180211427Y-78225357D02*
X180211427Y-78582500D01*
X180211427Y-78582500D02*
X180139998Y-78868214D01*
X180139998Y-78868214D02*
X180068570Y-79011071D01*
X180068570Y-79011071D02*
X179997141Y-79082500D01*
X179997141Y-79082500D02*
X179854284Y-79153928D01*
X179854284Y-79153928D02*
X179711427Y-79153928D01*
X179711427Y-79153928D02*
X179568570Y-79082500D01*
X179568570Y-79082500D02*
X179497141Y-79011071D01*
X179497141Y-79011071D02*
X179425712Y-78868214D01*
X179425712Y-78868214D02*
X179354284Y-78582500D01*
X179354284Y-78582500D02*
X179354284Y-78225357D01*
X179354284Y-78225357D02*
X179425712Y-77939642D01*
X179425712Y-77939642D02*
X179497141Y-77796785D01*
X179497141Y-77796785D02*
X179568570Y-77725357D01*
X179568570Y-77725357D02*
X179711427Y-77653928D01*
%TO.C,*%
D11*
%TO.C,R15*%
X169351670Y-93855555D02*
X168928336Y-93250793D01*
X168625955Y-93855555D02*
X168625955Y-92585555D01*
X168625955Y-92585555D02*
X169109765Y-92585555D01*
X169109765Y-92585555D02*
X169230717Y-92646031D01*
X169230717Y-92646031D02*
X169291194Y-92706507D01*
X169291194Y-92706507D02*
X169351670Y-92827459D01*
X169351670Y-92827459D02*
X169351670Y-93008888D01*
X169351670Y-93008888D02*
X169291194Y-93129840D01*
X169291194Y-93129840D02*
X169230717Y-93190317D01*
X169230717Y-93190317D02*
X169109765Y-93250793D01*
X169109765Y-93250793D02*
X168625955Y-93250793D01*
X170561194Y-93855555D02*
X169835479Y-93855555D01*
X170198336Y-93855555D02*
X170198336Y-92585555D01*
X170198336Y-92585555D02*
X170077384Y-92766983D01*
X170077384Y-92766983D02*
X169956432Y-92887936D01*
X169956432Y-92887936D02*
X169835479Y-92948412D01*
X171710241Y-92585555D02*
X171105479Y-92585555D01*
X171105479Y-92585555D02*
X171045003Y-93190317D01*
X171045003Y-93190317D02*
X171105479Y-93129840D01*
X171105479Y-93129840D02*
X171226432Y-93069364D01*
X171226432Y-93069364D02*
X171528813Y-93069364D01*
X171528813Y-93069364D02*
X171649765Y-93129840D01*
X171649765Y-93129840D02*
X171710241Y-93190317D01*
X171710241Y-93190317D02*
X171770718Y-93311269D01*
X171770718Y-93311269D02*
X171770718Y-93613650D01*
X171770718Y-93613650D02*
X171710241Y-93734602D01*
X171710241Y-93734602D02*
X171649765Y-93795079D01*
X171649765Y-93795079D02*
X171528813Y-93855555D01*
X171528813Y-93855555D02*
X171226432Y-93855555D01*
X171226432Y-93855555D02*
X171105479Y-93795079D01*
X171105479Y-93795079D02*
X171045003Y-93734602D01*
%TO.C,K6*%
X149905822Y-81984313D02*
X148635822Y-81984313D01*
X149905822Y-81258598D02*
X149180107Y-81802884D01*
X148635822Y-81258598D02*
X149361536Y-81984313D01*
X148635822Y-80170027D02*
X148635822Y-80411932D01*
X148635822Y-80411932D02*
X148696298Y-80532884D01*
X148696298Y-80532884D02*
X148756774Y-80593360D01*
X148756774Y-80593360D02*
X148938203Y-80714313D01*
X148938203Y-80714313D02*
X149180107Y-80774789D01*
X149180107Y-80774789D02*
X149663917Y-80774789D01*
X149663917Y-80774789D02*
X149784869Y-80714313D01*
X149784869Y-80714313D02*
X149845346Y-80653836D01*
X149845346Y-80653836D02*
X149905822Y-80532884D01*
X149905822Y-80532884D02*
X149905822Y-80290979D01*
X149905822Y-80290979D02*
X149845346Y-80170027D01*
X149845346Y-80170027D02*
X149784869Y-80109551D01*
X149784869Y-80109551D02*
X149663917Y-80049074D01*
X149663917Y-80049074D02*
X149361536Y-80049074D01*
X149361536Y-80049074D02*
X149240584Y-80109551D01*
X149240584Y-80109551D02*
X149180107Y-80170027D01*
X149180107Y-80170027D02*
X149119631Y-80290979D01*
X149119631Y-80290979D02*
X149119631Y-80532884D01*
X149119631Y-80532884D02*
X149180107Y-80653836D01*
X149180107Y-80653836D02*
X149240584Y-80714313D01*
X149240584Y-80714313D02*
X149361536Y-80774789D01*
%TO.C,R3*%
X137315555Y-107893567D02*
X136710793Y-108316901D01*
X137315555Y-108619282D02*
X136045555Y-108619282D01*
X136045555Y-108619282D02*
X136045555Y-108135472D01*
X136045555Y-108135472D02*
X136106031Y-108014520D01*
X136106031Y-108014520D02*
X136166507Y-107954043D01*
X136166507Y-107954043D02*
X136287459Y-107893567D01*
X136287459Y-107893567D02*
X136468888Y-107893567D01*
X136468888Y-107893567D02*
X136589840Y-107954043D01*
X136589840Y-107954043D02*
X136650317Y-108014520D01*
X136650317Y-108014520D02*
X136710793Y-108135472D01*
X136710793Y-108135472D02*
X136710793Y-108619282D01*
X136045555Y-107470234D02*
X136045555Y-106684043D01*
X136045555Y-106684043D02*
X136529364Y-107107377D01*
X136529364Y-107107377D02*
X136529364Y-106925948D01*
X136529364Y-106925948D02*
X136589840Y-106804996D01*
X136589840Y-106804996D02*
X136650317Y-106744520D01*
X136650317Y-106744520D02*
X136771269Y-106684043D01*
X136771269Y-106684043D02*
X137073650Y-106684043D01*
X137073650Y-106684043D02*
X137194602Y-106744520D01*
X137194602Y-106744520D02*
X137255079Y-106804996D01*
X137255079Y-106804996D02*
X137315555Y-106925948D01*
X137315555Y-106925948D02*
X137315555Y-107288805D01*
X137315555Y-107288805D02*
X137255079Y-107409758D01*
X137255079Y-107409758D02*
X137194602Y-107470234D01*
%TO.C,R7*%
X150015555Y-97733567D02*
X149410793Y-98156901D01*
X150015555Y-98459282D02*
X148745555Y-98459282D01*
X148745555Y-98459282D02*
X148745555Y-97975472D01*
X148745555Y-97975472D02*
X148806031Y-97854520D01*
X148806031Y-97854520D02*
X148866507Y-97794043D01*
X148866507Y-97794043D02*
X148987459Y-97733567D01*
X148987459Y-97733567D02*
X149168888Y-97733567D01*
X149168888Y-97733567D02*
X149289840Y-97794043D01*
X149289840Y-97794043D02*
X149350317Y-97854520D01*
X149350317Y-97854520D02*
X149410793Y-97975472D01*
X149410793Y-97975472D02*
X149410793Y-98459282D01*
X148745555Y-97310234D02*
X148745555Y-96463567D01*
X148745555Y-96463567D02*
X150015555Y-97007853D01*
%TO.C,K5*%
X152445822Y-112464313D02*
X151175822Y-112464313D01*
X152445822Y-111738598D02*
X151720107Y-112282884D01*
X151175822Y-111738598D02*
X151901536Y-112464313D01*
X151175822Y-110589551D02*
X151175822Y-111194313D01*
X151175822Y-111194313D02*
X151780584Y-111254789D01*
X151780584Y-111254789D02*
X151720107Y-111194313D01*
X151720107Y-111194313D02*
X151659631Y-111073360D01*
X151659631Y-111073360D02*
X151659631Y-110770979D01*
X151659631Y-110770979D02*
X151720107Y-110650027D01*
X151720107Y-110650027D02*
X151780584Y-110589551D01*
X151780584Y-110589551D02*
X151901536Y-110529074D01*
X151901536Y-110529074D02*
X152203917Y-110529074D01*
X152203917Y-110529074D02*
X152324869Y-110589551D01*
X152324869Y-110589551D02*
X152385346Y-110650027D01*
X152385346Y-110650027D02*
X152445822Y-110770979D01*
X152445822Y-110770979D02*
X152445822Y-111073360D01*
X152445822Y-111073360D02*
X152385346Y-111194313D01*
X152385346Y-111194313D02*
X152324869Y-111254789D01*
%TO.C,C2*%
X122989956Y-109049305D02*
X122929480Y-109109782D01*
X122929480Y-109109782D02*
X122748051Y-109170258D01*
X122748051Y-109170258D02*
X122627099Y-109170258D01*
X122627099Y-109170258D02*
X122445670Y-109109782D01*
X122445670Y-109109782D02*
X122324718Y-108988829D01*
X122324718Y-108988829D02*
X122264241Y-108867877D01*
X122264241Y-108867877D02*
X122203765Y-108625972D01*
X122203765Y-108625972D02*
X122203765Y-108444543D01*
X122203765Y-108444543D02*
X122264241Y-108202639D01*
X122264241Y-108202639D02*
X122324718Y-108081686D01*
X122324718Y-108081686D02*
X122445670Y-107960734D01*
X122445670Y-107960734D02*
X122627099Y-107900258D01*
X122627099Y-107900258D02*
X122748051Y-107900258D01*
X122748051Y-107900258D02*
X122929480Y-107960734D01*
X122929480Y-107960734D02*
X122989956Y-108021210D01*
X123473765Y-108021210D02*
X123534241Y-107960734D01*
X123534241Y-107960734D02*
X123655194Y-107900258D01*
X123655194Y-107900258D02*
X123957575Y-107900258D01*
X123957575Y-107900258D02*
X124078527Y-107960734D01*
X124078527Y-107960734D02*
X124139003Y-108021210D01*
X124139003Y-108021210D02*
X124199480Y-108142162D01*
X124199480Y-108142162D02*
X124199480Y-108263115D01*
X124199480Y-108263115D02*
X124139003Y-108444543D01*
X124139003Y-108444543D02*
X123413289Y-109170258D01*
X123413289Y-109170258D02*
X124199480Y-109170258D01*
D10*
%TO.C,J3*%
X178990666Y-80970619D02*
X178990666Y-81684904D01*
X178990666Y-81684904D02*
X178943047Y-81827761D01*
X178943047Y-81827761D02*
X178847809Y-81923000D01*
X178847809Y-81923000D02*
X178704952Y-81970619D01*
X178704952Y-81970619D02*
X178609714Y-81970619D01*
X179371619Y-80970619D02*
X179990666Y-80970619D01*
X179990666Y-80970619D02*
X179657333Y-81351571D01*
X179657333Y-81351571D02*
X179800190Y-81351571D01*
X179800190Y-81351571D02*
X179895428Y-81399190D01*
X179895428Y-81399190D02*
X179943047Y-81446809D01*
X179943047Y-81446809D02*
X179990666Y-81542047D01*
X179990666Y-81542047D02*
X179990666Y-81780142D01*
X179990666Y-81780142D02*
X179943047Y-81875380D01*
X179943047Y-81875380D02*
X179895428Y-81923000D01*
X179895428Y-81923000D02*
X179800190Y-81970619D01*
X179800190Y-81970619D02*
X179514476Y-81970619D01*
X179514476Y-81970619D02*
X179419238Y-81923000D01*
X179419238Y-81923000D02*
X179371619Y-81875380D01*
D11*
%TO.C,CP1*%
X156612332Y-104440273D02*
X156551856Y-104500750D01*
X156551856Y-104500750D02*
X156370427Y-104561226D01*
X156370427Y-104561226D02*
X156249475Y-104561226D01*
X156249475Y-104561226D02*
X156068046Y-104500750D01*
X156068046Y-104500750D02*
X155947094Y-104379797D01*
X155947094Y-104379797D02*
X155886617Y-104258845D01*
X155886617Y-104258845D02*
X155826141Y-104016940D01*
X155826141Y-104016940D02*
X155826141Y-103835511D01*
X155826141Y-103835511D02*
X155886617Y-103593607D01*
X155886617Y-103593607D02*
X155947094Y-103472654D01*
X155947094Y-103472654D02*
X156068046Y-103351702D01*
X156068046Y-103351702D02*
X156249475Y-103291226D01*
X156249475Y-103291226D02*
X156370427Y-103291226D01*
X156370427Y-103291226D02*
X156551856Y-103351702D01*
X156551856Y-103351702D02*
X156612332Y-103412178D01*
X157156617Y-104561226D02*
X157156617Y-103291226D01*
X157156617Y-103291226D02*
X157640427Y-103291226D01*
X157640427Y-103291226D02*
X157761379Y-103351702D01*
X157761379Y-103351702D02*
X157821856Y-103412178D01*
X157821856Y-103412178D02*
X157882332Y-103533130D01*
X157882332Y-103533130D02*
X157882332Y-103714559D01*
X157882332Y-103714559D02*
X157821856Y-103835511D01*
X157821856Y-103835511D02*
X157761379Y-103895988D01*
X157761379Y-103895988D02*
X157640427Y-103956464D01*
X157640427Y-103956464D02*
X157156617Y-103956464D01*
X159091856Y-104561226D02*
X158366141Y-104561226D01*
X158728998Y-104561226D02*
X158728998Y-103291226D01*
X158728998Y-103291226D02*
X158608046Y-103472654D01*
X158608046Y-103472654D02*
X158487094Y-103593607D01*
X158487094Y-103593607D02*
X158366141Y-103654083D01*
D10*
%TO.C,J1*%
X137086666Y-109451666D02*
X138086666Y-109451666D01*
X138086666Y-109451666D02*
X138286666Y-109518333D01*
X138286666Y-109518333D02*
X138420000Y-109651666D01*
X138420000Y-109651666D02*
X138486666Y-109851666D01*
X138486666Y-109851666D02*
X138486666Y-109985000D01*
X138486666Y-108051666D02*
X138486666Y-108851666D01*
X138486666Y-108451666D02*
X137086666Y-108451666D01*
X137086666Y-108451666D02*
X137286666Y-108584999D01*
X137286666Y-108584999D02*
X137420000Y-108718333D01*
X137420000Y-108718333D02*
X137486666Y-108851666D01*
D11*
%TO.C,R9*%
X163985555Y-110713567D02*
X163380793Y-111136901D01*
X163985555Y-111439282D02*
X162715555Y-111439282D01*
X162715555Y-111439282D02*
X162715555Y-110955472D01*
X162715555Y-110955472D02*
X162776031Y-110834520D01*
X162776031Y-110834520D02*
X162836507Y-110774043D01*
X162836507Y-110774043D02*
X162957459Y-110713567D01*
X162957459Y-110713567D02*
X163138888Y-110713567D01*
X163138888Y-110713567D02*
X163259840Y-110774043D01*
X163259840Y-110774043D02*
X163320317Y-110834520D01*
X163320317Y-110834520D02*
X163380793Y-110955472D01*
X163380793Y-110955472D02*
X163380793Y-111439282D01*
X163985555Y-110108805D02*
X163985555Y-109866901D01*
X163985555Y-109866901D02*
X163925079Y-109745948D01*
X163925079Y-109745948D02*
X163864602Y-109685472D01*
X163864602Y-109685472D02*
X163683174Y-109564520D01*
X163683174Y-109564520D02*
X163441269Y-109504043D01*
X163441269Y-109504043D02*
X162957459Y-109504043D01*
X162957459Y-109504043D02*
X162836507Y-109564520D01*
X162836507Y-109564520D02*
X162776031Y-109624996D01*
X162776031Y-109624996D02*
X162715555Y-109745948D01*
X162715555Y-109745948D02*
X162715555Y-109987853D01*
X162715555Y-109987853D02*
X162776031Y-110108805D01*
X162776031Y-110108805D02*
X162836507Y-110169282D01*
X162836507Y-110169282D02*
X162957459Y-110229758D01*
X162957459Y-110229758D02*
X163259840Y-110229758D01*
X163259840Y-110229758D02*
X163380793Y-110169282D01*
X163380793Y-110169282D02*
X163441269Y-110108805D01*
X163441269Y-110108805D02*
X163501745Y-109987853D01*
X163501745Y-109987853D02*
X163501745Y-109745948D01*
X163501745Y-109745948D02*
X163441269Y-109624996D01*
X163441269Y-109624996D02*
X163380793Y-109564520D01*
X163380793Y-109564520D02*
X163259840Y-109504043D01*
%TO.C,K3*%
X176974118Y-100637526D02*
X176974118Y-99367526D01*
X177699833Y-100637526D02*
X177155547Y-99911811D01*
X177699833Y-99367526D02*
X176974118Y-100093240D01*
X178123166Y-99367526D02*
X178909357Y-99367526D01*
X178909357Y-99367526D02*
X178486023Y-99851335D01*
X178486023Y-99851335D02*
X178667452Y-99851335D01*
X178667452Y-99851335D02*
X178788404Y-99911811D01*
X178788404Y-99911811D02*
X178848880Y-99972288D01*
X178848880Y-99972288D02*
X178909357Y-100093240D01*
X178909357Y-100093240D02*
X178909357Y-100395621D01*
X178909357Y-100395621D02*
X178848880Y-100516573D01*
X178848880Y-100516573D02*
X178788404Y-100577050D01*
X178788404Y-100577050D02*
X178667452Y-100637526D01*
X178667452Y-100637526D02*
X178304595Y-100637526D01*
X178304595Y-100637526D02*
X178183642Y-100577050D01*
X178183642Y-100577050D02*
X178123166Y-100516573D01*
D10*
%TO.C,J5*%
X177311666Y-119137619D02*
X177311666Y-119851904D01*
X177311666Y-119851904D02*
X177264047Y-119994761D01*
X177264047Y-119994761D02*
X177168809Y-120090000D01*
X177168809Y-120090000D02*
X177025952Y-120137619D01*
X177025952Y-120137619D02*
X176930714Y-120137619D01*
X178264047Y-119137619D02*
X177787857Y-119137619D01*
X177787857Y-119137619D02*
X177740238Y-119613809D01*
X177740238Y-119613809D02*
X177787857Y-119566190D01*
X177787857Y-119566190D02*
X177883095Y-119518571D01*
X177883095Y-119518571D02*
X178121190Y-119518571D01*
X178121190Y-119518571D02*
X178216428Y-119566190D01*
X178216428Y-119566190D02*
X178264047Y-119613809D01*
X178264047Y-119613809D02*
X178311666Y-119709047D01*
X178311666Y-119709047D02*
X178311666Y-119947142D01*
X178311666Y-119947142D02*
X178264047Y-120042380D01*
X178264047Y-120042380D02*
X178216428Y-120090000D01*
X178216428Y-120090000D02*
X178121190Y-120137619D01*
X178121190Y-120137619D02*
X177883095Y-120137619D01*
X177883095Y-120137619D02*
X177787857Y-120090000D01*
X177787857Y-120090000D02*
X177740238Y-120042380D01*
D11*
%TO.C,CP2*%
X156612332Y-89200273D02*
X156551856Y-89260750D01*
X156551856Y-89260750D02*
X156370427Y-89321226D01*
X156370427Y-89321226D02*
X156249475Y-89321226D01*
X156249475Y-89321226D02*
X156068046Y-89260750D01*
X156068046Y-89260750D02*
X155947094Y-89139797D01*
X155947094Y-89139797D02*
X155886617Y-89018845D01*
X155886617Y-89018845D02*
X155826141Y-88776940D01*
X155826141Y-88776940D02*
X155826141Y-88595511D01*
X155826141Y-88595511D02*
X155886617Y-88353607D01*
X155886617Y-88353607D02*
X155947094Y-88232654D01*
X155947094Y-88232654D02*
X156068046Y-88111702D01*
X156068046Y-88111702D02*
X156249475Y-88051226D01*
X156249475Y-88051226D02*
X156370427Y-88051226D01*
X156370427Y-88051226D02*
X156551856Y-88111702D01*
X156551856Y-88111702D02*
X156612332Y-88172178D01*
X157156617Y-89321226D02*
X157156617Y-88051226D01*
X157156617Y-88051226D02*
X157640427Y-88051226D01*
X157640427Y-88051226D02*
X157761379Y-88111702D01*
X157761379Y-88111702D02*
X157821856Y-88172178D01*
X157821856Y-88172178D02*
X157882332Y-88293130D01*
X157882332Y-88293130D02*
X157882332Y-88474559D01*
X157882332Y-88474559D02*
X157821856Y-88595511D01*
X157821856Y-88595511D02*
X157761379Y-88655988D01*
X157761379Y-88655988D02*
X157640427Y-88716464D01*
X157640427Y-88716464D02*
X157156617Y-88716464D01*
X158366141Y-88172178D02*
X158426617Y-88111702D01*
X158426617Y-88111702D02*
X158547570Y-88051226D01*
X158547570Y-88051226D02*
X158849951Y-88051226D01*
X158849951Y-88051226D02*
X158970903Y-88111702D01*
X158970903Y-88111702D02*
X159031379Y-88172178D01*
X159031379Y-88172178D02*
X159091856Y-88293130D01*
X159091856Y-88293130D02*
X159091856Y-88414083D01*
X159091856Y-88414083D02*
X159031379Y-88595511D01*
X159031379Y-88595511D02*
X158305665Y-89321226D01*
X158305665Y-89321226D02*
X159091856Y-89321226D01*
%TO.C,R6*%
X162715555Y-104083567D02*
X162110793Y-104506901D01*
X162715555Y-104809282D02*
X161445555Y-104809282D01*
X161445555Y-104809282D02*
X161445555Y-104325472D01*
X161445555Y-104325472D02*
X161506031Y-104204520D01*
X161506031Y-104204520D02*
X161566507Y-104144043D01*
X161566507Y-104144043D02*
X161687459Y-104083567D01*
X161687459Y-104083567D02*
X161868888Y-104083567D01*
X161868888Y-104083567D02*
X161989840Y-104144043D01*
X161989840Y-104144043D02*
X162050317Y-104204520D01*
X162050317Y-104204520D02*
X162110793Y-104325472D01*
X162110793Y-104325472D02*
X162110793Y-104809282D01*
X161445555Y-102994996D02*
X161445555Y-103236901D01*
X161445555Y-103236901D02*
X161506031Y-103357853D01*
X161506031Y-103357853D02*
X161566507Y-103418329D01*
X161566507Y-103418329D02*
X161747936Y-103539282D01*
X161747936Y-103539282D02*
X161989840Y-103599758D01*
X161989840Y-103599758D02*
X162473650Y-103599758D01*
X162473650Y-103599758D02*
X162594602Y-103539282D01*
X162594602Y-103539282D02*
X162655079Y-103478805D01*
X162655079Y-103478805D02*
X162715555Y-103357853D01*
X162715555Y-103357853D02*
X162715555Y-103115948D01*
X162715555Y-103115948D02*
X162655079Y-102994996D01*
X162655079Y-102994996D02*
X162594602Y-102934520D01*
X162594602Y-102934520D02*
X162473650Y-102874043D01*
X162473650Y-102874043D02*
X162171269Y-102874043D01*
X162171269Y-102874043D02*
X162050317Y-102934520D01*
X162050317Y-102934520D02*
X161989840Y-102994996D01*
X161989840Y-102994996D02*
X161929364Y-103115948D01*
X161929364Y-103115948D02*
X161929364Y-103357853D01*
X161929364Y-103357853D02*
X161989840Y-103478805D01*
X161989840Y-103478805D02*
X162050317Y-103539282D01*
X162050317Y-103539282D02*
X162171269Y-103599758D01*
%TO.C,R14*%
X152149497Y-91964527D02*
X151544735Y-92387861D01*
X152149497Y-92690242D02*
X150879497Y-92690242D01*
X150879497Y-92690242D02*
X150879497Y-92206432D01*
X150879497Y-92206432D02*
X150939973Y-92085480D01*
X150939973Y-92085480D02*
X151000449Y-92025003D01*
X151000449Y-92025003D02*
X151121401Y-91964527D01*
X151121401Y-91964527D02*
X151302830Y-91964527D01*
X151302830Y-91964527D02*
X151423782Y-92025003D01*
X151423782Y-92025003D02*
X151484259Y-92085480D01*
X151484259Y-92085480D02*
X151544735Y-92206432D01*
X151544735Y-92206432D02*
X151544735Y-92690242D01*
X152149497Y-90755003D02*
X152149497Y-91480718D01*
X152149497Y-91117861D02*
X150879497Y-91117861D01*
X150879497Y-91117861D02*
X151060925Y-91238813D01*
X151060925Y-91238813D02*
X151181878Y-91359765D01*
X151181878Y-91359765D02*
X151242354Y-91480718D01*
X151302830Y-89666432D02*
X152149497Y-89666432D01*
X150819021Y-89968813D02*
X151726163Y-90271194D01*
X151726163Y-90271194D02*
X151726163Y-89485003D01*
%TO.C,R8*%
X150015555Y-102813567D02*
X149410793Y-103236901D01*
X150015555Y-103539282D02*
X148745555Y-103539282D01*
X148745555Y-103539282D02*
X148745555Y-103055472D01*
X148745555Y-103055472D02*
X148806031Y-102934520D01*
X148806031Y-102934520D02*
X148866507Y-102874043D01*
X148866507Y-102874043D02*
X148987459Y-102813567D01*
X148987459Y-102813567D02*
X149168888Y-102813567D01*
X149168888Y-102813567D02*
X149289840Y-102874043D01*
X149289840Y-102874043D02*
X149350317Y-102934520D01*
X149350317Y-102934520D02*
X149410793Y-103055472D01*
X149410793Y-103055472D02*
X149410793Y-103539282D01*
X149289840Y-102087853D02*
X149229364Y-102208805D01*
X149229364Y-102208805D02*
X149168888Y-102269282D01*
X149168888Y-102269282D02*
X149047936Y-102329758D01*
X149047936Y-102329758D02*
X148987459Y-102329758D01*
X148987459Y-102329758D02*
X148866507Y-102269282D01*
X148866507Y-102269282D02*
X148806031Y-102208805D01*
X148806031Y-102208805D02*
X148745555Y-102087853D01*
X148745555Y-102087853D02*
X148745555Y-101845948D01*
X148745555Y-101845948D02*
X148806031Y-101724996D01*
X148806031Y-101724996D02*
X148866507Y-101664520D01*
X148866507Y-101664520D02*
X148987459Y-101604043D01*
X148987459Y-101604043D02*
X149047936Y-101604043D01*
X149047936Y-101604043D02*
X149168888Y-101664520D01*
X149168888Y-101664520D02*
X149229364Y-101724996D01*
X149229364Y-101724996D02*
X149289840Y-101845948D01*
X149289840Y-101845948D02*
X149289840Y-102087853D01*
X149289840Y-102087853D02*
X149350317Y-102208805D01*
X149350317Y-102208805D02*
X149410793Y-102269282D01*
X149410793Y-102269282D02*
X149531745Y-102329758D01*
X149531745Y-102329758D02*
X149773650Y-102329758D01*
X149773650Y-102329758D02*
X149894602Y-102269282D01*
X149894602Y-102269282D02*
X149955079Y-102208805D01*
X149955079Y-102208805D02*
X150015555Y-102087853D01*
X150015555Y-102087853D02*
X150015555Y-101845948D01*
X150015555Y-101845948D02*
X149955079Y-101724996D01*
X149955079Y-101724996D02*
X149894602Y-101664520D01*
X149894602Y-101664520D02*
X149773650Y-101604043D01*
X149773650Y-101604043D02*
X149531745Y-101604043D01*
X149531745Y-101604043D02*
X149410793Y-101664520D01*
X149410793Y-101664520D02*
X149350317Y-101724996D01*
X149350317Y-101724996D02*
X149289840Y-101845948D01*
D10*
%TO.C,C1*%
X127103333Y-87777380D02*
X127055714Y-87825000D01*
X127055714Y-87825000D02*
X126912857Y-87872619D01*
X126912857Y-87872619D02*
X126817619Y-87872619D01*
X126817619Y-87872619D02*
X126674762Y-87825000D01*
X126674762Y-87825000D02*
X126579524Y-87729761D01*
X126579524Y-87729761D02*
X126531905Y-87634523D01*
X126531905Y-87634523D02*
X126484286Y-87444047D01*
X126484286Y-87444047D02*
X126484286Y-87301190D01*
X126484286Y-87301190D02*
X126531905Y-87110714D01*
X126531905Y-87110714D02*
X126579524Y-87015476D01*
X126579524Y-87015476D02*
X126674762Y-86920238D01*
X126674762Y-86920238D02*
X126817619Y-86872619D01*
X126817619Y-86872619D02*
X126912857Y-86872619D01*
X126912857Y-86872619D02*
X127055714Y-86920238D01*
X127055714Y-86920238D02*
X127103333Y-86967857D01*
X128055714Y-87872619D02*
X127484286Y-87872619D01*
X127770000Y-87872619D02*
X127770000Y-86872619D01*
X127770000Y-86872619D02*
X127674762Y-87015476D01*
X127674762Y-87015476D02*
X127579524Y-87110714D01*
X127579524Y-87110714D02*
X127484286Y-87158333D01*
%TO.C,J6*%
X170217619Y-90378333D02*
X170931904Y-90378333D01*
X170931904Y-90378333D02*
X171074761Y-90425952D01*
X171074761Y-90425952D02*
X171170000Y-90521190D01*
X171170000Y-90521190D02*
X171217619Y-90664047D01*
X171217619Y-90664047D02*
X171217619Y-90759285D01*
X170217619Y-89473571D02*
X170217619Y-89664047D01*
X170217619Y-89664047D02*
X170265238Y-89759285D01*
X170265238Y-89759285D02*
X170312857Y-89806904D01*
X170312857Y-89806904D02*
X170455714Y-89902142D01*
X170455714Y-89902142D02*
X170646190Y-89949761D01*
X170646190Y-89949761D02*
X171027142Y-89949761D01*
X171027142Y-89949761D02*
X171122380Y-89902142D01*
X171122380Y-89902142D02*
X171170000Y-89854523D01*
X171170000Y-89854523D02*
X171217619Y-89759285D01*
X171217619Y-89759285D02*
X171217619Y-89568809D01*
X171217619Y-89568809D02*
X171170000Y-89473571D01*
X171170000Y-89473571D02*
X171122380Y-89425952D01*
X171122380Y-89425952D02*
X171027142Y-89378333D01*
X171027142Y-89378333D02*
X170789047Y-89378333D01*
X170789047Y-89378333D02*
X170693809Y-89425952D01*
X170693809Y-89425952D02*
X170646190Y-89473571D01*
X170646190Y-89473571D02*
X170598571Y-89568809D01*
X170598571Y-89568809D02*
X170598571Y-89759285D01*
X170598571Y-89759285D02*
X170646190Y-89854523D01*
X170646190Y-89854523D02*
X170693809Y-89902142D01*
X170693809Y-89902142D02*
X170789047Y-89949761D01*
D11*
%TO.C,K2*%
X132667526Y-100987381D02*
X131397526Y-100987381D01*
X132667526Y-100261666D02*
X131941811Y-100805952D01*
X131397526Y-100261666D02*
X132123240Y-100987381D01*
X131518478Y-99777857D02*
X131458002Y-99717381D01*
X131458002Y-99717381D02*
X131397526Y-99596428D01*
X131397526Y-99596428D02*
X131397526Y-99294047D01*
X131397526Y-99294047D02*
X131458002Y-99173095D01*
X131458002Y-99173095D02*
X131518478Y-99112619D01*
X131518478Y-99112619D02*
X131639430Y-99052142D01*
X131639430Y-99052142D02*
X131760383Y-99052142D01*
X131760383Y-99052142D02*
X131941811Y-99112619D01*
X131941811Y-99112619D02*
X132667526Y-99838333D01*
X132667526Y-99838333D02*
X132667526Y-99052142D01*
%TO.C,R4*%
X143286432Y-105285555D02*
X142863098Y-104680793D01*
X142560717Y-105285555D02*
X142560717Y-104015555D01*
X142560717Y-104015555D02*
X143044527Y-104015555D01*
X143044527Y-104015555D02*
X143165479Y-104076031D01*
X143165479Y-104076031D02*
X143225956Y-104136507D01*
X143225956Y-104136507D02*
X143286432Y-104257459D01*
X143286432Y-104257459D02*
X143286432Y-104438888D01*
X143286432Y-104438888D02*
X143225956Y-104559840D01*
X143225956Y-104559840D02*
X143165479Y-104620317D01*
X143165479Y-104620317D02*
X143044527Y-104680793D01*
X143044527Y-104680793D02*
X142560717Y-104680793D01*
X144375003Y-104438888D02*
X144375003Y-105285555D01*
X144072622Y-103955079D02*
X143770241Y-104862221D01*
X143770241Y-104862221D02*
X144556432Y-104862221D01*
%TO.C,K1*%
X138172618Y-85016526D02*
X138172618Y-83746526D01*
X138898333Y-85016526D02*
X138354047Y-84290811D01*
X138898333Y-83746526D02*
X138172618Y-84472240D01*
X140107857Y-85016526D02*
X139382142Y-85016526D01*
X139744999Y-85016526D02*
X139744999Y-83746526D01*
X139744999Y-83746526D02*
X139624047Y-83927954D01*
X139624047Y-83927954D02*
X139503095Y-84048907D01*
X139503095Y-84048907D02*
X139382142Y-84109383D01*
D10*
%TO.C,J2*%
X157058333Y-94808666D02*
X157058333Y-95808666D01*
X157058333Y-95808666D02*
X156991666Y-96008666D01*
X156991666Y-96008666D02*
X156858333Y-96142000D01*
X156858333Y-96142000D02*
X156658333Y-96208666D01*
X156658333Y-96208666D02*
X156525000Y-96208666D01*
X157658333Y-94942000D02*
X157725000Y-94875333D01*
X157725000Y-94875333D02*
X157858333Y-94808666D01*
X157858333Y-94808666D02*
X158191667Y-94808666D01*
X158191667Y-94808666D02*
X158325000Y-94875333D01*
X158325000Y-94875333D02*
X158391667Y-94942000D01*
X158391667Y-94942000D02*
X158458333Y-95075333D01*
X158458333Y-95075333D02*
X158458333Y-95208666D01*
X158458333Y-95208666D02*
X158391667Y-95408666D01*
X158391667Y-95408666D02*
X157591667Y-96208666D01*
X157591667Y-96208666D02*
X158458333Y-96208666D01*
%TO.C,J4*%
X128091666Y-78617619D02*
X128091666Y-79331904D01*
X128091666Y-79331904D02*
X128044047Y-79474761D01*
X128044047Y-79474761D02*
X127948809Y-79570000D01*
X127948809Y-79570000D02*
X127805952Y-79617619D01*
X127805952Y-79617619D02*
X127710714Y-79617619D01*
X128996428Y-78950952D02*
X128996428Y-79617619D01*
X128758333Y-78570000D02*
X128520238Y-79284285D01*
X128520238Y-79284285D02*
X129139285Y-79284285D01*
D11*
%TO.C,R2*%
X178819497Y-107869765D02*
X178214735Y-108293099D01*
X178819497Y-108595480D02*
X177549497Y-108595480D01*
X177549497Y-108595480D02*
X177549497Y-108111670D01*
X177549497Y-108111670D02*
X177609973Y-107990718D01*
X177609973Y-107990718D02*
X177670449Y-107930241D01*
X177670449Y-107930241D02*
X177791401Y-107869765D01*
X177791401Y-107869765D02*
X177972830Y-107869765D01*
X177972830Y-107869765D02*
X178093782Y-107930241D01*
X178093782Y-107930241D02*
X178154259Y-107990718D01*
X178154259Y-107990718D02*
X178214735Y-108111670D01*
X178214735Y-108111670D02*
X178214735Y-108595480D01*
X177670449Y-107385956D02*
X177609973Y-107325480D01*
X177609973Y-107325480D02*
X177549497Y-107204527D01*
X177549497Y-107204527D02*
X177549497Y-106902146D01*
X177549497Y-106902146D02*
X177609973Y-106781194D01*
X177609973Y-106781194D02*
X177670449Y-106720718D01*
X177670449Y-106720718D02*
X177791401Y-106660241D01*
X177791401Y-106660241D02*
X177912354Y-106660241D01*
X177912354Y-106660241D02*
X178093782Y-106720718D01*
X178093782Y-106720718D02*
X178819497Y-107446432D01*
X178819497Y-107446432D02*
X178819497Y-106660241D01*
%TO.C,Q1*%
X141487916Y-111394536D02*
X141427440Y-111515488D01*
X141427440Y-111515488D02*
X141306488Y-111636441D01*
X141306488Y-111636441D02*
X141125059Y-111817869D01*
X141125059Y-111817869D02*
X141064583Y-111938822D01*
X141064583Y-111938822D02*
X141064583Y-112059774D01*
X141366964Y-111999298D02*
X141306488Y-112120250D01*
X141306488Y-112120250D02*
X141185535Y-112241203D01*
X141185535Y-112241203D02*
X140943630Y-112301679D01*
X140943630Y-112301679D02*
X140520297Y-112301679D01*
X140520297Y-112301679D02*
X140278392Y-112241203D01*
X140278392Y-112241203D02*
X140157440Y-112120250D01*
X140157440Y-112120250D02*
X140096964Y-111999298D01*
X140096964Y-111999298D02*
X140096964Y-111757393D01*
X140096964Y-111757393D02*
X140157440Y-111636441D01*
X140157440Y-111636441D02*
X140278392Y-111515488D01*
X140278392Y-111515488D02*
X140520297Y-111455012D01*
X140520297Y-111455012D02*
X140943630Y-111455012D01*
X140943630Y-111455012D02*
X141185535Y-111515488D01*
X141185535Y-111515488D02*
X141306488Y-111636441D01*
X141306488Y-111636441D02*
X141366964Y-111757393D01*
X141366964Y-111757393D02*
X141366964Y-111999298D01*
X141366964Y-110245488D02*
X141366964Y-110971203D01*
X141366964Y-110608346D02*
X140096964Y-110608346D01*
X140096964Y-110608346D02*
X140278392Y-110729298D01*
X140278392Y-110729298D02*
X140399345Y-110850250D01*
X140399345Y-110850250D02*
X140459821Y-110971203D01*
%TO.C,R5*%
X162715555Y-98013567D02*
X162110793Y-98436901D01*
X162715555Y-98739282D02*
X161445555Y-98739282D01*
X161445555Y-98739282D02*
X161445555Y-98255472D01*
X161445555Y-98255472D02*
X161506031Y-98134520D01*
X161506031Y-98134520D02*
X161566507Y-98074043D01*
X161566507Y-98074043D02*
X161687459Y-98013567D01*
X161687459Y-98013567D02*
X161868888Y-98013567D01*
X161868888Y-98013567D02*
X161989840Y-98074043D01*
X161989840Y-98074043D02*
X162050317Y-98134520D01*
X162050317Y-98134520D02*
X162110793Y-98255472D01*
X162110793Y-98255472D02*
X162110793Y-98739282D01*
X161445555Y-96864520D02*
X161445555Y-97469282D01*
X161445555Y-97469282D02*
X162050317Y-97529758D01*
X162050317Y-97529758D02*
X161989840Y-97469282D01*
X161989840Y-97469282D02*
X161929364Y-97348329D01*
X161929364Y-97348329D02*
X161929364Y-97045948D01*
X161929364Y-97045948D02*
X161989840Y-96924996D01*
X161989840Y-96924996D02*
X162050317Y-96864520D01*
X162050317Y-96864520D02*
X162171269Y-96804043D01*
X162171269Y-96804043D02*
X162473650Y-96804043D01*
X162473650Y-96804043D02*
X162594602Y-96864520D01*
X162594602Y-96864520D02*
X162655079Y-96924996D01*
X162655079Y-96924996D02*
X162715555Y-97045948D01*
X162715555Y-97045948D02*
X162715555Y-97348329D01*
X162715555Y-97348329D02*
X162655079Y-97469282D01*
X162655079Y-97469282D02*
X162594602Y-97529758D01*
%TO.C,R1*%
X137964333Y-92255526D02*
X137540999Y-91650764D01*
X137238618Y-92255526D02*
X137238618Y-90985526D01*
X137238618Y-90985526D02*
X137722428Y-90985526D01*
X137722428Y-90985526D02*
X137843380Y-91046002D01*
X137843380Y-91046002D02*
X137903857Y-91106478D01*
X137903857Y-91106478D02*
X137964333Y-91227430D01*
X137964333Y-91227430D02*
X137964333Y-91408859D01*
X137964333Y-91408859D02*
X137903857Y-91529811D01*
X137903857Y-91529811D02*
X137843380Y-91590288D01*
X137843380Y-91590288D02*
X137722428Y-91650764D01*
X137722428Y-91650764D02*
X137238618Y-91650764D01*
X139173857Y-92255526D02*
X138448142Y-92255526D01*
X138810999Y-92255526D02*
X138810999Y-90985526D01*
X138810999Y-90985526D02*
X138690047Y-91166954D01*
X138690047Y-91166954D02*
X138569095Y-91287907D01*
X138569095Y-91287907D02*
X138448142Y-91348383D01*
%TO.C,K4*%
X165479550Y-116419230D02*
X165479550Y-115149230D01*
X166205265Y-116419230D02*
X165660979Y-115693515D01*
X166205265Y-115149230D02*
X165479550Y-115874944D01*
X167293836Y-115572563D02*
X167293836Y-116419230D01*
X166991455Y-115088754D02*
X166689074Y-115995896D01*
X166689074Y-115995896D02*
X167475265Y-115995896D01*
%TO.C,U1*%
X124176898Y-93382831D02*
X125204993Y-93382831D01*
X125204993Y-93382831D02*
X125325945Y-93322354D01*
X125325945Y-93322354D02*
X125386422Y-93261878D01*
X125386422Y-93261878D02*
X125446898Y-93140926D01*
X125446898Y-93140926D02*
X125446898Y-92899021D01*
X125446898Y-92899021D02*
X125386422Y-92778069D01*
X125386422Y-92778069D02*
X125325945Y-92717592D01*
X125325945Y-92717592D02*
X125204993Y-92657116D01*
X125204993Y-92657116D02*
X124176898Y-92657116D01*
X125446898Y-91387116D02*
X125446898Y-92112831D01*
X125446898Y-91749974D02*
X124176898Y-91749974D01*
X124176898Y-91749974D02*
X124358326Y-91870926D01*
X124358326Y-91870926D02*
X124479279Y-91991878D01*
X124479279Y-91991878D02*
X124539755Y-92112831D01*
D12*
%TO.C,R15*%
X170180000Y-94270000D02*
X170180000Y-95670000D01*
D13*
%TO.C,K6*%
X150495000Y-87096000D02*
X150495000Y-82524000D01*
X156845000Y-87096000D02*
X150495000Y-87096000D01*
X158070000Y-87010000D02*
X158070000Y-87010000D01*
X158070000Y-86910000D02*
X158070000Y-86910000D01*
X150495000Y-82524000D02*
X156845000Y-82524000D01*
X156845000Y-82524000D02*
X156845000Y-87096000D01*
X158070000Y-86910000D02*
G75*
G03*
X158070000Y-87010000I0J-50000D01*
G01*
X158070000Y-87010000D02*
G75*
G03*
X158070000Y-86910000I0J50000D01*
G01*
D12*
%TO.C,R3*%
X137730000Y-107670000D02*
X139130000Y-107670000D01*
%TO.C,R7*%
X150430000Y-97510000D02*
X151830000Y-97510000D01*
D13*
%TO.C,K5*%
X153035000Y-117576000D02*
X153035000Y-113004000D01*
X159385000Y-117576000D02*
X153035000Y-117576000D01*
X160610000Y-117490000D02*
X160610000Y-117490000D01*
X160610000Y-117390000D02*
X160610000Y-117390000D01*
X153035000Y-113004000D02*
X159385000Y-113004000D01*
X159385000Y-113004000D02*
X159385000Y-117576000D01*
X160610000Y-117390000D02*
G75*
G03*
X160610000Y-117490000I0J-50000D01*
G01*
X160610000Y-117490000D02*
G75*
G03*
X160610000Y-117390000I0J50000D01*
G01*
D14*
%TO.C,J3*%
X172795000Y-81710000D02*
X177725000Y-81710000D01*
X172795000Y-88060000D02*
X172795000Y-81710000D01*
X177725000Y-81710000D02*
X177725000Y-88060000D01*
X177725000Y-88060000D02*
X172795000Y-88060000D01*
D12*
X172090000Y-84810000D02*
G75*
G03*
X172090000Y-84810000I-100000J0D01*
G01*
%TO.C,CP1*%
X154005000Y-105090000D02*
X155532000Y-105090000D01*
X155882000Y-105218000D02*
X159078000Y-105218000D01*
X155882000Y-110122000D02*
X155882000Y-105218000D01*
X159078000Y-105218000D02*
X159078000Y-110122000D01*
X159078000Y-110122000D02*
X155882000Y-110122000D01*
D14*
%TO.C,J1*%
X136450000Y-105205000D02*
X130100000Y-105205000D01*
X130100000Y-105205000D02*
X130100000Y-112675000D01*
X136450000Y-112675000D02*
X136450000Y-105205000D01*
X130100000Y-112675000D02*
X136450000Y-112675000D01*
D12*
X133550000Y-104640000D02*
G75*
G03*
X133550000Y-104640000I-100000J0D01*
G01*
%TO.C,R9*%
X164400000Y-110490000D02*
X165800000Y-110490000D01*
D11*
%TO.C,K3*%
X181290000Y-104031905D02*
X166790000Y-104031905D01*
X181290000Y-101704905D02*
X181290000Y-99125905D01*
X181290000Y-96831905D02*
X166790000Y-96831905D01*
X166790000Y-101793905D02*
X166790000Y-99036905D01*
X180505810Y-96079905D02*
G75*
G03*
X180505810Y-96079905I-134810J0D01*
G01*
D14*
%TO.C,J5*%
X180265000Y-118390000D02*
X175335000Y-118390000D01*
X180265000Y-112040000D02*
X180265000Y-118390000D01*
X175335000Y-118390000D02*
X175335000Y-112040000D01*
X175335000Y-112040000D02*
X180265000Y-112040000D01*
D12*
X181170000Y-115290000D02*
G75*
G03*
X181170000Y-115290000I-100000J0D01*
G01*
%TO.C,CP2*%
X154005000Y-89850000D02*
X155532000Y-89850000D01*
X155882000Y-89978000D02*
X159078000Y-89978000D01*
X155882000Y-94882000D02*
X155882000Y-89978000D01*
X159078000Y-89978000D02*
X159078000Y-94882000D01*
X159078000Y-94882000D02*
X155882000Y-94882000D01*
%TO.C,R6*%
X163130000Y-103860000D02*
X164530000Y-103860000D01*
%TO.C,R14*%
X150560000Y-91160000D02*
X149160000Y-91160000D01*
%TO.C,R8*%
X150430000Y-102590000D02*
X151830000Y-102590000D01*
D15*
%TO.C,C1*%
X124465225Y-89685000D02*
X124965225Y-89685000D01*
X124715225Y-89435000D02*
X124715225Y-89935000D01*
X127270000Y-88580000D02*
X127270000Y-90120000D01*
X127270000Y-92200000D02*
X127270000Y-93740000D01*
X127310000Y-88580000D02*
X127310000Y-90120000D01*
X127310000Y-92200000D02*
X127310000Y-93740000D01*
X127350000Y-88581000D02*
X127350000Y-90120000D01*
X127350000Y-92200000D02*
X127350000Y-93739000D01*
X127390000Y-88582000D02*
X127390000Y-90120000D01*
X127390000Y-92200000D02*
X127390000Y-93738000D01*
X127430000Y-88584000D02*
X127430000Y-90120000D01*
X127430000Y-92200000D02*
X127430000Y-93736000D01*
X127470000Y-88587000D02*
X127470000Y-90120000D01*
X127470000Y-92200000D02*
X127470000Y-93733000D01*
X127510000Y-88591000D02*
X127510000Y-90120000D01*
X127510000Y-92200000D02*
X127510000Y-93729000D01*
X127550000Y-88595000D02*
X127550000Y-90120000D01*
X127550000Y-92200000D02*
X127550000Y-93725000D01*
X127590000Y-88599000D02*
X127590000Y-90120000D01*
X127590000Y-92200000D02*
X127590000Y-93721000D01*
X127630000Y-88604000D02*
X127630000Y-90120000D01*
X127630000Y-92200000D02*
X127630000Y-93716000D01*
X127670000Y-88610000D02*
X127670000Y-90120000D01*
X127670000Y-92200000D02*
X127670000Y-93710000D01*
X127710000Y-88617000D02*
X127710000Y-90120000D01*
X127710000Y-92200000D02*
X127710000Y-93703000D01*
X127750000Y-88624000D02*
X127750000Y-90120000D01*
X127750000Y-92200000D02*
X127750000Y-93696000D01*
X127790000Y-88632000D02*
X127790000Y-90120000D01*
X127790000Y-92200000D02*
X127790000Y-93688000D01*
X127830000Y-88640000D02*
X127830000Y-90120000D01*
X127830000Y-92200000D02*
X127830000Y-93680000D01*
X127870000Y-88649000D02*
X127870000Y-90120000D01*
X127870000Y-92200000D02*
X127870000Y-93671000D01*
X127910000Y-88659000D02*
X127910000Y-90120000D01*
X127910000Y-92200000D02*
X127910000Y-93661000D01*
X127950000Y-88669000D02*
X127950000Y-90120000D01*
X127950000Y-92200000D02*
X127950000Y-93651000D01*
X127991000Y-88680000D02*
X127991000Y-90120000D01*
X127991000Y-92200000D02*
X127991000Y-93640000D01*
X128031000Y-88692000D02*
X128031000Y-90120000D01*
X128031000Y-92200000D02*
X128031000Y-93628000D01*
X128071000Y-88705000D02*
X128071000Y-90120000D01*
X128071000Y-92200000D02*
X128071000Y-93615000D01*
X128111000Y-88718000D02*
X128111000Y-90120000D01*
X128111000Y-92200000D02*
X128111000Y-93602000D01*
X128151000Y-88732000D02*
X128151000Y-90120000D01*
X128151000Y-92200000D02*
X128151000Y-93588000D01*
X128191000Y-88746000D02*
X128191000Y-90120000D01*
X128191000Y-92200000D02*
X128191000Y-93574000D01*
X128231000Y-88762000D02*
X128231000Y-90120000D01*
X128231000Y-92200000D02*
X128231000Y-93558000D01*
X128271000Y-88778000D02*
X128271000Y-90120000D01*
X128271000Y-92200000D02*
X128271000Y-93542000D01*
X128311000Y-88795000D02*
X128311000Y-90120000D01*
X128311000Y-92200000D02*
X128311000Y-93525000D01*
X128351000Y-88812000D02*
X128351000Y-90120000D01*
X128351000Y-92200000D02*
X128351000Y-93508000D01*
X128391000Y-88831000D02*
X128391000Y-90120000D01*
X128391000Y-92200000D02*
X128391000Y-93489000D01*
X128431000Y-88850000D02*
X128431000Y-90120000D01*
X128431000Y-92200000D02*
X128431000Y-93470000D01*
X128471000Y-88870000D02*
X128471000Y-90120000D01*
X128471000Y-92200000D02*
X128471000Y-93450000D01*
X128511000Y-88892000D02*
X128511000Y-90120000D01*
X128511000Y-92200000D02*
X128511000Y-93428000D01*
X128551000Y-88913000D02*
X128551000Y-90120000D01*
X128551000Y-92200000D02*
X128551000Y-93407000D01*
X128591000Y-88936000D02*
X128591000Y-90120000D01*
X128591000Y-92200000D02*
X128591000Y-93384000D01*
X128631000Y-88960000D02*
X128631000Y-90120000D01*
X128631000Y-92200000D02*
X128631000Y-93360000D01*
X128671000Y-88985000D02*
X128671000Y-90120000D01*
X128671000Y-92200000D02*
X128671000Y-93335000D01*
X128711000Y-89011000D02*
X128711000Y-90120000D01*
X128711000Y-92200000D02*
X128711000Y-93309000D01*
X128751000Y-89038000D02*
X128751000Y-90120000D01*
X128751000Y-92200000D02*
X128751000Y-93282000D01*
X128791000Y-89065000D02*
X128791000Y-90120000D01*
X128791000Y-92200000D02*
X128791000Y-93255000D01*
X128831000Y-89095000D02*
X128831000Y-90120000D01*
X128831000Y-92200000D02*
X128831000Y-93225000D01*
X128871000Y-89125000D02*
X128871000Y-90120000D01*
X128871000Y-92200000D02*
X128871000Y-93195000D01*
X128911000Y-89156000D02*
X128911000Y-90120000D01*
X128911000Y-92200000D02*
X128911000Y-93164000D01*
X128951000Y-89189000D02*
X128951000Y-90120000D01*
X128951000Y-92200000D02*
X128951000Y-93131000D01*
X128991000Y-89223000D02*
X128991000Y-90120000D01*
X128991000Y-92200000D02*
X128991000Y-93097000D01*
X129031000Y-89259000D02*
X129031000Y-90120000D01*
X129031000Y-92200000D02*
X129031000Y-93061000D01*
X129071000Y-89296000D02*
X129071000Y-90120000D01*
X129071000Y-92200000D02*
X129071000Y-93024000D01*
X129111000Y-89334000D02*
X129111000Y-90120000D01*
X129111000Y-92200000D02*
X129111000Y-92986000D01*
X129151000Y-89375000D02*
X129151000Y-90120000D01*
X129151000Y-92200000D02*
X129151000Y-92945000D01*
X129191000Y-89417000D02*
X129191000Y-90120000D01*
X129191000Y-92200000D02*
X129191000Y-92903000D01*
X129231000Y-89461000D02*
X129231000Y-90120000D01*
X129231000Y-92200000D02*
X129231000Y-92859000D01*
X129271000Y-89507000D02*
X129271000Y-90120000D01*
X129271000Y-92200000D02*
X129271000Y-92813000D01*
X129311000Y-89555000D02*
X129311000Y-92765000D01*
X129351000Y-89606000D02*
X129351000Y-92714000D01*
X129391000Y-89660000D02*
X129391000Y-92660000D01*
X129431000Y-89717000D02*
X129431000Y-92603000D01*
X129471000Y-89777000D02*
X129471000Y-92543000D01*
X129511000Y-89841000D02*
X129511000Y-92479000D01*
X129551000Y-89909000D02*
X129551000Y-92411000D01*
X129591000Y-89982000D02*
X129591000Y-92338000D01*
X129631000Y-90062000D02*
X129631000Y-92258000D01*
X129671000Y-90149000D02*
X129671000Y-92171000D01*
X129711000Y-90245000D02*
X129711000Y-92075000D01*
X129751000Y-90355000D02*
X129751000Y-91965000D01*
X129791000Y-90483000D02*
X129791000Y-91837000D01*
X129831000Y-90642000D02*
X129831000Y-91678000D01*
X129871000Y-90876000D02*
X129871000Y-91444000D01*
X129890000Y-91160000D02*
G75*
G03*
X129890000Y-91160000I-2620000J0D01*
G01*
D14*
%TO.C,J6*%
X169470000Y-87425000D02*
X169470000Y-92355000D01*
X163120000Y-87425000D02*
X169470000Y-87425000D01*
X169470000Y-92355000D02*
X163120000Y-92355000D01*
X163120000Y-92355000D02*
X163120000Y-87425000D01*
D12*
X166470000Y-86620000D02*
G75*
G03*
X166470000Y-86620000I-100000J0D01*
G01*
D11*
%TO.C,K2*%
X133781500Y-96450000D02*
X148281500Y-96450000D01*
X133781500Y-98777000D02*
X133781500Y-101356000D01*
X133781500Y-103650000D02*
X148281500Y-103650000D01*
X148281500Y-98688000D02*
X148281500Y-101445000D01*
X134835310Y-104402000D02*
G75*
G03*
X134835310Y-104402000I-134810J0D01*
G01*
D12*
%TO.C,R4*%
X143510000Y-105700000D02*
X143510000Y-107100000D01*
D13*
%TO.C,K1*%
X137205000Y-91033000D02*
X137205000Y-86461000D01*
X143555000Y-91033000D02*
X137205000Y-91033000D01*
X144780000Y-90947000D02*
X144780000Y-90947000D01*
X144780000Y-90847000D02*
X144780000Y-90847000D01*
X137205000Y-86461000D02*
X143555000Y-86461000D01*
X143555000Y-86461000D02*
X143555000Y-91033000D01*
X144780000Y-90847000D02*
G75*
G03*
X144780000Y-90947000I0J-50000D01*
G01*
X144780000Y-90947000D02*
G75*
G03*
X144780000Y-90847000I0J50000D01*
G01*
D14*
%TO.C,J2*%
X153745000Y-96950000D02*
X153745000Y-103300000D01*
X153745000Y-103300000D02*
X161215000Y-103300000D01*
X161215000Y-96950000D02*
X153745000Y-96950000D01*
X161215000Y-103300000D02*
X161215000Y-96950000D01*
D12*
X153280000Y-99950000D02*
G75*
G03*
X153280000Y-99950000I-100000J0D01*
G01*
D14*
%TO.C,J4*%
X125805000Y-80440000D02*
X130735000Y-80440000D01*
X125805000Y-86790000D02*
X125805000Y-80440000D01*
X130735000Y-80440000D02*
X130735000Y-86790000D01*
X130735000Y-86790000D02*
X125805000Y-86790000D01*
D12*
X125100000Y-83540000D02*
G75*
G03*
X125100000Y-83540000I-100000J0D01*
G01*
%TO.C,R2*%
X177230000Y-107670000D02*
X175830000Y-107670000D01*
%TO.C,Q1*%
X142010000Y-112960000D02*
X142010000Y-111660000D01*
X142050000Y-111310000D02*
X142050000Y-111210000D01*
X144970000Y-111310000D02*
X142050000Y-111310000D01*
X142050000Y-111210000D02*
X144970000Y-111210000D01*
X144970000Y-111210000D02*
X144970000Y-111310000D01*
%TO.C,R5*%
X163130000Y-97790000D02*
X164530000Y-97790000D01*
%TO.C,R1*%
X140970000Y-93000000D02*
X140970000Y-94400000D01*
D13*
%TO.C,K4*%
X172466000Y-114655000D02*
X167894000Y-114655000D01*
X172466000Y-108305000D02*
X172466000Y-114655000D01*
X172380000Y-107080000D02*
X172380000Y-107080000D01*
X172280000Y-107080000D02*
X172280000Y-107080000D01*
X167894000Y-114655000D02*
X167894000Y-108305000D01*
X167894000Y-108305000D02*
X172466000Y-108305000D01*
X172280000Y-107080000D02*
G75*
G03*
X172380000Y-107080000I50000J0D01*
G01*
X172380000Y-107080000D02*
G75*
G03*
X172280000Y-107080000I-50000J0D01*
G01*
D11*
%TO.C,U1*%
X128740000Y-94360000D02*
X121190000Y-94360000D01*
X121190000Y-94360000D02*
X121190000Y-105860000D01*
X128740000Y-105860000D02*
X128740000Y-94360000D01*
X121190000Y-105860000D02*
X128740000Y-105860000D01*
X120666000Y-96666000D02*
G75*
G03*
X120666000Y-96666000I-89000J0D01*
G01*
%TD*%
M02*
