%TF.GenerationSoftware,KiCad,Pcbnew,9.0.1*%
%TF.CreationDate,2025-04-28T22:47:37+02:00*%
%TF.ProjectId,SCS IMD-AMD-indicator,53435320-494d-4442-9d41-4d442d696e64,rev?*%
%TF.SameCoordinates,Original*%
%TF.FileFunction,Copper,L2,Bot*%
%TF.FilePolarity,Positive*%
%FSLAX46Y46*%
G04 Gerber Fmt 4.6, Leading zero omitted, Abs format (unit mm)*
G04 Created by KiCad (PCBNEW 9.0.1) date 2025-04-28 22:47:37*
%MOMM*%
%LPD*%
G01*
G04 APERTURE LIST*
G04 Aperture macros list*
%AMRoundRect*
0 Rectangle with rounded corners*
0 $1 Rounding radius*
0 $2 $3 $4 $5 $6 $7 $8 $9 X,Y pos of 4 corners*
0 Add a 4 corners polygon primitive as box body*
4,1,4,$2,$3,$4,$5,$6,$7,$8,$9,$2,$3,0*
0 Add four circle primitives for the rounded corners*
1,1,$1+$1,$2,$3*
1,1,$1+$1,$4,$5*
1,1,$1+$1,$6,$7*
1,1,$1+$1,$8,$9*
0 Add four rect primitives between the rounded corners*
20,1,$1+$1,$2,$3,$4,$5,0*
20,1,$1+$1,$4,$5,$6,$7,0*
20,1,$1+$1,$6,$7,$8,$9,0*
20,1,$1+$1,$8,$9,$2,$3,0*%
G04 Aperture macros list end*
%TA.AperFunction,ComponentPad*%
%ADD10C,0.500000*%
%TD*%
%TA.AperFunction,SMDPad,CuDef*%
%ADD11O,3.000000X2.000000*%
%TD*%
%TA.AperFunction,ComponentPad*%
%ADD12RoundRect,0.250000X-0.845000X0.620000X-0.845000X-0.620000X0.845000X-0.620000X0.845000X0.620000X0*%
%TD*%
%TA.AperFunction,ComponentPad*%
%ADD13O,2.190000X1.740000*%
%TD*%
%TA.AperFunction,ViaPad*%
%ADD14C,0.600000*%
%TD*%
%TA.AperFunction,Conductor*%
%ADD15C,0.200000*%
%TD*%
G04 APERTURE END LIST*
D10*
%TO.P,U6,2,GND*%
%TO.N,GND*%
X44449400Y-46634400D03*
D11*
X43949400Y-46634400D03*
D10*
X43449400Y-46634400D03*
%TD*%
D12*
%TO.P,J1,1,Pin_1*%
%TO.N,/LED_Power*%
X27259600Y-33573800D03*
D13*
%TO.P,J1,2,Pin_2*%
%TO.N,/Raw_PCB_State_OK*%
X27259600Y-36113800D03*
%TD*%
D12*
%TO.P,J2,1,Pin_1*%
%TO.N,GND*%
X49530000Y-39522400D03*
D13*
%TO.P,J2,2,Pin_2*%
%TO.N,+12V*%
X49530000Y-42062400D03*
%TD*%
D14*
%TO.N,GND*%
X40589200Y-34762400D03*
X36576000Y-31750000D03*
X34798000Y-22860000D03*
X47498000Y-34798000D03*
X47498000Y-23622000D03*
X44450000Y-39370000D03*
X27940000Y-25654000D03*
X41656000Y-24130000D03*
%TO.N,Net-(U1-OUT{slash}A)*%
X35170100Y-42518100D03*
X44491600Y-23091300D03*
%TO.N,/0.75V*%
X39555400Y-42972400D03*
X44412500Y-33934700D03*
%TO.N,/4.25V*%
X39377500Y-35331600D03*
X36500500Y-29098700D03*
%TO.N,/Raw_PCB_State_OK*%
X31228700Y-26610800D03*
X30506500Y-32957600D03*
%TO.N,/LED_Power*%
X34796600Y-40888400D03*
%TO.N,Net-(U5-+)*%
X42061200Y-36019300D03*
X36411300Y-33978900D03*
%TD*%
D15*
%TO.N,Net-(U1-OUT{slash}A)*%
X44491600Y-32738100D02*
X35170200Y-42059500D01*
X35170200Y-42059500D02*
X35170200Y-42518100D01*
X44491600Y-23091300D02*
X44491600Y-32738100D01*
X35170200Y-42518100D02*
X35170100Y-42518100D01*
%TO.N,/0.75V*%
X44412500Y-33934700D02*
X44412500Y-38115300D01*
X44412500Y-38115300D02*
X39555400Y-42972400D01*
%TO.N,/4.25V*%
X36500500Y-29098700D02*
X39377500Y-31975700D01*
X39377500Y-31975700D02*
X39377500Y-35331600D01*
%TO.N,/Raw_PCB_State_OK*%
X30506500Y-27333000D02*
X31228700Y-26610800D01*
X30506500Y-32957600D02*
X30506500Y-27333000D01*
%TO.N,/LED_Power*%
X27259600Y-33573800D02*
X34574200Y-40888400D01*
X34574200Y-40888400D02*
X34796600Y-40888400D01*
%TO.N,Net-(U5-+)*%
X34544800Y-42781900D02*
X34544800Y-42085200D01*
X35506900Y-43120100D02*
X34883000Y-43120100D01*
X42061200Y-36019300D02*
X42061200Y-36565800D01*
X34883000Y-43120100D02*
X34544800Y-42781900D01*
X34544800Y-42085200D02*
X36411300Y-40218700D01*
X36411300Y-40218700D02*
X36411300Y-33978900D01*
X42061200Y-36565800D02*
X35506900Y-43120100D01*
%TD*%
%TA.AperFunction,Conductor*%
%TO.N,GND*%
G36*
X53884418Y-20363616D02*
G01*
X54084561Y-20377930D01*
X54102063Y-20380447D01*
X54293797Y-20422155D01*
X54310755Y-20427134D01*
X54494609Y-20495709D01*
X54510701Y-20503059D01*
X54682904Y-20597088D01*
X54697784Y-20606649D01*
X54854867Y-20724241D01*
X54868237Y-20735827D01*
X55006972Y-20874562D01*
X55018558Y-20887932D01*
X55136146Y-21045010D01*
X55145711Y-21059895D01*
X55239740Y-21232098D01*
X55247090Y-21248190D01*
X55315662Y-21432036D01*
X55320646Y-21449012D01*
X55362351Y-21640731D01*
X55364869Y-21658242D01*
X55379184Y-21858380D01*
X55379500Y-21867227D01*
X55379500Y-49913172D01*
X55379184Y-49922019D01*
X55364869Y-50122157D01*
X55362351Y-50139668D01*
X55320646Y-50331387D01*
X55315662Y-50348363D01*
X55247090Y-50532209D01*
X55239740Y-50548301D01*
X55145711Y-50720504D01*
X55136146Y-50735389D01*
X55018558Y-50892467D01*
X55006972Y-50905837D01*
X54868237Y-51044572D01*
X54854867Y-51056158D01*
X54697789Y-51173746D01*
X54682904Y-51183311D01*
X54510701Y-51277340D01*
X54494609Y-51284690D01*
X54310763Y-51353262D01*
X54293787Y-51358246D01*
X54102068Y-51399951D01*
X54084557Y-51402469D01*
X53903779Y-51415399D01*
X53884417Y-51416784D01*
X53875572Y-51417100D01*
X25118428Y-51417100D01*
X25109582Y-51416784D01*
X25087622Y-51415213D01*
X24909442Y-51402469D01*
X24891931Y-51399951D01*
X24700212Y-51358246D01*
X24683236Y-51353262D01*
X24499390Y-51284690D01*
X24483298Y-51277340D01*
X24311095Y-51183311D01*
X24296210Y-51173746D01*
X24139132Y-51056158D01*
X24125762Y-51044572D01*
X23987027Y-50905837D01*
X23975441Y-50892467D01*
X23857849Y-50735384D01*
X23848288Y-50720504D01*
X23754259Y-50548301D01*
X23746909Y-50532209D01*
X23686091Y-50369151D01*
X23678334Y-50348355D01*
X23673355Y-50331397D01*
X23631647Y-50139663D01*
X23629130Y-50122156D01*
X23614816Y-49922018D01*
X23614500Y-49913172D01*
X23614500Y-32903783D01*
X25664100Y-32903783D01*
X25664100Y-34243801D01*
X25664101Y-34243818D01*
X25674600Y-34346596D01*
X25674601Y-34346599D01*
X25721851Y-34489189D01*
X25729786Y-34513134D01*
X25821888Y-34662456D01*
X25945944Y-34786512D01*
X26095266Y-34878614D01*
X26095268Y-34878614D01*
X26095269Y-34878615D01*
X26095948Y-34878932D01*
X26096335Y-34879273D01*
X26101413Y-34882405D01*
X26100877Y-34883272D01*
X26148387Y-34925104D01*
X26167539Y-34992298D01*
X26147323Y-35059179D01*
X26131225Y-35078995D01*
X25989240Y-35220980D01*
X25862443Y-35395500D01*
X25764509Y-35587708D01*
X25697845Y-35792877D01*
X25664100Y-36005933D01*
X25664100Y-36221666D01*
X25692104Y-36398472D01*
X25697846Y-36434726D01*
X25764508Y-36639889D01*
X25862443Y-36832099D01*
X25989241Y-37006621D01*
X26141779Y-37159159D01*
X26316301Y-37285957D01*
X26508511Y-37383892D01*
X26713674Y-37450554D01*
X26793573Y-37463208D01*
X26926734Y-37484300D01*
X26926739Y-37484300D01*
X27592466Y-37484300D01*
X27710830Y-37465552D01*
X27805526Y-37450554D01*
X28010689Y-37383892D01*
X28202899Y-37285957D01*
X28377421Y-37159159D01*
X28529959Y-37006621D01*
X28656757Y-36832099D01*
X28754692Y-36639889D01*
X28821354Y-36434726D01*
X28844803Y-36286675D01*
X28874732Y-36223540D01*
X28934044Y-36186609D01*
X29003906Y-36187607D01*
X29054957Y-36218392D01*
X34057788Y-41221224D01*
X34072288Y-41238656D01*
X34079677Y-41249404D01*
X34087206Y-41267579D01*
X34174811Y-41398689D01*
X34198808Y-41422686D01*
X34205261Y-41432072D01*
X34212738Y-41454888D01*
X34224246Y-41475963D01*
X34223421Y-41487487D01*
X34227020Y-41498467D01*
X34220974Y-41521704D01*
X34219262Y-41545655D01*
X34211671Y-41557466D01*
X34209429Y-41566086D01*
X34201331Y-41573555D01*
X34190764Y-41589999D01*
X34176089Y-41604675D01*
X34176086Y-41604678D01*
X34064281Y-41716482D01*
X34064277Y-41716487D01*
X34045876Y-41748361D01*
X34045875Y-41748363D01*
X33985223Y-41853415D01*
X33944299Y-42006143D01*
X33944299Y-42006145D01*
X33944299Y-42174246D01*
X33944300Y-42174259D01*
X33944300Y-42695230D01*
X33944299Y-42695248D01*
X33944299Y-42860954D01*
X33944298Y-42860954D01*
X33978511Y-42988639D01*
X33985223Y-43013685D01*
X34006508Y-43050550D01*
X34006906Y-43051240D01*
X34006908Y-43051243D01*
X34064279Y-43150614D01*
X34064281Y-43150617D01*
X34183149Y-43269485D01*
X34183155Y-43269490D01*
X34398139Y-43484474D01*
X34398149Y-43484485D01*
X34402479Y-43488815D01*
X34402480Y-43488816D01*
X34514284Y-43600620D01*
X34601095Y-43650739D01*
X34601097Y-43650741D01*
X34639151Y-43672711D01*
X34651215Y-43679677D01*
X34803943Y-43720601D01*
X34803946Y-43720601D01*
X34969653Y-43720601D01*
X34969669Y-43720600D01*
X35420231Y-43720600D01*
X35420247Y-43720601D01*
X35427843Y-43720601D01*
X35585954Y-43720601D01*
X35585957Y-43720601D01*
X35738685Y-43679677D01*
X35788804Y-43650739D01*
X35875616Y-43600620D01*
X35987420Y-43488816D01*
X35987420Y-43488814D01*
X35997628Y-43478607D01*
X35997630Y-43478604D01*
X42419706Y-37056528D01*
X42419711Y-37056524D01*
X42429914Y-37046320D01*
X42429916Y-37046320D01*
X42541720Y-36934516D01*
X42607951Y-36819800D01*
X42620777Y-36797585D01*
X42661701Y-36644857D01*
X42661701Y-36599064D01*
X42681386Y-36532025D01*
X42682599Y-36530173D01*
X42770590Y-36398485D01*
X42770590Y-36398484D01*
X42770594Y-36398479D01*
X42830937Y-36252797D01*
X42861700Y-36098142D01*
X42861700Y-35940458D01*
X42861700Y-35940455D01*
X42861699Y-35940453D01*
X42832344Y-35792877D01*
X42830937Y-35785803D01*
X42799864Y-35710785D01*
X42770597Y-35640127D01*
X42770590Y-35640114D01*
X42694238Y-35525846D01*
X42673360Y-35459169D01*
X42691844Y-35391788D01*
X42709655Y-35369278D01*
X43600319Y-34478615D01*
X43661642Y-34445130D01*
X43731334Y-34450114D01*
X43787267Y-34491986D01*
X43811684Y-34557450D01*
X43812000Y-34566296D01*
X43812000Y-37815202D01*
X43792315Y-37882241D01*
X43775681Y-37902883D01*
X39540739Y-42137825D01*
X39479416Y-42171310D01*
X39477250Y-42171761D01*
X39321908Y-42202661D01*
X39321898Y-42202664D01*
X39176227Y-42263002D01*
X39176214Y-42263009D01*
X39045111Y-42350610D01*
X39045107Y-42350613D01*
X38933613Y-42462107D01*
X38933610Y-42462111D01*
X38846009Y-42593214D01*
X38846002Y-42593227D01*
X38785664Y-42738898D01*
X38785661Y-42738910D01*
X38754900Y-42893553D01*
X38754900Y-43051243D01*
X38785661Y-43205889D01*
X38785664Y-43205901D01*
X38846002Y-43351572D01*
X38846009Y-43351585D01*
X38933610Y-43482688D01*
X38933613Y-43482692D01*
X39045107Y-43594186D01*
X39045111Y-43594189D01*
X39176214Y-43681790D01*
X39176227Y-43681797D01*
X39269910Y-43720601D01*
X39321903Y-43742137D01*
X39476553Y-43772899D01*
X39476556Y-43772900D01*
X39476558Y-43772900D01*
X39634244Y-43772900D01*
X39634245Y-43772899D01*
X39788897Y-43742137D01*
X39934579Y-43681794D01*
X40065689Y-43594189D01*
X40177189Y-43482689D01*
X40264794Y-43351579D01*
X40325137Y-43205897D01*
X40355900Y-43051242D01*
X40356038Y-43050550D01*
X40388423Y-42988639D01*
X40389918Y-42987116D01*
X41422501Y-41954533D01*
X47934500Y-41954533D01*
X47934500Y-42170266D01*
X47968245Y-42383322D01*
X47968246Y-42383326D01*
X48034908Y-42588489D01*
X48132843Y-42780699D01*
X48259641Y-42955221D01*
X48412179Y-43107759D01*
X48586701Y-43234557D01*
X48778911Y-43332492D01*
X48984074Y-43399154D01*
X49063973Y-43411808D01*
X49197134Y-43432900D01*
X49197139Y-43432900D01*
X49862866Y-43432900D01*
X49981230Y-43414152D01*
X50075926Y-43399154D01*
X50281089Y-43332492D01*
X50473299Y-43234557D01*
X50647821Y-43107759D01*
X50800359Y-42955221D01*
X50927157Y-42780699D01*
X51025092Y-42588489D01*
X51091754Y-42383326D01*
X51110811Y-42263006D01*
X51125500Y-42170266D01*
X51125500Y-41954533D01*
X51092845Y-41748363D01*
X51091754Y-41741474D01*
X51025092Y-41536311D01*
X50927157Y-41344101D01*
X50800359Y-41169579D01*
X50657996Y-41027216D01*
X50624511Y-40965893D01*
X50629495Y-40896201D01*
X50671367Y-40840268D01*
X50693289Y-40827145D01*
X50694127Y-40826754D01*
X50843345Y-40734715D01*
X50967315Y-40610745D01*
X51059356Y-40461524D01*
X51059358Y-40461519D01*
X51114505Y-40295097D01*
X51114506Y-40295090D01*
X51124999Y-40192386D01*
X51125000Y-40192373D01*
X51125000Y-39772400D01*
X50072709Y-39772400D01*
X50084452Y-39752061D01*
X50125000Y-39600733D01*
X50125000Y-39444067D01*
X50084452Y-39292739D01*
X50072709Y-39272400D01*
X51124999Y-39272400D01*
X51124999Y-38852428D01*
X51124998Y-38852413D01*
X51114505Y-38749702D01*
X51059358Y-38583280D01*
X51059356Y-38583275D01*
X50967315Y-38434054D01*
X50843345Y-38310084D01*
X50694124Y-38218043D01*
X50694119Y-38218041D01*
X50527697Y-38162894D01*
X50527690Y-38162893D01*
X50424986Y-38152400D01*
X49780000Y-38152400D01*
X49780000Y-38979690D01*
X49759661Y-38967948D01*
X49608333Y-38927400D01*
X49451667Y-38927400D01*
X49300339Y-38967948D01*
X49280000Y-38979690D01*
X49280000Y-38152400D01*
X48635028Y-38152400D01*
X48635012Y-38152401D01*
X48532302Y-38162894D01*
X48365880Y-38218041D01*
X48365875Y-38218043D01*
X48216654Y-38310084D01*
X48092684Y-38434054D01*
X48000643Y-38583275D01*
X48000641Y-38583280D01*
X47945494Y-38749702D01*
X47945493Y-38749709D01*
X47935000Y-38852413D01*
X47935000Y-39272400D01*
X48987291Y-39272400D01*
X48975548Y-39292739D01*
X48935000Y-39444067D01*
X48935000Y-39600733D01*
X48975548Y-39752061D01*
X48987291Y-39772400D01*
X47935001Y-39772400D01*
X47935001Y-40192386D01*
X47945494Y-40295097D01*
X48000641Y-40461519D01*
X48000643Y-40461524D01*
X48092684Y-40610745D01*
X48216654Y-40734715D01*
X48365876Y-40826756D01*
X48366716Y-40827148D01*
X48367195Y-40827570D01*
X48372025Y-40830549D01*
X48371516Y-40831373D01*
X48419160Y-40873315D01*
X48438318Y-40940507D01*
X48418109Y-41007390D01*
X48402004Y-41027216D01*
X48259640Y-41169580D01*
X48132843Y-41344100D01*
X48034909Y-41536308D01*
X47968245Y-41741477D01*
X47934500Y-41954533D01*
X41422501Y-41954533D01*
X44893020Y-38484016D01*
X44972077Y-38347084D01*
X45013001Y-38194357D01*
X45013001Y-38036242D01*
X45013001Y-38028647D01*
X45013000Y-38028629D01*
X45013000Y-34514465D01*
X45032685Y-34447426D01*
X45033898Y-34445574D01*
X45100033Y-34346597D01*
X45121894Y-34313879D01*
X45182237Y-34168197D01*
X45213000Y-34013542D01*
X45213000Y-33855858D01*
X45213000Y-33855855D01*
X45212999Y-33855853D01*
X45182237Y-33701203D01*
X45140202Y-33599721D01*
X45121897Y-33555527D01*
X45121890Y-33555514D01*
X45034289Y-33424411D01*
X45034286Y-33424407D01*
X44932088Y-33322209D01*
X44898603Y-33260886D01*
X44903587Y-33191194D01*
X44918348Y-33163185D01*
X44924507Y-33154428D01*
X44972120Y-33106816D01*
X45034002Y-32999633D01*
X45051177Y-32969885D01*
X45092100Y-32817158D01*
X45092100Y-32659043D01*
X45092100Y-23671065D01*
X45111785Y-23604026D01*
X45112998Y-23602174D01*
X45200990Y-23470485D01*
X45200990Y-23470484D01*
X45200994Y-23470479D01*
X45261337Y-23324797D01*
X45292100Y-23170142D01*
X45292100Y-23012458D01*
X45292100Y-23012455D01*
X45292099Y-23012453D01*
X45261338Y-22857810D01*
X45261337Y-22857803D01*
X45261335Y-22857798D01*
X45200997Y-22712127D01*
X45200990Y-22712114D01*
X45113389Y-22581011D01*
X45113386Y-22581007D01*
X45001892Y-22469513D01*
X45001888Y-22469510D01*
X44870785Y-22381909D01*
X44870772Y-22381902D01*
X44725101Y-22321564D01*
X44725089Y-22321561D01*
X44570445Y-22290800D01*
X44570442Y-22290800D01*
X44412758Y-22290800D01*
X44412755Y-22290800D01*
X44258110Y-22321561D01*
X44258098Y-22321564D01*
X44112427Y-22381902D01*
X44112414Y-22381909D01*
X43981311Y-22469510D01*
X43981307Y-22469513D01*
X43869813Y-22581007D01*
X43869810Y-22581011D01*
X43782209Y-22712114D01*
X43782202Y-22712127D01*
X43721864Y-22857798D01*
X43721861Y-22857810D01*
X43691100Y-23012453D01*
X43691100Y-23170146D01*
X43721861Y-23324789D01*
X43721864Y-23324801D01*
X43782202Y-23470472D01*
X43782209Y-23470485D01*
X43870202Y-23602174D01*
X43891080Y-23668851D01*
X43891100Y-23671065D01*
X43891100Y-32438003D01*
X43871415Y-32505042D01*
X43854781Y-32525684D01*
X37223481Y-39156984D01*
X37162158Y-39190469D01*
X37092466Y-39185485D01*
X37036533Y-39143613D01*
X37012116Y-39078149D01*
X37011800Y-39069303D01*
X37011800Y-34558665D01*
X37031485Y-34491626D01*
X37032698Y-34489774D01*
X37062623Y-34444989D01*
X37120694Y-34358079D01*
X37181037Y-34212397D01*
X37211800Y-34057742D01*
X37211800Y-33900058D01*
X37211800Y-33900055D01*
X37211799Y-33900053D01*
X37203007Y-33855853D01*
X37181037Y-33745403D01*
X37162727Y-33701198D01*
X37120697Y-33599727D01*
X37120690Y-33599714D01*
X37033089Y-33468611D01*
X37033086Y-33468607D01*
X36921592Y-33357113D01*
X36921588Y-33357110D01*
X36790485Y-33269509D01*
X36790472Y-33269502D01*
X36644801Y-33209164D01*
X36644789Y-33209161D01*
X36490145Y-33178400D01*
X36490142Y-33178400D01*
X36332458Y-33178400D01*
X36332455Y-33178400D01*
X36177810Y-33209161D01*
X36177798Y-33209164D01*
X36032127Y-33269502D01*
X36032114Y-33269509D01*
X35901011Y-33357110D01*
X35901007Y-33357113D01*
X35789513Y-33468607D01*
X35789510Y-33468611D01*
X35701909Y-33599714D01*
X35701902Y-33599727D01*
X35641564Y-33745398D01*
X35641561Y-33745410D01*
X35610800Y-33900053D01*
X35610800Y-34057746D01*
X35641561Y-34212389D01*
X35641564Y-34212401D01*
X35701902Y-34358072D01*
X35701909Y-34358085D01*
X35789902Y-34489774D01*
X35810780Y-34556451D01*
X35810800Y-34558665D01*
X35810800Y-39918602D01*
X35791115Y-39985641D01*
X35774481Y-40006283D01*
X35498202Y-40282561D01*
X35436879Y-40316046D01*
X35367187Y-40311062D01*
X35322840Y-40282561D01*
X35306892Y-40266613D01*
X35306888Y-40266610D01*
X35175785Y-40179009D01*
X35175772Y-40179002D01*
X35030101Y-40118664D01*
X35030089Y-40118661D01*
X34875445Y-40087900D01*
X34875442Y-40087900D01*
X34717758Y-40087900D01*
X34717755Y-40087900D01*
X34703673Y-40090701D01*
X34634082Y-40084474D01*
X34591801Y-40056765D01*
X28889697Y-34354662D01*
X28856212Y-34293339D01*
X28854020Y-34254377D01*
X28855100Y-34243809D01*
X28855099Y-32903792D01*
X28852541Y-32878755D01*
X28852541Y-32878753D01*
X29706000Y-32878753D01*
X29706000Y-33036446D01*
X29736761Y-33191089D01*
X29736764Y-33191101D01*
X29797102Y-33336772D01*
X29797109Y-33336785D01*
X29884710Y-33467888D01*
X29884713Y-33467892D01*
X29996207Y-33579386D01*
X29996211Y-33579389D01*
X30127314Y-33666990D01*
X30127327Y-33666997D01*
X30209897Y-33701198D01*
X30273003Y-33727337D01*
X30427653Y-33758099D01*
X30427656Y-33758100D01*
X30427658Y-33758100D01*
X30585344Y-33758100D01*
X30585345Y-33758099D01*
X30739997Y-33727337D01*
X30885679Y-33666994D01*
X31016789Y-33579389D01*
X31128289Y-33467889D01*
X31215894Y-33336779D01*
X31276237Y-33191097D01*
X31307000Y-33036442D01*
X31307000Y-32878758D01*
X31307000Y-32878755D01*
X31306999Y-32878753D01*
X31294747Y-32817157D01*
X31276237Y-32724103D01*
X31276235Y-32724098D01*
X31215897Y-32578427D01*
X31215890Y-32578414D01*
X31127898Y-32446725D01*
X31107020Y-32380047D01*
X31107000Y-32377834D01*
X31107000Y-29019853D01*
X35700000Y-29019853D01*
X35700000Y-29177546D01*
X35730761Y-29332189D01*
X35730764Y-29332201D01*
X35791102Y-29477872D01*
X35791109Y-29477885D01*
X35878710Y-29608988D01*
X35878713Y-29608992D01*
X35990207Y-29720486D01*
X35990211Y-29720489D01*
X36121314Y-29808090D01*
X36121327Y-29808097D01*
X36266998Y-29868435D01*
X36267003Y-29868437D01*
X36331647Y-29881295D01*
X36422349Y-29899338D01*
X36484260Y-29931723D01*
X36485839Y-29933274D01*
X38740681Y-32188116D01*
X38774166Y-32249439D01*
X38777000Y-32275797D01*
X38777000Y-34751834D01*
X38757315Y-34818873D01*
X38756102Y-34820725D01*
X38668109Y-34952414D01*
X38668102Y-34952427D01*
X38607764Y-35098098D01*
X38607761Y-35098110D01*
X38577000Y-35252753D01*
X38577000Y-35410446D01*
X38607761Y-35565089D01*
X38607764Y-35565101D01*
X38668102Y-35710772D01*
X38668109Y-35710785D01*
X38755710Y-35841888D01*
X38755713Y-35841892D01*
X38867207Y-35953386D01*
X38867211Y-35953389D01*
X38998314Y-36040990D01*
X38998327Y-36040997D01*
X39136294Y-36098144D01*
X39144003Y-36101337D01*
X39298653Y-36132099D01*
X39298656Y-36132100D01*
X39298658Y-36132100D01*
X39456344Y-36132100D01*
X39456345Y-36132099D01*
X39610997Y-36101337D01*
X39756679Y-36040994D01*
X39887789Y-35953389D01*
X39999289Y-35841889D01*
X40086894Y-35710779D01*
X40147237Y-35565097D01*
X40178000Y-35410442D01*
X40178000Y-35252758D01*
X40178000Y-35252755D01*
X40177999Y-35252753D01*
X40147238Y-35098110D01*
X40147237Y-35098103D01*
X40131114Y-35059179D01*
X40086897Y-34952427D01*
X40086890Y-34952414D01*
X39998898Y-34820725D01*
X39978020Y-34754047D01*
X39978000Y-34751834D01*
X39978000Y-31896645D01*
X39978000Y-31896643D01*
X39937077Y-31743916D01*
X39937073Y-31743909D01*
X39858024Y-31606990D01*
X39858021Y-31606986D01*
X39858020Y-31606984D01*
X39746216Y-31495180D01*
X39746215Y-31495179D01*
X39741885Y-31490849D01*
X39741874Y-31490839D01*
X37335074Y-29084039D01*
X37301589Y-29022716D01*
X37301138Y-29020549D01*
X37270238Y-28865210D01*
X37270237Y-28865203D01*
X37270235Y-28865198D01*
X37209897Y-28719527D01*
X37209890Y-28719514D01*
X37122289Y-28588411D01*
X37122286Y-28588407D01*
X37010792Y-28476913D01*
X37010788Y-28476910D01*
X36879685Y-28389309D01*
X36879672Y-28389302D01*
X36734001Y-28328964D01*
X36733989Y-28328961D01*
X36579345Y-28298200D01*
X36579342Y-28298200D01*
X36421658Y-28298200D01*
X36421655Y-28298200D01*
X36267010Y-28328961D01*
X36266998Y-28328964D01*
X36121327Y-28389302D01*
X36121314Y-28389309D01*
X35990211Y-28476910D01*
X35990207Y-28476913D01*
X35878713Y-28588407D01*
X35878710Y-28588411D01*
X35791109Y-28719514D01*
X35791102Y-28719527D01*
X35730764Y-28865198D01*
X35730761Y-28865210D01*
X35700000Y-29019853D01*
X31107000Y-29019853D01*
X31107000Y-27633097D01*
X31115645Y-27603653D01*
X31122168Y-27573671D01*
X31125922Y-27568655D01*
X31126685Y-27566058D01*
X31143313Y-27545421D01*
X31243363Y-27445371D01*
X31304682Y-27411889D01*
X31306850Y-27411438D01*
X31364785Y-27399913D01*
X31462197Y-27380537D01*
X31607879Y-27320194D01*
X31738989Y-27232589D01*
X31850489Y-27121089D01*
X31938094Y-26989979D01*
X31998437Y-26844297D01*
X32029200Y-26689642D01*
X32029200Y-26531958D01*
X32029200Y-26531955D01*
X32029199Y-26531953D01*
X31998438Y-26377310D01*
X31998438Y-26377308D01*
X31998437Y-26377303D01*
X31998435Y-26377298D01*
X31938097Y-26231627D01*
X31938090Y-26231614D01*
X31850489Y-26100511D01*
X31850486Y-26100507D01*
X31738992Y-25989013D01*
X31738988Y-25989010D01*
X31607885Y-25901409D01*
X31607872Y-25901402D01*
X31462201Y-25841064D01*
X31462189Y-25841061D01*
X31307545Y-25810300D01*
X31307542Y-25810300D01*
X31149858Y-25810300D01*
X31149855Y-25810300D01*
X30995210Y-25841061D01*
X30995198Y-25841064D01*
X30849527Y-25901402D01*
X30849514Y-25901409D01*
X30718411Y-25989010D01*
X30718407Y-25989013D01*
X30606913Y-26100507D01*
X30606910Y-26100511D01*
X30519309Y-26231614D01*
X30519302Y-26231627D01*
X30458964Y-26377298D01*
X30458961Y-26377308D01*
X30428061Y-26532650D01*
X30395676Y-26594561D01*
X30394125Y-26596139D01*
X30025981Y-26964282D01*
X30025980Y-26964284D01*
X29990655Y-27025469D01*
X29946923Y-27101215D01*
X29905999Y-27253943D01*
X29905999Y-27253945D01*
X29905999Y-27422046D01*
X29906000Y-27422059D01*
X29906000Y-32377834D01*
X29886315Y-32444873D01*
X29885102Y-32446725D01*
X29797109Y-32578414D01*
X29797102Y-32578427D01*
X29736764Y-32724098D01*
X29736761Y-32724110D01*
X29706000Y-32878753D01*
X28852541Y-32878753D01*
X28846249Y-32817158D01*
X28844599Y-32801003D01*
X28789414Y-32634466D01*
X28697312Y-32485144D01*
X28573256Y-32361088D01*
X28480488Y-32303869D01*
X28423936Y-32268987D01*
X28423931Y-32268985D01*
X28422462Y-32268498D01*
X28257397Y-32213801D01*
X28257395Y-32213800D01*
X28154610Y-32203300D01*
X26364598Y-32203300D01*
X26364581Y-32203301D01*
X26261803Y-32213800D01*
X26261800Y-32213801D01*
X26095268Y-32268985D01*
X26095263Y-32268987D01*
X25945942Y-32361089D01*
X25821889Y-32485142D01*
X25729787Y-32634463D01*
X25729786Y-32634466D01*
X25674601Y-32801003D01*
X25674601Y-32801004D01*
X25674600Y-32801004D01*
X25664100Y-32903783D01*
X23614500Y-32903783D01*
X23614500Y-21867227D01*
X23614816Y-21858381D01*
X23629130Y-21658243D01*
X23629131Y-21658234D01*
X23631646Y-21640738D01*
X23673356Y-21448999D01*
X23678333Y-21432048D01*
X23746911Y-21248185D01*
X23754259Y-21232098D01*
X23816815Y-21117534D01*
X23848291Y-21059889D01*
X23857845Y-21045021D01*
X23975448Y-20887923D01*
X23987020Y-20874569D01*
X24125769Y-20735820D01*
X24139123Y-20724248D01*
X24296221Y-20606645D01*
X24311089Y-20597091D01*
X24483298Y-20503058D01*
X24499385Y-20495711D01*
X24683248Y-20427133D01*
X24700199Y-20422156D01*
X24891938Y-20380446D01*
X24909436Y-20377930D01*
X25109582Y-20363616D01*
X25118428Y-20363300D01*
X25179892Y-20363300D01*
X53814108Y-20363300D01*
X53875572Y-20363300D01*
X53884418Y-20363616D01*
G37*
%TD.AperFunction*%
%TD*%
M02*
