%TF.GenerationSoftware,KiCad,Pcbnew,(6.0.8)*%
%TF.CreationDate,2023-06-05T07:52:39+02:00*%
%TF.ProjectId,SCS_dongle,5343535f-646f-46e6-976c-652e6b696361,rev?*%
%TF.SameCoordinates,Original*%
%TF.FileFunction,Copper,L1,Top*%
%TF.FilePolarity,Positive*%
%FSLAX46Y46*%
G04 Gerber Fmt 4.6, Leading zero omitted, Abs format (unit mm)*
G04 Created by KiCad (PCBNEW (6.0.8)) date 2023-06-05 07:52:39*
%MOMM*%
%LPD*%
G01*
G04 APERTURE LIST*
%TA.AperFunction,SMDPad,CuDef*%
%ADD10R,1.050000X1.800000*%
%TD*%
%TA.AperFunction,ComponentPad*%
%ADD11C,5.600000*%
%TD*%
%TA.AperFunction,SMDPad,CuDef*%
%ADD12R,1.800000X1.050000*%
%TD*%
%TA.AperFunction,SMDPad,CuDef*%
%ADD13R,1.528000X0.650000*%
%TD*%
%TA.AperFunction,ComponentPad*%
%ADD14R,1.610000X1.610000*%
%TD*%
%TA.AperFunction,ComponentPad*%
%ADD15C,1.610000*%
%TD*%
%TA.AperFunction,SMDPad,CuDef*%
%ADD16R,1.070000X1.470000*%
%TD*%
%TA.AperFunction,SMDPad,CuDef*%
%ADD17O,0.950000X1.600000*%
%TD*%
%TA.AperFunction,ComponentPad*%
%ADD18R,1.530000X1.530000*%
%TD*%
%TA.AperFunction,ComponentPad*%
%ADD19C,1.530000*%
%TD*%
%TA.AperFunction,Conductor*%
%ADD20C,0.250000*%
%TD*%
%TA.AperFunction,Conductor*%
%ADD21C,0.400000*%
%TD*%
G04 APERTURE END LIST*
D10*
%TO.P,R6,1*%
%TO.N,/Sensor Input*%
X160300000Y-86360000D03*
%TO.P,R6,2*%
%TO.N,GND*%
X157200000Y-86360000D03*
%TD*%
D11*
%TO.P,,1*%
%TO.N,N/C*%
X172720000Y-74930000D03*
%TD*%
D12*
%TO.P,R1,1*%
%TO.N,/1V*%
X163830000Y-85370000D03*
%TO.P,R1,2*%
%TO.N,+5V*%
X163830000Y-82270000D03*
%TD*%
D13*
%TO.P,CP1,1,OUT1*%
%TO.N,/Opto In*%
X153499000Y-79375000D03*
%TO.P,CP1,2,IN1-*%
%TO.N,/Sensor Input*%
X153499000Y-80645000D03*
%TO.P,CP1,3,IN1+*%
%TO.N,/4V*%
X153499000Y-81915000D03*
%TO.P,CP1,4,GND*%
%TO.N,GND*%
X153499000Y-83185000D03*
%TO.P,CP1,5,IN2+*%
%TO.N,/Sensor Input*%
X158921000Y-83185000D03*
%TO.P,CP1,6,IN2-*%
%TO.N,/1V*%
X158921000Y-81915000D03*
%TO.P,CP1,7,OUT2*%
%TO.N,/Opto In*%
X158921000Y-80645000D03*
%TO.P,CP1,8,V+*%
%TO.N,+5V*%
X158921000Y-79375000D03*
%TD*%
D14*
%TO.P,J2,1,1*%
%TO.N,/Sensor Input*%
X147395000Y-75175000D03*
D15*
%TO.P,J2,2,2*%
%TO.N,+5V*%
X147395000Y-77715000D03*
%TO.P,J2,3,3*%
%TO.N,GND*%
X147395000Y-80255000D03*
%TD*%
D16*
%TO.P,C1,1*%
%TO.N,+5V*%
X147770000Y-90170000D03*
%TO.P,C1,2*%
%TO.N,GND*%
X149410000Y-90170000D03*
%TD*%
D10*
%TO.P,R3,1*%
%TO.N,/4V*%
X150140000Y-83820000D03*
%TO.P,R3,2*%
%TO.N,+5V*%
X147040000Y-83820000D03*
%TD*%
D17*
%TO.P,K1,1,+_CONTROL*%
%TO.N,/Opto In*%
X172593000Y-80690000D03*
%TO.P,K1,2,-_CONTROL*%
%TO.N,GND*%
X170307000Y-80690000D03*
%TO.P,K1,3,LOAD_1*%
%TO.N,/HS OUT*%
X170307000Y-89490000D03*
%TO.P,K1,4,LOAD_2*%
%TO.N,/HS IN*%
X172593000Y-89490000D03*
%TD*%
D11*
%TO.P,,1*%
%TO.N,N/C*%
X146050000Y-95250000D03*
%TD*%
D14*
%TO.P,J1,1,1*%
%TO.N,/Sensor Input*%
X159775000Y-95250000D03*
D15*
%TO.P,J1,2,2*%
%TO.N,+5V*%
X157235000Y-95250000D03*
%TO.P,J1,3,3*%
%TO.N,GND*%
X154695000Y-95250000D03*
%TD*%
D18*
%TO.P,J3,1,1*%
%TO.N,/HS IN*%
X168910000Y-96520000D03*
D19*
%TO.P,J3,2,2*%
%TO.N,/HS OUT*%
X168910000Y-93980000D03*
%TD*%
D10*
%TO.P,R2,1*%
%TO.N,GND*%
X158470000Y-90170000D03*
%TO.P,R2,2*%
%TO.N,/1V*%
X161570000Y-90170000D03*
%TD*%
%TO.P,R4,1*%
%TO.N,GND*%
X152120000Y-86360000D03*
%TO.P,R4,2*%
%TO.N,/4V*%
X155220000Y-86360000D03*
%TD*%
%TO.P,R5,1*%
%TO.N,+5V*%
X162280000Y-77470000D03*
%TO.P,R5,2*%
%TO.N,/Opto In*%
X165380000Y-77470000D03*
%TD*%
D20*
%TO.N,+5V*%
X153780000Y-96380000D02*
X156105000Y-96380000D01*
X166370000Y-90170000D02*
X166370000Y-90915000D01*
D21*
X147395000Y-77715000D02*
X148600000Y-78920000D01*
X146910000Y-72390000D02*
X151936000Y-72390000D01*
X148600000Y-78920000D02*
X148600000Y-82260000D01*
X147040000Y-83820000D02*
X147040000Y-89440000D01*
D20*
X152660000Y-95260000D02*
X153780000Y-96380000D01*
D21*
X158921000Y-79375000D02*
X160375000Y-79375000D01*
X163830000Y-82270000D02*
X166370000Y-84810000D01*
D20*
X160765000Y-96520000D02*
X158505000Y-96520000D01*
X166370000Y-90915000D02*
X160765000Y-96520000D01*
X158505000Y-96520000D02*
X157235000Y-95250000D01*
D21*
X147770000Y-90170000D02*
X147770000Y-90370000D01*
X144780000Y-75100000D02*
X144780000Y-74520000D01*
X147395000Y-77715000D02*
X144780000Y-75100000D01*
X147040000Y-89440000D02*
X147770000Y-90170000D01*
X151936000Y-72390000D02*
X158921000Y-79375000D01*
D20*
X156105000Y-96380000D02*
X157235000Y-95250000D01*
D21*
X147770000Y-90370000D02*
X152660000Y-95260000D01*
X166370000Y-84810000D02*
X166370000Y-90170000D01*
X144780000Y-74520000D02*
X146910000Y-72390000D01*
X160375000Y-79375000D02*
X162280000Y-77470000D01*
X148600000Y-82260000D02*
X147040000Y-83820000D01*
%TO.N,/Opto In*%
X153499000Y-79375000D02*
X156845000Y-79375000D01*
X158115000Y-80645000D02*
X158921000Y-80645000D01*
X162205000Y-80645000D02*
X165380000Y-77470000D01*
X158921000Y-80645000D02*
X162205000Y-80645000D01*
X156845000Y-79375000D02*
X158115000Y-80645000D01*
X172593000Y-80690000D02*
X169373000Y-77470000D01*
X169373000Y-77470000D02*
X165380000Y-77470000D01*
%TO.N,/Sensor Input*%
X158115000Y-83185000D02*
X158921000Y-83185000D01*
D20*
X158921000Y-83185000D02*
X158921000Y-84981000D01*
D21*
X155575000Y-80645000D02*
X158115000Y-83185000D01*
X153499000Y-80645000D02*
X155575000Y-80645000D01*
D20*
X159775000Y-86885000D02*
X160300000Y-86360000D01*
D21*
X147395000Y-75175000D02*
X152865000Y-80645000D01*
D20*
X159775000Y-95250000D02*
X159775000Y-86885000D01*
X158921000Y-84981000D02*
X160300000Y-86360000D01*
D21*
X152865000Y-80645000D02*
X153499000Y-80645000D01*
%TO.N,/4V*%
X154118000Y-81915000D02*
X153499000Y-81915000D01*
X155220000Y-83017000D02*
X154118000Y-81915000D01*
X152045000Y-81915000D02*
X153499000Y-81915000D01*
X155220000Y-86360000D02*
X155220000Y-83017000D01*
X150140000Y-83820000D02*
X152045000Y-81915000D01*
%TO.N,/1V*%
X159540000Y-81915000D02*
X162995000Y-85370000D01*
D20*
X161570000Y-90170000D02*
X161570000Y-87630000D01*
X161570000Y-87630000D02*
X163830000Y-85370000D01*
D21*
X158921000Y-81915000D02*
X159540000Y-81915000D01*
X162995000Y-85370000D02*
X163830000Y-85370000D01*
%TO.N,/HS IN*%
X172593000Y-89490000D02*
X172593000Y-92837000D01*
X172593000Y-92837000D02*
X168910000Y-96520000D01*
%TO.N,/HS OUT*%
X170307000Y-92583000D02*
X168910000Y-93980000D01*
X170307000Y-89490000D02*
X170307000Y-92583000D01*
%TD*%
%TA.AperFunction,Conductor*%
%TO.N,GND*%
G36*
X146455158Y-71640502D02*
G01*
X146501651Y-71694158D01*
X146511755Y-71764432D01*
X146482261Y-71829012D01*
X146458406Y-71850339D01*
X146449611Y-71856384D01*
X146443349Y-71860688D01*
X146402392Y-71906657D01*
X146397411Y-71911933D01*
X144304926Y-74004417D01*
X144298661Y-74010270D01*
X144255604Y-74047831D01*
X144219317Y-74099463D01*
X144215384Y-74104758D01*
X144181105Y-74148476D01*
X144181103Y-74148480D01*
X144176416Y-74154457D01*
X144173290Y-74161380D01*
X144171505Y-74164328D01*
X144164113Y-74177288D01*
X144162480Y-74180334D01*
X144158113Y-74186547D01*
X144155354Y-74193624D01*
X144135180Y-74245366D01*
X144132625Y-74251445D01*
X144106645Y-74308984D01*
X144105260Y-74316455D01*
X144104236Y-74319723D01*
X144100123Y-74334164D01*
X144099283Y-74337437D01*
X144096524Y-74344513D01*
X144095533Y-74352043D01*
X144088284Y-74407106D01*
X144087252Y-74413623D01*
X144075748Y-74475692D01*
X144076185Y-74483272D01*
X144076185Y-74483273D01*
X144079291Y-74537144D01*
X144079500Y-74544396D01*
X144079500Y-75071359D01*
X144079208Y-75079929D01*
X144076841Y-75114654D01*
X144075322Y-75136930D01*
X144076627Y-75144406D01*
X144076627Y-75144409D01*
X144086178Y-75199132D01*
X144087141Y-75205658D01*
X144094724Y-75268320D01*
X144097409Y-75275427D01*
X144098218Y-75278720D01*
X144102177Y-75293191D01*
X144103166Y-75296467D01*
X144104473Y-75303954D01*
X144107528Y-75310913D01*
X144107528Y-75310914D01*
X144129847Y-75361760D01*
X144132339Y-75367866D01*
X144154655Y-75426923D01*
X144158954Y-75433178D01*
X144160535Y-75436203D01*
X144167825Y-75449299D01*
X144169566Y-75452243D01*
X144172621Y-75459202D01*
X144177246Y-75465230D01*
X144177247Y-75465231D01*
X144211042Y-75509273D01*
X144214919Y-75514609D01*
X144246381Y-75560386D01*
X144246386Y-75560392D01*
X144250688Y-75566651D01*
X144256362Y-75571706D01*
X144296657Y-75607608D01*
X144301933Y-75612589D01*
X146069301Y-77379957D01*
X146103327Y-77442269D01*
X146104223Y-77487419D01*
X146104422Y-77487436D01*
X146084513Y-77715000D01*
X146104422Y-77942564D01*
X146163545Y-78163213D01*
X146165867Y-78168194D01*
X146165868Y-78168195D01*
X146257759Y-78365256D01*
X146257762Y-78365261D01*
X146260085Y-78370243D01*
X146263241Y-78374750D01*
X146263242Y-78374752D01*
X146385603Y-78549501D01*
X146391109Y-78557365D01*
X146552635Y-78718891D01*
X146557143Y-78722048D01*
X146557146Y-78722050D01*
X146599462Y-78751680D01*
X146739756Y-78849915D01*
X146744738Y-78852238D01*
X146744743Y-78852241D01*
X146775683Y-78866668D01*
X146828968Y-78913585D01*
X146848429Y-78981862D01*
X146827887Y-79049822D01*
X146775683Y-79095058D01*
X146740981Y-79111240D01*
X146731485Y-79116723D01*
X146678362Y-79153920D01*
X146669987Y-79164397D01*
X146677055Y-79177844D01*
X147665115Y-80165905D01*
X147699141Y-80228217D01*
X147694076Y-80299033D01*
X147665115Y-80344095D01*
X147395000Y-80614210D01*
X146676333Y-81332878D01*
X146669903Y-81344652D01*
X146679199Y-81356667D01*
X146731487Y-81393280D01*
X146740977Y-81398759D01*
X146939230Y-81491206D01*
X146949522Y-81494952D01*
X147160814Y-81551567D01*
X147171609Y-81553470D01*
X147389525Y-81572536D01*
X147400475Y-81572536D01*
X147618391Y-81553470D01*
X147629186Y-81551567D01*
X147740889Y-81521636D01*
X147811865Y-81523326D01*
X147870661Y-81563120D01*
X147898609Y-81628384D01*
X147899500Y-81643343D01*
X147899500Y-81917653D01*
X147879498Y-81985774D01*
X147862595Y-82006749D01*
X147486747Y-82382596D01*
X147424435Y-82416621D01*
X147397652Y-82419500D01*
X146527996Y-82419501D01*
X146467624Y-82419501D01*
X146464230Y-82419870D01*
X146464224Y-82419870D01*
X146414278Y-82425295D01*
X146414274Y-82425296D01*
X146406420Y-82426149D01*
X146272176Y-82476474D01*
X146264997Y-82481854D01*
X146264994Y-82481856D01*
X146165249Y-82556612D01*
X146157454Y-82562454D01*
X146152072Y-82569635D01*
X146076856Y-82669994D01*
X146076854Y-82669997D01*
X146071474Y-82677176D01*
X146021149Y-82811420D01*
X146014500Y-82872623D01*
X146014501Y-84767376D01*
X146014870Y-84770770D01*
X146014870Y-84770776D01*
X146017787Y-84797624D01*
X146021149Y-84828580D01*
X146071474Y-84962824D01*
X146076854Y-84970003D01*
X146076856Y-84970006D01*
X146146740Y-85063251D01*
X146157454Y-85077546D01*
X146164635Y-85082928D01*
X146264989Y-85158140D01*
X146264991Y-85158141D01*
X146272176Y-85163526D01*
X146275817Y-85164891D01*
X146324153Y-85213333D01*
X146339500Y-85273598D01*
X146339500Y-89411359D01*
X146339208Y-89419929D01*
X146335322Y-89476930D01*
X146336627Y-89484406D01*
X146336627Y-89484409D01*
X146346178Y-89539132D01*
X146347141Y-89545658D01*
X146354724Y-89608320D01*
X146357409Y-89615427D01*
X146358218Y-89618720D01*
X146362177Y-89633191D01*
X146363166Y-89636467D01*
X146364473Y-89643954D01*
X146367528Y-89650913D01*
X146367528Y-89650914D01*
X146389847Y-89701760D01*
X146392339Y-89707866D01*
X146414655Y-89766923D01*
X146418954Y-89773178D01*
X146420535Y-89776203D01*
X146427825Y-89789299D01*
X146429566Y-89792243D01*
X146432621Y-89799202D01*
X146437246Y-89805230D01*
X146437247Y-89805231D01*
X146471042Y-89849273D01*
X146474919Y-89854609D01*
X146506381Y-89900386D01*
X146506386Y-89900392D01*
X146510688Y-89906651D01*
X146556648Y-89947600D01*
X146561925Y-89952581D01*
X146697596Y-90088253D01*
X146731621Y-90150565D01*
X146734500Y-90177348D01*
X146734501Y-90603720D01*
X146734501Y-90952376D01*
X146734870Y-90955770D01*
X146734870Y-90955776D01*
X146739858Y-91001694D01*
X146741149Y-91013580D01*
X146791474Y-91147824D01*
X146796854Y-91155003D01*
X146796856Y-91155006D01*
X146852058Y-91228661D01*
X146877454Y-91262546D01*
X146884635Y-91267928D01*
X146984994Y-91343144D01*
X146984997Y-91343146D01*
X146992176Y-91348526D01*
X147081561Y-91382034D01*
X147119025Y-91396079D01*
X147119027Y-91396079D01*
X147126420Y-91398851D01*
X147134270Y-91399704D01*
X147134271Y-91399704D01*
X147184226Y-91405131D01*
X147187623Y-91405500D01*
X147226165Y-91405500D01*
X147762653Y-91405499D01*
X147830774Y-91425501D01*
X147851748Y-91442404D01*
X152194735Y-95785391D01*
X152294457Y-95863583D01*
X152301379Y-95866709D01*
X152301380Y-95866709D01*
X152427613Y-95923706D01*
X152464857Y-95949448D01*
X153282756Y-96767347D01*
X153290147Y-96775469D01*
X153294214Y-96781877D01*
X153299989Y-96787300D01*
X153299993Y-96787305D01*
X153343223Y-96827901D01*
X153346065Y-96830656D01*
X153365529Y-96850120D01*
X153368659Y-96852548D01*
X153368741Y-96852620D01*
X153377649Y-96860229D01*
X153409418Y-96890062D01*
X153416365Y-96893881D01*
X153426832Y-96899635D01*
X153443361Y-96910492D01*
X153459064Y-96922673D01*
X153499057Y-96939979D01*
X153509713Y-96945200D01*
X153540955Y-96962376D01*
X153540964Y-96962380D01*
X153547908Y-96966197D01*
X153555584Y-96968168D01*
X153555587Y-96968169D01*
X153567160Y-96971140D01*
X153585865Y-96977544D01*
X153604104Y-96985437D01*
X153647148Y-96992254D01*
X153658771Y-96994662D01*
X153693304Y-97003529D01*
X153693305Y-97003529D01*
X153700981Y-97005500D01*
X153720856Y-97005500D01*
X153740566Y-97007051D01*
X153760196Y-97010160D01*
X153803580Y-97006059D01*
X153815437Y-97005500D01*
X156027297Y-97005500D01*
X156038257Y-97006017D01*
X156045667Y-97007673D01*
X156053593Y-97007424D01*
X156053594Y-97007424D01*
X156112841Y-97005562D01*
X156116799Y-97005500D01*
X156144350Y-97005500D01*
X156148273Y-97005004D01*
X156148388Y-97004997D01*
X156160068Y-97004077D01*
X156203627Y-97002709D01*
X156222716Y-96997163D01*
X156242062Y-96993156D01*
X156261792Y-96990664D01*
X156302323Y-96974616D01*
X156313524Y-96970781D01*
X156355390Y-96958618D01*
X156372499Y-96948500D01*
X156390245Y-96939805D01*
X156408732Y-96932486D01*
X156443991Y-96906869D01*
X156453910Y-96900354D01*
X156484590Y-96882210D01*
X156484594Y-96882207D01*
X156491420Y-96878170D01*
X156505470Y-96864120D01*
X156520504Y-96851279D01*
X156530173Y-96844254D01*
X156536587Y-96839594D01*
X156564370Y-96806010D01*
X156572359Y-96797231D01*
X156815279Y-96554311D01*
X156877591Y-96520285D01*
X156936983Y-96521700D01*
X157007436Y-96540578D01*
X157235000Y-96560487D01*
X157462564Y-96540578D01*
X157467874Y-96539155D01*
X157467881Y-96539154D01*
X157533017Y-96521701D01*
X157603993Y-96523391D01*
X157654722Y-96554313D01*
X158007758Y-96907349D01*
X158015147Y-96915469D01*
X158019214Y-96921877D01*
X158024992Y-96927303D01*
X158068207Y-96967885D01*
X158071049Y-96970640D01*
X158090529Y-96990120D01*
X158093659Y-96992548D01*
X158093741Y-96992620D01*
X158102649Y-97000229D01*
X158134418Y-97030062D01*
X158141365Y-97033881D01*
X158151832Y-97039635D01*
X158168361Y-97050492D01*
X158184064Y-97062673D01*
X158224057Y-97079979D01*
X158234713Y-97085200D01*
X158265955Y-97102376D01*
X158265964Y-97102380D01*
X158272908Y-97106197D01*
X158280584Y-97108168D01*
X158280587Y-97108169D01*
X158292160Y-97111140D01*
X158310865Y-97117544D01*
X158329104Y-97125437D01*
X158372148Y-97132254D01*
X158383771Y-97134662D01*
X158418304Y-97143529D01*
X158418305Y-97143529D01*
X158425981Y-97145500D01*
X158445856Y-97145500D01*
X158465566Y-97147051D01*
X158485196Y-97150160D01*
X158528580Y-97146059D01*
X158540437Y-97145500D01*
X160687297Y-97145500D01*
X160698257Y-97146017D01*
X160705667Y-97147673D01*
X160713593Y-97147424D01*
X160713594Y-97147424D01*
X160772841Y-97145562D01*
X160776799Y-97145500D01*
X160804350Y-97145500D01*
X160808273Y-97145004D01*
X160808388Y-97144997D01*
X160820068Y-97144077D01*
X160863627Y-97142709D01*
X160882716Y-97137163D01*
X160902062Y-97133156D01*
X160921792Y-97130664D01*
X160962323Y-97114616D01*
X160973524Y-97110781D01*
X161015390Y-97098618D01*
X161032499Y-97088500D01*
X161050245Y-97079805D01*
X161068732Y-97072486D01*
X161103991Y-97046869D01*
X161113910Y-97040354D01*
X161144590Y-97022210D01*
X161144594Y-97022207D01*
X161151420Y-97018170D01*
X161165470Y-97004120D01*
X161180504Y-96991279D01*
X161190173Y-96984254D01*
X161196587Y-96979594D01*
X161203884Y-96970774D01*
X161224369Y-96946011D01*
X161232359Y-96937231D01*
X164189591Y-93980000D01*
X167639666Y-93980000D01*
X167658965Y-94200591D01*
X167660388Y-94205901D01*
X167660388Y-94205902D01*
X167714443Y-94407635D01*
X167716277Y-94414480D01*
X167809858Y-94615167D01*
X167813007Y-94619665D01*
X167813011Y-94619671D01*
X167871660Y-94703429D01*
X167936868Y-94796555D01*
X168093445Y-94953132D01*
X168097954Y-94956289D01*
X168097956Y-94956291D01*
X168196494Y-95025288D01*
X168240822Y-95080745D01*
X168248131Y-95151365D01*
X168216100Y-95214725D01*
X168154899Y-95250710D01*
X168124223Y-95254501D01*
X168097624Y-95254501D01*
X168094230Y-95254870D01*
X168094224Y-95254870D01*
X168044278Y-95260295D01*
X168044274Y-95260296D01*
X168036420Y-95261149D01*
X167902176Y-95311474D01*
X167894997Y-95316854D01*
X167894994Y-95316856D01*
X167794635Y-95392072D01*
X167787454Y-95397454D01*
X167782072Y-95404635D01*
X167706856Y-95504994D01*
X167706854Y-95504997D01*
X167701474Y-95512176D01*
X167670237Y-95595503D01*
X167656085Y-95633254D01*
X167651149Y-95646420D01*
X167644500Y-95707623D01*
X167644501Y-97332376D01*
X167651149Y-97393580D01*
X167701474Y-97527824D01*
X167706854Y-97535003D01*
X167706856Y-97535006D01*
X167708931Y-97537774D01*
X167787454Y-97642546D01*
X167794635Y-97647928D01*
X167894994Y-97723144D01*
X167894997Y-97723146D01*
X167902176Y-97728526D01*
X167978940Y-97757303D01*
X168029025Y-97776079D01*
X168029027Y-97776079D01*
X168036420Y-97778851D01*
X168044270Y-97779704D01*
X168044271Y-97779704D01*
X168094217Y-97785130D01*
X168097623Y-97785500D01*
X168909881Y-97785500D01*
X169722376Y-97785499D01*
X169725770Y-97785130D01*
X169725776Y-97785130D01*
X169775722Y-97779705D01*
X169775726Y-97779704D01*
X169783580Y-97778851D01*
X169917824Y-97728526D01*
X169925003Y-97723146D01*
X169925006Y-97723144D01*
X170025365Y-97647928D01*
X170032546Y-97642546D01*
X170111069Y-97537774D01*
X170113144Y-97535006D01*
X170113146Y-97535003D01*
X170118526Y-97527824D01*
X170168851Y-97393580D01*
X170175500Y-97332377D01*
X170175499Y-96297347D01*
X170195501Y-96229226D01*
X170212404Y-96208252D01*
X171623336Y-94797321D01*
X173068075Y-93352582D01*
X173074341Y-93346728D01*
X173111669Y-93314165D01*
X173117396Y-93309169D01*
X173153690Y-93257527D01*
X173157616Y-93252242D01*
X173191895Y-93208524D01*
X173191897Y-93208520D01*
X173196584Y-93202543D01*
X173199710Y-93195620D01*
X173201495Y-93192672D01*
X173208887Y-93179712D01*
X173210520Y-93176666D01*
X173214887Y-93170453D01*
X173237820Y-93111633D01*
X173240376Y-93105554D01*
X173263230Y-93054938D01*
X173263231Y-93054935D01*
X173266355Y-93048016D01*
X173267739Y-93040549D01*
X173268764Y-93037278D01*
X173272863Y-93022886D01*
X173273715Y-93019569D01*
X173276476Y-93012487D01*
X173284716Y-92949894D01*
X173285747Y-92943387D01*
X173286619Y-92938685D01*
X173297253Y-92881308D01*
X173293709Y-92819844D01*
X173293500Y-92812592D01*
X173293500Y-90549450D01*
X173313502Y-90481329D01*
X173326837Y-90465248D01*
X173326450Y-90464914D01*
X173330616Y-90460088D01*
X173335257Y-90455699D01*
X173448927Y-90293362D01*
X173527633Y-90111483D01*
X173561365Y-89950019D01*
X173567169Y-89922238D01*
X173567169Y-89922234D01*
X173568160Y-89917493D01*
X173568500Y-89911005D01*
X173568500Y-89115471D01*
X173553504Y-88967837D01*
X173494241Y-88778728D01*
X173398162Y-88605398D01*
X173269193Y-88454927D01*
X173264154Y-88451018D01*
X173117646Y-88337375D01*
X173117643Y-88337373D01*
X173112602Y-88333463D01*
X173106876Y-88330645D01*
X173106872Y-88330643D01*
X172940515Y-88248785D01*
X172934786Y-88245966D01*
X172825420Y-88217478D01*
X172749189Y-88197621D01*
X172749186Y-88197621D01*
X172743007Y-88196011D01*
X172664180Y-88191880D01*
X172551483Y-88185974D01*
X172551479Y-88185974D01*
X172545101Y-88185640D01*
X172399635Y-88207639D01*
X172355466Y-88214319D01*
X172355465Y-88214319D01*
X172349152Y-88215274D01*
X172343164Y-88217477D01*
X172343161Y-88217478D01*
X172275381Y-88242417D01*
X172163164Y-88283705D01*
X172157748Y-88287063D01*
X172157744Y-88287065D01*
X172087460Y-88330643D01*
X171994734Y-88388135D01*
X171850743Y-88524301D01*
X171737073Y-88686638D01*
X171658367Y-88868517D01*
X171657062Y-88874764D01*
X171624225Y-89031946D01*
X171617840Y-89062507D01*
X171617500Y-89068995D01*
X171617500Y-89864529D01*
X171632496Y-90012163D01*
X171691759Y-90201272D01*
X171787838Y-90374602D01*
X171813034Y-90403998D01*
X171862168Y-90461324D01*
X171891312Y-90526063D01*
X171892500Y-90543322D01*
X171892500Y-92494653D01*
X171872498Y-92562774D01*
X171855595Y-92583748D01*
X170393846Y-94045497D01*
X170331534Y-94079523D01*
X170260719Y-94074458D01*
X170203883Y-94031911D01*
X170179230Y-93967383D01*
X170177261Y-93944870D01*
X170169232Y-93853100D01*
X170162955Y-93781351D01*
X170176945Y-93711746D01*
X170199381Y-93681275D01*
X170782067Y-93098589D01*
X170788333Y-93092735D01*
X170825671Y-93060163D01*
X170831396Y-93055169D01*
X170835761Y-93048958D01*
X170835764Y-93048955D01*
X170867705Y-93003507D01*
X170871638Y-92998212D01*
X170905893Y-92954524D01*
X170910583Y-92948543D01*
X170913711Y-92941616D01*
X170915486Y-92938685D01*
X170922903Y-92925682D01*
X170924519Y-92922668D01*
X170928887Y-92916453D01*
X170931646Y-92909377D01*
X170931648Y-92909373D01*
X170951819Y-92857636D01*
X170954375Y-92851555D01*
X170977231Y-92800935D01*
X170977231Y-92800934D01*
X170980355Y-92794016D01*
X170981739Y-92786550D01*
X170982757Y-92783301D01*
X170986877Y-92768836D01*
X170987717Y-92765563D01*
X170990476Y-92758487D01*
X170998716Y-92695894D01*
X170999748Y-92689377D01*
X171009868Y-92634775D01*
X171011252Y-92627308D01*
X171007709Y-92565861D01*
X171007500Y-92558609D01*
X171007500Y-90549450D01*
X171027502Y-90481329D01*
X171040837Y-90465248D01*
X171040450Y-90464914D01*
X171044616Y-90460088D01*
X171049257Y-90455699D01*
X171162927Y-90293362D01*
X171241633Y-90111483D01*
X171275365Y-89950019D01*
X171281169Y-89922238D01*
X171281169Y-89922234D01*
X171282160Y-89917493D01*
X171282500Y-89911005D01*
X171282500Y-89115471D01*
X171267504Y-88967837D01*
X171208241Y-88778728D01*
X171112162Y-88605398D01*
X170983193Y-88454927D01*
X170978154Y-88451018D01*
X170831646Y-88337375D01*
X170831643Y-88337373D01*
X170826602Y-88333463D01*
X170820876Y-88330645D01*
X170820872Y-88330643D01*
X170654515Y-88248785D01*
X170648786Y-88245966D01*
X170539420Y-88217478D01*
X170463189Y-88197621D01*
X170463186Y-88197621D01*
X170457007Y-88196011D01*
X170378180Y-88191880D01*
X170265483Y-88185974D01*
X170265479Y-88185974D01*
X170259101Y-88185640D01*
X170113635Y-88207639D01*
X170069466Y-88214319D01*
X170069465Y-88214319D01*
X170063152Y-88215274D01*
X170057164Y-88217477D01*
X170057161Y-88217478D01*
X169989381Y-88242417D01*
X169877164Y-88283705D01*
X169871748Y-88287063D01*
X169871744Y-88287065D01*
X169801460Y-88330643D01*
X169708734Y-88388135D01*
X169564743Y-88524301D01*
X169451073Y-88686638D01*
X169372367Y-88868517D01*
X169371062Y-88874764D01*
X169338225Y-89031946D01*
X169331840Y-89062507D01*
X169331500Y-89068995D01*
X169331500Y-89864529D01*
X169346496Y-90012163D01*
X169405759Y-90201272D01*
X169501838Y-90374602D01*
X169527034Y-90403998D01*
X169576168Y-90461324D01*
X169605312Y-90526063D01*
X169606500Y-90543322D01*
X169606500Y-92240653D01*
X169586498Y-92308774D01*
X169569595Y-92329748D01*
X169208724Y-92690619D01*
X169146412Y-92724645D01*
X169108648Y-92727045D01*
X168915476Y-92710145D01*
X168915475Y-92710145D01*
X168910000Y-92709666D01*
X168689409Y-92728965D01*
X168684099Y-92730388D01*
X168684098Y-92730388D01*
X168480829Y-92784854D01*
X168480824Y-92784856D01*
X168475520Y-92786277D01*
X168274833Y-92879858D01*
X168270335Y-92883007D01*
X168270329Y-92883011D01*
X168097956Y-93003709D01*
X168093445Y-93006868D01*
X167936868Y-93163445D01*
X167933711Y-93167954D01*
X167933709Y-93167956D01*
X167813011Y-93340329D01*
X167813007Y-93340335D01*
X167809858Y-93344833D01*
X167716277Y-93545520D01*
X167658965Y-93759409D01*
X167639666Y-93980000D01*
X164189591Y-93980000D01*
X166757349Y-91412242D01*
X166765469Y-91404853D01*
X166771877Y-91400786D01*
X166817885Y-91351793D01*
X166820640Y-91348951D01*
X166840120Y-91329471D01*
X166842548Y-91326341D01*
X166842620Y-91326259D01*
X166850229Y-91317351D01*
X166880062Y-91285582D01*
X166889636Y-91268167D01*
X166900493Y-91251638D01*
X166907814Y-91242200D01*
X166912673Y-91235936D01*
X166929980Y-91195942D01*
X166935202Y-91185282D01*
X166952378Y-91154038D01*
X166956197Y-91147092D01*
X166961141Y-91127836D01*
X166967540Y-91109147D01*
X166975438Y-91090896D01*
X166982257Y-91047841D01*
X166984660Y-91036237D01*
X166995500Y-90994019D01*
X166995500Y-90974144D01*
X166997051Y-90954434D01*
X166998920Y-90942633D01*
X167000160Y-90934804D01*
X166996059Y-90891420D01*
X166995500Y-90879563D01*
X166995500Y-90517880D01*
X167004107Y-90472110D01*
X167006783Y-90465248D01*
X167053476Y-90345487D01*
X167070500Y-90216174D01*
X167070500Y-84838637D01*
X167070792Y-84830066D01*
X167074161Y-84780646D01*
X167074678Y-84773070D01*
X167073373Y-84765594D01*
X167073373Y-84765590D01*
X167063822Y-84710868D01*
X167062859Y-84704342D01*
X167056189Y-84649226D01*
X167055276Y-84641680D01*
X167052591Y-84634573D01*
X167051782Y-84631280D01*
X167047823Y-84616809D01*
X167046834Y-84613533D01*
X167045527Y-84606046D01*
X167042472Y-84599086D01*
X167020154Y-84548242D01*
X167017662Y-84542137D01*
X167013501Y-84531126D01*
X166995345Y-84483077D01*
X166991047Y-84476824D01*
X166989463Y-84473793D01*
X166982183Y-84460716D01*
X166980433Y-84457757D01*
X166977378Y-84450797D01*
X166972753Y-84444770D01*
X166972751Y-84444766D01*
X166938938Y-84400700D01*
X166935073Y-84395381D01*
X166899312Y-84343349D01*
X166853351Y-84302399D01*
X166848076Y-84297419D01*
X165267405Y-82716748D01*
X165233379Y-82654436D01*
X165230500Y-82627653D01*
X165230499Y-81701042D01*
X165230499Y-81697624D01*
X165226422Y-81660088D01*
X165224705Y-81644278D01*
X165224704Y-81644274D01*
X165223851Y-81636420D01*
X165173526Y-81502176D01*
X165168146Y-81494997D01*
X165168144Y-81494994D01*
X165092928Y-81394635D01*
X165087546Y-81387454D01*
X165058256Y-81365502D01*
X164980006Y-81306856D01*
X164980003Y-81306854D01*
X164972824Y-81301474D01*
X164861756Y-81259837D01*
X164845975Y-81253921D01*
X164845973Y-81253921D01*
X164838580Y-81251149D01*
X164830730Y-81250296D01*
X164830729Y-81250296D01*
X164780774Y-81244869D01*
X164780773Y-81244869D01*
X164777377Y-81244500D01*
X164471086Y-81244500D01*
X162900345Y-81244501D01*
X162832224Y-81224499D01*
X162785731Y-81170843D01*
X162775627Y-81100569D01*
X162793375Y-81061708D01*
X169324000Y-81061708D01*
X169324323Y-81068083D01*
X169338467Y-81207330D01*
X169341021Y-81219770D01*
X169396920Y-81398143D01*
X169401929Y-81409831D01*
X169492553Y-81573320D01*
X169499804Y-81583753D01*
X169621456Y-81725688D01*
X169630647Y-81734441D01*
X169778364Y-81849021D01*
X169789124Y-81855745D01*
X169956860Y-81938281D01*
X169968767Y-81942709D01*
X170035469Y-81960083D01*
X170049564Y-81959649D01*
X170053000Y-81951468D01*
X170053000Y-81950867D01*
X170561000Y-81950867D01*
X170564973Y-81964398D01*
X170571075Y-81965275D01*
X170734145Y-81905277D01*
X170745573Y-81899703D01*
X170904440Y-81801201D01*
X170914504Y-81793451D01*
X171050322Y-81665014D01*
X171058625Y-81655394D01*
X171165845Y-81502269D01*
X171172042Y-81491180D01*
X171246282Y-81319622D01*
X171250124Y-81307510D01*
X171288664Y-81123029D01*
X171289910Y-81113437D01*
X171289912Y-81113387D01*
X171290000Y-81110051D01*
X171290000Y-80962115D01*
X171285525Y-80946876D01*
X171284135Y-80945671D01*
X171276452Y-80944000D01*
X170579115Y-80944000D01*
X170563876Y-80948475D01*
X170562671Y-80949865D01*
X170561000Y-80957548D01*
X170561000Y-81950867D01*
X170053000Y-81950867D01*
X170053000Y-80962115D01*
X170048525Y-80946876D01*
X170047135Y-80945671D01*
X170039452Y-80944000D01*
X169342115Y-80944000D01*
X169326876Y-80948475D01*
X169325671Y-80949865D01*
X169324000Y-80957548D01*
X169324000Y-81061708D01*
X162793375Y-81061708D01*
X162805121Y-81035989D01*
X162811250Y-81029406D01*
X163855830Y-79984827D01*
X164933252Y-78907405D01*
X164995564Y-78873379D01*
X165022347Y-78870500D01*
X165892003Y-78870499D01*
X165952376Y-78870499D01*
X165955770Y-78870130D01*
X165955776Y-78870130D01*
X166005722Y-78864705D01*
X166005726Y-78864704D01*
X166013580Y-78863851D01*
X166147824Y-78813526D01*
X166155003Y-78808146D01*
X166155006Y-78808144D01*
X166255365Y-78732928D01*
X166262546Y-78727546D01*
X166281958Y-78701645D01*
X166343144Y-78620006D01*
X166343146Y-78620003D01*
X166348526Y-78612824D01*
X166398851Y-78478580D01*
X166402142Y-78448292D01*
X166405131Y-78420774D01*
X166405131Y-78420773D01*
X166405500Y-78417377D01*
X166405500Y-78296500D01*
X166425502Y-78228379D01*
X166479158Y-78181886D01*
X166531500Y-78170500D01*
X169030654Y-78170500D01*
X169098775Y-78190502D01*
X169119749Y-78207405D01*
X170111724Y-79199380D01*
X170145750Y-79261692D01*
X170140685Y-79332507D01*
X170098138Y-79389343D01*
X170060977Y-79407157D01*
X170061277Y-79407973D01*
X169879849Y-79474725D01*
X169868433Y-79480293D01*
X169709560Y-79578799D01*
X169699496Y-79586549D01*
X169563678Y-79714986D01*
X169555375Y-79724606D01*
X169448155Y-79877731D01*
X169441958Y-79888820D01*
X169367718Y-80060378D01*
X169363876Y-80072490D01*
X169325336Y-80256971D01*
X169324090Y-80266563D01*
X169324088Y-80266613D01*
X169324000Y-80269949D01*
X169324000Y-80417885D01*
X169328475Y-80433124D01*
X169329865Y-80434329D01*
X169337548Y-80436000D01*
X171290000Y-80436000D01*
X171290000Y-80439707D01*
X171330242Y-80439703D01*
X171383851Y-80471508D01*
X171580595Y-80668252D01*
X171614621Y-80730564D01*
X171617500Y-80757347D01*
X171617500Y-81064529D01*
X171617823Y-81067708D01*
X171630935Y-81196791D01*
X171632496Y-81212163D01*
X171691759Y-81401272D01*
X171787838Y-81574602D01*
X171916807Y-81725073D01*
X171921844Y-81728980D01*
X171921846Y-81728982D01*
X172068354Y-81842625D01*
X172068357Y-81842627D01*
X172073398Y-81846537D01*
X172079124Y-81849355D01*
X172079128Y-81849357D01*
X172245485Y-81931215D01*
X172251214Y-81934034D01*
X172318144Y-81951468D01*
X172436811Y-81982379D01*
X172436814Y-81982379D01*
X172442993Y-81983989D01*
X172521820Y-81988120D01*
X172634517Y-81994026D01*
X172634521Y-81994026D01*
X172640899Y-81994360D01*
X172786365Y-81972361D01*
X172830534Y-81965681D01*
X172830535Y-81965681D01*
X172836848Y-81964726D01*
X172842836Y-81962523D01*
X172842839Y-81962522D01*
X172915892Y-81935643D01*
X173022836Y-81896295D01*
X173028252Y-81892937D01*
X173028256Y-81892935D01*
X173176208Y-81801201D01*
X173191266Y-81791865D01*
X173287308Y-81701042D01*
X173330616Y-81660088D01*
X173330617Y-81660087D01*
X173335257Y-81655699D01*
X173448927Y-81493362D01*
X173527633Y-81311483D01*
X173543157Y-81237176D01*
X173567169Y-81122238D01*
X173567169Y-81122234D01*
X173568160Y-81117493D01*
X173568500Y-81111005D01*
X173568500Y-80315471D01*
X173553504Y-80167837D01*
X173494241Y-79978728D01*
X173398162Y-79805398D01*
X173269193Y-79654927D01*
X173187404Y-79591485D01*
X173117646Y-79537375D01*
X173117643Y-79537373D01*
X173112602Y-79533463D01*
X173106876Y-79530645D01*
X173106872Y-79530643D01*
X172940515Y-79448785D01*
X172934786Y-79445966D01*
X172845628Y-79422742D01*
X172749189Y-79397621D01*
X172749186Y-79397621D01*
X172743007Y-79396011D01*
X172664180Y-79391880D01*
X172551483Y-79385974D01*
X172551479Y-79385974D01*
X172545101Y-79385640D01*
X172478733Y-79395677D01*
X172377145Y-79411040D01*
X172306799Y-79401449D01*
X172269209Y-79375552D01*
X170824742Y-77931085D01*
X170790716Y-77868773D01*
X170795781Y-77797958D01*
X170838328Y-77741122D01*
X170904848Y-77716311D01*
X170979297Y-77734328D01*
X171158055Y-77843015D01*
X171481795Y-77994665D01*
X171485013Y-77995767D01*
X171485016Y-77995768D01*
X171816796Y-78109362D01*
X171816804Y-78109364D01*
X171820019Y-78110465D01*
X172168771Y-78189060D01*
X172217869Y-78194654D01*
X172520589Y-78229145D01*
X172520597Y-78229145D01*
X172523972Y-78229530D01*
X172527376Y-78229548D01*
X172527379Y-78229548D01*
X172721890Y-78230566D01*
X172881465Y-78231402D01*
X172884851Y-78231052D01*
X172884853Y-78231052D01*
X173233678Y-78195005D01*
X173233687Y-78195004D01*
X173237070Y-78194654D01*
X173240403Y-78193940D01*
X173240406Y-78193939D01*
X173383728Y-78163213D01*
X173586626Y-78119715D01*
X173926045Y-78007463D01*
X174251355Y-77859211D01*
X174450240Y-77741122D01*
X174555806Y-77678442D01*
X174555811Y-77678439D01*
X174558751Y-77676693D01*
X174584598Y-77657287D01*
X174766415Y-77520774D01*
X174844637Y-77462043D01*
X175105669Y-77217774D01*
X175338793Y-76946742D01*
X175390777Y-76871105D01*
X175539352Y-76654927D01*
X175539357Y-76654920D01*
X175541282Y-76652118D01*
X175542894Y-76649124D01*
X175542899Y-76649116D01*
X175709146Y-76340361D01*
X175710768Y-76337349D01*
X175786757Y-76150211D01*
X175830919Y-76094620D01*
X175898124Y-76071730D01*
X175967036Y-76088807D01*
X176015776Y-76140430D01*
X176029500Y-76197615D01*
X176029500Y-98433500D01*
X176009498Y-98501621D01*
X175955842Y-98548114D01*
X175903500Y-98559500D01*
X147327207Y-98559500D01*
X147259086Y-98539498D01*
X147212593Y-98485842D01*
X147202489Y-98415568D01*
X147231983Y-98350988D01*
X147274956Y-98318845D01*
X147578243Y-98180629D01*
X147581355Y-98179211D01*
X147676442Y-98122752D01*
X147885806Y-97998442D01*
X147885811Y-97998439D01*
X147888751Y-97996693D01*
X147914598Y-97977287D01*
X147986778Y-97923092D01*
X148174637Y-97782043D01*
X148435669Y-97537774D01*
X148668793Y-97266742D01*
X148689663Y-97236376D01*
X148869352Y-96974927D01*
X148869357Y-96974920D01*
X148871282Y-96972118D01*
X148872894Y-96969124D01*
X148872899Y-96969116D01*
X149039146Y-96660361D01*
X149040768Y-96657349D01*
X149175268Y-96326116D01*
X149184608Y-96293330D01*
X149272274Y-95985573D01*
X149273208Y-95982295D01*
X149330620Y-95646420D01*
X149332871Y-95633254D01*
X149332871Y-95633252D01*
X149333443Y-95629907D01*
X149335548Y-95595503D01*
X149355157Y-95274873D01*
X149355267Y-95273075D01*
X149355348Y-95250000D01*
X149336015Y-94893025D01*
X149278242Y-94540225D01*
X149182704Y-94195728D01*
X149178356Y-94184800D01*
X149051780Y-93866730D01*
X149051776Y-93866722D01*
X149050520Y-93863565D01*
X149044979Y-93853100D01*
X148884831Y-93550632D01*
X148884829Y-93550629D01*
X148883236Y-93547620D01*
X148682809Y-93251590D01*
X148451582Y-92978937D01*
X148192262Y-92732851D01*
X148189555Y-92730789D01*
X148189547Y-92730782D01*
X147973057Y-92565862D01*
X147907881Y-92516211D01*
X147601767Y-92331551D01*
X147587058Y-92324723D01*
X147280581Y-92182461D01*
X147280579Y-92182460D01*
X147277500Y-92181031D01*
X147274288Y-92179944D01*
X147274281Y-92179941D01*
X146942110Y-92067508D01*
X146942105Y-92067506D01*
X146938874Y-92066413D01*
X146589849Y-91989036D01*
X146464473Y-91975194D01*
X146237890Y-91950179D01*
X146237885Y-91950179D01*
X146234509Y-91949806D01*
X146231110Y-91949800D01*
X146231109Y-91949800D01*
X146062506Y-91949506D01*
X145877011Y-91949182D01*
X145743770Y-91963421D01*
X145524921Y-91986809D01*
X145524915Y-91986810D01*
X145521537Y-91987171D01*
X145172245Y-92063329D01*
X144833220Y-92176765D01*
X144508430Y-92326152D01*
X144505496Y-92327908D01*
X144505494Y-92327909D01*
X144499409Y-92331551D01*
X144201673Y-92509742D01*
X143916538Y-92725388D01*
X143656360Y-92970567D01*
X143654148Y-92973157D01*
X143654146Y-92973159D01*
X143625356Y-93006868D01*
X143424183Y-93242411D01*
X143422264Y-93245224D01*
X143422261Y-93245228D01*
X143350916Y-93349817D01*
X143222723Y-93537740D01*
X143221116Y-93540750D01*
X143221114Y-93540753D01*
X143072811Y-93818501D01*
X143054337Y-93853100D01*
X143053064Y-93856268D01*
X143053063Y-93856269D01*
X142983407Y-94029545D01*
X142939441Y-94085290D01*
X142872316Y-94108415D01*
X142803344Y-94091578D01*
X142754425Y-94040126D01*
X142740500Y-93982549D01*
X142740500Y-80260475D01*
X146077464Y-80260475D01*
X146096530Y-80478391D01*
X146098433Y-80489186D01*
X146155048Y-80700478D01*
X146158794Y-80710770D01*
X146251240Y-80909020D01*
X146256723Y-80918515D01*
X146293920Y-80971638D01*
X146304397Y-80980013D01*
X146317843Y-80972946D01*
X147022979Y-80267811D01*
X147030592Y-80253868D01*
X147030461Y-80252034D01*
X147026210Y-80245420D01*
X146317119Y-79536330D01*
X146305349Y-79529903D01*
X146293335Y-79539197D01*
X146256723Y-79591485D01*
X146251240Y-79600980D01*
X146158794Y-79799230D01*
X146155048Y-79809522D01*
X146098433Y-80020814D01*
X146096530Y-80031609D01*
X146077464Y-80249525D01*
X146077464Y-80260475D01*
X142740500Y-80260475D01*
X142740500Y-71746500D01*
X142760502Y-71678379D01*
X142814158Y-71631886D01*
X142866500Y-71620500D01*
X146387037Y-71620500D01*
X146455158Y-71640502D01*
G37*
%TD.AperFunction*%
%TA.AperFunction,Conductor*%
G36*
X155300775Y-81365502D02*
G01*
X155321749Y-81382405D01*
X157599411Y-83660067D01*
X157605264Y-83666332D01*
X157642831Y-83709396D01*
X157649046Y-83713764D01*
X157649047Y-83713765D01*
X157694492Y-83745705D01*
X157699783Y-83749635D01*
X157714087Y-83760850D01*
X157737169Y-83784440D01*
X157799454Y-83867546D01*
X157806635Y-83872928D01*
X157906994Y-83948144D01*
X157906997Y-83948146D01*
X157914176Y-83953526D01*
X158003561Y-83987034D01*
X158041025Y-84001079D01*
X158041027Y-84001079D01*
X158048420Y-84003851D01*
X158056270Y-84004704D01*
X158056271Y-84004704D01*
X158106217Y-84010130D01*
X158109623Y-84010500D01*
X158169500Y-84010500D01*
X158237621Y-84030502D01*
X158284114Y-84084158D01*
X158295500Y-84136500D01*
X158295500Y-84903297D01*
X158294983Y-84914257D01*
X158293327Y-84921667D01*
X158293576Y-84929593D01*
X158293576Y-84929594D01*
X158295438Y-84988841D01*
X158295500Y-84992799D01*
X158295500Y-85002301D01*
X158275498Y-85070422D01*
X158221842Y-85116915D01*
X158151568Y-85127019D01*
X158086988Y-85097525D01*
X158080845Y-85091805D01*
X157978649Y-85015214D01*
X157963054Y-85006676D01*
X157842606Y-84961522D01*
X157827351Y-84957895D01*
X157776486Y-84952369D01*
X157769672Y-84952000D01*
X157472115Y-84952000D01*
X157456876Y-84956475D01*
X157455671Y-84957865D01*
X157454000Y-84965548D01*
X157454000Y-86087885D01*
X157458475Y-86103124D01*
X157459865Y-86104329D01*
X157467548Y-86106000D01*
X158214884Y-86106000D01*
X158230123Y-86101525D01*
X158231328Y-86100135D01*
X158232999Y-86092452D01*
X158232999Y-85486000D01*
X158253001Y-85417879D01*
X158306657Y-85371386D01*
X158376931Y-85361282D01*
X158441511Y-85390776D01*
X158450795Y-85400888D01*
X158451320Y-85400395D01*
X158456746Y-85406174D01*
X158461406Y-85412587D01*
X158467514Y-85417640D01*
X158494989Y-85440369D01*
X158503769Y-85448359D01*
X159237595Y-86182185D01*
X159271621Y-86244497D01*
X159274500Y-86271279D01*
X159274501Y-86464672D01*
X159258915Y-86525374D01*
X159255363Y-86531835D01*
X159244508Y-86548361D01*
X159232327Y-86564064D01*
X159229179Y-86571339D01*
X159215020Y-86604058D01*
X159209798Y-86614718D01*
X159188803Y-86652908D01*
X159183859Y-86672164D01*
X159177460Y-86690853D01*
X159169562Y-86709104D01*
X159168322Y-86716934D01*
X159162744Y-86752154D01*
X159160340Y-86763763D01*
X159149500Y-86805981D01*
X159149500Y-86825856D01*
X159147949Y-86845566D01*
X159144840Y-86865196D01*
X159145586Y-86873088D01*
X159148941Y-86908579D01*
X159149500Y-86920437D01*
X159149500Y-88636000D01*
X159129498Y-88704121D01*
X159075842Y-88750614D01*
X159023500Y-88762000D01*
X158742115Y-88762000D01*
X158726876Y-88766475D01*
X158725671Y-88767865D01*
X158724000Y-88775548D01*
X158724000Y-91559884D01*
X158728475Y-91575123D01*
X158729865Y-91576328D01*
X158737548Y-91577999D01*
X159023500Y-91577999D01*
X159091621Y-91598001D01*
X159138114Y-91651657D01*
X159149500Y-91703999D01*
X159149500Y-93818501D01*
X159129498Y-93886622D01*
X159075842Y-93933115D01*
X159023500Y-93944501D01*
X158922624Y-93944501D01*
X158919230Y-93944870D01*
X158919224Y-93944870D01*
X158869278Y-93950295D01*
X158869274Y-93950296D01*
X158861420Y-93951149D01*
X158727176Y-94001474D01*
X158719997Y-94006854D01*
X158719994Y-94006856D01*
X158629794Y-94074458D01*
X158612454Y-94087454D01*
X158607072Y-94094635D01*
X158531856Y-94194994D01*
X158531854Y-94194997D01*
X158526474Y-94202176D01*
X158476149Y-94336420D01*
X158475296Y-94344269D01*
X158475296Y-94344270D01*
X158473789Y-94358144D01*
X158446547Y-94423706D01*
X158388184Y-94464132D01*
X158317230Y-94466587D01*
X158256212Y-94430292D01*
X158245311Y-94416804D01*
X158243684Y-94414480D01*
X158238891Y-94407635D01*
X158077365Y-94246109D01*
X158072857Y-94242952D01*
X158072854Y-94242950D01*
X157937727Y-94148333D01*
X157890244Y-94115085D01*
X157885262Y-94112762D01*
X157885257Y-94112759D01*
X157688195Y-94020868D01*
X157688194Y-94020867D01*
X157683213Y-94018545D01*
X157677905Y-94017123D01*
X157677903Y-94017122D01*
X157607748Y-93998324D01*
X157462564Y-93959422D01*
X157235000Y-93939513D01*
X157007436Y-93959422D01*
X156862252Y-93998324D01*
X156792097Y-94017122D01*
X156792095Y-94017123D01*
X156786787Y-94018545D01*
X156781806Y-94020867D01*
X156781805Y-94020868D01*
X156584744Y-94112759D01*
X156584739Y-94112762D01*
X156579757Y-94115085D01*
X156575250Y-94118241D01*
X156575248Y-94118242D01*
X156397146Y-94242950D01*
X156397143Y-94242952D01*
X156392635Y-94246109D01*
X156231109Y-94407635D01*
X156227952Y-94412143D01*
X156227950Y-94412146D01*
X156135907Y-94543598D01*
X156100085Y-94594757D01*
X156097760Y-94599744D01*
X156097756Y-94599750D01*
X156083331Y-94630684D01*
X156036414Y-94683969D01*
X155968136Y-94703429D01*
X155900176Y-94682887D01*
X155854942Y-94630683D01*
X155838760Y-94595981D01*
X155833277Y-94586485D01*
X155796080Y-94533362D01*
X155785603Y-94524987D01*
X155772156Y-94532055D01*
X154784095Y-95520115D01*
X154721783Y-95554141D01*
X154650967Y-95549076D01*
X154605905Y-95520115D01*
X153617123Y-94531334D01*
X153605347Y-94524904D01*
X153593335Y-94534197D01*
X153556723Y-94586485D01*
X153551240Y-94595980D01*
X153458794Y-94794230D01*
X153455045Y-94804531D01*
X153453482Y-94810363D01*
X153416529Y-94870984D01*
X153352667Y-94902003D01*
X153282173Y-94893572D01*
X153231818Y-94854454D01*
X153187978Y-94797321D01*
X152550054Y-94159397D01*
X153969987Y-94159397D01*
X153977054Y-94172843D01*
X154682189Y-94877979D01*
X154696132Y-94885592D01*
X154697966Y-94885461D01*
X154704580Y-94881210D01*
X155413671Y-94172118D01*
X155420098Y-94160348D01*
X155410802Y-94148333D01*
X155358513Y-94111720D01*
X155349023Y-94106241D01*
X155150770Y-94013794D01*
X155140478Y-94010048D01*
X154929186Y-93953433D01*
X154918391Y-93951530D01*
X154700475Y-93932464D01*
X154689525Y-93932464D01*
X154471609Y-93951530D01*
X154460814Y-93953433D01*
X154249522Y-94010048D01*
X154239230Y-94013794D01*
X154040980Y-94106240D01*
X154031485Y-94111723D01*
X153978362Y-94148920D01*
X153969987Y-94159397D01*
X152550054Y-94159397D01*
X150005207Y-91614550D01*
X149971181Y-91552238D01*
X149976246Y-91481423D01*
X150018793Y-91424587D01*
X150055615Y-91407341D01*
X150055207Y-91406252D01*
X150183054Y-91358324D01*
X150198649Y-91349786D01*
X150300724Y-91273285D01*
X150313285Y-91260724D01*
X150389786Y-91158649D01*
X150398324Y-91143054D01*
X150408965Y-91114669D01*
X157437001Y-91114669D01*
X157437371Y-91121490D01*
X157442895Y-91172352D01*
X157446521Y-91187604D01*
X157491676Y-91308054D01*
X157500214Y-91323649D01*
X157576715Y-91425724D01*
X157589276Y-91438285D01*
X157691351Y-91514786D01*
X157706946Y-91523324D01*
X157827394Y-91568478D01*
X157842649Y-91572105D01*
X157893514Y-91577631D01*
X157900328Y-91578000D01*
X158197885Y-91578000D01*
X158213124Y-91573525D01*
X158214329Y-91572135D01*
X158216000Y-91564452D01*
X158216000Y-90442115D01*
X158211525Y-90426876D01*
X158210135Y-90425671D01*
X158202452Y-90424000D01*
X157455116Y-90424000D01*
X157439877Y-90428475D01*
X157438672Y-90429865D01*
X157437001Y-90437548D01*
X157437001Y-91114669D01*
X150408965Y-91114669D01*
X150443478Y-91022606D01*
X150447105Y-91007351D01*
X150452631Y-90956486D01*
X150453000Y-90949672D01*
X150453000Y-90442115D01*
X150448525Y-90426876D01*
X150447135Y-90425671D01*
X150439452Y-90424000D01*
X149282000Y-90424000D01*
X149213879Y-90403998D01*
X149167386Y-90350342D01*
X149156000Y-90298000D01*
X149156000Y-89897885D01*
X149664000Y-89897885D01*
X149668475Y-89913124D01*
X149669865Y-89914329D01*
X149677548Y-89916000D01*
X150434884Y-89916000D01*
X150450123Y-89911525D01*
X150451328Y-89910135D01*
X150452999Y-89902452D01*
X150452999Y-89897885D01*
X157437000Y-89897885D01*
X157441475Y-89913124D01*
X157442865Y-89914329D01*
X157450548Y-89916000D01*
X158197885Y-89916000D01*
X158213124Y-89911525D01*
X158214329Y-89910135D01*
X158216000Y-89902452D01*
X158216000Y-88780116D01*
X158211525Y-88764877D01*
X158210135Y-88763672D01*
X158202452Y-88762001D01*
X157900331Y-88762001D01*
X157893510Y-88762371D01*
X157842648Y-88767895D01*
X157827396Y-88771521D01*
X157706946Y-88816676D01*
X157691351Y-88825214D01*
X157589276Y-88901715D01*
X157576715Y-88914276D01*
X157500214Y-89016351D01*
X157491676Y-89031946D01*
X157446522Y-89152394D01*
X157442895Y-89167649D01*
X157437369Y-89218514D01*
X157437000Y-89225328D01*
X157437000Y-89897885D01*
X150452999Y-89897885D01*
X150452999Y-89390331D01*
X150452629Y-89383510D01*
X150447105Y-89332648D01*
X150443479Y-89317396D01*
X150398324Y-89196946D01*
X150389786Y-89181351D01*
X150313285Y-89079276D01*
X150300724Y-89066715D01*
X150198649Y-88990214D01*
X150183054Y-88981676D01*
X150062606Y-88936522D01*
X150047351Y-88932895D01*
X149996486Y-88927369D01*
X149989672Y-88927000D01*
X149682115Y-88927000D01*
X149666876Y-88931475D01*
X149665671Y-88932865D01*
X149664000Y-88940548D01*
X149664000Y-89897885D01*
X149156000Y-89897885D01*
X149156000Y-88945116D01*
X149151525Y-88929877D01*
X149150135Y-88928672D01*
X149142452Y-88927001D01*
X148830331Y-88927001D01*
X148823510Y-88927371D01*
X148772648Y-88932895D01*
X148757396Y-88936521D01*
X148628538Y-88984828D01*
X148627648Y-88982454D01*
X148571408Y-88994757D01*
X148536025Y-88987051D01*
X148448895Y-88954388D01*
X148420975Y-88943921D01*
X148420973Y-88943921D01*
X148413580Y-88941149D01*
X148405730Y-88940296D01*
X148405729Y-88940296D01*
X148355774Y-88934869D01*
X148355773Y-88934869D01*
X148352377Y-88934500D01*
X148336226Y-88934500D01*
X147866499Y-88934501D01*
X147798379Y-88914499D01*
X147751886Y-88860844D01*
X147740500Y-88808501D01*
X147740500Y-87304669D01*
X151087001Y-87304669D01*
X151087371Y-87311490D01*
X151092895Y-87362352D01*
X151096521Y-87377604D01*
X151141676Y-87498054D01*
X151150214Y-87513649D01*
X151226715Y-87615724D01*
X151239276Y-87628285D01*
X151341351Y-87704786D01*
X151356946Y-87713324D01*
X151477394Y-87758478D01*
X151492649Y-87762105D01*
X151543514Y-87767631D01*
X151550328Y-87768000D01*
X151847885Y-87768000D01*
X151863124Y-87763525D01*
X151864329Y-87762135D01*
X151866000Y-87754452D01*
X151866000Y-87749884D01*
X152374000Y-87749884D01*
X152378475Y-87765123D01*
X152379865Y-87766328D01*
X152387548Y-87767999D01*
X152689669Y-87767999D01*
X152696490Y-87767629D01*
X152747352Y-87762105D01*
X152762604Y-87758479D01*
X152883054Y-87713324D01*
X152898649Y-87704786D01*
X153000724Y-87628285D01*
X153013285Y-87615724D01*
X153089786Y-87513649D01*
X153098324Y-87498054D01*
X153143478Y-87377606D01*
X153147105Y-87362351D01*
X153152631Y-87311486D01*
X153153000Y-87304672D01*
X153153000Y-86632115D01*
X153148525Y-86616876D01*
X153147135Y-86615671D01*
X153139452Y-86614000D01*
X152392115Y-86614000D01*
X152376876Y-86618475D01*
X152375671Y-86619865D01*
X152374000Y-86627548D01*
X152374000Y-87749884D01*
X151866000Y-87749884D01*
X151866000Y-86632115D01*
X151861525Y-86616876D01*
X151860135Y-86615671D01*
X151852452Y-86614000D01*
X151105116Y-86614000D01*
X151089877Y-86618475D01*
X151088672Y-86619865D01*
X151087001Y-86627548D01*
X151087001Y-87304669D01*
X147740500Y-87304669D01*
X147740500Y-85273598D01*
X147760502Y-85205477D01*
X147803955Y-85164976D01*
X147807824Y-85163526D01*
X147815009Y-85158141D01*
X147815011Y-85158140D01*
X147915365Y-85082928D01*
X147922546Y-85077546D01*
X147933260Y-85063251D01*
X148003144Y-84970006D01*
X148003146Y-84970003D01*
X148008526Y-84962824D01*
X148058851Y-84828580D01*
X148064059Y-84780646D01*
X148065131Y-84770774D01*
X148065131Y-84770773D01*
X148065500Y-84767377D01*
X148065499Y-83837347D01*
X148085501Y-83769226D01*
X148102400Y-83748256D01*
X148899407Y-82951250D01*
X148961717Y-82917226D01*
X149032533Y-82922291D01*
X149089368Y-82964838D01*
X149114179Y-83031358D01*
X149114500Y-83040347D01*
X149114501Y-83948144D01*
X149114501Y-84767376D01*
X149114870Y-84770770D01*
X149114870Y-84770776D01*
X149117787Y-84797624D01*
X149121149Y-84828580D01*
X149171474Y-84962824D01*
X149176854Y-84970003D01*
X149176856Y-84970006D01*
X149246740Y-85063251D01*
X149257454Y-85077546D01*
X149264635Y-85082928D01*
X149364994Y-85158144D01*
X149364997Y-85158146D01*
X149372176Y-85163526D01*
X149458124Y-85195746D01*
X149499025Y-85211079D01*
X149499027Y-85211079D01*
X149506420Y-85213851D01*
X149514270Y-85214704D01*
X149514271Y-85214704D01*
X149537026Y-85217176D01*
X149567623Y-85220500D01*
X150139916Y-85220500D01*
X150712376Y-85220499D01*
X150715770Y-85220130D01*
X150715776Y-85220130D01*
X150765722Y-85214705D01*
X150765726Y-85214704D01*
X150773580Y-85213851D01*
X150907824Y-85163526D01*
X150918710Y-85155367D01*
X150985214Y-85130520D01*
X151054597Y-85145572D01*
X151104827Y-85195746D01*
X151119958Y-85265112D01*
X151112256Y-85300424D01*
X151096522Y-85342395D01*
X151092895Y-85357649D01*
X151087369Y-85408514D01*
X151087000Y-85415328D01*
X151087000Y-86087885D01*
X151091475Y-86103124D01*
X151092865Y-86104329D01*
X151100548Y-86106000D01*
X151847885Y-86106000D01*
X151863124Y-86101525D01*
X151864329Y-86100135D01*
X151866000Y-86092452D01*
X151866000Y-86087885D01*
X152374000Y-86087885D01*
X152378475Y-86103124D01*
X152379865Y-86104329D01*
X152387548Y-86106000D01*
X153134884Y-86106000D01*
X153150123Y-86101525D01*
X153151328Y-86100135D01*
X153152999Y-86092452D01*
X153152999Y-85415331D01*
X153152629Y-85408510D01*
X153147105Y-85357648D01*
X153143479Y-85342396D01*
X153098324Y-85221946D01*
X153089786Y-85206351D01*
X153013285Y-85104276D01*
X153000724Y-85091715D01*
X152898649Y-85015214D01*
X152883054Y-85006676D01*
X152762606Y-84961522D01*
X152747351Y-84957895D01*
X152696486Y-84952369D01*
X152689672Y-84952000D01*
X152392115Y-84952000D01*
X152376876Y-84956475D01*
X152375671Y-84957865D01*
X152374000Y-84965548D01*
X152374000Y-86087885D01*
X151866000Y-86087885D01*
X151866000Y-84970116D01*
X151861525Y-84954877D01*
X151860135Y-84953672D01*
X151852452Y-84952001D01*
X151550331Y-84952001D01*
X151543510Y-84952371D01*
X151492648Y-84957895D01*
X151477396Y-84961521D01*
X151356946Y-85006676D01*
X151341353Y-85015213D01*
X151335035Y-85019948D01*
X151268528Y-85044794D01*
X151199146Y-85029740D01*
X151148917Y-84979565D01*
X151133788Y-84910199D01*
X151141490Y-84874891D01*
X151156079Y-84835975D01*
X151156079Y-84835973D01*
X151158851Y-84828580D01*
X151164059Y-84780646D01*
X151165131Y-84770774D01*
X151165131Y-84770773D01*
X151165500Y-84767377D01*
X151165499Y-83837347D01*
X151185501Y-83769226D01*
X151202400Y-83748256D01*
X151395987Y-83554669D01*
X152227001Y-83554669D01*
X152227371Y-83561490D01*
X152232895Y-83612352D01*
X152236521Y-83627604D01*
X152281676Y-83748054D01*
X152290214Y-83763649D01*
X152366715Y-83865724D01*
X152379276Y-83878285D01*
X152481351Y-83954786D01*
X152496946Y-83963324D01*
X152617394Y-84008478D01*
X152632649Y-84012105D01*
X152683514Y-84017631D01*
X152690328Y-84018000D01*
X153226885Y-84018000D01*
X153242124Y-84013525D01*
X153243329Y-84012135D01*
X153245000Y-84004452D01*
X153245000Y-83457115D01*
X153240525Y-83441876D01*
X153239135Y-83440671D01*
X153231452Y-83439000D01*
X152245116Y-83439000D01*
X152229877Y-83443475D01*
X152228672Y-83444865D01*
X152227001Y-83452548D01*
X152227001Y-83554669D01*
X151395987Y-83554669D01*
X152036583Y-82914074D01*
X152098893Y-82880050D01*
X152169709Y-82885115D01*
X152208188Y-82907946D01*
X152232865Y-82929329D01*
X152240548Y-82931000D01*
X153627000Y-82931000D01*
X153695121Y-82951002D01*
X153741614Y-83004658D01*
X153753000Y-83057000D01*
X153753000Y-83999884D01*
X153757475Y-84015123D01*
X153758865Y-84016328D01*
X153766548Y-84017999D01*
X154307669Y-84017999D01*
X154314490Y-84017629D01*
X154373207Y-84011252D01*
X154373377Y-84012813D01*
X154435257Y-84016045D01*
X154492899Y-84057493D01*
X154518983Y-84123524D01*
X154519500Y-84134925D01*
X154519500Y-84906402D01*
X154499498Y-84974523D01*
X154456045Y-85015024D01*
X154452176Y-85016474D01*
X154444991Y-85021859D01*
X154444989Y-85021860D01*
X154414389Y-85044794D01*
X154337454Y-85102454D01*
X154332072Y-85109635D01*
X154256856Y-85209994D01*
X154256854Y-85209997D01*
X154251474Y-85217176D01*
X154201149Y-85351420D01*
X154194500Y-85412623D01*
X154194501Y-87307376D01*
X154201149Y-87368580D01*
X154251474Y-87502824D01*
X154256854Y-87510003D01*
X154256856Y-87510006D01*
X154303650Y-87572442D01*
X154337454Y-87617546D01*
X154344635Y-87622928D01*
X154444994Y-87698144D01*
X154444997Y-87698146D01*
X154452176Y-87703526D01*
X154541561Y-87737034D01*
X154579025Y-87751079D01*
X154579027Y-87751079D01*
X154586420Y-87753851D01*
X154594270Y-87754704D01*
X154594271Y-87754704D01*
X154629020Y-87758479D01*
X154647623Y-87760500D01*
X155219916Y-87760500D01*
X155792376Y-87760499D01*
X155795770Y-87760130D01*
X155795776Y-87760130D01*
X155845722Y-87754705D01*
X155845726Y-87754704D01*
X155853580Y-87753851D01*
X155987824Y-87703526D01*
X155995003Y-87698146D01*
X155995006Y-87698144D01*
X156095365Y-87622928D01*
X156102546Y-87617546D01*
X156107928Y-87610365D01*
X156114277Y-87604016D01*
X156116348Y-87606087D01*
X156161343Y-87572442D01*
X156232162Y-87567415D01*
X156294456Y-87601473D01*
X156306137Y-87614953D01*
X156306714Y-87615723D01*
X156319276Y-87628285D01*
X156421351Y-87704786D01*
X156436946Y-87713324D01*
X156557394Y-87758478D01*
X156572649Y-87762105D01*
X156623514Y-87767631D01*
X156630328Y-87768000D01*
X156927885Y-87768000D01*
X156943124Y-87763525D01*
X156944329Y-87762135D01*
X156946000Y-87754452D01*
X156946000Y-87749884D01*
X157454000Y-87749884D01*
X157458475Y-87765123D01*
X157459865Y-87766328D01*
X157467548Y-87767999D01*
X157769669Y-87767999D01*
X157776490Y-87767629D01*
X157827352Y-87762105D01*
X157842604Y-87758479D01*
X157963054Y-87713324D01*
X157978649Y-87704786D01*
X158080724Y-87628285D01*
X158093285Y-87615724D01*
X158169786Y-87513649D01*
X158178324Y-87498054D01*
X158223478Y-87377606D01*
X158227105Y-87362351D01*
X158232631Y-87311486D01*
X158233000Y-87304672D01*
X158233000Y-86632115D01*
X158228525Y-86616876D01*
X158227135Y-86615671D01*
X158219452Y-86614000D01*
X157472115Y-86614000D01*
X157456876Y-86618475D01*
X157455671Y-86619865D01*
X157454000Y-86627548D01*
X157454000Y-87749884D01*
X156946000Y-87749884D01*
X156946000Y-84970116D01*
X156941525Y-84954877D01*
X156940135Y-84953672D01*
X156932452Y-84952001D01*
X156630331Y-84952001D01*
X156623510Y-84952371D01*
X156572648Y-84957895D01*
X156557396Y-84961521D01*
X156436946Y-85006676D01*
X156421351Y-85015214D01*
X156319276Y-85091715D01*
X156306714Y-85104277D01*
X156306137Y-85105047D01*
X156305372Y-85105619D01*
X156300365Y-85110626D01*
X156299642Y-85109903D01*
X156249277Y-85147560D01*
X156178458Y-85152584D01*
X156116166Y-85118523D01*
X156111948Y-85113655D01*
X156107928Y-85109635D01*
X156102546Y-85102454D01*
X156025611Y-85044794D01*
X155995011Y-85021860D01*
X155995009Y-85021859D01*
X155987824Y-85016474D01*
X155984183Y-85015109D01*
X155935847Y-84966667D01*
X155920500Y-84906402D01*
X155920500Y-83045637D01*
X155920792Y-83037066D01*
X155921313Y-83029420D01*
X155924678Y-82980070D01*
X155923373Y-82972594D01*
X155923373Y-82972590D01*
X155913822Y-82917868D01*
X155912859Y-82911342D01*
X155906189Y-82856226D01*
X155905276Y-82848680D01*
X155902591Y-82841573D01*
X155901782Y-82838280D01*
X155897823Y-82823809D01*
X155896834Y-82820533D01*
X155895527Y-82813046D01*
X155891567Y-82804025D01*
X155870154Y-82755242D01*
X155867662Y-82749137D01*
X155855423Y-82716748D01*
X155845345Y-82690077D01*
X155841047Y-82683824D01*
X155839463Y-82680793D01*
X155832183Y-82667716D01*
X155830433Y-82664757D01*
X155827378Y-82657797D01*
X155822753Y-82651770D01*
X155822751Y-82651766D01*
X155788938Y-82607700D01*
X155785073Y-82602381D01*
X155749312Y-82550349D01*
X155703351Y-82509399D01*
X155698076Y-82504419D01*
X154798192Y-81604535D01*
X154764166Y-81542223D01*
X154762024Y-81529047D01*
X154760018Y-81510580D01*
X154757251Y-81485105D01*
X154769780Y-81415224D01*
X154818101Y-81363209D01*
X154882514Y-81345500D01*
X155232654Y-81345500D01*
X155300775Y-81365502D01*
G37*
%TD.AperFunction*%
%TD*%
M02*
