%TF.GenerationSoftware,KiCad,Pcbnew,7.0.2*%
%TF.CreationDate,2023-06-01T11:51:46+02:00*%
%TF.ProjectId,Indicator_voltage,496e6469-6361-4746-9f72-5f766f6c7461,rev?*%
%TF.SameCoordinates,Original*%
%TF.FileFunction,Drillmap*%
%TF.FilePolarity,Positive*%
%FSLAX45Y45*%
G04 Gerber Fmt 4.5, Leading zero omitted, Abs format (unit mm)*
G04 Created by KiCad (PCBNEW 7.0.2) date 2023-06-01 11:51:46*
%MOMM*%
%LPD*%
G01*
G04 APERTURE LIST*
%ADD10C,0.100000*%
%ADD11C,0.200000*%
G04 APERTURE END LIST*
D10*
X11811000Y-8791000D02*
X17145000Y-8791000D01*
X17145000Y-12728000D01*
X11811000Y-12728000D01*
X11811000Y-8791000D01*
D11*
X12053619Y-13045524D02*
X12053619Y-12845524D01*
X12053619Y-12845524D02*
X12101238Y-12845524D01*
X12101238Y-12845524D02*
X12129809Y-12855048D01*
X12129809Y-12855048D02*
X12148857Y-12874095D01*
X12148857Y-12874095D02*
X12158381Y-12893143D01*
X12158381Y-12893143D02*
X12167905Y-12931238D01*
X12167905Y-12931238D02*
X12167905Y-12959809D01*
X12167905Y-12959809D02*
X12158381Y-12997905D01*
X12158381Y-12997905D02*
X12148857Y-13016952D01*
X12148857Y-13016952D02*
X12129809Y-13036000D01*
X12129809Y-13036000D02*
X12101238Y-13045524D01*
X12101238Y-13045524D02*
X12053619Y-13045524D01*
X12253619Y-13045524D02*
X12253619Y-12912190D01*
X12253619Y-12950286D02*
X12263143Y-12931238D01*
X12263143Y-12931238D02*
X12272667Y-12921714D01*
X12272667Y-12921714D02*
X12291714Y-12912190D01*
X12291714Y-12912190D02*
X12310762Y-12912190D01*
X12377428Y-13045524D02*
X12377428Y-12912190D01*
X12377428Y-12845524D02*
X12367905Y-12855048D01*
X12367905Y-12855048D02*
X12377428Y-12864571D01*
X12377428Y-12864571D02*
X12386952Y-12855048D01*
X12386952Y-12855048D02*
X12377428Y-12845524D01*
X12377428Y-12845524D02*
X12377428Y-12864571D01*
X12501238Y-13045524D02*
X12482190Y-13036000D01*
X12482190Y-13036000D02*
X12472667Y-13016952D01*
X12472667Y-13016952D02*
X12472667Y-12845524D01*
X12606000Y-13045524D02*
X12586952Y-13036000D01*
X12586952Y-13036000D02*
X12577428Y-13016952D01*
X12577428Y-13016952D02*
X12577428Y-12845524D01*
X12834571Y-13045524D02*
X12834571Y-12845524D01*
X12834571Y-12845524D02*
X12901238Y-12988381D01*
X12901238Y-12988381D02*
X12967905Y-12845524D01*
X12967905Y-12845524D02*
X12967905Y-13045524D01*
X13148857Y-13045524D02*
X13148857Y-12940762D01*
X13148857Y-12940762D02*
X13139333Y-12921714D01*
X13139333Y-12921714D02*
X13120286Y-12912190D01*
X13120286Y-12912190D02*
X13082190Y-12912190D01*
X13082190Y-12912190D02*
X13063143Y-12921714D01*
X13148857Y-13036000D02*
X13129809Y-13045524D01*
X13129809Y-13045524D02*
X13082190Y-13045524D01*
X13082190Y-13045524D02*
X13063143Y-13036000D01*
X13063143Y-13036000D02*
X13053619Y-13016952D01*
X13053619Y-13016952D02*
X13053619Y-12997905D01*
X13053619Y-12997905D02*
X13063143Y-12978857D01*
X13063143Y-12978857D02*
X13082190Y-12969333D01*
X13082190Y-12969333D02*
X13129809Y-12969333D01*
X13129809Y-12969333D02*
X13148857Y-12959809D01*
X13244095Y-12912190D02*
X13244095Y-13112190D01*
X13244095Y-12921714D02*
X13263143Y-12912190D01*
X13263143Y-12912190D02*
X13301238Y-12912190D01*
X13301238Y-12912190D02*
X13320286Y-12921714D01*
X13320286Y-12921714D02*
X13329809Y-12931238D01*
X13329809Y-12931238D02*
X13339333Y-12950286D01*
X13339333Y-12950286D02*
X13339333Y-13007428D01*
X13339333Y-13007428D02*
X13329809Y-13026476D01*
X13329809Y-13026476D02*
X13320286Y-13036000D01*
X13320286Y-13036000D02*
X13301238Y-13045524D01*
X13301238Y-13045524D02*
X13263143Y-13045524D01*
X13263143Y-13045524D02*
X13244095Y-13036000D01*
X13425048Y-13026476D02*
X13434571Y-13036000D01*
X13434571Y-13036000D02*
X13425048Y-13045524D01*
X13425048Y-13045524D02*
X13415524Y-13036000D01*
X13415524Y-13036000D02*
X13425048Y-13026476D01*
X13425048Y-13026476D02*
X13425048Y-13045524D01*
X13425048Y-12921714D02*
X13434571Y-12931238D01*
X13434571Y-12931238D02*
X13425048Y-12940762D01*
X13425048Y-12940762D02*
X13415524Y-12931238D01*
X13415524Y-12931238D02*
X13425048Y-12921714D01*
X13425048Y-12921714D02*
X13425048Y-12940762D01*
M02*
