%TF.GenerationSoftware,KiCad,Pcbnew,9.0.2*%
%TF.CreationDate,2025-07-25T00:40:22+02:00*%
%TF.ProjectId,BMS_13_VF,424d535f-3133-45f5-9646-2e6b69636164,rev?*%
%TF.SameCoordinates,Original*%
%TF.FileFunction,Copper,L2,Bot*%
%TF.FilePolarity,Positive*%
%FSLAX46Y46*%
G04 Gerber Fmt 4.6, Leading zero omitted, Abs format (unit mm)*
G04 Created by KiCad (PCBNEW 9.0.2) date 2025-07-25 00:40:22*
%MOMM*%
%LPD*%
G01*
G04 APERTURE LIST*
%TA.AperFunction,ComponentPad*%
%ADD10R,2.325000X2.325000*%
%TD*%
%TA.AperFunction,ComponentPad*%
%ADD11C,2.325000*%
%TD*%
%TA.AperFunction,ComponentPad*%
%ADD12C,5.600000*%
%TD*%
%TA.AperFunction,ComponentPad*%
%ADD13R,1.800000X1.800000*%
%TD*%
%TA.AperFunction,ComponentPad*%
%ADD14C,1.800000*%
%TD*%
%TA.AperFunction,ComponentPad*%
%ADD15R,1.530000X1.530000*%
%TD*%
%TA.AperFunction,ComponentPad*%
%ADD16C,1.530000*%
%TD*%
%TA.AperFunction,ComponentPad*%
%ADD17R,1.950000X1.950000*%
%TD*%
%TA.AperFunction,ComponentPad*%
%ADD18C,1.950000*%
%TD*%
%TA.AperFunction,ViaPad*%
%ADD19C,0.800000*%
%TD*%
%TA.AperFunction,ViaPad*%
%ADD20C,0.700000*%
%TD*%
%TA.AperFunction,Conductor*%
%ADD21C,0.400000*%
%TD*%
%TA.AperFunction,Conductor*%
%ADD22C,0.300000*%
%TD*%
%TA.AperFunction,Conductor*%
%ADD23C,0.250000*%
%TD*%
G04 APERTURE END LIST*
D10*
%TO.P,J3,1,Pin_1*%
%TO.N,Net-(J3-Pin_1)*%
X163000000Y-68155000D03*
D11*
%TO.P,J3,2,Pin_2*%
%TO.N,Net-(J3-Pin_2)*%
X165540000Y-68155000D03*
%TD*%
D12*
%TO.P,H4,1*%
%TO.N,N/C*%
X203700000Y-113200000D03*
%TD*%
D13*
%TO.P,J8,1,Pin_1*%
%TO.N,/T16*%
X196160000Y-77875000D03*
D14*
%TO.P,J8,2,Pin_2*%
%TO.N,/T15*%
X193620000Y-77875000D03*
%TO.P,J8,3,Pin_3*%
%TO.N,/T14*%
X191080000Y-77875000D03*
%TO.P,J8,4,Pin_4*%
%TO.N,/T13*%
X188540000Y-77875000D03*
%TO.P,J8,5,Pin_5*%
%TO.N,/T12*%
X186000000Y-77875000D03*
%TO.P,J8,6,Pin_6*%
%TO.N,/T11*%
X183460000Y-77875000D03*
%TO.P,J8,7,Pin_7*%
%TO.N,/T10*%
X180920000Y-77875000D03*
%TO.P,J8,8,Pin_8*%
%TO.N,/T9*%
X178380000Y-77875000D03*
%TO.P,J8,9,Pin_9*%
%TO.N,-VDC*%
X175840000Y-77875000D03*
%TD*%
D15*
%TO.P,J5,1,1*%
%TO.N,/T1*%
X195600000Y-96200000D03*
D16*
%TO.P,J5,2,2*%
%TO.N,Net-(J7-Pin_8)*%
X198140000Y-96200000D03*
%TD*%
D15*
%TO.P,J4,1,1*%
%TO.N,/Cell 1*%
X89525000Y-85705000D03*
D16*
%TO.P,J4,2,2*%
%TO.N,Net-(J6-Pin_6)*%
X89525000Y-83165000D03*
%TD*%
D12*
%TO.P,H3,1*%
%TO.N,N/C*%
X203700000Y-68300000D03*
%TD*%
%TO.P,H1,1*%
%TO.N,N/C*%
X68800000Y-68300000D03*
%TD*%
D17*
%TO.P,J6,1,Pin_1*%
%TO.N,/Cell 11*%
X76930000Y-77500000D03*
D18*
%TO.P,J6,2,Pin_2*%
%TO.N,/Cell 9*%
X79470000Y-77500000D03*
%TO.P,J6,3,Pin_3*%
%TO.N,/Cell 7*%
X82010000Y-77500000D03*
%TO.P,J6,4,Pin_4*%
%TO.N,/Cell 5*%
X84550000Y-77500000D03*
%TO.P,J6,5,Pin_5*%
%TO.N,/Cell 3*%
X87090000Y-77500000D03*
%TO.P,J6,6,Pin_6*%
%TO.N,Net-(J6-Pin_6)*%
X89630000Y-77500000D03*
%TO.P,J6,7,Pin_7*%
%TO.N,+BATT*%
X92170000Y-77500000D03*
%TD*%
D10*
%TO.P,J1,1,Pin_1*%
%TO.N,Net-(J1-Pin_1)*%
X153460000Y-68155000D03*
D11*
%TO.P,J1,2,Pin_2*%
%TO.N,Net-(J1-Pin_2)*%
X156000000Y-68155000D03*
%TD*%
D13*
%TO.P,J7,1,Pin_1*%
%TO.N,/T8*%
X177340000Y-104000000D03*
D14*
%TO.P,J7,2,Pin_2*%
%TO.N,/T7*%
X179880000Y-104000000D03*
%TO.P,J7,3,Pin_3*%
%TO.N,/T6*%
X182420000Y-104000000D03*
%TO.P,J7,4,Pin_4*%
%TO.N,/T5*%
X184960000Y-104000000D03*
%TO.P,J7,5,Pin_5*%
%TO.N,/T4*%
X187500000Y-104000000D03*
%TO.P,J7,6,Pin_6*%
%TO.N,/T3*%
X190040000Y-104000000D03*
%TO.P,J7,7,Pin_7*%
%TO.N,/T2*%
X192580000Y-104000000D03*
%TO.P,J7,8,Pin_8*%
%TO.N,Net-(J7-Pin_8)*%
X195120000Y-104000000D03*
%TO.P,J7,9,Pin_9*%
%TO.N,-VDC*%
X197660000Y-104000000D03*
%TD*%
D17*
%TO.P,J2,1,Pin_1*%
%TO.N,-VDC*%
X92050000Y-104000000D03*
D18*
%TO.P,J2,2,Pin_2*%
%TO.N,/Cell 12*%
X89510000Y-104000000D03*
%TO.P,J2,3,Pin_3*%
%TO.N,/Cell 10*%
X86970000Y-104000000D03*
%TO.P,J2,4,Pin_4*%
%TO.N,/Cell 8*%
X84430000Y-104000000D03*
%TO.P,J2,5,Pin_5*%
%TO.N,/Cell 6*%
X81890000Y-104000000D03*
%TO.P,J2,6,Pin_6*%
%TO.N,/Cell 4*%
X79350000Y-104000000D03*
%TO.P,J2,7,Pin_7*%
%TO.N,/Cell 2*%
X76810000Y-104000000D03*
%TD*%
D12*
%TO.P,H2,1*%
%TO.N,N/C*%
X68800000Y-113200000D03*
%TD*%
D19*
%TO.N,+5V*%
X194500000Y-90000000D03*
D20*
X146000000Y-90000000D03*
D19*
X156700000Y-105800000D03*
D20*
X177000000Y-83000000D03*
D19*
X151000000Y-113500000D03*
D20*
X184500000Y-90500000D03*
D19*
X155000000Y-107500000D03*
X180000000Y-86000000D03*
D20*
X181500000Y-82500000D03*
X173000000Y-99500000D03*
%TO.N,-VDC*%
X117000000Y-78500000D03*
X140500000Y-82500000D03*
X159500000Y-99500000D03*
D19*
X179700000Y-94600000D03*
D20*
X117000000Y-90500000D03*
X140000000Y-76500000D03*
X92000000Y-67500000D03*
X133750000Y-65000000D03*
D19*
X150000000Y-65500000D03*
D20*
X187844425Y-81312811D03*
D19*
X149750000Y-76000000D03*
D20*
X131000000Y-69500000D03*
D19*
X175900000Y-90900000D03*
D20*
X185500000Y-100000000D03*
D19*
X145250000Y-106676900D03*
D20*
X175400000Y-107100000D03*
D19*
X155362652Y-108662652D03*
D20*
X157000000Y-95500000D03*
X117000000Y-66500000D03*
X117000000Y-114500000D03*
X117000000Y-102500000D03*
X195000000Y-88500000D03*
D19*
X171400000Y-86400000D03*
%TO.N,/VREF2*%
X165500000Y-111500000D03*
X173500000Y-106500000D03*
X188500000Y-91000000D03*
X168500000Y-104500000D03*
%TO.N,/C12*%
X140500000Y-98000000D03*
X136500000Y-94500000D03*
X152000000Y-117000000D03*
%TO.N,/Enable*%
X133500000Y-111500000D03*
X151500000Y-111500000D03*
X139000000Y-111500000D03*
X138500000Y-78000000D03*
%TO.N,/SCL*%
X159500000Y-103000000D03*
D20*
X182000000Y-81500000D03*
X192602012Y-91057008D03*
D19*
X148000000Y-114500000D03*
D20*
%TO.N,/SDA*%
X189635627Y-90635627D03*
D19*
X146000000Y-115500000D03*
D20*
X182000000Y-83500000D03*
D19*
X160975000Y-103475000D03*
%TO.N,/Therm_ADC*%
X163700000Y-104750000D03*
X144500000Y-114800000D03*
%TO.N,+BATT*%
X138000000Y-92000000D03*
X147000000Y-92500000D03*
X171500000Y-105500000D03*
X169000000Y-115000000D03*
X115500000Y-64000000D03*
X144500000Y-92500000D03*
D20*
%TO.N,/Cell 10*%
X101050000Y-73000000D03*
%TO.N,/Cell 8*%
X101050000Y-82000000D03*
%TO.N,/Cell 6*%
X100550000Y-91000000D03*
%TO.N,/Cell 4*%
X100550000Y-101000000D03*
%TO.N,/Cell 2*%
X100550000Y-109000000D03*
%TO.N,Net-(Q1-G)*%
X119500000Y-108500000D03*
X102500000Y-112000000D03*
%TO.N,Net-(Q2-G)*%
X119500000Y-104500000D03*
X103000000Y-107500000D03*
%TO.N,Net-(Q3-G)*%
X103000000Y-103000000D03*
X119500000Y-100500000D03*
%TO.N,Net-(Q4-G)*%
X119500000Y-96500000D03*
X103000000Y-98500000D03*
%TO.N,Net-(Q5-G)*%
X103000000Y-94000000D03*
X119500000Y-92500000D03*
%TO.N,Net-(Q6-G)*%
X119500000Y-88500000D03*
X103000000Y-89500000D03*
%TO.N,Net-(Q7-G)*%
X103000000Y-85000000D03*
X119500000Y-84500000D03*
%TO.N,Net-(Q8-G)*%
X103000000Y-80500000D03*
X119500000Y-80500000D03*
%TO.N,Net-(Q9-G)*%
X119500000Y-76500000D03*
X103000000Y-76000000D03*
%TO.N,Net-(Q10-G)*%
X103000000Y-71500000D03*
X119500000Y-72500000D03*
%TO.N,Net-(Q11-G)*%
X119500000Y-68500000D03*
X103000000Y-67000000D03*
%TO.N,Net-(Q12-G)*%
X119500000Y-112500000D03*
X102500000Y-116500000D03*
D19*
%TO.N,/C13*%
X170500000Y-104500000D03*
X144500000Y-94000000D03*
X143500000Y-97000000D03*
X170500000Y-100000000D03*
X172500000Y-114500000D03*
X147000000Y-94000000D03*
%TO.N,/Cell 12*%
X139000000Y-117000000D03*
%TO.N,Net-(Q18-G)*%
X161500000Y-113000000D03*
X168000000Y-107500000D03*
X168000000Y-113000000D03*
X161500000Y-107500000D03*
%TO.N,Net-(U1-IBIAS)*%
X155000000Y-100500000D03*
X155300000Y-106000000D03*
X153000000Y-100500000D03*
X155000000Y-103000000D03*
%TO.N,Net-(U1-ICMP)*%
X153500000Y-103000000D03*
X153926899Y-105926899D03*
%TO.N,/S13*%
X158500000Y-106500000D03*
X140500000Y-97000000D03*
%TD*%
D21*
%TO.N,+5V*%
X194000000Y-90000000D02*
X184500000Y-80500000D01*
D22*
X173000000Y-100000000D02*
X171500000Y-101500000D01*
D21*
X181425500Y-80500000D02*
X179462750Y-82462750D01*
D23*
X156700000Y-105800000D02*
X157000000Y-105500000D01*
D21*
X179000000Y-82925500D02*
X177074500Y-82925500D01*
D22*
X157000000Y-101500000D02*
X171500000Y-101500000D01*
D23*
X156500000Y-107500000D02*
X155000000Y-107500000D01*
D22*
X146000000Y-101500000D02*
X157000000Y-101500000D01*
D21*
X179462750Y-82462750D02*
X179000000Y-82925500D01*
X194500000Y-90000000D02*
X194000000Y-90000000D01*
D23*
X157000000Y-105500000D02*
X157000000Y-101500000D01*
D21*
X177074500Y-82925500D02*
X177000000Y-83000000D01*
X184500000Y-90500000D02*
X177000000Y-83000000D01*
X184500000Y-80500000D02*
X181425500Y-80500000D01*
D23*
X151000000Y-113500000D02*
X156500000Y-113500000D01*
D21*
X179462750Y-82462750D02*
X179500000Y-82500000D01*
D22*
X146000000Y-90000000D02*
X146000000Y-101500000D01*
D21*
X179500000Y-82500000D02*
X181500000Y-82500000D01*
D22*
X173000000Y-99500000D02*
X173000000Y-100000000D01*
D23*
X156500000Y-113500000D02*
X156500000Y-107500000D01*
D21*
%TO.N,-VDC*%
X149750000Y-76000000D02*
X150000000Y-75750000D01*
D23*
X171400000Y-86400000D02*
X179600000Y-94600000D01*
D22*
X187844425Y-81344425D02*
X187844425Y-81312811D01*
D21*
X150000000Y-75750000D02*
X150000000Y-65500000D01*
D23*
X179600000Y-94600000D02*
X179700000Y-94600000D01*
X154962652Y-108262652D02*
X146835752Y-108262652D01*
D22*
X195000000Y-88500000D02*
X187844425Y-81344425D01*
D23*
X155362652Y-108662652D02*
X154962652Y-108262652D01*
X146835752Y-108262652D02*
X145250000Y-106676900D01*
D22*
%TO.N,/VREF2*%
X165500000Y-107500000D02*
X165500000Y-111500000D01*
X173500000Y-104500000D02*
X187000000Y-91000000D01*
X187000000Y-91000000D02*
X188500000Y-91000000D01*
X168500000Y-104500000D02*
X165500000Y-107500000D01*
X173500000Y-106500000D02*
X173500000Y-104500000D01*
D23*
%TO.N,/C12*%
X138000000Y-100500000D02*
X140000000Y-98500000D01*
X136500000Y-95000000D02*
X136500000Y-94500000D01*
X152000000Y-117000000D02*
X142000000Y-117000000D01*
X140000000Y-98500000D02*
X140500000Y-98000000D01*
X138000000Y-113000000D02*
X138000000Y-100500000D01*
X140000000Y-98500000D02*
X136500000Y-95000000D01*
X142000000Y-117000000D02*
X138000000Y-113000000D01*
%TO.N,/Enable*%
X137500000Y-77000000D02*
X138500000Y-78000000D01*
X133500000Y-111500000D02*
X133500000Y-79000000D01*
X133500000Y-79000000D02*
X135500000Y-77000000D01*
X139000000Y-111500000D02*
X151500000Y-111500000D01*
X135500000Y-77000000D02*
X137500000Y-77000000D01*
D22*
%TO.N,/SCL*%
X183839592Y-81500000D02*
X192602012Y-90262420D01*
X159500000Y-103000000D02*
X159500000Y-114500000D01*
X182000000Y-81500000D02*
X183839592Y-81500000D01*
D23*
X148000000Y-114500000D02*
X159500000Y-114500000D01*
D22*
X192602012Y-90262420D02*
X192602012Y-91057008D01*
%TO.N,/SDA*%
X182025000Y-83525000D02*
X182000000Y-83500000D01*
X189610627Y-90635627D02*
X182500000Y-83525000D01*
X189635627Y-90635627D02*
X189610627Y-90635627D01*
X182500000Y-83525000D02*
X182025000Y-83525000D01*
D23*
X160000000Y-115500000D02*
X160000000Y-104450000D01*
X160000000Y-104450000D02*
X160975000Y-103475000D01*
X146000000Y-115500000D02*
X160000000Y-115500000D01*
D22*
%TO.N,/Therm_ADC*%
X163700000Y-115800000D02*
X163700000Y-104750000D01*
X144500000Y-114800000D02*
X144500000Y-115500000D01*
X163250000Y-116250000D02*
X163700000Y-115800000D01*
X145250000Y-116250000D02*
X163250000Y-116250000D01*
X144500000Y-115500000D02*
X145250000Y-116250000D01*
D23*
%TO.N,+BATT*%
X171500000Y-105500000D02*
X171500000Y-105000000D01*
X171500000Y-105000000D02*
X173675000Y-102825000D01*
X169000000Y-109828248D02*
X169000000Y-115000000D01*
X169000000Y-109828248D02*
X171500000Y-107328248D01*
D21*
X92170000Y-71670000D02*
X92170000Y-77500000D01*
X114000000Y-64500000D02*
X114500000Y-64000000D01*
D23*
X138500000Y-92500000D02*
X138000000Y-92000000D01*
X147000000Y-92500000D02*
X166954595Y-92500000D01*
X171500000Y-107328248D02*
X171500000Y-105500000D01*
D21*
X114500000Y-64000000D02*
X115500000Y-64000000D01*
X90000000Y-64500000D02*
X114000000Y-64500000D01*
D23*
X166954595Y-92500000D02*
X173675000Y-99220405D01*
D21*
X87500000Y-67000000D02*
X90000000Y-64500000D01*
X87500000Y-67000000D02*
X92170000Y-71670000D01*
D23*
X173675000Y-102825000D02*
X173675000Y-99220405D01*
X138500000Y-92500000D02*
X144500000Y-92500000D01*
D21*
%TO.N,/Cell 10*%
X101050000Y-73000000D02*
X97050000Y-77000000D01*
X88970000Y-106000000D02*
X86970000Y-104000000D01*
X97050000Y-77000000D02*
X97050000Y-104500000D01*
X95550000Y-106000000D02*
X88970000Y-106000000D01*
X97050000Y-104500000D02*
X95550000Y-106000000D01*
%TO.N,/Cell 8*%
X98050000Y-85000000D02*
X98050000Y-104348528D01*
X98050000Y-104348528D02*
X95798528Y-106600000D01*
X87030000Y-106600000D02*
X84430000Y-104000000D01*
X101050000Y-82000000D02*
X98050000Y-85000000D01*
X95798528Y-106600000D02*
X87030000Y-106600000D01*
%TO.N,/Cell 6*%
X96047056Y-107200000D02*
X85090000Y-107200000D01*
X100550000Y-91000000D02*
X99050000Y-92500000D01*
X99050000Y-104197056D02*
X96047056Y-107200000D01*
X99050000Y-92500000D02*
X99050000Y-104197056D01*
X85090000Y-107200000D02*
X81890000Y-104000000D01*
%TO.N,/Cell 4*%
X100550000Y-103545584D02*
X96295584Y-107800000D01*
X100550000Y-101000000D02*
X100550000Y-103545584D01*
X96295584Y-107800000D02*
X83150000Y-107800000D01*
X83150000Y-107800000D02*
X79350000Y-104000000D01*
%TO.N,/Cell 2*%
X100550000Y-109000000D02*
X81810000Y-109000000D01*
X81810000Y-109000000D02*
X76810000Y-104000000D01*
%TO.N,Net-(Q1-G)*%
X106000000Y-108500000D02*
X102500000Y-112000000D01*
X119500000Y-108500000D02*
X106000000Y-108500000D01*
%TO.N,Net-(Q2-G)*%
X106000000Y-104500000D02*
X103000000Y-107500000D01*
X119500000Y-104500000D02*
X106000000Y-104500000D01*
%TO.N,Net-(Q3-G)*%
X105500000Y-100500000D02*
X103000000Y-103000000D01*
X119500000Y-100500000D02*
X105500000Y-100500000D01*
%TO.N,Net-(Q4-G)*%
X105000000Y-96500000D02*
X103000000Y-98500000D01*
X119500000Y-96500000D02*
X105000000Y-96500000D01*
%TO.N,Net-(Q5-G)*%
X104500000Y-92500000D02*
X103000000Y-94000000D01*
X119500000Y-92500000D02*
X104500000Y-92500000D01*
%TO.N,Net-(Q6-G)*%
X104000000Y-88500000D02*
X103000000Y-89500000D01*
X119500000Y-88500000D02*
X104000000Y-88500000D01*
%TO.N,Net-(Q7-G)*%
X103500000Y-84500000D02*
X103000000Y-85000000D01*
X119500000Y-84500000D02*
X103500000Y-84500000D01*
%TO.N,Net-(Q8-G)*%
X119500000Y-80500000D02*
X103000000Y-80500000D01*
%TO.N,Net-(Q9-G)*%
X103500000Y-76500000D02*
X103000000Y-76000000D01*
X119500000Y-76500000D02*
X103500000Y-76500000D01*
%TO.N,Net-(Q10-G)*%
X104000000Y-72500000D02*
X103000000Y-71500000D01*
X119500000Y-72500000D02*
X104000000Y-72500000D01*
%TO.N,Net-(Q11-G)*%
X104500000Y-68500000D02*
X103000000Y-67000000D01*
X119500000Y-68500000D02*
X104500000Y-68500000D01*
%TO.N,Net-(Q12-G)*%
X106500000Y-112500000D02*
X102500000Y-116500000D01*
X119500000Y-112500000D02*
X106500000Y-112500000D01*
D23*
%TO.N,/C13*%
X144500000Y-96000000D02*
X144500000Y-94000000D01*
X147000000Y-94000000D02*
X164500000Y-94000000D01*
X171275000Y-115725000D02*
X172500000Y-114500000D01*
X164500000Y-94000000D02*
X170500000Y-100000000D01*
X143500000Y-97000000D02*
X144500000Y-96000000D01*
X167000000Y-107474695D02*
X167000000Y-114500000D01*
X170500000Y-104500000D02*
X169974695Y-104500000D01*
X168225000Y-115725000D02*
X171275000Y-115725000D01*
X169974695Y-104500000D02*
X167000000Y-107474695D01*
X167000000Y-114500000D02*
X168225000Y-115725000D01*
%TO.N,/Cell 12*%
X138825000Y-117175000D02*
X139000000Y-117000000D01*
X89510000Y-104000000D02*
X89510000Y-100510000D01*
X74675000Y-117175000D02*
X138825000Y-117175000D01*
X89500000Y-100500000D02*
X73500000Y-100500000D01*
X73500000Y-100500000D02*
X73500000Y-117000000D01*
X74500000Y-117000000D02*
X74675000Y-117175000D01*
X73500000Y-117000000D02*
X74500000Y-117000000D01*
X89510000Y-100510000D02*
X89500000Y-100500000D01*
%TO.N,Net-(Q18-G)*%
X168000000Y-107500000D02*
X168000000Y-113000000D01*
X161500000Y-113000000D02*
X161500000Y-107500000D01*
%TO.N,Net-(U1-IBIAS)*%
X155000000Y-105700000D02*
X155000000Y-103000000D01*
X153000000Y-100500000D02*
X155000000Y-100500000D01*
X155300000Y-106000000D02*
X155000000Y-105700000D01*
%TO.N,Net-(U1-ICMP)*%
X154000000Y-105853798D02*
X153926899Y-105926899D01*
X154000000Y-103500000D02*
X154000000Y-105853798D01*
X153500000Y-103000000D02*
X154000000Y-103500000D01*
%TO.N,/S13*%
X158275000Y-106725000D02*
X150225000Y-106725000D01*
X140525305Y-97000000D02*
X140500000Y-97000000D01*
X140525305Y-97000000D02*
X149250000Y-105724695D01*
X150225000Y-106725000D02*
X149250000Y-105750000D01*
X149250000Y-105724695D02*
X149250000Y-105750000D01*
X158500000Y-106500000D02*
X158275000Y-106725000D01*
%TD*%
%TA.AperFunction,Conductor*%
%TO.N,-VDC*%
G36*
X113776520Y-63520185D02*
G01*
X113822275Y-63572989D01*
X113832219Y-63642147D01*
X113803194Y-63705703D01*
X113797162Y-63712181D01*
X113746162Y-63763181D01*
X113684839Y-63796666D01*
X113658481Y-63799500D01*
X89931004Y-63799500D01*
X89795677Y-63826418D01*
X89795667Y-63826421D01*
X89668192Y-63879222D01*
X89553454Y-63955887D01*
X89553453Y-63955888D01*
X87657801Y-65851542D01*
X87053457Y-66455886D01*
X86955886Y-66553457D01*
X86879222Y-66668192D01*
X86826421Y-66795667D01*
X86826418Y-66795677D01*
X86799500Y-66931003D01*
X86799500Y-66931006D01*
X86799500Y-67068994D01*
X86799500Y-67068996D01*
X86799499Y-67068996D01*
X86826418Y-67204322D01*
X86826421Y-67204332D01*
X86879222Y-67331807D01*
X86955887Y-67446545D01*
X86955888Y-67446546D01*
X91433181Y-71923837D01*
X91466666Y-71985160D01*
X91469500Y-72011518D01*
X91469500Y-76124942D01*
X91449815Y-76191981D01*
X91401798Y-76235425D01*
X91396671Y-76238037D01*
X91208773Y-76374553D01*
X91044553Y-76538773D01*
X91044553Y-76538774D01*
X91044551Y-76538776D01*
X91003858Y-76594785D01*
X91000318Y-76599658D01*
X90944988Y-76642323D01*
X90875374Y-76648302D01*
X90813579Y-76615696D01*
X90799682Y-76599658D01*
X90755449Y-76538776D01*
X90591224Y-76374551D01*
X90403331Y-76238039D01*
X90325204Y-76198231D01*
X90196400Y-76132601D01*
X89975514Y-76060831D01*
X89746129Y-76024500D01*
X89746124Y-76024500D01*
X89513876Y-76024500D01*
X89513871Y-76024500D01*
X89284485Y-76060831D01*
X89063599Y-76132601D01*
X88856668Y-76238039D01*
X88668773Y-76374553D01*
X88504553Y-76538773D01*
X88504553Y-76538774D01*
X88504551Y-76538776D01*
X88463858Y-76594785D01*
X88460318Y-76599658D01*
X88404988Y-76642323D01*
X88335374Y-76648302D01*
X88273579Y-76615696D01*
X88259682Y-76599658D01*
X88215449Y-76538776D01*
X88051224Y-76374551D01*
X87863331Y-76238039D01*
X87785204Y-76198231D01*
X87656400Y-76132601D01*
X87435514Y-76060831D01*
X87206129Y-76024500D01*
X87206124Y-76024500D01*
X86973876Y-76024500D01*
X86973871Y-76024500D01*
X86744485Y-76060831D01*
X86523599Y-76132601D01*
X86316668Y-76238039D01*
X86128773Y-76374553D01*
X85964553Y-76538773D01*
X85964553Y-76538774D01*
X85964551Y-76538776D01*
X85923858Y-76594785D01*
X85920318Y-76599658D01*
X85864988Y-76642323D01*
X85795374Y-76648302D01*
X85733579Y-76615696D01*
X85719682Y-76599658D01*
X85675449Y-76538776D01*
X85511224Y-76374551D01*
X85323331Y-76238039D01*
X85245204Y-76198231D01*
X85116400Y-76132601D01*
X84895514Y-76060831D01*
X84666129Y-76024500D01*
X84666124Y-76024500D01*
X84433876Y-76024500D01*
X84433871Y-76024500D01*
X84204485Y-76060831D01*
X83983599Y-76132601D01*
X83776668Y-76238039D01*
X83588773Y-76374553D01*
X83424553Y-76538773D01*
X83424553Y-76538774D01*
X83424551Y-76538776D01*
X83383858Y-76594785D01*
X83380318Y-76599658D01*
X83324988Y-76642323D01*
X83255374Y-76648302D01*
X83193579Y-76615696D01*
X83179682Y-76599658D01*
X83135449Y-76538776D01*
X82971224Y-76374551D01*
X82783331Y-76238039D01*
X82705204Y-76198231D01*
X82576400Y-76132601D01*
X82355514Y-76060831D01*
X82126129Y-76024500D01*
X82126124Y-76024500D01*
X81893876Y-76024500D01*
X81893871Y-76024500D01*
X81664485Y-76060831D01*
X81443599Y-76132601D01*
X81236668Y-76238039D01*
X81048773Y-76374553D01*
X80884553Y-76538773D01*
X80884553Y-76538774D01*
X80884551Y-76538776D01*
X80843858Y-76594785D01*
X80840318Y-76599658D01*
X80784988Y-76642323D01*
X80715374Y-76648302D01*
X80653579Y-76615696D01*
X80639682Y-76599658D01*
X80595449Y-76538776D01*
X80431224Y-76374551D01*
X80243331Y-76238039D01*
X80165204Y-76198231D01*
X80036400Y-76132601D01*
X79815514Y-76060831D01*
X79586129Y-76024500D01*
X79586124Y-76024500D01*
X79353876Y-76024500D01*
X79353871Y-76024500D01*
X79124485Y-76060831D01*
X78903599Y-76132601D01*
X78696665Y-76238041D01*
X78541902Y-76350482D01*
X78476095Y-76373962D01*
X78408042Y-76358136D01*
X78359347Y-76308030D01*
X78352835Y-76293497D01*
X78348797Y-76282671D01*
X78348793Y-76282664D01*
X78262547Y-76167455D01*
X78262544Y-76167452D01*
X78147335Y-76081206D01*
X78147328Y-76081202D01*
X78012482Y-76030908D01*
X78012483Y-76030908D01*
X77952883Y-76024501D01*
X77952881Y-76024500D01*
X77952873Y-76024500D01*
X77952864Y-76024500D01*
X75907129Y-76024500D01*
X75907123Y-76024501D01*
X75847516Y-76030908D01*
X75712671Y-76081202D01*
X75712664Y-76081206D01*
X75597455Y-76167452D01*
X75597452Y-76167455D01*
X75511206Y-76282664D01*
X75511202Y-76282671D01*
X75460908Y-76417517D01*
X75454501Y-76477116D01*
X75454500Y-76477135D01*
X75454500Y-78522870D01*
X75454501Y-78522876D01*
X75460908Y-78582483D01*
X75511202Y-78717328D01*
X75511206Y-78717335D01*
X75597452Y-78832544D01*
X75597455Y-78832547D01*
X75712664Y-78918793D01*
X75712671Y-78918797D01*
X75847517Y-78969091D01*
X75847516Y-78969091D01*
X75854444Y-78969835D01*
X75907127Y-78975500D01*
X77952872Y-78975499D01*
X78012483Y-78969091D01*
X78147331Y-78918796D01*
X78262546Y-78832546D01*
X78348796Y-78717331D01*
X78352834Y-78706505D01*
X78394703Y-78650570D01*
X78460166Y-78626150D01*
X78528440Y-78640999D01*
X78541890Y-78649508D01*
X78696669Y-78761961D01*
X78746527Y-78787365D01*
X78903599Y-78867398D01*
X78903601Y-78867398D01*
X78903604Y-78867400D01*
X79124486Y-78939169D01*
X79242668Y-78957886D01*
X79353871Y-78975500D01*
X79353876Y-78975500D01*
X79586129Y-78975500D01*
X79687502Y-78959443D01*
X79815514Y-78939169D01*
X80036396Y-78867400D01*
X80243331Y-78761961D01*
X80431224Y-78625449D01*
X80595449Y-78461224D01*
X80639682Y-78400341D01*
X80695011Y-78357676D01*
X80764625Y-78351697D01*
X80826420Y-78384302D01*
X80840316Y-78400340D01*
X80884551Y-78461224D01*
X81048776Y-78625449D01*
X81236669Y-78761961D01*
X81286527Y-78787365D01*
X81443599Y-78867398D01*
X81443601Y-78867398D01*
X81443604Y-78867400D01*
X81664486Y-78939169D01*
X81782668Y-78957886D01*
X81893871Y-78975500D01*
X81893876Y-78975500D01*
X82126129Y-78975500D01*
X82227502Y-78959443D01*
X82355514Y-78939169D01*
X82576396Y-78867400D01*
X82783331Y-78761961D01*
X82971224Y-78625449D01*
X83135449Y-78461224D01*
X83179682Y-78400341D01*
X83235011Y-78357676D01*
X83304625Y-78351697D01*
X83366420Y-78384302D01*
X83380316Y-78400340D01*
X83424551Y-78461224D01*
X83588776Y-78625449D01*
X83776669Y-78761961D01*
X83826527Y-78787365D01*
X83983599Y-78867398D01*
X83983601Y-78867398D01*
X83983604Y-78867400D01*
X84204486Y-78939169D01*
X84322668Y-78957886D01*
X84433871Y-78975500D01*
X84433876Y-78975500D01*
X84666129Y-78975500D01*
X84767502Y-78959443D01*
X84895514Y-78939169D01*
X85116396Y-78867400D01*
X85323331Y-78761961D01*
X85511224Y-78625449D01*
X85675449Y-78461224D01*
X85719682Y-78400341D01*
X85775011Y-78357676D01*
X85844625Y-78351697D01*
X85906420Y-78384302D01*
X85920316Y-78400340D01*
X85964551Y-78461224D01*
X86128776Y-78625449D01*
X86316669Y-78761961D01*
X86366527Y-78787365D01*
X86523599Y-78867398D01*
X86523601Y-78867398D01*
X86523604Y-78867400D01*
X86744486Y-78939169D01*
X86862668Y-78957886D01*
X86973871Y-78975500D01*
X86973876Y-78975500D01*
X87206129Y-78975500D01*
X87307502Y-78959443D01*
X87435514Y-78939169D01*
X87656396Y-78867400D01*
X87863331Y-78761961D01*
X88051224Y-78625449D01*
X88215449Y-78461224D01*
X88259682Y-78400341D01*
X88315011Y-78357676D01*
X88384625Y-78351697D01*
X88446420Y-78384302D01*
X88460316Y-78400340D01*
X88504551Y-78461224D01*
X88668776Y-78625449D01*
X88856669Y-78761961D01*
X88906527Y-78787365D01*
X89063599Y-78867398D01*
X89063601Y-78867398D01*
X89063604Y-78867400D01*
X89284486Y-78939169D01*
X89402668Y-78957886D01*
X89513871Y-78975500D01*
X89513876Y-78975500D01*
X89746129Y-78975500D01*
X89847502Y-78959443D01*
X89975514Y-78939169D01*
X90196396Y-78867400D01*
X90403331Y-78761961D01*
X90591224Y-78625449D01*
X90755449Y-78461224D01*
X90799682Y-78400341D01*
X90855011Y-78357676D01*
X90924625Y-78351697D01*
X90986420Y-78384302D01*
X91000316Y-78400340D01*
X91044551Y-78461224D01*
X91208776Y-78625449D01*
X91396669Y-78761961D01*
X91446527Y-78787365D01*
X91603599Y-78867398D01*
X91603601Y-78867398D01*
X91603604Y-78867400D01*
X91824486Y-78939169D01*
X91942668Y-78957886D01*
X92053871Y-78975500D01*
X92053876Y-78975500D01*
X92286129Y-78975500D01*
X92387502Y-78959443D01*
X92515514Y-78939169D01*
X92736396Y-78867400D01*
X92943331Y-78761961D01*
X93131224Y-78625449D01*
X93295449Y-78461224D01*
X93431961Y-78273331D01*
X93537400Y-78066396D01*
X93609169Y-77845514D01*
X93638263Y-77661819D01*
X93645500Y-77616129D01*
X93645500Y-77383870D01*
X93622667Y-77239709D01*
X93609169Y-77154486D01*
X93537400Y-76933604D01*
X93537398Y-76933601D01*
X93537398Y-76933599D01*
X93475735Y-76812581D01*
X93431961Y-76726669D01*
X93295449Y-76538776D01*
X93131224Y-76374551D01*
X92943331Y-76238039D01*
X92943330Y-76238038D01*
X92943328Y-76238037D01*
X92938202Y-76235425D01*
X92887407Y-76187450D01*
X92870500Y-76124942D01*
X92870500Y-71601004D01*
X92843581Y-71465677D01*
X92843580Y-71465676D01*
X92843580Y-71465672D01*
X92823100Y-71416228D01*
X102149500Y-71416228D01*
X102149500Y-71583771D01*
X102182182Y-71748074D01*
X102182184Y-71748082D01*
X102246295Y-71902860D01*
X102339373Y-72042162D01*
X102457837Y-72160626D01*
X102550494Y-72222537D01*
X102597137Y-72253703D01*
X102751918Y-72317816D01*
X102808950Y-72329160D01*
X102870859Y-72361544D01*
X102872439Y-72363096D01*
X103553453Y-73044111D01*
X103553454Y-73044112D01*
X103668192Y-73120777D01*
X103763420Y-73160221D01*
X103795672Y-73173580D01*
X103795676Y-73173580D01*
X103795677Y-73173581D01*
X103931003Y-73200500D01*
X103931006Y-73200500D01*
X103931007Y-73200500D01*
X118979898Y-73200500D01*
X119046937Y-73220185D01*
X119048789Y-73221398D01*
X119097137Y-73253703D01*
X119251918Y-73317816D01*
X119416228Y-73350499D01*
X119416232Y-73350500D01*
X119416233Y-73350500D01*
X119583768Y-73350500D01*
X119583769Y-73350499D01*
X119748082Y-73317816D01*
X119902863Y-73253703D01*
X120042162Y-73160626D01*
X120160626Y-73042162D01*
X120253703Y-72902863D01*
X120317816Y-72748082D01*
X120350500Y-72583767D01*
X120350500Y-72416233D01*
X120317816Y-72251918D01*
X120253703Y-72097137D01*
X120196494Y-72011518D01*
X120160626Y-71957837D01*
X120042162Y-71839373D01*
X119902860Y-71746295D01*
X119748082Y-71682184D01*
X119748074Y-71682182D01*
X119583771Y-71649500D01*
X119583767Y-71649500D01*
X119416233Y-71649500D01*
X119416228Y-71649500D01*
X119251925Y-71682182D01*
X119251917Y-71682184D01*
X119097140Y-71746295D01*
X119097131Y-71746300D01*
X119048789Y-71778602D01*
X118982112Y-71799480D01*
X118979898Y-71799500D01*
X104341519Y-71799500D01*
X104274480Y-71779815D01*
X104253838Y-71763181D01*
X103863096Y-71372439D01*
X103829611Y-71311116D01*
X103829174Y-71309021D01*
X103817816Y-71251918D01*
X103753703Y-71097137D01*
X103722537Y-71050494D01*
X103660626Y-70957837D01*
X103542162Y-70839373D01*
X103402860Y-70746295D01*
X103248082Y-70682184D01*
X103248074Y-70682182D01*
X103083771Y-70649500D01*
X103083767Y-70649500D01*
X102916233Y-70649500D01*
X102916228Y-70649500D01*
X102751925Y-70682182D01*
X102751917Y-70682184D01*
X102597139Y-70746295D01*
X102457837Y-70839373D01*
X102339373Y-70957837D01*
X102246295Y-71097139D01*
X102182184Y-71251917D01*
X102182182Y-71251925D01*
X102149500Y-71416228D01*
X92823100Y-71416228D01*
X92793945Y-71345841D01*
X92790778Y-71338195D01*
X92790771Y-71338182D01*
X92714115Y-71223459D01*
X92714114Y-71223458D01*
X92616542Y-71125886D01*
X88578337Y-67087681D01*
X88573998Y-67079735D01*
X88566751Y-67074310D01*
X88557516Y-67049550D01*
X88544852Y-67026358D01*
X88545497Y-67017328D01*
X88542334Y-67008846D01*
X88547950Y-66983025D01*
X88549836Y-66956666D01*
X88555654Y-66947612D01*
X88557186Y-66940573D01*
X88575411Y-66916228D01*
X102149500Y-66916228D01*
X102149500Y-67083771D01*
X102182182Y-67248074D01*
X102182184Y-67248082D01*
X102246295Y-67402860D01*
X102339373Y-67542162D01*
X102457837Y-67660626D01*
X102550494Y-67722537D01*
X102597137Y-67753703D01*
X102751918Y-67817816D01*
X102808950Y-67829160D01*
X102870859Y-67861544D01*
X102872439Y-67863096D01*
X103955886Y-68946542D01*
X104051506Y-69042162D01*
X104053459Y-69044115D01*
X104168182Y-69120771D01*
X104168186Y-69120773D01*
X104168189Y-69120775D01*
X104242866Y-69151707D01*
X104295671Y-69173580D01*
X104322591Y-69178934D01*
X104419630Y-69198237D01*
X104431006Y-69200500D01*
X104431007Y-69200500D01*
X118979898Y-69200500D01*
X119046937Y-69220185D01*
X119048789Y-69221398D01*
X119097137Y-69253703D01*
X119251918Y-69317816D01*
X119416228Y-69350499D01*
X119416232Y-69350500D01*
X119416233Y-69350500D01*
X119583768Y-69350500D01*
X119583769Y-69350499D01*
X119748082Y-69317816D01*
X119902863Y-69253703D01*
X120042162Y-69160626D01*
X120160626Y-69042162D01*
X120253703Y-68902863D01*
X120317816Y-68748082D01*
X120350500Y-68583767D01*
X120350500Y-68416233D01*
X120317816Y-68251918D01*
X120253703Y-68097137D01*
X120222537Y-68050494D01*
X120160626Y-67957837D01*
X120042162Y-67839373D01*
X119902860Y-67746295D01*
X119748082Y-67682184D01*
X119748074Y-67682182D01*
X119583771Y-67649500D01*
X119583767Y-67649500D01*
X119416233Y-67649500D01*
X119416228Y-67649500D01*
X119251925Y-67682182D01*
X119251917Y-67682184D01*
X119097140Y-67746295D01*
X119097131Y-67746300D01*
X119048789Y-67778602D01*
X118982112Y-67799480D01*
X118979898Y-67799500D01*
X104841518Y-67799500D01*
X104774479Y-67779815D01*
X104753837Y-67763181D01*
X103863096Y-66872439D01*
X103829611Y-66811116D01*
X103829174Y-66809021D01*
X103817816Y-66751918D01*
X103753703Y-66597137D01*
X103722537Y-66550494D01*
X103660626Y-66457837D01*
X103542162Y-66339373D01*
X103402860Y-66246295D01*
X103248082Y-66182184D01*
X103248074Y-66182182D01*
X103083771Y-66149500D01*
X103083767Y-66149500D01*
X102916233Y-66149500D01*
X102916228Y-66149500D01*
X102751925Y-66182182D01*
X102751917Y-66182184D01*
X102597139Y-66246295D01*
X102457837Y-66339373D01*
X102339373Y-66457837D01*
X102246295Y-66597139D01*
X102182184Y-66751917D01*
X102182182Y-66751925D01*
X102149500Y-66916228D01*
X88575411Y-66916228D01*
X88578337Y-66912319D01*
X88668196Y-66822460D01*
X89409810Y-66080847D01*
X90253838Y-65236819D01*
X90315161Y-65203334D01*
X90341519Y-65200500D01*
X114068996Y-65200500D01*
X114160040Y-65182389D01*
X114204328Y-65173580D01*
X114268069Y-65147177D01*
X114331807Y-65120777D01*
X114331808Y-65120776D01*
X114331811Y-65120775D01*
X114446543Y-65044114D01*
X114753838Y-64736819D01*
X114780765Y-64722115D01*
X114806584Y-64705523D01*
X114812784Y-64704631D01*
X114815161Y-64703334D01*
X114841519Y-64700500D01*
X114889900Y-64700500D01*
X114956939Y-64720185D01*
X114958788Y-64721396D01*
X115073453Y-64798013D01*
X115237334Y-64865894D01*
X115237336Y-64865894D01*
X115237341Y-64865896D01*
X115411304Y-64900499D01*
X115411307Y-64900500D01*
X115411309Y-64900500D01*
X115588693Y-64900500D01*
X115588694Y-64900499D01*
X115646682Y-64888964D01*
X115762658Y-64865896D01*
X115762661Y-64865894D01*
X115762666Y-64865894D01*
X115926547Y-64798013D01*
X116074035Y-64699464D01*
X116199464Y-64574035D01*
X116298013Y-64426547D01*
X116365894Y-64262666D01*
X116379141Y-64196072D01*
X116397695Y-64102794D01*
X116400500Y-64088691D01*
X116400500Y-63911309D01*
X116400500Y-63911306D01*
X116400499Y-63911304D01*
X116365896Y-63737341D01*
X116365893Y-63737332D01*
X116338812Y-63671952D01*
X116331343Y-63602483D01*
X116362618Y-63540004D01*
X116422707Y-63504352D01*
X116453373Y-63500500D01*
X150876000Y-63500500D01*
X150943039Y-63520185D01*
X150988794Y-63572989D01*
X151000000Y-63624500D01*
X151000000Y-86000000D01*
X167750000Y-86000000D01*
X167754739Y-85573453D01*
X167828029Y-78977429D01*
X167841503Y-77764818D01*
X174440000Y-77764818D01*
X174440000Y-77985181D01*
X174474473Y-78202835D01*
X174542567Y-78412410D01*
X174642611Y-78608756D01*
X174688932Y-78672513D01*
X175275387Y-78086058D01*
X175280889Y-78106591D01*
X175359881Y-78243408D01*
X175471592Y-78355119D01*
X175608409Y-78434111D01*
X175628939Y-78439612D01*
X175042485Y-79026065D01*
X175042485Y-79026066D01*
X175106243Y-79072388D01*
X175302589Y-79172432D01*
X175512164Y-79240526D01*
X175729819Y-79275000D01*
X175950181Y-79275000D01*
X176167835Y-79240526D01*
X176377410Y-79172432D01*
X176573760Y-79072386D01*
X176637513Y-79026066D01*
X176637514Y-79026066D01*
X176051059Y-78439612D01*
X176071591Y-78434111D01*
X176208408Y-78355119D01*
X176320119Y-78243408D01*
X176399111Y-78106591D01*
X176404612Y-78086060D01*
X176991066Y-78672514D01*
X176991066Y-78672513D01*
X177009372Y-78647319D01*
X177064701Y-78604653D01*
X177134315Y-78598674D01*
X177196110Y-78631279D01*
X177210008Y-78647319D01*
X177311752Y-78787358D01*
X177311756Y-78787363D01*
X177467636Y-78943243D01*
X177467641Y-78943247D01*
X177569606Y-79017328D01*
X177645978Y-79072815D01*
X177774375Y-79138237D01*
X177842393Y-79172895D01*
X177842396Y-79172896D01*
X177947221Y-79206955D01*
X178052049Y-79241015D01*
X178269778Y-79275500D01*
X178269779Y-79275500D01*
X178490221Y-79275500D01*
X178490222Y-79275500D01*
X178707951Y-79241015D01*
X178917606Y-79172895D01*
X179114022Y-79072815D01*
X179292365Y-78943242D01*
X179448242Y-78787365D01*
X179466700Y-78761960D01*
X179549682Y-78647745D01*
X179605011Y-78605079D01*
X179674625Y-78599100D01*
X179736420Y-78631705D01*
X179750318Y-78647745D01*
X179851752Y-78787358D01*
X179851756Y-78787363D01*
X180007636Y-78943243D01*
X180007641Y-78943247D01*
X180109606Y-79017328D01*
X180185978Y-79072815D01*
X180314375Y-79138237D01*
X180382393Y-79172895D01*
X180382396Y-79172896D01*
X180487221Y-79206955D01*
X180592049Y-79241015D01*
X180809778Y-79275500D01*
X180809779Y-79275500D01*
X181030221Y-79275500D01*
X181030222Y-79275500D01*
X181247951Y-79241015D01*
X181457606Y-79172895D01*
X181654022Y-79072815D01*
X181832365Y-78943242D01*
X181988242Y-78787365D01*
X182006700Y-78761960D01*
X182089682Y-78647745D01*
X182145011Y-78605079D01*
X182214625Y-78599100D01*
X182276420Y-78631705D01*
X182290318Y-78647745D01*
X182391752Y-78787358D01*
X182391756Y-78787363D01*
X182547636Y-78943243D01*
X182547641Y-78943247D01*
X182649606Y-79017328D01*
X182725978Y-79072815D01*
X182854375Y-79138237D01*
X182922393Y-79172895D01*
X182922396Y-79172896D01*
X183027221Y-79206955D01*
X183132049Y-79241015D01*
X183349778Y-79275500D01*
X183349779Y-79275500D01*
X183570221Y-79275500D01*
X183570222Y-79275500D01*
X183787951Y-79241015D01*
X183997606Y-79172895D01*
X184194022Y-79072815D01*
X184372365Y-78943242D01*
X184528242Y-78787365D01*
X184546700Y-78761960D01*
X184629682Y-78647745D01*
X184685011Y-78605079D01*
X184754625Y-78599100D01*
X184816420Y-78631705D01*
X184830318Y-78647745D01*
X184931752Y-78787358D01*
X184931756Y-78787363D01*
X185087636Y-78943243D01*
X185087641Y-78943247D01*
X185189606Y-79017328D01*
X185265978Y-79072815D01*
X185394375Y-79138237D01*
X185462393Y-79172895D01*
X185462396Y-79172896D01*
X185567221Y-79206955D01*
X185672049Y-79241015D01*
X185889778Y-79275500D01*
X185889779Y-79275500D01*
X186110221Y-79275500D01*
X186110222Y-79275500D01*
X186327951Y-79241015D01*
X186537606Y-79172895D01*
X186734022Y-79072815D01*
X186912365Y-78943242D01*
X187068242Y-78787365D01*
X187086700Y-78761960D01*
X187169682Y-78647745D01*
X187225011Y-78605079D01*
X187294625Y-78599100D01*
X187356420Y-78631705D01*
X187370318Y-78647745D01*
X187471752Y-78787358D01*
X187471756Y-78787363D01*
X187627636Y-78943243D01*
X187627641Y-78943247D01*
X187729606Y-79017328D01*
X187805978Y-79072815D01*
X187934375Y-79138237D01*
X188002393Y-79172895D01*
X188002396Y-79172896D01*
X188107221Y-79206955D01*
X188212049Y-79241015D01*
X188429778Y-79275500D01*
X188429779Y-79275500D01*
X188650221Y-79275500D01*
X188650222Y-79275500D01*
X188867951Y-79241015D01*
X189077606Y-79172895D01*
X189274022Y-79072815D01*
X189452365Y-78943242D01*
X189608242Y-78787365D01*
X189626700Y-78761960D01*
X189709682Y-78647745D01*
X189765011Y-78605079D01*
X189834625Y-78599100D01*
X189896420Y-78631705D01*
X189910318Y-78647745D01*
X190011752Y-78787358D01*
X190011756Y-78787363D01*
X190167636Y-78943243D01*
X190167641Y-78943247D01*
X190269606Y-79017328D01*
X190345978Y-79072815D01*
X190474375Y-79138237D01*
X190542393Y-79172895D01*
X190542396Y-79172896D01*
X190647221Y-79206955D01*
X190752049Y-79241015D01*
X190969778Y-79275500D01*
X190969779Y-79275500D01*
X191190221Y-79275500D01*
X191190222Y-79275500D01*
X191407951Y-79241015D01*
X191617606Y-79172895D01*
X191814022Y-79072815D01*
X191992365Y-78943242D01*
X192148242Y-78787365D01*
X192166700Y-78761960D01*
X192249682Y-78647745D01*
X192305011Y-78605079D01*
X192374625Y-78599100D01*
X192436420Y-78631705D01*
X192450318Y-78647745D01*
X192551752Y-78787358D01*
X192551756Y-78787363D01*
X192707636Y-78943243D01*
X192707641Y-78943247D01*
X192809606Y-79017328D01*
X192885978Y-79072815D01*
X193014375Y-79138237D01*
X193082393Y-79172895D01*
X193082396Y-79172896D01*
X193187221Y-79206955D01*
X193292049Y-79241015D01*
X193509778Y-79275500D01*
X193509779Y-79275500D01*
X193730221Y-79275500D01*
X193730222Y-79275500D01*
X193947951Y-79241015D01*
X194157606Y-79172895D01*
X194354022Y-79072815D01*
X194532365Y-78943242D01*
X194582536Y-78893070D01*
X194643857Y-78859586D01*
X194713548Y-78864570D01*
X194769482Y-78906441D01*
X194786398Y-78937419D01*
X194816202Y-79017328D01*
X194816206Y-79017335D01*
X194902452Y-79132544D01*
X194902455Y-79132547D01*
X195017664Y-79218793D01*
X195017671Y-79218797D01*
X195152517Y-79269091D01*
X195152516Y-79269091D01*
X195159444Y-79269835D01*
X195212127Y-79275500D01*
X197107872Y-79275499D01*
X197167483Y-79269091D01*
X197302331Y-79218796D01*
X197417546Y-79132546D01*
X197503796Y-79017331D01*
X197554091Y-78882483D01*
X197560500Y-78822873D01*
X197560499Y-76927128D01*
X197557890Y-76902860D01*
X197554091Y-76867516D01*
X197503797Y-76732671D01*
X197503793Y-76732664D01*
X197417547Y-76617455D01*
X197417544Y-76617452D01*
X197302335Y-76531206D01*
X197302328Y-76531202D01*
X197167482Y-76480908D01*
X197167483Y-76480908D01*
X197107883Y-76474501D01*
X197107881Y-76474500D01*
X197107873Y-76474500D01*
X197107864Y-76474500D01*
X195212129Y-76474500D01*
X195212123Y-76474501D01*
X195152516Y-76480908D01*
X195017671Y-76531202D01*
X195017664Y-76531206D01*
X194902455Y-76617452D01*
X194902452Y-76617455D01*
X194816206Y-76732664D01*
X194816203Y-76732669D01*
X194786398Y-76812581D01*
X194744526Y-76868514D01*
X194679062Y-76892931D01*
X194610789Y-76878079D01*
X194582535Y-76856928D01*
X194532363Y-76806756D01*
X194532358Y-76806752D01*
X194354025Y-76677187D01*
X194354024Y-76677186D01*
X194354022Y-76677185D01*
X194285602Y-76642323D01*
X194157606Y-76577104D01*
X194157603Y-76577103D01*
X193947952Y-76508985D01*
X193839086Y-76491742D01*
X193730222Y-76474500D01*
X193509778Y-76474500D01*
X193437201Y-76485995D01*
X193292047Y-76508985D01*
X193082396Y-76577103D01*
X193082393Y-76577104D01*
X192885974Y-76677187D01*
X192707641Y-76806752D01*
X192707636Y-76806756D01*
X192551756Y-76962636D01*
X192551752Y-76962641D01*
X192450318Y-77102254D01*
X192394988Y-77144920D01*
X192325375Y-77150899D01*
X192263580Y-77118293D01*
X192249682Y-77102254D01*
X192148247Y-76962641D01*
X192148243Y-76962636D01*
X191992363Y-76806756D01*
X191992358Y-76806752D01*
X191814025Y-76677187D01*
X191814024Y-76677186D01*
X191814022Y-76677185D01*
X191745602Y-76642323D01*
X191617606Y-76577104D01*
X191617603Y-76577103D01*
X191407952Y-76508985D01*
X191299086Y-76491742D01*
X191190222Y-76474500D01*
X190969778Y-76474500D01*
X190897201Y-76485995D01*
X190752047Y-76508985D01*
X190542396Y-76577103D01*
X190542393Y-76577104D01*
X190345974Y-76677187D01*
X190167641Y-76806752D01*
X190167636Y-76806756D01*
X190011756Y-76962636D01*
X190011752Y-76962641D01*
X189910318Y-77102254D01*
X189854988Y-77144920D01*
X189785375Y-77150899D01*
X189723580Y-77118293D01*
X189709682Y-77102254D01*
X189608247Y-76962641D01*
X189608243Y-76962636D01*
X189452363Y-76806756D01*
X189452358Y-76806752D01*
X189274025Y-76677187D01*
X189274024Y-76677186D01*
X189274022Y-76677185D01*
X189205602Y-76642323D01*
X189077606Y-76577104D01*
X189077603Y-76577103D01*
X188867952Y-76508985D01*
X188759086Y-76491742D01*
X188650222Y-76474500D01*
X188429778Y-76474500D01*
X188357201Y-76485995D01*
X188212047Y-76508985D01*
X188002396Y-76577103D01*
X188002393Y-76577104D01*
X187805974Y-76677187D01*
X187627641Y-76806752D01*
X187627636Y-76806756D01*
X187471756Y-76962636D01*
X187471752Y-76962641D01*
X187370318Y-77102254D01*
X187314988Y-77144920D01*
X187245375Y-77150899D01*
X187183580Y-77118293D01*
X187169682Y-77102254D01*
X187068247Y-76962641D01*
X187068243Y-76962636D01*
X186912363Y-76806756D01*
X186912358Y-76806752D01*
X186734025Y-76677187D01*
X186734024Y-76677186D01*
X186734022Y-76677185D01*
X186665602Y-76642323D01*
X186537606Y-76577104D01*
X186537603Y-76577103D01*
X186327952Y-76508985D01*
X186219086Y-76491742D01*
X186110222Y-76474500D01*
X185889778Y-76474500D01*
X185817201Y-76485995D01*
X185672047Y-76508985D01*
X185462396Y-76577103D01*
X185462393Y-76577104D01*
X185265974Y-76677187D01*
X185087641Y-76806752D01*
X185087636Y-76806756D01*
X184931756Y-76962636D01*
X184931752Y-76962641D01*
X184830318Y-77102254D01*
X184774988Y-77144920D01*
X184705375Y-77150899D01*
X184643580Y-77118293D01*
X184629682Y-77102254D01*
X184528247Y-76962641D01*
X184528243Y-76962636D01*
X184372363Y-76806756D01*
X184372358Y-76806752D01*
X184194025Y-76677187D01*
X184194024Y-76677186D01*
X184194022Y-76677185D01*
X184125602Y-76642323D01*
X183997606Y-76577104D01*
X183997603Y-76577103D01*
X183787952Y-76508985D01*
X183679086Y-76491742D01*
X183570222Y-76474500D01*
X183349778Y-76474500D01*
X183277201Y-76485995D01*
X183132047Y-76508985D01*
X182922396Y-76577103D01*
X182922393Y-76577104D01*
X182725974Y-76677187D01*
X182547641Y-76806752D01*
X182547636Y-76806756D01*
X182391756Y-76962636D01*
X182391752Y-76962641D01*
X182290318Y-77102254D01*
X182234988Y-77144920D01*
X182165375Y-77150899D01*
X182103580Y-77118293D01*
X182089682Y-77102254D01*
X181988247Y-76962641D01*
X181988243Y-76962636D01*
X181832363Y-76806756D01*
X181832358Y-76806752D01*
X181654025Y-76677187D01*
X181654024Y-76677186D01*
X181654022Y-76677185D01*
X181585602Y-76642323D01*
X181457606Y-76577104D01*
X181457603Y-76577103D01*
X181247952Y-76508985D01*
X181139086Y-76491742D01*
X181030222Y-76474500D01*
X180809778Y-76474500D01*
X180737201Y-76485995D01*
X180592047Y-76508985D01*
X180382396Y-76577103D01*
X180382393Y-76577104D01*
X180185974Y-76677187D01*
X180007641Y-76806752D01*
X180007636Y-76806756D01*
X179851756Y-76962636D01*
X179851752Y-76962641D01*
X179750318Y-77102254D01*
X179694988Y-77144920D01*
X179625375Y-77150899D01*
X179563580Y-77118293D01*
X179549682Y-77102254D01*
X179448247Y-76962641D01*
X179448243Y-76962636D01*
X179292363Y-76806756D01*
X179292358Y-76806752D01*
X179114025Y-76677187D01*
X179114024Y-76677186D01*
X179114022Y-76677185D01*
X179045602Y-76642323D01*
X178917606Y-76577104D01*
X178917603Y-76577103D01*
X178707952Y-76508985D01*
X178599086Y-76491742D01*
X178490222Y-76474500D01*
X178269778Y-76474500D01*
X178197201Y-76485995D01*
X178052047Y-76508985D01*
X177842396Y-76577103D01*
X177842393Y-76577104D01*
X177645974Y-76677187D01*
X177467641Y-76806752D01*
X177467636Y-76806756D01*
X177311756Y-76962636D01*
X177210008Y-77102681D01*
X177154678Y-77145346D01*
X177085065Y-77151325D01*
X177023270Y-77118719D01*
X177009371Y-77102680D01*
X176991066Y-77077485D01*
X176991065Y-77077485D01*
X176404612Y-77663939D01*
X176399111Y-77643409D01*
X176320119Y-77506592D01*
X176208408Y-77394881D01*
X176071591Y-77315889D01*
X176051057Y-77310387D01*
X176637513Y-76723932D01*
X176573756Y-76677611D01*
X176377410Y-76577567D01*
X176167835Y-76509473D01*
X175950181Y-76475000D01*
X175729819Y-76475000D01*
X175512164Y-76509473D01*
X175302589Y-76577567D01*
X175106233Y-76677616D01*
X175042485Y-76723931D01*
X175042485Y-76723932D01*
X175628940Y-77310387D01*
X175608409Y-77315889D01*
X175471592Y-77394881D01*
X175359881Y-77506592D01*
X175280889Y-77643409D01*
X175275387Y-77663940D01*
X174688932Y-77077485D01*
X174688931Y-77077485D01*
X174642616Y-77141233D01*
X174542567Y-77337589D01*
X174474473Y-77547164D01*
X174440000Y-77764818D01*
X167841503Y-77764818D01*
X167841572Y-77758568D01*
X167852558Y-76769813D01*
X167948469Y-68137860D01*
X200399500Y-68137860D01*
X200399500Y-68462139D01*
X200431284Y-68784857D01*
X200431287Y-68784874D01*
X200494545Y-69102902D01*
X200494548Y-69102913D01*
X200588686Y-69413247D01*
X200712786Y-69712849D01*
X200712788Y-69712854D01*
X200865646Y-69998830D01*
X200865657Y-69998848D01*
X201045811Y-70268467D01*
X201045821Y-70268481D01*
X201251546Y-70519158D01*
X201480841Y-70748453D01*
X201480846Y-70748457D01*
X201480847Y-70748458D01*
X201731524Y-70954183D01*
X202001158Y-71134347D01*
X202001167Y-71134352D01*
X202001169Y-71134353D01*
X202287145Y-71287211D01*
X202287147Y-71287211D01*
X202287153Y-71287215D01*
X202586754Y-71411314D01*
X202897077Y-71505449D01*
X202897083Y-71505450D01*
X202897086Y-71505451D01*
X202897097Y-71505454D01*
X203096528Y-71545122D01*
X203215132Y-71568714D01*
X203537857Y-71600500D01*
X203537860Y-71600500D01*
X203862140Y-71600500D01*
X203862143Y-71600500D01*
X204184868Y-71568714D01*
X204342295Y-71537399D01*
X204502902Y-71505454D01*
X204502913Y-71505451D01*
X204502913Y-71505450D01*
X204502923Y-71505449D01*
X204813246Y-71411314D01*
X205112847Y-71287215D01*
X205398842Y-71134347D01*
X205668476Y-70954183D01*
X205919153Y-70748458D01*
X206148458Y-70519153D01*
X206354183Y-70268476D01*
X206534347Y-69998842D01*
X206687215Y-69712847D01*
X206811314Y-69413246D01*
X206905449Y-69102923D01*
X206905451Y-69102913D01*
X206905454Y-69102902D01*
X206945244Y-68902860D01*
X206968714Y-68784868D01*
X207000500Y-68462143D01*
X207000500Y-68137857D01*
X206968714Y-67815132D01*
X206935768Y-67649500D01*
X206905454Y-67497097D01*
X206905451Y-67497086D01*
X206905450Y-67497083D01*
X206905449Y-67497077D01*
X206811314Y-67186754D01*
X206687215Y-66887153D01*
X206645413Y-66808948D01*
X206534353Y-66601169D01*
X206534352Y-66601167D01*
X206534347Y-66601158D01*
X206354183Y-66331524D01*
X206148458Y-66080847D01*
X206148457Y-66080846D01*
X206148453Y-66080841D01*
X205919158Y-65851546D01*
X205668481Y-65645821D01*
X205668480Y-65645820D01*
X205668476Y-65645817D01*
X205398842Y-65465653D01*
X205398837Y-65465650D01*
X205398830Y-65465646D01*
X205112854Y-65312788D01*
X205112849Y-65312786D01*
X204813247Y-65188686D01*
X204502913Y-65094548D01*
X204502902Y-65094545D01*
X204184874Y-65031287D01*
X204184857Y-65031284D01*
X203940812Y-65007248D01*
X203862143Y-64999500D01*
X203537857Y-64999500D01*
X203465099Y-65006666D01*
X203215142Y-65031284D01*
X203215125Y-65031287D01*
X202897097Y-65094545D01*
X202897086Y-65094548D01*
X202586752Y-65188686D01*
X202287150Y-65312786D01*
X202287145Y-65312788D01*
X202001169Y-65465646D01*
X202001151Y-65465657D01*
X201731532Y-65645811D01*
X201731518Y-65645821D01*
X201480841Y-65851546D01*
X201251546Y-66080841D01*
X201045821Y-66331518D01*
X201045811Y-66331532D01*
X200865657Y-66601151D01*
X200865646Y-66601169D01*
X200712788Y-66887145D01*
X200712786Y-66887150D01*
X200588686Y-67186752D01*
X200494548Y-67497086D01*
X200494545Y-67497097D01*
X200431287Y-67815125D01*
X200431284Y-67815142D01*
X200406666Y-68065099D01*
X200403511Y-68097139D01*
X200399500Y-68137860D01*
X167948469Y-68137860D01*
X167948518Y-68133435D01*
X167998632Y-63623122D01*
X168019060Y-63556306D01*
X168072369Y-63511140D01*
X168122624Y-63500500D01*
X204497128Y-63500500D01*
X204502855Y-63500632D01*
X204830403Y-63515775D01*
X204836794Y-63516237D01*
X204911695Y-63523614D01*
X204916651Y-63524204D01*
X205203199Y-63564176D01*
X205210207Y-63565360D01*
X205279026Y-63579049D01*
X205283093Y-63579932D01*
X205570629Y-63647560D01*
X205578174Y-63649589D01*
X205635880Y-63667094D01*
X205639134Y-63668132D01*
X205929215Y-63765358D01*
X205937189Y-63768342D01*
X205976884Y-63784784D01*
X205979425Y-63785871D01*
X206263514Y-63911309D01*
X206275511Y-63916606D01*
X206283870Y-63920678D01*
X206291179Y-63924584D01*
X206293972Y-63926077D01*
X206293995Y-63926089D01*
X206295757Y-63927049D01*
X206600456Y-64096767D01*
X206610190Y-64102794D01*
X206905512Y-64305093D01*
X206914649Y-64311994D01*
X207052608Y-64426553D01*
X207190035Y-64540671D01*
X207198499Y-64548387D01*
X207451612Y-64801500D01*
X207459328Y-64809964D01*
X207688003Y-65085347D01*
X207694906Y-65094487D01*
X207897205Y-65389809D01*
X207903232Y-65399543D01*
X208072890Y-65704134D01*
X208073909Y-65706003D01*
X208079320Y-65716128D01*
X208083392Y-65724487D01*
X208214111Y-66020537D01*
X208215237Y-66023168D01*
X208231641Y-66062769D01*
X208234652Y-66070816D01*
X208271978Y-66182182D01*
X208331840Y-66360785D01*
X208332929Y-66364196D01*
X208350401Y-66421794D01*
X208352446Y-66429399D01*
X208420051Y-66716838D01*
X208420963Y-66721038D01*
X208434633Y-66789764D01*
X208435826Y-66796823D01*
X208475793Y-67083341D01*
X208476385Y-67088318D01*
X208483759Y-67163186D01*
X208484224Y-67169613D01*
X208499368Y-67497145D01*
X208499500Y-67502872D01*
X208499500Y-71254309D01*
X208499351Y-71260393D01*
X208486400Y-71524049D01*
X208485769Y-71531844D01*
X208485769Y-71531848D01*
X208479115Y-71590907D01*
X208478553Y-71595218D01*
X208443702Y-71830175D01*
X208441935Y-71839575D01*
X208435302Y-71868634D01*
X208434695Y-71871169D01*
X208371825Y-72122161D01*
X208368292Y-72133807D01*
X208273232Y-72399474D01*
X208268575Y-72410718D01*
X208147923Y-72665804D01*
X208142186Y-72676537D01*
X208009162Y-72898461D01*
X208007799Y-72900681D01*
X207991946Y-72925911D01*
X207986548Y-72933809D01*
X207845043Y-73124595D01*
X207842392Y-73128040D01*
X207805323Y-73174521D01*
X207800253Y-73180483D01*
X207622565Y-73376517D01*
X207618371Y-73380921D01*
X205379061Y-75620230D01*
X205379062Y-75620231D01*
X205378679Y-75620614D01*
X205378325Y-75620967D01*
X205378179Y-75621114D01*
X205378179Y-75621119D01*
X205372143Y-75627191D01*
X205372141Y-75627192D01*
X205371881Y-75627453D01*
X205274117Y-75725209D01*
X205274112Y-75725215D01*
X205087080Y-75953100D01*
X205060127Y-75993432D01*
X205060128Y-75993433D01*
X205057224Y-75997778D01*
X205051304Y-76005202D01*
X205036153Y-76029312D01*
X205035165Y-76030792D01*
X205035162Y-76030793D01*
X204923286Y-76198223D01*
X204923284Y-76198226D01*
X204887014Y-76266076D01*
X204887015Y-76266077D01*
X204884954Y-76269932D01*
X204872162Y-76290290D01*
X204854780Y-76326382D01*
X204853543Y-76328697D01*
X204784310Y-76458218D01*
X204784306Y-76458227D01*
X204742724Y-76558611D01*
X204742724Y-76558612D01*
X204741391Y-76561827D01*
X204726069Y-76593645D01*
X204714412Y-76626957D01*
X204713073Y-76630190D01*
X204671486Y-76730589D01*
X204628852Y-76871132D01*
X204628852Y-76871135D01*
X204628096Y-76873625D01*
X204614861Y-76911449D01*
X204609512Y-76934882D01*
X204608246Y-76939057D01*
X204608244Y-76939059D01*
X204585907Y-77012698D01*
X204546617Y-77210218D01*
X204546264Y-77211988D01*
X204539938Y-77239708D01*
X204538876Y-77249130D01*
X204537855Y-77254265D01*
X204537855Y-77254266D01*
X204528394Y-77301838D01*
X204528391Y-77301859D01*
X204499499Y-77595238D01*
X204499500Y-77742641D01*
X204499500Y-103782158D01*
X204499527Y-103782298D01*
X204499527Y-103839373D01*
X204499527Y-103904763D01*
X204504178Y-103951990D01*
X204528418Y-104198152D01*
X204537884Y-104245744D01*
X204538903Y-104250870D01*
X204539965Y-104260291D01*
X204546286Y-104287989D01*
X204546630Y-104289716D01*
X204585930Y-104487302D01*
X204608273Y-104560957D01*
X204608274Y-104560959D01*
X204609534Y-104565116D01*
X204614883Y-104588549D01*
X204628098Y-104626318D01*
X204628861Y-104628832D01*
X204653207Y-104709090D01*
X204668692Y-104760141D01*
X204671507Y-104769419D01*
X204671511Y-104769430D01*
X204713097Y-104869833D01*
X204713098Y-104869833D01*
X204714430Y-104873050D01*
X204726084Y-104906355D01*
X204741393Y-104938146D01*
X204742730Y-104941373D01*
X204742730Y-104941376D01*
X204784317Y-105041777D01*
X204784319Y-105041782D01*
X204836234Y-105138909D01*
X204853552Y-105171311D01*
X204853575Y-105171353D01*
X204853575Y-105171354D01*
X204854809Y-105173664D01*
X204872169Y-105209712D01*
X204884944Y-105230043D01*
X204886989Y-105233870D01*
X204887002Y-105233893D01*
X204887974Y-105235711D01*
X204923290Y-105301784D01*
X205035183Y-105469250D01*
X205035184Y-105469250D01*
X205036166Y-105470720D01*
X205051300Y-105494806D01*
X205057219Y-105502228D01*
X205060120Y-105506570D01*
X205060120Y-105506572D01*
X205087066Y-105546900D01*
X205087071Y-105546907D01*
X205087073Y-105546909D01*
X205157832Y-105633131D01*
X205274074Y-105774775D01*
X205274096Y-105774801D01*
X205360899Y-105861604D01*
X205361225Y-105861932D01*
X205361403Y-105862112D01*
X205361456Y-105862212D01*
X205378179Y-105878886D01*
X205378325Y-105879032D01*
X205378325Y-105879033D01*
X205378679Y-105879386D01*
X205378803Y-105879510D01*
X207618799Y-108119506D01*
X207622997Y-108123915D01*
X207800283Y-108319524D01*
X207805352Y-108325484D01*
X207842390Y-108371929D01*
X207845020Y-108375348D01*
X207906198Y-108457838D01*
X207986555Y-108566189D01*
X207991949Y-108574082D01*
X208007761Y-108599246D01*
X208009127Y-108601471D01*
X208142184Y-108823468D01*
X208147917Y-108834194D01*
X208265954Y-109083771D01*
X208268556Y-109089271D01*
X208273213Y-109100514D01*
X208368273Y-109366201D01*
X208371805Y-109377846D01*
X208434679Y-109628866D01*
X208435286Y-109631402D01*
X208441906Y-109660407D01*
X208443673Y-109669806D01*
X208478525Y-109904777D01*
X208479087Y-109909087D01*
X208485742Y-109968153D01*
X208486373Y-109975953D01*
X208499351Y-110240189D01*
X208499500Y-110246272D01*
X208499500Y-113997127D01*
X208499368Y-114002854D01*
X208484224Y-114330385D01*
X208483759Y-114336812D01*
X208476385Y-114411680D01*
X208475793Y-114416657D01*
X208435826Y-114703175D01*
X208434633Y-114710234D01*
X208420963Y-114778960D01*
X208420051Y-114783160D01*
X208352446Y-115070599D01*
X208350401Y-115078204D01*
X208332929Y-115135802D01*
X208331840Y-115139213D01*
X208234653Y-115429180D01*
X208231641Y-115437229D01*
X208215237Y-115476830D01*
X208214111Y-115479461D01*
X208083392Y-115775511D01*
X208079320Y-115783870D01*
X208073909Y-115793995D01*
X208072876Y-115795889D01*
X207903234Y-116100452D01*
X207897205Y-116110190D01*
X207694906Y-116405512D01*
X207688003Y-116414652D01*
X207459328Y-116690035D01*
X207451612Y-116698499D01*
X207198499Y-116951612D01*
X207190035Y-116959328D01*
X206914652Y-117188003D01*
X206905512Y-117194906D01*
X206610190Y-117397205D01*
X206600452Y-117403234D01*
X206295889Y-117572876D01*
X206293995Y-117573909D01*
X206283870Y-117579320D01*
X206275511Y-117583392D01*
X205979461Y-117714111D01*
X205976830Y-117715237D01*
X205937229Y-117731641D01*
X205929180Y-117734653D01*
X205639213Y-117831840D01*
X205635802Y-117832929D01*
X205578204Y-117850401D01*
X205570599Y-117852446D01*
X205283160Y-117920051D01*
X205278960Y-117920963D01*
X205210234Y-117934633D01*
X205203175Y-117935826D01*
X204916657Y-117975793D01*
X204911680Y-117976385D01*
X204836812Y-117983759D01*
X204830385Y-117984224D01*
X204502855Y-117999368D01*
X204497128Y-117999500D01*
X152533774Y-117999500D01*
X152466735Y-117979815D01*
X152420980Y-117927011D01*
X152411036Y-117857853D01*
X152440061Y-117794297D01*
X152464883Y-117772398D01*
X152521371Y-117734653D01*
X152574035Y-117699464D01*
X152699464Y-117574035D01*
X152798013Y-117426547D01*
X152865894Y-117262666D01*
X152879373Y-117194906D01*
X152900499Y-117088695D01*
X152900500Y-117088693D01*
X152900500Y-117024500D01*
X152920185Y-116957461D01*
X152972989Y-116911706D01*
X153024500Y-116900500D01*
X163314071Y-116900500D01*
X163398615Y-116883682D01*
X163439744Y-116875501D01*
X163558127Y-116826465D01*
X163571472Y-116817548D01*
X163664669Y-116755277D01*
X164205277Y-116214669D01*
X164276465Y-116108127D01*
X164325501Y-115989744D01*
X164326274Y-115985858D01*
X164331848Y-115957837D01*
X164350500Y-115864071D01*
X164350500Y-105424361D01*
X164370185Y-105357322D01*
X164386816Y-105336682D01*
X164399464Y-105324035D01*
X164498013Y-105176547D01*
X164565894Y-105012666D01*
X164567124Y-105006486D01*
X164592825Y-104877277D01*
X164600500Y-104838691D01*
X164600500Y-104661309D01*
X164600500Y-104661306D01*
X164600499Y-104661304D01*
X164565896Y-104487341D01*
X164565893Y-104487332D01*
X164565883Y-104487309D01*
X164520745Y-104378334D01*
X164498016Y-104323459D01*
X164498009Y-104323446D01*
X164399464Y-104175965D01*
X164399461Y-104175961D01*
X164274038Y-104050538D01*
X164274034Y-104050535D01*
X164126553Y-103951990D01*
X164126540Y-103951983D01*
X163962667Y-103884106D01*
X163962658Y-103884103D01*
X163788694Y-103849500D01*
X163788691Y-103849500D01*
X163611309Y-103849500D01*
X163611306Y-103849500D01*
X163437341Y-103884103D01*
X163437332Y-103884106D01*
X163273459Y-103951983D01*
X163273446Y-103951990D01*
X163125965Y-104050535D01*
X163125961Y-104050538D01*
X163000538Y-104175961D01*
X163000535Y-104175965D01*
X162901990Y-104323446D01*
X162901983Y-104323459D01*
X162834106Y-104487332D01*
X162834103Y-104487341D01*
X162799500Y-104661304D01*
X162799500Y-104838695D01*
X162834103Y-105012658D01*
X162834106Y-105012667D01*
X162901983Y-105176540D01*
X162901990Y-105176553D01*
X163000534Y-105324033D01*
X163000535Y-105324034D01*
X163000536Y-105324035D01*
X163013180Y-105336679D01*
X163046665Y-105397999D01*
X163049500Y-105424361D01*
X163049500Y-115475500D01*
X163029815Y-115542539D01*
X162977011Y-115588294D01*
X162925500Y-115599500D01*
X160749500Y-115599500D01*
X160682461Y-115579815D01*
X160636706Y-115527011D01*
X160625500Y-115475500D01*
X160625500Y-113698362D01*
X160645185Y-113631323D01*
X160697989Y-113585568D01*
X160767147Y-113575624D01*
X160830703Y-113604649D01*
X160837181Y-113610681D01*
X160925961Y-113699461D01*
X160925965Y-113699464D01*
X161073446Y-113798009D01*
X161073459Y-113798016D01*
X161170426Y-113838180D01*
X161237334Y-113865894D01*
X161237336Y-113865894D01*
X161237341Y-113865896D01*
X161411304Y-113900499D01*
X161411307Y-113900500D01*
X161411309Y-113900500D01*
X161588693Y-113900500D01*
X161588694Y-113900499D01*
X161681953Y-113881949D01*
X161762658Y-113865896D01*
X161762661Y-113865894D01*
X161762666Y-113865894D01*
X161926547Y-113798013D01*
X162074035Y-113699464D01*
X162199464Y-113574035D01*
X162298013Y-113426547D01*
X162365894Y-113262666D01*
X162370932Y-113237341D01*
X162400499Y-113088695D01*
X162400500Y-113088693D01*
X162400500Y-112911306D01*
X162400499Y-112911304D01*
X162365896Y-112737341D01*
X162365893Y-112737332D01*
X162298016Y-112573459D01*
X162298009Y-112573446D01*
X162199464Y-112425965D01*
X162199461Y-112425961D01*
X162161819Y-112388319D01*
X162128334Y-112326996D01*
X162125500Y-112300638D01*
X162125500Y-108199361D01*
X162145185Y-108132322D01*
X162161820Y-108111679D01*
X162199461Y-108074038D01*
X162199464Y-108074035D01*
X162298013Y-107926547D01*
X162365894Y-107762666D01*
X162369150Y-107746300D01*
X162393370Y-107624534D01*
X162400500Y-107588691D01*
X162400500Y-107411309D01*
X162400500Y-107411306D01*
X162400499Y-107411304D01*
X162365896Y-107237341D01*
X162365893Y-107237332D01*
X162298016Y-107073459D01*
X162298009Y-107073446D01*
X162199464Y-106925965D01*
X162199461Y-106925961D01*
X162074038Y-106800538D01*
X162074034Y-106800535D01*
X161926553Y-106701990D01*
X161926540Y-106701983D01*
X161762667Y-106634106D01*
X161762658Y-106634103D01*
X161588694Y-106599500D01*
X161588691Y-106599500D01*
X161411309Y-106599500D01*
X161411306Y-106599500D01*
X161237341Y-106634103D01*
X161237332Y-106634106D01*
X161073459Y-106701983D01*
X161073446Y-106701990D01*
X160925965Y-106800535D01*
X160925961Y-106800538D01*
X160837181Y-106889319D01*
X160775858Y-106922804D01*
X160706166Y-106917820D01*
X160650233Y-106875948D01*
X160625816Y-106810484D01*
X160625500Y-106801638D01*
X160625500Y-104760452D01*
X160645185Y-104693413D01*
X160661819Y-104672771D01*
X160922771Y-104411819D01*
X160984094Y-104378334D01*
X161010452Y-104375500D01*
X161063693Y-104375500D01*
X161063694Y-104375499D01*
X161121682Y-104363964D01*
X161237658Y-104340896D01*
X161237661Y-104340894D01*
X161237666Y-104340894D01*
X161401547Y-104273013D01*
X161549035Y-104174464D01*
X161674464Y-104049035D01*
X161773013Y-103901547D01*
X161780333Y-103883876D01*
X161794157Y-103850500D01*
X161840894Y-103737666D01*
X161847991Y-103701990D01*
X161865378Y-103614578D01*
X161875500Y-103563691D01*
X161875500Y-103386309D01*
X161875500Y-103386306D01*
X161875499Y-103386304D01*
X161840896Y-103212341D01*
X161840893Y-103212332D01*
X161773016Y-103048459D01*
X161773009Y-103048446D01*
X161674464Y-102900965D01*
X161674461Y-102900961D01*
X161549038Y-102775538D01*
X161549034Y-102775535D01*
X161401553Y-102676990D01*
X161401540Y-102676983D01*
X161237667Y-102609106D01*
X161237658Y-102609103D01*
X161063694Y-102574500D01*
X161063691Y-102574500D01*
X160886309Y-102574500D01*
X160886306Y-102574500D01*
X160712341Y-102609103D01*
X160712332Y-102609106D01*
X160548459Y-102676983D01*
X160548448Y-102676989D01*
X160511520Y-102701664D01*
X160444842Y-102722541D01*
X160377462Y-102704056D01*
X160330773Y-102652077D01*
X160328069Y-102646014D01*
X160300648Y-102579815D01*
X160298013Y-102573453D01*
X160298011Y-102573450D01*
X160298009Y-102573446D01*
X160199464Y-102425965D01*
X160199461Y-102425961D01*
X160135681Y-102362181D01*
X160102196Y-102300858D01*
X160107180Y-102231166D01*
X160149052Y-102175233D01*
X160214516Y-102150816D01*
X160223362Y-102150500D01*
X171564071Y-102150500D01*
X171648615Y-102133682D01*
X171689744Y-102125501D01*
X171808127Y-102076465D01*
X171914669Y-102005277D01*
X172837819Y-101082127D01*
X172899142Y-101048642D01*
X172968833Y-101053626D01*
X173024767Y-101095498D01*
X173049184Y-101160962D01*
X173049500Y-101169808D01*
X173049500Y-102514547D01*
X173029815Y-102581586D01*
X173013181Y-102602228D01*
X171500686Y-104114722D01*
X171439363Y-104148207D01*
X171369671Y-104143223D01*
X171313738Y-104101351D01*
X171300903Y-104078811D01*
X171300883Y-104078823D01*
X171300463Y-104078038D01*
X171298442Y-104074488D01*
X171298015Y-104073457D01*
X171298009Y-104073446D01*
X171199464Y-103925965D01*
X171199461Y-103925961D01*
X171074038Y-103800538D01*
X171074034Y-103800535D01*
X170926553Y-103701990D01*
X170926540Y-103701983D01*
X170762667Y-103634106D01*
X170762658Y-103634103D01*
X170588694Y-103599500D01*
X170588691Y-103599500D01*
X170411309Y-103599500D01*
X170411306Y-103599500D01*
X170237341Y-103634103D01*
X170237332Y-103634106D01*
X170073459Y-103701983D01*
X170073446Y-103701990D01*
X169925968Y-103800533D01*
X169863429Y-103863071D01*
X169802105Y-103896555D01*
X169799943Y-103897005D01*
X169792244Y-103898536D01*
X169792237Y-103898538D01*
X169777208Y-103904763D01*
X169777209Y-103904764D01*
X169678405Y-103945689D01*
X169678403Y-103945690D01*
X169575967Y-104014138D01*
X169575965Y-104014139D01*
X169492395Y-104097709D01*
X169431071Y-104131193D01*
X169361380Y-104126209D01*
X169305446Y-104084337D01*
X169301639Y-104078356D01*
X169301398Y-104078518D01*
X169199464Y-103925965D01*
X169199461Y-103925961D01*
X169074038Y-103800538D01*
X169074034Y-103800535D01*
X168926553Y-103701990D01*
X168926540Y-103701983D01*
X168762667Y-103634106D01*
X168762658Y-103634103D01*
X168588694Y-103599500D01*
X168588691Y-103599500D01*
X168411309Y-103599500D01*
X168411306Y-103599500D01*
X168237341Y-103634103D01*
X168237332Y-103634106D01*
X168073459Y-103701983D01*
X168073446Y-103701990D01*
X167925965Y-103800535D01*
X167925961Y-103800538D01*
X167800538Y-103925961D01*
X167800535Y-103925965D01*
X167701990Y-104073446D01*
X167701983Y-104073459D01*
X167634106Y-104237332D01*
X167634103Y-104237341D01*
X167599500Y-104411304D01*
X167599500Y-104429191D01*
X167579815Y-104496230D01*
X167563181Y-104516872D01*
X164994727Y-107085325D01*
X164994721Y-107085332D01*
X164939359Y-107168188D01*
X164939360Y-107168189D01*
X164923534Y-107191874D01*
X164874499Y-107310255D01*
X164874497Y-107310261D01*
X164849500Y-107435928D01*
X164849500Y-110825638D01*
X164829815Y-110892677D01*
X164813181Y-110913319D01*
X164800538Y-110925961D01*
X164800535Y-110925965D01*
X164701990Y-111073446D01*
X164701983Y-111073459D01*
X164634106Y-111237332D01*
X164634103Y-111237341D01*
X164599500Y-111411304D01*
X164599500Y-111588695D01*
X164634103Y-111762658D01*
X164634106Y-111762667D01*
X164701983Y-111926540D01*
X164701990Y-111926553D01*
X164800535Y-112074034D01*
X164800538Y-112074038D01*
X164925961Y-112199461D01*
X164925965Y-112199464D01*
X165073446Y-112298009D01*
X165073459Y-112298016D01*
X165196363Y-112348923D01*
X165237334Y-112365894D01*
X165237336Y-112365894D01*
X165237341Y-112365896D01*
X165411304Y-112400499D01*
X165411307Y-112400500D01*
X165411309Y-112400500D01*
X165588693Y-112400500D01*
X165588694Y-112400499D01*
X165681953Y-112381949D01*
X165762658Y-112365896D01*
X165762661Y-112365894D01*
X165762666Y-112365894D01*
X165902535Y-112307958D01*
X165926540Y-112298016D01*
X165926540Y-112298015D01*
X165926547Y-112298013D01*
X166074035Y-112199464D01*
X166111679Y-112161820D01*
X166162819Y-112110681D01*
X166224142Y-112077196D01*
X166293834Y-112082180D01*
X166349767Y-112124052D01*
X166374184Y-112189516D01*
X166374500Y-112198362D01*
X166374500Y-114561607D01*
X166379886Y-114588690D01*
X166398535Y-114682444D01*
X166398538Y-114682456D01*
X166409010Y-114707737D01*
X166410490Y-114711309D01*
X166445688Y-114796286D01*
X166465824Y-114826420D01*
X166470450Y-114833344D01*
X166470454Y-114833351D01*
X166514138Y-114898728D01*
X166514139Y-114898729D01*
X166514142Y-114898733D01*
X166601267Y-114985858D01*
X166601269Y-114985859D01*
X166608335Y-114992925D01*
X166608334Y-114992925D01*
X166608338Y-114992928D01*
X167826263Y-116210855D01*
X167826267Y-116210858D01*
X167928710Y-116279309D01*
X167928711Y-116279309D01*
X167928715Y-116279312D01*
X167995397Y-116306932D01*
X168042548Y-116326463D01*
X168062597Y-116330451D01*
X168127624Y-116343385D01*
X168163392Y-116350501D01*
X168163394Y-116350501D01*
X168292721Y-116350501D01*
X168292741Y-116350500D01*
X171336607Y-116350500D01*
X171397029Y-116338481D01*
X171457452Y-116326463D01*
X171494025Y-116311314D01*
X171571286Y-116279312D01*
X171622509Y-116245084D01*
X171673733Y-116210858D01*
X171760858Y-116123733D01*
X171760858Y-116123731D01*
X171771066Y-116113524D01*
X171771067Y-116113521D01*
X172447772Y-115436819D01*
X172509095Y-115403334D01*
X172535453Y-115400500D01*
X172588693Y-115400500D01*
X172588694Y-115400499D01*
X172646682Y-115388964D01*
X172762658Y-115365896D01*
X172762661Y-115365894D01*
X172762666Y-115365894D01*
X172926547Y-115298013D01*
X173074035Y-115199464D01*
X173199464Y-115074035D01*
X173298013Y-114926547D01*
X173365894Y-114762666D01*
X173370932Y-114737341D01*
X173400500Y-114588693D01*
X173400500Y-114411306D01*
X173400499Y-114411304D01*
X173365896Y-114237341D01*
X173365893Y-114237332D01*
X173360570Y-114224482D01*
X173309231Y-114100535D01*
X173298016Y-114073459D01*
X173298009Y-114073446D01*
X173199464Y-113925965D01*
X173199461Y-113925961D01*
X173074038Y-113800538D01*
X173074034Y-113800535D01*
X172926553Y-113701990D01*
X172926540Y-113701983D01*
X172762667Y-113634106D01*
X172762658Y-113634103D01*
X172588694Y-113599500D01*
X172588691Y-113599500D01*
X172411309Y-113599500D01*
X172411306Y-113599500D01*
X172237341Y-113634103D01*
X172237332Y-113634106D01*
X172073459Y-113701983D01*
X172073446Y-113701990D01*
X171925965Y-113800535D01*
X171925961Y-113800538D01*
X171800538Y-113925961D01*
X171800535Y-113925965D01*
X171701990Y-114073446D01*
X171701983Y-114073459D01*
X171634106Y-114237332D01*
X171634103Y-114237341D01*
X171599500Y-114411304D01*
X171599500Y-114464547D01*
X171579815Y-114531586D01*
X171563181Y-114552228D01*
X171052229Y-115063181D01*
X170990906Y-115096666D01*
X170964548Y-115099500D01*
X170024500Y-115099500D01*
X169957461Y-115079815D01*
X169911706Y-115027011D01*
X169900500Y-114975500D01*
X169900500Y-114911306D01*
X169900499Y-114911304D01*
X169865896Y-114737341D01*
X169865893Y-114737332D01*
X169798016Y-114573459D01*
X169798009Y-114573446D01*
X169699464Y-114425965D01*
X169699461Y-114425961D01*
X169661819Y-114388319D01*
X169628334Y-114326996D01*
X169625500Y-114300638D01*
X169625500Y-113037857D01*
X200399500Y-113037857D01*
X200399500Y-113362143D01*
X200405843Y-113426540D01*
X200431284Y-113684857D01*
X200431287Y-113684874D01*
X200494545Y-114002902D01*
X200494548Y-114002913D01*
X200588686Y-114313247D01*
X200651357Y-114464547D01*
X200707256Y-114599500D01*
X200712786Y-114612849D01*
X200712788Y-114612854D01*
X200865646Y-114898830D01*
X200865657Y-114898848D01*
X201045811Y-115168467D01*
X201045821Y-115168481D01*
X201251546Y-115419158D01*
X201480841Y-115648453D01*
X201480846Y-115648457D01*
X201480847Y-115648458D01*
X201731524Y-115854183D01*
X202001158Y-116034347D01*
X202001167Y-116034352D01*
X202001169Y-116034353D01*
X202287145Y-116187211D01*
X202287147Y-116187211D01*
X202287153Y-116187215D01*
X202586754Y-116311314D01*
X202897077Y-116405449D01*
X202897083Y-116405450D01*
X202897086Y-116405451D01*
X202897097Y-116405454D01*
X203096528Y-116445122D01*
X203215132Y-116468714D01*
X203537857Y-116500500D01*
X203537860Y-116500500D01*
X203862140Y-116500500D01*
X203862143Y-116500500D01*
X204184868Y-116468714D01*
X204342295Y-116437399D01*
X204502902Y-116405454D01*
X204502913Y-116405451D01*
X204502913Y-116405450D01*
X204502923Y-116405449D01*
X204813246Y-116311314D01*
X205112847Y-116187215D01*
X205398842Y-116034347D01*
X205668476Y-115854183D01*
X205919153Y-115648458D01*
X206148458Y-115419153D01*
X206354183Y-115168476D01*
X206534347Y-114898842D01*
X206687215Y-114612847D01*
X206811314Y-114313246D01*
X206905449Y-114002923D01*
X206905451Y-114002913D01*
X206905454Y-114002902D01*
X206946209Y-113798009D01*
X206968714Y-113684868D01*
X207000500Y-113362143D01*
X207000500Y-113037857D01*
X206968714Y-112715132D01*
X206924876Y-112494743D01*
X206905454Y-112397097D01*
X206905451Y-112397086D01*
X206905450Y-112397083D01*
X206905449Y-112397077D01*
X206811314Y-112086754D01*
X206687215Y-111787153D01*
X206682644Y-111778602D01*
X206534353Y-111501169D01*
X206534352Y-111501167D01*
X206534347Y-111501158D01*
X206354183Y-111231524D01*
X206148458Y-110980847D01*
X206148457Y-110980846D01*
X206148453Y-110980841D01*
X205919158Y-110751546D01*
X205668481Y-110545821D01*
X205668480Y-110545820D01*
X205668476Y-110545817D01*
X205398842Y-110365653D01*
X205398837Y-110365650D01*
X205398830Y-110365646D01*
X205112854Y-110212788D01*
X205112849Y-110212786D01*
X204813247Y-110088686D01*
X204502913Y-109994548D01*
X204502902Y-109994545D01*
X204184874Y-109931287D01*
X204184857Y-109931284D01*
X203940812Y-109907248D01*
X203862143Y-109899500D01*
X203537857Y-109899500D01*
X203465099Y-109906666D01*
X203215142Y-109931284D01*
X203215125Y-109931287D01*
X202897097Y-109994545D01*
X202897086Y-109994548D01*
X202586752Y-110088686D01*
X202287150Y-110212786D01*
X202287145Y-110212788D01*
X202001169Y-110365646D01*
X202001151Y-110365657D01*
X201731532Y-110545811D01*
X201731518Y-110545821D01*
X201480841Y-110751546D01*
X201251546Y-110980841D01*
X201045821Y-111231518D01*
X201045811Y-111231532D01*
X200865657Y-111501151D01*
X200865646Y-111501169D01*
X200712788Y-111787145D01*
X200712786Y-111787150D01*
X200588686Y-112086752D01*
X200494548Y-112397086D01*
X200494545Y-112397097D01*
X200431287Y-112715125D01*
X200431284Y-112715142D01*
X200406666Y-112965099D01*
X200399500Y-113037857D01*
X169625500Y-113037857D01*
X169625500Y-110138699D01*
X169645185Y-110071660D01*
X169661814Y-110051023D01*
X171898729Y-107814108D01*
X171898733Y-107814106D01*
X171985858Y-107726981D01*
X172054311Y-107624534D01*
X172054312Y-107624533D01*
X172054313Y-107624530D01*
X172054315Y-107624527D01*
X172071196Y-107583771D01*
X172101463Y-107510699D01*
X172125500Y-107389855D01*
X172125500Y-107266641D01*
X172125500Y-106199361D01*
X172145185Y-106132322D01*
X172161820Y-106111679D01*
X172199461Y-106074038D01*
X172199464Y-106074035D01*
X172298013Y-105926547D01*
X172365894Y-105762666D01*
X172386275Y-105660207D01*
X172400499Y-105588695D01*
X172400500Y-105588693D01*
X172400500Y-105411306D01*
X172400499Y-105411304D01*
X172391766Y-105367400D01*
X172365894Y-105237334D01*
X172333561Y-105159276D01*
X172326093Y-105089811D01*
X172357367Y-105027332D01*
X172360411Y-105024177D01*
X172637820Y-104746769D01*
X172699142Y-104713285D01*
X172768834Y-104718269D01*
X172824767Y-104760141D01*
X172849184Y-104825605D01*
X172849500Y-104834451D01*
X172849500Y-105825638D01*
X172829815Y-105892677D01*
X172813181Y-105913319D01*
X172800538Y-105925961D01*
X172800535Y-105925965D01*
X172701990Y-106073446D01*
X172701983Y-106073459D01*
X172634106Y-106237332D01*
X172634103Y-106237341D01*
X172599500Y-106411304D01*
X172599500Y-106588695D01*
X172634103Y-106762658D01*
X172634106Y-106762667D01*
X172701983Y-106926540D01*
X172701990Y-106926553D01*
X172800535Y-107074034D01*
X172800538Y-107074038D01*
X172925961Y-107199461D01*
X172925965Y-107199464D01*
X173073446Y-107298009D01*
X173073459Y-107298016D01*
X173171140Y-107338476D01*
X173237334Y-107365894D01*
X173237336Y-107365894D01*
X173237341Y-107365896D01*
X173411304Y-107400499D01*
X173411307Y-107400500D01*
X173411309Y-107400500D01*
X173588693Y-107400500D01*
X173588694Y-107400499D01*
X173670003Y-107384326D01*
X173762658Y-107365896D01*
X173762661Y-107365894D01*
X173762666Y-107365894D01*
X173926547Y-107298013D01*
X174074035Y-107199464D01*
X174199464Y-107074035D01*
X174298013Y-106926547D01*
X174365894Y-106762666D01*
X174369151Y-106746295D01*
X174400499Y-106588695D01*
X174400500Y-106588693D01*
X174400500Y-106411306D01*
X174400499Y-106411304D01*
X174365896Y-106237341D01*
X174365893Y-106237332D01*
X174365282Y-106235858D01*
X174308802Y-106099500D01*
X174298016Y-106073459D01*
X174298009Y-106073446D01*
X174199464Y-105925965D01*
X174199461Y-105925961D01*
X174186819Y-105913319D01*
X174153334Y-105851996D01*
X174150500Y-105825638D01*
X174150500Y-104820807D01*
X174170185Y-104753768D01*
X174186814Y-104733131D01*
X175727819Y-103192125D01*
X175789142Y-103158641D01*
X175858834Y-103163625D01*
X175914767Y-103205497D01*
X175939184Y-103270961D01*
X175939500Y-103279807D01*
X175939500Y-104947870D01*
X175939501Y-104947876D01*
X175945908Y-105007483D01*
X175996202Y-105142328D01*
X175996206Y-105142335D01*
X176082452Y-105257544D01*
X176082455Y-105257547D01*
X176197664Y-105343793D01*
X176197671Y-105343797D01*
X176332517Y-105394091D01*
X176332516Y-105394091D01*
X176339444Y-105394835D01*
X176392127Y-105400500D01*
X178287872Y-105400499D01*
X178347483Y-105394091D01*
X178482331Y-105343796D01*
X178597546Y-105257546D01*
X178683796Y-105142331D01*
X178711429Y-105068243D01*
X178713601Y-105062420D01*
X178755471Y-105006486D01*
X178820936Y-104982068D01*
X178889209Y-104996919D01*
X178917464Y-105018071D01*
X178967636Y-105068243D01*
X178967641Y-105068247D01*
X179090975Y-105157853D01*
X179145978Y-105197815D01*
X179266032Y-105258986D01*
X179342393Y-105297895D01*
X179342396Y-105297896D01*
X179429358Y-105326151D01*
X179552049Y-105366015D01*
X179769778Y-105400500D01*
X179769779Y-105400500D01*
X179990221Y-105400500D01*
X179990222Y-105400500D01*
X180207951Y-105366015D01*
X180417606Y-105297895D01*
X180614022Y-105197815D01*
X180792365Y-105068242D01*
X180948242Y-104912365D01*
X180979143Y-104869833D01*
X181049682Y-104772745D01*
X181105011Y-104730079D01*
X181174625Y-104724100D01*
X181236420Y-104756705D01*
X181250318Y-104772745D01*
X181351752Y-104912358D01*
X181351756Y-104912363D01*
X181507636Y-105068243D01*
X181507641Y-105068247D01*
X181630975Y-105157853D01*
X181685978Y-105197815D01*
X181806032Y-105258986D01*
X181882393Y-105297895D01*
X181882396Y-105297896D01*
X181969358Y-105326151D01*
X182092049Y-105366015D01*
X182309778Y-105400500D01*
X182309779Y-105400500D01*
X182530221Y-105400500D01*
X182530222Y-105400500D01*
X182747951Y-105366015D01*
X182957606Y-105297895D01*
X183154022Y-105197815D01*
X183332365Y-105068242D01*
X183488242Y-104912365D01*
X183519143Y-104869833D01*
X183589682Y-104772745D01*
X183645011Y-104730079D01*
X183714625Y-104724100D01*
X183776420Y-104756705D01*
X183790318Y-104772745D01*
X183891752Y-104912358D01*
X183891756Y-104912363D01*
X184047636Y-105068243D01*
X184047641Y-105068247D01*
X184170975Y-105157853D01*
X184225978Y-105197815D01*
X184346032Y-105258986D01*
X184422393Y-105297895D01*
X184422396Y-105297896D01*
X184509358Y-105326151D01*
X184632049Y-105366015D01*
X184849778Y-105400500D01*
X184849779Y-105400500D01*
X185070221Y-105400500D01*
X185070222Y-105400500D01*
X185287951Y-105366015D01*
X185497606Y-105297895D01*
X185694022Y-105197815D01*
X185872365Y-105068242D01*
X186028242Y-104912365D01*
X186059143Y-104869833D01*
X186129682Y-104772745D01*
X186185011Y-104730079D01*
X186254625Y-104724100D01*
X186316420Y-104756705D01*
X186330318Y-104772745D01*
X186431752Y-104912358D01*
X186431756Y-104912363D01*
X186587636Y-105068243D01*
X186587641Y-105068247D01*
X186710975Y-105157853D01*
X186765978Y-105197815D01*
X186886032Y-105258986D01*
X186962393Y-105297895D01*
X186962396Y-105297896D01*
X187049358Y-105326151D01*
X187172049Y-105366015D01*
X187389778Y-105400500D01*
X187389779Y-105400500D01*
X187610221Y-105400500D01*
X187610222Y-105400500D01*
X187827951Y-105366015D01*
X188037606Y-105297895D01*
X188234022Y-105197815D01*
X188412365Y-105068242D01*
X188568242Y-104912365D01*
X188599143Y-104869833D01*
X188669682Y-104772745D01*
X188725011Y-104730079D01*
X188794625Y-104724100D01*
X188856420Y-104756705D01*
X188870318Y-104772745D01*
X188971752Y-104912358D01*
X188971756Y-104912363D01*
X189127636Y-105068243D01*
X189127641Y-105068247D01*
X189250975Y-105157853D01*
X189305978Y-105197815D01*
X189426032Y-105258986D01*
X189502393Y-105297895D01*
X189502396Y-105297896D01*
X189589358Y-105326151D01*
X189712049Y-105366015D01*
X189929778Y-105400500D01*
X189929779Y-105400500D01*
X190150221Y-105400500D01*
X190150222Y-105400500D01*
X190367951Y-105366015D01*
X190577606Y-105297895D01*
X190774022Y-105197815D01*
X190952365Y-105068242D01*
X191108242Y-104912365D01*
X191139143Y-104869833D01*
X191209682Y-104772745D01*
X191265011Y-104730079D01*
X191334625Y-104724100D01*
X191396420Y-104756705D01*
X191410318Y-104772745D01*
X191511752Y-104912358D01*
X191511756Y-104912363D01*
X191667636Y-105068243D01*
X191667641Y-105068247D01*
X191790975Y-105157853D01*
X191845978Y-105197815D01*
X191966032Y-105258986D01*
X192042393Y-105297895D01*
X192042396Y-105297896D01*
X192129358Y-105326151D01*
X192252049Y-105366015D01*
X192469778Y-105400500D01*
X192469779Y-105400500D01*
X192690221Y-105400500D01*
X192690222Y-105400500D01*
X192907951Y-105366015D01*
X193117606Y-105297895D01*
X193314022Y-105197815D01*
X193492365Y-105068242D01*
X193648242Y-104912365D01*
X193679143Y-104869833D01*
X193749682Y-104772745D01*
X193805011Y-104730079D01*
X193874625Y-104724100D01*
X193936420Y-104756705D01*
X193950318Y-104772745D01*
X194051752Y-104912358D01*
X194051756Y-104912363D01*
X194207636Y-105068243D01*
X194207641Y-105068247D01*
X194330975Y-105157853D01*
X194385978Y-105197815D01*
X194506032Y-105258986D01*
X194582393Y-105297895D01*
X194582396Y-105297896D01*
X194669358Y-105326151D01*
X194792049Y-105366015D01*
X195009778Y-105400500D01*
X195009779Y-105400500D01*
X195230221Y-105400500D01*
X195230222Y-105400500D01*
X195447951Y-105366015D01*
X195657606Y-105297895D01*
X195854022Y-105197815D01*
X196032365Y-105068242D01*
X196188242Y-104912365D01*
X196289991Y-104772317D01*
X196345320Y-104729653D01*
X196414933Y-104723674D01*
X196476729Y-104756279D01*
X196490628Y-104772319D01*
X196508932Y-104797513D01*
X197095387Y-104211058D01*
X197100889Y-104231591D01*
X197179881Y-104368408D01*
X197291592Y-104480119D01*
X197428409Y-104559111D01*
X197448939Y-104564612D01*
X196862485Y-105151065D01*
X196862485Y-105151066D01*
X196926243Y-105197388D01*
X197122589Y-105297432D01*
X197332164Y-105365526D01*
X197549819Y-105400000D01*
X197770181Y-105400000D01*
X197987835Y-105365526D01*
X198197410Y-105297432D01*
X198393760Y-105197386D01*
X198457513Y-105151066D01*
X198457514Y-105151066D01*
X197871059Y-104564612D01*
X197891591Y-104559111D01*
X198028408Y-104480119D01*
X198140119Y-104368408D01*
X198219111Y-104231591D01*
X198224612Y-104211059D01*
X198811066Y-104797514D01*
X198811066Y-104797513D01*
X198857386Y-104733760D01*
X198957432Y-104537410D01*
X199025526Y-104327835D01*
X199060000Y-104110181D01*
X199060000Y-103889818D01*
X199025526Y-103672164D01*
X198957432Y-103462589D01*
X198857388Y-103266243D01*
X198811066Y-103202485D01*
X198811065Y-103202485D01*
X198224612Y-103788939D01*
X198219111Y-103768409D01*
X198140119Y-103631592D01*
X198028408Y-103519881D01*
X197891591Y-103440889D01*
X197871057Y-103435387D01*
X198457513Y-102848932D01*
X198393756Y-102802611D01*
X198197410Y-102702567D01*
X197987835Y-102634473D01*
X197770181Y-102600000D01*
X197549819Y-102600000D01*
X197332164Y-102634473D01*
X197122589Y-102702567D01*
X196926233Y-102802616D01*
X196862485Y-102848931D01*
X196862485Y-102848932D01*
X197448940Y-103435387D01*
X197428409Y-103440889D01*
X197291592Y-103519881D01*
X197179881Y-103631592D01*
X197100889Y-103768409D01*
X197095387Y-103788940D01*
X196508932Y-103202485D01*
X196508930Y-103202485D01*
X196490626Y-103227679D01*
X196435296Y-103270345D01*
X196365683Y-103276324D01*
X196303888Y-103243718D01*
X196289990Y-103227679D01*
X196188247Y-103087640D01*
X196032363Y-102931756D01*
X196032358Y-102931752D01*
X195854025Y-102802187D01*
X195854024Y-102802186D01*
X195854022Y-102802185D01*
X195777891Y-102763394D01*
X195657606Y-102702104D01*
X195657603Y-102702103D01*
X195447952Y-102633985D01*
X195339086Y-102616742D01*
X195230222Y-102599500D01*
X195009778Y-102599500D01*
X194949147Y-102609103D01*
X194792047Y-102633985D01*
X194582396Y-102702103D01*
X194582393Y-102702104D01*
X194385974Y-102802187D01*
X194207641Y-102931752D01*
X194207636Y-102931756D01*
X194051756Y-103087636D01*
X194051752Y-103087641D01*
X193950318Y-103227254D01*
X193894988Y-103269920D01*
X193825375Y-103275899D01*
X193763580Y-103243293D01*
X193749682Y-103227254D01*
X193648247Y-103087641D01*
X193648243Y-103087636D01*
X193492363Y-102931756D01*
X193492358Y-102931752D01*
X193314025Y-102802187D01*
X193314024Y-102802186D01*
X193314022Y-102802185D01*
X193237891Y-102763394D01*
X193117606Y-102702104D01*
X193117603Y-102702103D01*
X192907952Y-102633985D01*
X192799086Y-102616742D01*
X192690222Y-102599500D01*
X192469778Y-102599500D01*
X192409147Y-102609103D01*
X192252047Y-102633985D01*
X192042396Y-102702103D01*
X192042393Y-102702104D01*
X191845974Y-102802187D01*
X191667641Y-102931752D01*
X191667636Y-102931756D01*
X191511756Y-103087636D01*
X191511752Y-103087641D01*
X191410318Y-103227254D01*
X191354988Y-103269920D01*
X191285375Y-103275899D01*
X191223580Y-103243293D01*
X191209682Y-103227254D01*
X191108247Y-103087641D01*
X191108243Y-103087636D01*
X190952363Y-102931756D01*
X190952358Y-102931752D01*
X190774025Y-102802187D01*
X190774024Y-102802186D01*
X190774022Y-102802185D01*
X190697891Y-102763394D01*
X190577606Y-102702104D01*
X190577603Y-102702103D01*
X190367952Y-102633985D01*
X190259086Y-102616742D01*
X190150222Y-102599500D01*
X189929778Y-102599500D01*
X189869147Y-102609103D01*
X189712047Y-102633985D01*
X189502396Y-102702103D01*
X189502393Y-102702104D01*
X189305974Y-102802187D01*
X189127641Y-102931752D01*
X189127636Y-102931756D01*
X188971756Y-103087636D01*
X188971752Y-103087641D01*
X188870318Y-103227254D01*
X188814988Y-103269920D01*
X188745375Y-103275899D01*
X188683580Y-103243293D01*
X188669682Y-103227254D01*
X188568247Y-103087641D01*
X188568243Y-103087636D01*
X188412363Y-102931756D01*
X188412358Y-102931752D01*
X188234025Y-102802187D01*
X188234024Y-102802186D01*
X188234022Y-102802185D01*
X188157891Y-102763394D01*
X188037606Y-102702104D01*
X188037603Y-102702103D01*
X187827952Y-102633985D01*
X187719086Y-102616742D01*
X187610222Y-102599500D01*
X187389778Y-102599500D01*
X187329147Y-102609103D01*
X187172047Y-102633985D01*
X186962396Y-102702103D01*
X186962393Y-102702104D01*
X186765974Y-102802187D01*
X186587641Y-102931752D01*
X186587636Y-102931756D01*
X186431756Y-103087636D01*
X186431752Y-103087641D01*
X186330318Y-103227254D01*
X186274988Y-103269920D01*
X186205375Y-103275899D01*
X186143580Y-103243293D01*
X186129682Y-103227254D01*
X186028247Y-103087641D01*
X186028243Y-103087636D01*
X185872363Y-102931756D01*
X185872358Y-102931752D01*
X185694025Y-102802187D01*
X185694024Y-102802186D01*
X185694022Y-102802185D01*
X185617891Y-102763394D01*
X185497606Y-102702104D01*
X185497603Y-102702103D01*
X185287952Y-102633985D01*
X185179086Y-102616742D01*
X185070222Y-102599500D01*
X184849778Y-102599500D01*
X184789147Y-102609103D01*
X184632047Y-102633985D01*
X184422396Y-102702103D01*
X184422393Y-102702104D01*
X184225974Y-102802187D01*
X184047641Y-102931752D01*
X184047636Y-102931756D01*
X183891756Y-103087636D01*
X183891752Y-103087641D01*
X183790318Y-103227254D01*
X183734988Y-103269920D01*
X183665375Y-103275899D01*
X183603580Y-103243293D01*
X183589682Y-103227254D01*
X183488247Y-103087641D01*
X183488243Y-103087636D01*
X183332363Y-102931756D01*
X183332358Y-102931752D01*
X183154025Y-102802187D01*
X183154024Y-102802186D01*
X183154022Y-102802185D01*
X183077891Y-102763394D01*
X182957606Y-102702104D01*
X182957603Y-102702103D01*
X182747952Y-102633985D01*
X182639086Y-102616742D01*
X182530222Y-102599500D01*
X182309778Y-102599500D01*
X182249147Y-102609103D01*
X182092047Y-102633985D01*
X181882396Y-102702103D01*
X181882393Y-102702104D01*
X181685974Y-102802187D01*
X181507641Y-102931752D01*
X181507636Y-102931756D01*
X181351756Y-103087636D01*
X181351752Y-103087641D01*
X181250318Y-103227254D01*
X181194988Y-103269920D01*
X181125375Y-103275899D01*
X181063580Y-103243293D01*
X181049682Y-103227254D01*
X180948247Y-103087641D01*
X180948243Y-103087636D01*
X180792363Y-102931756D01*
X180792358Y-102931752D01*
X180614025Y-102802187D01*
X180614024Y-102802186D01*
X180614022Y-102802185D01*
X180537891Y-102763394D01*
X180417606Y-102702104D01*
X180417603Y-102702103D01*
X180207952Y-102633985D01*
X180099086Y-102616742D01*
X179990222Y-102599500D01*
X179769778Y-102599500D01*
X179709147Y-102609103D01*
X179552047Y-102633985D01*
X179342396Y-102702103D01*
X179342393Y-102702104D01*
X179145974Y-102802187D01*
X178967641Y-102931752D01*
X178967636Y-102931756D01*
X178917463Y-102981929D01*
X178856140Y-103015413D01*
X178786448Y-103010428D01*
X178730515Y-102968557D01*
X178713601Y-102937580D01*
X178683797Y-102857671D01*
X178683793Y-102857664D01*
X178597547Y-102742455D01*
X178597544Y-102742452D01*
X178482335Y-102656206D01*
X178482328Y-102656202D01*
X178347482Y-102605908D01*
X178347483Y-102605908D01*
X178287883Y-102599501D01*
X178287881Y-102599500D01*
X178287873Y-102599500D01*
X178287865Y-102599500D01*
X176619806Y-102599500D01*
X176552767Y-102579815D01*
X176507012Y-102527011D01*
X176497068Y-102457853D01*
X176526093Y-102394297D01*
X176532111Y-102387833D01*
X183532810Y-95387135D01*
X194334500Y-95387135D01*
X194334500Y-97012870D01*
X194334501Y-97012876D01*
X194340908Y-97072483D01*
X194391202Y-97207328D01*
X194391206Y-97207335D01*
X194477452Y-97322544D01*
X194477455Y-97322547D01*
X194592664Y-97408793D01*
X194592671Y-97408797D01*
X194727517Y-97459091D01*
X194727516Y-97459091D01*
X194734444Y-97459835D01*
X194787127Y-97465500D01*
X196412872Y-97465499D01*
X196472483Y-97459091D01*
X196607331Y-97408796D01*
X196722546Y-97322546D01*
X196808796Y-97207331D01*
X196859091Y-97072483D01*
X196865500Y-97012873D01*
X196865499Y-96980430D01*
X196885182Y-96913394D01*
X196937984Y-96867638D01*
X197007143Y-96857693D01*
X197070699Y-96886716D01*
X197089817Y-96907545D01*
X197131998Y-96965601D01*
X197174731Y-97024418D01*
X197315582Y-97165269D01*
X197476734Y-97282353D01*
X197610478Y-97350499D01*
X197654219Y-97372786D01*
X197843657Y-97434338D01*
X197843658Y-97434338D01*
X197843661Y-97434339D01*
X198040403Y-97465500D01*
X198040404Y-97465500D01*
X198239596Y-97465500D01*
X198239597Y-97465500D01*
X198436339Y-97434339D01*
X198436342Y-97434338D01*
X198436343Y-97434338D01*
X198625780Y-97372786D01*
X198625780Y-97372785D01*
X198625783Y-97372785D01*
X198803266Y-97282353D01*
X198964418Y-97165269D01*
X199105269Y-97024418D01*
X199222353Y-96863266D01*
X199312785Y-96685783D01*
X199349283Y-96573453D01*
X199374338Y-96496343D01*
X199374338Y-96496342D01*
X199374339Y-96496339D01*
X199405500Y-96299597D01*
X199405500Y-96100403D01*
X199374339Y-95903661D01*
X199374338Y-95903657D01*
X199374338Y-95903656D01*
X199312786Y-95714219D01*
X199279810Y-95649500D01*
X199222353Y-95536734D01*
X199105269Y-95375582D01*
X198964418Y-95234731D01*
X198803266Y-95117647D01*
X198717669Y-95074033D01*
X198625780Y-95027213D01*
X198436342Y-94965661D01*
X198288782Y-94942290D01*
X198239597Y-94934500D01*
X198040403Y-94934500D01*
X197974822Y-94944887D01*
X197843659Y-94965661D01*
X197843656Y-94965661D01*
X197654219Y-95027213D01*
X197476733Y-95117647D01*
X197436019Y-95147228D01*
X197315582Y-95234731D01*
X197315580Y-95234733D01*
X197315579Y-95234733D01*
X197174733Y-95375579D01*
X197174733Y-95375580D01*
X197174731Y-95375582D01*
X197157911Y-95398733D01*
X197089817Y-95492456D01*
X197034487Y-95535121D01*
X196964873Y-95541100D01*
X196903078Y-95508494D01*
X196868721Y-95447655D01*
X196865499Y-95419570D01*
X196865499Y-95387129D01*
X196865498Y-95387123D01*
X196865497Y-95387116D01*
X196859091Y-95327517D01*
X196824485Y-95234733D01*
X196808797Y-95192670D01*
X196808793Y-95192664D01*
X196722547Y-95077455D01*
X196722544Y-95077452D01*
X196607335Y-94991206D01*
X196607328Y-94991202D01*
X196472482Y-94940908D01*
X196472483Y-94940908D01*
X196412883Y-94934501D01*
X196412881Y-94934500D01*
X196412873Y-94934500D01*
X196412864Y-94934500D01*
X194787129Y-94934500D01*
X194787123Y-94934501D01*
X194727516Y-94940908D01*
X194592671Y-94991202D01*
X194592664Y-94991206D01*
X194477455Y-95077452D01*
X194477452Y-95077455D01*
X194391206Y-95192664D01*
X194391203Y-95192670D01*
X194340908Y-95327517D01*
X194335741Y-95375580D01*
X194334501Y-95387123D01*
X194334500Y-95387135D01*
X183532810Y-95387135D01*
X187233127Y-91686819D01*
X187294450Y-91653334D01*
X187320808Y-91650500D01*
X187825638Y-91650500D01*
X187892677Y-91670185D01*
X187913319Y-91686819D01*
X187925961Y-91699461D01*
X187925965Y-91699464D01*
X188073446Y-91798009D01*
X188073459Y-91798016D01*
X188149738Y-91829611D01*
X188237334Y-91865894D01*
X188237336Y-91865894D01*
X188237341Y-91865896D01*
X188411304Y-91900499D01*
X188411307Y-91900500D01*
X188411309Y-91900500D01*
X188588693Y-91900500D01*
X188588694Y-91900499D01*
X188658983Y-91886518D01*
X188762658Y-91865896D01*
X188762661Y-91865894D01*
X188762666Y-91865894D01*
X188922957Y-91799500D01*
X188926540Y-91798016D01*
X188926540Y-91798015D01*
X188926547Y-91798013D01*
X189074035Y-91699464D01*
X189199464Y-91574035D01*
X189247067Y-91502792D01*
X189300677Y-91457988D01*
X189370002Y-91449281D01*
X189386172Y-91453026D01*
X189387541Y-91453441D01*
X189387545Y-91453443D01*
X189387549Y-91453443D01*
X189387553Y-91453445D01*
X189551855Y-91486126D01*
X189551859Y-91486127D01*
X189551860Y-91486127D01*
X189719395Y-91486127D01*
X189719396Y-91486126D01*
X189883709Y-91453443D01*
X190038490Y-91389330D01*
X190177789Y-91296253D01*
X190296253Y-91177789D01*
X190389330Y-91038490D01*
X190453443Y-90883709D01*
X190486127Y-90719394D01*
X190486127Y-90551860D01*
X190453443Y-90387545D01*
X190389330Y-90232764D01*
X190341129Y-90160626D01*
X190296253Y-90093464D01*
X190177789Y-89975000D01*
X190038487Y-89881922D01*
X189883709Y-89817811D01*
X189883701Y-89817809D01*
X189713419Y-89783938D01*
X189713673Y-89782656D01*
X189655131Y-89759009D01*
X189644402Y-89749457D01*
X182914674Y-83019727D01*
X182914673Y-83019726D01*
X182914669Y-83019723D01*
X182808127Y-82948535D01*
X182730144Y-82916233D01*
X182689742Y-82899498D01*
X182689738Y-82899497D01*
X182617462Y-82885120D01*
X182570127Y-82864794D01*
X182561466Y-82858678D01*
X182542162Y-82839374D01*
X182402863Y-82746297D01*
X182401548Y-82745752D01*
X182394341Y-82740663D01*
X182377220Y-82719068D01*
X182357561Y-82699751D01*
X182355821Y-82692077D01*
X182350934Y-82685913D01*
X182348205Y-82658491D01*
X182342111Y-82631611D01*
X182344050Y-82616719D01*
X182344017Y-82616387D01*
X182344119Y-82616186D01*
X182344249Y-82615191D01*
X182350500Y-82583767D01*
X182350500Y-82416233D01*
X182344251Y-82384819D01*
X182346035Y-82364872D01*
X182342844Y-82345102D01*
X182349085Y-82330786D01*
X182350477Y-82315231D01*
X182362762Y-82299414D01*
X182370767Y-82281055D01*
X182387713Y-82267293D01*
X182393338Y-82260052D01*
X182397038Y-82257485D01*
X182402447Y-82253875D01*
X182402863Y-82253703D01*
X182526102Y-82171357D01*
X182560011Y-82160761D01*
X182592718Y-82150520D01*
X182592787Y-82150519D01*
X182592792Y-82150518D01*
X182592796Y-82150519D01*
X182594932Y-82150500D01*
X183518784Y-82150500D01*
X183585823Y-82170185D01*
X183606465Y-82186819D01*
X191866666Y-90447019D01*
X191900151Y-90508342D01*
X191895167Y-90578034D01*
X191882088Y-90603589D01*
X191848309Y-90654144D01*
X191848308Y-90654146D01*
X191784196Y-90808925D01*
X191784194Y-90808933D01*
X191751512Y-90973236D01*
X191751512Y-91140779D01*
X191784194Y-91305082D01*
X191784196Y-91305090D01*
X191848307Y-91459868D01*
X191941385Y-91599170D01*
X192059849Y-91717634D01*
X192113832Y-91753704D01*
X192199149Y-91810711D01*
X192199150Y-91810711D01*
X192199151Y-91810712D01*
X192234213Y-91825235D01*
X192353930Y-91874824D01*
X192518240Y-91907507D01*
X192518244Y-91907508D01*
X192518245Y-91907508D01*
X192685780Y-91907508D01*
X192685781Y-91907507D01*
X192850094Y-91874824D01*
X193004875Y-91810711D01*
X193144174Y-91717634D01*
X193262638Y-91599170D01*
X193355715Y-91459871D01*
X193419828Y-91305090D01*
X193452512Y-91140775D01*
X193452512Y-90973241D01*
X193419828Y-90808926D01*
X193373456Y-90696975D01*
X193365987Y-90627506D01*
X193397262Y-90565026D01*
X193457351Y-90529374D01*
X193527176Y-90531868D01*
X193556907Y-90546420D01*
X193668186Y-90620774D01*
X193668190Y-90620776D01*
X193795667Y-90673578D01*
X193795672Y-90673580D01*
X193901847Y-90694699D01*
X193946540Y-90713212D01*
X194073453Y-90798013D01*
X194073455Y-90798014D01*
X194073459Y-90798016D01*
X194188924Y-90845842D01*
X194237334Y-90865894D01*
X194237336Y-90865894D01*
X194237341Y-90865896D01*
X194411304Y-90900499D01*
X194411307Y-90900500D01*
X194411309Y-90900500D01*
X194588693Y-90900500D01*
X194588694Y-90900499D01*
X194673145Y-90883701D01*
X194762658Y-90865896D01*
X194762661Y-90865894D01*
X194762666Y-90865894D01*
X194926547Y-90798013D01*
X195074035Y-90699464D01*
X195199464Y-90574035D01*
X195298013Y-90426547D01*
X195365894Y-90262666D01*
X195369151Y-90246295D01*
X195397816Y-90102183D01*
X195400500Y-90088691D01*
X195400500Y-89911309D01*
X195400500Y-89911306D01*
X195400499Y-89911304D01*
X195365896Y-89737341D01*
X195365893Y-89737332D01*
X195298016Y-89573459D01*
X195298009Y-89573446D01*
X195199464Y-89425965D01*
X195199461Y-89425961D01*
X195074038Y-89300538D01*
X195074034Y-89300535D01*
X194926553Y-89201990D01*
X194926540Y-89201983D01*
X194762667Y-89134106D01*
X194762658Y-89134103D01*
X194588694Y-89099500D01*
X194588691Y-89099500D01*
X194411309Y-89099500D01*
X194411306Y-89099500D01*
X194237341Y-89134103D01*
X194237331Y-89134107D01*
X194234267Y-89135376D01*
X194232536Y-89135561D01*
X194231511Y-89135873D01*
X194231451Y-89135678D01*
X194164797Y-89142836D01*
X194102321Y-89111554D01*
X194099147Y-89108490D01*
X184946546Y-79955888D01*
X184946545Y-79955887D01*
X184831807Y-79879222D01*
X184704332Y-79826421D01*
X184704322Y-79826418D01*
X184568996Y-79799500D01*
X184568994Y-79799500D01*
X184568993Y-79799500D01*
X181494494Y-79799500D01*
X181356506Y-79799500D01*
X181356504Y-79799500D01*
X181221177Y-79826418D01*
X181221167Y-79826421D01*
X181093692Y-79879222D01*
X180978954Y-79955887D01*
X180978953Y-79955888D01*
X178918636Y-82016207D01*
X178746162Y-82188681D01*
X178684839Y-82222166D01*
X178658481Y-82225000D01*
X177376113Y-82225000D01*
X177328660Y-82215561D01*
X177290448Y-82199733D01*
X177248082Y-82182184D01*
X177248074Y-82182182D01*
X177083771Y-82149500D01*
X177083767Y-82149500D01*
X176916233Y-82149500D01*
X176916228Y-82149500D01*
X176751925Y-82182182D01*
X176751917Y-82182184D01*
X176597139Y-82246295D01*
X176457837Y-82339373D01*
X176339373Y-82457837D01*
X176246295Y-82597139D01*
X176182184Y-82751917D01*
X176182182Y-82751925D01*
X176149500Y-82916228D01*
X176149500Y-83083771D01*
X176182182Y-83248074D01*
X176182184Y-83248082D01*
X176246295Y-83402860D01*
X176339373Y-83542162D01*
X176457837Y-83660626D01*
X176526741Y-83706666D01*
X176597137Y-83753703D01*
X176751918Y-83817816D01*
X176808950Y-83829160D01*
X176870859Y-83861544D01*
X176872439Y-83863096D01*
X179073266Y-86063923D01*
X179106751Y-86125246D01*
X179107202Y-86127413D01*
X179134103Y-86262658D01*
X179134106Y-86262667D01*
X179201983Y-86426540D01*
X179201990Y-86426553D01*
X179300535Y-86574034D01*
X179300538Y-86574038D01*
X179425961Y-86699461D01*
X179425965Y-86699464D01*
X179573446Y-86798009D01*
X179573459Y-86798016D01*
X179644755Y-86827547D01*
X179737334Y-86865894D01*
X179872588Y-86892797D01*
X179934495Y-86925180D01*
X179936075Y-86926732D01*
X183636903Y-90627560D01*
X183670388Y-90688883D01*
X183670839Y-90691050D01*
X183682182Y-90748074D01*
X183682184Y-90748082D01*
X183746295Y-90902860D01*
X183839373Y-91042162D01*
X183957837Y-91160626D01*
X184019733Y-91201983D01*
X184097137Y-91253703D01*
X184251918Y-91317816D01*
X184416228Y-91350499D01*
X184416232Y-91350500D01*
X184416233Y-91350500D01*
X184583768Y-91350500D01*
X184583769Y-91350499D01*
X184748082Y-91317816D01*
X184902863Y-91253703D01*
X185042162Y-91160626D01*
X185160626Y-91042162D01*
X185253703Y-90902863D01*
X185317816Y-90748082D01*
X185350500Y-90583767D01*
X185350500Y-90416233D01*
X185317816Y-90251918D01*
X185253703Y-90097137D01*
X185203238Y-90021611D01*
X185160626Y-89957837D01*
X185042162Y-89839373D01*
X184902860Y-89746295D01*
X184748082Y-89682184D01*
X184748074Y-89682182D01*
X184691050Y-89670839D01*
X184629139Y-89638454D01*
X184627560Y-89636903D01*
X180926732Y-85936075D01*
X180893247Y-85874752D01*
X180892826Y-85872735D01*
X180865894Y-85737334D01*
X180834121Y-85660626D01*
X180798016Y-85573459D01*
X180798009Y-85573446D01*
X180699464Y-85425965D01*
X180699461Y-85425961D01*
X180574038Y-85300538D01*
X180574034Y-85300535D01*
X180426553Y-85201990D01*
X180426540Y-85201983D01*
X180262667Y-85134106D01*
X180262658Y-85134103D01*
X180127413Y-85107202D01*
X180065502Y-85074817D01*
X180063923Y-85073266D01*
X178828338Y-83837681D01*
X178794853Y-83776358D01*
X178799837Y-83706666D01*
X178841709Y-83650733D01*
X178907173Y-83626316D01*
X178916019Y-83626000D01*
X179068996Y-83626000D01*
X179160040Y-83607889D01*
X179204328Y-83599080D01*
X179268069Y-83572677D01*
X179331807Y-83546277D01*
X179331808Y-83546276D01*
X179331811Y-83546275D01*
X179446543Y-83469614D01*
X179679338Y-83236819D01*
X179740661Y-83203334D01*
X179767019Y-83200500D01*
X180979898Y-83200500D01*
X180997961Y-83205804D01*
X181016786Y-83206114D01*
X181045151Y-83219660D01*
X181046937Y-83220185D01*
X181048645Y-83221302D01*
X181097137Y-83253703D01*
X181097523Y-83253863D01*
X181102878Y-83257430D01*
X181121607Y-83279776D01*
X181142411Y-83300201D01*
X181143781Y-83306234D01*
X181147758Y-83310979D01*
X181151432Y-83339908D01*
X181157891Y-83368335D01*
X181156450Y-83379414D01*
X181156562Y-83380292D01*
X181156251Y-83380942D01*
X181155748Y-83384819D01*
X181149500Y-83416228D01*
X181149500Y-83583771D01*
X181182182Y-83748074D01*
X181182184Y-83748082D01*
X181246295Y-83902860D01*
X181339373Y-84042162D01*
X181457837Y-84160626D01*
X181539486Y-84215182D01*
X181597137Y-84253703D01*
X181751918Y-84317816D01*
X181916228Y-84350499D01*
X181916232Y-84350500D01*
X181916233Y-84350500D01*
X182083768Y-84350500D01*
X182083769Y-84350499D01*
X182248082Y-84317816D01*
X182259774Y-84312972D01*
X182329241Y-84305504D01*
X182391721Y-84336778D01*
X182394907Y-84339853D01*
X188076666Y-90021611D01*
X188085914Y-90038549D01*
X188099226Y-90052522D01*
X188102313Y-90068580D01*
X188110151Y-90082934D01*
X188108774Y-90102183D01*
X188112418Y-90121135D01*
X188106333Y-90136313D01*
X188105167Y-90152626D01*
X188093601Y-90168075D01*
X188086421Y-90185988D01*
X188066161Y-90204730D01*
X188063295Y-90208559D01*
X188060867Y-90210332D01*
X188059369Y-90211397D01*
X187925965Y-90300536D01*
X187905978Y-90320522D01*
X187897520Y-90326540D01*
X187873913Y-90334698D01*
X187851996Y-90346666D01*
X187833541Y-90348650D01*
X187831482Y-90349362D01*
X187830083Y-90349022D01*
X187825638Y-90349500D01*
X186935929Y-90349500D01*
X186810261Y-90374497D01*
X186810255Y-90374499D01*
X186691874Y-90423534D01*
X186585326Y-90494726D01*
X186585325Y-90494727D01*
X174512181Y-102567872D01*
X174450858Y-102601357D01*
X174381166Y-102596373D01*
X174325233Y-102554501D01*
X174300816Y-102489037D01*
X174300500Y-102480191D01*
X174300500Y-99158796D01*
X174295589Y-99134112D01*
X174295589Y-99134107D01*
X174281481Y-99063181D01*
X174276463Y-99037954D01*
X174229312Y-98924120D01*
X174229309Y-98924115D01*
X174216134Y-98904398D01*
X174216132Y-98904395D01*
X174212256Y-98898595D01*
X174160858Y-98821672D01*
X174073733Y-98734547D01*
X174073729Y-98734544D01*
X167444793Y-92105608D01*
X167444773Y-92105586D01*
X167353328Y-92014141D01*
X167307989Y-91983847D01*
X167307987Y-91983846D01*
X167302104Y-91979915D01*
X167250881Y-91945688D01*
X167167881Y-91911309D01*
X167158705Y-91907508D01*
X167137048Y-91898537D01*
X167127022Y-91896543D01*
X167076624Y-91886518D01*
X167016205Y-91874500D01*
X167016202Y-91874500D01*
X167016201Y-91874500D01*
X147699361Y-91874500D01*
X147632322Y-91854815D01*
X147611679Y-91838180D01*
X147574038Y-91800538D01*
X147574034Y-91800535D01*
X147426553Y-91701990D01*
X147426540Y-91701983D01*
X147262667Y-91634106D01*
X147262658Y-91634103D01*
X147088694Y-91599500D01*
X147088691Y-91599500D01*
X146911309Y-91599500D01*
X146911304Y-91599500D01*
X146798691Y-91621900D01*
X146729099Y-91615673D01*
X146673922Y-91572809D01*
X146650678Y-91506920D01*
X146650500Y-91500283D01*
X146650500Y-90594931D01*
X146670185Y-90527892D01*
X146671398Y-90526040D01*
X146678878Y-90514846D01*
X146753703Y-90402863D01*
X146817816Y-90248082D01*
X146850500Y-90083767D01*
X146850500Y-89916233D01*
X146817816Y-89751918D01*
X146753703Y-89597137D01*
X146722537Y-89550494D01*
X146660626Y-89457837D01*
X146542162Y-89339373D01*
X146402860Y-89246295D01*
X146248082Y-89182184D01*
X146248074Y-89182182D01*
X146083771Y-89149500D01*
X146083767Y-89149500D01*
X145916233Y-89149500D01*
X145916228Y-89149500D01*
X145751925Y-89182182D01*
X145751917Y-89182184D01*
X145597139Y-89246295D01*
X145457837Y-89339373D01*
X145339373Y-89457837D01*
X145246295Y-89597139D01*
X145182184Y-89751917D01*
X145182182Y-89751925D01*
X145149500Y-89916228D01*
X145149500Y-90083771D01*
X145182182Y-90248074D01*
X145182184Y-90248082D01*
X145246295Y-90402860D01*
X145328602Y-90526040D01*
X145349480Y-90592717D01*
X145349500Y-90594931D01*
X145349500Y-91776638D01*
X145329815Y-91843677D01*
X145277011Y-91889432D01*
X145207853Y-91899376D01*
X145144297Y-91870351D01*
X145137819Y-91864319D01*
X145074038Y-91800538D01*
X145074034Y-91800535D01*
X144926553Y-91701990D01*
X144926540Y-91701983D01*
X144762667Y-91634106D01*
X144762658Y-91634103D01*
X144588694Y-91599500D01*
X144588691Y-91599500D01*
X144411309Y-91599500D01*
X144411306Y-91599500D01*
X144237341Y-91634103D01*
X144237332Y-91634106D01*
X144073459Y-91701983D01*
X144073446Y-91701990D01*
X143925965Y-91800535D01*
X143925961Y-91800538D01*
X143888321Y-91838180D01*
X143826999Y-91871666D01*
X143800639Y-91874500D01*
X138994942Y-91874500D01*
X138927903Y-91854815D01*
X138882148Y-91802011D01*
X138873325Y-91774694D01*
X138865894Y-91737334D01*
X138834121Y-91660626D01*
X138798016Y-91573459D01*
X138798009Y-91573446D01*
X138699464Y-91425965D01*
X138699461Y-91425961D01*
X138574038Y-91300538D01*
X138574034Y-91300535D01*
X138426553Y-91201990D01*
X138426540Y-91201983D01*
X138262667Y-91134106D01*
X138262658Y-91134103D01*
X138088694Y-91099500D01*
X138088691Y-91099500D01*
X137911309Y-91099500D01*
X137911306Y-91099500D01*
X137737341Y-91134103D01*
X137737332Y-91134106D01*
X137573459Y-91201983D01*
X137573446Y-91201990D01*
X137425965Y-91300535D01*
X137425961Y-91300538D01*
X137300538Y-91425961D01*
X137300535Y-91425965D01*
X137201990Y-91573446D01*
X137201983Y-91573459D01*
X137134106Y-91737332D01*
X137134103Y-91737341D01*
X137099500Y-91911304D01*
X137099500Y-92088695D01*
X137134103Y-92262658D01*
X137134106Y-92262667D01*
X137201983Y-92426540D01*
X137201990Y-92426553D01*
X137300535Y-92574034D01*
X137300538Y-92574038D01*
X137425961Y-92699461D01*
X137425965Y-92699464D01*
X137573446Y-92798009D01*
X137573459Y-92798016D01*
X137678482Y-92841517D01*
X137737334Y-92865894D01*
X137737336Y-92865894D01*
X137737341Y-92865896D01*
X137911304Y-92900499D01*
X137911307Y-92900500D01*
X137911309Y-92900500D01*
X137964547Y-92900500D01*
X137987659Y-92907286D01*
X138011619Y-92909782D01*
X138023817Y-92917904D01*
X138031586Y-92920185D01*
X138042032Y-92927691D01*
X138047382Y-92931973D01*
X138101267Y-92985858D01*
X138178190Y-93037256D01*
X138182625Y-93040220D01*
X138182627Y-93040221D01*
X138203710Y-93054309D01*
X138203712Y-93054310D01*
X138203715Y-93054312D01*
X138270396Y-93081931D01*
X138270398Y-93081933D01*
X138310640Y-93098601D01*
X138317548Y-93101463D01*
X138377971Y-93113481D01*
X138438393Y-93125500D01*
X138438394Y-93125500D01*
X143800639Y-93125500D01*
X143830079Y-93134144D01*
X143860066Y-93140668D01*
X143865081Y-93144422D01*
X143867678Y-93145185D01*
X143888320Y-93161819D01*
X143888819Y-93162318D01*
X143922304Y-93223641D01*
X143917320Y-93293333D01*
X143888820Y-93337680D01*
X143800535Y-93425965D01*
X143701990Y-93573446D01*
X143701983Y-93573459D01*
X143634106Y-93737332D01*
X143634103Y-93737341D01*
X143599500Y-93911304D01*
X143599500Y-94088695D01*
X143634103Y-94262658D01*
X143634106Y-94262667D01*
X143701983Y-94426540D01*
X143701990Y-94426553D01*
X143800535Y-94574034D01*
X143800538Y-94574038D01*
X143838180Y-94611679D01*
X143871666Y-94673001D01*
X143874500Y-94699361D01*
X143874500Y-95689547D01*
X143854815Y-95756586D01*
X143838181Y-95777228D01*
X143552229Y-96063181D01*
X143490906Y-96096666D01*
X143464548Y-96099500D01*
X143411306Y-96099500D01*
X143237341Y-96134103D01*
X143237332Y-96134106D01*
X143073459Y-96201983D01*
X143073446Y-96201990D01*
X142925965Y-96300535D01*
X142925961Y-96300538D01*
X142800538Y-96425961D01*
X142800535Y-96425965D01*
X142701990Y-96573446D01*
X142701983Y-96573459D01*
X142634106Y-96737332D01*
X142634103Y-96737341D01*
X142599500Y-96911304D01*
X142599500Y-97088695D01*
X142634103Y-97262658D01*
X142634106Y-97262667D01*
X142701983Y-97426540D01*
X142701990Y-97426553D01*
X142800535Y-97574034D01*
X142800538Y-97574038D01*
X142925961Y-97699461D01*
X142925965Y-97699464D01*
X143073446Y-97798009D01*
X143073459Y-97798016D01*
X143173306Y-97839373D01*
X143237334Y-97865894D01*
X143237336Y-97865894D01*
X143237341Y-97865896D01*
X143411304Y-97900499D01*
X143411307Y-97900500D01*
X143411309Y-97900500D01*
X143588693Y-97900500D01*
X143588694Y-97900499D01*
X143646682Y-97888964D01*
X143762658Y-97865896D01*
X143762661Y-97865894D01*
X143762666Y-97865894D01*
X143926547Y-97798013D01*
X144074035Y-97699464D01*
X144199464Y-97574035D01*
X144298013Y-97426547D01*
X144365894Y-97262666D01*
X144371036Y-97236819D01*
X144400499Y-97088695D01*
X144400500Y-97088693D01*
X144400500Y-97035452D01*
X144420185Y-96968413D01*
X144436819Y-96947771D01*
X144698808Y-96685783D01*
X144985858Y-96398733D01*
X145054312Y-96296285D01*
X145101463Y-96182451D01*
X145103883Y-96170287D01*
X145136267Y-96108376D01*
X145196983Y-96073802D01*
X145266752Y-96077541D01*
X145323425Y-96118407D01*
X145349006Y-96183425D01*
X145349500Y-96194478D01*
X145349500Y-100640243D01*
X145329815Y-100707282D01*
X145277011Y-100753037D01*
X145207853Y-100762981D01*
X145144297Y-100733956D01*
X145137819Y-100727924D01*
X141436819Y-97026924D01*
X141403334Y-96965601D01*
X141400500Y-96939243D01*
X141400500Y-96911306D01*
X141400499Y-96911304D01*
X141365896Y-96737341D01*
X141365893Y-96737332D01*
X141298016Y-96573459D01*
X141298009Y-96573446D01*
X141199464Y-96425965D01*
X141199461Y-96425961D01*
X141074038Y-96300538D01*
X141074034Y-96300535D01*
X140926553Y-96201990D01*
X140926540Y-96201983D01*
X140762667Y-96134106D01*
X140762658Y-96134103D01*
X140588694Y-96099500D01*
X140588691Y-96099500D01*
X140411309Y-96099500D01*
X140411306Y-96099500D01*
X140237341Y-96134103D01*
X140237332Y-96134106D01*
X140073459Y-96201983D01*
X140073446Y-96201990D01*
X139925965Y-96300535D01*
X139925961Y-96300538D01*
X139800538Y-96425961D01*
X139800535Y-96425965D01*
X139701990Y-96573446D01*
X139701983Y-96573459D01*
X139634106Y-96737332D01*
X139634103Y-96737341D01*
X139599500Y-96911304D01*
X139599500Y-96915547D01*
X139579815Y-96982586D01*
X139527011Y-97028341D01*
X139457853Y-97038285D01*
X139394297Y-97009260D01*
X139387819Y-97003228D01*
X137360443Y-94975852D01*
X137326958Y-94914529D01*
X137331942Y-94844837D01*
X137333553Y-94840742D01*
X137365894Y-94762666D01*
X137400500Y-94588691D01*
X137400500Y-94411309D01*
X137400500Y-94411306D01*
X137400499Y-94411304D01*
X137365896Y-94237341D01*
X137365893Y-94237332D01*
X137298016Y-94073459D01*
X137298009Y-94073446D01*
X137199464Y-93925965D01*
X137199461Y-93925961D01*
X137074038Y-93800538D01*
X137074034Y-93800535D01*
X136926553Y-93701990D01*
X136926540Y-93701983D01*
X136762667Y-93634106D01*
X136762658Y-93634103D01*
X136588694Y-93599500D01*
X136588691Y-93599500D01*
X136411309Y-93599500D01*
X136411306Y-93599500D01*
X136237341Y-93634103D01*
X136237332Y-93634106D01*
X136073459Y-93701983D01*
X136073446Y-93701990D01*
X135925965Y-93800535D01*
X135925961Y-93800538D01*
X135800538Y-93925961D01*
X135800535Y-93925965D01*
X135701990Y-94073446D01*
X135701983Y-94073459D01*
X135634106Y-94237332D01*
X135634103Y-94237341D01*
X135599500Y-94411304D01*
X135599500Y-94588695D01*
X135634103Y-94762658D01*
X135634106Y-94762667D01*
X135701983Y-94926540D01*
X135701990Y-94926553D01*
X135800534Y-95074033D01*
X135800535Y-95074034D01*
X135800536Y-95074035D01*
X135873732Y-95147231D01*
X135878362Y-95154160D01*
X135882599Y-95157102D01*
X135900609Y-95187455D01*
X135902768Y-95192667D01*
X135902769Y-95192670D01*
X135945685Y-95296281D01*
X135945687Y-95296284D01*
X135966557Y-95327517D01*
X135966558Y-95327519D01*
X136014140Y-95398731D01*
X136014141Y-95398732D01*
X136014142Y-95398733D01*
X136101267Y-95485858D01*
X136101268Y-95485858D01*
X136108335Y-95492925D01*
X136108334Y-95492925D01*
X136108337Y-95492927D01*
X139027729Y-98412320D01*
X139061213Y-98473641D01*
X139056229Y-98543333D01*
X139027728Y-98587680D01*
X138297594Y-99317815D01*
X137601270Y-100014139D01*
X137601267Y-100014142D01*
X137557703Y-100057706D01*
X137514139Y-100101269D01*
X137514138Y-100101271D01*
X137486106Y-100143224D01*
X137486101Y-100143232D01*
X137481914Y-100149500D01*
X137445688Y-100203714D01*
X137421270Y-100262666D01*
X137402440Y-100308127D01*
X137400664Y-100312413D01*
X137400657Y-100312428D01*
X137398539Y-100317541D01*
X137398537Y-100317546D01*
X137387774Y-100371659D01*
X137376859Y-100426540D01*
X137375972Y-100430998D01*
X137375970Y-100431006D01*
X137374501Y-100438388D01*
X137374500Y-100438399D01*
X137374500Y-113061610D01*
X137398535Y-113182444D01*
X137398537Y-113182452D01*
X137412347Y-113215792D01*
X137445688Y-113296286D01*
X137479915Y-113347509D01*
X137483802Y-113353326D01*
X137483803Y-113353328D01*
X137514141Y-113398733D01*
X137605586Y-113490178D01*
X137605608Y-113490198D01*
X141511016Y-117395606D01*
X141511045Y-117395637D01*
X141601263Y-117485855D01*
X141601267Y-117485858D01*
X141703707Y-117554307D01*
X141703713Y-117554310D01*
X141703714Y-117554311D01*
X141817548Y-117601463D01*
X141877971Y-117613481D01*
X141938393Y-117625500D01*
X141938394Y-117625500D01*
X151300639Y-117625500D01*
X151322336Y-117631871D01*
X151344884Y-117633662D01*
X151358504Y-117642491D01*
X151367678Y-117645185D01*
X151375727Y-117650820D01*
X151382394Y-117655893D01*
X151425965Y-117699464D01*
X151538276Y-117774508D01*
X151541314Y-117776820D01*
X151559860Y-117802005D01*
X151579922Y-117826010D01*
X151580412Y-117829913D01*
X151582745Y-117833081D01*
X151584731Y-117864299D01*
X151588629Y-117895335D01*
X151586931Y-117898883D01*
X151587181Y-117902810D01*
X151571973Y-117930147D01*
X151558474Y-117958363D01*
X151555127Y-117960430D01*
X151553215Y-117963868D01*
X151525641Y-117978644D01*
X151499031Y-117995082D01*
X151493603Y-117995812D01*
X151491631Y-117996870D01*
X151487934Y-117996576D01*
X151466226Y-117999500D01*
X139533774Y-117999500D01*
X139466735Y-117979815D01*
X139420980Y-117927011D01*
X139411036Y-117857853D01*
X139440061Y-117794297D01*
X139464883Y-117772398D01*
X139521371Y-117734653D01*
X139574035Y-117699464D01*
X139699464Y-117574035D01*
X139798013Y-117426547D01*
X139865894Y-117262666D01*
X139879373Y-117194906D01*
X139900499Y-117088695D01*
X139900500Y-117088693D01*
X139900500Y-116911306D01*
X139900499Y-116911304D01*
X139865896Y-116737341D01*
X139865893Y-116737332D01*
X139798016Y-116573459D01*
X139798009Y-116573446D01*
X139699464Y-116425965D01*
X139699461Y-116425961D01*
X139574038Y-116300538D01*
X139574034Y-116300535D01*
X139426553Y-116201990D01*
X139426540Y-116201983D01*
X139262667Y-116134106D01*
X139262658Y-116134103D01*
X139088694Y-116099500D01*
X139088691Y-116099500D01*
X138911309Y-116099500D01*
X138911306Y-116099500D01*
X138737341Y-116134103D01*
X138737332Y-116134106D01*
X138573459Y-116201983D01*
X138573446Y-116201990D01*
X138425965Y-116300535D01*
X138425961Y-116300538D01*
X138300535Y-116425964D01*
X138254815Y-116494391D01*
X138201203Y-116539196D01*
X138151713Y-116549500D01*
X103740519Y-116549500D01*
X103673480Y-116529815D01*
X103627725Y-116477011D01*
X103617781Y-116407853D01*
X103646806Y-116344297D01*
X103652838Y-116337819D01*
X106753838Y-113236819D01*
X106815161Y-113203334D01*
X106841519Y-113200500D01*
X118979898Y-113200500D01*
X119046937Y-113220185D01*
X119048789Y-113221398D01*
X119097131Y-113253699D01*
X119097137Y-113253703D01*
X119251918Y-113317816D01*
X119401196Y-113347509D01*
X119416228Y-113350499D01*
X119416232Y-113350500D01*
X119416233Y-113350500D01*
X119583768Y-113350500D01*
X119583769Y-113350499D01*
X119748082Y-113317816D01*
X119902863Y-113253703D01*
X120042162Y-113160626D01*
X120160626Y-113042162D01*
X120253703Y-112902863D01*
X120317816Y-112748082D01*
X120350500Y-112583767D01*
X120350500Y-112416233D01*
X120317816Y-112251918D01*
X120253703Y-112097137D01*
X120222537Y-112050494D01*
X120160626Y-111957837D01*
X120042162Y-111839373D01*
X119902860Y-111746295D01*
X119748082Y-111682184D01*
X119748074Y-111682182D01*
X119583771Y-111649500D01*
X119583767Y-111649500D01*
X119416233Y-111649500D01*
X119416228Y-111649500D01*
X119251925Y-111682182D01*
X119251917Y-111682184D01*
X119097140Y-111746295D01*
X119097131Y-111746300D01*
X119048789Y-111778602D01*
X118982112Y-111799480D01*
X118979898Y-111799500D01*
X106431003Y-111799500D01*
X106322590Y-111821065D01*
X106322589Y-111821065D01*
X106295671Y-111826420D01*
X106168190Y-111879224D01*
X106053454Y-111955887D01*
X102372438Y-115636903D01*
X102311115Y-115670388D01*
X102308949Y-115670839D01*
X102251923Y-115682182D01*
X102251917Y-115682184D01*
X102097139Y-115746295D01*
X101957837Y-115839373D01*
X101839373Y-115957837D01*
X101746295Y-116097139D01*
X101682184Y-116251917D01*
X101682182Y-116251925D01*
X101649500Y-116416228D01*
X101649500Y-116425500D01*
X101629815Y-116492539D01*
X101577011Y-116538294D01*
X101525500Y-116549500D01*
X74985454Y-116549500D01*
X74918415Y-116529815D01*
X74914001Y-116526843D01*
X74905297Y-116520706D01*
X74898733Y-116514142D01*
X74847509Y-116479915D01*
X74846233Y-116479063D01*
X74846224Y-116479056D01*
X74820125Y-116461617D01*
X74796286Y-116445688D01*
X74710698Y-116410237D01*
X74682452Y-116398537D01*
X74622029Y-116386518D01*
X74617654Y-116385647D01*
X74617644Y-116385645D01*
X74561610Y-116374500D01*
X74561607Y-116374500D01*
X74561606Y-116374500D01*
X74249500Y-116374500D01*
X74182461Y-116354815D01*
X74136706Y-116302011D01*
X74125500Y-116250500D01*
X74125500Y-111916228D01*
X101649500Y-111916228D01*
X101649500Y-112083771D01*
X101682182Y-112248074D01*
X101682184Y-112248082D01*
X101746295Y-112402860D01*
X101839373Y-112542162D01*
X101957837Y-112660626D01*
X102019733Y-112701983D01*
X102097137Y-112753703D01*
X102251918Y-112817816D01*
X102354296Y-112838180D01*
X102416228Y-112850499D01*
X102416232Y-112850500D01*
X102416233Y-112850500D01*
X102583768Y-112850500D01*
X102583769Y-112850499D01*
X102748082Y-112817816D01*
X102902863Y-112753703D01*
X103042162Y-112660626D01*
X103160626Y-112542162D01*
X103253703Y-112402863D01*
X103317816Y-112248082D01*
X103329160Y-112191046D01*
X103361544Y-112129139D01*
X103363040Y-112127615D01*
X104079351Y-111411304D01*
X132599500Y-111411304D01*
X132599500Y-111588695D01*
X132634103Y-111762658D01*
X132634106Y-111762667D01*
X132701983Y-111926540D01*
X132701990Y-111926553D01*
X132800535Y-112074034D01*
X132800538Y-112074038D01*
X132925961Y-112199461D01*
X132925965Y-112199464D01*
X133073446Y-112298009D01*
X133073459Y-112298016D01*
X133196363Y-112348923D01*
X133237334Y-112365894D01*
X133237336Y-112365894D01*
X133237341Y-112365896D01*
X133411304Y-112400499D01*
X133411307Y-112400500D01*
X133411309Y-112400500D01*
X133588693Y-112400500D01*
X133588694Y-112400499D01*
X133681953Y-112381949D01*
X133762658Y-112365896D01*
X133762661Y-112365894D01*
X133762666Y-112365894D01*
X133902535Y-112307958D01*
X133926540Y-112298016D01*
X133926540Y-112298015D01*
X133926547Y-112298013D01*
X134074035Y-112199464D01*
X134199464Y-112074035D01*
X134298013Y-111926547D01*
X134365894Y-111762666D01*
X134369150Y-111746300D01*
X134388964Y-111646682D01*
X134400500Y-111588691D01*
X134400500Y-111411309D01*
X134400500Y-111411306D01*
X134400499Y-111411304D01*
X134365896Y-111237341D01*
X134365893Y-111237332D01*
X134298016Y-111073459D01*
X134298009Y-111073446D01*
X134199464Y-110925965D01*
X134199461Y-110925961D01*
X134161819Y-110888319D01*
X134128334Y-110826996D01*
X134125500Y-110800638D01*
X134125500Y-79310452D01*
X134145185Y-79243413D01*
X134161819Y-79222771D01*
X135722771Y-77661819D01*
X135784094Y-77628334D01*
X135810452Y-77625500D01*
X137189548Y-77625500D01*
X137256587Y-77645185D01*
X137277229Y-77661819D01*
X137563181Y-77947771D01*
X137596666Y-78009094D01*
X137599500Y-78035452D01*
X137599500Y-78088695D01*
X137634103Y-78262658D01*
X137634106Y-78262667D01*
X137701983Y-78426540D01*
X137701990Y-78426553D01*
X137800535Y-78574034D01*
X137800538Y-78574038D01*
X137925961Y-78699461D01*
X137925965Y-78699464D01*
X138073446Y-78798009D01*
X138073459Y-78798016D01*
X138133495Y-78822883D01*
X138237334Y-78865894D01*
X138237336Y-78865894D01*
X138237341Y-78865896D01*
X138411304Y-78900499D01*
X138411307Y-78900500D01*
X138411309Y-78900500D01*
X138588693Y-78900500D01*
X138588694Y-78900499D01*
X138646682Y-78888964D01*
X138762658Y-78865896D01*
X138762661Y-78865894D01*
X138762666Y-78865894D01*
X138926547Y-78798013D01*
X139074035Y-78699464D01*
X139199464Y-78574035D01*
X139298013Y-78426547D01*
X139303788Y-78412606D01*
X139327599Y-78355119D01*
X139365894Y-78262666D01*
X139400500Y-78088691D01*
X139400500Y-77911309D01*
X139400500Y-77911306D01*
X139400499Y-77911304D01*
X139365896Y-77737341D01*
X139365893Y-77737332D01*
X139298016Y-77573459D01*
X139298009Y-77573446D01*
X139199464Y-77425965D01*
X139199461Y-77425961D01*
X139074038Y-77300538D01*
X139074034Y-77300535D01*
X138926553Y-77201990D01*
X138926540Y-77201983D01*
X138762667Y-77134106D01*
X138762658Y-77134103D01*
X138588694Y-77099500D01*
X138588691Y-77099500D01*
X138535453Y-77099500D01*
X138468414Y-77079815D01*
X138447772Y-77063181D01*
X137996073Y-76611483D01*
X137985859Y-76601269D01*
X137985858Y-76601267D01*
X137898733Y-76514142D01*
X137839405Y-76474500D01*
X137796286Y-76445688D01*
X137715792Y-76412347D01*
X137682452Y-76398537D01*
X137622029Y-76386518D01*
X137617306Y-76385578D01*
X137617304Y-76385578D01*
X137561610Y-76374500D01*
X137561607Y-76374500D01*
X137561606Y-76374500D01*
X135561607Y-76374500D01*
X135438393Y-76374500D01*
X135438389Y-76374500D01*
X135382697Y-76385578D01*
X135377971Y-76386518D01*
X135340259Y-76394019D01*
X135317550Y-76398536D01*
X135317548Y-76398537D01*
X135284207Y-76412347D01*
X135203718Y-76445685D01*
X135203709Y-76445690D01*
X135166871Y-76470305D01*
X135166863Y-76470311D01*
X135160595Y-76474500D01*
X135101267Y-76514142D01*
X135014142Y-76601267D01*
X135014139Y-76601270D01*
X135010858Y-76604550D01*
X135010851Y-76604557D01*
X134041963Y-77573446D01*
X133101270Y-78514139D01*
X133101267Y-78514142D01*
X133057704Y-78557704D01*
X133014142Y-78601266D01*
X132981247Y-78650498D01*
X132981246Y-78650500D01*
X132945688Y-78703713D01*
X132921561Y-78761960D01*
X132921562Y-78761961D01*
X132898536Y-78817549D01*
X132898535Y-78817555D01*
X132874500Y-78938389D01*
X132874500Y-110800638D01*
X132854815Y-110867677D01*
X132838181Y-110888319D01*
X132800538Y-110925961D01*
X132800535Y-110925965D01*
X132701990Y-111073446D01*
X132701983Y-111073459D01*
X132634106Y-111237332D01*
X132634103Y-111237341D01*
X132599500Y-111411304D01*
X104079351Y-111411304D01*
X106253837Y-109236819D01*
X106315160Y-109203334D01*
X106341518Y-109200500D01*
X118979898Y-109200500D01*
X119046937Y-109220185D01*
X119048789Y-109221398D01*
X119097137Y-109253703D01*
X119251918Y-109317816D01*
X119416228Y-109350499D01*
X119416232Y-109350500D01*
X119416233Y-109350500D01*
X119583768Y-109350500D01*
X119583769Y-109350499D01*
X119748082Y-109317816D01*
X119902863Y-109253703D01*
X120042162Y-109160626D01*
X120160626Y-109042162D01*
X120253703Y-108902863D01*
X120317816Y-108748082D01*
X120350500Y-108583767D01*
X120350500Y-108416233D01*
X120317816Y-108251918D01*
X120253703Y-108097137D01*
X120216970Y-108042162D01*
X120160626Y-107957837D01*
X120042162Y-107839373D01*
X119902860Y-107746295D01*
X119748082Y-107682184D01*
X119748074Y-107682182D01*
X119583771Y-107649500D01*
X119583767Y-107649500D01*
X119416233Y-107649500D01*
X119416228Y-107649500D01*
X119251925Y-107682182D01*
X119251917Y-107682184D01*
X119097140Y-107746295D01*
X119097131Y-107746300D01*
X119048789Y-107778602D01*
X118982112Y-107799480D01*
X118979898Y-107799500D01*
X105931005Y-107799500D01*
X105859706Y-107813682D01*
X105824056Y-107820774D01*
X105795671Y-107826420D01*
X105795666Y-107826421D01*
X105764396Y-107839373D01*
X105764397Y-107839374D01*
X105668191Y-107879223D01*
X105567445Y-107946539D01*
X105567446Y-107946540D01*
X105553453Y-107955889D01*
X105553451Y-107955891D01*
X102372438Y-111136903D01*
X102311115Y-111170388D01*
X102308949Y-111170839D01*
X102251923Y-111182182D01*
X102251917Y-111182184D01*
X102097139Y-111246295D01*
X101957837Y-111339373D01*
X101839373Y-111457837D01*
X101746295Y-111597139D01*
X101682184Y-111751917D01*
X101682182Y-111751925D01*
X101649500Y-111916228D01*
X74125500Y-111916228D01*
X74125500Y-101249500D01*
X74145185Y-101182461D01*
X74197989Y-101136706D01*
X74249500Y-101125500D01*
X88760500Y-101125500D01*
X88827539Y-101145185D01*
X88873294Y-101197989D01*
X88884500Y-101249500D01*
X88884500Y-102586727D01*
X88864815Y-102653766D01*
X88816796Y-102697211D01*
X88736670Y-102738037D01*
X88548773Y-102874553D01*
X88384553Y-103038773D01*
X88384553Y-103038774D01*
X88384551Y-103038776D01*
X88348283Y-103088695D01*
X88340318Y-103099658D01*
X88284988Y-103142323D01*
X88215374Y-103148302D01*
X88153579Y-103115696D01*
X88139682Y-103099658D01*
X88131717Y-103088695D01*
X88095449Y-103038776D01*
X87931224Y-102874551D01*
X87743331Y-102738039D01*
X87672807Y-102702105D01*
X87536400Y-102632601D01*
X87315514Y-102560831D01*
X87086129Y-102524500D01*
X87086124Y-102524500D01*
X86853876Y-102524500D01*
X86853871Y-102524500D01*
X86624485Y-102560831D01*
X86403599Y-102632601D01*
X86196668Y-102738039D01*
X86008773Y-102874553D01*
X85844553Y-103038773D01*
X85844553Y-103038774D01*
X85844551Y-103038776D01*
X85808283Y-103088695D01*
X85800318Y-103099658D01*
X85744988Y-103142323D01*
X85675374Y-103148302D01*
X85613579Y-103115696D01*
X85599682Y-103099658D01*
X85591717Y-103088695D01*
X85555449Y-103038776D01*
X85391224Y-102874551D01*
X85203331Y-102738039D01*
X85132807Y-102702105D01*
X84996400Y-102632601D01*
X84775514Y-102560831D01*
X84546129Y-102524500D01*
X84546124Y-102524500D01*
X84313876Y-102524500D01*
X84313871Y-102524500D01*
X84084485Y-102560831D01*
X83863599Y-102632601D01*
X83656668Y-102738039D01*
X83468773Y-102874553D01*
X83304553Y-103038773D01*
X83304553Y-103038774D01*
X83304551Y-103038776D01*
X83268283Y-103088695D01*
X83260318Y-103099658D01*
X83204988Y-103142323D01*
X83135374Y-103148302D01*
X83073579Y-103115696D01*
X83059682Y-103099658D01*
X83051717Y-103088695D01*
X83015449Y-103038776D01*
X82851224Y-102874551D01*
X82663331Y-102738039D01*
X82592807Y-102702105D01*
X82456400Y-102632601D01*
X82235514Y-102560831D01*
X82006129Y-102524500D01*
X82006124Y-102524500D01*
X81773876Y-102524500D01*
X81773871Y-102524500D01*
X81544485Y-102560831D01*
X81323599Y-102632601D01*
X81116668Y-102738039D01*
X80928773Y-102874553D01*
X80764553Y-103038773D01*
X80764553Y-103038774D01*
X80764551Y-103038776D01*
X80728283Y-103088695D01*
X80720318Y-103099658D01*
X80664988Y-103142323D01*
X80595374Y-103148302D01*
X80533579Y-103115696D01*
X80519682Y-103099658D01*
X80511717Y-103088695D01*
X80475449Y-103038776D01*
X80311224Y-102874551D01*
X80123331Y-102738039D01*
X80052807Y-102702105D01*
X79916400Y-102632601D01*
X79695514Y-102560831D01*
X79466129Y-102524500D01*
X79466124Y-102524500D01*
X79233876Y-102524500D01*
X79233871Y-102524500D01*
X79004485Y-102560831D01*
X78783599Y-102632601D01*
X78576668Y-102738039D01*
X78388773Y-102874553D01*
X78224553Y-103038773D01*
X78224553Y-103038774D01*
X78224551Y-103038776D01*
X78188283Y-103088695D01*
X78180318Y-103099658D01*
X78124988Y-103142323D01*
X78055374Y-103148302D01*
X77993579Y-103115696D01*
X77979682Y-103099658D01*
X77971717Y-103088695D01*
X77935449Y-103038776D01*
X77771224Y-102874551D01*
X77583331Y-102738039D01*
X77512807Y-102702105D01*
X77376400Y-102632601D01*
X77155514Y-102560831D01*
X76926129Y-102524500D01*
X76926124Y-102524500D01*
X76693876Y-102524500D01*
X76693871Y-102524500D01*
X76464485Y-102560831D01*
X76243599Y-102632601D01*
X76036668Y-102738039D01*
X75848773Y-102874553D01*
X75684553Y-103038773D01*
X75548039Y-103226668D01*
X75442601Y-103433599D01*
X75370831Y-103654485D01*
X75334500Y-103883870D01*
X75334500Y-104116129D01*
X75370831Y-104345514D01*
X75442601Y-104566400D01*
X75539568Y-104756705D01*
X75548039Y-104773331D01*
X75684551Y-104961224D01*
X75848776Y-105125449D01*
X76036669Y-105261961D01*
X76114812Y-105301777D01*
X76243599Y-105367398D01*
X76243601Y-105367398D01*
X76243604Y-105367400D01*
X76464486Y-105439169D01*
X76582668Y-105457886D01*
X76693871Y-105475500D01*
X76693876Y-105475500D01*
X76926129Y-105475500D01*
X77053562Y-105455316D01*
X77155514Y-105439169D01*
X77160977Y-105437393D01*
X77230815Y-105435393D01*
X77286984Y-105467641D01*
X81363453Y-109544111D01*
X81363454Y-109544112D01*
X81478192Y-109620777D01*
X81605667Y-109673578D01*
X81605672Y-109673580D01*
X81605676Y-109673580D01*
X81605677Y-109673581D01*
X81741003Y-109700500D01*
X81741006Y-109700500D01*
X81741007Y-109700500D01*
X100029898Y-109700500D01*
X100096937Y-109720185D01*
X100098789Y-109721398D01*
X100147137Y-109753703D01*
X100301918Y-109817816D01*
X100466228Y-109850499D01*
X100466232Y-109850500D01*
X100466233Y-109850500D01*
X100633768Y-109850500D01*
X100633769Y-109850499D01*
X100798082Y-109817816D01*
X100952863Y-109753703D01*
X101092162Y-109660626D01*
X101210626Y-109542162D01*
X101303703Y-109402863D01*
X101367816Y-109248082D01*
X101400500Y-109083767D01*
X101400500Y-108916233D01*
X101367816Y-108751918D01*
X101303703Y-108597137D01*
X101272537Y-108550494D01*
X101210626Y-108457837D01*
X101092162Y-108339373D01*
X100952860Y-108246295D01*
X100798082Y-108182184D01*
X100798074Y-108182182D01*
X100633771Y-108149500D01*
X100633767Y-108149500D01*
X100466233Y-108149500D01*
X100466228Y-108149500D01*
X100301925Y-108182182D01*
X100301917Y-108182184D01*
X100147140Y-108246295D01*
X100147131Y-108246300D01*
X100098789Y-108278602D01*
X100032112Y-108299480D01*
X100029898Y-108299500D01*
X97086103Y-108299500D01*
X97019064Y-108279815D01*
X96973309Y-108227011D01*
X96963365Y-108157853D01*
X96992390Y-108094297D01*
X96998422Y-108087819D01*
X97670013Y-107416228D01*
X102149500Y-107416228D01*
X102149500Y-107583771D01*
X102182182Y-107748074D01*
X102182184Y-107748082D01*
X102246295Y-107902860D01*
X102339373Y-108042162D01*
X102457837Y-108160626D01*
X102515958Y-108199461D01*
X102597137Y-108253703D01*
X102751918Y-108317816D01*
X102862400Y-108339792D01*
X102916228Y-108350499D01*
X102916232Y-108350500D01*
X102916233Y-108350500D01*
X103083768Y-108350500D01*
X103083769Y-108350499D01*
X103248082Y-108317816D01*
X103402863Y-108253703D01*
X103542162Y-108160626D01*
X103660626Y-108042162D01*
X103753703Y-107902863D01*
X103817816Y-107748082D01*
X103829160Y-107691046D01*
X103861544Y-107629139D01*
X103863039Y-107627616D01*
X106253838Y-105236819D01*
X106315161Y-105203334D01*
X106341519Y-105200500D01*
X118979898Y-105200500D01*
X119046937Y-105220185D01*
X119048789Y-105221398D01*
X119074884Y-105238834D01*
X119097137Y-105253703D01*
X119251918Y-105317816D01*
X119416228Y-105350499D01*
X119416232Y-105350500D01*
X119416233Y-105350500D01*
X119583768Y-105350500D01*
X119583769Y-105350499D01*
X119748082Y-105317816D01*
X119902863Y-105253703D01*
X120042162Y-105160626D01*
X120160626Y-105042162D01*
X120253703Y-104902863D01*
X120317816Y-104748082D01*
X120350500Y-104583767D01*
X120350500Y-104416233D01*
X120317816Y-104251918D01*
X120253703Y-104097137D01*
X120221561Y-104049034D01*
X120160626Y-103957837D01*
X120042162Y-103839373D01*
X119902860Y-103746295D01*
X119748082Y-103682184D01*
X119748074Y-103682182D01*
X119583771Y-103649500D01*
X119583767Y-103649500D01*
X119416233Y-103649500D01*
X119416228Y-103649500D01*
X119251925Y-103682182D01*
X119251917Y-103682184D01*
X119097140Y-103746295D01*
X119097131Y-103746300D01*
X119048789Y-103778602D01*
X118982112Y-103799480D01*
X118979898Y-103799500D01*
X105931004Y-103799500D01*
X105795677Y-103826418D01*
X105795667Y-103826421D01*
X105668192Y-103879222D01*
X105553454Y-103955887D01*
X102872438Y-106636903D01*
X102811115Y-106670388D01*
X102808949Y-106670839D01*
X102751923Y-106682182D01*
X102751917Y-106682184D01*
X102597139Y-106746295D01*
X102457837Y-106839373D01*
X102339373Y-106957837D01*
X102246295Y-107097139D01*
X102182184Y-107251917D01*
X102182182Y-107251925D01*
X102149500Y-107416228D01*
X97670013Y-107416228D01*
X101094112Y-103992129D01*
X101094114Y-103992127D01*
X101170775Y-103877395D01*
X101172462Y-103873324D01*
X101220398Y-103757594D01*
X101223580Y-103749912D01*
X101233615Y-103699464D01*
X101250500Y-103614580D01*
X101250500Y-102916228D01*
X102149500Y-102916228D01*
X102149500Y-103083771D01*
X102182182Y-103248074D01*
X102182184Y-103248082D01*
X102246295Y-103402860D01*
X102339373Y-103542162D01*
X102457837Y-103660626D01*
X102515958Y-103699461D01*
X102597137Y-103753703D01*
X102597138Y-103753703D01*
X102597139Y-103753704D01*
X102632201Y-103768227D01*
X102751918Y-103817816D01*
X102911206Y-103849500D01*
X102916228Y-103850499D01*
X102916232Y-103850500D01*
X102916233Y-103850500D01*
X103083768Y-103850500D01*
X103083769Y-103850499D01*
X103248082Y-103817816D01*
X103402863Y-103753703D01*
X103542162Y-103660626D01*
X103660626Y-103542162D01*
X103753703Y-103402863D01*
X103817816Y-103248082D01*
X103829160Y-103191046D01*
X103861544Y-103129139D01*
X103863039Y-103127616D01*
X105753838Y-101236819D01*
X105815161Y-101203334D01*
X105841519Y-101200500D01*
X118979898Y-101200500D01*
X119046937Y-101220185D01*
X119048789Y-101221398D01*
X119097137Y-101253703D01*
X119251918Y-101317816D01*
X119416228Y-101350499D01*
X119416232Y-101350500D01*
X119416233Y-101350500D01*
X119583768Y-101350500D01*
X119583769Y-101350499D01*
X119748082Y-101317816D01*
X119902863Y-101253703D01*
X120042162Y-101160626D01*
X120160626Y-101042162D01*
X120253703Y-100902863D01*
X120317816Y-100748082D01*
X120350500Y-100583767D01*
X120350500Y-100416233D01*
X120317816Y-100251918D01*
X120259556Y-100111267D01*
X120253704Y-100097139D01*
X120248059Y-100088691D01*
X120198248Y-100014143D01*
X120160626Y-99957837D01*
X120042162Y-99839373D01*
X119902860Y-99746295D01*
X119748082Y-99682184D01*
X119748074Y-99682182D01*
X119583771Y-99649500D01*
X119583767Y-99649500D01*
X119416233Y-99649500D01*
X119416228Y-99649500D01*
X119251925Y-99682182D01*
X119251917Y-99682184D01*
X119097140Y-99746295D01*
X119097131Y-99746300D01*
X119048789Y-99778602D01*
X118982112Y-99799480D01*
X118979898Y-99799500D01*
X105431004Y-99799500D01*
X105295677Y-99826418D01*
X105295667Y-99826421D01*
X105168192Y-99879222D01*
X105053454Y-99955887D01*
X102872438Y-102136903D01*
X102811115Y-102170388D01*
X102808949Y-102170839D01*
X102751923Y-102182182D01*
X102751917Y-102182184D01*
X102597139Y-102246295D01*
X102457837Y-102339373D01*
X102339373Y-102457837D01*
X102246295Y-102597139D01*
X102182184Y-102751917D01*
X102182182Y-102751925D01*
X102149500Y-102916228D01*
X101250500Y-102916228D01*
X101250500Y-101520101D01*
X101270185Y-101453062D01*
X101271398Y-101451210D01*
X101303703Y-101402863D01*
X101367816Y-101248082D01*
X101400500Y-101083767D01*
X101400500Y-100916233D01*
X101367816Y-100751918D01*
X101303703Y-100597137D01*
X101258048Y-100528810D01*
X101210626Y-100457837D01*
X101092162Y-100339373D01*
X100952860Y-100246295D01*
X100798082Y-100182184D01*
X100798074Y-100182182D01*
X100633771Y-100149500D01*
X100633767Y-100149500D01*
X100466233Y-100149500D01*
X100466228Y-100149500D01*
X100301925Y-100182182D01*
X100301917Y-100182184D01*
X100147139Y-100246295D01*
X100007837Y-100339373D01*
X100007834Y-100339376D01*
X99962181Y-100385030D01*
X99900858Y-100418515D01*
X99831166Y-100413531D01*
X99775233Y-100371659D01*
X99750816Y-100306195D01*
X99750500Y-100297349D01*
X99750500Y-98416228D01*
X102149500Y-98416228D01*
X102149500Y-98583771D01*
X102182182Y-98748074D01*
X102182184Y-98748082D01*
X102246295Y-98902860D01*
X102339373Y-99042162D01*
X102457837Y-99160626D01*
X102519733Y-99201983D01*
X102597137Y-99253703D01*
X102751918Y-99317816D01*
X102916228Y-99350499D01*
X102916232Y-99350500D01*
X102916233Y-99350500D01*
X103083768Y-99350500D01*
X103083769Y-99350499D01*
X103248082Y-99317816D01*
X103402863Y-99253703D01*
X103542162Y-99160626D01*
X103660626Y-99042162D01*
X103753703Y-98902863D01*
X103817816Y-98748082D01*
X103829160Y-98691046D01*
X103861544Y-98629139D01*
X103863039Y-98627616D01*
X105253838Y-97236819D01*
X105315161Y-97203334D01*
X105341519Y-97200500D01*
X118979898Y-97200500D01*
X119046937Y-97220185D01*
X119048789Y-97221398D01*
X119097137Y-97253703D01*
X119251918Y-97317816D01*
X119416228Y-97350499D01*
X119416232Y-97350500D01*
X119416233Y-97350500D01*
X119583768Y-97350500D01*
X119583769Y-97350499D01*
X119748082Y-97317816D01*
X119902863Y-97253703D01*
X120042162Y-97160626D01*
X120160626Y-97042162D01*
X120253703Y-96902863D01*
X120317816Y-96748082D01*
X120350500Y-96583767D01*
X120350500Y-96416233D01*
X120317816Y-96251918D01*
X120262513Y-96118407D01*
X120253704Y-96097139D01*
X120160626Y-95957837D01*
X120042162Y-95839373D01*
X119902860Y-95746295D01*
X119748082Y-95682184D01*
X119748074Y-95682182D01*
X119583771Y-95649500D01*
X119583767Y-95649500D01*
X119416233Y-95649500D01*
X119416228Y-95649500D01*
X119251925Y-95682182D01*
X119251917Y-95682184D01*
X119097140Y-95746295D01*
X119097131Y-95746300D01*
X119048789Y-95778602D01*
X118982112Y-95799480D01*
X118979898Y-95799500D01*
X104931005Y-95799500D01*
X104795677Y-95826418D01*
X104795667Y-95826421D01*
X104668192Y-95879222D01*
X104553454Y-95955887D01*
X102872438Y-97636903D01*
X102811115Y-97670388D01*
X102808949Y-97670839D01*
X102751923Y-97682182D01*
X102751917Y-97682184D01*
X102597139Y-97746295D01*
X102457837Y-97839373D01*
X102339373Y-97957837D01*
X102246295Y-98097139D01*
X102182184Y-98251917D01*
X102182182Y-98251925D01*
X102149500Y-98416228D01*
X99750500Y-98416228D01*
X99750500Y-93916228D01*
X102149500Y-93916228D01*
X102149500Y-94083771D01*
X102182182Y-94248074D01*
X102182184Y-94248082D01*
X102246295Y-94402860D01*
X102339373Y-94542162D01*
X102457837Y-94660626D01*
X102515958Y-94699461D01*
X102597137Y-94753703D01*
X102751918Y-94817816D01*
X102887763Y-94844837D01*
X102916228Y-94850499D01*
X102916232Y-94850500D01*
X102916233Y-94850500D01*
X103083768Y-94850500D01*
X103083769Y-94850499D01*
X103248082Y-94817816D01*
X103402863Y-94753703D01*
X103542162Y-94660626D01*
X103660626Y-94542162D01*
X103753703Y-94402863D01*
X103817816Y-94248082D01*
X103829160Y-94191046D01*
X103861544Y-94129139D01*
X103863040Y-94127615D01*
X104753837Y-93236819D01*
X104815160Y-93203334D01*
X104841518Y-93200500D01*
X118979898Y-93200500D01*
X119046937Y-93220185D01*
X119048789Y-93221398D01*
X119097137Y-93253703D01*
X119251918Y-93317816D01*
X119416228Y-93350499D01*
X119416232Y-93350500D01*
X119416233Y-93350500D01*
X119583768Y-93350500D01*
X119583769Y-93350499D01*
X119748082Y-93317816D01*
X119902863Y-93253703D01*
X120042162Y-93160626D01*
X120160626Y-93042162D01*
X120253703Y-92902863D01*
X120317816Y-92748082D01*
X120350500Y-92583767D01*
X120350500Y-92416233D01*
X120317816Y-92251918D01*
X120253703Y-92097137D01*
X120222537Y-92050494D01*
X120160626Y-91957837D01*
X120042162Y-91839373D01*
X119902860Y-91746295D01*
X119748082Y-91682184D01*
X119748074Y-91682182D01*
X119583771Y-91649500D01*
X119583767Y-91649500D01*
X119416233Y-91649500D01*
X119416228Y-91649500D01*
X119251925Y-91682182D01*
X119251917Y-91682184D01*
X119097140Y-91746295D01*
X119097131Y-91746300D01*
X119048789Y-91778602D01*
X118982112Y-91799480D01*
X118979898Y-91799500D01*
X104431003Y-91799500D01*
X104329020Y-91819785D01*
X104329009Y-91819788D01*
X104322591Y-91821065D01*
X104295671Y-91826420D01*
X104264398Y-91839374D01*
X104259198Y-91841527D01*
X104259188Y-91841531D01*
X104168191Y-91879223D01*
X104068721Y-91945688D01*
X104068719Y-91945689D01*
X104053458Y-91955885D01*
X104053453Y-91955889D01*
X102872438Y-93136903D01*
X102811115Y-93170388D01*
X102808949Y-93170839D01*
X102751923Y-93182182D01*
X102751917Y-93182184D01*
X102597139Y-93246295D01*
X102457837Y-93339373D01*
X102339373Y-93457837D01*
X102246295Y-93597139D01*
X102182184Y-93751917D01*
X102182182Y-93751925D01*
X102149500Y-93916228D01*
X99750500Y-93916228D01*
X99750500Y-92841517D01*
X99770185Y-92774478D01*
X99786815Y-92753840D01*
X100677560Y-91863094D01*
X100738881Y-91829611D01*
X100740959Y-91829177D01*
X100798082Y-91817816D01*
X100952863Y-91753703D01*
X101092162Y-91660626D01*
X101210626Y-91542162D01*
X101303703Y-91402863D01*
X101367816Y-91248082D01*
X101400500Y-91083767D01*
X101400500Y-90916233D01*
X101367816Y-90751918D01*
X101303703Y-90597137D01*
X101266970Y-90542162D01*
X101210626Y-90457837D01*
X101092162Y-90339373D01*
X100952860Y-90246295D01*
X100798082Y-90182184D01*
X100798074Y-90182182D01*
X100633771Y-90149500D01*
X100633767Y-90149500D01*
X100466233Y-90149500D01*
X100466228Y-90149500D01*
X100301925Y-90182182D01*
X100301917Y-90182184D01*
X100147139Y-90246295D01*
X100007837Y-90339373D01*
X99889373Y-90457837D01*
X99796295Y-90597139D01*
X99732184Y-90751917D01*
X99732182Y-90751923D01*
X99720839Y-90808950D01*
X99688454Y-90870861D01*
X99686903Y-90872439D01*
X98962181Y-91597162D01*
X98900858Y-91630647D01*
X98831167Y-91625663D01*
X98775233Y-91583791D01*
X98750816Y-91518327D01*
X98750500Y-91509481D01*
X98750500Y-89416228D01*
X102149500Y-89416228D01*
X102149500Y-89583771D01*
X102182182Y-89748074D01*
X102182184Y-89748082D01*
X102246295Y-89902860D01*
X102339373Y-90042162D01*
X102457837Y-90160626D01*
X102532228Y-90210332D01*
X102597137Y-90253703D01*
X102751918Y-90317816D01*
X102896958Y-90346666D01*
X102916228Y-90350499D01*
X102916232Y-90350500D01*
X102916233Y-90350500D01*
X103083768Y-90350500D01*
X103083769Y-90350499D01*
X103248082Y-90317816D01*
X103402863Y-90253703D01*
X103542162Y-90160626D01*
X103660626Y-90042162D01*
X103753703Y-89902863D01*
X103817816Y-89748082D01*
X103829160Y-89691046D01*
X103861544Y-89629139D01*
X103863037Y-89627618D01*
X104253838Y-89236819D01*
X104315161Y-89203334D01*
X104341519Y-89200500D01*
X118979898Y-89200500D01*
X119046937Y-89220185D01*
X119048789Y-89221398D01*
X119097137Y-89253703D01*
X119251918Y-89317816D01*
X119416228Y-89350499D01*
X119416232Y-89350500D01*
X119416233Y-89350500D01*
X119583768Y-89350500D01*
X119583769Y-89350499D01*
X119748082Y-89317816D01*
X119902863Y-89253703D01*
X120042162Y-89160626D01*
X120160626Y-89042162D01*
X120253703Y-88902863D01*
X120317816Y-88748082D01*
X120350500Y-88583767D01*
X120350500Y-88416233D01*
X120317816Y-88251918D01*
X120253703Y-88097137D01*
X120222537Y-88050494D01*
X120160626Y-87957837D01*
X120042162Y-87839373D01*
X119902860Y-87746295D01*
X119748082Y-87682184D01*
X119748074Y-87682182D01*
X119583771Y-87649500D01*
X119583767Y-87649500D01*
X119416233Y-87649500D01*
X119416228Y-87649500D01*
X119251925Y-87682182D01*
X119251917Y-87682184D01*
X119097140Y-87746295D01*
X119097131Y-87746300D01*
X119048789Y-87778602D01*
X118982112Y-87799480D01*
X118979898Y-87799500D01*
X103931004Y-87799500D01*
X103795677Y-87826418D01*
X103795667Y-87826421D01*
X103668192Y-87879222D01*
X103553454Y-87955887D01*
X102872438Y-88636903D01*
X102811115Y-88670388D01*
X102808949Y-88670839D01*
X102751923Y-88682182D01*
X102751917Y-88682184D01*
X102597139Y-88746295D01*
X102457837Y-88839373D01*
X102339373Y-88957837D01*
X102246295Y-89097139D01*
X102182184Y-89251917D01*
X102182182Y-89251925D01*
X102149500Y-89416228D01*
X98750500Y-89416228D01*
X98750500Y-85341518D01*
X98770185Y-85274479D01*
X98786814Y-85253842D01*
X99124428Y-84916228D01*
X102149500Y-84916228D01*
X102149500Y-85083771D01*
X102182182Y-85248074D01*
X102182184Y-85248082D01*
X102246295Y-85402860D01*
X102339373Y-85542162D01*
X102457837Y-85660626D01*
X102550494Y-85722537D01*
X102597137Y-85753703D01*
X102751918Y-85817816D01*
X102916228Y-85850499D01*
X102916232Y-85850500D01*
X102916233Y-85850500D01*
X103083768Y-85850500D01*
X103083769Y-85850499D01*
X103248082Y-85817816D01*
X103402863Y-85753703D01*
X103542162Y-85660626D01*
X103660626Y-85542162D01*
X103753703Y-85402863D01*
X103805818Y-85277046D01*
X103849659Y-85222644D01*
X103915953Y-85200579D01*
X103920379Y-85200500D01*
X118979898Y-85200500D01*
X119046937Y-85220185D01*
X119048789Y-85221398D01*
X119097137Y-85253703D01*
X119251918Y-85317816D01*
X119416228Y-85350499D01*
X119416232Y-85350500D01*
X119416233Y-85350500D01*
X119583768Y-85350500D01*
X119583769Y-85350499D01*
X119748082Y-85317816D01*
X119902863Y-85253703D01*
X120042162Y-85160626D01*
X120160626Y-85042162D01*
X120253703Y-84902863D01*
X120317816Y-84748082D01*
X120350500Y-84583767D01*
X120350500Y-84416233D01*
X120317816Y-84251918D01*
X120253703Y-84097137D01*
X120201043Y-84018326D01*
X120160626Y-83957837D01*
X120042162Y-83839373D01*
X119902860Y-83746295D01*
X119748082Y-83682184D01*
X119748074Y-83682182D01*
X119583771Y-83649500D01*
X119583767Y-83649500D01*
X119416233Y-83649500D01*
X119416228Y-83649500D01*
X119251925Y-83682182D01*
X119251917Y-83682184D01*
X119097140Y-83746295D01*
X119097131Y-83746300D01*
X119048789Y-83778602D01*
X118982112Y-83799480D01*
X118979898Y-83799500D01*
X103431004Y-83799500D01*
X103295677Y-83826418D01*
X103295667Y-83826421D01*
X103168192Y-83879222D01*
X103053454Y-83955887D01*
X102872438Y-84136903D01*
X102811115Y-84170388D01*
X102808949Y-84170839D01*
X102751923Y-84182182D01*
X102751917Y-84182184D01*
X102597139Y-84246295D01*
X102457837Y-84339373D01*
X102339373Y-84457837D01*
X102246295Y-84597139D01*
X102182184Y-84751917D01*
X102182182Y-84751925D01*
X102149500Y-84916228D01*
X99124428Y-84916228D01*
X101177561Y-82863094D01*
X101238882Y-82829611D01*
X101240947Y-82829180D01*
X101298082Y-82817816D01*
X101452863Y-82753703D01*
X101592162Y-82660626D01*
X101710626Y-82542162D01*
X101803703Y-82402863D01*
X101867816Y-82248082D01*
X101900500Y-82083767D01*
X101900500Y-81916233D01*
X101867816Y-81751918D01*
X101803703Y-81597137D01*
X101772537Y-81550494D01*
X101710626Y-81457837D01*
X101592162Y-81339373D01*
X101452860Y-81246295D01*
X101298082Y-81182184D01*
X101298074Y-81182182D01*
X101133771Y-81149500D01*
X101133767Y-81149500D01*
X100966233Y-81149500D01*
X100966228Y-81149500D01*
X100801925Y-81182182D01*
X100801917Y-81182184D01*
X100647139Y-81246295D01*
X100507837Y-81339373D01*
X100389373Y-81457837D01*
X100296295Y-81597139D01*
X100232184Y-81751917D01*
X100232182Y-81751923D01*
X100220839Y-81808949D01*
X100188454Y-81870860D01*
X100186903Y-81872438D01*
X97962181Y-84097161D01*
X97900858Y-84130646D01*
X97831166Y-84125662D01*
X97775233Y-84083790D01*
X97750816Y-84018326D01*
X97750500Y-84009480D01*
X97750500Y-80416228D01*
X102149500Y-80416228D01*
X102149500Y-80583771D01*
X102182182Y-80748074D01*
X102182184Y-80748082D01*
X102246295Y-80902860D01*
X102339373Y-81042162D01*
X102457837Y-81160626D01*
X102517513Y-81200500D01*
X102597137Y-81253703D01*
X102751918Y-81317816D01*
X102916228Y-81350499D01*
X102916232Y-81350500D01*
X102916233Y-81350500D01*
X103083768Y-81350500D01*
X103083769Y-81350499D01*
X103248082Y-81317816D01*
X103402863Y-81253703D01*
X103451211Y-81221398D01*
X103517888Y-81200520D01*
X103520102Y-81200500D01*
X118979898Y-81200500D01*
X119046937Y-81220185D01*
X119048789Y-81221398D01*
X119097137Y-81253703D01*
X119251918Y-81317816D01*
X119416228Y-81350499D01*
X119416232Y-81350500D01*
X119416233Y-81350500D01*
X119583768Y-81350500D01*
X119583769Y-81350499D01*
X119748082Y-81317816D01*
X119902863Y-81253703D01*
X120042162Y-81160626D01*
X120160626Y-81042162D01*
X120253703Y-80902863D01*
X120317816Y-80748082D01*
X120350500Y-80583767D01*
X120350500Y-80416233D01*
X120317816Y-80251918D01*
X120253703Y-80097137D01*
X120222537Y-80050494D01*
X120160626Y-79957837D01*
X120042162Y-79839373D01*
X119902860Y-79746295D01*
X119748082Y-79682184D01*
X119748074Y-79682182D01*
X119583771Y-79649500D01*
X119583767Y-79649500D01*
X119416233Y-79649500D01*
X119416228Y-79649500D01*
X119251925Y-79682182D01*
X119251917Y-79682184D01*
X119097140Y-79746295D01*
X119097131Y-79746300D01*
X119048789Y-79778602D01*
X118982112Y-79799480D01*
X118979898Y-79799500D01*
X103520102Y-79799500D01*
X103453063Y-79779815D01*
X103451211Y-79778602D01*
X103402868Y-79746300D01*
X103402859Y-79746295D01*
X103248082Y-79682184D01*
X103248074Y-79682182D01*
X103083771Y-79649500D01*
X103083767Y-79649500D01*
X102916233Y-79649500D01*
X102916228Y-79649500D01*
X102751925Y-79682182D01*
X102751917Y-79682184D01*
X102597139Y-79746295D01*
X102457837Y-79839373D01*
X102339373Y-79957837D01*
X102246295Y-80097139D01*
X102182184Y-80251917D01*
X102182182Y-80251925D01*
X102149500Y-80416228D01*
X97750500Y-80416228D01*
X97750500Y-77341518D01*
X97770185Y-77274479D01*
X97786814Y-77253842D01*
X99124428Y-75916228D01*
X102149500Y-75916228D01*
X102149500Y-76083771D01*
X102182182Y-76248074D01*
X102182184Y-76248082D01*
X102246295Y-76402860D01*
X102339373Y-76542162D01*
X102457837Y-76660626D01*
X102483265Y-76677616D01*
X102597137Y-76753703D01*
X102751918Y-76817816D01*
X102808948Y-76829159D01*
X102870859Y-76861544D01*
X102872438Y-76863096D01*
X103053454Y-77044112D01*
X103168192Y-77120777D01*
X103264398Y-77160626D01*
X103295672Y-77173580D01*
X103295676Y-77173580D01*
X103295677Y-77173581D01*
X103431003Y-77200500D01*
X103431006Y-77200500D01*
X103431007Y-77200500D01*
X118979898Y-77200500D01*
X119046937Y-77220185D01*
X119048789Y-77221398D01*
X119097137Y-77253703D01*
X119251918Y-77317816D01*
X119416228Y-77350499D01*
X119416232Y-77350500D01*
X119416233Y-77350500D01*
X119583768Y-77350500D01*
X119583769Y-77350499D01*
X119748082Y-77317816D01*
X119902863Y-77253703D01*
X120042162Y-77160626D01*
X120160626Y-77042162D01*
X120253703Y-76902863D01*
X120317816Y-76748082D01*
X120350500Y-76583767D01*
X120350500Y-76416233D01*
X120317816Y-76251918D01*
X120253703Y-76097137D01*
X120192274Y-76005202D01*
X120160626Y-75957837D01*
X120042162Y-75839373D01*
X119902860Y-75746295D01*
X119748082Y-75682184D01*
X119748074Y-75682182D01*
X119583771Y-75649500D01*
X119583767Y-75649500D01*
X119416233Y-75649500D01*
X119416228Y-75649500D01*
X119251925Y-75682182D01*
X119251917Y-75682184D01*
X119097140Y-75746295D01*
X119097131Y-75746300D01*
X119048789Y-75778602D01*
X118982112Y-75799480D01*
X118979898Y-75799500D01*
X103920379Y-75799500D01*
X103853340Y-75779815D01*
X103807585Y-75727011D01*
X103805818Y-75722953D01*
X103753704Y-75597139D01*
X103660626Y-75457837D01*
X103542162Y-75339373D01*
X103402860Y-75246295D01*
X103248082Y-75182184D01*
X103248074Y-75182182D01*
X103083771Y-75149500D01*
X103083767Y-75149500D01*
X102916233Y-75149500D01*
X102916228Y-75149500D01*
X102751925Y-75182182D01*
X102751917Y-75182184D01*
X102597139Y-75246295D01*
X102457837Y-75339373D01*
X102339373Y-75457837D01*
X102246295Y-75597139D01*
X102182184Y-75751917D01*
X102182182Y-75751925D01*
X102149500Y-75916228D01*
X99124428Y-75916228D01*
X101177561Y-73863094D01*
X101238882Y-73829611D01*
X101240947Y-73829180D01*
X101298082Y-73817816D01*
X101452863Y-73753703D01*
X101592162Y-73660626D01*
X101710626Y-73542162D01*
X101803703Y-73402863D01*
X101867816Y-73248082D01*
X101900500Y-73083767D01*
X101900500Y-72916233D01*
X101867816Y-72751918D01*
X101803703Y-72597137D01*
X101772537Y-72550494D01*
X101710626Y-72457837D01*
X101592162Y-72339373D01*
X101452860Y-72246295D01*
X101298082Y-72182184D01*
X101298074Y-72182182D01*
X101133771Y-72149500D01*
X101133767Y-72149500D01*
X100966233Y-72149500D01*
X100966228Y-72149500D01*
X100801925Y-72182182D01*
X100801917Y-72182184D01*
X100647139Y-72246295D01*
X100507837Y-72339373D01*
X100389373Y-72457837D01*
X100296295Y-72597139D01*
X100232184Y-72751917D01*
X100232182Y-72751923D01*
X100220839Y-72808949D01*
X100188454Y-72870860D01*
X100186903Y-72872438D01*
X96505887Y-76553454D01*
X96429222Y-76668192D01*
X96376421Y-76795667D01*
X96376418Y-76795679D01*
X96350274Y-76927115D01*
X96350271Y-76927131D01*
X96349500Y-76931001D01*
X96349500Y-104158481D01*
X96329815Y-104225520D01*
X96313181Y-104246162D01*
X95296162Y-105263181D01*
X95234839Y-105296666D01*
X95208481Y-105299500D01*
X93616209Y-105299500D01*
X93549170Y-105279815D01*
X93503415Y-105227011D01*
X93493471Y-105157853D01*
X93500027Y-105132166D01*
X93518597Y-105082376D01*
X93518598Y-105082372D01*
X93524999Y-105022844D01*
X93525000Y-105022827D01*
X93525000Y-104250000D01*
X92650001Y-104250000D01*
X92675021Y-104189598D01*
X92700000Y-104064019D01*
X92700000Y-103935981D01*
X92675021Y-103810402D01*
X92650001Y-103750000D01*
X93525000Y-103750000D01*
X93525000Y-102977172D01*
X93524999Y-102977155D01*
X93518598Y-102917627D01*
X93518596Y-102917620D01*
X93468354Y-102782913D01*
X93468350Y-102782906D01*
X93382190Y-102667812D01*
X93382187Y-102667809D01*
X93267093Y-102581649D01*
X93267086Y-102581645D01*
X93132379Y-102531403D01*
X93132372Y-102531401D01*
X93072844Y-102525000D01*
X92300000Y-102525000D01*
X92300000Y-103399998D01*
X92239598Y-103374979D01*
X92114019Y-103350000D01*
X91985981Y-103350000D01*
X91860402Y-103374979D01*
X91800000Y-103399998D01*
X91800000Y-102525000D01*
X91027155Y-102525000D01*
X90967627Y-102531401D01*
X90967620Y-102531403D01*
X90832913Y-102581645D01*
X90832906Y-102581649D01*
X90717812Y-102667809D01*
X90717809Y-102667812D01*
X90631649Y-102782906D01*
X90631645Y-102782914D01*
X90627583Y-102793805D01*
X90585711Y-102849737D01*
X90520246Y-102874153D01*
X90451973Y-102859300D01*
X90438517Y-102850787D01*
X90283332Y-102738039D01*
X90203204Y-102697211D01*
X90152409Y-102649237D01*
X90135500Y-102586727D01*
X90135500Y-100448394D01*
X90132041Y-100431006D01*
X90111463Y-100327549D01*
X90110995Y-100326420D01*
X90084588Y-100262666D01*
X90064312Y-100213714D01*
X90057625Y-100203707D01*
X90033277Y-100167266D01*
X90033271Y-100167260D01*
X90028839Y-100160626D01*
X89995858Y-100111267D01*
X89908733Y-100024142D01*
X89905758Y-100021167D01*
X89898735Y-100014143D01*
X89898733Y-100014141D01*
X89847509Y-99979915D01*
X89814469Y-99957838D01*
X89796286Y-99945688D01*
X89706594Y-99908537D01*
X89682452Y-99898537D01*
X89611881Y-99884500D01*
X89608166Y-99883761D01*
X89608147Y-99883756D01*
X89561611Y-99874500D01*
X89561607Y-99874500D01*
X89561606Y-99874500D01*
X73561606Y-99874500D01*
X73438394Y-99874500D01*
X73438389Y-99874500D01*
X73317555Y-99898535D01*
X73317545Y-99898538D01*
X73203716Y-99945687D01*
X73203707Y-99945692D01*
X73101267Y-100014141D01*
X73101265Y-100014143D01*
X73014144Y-100101263D01*
X73014141Y-100101267D01*
X72945692Y-100203707D01*
X72945687Y-100203716D01*
X72898538Y-100317545D01*
X72898535Y-100317555D01*
X72874500Y-100438389D01*
X72874500Y-117061610D01*
X72898535Y-117182444D01*
X72898538Y-117182454D01*
X72945687Y-117296283D01*
X72945692Y-117296292D01*
X73014141Y-117398732D01*
X73014144Y-117398736D01*
X73101263Y-117485855D01*
X73101267Y-117485858D01*
X73203707Y-117554307D01*
X73203713Y-117554310D01*
X73203714Y-117554311D01*
X73317548Y-117601463D01*
X73438389Y-117625499D01*
X73438393Y-117625500D01*
X73438394Y-117625500D01*
X74189546Y-117625500D01*
X74256585Y-117645185D01*
X74271430Y-117657147D01*
X74271557Y-117656993D01*
X74276267Y-117660858D01*
X74378707Y-117729307D01*
X74378711Y-117729309D01*
X74378714Y-117729311D01*
X74391611Y-117734653D01*
X74455070Y-117760939D01*
X74509473Y-117804780D01*
X74531538Y-117871074D01*
X74514259Y-117938774D01*
X74463121Y-117986384D01*
X74407617Y-117999500D01*
X68002872Y-117999500D01*
X67997145Y-117999368D01*
X67669613Y-117984224D01*
X67663186Y-117983759D01*
X67588318Y-117976385D01*
X67583341Y-117975793D01*
X67296823Y-117935826D01*
X67289764Y-117934633D01*
X67221038Y-117920963D01*
X67216838Y-117920051D01*
X66929399Y-117852446D01*
X66921794Y-117850401D01*
X66864196Y-117832929D01*
X66860785Y-117831840D01*
X66570818Y-117734653D01*
X66562779Y-117731644D01*
X66543269Y-117723563D01*
X66523168Y-117715237D01*
X66520537Y-117714111D01*
X66224487Y-117583392D01*
X66216128Y-117579320D01*
X66206003Y-117573909D01*
X66204165Y-117572907D01*
X65899546Y-117403234D01*
X65889809Y-117397205D01*
X65594487Y-117194906D01*
X65585347Y-117188003D01*
X65309964Y-116959328D01*
X65301500Y-116951612D01*
X65048387Y-116698499D01*
X65040671Y-116690035D01*
X64905158Y-116526843D01*
X64811994Y-116414649D01*
X64805093Y-116405512D01*
X64805053Y-116405454D01*
X64638845Y-116162819D01*
X64602794Y-116110190D01*
X64596765Y-116100453D01*
X64427049Y-115795757D01*
X64426089Y-115793995D01*
X64420678Y-115783870D01*
X64416606Y-115775511D01*
X64378736Y-115689744D01*
X64285871Y-115479425D01*
X64284784Y-115476884D01*
X64268342Y-115437189D01*
X64265358Y-115429215D01*
X64168132Y-115139134D01*
X64167094Y-115135880D01*
X64149589Y-115078174D01*
X64147560Y-115070629D01*
X64079932Y-114783093D01*
X64079049Y-114779026D01*
X64065360Y-114710207D01*
X64064176Y-114703199D01*
X64024204Y-114416651D01*
X64023613Y-114411680D01*
X64021312Y-114388319D01*
X64016237Y-114336794D01*
X64015774Y-114330385D01*
X64015617Y-114326996D01*
X64000632Y-114002854D01*
X64000500Y-113997128D01*
X64000500Y-113037857D01*
X65499500Y-113037857D01*
X65499500Y-113362143D01*
X65505843Y-113426540D01*
X65531284Y-113684857D01*
X65531287Y-113684874D01*
X65594545Y-114002902D01*
X65594548Y-114002913D01*
X65688686Y-114313247D01*
X65751357Y-114464547D01*
X65807256Y-114599500D01*
X65812786Y-114612849D01*
X65812788Y-114612854D01*
X65965646Y-114898830D01*
X65965657Y-114898848D01*
X66145811Y-115168467D01*
X66145821Y-115168481D01*
X66351546Y-115419158D01*
X66580841Y-115648453D01*
X66580846Y-115648457D01*
X66580847Y-115648458D01*
X66831524Y-115854183D01*
X67101158Y-116034347D01*
X67101167Y-116034352D01*
X67101169Y-116034353D01*
X67387145Y-116187211D01*
X67387147Y-116187211D01*
X67387153Y-116187215D01*
X67686754Y-116311314D01*
X67997077Y-116405449D01*
X67997083Y-116405450D01*
X67997086Y-116405451D01*
X67997097Y-116405454D01*
X68196528Y-116445122D01*
X68315132Y-116468714D01*
X68637857Y-116500500D01*
X68637860Y-116500500D01*
X68962140Y-116500500D01*
X68962143Y-116500500D01*
X69284868Y-116468714D01*
X69442295Y-116437399D01*
X69602902Y-116405454D01*
X69602913Y-116405451D01*
X69602913Y-116405450D01*
X69602923Y-116405449D01*
X69913246Y-116311314D01*
X70212847Y-116187215D01*
X70498842Y-116034347D01*
X70768476Y-115854183D01*
X71019153Y-115648458D01*
X71248458Y-115419153D01*
X71454183Y-115168476D01*
X71634347Y-114898842D01*
X71787215Y-114612847D01*
X71911314Y-114313246D01*
X72005449Y-114002923D01*
X72005451Y-114002913D01*
X72005454Y-114002902D01*
X72046209Y-113798009D01*
X72068714Y-113684868D01*
X72100500Y-113362143D01*
X72100500Y-113037857D01*
X72068714Y-112715132D01*
X72024876Y-112494743D01*
X72005454Y-112397097D01*
X72005451Y-112397086D01*
X72005450Y-112397083D01*
X72005449Y-112397077D01*
X71911314Y-112086754D01*
X71787215Y-111787153D01*
X71782644Y-111778602D01*
X71634353Y-111501169D01*
X71634352Y-111501167D01*
X71634347Y-111501158D01*
X71454183Y-111231524D01*
X71248458Y-110980847D01*
X71248457Y-110980846D01*
X71248453Y-110980841D01*
X71019158Y-110751546D01*
X70768481Y-110545821D01*
X70768480Y-110545820D01*
X70768476Y-110545817D01*
X70498842Y-110365653D01*
X70498837Y-110365650D01*
X70498830Y-110365646D01*
X70212854Y-110212788D01*
X70212849Y-110212786D01*
X69913247Y-110088686D01*
X69602913Y-109994548D01*
X69602902Y-109994545D01*
X69284874Y-109931287D01*
X69284857Y-109931284D01*
X69040812Y-109907248D01*
X68962143Y-109899500D01*
X68637857Y-109899500D01*
X68565099Y-109906666D01*
X68315142Y-109931284D01*
X68315125Y-109931287D01*
X67997097Y-109994545D01*
X67997086Y-109994548D01*
X67686752Y-110088686D01*
X67387150Y-110212786D01*
X67387145Y-110212788D01*
X67101169Y-110365646D01*
X67101151Y-110365657D01*
X66831532Y-110545811D01*
X66831518Y-110545821D01*
X66580841Y-110751546D01*
X66351546Y-110980841D01*
X66145821Y-111231518D01*
X66145811Y-111231532D01*
X65965657Y-111501151D01*
X65965646Y-111501169D01*
X65812788Y-111787145D01*
X65812786Y-111787150D01*
X65688686Y-112086752D01*
X65594548Y-112397086D01*
X65594545Y-112397097D01*
X65531287Y-112715125D01*
X65531284Y-112715142D01*
X65506666Y-112965099D01*
X65499500Y-113037857D01*
X64000500Y-113037857D01*
X64000500Y-110245690D01*
X64000649Y-110239607D01*
X64005605Y-110138699D01*
X64013599Y-109975930D01*
X64014229Y-109968153D01*
X64020887Y-109909054D01*
X64021439Y-109904819D01*
X64056302Y-109669788D01*
X64058060Y-109660438D01*
X64064697Y-109631360D01*
X64065285Y-109628902D01*
X64128178Y-109377821D01*
X64131705Y-109366201D01*
X64226772Y-109100511D01*
X64231418Y-109089295D01*
X64352086Y-108834175D01*
X64357802Y-108823481D01*
X64490877Y-108601471D01*
X64492146Y-108599403D01*
X64508078Y-108574048D01*
X64513427Y-108566222D01*
X64654998Y-108375346D01*
X64657561Y-108372016D01*
X64694701Y-108325446D01*
X64699704Y-108319563D01*
X64877461Y-108123452D01*
X64881606Y-108119100D01*
X67121321Y-105879386D01*
X67121675Y-105879033D01*
X67121674Y-105879032D01*
X67122113Y-105878595D01*
X67122306Y-105878403D01*
X67139139Y-105861684D01*
X67139276Y-105861480D01*
X67157372Y-105843436D01*
X67157962Y-105842705D01*
X67225882Y-105774790D01*
X67225896Y-105774775D01*
X67285632Y-105701990D01*
X67412920Y-105546899D01*
X67442771Y-105502224D01*
X67448696Y-105494798D01*
X67463851Y-105470678D01*
X67576713Y-105301777D01*
X67615036Y-105230081D01*
X67627838Y-105209710D01*
X67645217Y-105173620D01*
X67715690Y-105041781D01*
X67758609Y-104938168D01*
X67773931Y-104906355D01*
X67785595Y-104873020D01*
X67828512Y-104769414D01*
X67871912Y-104626344D01*
X67885139Y-104588551D01*
X67890489Y-104565105D01*
X67914093Y-104487299D01*
X67953727Y-104288038D01*
X67960062Y-104260292D01*
X67961126Y-104250845D01*
X67971607Y-104198154D01*
X68000501Y-103904764D01*
X68000500Y-103757359D01*
X68000500Y-103756859D01*
X68000500Y-83065403D01*
X88259500Y-83065403D01*
X88259500Y-83264596D01*
X88290661Y-83461340D01*
X88290661Y-83461343D01*
X88352213Y-83650780D01*
X88417342Y-83778602D01*
X88442647Y-83828266D01*
X88559731Y-83989418D01*
X88700582Y-84130269D01*
X88817455Y-84215182D01*
X88860121Y-84270512D01*
X88866100Y-84340125D01*
X88833494Y-84401920D01*
X88772656Y-84436277D01*
X88744573Y-84439500D01*
X88712131Y-84439500D01*
X88712123Y-84439501D01*
X88652516Y-84445908D01*
X88517671Y-84496202D01*
X88517664Y-84496206D01*
X88402455Y-84582452D01*
X88402452Y-84582455D01*
X88316206Y-84697664D01*
X88316202Y-84697671D01*
X88265908Y-84832517D01*
X88259501Y-84892116D01*
X88259501Y-84892123D01*
X88259500Y-84892135D01*
X88259500Y-86517870D01*
X88259501Y-86517876D01*
X88265908Y-86577483D01*
X88316202Y-86712328D01*
X88316206Y-86712335D01*
X88402452Y-86827544D01*
X88402455Y-86827547D01*
X88517664Y-86913793D01*
X88517671Y-86913797D01*
X88652517Y-86964091D01*
X88652516Y-86964091D01*
X88659444Y-86964835D01*
X88712127Y-86970500D01*
X90337872Y-86970499D01*
X90397483Y-86964091D01*
X90532331Y-86913796D01*
X90647546Y-86827546D01*
X90733796Y-86712331D01*
X90784091Y-86577483D01*
X90790500Y-86517873D01*
X90790499Y-84892128D01*
X90784091Y-84832517D01*
X90733796Y-84697669D01*
X90733795Y-84697668D01*
X90733793Y-84697664D01*
X90647547Y-84582455D01*
X90647544Y-84582452D01*
X90532335Y-84496206D01*
X90532328Y-84496202D01*
X90397482Y-84445908D01*
X90397483Y-84445908D01*
X90337883Y-84439501D01*
X90337881Y-84439500D01*
X90337873Y-84439500D01*
X90337865Y-84439500D01*
X90305431Y-84439500D01*
X90238392Y-84419815D01*
X90192637Y-84367011D01*
X90182693Y-84297853D01*
X90211718Y-84234297D01*
X90232543Y-84215183D01*
X90349418Y-84130269D01*
X90490269Y-83989418D01*
X90607353Y-83828266D01*
X90697785Y-83650783D01*
X90705735Y-83626316D01*
X90759338Y-83461343D01*
X90759338Y-83461342D01*
X90759339Y-83461339D01*
X90790500Y-83264597D01*
X90790500Y-83065403D01*
X90759339Y-82868661D01*
X90759338Y-82868657D01*
X90759338Y-82868656D01*
X90697786Y-82679219D01*
X90687225Y-82658491D01*
X90607353Y-82501734D01*
X90490269Y-82340582D01*
X90349418Y-82199731D01*
X90188266Y-82082647D01*
X90010780Y-81992213D01*
X89821342Y-81930661D01*
X89673782Y-81907290D01*
X89624597Y-81899500D01*
X89425403Y-81899500D01*
X89359822Y-81909887D01*
X89228659Y-81930661D01*
X89228656Y-81930661D01*
X89039219Y-81992213D01*
X88861733Y-82082647D01*
X88769790Y-82149447D01*
X88700582Y-82199731D01*
X88700580Y-82199733D01*
X88700579Y-82199733D01*
X88559733Y-82340579D01*
X88559733Y-82340580D01*
X88559731Y-82340582D01*
X88527588Y-82384823D01*
X88442647Y-82501733D01*
X88352213Y-82679219D01*
X88290661Y-82868656D01*
X88290661Y-82868659D01*
X88259500Y-83065403D01*
X68000500Y-83065403D01*
X68000500Y-77742434D01*
X68000500Y-77717842D01*
X68000471Y-77717697D01*
X68000473Y-77595237D01*
X67971581Y-77301847D01*
X67961096Y-77249130D01*
X67960035Y-77239709D01*
X67953711Y-77212006D01*
X67914070Y-77012702D01*
X67890463Y-76934879D01*
X67885117Y-76911451D01*
X67871893Y-76873658D01*
X67871137Y-76871165D01*
X67854954Y-76817815D01*
X67828495Y-76730587D01*
X67785568Y-76626949D01*
X67773916Y-76593645D01*
X67758606Y-76561853D01*
X67725079Y-76480908D01*
X67715679Y-76458214D01*
X67646424Y-76328645D01*
X67646424Y-76328644D01*
X67645190Y-76326335D01*
X67627831Y-76290288D01*
X67615049Y-76269946D01*
X67576711Y-76198218D01*
X67463835Y-76029282D01*
X67448700Y-76005194D01*
X67442778Y-75997767D01*
X67439875Y-75993423D01*
X67412930Y-75953095D01*
X67225908Y-75725203D01*
X67225899Y-75725194D01*
X67180215Y-75679509D01*
X67121674Y-75620967D01*
X67121675Y-75620967D01*
X67121321Y-75620614D01*
X64881200Y-73380493D01*
X64877002Y-73376084D01*
X64699715Y-73180474D01*
X64694646Y-73174514D01*
X64657608Y-73128069D01*
X64654991Y-73124667D01*
X64513434Y-72933796D01*
X64508047Y-72925913D01*
X64492236Y-72900749D01*
X64490872Y-72898527D01*
X64357815Y-72676531D01*
X64352082Y-72665804D01*
X64231436Y-72410712D01*
X64226786Y-72399485D01*
X64226782Y-72399474D01*
X64131726Y-72133798D01*
X64128194Y-72122153D01*
X64108158Y-72042162D01*
X64065301Y-71871060D01*
X64064712Y-71868596D01*
X64058089Y-71839575D01*
X64056328Y-71830212D01*
X64021467Y-71595182D01*
X64020911Y-71590911D01*
X64018410Y-71568712D01*
X64014254Y-71531829D01*
X64013628Y-71524087D01*
X64000648Y-71259792D01*
X64000500Y-71253730D01*
X64000500Y-68137860D01*
X65499500Y-68137860D01*
X65499500Y-68462139D01*
X65531284Y-68784857D01*
X65531287Y-68784874D01*
X65594545Y-69102902D01*
X65594548Y-69102913D01*
X65688686Y-69413247D01*
X65812786Y-69712849D01*
X65812788Y-69712854D01*
X65965646Y-69998830D01*
X65965657Y-69998848D01*
X66145811Y-70268467D01*
X66145821Y-70268481D01*
X66351546Y-70519158D01*
X66580841Y-70748453D01*
X66580846Y-70748457D01*
X66580847Y-70748458D01*
X66831524Y-70954183D01*
X67101158Y-71134347D01*
X67101167Y-71134352D01*
X67101169Y-71134353D01*
X67387145Y-71287211D01*
X67387147Y-71287211D01*
X67387153Y-71287215D01*
X67686754Y-71411314D01*
X67997077Y-71505449D01*
X67997083Y-71505450D01*
X67997086Y-71505451D01*
X67997097Y-71505454D01*
X68196528Y-71545122D01*
X68315132Y-71568714D01*
X68637857Y-71600500D01*
X68637860Y-71600500D01*
X68962140Y-71600500D01*
X68962143Y-71600500D01*
X69284868Y-71568714D01*
X69442295Y-71537399D01*
X69602902Y-71505454D01*
X69602913Y-71505451D01*
X69602913Y-71505450D01*
X69602923Y-71505449D01*
X69913246Y-71411314D01*
X70212847Y-71287215D01*
X70498842Y-71134347D01*
X70768476Y-70954183D01*
X71019153Y-70748458D01*
X71248458Y-70519153D01*
X71454183Y-70268476D01*
X71634347Y-69998842D01*
X71787215Y-69712847D01*
X71911314Y-69413246D01*
X72005449Y-69102923D01*
X72005451Y-69102913D01*
X72005454Y-69102902D01*
X72045244Y-68902860D01*
X72068714Y-68784868D01*
X72100500Y-68462143D01*
X72100500Y-68137857D01*
X72068714Y-67815132D01*
X72035768Y-67649500D01*
X72005454Y-67497097D01*
X72005451Y-67497086D01*
X72005450Y-67497083D01*
X72005449Y-67497077D01*
X71911314Y-67186754D01*
X71787215Y-66887153D01*
X71745413Y-66808948D01*
X71634353Y-66601169D01*
X71634352Y-66601167D01*
X71634347Y-66601158D01*
X71454183Y-66331524D01*
X71248458Y-66080847D01*
X71248457Y-66080846D01*
X71248453Y-66080841D01*
X71019158Y-65851546D01*
X70768481Y-65645821D01*
X70768480Y-65645820D01*
X70768476Y-65645817D01*
X70498842Y-65465653D01*
X70498837Y-65465650D01*
X70498830Y-65465646D01*
X70212854Y-65312788D01*
X70212849Y-65312786D01*
X69913247Y-65188686D01*
X69602913Y-65094548D01*
X69602902Y-65094545D01*
X69284874Y-65031287D01*
X69284857Y-65031284D01*
X69040812Y-65007248D01*
X68962143Y-64999500D01*
X68637857Y-64999500D01*
X68565099Y-65006666D01*
X68315142Y-65031284D01*
X68315125Y-65031287D01*
X67997097Y-65094545D01*
X67997086Y-65094548D01*
X67686752Y-65188686D01*
X67387150Y-65312786D01*
X67387145Y-65312788D01*
X67101169Y-65465646D01*
X67101151Y-65465657D01*
X66831532Y-65645811D01*
X66831518Y-65645821D01*
X66580841Y-65851546D01*
X66351546Y-66080841D01*
X66145821Y-66331518D01*
X66145811Y-66331532D01*
X65965657Y-66601151D01*
X65965646Y-66601169D01*
X65812788Y-66887145D01*
X65812786Y-66887150D01*
X65688686Y-67186752D01*
X65594548Y-67497086D01*
X65594545Y-67497097D01*
X65531287Y-67815125D01*
X65531284Y-67815142D01*
X65506666Y-68065099D01*
X65503511Y-68097139D01*
X65499500Y-68137860D01*
X64000500Y-68137860D01*
X64000500Y-67502871D01*
X64000632Y-67497145D01*
X64009051Y-67315046D01*
X64015775Y-67169593D01*
X64016237Y-67163210D01*
X64023615Y-67088293D01*
X64024205Y-67083341D01*
X64026206Y-67068996D01*
X64064177Y-66796789D01*
X64065358Y-66789804D01*
X64079054Y-66720949D01*
X64079926Y-66716931D01*
X64147563Y-66429354D01*
X64149584Y-66421840D01*
X64167106Y-66364078D01*
X64168118Y-66360907D01*
X64265364Y-66070764D01*
X64268334Y-66062829D01*
X64284810Y-66023052D01*
X64285843Y-66020639D01*
X64416616Y-65724466D01*
X64420678Y-65716128D01*
X64426153Y-65705884D01*
X64427047Y-65704246D01*
X64596772Y-65399534D01*
X64602794Y-65389809D01*
X64805103Y-65094472D01*
X64811985Y-65085360D01*
X65040682Y-64809951D01*
X65048376Y-64801511D01*
X65301511Y-64548376D01*
X65309951Y-64540682D01*
X65585360Y-64311985D01*
X65594472Y-64305103D01*
X65889821Y-64102785D01*
X65899534Y-64096772D01*
X66204246Y-63927047D01*
X66205884Y-63926153D01*
X66216145Y-63920668D01*
X66224466Y-63916616D01*
X66520639Y-63785843D01*
X66523052Y-63784810D01*
X66562829Y-63768334D01*
X66570764Y-63765364D01*
X66860907Y-63668118D01*
X66864078Y-63667106D01*
X66921840Y-63649584D01*
X66929354Y-63647563D01*
X67216931Y-63579926D01*
X67220949Y-63579054D01*
X67289804Y-63565358D01*
X67296789Y-63564177D01*
X67583360Y-63524202D01*
X67588293Y-63523615D01*
X67663210Y-63516237D01*
X67669593Y-63515775D01*
X67967706Y-63501992D01*
X67997146Y-63500632D01*
X68002872Y-63500500D01*
X113709481Y-63500500D01*
X113776520Y-63520185D01*
G37*
%TD.AperFunction*%
%TA.AperFunction,Conductor*%
G36*
X141250439Y-98625572D02*
G01*
X141294788Y-98654073D01*
X148704545Y-106063830D01*
X148711041Y-106070847D01*
X148715855Y-106076468D01*
X148764142Y-106148733D01*
X148851267Y-106235858D01*
X148851270Y-106235860D01*
X148858993Y-106243583D01*
X149736016Y-107120606D01*
X149736045Y-107120637D01*
X149826263Y-107210855D01*
X149826267Y-107210858D01*
X149928707Y-107279307D01*
X149928713Y-107279310D01*
X149928714Y-107279311D01*
X150042548Y-107326463D01*
X150102971Y-107338481D01*
X150163393Y-107350500D01*
X150163394Y-107350500D01*
X153975500Y-107350500D01*
X154042539Y-107370185D01*
X154088294Y-107422989D01*
X154099500Y-107474500D01*
X154099500Y-107588695D01*
X154134103Y-107762658D01*
X154134106Y-107762667D01*
X154201983Y-107926540D01*
X154201990Y-107926553D01*
X154300535Y-108074034D01*
X154300538Y-108074038D01*
X154425961Y-108199461D01*
X154425965Y-108199464D01*
X154573446Y-108298009D01*
X154573459Y-108298016D01*
X154696363Y-108348923D01*
X154737334Y-108365894D01*
X154737336Y-108365894D01*
X154737341Y-108365896D01*
X154911304Y-108400499D01*
X154911307Y-108400500D01*
X154911309Y-108400500D01*
X155088693Y-108400500D01*
X155088694Y-108400499D01*
X155146682Y-108388964D01*
X155262658Y-108365896D01*
X155262661Y-108365894D01*
X155262666Y-108365894D01*
X155422957Y-108299500D01*
X155426540Y-108298016D01*
X155426540Y-108298015D01*
X155426547Y-108298013D01*
X155574035Y-108199464D01*
X155611679Y-108161820D01*
X155638609Y-108147114D01*
X155664426Y-108130523D01*
X155670624Y-108129631D01*
X155673001Y-108128334D01*
X155699361Y-108125500D01*
X155750500Y-108125500D01*
X155817539Y-108145185D01*
X155863294Y-108197989D01*
X155874500Y-108249500D01*
X155874500Y-112750500D01*
X155854815Y-112817539D01*
X155802011Y-112863294D01*
X155750500Y-112874500D01*
X151699361Y-112874500D01*
X151632322Y-112854815D01*
X151611679Y-112838180D01*
X151574038Y-112800538D01*
X151574034Y-112800535D01*
X151426553Y-112701990D01*
X151426540Y-112701983D01*
X151262667Y-112634106D01*
X151262658Y-112634103D01*
X151088694Y-112599500D01*
X151088691Y-112599500D01*
X150911309Y-112599500D01*
X150911306Y-112599500D01*
X150737341Y-112634103D01*
X150737332Y-112634106D01*
X150573459Y-112701983D01*
X150573446Y-112701990D01*
X150425965Y-112800535D01*
X150425961Y-112800538D01*
X150300538Y-112925961D01*
X150300535Y-112925965D01*
X150201990Y-113073446D01*
X150201983Y-113073459D01*
X150134106Y-113237332D01*
X150134103Y-113237341D01*
X150099500Y-113411304D01*
X150099500Y-113411309D01*
X150099500Y-113588691D01*
X150099500Y-113588693D01*
X150099499Y-113588693D01*
X150126874Y-113726308D01*
X150120647Y-113795900D01*
X150077784Y-113851077D01*
X150011895Y-113874322D01*
X150005257Y-113874500D01*
X148699361Y-113874500D01*
X148632322Y-113854815D01*
X148611679Y-113838180D01*
X148574038Y-113800538D01*
X148574034Y-113800535D01*
X148426553Y-113701990D01*
X148426540Y-113701983D01*
X148262667Y-113634106D01*
X148262658Y-113634103D01*
X148088694Y-113599500D01*
X148088691Y-113599500D01*
X147911309Y-113599500D01*
X147911306Y-113599500D01*
X147737341Y-113634103D01*
X147737332Y-113634106D01*
X147573459Y-113701983D01*
X147573446Y-113701990D01*
X147425965Y-113800535D01*
X147425961Y-113800538D01*
X147300538Y-113925961D01*
X147300535Y-113925965D01*
X147201990Y-114073446D01*
X147201983Y-114073459D01*
X147134106Y-114237332D01*
X147134103Y-114237341D01*
X147099500Y-114411304D01*
X147099500Y-114588690D01*
X147099499Y-114588693D01*
X147126874Y-114726308D01*
X147120647Y-114795900D01*
X147077784Y-114851077D01*
X147011895Y-114874322D01*
X147005257Y-114874500D01*
X146699361Y-114874500D01*
X146632322Y-114854815D01*
X146611679Y-114838180D01*
X146574038Y-114800538D01*
X146574034Y-114800535D01*
X146426553Y-114701990D01*
X146426540Y-114701983D01*
X146262667Y-114634106D01*
X146262658Y-114634103D01*
X146088694Y-114599500D01*
X146088691Y-114599500D01*
X145911309Y-114599500D01*
X145911306Y-114599500D01*
X145737341Y-114634103D01*
X145737332Y-114634106D01*
X145573459Y-114701983D01*
X145568078Y-114704860D01*
X145567533Y-114703840D01*
X145506768Y-114722861D01*
X145439390Y-114704371D01*
X145392704Y-114652388D01*
X145382949Y-114623072D01*
X145365896Y-114537341D01*
X145365893Y-114537332D01*
X145357019Y-114515909D01*
X145319764Y-114425965D01*
X145298016Y-114373459D01*
X145298009Y-114373446D01*
X145199464Y-114225965D01*
X145199461Y-114225961D01*
X145074038Y-114100538D01*
X145074034Y-114100535D01*
X144926553Y-114001990D01*
X144926540Y-114001983D01*
X144762667Y-113934106D01*
X144762658Y-113934103D01*
X144588694Y-113899500D01*
X144588691Y-113899500D01*
X144411309Y-113899500D01*
X144411306Y-113899500D01*
X144237341Y-113934103D01*
X144237332Y-113934106D01*
X144073459Y-114001983D01*
X144073446Y-114001990D01*
X143925965Y-114100535D01*
X143925961Y-114100538D01*
X143800538Y-114225961D01*
X143800535Y-114225965D01*
X143701990Y-114373446D01*
X143701983Y-114373459D01*
X143634106Y-114537332D01*
X143634103Y-114537341D01*
X143599500Y-114711304D01*
X143599500Y-114888695D01*
X143634103Y-115062658D01*
X143634106Y-115062667D01*
X143701983Y-115226540D01*
X143701990Y-115226553D01*
X143800534Y-115374033D01*
X143800535Y-115374034D01*
X143800536Y-115374035D01*
X143813180Y-115386679D01*
X143846665Y-115447999D01*
X143849500Y-115474361D01*
X143849500Y-115564069D01*
X143849500Y-115564071D01*
X143849499Y-115564071D01*
X143874497Y-115689738D01*
X143874499Y-115689744D01*
X143913015Y-115782731D01*
X143923535Y-115808127D01*
X143954305Y-115854178D01*
X143994726Y-115914673D01*
X143994727Y-115914674D01*
X144242873Y-116162819D01*
X144276358Y-116224142D01*
X144271374Y-116293833D01*
X144229503Y-116349767D01*
X144164038Y-116374184D01*
X144155192Y-116374500D01*
X142310452Y-116374500D01*
X142243413Y-116354815D01*
X142222771Y-116338181D01*
X138661819Y-112777229D01*
X138647115Y-112750301D01*
X138630523Y-112724483D01*
X138629631Y-112718282D01*
X138628334Y-112715906D01*
X138625500Y-112689548D01*
X138625500Y-112494743D01*
X138645185Y-112427704D01*
X138697989Y-112381949D01*
X138767147Y-112372005D01*
X138773688Y-112373125D01*
X138787879Y-112375948D01*
X138911306Y-112400500D01*
X138911309Y-112400500D01*
X139088693Y-112400500D01*
X139088694Y-112400499D01*
X139181953Y-112381949D01*
X139262658Y-112365896D01*
X139262661Y-112365894D01*
X139262666Y-112365894D01*
X139402535Y-112307958D01*
X139426540Y-112298016D01*
X139426540Y-112298015D01*
X139426547Y-112298013D01*
X139574035Y-112199464D01*
X139611679Y-112161820D01*
X139673001Y-112128334D01*
X139699361Y-112125500D01*
X150800639Y-112125500D01*
X150867678Y-112145185D01*
X150888321Y-112161820D01*
X150925961Y-112199461D01*
X150925965Y-112199464D01*
X151073446Y-112298009D01*
X151073459Y-112298016D01*
X151196363Y-112348923D01*
X151237334Y-112365894D01*
X151237336Y-112365894D01*
X151237341Y-112365896D01*
X151411304Y-112400499D01*
X151411307Y-112400500D01*
X151411309Y-112400500D01*
X151588693Y-112400500D01*
X151588694Y-112400499D01*
X151681953Y-112381949D01*
X151762658Y-112365896D01*
X151762661Y-112365894D01*
X151762666Y-112365894D01*
X151902535Y-112307958D01*
X151926540Y-112298016D01*
X151926540Y-112298015D01*
X151926547Y-112298013D01*
X152074035Y-112199464D01*
X152199464Y-112074035D01*
X152298013Y-111926547D01*
X152365894Y-111762666D01*
X152369150Y-111746300D01*
X152388964Y-111646682D01*
X152400500Y-111588691D01*
X152400500Y-111411309D01*
X152400500Y-111411306D01*
X152400499Y-111411304D01*
X152365896Y-111237341D01*
X152365893Y-111237332D01*
X152298016Y-111073459D01*
X152298009Y-111073446D01*
X152199464Y-110925965D01*
X152199461Y-110925961D01*
X152074038Y-110800538D01*
X152074034Y-110800535D01*
X151926553Y-110701990D01*
X151926540Y-110701983D01*
X151762667Y-110634106D01*
X151762658Y-110634103D01*
X151588694Y-110599500D01*
X151588691Y-110599500D01*
X151411309Y-110599500D01*
X151411306Y-110599500D01*
X151237341Y-110634103D01*
X151237332Y-110634106D01*
X151073459Y-110701983D01*
X151073446Y-110701990D01*
X150925965Y-110800535D01*
X150925961Y-110800538D01*
X150888321Y-110838180D01*
X150826999Y-110871666D01*
X150800639Y-110874500D01*
X139699361Y-110874500D01*
X139632322Y-110854815D01*
X139611679Y-110838180D01*
X139574038Y-110800538D01*
X139574034Y-110800535D01*
X139426553Y-110701990D01*
X139426540Y-110701983D01*
X139262667Y-110634106D01*
X139262658Y-110634103D01*
X139088694Y-110599500D01*
X139088691Y-110599500D01*
X138911309Y-110599500D01*
X138911304Y-110599500D01*
X138773691Y-110626873D01*
X138704099Y-110620646D01*
X138648922Y-110577783D01*
X138625678Y-110511893D01*
X138625500Y-110505256D01*
X138625500Y-100810452D01*
X138645185Y-100743413D01*
X138661819Y-100722771D01*
X140447771Y-98936819D01*
X140509094Y-98903334D01*
X140535452Y-98900500D01*
X140588693Y-98900500D01*
X140588694Y-98900499D01*
X140646682Y-98888964D01*
X140762658Y-98865896D01*
X140762661Y-98865894D01*
X140762666Y-98865894D01*
X140926547Y-98798013D01*
X141074035Y-98699464D01*
X141119425Y-98654074D01*
X141180748Y-98620588D01*
X141250439Y-98625572D01*
G37*
%TD.AperFunction*%
%TA.AperFunction,Conductor*%
G36*
X164256587Y-94645185D02*
G01*
X164277229Y-94661819D01*
X169563181Y-99947771D01*
X169596666Y-100009094D01*
X169599500Y-100035452D01*
X169599500Y-100088695D01*
X169634103Y-100262658D01*
X169634106Y-100262665D01*
X169701983Y-100426540D01*
X169701990Y-100426553D01*
X169800535Y-100574034D01*
X169800538Y-100574038D01*
X169864319Y-100637819D01*
X169897804Y-100699142D01*
X169892820Y-100768834D01*
X169850948Y-100824767D01*
X169785484Y-100849184D01*
X169776638Y-100849500D01*
X155999716Y-100849500D01*
X155932677Y-100829815D01*
X155886922Y-100777011D01*
X155876978Y-100707853D01*
X155878099Y-100701308D01*
X155900500Y-100588693D01*
X155900500Y-100411306D01*
X155900499Y-100411304D01*
X155865896Y-100237341D01*
X155865893Y-100237332D01*
X155798016Y-100073459D01*
X155798009Y-100073446D01*
X155699464Y-99925965D01*
X155699461Y-99925961D01*
X155574038Y-99800538D01*
X155574034Y-99800535D01*
X155426553Y-99701990D01*
X155426540Y-99701983D01*
X155262667Y-99634106D01*
X155262658Y-99634103D01*
X155088694Y-99599500D01*
X155088691Y-99599500D01*
X154911309Y-99599500D01*
X154911306Y-99599500D01*
X154737341Y-99634103D01*
X154737332Y-99634106D01*
X154573459Y-99701983D01*
X154573446Y-99701990D01*
X154425965Y-99800535D01*
X154425961Y-99800538D01*
X154388321Y-99838180D01*
X154326999Y-99871666D01*
X154300639Y-99874500D01*
X153699361Y-99874500D01*
X153632322Y-99854815D01*
X153611679Y-99838180D01*
X153574038Y-99800538D01*
X153574034Y-99800535D01*
X153426553Y-99701990D01*
X153426540Y-99701983D01*
X153262667Y-99634106D01*
X153262658Y-99634103D01*
X153088694Y-99599500D01*
X153088691Y-99599500D01*
X152911309Y-99599500D01*
X152911306Y-99599500D01*
X152737341Y-99634103D01*
X152737332Y-99634106D01*
X152573459Y-99701983D01*
X152573446Y-99701990D01*
X152425965Y-99800535D01*
X152425961Y-99800538D01*
X152300538Y-99925961D01*
X152300535Y-99925965D01*
X152201990Y-100073446D01*
X152201983Y-100073459D01*
X152134106Y-100237332D01*
X152134103Y-100237341D01*
X152099500Y-100411304D01*
X152099500Y-100411309D01*
X152099500Y-100588691D01*
X152099500Y-100588693D01*
X152099499Y-100588693D01*
X152121901Y-100701308D01*
X152115674Y-100770900D01*
X152072811Y-100826077D01*
X152006922Y-100849322D01*
X152000284Y-100849500D01*
X146774500Y-100849500D01*
X146707461Y-100829815D01*
X146661706Y-100777011D01*
X146650500Y-100725500D01*
X146650500Y-94999716D01*
X146670185Y-94932677D01*
X146722989Y-94886922D01*
X146792147Y-94876978D01*
X146798692Y-94878099D01*
X146911306Y-94900500D01*
X146911309Y-94900500D01*
X147088693Y-94900500D01*
X147088694Y-94900499D01*
X147156952Y-94886922D01*
X147262658Y-94865896D01*
X147262661Y-94865894D01*
X147262666Y-94865894D01*
X147426547Y-94798013D01*
X147574035Y-94699464D01*
X147611679Y-94661820D01*
X147673001Y-94628334D01*
X147699361Y-94625500D01*
X164189548Y-94625500D01*
X164256587Y-94645185D01*
G37*
%TD.AperFunction*%
%TD*%
M02*
