M48
; DRILL file {KiCad 8.0.2} date 2024-07-09T10:44:45+0200
; FORMAT={-:-/ absolute / inch / decimal}
; #@! TF.CreationDate,2024-07-09T10:44:45+02:00
; #@! TF.GenerationSoftware,Kicad,Pcbnew,8.0.2
; #@! TF.FileFunction,Plated,1,2,PTH
FMAT,2
INCH
; #@! TA.AperFunction,Plated,PTH,ComponentDrill
T1C0.0197
; #@! TA.AperFunction,Plated,PTH,ViaDrill
T2C0.0236
; #@! TA.AperFunction,Plated,PTH,ComponentDrill
T3C0.0394
; #@! TA.AperFunction,Plated,PTH,ComponentDrill
T4C0.0453
; #@! TA.AperFunction,Plated,PTH,ComponentDrill
T5C0.0469
; #@! TA.AperFunction,Plated,PTH,ComponentDrill
T6C0.0472
%
G90
G05
T1
X5.6902Y-3.7323
X6.0146Y-3.7323
T2
X4.0551Y-3.6024
X4.1339Y-3.2677
X4.252Y-2.3622
X4.3504Y-3.622
X4.3701Y-3.1693
X4.4094Y-2.0472
X4.4094Y-3.4449
X4.4291Y-3.3661
X4.4488Y-3.2874
X4.5866Y-3.0906
X4.6063Y-3.248
X4.626Y-2.0276
X4.626Y-3.1299
X4.626Y-3.189
X4.7441Y-3.4055
X4.8228Y-3.3268
X4.8425Y-3.248
X4.8807Y-2.4815
X4.8819Y-2.4213
X4.8819Y-2.6181
X4.8819Y-3.189
X4.9016Y-2.7559
X5.0Y-3.0118
X5.0787Y-2.3425
X5.0787Y-3.3071
X5.0984Y-2.6181
X5.1772Y-2.6378
X5.3346Y-2.815
X5.4724Y-2.1654
X5.4724Y-2.2224
X5.4724Y-2.3031
X5.5642Y-2.2976
X5.6693Y-2.2638
X5.7283Y-3.6614
X5.7677Y-2.4016
X5.9843Y-3.6614
T3
X4.2665Y-1.8201
X4.2665Y-1.9201
X4.3665Y-1.8201
X4.3665Y-1.9201
X4.4665Y-1.8201
X4.4665Y-1.9201
X4.5665Y-1.8201
X4.5665Y-1.9201
X4.6665Y-1.8201
X4.6665Y-1.9201
X4.7665Y-1.8201
X4.7665Y-1.9201
X4.8665Y-1.8201
X4.8665Y-1.9201
X4.9665Y-1.8201
X4.9665Y-1.9201
X5.0665Y-1.8201
X5.0665Y-1.9201
X5.1665Y-1.8201
X5.1665Y-1.9201
X5.2665Y-1.8201
X5.2665Y-1.9201
X5.3665Y-1.8201
X5.3665Y-1.9201
X5.4665Y-1.8201
X5.4665Y-1.9201
X5.5665Y-1.8201
X5.5665Y-1.9201
X5.6665Y-1.8201
X5.6665Y-1.9201
X5.7665Y-1.8201
X5.7665Y-1.9201
X5.8665Y-1.8201
X5.8665Y-1.9201
X5.9665Y-1.8201
X5.9665Y-1.9201
X6.0665Y-1.8201
X6.0665Y-1.9201
X6.1665Y-1.8201
X6.1665Y-1.9201
T4
X4.682Y-2.5075
X4.682Y-2.6075
X4.682Y-2.7075
X4.682Y-2.8075
X4.9091Y-3.3691
X5.0091Y-3.3691
X5.1091Y-3.3691
X5.2091Y-3.3691
T5
X4.3307Y-2.1457
X4.3307Y-2.2457
X4.3988Y-3.7345
X4.4988Y-3.7345
T6
X5.4843Y-2.6472
X5.4843Y-3.4472
X5.6299Y-3.7441
X5.6299Y-3.9016
X5.7843Y-3.4472
X5.8843Y-2.6472
X5.9843Y-3.4472
X6.0748Y-3.7441
X6.0748Y-3.9016
X6.2843Y-2.6472
M30
