%TF.GenerationSoftware,KiCad,Pcbnew,8.0.2*%
%TF.CreationDate,2024-07-09T10:44:44+02:00*%
%TF.ProjectId,AMS Dongle,414d5320-446f-46e6-976c-652e6b696361,rev?*%
%TF.SameCoordinates,Original*%
%TF.FileFunction,Drillmap*%
%TF.FilePolarity,Positive*%
%FSLAX45Y45*%
G04 Gerber Fmt 4.5, Leading zero omitted, Abs format (unit mm)*
G04 Created by KiCad (PCBNEW 8.0.2) date 2024-07-09 10:44:44*
%MOMM*%
%LPD*%
G01*
G04 APERTURE LIST*
%ADD10C,0.100000*%
%ADD11C,0.200000*%
%ADD12C,0.115000*%
%ADD13C,0.119000*%
%ADD14C,0.120000*%
G04 APERTURE END LIST*
D10*
X11800000Y-10250000D02*
G75*
G02*
X11550000Y-10500000I-250000J0D01*
G01*
X10550000Y-10000000D02*
G75*
G02*
X10800000Y-10250000I0J-250000D01*
G01*
X11800000Y-10250000D02*
G75*
G02*
X12050000Y-10000000I250000J0D01*
G01*
X16200000Y-4400000D02*
G75*
G02*
X16500000Y-4700000I0J-300000D01*
G01*
X16500000Y-9700000D02*
X16500000Y-4700000D01*
X14425000Y-9700000D02*
X15305000Y-9700000D01*
X10000000Y-4700000D02*
X10000000Y-6300000D01*
X13400000Y-10250000D02*
G75*
G02*
X13150000Y-10500000I-250000J0D01*
G01*
X12550000Y-10500000D02*
X13150000Y-10500000D01*
X10000000Y-6300000D02*
X10000000Y-8100000D01*
X14387500Y-9737500D02*
G75*
G02*
X14425000Y-9700000I37500J0D01*
G01*
X14387500Y-9965000D02*
X14387500Y-9737500D01*
X10300000Y-10000000D02*
G75*
G02*
X10000000Y-9700000I0J300000D01*
G01*
X14387500Y-9965000D02*
G75*
G02*
X14352500Y-10000000I-35000J0D01*
G01*
X12550000Y-10500000D02*
G75*
G02*
X12300000Y-10250000I0J250000D01*
G01*
X16050000Y-10000000D02*
X15592500Y-10000000D01*
X11050000Y-10500000D02*
X11550000Y-10500000D01*
X13650000Y-10000000D02*
X14137500Y-10000000D01*
X10300000Y-10000000D02*
X10550000Y-10000000D01*
X13400000Y-10250000D02*
G75*
G02*
X13650000Y-10000000I250000J0D01*
G01*
X14352500Y-10000000D02*
X14137500Y-10000000D01*
X15592500Y-10000000D02*
X15377500Y-10000000D01*
X12050000Y-10000000D02*
G75*
G02*
X12300000Y-10250000I0J-250000D01*
G01*
X11050000Y-10500000D02*
G75*
G02*
X10800000Y-10250000I0J250000D01*
G01*
X16050000Y-10000000D02*
X16200000Y-10000000D01*
X15342500Y-9965000D02*
X15342500Y-9737500D01*
X16500000Y-9700000D02*
G75*
G02*
X16200000Y-10000000I-300000J0D01*
G01*
X10000000Y-4700000D02*
G75*
G02*
X10300000Y-4400000I300000J0D01*
G01*
X15377500Y-10000000D02*
G75*
G02*
X15342500Y-9965000I0J35000D01*
G01*
X10000000Y-8100000D02*
X10000000Y-9700000D01*
X15305000Y-9700000D02*
G75*
G02*
X15342500Y-9737500I0J-37500D01*
G01*
X16200000Y-4400000D02*
X10300000Y-4400000D01*
D11*
D10*
X14428000Y-9455000D02*
X14478000Y-9505000D01*
X14478000Y-9455000D02*
X14428000Y-9505000D01*
X15252000Y-9455000D02*
X15302000Y-9505000D01*
X15302000Y-9455000D02*
X15252000Y-9505000D01*
X10330000Y-9150000D02*
G75*
G02*
X10270000Y-9150000I-30000J0D01*
G01*
X10270000Y-9150000D02*
G75*
G02*
X10330000Y-9150000I30000J0D01*
G01*
X10530000Y-8300000D02*
G75*
G02*
X10470000Y-8300000I-30000J0D01*
G01*
X10470000Y-8300000D02*
G75*
G02*
X10530000Y-8300000I30000J0D01*
G01*
X10830000Y-6000000D02*
G75*
G02*
X10770000Y-6000000I-30000J0D01*
G01*
X10770000Y-6000000D02*
G75*
G02*
X10830000Y-6000000I30000J0D01*
G01*
X11080000Y-9200000D02*
G75*
G02*
X11020000Y-9200000I-30000J0D01*
G01*
X11020000Y-9200000D02*
G75*
G02*
X11080000Y-9200000I30000J0D01*
G01*
X11130000Y-8050000D02*
G75*
G02*
X11070000Y-8050000I-30000J0D01*
G01*
X11070000Y-8050000D02*
G75*
G02*
X11130000Y-8050000I30000J0D01*
G01*
X11230000Y-5200000D02*
G75*
G02*
X11170000Y-5200000I-30000J0D01*
G01*
X11170000Y-5200000D02*
G75*
G02*
X11230000Y-5200000I30000J0D01*
G01*
X11230000Y-8750000D02*
G75*
G02*
X11170000Y-8750000I-30000J0D01*
G01*
X11170000Y-8750000D02*
G75*
G02*
X11230000Y-8750000I30000J0D01*
G01*
X11280000Y-8550000D02*
G75*
G02*
X11220000Y-8550000I-30000J0D01*
G01*
X11220000Y-8550000D02*
G75*
G02*
X11280000Y-8550000I30000J0D01*
G01*
X11330000Y-8350000D02*
G75*
G02*
X11270000Y-8350000I-30000J0D01*
G01*
X11270000Y-8350000D02*
G75*
G02*
X11330000Y-8350000I30000J0D01*
G01*
X11680000Y-7850000D02*
G75*
G02*
X11620000Y-7850000I-30000J0D01*
G01*
X11620000Y-7850000D02*
G75*
G02*
X11680000Y-7850000I30000J0D01*
G01*
X11730000Y-8250000D02*
G75*
G02*
X11670000Y-8250000I-30000J0D01*
G01*
X11670000Y-8250000D02*
G75*
G02*
X11730000Y-8250000I30000J0D01*
G01*
X11780000Y-5150000D02*
G75*
G02*
X11720000Y-5150000I-30000J0D01*
G01*
X11720000Y-5150000D02*
G75*
G02*
X11780000Y-5150000I30000J0D01*
G01*
X11780000Y-7950000D02*
G75*
G02*
X11720000Y-7950000I-30000J0D01*
G01*
X11720000Y-7950000D02*
G75*
G02*
X11780000Y-7950000I30000J0D01*
G01*
X11780000Y-8100000D02*
G75*
G02*
X11720000Y-8100000I-30000J0D01*
G01*
X11720000Y-8100000D02*
G75*
G02*
X11780000Y-8100000I30000J0D01*
G01*
X12080000Y-8650000D02*
G75*
G02*
X12020000Y-8650000I-30000J0D01*
G01*
X12020000Y-8650000D02*
G75*
G02*
X12080000Y-8650000I30000J0D01*
G01*
X12280000Y-8450000D02*
G75*
G02*
X12220000Y-8450000I-30000J0D01*
G01*
X12220000Y-8450000D02*
G75*
G02*
X12280000Y-8450000I30000J0D01*
G01*
X12330000Y-8250000D02*
G75*
G02*
X12270000Y-8250000I-30000J0D01*
G01*
X12270000Y-8250000D02*
G75*
G02*
X12330000Y-8250000I30000J0D01*
G01*
X12426967Y-6303033D02*
G75*
G02*
X12366967Y-6303033I-30000J0D01*
G01*
X12366967Y-6303033D02*
G75*
G02*
X12426967Y-6303033I30000J0D01*
G01*
X12430000Y-6150000D02*
G75*
G02*
X12370000Y-6150000I-30000J0D01*
G01*
X12370000Y-6150000D02*
G75*
G02*
X12430000Y-6150000I30000J0D01*
G01*
X12430000Y-6650000D02*
G75*
G02*
X12370000Y-6650000I-30000J0D01*
G01*
X12370000Y-6650000D02*
G75*
G02*
X12430000Y-6650000I30000J0D01*
G01*
X12430000Y-8100000D02*
G75*
G02*
X12370000Y-8100000I-30000J0D01*
G01*
X12370000Y-8100000D02*
G75*
G02*
X12430000Y-8100000I30000J0D01*
G01*
X12480000Y-7000000D02*
G75*
G02*
X12420000Y-7000000I-30000J0D01*
G01*
X12420000Y-7000000D02*
G75*
G02*
X12480000Y-7000000I30000J0D01*
G01*
X12730000Y-7650000D02*
G75*
G02*
X12670000Y-7650000I-30000J0D01*
G01*
X12670000Y-7650000D02*
G75*
G02*
X12730000Y-7650000I30000J0D01*
G01*
X12930000Y-5950000D02*
G75*
G02*
X12870000Y-5950000I-30000J0D01*
G01*
X12870000Y-5950000D02*
G75*
G02*
X12930000Y-5950000I30000J0D01*
G01*
X12930000Y-8400000D02*
G75*
G02*
X12870000Y-8400000I-30000J0D01*
G01*
X12870000Y-8400000D02*
G75*
G02*
X12930000Y-8400000I30000J0D01*
G01*
X12980000Y-6650000D02*
G75*
G02*
X12920000Y-6650000I-30000J0D01*
G01*
X12920000Y-6650000D02*
G75*
G02*
X12980000Y-6650000I30000J0D01*
G01*
X13180000Y-6700000D02*
G75*
G02*
X13120000Y-6700000I-30000J0D01*
G01*
X13120000Y-6700000D02*
G75*
G02*
X13180000Y-6700000I30000J0D01*
G01*
X13580000Y-7150000D02*
G75*
G02*
X13520000Y-7150000I-30000J0D01*
G01*
X13520000Y-7150000D02*
G75*
G02*
X13580000Y-7150000I30000J0D01*
G01*
X13930000Y-5500000D02*
G75*
G02*
X13870000Y-5500000I-30000J0D01*
G01*
X13870000Y-5500000D02*
G75*
G02*
X13930000Y-5500000I30000J0D01*
G01*
X13930000Y-5645000D02*
G75*
G02*
X13870000Y-5645000I-30000J0D01*
G01*
X13870000Y-5645000D02*
G75*
G02*
X13930000Y-5645000I30000J0D01*
G01*
X13930000Y-5850000D02*
G75*
G02*
X13870000Y-5850000I-30000J0D01*
G01*
X13870000Y-5850000D02*
G75*
G02*
X13930000Y-5850000I30000J0D01*
G01*
X14163110Y-5835798D02*
G75*
G02*
X14103110Y-5835798I-30000J0D01*
G01*
X14103110Y-5835798D02*
G75*
G02*
X14163110Y-5835798I30000J0D01*
G01*
X14430000Y-5750000D02*
G75*
G02*
X14370000Y-5750000I-30000J0D01*
G01*
X14370000Y-5750000D02*
G75*
G02*
X14430000Y-5750000I30000J0D01*
G01*
X14580000Y-9300000D02*
G75*
G02*
X14520000Y-9300000I-30000J0D01*
G01*
X14520000Y-9300000D02*
G75*
G02*
X14580000Y-9300000I30000J0D01*
G01*
X14680000Y-6100000D02*
G75*
G02*
X14620000Y-6100000I-30000J0D01*
G01*
X14620000Y-6100000D02*
G75*
G02*
X14680000Y-6100000I30000J0D01*
G01*
X15230000Y-9300000D02*
G75*
G02*
X15170000Y-9300000I-30000J0D01*
G01*
X15170000Y-9300000D02*
G75*
G02*
X15230000Y-9300000I30000J0D01*
G01*
X10837000Y-4573000D02*
X10837000Y-4673000D01*
X10787000Y-4623000D02*
X10887000Y-4623000D01*
X10837000Y-4827000D02*
X10837000Y-4927000D01*
X10787000Y-4877000D02*
X10887000Y-4877000D01*
X11091000Y-4573000D02*
X11091000Y-4673000D01*
X11041000Y-4623000D02*
X11141000Y-4623000D01*
X11091000Y-4827000D02*
X11091000Y-4927000D01*
X11041000Y-4877000D02*
X11141000Y-4877000D01*
X11345000Y-4573000D02*
X11345000Y-4673000D01*
X11295000Y-4623000D02*
X11395000Y-4623000D01*
X11345000Y-4827000D02*
X11345000Y-4927000D01*
X11295000Y-4877000D02*
X11395000Y-4877000D01*
X11599000Y-4573000D02*
X11599000Y-4673000D01*
X11549000Y-4623000D02*
X11649000Y-4623000D01*
X11599000Y-4827000D02*
X11599000Y-4927000D01*
X11549000Y-4877000D02*
X11649000Y-4877000D01*
X11853000Y-4573000D02*
X11853000Y-4673000D01*
X11803000Y-4623000D02*
X11903000Y-4623000D01*
X11853000Y-4827000D02*
X11853000Y-4927000D01*
X11803000Y-4877000D02*
X11903000Y-4877000D01*
X12107000Y-4573000D02*
X12107000Y-4673000D01*
X12057000Y-4623000D02*
X12157000Y-4623000D01*
X12107000Y-4827000D02*
X12107000Y-4927000D01*
X12057000Y-4877000D02*
X12157000Y-4877000D01*
X12361000Y-4573000D02*
X12361000Y-4673000D01*
X12311000Y-4623000D02*
X12411000Y-4623000D01*
X12361000Y-4827000D02*
X12361000Y-4927000D01*
X12311000Y-4877000D02*
X12411000Y-4877000D01*
X12615000Y-4573000D02*
X12615000Y-4673000D01*
X12565000Y-4623000D02*
X12665000Y-4623000D01*
X12615000Y-4827000D02*
X12615000Y-4927000D01*
X12565000Y-4877000D02*
X12665000Y-4877000D01*
X12869000Y-4573000D02*
X12869000Y-4673000D01*
X12819000Y-4623000D02*
X12919000Y-4623000D01*
X12869000Y-4827000D02*
X12869000Y-4927000D01*
X12819000Y-4877000D02*
X12919000Y-4877000D01*
X13123000Y-4573000D02*
X13123000Y-4673000D01*
X13073000Y-4623000D02*
X13173000Y-4623000D01*
X13123000Y-4827000D02*
X13123000Y-4927000D01*
X13073000Y-4877000D02*
X13173000Y-4877000D01*
X13377000Y-4573000D02*
X13377000Y-4673000D01*
X13327000Y-4623000D02*
X13427000Y-4623000D01*
X13377000Y-4827000D02*
X13377000Y-4927000D01*
X13327000Y-4877000D02*
X13427000Y-4877000D01*
X13631000Y-4573000D02*
X13631000Y-4673000D01*
X13581000Y-4623000D02*
X13681000Y-4623000D01*
X13631000Y-4827000D02*
X13631000Y-4927000D01*
X13581000Y-4877000D02*
X13681000Y-4877000D01*
X13885000Y-4573000D02*
X13885000Y-4673000D01*
X13835000Y-4623000D02*
X13935000Y-4623000D01*
X13885000Y-4827000D02*
X13885000Y-4927000D01*
X13835000Y-4877000D02*
X13935000Y-4877000D01*
X14139000Y-4573000D02*
X14139000Y-4673000D01*
X14089000Y-4623000D02*
X14189000Y-4623000D01*
X14139000Y-4827000D02*
X14139000Y-4927000D01*
X14089000Y-4877000D02*
X14189000Y-4877000D01*
X14393000Y-4573000D02*
X14393000Y-4673000D01*
X14343000Y-4623000D02*
X14443000Y-4623000D01*
X14393000Y-4827000D02*
X14393000Y-4927000D01*
X14343000Y-4877000D02*
X14443000Y-4877000D01*
X14647000Y-4573000D02*
X14647000Y-4673000D01*
X14597000Y-4623000D02*
X14697000Y-4623000D01*
X14647000Y-4827000D02*
X14647000Y-4927000D01*
X14597000Y-4877000D02*
X14697000Y-4877000D01*
X14901000Y-4573000D02*
X14901000Y-4673000D01*
X14851000Y-4623000D02*
X14951000Y-4623000D01*
X14901000Y-4827000D02*
X14901000Y-4927000D01*
X14851000Y-4877000D02*
X14951000Y-4877000D01*
X15155000Y-4573000D02*
X15155000Y-4673000D01*
X15105000Y-4623000D02*
X15205000Y-4623000D01*
X15155000Y-4827000D02*
X15155000Y-4927000D01*
X15105000Y-4877000D02*
X15205000Y-4877000D01*
X15409000Y-4573000D02*
X15409000Y-4673000D01*
X15359000Y-4623000D02*
X15459000Y-4623000D01*
X15409000Y-4827000D02*
X15409000Y-4927000D01*
X15359000Y-4877000D02*
X15459000Y-4877000D01*
X15663000Y-4573000D02*
X15663000Y-4673000D01*
X15613000Y-4623000D02*
X15713000Y-4623000D01*
X15663000Y-4827000D02*
X15663000Y-4927000D01*
X15613000Y-4877000D02*
X15713000Y-4877000D01*
D12*
X11933059Y-6409659D02*
X11933059Y-6328341D01*
X11851741Y-6328341D01*
X11851741Y-6409659D01*
X11933059Y-6409659D01*
X11933059Y-6663659D02*
X11933059Y-6582341D01*
X11851741Y-6582341D01*
X11851741Y-6663659D01*
X11933059Y-6663659D01*
X11933059Y-6917659D02*
X11933059Y-6836341D01*
X11851741Y-6836341D01*
X11851741Y-6917659D01*
X11933059Y-6917659D01*
X11933059Y-7171659D02*
X11933059Y-7090341D01*
X11851741Y-7090341D01*
X11851741Y-7171659D01*
X11933059Y-7171659D01*
X12509659Y-8598259D02*
X12509659Y-8516941D01*
X12428341Y-8516941D01*
X12428341Y-8598259D01*
X12509659Y-8598259D01*
X12763659Y-8598259D02*
X12763659Y-8516941D01*
X12682341Y-8516941D01*
X12682341Y-8598259D01*
X12763659Y-8598259D01*
X13017659Y-8598259D02*
X13017659Y-8516941D01*
X12936341Y-8516941D01*
X12936341Y-8598259D01*
X13017659Y-8598259D01*
X13271659Y-8598259D02*
X13271659Y-8516941D01*
X13190341Y-8516941D01*
X13190341Y-8598259D01*
X13271659Y-8598259D01*
D13*
X11000000Y-5509500D02*
X11059500Y-5450000D01*
X11000000Y-5390500D01*
X10940500Y-5450000D01*
X11000000Y-5509500D01*
X11000000Y-5763500D02*
X11059500Y-5704000D01*
X11000000Y-5644500D01*
X10940500Y-5704000D01*
X11000000Y-5763500D01*
X11173000Y-9545150D02*
X11232500Y-9485650D01*
X11173000Y-9426150D01*
X11113500Y-9485650D01*
X11173000Y-9545150D01*
X11427000Y-9545150D02*
X11486500Y-9485650D01*
X11427000Y-9426150D01*
X11367500Y-9485650D01*
X11427000Y-9545150D01*
D14*
X13870000Y-6664000D02*
X13990000Y-6784000D01*
X13990000Y-6664000D02*
X13870000Y-6784000D01*
X13990000Y-6724000D02*
G75*
G02*
X13870000Y-6724000I-60000J0D01*
G01*
X13870000Y-6724000D02*
G75*
G02*
X13990000Y-6724000I60000J0D01*
G01*
X13870000Y-8696000D02*
X13990000Y-8816000D01*
X13990000Y-8696000D02*
X13870000Y-8816000D01*
X13990000Y-8756000D02*
G75*
G02*
X13870000Y-8756000I-60000J0D01*
G01*
X13870000Y-8756000D02*
G75*
G02*
X13990000Y-8756000I60000J0D01*
G01*
X14240000Y-9450000D02*
X14360000Y-9570000D01*
X14360000Y-9450000D02*
X14240000Y-9570000D01*
X14360000Y-9510000D02*
G75*
G02*
X14240000Y-9510000I-60000J0D01*
G01*
X14240000Y-9510000D02*
G75*
G02*
X14360000Y-9510000I60000J0D01*
G01*
X14240000Y-9850000D02*
X14360000Y-9970000D01*
X14360000Y-9850000D02*
X14240000Y-9970000D01*
X14360000Y-9910000D02*
G75*
G02*
X14240000Y-9910000I-60000J0D01*
G01*
X14240000Y-9910000D02*
G75*
G02*
X14360000Y-9910000I60000J0D01*
G01*
X14632000Y-8696000D02*
X14752000Y-8816000D01*
X14752000Y-8696000D02*
X14632000Y-8816000D01*
X14752000Y-8756000D02*
G75*
G02*
X14632000Y-8756000I-60000J0D01*
G01*
X14632000Y-8756000D02*
G75*
G02*
X14752000Y-8756000I60000J0D01*
G01*
X14886000Y-6664000D02*
X15006000Y-6784000D01*
X15006000Y-6664000D02*
X14886000Y-6784000D01*
X15006000Y-6724000D02*
G75*
G02*
X14886000Y-6724000I-60000J0D01*
G01*
X14886000Y-6724000D02*
G75*
G02*
X15006000Y-6724000I60000J0D01*
G01*
X15140000Y-8696000D02*
X15260000Y-8816000D01*
X15260000Y-8696000D02*
X15140000Y-8816000D01*
X15260000Y-8756000D02*
G75*
G02*
X15140000Y-8756000I-60000J0D01*
G01*
X15140000Y-8756000D02*
G75*
G02*
X15260000Y-8756000I60000J0D01*
G01*
X15370000Y-9450000D02*
X15490000Y-9570000D01*
X15490000Y-9450000D02*
X15370000Y-9570000D01*
X15490000Y-9510000D02*
G75*
G02*
X15370000Y-9510000I-60000J0D01*
G01*
X15370000Y-9510000D02*
G75*
G02*
X15490000Y-9510000I60000J0D01*
G01*
X15370000Y-9850000D02*
X15490000Y-9970000D01*
X15490000Y-9850000D02*
X15370000Y-9970000D01*
X15490000Y-9910000D02*
G75*
G02*
X15370000Y-9910000I-60000J0D01*
G01*
X15370000Y-9910000D02*
G75*
G02*
X15490000Y-9910000I60000J0D01*
G01*
X15902000Y-6664000D02*
X16022000Y-6784000D01*
X16022000Y-6664000D02*
X15902000Y-6784000D01*
X16022000Y-6724000D02*
G75*
G02*
X15902000Y-6724000I-60000J0D01*
G01*
X15902000Y-6724000D02*
G75*
G02*
X16022000Y-6724000I60000J0D01*
G01*
D11*
X10255777Y-10816484D02*
X10255777Y-10616484D01*
X10255777Y-10616484D02*
X10303396Y-10616484D01*
X10303396Y-10616484D02*
X10331967Y-10626008D01*
X10331967Y-10626008D02*
X10351015Y-10645055D01*
X10351015Y-10645055D02*
X10360539Y-10664103D01*
X10360539Y-10664103D02*
X10370063Y-10702198D01*
X10370063Y-10702198D02*
X10370063Y-10730770D01*
X10370063Y-10730770D02*
X10360539Y-10768865D01*
X10360539Y-10768865D02*
X10351015Y-10787912D01*
X10351015Y-10787912D02*
X10331967Y-10806960D01*
X10331967Y-10806960D02*
X10303396Y-10816484D01*
X10303396Y-10816484D02*
X10255777Y-10816484D01*
X10455777Y-10816484D02*
X10455777Y-10683150D01*
X10455777Y-10721246D02*
X10465301Y-10702198D01*
X10465301Y-10702198D02*
X10474824Y-10692674D01*
X10474824Y-10692674D02*
X10493872Y-10683150D01*
X10493872Y-10683150D02*
X10512920Y-10683150D01*
X10579586Y-10816484D02*
X10579586Y-10683150D01*
X10579586Y-10616484D02*
X10570063Y-10626008D01*
X10570063Y-10626008D02*
X10579586Y-10635531D01*
X10579586Y-10635531D02*
X10589110Y-10626008D01*
X10589110Y-10626008D02*
X10579586Y-10616484D01*
X10579586Y-10616484D02*
X10579586Y-10635531D01*
X10703396Y-10816484D02*
X10684348Y-10806960D01*
X10684348Y-10806960D02*
X10674824Y-10787912D01*
X10674824Y-10787912D02*
X10674824Y-10616484D01*
X10808158Y-10816484D02*
X10789110Y-10806960D01*
X10789110Y-10806960D02*
X10779586Y-10787912D01*
X10779586Y-10787912D02*
X10779586Y-10616484D01*
X11036729Y-10816484D02*
X11036729Y-10616484D01*
X11036729Y-10616484D02*
X11103396Y-10759341D01*
X11103396Y-10759341D02*
X11170063Y-10616484D01*
X11170063Y-10616484D02*
X11170063Y-10816484D01*
X11351015Y-10816484D02*
X11351015Y-10711722D01*
X11351015Y-10711722D02*
X11341491Y-10692674D01*
X11341491Y-10692674D02*
X11322443Y-10683150D01*
X11322443Y-10683150D02*
X11284348Y-10683150D01*
X11284348Y-10683150D02*
X11265301Y-10692674D01*
X11351015Y-10806960D02*
X11331967Y-10816484D01*
X11331967Y-10816484D02*
X11284348Y-10816484D01*
X11284348Y-10816484D02*
X11265301Y-10806960D01*
X11265301Y-10806960D02*
X11255777Y-10787912D01*
X11255777Y-10787912D02*
X11255777Y-10768865D01*
X11255777Y-10768865D02*
X11265301Y-10749817D01*
X11265301Y-10749817D02*
X11284348Y-10740293D01*
X11284348Y-10740293D02*
X11331967Y-10740293D01*
X11331967Y-10740293D02*
X11351015Y-10730770D01*
X11446253Y-10683150D02*
X11446253Y-10883150D01*
X11446253Y-10692674D02*
X11465301Y-10683150D01*
X11465301Y-10683150D02*
X11503396Y-10683150D01*
X11503396Y-10683150D02*
X11522443Y-10692674D01*
X11522443Y-10692674D02*
X11531967Y-10702198D01*
X11531967Y-10702198D02*
X11541491Y-10721246D01*
X11541491Y-10721246D02*
X11541491Y-10778389D01*
X11541491Y-10778389D02*
X11531967Y-10797436D01*
X11531967Y-10797436D02*
X11522443Y-10806960D01*
X11522443Y-10806960D02*
X11503396Y-10816484D01*
X11503396Y-10816484D02*
X11465301Y-10816484D01*
X11465301Y-10816484D02*
X11446253Y-10806960D01*
X11627205Y-10797436D02*
X11636729Y-10806960D01*
X11636729Y-10806960D02*
X11627205Y-10816484D01*
X11627205Y-10816484D02*
X11617682Y-10806960D01*
X11617682Y-10806960D02*
X11627205Y-10797436D01*
X11627205Y-10797436D02*
X11627205Y-10816484D01*
X11627205Y-10692674D02*
X11636729Y-10702198D01*
X11636729Y-10702198D02*
X11627205Y-10711722D01*
X11627205Y-10711722D02*
X11617682Y-10702198D01*
X11617682Y-10702198D02*
X11627205Y-10692674D01*
X11627205Y-10692674D02*
X11627205Y-10711722D01*
D10*
X9945000Y-11120000D02*
X9995000Y-11170000D01*
X9995000Y-11120000D02*
X9945000Y-11170000D01*
D11*
X10293872Y-11036484D02*
X10312920Y-11036484D01*
X10312920Y-11036484D02*
X10331967Y-11046008D01*
X10331967Y-11046008D02*
X10341491Y-11055531D01*
X10341491Y-11055531D02*
X10351015Y-11074579D01*
X10351015Y-11074579D02*
X10360539Y-11112674D01*
X10360539Y-11112674D02*
X10360539Y-11160293D01*
X10360539Y-11160293D02*
X10351015Y-11198388D01*
X10351015Y-11198388D02*
X10341491Y-11217436D01*
X10341491Y-11217436D02*
X10331967Y-11226960D01*
X10331967Y-11226960D02*
X10312920Y-11236484D01*
X10312920Y-11236484D02*
X10293872Y-11236484D01*
X10293872Y-11236484D02*
X10274824Y-11226960D01*
X10274824Y-11226960D02*
X10265301Y-11217436D01*
X10265301Y-11217436D02*
X10255777Y-11198388D01*
X10255777Y-11198388D02*
X10246253Y-11160293D01*
X10246253Y-11160293D02*
X10246253Y-11112674D01*
X10246253Y-11112674D02*
X10255777Y-11074579D01*
X10255777Y-11074579D02*
X10265301Y-11055531D01*
X10265301Y-11055531D02*
X10274824Y-11046008D01*
X10274824Y-11046008D02*
X10293872Y-11036484D01*
X10446253Y-11217436D02*
X10455777Y-11226960D01*
X10455777Y-11226960D02*
X10446253Y-11236484D01*
X10446253Y-11236484D02*
X10436729Y-11226960D01*
X10436729Y-11226960D02*
X10446253Y-11217436D01*
X10446253Y-11217436D02*
X10446253Y-11236484D01*
X10636729Y-11036484D02*
X10541491Y-11036484D01*
X10541491Y-11036484D02*
X10531967Y-11131722D01*
X10531967Y-11131722D02*
X10541491Y-11122198D01*
X10541491Y-11122198D02*
X10560539Y-11112674D01*
X10560539Y-11112674D02*
X10608158Y-11112674D01*
X10608158Y-11112674D02*
X10627205Y-11122198D01*
X10627205Y-11122198D02*
X10636729Y-11131722D01*
X10636729Y-11131722D02*
X10646253Y-11150770D01*
X10646253Y-11150770D02*
X10646253Y-11198388D01*
X10646253Y-11198388D02*
X10636729Y-11217436D01*
X10636729Y-11217436D02*
X10627205Y-11226960D01*
X10627205Y-11226960D02*
X10608158Y-11236484D01*
X10608158Y-11236484D02*
X10560539Y-11236484D01*
X10560539Y-11236484D02*
X10541491Y-11226960D01*
X10541491Y-11226960D02*
X10531967Y-11217436D01*
X10770063Y-11036484D02*
X10789110Y-11036484D01*
X10789110Y-11036484D02*
X10808158Y-11046008D01*
X10808158Y-11046008D02*
X10817682Y-11055531D01*
X10817682Y-11055531D02*
X10827205Y-11074579D01*
X10827205Y-11074579D02*
X10836729Y-11112674D01*
X10836729Y-11112674D02*
X10836729Y-11160293D01*
X10836729Y-11160293D02*
X10827205Y-11198388D01*
X10827205Y-11198388D02*
X10817682Y-11217436D01*
X10817682Y-11217436D02*
X10808158Y-11226960D01*
X10808158Y-11226960D02*
X10789110Y-11236484D01*
X10789110Y-11236484D02*
X10770063Y-11236484D01*
X10770063Y-11236484D02*
X10751015Y-11226960D01*
X10751015Y-11226960D02*
X10741491Y-11217436D01*
X10741491Y-11217436D02*
X10731967Y-11198388D01*
X10731967Y-11198388D02*
X10722444Y-11160293D01*
X10722444Y-11160293D02*
X10722444Y-11112674D01*
X10722444Y-11112674D02*
X10731967Y-11074579D01*
X10731967Y-11074579D02*
X10741491Y-11055531D01*
X10741491Y-11055531D02*
X10751015Y-11046008D01*
X10751015Y-11046008D02*
X10770063Y-11036484D01*
X10960539Y-11036484D02*
X10979586Y-11036484D01*
X10979586Y-11036484D02*
X10998634Y-11046008D01*
X10998634Y-11046008D02*
X11008158Y-11055531D01*
X11008158Y-11055531D02*
X11017682Y-11074579D01*
X11017682Y-11074579D02*
X11027205Y-11112674D01*
X11027205Y-11112674D02*
X11027205Y-11160293D01*
X11027205Y-11160293D02*
X11017682Y-11198388D01*
X11017682Y-11198388D02*
X11008158Y-11217436D01*
X11008158Y-11217436D02*
X10998634Y-11226960D01*
X10998634Y-11226960D02*
X10979586Y-11236484D01*
X10979586Y-11236484D02*
X10960539Y-11236484D01*
X10960539Y-11236484D02*
X10941491Y-11226960D01*
X10941491Y-11226960D02*
X10931967Y-11217436D01*
X10931967Y-11217436D02*
X10922444Y-11198388D01*
X10922444Y-11198388D02*
X10912920Y-11160293D01*
X10912920Y-11160293D02*
X10912920Y-11112674D01*
X10912920Y-11112674D02*
X10922444Y-11074579D01*
X10922444Y-11074579D02*
X10931967Y-11055531D01*
X10931967Y-11055531D02*
X10941491Y-11046008D01*
X10941491Y-11046008D02*
X10960539Y-11036484D01*
X11112920Y-11236484D02*
X11112920Y-11103150D01*
X11112920Y-11122198D02*
X11122444Y-11112674D01*
X11122444Y-11112674D02*
X11141491Y-11103150D01*
X11141491Y-11103150D02*
X11170063Y-11103150D01*
X11170063Y-11103150D02*
X11189110Y-11112674D01*
X11189110Y-11112674D02*
X11198634Y-11131722D01*
X11198634Y-11131722D02*
X11198634Y-11236484D01*
X11198634Y-11131722D02*
X11208158Y-11112674D01*
X11208158Y-11112674D02*
X11227205Y-11103150D01*
X11227205Y-11103150D02*
X11255777Y-11103150D01*
X11255777Y-11103150D02*
X11274824Y-11112674D01*
X11274824Y-11112674D02*
X11284348Y-11131722D01*
X11284348Y-11131722D02*
X11284348Y-11236484D01*
X11379586Y-11236484D02*
X11379586Y-11103150D01*
X11379586Y-11122198D02*
X11389110Y-11112674D01*
X11389110Y-11112674D02*
X11408158Y-11103150D01*
X11408158Y-11103150D02*
X11436729Y-11103150D01*
X11436729Y-11103150D02*
X11455777Y-11112674D01*
X11455777Y-11112674D02*
X11465301Y-11131722D01*
X11465301Y-11131722D02*
X11465301Y-11236484D01*
X11465301Y-11131722D02*
X11474824Y-11112674D01*
X11474824Y-11112674D02*
X11493872Y-11103150D01*
X11493872Y-11103150D02*
X11522443Y-11103150D01*
X11522443Y-11103150D02*
X11541491Y-11112674D01*
X11541491Y-11112674D02*
X11551015Y-11131722D01*
X11551015Y-11131722D02*
X11551015Y-11236484D01*
X11941491Y-11026960D02*
X11770063Y-11284103D01*
X12198634Y-11036484D02*
X12217682Y-11036484D01*
X12217682Y-11036484D02*
X12236729Y-11046008D01*
X12236729Y-11046008D02*
X12246253Y-11055531D01*
X12246253Y-11055531D02*
X12255777Y-11074579D01*
X12255777Y-11074579D02*
X12265301Y-11112674D01*
X12265301Y-11112674D02*
X12265301Y-11160293D01*
X12265301Y-11160293D02*
X12255777Y-11198388D01*
X12255777Y-11198388D02*
X12246253Y-11217436D01*
X12246253Y-11217436D02*
X12236729Y-11226960D01*
X12236729Y-11226960D02*
X12217682Y-11236484D01*
X12217682Y-11236484D02*
X12198634Y-11236484D01*
X12198634Y-11236484D02*
X12179586Y-11226960D01*
X12179586Y-11226960D02*
X12170063Y-11217436D01*
X12170063Y-11217436D02*
X12160539Y-11198388D01*
X12160539Y-11198388D02*
X12151015Y-11160293D01*
X12151015Y-11160293D02*
X12151015Y-11112674D01*
X12151015Y-11112674D02*
X12160539Y-11074579D01*
X12160539Y-11074579D02*
X12170063Y-11055531D01*
X12170063Y-11055531D02*
X12179586Y-11046008D01*
X12179586Y-11046008D02*
X12198634Y-11036484D01*
X12351015Y-11217436D02*
X12360539Y-11226960D01*
X12360539Y-11226960D02*
X12351015Y-11236484D01*
X12351015Y-11236484D02*
X12341491Y-11226960D01*
X12341491Y-11226960D02*
X12351015Y-11217436D01*
X12351015Y-11217436D02*
X12351015Y-11236484D01*
X12484348Y-11036484D02*
X12503396Y-11036484D01*
X12503396Y-11036484D02*
X12522444Y-11046008D01*
X12522444Y-11046008D02*
X12531967Y-11055531D01*
X12531967Y-11055531D02*
X12541491Y-11074579D01*
X12541491Y-11074579D02*
X12551015Y-11112674D01*
X12551015Y-11112674D02*
X12551015Y-11160293D01*
X12551015Y-11160293D02*
X12541491Y-11198388D01*
X12541491Y-11198388D02*
X12531967Y-11217436D01*
X12531967Y-11217436D02*
X12522444Y-11226960D01*
X12522444Y-11226960D02*
X12503396Y-11236484D01*
X12503396Y-11236484D02*
X12484348Y-11236484D01*
X12484348Y-11236484D02*
X12465301Y-11226960D01*
X12465301Y-11226960D02*
X12455777Y-11217436D01*
X12455777Y-11217436D02*
X12446253Y-11198388D01*
X12446253Y-11198388D02*
X12436729Y-11160293D01*
X12436729Y-11160293D02*
X12436729Y-11112674D01*
X12436729Y-11112674D02*
X12446253Y-11074579D01*
X12446253Y-11074579D02*
X12455777Y-11055531D01*
X12455777Y-11055531D02*
X12465301Y-11046008D01*
X12465301Y-11046008D02*
X12484348Y-11036484D01*
X12741491Y-11236484D02*
X12627206Y-11236484D01*
X12684348Y-11236484D02*
X12684348Y-11036484D01*
X12684348Y-11036484D02*
X12665301Y-11065055D01*
X12665301Y-11065055D02*
X12646253Y-11084103D01*
X12646253Y-11084103D02*
X12627206Y-11093627D01*
X12836729Y-11236484D02*
X12874825Y-11236484D01*
X12874825Y-11236484D02*
X12893872Y-11226960D01*
X12893872Y-11226960D02*
X12903396Y-11217436D01*
X12903396Y-11217436D02*
X12922444Y-11188865D01*
X12922444Y-11188865D02*
X12931967Y-11150770D01*
X12931967Y-11150770D02*
X12931967Y-11074579D01*
X12931967Y-11074579D02*
X12922444Y-11055531D01*
X12922444Y-11055531D02*
X12912920Y-11046008D01*
X12912920Y-11046008D02*
X12893872Y-11036484D01*
X12893872Y-11036484D02*
X12855777Y-11036484D01*
X12855777Y-11036484D02*
X12836729Y-11046008D01*
X12836729Y-11046008D02*
X12827206Y-11055531D01*
X12827206Y-11055531D02*
X12817682Y-11074579D01*
X12817682Y-11074579D02*
X12817682Y-11122198D01*
X12817682Y-11122198D02*
X12827206Y-11141246D01*
X12827206Y-11141246D02*
X12836729Y-11150770D01*
X12836729Y-11150770D02*
X12855777Y-11160293D01*
X12855777Y-11160293D02*
X12893872Y-11160293D01*
X12893872Y-11160293D02*
X12912920Y-11150770D01*
X12912920Y-11150770D02*
X12922444Y-11141246D01*
X12922444Y-11141246D02*
X12931967Y-11122198D01*
X12998634Y-11036484D02*
X13131967Y-11036484D01*
X13131967Y-11036484D02*
X13046253Y-11236484D01*
X13198634Y-11036484D02*
X13198634Y-11074579D01*
X13274825Y-11036484D02*
X13274825Y-11074579D01*
X13570063Y-11312674D02*
X13560539Y-11303150D01*
X13560539Y-11303150D02*
X13541491Y-11274579D01*
X13541491Y-11274579D02*
X13531968Y-11255531D01*
X13531968Y-11255531D02*
X13522444Y-11226960D01*
X13522444Y-11226960D02*
X13512920Y-11179341D01*
X13512920Y-11179341D02*
X13512920Y-11141246D01*
X13512920Y-11141246D02*
X13522444Y-11093627D01*
X13522444Y-11093627D02*
X13531968Y-11065055D01*
X13531968Y-11065055D02*
X13541491Y-11046008D01*
X13541491Y-11046008D02*
X13560539Y-11017436D01*
X13560539Y-11017436D02*
X13570063Y-11007912D01*
X13636729Y-11055531D02*
X13646253Y-11046008D01*
X13646253Y-11046008D02*
X13665301Y-11036484D01*
X13665301Y-11036484D02*
X13712920Y-11036484D01*
X13712920Y-11036484D02*
X13731968Y-11046008D01*
X13731968Y-11046008D02*
X13741491Y-11055531D01*
X13741491Y-11055531D02*
X13751015Y-11074579D01*
X13751015Y-11074579D02*
X13751015Y-11093627D01*
X13751015Y-11093627D02*
X13741491Y-11122198D01*
X13741491Y-11122198D02*
X13627206Y-11236484D01*
X13627206Y-11236484D02*
X13751015Y-11236484D01*
X13989110Y-11236484D02*
X13989110Y-11036484D01*
X14074825Y-11236484D02*
X14074825Y-11131722D01*
X14074825Y-11131722D02*
X14065301Y-11112674D01*
X14065301Y-11112674D02*
X14046253Y-11103150D01*
X14046253Y-11103150D02*
X14017682Y-11103150D01*
X14017682Y-11103150D02*
X13998634Y-11112674D01*
X13998634Y-11112674D02*
X13989110Y-11122198D01*
X14198634Y-11236484D02*
X14179587Y-11226960D01*
X14179587Y-11226960D02*
X14170063Y-11217436D01*
X14170063Y-11217436D02*
X14160539Y-11198388D01*
X14160539Y-11198388D02*
X14160539Y-11141246D01*
X14160539Y-11141246D02*
X14170063Y-11122198D01*
X14170063Y-11122198D02*
X14179587Y-11112674D01*
X14179587Y-11112674D02*
X14198634Y-11103150D01*
X14198634Y-11103150D02*
X14227206Y-11103150D01*
X14227206Y-11103150D02*
X14246253Y-11112674D01*
X14246253Y-11112674D02*
X14255777Y-11122198D01*
X14255777Y-11122198D02*
X14265301Y-11141246D01*
X14265301Y-11141246D02*
X14265301Y-11198388D01*
X14265301Y-11198388D02*
X14255777Y-11217436D01*
X14255777Y-11217436D02*
X14246253Y-11226960D01*
X14246253Y-11226960D02*
X14227206Y-11236484D01*
X14227206Y-11236484D02*
X14198634Y-11236484D01*
X14379587Y-11236484D02*
X14360539Y-11226960D01*
X14360539Y-11226960D02*
X14351015Y-11207912D01*
X14351015Y-11207912D02*
X14351015Y-11036484D01*
X14531968Y-11226960D02*
X14512920Y-11236484D01*
X14512920Y-11236484D02*
X14474825Y-11236484D01*
X14474825Y-11236484D02*
X14455777Y-11226960D01*
X14455777Y-11226960D02*
X14446253Y-11207912D01*
X14446253Y-11207912D02*
X14446253Y-11131722D01*
X14446253Y-11131722D02*
X14455777Y-11112674D01*
X14455777Y-11112674D02*
X14474825Y-11103150D01*
X14474825Y-11103150D02*
X14512920Y-11103150D01*
X14512920Y-11103150D02*
X14531968Y-11112674D01*
X14531968Y-11112674D02*
X14541491Y-11131722D01*
X14541491Y-11131722D02*
X14541491Y-11150770D01*
X14541491Y-11150770D02*
X14446253Y-11169817D01*
X14617682Y-11226960D02*
X14636730Y-11236484D01*
X14636730Y-11236484D02*
X14674825Y-11236484D01*
X14674825Y-11236484D02*
X14693872Y-11226960D01*
X14693872Y-11226960D02*
X14703396Y-11207912D01*
X14703396Y-11207912D02*
X14703396Y-11198388D01*
X14703396Y-11198388D02*
X14693872Y-11179341D01*
X14693872Y-11179341D02*
X14674825Y-11169817D01*
X14674825Y-11169817D02*
X14646253Y-11169817D01*
X14646253Y-11169817D02*
X14627206Y-11160293D01*
X14627206Y-11160293D02*
X14617682Y-11141246D01*
X14617682Y-11141246D02*
X14617682Y-11131722D01*
X14617682Y-11131722D02*
X14627206Y-11112674D01*
X14627206Y-11112674D02*
X14646253Y-11103150D01*
X14646253Y-11103150D02*
X14674825Y-11103150D01*
X14674825Y-11103150D02*
X14693872Y-11112674D01*
X14770063Y-11312674D02*
X14779587Y-11303150D01*
X14779587Y-11303150D02*
X14798634Y-11274579D01*
X14798634Y-11274579D02*
X14808158Y-11255531D01*
X14808158Y-11255531D02*
X14817682Y-11226960D01*
X14817682Y-11226960D02*
X14827206Y-11179341D01*
X14827206Y-11179341D02*
X14827206Y-11141246D01*
X14827206Y-11141246D02*
X14817682Y-11093627D01*
X14817682Y-11093627D02*
X14808158Y-11065055D01*
X14808158Y-11065055D02*
X14798634Y-11046008D01*
X14798634Y-11046008D02*
X14779587Y-11017436D01*
X14779587Y-11017436D02*
X14770063Y-11007912D01*
D10*
X9995000Y-11409000D02*
G75*
G02*
X9935000Y-11409000I-30000J0D01*
G01*
X9935000Y-11409000D02*
G75*
G02*
X9995000Y-11409000I30000J0D01*
G01*
D11*
X10293872Y-11300484D02*
X10312920Y-11300484D01*
X10312920Y-11300484D02*
X10331967Y-11310008D01*
X10331967Y-11310008D02*
X10341491Y-11319531D01*
X10341491Y-11319531D02*
X10351015Y-11338579D01*
X10351015Y-11338579D02*
X10360539Y-11376674D01*
X10360539Y-11376674D02*
X10360539Y-11424293D01*
X10360539Y-11424293D02*
X10351015Y-11462388D01*
X10351015Y-11462388D02*
X10341491Y-11481436D01*
X10341491Y-11481436D02*
X10331967Y-11490960D01*
X10331967Y-11490960D02*
X10312920Y-11500484D01*
X10312920Y-11500484D02*
X10293872Y-11500484D01*
X10293872Y-11500484D02*
X10274824Y-11490960D01*
X10274824Y-11490960D02*
X10265301Y-11481436D01*
X10265301Y-11481436D02*
X10255777Y-11462388D01*
X10255777Y-11462388D02*
X10246253Y-11424293D01*
X10246253Y-11424293D02*
X10246253Y-11376674D01*
X10246253Y-11376674D02*
X10255777Y-11338579D01*
X10255777Y-11338579D02*
X10265301Y-11319531D01*
X10265301Y-11319531D02*
X10274824Y-11310008D01*
X10274824Y-11310008D02*
X10293872Y-11300484D01*
X10446253Y-11481436D02*
X10455777Y-11490960D01*
X10455777Y-11490960D02*
X10446253Y-11500484D01*
X10446253Y-11500484D02*
X10436729Y-11490960D01*
X10436729Y-11490960D02*
X10446253Y-11481436D01*
X10446253Y-11481436D02*
X10446253Y-11500484D01*
X10627205Y-11300484D02*
X10589110Y-11300484D01*
X10589110Y-11300484D02*
X10570063Y-11310008D01*
X10570063Y-11310008D02*
X10560539Y-11319531D01*
X10560539Y-11319531D02*
X10541491Y-11348103D01*
X10541491Y-11348103D02*
X10531967Y-11386198D01*
X10531967Y-11386198D02*
X10531967Y-11462388D01*
X10531967Y-11462388D02*
X10541491Y-11481436D01*
X10541491Y-11481436D02*
X10551015Y-11490960D01*
X10551015Y-11490960D02*
X10570063Y-11500484D01*
X10570063Y-11500484D02*
X10608158Y-11500484D01*
X10608158Y-11500484D02*
X10627205Y-11490960D01*
X10627205Y-11490960D02*
X10636729Y-11481436D01*
X10636729Y-11481436D02*
X10646253Y-11462388D01*
X10646253Y-11462388D02*
X10646253Y-11414769D01*
X10646253Y-11414769D02*
X10636729Y-11395722D01*
X10636729Y-11395722D02*
X10627205Y-11386198D01*
X10627205Y-11386198D02*
X10608158Y-11376674D01*
X10608158Y-11376674D02*
X10570063Y-11376674D01*
X10570063Y-11376674D02*
X10551015Y-11386198D01*
X10551015Y-11386198D02*
X10541491Y-11395722D01*
X10541491Y-11395722D02*
X10531967Y-11414769D01*
X10770063Y-11300484D02*
X10789110Y-11300484D01*
X10789110Y-11300484D02*
X10808158Y-11310008D01*
X10808158Y-11310008D02*
X10817682Y-11319531D01*
X10817682Y-11319531D02*
X10827205Y-11338579D01*
X10827205Y-11338579D02*
X10836729Y-11376674D01*
X10836729Y-11376674D02*
X10836729Y-11424293D01*
X10836729Y-11424293D02*
X10827205Y-11462388D01*
X10827205Y-11462388D02*
X10817682Y-11481436D01*
X10817682Y-11481436D02*
X10808158Y-11490960D01*
X10808158Y-11490960D02*
X10789110Y-11500484D01*
X10789110Y-11500484D02*
X10770063Y-11500484D01*
X10770063Y-11500484D02*
X10751015Y-11490960D01*
X10751015Y-11490960D02*
X10741491Y-11481436D01*
X10741491Y-11481436D02*
X10731967Y-11462388D01*
X10731967Y-11462388D02*
X10722444Y-11424293D01*
X10722444Y-11424293D02*
X10722444Y-11376674D01*
X10722444Y-11376674D02*
X10731967Y-11338579D01*
X10731967Y-11338579D02*
X10741491Y-11319531D01*
X10741491Y-11319531D02*
X10751015Y-11310008D01*
X10751015Y-11310008D02*
X10770063Y-11300484D01*
X10960539Y-11300484D02*
X10979586Y-11300484D01*
X10979586Y-11300484D02*
X10998634Y-11310008D01*
X10998634Y-11310008D02*
X11008158Y-11319531D01*
X11008158Y-11319531D02*
X11017682Y-11338579D01*
X11017682Y-11338579D02*
X11027205Y-11376674D01*
X11027205Y-11376674D02*
X11027205Y-11424293D01*
X11027205Y-11424293D02*
X11017682Y-11462388D01*
X11017682Y-11462388D02*
X11008158Y-11481436D01*
X11008158Y-11481436D02*
X10998634Y-11490960D01*
X10998634Y-11490960D02*
X10979586Y-11500484D01*
X10979586Y-11500484D02*
X10960539Y-11500484D01*
X10960539Y-11500484D02*
X10941491Y-11490960D01*
X10941491Y-11490960D02*
X10931967Y-11481436D01*
X10931967Y-11481436D02*
X10922444Y-11462388D01*
X10922444Y-11462388D02*
X10912920Y-11424293D01*
X10912920Y-11424293D02*
X10912920Y-11376674D01*
X10912920Y-11376674D02*
X10922444Y-11338579D01*
X10922444Y-11338579D02*
X10931967Y-11319531D01*
X10931967Y-11319531D02*
X10941491Y-11310008D01*
X10941491Y-11310008D02*
X10960539Y-11300484D01*
X11112920Y-11500484D02*
X11112920Y-11367150D01*
X11112920Y-11386198D02*
X11122444Y-11376674D01*
X11122444Y-11376674D02*
X11141491Y-11367150D01*
X11141491Y-11367150D02*
X11170063Y-11367150D01*
X11170063Y-11367150D02*
X11189110Y-11376674D01*
X11189110Y-11376674D02*
X11198634Y-11395722D01*
X11198634Y-11395722D02*
X11198634Y-11500484D01*
X11198634Y-11395722D02*
X11208158Y-11376674D01*
X11208158Y-11376674D02*
X11227205Y-11367150D01*
X11227205Y-11367150D02*
X11255777Y-11367150D01*
X11255777Y-11367150D02*
X11274824Y-11376674D01*
X11274824Y-11376674D02*
X11284348Y-11395722D01*
X11284348Y-11395722D02*
X11284348Y-11500484D01*
X11379586Y-11500484D02*
X11379586Y-11367150D01*
X11379586Y-11386198D02*
X11389110Y-11376674D01*
X11389110Y-11376674D02*
X11408158Y-11367150D01*
X11408158Y-11367150D02*
X11436729Y-11367150D01*
X11436729Y-11367150D02*
X11455777Y-11376674D01*
X11455777Y-11376674D02*
X11465301Y-11395722D01*
X11465301Y-11395722D02*
X11465301Y-11500484D01*
X11465301Y-11395722D02*
X11474824Y-11376674D01*
X11474824Y-11376674D02*
X11493872Y-11367150D01*
X11493872Y-11367150D02*
X11522443Y-11367150D01*
X11522443Y-11367150D02*
X11541491Y-11376674D01*
X11541491Y-11376674D02*
X11551015Y-11395722D01*
X11551015Y-11395722D02*
X11551015Y-11500484D01*
X11941491Y-11290960D02*
X11770063Y-11548103D01*
X12198634Y-11300484D02*
X12217682Y-11300484D01*
X12217682Y-11300484D02*
X12236729Y-11310008D01*
X12236729Y-11310008D02*
X12246253Y-11319531D01*
X12246253Y-11319531D02*
X12255777Y-11338579D01*
X12255777Y-11338579D02*
X12265301Y-11376674D01*
X12265301Y-11376674D02*
X12265301Y-11424293D01*
X12265301Y-11424293D02*
X12255777Y-11462388D01*
X12255777Y-11462388D02*
X12246253Y-11481436D01*
X12246253Y-11481436D02*
X12236729Y-11490960D01*
X12236729Y-11490960D02*
X12217682Y-11500484D01*
X12217682Y-11500484D02*
X12198634Y-11500484D01*
X12198634Y-11500484D02*
X12179586Y-11490960D01*
X12179586Y-11490960D02*
X12170063Y-11481436D01*
X12170063Y-11481436D02*
X12160539Y-11462388D01*
X12160539Y-11462388D02*
X12151015Y-11424293D01*
X12151015Y-11424293D02*
X12151015Y-11376674D01*
X12151015Y-11376674D02*
X12160539Y-11338579D01*
X12160539Y-11338579D02*
X12170063Y-11319531D01*
X12170063Y-11319531D02*
X12179586Y-11310008D01*
X12179586Y-11310008D02*
X12198634Y-11300484D01*
X12351015Y-11481436D02*
X12360539Y-11490960D01*
X12360539Y-11490960D02*
X12351015Y-11500484D01*
X12351015Y-11500484D02*
X12341491Y-11490960D01*
X12341491Y-11490960D02*
X12351015Y-11481436D01*
X12351015Y-11481436D02*
X12351015Y-11500484D01*
X12484348Y-11300484D02*
X12503396Y-11300484D01*
X12503396Y-11300484D02*
X12522444Y-11310008D01*
X12522444Y-11310008D02*
X12531967Y-11319531D01*
X12531967Y-11319531D02*
X12541491Y-11338579D01*
X12541491Y-11338579D02*
X12551015Y-11376674D01*
X12551015Y-11376674D02*
X12551015Y-11424293D01*
X12551015Y-11424293D02*
X12541491Y-11462388D01*
X12541491Y-11462388D02*
X12531967Y-11481436D01*
X12531967Y-11481436D02*
X12522444Y-11490960D01*
X12522444Y-11490960D02*
X12503396Y-11500484D01*
X12503396Y-11500484D02*
X12484348Y-11500484D01*
X12484348Y-11500484D02*
X12465301Y-11490960D01*
X12465301Y-11490960D02*
X12455777Y-11481436D01*
X12455777Y-11481436D02*
X12446253Y-11462388D01*
X12446253Y-11462388D02*
X12436729Y-11424293D01*
X12436729Y-11424293D02*
X12436729Y-11376674D01*
X12436729Y-11376674D02*
X12446253Y-11338579D01*
X12446253Y-11338579D02*
X12455777Y-11319531D01*
X12455777Y-11319531D02*
X12465301Y-11310008D01*
X12465301Y-11310008D02*
X12484348Y-11300484D01*
X12627206Y-11319531D02*
X12636729Y-11310008D01*
X12636729Y-11310008D02*
X12655777Y-11300484D01*
X12655777Y-11300484D02*
X12703396Y-11300484D01*
X12703396Y-11300484D02*
X12722444Y-11310008D01*
X12722444Y-11310008D02*
X12731967Y-11319531D01*
X12731967Y-11319531D02*
X12741491Y-11338579D01*
X12741491Y-11338579D02*
X12741491Y-11357627D01*
X12741491Y-11357627D02*
X12731967Y-11386198D01*
X12731967Y-11386198D02*
X12617682Y-11500484D01*
X12617682Y-11500484D02*
X12741491Y-11500484D01*
X12808158Y-11300484D02*
X12931967Y-11300484D01*
X12931967Y-11300484D02*
X12865301Y-11376674D01*
X12865301Y-11376674D02*
X12893872Y-11376674D01*
X12893872Y-11376674D02*
X12912920Y-11386198D01*
X12912920Y-11386198D02*
X12922444Y-11395722D01*
X12922444Y-11395722D02*
X12931967Y-11414769D01*
X12931967Y-11414769D02*
X12931967Y-11462388D01*
X12931967Y-11462388D02*
X12922444Y-11481436D01*
X12922444Y-11481436D02*
X12912920Y-11490960D01*
X12912920Y-11490960D02*
X12893872Y-11500484D01*
X12893872Y-11500484D02*
X12836729Y-11500484D01*
X12836729Y-11500484D02*
X12817682Y-11490960D01*
X12817682Y-11490960D02*
X12808158Y-11481436D01*
X13103396Y-11300484D02*
X13065301Y-11300484D01*
X13065301Y-11300484D02*
X13046253Y-11310008D01*
X13046253Y-11310008D02*
X13036729Y-11319531D01*
X13036729Y-11319531D02*
X13017682Y-11348103D01*
X13017682Y-11348103D02*
X13008158Y-11386198D01*
X13008158Y-11386198D02*
X13008158Y-11462388D01*
X13008158Y-11462388D02*
X13017682Y-11481436D01*
X13017682Y-11481436D02*
X13027206Y-11490960D01*
X13027206Y-11490960D02*
X13046253Y-11500484D01*
X13046253Y-11500484D02*
X13084348Y-11500484D01*
X13084348Y-11500484D02*
X13103396Y-11490960D01*
X13103396Y-11490960D02*
X13112920Y-11481436D01*
X13112920Y-11481436D02*
X13122444Y-11462388D01*
X13122444Y-11462388D02*
X13122444Y-11414769D01*
X13122444Y-11414769D02*
X13112920Y-11395722D01*
X13112920Y-11395722D02*
X13103396Y-11386198D01*
X13103396Y-11386198D02*
X13084348Y-11376674D01*
X13084348Y-11376674D02*
X13046253Y-11376674D01*
X13046253Y-11376674D02*
X13027206Y-11386198D01*
X13027206Y-11386198D02*
X13017682Y-11395722D01*
X13017682Y-11395722D02*
X13008158Y-11414769D01*
X13198634Y-11300484D02*
X13198634Y-11338579D01*
X13274825Y-11300484D02*
X13274825Y-11338579D01*
X13570063Y-11576674D02*
X13560539Y-11567150D01*
X13560539Y-11567150D02*
X13541491Y-11538579D01*
X13541491Y-11538579D02*
X13531968Y-11519531D01*
X13531968Y-11519531D02*
X13522444Y-11490960D01*
X13522444Y-11490960D02*
X13512920Y-11443341D01*
X13512920Y-11443341D02*
X13512920Y-11405246D01*
X13512920Y-11405246D02*
X13522444Y-11357627D01*
X13522444Y-11357627D02*
X13531968Y-11329055D01*
X13531968Y-11329055D02*
X13541491Y-11310008D01*
X13541491Y-11310008D02*
X13560539Y-11281436D01*
X13560539Y-11281436D02*
X13570063Y-11271912D01*
X13627206Y-11300484D02*
X13751015Y-11300484D01*
X13751015Y-11300484D02*
X13684348Y-11376674D01*
X13684348Y-11376674D02*
X13712920Y-11376674D01*
X13712920Y-11376674D02*
X13731968Y-11386198D01*
X13731968Y-11386198D02*
X13741491Y-11395722D01*
X13741491Y-11395722D02*
X13751015Y-11414769D01*
X13751015Y-11414769D02*
X13751015Y-11462388D01*
X13751015Y-11462388D02*
X13741491Y-11481436D01*
X13741491Y-11481436D02*
X13731968Y-11490960D01*
X13731968Y-11490960D02*
X13712920Y-11500484D01*
X13712920Y-11500484D02*
X13655777Y-11500484D01*
X13655777Y-11500484D02*
X13636729Y-11490960D01*
X13636729Y-11490960D02*
X13627206Y-11481436D01*
X13922444Y-11300484D02*
X13884348Y-11300484D01*
X13884348Y-11300484D02*
X13865301Y-11310008D01*
X13865301Y-11310008D02*
X13855777Y-11319531D01*
X13855777Y-11319531D02*
X13836729Y-11348103D01*
X13836729Y-11348103D02*
X13827206Y-11386198D01*
X13827206Y-11386198D02*
X13827206Y-11462388D01*
X13827206Y-11462388D02*
X13836729Y-11481436D01*
X13836729Y-11481436D02*
X13846253Y-11490960D01*
X13846253Y-11490960D02*
X13865301Y-11500484D01*
X13865301Y-11500484D02*
X13903396Y-11500484D01*
X13903396Y-11500484D02*
X13922444Y-11490960D01*
X13922444Y-11490960D02*
X13931968Y-11481436D01*
X13931968Y-11481436D02*
X13941491Y-11462388D01*
X13941491Y-11462388D02*
X13941491Y-11414769D01*
X13941491Y-11414769D02*
X13931968Y-11395722D01*
X13931968Y-11395722D02*
X13922444Y-11386198D01*
X13922444Y-11386198D02*
X13903396Y-11376674D01*
X13903396Y-11376674D02*
X13865301Y-11376674D01*
X13865301Y-11376674D02*
X13846253Y-11386198D01*
X13846253Y-11386198D02*
X13836729Y-11395722D01*
X13836729Y-11395722D02*
X13827206Y-11414769D01*
X14179587Y-11500484D02*
X14179587Y-11300484D01*
X14265301Y-11500484D02*
X14265301Y-11395722D01*
X14265301Y-11395722D02*
X14255777Y-11376674D01*
X14255777Y-11376674D02*
X14236730Y-11367150D01*
X14236730Y-11367150D02*
X14208158Y-11367150D01*
X14208158Y-11367150D02*
X14189110Y-11376674D01*
X14189110Y-11376674D02*
X14179587Y-11386198D01*
X14389110Y-11500484D02*
X14370063Y-11490960D01*
X14370063Y-11490960D02*
X14360539Y-11481436D01*
X14360539Y-11481436D02*
X14351015Y-11462388D01*
X14351015Y-11462388D02*
X14351015Y-11405246D01*
X14351015Y-11405246D02*
X14360539Y-11386198D01*
X14360539Y-11386198D02*
X14370063Y-11376674D01*
X14370063Y-11376674D02*
X14389110Y-11367150D01*
X14389110Y-11367150D02*
X14417682Y-11367150D01*
X14417682Y-11367150D02*
X14436730Y-11376674D01*
X14436730Y-11376674D02*
X14446253Y-11386198D01*
X14446253Y-11386198D02*
X14455777Y-11405246D01*
X14455777Y-11405246D02*
X14455777Y-11462388D01*
X14455777Y-11462388D02*
X14446253Y-11481436D01*
X14446253Y-11481436D02*
X14436730Y-11490960D01*
X14436730Y-11490960D02*
X14417682Y-11500484D01*
X14417682Y-11500484D02*
X14389110Y-11500484D01*
X14570063Y-11500484D02*
X14551015Y-11490960D01*
X14551015Y-11490960D02*
X14541491Y-11471912D01*
X14541491Y-11471912D02*
X14541491Y-11300484D01*
X14722444Y-11490960D02*
X14703396Y-11500484D01*
X14703396Y-11500484D02*
X14665301Y-11500484D01*
X14665301Y-11500484D02*
X14646253Y-11490960D01*
X14646253Y-11490960D02*
X14636730Y-11471912D01*
X14636730Y-11471912D02*
X14636730Y-11395722D01*
X14636730Y-11395722D02*
X14646253Y-11376674D01*
X14646253Y-11376674D02*
X14665301Y-11367150D01*
X14665301Y-11367150D02*
X14703396Y-11367150D01*
X14703396Y-11367150D02*
X14722444Y-11376674D01*
X14722444Y-11376674D02*
X14731968Y-11395722D01*
X14731968Y-11395722D02*
X14731968Y-11414769D01*
X14731968Y-11414769D02*
X14636730Y-11433817D01*
X14808158Y-11490960D02*
X14827206Y-11500484D01*
X14827206Y-11500484D02*
X14865301Y-11500484D01*
X14865301Y-11500484D02*
X14884349Y-11490960D01*
X14884349Y-11490960D02*
X14893872Y-11471912D01*
X14893872Y-11471912D02*
X14893872Y-11462388D01*
X14893872Y-11462388D02*
X14884349Y-11443341D01*
X14884349Y-11443341D02*
X14865301Y-11433817D01*
X14865301Y-11433817D02*
X14836730Y-11433817D01*
X14836730Y-11433817D02*
X14817682Y-11424293D01*
X14817682Y-11424293D02*
X14808158Y-11405246D01*
X14808158Y-11405246D02*
X14808158Y-11395722D01*
X14808158Y-11395722D02*
X14817682Y-11376674D01*
X14817682Y-11376674D02*
X14836730Y-11367150D01*
X14836730Y-11367150D02*
X14865301Y-11367150D01*
X14865301Y-11367150D02*
X14884349Y-11376674D01*
X14960539Y-11576674D02*
X14970063Y-11567150D01*
X14970063Y-11567150D02*
X14989111Y-11538579D01*
X14989111Y-11538579D02*
X14998634Y-11519531D01*
X14998634Y-11519531D02*
X15008158Y-11490960D01*
X15008158Y-11490960D02*
X15017682Y-11443341D01*
X15017682Y-11443341D02*
X15017682Y-11405246D01*
X15017682Y-11405246D02*
X15008158Y-11357627D01*
X15008158Y-11357627D02*
X14998634Y-11329055D01*
X14998634Y-11329055D02*
X14989111Y-11310008D01*
X14989111Y-11310008D02*
X14970063Y-11281436D01*
X14970063Y-11281436D02*
X14960539Y-11271912D01*
D10*
X9945000Y-11623000D02*
X9945000Y-11723000D01*
X9895000Y-11673000D02*
X9995000Y-11673000D01*
D11*
X10360539Y-11764484D02*
X10246253Y-11764484D01*
X10303396Y-11764484D02*
X10303396Y-11564484D01*
X10303396Y-11564484D02*
X10284348Y-11593055D01*
X10284348Y-11593055D02*
X10265301Y-11612103D01*
X10265301Y-11612103D02*
X10246253Y-11621627D01*
X10446253Y-11745436D02*
X10455777Y-11754960D01*
X10455777Y-11754960D02*
X10446253Y-11764484D01*
X10446253Y-11764484D02*
X10436729Y-11754960D01*
X10436729Y-11754960D02*
X10446253Y-11745436D01*
X10446253Y-11745436D02*
X10446253Y-11764484D01*
X10579586Y-11564484D02*
X10598634Y-11564484D01*
X10598634Y-11564484D02*
X10617682Y-11574008D01*
X10617682Y-11574008D02*
X10627205Y-11583531D01*
X10627205Y-11583531D02*
X10636729Y-11602579D01*
X10636729Y-11602579D02*
X10646253Y-11640674D01*
X10646253Y-11640674D02*
X10646253Y-11688293D01*
X10646253Y-11688293D02*
X10636729Y-11726388D01*
X10636729Y-11726388D02*
X10627205Y-11745436D01*
X10627205Y-11745436D02*
X10617682Y-11754960D01*
X10617682Y-11754960D02*
X10598634Y-11764484D01*
X10598634Y-11764484D02*
X10579586Y-11764484D01*
X10579586Y-11764484D02*
X10560539Y-11754960D01*
X10560539Y-11754960D02*
X10551015Y-11745436D01*
X10551015Y-11745436D02*
X10541491Y-11726388D01*
X10541491Y-11726388D02*
X10531967Y-11688293D01*
X10531967Y-11688293D02*
X10531967Y-11640674D01*
X10531967Y-11640674D02*
X10541491Y-11602579D01*
X10541491Y-11602579D02*
X10551015Y-11583531D01*
X10551015Y-11583531D02*
X10560539Y-11574008D01*
X10560539Y-11574008D02*
X10579586Y-11564484D01*
X10770063Y-11564484D02*
X10789110Y-11564484D01*
X10789110Y-11564484D02*
X10808158Y-11574008D01*
X10808158Y-11574008D02*
X10817682Y-11583531D01*
X10817682Y-11583531D02*
X10827205Y-11602579D01*
X10827205Y-11602579D02*
X10836729Y-11640674D01*
X10836729Y-11640674D02*
X10836729Y-11688293D01*
X10836729Y-11688293D02*
X10827205Y-11726388D01*
X10827205Y-11726388D02*
X10817682Y-11745436D01*
X10817682Y-11745436D02*
X10808158Y-11754960D01*
X10808158Y-11754960D02*
X10789110Y-11764484D01*
X10789110Y-11764484D02*
X10770063Y-11764484D01*
X10770063Y-11764484D02*
X10751015Y-11754960D01*
X10751015Y-11754960D02*
X10741491Y-11745436D01*
X10741491Y-11745436D02*
X10731967Y-11726388D01*
X10731967Y-11726388D02*
X10722444Y-11688293D01*
X10722444Y-11688293D02*
X10722444Y-11640674D01*
X10722444Y-11640674D02*
X10731967Y-11602579D01*
X10731967Y-11602579D02*
X10741491Y-11583531D01*
X10741491Y-11583531D02*
X10751015Y-11574008D01*
X10751015Y-11574008D02*
X10770063Y-11564484D01*
X10960539Y-11564484D02*
X10979586Y-11564484D01*
X10979586Y-11564484D02*
X10998634Y-11574008D01*
X10998634Y-11574008D02*
X11008158Y-11583531D01*
X11008158Y-11583531D02*
X11017682Y-11602579D01*
X11017682Y-11602579D02*
X11027205Y-11640674D01*
X11027205Y-11640674D02*
X11027205Y-11688293D01*
X11027205Y-11688293D02*
X11017682Y-11726388D01*
X11017682Y-11726388D02*
X11008158Y-11745436D01*
X11008158Y-11745436D02*
X10998634Y-11754960D01*
X10998634Y-11754960D02*
X10979586Y-11764484D01*
X10979586Y-11764484D02*
X10960539Y-11764484D01*
X10960539Y-11764484D02*
X10941491Y-11754960D01*
X10941491Y-11754960D02*
X10931967Y-11745436D01*
X10931967Y-11745436D02*
X10922444Y-11726388D01*
X10922444Y-11726388D02*
X10912920Y-11688293D01*
X10912920Y-11688293D02*
X10912920Y-11640674D01*
X10912920Y-11640674D02*
X10922444Y-11602579D01*
X10922444Y-11602579D02*
X10931967Y-11583531D01*
X10931967Y-11583531D02*
X10941491Y-11574008D01*
X10941491Y-11574008D02*
X10960539Y-11564484D01*
X11112920Y-11764484D02*
X11112920Y-11631150D01*
X11112920Y-11650198D02*
X11122444Y-11640674D01*
X11122444Y-11640674D02*
X11141491Y-11631150D01*
X11141491Y-11631150D02*
X11170063Y-11631150D01*
X11170063Y-11631150D02*
X11189110Y-11640674D01*
X11189110Y-11640674D02*
X11198634Y-11659722D01*
X11198634Y-11659722D02*
X11198634Y-11764484D01*
X11198634Y-11659722D02*
X11208158Y-11640674D01*
X11208158Y-11640674D02*
X11227205Y-11631150D01*
X11227205Y-11631150D02*
X11255777Y-11631150D01*
X11255777Y-11631150D02*
X11274824Y-11640674D01*
X11274824Y-11640674D02*
X11284348Y-11659722D01*
X11284348Y-11659722D02*
X11284348Y-11764484D01*
X11379586Y-11764484D02*
X11379586Y-11631150D01*
X11379586Y-11650198D02*
X11389110Y-11640674D01*
X11389110Y-11640674D02*
X11408158Y-11631150D01*
X11408158Y-11631150D02*
X11436729Y-11631150D01*
X11436729Y-11631150D02*
X11455777Y-11640674D01*
X11455777Y-11640674D02*
X11465301Y-11659722D01*
X11465301Y-11659722D02*
X11465301Y-11764484D01*
X11465301Y-11659722D02*
X11474824Y-11640674D01*
X11474824Y-11640674D02*
X11493872Y-11631150D01*
X11493872Y-11631150D02*
X11522443Y-11631150D01*
X11522443Y-11631150D02*
X11541491Y-11640674D01*
X11541491Y-11640674D02*
X11551015Y-11659722D01*
X11551015Y-11659722D02*
X11551015Y-11764484D01*
X11941491Y-11554960D02*
X11770063Y-11812103D01*
X12198634Y-11564484D02*
X12217682Y-11564484D01*
X12217682Y-11564484D02*
X12236729Y-11574008D01*
X12236729Y-11574008D02*
X12246253Y-11583531D01*
X12246253Y-11583531D02*
X12255777Y-11602579D01*
X12255777Y-11602579D02*
X12265301Y-11640674D01*
X12265301Y-11640674D02*
X12265301Y-11688293D01*
X12265301Y-11688293D02*
X12255777Y-11726388D01*
X12255777Y-11726388D02*
X12246253Y-11745436D01*
X12246253Y-11745436D02*
X12236729Y-11754960D01*
X12236729Y-11754960D02*
X12217682Y-11764484D01*
X12217682Y-11764484D02*
X12198634Y-11764484D01*
X12198634Y-11764484D02*
X12179586Y-11754960D01*
X12179586Y-11754960D02*
X12170063Y-11745436D01*
X12170063Y-11745436D02*
X12160539Y-11726388D01*
X12160539Y-11726388D02*
X12151015Y-11688293D01*
X12151015Y-11688293D02*
X12151015Y-11640674D01*
X12151015Y-11640674D02*
X12160539Y-11602579D01*
X12160539Y-11602579D02*
X12170063Y-11583531D01*
X12170063Y-11583531D02*
X12179586Y-11574008D01*
X12179586Y-11574008D02*
X12198634Y-11564484D01*
X12351015Y-11745436D02*
X12360539Y-11754960D01*
X12360539Y-11754960D02*
X12351015Y-11764484D01*
X12351015Y-11764484D02*
X12341491Y-11754960D01*
X12341491Y-11754960D02*
X12351015Y-11745436D01*
X12351015Y-11745436D02*
X12351015Y-11764484D01*
X12484348Y-11564484D02*
X12503396Y-11564484D01*
X12503396Y-11564484D02*
X12522444Y-11574008D01*
X12522444Y-11574008D02*
X12531967Y-11583531D01*
X12531967Y-11583531D02*
X12541491Y-11602579D01*
X12541491Y-11602579D02*
X12551015Y-11640674D01*
X12551015Y-11640674D02*
X12551015Y-11688293D01*
X12551015Y-11688293D02*
X12541491Y-11726388D01*
X12541491Y-11726388D02*
X12531967Y-11745436D01*
X12531967Y-11745436D02*
X12522444Y-11754960D01*
X12522444Y-11754960D02*
X12503396Y-11764484D01*
X12503396Y-11764484D02*
X12484348Y-11764484D01*
X12484348Y-11764484D02*
X12465301Y-11754960D01*
X12465301Y-11754960D02*
X12455777Y-11745436D01*
X12455777Y-11745436D02*
X12446253Y-11726388D01*
X12446253Y-11726388D02*
X12436729Y-11688293D01*
X12436729Y-11688293D02*
X12436729Y-11640674D01*
X12436729Y-11640674D02*
X12446253Y-11602579D01*
X12446253Y-11602579D02*
X12455777Y-11583531D01*
X12455777Y-11583531D02*
X12465301Y-11574008D01*
X12465301Y-11574008D02*
X12484348Y-11564484D01*
X12617682Y-11564484D02*
X12741491Y-11564484D01*
X12741491Y-11564484D02*
X12674825Y-11640674D01*
X12674825Y-11640674D02*
X12703396Y-11640674D01*
X12703396Y-11640674D02*
X12722444Y-11650198D01*
X12722444Y-11650198D02*
X12731967Y-11659722D01*
X12731967Y-11659722D02*
X12741491Y-11678769D01*
X12741491Y-11678769D02*
X12741491Y-11726388D01*
X12741491Y-11726388D02*
X12731967Y-11745436D01*
X12731967Y-11745436D02*
X12722444Y-11754960D01*
X12722444Y-11754960D02*
X12703396Y-11764484D01*
X12703396Y-11764484D02*
X12646253Y-11764484D01*
X12646253Y-11764484D02*
X12627206Y-11754960D01*
X12627206Y-11754960D02*
X12617682Y-11745436D01*
X12836729Y-11764484D02*
X12874825Y-11764484D01*
X12874825Y-11764484D02*
X12893872Y-11754960D01*
X12893872Y-11754960D02*
X12903396Y-11745436D01*
X12903396Y-11745436D02*
X12922444Y-11716865D01*
X12922444Y-11716865D02*
X12931967Y-11678769D01*
X12931967Y-11678769D02*
X12931967Y-11602579D01*
X12931967Y-11602579D02*
X12922444Y-11583531D01*
X12922444Y-11583531D02*
X12912920Y-11574008D01*
X12912920Y-11574008D02*
X12893872Y-11564484D01*
X12893872Y-11564484D02*
X12855777Y-11564484D01*
X12855777Y-11564484D02*
X12836729Y-11574008D01*
X12836729Y-11574008D02*
X12827206Y-11583531D01*
X12827206Y-11583531D02*
X12817682Y-11602579D01*
X12817682Y-11602579D02*
X12817682Y-11650198D01*
X12817682Y-11650198D02*
X12827206Y-11669246D01*
X12827206Y-11669246D02*
X12836729Y-11678769D01*
X12836729Y-11678769D02*
X12855777Y-11688293D01*
X12855777Y-11688293D02*
X12893872Y-11688293D01*
X12893872Y-11688293D02*
X12912920Y-11678769D01*
X12912920Y-11678769D02*
X12922444Y-11669246D01*
X12922444Y-11669246D02*
X12931967Y-11650198D01*
X13103396Y-11631150D02*
X13103396Y-11764484D01*
X13055777Y-11554960D02*
X13008158Y-11697817D01*
X13008158Y-11697817D02*
X13131967Y-11697817D01*
X13198634Y-11564484D02*
X13198634Y-11602579D01*
X13274825Y-11564484D02*
X13274825Y-11602579D01*
X13570063Y-11840674D02*
X13560539Y-11831150D01*
X13560539Y-11831150D02*
X13541491Y-11802579D01*
X13541491Y-11802579D02*
X13531968Y-11783531D01*
X13531968Y-11783531D02*
X13522444Y-11754960D01*
X13522444Y-11754960D02*
X13512920Y-11707341D01*
X13512920Y-11707341D02*
X13512920Y-11669246D01*
X13512920Y-11669246D02*
X13522444Y-11621627D01*
X13522444Y-11621627D02*
X13531968Y-11593055D01*
X13531968Y-11593055D02*
X13541491Y-11574008D01*
X13541491Y-11574008D02*
X13560539Y-11545436D01*
X13560539Y-11545436D02*
X13570063Y-11535912D01*
X13731968Y-11631150D02*
X13731968Y-11764484D01*
X13684348Y-11554960D02*
X13636729Y-11697817D01*
X13636729Y-11697817D02*
X13760539Y-11697817D01*
X13874825Y-11564484D02*
X13893872Y-11564484D01*
X13893872Y-11564484D02*
X13912920Y-11574008D01*
X13912920Y-11574008D02*
X13922444Y-11583531D01*
X13922444Y-11583531D02*
X13931968Y-11602579D01*
X13931968Y-11602579D02*
X13941491Y-11640674D01*
X13941491Y-11640674D02*
X13941491Y-11688293D01*
X13941491Y-11688293D02*
X13931968Y-11726388D01*
X13931968Y-11726388D02*
X13922444Y-11745436D01*
X13922444Y-11745436D02*
X13912920Y-11754960D01*
X13912920Y-11754960D02*
X13893872Y-11764484D01*
X13893872Y-11764484D02*
X13874825Y-11764484D01*
X13874825Y-11764484D02*
X13855777Y-11754960D01*
X13855777Y-11754960D02*
X13846253Y-11745436D01*
X13846253Y-11745436D02*
X13836729Y-11726388D01*
X13836729Y-11726388D02*
X13827206Y-11688293D01*
X13827206Y-11688293D02*
X13827206Y-11640674D01*
X13827206Y-11640674D02*
X13836729Y-11602579D01*
X13836729Y-11602579D02*
X13846253Y-11583531D01*
X13846253Y-11583531D02*
X13855777Y-11574008D01*
X13855777Y-11574008D02*
X13874825Y-11564484D01*
X14179587Y-11764484D02*
X14179587Y-11564484D01*
X14265301Y-11764484D02*
X14265301Y-11659722D01*
X14265301Y-11659722D02*
X14255777Y-11640674D01*
X14255777Y-11640674D02*
X14236730Y-11631150D01*
X14236730Y-11631150D02*
X14208158Y-11631150D01*
X14208158Y-11631150D02*
X14189110Y-11640674D01*
X14189110Y-11640674D02*
X14179587Y-11650198D01*
X14389110Y-11764484D02*
X14370063Y-11754960D01*
X14370063Y-11754960D02*
X14360539Y-11745436D01*
X14360539Y-11745436D02*
X14351015Y-11726388D01*
X14351015Y-11726388D02*
X14351015Y-11669246D01*
X14351015Y-11669246D02*
X14360539Y-11650198D01*
X14360539Y-11650198D02*
X14370063Y-11640674D01*
X14370063Y-11640674D02*
X14389110Y-11631150D01*
X14389110Y-11631150D02*
X14417682Y-11631150D01*
X14417682Y-11631150D02*
X14436730Y-11640674D01*
X14436730Y-11640674D02*
X14446253Y-11650198D01*
X14446253Y-11650198D02*
X14455777Y-11669246D01*
X14455777Y-11669246D02*
X14455777Y-11726388D01*
X14455777Y-11726388D02*
X14446253Y-11745436D01*
X14446253Y-11745436D02*
X14436730Y-11754960D01*
X14436730Y-11754960D02*
X14417682Y-11764484D01*
X14417682Y-11764484D02*
X14389110Y-11764484D01*
X14570063Y-11764484D02*
X14551015Y-11754960D01*
X14551015Y-11754960D02*
X14541491Y-11735912D01*
X14541491Y-11735912D02*
X14541491Y-11564484D01*
X14722444Y-11754960D02*
X14703396Y-11764484D01*
X14703396Y-11764484D02*
X14665301Y-11764484D01*
X14665301Y-11764484D02*
X14646253Y-11754960D01*
X14646253Y-11754960D02*
X14636730Y-11735912D01*
X14636730Y-11735912D02*
X14636730Y-11659722D01*
X14636730Y-11659722D02*
X14646253Y-11640674D01*
X14646253Y-11640674D02*
X14665301Y-11631150D01*
X14665301Y-11631150D02*
X14703396Y-11631150D01*
X14703396Y-11631150D02*
X14722444Y-11640674D01*
X14722444Y-11640674D02*
X14731968Y-11659722D01*
X14731968Y-11659722D02*
X14731968Y-11678769D01*
X14731968Y-11678769D02*
X14636730Y-11697817D01*
X14808158Y-11754960D02*
X14827206Y-11764484D01*
X14827206Y-11764484D02*
X14865301Y-11764484D01*
X14865301Y-11764484D02*
X14884349Y-11754960D01*
X14884349Y-11754960D02*
X14893872Y-11735912D01*
X14893872Y-11735912D02*
X14893872Y-11726388D01*
X14893872Y-11726388D02*
X14884349Y-11707341D01*
X14884349Y-11707341D02*
X14865301Y-11697817D01*
X14865301Y-11697817D02*
X14836730Y-11697817D01*
X14836730Y-11697817D02*
X14817682Y-11688293D01*
X14817682Y-11688293D02*
X14808158Y-11669246D01*
X14808158Y-11669246D02*
X14808158Y-11659722D01*
X14808158Y-11659722D02*
X14817682Y-11640674D01*
X14817682Y-11640674D02*
X14836730Y-11631150D01*
X14836730Y-11631150D02*
X14865301Y-11631150D01*
X14865301Y-11631150D02*
X14884349Y-11640674D01*
X14960539Y-11840674D02*
X14970063Y-11831150D01*
X14970063Y-11831150D02*
X14989111Y-11802579D01*
X14989111Y-11802579D02*
X14998634Y-11783531D01*
X14998634Y-11783531D02*
X15008158Y-11754960D01*
X15008158Y-11754960D02*
X15017682Y-11707341D01*
X15017682Y-11707341D02*
X15017682Y-11669246D01*
X15017682Y-11669246D02*
X15008158Y-11621627D01*
X15008158Y-11621627D02*
X14998634Y-11593055D01*
X14998634Y-11593055D02*
X14989111Y-11574008D01*
X14989111Y-11574008D02*
X14970063Y-11545436D01*
X14970063Y-11545436D02*
X14960539Y-11535912D01*
D12*
X9978159Y-11977659D02*
X9978159Y-11896341D01*
X9896841Y-11896341D01*
X9896841Y-11977659D01*
X9978159Y-11977659D01*
D11*
X10360539Y-12028484D02*
X10246253Y-12028484D01*
X10303396Y-12028484D02*
X10303396Y-11828484D01*
X10303396Y-11828484D02*
X10284348Y-11857055D01*
X10284348Y-11857055D02*
X10265301Y-11876103D01*
X10265301Y-11876103D02*
X10246253Y-11885627D01*
X10446253Y-12009436D02*
X10455777Y-12018960D01*
X10455777Y-12018960D02*
X10446253Y-12028484D01*
X10446253Y-12028484D02*
X10436729Y-12018960D01*
X10436729Y-12018960D02*
X10446253Y-12009436D01*
X10446253Y-12009436D02*
X10446253Y-12028484D01*
X10646253Y-12028484D02*
X10531967Y-12028484D01*
X10589110Y-12028484D02*
X10589110Y-11828484D01*
X10589110Y-11828484D02*
X10570063Y-11857055D01*
X10570063Y-11857055D02*
X10551015Y-11876103D01*
X10551015Y-11876103D02*
X10531967Y-11885627D01*
X10827205Y-11828484D02*
X10731967Y-11828484D01*
X10731967Y-11828484D02*
X10722444Y-11923722D01*
X10722444Y-11923722D02*
X10731967Y-11914198D01*
X10731967Y-11914198D02*
X10751015Y-11904674D01*
X10751015Y-11904674D02*
X10798634Y-11904674D01*
X10798634Y-11904674D02*
X10817682Y-11914198D01*
X10817682Y-11914198D02*
X10827205Y-11923722D01*
X10827205Y-11923722D02*
X10836729Y-11942769D01*
X10836729Y-11942769D02*
X10836729Y-11990388D01*
X10836729Y-11990388D02*
X10827205Y-12009436D01*
X10827205Y-12009436D02*
X10817682Y-12018960D01*
X10817682Y-12018960D02*
X10798634Y-12028484D01*
X10798634Y-12028484D02*
X10751015Y-12028484D01*
X10751015Y-12028484D02*
X10731967Y-12018960D01*
X10731967Y-12018960D02*
X10722444Y-12009436D01*
X10960539Y-11828484D02*
X10979586Y-11828484D01*
X10979586Y-11828484D02*
X10998634Y-11838008D01*
X10998634Y-11838008D02*
X11008158Y-11847531D01*
X11008158Y-11847531D02*
X11017682Y-11866579D01*
X11017682Y-11866579D02*
X11027205Y-11904674D01*
X11027205Y-11904674D02*
X11027205Y-11952293D01*
X11027205Y-11952293D02*
X11017682Y-11990388D01*
X11017682Y-11990388D02*
X11008158Y-12009436D01*
X11008158Y-12009436D02*
X10998634Y-12018960D01*
X10998634Y-12018960D02*
X10979586Y-12028484D01*
X10979586Y-12028484D02*
X10960539Y-12028484D01*
X10960539Y-12028484D02*
X10941491Y-12018960D01*
X10941491Y-12018960D02*
X10931967Y-12009436D01*
X10931967Y-12009436D02*
X10922444Y-11990388D01*
X10922444Y-11990388D02*
X10912920Y-11952293D01*
X10912920Y-11952293D02*
X10912920Y-11904674D01*
X10912920Y-11904674D02*
X10922444Y-11866579D01*
X10922444Y-11866579D02*
X10931967Y-11847531D01*
X10931967Y-11847531D02*
X10941491Y-11838008D01*
X10941491Y-11838008D02*
X10960539Y-11828484D01*
X11112920Y-12028484D02*
X11112920Y-11895150D01*
X11112920Y-11914198D02*
X11122444Y-11904674D01*
X11122444Y-11904674D02*
X11141491Y-11895150D01*
X11141491Y-11895150D02*
X11170063Y-11895150D01*
X11170063Y-11895150D02*
X11189110Y-11904674D01*
X11189110Y-11904674D02*
X11198634Y-11923722D01*
X11198634Y-11923722D02*
X11198634Y-12028484D01*
X11198634Y-11923722D02*
X11208158Y-11904674D01*
X11208158Y-11904674D02*
X11227205Y-11895150D01*
X11227205Y-11895150D02*
X11255777Y-11895150D01*
X11255777Y-11895150D02*
X11274824Y-11904674D01*
X11274824Y-11904674D02*
X11284348Y-11923722D01*
X11284348Y-11923722D02*
X11284348Y-12028484D01*
X11379586Y-12028484D02*
X11379586Y-11895150D01*
X11379586Y-11914198D02*
X11389110Y-11904674D01*
X11389110Y-11904674D02*
X11408158Y-11895150D01*
X11408158Y-11895150D02*
X11436729Y-11895150D01*
X11436729Y-11895150D02*
X11455777Y-11904674D01*
X11455777Y-11904674D02*
X11465301Y-11923722D01*
X11465301Y-11923722D02*
X11465301Y-12028484D01*
X11465301Y-11923722D02*
X11474824Y-11904674D01*
X11474824Y-11904674D02*
X11493872Y-11895150D01*
X11493872Y-11895150D02*
X11522443Y-11895150D01*
X11522443Y-11895150D02*
X11541491Y-11904674D01*
X11541491Y-11904674D02*
X11551015Y-11923722D01*
X11551015Y-11923722D02*
X11551015Y-12028484D01*
X11941491Y-11818960D02*
X11770063Y-12076103D01*
X12198634Y-11828484D02*
X12217682Y-11828484D01*
X12217682Y-11828484D02*
X12236729Y-11838008D01*
X12236729Y-11838008D02*
X12246253Y-11847531D01*
X12246253Y-11847531D02*
X12255777Y-11866579D01*
X12255777Y-11866579D02*
X12265301Y-11904674D01*
X12265301Y-11904674D02*
X12265301Y-11952293D01*
X12265301Y-11952293D02*
X12255777Y-11990388D01*
X12255777Y-11990388D02*
X12246253Y-12009436D01*
X12246253Y-12009436D02*
X12236729Y-12018960D01*
X12236729Y-12018960D02*
X12217682Y-12028484D01*
X12217682Y-12028484D02*
X12198634Y-12028484D01*
X12198634Y-12028484D02*
X12179586Y-12018960D01*
X12179586Y-12018960D02*
X12170063Y-12009436D01*
X12170063Y-12009436D02*
X12160539Y-11990388D01*
X12160539Y-11990388D02*
X12151015Y-11952293D01*
X12151015Y-11952293D02*
X12151015Y-11904674D01*
X12151015Y-11904674D02*
X12160539Y-11866579D01*
X12160539Y-11866579D02*
X12170063Y-11847531D01*
X12170063Y-11847531D02*
X12179586Y-11838008D01*
X12179586Y-11838008D02*
X12198634Y-11828484D01*
X12351015Y-12009436D02*
X12360539Y-12018960D01*
X12360539Y-12018960D02*
X12351015Y-12028484D01*
X12351015Y-12028484D02*
X12341491Y-12018960D01*
X12341491Y-12018960D02*
X12351015Y-12009436D01*
X12351015Y-12009436D02*
X12351015Y-12028484D01*
X12484348Y-11828484D02*
X12503396Y-11828484D01*
X12503396Y-11828484D02*
X12522444Y-11838008D01*
X12522444Y-11838008D02*
X12531967Y-11847531D01*
X12531967Y-11847531D02*
X12541491Y-11866579D01*
X12541491Y-11866579D02*
X12551015Y-11904674D01*
X12551015Y-11904674D02*
X12551015Y-11952293D01*
X12551015Y-11952293D02*
X12541491Y-11990388D01*
X12541491Y-11990388D02*
X12531967Y-12009436D01*
X12531967Y-12009436D02*
X12522444Y-12018960D01*
X12522444Y-12018960D02*
X12503396Y-12028484D01*
X12503396Y-12028484D02*
X12484348Y-12028484D01*
X12484348Y-12028484D02*
X12465301Y-12018960D01*
X12465301Y-12018960D02*
X12455777Y-12009436D01*
X12455777Y-12009436D02*
X12446253Y-11990388D01*
X12446253Y-11990388D02*
X12436729Y-11952293D01*
X12436729Y-11952293D02*
X12436729Y-11904674D01*
X12436729Y-11904674D02*
X12446253Y-11866579D01*
X12446253Y-11866579D02*
X12455777Y-11847531D01*
X12455777Y-11847531D02*
X12465301Y-11838008D01*
X12465301Y-11838008D02*
X12484348Y-11828484D01*
X12722444Y-11895150D02*
X12722444Y-12028484D01*
X12674825Y-11818960D02*
X12627206Y-11961817D01*
X12627206Y-11961817D02*
X12751015Y-11961817D01*
X12922444Y-11828484D02*
X12827206Y-11828484D01*
X12827206Y-11828484D02*
X12817682Y-11923722D01*
X12817682Y-11923722D02*
X12827206Y-11914198D01*
X12827206Y-11914198D02*
X12846253Y-11904674D01*
X12846253Y-11904674D02*
X12893872Y-11904674D01*
X12893872Y-11904674D02*
X12912920Y-11914198D01*
X12912920Y-11914198D02*
X12922444Y-11923722D01*
X12922444Y-11923722D02*
X12931967Y-11942769D01*
X12931967Y-11942769D02*
X12931967Y-11990388D01*
X12931967Y-11990388D02*
X12922444Y-12009436D01*
X12922444Y-12009436D02*
X12912920Y-12018960D01*
X12912920Y-12018960D02*
X12893872Y-12028484D01*
X12893872Y-12028484D02*
X12846253Y-12028484D01*
X12846253Y-12028484D02*
X12827206Y-12018960D01*
X12827206Y-12018960D02*
X12817682Y-12009436D01*
X12998634Y-11828484D02*
X13122444Y-11828484D01*
X13122444Y-11828484D02*
X13055777Y-11904674D01*
X13055777Y-11904674D02*
X13084348Y-11904674D01*
X13084348Y-11904674D02*
X13103396Y-11914198D01*
X13103396Y-11914198D02*
X13112920Y-11923722D01*
X13112920Y-11923722D02*
X13122444Y-11942769D01*
X13122444Y-11942769D02*
X13122444Y-11990388D01*
X13122444Y-11990388D02*
X13112920Y-12009436D01*
X13112920Y-12009436D02*
X13103396Y-12018960D01*
X13103396Y-12018960D02*
X13084348Y-12028484D01*
X13084348Y-12028484D02*
X13027206Y-12028484D01*
X13027206Y-12028484D02*
X13008158Y-12018960D01*
X13008158Y-12018960D02*
X12998634Y-12009436D01*
X13198634Y-11828484D02*
X13198634Y-11866579D01*
X13274825Y-11828484D02*
X13274825Y-11866579D01*
X13570063Y-12104674D02*
X13560539Y-12095150D01*
X13560539Y-12095150D02*
X13541491Y-12066579D01*
X13541491Y-12066579D02*
X13531968Y-12047531D01*
X13531968Y-12047531D02*
X13522444Y-12018960D01*
X13522444Y-12018960D02*
X13512920Y-11971341D01*
X13512920Y-11971341D02*
X13512920Y-11933246D01*
X13512920Y-11933246D02*
X13522444Y-11885627D01*
X13522444Y-11885627D02*
X13531968Y-11857055D01*
X13531968Y-11857055D02*
X13541491Y-11838008D01*
X13541491Y-11838008D02*
X13560539Y-11809436D01*
X13560539Y-11809436D02*
X13570063Y-11799912D01*
X13674825Y-11914198D02*
X13655777Y-11904674D01*
X13655777Y-11904674D02*
X13646253Y-11895150D01*
X13646253Y-11895150D02*
X13636729Y-11876103D01*
X13636729Y-11876103D02*
X13636729Y-11866579D01*
X13636729Y-11866579D02*
X13646253Y-11847531D01*
X13646253Y-11847531D02*
X13655777Y-11838008D01*
X13655777Y-11838008D02*
X13674825Y-11828484D01*
X13674825Y-11828484D02*
X13712920Y-11828484D01*
X13712920Y-11828484D02*
X13731968Y-11838008D01*
X13731968Y-11838008D02*
X13741491Y-11847531D01*
X13741491Y-11847531D02*
X13751015Y-11866579D01*
X13751015Y-11866579D02*
X13751015Y-11876103D01*
X13751015Y-11876103D02*
X13741491Y-11895150D01*
X13741491Y-11895150D02*
X13731968Y-11904674D01*
X13731968Y-11904674D02*
X13712920Y-11914198D01*
X13712920Y-11914198D02*
X13674825Y-11914198D01*
X13674825Y-11914198D02*
X13655777Y-11923722D01*
X13655777Y-11923722D02*
X13646253Y-11933246D01*
X13646253Y-11933246D02*
X13636729Y-11952293D01*
X13636729Y-11952293D02*
X13636729Y-11990388D01*
X13636729Y-11990388D02*
X13646253Y-12009436D01*
X13646253Y-12009436D02*
X13655777Y-12018960D01*
X13655777Y-12018960D02*
X13674825Y-12028484D01*
X13674825Y-12028484D02*
X13712920Y-12028484D01*
X13712920Y-12028484D02*
X13731968Y-12018960D01*
X13731968Y-12018960D02*
X13741491Y-12009436D01*
X13741491Y-12009436D02*
X13751015Y-11990388D01*
X13751015Y-11990388D02*
X13751015Y-11952293D01*
X13751015Y-11952293D02*
X13741491Y-11933246D01*
X13741491Y-11933246D02*
X13731968Y-11923722D01*
X13731968Y-11923722D02*
X13712920Y-11914198D01*
X13989110Y-12028484D02*
X13989110Y-11828484D01*
X14074825Y-12028484D02*
X14074825Y-11923722D01*
X14074825Y-11923722D02*
X14065301Y-11904674D01*
X14065301Y-11904674D02*
X14046253Y-11895150D01*
X14046253Y-11895150D02*
X14017682Y-11895150D01*
X14017682Y-11895150D02*
X13998634Y-11904674D01*
X13998634Y-11904674D02*
X13989110Y-11914198D01*
X14198634Y-12028484D02*
X14179587Y-12018960D01*
X14179587Y-12018960D02*
X14170063Y-12009436D01*
X14170063Y-12009436D02*
X14160539Y-11990388D01*
X14160539Y-11990388D02*
X14160539Y-11933246D01*
X14160539Y-11933246D02*
X14170063Y-11914198D01*
X14170063Y-11914198D02*
X14179587Y-11904674D01*
X14179587Y-11904674D02*
X14198634Y-11895150D01*
X14198634Y-11895150D02*
X14227206Y-11895150D01*
X14227206Y-11895150D02*
X14246253Y-11904674D01*
X14246253Y-11904674D02*
X14255777Y-11914198D01*
X14255777Y-11914198D02*
X14265301Y-11933246D01*
X14265301Y-11933246D02*
X14265301Y-11990388D01*
X14265301Y-11990388D02*
X14255777Y-12009436D01*
X14255777Y-12009436D02*
X14246253Y-12018960D01*
X14246253Y-12018960D02*
X14227206Y-12028484D01*
X14227206Y-12028484D02*
X14198634Y-12028484D01*
X14379587Y-12028484D02*
X14360539Y-12018960D01*
X14360539Y-12018960D02*
X14351015Y-11999912D01*
X14351015Y-11999912D02*
X14351015Y-11828484D01*
X14531968Y-12018960D02*
X14512920Y-12028484D01*
X14512920Y-12028484D02*
X14474825Y-12028484D01*
X14474825Y-12028484D02*
X14455777Y-12018960D01*
X14455777Y-12018960D02*
X14446253Y-11999912D01*
X14446253Y-11999912D02*
X14446253Y-11923722D01*
X14446253Y-11923722D02*
X14455777Y-11904674D01*
X14455777Y-11904674D02*
X14474825Y-11895150D01*
X14474825Y-11895150D02*
X14512920Y-11895150D01*
X14512920Y-11895150D02*
X14531968Y-11904674D01*
X14531968Y-11904674D02*
X14541491Y-11923722D01*
X14541491Y-11923722D02*
X14541491Y-11942769D01*
X14541491Y-11942769D02*
X14446253Y-11961817D01*
X14617682Y-12018960D02*
X14636730Y-12028484D01*
X14636730Y-12028484D02*
X14674825Y-12028484D01*
X14674825Y-12028484D02*
X14693872Y-12018960D01*
X14693872Y-12018960D02*
X14703396Y-11999912D01*
X14703396Y-11999912D02*
X14703396Y-11990388D01*
X14703396Y-11990388D02*
X14693872Y-11971341D01*
X14693872Y-11971341D02*
X14674825Y-11961817D01*
X14674825Y-11961817D02*
X14646253Y-11961817D01*
X14646253Y-11961817D02*
X14627206Y-11952293D01*
X14627206Y-11952293D02*
X14617682Y-11933246D01*
X14617682Y-11933246D02*
X14617682Y-11923722D01*
X14617682Y-11923722D02*
X14627206Y-11904674D01*
X14627206Y-11904674D02*
X14646253Y-11895150D01*
X14646253Y-11895150D02*
X14674825Y-11895150D01*
X14674825Y-11895150D02*
X14693872Y-11904674D01*
X14770063Y-12104674D02*
X14779587Y-12095150D01*
X14779587Y-12095150D02*
X14798634Y-12066579D01*
X14798634Y-12066579D02*
X14808158Y-12047531D01*
X14808158Y-12047531D02*
X14817682Y-12018960D01*
X14817682Y-12018960D02*
X14827206Y-11971341D01*
X14827206Y-11971341D02*
X14827206Y-11933246D01*
X14827206Y-11933246D02*
X14817682Y-11885627D01*
X14817682Y-11885627D02*
X14808158Y-11857055D01*
X14808158Y-11857055D02*
X14798634Y-11838008D01*
X14798634Y-11838008D02*
X14779587Y-11809436D01*
X14779587Y-11809436D02*
X14770063Y-11799912D01*
D13*
X9935500Y-12260500D02*
X9995000Y-12201000D01*
X9935500Y-12141500D01*
X9876000Y-12201000D01*
X9935500Y-12260500D01*
D11*
X10360539Y-12292484D02*
X10246253Y-12292484D01*
X10303396Y-12292484D02*
X10303396Y-12092484D01*
X10303396Y-12092484D02*
X10284348Y-12121055D01*
X10284348Y-12121055D02*
X10265301Y-12140103D01*
X10265301Y-12140103D02*
X10246253Y-12149627D01*
X10446253Y-12273436D02*
X10455777Y-12282960D01*
X10455777Y-12282960D02*
X10446253Y-12292484D01*
X10446253Y-12292484D02*
X10436729Y-12282960D01*
X10436729Y-12282960D02*
X10446253Y-12273436D01*
X10446253Y-12273436D02*
X10446253Y-12292484D01*
X10646253Y-12292484D02*
X10531967Y-12292484D01*
X10589110Y-12292484D02*
X10589110Y-12092484D01*
X10589110Y-12092484D02*
X10570063Y-12121055D01*
X10570063Y-12121055D02*
X10551015Y-12140103D01*
X10551015Y-12140103D02*
X10531967Y-12149627D01*
X10741491Y-12292484D02*
X10779586Y-12292484D01*
X10779586Y-12292484D02*
X10798634Y-12282960D01*
X10798634Y-12282960D02*
X10808158Y-12273436D01*
X10808158Y-12273436D02*
X10827205Y-12244865D01*
X10827205Y-12244865D02*
X10836729Y-12206769D01*
X10836729Y-12206769D02*
X10836729Y-12130579D01*
X10836729Y-12130579D02*
X10827205Y-12111531D01*
X10827205Y-12111531D02*
X10817682Y-12102008D01*
X10817682Y-12102008D02*
X10798634Y-12092484D01*
X10798634Y-12092484D02*
X10760539Y-12092484D01*
X10760539Y-12092484D02*
X10741491Y-12102008D01*
X10741491Y-12102008D02*
X10731967Y-12111531D01*
X10731967Y-12111531D02*
X10722444Y-12130579D01*
X10722444Y-12130579D02*
X10722444Y-12178198D01*
X10722444Y-12178198D02*
X10731967Y-12197246D01*
X10731967Y-12197246D02*
X10741491Y-12206769D01*
X10741491Y-12206769D02*
X10760539Y-12216293D01*
X10760539Y-12216293D02*
X10798634Y-12216293D01*
X10798634Y-12216293D02*
X10817682Y-12206769D01*
X10817682Y-12206769D02*
X10827205Y-12197246D01*
X10827205Y-12197246D02*
X10836729Y-12178198D01*
X10960539Y-12092484D02*
X10979586Y-12092484D01*
X10979586Y-12092484D02*
X10998634Y-12102008D01*
X10998634Y-12102008D02*
X11008158Y-12111531D01*
X11008158Y-12111531D02*
X11017682Y-12130579D01*
X11017682Y-12130579D02*
X11027205Y-12168674D01*
X11027205Y-12168674D02*
X11027205Y-12216293D01*
X11027205Y-12216293D02*
X11017682Y-12254388D01*
X11017682Y-12254388D02*
X11008158Y-12273436D01*
X11008158Y-12273436D02*
X10998634Y-12282960D01*
X10998634Y-12282960D02*
X10979586Y-12292484D01*
X10979586Y-12292484D02*
X10960539Y-12292484D01*
X10960539Y-12292484D02*
X10941491Y-12282960D01*
X10941491Y-12282960D02*
X10931967Y-12273436D01*
X10931967Y-12273436D02*
X10922444Y-12254388D01*
X10922444Y-12254388D02*
X10912920Y-12216293D01*
X10912920Y-12216293D02*
X10912920Y-12168674D01*
X10912920Y-12168674D02*
X10922444Y-12130579D01*
X10922444Y-12130579D02*
X10931967Y-12111531D01*
X10931967Y-12111531D02*
X10941491Y-12102008D01*
X10941491Y-12102008D02*
X10960539Y-12092484D01*
X11112920Y-12292484D02*
X11112920Y-12159150D01*
X11112920Y-12178198D02*
X11122444Y-12168674D01*
X11122444Y-12168674D02*
X11141491Y-12159150D01*
X11141491Y-12159150D02*
X11170063Y-12159150D01*
X11170063Y-12159150D02*
X11189110Y-12168674D01*
X11189110Y-12168674D02*
X11198634Y-12187722D01*
X11198634Y-12187722D02*
X11198634Y-12292484D01*
X11198634Y-12187722D02*
X11208158Y-12168674D01*
X11208158Y-12168674D02*
X11227205Y-12159150D01*
X11227205Y-12159150D02*
X11255777Y-12159150D01*
X11255777Y-12159150D02*
X11274824Y-12168674D01*
X11274824Y-12168674D02*
X11284348Y-12187722D01*
X11284348Y-12187722D02*
X11284348Y-12292484D01*
X11379586Y-12292484D02*
X11379586Y-12159150D01*
X11379586Y-12178198D02*
X11389110Y-12168674D01*
X11389110Y-12168674D02*
X11408158Y-12159150D01*
X11408158Y-12159150D02*
X11436729Y-12159150D01*
X11436729Y-12159150D02*
X11455777Y-12168674D01*
X11455777Y-12168674D02*
X11465301Y-12187722D01*
X11465301Y-12187722D02*
X11465301Y-12292484D01*
X11465301Y-12187722D02*
X11474824Y-12168674D01*
X11474824Y-12168674D02*
X11493872Y-12159150D01*
X11493872Y-12159150D02*
X11522443Y-12159150D01*
X11522443Y-12159150D02*
X11541491Y-12168674D01*
X11541491Y-12168674D02*
X11551015Y-12187722D01*
X11551015Y-12187722D02*
X11551015Y-12292484D01*
X11941491Y-12082960D02*
X11770063Y-12340103D01*
X12198634Y-12092484D02*
X12217682Y-12092484D01*
X12217682Y-12092484D02*
X12236729Y-12102008D01*
X12236729Y-12102008D02*
X12246253Y-12111531D01*
X12246253Y-12111531D02*
X12255777Y-12130579D01*
X12255777Y-12130579D02*
X12265301Y-12168674D01*
X12265301Y-12168674D02*
X12265301Y-12216293D01*
X12265301Y-12216293D02*
X12255777Y-12254388D01*
X12255777Y-12254388D02*
X12246253Y-12273436D01*
X12246253Y-12273436D02*
X12236729Y-12282960D01*
X12236729Y-12282960D02*
X12217682Y-12292484D01*
X12217682Y-12292484D02*
X12198634Y-12292484D01*
X12198634Y-12292484D02*
X12179586Y-12282960D01*
X12179586Y-12282960D02*
X12170063Y-12273436D01*
X12170063Y-12273436D02*
X12160539Y-12254388D01*
X12160539Y-12254388D02*
X12151015Y-12216293D01*
X12151015Y-12216293D02*
X12151015Y-12168674D01*
X12151015Y-12168674D02*
X12160539Y-12130579D01*
X12160539Y-12130579D02*
X12170063Y-12111531D01*
X12170063Y-12111531D02*
X12179586Y-12102008D01*
X12179586Y-12102008D02*
X12198634Y-12092484D01*
X12351015Y-12273436D02*
X12360539Y-12282960D01*
X12360539Y-12282960D02*
X12351015Y-12292484D01*
X12351015Y-12292484D02*
X12341491Y-12282960D01*
X12341491Y-12282960D02*
X12351015Y-12273436D01*
X12351015Y-12273436D02*
X12351015Y-12292484D01*
X12484348Y-12092484D02*
X12503396Y-12092484D01*
X12503396Y-12092484D02*
X12522444Y-12102008D01*
X12522444Y-12102008D02*
X12531967Y-12111531D01*
X12531967Y-12111531D02*
X12541491Y-12130579D01*
X12541491Y-12130579D02*
X12551015Y-12168674D01*
X12551015Y-12168674D02*
X12551015Y-12216293D01*
X12551015Y-12216293D02*
X12541491Y-12254388D01*
X12541491Y-12254388D02*
X12531967Y-12273436D01*
X12531967Y-12273436D02*
X12522444Y-12282960D01*
X12522444Y-12282960D02*
X12503396Y-12292484D01*
X12503396Y-12292484D02*
X12484348Y-12292484D01*
X12484348Y-12292484D02*
X12465301Y-12282960D01*
X12465301Y-12282960D02*
X12455777Y-12273436D01*
X12455777Y-12273436D02*
X12446253Y-12254388D01*
X12446253Y-12254388D02*
X12436729Y-12216293D01*
X12436729Y-12216293D02*
X12436729Y-12168674D01*
X12436729Y-12168674D02*
X12446253Y-12130579D01*
X12446253Y-12130579D02*
X12455777Y-12111531D01*
X12455777Y-12111531D02*
X12465301Y-12102008D01*
X12465301Y-12102008D02*
X12484348Y-12092484D01*
X12722444Y-12159150D02*
X12722444Y-12292484D01*
X12674825Y-12082960D02*
X12627206Y-12225817D01*
X12627206Y-12225817D02*
X12751015Y-12225817D01*
X12912920Y-12092484D02*
X12874825Y-12092484D01*
X12874825Y-12092484D02*
X12855777Y-12102008D01*
X12855777Y-12102008D02*
X12846253Y-12111531D01*
X12846253Y-12111531D02*
X12827206Y-12140103D01*
X12827206Y-12140103D02*
X12817682Y-12178198D01*
X12817682Y-12178198D02*
X12817682Y-12254388D01*
X12817682Y-12254388D02*
X12827206Y-12273436D01*
X12827206Y-12273436D02*
X12836729Y-12282960D01*
X12836729Y-12282960D02*
X12855777Y-12292484D01*
X12855777Y-12292484D02*
X12893872Y-12292484D01*
X12893872Y-12292484D02*
X12912920Y-12282960D01*
X12912920Y-12282960D02*
X12922444Y-12273436D01*
X12922444Y-12273436D02*
X12931967Y-12254388D01*
X12931967Y-12254388D02*
X12931967Y-12206769D01*
X12931967Y-12206769D02*
X12922444Y-12187722D01*
X12922444Y-12187722D02*
X12912920Y-12178198D01*
X12912920Y-12178198D02*
X12893872Y-12168674D01*
X12893872Y-12168674D02*
X12855777Y-12168674D01*
X12855777Y-12168674D02*
X12836729Y-12178198D01*
X12836729Y-12178198D02*
X12827206Y-12187722D01*
X12827206Y-12187722D02*
X12817682Y-12206769D01*
X13027206Y-12292484D02*
X13065301Y-12292484D01*
X13065301Y-12292484D02*
X13084348Y-12282960D01*
X13084348Y-12282960D02*
X13093872Y-12273436D01*
X13093872Y-12273436D02*
X13112920Y-12244865D01*
X13112920Y-12244865D02*
X13122444Y-12206769D01*
X13122444Y-12206769D02*
X13122444Y-12130579D01*
X13122444Y-12130579D02*
X13112920Y-12111531D01*
X13112920Y-12111531D02*
X13103396Y-12102008D01*
X13103396Y-12102008D02*
X13084348Y-12092484D01*
X13084348Y-12092484D02*
X13046253Y-12092484D01*
X13046253Y-12092484D02*
X13027206Y-12102008D01*
X13027206Y-12102008D02*
X13017682Y-12111531D01*
X13017682Y-12111531D02*
X13008158Y-12130579D01*
X13008158Y-12130579D02*
X13008158Y-12178198D01*
X13008158Y-12178198D02*
X13017682Y-12197246D01*
X13017682Y-12197246D02*
X13027206Y-12206769D01*
X13027206Y-12206769D02*
X13046253Y-12216293D01*
X13046253Y-12216293D02*
X13084348Y-12216293D01*
X13084348Y-12216293D02*
X13103396Y-12206769D01*
X13103396Y-12206769D02*
X13112920Y-12197246D01*
X13112920Y-12197246D02*
X13122444Y-12178198D01*
X13198634Y-12092484D02*
X13198634Y-12130579D01*
X13274825Y-12092484D02*
X13274825Y-12130579D01*
X13570063Y-12368674D02*
X13560539Y-12359150D01*
X13560539Y-12359150D02*
X13541491Y-12330579D01*
X13541491Y-12330579D02*
X13531968Y-12311531D01*
X13531968Y-12311531D02*
X13522444Y-12282960D01*
X13522444Y-12282960D02*
X13512920Y-12235341D01*
X13512920Y-12235341D02*
X13512920Y-12197246D01*
X13512920Y-12197246D02*
X13522444Y-12149627D01*
X13522444Y-12149627D02*
X13531968Y-12121055D01*
X13531968Y-12121055D02*
X13541491Y-12102008D01*
X13541491Y-12102008D02*
X13560539Y-12073436D01*
X13560539Y-12073436D02*
X13570063Y-12063912D01*
X13731968Y-12159150D02*
X13731968Y-12292484D01*
X13684348Y-12082960D02*
X13636729Y-12225817D01*
X13636729Y-12225817D02*
X13760539Y-12225817D01*
X13989110Y-12292484D02*
X13989110Y-12092484D01*
X14074825Y-12292484D02*
X14074825Y-12187722D01*
X14074825Y-12187722D02*
X14065301Y-12168674D01*
X14065301Y-12168674D02*
X14046253Y-12159150D01*
X14046253Y-12159150D02*
X14017682Y-12159150D01*
X14017682Y-12159150D02*
X13998634Y-12168674D01*
X13998634Y-12168674D02*
X13989110Y-12178198D01*
X14198634Y-12292484D02*
X14179587Y-12282960D01*
X14179587Y-12282960D02*
X14170063Y-12273436D01*
X14170063Y-12273436D02*
X14160539Y-12254388D01*
X14160539Y-12254388D02*
X14160539Y-12197246D01*
X14160539Y-12197246D02*
X14170063Y-12178198D01*
X14170063Y-12178198D02*
X14179587Y-12168674D01*
X14179587Y-12168674D02*
X14198634Y-12159150D01*
X14198634Y-12159150D02*
X14227206Y-12159150D01*
X14227206Y-12159150D02*
X14246253Y-12168674D01*
X14246253Y-12168674D02*
X14255777Y-12178198D01*
X14255777Y-12178198D02*
X14265301Y-12197246D01*
X14265301Y-12197246D02*
X14265301Y-12254388D01*
X14265301Y-12254388D02*
X14255777Y-12273436D01*
X14255777Y-12273436D02*
X14246253Y-12282960D01*
X14246253Y-12282960D02*
X14227206Y-12292484D01*
X14227206Y-12292484D02*
X14198634Y-12292484D01*
X14379587Y-12292484D02*
X14360539Y-12282960D01*
X14360539Y-12282960D02*
X14351015Y-12263912D01*
X14351015Y-12263912D02*
X14351015Y-12092484D01*
X14531968Y-12282960D02*
X14512920Y-12292484D01*
X14512920Y-12292484D02*
X14474825Y-12292484D01*
X14474825Y-12292484D02*
X14455777Y-12282960D01*
X14455777Y-12282960D02*
X14446253Y-12263912D01*
X14446253Y-12263912D02*
X14446253Y-12187722D01*
X14446253Y-12187722D02*
X14455777Y-12168674D01*
X14455777Y-12168674D02*
X14474825Y-12159150D01*
X14474825Y-12159150D02*
X14512920Y-12159150D01*
X14512920Y-12159150D02*
X14531968Y-12168674D01*
X14531968Y-12168674D02*
X14541491Y-12187722D01*
X14541491Y-12187722D02*
X14541491Y-12206769D01*
X14541491Y-12206769D02*
X14446253Y-12225817D01*
X14617682Y-12282960D02*
X14636730Y-12292484D01*
X14636730Y-12292484D02*
X14674825Y-12292484D01*
X14674825Y-12292484D02*
X14693872Y-12282960D01*
X14693872Y-12282960D02*
X14703396Y-12263912D01*
X14703396Y-12263912D02*
X14703396Y-12254388D01*
X14703396Y-12254388D02*
X14693872Y-12235341D01*
X14693872Y-12235341D02*
X14674825Y-12225817D01*
X14674825Y-12225817D02*
X14646253Y-12225817D01*
X14646253Y-12225817D02*
X14627206Y-12216293D01*
X14627206Y-12216293D02*
X14617682Y-12197246D01*
X14617682Y-12197246D02*
X14617682Y-12187722D01*
X14617682Y-12187722D02*
X14627206Y-12168674D01*
X14627206Y-12168674D02*
X14646253Y-12159150D01*
X14646253Y-12159150D02*
X14674825Y-12159150D01*
X14674825Y-12159150D02*
X14693872Y-12168674D01*
X14770063Y-12368674D02*
X14779587Y-12359150D01*
X14779587Y-12359150D02*
X14798634Y-12330579D01*
X14798634Y-12330579D02*
X14808158Y-12311531D01*
X14808158Y-12311531D02*
X14817682Y-12282960D01*
X14817682Y-12282960D02*
X14827206Y-12235341D01*
X14827206Y-12235341D02*
X14827206Y-12197246D01*
X14827206Y-12197246D02*
X14817682Y-12149627D01*
X14817682Y-12149627D02*
X14808158Y-12121055D01*
X14808158Y-12121055D02*
X14798634Y-12102008D01*
X14798634Y-12102008D02*
X14779587Y-12073436D01*
X14779587Y-12073436D02*
X14770063Y-12063912D01*
D14*
X9875000Y-12405000D02*
X9995000Y-12525000D01*
X9995000Y-12405000D02*
X9875000Y-12525000D01*
X9995000Y-12465000D02*
G75*
G02*
X9875000Y-12465000I-60000J0D01*
G01*
X9875000Y-12465000D02*
G75*
G02*
X9995000Y-12465000I60000J0D01*
G01*
D11*
X10360539Y-12556484D02*
X10246253Y-12556484D01*
X10303396Y-12556484D02*
X10303396Y-12356484D01*
X10303396Y-12356484D02*
X10284348Y-12385055D01*
X10284348Y-12385055D02*
X10265301Y-12404103D01*
X10265301Y-12404103D02*
X10246253Y-12413627D01*
X10446253Y-12537436D02*
X10455777Y-12546960D01*
X10455777Y-12546960D02*
X10446253Y-12556484D01*
X10446253Y-12556484D02*
X10436729Y-12546960D01*
X10436729Y-12546960D02*
X10446253Y-12537436D01*
X10446253Y-12537436D02*
X10446253Y-12556484D01*
X10531967Y-12375531D02*
X10541491Y-12366008D01*
X10541491Y-12366008D02*
X10560539Y-12356484D01*
X10560539Y-12356484D02*
X10608158Y-12356484D01*
X10608158Y-12356484D02*
X10627205Y-12366008D01*
X10627205Y-12366008D02*
X10636729Y-12375531D01*
X10636729Y-12375531D02*
X10646253Y-12394579D01*
X10646253Y-12394579D02*
X10646253Y-12413627D01*
X10646253Y-12413627D02*
X10636729Y-12442198D01*
X10636729Y-12442198D02*
X10522444Y-12556484D01*
X10522444Y-12556484D02*
X10646253Y-12556484D01*
X10770063Y-12356484D02*
X10789110Y-12356484D01*
X10789110Y-12356484D02*
X10808158Y-12366008D01*
X10808158Y-12366008D02*
X10817682Y-12375531D01*
X10817682Y-12375531D02*
X10827205Y-12394579D01*
X10827205Y-12394579D02*
X10836729Y-12432674D01*
X10836729Y-12432674D02*
X10836729Y-12480293D01*
X10836729Y-12480293D02*
X10827205Y-12518388D01*
X10827205Y-12518388D02*
X10817682Y-12537436D01*
X10817682Y-12537436D02*
X10808158Y-12546960D01*
X10808158Y-12546960D02*
X10789110Y-12556484D01*
X10789110Y-12556484D02*
X10770063Y-12556484D01*
X10770063Y-12556484D02*
X10751015Y-12546960D01*
X10751015Y-12546960D02*
X10741491Y-12537436D01*
X10741491Y-12537436D02*
X10731967Y-12518388D01*
X10731967Y-12518388D02*
X10722444Y-12480293D01*
X10722444Y-12480293D02*
X10722444Y-12432674D01*
X10722444Y-12432674D02*
X10731967Y-12394579D01*
X10731967Y-12394579D02*
X10741491Y-12375531D01*
X10741491Y-12375531D02*
X10751015Y-12366008D01*
X10751015Y-12366008D02*
X10770063Y-12356484D01*
X10960539Y-12356484D02*
X10979586Y-12356484D01*
X10979586Y-12356484D02*
X10998634Y-12366008D01*
X10998634Y-12366008D02*
X11008158Y-12375531D01*
X11008158Y-12375531D02*
X11017682Y-12394579D01*
X11017682Y-12394579D02*
X11027205Y-12432674D01*
X11027205Y-12432674D02*
X11027205Y-12480293D01*
X11027205Y-12480293D02*
X11017682Y-12518388D01*
X11017682Y-12518388D02*
X11008158Y-12537436D01*
X11008158Y-12537436D02*
X10998634Y-12546960D01*
X10998634Y-12546960D02*
X10979586Y-12556484D01*
X10979586Y-12556484D02*
X10960539Y-12556484D01*
X10960539Y-12556484D02*
X10941491Y-12546960D01*
X10941491Y-12546960D02*
X10931967Y-12537436D01*
X10931967Y-12537436D02*
X10922444Y-12518388D01*
X10922444Y-12518388D02*
X10912920Y-12480293D01*
X10912920Y-12480293D02*
X10912920Y-12432674D01*
X10912920Y-12432674D02*
X10922444Y-12394579D01*
X10922444Y-12394579D02*
X10931967Y-12375531D01*
X10931967Y-12375531D02*
X10941491Y-12366008D01*
X10941491Y-12366008D02*
X10960539Y-12356484D01*
X11112920Y-12556484D02*
X11112920Y-12423150D01*
X11112920Y-12442198D02*
X11122444Y-12432674D01*
X11122444Y-12432674D02*
X11141491Y-12423150D01*
X11141491Y-12423150D02*
X11170063Y-12423150D01*
X11170063Y-12423150D02*
X11189110Y-12432674D01*
X11189110Y-12432674D02*
X11198634Y-12451722D01*
X11198634Y-12451722D02*
X11198634Y-12556484D01*
X11198634Y-12451722D02*
X11208158Y-12432674D01*
X11208158Y-12432674D02*
X11227205Y-12423150D01*
X11227205Y-12423150D02*
X11255777Y-12423150D01*
X11255777Y-12423150D02*
X11274824Y-12432674D01*
X11274824Y-12432674D02*
X11284348Y-12451722D01*
X11284348Y-12451722D02*
X11284348Y-12556484D01*
X11379586Y-12556484D02*
X11379586Y-12423150D01*
X11379586Y-12442198D02*
X11389110Y-12432674D01*
X11389110Y-12432674D02*
X11408158Y-12423150D01*
X11408158Y-12423150D02*
X11436729Y-12423150D01*
X11436729Y-12423150D02*
X11455777Y-12432674D01*
X11455777Y-12432674D02*
X11465301Y-12451722D01*
X11465301Y-12451722D02*
X11465301Y-12556484D01*
X11465301Y-12451722D02*
X11474824Y-12432674D01*
X11474824Y-12432674D02*
X11493872Y-12423150D01*
X11493872Y-12423150D02*
X11522443Y-12423150D01*
X11522443Y-12423150D02*
X11541491Y-12432674D01*
X11541491Y-12432674D02*
X11551015Y-12451722D01*
X11551015Y-12451722D02*
X11551015Y-12556484D01*
X11941491Y-12346960D02*
X11770063Y-12604103D01*
X12198634Y-12356484D02*
X12217682Y-12356484D01*
X12217682Y-12356484D02*
X12236729Y-12366008D01*
X12236729Y-12366008D02*
X12246253Y-12375531D01*
X12246253Y-12375531D02*
X12255777Y-12394579D01*
X12255777Y-12394579D02*
X12265301Y-12432674D01*
X12265301Y-12432674D02*
X12265301Y-12480293D01*
X12265301Y-12480293D02*
X12255777Y-12518388D01*
X12255777Y-12518388D02*
X12246253Y-12537436D01*
X12246253Y-12537436D02*
X12236729Y-12546960D01*
X12236729Y-12546960D02*
X12217682Y-12556484D01*
X12217682Y-12556484D02*
X12198634Y-12556484D01*
X12198634Y-12556484D02*
X12179586Y-12546960D01*
X12179586Y-12546960D02*
X12170063Y-12537436D01*
X12170063Y-12537436D02*
X12160539Y-12518388D01*
X12160539Y-12518388D02*
X12151015Y-12480293D01*
X12151015Y-12480293D02*
X12151015Y-12432674D01*
X12151015Y-12432674D02*
X12160539Y-12394579D01*
X12160539Y-12394579D02*
X12170063Y-12375531D01*
X12170063Y-12375531D02*
X12179586Y-12366008D01*
X12179586Y-12366008D02*
X12198634Y-12356484D01*
X12351015Y-12537436D02*
X12360539Y-12546960D01*
X12360539Y-12546960D02*
X12351015Y-12556484D01*
X12351015Y-12556484D02*
X12341491Y-12546960D01*
X12341491Y-12546960D02*
X12351015Y-12537436D01*
X12351015Y-12537436D02*
X12351015Y-12556484D01*
X12484348Y-12356484D02*
X12503396Y-12356484D01*
X12503396Y-12356484D02*
X12522444Y-12366008D01*
X12522444Y-12366008D02*
X12531967Y-12375531D01*
X12531967Y-12375531D02*
X12541491Y-12394579D01*
X12541491Y-12394579D02*
X12551015Y-12432674D01*
X12551015Y-12432674D02*
X12551015Y-12480293D01*
X12551015Y-12480293D02*
X12541491Y-12518388D01*
X12541491Y-12518388D02*
X12531967Y-12537436D01*
X12531967Y-12537436D02*
X12522444Y-12546960D01*
X12522444Y-12546960D02*
X12503396Y-12556484D01*
X12503396Y-12556484D02*
X12484348Y-12556484D01*
X12484348Y-12556484D02*
X12465301Y-12546960D01*
X12465301Y-12546960D02*
X12455777Y-12537436D01*
X12455777Y-12537436D02*
X12446253Y-12518388D01*
X12446253Y-12518388D02*
X12436729Y-12480293D01*
X12436729Y-12480293D02*
X12436729Y-12432674D01*
X12436729Y-12432674D02*
X12446253Y-12394579D01*
X12446253Y-12394579D02*
X12455777Y-12375531D01*
X12455777Y-12375531D02*
X12465301Y-12366008D01*
X12465301Y-12366008D02*
X12484348Y-12356484D01*
X12722444Y-12423150D02*
X12722444Y-12556484D01*
X12674825Y-12346960D02*
X12627206Y-12489817D01*
X12627206Y-12489817D02*
X12751015Y-12489817D01*
X12808158Y-12356484D02*
X12941491Y-12356484D01*
X12941491Y-12356484D02*
X12855777Y-12556484D01*
X13008158Y-12375531D02*
X13017682Y-12366008D01*
X13017682Y-12366008D02*
X13036729Y-12356484D01*
X13036729Y-12356484D02*
X13084348Y-12356484D01*
X13084348Y-12356484D02*
X13103396Y-12366008D01*
X13103396Y-12366008D02*
X13112920Y-12375531D01*
X13112920Y-12375531D02*
X13122444Y-12394579D01*
X13122444Y-12394579D02*
X13122444Y-12413627D01*
X13122444Y-12413627D02*
X13112920Y-12442198D01*
X13112920Y-12442198D02*
X12998634Y-12556484D01*
X12998634Y-12556484D02*
X13122444Y-12556484D01*
X13198634Y-12356484D02*
X13198634Y-12394579D01*
X13274825Y-12356484D02*
X13274825Y-12394579D01*
X13570063Y-12632674D02*
X13560539Y-12623150D01*
X13560539Y-12623150D02*
X13541491Y-12594579D01*
X13541491Y-12594579D02*
X13531968Y-12575531D01*
X13531968Y-12575531D02*
X13522444Y-12546960D01*
X13522444Y-12546960D02*
X13512920Y-12499341D01*
X13512920Y-12499341D02*
X13512920Y-12461246D01*
X13512920Y-12461246D02*
X13522444Y-12413627D01*
X13522444Y-12413627D02*
X13531968Y-12385055D01*
X13531968Y-12385055D02*
X13541491Y-12366008D01*
X13541491Y-12366008D02*
X13560539Y-12337436D01*
X13560539Y-12337436D02*
X13570063Y-12327912D01*
X13751015Y-12556484D02*
X13636729Y-12556484D01*
X13693872Y-12556484D02*
X13693872Y-12356484D01*
X13693872Y-12356484D02*
X13674825Y-12385055D01*
X13674825Y-12385055D02*
X13655777Y-12404103D01*
X13655777Y-12404103D02*
X13636729Y-12413627D01*
X13874825Y-12356484D02*
X13893872Y-12356484D01*
X13893872Y-12356484D02*
X13912920Y-12366008D01*
X13912920Y-12366008D02*
X13922444Y-12375531D01*
X13922444Y-12375531D02*
X13931968Y-12394579D01*
X13931968Y-12394579D02*
X13941491Y-12432674D01*
X13941491Y-12432674D02*
X13941491Y-12480293D01*
X13941491Y-12480293D02*
X13931968Y-12518388D01*
X13931968Y-12518388D02*
X13922444Y-12537436D01*
X13922444Y-12537436D02*
X13912920Y-12546960D01*
X13912920Y-12546960D02*
X13893872Y-12556484D01*
X13893872Y-12556484D02*
X13874825Y-12556484D01*
X13874825Y-12556484D02*
X13855777Y-12546960D01*
X13855777Y-12546960D02*
X13846253Y-12537436D01*
X13846253Y-12537436D02*
X13836729Y-12518388D01*
X13836729Y-12518388D02*
X13827206Y-12480293D01*
X13827206Y-12480293D02*
X13827206Y-12432674D01*
X13827206Y-12432674D02*
X13836729Y-12394579D01*
X13836729Y-12394579D02*
X13846253Y-12375531D01*
X13846253Y-12375531D02*
X13855777Y-12366008D01*
X13855777Y-12366008D02*
X13874825Y-12356484D01*
X14179587Y-12556484D02*
X14179587Y-12356484D01*
X14265301Y-12556484D02*
X14265301Y-12451722D01*
X14265301Y-12451722D02*
X14255777Y-12432674D01*
X14255777Y-12432674D02*
X14236730Y-12423150D01*
X14236730Y-12423150D02*
X14208158Y-12423150D01*
X14208158Y-12423150D02*
X14189110Y-12432674D01*
X14189110Y-12432674D02*
X14179587Y-12442198D01*
X14389110Y-12556484D02*
X14370063Y-12546960D01*
X14370063Y-12546960D02*
X14360539Y-12537436D01*
X14360539Y-12537436D02*
X14351015Y-12518388D01*
X14351015Y-12518388D02*
X14351015Y-12461246D01*
X14351015Y-12461246D02*
X14360539Y-12442198D01*
X14360539Y-12442198D02*
X14370063Y-12432674D01*
X14370063Y-12432674D02*
X14389110Y-12423150D01*
X14389110Y-12423150D02*
X14417682Y-12423150D01*
X14417682Y-12423150D02*
X14436730Y-12432674D01*
X14436730Y-12432674D02*
X14446253Y-12442198D01*
X14446253Y-12442198D02*
X14455777Y-12461246D01*
X14455777Y-12461246D02*
X14455777Y-12518388D01*
X14455777Y-12518388D02*
X14446253Y-12537436D01*
X14446253Y-12537436D02*
X14436730Y-12546960D01*
X14436730Y-12546960D02*
X14417682Y-12556484D01*
X14417682Y-12556484D02*
X14389110Y-12556484D01*
X14570063Y-12556484D02*
X14551015Y-12546960D01*
X14551015Y-12546960D02*
X14541491Y-12527912D01*
X14541491Y-12527912D02*
X14541491Y-12356484D01*
X14722444Y-12546960D02*
X14703396Y-12556484D01*
X14703396Y-12556484D02*
X14665301Y-12556484D01*
X14665301Y-12556484D02*
X14646253Y-12546960D01*
X14646253Y-12546960D02*
X14636730Y-12527912D01*
X14636730Y-12527912D02*
X14636730Y-12451722D01*
X14636730Y-12451722D02*
X14646253Y-12432674D01*
X14646253Y-12432674D02*
X14665301Y-12423150D01*
X14665301Y-12423150D02*
X14703396Y-12423150D01*
X14703396Y-12423150D02*
X14722444Y-12432674D01*
X14722444Y-12432674D02*
X14731968Y-12451722D01*
X14731968Y-12451722D02*
X14731968Y-12470769D01*
X14731968Y-12470769D02*
X14636730Y-12489817D01*
X14808158Y-12546960D02*
X14827206Y-12556484D01*
X14827206Y-12556484D02*
X14865301Y-12556484D01*
X14865301Y-12556484D02*
X14884349Y-12546960D01*
X14884349Y-12546960D02*
X14893872Y-12527912D01*
X14893872Y-12527912D02*
X14893872Y-12518388D01*
X14893872Y-12518388D02*
X14884349Y-12499341D01*
X14884349Y-12499341D02*
X14865301Y-12489817D01*
X14865301Y-12489817D02*
X14836730Y-12489817D01*
X14836730Y-12489817D02*
X14817682Y-12480293D01*
X14817682Y-12480293D02*
X14808158Y-12461246D01*
X14808158Y-12461246D02*
X14808158Y-12451722D01*
X14808158Y-12451722D02*
X14817682Y-12432674D01*
X14817682Y-12432674D02*
X14836730Y-12423150D01*
X14836730Y-12423150D02*
X14865301Y-12423150D01*
X14865301Y-12423150D02*
X14884349Y-12432674D01*
X14960539Y-12632674D02*
X14970063Y-12623150D01*
X14970063Y-12623150D02*
X14989111Y-12594579D01*
X14989111Y-12594579D02*
X14998634Y-12575531D01*
X14998634Y-12575531D02*
X15008158Y-12546960D01*
X15008158Y-12546960D02*
X15017682Y-12499341D01*
X15017682Y-12499341D02*
X15017682Y-12461246D01*
X15017682Y-12461246D02*
X15008158Y-12413627D01*
X15008158Y-12413627D02*
X14998634Y-12385055D01*
X14998634Y-12385055D02*
X14989111Y-12366008D01*
X14989111Y-12366008D02*
X14970063Y-12337436D01*
X14970063Y-12337436D02*
X14960539Y-12327912D01*
M02*
