G04 #@! TF.GenerationSoftware,KiCad,Pcbnew,8.0.2*
G04 #@! TF.CreationDate,2024-06-17T10:47:37+02:00*
G04 #@! TF.ProjectId,AMS Dongle,414d5320-446f-46e6-976c-652e6b696361,rev?*
G04 #@! TF.SameCoordinates,Original*
G04 #@! TF.FileFunction,Profile,NP*
%FSLAX46Y46*%
G04 Gerber Fmt 4.6, Leading zero omitted, Abs format (unit mm)*
G04 Created by KiCad (PCBNEW 8.0.2) date 2024-06-17 10:47:37*
%MOMM*%
%LPD*%
G01*
G04 APERTURE LIST*
G04 #@! TA.AperFunction,Profile*
%ADD10C,0.100000*%
G04 #@! TD*
G04 APERTURE END LIST*
D10*
X158000000Y-102500000D02*
G75*
G02*
X155500000Y-105000000I-2500000J0D01*
G01*
X118000000Y-102500000D02*
G75*
G02*
X115500000Y-105000000I-2500000J0D01*
G01*
X105500000Y-100000000D02*
G75*
G02*
X108000000Y-102500000I0J-2500000D01*
G01*
X118000000Y-102500000D02*
G75*
G02*
X120500000Y-100000000I2500000J0D01*
G01*
X162000000Y-44000000D02*
G75*
G02*
X165000000Y-47000000I0J-3000000D01*
G01*
X158000000Y-102500000D02*
G75*
G02*
X160500000Y-100000000I2500000J0D01*
G01*
X165000000Y-97000000D02*
X165000000Y-47000000D01*
X136500000Y-100000000D02*
G75*
G02*
X139000000Y-102500000I0J-2500000D01*
G01*
X100000000Y-47000000D02*
X100000000Y-63000000D01*
X141500000Y-105000000D02*
G75*
G02*
X139000000Y-102500000I0J2500000D01*
G01*
X134000000Y-102500000D02*
G75*
G02*
X131500000Y-105000000I-2500000J0D01*
G01*
X125500000Y-105000000D02*
X131500000Y-105000000D01*
X141500000Y-105000000D02*
X155500000Y-105000000D01*
X100000000Y-63000000D02*
X100000000Y-81000000D01*
X103000000Y-100000000D02*
G75*
G02*
X100000000Y-97000000I0J3000000D01*
G01*
X125500000Y-105000000D02*
G75*
G02*
X123000000Y-102500000I0J2500000D01*
G01*
X110500000Y-105000000D02*
X115500000Y-105000000D01*
X103000000Y-100000000D02*
X105500000Y-100000000D01*
X134000000Y-102500000D02*
G75*
G02*
X136500000Y-100000000I2500000J0D01*
G01*
X120500000Y-100000000D02*
G75*
G02*
X123000000Y-102500000I0J-2500000D01*
G01*
X110500000Y-105000000D02*
G75*
G02*
X108000000Y-102500000I0J2500000D01*
G01*
X160500000Y-100000000D02*
X162000000Y-100000000D01*
X165000000Y-97000000D02*
G75*
G02*
X162000000Y-100000000I-3000000J0D01*
G01*
X100000000Y-47000000D02*
G75*
G02*
X103000000Y-44000000I3000000J0D01*
G01*
X100000000Y-81000000D02*
X100000000Y-97000000D01*
X162000000Y-44000000D02*
X103000000Y-44000000D01*
M02*
