G04 #@! TF.GenerationSoftware,KiCad,Pcbnew,8.0.2*
G04 #@! TF.CreationDate,2024-06-27T15:57:24+02:00*
G04 #@! TF.ProjectId,AMS Dongle,414d5320-446f-46e6-976c-652e6b696361,rev?*
G04 #@! TF.SameCoordinates,Original*
G04 #@! TF.FileFunction,Legend,Top*
G04 #@! TF.FilePolarity,Positive*
%FSLAX46Y46*%
G04 Gerber Fmt 4.6, Leading zero omitted, Abs format (unit mm)*
G04 Created by KiCad (PCBNEW 8.0.2) date 2024-06-27 15:57:24*
%MOMM*%
%LPD*%
G01*
G04 APERTURE LIST*
%ADD10C,0.150000*%
%ADD11C,0.254000*%
%ADD12C,0.200000*%
%ADD13C,0.100000*%
G04 APERTURE END LIST*
D10*
X100789160Y-65584104D02*
X101265350Y-65584104D01*
X100693922Y-65869819D02*
X101027255Y-64869819D01*
X101027255Y-64869819D02*
X101360588Y-65869819D01*
X101693922Y-65869819D02*
X101693922Y-64869819D01*
X101693922Y-64869819D02*
X102265350Y-65869819D01*
X102265350Y-65869819D02*
X102265350Y-64869819D01*
X103265350Y-65869819D02*
X102693922Y-65869819D01*
X102979636Y-65869819D02*
X102979636Y-64869819D01*
X102979636Y-64869819D02*
X102884398Y-65012676D01*
X102884398Y-65012676D02*
X102789160Y-65107914D01*
X102789160Y-65107914D02*
X102693922Y-65155533D01*
X117774580Y-97591792D02*
X117822200Y-97639411D01*
X117822200Y-97639411D02*
X117869819Y-97782268D01*
X117869819Y-97782268D02*
X117869819Y-97877506D01*
X117869819Y-97877506D02*
X117822200Y-98020363D01*
X117822200Y-98020363D02*
X117726961Y-98115601D01*
X117726961Y-98115601D02*
X117631723Y-98163220D01*
X117631723Y-98163220D02*
X117441247Y-98210839D01*
X117441247Y-98210839D02*
X117298390Y-98210839D01*
X117298390Y-98210839D02*
X117107914Y-98163220D01*
X117107914Y-98163220D02*
X117012676Y-98115601D01*
X117012676Y-98115601D02*
X116917438Y-98020363D01*
X116917438Y-98020363D02*
X116869819Y-97877506D01*
X116869819Y-97877506D02*
X116869819Y-97782268D01*
X116869819Y-97782268D02*
X116917438Y-97639411D01*
X116917438Y-97639411D02*
X116965057Y-97591792D01*
X117584104Y-97210839D02*
X117584104Y-96734649D01*
X117869819Y-97306077D02*
X116869819Y-96972744D01*
X116869819Y-96972744D02*
X117869819Y-96639411D01*
X117869819Y-96306077D02*
X116869819Y-96306077D01*
X116869819Y-96306077D02*
X117869819Y-95734649D01*
X117869819Y-95734649D02*
X116869819Y-95734649D01*
X117869819Y-95258458D02*
X116869819Y-95258458D01*
X117346009Y-95258458D02*
X117346009Y-94687030D01*
X117869819Y-94687030D02*
X116869819Y-94687030D01*
X163584104Y-62510839D02*
X163584104Y-62034649D01*
X163869819Y-62606077D02*
X162869819Y-62272744D01*
X162869819Y-62272744D02*
X163869819Y-61939411D01*
X163869819Y-61606077D02*
X162869819Y-61606077D01*
X162869819Y-61606077D02*
X163584104Y-61272744D01*
X163584104Y-61272744D02*
X162869819Y-60939411D01*
X162869819Y-60939411D02*
X163869819Y-60939411D01*
X163822200Y-60510839D02*
X163869819Y-60367982D01*
X163869819Y-60367982D02*
X163869819Y-60129887D01*
X163869819Y-60129887D02*
X163822200Y-60034649D01*
X163822200Y-60034649D02*
X163774580Y-59987030D01*
X163774580Y-59987030D02*
X163679342Y-59939411D01*
X163679342Y-59939411D02*
X163584104Y-59939411D01*
X163584104Y-59939411D02*
X163488866Y-59987030D01*
X163488866Y-59987030D02*
X163441247Y-60034649D01*
X163441247Y-60034649D02*
X163393628Y-60129887D01*
X163393628Y-60129887D02*
X163346009Y-60320363D01*
X163346009Y-60320363D02*
X163298390Y-60415601D01*
X163298390Y-60415601D02*
X163250771Y-60463220D01*
X163250771Y-60463220D02*
X163155533Y-60510839D01*
X163155533Y-60510839D02*
X163060295Y-60510839D01*
X163060295Y-60510839D02*
X162965057Y-60463220D01*
X162965057Y-60463220D02*
X162917438Y-60415601D01*
X162917438Y-60415601D02*
X162869819Y-60320363D01*
X162869819Y-60320363D02*
X162869819Y-60082268D01*
X162869819Y-60082268D02*
X162917438Y-59939411D01*
X163869819Y-58748934D02*
X162869819Y-58748934D01*
X163346009Y-58748934D02*
X163346009Y-58177506D01*
X163869819Y-58177506D02*
X162869819Y-58177506D01*
X163584104Y-57748934D02*
X163584104Y-57272744D01*
X163869819Y-57844172D02*
X162869819Y-57510839D01*
X162869819Y-57510839D02*
X163869819Y-57177506D01*
X162869819Y-56987029D02*
X162869819Y-56415601D01*
X163869819Y-56701315D02*
X162869819Y-56701315D01*
X163203152Y-55415600D02*
X163869819Y-55177505D01*
X163869819Y-55177505D02*
X163203152Y-54939410D01*
X163869819Y-54034648D02*
X163869819Y-54606076D01*
X163869819Y-54320362D02*
X162869819Y-54320362D01*
X162869819Y-54320362D02*
X163012676Y-54415600D01*
X163012676Y-54415600D02*
X163107914Y-54510838D01*
X163107914Y-54510838D02*
X163155533Y-54606076D01*
X163774580Y-53606076D02*
X163822200Y-53558457D01*
X163822200Y-53558457D02*
X163869819Y-53606076D01*
X163869819Y-53606076D02*
X163822200Y-53653695D01*
X163822200Y-53653695D02*
X163774580Y-53606076D01*
X163774580Y-53606076D02*
X163869819Y-53606076D01*
X163869819Y-52606077D02*
X163869819Y-53177505D01*
X163869819Y-52891791D02*
X162869819Y-52891791D01*
X162869819Y-52891791D02*
X163012676Y-52987029D01*
X163012676Y-52987029D02*
X163107914Y-53082267D01*
X163107914Y-53082267D02*
X163155533Y-53177505D01*
X161346009Y-62463220D02*
X161346009Y-62129887D01*
X161869819Y-61987030D02*
X161869819Y-62463220D01*
X161869819Y-62463220D02*
X160869819Y-62463220D01*
X160869819Y-62463220D02*
X160869819Y-61987030D01*
X161869819Y-61558458D02*
X160869819Y-61558458D01*
X160869819Y-61558458D02*
X160869819Y-61177506D01*
X160869819Y-61177506D02*
X160917438Y-61082268D01*
X160917438Y-61082268D02*
X160965057Y-61034649D01*
X160965057Y-61034649D02*
X161060295Y-60987030D01*
X161060295Y-60987030D02*
X161203152Y-60987030D01*
X161203152Y-60987030D02*
X161298390Y-61034649D01*
X161298390Y-61034649D02*
X161346009Y-61082268D01*
X161346009Y-61082268D02*
X161393628Y-61177506D01*
X161393628Y-61177506D02*
X161393628Y-61558458D01*
X161822200Y-60606077D02*
X161869819Y-60463220D01*
X161869819Y-60463220D02*
X161869819Y-60225125D01*
X161869819Y-60225125D02*
X161822200Y-60129887D01*
X161822200Y-60129887D02*
X161774580Y-60082268D01*
X161774580Y-60082268D02*
X161679342Y-60034649D01*
X161679342Y-60034649D02*
X161584104Y-60034649D01*
X161584104Y-60034649D02*
X161488866Y-60082268D01*
X161488866Y-60082268D02*
X161441247Y-60129887D01*
X161441247Y-60129887D02*
X161393628Y-60225125D01*
X161393628Y-60225125D02*
X161346009Y-60415601D01*
X161346009Y-60415601D02*
X161298390Y-60510839D01*
X161298390Y-60510839D02*
X161250771Y-60558458D01*
X161250771Y-60558458D02*
X161155533Y-60606077D01*
X161155533Y-60606077D02*
X161060295Y-60606077D01*
X161060295Y-60606077D02*
X160965057Y-60558458D01*
X160965057Y-60558458D02*
X160917438Y-60510839D01*
X160917438Y-60510839D02*
X160869819Y-60415601D01*
X160869819Y-60415601D02*
X160869819Y-60177506D01*
X160869819Y-60177506D02*
X160917438Y-60034649D01*
X161584104Y-59653696D02*
X161584104Y-59177506D01*
X161869819Y-59748934D02*
X160869819Y-59415601D01*
X160869819Y-59415601D02*
X161869819Y-59082268D01*
X108774580Y-97591792D02*
X108822200Y-97639411D01*
X108822200Y-97639411D02*
X108869819Y-97782268D01*
X108869819Y-97782268D02*
X108869819Y-97877506D01*
X108869819Y-97877506D02*
X108822200Y-98020363D01*
X108822200Y-98020363D02*
X108726961Y-98115601D01*
X108726961Y-98115601D02*
X108631723Y-98163220D01*
X108631723Y-98163220D02*
X108441247Y-98210839D01*
X108441247Y-98210839D02*
X108298390Y-98210839D01*
X108298390Y-98210839D02*
X108107914Y-98163220D01*
X108107914Y-98163220D02*
X108012676Y-98115601D01*
X108012676Y-98115601D02*
X107917438Y-98020363D01*
X107917438Y-98020363D02*
X107869819Y-97877506D01*
X107869819Y-97877506D02*
X107869819Y-97782268D01*
X107869819Y-97782268D02*
X107917438Y-97639411D01*
X107917438Y-97639411D02*
X107965057Y-97591792D01*
X108584104Y-97210839D02*
X108584104Y-96734649D01*
X108869819Y-97306077D02*
X107869819Y-96972744D01*
X107869819Y-96972744D02*
X108869819Y-96639411D01*
X108869819Y-96306077D02*
X107869819Y-96306077D01*
X107869819Y-96306077D02*
X108869819Y-95734649D01*
X108869819Y-95734649D02*
X107869819Y-95734649D01*
X108869819Y-94782268D02*
X108869819Y-95258458D01*
X108869819Y-95258458D02*
X107869819Y-95258458D01*
X126869819Y-103663220D02*
X125869819Y-103663220D01*
X125869819Y-103663220D02*
X125869819Y-103282268D01*
X125869819Y-103282268D02*
X125917438Y-103187030D01*
X125917438Y-103187030D02*
X125965057Y-103139411D01*
X125965057Y-103139411D02*
X126060295Y-103091792D01*
X126060295Y-103091792D02*
X126203152Y-103091792D01*
X126203152Y-103091792D02*
X126298390Y-103139411D01*
X126298390Y-103139411D02*
X126346009Y-103187030D01*
X126346009Y-103187030D02*
X126393628Y-103282268D01*
X126393628Y-103282268D02*
X126393628Y-103663220D01*
X126869819Y-102663220D02*
X125869819Y-102663220D01*
X125869819Y-102663220D02*
X125869819Y-102425125D01*
X125869819Y-102425125D02*
X125917438Y-102282268D01*
X125917438Y-102282268D02*
X126012676Y-102187030D01*
X126012676Y-102187030D02*
X126107914Y-102139411D01*
X126107914Y-102139411D02*
X126298390Y-102091792D01*
X126298390Y-102091792D02*
X126441247Y-102091792D01*
X126441247Y-102091792D02*
X126631723Y-102139411D01*
X126631723Y-102139411D02*
X126726961Y-102187030D01*
X126726961Y-102187030D02*
X126822200Y-102282268D01*
X126822200Y-102282268D02*
X126869819Y-102425125D01*
X126869819Y-102425125D02*
X126869819Y-102663220D01*
X125869819Y-101663220D02*
X126679342Y-101663220D01*
X126679342Y-101663220D02*
X126774580Y-101615601D01*
X126774580Y-101615601D02*
X126822200Y-101567982D01*
X126822200Y-101567982D02*
X126869819Y-101472744D01*
X126869819Y-101472744D02*
X126869819Y-101282268D01*
X126869819Y-101282268D02*
X126822200Y-101187030D01*
X126822200Y-101187030D02*
X126774580Y-101139411D01*
X126774580Y-101139411D02*
X126679342Y-101091792D01*
X126679342Y-101091792D02*
X125869819Y-101091792D01*
X101836779Y-51869819D02*
X101836779Y-50869819D01*
X102312969Y-51869819D02*
X102312969Y-50869819D01*
X102312969Y-50869819D02*
X102646302Y-51584104D01*
X102646302Y-51584104D02*
X102979635Y-50869819D01*
X102979635Y-50869819D02*
X102979635Y-51869819D01*
X129322200Y-103710839D02*
X129369819Y-103567982D01*
X129369819Y-103567982D02*
X129369819Y-103329887D01*
X129369819Y-103329887D02*
X129322200Y-103234649D01*
X129322200Y-103234649D02*
X129274580Y-103187030D01*
X129274580Y-103187030D02*
X129179342Y-103139411D01*
X129179342Y-103139411D02*
X129084104Y-103139411D01*
X129084104Y-103139411D02*
X128988866Y-103187030D01*
X128988866Y-103187030D02*
X128941247Y-103234649D01*
X128941247Y-103234649D02*
X128893628Y-103329887D01*
X128893628Y-103329887D02*
X128846009Y-103520363D01*
X128846009Y-103520363D02*
X128798390Y-103615601D01*
X128798390Y-103615601D02*
X128750771Y-103663220D01*
X128750771Y-103663220D02*
X128655533Y-103710839D01*
X128655533Y-103710839D02*
X128560295Y-103710839D01*
X128560295Y-103710839D02*
X128465057Y-103663220D01*
X128465057Y-103663220D02*
X128417438Y-103615601D01*
X128417438Y-103615601D02*
X128369819Y-103520363D01*
X128369819Y-103520363D02*
X128369819Y-103282268D01*
X128369819Y-103282268D02*
X128417438Y-103139411D01*
X129274580Y-102139411D02*
X129322200Y-102187030D01*
X129322200Y-102187030D02*
X129369819Y-102329887D01*
X129369819Y-102329887D02*
X129369819Y-102425125D01*
X129369819Y-102425125D02*
X129322200Y-102567982D01*
X129322200Y-102567982D02*
X129226961Y-102663220D01*
X129226961Y-102663220D02*
X129131723Y-102710839D01*
X129131723Y-102710839D02*
X128941247Y-102758458D01*
X128941247Y-102758458D02*
X128798390Y-102758458D01*
X128798390Y-102758458D02*
X128607914Y-102710839D01*
X128607914Y-102710839D02*
X128512676Y-102663220D01*
X128512676Y-102663220D02*
X128417438Y-102567982D01*
X128417438Y-102567982D02*
X128369819Y-102425125D01*
X128369819Y-102425125D02*
X128369819Y-102329887D01*
X128369819Y-102329887D02*
X128417438Y-102187030D01*
X128417438Y-102187030D02*
X128465057Y-102139411D01*
X129322200Y-101758458D02*
X129369819Y-101615601D01*
X129369819Y-101615601D02*
X129369819Y-101377506D01*
X129369819Y-101377506D02*
X129322200Y-101282268D01*
X129322200Y-101282268D02*
X129274580Y-101234649D01*
X129274580Y-101234649D02*
X129179342Y-101187030D01*
X129179342Y-101187030D02*
X129084104Y-101187030D01*
X129084104Y-101187030D02*
X128988866Y-101234649D01*
X128988866Y-101234649D02*
X128941247Y-101282268D01*
X128941247Y-101282268D02*
X128893628Y-101377506D01*
X128893628Y-101377506D02*
X128846009Y-101567982D01*
X128846009Y-101567982D02*
X128798390Y-101663220D01*
X128798390Y-101663220D02*
X128750771Y-101710839D01*
X128750771Y-101710839D02*
X128655533Y-101758458D01*
X128655533Y-101758458D02*
X128560295Y-101758458D01*
X128560295Y-101758458D02*
X128465057Y-101710839D01*
X128465057Y-101710839D02*
X128417438Y-101663220D01*
X128417438Y-101663220D02*
X128369819Y-101567982D01*
X128369819Y-101567982D02*
X128369819Y-101329887D01*
X128369819Y-101329887D02*
X128417438Y-101187030D01*
X100789160Y-62984104D02*
X101265350Y-62984104D01*
X100693922Y-63269819D02*
X101027255Y-62269819D01*
X101027255Y-62269819D02*
X101360588Y-63269819D01*
X101693922Y-63269819D02*
X101693922Y-62269819D01*
X101693922Y-62269819D02*
X102265350Y-63269819D01*
X102265350Y-63269819D02*
X102265350Y-62269819D01*
X102932017Y-62269819D02*
X103027255Y-62269819D01*
X103027255Y-62269819D02*
X103122493Y-62317438D01*
X103122493Y-62317438D02*
X103170112Y-62365057D01*
X103170112Y-62365057D02*
X103217731Y-62460295D01*
X103217731Y-62460295D02*
X103265350Y-62650771D01*
X103265350Y-62650771D02*
X103265350Y-62888866D01*
X103265350Y-62888866D02*
X103217731Y-63079342D01*
X103217731Y-63079342D02*
X103170112Y-63174580D01*
X103170112Y-63174580D02*
X103122493Y-63222200D01*
X103122493Y-63222200D02*
X103027255Y-63269819D01*
X103027255Y-63269819D02*
X102932017Y-63269819D01*
X102932017Y-63269819D02*
X102836779Y-63222200D01*
X102836779Y-63222200D02*
X102789160Y-63174580D01*
X102789160Y-63174580D02*
X102741541Y-63079342D01*
X102741541Y-63079342D02*
X102693922Y-62888866D01*
X102693922Y-62888866D02*
X102693922Y-62650771D01*
X102693922Y-62650771D02*
X102741541Y-62460295D01*
X102741541Y-62460295D02*
X102789160Y-62365057D01*
X102789160Y-62365057D02*
X102836779Y-62317438D01*
X102836779Y-62317438D02*
X102932017Y-62269819D01*
X101836779Y-60869819D02*
X101836779Y-59869819D01*
X102312969Y-60869819D02*
X102312969Y-59869819D01*
X102312969Y-59869819D02*
X102693921Y-59869819D01*
X102693921Y-59869819D02*
X102789159Y-59917438D01*
X102789159Y-59917438D02*
X102836778Y-59965057D01*
X102836778Y-59965057D02*
X102884397Y-60060295D01*
X102884397Y-60060295D02*
X102884397Y-60203152D01*
X102884397Y-60203152D02*
X102836778Y-60298390D01*
X102836778Y-60298390D02*
X102789159Y-60346009D01*
X102789159Y-60346009D02*
X102693921Y-60393628D01*
X102693921Y-60393628D02*
X102312969Y-60393628D01*
X100789160Y-70584104D02*
X101265350Y-70584104D01*
X100693922Y-70869819D02*
X101027255Y-69869819D01*
X101027255Y-69869819D02*
X101360588Y-70869819D01*
X101693922Y-70869819D02*
X101693922Y-69869819D01*
X101693922Y-69869819D02*
X102265350Y-70869819D01*
X102265350Y-70869819D02*
X102265350Y-69869819D01*
X102646303Y-69869819D02*
X103265350Y-69869819D01*
X103265350Y-69869819D02*
X102932017Y-70250771D01*
X102932017Y-70250771D02*
X103074874Y-70250771D01*
X103074874Y-70250771D02*
X103170112Y-70298390D01*
X103170112Y-70298390D02*
X103217731Y-70346009D01*
X103217731Y-70346009D02*
X103265350Y-70441247D01*
X103265350Y-70441247D02*
X103265350Y-70679342D01*
X103265350Y-70679342D02*
X103217731Y-70774580D01*
X103217731Y-70774580D02*
X103170112Y-70822200D01*
X103170112Y-70822200D02*
X103074874Y-70869819D01*
X103074874Y-70869819D02*
X102789160Y-70869819D01*
X102789160Y-70869819D02*
X102693922Y-70822200D01*
X102693922Y-70822200D02*
X102646303Y-70774580D01*
X130917438Y-103139411D02*
X130869819Y-103234649D01*
X130869819Y-103234649D02*
X130869819Y-103377506D01*
X130869819Y-103377506D02*
X130917438Y-103520363D01*
X130917438Y-103520363D02*
X131012676Y-103615601D01*
X131012676Y-103615601D02*
X131107914Y-103663220D01*
X131107914Y-103663220D02*
X131298390Y-103710839D01*
X131298390Y-103710839D02*
X131441247Y-103710839D01*
X131441247Y-103710839D02*
X131631723Y-103663220D01*
X131631723Y-103663220D02*
X131726961Y-103615601D01*
X131726961Y-103615601D02*
X131822200Y-103520363D01*
X131822200Y-103520363D02*
X131869819Y-103377506D01*
X131869819Y-103377506D02*
X131869819Y-103282268D01*
X131869819Y-103282268D02*
X131822200Y-103139411D01*
X131822200Y-103139411D02*
X131774580Y-103091792D01*
X131774580Y-103091792D02*
X131441247Y-103091792D01*
X131441247Y-103091792D02*
X131441247Y-103282268D01*
X131869819Y-102663220D02*
X130869819Y-102663220D01*
X130869819Y-102663220D02*
X131869819Y-102091792D01*
X131869819Y-102091792D02*
X130869819Y-102091792D01*
X131869819Y-101615601D02*
X130869819Y-101615601D01*
X130869819Y-101615601D02*
X130869819Y-101377506D01*
X130869819Y-101377506D02*
X130917438Y-101234649D01*
X130917438Y-101234649D02*
X131012676Y-101139411D01*
X131012676Y-101139411D02*
X131107914Y-101091792D01*
X131107914Y-101091792D02*
X131298390Y-101044173D01*
X131298390Y-101044173D02*
X131441247Y-101044173D01*
X131441247Y-101044173D02*
X131631723Y-101091792D01*
X131631723Y-101091792D02*
X131726961Y-101139411D01*
X131726961Y-101139411D02*
X131822200Y-101234649D01*
X131822200Y-101234649D02*
X131869819Y-101377506D01*
X131869819Y-101377506D02*
X131869819Y-101615601D01*
X100789160Y-68084104D02*
X101265350Y-68084104D01*
X100693922Y-68369819D02*
X101027255Y-67369819D01*
X101027255Y-67369819D02*
X101360588Y-68369819D01*
X101693922Y-68369819D02*
X101693922Y-67369819D01*
X101693922Y-67369819D02*
X102265350Y-68369819D01*
X102265350Y-68369819D02*
X102265350Y-67369819D01*
X102693922Y-67465057D02*
X102741541Y-67417438D01*
X102741541Y-67417438D02*
X102836779Y-67369819D01*
X102836779Y-67369819D02*
X103074874Y-67369819D01*
X103074874Y-67369819D02*
X103170112Y-67417438D01*
X103170112Y-67417438D02*
X103217731Y-67465057D01*
X103217731Y-67465057D02*
X103265350Y-67560295D01*
X103265350Y-67560295D02*
X103265350Y-67655533D01*
X103265350Y-67655533D02*
X103217731Y-67798390D01*
X103217731Y-67798390D02*
X102646303Y-68369819D01*
X102646303Y-68369819D02*
X103265350Y-68369819D01*
X124369819Y-103139411D02*
X124369819Y-103710839D01*
X124369819Y-103425125D02*
X123369819Y-103425125D01*
X123369819Y-103425125D02*
X123512676Y-103520363D01*
X123512676Y-103520363D02*
X123607914Y-103615601D01*
X123607914Y-103615601D02*
X123655533Y-103710839D01*
X123465057Y-102758458D02*
X123417438Y-102710839D01*
X123417438Y-102710839D02*
X123369819Y-102615601D01*
X123369819Y-102615601D02*
X123369819Y-102377506D01*
X123369819Y-102377506D02*
X123417438Y-102282268D01*
X123417438Y-102282268D02*
X123465057Y-102234649D01*
X123465057Y-102234649D02*
X123560295Y-102187030D01*
X123560295Y-102187030D02*
X123655533Y-102187030D01*
X123655533Y-102187030D02*
X123798390Y-102234649D01*
X123798390Y-102234649D02*
X124369819Y-102806077D01*
X124369819Y-102806077D02*
X124369819Y-102187030D01*
X123369819Y-101901315D02*
X124369819Y-101567982D01*
X124369819Y-101567982D02*
X123369819Y-101234649D01*
D11*
X138726667Y-98154318D02*
X138726667Y-99061461D01*
X138726667Y-99061461D02*
X138666190Y-99242889D01*
X138666190Y-99242889D02*
X138545238Y-99363842D01*
X138545238Y-99363842D02*
X138363809Y-99424318D01*
X138363809Y-99424318D02*
X138242857Y-99424318D01*
X139875714Y-98154318D02*
X139633809Y-98154318D01*
X139633809Y-98154318D02*
X139512857Y-98214794D01*
X139512857Y-98214794D02*
X139452381Y-98275270D01*
X139452381Y-98275270D02*
X139331428Y-98456699D01*
X139331428Y-98456699D02*
X139270952Y-98698603D01*
X139270952Y-98698603D02*
X139270952Y-99182413D01*
X139270952Y-99182413D02*
X139331428Y-99303365D01*
X139331428Y-99303365D02*
X139391905Y-99363842D01*
X139391905Y-99363842D02*
X139512857Y-99424318D01*
X139512857Y-99424318D02*
X139754762Y-99424318D01*
X139754762Y-99424318D02*
X139875714Y-99363842D01*
X139875714Y-99363842D02*
X139936190Y-99303365D01*
X139936190Y-99303365D02*
X139996667Y-99182413D01*
X139996667Y-99182413D02*
X139996667Y-98880032D01*
X139996667Y-98880032D02*
X139936190Y-98759080D01*
X139936190Y-98759080D02*
X139875714Y-98698603D01*
X139875714Y-98698603D02*
X139754762Y-98638127D01*
X139754762Y-98638127D02*
X139512857Y-98638127D01*
X139512857Y-98638127D02*
X139391905Y-98698603D01*
X139391905Y-98698603D02*
X139331428Y-98759080D01*
X139331428Y-98759080D02*
X139270952Y-98880032D01*
X125183571Y-73574318D02*
X124760237Y-72969556D01*
X124457856Y-73574318D02*
X124457856Y-72304318D01*
X124457856Y-72304318D02*
X124941666Y-72304318D01*
X124941666Y-72304318D02*
X125062618Y-72364794D01*
X125062618Y-72364794D02*
X125123095Y-72425270D01*
X125123095Y-72425270D02*
X125183571Y-72546222D01*
X125183571Y-72546222D02*
X125183571Y-72727651D01*
X125183571Y-72727651D02*
X125123095Y-72848603D01*
X125123095Y-72848603D02*
X125062618Y-72909080D01*
X125062618Y-72909080D02*
X124941666Y-72969556D01*
X124941666Y-72969556D02*
X124457856Y-72969556D01*
X126393095Y-73574318D02*
X125667380Y-73574318D01*
X126030237Y-73574318D02*
X126030237Y-72304318D01*
X126030237Y-72304318D02*
X125909285Y-72485746D01*
X125909285Y-72485746D02*
X125788333Y-72606699D01*
X125788333Y-72606699D02*
X125667380Y-72667175D01*
X126816428Y-72304318D02*
X127663095Y-72304318D01*
X127663095Y-72304318D02*
X127118809Y-73574318D01*
X122183571Y-65074318D02*
X121760237Y-64469556D01*
X121457856Y-65074318D02*
X121457856Y-63804318D01*
X121457856Y-63804318D02*
X121941666Y-63804318D01*
X121941666Y-63804318D02*
X122062618Y-63864794D01*
X122062618Y-63864794D02*
X122123095Y-63925270D01*
X122123095Y-63925270D02*
X122183571Y-64046222D01*
X122183571Y-64046222D02*
X122183571Y-64227651D01*
X122183571Y-64227651D02*
X122123095Y-64348603D01*
X122123095Y-64348603D02*
X122062618Y-64409080D01*
X122062618Y-64409080D02*
X121941666Y-64469556D01*
X121941666Y-64469556D02*
X121457856Y-64469556D01*
X123393095Y-65074318D02*
X122667380Y-65074318D01*
X123030237Y-65074318D02*
X123030237Y-63804318D01*
X123030237Y-63804318D02*
X122909285Y-63985746D01*
X122909285Y-63985746D02*
X122788333Y-64106699D01*
X122788333Y-64106699D02*
X122667380Y-64167175D01*
X124481666Y-63804318D02*
X124239761Y-63804318D01*
X124239761Y-63804318D02*
X124118809Y-63864794D01*
X124118809Y-63864794D02*
X124058333Y-63925270D01*
X124058333Y-63925270D02*
X123937380Y-64106699D01*
X123937380Y-64106699D02*
X123876904Y-64348603D01*
X123876904Y-64348603D02*
X123876904Y-64832413D01*
X123876904Y-64832413D02*
X123937380Y-64953365D01*
X123937380Y-64953365D02*
X123997857Y-65013842D01*
X123997857Y-65013842D02*
X124118809Y-65074318D01*
X124118809Y-65074318D02*
X124360714Y-65074318D01*
X124360714Y-65074318D02*
X124481666Y-65013842D01*
X124481666Y-65013842D02*
X124542142Y-64953365D01*
X124542142Y-64953365D02*
X124602619Y-64832413D01*
X124602619Y-64832413D02*
X124602619Y-64530032D01*
X124602619Y-64530032D02*
X124542142Y-64409080D01*
X124542142Y-64409080D02*
X124481666Y-64348603D01*
X124481666Y-64348603D02*
X124360714Y-64288127D01*
X124360714Y-64288127D02*
X124118809Y-64288127D01*
X124118809Y-64288127D02*
X123997857Y-64348603D01*
X123997857Y-64348603D02*
X123937380Y-64409080D01*
X123937380Y-64409080D02*
X123876904Y-64530032D01*
X123453365Y-89211666D02*
X123513842Y-89272142D01*
X123513842Y-89272142D02*
X123574318Y-89453571D01*
X123574318Y-89453571D02*
X123574318Y-89574523D01*
X123574318Y-89574523D02*
X123513842Y-89755952D01*
X123513842Y-89755952D02*
X123392889Y-89876904D01*
X123392889Y-89876904D02*
X123271937Y-89937381D01*
X123271937Y-89937381D02*
X123030032Y-89997857D01*
X123030032Y-89997857D02*
X122848603Y-89997857D01*
X122848603Y-89997857D02*
X122606699Y-89937381D01*
X122606699Y-89937381D02*
X122485746Y-89876904D01*
X122485746Y-89876904D02*
X122364794Y-89755952D01*
X122364794Y-89755952D02*
X122304318Y-89574523D01*
X122304318Y-89574523D02*
X122304318Y-89453571D01*
X122304318Y-89453571D02*
X122364794Y-89272142D01*
X122364794Y-89272142D02*
X122425270Y-89211666D01*
X123574318Y-88606904D02*
X123574318Y-88365000D01*
X123574318Y-88365000D02*
X123513842Y-88244047D01*
X123513842Y-88244047D02*
X123453365Y-88183571D01*
X123453365Y-88183571D02*
X123271937Y-88062619D01*
X123271937Y-88062619D02*
X123030032Y-88002142D01*
X123030032Y-88002142D02*
X122546222Y-88002142D01*
X122546222Y-88002142D02*
X122425270Y-88062619D01*
X122425270Y-88062619D02*
X122364794Y-88123095D01*
X122364794Y-88123095D02*
X122304318Y-88244047D01*
X122304318Y-88244047D02*
X122304318Y-88485952D01*
X122304318Y-88485952D02*
X122364794Y-88606904D01*
X122364794Y-88606904D02*
X122425270Y-88667381D01*
X122425270Y-88667381D02*
X122546222Y-88727857D01*
X122546222Y-88727857D02*
X122848603Y-88727857D01*
X122848603Y-88727857D02*
X122969556Y-88667381D01*
X122969556Y-88667381D02*
X123030032Y-88606904D01*
X123030032Y-88606904D02*
X123090508Y-88485952D01*
X123090508Y-88485952D02*
X123090508Y-88244047D01*
X123090508Y-88244047D02*
X123030032Y-88123095D01*
X123030032Y-88123095D02*
X122969556Y-88062619D01*
X122969556Y-88062619D02*
X122848603Y-88002142D01*
X130188333Y-60953365D02*
X130127857Y-61013842D01*
X130127857Y-61013842D02*
X129946428Y-61074318D01*
X129946428Y-61074318D02*
X129825476Y-61074318D01*
X129825476Y-61074318D02*
X129644047Y-61013842D01*
X129644047Y-61013842D02*
X129523095Y-60892889D01*
X129523095Y-60892889D02*
X129462618Y-60771937D01*
X129462618Y-60771937D02*
X129402142Y-60530032D01*
X129402142Y-60530032D02*
X129402142Y-60348603D01*
X129402142Y-60348603D02*
X129462618Y-60106699D01*
X129462618Y-60106699D02*
X129523095Y-59985746D01*
X129523095Y-59985746D02*
X129644047Y-59864794D01*
X129644047Y-59864794D02*
X129825476Y-59804318D01*
X129825476Y-59804318D02*
X129946428Y-59804318D01*
X129946428Y-59804318D02*
X130127857Y-59864794D01*
X130127857Y-59864794D02*
X130188333Y-59925270D01*
X131276904Y-60227651D02*
X131276904Y-61074318D01*
X130974523Y-59743842D02*
X130672142Y-60650984D01*
X130672142Y-60650984D02*
X131458333Y-60650984D01*
X151838333Y-63074318D02*
X151414999Y-62469556D01*
X151112618Y-63074318D02*
X151112618Y-61804318D01*
X151112618Y-61804318D02*
X151596428Y-61804318D01*
X151596428Y-61804318D02*
X151717380Y-61864794D01*
X151717380Y-61864794D02*
X151777857Y-61925270D01*
X151777857Y-61925270D02*
X151838333Y-62046222D01*
X151838333Y-62046222D02*
X151838333Y-62227651D01*
X151838333Y-62227651D02*
X151777857Y-62348603D01*
X151777857Y-62348603D02*
X151717380Y-62409080D01*
X151717380Y-62409080D02*
X151596428Y-62469556D01*
X151596428Y-62469556D02*
X151112618Y-62469556D01*
X152261666Y-61804318D02*
X153047857Y-61804318D01*
X153047857Y-61804318D02*
X152624523Y-62288127D01*
X152624523Y-62288127D02*
X152805952Y-62288127D01*
X152805952Y-62288127D02*
X152926904Y-62348603D01*
X152926904Y-62348603D02*
X152987380Y-62409080D01*
X152987380Y-62409080D02*
X153047857Y-62530032D01*
X153047857Y-62530032D02*
X153047857Y-62832413D01*
X153047857Y-62832413D02*
X152987380Y-62953365D01*
X152987380Y-62953365D02*
X152926904Y-63013842D01*
X152926904Y-63013842D02*
X152805952Y-63074318D01*
X152805952Y-63074318D02*
X152443095Y-63074318D01*
X152443095Y-63074318D02*
X152322142Y-63013842D01*
X152322142Y-63013842D02*
X152261666Y-62953365D01*
X127574318Y-54611666D02*
X126969556Y-55035000D01*
X127574318Y-55337381D02*
X126304318Y-55337381D01*
X126304318Y-55337381D02*
X126304318Y-54853571D01*
X126304318Y-54853571D02*
X126364794Y-54732619D01*
X126364794Y-54732619D02*
X126425270Y-54672142D01*
X126425270Y-54672142D02*
X126546222Y-54611666D01*
X126546222Y-54611666D02*
X126727651Y-54611666D01*
X126727651Y-54611666D02*
X126848603Y-54672142D01*
X126848603Y-54672142D02*
X126909080Y-54732619D01*
X126909080Y-54732619D02*
X126969556Y-54853571D01*
X126969556Y-54853571D02*
X126969556Y-55337381D01*
X126304318Y-54188333D02*
X126304318Y-53341666D01*
X126304318Y-53341666D02*
X127574318Y-53885952D01*
X121574318Y-75316428D02*
X120969556Y-75739762D01*
X121574318Y-76042143D02*
X120304318Y-76042143D01*
X120304318Y-76042143D02*
X120304318Y-75558333D01*
X120304318Y-75558333D02*
X120364794Y-75437381D01*
X120364794Y-75437381D02*
X120425270Y-75376904D01*
X120425270Y-75376904D02*
X120546222Y-75316428D01*
X120546222Y-75316428D02*
X120727651Y-75316428D01*
X120727651Y-75316428D02*
X120848603Y-75376904D01*
X120848603Y-75376904D02*
X120909080Y-75437381D01*
X120909080Y-75437381D02*
X120969556Y-75558333D01*
X120969556Y-75558333D02*
X120969556Y-76042143D01*
X121574318Y-74106904D02*
X121574318Y-74832619D01*
X121574318Y-74469762D02*
X120304318Y-74469762D01*
X120304318Y-74469762D02*
X120485746Y-74590714D01*
X120485746Y-74590714D02*
X120606699Y-74711666D01*
X120606699Y-74711666D02*
X120667175Y-74832619D01*
X120304318Y-73683571D02*
X120304318Y-72897380D01*
X120304318Y-72897380D02*
X120788127Y-73320714D01*
X120788127Y-73320714D02*
X120788127Y-73139285D01*
X120788127Y-73139285D02*
X120848603Y-73018333D01*
X120848603Y-73018333D02*
X120909080Y-72957857D01*
X120909080Y-72957857D02*
X121030032Y-72897380D01*
X121030032Y-72897380D02*
X121332413Y-72897380D01*
X121332413Y-72897380D02*
X121453365Y-72957857D01*
X121453365Y-72957857D02*
X121513842Y-73018333D01*
X121513842Y-73018333D02*
X121574318Y-73139285D01*
X121574318Y-73139285D02*
X121574318Y-73502142D01*
X121574318Y-73502142D02*
X121513842Y-73623095D01*
X121513842Y-73623095D02*
X121453365Y-73683571D01*
X105288333Y-63074318D02*
X104864999Y-62469556D01*
X104562618Y-63074318D02*
X104562618Y-61804318D01*
X104562618Y-61804318D02*
X105046428Y-61804318D01*
X105046428Y-61804318D02*
X105167380Y-61864794D01*
X105167380Y-61864794D02*
X105227857Y-61925270D01*
X105227857Y-61925270D02*
X105288333Y-62046222D01*
X105288333Y-62046222D02*
X105288333Y-62227651D01*
X105288333Y-62227651D02*
X105227857Y-62348603D01*
X105227857Y-62348603D02*
X105167380Y-62409080D01*
X105167380Y-62409080D02*
X105046428Y-62469556D01*
X105046428Y-62469556D02*
X104562618Y-62469556D01*
X105893095Y-63074318D02*
X106134999Y-63074318D01*
X106134999Y-63074318D02*
X106255952Y-63013842D01*
X106255952Y-63013842D02*
X106316428Y-62953365D01*
X106316428Y-62953365D02*
X106437380Y-62771937D01*
X106437380Y-62771937D02*
X106497857Y-62530032D01*
X106497857Y-62530032D02*
X106497857Y-62046222D01*
X106497857Y-62046222D02*
X106437380Y-61925270D01*
X106437380Y-61925270D02*
X106376904Y-61864794D01*
X106376904Y-61864794D02*
X106255952Y-61804318D01*
X106255952Y-61804318D02*
X106014047Y-61804318D01*
X106014047Y-61804318D02*
X105893095Y-61864794D01*
X105893095Y-61864794D02*
X105832618Y-61925270D01*
X105832618Y-61925270D02*
X105772142Y-62046222D01*
X105772142Y-62046222D02*
X105772142Y-62348603D01*
X105772142Y-62348603D02*
X105832618Y-62469556D01*
X105832618Y-62469556D02*
X105893095Y-62530032D01*
X105893095Y-62530032D02*
X106014047Y-62590508D01*
X106014047Y-62590508D02*
X106255952Y-62590508D01*
X106255952Y-62590508D02*
X106376904Y-62530032D01*
X106376904Y-62530032D02*
X106437380Y-62469556D01*
X106437380Y-62469556D02*
X106497857Y-62348603D01*
X130988333Y-65374318D02*
X130564999Y-64769556D01*
X130262618Y-65374318D02*
X130262618Y-64104318D01*
X130262618Y-64104318D02*
X130746428Y-64104318D01*
X130746428Y-64104318D02*
X130867380Y-64164794D01*
X130867380Y-64164794D02*
X130927857Y-64225270D01*
X130927857Y-64225270D02*
X130988333Y-64346222D01*
X130988333Y-64346222D02*
X130988333Y-64527651D01*
X130988333Y-64527651D02*
X130927857Y-64648603D01*
X130927857Y-64648603D02*
X130867380Y-64709080D01*
X130867380Y-64709080D02*
X130746428Y-64769556D01*
X130746428Y-64769556D02*
X130262618Y-64769556D01*
X132076904Y-64104318D02*
X131834999Y-64104318D01*
X131834999Y-64104318D02*
X131714047Y-64164794D01*
X131714047Y-64164794D02*
X131653571Y-64225270D01*
X131653571Y-64225270D02*
X131532618Y-64406699D01*
X131532618Y-64406699D02*
X131472142Y-64648603D01*
X131472142Y-64648603D02*
X131472142Y-65132413D01*
X131472142Y-65132413D02*
X131532618Y-65253365D01*
X131532618Y-65253365D02*
X131593095Y-65313842D01*
X131593095Y-65313842D02*
X131714047Y-65374318D01*
X131714047Y-65374318D02*
X131955952Y-65374318D01*
X131955952Y-65374318D02*
X132076904Y-65313842D01*
X132076904Y-65313842D02*
X132137380Y-65253365D01*
X132137380Y-65253365D02*
X132197857Y-65132413D01*
X132197857Y-65132413D02*
X132197857Y-64830032D01*
X132197857Y-64830032D02*
X132137380Y-64709080D01*
X132137380Y-64709080D02*
X132076904Y-64648603D01*
X132076904Y-64648603D02*
X131955952Y-64588127D01*
X131955952Y-64588127D02*
X131714047Y-64588127D01*
X131714047Y-64588127D02*
X131593095Y-64648603D01*
X131593095Y-64648603D02*
X131532618Y-64709080D01*
X131532618Y-64709080D02*
X131472142Y-64830032D01*
X112576667Y-99804318D02*
X112576667Y-100711461D01*
X112576667Y-100711461D02*
X112516190Y-100892889D01*
X112516190Y-100892889D02*
X112395238Y-101013842D01*
X112395238Y-101013842D02*
X112213809Y-101074318D01*
X112213809Y-101074318D02*
X112092857Y-101074318D01*
X113786190Y-99804318D02*
X113181428Y-99804318D01*
X113181428Y-99804318D02*
X113120952Y-100409080D01*
X113120952Y-100409080D02*
X113181428Y-100348603D01*
X113181428Y-100348603D02*
X113302381Y-100288127D01*
X113302381Y-100288127D02*
X113604762Y-100288127D01*
X113604762Y-100288127D02*
X113725714Y-100348603D01*
X113725714Y-100348603D02*
X113786190Y-100409080D01*
X113786190Y-100409080D02*
X113846667Y-100530032D01*
X113846667Y-100530032D02*
X113846667Y-100832413D01*
X113846667Y-100832413D02*
X113786190Y-100953365D01*
X113786190Y-100953365D02*
X113725714Y-101013842D01*
X113725714Y-101013842D02*
X113604762Y-101074318D01*
X113604762Y-101074318D02*
X113302381Y-101074318D01*
X113302381Y-101074318D02*
X113181428Y-101013842D01*
X113181428Y-101013842D02*
X113120952Y-100953365D01*
X123574318Y-95316428D02*
X122969556Y-95739762D01*
X123574318Y-96042143D02*
X122304318Y-96042143D01*
X122304318Y-96042143D02*
X122304318Y-95558333D01*
X122304318Y-95558333D02*
X122364794Y-95437381D01*
X122364794Y-95437381D02*
X122425270Y-95376904D01*
X122425270Y-95376904D02*
X122546222Y-95316428D01*
X122546222Y-95316428D02*
X122727651Y-95316428D01*
X122727651Y-95316428D02*
X122848603Y-95376904D01*
X122848603Y-95376904D02*
X122909080Y-95437381D01*
X122909080Y-95437381D02*
X122969556Y-95558333D01*
X122969556Y-95558333D02*
X122969556Y-96042143D01*
X123574318Y-94106904D02*
X123574318Y-94832619D01*
X123574318Y-94469762D02*
X122304318Y-94469762D01*
X122304318Y-94469762D02*
X122485746Y-94590714D01*
X122485746Y-94590714D02*
X122606699Y-94711666D01*
X122606699Y-94711666D02*
X122667175Y-94832619D01*
X123574318Y-92897380D02*
X123574318Y-93623095D01*
X123574318Y-93260238D02*
X122304318Y-93260238D01*
X122304318Y-93260238D02*
X122485746Y-93381190D01*
X122485746Y-93381190D02*
X122606699Y-93502142D01*
X122606699Y-93502142D02*
X122667175Y-93623095D01*
X131288333Y-52453365D02*
X131227857Y-52513842D01*
X131227857Y-52513842D02*
X131046428Y-52574318D01*
X131046428Y-52574318D02*
X130925476Y-52574318D01*
X130925476Y-52574318D02*
X130744047Y-52513842D01*
X130744047Y-52513842D02*
X130623095Y-52392889D01*
X130623095Y-52392889D02*
X130562618Y-52271937D01*
X130562618Y-52271937D02*
X130502142Y-52030032D01*
X130502142Y-52030032D02*
X130502142Y-51848603D01*
X130502142Y-51848603D02*
X130562618Y-51606699D01*
X130562618Y-51606699D02*
X130623095Y-51485746D01*
X130623095Y-51485746D02*
X130744047Y-51364794D01*
X130744047Y-51364794D02*
X130925476Y-51304318D01*
X130925476Y-51304318D02*
X131046428Y-51304318D01*
X131046428Y-51304318D02*
X131227857Y-51364794D01*
X131227857Y-51364794D02*
X131288333Y-51425270D01*
X131711666Y-51304318D02*
X132497857Y-51304318D01*
X132497857Y-51304318D02*
X132074523Y-51788127D01*
X132074523Y-51788127D02*
X132255952Y-51788127D01*
X132255952Y-51788127D02*
X132376904Y-51848603D01*
X132376904Y-51848603D02*
X132437380Y-51909080D01*
X132437380Y-51909080D02*
X132497857Y-52030032D01*
X132497857Y-52030032D02*
X132497857Y-52332413D01*
X132497857Y-52332413D02*
X132437380Y-52453365D01*
X132437380Y-52453365D02*
X132376904Y-52513842D01*
X132376904Y-52513842D02*
X132255952Y-52574318D01*
X132255952Y-52574318D02*
X131893095Y-52574318D01*
X131893095Y-52574318D02*
X131772142Y-52513842D01*
X131772142Y-52513842D02*
X131711666Y-52453365D01*
X114076667Y-67304318D02*
X114076667Y-68211461D01*
X114076667Y-68211461D02*
X114016190Y-68392889D01*
X114016190Y-68392889D02*
X113895238Y-68513842D01*
X113895238Y-68513842D02*
X113713809Y-68574318D01*
X113713809Y-68574318D02*
X113592857Y-68574318D01*
X114620952Y-67425270D02*
X114681428Y-67364794D01*
X114681428Y-67364794D02*
X114802381Y-67304318D01*
X114802381Y-67304318D02*
X115104762Y-67304318D01*
X115104762Y-67304318D02*
X115225714Y-67364794D01*
X115225714Y-67364794D02*
X115286190Y-67425270D01*
X115286190Y-67425270D02*
X115346667Y-67546222D01*
X115346667Y-67546222D02*
X115346667Y-67667175D01*
X115346667Y-67667175D02*
X115286190Y-67848603D01*
X115286190Y-67848603D02*
X114560476Y-68574318D01*
X114560476Y-68574318D02*
X115346667Y-68574318D01*
X130983571Y-80574318D02*
X130560237Y-79969556D01*
X130257856Y-80574318D02*
X130257856Y-79304318D01*
X130257856Y-79304318D02*
X130741666Y-79304318D01*
X130741666Y-79304318D02*
X130862618Y-79364794D01*
X130862618Y-79364794D02*
X130923095Y-79425270D01*
X130923095Y-79425270D02*
X130983571Y-79546222D01*
X130983571Y-79546222D02*
X130983571Y-79727651D01*
X130983571Y-79727651D02*
X130923095Y-79848603D01*
X130923095Y-79848603D02*
X130862618Y-79909080D01*
X130862618Y-79909080D02*
X130741666Y-79969556D01*
X130741666Y-79969556D02*
X130257856Y-79969556D01*
X132193095Y-80574318D02*
X131467380Y-80574318D01*
X131830237Y-80574318D02*
X131830237Y-79304318D01*
X131830237Y-79304318D02*
X131709285Y-79485746D01*
X131709285Y-79485746D02*
X131588333Y-79606699D01*
X131588333Y-79606699D02*
X131467380Y-79667175D01*
X133342142Y-79304318D02*
X132737380Y-79304318D01*
X132737380Y-79304318D02*
X132676904Y-79909080D01*
X132676904Y-79909080D02*
X132737380Y-79848603D01*
X132737380Y-79848603D02*
X132858333Y-79788127D01*
X132858333Y-79788127D02*
X133160714Y-79788127D01*
X133160714Y-79788127D02*
X133281666Y-79848603D01*
X133281666Y-79848603D02*
X133342142Y-79909080D01*
X133342142Y-79909080D02*
X133402619Y-80030032D01*
X133402619Y-80030032D02*
X133402619Y-80332413D01*
X133402619Y-80332413D02*
X133342142Y-80453365D01*
X133342142Y-80453365D02*
X133281666Y-80513842D01*
X133281666Y-80513842D02*
X133160714Y-80574318D01*
X133160714Y-80574318D02*
X132858333Y-80574318D01*
X132858333Y-80574318D02*
X132737380Y-80513842D01*
X132737380Y-80513842D02*
X132676904Y-80453365D01*
X139960237Y-59574318D02*
X139960237Y-58304318D01*
X141290714Y-59453365D02*
X141230238Y-59513842D01*
X141230238Y-59513842D02*
X141048809Y-59574318D01*
X141048809Y-59574318D02*
X140927857Y-59574318D01*
X140927857Y-59574318D02*
X140746428Y-59513842D01*
X140746428Y-59513842D02*
X140625476Y-59392889D01*
X140625476Y-59392889D02*
X140564999Y-59271937D01*
X140564999Y-59271937D02*
X140504523Y-59030032D01*
X140504523Y-59030032D02*
X140504523Y-58848603D01*
X140504523Y-58848603D02*
X140564999Y-58606699D01*
X140564999Y-58606699D02*
X140625476Y-58485746D01*
X140625476Y-58485746D02*
X140746428Y-58364794D01*
X140746428Y-58364794D02*
X140927857Y-58304318D01*
X140927857Y-58304318D02*
X141048809Y-58304318D01*
X141048809Y-58304318D02*
X141230238Y-58364794D01*
X141230238Y-58364794D02*
X141290714Y-58425270D01*
X142500238Y-59574318D02*
X141774523Y-59574318D01*
X142137380Y-59574318D02*
X142137380Y-58304318D01*
X142137380Y-58304318D02*
X142016428Y-58485746D01*
X142016428Y-58485746D02*
X141895476Y-58606699D01*
X141895476Y-58606699D02*
X141774523Y-58667175D01*
X126788333Y-60453365D02*
X126727857Y-60513842D01*
X126727857Y-60513842D02*
X126546428Y-60574318D01*
X126546428Y-60574318D02*
X126425476Y-60574318D01*
X126425476Y-60574318D02*
X126244047Y-60513842D01*
X126244047Y-60513842D02*
X126123095Y-60392889D01*
X126123095Y-60392889D02*
X126062618Y-60271937D01*
X126062618Y-60271937D02*
X126002142Y-60030032D01*
X126002142Y-60030032D02*
X126002142Y-59848603D01*
X126002142Y-59848603D02*
X126062618Y-59606699D01*
X126062618Y-59606699D02*
X126123095Y-59485746D01*
X126123095Y-59485746D02*
X126244047Y-59364794D01*
X126244047Y-59364794D02*
X126425476Y-59304318D01*
X126425476Y-59304318D02*
X126546428Y-59304318D01*
X126546428Y-59304318D02*
X126727857Y-59364794D01*
X126727857Y-59364794D02*
X126788333Y-59425270D01*
X127937380Y-59304318D02*
X127332618Y-59304318D01*
X127332618Y-59304318D02*
X127272142Y-59909080D01*
X127272142Y-59909080D02*
X127332618Y-59848603D01*
X127332618Y-59848603D02*
X127453571Y-59788127D01*
X127453571Y-59788127D02*
X127755952Y-59788127D01*
X127755952Y-59788127D02*
X127876904Y-59848603D01*
X127876904Y-59848603D02*
X127937380Y-59909080D01*
X127937380Y-59909080D02*
X127997857Y-60030032D01*
X127997857Y-60030032D02*
X127997857Y-60332413D01*
X127997857Y-60332413D02*
X127937380Y-60453365D01*
X127937380Y-60453365D02*
X127876904Y-60513842D01*
X127876904Y-60513842D02*
X127755952Y-60574318D01*
X127755952Y-60574318D02*
X127453571Y-60574318D01*
X127453571Y-60574318D02*
X127332618Y-60513842D01*
X127332618Y-60513842D02*
X127272142Y-60453365D01*
X110683571Y-75453365D02*
X110623095Y-75513842D01*
X110623095Y-75513842D02*
X110441666Y-75574318D01*
X110441666Y-75574318D02*
X110320714Y-75574318D01*
X110320714Y-75574318D02*
X110139285Y-75513842D01*
X110139285Y-75513842D02*
X110018333Y-75392889D01*
X110018333Y-75392889D02*
X109957856Y-75271937D01*
X109957856Y-75271937D02*
X109897380Y-75030032D01*
X109897380Y-75030032D02*
X109897380Y-74848603D01*
X109897380Y-74848603D02*
X109957856Y-74606699D01*
X109957856Y-74606699D02*
X110018333Y-74485746D01*
X110018333Y-74485746D02*
X110139285Y-74364794D01*
X110139285Y-74364794D02*
X110320714Y-74304318D01*
X110320714Y-74304318D02*
X110441666Y-74304318D01*
X110441666Y-74304318D02*
X110623095Y-74364794D01*
X110623095Y-74364794D02*
X110683571Y-74425270D01*
X111893095Y-75574318D02*
X111167380Y-75574318D01*
X111530237Y-75574318D02*
X111530237Y-74304318D01*
X111530237Y-74304318D02*
X111409285Y-74485746D01*
X111409285Y-74485746D02*
X111288333Y-74606699D01*
X111288333Y-74606699D02*
X111167380Y-74667175D01*
X112679285Y-74304318D02*
X112800238Y-74304318D01*
X112800238Y-74304318D02*
X112921190Y-74364794D01*
X112921190Y-74364794D02*
X112981666Y-74425270D01*
X112981666Y-74425270D02*
X113042142Y-74546222D01*
X113042142Y-74546222D02*
X113102619Y-74788127D01*
X113102619Y-74788127D02*
X113102619Y-75090508D01*
X113102619Y-75090508D02*
X113042142Y-75332413D01*
X113042142Y-75332413D02*
X112981666Y-75453365D01*
X112981666Y-75453365D02*
X112921190Y-75513842D01*
X112921190Y-75513842D02*
X112800238Y-75574318D01*
X112800238Y-75574318D02*
X112679285Y-75574318D01*
X112679285Y-75574318D02*
X112558333Y-75513842D01*
X112558333Y-75513842D02*
X112497857Y-75453365D01*
X112497857Y-75453365D02*
X112437380Y-75332413D01*
X112437380Y-75332413D02*
X112376904Y-75090508D01*
X112376904Y-75090508D02*
X112376904Y-74788127D01*
X112376904Y-74788127D02*
X112437380Y-74546222D01*
X112437380Y-74546222D02*
X112497857Y-74425270D01*
X112497857Y-74425270D02*
X112558333Y-74364794D01*
X112558333Y-74364794D02*
X112679285Y-74304318D01*
X105895238Y-72469556D02*
X105895238Y-73074318D01*
X105471905Y-71804318D02*
X105895238Y-72469556D01*
X105895238Y-72469556D02*
X106318572Y-71804318D01*
X107407143Y-73074318D02*
X106681428Y-73074318D01*
X107044285Y-73074318D02*
X107044285Y-71804318D01*
X107044285Y-71804318D02*
X106923333Y-71985746D01*
X106923333Y-71985746D02*
X106802381Y-72106699D01*
X106802381Y-72106699D02*
X106681428Y-72167175D01*
X116760237Y-76074318D02*
X116760237Y-74804318D01*
X118090714Y-75953365D02*
X118030238Y-76013842D01*
X118030238Y-76013842D02*
X117848809Y-76074318D01*
X117848809Y-76074318D02*
X117727857Y-76074318D01*
X117727857Y-76074318D02*
X117546428Y-76013842D01*
X117546428Y-76013842D02*
X117425476Y-75892889D01*
X117425476Y-75892889D02*
X117364999Y-75771937D01*
X117364999Y-75771937D02*
X117304523Y-75530032D01*
X117304523Y-75530032D02*
X117304523Y-75348603D01*
X117304523Y-75348603D02*
X117364999Y-75106699D01*
X117364999Y-75106699D02*
X117425476Y-74985746D01*
X117425476Y-74985746D02*
X117546428Y-74864794D01*
X117546428Y-74864794D02*
X117727857Y-74804318D01*
X117727857Y-74804318D02*
X117848809Y-74804318D01*
X117848809Y-74804318D02*
X118030238Y-74864794D01*
X118030238Y-74864794D02*
X118090714Y-74925270D01*
X118514047Y-74804318D02*
X119300238Y-74804318D01*
X119300238Y-74804318D02*
X118876904Y-75288127D01*
X118876904Y-75288127D02*
X119058333Y-75288127D01*
X119058333Y-75288127D02*
X119179285Y-75348603D01*
X119179285Y-75348603D02*
X119239761Y-75409080D01*
X119239761Y-75409080D02*
X119300238Y-75530032D01*
X119300238Y-75530032D02*
X119300238Y-75832413D01*
X119300238Y-75832413D02*
X119239761Y-75953365D01*
X119239761Y-75953365D02*
X119179285Y-76013842D01*
X119179285Y-76013842D02*
X119058333Y-76074318D01*
X119058333Y-76074318D02*
X118695476Y-76074318D01*
X118695476Y-76074318D02*
X118574523Y-76013842D01*
X118574523Y-76013842D02*
X118514047Y-75953365D01*
X147288333Y-63074318D02*
X146864999Y-62469556D01*
X146562618Y-63074318D02*
X146562618Y-61804318D01*
X146562618Y-61804318D02*
X147046428Y-61804318D01*
X147046428Y-61804318D02*
X147167380Y-61864794D01*
X147167380Y-61864794D02*
X147227857Y-61925270D01*
X147227857Y-61925270D02*
X147288333Y-62046222D01*
X147288333Y-62046222D02*
X147288333Y-62227651D01*
X147288333Y-62227651D02*
X147227857Y-62348603D01*
X147227857Y-62348603D02*
X147167380Y-62409080D01*
X147167380Y-62409080D02*
X147046428Y-62469556D01*
X147046428Y-62469556D02*
X146562618Y-62469556D01*
X148376904Y-62227651D02*
X148376904Y-63074318D01*
X148074523Y-61743842D02*
X147772142Y-62650984D01*
X147772142Y-62650984D02*
X148558333Y-62650984D01*
X155513842Y-55967619D02*
X155574318Y-55786190D01*
X155574318Y-55786190D02*
X155574318Y-55483809D01*
X155574318Y-55483809D02*
X155513842Y-55362857D01*
X155513842Y-55362857D02*
X155453365Y-55302381D01*
X155453365Y-55302381D02*
X155332413Y-55241904D01*
X155332413Y-55241904D02*
X155211461Y-55241904D01*
X155211461Y-55241904D02*
X155090508Y-55302381D01*
X155090508Y-55302381D02*
X155030032Y-55362857D01*
X155030032Y-55362857D02*
X154969556Y-55483809D01*
X154969556Y-55483809D02*
X154909080Y-55725714D01*
X154909080Y-55725714D02*
X154848603Y-55846666D01*
X154848603Y-55846666D02*
X154788127Y-55907143D01*
X154788127Y-55907143D02*
X154667175Y-55967619D01*
X154667175Y-55967619D02*
X154546222Y-55967619D01*
X154546222Y-55967619D02*
X154425270Y-55907143D01*
X154425270Y-55907143D02*
X154364794Y-55846666D01*
X154364794Y-55846666D02*
X154304318Y-55725714D01*
X154304318Y-55725714D02*
X154304318Y-55423333D01*
X154304318Y-55423333D02*
X154364794Y-55241904D01*
X154425270Y-54758095D02*
X154364794Y-54697619D01*
X154364794Y-54697619D02*
X154304318Y-54576666D01*
X154304318Y-54576666D02*
X154304318Y-54274285D01*
X154304318Y-54274285D02*
X154364794Y-54153333D01*
X154364794Y-54153333D02*
X154425270Y-54092857D01*
X154425270Y-54092857D02*
X154546222Y-54032380D01*
X154546222Y-54032380D02*
X154667175Y-54032380D01*
X154667175Y-54032380D02*
X154848603Y-54092857D01*
X154848603Y-54092857D02*
X155574318Y-54818571D01*
X155574318Y-54818571D02*
X155574318Y-54032380D01*
X137288333Y-52453365D02*
X137227857Y-52513842D01*
X137227857Y-52513842D02*
X137046428Y-52574318D01*
X137046428Y-52574318D02*
X136925476Y-52574318D01*
X136925476Y-52574318D02*
X136744047Y-52513842D01*
X136744047Y-52513842D02*
X136623095Y-52392889D01*
X136623095Y-52392889D02*
X136562618Y-52271937D01*
X136562618Y-52271937D02*
X136502142Y-52030032D01*
X136502142Y-52030032D02*
X136502142Y-51848603D01*
X136502142Y-51848603D02*
X136562618Y-51606699D01*
X136562618Y-51606699D02*
X136623095Y-51485746D01*
X136623095Y-51485746D02*
X136744047Y-51364794D01*
X136744047Y-51364794D02*
X136925476Y-51304318D01*
X136925476Y-51304318D02*
X137046428Y-51304318D01*
X137046428Y-51304318D02*
X137227857Y-51364794D01*
X137227857Y-51364794D02*
X137288333Y-51425270D01*
X137772142Y-51425270D02*
X137832618Y-51364794D01*
X137832618Y-51364794D02*
X137953571Y-51304318D01*
X137953571Y-51304318D02*
X138255952Y-51304318D01*
X138255952Y-51304318D02*
X138376904Y-51364794D01*
X138376904Y-51364794D02*
X138437380Y-51425270D01*
X138437380Y-51425270D02*
X138497857Y-51546222D01*
X138497857Y-51546222D02*
X138497857Y-51667175D01*
X138497857Y-51667175D02*
X138437380Y-51848603D01*
X138437380Y-51848603D02*
X137711666Y-52574318D01*
X137711666Y-52574318D02*
X138497857Y-52574318D01*
X133818777Y-87100198D02*
X133818777Y-88007341D01*
X133818777Y-88007341D02*
X133758300Y-88188769D01*
X133758300Y-88188769D02*
X133637348Y-88309722D01*
X133637348Y-88309722D02*
X133455919Y-88370198D01*
X133455919Y-88370198D02*
X133334967Y-88370198D01*
X134967824Y-87523531D02*
X134967824Y-88370198D01*
X134665443Y-87039722D02*
X134363062Y-87946864D01*
X134363062Y-87946864D02*
X135149253Y-87946864D01*
X147957856Y-78574318D02*
X147957856Y-77304318D01*
X147957856Y-77304318D02*
X148441666Y-77304318D01*
X148441666Y-77304318D02*
X148562618Y-77364794D01*
X148562618Y-77364794D02*
X148623095Y-77425270D01*
X148623095Y-77425270D02*
X148683571Y-77546222D01*
X148683571Y-77546222D02*
X148683571Y-77727651D01*
X148683571Y-77727651D02*
X148623095Y-77848603D01*
X148623095Y-77848603D02*
X148562618Y-77909080D01*
X148562618Y-77909080D02*
X148441666Y-77969556D01*
X148441666Y-77969556D02*
X147957856Y-77969556D01*
X149167380Y-78513842D02*
X149348809Y-78574318D01*
X149348809Y-78574318D02*
X149651190Y-78574318D01*
X149651190Y-78574318D02*
X149772142Y-78513842D01*
X149772142Y-78513842D02*
X149832618Y-78453365D01*
X149832618Y-78453365D02*
X149893095Y-78332413D01*
X149893095Y-78332413D02*
X149893095Y-78211461D01*
X149893095Y-78211461D02*
X149832618Y-78090508D01*
X149832618Y-78090508D02*
X149772142Y-78030032D01*
X149772142Y-78030032D02*
X149651190Y-77969556D01*
X149651190Y-77969556D02*
X149409285Y-77909080D01*
X149409285Y-77909080D02*
X149288333Y-77848603D01*
X149288333Y-77848603D02*
X149227856Y-77788127D01*
X149227856Y-77788127D02*
X149167380Y-77667175D01*
X149167380Y-77667175D02*
X149167380Y-77546222D01*
X149167380Y-77546222D02*
X149227856Y-77425270D01*
X149227856Y-77425270D02*
X149288333Y-77364794D01*
X149288333Y-77364794D02*
X149409285Y-77304318D01*
X149409285Y-77304318D02*
X149711666Y-77304318D01*
X149711666Y-77304318D02*
X149893095Y-77364794D01*
X151102619Y-78574318D02*
X150376904Y-78574318D01*
X150739761Y-78574318D02*
X150739761Y-77304318D01*
X150739761Y-77304318D02*
X150618809Y-77485746D01*
X150618809Y-77485746D02*
X150497857Y-77606699D01*
X150497857Y-77606699D02*
X150376904Y-77667175D01*
X104076667Y-55304318D02*
X104076667Y-56211461D01*
X104076667Y-56211461D02*
X104016190Y-56392889D01*
X104016190Y-56392889D02*
X103895238Y-56513842D01*
X103895238Y-56513842D02*
X103713809Y-56574318D01*
X103713809Y-56574318D02*
X103592857Y-56574318D01*
X104560476Y-55304318D02*
X105346667Y-55304318D01*
X105346667Y-55304318D02*
X104923333Y-55788127D01*
X104923333Y-55788127D02*
X105104762Y-55788127D01*
X105104762Y-55788127D02*
X105225714Y-55848603D01*
X105225714Y-55848603D02*
X105286190Y-55909080D01*
X105286190Y-55909080D02*
X105346667Y-56030032D01*
X105346667Y-56030032D02*
X105346667Y-56332413D01*
X105346667Y-56332413D02*
X105286190Y-56453365D01*
X105286190Y-56453365D02*
X105225714Y-56513842D01*
X105225714Y-56513842D02*
X105104762Y-56574318D01*
X105104762Y-56574318D02*
X104741905Y-56574318D01*
X104741905Y-56574318D02*
X104620952Y-56513842D01*
X104620952Y-56513842D02*
X104560476Y-56453365D01*
X136788333Y-59774318D02*
X136364999Y-59169556D01*
X136062618Y-59774318D02*
X136062618Y-58504318D01*
X136062618Y-58504318D02*
X136546428Y-58504318D01*
X136546428Y-58504318D02*
X136667380Y-58564794D01*
X136667380Y-58564794D02*
X136727857Y-58625270D01*
X136727857Y-58625270D02*
X136788333Y-58746222D01*
X136788333Y-58746222D02*
X136788333Y-58927651D01*
X136788333Y-58927651D02*
X136727857Y-59048603D01*
X136727857Y-59048603D02*
X136667380Y-59109080D01*
X136667380Y-59109080D02*
X136546428Y-59169556D01*
X136546428Y-59169556D02*
X136062618Y-59169556D01*
X137937380Y-58504318D02*
X137332618Y-58504318D01*
X137332618Y-58504318D02*
X137272142Y-59109080D01*
X137272142Y-59109080D02*
X137332618Y-59048603D01*
X137332618Y-59048603D02*
X137453571Y-58988127D01*
X137453571Y-58988127D02*
X137755952Y-58988127D01*
X137755952Y-58988127D02*
X137876904Y-59048603D01*
X137876904Y-59048603D02*
X137937380Y-59109080D01*
X137937380Y-59109080D02*
X137997857Y-59230032D01*
X137997857Y-59230032D02*
X137997857Y-59532413D01*
X137997857Y-59532413D02*
X137937380Y-59653365D01*
X137937380Y-59653365D02*
X137876904Y-59713842D01*
X137876904Y-59713842D02*
X137755952Y-59774318D01*
X137755952Y-59774318D02*
X137453571Y-59774318D01*
X137453571Y-59774318D02*
X137332618Y-59713842D01*
X137332618Y-59713842D02*
X137272142Y-59653365D01*
X129260237Y-71974318D02*
X129260237Y-70704318D01*
X130590714Y-71853365D02*
X130530238Y-71913842D01*
X130530238Y-71913842D02*
X130348809Y-71974318D01*
X130348809Y-71974318D02*
X130227857Y-71974318D01*
X130227857Y-71974318D02*
X130046428Y-71913842D01*
X130046428Y-71913842D02*
X129925476Y-71792889D01*
X129925476Y-71792889D02*
X129864999Y-71671937D01*
X129864999Y-71671937D02*
X129804523Y-71430032D01*
X129804523Y-71430032D02*
X129804523Y-71248603D01*
X129804523Y-71248603D02*
X129864999Y-71006699D01*
X129864999Y-71006699D02*
X129925476Y-70885746D01*
X129925476Y-70885746D02*
X130046428Y-70764794D01*
X130046428Y-70764794D02*
X130227857Y-70704318D01*
X130227857Y-70704318D02*
X130348809Y-70704318D01*
X130348809Y-70704318D02*
X130530238Y-70764794D01*
X130530238Y-70764794D02*
X130590714Y-70825270D01*
X131074523Y-70825270D02*
X131134999Y-70764794D01*
X131134999Y-70764794D02*
X131255952Y-70704318D01*
X131255952Y-70704318D02*
X131558333Y-70704318D01*
X131558333Y-70704318D02*
X131679285Y-70764794D01*
X131679285Y-70764794D02*
X131739761Y-70825270D01*
X131739761Y-70825270D02*
X131800238Y-70946222D01*
X131800238Y-70946222D02*
X131800238Y-71067175D01*
X131800238Y-71067175D02*
X131739761Y-71248603D01*
X131739761Y-71248603D02*
X131014047Y-71974318D01*
X131014047Y-71974318D02*
X131800238Y-71974318D01*
X117788333Y-73953365D02*
X117727857Y-74013842D01*
X117727857Y-74013842D02*
X117546428Y-74074318D01*
X117546428Y-74074318D02*
X117425476Y-74074318D01*
X117425476Y-74074318D02*
X117244047Y-74013842D01*
X117244047Y-74013842D02*
X117123095Y-73892889D01*
X117123095Y-73892889D02*
X117062618Y-73771937D01*
X117062618Y-73771937D02*
X117002142Y-73530032D01*
X117002142Y-73530032D02*
X117002142Y-73348603D01*
X117002142Y-73348603D02*
X117062618Y-73106699D01*
X117062618Y-73106699D02*
X117123095Y-72985746D01*
X117123095Y-72985746D02*
X117244047Y-72864794D01*
X117244047Y-72864794D02*
X117425476Y-72804318D01*
X117425476Y-72804318D02*
X117546428Y-72804318D01*
X117546428Y-72804318D02*
X117727857Y-72864794D01*
X117727857Y-72864794D02*
X117788333Y-72925270D01*
X118211666Y-72804318D02*
X119058333Y-72804318D01*
X119058333Y-72804318D02*
X118514047Y-74074318D01*
X115183571Y-92574318D02*
X114760237Y-91969556D01*
X114457856Y-92574318D02*
X114457856Y-91304318D01*
X114457856Y-91304318D02*
X114941666Y-91304318D01*
X114941666Y-91304318D02*
X115062618Y-91364794D01*
X115062618Y-91364794D02*
X115123095Y-91425270D01*
X115123095Y-91425270D02*
X115183571Y-91546222D01*
X115183571Y-91546222D02*
X115183571Y-91727651D01*
X115183571Y-91727651D02*
X115123095Y-91848603D01*
X115123095Y-91848603D02*
X115062618Y-91909080D01*
X115062618Y-91909080D02*
X114941666Y-91969556D01*
X114941666Y-91969556D02*
X114457856Y-91969556D01*
X116393095Y-92574318D02*
X115667380Y-92574318D01*
X116030237Y-92574318D02*
X116030237Y-91304318D01*
X116030237Y-91304318D02*
X115909285Y-91485746D01*
X115909285Y-91485746D02*
X115788333Y-91606699D01*
X115788333Y-91606699D02*
X115667380Y-91667175D01*
X116876904Y-91425270D02*
X116937380Y-91364794D01*
X116937380Y-91364794D02*
X117058333Y-91304318D01*
X117058333Y-91304318D02*
X117360714Y-91304318D01*
X117360714Y-91304318D02*
X117481666Y-91364794D01*
X117481666Y-91364794D02*
X117542142Y-91425270D01*
X117542142Y-91425270D02*
X117602619Y-91546222D01*
X117602619Y-91546222D02*
X117602619Y-91667175D01*
X117602619Y-91667175D02*
X117542142Y-91848603D01*
X117542142Y-91848603D02*
X116816428Y-92574318D01*
X116816428Y-92574318D02*
X117602619Y-92574318D01*
X145683371Y-57075215D02*
X145864800Y-57135691D01*
X145864800Y-57135691D02*
X146167181Y-57135691D01*
X146167181Y-57135691D02*
X146288133Y-57075215D01*
X146288133Y-57075215D02*
X146348609Y-57014738D01*
X146348609Y-57014738D02*
X146409086Y-56893786D01*
X146409086Y-56893786D02*
X146409086Y-56772834D01*
X146409086Y-56772834D02*
X146348609Y-56651881D01*
X146348609Y-56651881D02*
X146288133Y-56591405D01*
X146288133Y-56591405D02*
X146167181Y-56530929D01*
X146167181Y-56530929D02*
X145925276Y-56470453D01*
X145925276Y-56470453D02*
X145804324Y-56409976D01*
X145804324Y-56409976D02*
X145743847Y-56349500D01*
X145743847Y-56349500D02*
X145683371Y-56228548D01*
X145683371Y-56228548D02*
X145683371Y-56107595D01*
X145683371Y-56107595D02*
X145743847Y-55986643D01*
X145743847Y-55986643D02*
X145804324Y-55926167D01*
X145804324Y-55926167D02*
X145925276Y-55865691D01*
X145925276Y-55865691D02*
X146227657Y-55865691D01*
X146227657Y-55865691D02*
X146409086Y-55926167D01*
X147618610Y-57135691D02*
X146892895Y-57135691D01*
X147255752Y-57135691D02*
X147255752Y-55865691D01*
X147255752Y-55865691D02*
X147134800Y-56047119D01*
X147134800Y-56047119D02*
X147013848Y-56168072D01*
X147013848Y-56168072D02*
X146892895Y-56228548D01*
X129583571Y-74974318D02*
X129160237Y-74369556D01*
X128857856Y-74974318D02*
X128857856Y-73704318D01*
X128857856Y-73704318D02*
X129341666Y-73704318D01*
X129341666Y-73704318D02*
X129462618Y-73764794D01*
X129462618Y-73764794D02*
X129523095Y-73825270D01*
X129523095Y-73825270D02*
X129583571Y-73946222D01*
X129583571Y-73946222D02*
X129583571Y-74127651D01*
X129583571Y-74127651D02*
X129523095Y-74248603D01*
X129523095Y-74248603D02*
X129462618Y-74309080D01*
X129462618Y-74309080D02*
X129341666Y-74369556D01*
X129341666Y-74369556D02*
X128857856Y-74369556D01*
X130793095Y-74974318D02*
X130067380Y-74974318D01*
X130430237Y-74974318D02*
X130430237Y-73704318D01*
X130430237Y-73704318D02*
X130309285Y-73885746D01*
X130309285Y-73885746D02*
X130188333Y-74006699D01*
X130188333Y-74006699D02*
X130067380Y-74067175D01*
X131881666Y-74127651D02*
X131881666Y-74974318D01*
X131579285Y-73643842D02*
X131276904Y-74550984D01*
X131276904Y-74550984D02*
X132063095Y-74550984D01*
X134453365Y-70211666D02*
X134513842Y-70272142D01*
X134513842Y-70272142D02*
X134574318Y-70453571D01*
X134574318Y-70453571D02*
X134574318Y-70574523D01*
X134574318Y-70574523D02*
X134513842Y-70755952D01*
X134513842Y-70755952D02*
X134392889Y-70876904D01*
X134392889Y-70876904D02*
X134271937Y-70937381D01*
X134271937Y-70937381D02*
X134030032Y-70997857D01*
X134030032Y-70997857D02*
X133848603Y-70997857D01*
X133848603Y-70997857D02*
X133606699Y-70937381D01*
X133606699Y-70937381D02*
X133485746Y-70876904D01*
X133485746Y-70876904D02*
X133364794Y-70755952D01*
X133364794Y-70755952D02*
X133304318Y-70574523D01*
X133304318Y-70574523D02*
X133304318Y-70453571D01*
X133304318Y-70453571D02*
X133364794Y-70272142D01*
X133364794Y-70272142D02*
X133425270Y-70211666D01*
X133304318Y-69123095D02*
X133304318Y-69365000D01*
X133304318Y-69365000D02*
X133364794Y-69485952D01*
X133364794Y-69485952D02*
X133425270Y-69546428D01*
X133425270Y-69546428D02*
X133606699Y-69667381D01*
X133606699Y-69667381D02*
X133848603Y-69727857D01*
X133848603Y-69727857D02*
X134332413Y-69727857D01*
X134332413Y-69727857D02*
X134453365Y-69667381D01*
X134453365Y-69667381D02*
X134513842Y-69606904D01*
X134513842Y-69606904D02*
X134574318Y-69485952D01*
X134574318Y-69485952D02*
X134574318Y-69244047D01*
X134574318Y-69244047D02*
X134513842Y-69123095D01*
X134513842Y-69123095D02*
X134453365Y-69062619D01*
X134453365Y-69062619D02*
X134332413Y-69002142D01*
X134332413Y-69002142D02*
X134030032Y-69002142D01*
X134030032Y-69002142D02*
X133909080Y-69062619D01*
X133909080Y-69062619D02*
X133848603Y-69123095D01*
X133848603Y-69123095D02*
X133788127Y-69244047D01*
X133788127Y-69244047D02*
X133788127Y-69485952D01*
X133788127Y-69485952D02*
X133848603Y-69606904D01*
X133848603Y-69606904D02*
X133909080Y-69667381D01*
X133909080Y-69667381D02*
X134030032Y-69727857D01*
X111032381Y-56304318D02*
X111758095Y-56304318D01*
X111395238Y-57574318D02*
X111395238Y-56304318D01*
X112846667Y-57574318D02*
X112120952Y-57574318D01*
X112483809Y-57574318D02*
X112483809Y-56304318D01*
X112483809Y-56304318D02*
X112362857Y-56485746D01*
X112362857Y-56485746D02*
X112241905Y-56606699D01*
X112241905Y-56606699D02*
X112120952Y-56667175D01*
X102788333Y-90528365D02*
X102727857Y-90588842D01*
X102727857Y-90588842D02*
X102546428Y-90649318D01*
X102546428Y-90649318D02*
X102425476Y-90649318D01*
X102425476Y-90649318D02*
X102244047Y-90588842D01*
X102244047Y-90588842D02*
X102123095Y-90467889D01*
X102123095Y-90467889D02*
X102062618Y-90346937D01*
X102062618Y-90346937D02*
X102002142Y-90105032D01*
X102002142Y-90105032D02*
X102002142Y-89923603D01*
X102002142Y-89923603D02*
X102062618Y-89681699D01*
X102062618Y-89681699D02*
X102123095Y-89560746D01*
X102123095Y-89560746D02*
X102244047Y-89439794D01*
X102244047Y-89439794D02*
X102425476Y-89379318D01*
X102425476Y-89379318D02*
X102546428Y-89379318D01*
X102546428Y-89379318D02*
X102727857Y-89439794D01*
X102727857Y-89439794D02*
X102788333Y-89500270D01*
X103514047Y-89923603D02*
X103393095Y-89863127D01*
X103393095Y-89863127D02*
X103332618Y-89802651D01*
X103332618Y-89802651D02*
X103272142Y-89681699D01*
X103272142Y-89681699D02*
X103272142Y-89621222D01*
X103272142Y-89621222D02*
X103332618Y-89500270D01*
X103332618Y-89500270D02*
X103393095Y-89439794D01*
X103393095Y-89439794D02*
X103514047Y-89379318D01*
X103514047Y-89379318D02*
X103755952Y-89379318D01*
X103755952Y-89379318D02*
X103876904Y-89439794D01*
X103876904Y-89439794D02*
X103937380Y-89500270D01*
X103937380Y-89500270D02*
X103997857Y-89621222D01*
X103997857Y-89621222D02*
X103997857Y-89681699D01*
X103997857Y-89681699D02*
X103937380Y-89802651D01*
X103937380Y-89802651D02*
X103876904Y-89863127D01*
X103876904Y-89863127D02*
X103755952Y-89923603D01*
X103755952Y-89923603D02*
X103514047Y-89923603D01*
X103514047Y-89923603D02*
X103393095Y-89984080D01*
X103393095Y-89984080D02*
X103332618Y-90044556D01*
X103332618Y-90044556D02*
X103272142Y-90165508D01*
X103272142Y-90165508D02*
X103272142Y-90407413D01*
X103272142Y-90407413D02*
X103332618Y-90528365D01*
X103332618Y-90528365D02*
X103393095Y-90588842D01*
X103393095Y-90588842D02*
X103514047Y-90649318D01*
X103514047Y-90649318D02*
X103755952Y-90649318D01*
X103755952Y-90649318D02*
X103876904Y-90588842D01*
X103876904Y-90588842D02*
X103937380Y-90528365D01*
X103937380Y-90528365D02*
X103997857Y-90407413D01*
X103997857Y-90407413D02*
X103997857Y-90165508D01*
X103997857Y-90165508D02*
X103937380Y-90044556D01*
X103937380Y-90044556D02*
X103876904Y-89984080D01*
X103876904Y-89984080D02*
X103755952Y-89923603D01*
X106760237Y-88074318D02*
X106760237Y-86804318D01*
X108090714Y-87953365D02*
X108030238Y-88013842D01*
X108030238Y-88013842D02*
X107848809Y-88074318D01*
X107848809Y-88074318D02*
X107727857Y-88074318D01*
X107727857Y-88074318D02*
X107546428Y-88013842D01*
X107546428Y-88013842D02*
X107425476Y-87892889D01*
X107425476Y-87892889D02*
X107364999Y-87771937D01*
X107364999Y-87771937D02*
X107304523Y-87530032D01*
X107304523Y-87530032D02*
X107304523Y-87348603D01*
X107304523Y-87348603D02*
X107364999Y-87106699D01*
X107364999Y-87106699D02*
X107425476Y-86985746D01*
X107425476Y-86985746D02*
X107546428Y-86864794D01*
X107546428Y-86864794D02*
X107727857Y-86804318D01*
X107727857Y-86804318D02*
X107848809Y-86804318D01*
X107848809Y-86804318D02*
X108030238Y-86864794D01*
X108030238Y-86864794D02*
X108090714Y-86925270D01*
X109179285Y-87227651D02*
X109179285Y-88074318D01*
X108876904Y-86743842D02*
X108574523Y-87650984D01*
X108574523Y-87650984D02*
X109360714Y-87650984D01*
D12*
X143880000Y-96250000D02*
X143880000Y-96650000D01*
X143880000Y-96650000D02*
X144250000Y-96650000D01*
D13*
X145370000Y-93350000D02*
X145370000Y-93350000D01*
X145370000Y-93450000D02*
X145370000Y-93450000D01*
D12*
X153420000Y-96250000D02*
X153420000Y-96650000D01*
X153420000Y-96650000D02*
X153050000Y-96650000D01*
D13*
X145370000Y-93350000D02*
G75*
G02*
X145370000Y-93450000I0J-50000D01*
G01*
X145370000Y-93450000D02*
G75*
G02*
X145370000Y-93350000I0J50000D01*
G01*
D12*
X126000000Y-70600000D02*
X126000000Y-70600000D01*
X126000000Y-70400000D02*
X126000000Y-70400000D01*
X126000000Y-70600000D02*
G75*
G02*
X126000000Y-70400000I0J100000D01*
G01*
X126000000Y-70400000D02*
G75*
G02*
X126000000Y-70600000I0J-100000D01*
G01*
X121475000Y-66600000D02*
G75*
G02*
X121475000Y-66400000I0J100000D01*
G01*
X121475000Y-66400000D02*
G75*
G02*
X121475000Y-66600000I0J-100000D01*
G01*
X121475000Y-66600000D02*
X121475000Y-66600000D01*
X121475000Y-66400000D02*
X121475000Y-66400000D01*
X152050000Y-61200000D02*
X152050000Y-59800000D01*
X128300000Y-54500000D02*
X129700000Y-54500000D01*
X122300000Y-75000000D02*
X123700000Y-75000000D01*
X109500000Y-60800000D02*
X109500000Y-62200000D01*
X131000000Y-61800000D02*
X131000000Y-63200000D01*
D13*
X110535000Y-97856500D02*
X115465000Y-97856500D01*
X110535000Y-103036500D02*
X110535000Y-97856500D01*
X115465000Y-97856500D02*
X115465000Y-103036500D01*
X115465000Y-103036500D02*
X110535000Y-103036500D01*
D12*
X121200000Y-94500000D02*
X119800000Y-94500000D01*
X107694000Y-63615000D02*
X115874000Y-63615000D01*
X107694000Y-63690000D02*
X100964000Y-63690000D01*
X107694000Y-66230000D02*
X100964000Y-66230000D01*
X107694000Y-68770000D02*
X100964000Y-68770000D01*
X107694000Y-71310000D02*
X100964000Y-71310000D01*
X107694000Y-71385000D02*
X107694000Y-63615000D01*
X118924000Y-71385000D02*
X107694000Y-71385000D01*
X132000000Y-81300000D02*
X132000000Y-82700000D01*
X137850000Y-53480000D02*
X140150000Y-53480000D01*
X137850000Y-57520000D02*
X137850000Y-53480000D01*
X140150000Y-53480000D02*
X140150000Y-57520000D01*
X140150000Y-57520000D02*
X137850000Y-57520000D01*
X141925000Y-57750000D02*
X140500000Y-57750000D01*
X101900000Y-74700000D02*
X101900000Y-74700000D01*
X101900000Y-74900000D02*
X101900000Y-74900000D01*
X101900000Y-74700000D02*
G75*
G02*
X101900000Y-74900000I0J-100000D01*
G01*
X101900000Y-74900000D02*
G75*
G02*
X101900000Y-74700000I0J100000D01*
G01*
X114025000Y-76515000D02*
X115550000Y-76515000D01*
X115900000Y-76675000D02*
X119100000Y-76675000D01*
X115900000Y-85325000D02*
X115900000Y-76675000D01*
X119100000Y-76675000D02*
X119100000Y-85325000D01*
X119100000Y-85325000D02*
X115900000Y-85325000D01*
X143500000Y-60800000D02*
X143500000Y-62200000D01*
X153200000Y-52300000D02*
X156700000Y-52300000D01*
X153200000Y-54200000D02*
X153200000Y-52300000D01*
X153200000Y-55800000D02*
X153200000Y-57700000D01*
X153200000Y-57700000D02*
X156700000Y-57700000D01*
X156700000Y-56000000D02*
X156700000Y-54000000D01*
D13*
X157950000Y-56800000D02*
X157950000Y-56800000D01*
X158050000Y-56800000D02*
X158050000Y-56800000D01*
X157950000Y-56800000D02*
G75*
G02*
X158050000Y-56800000I50000J0D01*
G01*
X158050000Y-56800000D02*
G75*
G02*
X157950000Y-56800000I-50000J0D01*
G01*
D12*
X124615000Y-96806000D02*
X124615000Y-88626000D01*
X124690000Y-96806000D02*
X124690000Y-103536000D01*
X127230000Y-96806000D02*
X127230000Y-103536000D01*
X129770000Y-96806000D02*
X129770000Y-103536000D01*
X132310000Y-96806000D02*
X132310000Y-103536000D01*
X132385000Y-85576000D02*
X132385000Y-96806000D01*
X132385000Y-96806000D02*
X124615000Y-96806000D01*
D13*
X136800000Y-64740000D02*
X136800000Y-90140000D01*
X136800000Y-90140000D02*
X162200000Y-90140000D01*
D12*
X151800000Y-91160000D02*
X151800000Y-91160000D01*
X152000000Y-91160000D02*
X152000000Y-91160000D01*
D13*
X162200000Y-64740000D02*
X136800000Y-64740000D01*
X162200000Y-90140000D02*
X162200000Y-64740000D01*
D12*
X151800000Y-91160000D02*
G75*
G02*
X152000000Y-91160000I100000J0D01*
G01*
X152000000Y-91160000D02*
G75*
G02*
X151800000Y-91160000I-100000J0D01*
G01*
D13*
X101820000Y-53305000D02*
X107000000Y-53305000D01*
X101820000Y-58235000D02*
X101820000Y-53305000D01*
X107000000Y-53305000D02*
X107000000Y-58235000D01*
X107000000Y-58235000D02*
X101820000Y-58235000D01*
D12*
X137000000Y-60300000D02*
X137000000Y-61700000D01*
D13*
X131000000Y-66690000D02*
X131000000Y-66690000D01*
X131000000Y-66790000D02*
X131000000Y-66790000D01*
X131000000Y-66690000D02*
G75*
G02*
X131000000Y-66790000I0J-50000D01*
G01*
X131000000Y-66790000D02*
G75*
G02*
X131000000Y-66690000I0J50000D01*
G01*
D12*
X115500000Y-90200000D02*
X115500000Y-88800000D01*
X145200000Y-52300000D02*
X148700000Y-52300000D01*
X145200000Y-54200000D02*
X145200000Y-52300000D01*
X145200000Y-55800000D02*
X145200000Y-57700000D01*
X145200000Y-57700000D02*
X148700000Y-57700000D01*
X148700000Y-56000000D02*
X148700000Y-54000000D01*
D13*
X149950000Y-56800000D02*
X149950000Y-56800000D01*
X150050000Y-56800000D02*
X150050000Y-56800000D01*
X149950000Y-56800000D02*
G75*
G02*
X150050000Y-56800000I50000J0D01*
G01*
X150050000Y-56800000D02*
G75*
G02*
X149950000Y-56800000I-50000J0D01*
G01*
D12*
X132550000Y-77200000D02*
X132550000Y-75800000D01*
X113900000Y-53585000D02*
X115450000Y-53585000D01*
X115800000Y-53190000D02*
X122200000Y-53190000D01*
X115800000Y-60810000D02*
X115800000Y-53190000D01*
X122200000Y-53190000D02*
X122200000Y-60810000D01*
X122200000Y-60810000D02*
X115800000Y-60810000D01*
X105550000Y-85825000D02*
X110450000Y-85825000D01*
X105550000Y-89175000D02*
X105550000Y-85825000D01*
X110450000Y-85825000D02*
X110450000Y-89175000D01*
X110450000Y-89175000D02*
X105550000Y-89175000D01*
X110605000Y-83975000D02*
X110605000Y-85475000D01*
M02*
