G04 #@! TF.GenerationSoftware,KiCad,Pcbnew,8.0.2*
G04 #@! TF.CreationDate,2024-06-27T15:57:24+02:00*
G04 #@! TF.ProjectId,AMS Dongle,414d5320-446f-46e6-976c-652e6b696361,rev?*
G04 #@! TF.SameCoordinates,Original*
G04 #@! TF.FileFunction,Soldermask,Top*
G04 #@! TF.FilePolarity,Negative*
%FSLAX46Y46*%
G04 Gerber Fmt 4.6, Leading zero omitted, Abs format (unit mm)*
G04 Created by KiCad (PCBNEW 8.0.2) date 2024-06-27 15:57:24*
%MOMM*%
%LPD*%
G01*
G04 APERTURE LIST*
%ADD10R,0.650000X0.800000*%
%ADD11R,0.300000X0.800000*%
%ADD12C,0.600000*%
%ADD13C,1.500000*%
%ADD14R,0.950000X1.450000*%
%ADD15R,1.050000X1.800000*%
%ADD16R,1.470000X1.070000*%
%ADD17C,2.700000*%
%ADD18R,1.800000X1.050000*%
%ADD19C,1.785000*%
%ADD20R,1.070000X1.470000*%
%ADD21R,1.725000X1.725000*%
%ADD22C,1.725000*%
%ADD23R,1.425000X0.300000*%
%ADD24R,2.000000X1.800000*%
%ADD25R,1.525000X0.650000*%
%ADD26R,1.300000X1.000000*%
%ADD27C,1.800000*%
%ADD28R,0.250000X0.620000*%
%ADD29R,0.620000X0.300000*%
%ADD30R,1.550000X1.050000*%
%ADD31R,0.700000X1.500000*%
%ADD32R,1.700000X1.700000*%
%ADD33O,1.700000X1.700000*%
G04 APERTURE END LIST*
D10*
X145370000Y-94850000D03*
X146220000Y-94850000D03*
D11*
X147400000Y-94850000D03*
X148400000Y-94850000D03*
X148900000Y-94850000D03*
X149900000Y-94850000D03*
D10*
X151080000Y-94850000D03*
X151930000Y-94850000D03*
D11*
X150400000Y-94850000D03*
X149400000Y-94850000D03*
X147900000Y-94850000D03*
X146900000Y-94850000D03*
D12*
X144530000Y-94800000D03*
X152770000Y-94800000D03*
D13*
X143000000Y-95100000D03*
X154300000Y-95100000D03*
X143000000Y-99100000D03*
X154300000Y-99100000D03*
D14*
X124975000Y-70500000D03*
X123025000Y-70500000D03*
D15*
X125050000Y-66500000D03*
X122500000Y-66500000D03*
D16*
X120500000Y-89820000D03*
X120500000Y-88180000D03*
X131500000Y-58820000D03*
X131500000Y-57180000D03*
D17*
X161500000Y-47500000D03*
D15*
X153600000Y-60500000D03*
X150500000Y-60500000D03*
D18*
X129000000Y-56050000D03*
X129000000Y-52950000D03*
X123000000Y-76550000D03*
X123000000Y-73450000D03*
D15*
X107950000Y-61500000D03*
X111050000Y-61500000D03*
X129450000Y-62500000D03*
X132550000Y-62500000D03*
D19*
X111730000Y-94856500D03*
X114270000Y-94856500D03*
D18*
X120500000Y-92950000D03*
X120500000Y-96050000D03*
D20*
X139680000Y-52000000D03*
X141320000Y-52000000D03*
D21*
X118924000Y-71310000D03*
D22*
X118924000Y-68770000D03*
X118924000Y-66230000D03*
X118924000Y-63690000D03*
D15*
X130450000Y-82000000D03*
X133550000Y-82000000D03*
D23*
X141212000Y-57250000D03*
X141212000Y-56750000D03*
X141212000Y-56250000D03*
X141212000Y-55750000D03*
X141212000Y-55250000D03*
X141212000Y-54750000D03*
X141212000Y-54250000D03*
X141212000Y-53750000D03*
X136788000Y-53750000D03*
X136788000Y-54250000D03*
X136788000Y-54750000D03*
X136788000Y-55250000D03*
X136788000Y-55750000D03*
X136788000Y-56250000D03*
X136788000Y-56750000D03*
X136788000Y-57250000D03*
D20*
X126180000Y-58000000D03*
X127820000Y-58000000D03*
D16*
X111500000Y-78320000D03*
X111500000Y-76680000D03*
D24*
X103400000Y-74960000D03*
X103400000Y-80040000D03*
X107600000Y-80040000D03*
X107600000Y-74960000D03*
D17*
X103500000Y-96500000D03*
D25*
X114788000Y-77190000D03*
X114788000Y-78460000D03*
X114788000Y-79730000D03*
X114788000Y-81000000D03*
X114788000Y-82270000D03*
X114788000Y-83540000D03*
X114788000Y-84810000D03*
X120212000Y-84810000D03*
X120212000Y-83540000D03*
X120212000Y-82270000D03*
X120212000Y-81000000D03*
X120212000Y-79730000D03*
X120212000Y-78460000D03*
X120212000Y-77190000D03*
D15*
X141950000Y-61500000D03*
X145050000Y-61500000D03*
D17*
X103500000Y-47500000D03*
D26*
X156900000Y-56750000D03*
X153000000Y-55000000D03*
X156900000Y-53250000D03*
D20*
X133680000Y-52000000D03*
X135320000Y-52000000D03*
D21*
X132310000Y-85576000D03*
D22*
X129770000Y-85576000D03*
X127230000Y-85576000D03*
X124690000Y-85576000D03*
D27*
X152000000Y-87560000D03*
X146920000Y-87560000D03*
X159620000Y-67240000D03*
X149460000Y-67240000D03*
X139300000Y-67240000D03*
X139300000Y-87560000D03*
D19*
X110000000Y-54500000D03*
X110000000Y-57040000D03*
D15*
X135450000Y-61000000D03*
X138550000Y-61000000D03*
D28*
X131000000Y-67600000D03*
X130500000Y-67600000D03*
X130000000Y-67600000D03*
X129500000Y-67600000D03*
D29*
X129385000Y-68290000D03*
D28*
X129500000Y-68980000D03*
X130000000Y-68980000D03*
X130500000Y-68980000D03*
X131000000Y-68980000D03*
D29*
X131115000Y-68290000D03*
D17*
X161500000Y-96500000D03*
D20*
X114180000Y-74000000D03*
X115820000Y-74000000D03*
D15*
X117050000Y-89500000D03*
X113950000Y-89500000D03*
D26*
X148900000Y-56750000D03*
X145000000Y-55000000D03*
X148900000Y-53250000D03*
D15*
X134100000Y-76500000D03*
X131000000Y-76500000D03*
D16*
X134000000Y-73820000D03*
X134000000Y-72180000D03*
D30*
X114675000Y-54460000D03*
X114675000Y-57000000D03*
X114675000Y-59540000D03*
X123325000Y-59540000D03*
X123325000Y-57000000D03*
X123325000Y-54460000D03*
D16*
X103000000Y-88357500D03*
X103000000Y-86717500D03*
D31*
X109905000Y-84725000D03*
X108635000Y-84725000D03*
X107365000Y-84725000D03*
X106095000Y-84725000D03*
X106095000Y-90275000D03*
X107365000Y-90275000D03*
X108635000Y-90275000D03*
X109905000Y-90275000D03*
D32*
X108370000Y-48770000D03*
D33*
X108370000Y-46230000D03*
X110910000Y-48770000D03*
X110910000Y-46230000D03*
X113450000Y-48770000D03*
X113450000Y-46230000D03*
X115990000Y-48770000D03*
X115990000Y-46230000D03*
X118530000Y-48770000D03*
X118530000Y-46230000D03*
X121070000Y-48770000D03*
X121070000Y-46230000D03*
X123610000Y-48770000D03*
X123610000Y-46230000D03*
X126150000Y-48770000D03*
X126150000Y-46230000D03*
X128690000Y-48770000D03*
X128690000Y-46230000D03*
X131230000Y-48770000D03*
X131230000Y-46230000D03*
X133770000Y-48770000D03*
X133770000Y-46230000D03*
X136310000Y-48770000D03*
X136310000Y-46230000D03*
X138850000Y-48770000D03*
X138850000Y-46230000D03*
X141390000Y-48770000D03*
X141390000Y-46230000D03*
X143930000Y-48770000D03*
X143930000Y-46230000D03*
X146470000Y-48770000D03*
X146470000Y-46230000D03*
X149010000Y-48770000D03*
X149010000Y-46230000D03*
X151550000Y-48770000D03*
X151550000Y-46230000D03*
X154090000Y-48770000D03*
X154090000Y-46230000D03*
X156630000Y-48770000D03*
X156630000Y-46230000D03*
M02*
