<?xml version="1.0" encoding="utf-8" ?><!DOCTYPE svg PUBLIC "-//W3C//DTD SVG 1.1//EN" "http://www.w3.org/Graphics/SVG/1.1/DTD/svg11.dtd" 
[ <!ATTLIST svg 
  xmlns:dsy CDATA #FIXED "http://www.3ds.com/print"  
    dsy:text-version CDATA #IMPLIED > 

  <!ATTLIST text 
  xmlns:dsy CDATA #FIXED "http://www.3ds.com/print" 
    dsy:text-version CDATA #IMPLIED > 
]><svg xmlns="http://www.w3.org/2000/svg" xmlns:dsy="http://www.3ds.com/print" dsy:text-version="18000" width="297" height="210" viewBox="0 0 297 210" version="1.1"><g stroke="rgb(0, 0, 0)" stroke-width="0.35" stroke-linecap="butt" stroke-linejoin="miter" fill="none"><path d="M 183.5 49.4343 L 113.5 49.4343"/><path d="M 113.5 49.4343 L 113.5 159.434"/><path d="M 163.178 159.434 L 183.5 159.434"/><path d="M 183.5 159.434 L 183.5 79.4343"/><path d="M 183.5 79.4343 L 163.5 79.4343"/><path d="M 163.5 79.4343 L 163.5 74.5343"/><path d="M 163.5 74.5343 L 183.5 74.5343"/><path d="M 183.5 74.5343 L 183.5 49.4343"/><path d="M 135.077 157.656 L 136.211 155.39 L 136.911 154.134 L 137.716 152.694 L 138.144 151.99 L 139.3 150.301 L 140.274 148.863 L 140.778 148.157 L 142.233 146.501 L 143.656 145.179 L 145.967 142.934 L 147.376 141.652 L 148.128 141.071 L 149.322 140.301 L 150.21 139.821 L 152.033 138.945 L 153.142 138.47 L 154.552 138.041 L 155.411 137.901 L 156.679 137.838 L 157.956 137.901 L 159.113 138.091 L 159.667 138.268 L 160.237 138.539 L 160.767 138.892 L 161.7 139.779 L 162.349 140.623 L 162.889 141.523 L 163.321 142.422 L 163.7 143.357 L 164.065 144.462 L 164.311 145.879 L 164.331 146.433 L 164.311 147.545 L 164.311 149.645 L 164.078 151.99 L 163.7 153.89 L 163.444 155.901 L 163.256 157.168 L 163.136 158.614 L 163.178 159.434"/><path d="M 113.5 159.434 L 133.88 159.434"/><path d="M 135.077 157.656 A 48.036 48.036 0 0 0 133.88 159.434"/><path d="M 136.701 154.511 L 136.697 154.519"/></g></svg>