<?xml version="1.0" encoding="utf-8" ?><!DOCTYPE svg PUBLIC "-//W3C//DTD SVG 1.1//EN" "http://www.w3.org/Graphics/SVG/1.1/DTD/svg11.dtd" 
[ <!ATTLIST svg 
  xmlns:dsy CDATA #FIXED "http://www.3ds.com/print"  
    dsy:text-version CDATA #IMPLIED > 

  <!ATTLIST text 
  xmlns:dsy CDATA #FIXED "http://www.3ds.com/print" 
    dsy:text-version CDATA #IMPLIED > 
]><svg xmlns="http://www.w3.org/2000/svg" xmlns:dsy="http://www.3ds.com/print" dsy:text-version="18000" width="297" height="210" viewBox="0 0 297 210" version="1.1"><g stroke="rgb(0, 0, 0)" stroke-width="0.35" stroke-linecap="butt" stroke-linejoin="miter" fill="none"><path d="M 61.0501 125 L 71.05 125"/><path d="M 71.05 125 L 71.05 105"/><path d="M 71.05 105 L 75.95 105"/><path d="M 75.95 105 L 75.95 125"/><path d="M 75.95 125 L 235.95 125"/><path d="M 235.95 84.9999 L 235.95 125"/><path d="M 197.194 84.9999 L 235.95 84.9999"/><path d="M 197.194 105 L 197.194 84.9999"/><path d="M 192.294 105 L 197.194 105"/><path d="M 192.294 84.9999 L 192.294 105"/><path d="M 61.0501 84.9999 L 192.294 84.9999"/><path d="M 61.0501 125 L 61.0501 84.9999"/><circle cx="90.95" cy="94.9999" r="2.09973"/><circle cx="225.95" cy="94.9999" r="2.09973"/><path d="M 83.95 94.9999 L 83.95 88.9999"/><path d="M 85.95 88.9999 L 83.95 88.9999"/><path d="M 85.95 88.9999 L 85.95 94.9999"/><path d="M 83.95 94.9999 L 85.95 94.9999"/><path d="M 95.95 94.9999 L 95.95 88.9999"/><path d="M 97.95 88.9999 L 95.95 88.9999"/><path d="M 97.95 88.9999 L 97.95 94.9999"/><path d="M 95.95 94.9999 L 97.95 94.9999"/><path d="M 218.95 88.9999 L 220.95 88.9999"/><path d="M 220.95 88.9999 L 220.95 94.9999"/><path d="M 220.95 94.9999 L 218.95 94.9999"/><path d="M 218.95 94.9999 L 218.95 88.9999"/><path d="M 230.95 94.9999 L 230.95 88.9999"/><path d="M 232.95 88.9999 L 230.95 88.9999"/><path d="M 232.95 88.9999 L 232.95 94.9999"/><path d="M 230.95 94.9999 L 232.95 94.9999"/></g></svg>