<?xml version="1.0" encoding="utf-8" ?><!DOCTYPE svg PUBLIC "-//W3C//DTD SVG 1.1//EN" "http://www.w3.org/Graphics/SVG/1.1/DTD/svg11.dtd" 
[ <!ATTLIST svg 
  xmlns:dsy CDATA #FIXED "http://www.3ds.com/print"  
    dsy:text-version CDATA #IMPLIED > 

  <!ATTLIST text 
  xmlns:dsy CDATA #FIXED "http://www.3ds.com/print" 
    dsy:text-version CDATA #IMPLIED > 
]><svg xmlns="http://www.w3.org/2000/svg" xmlns:dsy="http://www.3ds.com/print" dsy:text-version="18000" width="1189" height="841" viewBox="0 0 1189 841" version="1.1"><g stroke="rgb(0, 0, 0)" stroke-width="0.35" stroke-linecap="butt" stroke-linejoin="miter" fill="none"><path d="M 548.59 306.087 L 604.468 292.748"/><path d="M 583.789 548.252 L 548.59 306.087"/><path d="M 640.41 540.022 L 583.789 548.252"/><circle cx="584.113" cy="378.588" r="2.09985"/><path d="M 608.721 322.01 L 608.603 321.193"/><path d="M 604.468 292.748 L 608.603 321.193"/><path d="M 608.603 321.193 A 14.2575 14.0005 -239.042 0 0 596.876 328.164"/><path d="M 596.876 328.164 A 14.2571 14 -239.011 0 0 608.485 349.562"/><path d="M 608.721 322.01 A 14.2577 14.0009 -239.059 0 0 596.635 328.582"/><path d="M 608.485 349.562 A 14.0443 14.0443 0 0 0 612.642 348.982"/><path d="M 612.642 348.982 L 629.289 463.511"/><path d="M 629.289 463.511 A 17.9913 14 -270.511 0 0 618.981 481.012"/><path d="M 619.088 483.029 A 23.0704 23.0704 0 0 0 619.017 485.047"/><path d="M 618.981 481.012 A 23.0702 23.0702 0 0 0 619.088 483.029"/><path d="M 635.016 502.913 L 640.41 540.022"/><path d="M 635.016 502.913 L 633.047 502.913"/><path d="M 619.088 483.029 A 17.9913 14 -270.511 0 0 633.047 502.913"/></g></svg>