%TF.GenerationSoftware,KiCad,Pcbnew,8.0.2*%
%TF.CreationDate,2024-09-03T17:09:07+02:00*%
%TF.ProjectId,AMS_IMD_Reset,414d535f-494d-4445-9f52-657365742e6b,rev?*%
%TF.SameCoordinates,Original*%
%TF.FileFunction,Copper,L2,Bot*%
%TF.FilePolarity,Positive*%
%FSLAX46Y46*%
G04 Gerber Fmt 4.6, Leading zero omitted, Abs format (unit mm)*
G04 Created by KiCad (PCBNEW 8.0.2) date 2024-09-03 17:09:07*
%MOMM*%
%LPD*%
G01*
G04 APERTURE LIST*
%TA.AperFunction,ComponentPad*%
%ADD10R,1.530000X1.530000*%
%TD*%
%TA.AperFunction,ComponentPad*%
%ADD11C,1.530000*%
%TD*%
%TA.AperFunction,ComponentPad*%
%ADD12R,1.500000X1.500000*%
%TD*%
%TA.AperFunction,ComponentPad*%
%ADD13C,1.500000*%
%TD*%
%TA.AperFunction,ComponentPad*%
%ADD14C,2.100000*%
%TD*%
%TA.AperFunction,ComponentPad*%
%ADD15C,3.400000*%
%TD*%
%TA.AperFunction,ComponentPad*%
%ADD16C,5.600000*%
%TD*%
%TA.AperFunction,ComponentPad*%
%ADD17R,1.600000X1.600000*%
%TD*%
%TA.AperFunction,ComponentPad*%
%ADD18C,1.600000*%
%TD*%
%TA.AperFunction,ComponentPad*%
%ADD19C,1.440000*%
%TD*%
%TA.AperFunction,ViaPad*%
%ADD20C,0.800000*%
%TD*%
%TA.AperFunction,Conductor*%
%ADD21C,0.600000*%
%TD*%
%TA.AperFunction,Conductor*%
%ADD22C,0.400000*%
%TD*%
%TA.AperFunction,Conductor*%
%ADD23C,0.250000*%
%TD*%
G04 APERTURE END LIST*
D10*
%TO.P,J8,1,1*%
%TO.N,GND*%
X199495000Y-116925000D03*
D11*
%TO.P,J8,2,2*%
%TO.N,Net-(J8-Pad2)*%
X202035000Y-116925000D03*
%TD*%
D10*
%TO.P,J4,1,1*%
%TO.N,GND*%
X179019200Y-113461200D03*
D11*
%TO.P,J4,2,2*%
%TO.N,/Raw_IMD_OK*%
X181559200Y-113461200D03*
%TD*%
D12*
%TO.P,K2,1,COIL1*%
%TO.N,+5V*%
X168402000Y-93675200D03*
D13*
%TO.P,K2,3,Reset_1*%
%TO.N,/SC_Closed_IMD*%
X173482000Y-93675200D03*
%TO.P,K2,4,COM_1*%
%TO.N,+5V*%
X176022000Y-93675200D03*
%TO.P,K2,5,Set_1*%
%TO.N,/Button_Input*%
X178562000Y-93675200D03*
%TO.P,K2,6,COIL2*%
%TO.N,+5V*%
X181102000Y-93675200D03*
%TO.P,K2,7,COIL2*%
%TO.N,Net-(K2-COIL2-Pad7)*%
X181102000Y-88595200D03*
%TO.P,K2,8,Set_2*%
%TO.N,GND*%
X178562000Y-88595200D03*
%TO.P,K2,9,COM_2*%
%TO.N,Net-(K2-COM_2)*%
X176022000Y-88595200D03*
%TO.P,K2,10,Reset_2*%
%TO.N,Net-(K2-Reset_2)*%
X173482000Y-88595200D03*
%TO.P,K2,12,COIL1*%
%TO.N,Net-(K2-COIL1-Pad12)*%
X168402000Y-88595200D03*
%TD*%
D10*
%TO.P,J5,1,1*%
%TO.N,GND*%
X185800000Y-113600000D03*
D11*
%TO.P,J5,2,2*%
%TO.N,/Raw_AMS_OK*%
X188340000Y-113600000D03*
%TD*%
D14*
%TO.P,K3,1*%
%TO.N,Net-(K3-Pad1)*%
X156850500Y-103686400D03*
D15*
%TO.P,K3,2*%
%TO.N,Net-(K1-Pad2)*%
X159550500Y-99186400D03*
%TO.P,K3,3*%
%TO.N,unconnected-(K3-Pad3)*%
X153850500Y-93786400D03*
%TO.P,K3,4*%
%TO.N,/SC out*%
X148850500Y-99186400D03*
D14*
%TO.P,K3,5*%
%TO.N,+12V*%
X150850500Y-103686400D03*
%TD*%
D10*
%TO.P,J7,1,1*%
%TO.N,/Raw_Button_Output*%
X184962800Y-70866000D03*
D11*
%TO.P,J7,2,2*%
%TO.N,/Button_Input*%
X184962800Y-73406000D03*
%TO.P,J7,3,3*%
%TO.N,/Button_Input_SCS*%
X184962800Y-75946000D03*
%TO.P,J7,4,4*%
%TO.N,GND*%
X184962800Y-78486000D03*
%TD*%
D14*
%TO.P,K1,1*%
%TO.N,Net-(K1-Pad1)*%
X156900000Y-87100000D03*
D15*
%TO.P,K1,2*%
%TO.N,Net-(K1-Pad2)*%
X159600000Y-82600000D03*
%TO.P,K1,3*%
%TO.N,unconnected-(K1-Pad3)*%
X153900000Y-77200000D03*
%TO.P,K1,4*%
%TO.N,/SC in*%
X148900000Y-82600000D03*
D14*
%TO.P,K1,5*%
%TO.N,+12V*%
X150900000Y-87100000D03*
%TD*%
D12*
%TO.P,K4,1,COIL1*%
%TO.N,Net-(K4-COIL1-Pad1)*%
X198018400Y-88595200D03*
D13*
%TO.P,K4,3,Reset_1*%
%TO.N,Net-(K4-Reset_1)*%
X192938400Y-88595200D03*
%TO.P,K4,4,COM_1*%
%TO.N,Net-(K4-COM_1)*%
X190398400Y-88595200D03*
%TO.P,K4,5,Set_1*%
%TO.N,GND*%
X187858400Y-88595200D03*
%TO.P,K4,6,COIL2*%
%TO.N,Net-(K4-COIL2-Pad6)*%
X185318400Y-88595200D03*
%TO.P,K4,7,COIL2*%
%TO.N,+5V*%
X185318400Y-93675200D03*
%TO.P,K4,8,Set_2*%
%TO.N,/Button_Input*%
X187858400Y-93675200D03*
%TO.P,K4,9,COM_2*%
%TO.N,+5V*%
X190398400Y-93675200D03*
%TO.P,K4,10,Reset_2*%
%TO.N,/SC_Closed_AMS*%
X192938400Y-93675200D03*
%TO.P,K4,12,COIL1*%
%TO.N,+5V*%
X198018400Y-93675200D03*
%TD*%
D16*
%TO.P,,1*%
%TO.N,N/C*%
X199000000Y-70600000D03*
%TD*%
D10*
%TO.P,J6,1,1*%
%TO.N,Net-(J6-Pad1)*%
X146895000Y-117275000D03*
D11*
%TO.P,J6,2,2*%
%TO.N,GND*%
X149435000Y-117275000D03*
%TD*%
D16*
%TO.P,,1*%
%TO.N,N/C*%
X160000000Y-70500000D03*
%TD*%
%TO.P,,1*%
%TO.N,N/C*%
X194000000Y-117400000D03*
%TD*%
D17*
%TO.P,C1,1*%
%TO.N,GND*%
X160680400Y-110007400D03*
D18*
%TO.P,C1,2*%
%TO.N,+12V*%
X162680400Y-110007400D03*
%TD*%
D10*
%TO.P,J2,1,1*%
%TO.N,GND*%
X150000000Y-69600000D03*
D11*
%TO.P,J2,2,2*%
%TO.N,/SC in*%
X150000000Y-72140000D03*
%TD*%
D10*
%TO.P,J1,1,1*%
%TO.N,GND*%
X160800000Y-117125000D03*
D11*
%TO.P,J1,2,2*%
%TO.N,+12V*%
X163340000Y-117125000D03*
%TD*%
D16*
%TO.P,,1*%
%TO.N,N/C*%
X155000000Y-117000000D03*
%TD*%
D10*
%TO.P,J3,1,1*%
%TO.N,GND*%
X148400000Y-108200000D03*
D11*
%TO.P,J3,2,2*%
%TO.N,/SC out*%
X148400000Y-110740000D03*
%TD*%
D19*
%TO.P,U1,1,+VIN*%
%TO.N,+12V*%
X172262800Y-112776000D03*
%TO.P,U1,2,GND*%
%TO.N,GND*%
X172262800Y-110236000D03*
%TO.P,U1,3,+VOUT*%
%TO.N,+5V*%
X172262800Y-107696000D03*
%TD*%
D20*
%TO.N,GND*%
X195000000Y-95000000D03*
X169500000Y-82500000D03*
X195000000Y-105500000D03*
X176184856Y-100978748D03*
X187500000Y-107000000D03*
X178500000Y-68000000D03*
X184000000Y-97500000D03*
X191500000Y-70500000D03*
X196000000Y-87000000D03*
X165606044Y-97790901D03*
X200500000Y-104000000D03*
X152500000Y-111000000D03*
%TO.N,+5V*%
X174000000Y-95500000D03*
X179000000Y-77500000D03*
%TO.N,Net-(G3-Pad4)*%
X183286400Y-90271600D03*
X185623200Y-90982800D03*
%TO.N,/0.75V*%
X195173600Y-103479600D03*
X182829200Y-99440400D03*
X173177200Y-80060800D03*
%TO.N,/4.25V*%
X175818800Y-85801200D03*
X183286400Y-101092000D03*
X190042800Y-103581200D03*
%TO.N,/SC_Closed_IMD*%
X170500000Y-96500000D03*
X162800000Y-101800000D03*
%TO.N,/SC_Closed_AMS*%
X201500000Y-91500000D03*
%TO.N,Net-(K3-Pad1)*%
X199237600Y-99060000D03*
%TO.N,Net-(Q6-Pad1)*%
X203000000Y-84000000D03*
X195500000Y-96500000D03*
%TD*%
D21*
%TO.N,+12V*%
X162680400Y-109280400D02*
X162680400Y-110007400D01*
X151200000Y-103336900D02*
X150850500Y-103686400D01*
X169494200Y-110007400D02*
X162680400Y-110007400D01*
X151200000Y-87400000D02*
X151200000Y-103336900D01*
X163340000Y-114281600D02*
X163340000Y-117125000D01*
X162680400Y-110007400D02*
X162680400Y-113622000D01*
X150900000Y-87100000D02*
X151200000Y-87400000D01*
X160800000Y-107400000D02*
X162680400Y-109280400D01*
X154564100Y-107400000D02*
X160800000Y-107400000D01*
X150850500Y-103686400D02*
X154564100Y-107400000D01*
X172262800Y-112776000D02*
X169494200Y-110007400D01*
X162680400Y-113622000D02*
X163340000Y-114281600D01*
D22*
%TO.N,+5V*%
X174000000Y-77500000D02*
X171000000Y-80500000D01*
X195193429Y-93675200D02*
X198018400Y-93675200D01*
X168402000Y-93675200D02*
X170226800Y-95500000D01*
X193868629Y-95000000D02*
X195193429Y-93675200D01*
X190398400Y-93675200D02*
X191723200Y-95000000D01*
X179000000Y-77500000D02*
X174000000Y-77500000D01*
X171000000Y-80500000D02*
X171000000Y-91077200D01*
X170226800Y-95500000D02*
X174000000Y-95500000D01*
X191723200Y-95000000D02*
X193868629Y-95000000D01*
X171000000Y-91077200D02*
X168402000Y-93675200D01*
D23*
%TO.N,Net-(G3-Pad4)*%
X185623200Y-90982800D02*
X183997600Y-90982800D01*
X183997600Y-90982800D02*
X183286400Y-90271600D01*
%TO.N,/0.75V*%
X188722000Y-99466400D02*
X192735200Y-103479600D01*
X182829200Y-99440400D02*
X182855200Y-99466400D01*
X177317400Y-85217000D02*
X177317400Y-94361000D01*
X173177200Y-80060800D02*
X173177200Y-81076800D01*
X177317400Y-94361000D02*
X182396800Y-99440400D01*
X173177200Y-81076800D02*
X177317400Y-85217000D01*
X192735200Y-103479600D02*
X195173600Y-103479600D01*
X182396800Y-99440400D02*
X182829200Y-99440400D01*
X182855200Y-99466400D02*
X188722000Y-99466400D01*
%TO.N,/4.25V*%
X185775600Y-103581200D02*
X183286400Y-101092000D01*
X174777400Y-94310200D02*
X181559200Y-101092000D01*
X190042800Y-103581200D02*
X185775600Y-103581200D01*
X181559200Y-101092000D02*
X183286400Y-101092000D01*
X174777400Y-86842600D02*
X174777400Y-94310200D01*
X175818800Y-85801200D02*
X174777400Y-86842600D01*
%TO.N,/Button_Input*%
X186588400Y-92405200D02*
X186588400Y-75031600D01*
X178562000Y-93675200D02*
X179832000Y-92405200D01*
X186783400Y-92600200D02*
X186588400Y-92405200D01*
X186588400Y-75031600D02*
X184962800Y-73406000D01*
X179832000Y-92405200D02*
X186588400Y-92405200D01*
X186783400Y-92600200D02*
X187858400Y-93675200D01*
%TO.N,/SC_Closed_IMD*%
X162800000Y-101800000D02*
X162800000Y-101600000D01*
X170500000Y-96500000D02*
X165200000Y-101800000D01*
X165200000Y-101800000D02*
X162800000Y-101800000D01*
D22*
%TO.N,/SC_Closed_AMS*%
X195113600Y-91500000D02*
X192938400Y-93675200D01*
X201500000Y-91500000D02*
X195113600Y-91500000D01*
D21*
%TO.N,Net-(K1-Pad2)*%
X159550500Y-99186400D02*
X159550500Y-82649500D01*
D23*
X159550500Y-82649500D02*
X159600000Y-82600000D01*
%TO.N,Net-(K3-Pad1)*%
X157536300Y-104372200D02*
X196313000Y-104372200D01*
X156850500Y-103686400D02*
X157536300Y-104372200D01*
X199237600Y-101447600D02*
X199237600Y-99060000D01*
X196313000Y-104372200D02*
X199237600Y-101447600D01*
%TO.N,Net-(Q6-Pad1)*%
X203000000Y-91500000D02*
X203000000Y-84000000D01*
X198000000Y-96500000D02*
X203000000Y-91500000D01*
X195500000Y-96500000D02*
X198000000Y-96500000D01*
%TD*%
%TA.AperFunction,Conductor*%
%TO.N,GND*%
G36*
X204463439Y-66770885D02*
G01*
X204509194Y-66823689D01*
X204520400Y-66875200D01*
X204520400Y-121084800D01*
X204500715Y-121151839D01*
X204447911Y-121197594D01*
X204396400Y-121208800D01*
X144536200Y-121208800D01*
X144469161Y-121189115D01*
X144423406Y-121136311D01*
X144412200Y-121084800D01*
X144412200Y-116461345D01*
X145621500Y-116461345D01*
X145621500Y-118088654D01*
X145628011Y-118149202D01*
X145628011Y-118149204D01*
X145658930Y-118232098D01*
X145679111Y-118286204D01*
X145766739Y-118403261D01*
X145883796Y-118490889D01*
X146020799Y-118541989D01*
X146047244Y-118544832D01*
X146081345Y-118548499D01*
X146081362Y-118548500D01*
X147708638Y-118548500D01*
X147708654Y-118548499D01*
X147735692Y-118545591D01*
X147769201Y-118541989D01*
X147906204Y-118490889D01*
X148023261Y-118403261D01*
X148110889Y-118286204D01*
X148161989Y-118149201D01*
X148165959Y-118112274D01*
X148168499Y-118088654D01*
X148168500Y-118088637D01*
X148168500Y-118064989D01*
X148188185Y-117997950D01*
X148240989Y-117952195D01*
X148310147Y-117942251D01*
X148373703Y-117971276D01*
X148377049Y-117974987D01*
X148381105Y-117975342D01*
X148943871Y-117412575D01*
X148959755Y-117471853D01*
X149026898Y-117588147D01*
X149121853Y-117683102D01*
X149238147Y-117750245D01*
X149297424Y-117766128D01*
X148734656Y-118328894D01*
X148800083Y-118374706D01*
X148800085Y-118374707D01*
X149000690Y-118468250D01*
X149000699Y-118468254D01*
X149214490Y-118525538D01*
X149214500Y-118525540D01*
X149434999Y-118544832D01*
X149435001Y-118544832D01*
X149655499Y-118525540D01*
X149655509Y-118525538D01*
X149869300Y-118468254D01*
X149869309Y-118468250D01*
X150069915Y-118374706D01*
X150135342Y-118328894D01*
X149572575Y-117766127D01*
X149631853Y-117750245D01*
X149748147Y-117683102D01*
X149843102Y-117588147D01*
X149910245Y-117471853D01*
X149926127Y-117412575D01*
X150488894Y-117975342D01*
X150534706Y-117909915D01*
X150628250Y-117709309D01*
X150628254Y-117709300D01*
X150685538Y-117495509D01*
X150685540Y-117495499D01*
X150704832Y-117275000D01*
X150704832Y-117274999D01*
X150685540Y-117054500D01*
X150685538Y-117054490D01*
X150670937Y-116999997D01*
X151686641Y-116999997D01*
X151686641Y-117000002D01*
X151706063Y-117358234D01*
X151744868Y-117594931D01*
X151763617Y-117709300D01*
X151764106Y-117712279D01*
X151764107Y-117712282D01*
X151860082Y-118057955D01*
X151860083Y-118057957D01*
X151992872Y-118391233D01*
X151992881Y-118391251D01*
X152160928Y-118708220D01*
X152160929Y-118708223D01*
X152362256Y-119005157D01*
X152362264Y-119005167D01*
X152594508Y-119278586D01*
X152594516Y-119278595D01*
X152854977Y-119525317D01*
X153140586Y-119742431D01*
X153447995Y-119927393D01*
X153447997Y-119927394D01*
X153447999Y-119927395D01*
X153448003Y-119927397D01*
X153773588Y-120078028D01*
X153773599Y-120078033D01*
X154113583Y-120192587D01*
X154463958Y-120269711D01*
X154820618Y-120308500D01*
X154820624Y-120308500D01*
X155179376Y-120308500D01*
X155179382Y-120308500D01*
X155536042Y-120269711D01*
X155886417Y-120192587D01*
X156226401Y-120078033D01*
X156552005Y-119927393D01*
X156859414Y-119742431D01*
X157145023Y-119525317D01*
X157405484Y-119278595D01*
X157637742Y-119005159D01*
X157782781Y-118791243D01*
X157839070Y-118708223D01*
X157839070Y-118708221D01*
X157839075Y-118708215D01*
X158007123Y-118391243D01*
X158139915Y-118057961D01*
X158142907Y-118047187D01*
X158182583Y-117904284D01*
X158235895Y-117712274D01*
X158293936Y-117358237D01*
X158313359Y-117000000D01*
X158304721Y-116840690D01*
X158296428Y-116687720D01*
X158293936Y-116641763D01*
X158235895Y-116287726D01*
X158188746Y-116117913D01*
X158139917Y-115942044D01*
X158139916Y-115942042D01*
X158130299Y-115917906D01*
X158084441Y-115802809D01*
X158007127Y-115608766D01*
X158007118Y-115608748D01*
X157893712Y-115394842D01*
X157839075Y-115291785D01*
X157839071Y-115291779D01*
X157839070Y-115291776D01*
X157637743Y-114994842D01*
X157637735Y-114994832D01*
X157405491Y-114721413D01*
X157405486Y-114721407D01*
X157404151Y-114720142D01*
X157145023Y-114474683D01*
X157145016Y-114474677D01*
X157145013Y-114474675D01*
X157037135Y-114392669D01*
X156859414Y-114257569D01*
X156552005Y-114072607D01*
X156552004Y-114072606D01*
X156552000Y-114072604D01*
X156551996Y-114072602D01*
X156226411Y-113921971D01*
X156226406Y-113921969D01*
X156226401Y-113921967D01*
X156060678Y-113866128D01*
X155886416Y-113807412D01*
X155536040Y-113730288D01*
X155179383Y-113691500D01*
X155179382Y-113691500D01*
X154820618Y-113691500D01*
X154820616Y-113691500D01*
X154463959Y-113730288D01*
X154113583Y-113807412D01*
X153850768Y-113895965D01*
X153773599Y-113921967D01*
X153773596Y-113921968D01*
X153773588Y-113921971D01*
X153448003Y-114072602D01*
X153447999Y-114072604D01*
X153223946Y-114207413D01*
X153140586Y-114257569D01*
X153052060Y-114324864D01*
X152854986Y-114474675D01*
X152854977Y-114474683D01*
X152594513Y-114721407D01*
X152594508Y-114721413D01*
X152362264Y-114994832D01*
X152362256Y-114994842D01*
X152160929Y-115291776D01*
X152160928Y-115291779D01*
X151992881Y-115608748D01*
X151992872Y-115608766D01*
X151860083Y-115942042D01*
X151860082Y-115942044D01*
X151764107Y-116287717D01*
X151764106Y-116287720D01*
X151706063Y-116641765D01*
X151686641Y-116999997D01*
X150670937Y-116999997D01*
X150628254Y-116840699D01*
X150628250Y-116840690D01*
X150534707Y-116640085D01*
X150534706Y-116640083D01*
X150488894Y-116574657D01*
X150488894Y-116574656D01*
X149926127Y-117137423D01*
X149910245Y-117078147D01*
X149843102Y-116961853D01*
X149748147Y-116866898D01*
X149631853Y-116799755D01*
X149572575Y-116783872D01*
X150135342Y-116221105D01*
X150135341Y-116221103D01*
X150069919Y-116175295D01*
X149869309Y-116081749D01*
X149869300Y-116081745D01*
X149655509Y-116024461D01*
X149655499Y-116024459D01*
X149435001Y-116005168D01*
X149434999Y-116005168D01*
X149214500Y-116024459D01*
X149214490Y-116024461D01*
X149000699Y-116081745D01*
X149000690Y-116081749D01*
X148800084Y-116175293D01*
X148734657Y-116221104D01*
X149297424Y-116783871D01*
X149238147Y-116799755D01*
X149121853Y-116866898D01*
X149026898Y-116961853D01*
X148959755Y-117078147D01*
X148943871Y-117137424D01*
X148381103Y-116574656D01*
X148369644Y-116575659D01*
X148339499Y-116599756D01*
X148270000Y-116606950D01*
X148207645Y-116575428D01*
X148172231Y-116515198D01*
X148168500Y-116485008D01*
X148168500Y-116461362D01*
X148168499Y-116461345D01*
X148164349Y-116422749D01*
X148161989Y-116400799D01*
X148110889Y-116263796D01*
X148023261Y-116146739D01*
X147906204Y-116059111D01*
X147888801Y-116052620D01*
X147769203Y-116008011D01*
X147708654Y-116001500D01*
X147708638Y-116001500D01*
X146081362Y-116001500D01*
X146081345Y-116001500D01*
X146020797Y-116008011D01*
X146020795Y-116008011D01*
X145883795Y-116059111D01*
X145766739Y-116146739D01*
X145679111Y-116263795D01*
X145628011Y-116400795D01*
X145628011Y-116400797D01*
X145621500Y-116461345D01*
X144412200Y-116461345D01*
X144412200Y-110739998D01*
X147121635Y-110739998D01*
X147121635Y-110740001D01*
X147141055Y-110961980D01*
X147141057Y-110961990D01*
X147198727Y-111177219D01*
X147198732Y-111177233D01*
X147292901Y-111379179D01*
X147292907Y-111379189D01*
X147420710Y-111561710D01*
X147420719Y-111561720D01*
X147578279Y-111719280D01*
X147578289Y-111719289D01*
X147738284Y-111831319D01*
X147760817Y-111847097D01*
X147882318Y-111903753D01*
X147962766Y-111941267D01*
X147962768Y-111941267D01*
X147962773Y-111941270D01*
X148178014Y-111998944D01*
X148336575Y-112012816D01*
X148399998Y-112018365D01*
X148400000Y-112018365D01*
X148400002Y-112018365D01*
X148455496Y-112013509D01*
X148621986Y-111998944D01*
X148837227Y-111941270D01*
X149039183Y-111847097D01*
X149221717Y-111719284D01*
X149379284Y-111561717D01*
X149507097Y-111379183D01*
X149601270Y-111177227D01*
X149658944Y-110961986D01*
X149678365Y-110740000D01*
X149675390Y-110706000D01*
X149658944Y-110518019D01*
X149658944Y-110518014D01*
X149601270Y-110302773D01*
X149507097Y-110100818D01*
X149379284Y-109918283D01*
X149221717Y-109760716D01*
X149221712Y-109760712D01*
X149221709Y-109760710D01*
X149121546Y-109690574D01*
X149077921Y-109635997D01*
X149070729Y-109566499D01*
X149102252Y-109504144D01*
X149162482Y-109468731D01*
X149192670Y-109465000D01*
X149212828Y-109465000D01*
X149212844Y-109464999D01*
X149272372Y-109458598D01*
X149272379Y-109458596D01*
X149407086Y-109408354D01*
X149407093Y-109408350D01*
X149522187Y-109322190D01*
X149522190Y-109322187D01*
X149608350Y-109207093D01*
X149608354Y-109207086D01*
X149658596Y-109072379D01*
X149658598Y-109072372D01*
X149664999Y-109012844D01*
X149665000Y-109012827D01*
X149665000Y-108450000D01*
X148844560Y-108450000D01*
X148875245Y-108396853D01*
X148910000Y-108267143D01*
X148910000Y-108132857D01*
X148875245Y-108003147D01*
X148844560Y-107950000D01*
X149665000Y-107950000D01*
X149665000Y-107387172D01*
X149664999Y-107387155D01*
X149658598Y-107327627D01*
X149658596Y-107327620D01*
X149608354Y-107192913D01*
X149608350Y-107192906D01*
X149522190Y-107077812D01*
X149522187Y-107077809D01*
X149407093Y-106991649D01*
X149407086Y-106991645D01*
X149272379Y-106941403D01*
X149272372Y-106941401D01*
X149212844Y-106935000D01*
X148650000Y-106935000D01*
X148650000Y-107755439D01*
X148596853Y-107724755D01*
X148467143Y-107690000D01*
X148332857Y-107690000D01*
X148203147Y-107724755D01*
X148150000Y-107755439D01*
X148150000Y-106935000D01*
X147587155Y-106935000D01*
X147527627Y-106941401D01*
X147527620Y-106941403D01*
X147392913Y-106991645D01*
X147392906Y-106991649D01*
X147277812Y-107077809D01*
X147277809Y-107077812D01*
X147191649Y-107192906D01*
X147191645Y-107192913D01*
X147141403Y-107327620D01*
X147141401Y-107327627D01*
X147135000Y-107387155D01*
X147135000Y-107950000D01*
X147955440Y-107950000D01*
X147924755Y-108003147D01*
X147890000Y-108132857D01*
X147890000Y-108267143D01*
X147924755Y-108396853D01*
X147955440Y-108450000D01*
X147135000Y-108450000D01*
X147135000Y-109012844D01*
X147141401Y-109072372D01*
X147141403Y-109072379D01*
X147191645Y-109207086D01*
X147191649Y-109207093D01*
X147277809Y-109322187D01*
X147277812Y-109322190D01*
X147392906Y-109408350D01*
X147392913Y-109408354D01*
X147527620Y-109458596D01*
X147527627Y-109458598D01*
X147587155Y-109464999D01*
X147587172Y-109465000D01*
X147607331Y-109465000D01*
X147674370Y-109484685D01*
X147720125Y-109537489D01*
X147730069Y-109606647D01*
X147701044Y-109670203D01*
X147678455Y-109690574D01*
X147578282Y-109760716D01*
X147420716Y-109918282D01*
X147292907Y-110100811D01*
X147292903Y-110100817D01*
X147198731Y-110302771D01*
X147198727Y-110302780D01*
X147141057Y-110518009D01*
X147141055Y-110518019D01*
X147121635Y-110739998D01*
X144412200Y-110739998D01*
X144412200Y-99186392D01*
X146637261Y-99186392D01*
X146637261Y-99186407D01*
X146656194Y-99475269D01*
X146656195Y-99475279D01*
X146656196Y-99475286D01*
X146709203Y-99741775D01*
X146712674Y-99759222D01*
X146712677Y-99759236D01*
X146805732Y-100033365D01*
X146805741Y-100033386D01*
X146933779Y-100293021D01*
X147094614Y-100533729D01*
X147094616Y-100533731D01*
X147094619Y-100533735D01*
X147285504Y-100751396D01*
X147503165Y-100942281D01*
X147503168Y-100942283D01*
X147503170Y-100942285D01*
X147743878Y-101103120D01*
X148003513Y-101231158D01*
X148003518Y-101231160D01*
X148003530Y-101231166D01*
X148277672Y-101324225D01*
X148561614Y-101380704D01*
X148589358Y-101382522D01*
X148850493Y-101399639D01*
X148850500Y-101399639D01*
X148850507Y-101399639D01*
X149081774Y-101384480D01*
X149139386Y-101380704D01*
X149423328Y-101324225D01*
X149697470Y-101231166D01*
X149957120Y-101103121D01*
X150197835Y-100942281D01*
X150197838Y-100942277D01*
X150198609Y-100941763D01*
X150265287Y-100920885D01*
X150332667Y-100939370D01*
X150379357Y-100991348D01*
X150391500Y-101044865D01*
X150391500Y-102106761D01*
X150371815Y-102173800D01*
X150319011Y-102219555D01*
X150314953Y-102221322D01*
X150140769Y-102293471D01*
X149931606Y-102421646D01*
X149745067Y-102580967D01*
X149585746Y-102767506D01*
X149457571Y-102976669D01*
X149363693Y-103203312D01*
X149306427Y-103441845D01*
X149287181Y-103686400D01*
X149306427Y-103930954D01*
X149363693Y-104169487D01*
X149457571Y-104396130D01*
X149585746Y-104605293D01*
X149585748Y-104605296D01*
X149745067Y-104791833D01*
X149931604Y-104951152D01*
X149931606Y-104951153D01*
X150140769Y-105079328D01*
X150247608Y-105123582D01*
X150367408Y-105173205D01*
X150605943Y-105230472D01*
X150850500Y-105249719D01*
X151095057Y-105230472D01*
X151153431Y-105216457D01*
X151223211Y-105219947D01*
X151270058Y-105249350D01*
X153931756Y-107911047D01*
X153931777Y-107911070D01*
X154048705Y-108027998D01*
X154048708Y-108028000D01*
X154048711Y-108028003D01*
X154128089Y-108081041D01*
X154128092Y-108081044D01*
X154181131Y-108116483D01*
X154224222Y-108134331D01*
X154224226Y-108134334D01*
X154224227Y-108134333D01*
X154328269Y-108177430D01*
X154484465Y-108208499D01*
X154484469Y-108208500D01*
X154484470Y-108208500D01*
X154643730Y-108208500D01*
X160413746Y-108208500D01*
X160480785Y-108228185D01*
X160501427Y-108244819D01*
X160894081Y-108637473D01*
X160927566Y-108698796D01*
X160930400Y-108725154D01*
X160930400Y-109691714D01*
X160926006Y-109687320D01*
X160834794Y-109634659D01*
X160733061Y-109607400D01*
X160627739Y-109607400D01*
X160526006Y-109634659D01*
X160434794Y-109687320D01*
X160430400Y-109691714D01*
X160430400Y-108707400D01*
X159832555Y-108707400D01*
X159773027Y-108713801D01*
X159773020Y-108713803D01*
X159638313Y-108764045D01*
X159638306Y-108764049D01*
X159523212Y-108850209D01*
X159523209Y-108850212D01*
X159437049Y-108965306D01*
X159437045Y-108965313D01*
X159386803Y-109100020D01*
X159386801Y-109100027D01*
X159380400Y-109159555D01*
X159380400Y-109757400D01*
X160364714Y-109757400D01*
X160360320Y-109761794D01*
X160307659Y-109853006D01*
X160280400Y-109954739D01*
X160280400Y-110060061D01*
X160307659Y-110161794D01*
X160360320Y-110253006D01*
X160364714Y-110257400D01*
X159380400Y-110257400D01*
X159380400Y-110855244D01*
X159386801Y-110914772D01*
X159386803Y-110914779D01*
X159437045Y-111049486D01*
X159437049Y-111049493D01*
X159523209Y-111164587D01*
X159523212Y-111164590D01*
X159638306Y-111250750D01*
X159638313Y-111250754D01*
X159773020Y-111300996D01*
X159773027Y-111300998D01*
X159832555Y-111307399D01*
X159832572Y-111307400D01*
X160430400Y-111307400D01*
X160430400Y-110323086D01*
X160434794Y-110327480D01*
X160526006Y-110380141D01*
X160627739Y-110407400D01*
X160733061Y-110407400D01*
X160834794Y-110380141D01*
X160926006Y-110327480D01*
X160930400Y-110323086D01*
X160930400Y-111307400D01*
X161528228Y-111307400D01*
X161528244Y-111307399D01*
X161587772Y-111300998D01*
X161587776Y-111300997D01*
X161704566Y-111257437D01*
X161774258Y-111252453D01*
X161835581Y-111285938D01*
X161869066Y-111347261D01*
X161871900Y-111373619D01*
X161871900Y-113701634D01*
X161902968Y-113857823D01*
X161902970Y-113857831D01*
X161933443Y-113931399D01*
X161933443Y-113931400D01*
X161963912Y-114004961D01*
X161963919Y-114004974D01*
X162052396Y-114137388D01*
X162052399Y-114137392D01*
X162495181Y-114580173D01*
X162528666Y-114641496D01*
X162531500Y-114667854D01*
X162531500Y-116081137D01*
X162511815Y-116148176D01*
X162495181Y-116168818D01*
X162360716Y-116303282D01*
X162290574Y-116403455D01*
X162235997Y-116447080D01*
X162166499Y-116454272D01*
X162104144Y-116422749D01*
X162068731Y-116362519D01*
X162065000Y-116332331D01*
X162065000Y-116312172D01*
X162064999Y-116312155D01*
X162058598Y-116252627D01*
X162058596Y-116252620D01*
X162008354Y-116117913D01*
X162008350Y-116117906D01*
X161922190Y-116002812D01*
X161922187Y-116002809D01*
X161807093Y-115916649D01*
X161807086Y-115916645D01*
X161672379Y-115866403D01*
X161672372Y-115866401D01*
X161612844Y-115860000D01*
X161050000Y-115860000D01*
X161050000Y-116680439D01*
X160996853Y-116649755D01*
X160867143Y-116615000D01*
X160732857Y-116615000D01*
X160603147Y-116649755D01*
X160550000Y-116680439D01*
X160550000Y-115860000D01*
X159987155Y-115860000D01*
X159927627Y-115866401D01*
X159927620Y-115866403D01*
X159792913Y-115916645D01*
X159792906Y-115916649D01*
X159677812Y-116002809D01*
X159677809Y-116002812D01*
X159591649Y-116117906D01*
X159591645Y-116117913D01*
X159541403Y-116252620D01*
X159541401Y-116252627D01*
X159535000Y-116312155D01*
X159535000Y-116875000D01*
X160355440Y-116875000D01*
X160324755Y-116928147D01*
X160290000Y-117057857D01*
X160290000Y-117192143D01*
X160324755Y-117321853D01*
X160355440Y-117375000D01*
X159535000Y-117375000D01*
X159535000Y-117937844D01*
X159541401Y-117997372D01*
X159541403Y-117997379D01*
X159591645Y-118132086D01*
X159591649Y-118132093D01*
X159677809Y-118247187D01*
X159677812Y-118247190D01*
X159792906Y-118333350D01*
X159792913Y-118333354D01*
X159927620Y-118383596D01*
X159927627Y-118383598D01*
X159987155Y-118389999D01*
X159987172Y-118390000D01*
X160550000Y-118390000D01*
X160550000Y-117569560D01*
X160603147Y-117600245D01*
X160732857Y-117635000D01*
X160867143Y-117635000D01*
X160996853Y-117600245D01*
X161050000Y-117569560D01*
X161050000Y-118390000D01*
X161612828Y-118390000D01*
X161612844Y-118389999D01*
X161672372Y-118383598D01*
X161672379Y-118383596D01*
X161807086Y-118333354D01*
X161807093Y-118333350D01*
X161922187Y-118247190D01*
X161922190Y-118247187D01*
X162008350Y-118132093D01*
X162008354Y-118132086D01*
X162058596Y-117997379D01*
X162058598Y-117997372D01*
X162064999Y-117937844D01*
X162065000Y-117937827D01*
X162065000Y-117917669D01*
X162084685Y-117850630D01*
X162137489Y-117804875D01*
X162206647Y-117794931D01*
X162270203Y-117823956D01*
X162290570Y-117846540D01*
X162334947Y-117909915D01*
X162360716Y-117946717D01*
X162518279Y-118104280D01*
X162518289Y-118104289D01*
X162631551Y-118183596D01*
X162700817Y-118232097D01*
X162816851Y-118286204D01*
X162902766Y-118326267D01*
X162902768Y-118326267D01*
X162902773Y-118326270D01*
X163118014Y-118383944D01*
X163276575Y-118397816D01*
X163339998Y-118403365D01*
X163340000Y-118403365D01*
X163340002Y-118403365D01*
X163395496Y-118398509D01*
X163561986Y-118383944D01*
X163777227Y-118326270D01*
X163979183Y-118232097D01*
X164161717Y-118104284D01*
X164319284Y-117946717D01*
X164447097Y-117764183D01*
X164541270Y-117562227D01*
X164584740Y-117399997D01*
X190686641Y-117399997D01*
X190686641Y-117400002D01*
X190706063Y-117758234D01*
X190740990Y-117971276D01*
X190762794Y-118104280D01*
X190764106Y-118112279D01*
X190764107Y-118112282D01*
X190860082Y-118457955D01*
X190860083Y-118457957D01*
X190992872Y-118791233D01*
X190992877Y-118791243D01*
X191106292Y-119005167D01*
X191160928Y-119108220D01*
X191160929Y-119108223D01*
X191362256Y-119405157D01*
X191362264Y-119405167D01*
X191594508Y-119678586D01*
X191594516Y-119678595D01*
X191854977Y-119925317D01*
X191854984Y-119925322D01*
X191854986Y-119925324D01*
X191857713Y-119927397D01*
X192140586Y-120142431D01*
X192447995Y-120327393D01*
X192447997Y-120327394D01*
X192447999Y-120327395D01*
X192448003Y-120327397D01*
X192773588Y-120478028D01*
X192773599Y-120478033D01*
X193113583Y-120592587D01*
X193463958Y-120669711D01*
X193820618Y-120708500D01*
X193820624Y-120708500D01*
X194179376Y-120708500D01*
X194179382Y-120708500D01*
X194536042Y-120669711D01*
X194886417Y-120592587D01*
X195226401Y-120478033D01*
X195552005Y-120327393D01*
X195859414Y-120142431D01*
X196145023Y-119925317D01*
X196405484Y-119678595D01*
X196637742Y-119405159D01*
X196839075Y-119108215D01*
X197007123Y-118791243D01*
X197139915Y-118457961D01*
X197155103Y-118403261D01*
X197187603Y-118286204D01*
X197235895Y-118112274D01*
X197293936Y-117758237D01*
X197313359Y-117400000D01*
X197293936Y-117041763D01*
X197235895Y-116687726D01*
X197180378Y-116487773D01*
X197139917Y-116342044D01*
X197139916Y-116342042D01*
X197048321Y-116112155D01*
X198230000Y-116112155D01*
X198230000Y-116675000D01*
X199050440Y-116675000D01*
X199019755Y-116728147D01*
X198985000Y-116857857D01*
X198985000Y-116992143D01*
X199019755Y-117121853D01*
X199050440Y-117175000D01*
X198230000Y-117175000D01*
X198230000Y-117737844D01*
X198236401Y-117797372D01*
X198236403Y-117797379D01*
X198286645Y-117932086D01*
X198286649Y-117932093D01*
X198372809Y-118047187D01*
X198372812Y-118047190D01*
X198487906Y-118133350D01*
X198487913Y-118133354D01*
X198622620Y-118183596D01*
X198622627Y-118183598D01*
X198682155Y-118189999D01*
X198682172Y-118190000D01*
X199245000Y-118190000D01*
X199245000Y-117369560D01*
X199298147Y-117400245D01*
X199427857Y-117435000D01*
X199562143Y-117435000D01*
X199691853Y-117400245D01*
X199745000Y-117369560D01*
X199745000Y-118190000D01*
X200307828Y-118190000D01*
X200307844Y-118189999D01*
X200367372Y-118183598D01*
X200367379Y-118183596D01*
X200502086Y-118133354D01*
X200502093Y-118133350D01*
X200617187Y-118047190D01*
X200617190Y-118047187D01*
X200703350Y-117932093D01*
X200703354Y-117932086D01*
X200753596Y-117797379D01*
X200753598Y-117797372D01*
X200759999Y-117737844D01*
X200760000Y-117737827D01*
X200760000Y-117717669D01*
X200779685Y-117650630D01*
X200832489Y-117604875D01*
X200901647Y-117594931D01*
X200965203Y-117623956D01*
X200985570Y-117646540D01*
X201031599Y-117712274D01*
X201055716Y-117746717D01*
X201213279Y-117904280D01*
X201213289Y-117904289D01*
X201375772Y-118018061D01*
X201395817Y-118032097D01*
X201451283Y-118057961D01*
X201597766Y-118126267D01*
X201597768Y-118126267D01*
X201597773Y-118126270D01*
X201597778Y-118126271D01*
X201597780Y-118126272D01*
X201624196Y-118133350D01*
X201813014Y-118183944D01*
X201971575Y-118197816D01*
X202034998Y-118203365D01*
X202035000Y-118203365D01*
X202035002Y-118203365D01*
X202090496Y-118198509D01*
X202256986Y-118183944D01*
X202472227Y-118126270D01*
X202674183Y-118032097D01*
X202856717Y-117904284D01*
X203014284Y-117746717D01*
X203142097Y-117564183D01*
X203236270Y-117362227D01*
X203293944Y-117146986D01*
X203313365Y-116925000D01*
X203311441Y-116903014D01*
X203303466Y-116811853D01*
X203293944Y-116703014D01*
X203236270Y-116487773D01*
X203142097Y-116285818D01*
X203014284Y-116103283D01*
X202856717Y-115945716D01*
X202856715Y-115945714D01*
X202856710Y-115945710D01*
X202674189Y-115817907D01*
X202674186Y-115817905D01*
X202674183Y-115817903D01*
X202674179Y-115817901D01*
X202472233Y-115723732D01*
X202472219Y-115723727D01*
X202256990Y-115666057D01*
X202256988Y-115666056D01*
X202256986Y-115666056D01*
X202256984Y-115666055D01*
X202256980Y-115666055D01*
X202035002Y-115646635D01*
X202034998Y-115646635D01*
X201813019Y-115666055D01*
X201813009Y-115666057D01*
X201597780Y-115723727D01*
X201597771Y-115723731D01*
X201395817Y-115817903D01*
X201395811Y-115817907D01*
X201213282Y-115945716D01*
X201055716Y-116103282D01*
X200985574Y-116203455D01*
X200930997Y-116247080D01*
X200861499Y-116254272D01*
X200799144Y-116222749D01*
X200763731Y-116162519D01*
X200760000Y-116132331D01*
X200760000Y-116112172D01*
X200759999Y-116112155D01*
X200753598Y-116052627D01*
X200753596Y-116052620D01*
X200703354Y-115917913D01*
X200703350Y-115917906D01*
X200617190Y-115802812D01*
X200617187Y-115802809D01*
X200502093Y-115716649D01*
X200502086Y-115716645D01*
X200367379Y-115666403D01*
X200367372Y-115666401D01*
X200307844Y-115660000D01*
X199745000Y-115660000D01*
X199745000Y-116480439D01*
X199691853Y-116449755D01*
X199562143Y-116415000D01*
X199427857Y-116415000D01*
X199298147Y-116449755D01*
X199245000Y-116480439D01*
X199245000Y-115660000D01*
X198682155Y-115660000D01*
X198622627Y-115666401D01*
X198622620Y-115666403D01*
X198487913Y-115716645D01*
X198487906Y-115716649D01*
X198372812Y-115802809D01*
X198372809Y-115802812D01*
X198286649Y-115917906D01*
X198286645Y-115917913D01*
X198236403Y-116052620D01*
X198236401Y-116052627D01*
X198230000Y-116112155D01*
X197048321Y-116112155D01*
X197007127Y-116008766D01*
X197007118Y-116008748D01*
X197003971Y-116002812D01*
X196839075Y-115691785D01*
X196839071Y-115691779D01*
X196839070Y-115691776D01*
X196637743Y-115394842D01*
X196637735Y-115394832D01*
X196405491Y-115121413D01*
X196405486Y-115121407D01*
X196271872Y-114994841D01*
X196145023Y-114874683D01*
X196145016Y-114874677D01*
X196145013Y-114874675D01*
X196077266Y-114823175D01*
X195859414Y-114657569D01*
X195552005Y-114472607D01*
X195552004Y-114472606D01*
X195552000Y-114472604D01*
X195551996Y-114472602D01*
X195226411Y-114321971D01*
X195226406Y-114321969D01*
X195226401Y-114321967D01*
X195035272Y-114257568D01*
X194886416Y-114207412D01*
X194536040Y-114130288D01*
X194179383Y-114091500D01*
X194179382Y-114091500D01*
X193820618Y-114091500D01*
X193820616Y-114091500D01*
X193463959Y-114130288D01*
X193113583Y-114207412D01*
X192889516Y-114282910D01*
X192773599Y-114321967D01*
X192773596Y-114321968D01*
X192773588Y-114321971D01*
X192448003Y-114472602D01*
X192447999Y-114472604D01*
X192270688Y-114579289D01*
X192140586Y-114657569D01*
X192075440Y-114707092D01*
X191854986Y-114874675D01*
X191854977Y-114874683D01*
X191594513Y-115121407D01*
X191594508Y-115121413D01*
X191362264Y-115394832D01*
X191362256Y-115394842D01*
X191160929Y-115691776D01*
X191160928Y-115691779D01*
X190992881Y-116008748D01*
X190992872Y-116008766D01*
X190860083Y-116342042D01*
X190860082Y-116342044D01*
X190764107Y-116687717D01*
X190764106Y-116687720D01*
X190706063Y-117041765D01*
X190686641Y-117399997D01*
X164584740Y-117399997D01*
X164598944Y-117346986D01*
X164616441Y-117146990D01*
X164618365Y-117125001D01*
X164618365Y-117124998D01*
X164607429Y-116999997D01*
X164598944Y-116903014D01*
X164545354Y-116703014D01*
X164541272Y-116687780D01*
X164541271Y-116687779D01*
X164541270Y-116687773D01*
X164447097Y-116485818D01*
X164319284Y-116303283D01*
X164184819Y-116168818D01*
X164151334Y-116107495D01*
X164148500Y-116081137D01*
X164148500Y-114201969D01*
X164148499Y-114201965D01*
X164122768Y-114072607D01*
X164117430Y-114045769D01*
X164071474Y-113934822D01*
X164070056Y-113931399D01*
X164056486Y-113898635D01*
X164056483Y-113898630D01*
X164056351Y-113898433D01*
X163968003Y-113766211D01*
X163968000Y-113766207D01*
X163525219Y-113323426D01*
X163491734Y-113262103D01*
X163488900Y-113235745D01*
X163488900Y-111100760D01*
X163508585Y-111033721D01*
X163525219Y-111013079D01*
X163686079Y-110852219D01*
X163747402Y-110818734D01*
X163773760Y-110815900D01*
X169107946Y-110815900D01*
X169174985Y-110835585D01*
X169195627Y-110852219D01*
X170995944Y-112652536D01*
X171029429Y-112713859D01*
X171031792Y-112751020D01*
X171029607Y-112776003D01*
X171048341Y-112990136D01*
X171048342Y-112990144D01*
X171103976Y-113197772D01*
X171103977Y-113197774D01*
X171103978Y-113197777D01*
X171123303Y-113239219D01*
X171194824Y-113392597D01*
X171194826Y-113392601D01*
X171318119Y-113568682D01*
X171470117Y-113720680D01*
X171646198Y-113843973D01*
X171646200Y-113843974D01*
X171646203Y-113843976D01*
X171841023Y-113934822D01*
X172048658Y-113990458D01*
X172201616Y-114003840D01*
X172262798Y-114009193D01*
X172262800Y-114009193D01*
X172262802Y-114009193D01*
X172316335Y-114004509D01*
X172476942Y-113990458D01*
X172684577Y-113934822D01*
X172879397Y-113843976D01*
X173055481Y-113720681D01*
X173207481Y-113568681D01*
X173330776Y-113392597D01*
X173421622Y-113197777D01*
X173477258Y-112990142D01*
X173495993Y-112776000D01*
X173484826Y-112648355D01*
X177754200Y-112648355D01*
X177754200Y-113211200D01*
X178574640Y-113211200D01*
X178543955Y-113264347D01*
X178509200Y-113394057D01*
X178509200Y-113528343D01*
X178543955Y-113658053D01*
X178574640Y-113711200D01*
X177754200Y-113711200D01*
X177754200Y-114274044D01*
X177760601Y-114333572D01*
X177760603Y-114333579D01*
X177810845Y-114468286D01*
X177810849Y-114468293D01*
X177897009Y-114583387D01*
X177897012Y-114583390D01*
X178012106Y-114669550D01*
X178012113Y-114669554D01*
X178146820Y-114719796D01*
X178146827Y-114719798D01*
X178206355Y-114726199D01*
X178206372Y-114726200D01*
X178769200Y-114726200D01*
X178769200Y-113905760D01*
X178822347Y-113936445D01*
X178952057Y-113971200D01*
X179086343Y-113971200D01*
X179216053Y-113936445D01*
X179269200Y-113905760D01*
X179269200Y-114726200D01*
X179832028Y-114726200D01*
X179832044Y-114726199D01*
X179891572Y-114719798D01*
X179891579Y-114719796D01*
X180026286Y-114669554D01*
X180026293Y-114669550D01*
X180141387Y-114583390D01*
X180141390Y-114583387D01*
X180227550Y-114468293D01*
X180227554Y-114468286D01*
X180277796Y-114333579D01*
X180277798Y-114333572D01*
X180284199Y-114274044D01*
X180284200Y-114274027D01*
X180284200Y-114253869D01*
X180303885Y-114186830D01*
X180356689Y-114141075D01*
X180425847Y-114131131D01*
X180489403Y-114160156D01*
X180509770Y-114182740D01*
X180549290Y-114239179D01*
X180579916Y-114282917D01*
X180737479Y-114440480D01*
X180737489Y-114440489D01*
X180899972Y-114554261D01*
X180920017Y-114568297D01*
X181003201Y-114607086D01*
X181121966Y-114662467D01*
X181121968Y-114662467D01*
X181121973Y-114662470D01*
X181337214Y-114720144D01*
X181495775Y-114734016D01*
X181559198Y-114739565D01*
X181559200Y-114739565D01*
X181559202Y-114739565D01*
X181614696Y-114734709D01*
X181781186Y-114720144D01*
X181996427Y-114662470D01*
X182198383Y-114568297D01*
X182380917Y-114440484D01*
X182538484Y-114282917D01*
X182666297Y-114100383D01*
X182760470Y-113898427D01*
X182818144Y-113683186D01*
X182837565Y-113461200D01*
X182818144Y-113239214D01*
X182760470Y-113023973D01*
X182666297Y-112822018D01*
X182641886Y-112787155D01*
X184535000Y-112787155D01*
X184535000Y-113350000D01*
X185355440Y-113350000D01*
X185324755Y-113403147D01*
X185290000Y-113532857D01*
X185290000Y-113667143D01*
X185324755Y-113796853D01*
X185355440Y-113850000D01*
X184535000Y-113850000D01*
X184535000Y-114412844D01*
X184541401Y-114472372D01*
X184541403Y-114472379D01*
X184591645Y-114607086D01*
X184591649Y-114607093D01*
X184677809Y-114722187D01*
X184677812Y-114722190D01*
X184792906Y-114808350D01*
X184792913Y-114808354D01*
X184927620Y-114858596D01*
X184927627Y-114858598D01*
X184987155Y-114864999D01*
X184987172Y-114865000D01*
X185550000Y-114865000D01*
X185550000Y-114044560D01*
X185603147Y-114075245D01*
X185732857Y-114110000D01*
X185867143Y-114110000D01*
X185996853Y-114075245D01*
X186050000Y-114044560D01*
X186050000Y-114865000D01*
X186612828Y-114865000D01*
X186612844Y-114864999D01*
X186672372Y-114858598D01*
X186672379Y-114858596D01*
X186807086Y-114808354D01*
X186807093Y-114808350D01*
X186922187Y-114722190D01*
X186922190Y-114722187D01*
X187008350Y-114607093D01*
X187008354Y-114607086D01*
X187058596Y-114472379D01*
X187058598Y-114472372D01*
X187064999Y-114412844D01*
X187065000Y-114412827D01*
X187065000Y-114392669D01*
X187084685Y-114325630D01*
X187137489Y-114279875D01*
X187206647Y-114269931D01*
X187270203Y-114298956D01*
X187290570Y-114321540D01*
X187340376Y-114392669D01*
X187360716Y-114421717D01*
X187518279Y-114579280D01*
X187518289Y-114579289D01*
X187680772Y-114693061D01*
X187700817Y-114707097D01*
X187822318Y-114763753D01*
X187902766Y-114801267D01*
X187902768Y-114801267D01*
X187902773Y-114801270D01*
X188118014Y-114858944D01*
X188276575Y-114872816D01*
X188339998Y-114878365D01*
X188340000Y-114878365D01*
X188340002Y-114878365D01*
X188395496Y-114873509D01*
X188561986Y-114858944D01*
X188777227Y-114801270D01*
X188979183Y-114707097D01*
X189155857Y-114583387D01*
X189161710Y-114579289D01*
X189161710Y-114579288D01*
X189161717Y-114579284D01*
X189319284Y-114421717D01*
X189447097Y-114239183D01*
X189541270Y-114037227D01*
X189598944Y-113821986D01*
X189618365Y-113600000D01*
X189598944Y-113378014D01*
X189541270Y-113162773D01*
X189447097Y-112960818D01*
X189319284Y-112778283D01*
X189161717Y-112620716D01*
X189161715Y-112620714D01*
X189161710Y-112620710D01*
X188979189Y-112492907D01*
X188979186Y-112492905D01*
X188979183Y-112492903D01*
X188955628Y-112481919D01*
X188777233Y-112398732D01*
X188777219Y-112398727D01*
X188561990Y-112341057D01*
X188561988Y-112341056D01*
X188561986Y-112341056D01*
X188561984Y-112341055D01*
X188561980Y-112341055D01*
X188340002Y-112321635D01*
X188339998Y-112321635D01*
X188118019Y-112341055D01*
X188118009Y-112341057D01*
X187902780Y-112398727D01*
X187902771Y-112398731D01*
X187700817Y-112492903D01*
X187700811Y-112492907D01*
X187518282Y-112620716D01*
X187360716Y-112778282D01*
X187290574Y-112878455D01*
X187235997Y-112922080D01*
X187166499Y-112929272D01*
X187104144Y-112897749D01*
X187068731Y-112837519D01*
X187065000Y-112807331D01*
X187065000Y-112787172D01*
X187064999Y-112787155D01*
X187058598Y-112727627D01*
X187058596Y-112727620D01*
X187008354Y-112592913D01*
X187008350Y-112592906D01*
X186922190Y-112477812D01*
X186922187Y-112477809D01*
X186807093Y-112391649D01*
X186807086Y-112391645D01*
X186672379Y-112341403D01*
X186672372Y-112341401D01*
X186612844Y-112335000D01*
X186050000Y-112335000D01*
X186050000Y-113155439D01*
X185996853Y-113124755D01*
X185867143Y-113090000D01*
X185732857Y-113090000D01*
X185603147Y-113124755D01*
X185550000Y-113155439D01*
X185550000Y-112335000D01*
X184987155Y-112335000D01*
X184927627Y-112341401D01*
X184927620Y-112341403D01*
X184792913Y-112391645D01*
X184792906Y-112391649D01*
X184677812Y-112477809D01*
X184677809Y-112477812D01*
X184591649Y-112592906D01*
X184591645Y-112592913D01*
X184541403Y-112727620D01*
X184541401Y-112727627D01*
X184535000Y-112787155D01*
X182641886Y-112787155D01*
X182538484Y-112639483D01*
X182380917Y-112481916D01*
X182380915Y-112481914D01*
X182380910Y-112481910D01*
X182198389Y-112354107D01*
X182198386Y-112354105D01*
X182198383Y-112354103D01*
X182171148Y-112341403D01*
X181996433Y-112259932D01*
X181996419Y-112259927D01*
X181781190Y-112202257D01*
X181781188Y-112202256D01*
X181781186Y-112202256D01*
X181781184Y-112202255D01*
X181781180Y-112202255D01*
X181559202Y-112182835D01*
X181559198Y-112182835D01*
X181337219Y-112202255D01*
X181337209Y-112202257D01*
X181121980Y-112259927D01*
X181121971Y-112259931D01*
X180920017Y-112354103D01*
X180920011Y-112354107D01*
X180737482Y-112481916D01*
X180579916Y-112639482D01*
X180509774Y-112739655D01*
X180455197Y-112783280D01*
X180385699Y-112790472D01*
X180323344Y-112758949D01*
X180287931Y-112698719D01*
X180284200Y-112668531D01*
X180284200Y-112648372D01*
X180284199Y-112648355D01*
X180277798Y-112588827D01*
X180277796Y-112588820D01*
X180227554Y-112454113D01*
X180227550Y-112454106D01*
X180141390Y-112339012D01*
X180141387Y-112339009D01*
X180026293Y-112252849D01*
X180026286Y-112252845D01*
X179891579Y-112202603D01*
X179891572Y-112202601D01*
X179832044Y-112196200D01*
X179269200Y-112196200D01*
X179269200Y-113016639D01*
X179216053Y-112985955D01*
X179086343Y-112951200D01*
X178952057Y-112951200D01*
X178822347Y-112985955D01*
X178769200Y-113016639D01*
X178769200Y-112196200D01*
X178206355Y-112196200D01*
X178146827Y-112202601D01*
X178146820Y-112202603D01*
X178012113Y-112252845D01*
X178012106Y-112252849D01*
X177897012Y-112339009D01*
X177897009Y-112339012D01*
X177810849Y-112454106D01*
X177810845Y-112454113D01*
X177760603Y-112588820D01*
X177760601Y-112588827D01*
X177754200Y-112648355D01*
X173484826Y-112648355D01*
X173477258Y-112561858D01*
X173421622Y-112354223D01*
X173330776Y-112159404D01*
X173207481Y-111983319D01*
X173207479Y-111983316D01*
X173055482Y-111831319D01*
X172879401Y-111708026D01*
X172879397Y-111708024D01*
X172679670Y-111614890D01*
X172680411Y-111613300D01*
X172630494Y-111576524D01*
X172605577Y-111511248D01*
X172619907Y-111442864D01*
X172668933Y-111393082D01*
X172676786Y-111389074D01*
X172875129Y-111296586D01*
X172930830Y-111257583D01*
X172367715Y-110694468D01*
X172444213Y-110673971D01*
X172551387Y-110612094D01*
X172638894Y-110524587D01*
X172700771Y-110417413D01*
X172721268Y-110340915D01*
X173284383Y-110904029D01*
X173323389Y-110848325D01*
X173413601Y-110654864D01*
X173413605Y-110654853D01*
X173468854Y-110448662D01*
X173468855Y-110448654D01*
X173487460Y-110236002D01*
X173487460Y-110235997D01*
X173468855Y-110023345D01*
X173468854Y-110023337D01*
X173413605Y-109817146D01*
X173413602Y-109817140D01*
X173323386Y-109623669D01*
X173323382Y-109623663D01*
X173284384Y-109567968D01*
X172721268Y-110131084D01*
X172700771Y-110054587D01*
X172638894Y-109947413D01*
X172551387Y-109859906D01*
X172444213Y-109798029D01*
X172367714Y-109777531D01*
X172930830Y-109214415D01*
X172875128Y-109175412D01*
X172875126Y-109175411D01*
X172676786Y-109082924D01*
X172624346Y-109036752D01*
X172605194Y-108969559D01*
X172625410Y-108902677D01*
X172678575Y-108857343D01*
X172683108Y-108855506D01*
X172684571Y-108854823D01*
X172684577Y-108854822D01*
X172879397Y-108763976D01*
X173055481Y-108640681D01*
X173207481Y-108488681D01*
X173330776Y-108312597D01*
X173421622Y-108117777D01*
X173477258Y-107910142D01*
X173495993Y-107696000D01*
X173477258Y-107481858D01*
X173421622Y-107274223D01*
X173330776Y-107079404D01*
X173207481Y-106903319D01*
X173207479Y-106903316D01*
X173055482Y-106751319D01*
X172879401Y-106628026D01*
X172879397Y-106628024D01*
X172867701Y-106622570D01*
X172684577Y-106537178D01*
X172684574Y-106537177D01*
X172684572Y-106537176D01*
X172476944Y-106481542D01*
X172476936Y-106481541D01*
X172262802Y-106462807D01*
X172262798Y-106462807D01*
X172048663Y-106481541D01*
X172048655Y-106481542D01*
X171841027Y-106537176D01*
X171841021Y-106537179D01*
X171646205Y-106628023D01*
X171646203Y-106628024D01*
X171470116Y-106751320D01*
X171318120Y-106903316D01*
X171194824Y-107079403D01*
X171194823Y-107079405D01*
X171103979Y-107274221D01*
X171103976Y-107274227D01*
X171048342Y-107481855D01*
X171048341Y-107481863D01*
X171029607Y-107695998D01*
X171029607Y-107696001D01*
X171048341Y-107910136D01*
X171048342Y-107910144D01*
X171103976Y-108117772D01*
X171103977Y-108117774D01*
X171103978Y-108117777D01*
X171194824Y-108312597D01*
X171194826Y-108312601D01*
X171318119Y-108488682D01*
X171470117Y-108640680D01*
X171646198Y-108763973D01*
X171646200Y-108763974D01*
X171646203Y-108763976D01*
X171831137Y-108850212D01*
X171845930Y-108857110D01*
X171845186Y-108858704D01*
X171895091Y-108895456D01*
X171920020Y-108960727D01*
X171905704Y-109029114D01*
X171856687Y-109078905D01*
X171848814Y-109082924D01*
X171650471Y-109175412D01*
X171650469Y-109175413D01*
X171594769Y-109214415D01*
X171594768Y-109214415D01*
X172157885Y-109777531D01*
X172081387Y-109798029D01*
X171974213Y-109859906D01*
X171886706Y-109947413D01*
X171824829Y-110054587D01*
X171804331Y-110131084D01*
X171241215Y-109567968D01*
X171241215Y-109567969D01*
X171202213Y-109623669D01*
X171202212Y-109623671D01*
X171111997Y-109817140D01*
X171111994Y-109817146D01*
X171056745Y-110023337D01*
X171056744Y-110023344D01*
X171047482Y-110129208D01*
X171022029Y-110194277D01*
X170965438Y-110235255D01*
X170895676Y-110239133D01*
X170836273Y-110206081D01*
X170009592Y-109379399D01*
X170009588Y-109379396D01*
X169877174Y-109290919D01*
X169877170Y-109290917D01*
X169877168Y-109290916D01*
X169803599Y-109260443D01*
X169803597Y-109260442D01*
X169803596Y-109260441D01*
X169730031Y-109229970D01*
X169730023Y-109229968D01*
X169573834Y-109198900D01*
X169573830Y-109198900D01*
X163773760Y-109198900D01*
X163706721Y-109179215D01*
X163686079Y-109162581D01*
X163524700Y-109001202D01*
X163433343Y-108937232D01*
X163401700Y-108901541D01*
X163400269Y-108902498D01*
X163308403Y-108765010D01*
X161315392Y-106771999D01*
X161315388Y-106771996D01*
X161182974Y-106683519D01*
X161182970Y-106683517D01*
X161182968Y-106683516D01*
X161109399Y-106653043D01*
X161109397Y-106653042D01*
X161109396Y-106653041D01*
X161035831Y-106622570D01*
X161035823Y-106622568D01*
X160879634Y-106591500D01*
X160879630Y-106591500D01*
X154950353Y-106591500D01*
X154883314Y-106571815D01*
X154862672Y-106555181D01*
X152413450Y-104105958D01*
X152379965Y-104044635D01*
X152380556Y-103989332D01*
X152394572Y-103930957D01*
X152413819Y-103686400D01*
X155287181Y-103686400D01*
X155306427Y-103930954D01*
X155363693Y-104169487D01*
X155457571Y-104396130D01*
X155585746Y-104605293D01*
X155585748Y-104605296D01*
X155745067Y-104791833D01*
X155931604Y-104951152D01*
X155931606Y-104951153D01*
X156140769Y-105079328D01*
X156247608Y-105123582D01*
X156367408Y-105173205D01*
X156605943Y-105230472D01*
X156850500Y-105249719D01*
X157095057Y-105230472D01*
X157333592Y-105173205D01*
X157560232Y-105079327D01*
X157650564Y-105023972D01*
X157715353Y-105005700D01*
X196375395Y-105005700D01*
X196375396Y-105005699D01*
X196497785Y-104981355D01*
X196613075Y-104933600D01*
X196716833Y-104864271D01*
X199729671Y-101851433D01*
X199799000Y-101747675D01*
X199846755Y-101632385D01*
X199871100Y-101509994D01*
X199871100Y-101385206D01*
X199871100Y-99761756D01*
X199890785Y-99694717D01*
X199902946Y-99678788D01*
X199976640Y-99596944D01*
X200072127Y-99431556D01*
X200131142Y-99249928D01*
X200151104Y-99060000D01*
X200131142Y-98870072D01*
X200072127Y-98688444D01*
X199976640Y-98523056D01*
X199848853Y-98381134D01*
X199694352Y-98268882D01*
X199519888Y-98191206D01*
X199519886Y-98191205D01*
X199333087Y-98151500D01*
X199142113Y-98151500D01*
X198955314Y-98191205D01*
X198780846Y-98268883D01*
X198626345Y-98381135D01*
X198498559Y-98523057D01*
X198403073Y-98688443D01*
X198403070Y-98688450D01*
X198344059Y-98870068D01*
X198344058Y-98870072D01*
X198324096Y-99060000D01*
X198344058Y-99249928D01*
X198344059Y-99249931D01*
X198403070Y-99431549D01*
X198403073Y-99431556D01*
X198428320Y-99475286D01*
X198498560Y-99596944D01*
X198572249Y-99678784D01*
X198602480Y-99741775D01*
X198604100Y-99761756D01*
X198604100Y-101133834D01*
X198584415Y-101200873D01*
X198567781Y-101221515D01*
X196292101Y-103497194D01*
X196230778Y-103530679D01*
X196161086Y-103525695D01*
X196105153Y-103483823D01*
X196081100Y-103422477D01*
X196067142Y-103289672D01*
X196008127Y-103108044D01*
X195912640Y-102942656D01*
X195784853Y-102800734D01*
X195630352Y-102688482D01*
X195455888Y-102610806D01*
X195455886Y-102610805D01*
X195269087Y-102571100D01*
X195078113Y-102571100D01*
X194891314Y-102610805D01*
X194716846Y-102688483D01*
X194562345Y-102800735D01*
X194558440Y-102805073D01*
X194498954Y-102841721D01*
X194466291Y-102846100D01*
X193048966Y-102846100D01*
X192981927Y-102826415D01*
X192961285Y-102809781D01*
X189125836Y-98974331D01*
X189125832Y-98974328D01*
X189022081Y-98905003D01*
X189022072Y-98904998D01*
X188906785Y-98857245D01*
X188906777Y-98857243D01*
X188784398Y-98832900D01*
X188784394Y-98832900D01*
X183559919Y-98832900D01*
X183492880Y-98813215D01*
X183467768Y-98791871D01*
X183440454Y-98761535D01*
X183339854Y-98688444D01*
X183285952Y-98649282D01*
X183111488Y-98571606D01*
X183111486Y-98571605D01*
X182924687Y-98531900D01*
X182733713Y-98531900D01*
X182546915Y-98571605D01*
X182546913Y-98571605D01*
X182546912Y-98571606D01*
X182539649Y-98574839D01*
X182470400Y-98584119D01*
X182407126Y-98554487D01*
X182401541Y-98549237D01*
X178925546Y-95073242D01*
X178892061Y-95011919D01*
X178897045Y-94942227D01*
X178938917Y-94886294D01*
X178981131Y-94865788D01*
X178994076Y-94862320D01*
X178994081Y-94862317D01*
X178994083Y-94862317D01*
X179040757Y-94840552D01*
X179193654Y-94769256D01*
X179374038Y-94642949D01*
X179529749Y-94487238D01*
X179656056Y-94306854D01*
X179719618Y-94170544D01*
X179765790Y-94118104D01*
X179832983Y-94098952D01*
X179899865Y-94119167D01*
X179944382Y-94170544D01*
X180007944Y-94306854D01*
X180134251Y-94487238D01*
X180289962Y-94642949D01*
X180470346Y-94769256D01*
X180669924Y-94862320D01*
X180882629Y-94919315D01*
X181039322Y-94933023D01*
X181101998Y-94938507D01*
X181102000Y-94938507D01*
X181102002Y-94938507D01*
X181156957Y-94933699D01*
X181321371Y-94919315D01*
X181534076Y-94862320D01*
X181733654Y-94769256D01*
X181914038Y-94642949D01*
X182069749Y-94487238D01*
X182196056Y-94306854D01*
X182289120Y-94107276D01*
X182346115Y-93894571D01*
X182365307Y-93675200D01*
X182364482Y-93665775D01*
X182349761Y-93497503D01*
X182346115Y-93455829D01*
X182289120Y-93243124D01*
X182276053Y-93215102D01*
X182265562Y-93146028D01*
X182294081Y-93082244D01*
X182352557Y-93044004D01*
X182388436Y-93038700D01*
X184031964Y-93038700D01*
X184099003Y-93058385D01*
X184144758Y-93111189D01*
X184154702Y-93180347D01*
X184144347Y-93215099D01*
X184131280Y-93243124D01*
X184129050Y-93251448D01*
X184074285Y-93455827D01*
X184074284Y-93455834D01*
X184055093Y-93675197D01*
X184055093Y-93675202D01*
X184074284Y-93894565D01*
X184074285Y-93894572D01*
X184079097Y-93912531D01*
X184131280Y-94107276D01*
X184131281Y-94107279D01*
X184131282Y-94107281D01*
X184158009Y-94164597D01*
X184224344Y-94306854D01*
X184350651Y-94487238D01*
X184506362Y-94642949D01*
X184686746Y-94769256D01*
X184886324Y-94862320D01*
X185099029Y-94919315D01*
X185255722Y-94933023D01*
X185318398Y-94938507D01*
X185318400Y-94938507D01*
X185318402Y-94938507D01*
X185373357Y-94933699D01*
X185537771Y-94919315D01*
X185750476Y-94862320D01*
X185950054Y-94769256D01*
X186130438Y-94642949D01*
X186286149Y-94487238D01*
X186412456Y-94306854D01*
X186476018Y-94170544D01*
X186522190Y-94118104D01*
X186589383Y-94098952D01*
X186656265Y-94119167D01*
X186700782Y-94170544D01*
X186764344Y-94306854D01*
X186890651Y-94487238D01*
X187046362Y-94642949D01*
X187226746Y-94769256D01*
X187426324Y-94862320D01*
X187639029Y-94919315D01*
X187795722Y-94933023D01*
X187858398Y-94938507D01*
X187858400Y-94938507D01*
X187858402Y-94938507D01*
X187913357Y-94933699D01*
X188077771Y-94919315D01*
X188290476Y-94862320D01*
X188490054Y-94769256D01*
X188670438Y-94642949D01*
X188826149Y-94487238D01*
X188952456Y-94306854D01*
X189016018Y-94170544D01*
X189062190Y-94118104D01*
X189129383Y-94098952D01*
X189196265Y-94119167D01*
X189240782Y-94170544D01*
X189304344Y-94306854D01*
X189430651Y-94487238D01*
X189586362Y-94642949D01*
X189766746Y-94769256D01*
X189966324Y-94862320D01*
X190179029Y-94919315D01*
X190335722Y-94933023D01*
X190398398Y-94938507D01*
X190398400Y-94938507D01*
X190398402Y-94938507D01*
X190460191Y-94933101D01*
X190581111Y-94922522D01*
X190649610Y-94936289D01*
X190679598Y-94958369D01*
X191271553Y-95550325D01*
X191271557Y-95550328D01*
X191387592Y-95627861D01*
X191387605Y-95627868D01*
X191478767Y-95665628D01*
X191478772Y-95665630D01*
X191516538Y-95681273D01*
X191552054Y-95688337D01*
X191584930Y-95694877D01*
X191584954Y-95694881D01*
X191584978Y-95694886D01*
X191626372Y-95703120D01*
X191653417Y-95708500D01*
X191653418Y-95708500D01*
X193938411Y-95708500D01*
X194006850Y-95694886D01*
X194006851Y-95694886D01*
X194024077Y-95691459D01*
X194075291Y-95681273D01*
X194113056Y-95665630D01*
X194204230Y-95627865D01*
X194320272Y-95550328D01*
X195450581Y-94420019D01*
X195511904Y-94386534D01*
X195538262Y-94383700D01*
X196913602Y-94383700D01*
X196980641Y-94403385D01*
X197015176Y-94436576D01*
X197041268Y-94473838D01*
X197050651Y-94487238D01*
X197206362Y-94642949D01*
X197386746Y-94769256D01*
X197586324Y-94862320D01*
X197799029Y-94919315D01*
X197955722Y-94933023D01*
X198018398Y-94938507D01*
X198018400Y-94938507D01*
X198018402Y-94938507D01*
X198073357Y-94933699D01*
X198237771Y-94919315D01*
X198401396Y-94875471D01*
X198471242Y-94877132D01*
X198529105Y-94916294D01*
X198556610Y-94980522D01*
X198545024Y-95049425D01*
X198521168Y-95082926D01*
X197773915Y-95830181D01*
X197712592Y-95863666D01*
X197686234Y-95866500D01*
X196207309Y-95866500D01*
X196140270Y-95846815D01*
X196115160Y-95825473D01*
X196111254Y-95821135D01*
X195956753Y-95708883D01*
X195956752Y-95708882D01*
X195782288Y-95631206D01*
X195782286Y-95631205D01*
X195595487Y-95591500D01*
X195404513Y-95591500D01*
X195217714Y-95631205D01*
X195217712Y-95631206D01*
X195056188Y-95703121D01*
X195043246Y-95708883D01*
X194888745Y-95821135D01*
X194760959Y-95963057D01*
X194665473Y-96128443D01*
X194665470Y-96128450D01*
X194606459Y-96310068D01*
X194606458Y-96310072D01*
X194586496Y-96500000D01*
X194606458Y-96689928D01*
X194606459Y-96689931D01*
X194665470Y-96871549D01*
X194665473Y-96871556D01*
X194760960Y-97036944D01*
X194888747Y-97178866D01*
X195043248Y-97291118D01*
X195217712Y-97368794D01*
X195404513Y-97408500D01*
X195595487Y-97408500D01*
X195782288Y-97368794D01*
X195956752Y-97291118D01*
X196111253Y-97178866D01*
X196115160Y-97174527D01*
X196174646Y-97137879D01*
X196207309Y-97133500D01*
X198062395Y-97133500D01*
X198062396Y-97133499D01*
X198184785Y-97109155D01*
X198300075Y-97061400D01*
X198403833Y-96992071D01*
X203492071Y-91903833D01*
X203561400Y-91800075D01*
X203609155Y-91684785D01*
X203633500Y-91562394D01*
X203633500Y-91437606D01*
X203633500Y-84701756D01*
X203653185Y-84634717D01*
X203665346Y-84618788D01*
X203739040Y-84536944D01*
X203834527Y-84371556D01*
X203893542Y-84189928D01*
X203913504Y-84000000D01*
X203893542Y-83810072D01*
X203834527Y-83628444D01*
X203739040Y-83463056D01*
X203611253Y-83321134D01*
X203456752Y-83208882D01*
X203282288Y-83131206D01*
X203282286Y-83131205D01*
X203095487Y-83091500D01*
X202904513Y-83091500D01*
X202717714Y-83131205D01*
X202543246Y-83208883D01*
X202388745Y-83321135D01*
X202260959Y-83463057D01*
X202165473Y-83628443D01*
X202165470Y-83628450D01*
X202106459Y-83810068D01*
X202106458Y-83810072D01*
X202086496Y-84000000D01*
X202106458Y-84189928D01*
X202106459Y-84189931D01*
X202165470Y-84371549D01*
X202165473Y-84371556D01*
X202249284Y-84516722D01*
X202260960Y-84536944D01*
X202334649Y-84618784D01*
X202364880Y-84681775D01*
X202366500Y-84701756D01*
X202366500Y-90781583D01*
X202346815Y-90848622D01*
X202294011Y-90894377D01*
X202224853Y-90904321D01*
X202161297Y-90875296D01*
X202150351Y-90864556D01*
X202111254Y-90821135D01*
X202093922Y-90808542D01*
X201956752Y-90708882D01*
X201782288Y-90631206D01*
X201782286Y-90631205D01*
X201595487Y-90591500D01*
X201404513Y-90591500D01*
X201217714Y-90631205D01*
X201043243Y-90708884D01*
X200962129Y-90767818D01*
X200896323Y-90791298D01*
X200889244Y-90791500D01*
X195043816Y-90791500D01*
X195036925Y-90792871D01*
X195036919Y-90792872D01*
X194906945Y-90818725D01*
X194906937Y-90818727D01*
X194831407Y-90850013D01*
X194777995Y-90872136D01*
X194661957Y-90949671D01*
X194661953Y-90949674D01*
X193219597Y-92392030D01*
X193158274Y-92425515D01*
X193121109Y-92427877D01*
X192938402Y-92411893D01*
X192938398Y-92411893D01*
X192719034Y-92431084D01*
X192719027Y-92431085D01*
X192506320Y-92488081D01*
X192306746Y-92581144D01*
X192306742Y-92581146D01*
X192126367Y-92707447D01*
X192126360Y-92707452D01*
X191970652Y-92863160D01*
X191970647Y-92863167D01*
X191844346Y-93043542D01*
X191844344Y-93043546D01*
X191837425Y-93058385D01*
X191796557Y-93146028D01*
X191780782Y-93179857D01*
X191734610Y-93232296D01*
X191667416Y-93251448D01*
X191600535Y-93231232D01*
X191556018Y-93179857D01*
X191492456Y-93043547D01*
X191492454Y-93043544D01*
X191492453Y-93043542D01*
X191401622Y-92913823D01*
X191366149Y-92863162D01*
X191210438Y-92707451D01*
X191030054Y-92581144D01*
X191009501Y-92571560D01*
X190830481Y-92488082D01*
X190830479Y-92488081D01*
X190830476Y-92488080D01*
X190679177Y-92447539D01*
X190617772Y-92431085D01*
X190617765Y-92431084D01*
X190398402Y-92411893D01*
X190398398Y-92411893D01*
X190179034Y-92431084D01*
X190179027Y-92431085D01*
X189966320Y-92488081D01*
X189766746Y-92581144D01*
X189766742Y-92581146D01*
X189586367Y-92707447D01*
X189586360Y-92707452D01*
X189430652Y-92863160D01*
X189430647Y-92863167D01*
X189304346Y-93043542D01*
X189304344Y-93043546D01*
X189297425Y-93058385D01*
X189256557Y-93146028D01*
X189240782Y-93179857D01*
X189194610Y-93232296D01*
X189127416Y-93251448D01*
X189060535Y-93231232D01*
X189016018Y-93179857D01*
X188952456Y-93043547D01*
X188952454Y-93043544D01*
X188952453Y-93043542D01*
X188861622Y-92913823D01*
X188826149Y-92863162D01*
X188670438Y-92707451D01*
X188490054Y-92581144D01*
X188469501Y-92571560D01*
X188290481Y-92488082D01*
X188290479Y-92488081D01*
X188290476Y-92488080D01*
X188139177Y-92447539D01*
X188077772Y-92431085D01*
X188077765Y-92431084D01*
X187858402Y-92411893D01*
X187858398Y-92411893D01*
X187729031Y-92423211D01*
X187639029Y-92431085D01*
X187639026Y-92431085D01*
X187606567Y-92439783D01*
X187536717Y-92438120D01*
X187486793Y-92407689D01*
X187282542Y-92203438D01*
X187282540Y-92203435D01*
X187258219Y-92179114D01*
X187224734Y-92117791D01*
X187221900Y-92091433D01*
X187221900Y-89872258D01*
X187241585Y-89805219D01*
X187294389Y-89759464D01*
X187363547Y-89749520D01*
X187398306Y-89759877D01*
X187429235Y-89774300D01*
X187429249Y-89774305D01*
X187640505Y-89830910D01*
X187640515Y-89830912D01*
X187858399Y-89849975D01*
X187858401Y-89849975D01*
X188076284Y-89830912D01*
X188076294Y-89830910D01*
X188287550Y-89774305D01*
X188287564Y-89774300D01*
X188485783Y-89681869D01*
X188485785Y-89681868D01*
X188547970Y-89638324D01*
X187987808Y-89078162D01*
X188051393Y-89061125D01*
X188165407Y-88995299D01*
X188258499Y-88902207D01*
X188324325Y-88788193D01*
X188341362Y-88724609D01*
X188901524Y-89284770D01*
X188945068Y-89222585D01*
X188945069Y-89222583D01*
X189011329Y-89080488D01*
X189057501Y-89028048D01*
X189124694Y-89008896D01*
X189191575Y-89029111D01*
X189236092Y-89080487D01*
X189304344Y-89226854D01*
X189430651Y-89407238D01*
X189586362Y-89562949D01*
X189766746Y-89689256D01*
X189966324Y-89782320D01*
X190179029Y-89839315D01*
X190335722Y-89853023D01*
X190398398Y-89858507D01*
X190398400Y-89858507D01*
X190398402Y-89858507D01*
X190459884Y-89853128D01*
X190617771Y-89839315D01*
X190830476Y-89782320D01*
X191030054Y-89689256D01*
X191210438Y-89562949D01*
X191366149Y-89407238D01*
X191492456Y-89226854D01*
X191556018Y-89090544D01*
X191602190Y-89038104D01*
X191669383Y-89018952D01*
X191736265Y-89039167D01*
X191780782Y-89090544D01*
X191844344Y-89226854D01*
X191970651Y-89407238D01*
X192126362Y-89562949D01*
X192306746Y-89689256D01*
X192506324Y-89782320D01*
X192719029Y-89839315D01*
X192875722Y-89853023D01*
X192938398Y-89858507D01*
X192938400Y-89858507D01*
X192938402Y-89858507D01*
X192999884Y-89853128D01*
X193157771Y-89839315D01*
X193370476Y-89782320D01*
X193570054Y-89689256D01*
X193750438Y-89562949D01*
X193906149Y-89407238D01*
X194032456Y-89226854D01*
X194125520Y-89027276D01*
X194182515Y-88814571D01*
X194201707Y-88595200D01*
X194201113Y-88588414D01*
X194192759Y-88492927D01*
X194182515Y-88375829D01*
X194125520Y-88163124D01*
X194032456Y-87963547D01*
X194032454Y-87963544D01*
X194032453Y-87963542D01*
X193969302Y-87873354D01*
X193915520Y-87796545D01*
X196759900Y-87796545D01*
X196759900Y-89393854D01*
X196766411Y-89454402D01*
X196766411Y-89454404D01*
X196817511Y-89591404D01*
X196905139Y-89708461D01*
X197022196Y-89796089D01*
X197159199Y-89847189D01*
X197186450Y-89850118D01*
X197219745Y-89853699D01*
X197219762Y-89853700D01*
X198817038Y-89853700D01*
X198817054Y-89853699D01*
X198844092Y-89850791D01*
X198877601Y-89847189D01*
X199014604Y-89796089D01*
X199131661Y-89708461D01*
X199219289Y-89591404D01*
X199270389Y-89454401D01*
X199273991Y-89420892D01*
X199276899Y-89393854D01*
X199276900Y-89393837D01*
X199276900Y-87796562D01*
X199276899Y-87796545D01*
X199273557Y-87765470D01*
X199270389Y-87735999D01*
X199219289Y-87598996D01*
X199131661Y-87481939D01*
X199014604Y-87394311D01*
X198996735Y-87387646D01*
X198877603Y-87343211D01*
X198817054Y-87336700D01*
X198817038Y-87336700D01*
X197219762Y-87336700D01*
X197219745Y-87336700D01*
X197159197Y-87343211D01*
X197159195Y-87343211D01*
X197022195Y-87394311D01*
X196905139Y-87481939D01*
X196817511Y-87598995D01*
X196766411Y-87735995D01*
X196766411Y-87735997D01*
X196759900Y-87796545D01*
X193915520Y-87796545D01*
X193906149Y-87783162D01*
X193750438Y-87627451D01*
X193570054Y-87501144D01*
X193549501Y-87491560D01*
X193370481Y-87408082D01*
X193370479Y-87408081D01*
X193370476Y-87408080D01*
X193189135Y-87359489D01*
X193157772Y-87351085D01*
X193157765Y-87351084D01*
X192938402Y-87331893D01*
X192938398Y-87331893D01*
X192719034Y-87351084D01*
X192719027Y-87351085D01*
X192506320Y-87408081D01*
X192306746Y-87501144D01*
X192306742Y-87501146D01*
X192126367Y-87627447D01*
X192126360Y-87627452D01*
X191970652Y-87783160D01*
X191970647Y-87783167D01*
X191844346Y-87963542D01*
X191844344Y-87963546D01*
X191844344Y-87963547D01*
X191782954Y-88095200D01*
X191780782Y-88099857D01*
X191734610Y-88152296D01*
X191667416Y-88171448D01*
X191600535Y-88151232D01*
X191556018Y-88099857D01*
X191492456Y-87963547D01*
X191492454Y-87963544D01*
X191492453Y-87963542D01*
X191429302Y-87873354D01*
X191366149Y-87783162D01*
X191210438Y-87627451D01*
X191030054Y-87501144D01*
X191009501Y-87491560D01*
X190830481Y-87408082D01*
X190830479Y-87408081D01*
X190830476Y-87408080D01*
X190649135Y-87359489D01*
X190617772Y-87351085D01*
X190617765Y-87351084D01*
X190398402Y-87331893D01*
X190398398Y-87331893D01*
X190179034Y-87351084D01*
X190179027Y-87351085D01*
X189966320Y-87408081D01*
X189766746Y-87501144D01*
X189766742Y-87501146D01*
X189586367Y-87627447D01*
X189586360Y-87627452D01*
X189430652Y-87783160D01*
X189430647Y-87783167D01*
X189304346Y-87963542D01*
X189304344Y-87963546D01*
X189236093Y-88109912D01*
X189189921Y-88162351D01*
X189122727Y-88181503D01*
X189055846Y-88161287D01*
X189011329Y-88109912D01*
X188945067Y-87967814D01*
X188945066Y-87967812D01*
X188901524Y-87905628D01*
X188901524Y-87905627D01*
X188341362Y-88465789D01*
X188324325Y-88402207D01*
X188258499Y-88288193D01*
X188165407Y-88195101D01*
X188051393Y-88129275D01*
X187987809Y-88112237D01*
X188547971Y-87552074D01*
X188485787Y-87508533D01*
X188287559Y-87416098D01*
X188287550Y-87416094D01*
X188076294Y-87359489D01*
X188076284Y-87359487D01*
X187858401Y-87340425D01*
X187858399Y-87340425D01*
X187640515Y-87359487D01*
X187640505Y-87359489D01*
X187429249Y-87416094D01*
X187429244Y-87416096D01*
X187398304Y-87430524D01*
X187329226Y-87441015D01*
X187265443Y-87412495D01*
X187227203Y-87354018D01*
X187221900Y-87318141D01*
X187221900Y-74969205D01*
X187221899Y-74969201D01*
X187197557Y-74846822D01*
X187197554Y-74846813D01*
X187183568Y-74813047D01*
X187149801Y-74731525D01*
X187149799Y-74731523D01*
X187149799Y-74731521D01*
X187080472Y-74627767D01*
X187080469Y-74627763D01*
X186242558Y-73789854D01*
X186209073Y-73728531D01*
X186210465Y-73670077D01*
X186221743Y-73627989D01*
X186221744Y-73627986D01*
X186241165Y-73406000D01*
X186221744Y-73184014D01*
X186164070Y-72968773D01*
X186069897Y-72766818D01*
X185942084Y-72584283D01*
X185784517Y-72426716D01*
X185784512Y-72426712D01*
X185784509Y-72426710D01*
X185696485Y-72365074D01*
X185652860Y-72310497D01*
X185645668Y-72240999D01*
X185677191Y-72178644D01*
X185737421Y-72143231D01*
X185767609Y-72139500D01*
X185776438Y-72139500D01*
X185776454Y-72139499D01*
X185803492Y-72136591D01*
X185837001Y-72132989D01*
X185974004Y-72081889D01*
X186091061Y-71994261D01*
X186178689Y-71877204D01*
X186229789Y-71740201D01*
X186233813Y-71702771D01*
X186236299Y-71679654D01*
X186236300Y-71679637D01*
X186236300Y-70599989D01*
X195686641Y-70599989D01*
X195686641Y-70600002D01*
X195706063Y-70958234D01*
X195764106Y-71312279D01*
X195764107Y-71312282D01*
X195860082Y-71657955D01*
X195860083Y-71657957D01*
X195992872Y-71991233D01*
X195992881Y-71991251D01*
X195994477Y-71994261D01*
X196146574Y-72281147D01*
X196160928Y-72308220D01*
X196160929Y-72308223D01*
X196362256Y-72605157D01*
X196362264Y-72605167D01*
X196594508Y-72878586D01*
X196594516Y-72878595D01*
X196854977Y-73125317D01*
X197140586Y-73342431D01*
X197447995Y-73527393D01*
X197447997Y-73527394D01*
X197447999Y-73527395D01*
X197448003Y-73527397D01*
X197756402Y-73670077D01*
X197773599Y-73678033D01*
X198113583Y-73792587D01*
X198463958Y-73869711D01*
X198820618Y-73908500D01*
X198820624Y-73908500D01*
X199179376Y-73908500D01*
X199179382Y-73908500D01*
X199536042Y-73869711D01*
X199886417Y-73792587D01*
X200226401Y-73678033D01*
X200552005Y-73527393D01*
X200859414Y-73342431D01*
X201145023Y-73125317D01*
X201405484Y-72878595D01*
X201637742Y-72605159D01*
X201758729Y-72426716D01*
X201839070Y-72308223D01*
X201839070Y-72308221D01*
X201839075Y-72308215D01*
X202007123Y-71991243D01*
X202139915Y-71657961D01*
X202235895Y-71312274D01*
X202293936Y-70958237D01*
X202306734Y-70722187D01*
X202313359Y-70600002D01*
X202313359Y-70599989D01*
X202293936Y-70241765D01*
X202277542Y-70141765D01*
X202235895Y-69887726D01*
X202169921Y-69650111D01*
X202139917Y-69542044D01*
X202139916Y-69542042D01*
X202136256Y-69532857D01*
X202084575Y-69403147D01*
X202007127Y-69208766D01*
X202007118Y-69208748D01*
X201954106Y-69108757D01*
X201839075Y-68891785D01*
X201839071Y-68891779D01*
X201839070Y-68891776D01*
X201637743Y-68594842D01*
X201637735Y-68594832D01*
X201405491Y-68321413D01*
X201405486Y-68321407D01*
X201405484Y-68321405D01*
X201145023Y-68074683D01*
X201145016Y-68074677D01*
X201145013Y-68074675D01*
X201013475Y-67974683D01*
X200859414Y-67857569D01*
X200552005Y-67672607D01*
X200552004Y-67672606D01*
X200552000Y-67672604D01*
X200551996Y-67672602D01*
X200226411Y-67521971D01*
X200226406Y-67521969D01*
X200226401Y-67521967D01*
X200060678Y-67466128D01*
X199886416Y-67407412D01*
X199536040Y-67330288D01*
X199179383Y-67291500D01*
X199179382Y-67291500D01*
X198820618Y-67291500D01*
X198820616Y-67291500D01*
X198463959Y-67330288D01*
X198113583Y-67407412D01*
X197850768Y-67495965D01*
X197773599Y-67521967D01*
X197773596Y-67521968D01*
X197773588Y-67521971D01*
X197448003Y-67672602D01*
X197447999Y-67672604D01*
X197306787Y-67757569D01*
X197140586Y-67857569D01*
X197052060Y-67924864D01*
X196854986Y-68074675D01*
X196854977Y-68074683D01*
X196594513Y-68321407D01*
X196594508Y-68321413D01*
X196362264Y-68594832D01*
X196362256Y-68594842D01*
X196160929Y-68891776D01*
X196160928Y-68891779D01*
X195992881Y-69208748D01*
X195992872Y-69208766D01*
X195860083Y-69542042D01*
X195860082Y-69542044D01*
X195764107Y-69887717D01*
X195764106Y-69887720D01*
X195706063Y-70241765D01*
X195686641Y-70599989D01*
X186236300Y-70599989D01*
X186236300Y-70052362D01*
X186236299Y-70052345D01*
X186232957Y-70021270D01*
X186229789Y-69991799D01*
X186178689Y-69854796D01*
X186091061Y-69737739D01*
X185974004Y-69650111D01*
X185837003Y-69599011D01*
X185776454Y-69592500D01*
X185776438Y-69592500D01*
X184149162Y-69592500D01*
X184149145Y-69592500D01*
X184088597Y-69599011D01*
X184088595Y-69599011D01*
X183951595Y-69650111D01*
X183834539Y-69737739D01*
X183746911Y-69854795D01*
X183695811Y-69991795D01*
X183695811Y-69991797D01*
X183689300Y-70052345D01*
X183689300Y-71679654D01*
X183695811Y-71740202D01*
X183695811Y-71740204D01*
X183746911Y-71877204D01*
X183834539Y-71994261D01*
X183951596Y-72081889D01*
X184088599Y-72132989D01*
X184115850Y-72135918D01*
X184149145Y-72139499D01*
X184149162Y-72139500D01*
X184157992Y-72139500D01*
X184225031Y-72159185D01*
X184270786Y-72211989D01*
X184280730Y-72281147D01*
X184251705Y-72344703D01*
X184229116Y-72365074D01*
X184141082Y-72426716D01*
X183983516Y-72584282D01*
X183855707Y-72766811D01*
X183855703Y-72766817D01*
X183761531Y-72968771D01*
X183761527Y-72968780D01*
X183703857Y-73184009D01*
X183703855Y-73184019D01*
X183684435Y-73405998D01*
X183684435Y-73406001D01*
X183703855Y-73627980D01*
X183703857Y-73627990D01*
X183761527Y-73843219D01*
X183761532Y-73843233D01*
X183855701Y-74045179D01*
X183855707Y-74045189D01*
X183983510Y-74227710D01*
X183983519Y-74227720D01*
X184141079Y-74385280D01*
X184141089Y-74385289D01*
X184303572Y-74499061D01*
X184323617Y-74513097D01*
X184399982Y-74548706D01*
X184431960Y-74563618D01*
X184484400Y-74609790D01*
X184503552Y-74676983D01*
X184483336Y-74743865D01*
X184431961Y-74788382D01*
X184323617Y-74838903D01*
X184323611Y-74838907D01*
X184141082Y-74966716D01*
X183983516Y-75124282D01*
X183855707Y-75306811D01*
X183855703Y-75306817D01*
X183761531Y-75508771D01*
X183761527Y-75508780D01*
X183703857Y-75724009D01*
X183703855Y-75724019D01*
X183684435Y-75945998D01*
X183684435Y-75946001D01*
X183703855Y-76167980D01*
X183703857Y-76167990D01*
X183761527Y-76383219D01*
X183761532Y-76383233D01*
X183855701Y-76585179D01*
X183855707Y-76585189D01*
X183983510Y-76767710D01*
X183983519Y-76767720D01*
X184141079Y-76925280D01*
X184141089Y-76925289D01*
X184230988Y-76988237D01*
X184323617Y-77053097D01*
X184439522Y-77107144D01*
X184442016Y-77108307D01*
X184494456Y-77154479D01*
X184513608Y-77221672D01*
X184493393Y-77288554D01*
X184442018Y-77333071D01*
X184327882Y-77386294D01*
X184262457Y-77432104D01*
X184825224Y-77994871D01*
X184765947Y-78010755D01*
X184649653Y-78077898D01*
X184554698Y-78172853D01*
X184487555Y-78289147D01*
X184471671Y-78348424D01*
X183908904Y-77785657D01*
X183863093Y-77851084D01*
X183769549Y-78051690D01*
X183769545Y-78051699D01*
X183712261Y-78265490D01*
X183712259Y-78265500D01*
X183692968Y-78485999D01*
X183692968Y-78486000D01*
X183712259Y-78706499D01*
X183712261Y-78706509D01*
X183769545Y-78920300D01*
X183769549Y-78920309D01*
X183863095Y-79120919D01*
X183908903Y-79186341D01*
X183908905Y-79186342D01*
X184471671Y-78623575D01*
X184487555Y-78682853D01*
X184554698Y-78799147D01*
X184649653Y-78894102D01*
X184765947Y-78961245D01*
X184825222Y-78977127D01*
X184262456Y-79539894D01*
X184327883Y-79585706D01*
X184327885Y-79585707D01*
X184528490Y-79679250D01*
X184528499Y-79679254D01*
X184742290Y-79736538D01*
X184742300Y-79736540D01*
X184962799Y-79755832D01*
X184962801Y-79755832D01*
X185183299Y-79736540D01*
X185183309Y-79736538D01*
X185397100Y-79679254D01*
X185397109Y-79679250D01*
X185597715Y-79585707D01*
X185759776Y-79472230D01*
X185825982Y-79449903D01*
X185893750Y-79466913D01*
X185941563Y-79517861D01*
X185954900Y-79573805D01*
X185954900Y-87308763D01*
X185935215Y-87375802D01*
X185882411Y-87421557D01*
X185813253Y-87431501D01*
X185778497Y-87421146D01*
X185750479Y-87408081D01*
X185750476Y-87408080D01*
X185569135Y-87359489D01*
X185537772Y-87351085D01*
X185537765Y-87351084D01*
X185318402Y-87331893D01*
X185318398Y-87331893D01*
X185099034Y-87351084D01*
X185099027Y-87351085D01*
X184886320Y-87408081D01*
X184686746Y-87501144D01*
X184686742Y-87501146D01*
X184506367Y-87627447D01*
X184506360Y-87627452D01*
X184350652Y-87783160D01*
X184350647Y-87783167D01*
X184224346Y-87963542D01*
X184224344Y-87963546D01*
X184131281Y-88163120D01*
X184074285Y-88375827D01*
X184074284Y-88375834D01*
X184055093Y-88595197D01*
X184055093Y-88595202D01*
X184059368Y-88644072D01*
X184074285Y-88814571D01*
X184131280Y-89027276D01*
X184131281Y-89027279D01*
X184131282Y-89027281D01*
X184147064Y-89061125D01*
X184224344Y-89226854D01*
X184350651Y-89407238D01*
X184506362Y-89562949D01*
X184686746Y-89689256D01*
X184886324Y-89782320D01*
X185099029Y-89839315D01*
X185255722Y-89853023D01*
X185318398Y-89858507D01*
X185318399Y-89858507D01*
X185318399Y-89858506D01*
X185318400Y-89858507D01*
X185379876Y-89853128D01*
X185448373Y-89866894D01*
X185498557Y-89915509D01*
X185514491Y-89983537D01*
X185491116Y-90049381D01*
X185435855Y-90092135D01*
X185416464Y-90097946D01*
X185340913Y-90114005D01*
X185166446Y-90191683D01*
X185011945Y-90303935D01*
X185008040Y-90308273D01*
X184948554Y-90344921D01*
X184915891Y-90349300D01*
X184319721Y-90349300D01*
X184252682Y-90329615D01*
X184206927Y-90276811D01*
X184196400Y-90238262D01*
X184191504Y-90191682D01*
X184179942Y-90081672D01*
X184120927Y-89900044D01*
X184025440Y-89734656D01*
X183897653Y-89592734D01*
X183743152Y-89480482D01*
X183568688Y-89402806D01*
X183568686Y-89402805D01*
X183381887Y-89363100D01*
X183190913Y-89363100D01*
X183004114Y-89402805D01*
X182916880Y-89441644D01*
X182888221Y-89454404D01*
X182829646Y-89480483D01*
X182675145Y-89592735D01*
X182547359Y-89734657D01*
X182451873Y-89900043D01*
X182451870Y-89900050D01*
X182424744Y-89983537D01*
X182392858Y-90081672D01*
X182372896Y-90271600D01*
X182392858Y-90461528D01*
X182392859Y-90461531D01*
X182451870Y-90643149D01*
X182451873Y-90643156D01*
X182547360Y-90808544D01*
X182675147Y-90950466D01*
X182829648Y-91062718D01*
X183004112Y-91140394D01*
X183190913Y-91180100D01*
X183247633Y-91180100D01*
X183314672Y-91199785D01*
X183335314Y-91216419D01*
X183593763Y-91474869D01*
X183593767Y-91474872D01*
X183698118Y-91544598D01*
X183742923Y-91598210D01*
X183751630Y-91667535D01*
X183721475Y-91730563D01*
X183662032Y-91767282D01*
X183629227Y-91771700D01*
X179769601Y-91771700D01*
X179647222Y-91796043D01*
X179647214Y-91796045D01*
X179531927Y-91843798D01*
X179531918Y-91843803D01*
X179428167Y-91913128D01*
X179428163Y-91913131D01*
X178933606Y-92407688D01*
X178872283Y-92441173D01*
X178813834Y-92439783D01*
X178781372Y-92431085D01*
X178781365Y-92431084D01*
X178562002Y-92411893D01*
X178561998Y-92411893D01*
X178342634Y-92431084D01*
X178342627Y-92431085D01*
X178129920Y-92488081D01*
X178127299Y-92489304D01*
X178126031Y-92489496D01*
X178124832Y-92489933D01*
X178124744Y-92489691D01*
X178058221Y-92499792D01*
X177994439Y-92471269D01*
X177956202Y-92412791D01*
X177950900Y-92376919D01*
X177950900Y-89884102D01*
X177970585Y-89817063D01*
X178023389Y-89771308D01*
X178092547Y-89761364D01*
X178127312Y-89771723D01*
X178132846Y-89774304D01*
X178132849Y-89774305D01*
X178344105Y-89830910D01*
X178344115Y-89830912D01*
X178561999Y-89849975D01*
X178562001Y-89849975D01*
X178779884Y-89830912D01*
X178779894Y-89830910D01*
X178991150Y-89774305D01*
X178991164Y-89774300D01*
X179189383Y-89681869D01*
X179189385Y-89681868D01*
X179251570Y-89638324D01*
X178691408Y-89078162D01*
X178754993Y-89061125D01*
X178869007Y-88995299D01*
X178962099Y-88902207D01*
X179027925Y-88788193D01*
X179044962Y-88724609D01*
X179605124Y-89284770D01*
X179648668Y-89222585D01*
X179648669Y-89222583D01*
X179714929Y-89080488D01*
X179761101Y-89028048D01*
X179828294Y-89008896D01*
X179895175Y-89029111D01*
X179939692Y-89080487D01*
X180007944Y-89226854D01*
X180134251Y-89407238D01*
X180289962Y-89562949D01*
X180470346Y-89689256D01*
X180669924Y-89782320D01*
X180882629Y-89839315D01*
X181039322Y-89853023D01*
X181101998Y-89858507D01*
X181102000Y-89858507D01*
X181102002Y-89858507D01*
X181163484Y-89853128D01*
X181321371Y-89839315D01*
X181534076Y-89782320D01*
X181733654Y-89689256D01*
X181914038Y-89562949D01*
X182069749Y-89407238D01*
X182196056Y-89226854D01*
X182289120Y-89027276D01*
X182346115Y-88814571D01*
X182365307Y-88595200D01*
X182364713Y-88588414D01*
X182356359Y-88492927D01*
X182346115Y-88375829D01*
X182289120Y-88163124D01*
X182196056Y-87963547D01*
X182196054Y-87963544D01*
X182196053Y-87963542D01*
X182132902Y-87873354D01*
X182069749Y-87783162D01*
X181914038Y-87627451D01*
X181733654Y-87501144D01*
X181713101Y-87491560D01*
X181534081Y-87408082D01*
X181534079Y-87408081D01*
X181534076Y-87408080D01*
X181352735Y-87359489D01*
X181321372Y-87351085D01*
X181321365Y-87351084D01*
X181102002Y-87331893D01*
X181101998Y-87331893D01*
X180882634Y-87351084D01*
X180882627Y-87351085D01*
X180669920Y-87408081D01*
X180470346Y-87501144D01*
X180470342Y-87501146D01*
X180289967Y-87627447D01*
X180289960Y-87627452D01*
X180134252Y-87783160D01*
X180134247Y-87783167D01*
X180007946Y-87963542D01*
X180007944Y-87963546D01*
X179939693Y-88109912D01*
X179893521Y-88162351D01*
X179826327Y-88181503D01*
X179759446Y-88161287D01*
X179714929Y-88109912D01*
X179648667Y-87967814D01*
X179648666Y-87967812D01*
X179605124Y-87905628D01*
X179605124Y-87905627D01*
X179044962Y-88465789D01*
X179027925Y-88402207D01*
X178962099Y-88288193D01*
X178869007Y-88195101D01*
X178754993Y-88129275D01*
X178691409Y-88112237D01*
X179251571Y-87552074D01*
X179189387Y-87508533D01*
X178991159Y-87416098D01*
X178991150Y-87416094D01*
X178779894Y-87359489D01*
X178779884Y-87359487D01*
X178562001Y-87340425D01*
X178561999Y-87340425D01*
X178344115Y-87359487D01*
X178344105Y-87359489D01*
X178132849Y-87416094D01*
X178132844Y-87416096D01*
X178127304Y-87418680D01*
X178058226Y-87429171D01*
X177994442Y-87400650D01*
X177956203Y-87342174D01*
X177950900Y-87306297D01*
X177950900Y-85154605D01*
X177950899Y-85154601D01*
X177926556Y-85032222D01*
X177926555Y-85032215D01*
X177889618Y-84943043D01*
X177878801Y-84916927D01*
X177878796Y-84916918D01*
X177809472Y-84813168D01*
X177790605Y-84794301D01*
X177721233Y-84724929D01*
X173847019Y-80850715D01*
X173813534Y-80789392D01*
X173810700Y-80763034D01*
X173810700Y-80762556D01*
X173830385Y-80695517D01*
X173842546Y-80679588D01*
X173916240Y-80597744D01*
X174011727Y-80432356D01*
X174070742Y-80250728D01*
X174090704Y-80060800D01*
X174070742Y-79870872D01*
X174011727Y-79689244D01*
X173916240Y-79523856D01*
X173788453Y-79381934D01*
X173633952Y-79269682D01*
X173633951Y-79269681D01*
X173520849Y-79219325D01*
X173467612Y-79174075D01*
X173447291Y-79107226D01*
X173466336Y-79040002D01*
X173483604Y-79018365D01*
X173819117Y-78682853D01*
X174257151Y-78244819D01*
X174318474Y-78211334D01*
X174344832Y-78208500D01*
X178389244Y-78208500D01*
X178456283Y-78228185D01*
X178462129Y-78232182D01*
X178543243Y-78291115D01*
X178543245Y-78291116D01*
X178543248Y-78291118D01*
X178717712Y-78368794D01*
X178904513Y-78408500D01*
X179095487Y-78408500D01*
X179282288Y-78368794D01*
X179456752Y-78291118D01*
X179611253Y-78178866D01*
X179739040Y-78036944D01*
X179834527Y-77871556D01*
X179893542Y-77689928D01*
X179913504Y-77500000D01*
X179893542Y-77310072D01*
X179834527Y-77128444D01*
X179739040Y-76963056D01*
X179611253Y-76821134D01*
X179456752Y-76708882D01*
X179282288Y-76631206D01*
X179282286Y-76631205D01*
X179095487Y-76591500D01*
X178904513Y-76591500D01*
X178717714Y-76631205D01*
X178543243Y-76708884D01*
X178462129Y-76767818D01*
X178396323Y-76791298D01*
X178389244Y-76791500D01*
X173930214Y-76791500D01*
X173793345Y-76818725D01*
X173793337Y-76818727D01*
X173759665Y-76832675D01*
X173664402Y-76872133D01*
X173664393Y-76872138D01*
X173548358Y-76949671D01*
X173548354Y-76949674D01*
X170449674Y-80048353D01*
X170449671Y-80048357D01*
X170372136Y-80164395D01*
X170336377Y-80250727D01*
X170318728Y-80293333D01*
X170318725Y-80293345D01*
X170291500Y-80430214D01*
X170291500Y-90732367D01*
X170271815Y-90799406D01*
X170255181Y-90820048D01*
X168694848Y-92380381D01*
X168633525Y-92413866D01*
X168607167Y-92416700D01*
X167603345Y-92416700D01*
X167542797Y-92423211D01*
X167542795Y-92423211D01*
X167405795Y-92474311D01*
X167288739Y-92561939D01*
X167201111Y-92678995D01*
X167150011Y-92815995D01*
X167150011Y-92815997D01*
X167143500Y-92876545D01*
X167143500Y-94473854D01*
X167150011Y-94534402D01*
X167150011Y-94534404D01*
X167201111Y-94671404D01*
X167288739Y-94788461D01*
X167405796Y-94876089D01*
X167542799Y-94927189D01*
X167570050Y-94930118D01*
X167603345Y-94933699D01*
X167603362Y-94933700D01*
X168607167Y-94933700D01*
X168674206Y-94953385D01*
X168694848Y-94970019D01*
X169666932Y-95942102D01*
X169700417Y-96003425D01*
X169695433Y-96073116D01*
X169686640Y-96091780D01*
X169665473Y-96128443D01*
X169665470Y-96128450D01*
X169606459Y-96310068D01*
X169606458Y-96310072D01*
X169596113Y-96408500D01*
X169589019Y-96475996D01*
X169562434Y-96540610D01*
X169553379Y-96550715D01*
X164973915Y-101130181D01*
X164912592Y-101163666D01*
X164886234Y-101166500D01*
X163507309Y-101166500D01*
X163440270Y-101146815D01*
X163415160Y-101125473D01*
X163411254Y-101121135D01*
X163393074Y-101107926D01*
X163256752Y-101008882D01*
X163082288Y-100931206D01*
X163082286Y-100931205D01*
X162895487Y-100891500D01*
X162704513Y-100891500D01*
X162517714Y-100931205D01*
X162343246Y-101008883D01*
X162188745Y-101121135D01*
X162060959Y-101263057D01*
X161965473Y-101428443D01*
X161965470Y-101428450D01*
X161938975Y-101509995D01*
X161906458Y-101610072D01*
X161886496Y-101800000D01*
X161906458Y-101989928D01*
X161906459Y-101989931D01*
X161965470Y-102171549D01*
X161965473Y-102171556D01*
X162060960Y-102336944D01*
X162188747Y-102478866D01*
X162343248Y-102591118D01*
X162517712Y-102668794D01*
X162704513Y-102708500D01*
X162895487Y-102708500D01*
X163082288Y-102668794D01*
X163256752Y-102591118D01*
X163411253Y-102478866D01*
X163415160Y-102474527D01*
X163474646Y-102437879D01*
X163507309Y-102433500D01*
X165262395Y-102433500D01*
X165262396Y-102433499D01*
X165384785Y-102409155D01*
X165500075Y-102361400D01*
X165603833Y-102292071D01*
X170451085Y-97444819D01*
X170512408Y-97411334D01*
X170538766Y-97408500D01*
X170595487Y-97408500D01*
X170782288Y-97368794D01*
X170956752Y-97291118D01*
X171111253Y-97178866D01*
X171239040Y-97036944D01*
X171334527Y-96871556D01*
X171393542Y-96689928D01*
X171413504Y-96500000D01*
X171397261Y-96345459D01*
X171409830Y-96276732D01*
X171457562Y-96225708D01*
X171520582Y-96208500D01*
X173389244Y-96208500D01*
X173456283Y-96228185D01*
X173462129Y-96232182D01*
X173543243Y-96291115D01*
X173543245Y-96291116D01*
X173543248Y-96291118D01*
X173717712Y-96368794D01*
X173904513Y-96408500D01*
X174095487Y-96408500D01*
X174282288Y-96368794D01*
X174456752Y-96291118D01*
X174611253Y-96178866D01*
X174739040Y-96036944D01*
X174834527Y-95871556D01*
X174893542Y-95689928D01*
X174901337Y-95615758D01*
X174927920Y-95551147D01*
X174985217Y-95511162D01*
X175055036Y-95508502D01*
X175112338Y-95541042D01*
X181155363Y-101584069D01*
X181155366Y-101584072D01*
X181227660Y-101632377D01*
X181259125Y-101653401D01*
X181321814Y-101679367D01*
X181374415Y-101701155D01*
X181496801Y-101725499D01*
X181496805Y-101725500D01*
X181496806Y-101725500D01*
X181496807Y-101725500D01*
X181621594Y-101725500D01*
X182579091Y-101725500D01*
X182646130Y-101745185D01*
X182671240Y-101766527D01*
X182675147Y-101770866D01*
X182829648Y-101883118D01*
X183004112Y-101960794D01*
X183190913Y-102000500D01*
X183247634Y-102000500D01*
X183314673Y-102020185D01*
X183335315Y-102036819D01*
X184825515Y-103527019D01*
X184859000Y-103588342D01*
X184854016Y-103658034D01*
X184812144Y-103713967D01*
X184746680Y-103738384D01*
X184737834Y-103738700D01*
X158532560Y-103738700D01*
X158465521Y-103719015D01*
X158419766Y-103666211D01*
X158408942Y-103624429D01*
X158397876Y-103483823D01*
X158394572Y-103441843D01*
X158337305Y-103203308D01*
X158287682Y-103083508D01*
X158243428Y-102976669D01*
X158115253Y-102767506D01*
X158115252Y-102767504D01*
X157955933Y-102580967D01*
X157769396Y-102421648D01*
X157749011Y-102409156D01*
X157560230Y-102293471D01*
X157333587Y-102199593D01*
X157095053Y-102142327D01*
X157095054Y-102142327D01*
X156850500Y-102123081D01*
X156605945Y-102142327D01*
X156367412Y-102199593D01*
X156140769Y-102293471D01*
X155931606Y-102421646D01*
X155745067Y-102580967D01*
X155585746Y-102767506D01*
X155457571Y-102976669D01*
X155363693Y-103203312D01*
X155306427Y-103441845D01*
X155287181Y-103686400D01*
X152413819Y-103686400D01*
X152394572Y-103441843D01*
X152337305Y-103203308D01*
X152287682Y-103083508D01*
X152243428Y-102976669D01*
X152115253Y-102767506D01*
X152115252Y-102767504D01*
X152064858Y-102708500D01*
X152038209Y-102677298D01*
X152009639Y-102613537D01*
X152008500Y-102596767D01*
X152008500Y-99186392D01*
X157337261Y-99186392D01*
X157337261Y-99186407D01*
X157356194Y-99475269D01*
X157356195Y-99475279D01*
X157356196Y-99475286D01*
X157409203Y-99741775D01*
X157412674Y-99759222D01*
X157412677Y-99759236D01*
X157505732Y-100033365D01*
X157505741Y-100033386D01*
X157633779Y-100293021D01*
X157794614Y-100533729D01*
X157794616Y-100533731D01*
X157794619Y-100533735D01*
X157985504Y-100751396D01*
X158203165Y-100942281D01*
X158203168Y-100942283D01*
X158203170Y-100942285D01*
X158443878Y-101103120D01*
X158703513Y-101231158D01*
X158703518Y-101231160D01*
X158703530Y-101231166D01*
X158977672Y-101324225D01*
X159261614Y-101380704D01*
X159289358Y-101382522D01*
X159550493Y-101399639D01*
X159550500Y-101399639D01*
X159550507Y-101399639D01*
X159781774Y-101384480D01*
X159839386Y-101380704D01*
X160123328Y-101324225D01*
X160397470Y-101231166D01*
X160657120Y-101103121D01*
X160897835Y-100942281D01*
X161115496Y-100751396D01*
X161306381Y-100533735D01*
X161467221Y-100293020D01*
X161595266Y-100033370D01*
X161688325Y-99759228D01*
X161744804Y-99475286D01*
X161763739Y-99186400D01*
X161763739Y-99186392D01*
X161744805Y-98897530D01*
X161744804Y-98897514D01*
X161688325Y-98613572D01*
X161595266Y-98339430D01*
X161467221Y-98079781D01*
X161306381Y-97839065D01*
X161115496Y-97621404D01*
X160897835Y-97430519D01*
X160897831Y-97430516D01*
X160897829Y-97430514D01*
X160657121Y-97269679D01*
X160428156Y-97156766D01*
X160376737Y-97109461D01*
X160359000Y-97045554D01*
X160359000Y-88595197D01*
X167138693Y-88595197D01*
X167138693Y-88595202D01*
X167142968Y-88644072D01*
X167157885Y-88814571D01*
X167214880Y-89027276D01*
X167214881Y-89027279D01*
X167214882Y-89027281D01*
X167230664Y-89061125D01*
X167307944Y-89226854D01*
X167434251Y-89407238D01*
X167589962Y-89562949D01*
X167770346Y-89689256D01*
X167969924Y-89782320D01*
X168182629Y-89839315D01*
X168339322Y-89853023D01*
X168401998Y-89858507D01*
X168402000Y-89858507D01*
X168402002Y-89858507D01*
X168463484Y-89853128D01*
X168621371Y-89839315D01*
X168834076Y-89782320D01*
X169033654Y-89689256D01*
X169214038Y-89562949D01*
X169369749Y-89407238D01*
X169496056Y-89226854D01*
X169589120Y-89027276D01*
X169646115Y-88814571D01*
X169665307Y-88595200D01*
X169664713Y-88588414D01*
X169656359Y-88492927D01*
X169646115Y-88375829D01*
X169589120Y-88163124D01*
X169496056Y-87963547D01*
X169496054Y-87963544D01*
X169496053Y-87963542D01*
X169432902Y-87873354D01*
X169369749Y-87783162D01*
X169214038Y-87627451D01*
X169033654Y-87501144D01*
X169013101Y-87491560D01*
X168834081Y-87408082D01*
X168834079Y-87408081D01*
X168834076Y-87408080D01*
X168652735Y-87359489D01*
X168621372Y-87351085D01*
X168621365Y-87351084D01*
X168402002Y-87331893D01*
X168401998Y-87331893D01*
X168182634Y-87351084D01*
X168182627Y-87351085D01*
X167969920Y-87408081D01*
X167770346Y-87501144D01*
X167770342Y-87501146D01*
X167589967Y-87627447D01*
X167589960Y-87627452D01*
X167434252Y-87783160D01*
X167434247Y-87783167D01*
X167307946Y-87963542D01*
X167307944Y-87963546D01*
X167214881Y-88163120D01*
X167157885Y-88375827D01*
X167157884Y-88375834D01*
X167138693Y-88595197D01*
X160359000Y-88595197D01*
X160359000Y-84763485D01*
X160378685Y-84696446D01*
X160431489Y-84650691D01*
X160443146Y-84646064D01*
X160446970Y-84644766D01*
X160706620Y-84516721D01*
X160947335Y-84355881D01*
X161164996Y-84164996D01*
X161355881Y-83947335D01*
X161516721Y-83706620D01*
X161644766Y-83446970D01*
X161737825Y-83172828D01*
X161794304Y-82888886D01*
X161813239Y-82600000D01*
X161813239Y-82599992D01*
X161794305Y-82311130D01*
X161794304Y-82311114D01*
X161737825Y-82027172D01*
X161644766Y-81753030D01*
X161516721Y-81493381D01*
X161508202Y-81480632D01*
X161355882Y-81252666D01*
X161256372Y-81139198D01*
X161164996Y-81035004D01*
X160947335Y-80844119D01*
X160947331Y-80844116D01*
X160947329Y-80844114D01*
X160706621Y-80683279D01*
X160446986Y-80555241D01*
X160446965Y-80555232D01*
X160172836Y-80462177D01*
X160172830Y-80462175D01*
X160172828Y-80462175D01*
X159888886Y-80405696D01*
X159888879Y-80405695D01*
X159888869Y-80405694D01*
X159600007Y-80386761D01*
X159599993Y-80386761D01*
X159311130Y-80405694D01*
X159311118Y-80405695D01*
X159311114Y-80405696D01*
X159311106Y-80405697D01*
X159311103Y-80405698D01*
X159027177Y-80462174D01*
X159027163Y-80462177D01*
X158753026Y-80555235D01*
X158493376Y-80683281D01*
X158252666Y-80844117D01*
X158035004Y-81035004D01*
X157844117Y-81252666D01*
X157683281Y-81493376D01*
X157555235Y-81753026D01*
X157462177Y-82027163D01*
X157462174Y-82027177D01*
X157405698Y-82311103D01*
X157405694Y-82311130D01*
X157386761Y-82599992D01*
X157386761Y-82600007D01*
X157405694Y-82888869D01*
X157405695Y-82888879D01*
X157405696Y-82888886D01*
X157405698Y-82888896D01*
X157462174Y-83172822D01*
X157462177Y-83172836D01*
X157555232Y-83446965D01*
X157555241Y-83446986D01*
X157683279Y-83706621D01*
X157844114Y-83947329D01*
X157844116Y-83947331D01*
X157844119Y-83947335D01*
X158035004Y-84164996D01*
X158252665Y-84355881D01*
X158252668Y-84355883D01*
X158252670Y-84355885D01*
X158493381Y-84516722D01*
X158672843Y-84605222D01*
X158724263Y-84652527D01*
X158742000Y-84716434D01*
X158742000Y-97045554D01*
X158722315Y-97112593D01*
X158672844Y-97156766D01*
X158443876Y-97269681D01*
X158203166Y-97430517D01*
X157985504Y-97621404D01*
X157794617Y-97839066D01*
X157633781Y-98079776D01*
X157505735Y-98339426D01*
X157412677Y-98613563D01*
X157412674Y-98613577D01*
X157356198Y-98897503D01*
X157356194Y-98897530D01*
X157337261Y-99186392D01*
X152008500Y-99186392D01*
X152008500Y-95364993D01*
X152028185Y-95297954D01*
X152080989Y-95252199D01*
X152150147Y-95242255D01*
X152213703Y-95271280D01*
X152225720Y-95283226D01*
X152285504Y-95351396D01*
X152503165Y-95542281D01*
X152503168Y-95542283D01*
X152503170Y-95542285D01*
X152743878Y-95703120D01*
X153003513Y-95831158D01*
X153003518Y-95831160D01*
X153003530Y-95831166D01*
X153277672Y-95924225D01*
X153561614Y-95980704D01*
X153589358Y-95982522D01*
X153850493Y-95999639D01*
X153850500Y-95999639D01*
X153850507Y-95999639D01*
X154081774Y-95984480D01*
X154139386Y-95980704D01*
X154423328Y-95924225D01*
X154697470Y-95831166D01*
X154957120Y-95703121D01*
X155197835Y-95542281D01*
X155415496Y-95351396D01*
X155606381Y-95133735D01*
X155767221Y-94893020D01*
X155895266Y-94633370D01*
X155988325Y-94359228D01*
X156044804Y-94075286D01*
X156051833Y-93968048D01*
X156063739Y-93786407D01*
X156063739Y-93786392D01*
X156044805Y-93497530D01*
X156044804Y-93497514D01*
X155988325Y-93213572D01*
X155895266Y-92939430D01*
X155767221Y-92679781D01*
X155766696Y-92678996D01*
X155606382Y-92439066D01*
X155547458Y-92371877D01*
X155415496Y-92221404D01*
X155197835Y-92030519D01*
X155197831Y-92030516D01*
X155197829Y-92030514D01*
X154957121Y-91869679D01*
X154697486Y-91741641D01*
X154697465Y-91741632D01*
X154423336Y-91648577D01*
X154423330Y-91648575D01*
X154423328Y-91648575D01*
X154139386Y-91592096D01*
X154139379Y-91592095D01*
X154139369Y-91592094D01*
X153850507Y-91573161D01*
X153850493Y-91573161D01*
X153561630Y-91592094D01*
X153561618Y-91592095D01*
X153561614Y-91592096D01*
X153561606Y-91592097D01*
X153561603Y-91592098D01*
X153277677Y-91648574D01*
X153277663Y-91648577D01*
X153003526Y-91741635D01*
X152743876Y-91869681D01*
X152503166Y-92030517D01*
X152285508Y-92221400D01*
X152285506Y-92221402D01*
X152285504Y-92221404D01*
X152225725Y-92289567D01*
X152166725Y-92326989D01*
X152096857Y-92326573D01*
X152038305Y-92288449D01*
X152009659Y-92224722D01*
X152008500Y-92207806D01*
X152008500Y-88247588D01*
X152028185Y-88180549D01*
X152038210Y-88167056D01*
X152164752Y-88018896D01*
X152292927Y-87809732D01*
X152386805Y-87583092D01*
X152444072Y-87344557D01*
X152463319Y-87100000D01*
X155336681Y-87100000D01*
X155355927Y-87344554D01*
X155413193Y-87583087D01*
X155507071Y-87809730D01*
X155601330Y-87963547D01*
X155635248Y-88018896D01*
X155794567Y-88205433D01*
X155981104Y-88364752D01*
X156042225Y-88402207D01*
X156190269Y-88492928D01*
X156278258Y-88529374D01*
X156416908Y-88586805D01*
X156655443Y-88644072D01*
X156900000Y-88663319D01*
X157144557Y-88644072D01*
X157383092Y-88586805D01*
X157578438Y-88505889D01*
X157609730Y-88492928D01*
X157609732Y-88492927D01*
X157818896Y-88364752D01*
X158005433Y-88205433D01*
X158164752Y-88018896D01*
X158292927Y-87809732D01*
X158386805Y-87583092D01*
X158444072Y-87344557D01*
X158463319Y-87100000D01*
X158444072Y-86855443D01*
X158386805Y-86616908D01*
X158314259Y-86441767D01*
X158292928Y-86390269D01*
X158164753Y-86181106D01*
X158164752Y-86181104D01*
X158005433Y-85994567D01*
X157818896Y-85835248D01*
X157818893Y-85835246D01*
X157609730Y-85707071D01*
X157383087Y-85613193D01*
X157144553Y-85555927D01*
X157144554Y-85555927D01*
X156900000Y-85536681D01*
X156655445Y-85555927D01*
X156416912Y-85613193D01*
X156190269Y-85707071D01*
X155981106Y-85835246D01*
X155794567Y-85994567D01*
X155635246Y-86181106D01*
X155507071Y-86390269D01*
X155413193Y-86616912D01*
X155355927Y-86855445D01*
X155336681Y-87100000D01*
X152463319Y-87100000D01*
X152444072Y-86855443D01*
X152386805Y-86616908D01*
X152314259Y-86441767D01*
X152292928Y-86390269D01*
X152164753Y-86181106D01*
X152164752Y-86181104D01*
X152005433Y-85994567D01*
X151818896Y-85835248D01*
X151818893Y-85835246D01*
X151609730Y-85707071D01*
X151383087Y-85613193D01*
X151144553Y-85555927D01*
X151144554Y-85555927D01*
X150900000Y-85536681D01*
X150655445Y-85555927D01*
X150416912Y-85613193D01*
X150190269Y-85707071D01*
X149981106Y-85835246D01*
X149794567Y-85994567D01*
X149635246Y-86181106D01*
X149507071Y-86390269D01*
X149413193Y-86616912D01*
X149355927Y-86855445D01*
X149336681Y-87100000D01*
X149355927Y-87344554D01*
X149413193Y-87583087D01*
X149507071Y-87809730D01*
X149601330Y-87963547D01*
X149635248Y-88018896D01*
X149794567Y-88205433D01*
X149981104Y-88364752D01*
X150190268Y-88492927D01*
X150190270Y-88492927D01*
X150190272Y-88492929D01*
X150190271Y-88492929D01*
X150314952Y-88544573D01*
X150369356Y-88588414D01*
X150391421Y-88654708D01*
X150391500Y-88659134D01*
X150391500Y-97327934D01*
X150371815Y-97394973D01*
X150319011Y-97440728D01*
X150249853Y-97450672D01*
X150198609Y-97431036D01*
X149957121Y-97269679D01*
X149697486Y-97141641D01*
X149697465Y-97141632D01*
X149423336Y-97048577D01*
X149423330Y-97048575D01*
X149423328Y-97048575D01*
X149139386Y-96992096D01*
X149139379Y-96992095D01*
X149139369Y-96992094D01*
X148850507Y-96973161D01*
X148850493Y-96973161D01*
X148561630Y-96992094D01*
X148561618Y-96992095D01*
X148561614Y-96992096D01*
X148561606Y-96992097D01*
X148561603Y-96992098D01*
X148277677Y-97048574D01*
X148277663Y-97048577D01*
X148003526Y-97141635D01*
X147743876Y-97269681D01*
X147503166Y-97430517D01*
X147285504Y-97621404D01*
X147094617Y-97839066D01*
X146933781Y-98079776D01*
X146805735Y-98339426D01*
X146712677Y-98613563D01*
X146712674Y-98613577D01*
X146656198Y-98897503D01*
X146656194Y-98897530D01*
X146637261Y-99186392D01*
X144412200Y-99186392D01*
X144412200Y-82599992D01*
X146686761Y-82599992D01*
X146686761Y-82600007D01*
X146705694Y-82888869D01*
X146705695Y-82888879D01*
X146705696Y-82888886D01*
X146705698Y-82888896D01*
X146762174Y-83172822D01*
X146762177Y-83172836D01*
X146855232Y-83446965D01*
X146855241Y-83446986D01*
X146983279Y-83706621D01*
X147144114Y-83947329D01*
X147144116Y-83947331D01*
X147144119Y-83947335D01*
X147335004Y-84164996D01*
X147552665Y-84355881D01*
X147552668Y-84355883D01*
X147552670Y-84355885D01*
X147793378Y-84516720D01*
X148053013Y-84644758D01*
X148053018Y-84644760D01*
X148053030Y-84644766D01*
X148327172Y-84737825D01*
X148611114Y-84794304D01*
X148638858Y-84796122D01*
X148899993Y-84813239D01*
X148900000Y-84813239D01*
X148900007Y-84813239D01*
X149131274Y-84798080D01*
X149188886Y-84794304D01*
X149472828Y-84737825D01*
X149746970Y-84644766D01*
X150006620Y-84516721D01*
X150247335Y-84355881D01*
X150464996Y-84164996D01*
X150655881Y-83947335D01*
X150816721Y-83706620D01*
X150944766Y-83446970D01*
X151037825Y-83172828D01*
X151094304Y-82888886D01*
X151113239Y-82600000D01*
X151113239Y-82599992D01*
X151094305Y-82311130D01*
X151094304Y-82311114D01*
X151037825Y-82027172D01*
X150944766Y-81753030D01*
X150816721Y-81493381D01*
X150808202Y-81480632D01*
X150655882Y-81252666D01*
X150556372Y-81139198D01*
X150464996Y-81035004D01*
X150247335Y-80844119D01*
X150247331Y-80844116D01*
X150247329Y-80844114D01*
X150006621Y-80683279D01*
X149746986Y-80555241D01*
X149746965Y-80555232D01*
X149472836Y-80462177D01*
X149472830Y-80462175D01*
X149472828Y-80462175D01*
X149188886Y-80405696D01*
X149188879Y-80405695D01*
X149188869Y-80405694D01*
X148900007Y-80386761D01*
X148899993Y-80386761D01*
X148611130Y-80405694D01*
X148611118Y-80405695D01*
X148611114Y-80405696D01*
X148611106Y-80405697D01*
X148611103Y-80405698D01*
X148327177Y-80462174D01*
X148327163Y-80462177D01*
X148053026Y-80555235D01*
X147793376Y-80683281D01*
X147552666Y-80844117D01*
X147335004Y-81035004D01*
X147144117Y-81252666D01*
X146983281Y-81493376D01*
X146855235Y-81753026D01*
X146762177Y-82027163D01*
X146762174Y-82027177D01*
X146705698Y-82311103D01*
X146705694Y-82311130D01*
X146686761Y-82599992D01*
X144412200Y-82599992D01*
X144412200Y-77199992D01*
X151686761Y-77199992D01*
X151686761Y-77200007D01*
X151705694Y-77488869D01*
X151705695Y-77488879D01*
X151705696Y-77488886D01*
X151705698Y-77488896D01*
X151762174Y-77772822D01*
X151762177Y-77772836D01*
X151855232Y-78046965D01*
X151855241Y-78046986D01*
X151983279Y-78306621D01*
X152144114Y-78547329D01*
X152144116Y-78547331D01*
X152144119Y-78547335D01*
X152335004Y-78764996D01*
X152552665Y-78955881D01*
X152552668Y-78955883D01*
X152552670Y-78955885D01*
X152793378Y-79116720D01*
X153053013Y-79244758D01*
X153053018Y-79244760D01*
X153053030Y-79244766D01*
X153327172Y-79337825D01*
X153611114Y-79394304D01*
X153638858Y-79396122D01*
X153899993Y-79413239D01*
X153900000Y-79413239D01*
X153900007Y-79413239D01*
X154131274Y-79398080D01*
X154188886Y-79394304D01*
X154472828Y-79337825D01*
X154746970Y-79244766D01*
X155006620Y-79116721D01*
X155247335Y-78955881D01*
X155464996Y-78764996D01*
X155655881Y-78547335D01*
X155816721Y-78306620D01*
X155944766Y-78046970D01*
X156037825Y-77772828D01*
X156094304Y-77488886D01*
X156101028Y-77386294D01*
X156113239Y-77200007D01*
X156113239Y-77199992D01*
X156095233Y-76925284D01*
X156094304Y-76911114D01*
X156037825Y-76627172D01*
X155944766Y-76353030D01*
X155816721Y-76093381D01*
X155655881Y-75852665D01*
X155464996Y-75635004D01*
X155247335Y-75444119D01*
X155247331Y-75444116D01*
X155247329Y-75444114D01*
X155006621Y-75283279D01*
X154746986Y-75155241D01*
X154746965Y-75155232D01*
X154472836Y-75062177D01*
X154472830Y-75062175D01*
X154472828Y-75062175D01*
X154188886Y-75005696D01*
X154188879Y-75005695D01*
X154188869Y-75005694D01*
X153900007Y-74986761D01*
X153899993Y-74986761D01*
X153611130Y-75005694D01*
X153611118Y-75005695D01*
X153611114Y-75005696D01*
X153611106Y-75005697D01*
X153611103Y-75005698D01*
X153327177Y-75062174D01*
X153327163Y-75062177D01*
X153053026Y-75155235D01*
X152793376Y-75283281D01*
X152552666Y-75444117D01*
X152335004Y-75635004D01*
X152144117Y-75852666D01*
X151983281Y-76093376D01*
X151855235Y-76353026D01*
X151762177Y-76627163D01*
X151762174Y-76627177D01*
X151705698Y-76911103D01*
X151705694Y-76911130D01*
X151686761Y-77199992D01*
X144412200Y-77199992D01*
X144412200Y-72139998D01*
X148721635Y-72139998D01*
X148721635Y-72140001D01*
X148741055Y-72361980D01*
X148741057Y-72361990D01*
X148798727Y-72577219D01*
X148798732Y-72577233D01*
X148892901Y-72779179D01*
X148892907Y-72779189D01*
X149020710Y-72961710D01*
X149020719Y-72961720D01*
X149178279Y-73119280D01*
X149178289Y-73119289D01*
X149270726Y-73184014D01*
X149360817Y-73247097D01*
X149482318Y-73303753D01*
X149562766Y-73341267D01*
X149562768Y-73341267D01*
X149562773Y-73341270D01*
X149562778Y-73341271D01*
X149562780Y-73341272D01*
X149596890Y-73350411D01*
X149778014Y-73398944D01*
X149936575Y-73412816D01*
X149999998Y-73418365D01*
X150000000Y-73418365D01*
X150000002Y-73418365D01*
X150055496Y-73413509D01*
X150221986Y-73398944D01*
X150437227Y-73341270D01*
X150639183Y-73247097D01*
X150821717Y-73119284D01*
X150979284Y-72961717D01*
X151107097Y-72779183D01*
X151201270Y-72577227D01*
X151258944Y-72361986D01*
X151278365Y-72140000D01*
X151258944Y-71918014D01*
X151201270Y-71702773D01*
X151107097Y-71500818D01*
X150979284Y-71318283D01*
X150821717Y-71160716D01*
X150821712Y-71160712D01*
X150821709Y-71160710D01*
X150721546Y-71090574D01*
X150677921Y-71035997D01*
X150670729Y-70966499D01*
X150702252Y-70904144D01*
X150762482Y-70868731D01*
X150792670Y-70865000D01*
X150812828Y-70865000D01*
X150812844Y-70864999D01*
X150872372Y-70858598D01*
X150872379Y-70858596D01*
X151007086Y-70808354D01*
X151007093Y-70808350D01*
X151122187Y-70722190D01*
X151122190Y-70722187D01*
X151208350Y-70607093D01*
X151208354Y-70607086D01*
X151248295Y-70499997D01*
X156686641Y-70499997D01*
X156686641Y-70500002D01*
X156706063Y-70858234D01*
X156764106Y-71212279D01*
X156764107Y-71212282D01*
X156860082Y-71557955D01*
X156860083Y-71557957D01*
X156992872Y-71891233D01*
X156992877Y-71891243D01*
X157159077Y-72204730D01*
X157160928Y-72208220D01*
X157160929Y-72208223D01*
X157362256Y-72505157D01*
X157362264Y-72505167D01*
X157594508Y-72778586D01*
X157594516Y-72778595D01*
X157854977Y-73025317D01*
X158140586Y-73242431D01*
X158447995Y-73427393D01*
X158447997Y-73427394D01*
X158447999Y-73427395D01*
X158448003Y-73427397D01*
X158773588Y-73578028D01*
X158773599Y-73578033D01*
X159113583Y-73692587D01*
X159463958Y-73769711D01*
X159820618Y-73808500D01*
X159820624Y-73808500D01*
X160179376Y-73808500D01*
X160179382Y-73808500D01*
X160536042Y-73769711D01*
X160886417Y-73692587D01*
X161226401Y-73578033D01*
X161552005Y-73427393D01*
X161859414Y-73242431D01*
X162145023Y-73025317D01*
X162405484Y-72778595D01*
X162637742Y-72505159D01*
X162816847Y-72240999D01*
X162839070Y-72208223D01*
X162839070Y-72208221D01*
X162839075Y-72208215D01*
X163007123Y-71891243D01*
X163139915Y-71557961D01*
X163235895Y-71212274D01*
X163293936Y-70858237D01*
X163313359Y-70500000D01*
X163311861Y-70472379D01*
X163293936Y-70141765D01*
X163293936Y-70141763D01*
X163235895Y-69787726D01*
X163183498Y-69599011D01*
X163139917Y-69442044D01*
X163139916Y-69442042D01*
X163007127Y-69108766D01*
X163007118Y-69108748D01*
X162839075Y-68791785D01*
X162839071Y-68791779D01*
X162839070Y-68791776D01*
X162637743Y-68494842D01*
X162637735Y-68494832D01*
X162405491Y-68221413D01*
X162405486Y-68221407D01*
X162405484Y-68221405D01*
X162145023Y-67974683D01*
X162145016Y-67974677D01*
X162145013Y-67974675D01*
X162077266Y-67923175D01*
X161859414Y-67757569D01*
X161552005Y-67572607D01*
X161552004Y-67572606D01*
X161552000Y-67572604D01*
X161551996Y-67572602D01*
X161226411Y-67421971D01*
X161226406Y-67421969D01*
X161226401Y-67421967D01*
X161060678Y-67366128D01*
X160886416Y-67307412D01*
X160536040Y-67230288D01*
X160179383Y-67191500D01*
X160179382Y-67191500D01*
X159820618Y-67191500D01*
X159820616Y-67191500D01*
X159463959Y-67230288D01*
X159113583Y-67307412D01*
X158850768Y-67395965D01*
X158773599Y-67421967D01*
X158773596Y-67421968D01*
X158773588Y-67421971D01*
X158448003Y-67572602D01*
X158447999Y-67572604D01*
X158281802Y-67672602D01*
X158140586Y-67757569D01*
X158052060Y-67824864D01*
X157854986Y-67974675D01*
X157854977Y-67974683D01*
X157594513Y-68221407D01*
X157594508Y-68221413D01*
X157362264Y-68494832D01*
X157362256Y-68494842D01*
X157160929Y-68791776D01*
X157160928Y-68791779D01*
X156992881Y-69108748D01*
X156992872Y-69108766D01*
X156860083Y-69442042D01*
X156860082Y-69442044D01*
X156764107Y-69787717D01*
X156764106Y-69787720D01*
X156706063Y-70141765D01*
X156686641Y-70499997D01*
X151248295Y-70499997D01*
X151258596Y-70472379D01*
X151258598Y-70472372D01*
X151264999Y-70412844D01*
X151265000Y-70412827D01*
X151265000Y-69850000D01*
X150444560Y-69850000D01*
X150475245Y-69796853D01*
X150510000Y-69667143D01*
X150510000Y-69532857D01*
X150475245Y-69403147D01*
X150444560Y-69350000D01*
X151265000Y-69350000D01*
X151265000Y-68787172D01*
X151264999Y-68787155D01*
X151258598Y-68727627D01*
X151258596Y-68727620D01*
X151208354Y-68592913D01*
X151208350Y-68592906D01*
X151122190Y-68477812D01*
X151122187Y-68477809D01*
X151007093Y-68391649D01*
X151007086Y-68391645D01*
X150872379Y-68341403D01*
X150872372Y-68341401D01*
X150812844Y-68335000D01*
X150250000Y-68335000D01*
X150250000Y-69155439D01*
X150196853Y-69124755D01*
X150067143Y-69090000D01*
X149932857Y-69090000D01*
X149803147Y-69124755D01*
X149750000Y-69155439D01*
X149750000Y-68335000D01*
X149187155Y-68335000D01*
X149127627Y-68341401D01*
X149127620Y-68341403D01*
X148992913Y-68391645D01*
X148992906Y-68391649D01*
X148877812Y-68477809D01*
X148877809Y-68477812D01*
X148791649Y-68592906D01*
X148791645Y-68592913D01*
X148741403Y-68727620D01*
X148741401Y-68727627D01*
X148735000Y-68787155D01*
X148735000Y-69350000D01*
X149555440Y-69350000D01*
X149524755Y-69403147D01*
X149490000Y-69532857D01*
X149490000Y-69667143D01*
X149524755Y-69796853D01*
X149555440Y-69850000D01*
X148735000Y-69850000D01*
X148735000Y-70412844D01*
X148741401Y-70472372D01*
X148741403Y-70472379D01*
X148791645Y-70607086D01*
X148791649Y-70607093D01*
X148877809Y-70722187D01*
X148877812Y-70722190D01*
X148992906Y-70808350D01*
X148992913Y-70808354D01*
X149127620Y-70858596D01*
X149127627Y-70858598D01*
X149187155Y-70864999D01*
X149187172Y-70865000D01*
X149207331Y-70865000D01*
X149274370Y-70884685D01*
X149320125Y-70937489D01*
X149330069Y-71006647D01*
X149301044Y-71070203D01*
X149278455Y-71090574D01*
X149178282Y-71160716D01*
X149020716Y-71318282D01*
X148892907Y-71500811D01*
X148892903Y-71500817D01*
X148798731Y-71702771D01*
X148798727Y-71702780D01*
X148741057Y-71918009D01*
X148741055Y-71918019D01*
X148721635Y-72139998D01*
X144412200Y-72139998D01*
X144412200Y-66875200D01*
X144431885Y-66808161D01*
X144484689Y-66762406D01*
X144536200Y-66751200D01*
X204396400Y-66751200D01*
X204463439Y-66770885D01*
G37*
%TD.AperFunction*%
%TD*%
M02*
