%TF.GenerationSoftware,KiCad,Pcbnew,8.0.0*%
%TF.CreationDate,2024-06-23T14:12:47+02:00*%
%TF.ProjectId,SCS TSAL Green LED,53435320-5453-4414-9c20-477265656e20,rev?*%
%TF.SameCoordinates,Original*%
%TF.FileFunction,Paste,Top*%
%TF.FilePolarity,Positive*%
%FSLAX46Y46*%
G04 Gerber Fmt 4.6, Leading zero omitted, Abs format (unit mm)*
G04 Created by KiCad (PCBNEW 8.0.0) date 2024-06-23 14:12:47*
%MOMM*%
%LPD*%
G01*
G04 APERTURE LIST*
G04 Aperture macros list*
%AMRoundRect*
0 Rectangle with rounded corners*
0 $1 Rounding radius*
0 $2 $3 $4 $5 $6 $7 $8 $9 X,Y pos of 4 corners*
0 Add a 4 corners polygon primitive as box body*
4,1,4,$2,$3,$4,$5,$6,$7,$8,$9,$2,$3,0*
0 Add four circle primitives for the rounded corners*
1,1,$1+$1,$2,$3*
1,1,$1+$1,$4,$5*
1,1,$1+$1,$6,$7*
1,1,$1+$1,$8,$9*
0 Add four rect primitives between the rounded corners*
20,1,$1+$1,$2,$3,$4,$5,0*
20,1,$1+$1,$4,$5,$6,$7,0*
20,1,$1+$1,$6,$7,$8,$9,0*
20,1,$1+$1,$8,$9,$2,$3,0*%
G04 Aperture macros list end*
%ADD10R,1.070000X1.470000*%
%ADD11RoundRect,0.100000X0.100000X-0.225000X0.100000X0.225000X-0.100000X0.225000X-0.100000X-0.225000X0*%
%ADD12RoundRect,0.100000X-0.650000X-0.100000X0.650000X-0.100000X0.650000X0.100000X-0.650000X0.100000X0*%
%ADD13O,0.950000X1.600000*%
%ADD14R,1.470000X1.070000*%
%ADD15R,1.050000X1.800000*%
%ADD16RoundRect,0.100000X0.100000X-0.637500X0.100000X0.637500X-0.100000X0.637500X-0.100000X-0.637500X0*%
%ADD17R,1.800000X1.050000*%
%ADD18R,0.600000X1.150000*%
%ADD19R,1.150000X0.600000*%
G04 APERTURE END LIST*
D10*
%TO.C,C2*%
X90901478Y-70827361D03*
X92541478Y-70827361D03*
%TD*%
%TO.C,C6*%
X83713278Y-79183961D03*
X85353278Y-79183961D03*
%TD*%
D11*
%TO.C,CP1*%
X79453278Y-79915561D03*
X80103278Y-79915561D03*
X80753278Y-79915561D03*
X80753278Y-78015561D03*
X79453278Y-78015561D03*
%TD*%
D12*
%TO.C,U1*%
X77894678Y-57197961D03*
X77894678Y-57847961D03*
X77894678Y-58497961D03*
X80554678Y-58497961D03*
X80554678Y-57197961D03*
%TD*%
D13*
%TO.C,K1*%
X89435478Y-67562361D03*
X91721478Y-67562361D03*
X91721478Y-58762361D03*
X89435478Y-58762361D03*
%TD*%
D14*
%TO.C,C4*%
X84711078Y-57078761D03*
X84711078Y-58718761D03*
%TD*%
D15*
%TO.C,R3*%
X74423478Y-61810361D03*
X77523478Y-61810361D03*
%TD*%
%TO.C,R9*%
X82119678Y-82358961D03*
X85219678Y-82358961D03*
%TD*%
%TO.C,R4*%
X75821678Y-67144361D03*
X72721678Y-67144361D03*
%TD*%
%TO.C,R10*%
X99291278Y-82790761D03*
X96191278Y-82790761D03*
%TD*%
%TO.C,R5*%
X72645478Y-70497161D03*
X75745478Y-70497161D03*
%TD*%
D16*
%TO.C,U2*%
X79341478Y-74147461D03*
X79991478Y-74147461D03*
X80641478Y-74147461D03*
X81291478Y-74147461D03*
X81291478Y-68422461D03*
X80641478Y-68422461D03*
X79991478Y-68422461D03*
X79341478Y-68422461D03*
%TD*%
D15*
%TO.C,R7*%
X84381478Y-61937361D03*
X81281478Y-61937361D03*
%TD*%
%TO.C,R6*%
X80900478Y-65239361D03*
X84000478Y-65239361D03*
%TD*%
D17*
%TO.C,R2*%
X85727078Y-51090961D03*
X85727078Y-54190961D03*
%TD*%
%TO.C,R8*%
X88241678Y-78700761D03*
X88241678Y-81800761D03*
%TD*%
D10*
%TO.C,C3*%
X73223078Y-74078561D03*
X74863078Y-74078561D03*
%TD*%
%TO.C,C5*%
X74569278Y-77964761D03*
X76209278Y-77964761D03*
%TD*%
D15*
%TO.C,R1*%
X92636478Y-74002361D03*
X89536478Y-74002361D03*
%TD*%
D10*
%TO.C,C7*%
X77744278Y-82435161D03*
X79384278Y-82435161D03*
%TD*%
D18*
%TO.C,G2*%
X91101678Y-80661761D03*
X92051678Y-80661761D03*
X93001678Y-80661761D03*
X93001678Y-78061761D03*
X91101678Y-78061761D03*
%TD*%
D19*
%TO.C,G1*%
X84041478Y-74642361D03*
X84041478Y-75592361D03*
X84041478Y-76542361D03*
X86641478Y-76542361D03*
X86641478Y-74642361D03*
%TD*%
M02*
