<?xml version="1.0" encoding="utf-8" ?><!DOCTYPE svg PUBLIC "-//W3C//DTD SVG 1.1//EN" "http://www.w3.org/Graphics/SVG/1.1/DTD/svg11.dtd" 
[ <!ATTLIST svg 
  xmlns:dsy CDATA #FIXED "http://www.3ds.com/print"  
    dsy:text-version CDATA #IMPLIED > 

  <!ATTLIST text 
  xmlns:dsy CDATA #FIXED "http://www.3ds.com/print" 
    dsy:text-version CDATA #IMPLIED > 
]><svg xmlns="http://www.w3.org/2000/svg" xmlns:dsy="http://www.3ds.com/print" dsy:text-version="18000" width="594" height="420" viewBox="0 0 594 420" version="1.1"><g stroke="rgb(0, 0, 0)" stroke-width="0.35" stroke-linecap="butt" stroke-linejoin="miter" fill="none"><path d="M 374.5 180.457 L 219.5 180.457"/><path d="M 219.5 180.457 A 8 8 0 0 0 211.5 188.457"/><path d="M 211.5 188.457 L 211.5 212.457"/><path d="M 211.5 212.457 A 8 8 0 0 0 219.5 220.457"/><path d="M 219.5 220.457 L 224.5 220.457"/><path d="M 224.5 220.457 L 224.5 210.457"/><path d="M 224.5 210.457 L 229 210.457"/><path d="M 229 210.457 L 229 220.457"/><path d="M 229 220.457 L 305 220.457"/><path d="M 305 220.457 L 305 210.457"/><path d="M 305 210.457 L 309.5 210.457"/><path d="M 309.5 210.457 L 309.5 220.457"/><path d="M 309.5 220.457 L 334.5 220.457"/><path d="M 342.5 228.457 A 8 8 0 0 0 334.5 220.457"/><path d="M 342.5 228.457 L 342.5 239.457"/><path d="M 382.5 188.457 L 382.5 239.457"/><path d="M 382.5 188.457 A 8 8 0 0 0 374.5 180.457"/><path d="M 375.859 239.457 L 382.5 239.457"/><path d="M 342.5 239.457 L 351.055 239.457"/><path d="M 350.955 237.882 A 12.5004 12.5004 0 0 0 351.055 239.457"/><path d="M 375.96 237.873 A 12.4993 12.4993 0 0 0 355.333 228.379"/><path d="M 355.332 228.379 A 12.5061 12.5061 0 0 0 350.955 237.882"/><path d="M 375.859 239.457 A 12.502 12.502 0 0 0 375.96 237.873"/><path d="M 351.055 237.797 A 12.5003 12.5003 0 0 0 351.166 239.457"/><path d="M 355.382 228.336 A 12.5061 12.5061 0 0 0 351.055 237.797"/><path d="M 351.166 239.457 L 351.055 239.457"/></g></svg>