<?xml version="1.0" encoding="utf-8" ?><!DOCTYPE svg PUBLIC "-//W3C//DTD SVG 1.1//EN" "http://www.w3.org/Graphics/SVG/1.1/DTD/svg11.dtd" 
[ <!ATTLIST svg 
  xmlns:dsy CDATA #FIXED "http://www.3ds.com/print"  
    dsy:text-version CDATA #IMPLIED > 

  <!ATTLIST text 
  xmlns:dsy CDATA #FIXED "http://www.3ds.com/print" 
    dsy:text-version CDATA #IMPLIED > 
]><svg xmlns="http://www.w3.org/2000/svg" xmlns:dsy="http://www.3ds.com/print" dsy:text-version="18000" width="297" height="210" viewBox="0 0 297 210" version="1.1"><g stroke="rgb(0, 0, 0)" stroke-width="0.35" stroke-linecap="butt" stroke-linejoin="miter" fill="none"><path d="M 178.42 98.5615 L 158.422 98.8176"/><path d="M 158.422 98.8176 L 158.486 103.817"/><path d="M 178.484 103.561 L 158.486 103.817"/><path d="M 178.894 135.57 L 178.484 103.561"/><path d="M 118.899 136.339 L 178.894 135.57"/><path d="M 178.101 73.6614 L 118.106 74.4297"/><path d="M 178.42 98.5615 L 178.101 73.6614"/><path d="M 118.106 74.4297 L 118.303 89.8422"/><path d="M 118.674 118.817 L 118.899 136.339"/><path d="M 118.674 118.817 A 14.9999 14.9999 0 0 0 118.304 89.8422"/><path d="M 118.674 118.808 A 14.9999 14.9999 0 0 0 118.304 89.8511"/><path d="M 118.674 118.808 L 118.674 118.817"/><path d="M 118.303 89.8511 L 118.303 89.8422"/></g></svg>