%TF.GenerationSoftware,KiCad,Pcbnew,8.0.2*%
%TF.CreationDate,2024-06-17T10:53:29+02:00*%
%TF.ProjectId,IMD SCS Maker,494d4420-5343-4532-904d-616b65722e6b,rev?*%
%TF.SameCoordinates,Original*%
%TF.FileFunction,Drillmap*%
%TF.FilePolarity,Positive*%
%FSLAX45Y45*%
G04 Gerber Fmt 4.5, Leading zero omitted, Abs format (unit mm)*
G04 Created by KiCad (PCBNEW 8.0.2) date 2024-06-17 10:53:29*
%MOMM*%
%LPD*%
G01*
G04 APERTURE LIST*
%ADD10C,0.100000*%
%ADD11C,0.200000*%
%ADD12C,0.102000*%
%ADD13C,0.107000*%
%ADD14C,0.260000*%
G04 APERTURE END LIST*
D10*
X9300000Y-3937000D02*
G75*
G02*
X9500000Y-4137000I0J-200000D01*
G01*
X6304280Y-4137000D02*
G75*
G02*
X6504280Y-3937000I200000J0D01*
G01*
X9500000Y-4137000D02*
X9500000Y-5972200D01*
X6504280Y-6172200D02*
G75*
G02*
X6304280Y-5972200I0J200000D01*
G01*
X6504280Y-3937000D02*
X9300000Y-3937000D01*
X9300000Y-6172200D02*
X6504280Y-6172200D01*
X6304280Y-5972200D02*
X6304280Y-4137000D01*
X9500000Y-5972200D02*
G75*
G02*
X9300000Y-6172200I-200000J0D01*
G01*
D11*
D10*
X6930000Y-5180000D02*
X6970000Y-5220000D01*
X6970000Y-5180000D02*
X6930000Y-5220000D01*
X7880000Y-5380000D02*
X7920000Y-5420000D01*
X7920000Y-5380000D02*
X7880000Y-5420000D01*
X7880000Y-5580000D02*
X7920000Y-5620000D01*
X7920000Y-5580000D02*
X7880000Y-5620000D01*
X8380000Y-4930000D02*
X8420000Y-4970000D01*
X8420000Y-4930000D02*
X8380000Y-4970000D01*
X8380000Y-5680000D02*
X8420000Y-5720000D01*
X8420000Y-5680000D02*
X8380000Y-5720000D01*
X9080000Y-5080000D02*
X9120000Y-5120000D01*
X9120000Y-5080000D02*
X9080000Y-5120000D01*
X9230000Y-4480000D02*
X9270000Y-4520000D01*
X9270000Y-4480000D02*
X9230000Y-4520000D01*
X9330000Y-5080000D02*
X9370000Y-5120000D01*
X9370000Y-5080000D02*
X9330000Y-5120000D01*
X7577650Y-5442711D02*
G75*
G02*
X7497650Y-5442711I-40000J0D01*
G01*
X7497650Y-5442711D02*
G75*
G02*
X7577650Y-5442711I40000J0D01*
G01*
X7577650Y-5642711D02*
G75*
G02*
X7497650Y-5642711I-40000J0D01*
G01*
X7497650Y-5642711D02*
G75*
G02*
X7577650Y-5642711I40000J0D01*
G01*
X7086600Y-4626600D02*
X7086600Y-4720600D01*
X7039600Y-4673600D02*
X7133600Y-4673600D01*
X7340600Y-4626600D02*
X7340600Y-4720600D01*
X7293600Y-4673600D02*
X7387600Y-4673600D01*
X7594600Y-4626600D02*
X7594600Y-4720600D01*
X7547600Y-4673600D02*
X7641600Y-4673600D01*
D12*
X6767713Y-5476063D02*
X6767713Y-5403937D01*
X6695587Y-5403937D01*
X6695587Y-5476063D01*
X6767713Y-5476063D01*
X6767713Y-5730063D02*
X6767713Y-5657937D01*
X6695587Y-5657937D01*
X6695587Y-5730063D01*
X6767713Y-5730063D01*
D13*
X8246000Y-4553500D02*
X8299500Y-4500000D01*
X8246000Y-4446500D01*
X8192500Y-4500000D01*
X8246000Y-4553500D01*
X8500000Y-4553500D02*
X8553500Y-4500000D01*
X8500000Y-4446500D01*
X8446500Y-4500000D01*
X8500000Y-4553500D01*
X8754000Y-4553500D02*
X8807500Y-4500000D01*
X8754000Y-4446500D01*
X8700500Y-4500000D01*
X8754000Y-4553500D01*
D14*
X6443520Y-4899200D02*
X6703520Y-5159200D01*
X6703520Y-4899200D02*
X6443520Y-5159200D01*
X6703520Y-5029200D02*
G75*
G02*
X6443520Y-5029200I-130000J0D01*
G01*
X6443520Y-5029200D02*
G75*
G02*
X6703520Y-5029200I130000J0D01*
G01*
X9070000Y-5783120D02*
X9330000Y-6043120D01*
X9330000Y-5783120D02*
X9070000Y-6043120D01*
X9330000Y-5913120D02*
G75*
G02*
X9070000Y-5913120I-130000J0D01*
G01*
X9070000Y-5913120D02*
G75*
G02*
X9330000Y-5913120I130000J0D01*
G01*
X9120000Y-4070000D02*
X9380000Y-4330000D01*
X9380000Y-4070000D02*
X9120000Y-4330000D01*
X9380000Y-4200000D02*
G75*
G02*
X9120000Y-4200000I-130000J0D01*
G01*
X9120000Y-4200000D02*
G75*
G02*
X9380000Y-4200000I130000J0D01*
G01*
D11*
X6560057Y-6488684D02*
X6560057Y-6288684D01*
X6560057Y-6288684D02*
X6607676Y-6288684D01*
X6607676Y-6288684D02*
X6636247Y-6298208D01*
X6636247Y-6298208D02*
X6655295Y-6317255D01*
X6655295Y-6317255D02*
X6664819Y-6336303D01*
X6664819Y-6336303D02*
X6674342Y-6374398D01*
X6674342Y-6374398D02*
X6674342Y-6402969D01*
X6674342Y-6402969D02*
X6664819Y-6441065D01*
X6664819Y-6441065D02*
X6655295Y-6460112D01*
X6655295Y-6460112D02*
X6636247Y-6479160D01*
X6636247Y-6479160D02*
X6607676Y-6488684D01*
X6607676Y-6488684D02*
X6560057Y-6488684D01*
X6760057Y-6488684D02*
X6760057Y-6355350D01*
X6760057Y-6393446D02*
X6769581Y-6374398D01*
X6769581Y-6374398D02*
X6779104Y-6364874D01*
X6779104Y-6364874D02*
X6798152Y-6355350D01*
X6798152Y-6355350D02*
X6817200Y-6355350D01*
X6883866Y-6488684D02*
X6883866Y-6355350D01*
X6883866Y-6288684D02*
X6874342Y-6298208D01*
X6874342Y-6298208D02*
X6883866Y-6307731D01*
X6883866Y-6307731D02*
X6893390Y-6298208D01*
X6893390Y-6298208D02*
X6883866Y-6288684D01*
X6883866Y-6288684D02*
X6883866Y-6307731D01*
X7007676Y-6488684D02*
X6988628Y-6479160D01*
X6988628Y-6479160D02*
X6979104Y-6460112D01*
X6979104Y-6460112D02*
X6979104Y-6288684D01*
X7112438Y-6488684D02*
X7093390Y-6479160D01*
X7093390Y-6479160D02*
X7083866Y-6460112D01*
X7083866Y-6460112D02*
X7083866Y-6288684D01*
X7341009Y-6488684D02*
X7341009Y-6288684D01*
X7341009Y-6288684D02*
X7407676Y-6431541D01*
X7407676Y-6431541D02*
X7474342Y-6288684D01*
X7474342Y-6288684D02*
X7474342Y-6488684D01*
X7655295Y-6488684D02*
X7655295Y-6383922D01*
X7655295Y-6383922D02*
X7645771Y-6364874D01*
X7645771Y-6364874D02*
X7626723Y-6355350D01*
X7626723Y-6355350D02*
X7588628Y-6355350D01*
X7588628Y-6355350D02*
X7569581Y-6364874D01*
X7655295Y-6479160D02*
X7636247Y-6488684D01*
X7636247Y-6488684D02*
X7588628Y-6488684D01*
X7588628Y-6488684D02*
X7569581Y-6479160D01*
X7569581Y-6479160D02*
X7560057Y-6460112D01*
X7560057Y-6460112D02*
X7560057Y-6441065D01*
X7560057Y-6441065D02*
X7569581Y-6422017D01*
X7569581Y-6422017D02*
X7588628Y-6412493D01*
X7588628Y-6412493D02*
X7636247Y-6412493D01*
X7636247Y-6412493D02*
X7655295Y-6402969D01*
X7750533Y-6355350D02*
X7750533Y-6555350D01*
X7750533Y-6364874D02*
X7769581Y-6355350D01*
X7769581Y-6355350D02*
X7807676Y-6355350D01*
X7807676Y-6355350D02*
X7826723Y-6364874D01*
X7826723Y-6364874D02*
X7836247Y-6374398D01*
X7836247Y-6374398D02*
X7845771Y-6393446D01*
X7845771Y-6393446D02*
X7845771Y-6450588D01*
X7845771Y-6450588D02*
X7836247Y-6469636D01*
X7836247Y-6469636D02*
X7826723Y-6479160D01*
X7826723Y-6479160D02*
X7807676Y-6488684D01*
X7807676Y-6488684D02*
X7769581Y-6488684D01*
X7769581Y-6488684D02*
X7750533Y-6479160D01*
X7931485Y-6469636D02*
X7941009Y-6479160D01*
X7941009Y-6479160D02*
X7931485Y-6488684D01*
X7931485Y-6488684D02*
X7921962Y-6479160D01*
X7921962Y-6479160D02*
X7931485Y-6469636D01*
X7931485Y-6469636D02*
X7931485Y-6488684D01*
X7931485Y-6364874D02*
X7941009Y-6374398D01*
X7941009Y-6374398D02*
X7931485Y-6383922D01*
X7931485Y-6383922D02*
X7921962Y-6374398D01*
X7921962Y-6374398D02*
X7931485Y-6364874D01*
X7931485Y-6364874D02*
X7931485Y-6383922D01*
D10*
X6259280Y-6797200D02*
X6299280Y-6837200D01*
X6299280Y-6797200D02*
X6259280Y-6837200D01*
D11*
X6598152Y-6708684D02*
X6617200Y-6708684D01*
X6617200Y-6708684D02*
X6636247Y-6718208D01*
X6636247Y-6718208D02*
X6645771Y-6727731D01*
X6645771Y-6727731D02*
X6655295Y-6746779D01*
X6655295Y-6746779D02*
X6664819Y-6784874D01*
X6664819Y-6784874D02*
X6664819Y-6832493D01*
X6664819Y-6832493D02*
X6655295Y-6870588D01*
X6655295Y-6870588D02*
X6645771Y-6889636D01*
X6645771Y-6889636D02*
X6636247Y-6899160D01*
X6636247Y-6899160D02*
X6617200Y-6908684D01*
X6617200Y-6908684D02*
X6598152Y-6908684D01*
X6598152Y-6908684D02*
X6579104Y-6899160D01*
X6579104Y-6899160D02*
X6569581Y-6889636D01*
X6569581Y-6889636D02*
X6560057Y-6870588D01*
X6560057Y-6870588D02*
X6550533Y-6832493D01*
X6550533Y-6832493D02*
X6550533Y-6784874D01*
X6550533Y-6784874D02*
X6560057Y-6746779D01*
X6560057Y-6746779D02*
X6569581Y-6727731D01*
X6569581Y-6727731D02*
X6579104Y-6718208D01*
X6579104Y-6718208D02*
X6598152Y-6708684D01*
X6750533Y-6889636D02*
X6760057Y-6899160D01*
X6760057Y-6899160D02*
X6750533Y-6908684D01*
X6750533Y-6908684D02*
X6741009Y-6899160D01*
X6741009Y-6899160D02*
X6750533Y-6889636D01*
X6750533Y-6889636D02*
X6750533Y-6908684D01*
X6931485Y-6775350D02*
X6931485Y-6908684D01*
X6883866Y-6699160D02*
X6836247Y-6842017D01*
X6836247Y-6842017D02*
X6960057Y-6842017D01*
X7074342Y-6708684D02*
X7093390Y-6708684D01*
X7093390Y-6708684D02*
X7112438Y-6718208D01*
X7112438Y-6718208D02*
X7121962Y-6727731D01*
X7121962Y-6727731D02*
X7131485Y-6746779D01*
X7131485Y-6746779D02*
X7141009Y-6784874D01*
X7141009Y-6784874D02*
X7141009Y-6832493D01*
X7141009Y-6832493D02*
X7131485Y-6870588D01*
X7131485Y-6870588D02*
X7121962Y-6889636D01*
X7121962Y-6889636D02*
X7112438Y-6899160D01*
X7112438Y-6899160D02*
X7093390Y-6908684D01*
X7093390Y-6908684D02*
X7074342Y-6908684D01*
X7074342Y-6908684D02*
X7055295Y-6899160D01*
X7055295Y-6899160D02*
X7045771Y-6889636D01*
X7045771Y-6889636D02*
X7036247Y-6870588D01*
X7036247Y-6870588D02*
X7026723Y-6832493D01*
X7026723Y-6832493D02*
X7026723Y-6784874D01*
X7026723Y-6784874D02*
X7036247Y-6746779D01*
X7036247Y-6746779D02*
X7045771Y-6727731D01*
X7045771Y-6727731D02*
X7055295Y-6718208D01*
X7055295Y-6718208D02*
X7074342Y-6708684D01*
X7264819Y-6708684D02*
X7283866Y-6708684D01*
X7283866Y-6708684D02*
X7302914Y-6718208D01*
X7302914Y-6718208D02*
X7312438Y-6727731D01*
X7312438Y-6727731D02*
X7321962Y-6746779D01*
X7321962Y-6746779D02*
X7331485Y-6784874D01*
X7331485Y-6784874D02*
X7331485Y-6832493D01*
X7331485Y-6832493D02*
X7321962Y-6870588D01*
X7321962Y-6870588D02*
X7312438Y-6889636D01*
X7312438Y-6889636D02*
X7302914Y-6899160D01*
X7302914Y-6899160D02*
X7283866Y-6908684D01*
X7283866Y-6908684D02*
X7264819Y-6908684D01*
X7264819Y-6908684D02*
X7245771Y-6899160D01*
X7245771Y-6899160D02*
X7236247Y-6889636D01*
X7236247Y-6889636D02*
X7226723Y-6870588D01*
X7226723Y-6870588D02*
X7217200Y-6832493D01*
X7217200Y-6832493D02*
X7217200Y-6784874D01*
X7217200Y-6784874D02*
X7226723Y-6746779D01*
X7226723Y-6746779D02*
X7236247Y-6727731D01*
X7236247Y-6727731D02*
X7245771Y-6718208D01*
X7245771Y-6718208D02*
X7264819Y-6708684D01*
X7417200Y-6908684D02*
X7417200Y-6775350D01*
X7417200Y-6794398D02*
X7426723Y-6784874D01*
X7426723Y-6784874D02*
X7445771Y-6775350D01*
X7445771Y-6775350D02*
X7474343Y-6775350D01*
X7474343Y-6775350D02*
X7493390Y-6784874D01*
X7493390Y-6784874D02*
X7502914Y-6803922D01*
X7502914Y-6803922D02*
X7502914Y-6908684D01*
X7502914Y-6803922D02*
X7512438Y-6784874D01*
X7512438Y-6784874D02*
X7531485Y-6775350D01*
X7531485Y-6775350D02*
X7560057Y-6775350D01*
X7560057Y-6775350D02*
X7579104Y-6784874D01*
X7579104Y-6784874D02*
X7588628Y-6803922D01*
X7588628Y-6803922D02*
X7588628Y-6908684D01*
X7683866Y-6908684D02*
X7683866Y-6775350D01*
X7683866Y-6794398D02*
X7693390Y-6784874D01*
X7693390Y-6784874D02*
X7712438Y-6775350D01*
X7712438Y-6775350D02*
X7741009Y-6775350D01*
X7741009Y-6775350D02*
X7760057Y-6784874D01*
X7760057Y-6784874D02*
X7769581Y-6803922D01*
X7769581Y-6803922D02*
X7769581Y-6908684D01*
X7769581Y-6803922D02*
X7779104Y-6784874D01*
X7779104Y-6784874D02*
X7798152Y-6775350D01*
X7798152Y-6775350D02*
X7826723Y-6775350D01*
X7826723Y-6775350D02*
X7845771Y-6784874D01*
X7845771Y-6784874D02*
X7855295Y-6803922D01*
X7855295Y-6803922D02*
X7855295Y-6908684D01*
X8245771Y-6699160D02*
X8074343Y-6956303D01*
X8502914Y-6708684D02*
X8521962Y-6708684D01*
X8521962Y-6708684D02*
X8541009Y-6718208D01*
X8541009Y-6718208D02*
X8550533Y-6727731D01*
X8550533Y-6727731D02*
X8560057Y-6746779D01*
X8560057Y-6746779D02*
X8569581Y-6784874D01*
X8569581Y-6784874D02*
X8569581Y-6832493D01*
X8569581Y-6832493D02*
X8560057Y-6870588D01*
X8560057Y-6870588D02*
X8550533Y-6889636D01*
X8550533Y-6889636D02*
X8541009Y-6899160D01*
X8541009Y-6899160D02*
X8521962Y-6908684D01*
X8521962Y-6908684D02*
X8502914Y-6908684D01*
X8502914Y-6908684D02*
X8483867Y-6899160D01*
X8483867Y-6899160D02*
X8474343Y-6889636D01*
X8474343Y-6889636D02*
X8464819Y-6870588D01*
X8464819Y-6870588D02*
X8455295Y-6832493D01*
X8455295Y-6832493D02*
X8455295Y-6784874D01*
X8455295Y-6784874D02*
X8464819Y-6746779D01*
X8464819Y-6746779D02*
X8474343Y-6727731D01*
X8474343Y-6727731D02*
X8483867Y-6718208D01*
X8483867Y-6718208D02*
X8502914Y-6708684D01*
X8655295Y-6889636D02*
X8664819Y-6899160D01*
X8664819Y-6899160D02*
X8655295Y-6908684D01*
X8655295Y-6908684D02*
X8645771Y-6899160D01*
X8645771Y-6899160D02*
X8655295Y-6889636D01*
X8655295Y-6889636D02*
X8655295Y-6908684D01*
X8788628Y-6708684D02*
X8807676Y-6708684D01*
X8807676Y-6708684D02*
X8826724Y-6718208D01*
X8826724Y-6718208D02*
X8836248Y-6727731D01*
X8836248Y-6727731D02*
X8845771Y-6746779D01*
X8845771Y-6746779D02*
X8855295Y-6784874D01*
X8855295Y-6784874D02*
X8855295Y-6832493D01*
X8855295Y-6832493D02*
X8845771Y-6870588D01*
X8845771Y-6870588D02*
X8836248Y-6889636D01*
X8836248Y-6889636D02*
X8826724Y-6899160D01*
X8826724Y-6899160D02*
X8807676Y-6908684D01*
X8807676Y-6908684D02*
X8788628Y-6908684D01*
X8788628Y-6908684D02*
X8769581Y-6899160D01*
X8769581Y-6899160D02*
X8760057Y-6889636D01*
X8760057Y-6889636D02*
X8750533Y-6870588D01*
X8750533Y-6870588D02*
X8741009Y-6832493D01*
X8741009Y-6832493D02*
X8741009Y-6784874D01*
X8741009Y-6784874D02*
X8750533Y-6746779D01*
X8750533Y-6746779D02*
X8760057Y-6727731D01*
X8760057Y-6727731D02*
X8769581Y-6718208D01*
X8769581Y-6718208D02*
X8788628Y-6708684D01*
X9045771Y-6908684D02*
X8931486Y-6908684D01*
X8988628Y-6908684D02*
X8988628Y-6708684D01*
X8988628Y-6708684D02*
X8969581Y-6737255D01*
X8969581Y-6737255D02*
X8950533Y-6756303D01*
X8950533Y-6756303D02*
X8931486Y-6765827D01*
X9226724Y-6708684D02*
X9131486Y-6708684D01*
X9131486Y-6708684D02*
X9121962Y-6803922D01*
X9121962Y-6803922D02*
X9131486Y-6794398D01*
X9131486Y-6794398D02*
X9150533Y-6784874D01*
X9150533Y-6784874D02*
X9198152Y-6784874D01*
X9198152Y-6784874D02*
X9217200Y-6794398D01*
X9217200Y-6794398D02*
X9226724Y-6803922D01*
X9226724Y-6803922D02*
X9236248Y-6822969D01*
X9236248Y-6822969D02*
X9236248Y-6870588D01*
X9236248Y-6870588D02*
X9226724Y-6889636D01*
X9226724Y-6889636D02*
X9217200Y-6899160D01*
X9217200Y-6899160D02*
X9198152Y-6908684D01*
X9198152Y-6908684D02*
X9150533Y-6908684D01*
X9150533Y-6908684D02*
X9131486Y-6899160D01*
X9131486Y-6899160D02*
X9121962Y-6889636D01*
X9302914Y-6708684D02*
X9436248Y-6708684D01*
X9436248Y-6708684D02*
X9350533Y-6908684D01*
X9502914Y-6708684D02*
X9502914Y-6746779D01*
X9579105Y-6708684D02*
X9579105Y-6746779D01*
X9874343Y-6984874D02*
X9864819Y-6975350D01*
X9864819Y-6975350D02*
X9845771Y-6946779D01*
X9845771Y-6946779D02*
X9836248Y-6927731D01*
X9836248Y-6927731D02*
X9826724Y-6899160D01*
X9826724Y-6899160D02*
X9817200Y-6851541D01*
X9817200Y-6851541D02*
X9817200Y-6813446D01*
X9817200Y-6813446D02*
X9826724Y-6765827D01*
X9826724Y-6765827D02*
X9836248Y-6737255D01*
X9836248Y-6737255D02*
X9845771Y-6718208D01*
X9845771Y-6718208D02*
X9864819Y-6689636D01*
X9864819Y-6689636D02*
X9874343Y-6680112D01*
X9979105Y-6794398D02*
X9960057Y-6784874D01*
X9960057Y-6784874D02*
X9950533Y-6775350D01*
X9950533Y-6775350D02*
X9941010Y-6756303D01*
X9941010Y-6756303D02*
X9941010Y-6746779D01*
X9941010Y-6746779D02*
X9950533Y-6727731D01*
X9950533Y-6727731D02*
X9960057Y-6718208D01*
X9960057Y-6718208D02*
X9979105Y-6708684D01*
X9979105Y-6708684D02*
X10017200Y-6708684D01*
X10017200Y-6708684D02*
X10036248Y-6718208D01*
X10036248Y-6718208D02*
X10045771Y-6727731D01*
X10045771Y-6727731D02*
X10055295Y-6746779D01*
X10055295Y-6746779D02*
X10055295Y-6756303D01*
X10055295Y-6756303D02*
X10045771Y-6775350D01*
X10045771Y-6775350D02*
X10036248Y-6784874D01*
X10036248Y-6784874D02*
X10017200Y-6794398D01*
X10017200Y-6794398D02*
X9979105Y-6794398D01*
X9979105Y-6794398D02*
X9960057Y-6803922D01*
X9960057Y-6803922D02*
X9950533Y-6813446D01*
X9950533Y-6813446D02*
X9941010Y-6832493D01*
X9941010Y-6832493D02*
X9941010Y-6870588D01*
X9941010Y-6870588D02*
X9950533Y-6889636D01*
X9950533Y-6889636D02*
X9960057Y-6899160D01*
X9960057Y-6899160D02*
X9979105Y-6908684D01*
X9979105Y-6908684D02*
X10017200Y-6908684D01*
X10017200Y-6908684D02*
X10036248Y-6899160D01*
X10036248Y-6899160D02*
X10045771Y-6889636D01*
X10045771Y-6889636D02*
X10055295Y-6870588D01*
X10055295Y-6870588D02*
X10055295Y-6832493D01*
X10055295Y-6832493D02*
X10045771Y-6813446D01*
X10045771Y-6813446D02*
X10036248Y-6803922D01*
X10036248Y-6803922D02*
X10017200Y-6794398D01*
X10293391Y-6908684D02*
X10293391Y-6708684D01*
X10379105Y-6908684D02*
X10379105Y-6803922D01*
X10379105Y-6803922D02*
X10369581Y-6784874D01*
X10369581Y-6784874D02*
X10350533Y-6775350D01*
X10350533Y-6775350D02*
X10321962Y-6775350D01*
X10321962Y-6775350D02*
X10302914Y-6784874D01*
X10302914Y-6784874D02*
X10293391Y-6794398D01*
X10502914Y-6908684D02*
X10483867Y-6899160D01*
X10483867Y-6899160D02*
X10474343Y-6889636D01*
X10474343Y-6889636D02*
X10464819Y-6870588D01*
X10464819Y-6870588D02*
X10464819Y-6813446D01*
X10464819Y-6813446D02*
X10474343Y-6794398D01*
X10474343Y-6794398D02*
X10483867Y-6784874D01*
X10483867Y-6784874D02*
X10502914Y-6775350D01*
X10502914Y-6775350D02*
X10531486Y-6775350D01*
X10531486Y-6775350D02*
X10550533Y-6784874D01*
X10550533Y-6784874D02*
X10560057Y-6794398D01*
X10560057Y-6794398D02*
X10569581Y-6813446D01*
X10569581Y-6813446D02*
X10569581Y-6870588D01*
X10569581Y-6870588D02*
X10560057Y-6889636D01*
X10560057Y-6889636D02*
X10550533Y-6899160D01*
X10550533Y-6899160D02*
X10531486Y-6908684D01*
X10531486Y-6908684D02*
X10502914Y-6908684D01*
X10683867Y-6908684D02*
X10664819Y-6899160D01*
X10664819Y-6899160D02*
X10655295Y-6880112D01*
X10655295Y-6880112D02*
X10655295Y-6708684D01*
X10836248Y-6899160D02*
X10817200Y-6908684D01*
X10817200Y-6908684D02*
X10779105Y-6908684D01*
X10779105Y-6908684D02*
X10760057Y-6899160D01*
X10760057Y-6899160D02*
X10750533Y-6880112D01*
X10750533Y-6880112D02*
X10750533Y-6803922D01*
X10750533Y-6803922D02*
X10760057Y-6784874D01*
X10760057Y-6784874D02*
X10779105Y-6775350D01*
X10779105Y-6775350D02*
X10817200Y-6775350D01*
X10817200Y-6775350D02*
X10836248Y-6784874D01*
X10836248Y-6784874D02*
X10845772Y-6803922D01*
X10845772Y-6803922D02*
X10845772Y-6822969D01*
X10845772Y-6822969D02*
X10750533Y-6842017D01*
X10921962Y-6899160D02*
X10941010Y-6908684D01*
X10941010Y-6908684D02*
X10979105Y-6908684D01*
X10979105Y-6908684D02*
X10998153Y-6899160D01*
X10998153Y-6899160D02*
X11007676Y-6880112D01*
X11007676Y-6880112D02*
X11007676Y-6870588D01*
X11007676Y-6870588D02*
X10998153Y-6851541D01*
X10998153Y-6851541D02*
X10979105Y-6842017D01*
X10979105Y-6842017D02*
X10950533Y-6842017D01*
X10950533Y-6842017D02*
X10931486Y-6832493D01*
X10931486Y-6832493D02*
X10921962Y-6813446D01*
X10921962Y-6813446D02*
X10921962Y-6803922D01*
X10921962Y-6803922D02*
X10931486Y-6784874D01*
X10931486Y-6784874D02*
X10950533Y-6775350D01*
X10950533Y-6775350D02*
X10979105Y-6775350D01*
X10979105Y-6775350D02*
X10998153Y-6784874D01*
X11074343Y-6984874D02*
X11083867Y-6975350D01*
X11083867Y-6975350D02*
X11102914Y-6946779D01*
X11102914Y-6946779D02*
X11112438Y-6927731D01*
X11112438Y-6927731D02*
X11121962Y-6899160D01*
X11121962Y-6899160D02*
X11131486Y-6851541D01*
X11131486Y-6851541D02*
X11131486Y-6813446D01*
X11131486Y-6813446D02*
X11121962Y-6765827D01*
X11121962Y-6765827D02*
X11112438Y-6737255D01*
X11112438Y-6737255D02*
X11102914Y-6718208D01*
X11102914Y-6718208D02*
X11083867Y-6689636D01*
X11083867Y-6689636D02*
X11074343Y-6680112D01*
D10*
X6299280Y-7081200D02*
G75*
G02*
X6219280Y-7081200I-40000J0D01*
G01*
X6219280Y-7081200D02*
G75*
G02*
X6299280Y-7081200I40000J0D01*
G01*
D11*
X6598152Y-6972684D02*
X6617200Y-6972684D01*
X6617200Y-6972684D02*
X6636247Y-6982208D01*
X6636247Y-6982208D02*
X6645771Y-6991731D01*
X6645771Y-6991731D02*
X6655295Y-7010779D01*
X6655295Y-7010779D02*
X6664819Y-7048874D01*
X6664819Y-7048874D02*
X6664819Y-7096493D01*
X6664819Y-7096493D02*
X6655295Y-7134588D01*
X6655295Y-7134588D02*
X6645771Y-7153636D01*
X6645771Y-7153636D02*
X6636247Y-7163160D01*
X6636247Y-7163160D02*
X6617200Y-7172684D01*
X6617200Y-7172684D02*
X6598152Y-7172684D01*
X6598152Y-7172684D02*
X6579104Y-7163160D01*
X6579104Y-7163160D02*
X6569581Y-7153636D01*
X6569581Y-7153636D02*
X6560057Y-7134588D01*
X6560057Y-7134588D02*
X6550533Y-7096493D01*
X6550533Y-7096493D02*
X6550533Y-7048874D01*
X6550533Y-7048874D02*
X6560057Y-7010779D01*
X6560057Y-7010779D02*
X6569581Y-6991731D01*
X6569581Y-6991731D02*
X6579104Y-6982208D01*
X6579104Y-6982208D02*
X6598152Y-6972684D01*
X6750533Y-7153636D02*
X6760057Y-7163160D01*
X6760057Y-7163160D02*
X6750533Y-7172684D01*
X6750533Y-7172684D02*
X6741009Y-7163160D01*
X6741009Y-7163160D02*
X6750533Y-7153636D01*
X6750533Y-7153636D02*
X6750533Y-7172684D01*
X6874342Y-7058398D02*
X6855295Y-7048874D01*
X6855295Y-7048874D02*
X6845771Y-7039350D01*
X6845771Y-7039350D02*
X6836247Y-7020303D01*
X6836247Y-7020303D02*
X6836247Y-7010779D01*
X6836247Y-7010779D02*
X6845771Y-6991731D01*
X6845771Y-6991731D02*
X6855295Y-6982208D01*
X6855295Y-6982208D02*
X6874342Y-6972684D01*
X6874342Y-6972684D02*
X6912438Y-6972684D01*
X6912438Y-6972684D02*
X6931485Y-6982208D01*
X6931485Y-6982208D02*
X6941009Y-6991731D01*
X6941009Y-6991731D02*
X6950533Y-7010779D01*
X6950533Y-7010779D02*
X6950533Y-7020303D01*
X6950533Y-7020303D02*
X6941009Y-7039350D01*
X6941009Y-7039350D02*
X6931485Y-7048874D01*
X6931485Y-7048874D02*
X6912438Y-7058398D01*
X6912438Y-7058398D02*
X6874342Y-7058398D01*
X6874342Y-7058398D02*
X6855295Y-7067922D01*
X6855295Y-7067922D02*
X6845771Y-7077446D01*
X6845771Y-7077446D02*
X6836247Y-7096493D01*
X6836247Y-7096493D02*
X6836247Y-7134588D01*
X6836247Y-7134588D02*
X6845771Y-7153636D01*
X6845771Y-7153636D02*
X6855295Y-7163160D01*
X6855295Y-7163160D02*
X6874342Y-7172684D01*
X6874342Y-7172684D02*
X6912438Y-7172684D01*
X6912438Y-7172684D02*
X6931485Y-7163160D01*
X6931485Y-7163160D02*
X6941009Y-7153636D01*
X6941009Y-7153636D02*
X6950533Y-7134588D01*
X6950533Y-7134588D02*
X6950533Y-7096493D01*
X6950533Y-7096493D02*
X6941009Y-7077446D01*
X6941009Y-7077446D02*
X6931485Y-7067922D01*
X6931485Y-7067922D02*
X6912438Y-7058398D01*
X7074342Y-6972684D02*
X7093390Y-6972684D01*
X7093390Y-6972684D02*
X7112438Y-6982208D01*
X7112438Y-6982208D02*
X7121962Y-6991731D01*
X7121962Y-6991731D02*
X7131485Y-7010779D01*
X7131485Y-7010779D02*
X7141009Y-7048874D01*
X7141009Y-7048874D02*
X7141009Y-7096493D01*
X7141009Y-7096493D02*
X7131485Y-7134588D01*
X7131485Y-7134588D02*
X7121962Y-7153636D01*
X7121962Y-7153636D02*
X7112438Y-7163160D01*
X7112438Y-7163160D02*
X7093390Y-7172684D01*
X7093390Y-7172684D02*
X7074342Y-7172684D01*
X7074342Y-7172684D02*
X7055295Y-7163160D01*
X7055295Y-7163160D02*
X7045771Y-7153636D01*
X7045771Y-7153636D02*
X7036247Y-7134588D01*
X7036247Y-7134588D02*
X7026723Y-7096493D01*
X7026723Y-7096493D02*
X7026723Y-7048874D01*
X7026723Y-7048874D02*
X7036247Y-7010779D01*
X7036247Y-7010779D02*
X7045771Y-6991731D01*
X7045771Y-6991731D02*
X7055295Y-6982208D01*
X7055295Y-6982208D02*
X7074342Y-6972684D01*
X7264819Y-6972684D02*
X7283866Y-6972684D01*
X7283866Y-6972684D02*
X7302914Y-6982208D01*
X7302914Y-6982208D02*
X7312438Y-6991731D01*
X7312438Y-6991731D02*
X7321962Y-7010779D01*
X7321962Y-7010779D02*
X7331485Y-7048874D01*
X7331485Y-7048874D02*
X7331485Y-7096493D01*
X7331485Y-7096493D02*
X7321962Y-7134588D01*
X7321962Y-7134588D02*
X7312438Y-7153636D01*
X7312438Y-7153636D02*
X7302914Y-7163160D01*
X7302914Y-7163160D02*
X7283866Y-7172684D01*
X7283866Y-7172684D02*
X7264819Y-7172684D01*
X7264819Y-7172684D02*
X7245771Y-7163160D01*
X7245771Y-7163160D02*
X7236247Y-7153636D01*
X7236247Y-7153636D02*
X7226723Y-7134588D01*
X7226723Y-7134588D02*
X7217200Y-7096493D01*
X7217200Y-7096493D02*
X7217200Y-7048874D01*
X7217200Y-7048874D02*
X7226723Y-7010779D01*
X7226723Y-7010779D02*
X7236247Y-6991731D01*
X7236247Y-6991731D02*
X7245771Y-6982208D01*
X7245771Y-6982208D02*
X7264819Y-6972684D01*
X7417200Y-7172684D02*
X7417200Y-7039350D01*
X7417200Y-7058398D02*
X7426723Y-7048874D01*
X7426723Y-7048874D02*
X7445771Y-7039350D01*
X7445771Y-7039350D02*
X7474343Y-7039350D01*
X7474343Y-7039350D02*
X7493390Y-7048874D01*
X7493390Y-7048874D02*
X7502914Y-7067922D01*
X7502914Y-7067922D02*
X7502914Y-7172684D01*
X7502914Y-7067922D02*
X7512438Y-7048874D01*
X7512438Y-7048874D02*
X7531485Y-7039350D01*
X7531485Y-7039350D02*
X7560057Y-7039350D01*
X7560057Y-7039350D02*
X7579104Y-7048874D01*
X7579104Y-7048874D02*
X7588628Y-7067922D01*
X7588628Y-7067922D02*
X7588628Y-7172684D01*
X7683866Y-7172684D02*
X7683866Y-7039350D01*
X7683866Y-7058398D02*
X7693390Y-7048874D01*
X7693390Y-7048874D02*
X7712438Y-7039350D01*
X7712438Y-7039350D02*
X7741009Y-7039350D01*
X7741009Y-7039350D02*
X7760057Y-7048874D01*
X7760057Y-7048874D02*
X7769581Y-7067922D01*
X7769581Y-7067922D02*
X7769581Y-7172684D01*
X7769581Y-7067922D02*
X7779104Y-7048874D01*
X7779104Y-7048874D02*
X7798152Y-7039350D01*
X7798152Y-7039350D02*
X7826723Y-7039350D01*
X7826723Y-7039350D02*
X7845771Y-7048874D01*
X7845771Y-7048874D02*
X7855295Y-7067922D01*
X7855295Y-7067922D02*
X7855295Y-7172684D01*
X8245771Y-6963160D02*
X8074343Y-7220303D01*
X8502914Y-6972684D02*
X8521962Y-6972684D01*
X8521962Y-6972684D02*
X8541009Y-6982208D01*
X8541009Y-6982208D02*
X8550533Y-6991731D01*
X8550533Y-6991731D02*
X8560057Y-7010779D01*
X8560057Y-7010779D02*
X8569581Y-7048874D01*
X8569581Y-7048874D02*
X8569581Y-7096493D01*
X8569581Y-7096493D02*
X8560057Y-7134588D01*
X8560057Y-7134588D02*
X8550533Y-7153636D01*
X8550533Y-7153636D02*
X8541009Y-7163160D01*
X8541009Y-7163160D02*
X8521962Y-7172684D01*
X8521962Y-7172684D02*
X8502914Y-7172684D01*
X8502914Y-7172684D02*
X8483867Y-7163160D01*
X8483867Y-7163160D02*
X8474343Y-7153636D01*
X8474343Y-7153636D02*
X8464819Y-7134588D01*
X8464819Y-7134588D02*
X8455295Y-7096493D01*
X8455295Y-7096493D02*
X8455295Y-7048874D01*
X8455295Y-7048874D02*
X8464819Y-7010779D01*
X8464819Y-7010779D02*
X8474343Y-6991731D01*
X8474343Y-6991731D02*
X8483867Y-6982208D01*
X8483867Y-6982208D02*
X8502914Y-6972684D01*
X8655295Y-7153636D02*
X8664819Y-7163160D01*
X8664819Y-7163160D02*
X8655295Y-7172684D01*
X8655295Y-7172684D02*
X8645771Y-7163160D01*
X8645771Y-7163160D02*
X8655295Y-7153636D01*
X8655295Y-7153636D02*
X8655295Y-7172684D01*
X8788628Y-6972684D02*
X8807676Y-6972684D01*
X8807676Y-6972684D02*
X8826724Y-6982208D01*
X8826724Y-6982208D02*
X8836248Y-6991731D01*
X8836248Y-6991731D02*
X8845771Y-7010779D01*
X8845771Y-7010779D02*
X8855295Y-7048874D01*
X8855295Y-7048874D02*
X8855295Y-7096493D01*
X8855295Y-7096493D02*
X8845771Y-7134588D01*
X8845771Y-7134588D02*
X8836248Y-7153636D01*
X8836248Y-7153636D02*
X8826724Y-7163160D01*
X8826724Y-7163160D02*
X8807676Y-7172684D01*
X8807676Y-7172684D02*
X8788628Y-7172684D01*
X8788628Y-7172684D02*
X8769581Y-7163160D01*
X8769581Y-7163160D02*
X8760057Y-7153636D01*
X8760057Y-7153636D02*
X8750533Y-7134588D01*
X8750533Y-7134588D02*
X8741009Y-7096493D01*
X8741009Y-7096493D02*
X8741009Y-7048874D01*
X8741009Y-7048874D02*
X8750533Y-7010779D01*
X8750533Y-7010779D02*
X8760057Y-6991731D01*
X8760057Y-6991731D02*
X8769581Y-6982208D01*
X8769581Y-6982208D02*
X8788628Y-6972684D01*
X8921962Y-6972684D02*
X9045771Y-6972684D01*
X9045771Y-6972684D02*
X8979105Y-7048874D01*
X8979105Y-7048874D02*
X9007676Y-7048874D01*
X9007676Y-7048874D02*
X9026724Y-7058398D01*
X9026724Y-7058398D02*
X9036248Y-7067922D01*
X9036248Y-7067922D02*
X9045771Y-7086969D01*
X9045771Y-7086969D02*
X9045771Y-7134588D01*
X9045771Y-7134588D02*
X9036248Y-7153636D01*
X9036248Y-7153636D02*
X9026724Y-7163160D01*
X9026724Y-7163160D02*
X9007676Y-7172684D01*
X9007676Y-7172684D02*
X8950533Y-7172684D01*
X8950533Y-7172684D02*
X8931486Y-7163160D01*
X8931486Y-7163160D02*
X8921962Y-7153636D01*
X9236248Y-7172684D02*
X9121962Y-7172684D01*
X9179105Y-7172684D02*
X9179105Y-6972684D01*
X9179105Y-6972684D02*
X9160057Y-7001255D01*
X9160057Y-7001255D02*
X9141009Y-7020303D01*
X9141009Y-7020303D02*
X9121962Y-7029827D01*
X9417200Y-6972684D02*
X9321962Y-6972684D01*
X9321962Y-6972684D02*
X9312438Y-7067922D01*
X9312438Y-7067922D02*
X9321962Y-7058398D01*
X9321962Y-7058398D02*
X9341009Y-7048874D01*
X9341009Y-7048874D02*
X9388629Y-7048874D01*
X9388629Y-7048874D02*
X9407676Y-7058398D01*
X9407676Y-7058398D02*
X9417200Y-7067922D01*
X9417200Y-7067922D02*
X9426724Y-7086969D01*
X9426724Y-7086969D02*
X9426724Y-7134588D01*
X9426724Y-7134588D02*
X9417200Y-7153636D01*
X9417200Y-7153636D02*
X9407676Y-7163160D01*
X9407676Y-7163160D02*
X9388629Y-7172684D01*
X9388629Y-7172684D02*
X9341009Y-7172684D01*
X9341009Y-7172684D02*
X9321962Y-7163160D01*
X9321962Y-7163160D02*
X9312438Y-7153636D01*
X9502914Y-6972684D02*
X9502914Y-7010779D01*
X9579105Y-6972684D02*
X9579105Y-7010779D01*
X9874343Y-7248874D02*
X9864819Y-7239350D01*
X9864819Y-7239350D02*
X9845771Y-7210779D01*
X9845771Y-7210779D02*
X9836248Y-7191731D01*
X9836248Y-7191731D02*
X9826724Y-7163160D01*
X9826724Y-7163160D02*
X9817200Y-7115541D01*
X9817200Y-7115541D02*
X9817200Y-7077446D01*
X9817200Y-7077446D02*
X9826724Y-7029827D01*
X9826724Y-7029827D02*
X9836248Y-7001255D01*
X9836248Y-7001255D02*
X9845771Y-6982208D01*
X9845771Y-6982208D02*
X9864819Y-6953636D01*
X9864819Y-6953636D02*
X9874343Y-6944112D01*
X9941010Y-6991731D02*
X9950533Y-6982208D01*
X9950533Y-6982208D02*
X9969581Y-6972684D01*
X9969581Y-6972684D02*
X10017200Y-6972684D01*
X10017200Y-6972684D02*
X10036248Y-6982208D01*
X10036248Y-6982208D02*
X10045771Y-6991731D01*
X10045771Y-6991731D02*
X10055295Y-7010779D01*
X10055295Y-7010779D02*
X10055295Y-7029827D01*
X10055295Y-7029827D02*
X10045771Y-7058398D01*
X10045771Y-7058398D02*
X9931486Y-7172684D01*
X9931486Y-7172684D02*
X10055295Y-7172684D01*
X10293391Y-7172684D02*
X10293391Y-6972684D01*
X10379105Y-7172684D02*
X10379105Y-7067922D01*
X10379105Y-7067922D02*
X10369581Y-7048874D01*
X10369581Y-7048874D02*
X10350533Y-7039350D01*
X10350533Y-7039350D02*
X10321962Y-7039350D01*
X10321962Y-7039350D02*
X10302914Y-7048874D01*
X10302914Y-7048874D02*
X10293391Y-7058398D01*
X10502914Y-7172684D02*
X10483867Y-7163160D01*
X10483867Y-7163160D02*
X10474343Y-7153636D01*
X10474343Y-7153636D02*
X10464819Y-7134588D01*
X10464819Y-7134588D02*
X10464819Y-7077446D01*
X10464819Y-7077446D02*
X10474343Y-7058398D01*
X10474343Y-7058398D02*
X10483867Y-7048874D01*
X10483867Y-7048874D02*
X10502914Y-7039350D01*
X10502914Y-7039350D02*
X10531486Y-7039350D01*
X10531486Y-7039350D02*
X10550533Y-7048874D01*
X10550533Y-7048874D02*
X10560057Y-7058398D01*
X10560057Y-7058398D02*
X10569581Y-7077446D01*
X10569581Y-7077446D02*
X10569581Y-7134588D01*
X10569581Y-7134588D02*
X10560057Y-7153636D01*
X10560057Y-7153636D02*
X10550533Y-7163160D01*
X10550533Y-7163160D02*
X10531486Y-7172684D01*
X10531486Y-7172684D02*
X10502914Y-7172684D01*
X10683867Y-7172684D02*
X10664819Y-7163160D01*
X10664819Y-7163160D02*
X10655295Y-7144112D01*
X10655295Y-7144112D02*
X10655295Y-6972684D01*
X10836248Y-7163160D02*
X10817200Y-7172684D01*
X10817200Y-7172684D02*
X10779105Y-7172684D01*
X10779105Y-7172684D02*
X10760057Y-7163160D01*
X10760057Y-7163160D02*
X10750533Y-7144112D01*
X10750533Y-7144112D02*
X10750533Y-7067922D01*
X10750533Y-7067922D02*
X10760057Y-7048874D01*
X10760057Y-7048874D02*
X10779105Y-7039350D01*
X10779105Y-7039350D02*
X10817200Y-7039350D01*
X10817200Y-7039350D02*
X10836248Y-7048874D01*
X10836248Y-7048874D02*
X10845772Y-7067922D01*
X10845772Y-7067922D02*
X10845772Y-7086969D01*
X10845772Y-7086969D02*
X10750533Y-7106017D01*
X10921962Y-7163160D02*
X10941010Y-7172684D01*
X10941010Y-7172684D02*
X10979105Y-7172684D01*
X10979105Y-7172684D02*
X10998153Y-7163160D01*
X10998153Y-7163160D02*
X11007676Y-7144112D01*
X11007676Y-7144112D02*
X11007676Y-7134588D01*
X11007676Y-7134588D02*
X10998153Y-7115541D01*
X10998153Y-7115541D02*
X10979105Y-7106017D01*
X10979105Y-7106017D02*
X10950533Y-7106017D01*
X10950533Y-7106017D02*
X10931486Y-7096493D01*
X10931486Y-7096493D02*
X10921962Y-7077446D01*
X10921962Y-7077446D02*
X10921962Y-7067922D01*
X10921962Y-7067922D02*
X10931486Y-7048874D01*
X10931486Y-7048874D02*
X10950533Y-7039350D01*
X10950533Y-7039350D02*
X10979105Y-7039350D01*
X10979105Y-7039350D02*
X10998153Y-7048874D01*
X11074343Y-7248874D02*
X11083867Y-7239350D01*
X11083867Y-7239350D02*
X11102914Y-7210779D01*
X11102914Y-7210779D02*
X11112438Y-7191731D01*
X11112438Y-7191731D02*
X11121962Y-7163160D01*
X11121962Y-7163160D02*
X11131486Y-7115541D01*
X11131486Y-7115541D02*
X11131486Y-7077446D01*
X11131486Y-7077446D02*
X11121962Y-7029827D01*
X11121962Y-7029827D02*
X11112438Y-7001255D01*
X11112438Y-7001255D02*
X11102914Y-6982208D01*
X11102914Y-6982208D02*
X11083867Y-6953636D01*
X11083867Y-6953636D02*
X11074343Y-6944112D01*
D10*
X6252280Y-7298200D02*
X6252280Y-7392200D01*
X6205280Y-7345200D02*
X6299280Y-7345200D01*
D11*
X6598152Y-7236684D02*
X6617200Y-7236684D01*
X6617200Y-7236684D02*
X6636247Y-7246208D01*
X6636247Y-7246208D02*
X6645771Y-7255731D01*
X6645771Y-7255731D02*
X6655295Y-7274779D01*
X6655295Y-7274779D02*
X6664819Y-7312874D01*
X6664819Y-7312874D02*
X6664819Y-7360493D01*
X6664819Y-7360493D02*
X6655295Y-7398588D01*
X6655295Y-7398588D02*
X6645771Y-7417636D01*
X6645771Y-7417636D02*
X6636247Y-7427160D01*
X6636247Y-7427160D02*
X6617200Y-7436684D01*
X6617200Y-7436684D02*
X6598152Y-7436684D01*
X6598152Y-7436684D02*
X6579104Y-7427160D01*
X6579104Y-7427160D02*
X6569581Y-7417636D01*
X6569581Y-7417636D02*
X6560057Y-7398588D01*
X6560057Y-7398588D02*
X6550533Y-7360493D01*
X6550533Y-7360493D02*
X6550533Y-7312874D01*
X6550533Y-7312874D02*
X6560057Y-7274779D01*
X6560057Y-7274779D02*
X6569581Y-7255731D01*
X6569581Y-7255731D02*
X6579104Y-7246208D01*
X6579104Y-7246208D02*
X6598152Y-7236684D01*
X6750533Y-7417636D02*
X6760057Y-7427160D01*
X6760057Y-7427160D02*
X6750533Y-7436684D01*
X6750533Y-7436684D02*
X6741009Y-7427160D01*
X6741009Y-7427160D02*
X6750533Y-7417636D01*
X6750533Y-7417636D02*
X6750533Y-7436684D01*
X6855295Y-7436684D02*
X6893390Y-7436684D01*
X6893390Y-7436684D02*
X6912438Y-7427160D01*
X6912438Y-7427160D02*
X6921962Y-7417636D01*
X6921962Y-7417636D02*
X6941009Y-7389065D01*
X6941009Y-7389065D02*
X6950533Y-7350969D01*
X6950533Y-7350969D02*
X6950533Y-7274779D01*
X6950533Y-7274779D02*
X6941009Y-7255731D01*
X6941009Y-7255731D02*
X6931485Y-7246208D01*
X6931485Y-7246208D02*
X6912438Y-7236684D01*
X6912438Y-7236684D02*
X6874342Y-7236684D01*
X6874342Y-7236684D02*
X6855295Y-7246208D01*
X6855295Y-7246208D02*
X6845771Y-7255731D01*
X6845771Y-7255731D02*
X6836247Y-7274779D01*
X6836247Y-7274779D02*
X6836247Y-7322398D01*
X6836247Y-7322398D02*
X6845771Y-7341446D01*
X6845771Y-7341446D02*
X6855295Y-7350969D01*
X6855295Y-7350969D02*
X6874342Y-7360493D01*
X6874342Y-7360493D02*
X6912438Y-7360493D01*
X6912438Y-7360493D02*
X6931485Y-7350969D01*
X6931485Y-7350969D02*
X6941009Y-7341446D01*
X6941009Y-7341446D02*
X6950533Y-7322398D01*
X7121962Y-7303350D02*
X7121962Y-7436684D01*
X7074342Y-7227160D02*
X7026723Y-7370017D01*
X7026723Y-7370017D02*
X7150533Y-7370017D01*
X7264819Y-7236684D02*
X7283866Y-7236684D01*
X7283866Y-7236684D02*
X7302914Y-7246208D01*
X7302914Y-7246208D02*
X7312438Y-7255731D01*
X7312438Y-7255731D02*
X7321962Y-7274779D01*
X7321962Y-7274779D02*
X7331485Y-7312874D01*
X7331485Y-7312874D02*
X7331485Y-7360493D01*
X7331485Y-7360493D02*
X7321962Y-7398588D01*
X7321962Y-7398588D02*
X7312438Y-7417636D01*
X7312438Y-7417636D02*
X7302914Y-7427160D01*
X7302914Y-7427160D02*
X7283866Y-7436684D01*
X7283866Y-7436684D02*
X7264819Y-7436684D01*
X7264819Y-7436684D02*
X7245771Y-7427160D01*
X7245771Y-7427160D02*
X7236247Y-7417636D01*
X7236247Y-7417636D02*
X7226723Y-7398588D01*
X7226723Y-7398588D02*
X7217200Y-7360493D01*
X7217200Y-7360493D02*
X7217200Y-7312874D01*
X7217200Y-7312874D02*
X7226723Y-7274779D01*
X7226723Y-7274779D02*
X7236247Y-7255731D01*
X7236247Y-7255731D02*
X7245771Y-7246208D01*
X7245771Y-7246208D02*
X7264819Y-7236684D01*
X7417200Y-7436684D02*
X7417200Y-7303350D01*
X7417200Y-7322398D02*
X7426723Y-7312874D01*
X7426723Y-7312874D02*
X7445771Y-7303350D01*
X7445771Y-7303350D02*
X7474343Y-7303350D01*
X7474343Y-7303350D02*
X7493390Y-7312874D01*
X7493390Y-7312874D02*
X7502914Y-7331922D01*
X7502914Y-7331922D02*
X7502914Y-7436684D01*
X7502914Y-7331922D02*
X7512438Y-7312874D01*
X7512438Y-7312874D02*
X7531485Y-7303350D01*
X7531485Y-7303350D02*
X7560057Y-7303350D01*
X7560057Y-7303350D02*
X7579104Y-7312874D01*
X7579104Y-7312874D02*
X7588628Y-7331922D01*
X7588628Y-7331922D02*
X7588628Y-7436684D01*
X7683866Y-7436684D02*
X7683866Y-7303350D01*
X7683866Y-7322398D02*
X7693390Y-7312874D01*
X7693390Y-7312874D02*
X7712438Y-7303350D01*
X7712438Y-7303350D02*
X7741009Y-7303350D01*
X7741009Y-7303350D02*
X7760057Y-7312874D01*
X7760057Y-7312874D02*
X7769581Y-7331922D01*
X7769581Y-7331922D02*
X7769581Y-7436684D01*
X7769581Y-7331922D02*
X7779104Y-7312874D01*
X7779104Y-7312874D02*
X7798152Y-7303350D01*
X7798152Y-7303350D02*
X7826723Y-7303350D01*
X7826723Y-7303350D02*
X7845771Y-7312874D01*
X7845771Y-7312874D02*
X7855295Y-7331922D01*
X7855295Y-7331922D02*
X7855295Y-7436684D01*
X8245771Y-7227160D02*
X8074343Y-7484303D01*
X8502914Y-7236684D02*
X8521962Y-7236684D01*
X8521962Y-7236684D02*
X8541009Y-7246208D01*
X8541009Y-7246208D02*
X8550533Y-7255731D01*
X8550533Y-7255731D02*
X8560057Y-7274779D01*
X8560057Y-7274779D02*
X8569581Y-7312874D01*
X8569581Y-7312874D02*
X8569581Y-7360493D01*
X8569581Y-7360493D02*
X8560057Y-7398588D01*
X8560057Y-7398588D02*
X8550533Y-7417636D01*
X8550533Y-7417636D02*
X8541009Y-7427160D01*
X8541009Y-7427160D02*
X8521962Y-7436684D01*
X8521962Y-7436684D02*
X8502914Y-7436684D01*
X8502914Y-7436684D02*
X8483867Y-7427160D01*
X8483867Y-7427160D02*
X8474343Y-7417636D01*
X8474343Y-7417636D02*
X8464819Y-7398588D01*
X8464819Y-7398588D02*
X8455295Y-7360493D01*
X8455295Y-7360493D02*
X8455295Y-7312874D01*
X8455295Y-7312874D02*
X8464819Y-7274779D01*
X8464819Y-7274779D02*
X8474343Y-7255731D01*
X8474343Y-7255731D02*
X8483867Y-7246208D01*
X8483867Y-7246208D02*
X8502914Y-7236684D01*
X8655295Y-7417636D02*
X8664819Y-7427160D01*
X8664819Y-7427160D02*
X8655295Y-7436684D01*
X8655295Y-7436684D02*
X8645771Y-7427160D01*
X8645771Y-7427160D02*
X8655295Y-7417636D01*
X8655295Y-7417636D02*
X8655295Y-7436684D01*
X8788628Y-7236684D02*
X8807676Y-7236684D01*
X8807676Y-7236684D02*
X8826724Y-7246208D01*
X8826724Y-7246208D02*
X8836248Y-7255731D01*
X8836248Y-7255731D02*
X8845771Y-7274779D01*
X8845771Y-7274779D02*
X8855295Y-7312874D01*
X8855295Y-7312874D02*
X8855295Y-7360493D01*
X8855295Y-7360493D02*
X8845771Y-7398588D01*
X8845771Y-7398588D02*
X8836248Y-7417636D01*
X8836248Y-7417636D02*
X8826724Y-7427160D01*
X8826724Y-7427160D02*
X8807676Y-7436684D01*
X8807676Y-7436684D02*
X8788628Y-7436684D01*
X8788628Y-7436684D02*
X8769581Y-7427160D01*
X8769581Y-7427160D02*
X8760057Y-7417636D01*
X8760057Y-7417636D02*
X8750533Y-7398588D01*
X8750533Y-7398588D02*
X8741009Y-7360493D01*
X8741009Y-7360493D02*
X8741009Y-7312874D01*
X8741009Y-7312874D02*
X8750533Y-7274779D01*
X8750533Y-7274779D02*
X8760057Y-7255731D01*
X8760057Y-7255731D02*
X8769581Y-7246208D01*
X8769581Y-7246208D02*
X8788628Y-7236684D01*
X8921962Y-7236684D02*
X9045771Y-7236684D01*
X9045771Y-7236684D02*
X8979105Y-7312874D01*
X8979105Y-7312874D02*
X9007676Y-7312874D01*
X9007676Y-7312874D02*
X9026724Y-7322398D01*
X9026724Y-7322398D02*
X9036248Y-7331922D01*
X9036248Y-7331922D02*
X9045771Y-7350969D01*
X9045771Y-7350969D02*
X9045771Y-7398588D01*
X9045771Y-7398588D02*
X9036248Y-7417636D01*
X9036248Y-7417636D02*
X9026724Y-7427160D01*
X9026724Y-7427160D02*
X9007676Y-7436684D01*
X9007676Y-7436684D02*
X8950533Y-7436684D01*
X8950533Y-7436684D02*
X8931486Y-7427160D01*
X8931486Y-7427160D02*
X8921962Y-7417636D01*
X9112438Y-7236684D02*
X9245771Y-7236684D01*
X9245771Y-7236684D02*
X9160057Y-7436684D01*
X9360057Y-7236684D02*
X9379105Y-7236684D01*
X9379105Y-7236684D02*
X9398152Y-7246208D01*
X9398152Y-7246208D02*
X9407676Y-7255731D01*
X9407676Y-7255731D02*
X9417200Y-7274779D01*
X9417200Y-7274779D02*
X9426724Y-7312874D01*
X9426724Y-7312874D02*
X9426724Y-7360493D01*
X9426724Y-7360493D02*
X9417200Y-7398588D01*
X9417200Y-7398588D02*
X9407676Y-7417636D01*
X9407676Y-7417636D02*
X9398152Y-7427160D01*
X9398152Y-7427160D02*
X9379105Y-7436684D01*
X9379105Y-7436684D02*
X9360057Y-7436684D01*
X9360057Y-7436684D02*
X9341009Y-7427160D01*
X9341009Y-7427160D02*
X9331486Y-7417636D01*
X9331486Y-7417636D02*
X9321962Y-7398588D01*
X9321962Y-7398588D02*
X9312438Y-7360493D01*
X9312438Y-7360493D02*
X9312438Y-7312874D01*
X9312438Y-7312874D02*
X9321962Y-7274779D01*
X9321962Y-7274779D02*
X9331486Y-7255731D01*
X9331486Y-7255731D02*
X9341009Y-7246208D01*
X9341009Y-7246208D02*
X9360057Y-7236684D01*
X9502914Y-7236684D02*
X9502914Y-7274779D01*
X9579105Y-7236684D02*
X9579105Y-7274779D01*
X9874343Y-7512874D02*
X9864819Y-7503350D01*
X9864819Y-7503350D02*
X9845771Y-7474779D01*
X9845771Y-7474779D02*
X9836248Y-7455731D01*
X9836248Y-7455731D02*
X9826724Y-7427160D01*
X9826724Y-7427160D02*
X9817200Y-7379541D01*
X9817200Y-7379541D02*
X9817200Y-7341446D01*
X9817200Y-7341446D02*
X9826724Y-7293827D01*
X9826724Y-7293827D02*
X9836248Y-7265255D01*
X9836248Y-7265255D02*
X9845771Y-7246208D01*
X9845771Y-7246208D02*
X9864819Y-7217636D01*
X9864819Y-7217636D02*
X9874343Y-7208112D01*
X9931486Y-7236684D02*
X10055295Y-7236684D01*
X10055295Y-7236684D02*
X9988629Y-7312874D01*
X9988629Y-7312874D02*
X10017200Y-7312874D01*
X10017200Y-7312874D02*
X10036248Y-7322398D01*
X10036248Y-7322398D02*
X10045771Y-7331922D01*
X10045771Y-7331922D02*
X10055295Y-7350969D01*
X10055295Y-7350969D02*
X10055295Y-7398588D01*
X10055295Y-7398588D02*
X10045771Y-7417636D01*
X10045771Y-7417636D02*
X10036248Y-7427160D01*
X10036248Y-7427160D02*
X10017200Y-7436684D01*
X10017200Y-7436684D02*
X9960057Y-7436684D01*
X9960057Y-7436684D02*
X9941010Y-7427160D01*
X9941010Y-7427160D02*
X9931486Y-7417636D01*
X10293391Y-7436684D02*
X10293391Y-7236684D01*
X10379105Y-7436684D02*
X10379105Y-7331922D01*
X10379105Y-7331922D02*
X10369581Y-7312874D01*
X10369581Y-7312874D02*
X10350533Y-7303350D01*
X10350533Y-7303350D02*
X10321962Y-7303350D01*
X10321962Y-7303350D02*
X10302914Y-7312874D01*
X10302914Y-7312874D02*
X10293391Y-7322398D01*
X10502914Y-7436684D02*
X10483867Y-7427160D01*
X10483867Y-7427160D02*
X10474343Y-7417636D01*
X10474343Y-7417636D02*
X10464819Y-7398588D01*
X10464819Y-7398588D02*
X10464819Y-7341446D01*
X10464819Y-7341446D02*
X10474343Y-7322398D01*
X10474343Y-7322398D02*
X10483867Y-7312874D01*
X10483867Y-7312874D02*
X10502914Y-7303350D01*
X10502914Y-7303350D02*
X10531486Y-7303350D01*
X10531486Y-7303350D02*
X10550533Y-7312874D01*
X10550533Y-7312874D02*
X10560057Y-7322398D01*
X10560057Y-7322398D02*
X10569581Y-7341446D01*
X10569581Y-7341446D02*
X10569581Y-7398588D01*
X10569581Y-7398588D02*
X10560057Y-7417636D01*
X10560057Y-7417636D02*
X10550533Y-7427160D01*
X10550533Y-7427160D02*
X10531486Y-7436684D01*
X10531486Y-7436684D02*
X10502914Y-7436684D01*
X10683867Y-7436684D02*
X10664819Y-7427160D01*
X10664819Y-7427160D02*
X10655295Y-7408112D01*
X10655295Y-7408112D02*
X10655295Y-7236684D01*
X10836248Y-7427160D02*
X10817200Y-7436684D01*
X10817200Y-7436684D02*
X10779105Y-7436684D01*
X10779105Y-7436684D02*
X10760057Y-7427160D01*
X10760057Y-7427160D02*
X10750533Y-7408112D01*
X10750533Y-7408112D02*
X10750533Y-7331922D01*
X10750533Y-7331922D02*
X10760057Y-7312874D01*
X10760057Y-7312874D02*
X10779105Y-7303350D01*
X10779105Y-7303350D02*
X10817200Y-7303350D01*
X10817200Y-7303350D02*
X10836248Y-7312874D01*
X10836248Y-7312874D02*
X10845772Y-7331922D01*
X10845772Y-7331922D02*
X10845772Y-7350969D01*
X10845772Y-7350969D02*
X10750533Y-7370017D01*
X10921962Y-7427160D02*
X10941010Y-7436684D01*
X10941010Y-7436684D02*
X10979105Y-7436684D01*
X10979105Y-7436684D02*
X10998153Y-7427160D01*
X10998153Y-7427160D02*
X11007676Y-7408112D01*
X11007676Y-7408112D02*
X11007676Y-7398588D01*
X11007676Y-7398588D02*
X10998153Y-7379541D01*
X10998153Y-7379541D02*
X10979105Y-7370017D01*
X10979105Y-7370017D02*
X10950533Y-7370017D01*
X10950533Y-7370017D02*
X10931486Y-7360493D01*
X10931486Y-7360493D02*
X10921962Y-7341446D01*
X10921962Y-7341446D02*
X10921962Y-7331922D01*
X10921962Y-7331922D02*
X10931486Y-7312874D01*
X10931486Y-7312874D02*
X10950533Y-7303350D01*
X10950533Y-7303350D02*
X10979105Y-7303350D01*
X10979105Y-7303350D02*
X10998153Y-7312874D01*
X11074343Y-7512874D02*
X11083867Y-7503350D01*
X11083867Y-7503350D02*
X11102914Y-7474779D01*
X11102914Y-7474779D02*
X11112438Y-7455731D01*
X11112438Y-7455731D02*
X11121962Y-7427160D01*
X11121962Y-7427160D02*
X11131486Y-7379541D01*
X11131486Y-7379541D02*
X11131486Y-7341446D01*
X11131486Y-7341446D02*
X11121962Y-7293827D01*
X11121962Y-7293827D02*
X11112438Y-7265255D01*
X11112438Y-7265255D02*
X11102914Y-7246208D01*
X11102914Y-7246208D02*
X11083867Y-7217636D01*
X11083867Y-7217636D02*
X11074343Y-7208112D01*
D12*
X6284343Y-7645263D02*
X6284343Y-7573137D01*
X6212217Y-7573137D01*
X6212217Y-7645263D01*
X6284343Y-7645263D01*
D11*
X6664819Y-7700684D02*
X6550533Y-7700684D01*
X6607676Y-7700684D02*
X6607676Y-7500684D01*
X6607676Y-7500684D02*
X6588628Y-7529255D01*
X6588628Y-7529255D02*
X6569581Y-7548303D01*
X6569581Y-7548303D02*
X6550533Y-7557827D01*
X6750533Y-7681636D02*
X6760057Y-7691160D01*
X6760057Y-7691160D02*
X6750533Y-7700684D01*
X6750533Y-7700684D02*
X6741009Y-7691160D01*
X6741009Y-7691160D02*
X6750533Y-7681636D01*
X6750533Y-7681636D02*
X6750533Y-7700684D01*
X6883866Y-7500684D02*
X6902914Y-7500684D01*
X6902914Y-7500684D02*
X6921962Y-7510208D01*
X6921962Y-7510208D02*
X6931485Y-7519731D01*
X6931485Y-7519731D02*
X6941009Y-7538779D01*
X6941009Y-7538779D02*
X6950533Y-7576874D01*
X6950533Y-7576874D02*
X6950533Y-7624493D01*
X6950533Y-7624493D02*
X6941009Y-7662588D01*
X6941009Y-7662588D02*
X6931485Y-7681636D01*
X6931485Y-7681636D02*
X6921962Y-7691160D01*
X6921962Y-7691160D02*
X6902914Y-7700684D01*
X6902914Y-7700684D02*
X6883866Y-7700684D01*
X6883866Y-7700684D02*
X6864819Y-7691160D01*
X6864819Y-7691160D02*
X6855295Y-7681636D01*
X6855295Y-7681636D02*
X6845771Y-7662588D01*
X6845771Y-7662588D02*
X6836247Y-7624493D01*
X6836247Y-7624493D02*
X6836247Y-7576874D01*
X6836247Y-7576874D02*
X6845771Y-7538779D01*
X6845771Y-7538779D02*
X6855295Y-7519731D01*
X6855295Y-7519731D02*
X6864819Y-7510208D01*
X6864819Y-7510208D02*
X6883866Y-7500684D01*
X7026723Y-7519731D02*
X7036247Y-7510208D01*
X7036247Y-7510208D02*
X7055295Y-7500684D01*
X7055295Y-7500684D02*
X7102914Y-7500684D01*
X7102914Y-7500684D02*
X7121962Y-7510208D01*
X7121962Y-7510208D02*
X7131485Y-7519731D01*
X7131485Y-7519731D02*
X7141009Y-7538779D01*
X7141009Y-7538779D02*
X7141009Y-7557827D01*
X7141009Y-7557827D02*
X7131485Y-7586398D01*
X7131485Y-7586398D02*
X7017200Y-7700684D01*
X7017200Y-7700684D02*
X7141009Y-7700684D01*
X7264819Y-7500684D02*
X7283866Y-7500684D01*
X7283866Y-7500684D02*
X7302914Y-7510208D01*
X7302914Y-7510208D02*
X7312438Y-7519731D01*
X7312438Y-7519731D02*
X7321962Y-7538779D01*
X7321962Y-7538779D02*
X7331485Y-7576874D01*
X7331485Y-7576874D02*
X7331485Y-7624493D01*
X7331485Y-7624493D02*
X7321962Y-7662588D01*
X7321962Y-7662588D02*
X7312438Y-7681636D01*
X7312438Y-7681636D02*
X7302914Y-7691160D01*
X7302914Y-7691160D02*
X7283866Y-7700684D01*
X7283866Y-7700684D02*
X7264819Y-7700684D01*
X7264819Y-7700684D02*
X7245771Y-7691160D01*
X7245771Y-7691160D02*
X7236247Y-7681636D01*
X7236247Y-7681636D02*
X7226723Y-7662588D01*
X7226723Y-7662588D02*
X7217200Y-7624493D01*
X7217200Y-7624493D02*
X7217200Y-7576874D01*
X7217200Y-7576874D02*
X7226723Y-7538779D01*
X7226723Y-7538779D02*
X7236247Y-7519731D01*
X7236247Y-7519731D02*
X7245771Y-7510208D01*
X7245771Y-7510208D02*
X7264819Y-7500684D01*
X7417200Y-7700684D02*
X7417200Y-7567350D01*
X7417200Y-7586398D02*
X7426723Y-7576874D01*
X7426723Y-7576874D02*
X7445771Y-7567350D01*
X7445771Y-7567350D02*
X7474343Y-7567350D01*
X7474343Y-7567350D02*
X7493390Y-7576874D01*
X7493390Y-7576874D02*
X7502914Y-7595922D01*
X7502914Y-7595922D02*
X7502914Y-7700684D01*
X7502914Y-7595922D02*
X7512438Y-7576874D01*
X7512438Y-7576874D02*
X7531485Y-7567350D01*
X7531485Y-7567350D02*
X7560057Y-7567350D01*
X7560057Y-7567350D02*
X7579104Y-7576874D01*
X7579104Y-7576874D02*
X7588628Y-7595922D01*
X7588628Y-7595922D02*
X7588628Y-7700684D01*
X7683866Y-7700684D02*
X7683866Y-7567350D01*
X7683866Y-7586398D02*
X7693390Y-7576874D01*
X7693390Y-7576874D02*
X7712438Y-7567350D01*
X7712438Y-7567350D02*
X7741009Y-7567350D01*
X7741009Y-7567350D02*
X7760057Y-7576874D01*
X7760057Y-7576874D02*
X7769581Y-7595922D01*
X7769581Y-7595922D02*
X7769581Y-7700684D01*
X7769581Y-7595922D02*
X7779104Y-7576874D01*
X7779104Y-7576874D02*
X7798152Y-7567350D01*
X7798152Y-7567350D02*
X7826723Y-7567350D01*
X7826723Y-7567350D02*
X7845771Y-7576874D01*
X7845771Y-7576874D02*
X7855295Y-7595922D01*
X7855295Y-7595922D02*
X7855295Y-7700684D01*
X8245771Y-7491160D02*
X8074343Y-7748303D01*
X8502914Y-7500684D02*
X8521962Y-7500684D01*
X8521962Y-7500684D02*
X8541009Y-7510208D01*
X8541009Y-7510208D02*
X8550533Y-7519731D01*
X8550533Y-7519731D02*
X8560057Y-7538779D01*
X8560057Y-7538779D02*
X8569581Y-7576874D01*
X8569581Y-7576874D02*
X8569581Y-7624493D01*
X8569581Y-7624493D02*
X8560057Y-7662588D01*
X8560057Y-7662588D02*
X8550533Y-7681636D01*
X8550533Y-7681636D02*
X8541009Y-7691160D01*
X8541009Y-7691160D02*
X8521962Y-7700684D01*
X8521962Y-7700684D02*
X8502914Y-7700684D01*
X8502914Y-7700684D02*
X8483867Y-7691160D01*
X8483867Y-7691160D02*
X8474343Y-7681636D01*
X8474343Y-7681636D02*
X8464819Y-7662588D01*
X8464819Y-7662588D02*
X8455295Y-7624493D01*
X8455295Y-7624493D02*
X8455295Y-7576874D01*
X8455295Y-7576874D02*
X8464819Y-7538779D01*
X8464819Y-7538779D02*
X8474343Y-7519731D01*
X8474343Y-7519731D02*
X8483867Y-7510208D01*
X8483867Y-7510208D02*
X8502914Y-7500684D01*
X8655295Y-7681636D02*
X8664819Y-7691160D01*
X8664819Y-7691160D02*
X8655295Y-7700684D01*
X8655295Y-7700684D02*
X8645771Y-7691160D01*
X8645771Y-7691160D02*
X8655295Y-7681636D01*
X8655295Y-7681636D02*
X8655295Y-7700684D01*
X8788628Y-7500684D02*
X8807676Y-7500684D01*
X8807676Y-7500684D02*
X8826724Y-7510208D01*
X8826724Y-7510208D02*
X8836248Y-7519731D01*
X8836248Y-7519731D02*
X8845771Y-7538779D01*
X8845771Y-7538779D02*
X8855295Y-7576874D01*
X8855295Y-7576874D02*
X8855295Y-7624493D01*
X8855295Y-7624493D02*
X8845771Y-7662588D01*
X8845771Y-7662588D02*
X8836248Y-7681636D01*
X8836248Y-7681636D02*
X8826724Y-7691160D01*
X8826724Y-7691160D02*
X8807676Y-7700684D01*
X8807676Y-7700684D02*
X8788628Y-7700684D01*
X8788628Y-7700684D02*
X8769581Y-7691160D01*
X8769581Y-7691160D02*
X8760057Y-7681636D01*
X8760057Y-7681636D02*
X8750533Y-7662588D01*
X8750533Y-7662588D02*
X8741009Y-7624493D01*
X8741009Y-7624493D02*
X8741009Y-7576874D01*
X8741009Y-7576874D02*
X8750533Y-7538779D01*
X8750533Y-7538779D02*
X8760057Y-7519731D01*
X8760057Y-7519731D02*
X8769581Y-7510208D01*
X8769581Y-7510208D02*
X8788628Y-7500684D01*
X9026724Y-7567350D02*
X9026724Y-7700684D01*
X8979105Y-7491160D02*
X8931486Y-7634017D01*
X8931486Y-7634017D02*
X9055295Y-7634017D01*
X9169581Y-7500684D02*
X9188629Y-7500684D01*
X9188629Y-7500684D02*
X9207676Y-7510208D01*
X9207676Y-7510208D02*
X9217200Y-7519731D01*
X9217200Y-7519731D02*
X9226724Y-7538779D01*
X9226724Y-7538779D02*
X9236248Y-7576874D01*
X9236248Y-7576874D02*
X9236248Y-7624493D01*
X9236248Y-7624493D02*
X9226724Y-7662588D01*
X9226724Y-7662588D02*
X9217200Y-7681636D01*
X9217200Y-7681636D02*
X9207676Y-7691160D01*
X9207676Y-7691160D02*
X9188629Y-7700684D01*
X9188629Y-7700684D02*
X9169581Y-7700684D01*
X9169581Y-7700684D02*
X9150533Y-7691160D01*
X9150533Y-7691160D02*
X9141009Y-7681636D01*
X9141009Y-7681636D02*
X9131486Y-7662588D01*
X9131486Y-7662588D02*
X9121962Y-7624493D01*
X9121962Y-7624493D02*
X9121962Y-7576874D01*
X9121962Y-7576874D02*
X9131486Y-7538779D01*
X9131486Y-7538779D02*
X9141009Y-7519731D01*
X9141009Y-7519731D02*
X9150533Y-7510208D01*
X9150533Y-7510208D02*
X9169581Y-7500684D01*
X9312438Y-7519731D02*
X9321962Y-7510208D01*
X9321962Y-7510208D02*
X9341009Y-7500684D01*
X9341009Y-7500684D02*
X9388629Y-7500684D01*
X9388629Y-7500684D02*
X9407676Y-7510208D01*
X9407676Y-7510208D02*
X9417200Y-7519731D01*
X9417200Y-7519731D02*
X9426724Y-7538779D01*
X9426724Y-7538779D02*
X9426724Y-7557827D01*
X9426724Y-7557827D02*
X9417200Y-7586398D01*
X9417200Y-7586398D02*
X9302914Y-7700684D01*
X9302914Y-7700684D02*
X9426724Y-7700684D01*
X9502914Y-7500684D02*
X9502914Y-7538779D01*
X9579105Y-7500684D02*
X9579105Y-7538779D01*
X9874343Y-7776874D02*
X9864819Y-7767350D01*
X9864819Y-7767350D02*
X9845771Y-7738779D01*
X9845771Y-7738779D02*
X9836248Y-7719731D01*
X9836248Y-7719731D02*
X9826724Y-7691160D01*
X9826724Y-7691160D02*
X9817200Y-7643541D01*
X9817200Y-7643541D02*
X9817200Y-7605446D01*
X9817200Y-7605446D02*
X9826724Y-7557827D01*
X9826724Y-7557827D02*
X9836248Y-7529255D01*
X9836248Y-7529255D02*
X9845771Y-7510208D01*
X9845771Y-7510208D02*
X9864819Y-7481636D01*
X9864819Y-7481636D02*
X9874343Y-7472112D01*
X9941010Y-7519731D02*
X9950533Y-7510208D01*
X9950533Y-7510208D02*
X9969581Y-7500684D01*
X9969581Y-7500684D02*
X10017200Y-7500684D01*
X10017200Y-7500684D02*
X10036248Y-7510208D01*
X10036248Y-7510208D02*
X10045771Y-7519731D01*
X10045771Y-7519731D02*
X10055295Y-7538779D01*
X10055295Y-7538779D02*
X10055295Y-7557827D01*
X10055295Y-7557827D02*
X10045771Y-7586398D01*
X10045771Y-7586398D02*
X9931486Y-7700684D01*
X9931486Y-7700684D02*
X10055295Y-7700684D01*
X10293391Y-7700684D02*
X10293391Y-7500684D01*
X10379105Y-7700684D02*
X10379105Y-7595922D01*
X10379105Y-7595922D02*
X10369581Y-7576874D01*
X10369581Y-7576874D02*
X10350533Y-7567350D01*
X10350533Y-7567350D02*
X10321962Y-7567350D01*
X10321962Y-7567350D02*
X10302914Y-7576874D01*
X10302914Y-7576874D02*
X10293391Y-7586398D01*
X10502914Y-7700684D02*
X10483867Y-7691160D01*
X10483867Y-7691160D02*
X10474343Y-7681636D01*
X10474343Y-7681636D02*
X10464819Y-7662588D01*
X10464819Y-7662588D02*
X10464819Y-7605446D01*
X10464819Y-7605446D02*
X10474343Y-7586398D01*
X10474343Y-7586398D02*
X10483867Y-7576874D01*
X10483867Y-7576874D02*
X10502914Y-7567350D01*
X10502914Y-7567350D02*
X10531486Y-7567350D01*
X10531486Y-7567350D02*
X10550533Y-7576874D01*
X10550533Y-7576874D02*
X10560057Y-7586398D01*
X10560057Y-7586398D02*
X10569581Y-7605446D01*
X10569581Y-7605446D02*
X10569581Y-7662588D01*
X10569581Y-7662588D02*
X10560057Y-7681636D01*
X10560057Y-7681636D02*
X10550533Y-7691160D01*
X10550533Y-7691160D02*
X10531486Y-7700684D01*
X10531486Y-7700684D02*
X10502914Y-7700684D01*
X10683867Y-7700684D02*
X10664819Y-7691160D01*
X10664819Y-7691160D02*
X10655295Y-7672112D01*
X10655295Y-7672112D02*
X10655295Y-7500684D01*
X10836248Y-7691160D02*
X10817200Y-7700684D01*
X10817200Y-7700684D02*
X10779105Y-7700684D01*
X10779105Y-7700684D02*
X10760057Y-7691160D01*
X10760057Y-7691160D02*
X10750533Y-7672112D01*
X10750533Y-7672112D02*
X10750533Y-7595922D01*
X10750533Y-7595922D02*
X10760057Y-7576874D01*
X10760057Y-7576874D02*
X10779105Y-7567350D01*
X10779105Y-7567350D02*
X10817200Y-7567350D01*
X10817200Y-7567350D02*
X10836248Y-7576874D01*
X10836248Y-7576874D02*
X10845772Y-7595922D01*
X10845772Y-7595922D02*
X10845772Y-7614969D01*
X10845772Y-7614969D02*
X10750533Y-7634017D01*
X10921962Y-7691160D02*
X10941010Y-7700684D01*
X10941010Y-7700684D02*
X10979105Y-7700684D01*
X10979105Y-7700684D02*
X10998153Y-7691160D01*
X10998153Y-7691160D02*
X11007676Y-7672112D01*
X11007676Y-7672112D02*
X11007676Y-7662588D01*
X11007676Y-7662588D02*
X10998153Y-7643541D01*
X10998153Y-7643541D02*
X10979105Y-7634017D01*
X10979105Y-7634017D02*
X10950533Y-7634017D01*
X10950533Y-7634017D02*
X10931486Y-7624493D01*
X10931486Y-7624493D02*
X10921962Y-7605446D01*
X10921962Y-7605446D02*
X10921962Y-7595922D01*
X10921962Y-7595922D02*
X10931486Y-7576874D01*
X10931486Y-7576874D02*
X10950533Y-7567350D01*
X10950533Y-7567350D02*
X10979105Y-7567350D01*
X10979105Y-7567350D02*
X10998153Y-7576874D01*
X11074343Y-7776874D02*
X11083867Y-7767350D01*
X11083867Y-7767350D02*
X11102914Y-7738779D01*
X11102914Y-7738779D02*
X11112438Y-7719731D01*
X11112438Y-7719731D02*
X11121962Y-7691160D01*
X11121962Y-7691160D02*
X11131486Y-7643541D01*
X11131486Y-7643541D02*
X11131486Y-7605446D01*
X11131486Y-7605446D02*
X11121962Y-7557827D01*
X11121962Y-7557827D02*
X11112438Y-7529255D01*
X11112438Y-7529255D02*
X11102914Y-7510208D01*
X11102914Y-7510208D02*
X11083867Y-7481636D01*
X11083867Y-7481636D02*
X11074343Y-7472112D01*
D13*
X6245780Y-7926700D02*
X6299280Y-7873200D01*
X6245780Y-7819700D01*
X6192280Y-7873200D01*
X6245780Y-7926700D01*
D11*
X6664819Y-7964684D02*
X6550533Y-7964684D01*
X6607676Y-7964684D02*
X6607676Y-7764684D01*
X6607676Y-7764684D02*
X6588628Y-7793255D01*
X6588628Y-7793255D02*
X6569581Y-7812303D01*
X6569581Y-7812303D02*
X6550533Y-7821827D01*
X6750533Y-7945636D02*
X6760057Y-7955160D01*
X6760057Y-7955160D02*
X6750533Y-7964684D01*
X6750533Y-7964684D02*
X6741009Y-7955160D01*
X6741009Y-7955160D02*
X6750533Y-7945636D01*
X6750533Y-7945636D02*
X6750533Y-7964684D01*
X6883866Y-7764684D02*
X6902914Y-7764684D01*
X6902914Y-7764684D02*
X6921962Y-7774208D01*
X6921962Y-7774208D02*
X6931485Y-7783731D01*
X6931485Y-7783731D02*
X6941009Y-7802779D01*
X6941009Y-7802779D02*
X6950533Y-7840874D01*
X6950533Y-7840874D02*
X6950533Y-7888493D01*
X6950533Y-7888493D02*
X6941009Y-7926588D01*
X6941009Y-7926588D02*
X6931485Y-7945636D01*
X6931485Y-7945636D02*
X6921962Y-7955160D01*
X6921962Y-7955160D02*
X6902914Y-7964684D01*
X6902914Y-7964684D02*
X6883866Y-7964684D01*
X6883866Y-7964684D02*
X6864819Y-7955160D01*
X6864819Y-7955160D02*
X6855295Y-7945636D01*
X6855295Y-7945636D02*
X6845771Y-7926588D01*
X6845771Y-7926588D02*
X6836247Y-7888493D01*
X6836247Y-7888493D02*
X6836247Y-7840874D01*
X6836247Y-7840874D02*
X6845771Y-7802779D01*
X6845771Y-7802779D02*
X6855295Y-7783731D01*
X6855295Y-7783731D02*
X6864819Y-7774208D01*
X6864819Y-7774208D02*
X6883866Y-7764684D01*
X7017200Y-7764684D02*
X7150533Y-7764684D01*
X7150533Y-7764684D02*
X7064819Y-7964684D01*
X7264819Y-7764684D02*
X7283866Y-7764684D01*
X7283866Y-7764684D02*
X7302914Y-7774208D01*
X7302914Y-7774208D02*
X7312438Y-7783731D01*
X7312438Y-7783731D02*
X7321962Y-7802779D01*
X7321962Y-7802779D02*
X7331485Y-7840874D01*
X7331485Y-7840874D02*
X7331485Y-7888493D01*
X7331485Y-7888493D02*
X7321962Y-7926588D01*
X7321962Y-7926588D02*
X7312438Y-7945636D01*
X7312438Y-7945636D02*
X7302914Y-7955160D01*
X7302914Y-7955160D02*
X7283866Y-7964684D01*
X7283866Y-7964684D02*
X7264819Y-7964684D01*
X7264819Y-7964684D02*
X7245771Y-7955160D01*
X7245771Y-7955160D02*
X7236247Y-7945636D01*
X7236247Y-7945636D02*
X7226723Y-7926588D01*
X7226723Y-7926588D02*
X7217200Y-7888493D01*
X7217200Y-7888493D02*
X7217200Y-7840874D01*
X7217200Y-7840874D02*
X7226723Y-7802779D01*
X7226723Y-7802779D02*
X7236247Y-7783731D01*
X7236247Y-7783731D02*
X7245771Y-7774208D01*
X7245771Y-7774208D02*
X7264819Y-7764684D01*
X7417200Y-7964684D02*
X7417200Y-7831350D01*
X7417200Y-7850398D02*
X7426723Y-7840874D01*
X7426723Y-7840874D02*
X7445771Y-7831350D01*
X7445771Y-7831350D02*
X7474343Y-7831350D01*
X7474343Y-7831350D02*
X7493390Y-7840874D01*
X7493390Y-7840874D02*
X7502914Y-7859922D01*
X7502914Y-7859922D02*
X7502914Y-7964684D01*
X7502914Y-7859922D02*
X7512438Y-7840874D01*
X7512438Y-7840874D02*
X7531485Y-7831350D01*
X7531485Y-7831350D02*
X7560057Y-7831350D01*
X7560057Y-7831350D02*
X7579104Y-7840874D01*
X7579104Y-7840874D02*
X7588628Y-7859922D01*
X7588628Y-7859922D02*
X7588628Y-7964684D01*
X7683866Y-7964684D02*
X7683866Y-7831350D01*
X7683866Y-7850398D02*
X7693390Y-7840874D01*
X7693390Y-7840874D02*
X7712438Y-7831350D01*
X7712438Y-7831350D02*
X7741009Y-7831350D01*
X7741009Y-7831350D02*
X7760057Y-7840874D01*
X7760057Y-7840874D02*
X7769581Y-7859922D01*
X7769581Y-7859922D02*
X7769581Y-7964684D01*
X7769581Y-7859922D02*
X7779104Y-7840874D01*
X7779104Y-7840874D02*
X7798152Y-7831350D01*
X7798152Y-7831350D02*
X7826723Y-7831350D01*
X7826723Y-7831350D02*
X7845771Y-7840874D01*
X7845771Y-7840874D02*
X7855295Y-7859922D01*
X7855295Y-7859922D02*
X7855295Y-7964684D01*
X8245771Y-7755160D02*
X8074343Y-8012303D01*
X8502914Y-7764684D02*
X8521962Y-7764684D01*
X8521962Y-7764684D02*
X8541009Y-7774208D01*
X8541009Y-7774208D02*
X8550533Y-7783731D01*
X8550533Y-7783731D02*
X8560057Y-7802779D01*
X8560057Y-7802779D02*
X8569581Y-7840874D01*
X8569581Y-7840874D02*
X8569581Y-7888493D01*
X8569581Y-7888493D02*
X8560057Y-7926588D01*
X8560057Y-7926588D02*
X8550533Y-7945636D01*
X8550533Y-7945636D02*
X8541009Y-7955160D01*
X8541009Y-7955160D02*
X8521962Y-7964684D01*
X8521962Y-7964684D02*
X8502914Y-7964684D01*
X8502914Y-7964684D02*
X8483867Y-7955160D01*
X8483867Y-7955160D02*
X8474343Y-7945636D01*
X8474343Y-7945636D02*
X8464819Y-7926588D01*
X8464819Y-7926588D02*
X8455295Y-7888493D01*
X8455295Y-7888493D02*
X8455295Y-7840874D01*
X8455295Y-7840874D02*
X8464819Y-7802779D01*
X8464819Y-7802779D02*
X8474343Y-7783731D01*
X8474343Y-7783731D02*
X8483867Y-7774208D01*
X8483867Y-7774208D02*
X8502914Y-7764684D01*
X8655295Y-7945636D02*
X8664819Y-7955160D01*
X8664819Y-7955160D02*
X8655295Y-7964684D01*
X8655295Y-7964684D02*
X8645771Y-7955160D01*
X8645771Y-7955160D02*
X8655295Y-7945636D01*
X8655295Y-7945636D02*
X8655295Y-7964684D01*
X8788628Y-7764684D02*
X8807676Y-7764684D01*
X8807676Y-7764684D02*
X8826724Y-7774208D01*
X8826724Y-7774208D02*
X8836248Y-7783731D01*
X8836248Y-7783731D02*
X8845771Y-7802779D01*
X8845771Y-7802779D02*
X8855295Y-7840874D01*
X8855295Y-7840874D02*
X8855295Y-7888493D01*
X8855295Y-7888493D02*
X8845771Y-7926588D01*
X8845771Y-7926588D02*
X8836248Y-7945636D01*
X8836248Y-7945636D02*
X8826724Y-7955160D01*
X8826724Y-7955160D02*
X8807676Y-7964684D01*
X8807676Y-7964684D02*
X8788628Y-7964684D01*
X8788628Y-7964684D02*
X8769581Y-7955160D01*
X8769581Y-7955160D02*
X8760057Y-7945636D01*
X8760057Y-7945636D02*
X8750533Y-7926588D01*
X8750533Y-7926588D02*
X8741009Y-7888493D01*
X8741009Y-7888493D02*
X8741009Y-7840874D01*
X8741009Y-7840874D02*
X8750533Y-7802779D01*
X8750533Y-7802779D02*
X8760057Y-7783731D01*
X8760057Y-7783731D02*
X8769581Y-7774208D01*
X8769581Y-7774208D02*
X8788628Y-7764684D01*
X9026724Y-7831350D02*
X9026724Y-7964684D01*
X8979105Y-7755160D02*
X8931486Y-7898017D01*
X8931486Y-7898017D02*
X9055295Y-7898017D01*
X9121962Y-7783731D02*
X9131486Y-7774208D01*
X9131486Y-7774208D02*
X9150533Y-7764684D01*
X9150533Y-7764684D02*
X9198152Y-7764684D01*
X9198152Y-7764684D02*
X9217200Y-7774208D01*
X9217200Y-7774208D02*
X9226724Y-7783731D01*
X9226724Y-7783731D02*
X9236248Y-7802779D01*
X9236248Y-7802779D02*
X9236248Y-7821827D01*
X9236248Y-7821827D02*
X9226724Y-7850398D01*
X9226724Y-7850398D02*
X9112438Y-7964684D01*
X9112438Y-7964684D02*
X9236248Y-7964684D01*
X9426724Y-7964684D02*
X9312438Y-7964684D01*
X9369581Y-7964684D02*
X9369581Y-7764684D01*
X9369581Y-7764684D02*
X9350533Y-7793255D01*
X9350533Y-7793255D02*
X9331486Y-7812303D01*
X9331486Y-7812303D02*
X9312438Y-7821827D01*
X9502914Y-7764684D02*
X9502914Y-7802779D01*
X9579105Y-7764684D02*
X9579105Y-7802779D01*
X9874343Y-8040874D02*
X9864819Y-8031350D01*
X9864819Y-8031350D02*
X9845771Y-8002779D01*
X9845771Y-8002779D02*
X9836248Y-7983731D01*
X9836248Y-7983731D02*
X9826724Y-7955160D01*
X9826724Y-7955160D02*
X9817200Y-7907541D01*
X9817200Y-7907541D02*
X9817200Y-7869446D01*
X9817200Y-7869446D02*
X9826724Y-7821827D01*
X9826724Y-7821827D02*
X9836248Y-7793255D01*
X9836248Y-7793255D02*
X9845771Y-7774208D01*
X9845771Y-7774208D02*
X9864819Y-7745636D01*
X9864819Y-7745636D02*
X9874343Y-7736112D01*
X9931486Y-7764684D02*
X10055295Y-7764684D01*
X10055295Y-7764684D02*
X9988629Y-7840874D01*
X9988629Y-7840874D02*
X10017200Y-7840874D01*
X10017200Y-7840874D02*
X10036248Y-7850398D01*
X10036248Y-7850398D02*
X10045771Y-7859922D01*
X10045771Y-7859922D02*
X10055295Y-7878969D01*
X10055295Y-7878969D02*
X10055295Y-7926588D01*
X10055295Y-7926588D02*
X10045771Y-7945636D01*
X10045771Y-7945636D02*
X10036248Y-7955160D01*
X10036248Y-7955160D02*
X10017200Y-7964684D01*
X10017200Y-7964684D02*
X9960057Y-7964684D01*
X9960057Y-7964684D02*
X9941010Y-7955160D01*
X9941010Y-7955160D02*
X9931486Y-7945636D01*
X10293391Y-7964684D02*
X10293391Y-7764684D01*
X10379105Y-7964684D02*
X10379105Y-7859922D01*
X10379105Y-7859922D02*
X10369581Y-7840874D01*
X10369581Y-7840874D02*
X10350533Y-7831350D01*
X10350533Y-7831350D02*
X10321962Y-7831350D01*
X10321962Y-7831350D02*
X10302914Y-7840874D01*
X10302914Y-7840874D02*
X10293391Y-7850398D01*
X10502914Y-7964684D02*
X10483867Y-7955160D01*
X10483867Y-7955160D02*
X10474343Y-7945636D01*
X10474343Y-7945636D02*
X10464819Y-7926588D01*
X10464819Y-7926588D02*
X10464819Y-7869446D01*
X10464819Y-7869446D02*
X10474343Y-7850398D01*
X10474343Y-7850398D02*
X10483867Y-7840874D01*
X10483867Y-7840874D02*
X10502914Y-7831350D01*
X10502914Y-7831350D02*
X10531486Y-7831350D01*
X10531486Y-7831350D02*
X10550533Y-7840874D01*
X10550533Y-7840874D02*
X10560057Y-7850398D01*
X10560057Y-7850398D02*
X10569581Y-7869446D01*
X10569581Y-7869446D02*
X10569581Y-7926588D01*
X10569581Y-7926588D02*
X10560057Y-7945636D01*
X10560057Y-7945636D02*
X10550533Y-7955160D01*
X10550533Y-7955160D02*
X10531486Y-7964684D01*
X10531486Y-7964684D02*
X10502914Y-7964684D01*
X10683867Y-7964684D02*
X10664819Y-7955160D01*
X10664819Y-7955160D02*
X10655295Y-7936112D01*
X10655295Y-7936112D02*
X10655295Y-7764684D01*
X10836248Y-7955160D02*
X10817200Y-7964684D01*
X10817200Y-7964684D02*
X10779105Y-7964684D01*
X10779105Y-7964684D02*
X10760057Y-7955160D01*
X10760057Y-7955160D02*
X10750533Y-7936112D01*
X10750533Y-7936112D02*
X10750533Y-7859922D01*
X10750533Y-7859922D02*
X10760057Y-7840874D01*
X10760057Y-7840874D02*
X10779105Y-7831350D01*
X10779105Y-7831350D02*
X10817200Y-7831350D01*
X10817200Y-7831350D02*
X10836248Y-7840874D01*
X10836248Y-7840874D02*
X10845772Y-7859922D01*
X10845772Y-7859922D02*
X10845772Y-7878969D01*
X10845772Y-7878969D02*
X10750533Y-7898017D01*
X10921962Y-7955160D02*
X10941010Y-7964684D01*
X10941010Y-7964684D02*
X10979105Y-7964684D01*
X10979105Y-7964684D02*
X10998153Y-7955160D01*
X10998153Y-7955160D02*
X11007676Y-7936112D01*
X11007676Y-7936112D02*
X11007676Y-7926588D01*
X11007676Y-7926588D02*
X10998153Y-7907541D01*
X10998153Y-7907541D02*
X10979105Y-7898017D01*
X10979105Y-7898017D02*
X10950533Y-7898017D01*
X10950533Y-7898017D02*
X10931486Y-7888493D01*
X10931486Y-7888493D02*
X10921962Y-7869446D01*
X10921962Y-7869446D02*
X10921962Y-7859922D01*
X10921962Y-7859922D02*
X10931486Y-7840874D01*
X10931486Y-7840874D02*
X10950533Y-7831350D01*
X10950533Y-7831350D02*
X10979105Y-7831350D01*
X10979105Y-7831350D02*
X10998153Y-7840874D01*
X11074343Y-8040874D02*
X11083867Y-8031350D01*
X11083867Y-8031350D02*
X11102914Y-8002779D01*
X11102914Y-8002779D02*
X11112438Y-7983731D01*
X11112438Y-7983731D02*
X11121962Y-7955160D01*
X11121962Y-7955160D02*
X11131486Y-7907541D01*
X11131486Y-7907541D02*
X11131486Y-7869446D01*
X11131486Y-7869446D02*
X11121962Y-7821827D01*
X11121962Y-7821827D02*
X11112438Y-7793255D01*
X11112438Y-7793255D02*
X11102914Y-7774208D01*
X11102914Y-7774208D02*
X11083867Y-7745636D01*
X11083867Y-7745636D02*
X11074343Y-7736112D01*
X6099280Y-8037200D02*
X6299280Y-8237200D01*
X6299280Y-8037200D02*
X6099280Y-8237200D01*
X6299280Y-8137200D02*
G75*
G02*
X6099280Y-8137200I-100000J0D01*
G01*
X6099280Y-8137200D02*
G75*
G02*
X6299280Y-8137200I100000J0D01*
G01*
X6550533Y-8047731D02*
X6560057Y-8038208D01*
X6560057Y-8038208D02*
X6579104Y-8028684D01*
X6579104Y-8028684D02*
X6626723Y-8028684D01*
X6626723Y-8028684D02*
X6645771Y-8038208D01*
X6645771Y-8038208D02*
X6655295Y-8047731D01*
X6655295Y-8047731D02*
X6664819Y-8066779D01*
X6664819Y-8066779D02*
X6664819Y-8085827D01*
X6664819Y-8085827D02*
X6655295Y-8114398D01*
X6655295Y-8114398D02*
X6541009Y-8228684D01*
X6541009Y-8228684D02*
X6664819Y-8228684D01*
X6750533Y-8209636D02*
X6760057Y-8219160D01*
X6760057Y-8219160D02*
X6750533Y-8228684D01*
X6750533Y-8228684D02*
X6741009Y-8219160D01*
X6741009Y-8219160D02*
X6750533Y-8209636D01*
X6750533Y-8209636D02*
X6750533Y-8228684D01*
X6931485Y-8028684D02*
X6893390Y-8028684D01*
X6893390Y-8028684D02*
X6874342Y-8038208D01*
X6874342Y-8038208D02*
X6864819Y-8047731D01*
X6864819Y-8047731D02*
X6845771Y-8076303D01*
X6845771Y-8076303D02*
X6836247Y-8114398D01*
X6836247Y-8114398D02*
X6836247Y-8190588D01*
X6836247Y-8190588D02*
X6845771Y-8209636D01*
X6845771Y-8209636D02*
X6855295Y-8219160D01*
X6855295Y-8219160D02*
X6874342Y-8228684D01*
X6874342Y-8228684D02*
X6912438Y-8228684D01*
X6912438Y-8228684D02*
X6931485Y-8219160D01*
X6931485Y-8219160D02*
X6941009Y-8209636D01*
X6941009Y-8209636D02*
X6950533Y-8190588D01*
X6950533Y-8190588D02*
X6950533Y-8142969D01*
X6950533Y-8142969D02*
X6941009Y-8123922D01*
X6941009Y-8123922D02*
X6931485Y-8114398D01*
X6931485Y-8114398D02*
X6912438Y-8104874D01*
X6912438Y-8104874D02*
X6874342Y-8104874D01*
X6874342Y-8104874D02*
X6855295Y-8114398D01*
X6855295Y-8114398D02*
X6845771Y-8123922D01*
X6845771Y-8123922D02*
X6836247Y-8142969D01*
X7074342Y-8028684D02*
X7093390Y-8028684D01*
X7093390Y-8028684D02*
X7112438Y-8038208D01*
X7112438Y-8038208D02*
X7121962Y-8047731D01*
X7121962Y-8047731D02*
X7131485Y-8066779D01*
X7131485Y-8066779D02*
X7141009Y-8104874D01*
X7141009Y-8104874D02*
X7141009Y-8152493D01*
X7141009Y-8152493D02*
X7131485Y-8190588D01*
X7131485Y-8190588D02*
X7121962Y-8209636D01*
X7121962Y-8209636D02*
X7112438Y-8219160D01*
X7112438Y-8219160D02*
X7093390Y-8228684D01*
X7093390Y-8228684D02*
X7074342Y-8228684D01*
X7074342Y-8228684D02*
X7055295Y-8219160D01*
X7055295Y-8219160D02*
X7045771Y-8209636D01*
X7045771Y-8209636D02*
X7036247Y-8190588D01*
X7036247Y-8190588D02*
X7026723Y-8152493D01*
X7026723Y-8152493D02*
X7026723Y-8104874D01*
X7026723Y-8104874D02*
X7036247Y-8066779D01*
X7036247Y-8066779D02*
X7045771Y-8047731D01*
X7045771Y-8047731D02*
X7055295Y-8038208D01*
X7055295Y-8038208D02*
X7074342Y-8028684D01*
X7264819Y-8028684D02*
X7283866Y-8028684D01*
X7283866Y-8028684D02*
X7302914Y-8038208D01*
X7302914Y-8038208D02*
X7312438Y-8047731D01*
X7312438Y-8047731D02*
X7321962Y-8066779D01*
X7321962Y-8066779D02*
X7331485Y-8104874D01*
X7331485Y-8104874D02*
X7331485Y-8152493D01*
X7331485Y-8152493D02*
X7321962Y-8190588D01*
X7321962Y-8190588D02*
X7312438Y-8209636D01*
X7312438Y-8209636D02*
X7302914Y-8219160D01*
X7302914Y-8219160D02*
X7283866Y-8228684D01*
X7283866Y-8228684D02*
X7264819Y-8228684D01*
X7264819Y-8228684D02*
X7245771Y-8219160D01*
X7245771Y-8219160D02*
X7236247Y-8209636D01*
X7236247Y-8209636D02*
X7226723Y-8190588D01*
X7226723Y-8190588D02*
X7217200Y-8152493D01*
X7217200Y-8152493D02*
X7217200Y-8104874D01*
X7217200Y-8104874D02*
X7226723Y-8066779D01*
X7226723Y-8066779D02*
X7236247Y-8047731D01*
X7236247Y-8047731D02*
X7245771Y-8038208D01*
X7245771Y-8038208D02*
X7264819Y-8028684D01*
X7417200Y-8228684D02*
X7417200Y-8095350D01*
X7417200Y-8114398D02*
X7426723Y-8104874D01*
X7426723Y-8104874D02*
X7445771Y-8095350D01*
X7445771Y-8095350D02*
X7474343Y-8095350D01*
X7474343Y-8095350D02*
X7493390Y-8104874D01*
X7493390Y-8104874D02*
X7502914Y-8123922D01*
X7502914Y-8123922D02*
X7502914Y-8228684D01*
X7502914Y-8123922D02*
X7512438Y-8104874D01*
X7512438Y-8104874D02*
X7531485Y-8095350D01*
X7531485Y-8095350D02*
X7560057Y-8095350D01*
X7560057Y-8095350D02*
X7579104Y-8104874D01*
X7579104Y-8104874D02*
X7588628Y-8123922D01*
X7588628Y-8123922D02*
X7588628Y-8228684D01*
X7683866Y-8228684D02*
X7683866Y-8095350D01*
X7683866Y-8114398D02*
X7693390Y-8104874D01*
X7693390Y-8104874D02*
X7712438Y-8095350D01*
X7712438Y-8095350D02*
X7741009Y-8095350D01*
X7741009Y-8095350D02*
X7760057Y-8104874D01*
X7760057Y-8104874D02*
X7769581Y-8123922D01*
X7769581Y-8123922D02*
X7769581Y-8228684D01*
X7769581Y-8123922D02*
X7779104Y-8104874D01*
X7779104Y-8104874D02*
X7798152Y-8095350D01*
X7798152Y-8095350D02*
X7826723Y-8095350D01*
X7826723Y-8095350D02*
X7845771Y-8104874D01*
X7845771Y-8104874D02*
X7855295Y-8123922D01*
X7855295Y-8123922D02*
X7855295Y-8228684D01*
X8245771Y-8019160D02*
X8074343Y-8276303D01*
X8502914Y-8028684D02*
X8521962Y-8028684D01*
X8521962Y-8028684D02*
X8541009Y-8038208D01*
X8541009Y-8038208D02*
X8550533Y-8047731D01*
X8550533Y-8047731D02*
X8560057Y-8066779D01*
X8560057Y-8066779D02*
X8569581Y-8104874D01*
X8569581Y-8104874D02*
X8569581Y-8152493D01*
X8569581Y-8152493D02*
X8560057Y-8190588D01*
X8560057Y-8190588D02*
X8550533Y-8209636D01*
X8550533Y-8209636D02*
X8541009Y-8219160D01*
X8541009Y-8219160D02*
X8521962Y-8228684D01*
X8521962Y-8228684D02*
X8502914Y-8228684D01*
X8502914Y-8228684D02*
X8483867Y-8219160D01*
X8483867Y-8219160D02*
X8474343Y-8209636D01*
X8474343Y-8209636D02*
X8464819Y-8190588D01*
X8464819Y-8190588D02*
X8455295Y-8152493D01*
X8455295Y-8152493D02*
X8455295Y-8104874D01*
X8455295Y-8104874D02*
X8464819Y-8066779D01*
X8464819Y-8066779D02*
X8474343Y-8047731D01*
X8474343Y-8047731D02*
X8483867Y-8038208D01*
X8483867Y-8038208D02*
X8502914Y-8028684D01*
X8655295Y-8209636D02*
X8664819Y-8219160D01*
X8664819Y-8219160D02*
X8655295Y-8228684D01*
X8655295Y-8228684D02*
X8645771Y-8219160D01*
X8645771Y-8219160D02*
X8655295Y-8209636D01*
X8655295Y-8209636D02*
X8655295Y-8228684D01*
X8855295Y-8228684D02*
X8741009Y-8228684D01*
X8798152Y-8228684D02*
X8798152Y-8028684D01*
X8798152Y-8028684D02*
X8779105Y-8057255D01*
X8779105Y-8057255D02*
X8760057Y-8076303D01*
X8760057Y-8076303D02*
X8741009Y-8085827D01*
X8979105Y-8028684D02*
X8998152Y-8028684D01*
X8998152Y-8028684D02*
X9017200Y-8038208D01*
X9017200Y-8038208D02*
X9026724Y-8047731D01*
X9026724Y-8047731D02*
X9036248Y-8066779D01*
X9036248Y-8066779D02*
X9045771Y-8104874D01*
X9045771Y-8104874D02*
X9045771Y-8152493D01*
X9045771Y-8152493D02*
X9036248Y-8190588D01*
X9036248Y-8190588D02*
X9026724Y-8209636D01*
X9026724Y-8209636D02*
X9017200Y-8219160D01*
X9017200Y-8219160D02*
X8998152Y-8228684D01*
X8998152Y-8228684D02*
X8979105Y-8228684D01*
X8979105Y-8228684D02*
X8960057Y-8219160D01*
X8960057Y-8219160D02*
X8950533Y-8209636D01*
X8950533Y-8209636D02*
X8941009Y-8190588D01*
X8941009Y-8190588D02*
X8931486Y-8152493D01*
X8931486Y-8152493D02*
X8931486Y-8104874D01*
X8931486Y-8104874D02*
X8941009Y-8066779D01*
X8941009Y-8066779D02*
X8950533Y-8047731D01*
X8950533Y-8047731D02*
X8960057Y-8038208D01*
X8960057Y-8038208D02*
X8979105Y-8028684D01*
X9121962Y-8047731D02*
X9131486Y-8038208D01*
X9131486Y-8038208D02*
X9150533Y-8028684D01*
X9150533Y-8028684D02*
X9198152Y-8028684D01*
X9198152Y-8028684D02*
X9217200Y-8038208D01*
X9217200Y-8038208D02*
X9226724Y-8047731D01*
X9226724Y-8047731D02*
X9236248Y-8066779D01*
X9236248Y-8066779D02*
X9236248Y-8085827D01*
X9236248Y-8085827D02*
X9226724Y-8114398D01*
X9226724Y-8114398D02*
X9112438Y-8228684D01*
X9112438Y-8228684D02*
X9236248Y-8228684D01*
X9407676Y-8095350D02*
X9407676Y-8228684D01*
X9360057Y-8019160D02*
X9312438Y-8162017D01*
X9312438Y-8162017D02*
X9436248Y-8162017D01*
X9502914Y-8028684D02*
X9502914Y-8066779D01*
X9579105Y-8028684D02*
X9579105Y-8066779D01*
X9874343Y-8304874D02*
X9864819Y-8295350D01*
X9864819Y-8295350D02*
X9845771Y-8266779D01*
X9845771Y-8266779D02*
X9836248Y-8247731D01*
X9836248Y-8247731D02*
X9826724Y-8219160D01*
X9826724Y-8219160D02*
X9817200Y-8171541D01*
X9817200Y-8171541D02*
X9817200Y-8133446D01*
X9817200Y-8133446D02*
X9826724Y-8085827D01*
X9826724Y-8085827D02*
X9836248Y-8057255D01*
X9836248Y-8057255D02*
X9845771Y-8038208D01*
X9845771Y-8038208D02*
X9864819Y-8009636D01*
X9864819Y-8009636D02*
X9874343Y-8000112D01*
X9931486Y-8028684D02*
X10055295Y-8028684D01*
X10055295Y-8028684D02*
X9988629Y-8104874D01*
X9988629Y-8104874D02*
X10017200Y-8104874D01*
X10017200Y-8104874D02*
X10036248Y-8114398D01*
X10036248Y-8114398D02*
X10045771Y-8123922D01*
X10045771Y-8123922D02*
X10055295Y-8142969D01*
X10055295Y-8142969D02*
X10055295Y-8190588D01*
X10055295Y-8190588D02*
X10045771Y-8209636D01*
X10045771Y-8209636D02*
X10036248Y-8219160D01*
X10036248Y-8219160D02*
X10017200Y-8228684D01*
X10017200Y-8228684D02*
X9960057Y-8228684D01*
X9960057Y-8228684D02*
X9941010Y-8219160D01*
X9941010Y-8219160D02*
X9931486Y-8209636D01*
X10293391Y-8228684D02*
X10293391Y-8028684D01*
X10379105Y-8228684D02*
X10379105Y-8123922D01*
X10379105Y-8123922D02*
X10369581Y-8104874D01*
X10369581Y-8104874D02*
X10350533Y-8095350D01*
X10350533Y-8095350D02*
X10321962Y-8095350D01*
X10321962Y-8095350D02*
X10302914Y-8104874D01*
X10302914Y-8104874D02*
X10293391Y-8114398D01*
X10502914Y-8228684D02*
X10483867Y-8219160D01*
X10483867Y-8219160D02*
X10474343Y-8209636D01*
X10474343Y-8209636D02*
X10464819Y-8190588D01*
X10464819Y-8190588D02*
X10464819Y-8133446D01*
X10464819Y-8133446D02*
X10474343Y-8114398D01*
X10474343Y-8114398D02*
X10483867Y-8104874D01*
X10483867Y-8104874D02*
X10502914Y-8095350D01*
X10502914Y-8095350D02*
X10531486Y-8095350D01*
X10531486Y-8095350D02*
X10550533Y-8104874D01*
X10550533Y-8104874D02*
X10560057Y-8114398D01*
X10560057Y-8114398D02*
X10569581Y-8133446D01*
X10569581Y-8133446D02*
X10569581Y-8190588D01*
X10569581Y-8190588D02*
X10560057Y-8209636D01*
X10560057Y-8209636D02*
X10550533Y-8219160D01*
X10550533Y-8219160D02*
X10531486Y-8228684D01*
X10531486Y-8228684D02*
X10502914Y-8228684D01*
X10683867Y-8228684D02*
X10664819Y-8219160D01*
X10664819Y-8219160D02*
X10655295Y-8200112D01*
X10655295Y-8200112D02*
X10655295Y-8028684D01*
X10836248Y-8219160D02*
X10817200Y-8228684D01*
X10817200Y-8228684D02*
X10779105Y-8228684D01*
X10779105Y-8228684D02*
X10760057Y-8219160D01*
X10760057Y-8219160D02*
X10750533Y-8200112D01*
X10750533Y-8200112D02*
X10750533Y-8123922D01*
X10750533Y-8123922D02*
X10760057Y-8104874D01*
X10760057Y-8104874D02*
X10779105Y-8095350D01*
X10779105Y-8095350D02*
X10817200Y-8095350D01*
X10817200Y-8095350D02*
X10836248Y-8104874D01*
X10836248Y-8104874D02*
X10845772Y-8123922D01*
X10845772Y-8123922D02*
X10845772Y-8142969D01*
X10845772Y-8142969D02*
X10750533Y-8162017D01*
X10921962Y-8219160D02*
X10941010Y-8228684D01*
X10941010Y-8228684D02*
X10979105Y-8228684D01*
X10979105Y-8228684D02*
X10998153Y-8219160D01*
X10998153Y-8219160D02*
X11007676Y-8200112D01*
X11007676Y-8200112D02*
X11007676Y-8190588D01*
X11007676Y-8190588D02*
X10998153Y-8171541D01*
X10998153Y-8171541D02*
X10979105Y-8162017D01*
X10979105Y-8162017D02*
X10950533Y-8162017D01*
X10950533Y-8162017D02*
X10931486Y-8152493D01*
X10931486Y-8152493D02*
X10921962Y-8133446D01*
X10921962Y-8133446D02*
X10921962Y-8123922D01*
X10921962Y-8123922D02*
X10931486Y-8104874D01*
X10931486Y-8104874D02*
X10950533Y-8095350D01*
X10950533Y-8095350D02*
X10979105Y-8095350D01*
X10979105Y-8095350D02*
X10998153Y-8104874D01*
X11074343Y-8304874D02*
X11083867Y-8295350D01*
X11083867Y-8295350D02*
X11102914Y-8266779D01*
X11102914Y-8266779D02*
X11112438Y-8247731D01*
X11112438Y-8247731D02*
X11121962Y-8219160D01*
X11121962Y-8219160D02*
X11131486Y-8171541D01*
X11131486Y-8171541D02*
X11131486Y-8133446D01*
X11131486Y-8133446D02*
X11121962Y-8085827D01*
X11121962Y-8085827D02*
X11112438Y-8057255D01*
X11112438Y-8057255D02*
X11102914Y-8038208D01*
X11102914Y-8038208D02*
X11083867Y-8009636D01*
X11083867Y-8009636D02*
X11074343Y-8000112D01*
M02*
