%TF.GenerationSoftware,KiCad,Pcbnew,8.0.2*%
%TF.CreationDate,2024-06-16T16:42:39+02:00*%
%TF.ProjectId,bspdv3,62737064-7633-42e6-9b69-6361645f7063,rev?*%
%TF.SameCoordinates,Original*%
%TF.FileFunction,Drillmap*%
%TF.FilePolarity,Positive*%
%FSLAX45Y45*%
G04 Gerber Fmt 4.5, Leading zero omitted, Abs format (unit mm)*
G04 Created by KiCad (PCBNEW 8.0.2) date 2024-06-16 16:42:39*
%MOMM*%
%LPD*%
G01*
G04 APERTURE LIST*
%ADD10C,0.100000*%
%ADD11C,0.200000*%
%ADD12C,0.102000*%
%ADD13C,0.107000*%
%ADD14C,0.320000*%
G04 APERTURE END LIST*
D10*
X1778000Y-1724000D02*
G75*
G02*
X1978000Y-1524000I200000J0D01*
G01*
X1978000Y-7112000D02*
G75*
G02*
X1778000Y-6912000I0J200000D01*
G01*
X9198000Y-1524000D02*
G75*
G02*
X9398000Y-1724000I0J-200000D01*
G01*
X9398000Y-1724000D02*
X9398000Y-6912000D01*
X1778000Y-6912000D02*
X1778000Y-1724000D01*
X9398000Y-6912000D02*
G75*
G02*
X9198000Y-7112000I-200000J0D01*
G01*
X1978000Y-1524000D02*
X9198000Y-1524000D01*
X9198000Y-7112000D02*
X1978000Y-7112000D01*
D11*
D10*
X2464670Y-4969790D02*
X2504670Y-5009790D01*
X2504670Y-4969790D02*
X2464670Y-5009790D01*
X2901000Y-5187000D02*
X2941000Y-5227000D01*
X2941000Y-5187000D02*
X2901000Y-5227000D01*
X3028000Y-2774000D02*
X3068000Y-2814000D01*
X3068000Y-2774000D02*
X3028000Y-2814000D01*
X3180400Y-4806000D02*
X3220400Y-4846000D01*
X3220400Y-4806000D02*
X3180400Y-4846000D01*
X3282000Y-5568000D02*
X3322000Y-5608000D01*
X3322000Y-5568000D02*
X3282000Y-5608000D01*
X3396700Y-3228450D02*
X3436700Y-3268450D01*
X3436700Y-3228450D02*
X3396700Y-3268450D01*
X3409000Y-6076000D02*
X3449000Y-6116000D01*
X3449000Y-6076000D02*
X3409000Y-6116000D01*
X3829270Y-3600120D02*
X3869270Y-3640120D01*
X3869270Y-3600120D02*
X3829270Y-3640120D01*
X3917000Y-3028000D02*
X3957000Y-3068000D01*
X3957000Y-3028000D02*
X3917000Y-3068000D01*
X3917000Y-4044000D02*
X3957000Y-4084000D01*
X3957000Y-4044000D02*
X3917000Y-4084000D01*
X4138920Y-4018010D02*
X4178920Y-4058010D01*
X4178920Y-4018010D02*
X4138920Y-4058010D01*
X4210860Y-3320060D02*
X4250860Y-3360060D01*
X4250860Y-3320060D02*
X4210860Y-3360060D01*
X4286710Y-4283280D02*
X4326710Y-4323280D01*
X4326710Y-4283280D02*
X4286710Y-4323280D01*
X4298000Y-3663000D02*
X4338000Y-3703000D01*
X4338000Y-3663000D02*
X4298000Y-3703000D01*
X4321390Y-5390710D02*
X4361390Y-5430710D01*
X4361390Y-5390710D02*
X4321390Y-5430710D01*
X4473240Y-2813510D02*
X4513240Y-2853510D01*
X4513240Y-2813510D02*
X4473240Y-2853510D01*
X4770620Y-4294310D02*
X4810620Y-4334310D01*
X4810620Y-4294310D02*
X4770620Y-4334310D01*
X4971750Y-2783750D02*
X5011750Y-2823750D01*
X5011750Y-2783750D02*
X4971750Y-2823750D01*
X5314000Y-4044000D02*
X5354000Y-4084000D01*
X5354000Y-4044000D02*
X5314000Y-4084000D01*
X5375930Y-5025120D02*
X5415930Y-5065120D01*
X5415930Y-5025120D02*
X5375930Y-5065120D01*
X5657330Y-5544500D02*
X5697330Y-5584500D01*
X5697330Y-5544500D02*
X5657330Y-5584500D01*
X5707760Y-5858410D02*
X5747760Y-5898410D01*
X5747760Y-5858410D02*
X5707760Y-5898410D01*
X5892910Y-5455950D02*
X5932910Y-5495950D01*
X5932910Y-5455950D02*
X5892910Y-5495950D01*
X6076000Y-6076000D02*
X6116000Y-6116000D01*
X6116000Y-6076000D02*
X6076000Y-6116000D01*
X6341170Y-5129660D02*
X6381170Y-5169660D01*
X6381170Y-5129660D02*
X6341170Y-5169660D01*
X6358550Y-4210160D02*
X6398550Y-4250160D01*
X6398550Y-4210160D02*
X6358550Y-4250160D01*
X6487480Y-6278530D02*
X6527480Y-6318530D01*
X6527480Y-6278530D02*
X6487480Y-6318530D01*
X7346000Y-3917000D02*
X7386000Y-3957000D01*
X7386000Y-3917000D02*
X7346000Y-3957000D01*
X7373330Y-6689760D02*
X7413330Y-6729760D01*
X7413330Y-6689760D02*
X7373330Y-6729760D01*
X7456350Y-6117510D02*
X7496350Y-6157510D01*
X7496350Y-6117510D02*
X7456350Y-6157510D01*
X7473000Y-5568000D02*
X7513000Y-5608000D01*
X7513000Y-5568000D02*
X7473000Y-5608000D01*
X7777530Y-6806560D02*
X7817530Y-6846560D01*
X7817530Y-6806560D02*
X7777530Y-6846560D01*
X7817640Y-6058990D02*
X7857640Y-6098990D01*
X7857640Y-6058990D02*
X7817640Y-6098990D01*
X8108000Y-5949000D02*
X8148000Y-5989000D01*
X8148000Y-5949000D02*
X8108000Y-5989000D01*
X8108000Y-6584000D02*
X8148000Y-6624000D01*
X8148000Y-6584000D02*
X8108000Y-6624000D01*
X8362000Y-5441000D02*
X8402000Y-5481000D01*
X8402000Y-5441000D02*
X8362000Y-5481000D01*
X2067500Y-3048000D02*
G75*
G02*
X1996500Y-3048000I-35500J0D01*
G01*
X1996500Y-3048000D02*
G75*
G02*
X2067500Y-3048000I35500J0D01*
G01*
X2067500Y-4318000D02*
G75*
G02*
X1996500Y-4318000I-35500J0D01*
G01*
X1996500Y-4318000D02*
G75*
G02*
X2067500Y-4318000I35500J0D01*
G01*
X2321500Y-2794000D02*
G75*
G02*
X2250500Y-2794000I-35500J0D01*
G01*
X2250500Y-2794000D02*
G75*
G02*
X2321500Y-2794000I35500J0D01*
G01*
X2321500Y-3302000D02*
G75*
G02*
X2250500Y-3302000I-35500J0D01*
G01*
X2250500Y-3302000D02*
G75*
G02*
X2321500Y-3302000I35500J0D01*
G01*
X2321500Y-4064000D02*
G75*
G02*
X2250500Y-4064000I-35500J0D01*
G01*
X2250500Y-4064000D02*
G75*
G02*
X2321500Y-4064000I35500J0D01*
G01*
X2321500Y-4572000D02*
G75*
G02*
X2250500Y-4572000I-35500J0D01*
G01*
X2250500Y-4572000D02*
G75*
G02*
X2321500Y-4572000I35500J0D01*
G01*
X5642000Y-3668400D02*
X5642000Y-3748400D01*
X5602000Y-3708400D02*
X5682000Y-3708400D01*
X5842000Y-3668400D02*
X5842000Y-3748400D01*
X5802000Y-3708400D02*
X5882000Y-3708400D01*
X6302400Y-3617600D02*
X6302400Y-3697600D01*
X6262400Y-3657600D02*
X6342400Y-3657600D01*
X6502400Y-3617600D02*
X6502400Y-3697600D01*
X6462400Y-3657600D02*
X6542400Y-3657600D01*
X7772400Y-2855600D02*
X7772400Y-2935600D01*
X7732400Y-2895600D02*
X7812400Y-2895600D01*
X7972400Y-2855600D02*
X7972400Y-2935600D01*
X7932400Y-2895600D02*
X8012400Y-2895600D01*
X3080881Y-2064881D02*
X3080881Y-1999119D01*
X3015119Y-1999119D01*
X3015119Y-2064881D01*
X3080881Y-2064881D01*
X3334881Y-2064881D02*
X3334881Y-1999119D01*
X3269119Y-1999119D01*
X3269119Y-2064881D01*
X3334881Y-2064881D01*
X4096881Y-2064881D02*
X4096881Y-1999119D01*
X4031119Y-1999119D01*
X4031119Y-2064881D01*
X4096881Y-2064881D01*
X4350881Y-2064881D02*
X4350881Y-1999119D01*
X4285119Y-1999119D01*
X4285119Y-2064881D01*
X4350881Y-2064881D01*
X5112881Y-2064881D02*
X5112881Y-1999119D01*
X5047119Y-1999119D01*
X5047119Y-2064881D01*
X5112881Y-2064881D01*
X5366881Y-2064881D02*
X5366881Y-1999119D01*
X5301119Y-1999119D01*
X5301119Y-2064881D01*
X5366881Y-2064881D01*
X6128881Y-2064881D02*
X6128881Y-1999119D01*
X6063119Y-1999119D01*
X6063119Y-2064881D01*
X6128881Y-2064881D01*
X6382881Y-2064881D02*
X6382881Y-1999119D01*
X6317119Y-1999119D01*
X6317119Y-2064881D01*
X6382881Y-2064881D01*
X5740400Y-2749400D02*
X5787400Y-2702400D01*
X5740400Y-2655400D01*
X5693400Y-2702400D01*
X5740400Y-2749400D01*
X5994400Y-2749400D02*
X6041400Y-2702400D01*
X5994400Y-2655400D01*
X5947400Y-2702400D01*
X5994400Y-2749400D01*
X6248400Y-2749400D02*
X6295400Y-2702400D01*
X6248400Y-2655400D01*
X6201400Y-2702400D01*
X6248400Y-2749400D01*
D12*
X8686600Y-2692200D02*
X8788600Y-2794200D01*
X8788600Y-2692200D02*
X8686600Y-2794200D01*
X8788600Y-2743200D02*
G75*
G02*
X8686600Y-2743200I-51000J0D01*
G01*
X8686600Y-2743200D02*
G75*
G02*
X8788600Y-2743200I51000J0D01*
G01*
X8686600Y-2946200D02*
X8788600Y-3048200D01*
X8788600Y-2946200D02*
X8686600Y-3048200D01*
X8788600Y-2997200D02*
G75*
G02*
X8686600Y-2997200I-51000J0D01*
G01*
X8686600Y-2997200D02*
G75*
G02*
X8788600Y-2997200I51000J0D01*
G01*
X8686600Y-3301800D02*
X8788600Y-3403800D01*
X8788600Y-3301800D02*
X8686600Y-3403800D01*
X8788600Y-3352800D02*
G75*
G02*
X8686600Y-3352800I-51000J0D01*
G01*
X8686600Y-3352800D02*
G75*
G02*
X8788600Y-3352800I51000J0D01*
G01*
X8686600Y-3555800D02*
X8788600Y-3657800D01*
X8788600Y-3555800D02*
X8686600Y-3657800D01*
X8788600Y-3606800D02*
G75*
G02*
X8686600Y-3606800I-51000J0D01*
G01*
X8686600Y-3606800D02*
G75*
G02*
X8788600Y-3606800I51000J0D01*
G01*
D13*
X6778200Y-2021800D02*
X6885200Y-2128800D01*
X6885200Y-2021800D02*
X6778200Y-2128800D01*
X6831700Y-2021800D02*
X6831700Y-2128800D01*
X6778200Y-2075300D02*
X6885200Y-2075300D01*
X7032200Y-2021800D02*
X7139200Y-2128800D01*
X7139200Y-2021800D02*
X7032200Y-2128800D01*
X7085700Y-2021800D02*
X7085700Y-2128800D01*
X7032200Y-2075300D02*
X7139200Y-2075300D01*
X7286200Y-2021800D02*
X7393200Y-2128800D01*
X7393200Y-2021800D02*
X7286200Y-2128800D01*
X7339700Y-2021800D02*
X7339700Y-2128800D01*
X7286200Y-2075300D02*
X7393200Y-2075300D01*
X7718900Y-2029300D02*
X7825900Y-2136300D01*
X7825900Y-2029300D02*
X7718900Y-2136300D01*
X7772400Y-2029300D02*
X7772400Y-2136300D01*
X7718900Y-2082800D02*
X7825900Y-2082800D01*
X7972900Y-2029300D02*
X8079900Y-2136300D01*
X8079900Y-2029300D02*
X7972900Y-2136300D01*
X8026400Y-2029300D02*
X8026400Y-2136300D01*
X7972900Y-2082800D02*
X8079900Y-2082800D01*
X8226900Y-2029300D02*
X8333900Y-2136300D01*
X8333900Y-2029300D02*
X8226900Y-2136300D01*
X8280400Y-2029300D02*
X8280400Y-2136300D01*
X8226900Y-2082800D02*
X8333900Y-2082800D01*
D14*
X2126000Y-1872000D02*
X2446000Y-2192000D01*
X2446000Y-1872000D02*
X2126000Y-2192000D01*
X2399138Y-2145138D02*
X2399138Y-1918862D01*
X2172862Y-1918862D01*
X2172862Y-2145138D01*
X2399138Y-2145138D01*
X2126000Y-6444000D02*
X2446000Y-6764000D01*
X2446000Y-6444000D02*
X2126000Y-6764000D01*
X2399138Y-6717138D02*
X2399138Y-6490862D01*
X2172862Y-6490862D01*
X2172862Y-6717138D01*
X2399138Y-6717138D01*
X8730000Y-1872000D02*
X9050000Y-2192000D01*
X9050000Y-1872000D02*
X8730000Y-2192000D01*
X9003138Y-2145138D02*
X9003138Y-1918862D01*
X8776862Y-1918862D01*
X8776862Y-2145138D01*
X9003138Y-2145138D01*
X8730000Y-6444000D02*
X9050000Y-6764000D01*
X9050000Y-6444000D02*
X8730000Y-6764000D01*
X9003138Y-6717138D02*
X9003138Y-6490862D01*
X8776862Y-6490862D01*
X8776862Y-6717138D01*
X9003138Y-6717138D01*
D11*
X2033777Y-7428484D02*
X2033777Y-7228484D01*
X2033777Y-7228484D02*
X2081396Y-7228484D01*
X2081396Y-7228484D02*
X2109967Y-7238008D01*
X2109967Y-7238008D02*
X2129015Y-7257055D01*
X2129015Y-7257055D02*
X2138539Y-7276103D01*
X2138539Y-7276103D02*
X2148063Y-7314198D01*
X2148063Y-7314198D02*
X2148063Y-7342769D01*
X2148063Y-7342769D02*
X2138539Y-7380865D01*
X2138539Y-7380865D02*
X2129015Y-7399912D01*
X2129015Y-7399912D02*
X2109967Y-7418960D01*
X2109967Y-7418960D02*
X2081396Y-7428484D01*
X2081396Y-7428484D02*
X2033777Y-7428484D01*
X2233777Y-7428484D02*
X2233777Y-7295150D01*
X2233777Y-7333246D02*
X2243301Y-7314198D01*
X2243301Y-7314198D02*
X2252824Y-7304674D01*
X2252824Y-7304674D02*
X2271872Y-7295150D01*
X2271872Y-7295150D02*
X2290920Y-7295150D01*
X2357586Y-7428484D02*
X2357586Y-7295150D01*
X2357586Y-7228484D02*
X2348063Y-7238008D01*
X2348063Y-7238008D02*
X2357586Y-7247531D01*
X2357586Y-7247531D02*
X2367110Y-7238008D01*
X2367110Y-7238008D02*
X2357586Y-7228484D01*
X2357586Y-7228484D02*
X2357586Y-7247531D01*
X2481396Y-7428484D02*
X2462348Y-7418960D01*
X2462348Y-7418960D02*
X2452824Y-7399912D01*
X2452824Y-7399912D02*
X2452824Y-7228484D01*
X2586158Y-7428484D02*
X2567110Y-7418960D01*
X2567110Y-7418960D02*
X2557586Y-7399912D01*
X2557586Y-7399912D02*
X2557586Y-7228484D01*
X2814729Y-7428484D02*
X2814729Y-7228484D01*
X2814729Y-7228484D02*
X2881396Y-7371341D01*
X2881396Y-7371341D02*
X2948062Y-7228484D01*
X2948062Y-7228484D02*
X2948062Y-7428484D01*
X3129015Y-7428484D02*
X3129015Y-7323722D01*
X3129015Y-7323722D02*
X3119491Y-7304674D01*
X3119491Y-7304674D02*
X3100443Y-7295150D01*
X3100443Y-7295150D02*
X3062348Y-7295150D01*
X3062348Y-7295150D02*
X3043301Y-7304674D01*
X3129015Y-7418960D02*
X3109967Y-7428484D01*
X3109967Y-7428484D02*
X3062348Y-7428484D01*
X3062348Y-7428484D02*
X3043301Y-7418960D01*
X3043301Y-7418960D02*
X3033777Y-7399912D01*
X3033777Y-7399912D02*
X3033777Y-7380865D01*
X3033777Y-7380865D02*
X3043301Y-7361817D01*
X3043301Y-7361817D02*
X3062348Y-7352293D01*
X3062348Y-7352293D02*
X3109967Y-7352293D01*
X3109967Y-7352293D02*
X3129015Y-7342769D01*
X3224253Y-7295150D02*
X3224253Y-7495150D01*
X3224253Y-7304674D02*
X3243301Y-7295150D01*
X3243301Y-7295150D02*
X3281396Y-7295150D01*
X3281396Y-7295150D02*
X3300443Y-7304674D01*
X3300443Y-7304674D02*
X3309967Y-7314198D01*
X3309967Y-7314198D02*
X3319491Y-7333246D01*
X3319491Y-7333246D02*
X3319491Y-7390388D01*
X3319491Y-7390388D02*
X3309967Y-7409436D01*
X3309967Y-7409436D02*
X3300443Y-7418960D01*
X3300443Y-7418960D02*
X3281396Y-7428484D01*
X3281396Y-7428484D02*
X3243301Y-7428484D01*
X3243301Y-7428484D02*
X3224253Y-7418960D01*
X3405205Y-7409436D02*
X3414729Y-7418960D01*
X3414729Y-7418960D02*
X3405205Y-7428484D01*
X3405205Y-7428484D02*
X3395682Y-7418960D01*
X3395682Y-7418960D02*
X3405205Y-7409436D01*
X3405205Y-7409436D02*
X3405205Y-7428484D01*
X3405205Y-7304674D02*
X3414729Y-7314198D01*
X3414729Y-7314198D02*
X3405205Y-7323722D01*
X3405205Y-7323722D02*
X3395682Y-7314198D01*
X3395682Y-7314198D02*
X3405205Y-7304674D01*
X3405205Y-7304674D02*
X3405205Y-7323722D01*
D10*
X1733000Y-7737000D02*
X1773000Y-7777000D01*
X1773000Y-7737000D02*
X1733000Y-7777000D01*
D11*
X2071872Y-7648484D02*
X2090920Y-7648484D01*
X2090920Y-7648484D02*
X2109967Y-7658008D01*
X2109967Y-7658008D02*
X2119491Y-7667531D01*
X2119491Y-7667531D02*
X2129015Y-7686579D01*
X2129015Y-7686579D02*
X2138539Y-7724674D01*
X2138539Y-7724674D02*
X2138539Y-7772293D01*
X2138539Y-7772293D02*
X2129015Y-7810388D01*
X2129015Y-7810388D02*
X2119491Y-7829436D01*
X2119491Y-7829436D02*
X2109967Y-7838960D01*
X2109967Y-7838960D02*
X2090920Y-7848484D01*
X2090920Y-7848484D02*
X2071872Y-7848484D01*
X2071872Y-7848484D02*
X2052824Y-7838960D01*
X2052824Y-7838960D02*
X2043301Y-7829436D01*
X2043301Y-7829436D02*
X2033777Y-7810388D01*
X2033777Y-7810388D02*
X2024253Y-7772293D01*
X2024253Y-7772293D02*
X2024253Y-7724674D01*
X2024253Y-7724674D02*
X2033777Y-7686579D01*
X2033777Y-7686579D02*
X2043301Y-7667531D01*
X2043301Y-7667531D02*
X2052824Y-7658008D01*
X2052824Y-7658008D02*
X2071872Y-7648484D01*
X2224253Y-7829436D02*
X2233777Y-7838960D01*
X2233777Y-7838960D02*
X2224253Y-7848484D01*
X2224253Y-7848484D02*
X2214729Y-7838960D01*
X2214729Y-7838960D02*
X2224253Y-7829436D01*
X2224253Y-7829436D02*
X2224253Y-7848484D01*
X2405205Y-7715150D02*
X2405205Y-7848484D01*
X2357586Y-7638960D02*
X2309967Y-7781817D01*
X2309967Y-7781817D02*
X2433777Y-7781817D01*
X2548063Y-7648484D02*
X2567110Y-7648484D01*
X2567110Y-7648484D02*
X2586158Y-7658008D01*
X2586158Y-7658008D02*
X2595682Y-7667531D01*
X2595682Y-7667531D02*
X2605205Y-7686579D01*
X2605205Y-7686579D02*
X2614729Y-7724674D01*
X2614729Y-7724674D02*
X2614729Y-7772293D01*
X2614729Y-7772293D02*
X2605205Y-7810388D01*
X2605205Y-7810388D02*
X2595682Y-7829436D01*
X2595682Y-7829436D02*
X2586158Y-7838960D01*
X2586158Y-7838960D02*
X2567110Y-7848484D01*
X2567110Y-7848484D02*
X2548063Y-7848484D01*
X2548063Y-7848484D02*
X2529015Y-7838960D01*
X2529015Y-7838960D02*
X2519491Y-7829436D01*
X2519491Y-7829436D02*
X2509967Y-7810388D01*
X2509967Y-7810388D02*
X2500444Y-7772293D01*
X2500444Y-7772293D02*
X2500444Y-7724674D01*
X2500444Y-7724674D02*
X2509967Y-7686579D01*
X2509967Y-7686579D02*
X2519491Y-7667531D01*
X2519491Y-7667531D02*
X2529015Y-7658008D01*
X2529015Y-7658008D02*
X2548063Y-7648484D01*
X2738539Y-7648484D02*
X2757586Y-7648484D01*
X2757586Y-7648484D02*
X2776634Y-7658008D01*
X2776634Y-7658008D02*
X2786158Y-7667531D01*
X2786158Y-7667531D02*
X2795682Y-7686579D01*
X2795682Y-7686579D02*
X2805205Y-7724674D01*
X2805205Y-7724674D02*
X2805205Y-7772293D01*
X2805205Y-7772293D02*
X2795682Y-7810388D01*
X2795682Y-7810388D02*
X2786158Y-7829436D01*
X2786158Y-7829436D02*
X2776634Y-7838960D01*
X2776634Y-7838960D02*
X2757586Y-7848484D01*
X2757586Y-7848484D02*
X2738539Y-7848484D01*
X2738539Y-7848484D02*
X2719491Y-7838960D01*
X2719491Y-7838960D02*
X2709967Y-7829436D01*
X2709967Y-7829436D02*
X2700444Y-7810388D01*
X2700444Y-7810388D02*
X2690920Y-7772293D01*
X2690920Y-7772293D02*
X2690920Y-7724674D01*
X2690920Y-7724674D02*
X2700444Y-7686579D01*
X2700444Y-7686579D02*
X2709967Y-7667531D01*
X2709967Y-7667531D02*
X2719491Y-7658008D01*
X2719491Y-7658008D02*
X2738539Y-7648484D01*
X2890920Y-7848484D02*
X2890920Y-7715150D01*
X2890920Y-7734198D02*
X2900443Y-7724674D01*
X2900443Y-7724674D02*
X2919491Y-7715150D01*
X2919491Y-7715150D02*
X2948063Y-7715150D01*
X2948063Y-7715150D02*
X2967110Y-7724674D01*
X2967110Y-7724674D02*
X2976634Y-7743722D01*
X2976634Y-7743722D02*
X2976634Y-7848484D01*
X2976634Y-7743722D02*
X2986158Y-7724674D01*
X2986158Y-7724674D02*
X3005205Y-7715150D01*
X3005205Y-7715150D02*
X3033777Y-7715150D01*
X3033777Y-7715150D02*
X3052824Y-7724674D01*
X3052824Y-7724674D02*
X3062348Y-7743722D01*
X3062348Y-7743722D02*
X3062348Y-7848484D01*
X3157586Y-7848484D02*
X3157586Y-7715150D01*
X3157586Y-7734198D02*
X3167110Y-7724674D01*
X3167110Y-7724674D02*
X3186158Y-7715150D01*
X3186158Y-7715150D02*
X3214729Y-7715150D01*
X3214729Y-7715150D02*
X3233777Y-7724674D01*
X3233777Y-7724674D02*
X3243301Y-7743722D01*
X3243301Y-7743722D02*
X3243301Y-7848484D01*
X3243301Y-7743722D02*
X3252824Y-7724674D01*
X3252824Y-7724674D02*
X3271872Y-7715150D01*
X3271872Y-7715150D02*
X3300443Y-7715150D01*
X3300443Y-7715150D02*
X3319491Y-7724674D01*
X3319491Y-7724674D02*
X3329015Y-7743722D01*
X3329015Y-7743722D02*
X3329015Y-7848484D01*
X3719491Y-7638960D02*
X3548063Y-7896103D01*
X3976634Y-7648484D02*
X3995682Y-7648484D01*
X3995682Y-7648484D02*
X4014729Y-7658008D01*
X4014729Y-7658008D02*
X4024253Y-7667531D01*
X4024253Y-7667531D02*
X4033777Y-7686579D01*
X4033777Y-7686579D02*
X4043301Y-7724674D01*
X4043301Y-7724674D02*
X4043301Y-7772293D01*
X4043301Y-7772293D02*
X4033777Y-7810388D01*
X4033777Y-7810388D02*
X4024253Y-7829436D01*
X4024253Y-7829436D02*
X4014729Y-7838960D01*
X4014729Y-7838960D02*
X3995682Y-7848484D01*
X3995682Y-7848484D02*
X3976634Y-7848484D01*
X3976634Y-7848484D02*
X3957586Y-7838960D01*
X3957586Y-7838960D02*
X3948063Y-7829436D01*
X3948063Y-7829436D02*
X3938539Y-7810388D01*
X3938539Y-7810388D02*
X3929015Y-7772293D01*
X3929015Y-7772293D02*
X3929015Y-7724674D01*
X3929015Y-7724674D02*
X3938539Y-7686579D01*
X3938539Y-7686579D02*
X3948063Y-7667531D01*
X3948063Y-7667531D02*
X3957586Y-7658008D01*
X3957586Y-7658008D02*
X3976634Y-7648484D01*
X4129015Y-7829436D02*
X4138539Y-7838960D01*
X4138539Y-7838960D02*
X4129015Y-7848484D01*
X4129015Y-7848484D02*
X4119491Y-7838960D01*
X4119491Y-7838960D02*
X4129015Y-7829436D01*
X4129015Y-7829436D02*
X4129015Y-7848484D01*
X4262348Y-7648484D02*
X4281396Y-7648484D01*
X4281396Y-7648484D02*
X4300444Y-7658008D01*
X4300444Y-7658008D02*
X4309968Y-7667531D01*
X4309968Y-7667531D02*
X4319491Y-7686579D01*
X4319491Y-7686579D02*
X4329015Y-7724674D01*
X4329015Y-7724674D02*
X4329015Y-7772293D01*
X4329015Y-7772293D02*
X4319491Y-7810388D01*
X4319491Y-7810388D02*
X4309968Y-7829436D01*
X4309968Y-7829436D02*
X4300444Y-7838960D01*
X4300444Y-7838960D02*
X4281396Y-7848484D01*
X4281396Y-7848484D02*
X4262348Y-7848484D01*
X4262348Y-7848484D02*
X4243301Y-7838960D01*
X4243301Y-7838960D02*
X4233777Y-7829436D01*
X4233777Y-7829436D02*
X4224253Y-7810388D01*
X4224253Y-7810388D02*
X4214729Y-7772293D01*
X4214729Y-7772293D02*
X4214729Y-7724674D01*
X4214729Y-7724674D02*
X4224253Y-7686579D01*
X4224253Y-7686579D02*
X4233777Y-7667531D01*
X4233777Y-7667531D02*
X4243301Y-7658008D01*
X4243301Y-7658008D02*
X4262348Y-7648484D01*
X4519491Y-7848484D02*
X4405206Y-7848484D01*
X4462348Y-7848484D02*
X4462348Y-7648484D01*
X4462348Y-7648484D02*
X4443301Y-7677055D01*
X4443301Y-7677055D02*
X4424253Y-7696103D01*
X4424253Y-7696103D02*
X4405206Y-7705627D01*
X4700444Y-7648484D02*
X4605206Y-7648484D01*
X4605206Y-7648484D02*
X4595682Y-7743722D01*
X4595682Y-7743722D02*
X4605206Y-7734198D01*
X4605206Y-7734198D02*
X4624253Y-7724674D01*
X4624253Y-7724674D02*
X4671872Y-7724674D01*
X4671872Y-7724674D02*
X4690920Y-7734198D01*
X4690920Y-7734198D02*
X4700444Y-7743722D01*
X4700444Y-7743722D02*
X4709968Y-7762769D01*
X4709968Y-7762769D02*
X4709968Y-7810388D01*
X4709968Y-7810388D02*
X4700444Y-7829436D01*
X4700444Y-7829436D02*
X4690920Y-7838960D01*
X4690920Y-7838960D02*
X4671872Y-7848484D01*
X4671872Y-7848484D02*
X4624253Y-7848484D01*
X4624253Y-7848484D02*
X4605206Y-7838960D01*
X4605206Y-7838960D02*
X4595682Y-7829436D01*
X4776634Y-7648484D02*
X4909968Y-7648484D01*
X4909968Y-7648484D02*
X4824253Y-7848484D01*
X4976634Y-7648484D02*
X4976634Y-7686579D01*
X5052825Y-7648484D02*
X5052825Y-7686579D01*
X5348063Y-7924674D02*
X5338539Y-7915150D01*
X5338539Y-7915150D02*
X5319491Y-7886579D01*
X5319491Y-7886579D02*
X5309968Y-7867531D01*
X5309968Y-7867531D02*
X5300444Y-7838960D01*
X5300444Y-7838960D02*
X5290920Y-7791341D01*
X5290920Y-7791341D02*
X5290920Y-7753246D01*
X5290920Y-7753246D02*
X5300444Y-7705627D01*
X5300444Y-7705627D02*
X5309968Y-7677055D01*
X5309968Y-7677055D02*
X5319491Y-7658008D01*
X5319491Y-7658008D02*
X5338539Y-7629436D01*
X5338539Y-7629436D02*
X5348063Y-7619912D01*
X5405206Y-7648484D02*
X5529015Y-7648484D01*
X5529015Y-7648484D02*
X5462349Y-7724674D01*
X5462349Y-7724674D02*
X5490920Y-7724674D01*
X5490920Y-7724674D02*
X5509968Y-7734198D01*
X5509968Y-7734198D02*
X5519491Y-7743722D01*
X5519491Y-7743722D02*
X5529015Y-7762769D01*
X5529015Y-7762769D02*
X5529015Y-7810388D01*
X5529015Y-7810388D02*
X5519491Y-7829436D01*
X5519491Y-7829436D02*
X5509968Y-7838960D01*
X5509968Y-7838960D02*
X5490920Y-7848484D01*
X5490920Y-7848484D02*
X5433777Y-7848484D01*
X5433777Y-7848484D02*
X5414730Y-7838960D01*
X5414730Y-7838960D02*
X5405206Y-7829436D01*
X5700444Y-7648484D02*
X5662348Y-7648484D01*
X5662348Y-7648484D02*
X5643301Y-7658008D01*
X5643301Y-7658008D02*
X5633777Y-7667531D01*
X5633777Y-7667531D02*
X5614729Y-7696103D01*
X5614729Y-7696103D02*
X5605206Y-7734198D01*
X5605206Y-7734198D02*
X5605206Y-7810388D01*
X5605206Y-7810388D02*
X5614729Y-7829436D01*
X5614729Y-7829436D02*
X5624253Y-7838960D01*
X5624253Y-7838960D02*
X5643301Y-7848484D01*
X5643301Y-7848484D02*
X5681396Y-7848484D01*
X5681396Y-7848484D02*
X5700444Y-7838960D01*
X5700444Y-7838960D02*
X5709968Y-7829436D01*
X5709968Y-7829436D02*
X5719491Y-7810388D01*
X5719491Y-7810388D02*
X5719491Y-7762769D01*
X5719491Y-7762769D02*
X5709968Y-7743722D01*
X5709968Y-7743722D02*
X5700444Y-7734198D01*
X5700444Y-7734198D02*
X5681396Y-7724674D01*
X5681396Y-7724674D02*
X5643301Y-7724674D01*
X5643301Y-7724674D02*
X5624253Y-7734198D01*
X5624253Y-7734198D02*
X5614729Y-7743722D01*
X5614729Y-7743722D02*
X5605206Y-7762769D01*
X5957587Y-7848484D02*
X5957587Y-7648484D01*
X6043301Y-7848484D02*
X6043301Y-7743722D01*
X6043301Y-7743722D02*
X6033777Y-7724674D01*
X6033777Y-7724674D02*
X6014730Y-7715150D01*
X6014730Y-7715150D02*
X5986158Y-7715150D01*
X5986158Y-7715150D02*
X5967110Y-7724674D01*
X5967110Y-7724674D02*
X5957587Y-7734198D01*
X6167110Y-7848484D02*
X6148063Y-7838960D01*
X6148063Y-7838960D02*
X6138539Y-7829436D01*
X6138539Y-7829436D02*
X6129015Y-7810388D01*
X6129015Y-7810388D02*
X6129015Y-7753246D01*
X6129015Y-7753246D02*
X6138539Y-7734198D01*
X6138539Y-7734198D02*
X6148063Y-7724674D01*
X6148063Y-7724674D02*
X6167110Y-7715150D01*
X6167110Y-7715150D02*
X6195682Y-7715150D01*
X6195682Y-7715150D02*
X6214730Y-7724674D01*
X6214730Y-7724674D02*
X6224253Y-7734198D01*
X6224253Y-7734198D02*
X6233777Y-7753246D01*
X6233777Y-7753246D02*
X6233777Y-7810388D01*
X6233777Y-7810388D02*
X6224253Y-7829436D01*
X6224253Y-7829436D02*
X6214730Y-7838960D01*
X6214730Y-7838960D02*
X6195682Y-7848484D01*
X6195682Y-7848484D02*
X6167110Y-7848484D01*
X6348063Y-7848484D02*
X6329015Y-7838960D01*
X6329015Y-7838960D02*
X6319491Y-7819912D01*
X6319491Y-7819912D02*
X6319491Y-7648484D01*
X6500444Y-7838960D02*
X6481396Y-7848484D01*
X6481396Y-7848484D02*
X6443301Y-7848484D01*
X6443301Y-7848484D02*
X6424253Y-7838960D01*
X6424253Y-7838960D02*
X6414730Y-7819912D01*
X6414730Y-7819912D02*
X6414730Y-7743722D01*
X6414730Y-7743722D02*
X6424253Y-7724674D01*
X6424253Y-7724674D02*
X6443301Y-7715150D01*
X6443301Y-7715150D02*
X6481396Y-7715150D01*
X6481396Y-7715150D02*
X6500444Y-7724674D01*
X6500444Y-7724674D02*
X6509968Y-7743722D01*
X6509968Y-7743722D02*
X6509968Y-7762769D01*
X6509968Y-7762769D02*
X6414730Y-7781817D01*
X6586158Y-7838960D02*
X6605206Y-7848484D01*
X6605206Y-7848484D02*
X6643301Y-7848484D01*
X6643301Y-7848484D02*
X6662349Y-7838960D01*
X6662349Y-7838960D02*
X6671872Y-7819912D01*
X6671872Y-7819912D02*
X6671872Y-7810388D01*
X6671872Y-7810388D02*
X6662349Y-7791341D01*
X6662349Y-7791341D02*
X6643301Y-7781817D01*
X6643301Y-7781817D02*
X6614730Y-7781817D01*
X6614730Y-7781817D02*
X6595682Y-7772293D01*
X6595682Y-7772293D02*
X6586158Y-7753246D01*
X6586158Y-7753246D02*
X6586158Y-7743722D01*
X6586158Y-7743722D02*
X6595682Y-7724674D01*
X6595682Y-7724674D02*
X6614730Y-7715150D01*
X6614730Y-7715150D02*
X6643301Y-7715150D01*
X6643301Y-7715150D02*
X6662349Y-7724674D01*
X6738539Y-7924674D02*
X6748063Y-7915150D01*
X6748063Y-7915150D02*
X6767111Y-7886579D01*
X6767111Y-7886579D02*
X6776634Y-7867531D01*
X6776634Y-7867531D02*
X6786158Y-7838960D01*
X6786158Y-7838960D02*
X6795682Y-7791341D01*
X6795682Y-7791341D02*
X6795682Y-7753246D01*
X6795682Y-7753246D02*
X6786158Y-7705627D01*
X6786158Y-7705627D02*
X6776634Y-7677055D01*
X6776634Y-7677055D02*
X6767111Y-7658008D01*
X6767111Y-7658008D02*
X6748063Y-7629436D01*
X6748063Y-7629436D02*
X6738539Y-7619912D01*
D10*
X1773000Y-8021000D02*
G75*
G02*
X1702000Y-8021000I-35500J0D01*
G01*
X1702000Y-8021000D02*
G75*
G02*
X1773000Y-8021000I35500J0D01*
G01*
D11*
X2071872Y-7912484D02*
X2090920Y-7912484D01*
X2090920Y-7912484D02*
X2109967Y-7922008D01*
X2109967Y-7922008D02*
X2119491Y-7931531D01*
X2119491Y-7931531D02*
X2129015Y-7950579D01*
X2129015Y-7950579D02*
X2138539Y-7988674D01*
X2138539Y-7988674D02*
X2138539Y-8036293D01*
X2138539Y-8036293D02*
X2129015Y-8074388D01*
X2129015Y-8074388D02*
X2119491Y-8093436D01*
X2119491Y-8093436D02*
X2109967Y-8102960D01*
X2109967Y-8102960D02*
X2090920Y-8112484D01*
X2090920Y-8112484D02*
X2071872Y-8112484D01*
X2071872Y-8112484D02*
X2052824Y-8102960D01*
X2052824Y-8102960D02*
X2043301Y-8093436D01*
X2043301Y-8093436D02*
X2033777Y-8074388D01*
X2033777Y-8074388D02*
X2024253Y-8036293D01*
X2024253Y-8036293D02*
X2024253Y-7988674D01*
X2024253Y-7988674D02*
X2033777Y-7950579D01*
X2033777Y-7950579D02*
X2043301Y-7931531D01*
X2043301Y-7931531D02*
X2052824Y-7922008D01*
X2052824Y-7922008D02*
X2071872Y-7912484D01*
X2224253Y-8093436D02*
X2233777Y-8102960D01*
X2233777Y-8102960D02*
X2224253Y-8112484D01*
X2224253Y-8112484D02*
X2214729Y-8102960D01*
X2214729Y-8102960D02*
X2224253Y-8093436D01*
X2224253Y-8093436D02*
X2224253Y-8112484D01*
X2300444Y-7912484D02*
X2433777Y-7912484D01*
X2433777Y-7912484D02*
X2348063Y-8112484D01*
X2614729Y-8112484D02*
X2500444Y-8112484D01*
X2557586Y-8112484D02*
X2557586Y-7912484D01*
X2557586Y-7912484D02*
X2538539Y-7941055D01*
X2538539Y-7941055D02*
X2519491Y-7960103D01*
X2519491Y-7960103D02*
X2500444Y-7969627D01*
X2738539Y-7912484D02*
X2757586Y-7912484D01*
X2757586Y-7912484D02*
X2776634Y-7922008D01*
X2776634Y-7922008D02*
X2786158Y-7931531D01*
X2786158Y-7931531D02*
X2795682Y-7950579D01*
X2795682Y-7950579D02*
X2805205Y-7988674D01*
X2805205Y-7988674D02*
X2805205Y-8036293D01*
X2805205Y-8036293D02*
X2795682Y-8074388D01*
X2795682Y-8074388D02*
X2786158Y-8093436D01*
X2786158Y-8093436D02*
X2776634Y-8102960D01*
X2776634Y-8102960D02*
X2757586Y-8112484D01*
X2757586Y-8112484D02*
X2738539Y-8112484D01*
X2738539Y-8112484D02*
X2719491Y-8102960D01*
X2719491Y-8102960D02*
X2709967Y-8093436D01*
X2709967Y-8093436D02*
X2700444Y-8074388D01*
X2700444Y-8074388D02*
X2690920Y-8036293D01*
X2690920Y-8036293D02*
X2690920Y-7988674D01*
X2690920Y-7988674D02*
X2700444Y-7950579D01*
X2700444Y-7950579D02*
X2709967Y-7931531D01*
X2709967Y-7931531D02*
X2719491Y-7922008D01*
X2719491Y-7922008D02*
X2738539Y-7912484D01*
X2890920Y-8112484D02*
X2890920Y-7979150D01*
X2890920Y-7998198D02*
X2900443Y-7988674D01*
X2900443Y-7988674D02*
X2919491Y-7979150D01*
X2919491Y-7979150D02*
X2948063Y-7979150D01*
X2948063Y-7979150D02*
X2967110Y-7988674D01*
X2967110Y-7988674D02*
X2976634Y-8007722D01*
X2976634Y-8007722D02*
X2976634Y-8112484D01*
X2976634Y-8007722D02*
X2986158Y-7988674D01*
X2986158Y-7988674D02*
X3005205Y-7979150D01*
X3005205Y-7979150D02*
X3033777Y-7979150D01*
X3033777Y-7979150D02*
X3052824Y-7988674D01*
X3052824Y-7988674D02*
X3062348Y-8007722D01*
X3062348Y-8007722D02*
X3062348Y-8112484D01*
X3157586Y-8112484D02*
X3157586Y-7979150D01*
X3157586Y-7998198D02*
X3167110Y-7988674D01*
X3167110Y-7988674D02*
X3186158Y-7979150D01*
X3186158Y-7979150D02*
X3214729Y-7979150D01*
X3214729Y-7979150D02*
X3233777Y-7988674D01*
X3233777Y-7988674D02*
X3243301Y-8007722D01*
X3243301Y-8007722D02*
X3243301Y-8112484D01*
X3243301Y-8007722D02*
X3252824Y-7988674D01*
X3252824Y-7988674D02*
X3271872Y-7979150D01*
X3271872Y-7979150D02*
X3300443Y-7979150D01*
X3300443Y-7979150D02*
X3319491Y-7988674D01*
X3319491Y-7988674D02*
X3329015Y-8007722D01*
X3329015Y-8007722D02*
X3329015Y-8112484D01*
X3719491Y-7902960D02*
X3548063Y-8160103D01*
X3976634Y-7912484D02*
X3995682Y-7912484D01*
X3995682Y-7912484D02*
X4014729Y-7922008D01*
X4014729Y-7922008D02*
X4024253Y-7931531D01*
X4024253Y-7931531D02*
X4033777Y-7950579D01*
X4033777Y-7950579D02*
X4043301Y-7988674D01*
X4043301Y-7988674D02*
X4043301Y-8036293D01*
X4043301Y-8036293D02*
X4033777Y-8074388D01*
X4033777Y-8074388D02*
X4024253Y-8093436D01*
X4024253Y-8093436D02*
X4014729Y-8102960D01*
X4014729Y-8102960D02*
X3995682Y-8112484D01*
X3995682Y-8112484D02*
X3976634Y-8112484D01*
X3976634Y-8112484D02*
X3957586Y-8102960D01*
X3957586Y-8102960D02*
X3948063Y-8093436D01*
X3948063Y-8093436D02*
X3938539Y-8074388D01*
X3938539Y-8074388D02*
X3929015Y-8036293D01*
X3929015Y-8036293D02*
X3929015Y-7988674D01*
X3929015Y-7988674D02*
X3938539Y-7950579D01*
X3938539Y-7950579D02*
X3948063Y-7931531D01*
X3948063Y-7931531D02*
X3957586Y-7922008D01*
X3957586Y-7922008D02*
X3976634Y-7912484D01*
X4129015Y-8093436D02*
X4138539Y-8102960D01*
X4138539Y-8102960D02*
X4129015Y-8112484D01*
X4129015Y-8112484D02*
X4119491Y-8102960D01*
X4119491Y-8102960D02*
X4129015Y-8093436D01*
X4129015Y-8093436D02*
X4129015Y-8112484D01*
X4262348Y-7912484D02*
X4281396Y-7912484D01*
X4281396Y-7912484D02*
X4300444Y-7922008D01*
X4300444Y-7922008D02*
X4309968Y-7931531D01*
X4309968Y-7931531D02*
X4319491Y-7950579D01*
X4319491Y-7950579D02*
X4329015Y-7988674D01*
X4329015Y-7988674D02*
X4329015Y-8036293D01*
X4329015Y-8036293D02*
X4319491Y-8074388D01*
X4319491Y-8074388D02*
X4309968Y-8093436D01*
X4309968Y-8093436D02*
X4300444Y-8102960D01*
X4300444Y-8102960D02*
X4281396Y-8112484D01*
X4281396Y-8112484D02*
X4262348Y-8112484D01*
X4262348Y-8112484D02*
X4243301Y-8102960D01*
X4243301Y-8102960D02*
X4233777Y-8093436D01*
X4233777Y-8093436D02*
X4224253Y-8074388D01*
X4224253Y-8074388D02*
X4214729Y-8036293D01*
X4214729Y-8036293D02*
X4214729Y-7988674D01*
X4214729Y-7988674D02*
X4224253Y-7950579D01*
X4224253Y-7950579D02*
X4233777Y-7931531D01*
X4233777Y-7931531D02*
X4243301Y-7922008D01*
X4243301Y-7922008D02*
X4262348Y-7912484D01*
X4405206Y-7931531D02*
X4414729Y-7922008D01*
X4414729Y-7922008D02*
X4433777Y-7912484D01*
X4433777Y-7912484D02*
X4481396Y-7912484D01*
X4481396Y-7912484D02*
X4500444Y-7922008D01*
X4500444Y-7922008D02*
X4509968Y-7931531D01*
X4509968Y-7931531D02*
X4519491Y-7950579D01*
X4519491Y-7950579D02*
X4519491Y-7969627D01*
X4519491Y-7969627D02*
X4509968Y-7998198D01*
X4509968Y-7998198D02*
X4395682Y-8112484D01*
X4395682Y-8112484D02*
X4519491Y-8112484D01*
X4633777Y-7998198D02*
X4614729Y-7988674D01*
X4614729Y-7988674D02*
X4605206Y-7979150D01*
X4605206Y-7979150D02*
X4595682Y-7960103D01*
X4595682Y-7960103D02*
X4595682Y-7950579D01*
X4595682Y-7950579D02*
X4605206Y-7931531D01*
X4605206Y-7931531D02*
X4614729Y-7922008D01*
X4614729Y-7922008D02*
X4633777Y-7912484D01*
X4633777Y-7912484D02*
X4671872Y-7912484D01*
X4671872Y-7912484D02*
X4690920Y-7922008D01*
X4690920Y-7922008D02*
X4700444Y-7931531D01*
X4700444Y-7931531D02*
X4709968Y-7950579D01*
X4709968Y-7950579D02*
X4709968Y-7960103D01*
X4709968Y-7960103D02*
X4700444Y-7979150D01*
X4700444Y-7979150D02*
X4690920Y-7988674D01*
X4690920Y-7988674D02*
X4671872Y-7998198D01*
X4671872Y-7998198D02*
X4633777Y-7998198D01*
X4633777Y-7998198D02*
X4614729Y-8007722D01*
X4614729Y-8007722D02*
X4605206Y-8017246D01*
X4605206Y-8017246D02*
X4595682Y-8036293D01*
X4595682Y-8036293D02*
X4595682Y-8074388D01*
X4595682Y-8074388D02*
X4605206Y-8093436D01*
X4605206Y-8093436D02*
X4614729Y-8102960D01*
X4614729Y-8102960D02*
X4633777Y-8112484D01*
X4633777Y-8112484D02*
X4671872Y-8112484D01*
X4671872Y-8112484D02*
X4690920Y-8102960D01*
X4690920Y-8102960D02*
X4700444Y-8093436D01*
X4700444Y-8093436D02*
X4709968Y-8074388D01*
X4709968Y-8074388D02*
X4709968Y-8036293D01*
X4709968Y-8036293D02*
X4700444Y-8017246D01*
X4700444Y-8017246D02*
X4690920Y-8007722D01*
X4690920Y-8007722D02*
X4671872Y-7998198D01*
X4833777Y-7912484D02*
X4852825Y-7912484D01*
X4852825Y-7912484D02*
X4871872Y-7922008D01*
X4871872Y-7922008D02*
X4881396Y-7931531D01*
X4881396Y-7931531D02*
X4890920Y-7950579D01*
X4890920Y-7950579D02*
X4900444Y-7988674D01*
X4900444Y-7988674D02*
X4900444Y-8036293D01*
X4900444Y-8036293D02*
X4890920Y-8074388D01*
X4890920Y-8074388D02*
X4881396Y-8093436D01*
X4881396Y-8093436D02*
X4871872Y-8102960D01*
X4871872Y-8102960D02*
X4852825Y-8112484D01*
X4852825Y-8112484D02*
X4833777Y-8112484D01*
X4833777Y-8112484D02*
X4814729Y-8102960D01*
X4814729Y-8102960D02*
X4805206Y-8093436D01*
X4805206Y-8093436D02*
X4795682Y-8074388D01*
X4795682Y-8074388D02*
X4786158Y-8036293D01*
X4786158Y-8036293D02*
X4786158Y-7988674D01*
X4786158Y-7988674D02*
X4795682Y-7950579D01*
X4795682Y-7950579D02*
X4805206Y-7931531D01*
X4805206Y-7931531D02*
X4814729Y-7922008D01*
X4814729Y-7922008D02*
X4833777Y-7912484D01*
X4976634Y-7912484D02*
X4976634Y-7950579D01*
X5052825Y-7912484D02*
X5052825Y-7950579D01*
X5348063Y-8188674D02*
X5338539Y-8179150D01*
X5338539Y-8179150D02*
X5319491Y-8150579D01*
X5319491Y-8150579D02*
X5309968Y-8131531D01*
X5309968Y-8131531D02*
X5300444Y-8102960D01*
X5300444Y-8102960D02*
X5290920Y-8055341D01*
X5290920Y-8055341D02*
X5290920Y-8017246D01*
X5290920Y-8017246D02*
X5300444Y-7969627D01*
X5300444Y-7969627D02*
X5309968Y-7941055D01*
X5309968Y-7941055D02*
X5319491Y-7922008D01*
X5319491Y-7922008D02*
X5338539Y-7893436D01*
X5338539Y-7893436D02*
X5348063Y-7883912D01*
X5509968Y-7912484D02*
X5471872Y-7912484D01*
X5471872Y-7912484D02*
X5452825Y-7922008D01*
X5452825Y-7922008D02*
X5443301Y-7931531D01*
X5443301Y-7931531D02*
X5424253Y-7960103D01*
X5424253Y-7960103D02*
X5414730Y-7998198D01*
X5414730Y-7998198D02*
X5414730Y-8074388D01*
X5414730Y-8074388D02*
X5424253Y-8093436D01*
X5424253Y-8093436D02*
X5433777Y-8102960D01*
X5433777Y-8102960D02*
X5452825Y-8112484D01*
X5452825Y-8112484D02*
X5490920Y-8112484D01*
X5490920Y-8112484D02*
X5509968Y-8102960D01*
X5509968Y-8102960D02*
X5519491Y-8093436D01*
X5519491Y-8093436D02*
X5529015Y-8074388D01*
X5529015Y-8074388D02*
X5529015Y-8026769D01*
X5529015Y-8026769D02*
X5519491Y-8007722D01*
X5519491Y-8007722D02*
X5509968Y-7998198D01*
X5509968Y-7998198D02*
X5490920Y-7988674D01*
X5490920Y-7988674D02*
X5452825Y-7988674D01*
X5452825Y-7988674D02*
X5433777Y-7998198D01*
X5433777Y-7998198D02*
X5424253Y-8007722D01*
X5424253Y-8007722D02*
X5414730Y-8026769D01*
X5767110Y-8112484D02*
X5767110Y-7912484D01*
X5852825Y-8112484D02*
X5852825Y-8007722D01*
X5852825Y-8007722D02*
X5843301Y-7988674D01*
X5843301Y-7988674D02*
X5824253Y-7979150D01*
X5824253Y-7979150D02*
X5795682Y-7979150D01*
X5795682Y-7979150D02*
X5776634Y-7988674D01*
X5776634Y-7988674D02*
X5767110Y-7998198D01*
X5976634Y-8112484D02*
X5957587Y-8102960D01*
X5957587Y-8102960D02*
X5948063Y-8093436D01*
X5948063Y-8093436D02*
X5938539Y-8074388D01*
X5938539Y-8074388D02*
X5938539Y-8017246D01*
X5938539Y-8017246D02*
X5948063Y-7998198D01*
X5948063Y-7998198D02*
X5957587Y-7988674D01*
X5957587Y-7988674D02*
X5976634Y-7979150D01*
X5976634Y-7979150D02*
X6005206Y-7979150D01*
X6005206Y-7979150D02*
X6024253Y-7988674D01*
X6024253Y-7988674D02*
X6033777Y-7998198D01*
X6033777Y-7998198D02*
X6043301Y-8017246D01*
X6043301Y-8017246D02*
X6043301Y-8074388D01*
X6043301Y-8074388D02*
X6033777Y-8093436D01*
X6033777Y-8093436D02*
X6024253Y-8102960D01*
X6024253Y-8102960D02*
X6005206Y-8112484D01*
X6005206Y-8112484D02*
X5976634Y-8112484D01*
X6157587Y-8112484D02*
X6138539Y-8102960D01*
X6138539Y-8102960D02*
X6129015Y-8083912D01*
X6129015Y-8083912D02*
X6129015Y-7912484D01*
X6309968Y-8102960D02*
X6290920Y-8112484D01*
X6290920Y-8112484D02*
X6252825Y-8112484D01*
X6252825Y-8112484D02*
X6233777Y-8102960D01*
X6233777Y-8102960D02*
X6224253Y-8083912D01*
X6224253Y-8083912D02*
X6224253Y-8007722D01*
X6224253Y-8007722D02*
X6233777Y-7988674D01*
X6233777Y-7988674D02*
X6252825Y-7979150D01*
X6252825Y-7979150D02*
X6290920Y-7979150D01*
X6290920Y-7979150D02*
X6309968Y-7988674D01*
X6309968Y-7988674D02*
X6319491Y-8007722D01*
X6319491Y-8007722D02*
X6319491Y-8026769D01*
X6319491Y-8026769D02*
X6224253Y-8045817D01*
X6395682Y-8102960D02*
X6414730Y-8112484D01*
X6414730Y-8112484D02*
X6452825Y-8112484D01*
X6452825Y-8112484D02*
X6471872Y-8102960D01*
X6471872Y-8102960D02*
X6481396Y-8083912D01*
X6481396Y-8083912D02*
X6481396Y-8074388D01*
X6481396Y-8074388D02*
X6471872Y-8055341D01*
X6471872Y-8055341D02*
X6452825Y-8045817D01*
X6452825Y-8045817D02*
X6424253Y-8045817D01*
X6424253Y-8045817D02*
X6405206Y-8036293D01*
X6405206Y-8036293D02*
X6395682Y-8017246D01*
X6395682Y-8017246D02*
X6395682Y-8007722D01*
X6395682Y-8007722D02*
X6405206Y-7988674D01*
X6405206Y-7988674D02*
X6424253Y-7979150D01*
X6424253Y-7979150D02*
X6452825Y-7979150D01*
X6452825Y-7979150D02*
X6471872Y-7988674D01*
X6548063Y-8188674D02*
X6557587Y-8179150D01*
X6557587Y-8179150D02*
X6576634Y-8150579D01*
X6576634Y-8150579D02*
X6586158Y-8131531D01*
X6586158Y-8131531D02*
X6595682Y-8102960D01*
X6595682Y-8102960D02*
X6605206Y-8055341D01*
X6605206Y-8055341D02*
X6605206Y-8017246D01*
X6605206Y-8017246D02*
X6595682Y-7969627D01*
X6595682Y-7969627D02*
X6586158Y-7941055D01*
X6586158Y-7941055D02*
X6576634Y-7922008D01*
X6576634Y-7922008D02*
X6557587Y-7893436D01*
X6557587Y-7893436D02*
X6548063Y-7883912D01*
D10*
X1733000Y-8245000D02*
X1733000Y-8325000D01*
X1693000Y-8285000D02*
X1773000Y-8285000D01*
D11*
X2071872Y-8176484D02*
X2090920Y-8176484D01*
X2090920Y-8176484D02*
X2109967Y-8186008D01*
X2109967Y-8186008D02*
X2119491Y-8195531D01*
X2119491Y-8195531D02*
X2129015Y-8214579D01*
X2129015Y-8214579D02*
X2138539Y-8252674D01*
X2138539Y-8252674D02*
X2138539Y-8300293D01*
X2138539Y-8300293D02*
X2129015Y-8338388D01*
X2129015Y-8338388D02*
X2119491Y-8357436D01*
X2119491Y-8357436D02*
X2109967Y-8366960D01*
X2109967Y-8366960D02*
X2090920Y-8376484D01*
X2090920Y-8376484D02*
X2071872Y-8376484D01*
X2071872Y-8376484D02*
X2052824Y-8366960D01*
X2052824Y-8366960D02*
X2043301Y-8357436D01*
X2043301Y-8357436D02*
X2033777Y-8338388D01*
X2033777Y-8338388D02*
X2024253Y-8300293D01*
X2024253Y-8300293D02*
X2024253Y-8252674D01*
X2024253Y-8252674D02*
X2033777Y-8214579D01*
X2033777Y-8214579D02*
X2043301Y-8195531D01*
X2043301Y-8195531D02*
X2052824Y-8186008D01*
X2052824Y-8186008D02*
X2071872Y-8176484D01*
X2224253Y-8357436D02*
X2233777Y-8366960D01*
X2233777Y-8366960D02*
X2224253Y-8376484D01*
X2224253Y-8376484D02*
X2214729Y-8366960D01*
X2214729Y-8366960D02*
X2224253Y-8357436D01*
X2224253Y-8357436D02*
X2224253Y-8376484D01*
X2348063Y-8262198D02*
X2329015Y-8252674D01*
X2329015Y-8252674D02*
X2319491Y-8243150D01*
X2319491Y-8243150D02*
X2309967Y-8224103D01*
X2309967Y-8224103D02*
X2309967Y-8214579D01*
X2309967Y-8214579D02*
X2319491Y-8195531D01*
X2319491Y-8195531D02*
X2329015Y-8186008D01*
X2329015Y-8186008D02*
X2348063Y-8176484D01*
X2348063Y-8176484D02*
X2386158Y-8176484D01*
X2386158Y-8176484D02*
X2405205Y-8186008D01*
X2405205Y-8186008D02*
X2414729Y-8195531D01*
X2414729Y-8195531D02*
X2424253Y-8214579D01*
X2424253Y-8214579D02*
X2424253Y-8224103D01*
X2424253Y-8224103D02*
X2414729Y-8243150D01*
X2414729Y-8243150D02*
X2405205Y-8252674D01*
X2405205Y-8252674D02*
X2386158Y-8262198D01*
X2386158Y-8262198D02*
X2348063Y-8262198D01*
X2348063Y-8262198D02*
X2329015Y-8271722D01*
X2329015Y-8271722D02*
X2319491Y-8281246D01*
X2319491Y-8281246D02*
X2309967Y-8300293D01*
X2309967Y-8300293D02*
X2309967Y-8338388D01*
X2309967Y-8338388D02*
X2319491Y-8357436D01*
X2319491Y-8357436D02*
X2329015Y-8366960D01*
X2329015Y-8366960D02*
X2348063Y-8376484D01*
X2348063Y-8376484D02*
X2386158Y-8376484D01*
X2386158Y-8376484D02*
X2405205Y-8366960D01*
X2405205Y-8366960D02*
X2414729Y-8357436D01*
X2414729Y-8357436D02*
X2424253Y-8338388D01*
X2424253Y-8338388D02*
X2424253Y-8300293D01*
X2424253Y-8300293D02*
X2414729Y-8281246D01*
X2414729Y-8281246D02*
X2405205Y-8271722D01*
X2405205Y-8271722D02*
X2386158Y-8262198D01*
X2548063Y-8176484D02*
X2567110Y-8176484D01*
X2567110Y-8176484D02*
X2586158Y-8186008D01*
X2586158Y-8186008D02*
X2595682Y-8195531D01*
X2595682Y-8195531D02*
X2605205Y-8214579D01*
X2605205Y-8214579D02*
X2614729Y-8252674D01*
X2614729Y-8252674D02*
X2614729Y-8300293D01*
X2614729Y-8300293D02*
X2605205Y-8338388D01*
X2605205Y-8338388D02*
X2595682Y-8357436D01*
X2595682Y-8357436D02*
X2586158Y-8366960D01*
X2586158Y-8366960D02*
X2567110Y-8376484D01*
X2567110Y-8376484D02*
X2548063Y-8376484D01*
X2548063Y-8376484D02*
X2529015Y-8366960D01*
X2529015Y-8366960D02*
X2519491Y-8357436D01*
X2519491Y-8357436D02*
X2509967Y-8338388D01*
X2509967Y-8338388D02*
X2500444Y-8300293D01*
X2500444Y-8300293D02*
X2500444Y-8252674D01*
X2500444Y-8252674D02*
X2509967Y-8214579D01*
X2509967Y-8214579D02*
X2519491Y-8195531D01*
X2519491Y-8195531D02*
X2529015Y-8186008D01*
X2529015Y-8186008D02*
X2548063Y-8176484D01*
X2738539Y-8176484D02*
X2757586Y-8176484D01*
X2757586Y-8176484D02*
X2776634Y-8186008D01*
X2776634Y-8186008D02*
X2786158Y-8195531D01*
X2786158Y-8195531D02*
X2795682Y-8214579D01*
X2795682Y-8214579D02*
X2805205Y-8252674D01*
X2805205Y-8252674D02*
X2805205Y-8300293D01*
X2805205Y-8300293D02*
X2795682Y-8338388D01*
X2795682Y-8338388D02*
X2786158Y-8357436D01*
X2786158Y-8357436D02*
X2776634Y-8366960D01*
X2776634Y-8366960D02*
X2757586Y-8376484D01*
X2757586Y-8376484D02*
X2738539Y-8376484D01*
X2738539Y-8376484D02*
X2719491Y-8366960D01*
X2719491Y-8366960D02*
X2709967Y-8357436D01*
X2709967Y-8357436D02*
X2700444Y-8338388D01*
X2700444Y-8338388D02*
X2690920Y-8300293D01*
X2690920Y-8300293D02*
X2690920Y-8252674D01*
X2690920Y-8252674D02*
X2700444Y-8214579D01*
X2700444Y-8214579D02*
X2709967Y-8195531D01*
X2709967Y-8195531D02*
X2719491Y-8186008D01*
X2719491Y-8186008D02*
X2738539Y-8176484D01*
X2890920Y-8376484D02*
X2890920Y-8243150D01*
X2890920Y-8262198D02*
X2900443Y-8252674D01*
X2900443Y-8252674D02*
X2919491Y-8243150D01*
X2919491Y-8243150D02*
X2948063Y-8243150D01*
X2948063Y-8243150D02*
X2967110Y-8252674D01*
X2967110Y-8252674D02*
X2976634Y-8271722D01*
X2976634Y-8271722D02*
X2976634Y-8376484D01*
X2976634Y-8271722D02*
X2986158Y-8252674D01*
X2986158Y-8252674D02*
X3005205Y-8243150D01*
X3005205Y-8243150D02*
X3033777Y-8243150D01*
X3033777Y-8243150D02*
X3052824Y-8252674D01*
X3052824Y-8252674D02*
X3062348Y-8271722D01*
X3062348Y-8271722D02*
X3062348Y-8376484D01*
X3157586Y-8376484D02*
X3157586Y-8243150D01*
X3157586Y-8262198D02*
X3167110Y-8252674D01*
X3167110Y-8252674D02*
X3186158Y-8243150D01*
X3186158Y-8243150D02*
X3214729Y-8243150D01*
X3214729Y-8243150D02*
X3233777Y-8252674D01*
X3233777Y-8252674D02*
X3243301Y-8271722D01*
X3243301Y-8271722D02*
X3243301Y-8376484D01*
X3243301Y-8271722D02*
X3252824Y-8252674D01*
X3252824Y-8252674D02*
X3271872Y-8243150D01*
X3271872Y-8243150D02*
X3300443Y-8243150D01*
X3300443Y-8243150D02*
X3319491Y-8252674D01*
X3319491Y-8252674D02*
X3329015Y-8271722D01*
X3329015Y-8271722D02*
X3329015Y-8376484D01*
X3719491Y-8166960D02*
X3548063Y-8424103D01*
X3976634Y-8176484D02*
X3995682Y-8176484D01*
X3995682Y-8176484D02*
X4014729Y-8186008D01*
X4014729Y-8186008D02*
X4024253Y-8195531D01*
X4024253Y-8195531D02*
X4033777Y-8214579D01*
X4033777Y-8214579D02*
X4043301Y-8252674D01*
X4043301Y-8252674D02*
X4043301Y-8300293D01*
X4043301Y-8300293D02*
X4033777Y-8338388D01*
X4033777Y-8338388D02*
X4024253Y-8357436D01*
X4024253Y-8357436D02*
X4014729Y-8366960D01*
X4014729Y-8366960D02*
X3995682Y-8376484D01*
X3995682Y-8376484D02*
X3976634Y-8376484D01*
X3976634Y-8376484D02*
X3957586Y-8366960D01*
X3957586Y-8366960D02*
X3948063Y-8357436D01*
X3948063Y-8357436D02*
X3938539Y-8338388D01*
X3938539Y-8338388D02*
X3929015Y-8300293D01*
X3929015Y-8300293D02*
X3929015Y-8252674D01*
X3929015Y-8252674D02*
X3938539Y-8214579D01*
X3938539Y-8214579D02*
X3948063Y-8195531D01*
X3948063Y-8195531D02*
X3957586Y-8186008D01*
X3957586Y-8186008D02*
X3976634Y-8176484D01*
X4129015Y-8357436D02*
X4138539Y-8366960D01*
X4138539Y-8366960D02*
X4129015Y-8376484D01*
X4129015Y-8376484D02*
X4119491Y-8366960D01*
X4119491Y-8366960D02*
X4129015Y-8357436D01*
X4129015Y-8357436D02*
X4129015Y-8376484D01*
X4262348Y-8176484D02*
X4281396Y-8176484D01*
X4281396Y-8176484D02*
X4300444Y-8186008D01*
X4300444Y-8186008D02*
X4309968Y-8195531D01*
X4309968Y-8195531D02*
X4319491Y-8214579D01*
X4319491Y-8214579D02*
X4329015Y-8252674D01*
X4329015Y-8252674D02*
X4329015Y-8300293D01*
X4329015Y-8300293D02*
X4319491Y-8338388D01*
X4319491Y-8338388D02*
X4309968Y-8357436D01*
X4309968Y-8357436D02*
X4300444Y-8366960D01*
X4300444Y-8366960D02*
X4281396Y-8376484D01*
X4281396Y-8376484D02*
X4262348Y-8376484D01*
X4262348Y-8376484D02*
X4243301Y-8366960D01*
X4243301Y-8366960D02*
X4233777Y-8357436D01*
X4233777Y-8357436D02*
X4224253Y-8338388D01*
X4224253Y-8338388D02*
X4214729Y-8300293D01*
X4214729Y-8300293D02*
X4214729Y-8252674D01*
X4214729Y-8252674D02*
X4224253Y-8214579D01*
X4224253Y-8214579D02*
X4233777Y-8195531D01*
X4233777Y-8195531D02*
X4243301Y-8186008D01*
X4243301Y-8186008D02*
X4262348Y-8176484D01*
X4395682Y-8176484D02*
X4519491Y-8176484D01*
X4519491Y-8176484D02*
X4452825Y-8252674D01*
X4452825Y-8252674D02*
X4481396Y-8252674D01*
X4481396Y-8252674D02*
X4500444Y-8262198D01*
X4500444Y-8262198D02*
X4509968Y-8271722D01*
X4509968Y-8271722D02*
X4519491Y-8290769D01*
X4519491Y-8290769D02*
X4519491Y-8338388D01*
X4519491Y-8338388D02*
X4509968Y-8357436D01*
X4509968Y-8357436D02*
X4500444Y-8366960D01*
X4500444Y-8366960D02*
X4481396Y-8376484D01*
X4481396Y-8376484D02*
X4424253Y-8376484D01*
X4424253Y-8376484D02*
X4405206Y-8366960D01*
X4405206Y-8366960D02*
X4395682Y-8357436D01*
X4709968Y-8376484D02*
X4595682Y-8376484D01*
X4652825Y-8376484D02*
X4652825Y-8176484D01*
X4652825Y-8176484D02*
X4633777Y-8205055D01*
X4633777Y-8205055D02*
X4614729Y-8224103D01*
X4614729Y-8224103D02*
X4595682Y-8233627D01*
X4890920Y-8176484D02*
X4795682Y-8176484D01*
X4795682Y-8176484D02*
X4786158Y-8271722D01*
X4786158Y-8271722D02*
X4795682Y-8262198D01*
X4795682Y-8262198D02*
X4814729Y-8252674D01*
X4814729Y-8252674D02*
X4862349Y-8252674D01*
X4862349Y-8252674D02*
X4881396Y-8262198D01*
X4881396Y-8262198D02*
X4890920Y-8271722D01*
X4890920Y-8271722D02*
X4900444Y-8290769D01*
X4900444Y-8290769D02*
X4900444Y-8338388D01*
X4900444Y-8338388D02*
X4890920Y-8357436D01*
X4890920Y-8357436D02*
X4881396Y-8366960D01*
X4881396Y-8366960D02*
X4862349Y-8376484D01*
X4862349Y-8376484D02*
X4814729Y-8376484D01*
X4814729Y-8376484D02*
X4795682Y-8366960D01*
X4795682Y-8366960D02*
X4786158Y-8357436D01*
X4976634Y-8176484D02*
X4976634Y-8214579D01*
X5052825Y-8176484D02*
X5052825Y-8214579D01*
X5348063Y-8452674D02*
X5338539Y-8443150D01*
X5338539Y-8443150D02*
X5319491Y-8414579D01*
X5319491Y-8414579D02*
X5309968Y-8395531D01*
X5309968Y-8395531D02*
X5300444Y-8366960D01*
X5300444Y-8366960D02*
X5290920Y-8319341D01*
X5290920Y-8319341D02*
X5290920Y-8281246D01*
X5290920Y-8281246D02*
X5300444Y-8233627D01*
X5300444Y-8233627D02*
X5309968Y-8205055D01*
X5309968Y-8205055D02*
X5319491Y-8186008D01*
X5319491Y-8186008D02*
X5338539Y-8157436D01*
X5338539Y-8157436D02*
X5348063Y-8147912D01*
X5509968Y-8176484D02*
X5471872Y-8176484D01*
X5471872Y-8176484D02*
X5452825Y-8186008D01*
X5452825Y-8186008D02*
X5443301Y-8195531D01*
X5443301Y-8195531D02*
X5424253Y-8224103D01*
X5424253Y-8224103D02*
X5414730Y-8262198D01*
X5414730Y-8262198D02*
X5414730Y-8338388D01*
X5414730Y-8338388D02*
X5424253Y-8357436D01*
X5424253Y-8357436D02*
X5433777Y-8366960D01*
X5433777Y-8366960D02*
X5452825Y-8376484D01*
X5452825Y-8376484D02*
X5490920Y-8376484D01*
X5490920Y-8376484D02*
X5509968Y-8366960D01*
X5509968Y-8366960D02*
X5519491Y-8357436D01*
X5519491Y-8357436D02*
X5529015Y-8338388D01*
X5529015Y-8338388D02*
X5529015Y-8290769D01*
X5529015Y-8290769D02*
X5519491Y-8271722D01*
X5519491Y-8271722D02*
X5509968Y-8262198D01*
X5509968Y-8262198D02*
X5490920Y-8252674D01*
X5490920Y-8252674D02*
X5452825Y-8252674D01*
X5452825Y-8252674D02*
X5433777Y-8262198D01*
X5433777Y-8262198D02*
X5424253Y-8271722D01*
X5424253Y-8271722D02*
X5414730Y-8290769D01*
X5767110Y-8376484D02*
X5767110Y-8176484D01*
X5852825Y-8376484D02*
X5852825Y-8271722D01*
X5852825Y-8271722D02*
X5843301Y-8252674D01*
X5843301Y-8252674D02*
X5824253Y-8243150D01*
X5824253Y-8243150D02*
X5795682Y-8243150D01*
X5795682Y-8243150D02*
X5776634Y-8252674D01*
X5776634Y-8252674D02*
X5767110Y-8262198D01*
X5976634Y-8376484D02*
X5957587Y-8366960D01*
X5957587Y-8366960D02*
X5948063Y-8357436D01*
X5948063Y-8357436D02*
X5938539Y-8338388D01*
X5938539Y-8338388D02*
X5938539Y-8281246D01*
X5938539Y-8281246D02*
X5948063Y-8262198D01*
X5948063Y-8262198D02*
X5957587Y-8252674D01*
X5957587Y-8252674D02*
X5976634Y-8243150D01*
X5976634Y-8243150D02*
X6005206Y-8243150D01*
X6005206Y-8243150D02*
X6024253Y-8252674D01*
X6024253Y-8252674D02*
X6033777Y-8262198D01*
X6033777Y-8262198D02*
X6043301Y-8281246D01*
X6043301Y-8281246D02*
X6043301Y-8338388D01*
X6043301Y-8338388D02*
X6033777Y-8357436D01*
X6033777Y-8357436D02*
X6024253Y-8366960D01*
X6024253Y-8366960D02*
X6005206Y-8376484D01*
X6005206Y-8376484D02*
X5976634Y-8376484D01*
X6157587Y-8376484D02*
X6138539Y-8366960D01*
X6138539Y-8366960D02*
X6129015Y-8347912D01*
X6129015Y-8347912D02*
X6129015Y-8176484D01*
X6309968Y-8366960D02*
X6290920Y-8376484D01*
X6290920Y-8376484D02*
X6252825Y-8376484D01*
X6252825Y-8376484D02*
X6233777Y-8366960D01*
X6233777Y-8366960D02*
X6224253Y-8347912D01*
X6224253Y-8347912D02*
X6224253Y-8271722D01*
X6224253Y-8271722D02*
X6233777Y-8252674D01*
X6233777Y-8252674D02*
X6252825Y-8243150D01*
X6252825Y-8243150D02*
X6290920Y-8243150D01*
X6290920Y-8243150D02*
X6309968Y-8252674D01*
X6309968Y-8252674D02*
X6319491Y-8271722D01*
X6319491Y-8271722D02*
X6319491Y-8290769D01*
X6319491Y-8290769D02*
X6224253Y-8309817D01*
X6395682Y-8366960D02*
X6414730Y-8376484D01*
X6414730Y-8376484D02*
X6452825Y-8376484D01*
X6452825Y-8376484D02*
X6471872Y-8366960D01*
X6471872Y-8366960D02*
X6481396Y-8347912D01*
X6481396Y-8347912D02*
X6481396Y-8338388D01*
X6481396Y-8338388D02*
X6471872Y-8319341D01*
X6471872Y-8319341D02*
X6452825Y-8309817D01*
X6452825Y-8309817D02*
X6424253Y-8309817D01*
X6424253Y-8309817D02*
X6405206Y-8300293D01*
X6405206Y-8300293D02*
X6395682Y-8281246D01*
X6395682Y-8281246D02*
X6395682Y-8271722D01*
X6395682Y-8271722D02*
X6405206Y-8252674D01*
X6405206Y-8252674D02*
X6424253Y-8243150D01*
X6424253Y-8243150D02*
X6452825Y-8243150D01*
X6452825Y-8243150D02*
X6471872Y-8252674D01*
X6548063Y-8452674D02*
X6557587Y-8443150D01*
X6557587Y-8443150D02*
X6576634Y-8414579D01*
X6576634Y-8414579D02*
X6586158Y-8395531D01*
X6586158Y-8395531D02*
X6595682Y-8366960D01*
X6595682Y-8366960D02*
X6605206Y-8319341D01*
X6605206Y-8319341D02*
X6605206Y-8281246D01*
X6605206Y-8281246D02*
X6595682Y-8233627D01*
X6595682Y-8233627D02*
X6586158Y-8205055D01*
X6586158Y-8205055D02*
X6576634Y-8186008D01*
X6576634Y-8186008D02*
X6557587Y-8157436D01*
X6557587Y-8157436D02*
X6548063Y-8147912D01*
D10*
X1759381Y-8581881D02*
X1759381Y-8516119D01*
X1693619Y-8516119D01*
X1693619Y-8581881D01*
X1759381Y-8581881D01*
D11*
X2071872Y-8440484D02*
X2090920Y-8440484D01*
X2090920Y-8440484D02*
X2109967Y-8450008D01*
X2109967Y-8450008D02*
X2119491Y-8459531D01*
X2119491Y-8459531D02*
X2129015Y-8478579D01*
X2129015Y-8478579D02*
X2138539Y-8516674D01*
X2138539Y-8516674D02*
X2138539Y-8564293D01*
X2138539Y-8564293D02*
X2129015Y-8602389D01*
X2129015Y-8602389D02*
X2119491Y-8621436D01*
X2119491Y-8621436D02*
X2109967Y-8630960D01*
X2109967Y-8630960D02*
X2090920Y-8640484D01*
X2090920Y-8640484D02*
X2071872Y-8640484D01*
X2071872Y-8640484D02*
X2052824Y-8630960D01*
X2052824Y-8630960D02*
X2043301Y-8621436D01*
X2043301Y-8621436D02*
X2033777Y-8602389D01*
X2033777Y-8602389D02*
X2024253Y-8564293D01*
X2024253Y-8564293D02*
X2024253Y-8516674D01*
X2024253Y-8516674D02*
X2033777Y-8478579D01*
X2033777Y-8478579D02*
X2043301Y-8459531D01*
X2043301Y-8459531D02*
X2052824Y-8450008D01*
X2052824Y-8450008D02*
X2071872Y-8440484D01*
X2224253Y-8621436D02*
X2233777Y-8630960D01*
X2233777Y-8630960D02*
X2224253Y-8640484D01*
X2224253Y-8640484D02*
X2214729Y-8630960D01*
X2214729Y-8630960D02*
X2224253Y-8621436D01*
X2224253Y-8621436D02*
X2224253Y-8640484D01*
X2329015Y-8640484D02*
X2367110Y-8640484D01*
X2367110Y-8640484D02*
X2386158Y-8630960D01*
X2386158Y-8630960D02*
X2395682Y-8621436D01*
X2395682Y-8621436D02*
X2414729Y-8592865D01*
X2414729Y-8592865D02*
X2424253Y-8554770D01*
X2424253Y-8554770D02*
X2424253Y-8478579D01*
X2424253Y-8478579D02*
X2414729Y-8459531D01*
X2414729Y-8459531D02*
X2405205Y-8450008D01*
X2405205Y-8450008D02*
X2386158Y-8440484D01*
X2386158Y-8440484D02*
X2348063Y-8440484D01*
X2348063Y-8440484D02*
X2329015Y-8450008D01*
X2329015Y-8450008D02*
X2319491Y-8459531D01*
X2319491Y-8459531D02*
X2309967Y-8478579D01*
X2309967Y-8478579D02*
X2309967Y-8526198D01*
X2309967Y-8526198D02*
X2319491Y-8545246D01*
X2319491Y-8545246D02*
X2329015Y-8554770D01*
X2329015Y-8554770D02*
X2348063Y-8564293D01*
X2348063Y-8564293D02*
X2386158Y-8564293D01*
X2386158Y-8564293D02*
X2405205Y-8554770D01*
X2405205Y-8554770D02*
X2414729Y-8545246D01*
X2414729Y-8545246D02*
X2424253Y-8526198D01*
X2490920Y-8440484D02*
X2614729Y-8440484D01*
X2614729Y-8440484D02*
X2548063Y-8516674D01*
X2548063Y-8516674D02*
X2576634Y-8516674D01*
X2576634Y-8516674D02*
X2595682Y-8526198D01*
X2595682Y-8526198D02*
X2605205Y-8535722D01*
X2605205Y-8535722D02*
X2614729Y-8554770D01*
X2614729Y-8554770D02*
X2614729Y-8602389D01*
X2614729Y-8602389D02*
X2605205Y-8621436D01*
X2605205Y-8621436D02*
X2595682Y-8630960D01*
X2595682Y-8630960D02*
X2576634Y-8640484D01*
X2576634Y-8640484D02*
X2519491Y-8640484D01*
X2519491Y-8640484D02*
X2500444Y-8630960D01*
X2500444Y-8630960D02*
X2490920Y-8621436D01*
X2738539Y-8440484D02*
X2757586Y-8440484D01*
X2757586Y-8440484D02*
X2776634Y-8450008D01*
X2776634Y-8450008D02*
X2786158Y-8459531D01*
X2786158Y-8459531D02*
X2795682Y-8478579D01*
X2795682Y-8478579D02*
X2805205Y-8516674D01*
X2805205Y-8516674D02*
X2805205Y-8564293D01*
X2805205Y-8564293D02*
X2795682Y-8602389D01*
X2795682Y-8602389D02*
X2786158Y-8621436D01*
X2786158Y-8621436D02*
X2776634Y-8630960D01*
X2776634Y-8630960D02*
X2757586Y-8640484D01*
X2757586Y-8640484D02*
X2738539Y-8640484D01*
X2738539Y-8640484D02*
X2719491Y-8630960D01*
X2719491Y-8630960D02*
X2709967Y-8621436D01*
X2709967Y-8621436D02*
X2700444Y-8602389D01*
X2700444Y-8602389D02*
X2690920Y-8564293D01*
X2690920Y-8564293D02*
X2690920Y-8516674D01*
X2690920Y-8516674D02*
X2700444Y-8478579D01*
X2700444Y-8478579D02*
X2709967Y-8459531D01*
X2709967Y-8459531D02*
X2719491Y-8450008D01*
X2719491Y-8450008D02*
X2738539Y-8440484D01*
X2890920Y-8640484D02*
X2890920Y-8507150D01*
X2890920Y-8526198D02*
X2900443Y-8516674D01*
X2900443Y-8516674D02*
X2919491Y-8507150D01*
X2919491Y-8507150D02*
X2948063Y-8507150D01*
X2948063Y-8507150D02*
X2967110Y-8516674D01*
X2967110Y-8516674D02*
X2976634Y-8535722D01*
X2976634Y-8535722D02*
X2976634Y-8640484D01*
X2976634Y-8535722D02*
X2986158Y-8516674D01*
X2986158Y-8516674D02*
X3005205Y-8507150D01*
X3005205Y-8507150D02*
X3033777Y-8507150D01*
X3033777Y-8507150D02*
X3052824Y-8516674D01*
X3052824Y-8516674D02*
X3062348Y-8535722D01*
X3062348Y-8535722D02*
X3062348Y-8640484D01*
X3157586Y-8640484D02*
X3157586Y-8507150D01*
X3157586Y-8526198D02*
X3167110Y-8516674D01*
X3167110Y-8516674D02*
X3186158Y-8507150D01*
X3186158Y-8507150D02*
X3214729Y-8507150D01*
X3214729Y-8507150D02*
X3233777Y-8516674D01*
X3233777Y-8516674D02*
X3243301Y-8535722D01*
X3243301Y-8535722D02*
X3243301Y-8640484D01*
X3243301Y-8535722D02*
X3252824Y-8516674D01*
X3252824Y-8516674D02*
X3271872Y-8507150D01*
X3271872Y-8507150D02*
X3300443Y-8507150D01*
X3300443Y-8507150D02*
X3319491Y-8516674D01*
X3319491Y-8516674D02*
X3329015Y-8535722D01*
X3329015Y-8535722D02*
X3329015Y-8640484D01*
X3719491Y-8430960D02*
X3548063Y-8688103D01*
X3976634Y-8440484D02*
X3995682Y-8440484D01*
X3995682Y-8440484D02*
X4014729Y-8450008D01*
X4014729Y-8450008D02*
X4024253Y-8459531D01*
X4024253Y-8459531D02*
X4033777Y-8478579D01*
X4033777Y-8478579D02*
X4043301Y-8516674D01*
X4043301Y-8516674D02*
X4043301Y-8564293D01*
X4043301Y-8564293D02*
X4033777Y-8602389D01*
X4033777Y-8602389D02*
X4024253Y-8621436D01*
X4024253Y-8621436D02*
X4014729Y-8630960D01*
X4014729Y-8630960D02*
X3995682Y-8640484D01*
X3995682Y-8640484D02*
X3976634Y-8640484D01*
X3976634Y-8640484D02*
X3957586Y-8630960D01*
X3957586Y-8630960D02*
X3948063Y-8621436D01*
X3948063Y-8621436D02*
X3938539Y-8602389D01*
X3938539Y-8602389D02*
X3929015Y-8564293D01*
X3929015Y-8564293D02*
X3929015Y-8516674D01*
X3929015Y-8516674D02*
X3938539Y-8478579D01*
X3938539Y-8478579D02*
X3948063Y-8459531D01*
X3948063Y-8459531D02*
X3957586Y-8450008D01*
X3957586Y-8450008D02*
X3976634Y-8440484D01*
X4129015Y-8621436D02*
X4138539Y-8630960D01*
X4138539Y-8630960D02*
X4129015Y-8640484D01*
X4129015Y-8640484D02*
X4119491Y-8630960D01*
X4119491Y-8630960D02*
X4129015Y-8621436D01*
X4129015Y-8621436D02*
X4129015Y-8640484D01*
X4262348Y-8440484D02*
X4281396Y-8440484D01*
X4281396Y-8440484D02*
X4300444Y-8450008D01*
X4300444Y-8450008D02*
X4309968Y-8459531D01*
X4309968Y-8459531D02*
X4319491Y-8478579D01*
X4319491Y-8478579D02*
X4329015Y-8516674D01*
X4329015Y-8516674D02*
X4329015Y-8564293D01*
X4329015Y-8564293D02*
X4319491Y-8602389D01*
X4319491Y-8602389D02*
X4309968Y-8621436D01*
X4309968Y-8621436D02*
X4300444Y-8630960D01*
X4300444Y-8630960D02*
X4281396Y-8640484D01*
X4281396Y-8640484D02*
X4262348Y-8640484D01*
X4262348Y-8640484D02*
X4243301Y-8630960D01*
X4243301Y-8630960D02*
X4233777Y-8621436D01*
X4233777Y-8621436D02*
X4224253Y-8602389D01*
X4224253Y-8602389D02*
X4214729Y-8564293D01*
X4214729Y-8564293D02*
X4214729Y-8516674D01*
X4214729Y-8516674D02*
X4224253Y-8478579D01*
X4224253Y-8478579D02*
X4233777Y-8459531D01*
X4233777Y-8459531D02*
X4243301Y-8450008D01*
X4243301Y-8450008D02*
X4262348Y-8440484D01*
X4395682Y-8440484D02*
X4519491Y-8440484D01*
X4519491Y-8440484D02*
X4452825Y-8516674D01*
X4452825Y-8516674D02*
X4481396Y-8516674D01*
X4481396Y-8516674D02*
X4500444Y-8526198D01*
X4500444Y-8526198D02*
X4509968Y-8535722D01*
X4509968Y-8535722D02*
X4519491Y-8554770D01*
X4519491Y-8554770D02*
X4519491Y-8602389D01*
X4519491Y-8602389D02*
X4509968Y-8621436D01*
X4509968Y-8621436D02*
X4500444Y-8630960D01*
X4500444Y-8630960D02*
X4481396Y-8640484D01*
X4481396Y-8640484D02*
X4424253Y-8640484D01*
X4424253Y-8640484D02*
X4405206Y-8630960D01*
X4405206Y-8630960D02*
X4395682Y-8621436D01*
X4690920Y-8440484D02*
X4652825Y-8440484D01*
X4652825Y-8440484D02*
X4633777Y-8450008D01*
X4633777Y-8450008D02*
X4624253Y-8459531D01*
X4624253Y-8459531D02*
X4605206Y-8488103D01*
X4605206Y-8488103D02*
X4595682Y-8526198D01*
X4595682Y-8526198D02*
X4595682Y-8602389D01*
X4595682Y-8602389D02*
X4605206Y-8621436D01*
X4605206Y-8621436D02*
X4614729Y-8630960D01*
X4614729Y-8630960D02*
X4633777Y-8640484D01*
X4633777Y-8640484D02*
X4671872Y-8640484D01*
X4671872Y-8640484D02*
X4690920Y-8630960D01*
X4690920Y-8630960D02*
X4700444Y-8621436D01*
X4700444Y-8621436D02*
X4709968Y-8602389D01*
X4709968Y-8602389D02*
X4709968Y-8554770D01*
X4709968Y-8554770D02*
X4700444Y-8535722D01*
X4700444Y-8535722D02*
X4690920Y-8526198D01*
X4690920Y-8526198D02*
X4671872Y-8516674D01*
X4671872Y-8516674D02*
X4633777Y-8516674D01*
X4633777Y-8516674D02*
X4614729Y-8526198D01*
X4614729Y-8526198D02*
X4605206Y-8535722D01*
X4605206Y-8535722D02*
X4595682Y-8554770D01*
X4881396Y-8440484D02*
X4843301Y-8440484D01*
X4843301Y-8440484D02*
X4824253Y-8450008D01*
X4824253Y-8450008D02*
X4814729Y-8459531D01*
X4814729Y-8459531D02*
X4795682Y-8488103D01*
X4795682Y-8488103D02*
X4786158Y-8526198D01*
X4786158Y-8526198D02*
X4786158Y-8602389D01*
X4786158Y-8602389D02*
X4795682Y-8621436D01*
X4795682Y-8621436D02*
X4805206Y-8630960D01*
X4805206Y-8630960D02*
X4824253Y-8640484D01*
X4824253Y-8640484D02*
X4862349Y-8640484D01*
X4862349Y-8640484D02*
X4881396Y-8630960D01*
X4881396Y-8630960D02*
X4890920Y-8621436D01*
X4890920Y-8621436D02*
X4900444Y-8602389D01*
X4900444Y-8602389D02*
X4900444Y-8554770D01*
X4900444Y-8554770D02*
X4890920Y-8535722D01*
X4890920Y-8535722D02*
X4881396Y-8526198D01*
X4881396Y-8526198D02*
X4862349Y-8516674D01*
X4862349Y-8516674D02*
X4824253Y-8516674D01*
X4824253Y-8516674D02*
X4805206Y-8526198D01*
X4805206Y-8526198D02*
X4795682Y-8535722D01*
X4795682Y-8535722D02*
X4786158Y-8554770D01*
X4976634Y-8440484D02*
X4976634Y-8478579D01*
X5052825Y-8440484D02*
X5052825Y-8478579D01*
X5348063Y-8716674D02*
X5338539Y-8707150D01*
X5338539Y-8707150D02*
X5319491Y-8678579D01*
X5319491Y-8678579D02*
X5309968Y-8659531D01*
X5309968Y-8659531D02*
X5300444Y-8630960D01*
X5300444Y-8630960D02*
X5290920Y-8583341D01*
X5290920Y-8583341D02*
X5290920Y-8545246D01*
X5290920Y-8545246D02*
X5300444Y-8497627D01*
X5300444Y-8497627D02*
X5309968Y-8469055D01*
X5309968Y-8469055D02*
X5319491Y-8450008D01*
X5319491Y-8450008D02*
X5338539Y-8421436D01*
X5338539Y-8421436D02*
X5348063Y-8411912D01*
X5452825Y-8526198D02*
X5433777Y-8516674D01*
X5433777Y-8516674D02*
X5424253Y-8507150D01*
X5424253Y-8507150D02*
X5414730Y-8488103D01*
X5414730Y-8488103D02*
X5414730Y-8478579D01*
X5414730Y-8478579D02*
X5424253Y-8459531D01*
X5424253Y-8459531D02*
X5433777Y-8450008D01*
X5433777Y-8450008D02*
X5452825Y-8440484D01*
X5452825Y-8440484D02*
X5490920Y-8440484D01*
X5490920Y-8440484D02*
X5509968Y-8450008D01*
X5509968Y-8450008D02*
X5519491Y-8459531D01*
X5519491Y-8459531D02*
X5529015Y-8478579D01*
X5529015Y-8478579D02*
X5529015Y-8488103D01*
X5529015Y-8488103D02*
X5519491Y-8507150D01*
X5519491Y-8507150D02*
X5509968Y-8516674D01*
X5509968Y-8516674D02*
X5490920Y-8526198D01*
X5490920Y-8526198D02*
X5452825Y-8526198D01*
X5452825Y-8526198D02*
X5433777Y-8535722D01*
X5433777Y-8535722D02*
X5424253Y-8545246D01*
X5424253Y-8545246D02*
X5414730Y-8564293D01*
X5414730Y-8564293D02*
X5414730Y-8602389D01*
X5414730Y-8602389D02*
X5424253Y-8621436D01*
X5424253Y-8621436D02*
X5433777Y-8630960D01*
X5433777Y-8630960D02*
X5452825Y-8640484D01*
X5452825Y-8640484D02*
X5490920Y-8640484D01*
X5490920Y-8640484D02*
X5509968Y-8630960D01*
X5509968Y-8630960D02*
X5519491Y-8621436D01*
X5519491Y-8621436D02*
X5529015Y-8602389D01*
X5529015Y-8602389D02*
X5529015Y-8564293D01*
X5529015Y-8564293D02*
X5519491Y-8545246D01*
X5519491Y-8545246D02*
X5509968Y-8535722D01*
X5509968Y-8535722D02*
X5490920Y-8526198D01*
X5767110Y-8640484D02*
X5767110Y-8440484D01*
X5852825Y-8640484D02*
X5852825Y-8535722D01*
X5852825Y-8535722D02*
X5843301Y-8516674D01*
X5843301Y-8516674D02*
X5824253Y-8507150D01*
X5824253Y-8507150D02*
X5795682Y-8507150D01*
X5795682Y-8507150D02*
X5776634Y-8516674D01*
X5776634Y-8516674D02*
X5767110Y-8526198D01*
X5976634Y-8640484D02*
X5957587Y-8630960D01*
X5957587Y-8630960D02*
X5948063Y-8621436D01*
X5948063Y-8621436D02*
X5938539Y-8602389D01*
X5938539Y-8602389D02*
X5938539Y-8545246D01*
X5938539Y-8545246D02*
X5948063Y-8526198D01*
X5948063Y-8526198D02*
X5957587Y-8516674D01*
X5957587Y-8516674D02*
X5976634Y-8507150D01*
X5976634Y-8507150D02*
X6005206Y-8507150D01*
X6005206Y-8507150D02*
X6024253Y-8516674D01*
X6024253Y-8516674D02*
X6033777Y-8526198D01*
X6033777Y-8526198D02*
X6043301Y-8545246D01*
X6043301Y-8545246D02*
X6043301Y-8602389D01*
X6043301Y-8602389D02*
X6033777Y-8621436D01*
X6033777Y-8621436D02*
X6024253Y-8630960D01*
X6024253Y-8630960D02*
X6005206Y-8640484D01*
X6005206Y-8640484D02*
X5976634Y-8640484D01*
X6157587Y-8640484D02*
X6138539Y-8630960D01*
X6138539Y-8630960D02*
X6129015Y-8611912D01*
X6129015Y-8611912D02*
X6129015Y-8440484D01*
X6309968Y-8630960D02*
X6290920Y-8640484D01*
X6290920Y-8640484D02*
X6252825Y-8640484D01*
X6252825Y-8640484D02*
X6233777Y-8630960D01*
X6233777Y-8630960D02*
X6224253Y-8611912D01*
X6224253Y-8611912D02*
X6224253Y-8535722D01*
X6224253Y-8535722D02*
X6233777Y-8516674D01*
X6233777Y-8516674D02*
X6252825Y-8507150D01*
X6252825Y-8507150D02*
X6290920Y-8507150D01*
X6290920Y-8507150D02*
X6309968Y-8516674D01*
X6309968Y-8516674D02*
X6319491Y-8535722D01*
X6319491Y-8535722D02*
X6319491Y-8554770D01*
X6319491Y-8554770D02*
X6224253Y-8573817D01*
X6395682Y-8630960D02*
X6414730Y-8640484D01*
X6414730Y-8640484D02*
X6452825Y-8640484D01*
X6452825Y-8640484D02*
X6471872Y-8630960D01*
X6471872Y-8630960D02*
X6481396Y-8611912D01*
X6481396Y-8611912D02*
X6481396Y-8602389D01*
X6481396Y-8602389D02*
X6471872Y-8583341D01*
X6471872Y-8583341D02*
X6452825Y-8573817D01*
X6452825Y-8573817D02*
X6424253Y-8573817D01*
X6424253Y-8573817D02*
X6405206Y-8564293D01*
X6405206Y-8564293D02*
X6395682Y-8545246D01*
X6395682Y-8545246D02*
X6395682Y-8535722D01*
X6395682Y-8535722D02*
X6405206Y-8516674D01*
X6405206Y-8516674D02*
X6424253Y-8507150D01*
X6424253Y-8507150D02*
X6452825Y-8507150D01*
X6452825Y-8507150D02*
X6471872Y-8516674D01*
X6548063Y-8716674D02*
X6557587Y-8707150D01*
X6557587Y-8707150D02*
X6576634Y-8678579D01*
X6576634Y-8678579D02*
X6586158Y-8659531D01*
X6586158Y-8659531D02*
X6595682Y-8630960D01*
X6595682Y-8630960D02*
X6605206Y-8583341D01*
X6605206Y-8583341D02*
X6605206Y-8545246D01*
X6605206Y-8545246D02*
X6595682Y-8497627D01*
X6595682Y-8497627D02*
X6586158Y-8469055D01*
X6586158Y-8469055D02*
X6576634Y-8450008D01*
X6576634Y-8450008D02*
X6557587Y-8421436D01*
X6557587Y-8421436D02*
X6548063Y-8411912D01*
D10*
X1726000Y-8860000D02*
X1773000Y-8813000D01*
X1726000Y-8766000D01*
X1679000Y-8813000D01*
X1726000Y-8860000D01*
D11*
X2071872Y-8704484D02*
X2090920Y-8704484D01*
X2090920Y-8704484D02*
X2109967Y-8714008D01*
X2109967Y-8714008D02*
X2119491Y-8723531D01*
X2119491Y-8723531D02*
X2129015Y-8742579D01*
X2129015Y-8742579D02*
X2138539Y-8780674D01*
X2138539Y-8780674D02*
X2138539Y-8828293D01*
X2138539Y-8828293D02*
X2129015Y-8866389D01*
X2129015Y-8866389D02*
X2119491Y-8885436D01*
X2119491Y-8885436D02*
X2109967Y-8894960D01*
X2109967Y-8894960D02*
X2090920Y-8904484D01*
X2090920Y-8904484D02*
X2071872Y-8904484D01*
X2071872Y-8904484D02*
X2052824Y-8894960D01*
X2052824Y-8894960D02*
X2043301Y-8885436D01*
X2043301Y-8885436D02*
X2033777Y-8866389D01*
X2033777Y-8866389D02*
X2024253Y-8828293D01*
X2024253Y-8828293D02*
X2024253Y-8780674D01*
X2024253Y-8780674D02*
X2033777Y-8742579D01*
X2033777Y-8742579D02*
X2043301Y-8723531D01*
X2043301Y-8723531D02*
X2052824Y-8714008D01*
X2052824Y-8714008D02*
X2071872Y-8704484D01*
X2224253Y-8885436D02*
X2233777Y-8894960D01*
X2233777Y-8894960D02*
X2224253Y-8904484D01*
X2224253Y-8904484D02*
X2214729Y-8894960D01*
X2214729Y-8894960D02*
X2224253Y-8885436D01*
X2224253Y-8885436D02*
X2224253Y-8904484D01*
X2329015Y-8904484D02*
X2367110Y-8904484D01*
X2367110Y-8904484D02*
X2386158Y-8894960D01*
X2386158Y-8894960D02*
X2395682Y-8885436D01*
X2395682Y-8885436D02*
X2414729Y-8856865D01*
X2414729Y-8856865D02*
X2424253Y-8818770D01*
X2424253Y-8818770D02*
X2424253Y-8742579D01*
X2424253Y-8742579D02*
X2414729Y-8723531D01*
X2414729Y-8723531D02*
X2405205Y-8714008D01*
X2405205Y-8714008D02*
X2386158Y-8704484D01*
X2386158Y-8704484D02*
X2348063Y-8704484D01*
X2348063Y-8704484D02*
X2329015Y-8714008D01*
X2329015Y-8714008D02*
X2319491Y-8723531D01*
X2319491Y-8723531D02*
X2309967Y-8742579D01*
X2309967Y-8742579D02*
X2309967Y-8790198D01*
X2309967Y-8790198D02*
X2319491Y-8809246D01*
X2319491Y-8809246D02*
X2329015Y-8818770D01*
X2329015Y-8818770D02*
X2348063Y-8828293D01*
X2348063Y-8828293D02*
X2386158Y-8828293D01*
X2386158Y-8828293D02*
X2405205Y-8818770D01*
X2405205Y-8818770D02*
X2414729Y-8809246D01*
X2414729Y-8809246D02*
X2424253Y-8790198D01*
X2595682Y-8771150D02*
X2595682Y-8904484D01*
X2548063Y-8694960D02*
X2500444Y-8837817D01*
X2500444Y-8837817D02*
X2624253Y-8837817D01*
X2738539Y-8704484D02*
X2757586Y-8704484D01*
X2757586Y-8704484D02*
X2776634Y-8714008D01*
X2776634Y-8714008D02*
X2786158Y-8723531D01*
X2786158Y-8723531D02*
X2795682Y-8742579D01*
X2795682Y-8742579D02*
X2805205Y-8780674D01*
X2805205Y-8780674D02*
X2805205Y-8828293D01*
X2805205Y-8828293D02*
X2795682Y-8866389D01*
X2795682Y-8866389D02*
X2786158Y-8885436D01*
X2786158Y-8885436D02*
X2776634Y-8894960D01*
X2776634Y-8894960D02*
X2757586Y-8904484D01*
X2757586Y-8904484D02*
X2738539Y-8904484D01*
X2738539Y-8904484D02*
X2719491Y-8894960D01*
X2719491Y-8894960D02*
X2709967Y-8885436D01*
X2709967Y-8885436D02*
X2700444Y-8866389D01*
X2700444Y-8866389D02*
X2690920Y-8828293D01*
X2690920Y-8828293D02*
X2690920Y-8780674D01*
X2690920Y-8780674D02*
X2700444Y-8742579D01*
X2700444Y-8742579D02*
X2709967Y-8723531D01*
X2709967Y-8723531D02*
X2719491Y-8714008D01*
X2719491Y-8714008D02*
X2738539Y-8704484D01*
X2890920Y-8904484D02*
X2890920Y-8771150D01*
X2890920Y-8790198D02*
X2900443Y-8780674D01*
X2900443Y-8780674D02*
X2919491Y-8771150D01*
X2919491Y-8771150D02*
X2948063Y-8771150D01*
X2948063Y-8771150D02*
X2967110Y-8780674D01*
X2967110Y-8780674D02*
X2976634Y-8799722D01*
X2976634Y-8799722D02*
X2976634Y-8904484D01*
X2976634Y-8799722D02*
X2986158Y-8780674D01*
X2986158Y-8780674D02*
X3005205Y-8771150D01*
X3005205Y-8771150D02*
X3033777Y-8771150D01*
X3033777Y-8771150D02*
X3052824Y-8780674D01*
X3052824Y-8780674D02*
X3062348Y-8799722D01*
X3062348Y-8799722D02*
X3062348Y-8904484D01*
X3157586Y-8904484D02*
X3157586Y-8771150D01*
X3157586Y-8790198D02*
X3167110Y-8780674D01*
X3167110Y-8780674D02*
X3186158Y-8771150D01*
X3186158Y-8771150D02*
X3214729Y-8771150D01*
X3214729Y-8771150D02*
X3233777Y-8780674D01*
X3233777Y-8780674D02*
X3243301Y-8799722D01*
X3243301Y-8799722D02*
X3243301Y-8904484D01*
X3243301Y-8799722D02*
X3252824Y-8780674D01*
X3252824Y-8780674D02*
X3271872Y-8771150D01*
X3271872Y-8771150D02*
X3300443Y-8771150D01*
X3300443Y-8771150D02*
X3319491Y-8780674D01*
X3319491Y-8780674D02*
X3329015Y-8799722D01*
X3329015Y-8799722D02*
X3329015Y-8904484D01*
X3719491Y-8694960D02*
X3548063Y-8952103D01*
X3976634Y-8704484D02*
X3995682Y-8704484D01*
X3995682Y-8704484D02*
X4014729Y-8714008D01*
X4014729Y-8714008D02*
X4024253Y-8723531D01*
X4024253Y-8723531D02*
X4033777Y-8742579D01*
X4033777Y-8742579D02*
X4043301Y-8780674D01*
X4043301Y-8780674D02*
X4043301Y-8828293D01*
X4043301Y-8828293D02*
X4033777Y-8866389D01*
X4033777Y-8866389D02*
X4024253Y-8885436D01*
X4024253Y-8885436D02*
X4014729Y-8894960D01*
X4014729Y-8894960D02*
X3995682Y-8904484D01*
X3995682Y-8904484D02*
X3976634Y-8904484D01*
X3976634Y-8904484D02*
X3957586Y-8894960D01*
X3957586Y-8894960D02*
X3948063Y-8885436D01*
X3948063Y-8885436D02*
X3938539Y-8866389D01*
X3938539Y-8866389D02*
X3929015Y-8828293D01*
X3929015Y-8828293D02*
X3929015Y-8780674D01*
X3929015Y-8780674D02*
X3938539Y-8742579D01*
X3938539Y-8742579D02*
X3948063Y-8723531D01*
X3948063Y-8723531D02*
X3957586Y-8714008D01*
X3957586Y-8714008D02*
X3976634Y-8704484D01*
X4129015Y-8885436D02*
X4138539Y-8894960D01*
X4138539Y-8894960D02*
X4129015Y-8904484D01*
X4129015Y-8904484D02*
X4119491Y-8894960D01*
X4119491Y-8894960D02*
X4129015Y-8885436D01*
X4129015Y-8885436D02*
X4129015Y-8904484D01*
X4262348Y-8704484D02*
X4281396Y-8704484D01*
X4281396Y-8704484D02*
X4300444Y-8714008D01*
X4300444Y-8714008D02*
X4309968Y-8723531D01*
X4309968Y-8723531D02*
X4319491Y-8742579D01*
X4319491Y-8742579D02*
X4329015Y-8780674D01*
X4329015Y-8780674D02*
X4329015Y-8828293D01*
X4329015Y-8828293D02*
X4319491Y-8866389D01*
X4319491Y-8866389D02*
X4309968Y-8885436D01*
X4309968Y-8885436D02*
X4300444Y-8894960D01*
X4300444Y-8894960D02*
X4281396Y-8904484D01*
X4281396Y-8904484D02*
X4262348Y-8904484D01*
X4262348Y-8904484D02*
X4243301Y-8894960D01*
X4243301Y-8894960D02*
X4233777Y-8885436D01*
X4233777Y-8885436D02*
X4224253Y-8866389D01*
X4224253Y-8866389D02*
X4214729Y-8828293D01*
X4214729Y-8828293D02*
X4214729Y-8780674D01*
X4214729Y-8780674D02*
X4224253Y-8742579D01*
X4224253Y-8742579D02*
X4233777Y-8723531D01*
X4233777Y-8723531D02*
X4243301Y-8714008D01*
X4243301Y-8714008D02*
X4262348Y-8704484D01*
X4395682Y-8704484D02*
X4519491Y-8704484D01*
X4519491Y-8704484D02*
X4452825Y-8780674D01*
X4452825Y-8780674D02*
X4481396Y-8780674D01*
X4481396Y-8780674D02*
X4500444Y-8790198D01*
X4500444Y-8790198D02*
X4509968Y-8799722D01*
X4509968Y-8799722D02*
X4519491Y-8818770D01*
X4519491Y-8818770D02*
X4519491Y-8866389D01*
X4519491Y-8866389D02*
X4509968Y-8885436D01*
X4509968Y-8885436D02*
X4500444Y-8894960D01*
X4500444Y-8894960D02*
X4481396Y-8904484D01*
X4481396Y-8904484D02*
X4424253Y-8904484D01*
X4424253Y-8904484D02*
X4405206Y-8894960D01*
X4405206Y-8894960D02*
X4395682Y-8885436D01*
X4586158Y-8704484D02*
X4719491Y-8704484D01*
X4719491Y-8704484D02*
X4633777Y-8904484D01*
X4833777Y-8704484D02*
X4852825Y-8704484D01*
X4852825Y-8704484D02*
X4871872Y-8714008D01*
X4871872Y-8714008D02*
X4881396Y-8723531D01*
X4881396Y-8723531D02*
X4890920Y-8742579D01*
X4890920Y-8742579D02*
X4900444Y-8780674D01*
X4900444Y-8780674D02*
X4900444Y-8828293D01*
X4900444Y-8828293D02*
X4890920Y-8866389D01*
X4890920Y-8866389D02*
X4881396Y-8885436D01*
X4881396Y-8885436D02*
X4871872Y-8894960D01*
X4871872Y-8894960D02*
X4852825Y-8904484D01*
X4852825Y-8904484D02*
X4833777Y-8904484D01*
X4833777Y-8904484D02*
X4814729Y-8894960D01*
X4814729Y-8894960D02*
X4805206Y-8885436D01*
X4805206Y-8885436D02*
X4795682Y-8866389D01*
X4795682Y-8866389D02*
X4786158Y-8828293D01*
X4786158Y-8828293D02*
X4786158Y-8780674D01*
X4786158Y-8780674D02*
X4795682Y-8742579D01*
X4795682Y-8742579D02*
X4805206Y-8723531D01*
X4805206Y-8723531D02*
X4814729Y-8714008D01*
X4814729Y-8714008D02*
X4833777Y-8704484D01*
X4976634Y-8704484D02*
X4976634Y-8742579D01*
X5052825Y-8704484D02*
X5052825Y-8742579D01*
X5348063Y-8980674D02*
X5338539Y-8971150D01*
X5338539Y-8971150D02*
X5319491Y-8942579D01*
X5319491Y-8942579D02*
X5309968Y-8923531D01*
X5309968Y-8923531D02*
X5300444Y-8894960D01*
X5300444Y-8894960D02*
X5290920Y-8847341D01*
X5290920Y-8847341D02*
X5290920Y-8809246D01*
X5290920Y-8809246D02*
X5300444Y-8761627D01*
X5300444Y-8761627D02*
X5309968Y-8733055D01*
X5309968Y-8733055D02*
X5319491Y-8714008D01*
X5319491Y-8714008D02*
X5338539Y-8685436D01*
X5338539Y-8685436D02*
X5348063Y-8675912D01*
X5405206Y-8704484D02*
X5529015Y-8704484D01*
X5529015Y-8704484D02*
X5462349Y-8780674D01*
X5462349Y-8780674D02*
X5490920Y-8780674D01*
X5490920Y-8780674D02*
X5509968Y-8790198D01*
X5509968Y-8790198D02*
X5519491Y-8799722D01*
X5519491Y-8799722D02*
X5529015Y-8818770D01*
X5529015Y-8818770D02*
X5529015Y-8866389D01*
X5529015Y-8866389D02*
X5519491Y-8885436D01*
X5519491Y-8885436D02*
X5509968Y-8894960D01*
X5509968Y-8894960D02*
X5490920Y-8904484D01*
X5490920Y-8904484D02*
X5433777Y-8904484D01*
X5433777Y-8904484D02*
X5414730Y-8894960D01*
X5414730Y-8894960D02*
X5405206Y-8885436D01*
X5767110Y-8904484D02*
X5767110Y-8704484D01*
X5852825Y-8904484D02*
X5852825Y-8799722D01*
X5852825Y-8799722D02*
X5843301Y-8780674D01*
X5843301Y-8780674D02*
X5824253Y-8771150D01*
X5824253Y-8771150D02*
X5795682Y-8771150D01*
X5795682Y-8771150D02*
X5776634Y-8780674D01*
X5776634Y-8780674D02*
X5767110Y-8790198D01*
X5976634Y-8904484D02*
X5957587Y-8894960D01*
X5957587Y-8894960D02*
X5948063Y-8885436D01*
X5948063Y-8885436D02*
X5938539Y-8866389D01*
X5938539Y-8866389D02*
X5938539Y-8809246D01*
X5938539Y-8809246D02*
X5948063Y-8790198D01*
X5948063Y-8790198D02*
X5957587Y-8780674D01*
X5957587Y-8780674D02*
X5976634Y-8771150D01*
X5976634Y-8771150D02*
X6005206Y-8771150D01*
X6005206Y-8771150D02*
X6024253Y-8780674D01*
X6024253Y-8780674D02*
X6033777Y-8790198D01*
X6033777Y-8790198D02*
X6043301Y-8809246D01*
X6043301Y-8809246D02*
X6043301Y-8866389D01*
X6043301Y-8866389D02*
X6033777Y-8885436D01*
X6033777Y-8885436D02*
X6024253Y-8894960D01*
X6024253Y-8894960D02*
X6005206Y-8904484D01*
X6005206Y-8904484D02*
X5976634Y-8904484D01*
X6157587Y-8904484D02*
X6138539Y-8894960D01*
X6138539Y-8894960D02*
X6129015Y-8875912D01*
X6129015Y-8875912D02*
X6129015Y-8704484D01*
X6309968Y-8894960D02*
X6290920Y-8904484D01*
X6290920Y-8904484D02*
X6252825Y-8904484D01*
X6252825Y-8904484D02*
X6233777Y-8894960D01*
X6233777Y-8894960D02*
X6224253Y-8875912D01*
X6224253Y-8875912D02*
X6224253Y-8799722D01*
X6224253Y-8799722D02*
X6233777Y-8780674D01*
X6233777Y-8780674D02*
X6252825Y-8771150D01*
X6252825Y-8771150D02*
X6290920Y-8771150D01*
X6290920Y-8771150D02*
X6309968Y-8780674D01*
X6309968Y-8780674D02*
X6319491Y-8799722D01*
X6319491Y-8799722D02*
X6319491Y-8818770D01*
X6319491Y-8818770D02*
X6224253Y-8837817D01*
X6395682Y-8894960D02*
X6414730Y-8904484D01*
X6414730Y-8904484D02*
X6452825Y-8904484D01*
X6452825Y-8904484D02*
X6471872Y-8894960D01*
X6471872Y-8894960D02*
X6481396Y-8875912D01*
X6481396Y-8875912D02*
X6481396Y-8866389D01*
X6481396Y-8866389D02*
X6471872Y-8847341D01*
X6471872Y-8847341D02*
X6452825Y-8837817D01*
X6452825Y-8837817D02*
X6424253Y-8837817D01*
X6424253Y-8837817D02*
X6405206Y-8828293D01*
X6405206Y-8828293D02*
X6395682Y-8809246D01*
X6395682Y-8809246D02*
X6395682Y-8799722D01*
X6395682Y-8799722D02*
X6405206Y-8780674D01*
X6405206Y-8780674D02*
X6424253Y-8771150D01*
X6424253Y-8771150D02*
X6452825Y-8771150D01*
X6452825Y-8771150D02*
X6471872Y-8780674D01*
X6548063Y-8980674D02*
X6557587Y-8971150D01*
X6557587Y-8971150D02*
X6576634Y-8942579D01*
X6576634Y-8942579D02*
X6586158Y-8923531D01*
X6586158Y-8923531D02*
X6595682Y-8894960D01*
X6595682Y-8894960D02*
X6605206Y-8847341D01*
X6605206Y-8847341D02*
X6605206Y-8809246D01*
X6605206Y-8809246D02*
X6595682Y-8761627D01*
X6595682Y-8761627D02*
X6586158Y-8733055D01*
X6586158Y-8733055D02*
X6576634Y-8714008D01*
X6576634Y-8714008D02*
X6557587Y-8685436D01*
X6557587Y-8685436D02*
X6548063Y-8675912D01*
D12*
X1671000Y-9026000D02*
X1773000Y-9128000D01*
X1773000Y-9026000D02*
X1671000Y-9128000D01*
X1773000Y-9077000D02*
G75*
G02*
X1671000Y-9077000I-51000J0D01*
G01*
X1671000Y-9077000D02*
G75*
G02*
X1773000Y-9077000I51000J0D01*
G01*
D11*
X2138539Y-9168484D02*
X2024253Y-9168484D01*
X2081396Y-9168484D02*
X2081396Y-8968484D01*
X2081396Y-8968484D02*
X2062348Y-8997055D01*
X2062348Y-8997055D02*
X2043301Y-9016103D01*
X2043301Y-9016103D02*
X2024253Y-9025627D01*
X2224253Y-9149436D02*
X2233777Y-9158960D01*
X2233777Y-9158960D02*
X2224253Y-9168484D01*
X2224253Y-9168484D02*
X2214729Y-9158960D01*
X2214729Y-9158960D02*
X2224253Y-9149436D01*
X2224253Y-9149436D02*
X2224253Y-9168484D01*
X2357586Y-8968484D02*
X2376634Y-8968484D01*
X2376634Y-8968484D02*
X2395682Y-8978008D01*
X2395682Y-8978008D02*
X2405205Y-8987531D01*
X2405205Y-8987531D02*
X2414729Y-9006579D01*
X2414729Y-9006579D02*
X2424253Y-9044674D01*
X2424253Y-9044674D02*
X2424253Y-9092293D01*
X2424253Y-9092293D02*
X2414729Y-9130389D01*
X2414729Y-9130389D02*
X2405205Y-9149436D01*
X2405205Y-9149436D02*
X2395682Y-9158960D01*
X2395682Y-9158960D02*
X2376634Y-9168484D01*
X2376634Y-9168484D02*
X2357586Y-9168484D01*
X2357586Y-9168484D02*
X2338539Y-9158960D01*
X2338539Y-9158960D02*
X2329015Y-9149436D01*
X2329015Y-9149436D02*
X2319491Y-9130389D01*
X2319491Y-9130389D02*
X2309967Y-9092293D01*
X2309967Y-9092293D02*
X2309967Y-9044674D01*
X2309967Y-9044674D02*
X2319491Y-9006579D01*
X2319491Y-9006579D02*
X2329015Y-8987531D01*
X2329015Y-8987531D02*
X2338539Y-8978008D01*
X2338539Y-8978008D02*
X2357586Y-8968484D01*
X2500444Y-8987531D02*
X2509967Y-8978008D01*
X2509967Y-8978008D02*
X2529015Y-8968484D01*
X2529015Y-8968484D02*
X2576634Y-8968484D01*
X2576634Y-8968484D02*
X2595682Y-8978008D01*
X2595682Y-8978008D02*
X2605205Y-8987531D01*
X2605205Y-8987531D02*
X2614729Y-9006579D01*
X2614729Y-9006579D02*
X2614729Y-9025627D01*
X2614729Y-9025627D02*
X2605205Y-9054198D01*
X2605205Y-9054198D02*
X2490920Y-9168484D01*
X2490920Y-9168484D02*
X2614729Y-9168484D01*
X2738539Y-8968484D02*
X2757586Y-8968484D01*
X2757586Y-8968484D02*
X2776634Y-8978008D01*
X2776634Y-8978008D02*
X2786158Y-8987531D01*
X2786158Y-8987531D02*
X2795682Y-9006579D01*
X2795682Y-9006579D02*
X2805205Y-9044674D01*
X2805205Y-9044674D02*
X2805205Y-9092293D01*
X2805205Y-9092293D02*
X2795682Y-9130389D01*
X2795682Y-9130389D02*
X2786158Y-9149436D01*
X2786158Y-9149436D02*
X2776634Y-9158960D01*
X2776634Y-9158960D02*
X2757586Y-9168484D01*
X2757586Y-9168484D02*
X2738539Y-9168484D01*
X2738539Y-9168484D02*
X2719491Y-9158960D01*
X2719491Y-9158960D02*
X2709967Y-9149436D01*
X2709967Y-9149436D02*
X2700444Y-9130389D01*
X2700444Y-9130389D02*
X2690920Y-9092293D01*
X2690920Y-9092293D02*
X2690920Y-9044674D01*
X2690920Y-9044674D02*
X2700444Y-9006579D01*
X2700444Y-9006579D02*
X2709967Y-8987531D01*
X2709967Y-8987531D02*
X2719491Y-8978008D01*
X2719491Y-8978008D02*
X2738539Y-8968484D01*
X2890920Y-9168484D02*
X2890920Y-9035150D01*
X2890920Y-9054198D02*
X2900443Y-9044674D01*
X2900443Y-9044674D02*
X2919491Y-9035150D01*
X2919491Y-9035150D02*
X2948063Y-9035150D01*
X2948063Y-9035150D02*
X2967110Y-9044674D01*
X2967110Y-9044674D02*
X2976634Y-9063722D01*
X2976634Y-9063722D02*
X2976634Y-9168484D01*
X2976634Y-9063722D02*
X2986158Y-9044674D01*
X2986158Y-9044674D02*
X3005205Y-9035150D01*
X3005205Y-9035150D02*
X3033777Y-9035150D01*
X3033777Y-9035150D02*
X3052824Y-9044674D01*
X3052824Y-9044674D02*
X3062348Y-9063722D01*
X3062348Y-9063722D02*
X3062348Y-9168484D01*
X3157586Y-9168484D02*
X3157586Y-9035150D01*
X3157586Y-9054198D02*
X3167110Y-9044674D01*
X3167110Y-9044674D02*
X3186158Y-9035150D01*
X3186158Y-9035150D02*
X3214729Y-9035150D01*
X3214729Y-9035150D02*
X3233777Y-9044674D01*
X3233777Y-9044674D02*
X3243301Y-9063722D01*
X3243301Y-9063722D02*
X3243301Y-9168484D01*
X3243301Y-9063722D02*
X3252824Y-9044674D01*
X3252824Y-9044674D02*
X3271872Y-9035150D01*
X3271872Y-9035150D02*
X3300443Y-9035150D01*
X3300443Y-9035150D02*
X3319491Y-9044674D01*
X3319491Y-9044674D02*
X3329015Y-9063722D01*
X3329015Y-9063722D02*
X3329015Y-9168484D01*
X3719491Y-8958960D02*
X3548063Y-9216103D01*
X3976634Y-8968484D02*
X3995682Y-8968484D01*
X3995682Y-8968484D02*
X4014729Y-8978008D01*
X4014729Y-8978008D02*
X4024253Y-8987531D01*
X4024253Y-8987531D02*
X4033777Y-9006579D01*
X4033777Y-9006579D02*
X4043301Y-9044674D01*
X4043301Y-9044674D02*
X4043301Y-9092293D01*
X4043301Y-9092293D02*
X4033777Y-9130389D01*
X4033777Y-9130389D02*
X4024253Y-9149436D01*
X4024253Y-9149436D02*
X4014729Y-9158960D01*
X4014729Y-9158960D02*
X3995682Y-9168484D01*
X3995682Y-9168484D02*
X3976634Y-9168484D01*
X3976634Y-9168484D02*
X3957586Y-9158960D01*
X3957586Y-9158960D02*
X3948063Y-9149436D01*
X3948063Y-9149436D02*
X3938539Y-9130389D01*
X3938539Y-9130389D02*
X3929015Y-9092293D01*
X3929015Y-9092293D02*
X3929015Y-9044674D01*
X3929015Y-9044674D02*
X3938539Y-9006579D01*
X3938539Y-9006579D02*
X3948063Y-8987531D01*
X3948063Y-8987531D02*
X3957586Y-8978008D01*
X3957586Y-8978008D02*
X3976634Y-8968484D01*
X4129015Y-9149436D02*
X4138539Y-9158960D01*
X4138539Y-9158960D02*
X4129015Y-9168484D01*
X4129015Y-9168484D02*
X4119491Y-9158960D01*
X4119491Y-9158960D02*
X4129015Y-9149436D01*
X4129015Y-9149436D02*
X4129015Y-9168484D01*
X4262348Y-8968484D02*
X4281396Y-8968484D01*
X4281396Y-8968484D02*
X4300444Y-8978008D01*
X4300444Y-8978008D02*
X4309968Y-8987531D01*
X4309968Y-8987531D02*
X4319491Y-9006579D01*
X4319491Y-9006579D02*
X4329015Y-9044674D01*
X4329015Y-9044674D02*
X4329015Y-9092293D01*
X4329015Y-9092293D02*
X4319491Y-9130389D01*
X4319491Y-9130389D02*
X4309968Y-9149436D01*
X4309968Y-9149436D02*
X4300444Y-9158960D01*
X4300444Y-9158960D02*
X4281396Y-9168484D01*
X4281396Y-9168484D02*
X4262348Y-9168484D01*
X4262348Y-9168484D02*
X4243301Y-9158960D01*
X4243301Y-9158960D02*
X4233777Y-9149436D01*
X4233777Y-9149436D02*
X4224253Y-9130389D01*
X4224253Y-9130389D02*
X4214729Y-9092293D01*
X4214729Y-9092293D02*
X4214729Y-9044674D01*
X4214729Y-9044674D02*
X4224253Y-9006579D01*
X4224253Y-9006579D02*
X4233777Y-8987531D01*
X4233777Y-8987531D02*
X4243301Y-8978008D01*
X4243301Y-8978008D02*
X4262348Y-8968484D01*
X4500444Y-9035150D02*
X4500444Y-9168484D01*
X4452825Y-8958960D02*
X4405206Y-9101817D01*
X4405206Y-9101817D02*
X4529015Y-9101817D01*
X4643301Y-8968484D02*
X4662349Y-8968484D01*
X4662349Y-8968484D02*
X4681396Y-8978008D01*
X4681396Y-8978008D02*
X4690920Y-8987531D01*
X4690920Y-8987531D02*
X4700444Y-9006579D01*
X4700444Y-9006579D02*
X4709968Y-9044674D01*
X4709968Y-9044674D02*
X4709968Y-9092293D01*
X4709968Y-9092293D02*
X4700444Y-9130389D01*
X4700444Y-9130389D02*
X4690920Y-9149436D01*
X4690920Y-9149436D02*
X4681396Y-9158960D01*
X4681396Y-9158960D02*
X4662349Y-9168484D01*
X4662349Y-9168484D02*
X4643301Y-9168484D01*
X4643301Y-9168484D02*
X4624253Y-9158960D01*
X4624253Y-9158960D02*
X4614729Y-9149436D01*
X4614729Y-9149436D02*
X4605206Y-9130389D01*
X4605206Y-9130389D02*
X4595682Y-9092293D01*
X4595682Y-9092293D02*
X4595682Y-9044674D01*
X4595682Y-9044674D02*
X4605206Y-9006579D01*
X4605206Y-9006579D02*
X4614729Y-8987531D01*
X4614729Y-8987531D02*
X4624253Y-8978008D01*
X4624253Y-8978008D02*
X4643301Y-8968484D01*
X4786158Y-8987531D02*
X4795682Y-8978008D01*
X4795682Y-8978008D02*
X4814729Y-8968484D01*
X4814729Y-8968484D02*
X4862349Y-8968484D01*
X4862349Y-8968484D02*
X4881396Y-8978008D01*
X4881396Y-8978008D02*
X4890920Y-8987531D01*
X4890920Y-8987531D02*
X4900444Y-9006579D01*
X4900444Y-9006579D02*
X4900444Y-9025627D01*
X4900444Y-9025627D02*
X4890920Y-9054198D01*
X4890920Y-9054198D02*
X4776634Y-9168484D01*
X4776634Y-9168484D02*
X4900444Y-9168484D01*
X4976634Y-8968484D02*
X4976634Y-9006579D01*
X5052825Y-8968484D02*
X5052825Y-9006579D01*
X5348063Y-9244674D02*
X5338539Y-9235150D01*
X5338539Y-9235150D02*
X5319491Y-9206579D01*
X5319491Y-9206579D02*
X5309968Y-9187531D01*
X5309968Y-9187531D02*
X5300444Y-9158960D01*
X5300444Y-9158960D02*
X5290920Y-9111341D01*
X5290920Y-9111341D02*
X5290920Y-9073246D01*
X5290920Y-9073246D02*
X5300444Y-9025627D01*
X5300444Y-9025627D02*
X5309968Y-8997055D01*
X5309968Y-8997055D02*
X5319491Y-8978008D01*
X5319491Y-8978008D02*
X5338539Y-8949436D01*
X5338539Y-8949436D02*
X5348063Y-8939912D01*
X5509968Y-9035150D02*
X5509968Y-9168484D01*
X5462349Y-8958960D02*
X5414730Y-9101817D01*
X5414730Y-9101817D02*
X5538539Y-9101817D01*
X5767110Y-9168484D02*
X5767110Y-8968484D01*
X5852825Y-9168484D02*
X5852825Y-9063722D01*
X5852825Y-9063722D02*
X5843301Y-9044674D01*
X5843301Y-9044674D02*
X5824253Y-9035150D01*
X5824253Y-9035150D02*
X5795682Y-9035150D01*
X5795682Y-9035150D02*
X5776634Y-9044674D01*
X5776634Y-9044674D02*
X5767110Y-9054198D01*
X5976634Y-9168484D02*
X5957587Y-9158960D01*
X5957587Y-9158960D02*
X5948063Y-9149436D01*
X5948063Y-9149436D02*
X5938539Y-9130389D01*
X5938539Y-9130389D02*
X5938539Y-9073246D01*
X5938539Y-9073246D02*
X5948063Y-9054198D01*
X5948063Y-9054198D02*
X5957587Y-9044674D01*
X5957587Y-9044674D02*
X5976634Y-9035150D01*
X5976634Y-9035150D02*
X6005206Y-9035150D01*
X6005206Y-9035150D02*
X6024253Y-9044674D01*
X6024253Y-9044674D02*
X6033777Y-9054198D01*
X6033777Y-9054198D02*
X6043301Y-9073246D01*
X6043301Y-9073246D02*
X6043301Y-9130389D01*
X6043301Y-9130389D02*
X6033777Y-9149436D01*
X6033777Y-9149436D02*
X6024253Y-9158960D01*
X6024253Y-9158960D02*
X6005206Y-9168484D01*
X6005206Y-9168484D02*
X5976634Y-9168484D01*
X6157587Y-9168484D02*
X6138539Y-9158960D01*
X6138539Y-9158960D02*
X6129015Y-9139912D01*
X6129015Y-9139912D02*
X6129015Y-8968484D01*
X6309968Y-9158960D02*
X6290920Y-9168484D01*
X6290920Y-9168484D02*
X6252825Y-9168484D01*
X6252825Y-9168484D02*
X6233777Y-9158960D01*
X6233777Y-9158960D02*
X6224253Y-9139912D01*
X6224253Y-9139912D02*
X6224253Y-9063722D01*
X6224253Y-9063722D02*
X6233777Y-9044674D01*
X6233777Y-9044674D02*
X6252825Y-9035150D01*
X6252825Y-9035150D02*
X6290920Y-9035150D01*
X6290920Y-9035150D02*
X6309968Y-9044674D01*
X6309968Y-9044674D02*
X6319491Y-9063722D01*
X6319491Y-9063722D02*
X6319491Y-9082770D01*
X6319491Y-9082770D02*
X6224253Y-9101817D01*
X6395682Y-9158960D02*
X6414730Y-9168484D01*
X6414730Y-9168484D02*
X6452825Y-9168484D01*
X6452825Y-9168484D02*
X6471872Y-9158960D01*
X6471872Y-9158960D02*
X6481396Y-9139912D01*
X6481396Y-9139912D02*
X6481396Y-9130389D01*
X6481396Y-9130389D02*
X6471872Y-9111341D01*
X6471872Y-9111341D02*
X6452825Y-9101817D01*
X6452825Y-9101817D02*
X6424253Y-9101817D01*
X6424253Y-9101817D02*
X6405206Y-9092293D01*
X6405206Y-9092293D02*
X6395682Y-9073246D01*
X6395682Y-9073246D02*
X6395682Y-9063722D01*
X6395682Y-9063722D02*
X6405206Y-9044674D01*
X6405206Y-9044674D02*
X6424253Y-9035150D01*
X6424253Y-9035150D02*
X6452825Y-9035150D01*
X6452825Y-9035150D02*
X6471872Y-9044674D01*
X6548063Y-9244674D02*
X6557587Y-9235150D01*
X6557587Y-9235150D02*
X6576634Y-9206579D01*
X6576634Y-9206579D02*
X6586158Y-9187531D01*
X6586158Y-9187531D02*
X6595682Y-9158960D01*
X6595682Y-9158960D02*
X6605206Y-9111341D01*
X6605206Y-9111341D02*
X6605206Y-9073246D01*
X6605206Y-9073246D02*
X6595682Y-9025627D01*
X6595682Y-9025627D02*
X6586158Y-8997055D01*
X6586158Y-8997055D02*
X6576634Y-8978008D01*
X6576634Y-8978008D02*
X6557587Y-8949436D01*
X6557587Y-8949436D02*
X6548063Y-8939912D01*
D13*
X1666000Y-9287500D02*
X1773000Y-9394500D01*
X1773000Y-9287500D02*
X1666000Y-9394500D01*
X1719500Y-9287500D02*
X1719500Y-9394500D01*
X1666000Y-9341000D02*
X1773000Y-9341000D01*
D11*
X2138539Y-9432484D02*
X2024253Y-9432484D01*
X2081396Y-9432484D02*
X2081396Y-9232484D01*
X2081396Y-9232484D02*
X2062348Y-9261055D01*
X2062348Y-9261055D02*
X2043301Y-9280103D01*
X2043301Y-9280103D02*
X2024253Y-9289627D01*
X2224253Y-9413436D02*
X2233777Y-9422960D01*
X2233777Y-9422960D02*
X2224253Y-9432484D01*
X2224253Y-9432484D02*
X2214729Y-9422960D01*
X2214729Y-9422960D02*
X2224253Y-9413436D01*
X2224253Y-9413436D02*
X2224253Y-9432484D01*
X2357586Y-9232484D02*
X2376634Y-9232484D01*
X2376634Y-9232484D02*
X2395682Y-9242008D01*
X2395682Y-9242008D02*
X2405205Y-9251531D01*
X2405205Y-9251531D02*
X2414729Y-9270579D01*
X2414729Y-9270579D02*
X2424253Y-9308674D01*
X2424253Y-9308674D02*
X2424253Y-9356293D01*
X2424253Y-9356293D02*
X2414729Y-9394389D01*
X2414729Y-9394389D02*
X2405205Y-9413436D01*
X2405205Y-9413436D02*
X2395682Y-9422960D01*
X2395682Y-9422960D02*
X2376634Y-9432484D01*
X2376634Y-9432484D02*
X2357586Y-9432484D01*
X2357586Y-9432484D02*
X2338539Y-9422960D01*
X2338539Y-9422960D02*
X2329015Y-9413436D01*
X2329015Y-9413436D02*
X2319491Y-9394389D01*
X2319491Y-9394389D02*
X2309967Y-9356293D01*
X2309967Y-9356293D02*
X2309967Y-9308674D01*
X2309967Y-9308674D02*
X2319491Y-9270579D01*
X2319491Y-9270579D02*
X2329015Y-9251531D01*
X2329015Y-9251531D02*
X2338539Y-9242008D01*
X2338539Y-9242008D02*
X2357586Y-9232484D01*
X2490920Y-9232484D02*
X2624253Y-9232484D01*
X2624253Y-9232484D02*
X2538539Y-9432484D01*
X2738539Y-9232484D02*
X2757586Y-9232484D01*
X2757586Y-9232484D02*
X2776634Y-9242008D01*
X2776634Y-9242008D02*
X2786158Y-9251531D01*
X2786158Y-9251531D02*
X2795682Y-9270579D01*
X2795682Y-9270579D02*
X2805205Y-9308674D01*
X2805205Y-9308674D02*
X2805205Y-9356293D01*
X2805205Y-9356293D02*
X2795682Y-9394389D01*
X2795682Y-9394389D02*
X2786158Y-9413436D01*
X2786158Y-9413436D02*
X2776634Y-9422960D01*
X2776634Y-9422960D02*
X2757586Y-9432484D01*
X2757586Y-9432484D02*
X2738539Y-9432484D01*
X2738539Y-9432484D02*
X2719491Y-9422960D01*
X2719491Y-9422960D02*
X2709967Y-9413436D01*
X2709967Y-9413436D02*
X2700444Y-9394389D01*
X2700444Y-9394389D02*
X2690920Y-9356293D01*
X2690920Y-9356293D02*
X2690920Y-9308674D01*
X2690920Y-9308674D02*
X2700444Y-9270579D01*
X2700444Y-9270579D02*
X2709967Y-9251531D01*
X2709967Y-9251531D02*
X2719491Y-9242008D01*
X2719491Y-9242008D02*
X2738539Y-9232484D01*
X2890920Y-9432484D02*
X2890920Y-9299150D01*
X2890920Y-9318198D02*
X2900443Y-9308674D01*
X2900443Y-9308674D02*
X2919491Y-9299150D01*
X2919491Y-9299150D02*
X2948063Y-9299150D01*
X2948063Y-9299150D02*
X2967110Y-9308674D01*
X2967110Y-9308674D02*
X2976634Y-9327722D01*
X2976634Y-9327722D02*
X2976634Y-9432484D01*
X2976634Y-9327722D02*
X2986158Y-9308674D01*
X2986158Y-9308674D02*
X3005205Y-9299150D01*
X3005205Y-9299150D02*
X3033777Y-9299150D01*
X3033777Y-9299150D02*
X3052824Y-9308674D01*
X3052824Y-9308674D02*
X3062348Y-9327722D01*
X3062348Y-9327722D02*
X3062348Y-9432484D01*
X3157586Y-9432484D02*
X3157586Y-9299150D01*
X3157586Y-9318198D02*
X3167110Y-9308674D01*
X3167110Y-9308674D02*
X3186158Y-9299150D01*
X3186158Y-9299150D02*
X3214729Y-9299150D01*
X3214729Y-9299150D02*
X3233777Y-9308674D01*
X3233777Y-9308674D02*
X3243301Y-9327722D01*
X3243301Y-9327722D02*
X3243301Y-9432484D01*
X3243301Y-9327722D02*
X3252824Y-9308674D01*
X3252824Y-9308674D02*
X3271872Y-9299150D01*
X3271872Y-9299150D02*
X3300443Y-9299150D01*
X3300443Y-9299150D02*
X3319491Y-9308674D01*
X3319491Y-9308674D02*
X3329015Y-9327722D01*
X3329015Y-9327722D02*
X3329015Y-9432484D01*
X3719491Y-9222960D02*
X3548063Y-9480103D01*
X3976634Y-9232484D02*
X3995682Y-9232484D01*
X3995682Y-9232484D02*
X4014729Y-9242008D01*
X4014729Y-9242008D02*
X4024253Y-9251531D01*
X4024253Y-9251531D02*
X4033777Y-9270579D01*
X4033777Y-9270579D02*
X4043301Y-9308674D01*
X4043301Y-9308674D02*
X4043301Y-9356293D01*
X4043301Y-9356293D02*
X4033777Y-9394389D01*
X4033777Y-9394389D02*
X4024253Y-9413436D01*
X4024253Y-9413436D02*
X4014729Y-9422960D01*
X4014729Y-9422960D02*
X3995682Y-9432484D01*
X3995682Y-9432484D02*
X3976634Y-9432484D01*
X3976634Y-9432484D02*
X3957586Y-9422960D01*
X3957586Y-9422960D02*
X3948063Y-9413436D01*
X3948063Y-9413436D02*
X3938539Y-9394389D01*
X3938539Y-9394389D02*
X3929015Y-9356293D01*
X3929015Y-9356293D02*
X3929015Y-9308674D01*
X3929015Y-9308674D02*
X3938539Y-9270579D01*
X3938539Y-9270579D02*
X3948063Y-9251531D01*
X3948063Y-9251531D02*
X3957586Y-9242008D01*
X3957586Y-9242008D02*
X3976634Y-9232484D01*
X4129015Y-9413436D02*
X4138539Y-9422960D01*
X4138539Y-9422960D02*
X4129015Y-9432484D01*
X4129015Y-9432484D02*
X4119491Y-9422960D01*
X4119491Y-9422960D02*
X4129015Y-9413436D01*
X4129015Y-9413436D02*
X4129015Y-9432484D01*
X4262348Y-9232484D02*
X4281396Y-9232484D01*
X4281396Y-9232484D02*
X4300444Y-9242008D01*
X4300444Y-9242008D02*
X4309968Y-9251531D01*
X4309968Y-9251531D02*
X4319491Y-9270579D01*
X4319491Y-9270579D02*
X4329015Y-9308674D01*
X4329015Y-9308674D02*
X4329015Y-9356293D01*
X4329015Y-9356293D02*
X4319491Y-9394389D01*
X4319491Y-9394389D02*
X4309968Y-9413436D01*
X4309968Y-9413436D02*
X4300444Y-9422960D01*
X4300444Y-9422960D02*
X4281396Y-9432484D01*
X4281396Y-9432484D02*
X4262348Y-9432484D01*
X4262348Y-9432484D02*
X4243301Y-9422960D01*
X4243301Y-9422960D02*
X4233777Y-9413436D01*
X4233777Y-9413436D02*
X4224253Y-9394389D01*
X4224253Y-9394389D02*
X4214729Y-9356293D01*
X4214729Y-9356293D02*
X4214729Y-9308674D01*
X4214729Y-9308674D02*
X4224253Y-9270579D01*
X4224253Y-9270579D02*
X4233777Y-9251531D01*
X4233777Y-9251531D02*
X4243301Y-9242008D01*
X4243301Y-9242008D02*
X4262348Y-9232484D01*
X4500444Y-9299150D02*
X4500444Y-9432484D01*
X4452825Y-9222960D02*
X4405206Y-9365817D01*
X4405206Y-9365817D02*
X4529015Y-9365817D01*
X4595682Y-9251531D02*
X4605206Y-9242008D01*
X4605206Y-9242008D02*
X4624253Y-9232484D01*
X4624253Y-9232484D02*
X4671872Y-9232484D01*
X4671872Y-9232484D02*
X4690920Y-9242008D01*
X4690920Y-9242008D02*
X4700444Y-9251531D01*
X4700444Y-9251531D02*
X4709968Y-9270579D01*
X4709968Y-9270579D02*
X4709968Y-9289627D01*
X4709968Y-9289627D02*
X4700444Y-9318198D01*
X4700444Y-9318198D02*
X4586158Y-9432484D01*
X4586158Y-9432484D02*
X4709968Y-9432484D01*
X4900444Y-9432484D02*
X4786158Y-9432484D01*
X4843301Y-9432484D02*
X4843301Y-9232484D01*
X4843301Y-9232484D02*
X4824253Y-9261055D01*
X4824253Y-9261055D02*
X4805206Y-9280103D01*
X4805206Y-9280103D02*
X4786158Y-9289627D01*
X4976634Y-9232484D02*
X4976634Y-9270579D01*
X5052825Y-9232484D02*
X5052825Y-9270579D01*
X5348063Y-9508674D02*
X5338539Y-9499150D01*
X5338539Y-9499150D02*
X5319491Y-9470579D01*
X5319491Y-9470579D02*
X5309968Y-9451531D01*
X5309968Y-9451531D02*
X5300444Y-9422960D01*
X5300444Y-9422960D02*
X5290920Y-9375341D01*
X5290920Y-9375341D02*
X5290920Y-9337246D01*
X5290920Y-9337246D02*
X5300444Y-9289627D01*
X5300444Y-9289627D02*
X5309968Y-9261055D01*
X5309968Y-9261055D02*
X5319491Y-9242008D01*
X5319491Y-9242008D02*
X5338539Y-9213436D01*
X5338539Y-9213436D02*
X5348063Y-9203912D01*
X5509968Y-9232484D02*
X5471872Y-9232484D01*
X5471872Y-9232484D02*
X5452825Y-9242008D01*
X5452825Y-9242008D02*
X5443301Y-9251531D01*
X5443301Y-9251531D02*
X5424253Y-9280103D01*
X5424253Y-9280103D02*
X5414730Y-9318198D01*
X5414730Y-9318198D02*
X5414730Y-9394389D01*
X5414730Y-9394389D02*
X5424253Y-9413436D01*
X5424253Y-9413436D02*
X5433777Y-9422960D01*
X5433777Y-9422960D02*
X5452825Y-9432484D01*
X5452825Y-9432484D02*
X5490920Y-9432484D01*
X5490920Y-9432484D02*
X5509968Y-9422960D01*
X5509968Y-9422960D02*
X5519491Y-9413436D01*
X5519491Y-9413436D02*
X5529015Y-9394389D01*
X5529015Y-9394389D02*
X5529015Y-9346770D01*
X5529015Y-9346770D02*
X5519491Y-9327722D01*
X5519491Y-9327722D02*
X5509968Y-9318198D01*
X5509968Y-9318198D02*
X5490920Y-9308674D01*
X5490920Y-9308674D02*
X5452825Y-9308674D01*
X5452825Y-9308674D02*
X5433777Y-9318198D01*
X5433777Y-9318198D02*
X5424253Y-9327722D01*
X5424253Y-9327722D02*
X5414730Y-9346770D01*
X5767110Y-9432484D02*
X5767110Y-9232484D01*
X5852825Y-9432484D02*
X5852825Y-9327722D01*
X5852825Y-9327722D02*
X5843301Y-9308674D01*
X5843301Y-9308674D02*
X5824253Y-9299150D01*
X5824253Y-9299150D02*
X5795682Y-9299150D01*
X5795682Y-9299150D02*
X5776634Y-9308674D01*
X5776634Y-9308674D02*
X5767110Y-9318198D01*
X5976634Y-9432484D02*
X5957587Y-9422960D01*
X5957587Y-9422960D02*
X5948063Y-9413436D01*
X5948063Y-9413436D02*
X5938539Y-9394389D01*
X5938539Y-9394389D02*
X5938539Y-9337246D01*
X5938539Y-9337246D02*
X5948063Y-9318198D01*
X5948063Y-9318198D02*
X5957587Y-9308674D01*
X5957587Y-9308674D02*
X5976634Y-9299150D01*
X5976634Y-9299150D02*
X6005206Y-9299150D01*
X6005206Y-9299150D02*
X6024253Y-9308674D01*
X6024253Y-9308674D02*
X6033777Y-9318198D01*
X6033777Y-9318198D02*
X6043301Y-9337246D01*
X6043301Y-9337246D02*
X6043301Y-9394389D01*
X6043301Y-9394389D02*
X6033777Y-9413436D01*
X6033777Y-9413436D02*
X6024253Y-9422960D01*
X6024253Y-9422960D02*
X6005206Y-9432484D01*
X6005206Y-9432484D02*
X5976634Y-9432484D01*
X6157587Y-9432484D02*
X6138539Y-9422960D01*
X6138539Y-9422960D02*
X6129015Y-9403912D01*
X6129015Y-9403912D02*
X6129015Y-9232484D01*
X6309968Y-9422960D02*
X6290920Y-9432484D01*
X6290920Y-9432484D02*
X6252825Y-9432484D01*
X6252825Y-9432484D02*
X6233777Y-9422960D01*
X6233777Y-9422960D02*
X6224253Y-9403912D01*
X6224253Y-9403912D02*
X6224253Y-9327722D01*
X6224253Y-9327722D02*
X6233777Y-9308674D01*
X6233777Y-9308674D02*
X6252825Y-9299150D01*
X6252825Y-9299150D02*
X6290920Y-9299150D01*
X6290920Y-9299150D02*
X6309968Y-9308674D01*
X6309968Y-9308674D02*
X6319491Y-9327722D01*
X6319491Y-9327722D02*
X6319491Y-9346770D01*
X6319491Y-9346770D02*
X6224253Y-9365817D01*
X6395682Y-9422960D02*
X6414730Y-9432484D01*
X6414730Y-9432484D02*
X6452825Y-9432484D01*
X6452825Y-9432484D02*
X6471872Y-9422960D01*
X6471872Y-9422960D02*
X6481396Y-9403912D01*
X6481396Y-9403912D02*
X6481396Y-9394389D01*
X6481396Y-9394389D02*
X6471872Y-9375341D01*
X6471872Y-9375341D02*
X6452825Y-9365817D01*
X6452825Y-9365817D02*
X6424253Y-9365817D01*
X6424253Y-9365817D02*
X6405206Y-9356293D01*
X6405206Y-9356293D02*
X6395682Y-9337246D01*
X6395682Y-9337246D02*
X6395682Y-9327722D01*
X6395682Y-9327722D02*
X6405206Y-9308674D01*
X6405206Y-9308674D02*
X6424253Y-9299150D01*
X6424253Y-9299150D02*
X6452825Y-9299150D01*
X6452825Y-9299150D02*
X6471872Y-9308674D01*
X6548063Y-9508674D02*
X6557587Y-9499150D01*
X6557587Y-9499150D02*
X6576634Y-9470579D01*
X6576634Y-9470579D02*
X6586158Y-9451531D01*
X6586158Y-9451531D02*
X6595682Y-9422960D01*
X6595682Y-9422960D02*
X6605206Y-9375341D01*
X6605206Y-9375341D02*
X6605206Y-9337246D01*
X6605206Y-9337246D02*
X6595682Y-9289627D01*
X6595682Y-9289627D02*
X6586158Y-9261055D01*
X6586158Y-9261055D02*
X6576634Y-9242008D01*
X6576634Y-9242008D02*
X6557587Y-9213436D01*
X6557587Y-9213436D02*
X6548063Y-9203912D01*
X1573000Y-9505000D02*
X1773000Y-9705000D01*
X1773000Y-9505000D02*
X1573000Y-9705000D01*
X1743711Y-9675711D02*
X1743711Y-9534289D01*
X1602289Y-9534289D01*
X1602289Y-9675711D01*
X1743711Y-9675711D01*
X2014729Y-9496484D02*
X2138539Y-9496484D01*
X2138539Y-9496484D02*
X2071872Y-9572674D01*
X2071872Y-9572674D02*
X2100444Y-9572674D01*
X2100444Y-9572674D02*
X2119491Y-9582198D01*
X2119491Y-9582198D02*
X2129015Y-9591722D01*
X2129015Y-9591722D02*
X2138539Y-9610770D01*
X2138539Y-9610770D02*
X2138539Y-9658389D01*
X2138539Y-9658389D02*
X2129015Y-9677436D01*
X2129015Y-9677436D02*
X2119491Y-9686960D01*
X2119491Y-9686960D02*
X2100444Y-9696484D01*
X2100444Y-9696484D02*
X2043301Y-9696484D01*
X2043301Y-9696484D02*
X2024253Y-9686960D01*
X2024253Y-9686960D02*
X2014729Y-9677436D01*
X2224253Y-9677436D02*
X2233777Y-9686960D01*
X2233777Y-9686960D02*
X2224253Y-9696484D01*
X2224253Y-9696484D02*
X2214729Y-9686960D01*
X2214729Y-9686960D02*
X2224253Y-9677436D01*
X2224253Y-9677436D02*
X2224253Y-9696484D01*
X2309967Y-9515531D02*
X2319491Y-9506008D01*
X2319491Y-9506008D02*
X2338539Y-9496484D01*
X2338539Y-9496484D02*
X2386158Y-9496484D01*
X2386158Y-9496484D02*
X2405205Y-9506008D01*
X2405205Y-9506008D02*
X2414729Y-9515531D01*
X2414729Y-9515531D02*
X2424253Y-9534579D01*
X2424253Y-9534579D02*
X2424253Y-9553627D01*
X2424253Y-9553627D02*
X2414729Y-9582198D01*
X2414729Y-9582198D02*
X2300444Y-9696484D01*
X2300444Y-9696484D02*
X2424253Y-9696484D01*
X2548063Y-9496484D02*
X2567110Y-9496484D01*
X2567110Y-9496484D02*
X2586158Y-9506008D01*
X2586158Y-9506008D02*
X2595682Y-9515531D01*
X2595682Y-9515531D02*
X2605205Y-9534579D01*
X2605205Y-9534579D02*
X2614729Y-9572674D01*
X2614729Y-9572674D02*
X2614729Y-9620293D01*
X2614729Y-9620293D02*
X2605205Y-9658389D01*
X2605205Y-9658389D02*
X2595682Y-9677436D01*
X2595682Y-9677436D02*
X2586158Y-9686960D01*
X2586158Y-9686960D02*
X2567110Y-9696484D01*
X2567110Y-9696484D02*
X2548063Y-9696484D01*
X2548063Y-9696484D02*
X2529015Y-9686960D01*
X2529015Y-9686960D02*
X2519491Y-9677436D01*
X2519491Y-9677436D02*
X2509967Y-9658389D01*
X2509967Y-9658389D02*
X2500444Y-9620293D01*
X2500444Y-9620293D02*
X2500444Y-9572674D01*
X2500444Y-9572674D02*
X2509967Y-9534579D01*
X2509967Y-9534579D02*
X2519491Y-9515531D01*
X2519491Y-9515531D02*
X2529015Y-9506008D01*
X2529015Y-9506008D02*
X2548063Y-9496484D01*
X2738539Y-9496484D02*
X2757586Y-9496484D01*
X2757586Y-9496484D02*
X2776634Y-9506008D01*
X2776634Y-9506008D02*
X2786158Y-9515531D01*
X2786158Y-9515531D02*
X2795682Y-9534579D01*
X2795682Y-9534579D02*
X2805205Y-9572674D01*
X2805205Y-9572674D02*
X2805205Y-9620293D01*
X2805205Y-9620293D02*
X2795682Y-9658389D01*
X2795682Y-9658389D02*
X2786158Y-9677436D01*
X2786158Y-9677436D02*
X2776634Y-9686960D01*
X2776634Y-9686960D02*
X2757586Y-9696484D01*
X2757586Y-9696484D02*
X2738539Y-9696484D01*
X2738539Y-9696484D02*
X2719491Y-9686960D01*
X2719491Y-9686960D02*
X2709967Y-9677436D01*
X2709967Y-9677436D02*
X2700444Y-9658389D01*
X2700444Y-9658389D02*
X2690920Y-9620293D01*
X2690920Y-9620293D02*
X2690920Y-9572674D01*
X2690920Y-9572674D02*
X2700444Y-9534579D01*
X2700444Y-9534579D02*
X2709967Y-9515531D01*
X2709967Y-9515531D02*
X2719491Y-9506008D01*
X2719491Y-9506008D02*
X2738539Y-9496484D01*
X2890920Y-9696484D02*
X2890920Y-9563150D01*
X2890920Y-9582198D02*
X2900443Y-9572674D01*
X2900443Y-9572674D02*
X2919491Y-9563150D01*
X2919491Y-9563150D02*
X2948063Y-9563150D01*
X2948063Y-9563150D02*
X2967110Y-9572674D01*
X2967110Y-9572674D02*
X2976634Y-9591722D01*
X2976634Y-9591722D02*
X2976634Y-9696484D01*
X2976634Y-9591722D02*
X2986158Y-9572674D01*
X2986158Y-9572674D02*
X3005205Y-9563150D01*
X3005205Y-9563150D02*
X3033777Y-9563150D01*
X3033777Y-9563150D02*
X3052824Y-9572674D01*
X3052824Y-9572674D02*
X3062348Y-9591722D01*
X3062348Y-9591722D02*
X3062348Y-9696484D01*
X3157586Y-9696484D02*
X3157586Y-9563150D01*
X3157586Y-9582198D02*
X3167110Y-9572674D01*
X3167110Y-9572674D02*
X3186158Y-9563150D01*
X3186158Y-9563150D02*
X3214729Y-9563150D01*
X3214729Y-9563150D02*
X3233777Y-9572674D01*
X3233777Y-9572674D02*
X3243301Y-9591722D01*
X3243301Y-9591722D02*
X3243301Y-9696484D01*
X3243301Y-9591722D02*
X3252824Y-9572674D01*
X3252824Y-9572674D02*
X3271872Y-9563150D01*
X3271872Y-9563150D02*
X3300443Y-9563150D01*
X3300443Y-9563150D02*
X3319491Y-9572674D01*
X3319491Y-9572674D02*
X3329015Y-9591722D01*
X3329015Y-9591722D02*
X3329015Y-9696484D01*
X3719491Y-9486960D02*
X3548063Y-9744103D01*
X3976634Y-9496484D02*
X3995682Y-9496484D01*
X3995682Y-9496484D02*
X4014729Y-9506008D01*
X4014729Y-9506008D02*
X4024253Y-9515531D01*
X4024253Y-9515531D02*
X4033777Y-9534579D01*
X4033777Y-9534579D02*
X4043301Y-9572674D01*
X4043301Y-9572674D02*
X4043301Y-9620293D01*
X4043301Y-9620293D02*
X4033777Y-9658389D01*
X4033777Y-9658389D02*
X4024253Y-9677436D01*
X4024253Y-9677436D02*
X4014729Y-9686960D01*
X4014729Y-9686960D02*
X3995682Y-9696484D01*
X3995682Y-9696484D02*
X3976634Y-9696484D01*
X3976634Y-9696484D02*
X3957586Y-9686960D01*
X3957586Y-9686960D02*
X3948063Y-9677436D01*
X3948063Y-9677436D02*
X3938539Y-9658389D01*
X3938539Y-9658389D02*
X3929015Y-9620293D01*
X3929015Y-9620293D02*
X3929015Y-9572674D01*
X3929015Y-9572674D02*
X3938539Y-9534579D01*
X3938539Y-9534579D02*
X3948063Y-9515531D01*
X3948063Y-9515531D02*
X3957586Y-9506008D01*
X3957586Y-9506008D02*
X3976634Y-9496484D01*
X4129015Y-9677436D02*
X4138539Y-9686960D01*
X4138539Y-9686960D02*
X4129015Y-9696484D01*
X4129015Y-9696484D02*
X4119491Y-9686960D01*
X4119491Y-9686960D02*
X4129015Y-9677436D01*
X4129015Y-9677436D02*
X4129015Y-9696484D01*
X4329015Y-9696484D02*
X4214729Y-9696484D01*
X4271872Y-9696484D02*
X4271872Y-9496484D01*
X4271872Y-9496484D02*
X4252825Y-9525055D01*
X4252825Y-9525055D02*
X4233777Y-9544103D01*
X4233777Y-9544103D02*
X4214729Y-9553627D01*
X4405206Y-9515531D02*
X4414729Y-9506008D01*
X4414729Y-9506008D02*
X4433777Y-9496484D01*
X4433777Y-9496484D02*
X4481396Y-9496484D01*
X4481396Y-9496484D02*
X4500444Y-9506008D01*
X4500444Y-9506008D02*
X4509968Y-9515531D01*
X4509968Y-9515531D02*
X4519491Y-9534579D01*
X4519491Y-9534579D02*
X4519491Y-9553627D01*
X4519491Y-9553627D02*
X4509968Y-9582198D01*
X4509968Y-9582198D02*
X4395682Y-9696484D01*
X4395682Y-9696484D02*
X4519491Y-9696484D01*
X4690920Y-9496484D02*
X4652825Y-9496484D01*
X4652825Y-9496484D02*
X4633777Y-9506008D01*
X4633777Y-9506008D02*
X4624253Y-9515531D01*
X4624253Y-9515531D02*
X4605206Y-9544103D01*
X4605206Y-9544103D02*
X4595682Y-9582198D01*
X4595682Y-9582198D02*
X4595682Y-9658389D01*
X4595682Y-9658389D02*
X4605206Y-9677436D01*
X4605206Y-9677436D02*
X4614729Y-9686960D01*
X4614729Y-9686960D02*
X4633777Y-9696484D01*
X4633777Y-9696484D02*
X4671872Y-9696484D01*
X4671872Y-9696484D02*
X4690920Y-9686960D01*
X4690920Y-9686960D02*
X4700444Y-9677436D01*
X4700444Y-9677436D02*
X4709968Y-9658389D01*
X4709968Y-9658389D02*
X4709968Y-9610770D01*
X4709968Y-9610770D02*
X4700444Y-9591722D01*
X4700444Y-9591722D02*
X4690920Y-9582198D01*
X4690920Y-9582198D02*
X4671872Y-9572674D01*
X4671872Y-9572674D02*
X4633777Y-9572674D01*
X4633777Y-9572674D02*
X4614729Y-9582198D01*
X4614729Y-9582198D02*
X4605206Y-9591722D01*
X4605206Y-9591722D02*
X4595682Y-9610770D01*
X4833777Y-9496484D02*
X4852825Y-9496484D01*
X4852825Y-9496484D02*
X4871872Y-9506008D01*
X4871872Y-9506008D02*
X4881396Y-9515531D01*
X4881396Y-9515531D02*
X4890920Y-9534579D01*
X4890920Y-9534579D02*
X4900444Y-9572674D01*
X4900444Y-9572674D02*
X4900444Y-9620293D01*
X4900444Y-9620293D02*
X4890920Y-9658389D01*
X4890920Y-9658389D02*
X4881396Y-9677436D01*
X4881396Y-9677436D02*
X4871872Y-9686960D01*
X4871872Y-9686960D02*
X4852825Y-9696484D01*
X4852825Y-9696484D02*
X4833777Y-9696484D01*
X4833777Y-9696484D02*
X4814729Y-9686960D01*
X4814729Y-9686960D02*
X4805206Y-9677436D01*
X4805206Y-9677436D02*
X4795682Y-9658389D01*
X4795682Y-9658389D02*
X4786158Y-9620293D01*
X4786158Y-9620293D02*
X4786158Y-9572674D01*
X4786158Y-9572674D02*
X4795682Y-9534579D01*
X4795682Y-9534579D02*
X4805206Y-9515531D01*
X4805206Y-9515531D02*
X4814729Y-9506008D01*
X4814729Y-9506008D02*
X4833777Y-9496484D01*
X4976634Y-9496484D02*
X4976634Y-9534579D01*
X5052825Y-9496484D02*
X5052825Y-9534579D01*
X5348063Y-9772674D02*
X5338539Y-9763150D01*
X5338539Y-9763150D02*
X5319491Y-9734579D01*
X5319491Y-9734579D02*
X5309968Y-9715531D01*
X5309968Y-9715531D02*
X5300444Y-9686960D01*
X5300444Y-9686960D02*
X5290920Y-9639341D01*
X5290920Y-9639341D02*
X5290920Y-9601246D01*
X5290920Y-9601246D02*
X5300444Y-9553627D01*
X5300444Y-9553627D02*
X5309968Y-9525055D01*
X5309968Y-9525055D02*
X5319491Y-9506008D01*
X5319491Y-9506008D02*
X5338539Y-9477436D01*
X5338539Y-9477436D02*
X5348063Y-9467912D01*
X5509968Y-9563150D02*
X5509968Y-9696484D01*
X5462349Y-9486960D02*
X5414730Y-9629817D01*
X5414730Y-9629817D02*
X5538539Y-9629817D01*
X5767110Y-9696484D02*
X5767110Y-9496484D01*
X5852825Y-9696484D02*
X5852825Y-9591722D01*
X5852825Y-9591722D02*
X5843301Y-9572674D01*
X5843301Y-9572674D02*
X5824253Y-9563150D01*
X5824253Y-9563150D02*
X5795682Y-9563150D01*
X5795682Y-9563150D02*
X5776634Y-9572674D01*
X5776634Y-9572674D02*
X5767110Y-9582198D01*
X5976634Y-9696484D02*
X5957587Y-9686960D01*
X5957587Y-9686960D02*
X5948063Y-9677436D01*
X5948063Y-9677436D02*
X5938539Y-9658389D01*
X5938539Y-9658389D02*
X5938539Y-9601246D01*
X5938539Y-9601246D02*
X5948063Y-9582198D01*
X5948063Y-9582198D02*
X5957587Y-9572674D01*
X5957587Y-9572674D02*
X5976634Y-9563150D01*
X5976634Y-9563150D02*
X6005206Y-9563150D01*
X6005206Y-9563150D02*
X6024253Y-9572674D01*
X6024253Y-9572674D02*
X6033777Y-9582198D01*
X6033777Y-9582198D02*
X6043301Y-9601246D01*
X6043301Y-9601246D02*
X6043301Y-9658389D01*
X6043301Y-9658389D02*
X6033777Y-9677436D01*
X6033777Y-9677436D02*
X6024253Y-9686960D01*
X6024253Y-9686960D02*
X6005206Y-9696484D01*
X6005206Y-9696484D02*
X5976634Y-9696484D01*
X6157587Y-9696484D02*
X6138539Y-9686960D01*
X6138539Y-9686960D02*
X6129015Y-9667912D01*
X6129015Y-9667912D02*
X6129015Y-9496484D01*
X6309968Y-9686960D02*
X6290920Y-9696484D01*
X6290920Y-9696484D02*
X6252825Y-9696484D01*
X6252825Y-9696484D02*
X6233777Y-9686960D01*
X6233777Y-9686960D02*
X6224253Y-9667912D01*
X6224253Y-9667912D02*
X6224253Y-9591722D01*
X6224253Y-9591722D02*
X6233777Y-9572674D01*
X6233777Y-9572674D02*
X6252825Y-9563150D01*
X6252825Y-9563150D02*
X6290920Y-9563150D01*
X6290920Y-9563150D02*
X6309968Y-9572674D01*
X6309968Y-9572674D02*
X6319491Y-9591722D01*
X6319491Y-9591722D02*
X6319491Y-9610770D01*
X6319491Y-9610770D02*
X6224253Y-9629817D01*
X6395682Y-9686960D02*
X6414730Y-9696484D01*
X6414730Y-9696484D02*
X6452825Y-9696484D01*
X6452825Y-9696484D02*
X6471872Y-9686960D01*
X6471872Y-9686960D02*
X6481396Y-9667912D01*
X6481396Y-9667912D02*
X6481396Y-9658389D01*
X6481396Y-9658389D02*
X6471872Y-9639341D01*
X6471872Y-9639341D02*
X6452825Y-9629817D01*
X6452825Y-9629817D02*
X6424253Y-9629817D01*
X6424253Y-9629817D02*
X6405206Y-9620293D01*
X6405206Y-9620293D02*
X6395682Y-9601246D01*
X6395682Y-9601246D02*
X6395682Y-9591722D01*
X6395682Y-9591722D02*
X6405206Y-9572674D01*
X6405206Y-9572674D02*
X6424253Y-9563150D01*
X6424253Y-9563150D02*
X6452825Y-9563150D01*
X6452825Y-9563150D02*
X6471872Y-9572674D01*
X6548063Y-9772674D02*
X6557587Y-9763150D01*
X6557587Y-9763150D02*
X6576634Y-9734579D01*
X6576634Y-9734579D02*
X6586158Y-9715531D01*
X6586158Y-9715531D02*
X6595682Y-9686960D01*
X6595682Y-9686960D02*
X6605206Y-9639341D01*
X6605206Y-9639341D02*
X6605206Y-9601246D01*
X6605206Y-9601246D02*
X6595682Y-9553627D01*
X6595682Y-9553627D02*
X6586158Y-9525055D01*
X6586158Y-9525055D02*
X6576634Y-9506008D01*
X6576634Y-9506008D02*
X6557587Y-9477436D01*
X6557587Y-9477436D02*
X6548063Y-9467912D01*
M02*
