%TF.GenerationSoftware,KiCad,Pcbnew,8.0.2*%
%TF.CreationDate,2024-06-16T16:42:44+02:00*%
%TF.ProjectId,bspdv3,62737064-7633-42e6-9b69-6361645f7063,rev?*%
%TF.SameCoordinates,Original*%
%TF.FileFunction,Soldermask,Bot*%
%TF.FilePolarity,Negative*%
%FSLAX46Y46*%
G04 Gerber Fmt 4.6, Leading zero omitted, Abs format (unit mm)*
G04 Created by KiCad (PCBNEW 8.0.2) date 2024-06-16 16:42:44*
%MOMM*%
%LPD*%
G01*
G04 APERTURE LIST*
%ADD10C,5.600000*%
%ADD11R,1.600000X1.600000*%
%ADD12C,1.600000*%
%ADD13C,1.447000*%
%ADD14C,1.440000*%
%ADD15R,1.217000X1.217000*%
%ADD16C,1.217000*%
%ADD17R,1.530000X1.530000*%
%ADD18C,1.530000*%
%ADD19R,1.610000X1.610000*%
%ADD20C,1.610000*%
G04 APERTURE END LIST*
D10*
%TO.C,M4*%
X88900000Y-66040000D03*
%TD*%
%TO.C,M3*%
X22860000Y-66040000D03*
%TD*%
D11*
%TO.C,C1*%
X58420000Y-37084000D03*
D12*
X56420000Y-37084000D03*
%TD*%
D13*
%TO.C,LED2*%
X40640000Y-20320000D03*
X43180000Y-20320000D03*
%TD*%
D14*
%TO.C,U2*%
X62484000Y-27024000D03*
X59944000Y-27024000D03*
X57404000Y-27024000D03*
%TD*%
D15*
%TO.C,RV2*%
X22860000Y-33020000D03*
D16*
X20320000Y-30480000D03*
X22860000Y-27940000D03*
%TD*%
D11*
%TO.C,C5*%
X63024000Y-36576000D03*
D12*
X65024000Y-36576000D03*
%TD*%
D13*
%TO.C,LED1*%
X50800000Y-20320000D03*
X53340000Y-20320000D03*
%TD*%
D10*
%TO.C,M1*%
X22860000Y-20320000D03*
%TD*%
D17*
%TO.C,J4*%
X87376000Y-27432000D03*
D18*
X87376000Y-29972000D03*
%TD*%
D19*
%TO.C,J2*%
X77724000Y-20828000D03*
D20*
X80264000Y-20828000D03*
X82804000Y-20828000D03*
%TD*%
D10*
%TO.C,M2*%
X88900000Y-20320000D03*
%TD*%
D13*
%TO.C,LED3*%
X30480000Y-20320000D03*
X33020000Y-20320000D03*
%TD*%
D11*
%TO.C,C4*%
X79724000Y-28956000D03*
D12*
X77724000Y-28956000D03*
%TD*%
D19*
%TO.C,J1*%
X68317000Y-20753000D03*
D20*
X70857000Y-20753000D03*
X73397000Y-20753000D03*
%TD*%
D15*
%TO.C,RV1*%
X22860000Y-45720000D03*
D16*
X20320000Y-43180000D03*
X22860000Y-40640000D03*
%TD*%
D17*
%TO.C,J3*%
X87376000Y-33528000D03*
D18*
X87376000Y-36068000D03*
%TD*%
D13*
%TO.C,LED4*%
X60960000Y-20320000D03*
X63500000Y-20320000D03*
%TD*%
M02*
