  0
SECTION
  2
HEADER
  9
$ACADVER
  1
AC1014
  9
$HANDSEED
  5
FFFF
  9
$INSUNITS
 70
     4
  9
$MEASUREMENT
 70
     1
  0
ENDSEC
  0
SECTION
  2
TABLES
  0
TABLE
  2
VPORT
  5
8
330
0
100
AcDbSymbolTable
 70
     4
  0
VPORT
  5
2E
330
8
100
AcDbSymbolTableRecord
100
AcDbViewportTableRecord
  2
*ACTIVE
 70
     0
 10
0.0
 20
0.0
 11
1.0
 21
1.0
 12
210.0
 22
148.5
 13
0.0
 23
0.0
 14
10.0
 24
10.0
 15
10.0
 25
10.0
 16
0.0
 26
0.0
 36
1.0
 17
0.0
 27
0.0
 37
0.0
 40
341.0
 41
1.24
 42
50.0
 43
0.0
 44
0.0
 50
0.0
 51
0.0
 71
     0
 72
   100
 73
     1
 74
     3
 75
     0
 76
     0
 77
     0
 78
     0
  0
ENDTAB
  0
TABLE
  2
LTYPE
  5
5
330
0
100
AcDbSymbolTable
 70
     1
  0
LTYPE
  5
14
330
5
100
AcDbSymbolTableRecord
100
AcDbLinetypeTableRecord
  2
BYBLOCK
 70
     0
  3

 72
    65
 73
     0
 40
0.0
  0
LTYPE
  5
15
330
5
100
AcDbSymbolTableRecord
100
AcDbLinetypeTableRecord
  2
BYLAYER
 70
     0
  3

 72
    65
 73
     0
 40
0.0
  0
LTYPE
  5
16
330
5
100
AcDbSymbolTableRecord
100
AcDbLinetypeTableRecord
  2
CONTINUOUS
 70
     0
  3
Solid line
 72
    65
 73
     0
 40
0.0
  0
ENDTAB
  0
TABLE
  2
LAYER
  5
2
100
AcDbSymbolTable
 70
2
  0
LAYER
  5
50
100
AcDbSymbolTableRecord
100
AcDbLayerTableRecord
  2
0
 70
0
  6
CONTINUOUS
  0
LAYER
  5
51
100
AcDbSymbolTableRecord
100
AcDbLayerTableRecord
  2
Calque_1
 70
0
  6
CONTINUOUS
  0
ENDTAB
  0
TABLE
  2
STYLE
  5
3
330
0
100
AcDbSymbolTable
 70
     1
  0
STYLE
  5
11
330
3
100
AcDbSymbolTableRecord
100
AcDbTextStyleTableRecord
  2
STANDARD
 70
     0
 40
0.0
 41
1.0
 50
0.0
 71
     0
 42
2.5
  3
txt
  4

  0
ENDTAB
  0
TABLE
  2
VIEW
  5
6
330
0
100
AcDbSymbolTable
 70
     0
  0
ENDTAB
  0
TABLE
  2
UCS
  5
7
330
0
100
AcDbSymbolTable
 70
     0
  0
ENDTAB
  0
TABLE
  2
APPID
  5
9
330
0
100
AcDbSymbolTable
 70
     2
  0
APPID
  5
12
330
9
100
AcDbSymbolTableRecord
100
AcDbRegAppTableRecord
  2
ACAD
 70
     0
  0
ENDTAB
  0
TABLE
  2
DIMSTYLE
  5
A
330
0
100
AcDbSymbolTable
 70
     1
  0
DIMSTYLE
105
27
330
A
100
AcDbSymbolTableRecord
100
AcDbDimStyleTableRecord
  2
ISO-25
 70
     0
  3

  4

  5

  6

  7

 40
1.0
 41
2.5
 42
0.625
 43
3.75
 44
1.25
 45
0.0
 46
0.0
 47
0.0
 48
0.0
140
2.5
141
2.5
142
0.0
143
0.03937007874016
144
1.0
145
0.0
146
1.0
147
0.625
 71
     0
 72
     0
 73
     0
 74
     0
 75
     0
 76
     0
 77
     1
 78
     8
170
     0
171
     3
172
     1
173
     0
174
     0
175
     0
176
     0
177
     0
178
     0
270
     2
271
     2
272
     2
273
     2
274
     3
340
11
275
     0
280
     0
281
     0
282
     0
283
     0
284
     8
285
     0
286
     0
287
     3
288
     0
  0
ENDTAB
  0
TABLE
  2
BLOCK_RECORD
  5
1
330
0
100
AcDbSymbolTable
 70
     1
  0
BLOCK_RECORD
  5
1F
330
1
100
AcDbSymbolTableRecord
100
AcDbBlockTableRecord
  2
*MODEL_SPACE
  0
BLOCK_RECORD
  5
1B
330
1
100
AcDbSymbolTableRecord
100
AcDbBlockTableRecord
  2
*PAPER_SPACE
  0
ENDTAB
  0
ENDSEC
  0
SECTION
  2
BLOCKS
  0
BLOCK
  5
20
330
1F
100
AcDbEntity
  8
0
100
AcDbBlockBegin
  2
*MODEL_SPACE
 70
     0
 10
0.0
 20
0.0
 30
0.0
  3
*MODEL_SPACE
  1

  0
ENDBLK
  5
21
330
1F
100
AcDbEntity
  8
0
100
AcDbBlockEnd
  0
BLOCK
  5
1C
330
1B
100
AcDbEntity
 67
     1
  8
0
100
AcDbBlockBegin
  2
*PAPER_SPACE
  1

  0
ENDBLK
  5
1D
330
1B
100
AcDbEntity
 67
     1
  8
0
100
AcDbBlockEnd
  0
ENDSEC
  0
SECTION
  2
ENTITIES
  0
LWPOLYLINE
  5
100
100
AcDbEntity
  8
Calque_1
 62
7
100
AcDbPolyline
 90
2
 70
0
 10
48.431002
 20
249.894438
 30
0.0
 10
48.431002
 20
248.894314
 30
0.0
  0
LWPOLYLINE
  5
101
100
AcDbEntity
  8
Calque_1
 62
7
100
AcDbPolyline
 90
2
 70
0
 10
48.431002
 20
168.894469
 30
0.0
 10
48.431002
 20
167.894345
 30
0.0
  0
LWPOLYLINE
  5
102
100
AcDbEntity
  8
Calque_1
 62
7
100
AcDbPolyline
 90
6
 70
0
 10
121.431040
 20
248.894314
 30
0.0
 10
121.431040
 20
221.894413
 30
0.0
 10
121.431040
 20
219.894430
 30
0.0
 10
121.431040
 20
197.894353
 30
0.0
 10
121.431040
 20
195.894370
 30
0.0
 10
121.431040
 20
168.894469
 30
0.0
  0
SPLINE
  5
103
100
AcDbEntity
  8
Calque_1
 62
7
100
AcDbSpline
 70
8
 71
3
 72
8
 73
4
 74
0
 40
0
 40
0
 40
0
 40
0
 40
1
 40
1
 40
1
 40
1
 10
70.440387
 20
222.883598
 30
0.0
 10
69.889319
 20
222.883160
 30
0.0
 10
69.442746
 20
222.216636
 30
0.0
 10
69.442746
 20
221.394589
 30
0.0
  0
SPLINE
  5
104
100
AcDbEntity
  8
Calque_1
 62
7
100
AcDbSpline
 70
8
 71
3
 72
8
 73
4
 74
0
 40
0
 40
0
 40
0
 40
0
 40
1
 40
1
 40
1
 40
1
 10
69.442746
 20
221.394589
 30
0.0
 10
69.442746
 20
220.572541
 30
0.0
 10
69.889319
 20
219.906018
 30
0.0
 10
70.440387
 20
219.905579
 30
0.0
  0
LWPOLYLINE
  5
105
100
AcDbEntity
  8
Calque_1
 62
7
100
AcDbPolyline
 90
2
 70
0
 10
48.431002
 20
248.894314
 30
0.0
 10
48.431002
 20
168.894469
 30
0.0
  0
LWPOLYLINE
  5
106
100
AcDbEntity
  8
Calque_1
 62
7
100
AcDbPolyline
 90
2
 70
0
 10
70.440450
 20
222.883662
 30
0.0
 10
80.422103
 20
222.883662
 30
0.0
  0
SPLINE
  5
107
100
AcDbEntity
  8
Calque_1
 62
7
100
AcDbSpline
 70
8
 71
3
 72
8
 73
4
 74
0
 40
0
 40
0
 40
0
 40
0
 40
1
 40
1
 40
1
 40
1
 10
80.422111
 20
219.905579
 30
0.0
 10
80.778851
 20
219.905295
 30
0.0
 10
81.108573
 20
220.189037
 30
0.0
 10
81.286998
 20
220.649855
 30
0.0
  0
SPLINE
  5
108
100
AcDbEntity
  8
Calque_1
 62
7
100
AcDbSpline
 70
8
 71
3
 72
8
 73
4
 74
0
 40
0
 40
0
 40
0
 40
0
 40
1
 40
1
 40
1
 40
1
 10
81.286998
 20
220.649855
 30
0.0
 10
81.465423
 20
221.110672
 30
0.0
 10
81.465423
 20
221.678505
 30
0.0
 10
81.286998
 20
222.139323
 30
0.0
  0
SPLINE
  5
109
100
AcDbEntity
  8
Calque_1
 62
7
100
AcDbSpline
 70
8
 71
3
 72
8
 73
4
 74
0
 40
0
 40
0
 40
0
 40
0
 40
1
 40
1
 40
1
 40
1
 10
81.286998
 20
222.139323
 30
0.0
 10
81.108573
 20
222.600141
 30
0.0
 10
80.778851
 20
222.883882
 30
0.0
 10
80.422111
 20
222.883598
 30
0.0
  0
SPLINE
  5
10a
100
AcDbEntity
  8
Calque_1
 62
7
100
AcDbSpline
 70
8
 71
3
 72
8
 73
4
 74
0
 40
0
 40
0
 40
0
 40
0
 40
1
 40
1
 40
1
 40
1
 10
102.919651
 20
241.885214
 30
0.0
 10
102.919651
 20
242.241827
 30
0.0
 10
102.635855
 20
242.571351
 30
0.0
 10
102.175166
 20
242.749658
 30
0.0
  0
SPLINE
  5
10b
100
AcDbEntity
  8
Calque_1
 62
7
100
AcDbSpline
 70
8
 71
3
 72
8
 73
4
 74
0
 40
0
 40
0
 40
0
 40
0
 40
1
 40
1
 40
1
 40
1
 10
102.175166
 20
242.749658
 30
0.0
 10
101.714477
 20
242.927964
 30
0.0
 10
101.146884
 20
242.927964
 30
0.0
 10
100.686195
 20
242.749658
 30
0.0
  0
SPLINE
  5
10c
100
AcDbEntity
  8
Calque_1
 62
7
100
AcDbSpline
 70
8
 71
3
 72
8
 73
4
 74
0
 40
0
 40
0
 40
0
 40
0
 40
1
 40
1
 40
1
 40
1
 10
100.686195
 20
242.749658
 30
0.0
 10
100.225505
 20
242.571351
 30
0.0
 10
99.941709
 20
242.241827
 30
0.0
 10
99.941709
 20
241.885214
 30
0.0
  0
LWPOLYLINE
  5
10d
100
AcDbEntity
  8
Calque_1
 62
7
100
AcDbPolyline
 90
2
 70
0
 10
80.422103
 20
219.905667
 30
0.0
 10
70.440450
 20
219.905667
 30
0.0
  0
LWPOLYLINE
  5
10e
100
AcDbEntity
  8
Calque_1
 62
7
100
AcDbPolyline
 90
2
 70
0
 10
102.919792
 20
241.885111
 30
0.0
 10
102.919792
 20
231.903458
 30
0.0
  0
SPLINE
  5
10f
100
AcDbEntity
  8
Calque_1
 62
7
100
AcDbSpline
 70
8
 71
3
 72
8
 73
4
 74
0
 40
0
 40
0
 40
0
 40
0
 40
1
 40
1
 40
1
 40
1
 10
99.941709
 20
231.903487
 30
0.0
 10
99.941710
 20
231.546874
 30
0.0
 10
100.225507
 20
231.217350
 30
0.0
 10
100.686196
 20
231.039044
 30
0.0
  0
SPLINE
  5
110
100
AcDbEntity
  8
Calque_1
 62
7
100
AcDbSpline
 70
8
 71
3
 72
8
 73
4
 74
0
 40
0
 40
0
 40
0
 40
0
 40
1
 40
1
 40
1
 40
1
 10
100.686196
 20
231.039044
 30
0.0
 10
101.146886
 20
230.860738
 30
0.0
 10
101.714479
 20
230.860738
 30
0.0
 10
102.175168
 20
231.039045
 30
0.0
  0
SPLINE
  5
111
100
AcDbEntity
  8
Calque_1
 62
7
100
AcDbSpline
 70
8
 71
3
 72
8
 73
4
 74
0
 40
0
 40
0
 40
0
 40
0
 40
1
 40
1
 40
1
 40
1
 10
102.175168
 20
231.039045
 30
0.0
 10
102.635856
 20
231.217352
 30
0.0
 10
102.919652
 20
231.546877
 30
0.0
 10
102.919651
 20
231.903490
 30
0.0
  0
SPLINE
  5
112
100
AcDbEntity
  8
Calque_1
 62
7
100
AcDbSpline
 70
8
 71
3
 72
8
 73
4
 74
0
 40
0
 40
0
 40
0
 40
0
 40
1
 40
1
 40
1
 40
1
 10
70.440146
 20
198.883693
 30
0.0
 10
70.083533
 20
198.883693
 30
0.0
 10
69.754009
 20
198.599887
 30
0.0
 10
69.575703
 20
198.139184
 30
0.0
  0
SPLINE
  5
113
100
AcDbEntity
  8
Calque_1
 62
7
100
AcDbSpline
 70
8
 71
3
 72
8
 73
4
 74
0
 40
0
 40
0
 40
0
 40
0
 40
1
 40
1
 40
1
 40
1
 10
69.575703
 20
198.139184
 30
0.0
 10
69.397396
 20
197.678480
 30
0.0
 10
69.397396
 20
197.110870
 30
0.0
 10
69.575703
 20
196.650166
 30
0.0
  0
SPLINE
  5
114
100
AcDbEntity
  8
Calque_1
 62
7
100
AcDbSpline
 70
8
 71
3
 72
8
 73
4
 74
0
 40
0
 40
0
 40
0
 40
0
 40
1
 40
1
 40
1
 40
1
 10
69.575703
 20
196.650166
 30
0.0
 10
69.754009
 20
196.189463
 30
0.0
 10
70.083533
 20
195.905657
 30
0.0
 10
70.440146
 20
195.905657
 30
0.0
  0
LWPOLYLINE
  5
115
100
AcDbEntity
  8
Calque_1
 62
7
100
AcDbPolyline
 90
2
 70
0
 10
99.941873
 20
231.903458
 30
0.0
 10
99.941873
 20
241.885111
 30
0.0
  0
LWPOLYLINE
  5
116
100
AcDbEntity
  8
Calque_1
 62
7
100
AcDbPolyline
 90
2
 70
0
 10
70.440210
 20
198.883621
 30
0.0
 10
80.421863
 20
198.883621
 30
0.0
  0
SPLINE
  5
117
100
AcDbEntity
  8
Calque_1
 62
7
100
AcDbSpline
 70
8
 71
3
 72
8
 73
4
 74
0
 40
0
 40
0
 40
0
 40
0
 40
1
 40
1
 40
1
 40
1
 10
80.421871
 20
195.905657
 30
0.0
 10
80.778484
 20
195.905657
 30
0.0
 10
81.108007
 20
196.189463
 30
0.0
 10
81.286314
 20
196.650166
 30
0.0
  0
SPLINE
  5
118
100
AcDbEntity
  8
Calque_1
 62
7
100
AcDbSpline
 70
8
 71
3
 72
8
 73
4
 74
0
 40
0
 40
0
 40
0
 40
0
 40
1
 40
1
 40
1
 40
1
 10
81.286314
 20
196.650166
 30
0.0
 10
81.464620
 20
197.110870
 30
0.0
 10
81.464620
 20
197.678480
 30
0.0
 10
81.286314
 20
198.139184
 30
0.0
  0
SPLINE
  5
119
100
AcDbEntity
  8
Calque_1
 62
7
100
AcDbSpline
 70
8
 71
3
 72
8
 73
4
 74
0
 40
0
 40
0
 40
0
 40
0
 40
1
 40
1
 40
1
 40
1
 10
81.286314
 20
198.139184
 30
0.0
 10
81.108007
 20
198.599887
 30
0.0
 10
80.778484
 20
198.883693
 30
0.0
 10
80.421871
 20
198.883693
 30
0.0
  0
SPLINE
  5
11a
100
AcDbEntity
  8
Calque_1
 62
7
100
AcDbSpline
 70
8
 71
3
 72
8
 73
4
 74
0
 40
0
 40
0
 40
0
 40
0
 40
1
 40
1
 40
1
 40
1
 10
102.919651
 20
185.885285
 30
0.0
 10
102.919651
 20
186.241898
 30
0.0
 10
102.635855
 20
186.571422
 30
0.0
 10
102.175166
 20
186.749729
 30
0.0
  0
SPLINE
  5
11b
100
AcDbEntity
  8
Calque_1
 62
7
100
AcDbSpline
 70
8
 71
3
 72
8
 73
4
 74
0
 40
0
 40
0
 40
0
 40
0
 40
1
 40
1
 40
1
 40
1
 10
102.175166
 20
186.749729
 30
0.0
 10
101.714477
 20
186.928035
 30
0.0
 10
101.146884
 20
186.928035
 30
0.0
 10
100.686195
 20
186.749729
 30
0.0
  0
SPLINE
  5
11c
100
AcDbEntity
  8
Calque_1
 62
7
100
AcDbSpline
 70
8
 71
3
 72
8
 73
4
 74
0
 40
0
 40
0
 40
0
 40
0
 40
1
 40
1
 40
1
 40
1
 10
100.686195
 20
186.749729
 30
0.0
 10
100.225505
 20
186.571422
 30
0.0
 10
99.941709
 20
186.241898
 30
0.0
 10
99.941709
 20
185.885285
 30
0.0
  0
LWPOLYLINE
  5
11d
100
AcDbEntity
  8
Calque_1
 62
7
100
AcDbPolyline
 90
2
 70
0
 10
80.421863
 20
195.905610
 30
0.0
 10
70.440210
 20
195.905610
 30
0.0
  0
LWPOLYLINE
  5
11e
100
AcDbEntity
  8
Calque_1
 62
7
100
AcDbPolyline
 90
2
 70
0
 10
102.919792
 20
185.885325
 30
0.0
 10
102.919792
 20
175.903672
 30
0.0
  0
SPLINE
  5
11f
100
AcDbEntity
  8
Calque_1
 62
7
100
AcDbSpline
 70
8
 71
3
 72
8
 73
4
 74
0
 40
0
 40
0
 40
0
 40
0
 40
1
 40
1
 40
1
 40
1
 10
99.941709
 20
175.903558
 30
0.0
 10
99.941709
 20
175.546945
 30
0.0
 10
100.225505
 20
175.217421
 30
0.0
 10
100.686195
 20
175.039115
 30
0.0
  0
SPLINE
  5
120
100
AcDbEntity
  8
Calque_1
 62
7
100
AcDbSpline
 70
8
 71
3
 72
8
 73
4
 74
0
 40
0
 40
0
 40
0
 40
0
 40
1
 40
1
 40
1
 40
1
 10
100.686195
 20
175.039115
 30
0.0
 10
101.146884
 20
174.860808
 30
0.0
 10
101.714477
 20
174.860808
 30
0.0
 10
102.175166
 20
175.039115
 30
0.0
  0
SPLINE
  5
121
100
AcDbEntity
  8
Calque_1
 62
7
100
AcDbSpline
 70
8
 71
3
 72
8
 73
4
 74
0
 40
0
 40
0
 40
0
 40
0
 40
1
 40
1
 40
1
 40
1
 10
102.175166
 20
175.039115
 30
0.0
 10
102.635855
 20
175.217421
 30
0.0
 10
102.919651
 20
175.546945
 30
0.0
 10
102.919651
 20
175.903558
 30
0.0
  0
LWPOLYLINE
  5
122
100
AcDbEntity
  8
Calque_1
 62
7
100
AcDbPolyline
 90
2
 70
0
 10
99.941873
 20
175.903672
 30
0.0
 10
99.941873
 20
185.885325
 30
0.0
  0
LWPOLYLINE
  5
123
100
AcDbEntity
  8
Calque_1
 62
7
100
AcDbPolyline
 90
2
 70
0
 10
98.431104
 20
251.894421
 30
0.0
 10
103.430929
 20
251.894421
 30
0.0
  0
LWPOLYLINE
  5
124
100
AcDbEntity
  8
Calque_1
 62
7
100
AcDbPolyline
 90
2
 70
0
 10
63.431006
 20
251.894421
 30
0.0
 10
68.431096
 20
251.894421
 30
0.0
  0
LWPOLYLINE
  5
125
100
AcDbEntity
  8
Calque_1
 62
7
100
AcDbPolyline
 90
2
 70
0
 10
68.431096
 20
165.894362
 30
0.0
 10
63.431006
 20
165.894362
 30
0.0
  0
LWPOLYLINE
  5
126
100
AcDbEntity
  8
Calque_1
 62
7
100
AcDbPolyline
 90
2
 70
0
 10
103.430929
 20
165.894362
 30
0.0
 10
98.431104
 20
165.894362
 30
0.0
  0
LWPOLYLINE
  5
127
100
AcDbEntity
  8
Calque_1
 62
7
100
AcDbPolyline
 90
2
 70
0
 10
121.431040
 20
168.894469
 30
0.0
 10
121.431040
 20
167.894345
 30
0.0
  0
LWPOLYLINE
  5
128
100
AcDbEntity
  8
Calque_1
 62
7
100
AcDbPolyline
 90
2
 70
0
 10
121.431040
 20
249.894438
 30
0.0
 10
121.431040
 20
248.894314
 30
0.0
  0
SPLINE
  5
129
100
AcDbEntity
  8
Calque_1
 62
7
100
AcDbSpline
 70
8
 71
3
 72
8
 73
4
 74
0
 40
0
 40
0
 40
0
 40
0
 40
1
 40
1
 40
1
 40
1
 10
69.431016
 20
167.894438
 30
0.0
 10
69.165800
 20
167.894438
 30
0.0
 10
68.911446
 20
167.789081
 30
0.0
 10
68.723910
 20
167.601545
 30
0.0
  0
SPLINE
  5
12a
100
AcDbEntity
  8
Calque_1
 62
7
100
AcDbSpline
 70
8
 71
3
 72
8
 73
4
 74
0
 40
0
 40
0
 40
0
 40
0
 40
1
 40
1
 40
1
 40
1
 10
68.723910
 20
167.601545
 30
0.0
 10
68.536373
 20
167.414009
 30
0.0
 10
68.431017
 20
167.159655
 30
0.0
 10
68.431017
 20
166.894438
 30
0.0
  0
LWPOLYLINE
  5
12b
100
AcDbEntity
  8
Calque_1
 62
7
100
AcDbPolyline
 90
2
 70
0
 10
68.431096
 20
166.894486
 30
0.0
 10
68.431096
 20
165.894362
 30
0.0
  0
LWPOLYLINE
  5
12c
100
AcDbEntity
  8
Calque_1
 62
7
100
AcDbPolyline
 90
2
 70
0
 10
103.430929
 20
166.894486
 30
0.0
 10
103.430929
 20
165.894362
 30
0.0
  0
SPLINE
  5
12d
100
AcDbEntity
  8
Calque_1
 62
7
100
AcDbSpline
 70
8
 71
3
 72
8
 73
4
 74
0
 40
0
 40
0
 40
0
 40
0
 40
1
 40
1
 40
1
 40
1
 10
104.430971
 20
167.894438
 30
0.0
 10
103.878687
 20
167.894437
 30
0.0
 10
103.430974
 20
167.446722
 30
0.0
 10
103.430974
 20
166.894438
 30
0.0
  0
LWPOLYLINE
  5
12e
100
AcDbEntity
  8
Calque_1
 62
7
100
AcDbPolyline
 90
2
 70
0
 10
121.431040
 20
167.894345
 30
0.0
 10
104.431053
 20
167.894345
 30
0.0
  0
LWPOLYLINE
  5
12f
100
AcDbEntity
  8
Calque_1
 62
7
100
AcDbPolyline
 90
2
 70
0
 10
63.431006
 20
165.894362
 30
0.0
 10
63.431006
 20
166.894486
 30
0.0
  0
SPLINE
  5
130
100
AcDbEntity
  8
Calque_1
 62
7
100
AcDbSpline
 70
8
 71
3
 72
8
 73
4
 74
0
 40
0
 40
0
 40
0
 40
0
 40
1
 40
1
 40
1
 40
1
 10
63.431022
 20
166.894438
 30
0.0
 10
63.431023
 20
167.446722
 30
0.0
 10
62.983309
 20
167.894437
 30
0.0
 10
62.431026
 20
167.894438
 30
0.0
  0
LWPOLYLINE
  5
131
100
AcDbEntity
  8
Calque_1
 62
7
100
AcDbPolyline
 90
2
 70
0
 10
62.431147
 20
167.894345
 30
0.0
 10
48.431002
 20
167.894345
 30
0.0
  0
LWPOLYLINE
  5
132
100
AcDbEntity
  8
Calque_1
 62
7
100
AcDbPolyline
 90
2
 70
0
 10
98.431104
 20
165.894362
 30
0.0
 10
98.431104
 20
166.894486
 30
0.0
  0
SPLINE
  5
133
100
AcDbEntity
  8
Calque_1
 62
7
100
AcDbSpline
 70
8
 71
3
 72
8
 73
4
 74
0
 40
0
 40
0
 40
0
 40
0
 40
1
 40
1
 40
1
 40
1
 10
98.430980
 20
166.894438
 30
0.0
 10
98.430980
 20
167.159655
 30
0.0
 10
98.325623
 20
167.414009
 30
0.0
 10
98.138087
 20
167.601545
 30
0.0
  0
SPLINE
  5
134
100
AcDbEntity
  8
Calque_1
 62
7
100
AcDbSpline
 70
8
 71
3
 72
8
 73
4
 74
0
 40
0
 40
0
 40
0
 40
0
 40
1
 40
1
 40
1
 40
1
 10
98.138087
 20
167.601545
 30
0.0
 10
97.950551
 20
167.789081
 30
0.0
 10
97.696197
 20
167.894438
 30
0.0
 10
97.430980
 20
167.894438
 30
0.0
  0
LWPOLYLINE
  5
135
100
AcDbEntity
  8
Calque_1
 62
7
100
AcDbPolyline
 90
2
 70
0
 10
97.430980
 20
167.894345
 30
0.0
 10
69.430955
 20
167.894345
 30
0.0
  0
SPLINE
  5
136
100
AcDbEntity
  8
Calque_1
 62
7
100
AcDbSpline
 70
8
 71
3
 72
8
 73
4
 74
0
 40
0
 40
0
 40
0
 40
0
 40
1
 40
1
 40
1
 40
1
 10
97.430980
 20
249.894335
 30
0.0
 10
97.696197
 20
249.894334
 30
0.0
 10
97.950551
 20
249.999691
 30
0.0
 10
98.138087
 20
250.187227
 30
0.0
  0
SPLINE
  5
137
100
AcDbEntity
  8
Calque_1
 62
7
100
AcDbSpline
 70
8
 71
3
 72
8
 73
4
 74
0
 40
0
 40
0
 40
0
 40
0
 40
1
 40
1
 40
1
 40
1
 10
98.138087
 20
250.187227
 30
0.0
 10
98.325623
 20
250.374764
 30
0.0
 10
98.430980
 20
250.629118
 30
0.0
 10
98.430980
 20
250.894334
 30
0.0
  0
LWPOLYLINE
  5
138
100
AcDbEntity
  8
Calque_1
 62
7
100
AcDbPolyline
 90
2
 70
0
 10
98.431104
 20
250.894297
 30
0.0
 10
98.431104
 20
251.894421
 30
0.0
  0
LWPOLYLINE
  5
139
100
AcDbEntity
  8
Calque_1
 62
7
100
AcDbPolyline
 90
2
 70
0
 10
63.431006
 20
250.894297
 30
0.0
 10
63.431006
 20
251.894421
 30
0.0
  0
SPLINE
  5
13a
100
AcDbEntity
  8
Calque_1
 62
7
100
AcDbSpline
 70
8
 71
3
 72
8
 73
4
 74
0
 40
0
 40
0
 40
0
 40
0
 40
1
 40
1
 40
1
 40
1
 10
62.431026
 20
249.894335
 30
0.0
 10
62.983309
 20
249.894336
 30
0.0
 10
63.431023
 20
250.342050
 30
0.0
 10
63.431022
 20
250.894334
 30
0.0
  0
LWPOLYLINE
  5
13b
100
AcDbEntity
  8
Calque_1
 62
7
100
AcDbPolyline
 90
2
 70
0
 10
48.431002
 20
249.894438
 30
0.0
 10
62.431147
 20
249.894438
 30
0.0
  0
LWPOLYLINE
  5
13c
100
AcDbEntity
  8
Calque_1
 62
7
100
AcDbPolyline
 90
2
 70
0
 10
104.431053
 20
249.894438
 30
0.0
 10
121.431040
 20
249.894438
 30
0.0
  0
SPLINE
  5
13d
100
AcDbEntity
  8
Calque_1
 62
7
100
AcDbSpline
 70
8
 71
3
 72
8
 73
4
 74
0
 40
0
 40
0
 40
0
 40
0
 40
1
 40
1
 40
1
 40
1
 10
103.430974
 20
250.894334
 30
0.0
 10
103.430974
 20
250.342050
 30
0.0
 10
103.878687
 20
249.894336
 30
0.0
 10
104.430971
 20
249.894335
 30
0.0
  0
LWPOLYLINE
  5
13e
100
AcDbEntity
  8
Calque_1
 62
7
100
AcDbPolyline
 90
2
 70
0
 10
103.430929
 20
251.894421
 30
0.0
 10
103.430929
 20
250.894297
 30
0.0
  0
LWPOLYLINE
  5
13f
100
AcDbEntity
  8
Calque_1
 62
7
100
AcDbPolyline
 90
2
 70
0
 10
68.431096
 20
251.894421
 30
0.0
 10
68.431096
 20
250.894297
 30
0.0
  0
SPLINE
  5
140
100
AcDbEntity
  8
Calque_1
 62
7
100
AcDbSpline
 70
8
 71
3
 72
8
 73
4
 74
0
 40
0
 40
0
 40
0
 40
0
 40
1
 40
1
 40
1
 40
1
 10
68.431017
 20
250.894334
 30
0.0
 10
68.431017
 20
250.629118
 30
0.0
 10
68.536373
 20
250.374764
 30
0.0
 10
68.723910
 20
250.187227
 30
0.0
  0
SPLINE
  5
141
100
AcDbEntity
  8
Calque_1
 62
7
100
AcDbSpline
 70
8
 71
3
 72
8
 73
4
 74
0
 40
0
 40
0
 40
0
 40
0
 40
1
 40
1
 40
1
 40
1
 10
68.723910
 20
250.187227
 30
0.0
 10
68.911446
 20
249.999691
 30
0.0
 10
69.165800
 20
249.894334
 30
0.0
 10
69.431016
 20
249.894335
 30
0.0
  0
LWPOLYLINE
  5
142
100
AcDbEntity
  8
Calque_1
 62
7
100
AcDbPolyline
 90
2
 70
0
 10
69.430955
 20
249.894438
 30
0.0
 10
97.430980
 20
249.894438
 30
0.0
  0
ENDSEC
  0
SECTION
  2
OBJECTS
  0
DICTIONARY
  5
C
330
0
100
AcDbDictionary
  3
ACAD_GROUP
350
D
  3
ACAD_MLINESTYLE
350
17
  0
DICTIONARY
  5
D
330
C
100
AcDbDictionary
  0
DICTIONARY
  5
1A
330
C
100
AcDbDictionary
  0
DICTIONARY
  5
17
330
C
100
AcDbDictionary
  3
STANDARD
350
18
  0
DICTIONARY
  5
19
330
C
100
AcDbDictionary
  0
ENDSEC
  0
EOF
