%TF.GenerationSoftware,KiCad,Pcbnew,7.0.2*%
%TF.CreationDate,2023-06-01T11:44:41+02:00*%
%TF.ProjectId,AMS & IMD Reset,414d5320-2620-4494-9d44-205265736574,rev?*%
%TF.SameCoordinates,Original*%
%TF.FileFunction,Copper,L2,Bot*%
%TF.FilePolarity,Positive*%
%FSLAX46Y46*%
G04 Gerber Fmt 4.6, Leading zero omitted, Abs format (unit mm)*
G04 Created by KiCad (PCBNEW 7.0.2) date 2023-06-01 11:44:41*
%MOMM*%
%LPD*%
G01*
G04 APERTURE LIST*
%TA.AperFunction,ComponentPad*%
%ADD10C,5.600000*%
%TD*%
%TA.AperFunction,ComponentPad*%
%ADD11R,1.530000X1.530000*%
%TD*%
%TA.AperFunction,ComponentPad*%
%ADD12C,1.530000*%
%TD*%
%TA.AperFunction,ComponentPad*%
%ADD13R,1.610000X1.610000*%
%TD*%
%TA.AperFunction,ComponentPad*%
%ADD14C,1.610000*%
%TD*%
%TA.AperFunction,ComponentPad*%
%ADD15C,1.650000*%
%TD*%
%TA.AperFunction,ComponentPad*%
%ADD16R,1.600000X1.600000*%
%TD*%
%TA.AperFunction,ComponentPad*%
%ADD17C,1.600000*%
%TD*%
%TA.AperFunction,ComponentPad*%
%ADD18C,1.440000*%
%TD*%
%TA.AperFunction,ViaPad*%
%ADD19C,0.800000*%
%TD*%
%TA.AperFunction,Conductor*%
%ADD20C,0.400000*%
%TD*%
G04 APERTURE END LIST*
D10*
%TO.P,,1*%
%TO.N,N/C*%
X127000000Y-115290000D03*
%TD*%
%TO.P,,1*%
%TO.N,N/C*%
X177800000Y-92430000D03*
%TD*%
%TO.P,,1*%
%TO.N,N/C*%
X135890000Y-79730000D03*
%TD*%
D11*
%TO.P,J3,1,1*%
%TO.N,GND*%
X173990000Y-84810000D03*
D12*
%TO.P,J3,2,2*%
%TO.N,/SC in*%
X176530000Y-84810000D03*
%TD*%
D13*
%TO.P,J1,1,1*%
%TO.N,IMD Indicator*%
X133350000Y-106400000D03*
D14*
%TO.P,J1,2,2*%
%TO.N,OK_HS_IMD*%
X133350000Y-108940000D03*
%TO.P,J1,3,3*%
%TO.N,GND*%
X133350000Y-111480000D03*
%TD*%
D15*
%TO.P,K3,1,1*%
%TO.N,Net-(K3-Pad1)*%
X180340000Y-97891905D03*
%TO.P,K3,2,2*%
X175260000Y-97891905D03*
%TO.P,K3,3,3*%
%TO.N,AMS Status*%
X172720000Y-97891905D03*
%TO.P,K3,4,4*%
%TO.N,GND*%
X170180000Y-97891905D03*
%TO.P,K3,5,5*%
X167640000Y-97891905D03*
%TO.P,K3,6,6*%
%TO.N,/NO Button*%
X167640000Y-102971905D03*
%TO.P,K3,7,7*%
%TO.N,/C Button + LED*%
X170180000Y-102971905D03*
%TO.P,K3,8,8*%
%TO.N,+12V*%
X172720000Y-102971905D03*
%TO.P,K3,9,9*%
%TO.N,Net-(K3-Pad9)*%
X175260000Y-102971905D03*
%TO.P,K3,10,10*%
%TO.N,GND*%
X180340000Y-102971905D03*
%TD*%
D11*
%TO.P,J5,1,1*%
%TO.N,GND*%
X179070000Y-115290000D03*
D12*
%TO.P,J5,2,2*%
%TO.N,/SC out*%
X176530000Y-115290000D03*
%TD*%
D16*
%TO.P,C1,1*%
%TO.N,GND*%
X126270000Y-91160000D03*
D17*
%TO.P,C1,2*%
%TO.N,+12V*%
X128270000Y-91160000D03*
%TD*%
D11*
%TO.P,J6,1,1*%
%TO.N,GND*%
X166370000Y-88620000D03*
D12*
%TO.P,J6,2,2*%
%TO.N,AMS Status*%
X166370000Y-91160000D03*
%TD*%
D15*
%TO.P,K2,1,1*%
%TO.N,Net-(K2-Pad1)*%
X134731500Y-102590000D03*
%TO.P,K2,2,2*%
X139811500Y-102590000D03*
%TO.P,K2,3,3*%
%TO.N,IMD Indicator*%
X142351500Y-102590000D03*
%TO.P,K2,4,4*%
%TO.N,GND*%
X144891500Y-102590000D03*
%TO.P,K2,5,5*%
X147431500Y-102590000D03*
%TO.P,K2,6,6*%
%TO.N,/NO Button*%
X147431500Y-97510000D03*
%TO.P,K2,7,7*%
%TO.N,/C Button + LED*%
X144891500Y-97510000D03*
%TO.P,K2,8,8*%
%TO.N,+12V*%
X142351500Y-97510000D03*
%TO.P,K2,9,9*%
%TO.N,Net-(K2-Pad9)*%
X139811500Y-97510000D03*
%TO.P,K2,10,10*%
%TO.N,GND*%
X134731500Y-97510000D03*
%TD*%
D13*
%TO.P,J2,1,1*%
%TO.N,/NO Button*%
X154940000Y-100050000D03*
D14*
%TO.P,J2,2,2*%
%TO.N,/C Button + LED*%
X157480000Y-100050000D03*
%TO.P,J2,3,3*%
%TO.N,GND*%
X160020000Y-100050000D03*
%TD*%
D11*
%TO.P,J4,1,1*%
%TO.N,GND*%
X127000000Y-83540000D03*
D12*
%TO.P,J4,2,2*%
%TO.N,+12V*%
X129540000Y-83540000D03*
%TD*%
D18*
%TO.P,U1,1,+VIN*%
%TO.N,+12V*%
X123190000Y-97570000D03*
%TO.P,U1,2,GND*%
%TO.N,GND*%
X123190000Y-100110000D03*
%TO.P,U1,3,+VOUT*%
%TO.N,+5V*%
X123190000Y-102650000D03*
%TD*%
D19*
%TO.N,+5V*%
X161290000Y-105130000D03*
X165100000Y-114020000D03*
X159276000Y-89610000D03*
%TO.N,AMS Status*%
X158750000Y-96240000D03*
%TO.N,/Opto IMD*%
X166370000Y-107670000D03*
X158482000Y-105765000D03*
%TD*%
D20*
%TO.N,+5V*%
X176530000Y-103434317D02*
X174834317Y-105130000D01*
X176530000Y-96240000D02*
X176530000Y-103434317D01*
X174834317Y-105130000D02*
X161290000Y-105130000D01*
X166370000Y-86080000D02*
X176530000Y-96240000D01*
X162806000Y-86080000D02*
X166370000Y-86080000D01*
X159276000Y-89610000D02*
X162806000Y-86080000D01*
%TO.N,AMS Status*%
X171338500Y-96510405D02*
X172720000Y-97891905D01*
X171338500Y-96128500D02*
X171338500Y-96510405D01*
%TO.N,+12V*%
X171495000Y-104196905D02*
X172720000Y-102971905D01*
X150770817Y-104196905D02*
X171495000Y-104196905D01*
X145353912Y-98780000D02*
X150770817Y-104196905D01*
X143621500Y-98780000D02*
X145353912Y-98780000D01*
X142351500Y-97510000D02*
X143621500Y-98780000D01*
%TO.N,/C Button + LED*%
X159176905Y-101746905D02*
X168955000Y-101746905D01*
X157480000Y-100050000D02*
X159176905Y-101746905D01*
X168955000Y-101746905D02*
X170180000Y-102971905D01*
%TO.N,/NO Button*%
X157861905Y-102971905D02*
X167640000Y-102971905D01*
%TO.N,+5V*%
X157948629Y-104965000D02*
X161125000Y-104965000D01*
X161125000Y-104965000D02*
X161290000Y-105130000D01*
X157480000Y-105433629D02*
X157948629Y-104965000D01*
X157480000Y-106400000D02*
X157480000Y-105433629D01*
X161290000Y-110210000D02*
X157480000Y-106400000D01*
X161290000Y-110210000D02*
X165100000Y-114020000D01*
X130750000Y-110210000D02*
X161290000Y-110210000D01*
X123190000Y-102650000D02*
X130750000Y-110210000D01*
%TO.N,AMS Status*%
X163830000Y-91160000D02*
X158750000Y-96240000D01*
X166370000Y-91160000D02*
X163830000Y-91160000D01*
%TO.N,/Opto IMD*%
X160387000Y-107670000D02*
X166370000Y-107670000D01*
X158482000Y-105765000D02*
X160387000Y-107670000D01*
%TO.N,IMD Indicator*%
X138541500Y-106400000D02*
X142351500Y-102590000D01*
X133350000Y-106400000D02*
X138541500Y-106400000D01*
%TO.N,AMS Status*%
X166370000Y-91160000D02*
X171338500Y-96128500D01*
%TO.N,Net-(K2-Pad1)*%
X139811500Y-102590000D02*
X134731500Y-102590000D01*
%TO.N,/C Button + LED*%
X146116500Y-96285000D02*
X144891500Y-97510000D01*
X153715000Y-96285000D02*
X146116500Y-96285000D01*
X157480000Y-100050000D02*
X153715000Y-96285000D01*
%TO.N,/NO Button*%
X154940000Y-100050000D02*
X157861905Y-102971905D01*
X152400000Y-97510000D02*
X154940000Y-100050000D01*
X147431500Y-97510000D02*
X152400000Y-97510000D01*
%TO.N,+12V*%
X136001500Y-91160000D02*
X128270000Y-91160000D01*
X142351500Y-97510000D02*
X136001500Y-91160000D01*
X128270000Y-92490000D02*
X123190000Y-97570000D01*
X128270000Y-91160000D02*
X128270000Y-92490000D01*
X129540000Y-89890000D02*
X128270000Y-91160000D01*
X129540000Y-83540000D02*
X129540000Y-89890000D01*
%TD*%
%TA.AperFunction,Conductor*%
%TO.N,GND*%
G36*
X135723707Y-91888185D02*
G01*
X135744349Y-91904819D01*
X139806858Y-95967328D01*
X139840343Y-96028651D01*
X139835359Y-96098343D01*
X139793487Y-96154276D01*
X139729984Y-96178537D01*
X139579058Y-96191741D01*
X139353672Y-96252133D01*
X139142202Y-96350744D01*
X138951067Y-96484578D01*
X138786078Y-96649567D01*
X138652244Y-96840702D01*
X138553633Y-97052172D01*
X138493241Y-97277558D01*
X138472905Y-97510000D01*
X138493241Y-97742441D01*
X138553633Y-97967827D01*
X138637333Y-98147320D01*
X138652244Y-98179297D01*
X138786078Y-98370432D01*
X138951068Y-98535422D01*
X139142203Y-98669256D01*
X139353674Y-98767867D01*
X139579056Y-98828258D01*
X139811500Y-98848594D01*
X140043944Y-98828258D01*
X140269326Y-98767867D01*
X140480797Y-98669256D01*
X140671932Y-98535422D01*
X140836922Y-98370432D01*
X140970756Y-98179297D01*
X140970756Y-98179296D01*
X140976978Y-98170411D01*
X140978868Y-98171734D01*
X141015289Y-98130371D01*
X141082483Y-98111218D01*
X141149364Y-98131433D01*
X141184227Y-98171667D01*
X141186022Y-98170411D01*
X141192243Y-98179296D01*
X141192244Y-98179297D01*
X141326078Y-98370432D01*
X141491068Y-98535422D01*
X141682203Y-98669256D01*
X141893674Y-98767867D01*
X142119056Y-98828258D01*
X142351500Y-98848594D01*
X142594752Y-98827313D01*
X142594935Y-98829404D01*
X142650749Y-98830725D01*
X142700692Y-98861162D01*
X143102723Y-99263193D01*
X143107857Y-99268647D01*
X143148225Y-99314214D01*
X143198322Y-99348793D01*
X143204356Y-99353233D01*
X143252275Y-99390776D01*
X143261732Y-99395032D01*
X143281284Y-99406058D01*
X143289825Y-99411954D01*
X143346765Y-99433547D01*
X143353669Y-99436408D01*
X143409171Y-99461388D01*
X143419382Y-99463259D01*
X143440988Y-99469282D01*
X143450699Y-99472965D01*
X143511154Y-99480305D01*
X143518516Y-99481425D01*
X143578407Y-99492401D01*
X143634464Y-99489010D01*
X143639166Y-99488726D01*
X143646652Y-99488500D01*
X145009080Y-99488500D01*
X145076119Y-99508185D01*
X145096761Y-99524819D01*
X146807383Y-101235441D01*
X146840868Y-101296764D01*
X146835884Y-101366456D01*
X146794012Y-101422389D01*
X146772111Y-101435502D01*
X146766471Y-101438132D01*
X146688077Y-101493023D01*
X146688076Y-101493024D01*
X147259931Y-102064878D01*
X147143042Y-102115651D01*
X147025761Y-102211066D01*
X146938572Y-102334585D01*
X146908145Y-102420197D01*
X146334524Y-101846576D01*
X146334523Y-101846577D01*
X146279634Y-101924967D01*
X146273882Y-101937304D01*
X146227709Y-101989743D01*
X146160515Y-102008894D01*
X146093634Y-101988678D01*
X146049118Y-101937304D01*
X146043366Y-101924970D01*
X145988474Y-101846576D01*
X145417429Y-102417622D01*
X145414616Y-102404085D01*
X145345058Y-102269844D01*
X145241862Y-102159348D01*
X145112681Y-102080791D01*
X145061497Y-102066450D01*
X145634923Y-101493024D01*
X145634922Y-101493023D01*
X145556532Y-101438133D01*
X145346407Y-101340151D01*
X145122461Y-101280145D01*
X144891500Y-101259938D01*
X144660538Y-101280145D01*
X144436592Y-101340151D01*
X144226468Y-101438133D01*
X144148077Y-101493023D01*
X144148076Y-101493024D01*
X144719931Y-102064878D01*
X144603042Y-102115651D01*
X144485761Y-102211066D01*
X144398572Y-102334585D01*
X144368145Y-102420197D01*
X143794524Y-101846576D01*
X143794523Y-101846577D01*
X143739630Y-101924973D01*
X143738569Y-101927250D01*
X143735969Y-101930202D01*
X143733411Y-101933856D01*
X143733003Y-101933570D01*
X143692395Y-101979688D01*
X143625201Y-101998838D01*
X143558321Y-101978620D01*
X143513807Y-101927246D01*
X143510756Y-101920703D01*
X143376922Y-101729568D01*
X143211932Y-101564578D01*
X143020797Y-101430744D01*
X142990909Y-101416807D01*
X142809327Y-101332133D01*
X142583941Y-101271741D01*
X142351500Y-101251405D01*
X142119058Y-101271741D01*
X141893672Y-101332133D01*
X141682202Y-101430744D01*
X141491067Y-101564578D01*
X141326078Y-101729567D01*
X141186022Y-101929589D01*
X141184131Y-101928265D01*
X141147704Y-101969632D01*
X141080510Y-101988781D01*
X141013630Y-101968562D01*
X140978771Y-101928333D01*
X140976978Y-101929589D01*
X140929522Y-101861815D01*
X140836922Y-101729568D01*
X140671932Y-101564578D01*
X140480797Y-101430744D01*
X140450909Y-101416807D01*
X140269327Y-101332133D01*
X140043941Y-101271741D01*
X139811500Y-101251405D01*
X139579058Y-101271741D01*
X139353672Y-101332133D01*
X139142202Y-101430744D01*
X138951067Y-101564578D01*
X138786081Y-101729564D01*
X138786078Y-101729567D01*
X138786078Y-101729568D01*
X138716717Y-101828625D01*
X138662142Y-101872248D01*
X138615144Y-101881500D01*
X135927856Y-101881500D01*
X135860817Y-101861815D01*
X135826283Y-101828626D01*
X135756922Y-101729568D01*
X135591932Y-101564578D01*
X135400797Y-101430744D01*
X135370909Y-101416807D01*
X135189327Y-101332133D01*
X134963941Y-101271741D01*
X134731500Y-101251405D01*
X134499058Y-101271741D01*
X134273672Y-101332133D01*
X134062202Y-101430744D01*
X133871067Y-101564578D01*
X133706078Y-101729567D01*
X133572244Y-101920702D01*
X133473633Y-102132172D01*
X133413241Y-102357558D01*
X133392905Y-102590000D01*
X133413241Y-102822441D01*
X133473633Y-103047827D01*
X133535809Y-103181162D01*
X133572244Y-103259297D01*
X133706078Y-103450432D01*
X133871068Y-103615422D01*
X134062203Y-103749256D01*
X134273674Y-103847867D01*
X134499056Y-103908258D01*
X134731500Y-103928594D01*
X134963944Y-103908258D01*
X135189326Y-103847867D01*
X135400797Y-103749256D01*
X135591932Y-103615422D01*
X135756922Y-103450432D01*
X135826282Y-103351374D01*
X135880858Y-103307752D01*
X135927856Y-103298500D01*
X138615144Y-103298500D01*
X138682183Y-103318185D01*
X138716716Y-103351373D01*
X138786078Y-103450432D01*
X138951068Y-103615422D01*
X139142203Y-103749256D01*
X139353674Y-103847867D01*
X139579056Y-103908258D01*
X139729983Y-103921462D01*
X139795051Y-103946914D01*
X139836030Y-104003505D01*
X139839909Y-104073266D01*
X139806857Y-104132671D01*
X138284349Y-105655181D01*
X138223026Y-105688666D01*
X138196668Y-105691500D01*
X134787500Y-105691500D01*
X134720461Y-105671815D01*
X134674706Y-105619011D01*
X134663500Y-105567500D01*
X134663500Y-105549671D01*
X134663500Y-105546362D01*
X134656989Y-105485799D01*
X134656988Y-105485797D01*
X134656988Y-105485794D01*
X134605889Y-105348796D01*
X134518261Y-105231738D01*
X134401203Y-105144110D01*
X134264205Y-105093011D01*
X134206924Y-105086853D01*
X134206918Y-105086852D01*
X134203638Y-105086500D01*
X132496362Y-105086500D01*
X132493082Y-105086852D01*
X132493075Y-105086853D01*
X132435794Y-105093011D01*
X132298796Y-105144110D01*
X132181738Y-105231738D01*
X132094110Y-105348796D01*
X132043011Y-105485794D01*
X132036853Y-105543075D01*
X132036500Y-105546362D01*
X132036500Y-107253638D01*
X132036852Y-107256918D01*
X132036853Y-107256924D01*
X132043011Y-107314205D01*
X132094110Y-107451203D01*
X132181738Y-107568261D01*
X132298796Y-107655889D01*
X132435794Y-107706988D01*
X132435797Y-107706988D01*
X132435799Y-107706989D01*
X132441084Y-107707557D01*
X132505635Y-107734295D01*
X132545484Y-107791687D01*
X132547979Y-107861512D01*
X132512327Y-107921601D01*
X132504480Y-107927950D01*
X132339957Y-108092473D01*
X132208131Y-108280741D01*
X132110999Y-108489039D01*
X132051513Y-108711044D01*
X132031482Y-108939999D01*
X132051513Y-109168955D01*
X132098793Y-109345406D01*
X132097130Y-109415256D01*
X132057968Y-109473119D01*
X131993739Y-109500623D01*
X131979018Y-109501500D01*
X131094832Y-109501500D01*
X131027793Y-109481815D01*
X131007151Y-109465181D01*
X124445477Y-102903507D01*
X124411992Y-102842184D01*
X124409630Y-102805022D01*
X124423193Y-102650000D01*
X124404458Y-102435858D01*
X124348822Y-102228223D01*
X124257976Y-102033404D01*
X124233773Y-101998838D01*
X124134683Y-101857321D01*
X124090011Y-101812649D01*
X123982681Y-101705319D01*
X123806597Y-101582024D01*
X123769184Y-101564578D01*
X123604302Y-101487692D01*
X123551863Y-101441520D01*
X123532711Y-101374326D01*
X123552927Y-101307445D01*
X123604303Y-101262928D01*
X123802325Y-101170589D01*
X123858030Y-101131583D01*
X123296035Y-100569587D01*
X123323776Y-100565599D01*
X123446714Y-100509455D01*
X123548855Y-100420949D01*
X123621923Y-100307253D01*
X123648907Y-100215354D01*
X124211583Y-100778030D01*
X124250589Y-100722325D01*
X124340802Y-100528861D01*
X124396055Y-100322657D01*
X124414660Y-100110000D01*
X124396055Y-99897342D01*
X124340802Y-99691138D01*
X124250587Y-99497670D01*
X124211583Y-99441967D01*
X123648906Y-100004644D01*
X123621923Y-99912747D01*
X123548855Y-99799051D01*
X123446714Y-99710545D01*
X123323776Y-99654401D01*
X123296035Y-99650412D01*
X123858031Y-99088416D01*
X123858030Y-99088415D01*
X123802325Y-99049409D01*
X123604303Y-98957071D01*
X123551863Y-98910899D01*
X123532711Y-98843706D01*
X123552926Y-98776824D01*
X123604303Y-98732307D01*
X123637526Y-98716815D01*
X123806597Y-98637976D01*
X123982681Y-98514681D01*
X124134681Y-98362681D01*
X124257976Y-98186597D01*
X124348822Y-97991777D01*
X124404458Y-97784142D01*
X124423193Y-97570000D01*
X124417944Y-97510000D01*
X133401438Y-97510000D01*
X133421645Y-97740961D01*
X133481651Y-97964907D01*
X133579633Y-98175032D01*
X133634523Y-98253422D01*
X133634524Y-98253423D01*
X134205570Y-97682376D01*
X134208384Y-97695915D01*
X134277942Y-97830156D01*
X134381138Y-97940652D01*
X134510319Y-98019209D01*
X134561502Y-98033549D01*
X133988075Y-98606975D01*
X133988075Y-98606976D01*
X134066467Y-98661866D01*
X134276592Y-98759848D01*
X134500538Y-98819854D01*
X134731499Y-98840061D01*
X134962461Y-98819854D01*
X135186407Y-98759848D01*
X135396528Y-98661867D01*
X135474923Y-98606975D01*
X134903068Y-98035121D01*
X135019958Y-97984349D01*
X135137239Y-97888934D01*
X135224428Y-97765415D01*
X135254854Y-97679802D01*
X135828475Y-98253423D01*
X135883367Y-98175028D01*
X135981348Y-97964907D01*
X136041354Y-97740961D01*
X136061561Y-97510000D01*
X136041354Y-97279038D01*
X135981348Y-97055092D01*
X135883367Y-96844972D01*
X135828474Y-96766576D01*
X135257429Y-97337622D01*
X135254616Y-97324085D01*
X135185058Y-97189844D01*
X135081862Y-97079348D01*
X134952681Y-97000791D01*
X134901497Y-96986450D01*
X135474923Y-96413024D01*
X135474922Y-96413023D01*
X135396532Y-96358133D01*
X135186407Y-96260151D01*
X134962461Y-96200145D01*
X134731499Y-96179938D01*
X134500538Y-96200145D01*
X134276592Y-96260151D01*
X134066468Y-96358133D01*
X133988077Y-96413023D01*
X133988076Y-96413024D01*
X134559931Y-96984878D01*
X134443042Y-97035651D01*
X134325761Y-97131066D01*
X134238572Y-97254585D01*
X134208145Y-97340197D01*
X133634524Y-96766576D01*
X133634523Y-96766577D01*
X133579633Y-96844968D01*
X133481651Y-97055092D01*
X133421645Y-97279038D01*
X133401438Y-97510000D01*
X124417944Y-97510000D01*
X124409630Y-97414978D01*
X124423396Y-97346480D01*
X124445474Y-97316494D01*
X128753208Y-93008760D01*
X128758611Y-93003673D01*
X128804215Y-92963273D01*
X128838816Y-92913143D01*
X128843222Y-92907157D01*
X128880775Y-92859226D01*
X128885037Y-92849754D01*
X128896055Y-92830219D01*
X128901954Y-92821675D01*
X128908205Y-92805189D01*
X128923542Y-92764752D01*
X128926400Y-92757850D01*
X128951389Y-92702329D01*
X128953260Y-92692113D01*
X128959287Y-92670498D01*
X128961295Y-92665203D01*
X128962965Y-92660801D01*
X128970304Y-92600354D01*
X128971420Y-92593014D01*
X128982402Y-92533092D01*
X128978726Y-92472316D01*
X128978500Y-92464831D01*
X128978500Y-92403352D01*
X128978500Y-92325833D01*
X128998183Y-92258797D01*
X129031373Y-92224263D01*
X129114300Y-92166198D01*
X129276198Y-92004300D01*
X129334261Y-91921376D01*
X129388838Y-91877752D01*
X129435836Y-91868500D01*
X135656668Y-91868500D01*
X135723707Y-91888185D01*
G37*
%TD.AperFunction*%
%TA.AperFunction,Conductor*%
G36*
X148528475Y-103333423D02*
G01*
X148583364Y-103255033D01*
X148585991Y-103249400D01*
X148632160Y-103196957D01*
X148699353Y-103177801D01*
X148766235Y-103198012D01*
X148786058Y-103214116D01*
X150252040Y-104680098D01*
X150257174Y-104685552D01*
X150297543Y-104731120D01*
X150347649Y-104765706D01*
X150353674Y-104770139D01*
X150401592Y-104807680D01*
X150411057Y-104811939D01*
X150430604Y-104822965D01*
X150439142Y-104828859D01*
X150496086Y-104850454D01*
X150502963Y-104853303D01*
X150530884Y-104865870D01*
X150558487Y-104878294D01*
X150568697Y-104880165D01*
X150590321Y-104886193D01*
X150600016Y-104889870D01*
X150660448Y-104897207D01*
X150667828Y-104898330D01*
X150727725Y-104909307D01*
X150788498Y-104905631D01*
X150795986Y-104905405D01*
X156747451Y-104905405D01*
X156814490Y-104925090D01*
X156860245Y-104977894D01*
X156870189Y-105047052D01*
X156849504Y-105099840D01*
X156848045Y-105101953D01*
X156826457Y-105158874D01*
X156823593Y-105165790D01*
X156798610Y-105221300D01*
X156796738Y-105231518D01*
X156790714Y-105253125D01*
X156787035Y-105262825D01*
X156779696Y-105323261D01*
X156778569Y-105330660D01*
X156767597Y-105390534D01*
X156771274Y-105451303D01*
X156771500Y-105458790D01*
X156771500Y-106374837D01*
X156771274Y-106382324D01*
X156767597Y-106443095D01*
X156778569Y-106502970D01*
X156779696Y-106510369D01*
X156787035Y-106570802D01*
X156790713Y-106580500D01*
X156796738Y-106602111D01*
X156798611Y-106612329D01*
X156823597Y-106667848D01*
X156826463Y-106674766D01*
X156848047Y-106731677D01*
X156853941Y-106740216D01*
X156864964Y-106759760D01*
X156869224Y-106769225D01*
X156906761Y-106817137D01*
X156911200Y-106823170D01*
X156945782Y-106873270D01*
X156945784Y-106873272D01*
X156945785Y-106873273D01*
X156991370Y-106913658D01*
X156996805Y-106918775D01*
X159367849Y-109289819D01*
X159401334Y-109351142D01*
X159396350Y-109420834D01*
X159354478Y-109476767D01*
X159289014Y-109501184D01*
X159280168Y-109501500D01*
X134720982Y-109501500D01*
X134653943Y-109481815D01*
X134608188Y-109429011D01*
X134598244Y-109359853D01*
X134601207Y-109345406D01*
X134616101Y-109289819D01*
X134648486Y-109168958D01*
X134668517Y-108940000D01*
X134648486Y-108711042D01*
X134589001Y-108489041D01*
X134491869Y-108280742D01*
X134360043Y-108092474D01*
X134197526Y-107929957D01*
X134189855Y-107922286D01*
X134191571Y-107920569D01*
X134157421Y-107877845D01*
X134150227Y-107808347D01*
X134181750Y-107745992D01*
X134241980Y-107710578D01*
X134258913Y-107707557D01*
X134264201Y-107706989D01*
X134264203Y-107706988D01*
X134264205Y-107706988D01*
X134363371Y-107670000D01*
X134401204Y-107655889D01*
X134518261Y-107568261D01*
X134605889Y-107451204D01*
X134656989Y-107314201D01*
X134663500Y-107253638D01*
X134663500Y-107232499D01*
X134683185Y-107165461D01*
X134735989Y-107119706D01*
X134787500Y-107108500D01*
X138516337Y-107108500D01*
X138523824Y-107108726D01*
X138584593Y-107112402D01*
X138644494Y-107101424D01*
X138651864Y-107100303D01*
X138712301Y-107092965D01*
X138721998Y-107089287D01*
X138743624Y-107083259D01*
X138753829Y-107081389D01*
X138809350Y-107056400D01*
X138816252Y-107053542D01*
X138856689Y-107038205D01*
X138873175Y-107031954D01*
X138881719Y-107026055D01*
X138901254Y-107015037D01*
X138910726Y-107010775D01*
X138958662Y-106973217D01*
X138964643Y-106968816D01*
X139014773Y-106934215D01*
X139055173Y-106888611D01*
X139060260Y-106883208D01*
X142002308Y-103941160D01*
X142063629Y-103907677D01*
X142108123Y-103908737D01*
X142108248Y-103907313D01*
X142351499Y-103928594D01*
X142351499Y-103928593D01*
X142351500Y-103928594D01*
X142583944Y-103908258D01*
X142809326Y-103847867D01*
X143020797Y-103749256D01*
X143211932Y-103615422D01*
X143376922Y-103450432D01*
X143510756Y-103259297D01*
X143513807Y-103252753D01*
X143559978Y-103200315D01*
X143627171Y-103181162D01*
X143694053Y-103201377D01*
X143733058Y-103246391D01*
X143733411Y-103246145D01*
X143735793Y-103249547D01*
X143738571Y-103252753D01*
X143739633Y-103255032D01*
X143794523Y-103333422D01*
X143794524Y-103333423D01*
X144365570Y-102762376D01*
X144368384Y-102775915D01*
X144437942Y-102910156D01*
X144541138Y-103020652D01*
X144670319Y-103099209D01*
X144721502Y-103113549D01*
X144148075Y-103686975D01*
X144148075Y-103686976D01*
X144226467Y-103741866D01*
X144436592Y-103839848D01*
X144660538Y-103899854D01*
X144891500Y-103920061D01*
X145122461Y-103899854D01*
X145346407Y-103839848D01*
X145556528Y-103741867D01*
X145634923Y-103686975D01*
X145063068Y-103115121D01*
X145179958Y-103064349D01*
X145297239Y-102968934D01*
X145384428Y-102845415D01*
X145414854Y-102759802D01*
X145988475Y-103333423D01*
X146043365Y-103255031D01*
X146049117Y-103242698D01*
X146095290Y-103190258D01*
X146162483Y-103171106D01*
X146229364Y-103191321D01*
X146273883Y-103242698D01*
X146279635Y-103255034D01*
X146334523Y-103333422D01*
X146334523Y-103333423D01*
X146905570Y-102762374D01*
X146908384Y-102775915D01*
X146977942Y-102910156D01*
X147081138Y-103020652D01*
X147210319Y-103099209D01*
X147261500Y-103113549D01*
X146688075Y-103686974D01*
X146688076Y-103686976D01*
X146766467Y-103741866D01*
X146976592Y-103839848D01*
X147200538Y-103899854D01*
X147431499Y-103920061D01*
X147662461Y-103899854D01*
X147886407Y-103839848D01*
X148096528Y-103741867D01*
X148174923Y-103686975D01*
X147603068Y-103115121D01*
X147719958Y-103064349D01*
X147837239Y-102968934D01*
X147924428Y-102845415D01*
X147954854Y-102759802D01*
X148528475Y-103333423D01*
G37*
%TD.AperFunction*%
%TA.AperFunction,Conductor*%
G36*
X167673707Y-88389685D02*
G01*
X167694349Y-88406319D01*
X175669594Y-96381564D01*
X175703079Y-96442887D01*
X175698095Y-96512579D01*
X175656223Y-96568512D01*
X175590759Y-96592929D01*
X175549820Y-96589020D01*
X175492443Y-96573646D01*
X175260000Y-96553310D01*
X175027558Y-96573646D01*
X174802172Y-96634038D01*
X174590702Y-96732649D01*
X174399567Y-96866483D01*
X174234578Y-97031472D01*
X174094522Y-97231494D01*
X174092631Y-97230170D01*
X174056204Y-97271537D01*
X173989010Y-97290686D01*
X173922130Y-97270467D01*
X173887271Y-97230238D01*
X173885478Y-97231494D01*
X173856314Y-97189844D01*
X173745422Y-97031473D01*
X173580432Y-96866483D01*
X173389297Y-96732649D01*
X173368034Y-96722734D01*
X173177827Y-96634038D01*
X172952441Y-96573646D01*
X172720000Y-96553310D01*
X172476749Y-96574592D01*
X172476566Y-96572503D01*
X172420727Y-96571172D01*
X172370807Y-96540742D01*
X172083319Y-96253254D01*
X172049834Y-96191931D01*
X172047000Y-96165573D01*
X172047000Y-96153661D01*
X172047226Y-96146174D01*
X172050119Y-96098343D01*
X172050902Y-96085407D01*
X172039923Y-96025500D01*
X172038803Y-96018138D01*
X172031465Y-95957699D01*
X172027786Y-95948000D01*
X172021760Y-95926381D01*
X172019889Y-95916171D01*
X171994903Y-95860655D01*
X171992036Y-95853733D01*
X171973635Y-95805214D01*
X171970454Y-95796825D01*
X171964557Y-95788281D01*
X171953534Y-95768736D01*
X171949275Y-95759274D01*
X171913865Y-95714077D01*
X171911729Y-95711351D01*
X171907293Y-95705322D01*
X171905730Y-95703058D01*
X171893331Y-95685094D01*
X171872714Y-95655225D01*
X171827147Y-95614857D01*
X171821693Y-95609723D01*
X167667016Y-91455046D01*
X167633531Y-91393723D01*
X167631169Y-91356558D01*
X167648365Y-91159999D01*
X167628944Y-90938016D01*
X167628944Y-90938014D01*
X167571270Y-90722773D01*
X167477097Y-90520818D01*
X167349284Y-90338283D01*
X167191717Y-90180716D01*
X167091543Y-90110572D01*
X167047920Y-90055997D01*
X167040728Y-89986499D01*
X167072250Y-89924144D01*
X167132480Y-89888731D01*
X167162669Y-89885000D01*
X167179518Y-89885000D01*
X167186132Y-89884645D01*
X167242371Y-89878599D01*
X167377089Y-89828352D01*
X167492188Y-89742188D01*
X167578352Y-89627089D01*
X167628599Y-89492371D01*
X167634645Y-89436132D01*
X167635000Y-89429518D01*
X167635000Y-88870000D01*
X166815572Y-88870000D01*
X166838682Y-88834040D01*
X166880000Y-88693327D01*
X166880000Y-88546673D01*
X166838682Y-88405960D01*
X166815572Y-88370000D01*
X167606668Y-88370000D01*
X167673707Y-88389685D01*
G37*
%TD.AperFunction*%
%TA.AperFunction,Conductor*%
G36*
X182822539Y-75940185D02*
G01*
X182868294Y-75992989D01*
X182879500Y-76044500D01*
X182879500Y-121515500D01*
X182859815Y-121582539D01*
X182807011Y-121628294D01*
X182755500Y-121639500D01*
X118234500Y-121639500D01*
X118167461Y-121619815D01*
X118121706Y-121567011D01*
X118110500Y-121515500D01*
X118110500Y-115290000D01*
X123686641Y-115290000D01*
X123686822Y-115293338D01*
X123686822Y-115293356D01*
X123705881Y-115644878D01*
X123705882Y-115644894D01*
X123706064Y-115648237D01*
X123706606Y-115651547D01*
X123706607Y-115651550D01*
X123763561Y-115998960D01*
X123763563Y-115998972D01*
X123764105Y-116002274D01*
X123765001Y-116005503D01*
X123765004Y-116005514D01*
X123794492Y-116111719D01*
X123860085Y-116347961D01*
X123861329Y-116351084D01*
X123861330Y-116351086D01*
X123942435Y-116554645D01*
X123992877Y-116681243D01*
X123994447Y-116684205D01*
X123994452Y-116684215D01*
X124114356Y-116910377D01*
X124160925Y-116998215D01*
X124362258Y-117295159D01*
X124594516Y-117568595D01*
X124596947Y-117570898D01*
X124596953Y-117570904D01*
X124776533Y-117741011D01*
X124854977Y-117815317D01*
X125140586Y-118032431D01*
X125447995Y-118217393D01*
X125773599Y-118368033D01*
X126113583Y-118482587D01*
X126463958Y-118559711D01*
X126820618Y-118598500D01*
X126823976Y-118598500D01*
X127176024Y-118598500D01*
X127179382Y-118598500D01*
X127536042Y-118559711D01*
X127886417Y-118482587D01*
X128226401Y-118368033D01*
X128552005Y-118217393D01*
X128859414Y-118032431D01*
X129145023Y-117815317D01*
X129405484Y-117568595D01*
X129637742Y-117295159D01*
X129839075Y-116998215D01*
X130007123Y-116681243D01*
X130139915Y-116347961D01*
X130235895Y-116002274D01*
X130293936Y-115648237D01*
X130313359Y-115290000D01*
X175251634Y-115290000D01*
X175271055Y-115511983D01*
X175328731Y-115727230D01*
X175422902Y-115929183D01*
X175550715Y-116111716D01*
X175708283Y-116269284D01*
X175890816Y-116397097D01*
X176047485Y-116470151D01*
X176092773Y-116491270D01*
X176308014Y-116548944D01*
X176530000Y-116568365D01*
X176751986Y-116548944D01*
X176967227Y-116491270D01*
X177169183Y-116397097D01*
X177351717Y-116269284D01*
X177509284Y-116111717D01*
X177579427Y-116011543D01*
X177634003Y-115967920D01*
X177703501Y-115960728D01*
X177765856Y-115992250D01*
X177801269Y-116052480D01*
X177805000Y-116082669D01*
X177805000Y-116099518D01*
X177805354Y-116106132D01*
X177811400Y-116162371D01*
X177861647Y-116297089D01*
X177947811Y-116412188D01*
X178062910Y-116498352D01*
X178197628Y-116548599D01*
X178253867Y-116554645D01*
X178260482Y-116555000D01*
X178820000Y-116555000D01*
X178820000Y-115736494D01*
X178924839Y-115784373D01*
X179033527Y-115800000D01*
X179106473Y-115800000D01*
X179215161Y-115784373D01*
X179320000Y-115736494D01*
X179320000Y-116555000D01*
X179879518Y-116555000D01*
X179886132Y-116554645D01*
X179942371Y-116548599D01*
X180077089Y-116498352D01*
X180192188Y-116412188D01*
X180278352Y-116297089D01*
X180328599Y-116162371D01*
X180334645Y-116106132D01*
X180335000Y-116099518D01*
X180335000Y-115540000D01*
X179515572Y-115540000D01*
X179538682Y-115504040D01*
X179580000Y-115363327D01*
X179580000Y-115216673D01*
X179538682Y-115075960D01*
X179515572Y-115040000D01*
X180335000Y-115040000D01*
X180335000Y-114480481D01*
X180334645Y-114473867D01*
X180328599Y-114417628D01*
X180278352Y-114282910D01*
X180192188Y-114167811D01*
X180077089Y-114081647D01*
X179942371Y-114031400D01*
X179886132Y-114025354D01*
X179879518Y-114025000D01*
X179320000Y-114025000D01*
X179320000Y-114843505D01*
X179215161Y-114795627D01*
X179106473Y-114780000D01*
X179033527Y-114780000D01*
X178924839Y-114795627D01*
X178820000Y-114843505D01*
X178820000Y-114025000D01*
X178260482Y-114025000D01*
X178253867Y-114025354D01*
X178197628Y-114031400D01*
X178062910Y-114081647D01*
X177947811Y-114167811D01*
X177861647Y-114282910D01*
X177811400Y-114417628D01*
X177805354Y-114473867D01*
X177805000Y-114480481D01*
X177805000Y-114497331D01*
X177785315Y-114564370D01*
X177732511Y-114610125D01*
X177663353Y-114620069D01*
X177599797Y-114591044D01*
X177579427Y-114568457D01*
X177509284Y-114468283D01*
X177351717Y-114310716D01*
X177351716Y-114310715D01*
X177169183Y-114182902D01*
X176967230Y-114088731D01*
X176967227Y-114088730D01*
X176859606Y-114059893D01*
X176751983Y-114031055D01*
X176530000Y-114011634D01*
X176308016Y-114031055D01*
X176092771Y-114088730D01*
X175923183Y-114167811D01*
X175890818Y-114182903D01*
X175708283Y-114310716D01*
X175708279Y-114310719D01*
X175550719Y-114468279D01*
X175550716Y-114468282D01*
X175550716Y-114468283D01*
X175464758Y-114591044D01*
X175422902Y-114650820D01*
X175328730Y-114852771D01*
X175271055Y-115068016D01*
X175251634Y-115290000D01*
X130313359Y-115290000D01*
X130293936Y-114931763D01*
X130235895Y-114577726D01*
X130139915Y-114232039D01*
X130007123Y-113898757D01*
X129839075Y-113581785D01*
X129637742Y-113284841D01*
X129405484Y-113011405D01*
X129403051Y-113009100D01*
X129403046Y-113009095D01*
X129147453Y-112766985D01*
X129145023Y-112764683D01*
X128947434Y-112614480D01*
X128862082Y-112549597D01*
X128862080Y-112549595D01*
X128859414Y-112547569D01*
X128856540Y-112545840D01*
X128856536Y-112545837D01*
X128554887Y-112364341D01*
X128554886Y-112364340D01*
X128552005Y-112362607D01*
X128226401Y-112211967D01*
X128133957Y-112180819D01*
X127889591Y-112098482D01*
X127889583Y-112098479D01*
X127886417Y-112097413D01*
X127883150Y-112096694D01*
X127883147Y-112096693D01*
X127539323Y-112021011D01*
X127539319Y-112021010D01*
X127536042Y-112020289D01*
X127532706Y-112019926D01*
X127532699Y-112019925D01*
X127182720Y-111981863D01*
X127182719Y-111981862D01*
X127179382Y-111981500D01*
X126820618Y-111981500D01*
X126817281Y-111981862D01*
X126817279Y-111981863D01*
X126467300Y-112019925D01*
X126467290Y-112019926D01*
X126463958Y-112020289D01*
X126460683Y-112021009D01*
X126460676Y-112021011D01*
X126116852Y-112096693D01*
X126116844Y-112096695D01*
X126113583Y-112097413D01*
X126110421Y-112098478D01*
X126110408Y-112098482D01*
X125776786Y-112210893D01*
X125776783Y-112210894D01*
X125773599Y-112211967D01*
X125770550Y-112213377D01*
X125770544Y-112213380D01*
X125451050Y-112361193D01*
X125451040Y-112361197D01*
X125447995Y-112362607D01*
X125445121Y-112364336D01*
X125445112Y-112364341D01*
X125143463Y-112545837D01*
X125143450Y-112545845D01*
X125140586Y-112547569D01*
X125137928Y-112549589D01*
X125137917Y-112549597D01*
X124857636Y-112762661D01*
X124857628Y-112762667D01*
X124854977Y-112764683D01*
X124852553Y-112766978D01*
X124852546Y-112766985D01*
X124596953Y-113009095D01*
X124596938Y-113009110D01*
X124594516Y-113011405D01*
X124592353Y-113013950D01*
X124592342Y-113013963D01*
X124364431Y-113282282D01*
X124364425Y-113282289D01*
X124362258Y-113284841D01*
X124360378Y-113287613D01*
X124360371Y-113287623D01*
X124162815Y-113578996D01*
X124162807Y-113579008D01*
X124160925Y-113581785D01*
X124159350Y-113584755D01*
X124159348Y-113584759D01*
X123994452Y-113895784D01*
X123994443Y-113895801D01*
X123992877Y-113898757D01*
X123991636Y-113901869D01*
X123991632Y-113901880D01*
X123861330Y-114228913D01*
X123861327Y-114228921D01*
X123860085Y-114232039D01*
X123859185Y-114235277D01*
X123859185Y-114235280D01*
X123765004Y-114574485D01*
X123765000Y-114574500D01*
X123764105Y-114577726D01*
X123763564Y-114581023D01*
X123763561Y-114581039D01*
X123713108Y-114888794D01*
X123706064Y-114931763D01*
X123705882Y-114935103D01*
X123705881Y-114935121D01*
X123686822Y-115286643D01*
X123686822Y-115286661D01*
X123686641Y-115290000D01*
X118110500Y-115290000D01*
X118110500Y-102650000D01*
X121956806Y-102650000D01*
X121975541Y-102864139D01*
X122031178Y-103071778D01*
X122086922Y-103191321D01*
X122122024Y-103266597D01*
X122245319Y-103442681D01*
X122397319Y-103594681D01*
X122573403Y-103717976D01*
X122768223Y-103808822D01*
X122975858Y-103864458D01*
X123118619Y-103876948D01*
X123189999Y-103883193D01*
X123189999Y-103883192D01*
X123190000Y-103883193D01*
X123345020Y-103869630D01*
X123413518Y-103883396D01*
X123443507Y-103905477D01*
X130231223Y-110693193D01*
X130236357Y-110698647D01*
X130276726Y-110744215D01*
X130326832Y-110778801D01*
X130332857Y-110783234D01*
X130380775Y-110820775D01*
X130390240Y-110825034D01*
X130409787Y-110836060D01*
X130418325Y-110841954D01*
X130475269Y-110863549D01*
X130482146Y-110866398D01*
X130510067Y-110878965D01*
X130537670Y-110891389D01*
X130547880Y-110893260D01*
X130569504Y-110899288D01*
X130579199Y-110902965D01*
X130639631Y-110910302D01*
X130647011Y-110911425D01*
X130706908Y-110922402D01*
X130767681Y-110918726D01*
X130775169Y-110918500D01*
X131987818Y-110918500D01*
X132054857Y-110938185D01*
X132100612Y-110990989D01*
X132110556Y-111060147D01*
X132107593Y-111074594D01*
X132059916Y-111252525D01*
X132040014Y-111479999D01*
X132059916Y-111707474D01*
X132119017Y-111928042D01*
X132215519Y-112134990D01*
X132267384Y-112209062D01*
X132836755Y-111639691D01*
X132841151Y-111660845D01*
X132908812Y-111791425D01*
X133009194Y-111898907D01*
X133134851Y-111975322D01*
X133192170Y-111991381D01*
X132620936Y-112562614D01*
X132695009Y-112614480D01*
X132901957Y-112710982D01*
X133122525Y-112770083D01*
X133350000Y-112789985D01*
X133577474Y-112770083D01*
X133798042Y-112710982D01*
X134004991Y-112614480D01*
X134079061Y-112562614D01*
X133510166Y-111993719D01*
X133630591Y-111941412D01*
X133744673Y-111848599D01*
X133829485Y-111728449D01*
X133861610Y-111638057D01*
X134432614Y-112209061D01*
X134484480Y-112134991D01*
X134580982Y-111928042D01*
X134640083Y-111707474D01*
X134659985Y-111480000D01*
X134640083Y-111252525D01*
X134592407Y-111074594D01*
X134594070Y-111004744D01*
X134633232Y-110946881D01*
X134697461Y-110919377D01*
X134712182Y-110918500D01*
X160945168Y-110918500D01*
X161012207Y-110938185D01*
X161032849Y-110954819D01*
X164165836Y-114087806D01*
X164199321Y-114149129D01*
X164201475Y-114162518D01*
X164203618Y-114182903D01*
X164206458Y-114209929D01*
X164265472Y-114391556D01*
X164360957Y-114556941D01*
X164376754Y-114574485D01*
X164488747Y-114698866D01*
X164600418Y-114780000D01*
X164643248Y-114811118D01*
X164817714Y-114888795D01*
X165004511Y-114928500D01*
X165004513Y-114928500D01*
X165195489Y-114928500D01*
X165382285Y-114888795D01*
X165382286Y-114888794D01*
X165382288Y-114888794D01*
X165556752Y-114811118D01*
X165711253Y-114698866D01*
X165839040Y-114556944D01*
X165934527Y-114391556D01*
X165993542Y-114209928D01*
X166013504Y-114020000D01*
X165993542Y-113830072D01*
X165934527Y-113648444D01*
X165934527Y-113648443D01*
X165839042Y-113483058D01*
X165819442Y-113461291D01*
X165711253Y-113341134D01*
X165556752Y-113228882D01*
X165556751Y-113228881D01*
X165382285Y-113151204D01*
X165228852Y-113118591D01*
X165167370Y-113085398D01*
X165166952Y-113084982D01*
X161808775Y-109726805D01*
X161803658Y-109721370D01*
X161763273Y-109675785D01*
X161763272Y-109675784D01*
X161763270Y-109675782D01*
X161754729Y-109669887D01*
X161737489Y-109655519D01*
X160672151Y-108590181D01*
X160638666Y-108528858D01*
X160643650Y-108459166D01*
X160685522Y-108403233D01*
X160750986Y-108378816D01*
X160759832Y-108378500D01*
X165759244Y-108378500D01*
X165826283Y-108398185D01*
X165832130Y-108402182D01*
X165913248Y-108461118D01*
X166087714Y-108538795D01*
X166274511Y-108578500D01*
X166274513Y-108578500D01*
X166465489Y-108578500D01*
X166652285Y-108538795D01*
X166652286Y-108538794D01*
X166652288Y-108538794D01*
X166826752Y-108461118D01*
X166981253Y-108348866D01*
X167109040Y-108206944D01*
X167175130Y-108092474D01*
X167204527Y-108041556D01*
X167263027Y-107861512D01*
X167263542Y-107859928D01*
X167283504Y-107670000D01*
X167263542Y-107480072D01*
X167204527Y-107298444D01*
X167204527Y-107298443D01*
X167109042Y-107133058D01*
X167066032Y-107085291D01*
X166981253Y-106991134D01*
X166826752Y-106878882D01*
X166826751Y-106878881D01*
X166652285Y-106801204D01*
X166465489Y-106761500D01*
X166465487Y-106761500D01*
X166274513Y-106761500D01*
X166274511Y-106761500D01*
X166087714Y-106801204D01*
X165913248Y-106878881D01*
X165832130Y-106937818D01*
X165766324Y-106961298D01*
X165759244Y-106961500D01*
X160731832Y-106961500D01*
X160664793Y-106941815D01*
X160644151Y-106925181D01*
X159604151Y-105885181D01*
X159570666Y-105823858D01*
X159575650Y-105754166D01*
X159617522Y-105698233D01*
X159682986Y-105673816D01*
X159691832Y-105673500D01*
X160501655Y-105673500D01*
X160568694Y-105693185D01*
X160593803Y-105714527D01*
X160678747Y-105808866D01*
X160833248Y-105921117D01*
X160833248Y-105921118D01*
X161007714Y-105998795D01*
X161194511Y-106038500D01*
X161194513Y-106038500D01*
X161385489Y-106038500D01*
X161572285Y-105998795D01*
X161572286Y-105998794D01*
X161572288Y-105998794D01*
X161746752Y-105921118D01*
X161827869Y-105862182D01*
X161893676Y-105838702D01*
X161900756Y-105838500D01*
X174809154Y-105838500D01*
X174816641Y-105838726D01*
X174877410Y-105842402D01*
X174937311Y-105831424D01*
X174944681Y-105830303D01*
X175005118Y-105822965D01*
X175014815Y-105819287D01*
X175036441Y-105813259D01*
X175046646Y-105811389D01*
X175102167Y-105786400D01*
X175109069Y-105783542D01*
X175149506Y-105768205D01*
X175165992Y-105761954D01*
X175174536Y-105756055D01*
X175194071Y-105745037D01*
X175203543Y-105740775D01*
X175251479Y-105703217D01*
X175257460Y-105698816D01*
X175307590Y-105664215D01*
X175347990Y-105618611D01*
X175353077Y-105613208D01*
X177013208Y-103953077D01*
X177018611Y-103947990D01*
X177064215Y-103907590D01*
X177098816Y-103857460D01*
X177103222Y-103851474D01*
X177106049Y-103847866D01*
X177140775Y-103803543D01*
X177145037Y-103794071D01*
X177156055Y-103774536D01*
X177161954Y-103765992D01*
X177171103Y-103741867D01*
X177183542Y-103709069D01*
X177186400Y-103702167D01*
X177211389Y-103646646D01*
X177213260Y-103636430D01*
X177219287Y-103614815D01*
X177222965Y-103605118D01*
X177230304Y-103544671D01*
X177231420Y-103537331D01*
X177242402Y-103477409D01*
X177238726Y-103416633D01*
X177238500Y-103409147D01*
X177238500Y-102971905D01*
X179009938Y-102971905D01*
X179030145Y-103202866D01*
X179090151Y-103426812D01*
X179188133Y-103636937D01*
X179243023Y-103715327D01*
X179243024Y-103715328D01*
X179814070Y-103144281D01*
X179816884Y-103157820D01*
X179886442Y-103292061D01*
X179989638Y-103402557D01*
X180118819Y-103481114D01*
X180170002Y-103495454D01*
X179596575Y-104068880D01*
X179596575Y-104068881D01*
X179674967Y-104123771D01*
X179885092Y-104221753D01*
X180109038Y-104281759D01*
X180340000Y-104301966D01*
X180570961Y-104281759D01*
X180794907Y-104221753D01*
X181005028Y-104123772D01*
X181083423Y-104068880D01*
X180511568Y-103497026D01*
X180628458Y-103446254D01*
X180745739Y-103350839D01*
X180832928Y-103227320D01*
X180863354Y-103141707D01*
X181436975Y-103715328D01*
X181491867Y-103636933D01*
X181589848Y-103426812D01*
X181649854Y-103202866D01*
X181670061Y-102971905D01*
X181649854Y-102740943D01*
X181589848Y-102516997D01*
X181491867Y-102306877D01*
X181436974Y-102228481D01*
X180865929Y-102799527D01*
X180863116Y-102785990D01*
X180793558Y-102651749D01*
X180690362Y-102541253D01*
X180561181Y-102462696D01*
X180509997Y-102448355D01*
X181083423Y-101874929D01*
X181083422Y-101874928D01*
X181005032Y-101820038D01*
X180794907Y-101722056D01*
X180570961Y-101662050D01*
X180340000Y-101641843D01*
X180109038Y-101662050D01*
X179885092Y-101722056D01*
X179674968Y-101820038D01*
X179596577Y-101874928D01*
X179596576Y-101874929D01*
X180168431Y-102446783D01*
X180051542Y-102497556D01*
X179934261Y-102592971D01*
X179847072Y-102716490D01*
X179816645Y-102802102D01*
X179243024Y-102228481D01*
X179243023Y-102228482D01*
X179188133Y-102306873D01*
X179090151Y-102516997D01*
X179030145Y-102740943D01*
X179009938Y-102971905D01*
X177238500Y-102971905D01*
X177238500Y-97891904D01*
X179001405Y-97891904D01*
X179021741Y-98124346D01*
X179082133Y-98349732D01*
X179173002Y-98544599D01*
X179180744Y-98561202D01*
X179314578Y-98752337D01*
X179479568Y-98917327D01*
X179670703Y-99051161D01*
X179882174Y-99149772D01*
X180107556Y-99210163D01*
X180262518Y-99223720D01*
X180339999Y-99230499D01*
X180339999Y-99230498D01*
X180340000Y-99230499D01*
X180572444Y-99210163D01*
X180797826Y-99149772D01*
X181009297Y-99051161D01*
X181200432Y-98917327D01*
X181365422Y-98752337D01*
X181499256Y-98561202D01*
X181597867Y-98349731D01*
X181658258Y-98124349D01*
X181678594Y-97891905D01*
X181658258Y-97659461D01*
X181597867Y-97434079D01*
X181499256Y-97222608D01*
X181365422Y-97031473D01*
X181200432Y-96866483D01*
X181009297Y-96732649D01*
X180988034Y-96722734D01*
X180797827Y-96634038D01*
X180572441Y-96573646D01*
X180340000Y-96553310D01*
X180107558Y-96573646D01*
X179882172Y-96634038D01*
X179670702Y-96732649D01*
X179479567Y-96866483D01*
X179314578Y-97031472D01*
X179180744Y-97222607D01*
X179082133Y-97434077D01*
X179021741Y-97659463D01*
X179001405Y-97891904D01*
X177238500Y-97891904D01*
X177238500Y-96265168D01*
X177238726Y-96257681D01*
X177238994Y-96253254D01*
X177242402Y-96196908D01*
X177231425Y-96137011D01*
X177230301Y-96129621D01*
X177222965Y-96069199D01*
X177219286Y-96059500D01*
X177213260Y-96037881D01*
X177211389Y-96027671D01*
X177186403Y-95972155D01*
X177183536Y-95965233D01*
X177177001Y-95948001D01*
X177161954Y-95908325D01*
X177156057Y-95899781D01*
X177145039Y-95880249D01*
X177142416Y-95874421D01*
X177132846Y-95805214D01*
X177162212Y-95741815D01*
X177221192Y-95704357D01*
X177268889Y-95700247D01*
X177620618Y-95738500D01*
X177623976Y-95738500D01*
X177976024Y-95738500D01*
X177979382Y-95738500D01*
X178336042Y-95699711D01*
X178686417Y-95622587D01*
X179026401Y-95508033D01*
X179352005Y-95357393D01*
X179659414Y-95172431D01*
X179945023Y-94955317D01*
X180205484Y-94708595D01*
X180437742Y-94435159D01*
X180639075Y-94138215D01*
X180807123Y-93821243D01*
X180939915Y-93487961D01*
X181035895Y-93142274D01*
X181093936Y-92788237D01*
X181113359Y-92430000D01*
X181093936Y-92071763D01*
X181035895Y-91717726D01*
X180939915Y-91372039D01*
X180807123Y-91038757D01*
X180639075Y-90721785D01*
X180437742Y-90424841D01*
X180230381Y-90180716D01*
X180207657Y-90153963D01*
X180207654Y-90153960D01*
X180205484Y-90151405D01*
X180203051Y-90149100D01*
X180203046Y-90149095D01*
X179947453Y-89906985D01*
X179945023Y-89904683D01*
X179659414Y-89687569D01*
X179656540Y-89685840D01*
X179656536Y-89685837D01*
X179354887Y-89504341D01*
X179354886Y-89504340D01*
X179352005Y-89502607D01*
X179026401Y-89351967D01*
X178933957Y-89320819D01*
X178689591Y-89238482D01*
X178689583Y-89238479D01*
X178686417Y-89237413D01*
X178683150Y-89236694D01*
X178683147Y-89236693D01*
X178339323Y-89161011D01*
X178339319Y-89161010D01*
X178336042Y-89160289D01*
X178332706Y-89159926D01*
X178332699Y-89159925D01*
X177982720Y-89121863D01*
X177982719Y-89121862D01*
X177979382Y-89121500D01*
X177620618Y-89121500D01*
X177617281Y-89121862D01*
X177617279Y-89121863D01*
X177267300Y-89159925D01*
X177267290Y-89159926D01*
X177263958Y-89160289D01*
X177260683Y-89161009D01*
X177260676Y-89161011D01*
X176916852Y-89236693D01*
X176916844Y-89236695D01*
X176913583Y-89237413D01*
X176910421Y-89238478D01*
X176910408Y-89238482D01*
X176576786Y-89350893D01*
X176576783Y-89350894D01*
X176573599Y-89351967D01*
X176570550Y-89353377D01*
X176570544Y-89353380D01*
X176251050Y-89501193D01*
X176251040Y-89501197D01*
X176247995Y-89502607D01*
X176245121Y-89504336D01*
X176245112Y-89504341D01*
X175943463Y-89685837D01*
X175943450Y-89685845D01*
X175940586Y-89687569D01*
X175937928Y-89689589D01*
X175937917Y-89689597D01*
X175657636Y-89902661D01*
X175657628Y-89902667D01*
X175654977Y-89904683D01*
X175652553Y-89906978D01*
X175652546Y-89906985D01*
X175396953Y-90149095D01*
X175396938Y-90149110D01*
X175394516Y-90151405D01*
X175392353Y-90153950D01*
X175392342Y-90153963D01*
X175164431Y-90422282D01*
X175164425Y-90422289D01*
X175162258Y-90424841D01*
X175160378Y-90427613D01*
X175160371Y-90427623D01*
X174962815Y-90718996D01*
X174962807Y-90719008D01*
X174960925Y-90721785D01*
X174959350Y-90724755D01*
X174959348Y-90724759D01*
X174794452Y-91035784D01*
X174794443Y-91035801D01*
X174792877Y-91038757D01*
X174791636Y-91041869D01*
X174791632Y-91041880D01*
X174661330Y-91368913D01*
X174661327Y-91368921D01*
X174660085Y-91372039D01*
X174659185Y-91375277D01*
X174659185Y-91375280D01*
X174565004Y-91714485D01*
X174565000Y-91714500D01*
X174564105Y-91717726D01*
X174563564Y-91721023D01*
X174563561Y-91721039D01*
X174506784Y-92067371D01*
X174506064Y-92071763D01*
X174505882Y-92075103D01*
X174505881Y-92075121D01*
X174490367Y-92361270D01*
X174486641Y-92430000D01*
X174486823Y-92433356D01*
X174505881Y-92784878D01*
X174505882Y-92784894D01*
X174506064Y-92788237D01*
X174506605Y-92791541D01*
X174506607Y-92791553D01*
X174527254Y-92917495D01*
X174518674Y-92986835D01*
X174473968Y-93040530D01*
X174407329Y-93061531D01*
X174339915Y-93043170D01*
X174317206Y-93025236D01*
X166911488Y-85619518D01*
X172725000Y-85619518D01*
X172725354Y-85626132D01*
X172731400Y-85682371D01*
X172781647Y-85817089D01*
X172867811Y-85932188D01*
X172982910Y-86018352D01*
X173117628Y-86068599D01*
X173173867Y-86074645D01*
X173180482Y-86075000D01*
X173740000Y-86075000D01*
X173740000Y-85256494D01*
X173844839Y-85304373D01*
X173953527Y-85320000D01*
X174026473Y-85320000D01*
X174135161Y-85304373D01*
X174240000Y-85256494D01*
X174240000Y-86075000D01*
X174799518Y-86075000D01*
X174806132Y-86074645D01*
X174862371Y-86068599D01*
X174997089Y-86018352D01*
X175112188Y-85932188D01*
X175198352Y-85817089D01*
X175248599Y-85682371D01*
X175254645Y-85626132D01*
X175255000Y-85619518D01*
X175255000Y-85602669D01*
X175274685Y-85535630D01*
X175327489Y-85489875D01*
X175396647Y-85479931D01*
X175460203Y-85508956D01*
X175480570Y-85531540D01*
X175550716Y-85631717D01*
X175550718Y-85631718D01*
X175550718Y-85631719D01*
X175708283Y-85789284D01*
X175890816Y-85917097D01*
X176047484Y-85990151D01*
X176092773Y-86011270D01*
X176308014Y-86068944D01*
X176530000Y-86088365D01*
X176751986Y-86068944D01*
X176967227Y-86011270D01*
X177169183Y-85917097D01*
X177351717Y-85789284D01*
X177509284Y-85631717D01*
X177637097Y-85449183D01*
X177731270Y-85247227D01*
X177788944Y-85031986D01*
X177808365Y-84810000D01*
X177788944Y-84588014D01*
X177731270Y-84372773D01*
X177637097Y-84170818D01*
X177509284Y-83988283D01*
X177351717Y-83830716D01*
X177351716Y-83830715D01*
X177169183Y-83702902D01*
X176967230Y-83608731D01*
X176967227Y-83608730D01*
X176859606Y-83579892D01*
X176751983Y-83551055D01*
X176530000Y-83531634D01*
X176308016Y-83551055D01*
X176092771Y-83608730D01*
X175923183Y-83687811D01*
X175890818Y-83702903D01*
X175708283Y-83830716D01*
X175708279Y-83830719D01*
X175550718Y-83988280D01*
X175550715Y-83988283D01*
X175550716Y-83988283D01*
X175480573Y-84088455D01*
X175425997Y-84132080D01*
X175356499Y-84139272D01*
X175294144Y-84107750D01*
X175258731Y-84047520D01*
X175255000Y-84017331D01*
X175255000Y-84000481D01*
X175254645Y-83993867D01*
X175248599Y-83937628D01*
X175198352Y-83802910D01*
X175112188Y-83687811D01*
X174997089Y-83601647D01*
X174862371Y-83551400D01*
X174806132Y-83545354D01*
X174799518Y-83545000D01*
X174240000Y-83545000D01*
X174240000Y-84363505D01*
X174135161Y-84315627D01*
X174026473Y-84300000D01*
X173953527Y-84300000D01*
X173844839Y-84315627D01*
X173740000Y-84363505D01*
X173740000Y-83545000D01*
X173180482Y-83545000D01*
X173173867Y-83545354D01*
X173117628Y-83551400D01*
X172982910Y-83601647D01*
X172867811Y-83687811D01*
X172781647Y-83802910D01*
X172731400Y-83937628D01*
X172725354Y-83993867D01*
X172725000Y-84000481D01*
X172725000Y-84560000D01*
X173544428Y-84560000D01*
X173521318Y-84595960D01*
X173480000Y-84736673D01*
X173480000Y-84883327D01*
X173521318Y-85024040D01*
X173544428Y-85060000D01*
X172725000Y-85060000D01*
X172725000Y-85619518D01*
X166911488Y-85619518D01*
X166888775Y-85596805D01*
X166883658Y-85591370D01*
X166843273Y-85545785D01*
X166843272Y-85545784D01*
X166843270Y-85545782D01*
X166793170Y-85511200D01*
X166787137Y-85506761D01*
X166739225Y-85469224D01*
X166729760Y-85464964D01*
X166710216Y-85453941D01*
X166701677Y-85448047D01*
X166701675Y-85448046D01*
X166644767Y-85426463D01*
X166637848Y-85423597D01*
X166582329Y-85398611D01*
X166572111Y-85396738D01*
X166550500Y-85390713D01*
X166540802Y-85387035D01*
X166480369Y-85379696D01*
X166472970Y-85378569D01*
X166413095Y-85367597D01*
X166352324Y-85371274D01*
X166344837Y-85371500D01*
X162831169Y-85371500D01*
X162823682Y-85371274D01*
X162762905Y-85367597D01*
X162703030Y-85378569D01*
X162695631Y-85379695D01*
X162635200Y-85387034D01*
X162625496Y-85390714D01*
X162603889Y-85396738D01*
X162593671Y-85398610D01*
X162538161Y-85423593D01*
X162531245Y-85426457D01*
X162474325Y-85448045D01*
X162465775Y-85453946D01*
X162446240Y-85464964D01*
X162436773Y-85469225D01*
X162388856Y-85506765D01*
X162382827Y-85511201D01*
X162332728Y-85545783D01*
X162292357Y-85591352D01*
X162287224Y-85596804D01*
X159209047Y-88674982D01*
X159147724Y-88708467D01*
X159147148Y-88708591D01*
X158993713Y-88741205D01*
X158819248Y-88818881D01*
X158664748Y-88931133D01*
X158536957Y-89073058D01*
X158441472Y-89238443D01*
X158382458Y-89420070D01*
X158362496Y-89609999D01*
X158382458Y-89799929D01*
X158441472Y-89981556D01*
X158536957Y-90146941D01*
X158543135Y-90153802D01*
X158664747Y-90288866D01*
X158815815Y-90398624D01*
X158819248Y-90401118D01*
X158993714Y-90478795D01*
X159180511Y-90518500D01*
X159180513Y-90518500D01*
X159371489Y-90518500D01*
X159558285Y-90478795D01*
X159558286Y-90478794D01*
X159558288Y-90478794D01*
X159732752Y-90401118D01*
X159887253Y-90288866D01*
X160015040Y-90146944D01*
X160047800Y-90090203D01*
X160110527Y-89981556D01*
X160169542Y-89799929D01*
X160174523Y-89752528D01*
X160201105Y-89687912D01*
X160210154Y-89677814D01*
X163063150Y-86824819D01*
X163124474Y-86791334D01*
X163150832Y-86788500D01*
X166025168Y-86788500D01*
X166092207Y-86808185D01*
X166112849Y-86824819D01*
X166583681Y-87295651D01*
X166617166Y-87356974D01*
X166620000Y-87383332D01*
X166620000Y-88173505D01*
X166515161Y-88125627D01*
X166406473Y-88110000D01*
X166333527Y-88110000D01*
X166224839Y-88125627D01*
X166120000Y-88173505D01*
X166120000Y-87355000D01*
X165560482Y-87355000D01*
X165553867Y-87355354D01*
X165497628Y-87361400D01*
X165362910Y-87411647D01*
X165247811Y-87497811D01*
X165161647Y-87612910D01*
X165111400Y-87747628D01*
X165105354Y-87803867D01*
X165105000Y-87810481D01*
X165105000Y-88370000D01*
X165924428Y-88370000D01*
X165901318Y-88405960D01*
X165860000Y-88546673D01*
X165860000Y-88693327D01*
X165901318Y-88834040D01*
X165924428Y-88870000D01*
X165105000Y-88870000D01*
X165105000Y-89429518D01*
X165105354Y-89436132D01*
X165111400Y-89492371D01*
X165161647Y-89627089D01*
X165247811Y-89742188D01*
X165362910Y-89828352D01*
X165497628Y-89878599D01*
X165553867Y-89884645D01*
X165560482Y-89885000D01*
X165577331Y-89885000D01*
X165644370Y-89904685D01*
X165690125Y-89957489D01*
X165700069Y-90026647D01*
X165671044Y-90090203D01*
X165648457Y-90110572D01*
X165590143Y-90151405D01*
X165548280Y-90180718D01*
X165390715Y-90338283D01*
X165348464Y-90398624D01*
X165293887Y-90442249D01*
X165246890Y-90451500D01*
X163855169Y-90451500D01*
X163847682Y-90451274D01*
X163786905Y-90447597D01*
X163727030Y-90458569D01*
X163719631Y-90459695D01*
X163659200Y-90467034D01*
X163649496Y-90470714D01*
X163627889Y-90476738D01*
X163617671Y-90478610D01*
X163562161Y-90503593D01*
X163555245Y-90506457D01*
X163498325Y-90528045D01*
X163489775Y-90533946D01*
X163470240Y-90544964D01*
X163460773Y-90549225D01*
X163412856Y-90586765D01*
X163406827Y-90591201D01*
X163356728Y-90625783D01*
X163316357Y-90671352D01*
X163311224Y-90676804D01*
X158683047Y-95304982D01*
X158621724Y-95338467D01*
X158621148Y-95338591D01*
X158467713Y-95371205D01*
X158293248Y-95448881D01*
X158138748Y-95561133D01*
X158010957Y-95703058D01*
X157915472Y-95868443D01*
X157856458Y-96050070D01*
X157836496Y-96240000D01*
X157856458Y-96429929D01*
X157915472Y-96611556D01*
X158010957Y-96776941D01*
X158015210Y-96781664D01*
X158138747Y-96918866D01*
X158283667Y-97024157D01*
X158293248Y-97031118D01*
X158467714Y-97108795D01*
X158654511Y-97148500D01*
X158654513Y-97148500D01*
X158845489Y-97148500D01*
X159032285Y-97108795D01*
X159032286Y-97108794D01*
X159032288Y-97108794D01*
X159206752Y-97031118D01*
X159361253Y-96918866D01*
X159489040Y-96776944D01*
X159495026Y-96766577D01*
X159584527Y-96611556D01*
X159643542Y-96429929D01*
X159648523Y-96382528D01*
X159675105Y-96317912D01*
X159684154Y-96307814D01*
X164087150Y-91904819D01*
X164148474Y-91871334D01*
X164174832Y-91868500D01*
X165246890Y-91868500D01*
X165313929Y-91888185D01*
X165348464Y-91921376D01*
X165390715Y-91981716D01*
X165548283Y-92139284D01*
X165730816Y-92267097D01*
X165838238Y-92317188D01*
X165932773Y-92361270D01*
X166148014Y-92418944D01*
X166296004Y-92431891D01*
X166369999Y-92438365D01*
X166369999Y-92438364D01*
X166370000Y-92438365D01*
X166427254Y-92433356D01*
X166566558Y-92421169D01*
X166635058Y-92434936D01*
X166665046Y-92457016D01*
X170593681Y-96385651D01*
X170627166Y-96446974D01*
X170630000Y-96473332D01*
X170630000Y-96479141D01*
X170610315Y-96546180D01*
X170557511Y-96591935D01*
X170488353Y-96601879D01*
X170473907Y-96598916D01*
X170410961Y-96582050D01*
X170179999Y-96561843D01*
X169949038Y-96582050D01*
X169725092Y-96642056D01*
X169514968Y-96740038D01*
X169436577Y-96794928D01*
X169436576Y-96794929D01*
X170008431Y-97366783D01*
X169891542Y-97417556D01*
X169774261Y-97512971D01*
X169687072Y-97636490D01*
X169656645Y-97722102D01*
X169083024Y-97148481D01*
X169083023Y-97148482D01*
X169028134Y-97226872D01*
X169022382Y-97239209D01*
X168976209Y-97291648D01*
X168909015Y-97310799D01*
X168842134Y-97290583D01*
X168797618Y-97239209D01*
X168791866Y-97226875D01*
X168736974Y-97148481D01*
X168165929Y-97719527D01*
X168163116Y-97705990D01*
X168093558Y-97571749D01*
X167990362Y-97461253D01*
X167861181Y-97382696D01*
X167809995Y-97368354D01*
X168383423Y-96794928D01*
X168305032Y-96740038D01*
X168094907Y-96642056D01*
X167870961Y-96582050D01*
X167640000Y-96561843D01*
X167409038Y-96582050D01*
X167185092Y-96642056D01*
X166974968Y-96740038D01*
X166896576Y-96794928D01*
X166896576Y-96794929D01*
X167468431Y-97366783D01*
X167351542Y-97417556D01*
X167234261Y-97512971D01*
X167147072Y-97636490D01*
X167116645Y-97722102D01*
X166543024Y-97148481D01*
X166543023Y-97148481D01*
X166488133Y-97226873D01*
X166390151Y-97436997D01*
X166330145Y-97660943D01*
X166309938Y-97891904D01*
X166330145Y-98122866D01*
X166390151Y-98346812D01*
X166488133Y-98556937D01*
X166543023Y-98635327D01*
X166543023Y-98635328D01*
X167114070Y-98064280D01*
X167116884Y-98077820D01*
X167186442Y-98212061D01*
X167289638Y-98322557D01*
X167418819Y-98401114D01*
X167470002Y-98415454D01*
X166896575Y-98988880D01*
X166896575Y-98988881D01*
X166974967Y-99043771D01*
X167185092Y-99141753D01*
X167409038Y-99201759D01*
X167640000Y-99221966D01*
X167870961Y-99201759D01*
X168094907Y-99141753D01*
X168305028Y-99043772D01*
X168383423Y-98988880D01*
X167811568Y-98417026D01*
X167928458Y-98366254D01*
X168045739Y-98270839D01*
X168132928Y-98147320D01*
X168163354Y-98061707D01*
X168736975Y-98635328D01*
X168791867Y-98556934D01*
X168797615Y-98544607D01*
X168843785Y-98492166D01*
X168910977Y-98473011D01*
X168977859Y-98493224D01*
X169022380Y-98544599D01*
X169028133Y-98556937D01*
X169083023Y-98635327D01*
X169083024Y-98635328D01*
X169654070Y-98064281D01*
X169656884Y-98077820D01*
X169726442Y-98212061D01*
X169829638Y-98322557D01*
X169958819Y-98401114D01*
X170010002Y-98415454D01*
X169436575Y-98988880D01*
X169436575Y-98988881D01*
X169514967Y-99043771D01*
X169725092Y-99141753D01*
X169949038Y-99201759D01*
X170180000Y-99221966D01*
X170410961Y-99201759D01*
X170634907Y-99141753D01*
X170845028Y-99043772D01*
X170923423Y-98988880D01*
X170351568Y-98417026D01*
X170468458Y-98366254D01*
X170585739Y-98270839D01*
X170672928Y-98147320D01*
X170703354Y-98061707D01*
X171276975Y-98635328D01*
X171331864Y-98556938D01*
X171332924Y-98554666D01*
X171335522Y-98551714D01*
X171338089Y-98548049D01*
X171338497Y-98548335D01*
X171379093Y-98502223D01*
X171446285Y-98483067D01*
X171513168Y-98503278D01*
X171557690Y-98554654D01*
X171560742Y-98561200D01*
X171669178Y-98716062D01*
X171694578Y-98752337D01*
X171859568Y-98917327D01*
X172050703Y-99051161D01*
X172262174Y-99149772D01*
X172487556Y-99210163D01*
X172720000Y-99230499D01*
X172952444Y-99210163D01*
X173177826Y-99149772D01*
X173389297Y-99051161D01*
X173580432Y-98917327D01*
X173745422Y-98752337D01*
X173879256Y-98561202D01*
X173879257Y-98561200D01*
X173885478Y-98552316D01*
X173887368Y-98553639D01*
X173923789Y-98512276D01*
X173990983Y-98493123D01*
X174057864Y-98513338D01*
X174092727Y-98553572D01*
X174094522Y-98552316D01*
X174100743Y-98561200D01*
X174100744Y-98561202D01*
X174234578Y-98752337D01*
X174399568Y-98917327D01*
X174590703Y-99051161D01*
X174802174Y-99149772D01*
X175027556Y-99210163D01*
X175182518Y-99223720D01*
X175259999Y-99230499D01*
X175259999Y-99230498D01*
X175260000Y-99230499D01*
X175492444Y-99210163D01*
X175665409Y-99163817D01*
X175735256Y-99165480D01*
X175793118Y-99204642D01*
X175820623Y-99268870D01*
X175821500Y-99283592D01*
X175821500Y-101580217D01*
X175801815Y-101647256D01*
X175749011Y-101693011D01*
X175679853Y-101702955D01*
X175665406Y-101699992D01*
X175492441Y-101653646D01*
X175259999Y-101633310D01*
X175027558Y-101653646D01*
X174802172Y-101714038D01*
X174590702Y-101812649D01*
X174399567Y-101946483D01*
X174234578Y-102111472D01*
X174094522Y-102311494D01*
X174092631Y-102310170D01*
X174056204Y-102351537D01*
X173989010Y-102370686D01*
X173922130Y-102350467D01*
X173887271Y-102310238D01*
X173885478Y-102311494D01*
X173851806Y-102263405D01*
X173745422Y-102111473D01*
X173580432Y-101946483D01*
X173389297Y-101812649D01*
X173281500Y-101762382D01*
X173177827Y-101714038D01*
X172952441Y-101653646D01*
X172719999Y-101633310D01*
X172487558Y-101653646D01*
X172262172Y-101714038D01*
X172050702Y-101812649D01*
X171859567Y-101946483D01*
X171694578Y-102111472D01*
X171554522Y-102311494D01*
X171552631Y-102310170D01*
X171516204Y-102351537D01*
X171449010Y-102370686D01*
X171382130Y-102350467D01*
X171347271Y-102310238D01*
X171345478Y-102311494D01*
X171311806Y-102263405D01*
X171205422Y-102111473D01*
X171040432Y-101946483D01*
X170849297Y-101812649D01*
X170741500Y-101762382D01*
X170637827Y-101714038D01*
X170412441Y-101653646D01*
X170180000Y-101633310D01*
X169936749Y-101654592D01*
X169936566Y-101652503D01*
X169880727Y-101651172D01*
X169830807Y-101620742D01*
X169473775Y-101263710D01*
X169468658Y-101258275D01*
X169428273Y-101212690D01*
X169428272Y-101212689D01*
X169428270Y-101212687D01*
X169378170Y-101178105D01*
X169372137Y-101173666D01*
X169324225Y-101136129D01*
X169314760Y-101131869D01*
X169295216Y-101120846D01*
X169286677Y-101114952D01*
X169286675Y-101114951D01*
X169229767Y-101093368D01*
X169222848Y-101090502D01*
X169167329Y-101065516D01*
X169157111Y-101063643D01*
X169135500Y-101057618D01*
X169125802Y-101053940D01*
X169065369Y-101046601D01*
X169057970Y-101045474D01*
X168998095Y-101034502D01*
X168937324Y-101038179D01*
X168929837Y-101038405D01*
X161159224Y-101038405D01*
X161092185Y-101018720D01*
X161046430Y-100965916D01*
X161036486Y-100896758D01*
X161057649Y-100843282D01*
X161154479Y-100704993D01*
X161250982Y-100498042D01*
X161310083Y-100277474D01*
X161329985Y-100050000D01*
X161310083Y-99822525D01*
X161250982Y-99601957D01*
X161154479Y-99395007D01*
X161102614Y-99320936D01*
X160533244Y-99890306D01*
X160528849Y-99869155D01*
X160461188Y-99738575D01*
X160360806Y-99631093D01*
X160235149Y-99554678D01*
X160177829Y-99538618D01*
X160749062Y-98967384D01*
X160674990Y-98915519D01*
X160468042Y-98819017D01*
X160247474Y-98759916D01*
X160019999Y-98740014D01*
X159792525Y-98759916D01*
X159571956Y-98819017D01*
X159365007Y-98915519D01*
X159290937Y-98967384D01*
X159290936Y-98967384D01*
X159859833Y-99536280D01*
X159739409Y-99588588D01*
X159625327Y-99681401D01*
X159540515Y-99801551D01*
X159508390Y-99891942D01*
X158937384Y-99320936D01*
X158937384Y-99320937D01*
X158885518Y-99395009D01*
X158867069Y-99434573D01*
X158820896Y-99487011D01*
X158753702Y-99506162D01*
X158686821Y-99485945D01*
X158642308Y-99434573D01*
X158621869Y-99390742D01*
X158490043Y-99202474D01*
X158327526Y-99039957D01*
X158139259Y-98908131D01*
X158005318Y-98845673D01*
X157930960Y-98810999D01*
X157708955Y-98751513D01*
X157479999Y-98731482D01*
X157246520Y-98751909D01*
X157178020Y-98738142D01*
X157148032Y-98716062D01*
X154233775Y-95801805D01*
X154228658Y-95796370D01*
X154188273Y-95750785D01*
X154188272Y-95750784D01*
X154188270Y-95750782D01*
X154138170Y-95716200D01*
X154132137Y-95711761D01*
X154084225Y-95674224D01*
X154074760Y-95669964D01*
X154055216Y-95658941D01*
X154046677Y-95653047D01*
X154046675Y-95653046D01*
X153989767Y-95631463D01*
X153982848Y-95628597D01*
X153927329Y-95603611D01*
X153917111Y-95601738D01*
X153895500Y-95595713D01*
X153885802Y-95592035D01*
X153825369Y-95584696D01*
X153817970Y-95583569D01*
X153758095Y-95572597D01*
X153697324Y-95576274D01*
X153689837Y-95576500D01*
X146141669Y-95576500D01*
X146134182Y-95576274D01*
X146073405Y-95572597D01*
X146013530Y-95583569D01*
X146006131Y-95584695D01*
X145945700Y-95592034D01*
X145935996Y-95595714D01*
X145914389Y-95601738D01*
X145904168Y-95603611D01*
X145848657Y-95628594D01*
X145841742Y-95631459D01*
X145784824Y-95653046D01*
X145776275Y-95658947D01*
X145756739Y-95669965D01*
X145747276Y-95674224D01*
X145699357Y-95711765D01*
X145693329Y-95716200D01*
X145643227Y-95750784D01*
X145602857Y-95796352D01*
X145597724Y-95801804D01*
X145240691Y-96158837D01*
X145179368Y-96192322D01*
X145134875Y-96191262D01*
X145134751Y-96192687D01*
X144891499Y-96171405D01*
X144659058Y-96191741D01*
X144433672Y-96252133D01*
X144222202Y-96350744D01*
X144031067Y-96484578D01*
X143866078Y-96649567D01*
X143726022Y-96849589D01*
X143724131Y-96848265D01*
X143687704Y-96889632D01*
X143620510Y-96908781D01*
X143553630Y-96888562D01*
X143518771Y-96848333D01*
X143516978Y-96849589D01*
X143466373Y-96777317D01*
X143376922Y-96649568D01*
X143211932Y-96484578D01*
X143020797Y-96350744D01*
X142943117Y-96314521D01*
X142809327Y-96252133D01*
X142583941Y-96191741D01*
X142351500Y-96171405D01*
X142108249Y-96192687D01*
X142108066Y-96190598D01*
X142052227Y-96189267D01*
X142002307Y-96158837D01*
X136520275Y-90676805D01*
X136515158Y-90671370D01*
X136474773Y-90625785D01*
X136474772Y-90625784D01*
X136474770Y-90625782D01*
X136424670Y-90591200D01*
X136418637Y-90586761D01*
X136370725Y-90549224D01*
X136361260Y-90544964D01*
X136341716Y-90533941D01*
X136333177Y-90528047D01*
X136333175Y-90528046D01*
X136276267Y-90506463D01*
X136269348Y-90503597D01*
X136213829Y-90478611D01*
X136203611Y-90476738D01*
X136182000Y-90470713D01*
X136172302Y-90467035D01*
X136111869Y-90459696D01*
X136104470Y-90458569D01*
X136044595Y-90447597D01*
X135983824Y-90451274D01*
X135976337Y-90451500D01*
X130254809Y-90451500D01*
X130187770Y-90431815D01*
X130142015Y-90379011D01*
X130132071Y-90309853D01*
X130147308Y-90274185D01*
X130144593Y-90272964D01*
X130150773Y-90259227D01*
X130150775Y-90259226D01*
X130155031Y-90249767D01*
X130166058Y-90230215D01*
X130171954Y-90221675D01*
X130193542Y-90164746D01*
X130196404Y-90157839D01*
X130221388Y-90102329D01*
X130223259Y-90092118D01*
X130229282Y-90070510D01*
X130232965Y-90060801D01*
X130240305Y-90000348D01*
X130241426Y-89992978D01*
X130252401Y-89933093D01*
X130248726Y-89872334D01*
X130248500Y-89864848D01*
X130248500Y-84663110D01*
X130268185Y-84596071D01*
X130301376Y-84561536D01*
X130325157Y-84544883D01*
X130361717Y-84519284D01*
X130519284Y-84361717D01*
X130647097Y-84179183D01*
X130741270Y-83977227D01*
X130798944Y-83761986D01*
X130818365Y-83540000D01*
X130798944Y-83318014D01*
X130741270Y-83102773D01*
X130647097Y-82900818D01*
X130519284Y-82718283D01*
X130361717Y-82560716D01*
X130361716Y-82560715D01*
X130179183Y-82432902D01*
X129977230Y-82338731D01*
X129977227Y-82338730D01*
X129869606Y-82309892D01*
X129761983Y-82281055D01*
X129540000Y-82261634D01*
X129318016Y-82281055D01*
X129102771Y-82338730D01*
X128933183Y-82417811D01*
X128900818Y-82432903D01*
X128718283Y-82560716D01*
X128718279Y-82560719D01*
X128560718Y-82718280D01*
X128560715Y-82718283D01*
X128560716Y-82718283D01*
X128490573Y-82818455D01*
X128435997Y-82862080D01*
X128366499Y-82869272D01*
X128304144Y-82837750D01*
X128268731Y-82777520D01*
X128265000Y-82747331D01*
X128265000Y-82730481D01*
X128264645Y-82723867D01*
X128258599Y-82667628D01*
X128208352Y-82532910D01*
X128122188Y-82417811D01*
X128007089Y-82331647D01*
X127872371Y-82281400D01*
X127816132Y-82275354D01*
X127809518Y-82275000D01*
X127250000Y-82275000D01*
X127250000Y-83093505D01*
X127145161Y-83045627D01*
X127036473Y-83030000D01*
X126963527Y-83030000D01*
X126854839Y-83045627D01*
X126750000Y-83093505D01*
X126750000Y-82275000D01*
X126190482Y-82275000D01*
X126183867Y-82275354D01*
X126127628Y-82281400D01*
X125992910Y-82331647D01*
X125877811Y-82417811D01*
X125791647Y-82532910D01*
X125741400Y-82667628D01*
X125735354Y-82723867D01*
X125735000Y-82730481D01*
X125735000Y-83290000D01*
X126554428Y-83290000D01*
X126531318Y-83325960D01*
X126490000Y-83466673D01*
X126490000Y-83613327D01*
X126531318Y-83754040D01*
X126554428Y-83790000D01*
X125735000Y-83790000D01*
X125735000Y-84349518D01*
X125735354Y-84356132D01*
X125741400Y-84412371D01*
X125791647Y-84547089D01*
X125877811Y-84662188D01*
X125992910Y-84748352D01*
X126127628Y-84798599D01*
X126183867Y-84804645D01*
X126190482Y-84805000D01*
X126750000Y-84805000D01*
X126750000Y-83986494D01*
X126854839Y-84034373D01*
X126963527Y-84050000D01*
X127036473Y-84050000D01*
X127145161Y-84034373D01*
X127250000Y-83986494D01*
X127250000Y-84805000D01*
X127809518Y-84805000D01*
X127816132Y-84804645D01*
X127872371Y-84798599D01*
X128007089Y-84748352D01*
X128122188Y-84662188D01*
X128208352Y-84547089D01*
X128258599Y-84412371D01*
X128264645Y-84356132D01*
X128265000Y-84349518D01*
X128265000Y-84332669D01*
X128284685Y-84265630D01*
X128337489Y-84219875D01*
X128406647Y-84209931D01*
X128470203Y-84238956D01*
X128490570Y-84261540D01*
X128560716Y-84361717D01*
X128560718Y-84361719D01*
X128718283Y-84519284D01*
X128778624Y-84561536D01*
X128822249Y-84616113D01*
X128831500Y-84663110D01*
X128831500Y-89545167D01*
X128811815Y-89612206D01*
X128795181Y-89632848D01*
X128597351Y-89830677D01*
X128536028Y-89864162D01*
X128498863Y-89866524D01*
X128270000Y-89846501D01*
X128041915Y-89866456D01*
X127820753Y-89925717D01*
X127613250Y-90022476D01*
X127599233Y-90032291D01*
X127533026Y-90054617D01*
X127465259Y-90037604D01*
X127428845Y-90005023D01*
X127427189Y-90002811D01*
X127312089Y-89916647D01*
X127177371Y-89866400D01*
X127121132Y-89860354D01*
X127114518Y-89860000D01*
X126520000Y-89860000D01*
X126520000Y-90844314D01*
X126508045Y-90832359D01*
X126395148Y-90774835D01*
X126301481Y-90760000D01*
X126238519Y-90760000D01*
X126144852Y-90774835D01*
X126031955Y-90832359D01*
X126020000Y-90844313D01*
X126020000Y-89860000D01*
X125425482Y-89860000D01*
X125418867Y-89860354D01*
X125362628Y-89866400D01*
X125227910Y-89916647D01*
X125112811Y-90002811D01*
X125026647Y-90117910D01*
X124976400Y-90252628D01*
X124970354Y-90308867D01*
X124970000Y-90315481D01*
X124970000Y-90910000D01*
X125954314Y-90910000D01*
X125942359Y-90921955D01*
X125884835Y-91034852D01*
X125865014Y-91160000D01*
X125884835Y-91285148D01*
X125942359Y-91398045D01*
X125954314Y-91410000D01*
X124970000Y-91410000D01*
X124970000Y-92004518D01*
X124970354Y-92011132D01*
X124976400Y-92067371D01*
X125026647Y-92202089D01*
X125112811Y-92317188D01*
X125227910Y-92403352D01*
X125362628Y-92453599D01*
X125418867Y-92459645D01*
X125425482Y-92460000D01*
X126020000Y-92460000D01*
X126020000Y-91475686D01*
X126031955Y-91487641D01*
X126144852Y-91545165D01*
X126238519Y-91560000D01*
X126301481Y-91560000D01*
X126395148Y-91545165D01*
X126508045Y-91487641D01*
X126520000Y-91475686D01*
X126520000Y-92460000D01*
X126998667Y-92460000D01*
X127065706Y-92479685D01*
X127111461Y-92532489D01*
X127121405Y-92601647D01*
X127092380Y-92665203D01*
X127086348Y-92671681D01*
X123443507Y-96314521D01*
X123382184Y-96348006D01*
X123345019Y-96350368D01*
X123190000Y-96336806D01*
X122975860Y-96355541D01*
X122768221Y-96411178D01*
X122573402Y-96502024D01*
X122397317Y-96625319D01*
X122245319Y-96777317D01*
X122122024Y-96953402D01*
X122031178Y-97148221D01*
X121975541Y-97355860D01*
X121956806Y-97570000D01*
X121975541Y-97784139D01*
X122031178Y-97991778D01*
X122103709Y-98147320D01*
X122122024Y-98186597D01*
X122245319Y-98362681D01*
X122397319Y-98514681D01*
X122573403Y-98637976D01*
X122742474Y-98716815D01*
X122775697Y-98732307D01*
X122828136Y-98778479D01*
X122847288Y-98845673D01*
X122827072Y-98912554D01*
X122775697Y-98957071D01*
X122577670Y-99049412D01*
X122521967Y-99088414D01*
X123083965Y-99650412D01*
X123056224Y-99654401D01*
X122933286Y-99710545D01*
X122831145Y-99799051D01*
X122758077Y-99912747D01*
X122731093Y-100004645D01*
X122168415Y-99441967D01*
X122168414Y-99441967D01*
X122129411Y-99497672D01*
X122039197Y-99691138D01*
X121983944Y-99897342D01*
X121965339Y-100110000D01*
X121983944Y-100322657D01*
X122039197Y-100528861D01*
X122129410Y-100722326D01*
X122168415Y-100778030D01*
X122168416Y-100778031D01*
X122731092Y-100215354D01*
X122758077Y-100307253D01*
X122831145Y-100420949D01*
X122933286Y-100509455D01*
X123056224Y-100565599D01*
X123083965Y-100569587D01*
X122521967Y-101131583D01*
X122577669Y-101170586D01*
X122775697Y-101262928D01*
X122828136Y-101309100D01*
X122847288Y-101376294D01*
X122827072Y-101443175D01*
X122775697Y-101487692D01*
X122573402Y-101582024D01*
X122397317Y-101705319D01*
X122245319Y-101857317D01*
X122122024Y-102033402D01*
X122031178Y-102228221D01*
X121975541Y-102435860D01*
X121956806Y-102650000D01*
X118110500Y-102650000D01*
X118110500Y-79730000D01*
X132576641Y-79730000D01*
X132576822Y-79733338D01*
X132576822Y-79733356D01*
X132595881Y-80084878D01*
X132595882Y-80084894D01*
X132596064Y-80088237D01*
X132596606Y-80091547D01*
X132596607Y-80091550D01*
X132653561Y-80438960D01*
X132653563Y-80438972D01*
X132654105Y-80442274D01*
X132655001Y-80445503D01*
X132655004Y-80445514D01*
X132730884Y-80718806D01*
X132750085Y-80787961D01*
X132882877Y-81121243D01*
X132884447Y-81124205D01*
X132884452Y-81124215D01*
X133004356Y-81350377D01*
X133050925Y-81438215D01*
X133252258Y-81735159D01*
X133484516Y-82008595D01*
X133486947Y-82010898D01*
X133486953Y-82010904D01*
X133666533Y-82181011D01*
X133744977Y-82255317D01*
X134030586Y-82472431D01*
X134337995Y-82657393D01*
X134663599Y-82808033D01*
X135003583Y-82922587D01*
X135353958Y-82999711D01*
X135710618Y-83038500D01*
X135713976Y-83038500D01*
X136066024Y-83038500D01*
X136069382Y-83038500D01*
X136426042Y-82999711D01*
X136776417Y-82922587D01*
X137116401Y-82808033D01*
X137442005Y-82657393D01*
X137749414Y-82472431D01*
X138035023Y-82255317D01*
X138295484Y-82008595D01*
X138527742Y-81735159D01*
X138729075Y-81438215D01*
X138897123Y-81121243D01*
X139029915Y-80787961D01*
X139125895Y-80442274D01*
X139183936Y-80088237D01*
X139203359Y-79730000D01*
X139183936Y-79371763D01*
X139125895Y-79017726D01*
X139029915Y-78672039D01*
X138897123Y-78338757D01*
X138729075Y-78021785D01*
X138527742Y-77724841D01*
X138295484Y-77451405D01*
X138293051Y-77449100D01*
X138293046Y-77449095D01*
X138037453Y-77206985D01*
X138035023Y-77204683D01*
X137749414Y-76987569D01*
X137746540Y-76985840D01*
X137746536Y-76985837D01*
X137444887Y-76804341D01*
X137444886Y-76804340D01*
X137442005Y-76802607D01*
X137116401Y-76651967D01*
X137023957Y-76620819D01*
X136779591Y-76538482D01*
X136779583Y-76538479D01*
X136776417Y-76537413D01*
X136773150Y-76536694D01*
X136773147Y-76536693D01*
X136429323Y-76461011D01*
X136429319Y-76461010D01*
X136426042Y-76460289D01*
X136422706Y-76459926D01*
X136422699Y-76459925D01*
X136072720Y-76421863D01*
X136072719Y-76421862D01*
X136069382Y-76421500D01*
X135710618Y-76421500D01*
X135707281Y-76421862D01*
X135707279Y-76421863D01*
X135357300Y-76459925D01*
X135357290Y-76459926D01*
X135353958Y-76460289D01*
X135350683Y-76461009D01*
X135350676Y-76461011D01*
X135006852Y-76536693D01*
X135006844Y-76536695D01*
X135003583Y-76537413D01*
X135000421Y-76538478D01*
X135000408Y-76538482D01*
X134666786Y-76650893D01*
X134666783Y-76650894D01*
X134663599Y-76651967D01*
X134660550Y-76653377D01*
X134660544Y-76653380D01*
X134341050Y-76801193D01*
X134341040Y-76801197D01*
X134337995Y-76802607D01*
X134335121Y-76804336D01*
X134335112Y-76804341D01*
X134033463Y-76985837D01*
X134033450Y-76985845D01*
X134030586Y-76987569D01*
X134027928Y-76989589D01*
X134027917Y-76989597D01*
X133747636Y-77202661D01*
X133747628Y-77202667D01*
X133744977Y-77204683D01*
X133742553Y-77206978D01*
X133742546Y-77206985D01*
X133486953Y-77449095D01*
X133486938Y-77449110D01*
X133484516Y-77451405D01*
X133482353Y-77453950D01*
X133482342Y-77453963D01*
X133254431Y-77722282D01*
X133254425Y-77722289D01*
X133252258Y-77724841D01*
X133250378Y-77727613D01*
X133250371Y-77727623D01*
X133052815Y-78018996D01*
X133052807Y-78019008D01*
X133050925Y-78021785D01*
X133049350Y-78024755D01*
X133049348Y-78024759D01*
X132884452Y-78335784D01*
X132884443Y-78335801D01*
X132882877Y-78338757D01*
X132881636Y-78341869D01*
X132881632Y-78341880D01*
X132751330Y-78668913D01*
X132751327Y-78668921D01*
X132750085Y-78672039D01*
X132749185Y-78675277D01*
X132749185Y-78675280D01*
X132655004Y-79014485D01*
X132655000Y-79014500D01*
X132654105Y-79017726D01*
X132653564Y-79021023D01*
X132653561Y-79021039D01*
X132596607Y-79368449D01*
X132596064Y-79371763D01*
X132595882Y-79375103D01*
X132595881Y-79375121D01*
X132576822Y-79726643D01*
X132576822Y-79726661D01*
X132576641Y-79730000D01*
X118110500Y-79730000D01*
X118110500Y-76044500D01*
X118130185Y-75977461D01*
X118182989Y-75931706D01*
X118234500Y-75920500D01*
X182755500Y-75920500D01*
X182822539Y-75940185D01*
G37*
%TD.AperFunction*%
%TD*%
M02*
