%TF.GenerationSoftware,KiCad,Pcbnew,8.0.0*%
%TF.CreationDate,2024-04-17T16:53:56+02:00*%
%TF.ProjectId,Carte LED,43617274-6520-44c4-9544-2e6b69636164,rev?*%
%TF.SameCoordinates,Original*%
%TF.FileFunction,Drillmap*%
%TF.FilePolarity,Positive*%
%FSLAX45Y45*%
G04 Gerber Fmt 4.5, Leading zero omitted, Abs format (unit mm)*
G04 Created by KiCad (PCBNEW 8.0.0) date 2024-04-17 16:53:56*
%MOMM*%
%LPD*%
G01*
G04 APERTURE LIST*
%ADD10C,0.100000*%
%ADD11C,0.200000*%
G04 APERTURE END LIST*
D10*
X10096500Y-8826500D02*
X18923000Y-8826500D01*
X18923000Y-9779000D01*
X10096500Y-9779000D01*
X10096500Y-8826500D01*
D11*
D10*
X10304000Y-8970500D02*
X10397000Y-9063500D01*
X10397000Y-8970500D02*
X10304000Y-9063500D01*
X10304000Y-9161000D02*
X10397000Y-9254000D01*
X10397000Y-9161000D02*
X10304000Y-9254000D01*
X10304000Y-9351500D02*
X10397000Y-9444500D01*
X10397000Y-9351500D02*
X10304000Y-9444500D01*
X10304000Y-9542000D02*
X10397000Y-9635000D01*
X10397000Y-9542000D02*
X10304000Y-9635000D01*
X10558000Y-9097500D02*
X10651000Y-9190500D01*
X10651000Y-9097500D02*
X10558000Y-9190500D01*
X10558000Y-9415000D02*
X10651000Y-9508000D01*
X10651000Y-9415000D02*
X10558000Y-9508000D01*
X10812000Y-9097500D02*
X10905000Y-9190500D01*
X10905000Y-9097500D02*
X10812000Y-9190500D01*
X10812000Y-9288000D02*
X10905000Y-9381000D01*
X10905000Y-9288000D02*
X10812000Y-9381000D01*
X10812000Y-9478500D02*
X10905000Y-9571500D01*
X10905000Y-9478500D02*
X10812000Y-9571500D01*
X11066000Y-9097500D02*
X11159000Y-9190500D01*
X11159000Y-9097500D02*
X11066000Y-9190500D01*
X11066000Y-9288000D02*
X11159000Y-9381000D01*
X11159000Y-9288000D02*
X11066000Y-9381000D01*
X11574000Y-9224500D02*
X11667000Y-9317500D01*
X11667000Y-9224500D02*
X11574000Y-9317500D01*
X11574000Y-9478500D02*
X11667000Y-9571500D01*
X11667000Y-9478500D02*
X11574000Y-9571500D01*
X12336000Y-9224500D02*
X12429000Y-9317500D01*
X12429000Y-9224500D02*
X12336000Y-9317500D01*
X12336000Y-9478500D02*
X12429000Y-9571500D01*
X12429000Y-9478500D02*
X12336000Y-9571500D01*
X13098000Y-9224500D02*
X13191000Y-9317500D01*
X13191000Y-9224500D02*
X13098000Y-9317500D01*
X13098000Y-9478500D02*
X13191000Y-9571500D01*
X13191000Y-9478500D02*
X13098000Y-9571500D01*
X13860000Y-9224500D02*
X13953000Y-9317500D01*
X13953000Y-9224500D02*
X13860000Y-9317500D01*
X13860000Y-9478500D02*
X13953000Y-9571500D01*
X13953000Y-9478500D02*
X13860000Y-9571500D01*
X14622000Y-9224500D02*
X14715000Y-9317500D01*
X14715000Y-9224500D02*
X14622000Y-9317500D01*
X14622000Y-9478500D02*
X14715000Y-9571500D01*
X14715000Y-9478500D02*
X14622000Y-9571500D01*
X15384000Y-9224500D02*
X15477000Y-9317500D01*
X15477000Y-9224500D02*
X15384000Y-9317500D01*
X15384000Y-9478500D02*
X15477000Y-9571500D01*
X15477000Y-9478500D02*
X15384000Y-9571500D01*
X16146000Y-9224500D02*
X16239000Y-9317500D01*
X16239000Y-9224500D02*
X16146000Y-9317500D01*
X16146000Y-9478500D02*
X16239000Y-9571500D01*
X16239000Y-9478500D02*
X16146000Y-9571500D01*
X16908000Y-9224500D02*
X17001000Y-9317500D01*
X17001000Y-9224500D02*
X16908000Y-9317500D01*
X16908000Y-9478500D02*
X17001000Y-9571500D01*
X17001000Y-9478500D02*
X16908000Y-9571500D01*
X17670000Y-9224500D02*
X17763000Y-9317500D01*
X17763000Y-9224500D02*
X17670000Y-9317500D01*
X17670000Y-9478500D02*
X17763000Y-9571500D01*
X17763000Y-9478500D02*
X17670000Y-9571500D01*
X18432000Y-9224500D02*
X18525000Y-9317500D01*
X18525000Y-9224500D02*
X18432000Y-9317500D01*
X18432000Y-9478500D02*
X18525000Y-9571500D01*
X18525000Y-9478500D02*
X18432000Y-9571500D01*
D11*
X10352277Y-10095484D02*
X10352277Y-9895484D01*
X10352277Y-9895484D02*
X10399896Y-9895484D01*
X10399896Y-9895484D02*
X10428467Y-9905008D01*
X10428467Y-9905008D02*
X10447515Y-9924055D01*
X10447515Y-9924055D02*
X10457039Y-9943103D01*
X10457039Y-9943103D02*
X10466563Y-9981198D01*
X10466563Y-9981198D02*
X10466563Y-10009770D01*
X10466563Y-10009770D02*
X10457039Y-10047865D01*
X10457039Y-10047865D02*
X10447515Y-10066912D01*
X10447515Y-10066912D02*
X10428467Y-10085960D01*
X10428467Y-10085960D02*
X10399896Y-10095484D01*
X10399896Y-10095484D02*
X10352277Y-10095484D01*
X10552277Y-10095484D02*
X10552277Y-9962150D01*
X10552277Y-10000246D02*
X10561801Y-9981198D01*
X10561801Y-9981198D02*
X10571324Y-9971674D01*
X10571324Y-9971674D02*
X10590372Y-9962150D01*
X10590372Y-9962150D02*
X10609420Y-9962150D01*
X10676086Y-10095484D02*
X10676086Y-9962150D01*
X10676086Y-9895484D02*
X10666563Y-9905008D01*
X10666563Y-9905008D02*
X10676086Y-9914531D01*
X10676086Y-9914531D02*
X10685610Y-9905008D01*
X10685610Y-9905008D02*
X10676086Y-9895484D01*
X10676086Y-9895484D02*
X10676086Y-9914531D01*
X10799896Y-10095484D02*
X10780848Y-10085960D01*
X10780848Y-10085960D02*
X10771324Y-10066912D01*
X10771324Y-10066912D02*
X10771324Y-9895484D01*
X10904658Y-10095484D02*
X10885610Y-10085960D01*
X10885610Y-10085960D02*
X10876086Y-10066912D01*
X10876086Y-10066912D02*
X10876086Y-9895484D01*
X11133229Y-10095484D02*
X11133229Y-9895484D01*
X11133229Y-9895484D02*
X11199896Y-10038341D01*
X11199896Y-10038341D02*
X11266562Y-9895484D01*
X11266562Y-9895484D02*
X11266562Y-10095484D01*
X11447515Y-10095484D02*
X11447515Y-9990722D01*
X11447515Y-9990722D02*
X11437991Y-9971674D01*
X11437991Y-9971674D02*
X11418943Y-9962150D01*
X11418943Y-9962150D02*
X11380848Y-9962150D01*
X11380848Y-9962150D02*
X11361801Y-9971674D01*
X11447515Y-10085960D02*
X11428467Y-10095484D01*
X11428467Y-10095484D02*
X11380848Y-10095484D01*
X11380848Y-10095484D02*
X11361801Y-10085960D01*
X11361801Y-10085960D02*
X11352277Y-10066912D01*
X11352277Y-10066912D02*
X11352277Y-10047865D01*
X11352277Y-10047865D02*
X11361801Y-10028817D01*
X11361801Y-10028817D02*
X11380848Y-10019293D01*
X11380848Y-10019293D02*
X11428467Y-10019293D01*
X11428467Y-10019293D02*
X11447515Y-10009770D01*
X11542753Y-9962150D02*
X11542753Y-10162150D01*
X11542753Y-9971674D02*
X11561801Y-9962150D01*
X11561801Y-9962150D02*
X11599896Y-9962150D01*
X11599896Y-9962150D02*
X11618943Y-9971674D01*
X11618943Y-9971674D02*
X11628467Y-9981198D01*
X11628467Y-9981198D02*
X11637991Y-10000246D01*
X11637991Y-10000246D02*
X11637991Y-10057389D01*
X11637991Y-10057389D02*
X11628467Y-10076436D01*
X11628467Y-10076436D02*
X11618943Y-10085960D01*
X11618943Y-10085960D02*
X11599896Y-10095484D01*
X11599896Y-10095484D02*
X11561801Y-10095484D01*
X11561801Y-10095484D02*
X11542753Y-10085960D01*
X11723705Y-10076436D02*
X11733229Y-10085960D01*
X11733229Y-10085960D02*
X11723705Y-10095484D01*
X11723705Y-10095484D02*
X11714182Y-10085960D01*
X11714182Y-10085960D02*
X11723705Y-10076436D01*
X11723705Y-10076436D02*
X11723705Y-10095484D01*
X11723705Y-9971674D02*
X11733229Y-9981198D01*
X11733229Y-9981198D02*
X11723705Y-9990722D01*
X11723705Y-9990722D02*
X11714182Y-9981198D01*
X11714182Y-9981198D02*
X11723705Y-9971674D01*
X11723705Y-9971674D02*
X11723705Y-9990722D01*
D10*
X9998500Y-10377500D02*
X10091500Y-10470500D01*
X10091500Y-10377500D02*
X9998500Y-10470500D01*
D11*
X10390372Y-10315484D02*
X10409420Y-10315484D01*
X10409420Y-10315484D02*
X10428467Y-10325008D01*
X10428467Y-10325008D02*
X10437991Y-10334531D01*
X10437991Y-10334531D02*
X10447515Y-10353579D01*
X10447515Y-10353579D02*
X10457039Y-10391674D01*
X10457039Y-10391674D02*
X10457039Y-10439293D01*
X10457039Y-10439293D02*
X10447515Y-10477389D01*
X10447515Y-10477389D02*
X10437991Y-10496436D01*
X10437991Y-10496436D02*
X10428467Y-10505960D01*
X10428467Y-10505960D02*
X10409420Y-10515484D01*
X10409420Y-10515484D02*
X10390372Y-10515484D01*
X10390372Y-10515484D02*
X10371324Y-10505960D01*
X10371324Y-10505960D02*
X10361801Y-10496436D01*
X10361801Y-10496436D02*
X10352277Y-10477389D01*
X10352277Y-10477389D02*
X10342753Y-10439293D01*
X10342753Y-10439293D02*
X10342753Y-10391674D01*
X10342753Y-10391674D02*
X10352277Y-10353579D01*
X10352277Y-10353579D02*
X10361801Y-10334531D01*
X10361801Y-10334531D02*
X10371324Y-10325008D01*
X10371324Y-10325008D02*
X10390372Y-10315484D01*
X10542753Y-10496436D02*
X10552277Y-10505960D01*
X10552277Y-10505960D02*
X10542753Y-10515484D01*
X10542753Y-10515484D02*
X10533229Y-10505960D01*
X10533229Y-10505960D02*
X10542753Y-10496436D01*
X10542753Y-10496436D02*
X10542753Y-10515484D01*
X10647515Y-10515484D02*
X10685610Y-10515484D01*
X10685610Y-10515484D02*
X10704658Y-10505960D01*
X10704658Y-10505960D02*
X10714182Y-10496436D01*
X10714182Y-10496436D02*
X10733229Y-10467865D01*
X10733229Y-10467865D02*
X10742753Y-10429770D01*
X10742753Y-10429770D02*
X10742753Y-10353579D01*
X10742753Y-10353579D02*
X10733229Y-10334531D01*
X10733229Y-10334531D02*
X10723705Y-10325008D01*
X10723705Y-10325008D02*
X10704658Y-10315484D01*
X10704658Y-10315484D02*
X10666563Y-10315484D01*
X10666563Y-10315484D02*
X10647515Y-10325008D01*
X10647515Y-10325008D02*
X10637991Y-10334531D01*
X10637991Y-10334531D02*
X10628467Y-10353579D01*
X10628467Y-10353579D02*
X10628467Y-10401198D01*
X10628467Y-10401198D02*
X10637991Y-10420246D01*
X10637991Y-10420246D02*
X10647515Y-10429770D01*
X10647515Y-10429770D02*
X10666563Y-10439293D01*
X10666563Y-10439293D02*
X10704658Y-10439293D01*
X10704658Y-10439293D02*
X10723705Y-10429770D01*
X10723705Y-10429770D02*
X10733229Y-10420246D01*
X10733229Y-10420246D02*
X10742753Y-10401198D01*
X10809420Y-10315484D02*
X10933229Y-10315484D01*
X10933229Y-10315484D02*
X10866563Y-10391674D01*
X10866563Y-10391674D02*
X10895134Y-10391674D01*
X10895134Y-10391674D02*
X10914182Y-10401198D01*
X10914182Y-10401198D02*
X10923705Y-10410722D01*
X10923705Y-10410722D02*
X10933229Y-10429770D01*
X10933229Y-10429770D02*
X10933229Y-10477389D01*
X10933229Y-10477389D02*
X10923705Y-10496436D01*
X10923705Y-10496436D02*
X10914182Y-10505960D01*
X10914182Y-10505960D02*
X10895134Y-10515484D01*
X10895134Y-10515484D02*
X10837991Y-10515484D01*
X10837991Y-10515484D02*
X10818944Y-10505960D01*
X10818944Y-10505960D02*
X10809420Y-10496436D01*
X11057039Y-10315484D02*
X11076086Y-10315484D01*
X11076086Y-10315484D02*
X11095134Y-10325008D01*
X11095134Y-10325008D02*
X11104658Y-10334531D01*
X11104658Y-10334531D02*
X11114182Y-10353579D01*
X11114182Y-10353579D02*
X11123705Y-10391674D01*
X11123705Y-10391674D02*
X11123705Y-10439293D01*
X11123705Y-10439293D02*
X11114182Y-10477389D01*
X11114182Y-10477389D02*
X11104658Y-10496436D01*
X11104658Y-10496436D02*
X11095134Y-10505960D01*
X11095134Y-10505960D02*
X11076086Y-10515484D01*
X11076086Y-10515484D02*
X11057039Y-10515484D01*
X11057039Y-10515484D02*
X11037991Y-10505960D01*
X11037991Y-10505960D02*
X11028467Y-10496436D01*
X11028467Y-10496436D02*
X11018944Y-10477389D01*
X11018944Y-10477389D02*
X11009420Y-10439293D01*
X11009420Y-10439293D02*
X11009420Y-10391674D01*
X11009420Y-10391674D02*
X11018944Y-10353579D01*
X11018944Y-10353579D02*
X11028467Y-10334531D01*
X11028467Y-10334531D02*
X11037991Y-10325008D01*
X11037991Y-10325008D02*
X11057039Y-10315484D01*
X11209420Y-10515484D02*
X11209420Y-10382150D01*
X11209420Y-10401198D02*
X11218943Y-10391674D01*
X11218943Y-10391674D02*
X11237991Y-10382150D01*
X11237991Y-10382150D02*
X11266563Y-10382150D01*
X11266563Y-10382150D02*
X11285610Y-10391674D01*
X11285610Y-10391674D02*
X11295134Y-10410722D01*
X11295134Y-10410722D02*
X11295134Y-10515484D01*
X11295134Y-10410722D02*
X11304658Y-10391674D01*
X11304658Y-10391674D02*
X11323705Y-10382150D01*
X11323705Y-10382150D02*
X11352277Y-10382150D01*
X11352277Y-10382150D02*
X11371324Y-10391674D01*
X11371324Y-10391674D02*
X11380848Y-10410722D01*
X11380848Y-10410722D02*
X11380848Y-10515484D01*
X11476086Y-10515484D02*
X11476086Y-10382150D01*
X11476086Y-10401198D02*
X11485610Y-10391674D01*
X11485610Y-10391674D02*
X11504658Y-10382150D01*
X11504658Y-10382150D02*
X11533229Y-10382150D01*
X11533229Y-10382150D02*
X11552277Y-10391674D01*
X11552277Y-10391674D02*
X11561801Y-10410722D01*
X11561801Y-10410722D02*
X11561801Y-10515484D01*
X11561801Y-10410722D02*
X11571324Y-10391674D01*
X11571324Y-10391674D02*
X11590372Y-10382150D01*
X11590372Y-10382150D02*
X11618943Y-10382150D01*
X11618943Y-10382150D02*
X11637991Y-10391674D01*
X11637991Y-10391674D02*
X11647515Y-10410722D01*
X11647515Y-10410722D02*
X11647515Y-10515484D01*
X12037991Y-10305960D02*
X11866563Y-10563103D01*
X12295134Y-10315484D02*
X12314182Y-10315484D01*
X12314182Y-10315484D02*
X12333229Y-10325008D01*
X12333229Y-10325008D02*
X12342753Y-10334531D01*
X12342753Y-10334531D02*
X12352277Y-10353579D01*
X12352277Y-10353579D02*
X12361801Y-10391674D01*
X12361801Y-10391674D02*
X12361801Y-10439293D01*
X12361801Y-10439293D02*
X12352277Y-10477389D01*
X12352277Y-10477389D02*
X12342753Y-10496436D01*
X12342753Y-10496436D02*
X12333229Y-10505960D01*
X12333229Y-10505960D02*
X12314182Y-10515484D01*
X12314182Y-10515484D02*
X12295134Y-10515484D01*
X12295134Y-10515484D02*
X12276086Y-10505960D01*
X12276086Y-10505960D02*
X12266563Y-10496436D01*
X12266563Y-10496436D02*
X12257039Y-10477389D01*
X12257039Y-10477389D02*
X12247515Y-10439293D01*
X12247515Y-10439293D02*
X12247515Y-10391674D01*
X12247515Y-10391674D02*
X12257039Y-10353579D01*
X12257039Y-10353579D02*
X12266563Y-10334531D01*
X12266563Y-10334531D02*
X12276086Y-10325008D01*
X12276086Y-10325008D02*
X12295134Y-10315484D01*
X12447515Y-10496436D02*
X12457039Y-10505960D01*
X12457039Y-10505960D02*
X12447515Y-10515484D01*
X12447515Y-10515484D02*
X12437991Y-10505960D01*
X12437991Y-10505960D02*
X12447515Y-10496436D01*
X12447515Y-10496436D02*
X12447515Y-10515484D01*
X12580848Y-10315484D02*
X12599896Y-10315484D01*
X12599896Y-10315484D02*
X12618944Y-10325008D01*
X12618944Y-10325008D02*
X12628467Y-10334531D01*
X12628467Y-10334531D02*
X12637991Y-10353579D01*
X12637991Y-10353579D02*
X12647515Y-10391674D01*
X12647515Y-10391674D02*
X12647515Y-10439293D01*
X12647515Y-10439293D02*
X12637991Y-10477389D01*
X12637991Y-10477389D02*
X12628467Y-10496436D01*
X12628467Y-10496436D02*
X12618944Y-10505960D01*
X12618944Y-10505960D02*
X12599896Y-10515484D01*
X12599896Y-10515484D02*
X12580848Y-10515484D01*
X12580848Y-10515484D02*
X12561801Y-10505960D01*
X12561801Y-10505960D02*
X12552277Y-10496436D01*
X12552277Y-10496436D02*
X12542753Y-10477389D01*
X12542753Y-10477389D02*
X12533229Y-10439293D01*
X12533229Y-10439293D02*
X12533229Y-10391674D01*
X12533229Y-10391674D02*
X12542753Y-10353579D01*
X12542753Y-10353579D02*
X12552277Y-10334531D01*
X12552277Y-10334531D02*
X12561801Y-10325008D01*
X12561801Y-10325008D02*
X12580848Y-10315484D01*
X12714182Y-10315484D02*
X12837991Y-10315484D01*
X12837991Y-10315484D02*
X12771325Y-10391674D01*
X12771325Y-10391674D02*
X12799896Y-10391674D01*
X12799896Y-10391674D02*
X12818944Y-10401198D01*
X12818944Y-10401198D02*
X12828467Y-10410722D01*
X12828467Y-10410722D02*
X12837991Y-10429770D01*
X12837991Y-10429770D02*
X12837991Y-10477389D01*
X12837991Y-10477389D02*
X12828467Y-10496436D01*
X12828467Y-10496436D02*
X12818944Y-10505960D01*
X12818944Y-10505960D02*
X12799896Y-10515484D01*
X12799896Y-10515484D02*
X12742753Y-10515484D01*
X12742753Y-10515484D02*
X12723706Y-10505960D01*
X12723706Y-10505960D02*
X12714182Y-10496436D01*
X13009420Y-10315484D02*
X12971325Y-10315484D01*
X12971325Y-10315484D02*
X12952277Y-10325008D01*
X12952277Y-10325008D02*
X12942753Y-10334531D01*
X12942753Y-10334531D02*
X12923706Y-10363103D01*
X12923706Y-10363103D02*
X12914182Y-10401198D01*
X12914182Y-10401198D02*
X12914182Y-10477389D01*
X12914182Y-10477389D02*
X12923706Y-10496436D01*
X12923706Y-10496436D02*
X12933229Y-10505960D01*
X12933229Y-10505960D02*
X12952277Y-10515484D01*
X12952277Y-10515484D02*
X12990372Y-10515484D01*
X12990372Y-10515484D02*
X13009420Y-10505960D01*
X13009420Y-10505960D02*
X13018944Y-10496436D01*
X13018944Y-10496436D02*
X13028467Y-10477389D01*
X13028467Y-10477389D02*
X13028467Y-10429770D01*
X13028467Y-10429770D02*
X13018944Y-10410722D01*
X13018944Y-10410722D02*
X13009420Y-10401198D01*
X13009420Y-10401198D02*
X12990372Y-10391674D01*
X12990372Y-10391674D02*
X12952277Y-10391674D01*
X12952277Y-10391674D02*
X12933229Y-10401198D01*
X12933229Y-10401198D02*
X12923706Y-10410722D01*
X12923706Y-10410722D02*
X12914182Y-10429770D01*
X13199896Y-10315484D02*
X13161801Y-10315484D01*
X13161801Y-10315484D02*
X13142753Y-10325008D01*
X13142753Y-10325008D02*
X13133229Y-10334531D01*
X13133229Y-10334531D02*
X13114182Y-10363103D01*
X13114182Y-10363103D02*
X13104658Y-10401198D01*
X13104658Y-10401198D02*
X13104658Y-10477389D01*
X13104658Y-10477389D02*
X13114182Y-10496436D01*
X13114182Y-10496436D02*
X13123706Y-10505960D01*
X13123706Y-10505960D02*
X13142753Y-10515484D01*
X13142753Y-10515484D02*
X13180848Y-10515484D01*
X13180848Y-10515484D02*
X13199896Y-10505960D01*
X13199896Y-10505960D02*
X13209420Y-10496436D01*
X13209420Y-10496436D02*
X13218944Y-10477389D01*
X13218944Y-10477389D02*
X13218944Y-10429770D01*
X13218944Y-10429770D02*
X13209420Y-10410722D01*
X13209420Y-10410722D02*
X13199896Y-10401198D01*
X13199896Y-10401198D02*
X13180848Y-10391674D01*
X13180848Y-10391674D02*
X13142753Y-10391674D01*
X13142753Y-10391674D02*
X13123706Y-10401198D01*
X13123706Y-10401198D02*
X13114182Y-10410722D01*
X13114182Y-10410722D02*
X13104658Y-10429770D01*
X13295134Y-10315484D02*
X13295134Y-10353579D01*
X13371325Y-10315484D02*
X13371325Y-10353579D01*
X13666563Y-10591674D02*
X13657039Y-10582150D01*
X13657039Y-10582150D02*
X13637991Y-10553579D01*
X13637991Y-10553579D02*
X13628468Y-10534531D01*
X13628468Y-10534531D02*
X13618944Y-10505960D01*
X13618944Y-10505960D02*
X13609420Y-10458341D01*
X13609420Y-10458341D02*
X13609420Y-10420246D01*
X13609420Y-10420246D02*
X13618944Y-10372627D01*
X13618944Y-10372627D02*
X13628468Y-10344055D01*
X13628468Y-10344055D02*
X13637991Y-10325008D01*
X13637991Y-10325008D02*
X13657039Y-10296436D01*
X13657039Y-10296436D02*
X13666563Y-10286912D01*
X13723706Y-10315484D02*
X13847515Y-10315484D01*
X13847515Y-10315484D02*
X13780848Y-10391674D01*
X13780848Y-10391674D02*
X13809420Y-10391674D01*
X13809420Y-10391674D02*
X13828468Y-10401198D01*
X13828468Y-10401198D02*
X13837991Y-10410722D01*
X13837991Y-10410722D02*
X13847515Y-10429770D01*
X13847515Y-10429770D02*
X13847515Y-10477389D01*
X13847515Y-10477389D02*
X13837991Y-10496436D01*
X13837991Y-10496436D02*
X13828468Y-10505960D01*
X13828468Y-10505960D02*
X13809420Y-10515484D01*
X13809420Y-10515484D02*
X13752277Y-10515484D01*
X13752277Y-10515484D02*
X13733229Y-10505960D01*
X13733229Y-10505960D02*
X13723706Y-10496436D01*
X14037991Y-10515484D02*
X13923706Y-10515484D01*
X13980848Y-10515484D02*
X13980848Y-10315484D01*
X13980848Y-10315484D02*
X13961801Y-10344055D01*
X13961801Y-10344055D02*
X13942753Y-10363103D01*
X13942753Y-10363103D02*
X13923706Y-10372627D01*
X14276087Y-10515484D02*
X14276087Y-10315484D01*
X14361801Y-10515484D02*
X14361801Y-10410722D01*
X14361801Y-10410722D02*
X14352277Y-10391674D01*
X14352277Y-10391674D02*
X14333230Y-10382150D01*
X14333230Y-10382150D02*
X14304658Y-10382150D01*
X14304658Y-10382150D02*
X14285610Y-10391674D01*
X14285610Y-10391674D02*
X14276087Y-10401198D01*
X14485610Y-10515484D02*
X14466563Y-10505960D01*
X14466563Y-10505960D02*
X14457039Y-10496436D01*
X14457039Y-10496436D02*
X14447515Y-10477389D01*
X14447515Y-10477389D02*
X14447515Y-10420246D01*
X14447515Y-10420246D02*
X14457039Y-10401198D01*
X14457039Y-10401198D02*
X14466563Y-10391674D01*
X14466563Y-10391674D02*
X14485610Y-10382150D01*
X14485610Y-10382150D02*
X14514182Y-10382150D01*
X14514182Y-10382150D02*
X14533230Y-10391674D01*
X14533230Y-10391674D02*
X14542753Y-10401198D01*
X14542753Y-10401198D02*
X14552277Y-10420246D01*
X14552277Y-10420246D02*
X14552277Y-10477389D01*
X14552277Y-10477389D02*
X14542753Y-10496436D01*
X14542753Y-10496436D02*
X14533230Y-10505960D01*
X14533230Y-10505960D02*
X14514182Y-10515484D01*
X14514182Y-10515484D02*
X14485610Y-10515484D01*
X14666563Y-10515484D02*
X14647515Y-10505960D01*
X14647515Y-10505960D02*
X14637991Y-10486912D01*
X14637991Y-10486912D02*
X14637991Y-10315484D01*
X14818944Y-10505960D02*
X14799896Y-10515484D01*
X14799896Y-10515484D02*
X14761801Y-10515484D01*
X14761801Y-10515484D02*
X14742753Y-10505960D01*
X14742753Y-10505960D02*
X14733230Y-10486912D01*
X14733230Y-10486912D02*
X14733230Y-10410722D01*
X14733230Y-10410722D02*
X14742753Y-10391674D01*
X14742753Y-10391674D02*
X14761801Y-10382150D01*
X14761801Y-10382150D02*
X14799896Y-10382150D01*
X14799896Y-10382150D02*
X14818944Y-10391674D01*
X14818944Y-10391674D02*
X14828468Y-10410722D01*
X14828468Y-10410722D02*
X14828468Y-10429770D01*
X14828468Y-10429770D02*
X14733230Y-10448817D01*
X14904658Y-10505960D02*
X14923706Y-10515484D01*
X14923706Y-10515484D02*
X14961801Y-10515484D01*
X14961801Y-10515484D02*
X14980849Y-10505960D01*
X14980849Y-10505960D02*
X14990372Y-10486912D01*
X14990372Y-10486912D02*
X14990372Y-10477389D01*
X14990372Y-10477389D02*
X14980849Y-10458341D01*
X14980849Y-10458341D02*
X14961801Y-10448817D01*
X14961801Y-10448817D02*
X14933230Y-10448817D01*
X14933230Y-10448817D02*
X14914182Y-10439293D01*
X14914182Y-10439293D02*
X14904658Y-10420246D01*
X14904658Y-10420246D02*
X14904658Y-10410722D01*
X14904658Y-10410722D02*
X14914182Y-10391674D01*
X14914182Y-10391674D02*
X14933230Y-10382150D01*
X14933230Y-10382150D02*
X14961801Y-10382150D01*
X14961801Y-10382150D02*
X14980849Y-10391674D01*
X15057039Y-10591674D02*
X15066563Y-10582150D01*
X15066563Y-10582150D02*
X15085611Y-10553579D01*
X15085611Y-10553579D02*
X15095134Y-10534531D01*
X15095134Y-10534531D02*
X15104658Y-10505960D01*
X15104658Y-10505960D02*
X15114182Y-10458341D01*
X15114182Y-10458341D02*
X15114182Y-10420246D01*
X15114182Y-10420246D02*
X15104658Y-10372627D01*
X15104658Y-10372627D02*
X15095134Y-10344055D01*
X15095134Y-10344055D02*
X15085611Y-10325008D01*
X15085611Y-10325008D02*
X15066563Y-10296436D01*
X15066563Y-10296436D02*
X15057039Y-10286912D01*
M02*
