%TF.GenerationSoftware,KiCad,Pcbnew,8.0.0*%
%TF.CreationDate,2024-04-17T16:53:56+02:00*%
%TF.ProjectId,Carte LED,43617274-6520-44c4-9544-2e6b69636164,rev?*%
%TF.SameCoordinates,Original*%
%TF.FileFunction,Drillmap*%
%TF.FilePolarity,Positive*%
%FSLAX45Y45*%
G04 Gerber Fmt 4.5, Leading zero omitted, Abs format (unit mm)*
G04 Created by KiCad (PCBNEW 8.0.0) date 2024-04-17 16:53:56*
%MOMM*%
%LPD*%
G01*
G04 APERTURE LIST*
%ADD10C,0.100000*%
%ADD11C,0.200000*%
G04 APERTURE END LIST*
D10*
X10096500Y-8826500D02*
X18923000Y-8826500D01*
X18923000Y-9779000D01*
X10096500Y-9779000D01*
X10096500Y-8826500D01*
D11*
X10352277Y-10095484D02*
X10352277Y-9895484D01*
X10352277Y-9895484D02*
X10399896Y-9895484D01*
X10399896Y-9895484D02*
X10428467Y-9905008D01*
X10428467Y-9905008D02*
X10447515Y-9924055D01*
X10447515Y-9924055D02*
X10457039Y-9943103D01*
X10457039Y-9943103D02*
X10466563Y-9981198D01*
X10466563Y-9981198D02*
X10466563Y-10009770D01*
X10466563Y-10009770D02*
X10457039Y-10047865D01*
X10457039Y-10047865D02*
X10447515Y-10066912D01*
X10447515Y-10066912D02*
X10428467Y-10085960D01*
X10428467Y-10085960D02*
X10399896Y-10095484D01*
X10399896Y-10095484D02*
X10352277Y-10095484D01*
X10552277Y-10095484D02*
X10552277Y-9962150D01*
X10552277Y-10000246D02*
X10561801Y-9981198D01*
X10561801Y-9981198D02*
X10571324Y-9971674D01*
X10571324Y-9971674D02*
X10590372Y-9962150D01*
X10590372Y-9962150D02*
X10609420Y-9962150D01*
X10676086Y-10095484D02*
X10676086Y-9962150D01*
X10676086Y-9895484D02*
X10666563Y-9905008D01*
X10666563Y-9905008D02*
X10676086Y-9914531D01*
X10676086Y-9914531D02*
X10685610Y-9905008D01*
X10685610Y-9905008D02*
X10676086Y-9895484D01*
X10676086Y-9895484D02*
X10676086Y-9914531D01*
X10799896Y-10095484D02*
X10780848Y-10085960D01*
X10780848Y-10085960D02*
X10771324Y-10066912D01*
X10771324Y-10066912D02*
X10771324Y-9895484D01*
X10904658Y-10095484D02*
X10885610Y-10085960D01*
X10885610Y-10085960D02*
X10876086Y-10066912D01*
X10876086Y-10066912D02*
X10876086Y-9895484D01*
X11133229Y-10095484D02*
X11133229Y-9895484D01*
X11133229Y-9895484D02*
X11199896Y-10038341D01*
X11199896Y-10038341D02*
X11266562Y-9895484D01*
X11266562Y-9895484D02*
X11266562Y-10095484D01*
X11447515Y-10095484D02*
X11447515Y-9990722D01*
X11447515Y-9990722D02*
X11437991Y-9971674D01*
X11437991Y-9971674D02*
X11418943Y-9962150D01*
X11418943Y-9962150D02*
X11380848Y-9962150D01*
X11380848Y-9962150D02*
X11361801Y-9971674D01*
X11447515Y-10085960D02*
X11428467Y-10095484D01*
X11428467Y-10095484D02*
X11380848Y-10095484D01*
X11380848Y-10095484D02*
X11361801Y-10085960D01*
X11361801Y-10085960D02*
X11352277Y-10066912D01*
X11352277Y-10066912D02*
X11352277Y-10047865D01*
X11352277Y-10047865D02*
X11361801Y-10028817D01*
X11361801Y-10028817D02*
X11380848Y-10019293D01*
X11380848Y-10019293D02*
X11428467Y-10019293D01*
X11428467Y-10019293D02*
X11447515Y-10009770D01*
X11542753Y-9962150D02*
X11542753Y-10162150D01*
X11542753Y-9971674D02*
X11561801Y-9962150D01*
X11561801Y-9962150D02*
X11599896Y-9962150D01*
X11599896Y-9962150D02*
X11618943Y-9971674D01*
X11618943Y-9971674D02*
X11628467Y-9981198D01*
X11628467Y-9981198D02*
X11637991Y-10000246D01*
X11637991Y-10000246D02*
X11637991Y-10057389D01*
X11637991Y-10057389D02*
X11628467Y-10076436D01*
X11628467Y-10076436D02*
X11618943Y-10085960D01*
X11618943Y-10085960D02*
X11599896Y-10095484D01*
X11599896Y-10095484D02*
X11561801Y-10095484D01*
X11561801Y-10095484D02*
X11542753Y-10085960D01*
X11723705Y-10076436D02*
X11733229Y-10085960D01*
X11733229Y-10085960D02*
X11723705Y-10095484D01*
X11723705Y-10095484D02*
X11714182Y-10085960D01*
X11714182Y-10085960D02*
X11723705Y-10076436D01*
X11723705Y-10076436D02*
X11723705Y-10095484D01*
X11723705Y-9971674D02*
X11733229Y-9981198D01*
X11733229Y-9981198D02*
X11723705Y-9990722D01*
X11723705Y-9990722D02*
X11714182Y-9981198D01*
X11714182Y-9981198D02*
X11723705Y-9971674D01*
X11723705Y-9971674D02*
X11723705Y-9990722D01*
M02*
