%TF.GenerationSoftware,KiCad,Pcbnew,7.0.2*%
%TF.CreationDate,2023-06-01T11:51:48+02:00*%
%TF.ProjectId,Indicator_voltage,496e6469-6361-4746-9f72-5f766f6c7461,rev?*%
%TF.SameCoordinates,Original*%
%TF.FileFunction,Soldermask,Top*%
%TF.FilePolarity,Negative*%
%FSLAX46Y46*%
G04 Gerber Fmt 4.6, Leading zero omitted, Abs format (unit mm)*
G04 Created by KiCad (PCBNEW 7.0.2) date 2023-06-01 11:51:48*
%MOMM*%
%LPD*%
G01*
G04 APERTURE LIST*
G04 Aperture macros list*
%AMRoundRect*
0 Rectangle with rounded corners*
0 $1 Rounding radius*
0 $2 $3 $4 $5 $6 $7 $8 $9 X,Y pos of 4 corners*
0 Add a 4 corners polygon primitive as box body*
4,1,4,$2,$3,$4,$5,$6,$7,$8,$9,$2,$3,0*
0 Add four circle primitives for the rounded corners*
1,1,$1+$1,$2,$3*
1,1,$1+$1,$4,$5*
1,1,$1+$1,$6,$7*
1,1,$1+$1,$8,$9*
0 Add four rect primitives between the rounded corners*
20,1,$1+$1,$2,$3,$4,$5,0*
20,1,$1+$1,$4,$5,$6,$7,0*
20,1,$1+$1,$6,$7,$8,$9,0*
20,1,$1+$1,$8,$9,$2,$3,0*%
G04 Aperture macros list end*
%ADD10R,1.300000X0.600000*%
%ADD11R,1.800000X1.050000*%
%ADD12RoundRect,0.250000X-1.750000X-1.750000X1.750000X-1.750000X1.750000X1.750000X-1.750000X1.750000X0*%
%ADD13R,1.050000X1.800000*%
%ADD14R,1.358000X1.358000*%
%ADD15C,1.358000*%
%ADD16C,5.600000*%
%ADD17R,1.530000X1.530000*%
%ADD18C,1.530000*%
%ADD19R,1.150000X0.600000*%
G04 APERTURE END LIST*
D10*
%TO.C,Q1*%
X167420000Y-109180000D03*
X167420000Y-107280000D03*
X165320000Y-108230000D03*
%TD*%
D11*
%TO.C,R4*%
X143510000Y-119940000D03*
X143510000Y-116840000D03*
%TD*%
D12*
%TO.C,TP3*%
X121920000Y-91720000D03*
%TD*%
D11*
%TO.C,R7*%
X166370000Y-117400000D03*
X166370000Y-114300000D03*
%TD*%
D13*
%TO.C,R8*%
X159030000Y-115850000D03*
X155930000Y-115850000D03*
%TD*%
D14*
%TO.C,PS1*%
X132010000Y-110760000D03*
D15*
X159950000Y-110760000D03*
X159950000Y-95540000D03*
X134550000Y-95540000D03*
X132010000Y-95540000D03*
%TD*%
D16*
%TO.C,*%
X167640000Y-92990000D03*
%TD*%
D13*
%TO.C,R13*%
X131090000Y-118390000D03*
X127990000Y-118390000D03*
%TD*%
D11*
%TO.C,R14*%
X129540000Y-125020000D03*
X129540000Y-121920000D03*
%TD*%
D13*
%TO.C,R9*%
X145060000Y-124740000D03*
X141960000Y-124740000D03*
%TD*%
D11*
%TO.C,R1*%
X151130000Y-116840000D03*
X151130000Y-119940000D03*
%TD*%
D17*
%TO.C,J7*%
X166370000Y-100610000D03*
D18*
X168910000Y-100610000D03*
%TD*%
D16*
%TO.C,*%
X121920000Y-109500000D03*
%TD*%
D13*
%TO.C,R6*%
X137440000Y-123470000D03*
X134340000Y-123470000D03*
%TD*%
D12*
%TO.C,TP1*%
X121920000Y-123470000D03*
%TD*%
D13*
%TO.C,R2*%
X122910000Y-114580000D03*
X126010000Y-114580000D03*
%TD*%
D16*
%TO.C,*%
X167640000Y-123470000D03*
%TD*%
D19*
%TO.C,CP1*%
X152430000Y-124420000D03*
X152430000Y-123470000D03*
X152430000Y-122520000D03*
X149830000Y-122520000D03*
X149830000Y-124420000D03*
%TD*%
D13*
%TO.C,R5*%
X157200000Y-120930000D03*
X160300000Y-120930000D03*
%TD*%
D11*
%TO.C,R12*%
X137160000Y-116840000D03*
X137160000Y-119940000D03*
%TD*%
D13*
%TO.C,R3*%
X122630000Y-98070000D03*
X125730000Y-98070000D03*
%TD*%
%TO.C,R11*%
X122630000Y-103150000D03*
X125730000Y-103150000D03*
%TD*%
M02*
