M48
; DRILL file {KiCad 8.0.2} date 2024-06-17T10:51:35+0200
; FORMAT={-:-/ absolute / inch / decimal}
; #@! TF.CreationDate,2024-06-17T10:51:35+02:00
; #@! TF.GenerationSoftware,Kicad,Pcbnew,8.0.2
; #@! TF.FileFunction,Plated,1,2,PTH
FMAT,2
INCH
; #@! TA.AperFunction,Plated,PTH,ViaDrill
T1C0.0157
; #@! TA.AperFunction,Plated,PTH,ComponentDrill
T2C0.0315
; #@! TA.AperFunction,Plated,PTH,ComponentDrill
T3C0.0370
; #@! TA.AperFunction,Plated,PTH,ComponentDrill
T4C0.0394
; #@! TA.AperFunction,Plated,PTH,ComponentDrill
T5C0.0402
; #@! TA.AperFunction,Plated,PTH,ComponentDrill
T6C0.0551
; #@! TA.AperFunction,Plated,PTH,ComponentDrill
T7C0.0917
; #@! TA.AperFunction,Plated,PTH,ComponentDrill
T8C0.1260
%
G90
G05
T1
X6.0039Y-4.3701
X6.4094Y-4.0079
X6.5199Y-3.85
X6.6732Y-3.248
X6.7126Y-3.7992
X6.818Y-3.152
X6.8504Y-3.7598
X6.922Y-3.378
X6.9364Y-3.9755
X7.0276Y-2.6772
X7.0472Y-3.0512
X7.198Y-3.915
X7.216Y-3.554
X7.216Y-3.98
X7.2441Y-3.8386
X7.308Y-3.582
X7.3819Y-4.2126
X7.482Y-4.078
X7.5394Y-2.7756
X7.6772Y-3.7402
X7.6772Y-4.1535
X7.684Y-4.074
X7.6969Y-3.7992
X7.7165Y-3.4252
X7.844Y-3.9
X7.8937Y-4.0945
X7.9331Y-3.6024
X7.9921Y-3.3071
T2
X6.326Y-4.331
X6.4047Y-4.331
T3
X6.782Y-4.24
X6.782Y-4.34
X6.782Y-4.44
T4
X6.63Y-3.488
X6.63Y-3.688
X6.83Y-3.488
X6.83Y-3.688
X6.93Y-3.488
X6.93Y-3.688
X7.03Y-3.488
X7.03Y-3.688
X7.13Y-3.488
X7.13Y-3.688
X7.296Y-3.488
X7.296Y-3.688
X7.396Y-3.488
X7.396Y-3.688
X7.496Y-3.488
X7.496Y-3.688
X7.596Y-3.488
X7.596Y-3.688
X7.796Y-3.488
X7.796Y-3.688
T5
X5.7833Y-4.6171
X5.8425Y-4.2598
X5.8425Y-4.3598
X5.8833Y-4.6171
X5.9055Y-2.7402
X5.9055Y-2.8402
X6.3307Y-4.6112
X6.4307Y-4.6112
X7.048Y-4.467
X7.148Y-4.467
X7.282Y-2.79
X7.282Y-2.89
X7.282Y-2.99
X7.282Y-3.09
X7.315Y-4.4724
X7.415Y-4.4724
X7.8541Y-4.6033
X7.9541Y-4.6033
T6
X5.939Y-4.0821
X5.9409Y-3.4291
X6.1752Y-4.0821
X6.1772Y-3.4291
T7
X5.8603Y-3.905
X5.8622Y-3.252
X6.0571Y-3.6924
X6.0591Y-3.0394
X6.2815Y-3.905
X6.2835Y-3.252
T8
X6.1024Y-4.6063
X6.2835Y-2.7717
X7.6457Y-4.622
X7.8346Y-2.7795
M30
