%TF.GenerationSoftware,KiCad,Pcbnew,9.0.1*%
%TF.CreationDate,2025-04-28T22:46:39+02:00*%
%TF.ProjectId,SCS-maker,5343532d-6d61-46b6-9572-2e6b69636164,rev?*%
%TF.SameCoordinates,Original*%
%TF.FileFunction,Legend,Top*%
%TF.FilePolarity,Positive*%
%FSLAX46Y46*%
G04 Gerber Fmt 4.6, Leading zero omitted, Abs format (unit mm)*
G04 Created by KiCad (PCBNEW 9.0.1) date 2025-04-28 22:46:39*
%MOMM*%
%LPD*%
G01*
G04 APERTURE LIST*
G04 Aperture macros list*
%AMRoundRect*
0 Rectangle with rounded corners*
0 $1 Rounding radius*
0 $2 $3 $4 $5 $6 $7 $8 $9 X,Y pos of 4 corners*
0 Add a 4 corners polygon primitive as box body*
4,1,4,$2,$3,$4,$5,$6,$7,$8,$9,$2,$3,0*
0 Add four circle primitives for the rounded corners*
1,1,$1+$1,$2,$3*
1,1,$1+$1,$4,$5*
1,1,$1+$1,$6,$7*
1,1,$1+$1,$8,$9*
0 Add four rect primitives between the rounded corners*
20,1,$1+$1,$2,$3,$4,$5,0*
20,1,$1+$1,$4,$5,$6,$7,0*
20,1,$1+$1,$6,$7,$8,$9,0*
20,1,$1+$1,$8,$9,$2,$3,0*%
%AMFreePoly0*
4,1,123,0.971755,0.948895,1.016180,0.945771,1.060427,0.940564,1.104369,0.933299,1.147930,0.923952,1.190983,0.912598,1.233477,0.899238,1.275286,0.883896,1.316332,0.866599,1.356541,0.847422,1.395784,0.826365,1.434011,0.803480,1.471120,0.778842,1.507036,0.752502,1.541656,0.724511,1.574956,0.694895,1.606807,0.663780,1.637186,0.631191,1.665989,0.597231,1.693167,0.561951,
1.718669,0.525425,1.742418,0.487757,1.764389,0.448997,1.784531,0.409271,1.802769,0.329972,2.700102,0.329972,2.700102,-0.330023,1.802769,-0.330023,1.784531,-0.409373,1.764389,-0.449098,1.742418,-0.487859,1.718669,-0.525527,1.693167,-0.562052,1.665989,-0.597333,1.637186,-0.631293,1.606807,-0.663881,1.574956,-0.694996,1.541656,-0.724613,1.507036,-0.752604,1.471120,-0.778943,
1.434011,-0.803581,1.395784,-0.826467,1.356541,-0.847523,1.316332,-0.866701,1.275286,-0.883998,1.233477,-0.899340,1.190983,-0.912700,1.147930,-0.924054,1.104369,-0.933401,1.060427,-0.940665,1.016180,-0.945872,0.971755,-0.948997,0.927229,-0.950064,-0.926975,-0.950064,-0.971501,-0.948997,-1.015926,-0.945872,-1.060173,-0.940665,-1.104115,-0.933401,-1.147676,-0.924054,-1.190729,-0.912700,
-1.233223,-0.899340,-1.275032,-0.883998,-1.316078,-0.866701,-1.356287,-0.847523,-1.395530,-0.826467,-1.433757,-0.803581,-1.470866,-0.778943,-1.506782,-0.752604,-1.541402,-0.724613,-1.574702,-0.694996,-1.606553,-0.663881,-1.636932,-0.631293,-1.665735,-0.597333,-1.692913,-0.562052,-1.718415,-0.525527,-1.742164,-0.487859,-1.764135,-0.449098,-1.784277,-0.409373,-1.802515,-0.368733,-1.818847,-0.327305,
-1.833198,-0.285141,-1.845568,-0.242342,-1.855906,-0.199009,-1.864211,-0.155271,-1.870460,-0.111151,-1.874625,-0.066802,-1.876708,-0.022327,-1.876708,0.022225,-1.874625,0.066701,-1.870460,0.111049,-1.864211,0.155169,-1.855906,0.198908,-1.845568,0.242240,-1.833198,0.285039,-1.818847,0.327203,-1.802515,0.368631,-1.784277,0.409271,-1.764135,0.448997,-1.742164,0.487757,-1.718415,0.525425,
-1.692913,0.561951,-1.665735,0.597231,-1.636932,0.631191,-1.606553,0.663780,-1.574702,0.694895,-1.541402,0.724511,-1.506782,0.752502,-1.470866,0.778842,-1.433757,0.803480,-1.395530,0.826365,-1.356287,0.847422,-1.316078,0.866599,-1.275032,0.883896,-1.233223,0.899238,-1.190729,0.912598,-1.147676,0.923952,-1.104115,0.933299,-1.060173,0.940564,-1.015926,0.945771,-0.971501,0.948895,
-0.926975,0.950000,0.927229,0.950000,0.971755,0.948895,0.971755,0.948895,$1*%
G04 Aperture macros list end*
%ADD10C,0.150000*%
%ADD11C,0.120000*%
%ADD12RoundRect,0.250000X-0.620000X-0.845000X0.620000X-0.845000X0.620000X0.845000X-0.620000X0.845000X0*%
%ADD13O,1.740000X2.190000*%
%ADD14C,3.200000*%
%ADD15RoundRect,0.269000X-0.494000X0.269000X-0.494000X-0.269000X0.494000X-0.269000X0.494000X0.269000X0*%
%ADD16RoundRect,0.267317X-0.280683X-0.470683X0.280683X-0.470683X0.280683X0.470683X-0.280683X0.470683X0*%
%ADD17RoundRect,0.167500X0.167500X-0.622500X0.167500X0.622500X-0.167500X0.622500X-0.167500X-0.622500X0*%
%ADD18FreePoly0,90.000000*%
%ADD19C,0.500000*%
%ADD20RoundRect,0.267317X0.280683X0.470683X-0.280683X0.470683X-0.280683X-0.470683X0.280683X-0.470683X0*%
%ADD21RoundRect,0.250000X0.620000X0.845000X-0.620000X0.845000X-0.620000X-0.845000X0.620000X-0.845000X0*%
G04 APERTURE END LIST*
D10*
X67738666Y-42578819D02*
X67738666Y-43293104D01*
X67738666Y-43293104D02*
X67691047Y-43435961D01*
X67691047Y-43435961D02*
X67595809Y-43531200D01*
X67595809Y-43531200D02*
X67452952Y-43578819D01*
X67452952Y-43578819D02*
X67357714Y-43578819D01*
X68167238Y-42674057D02*
X68214857Y-42626438D01*
X68214857Y-42626438D02*
X68310095Y-42578819D01*
X68310095Y-42578819D02*
X68548190Y-42578819D01*
X68548190Y-42578819D02*
X68643428Y-42626438D01*
X68643428Y-42626438D02*
X68691047Y-42674057D01*
X68691047Y-42674057D02*
X68738666Y-42769295D01*
X68738666Y-42769295D02*
X68738666Y-42864533D01*
X68738666Y-42864533D02*
X68691047Y-43007390D01*
X68691047Y-43007390D02*
X68119619Y-43578819D01*
X68119619Y-43578819D02*
X68738666Y-43578819D01*
X73799866Y-41416019D02*
X73466533Y-40939828D01*
X73228438Y-41416019D02*
X73228438Y-40416019D01*
X73228438Y-40416019D02*
X73609390Y-40416019D01*
X73609390Y-40416019D02*
X73704628Y-40463638D01*
X73704628Y-40463638D02*
X73752247Y-40511257D01*
X73752247Y-40511257D02*
X73799866Y-40606495D01*
X73799866Y-40606495D02*
X73799866Y-40749352D01*
X73799866Y-40749352D02*
X73752247Y-40844590D01*
X73752247Y-40844590D02*
X73704628Y-40892209D01*
X73704628Y-40892209D02*
X73609390Y-40939828D01*
X73609390Y-40939828D02*
X73228438Y-40939828D01*
X74228438Y-40892209D02*
X74561771Y-40892209D01*
X74704628Y-41416019D02*
X74228438Y-41416019D01*
X74228438Y-41416019D02*
X74228438Y-40416019D01*
X74228438Y-40416019D02*
X74704628Y-40416019D01*
X75466533Y-40892209D02*
X75133200Y-40892209D01*
X75133200Y-41416019D02*
X75133200Y-40416019D01*
X75133200Y-40416019D02*
X75609390Y-40416019D01*
X76133200Y-40416019D02*
X76133200Y-40654114D01*
X75895105Y-40558876D02*
X76133200Y-40654114D01*
X76133200Y-40654114D02*
X76371295Y-40558876D01*
X75990343Y-40844590D02*
X76133200Y-40654114D01*
X76133200Y-40654114D02*
X76276057Y-40844590D01*
X76895105Y-40416019D02*
X76895105Y-40654114D01*
X76657010Y-40558876D02*
X76895105Y-40654114D01*
X76895105Y-40654114D02*
X77133200Y-40558876D01*
X76752248Y-40844590D02*
X76895105Y-40654114D01*
X76895105Y-40654114D02*
X77037962Y-40844590D01*
X64269580Y-48680666D02*
X64317200Y-48728285D01*
X64317200Y-48728285D02*
X64364819Y-48871142D01*
X64364819Y-48871142D02*
X64364819Y-48966380D01*
X64364819Y-48966380D02*
X64317200Y-49109237D01*
X64317200Y-49109237D02*
X64221961Y-49204475D01*
X64221961Y-49204475D02*
X64126723Y-49252094D01*
X64126723Y-49252094D02*
X63936247Y-49299713D01*
X63936247Y-49299713D02*
X63793390Y-49299713D01*
X63793390Y-49299713D02*
X63602914Y-49252094D01*
X63602914Y-49252094D02*
X63507676Y-49204475D01*
X63507676Y-49204475D02*
X63412438Y-49109237D01*
X63412438Y-49109237D02*
X63364819Y-48966380D01*
X63364819Y-48966380D02*
X63364819Y-48871142D01*
X63364819Y-48871142D02*
X63412438Y-48728285D01*
X63412438Y-48728285D02*
X63460057Y-48680666D01*
X63460057Y-48299713D02*
X63412438Y-48252094D01*
X63412438Y-48252094D02*
X63364819Y-48156856D01*
X63364819Y-48156856D02*
X63364819Y-47918761D01*
X63364819Y-47918761D02*
X63412438Y-47823523D01*
X63412438Y-47823523D02*
X63460057Y-47775904D01*
X63460057Y-47775904D02*
X63555295Y-47728285D01*
X63555295Y-47728285D02*
X63650533Y-47728285D01*
X63650533Y-47728285D02*
X63793390Y-47775904D01*
X63793390Y-47775904D02*
X64364819Y-48347332D01*
X64364819Y-48347332D02*
X64364819Y-47728285D01*
X53093580Y-49188666D02*
X53141200Y-49236285D01*
X53141200Y-49236285D02*
X53188819Y-49379142D01*
X53188819Y-49379142D02*
X53188819Y-49474380D01*
X53188819Y-49474380D02*
X53141200Y-49617237D01*
X53141200Y-49617237D02*
X53045961Y-49712475D01*
X53045961Y-49712475D02*
X52950723Y-49760094D01*
X52950723Y-49760094D02*
X52760247Y-49807713D01*
X52760247Y-49807713D02*
X52617390Y-49807713D01*
X52617390Y-49807713D02*
X52426914Y-49760094D01*
X52426914Y-49760094D02*
X52331676Y-49712475D01*
X52331676Y-49712475D02*
X52236438Y-49617237D01*
X52236438Y-49617237D02*
X52188819Y-49474380D01*
X52188819Y-49474380D02*
X52188819Y-49379142D01*
X52188819Y-49379142D02*
X52236438Y-49236285D01*
X52236438Y-49236285D02*
X52284057Y-49188666D01*
X53188819Y-48236285D02*
X53188819Y-48807713D01*
X53188819Y-48521999D02*
X52188819Y-48521999D01*
X52188819Y-48521999D02*
X52331676Y-48617237D01*
X52331676Y-48617237D02*
X52426914Y-48712475D01*
X52426914Y-48712475D02*
X52474533Y-48807713D01*
X66106333Y-39317819D02*
X65773000Y-38841628D01*
X65534905Y-39317819D02*
X65534905Y-38317819D01*
X65534905Y-38317819D02*
X65915857Y-38317819D01*
X65915857Y-38317819D02*
X66011095Y-38365438D01*
X66011095Y-38365438D02*
X66058714Y-38413057D01*
X66058714Y-38413057D02*
X66106333Y-38508295D01*
X66106333Y-38508295D02*
X66106333Y-38651152D01*
X66106333Y-38651152D02*
X66058714Y-38746390D01*
X66058714Y-38746390D02*
X66011095Y-38794009D01*
X66011095Y-38794009D02*
X65915857Y-38841628D01*
X65915857Y-38841628D02*
X65534905Y-38841628D01*
X67058714Y-39317819D02*
X66487286Y-39317819D01*
X66773000Y-39317819D02*
X66773000Y-38317819D01*
X66773000Y-38317819D02*
X66677762Y-38460676D01*
X66677762Y-38460676D02*
X66582524Y-38555914D01*
X66582524Y-38555914D02*
X66487286Y-38603533D01*
X60793333Y-42744819D02*
X60460000Y-42268628D01*
X60221905Y-42744819D02*
X60221905Y-41744819D01*
X60221905Y-41744819D02*
X60602857Y-41744819D01*
X60602857Y-41744819D02*
X60698095Y-41792438D01*
X60698095Y-41792438D02*
X60745714Y-41840057D01*
X60745714Y-41840057D02*
X60793333Y-41935295D01*
X60793333Y-41935295D02*
X60793333Y-42078152D01*
X60793333Y-42078152D02*
X60745714Y-42173390D01*
X60745714Y-42173390D02*
X60698095Y-42221009D01*
X60698095Y-42221009D02*
X60602857Y-42268628D01*
X60602857Y-42268628D02*
X60221905Y-42268628D01*
X61126667Y-41744819D02*
X61745714Y-41744819D01*
X61745714Y-41744819D02*
X61412381Y-42125771D01*
X61412381Y-42125771D02*
X61555238Y-42125771D01*
X61555238Y-42125771D02*
X61650476Y-42173390D01*
X61650476Y-42173390D02*
X61698095Y-42221009D01*
X61698095Y-42221009D02*
X61745714Y-42316247D01*
X61745714Y-42316247D02*
X61745714Y-42554342D01*
X61745714Y-42554342D02*
X61698095Y-42649580D01*
X61698095Y-42649580D02*
X61650476Y-42697200D01*
X61650476Y-42697200D02*
X61555238Y-42744819D01*
X61555238Y-42744819D02*
X61269524Y-42744819D01*
X61269524Y-42744819D02*
X61174286Y-42697200D01*
X61174286Y-42697200D02*
X61126667Y-42649580D01*
X54149666Y-45357819D02*
X54149666Y-46072104D01*
X54149666Y-46072104D02*
X54102047Y-46214961D01*
X54102047Y-46214961D02*
X54006809Y-46310200D01*
X54006809Y-46310200D02*
X53863952Y-46357819D01*
X53863952Y-46357819D02*
X53768714Y-46357819D01*
X55149666Y-46357819D02*
X54578238Y-46357819D01*
X54863952Y-46357819D02*
X54863952Y-45357819D01*
X54863952Y-45357819D02*
X54768714Y-45500676D01*
X54768714Y-45500676D02*
X54673476Y-45595914D01*
X54673476Y-45595914D02*
X54578238Y-45643533D01*
X46367866Y-40755619D02*
X46034533Y-40279428D01*
X45796438Y-40755619D02*
X45796438Y-39755619D01*
X45796438Y-39755619D02*
X46177390Y-39755619D01*
X46177390Y-39755619D02*
X46272628Y-39803238D01*
X46272628Y-39803238D02*
X46320247Y-39850857D01*
X46320247Y-39850857D02*
X46367866Y-39946095D01*
X46367866Y-39946095D02*
X46367866Y-40088952D01*
X46367866Y-40088952D02*
X46320247Y-40184190D01*
X46320247Y-40184190D02*
X46272628Y-40231809D01*
X46272628Y-40231809D02*
X46177390Y-40279428D01*
X46177390Y-40279428D02*
X45796438Y-40279428D01*
X46796438Y-40231809D02*
X47129771Y-40231809D01*
X47272628Y-40755619D02*
X46796438Y-40755619D01*
X46796438Y-40755619D02*
X46796438Y-39755619D01*
X46796438Y-39755619D02*
X47272628Y-39755619D01*
X48034533Y-40231809D02*
X47701200Y-40231809D01*
X47701200Y-40755619D02*
X47701200Y-39755619D01*
X47701200Y-39755619D02*
X48177390Y-39755619D01*
X48701200Y-39755619D02*
X48701200Y-39993714D01*
X48463105Y-39898476D02*
X48701200Y-39993714D01*
X48701200Y-39993714D02*
X48939295Y-39898476D01*
X48558343Y-40184190D02*
X48701200Y-39993714D01*
X48701200Y-39993714D02*
X48844057Y-40184190D01*
X49463105Y-39755619D02*
X49463105Y-39993714D01*
X49225010Y-39898476D02*
X49463105Y-39993714D01*
X49463105Y-39993714D02*
X49701200Y-39898476D01*
X49320248Y-40184190D02*
X49463105Y-39993714D01*
X49463105Y-39993714D02*
X49605962Y-40184190D01*
X70678333Y-39317819D02*
X70345000Y-38841628D01*
X70106905Y-39317819D02*
X70106905Y-38317819D01*
X70106905Y-38317819D02*
X70487857Y-38317819D01*
X70487857Y-38317819D02*
X70583095Y-38365438D01*
X70583095Y-38365438D02*
X70630714Y-38413057D01*
X70630714Y-38413057D02*
X70678333Y-38508295D01*
X70678333Y-38508295D02*
X70678333Y-38651152D01*
X70678333Y-38651152D02*
X70630714Y-38746390D01*
X70630714Y-38746390D02*
X70583095Y-38794009D01*
X70583095Y-38794009D02*
X70487857Y-38841628D01*
X70487857Y-38841628D02*
X70106905Y-38841628D01*
X71059286Y-38413057D02*
X71106905Y-38365438D01*
X71106905Y-38365438D02*
X71202143Y-38317819D01*
X71202143Y-38317819D02*
X71440238Y-38317819D01*
X71440238Y-38317819D02*
X71535476Y-38365438D01*
X71535476Y-38365438D02*
X71583095Y-38413057D01*
X71583095Y-38413057D02*
X71630714Y-38508295D01*
X71630714Y-38508295D02*
X71630714Y-38603533D01*
X71630714Y-38603533D02*
X71583095Y-38746390D01*
X71583095Y-38746390D02*
X71011667Y-39317819D01*
X71011667Y-39317819D02*
X71630714Y-39317819D01*
D11*
%TO.C,J2*%
X65132000Y-45244000D02*
X65132000Y-49244000D01*
X65422000Y-44214000D02*
X65422000Y-50234000D01*
X65422000Y-50234000D02*
X70722000Y-50234000D01*
X66002000Y-44214000D02*
X66002000Y-44814000D01*
X66002000Y-44814000D02*
X67602000Y-44814000D01*
X66802000Y-49234000D02*
X67052000Y-48704000D01*
X66802000Y-49234000D02*
X69342000Y-49234000D01*
X66802000Y-50234000D02*
X66802000Y-49234000D01*
X67052000Y-48704000D02*
X69092000Y-48704000D01*
X67052000Y-50234000D02*
X67052000Y-49234000D01*
X67602000Y-44814000D02*
X67602000Y-44214000D01*
X68542000Y-44214000D02*
X68542000Y-44814000D01*
X68542000Y-44814000D02*
X70142000Y-44814000D01*
X69092000Y-48704000D02*
X69342000Y-49234000D01*
X69092000Y-50234000D02*
X69092000Y-49234000D01*
X69342000Y-49234000D02*
X69342000Y-50234000D01*
X70142000Y-44814000D02*
X70142000Y-44214000D01*
X70722000Y-44214000D02*
X65422000Y-44214000D01*
X70722000Y-50234000D02*
X70722000Y-44214000D01*
D10*
%TO.C,U1*%
X55328000Y-47269000D02*
X55328000Y-49919000D01*
X55328000Y-49919000D02*
X56478000Y-49919000D01*
X59988000Y-47269000D02*
X59988000Y-49919000D01*
X59988000Y-49919000D02*
X58838000Y-49919000D01*
X59688000Y-46969000D02*
G75*
G02*
X59628000Y-46969000I-30000J0D01*
G01*
X59628000Y-46969000D02*
G75*
G02*
X59688000Y-46969000I30000J0D01*
G01*
D11*
%TO.C,J1*%
X51833000Y-38793000D02*
X51833000Y-44813000D01*
X51833000Y-44813000D02*
X57133000Y-44813000D01*
X52413000Y-44213000D02*
X52413000Y-44813000D01*
X53213000Y-39793000D02*
X53213000Y-38793000D01*
X53463000Y-38793000D02*
X53463000Y-39793000D01*
X53463000Y-40323000D02*
X53213000Y-39793000D01*
X54013000Y-44213000D02*
X52413000Y-44213000D01*
X54013000Y-44813000D02*
X54013000Y-44213000D01*
X54953000Y-44213000D02*
X54953000Y-44813000D01*
X55503000Y-38793000D02*
X55503000Y-39793000D01*
X55503000Y-40323000D02*
X53463000Y-40323000D01*
X55753000Y-38793000D02*
X55753000Y-39793000D01*
X55753000Y-39793000D02*
X53213000Y-39793000D01*
X55753000Y-39793000D02*
X55503000Y-40323000D01*
X56553000Y-44213000D02*
X54953000Y-44213000D01*
X56553000Y-44813000D02*
X56553000Y-44213000D01*
X57133000Y-38793000D02*
X51833000Y-38793000D01*
X57133000Y-44813000D02*
X57133000Y-38793000D01*
X57423000Y-43783000D02*
X57423000Y-39783000D01*
%TD*%
%LPC*%
D12*
%TO.C,J2*%
X66802000Y-47244000D03*
D13*
X69342000Y-47244000D03*
%TD*%
D14*
%TO.C,REF\u002A\u002A*%
X75133200Y-45161200D03*
%TD*%
D15*
%TO.C,C2*%
X62230000Y-47564000D03*
X62230000Y-49464000D03*
%TD*%
%TO.C,C1*%
X51054000Y-48072000D03*
X51054000Y-49972000D03*
%TD*%
D16*
%TO.C,R1*%
X65363000Y-40513000D03*
X67183000Y-40513000D03*
%TD*%
D17*
%TO.C,U1*%
X59158000Y-46609000D03*
D18*
X57658000Y-49329000D03*
D19*
X57658000Y-48969000D03*
X57658000Y-47969000D03*
D17*
X57658000Y-46609000D03*
X56158000Y-46609000D03*
%TD*%
D20*
%TO.C,R3*%
X61870000Y-40640000D03*
X60050000Y-40640000D03*
%TD*%
D21*
%TO.C,J1*%
X55753000Y-41783000D03*
D13*
X53213000Y-41783000D03*
%TD*%
D14*
%TO.C,REF\u002A\u002A*%
X47701200Y-44500800D03*
%TD*%
D16*
%TO.C,R2*%
X69935000Y-40513000D03*
X71755000Y-40513000D03*
%TD*%
%LPD*%
M02*
