%TF.GenerationSoftware,KiCad,Pcbnew,9.0.1*%
%TF.CreationDate,2025-04-28T22:46:38+02:00*%
%TF.ProjectId,SCS-maker,5343532d-6d61-46b6-9572-2e6b69636164,rev?*%
%TF.SameCoordinates,Original*%
%TF.FileFunction,Copper,L1,Top*%
%TF.FilePolarity,Positive*%
%FSLAX46Y46*%
G04 Gerber Fmt 4.6, Leading zero omitted, Abs format (unit mm)*
G04 Created by KiCad (PCBNEW 9.0.1) date 2025-04-28 22:46:38*
%MOMM*%
%LPD*%
G01*
G04 APERTURE LIST*
G04 Aperture macros list*
%AMRoundRect*
0 Rectangle with rounded corners*
0 $1 Rounding radius*
0 $2 $3 $4 $5 $6 $7 $8 $9 X,Y pos of 4 corners*
0 Add a 4 corners polygon primitive as box body*
4,1,4,$2,$3,$4,$5,$6,$7,$8,$9,$2,$3,0*
0 Add four circle primitives for the rounded corners*
1,1,$1+$1,$2,$3*
1,1,$1+$1,$4,$5*
1,1,$1+$1,$6,$7*
1,1,$1+$1,$8,$9*
0 Add four rect primitives between the rounded corners*
20,1,$1+$1,$2,$3,$4,$5,0*
20,1,$1+$1,$4,$5,$6,$7,0*
20,1,$1+$1,$6,$7,$8,$9,0*
20,1,$1+$1,$8,$9,$2,$3,0*%
%AMFreePoly0*
4,1,123,0.971755,0.948895,1.016180,0.945771,1.060427,0.940564,1.104369,0.933299,1.147930,0.923952,1.190983,0.912598,1.233477,0.899238,1.275286,0.883896,1.316332,0.866599,1.356541,0.847422,1.395784,0.826365,1.434011,0.803480,1.471120,0.778842,1.507036,0.752502,1.541656,0.724511,1.574956,0.694895,1.606807,0.663780,1.637186,0.631191,1.665989,0.597231,1.693167,0.561951,
1.718669,0.525425,1.742418,0.487757,1.764389,0.448997,1.784531,0.409271,1.802769,0.329972,2.700102,0.329972,2.700102,-0.330023,1.802769,-0.330023,1.784531,-0.409373,1.764389,-0.449098,1.742418,-0.487859,1.718669,-0.525527,1.693167,-0.562052,1.665989,-0.597333,1.637186,-0.631293,1.606807,-0.663881,1.574956,-0.694996,1.541656,-0.724613,1.507036,-0.752604,1.471120,-0.778943,
1.434011,-0.803581,1.395784,-0.826467,1.356541,-0.847523,1.316332,-0.866701,1.275286,-0.883998,1.233477,-0.899340,1.190983,-0.912700,1.147930,-0.924054,1.104369,-0.933401,1.060427,-0.940665,1.016180,-0.945872,0.971755,-0.948997,0.927229,-0.950064,-0.926975,-0.950064,-0.971501,-0.948997,-1.015926,-0.945872,-1.060173,-0.940665,-1.104115,-0.933401,-1.147676,-0.924054,-1.190729,-0.912700,
-1.233223,-0.899340,-1.275032,-0.883998,-1.316078,-0.866701,-1.356287,-0.847523,-1.395530,-0.826467,-1.433757,-0.803581,-1.470866,-0.778943,-1.506782,-0.752604,-1.541402,-0.724613,-1.574702,-0.694996,-1.606553,-0.663881,-1.636932,-0.631293,-1.665735,-0.597333,-1.692913,-0.562052,-1.718415,-0.525527,-1.742164,-0.487859,-1.764135,-0.449098,-1.784277,-0.409373,-1.802515,-0.368733,-1.818847,-0.327305,
-1.833198,-0.285141,-1.845568,-0.242342,-1.855906,-0.199009,-1.864211,-0.155271,-1.870460,-0.111151,-1.874625,-0.066802,-1.876708,-0.022327,-1.876708,0.022225,-1.874625,0.066701,-1.870460,0.111049,-1.864211,0.155169,-1.855906,0.198908,-1.845568,0.242240,-1.833198,0.285039,-1.818847,0.327203,-1.802515,0.368631,-1.784277,0.409271,-1.764135,0.448997,-1.742164,0.487757,-1.718415,0.525425,
-1.692913,0.561951,-1.665735,0.597231,-1.636932,0.631191,-1.606553,0.663780,-1.574702,0.694895,-1.541402,0.724511,-1.506782,0.752502,-1.470866,0.778842,-1.433757,0.803480,-1.395530,0.826365,-1.356287,0.847422,-1.316078,0.866599,-1.275032,0.883896,-1.233223,0.899238,-1.190729,0.912598,-1.147676,0.923952,-1.104115,0.933299,-1.060173,0.940564,-1.015926,0.945771,-0.971501,0.948895,
-0.926975,0.950000,0.927229,0.950000,0.971755,0.948895,0.971755,0.948895,$1*%
G04 Aperture macros list end*
%TA.AperFunction,ComponentPad*%
%ADD10RoundRect,0.250000X-0.620000X-0.845000X0.620000X-0.845000X0.620000X0.845000X-0.620000X0.845000X0*%
%TD*%
%TA.AperFunction,ComponentPad*%
%ADD11O,1.740000X2.190000*%
%TD*%
%TA.AperFunction,SMDPad,CuDef*%
%ADD12RoundRect,0.250000X-0.475000X0.250000X-0.475000X-0.250000X0.475000X-0.250000X0.475000X0.250000X0*%
%TD*%
%TA.AperFunction,SMDPad,CuDef*%
%ADD13RoundRect,0.248780X-0.261220X-0.451220X0.261220X-0.451220X0.261220X0.451220X-0.261220X0.451220X0*%
%TD*%
%TA.AperFunction,SMDPad,CuDef*%
%ADD14RoundRect,0.167500X0.167500X-0.622500X0.167500X0.622500X-0.167500X0.622500X-0.167500X-0.622500X0*%
%TD*%
%TA.AperFunction,SMDPad,CuDef*%
%ADD15FreePoly0,90.000000*%
%TD*%
%TA.AperFunction,ComponentPad*%
%ADD16C,0.500000*%
%TD*%
%TA.AperFunction,SMDPad,CuDef*%
%ADD17RoundRect,0.248780X0.261220X0.451220X-0.261220X0.451220X-0.261220X-0.451220X0.261220X-0.451220X0*%
%TD*%
%TA.AperFunction,ComponentPad*%
%ADD18RoundRect,0.250000X0.620000X0.845000X-0.620000X0.845000X-0.620000X-0.845000X0.620000X-0.845000X0*%
%TD*%
%TA.AperFunction,Conductor*%
%ADD19C,0.200000*%
%TD*%
G04 APERTURE END LIST*
D10*
%TO.P,J2,1,Pin_1*%
%TO.N,/Sensor Output*%
X66802000Y-47244000D03*
D11*
%TO.P,J2,2,Pin_2*%
%TO.N,/Output SCS*%
X69342000Y-47244000D03*
%TD*%
D12*
%TO.P,C2,1*%
%TO.N,+5V*%
X62230000Y-47564000D03*
%TO.P,C2,2*%
%TO.N,GND*%
X62230000Y-49464000D03*
%TD*%
%TO.P,C1,1*%
%TO.N,+12V*%
X51054000Y-48072000D03*
%TO.P,C1,2*%
%TO.N,GND*%
X51054000Y-49972000D03*
%TD*%
D13*
%TO.P,R1,1*%
%TO.N,+5V*%
X65363000Y-40513000D03*
%TO.P,R1,2*%
%TO.N,/Output SCS*%
X67183000Y-40513000D03*
%TD*%
D14*
%TO.P,U1,1,VOUT*%
%TO.N,+5V*%
X59158000Y-46609000D03*
D15*
%TO.P,U1,2,GND*%
%TO.N,GND*%
X57658000Y-49329000D03*
D16*
X57658000Y-48969000D03*
X57658000Y-47969000D03*
D14*
X57658000Y-46609000D03*
%TO.P,U1,3,VIN*%
%TO.N,+12V*%
X56158000Y-46609000D03*
%TD*%
D17*
%TO.P,R3,1*%
%TO.N,/Output SCS*%
X61870000Y-40640000D03*
%TO.P,R3,2*%
%TO.N,GND*%
X60050000Y-40640000D03*
%TD*%
D18*
%TO.P,J1,1,Pin_1*%
%TO.N,GND*%
X55753000Y-41783000D03*
D11*
%TO.P,J1,2,Pin_2*%
%TO.N,+12V*%
X53213000Y-41783000D03*
%TD*%
D13*
%TO.P,R2,1*%
%TO.N,/Sensor Output*%
X69935000Y-40513000D03*
%TO.P,R2,2*%
%TO.N,/Output SCS*%
X71755000Y-40513000D03*
%TD*%
D19*
%TO.N,+12V*%
X51689000Y-48072000D02*
X51054000Y-48072000D01*
X56158000Y-46609000D02*
X53213000Y-46609000D01*
X53213000Y-46609000D02*
X53152000Y-46609000D01*
X53152000Y-46609000D02*
X51689000Y-48072000D01*
X53213000Y-41783000D02*
X53213000Y-46609000D01*
%TO.N,+5V*%
X60513000Y-45363000D02*
X60513000Y-46609000D01*
X65363000Y-40513000D02*
X60513000Y-45363000D01*
X61468000Y-47564000D02*
X62230000Y-47564000D01*
X59158000Y-46609000D02*
X60513000Y-46609000D01*
X60513000Y-46609000D02*
X61468000Y-47564000D01*
%TO.N,/Output SCS*%
X70434900Y-39469700D02*
X68226300Y-39469700D01*
X69342000Y-47244000D02*
X69342000Y-42718000D01*
X62999600Y-39510400D02*
X66180400Y-39510400D01*
X71512600Y-40547400D02*
X70434900Y-39469700D01*
X71755000Y-40513000D02*
X71715800Y-40473800D01*
X66180400Y-39510400D02*
X67183000Y-40513000D01*
X69342000Y-42718000D02*
X71512600Y-40547400D01*
X71512600Y-40547400D02*
X71586200Y-40473800D01*
X61870000Y-40640000D02*
X62999600Y-39510400D01*
X71674500Y-40473800D02*
X71715800Y-40473800D01*
X68226300Y-39469700D02*
X67183000Y-40513000D01*
X71586200Y-40473800D02*
X71674500Y-40473800D01*
%TO.N,/Sensor Output*%
X66802000Y-43646000D02*
X66802000Y-47244000D01*
X69935000Y-40513000D02*
X66802000Y-43646000D01*
%TD*%
%TA.AperFunction,Conductor*%
%TO.N,GND*%
G36*
X78385739Y-37604185D02*
G01*
X78431494Y-37656989D01*
X78442700Y-37708500D01*
X78442700Y-51216900D01*
X78423015Y-51283939D01*
X78370211Y-51329694D01*
X78318700Y-51340900D01*
X44591900Y-51340900D01*
X44524861Y-51321215D01*
X44479106Y-51268411D01*
X44467900Y-51216900D01*
X44467900Y-50271986D01*
X49829001Y-50271986D01*
X49839494Y-50374697D01*
X49894641Y-50541119D01*
X49894643Y-50541124D01*
X49986684Y-50690345D01*
X50110654Y-50814315D01*
X50259875Y-50906356D01*
X50259880Y-50906358D01*
X50426302Y-50961505D01*
X50426309Y-50961506D01*
X50529019Y-50971999D01*
X50803999Y-50971999D01*
X51304000Y-50971999D01*
X51578972Y-50971999D01*
X51578986Y-50971998D01*
X51681697Y-50961505D01*
X51848119Y-50906358D01*
X51848124Y-50906356D01*
X51997345Y-50814315D01*
X52121315Y-50690345D01*
X52213356Y-50541124D01*
X52213358Y-50541119D01*
X52268505Y-50374697D01*
X52268506Y-50374690D01*
X52278999Y-50271986D01*
X52279000Y-50271973D01*
X52279000Y-50222000D01*
X51304000Y-50222000D01*
X51304000Y-50971999D01*
X50803999Y-50971999D01*
X50804000Y-50971998D01*
X50804000Y-50222000D01*
X49829001Y-50222000D01*
X49829001Y-50271986D01*
X44467900Y-50271986D01*
X44467900Y-49763986D01*
X61005001Y-49763986D01*
X61015494Y-49866697D01*
X61070641Y-50033119D01*
X61070643Y-50033124D01*
X61162684Y-50182345D01*
X61286654Y-50306315D01*
X61435875Y-50398356D01*
X61435880Y-50398358D01*
X61602302Y-50453505D01*
X61602309Y-50453506D01*
X61705019Y-50463999D01*
X61979999Y-50463999D01*
X62480000Y-50463999D01*
X62754972Y-50463999D01*
X62754986Y-50463998D01*
X62857697Y-50453505D01*
X63024119Y-50398358D01*
X63024124Y-50398356D01*
X63173345Y-50306315D01*
X63297315Y-50182345D01*
X63389356Y-50033124D01*
X63389358Y-50033119D01*
X63444505Y-49866697D01*
X63444506Y-49866690D01*
X63454999Y-49763986D01*
X63455000Y-49763973D01*
X63455000Y-49714000D01*
X62480000Y-49714000D01*
X62480000Y-50463999D01*
X61979999Y-50463999D01*
X61980000Y-50463998D01*
X61980000Y-49714000D01*
X61005001Y-49714000D01*
X61005001Y-49763986D01*
X44467900Y-49763986D01*
X44467900Y-47771983D01*
X49828500Y-47771983D01*
X49828500Y-48372001D01*
X49828501Y-48372019D01*
X49839000Y-48474796D01*
X49839001Y-48474799D01*
X49878416Y-48593744D01*
X49894186Y-48641334D01*
X49986288Y-48790656D01*
X50110344Y-48914712D01*
X50113628Y-48916737D01*
X50113653Y-48916753D01*
X50115445Y-48918746D01*
X50116011Y-48919193D01*
X50115934Y-48919289D01*
X50160379Y-48968699D01*
X50171603Y-49037661D01*
X50143761Y-49101744D01*
X50113665Y-49127826D01*
X50110660Y-49129679D01*
X50110655Y-49129683D01*
X49986684Y-49253654D01*
X49894643Y-49402875D01*
X49894641Y-49402880D01*
X49839494Y-49569302D01*
X49839493Y-49569309D01*
X49829000Y-49672013D01*
X49829000Y-49722000D01*
X52278999Y-49722000D01*
X52278999Y-49672025D01*
X52278998Y-49672015D01*
X52268505Y-49569302D01*
X52213358Y-49402880D01*
X52213356Y-49402875D01*
X52121315Y-49253654D01*
X51997344Y-49129683D01*
X51997341Y-49129681D01*
X51994339Y-49127829D01*
X51992713Y-49126021D01*
X51991677Y-49125202D01*
X51991817Y-49125024D01*
X51947617Y-49075880D01*
X51936397Y-49006917D01*
X51964243Y-48942836D01*
X51994344Y-48916754D01*
X51997656Y-48914712D01*
X52121712Y-48790656D01*
X52213814Y-48641334D01*
X52268999Y-48474797D01*
X52279500Y-48372009D01*
X52279499Y-48372006D01*
X52279713Y-48369922D01*
X52306109Y-48305230D01*
X52315381Y-48294852D01*
X53364416Y-47245819D01*
X53425739Y-47212334D01*
X53452097Y-47209500D01*
X55202352Y-47209500D01*
X55269391Y-47229185D01*
X55315146Y-47281989D01*
X55325843Y-47322278D01*
X55328616Y-47352796D01*
X55376874Y-47507663D01*
X55376876Y-47507666D01*
X55376877Y-47507669D01*
X55460800Y-47646494D01*
X55460802Y-47646497D01*
X55575502Y-47761197D01*
X55575504Y-47761198D01*
X55575506Y-47761200D01*
X55714331Y-47845123D01*
X55714334Y-47845124D01*
X55714336Y-47845125D01*
X55774885Y-47863992D01*
X55869205Y-47893384D01*
X55936510Y-47899500D01*
X55936513Y-47899500D01*
X56379487Y-47899500D01*
X56379490Y-47899500D01*
X56446795Y-47893384D01*
X56601669Y-47845123D01*
X56740494Y-47761200D01*
X56855200Y-47646494D01*
X56939123Y-47507669D01*
X56987384Y-47352795D01*
X56993500Y-47285490D01*
X56993500Y-45932510D01*
X58322500Y-45932510D01*
X58322500Y-47285490D01*
X58325259Y-47315853D01*
X58328616Y-47352796D01*
X58376874Y-47507663D01*
X58376876Y-47507666D01*
X58376877Y-47507669D01*
X58460800Y-47646494D01*
X58460802Y-47646497D01*
X58575502Y-47761197D01*
X58575504Y-47761198D01*
X58575506Y-47761200D01*
X58714331Y-47845123D01*
X58714334Y-47845124D01*
X58714336Y-47845125D01*
X58774885Y-47863992D01*
X58869205Y-47893384D01*
X58936510Y-47899500D01*
X58936513Y-47899500D01*
X59379487Y-47899500D01*
X59379490Y-47899500D01*
X59446795Y-47893384D01*
X59601669Y-47845123D01*
X59740494Y-47761200D01*
X59855200Y-47646494D01*
X59939123Y-47507669D01*
X59987384Y-47352795D01*
X59990157Y-47322277D01*
X59991386Y-47319166D01*
X59990910Y-47315853D01*
X60004135Y-47286893D01*
X60015828Y-47257295D01*
X60018544Y-47255341D01*
X60019935Y-47252297D01*
X60046718Y-47235084D01*
X60072556Y-47216507D01*
X60076734Y-47215794D01*
X60078713Y-47214523D01*
X60113648Y-47209500D01*
X60212903Y-47209500D01*
X60279942Y-47229185D01*
X60300584Y-47245819D01*
X60983139Y-47928374D01*
X60983160Y-47928397D01*
X60990968Y-47936205D01*
X61020993Y-47984881D01*
X61049466Y-48070806D01*
X61070186Y-48133334D01*
X61162288Y-48282656D01*
X61286344Y-48406712D01*
X61288977Y-48408336D01*
X61289653Y-48408753D01*
X61291445Y-48410746D01*
X61292011Y-48411193D01*
X61291934Y-48411289D01*
X61336379Y-48460699D01*
X61347603Y-48529661D01*
X61319761Y-48593744D01*
X61289665Y-48619826D01*
X61286660Y-48621679D01*
X61286655Y-48621683D01*
X61162684Y-48745654D01*
X61070643Y-48894875D01*
X61070641Y-48894880D01*
X61015494Y-49061302D01*
X61015493Y-49061309D01*
X61005000Y-49164013D01*
X61005000Y-49214000D01*
X63454999Y-49214000D01*
X63454999Y-49164028D01*
X63454998Y-49164013D01*
X63444505Y-49061302D01*
X63389358Y-48894880D01*
X63389356Y-48894875D01*
X63297315Y-48745654D01*
X63173344Y-48621683D01*
X63173341Y-48621681D01*
X63170339Y-48619829D01*
X63168713Y-48618021D01*
X63167677Y-48617202D01*
X63167817Y-48617024D01*
X63123617Y-48567880D01*
X63112397Y-48498917D01*
X63140243Y-48434836D01*
X63170344Y-48408754D01*
X63173656Y-48406712D01*
X63297712Y-48282656D01*
X63389814Y-48133334D01*
X63444999Y-47966797D01*
X63455500Y-47864009D01*
X63455499Y-47263992D01*
X63454304Y-47252297D01*
X63444999Y-47161203D01*
X63444998Y-47161200D01*
X63437041Y-47137187D01*
X63389814Y-46994666D01*
X63297712Y-46845344D01*
X63173656Y-46721288D01*
X63024334Y-46629186D01*
X62857797Y-46574001D01*
X62857795Y-46574000D01*
X62755010Y-46563500D01*
X61704998Y-46563500D01*
X61704980Y-46563501D01*
X61602203Y-46574000D01*
X61602196Y-46574002D01*
X61468273Y-46618379D01*
X61398444Y-46620780D01*
X61341589Y-46588354D01*
X61149819Y-46396584D01*
X61116334Y-46335261D01*
X61113500Y-46308903D01*
X61113500Y-45663097D01*
X61133185Y-45596058D01*
X61149819Y-45575416D01*
X64975416Y-41749819D01*
X65036739Y-41716334D01*
X65063097Y-41713500D01*
X65674145Y-41713500D01*
X65674150Y-41713500D01*
X65776769Y-41703016D01*
X65943035Y-41647921D01*
X66092114Y-41555968D01*
X66185319Y-41462763D01*
X66246642Y-41429278D01*
X66316334Y-41434262D01*
X66360681Y-41462763D01*
X66453886Y-41555968D01*
X66602965Y-41647921D01*
X66769231Y-41703016D01*
X66871850Y-41713500D01*
X66871855Y-41713500D01*
X67494145Y-41713500D01*
X67494150Y-41713500D01*
X67583021Y-41704420D01*
X67651712Y-41717189D01*
X67702597Y-41765069D01*
X67719519Y-41832858D01*
X67697104Y-41899035D01*
X67683304Y-41915459D01*
X66436357Y-43162406D01*
X66436350Y-43162413D01*
X66433286Y-43165478D01*
X66433284Y-43165480D01*
X66321480Y-43277284D01*
X66297684Y-43318501D01*
X66291718Y-43328833D01*
X66291718Y-43328834D01*
X66247659Y-43405146D01*
X66242423Y-43414215D01*
X66201499Y-43566943D01*
X66201499Y-43566945D01*
X66201499Y-43735046D01*
X66201500Y-43735059D01*
X66201500Y-45529422D01*
X66181815Y-45596461D01*
X66129011Y-45642216D01*
X66090102Y-45652780D01*
X66029202Y-45659001D01*
X66029200Y-45659001D01*
X65862668Y-45714185D01*
X65862663Y-45714187D01*
X65713342Y-45806289D01*
X65589289Y-45930342D01*
X65497187Y-46079663D01*
X65497186Y-46079666D01*
X65442001Y-46246203D01*
X65442001Y-46246204D01*
X65442000Y-46246204D01*
X65431500Y-46348983D01*
X65431500Y-48139001D01*
X65431501Y-48139018D01*
X65442000Y-48241796D01*
X65442001Y-48241799D01*
X65497185Y-48408331D01*
X65497187Y-48408336D01*
X65513532Y-48434836D01*
X65589288Y-48557656D01*
X65713344Y-48681712D01*
X65862666Y-48773814D01*
X66029203Y-48828999D01*
X66131991Y-48839500D01*
X67472008Y-48839499D01*
X67574797Y-48828999D01*
X67741334Y-48773814D01*
X67890656Y-48681712D01*
X68014712Y-48557656D01*
X68106814Y-48408334D01*
X68106817Y-48408322D01*
X68107129Y-48407657D01*
X68107469Y-48407269D01*
X68110605Y-48402187D01*
X68111473Y-48402722D01*
X68153299Y-48355216D01*
X68220491Y-48336060D01*
X68287373Y-48356272D01*
X68307195Y-48372375D01*
X68449179Y-48514359D01*
X68623701Y-48641157D01*
X68815911Y-48739092D01*
X69021074Y-48805754D01*
X69100973Y-48818408D01*
X69234134Y-48839500D01*
X69234139Y-48839500D01*
X69449866Y-48839500D01*
X69568230Y-48820752D01*
X69662926Y-48805754D01*
X69868089Y-48739092D01*
X70060299Y-48641157D01*
X70234821Y-48514359D01*
X70387359Y-48361821D01*
X70514157Y-48187299D01*
X70612092Y-47995089D01*
X70678754Y-47789926D01*
X70693752Y-47695230D01*
X70712500Y-47576866D01*
X70712500Y-46911133D01*
X70682431Y-46721289D01*
X70678754Y-46698074D01*
X70612092Y-46492911D01*
X70514157Y-46300701D01*
X70387359Y-46126179D01*
X70234821Y-45973641D01*
X70060299Y-45846843D01*
X70060298Y-45846842D01*
X70060296Y-45846841D01*
X70010204Y-45821317D01*
X69959408Y-45773342D01*
X69942500Y-45710833D01*
X69942500Y-45039911D01*
X73282700Y-45039911D01*
X73282700Y-45282488D01*
X73303707Y-45442060D01*
X73314362Y-45522989D01*
X73326745Y-45569201D01*
X73377147Y-45757304D01*
X73434208Y-45895060D01*
X73469976Y-45981412D01*
X73591264Y-46191489D01*
X73591266Y-46191492D01*
X73591267Y-46191493D01*
X73738933Y-46383936D01*
X73738939Y-46383943D01*
X73910456Y-46555460D01*
X73910463Y-46555466D01*
X73934620Y-46574002D01*
X74102911Y-46703136D01*
X74312988Y-46824424D01*
X74508469Y-46905395D01*
X74522322Y-46911133D01*
X74537100Y-46917254D01*
X74771411Y-46980038D01*
X74951786Y-47003784D01*
X75011911Y-47011700D01*
X75011912Y-47011700D01*
X75254489Y-47011700D01*
X75302588Y-47005367D01*
X75494989Y-46980038D01*
X75729300Y-46917254D01*
X75953412Y-46824424D01*
X76163489Y-46703136D01*
X76355938Y-46555465D01*
X76527465Y-46383938D01*
X76675136Y-46191489D01*
X76796424Y-45981412D01*
X76889254Y-45757300D01*
X76952038Y-45522989D01*
X76983700Y-45282488D01*
X76983700Y-45039912D01*
X76952038Y-44799411D01*
X76889254Y-44565100D01*
X76796424Y-44340988D01*
X76675136Y-44130911D01*
X76527465Y-43938462D01*
X76527460Y-43938456D01*
X76355943Y-43766939D01*
X76355936Y-43766933D01*
X76163493Y-43619267D01*
X76163492Y-43619266D01*
X76163489Y-43619264D01*
X75953412Y-43497976D01*
X75953405Y-43497973D01*
X75729304Y-43405147D01*
X75494985Y-43342361D01*
X75254489Y-43310700D01*
X75254488Y-43310700D01*
X75011912Y-43310700D01*
X75011911Y-43310700D01*
X74771414Y-43342361D01*
X74537095Y-43405147D01*
X74312994Y-43497973D01*
X74312985Y-43497977D01*
X74102906Y-43619267D01*
X73910463Y-43766933D01*
X73910456Y-43766939D01*
X73738939Y-43938456D01*
X73738933Y-43938463D01*
X73591267Y-44130906D01*
X73591264Y-44130910D01*
X73591264Y-44130911D01*
X73586586Y-44139014D01*
X73469977Y-44340985D01*
X73469973Y-44340994D01*
X73377147Y-44565095D01*
X73314361Y-44799414D01*
X73282700Y-45039911D01*
X69942500Y-45039911D01*
X69942500Y-43018096D01*
X69962185Y-42951057D01*
X69978814Y-42930420D01*
X71185741Y-41723492D01*
X71247062Y-41690009D01*
X71312422Y-41693469D01*
X71341231Y-41703016D01*
X71443850Y-41713500D01*
X71443855Y-41713500D01*
X72066145Y-41713500D01*
X72066150Y-41713500D01*
X72168769Y-41703016D01*
X72335035Y-41647921D01*
X72484114Y-41555968D01*
X72607968Y-41432114D01*
X72699921Y-41283035D01*
X72755016Y-41116769D01*
X72765500Y-41014150D01*
X72765500Y-40011850D01*
X72755016Y-39909231D01*
X72699921Y-39742965D01*
X72607968Y-39593886D01*
X72484114Y-39470032D01*
X72335035Y-39378079D01*
X72249251Y-39349653D01*
X72168770Y-39322984D01*
X72168763Y-39322983D01*
X72066157Y-39312500D01*
X72066150Y-39312500D01*
X71443850Y-39312500D01*
X71443842Y-39312500D01*
X71341232Y-39322983D01*
X71260747Y-39349653D01*
X71190918Y-39352054D01*
X71134063Y-39319628D01*
X70922490Y-39108055D01*
X70922488Y-39108052D01*
X70803617Y-38989181D01*
X70803616Y-38989180D01*
X70716804Y-38939060D01*
X70716804Y-38939059D01*
X70716800Y-38939058D01*
X70666685Y-38910123D01*
X70513957Y-38869199D01*
X70355843Y-38869199D01*
X70348247Y-38869199D01*
X70348231Y-38869200D01*
X68312969Y-38869200D01*
X68312953Y-38869199D01*
X68305357Y-38869199D01*
X68147243Y-38869199D01*
X68039887Y-38897965D01*
X67994510Y-38910124D01*
X67994509Y-38910125D01*
X67944396Y-38939059D01*
X67944395Y-38939060D01*
X67924021Y-38950823D01*
X67857585Y-38989179D01*
X67857582Y-38989181D01*
X67570583Y-39276181D01*
X67509260Y-39309666D01*
X67482902Y-39312500D01*
X66883097Y-39312500D01*
X66853656Y-39303855D01*
X66823670Y-39297332D01*
X66818654Y-39293577D01*
X66816058Y-39292815D01*
X66795416Y-39276181D01*
X66667990Y-39148755D01*
X66667988Y-39148752D01*
X66549117Y-39029881D01*
X66549116Y-39029880D01*
X66462304Y-38979760D01*
X66462304Y-38979759D01*
X66462300Y-38979758D01*
X66412185Y-38950823D01*
X66259457Y-38909899D01*
X66101343Y-38909899D01*
X66093747Y-38909899D01*
X66093731Y-38909900D01*
X63086270Y-38909900D01*
X63086254Y-38909899D01*
X63078658Y-38909899D01*
X62920543Y-38909899D01*
X62844179Y-38930361D01*
X62767814Y-38950823D01*
X62767809Y-38950826D01*
X62630890Y-39029875D01*
X62630882Y-39029881D01*
X62257582Y-39403181D01*
X62196259Y-39436666D01*
X62169901Y-39439500D01*
X61558842Y-39439500D01*
X61456236Y-39449983D01*
X61456229Y-39449984D01*
X61289967Y-39505078D01*
X61289962Y-39505080D01*
X61140884Y-39597033D01*
X61047327Y-39690591D01*
X60986004Y-39724076D01*
X60916312Y-39719092D01*
X60871965Y-39690591D01*
X60778801Y-39597427D01*
X60778797Y-39597424D01*
X60629822Y-39505534D01*
X60629819Y-39505533D01*
X60463669Y-39450478D01*
X60361116Y-39440000D01*
X60300000Y-39440000D01*
X60300000Y-41839999D01*
X60361103Y-41839999D01*
X60361117Y-41839998D01*
X60463669Y-41829521D01*
X60629819Y-41774466D01*
X60629822Y-41774465D01*
X60778797Y-41682575D01*
X60778801Y-41682572D01*
X60871965Y-41589409D01*
X60933288Y-41555924D01*
X61002980Y-41560908D01*
X61047327Y-41589409D01*
X61140886Y-41682968D01*
X61289965Y-41774921D01*
X61456231Y-41830016D01*
X61558850Y-41840500D01*
X61558855Y-41840500D01*
X62181145Y-41840500D01*
X62181150Y-41840500D01*
X62283769Y-41830016D01*
X62450035Y-41774921D01*
X62599114Y-41682968D01*
X62722968Y-41559114D01*
X62814921Y-41410035D01*
X62870016Y-41243769D01*
X62880500Y-41141150D01*
X62880500Y-40530097D01*
X62900185Y-40463058D01*
X62916819Y-40442416D01*
X63212017Y-40147219D01*
X63273340Y-40113734D01*
X63299698Y-40110900D01*
X64228500Y-40110900D01*
X64295539Y-40130585D01*
X64341294Y-40183389D01*
X64352500Y-40234900D01*
X64352500Y-40622902D01*
X64332815Y-40689941D01*
X64316181Y-40710583D01*
X60032481Y-44994282D01*
X60032479Y-44994284D01*
X60013963Y-45026355D01*
X60006137Y-45039912D01*
X59953423Y-45131215D01*
X59912499Y-45283943D01*
X59912499Y-45283945D01*
X59912499Y-45340923D01*
X59892814Y-45407962D01*
X59840010Y-45453717D01*
X59770852Y-45463661D01*
X59724349Y-45447040D01*
X59659706Y-45407962D01*
X59601669Y-45372877D01*
X59601666Y-45372876D01*
X59601663Y-45372874D01*
X59446795Y-45324616D01*
X59446796Y-45324616D01*
X59429968Y-45323087D01*
X59379490Y-45318500D01*
X58936510Y-45318500D01*
X58896127Y-45322169D01*
X58869203Y-45324616D01*
X58714336Y-45372874D01*
X58714333Y-45372876D01*
X58575502Y-45456802D01*
X58460802Y-45571502D01*
X58376876Y-45710333D01*
X58376874Y-45710336D01*
X58328616Y-45865203D01*
X58328616Y-45865205D01*
X58322500Y-45932510D01*
X56993500Y-45932510D01*
X56987384Y-45865205D01*
X56958758Y-45773342D01*
X56939125Y-45710336D01*
X56939124Y-45710334D01*
X56939123Y-45710331D01*
X56855200Y-45571506D01*
X56855198Y-45571504D01*
X56855197Y-45571502D01*
X56740497Y-45456802D01*
X56659706Y-45407962D01*
X56601669Y-45372877D01*
X56601666Y-45372876D01*
X56601663Y-45372874D01*
X56446795Y-45324616D01*
X56446796Y-45324616D01*
X56429968Y-45323087D01*
X56379490Y-45318500D01*
X55936510Y-45318500D01*
X55896127Y-45322169D01*
X55869203Y-45324616D01*
X55714336Y-45372874D01*
X55714333Y-45372876D01*
X55575502Y-45456802D01*
X55460802Y-45571502D01*
X55376876Y-45710333D01*
X55376874Y-45710336D01*
X55328616Y-45865203D01*
X55325843Y-45895722D01*
X55300172Y-45960705D01*
X55243444Y-46001493D01*
X55202352Y-46008500D01*
X53937500Y-46008500D01*
X53870461Y-45988815D01*
X53824706Y-45936011D01*
X53813500Y-45884500D01*
X53813500Y-43316165D01*
X53833185Y-43249126D01*
X53881204Y-43205680D01*
X53931299Y-43180157D01*
X54105821Y-43053359D01*
X54248186Y-42910993D01*
X54309505Y-42877511D01*
X54379197Y-42882495D01*
X54435131Y-42924366D01*
X54448248Y-42946277D01*
X54448640Y-42947118D01*
X54540684Y-43096345D01*
X54664654Y-43220315D01*
X54813875Y-43312356D01*
X54813880Y-43312358D01*
X54980302Y-43367505D01*
X54980309Y-43367506D01*
X55083019Y-43377999D01*
X55502999Y-43377999D01*
X55503000Y-43377998D01*
X55503000Y-42325709D01*
X55523339Y-42337452D01*
X55674667Y-42378000D01*
X55831333Y-42378000D01*
X55982661Y-42337452D01*
X56003000Y-42325709D01*
X56003000Y-43377999D01*
X56422972Y-43377999D01*
X56422986Y-43377998D01*
X56525697Y-43367505D01*
X56692119Y-43312358D01*
X56692124Y-43312356D01*
X56841345Y-43220315D01*
X56965315Y-43096345D01*
X57057356Y-42947124D01*
X57057358Y-42947119D01*
X57112505Y-42780697D01*
X57112506Y-42780690D01*
X57122999Y-42677986D01*
X57123000Y-42677973D01*
X57123000Y-42033000D01*
X56295709Y-42033000D01*
X56307452Y-42012661D01*
X56348000Y-41861333D01*
X56348000Y-41704667D01*
X56307452Y-41553339D01*
X56295709Y-41533000D01*
X57122999Y-41533000D01*
X57122999Y-41141117D01*
X59040001Y-41141117D01*
X59050478Y-41243669D01*
X59105533Y-41409819D01*
X59105534Y-41409822D01*
X59197424Y-41558797D01*
X59197427Y-41558801D01*
X59321198Y-41682572D01*
X59321202Y-41682575D01*
X59470177Y-41774465D01*
X59470180Y-41774466D01*
X59636330Y-41829521D01*
X59738889Y-41839999D01*
X59799999Y-41839998D01*
X59800000Y-41839998D01*
X59800000Y-40890000D01*
X59040001Y-40890000D01*
X59040001Y-41141117D01*
X57122999Y-41141117D01*
X57122999Y-40888028D01*
X57122998Y-40888010D01*
X57119242Y-40851239D01*
X57112505Y-40785302D01*
X57057358Y-40618880D01*
X57057356Y-40618875D01*
X56965315Y-40469654D01*
X56841345Y-40345684D01*
X56692124Y-40253643D01*
X56692119Y-40253641D01*
X56691511Y-40253440D01*
X56525697Y-40198494D01*
X56525690Y-40198493D01*
X56422986Y-40188000D01*
X56003000Y-40188000D01*
X56003000Y-41240290D01*
X55982661Y-41228548D01*
X55831333Y-41188000D01*
X55674667Y-41188000D01*
X55523339Y-41228548D01*
X55503000Y-41240290D01*
X55503000Y-40188000D01*
X55083028Y-40188000D01*
X55083012Y-40188001D01*
X54980302Y-40198494D01*
X54813880Y-40253641D01*
X54813875Y-40253643D01*
X54664654Y-40345684D01*
X54540684Y-40469654D01*
X54448637Y-40618885D01*
X54448245Y-40619728D01*
X54447821Y-40620208D01*
X54444851Y-40625025D01*
X54444027Y-40624517D01*
X54402072Y-40672167D01*
X54334879Y-40691318D01*
X54267998Y-40671101D01*
X54248183Y-40655003D01*
X54105823Y-40512643D01*
X54105821Y-40512641D01*
X53931299Y-40385843D01*
X53739089Y-40287908D01*
X53533926Y-40221246D01*
X53533924Y-40221245D01*
X53533922Y-40221245D01*
X53320866Y-40187500D01*
X53320861Y-40187500D01*
X53105139Y-40187500D01*
X53105134Y-40187500D01*
X52892077Y-40221245D01*
X52686908Y-40287909D01*
X52494700Y-40385843D01*
X52416835Y-40442416D01*
X52320179Y-40512641D01*
X52320177Y-40512643D01*
X52320176Y-40512643D01*
X52167643Y-40665176D01*
X52167643Y-40665177D01*
X52167641Y-40665179D01*
X52148650Y-40691318D01*
X52040843Y-40839700D01*
X51942909Y-41031908D01*
X51876245Y-41237077D01*
X51842500Y-41450133D01*
X51842500Y-42115866D01*
X51876245Y-42328922D01*
X51876246Y-42328926D01*
X51942908Y-42534089D01*
X52040843Y-42726299D01*
X52167641Y-42900821D01*
X52320179Y-43053359D01*
X52494701Y-43180157D01*
X52544794Y-43205680D01*
X52595590Y-43253654D01*
X52612500Y-43316165D01*
X52612500Y-46247902D01*
X52592815Y-46314941D01*
X52576181Y-46335583D01*
X51847018Y-47064745D01*
X51785695Y-47098230D01*
X51720334Y-47094770D01*
X51681800Y-47082001D01*
X51579010Y-47071500D01*
X50528998Y-47071500D01*
X50528980Y-47071501D01*
X50426203Y-47082000D01*
X50426200Y-47082001D01*
X50259668Y-47137185D01*
X50259663Y-47137187D01*
X50110342Y-47229289D01*
X49986289Y-47353342D01*
X49894187Y-47502663D01*
X49894185Y-47502668D01*
X49866349Y-47586670D01*
X49839001Y-47669203D01*
X49839001Y-47669204D01*
X49839000Y-47669204D01*
X49828500Y-47771983D01*
X44467900Y-47771983D01*
X44467900Y-44379511D01*
X45850700Y-44379511D01*
X45850700Y-44622088D01*
X45882361Y-44862585D01*
X45945147Y-45096904D01*
X46022622Y-45283945D01*
X46037976Y-45321012D01*
X46159264Y-45531089D01*
X46159266Y-45531092D01*
X46159267Y-45531093D01*
X46306933Y-45723536D01*
X46306939Y-45723543D01*
X46478456Y-45895060D01*
X46478463Y-45895066D01*
X46527261Y-45932510D01*
X46670911Y-46042736D01*
X46880988Y-46164024D01*
X47105100Y-46256854D01*
X47339411Y-46319638D01*
X47519786Y-46343384D01*
X47579911Y-46351300D01*
X47579912Y-46351300D01*
X47822489Y-46351300D01*
X47870588Y-46344967D01*
X48062989Y-46319638D01*
X48297300Y-46256854D01*
X48521412Y-46164024D01*
X48731489Y-46042736D01*
X48923938Y-45895065D01*
X49095465Y-45723538D01*
X49243136Y-45531089D01*
X49364424Y-45321012D01*
X49457254Y-45096900D01*
X49520038Y-44862589D01*
X49551700Y-44622088D01*
X49551700Y-44379512D01*
X49520038Y-44139011D01*
X49457254Y-43904700D01*
X49364424Y-43680588D01*
X49243136Y-43470511D01*
X49126495Y-43318501D01*
X49095466Y-43278063D01*
X49095460Y-43278056D01*
X48923943Y-43106539D01*
X48923936Y-43106533D01*
X48731493Y-42958867D01*
X48731492Y-42958866D01*
X48731489Y-42958864D01*
X48521412Y-42837576D01*
X48521405Y-42837573D01*
X48297304Y-42744747D01*
X48062985Y-42681961D01*
X47822489Y-42650300D01*
X47822488Y-42650300D01*
X47579912Y-42650300D01*
X47579911Y-42650300D01*
X47339414Y-42681961D01*
X47105095Y-42744747D01*
X46880994Y-42837573D01*
X46880985Y-42837577D01*
X46670906Y-42958867D01*
X46478463Y-43106533D01*
X46478456Y-43106539D01*
X46306939Y-43278056D01*
X46306933Y-43278063D01*
X46159267Y-43470506D01*
X46159264Y-43470510D01*
X46159264Y-43470511D01*
X46143017Y-43498651D01*
X46037977Y-43680585D01*
X46037973Y-43680594D01*
X45945147Y-43904695D01*
X45882361Y-44139014D01*
X45850700Y-44379511D01*
X44467900Y-44379511D01*
X44467900Y-40138883D01*
X59040000Y-40138883D01*
X59040000Y-40390000D01*
X59800000Y-40390000D01*
X59800000Y-39440000D01*
X59799999Y-39439999D01*
X59738898Y-39440000D01*
X59738881Y-39440001D01*
X59636330Y-39450478D01*
X59470180Y-39505533D01*
X59470177Y-39505534D01*
X59321202Y-39597424D01*
X59321198Y-39597427D01*
X59197427Y-39721198D01*
X59197424Y-39721202D01*
X59105534Y-39870177D01*
X59105533Y-39870180D01*
X59050478Y-40036329D01*
X59050478Y-40036331D01*
X59040000Y-40138883D01*
X44467900Y-40138883D01*
X44467900Y-37708500D01*
X44487585Y-37641461D01*
X44540389Y-37595706D01*
X44591900Y-37584500D01*
X78318700Y-37584500D01*
X78385739Y-37604185D01*
G37*
%TD.AperFunction*%
%TD*%
M02*
