<?xml version="1.0" encoding="utf-8" ?><!DOCTYPE svg PUBLIC "-//W3C//DTD SVG 1.1//EN" "http://www.w3.org/Graphics/SVG/1.1/DTD/svg11.dtd" 
[ <!ATTLIST svg 
  xmlns:dsy CDATA #FIXED "http://www.3ds.com/print"  
    dsy:text-version CDATA #IMPLIED > 

  <!ATTLIST text 
  xmlns:dsy CDATA #FIXED "http://www.3ds.com/print" 
    dsy:text-version CDATA #IMPLIED > 
]><svg xmlns="http://www.w3.org/2000/svg" xmlns:dsy="http://www.3ds.com/print" dsy:text-version="18000" width="297" height="210" viewBox="0 0 297 210" version="1.1"><g stroke="rgb(0, 0, 0)" stroke-width="0.35" stroke-linecap="butt" stroke-linejoin="miter" fill="none"><path d="M 133.5 93.5502 L 133.5 98.4502"/><path d="M 118.5 93.5503 L 133.5 93.5502"/><path d="M 118.5 73.5503 L 118.5 93.5503"/><path d="M 178.5 73.5499 L 118.5 73.5503"/><path d="M 118.5 136.45 L 178.5 136.45"/><path d="M 118.5 98.4503 L 118.5 136.45"/><path d="M 133.5 98.4502 L 118.5 98.4503"/><path d="M 178.5 136.45 L 178.5 118.213"/><path d="M 178.5 90.5022 L 178.5 73.5499"/><path d="M 162.509 102.578 A 14.0246 14.0246 0 0 0 164.204 111.251"/><path d="M 178.5 90.5023 A 14.0148 14 -262.691 0 0 162.509 102.578"/><path d="M 164.204 111.251 A 13.9915 13.9915 0 0 0 178.5 118.213"/><path d="M 162.524 102.463 A 14.0246 14.0246 0 0 0 164.233 111.023"/><path d="M 164.233 111.022 A 13.9917 13.9917 0 0 0 178.5 117.989"/><path d="M 178.5 118.213 L 178.5 117.989"/></g></svg>