<?xml version="1.0" encoding="UTF-8"?>
<svg width="9.144cm" height="5.588cm" version="1.1" viewBox="0 0 9.144e7 5.588e7" xmlns="http://www.w3.org/2000/svg" xmlns:cc="http://creativecommons.org/ns#" xmlns:dc="http://purl.org/dc/elements/1.1/" xmlns:rdf="http://www.w3.org/1999/02/22-rdf-syntax-ns#">
 <title>SVG Picture created as TSAL-B_Cu.svg date 2022/12/04 22:52:08</title>
 <desc>Picture generated by PCBNEW</desc>
 <g stroke-linecap="round" stroke-linejoin="round">
  <g fill="#4D7FC4" stroke="#4D7FC4">
   <circle cx="7.62e6" cy="1.778e7" r="805000"/>
   <circle cx="7.62e6" cy="2.032e7" r="805000"/>
   <path d="m8425000 23665000h-1.61e6v-1.61e6h1.61e6z" fill="#4D7FC4" fill-rule="evenodd" stroke="#4D7FC4" stroke-linecap="round" stroke-linejoin="round"/>
   <circle cx="3.302e7" cy="3.556e7" r="608500"/>
   <circle cx="3.048e7" cy="3.81e7" r="608500"/>
   <path d="m32411500 41248500v-1217000h1217000v1217000z" fill="#4D7FC4" fill-rule="evenodd" stroke="#4D7FC4" stroke-linecap="round" stroke-linejoin="round"/>
   <circle cx="79257680" cy="9093000" r="675000"/>
   <circle cx="76717680" cy="9093000" r="675000"/>
   <circle cx="74177680" cy="9093000" r="675000"/>
   <circle cx="6.604e7" cy="8891500" r="765000"/>
   <path d="m62735000 9656500v-1.53e6h1.53e6v1.53e6z" fill="#4D7FC4" fill-rule="evenodd" stroke="#4D7FC4" stroke-linecap="round" stroke-linejoin="round"/>
   <circle cx="8.382e7" cy="3.81e7" r="765000"/>
   <path d="m84585000 41405000h-1.53e6v-1.53e6h1.53e6z" fill="#4D7FC4" fill-rule="evenodd" stroke="#4D7FC4" stroke-linecap="round" stroke-linejoin="round"/>
   <circle cx="5.842e7" cy="4.826e7" r="765000"/>
   <path d="m55115000 49025000v-1.53e6h1.53e6v1.53e6z" fill="#4D7FC4" fill-rule="evenodd" stroke="#4D7FC4" stroke-linecap="round" stroke-linejoin="round"/>
   <circle cx="3.556e7" cy="7.62e6" r="765000"/>
   <path d="m32255000 8385000v-1.53e6h1.53e6v1.53e6z" fill="#4D7FC4" fill-rule="evenodd" stroke="#4D7FC4" stroke-linecap="round" stroke-linejoin="round"/>
   <circle cx="2.794e7" cy="7.62e6" r="765000"/>
   <path d="m24635000 8385000v-1.53e6h1.53e6v1.53e6z" fill="#4D7FC4" fill-rule="evenodd" stroke="#4D7FC4" stroke-linecap="round" stroke-linejoin="round"/>
   <circle cx="8.382e7" cy="2.032e7" r="765000"/>
   <path d="m84585000 23625000h-1.53e6v-1.53e6h1.53e6z" fill="#4D7FC4" fill-rule="evenodd" stroke="#4D7FC4" stroke-linecap="round" stroke-linejoin="round"/>
   <circle cx="2.032e7" cy="7.62e6" r="765000"/>
   <path d="m17015000 8385000v-1.53e6h1.53e6v1.53e6z" fill="#4D7FC4" fill-rule="evenodd" stroke="#4D7FC4" stroke-linecap="round" stroke-linejoin="round"/>
   <circle cx="7695000" cy="2.794e7" r="765000"/>
   <path d="m8.46e6 31245000h-1.53e6v-1.53e6h1.53e6z" fill="#4D7FC4" fill-rule="evenodd" stroke="#4D7FC4" stroke-linecap="round" stroke-linejoin="round"/>
   <circle cx="7.62e6" cy="4.318e7" r="765000"/>
   <path d="m8385000 46485000h-1.53e6v-1.53e6h1.53e6z" fill="#4D7FC4" fill-rule="evenodd" stroke="#4D7FC4" stroke-linecap="round" stroke-linejoin="round"/>
   <circle cx="7.62e6" cy="3.556e7" r="765000"/>
   <path d="m8385000 38865000h-1.53e6v-1.53e6h1.53e6z" fill="#4D7FC4" fill-rule="evenodd" stroke="#4D7FC4" stroke-linecap="round" stroke-linejoin="round"/>
  </g>
  <g fill="#ECECEC" stroke="#ECECEC">
   <circle cx="1.524e7" cy="4.318e7" r="4e5"/>
   <circle cx="22030667" cy="24247333" r="4e5"/>
   <circle cx="6.858e7" cy="1.016e7" r="4e5"/>
   <circle cx="4.826e7" cy="5.08e6" r="4e5"/>
   <circle cx="23843407" cy="28925185" r="4e5"/>
   <circle cx="3.048e7" cy="2.794e7" r="4e5"/>
   <circle cx="7.112e7" cy="3.556e7" r="4e5"/>
   <circle cx="2.286e7" cy="3.556e7" r="4e5"/>
   <circle cx="2.54e7" cy="3.302e7" r="4e5"/>
   <circle cx="2.54e7" cy="4.572e7" r="4e5"/>
   <circle cx="7.546e7" cy="14676396" r="4e5"/>
   <circle cx="74618913" cy="2.177e7" r="4e5"/>
   <circle cx="1.27e7" cy="2.54e7" r="4e5"/>
   <circle cx="2.032e7" cy="4.064e7" r="4e5"/>
   <circle cx="5.334e7" cy="4.064e7" r="4e5"/>
   <circle cx="6.604e7" cy="3.556e7" r="4e5"/>
   <circle cx="6.35e7" cy="4.318e7" r="4e5"/>
   <circle cx="6.35e7" cy="3.81e7" r="4e5"/>
   <circle cx="64336043" cy="33456043" r="4e5"/>
   <circle cx="57456707" cy="41772597" r="4e5"/>
   <circle cx="56608500" cy="4.318e7" r="4e5"/>
   <circle cx="68393707" cy="24314207" r="4e5"/>
   <circle cx="4.572e7" cy="4.064e7" r="4e5"/>
   <circle cx="4.728e7" cy="1.118e7" r="4e5"/>
   <circle cx="6.858e7" cy="2.63e7" r="4e5"/>
   <circle cx="6.858e7" cy="2.286e7" r="4e5"/>
   <circle cx="7.112e7" cy="1.524e7" r="4e5"/>
   <circle cx="7.62e7" cy="2.032e7" r="4e5"/>
   <circle cx="7.62e7" cy="3.81e7" r="4e5"/>
   <circle cx="4.064e7" cy="1.778e7" r="4e5"/>
   <circle cx="4.064e7" cy="7.62e6" r="4e5"/>
   <circle cx="6.858e7" cy="1.778e7" r="4e5"/>
   <circle cx="4.318e7" cy="4.318e7" r="4e5"/>
   <circle cx="1.524e7" cy="3.81e7" r="4e5"/>
   <circle cx="2.286e7" cy="1.778e7" r="4e5"/>
   <circle cx="20203555" cy="31542222" r="4e5"/>
   <circle cx="32896457" cy="17656457" r="4e5"/>
   <circle cx="1.778e7" cy="24276889" r="4e5"/>
   <circle cx="2.54e7" cy="1.778e7" r="4e5"/>
   <circle cx="1.524e7" cy="3.556e7" r="4e5"/>
   <circle cx="1.016e7" cy="4.826e7" r="4e5"/>
   <circle cx="1.016e7" cy="4.064e7" r="4e5"/>
   <circle cx="1.016e7" cy="3.302e7" r="4e5"/>
  </g>
  <g fill="#4D7FC4" fill-opacity="0" stroke="#4D7FC4" stroke-width="6e5">
   <path d="m1.778e7 4.064e7 -2.54e6 2.54e6"/>
   <path d="m1.778e7 28498000v12142000"/>
   <path d="m22030667 24247333-4250667 4250667"/>
   <path d="m3.302e7 2.794e7v-7.62e6"/>
   <path d="m3.302e7 2.032e7 -123543-123543"/>
   <path d="m3.048e7 3.048e7 2.54e6 -2.54e6"/>
   <path d="m20203555 31542222 1062222-1062222"/>
   <path d="m21265777 3.048e7h9214223"/>
   <path d="m32896457 20196457v-2.54e6"/>
   <path d="m1.524e7 4.572e7h-5.08e6"/>
   <path d="m2.032e7 4.064e7 -5.08e6 5.08e6"/>
   <path d="m1.778e7 24276889 1416889-1416889"/>
   <path d="m19196889 2.286e7h1123111"/>
   <path d="m2.032e7 2.286e7 5.08e6 -5.08e6"/>
   <path d="m6.858e7 1.016e7v-5.08e6"/>
   <path d="m75244680 5.08e6h-26984680"/>
   <path d="m4.826e7 5.08e6h-4.064e7"/>
   <path d="m5.08e6 1.778e7 2.54e6 2.54e6"/>
   <path d="m7.62e6 5.08e6 -2.54e6 2.54e6"/>
   <path d="m79257680 9093000-4013000-4013000"/>
   <path d="m5.08e6 7.62e6v1.016e7"/>
   <path d="m23843407 28925185 985185-985185"/>
   <path d="m24828592 2.794e7h5651408"/>
   <path d="m75827207 3.9e7h2012793"/>
   <path d="m72387207 3.556e7 3.44e6 3.44e6"/>
   <path d="m7.112e7 3.556e7h1267207"/>
   <path d="m7.784e7 3.9e7 1417680-1417680"/>
   <path d="m79257680 37582320v-28489320"/>
   <path d="m6.948e7 2.54e7 -1085793-1085793"/>
   <path d="m7.112e7 2.54e7h-1640500"/>
   <path d="m4.572e7 4.064e7 7.62e6 -7.62e6"/>
   <path d="m5.334e7 3.302e7h1.016e7"/>
   <path d="m6.35e7 3.302e7 7.62e6 -7.62e6"/>
   <path d="m6.108e7 1.028e7 7500199 7500199"/>
   <path d="m46906836 1.028e7h14172965"/>
   <path d="m4.318e7 14006637 3726836-3726836"/>
   <path d="m4.318e7 4.318e7v-29173363"/>
   <path d="m2.032e7 3.81e7 2.54e6 -2.54e6"/>
   <path d="m2.032e7 4.064e7v-2.54e6"/>
   <path d="m2.54e7 4.572e7v-1.27e7"/>
   <path d="m6.44e7 3.048e7 4180500-4180500"/>
   <path d="m4.826e7 19052793 11427207 11427207"/>
   <path d="m59687207 3.048e7h4712293"/>
   <path d="m4.826e7 1.216e7v6892621"/>
   <path d="m4.728e7 1.118e7 980371 980371"/>
   <path d="m74618913 2.177e7v-6252641"/>
   <path d="m74618913 15517087 840691-840691"/>
   <path d="m1.016e7 2.54e7v7.62e6"/>
   <path d="m1.016e7 2.286e7v2.54e6"/>
   <path d="m1.27e7 2.54e7h-2.54e6"/>
   <path d="m1.016e7 4.318e7v5.08e6"/>
   <path d="m1.016e7 4.064e7v2.54e6"/>
   <path d="m5.08e7 4.318e7 2.54e6 -2.54e6"/>
   <path d="m5.08e7 4.826e7v-5.08e6"/>
   <path d="m5.334e7 5.08e7 -2.54e6 -2.54e6"/>
   <path d="m6.604e7 3.556e7v1.524e7"/>
   <path d="m6.604e7 5.08e7h-1.27e7"/>
   <path d="m6.35e7 3.81e7v5.08e6"/>
   <path d="m64336043 33456043-6879336 6879336"/>
   <path d="m57456707 40335379v1437218"/>
   <path d="m56608500 47531500-728500 728500"/>
   <path d="m56608500 4.318e7v4351500"/>
   <path d="m7.112e7 2.032e7 -2.54e6 2.54e6"/>
   <path d="m7.112e7 1.524e7v5.08e6"/>
   <path d="m7.62e7 2.032e7v1.778e7"/>
   <path d="m4.064e7 7.62e6v1.016e7"/>
   <path d="m1.688e7 3.646e7 -1.64e6 1.64e6"/>
   <path d="m1.688e7 2.376e7v1.27e7"/>
   <path d="m2.286e7 1.778e7 -5.98e6 5.98e6"/>
   <path d="m1.524e7 2.54e7v1.016e7"/>
   <path d="m7.62e6 1.778e7 7.62e6 7.62e6"/>
   <path d="m1.016e7 3.302e7v7.62e6"/>
   <path d="m7.62e6 2.032e7 2.54e6 2.54e6"/>
  </g>
  <g fill-opacity="0" stroke="#4D7FC4" stroke-width="6e5">
   <g fill="#4D7FC4" fill-opacity="1" stroke="#4D7FC4" stroke-linecap="round" stroke-linejoin="round" stroke-width="1">
    <path d="m88333621 3068502 46493 53656 11386 52342v49531000l-20002 68121-53656 46493-52342 11386h-85091000l-68121-20002-46493-53656-11386-52342v-6175831h3298501l370 6821 5524 50862 3626 15252 45155 120450 8538 15595 76501 102075 12561 12561 102075 76501 15595 8538 120448 45154 15255 3627 50865 5526 6814 369h537557l15239-4475 1205-1390 1671-7683v-4568h508000l4475 15239 1390 1205 7683 1671h542121l6821-370 50862-5524 15252-3626 120450-45155 15595-8538 102075-76501 12561-12561 76501-102075 8538-15595 45154-120448 3627-15255 5526-50865 369-6814v-537557l-4475-15239-1390-1205-7683-1671h-987337l-15239 4475-1205 1390-1671 7683v987336h-508000v-982769l-4475-15239-1390-1205-7683-1671h-987336l-15239 4475-1205 1390-1671 7683v542121h-3298501v-3349669h3293135l19421 221986 57674 215241 2322 4981 1 1 89524 191986 3 5 2323 4982 127813 182535 157567 157567 83551 58503 1 1 44328 55457 7309 70620-32031 63360-61201 35985-26530 3279 18 328-10218 554-50862 5524-15252 3626-120450 45155-15595 8538-102075 76501-12561 12561-76501 102075-8538 15595-45154 120448-3627 15255-5526 50865-369 6814v537557l4475 15239 1390 1205 7683 1671h2514336l15239-4475 1205-1390 1671-7683v-542121l-370-6821-5524-50862-3626-15252-45155-120450-8538-15595-76501-102075-12561-12561-102075-76501-15595-8538-120448-45154-15255-3627-50865-5526-10211-553 55-1022-64013-18796-46493-53656-10104-70274 29494-64580 22953-20701 79039-55344 2-2 4509-3157 157567-157567 127813-182535 2323-4982 3-5 89524-191986 1-1 2322-4981 57674-215241 19421-221986-19421-221986-48600-181377-7651-28554-1-2-1422-5308-28760-61676-63087-135292-3-5-2323-4982-127813-182535-157567-157567-182534-127813-4982-2323-5-3-191987-89524h-1l-4981-2323-5308-1422-2-1-209931-56251-221986-19421-221986 19421-209931 56251-2 1-5308 1422-4981 2322-1 1-191986 89524-5 3-4982 2323-182535 127813-157567 157567-127813 182535-2323 4982-3 5-63087 135292-28760 61676-1422 5308-1 2-7651 28554-48600 181377-19421 221986h-3293135v-4270331h3298501l370 6821 5524 50862 3626 15252 45155 120450 8538 15595 76501 102075 12561 12561 102075 76501 15595 8538 120448 45154 15255 3627 50865 5526 6814 369h537557l15239-4475 1205-1390 1671-7683v-4568h508000l4475 15239 1390 1205 7683 1671h542121l6821-370 50862-5524 15252-3626 120450-45155 15595-8538 102075-76501 12561-12561 76501-102075 8538-15595 45154-120448 3627-15255 5526-50865 369-6814v-537557l-4475-15239-1390-1205-7683-1671h-987337l-15239 4475-1205 1390-1671 7683v987336h-508000v-982769l-4475-15239-1390-1205-7683-1671h-987336l-15239 4475-1205 1390-1671 7683v542121h-3298501v-3349669h3293135l19421 221986 38162 142422 13995 52228 5517 20591 2322 4981 1 1 89524 191986 3 5 2323 4982 127813 182535 157567 157567 83551 58503 1 1 44328 55457 7309 70620-32031 63360-61201 35985-26530 3279 18 328-10218 554-50862 5524-15252 3626-120450 45155-15595 8538-102075 76501-12561 12561-76501 102075-8538 15595-45154 120448-3627 15255-5526 50865-369 6814v537557l4475 15239 1390 1205 7683 1671h2514336l15239-4475 1205-1390 1671-7683v-542121l-370-6821-5524-50862-3626-15252-45155-120450-8538-15595-76501-102075-12561-12561-102075-76501-15595-8538-120448-45154-15255-3627-50865-5526-10211-553 55-1022-64013-18796-46493-53656-10104-70274 29494-64580 22953-20701 79039-55344 2-2 4509-3157 157567-157567 127813-182535 2323-4982 3-5 89524-191986 1-1 2322-4981 5518-20591 13994-52228 38162-142422 19421-221986-19421-221986-49579-185029-6672-24902-1-2-1422-5308-91847-196968-3-5-2323-4982-124654-178024-2-3-3157-4508-157567-157567-182534-127813-4982-2323-5-3-191987-89524h-1l-4981-2323-5308-1422-2-1-209931-56251-221986-19421-221986 19421-209931 56251-2 1-5308 1422-4981 2322-1 1-191986 89524-5 3-4982 2323-182535 127813-157567 157567-3157 4508-2 3-124654 178024-2323 4982-3 5-91847 196968-1422 5308-1 2-6672 24902-49579 185029-19421 221986h-3293135v-4270331h3373501l370 6821 5524 50862 3626 15252 45155 120450 8538 15595 76501 102075 12561 12561 102075 76501 15595 8538 120448 45154 15255 3627 50865 5526 6814 369h537557l15239-4475 1205-1390 1671-7683v-4568h508000l4475 15239 1390 1205 7683 1671h542121l6821-370 50862-5524 15252-3626 120450-45155 15595-8538 102075-76501 12561-12561 76501-102075 8538-15595 45154-120448 3627-15255 5526-50865 369-6814v-537557l-4475-15239-1390-1205-7683-1671h-987337l-15239 4475-1205 1390-1671 7683v987336h-508000v-982769l-4475-15239-1390-1205-7683-1671h-987336l-15239 4475-1205 1390-1671 7683v542121h-3373501v-3349669h3368135l19421 221986 57674 215241 2322 4981 1 1 89524 191986 3 5 2323 4982 127813 182535 157567 157567 83551 58503 1 1 44328 55457 7309 70620-32031 63360-61201 35985-26530 3279 18 328-10218 554-50862 5524-15252 3626-120450 45155-15595 8538-102075 76501-12561 12561-76501 102075-8538 15595-45154 120448-3627 15255-5526 50865-369 6814v537557l4475 15239 1390 1205 7683 1671h2514336l15239-4475 1205-1390 1671-7683v-542121l-370-6821-5524-50862-3626-15252-45155-120450-8538-15595-76501-102075-12561-12561-102075-76501-15595-8538-120448-45154-15255-3627-50865-5526-10211-553 55-1022-64013-18796-46493-53656-10104-70274 29494-64580 22953-20701 79039-55344 2-2 4509-3157 157567-157567 127813-182535 2323-4982 3-5 89524-191986 1-1 2322-4981 57674-215241 19421-221986-19421-221986-57674-215241-91847-196968-3-5-2323-4982-124654-178024-2-3-3157-4508-157567-157567-182534-127813-4982-2323-5-3-191987-89524h-1l-4981-2323-5308-1422-2-1-209931-56251-221986-19421-221986 19421-209931 56251-2 1-5308 1422-4981 2322-1 1-191986 89524-5 3-4982 2323-182535 127813-157567 157567-3157 4508-2 3-124654 178024-2323 4982-3 5-91847 196968-57674 215241-19421 221986h-3368135v-4230331h3258501l370 6821 5524 50862 3626 15252 45155 120450 8538 15595 76501 102075 12561 12561 102075 76501 15595 8538 120448 45154 15255 3627 50865 5526 6814 369h577557l15239-4475 1205-1390 1671-7683v-1027337l-4475-15239-1390-1205-7683-1671h-1027336l-15239 4475-1205 1390-1671 7683v582121h-3258501v-5847448h1222049l9162 42376 2058 12566 4834 43092 2316 6651 1 4 8713 25020 4163 14812 7085 32768 18327 39303 4782 11776 14265 40963 3734 5975 1 3 14037 22465 7339 13517 14172 30390 4317 5565 1 2 22250 28684 7296 10459 22972 36764 4960 4995 1 1 23641 23807 585 625 517 666 25990 25990 72117 72622 1037 658 1229 1103 1701574 1701574 34026 62312 2400 37764-1481 16929-7487 85578 20031 228958 56296 210098 3189 11903 2322 4980 1 2 57027 122293 37782 81024 131826 188268 162517 162517 2976 2084 39005 58631 1124 70988-37434 60326-58512 26057 699 2939-22936 5453-120450 45155-15595 8538-102075 76501-12561 12561-76501 102075-8538 15595-45154 120448-3627 15255-5526 50865-369 6814v577557l4475 15239 1390 1205 7683 1671h1427452l68121 20002 46493 53656 11386 52342v1422884l4475 15239 1390 1205 7683 1671h582121l6821-370 50862-5524 15252-3626 120450-45155 15595-8538 102075-76501 12561-12561 76501-102075 8538-15595 45154-120448 3627-15255 5526-50865 369-6814-1-629091 20002-68121 53656-46493 70273-10104 64581 29493 6583 6130 166501 166501 34026 62312 2879 26783v2097013l-886 14919-4210 35306 736 7003v1l3670 34916 690 13171v7120192l-16880 62999-9147 15842-59015 181628-19962 189928 19962 189928 59015 181628 9147 15842 16880 62999v6719206l-16880 62999-9147 15842-59015 181628-690 6561v2l-9869 93898-9403 89467 690 6565 14897 141734 4375 41629 59015 181628 9147 15842 16880 62999v4573698l-886 14919-4210 35306 736 7003v1l3670 34916 690 13171v2040192l-16880 62999-9147 15842-59015 181628-19962 189928 690 6565 8676 82543 10596 100820 59015 181628 3303 5722 1 1 33909 58731 58274 100934 4418 4907 1 1 123368 137014 154501 112252 6028 2684 2 1 168434 74991 93401 19853 86943 18481h5l6452 1372h190974l6452-1372h5l86943-18481 93401-19853 168434-74991 2-1 6028-2684 154501-112252 123368-137014 1-1 4418-4907 58274-100934 33909-58731 1-1 3303-5722 59015-181628 10597-100820 724-6887h38925686l9162 42376 2058 12566 4834 43092 2316 6651 1 4 8713 25020 4163 14812 7085 32768 18327 39303 4782 11776 14265 40963 3734 5975 1 3 14037 22465 7339 13517 14172 30390 4317 5565 1 2 22250 28684 7296 10459 22972 36764 4960 4995 1 1 23641 23807 585 625 517 666 25990 25990 72117 72622 1037 658 1229 1103 2469315 2469315 928 937 63077 64412 36450 23491 10325 7419 33897 27059 6339 3064 4 3 23852 11531 13413 7527 22262 14346 3 1 5922 3817 6619 2409 4 2 34112 12416 11744 4961 32682 15799 2 1 6347 3068 32679 7545 14741 4366 31517 11471 6986 882 6 2 36024 4551 12552 2236 35361 8164h3l6868 1586 7046 25h3l33522 117 882 29 831 105h36650l440 1 98484 344h5l3522 12 1200-268 1637-89h12553388l14919 886 35306 4210 46255-4862 2918-234h2117l41458-4651 597-64 87047-9149 2704-921 2839-318 82668-28788 571-196 82927-28231 2435-1498 2696-939 5479-3424 3-1 68729-42945 744-462 4595-2827 69810-42948 2039-1997 2425-1515 62117-61685 626-617 57772-56575 4616-4520 1546-2399 2029-2015 46891-73889 456-714 43824-68001 3512-5449 976-2683 1532-2413 29329-82365 298-827 27688-76072 1-4 2214-6083 358-2835 958-2690 10360-86876 107-870 5914-46813v-2129l263-2891 3999-33538 834-6993-4406-41920-690-13171v-9297455h15698000l6755 62182 51130 136389 87354 116556 116556 87354 136389 51130 62182 6755h1626268l62182-6755 136389-51130 116556-87354 87354-116556 51130-136389 6755-62182v-1626268l-6755-62182-51130-136389-87354-116556-116556-87354-136389-51130-62182-6755h-18374l-68121-20002-46493-53656-10104-70274 26263-60664-7079-13468-676414-676414-13944-7614-1833 131-6615 4251-680367 680367-6430 11776 1910 2469 25862 66119-13990 69604-49401 50992-62130 16383h-19008l-62182 6755-136389 51130-116556 87354-87354 116556-51130 136389-6755 62182v1626268h-15698000v-5442737l16880-62999 9147-15842 59015-181628 938-8919 18334-174444 690-6565-19962-189928-59015-181628-14267-24712-77919-134958-3301-5718-123365-137011-1-1-4421-4910-149159-108371-1-1-5341-3880-6028-2684-2-1-162403-72306h-1l-6030-2685-180344-38334h-5l-6452-1372h-190974l-6452 1372h-5l-180344 38334-6030 2685h-1l-162403 72306-2 1-6028 2684-5341 3880-1 1-149159 108371-4421 4910-1 1-97117 107860-26248 29151-3301 5718-77918 134958-14268 24712-59015 181628-19962 189928 690 6565 18335 174444 937 8919 59015 181628 9147 15842 16880 62999v13855103l-20002 68121-53656 46493-52342 11386h-11378419l-68121-20002-20974-16903-884926-884926h1853941l370 6821 5524 50862 3626 15252 45155 120450 8538 15595 76501 102075 12561 12561 102075 76501 15595 8538 120448 45154 15255 3627 50865 5526 6814 369h537557l15239-4475 1205-1390 1671-7683v-4568h508000l4475 15239 1390 1205 7683 1671h542121l6821-370 50862-5524 15252-3626 120450-45155 15595-8538 102075-76501 12561-12561 76501-102075 8538-15595 45154-120448 3627-15255 5526-50865 553-10211 1022 55 18796-64014 53656-46493 70274-10104 64580 29494 20700 22951 58504 83553 157567 157567 4509 3157 2 2 178023 124654 4982 2323 5 3 196969 91847 5308 1422 2 1 26472 7093 183459 49158 221986 19421 221986-19421 183459-49158 26472-7093 2-1 5308-1422 196969-91847 5-3 4982-2323 178023-124654 2-2 4509-3157 157567-157567 127813-182535 2323-4982 3-5 89524-191986 1-1 2322-4981 3571-13325 40671-151787 13432-50129 19421-221986-19421-221986-44322-165410-11929-44521-1-2-1422-5308-6141-13170-85706-183798-3-5-2323-4982-127813-182535-157567-157567-182534-127813-4982-2323-5-3-191987-89524h-1l-4981-2323-5308-1422-2-1-209931-56251-221986-19421-221986 19421-209931 56251-2 1-5308 1422-4981 2322-1 1-191986 89524-5 3-4982 2323-182535 127813-157567 157567-3157 4508-2 3-55345 79041-55457 44328-70620 7309-63360-32031-35985-61201-3279-26530-328 18-554-10218-5524-50862-3626-15252-45155-120450-8538-15595-76501-102075-12561-12561-102075-76501-15595-8538-120448-45154-15255-3627-50865-5526-6814-369h-537557l-15239 4475-1205 1390-1671 7683v2514336h-508000v-982769l-4475-15239-1390-1205-7683-1671h-987336l-15239 4475-1205 1390-1671 7683v542121h-1853941l-1081783-1081784h2935723l4475 15239 1390 1205 7683 1671h987337l15239-4475 1205-1390 1671-7683v-987336l-4475-15239-1390-1205-7683-1671h-542121l-6821 370-50862 5524-15252 3626-120450 45155-15595 8538-102075 76501-12561 12561-76501 102075-8538 15595-45154 120448-3627 15255-5526 50865-369 6814v537557h-2935723l-25872-25872-34026-62312-2879-26783v-4305836l20002-68121 16903-20974 297987-297987h10643104l690 6565 8844 84142 10428 99221 59015 181628 3303 5722 1 1 33909 58731 58274 100934 127787 141922 154501 112252 6028 2684 2 1 168434 74991 93401 19853 86943 18481h5l6452 1372h190974l6452-1372h5l86943-18481 93401-19853 168434-74991 2-1 6028-2684 154501-112252 127787-141922 58274-100934 33909-58731 1-1 3303-5722 59015-181628 10429-99221 8843-84142 690-6565-1516-14428-17756-168937v-2l-690-6561-59015-181628-9147-15842-16880-62999v-4179206l16880-62999 9147-15842 59015-181628 10429-99221 8843-84142 690-6565-1516-14428-17756-168937v-2l-690-6561-59015-181628-95487-165388-123365-137011-1-1-4421-4910-154501-112252-6028-2684-2-1-162403-72306h-1l-6030-2685-106724-22685-73620-15649h-5l-6452-1372h-190974l-6452 1372h-5l-73620 15649-106724 22685-6030 2685h-1l-162403 72306-2 1-6028 2684-154501 112252-4421 4910-1 1-86187 95721-37178 41290-95487 165388-59015 181628-690 6561v2l-17756 168937-1516 14428 690 6565 8844 84142 10428 99221 59015 181628 9147 15842 16880 62999v4179206l-16880 62999-9147 15842-59015 181628-690 6561v2l-17756 168937-1516 14428h-10643104l1648520-1648520 37846-26012 57501-25601 103463-46064 2-1 6028-2684 154501-112252 123368-137014 1-1 4418-4907 69460-120308 22723-39357 1-2 3303-5721 59015-181628 4376-41629 14896-141734 690-6565-9403-89467-9869-93898v-2l-690-6561-59015-181628-95487-165388-123365-137011-1-1-4421-4910-154501-112252-6028-2684-2-1-162403-72306h-1l-6030-2685-180344-38334h-5l-6452-1372h-190974l-6452 1372h-5l-180344 38334-6030 2685h-1l-162403 72306-2 1-6028 2684-154501 112252-4421 4910-1 1-18672 20738-104693 116273-95487 165388-5863 18044-14964 46055-30737 50157-2219067 2219066-937 928-47055 46080-17357 16997-23491 36450-7419 10325-27059 33897-3065 6341-1 1-11530 23852-7529 13417-18164 28184-2408 6617-3 5-12416 34113-4961 11743-15801 32687-2 5-3065 6341-1583 6858-1 2-5960 25817-4367 14743-11471 31516-883 6990-2 8-4550 36018-2236 12552-9750 42232-25 7046v3l-117 33522-29 882-105 831v36650l-1 440-68 19616-288 82395 268 1200 89 1637v4980079l-7 1320-944 90115h-38925686l7951-75656 690-6565-19962-189928-59015-181628-9147-15842-16880-62999v-1155103l20002-68121 53656-46493 52342-11386h4136286l1320 7 90115 944 42376-9162 12566-2058 43092-4834 6651-2316 4-1 25020-8713 14812-4163 32768-7085 39303-18327 11776-4782 40963-14265 5975-3734 3-1 22465-14037 13517-7339 24002-11193 1-1 6387-2978 34251-26568 10459-7296 30792-19240 3-2 5969-3730 28803-28602 625-585 666-517 25990-25990 72622-72117 658-1037 1103-1229 3047549-3047549h23343104l690 6565 8844 84142 10428 99221 59015 181628 3303 5722 1 1 33909 58731 58274 100934 127787 141922 154501 112252 6028 2684 2 1 168434 74991 93401 19853 86943 18481h5l6452 1372h190974l6452-1372h5l86943-18481 93401-19853 168434-74991 2-1 6028-2684 154501-112252 127787-141922 58274-100934 33909-58731 1-1 3303-5722 59015-181628 10429-99221 8843-84142 690-6565-1516-14428-17756-168937v-2l-690-6561-59015-181628-9147-15842-16880-62999v-28335884l20002-68121 16903-20974 2455739-2455739 62312-34026 70815 5065 44195 30063 583-647 4739 4267 81 55 85 94 4422 4911 5342 3881 2 2 117945 85692 31212 22677 6028 2684 2 1 29900 13312 109318 48671 21746 9682 37846 26012 386878 386878 34026 62312 2879 26783v6496325l-7 1320-944 90115 9162 42376 2058 12566 4834 43092 2316 6651 1 4 8713 25020 4163 14812 7085 32768 18327 39303 4782 11776 14265 40963 3734 5975 1 3 14037 22465 7339 13517 1646 3529 12526 26861 4317 5565 1 2 22250 28684 7296 10459 22972 36764 4960 4995 1 1 23641 23807 585 625 517 666 25990 25990 72117 72622 1037 658 1229 1103 11356522 11356522 928 937 39327 40159 23750 24253 36450 23491 10325 7419 33897 27059 6341 3065 1 1 23852 11530 13417 7529 28184 18164 6617 2408 5 3 34113 12416 11743 4961 32687 15801 5 2 6341 3065 6858 1583 2 1 25817 5960 14743 4367 31516 11471 6990 883 8 2 36018 4550 12552 2236 35361 8164h3l6868 1586 7046 25h3l33522 117 882 29 831 105h36650l440 1 98484 344h5l3522 12 1200-268 1637-89h4006004l68121 20002 46493 53656 10104 70274-29494 64580-6129 6583-671000 671000-62312 34026-26783 2879h-9763753l-1319-7-90067-943-6886 1489h-2l-35477 7671-12579 2060-36094 4048-3 1-6993 784-31677 11031-14810 4162-25880 5595-4 1-6885 1489-6384 2977-6 2-32906 15344-11809 4795-40936 14256-5972 3732-7 3-22464 14037-13517 7339-24007 11195-4 2-6379 2975-34254 26570-10449 7289-36771 22977-4999 4965-2 1-23808 23643-623 583-662 513-25847 25847-72765 72259-659 1038-1106 1233-7236065 7236064-37845 26012-160965 71665-2 1-6028 2684-154501 112252-4421 4910-1 1-18672 20738-104693 116273-95487 165388-59015 181628-690 6561v2l-9869 93898-9403 89467 690 6565 14897 141734 4375 41629 59015 181628 3303 5721 1 2 22723 39357 69460 120308 4418 4907 1 1 123368 137014 154501 112252 6028 2684 2 1 168434 74991 93401 19853 86943 18481h5l6452 1372h190974l6452-1372h5l86943-18481 93401-19853 168434-74991 2-1 6028-2684 154501-112252 123368-137014 1-1 4418-4907 95487-165388 20827-64098 30738-50158 7031895-7031895 62312-34026 26783-2879h8788923l68121 20002 46493 53656 10104 70274-29494 64580-6129 6582-5713551 5713551-937 928-52465 51378-11947 11699-23491 36450-7419 10325-27059 33897-3065 6341-1 1-11530 23852-7529 13417-18164 28184-2408 6617-3 5-12416 34113-4961 11743-15801 32687-2 5-3065 6341-1583 6858-1 2-5960 25817-4367 14743-11471 31516-883 6990-2 8-4550 36018-2236 12552-9750 42232-25 7046v3l-117 33522-29 882-105 831v36650l-1 440-214 61463-142 40548 268 1200 89 1637v896114l-16880 62999-9147 15842-59015 181628-19962 189928 690 6565 14081 133969 5191 49394 59015 181628 95487 165388 4418 4907 1 1 123368 137014 154501 112252 6028 2684 2 1 168434 74991 91514 19452 88830 18882h5l6452 1372h190974l6452-1372h5l88830-18882 91514-19452 168434-74991 2-1 6028-2684 154501-112252 123368-137014 1-1 4418-4907 95487-165388 59015-181628 5192-49394 14080-133969 690-6565-19962-189928-59015-181628-9147-15842-16880-62999v-599739l20002-68121 16903-20974 6285843-6285843 37846-26012 160964-71665 2-1 6028-2684 154501-112252 123368-137014 1-1 4418-4907 95487-165388 59015-181628 19962-189928-19962-189928-59015-181628-95487-165388-76721-85208-30716-64005 8764-70454 26494-38944 6678556-6678556 67624-67153 3-4 4995-4960 21479-33845 7913-11093 20609-25816 3-4 4390-5500 3064-6337 2-4 12955-26799 7055-12675 19721-31076 13449-37768 5251-12554 4040-8357 13408-27735 1586-6868 6698-29009 4070-13919 1319-3705 11025-30961 4745-39793 2344-13426 7431-32189v-3l1585-6864 25-7043 104-29764 885-14475 3524-29558v-1l834-6994-4190-39864-689-13611 115-33032 25-7043-7230-32347-799-3577-2344-14311-3112-29605-736-7002-12919-37950-3684-13109-7207-32240-1537-6876-3023-6367-12764-26881-5458-13441-9591-28174-2271-6671-21007-34146-6498-11968-14170-29843-2-4-3019-6357-22762-28925-8298-11896-15595-25350-3-3-3690-5999-28054-28647-8987-10231-20423-25954-2-2-4357-5537-5473-4432-8-8-23123-18724-10729-9762-20823-21264-2-2-4928-5032-33699-21718-11040-7992-25661-20780-1-1-5476-4434-6319-3110-4-2-26708-13143-12619-7140-25012-16118-1-1-5927-3819-37672-13711-12522-5342-29640-14585h1l-6327-3113-35809-8531-13896-4169-27963-10178h-1l-6618-2409-39759-5023-13409-2436-32141-7657h-1l-6850-1632-7040-74h-3l-16996-178-16817-175-4143-152-2925-370h-42066l-1319-7-90067-943-3302 714-4661 236h-1163234l-68121-20002-20975-16903-497689-497690-30737-50159-18784-57811-1-2-2041-6282-95487-165388-12991-14428-30718-64007 8765-70454 41527-51784 51923-37724 123368-137014 1-1 4418-4907 95487-165388 16015-49287 4812-14811 30738-50158 2219066-2219066 937-928 59380-58149 1-1 5031-4927 23491-36450 7419-10325 27059-33897 3064-6339 3-4 11531-23852 7527-13413 14346-22262 1-3 3817-5922 2411-6623 12416-34112 4961-11744 15799-32682 1-2 3068-6347 7545-32679 4368-14748 533-1464 10936-30046 882-6986 2-6 4551-36024 2236-12552 8164-35361v-3l1586-6868 106-30148 36-10423 29-882 105-831v-36803l61-17393 284-81378v-5l12-3522-268-1200-89-1637v-4538896l16880-62999 9147-15842 59015-181628 14259-135662 5013-47701 690-6565-16445-156470-2827-26895v-2l-690-6561-59015-181628-95487-165388-123365-137011-1-1-4421-4910-149159-108371-1-1-5341-3880-6028-2684-2-1-162403-72306h-1l-6030-2685-180344-38334h-5l-6452-1372h-190974l-6452 1372h-5l-180344 38334-6030 2685h-1l-162403 72306-2 1-6028 2684-5341 3880-1 1-149159 108371-4421 4910-1 1-105271 116916-18094 20095-95487 165388-59015 181628-690 6561v2l-2827 26895-16445 156470 690 6565 5014 47701 14258 135662 59015 181628 9147 15842 16880 62999v4242522l-20002 68121-16903 20974-1946507 1946506-37846 26012-160964 71665-2 1-6028 2684-154501 112252-127787 141922-88724 153675-6763 11713-59015 181628-19962 189928 690 6565 13130 124921 6142 58442 59015 181628 95487 165388 4418 4907 1 1 8572 9520 30718 64007-8765 70454-41527 51784-51923 37724-4421 4910-1 1-63151 70137-60214 66874-3301 5718-78328 135668-13858 24002-59015 181628-690 6561v2l-4255 40486-15017 142879 690 6565 17436 165891 1836 17472 59015 181628 3303 5722 1 1 92183 159665 4418 4907 1 1 123368 137014 154501 112252 6028 2684 2 1 160964 71665 37846 26012 74096 74096 34026 62312-5065 70815-42547 56836-24261 14239-48763 21710-7 4-6026 2683-154501 112252-4421 4910-1 1-7950 8830-115415 128181-95487 165388-2040 6280-1 1-18786 57817-30738 50158-3592395 3592395-62312 34026-26783 2879h-3938129l-68121-20002-20974-16903-1.088e7 -1.088e7 -34026-62312-2879-26783v-6496325l7-1320 870-83068 74-7047-9162-42376-2059-12571-4048-36088-785-6999-4484-12879-6546-18796-4163-14812-5595-25877-1490-6891-18327-39303-4782-11776-14265-40963-3735-5978-14037-22465-7339-13517-11193-24002-1-1-2978-6387-26568-34251-7296-10459-19240-30792-2-3-3730-5969-28602-28803-585-625-517-666-25990-25990-72117-72622-1037-658-1229-1103-220933-220933-34026-62312 5065-70815 42547-56836 66520-24811 8989-321h12057008l68121 20002 20974 16903 6912094 6912094 30738 50158 16270 50072 4557 14026 95487 165388 4418 4907 1 1 123368 137014 154501 112252 6028 2684 2 1 168434 74991 79588 16917 100756 21417h5l6452 1372h190974l6452-1372h5l100756-21417 79588-16917 168434-74991 2-1 6028-2684 154501-112252 123368-137014 1-1 4418-4907 95487-165388 59015-181628 10597-100820 8675-82543 690-6565-9004-85671-10268-97694v-2l-690-6561-59015-181628-95487-165388-127787-141922-154501-112252-6028-2684-2-1-160965-71665-37845-26012-7173877-7173877-928-937-12277-12537h582171l370 6821 5524 50862 3626 15252 45155 120450 8538 15595 76501 102075 12561 12561 102075 76501 15595 8538 120448 45154 15255 3627 50865 5526 6814 369h537557l15239-4475 1205-1390 1671-7683v-4568h508000l4475 15239 1390 1205 7683 1671h542121l6821-370 50862-5524 15252-3626 120450-45155 15595-8538 102075-76501 12561-12561 76501-102075 8538-15595 45154-120448 3627-15255 5526-50865 553-10211 1022 55 18796-64014 53656-46493 70274-10104 64580 29494 20700 22951 17268 24662 19406 27714 21830 31177 157567 157567 4509 3157 2 2 178023 124654 4982 2323 5 3 196969 91847 5308 1422 2 1 26472 7093 183459 49158 221986 19421 221986-19421 183459-49158 26472-7093 2-1 5308-1422 196969-91847 5-3 4982-2323 178023-124654 2-2 4509-3157 157567-157567 21831-31177 66321-94717 39661-56641 2323-4982 3-5 89524-191986 1-1 2322-4981 5843-21804 38399-143308 13432-50129 19421-221986-19421-221986-57674-215241-13030-27943-78817-169025-3-5-2323-4982-102914-146976-21740-31048-2-3-3157-4508-157567-157567-5886-4122-102238-71588-74410-52103-4982-2323-5-3-191987-89524h-1l-4981-2323-5308-1422-2-1-209931-56251-221986-19421-221986 19421-209931 56251-2 1-5308 1422-4981 2322-1 1-191986 89524-5 3-4982 2323-176648 123691-5887 4122-157567 157567-3157 4508-2 3-55345 79041-55457 44328-70620 7309-63360-32031-35985-61201-3279-26530-328 18-554-10218-5524-50862-3626-15252-45155-120450-8538-15595-76501-102075-12561-12561-102075-76501-15595-8538-120448-45154-15255-3627-50865-5526-6814-369h-537557l-15239 4475-1205 1390-1671 7683v2514336h-508000v-982769l-4475-15239-1390-1205-7683-1671h-987336l-15239 4475-1205 1390-1671 7683v542121h-582171l-45872-46843-1-1-4927-5031-36450-23491-10325-7419-33897-27059-8278-4002-21916-10594-13418-7530-28183-18163-6617-2408-5-3-34113-12416-11743-4961-32687-15801-5-2-6341-3065-6858-1583-2-1-25817-5960-14743-4367-31516-11471-6990-883-8-2-36018-4550-12552-2236-35361-8164h-3l-6868-1586-7046-25h-3l-33522-117-882-29-831-105h-36650l-440-1-98484-344h-5l-3522-12-1200 268-1637 89h-14073044l-1320-7-1075-11-89040-933-42376 9162-12566 2058-43092 4834-6651 2316-4 1-25020 8713-14813 4163-32767 7085-39303 18327-11776 4782-40963 14265-5975 3734-3 1-22465 14037-13517 7339-30390 14172-5565 4317-2 1-28684 22250-10459 7296-30792 19240-3 2-5969 3730-4995 4960-1 1-23807 23641-625 585-666 517-25990 25990-72622 72117-658 1037-1103 1229-3656151 3656151-937 928-64412 63077-23491 36450-7419 10325-27059 33897-3065 6341-1 1-11530 23852-7529 13417-18164 28184-2408 6617-3 5-12416 34113-4961 11743-15801 32687-2 5-3065 6341-1583 6858-1 2-5960 25817-4367 14743-11471 31516-883 6990-2 8-4550 36018-2236 12552-9750 42232-25 7046v3l-117 33522-29 882-105 831v36803l-357 102298 268 1200 89 1637v28632259l-16880 62999-9147 15842-59015 181628-690 6561v2l-17756 168937-1516 14428h-23343104l1648520-1648520 37846-26012 57501-25601 103463-46064 2-1 6028-2684 154501-112252 20018-22232h10951729l6755 62182 51130 136389 87354 116556 116556 87354 136389 51130 62182 6755h1313268l62182-6755 136389-51130 116556-87354 87354-116556 51130-136389 6755-62182v-1313268l-6755-62182-51130-136389-87354-116556-116556-87354-136389-51130-62182-6755h-1313268l-62182 6755-136389 51130-116556 87354-87354 116556-51130 136389-6755 62182v1313268h-10951729l103350-114782 1-1 4418-4907 69460-120308 22723-39357 1-2 3303-5721 59015-181628 4376-41629 14896-141734 690-6565-9403-89467-9869-93898v-2l-690-6561-59015-181628-9147-15842-16880-62999v-1702521l20002-68121 16903-20974 327352-327352h7865842l13427 204851 50533 198974 85947 186432 118482 167649 147050 143250 4796 3205 3 2 165893 110846 5303 2278 3 2 171729 73780 11584 4977 73668 16669 120924 27363 5 1 5632 1274 5771 227h2l199359 7833 101583-14729 95869-13900 5-1 5709-828 5464-1855 5-1 183454-62274 5-2 5467-1856 174077-97488 4-3 5034-2819 4437-3691 4-2 148957-123886 4438-3691 127577-153395 2-4 3691-4437 2819-5034 3-4 94665-169036v-1l2823-5040 1856-5467 2-5 62274-183454 1-5 1855-5464 828-5709 1-5 15036-103707 13593-93745 1537-58710-18028-196206-227-2466-529-5757-1569-5564-52585-186454-2-5-1568-5560-7211-14624-81033-164316-2554-5179-122830-164490-146509-135431-2-2-4239-3918-173619-109546-5360-2138-3-2-185313-73932-5660-1126-4-1-190015-37796h-2l-5665-1127-5775-76h-4l-102557-1342-96936-1269-5697 979h-1l-190937 32809-3 1-5687 977-192602 71054-171460 102008-3 2-4965 2954-154345 135357-3575 4535-1 1-66930 84901-56588 71781-2691 5116-2 2-81788 155453-11105 21108-60877 196057-24130 203867h-7865842l1563213-1563213h9380968l9882 12490 33346 22281 10110 5490 177927 76443 10932 3552 188869 42736 11414 1503 193497 7602 11482-602 191647-27787 11183-2684 183372-62247 10503-4676 113176-63381 9862-10075-2955-7672-568373-568373-13944-7614-1833 131-6615 4251-567286 567286-6196 11346h-9380968l55942-55942 37846-26012 160964-71665 2-1 6028-2684 154501-112252 123368-137014 1-1 4418-4907 58274-100934 33909-58731 1-1 3303-5722 59015-181628 938-8919 18334-174444 690-6565-2479-23586h8128454l12665 193225 1801 11370 47665 187683 3841 10847 81072 175860 5749 9957 7417 10495 10589 8388 13301-7028 564399-564399 6378-11680h730052l131 1833 4251 6615 567690 567690 12380 6760 6580-4926 66083-118002 4676-10503 62247-183372 2684-11183 28083-193687 630-7382 1343-51271-243-7399-17907-194886-2098-11321-52561-186366-4125-10747-85367-173108-7945-5961-12417 6771-566501 566501-7614 13944h-730052l1236-2264-131-1833-4251-6615-568961-568961-12380-6760-5966 4466-77144 146627-4403 10633-57424 184932-2390 11244-22762 192312-301 11501h-8128454l-17483-166342-59015-181628-14267-24712-77919-134958-3301-5718-123365-137011-1-1-4421-4910-149159-108371-1-1-5341-3880-6028-2684-2-1-162403-72306h-1l-6030-2685-180344-38334h-5l-6452-1372h-190974l-6452 1372h-5l-180344 38334-6030 2685h-1l-162403 72306-2 1-6028 2684-5341 3880-1 1-149159 108371-4421 4910-1 1-97117 107860-26248 29151-3301 5718-77918 134958-14268 24712-20827 64099-30738 50158-2219066 2219065-937 928-47055 46080-17357 16997-23491 36450-7419 10325-27059 33897-3065 6341-1 1-11530 23852-7529 13417-18164 28184-2408 6617-3 5-12416 34113-4961 11743-15801 32687-2 5-3065 6341-1583 6858-1 2-5960 25817-4367 14743-11471 31516-883 6990-2 8-4550 36018-2236 12552-4947 21430-4803 20802-25 7046v3l-117 33522-29 882-105 831v36650l-1 440-257 73767-99 28244 268 1200 89 1637v1998896l-16880 62999-9147 15842-2040 6280-1 1-18786 57817-30738 50158-695617 695617-62312 34026-70815-5065-56836-42547-24811-66520 12239-63829 7585-15691 4080-8439 7545-32679 4368-14748 11469-31510 882-6986 2-6 4551-36024 2236-12552 8164-35361v-3l1586-6868 142-40571 29-882 105-831v-36803l1-88v-199l344-98484v-5l12-3522-268-1200-89-1637v-5936820h13848085l3486 8388 567117 567117 13944 7614 1833-131 6615-4251 566864-566864 6760-12380-6030-8055-63238-39900-10248-5221-179863-71758-11027-3267-189925-37778-11446-1203-193620-2534-11480 903-190846 32793-11108 2977-181679 67024-10382 4952-86129 51241-9598 10333h-13848085v-3070251h701551l19962 189928 59015 181628 95487 165388 4418 4907 1 1 123368 137014 22774 16546 120989 87904 10738 7802 6028 2684 2 1 168434 74991 93401 19853 86943 18481h5l6452 1372h190974l6452-1372h5l86943-18481 93401-19853 168434-74991 2-1 6028-2684 131727-95706 22774-16546 123368-137014 1-1 4418-4907 95487-165388 20827-64098 30738-50158 474117-474117 62312-34026 26783-2879h8817927l1320 7 90115 944 42376-9162 12566-2058 43092-4834 6651-2316 4-1 25020-8713 14812-4163 32768-7085 39303-18327 11776-4782 40963-14265 5975-3734 3-1 22465-14037 13517-7339 24002-11193 1-1 6387-2978 34251-26568 10459-7296 30792-19240 3-2 5969-3730 28803-28602 625-585 666-517 25990-25990 72622-72117 658-1037 1103-1229 2469315-2469315 937-928 59380-58149 1-1 5031-4927 23491-36450 7419-10325 27059-33897 3064-6339 3-4 11531-23852 7527-13413 14346-22262 1-3 3817-5922 14373-39489 454-1246 4961-11744 15799-32682 1-2 3068-6347 7545-32679 4368-14748 11469-31510 882-6986 2-6 4551-36024 2236-12552 8164-35361v-3l1586-6868 142-40571 29-882 105-831v-36803l50-14428 295-84343v-5l12-3522-268-1200-89-1637v-7520128l7-1319 515-49168 428-40899-1487-6878-1-10-7671-35478-2061-12582-4048-36088-785-6998-3368-9673-7660-21994-4164-14813-5598-25894-1-3-1487-6878-18327-39303-4782-11776-14265-40963-8033-12856-9739-15587-7339-13517-11871-25457-11806-53251v-1740926l16880-62999 9147-15842 59015-181628 19962-189928-14058-133757-5214-49608v-2l-690-6561-59015-181628-95487-165388-12126-13468-111239-123543-1-1-4421-4910-154501-112252-6028-2684-2-1-162403-72306h-1l-6030-2685-180344-38334h-5l-6452-1372h-190974l-6452 1372h-5l-180344 38334-6030 2685h-1l-162403 72306-2 1-6028 2684-154501 112252-4421 4910-1 1-111238 123543-12127 13468-95487 165388-59015 181628-690 6561v2l-5214 49608-14058 133757 19962 189928 59015 181628 9147 15842 16880 62999v2080389l-7 1320-944 90115 9162 42376 2058 12566 4834 43092 2316 6651 1 4 8713 25020 4163 14812 7085 32768 18327 39303 4782 11776 14265 40963 3734 5975 1 3 14037 22465 7339 13517 11871 25457 11806 53251v6884242l-20002 68121-16903 20974-586233 586233-62312 34026-70815-5065-56836-42547-24811-66520 369-22159 18857-179417 690-6565-9403-89467-9869-93898v-2l-690-6561-59015-181628-92186-159670-3301-5718-123365-137011-1-1-4421-4910-126975-92253-22184-16118-1-1-5341-3880-6028-2684-2-1-162403-72306h-1l-6030-2685-93401-19853-86943-18481h-5l-6452-1372h-190974l-6452 1372h-5l-86943 18481-93401 19853-6030 2685h-1l-104926 46716-51249 10893h-5197700l-1320-7-1075-11-89040-933-42376 9162-12566 2058-43092 4834-6651 2316-4 1-25020 8713-14813 4163-32767 7085-39303 18327-11776 4782-40963 14265-5975 3734-3 1-22465 14037-13517 7339-30390 14172-5565 4317-2 1-28684 22250-10459 7296-30792 19240-3 2-5969 3730-4995 4960-1 1-23807 23641-625 585-666 517-25990 25990-72622 72117-658 1037-1103 1229-601254 601254-37846 26012-160964 71665-2 1-6028 2684-154501 112252-4421 4910-1 1-110143 122327-13222 14684-95487 165388-59015 181628-690 6561v2l-9572 91072-9700 92293 19962 189928 59015 181628 95487 165388 4425 4915 3192 4393 23859 66867-16079 69152-50913 49481-58802 14563h-1735058l-1320-7-1075-11-89040-933-42376 9162-12566 2058-43092 4834-6651 2316-4 1-25020 8713-14813 4163-32767 7085-39303 18327-11776 4782-40963 14265-5975 3734-3 1-22465 14037-13517 7339-30390 14172-5565 4317-2 1-28684 22250-10459 7296-30792 19240-3 2-5969 3730-4995 4960-1 1-23807 23641-625 585-666 517-25990 25990-72622 72117-658 1037-1103 1229-678291 678291-37846 26012-160964 71665-2 1-6028 2684-154501 112252-127787 141922-95487 165388-59015 181628-19962 189928h-701551v-2657140l20002-68121 16903-20974 3657174-3657174 37846-26012 160964-71665 2-1 6028-2684 154501-112252 42154-46817 81214-90197 1-1 4418-4907 92183-159665 1-1 3303-5722 59015-181628 782-7434 18490-175929 690-6565-8813-83855-10459-99510v-2l-690-6561-59015-181628-95487-165388-4487-4984-118878-132027-1-1-4421-4910-138388-100545-10771-7826-1-1-5341-3880-6028-2684-2-1-162403-72306h-1l-6030-2685-103040-21902-77304-16432h-5l-6452-1372h-190974l-6452 1372h-5l-77304 16432-103040 21902-6030 2685h-1l-162403 72306-2 1-6028 2684-5341 3880-1 1-10771 7826-138388 100545-4421 4910-1 1-118877 132027-4488 4984-95487 165388-2040 6280-1 1-18786 57817-30738 50158-3240980 3240980-62312 34026-70815-5065-56836-42547-24811-66520-321-8989v-1830529l20002-68121 53656-46493 52342-11386h60987l6452-1372h5l86943-18481 93401-19853 168434-74991 2-1 6028-2684 154501-112252 123368-137014 1-1 4418-4907 95487-165388 9604-29556 11222-34539 30737-50159 828785-828786 62313-34025 26783-2880h726815l1320 7 90115 944 42376-9162 12566-2058 43092-4834 6651-2316 4-1 25020-8713 14812-4163 32768-7085 39303-18327 11776-4782 40963-14265 5975-3734 3-1 22465-14037 13517-7339 24002-11193 1-1 6387-2978 11125-8629 23126-17939 10459-7296 30792-19240 3-2 5969-3730 28803-28602 625-585 666-517 25990-25990 72622-72117 658-1037 1103-1229 4696069-4696069 37846-26012 160964-71665 2-1 6028-2684 154501-112252 123368-137014 1-1 4418-4907 95487-165388 59015-181628 10597-100820 8675-82543 690-6565-9004-85671-10268-97694v-2l-690-6561-59015-181628-95487-165388-127787-141922-154501-112252-6028-2684-2-1-162403-72306h-1l-6030-2685-93401-19853-86943-18481h-5l-6452-1372h-190974l-6452 1372h-5l-86943 18481-93401 19853-6030 2685h-1l-162403 72306-2 1-6028 2684-154501 112252-127787 141922-95487 165388-2040 6280-1 1-18786 57817-30738 50158-545546 545546-62312 34026-70815-5065-56836-42547-24811-66520 369-22159 18857-179416 690-6565-9004-85671-10268-97694v-2l-690-6561-59015-181628-95487-165388-127787-141922-154501-112252-6028-2684-2-1-162403-72306h-1l-6030-2685-93401-19853-86943-18481h-5l-6452-1372h-190974l-6452 1372h-5l-86943 18481-93401 19853-6030 2685h-1l-162403 72306-2 1-6028 2684-154501 112252-127787 141922-95487 165388-2040 6280-1 1-18786 57817-30738 50158-5659066 5659066-937 928-55740 54585-8672 8492-23491 36450-7419 10325-27059 33897-3065 6341-1 1-11530 23852-7529 13417-18164 28184-2408 6617-3 5-12416 34113-4961 11743-15801 32687-2 5-3065 6341-1583 6858-1 2-5960 25817-4367 14743-11471 31516-883 6990-2 8-4550 36018-2236 12552-8008 34688-1742 7544-25 7046v3l-117 33522-29 882-105 831v36545l-1 439-130 37228-226 64889 268 1200 89 1637v933451l-20002 68121-53656 46493-70274 10104-64580-29494-6896-6443-7078-7128-583-623-510-658-25847-25847-69770-70259-4-4-2485-2502-1038-659-1233-1106-6781569-6781570-34026-62312-2400-37764 8489-97031v-1l479-5475-20031-228958-59485-222001-20583-44140-74226-159178-2-3-2321-4978-131826-188268-162517-162517-4508-3157-3-2-179247-125510-3-2-4506-3155-4982-2323-5-3-198331-92483-1-1-4981-2322-5308-1422-2-1-216691-58062-228958-20031-228958 20031-216691 58062-2 1-5308 1422-4980 2322-2 1-198336 92486-3 2-4978 2321-188268 131826-162517 162517-131826 188268-2321 4978-2 3-74226 159178-20583 44140-59485 222001-479 5480-2284 26106-25862 66118-57503 41641-70887 3942-60364-33586-178730-178730-34026-62312-2879-26783v-8963249h10618501l370 6821 5524 50862 3626 15252 45155 120450 8538 15595 76501 102075 12561 12561 102075 76501 15595 8538 120448 45154 15255 3627 50865 5526 6814 369h537557l15239-4475 1205-1390 1671-7683v-4568h508000l4475 15239 1390 1205 7683 1671h542121l6821-370 50862-5524 15252-3626 120450-45155 15595-8538 102075-76501 12561-12561 76501-102075 8538-15595 45154-120448 3627-15255 5526-50865 553-10211 1022 55 18796-64014 53656-46493 70274-10104 64580 29494 20700 22951 58504 83553 157567 157567 4509 3157 2 2 178023 124654 4982 2323 5 3 196969 91847 5308 1422 2 1 26472 7093 183459 49158 221986 19421 221986-19421 183459-49158 26472-7093 2-1 5308-1422 196969-91847 5-3 4982-2323 178023-124654 2-2 4509-3157 157567-157567 8436-12048h2819281l370 6821 5524 50862 3626 15252 45155 120450 8538 15595 76501 102075 12561 12561 102075 76501 15595 8538 120448 45154 15255 3627 50865 5526 6814 369h537557l15239-4475 1205-1390 1671-7683v-4568h508000l4475 15239 1390 1205 7683 1671h542121l6821-370 50862-5524 15252-3626 120450-45155 15595-8538 102075-76501 12561-12561 76501-102075 8538-15595 45154-120448 3627-15255 5526-50865 553-10211 1022 55 18796-64014 53656-46493 70274-10104 64580 29494 20700 22951 58504 83553 157567 157567 4509 3157 2 2 178023 124654 4982 2323 5 3 196969 91847 5308 1422 2 1 26472 7093 183459 49158 221986 19421 221986-19421 183459-49158 26472-7093 2-1 5308-1422 196969-91847 5-3 4982-2323 178023-124654 2-2 4509-3157 157567-157567 8436-12048h2819281l370 6821 5524 50862 3626 15252 45155 120450 8538 15595 76501 102075 12561 12561 102075 76501 15595 8538 120448 45154 15255 3627 50865 5526 6814 369h537557l15239-4475 1205-1390 1671-7683v-4568h508000l4475 15239 1390 1205 7683 1671h542121l6821-370 50862-5524 15252-3626 120450-45155 15595-8538 102075-76501 12561-12561 76501-102075 8538-15595 45154-120448 3627-15255 5526-50865 553-10211 1022 55 18796-64014 53656-46493 70274-10104 64580 29494 20700 22951 58504 83553 157567 157567 4509 3157 2 2 178023 124654 4982 2323 5 3 196969 91847 5308 1422 2 1 26472 7093 183459 49158 221986 19421 221986-19421 183459-49158 26472-7093 2-1 5308-1422 196969-91847 5-3 4982-2323 118854-83223 34974-24489h25873989l4475 15239 1390 1205 7683 1671h987337l15239-4475 1205-1390 1671-7683v-987336l-4475-15239-1390-1205-7683-1671h-542121l-6821 370-50862 5524-15252 3626-120450 45155-15595 8538-102075 76501-12561 12561-76501 102075-8538 15595-45154 120448-3627 15255-5526 50865-369 6814v537557h-25873989l24195-16942 2-2 4509-3157 157567-157567 127813-182535 2323-4982 3-5 89524-191986 1-1 2322-4981 9127-34060 28182-105180 20365-76001 19421-221986-19421-221986-57674-215241-33148-71086-58699-125882-3-5-2323-4982-127813-182535-157567-157567-182534-127813-4982-2323-5-3-191987-89524h-1l-4981-2323-5308-1422-2-1-209931-56251-221986-19421-221986 19421-209931 56251-2 1-5308 1422-4981 2322-1 1-191986 89524-5 3-4982 2323-182535 127813-157567 157567-3157 4508-2 3-55345 79041-55457 44328-70620 7309-63360-32031-35985-61201-3279-26530-328 18-554-10218-5524-50862-3626-15252-45155-120450-8538-15595-76501-102075-12561-12561-102075-76501-15595-8538-120448-45154-15255-3627-50865-5526-6814-369h-537557l-15239 4475-1205 1390-1671 7683v2514336h-508000v-982769l-4475-15239-1390-1205-7683-1671h-987336l-15239 4475-1205 1390-1671 7683v542121h-2819281l119377-170487 2323-4982 3-5 89524-191986 1-1 2322-4981 9127-34060 28182-105180 20365-76001 19421-221986-19421-221986-13432-50129h2561488l4475 15239 1390 1205 7683 1671h987337l15239-4475 1205-1390 1671-7683v-987336l-4475-15239-1390-1205-7683-1671h-542121l-6821 370-50862 5524-15252 3626-120450 45155-15595 8538-102075 76501-12561 12561-76501 102075-8538 15595-45154 120448-3627 15255-5526 50865-369 6814v537557h-2561488l-44242-165112-33148-71086-58699-125882-3-5-2323-4982-127813-182535-157567-157567-182534-127813-4982-2323-5-3-191987-89524h-1l-4981-2323-5308-1422-2-1-209931-56251-221986-19421-221986 19421-209931 56251-2 1-5308 1422-4981 2322-1 1-191986 89524-5 3-4982 2323-182535 127813-157567 157567-3157 4508-2 3-55345 79041-55457 44328-70620 7309-63360-32031-35985-61201-3279-26530-328 18-554-10218-5524-50862-3626-15252-45155-120450-8538-15595-76501-102075-12561-12561-102075-76501-15595-8538-120448-45154-15255-3627-50865-5526-6814-369h-537557l-15239 4475-1205 1390-1671 7683v2514336h-508000v-982769l-4475-15239-1390-1205-7683-1671h-987336l-15239 4475-1205 1390-1671 7683v542121h-2819281l119377-170487 2323-4982 3-5 89524-191986 1-1 2322-4981 9127-34060 28182-105180 20365-76001 19421-221986-19421-221986-13432-50129h2561488l4475 15239 1390 1205 7683 1671h987337l15239-4475 1205-1390 1671-7683v-987336l-4475-15239-1390-1205-7683-1671h-542121l-6821 370-50862 5524-15252 3626-120450 45155-15595 8538-102075 76501-12561 12561-76501 102075-8538 15595-45154 120448-3627 15255-5526 50865-369 6814v537557h-2561488l-44242-165112-33148-71086-58699-125882-3-5-2323-4982-127813-182535-157567-157567-182534-127813-4982-2323-5-3-191987-89524h-1l-4981-2323-5308-1422-2-1-209931-56251-221986-19421-221986 19421-209931 56251-2 1-5308 1422-4981 2322-1 1-191986 89524-5 3-4982 2323-182535 127813-157567 157567-3157 4508-2 3-55345 79041-55457 44328-70620 7309-63360-32031-35985-61201-3279-26530-328 18-554-10218-5524-50862-3626-15252-45155-120450-8538-15595-76501-102075-12561-12561-102075-76501-15595-8538-120448-45154-15255-3627-50865-5526-6814-369h-537557l-15239 4475-1205 1390-1671 7683v2514336h-508000v-982769l-4475-15239-1390-1205-7683-1671h-987336l-15239 4475-1205 1390-1671 7683v542121h-10618501v-422587l20002-68121 16903-20974 570102-570102h10011493l4475 15239 1390 1205 7683 1671h987337l15239-4475 1205-1390 1671-7683v-987336l-4475-15239-1390-1205-7683-1671h-542121l-6821 370-50862 5524-15252 3626-120450 45155-15595 8538-102075 76501-12561 12561-76501 102075-8538 15595-45154 120448-3627 15255-5526 50865-369 6814v537557h-10011493l1422480-1422480 62312-34026 26783-2879h39808424l51249 10893 110957 49401 93401 19853 86943 18481h5l6452 1372h190974l6452-1372h5l180344-38334 110957-49401 51249-10893h18941006l68121 20002 46493 53656 11386 52342v3695103l-16880 62999-9147 15842-59015 181628-690 6561v2l-12966 123369-6306 59996 690 6565 11043 105064 8229 78299 59015 181628 95487 165388 127787 141922 154501 112252 6028 2684 2 1 168434 74991 180344 38334h5l6452 1372h190974l6452-1372h5l180344-38334 168434-74991 2-1 6028-2684 154501-112252 127787-141922 95487-165388 59015-181628 8230-78299 11042-105064 690-6565-6306-59996-12966-123369v-2l-690-6561-59015-181628-9147-15842-16880-62999v-647716h3601017l14226 217046 1421 5596 1 5 23930 94222 28190 110997 91063 197532 125536 177629 155805 151778 180854 120844 5308 2281h1l189237 81302 3 1 5300 2277 204313 46232 7835 1773 5771 227h2l72987 2867 138585 5445 215261-31211 5464-1855 5-1 195028-66203 5-2 5467-1856 5861-3282 134862-75527 20776-11635h1264057l9881 12488 49432 33030 10103 5486 189153 81267 10943 3555 200786 45434 11410 1502 205712 8082 11482-602 203734-29539 11196-2688 194940-66174 10509-4679 134863-75527 9864-10078-2955-7671-617233-617234-13943-7613-1834 131-6614 4251-615236 615237-6193 11342h-1264057l28279-15837 167233-139086 139086-167233 103457-184735 1-2 2823-5041 1856-5467 2-5 65238-192186 40837-58077 65753-26778 69792 13021 51673 48687 13381 32632 24312 95728 3838 10838 86189 186958 5756 9969 17532 24808 10591 8391 13299-7027 612117-612116 7613-13943-131-1834-4251-6614-618206-618205-12375-6757-5966 4466-89603 170306-4409 10644-50755 163456-39303 59125-65029 28491-70109-11190-52930-47317-14230-32272-17892-63443-20777-73669-96203-195081-126690-169659-1-1-3452-4623-155484-143728-3-2-4237-3917-183957-116068-202027-80600-213333-42435-5775-76h-4l-211714-2771-5697 979h-1l-202983 34879-3 1-5687 977-204068 75284-186931 111213-163534 143415-127430 161644-7231 9172-101276 192496-1713 5517-54425 175276-8364 26935-25566 216005h-3601017v-3047387l20002-68121 53656-46493 52342-11386h5343098l68121 20002 20974 16903 1768135 1768135 34026 62312-5065 70815-42547 56836-65624 24744-16851 1326-202885 34862-11120 2980-193142 71254-10378 4950-105897 63002-9598 10333 3486 8388 1613788 1613788 12379 6759 6580-4926 78231-139691 4679-10509 65178-192007 40837-58076 65753-26778 69792 13021 51674 48687 13380 32632 25781 101511 91063 197532 125536 177629 57217 55738 34838 61861 3241 28393v27184332l-20002 68121-16903 20975-870263 870262-62312 34025-26783 2879h-216345l-68121-20002-46493-53656-10696-39172-3252-30947-14468-137651-59015-181628-9147-15842-16880-62999v-16879206l16880-62999 9147-15842 59015-181628 1543-14675 17729-168688 690-6565-5084-48369-14188-134996v-2l-690-6561-59015-181628-95487-165388-127787-141922-154501-112252-6028-2684-2-1-162403-72306h-1l-6030-2685-93401-19853-86943-18481h-5l-6452-1372h-190974l-6452 1372h-5l-86943 18481-93401 19853-6030 2685h-1l-162403 72306-2 1-6028 2684-5341 3880-1 1-110432 80234-66868 23858-69151-16080-49480-50914-14562-58800v-3606891l20002-68121 16902-20974 247198-247199 37847-26012 160964-71665 2-1 6028-2684 154501-112252 103782-115262 19586-21752 1-1 4418-4907 95487-165388 59015-181628 19962-189928-19962-189928-59015-181628-95487-165388-123365-137011-1-1-4421-4910-154501-112252-6028-2684-2-1-162403-72306h-1l-6030-2685-180344-38334h-5l-6452-1372h-190974l-6452 1372h-5l-180344 38334-6030 2685h-1l-162403 72306-2 1-6028 2684-154501 112252-4421 4910-1 1-82896 92066-40469 44945-95487 165388-2040 6280-1 1-18786 57817-30738 50158-519757 519757-937 928-64412 63077-23491 36450-7419 10325-27059 33897-3065 6341-1 1-11530 23852-7529 13417-18164 28184-2408 6617-3 5-12416 34113-4961 11743-15801 32687-2 5-3065 6341-1583 6858-1 2-5960 25817-4367 14743-11471 31516-883 6990-2 8-4550 36018-2236 12552-9750 42232-25 7046v3l-117 33522-29 882-105 831v36650l-1 440-147 42244-209 59767 268 1200 89 1637v5711537l-16880 62999-9147 15842-59015 181628-19962 189928 690 6565 18536 176356 736 7007 59015 181628 95487 165388 4418 4907 1 1 123368 137014 154501 112252 6028 2684 2 1 168434 74991 180344 38334h5l6452 1372h190974l6452-1372h5l180344-38334 168434-74991 2-1 6028-2684 115774-84115 66868-23858 69151 16080 49480 50914 14562 58800v14538044l-20002 68121-53656 46493-70274 10104-64580-29494-6583-6129-2210964-2210964-928-937-58149-59380-1-1-4927-5031-36450-23491-10325-7419-33897-27059-30195-14597-13417-7529-28183-18163-6617-2408-5-3-34113-12416-11743-4961-32687-15801-5-2-6341-3065-6858-1583-2-1-25817-5960-14743-4367-31516-11471-6990-883-8-2-36018-4550-12552-2236-35361-8164h-3l-6868-1586-7046-25h-3l-33522-117-882-29-831-105h-36650l-440-1-98484-344h-5l-3522-12-1200 268-1637 89h-732006l-51249-10893-104926-46716h-1l-6030-2685-180344-38334h-5l-6452-1372h-190974l-6452 1372h-5l-180344 38334-6030 2685h-1l-162403 72306-2 1-6028 2684-5341 3880-1 1-149159 108371-4421 4910-1 1-97117 107860-26248 29151-3301 5718-77918 134958-14268 24712-59015 181628-19962 189928 690 6565 18335 174444 937 8919 59015 181628 3303 5722 1 1 33909 58731 58274 100934 4418 4907 1 1 123368 137014 154501 112252 6028 2684 2 1 168434 74991 180344 38334h5l6452 1372h190974l6452-1372h5l180344-38334 110957-49401 51249-10893h435631l68121 20002 20974 16903 3159659 3159658 929 937 39420 40254 23750 24253 5919 3815 8 6 30516 19666 10345 7433 33884 27049 6339 3064 1 1 23854 11531 13417 7529 28184 18164 6617 2408 5 3 34113 12416 11743 4961 32684 15800 9 3 6340 3065 32679 7545 14740 4366 31517 11471 6985 882 7 2 36015 4550 12551 2235 42242 9753 7044 25h4l33541 117 869 29 826 104h36364l440 1 98763 345h6l3528 12 1203-269 1644-89h1912862l1320 7 90115 944 42376-9162 12566-2058 43092-4834 6651-2316 4-1 25020-8713 14812-4163 32768-7085 39303-18327 11776-4782 40963-14265 5975-3734 3-1 22465-14037 13517-7339 24002-11193 1-1 6387-2978 34251-26568 10459-7296 30792-19240 3-2 5969-3730 28803-28602 625-585 666-517 25990-25990 72622-72117 658-1037 1103-1229 1346995-1346995 937-928 55297-54151h2663544l18456 210944 1903 10795 54804 204531 3746 10292 89487 191907 5483 9495 31145 44480 10477 8375 13447-7068 676414-676414 6378-11680h730052l131 1833 4251 6615 680367 680367 11775 6430 12015-9296 30558-43642 5483-9495 89487-191907 3746-10292 54804-204531 1903-10795 18456-210944v-10950l-18456-210944-1903-10795-54804-204531-3746-10292-89487-191907-5483-9495-31145-44480-10477-8375-13447 7068-676414 676414-7614 13944h-730052l1236-2264-131-1833-4251-6615-680367-680367-11775-6430-12015 9296-30558 43642-5483 9495-89487 191907-3746 10292-54804 204531-1903 10795-18456 210944v10950h-2663544l4083-3998 1-1 5031-4927 23491-36450 7419-10325 27059-33897 14597-30195 7529-13417 18163-28183 2408-6617 3-5 12416-34113 4961-11743 15801-32687 2-5 3065-6341 7544-32679 4367-14741 11471-31516 883-6990 2-8 4550-36018 2236-12552 8164-35361v-3l1586-6868 27-7580 115-32991 29-882 105-831v-36803l135-38600 210-60171v-5l12-3522-268-1200-89-1637v-453496h3057526l7068 13447 676414 676414 13944 7614 1833-131 6615-4251 680367-680367 6430-11775-9293-12013-43653-30567-9478-5472-191915-89491-10293-3746-204531-54804-10795-1903-210944-18456h-10950l-210944 18456-10795 1903-204531 54804-10292 3746-191907 89487-9495 5483-44480 31145-8375 10477h-3057526v-13364983h2480320l6755 62182 51130 136389 87354 116556 116556 87354 136389 51130 62182 6755h1626268l62182-6755 136389-51130 116556-87354 87354-116556 51130-136389 6755-62182v-1626268l-6755-62182-51130-136389-87354-116556-116556-87354-136389-51130-62182-6755h-18374l-68121-20002-46493-53656-10104-70274 26263-60664-7079-13468-676414-676414-13944-7614-1833 131-6615 4251-680367 680367-6430 11776 1910 2469 25862 66119-13990 69604-49401 50992-62130 16383h-19008l-62182 6755-136389 51130-116556 87354-87354 116556-51130 136389-6755 62182v1626268h-2480320v-3347659h2476436l18456 210944 1903 10795 54804 204531 3746 10292 89487 191907 5483 9495 31145 44480 10477 8375 13447-7068 676414-676414 6378-11680h730052l131 1833 4251 6615 680367 680367 11775 6430 12015-9296 30558-43642 5483-9495 89487-191907 3746-10292 54804-204531 1903-10795 18456-210944v-10950l-18456-210944-1903-10795-54804-204531-3746-10292-89487-191907-5483-9495-31145-44480-10477-8375-13447 7068-676414 676414-7614 13944h-730052l1236-2264-131-1833-4251-6615-680367-680367-11775-6430-12015 9296-30558 43642-5483 9495-89487 191907-3746 10292-54804 204531-1903 10795-18456 210944v10950h-2476436v-1067358h3057526l7068 13447 676414 676414 13944 7614 1833-131 6615-4251 680367-680367 6430-11775-9293-12013-43653-30567-9478-5472-191915-89491-10293-3746-204531-54804-10795-1903-210944-18456h-10950l-210944 18456-10795 1903-204531 54804-10292 3746-191907 89487-9495 5483-44480 31145-8375 10477h-3057526v-9241282l20002-68121 12160-15088-216-180 52115-62662 86971-104571 103457-184735 1-2 2823-5041 1856-5467 2-5 66203-195028 1-5 1855-5464 31211-215261 1629-62205-19903-216600-59041-209345-96203-195081-126690-169659-1-1-3452-4623-155484-143728-3-2-4237-3917-183957-116068-202027-80600-213333-42435-5774-76h-4l-108067-1414-67852-20892-19593-16002-3357715-3357715-928-937-58149-59380-1-1-4927-5031-36450-23491-10325-7419-33897-27059-30195-14597-13417-7529-28183-18163-6617-2408-5-3-34113-12416-11743-4961-32687-15801-5-2-6341-3065-6858-1583-2-1-25817-5960-14743-4367-31516-11471-6990-883-8-2-36018-4550-12552-2236-35361-8164h-3l-6868-1586-7046-25h-3l-33522-117-882-29-831-105h-36650l-440-1-98484-344h-5l-3522-12-1200 268-1637 89h-6518068l-14919-886-3660-436-31646-3774-7003 736h-1l-34916 3670-13171 690h-19826095l-51249-10893-104926-46716h-1l-6030-2685-180344-38334h-5l-6452-1372h-190974l-6452 1372h-5l-180344 38334-6030 2685h-1l-104926 46716-51249 10893h-40186342l-1319-7-90066-943-6886 1489h-2l-35477 7671-12579 2060-36094 4048-3 1-6993 784-31677 11031-14810 4162-25880 5595-4 1-6885 1489-6384 2977-6 2-32906 15344-11809 4795-40936 14256-5972 3732-7 3-22464 14037-13517 7339-24007 11195-4 2-6379 2975-7717 5986-26537 20584-10449 7289-36771 22977-4999 4965-2 1-23808 23643-623 583-662 513-25848 25848-17033 16915-55731 55343-659 1038-1106 1233-2469311 2469310-937 928-64412 63077-23491 36450-7419 10325-27059 33897-3065 6341-1 1-11530 23852-7529 13417-18164 28184-2408 6617-3 5-12416 34113-4961 11743-15801 32687-2 5-3065 6341-1583 6858-1 2-5960 25817-4367 14743-11471 31516-883 6990-2 8-4550 36018-2236 12552-9750 42232-25 7046v3l-117 33522-29 882-105 831v36650l-1 440-294 84371-62 17640 268 1200 89 1637v1.006e7l-7 1320-944 90115h-1222049v-14687721l20002-68121 53656-46493 52342-11386h85091000z" fill="#4D7FC4" fill-opacity="1" fill-rule="evenodd" stroke="#4D7FC4" stroke-linecap="round" stroke-linejoin="round" stroke-width="1"/>
   </g>
  </g>
 </g>
 <g fill="#fff" stroke="#fff" stroke-linecap="round" stroke-linejoin="round">
  <circle cx="1.524e7" cy="4.318e7" r="2e5"/>
  <circle cx="22030667" cy="24247333" r="2e5"/>
  <circle cx="6.858e7" cy="1.016e7" r="2e5"/>
  <circle cx="4.826e7" cy="5.08e6" r="2e5"/>
  <circle cx="23843407" cy="28925185" r="2e5"/>
  <circle cx="3.048e7" cy="2.794e7" r="2e5"/>
  <circle cx="7.112e7" cy="3.556e7" r="2e5"/>
  <circle cx="2.286e7" cy="3.556e7" r="2e5"/>
  <circle cx="2.54e7" cy="3.302e7" r="2e5"/>
  <circle cx="2.54e7" cy="4.572e7" r="2e5"/>
  <circle cx="7.546e7" cy="14676396" r="2e5"/>
  <circle cx="74618913" cy="2.177e7" r="2e5"/>
  <circle cx="1.27e7" cy="2.54e7" r="2e5"/>
  <circle cx="2.032e7" cy="4.064e7" r="2e5"/>
  <circle cx="5.334e7" cy="4.064e7" r="2e5"/>
  <circle cx="6.604e7" cy="3.556e7" r="2e5"/>
  <circle cx="6.35e7" cy="4.318e7" r="2e5"/>
  <circle cx="6.35e7" cy="3.81e7" r="2e5"/>
  <circle cx="64336043" cy="33456043" r="2e5"/>
  <circle cx="57456707" cy="41772597" r="2e5"/>
  <circle cx="56608500" cy="4.318e7" r="2e5"/>
  <circle cx="68393707" cy="24314207" r="2e5"/>
  <circle cx="4.572e7" cy="4.064e7" r="2e5"/>
  <circle cx="4.728e7" cy="1.118e7" r="2e5"/>
  <circle cx="6.858e7" cy="2.63e7" r="2e5"/>
  <circle cx="6.858e7" cy="2.286e7" r="2e5"/>
  <circle cx="7.112e7" cy="1.524e7" r="2e5"/>
  <circle cx="7.62e7" cy="2.032e7" r="2e5"/>
  <circle cx="7.62e7" cy="3.81e7" r="2e5"/>
  <circle cx="4.064e7" cy="1.778e7" r="2e5"/>
  <circle cx="4.064e7" cy="7.62e6" r="2e5"/>
  <circle cx="6.858e7" cy="1.778e7" r="2e5"/>
  <circle cx="4.318e7" cy="4.318e7" r="2e5"/>
  <circle cx="1.524e7" cy="3.81e7" r="2e5"/>
  <circle cx="2.286e7" cy="1.778e7" r="2e5"/>
  <circle cx="20203555" cy="31542222" r="2e5"/>
  <circle cx="32896457" cy="17656457" r="2e5"/>
  <circle cx="1.778e7" cy="24276889" r="2e5"/>
  <circle cx="2.54e7" cy="1.778e7" r="2e5"/>
  <circle cx="1.524e7" cy="3.556e7" r="2e5"/>
  <circle cx="1.016e7" cy="4.826e7" r="2e5"/>
  <circle cx="1.016e7" cy="4.064e7" r="2e5"/>
  <circle cx="1.016e7" cy="3.302e7" r="2e5"/>
  <circle cx="7.62e6" cy="1.778e7" r="535000"/>
  <circle cx="7.62e6" cy="2.032e7" r="535000"/>
  <circle cx="7.62e6" cy="2.286e7" r="535000"/>
  <circle cx="3.302e7" cy="3.556e7" r="355000"/>
  <circle cx="3.048e7" cy="3.81e7" r="355000"/>
  <circle cx="3.302e7" cy="4.064e7" r="355000"/>
  <circle cx="79257680" cy="9093000" r="425000"/>
  <circle cx="76717680" cy="9093000" r="425000"/>
  <circle cx="74177680" cy="9093000" r="425000"/>
  <circle cx="6.604e7" cy="8891500" r="5.1e5"/>
  <circle cx="6.35e7" cy="8891500" r="5.1e5"/>
  <circle cx="8.382e7" cy="3.81e7" r="5.1e5"/>
  <circle cx="8.382e7" cy="4.064e7" r="5.1e5"/>
  <circle cx="5.842e7" cy="4.826e7" r="5.1e5"/>
  <circle cx="5.588e7" cy="4.826e7" r="5.1e5"/>
  <circle cx="3.556e7" cy="7.62e6" r="5.1e5"/>
  <circle cx="3.302e7" cy="7.62e6" r="5.1e5"/>
  <circle cx="2.794e7" cy="7.62e6" r="5.1e5"/>
  <circle cx="2.54e7" cy="7.62e6" r="5.1e5"/>
  <circle cx="8.382e7" cy="2.032e7" r="5.1e5"/>
  <circle cx="8.382e7" cy="2.286e7" r="5.1e5"/>
  <circle cx="2.032e7" cy="7.62e6" r="5.1e5"/>
  <circle cx="1.778e7" cy="7.62e6" r="5.1e5"/>
  <circle cx="7695000" cy="2.794e7" r="5.1e5"/>
  <circle cx="7695000" cy="3.048e7" r="5.1e5"/>
  <circle cx="7.62e6" cy="4.318e7" r="5.1e5"/>
  <circle cx="7.62e6" cy="4.572e7" r="5.1e5"/>
  <circle cx="7.62e6" cy="3.556e7" r="5.1e5"/>
  <circle cx="7.62e6" cy="3.81e7" r="5.1e5"/>
 </g>
 <g fill="#D0D2CD" fill-opacity="0" stroke="#D0D2CD" stroke-linecap="round" stroke-linejoin="round" stroke-width="1e5">
  <path d="m2.54e6 2.54e6h8.636e7"/>
  <path d="m8.89e7 2.54e6v5.08e7"/>
  <path d="m8.89e7 5.334e7h-8.636e7"/>
  <path d="m2.54e6 5.334e7v-5.08e7"/>
 </g>
 <metadata>
  <rdf:RDF>
   <cc:Work rdf:about="">
    <dc:title>SVG Picture created as TSAL-B_Cu.svg date 2022/12/04 22:52:08</dc:title>
   </cc:Work>
  </rdf:RDF>
 </metadata>
</svg>
