999
"DXF R12 Output" (www.mydxf.blogspot.com)
 0 
SECTION
 2 
HEADER
 9 
$ACADVER
 1 
AC1009
 9 
$EXTMIN
 10 
 0 
 20 
 0 
 9 
$EXTMAX
 10 
 8.5 
 20 
 11 
 0 
ENDSEC
 0 
SECTION
 2 
ENTITIES
0
LINE
8
0
10
48.431002
20
249.894438
11
48.431002
21
248.894314
0
LINE
8
0
10
48.431002
20
168.894469
11
48.431002
21
167.894345
0
LINE
8
0
10
121.431040
20
248.894314
11
121.431040
21
221.894413
0
LINE
8
0
10
121.431040
20
221.894413
11
121.431040
21
219.894430
0
LINE
8
0
10
121.431040
20
219.894430
11
121.431040
21
197.894353
0
LINE
8
0
10
121.431040
20
197.894353
11
121.431040
21
195.894370
0
LINE
8
0
10
121.431040
20
195.894370
11
121.431040
21
168.894469
0
LINE
8
0
10
48.431002
20
248.894314
11
48.431002
21
168.894469
0
LINE
8
0
10
70.440387
20
222.883598
11
70.052024
21
222.766356
0
LINE
8
0
10
70.052024
20
222.766356
11
69.734916
21
222.447197
0
LINE
8
0
10
69.734916
20
222.447197
11
69.521133
21
221.973986
0
LINE
8
0
10
69.521133
20
221.973986
11
69.442746
21
221.394589
0
LINE
8
0
10
69.442746
20
221.394589
11
69.521133
21
220.815191
0
LINE
8
0
10
69.521133
20
220.815191
11
69.734916
21
220.341981
0
LINE
8
0
10
69.734916
20
220.341981
11
70.052024
21
220.022821
0
LINE
8
0
10
70.052024
20
220.022821
11
70.440387
21
219.905579
0
LINE
8
0
10
70.440450
20
222.883662
11
80.422103
21
222.883662
0
LINE
8
0
10
80.422103
20
219.905667
11
70.440450
21
219.905667
0
LINE
8
0
10
80.422111
20
219.905579
11
80.921423
21
220.104804
0
LINE
8
0
10
80.921423
20
220.104804
11
81.286998
21
220.649855
0
LINE
8
0
10
81.286998
20
220.649855
11
81.420817
21
221.394589
0
LINE
8
0
10
81.420817
20
221.394589
11
81.286998
21
222.139323
0
LINE
8
0
10
81.286998
20
222.139323
11
80.921423
21
222.684374
0
LINE
8
0
10
80.921423
20
222.684374
11
80.422111
21
222.883598
0
LINE
8
0
10
102.919651
20
241.885214
11
102.720167
21
242.384301
0
LINE
8
0
10
102.720167
20
242.384301
11
102.175166
21
242.749658
0
LINE
8
0
10
102.175166
20
242.749658
11
101.430680
21
242.883387
0
LINE
8
0
10
101.430680
20
242.883387
11
100.686195
21
242.749658
0
LINE
8
0
10
100.686195
20
242.749658
11
100.141193
21
242.384301
0
LINE
8
0
10
100.141193
20
242.384301
11
99.941709
21
241.885214
0
LINE
8
0
10
102.919792
20
241.885111
11
102.919792
21
231.903458
0
LINE
8
0
10
99.941873
20
231.903458
11
99.941873
21
241.885111
0
LINE
8
0
10
99.941709
20
231.903487
11
100.141194
21
231.404400
0
LINE
8
0
10
100.141194
20
231.404400
11
100.686196
21
231.039044
0
LINE
8
0
10
100.686196
20
231.039044
11
101.430682
21
230.905315
0
LINE
8
0
10
101.430682
20
230.905315
11
102.175168
21
231.039045
0
LINE
8
0
10
102.175168
20
231.039045
11
102.720168
21
231.404403
0
LINE
8
0
10
102.720168
20
231.404403
11
102.919651
21
231.903490
0
LINE
8
0
10
70.440146
20
198.883693
11
69.941060
21
198.684202
0
LINE
8
0
10
69.941060
20
198.684202
11
69.575703
21
198.139184
0
LINE
8
0
10
69.575703
20
198.139184
11
69.441973
21
197.394675
0
LINE
8
0
10
69.441973
20
197.394675
11
69.575703
21
196.650166
0
LINE
8
0
10
69.575703
20
196.650166
11
69.941060
21
196.105148
0
LINE
8
0
10
69.941060
20
196.105148
11
70.440146
21
195.905657
0
LINE
8
0
10
70.440210
20
198.883621
11
80.421863
21
198.883621
0
LINE
8
0
10
80.421863
20
195.905610
11
70.440210
21
195.905610
0
LINE
8
0
10
80.421871
20
195.905657
11
80.920957
21
196.105148
0
LINE
8
0
10
80.920957
20
196.105148
11
81.286314
21
196.650166
0
LINE
8
0
10
81.286314
20
196.650166
11
81.420044
21
197.394675
0
LINE
8
0
10
81.420044
20
197.394675
11
81.286314
21
198.139184
0
LINE
8
0
10
81.286314
20
198.139184
11
80.920957
21
198.684202
0
LINE
8
0
10
80.920957
20
198.684202
11
80.421871
21
198.883693
0
LINE
8
0
10
102.919651
20
185.885285
11
102.720167
21
186.384372
0
LINE
8
0
10
102.720167
20
186.384372
11
102.175166
21
186.749729
0
LINE
8
0
10
102.175166
20
186.749729
11
101.430680
21
186.883459
0
LINE
8
0
10
101.430680
20
186.883459
11
100.686195
21
186.749729
0
LINE
8
0
10
100.686195
20
186.749729
11
100.141193
21
186.384372
0
LINE
8
0
10
100.141193
20
186.384372
11
99.941709
21
185.885285
0
LINE
8
0
10
102.919792
20
185.885325
11
102.919792
21
175.903672
0
LINE
8
0
10
99.941873
20
175.903672
11
99.941873
21
185.885325
0
LINE
8
0
10
99.941709
20
175.903558
11
100.141193
21
175.404472
0
LINE
8
0
10
100.141193
20
175.404472
11
100.686195
21
175.039115
0
LINE
8
0
10
100.686195
20
175.039115
11
101.430680
21
174.905385
0
LINE
8
0
10
101.430680
20
174.905385
11
102.175166
21
175.039115
0
LINE
8
0
10
102.175166
20
175.039115
11
102.720167
21
175.404472
0
LINE
8
0
10
102.720167
20
175.404472
11
102.919651
21
175.903558
0
LINE
8
0
10
98.431104
20
251.894421
11
103.430929
21
251.894421
0
LINE
8
0
10
63.431006
20
251.894421
11
68.431096
21
251.894421
0
LINE
8
0
10
68.431096
20
165.894362
11
63.431006
21
165.894362
0
LINE
8
0
10
103.430929
20
165.894362
11
98.431104
21
165.894362
0
LINE
8
0
10
121.431040
20
168.894469
11
121.431040
21
167.894345
0
LINE
8
0
10
121.431040
20
249.894438
11
121.431040
21
248.894314
0
LINE
8
0
10
68.431096
20
166.894486
11
68.431096
21
165.894362
0
LINE
8
0
10
69.431016
20
167.894438
11
69.048333
21
167.818318
0
LINE
8
0
10
69.048333
20
167.818318
11
68.723910
21
167.601545
0
LINE
8
0
10
68.723910
20
167.601545
11
68.507137
21
167.277122
0
LINE
8
0
10
68.507137
20
167.277122
11
68.431017
21
166.894438
0
LINE
8
0
10
103.430929
20
166.894486
11
103.430929
21
165.894362
0
LINE
8
0
10
121.431040
20
167.894345
11
104.431053
21
167.894345
0
LINE
8
0
10
104.430971
20
167.894438
11
104.041727
21
167.815852
0
LINE
8
0
10
104.041727
20
167.815852
11
103.723866
21
167.601544
0
LINE
8
0
10
103.723866
20
167.601544
11
103.509558
21
167.283683
0
LINE
8
0
10
103.509558
20
167.283683
11
103.430974
21
166.894438
0
LINE
8
0
10
63.431006
20
165.894362
11
63.431006
21
166.894486
0
LINE
8
0
10
62.431147
20
167.894345
11
48.431002
21
167.894345
0
LINE
8
0
10
63.431022
20
166.894438
11
63.352438
21
167.283683
0
LINE
8
0
10
63.352438
20
167.283683
11
63.138130
21
167.601544
0
LINE
8
0
10
63.138130
20
167.601544
11
62.820270
21
167.815852
0
LINE
8
0
10
62.820270
20
167.815852
11
62.431026
21
167.894438
0
LINE
8
0
10
98.431104
20
165.894362
11
98.431104
21
166.894486
0
LINE
8
0
10
97.430980
20
167.894345
11
69.430955
21
167.894345
0
LINE
8
0
10
98.430980
20
166.894438
11
98.354859
21
167.277122
0
LINE
8
0
10
98.354859
20
167.277122
11
98.138087
21
167.601545
0
LINE
8
0
10
98.138087
20
167.601545
11
97.813664
21
167.818318
0
LINE
8
0
10
97.813664
20
167.818318
11
97.430980
21
167.894438
0
LINE
8
0
10
98.431104
20
250.894297
11
98.431104
21
251.894421
0
LINE
8
0
10
97.430980
20
249.894335
11
97.813664
21
249.970455
0
LINE
8
0
10
97.813664
20
249.970455
11
98.138087
21
250.187227
0
LINE
8
0
10
98.138087
20
250.187227
11
98.354859
21
250.511651
0
LINE
8
0
10
98.354859
20
250.511651
11
98.430980
21
250.894334
0
LINE
8
0
10
63.431006
20
250.894297
11
63.431006
21
251.894421
0
LINE
8
0
10
48.431002
20
249.894438
11
62.431147
21
249.894438
0
LINE
8
0
10
62.431026
20
249.894335
11
62.820270
21
249.972920
0
LINE
8
0
10
62.820270
20
249.972920
11
63.138130
21
250.187228
0
LINE
8
0
10
63.138130
20
250.187228
11
63.352438
21
250.505090
0
LINE
8
0
10
63.352438
20
250.505090
11
63.431022
21
250.894334
0
LINE
8
0
10
104.431053
20
249.894438
11
121.431040
21
249.894438
0
LINE
8
0
10
103.430929
20
251.894421
11
103.430929
21
250.894297
0
LINE
8
0
10
103.430974
20
250.894334
11
103.509558
21
250.505090
0
LINE
8
0
10
103.509558
20
250.505090
11
103.723866
21
250.187228
0
LINE
8
0
10
103.723866
20
250.187228
11
104.041727
21
249.972920
0
LINE
8
0
10
104.041727
20
249.972920
11
104.430971
21
249.894335
0
LINE
8
0
10
68.431096
20
251.894421
11
68.431096
21
250.894297
0
LINE
8
0
10
69.430955
20
249.894438
11
97.430980
21
249.894438
0
LINE
8
0
10
68.431017
20
250.894334
11
68.507137
21
250.511651
0
LINE
8
0
10
68.507137
20
250.511651
11
68.723910
21
250.187227
0
LINE
8
0
10
68.723910
20
250.187227
11
69.048333
21
249.970455
0
LINE
8
0
10
69.048333
20
249.970455
11
69.431016
21
249.894335
 0 
ENDSEC
 0 
EOF