  0
SECTION
  2
HEADER
  9
$ACADVER
  1
AC1014
  9
$HANDSEED
  5
FFFF
  9
$INSUNITS
 70
     0
  9
$MEASUREMENT
 70
     1
  0
ENDSEC
  0
SECTION
  2
TABLES
  0
TABLE
  2
VPORT
  5
8
330
0
100
AcDbSymbolTable
 70
     4
  0
VPORT
  5
2E
330
8
100
AcDbSymbolTableRecord
100
AcDbViewportTableRecord
  2
*ACTIVE
 70
     0
 10
0.0
 20
0.0
 11
1.0
 21
1.0
 12
210.0
 22
148.5
 13
0.0
 23
0.0
 14
10.0
 24
10.0
 15
10.0
 25
10.0
 16
0.0
 26
0.0
 36
1.0
 17
0.0
 27
0.0
 37
0.0
 40
341.0
 41
1.24
 42
50.0
 43
0.0
 44
0.0
 50
0.0
 51
0.0
 71
     0
 72
   100
 73
     1
 74
     3
 75
     0
 76
     0
 77
     0
 78
     0
  0
ENDTAB
  0
TABLE
  2
LTYPE
  5
5
330
0
100
AcDbSymbolTable
 70
     1
  0
LTYPE
  5
14
330
5
100
AcDbSymbolTableRecord
100
AcDbLinetypeTableRecord
  2
BYBLOCK
 70
     0
  3

 72
    65
 73
     0
 40
0.0
  0
LTYPE
  5
15
330
5
100
AcDbSymbolTableRecord
100
AcDbLinetypeTableRecord
  2
BYLAYER
 70
     0
  3

 72
    65
 73
     0
 40
0.0
  0
LTYPE
  5
16
330
5
100
AcDbSymbolTableRecord
100
AcDbLinetypeTableRecord
  2
CONTINUOUS
 70
     0
  3
Solid line
 72
    65
 73
     0
 40
0.0
  0
ENDTAB
  0
TABLE
  2
LAYER
  5
2
100
AcDbSymbolTable
 70
1
  0
LAYER
  5
50
100
AcDbSymbolTableRecord
100
AcDbLayerTableRecord
  2
0
 70
0
  6
CONTINUOUS
  0
ENDTAB
  0
TABLE
  2
STYLE
  5
3
330
0
100
AcDbSymbolTable
 70
     1
  0
STYLE
  5
11
330
3
100
AcDbSymbolTableRecord
100
AcDbTextStyleTableRecord
  2
STANDARD
 70
     0
 40
0.0
 41
1.0
 50
0.0
 71
     0
 42
2.5
  3
txt
  4

  0
ENDTAB
  0
TABLE
  2
VIEW
  5
6
330
0
100
AcDbSymbolTable
 70
     0
  0
ENDTAB
  0
TABLE
  2
UCS
  5
7
330
0
100
AcDbSymbolTable
 70
     0
  0
ENDTAB
  0
TABLE
  2
APPID
  5
9
330
0
100
AcDbSymbolTable
 70
     2
  0
APPID
  5
12
330
9
100
AcDbSymbolTableRecord
100
AcDbRegAppTableRecord
  2
ACAD
 70
     0
  0
ENDTAB
  0
TABLE
  2
DIMSTYLE
  5
A
330
0
100
AcDbSymbolTable
 70
     1
  0
DIMSTYLE
105
27
330
A
100
AcDbSymbolTableRecord
100
AcDbDimStyleTableRecord
  2
ISO-25
 70
     0
  3

  4

  5

  6

  7

 40
1.0
 41
2.5
 42
0.625
 43
3.75
 44
1.25
 45
0.0
 46
0.0
 47
0.0
 48
0.0
140
2.5
141
2.5
142
0.0
143
0.03937007874016
144
1.0
145
0.0
146
1.0
147
0.625
 71
     0
 72
     0
 73
     0
 74
     0
 75
     0
 76
     0
 77
     1
 78
     8
170
     0
171
     3
172
     1
173
     0
174
     0
175
     0
176
     0
177
     0
178
     0
270
     2
271
     2
272
     2
273
     2
274
     3
340
11
275
     0
280
     0
281
     0
282
     0
283
     0
284
     8
285
     0
286
     0
287
     3
288
     0
  0
ENDTAB
  0
TABLE
  2
BLOCK_RECORD
  5
1
330
0
100
AcDbSymbolTable
 70
     1
  0
BLOCK_RECORD
  5
1F
330
1
100
AcDbSymbolTableRecord
100
AcDbBlockTableRecord
  2
*MODEL_SPACE
  0
BLOCK_RECORD
  5
1B
330
1
100
AcDbSymbolTableRecord
100
AcDbBlockTableRecord
  2
*PAPER_SPACE
  0
ENDTAB
  0
ENDSEC
  0
SECTION
  2
BLOCKS
  0
BLOCK
  5
20
330
1F
100
AcDbEntity
  8
0
100
AcDbBlockBegin
  2
*MODEL_SPACE
 70
     0
 10
0.0
 20
0.0
 30
0.0
  3
*MODEL_SPACE
  1

  0
ENDBLK
  5
21
330
1F
100
AcDbEntity
  8
0
100
AcDbBlockEnd
  0
BLOCK
  5
1C
330
1B
100
AcDbEntity
 67
     1
  8
0
100
AcDbBlockBegin
  2
*PAPER_SPACE
  1

  0
ENDBLK
  5
1D
330
1B
100
AcDbEntity
 67
     1
  8
0
100
AcDbBlockEnd
  0
ENDSEC
  0
SECTION
  2
ENTITIES
  0
SPLINE
  5
100
100
AcDbEntity
  8
0
 62
7
100
AcDbSpline
 70
8
 71
3
 72
8
 73
4
 74
0
 40
0
 40
0
 40
0
 40
0
 40
1
 40
1
 40
1
 40
1
 10
196.347080
 20
655.464675
 30
0.0
 10
194.133545
 20
653.250600
 30
0.0
 10
194.133764
 20
649.661380
 30
0.0
 10
196.347569
 20
647.447574
 30
0.0
  0
SPLINE
  5
101
100
AcDbEntity
  8
0
 62
7
100
AcDbSpline
 70
8
 71
3
 72
8
 73
4
 74
0
 40
0
 40
0
 40
0
 40
0
 40
1
 40
1
 40
1
 40
1
 10
196.347569
 20
647.447574
 30
0.0
 10
198.561375
 20
645.233769
 30
0.0
 10
202.150595
 20
645.233550
 30
0.0
 10
204.364670
 20
647.447085
 30
0.0
  0
LWPOLYLINE
  5
102
100
AcDbEntity
  8
0
 62
7
100
AcDbPolyline
 90
2
 70
0
 10
204.364270
 20
647.446755
 30
0.0
 10
220.399270
 20
663.481755
 30
0.0
  0
SPLINE
  5
103
100
AcDbEntity
  8
0
 62
7
100
AcDbSpline
 70
8
 71
3
 72
8
 73
4
 74
0
 40
0
 40
0
 40
0
 40
0
 40
1
 40
1
 40
1
 40
1
 10
220.399820
 20
663.482195
 30
0.0
 10
221.832316
 20
664.914341
 30
0.0
 10
222.391876
 20
667.001969
 30
0.0
 10
221.867690
 20
668.958577
 30
0.0
  0
SPLINE
  5
104
100
AcDbEntity
  8
0
 62
7
100
AcDbSpline
 70
8
 71
3
 72
8
 73
4
 74
0
 40
0
 40
0
 40
0
 40
0
 40
1
 40
1
 40
1
 40
1
 10
221.867690
 20
668.958577
 30
0.0
 10
221.343504
 20
670.915186
 30
0.0
 10
219.815221
 20
672.443469
 30
0.0
 10
217.858612
 20
672.967655
 30
0.0
  0
SPLINE
  5
105
100
AcDbEntity
  8
0
 62
7
100
AcDbSpline
 70
8
 71
3
 72
8
 73
4
 74
0
 40
0
 40
0
 40
0
 40
0
 40
1
 40
1
 40
1
 40
1
 10
217.858612
 20
672.967655
 30
0.0
 10
215.902004
 20
673.491841
 30
0.0
 10
213.814376
 20
672.932281
 30
0.0
 10
212.382230
 20
671.499785
 30
0.0
  0
LWPOLYLINE
  5
106
100
AcDbEntity
  8
0
 62
7
100
AcDbPolyline
 90
2
 70
0
 10
212.381770
 20
671.499255
 30
0.0
 10
196.346770
 20
655.464255
 30
0.0
  0
SPLINE
  5
107
100
AcDbEntity
  8
0
 62
7
100
AcDbSpline
 70
8
 71
3
 72
8
 73
4
 74
0
 40
0
 40
0
 40
0
 40
0
 40
1
 40
1
 40
1
 40
1
 10
194.830910
 20
638.236055
 30
0.0
 10
196.263406
 20
639.668201
 30
0.0
 10
196.822966
 20
641.755829
 30
0.0
 10
196.298780
 20
643.712437
 30
0.0
  0
SPLINE
  5
108
100
AcDbEntity
  8
0
 62
7
100
AcDbSpline
 70
8
 71
3
 72
8
 73
4
 74
0
 40
0
 40
0
 40
0
 40
0
 40
1
 40
1
 40
1
 40
1
 10
196.298780
 20
643.712437
 30
0.0
 10
195.774594
 20
645.669046
 30
0.0
 10
194.246311
 20
647.197329
 30
0.0
 10
192.289702
 20
647.721515
 30
0.0
  0
SPLINE
  5
109
100
AcDbEntity
  8
0
 62
7
100
AcDbSpline
 70
8
 71
3
 72
8
 73
4
 74
0
 40
0
 40
0
 40
0
 40
0
 40
1
 40
1
 40
1
 40
1
 10
192.289702
 20
647.721515
 30
0.0
 10
190.333094
 20
648.245701
 30
0.0
 10
188.245466
 20
647.686141
 30
0.0
 10
186.813320
 20
646.253645
 30
0.0
  0
LWPOLYLINE
  5
10a
100
AcDbEntity
  8
0
 62
7
100
AcDbPolyline
 90
2
 70
0
 10
186.813160
 20
646.253415
 30
0.0
 10
166.768660
 20
626.208915
 30
0.0
  0
SPLINE
  5
10b
100
AcDbEntity
  8
0
 62
7
100
AcDbSpline
 70
8
 71
3
 72
8
 73
4
 74
0
 40
0
 40
0
 40
0
 40
0
 40
1
 40
1
 40
1
 40
1
 10
166.769330
 20
626.209655
 30
0.0
 10
164.559396
 20
623.994966
 30
0.0
 10
164.561322
 20
620.408693
 30
0.0
 10
166.773633
 20
618.196378
 30
0.0
  0
SPLINE
  5
10c
100
AcDbEntity
  8
0
 62
7
100
AcDbSpline
 70
8
 71
3
 72
8
 73
4
 74
0
 40
0
 40
0
 40
0
 40
0
 40
1
 40
1
 40
1
 40
1
 10
166.773633
 20
618.196378
 30
0.0
 10
168.985945
 20
615.984064
 30
0.0
 10
172.572218
 20
615.982134
 30
0.0
 10
174.786910
 20
618.192065
 30
0.0
  0
LWPOLYLINE
  5
10d
100
AcDbEntity
  8
0
 62
7
100
AcDbPolyline
 90
2
 70
0
 10
174.787660
 20
618.191415
 30
0.0
 10
194.830660
 20
638.235915
 30
0.0
  0
LWPOLYLINE
  5
10e
100
AcDbEntity
  8
0
 62
7
100
AcDbPolyline
 90
2
 70
0
 10
348.016860
 20
757.863145
 30
0.0
 10
310.221860
 20
757.863145
 30
0.0
  0
LWPOLYLINE
  5
10f
100
AcDbEntity
  8
0
 62
7
100
AcDbPolyline
 90
2
 70
0
 10
225.180470
 20
716.288645
 30
0.0
 10
225.180470
 20
750.304145
 30
0.0
  0
SPLINE
  5
110
100
AcDbEntity
  8
0
 62
7
100
AcDbSpline
 70
8
 71
3
 72
8
 73
4
 74
0
 40
0
 40
0
 40
0
 40
0
 40
1
 40
1
 40
1
 40
1
 10
225.180530
 20
716.288465
 30
0.0
 10
225.177344
 20
714.260903
 30
0.0
 10
226.257206
 20
712.385993
 30
0.0
 10
228.012598
 20
711.371291
 30
0.0
  0
SPLINE
  5
111
100
AcDbEntity
  8
0
 62
7
100
AcDbSpline
 70
8
 71
3
 72
8
 73
4
 74
0
 40
0
 40
0
 40
0
 40
0
 40
1
 40
1
 40
1
 40
1
 10
228.012598
 20
711.371291
 30
0.0
 10
229.767989
 20
710.356589
 30
0.0
 10
231.931641
 20
710.356589
 30
0.0
 10
233.687032
 20
711.371291
 30
0.0
  0
SPLINE
  5
112
100
AcDbEntity
  8
0
 62
7
100
AcDbSpline
 70
8
 71
3
 72
8
 73
4
 74
0
 40
0
 40
0
 40
0
 40
0
 40
1
 40
1
 40
1
 40
1
 10
233.687032
 20
711.371291
 30
0.0
 10
235.442424
 20
712.385993
 30
0.0
 10
236.522286
 20
714.260903
 30
0.0
 10
236.519100
 20
716.288465
 30
0.0
  0
LWPOLYLINE
  5
113
100
AcDbEntity
  8
0
 62
7
100
AcDbPolyline
 90
2
 70
0
 10
236.518970
 20
750.304145
 30
0.0
 10
236.518970
 20
716.288645
 30
0.0
  0
SPLINE
  5
114
100
AcDbEntity
  8
0
 62
7
100
AcDbSpline
 70
8
 71
3
 72
8
 73
4
 74
0
 40
0
 40
0
 40
0
 40
0
 40
1
 40
1
 40
1
 40
1
 10
444.762150
 20
757.863245
 30
0.0
 10
448.581346
 20
757.863245
 30
0.0
 10
452.395051
 20
758.152691
 30
0.0
 10
456.170500
 20
758.729095
 30
0.0
  0
LWPOLYLINE
  5
115
100
AcDbEntity
  8
0
 62
7
100
AcDbPolyline
 90
2
 70
0
 10
444.761860
 20
757.863145
 30
0.0
 10
434.945860
 20
757.863145
 30
0.0
  0
SPLINE
  5
116
100
AcDbEntity
  8
0
 62
7
100
AcDbSpline
 70
8
 71
3
 72
8
 73
4
 74
0
 40
0
 40
0
 40
0
 40
0
 40
1
 40
1
 40
1
 40
1
 10
671.267810
 20
791.568395
 30
0.0
 10
682.730256
 20
793.318387
 30
0.0
 10
693.856451
 20
796.816255
 30
0.0
 10
704.258260
 20
801.939975
 30
0.0
  0
SPLINE
  5
117
100
AcDbEntity
  8
0
 62
7
100
AcDbSpline
 70
8
 71
3
 72
8
 73
4
 74
0
 40
0
 40
0
 40
0
 40
0
 40
1
 40
1
 40
1
 40
1
 10
759.377180
 20
721.834565
 30
0.0
 10
777.264599
 20
738.420692
 30
0.0
 10
780.274667
 20
765.618846
 30
0.0
 10
766.446935
 20
785.714946
 30
0.0
  0
SPLINE
  5
118
100
AcDbEntity
  8
0
 62
7
100
AcDbSpline
 70
8
 71
3
 72
8
 73
4
 74
0
 40
0
 40
0
 40
0
 40
0
 40
1
 40
1
 40
1
 40
1
 10
766.446935
 20
785.714946
 30
0.0
 10
752.619204
 20
805.811045
 30
0.0
 10
726.141314
 20
812.719113
 30
0.0
 10
704.258240
 20
801.939945
 30
0.0
  0
LWPOLYLINE
  5
119
100
AcDbEntity
  8
0
 62
7
100
AcDbPolyline
 90
2
 70
0
 10
671.267860
 20
791.568145
 30
0.0
 10
456.170860
 20
758.729145
 30
0.0
  0
SPLINE
  5
11a
100
AcDbEntity
  8
0
 62
7
100
AcDbSpline
 70
8
 71
3
 72
8
 73
4
 74
0
 40
0
 40
0
 40
0
 40
0
 40
1
 40
1
 40
1
 40
1
 10
635.880530
 20
614.562935
 30
0.0
 10
641.925602
 20
615.451917
 30
0.0
 10
647.559510
 20
618.151485
 30
0.0
 10
652.039890
 20
622.305925
 30
0.0
  0
LWPOLYLINE
  5
11b
100
AcDbEntity
  8
0
 62
7
100
AcDbPolyline
 90
2
 70
0
 10
652.039860
 20
622.306145
 30
0.0
 10
759.376860
 20
721.834145
 30
0.0
  0
SPLINE
  5
11c
100
AcDbEntity
  8
0
 62
7
100
AcDbSpline
 70
8
 71
3
 72
8
 73
4
 74
0
 40
0
 40
0
 40
0
 40
0
 40
1
 40
1
 40
1
 40
1
 10
262.017090
 20
559.583005
 30
0.0
 10
228.657840
 20
554.677236
 30
0.0
 10
197.896005
 20
538.760323
 30
0.0
 10
174.622250
 20
514.362815
 30
0.0
  0
SPLINE
  5
11d
100
AcDbEntity
  8
0
 62
7
100
AcDbSpline
 70
8
 71
3
 72
8
 73
4
 74
0
 40
0
 40
0
 40
0
 40
0
 40
1
 40
1
 40
1
 40
1
 10
49.598628
 20
609.307535
 30
0.0
 10
29.028158
 20
574.769356
 30
0.0
 10
37.677508
 20
530.290962
 30
0.0
 10
69.692166
 20
505.978584
 30
0.0
  0
SPLINE
  5
11e
100
AcDbEntity
  8
0
 62
7
100
AcDbSpline
 70
8
 71
3
 72
8
 73
4
 74
0
 40
0
 40
0
 40
0
 40
0
 40
1
 40
1
 40
1
 40
1
 10
69.692166
 20
505.978584
 30
0.0
 10
101.706824
 20
481.666206
 30
0.0
 10
146.874441
 20
485.275243
 30
0.0
 10
174.622270
 20
514.362835
 30
0.0
  0
LWPOLYLINE
  5
11f
100
AcDbEntity
  8
0
 62
7
100
AcDbPolyline
 90
2
 70
0
 10
262.016860
 20
559.583145
 30
0.0
 10
635.880860
 20
614.563145
 30
0.0
  0
SPLINE
  5
120
100
AcDbEntity
  8
0
 62
7
100
AcDbSpline
 70
8
 71
3
 72
8
 73
4
 74
0
 40
0
 40
0
 40
0
 40
0
 40
1
 40
1
 40
1
 40
1
 10
151.481340
 20
757.626095
 30
0.0
 10
142.239223
 20
756.461695
 30
0.0
 10
134.049715
 20
751.102295
 30
0.0
 10
129.283090
 20
743.099055
 30
0.0
  0
LWPOLYLINE
  5
121
100
AcDbEntity
  8
0
 62
7
100
AcDbPolyline
 90
2
 70
0
 10
129.282860
 20
743.099145
 30
0.0
 10
49.598857
 20
609.307145
 30
0.0
  0
SPLINE
  5
122
100
AcDbEntity
  8
0
 62
7
100
AcDbSpline
 70
8
 71
3
 72
8
 73
4
 74
0
 40
0
 40
0
 40
0
 40
0
 40
1
 40
1
 40
1
 40
1
 10
151.481350
 20
754.083715
 30
0.0
 10
151.481349
 20
751.996342
 30
0.0
 10
153.173497
 20
750.304189
 30
0.0
 10
155.260870
 20
750.304185
 30
0.0
  0
LWPOLYLINE
  5
123
100
AcDbEntity
  8
0
 62
7
100
AcDbPolyline
 90
2
 70
0
 10
151.480860
 20
754.084145
 30
0.0
 10
151.480860
 20
757.626145
 30
0.0
  0
SPLINE
  5
124
100
AcDbEntity
  8
0
 62
7
100
AcDbSpline
 70
8
 71
3
 72
8
 73
4
 74
0
 40
0
 40
0
 40
0
 40
0
 40
1
 40
1
 40
1
 40
1
 10
431.166380
 20
750.304185
 30
0.0
 10
432.168774
 20
750.304185
 30
0.0
 10
433.130112
 20
750.702384
 30
0.0
 10
433.838912
 20
751.411183
 30
0.0
  0
SPLINE
  5
125
100
AcDbEntity
  8
0
 62
7
100
AcDbSpline
 70
8
 71
3
 72
8
 73
4
 74
0
 40
0
 40
0
 40
0
 40
0
 40
1
 40
1
 40
1
 40
1
 10
433.838912
 20
751.411183
 30
0.0
 10
434.547711
 20
752.119983
 30
0.0
 10
434.945911
 20
753.081321
 30
0.0
 10
434.945910
 20
754.083715
 30
0.0
  0
LWPOLYLINE
  5
126
100
AcDbEntity
  8
0
 62
7
100
AcDbPolyline
 90
2
 70
0
 10
225.087630
 20
750.309365
 30
0.0
 10
155.260860
 20
750.309365
 30
0.0
  0
LWPOLYLINE
  5
127
100
AcDbEntity
  8
0
 62
7
100
AcDbPolyline
 90
2
 70
0
 10
434.945860
 20
754.084145
 30
0.0
 10
434.945860
 20
757.863145
 30
0.0
  0
SPLINE
  5
128
100
AcDbEntity
  8
0
 62
7
100
AcDbSpline
 70
8
 71
3
 72
8
 73
4
 74
0
 40
0
 40
0
 40
0
 40
0
 40
1
 40
1
 40
1
 40
1
 10
533.732880
 20
659.577805
 30
0.0
 10
531.715598
 20
659.769512
 30
0.0
 10
529.749378
 20
658.869951
 30
0.0
 10
528.575470
 20
657.218248
 30
0.0
  0
SPLINE
  5
129
100
AcDbEntity
  8
0
 62
7
100
AcDbSpline
 70
8
 71
3
 72
8
 73
4
 74
0
 40
0
 40
0
 40
0
 40
0
 40
1
 40
1
 40
1
 40
1
 10
528.575470
 20
657.218248
 30
0.0
 10
527.401562
 20
655.566546
 30
0.0
 10
527.198482
 20
653.413875
 30
0.0
 10
528.042788
 20
651.571777
 30
0.0
  0
SPLINE
  5
12a
100
AcDbEntity
  8
0
 62
7
100
AcDbSpline
 70
8
 71
3
 72
8
 73
4
 74
0
 40
0
 40
0
 40
0
 40
0
 40
1
 40
1
 40
1
 40
1
 10
528.042788
 20
651.571777
 30
0.0
 10
528.887095
 20
649.729679
 30
0.0
 10
530.650396
 20
648.478279
 30
0.0
 10
532.667940
 20
648.289345
 30
0.0
  0
LWPOLYLINE
  5
12b
100
AcDbEntity
  8
0
 62
7
100
AcDbPolyline
 90
2
 70
0
 10
532.667730
 20
648.289085
 30
0.0
 10
560.888730
 20
645.626585
 30
0.0
  0
SPLINE
  5
12c
100
AcDbEntity
  8
0
 62
7
100
AcDbSpline
 70
8
 71
3
 72
8
 73
4
 74
0
 40
0
 40
0
 40
0
 40
0
 40
1
 40
1
 40
1
 40
1
 10
560.889040
 20
645.626935
 30
0.0
 10
564.005544
 20
645.334104
 30
0.0
 10
566.769627
 20
647.622491
 30
0.0
 10
567.063630
 20
650.738885
 30
0.0
  0
SPLINE
  5
12d
100
AcDbEntity
  8
0
 62
7
100
AcDbSpline
 70
8
 71
3
 72
8
 73
4
 74
0
 40
0
 40
0
 40
0
 40
0
 40
1
 40
1
 40
1
 40
1
 10
567.063630
 20
650.738885
 30
0.0
 10
567.357632
 20
653.855279
 30
0.0
 10
565.070283
 20
656.620222
 30
0.0
 10
561.954000
 20
656.915395
 30
0.0
  0
SPLINE
  5
12e
100
AcDbEntity
  8
0
 62
7
100
AcDbSpline
 70
8
 71
3
 72
8
 73
4
 74
0
 40
0
 40
0
 40
0
 40
0
 40
1
 40
1
 40
1
 40
1
 10
177.560090
 20
568.886865
 30
0.0
 10
177.560087
 20
590.356558
 30
0.0
 10
166.106142
 20
610.195372
 30
0.0
 10
147.512843
 20
620.930218
 30
0.0
  0
SPLINE
  5
12f
100
AcDbEntity
  8
0
 62
7
100
AcDbSpline
 70
8
 71
3
 72
8
 73
4
 74
0
 40
0
 40
0
 40
0
 40
0
 40
1
 40
1
 40
1
 40
1
 10
147.512843
 20
620.930218
 30
0.0
 10
128.919544
 20
631.665065
 30
0.0
 10
106.011654
 20
631.665065
 30
0.0
 10
87.418355
 20
620.930218
 30
0.0
  0
SPLINE
  5
130
100
AcDbEntity
  8
0
 62
7
100
AcDbSpline
 70
8
 71
3
 72
8
 73
4
 74
0
 40
0
 40
0
 40
0
 40
0
 40
1
 40
1
 40
1
 40
1
 10
87.418355
 20
620.930218
 30
0.0
 10
68.825056
 20
610.195372
 30
0.0
 10
57.371111
 20
590.356558
 30
0.0
 10
57.371111
 20
568.886865
 30
0.0
  0
SPLINE
  5
131
100
AcDbEntity
  8
0
 62
7
100
AcDbSpline
 70
8
 71
3
 72
8
 73
4
 74
0
 40
0
 40
0
 40
0
 40
0
 40
1
 40
1
 40
1
 40
1
 10
57.371111
 20
568.886865
 30
0.0
 10
57.371114
 20
547.417172
 30
0.0
 10
68.825059
 20
527.578358
 30
0.0
 10
87.418358
 20
516.843512
 30
0.0
  0
SPLINE
  5
132
100
AcDbEntity
  8
0
 62
7
100
AcDbSpline
 70
8
 71
3
 72
8
 73
4
 74
0
 40
0
 40
0
 40
0
 40
0
 40
1
 40
1
 40
1
 40
1
 10
87.418358
 20
516.843512
 30
0.0
 10
106.011657
 20
506.108665
 30
0.0
 10
128.919547
 20
506.108665
 30
0.0
 10
147.512846
 20
516.843512
 30
0.0
  0
SPLINE
  5
133
100
AcDbEntity
  8
0
 62
7
100
AcDbSpline
 70
8
 71
3
 72
8
 73
4
 74
0
 40
0
 40
0
 40
0
 40
0
 40
1
 40
1
 40
1
 40
1
 10
147.512846
 20
516.843512
 30
0.0
 10
166.106145
 20
527.578358
 30
0.0
 10
177.560090
 20
547.417172
 30
0.0
 10
177.560090
 20
568.886865
 30
0.0
  0
LWPOLYLINE
  5
134
100
AcDbEntity
  8
0
 62
7
100
AcDbPolyline
 90
2
 70
0
 10
561.953730
 20
656.915585
 30
0.0
 10
533.732730
 20
659.578085
 30
0.0
  0
SPLINE
  5
135
100
AcDbEntity
  8
0
 62
7
100
AcDbSpline
 70
8
 71
3
 72
8
 73
4
 74
0
 40
0
 40
0
 40
0
 40
0
 40
1
 40
1
 40
1
 40
1
 10
204.685460
 20
709.545845
 30
0.0
 10
206.914246
 20
711.684146
 30
0.0
 10
208.174259
 20
714.639136
 30
0.0
 10
208.174260
 20
717.727795
 30
0.0
  0
LWPOLYLINE
  5
136
100
AcDbEntity
  8
0
 62
7
100
AcDbPolyline
 90
1
 70
1
 10
177.560090
 20
568.886865
 30
0.0
  0
SPLINE
  5
137
100
AcDbEntity
  8
0
 62
7
100
AcDbSpline
 70
8
 71
3
 72
8
 73
4
 74
0
 40
0
 40
0
 40
0
 40
0
 40
1
 40
1
 40
1
 40
1
 10
208.174260
 20
720.067965
 30
0.0
 10
208.174262
 20
723.075145
 30
0.0
 10
206.979666
 20
725.959159
 30
0.0
 10
204.853269
 20
728.085557
 30
0.0
  0
SPLINE
  5
138
100
AcDbEntity
  8
0
 62
7
100
AcDbSpline
 70
8
 71
3
 72
8
 73
4
 74
0
 40
0
 40
0
 40
0
 40
0
 40
1
 40
1
 40
1
 40
1
 10
204.853269
 20
728.085557
 30
0.0
 10
202.726873
 20
730.211956
 30
0.0
 10
199.842860
 20
731.406554
 30
0.0
 10
196.835680
 20
731.406555
 30
0.0
  0
LWPOLYLINE
  5
139
100
AcDbEntity
  8
0
 62
7
100
AcDbPolyline
 90
2
 70
0
 10
208.173860
 20
720.068145
 30
0.0
 10
208.173860
 20
717.728145
 30
0.0
  0
SPLINE
  5
13a
100
AcDbEntity
  8
0
 62
7
100
AcDbSpline
 70
8
 71
3
 72
8
 73
4
 74
0
 40
0
 40
0
 40
0
 40
0
 40
1
 40
1
 40
1
 40
1
 10
150.758790
 20
731.406555
 30
0.0
 10
146.762822
 20
731.406553
 30
0.0
 10
143.061875
 20
729.303158
 30
0.0
 10
141.017120
 20
725.869975
 30
0.0
  0
LWPOLYLINE
  5
13b
100
AcDbEntity
  8
0
 62
7
100
AcDbPolyline
 90
2
 70
0
 10
150.758860
 20
731.406145
 30
0.0
 10
196.835860
 20
731.406145
 30
0.0
  0
SPLINE
  5
13c
100
AcDbEntity
  8
0
 62
7
100
AcDbSpline
 70
8
 71
3
 72
8
 73
4
 74
0
 40
0
 40
0
 40
0
 40
0
 40
1
 40
1
 40
1
 40
1
 10
109.270230
 20
672.566445
 30
0.0
 10
107.199679
 20
669.089958
 30
0.0
 10
107.138699
 20
664.773522
 30
0.0
 10
109.110216
 20
661.239931
 30
0.0
  0
SPLINE
  5
13d
100
AcDbEntity
  8
0
 62
7
100
AcDbSpline
 70
8
 71
3
 72
8
 73
4
 74
0
 40
0
 40
0
 40
0
 40
0
 40
1
 40
1
 40
1
 40
1
 10
109.110216
 20
661.239931
 30
0.0
 10
111.081732
 20
657.706340
 30
0.0
 10
114.786921
 20
655.491183
 30
0.0
 10
118.832790
 20
655.427265
 30
0.0
  0
SPLINE
  5
13e
100
AcDbEntity
  8
0
 62
7
100
AcDbSpline
 70
8
 71
3
 72
8
 73
4
 74
0
 40
0
 40
0
 40
0
 40
0
 40
1
 40
1
 40
1
 40
1
 10
153.585970
 20
647.540695
 30
0.0
 10
142.674061
 20
652.551796
 30
0.0
 10
130.838836
 20
655.237568
 30
0.0
 10
118.832800
 20
655.427245
 30
0.0
  0
SPLINE
  5
13f
100
AcDbEntity
  8
0
 62
7
100
AcDbSpline
 70
8
 71
3
 72
8
 73
4
 74
0
 40
0
 40
0
 40
0
 40
0
 40
1
 40
1
 40
1
 40
1
 10
153.585970
 20
647.540695
 30
0.0
 10
157.895760
 20
645.561500
 30
0.0
 10
162.982023
 20
646.473635
 30
0.0
 10
166.335490
 20
649.827105
 30
0.0
  0
LWPOLYLINE
  5
140
100
AcDbEntity
  8
0
 62
7
100
AcDbPolyline
 90
2
 70
0
 10
109.269860
 20
672.566145
 30
0.0
 10
141.016860
 20
725.870145
 30
0.0
  0
SPLINE
  5
141
100
AcDbEntity
  8
0
 62
7
100
AcDbSpline
 70
8
 71
3
 72
8
 73
4
 74
0
 40
0
 40
0
 40
0
 40
0
 40
1
 40
1
 40
1
 40
1
 10
189.745710
 20
673.237325
 30
0.0
 10
191.929720
 20
675.421336
 30
0.0
 10
193.128250
 20
678.401790
 30
0.0
 10
193.064270
 20
681.489785
 30
0.0
  0
SPLINE
  5
142
100
AcDbEntity
  8
0
 62
7
100
AcDbSpline
 70
8
 71
3
 72
8
 73
4
 74
0
 40
0
 40
0
 40
0
 40
0
 40
1
 40
1
 40
1
 40
1
 10
204.685460
 20
709.545855
 30
0.0
 10
197.059782
 20
702.229752
 30
0.0
 10
192.845352
 20
692.055209
 30
0.0
 10
193.064260
 20
681.489775
 30
0.0
  0
SPLINE
  5
143
100
AcDbEntity
  8
0
 62
7
100
AcDbSpline
 70
8
 71
3
 72
8
 73
4
 74
0
 40
0
 40
0
 40
0
 40
0
 40
1
 40
1
 40
1
 40
1
 10
590.425380
 20
667.332185
 30
0.0
 10
594.915590
 20
666.908581
 30
0.0
 10
599.409247
 20
668.104858
 30
0.0
 10
603.094520
 20
670.704895
 30
0.0
  0
LWPOLYLINE
  5
144
100
AcDbEntity
  8
0
 62
7
100
AcDbPolyline
 90
2
 70
0
 10
189.745860
 20
673.237145
 30
0.0
 10
166.335860
 20
649.827145
 30
0.0
  0
SPLINE
  5
145
100
AcDbEntity
  8
0
 62
7
100
AcDbSpline
 70
8
 71
3
 72
8
 73
4
 74
0
 40
0
 40
0
 40
0
 40
0
 40
1
 40
1
 40
1
 40
1
 10
639.822730
 20
696.617455
 30
0.0
 10
645.553502
 20
700.660639
 30
0.0
 10
647.751056
 20
708.114290
 30
0.0
 10
645.130328
 20
714.619739
 30
0.0
  0
SPLINE
  5
146
100
AcDbEntity
  8
0
 62
7
100
AcDbSpline
 70
8
 71
3
 72
8
 73
4
 74
0
 40
0
 40
0
 40
0
 40
0
 40
1
 40
1
 40
1
 40
1
 10
645.130328
 20
714.619739
 30
0.0
 10
642.509601
 20
721.125188
 30
0.0
 10
635.758838
 20
724.974000
 30
0.0
 10
628.825680
 20
723.915505
 30
0.0
  0
LWPOLYLINE
  5
147
100
AcDbEntity
  8
0
 62
7
100
AcDbPolyline
 90
2
 70
0
 10
639.822860
 20
696.617145
 30
0.0
 10
603.094860
 20
670.705145
 30
0.0
  0
SPLINE
  5
148
100
AcDbEntity
  8
0
 62
7
100
AcDbSpline
 70
8
 71
3
 72
8
 73
4
 74
0
 40
0
 40
0
 40
0
 40
0
 40
1
 40
1
 40
1
 40
1
 10
536.472190
 20
709.815765
 30
0.0
 10
527.039649
 20
708.375669
 30
0.0
 10
520.160452
 20
700.129827
 30
0.0
 10
520.434459
 20
690.591923
 30
0.0
  0
SPLINE
  5
149
100
AcDbEntity
  8
0
 62
7
100
AcDbSpline
 70
8
 71
3
 72
8
 73
4
 74
0
 40
0
 40
0
 40
0
 40
0
 40
1
 40
1
 40
1
 40
1
 10
520.434459
 20
690.591923
 30
0.0
 10
520.708465
 20
681.054019
 30
0.0
 10
528.049702
 20
673.216703
 30
0.0
 10
537.549360
 20
672.320495
 30
0.0
  0
LWPOLYLINE
  5
14a
100
AcDbEntity
  8
0
 62
7
100
AcDbPolyline
 90
2
 70
0
 10
536.471860
 20
709.816145
 30
0.0
 10
628.825860
 20
723.915145
 30
0.0
  0
SPLINE
  5
14b
100
AcDbEntity
  8
0
 62
7
100
AcDbSpline
 70
8
 71
3
 72
8
 73
4
 74
0
 40
0
 40
0
 40
0
 40
0
 40
1
 40
1
 40
1
 40
1
 10
619.406130
 20
735.858115
 30
0.0
 10
621.409961
 20
736.162059
 30
0.0
 10
623.099117
 20
737.512593
 30
0.0
 10
623.836590
 20
739.400410
 30
0.0
  0
SPLINE
  5
14c
100
AcDbEntity
  8
0
 62
7
100
AcDbSpline
 70
8
 71
3
 72
8
 73
4
 74
0
 40
0
 40
0
 40
0
 40
0
 40
1
 40
1
 40
1
 40
1
 10
623.836590
 20
739.400410
 30
0.0
 10
624.574064
 20
741.288227
 30
0.0
 10
624.247664
 20
743.426136
 30
0.0
 10
622.980481
 20
745.007897
 30
0.0
  0
SPLINE
  5
14d
100
AcDbEntity
  8
0
 62
7
100
AcDbSpline
 70
8
 71
3
 72
8
 73
4
 74
0
 40
0
 40
0
 40
0
 40
0
 40
1
 40
1
 40
1
 40
1
 10
622.980481
 20
745.007897
 30
0.0
 10
621.713299
 20
746.589658
 30
0.0
 10
619.698108
 20
747.374640
 30
0.0
 10
617.694870
 20
747.066815
 30
0.0
  0
LWPOLYLINE
  5
14e
100
AcDbEntity
  8
0
 62
7
100
AcDbPolyline
 90
2
 70
0
 10
590.424860
 20
667.332145
 30
0.0
 10
537.549860
 20
672.320145
 30
0.0
  0
SPLINE
  5
14f
100
AcDbEntity
  8
0
 62
7
100
AcDbSpline
 70
8
 71
3
 72
8
 73
4
 74
0
 40
0
 40
0
 40
0
 40
0
 40
1
 40
1
 40
1
 40
1
 10
589.673070
 20
742.788715
 30
0.0
 10
586.578079
 20
742.315947
 30
0.0
 10
584.452259
 20
739.423825
 30
0.0
 10
584.924784
 20
736.328797
 30
0.0
  0
SPLINE
  5
150
100
AcDbEntity
  8
0
 62
7
100
AcDbSpline
 70
8
 71
3
 72
8
 73
4
 74
0
 40
0
 40
0
 40
0
 40
0
 40
1
 40
1
 40
1
 40
1
 10
584.924784
 20
736.328797
 30
0.0
 10
585.397309
 20
733.233769
 30
0.0
 10
588.289265
 20
731.107722
 30
0.0
 10
591.384330
 20
731.580005
 30
0.0
  0
LWPOLYLINE
  5
151
100
AcDbEntity
  8
0
 62
7
100
AcDbPolyline
 90
2
 70
0
 10
591.384510
 20
731.579635
 30
0.0
 10
619.406010
 20
735.857635
 30
0.0
  0
SPLINE
  5
152
100
AcDbEntity
  8
0
 62
7
100
AcDbSpline
 70
8
 71
3
 72
8
 73
4
 74
0
 40
0
 40
0
 40
0
 40
0
 40
1
 40
1
 40
1
 40
1
 10
346.807420
 20
705.726375
 30
0.0
 10
343.715489
 20
705.250443
 30
0.0
 10
341.593429
 20
702.359968
 30
0.0
 10
342.065565
 20
699.267455
 30
0.0
  0
SPLINE
  5
153
100
AcDbEntity
  8
0
 62
7
100
AcDbSpline
 70
8
 71
3
 72
8
 73
4
 74
0
 40
0
 40
0
 40
0
 40
0
 40
1
 40
1
 40
1
 40
1
 10
342.065565
 20
699.267455
 30
0.0
 10
342.537702
 20
696.174942
 30
0.0
 10
345.425570
 20
694.049336
 30
0.0
 10
348.518660
 20
694.517675
 30
0.0
  0
LWPOLYLINE
  5
154
100
AcDbEntity
  8
0
 62
7
100
AcDbPolyline
 90
2
 70
0
 10
617.694510
 20
747.067135
 30
0.0
 10
589.673010
 20
742.789135
 30
0.0
  0
SPLINE
  5
155
100
AcDbEntity
  8
0
 62
7
100
AcDbSpline
 70
8
 71
3
 72
8
 73
4
 74
0
 40
0
 40
0
 40
0
 40
0
 40
1
 40
1
 40
1
 40
1
 10
376.540460
 20
698.795855
 30
0.0
 10
378.544691
 20
699.099356
 30
0.0
 10
380.234376
 20
700.449857
 30
0.0
 10
380.972127
 20
702.337920
 30
0.0
  0
SPLINE
  5
156
100
AcDbEntity
  8
0
 62
7
100
AcDbSpline
 70
8
 71
3
 72
8
 73
4
 74
0
 40
0
 40
0
 40
0
 40
0
 40
1
 40
1
 40
1
 40
1
 10
380.972127
 20
702.337920
 30
0.0
 10
381.709877
 20
704.225983
 30
0.0
 10
381.383421
 20
706.364280
 30
0.0
 10
380.115907
 20
707.946198
 30
0.0
  0
SPLINE
  5
157
100
AcDbEntity
  8
0
 62
7
100
AcDbSpline
 70
8
 71
3
 72
8
 73
4
 74
0
 40
0
 40
0
 40
0
 40
0
 40
1
 40
1
 40
1
 40
1
 10
380.115907
 20
707.946198
 30
0.0
 10
378.848392
 20
709.528115
 30
0.0
 10
376.832709
 20
710.312916
 30
0.0
 10
374.829220
 20
710.004555
 30
0.0
  0
LWPOLYLINE
  5
158
100
AcDbEntity
  8
0
 62
7
100
AcDbPolyline
 90
2
 70
0
 10
374.829290
 20
710.005025
 30
0.0
 10
346.807790
 20
705.727025
 30
0.0
  0
SPLINE
  5
159
100
AcDbEntity
  8
0
 62
7
100
AcDbSpline
 70
8
 71
3
 72
8
 73
4
 74
0
 40
0
 40
0
 40
0
 40
0
 40
1
 40
1
 40
1
 40
1
 10
337.277370
 20
666.688605
 30
0.0
 10
340.393534
 20
666.396369
 30
0.0
 10
343.156987
 20
668.684653
 30
0.0
 10
343.450949
 20
671.800655
 30
0.0
  0
SPLINE
  5
15a
100
AcDbEntity
  8
0
 62
7
100
AcDbSpline
 70
8
 71
3
 72
8
 73
4
 74
0
 40
0
 40
0
 40
0
 40
0
 40
1
 40
1
 40
1
 40
1
 10
343.450949
 20
671.800655
 30
0.0
 10
343.744912
 20
674.916657
 30
0.0
 10
341.458158
 20
677.681376
 30
0.0
 10
338.342320
 20
677.977065
 30
0.0
  0
LWPOLYLINE
  5
15b
100
AcDbEntity
  8
0
 62
7
100
AcDbPolyline
 90
2
 70
0
 10
348.519290
 20
694.517525
 30
0.0
 10
376.540790
 20
698.795525
 30
0.0
  0
SPLINE
  5
15c
100
AcDbEntity
  8
0
 62
7
100
AcDbSpline
 70
8
 71
3
 72
8
 73
4
 74
0
 40
0
 40
0
 40
0
 40
0
 40
1
 40
1
 40
1
 40
1
 10
310.121220
 20
680.639475
 30
0.0
 10
308.104297
 20
680.830517
 30
0.0
 10
306.138719
 20
679.930760
 30
0.0
 10
304.965224
 20
678.279280
 30
0.0
  0
SPLINE
  5
15d
100
AcDbEntity
  8
0
 62
7
100
AcDbSpline
 70
8
 71
3
 72
8
 73
4
 74
0
 40
0
 40
0
 40
0
 40
0
 40
1
 40
1
 40
1
 40
1
 10
304.965224
 20
678.279280
 30
0.0
 10
303.791728
 20
676.627801
 30
0.0
 10
303.588691
 20
674.475631
 30
0.0
 10
304.432628
 20
672.633826
 30
0.0
  0
SPLINE
  5
15e
100
AcDbEntity
  8
0
 62
7
100
AcDbSpline
 70
8
 71
3
 72
8
 73
4
 74
0
 40
0
 40
0
 40
0
 40
0
 40
1
 40
1
 40
1
 40
1
 10
304.432628
 20
672.633826
 30
0.0
 10
305.276565
 20
670.792021
 30
0.0
 10
307.039194
 20
669.540542
 30
0.0
 10
309.056260
 20
669.351015
 30
0.0
  0
LWPOLYLINE
  5
15f
100
AcDbEntity
  8
0
 62
7
100
AcDbPolyline
 90
2
 70
0
 10
309.056380
 20
669.350755
 30
0.0
 10
337.277380
 20
666.688255
 30
0.0
  0
SPLINE
  5
160
100
AcDbEntity
  8
0
 62
7
100
AcDbSpline
 70
8
 71
3
 72
8
 73
4
 74
0
 40
0
 40
0
 40
0
 40
0
 40
1
 40
1
 40
1
 40
1
 10
243.134890
 20
682.272695
 30
0.0
 10
243.134890
 20
686.661154
 30
0.0
 10
240.793675
 20
690.716258
 30
0.0
 10
236.993158
 20
692.910488
 30
0.0
  0
SPLINE
  5
161
100
AcDbEntity
  8
0
 62
7
100
AcDbSpline
 70
8
 71
3
 72
8
 73
4
 74
0
 40
0
 40
0
 40
0
 40
0
 40
1
 40
1
 40
1
 40
1
 10
236.993158
 20
692.910488
 30
0.0
 10
233.192640
 20
695.104717
 30
0.0
 10
228.510210
 20
695.104717
 30
0.0
 10
224.709693
 20
692.910488
 30
0.0
  0
SPLINE
  5
162
100
AcDbEntity
  8
0
 62
7
100
AcDbSpline
 70
8
 71
3
 72
8
 73
4
 74
0
 40
0
 40
0
 40
0
 40
0
 40
1
 40
1
 40
1
 40
1
 10
224.709693
 20
692.910488
 30
0.0
 10
220.909175
 20
690.716258
 30
0.0
 10
218.567960
 20
686.661154
 30
0.0
 10
218.567960
 20
682.272695
 30
0.0
  0
SPLINE
  5
163
100
AcDbEntity
  8
0
 62
7
100
AcDbSpline
 70
8
 71
3
 72
8
 73
4
 74
0
 40
0
 40
0
 40
0
 40
0
 40
1
 40
1
 40
1
 40
1
 10
218.567960
 20
682.272695
 30
0.0
 10
218.567960
 20
677.884236
 30
0.0
 10
220.909175
 20
673.829132
 30
0.0
 10
224.709693
 20
671.634902
 30
0.0
  0
SPLINE
  5
164
100
AcDbEntity
  8
0
 62
7
100
AcDbSpline
 70
8
 71
3
 72
8
 73
4
 74
0
 40
0
 40
0
 40
0
 40
0
 40
1
 40
1
 40
1
 40
1
 10
224.709693
 20
671.634902
 30
0.0
 10
228.510210
 20
669.440673
 30
0.0
 10
233.192640
 20
669.440673
 30
0.0
 10
236.993158
 20
671.634902
 30
0.0
  0
SPLINE
  5
165
100
AcDbEntity
  8
0
 62
7
100
AcDbSpline
 70
8
 71
3
 72
8
 73
4
 74
0
 40
0
 40
0
 40
0
 40
0
 40
1
 40
1
 40
1
 40
1
 10
236.993158
 20
671.634902
 30
0.0
 10
240.793675
 20
673.829132
 30
0.0
 10
243.134890
 20
677.884236
 30
0.0
 10
243.134890
 20
682.272695
 30
0.0
  0
LWPOLYLINE
  5
166
100
AcDbEntity
  8
0
 62
7
100
AcDbPolyline
 90
2
 70
0
 10
338.342380
 20
677.977255
 30
0.0
 10
310.121380
 20
680.639755
 30
0.0
  0
SPLINE
  5
167
100
AcDbEntity
  8
0
 62
7
100
AcDbSpline
 70
8
 71
3
 72
8
 73
4
 74
0
 40
0
 40
0
 40
0
 40
0
 40
1
 40
1
 40
1
 40
1
 10
744.867170
 20
757.863245
 30
0.0
 10
744.861291
 20
768.295962
 30
0.0
 10
736.402254
 20
776.750235
 30
0.0
 10
725.969535
 20
776.750235
 30
0.0
  0
SPLINE
  5
168
100
AcDbEntity
  8
0
 62
7
100
AcDbSpline
 70
8
 71
3
 72
8
 73
4
 74
0
 40
0
 40
0
 40
0
 40
0
 40
1
 40
1
 40
1
 40
1
 10
725.969535
 20
776.750235
 30
0.0
 10
715.536816
 20
776.750235
 30
0.0
 10
707.077779
 20
768.295962
 30
0.0
 10
707.071900
 20
757.863245
 30
0.0
  0
SPLINE
  5
169
100
AcDbEntity
  8
0
 62
7
100
AcDbSpline
 70
8
 71
3
 72
8
 73
4
 74
0
 40
0
 40
0
 40
0
 40
0
 40
1
 40
1
 40
1
 40
1
 10
707.071900
 20
757.863245
 30
0.0
 10
707.077779
 20
747.430528
 30
0.0
 10
715.536816
 20
738.976255
 30
0.0
 10
725.969535
 20
738.976255
 30
0.0
  0
SPLINE
  5
16a
100
AcDbEntity
  8
0
 62
7
100
AcDbSpline
 70
8
 71
3
 72
8
 73
4
 74
0
 40
0
 40
0
 40
0
 40
0
 40
1
 40
1
 40
1
 40
1
 10
725.969535
 20
738.976255
 30
0.0
 10
736.402254
 20
738.976255
 30
0.0
 10
744.861291
 20
747.430528
 30
0.0
 10
744.867170
 20
757.863245
 30
0.0
  0
LWPOLYLINE
  5
16b
100
AcDbEntity
  8
0
 62
7
100
AcDbPolyline
 90
1
 70
1
 10
243.134890
 20
682.272695
 30
0.0
  0
SPLINE
  5
16c
100
AcDbEntity
  8
0
 62
7
100
AcDbSpline
 70
8
 71
3
 72
8
 73
4
 74
0
 40
0
 40
0
 40
0
 40
0
 40
1
 40
1
 40
1
 40
1
 10
643.764810
 20
644.477415
 30
0.0
 10
643.764810
 20
648.865874
 30
0.0
 10
641.423595
 20
652.920978
 30
0.0
 10
637.623078
 20
655.115208
 30
0.0
  0
SPLINE
  5
16d
100
AcDbEntity
  8
0
 62
7
100
AcDbSpline
 70
8
 71
3
 72
8
 73
4
 74
0
 40
0
 40
0
 40
0
 40
0
 40
1
 40
1
 40
1
 40
1
 10
637.623078
 20
655.115208
 30
0.0
 10
633.822560
 20
657.309437
 30
0.0
 10
629.140130
 20
657.309437
 30
0.0
 10
625.339613
 20
655.115208
 30
0.0
  0
SPLINE
  5
16e
100
AcDbEntity
  8
0
 62
7
100
AcDbSpline
 70
8
 71
3
 72
8
 73
4
 74
0
 40
0
 40
0
 40
0
 40
0
 40
1
 40
1
 40
1
 40
1
 10
625.339613
 20
655.115208
 30
0.0
 10
621.539095
 20
652.920978
 30
0.0
 10
619.197880
 20
648.865874
 30
0.0
 10
619.197880
 20
644.477415
 30
0.0
  0
SPLINE
  5
16f
100
AcDbEntity
  8
0
 62
7
100
AcDbSpline
 70
8
 71
3
 72
8
 73
4
 74
0
 40
0
 40
0
 40
0
 40
0
 40
1
 40
1
 40
1
 40
1
 10
619.197880
 20
644.477415
 30
0.0
 10
619.197880
 20
640.088956
 30
0.0
 10
621.539095
 20
636.033852
 30
0.0
 10
625.339613
 20
633.839622
 30
0.0
  0
SPLINE
  5
170
100
AcDbEntity
  8
0
 62
7
100
AcDbSpline
 70
8
 71
3
 72
8
 73
4
 74
0
 40
0
 40
0
 40
0
 40
0
 40
1
 40
1
 40
1
 40
1
 10
625.339613
 20
633.839622
 30
0.0
 10
629.140130
 20
631.645393
 30
0.0
 10
633.822560
 20
631.645393
 30
0.0
 10
637.623078
 20
633.839622
 30
0.0
  0
SPLINE
  5
171
100
AcDbEntity
  8
0
 62
7
100
AcDbSpline
 70
8
 71
3
 72
8
 73
4
 74
0
 40
0
 40
0
 40
0
 40
0
 40
1
 40
1
 40
1
 40
1
 10
637.623078
 20
633.839622
 30
0.0
 10
641.423595
 20
636.033852
 30
0.0
 10
643.764810
 20
640.088956
 30
0.0
 10
643.764810
 20
644.477415
 30
0.0
  0
LWPOLYLINE
  5
172
100
AcDbEntity
  8
0
 62
7
100
AcDbPolyline
 90
1
 70
1
 10
744.867170
 20
757.863245
 30
0.0
  0
LWPOLYLINE
  5
173
100
AcDbEntity
  8
0
 62
7
100
AcDbPolyline
 90
1
 70
1
 10
643.764810
 20
644.477415
 30
0.0
  0
LWPOLYLINE
  5
174
100
AcDbEntity
  8
0
 62
7
100
AcDbPolyline
 90
2
 70
0
 10
348.016860
 20
757.863145
 30
0.0
 10
348.016860
 20
754.084145
 30
0.0
  0
SPLINE
  5
175
100
AcDbEntity
  8
0
 62
7
100
AcDbSpline
 70
8
 71
3
 72
8
 73
4
 74
0
 40
0
 40
0
 40
0
 40
0
 40
1
 40
1
 40
1
 40
1
 10
348.016780
 20
754.083715
 30
0.0
 10
348.016779
 20
753.081321
 30
0.0
 10
348.414979
 20
752.119983
 30
0.0
 10
349.123778
 20
751.411183
 30
0.0
  0
SPLINE
  5
176
100
AcDbEntity
  8
0
 62
7
100
AcDbSpline
 70
8
 71
3
 72
8
 73
4
 74
0
 40
0
 40
0
 40
0
 40
0
 40
1
 40
1
 40
1
 40
1
 10
349.123778
 20
751.411183
 30
0.0
 10
349.832578
 20
750.702384
 30
0.0
 10
350.793916
 20
750.304185
 30
0.0
 10
351.796310
 20
750.304185
 30
0.0
  0
LWPOLYLINE
  5
177
100
AcDbEntity
  8
0
 62
7
100
AcDbPolyline
 90
2
 70
0
 10
351.795860
 20
750.304145
 30
0.0
 10
431.166860
 20
750.304145
 30
0.0
  0
LWPOLYLINE
  5
178
100
AcDbEntity
  8
0
 62
7
100
AcDbPolyline
 90
2
 70
0
 10
310.221860
 20
754.084145
 30
0.0
 10
310.221860
 20
757.863145
 30
0.0
  0
SPLINE
  5
179
100
AcDbEntity
  8
0
 62
7
100
AcDbSpline
 70
8
 71
3
 72
8
 73
4
 74
0
 40
0
 40
0
 40
0
 40
0
 40
1
 40
1
 40
1
 40
1
 10
306.441970
 20
750.304185
 30
0.0
 10
307.444364
 20
750.304185
 30
0.0
 10
308.405702
 20
750.702384
 30
0.0
 10
309.114502
 20
751.411183
 30
0.0
  0
SPLINE
  5
17a
100
AcDbEntity
  8
0
 62
7
100
AcDbSpline
 70
8
 71
3
 72
8
 73
4
 74
0
 40
0
 40
0
 40
0
 40
0
 40
1
 40
1
 40
1
 40
1
 10
309.114502
 20
751.411183
 30
0.0
 10
309.823301
 20
752.119983
 30
0.0
 10
310.221501
 20
753.081321
 30
0.0
 10
310.221500
 20
754.083715
 30
0.0
  0
SPLINE
  5
17b
100
AcDbEntity
  8
0
 62
7
100
AcDbSpline
 70
8
 71
3
 72
8
 73
4
 74
0
 40
0
 40
0
 40
0
 40
0
 40
1
 40
1
 40
1
 40
1
 10
646.500240
 20
671.354955
 30
0.0
 10
645.200874
 20
669.799258
 30
0.0
 10
644.830927
 20
667.668207
 30
0.0
 10
645.529937
 20
665.765596
 30
0.0
  0
SPLINE
  5
17c
100
AcDbEntity
  8
0
 62
7
100
AcDbSpline
 70
8
 71
3
 72
8
 73
4
 74
0
 40
0
 40
0
 40
0
 40
0
 40
1
 40
1
 40
1
 40
1
 10
645.529937
 20
665.765596
 30
0.0
 10
646.228946
 20
663.862984
 30
0.0
 10
647.890551
 20
662.478315
 30
0.0
 10
649.888023
 20
662.133859
 30
0.0
  0
SPLINE
  5
17d
100
AcDbEntity
  8
0
 62
7
100
AcDbSpline
 70
8
 71
3
 72
8
 73
4
 74
0
 40
0
 40
0
 40
0
 40
0
 40
1
 40
1
 40
1
 40
1
 10
649.888023
 20
662.133859
 30
0.0
 10
651.885495
 20
661.789403
 30
0.0
 10
653.914899
 20
662.537574
 30
0.0
 10
655.210780
 20
664.096175
 30
0.0
  0
LWPOLYLINE
  5
17e
100
AcDbEntity
  8
0
 62
7
100
AcDbPolyline
 90
2
 70
0
 10
236.613540
 20
750.309365
 30
0.0
 10
306.440310
 20
750.309365
 30
0.0
  0
LWPOLYLINE
  5
17f
100
AcDbEntity
  8
0
 62
7
100
AcDbPolyline
 90
2
 70
0
 10
655.210900
 20
664.096235
 30
0.0
 10
669.727900
 20
681.517235
 30
0.0
  0
SPLINE
  5
180
100
AcDbEntity
  8
0
 62
7
100
AcDbSpline
 70
8
 71
3
 72
8
 73
4
 74
0
 40
0
 40
0
 40
0
 40
0
 40
1
 40
1
 40
1
 40
1
 10
669.728310
 20
681.517205
 30
0.0
 10
671.732561
 20
683.922573
 30
0.0
 10
671.407490
 20
687.497255
 30
0.0
 10
669.002230
 20
689.501636
 30
0.0
  0
SPLINE
  5
181
100
AcDbEntity
  8
0
 62
7
100
AcDbSpline
 70
8
 71
3
 72
8
 73
4
 74
0
 40
0
 40
0
 40
0
 40
0
 40
1
 40
1
 40
1
 40
1
 10
669.002230
 20
689.501636
 30
0.0
 10
666.596969
 20
691.506016
 30
0.0
 10
663.022270
 20
691.181138
 30
0.0
 10
661.017760
 20
688.775985
 30
0.0
  0
SPLINE
  5
182
100
AcDbEntity
  8
0
 62
7
100
AcDbSpline
 70
8
 71
3
 72
8
 73
4
 74
0
 40
0
 40
0
 40
0
 40
0
 40
1
 40
1
 40
1
 40
1
 10
683.160710
 20
715.350545
 30
0.0
 10
681.861344
 20
713.794848
 30
0.0
 10
681.491397
 20
711.663797
 30
0.0
 10
682.190407
 20
709.761186
 30
0.0
  0
SPLINE
  5
183
100
AcDbEntity
  8
0
 62
7
100
AcDbSpline
 70
8
 71
3
 72
8
 73
4
 74
0
 40
0
 40
0
 40
0
 40
0
 40
1
 40
1
 40
1
 40
1
 10
682.190407
 20
709.761186
 30
0.0
 10
682.889416
 20
707.858574
 30
0.0
 10
684.551021
 20
706.473905
 30
0.0
 10
686.548493
 20
706.129449
 30
0.0
  0
SPLINE
  5
184
100
AcDbEntity
  8
0
 62
7
100
AcDbSpline
 70
8
 71
3
 72
8
 73
4
 74
0
 40
0
 40
0
 40
0
 40
0
 40
1
 40
1
 40
1
 40
1
 10
686.548493
 20
706.129449
 30
0.0
 10
688.545965
 20
705.784993
 30
0.0
 10
690.575369
 20
706.533164
 30
0.0
 10
691.871250
 20
708.091765
 30
0.0
  0
LWPOLYLINE
  5
185
100
AcDbEntity
  8
0
 62
7
100
AcDbPolyline
 90
2
 70
0
 10
661.017400
 20
688.775735
 30
0.0
 10
646.500400
 20
671.354735
 30
0.0
  0
LWPOLYLINE
  5
186
100
AcDbEntity
  8
0
 62
7
100
AcDbPolyline
 90
2
 70
0
 10
691.871060
 20
708.092305
 30
0.0
 10
706.388060
 20
725.513305
 30
0.0
  0
SPLINE
  5
187
100
AcDbEntity
  8
0
 62
7
100
AcDbSpline
 70
8
 71
3
 72
8
 73
4
 74
0
 40
0
 40
0
 40
0
 40
0
 40
1
 40
1
 40
1
 40
1
 10
706.388780
 20
725.512795
 30
0.0
 10
708.393031
 20
727.918163
 30
0.0
 10
708.067960
 20
731.492845
 30
0.0
 10
705.662700
 20
733.497226
 30
0.0
  0
SPLINE
  5
188
100
AcDbEntity
  8
0
 62
7
100
AcDbSpline
 70
8
 71
3
 72
8
 73
4
 74
0
 40
0
 40
0
 40
0
 40
0
 40
1
 40
1
 40
1
 40
1
 10
705.662700
 20
733.497226
 30
0.0
 10
703.257439
 20
735.501606
 30
0.0
 10
699.682740
 20
735.176728
 30
0.0
 10
697.678230
 20
732.771575
 30
0.0
  0
LWPOLYLINE
  5
189
100
AcDbEntity
  8
0
 62
7
100
AcDbPolyline
 90
2
 70
0
 10
697.677560
 20
732.771805
 30
0.0
 10
683.160560
 20
715.350805
 30
0.0
  0
SPLINE
  5
18a
100
AcDbEntity
  8
0
 62
7
100
AcDbSpline
 70
8
 71
3
 72
8
 73
4
 74
0
 40
0
 40
0
 40
0
 40
0
 40
1
 40
1
 40
1
 40
1
 10
504.333110
 20
650.785645
 30
0.0
 10
507.449614
 20
650.492814
 30
0.0
 10
510.213697
 20
652.781201
 30
0.0
 10
510.507700
 20
655.897595
 30
0.0
  0
SPLINE
  5
18b
100
AcDbEntity
  8
0
 62
7
100
AcDbSpline
 70
8
 71
3
 72
8
 73
4
 74
0
 40
0
 40
0
 40
0
 40
0
 40
1
 40
1
 40
1
 40
1
 10
510.507700
 20
655.897595
 30
0.0
 10
510.801702
 20
659.013989
 30
0.0
 10
508.514353
 20
661.778932
 30
0.0
 10
505.398070
 20
662.074105
 30
0.0
  0
LWPOLYLINE
  5
18c
100
AcDbEntity
  8
0
 62
7
100
AcDbPolyline
 90
2
 70
0
 10
505.398220
 20
662.074655
 30
0.0
 10
477.177220
 20
664.737155
 30
0.0
  0
SPLINE
  5
18d
100
AcDbEntity
  8
0
 62
7
100
AcDbSpline
 70
8
 71
3
 72
8
 73
4
 74
0
 40
0
 40
0
 40
0
 40
0
 40
1
 40
1
 40
1
 40
1
 10
477.176870
 20
664.736515
 30
0.0
 10
475.159742
 20
664.927938
 30
0.0
 10
473.193796
 20
664.028292
 30
0.0
 10
472.020065
 20
662.376686
 30
0.0
  0
SPLINE
  5
18e
100
AcDbEntity
  8
0
 62
7
100
AcDbSpline
 70
8
 71
3
 72
8
 73
4
 74
0
 40
0
 40
0
 40
0
 40
0
 40
1
 40
1
 40
1
 40
1
 10
472.020065
 20
662.376686
 30
0.0
 10
470.846334
 20
660.725079
 30
0.0
 10
470.643272
 20
658.572623
 30
0.0
 10
471.487420
 20
656.730650
 30
0.0
  0
SPLINE
  5
18f
100
AcDbEntity
  8
0
 62
7
100
AcDbSpline
 70
8
 71
3
 72
8
 73
4
 74
0
 40
0
 40
0
 40
0
 40
0
 40
1
 40
1
 40
1
 40
1
 10
471.487420
 20
656.730650
 30
0.0
 10
472.331568
 20
654.888677
 30
0.0
 10
474.094581
 20
653.637243
 30
0.0
 10
476.111920
 20
653.448055
 30
0.0
  0
LWPOLYLINE
  5
190
100
AcDbEntity
  8
0
 62
7
100
AcDbPolyline
 90
2
 70
0
 10
476.112220
 20
653.448155
 30
0.0
 10
504.333220
 20
650.785655
 30
0.0
  0
SPLINE
  5
191
100
AcDbEntity
  8
0
 62
7
100
AcDbSpline
 70
8
 71
3
 72
8
 73
4
 74
0
 40
0
 40
0
 40
0
 40
0
 40
1
 40
1
 40
1
 40
1
 10
291.081510
 20
670.904005
 30
0.0
 10
294.197419
 20
670.612215
 30
0.0
 10
296.960399
 20
672.900423
 30
0.0
 10
297.254331
 20
676.016131
 30
0.0
  0
SPLINE
  5
192
100
AcDbEntity
  8
0
 62
7
100
AcDbSpline
 70
8
 71
3
 72
8
 73
4
 74
0
 40
0
 40
0
 40
0
 40
0
 40
1
 40
1
 40
1
 40
1
 10
297.254331
 20
676.016131
 30
0.0
 10
297.548264
 20
679.131839
 30
0.0
 10
295.261955
 20
681.896391
 30
0.0
 10
292.146450
 20
682.192465
 30
0.0
  0
LWPOLYLINE
  5
193
100
AcDbEntity
  8
0
 62
7
100
AcDbPolyline
 90
2
 70
0
 10
292.146880
 20
682.191755
 30
0.0
 10
263.925880
 20
684.854255
 30
0.0
  0
SPLINE
  5
194
100
AcDbEntity
  8
0
 62
7
100
AcDbSpline
 70
8
 71
3
 72
8
 73
4
 74
0
 40
0
 40
0
 40
0
 40
0
 40
1
 40
1
 40
1
 40
1
 10
263.925340
 20
684.854875
 30
0.0
 10
261.908058
 20
685.046582
 30
0.0
 10
259.941838
 20
684.147021
 30
0.0
 10
258.767930
 20
682.495318
 30
0.0
  0
SPLINE
  5
195
100
AcDbEntity
  8
0
 62
7
100
AcDbSpline
 70
8
 71
3
 72
8
 73
4
 74
0
 40
0
 40
0
 40
0
 40
0
 40
1
 40
1
 40
1
 40
1
 10
258.767930
 20
682.495318
 30
0.0
 10
257.594022
 20
680.843616
 30
0.0
 10
257.390942
 20
678.690945
 30
0.0
 10
258.235248
 20
676.848847
 30
0.0
  0
SPLINE
  5
196
100
AcDbEntity
  8
0
 62
7
100
AcDbSpline
 70
8
 71
3
 72
8
 73
4
 74
0
 40
0
 40
0
 40
0
 40
0
 40
1
 40
1
 40
1
 40
1
 10
258.235248
 20
676.848847
 30
0.0
 10
259.079555
 20
675.006749
 30
0.0
 10
260.842856
 20
673.755349
 30
0.0
 10
262.860400
 20
673.566415
 30
0.0
  0
LWPOLYLINE
  5
197
100
AcDbEntity
  8
0
 62
7
100
AcDbPolyline
 90
2
 70
0
 10
262.860880
 20
673.566755
 30
0.0
 10
291.081880
 20
670.904255
 30
0.0
  0
ENDSEC
  0
SECTION
  2
OBJECTS
  0
DICTIONARY
  5
C
330
0
100
AcDbDictionary
  3
ACAD_GROUP
350
D
  3
ACAD_MLINESTYLE
350
17
  0
DICTIONARY
  5
D
330
C
100
AcDbDictionary
  0
DICTIONARY
  5
1A
330
C
100
AcDbDictionary
  0
DICTIONARY
  5
17
330
C
100
AcDbDictionary
  3
STANDARD
350
18
  0
DICTIONARY
  5
19
330
C
100
AcDbDictionary
  0
ENDSEC
  0
EOF
