<!--version="1.0" standalone="no"--><!DOCTYPE html PUBLIC "-//W3C//DTD SVG 1.0//EN" "http://www.w3.org/TR/2001/REC-SVG-20010904/DTD/svg10.dtd"><svg xmlns="http://www.w3.org/2000/svg" xmlns:xlink="http://www.w3.org/1999/xlink" id="body_-2058468809_10253" width="23277.4921875" height="11280" preserveAspectRatio="xMidYMid meet" zoomAndPan="magnify" version="1.0" contentScriptType="text/ecmascript" contentStyleType="text/css">

<g transform="matrix(95.500797253266327 0 0 -95.500797253266327 60.521810454782099 11250.671838629398)">
    <g>
            <path d="M63.944457999999997 92.5L63.962769000000002 92.568359000000001" stroke="#000000" stroke-width="0.019590150183629862" stroke-linecap="round" stroke-linejoin="round" fill="none"/>
            <path d="M74.21585136854172 99.963180393554694L73.846524955863956 99.986797184326178L73.476631151671413 99.998607487060553L73.291590743624496 100.0000809138794" stroke="#000000" stroke-width="0.019590150183629862" stroke-linecap="round" stroke-linejoin="round" fill="none"/>
            <path d="M73.291625999999994 100.00016491534424L72.640852236343378 99.981895376464848L71.993248962951654 99.927174974700932L71.351971292091363 99.836271215698247L70.720143580032342 99.709626127502446L70.100843691421503 99.547857214233403L69.497088932586664 99.351752210876469L68.911820911956781 99.122266699096684L68.34789087731933 98.860519338867192L67.808045887542718 98.567784239074712L67.294916653228753 98.245488096496587L66.811002754760736 97.89520113589478L66.358661675048822 97.518630434295659L65.940097355438226 97.117609430572514L65.557349228454584 96.694092680236821L65.21228125054931 96.250143457672124L64.906575226379388 95.787924457809453L64.641720795227045 95.309687544128423L64.41900732476806 94.817762781402593L64.239520096374505 94.314546633979802L64.104134583068841 93.802490760108952L64.013508820129388 93.284089971801762L63.968085312438959 92.761869717857365L63.962788605285638 92.568383593580251" stroke="#000000" stroke-width="0.019590150183629862" stroke-linecap="round" stroke-linejoin="round" fill="none"/>
            <path d="M63.944457999999997 92.5L54.526122999999998 92.5" stroke="#000000" stroke-width="0.019590150183629862" stroke-linecap="round" stroke-linejoin="round" fill="none"/>
            <path d="M54.526122999999998 92.5L54.526122999999998 117.5" stroke="#000000" stroke-width="0.019590150183629862" stroke-linecap="round" stroke-linejoin="round" fill="none"/>
            <path d="M242.47387699999999 117.5L54.526122999999998 117.5" stroke="#000000" stroke-width="0.019590150183629862" stroke-linecap="round" stroke-linejoin="round" fill="none"/>
            <path d="M242.47387699999999 92.5L242.47387699999999 117.5" stroke="#000000" stroke-width="0.019590150183629862" stroke-linecap="round" stroke-linejoin="round" fill="none"/>
            <path d="M242.47387699999999 92.5L206.00451699999999 92.5" stroke="#000000" stroke-width="0.019590150183629862" stroke-linecap="round" stroke-linejoin="round" fill="none"/>
            <path d="M206.00452653674316 92.500006108657089L205.97407666949462 93.37196272611618L205.88287679461669 94.239671111106873L205.7313703706665 95.098904132843018L205.52029554156493 95.945475578308105L205.25068132189941 96.775260925292969L204.92384092120361 97.584217548370361L204.54136697558593 98.368404388427734L204.10512296466064 99.124001026153564L203.61723367480468 99.847325801849365L203.08007566241454 100.53485584259033L202.49626771716308 101.18324089050293L201.86865178851318 101.78932094573975L201.20028678683471 102.35014533996582L200.49442903308105 102.86298084259033L199.75451652316283 103.3253288269043L198.98415462283324 103.73493671417236L198.18709699420165 104.08980941772461L197.36722604541015 104.38821792602539L196.52853647975158 104.62870788574219L195.67511431483459 104.81010723114014L194.81111721305084 104.93153381347656L193.94075439480972 104.99239540100098L193.06826631335448 104.99239444732666L192.19790355471801 104.93153285980225L191.33390657214355 104.8101053237915L190.48048464564513 104.62870407104492L189.64179531840514 104.38821315765381L188.82192460803222 104.08980464935303L188.02486745623779 103.73493099212646L187.25450650958251 103.32532215118408L186.51459495333862 102.86297416687012L185.80873767642211 102.35013771057129L185.14037267474365 101.78931331634521L184.51275769976806 101.18323135375977L183.92894975451659 100.53484630584717L183.39179269580077 99.847315788269043L182.90390435961913 99.123990058898926L182.46766034869384 98.368392944335938L182.08518735675048 97.584205627441406L181.758347909729 96.775249004364014L181.48873464373779 95.945463180541992L181.27766172198486 95.098891496658325L181.12615529803466 94.23965847492218L181.03495637683105 93.371949970722198L181.00450746325683 92.500006657907761" stroke="#000000" stroke-width="0.019590150183629862" stroke-linecap="round" stroke-linejoin="round" fill="none"/>
            <path d="M86.275513000000004 92.5L86.319702000000007 92.5" stroke="#000000" stroke-width="0.019590150183629862" stroke-linecap="round" stroke-linejoin="round" fill="none"/>
            <path d="M181.00451699999999 92.5L86.319702000000007 92.5" stroke="#000000" stroke-width="0.019590150183629862" stroke-linecap="round" stroke-linejoin="round" fill="none"/>
            <path d="M86.319580000000002 92.539428999999998L86.276122999999998 92.539428999999998" stroke="#000000" stroke-width="0.019590150183629862" stroke-linecap="round" stroke-linejoin="round" fill="none"/>
            <path d="M86.319702000000007 92.5L86.319580000000002 92.539428999999998" stroke="#000000" stroke-width="0.019590150183629862" stroke-linecap="round" stroke-linejoin="round" fill="none"/>
            <path d="M86.275513000000004 92.5L86.276122999999998 92.539428999999998" stroke="#000000" stroke-width="0.019590150183629862" stroke-linecap="round" stroke-linejoin="round" fill="none"/>
            <path d="M86.319580000000002 92.539428999999998L86.359131000000005 92.539551000000003" stroke="#000000" stroke-width="0.019590150183629862" stroke-linecap="round" stroke-linejoin="round" fill="none"/>
            <path d="M85.820189999999997 94.921265000000005L86.315185999999997 92.733886999999996" stroke="#000000" stroke-width="0.019590150183629862" stroke-linecap="round" stroke-linejoin="round" fill="none"/>
            <path d="M86.359131000000005 92.539551000000003L86.315185999999997 92.733886999999996" stroke="#000000" stroke-width="0.019590150183629862" stroke-linecap="round" stroke-linejoin="round" fill="none"/>
            <path d="M86.315519575347906 92.73400829979515L86.282593015899664 93.165913003173827L86.219618562927252 93.594468849388122L86.126903299560553 94.017587798324584L86.004898313751227 94.433208482948302L85.854198221435553 94.839306252685546L85.819837812652594 94.9211691791687" stroke="#000000" stroke-width="0.019590150183629862" stroke-linecap="round" stroke-linejoin="round" fill="none"/>
            <path d="M76.990497705177901 100.00020468060303L76.620096974861141 99.994294760864264L76.250076048862454 99.976546881835944L76.065325611125942 99.963239310424811" stroke="#000000" stroke-width="0.019590150183629862" stroke-linecap="round" stroke-linejoin="round" fill="none"/>
            <path d="M85.820217969506132 94.92131990716257L85.588623751299593 95.410594616744888L85.315140899019383 95.8856889291351L85.001099879172386 96.344288805828313L84.648031426764661 96.784159371149258L84.257655577532049 97.203158024843589L83.831874038180715 97.599243740102992L83.372761602971963 97.970485884715671L82.882554709134453 98.315076856801824L82.36364142307805 98.631337329629304L81.818549995908853 98.917726264744715L81.249935988526587 99.172848540862546L80.660570588852067 99.395461629126814L80.053323683902278 99.584480837655335L79.431154084403985 99.738985033201899L78.797093431352522 99.8582214088961L78.154230460217093 99.941609775160117L77.505697113039844 99.988743036000727L76.990481480034077 100.00018740770706" stroke="#000000" stroke-width="0.019590150183629862" stroke-linecap="round" stroke-linejoin="round" fill="none"/>
            <path d="M76.990564134718767 100.00018934368896L76.247917574878699 99.976439038513178L75.508343440528876 99.904915372131342L75.140667301651007 99.851322690246576" stroke="#000000" stroke-width="0.019590150183629862" stroke-linecap="round" stroke-linejoin="round" fill="none"/>
            <path d="M75.140663791641231 99.851292735168457L74.404137183174129 99.946512347290039L73.663010735258098 99.994132166931152L73.29168195040674 100.00002301318359" stroke="#000000" stroke-width="0.019590150183629862" stroke-linecap="round" stroke-linejoin="round" fill="none"/>
            <path d="M149.75256300000001 98.899901999999997L149.75256300000001 94" stroke="#000000" stroke-width="0.019590150183629862" stroke-linecap="round" stroke-linejoin="round" fill="none"/>
            <path d="M140.207764 98.899901999999997L140.207764 94" stroke="#000000" stroke-width="0.019590150183629862" stroke-linecap="round" stroke-linejoin="round" fill="none"/>
            <path d="M149.75256300000001 94L140.207764 94" stroke="#000000" stroke-width="0.019590150183629862" stroke-linecap="round" stroke-linejoin="round" fill="none"/>
            <path d="M223.441406 93.999756000000005L212.442993 93.999877999999995" stroke="#000000" stroke-width="0.019590150183629862" stroke-linecap="round" stroke-linejoin="round" fill="none"/>
            <path d="M223.441406 98.899780000000007L223.441406 93.999756000000005" stroke="#000000" stroke-width="0.019590150183629862" stroke-linecap="round" stroke-linejoin="round" fill="none"/>
            <path d="M212.442993 98.899780000000007L212.442993 93.999877999999995" stroke="#000000" stroke-width="0.019590150183629862" stroke-linecap="round" stroke-linejoin="round" fill="none"/>
            <path d="M76.953734999999995 100L76.990478999999993 100" stroke="#000000" stroke-width="0.019590150183629862" stroke-linecap="round" stroke-linejoin="round" fill="none"/>
            <path d="M76.065487067378996 99.963286220153805L75.694810847915647 99.927569209655758L75.325490336097715 99.879833041748043L75.141459326423643 99.851472674926754" stroke="#000000" stroke-width="0.019590150183629862" stroke-linecap="round" stroke-linejoin="round" fill="none"/>
            <path d="M149.75256300000001 98.899901999999997L140.207764 98.899901999999997" stroke="#000000" stroke-width="0.019590150183629862" stroke-linecap="round" stroke-linejoin="round" fill="none"/>
            <path d="M212.442993 98.899780000000007L223.441406 98.899780000000007" stroke="#000000" stroke-width="0.019590150183629862" stroke-linecap="round" stroke-linejoin="round" fill="none"/>
    </g>
</g>
</svg>