<!--version="1.0" standalone="no"--><!DOCTYPE html PUBLIC "-//W3C//DTD SVG 1.0//EN" "http://www.w3.org/TR/2001/REC-SVG-20010904/DTD/svg10.dtd"><svg xmlns="http://www.w3.org/2000/svg" xmlns:xlink="http://www.w3.org/1999/xlink" id="body_-94262813_9588" width="19360.189453125" height="10538.15625" preserveAspectRatio="xMidYMid meet" zoomAndPan="magnify" version="1.0" contentScriptType="text/ecmascript" contentStyleType="text/css">

<g transform="matrix(95.500797217354219 0 0 -95.500797217354219 50.336779692694108 10510.756894005463)">
    <g>
            <path d="M95.331360000000004 100.227661L95.331360000000004 109.77246100000001" stroke="#000000" stroke-width="0.018813356487011844" stroke-linecap="round" stroke-linejoin="round" fill="none"/>
            <path d="M201.66864000000001 100.227661L95.331360000000004 100.227661" stroke="#000000" stroke-width="0.018813356487011844" stroke-linecap="round" stroke-linejoin="round" fill="none"/>
            <path d="M95.331360000000004 109.77246100000001L201.66864000000001 109.77246100000001" stroke="#000000" stroke-width="0.018813356487011844" stroke-linecap="round" stroke-linejoin="round" fill="none"/>
            <path d="M201.66864000000001 109.77246100000001L201.66864000000001 100.227661" stroke="#000000" stroke-width="0.018813356487011844" stroke-linecap="round" stroke-linejoin="round" fill="none"/>
            <path d="M195.26002803414917 104.524536L195.25489202111817 104.67161174248314L195.23950901597595 104.81797094772911L195.21395412057495 104.96290056537246L195.17835155099488 105.1056945187912L195.13287487596131 105.24565707276916L195.07774582475281 105.38210646937942L195.01323273748017 105.51437781880951L194.93965008824921 105.64182685445404L194.85735622018433 105.76383243630981L194.76675215333557 105.87980030606842L194.66827931970215 105.98916553090667L194.56241741746521 106.09139524530029L194.44968214601136 106.18599127362823L194.33062282174683 106.27249299119568L194.20581951707459 106.35047875474548L194.07588019937134 106.41956864427185L193.94143792956925 106.47942625115967L193.80314770310974 106.52975975106811L193.66168323129273 106.57032404969787L193.51773378223038 106.60092149804687L193.37200058966732 106.62140284608459L193.22519369393444 106.63166867326355L193.07802830606556 106.63166867326355L192.93122141033268 106.62140284608459L192.78548821776963 106.60092149804687L192.64153876870728 106.57032404969787L192.50007429689026 106.52975975106811L192.36178407043076 106.47942625115967L192.22734180062866 106.41956864427185L192.09740248292542 106.35047875474548L191.97259917825318 106.27249299119568L191.85353985398865 106.18599127362823L191.74080458253479 106.09139524530029L191.63494268029785 105.98916553090667L191.53646984666443 105.87980030606842L191.44586577981568 105.76383243630981L191.3635719117508 105.64182685445404L191.28998926251984 105.51437781880951L191.22547617524719 105.38210646937942L191.1703471240387 105.24565707276916L191.12487044900513 105.1056945187912L191.08926787942505 104.96290056537246L191.06371298402405 104.81797094772911L191.04832997888184 104.67161174248314L191.04319396585083 104.524536L191.04832997888184 104.37746025751686L191.06371298402405 104.23110105227089L191.08926787942505 104.08617143462753L191.12487044900513 103.9433774812088L191.1703471240387 103.80341492723083L191.22547617524719 103.66696553062057L191.28998926251984 103.53469418119049L191.3635719117508 103.40724514554596L191.44586577981568 103.28523956369018L191.53646984666443 103.16927169393158L191.63494268029785 103.05990646909332L191.74080458253479 102.9576767546997L191.85353985398865 102.86308072637176L191.97259917825318 102.77657900880432L192.09740248292542 102.69859324525451L192.22734180062866 102.62950335572815L192.36178407043076 102.56964574884033L192.50007429689026 102.51931224893188L192.64153876870728 102.47874795030212L192.78548821776963 102.44815050195312L192.93122141033268 102.4276691539154L193.07802830606556 102.41740332673645L193.22519369393444 102.41740332673645L193.37200058966732 102.4276691539154L193.51773378223038 102.44815050195312L193.66168323129273 102.47874795030212L193.80314770310974 102.51931224893188L193.94143792956925 102.56964574884033L194.07588019937134 102.62950335572815L194.20581951707459 102.69859324525451L194.33062282174683 102.77657900880432L194.44968214601136 102.86308072637176L194.56241741746521 102.9576767546997L194.66827931970215 103.05990646909332L194.76675215333557 103.16927169393158L194.85735622018433 103.28523956369018L194.93965008824921 103.40724514554596L195.01323273748017 103.53469418119049L195.07774582475281 103.66696553062057L195.13287487596131 103.80341492723083L195.17835155099488 103.9433774812088L195.21395412057495 104.08617143462753L195.23950901597595 104.23110105227089L195.26002803414917 104.524536" stroke="#000000" stroke-width="0.018813356487011844" stroke-linecap="round" stroke-linejoin="round" fill="none"/>
            <path d="M113.252701 104.52441399999999L113.24782915475464 104.66392694124126L113.2332371032486 104.80276021071815L113.20899625184632 104.94023737021827L113.17522437932587 105.07568871685409L113.13208623292542 105.20845430799865L113.07979185941315 105.33788728424453L113.01859612825012 105.46335714765929L112.94879718186951 105.58425253340148L112.8707350051651 105.69998448797607L112.78478987577057 105.80998927065276L112.69138057592011 105.91373079725646L112.59096224668122 106.01070362039947L112.48402400376892 106.10043555208587L112.37108679177857 106.18248909422302L112.252701 106.25646477648162L112.12944330337143 106.32200210997009L112.00191415908432 106.3787817330017L111.8707350051651 106.42652708002471L111.73654480340576 106.46500545450591L111.59999735715485 106.49402945944213L111.46175792875385 106.51345783182525L111.3224999910841 106.52319568106078L111.1829020089159 106.52319568106078L111.04364407124615 106.51345783182525L110.90540464284516 106.49402945944213L110.76885719659424 106.46500545450591L110.6346669948349 106.42652708002471L110.50348784091568 106.3787817330017L110.37595869662857 106.32200210997009L110.252701 106.25646477648162L110.13431520822144 106.18248909422302L110.02137799623108 106.10043555208587L109.91443975331879 106.01070362039947L109.8140214240799 105.91373079725646L109.72061212422943 105.80998927065276L109.6346669948349 105.69998448797607L109.5566048181305 105.58425253340148L109.48680587174988 105.46335714765929L109.42561014058685 105.33788728424453L109.37331576707459 105.20845430799865L109.33017762067414 105.07568871685409L109.29640574815369 104.94023737021827L109.27216489675141 104.80276021071815L109.25757284524536 104.66392694124126L109.252701 104.52441399999999L109.25757284524536 104.38490105875873L109.27216489675141 104.24606778928184L109.29640574815369 104.10859062978172L109.33017762067414 103.9731392831459L109.37331576707459 103.84037369200134L109.42561014058685 103.71094071575546L109.48680587174988 103.58547085234069L109.5566048181305 103.4645754665985L109.6346669948349 103.34884351202392L109.72061212422943 103.23883872934722L109.8140214240799 103.13509720274352L109.91443975331879 103.03812437960052L110.02137799623108 102.94839244791412L110.13431520822144 102.86633890577697L110.252701 102.79236322351836L110.37595869662857 102.7268258900299L110.50348784091568 102.67004626699828L110.6346669948349 102.62230091997527L110.76885719659424 102.58382254549407L110.90540464284516 102.55479854055785L111.04364407124615 102.53537016817474L111.1829020089159 102.5256323189392L111.3224999910841 102.5256323189392L111.46175792875385 102.53537016817474L111.59999735715485 102.55479854055785L111.73654480340576 102.58382254549407L111.8707350051651 102.62230091997527L112.00191415908432 102.67004626699828L112.12944330337143 102.7268258900299L112.252701 102.79236322351836L112.37108679177857 102.86633890577697L112.48402400376892 102.94839244791412L112.59096224668122 103.03812437960052L112.69138057592011 103.13509720274352L112.78478987577057 103.23883872934722L112.8707350051651 103.34884351202392L112.94879718186951 103.4645754665985L113.01859612825012 103.58547085234069L113.07979185941315 103.71094071575546L113.13208623292542 103.84037369200134L113.17522437932587 103.9731392831459L113.20899625184632 104.10859062978172L113.2332371032486 104.24606778928184L113.252701 104.52441399999999" stroke="#000000" stroke-width="0.018813356487011844" stroke-linecap="round" stroke-linejoin="round" fill="none"/>
            <path d="M159.75637800000001 101.62439000000001L159.75637800000001 108.52441399999999" stroke="#000000" stroke-width="0.018813356487011844" stroke-linecap="round" stroke-linejoin="round" fill="none"/>
            <path d="M154.756393 101.62439000000001L159.75637800000001 101.62439000000001" stroke="#000000" stroke-width="0.018813356487011844" stroke-linecap="round" stroke-linejoin="round" fill="none"/>
            <path d="M154.75637800000001 108.52441399999999L154.756393 101.62439000000001" stroke="#000000" stroke-width="0.018813356487011844" stroke-linecap="round" stroke-linejoin="round" fill="none"/>
            <path d="M149.756393 101.38537599999999L149.75637800000001 108.2854" stroke="#000000" stroke-width="0.018813356487011844" stroke-linecap="round" stroke-linejoin="round" fill="none"/>
            <path d="M144.75637800000001 101.38537599999999L149.756393 101.38537599999999" stroke="#000000" stroke-width="0.018813356487011844" stroke-linecap="round" stroke-linejoin="round" fill="none"/>
            <path d="M144.75637800000001 108.2854L144.75637800000001 101.38537599999999" stroke="#000000" stroke-width="0.018813356487011844" stroke-linecap="round" stroke-linejoin="round" fill="none"/>
            <path d="M154.75637800000001 108.52441399999999L159.75637800000001 108.52441399999999" stroke="#000000" stroke-width="0.018813356487011844" stroke-linecap="round" stroke-linejoin="round" fill="none"/>
            <path d="M144.75637800000001 108.2854L149.75637800000001 108.2854" stroke="#000000" stroke-width="0.018813356487011844" stroke-linecap="round" stroke-linejoin="round" fill="none"/>
    </g>
</g>
</svg>