<!--version="1.0" standalone="no"--><!DOCTYPE html PUBLIC "-//W3C//DTD SVG 1.0//EN" "http://www.w3.org/TR/2001/REC-SVG-20010904/DTD/svg10.dtd"><svg xmlns="http://www.w3.org/2000/svg" xmlns:xlink="http://www.w3.org/1999/xlink" id="body_-977859198_9621" width="19360.744140625" height="10607.9296875" preserveAspectRatio="xMidYMid meet" zoomAndPan="magnify" version="1.0" contentScriptType="text/ecmascript" contentStyleType="text/css">

<g transform="matrix(95.500796907116154 0 0 -95.500796907116154 50.33873042706 10580.3489195765)">
    <g>
            <path d="M201.674408 110.499268L95.325607000000005 110.499268" stroke="#000000" stroke-width="0.018886416852649992" stroke-linecap="round" stroke-linejoin="round" fill="none"/>
            <path d="M201.674408 99.500731999999999L201.674408 110.499268" stroke="#000000" stroke-width="0.018886416852649992" stroke-linecap="round" stroke-linejoin="round" fill="none"/>
            <path d="M95.325607000000005 110.499268L95.325607000000005 99.500731999999999" stroke="#000000" stroke-width="0.018886416852649992" stroke-linecap="round" stroke-linejoin="round" fill="none"/>
            <path d="M95.325607000000005 99.500731999999999L201.674408 99.500731999999999" stroke="#000000" stroke-width="0.018886416852649992" stroke-linecap="round" stroke-linejoin="round" fill="none"/>
            <path d="M108.2690451018219 104.562378L108.26408766430664 104.70433814404296L108.24923990887451 104.8456066953926L108.22457371872711 104.98549536941337L108.19020949524689 105.12332267639923L108.14631460827637 105.25841708061981L108.0931030384903 105.39012045738983L108.03083382767487 105.51779116270828L107.95981048268128 105.64080722210693L107.8803789488678 105.75856919167327L107.79292629879761 105.87050361511993L107.69787858647156 105.97606487152862L107.59569870156098 106.07473869202423L107.4868847004776 106.16604454396057L107.37196646851349 106.24953753826904L107.25150405091095 106.3248108136444L107.1260842553978 106.39149768231201L106.99631814879227 106.44927329895782L106.8628379575615 106.49785609123992L106.72629390877533 106.53700942871856L106.58735130947876 106.56654269573974L106.44668700021553 106.58631164906311L106.30498633754301 106.59622032521057L106.16293966245699 106.59622032521057L106.02123899978447 106.58631164906311L105.88057469052124 106.56654269573974L105.74163209122467 106.53700942871856L105.60508804243851 106.49785609123992L105.47160785120774 106.44927329895782L105.34184174460221 106.39149768231201L105.21642194908905 106.3248108136444L105.09595953148651 106.24953753826904L104.9810412995224 106.16604454396057L104.87222729843903 106.07473869202423L104.77004741352845 105.97606487152862L104.6749997012024 105.87050361511993L104.5875470511322 105.75856919167327L104.50811551731873 105.64080722210693L104.43709217232514 105.51779116270828L104.37482296150971 105.39012045738983L104.32161139172364 105.25841708061981L104.27771650475312 105.12332267639923L104.24335228127289 104.98549536941337L104.21868609112549 104.8456066953926L104.20383833569336 104.70433814404296L104.1988808981781 104.562378L104.20383833569336 104.42041785595703L104.21868609112549 104.27914930460739L104.24335228127289 104.13926063058662L104.27771650475312 104.00143332360076L104.32161139172364 103.86633891938018L104.37482296150971 103.73463554261016L104.43709217232514 103.60696483729171L104.50811551731873 103.48394877789306L104.5875470511322 103.36618680832672L104.6749997012024 103.25425238488006L104.77004741352845 103.14869112847137L104.87222729843903 103.05001730797576L104.9810412995224 102.95871145603942L105.09595953148651 102.87521846173095L105.21642194908905 102.79994518635559L105.34184174460221 102.73325831768798L105.47160785120774 102.67548270104217L105.60508804243851 102.62689990876007L105.74163209122467 102.58774657128143L105.88057469052124 102.55821330426025L106.02123899978447 102.53844435093689L106.16293966245699 102.52853567478942L106.30498633754301 102.52853567478942L106.44668700021553 102.53844435093689L106.58735130947876 102.55821330426025L106.72629390877533 102.58774657128143L106.8628379575615 102.62689990876007L106.99631814879227 102.67548270104217L107.1260842553978 102.73325831768798L107.25150405091095 102.79994518635559L107.37196646851349 102.87521846173095L107.4868847004776 102.95871145603942L107.59569870156098 103.05001730797576L107.69787858647156 103.14869112847137L107.79292629879761 103.25425238488006L107.8803789488678 103.36618680832672L107.95981048268128 103.48394877789306L108.03083382767487 103.60696483729171L108.0931030384903 103.73463554261016L108.14631460827637 103.86633891938018L108.19020949524689 104.00143332360076L108.22457371872711 104.13926063058662L108.24923990887451 104.27914930460739L108.2690451018219 104.562378" stroke="#000000" stroke-width="0.018886416852649992" stroke-linecap="round" stroke-linejoin="round" fill="none"/>
            <path d="M190.27615399999999 104.562256L190.27128215475463 104.70176894124127L190.25669010324859 104.84060221071816L190.2324492518463 104.97807937021828L190.19867737932586 105.1135307168541L190.15553923292541 105.24629630799866L190.10324485941314 105.37572928424454L190.04204912825011 105.50119914765931L189.9722501818695 105.62209453340149L189.89418800516509 105.73782648797608L189.80824287577056 105.84783127065278L189.7148335759201 105.95157279725647L189.6144152466812 106.04854562039948L189.50747700376891 106.13827755208588L189.39453979177856 106.22033109422303L189.27615399999999 106.29430677648163L189.15289630337142 106.3598441099701L189.02536715908431 106.41662373300171L188.89418800516509 106.46436908002472L188.75999780340575 106.50284745450593L188.62345035715484 106.53187145944214L188.48521092875384 106.55129983182526L188.34595299108409 106.5610376810608L188.20635500891589 106.5610376810608L188.06709707124614 106.55129983182526L187.92885764284514 106.53187145944214L187.79231019659423 106.50284745450593L187.65811999483489 106.46436908002472L187.52694084091567 106.41662373300171L187.39941169662856 106.3598441099701L187.27615399999999 106.29430677648163L187.15776820822143 106.22033109422303L187.04483099623107 106.13827755208588L186.93789275331878 106.04854562039948L186.83747442407989 105.95157279725647L186.74406512422942 105.84783127065278L186.65811999483489 105.73782648797608L186.58005781813048 105.62209453340149L186.51025887174987 105.50119914765931L186.44906314058684 105.37572928424454L186.39676876707458 105.24629630799866L186.35363062067412 105.1135307168541L186.31985874815368 104.97807937021828L186.29561789675139 104.84060221071816L186.28102584524535 104.70176894124127L186.27615399999999 104.562256L186.28102584524535 104.42274305875874L186.29561789675139 104.28390978928185L186.31985874815368 104.14643262978173L186.35363062067412 104.01098128314591L186.39676876707458 103.87821569200135L186.44906314058684 103.74878271575547L186.51025887174987 103.6233128523407L186.58005781813048 103.50241746659852L186.65811999483489 103.38668551202393L186.74406512422942 103.27668072934723L186.83747442407989 103.17293920274354L186.93789275331878 103.07596637960053L187.04483099623107 102.98623444791413L187.15776820822143 102.90418090577698L187.27615399999999 102.83020522351838L187.39941169662856 102.76466789002991L187.52694084091567 102.7078882669983L187.65811999483489 102.66014291997529L187.79231019659423 102.62166454549408L187.92885764284514 102.59264054055787L188.06709707124614 102.57321216817475L188.20635500891589 102.56347431893921L188.34595299108409 102.56347431893921L188.48521092875384 102.57321216817475L188.62345035715484 102.59264054055787L188.75999780340575 102.62166454549408L188.89418800516509 102.66014291997529L189.02536715908431 102.7078882669983L189.15289630337142 102.76466789002991L189.27615399999999 102.83020522351838L189.39453979177856 102.90418090577698L189.50747700376891 102.98623444791413L189.6144152466812 103.07596637960053L189.7148335759201 103.17293920274354L189.80824287577056 103.27668072934723L189.89418800516509 103.38668551202393L189.9722501818695 103.50241746659852L190.04204912825011 103.6233128523407L190.10324485941314 103.74878271575547L190.15553923292541 103.87821569200135L190.19867737932586 104.01098128314591L190.2324492518463 104.14643262978173L190.25669010324859 104.28390978928185L190.27615399999999 104.562256" stroke="#000000" stroke-width="0.018886416852649992" stroke-linecap="round" stroke-linejoin="round" fill="none"/>
            <path d="M149.87257399999999 101.95910600000001L154.77256800000001 101.95910600000001" stroke="#000000" stroke-width="0.018886416852649992" stroke-linecap="round" stroke-linejoin="round" fill="none"/>
            <path d="M154.77256800000001 101.95910600000001L154.772583 108.95910600000001" stroke="#000000" stroke-width="0.018886416852649992" stroke-linecap="round" stroke-linejoin="round" fill="none"/>
            <path d="M154.772583 108.95910600000001L149.87257399999999 108.95910600000001" stroke="#000000" stroke-width="0.018886416852649992" stroke-linecap="round" stroke-linejoin="round" fill="none"/>
            <path d="M139.87257399999999 101.95910600000001L144.77256800000001 101.95910600000001" stroke="#000000" stroke-width="0.018886416852649992" stroke-linecap="round" stroke-linejoin="round" fill="none"/>
            <path d="M144.772583 108.95910600000001L144.77256800000001 101.95910600000001" stroke="#000000" stroke-width="0.018886416852649992" stroke-linecap="round" stroke-linejoin="round" fill="none"/>
            <path d="M144.772583 108.95910600000001L139.87257399999999 108.95910600000001" stroke="#000000" stroke-width="0.018886416852649992" stroke-linecap="round" stroke-linejoin="round" fill="none"/>
            <path d="M149.87257399999999 101.95910600000001L149.87257399999999 108.95910600000001" stroke="#000000" stroke-width="0.018886416852649992" stroke-linecap="round" stroke-linejoin="round" fill="none"/>
            <path d="M139.87257399999999 101.95910600000001L139.87257399999999 108.95910600000001" stroke="#000000" stroke-width="0.018886416852649992" stroke-linecap="round" stroke-linejoin="round" fill="none"/>
    </g>
</g>
</svg>