solid CATIA STL
  facet normal  0.000000e+000  0.000000e+000 -1.000000e+000
    outer loop
      vertex  1.400000e+001 -1.000000e+000  0.000000e+000
      vertex  1.499228e+001 -1.240350e-001  0.000000e+000
      vertex  1.466180e+001 -7.496783e-001  0.000000e+000
    endloop
  endfacet
  facet normal  0.000000e+000  0.000000e+000 -1.000000e+000
    outer loop
      vertex  1.499228e+001 -1.240350e-001  0.000000e+000
      vertex  1.400000e+001 -1.000000e+000  0.000000e+000
      vertex  1.400000e+001  0.000000e+000  0.000000e+000
    endloop
  endfacet
  facet normal  0.000000e+000  -0.000000e+000 -1.000000e+000
    outer loop
      vertex  1.400000e+001  0.000000e+000  0.000000e+000
      vertex  1.400000e+001 -1.000000e+000  0.000000e+000
      vertex  8.881784e-016 -1.000000e+000  0.000000e+000
    endloop
  endfacet
  facet normal  0.000000e+000  0.000000e+000 -1.000000e+000
    outer loop
      vertex  1.400000e+001  0.000000e+000  0.000000e+000
      vertex  8.881784e-016 -1.000000e+000  0.000000e+000
      vertex  6.661338e-016  0.000000e+000  0.000000e+000
    endloop
  endfacet
  facet normal  0.000000e+000  -0.000000e+000 -1.000000e+000
    outer loop
      vertex  6.661338e-016  0.000000e+000  0.000000e+000
      vertex  8.881784e-016 -1.000000e+000  0.000000e+000
      vertex -6.618026e-001 -7.496781e-001  0.000000e+000
    endloop
  endfacet
  facet normal  0.000000e+000  0.000000e+000 -1.000000e+000
    outer loop
      vertex  6.661338e-016  0.000000e+000  0.000000e+000
      vertex -6.618026e-001 -7.496781e-001  0.000000e+000
      vertex -9.922779e-001 -1.240344e-001  0.000000e+000
    endloop
  endfacet
  facet normal  0.000000e+000  -0.000000e+000 -1.000000e+000
    outer loop
      vertex  1.500000e+001  8.000000e+000  0.000000e+000
      vertex  1.553546e+001  8.844562e+000  0.000000e+000
      vertex  1.590446e+001  8.426568e+000  0.000000e+000
    endloop
  endfacet
  facet normal  0.000000e+000  0.000000e+000 -1.000000e+000
    outer loop
      vertex  1.553546e+001  8.844562e+000  0.000000e+000
      vertex  1.500000e+001  8.000000e+000  0.000000e+000
      vertex  1.500000e+001  9.000000e+000  0.000000e+000
    endloop
  endfacet
  facet normal  0.000000e+000  -0.000000e+000 -1.000000e+000
    outer loop
      vertex  1.500000e+001  9.000000e+000  0.000000e+000
      vertex  1.500000e+001  8.000000e+000  0.000000e+000
      vertex -9.999977e-001  8.000000e+000  0.000000e+000
    endloop
  endfacet
  facet normal  0.000000e+000  0.000000e+000 -1.000000e+000
    outer loop
      vertex  1.500000e+001  9.000000e+000  0.000000e+000
      vertex -9.999977e-001  8.000000e+000  0.000000e+000
      vertex -9.999977e-001  9.000000e+000  0.000000e+000
    endloop
  endfacet
  facet normal  0.000000e+000  -0.000000e+000 -1.000000e+000
    outer loop
      vertex -9.999977e-001  9.000000e+000  0.000000e+000
      vertex -9.999977e-001  8.000000e+000  0.000000e+000
      vertex -1.904453e+000  8.426569e+000  0.000000e+000
    endloop
  endfacet
  facet normal  0.000000e+000  0.000000e+000 -1.000000e+000
    outer loop
      vertex -9.999977e-001  9.000000e+000  0.000000e+000
      vertex -1.904453e+000  8.426569e+000  0.000000e+000
      vertex -1.535456e+000  8.844562e+000  0.000000e+000
    endloop
  endfacet
  facet normal  -0.000000e+000  0.000000e+000 -1.000000e+000
    outer loop
      vertex -1.904453e+000  8.426569e+000  0.000000e+000
      vertex -9.999977e-001  8.000000e+000  0.000000e+000
      vertex -1.992276e+000  7.875966e+000  0.000000e+000
    endloop
  endfacet
  facet normal  0.000000e+000  0.000000e+000 -1.000000e+000
    outer loop
      vertex -1.992276e+000  7.875966e+000  0.000000e+000
      vertex -9.999977e-001  8.000000e+000  0.000000e+000
      vertex  6.661338e-016  0.000000e+000  0.000000e+000
    endloop
  endfacet
  facet normal  -0.000000e+000  0.000000e+000 -1.000000e+000
    outer loop
      vertex -1.992276e+000  7.875966e+000  0.000000e+000
      vertex  6.661338e-016  0.000000e+000  0.000000e+000
      vertex -9.922779e-001 -1.240344e-001  0.000000e+000
    endloop
  endfacet
  facet normal  0.000000e+000  0.000000e+000 -1.000000e+000
    outer loop
      vertex  1.590446e+001  8.426568e+000  0.000000e+000
      vertex  1.599228e+001  7.875965e+000  0.000000e+000
      vertex  1.500000e+001  8.000000e+000  0.000000e+000
    endloop
  endfacet
  facet normal  0.000000e+000  -0.000000e+000 -1.000000e+000
    outer loop
      vertex  1.500000e+001  8.000000e+000  0.000000e+000
      vertex  1.599228e+001  7.875965e+000  0.000000e+000
      vertex  1.499228e+001 -1.240350e-001  0.000000e+000
    endloop
  endfacet
  facet normal  0.000000e+000  0.000000e+000 -1.000000e+000
    outer loop
      vertex  1.500000e+001  8.000000e+000  0.000000e+000
      vertex  1.499228e+001 -1.240350e-001  0.000000e+000
      vertex  1.400000e+001  0.000000e+000  0.000000e+000
    endloop
  endfacet
  facet normal  0.000000e+000  1.000000e+000  0.000000e+000
    outer loop
      vertex -9.999977e-001  9.000000e+000  7.000000e+000
      vertex  1.500000e+001  9.000000e+000  7.000000e+000
      vertex -9.999977e-001  9.000000e+000  0.000000e+000
    endloop
  endfacet
  facet normal  0.000000e+000  1.000000e+000  0.000000e+000
    outer loop
      vertex -9.999977e-001  9.000000e+000  0.000000e+000
      vertex  1.500000e+001  9.000000e+000  7.000000e+000
      vertex  1.500000e+001  9.000000e+000  0.000000e+000
    endloop
  endfacet
  facet normal -9.922779e-001 -1.240344e-001  0.000000e+000
    outer loop
      vertex -9.922779e-001 -1.240344e-001  7.000000e+000
      vertex -1.992276e+000  7.875966e+000  7.000000e+000
      vertex -9.922779e-001 -1.240344e-001  0.000000e+000
    endloop
  endfacet
  facet normal -9.922779e-001 -1.240344e-001  0.000000e+000
    outer loop
      vertex -9.922779e-001 -1.240344e-001  0.000000e+000
      vertex -1.992276e+000  7.875966e+000  7.000000e+000
      vertex -1.992276e+000  7.875966e+000  0.000000e+000
    endloop
  endfacet
  facet normal  0.000000e+000  0.000000e+000 -1.000000e+000
    outer loop
      vertex -1.992276e+000  7.875966e+000  7.000000e+000
      vertex -2.558666e+000  8.375965e+000  7.000000e+000
      vertex -1.904453e+000  8.426569e+000  7.000000e+000
    endloop
  endfacet
  facet normal  -0.000000e+000  0.000000e+000 -1.000000e+000
    outer loop
      vertex -1.904453e+000  8.426569e+000  7.000000e+000
      vertex -2.558666e+000  8.375965e+000  7.000000e+000
      vertex -2.470844e+000  8.926569e+000  7.000000e+000
    endloop
  endfacet
  facet normal  0.000000e+000  0.000000e+000 -1.000000e+000
    outer loop
      vertex -1.904453e+000  8.426569e+000  7.000000e+000
      vertex -2.470844e+000  8.926569e+000  7.000000e+000
      vertex -1.535456e+000  8.844562e+000  7.000000e+000
    endloop
  endfacet
  facet normal  0.000000e+000  0.000000e+000 -1.000000e+000
    outer loop
      vertex -1.535456e+000  8.844562e+000  7.000000e+000
      vertex -2.470844e+000  8.926569e+000  7.000000e+000
      vertex -2.101847e+000  9.344562e+000  7.000000e+000
    endloop
  endfacet
  facet normal  0.000000e+000  0.000000e+000 -1.000000e+000
    outer loop
      vertex -1.535456e+000  8.844562e+000  7.000000e+000
      vertex -2.101847e+000  9.344562e+000  7.000000e+000
      vertex -9.999977e-001  9.000000e+000  7.000000e+000
    endloop
  endfacet
  facet normal  0.000000e+000  0.000000e+000 -1.000000e+000
    outer loop
      vertex -9.999977e-001  9.000000e+000  7.000000e+000
      vertex -2.101847e+000  9.344562e+000  7.000000e+000
      vertex -1.566389e+000  9.500000e+000  7.000000e+000
    endloop
  endfacet
  facet normal  0.000000e+000  0.000000e+000 -1.000000e+000
    outer loop
      vertex -9.999977e-001  9.000000e+000  7.000000e+000
      vertex -1.566389e+000  9.500000e+000  7.000000e+000
      vertex  1.500000e+001  9.000000e+000  7.000000e+000
    endloop
  endfacet
  facet normal  0.000000e+000  0.000000e+000 -1.000000e+000
    outer loop
      vertex  1.500000e+001  9.000000e+000  7.000000e+000
      vertex -1.566389e+000  9.500000e+000  7.000000e+000
      vertex  1.556639e+001  9.500000e+000  7.000000e+000
    endloop
  endfacet
  facet normal  0.000000e+000  -0.000000e+000 -1.000000e+000
    outer loop
      vertex  1.500000e+001  9.000000e+000  7.000000e+000
      vertex  1.556639e+001  9.500000e+000  7.000000e+000
      vertex  1.610185e+001  9.344562e+000  7.000000e+000
    endloop
  endfacet
  facet normal  0.000000e+000  0.000000e+000 -1.000000e+000
    outer loop
      vertex  1.599228e+001  7.875965e+000  7.000000e+000
      vertex  1.590446e+001  8.426568e+000  7.000000e+000
      vertex  1.655867e+001  8.375965e+000  7.000000e+000
    endloop
  endfacet
  facet normal  0.000000e+000  0.000000e+000 -1.000000e+000
    outer loop
      vertex  1.655867e+001  8.375965e+000  7.000000e+000
      vertex  1.590446e+001  8.426568e+000  7.000000e+000
      vertex  1.553546e+001  8.844562e+000  7.000000e+000
    endloop
  endfacet
  facet normal  0.000000e+000  0.000000e+000 -1.000000e+000
    outer loop
      vertex  1.655867e+001  8.375965e+000  7.000000e+000
      vertex  1.553546e+001  8.844562e+000  7.000000e+000
      vertex  1.647085e+001  8.926568e+000  7.000000e+000
    endloop
  endfacet
  facet normal  -0.000000e+000  0.000000e+000 -1.000000e+000
    outer loop
      vertex  1.647085e+001  8.926568e+000  7.000000e+000
      vertex  1.553546e+001  8.844562e+000  7.000000e+000
      vertex  1.500000e+001  9.000000e+000  7.000000e+000
    endloop
  endfacet
  facet normal  0.000000e+000  0.000000e+000 -9.999999e-001
    outer loop
      vertex  1.647085e+001  8.926568e+000  7.000000e+000
      vertex  1.500000e+001  9.000000e+000  7.000000e+000
      vertex  1.610185e+001  9.344562e+000  7.000000e+000
    endloop
  endfacet
  facet normal  0.000000e+000  0.000000e+000 -1.000000e+000
    outer loop
      vertex -9.922779e-001 -1.240344e-001  7.000000e+000
      vertex -6.618026e-001 -7.496781e-001  7.000000e+000
      vertex -1.433669e+000 -6.240345e-001  7.000000e+000
    endloop
  endfacet
  facet normal  0.000000e+000  0.000000e+000 -1.000000e+000
    outer loop
      vertex -1.433669e+000 -6.240345e-001  7.000000e+000
      vertex -6.618026e-001 -7.496781e-001  7.000000e+000
      vertex -1.776357e-015 -1.000000e+000  7.000000e+000
    endloop
  endfacet
  facet normal  -0.000000e+000  0.000000e+000 -1.000000e+000
    outer loop
      vertex -1.433669e+000 -6.240345e-001  7.000000e+000
      vertex -1.776357e-015 -1.000000e+000  7.000000e+000
      vertex -1.103194e+000 -1.249678e+000  7.000000e+000
    endloop
  endfacet
  facet normal  0.000000e+000  0.000000e+000 -9.999999e-001
    outer loop
      vertex -1.103194e+000 -1.249678e+000  7.000000e+000
      vertex -1.776357e-015 -1.000000e+000  7.000000e+000
      vertex  1.400000e+001 -1.000000e+000  7.000000e+000
    endloop
  endfacet
  facet normal  0.000000e+000  0.000000e+000 -1.000000e+000
    outer loop
      vertex -1.103194e+000 -1.249678e+000  7.000000e+000
      vertex  1.400000e+001 -1.000000e+000  7.000000e+000
      vertex -4.413912e-001 -1.500000e+000  7.000000e+000
    endloop
  endfacet
  facet normal  0.000000e+000  0.000000e+000 -1.000000e+000
    outer loop
      vertex -4.413912e-001 -1.500000e+000  7.000000e+000
      vertex  1.400000e+001 -1.000000e+000  7.000000e+000
      vertex  1.510319e+001 -1.249678e+000  7.000000e+000
    endloop
  endfacet
  facet normal  0.000000e+000  0.000000e+000 -1.000000e+000
    outer loop
      vertex -4.413912e-001 -1.500000e+000  7.000000e+000
      vertex  1.510319e+001 -1.249678e+000  7.000000e+000
      vertex  1.444139e+001 -1.500000e+000  7.000000e+000
    endloop
  endfacet
  facet normal  0.000000e+000  0.000000e+000 -1.000000e+000
    outer loop
      vertex -9.922779e-001 -1.240344e-001  7.000000e+000
      vertex -1.433669e+000 -6.240345e-001  7.000000e+000
      vertex -1.992276e+000  7.875966e+000  7.000000e+000
    endloop
  endfacet
  facet normal  -0.000000e+000  -0.000000e+000 -1.000000e+000
    outer loop
      vertex -1.992276e+000  7.875966e+000  7.000000e+000
      vertex -1.433669e+000 -6.240345e-001  7.000000e+000
      vertex -2.558666e+000  8.375965e+000  7.000000e+000
    endloop
  endfacet
  facet normal  0.000000e+000  -0.000000e+000 -1.000000e+000
    outer loop
      vertex  1.466180e+001 -7.496783e-001  7.000000e+000
      vertex  1.499228e+001 -1.240350e-001  7.000000e+000
      vertex  1.543367e+001 -6.240350e-001  7.000000e+000
    endloop
  endfacet
  facet normal  0.000000e+000  0.000000e+000 -1.000000e+000
    outer loop
      vertex  1.543367e+001 -6.240350e-001  7.000000e+000
      vertex  1.499228e+001 -1.240350e-001  7.000000e+000
      vertex  1.599228e+001  7.875965e+000  7.000000e+000
    endloop
  endfacet
  facet normal  0.000000e+000  -0.000000e+000 -1.000000e+000
    outer loop
      vertex  1.543367e+001 -6.240350e-001  7.000000e+000
      vertex  1.599228e+001  7.875965e+000  7.000000e+000
      vertex  1.655867e+001  8.375965e+000  7.000000e+000
    endloop
  endfacet
  facet normal  0.000000e+000  0.000000e+000 -1.000000e+000
    outer loop
      vertex  1.466180e+001 -7.496783e-001  7.000000e+000
      vertex  1.543367e+001 -6.240350e-001  7.000000e+000
      vertex  1.400000e+001 -1.000000e+000  7.000000e+000
    endloop
  endfacet
  facet normal  0.000000e+000  0.000000e+000 -1.000000e+000
    outer loop
      vertex  1.400000e+001 -1.000000e+000  7.000000e+000
      vertex  1.543367e+001 -6.240350e-001  7.000000e+000
      vertex  1.510319e+001 -1.249678e+000  7.000000e+000
    endloop
  endfacet
  facet normal -9.875171e-001  1.575118e-001  0.000000e+000
    outer loop
      vertex -1.992276e+000  7.875966e+000  0.000000e+000
      vertex -1.992276e+000  7.875966e+000  7.000000e+000
      vertex -1.904453e+000  8.426569e+000  0.000000e+000
    endloop
  endfacet
  facet normal -9.875171e-001  1.575118e-001  0.000000e+000
    outer loop
      vertex -1.904453e+000  8.426569e+000  0.000000e+000
      vertex -1.992276e+000  7.875966e+000  7.000000e+000
      vertex -1.904453e+000  8.426569e+000  7.000000e+000
    endloop
  endfacet
  facet normal -7.496778e-001  6.618028e-001  0.000000e+000
    outer loop
      vertex -1.904453e+000  8.426569e+000  0.000000e+000
      vertex -1.904453e+000  8.426569e+000  7.000000e+000
      vertex -1.535456e+000  8.844562e+000  0.000000e+000
    endloop
  endfacet
  facet normal -7.496778e-001  6.618028e-001  0.000000e+000
    outer loop
      vertex -1.535456e+000  8.844562e+000  0.000000e+000
      vertex -1.904453e+000  8.426569e+000  7.000000e+000
      vertex -1.535456e+000  8.844562e+000  7.000000e+000
    endloop
  endfacet
  facet normal -2.787817e-001  9.603545e-001  0.000000e+000
    outer loop
      vertex -1.535456e+000  8.844562e+000  0.000000e+000
      vertex -1.535456e+000  8.844562e+000  7.000000e+000
      vertex -9.999977e-001  9.000000e+000  0.000000e+000
    endloop
  endfacet
  facet normal -2.787817e-001  9.603545e-001  0.000000e+000
    outer loop
      vertex -9.999977e-001  9.000000e+000  0.000000e+000
      vertex -1.535456e+000  8.844562e+000  7.000000e+000
      vertex -9.999977e-001  9.000000e+000  7.000000e+000
    endloop
  endfacet
  facet normal  -0.000000e+000  0.000000e+000  1.000000e+000
    outer loop
      vertex  1.556639e+001  9.500000e+000  8.000000e+000
      vertex -1.566389e+000  9.500000e+000  8.000000e+000
      vertex  1.610185e+001  9.344562e+000  8.000000e+000
    endloop
  endfacet
  facet normal  0.000000e+000  0.000000e+000  1.000000e+000
    outer loop
      vertex  1.610185e+001  9.344562e+000  8.000000e+000
      vertex -1.566389e+000  9.500000e+000  8.000000e+000
      vertex -2.101847e+000  9.344562e+000  8.000000e+000
    endloop
  endfacet
  facet normal  -0.000000e+000  0.000000e+000  1.000000e+000
    outer loop
      vertex  1.610185e+001  9.344562e+000  8.000000e+000
      vertex -2.101847e+000  9.344562e+000  8.000000e+000
      vertex  1.647085e+001  8.926568e+000  8.000000e+000
    endloop
  endfacet
  facet normal  0.000000e+000  0.000000e+000  1.000000e+000
    outer loop
      vertex  1.647085e+001  8.926568e+000  8.000000e+000
      vertex -2.101847e+000  9.344562e+000  8.000000e+000
      vertex -2.470844e+000  8.926569e+000  8.000000e+000
    endloop
  endfacet
  facet normal  0.000000e+000  0.000000e+000  1.000000e+000
    outer loop
      vertex  1.647085e+001  8.926568e+000  8.000000e+000
      vertex -2.470844e+000  8.926569e+000  8.000000e+000
      vertex  1.655867e+001  8.375965e+000  8.000000e+000
    endloop
  endfacet
  facet normal  0.000000e+000  0.000000e+000  1.000000e+000
    outer loop
      vertex  1.655867e+001  8.375965e+000  8.000000e+000
      vertex -2.470844e+000  8.926569e+000  8.000000e+000
      vertex -2.558666e+000  8.375965e+000  8.000000e+000
    endloop
  endfacet
  facet normal  -0.000000e+000  0.000000e+000  1.000000e+000
    outer loop
      vertex  1.655867e+001  8.375965e+000  8.000000e+000
      vertex -2.558666e+000  8.375965e+000  8.000000e+000
      vertex  1.543367e+001 -6.240350e-001  8.000000e+000
    endloop
  endfacet
  facet normal  0.000000e+000  0.000000e+000  1.000000e+000
    outer loop
      vertex  1.543367e+001 -6.240350e-001  8.000000e+000
      vertex -2.558666e+000  8.375965e+000  8.000000e+000
      vertex -1.433669e+000 -6.240345e-001  8.000000e+000
    endloop
  endfacet
  facet normal  0.000000e+000  0.000000e+000  1.000000e+000
    outer loop
      vertex  1.543367e+001 -6.240350e-001  8.000000e+000
      vertex -1.433669e+000 -6.240345e-001  8.000000e+000
      vertex  1.510319e+001 -1.249678e+000  8.000000e+000
    endloop
  endfacet
  facet normal  0.000000e+000  0.000000e+000  1.000000e+000
    outer loop
      vertex  1.510319e+001 -1.249678e+000  8.000000e+000
      vertex -1.433669e+000 -6.240345e-001  8.000000e+000
      vertex -1.103194e+000 -1.249678e+000  8.000000e+000
    endloop
  endfacet
  facet normal  0.000000e+000  0.000000e+000  1.000000e+000
    outer loop
      vertex  1.510319e+001 -1.249678e+000  8.000000e+000
      vertex -1.103194e+000 -1.249678e+000  8.000000e+000
      vertex  1.444139e+001 -1.500000e+000  8.000000e+000
    endloop
  endfacet
  facet normal  0.000000e+000  0.000000e+000  1.000000e+000
    outer loop
      vertex  1.444139e+001 -1.500000e+000  8.000000e+000
      vertex -1.103194e+000 -1.249678e+000  8.000000e+000
      vertex -4.413912e-001 -1.500000e+000  8.000000e+000
    endloop
  endfacet
  facet normal  0.000000e+000  1.000000e+000  0.000000e+000
    outer loop
      vertex -1.566389e+000  9.500000e+000  7.000000e+000
      vertex -1.566389e+000  9.500000e+000  8.000000e+000
      vertex  1.556639e+001  9.500000e+000  7.000000e+000
    endloop
  endfacet
  facet normal  0.000000e+000  1.000000e+000  -0.000000e+000
    outer loop
      vertex  1.556639e+001  9.500000e+000  7.000000e+000
      vertex -1.566389e+000  9.500000e+000  8.000000e+000
      vertex  1.556639e+001  9.500000e+000  8.000000e+000
    endloop
  endfacet
  facet normal -9.922779e-001 -1.240344e-001  -0.000000e+000
    outer loop
      vertex -1.433669e+000 -6.240345e-001  7.000000e+000
      vertex -1.433669e+000 -6.240345e-001  8.000000e+000
      vertex -2.558666e+000  8.375965e+000  7.000000e+000
    endloop
  endfacet
  facet normal -9.922779e-001 -1.240344e-001  0.000000e+000
    outer loop
      vertex -2.558666e+000  8.375965e+000  7.000000e+000
      vertex -1.433669e+000 -6.240345e-001  8.000000e+000
      vertex -2.558666e+000  8.375965e+000  8.000000e+000
    endloop
  endfacet
  facet normal -2.787817e-001  9.603545e-001  0.000000e+000
    outer loop
      vertex -1.566389e+000  9.500000e+000  8.000000e+000
      vertex -1.566389e+000  9.500000e+000  7.000000e+000
      vertex -2.101847e+000  9.344562e+000  8.000000e+000
    endloop
  endfacet
  facet normal -2.787817e-001  9.603545e-001  0.000000e+000
    outer loop
      vertex -2.101847e+000  9.344562e+000  8.000000e+000
      vertex -1.566389e+000  9.500000e+000  7.000000e+000
      vertex -2.101847e+000  9.344562e+000  7.000000e+000
    endloop
  endfacet
  facet normal -7.496778e-001  6.618029e-001  0.000000e+000
    outer loop
      vertex -2.101847e+000  9.344562e+000  8.000000e+000
      vertex -2.101847e+000  9.344562e+000  7.000000e+000
      vertex -2.470844e+000  8.926569e+000  8.000000e+000
    endloop
  endfacet
  facet normal -7.496778e-001  6.618029e-001  0.000000e+000
    outer loop
      vertex -2.470844e+000  8.926569e+000  8.000000e+000
      vertex -2.101847e+000  9.344562e+000  7.000000e+000
      vertex -2.470844e+000  8.926569e+000  7.000000e+000
    endloop
  endfacet
  facet normal -9.875172e-001  1.575114e-001  0.000000e+000
    outer loop
      vertex -2.470844e+000  8.926569e+000  8.000000e+000
      vertex -2.470844e+000  8.926569e+000  7.000000e+000
      vertex -2.558666e+000  8.375965e+000  8.000000e+000
    endloop
  endfacet
  facet normal -9.875172e-001  1.575114e-001  0.000000e+000
    outer loop
      vertex -2.558666e+000  8.375965e+000  8.000000e+000
      vertex -2.470844e+000  8.926569e+000  7.000000e+000
      vertex -2.558666e+000  8.375965e+000  7.000000e+000
    endloop
  endfacet
  facet normal  9.922778e-001 -1.240350e-001  0.000000e+000
    outer loop
      vertex  1.599228e+001  7.875965e+000  7.000000e+000
      vertex  1.499228e+001 -1.240350e-001  7.000000e+000
      vertex  1.599228e+001  7.875965e+000  0.000000e+000
    endloop
  endfacet
  facet normal  9.922778e-001 -1.240350e-001  0.000000e+000
    outer loop
      vertex  1.599228e+001  7.875965e+000  0.000000e+000
      vertex  1.499228e+001 -1.240350e-001  7.000000e+000
      vertex  1.499228e+001 -1.240350e-001  0.000000e+000
    endloop
  endfacet
  facet normal  2.787816e-001  9.603546e-001  0.000000e+000
    outer loop
      vertex  1.500000e+001  9.000000e+000  0.000000e+000
      vertex  1.500000e+001  9.000000e+000  7.000000e+000
      vertex  1.553546e+001  8.844562e+000  0.000000e+000
    endloop
  endfacet
  facet normal  2.787816e-001  9.603546e-001  -0.000000e+000
    outer loop
      vertex  1.553546e+001  8.844562e+000  0.000000e+000
      vertex  1.500000e+001  9.000000e+000  7.000000e+000
      vertex  1.553546e+001  8.844562e+000  7.000000e+000
    endloop
  endfacet
  facet normal  7.496779e-001  6.618029e-001  0.000000e+000
    outer loop
      vertex  1.553546e+001  8.844562e+000  0.000000e+000
      vertex  1.553546e+001  8.844562e+000  7.000000e+000
      vertex  1.590446e+001  8.426568e+000  0.000000e+000
    endloop
  endfacet
  facet normal  7.496779e-001  6.618029e-001  -0.000000e+000
    outer loop
      vertex  1.590446e+001  8.426568e+000  0.000000e+000
      vertex  1.553546e+001  8.844562e+000  7.000000e+000
      vertex  1.590446e+001  8.426568e+000  7.000000e+000
    endloop
  endfacet
  facet normal  9.875174e-001  1.575104e-001  0.000000e+000
    outer loop
      vertex  1.590446e+001  8.426568e+000  0.000000e+000
      vertex  1.590446e+001  8.426568e+000  7.000000e+000
      vertex  1.599228e+001  7.875965e+000  0.000000e+000
    endloop
  endfacet
  facet normal  9.875174e-001  1.575104e-001  -0.000000e+000
    outer loop
      vertex  1.599228e+001  7.875965e+000  0.000000e+000
      vertex  1.590446e+001  8.426568e+000  7.000000e+000
      vertex  1.599228e+001  7.875965e+000  7.000000e+000
    endloop
  endfacet
  facet normal  9.922778e-001 -1.240350e-001  0.000000e+000
    outer loop
      vertex  1.655867e+001  8.375965e+000  7.000000e+000
      vertex  1.655867e+001  8.375965e+000  8.000000e+000
      vertex  1.543367e+001 -6.240350e-001  7.000000e+000
    endloop
  endfacet
  facet normal  9.922778e-001 -1.240350e-001  0.000000e+000
    outer loop
      vertex  1.543367e+001 -6.240350e-001  7.000000e+000
      vertex  1.655867e+001  8.375965e+000  8.000000e+000
      vertex  1.543367e+001 -6.240350e-001  8.000000e+000
    endloop
  endfacet
  facet normal  9.875168e-001  1.575138e-001  -0.000000e+000
    outer loop
      vertex  1.655867e+001  8.375965e+000  8.000000e+000
      vertex  1.655867e+001  8.375965e+000  7.000000e+000
      vertex  1.647085e+001  8.926568e+000  8.000000e+000
    endloop
  endfacet
  facet normal  9.875168e-001  1.575138e-001  0.000000e+000
    outer loop
      vertex  1.647085e+001  8.926568e+000  8.000000e+000
      vertex  1.655867e+001  8.375965e+000  7.000000e+000
      vertex  1.647085e+001  8.926568e+000  7.000000e+000
    endloop
  endfacet
  facet normal  7.496796e-001  6.618010e-001  -0.000000e+000
    outer loop
      vertex  1.647085e+001  8.926568e+000  8.000000e+000
      vertex  1.647085e+001  8.926568e+000  7.000000e+000
      vertex  1.610185e+001  9.344562e+000  8.000000e+000
    endloop
  endfacet
  facet normal  7.496796e-001  6.618010e-001  0.000000e+000
    outer loop
      vertex  1.610185e+001  9.344562e+000  8.000000e+000
      vertex  1.647085e+001  8.926568e+000  7.000000e+000
      vertex  1.610185e+001  9.344562e+000  7.000000e+000
    endloop
  endfacet
  facet normal  2.787816e-001  9.603546e-001  -0.000000e+000
    outer loop
      vertex  1.610185e+001  9.344562e+000  8.000000e+000
      vertex  1.610185e+001  9.344562e+000  7.000000e+000
      vertex  1.556639e+001  9.500000e+000  8.000000e+000
    endloop
  endfacet
  facet normal  2.787816e-001  9.603546e-001  0.000000e+000
    outer loop
      vertex  1.556639e+001  9.500000e+000  8.000000e+000
      vertex  1.610185e+001  9.344562e+000  7.000000e+000
      vertex  1.556639e+001  9.500000e+000  7.000000e+000
    endloop
  endfacet
  facet normal  0.000000e+000 -1.000000e+000  -0.000000e+000
    outer loop
      vertex  1.444139e+001 -1.500000e+000  7.000000e+000
      vertex  1.444139e+001 -1.500000e+000  8.000000e+000
      vertex -4.413912e-001 -1.500000e+000  7.000000e+000
    endloop
  endfacet
  facet normal  0.000000e+000 -1.000000e+000  0.000000e+000
    outer loop
      vertex -4.413912e-001 -1.500000e+000  7.000000e+000
      vertex  1.444139e+001 -1.500000e+000  8.000000e+000
      vertex -4.413912e-001 -1.500000e+000  8.000000e+000
    endloop
  endfacet
  facet normal -8.842246e-001 -4.670619e-001  0.000000e+000
    outer loop
      vertex -1.433669e+000 -6.240345e-001  8.000000e+000
      vertex -1.433669e+000 -6.240345e-001  7.000000e+000
      vertex -1.103194e+000 -1.249678e+000  8.000000e+000
    endloop
  endfacet
  facet normal -8.842246e-001 -4.670619e-001  -0.000000e+000
    outer loop
      vertex -1.103194e+000 -1.249678e+000  8.000000e+000
      vertex -1.433669e+000 -6.240345e-001  7.000000e+000
      vertex -1.103194e+000 -1.249678e+000  7.000000e+000
    endloop
  endfacet
  facet normal -3.537809e-001 -9.353283e-001  0.000000e+000
    outer loop
      vertex -1.103194e+000 -1.249678e+000  8.000000e+000
      vertex -1.103194e+000 -1.249678e+000  7.000000e+000
      vertex -4.413912e-001 -1.500000e+000  8.000000e+000
    endloop
  endfacet
  facet normal -3.537809e-001 -9.353283e-001  -0.000000e+000
    outer loop
      vertex -4.413912e-001 -1.500000e+000  8.000000e+000
      vertex -1.103194e+000 -1.249678e+000  7.000000e+000
      vertex -4.413912e-001 -1.500000e+000  7.000000e+000
    endloop
  endfacet
  facet normal  0.000000e+000 -1.000000e+000  0.000000e+000
    outer loop
      vertex  1.400000e+001 -1.000000e+000  7.000000e+000
      vertex -1.776357e-015 -1.000000e+000  7.000000e+000
      vertex  1.400000e+001 -1.000000e+000  0.000000e+000
    endloop
  endfacet
  facet normal  0.000000e+000 -1.000000e+000  0.000000e+000
    outer loop
      vertex  1.400000e+001 -1.000000e+000  0.000000e+000
      vertex -1.776357e-015 -1.000000e+000  7.000000e+000
      vertex  8.881784e-016 -1.000000e+000  0.000000e+000
    endloop
  endfacet
  facet normal -3.537810e-001 -9.353283e-001 -1.346660e-016
    outer loop
      vertex  8.881784e-016 -1.000000e+000  0.000000e+000
      vertex -1.776357e-015 -1.000000e+000  7.000000e+000
      vertex -6.618026e-001 -7.496781e-001  0.000000e+000
    endloop
  endfacet
  facet normal -3.537810e-001 -9.353283e-001  0.000000e+000
    outer loop
      vertex -6.618026e-001 -7.496781e-001  0.000000e+000
      vertex -1.776357e-015 -1.000000e+000  7.000000e+000
      vertex -6.618026e-001 -7.496781e-001  7.000000e+000
    endloop
  endfacet
  facet normal -8.842246e-001 -4.670620e-001  -0.000000e+000
    outer loop
      vertex -6.618026e-001 -7.496781e-001  0.000000e+000
      vertex -6.618026e-001 -7.496781e-001  7.000000e+000
      vertex -9.922779e-001 -1.240344e-001  0.000000e+000
    endloop
  endfacet
  facet normal -8.842246e-001 -4.670620e-001  0.000000e+000
    outer loop
      vertex -9.922779e-001 -1.240344e-001  0.000000e+000
      vertex -6.618026e-001 -7.496781e-001  7.000000e+000
      vertex -9.922779e-001 -1.240344e-001  7.000000e+000
    endloop
  endfacet
  facet normal  8.842241e-001 -4.670628e-001  0.000000e+000
    outer loop
      vertex  1.499228e+001 -1.240350e-001  0.000000e+000
      vertex  1.499228e+001 -1.240350e-001  7.000000e+000
      vertex  1.466180e+001 -7.496783e-001  0.000000e+000
    endloop
  endfacet
  facet normal  8.842241e-001 -4.670628e-001  0.000000e+000
    outer loop
      vertex  1.466180e+001 -7.496783e-001  0.000000e+000
      vertex  1.499228e+001 -1.240350e-001  7.000000e+000
      vertex  1.466180e+001 -7.496783e-001  7.000000e+000
    endloop
  endfacet
  facet normal  3.537809e-001 -9.353283e-001  0.000000e+000
    outer loop
      vertex  1.466180e+001 -7.496783e-001  0.000000e+000
      vertex  1.466180e+001 -7.496783e-001  7.000000e+000
      vertex  1.400000e+001 -1.000000e+000  0.000000e+000
    endloop
  endfacet
  facet normal  3.537809e-001 -9.353283e-001  0.000000e+000
    outer loop
      vertex  1.400000e+001 -1.000000e+000  0.000000e+000
      vertex  1.466180e+001 -7.496783e-001  7.000000e+000
      vertex  1.400000e+001 -1.000000e+000  7.000000e+000
    endloop
  endfacet
  facet normal  3.537809e-001 -9.353283e-001  0.000000e+000
    outer loop
      vertex  1.444139e+001 -1.500000e+000  8.000000e+000
      vertex  1.444139e+001 -1.500000e+000  7.000000e+000
      vertex  1.510319e+001 -1.249678e+000  8.000000e+000
    endloop
  endfacet
  facet normal  3.537809e-001 -9.353283e-001  0.000000e+000
    outer loop
      vertex  1.510319e+001 -1.249678e+000  8.000000e+000
      vertex  1.444139e+001 -1.500000e+000  7.000000e+000
      vertex  1.510319e+001 -1.249678e+000  7.000000e+000
    endloop
  endfacet
  facet normal  8.842242e-001 -4.670628e-001  0.000000e+000
    outer loop
      vertex  1.510319e+001 -1.249678e+000  8.000000e+000
      vertex  1.510319e+001 -1.249678e+000  7.000000e+000
      vertex  1.543367e+001 -6.240350e-001  8.000000e+000
    endloop
  endfacet
  facet normal  8.842242e-001 -4.670628e-001  0.000000e+000
    outer loop
      vertex  1.543367e+001 -6.240350e-001  8.000000e+000
      vertex  1.510319e+001 -1.249678e+000  7.000000e+000
      vertex  1.543367e+001 -6.240350e-001  7.000000e+000
    endloop
  endfacet
  facet normal  0.000000e+000  0.000000e+000 -1.000000e+000
    outer loop
      vertex  0.000000e+000  0.000000e+000  7.000000e+000
      vertex -9.999977e-001  8.000000e+000  7.000000e+000
      vertex  1.400000e+001  0.000000e+000  7.000000e+000
    endloop
  endfacet
  facet normal  0.000000e+000  0.000000e+000 -1.000000e+000
    outer loop
      vertex  1.400000e+001  0.000000e+000  7.000000e+000
      vertex -9.999977e-001  8.000000e+000  7.000000e+000
      vertex  1.500000e+001  8.000000e+000  7.000000e+000
    endloop
  endfacet
  facet normal -9.922778e-001  1.240350e-001  0.000000e+000
    outer loop
      vertex  1.400000e+001  0.000000e+000  7.000000e+000
      vertex  1.500000e+001  8.000000e+000  7.000000e+000
      vertex  1.400000e+001  0.000000e+000  0.000000e+000
    endloop
  endfacet
  facet normal -9.922778e-001  1.240350e-001  0.000000e+000
    outer loop
      vertex  1.400000e+001  0.000000e+000  0.000000e+000
      vertex  1.500000e+001  8.000000e+000  7.000000e+000
      vertex  1.500000e+001  8.000000e+000  0.000000e+000
    endloop
  endfacet
  facet normal  0.000000e+000  1.000000e+000  0.000000e+000
    outer loop
      vertex  0.000000e+000  0.000000e+000  7.000000e+000
      vertex  1.400000e+001  0.000000e+000  7.000000e+000
      vertex  6.661338e-016  0.000000e+000  0.000000e+000
    endloop
  endfacet
  facet normal  0.000000e+000  1.000000e+000  0.000000e+000
    outer loop
      vertex  6.661338e-016  0.000000e+000  0.000000e+000
      vertex  1.400000e+001  0.000000e+000  7.000000e+000
      vertex  1.400000e+001  0.000000e+000  0.000000e+000
    endloop
  endfacet
  facet normal  0.000000e+000 -1.000000e+000  0.000000e+000
    outer loop
      vertex  1.500000e+001  8.000000e+000  7.000000e+000
      vertex -9.999977e-001  8.000000e+000  7.000000e+000
      vertex  1.500000e+001  8.000000e+000  0.000000e+000
    endloop
  endfacet
  facet normal  0.000000e+000 -1.000000e+000  0.000000e+000
    outer loop
      vertex  1.500000e+001  8.000000e+000  0.000000e+000
      vertex -9.999977e-001  8.000000e+000  7.000000e+000
      vertex -9.999977e-001  8.000000e+000  0.000000e+000
    endloop
  endfacet
  facet normal  9.922779e-001  1.240344e-001  0.000000e+000
    outer loop
      vertex -9.999977e-001  8.000000e+000  7.000000e+000
      vertex  0.000000e+000  0.000000e+000  7.000000e+000
      vertex -9.999977e-001  8.000000e+000  0.000000e+000
    endloop
  endfacet
  facet normal  9.922779e-001  1.240344e-001  0.000000e+000
    outer loop
      vertex -9.999977e-001  8.000000e+000  0.000000e+000
      vertex  0.000000e+000  0.000000e+000  7.000000e+000
      vertex  6.661338e-016  0.000000e+000  0.000000e+000
    endloop
  endfacet
endsolid CATIA STL
