<?xml version="1.0" encoding="UTF-8" standalone="no"?>
<!-- Generator: Adobe Illustrator 26.2.1, SVG Export Plug-In . SVG Version: 6.00 Build 0)  -->

<svg
   version="1.1"
   id="Calque_1"
   x="0px"
   y="0px"
   viewBox="0 0 892.91254 631.41751"
   xml:space="preserve"
   sodipodi:docname="Face avant boitier.svg"
   width="314.99969mm"
   height="222.75006mm"
   inkscape:version="1.1.2 (b8e25be833, 2022-02-05)"
   xmlns:inkscape="http://www.inkscape.org/namespaces/inkscape"
   xmlns:sodipodi="http://sodipodi.sourceforge.net/DTD/sodipodi-0.dtd"
   xmlns="http://www.w3.org/2000/svg"
   xmlns:svg="http://www.w3.org/2000/svg"><defs
   id="defs237" /><sodipodi:namedview
   id="namedview235"
   pagecolor="#ffffff"
   bordercolor="#666666"
   borderopacity="1.0"
   inkscape:pageshadow="2"
   inkscape:pageopacity="0.0"
   inkscape:pagecheckerboard="0"
   showgrid="false"
   inkscape:document-units="pt"
   inkscape:snap-center="true"
   units="mm"
   width="314.99969mm"
   inkscape:zoom="0.32"
   inkscape:cx="154.6875"
   inkscape:cy="9.375"
   inkscape:window-width="1920"
   inkscape:window-height="1009"
   inkscape:window-x="-8"
   inkscape:window-y="-8"
   inkscape:window-maximized="1"
   inkscape:current-layer="Calque_1" />
<style
   type="text/css"
   id="style2">
	.st0{fill:none;stroke:#E52421;stroke-miterlimit:10;}
	.st1{fill:none;stroke:#2A4B9B;stroke-miterlimit:10;}
</style>
<circle
   class="st0"
   cx="325.06"
   cy="364.04001"
   r="31.18"
   id="circle4" />
<g
   id="g14">
	<path
   d="m 304.75,412.28 2.8,-9.71 h 2.21 l 2.8,9.71 h -1.95 l -1.9,-7.33 h -0.12 l -1.9,7.33 z m 1.41,-1.84 v -1.67 h 4.92 v 1.67 z"
   id="path6" />
	<path
   d="m 313.79,404.19 v -1.62 h 6.14 v 1.62 z m 0,8.09 v -1.63 h 6.14 v 1.63 z m 2.16,0 v -9.71 h 1.8 v 9.71 z"
   id="path8" />
	<path
   d="m 321.8,412.28 v -9.71 h 1.8 v 9.71 z m 1.71,-3.56 v -1.66 h 1.74 c 0.42,0 0.75,-0.12 0.98,-0.37 0.23,-0.25 0.35,-0.6 0.35,-1.04 0,-0.45 -0.12,-0.8 -0.35,-1.05 -0.23,-0.25 -0.56,-0.37 -0.98,-0.37 h -1.72 l -0.16,-1.66 h 1.88 c 1.04,0 1.85,0.26 2.42,0.77 0.57,0.51 0.85,1.23 0.85,2.17 0,1.02 -0.28,1.81 -0.85,2.37 -0.57,0.56 -1.38,0.84 -2.42,0.84 z m 3.22,3.56 -1.83,-4.57 h 1.9 l 2.08,4.57 z"
   id="path10" />
	<path
   d="m 338.05,408.26 v -1.66 h 6.84 v 1.66 z m 2.5,2.72 v -7.1 h 1.83 v 7.1 z"
   id="path12" />
</g>
<circle
   class="st0"
   cx="325.06"
   cy="244.98"
   r="31.18"
   id="circle16" />
<g
   id="g36">
	<path
   d="m 289.13,293.17 v -9.71 h 1.8 v 9.71 z m 1.64,-2.78 v -1.66 h 1.33 c 0.6,0 1.06,-0.16 1.38,-0.49 0.32,-0.33 0.49,-0.79 0.49,-1.37 0,-0.56 -0.16,-0.98 -0.49,-1.29 -0.33,-0.31 -0.79,-0.45 -1.38,-0.45 h -1.31 v -1.66 h 1.31 c 1.22,0 2.16,0.29 2.82,0.86 0.66,0.57 1,1.38 1,2.42 0,1.16 -0.33,2.05 -1,2.69 -0.67,0.64 -1.61,0.95 -2.82,0.95 z"
   id="path18" />
	<path
   d="m 296.78,293.17 v -1.59 h 5.07 v 1.59 z m 0.28,-5.66 v -1.59 h 2.73 l 0.14,1.59 z m 1.25,5.66 v -7.25 h 1.57 l 0.27,2.08 v 5.17 z m 1.85,-3.11 -0.42,-2.5 h 0.62 c 0.07,-1.18 0.69,-1.77 1.85,-1.77 0.69,0 1.22,0.25 1.58,0.76 0.36,0.51 0.55,1.23 0.55,2.19 h -1.84 c 0,-0.43 -0.08,-0.74 -0.24,-0.92 -0.16,-0.18 -0.41,-0.28 -0.76,-0.28 -0.45,0 -0.79,0.22 -1.01,0.66 -0.22,0.44 -0.33,1.05 -0.33,1.86 z"
   id="path20" />
	<path
   d="m 309.3,293.31 c -1.25,0 -2.22,-0.32 -2.91,-0.97 -0.69,-0.65 -1.03,-1.58 -1.03,-2.8 0,-1.19 0.29,-2.11 0.87,-2.76 0.58,-0.65 1.4,-0.98 2.46,-0.98 1.03,0 1.83,0.3 2.4,0.91 0.57,0.61 0.85,1.49 0.85,2.65 0,0.33 -0.01,0.64 -0.04,0.94 h -5.32 V 289 h 3.54 c 0,-0.49 -0.12,-0.86 -0.37,-1.12 -0.25,-0.26 -0.6,-0.39 -1.04,-0.39 -0.48,0 -0.86,0.17 -1.12,0.52 -0.26,0.35 -0.4,0.83 -0.4,1.47 0,0.68 0.2,1.2 0.59,1.56 0.39,0.36 0.96,0.53 1.69,0.53 0.33,0 0.65,-0.02 0.97,-0.05 0.32,-0.03 0.65,-0.08 0.98,-0.14 l 0.18,1.75 c -0.46,0.08 -0.89,0.13 -1.27,0.16 -0.38,0.03 -0.73,0.02 -1.03,0.02 z"
   id="path22" />
	<path
   d="m 317.71,293.31 c -1.32,0 -2.34,-0.32 -3.06,-0.97 -0.72,-0.65 -1.08,-1.58 -1.08,-2.8 0,-1.19 0.33,-2.11 0.98,-2.76 0.65,-0.65 1.59,-0.98 2.81,-0.98 0.75,0 1.39,0.15 1.92,0.44 0.53,0.29 0.92,0.7 1.14,1.24 l -1.34,1.07 c -0.2,-0.31 -0.45,-0.56 -0.76,-0.73 -0.31,-0.17 -0.65,-0.26 -1.02,-0.26 -0.56,0 -1,0.17 -1.31,0.5 -0.31,0.33 -0.47,0.81 -0.47,1.42 0,0.68 0.2,1.2 0.61,1.55 0.41,0.35 0.98,0.53 1.73,0.53 0.33,0 0.66,-0.02 0.98,-0.05 0.32,-0.03 0.64,-0.08 0.95,-0.13 l 0.19,1.73 c -0.37,0.08 -0.75,0.14 -1.14,0.16 -0.39,0.02 -0.76,0.04 -1.13,0.04 z"
   id="path24" />
	<path
   d="m 321.99,293.17 v -10.25 h 1.85 v 10.25 z m 4.29,0 v -4.38 c 0,-0.41 -0.09,-0.72 -0.27,-0.94 -0.18,-0.22 -0.44,-0.33 -0.77,-0.33 -0.93,0 -1.39,0.64 -1.39,1.91 l -0.42,-2.2 h 0.6 c 0.07,-0.49 0.23,-0.85 0.5,-1.09 0.27,-0.24 0.67,-0.36 1.2,-0.36 0.77,0 1.36,0.23 1.78,0.7 0.42,0.47 0.63,1.12 0.63,1.97 v 4.72 z"
   id="path26" />
	<path
   d="m 332.15,293.31 c -0.77,0 -1.37,-0.19 -1.8,-0.57 -0.43,-0.38 -0.64,-0.92 -0.64,-1.61 0,-0.81 0.28,-1.43 0.84,-1.87 0.56,-0.44 1.36,-0.65 2.39,-0.65 0.4,0 0.74,0.02 1.03,0.06 0.29,0.04 0.58,0.1 0.88,0.19 l -0.3,1.44 c -0.29,-0.07 -0.55,-0.11 -0.79,-0.12 -0.24,-0.01 -0.48,-0.02 -0.73,-0.02 -0.96,0 -1.44,0.27 -1.44,0.82 0,0.25 0.09,0.43 0.26,0.56 0.17,0.13 0.43,0.19 0.76,0.19 0.4,0 0.74,-0.08 1,-0.23 0.26,-0.15 0.47,-0.34 0.6,-0.57 0.13,-0.23 0.2,-0.47 0.2,-0.72 v -0.45 l 0.26,1.86 h -0.58 l 0.24,-0.22 c -0.01,0.42 -0.11,0.77 -0.29,1.05 -0.18,0.28 -0.43,0.49 -0.75,0.63 -0.32,0.14 -0.7,0.23 -1.14,0.23 z m 2.45,-0.07 -0.16,-2.15 -0.03,-0.94 v -1.42 c 0,-0.39 -0.17,-0.67 -0.5,-0.85 -0.33,-0.18 -0.82,-0.28 -1.47,-0.3 l -1.85,-0.05 0.14,-1.68 1.58,0.02 c 1.31,0.02 2.29,0.28 2.93,0.78 0.64,0.5 0.96,1.23 0.96,2.18 v 2.68 l 1,0.15 v 1.5 z"
   id="path28" />
	<path
   d="m 337.8,293.17 v -1.59 h 5.07 v 1.59 z m 0.27,-5.66 v -1.59 h 2.73 l 0.14,1.59 z m 1.26,5.66 v -7.25 h 1.57 l 0.27,2.08 v 5.17 z m 1.85,-3.11 -0.42,-2.5 h 0.62 c 0.07,-1.18 0.69,-1.77 1.85,-1.77 0.69,0 1.22,0.25 1.58,0.76 0.36,0.51 0.55,1.23 0.55,2.19 h -1.84 c 0,-0.43 -0.08,-0.74 -0.24,-0.92 -0.16,-0.18 -0.41,-0.28 -0.76,-0.28 -0.45,0 -0.79,0.22 -1.01,0.66 -0.22,0.44 -0.33,1.05 -0.33,1.86 z"
   id="path30" />
	<path
   d="m 348.95,293.31 c -0.9,0 -1.6,-0.32 -2.1,-0.97 -0.5,-0.65 -0.75,-1.57 -0.75,-2.78 0,-1.2 0.25,-2.13 0.75,-2.78 0.5,-0.65 1.2,-0.98 2.11,-0.98 0.55,0 0.97,0.12 1.25,0.36 0.28,0.24 0.47,0.6 0.56,1.09 h 0.53 l -0.42,2.32 c 0,-0.7 -0.12,-1.21 -0.35,-1.54 -0.23,-0.33 -0.59,-0.49 -1.06,-0.49 -0.45,0 -0.8,0.18 -1.05,0.53 -0.25,0.35 -0.37,0.85 -0.37,1.49 0,0.67 0.12,1.17 0.36,1.5 0.24,0.33 0.59,0.51 1.06,0.51 0.53,0 0.9,-0.16 1.1,-0.48 0.2,-0.32 0.31,-0.83 0.31,-1.53 l 0.49,2.3 h -0.64 c -0.07,0.48 -0.26,0.85 -0.57,1.09 -0.31,0.24 -0.7,0.36 -1.21,0.36 z m -2.14,3.13 -0.07,-1.61 2.32,-0.07 c 0.64,-0.02 1.1,-0.19 1.39,-0.53 0.29,-0.34 0.43,-0.83 0.43,-1.48 v -5.29 l 0.14,-1.53 h 1.72 v 6.6 c 0,1.29 -0.3,2.24 -0.91,2.85 -0.61,0.61 -1.57,0.94 -2.9,0.99 z"
   id="path32" />
	<path
   d="m 358.52,293.31 c -1.25,0 -2.22,-0.32 -2.91,-0.97 -0.69,-0.65 -1.03,-1.58 -1.03,-2.8 0,-1.19 0.29,-2.11 0.87,-2.76 0.58,-0.65 1.4,-0.98 2.46,-0.98 1.03,0 1.83,0.3 2.4,0.91 0.57,0.61 0.85,1.49 0.85,2.65 0,0.33 -0.01,0.64 -0.04,0.94 H 355.8 V 289 h 3.54 c 0,-0.49 -0.12,-0.86 -0.37,-1.12 -0.25,-0.26 -0.6,-0.39 -1.04,-0.39 -0.48,0 -0.86,0.17 -1.12,0.52 -0.26,0.35 -0.4,0.83 -0.4,1.47 0,0.68 0.2,1.2 0.59,1.56 0.39,0.36 0.96,0.53 1.69,0.53 0.33,0 0.65,-0.02 0.97,-0.05 0.32,-0.03 0.65,-0.08 0.98,-0.14 l 0.18,1.75 c -0.46,0.08 -0.89,0.13 -1.27,0.16 -0.38,0.03 -0.74,0.02 -1.03,0.02 z"
   id="path34" />
</g>
<circle
   class="st0"
   cx="551.83002"
   cy="364.04001"
   r="31.18"
   id="circle38" />
<g
   id="g48">
	<path
   d="m 531.52,412.27 2.8,-9.71 h 2.21 l 2.8,9.71 h -1.95 l -1.9,-7.33 h -0.12 l -1.9,7.33 z m 1.41,-1.83 v -1.67 h 4.92 v 1.67 z"
   id="path40" />
	<path
   d="m 540.56,404.19 v -1.62 h 6.14 v 1.62 z m 0,8.08 v -1.63 h 6.14 v 1.63 z m 2.16,0 v -9.71 h 1.8 v 9.71 z"
   id="path42" />
	<path
   d="m 548.57,412.27 v -9.71 h 1.8 v 9.71 z m 1.71,-3.55 v -1.66 h 1.74 c 0.42,0 0.75,-0.12 0.98,-0.37 0.23,-0.25 0.35,-0.6 0.35,-1.04 0,-0.45 -0.12,-0.8 -0.35,-1.05 -0.23,-0.25 -0.56,-0.37 -0.98,-0.37 h -1.72 l -0.16,-1.66 h 1.88 c 1.04,0 1.85,0.26 2.42,0.77 0.57,0.51 0.85,1.23 0.85,2.17 0,1.02 -0.28,1.81 -0.85,2.37 -0.57,0.56 -1.38,0.84 -2.42,0.84 z m 3.22,3.55 -1.83,-4.57 h 1.9 l 2.08,4.57 z"
   id="path44" />
	<path
   d="m 564.71,408.26 v -1.65 h 7.07 v 1.65 z"
   id="path46" />
</g>
<circle
   class="st0"
   cx="551.83002"
   cy="244.98"
   r="31.18"
   id="circle50" />
<g
   id="g70">
	<path
   d="m 515.76,293.22 v -9.71 h 1.8 v 9.71 z m 1.71,0 v -1.73 h 0.76 c 0.89,0 1.56,-0.25 2,-0.76 0.44,-0.51 0.67,-1.25 0.67,-2.23 0,-1.08 -0.22,-1.89 -0.67,-2.44 -0.45,-0.55 -1.11,-0.83 -2,-0.83 h -0.73 l -0.16,-1.72 h 0.9 c 3.04,0 4.56,1.66 4.56,4.99 0,3.14 -1.52,4.72 -4.56,4.72 z"
   id="path52" />
	<path
   d="m 524.1,293.22 v -1.71 h 2.82 v 1.71 z m 0.41,-5.54 v -1.71 h 4.12 v 1.71 z m 3.11,-2.68 c -0.35,0 -0.64,-0.11 -0.85,-0.33 -0.21,-0.22 -0.33,-0.5 -0.33,-0.85 0,-0.35 0.11,-0.64 0.33,-0.85 0.22,-0.21 0.5,-0.33 0.85,-0.33 0.35,0 0.64,0.11 0.85,0.33 0.21,0.22 0.33,0.5 0.33,0.85 0,0.35 -0.11,0.64 -0.33,0.85 -0.22,0.21 -0.5,0.33 -0.85,0.33 z m -0.84,8.22 v -6.84 h 1.85 v 6.84 z m 1.71,0 v -1.71 h 2.28 v 1.71 z"
   id="path54" />
	<path
   d="m 534.87,293.36 c -0.55,0 -1.04,-0.02 -1.47,-0.05 -0.43,-0.03 -0.8,-0.09 -1.12,-0.15 l 0.22,-1.77 c 0.57,0.07 1.06,0.13 1.45,0.16 0.39,0.03 0.7,0.05 0.92,0.05 0.6,0 1.03,-0.04 1.3,-0.13 0.27,-0.09 0.4,-0.22 0.4,-0.41 0,-0.11 -0.03,-0.2 -0.1,-0.26 -0.07,-0.06 -0.18,-0.12 -0.33,-0.16 l -2.29,-0.68 c -0.48,-0.15 -0.85,-0.36 -1.09,-0.65 -0.24,-0.29 -0.37,-0.67 -0.37,-1.16 0,-0.78 0.33,-1.36 0.98,-1.74 0.65,-0.38 1.65,-0.57 2.99,-0.57 0.31,0 0.63,0.01 0.97,0.03 0.34,0.02 0.69,0.06 1.06,0.1 l -0.2,1.72 c -0.41,-0.04 -0.78,-0.06 -1.09,-0.08 -0.31,-0.02 -0.57,-0.02 -0.79,-0.02 -0.69,0 -1.19,0.04 -1.5,0.12 -0.31,0.08 -0.47,0.21 -0.47,0.39 0,0.11 0.03,0.2 0.1,0.26 0.07,0.06 0.17,0.11 0.31,0.15 l 1.96,0.56 c 0.62,0.18 1.09,0.42 1.4,0.74 0.31,0.32 0.46,0.73 0.46,1.25 0,0.77 -0.31,1.34 -0.92,1.72 -0.61,0.38 -1.53,0.58 -2.78,0.58 z"
   id="path56" />
	<path
   d="m 544.48,293.36 c -1.32,0 -2.34,-0.32 -3.06,-0.97 -0.72,-0.65 -1.08,-1.58 -1.08,-2.8 0,-1.19 0.33,-2.11 0.98,-2.76 0.65,-0.65 1.59,-0.98 2.81,-0.98 0.75,0 1.39,0.15 1.92,0.44 0.53,0.29 0.92,0.7 1.14,1.24 l -1.34,1.07 c -0.2,-0.31 -0.45,-0.56 -0.76,-0.73 -0.31,-0.17 -0.65,-0.26 -1.02,-0.26 -0.56,0 -1,0.17 -1.31,0.5 -0.31,0.33 -0.47,0.81 -0.47,1.42 0,0.68 0.2,1.2 0.61,1.55 0.41,0.35 0.98,0.53 1.73,0.53 0.33,0 0.66,-0.02 0.98,-0.05 0.32,-0.03 0.64,-0.08 0.95,-0.13 l 0.19,1.73 c -0.37,0.08 -0.75,0.14 -1.14,0.16 -0.39,0.02 -0.76,0.04 -1.13,0.04 z"
   id="path58" />
	<path
   d="m 548.77,293.22 v -10.25 h 1.85 v 10.25 z m 4.28,0 v -4.38 c 0,-0.41 -0.09,-0.72 -0.27,-0.94 -0.18,-0.22 -0.44,-0.33 -0.77,-0.33 -0.93,0 -1.39,0.64 -1.39,1.91 l -0.42,-2.2 h 0.6 c 0.07,-0.49 0.23,-0.85 0.5,-1.09 0.27,-0.24 0.67,-0.36 1.2,-0.36 0.77,0 1.36,0.23 1.78,0.7 0.42,0.47 0.63,1.12 0.63,1.97 v 4.72 z"
   id="path60" />
	<path
   d="m 558.92,293.36 c -0.77,0 -1.37,-0.19 -1.8,-0.57 -0.43,-0.38 -0.64,-0.92 -0.64,-1.61 0,-0.81 0.28,-1.43 0.84,-1.87 0.56,-0.44 1.36,-0.65 2.39,-0.65 0.4,0 0.74,0.02 1.03,0.06 0.29,0.04 0.58,0.1 0.88,0.19 l -0.3,1.44 c -0.29,-0.07 -0.55,-0.11 -0.79,-0.12 -0.24,-0.01 -0.48,-0.02 -0.73,-0.02 -0.96,0 -1.44,0.27 -1.44,0.82 0,0.25 0.09,0.43 0.26,0.56 0.17,0.13 0.43,0.19 0.76,0.19 0.4,0 0.74,-0.08 1,-0.23 0.26,-0.15 0.47,-0.34 0.6,-0.57 0.13,-0.23 0.2,-0.47 0.2,-0.72 v -0.45 l 0.26,1.86 h -0.58 l 0.24,-0.22 c -0.01,0.42 -0.11,0.77 -0.29,1.05 -0.18,0.28 -0.43,0.49 -0.75,0.63 -0.32,0.14 -0.7,0.23 -1.14,0.23 z m 2.45,-0.07 -0.16,-2.15 -0.03,-0.94 v -1.42 c 0,-0.39 -0.17,-0.67 -0.5,-0.85 -0.33,-0.18 -0.82,-0.28 -1.47,-0.3 l -1.85,-0.05 0.14,-1.68 1.58,0.02 c 1.31,0.02 2.29,0.28 2.93,0.78 0.64,0.5 0.96,1.23 0.96,2.18 v 2.68 l 1,0.15 v 1.5 z"
   id="path62" />
	<path
   d="m 564.57,293.22 v -1.59 h 5.07 v 1.59 z m 0.27,-5.66 v -1.59 h 2.73 l 0.14,1.59 z m 1.26,5.66 v -7.25 h 1.57 l 0.27,2.08 v 5.17 z m 1.85,-3.12 -0.42,-2.5 h 0.62 c 0.07,-1.18 0.69,-1.77 1.85,-1.77 0.69,0 1.22,0.25 1.58,0.76 0.36,0.51 0.55,1.23 0.55,2.19 h -1.84 c 0,-0.43 -0.08,-0.74 -0.24,-0.92 -0.16,-0.18 -0.41,-0.28 -0.76,-0.28 -0.45,0 -0.79,0.22 -1.01,0.66 -0.22,0.44 -0.33,1.06 -0.33,1.86 z"
   id="path64" />
	<path
   d="m 575.73,293.36 c -0.9,0 -1.6,-0.32 -2.1,-0.97 -0.5,-0.65 -0.75,-1.57 -0.75,-2.78 0,-1.2 0.25,-2.13 0.75,-2.78 0.5,-0.65 1.2,-0.98 2.11,-0.98 0.55,0 0.97,0.12 1.25,0.36 0.28,0.24 0.47,0.6 0.56,1.09 h 0.53 l -0.42,2.32 c 0,-0.7 -0.12,-1.21 -0.35,-1.54 -0.23,-0.33 -0.59,-0.49 -1.06,-0.49 -0.45,0 -0.8,0.18 -1.05,0.53 -0.25,0.35 -0.37,0.85 -0.37,1.49 0,0.67 0.12,1.17 0.36,1.5 0.24,0.33 0.59,0.51 1.06,0.51 0.53,0 0.9,-0.16 1.1,-0.48 0.2,-0.32 0.31,-0.83 0.31,-1.53 l 0.49,2.3 h -0.64 c -0.07,0.48 -0.26,0.85 -0.57,1.09 -0.31,0.24 -0.71,0.36 -1.21,0.36 z m -2.14,3.13 -0.07,-1.61 2.32,-0.07 c 0.64,-0.02 1.1,-0.19 1.39,-0.53 0.29,-0.34 0.43,-0.83 0.43,-1.48 v -5.29 l 0.14,-1.53 h 1.72 v 6.6 c 0,1.29 -0.3,2.24 -0.91,2.85 -0.61,0.61 -1.57,0.94 -2.9,0.99 z"
   id="path66" />
	<path
   d="m 585.29,293.36 c -1.25,0 -2.22,-0.32 -2.91,-0.97 -0.69,-0.65 -1.03,-1.58 -1.03,-2.8 0,-1.19 0.29,-2.11 0.87,-2.76 0.58,-0.65 1.4,-0.98 2.46,-0.98 1.03,0 1.83,0.3 2.4,0.91 0.57,0.61 0.85,1.49 0.85,2.65 0,0.33 -0.01,0.64 -0.04,0.94 h -5.32 v -1.29 h 3.54 c 0,-0.49 -0.12,-0.86 -0.37,-1.12 -0.25,-0.26 -0.6,-0.39 -1.04,-0.39 -0.48,0 -0.86,0.17 -1.12,0.52 -0.26,0.35 -0.4,0.83 -0.4,1.47 0,0.68 0.2,1.2 0.59,1.56 0.39,0.36 0.96,0.53 1.69,0.53 0.33,0 0.65,-0.02 0.97,-0.05 0.32,-0.03 0.65,-0.08 0.98,-0.14 l 0.18,1.75 c -0.46,0.08 -0.89,0.13 -1.27,0.16 -0.38,0.03 -0.73,0.01 -1.03,0.01 z"
   id="path68" />
</g>
<circle
   class="st0"
   cx="254.2"
   cy="364.04001"
   r="11.34"
   id="circle72" />
<circle
   class="st0"
   cx="622.70001"
   cy="364.04001"
   r="11.34"
   id="circle74" />
<g
   id="g84">
	<circle
   class="st0"
   cx="727.75"
   cy="433.35001"
   r="4.96"
   id="circle76" />
	<circle
   class="st0"
   cx="727.75"
   cy="181.35001"
   r="4.96"
   id="circle78" />
	<circle
   class="st0"
   cx="886.15002"
   cy="433.35001"
   r="4.96"
   id="circle80" />
	<circle
   class="st0"
   cx="886.15002"
   cy="181.35001"
   r="4.96"
   id="circle82" />
</g>
<line
   class="st1"
   x1="390.26001"
   y1="222.31"
   x2="390.26001"
   y2="279"
   id="line86" />
<line
   class="st1"
   x1="390.26001"
   y1="304.51001"
   x2="390.26001"
   y2="392.39001"
   id="line88" />
<line
   class="st1"
   x1="390.26001"
   y1="279"
   x2="395.92999"
   y2="304.51001"
   id="line90" />
<line
   class="st1"
   x1="390.26001"
   y1="259.16"
   x2="410.10001"
   y2="259.16"
   id="line92" />
<rect
   x="407.26999"
   y="267.66"
   class="st1"
   width="5.6700001"
   height="17.01"
   id="rect94" />
<line
   class="st1"
   x1="410.10001"
   y1="259.16"
   x2="410.10001"
   y2="267.66"
   id="line96" />
<line
   class="st1"
   x1="410.10001"
   y1="284.67001"
   x2="410.10001"
   y2="290.34"
   id="line98" />
<line
   class="st1"
   x1="410.10001"
   y1="304.51001"
   x2="410.10001"
   y2="327.19"
   id="line100" />
<line
   class="st1"
   x1="410.10001"
   y1="290.34"
   x2="415.76999"
   y2="304.51001"
   id="line102" />
<line
   class="st1"
   x1="410.10001"
   y1="327.19"
   x2="390.26001"
   y2="327.19"
   id="line104" />
<line
   class="st1"
   x1="486.64001"
   y1="222.31"
   x2="486.64001"
   y2="279"
   id="line106" />
<line
   class="st1"
   x1="486.64001"
   y1="304.51001"
   x2="486.64001"
   y2="392.39001"
   id="line108" />
<line
   class="st1"
   x1="486.64001"
   y1="279"
   x2="492.31"
   y2="304.51001"
   id="line110" />
<rect
   x="418.60999"
   y="349.87"
   transform="rotate(-90,421.44095,358.37005)"
   class="st1"
   width="5.6700001"
   height="17.01"
   id="rect112" />
<line
   class="st1"
   x1="390.26001"
   y1="358.37"
   x2="412.94"
   y2="358.37"
   id="line114" />
<line
   class="st1"
   x1="429.94"
   y1="358.37"
   x2="435.60999"
   y2="358.37"
   id="line116" />
<line
   class="st1"
   x1="449.79001"
   y1="358.37"
   x2="486.64001"
   y2="358.37"
   id="line118" />
<line
   class="st1"
   x1="435.60999"
   y1="358.37"
   x2="449.79001"
   y2="352.70001"
   id="line120" />
<g
   id="g140">
	<path
   d="m 415,369.71 v -5.55 h 1.03 v 5.55 z m 0.98,0 v -0.99 h 0.43 c 0.51,0 0.89,-0.15 1.14,-0.44 0.25,-0.29 0.38,-0.71 0.38,-1.27 0,-0.61 -0.13,-1.08 -0.38,-1.39 -0.25,-0.31 -0.63,-0.47 -1.14,-0.47 h -0.42 l -0.09,-0.98 h 0.51 c 1.74,0 2.61,0.95 2.61,2.85 0,1.8 -0.87,2.7 -2.61,2.7 h -0.43 z"
   id="path122" />
	<path
   d="m 419.77,369.71 v -0.98 h 1.61 v 0.98 z m 0.23,-3.17 v -0.98 h 2.35 v 0.98 z m 1.78,-1.53 c -0.2,0 -0.36,-0.06 -0.49,-0.19 -0.13,-0.13 -0.19,-0.29 -0.19,-0.49 0,-0.2 0.06,-0.36 0.19,-0.49 0.13,-0.13 0.29,-0.19 0.49,-0.19 0.2,0 0.36,0.06 0.49,0.19 0.13,0.13 0.19,0.29 0.19,0.49 0,0.2 -0.06,0.36 -0.19,0.49 -0.13,0.13 -0.29,0.19 -0.49,0.19 z m -0.48,4.7 v -3.91 h 1.05 v 3.91 z m 0.97,0 v -0.98 h 1.3 v 0.98 z"
   id="path124" />
	<path
   d="m 425.92,369.79 c -0.31,0 -0.59,-0.01 -0.84,-0.03 -0.25,-0.02 -0.46,-0.05 -0.64,-0.09 l 0.12,-1.01 c 0.33,0.04 0.6,0.07 0.83,0.09 0.23,0.02 0.4,0.03 0.53,0.03 0.34,0 0.59,-0.02 0.74,-0.07 0.15,-0.05 0.23,-0.13 0.23,-0.23 0,-0.06 -0.02,-0.11 -0.06,-0.15 -0.04,-0.04 -0.1,-0.07 -0.19,-0.09 l -1.31,-0.39 c -0.28,-0.08 -0.48,-0.21 -0.62,-0.37 -0.14,-0.16 -0.21,-0.39 -0.21,-0.66 0,-0.45 0.19,-0.78 0.56,-0.99 0.37,-0.21 0.94,-0.33 1.71,-0.33 0.18,0 0.36,0.01 0.55,0.02 0.19,0.01 0.39,0.03 0.61,0.06 l -0.11,0.98 c -0.24,-0.02 -0.44,-0.04 -0.62,-0.04 -0.18,0 -0.33,-0.01 -0.45,-0.01 -0.39,0 -0.68,0.02 -0.86,0.07 -0.18,0.05 -0.27,0.12 -0.27,0.22 0,0.06 0.02,0.12 0.06,0.15 0.04,0.03 0.1,0.06 0.18,0.09 l 1.12,0.32 c 0.36,0.1 0.62,0.24 0.8,0.42 0.18,0.18 0.26,0.42 0.26,0.71 0,0.44 -0.17,0.77 -0.52,0.98 -0.35,0.21 -0.88,0.32 -1.6,0.32 z"
   id="path126" />
	<path
   d="m 431.41,369.79 c -0.75,0 -1.33,-0.19 -1.75,-0.56 -0.42,-0.37 -0.62,-0.9 -0.62,-1.6 0,-0.68 0.19,-1.2 0.56,-1.58 0.37,-0.38 0.91,-0.56 1.61,-0.56 0.43,0 0.79,0.08 1.1,0.25 0.31,0.17 0.52,0.4 0.65,0.71 l -0.77,0.61 c -0.11,-0.18 -0.26,-0.32 -0.44,-0.42 -0.18,-0.1 -0.37,-0.15 -0.58,-0.15 -0.32,0 -0.57,0.1 -0.75,0.29 -0.18,0.19 -0.27,0.46 -0.27,0.81 0,0.39 0.12,0.68 0.35,0.89 0.23,0.21 0.56,0.3 0.99,0.3 0.19,0 0.37,-0.01 0.56,-0.03 0.19,-0.02 0.37,-0.04 0.54,-0.07 l 0.11,0.99 c -0.21,0.05 -0.43,0.08 -0.65,0.09 -0.22,0.01 -0.43,0.03 -0.64,0.03 z"
   id="path128" />
	<path
   d="m 433.86,369.71 v -5.86 h 1.06 v 5.86 z m 2.45,0 v -2.5 c 0,-0.23 -0.05,-0.41 -0.15,-0.54 -0.1,-0.13 -0.25,-0.19 -0.44,-0.19 -0.53,0 -0.8,0.36 -0.8,1.09 l -0.24,-1.26 h 0.34 c 0.04,-0.28 0.13,-0.49 0.29,-0.62 0.16,-0.13 0.38,-0.21 0.69,-0.21 0.44,0 0.78,0.13 1.02,0.4 0.24,0.27 0.36,0.64 0.36,1.12 v 2.7 h -1.07 z"
   id="path130" />
	<path
   d="m 439.66,369.79 c -0.44,0 -0.78,-0.11 -1.03,-0.32 -0.25,-0.21 -0.37,-0.52 -0.37,-0.92 0,-0.46 0.16,-0.82 0.48,-1.07 0.32,-0.25 0.77,-0.37 1.36,-0.37 0.23,0 0.42,0.01 0.59,0.04 0.17,0.03 0.33,0.06 0.5,0.11 l -0.17,0.82 c -0.17,-0.04 -0.32,-0.06 -0.45,-0.07 -0.13,-0.01 -0.27,-0.01 -0.42,-0.01 -0.55,0 -0.82,0.16 -0.82,0.47 0,0.14 0.05,0.25 0.15,0.32 0.1,0.07 0.24,0.11 0.43,0.11 0.23,0 0.42,-0.04 0.57,-0.13 0.15,-0.09 0.27,-0.2 0.35,-0.33 0.08,-0.13 0.12,-0.27 0.12,-0.41 v -0.26 l 0.15,1.06 h -0.33 l 0.14,-0.12 c -0.01,0.24 -0.06,0.44 -0.16,0.6 -0.1,0.16 -0.24,0.28 -0.43,0.36 -0.19,0.08 -0.4,0.12 -0.66,0.12 z m 1.4,-0.04 -0.09,-1.23 -0.02,-0.54 v -0.81 c 0,-0.22 -0.09,-0.38 -0.28,-0.49 -0.19,-0.11 -0.47,-0.16 -0.84,-0.17 l -1.06,-0.03 0.08,-0.96 0.9,0.01 c 0.75,0.01 1.31,0.16 1.67,0.44 0.36,0.28 0.55,0.7 0.55,1.25 v 1.53 l 0.57,0.09 v 0.86 z"
   id="path132" />
	<path
   d="m 442.89,369.71 v -0.91 h 2.9 v 0.91 z m 0.16,-3.24 v -0.91 h 1.56 l 0.08,0.91 z m 0.72,3.24 v -4.14 h 0.9 l 0.16,1.19 v 2.95 z m 1.05,-1.78 -0.24,-1.43 h 0.36 c 0.04,-0.67 0.39,-1.01 1.06,-1.01 0.39,0 0.69,0.14 0.9,0.43 0.21,0.29 0.31,0.71 0.31,1.25 h -1.05 c 0,-0.24 -0.04,-0.42 -0.13,-0.53 -0.09,-0.11 -0.23,-0.16 -0.44,-0.16 -0.26,0 -0.45,0.12 -0.58,0.38 -0.13,0.26 -0.19,0.61 -0.19,1.07 z"
   id="path134" />
	<path
   d="m 449.27,369.79 c -0.51,0 -0.91,-0.19 -1.2,-0.55 -0.29,-0.36 -0.43,-0.9 -0.43,-1.59 0,-0.69 0.14,-1.21 0.43,-1.59 0.29,-0.38 0.69,-0.56 1.21,-0.56 0.31,0 0.55,0.07 0.72,0.21 0.17,0.14 0.27,0.34 0.32,0.62 h 0.3 l -0.24,1.32 c 0,-0.4 -0.07,-0.69 -0.2,-0.88 -0.13,-0.19 -0.34,-0.28 -0.61,-0.28 -0.26,0 -0.46,0.1 -0.6,0.3 -0.14,0.2 -0.21,0.49 -0.21,0.85 0,0.38 0.07,0.67 0.21,0.86 0.14,0.19 0.34,0.29 0.6,0.29 0.3,0 0.51,-0.09 0.63,-0.27 0.12,-0.18 0.18,-0.47 0.18,-0.88 l 0.28,1.32 h -0.37 c -0.04,0.28 -0.15,0.48 -0.32,0.62 -0.17,0.14 -0.41,0.21 -0.7,0.21 z m -1.23,1.79 -0.04,-0.92 1.33,-0.04 c 0.36,-0.01 0.63,-0.11 0.79,-0.3 0.16,-0.19 0.25,-0.47 0.25,-0.85 v -3.02 l 0.08,-0.88 h 0.98 v 3.77 c 0,0.74 -0.17,1.28 -0.52,1.63 -0.35,0.35 -0.9,0.54 -1.66,0.56 z"
   id="path136" />
	<path
   d="m 454.73,369.79 c -0.72,0 -1.27,-0.19 -1.66,-0.56 -0.39,-0.37 -0.59,-0.9 -0.59,-1.6 0,-0.68 0.17,-1.2 0.5,-1.58 0.33,-0.38 0.8,-0.56 1.4,-0.56 0.59,0 1.05,0.17 1.37,0.52 0.32,0.35 0.48,0.85 0.48,1.51 0,0.19 -0.01,0.37 -0.02,0.54 h -3.04 v -0.73 h 2.02 c 0,-0.28 -0.07,-0.49 -0.21,-0.64 -0.14,-0.15 -0.34,-0.22 -0.6,-0.22 -0.28,0 -0.49,0.1 -0.64,0.29 -0.15,0.19 -0.23,0.48 -0.23,0.84 0,0.39 0.11,0.69 0.34,0.89 0.23,0.2 0.55,0.3 0.96,0.3 0.19,0 0.37,-0.01 0.55,-0.03 0.18,-0.02 0.37,-0.05 0.56,-0.08 l 0.1,1 c -0.27,0.05 -0.51,0.08 -0.73,0.09 -0.22,0.01 -0.39,0.02 -0.56,0.02 z"
   id="path138" />
</g>
<g
   id="g160">
	<path
   d="m 417.91,276.17 v -5.55 h 1.03 v 5.55 z m 0.94,-1.59 v -0.95 h 0.76 c 0.34,0 0.6,-0.09 0.79,-0.28 0.19,-0.19 0.28,-0.45 0.28,-0.79 0,-0.32 -0.09,-0.56 -0.28,-0.73 -0.19,-0.17 -0.45,-0.26 -0.79,-0.26 h -0.75 v -0.95 h 0.75 c 0.7,0 1.23,0.16 1.61,0.49 0.38,0.33 0.57,0.79 0.57,1.38 0,0.66 -0.19,1.17 -0.57,1.54 -0.38,0.37 -0.92,0.54 -1.61,0.54 h -0.76 z"
   id="path142" />
	<path
   d="m 422.29,276.17 v -0.91 h 2.9 v 0.91 z m 0.15,-3.24 v -0.91 H 424 l 0.08,0.91 z m 0.72,3.24 v -4.14 h 0.9 l 0.16,1.19 v 2.95 z m 1.06,-1.79 -0.24,-1.43 h 0.36 c 0.04,-0.67 0.39,-1.01 1.06,-1.01 0.39,0 0.69,0.14 0.9,0.43 0.21,0.29 0.31,0.71 0.31,1.25 h -1.05 c 0,-0.24 -0.04,-0.42 -0.13,-0.53 -0.09,-0.11 -0.23,-0.16 -0.44,-0.16 -0.26,0 -0.45,0.12 -0.58,0.38 -0.13,0.26 -0.19,0.61 -0.19,1.07 z"
   id="path144" />
	<path
   d="m 429.44,276.24 c -0.72,0 -1.27,-0.19 -1.66,-0.56 -0.39,-0.37 -0.59,-0.9 -0.59,-1.6 0,-0.68 0.17,-1.2 0.5,-1.58 0.33,-0.38 0.8,-0.56 1.4,-0.56 0.59,0 1.05,0.17 1.37,0.52 0.32,0.35 0.48,0.85 0.48,1.51 0,0.19 -0.01,0.37 -0.02,0.54 h -3.04 v -0.73 h 2.02 c 0,-0.28 -0.07,-0.49 -0.21,-0.64 -0.14,-0.15 -0.34,-0.22 -0.6,-0.22 -0.28,0 -0.49,0.1 -0.64,0.29 -0.15,0.19 -0.23,0.48 -0.23,0.84 0,0.39 0.11,0.69 0.34,0.89 0.23,0.2 0.55,0.3 0.96,0.3 0.19,0 0.37,-0.01 0.55,-0.03 0.18,-0.02 0.37,-0.05 0.56,-0.08 l 0.1,1 c -0.27,0.05 -0.51,0.08 -0.73,0.09 -0.22,0.01 -0.39,0.02 -0.56,0.02 z"
   id="path146" />
	<path
   d="m 434.25,276.24 c -0.75,0 -1.33,-0.19 -1.75,-0.56 -0.42,-0.37 -0.62,-0.9 -0.62,-1.6 0,-0.68 0.19,-1.2 0.56,-1.58 0.37,-0.38 0.91,-0.56 1.61,-0.56 0.43,0 0.79,0.08 1.1,0.25 0.31,0.17 0.52,0.4 0.65,0.71 l -0.77,0.61 c -0.11,-0.18 -0.26,-0.32 -0.44,-0.42 -0.18,-0.1 -0.37,-0.15 -0.58,-0.15 -0.32,0 -0.57,0.1 -0.75,0.29 -0.18,0.19 -0.27,0.46 -0.27,0.81 0,0.39 0.12,0.68 0.35,0.89 0.23,0.21 0.56,0.3 0.99,0.3 0.19,0 0.37,-0.01 0.56,-0.03 0.19,-0.02 0.37,-0.04 0.54,-0.07 l 0.11,0.99 c -0.21,0.05 -0.43,0.08 -0.65,0.09 -0.22,0.01 -0.43,0.03 -0.64,0.03 z"
   id="path148" />
	<path
   d="m 436.69,276.17 v -5.86 h 1.06 v 5.86 z m 2.45,0 v -2.5 c 0,-0.23 -0.05,-0.41 -0.15,-0.54 -0.1,-0.13 -0.25,-0.19 -0.44,-0.19 -0.53,0 -0.8,0.36 -0.8,1.09 l -0.24,-1.26 h 0.34 c 0.04,-0.28 0.13,-0.49 0.29,-0.62 0.16,-0.13 0.38,-0.21 0.69,-0.21 0.44,0 0.78,0.13 1.02,0.4 0.24,0.27 0.36,0.64 0.36,1.12 v 2.7 h -1.07 z"
   id="path150" />
	<path
   d="m 442.5,276.24 c -0.44,0 -0.78,-0.11 -1.03,-0.32 -0.25,-0.21 -0.37,-0.52 -0.37,-0.92 0,-0.46 0.16,-0.82 0.48,-1.07 0.32,-0.25 0.77,-0.37 1.36,-0.37 0.23,0 0.42,0.01 0.59,0.04 0.17,0.03 0.33,0.06 0.5,0.11 l -0.17,0.82 c -0.17,-0.04 -0.32,-0.06 -0.45,-0.07 -0.13,-0.01 -0.27,-0.01 -0.42,-0.01 -0.55,0 -0.82,0.16 -0.82,0.47 0,0.14 0.05,0.25 0.15,0.32 0.1,0.07 0.24,0.11 0.43,0.11 0.23,0 0.42,-0.04 0.57,-0.13 0.15,-0.09 0.27,-0.2 0.35,-0.33 0.08,-0.13 0.12,-0.27 0.12,-0.41 v -0.26 l 0.15,1.06 h -0.33 l 0.14,-0.12 c -0.01,0.24 -0.06,0.44 -0.16,0.6 -0.1,0.16 -0.24,0.28 -0.43,0.36 -0.19,0.08 -0.41,0.12 -0.66,0.12 z m 1.4,-0.04 -0.09,-1.23 -0.02,-0.54 v -0.81 c 0,-0.22 -0.09,-0.38 -0.28,-0.49 -0.19,-0.11 -0.47,-0.16 -0.84,-0.17 l -1.06,-0.03 0.08,-0.96 0.9,0.01 c 0.75,0.01 1.31,0.16 1.67,0.44 0.36,0.28 0.55,0.7 0.55,1.25 v 1.53 l 0.57,0.09 v 0.86 z"
   id="path152" />
	<path
   d="m 445.73,276.17 v -0.91 h 2.9 v 0.91 z m 0.15,-3.24 v -0.91 h 1.56 l 0.08,0.91 z m 0.72,3.24 v -4.14 h 0.9 l 0.16,1.19 v 2.95 z m 1.06,-1.79 -0.24,-1.43 h 0.36 c 0.04,-0.67 0.39,-1.01 1.06,-1.01 0.39,0 0.69,0.14 0.9,0.43 0.21,0.29 0.31,0.71 0.31,1.25 H 449 c 0,-0.24 -0.04,-0.42 -0.13,-0.53 -0.09,-0.11 -0.23,-0.16 -0.44,-0.16 -0.26,0 -0.45,0.12 -0.58,0.38 -0.13,0.26 -0.19,0.61 -0.19,1.07 z"
   id="path154" />
	<path
   d="m 452.1,276.24 c -0.51,0 -0.91,-0.19 -1.2,-0.55 -0.29,-0.36 -0.43,-0.9 -0.43,-1.59 0,-0.69 0.14,-1.21 0.43,-1.59 0.29,-0.38 0.69,-0.56 1.21,-0.56 0.31,0 0.55,0.07 0.72,0.21 0.17,0.14 0.27,0.34 0.32,0.62 h 0.3 l -0.24,1.32 c 0,-0.4 -0.07,-0.69 -0.2,-0.88 -0.13,-0.19 -0.34,-0.28 -0.61,-0.28 -0.26,0 -0.46,0.1 -0.6,0.3 -0.14,0.2 -0.21,0.49 -0.21,0.85 0,0.38 0.07,0.67 0.21,0.86 0.14,0.19 0.34,0.29 0.6,0.29 0.3,0 0.51,-0.09 0.63,-0.27 0.12,-0.18 0.18,-0.47 0.18,-0.88 l 0.28,1.32 h -0.37 c -0.04,0.28 -0.15,0.48 -0.32,0.62 -0.17,0.14 -0.41,0.21 -0.7,0.21 z m -1.22,1.79 -0.04,-0.92 1.33,-0.04 c 0.36,-0.01 0.63,-0.11 0.79,-0.3 0.16,-0.19 0.25,-0.47 0.25,-0.85 v -3.02 l 0.08,-0.88 h 0.98 v 3.77 c 0,0.74 -0.17,1.28 -0.52,1.63 -0.35,0.35 -0.9,0.54 -1.66,0.56 z"
   id="path156" />
	<path
   d="m 457.57,276.24 c -0.72,0 -1.27,-0.19 -1.66,-0.56 -0.39,-0.37 -0.59,-0.9 -0.59,-1.6 0,-0.68 0.17,-1.2 0.5,-1.58 0.33,-0.38 0.8,-0.56 1.4,-0.56 0.59,0 1.05,0.17 1.37,0.52 0.32,0.35 0.48,0.85 0.48,1.51 0,0.19 -0.01,0.37 -0.02,0.54 h -3.04 v -0.73 h 2.02 c 0,-0.28 -0.07,-0.49 -0.21,-0.64 -0.14,-0.15 -0.34,-0.22 -0.6,-0.22 -0.28,0 -0.49,0.1 -0.64,0.29 -0.15,0.19 -0.23,0.48 -0.23,0.84 0,0.39 0.11,0.69 0.34,0.89 0.23,0.2 0.55,0.3 0.96,0.3 0.19,0 0.37,-0.01 0.55,-0.03 0.18,-0.02 0.37,-0.05 0.56,-0.08 l 0.1,1 c -0.27,0.05 -0.51,0.08 -0.73,0.09 -0.22,0.01 -0.39,0.02 -0.56,0.02 z"
   id="path158" />
</g>
<circle
   class="st0"
   cx="787.10999"
   cy="145.77"
   r="11.34"
   id="circle162" />
<circle
   class="st0"
   cx="826.79999"
   cy="145.77"
   r="11.34"
   id="circle164" />
<rect
   x="679.39001"
   y="250.64999"
   class="st0"
   width="28.35"
   height="113.39"
   id="rect166" />
<rect
   x="903.33002"
   y="250.64999"
   class="st0"
   width="28.35"
   height="113.39"
   id="rect168" />
<g
   id="g186">
	<path
   d="m 406.61,222.31 v -9.71 h 1.8 v 9.71 z m 1.25,-4.77 v -0.67 h 2.69 v 0.67 z m 0.46,-0.47 v -0.72 h 1.32 c 0.42,0 0.74,-0.09 0.96,-0.28 0.22,-0.19 0.32,-0.46 0.32,-0.82 0,-0.33 -0.12,-0.58 -0.35,-0.74 -0.23,-0.16 -0.58,-0.25 -1.04,-0.25 h -1.2 l -0.16,-1.66 h 1.43 c 1.02,0 1.81,0.21 2.37,0.63 0.56,0.42 0.84,1.01 0.84,1.78 0,0.66 -0.22,1.17 -0.65,1.53 -0.43,0.36 -1.05,0.54 -1.84,0.54 h -2 z m 0,5.24 v -1.66 h 1.73 c 0.49,0 0.88,-0.12 1.15,-0.35 0.27,-0.23 0.41,-0.56 0.41,-0.98 0,-0.41 -0.14,-0.74 -0.43,-0.96 -0.29,-0.22 -0.69,-0.34 -1.22,-0.34 h -1.61 l -0.16,-0.72 h 2.68 c 0.84,0 1.49,0.21 1.95,0.62 0.46,0.41 0.69,0.99 0.69,1.74 0,0.85 -0.27,1.5 -0.8,1.97 -0.53,0.47 -1.28,0.7 -2.26,0.7 h -2.13 z"
   id="path170" />
	<path
   d="m 416.82,222.44 c -0.77,0 -1.37,-0.19 -1.8,-0.57 -0.43,-0.38 -0.64,-0.92 -0.64,-1.61 0,-0.81 0.28,-1.43 0.84,-1.87 0.56,-0.44 1.36,-0.65 2.39,-0.65 0.4,0 0.74,0.02 1.03,0.06 0.29,0.04 0.58,0.1 0.88,0.19 l -0.3,1.44 c -0.29,-0.07 -0.55,-0.11 -0.79,-0.12 -0.24,-0.01 -0.48,-0.02 -0.73,-0.02 -0.96,0 -1.44,0.27 -1.44,0.82 0,0.25 0.09,0.43 0.26,0.56 0.17,0.13 0.43,0.19 0.76,0.19 0.4,0 0.74,-0.08 1,-0.23 0.26,-0.15 0.47,-0.34 0.6,-0.57 0.13,-0.23 0.2,-0.47 0.2,-0.72 v -0.45 l 0.26,1.86 h -0.58 l 0.24,-0.22 c -0.01,0.42 -0.11,0.77 -0.29,1.05 -0.18,0.28 -0.43,0.49 -0.75,0.63 -0.32,0.14 -0.69,0.23 -1.14,0.23 z m 2.45,-0.06 -0.16,-2.15 -0.03,-0.94 v -1.42 c 0,-0.39 -0.17,-0.67 -0.5,-0.85 -0.33,-0.18 -0.82,-0.28 -1.47,-0.3 l -1.85,-0.05 0.14,-1.68 1.58,0.02 c 1.31,0.02 2.29,0.28 2.93,0.78 0.64,0.5 0.96,1.23 0.96,2.18 v 2.68 l 1,0.15 v 1.5 z"
   id="path172" />
	<path
   d="m 422.4,216.76 v -1.7 h 6.79 v 1.7 z m 1.74,2.01 v -5.9 h 1.85 v 5.9 z m 3.54,3.67 c -1.25,0 -2.15,-0.25 -2.71,-0.75 -0.56,-0.5 -0.83,-1.3 -0.83,-2.41 v -0.94 h 1.85 v 0.77 c 0,0.55 0.14,0.95 0.43,1.2 0.29,0.25 0.75,0.38 1.4,0.38 0.21,0 0.43,-0.01 0.67,-0.04 0.24,-0.03 0.51,-0.06 0.82,-0.1 l 0.16,1.73 c -0.3,0.05 -0.59,0.1 -0.88,0.12 -0.29,0.02 -0.58,0.04 -0.91,0.04 z"
   id="path174" />
	<path
   d="m 430.61,216.76 v -1.7 h 6.79 v 1.7 z m 1.73,2.01 v -5.9 h 1.85 v 5.9 z m 3.55,3.67 c -1.25,0 -2.15,-0.25 -2.71,-0.75 -0.56,-0.5 -0.83,-1.3 -0.83,-2.41 v -0.94 h 1.85 v 0.77 c 0,0.55 0.14,0.95 0.43,1.2 0.29,0.25 0.75,0.38 1.4,0.38 0.21,0 0.43,-0.01 0.67,-0.04 0.24,-0.03 0.51,-0.06 0.82,-0.1 l 0.16,1.73 c -0.3,0.05 -0.59,0.1 -0.88,0.12 -0.29,0.02 -0.59,0.04 -0.91,0.04 z"
   id="path176" />
	<path
   d="m 443.19,222.44 c -1.25,0 -2.22,-0.32 -2.91,-0.97 -0.69,-0.65 -1.03,-1.58 -1.03,-2.8 0,-1.19 0.29,-2.11 0.87,-2.76 0.58,-0.65 1.4,-0.98 2.46,-0.98 1.03,0 1.83,0.3 2.4,0.91 0.57,0.61 0.85,1.49 0.85,2.65 0,0.33 -0.01,0.64 -0.04,0.94 h -5.32 v -1.29 h 3.54 c 0,-0.49 -0.12,-0.86 -0.37,-1.12 -0.25,-0.26 -0.6,-0.39 -1.04,-0.39 -0.48,0 -0.86,0.17 -1.12,0.52 -0.26,0.35 -0.4,0.83 -0.4,1.47 0,0.68 0.2,1.2 0.59,1.56 0.39,0.36 0.96,0.53 1.69,0.53 0.33,0 0.65,-0.02 0.97,-0.05 0.32,-0.03 0.65,-0.08 0.98,-0.14 l 0.18,1.75 c -0.46,0.08 -0.89,0.13 -1.27,0.16 -0.38,0.03 -0.73,0.01 -1.03,0.01 z"
   id="path178" />
	<path
   d="m 447.08,222.31 v -1.59 h 5.07 v 1.59 z m 0.28,-5.66 v -1.59 h 2.73 l 0.14,1.59 z m 1.25,5.66 v -7.25 h 1.57 l 0.27,2.08 v 5.17 z m 1.85,-3.12 -0.42,-2.5 h 0.62 c 0.07,-1.18 0.69,-1.77 1.85,-1.77 0.69,0 1.22,0.25 1.58,0.76 0.36,0.51 0.55,1.23 0.55,2.19 h -1.84 c 0,-0.43 -0.08,-0.74 -0.24,-0.92 -0.16,-0.18 -0.41,-0.28 -0.76,-0.28 -0.45,0 -0.79,0.22 -1.01,0.66 -0.22,0.44 -0.33,1.05 -0.33,1.86 z"
   id="path180" />
	<path
   d="m 455.83,222.31 v -1.71 h 2.82 v 1.71 z m 0.41,-5.54 v -1.71 h 4.12 v 1.71 z m 3.11,-2.69 c -0.35,0 -0.64,-0.11 -0.85,-0.33 -0.21,-0.22 -0.33,-0.5 -0.33,-0.85 0,-0.35 0.11,-0.64 0.33,-0.85 0.22,-0.21 0.5,-0.33 0.85,-0.33 0.35,0 0.64,0.11 0.85,0.33 0.21,0.22 0.33,0.5 0.33,0.85 0,0.35 -0.11,0.64 -0.33,0.85 -0.22,0.21 -0.5,0.33 -0.85,0.33 z m -0.84,8.23 v -6.84 h 1.85 v 6.84 z m 1.71,0 v -1.71 h 2.28 v 1.71 z"
   id="path182" />
	<path
   d="m 467.8,222.44 c -1.25,0 -2.22,-0.32 -2.91,-0.97 -0.69,-0.65 -1.03,-1.58 -1.03,-2.8 0,-1.19 0.29,-2.11 0.87,-2.76 0.58,-0.65 1.4,-0.98 2.46,-0.98 1.03,0 1.83,0.3 2.4,0.91 0.57,0.61 0.85,1.49 0.85,2.65 0,0.33 -0.01,0.64 -0.04,0.94 h -5.32 v -1.29 h 3.54 c 0,-0.49 -0.12,-0.86 -0.37,-1.12 -0.25,-0.26 -0.6,-0.39 -1.04,-0.39 -0.48,0 -0.86,0.17 -1.12,0.52 -0.26,0.35 -0.4,0.83 -0.4,1.47 0,0.68 0.2,1.2 0.59,1.56 0.39,0.36 0.96,0.53 1.69,0.53 0.33,0 0.65,-0.02 0.97,-0.05 0.32,-0.03 0.65,-0.08 0.98,-0.14 l 0.18,1.75 c -0.46,0.08 -0.89,0.13 -1.27,0.16 -0.38,0.03 -0.73,0.01 -1.03,0.01 z"
   id="path184" />
</g>
<g
   id="g204">
	<path
   d="m 409.74,406.7 c -2.47,0 -3.7,-1.64 -3.7,-4.92 0,-3.37 1.23,-5.06 3.7,-5.06 2.46,0 3.7,1.69 3.7,5.06 0,3.28 -1.24,4.92 -3.7,4.92 z m 0,-1.73 c 1.2,0 1.8,-1.07 1.8,-3.2 0,-2.23 -0.6,-3.34 -1.8,-3.34 -1.2,0 -1.8,1.11 -1.8,3.34 -0.01,2.14 0.6,3.2 1.8,3.2 z"
   id="path188" />
	<path
   d="m 414.87,406.56 v -7.25 h 1.65 l 0.2,1.53 v 5.71 h -1.85 z m 4.29,0 v -4.26 c 0,-0.44 -0.09,-0.77 -0.27,-1.01 -0.18,-0.24 -0.44,-0.36 -0.77,-0.36 -0.93,0 -1.39,0.67 -1.39,2.01 l -0.42,-2.32 h 0.6 c 0.07,-0.49 0.23,-0.85 0.5,-1.09 0.26,-0.24 0.67,-0.36 1.2,-0.36 0.77,0 1.36,0.23 1.78,0.7 0.42,0.46 0.63,1.12 0.63,1.97 v 4.72 z"
   id="path190" />
	<path
   d="m 425.43,406.7 c -0.9,0 -1.6,-0.32 -2.1,-0.97 -0.5,-0.65 -0.75,-1.57 -0.75,-2.78 0,-1.2 0.25,-2.13 0.75,-2.78 0.5,-0.65 1.2,-0.98 2.11,-0.98 0.53,0 0.93,0.12 1.21,0.36 0.28,0.24 0.46,0.6 0.54,1.09 h 0.6 l -0.42,2.32 c 0,-0.7 -0.12,-1.21 -0.35,-1.54 -0.23,-0.32 -0.59,-0.49 -1.06,-0.49 -0.45,0 -0.8,0.18 -1.05,0.53 -0.25,0.35 -0.37,0.85 -0.37,1.49 0,0.67 0.12,1.17 0.36,1.5 0.24,0.33 0.59,0.51 1.06,0.51 0.53,0 0.9,-0.16 1.1,-0.48 0.21,-0.32 0.31,-0.83 0.31,-1.53 l 0.49,2.3 h -0.64 c -0.07,0.48 -0.26,0.85 -0.57,1.09 -0.31,0.24 -0.72,0.36 -1.22,0.36 z m 2.2,-0.07 -0.27,-1.44 v -8.89 h 1.85 v 10.25 z"
   id="path192" />
	<path
   d="m 433.29,406.7 c -0.69,0 -1.22,-0.23 -1.6,-0.68 -0.38,-0.45 -0.57,-1.09 -0.57,-1.92 v -4.79 h 1.85 v 4.33 c 0,0.41 0.09,0.73 0.28,0.96 0.19,0.23 0.45,0.34 0.78,0.34 0.43,0 0.76,-0.17 0.98,-0.5 0.22,-0.33 0.33,-0.9 0.33,-1.69 l 0.37,2.41 h -0.56 c -0.11,0.49 -0.33,0.87 -0.66,1.13 -0.33,0.26 -0.72,0.41 -1.2,0.41 z m 2.07,-2.19 v -5.2 h 1.85 v 4.79 z m 0.12,2.12 -0.12,-1.74 v -1.27 h 1.85 v 1.29 l 1,0.15 v 1.5 z"
   id="path194" />
	<path
   d="m 439,398.01 v -1.7 h 2.17 v 1.7 z m 4.63,8.69 c -0.91,0 -1.57,-0.25 -1.97,-0.75 -0.4,-0.5 -0.6,-1.3 -0.6,-2.41 v -7.23 h 1.85 v 7.16 c 0,0.3 0.03,0.55 0.1,0.74 0.06,0.19 0.19,0.33 0.37,0.42 0.18,0.09 0.45,0.14 0.81,0.14 0.4,0 0.91,-0.09 1.52,-0.26 l 0.21,1.9 c -0.39,0.1 -0.76,0.17 -1.12,0.22 -0.37,0.04 -0.76,0.07 -1.17,0.07 z"
   id="path196" />
	<path
   d="m 451.4,406.7 c -1.25,0 -2.22,-0.32 -2.91,-0.97 -0.69,-0.65 -1.03,-1.58 -1.03,-2.8 0,-1.19 0.29,-2.11 0.87,-2.76 0.58,-0.65 1.4,-0.98 2.46,-0.98 1.03,0 1.83,0.3 2.4,0.91 0.56,0.61 0.85,1.49 0.85,2.65 0,0.33 -0.01,0.64 -0.04,0.94 h -5.32 v -1.29 h 3.54 c 0,-0.49 -0.12,-0.86 -0.37,-1.12 -0.25,-0.26 -0.6,-0.39 -1.04,-0.39 -0.48,0 -0.86,0.17 -1.12,0.52 -0.26,0.35 -0.4,0.83 -0.4,1.47 0,0.68 0.2,1.2 0.59,1.56 0.39,0.36 0.96,0.53 1.69,0.53 0.33,0 0.65,-0.02 0.97,-0.05 0.32,-0.03 0.64,-0.08 0.98,-0.14 l 0.18,1.75 c -0.46,0.08 -0.89,0.13 -1.27,0.16 -0.38,0.03 -0.74,0.01 -1.03,0.01 z"
   id="path198" />
	<path
   d="m 457.9,406.7 c -0.69,0 -1.22,-0.23 -1.6,-0.68 -0.38,-0.45 -0.57,-1.09 -0.57,-1.92 v -4.79 h 1.85 v 4.33 c 0,0.41 0.09,0.73 0.28,0.96 0.19,0.23 0.45,0.34 0.78,0.34 0.43,0 0.76,-0.17 0.98,-0.5 0.22,-0.33 0.33,-0.9 0.33,-1.69 l 0.37,2.41 h -0.56 c -0.11,0.49 -0.33,0.87 -0.66,1.13 -0.33,0.26 -0.72,0.41 -1.2,0.41 z m 2.07,-2.19 v -5.2 h 1.85 v 4.79 z m 0.12,2.12 -0.12,-1.74 v -1.27 h 1.85 v 1.29 l 1,0.15 v 1.5 z"
   id="path200" />
	<path
   d="m 463.49,406.56 v -1.59 h 5.07 v 1.59 z m 0.27,-5.66 v -1.59 h 2.73 l 0.14,1.59 z m 1.26,5.66 v -7.25 h 1.57 l 0.27,2.08 v 5.17 z m 1.85,-3.12 -0.42,-2.5 h 0.62 c 0.07,-1.18 0.69,-1.77 1.85,-1.77 0.69,0 1.22,0.25 1.58,0.76 0.37,0.51 0.55,1.23 0.55,2.19 h -1.84 c 0,-0.43 -0.08,-0.74 -0.24,-0.92 -0.16,-0.18 -0.41,-0.28 -0.76,-0.28 -0.45,0 -0.79,0.22 -1.01,0.66 -0.22,0.43 -0.33,1.06 -0.33,1.86 z"
   id="path202" />
</g>
<g
   id="g214">
	<path
   d="m 734.89,146.23 v -1.66 h 7.34 v 1.66 z m 2.77,8.05 v -9.71 h 1.8 v 9.71 z"
   id="path206" />
	<path
   d="m 746.43,154.41 c -0.55,0 -1.09,-0.05 -1.61,-0.14 -0.52,-0.09 -0.98,-0.22 -1.39,-0.39 l 0.25,-1.85 c 0.5,0.21 1,0.37 1.49,0.49 0.5,0.11 0.95,0.17 1.37,0.17 0.49,0 0.86,-0.09 1.12,-0.26 0.26,-0.17 0.39,-0.42 0.39,-0.75 0,-0.42 -0.27,-0.76 -0.8,-1.01 l -1.39,-0.68 c -0.69,-0.34 -1.22,-0.75 -1.6,-1.25 -0.38,-0.5 -0.57,-1.05 -0.57,-1.65 0,-0.85 0.28,-1.5 0.84,-1.97 0.56,-0.47 1.35,-0.7 2.38,-0.7 0.6,0 1.16,0.1 1.7,0.31 0.54,0.21 1.01,0.51 1.43,0.91 l -1.24,1.43 c -0.31,-0.3 -0.63,-0.53 -0.95,-0.69 -0.32,-0.16 -0.63,-0.24 -0.92,-0.24 -0.4,0 -0.71,0.09 -0.94,0.26 -0.22,0.17 -0.33,0.42 -0.33,0.74 0,0.21 0.08,0.42 0.24,0.61 0.16,0.19 0.38,0.36 0.67,0.52 l 1.31,0.68 c 0.68,0.36 1.21,0.77 1.58,1.24 0.37,0.47 0.56,0.98 0.56,1.52 0,0.86 -0.31,1.53 -0.93,1.99 -0.64,0.48 -1.52,0.71 -2.66,0.71 z"
   id="path208" />
	<path
   d="m 751.05,154.28 2.8,-9.71 h 2.21 l 2.8,9.71 h -1.95 l -1.9,-7.33 h -0.12 l -1.9,7.33 z m 1.42,-1.84 v -1.67 h 4.92 v 1.67 z"
   id="path210" />
	<path
   d="m 760.04,154.28 v -9.71 h 1.8 v 9.71 z m 0,0 v -1.66 h 6.66 v 1.66 z"
   id="path212" />
</g>
<g
   id="g218">
	<path
   d="m 397.05,383.17 v 2.82 h 2.71 v 0.72 h -2.71 v 2.84 h -0.77 v -2.84 h -2.71 v -0.72 h 2.71 v -2.82 z"
   id="path216" />
</g>
<g
   id="g222">
	<path
   d="m 495.63,385.92 v 0.78 h -2.96 v -0.78 z"
   id="path220" />
</g>
<circle
   class="st0"
   cx="174.83"
   cy="279"
   r="11.34"
   id="circle224" />
<circle
   class="st0"
   cx="103.96"
   cy="279"
   r="11.34"
   id="circle226" />
<circle
   class="st0"
   cx="33.09"
   cy="279"
   r="11.34"
   id="circle228" />
<circle
   class="st0"
   cx="139.39"
   cy="335.69"
   r="11.34"
   id="circle230" />
<circle
   class="st0"
   cx="68.529999"
   cy="335.69"
   r="11.34"
   id="circle232" />
</svg>
