999
dxflib 2.0.4.6
  0
SECTION
  2
HEADER
  9
$ACADVER
  1
AC1015
  9
$HANDSEED
  5
FFFF
  9
$LWDISPLAY
290
1
999
mm
999
0
  9
$EXTMIN
 10
-2.000000
 20
-2.000000
 30
0
  9
$EXTMAX
 10
2.000000
 20
2.000000
 30
0
  0
ENDSEC
  0
SECTION
  2
TABLES
  0
TABLE
  2
VPORT
  5
8
100
AcDbSymbolTable
 70
1
  0
VPORT
  5
30
100
AcDbSymbolTableRecord
100
AcDbViewportTableRecord
  2
*Active
 70
0
 10
0.0
 20
0.0
 11
1.0
 21
1.0
 12
286.3055555555554861
 22
148.5
 13
0.0
 23
0.0
 14
10.0
 24
10.0
 15
10.0
 25
10.0
 16
0.0
 26
0.0
 36
1.0
 17
0.0
 27
0.0
 37
0.0
 40
297.0
 41
1.92798353909465
 42
50.0
 43
0.0
 44
0.0
 50
0.0
 51
0.0
 71
0
 72
100
 73
1
 74
3
 75
1
 76
1
 77
0
 78
0
281
0
 65
1
110
0.0
120
0.0
130
0.0
111
1.0
121
0.0
131
0.0
112
0.0
122
1.0
132
0.0
 79
0
146
0.0
  0
ENDTAB
  0
TABLE
  2
LTYPE
  5
5
100
AcDbSymbolTable
 70
9
  0
LTYPE
  5
14
100
AcDbSymbolTableRecord
100
AcDbLinetypeTableRecord
  2
BYBLOCK
 70
0
  3

 72
65
 73
0
 40
0.0
  0
LTYPE
  5
15
100
AcDbSymbolTableRecord
100
AcDbLinetypeTableRecord
  2
BYLAYER
 70
0
  3

 72
65
 73
0
 40
0.0
  0
LTYPE
  5
16
100
AcDbSymbolTableRecord
100
AcDbLinetypeTableRecord
  2
CONTINUOUS
 70
0
  3
Solid line
 72
65
 73
0
 40
0.0
  0
LTYPE
  5
31
100
AcDbSymbolTableRecord
100
AcDbLinetypeTableRecord
  2
BORDER
 70
0
  3
Border __ __ . __ __ . __ __ . __ __ . __ __ .
 72
65
 73
6
 40
44.4500000000000028
 49
12.6999999999999993
 74
0
 49
-6.3499999999999996
 74
0
 49
12.6999999999999993
 74
0
 49
-6.3499999999999996
 74
0
 49
0.0
 74
0
 49
-6.3499999999999996
 74
0
  0
LTYPE
  5
32
100
AcDbSymbolTableRecord
100
AcDbLinetypeTableRecord
  2
CENTRE
 70
0
  0
LTYPE
  5
33
100
AcDbSymbolTableRecord
100
AcDbLinetypeTableRecord
  2
DASHDOT
 70
0
  3
Dash dot __ . __ . __ . __ . __ . __ . __ . __
 72
65
 73
4
 40
6.0
 49
2.0
 74
0
 49
-2.0
 74
0
 49
0.0
 74
0
 49
-2.0
 74
0
  0
LTYPE
  5
34
100
AcDbSymbolTableRecord
100
AcDbLinetypeTableRecord
  2
DASHED
 70
0
  3
Dashed __ __ __ __ __ __ __ __ __ __ __ __ __ _
 72
65
 73
2
 40
5.0
 49
3.5
 74
0
 49
-3.5
 74
0
  0
LTYPE
  5
35
100
AcDbSymbolTableRecord
100
AcDbLinetypeTableRecord
  2
DIVIDE
 70
0
  3
Divide ____ . . ____ . . ____ . . ____ . . ____
 72
65
 73
6
 40
31.75
 49
12.6999999999999993
 74
0
 49
-6.3499999999999996
 74
0
 49
0.0
 74
0
 49
-6.3499999999999996
 74
0
 49
0.0
 74
0
 49
-6.3499999999999996
 74
0
  0
LTYPE
  5
36
100
AcDbSymbolTableRecord
100
AcDbLinetypeTableRecord
  2
DOT
 70
0
  3
Dot . . . . . . . . . . . . . . . . . . . . . .
 72
65
 73
2
 40
1.0
 49
0.1
 74
0
 49
-1.0
 74
0
  0
ENDTAB
  0
TABLE
  2
LAYER
  5
2
100
AcDbSymbolTable
 70
2
  0
LAYER
  5
10
100
AcDbSymbolTableRecord
100
AcDbLayerTableRecord
  2
0
 70
0
 62
250
  6
CONTINUOUS
370
100
390
F
  0
LAYER
  5
37
100
AcDbSymbolTableRecord
100
AcDbLayerTableRecord
  2
KISS
 70
0
 62
250
  6
CONTINUOUS
370
100
390
F
  0
ENDTAB
  0
TABLE
  2
STYLE
  5
3
100
AcDbSymbolTable
 70
1
  0
STYLE
  5
11
100
AcDbSymbolTableRecord
100
AcDbTextStyleTableRecord
  2
Standard
 70
0
 40
0.0
 41
1.0
 50
0.0
 71
0
 42
2.5
  3
txt
  4

  0
ENDTAB
  0
TABLE
  2
VIEW
  5
6
100
AcDbSymbolTable
 70
0
  0
ENDTAB
  0
TABLE
  2
UCS
  5
7
100
AcDbSymbolTable
 70
0
  0
ENDTAB
  0
TABLE
  2
APPID
  5
9
100
AcDbSymbolTable
 70
1
  0
APPID
  5
12
100
AcDbSymbolTableRecord
100
AcDbRegAppTableRecord
  2
ACAD
 70
0
  0
ENDTAB
  0
TABLE
  2
DIMSTYLE
  5
A
100
AcDbSymbolTable
 70
1
100
AcDbDimStyleTable
 71
0
  0
DIMSTYLE
105
27
100
AcDbSymbolTableRecord
100
AcDbDimStyleTableRecord
  2
Standard
 41
0.0
 42
0.0
 43
3.75
 44
0.0
 70
0
 73
0
 74
0
 77
1
 78
8
140
0.0
141
2.5
143
0.03937007874016
147
0.0
171
3
172
1
271
2
272
2
274
3
278
44
283
0
284
8
340
11
  0
ENDTAB
  0
TABLE
  2
BLOCK_RECORD
  5
1
100
AcDbSymbolTable
 70
1
  0
BLOCK_RECORD
  5
1F
100
AcDbSymbolTableRecord
100
AcDbBlockTableRecord
  2
*Model_Space
340
22
  0
BLOCK_RECORD
  5
1B
100
AcDbSymbolTableRecord
100
AcDbBlockTableRecord
  2
*Paper_Space
340
1E
  0
BLOCK_RECORD
  5
23
100
AcDbSymbolTableRecord
100
AcDbBlockTableRecord
  2
*Paper_Space0
340
26
  0
ENDTAB
  0
ENDSEC
  0
SECTION
  2
BLOCKS
  0
BLOCK
  5
20
100
AcDbEntity
  8
0
100
AcDbBlockBegin
  2
*Model_Space
 70
0
 10
0.0
 20
0.0
 30
0.0
  3
*Model_Space
  1

  0
ENDBLK
  5
21
100
AcDbEntity
  8
0
100
AcDbBlockEnd
  0
BLOCK
  5
1C
100
AcDbEntity
 67
1
  8
0
100
AcDbBlockBegin
  2
*Paper_Space
 70
0
 10
0.0
 20
0.0
 30
0.0
  3
*Paper_Space
  1

  0
ENDBLK
  5
1D
100
AcDbEntity
 67
1
  8
0
100
AcDbBlockEnd
  0
BLOCK
  5
24
100
AcDbEntity
  8
0
100
AcDbBlockBegin
  2
*Paper_Space0
 70
0
 10
0.0
 20
0.0
 30
0.0
  3
*Paper_Space0
  1

  0
ENDBLK
  5
25
100
AcDbEntity
  8
0
100
AcDbBlockEnd
  0
ENDSEC
  0
SECTION
  2
ENTITIES
  0
ARC
  5
38
100
AcDbEntity
  8
KISS
 62
168
370
0
  6
CONTINUOUS
100
AcDbCircle
 10
0.0
 20
0.0
 30
0.0
 40
46.1049999999999969
100
AcDbArc
 50
268.1155314273565864
 51
270.0
  0
ARC
  5
39
100
AcDbEntity
  8
KISS
 62
168
370
0
  6
CONTINUOUS
100
AcDbCircle
 10
-20.6621706146006865
 20
-36.0941323403752961
 30
0.0
 40
21.5937440095730153
100
AcDbArc
 50
326.5708705691500313
 51
332.4549675537160738
  0
ARC
  5
3A
100
AcDbEntity
  8
KISS
 62
168
370
0
  6
CONTINUOUS
100
AcDbCircle
 10
-4.5999460080371
 20
-46.7042921651016556
 30
0.0
 40
2.3435439124740371
100
AcDbArc
 50
264.3750307029667965
 51
326.7209121882646059
  0
ARC
  5
3B
100
AcDbEntity
  8
KISS
 62
168
370
0
  6
CONTINUOUS
100
AcDbCircle
 10
-4.5999960626926368
 20
-46.7042872351483922
 30
0.0
 40
2.3435439124740371
100
AcDbArc
 50
202.0290878117355078
 51
264.3749692970332603
  0
ARC
  5
3C
100
AcDbEntity
  8
KISS
 62
168
370
0
  6
CONTINUOUS
100
AcDbCircle
 10
13.2235368988040687
 20
-39.4315832271208961
 30
0.0
 40
21.5937440095731077
100
AcDbArc
 50
196.2950324462839546
 51
202.1791294308499687
  0
ARC
  5
3D
100
AcDbEntity
  8
KISS
 62
168
370
0
  6
CONTINUOUS
100
AcDbCircle
 10
0.0
 20
0.0
 30
0.0
 40
46.105000000000004
100
AcDbArc
 50
258.7500000000000568
 51
260.6344685726434136
  0
ARC
  5
3E
100
AcDbEntity
  8
KISS
 62
168
370
0
  6
CONTINUOUS
100
AcDbCircle
 10
0.0
 20
0.0
 30
0.0
 40
46.1049999999999898
100
AcDbArc
 50
256.8655314273565864
 51
258.75
  0
ARC
  5
3F
100
AcDbEntity
  8
KISS
 62
168
370
0
  6
CONTINUOUS
100
AcDbCircle
 10
-27.3067687011570968
 20
-31.3696041896116569
 30
0.0
 40
21.5937440095730153
100
AcDbArc
 50
315.3208705691499745
 51
321.2049675537160169
  0
ARC
  5
40
100
AcDbEntity
  8
KISS
 62
168
370
0
  6
CONTINUOUS
100
AcDbCircle
 10
-13.6231147333574167
 20
-44.9094773392188671
 30
0.0
 40
2.3435439124740394
100
AcDbArc
 50
253.1250307029667397
 51
315.4709121882644922
  0
ARC
  5
41
100
AcDbEntity
  8
KISS
 62
168
370
0
  6
CONTINUOUS
100
AcDbCircle
 10
-13.623162864440614
 20
-44.9094627388143977
 30
0.0
 40
2.343543912474034
100
AcDbArc
 50
190.7790878117354509
 51
253.1249692970331751
  0
ARC
  5
42
100
AcDbEntity
  8
KISS
 62
168
370
0
  6
CONTINUOUS
100
AcDbCircle
 10
5.2767300758312263
 20
-41.2537004839349351
 30
0.0
 40
21.5937440095731077
100
AcDbArc
 50
185.0450324462839831
 51
190.9291294308499403
  0
ARC
  5
43
100
AcDbEntity
  8
KISS
 62
168
370
0
  6
CONTINUOUS
100
AcDbCircle
 10
0.0
 20
0.0
 30
0.0
 40
46.105000000000004
100
AcDbArc
 50
247.5000000000000284
 51
249.3844685726434136
  0
ARC
  5
44
100
AcDbEntity
  8
KISS
 62
168
370
0
  6
CONTINUOUS
100
AcDbCircle
 10
0.0
 20
0.0
 30
0.0
 40
46.1049999999999969
100
AcDbArc
 50
245.6155314273565864
 51
247.4999999999999716
  0
ARC
  5
45
100
AcDbEntity
  8
KISS
 62
168
370
0
  6
CONTINUOUS
100
AcDbCircle
 10
-32.9019829803403425
 20
-25.4395597421179538
 30
0.0
 40
21.5937440095730153
100
AcDbArc
 50
304.0708705691500313
 51
309.9549675537160738
  0
ARC
  5
46
100
AcDbEntity
  8
KISS
 62
168
370
0
  6
CONTINUOUS
100
AcDbCircle
 10
-22.1227547994055485
 20
-41.3888164847149369
 30
0.0
 40
2.3435439124740363
100
AcDbArc
 50
241.8750307029667681
 51
304.2209121882644922
  0
ARC
  5
47
100
AcDbEntity
  8
KISS
 62
168
370
0
  6
CONTINUOUS
100
AcDbCircle
 10
-22.1227991572658702
 20
-41.3887927749446334
 30
0.0
 40
2.3435439124740367
100
AcDbArc
 50
179.5290878117355078
 51
241.8749692970332319
  0
ARC
  5
48
100
AcDbEntity
  8
KISS
 62
168
370
0
  6
CONTINUOUS
100
AcDbCircle
 10
-2.8728585247314751
 20
-41.4904611664931053
 30
0.0
 40
21.5937440095731077
100
AcDbArc
 50
173.7950324462839831
 51
179.6791294308499687
  0
ARC
  5
49
100
AcDbEntity
  8
KISS
 62
168
370
0
  6
CONTINUOUS
100
AcDbCircle
 10
0.0
 20
0.0
 30
0.0
 40
46.105000000000004
100
AcDbArc
 50
236.25
 51
238.1344685726434136
  0
ARC
  5
4A
100
AcDbEntity
  8
KISS
 62
168
370
0
  6
CONTINUOUS
100
AcDbCircle
 10
0.0
 20
0.0
 30
0.0
 40
46.1049999999999969
100
AcDbArc
 50
234.3655314273566148
 51
236.25
  0
ARC
  5
4B
100
AcDbEntity
  8
KISS
 62
168
370
0
  6
CONTINUOUS
100
AcDbCircle
 10
-37.2327925052337321
 20
-18.5318872804041312
 30
0.0
 40
21.5937440095730153
100
AcDbArc
 50
292.8208705691500882
 51
298.7049675537160738
  0
ARC
  5
4C
100
AcDbEntity
  8
KISS
 62
168
370
0
  6
CONTINUOUS
100
AcDbCircle
 10
-29.7722298050963516
 20
-36.2776066238191248
 30
0.0
 40
2.3435439124740363
100
AcDbArc
 50
230.6250307029667113
 51
292.9709121882645491
  0
ARC
  5
4D
100
AcDbEntity
  8
KISS
 62
168
370
0
  6
CONTINUOUS
100
AcDbCircle
 10
-29.7722686850861002
 20
-36.2775747158361526
 30
0.0
 40
2.3435439124740398
100
AcDbArc
 50
168.2790878117355646
 51
230.6249692970332603
  0
ARC
  5
4E
100
AcDbEntity
  8
KISS
 62
168
370
0
  6
CONTINUOUS
100
AcDbCircle
 10
-10.9120447833063654
 20
-40.132766694541651
 30
0.0
 40
21.5937440095731077
100
AcDbArc
 50
162.5450324462840115
 51
168.4291294308499971
  0
ARC
  5
4F
100
AcDbEntity
  8
KISS
 62
168
370
0
  6
CONTINUOUS
100
AcDbCircle
 10
0.0
 20
0.0
 30
0.0
 40
46.105000000000004
100
AcDbArc
 50
225.0000000000000284
 51
226.8844685726434136
  0
ARC
  5
50
100
AcDbEntity
  8
KISS
 62
168
370
0
  6
CONTINUOUS
100
AcDbCircle
 10
0.0
 20
0.0
 30
0.0
 40
46.105000000000004
100
AcDbArc
 50
223.1155314273565864
 51
225.0
  0
ARC
  5
51
100
AcDbEntity
  8
KISS
 62
168
370
0
  6
CONTINUOUS
100
AcDbCircle
 10
-40.1327666945416013
 20
-10.9120447833064809
 30
0.0
 40
21.5937440095730153
100
AcDbArc
 50
281.5708705691499745
 51
287.4549675537160738
  0
ARC
  5
52
100
AcDbEntity
  8
KISS
 62
168
370
0
  6
CONTINUOUS
100
AcDbCircle
 10
-36.2775747158361384
 20
-29.7722686850861038
 30
0.0
 40
2.3435439124740349
100
AcDbArc
 50
219.3750307029667113
 51
281.7209121882646627
  0
ARC
  5
53
100
AcDbEntity
  8
KISS
 62
168
370
0
  6
CONTINUOUS
100
AcDbCircle
 10
-36.2776066238191177
 20
-29.7722298050963552
 30
0.0
 40
2.3435439124740358
100
AcDbArc
 50
157.0290878117354509
 51
219.3749692970332603
  0
ARC
  5
54
100
AcDbEntity
  8
KISS
 62
168
370
0
  6
CONTINUOUS
100
AcDbCircle
 10
-18.5318872804040282
 20
-37.2327925052338031
 30
0.0
 40
21.5937440095731112
100
AcDbArc
 50
151.2950324462839831
 51
157.1791294308499687
  0
ARC
  5
55
100
AcDbEntity
  8
KISS
 62
168
370
0
  6
CONTINUOUS
100
AcDbCircle
 10
0.0
 20
0.0
 30
0.0
 40
46.105000000000004
100
AcDbArc
 50
213.75
 51
215.634468572643442
  0
ARC
  5
56
100
AcDbEntity
  8
KISS
 62
168
370
0
  6
CONTINUOUS
100
AcDbCircle
 10
0.0
 20
0.0
 30
0.0
 40
46.1049999999999969
100
AcDbArc
 50
211.8655314273565864
 51
213.7499999999999716
  0
ARC
  5
57
100
AcDbEntity
  8
KISS
 62
168
370
0
  6
CONTINUOUS
100
AcDbCircle
 10
-41.490461166493084
 20
-2.8728585247315799
 30
0.0
 40
21.5937440095730153
100
AcDbArc
 50
270.3208705691500313
 51
276.2049675537159601
  0
ARC
  5
58
100
AcDbEntity
  8
KISS
 62
168
370
0
  6
CONTINUOUS
100
AcDbCircle
 10
-41.3887927749446334
 20
-22.1227991572658524
 30
0.0
 40
2.3435439124740385
100
AcDbArc
 50
208.1250307029667681
 51
270.4709121882645491
  0
ARC
  5
59
100
AcDbEntity
  8
KISS
 62
168
370
0
  6
CONTINUOUS
100
AcDbCircle
 10
-41.3888164847149511
 20
-22.1227547994055342
 30
0.0
 40
2.3435439124740349
100
AcDbArc
 50
145.7790878117354794
 51
208.1249692970332319
  0
ARC
  5
5A
100
AcDbEntity
  8
KISS
 62
168
370
0
  6
CONTINUOUS
100
AcDbCircle
 10
-25.4395597421178792
 20
-32.9019829803404136
 30
0.0
 40
21.5937440095731112
100
AcDbArc
 50
140.0450324462839831
 51
145.9291294308499687
  0
ARC
  5
5B
100
AcDbEntity
  8
KISS
 62
168
370
0
  6
CONTINUOUS
100
AcDbCircle
 10
0.0
 20
0.0
 30
0.0
 40
46.1049999999999969
100
AcDbArc
 50
202.5000000000000284
 51
204.3844685726433852
  0
ARC
  5
5C
100
AcDbEntity
  8
KISS
 62
168
370
0
  6
CONTINUOUS
100
AcDbCircle
 10
0.0
 20
0.0
 30
0.0
 40
46.105000000000004
100
AcDbArc
 50
200.6155314273565864
 51
202.4999999999999716
  0
ARC
  5
5D
100
AcDbEntity
  8
KISS
 62
168
370
0
  6
CONTINUOUS
100
AcDbCircle
 10
-41.2537004839349279
 20
5.2767300758311197
 30
0.0
 40
21.5937440095730118
100
AcDbArc
 50
259.0708705691499745
 51
264.9549675537160169
  0
ARC
  5
5E
100
AcDbEntity
  8
KISS
 62
168
370
0
  6
CONTINUOUS
100
AcDbCircle
 10
-44.9094627388143977
 20
-13.623162864440598
 30
0.0
 40
2.343543912474038
100
AcDbArc
 50
196.8750307029667397
 51
259.2209121882645491
  0
ARC
  5
5F
100
AcDbEntity
  8
KISS
 62
168
370
0
  6
CONTINUOUS
100
AcDbCircle
 10
-44.9094773392188671
 20
-13.6231147333574043
 30
0.0
 40
2.3435439124740367
100
AcDbArc
 50
134.5290878117355078
 51
196.8749692970332319
  0
ARC
  5
60
100
AcDbEntity
  8
KISS
 62
168
370
0
  6
CONTINUOUS
100
AcDbCircle
 10
-31.3696041896115929
 20
-27.306768701157182
 30
0.0
 40
21.5937440095731077
100
AcDbArc
 50
128.7950324462839831
 51
134.6791294308499687
  0
ARC
  5
61
100
AcDbEntity
  8
KISS
 62
168
370
0
  6
CONTINUOUS
100
AcDbCircle
 10
0.0
 20
0.0
 30
0.0
 40
46.105000000000004
100
AcDbArc
 50
191.25
 51
193.1344685726434136
  0
ARC
  5
62
100
AcDbEntity
  8
KISS
 62
168
370
0
  6
CONTINUOUS
100
AcDbCircle
 10
0.0
 20
0.0
 30
0.0
 40
46.1049999999999969
100
AcDbArc
 50
189.365531427356558
 51
191.25
  0
ARC
  5
63
100
AcDbEntity
  8
KISS
 62
168
370
0
  6
CONTINUOUS
100
AcDbCircle
 10
-39.4315832271209246
 20
13.2235368988039568
 30
0.0
 40
21.5937440095730153
100
AcDbArc
 50
247.8208705691500029
 51
253.7049675537160738
  0
ARC
  5
64
100
AcDbEntity
  8
KISS
 62
168
370
0
  6
CONTINUOUS
100
AcDbCircle
 10
-46.7042872351483851
 20
-4.5999960626926324
 30
0.0
 40
2.3435439124740358
100
AcDbArc
 50
185.6250307029667397
 51
247.9709121882646627
  0
ARC
  5
65
100
AcDbEntity
  8
KISS
 62
168
370
0
  6
CONTINUOUS
100
AcDbCircle
 10
-46.7042921651016556
 20
-4.5999460080370973
 30
0.0
 40
2.3435439124740398
100
AcDbArc
 50
123.2790878117354367
 51
185.6249692970332035
  0
ARC
  5
66
100
AcDbEntity
  8
KISS
 62
168
370
0
  6
CONTINUOUS
100
AcDbCircle
 10
-36.0941323403752463
 20
-20.6621706146007931
 30
0.0
 40
21.5937440095731077
100
AcDbArc
 50
117.5450324462839973
 51
123.4291294308499687
  0
ARC
  5
67
100
AcDbEntity
  8
KISS
 62
168
370
0
  6
CONTINUOUS
100
AcDbCircle
 10
0.0
 20
0.0
 30
0.0
 40
46.105000000000004
100
AcDbArc
 50
180.0000000000000284
 51
181.8844685726434136
  0
ARC
  5
68
100
AcDbEntity
  8
KISS
 62
168
370
0
  6
CONTINUOUS
100
AcDbCircle
 10
0.0
 20
0.0
 30
0.0
 40
46.1049999999999969
100
AcDbArc
 50
178.1155314273566148
 51
180.0
  0
ARC
  5
69
100
AcDbEntity
  8
KISS
 62
168
370
0
  6
CONTINUOUS
100
AcDbCircle
 10
-36.0941323403752961
 20
20.6621706146006865
 30
0.0
 40
21.5937440095730153
100
AcDbArc
 50
236.5708705691500597
 51
242.4549675537159885
  0
ARC
  5
6A
100
AcDbEntity
  8
KISS
 62
168
370
0
  6
CONTINUOUS
100
AcDbCircle
 10
-46.7042921651016556
 20
4.5999460080370973
 30
0.0
 40
2.3435439124740371
100
AcDbArc
 50
174.3750307029667681
 51
236.7209121882645775
  0
ARC
  5
6B
100
AcDbEntity
  8
KISS
 62
168
370
0
  6
CONTINUOUS
100
AcDbCircle
 10
-46.7042872351483922
 20
4.5999960626926342
 30
0.0
 40
2.3435439124740371
100
AcDbArc
 50
112.0290878117355078
 51
174.3749692970332319
  0
ARC
  5
6C
100
AcDbEntity
  8
KISS
 62
168
370
0
  6
CONTINUOUS
100
AcDbCircle
 10
-39.4315832271208961
 20
-13.2235368988040722
 30
0.0
 40
21.5937440095731077
100
AcDbArc
 50
106.2950324462839973
 51
112.1791294308499829
  0
ARC
  5
6D
100
AcDbEntity
  8
KISS
 62
168
370
0
  6
CONTINUOUS
100
AcDbCircle
 10
0.0
 20
0.0
 30
0.0
 40
46.105000000000004
100
AcDbArc
 50
168.7500000000000284
 51
170.634468572643442
  0
ARC
  5
6E
100
AcDbEntity
  8
KISS
 62
168
370
0
  6
CONTINUOUS
100
AcDbCircle
 10
0.0
 20
0.0
 30
0.0
 40
46.105000000000004
100
AcDbArc
 50
166.8655314273565864
 51
168.75
  0
ARC
  5
6F
100
AcDbEntity
  8
KISS
 62
168
370
0
  6
CONTINUOUS
100
AcDbCircle
 10
-31.369604189611664
 20
27.3067687011570897
 30
0.0
 40
21.5937440095730153
100
AcDbArc
 50
225.3208705691500313
 51
231.2049675537160454
  0
ARC
  5
70
100
AcDbEntity
  8
KISS
 62
168
370
0
  6
CONTINUOUS
100
AcDbCircle
 10
-44.9094773392188671
 20
13.6231147333574043
 30
0.0
 40
2.3435439124740394
100
AcDbArc
 50
163.1250307029667681
 51
225.4709121882644922
  0
ARC
  5
71
100
AcDbEntity
  8
KISS
 62
168
370
0
  6
CONTINUOUS
100
AcDbCircle
 10
-44.9094627388144048
 20
13.6231628644405998
 30
0.0
 40
2.343543912474034
100
AcDbArc
 50
100.7790878117354652
 51
163.1249692970332035
  0
ARC
  5
72
100
AcDbEntity
  8
KISS
 62
168
370
0
  6
CONTINUOUS
100
AcDbCircle
 10
-41.2537004839349279
 20
-5.276730075831237
 30
0.0
 40
21.5937440095731077
100
AcDbArc
 50
95.0450324462839973
 51
100.9291294308499829
  0
ARC
  5
73
100
AcDbEntity
  8
KISS
 62
168
370
0
  6
CONTINUOUS
100
AcDbCircle
 10
0.0
 20
0.0
 30
0.0
 40
46.105000000000004
100
AcDbArc
 50
157.5000000000000284
 51
159.3844685726434136
  0
ARC
  5
74
100
AcDbEntity
  8
KISS
 62
168
370
0
  6
CONTINUOUS
100
AcDbCircle
 10
0.0
 20
0.0
 30
0.0
 40
46.105000000000004
100
AcDbArc
 50
155.6155314273565864
 51
157.5
  0
ARC
  5
75
100
AcDbEntity
  8
KISS
 62
168
370
0
  6
CONTINUOUS
100
AcDbCircle
 10
-25.4395597421179573
 20
32.9019829803403354
 30
0.0
 40
21.5937440095730153
100
AcDbArc
 50
214.0708705691500313
 51
219.9549675537160169
  0
ARC
  5
76
100
AcDbEntity
  8
KISS
 62
168
370
0
  6
CONTINUOUS
100
AcDbCircle
 10
-41.3888164847149369
 20
22.1227547994055449
 30
0.0
 40
2.3435439124740385
100
AcDbArc
 50
151.8750307029667681
 51
214.2209121882645775
  0
ARC
  5
77
100
AcDbEntity
  8
KISS
 62
168
370
0
  6
CONTINUOUS
100
AcDbCircle
 10
-41.3887927749446334
 20
22.1227991572658667
 30
0.0
 40
2.3435439124740367
100
AcDbArc
 50
89.5290878117354794
 51
151.8749692970332319
  0
ARC
  5
78
100
AcDbEntity
  8
KISS
 62
168
370
0
  6
CONTINUOUS
100
AcDbCircle
 10
-41.4904611664931053
 20
2.8728585247314715
 30
0.0
 40
21.5937440095731077
100
AcDbArc
 50
83.7950324462839831
 51
89.6791294308499829
  0
ARC
  5
79
100
AcDbEntity
  8
KISS
 62
168
370
0
  6
CONTINUOUS
100
AcDbCircle
 10
0.0
 20
0.0
 30
0.0
 40
46.105000000000004
100
AcDbArc
 50
146.2500000000000284
 51
148.134468572643442
  0
ARC
  5
7A
100
AcDbEntity
  8
KISS
 62
168
370
0
  6
CONTINUOUS
100
AcDbCircle
 10
0.0
 20
0.0
 30
0.0
 40
46.105000000000004
100
AcDbArc
 50
144.3655314273565864
 51
146.25
  0
ARC
  5
7B
100
AcDbEntity
  8
KISS
 62
168
370
0
  6
CONTINUOUS
100
AcDbCircle
 10
-18.5318872804041277
 20
37.2327925052337392
 30
0.0
 40
21.5937440095730189
100
AcDbArc
 50
202.8208705691500029
 51
208.7049675537160454
  0
ARC
  5
7C
100
AcDbEntity
  8
KISS
 62
168
370
0
  6
CONTINUOUS
100
AcDbCircle
 10
-36.2776066238191106
 20
29.7722298050963552
 30
0.0
 40
2.3435439124740363
100
AcDbArc
 50
140.6250307029667397
 51
202.9709121882645491
  0
ARC
  5
7D
100
AcDbEntity
  8
KISS
 62
168
370
0
  6
CONTINUOUS
100
AcDbCircle
 10
-36.2775747158361455
 20
29.7722686850861074
 30
0.0
 40
2.3435439124740398
100
AcDbArc
 50
78.2790878117355646
 51
140.6249692970332887
  0
ARC
  5
7E
100
AcDbEntity
  8
KISS
 62
168
370
0
  6
CONTINUOUS
100
AcDbCircle
 10
-40.1327666945416439
 20
10.9120447833063707
 30
0.0
 40
21.5937440095731077
100
AcDbArc
 50
72.5450324462839973
 51
78.4291294308499829
  0
ARC
  5
7F
100
AcDbEntity
  8
KISS
 62
168
370
0
  6
CONTINUOUS
100
AcDbCircle
 10
0.0
 20
0.0
 30
0.0
 40
46.105000000000004
100
AcDbArc
 50
135.0000000000000568
 51
136.884468572643442
  0
ARC
  5
80
100
AcDbEntity
  8
KISS
 62
168
370
0
  6
CONTINUOUS
100
AcDbCircle
 10
0.0
 20
0.0
 30
0.0
 40
46.105000000000004
100
AcDbArc
 50
133.1155314273566148
 51
135.0
  0
ARC
  5
81
100
AcDbEntity
  8
KISS
 62
168
370
0
  6
CONTINUOUS
100
AcDbCircle
 10
-10.912044783306488
 20
40.1327666945416013
 30
0.0
 40
21.5937440095730153
100
AcDbArc
 50
191.5708705691500313
 51
197.4549675537160169
  0
ARC
  5
82
100
AcDbEntity
  8
KISS
 62
168
370
0
  6
CONTINUOUS
100
AcDbCircle
 10
-29.7722686850861038
 20
36.2775747158361384
 30
0.0
 40
2.3435439124740349
100
AcDbArc
 50
129.3750307029667397
 51
191.7209121882646059
  0
ARC
  5
83
100
AcDbEntity
  8
KISS
 62
168
370
0
  6
CONTINUOUS
100
AcDbCircle
 10
-29.7722298050963623
 20
36.2776066238191177
 30
0.0
 40
2.3435439124740358
100
AcDbArc
 50
67.0290878117354367
 51
129.3749692970332887
  0
ARC
  5
84
100
AcDbEntity
  8
KISS
 62
168
370
0
  6
CONTINUOUS
100
AcDbCircle
 10
-37.2327925052338031
 20
18.5318872804040247
 30
0.0
 40
21.5937440095731041
100
AcDbArc
 50
61.2950324462839831
 51
67.1791294308499829
  0
ARC
  5
85
100
AcDbEntity
  8
KISS
 62
168
370
0
  6
CONTINUOUS
100
AcDbCircle
 10
0.0
 20
0.0
 30
0.0
 40
46.105000000000004
100
AcDbArc
 50
123.7500000000000426
 51
125.6344685726434278
  0
ARC
  5
86
100
AcDbEntity
  8
KISS
 62
168
370
0
  6
CONTINUOUS
100
AcDbCircle
 10
0.0
 20
0.0
 30
0.0
 40
46.1049999999999969
100
AcDbArc
 50
121.8655314273566006
 51
123.7499999999999858
  0
ARC
  5
87
100
AcDbEntity
  8
KISS
 62
168
370
0
  6
CONTINUOUS
100
AcDbCircle
 10
-2.872858524731587
 20
41.490461166493084
 30
0.0
 40
21.5937440095730153
100
AcDbArc
 50
180.3208705691500313
 51
186.2049675537160169
  0
ARC
  5
88
100
AcDbEntity
  8
KISS
 62
168
370
0
  6
CONTINUOUS
100
AcDbCircle
 10
-22.1227991572658631
 20
41.3887927749446263
 30
0.0
 40
2.3435439124740385
100
AcDbArc
 50
118.1250307029667823
 51
180.4709121882644922
  0
ARC
  5
89
100
AcDbEntity
  8
KISS
 62
168
370
0
  6
CONTINUOUS
100
AcDbCircle
 10
-22.1227547994055449
 20
41.388816484714944
 30
0.0
 40
2.3435439124740349
100
AcDbArc
 50
55.7790878117354865
 51
118.1249692970332319
  0
ARC
  5
8A
100
AcDbEntity
  8
KISS
 62
168
370
0
  6
CONTINUOUS
100
AcDbCircle
 10
-32.9019829803404207
 20
25.4395597421178685
 30
0.0
 40
21.5937440095731041
100
AcDbArc
 50
50.0450324462839902
 51
55.9291294308499829
  0
ARC
  5
8B
100
AcDbEntity
  8
KISS
 62
168
370
0
  6
CONTINUOUS
100
AcDbCircle
 10
0.0
 20
0.0
 30
0.0
 40
46.105000000000004
100
AcDbArc
 50
112.5000000000000426
 51
114.3844685726434278
  0
ARC
  5
8C
100
AcDbEntity
  8
KISS
 62
168
370
0
  6
CONTINUOUS
100
AcDbCircle
 10
0.0
 20
0.0
 30
0.0
 40
46.1049999999999969
100
AcDbArc
 50
110.6155314273566006
 51
112.5
  0
ARC
  5
8D
100
AcDbEntity
  8
KISS
 62
168
370
0
  6
CONTINUOUS
100
AcDbCircle
 10
5.276730075831118
 20
41.2537004839349279
 30
0.0
 40
21.5937440095730153
100
AcDbArc
 50
169.0708705691500313
 51
174.9549675537160454
  0
ARC
  5
8E
100
AcDbEntity
  8
KISS
 62
168
370
0
  6
CONTINUOUS
100
AcDbCircle
 10
-13.6231628644406015
 20
44.9094627388143977
 30
0.0
 40
2.343543912474038
100
AcDbArc
 50
106.8750307029667539
 51
169.2209121882645775
  0
ARC
  5
8F
100
AcDbEntity
  8
KISS
 62
168
370
0
  6
CONTINUOUS
100
AcDbCircle
 10
-13.6231147333574079
 20
44.9094773392188671
 30
0.0
 40
2.3435439124740367
100
AcDbArc
 50
44.5290878117355362
 51
106.8749692970332177
  0
ARC
  5
90
100
AcDbEntity
  8
KISS
 62
168
370
0
  6
CONTINUOUS
100
AcDbCircle
 10
-27.3067687011571856
 20
31.3696041896115929
 30
0.0
 40
21.5937440095731077
100
AcDbArc
 50
38.7950324462839973
 51
44.6791294308499829
  0
ARC
  5
91
100
AcDbEntity
  8
KISS
 62
168
370
0
  6
CONTINUOUS
100
AcDbCircle
 10
0.0
 20
0.0
 30
0.0
 40
46.105000000000004
100
AcDbArc
 50
101.2500000000000426
 51
103.1344685726434278
  0
ARC
  5
92
100
AcDbEntity
  8
KISS
 62
168
370
0
  6
CONTINUOUS
100
AcDbCircle
 10
0.0
 20
0.0
 30
0.0
 40
46.1049999999999969
100
AcDbArc
 50
99.3655314273566006
 51
101.25
  0
ARC
  5
93
100
AcDbEntity
  8
KISS
 62
168
370
0
  6
CONTINUOUS
100
AcDbCircle
 10
13.2235368988039532
 20
39.4315832271209246
 30
0.0
 40
21.5937440095730153
100
AcDbArc
 50
157.8208705691500029
 51
163.7049675537160738
  0
ARC
  5
94
100
AcDbEntity
  8
KISS
 62
168
370
0
  6
CONTINUOUS
100
AcDbCircle
 10
-4.5999960626926359
 20
46.7042872351483851
 30
0.0
 40
2.3435439124740358
100
AcDbArc
 50
95.6250307029667681
 51
157.9709121882646912
  0
ARC
  5
95
100
AcDbEntity
  8
KISS
 62
168
370
0
  6
CONTINUOUS
100
AcDbCircle
 10
-4.5999460080370991
 20
46.7042921651016556
 30
0.0
 40
2.3435439124740398
100
AcDbArc
 50
33.2790878117354438
 51
95.6249692970332177
  0
ARC
  5
96
100
AcDbEntity
  8
KISS
 62
168
370
0
  6
CONTINUOUS
100
AcDbCircle
 10
-20.6621706146007966
 20
36.0941323403752463
 30
0.0
 40
21.5937440095731077
100
AcDbArc
 50
27.5450324462840008
 51
33.42912943084999
  0
ARC
  5
97
100
AcDbEntity
  8
KISS
 62
168
370
0
  6
CONTINUOUS
100
AcDbCircle
 10
0.0
 20
0.0
 30
0.0
 40
46.105000000000004
100
AcDbArc
 50
90.0000000000000426
 51
91.8844685726434278
  0
ARC
  5
98
100
AcDbEntity
  8
KISS
 62
168
370
0
  6
CONTINUOUS
100
AcDbCircle
 10
0.0
 20
0.0
 30
0.0
 40
46.1049999999999969
100
AcDbArc
 50
88.1155314273566006
 51
90.0
  0
ARC
  5
99
100
AcDbEntity
  8
KISS
 62
168
370
0
  6
CONTINUOUS
100
AcDbCircle
 10
20.6621706146006829
 20
36.0941323403752961
 30
0.0
 40
21.5937440095730153
100
AcDbArc
 50
146.5708705691500313
 51
152.4549675537160454
  0
ARC
  5
9A
100
AcDbEntity
  8
KISS
 62
168
370
0
  6
CONTINUOUS
100
AcDbCircle
 10
4.5999460080370946
 20
46.7042921651016556
 30
0.0
 40
2.3435439124740371
100
AcDbArc
 50
84.3750307029667681
 51
146.7209121882645775
  0
ARC
  5
9B
100
AcDbEntity
  8
KISS
 62
168
370
0
  6
CONTINUOUS
100
AcDbCircle
 10
4.5999960626926315
 20
46.7042872351483922
 30
0.0
 40
2.3435439124740371
100
AcDbArc
 50
22.0290878117354971
 51
84.3749692970332319
  0
ARC
  5
9C
100
AcDbEntity
  8
KISS
 62
168
370
0
  6
CONTINUOUS
100
AcDbCircle
 10
-13.223536898804074
 20
39.4315832271208961
 30
0.0
 40
21.5937440095731077
100
AcDbArc
 50
16.2950324462839937
 51
22.1791294308499793
  0
ARC
  5
9D
100
AcDbEntity
  8
KISS
 62
168
370
0
  6
CONTINUOUS
100
AcDbCircle
 10
0.0
 20
0.0
 30
0.0
 40
46.105000000000004
100
AcDbArc
 50
78.7500000000000426
 51
80.6344685726434278
  0
ARC
  5
9E
100
AcDbEntity
  8
KISS
 62
168
370
0
  6
CONTINUOUS
100
AcDbCircle
 10
0.0
 20
0.0
 30
0.0
 40
46.1049999999999969
100
AcDbArc
 50
76.8655314273566006
 51
78.75
  0
ARC
  5
9F
100
AcDbEntity
  8
KISS
 62
168
370
0
  6
CONTINUOUS
100
AcDbCircle
 10
27.3067687011570861
 20
31.369604189611664
 30
0.0
 40
21.5937440095730153
100
AcDbArc
 50
135.3208705691500313
 51
141.2049675537160454
  0
ARC
  5
A0
100
AcDbEntity
  8
KISS
 62
168
370
0
  6
CONTINUOUS
100
AcDbCircle
 10
13.6231147333574008
 20
44.9094773392188671
 30
0.0
 40
2.3435439124740407
100
AcDbArc
 50
73.1250307029667823
 51
135.4709121882645206
  0
ARC
  5
A1
100
AcDbEntity
  8
KISS
 62
168
370
0
  6
CONTINUOUS
100
AcDbCircle
 10
13.6231628644405962
 20
44.9094627388144048
 30
0.0
 40
2.3435439124740407
100
AcDbArc
 50
10.7790878117354563
 51
73.1249692970332603
  0
ARC
  5
A2
100
AcDbEntity
  8
KISS
 62
168
370
0
  6
CONTINUOUS
100
AcDbCircle
 10
-5.2767300758312405
 20
41.2537004839349279
 30
0.0
 40
21.5937440095731077
100
AcDbArc
 50
5.0450324462839955
 51
10.9291294308499793
  0
ARC
  5
A3
100
AcDbEntity
  8
KISS
 62
168
370
0
  6
CONTINUOUS
100
AcDbCircle
 10
0.0
 20
0.0
 30
0.0
 40
46.105000000000004
100
AcDbArc
 50
67.5000000000000426
 51
69.3844685726434278
  0
ARC
  5
A4
100
AcDbEntity
  8
KISS
 62
168
370
0
  6
CONTINUOUS
100
AcDbCircle
 10
0.0
 20
0.0
 30
0.0
 40
46.1049999999999969
100
AcDbArc
 50
65.6155314273566006
 51
67.5
  0
ARC
  5
A5
100
AcDbEntity
  8
KISS
 62
168
370
0
  6
CONTINUOUS
100
AcDbCircle
 10
32.9019829803403354
 20
25.4395597421179573
 30
0.0
 40
21.5937440095730153
100
AcDbArc
 50
124.0708705691500313
 51
129.9549675537160454
  0
ARC
  5
A6
100
AcDbEntity
  8
KISS
 62
168
370
0
  6
CONTINUOUS
100
AcDbCircle
 10
22.1227547994055413
 20
41.3888164847149369
 30
0.0
 40
2.3435439124740385
100
AcDbArc
 50
61.8750307029667681
 51
124.2209121882645917
  0
ARC
  5
A7
100
AcDbEntity
  8
KISS
 62
168
370
0
  6
CONTINUOUS
100
AcDbCircle
 10
22.1227991572658631
 20
41.3887927749446334
 30
0.0
 40
2.3435439124740367
100
AcDbArc
 50
359.5290878117354509
 51
61.8749692970332177
  0
ARC
  5
A8
100
AcDbEntity
  8
KISS
 62
168
370
0
  6
CONTINUOUS
100
AcDbCircle
 10
2.8728585247314697
 20
41.4904611664931053
 30
0.0
 40
21.5937440095731077
100
AcDbArc
 50
353.7950324462839831
 51
359.6791294308499687
  0
ARC
  5
A9
100
AcDbEntity
  8
KISS
 62
168
370
0
  6
CONTINUOUS
100
AcDbCircle
 10
0.0
 20
0.0
 30
0.0
 40
46.105000000000004
100
AcDbArc
 50
56.2500000000000355
 51
58.1344685726434278
  0
ARC
  5
AA
100
AcDbEntity
  8
KISS
 62
168
370
0
  6
CONTINUOUS
100
AcDbCircle
 10
0.0
 20
0.0
 30
0.0
 40
46.105000000000004
100
AcDbArc
 50
54.3655314273565935
 51
56.25
  0
ARC
  5
AB
100
AcDbEntity
  8
KISS
 62
168
370
0
  6
CONTINUOUS
100
AcDbCircle
 10
37.2327925052337321
 20
18.5318872804041277
 30
0.0
 40
21.5937440095730224
100
AcDbArc
 50
112.8208705691500171
 51
118.7049675537160596
  0
ARC
  5
AC
100
AcDbEntity
  8
KISS
 62
168
370
0
  6
CONTINUOUS
100
AcDbCircle
 10
29.7722298050963481
 20
36.2776066238191177
 30
0.0
 40
2.3435439124740363
100
AcDbArc
 50
50.6250307029667184
 51
112.9709121882645775
  0
ARC
  5
AD
100
AcDbEntity
  8
KISS
 62
168
370
0
  6
CONTINUOUS
100
AcDbCircle
 10
29.7722686850861002
 20
36.2775747158361455
 30
0.0
 40
2.3435439124740398
100
AcDbArc
 50
348.2790878117353941
 51
50.6249692970332745
  0
ARC
  5
AE
100
AcDbEntity
  8
KISS
 62
168
370
0
  6
CONTINUOUS
100
AcDbCircle
 10
10.9120447833063672
 20
40.1327666945416439
 30
0.0
 40
21.5937440095731112
100
AcDbArc
 50
342.5450324462839831
 51
348.4291294308499687
  0
ARC
  5
AF
100
AcDbEntity
  8
KISS
 62
168
370
0
  6
CONTINUOUS
100
AcDbCircle
 10
0.0
 20
0.0
 30
0.0
 40
46.105000000000004
100
AcDbArc
 50
45.0000000000000355
 51
46.8844685726434349
  0
ARC
  5
B0
100
AcDbEntity
  8
KISS
 62
168
370
0
  6
CONTINUOUS
100
AcDbCircle
 10
0.0
 20
0.0
 30
0.0
 40
46.105000000000004
100
AcDbArc
 50
43.1155314273565935
 51
45.0
  0
ARC
  5
B1
100
AcDbEntity
  8
KISS
 62
168
370
0
  6
CONTINUOUS
100
AcDbCircle
 10
40.1327666945416013
 20
10.912044783306488
 30
0.0
 40
21.5937440095730153
100
AcDbArc
 50
101.5708705691500313
 51
107.4549675537160454
  0
ARC
  5
B2
100
AcDbEntity
  8
KISS
 62
168
370
0
  6
CONTINUOUS
100
AcDbCircle
 10
36.2775747158361384
 20
29.7722686850861038
 30
0.0
 40
2.3435439124740349
100
AcDbArc
 50
39.3750307029667255
 51
101.7209121882646343
  0
ARC
  5
B3
100
AcDbEntity
  8
KISS
 62
168
370
0
  6
CONTINUOUS
100
AcDbCircle
 10
36.2776066238191177
 20
29.7722298050963623
 30
0.0
 40
2.3435439124740358
100
AcDbArc
 50
337.0290878117354509
 51
39.3749692970332816
  0
ARC
  5
B4
100
AcDbEntity
  8
KISS
 62
168
370
0
  6
CONTINUOUS
100
AcDbCircle
 10
18.5318872804040247
 20
37.2327925052338031
 30
0.0
 40
21.5937440095731077
100
AcDbArc
 50
331.2950324462839831
 51
337.1791294308499687
  0
ARC
  5
B5
100
AcDbEntity
  8
KISS
 62
168
370
0
  6
CONTINUOUS
100
AcDbCircle
 10
0.0
 20
0.0
 30
0.0
 40
46.105000000000004
100
AcDbArc
 50
33.7500000000000355
 51
35.6344685726434278
  0
ARC
  5
B6
100
AcDbEntity
  8
KISS
 62
168
370
0
  6
CONTINUOUS
100
AcDbCircle
 10
0.0
 20
0.0
 30
0.0
 40
46.1049999999999969
100
AcDbArc
 50
31.8655314273565935
 51
33.75
  0
ARC
  5
B7
100
AcDbEntity
  8
KISS
 62
168
370
0
  6
CONTINUOUS
100
AcDbCircle
 10
41.490461166493084
 20
2.8728585247315905
 30
0.0
 40
21.5937440095730153
100
AcDbArc
 50
90.3208705691500171
 51
96.2049675537160454
  0
ARC
  5
B8
100
AcDbEntity
  8
KISS
 62
168
370
0
  6
CONTINUOUS
100
AcDbCircle
 10
41.3887927749446334
 20
22.1227991572658702
 30
0.0
 40
2.3435439124740385
100
AcDbArc
 50
28.1250307029667788
 51
90.4709121882645206
  0
ARC
  5
B9
100
AcDbEntity
  8
KISS
 62
168
370
0
  6
CONTINUOUS
100
AcDbCircle
 10
41.388816484714944
 20
22.122754799405552
 30
0.0
 40
2.3435439124740349
100
AcDbArc
 50
325.7790878117355078
 51
28.124969297033239
  0
ARC
  5
BA
100
AcDbEntity
  8
KISS
 62
168
370
0
  6
CONTINUOUS
100
AcDbCircle
 10
25.439559742117865
 20
32.9019829803404207
 30
0.0
 40
21.5937440095731077
100
AcDbArc
 50
320.0450324462839831
 51
325.9291294308499687
  0
ARC
  5
BB
100
AcDbEntity
  8
KISS
 62
168
370
0
  6
CONTINUOUS
100
AcDbCircle
 10
0.0
 20
0.0
 30
0.0
 40
46.105000000000004
100
AcDbArc
 50
22.5000000000000426
 51
24.3844685726434314
  0
ARC
  5
BC
100
AcDbEntity
  8
KISS
 62
168
370
0
  6
CONTINUOUS
100
AcDbCircle
 10
0.0
 20
0.0
 30
0.0
 40
46.1049999999999969
100
AcDbArc
 50
20.6155314273565935
 51
22.5
  0
ARC
  5
BD
100
AcDbEntity
  8
KISS
 62
168
370
0
  6
CONTINUOUS
100
AcDbCircle
 10
41.2537004839349279
 20
-5.2767300758311162
 30
0.0
 40
21.5937440095730224
100
AcDbArc
 50
79.0708705691500313
 51
84.9549675537160454
  0
ARC
  5
BE
100
AcDbEntity
  8
KISS
 62
168
370
0
  6
CONTINUOUS
100
AcDbCircle
 10
44.9094627388143977
 20
13.6231628644406051
 30
0.0
 40
2.343543912474038
100
AcDbArc
 50
16.8750307029667468
 51
79.2209121882645491
  0
ARC
  5
BF
100
AcDbEntity
  8
KISS
 62
168
370
0
  6
CONTINUOUS
100
AcDbCircle
 10
44.9094773392188671
 20
13.6231147333574114
 30
0.0
 40
2.3435439124740367
100
AcDbArc
 50
314.5290878117355078
 51
16.8749692970332212
  0
ARC
  5
C0
100
AcDbEntity
  8
KISS
 62
168
370
0
  6
CONTINUOUS
100
AcDbCircle
 10
31.3696041896115894
 20
27.3067687011571891
 30
0.0
 40
21.5937440095731077
100
AcDbArc
 50
308.7950324462839831
 51
314.6791294308500255
  0
ARC
  5
C1
100
AcDbEntity
  8
KISS
 62
168
370
0
  6
CONTINUOUS
100
AcDbCircle
 10
0.0
 20
0.0
 30
0.0
 40
46.105000000000004
100
AcDbArc
 50
11.2500000000000373
 51
13.1344685726434314
  0
ARC
  5
C2
100
AcDbEntity
  8
KISS
 62
168
370
0
  6
CONTINUOUS
100
AcDbCircle
 10
0.0
 20
0.0
 30
0.0
 40
46.1049999999999969
100
AcDbArc
 50
9.3655314273565935
 51
11.2499999999999982
  0
ARC
  5
C3
100
AcDbEntity
  8
KISS
 62
168
370
0
  6
CONTINUOUS
100
AcDbCircle
 10
39.4315832271209246
 20
-13.2235368988039514
 30
0.0
 40
21.5937440095730153
100
AcDbArc
 50
67.8208705691500313
 51
73.7049675537160454
  0
ARC
  5
C4
100
AcDbEntity
  8
KISS
 62
168
370
0
  6
CONTINUOUS
100
AcDbCircle
 10
46.7042872351483851
 20
4.5999960626926395
 30
0.0
 40
2.3435439124740385
100
AcDbArc
 50
5.6250307029667646
 51
67.9709121882645206
  0
ARC
  5
C5
100
AcDbEntity
  8
KISS
 62
168
370
0
  6
CONTINUOUS
100
AcDbCircle
 10
46.7042921651016556
 20
4.5999460080371026
 30
0.0
 40
2.3435439124740398
100
AcDbArc
 50
303.2790878117353941
 51
5.6249692970332177
  0
ARC
  5
C6
100
AcDbEntity
  8
KISS
 62
168
370
0
  6
CONTINUOUS
100
AcDbCircle
 10
36.0941323403752463
 20
20.6621706146007966
 30
0.0
 40
21.5937440095731077
100
AcDbArc
 50
297.5450324462839831
 51
303.4291294308499687
  0
ARC
  5
C7
100
AcDbEntity
  8
KISS
 62
168
370
0
  6
CONTINUOUS
100
AcDbCircle
 10
0.0
 20
0.0
 30
0.0
 40
46.105000000000004
100
AcDbArc
 50
0.0000000000000382
 51
1.8844685726434316
  0
ARC
  5
C8
100
AcDbEntity
  8
KISS
 62
168
370
0
  6
CONTINUOUS
100
AcDbCircle
 10
0.0
 20
0.0
 30
0.0
 40
46.1049999999999969
100
AcDbArc
 50
358.1155314273565864
 51
0.0
  0
ARC
  5
C9
100
AcDbEntity
  8
KISS
 62
168
370
0
  6
CONTINUOUS
100
AcDbCircle
 10
36.0941323403752961
 20
-20.6621706146006794
 30
0.0
 40
21.5937440095730153
100
AcDbArc
 50
56.5708705691500384
 51
62.4549675537160525
  0
ARC
  5
CA
100
AcDbEntity
  8
KISS
 62
168
370
0
  6
CONTINUOUS
100
AcDbCircle
 10
46.7042921651016556
 20
-4.599946008037092
 30
0.0
 40
2.3435439124740376
100
AcDbArc
 50
354.3750307029667965
 51
56.7209121882645988
  0
ARC
  5
CB
100
AcDbEntity
  8
KISS
 62
168
370
0
  6
CONTINUOUS
100
AcDbCircle
 10
46.7042872351483922
 20
-4.5999960626926288
 30
0.0
 40
2.3435439124740371
100
AcDbArc
 50
292.0290878117355078
 51
354.3749692970332603
  0
ARC
  5
CC
100
AcDbEntity
  8
KISS
 62
168
370
0
  6
CONTINUOUS
100
AcDbCircle
 10
39.4315832271208961
 20
13.2235368988040758
 30
0.0
 40
21.5937440095731077
100
AcDbArc
 50
286.2950324462839831
 51
292.1791294308499687
  0
ARC
  5
CD
100
AcDbEntity
  8
KISS
 62
168
370
0
  6
CONTINUOUS
100
AcDbCircle
 10
0.0
 20
0.0
 30
0.0
 40
46.105000000000004
100
AcDbArc
 50
348.7500000000000568
 51
350.6344685726434136
  0
ARC
  5
CE
100
AcDbEntity
  8
KISS
 62
168
370
0
  6
CONTINUOUS
100
AcDbCircle
 10
0.0
 20
0.0
 30
0.0
 40
46.1049999999999898
100
AcDbArc
 50
346.8655314273565864
 51
348.75
  0
ARC
  5
CF
100
AcDbEntity
  8
KISS
 62
168
370
0
  6
CONTINUOUS
100
AcDbCircle
 10
31.369604189611664
 20
-27.3067687011570825
 30
0.0
 40
21.5937440095730153
100
AcDbArc
 50
45.3208705691500242
 51
51.2049675537160525
  0
ARC
  5
D0
100
AcDbEntity
  8
KISS
 62
168
370
0
  6
CONTINUOUS
100
AcDbCircle
 10
44.9094773392188671
 20
-13.6231147333573972
 30
0.0
 40
2.3435439124740358
100
AcDbArc
 50
343.1250307029667965
 51
45.4709121882646556
  0
ARC
  5
D1
100
AcDbEntity
  8
KISS
 62
168
370
0
  6
CONTINUOUS
100
AcDbCircle
 10
44.9094627388144048
 20
-13.6231628644405944
 30
0.0
 40
2.343543912474034
100
AcDbArc
 50
280.7790878117354509
 51
343.1249692970332035
  0
ARC
  5
D2
100
AcDbEntity
  8
KISS
 62
168
370
0
  6
CONTINUOUS
100
AcDbCircle
 10
41.2537004839349279
 20
5.2767300758312432
 30
0.0
 40
21.5937440095731077
100
AcDbArc
 50
275.0450324462839831
 51
280.9291294308499687
  0
ARC
  5
D3
100
AcDbEntity
  8
KISS
 62
168
370
0
  6
CONTINUOUS
100
AcDbCircle
 10
0.0
 20
0.0
 30
0.0
 40
46.105000000000004
100
AcDbArc
 50
337.5
 51
339.3844685726434136
  0
ARC
  5
D4
100
AcDbEntity
  8
KISS
 62
168
370
0
  6
CONTINUOUS
100
AcDbCircle
 10
0.0
 20
0.0
 30
0.0
 40
46.1049999999999969
100
AcDbArc
 50
335.6155314273565864
 51
337.5
  0
ARC
  5
D5
100
AcDbEntity
  8
KISS
 62
168
370
0
  6
CONTINUOUS
100
AcDbCircle
 10
25.4395597421179573
 20
-32.9019829803403354
 30
0.0
 40
21.5937440095730153
100
AcDbArc
 50
34.0708705691500242
 51
39.9549675537160667
  0
ARC
  5
D6
100
AcDbEntity
  8
KISS
 62
168
370
0
  6
CONTINUOUS
100
AcDbCircle
 10
41.3888164847149369
 20
-22.1227547994055378
 30
0.0
 40
2.3435439124740385
100
AcDbArc
 50
331.8750307029667397
 51
34.2209121882645917
  0
ARC
  5
D7
100
AcDbEntity
  8
KISS
 62
168
370
0
  6
CONTINUOUS
100
AcDbCircle
 10
41.3887927749446334
 20
-22.1227991572658595
 30
0.0
 40
2.3435439124740367
100
AcDbArc
 50
269.5290878117354509
 51
331.8749692970332035
  0
ARC
  5
D8
100
AcDbEntity
  8
KISS
 62
168
370
0
  6
CONTINUOUS
100
AcDbCircle
 10
41.4904611664931053
 20
-2.872858524731468
 30
0.0
 40
21.5937440095731077
100
AcDbArc
 50
263.7950324462839831
 51
269.6791294308499687
  0
ARC
  5
D9
100
AcDbEntity
  8
KISS
 62
168
370
0
  6
CONTINUOUS
100
AcDbCircle
 10
0.0
 20
0.0
 30
0.0
 40
46.105000000000004
100
AcDbArc
 50
326.25
 51
328.1344685726434136
  0
ARC
  5
DA
100
AcDbEntity
  8
KISS
 62
168
370
0
  6
CONTINUOUS
100
AcDbCircle
 10
0.0
 20
0.0
 30
0.0
 40
46.1049999999999969
100
AcDbArc
 50
324.3655314273566432
 51
326.25
  0
ARC
  5
DB
100
AcDbEntity
  8
KISS
 62
168
370
0
  6
CONTINUOUS
100
AcDbCircle
 10
18.5318872804041348
 20
-37.2327925052337321
 30
0.0
 40
21.5937440095730153
100
AcDbArc
 50
22.8208705691500349
 51
28.7049675537160631
  0
ARC
  5
DC
100
AcDbEntity
  8
KISS
 62
168
370
0
  6
CONTINUOUS
100
AcDbCircle
 10
36.2776066238191248
 20
-29.7722298050963445
 30
0.0
 40
2.3435439124740363
100
AcDbArc
 50
320.6250307029666828
 51
22.9709121882645668
  0
ARC
  5
DD
100
AcDbEntity
  8
KISS
 62
168
370
0
  6
CONTINUOUS
100
AcDbCircle
 10
36.2775747158361526
 20
-29.7722686850860896
 30
0.0
 40
2.3435439124740398
100
AcDbArc
 50
258.2790878117355646
 51
320.6249692970332603
  0
ARC
  5
DE
100
AcDbEntity
  8
KISS
 62
168
370
0
  6
CONTINUOUS
100
AcDbCircle
 10
40.1327666945416439
 20
-10.9120447833063583
 30
0.0
 40
21.5937440095731077
100
AcDbArc
 50
252.5450324462840115
 51
258.4291294308499687
  0
ARC
  5
DF
100
AcDbEntity
  8
KISS
 62
168
370
0
  6
CONTINUOUS
100
AcDbCircle
 10
0.0
 20
0.0
 30
0.0
 40
46.105000000000004
100
AcDbArc
 50
315.0000000000000568
 51
316.8844685726434705
  0
ARC
  5
E0
100
AcDbEntity
  8
KISS
 62
168
370
0
  6
CONTINUOUS
100
AcDbCircle
 10
0.0
 20
0.0
 30
0.0
 40
46.1049999999999969
100
AcDbArc
 50
313.1155314273565864
 51
315.0
  0
ARC
  5
E1
100
AcDbEntity
  8
KISS
 62
168
370
0
  6
CONTINUOUS
100
AcDbCircle
 10
10.9120447833064897
 20
-40.1327666945416013
 30
0.0
 40
21.5937440095730118
100
AcDbArc
 50
11.570870569150026
 51
17.4549675537160454
  0
ARC
  5
E2
100
AcDbEntity
  8
KISS
 62
168
370
0
  6
CONTINUOUS
100
AcDbCircle
 10
29.7722686850861038
 20
-36.2775747158361384
 30
0.0
 40
2.3435439124740349
100
AcDbArc
 50
309.3750307029667397
 51
11.7209121882646325
  0
ARC
  5
E3
100
AcDbEntity
  8
KISS
 62
168
370
0
  6
CONTINUOUS
100
AcDbCircle
 10
29.7722298050963623
 20
-36.2776066238191106
 30
0.0
 40
2.3435439124740358
100
AcDbArc
 50
247.0290878117355078
 51
309.3749692970333172
  0
ARC
  5
E4
100
AcDbEntity
  8
KISS
 62
168
370
0
  6
CONTINUOUS
100
AcDbCircle
 10
37.2327925052338031
 20
-18.5318872804040211
 30
0.0
 40
21.5937440095731112
100
AcDbArc
 50
241.2950324462839831
 51
247.1791294308499687
  0
ARC
  5
E5
100
AcDbEntity
  8
KISS
 62
168
370
0
  6
CONTINUOUS
100
AcDbCircle
 10
0.0
 20
0.0
 30
0.0
 40
46.105000000000004
100
AcDbArc
 50
303.7500000000000568
 51
305.6344685726434136
  0
ARC
  5
E6
100
AcDbEntity
  8
KISS
 62
168
370
0
  6
CONTINUOUS
100
AcDbCircle
 10
0.0
 20
0.0
 30
0.0
 40
46.1049999999999969
100
AcDbArc
 50
301.8655314273565864
 51
303.75
  0
ARC
  5
E7
100
AcDbEntity
  8
KISS
 62
168
370
0
  6
CONTINUOUS
100
AcDbCircle
 10
2.872858524731587
 20
-41.4904611664930911
 30
0.0
 40
21.5937440095730153
100
AcDbArc
 50
0.3208705691500194
 51
6.2049675537160409
  0
ARC
  5
E8
100
AcDbEntity
  8
KISS
 62
168
370
0
  6
CONTINUOUS
100
AcDbCircle
 10
22.1227991572658595
 20
-41.3887927749446334
 30
0.0
 40
2.3435439124740385
100
AcDbArc
 50
298.1250307029667965
 51
0.4709121882645203
  0
ARC
  5
E9
100
AcDbEntity
  8
KISS
 62
168
370
0
  6
CONTINUOUS
100
AcDbCircle
 10
22.1227547994055449
 20
-41.3888164847149511
 30
0.0
 40
2.3435439124740349
100
AcDbArc
 50
235.7790878117354225
 51
298.1249692970332603
  0
ARC
  5
EA
100
AcDbEntity
  8
KISS
 62
168
370
0
  6
CONTINUOUS
100
AcDbCircle
 10
32.9019829803404207
 20
-25.4395597421178756
 30
0.0
 40
21.5937440095731077
100
AcDbArc
 50
230.0450324462839831
 51
235.9291294308499687
  0
ARC
  5
EB
100
AcDbEntity
  8
KISS
 62
168
370
0
  6
CONTINUOUS
100
AcDbCircle
 10
0.0
 20
0.0
 30
0.0
 40
46.105000000000004
100
AcDbArc
 50
292.5
 51
294.3844685726434136
  0
ARC
  5
EC
100
AcDbEntity
  8
KISS
 62
168
370
0
  6
CONTINUOUS
100
AcDbCircle
 10
0.0
 20
0.0
 30
0.0
 40
46.1049999999999969
100
AcDbArc
 50
290.6155314273565864
 51
292.5
  0
ARC
  5
ED
100
AcDbEntity
  8
KISS
 62
168
370
0
  6
CONTINUOUS
100
AcDbCircle
 10
-5.2767300758311126
 20
-41.2537004839349279
 30
0.0
 40
21.5937440095730118
100
AcDbArc
 50
349.0708705691500313
 51
354.9549675537160169
  0
ARC
  5
EE
100
AcDbEntity
  8
KISS
 62
168
370
0
  6
CONTINUOUS
100
AcDbCircle
 10
13.6231628644406086
 20
-44.9094627388143977
 30
0.0
 40
2.343543912474038
100
AcDbArc
 50
286.8750307029667397
 51
349.2209121882645491
  0
ARC
  5
EF
100
AcDbEntity
  8
KISS
 62
168
370
0
  6
CONTINUOUS
100
AcDbCircle
 10
13.623114733357415
 20
-44.9094773392188671
 30
0.0
 40
2.3435439124740367
100
AcDbArc
 50
224.5290878117355078
 51
286.8749692970332035
  0
ARC
  5
F0
100
AcDbEntity
  8
KISS
 62
168
370
0
  6
CONTINUOUS
100
AcDbCircle
 10
27.3067687011571891
 20
-31.3696041896115894
 30
0.0
 40
21.5937440095731077
100
AcDbArc
 50
218.7950324462839831
 51
224.6791294308499687
  0
ARC
  5
F1
100
AcDbEntity
  8
KISS
 62
168
370
0
  6
CONTINUOUS
100
AcDbCircle
 10
0.0
 20
0.0
 30
0.0
 40
46.105000000000004
100
AcDbArc
 50
281.2500000000000568
 51
283.1344685726434705
  0
ARC
  5
F2
100
AcDbEntity
  8
KISS
 62
168
370
0
  6
CONTINUOUS
100
AcDbCircle
 10
0.0
 20
0.0
 30
0.0
 40
46.1049999999999969
100
AcDbArc
 50
279.3655314273566432
 51
281.25
  0
ARC
  5
F3
100
AcDbEntity
  8
KISS
 62
168
370
0
  6
CONTINUOUS
100
AcDbCircle
 10
-13.2235368988039426
 20
-39.4315832271209317
 30
0.0
 40
21.5937440095730153
100
AcDbArc
 50
337.8208705691500313
 51
343.7049675537160738
  0
ARC
  5
F4
100
AcDbEntity
  8
KISS
 62
168
370
0
  6
CONTINUOUS
100
AcDbCircle
 10
4.5999960626926519
 20
-46.7042872351483851
 30
0.0
 40
2.3435439124740385
100
AcDbArc
 50
275.6250307029667397
 51
337.9709121882644922
  0
ARC
  5
F5
100
AcDbEntity
  8
KISS
 62
168
370
0
  6
CONTINUOUS
100
AcDbCircle
 10
4.5999460080371168
 20
-46.7042921651016627
 30
0.0
 40
2.3435439124740403
100
AcDbArc
 50
213.2790878117354225
 51
275.6249692970332035
  0
ARC
  5
F6
100
AcDbEntity
  8
KISS
 62
168
370
0
  6
CONTINUOUS
100
AcDbCircle
 10
20.6621706146008108
 20
-36.0941323403752392
 30
0.0
 40
21.5937440095731077
100
AcDbArc
 50
207.5450324462840115
 51
213.4291294308499971
  0
ARC
  5
F7
100
AcDbEntity
  8
KISS
 62
168
370
0
  6
CONTINUOUS
100
AcDbCircle
 10
0.0
 20
0.0
 30
0.0
 40
46.105000000000004
100
AcDbArc
 50
270.0000000000000568
 51
271.8844685726434705
  0
CIRCLE
  5
F8
100
AcDbEntity
100
AcDbCircle
  8
KISS
 62
168
370
0
  6
CONTINUOUS
 10
0.0
 20
0.0
 30
0.0
 40
55.0
  0
ENDSEC
  0
SECTION
  2
OBJECTS
  0
DICTIONARY
  5
C
100
AcDbDictionary
280
0
281
1
  3
ACAD_GROUP
350
D
  3
ACAD_LAYOUT
350
1A
  3
ACAD_MLINESTYLE
350
17
  3
ACAD_PLOTSETTINGS
350
19
  3
ACAD_PLOTSTYLENAME
350
E
  3
AcDbVariableDictionary
350
F9
  0
DICTIONARY
  5
D
100
AcDbDictionary
280
0
281
1
  0
ACDBDICTIONARYWDFLT
  5
E
100
AcDbDictionary
281
1
  3
Normal
350
F
100
AcDbDictionaryWithDefault
340
F
  0
ACDBPLACEHOLDER
  5
F
  0
DICTIONARY
  5
17
100
AcDbDictionary
280
0
281
1
  3
Standard
350
18
  0
MLINESTYLE
  5
18
100
AcDbMlineStyle
  2
STANDARD
 70
0
  3

 62
256
 51
90.0
 52
90.0
 71
2
 49
0.5
 62
256
  6
BYLAYER
 49
-0.5
 62
256
  6
BYLAYER
  0
DICTIONARY
  5
19
100
AcDbDictionary
280
0
281
1
  0
DICTIONARY
  5
1A
100
AcDbDictionary
281
1
  3
Layout1
350
1E
  3
Layout2
350
26
  3
Model
350
22
  0
LAYOUT
  5
1E
100
AcDbPlotSettings
  1

  2
C:\Program Files\AutoCAD 2002\plotters\DWF ePlot (optimized for plotting).pc3
  4

  6

 40
0.0
 41
0.0
 42
0.0
 43
0.0
 44
0.0
 45
0.0
 46
0.0
 47
0.0
 48
0.0
 49
0.0
140
0.0
141
0.0
142
1.0
143
1.0
 70
688
 72
0
 73
0
 74
5
  7

 75
16
147
1.0
148
0.0
149
0.0
100
AcDbLayout
  1
Layout1
 70
1
 71
1
 10
0.0
 20
0.0
 11
420.0
 21
297.0
 12
0.0
 22
0.0
 32
0.0
 14
100000000000000000000.0
 24
100000000000000000000.0
 34
100000000000000000000.0
 15
-100000000000000000000.0
 25
-100000000000000000000.0
 35
-100000000000000000000.0
146
0.0
 13
0.0
 23
0.0
 33
0.0
 16
1.0
 26
0.0
 36
0.0
 17
0.0
 27
1.0
 37
0.0
 76
0
330
1B
  0
LAYOUT
  5
22
100
AcDbPlotSettings
  1

  2
C:\Program Files\AutoCAD 2002\plotters\DWF ePlot (optimized for plotting).pc3
  4

  6

 40
0.0
 41
0.0
 42
0.0
 43
0.0
 44
0.0
 45
0.0
 46
0.0
 47
0.0
 48
0.0
 49
0.0
140
0.0
141
0.0
142
1.0
143
1.0
 70
1712
 72
0
 73
0
 74
0
  7

 75
0
147
1.0
148
0.0
149
0.0
100
AcDbLayout
  1
Model
 70
1
 71
0
 10
0.0
 20
0.0
 11
12.0
 21
9.0
 12
0.0
 22
0.0
 32
0.0
 14
0.0
 24
0.0
 34
0.0
 15
0.0
 25
0.0
 35
0.0
146
0.0
 13
0.0
 23
0.0
 33
0.0
 16
1.0
 26
0.0
 36
0.0
 17
0.0
 27
1.0
 37
0.0
 76
0
330
1F
  0
LAYOUT
  5
26
100
AcDbPlotSettings
  1

  2
C:\Program Files\AutoCAD 2002\plotters\DWF ePlot (optimized for plotting).pc3
  4

  6

 40
0.0
 41
0.0
 42
0.0
 43
0.0
 44
0.0
 45
0.0
 46
0.0
 47
0.0
 48
0.0
 49
0.0
140
0.0
141
0.0
142
1.0
143
1.0
 70
688
 72
0
 73
0
 74
5
  7

 75
16
147
1.0
148
0.0
149
0.0
100
AcDbLayout
  1
Layout2
 70
1
 71
2
 10
0.0
 20
0.0
 11
12.0
 21
9.0
 12
0.0
 22
0.0
 32
0.0
 14
0.0
 24
0.0
 34
0.0
 15
0.0
 25
0.0
 35
0.0
146
0.0
 13
0.0
 23
0.0
 33
0.0
 16
1.0
 26
0.0
 36
0.0
 17
0.0
 27
1.0
 37
0.0
 76
0
330
23
  0
DICTIONARY
  5
F9
100
AcDbDictionary
281
1
  3
DIMASSOC
350
FB
  3
HIDETEXT
350
FA
  0
DICTIONARYVAR
  5
FA
100
DictionaryVariables
280
0
  1
2
  0
DICTIONARYVAR
  5
FB
100
DictionaryVariables
280
0
  1
1
  0
ENDSEC
  0
EOF
