%TF.GenerationSoftware,KiCad,Pcbnew,7.0.2*%
%TF.CreationDate,2023-05-21T22:41:38+02:00*%
%TF.ProjectId,AMS & IMD Reset,414d5320-2620-4494-9d44-205265736574,rev?*%
%TF.SameCoordinates,Original*%
%TF.FileFunction,Copper,L2,Bot*%
%TF.FilePolarity,Positive*%
%FSLAX46Y46*%
G04 Gerber Fmt 4.6, Leading zero omitted, Abs format (unit mm)*
G04 Created by KiCad (PCBNEW 7.0.2) date 2023-05-21 22:41:38*
%MOMM*%
%LPD*%
G01*
G04 APERTURE LIST*
%TA.AperFunction,ComponentPad*%
%ADD10R,1.610000X1.610000*%
%TD*%
%TA.AperFunction,ComponentPad*%
%ADD11C,1.610000*%
%TD*%
%TA.AperFunction,ComponentPad*%
%ADD12C,5.600000*%
%TD*%
%TA.AperFunction,ComponentPad*%
%ADD13R,1.530000X1.530000*%
%TD*%
%TA.AperFunction,ComponentPad*%
%ADD14C,1.530000*%
%TD*%
%TA.AperFunction,ComponentPad*%
%ADD15C,1.440000*%
%TD*%
%TA.AperFunction,ComponentPad*%
%ADD16C,1.650000*%
%TD*%
%TA.AperFunction,Conductor*%
%ADD17C,0.250000*%
%TD*%
G04 APERTURE END LIST*
D10*
%TO.P,J2,1,1*%
%TO.N,GND*%
X183896000Y-100076000D03*
D11*
%TO.P,J2,2,2*%
%TO.N,/C Button + LED*%
X183896000Y-102616000D03*
%TO.P,J2,3,3*%
%TO.N,/NO Button*%
X183896000Y-105156000D03*
%TD*%
D10*
%TO.P,J1,1,1*%
%TO.N,GND*%
X169672000Y-103378000D03*
D11*
%TO.P,J1,2,2*%
%TO.N,/AMS Input*%
X167132000Y-103378000D03*
%TO.P,J1,3,3*%
%TO.N,/IMD Input*%
X164592000Y-103378000D03*
%TD*%
D12*
%TO.P,,1*%
%TO.N,N/C*%
X162814000Y-110236000D03*
%TD*%
D13*
%TO.P,J3,1,1*%
%TO.N,/SCin*%
X169926000Y-78486000D03*
D14*
%TO.P,J3,2,2*%
%TO.N,/SCout*%
X172466000Y-78486000D03*
%TD*%
D15*
%TO.P,U1,1,+VIN*%
%TO.N,+12V*%
X168656000Y-90932000D03*
%TO.P,U1,2,GND*%
%TO.N,GND*%
X168656000Y-88392000D03*
%TO.P,U1,3,+VOUT*%
%TO.N,+5V*%
X168656000Y-85852000D03*
%TD*%
D12*
%TO.P,,1*%
%TO.N,N/C*%
X184912000Y-76962000D03*
%TD*%
D16*
%TO.P,K2,1,1*%
%TO.N,Net-(K2-Pad1)*%
X173228000Y-92964000D03*
%TO.P,K2,2,2*%
X173228000Y-98044000D03*
%TO.P,K2,3,3*%
%TO.N,Net-(G1-Y)*%
X173228000Y-100584000D03*
%TO.P,K2,4,4*%
%TO.N,GND*%
X173228000Y-103124000D03*
%TO.P,K2,5,5*%
X173228000Y-105664000D03*
%TO.P,K2,6,6*%
%TO.N,/NO Button*%
X178308000Y-105664000D03*
%TO.P,K2,7,7*%
%TO.N,/C Button + LED*%
X178308000Y-103124000D03*
%TO.P,K2,8,8*%
%TO.N,+12V*%
X178308000Y-100584000D03*
%TO.P,K2,9,9*%
%TO.N,Net-(K2-Pad9)*%
X178308000Y-98044000D03*
%TO.P,K2,10,10*%
%TO.N,GND*%
X178308000Y-92964000D03*
%TD*%
D12*
%TO.P,,1*%
%TO.N,N/C*%
X162814000Y-77216000D03*
%TD*%
D13*
%TO.P,J4,1,1*%
%TO.N,GND*%
X182626000Y-91948000D03*
D14*
%TO.P,J4,2,2*%
%TO.N,+12V*%
X185166000Y-91948000D03*
%TD*%
D12*
%TO.P,,1*%
%TO.N,N/C*%
X184912000Y-110236000D03*
%TD*%
D17*
%TO.N,+12V*%
X183430001Y-90212001D02*
X169375999Y-90212001D01*
X169375999Y-90212001D02*
X168656000Y-90932000D01*
X185166000Y-91948000D02*
X183430001Y-90212001D01*
%TO.N,Net-(K2-Pad1)*%
X173228000Y-92964000D02*
X173228000Y-98044000D01*
%TD*%
%TA.AperFunction,Conductor*%
%TO.N,GND*%
G36*
X189426539Y-72918185D02*
G01*
X189472294Y-72970989D01*
X189483500Y-73022500D01*
X189483500Y-114175500D01*
X189463815Y-114242539D01*
X189411011Y-114288294D01*
X189359500Y-114299500D01*
X158620500Y-114299500D01*
X158553461Y-114279815D01*
X158507706Y-114227011D01*
X158496500Y-114175500D01*
X158496500Y-110236000D01*
X159500641Y-110236000D01*
X159500823Y-110239356D01*
X159519881Y-110590878D01*
X159519882Y-110590894D01*
X159520064Y-110594237D01*
X159520606Y-110597547D01*
X159520607Y-110597550D01*
X159577561Y-110944960D01*
X159577563Y-110944972D01*
X159578105Y-110948274D01*
X159579001Y-110951503D01*
X159579004Y-110951514D01*
X159654884Y-111224806D01*
X159674085Y-111293961D01*
X159806877Y-111627243D01*
X159808447Y-111630205D01*
X159808452Y-111630215D01*
X159928356Y-111856377D01*
X159974925Y-111944215D01*
X160176258Y-112241159D01*
X160408516Y-112514595D01*
X160410947Y-112516898D01*
X160410953Y-112516904D01*
X160590533Y-112687011D01*
X160668977Y-112761317D01*
X160954586Y-112978431D01*
X161261995Y-113163393D01*
X161587599Y-113314033D01*
X161927583Y-113428587D01*
X162277958Y-113505711D01*
X162634618Y-113544500D01*
X162637976Y-113544500D01*
X162990024Y-113544500D01*
X162993382Y-113544500D01*
X163350042Y-113505711D01*
X163700417Y-113428587D01*
X164040401Y-113314033D01*
X164366005Y-113163393D01*
X164673414Y-112978431D01*
X164959023Y-112761317D01*
X165219484Y-112514595D01*
X165451742Y-112241159D01*
X165653075Y-111944215D01*
X165821123Y-111627243D01*
X165953915Y-111293961D01*
X166049895Y-110948274D01*
X166107936Y-110594237D01*
X166127359Y-110236000D01*
X181598641Y-110236000D01*
X181598823Y-110239356D01*
X181617881Y-110590878D01*
X181617882Y-110590894D01*
X181618064Y-110594237D01*
X181618606Y-110597547D01*
X181618607Y-110597550D01*
X181675561Y-110944960D01*
X181675563Y-110944972D01*
X181676105Y-110948274D01*
X181677001Y-110951503D01*
X181677004Y-110951514D01*
X181752884Y-111224806D01*
X181772085Y-111293961D01*
X181904877Y-111627243D01*
X181906447Y-111630205D01*
X181906452Y-111630215D01*
X182026356Y-111856377D01*
X182072925Y-111944215D01*
X182274258Y-112241159D01*
X182506516Y-112514595D01*
X182508947Y-112516898D01*
X182508953Y-112516904D01*
X182688533Y-112687011D01*
X182766977Y-112761317D01*
X183052586Y-112978431D01*
X183359995Y-113163393D01*
X183685599Y-113314033D01*
X184025583Y-113428587D01*
X184375958Y-113505711D01*
X184732618Y-113544500D01*
X184735976Y-113544500D01*
X185088024Y-113544500D01*
X185091382Y-113544500D01*
X185448042Y-113505711D01*
X185798417Y-113428587D01*
X186138401Y-113314033D01*
X186464005Y-113163393D01*
X186771414Y-112978431D01*
X187057023Y-112761317D01*
X187317484Y-112514595D01*
X187549742Y-112241159D01*
X187751075Y-111944215D01*
X187919123Y-111627243D01*
X188051915Y-111293961D01*
X188147895Y-110948274D01*
X188205936Y-110594237D01*
X188225359Y-110236000D01*
X188205936Y-109877763D01*
X188147895Y-109523726D01*
X188051915Y-109178039D01*
X187919123Y-108844757D01*
X187751075Y-108527785D01*
X187549742Y-108230841D01*
X187317484Y-107957405D01*
X187315051Y-107955100D01*
X187315046Y-107955095D01*
X187059453Y-107712985D01*
X187057023Y-107710683D01*
X186771414Y-107493569D01*
X186768540Y-107491840D01*
X186768536Y-107491837D01*
X186466887Y-107310341D01*
X186466886Y-107310340D01*
X186464005Y-107308607D01*
X186138401Y-107157967D01*
X186045957Y-107126819D01*
X185801591Y-107044482D01*
X185801583Y-107044479D01*
X185798417Y-107043413D01*
X185795150Y-107042694D01*
X185795147Y-107042693D01*
X185451323Y-106967011D01*
X185451319Y-106967010D01*
X185448042Y-106966289D01*
X185444706Y-106965926D01*
X185444699Y-106965925D01*
X185094720Y-106927863D01*
X185094719Y-106927862D01*
X185091382Y-106927500D01*
X184732618Y-106927500D01*
X184729281Y-106927862D01*
X184729279Y-106927863D01*
X184379300Y-106965925D01*
X184379290Y-106965926D01*
X184375958Y-106966289D01*
X184372683Y-106967009D01*
X184372676Y-106967011D01*
X184028852Y-107042693D01*
X184028844Y-107042695D01*
X184025583Y-107043413D01*
X184022421Y-107044478D01*
X184022408Y-107044482D01*
X183688786Y-107156893D01*
X183688783Y-107156894D01*
X183685599Y-107157967D01*
X183682550Y-107159377D01*
X183682544Y-107159380D01*
X183363050Y-107307193D01*
X183363040Y-107307197D01*
X183359995Y-107308607D01*
X183357121Y-107310336D01*
X183357112Y-107310341D01*
X183055463Y-107491837D01*
X183055450Y-107491845D01*
X183052586Y-107493569D01*
X183049928Y-107495589D01*
X183049917Y-107495597D01*
X182769636Y-107708661D01*
X182769628Y-107708667D01*
X182766977Y-107710683D01*
X182764553Y-107712978D01*
X182764546Y-107712985D01*
X182508953Y-107955095D01*
X182508938Y-107955110D01*
X182506516Y-107957405D01*
X182504353Y-107959950D01*
X182504342Y-107959963D01*
X182276431Y-108228282D01*
X182276425Y-108228289D01*
X182274258Y-108230841D01*
X182272378Y-108233613D01*
X182272371Y-108233623D01*
X182074815Y-108524996D01*
X182074807Y-108525008D01*
X182072925Y-108527785D01*
X182071350Y-108530755D01*
X182071348Y-108530759D01*
X181906452Y-108841784D01*
X181906443Y-108841801D01*
X181904877Y-108844757D01*
X181903636Y-108847869D01*
X181903632Y-108847880D01*
X181773330Y-109174913D01*
X181773327Y-109174921D01*
X181772085Y-109178039D01*
X181771185Y-109181277D01*
X181771185Y-109181280D01*
X181677004Y-109520485D01*
X181677000Y-109520500D01*
X181676105Y-109523726D01*
X181675564Y-109527023D01*
X181675561Y-109527039D01*
X181618607Y-109874449D01*
X181618064Y-109877763D01*
X181617882Y-109881103D01*
X181617881Y-109881121D01*
X181598823Y-110232643D01*
X181598641Y-110236000D01*
X166127359Y-110236000D01*
X166107936Y-109877763D01*
X166049895Y-109523726D01*
X165953915Y-109178039D01*
X165821123Y-108844757D01*
X165653075Y-108527785D01*
X165451742Y-108230841D01*
X165219484Y-107957405D01*
X165217051Y-107955100D01*
X165217046Y-107955095D01*
X164961453Y-107712985D01*
X164959023Y-107710683D01*
X164673414Y-107493569D01*
X164670540Y-107491840D01*
X164670536Y-107491837D01*
X164368887Y-107310341D01*
X164368886Y-107310340D01*
X164366005Y-107308607D01*
X164040401Y-107157967D01*
X163947957Y-107126819D01*
X163703591Y-107044482D01*
X163703583Y-107044479D01*
X163700417Y-107043413D01*
X163697150Y-107042694D01*
X163697147Y-107042693D01*
X163353323Y-106967011D01*
X163353319Y-106967010D01*
X163350042Y-106966289D01*
X163346706Y-106965926D01*
X163346699Y-106965925D01*
X162996720Y-106927863D01*
X162996719Y-106927862D01*
X162993382Y-106927500D01*
X162634618Y-106927500D01*
X162631281Y-106927862D01*
X162631279Y-106927863D01*
X162281300Y-106965925D01*
X162281290Y-106965926D01*
X162277958Y-106966289D01*
X162274683Y-106967009D01*
X162274676Y-106967011D01*
X161930852Y-107042693D01*
X161930844Y-107042695D01*
X161927583Y-107043413D01*
X161924421Y-107044478D01*
X161924408Y-107044482D01*
X161590786Y-107156893D01*
X161590783Y-107156894D01*
X161587599Y-107157967D01*
X161584550Y-107159377D01*
X161584544Y-107159380D01*
X161265050Y-107307193D01*
X161265040Y-107307197D01*
X161261995Y-107308607D01*
X161259121Y-107310336D01*
X161259112Y-107310341D01*
X160957463Y-107491837D01*
X160957450Y-107491845D01*
X160954586Y-107493569D01*
X160951928Y-107495589D01*
X160951917Y-107495597D01*
X160671636Y-107708661D01*
X160671628Y-107708667D01*
X160668977Y-107710683D01*
X160666553Y-107712978D01*
X160666546Y-107712985D01*
X160410953Y-107955095D01*
X160410938Y-107955110D01*
X160408516Y-107957405D01*
X160406353Y-107959950D01*
X160406342Y-107959963D01*
X160178431Y-108228282D01*
X160178425Y-108228289D01*
X160176258Y-108230841D01*
X160174378Y-108233613D01*
X160174371Y-108233623D01*
X159976815Y-108524996D01*
X159976807Y-108525008D01*
X159974925Y-108527785D01*
X159973350Y-108530755D01*
X159973348Y-108530759D01*
X159808452Y-108841784D01*
X159808443Y-108841801D01*
X159806877Y-108844757D01*
X159805636Y-108847869D01*
X159805632Y-108847880D01*
X159675330Y-109174913D01*
X159675327Y-109174921D01*
X159674085Y-109178039D01*
X159673185Y-109181277D01*
X159673185Y-109181280D01*
X159579004Y-109520485D01*
X159579000Y-109520500D01*
X159578105Y-109523726D01*
X159577564Y-109527023D01*
X159577561Y-109527039D01*
X159520607Y-109874449D01*
X159520064Y-109877763D01*
X159519882Y-109881103D01*
X159519881Y-109881121D01*
X159500823Y-110232643D01*
X159500641Y-110236000D01*
X158496500Y-110236000D01*
X158496500Y-103378000D01*
X163273482Y-103378000D01*
X163293513Y-103606955D01*
X163352999Y-103828960D01*
X163385195Y-103898004D01*
X163450131Y-104037259D01*
X163581957Y-104225526D01*
X163744474Y-104388043D01*
X163932741Y-104519869D01*
X164141041Y-104617001D01*
X164363042Y-104676486D01*
X164592000Y-104696517D01*
X164820958Y-104676486D01*
X165042959Y-104617001D01*
X165251259Y-104519869D01*
X165439526Y-104388043D01*
X165602043Y-104225526D01*
X165733869Y-104037259D01*
X165749618Y-104003484D01*
X165795790Y-103951045D01*
X165862983Y-103931893D01*
X165929864Y-103952108D01*
X165974381Y-104003484D01*
X165990131Y-104037259D01*
X166121957Y-104225526D01*
X166284474Y-104388043D01*
X166472741Y-104519869D01*
X166681041Y-104617001D01*
X166903042Y-104676486D01*
X167132000Y-104696517D01*
X167360958Y-104676486D01*
X167582959Y-104617001D01*
X167791259Y-104519869D01*
X167979526Y-104388043D01*
X168142043Y-104225526D01*
X168147022Y-104218415D01*
X168201590Y-104174792D01*
X168271088Y-104167594D01*
X168333445Y-104199112D01*
X168368863Y-104259340D01*
X168371885Y-104276278D01*
X168373400Y-104290371D01*
X168423647Y-104425089D01*
X168509811Y-104540188D01*
X168624910Y-104626352D01*
X168759628Y-104676599D01*
X168815867Y-104682645D01*
X168822482Y-104683000D01*
X169422000Y-104683000D01*
X169422000Y-103852128D01*
X169456851Y-103873322D01*
X169598466Y-103913000D01*
X169708595Y-103913000D01*
X169817698Y-103898004D01*
X169922000Y-103852699D01*
X169922000Y-104683000D01*
X170521518Y-104683000D01*
X170528132Y-104682645D01*
X170584371Y-104676599D01*
X170719089Y-104626352D01*
X170834188Y-104540188D01*
X170920352Y-104425089D01*
X170970599Y-104290371D01*
X170976645Y-104234132D01*
X170977000Y-104227518D01*
X170977000Y-103628000D01*
X170150390Y-103628000D01*
X170151485Y-103626449D01*
X170200735Y-103487872D01*
X170210771Y-103341147D01*
X170180849Y-103197155D01*
X170145016Y-103128000D01*
X170977000Y-103128000D01*
X170977000Y-102528481D01*
X170976645Y-102521867D01*
X170970599Y-102465628D01*
X170920352Y-102330910D01*
X170834188Y-102215811D01*
X170719089Y-102129647D01*
X170584371Y-102079400D01*
X170528132Y-102073354D01*
X170521518Y-102073000D01*
X169922000Y-102073000D01*
X169922000Y-102903871D01*
X169887149Y-102882678D01*
X169745534Y-102843000D01*
X169635405Y-102843000D01*
X169526302Y-102857996D01*
X169422000Y-102903300D01*
X169422000Y-102073000D01*
X168822482Y-102073000D01*
X168815867Y-102073354D01*
X168759628Y-102079400D01*
X168624910Y-102129647D01*
X168509811Y-102215811D01*
X168423647Y-102330910D01*
X168373400Y-102465628D01*
X168371885Y-102479721D01*
X168345145Y-102544271D01*
X168287751Y-102584118D01*
X168217926Y-102586609D01*
X168157838Y-102550955D01*
X168147033Y-102537600D01*
X168142043Y-102530474D01*
X167979526Y-102367957D01*
X167791259Y-102236131D01*
X167695218Y-102191346D01*
X167582960Y-102138999D01*
X167360955Y-102079513D01*
X167132000Y-102059482D01*
X166903044Y-102079513D01*
X166681039Y-102138999D01*
X166472741Y-102236131D01*
X166284473Y-102367957D01*
X166121957Y-102530473D01*
X165990132Y-102718739D01*
X165974382Y-102752516D01*
X165928209Y-102804955D01*
X165861015Y-102824106D01*
X165794134Y-102803889D01*
X165749618Y-102752516D01*
X165746144Y-102745066D01*
X165733869Y-102718742D01*
X165602043Y-102530474D01*
X165439526Y-102367957D01*
X165251259Y-102236131D01*
X165155218Y-102191346D01*
X165042960Y-102138999D01*
X164820955Y-102079513D01*
X164591999Y-102059482D01*
X164363044Y-102079513D01*
X164141039Y-102138999D01*
X163932741Y-102236131D01*
X163744473Y-102367957D01*
X163581957Y-102530473D01*
X163450131Y-102718741D01*
X163352999Y-102927039D01*
X163293513Y-103149044D01*
X163273482Y-103378000D01*
X158496500Y-103378000D01*
X158496500Y-100584000D01*
X171889405Y-100584000D01*
X171909741Y-100816441D01*
X171970133Y-101041827D01*
X172068744Y-101253296D01*
X172068744Y-101253297D01*
X172202578Y-101444432D01*
X172367568Y-101609422D01*
X172558703Y-101743256D01*
X172565246Y-101746307D01*
X172617685Y-101792478D01*
X172636838Y-101859671D01*
X172616623Y-101926553D01*
X172571609Y-101965558D01*
X172571856Y-101965911D01*
X172568451Y-101968294D01*
X172565250Y-101971069D01*
X172562973Y-101972130D01*
X172484577Y-102027023D01*
X172484576Y-102027024D01*
X173056431Y-102598878D01*
X172939542Y-102649651D01*
X172822261Y-102745066D01*
X172735072Y-102868585D01*
X172704645Y-102954197D01*
X172131024Y-102380576D01*
X172131023Y-102380576D01*
X172076133Y-102458968D01*
X171978151Y-102669092D01*
X171918145Y-102893038D01*
X171897938Y-103123999D01*
X171918145Y-103354961D01*
X171978151Y-103578907D01*
X172076133Y-103789032D01*
X172131023Y-103867422D01*
X172131023Y-103867423D01*
X172702070Y-103296376D01*
X172704884Y-103309915D01*
X172774442Y-103444156D01*
X172877638Y-103554652D01*
X173006819Y-103633209D01*
X173058002Y-103647549D01*
X172484575Y-104220975D01*
X172484575Y-104220976D01*
X172562965Y-104275864D01*
X172575302Y-104281617D01*
X172627742Y-104327790D01*
X172646894Y-104394983D01*
X172626679Y-104461864D01*
X172575304Y-104506382D01*
X172562967Y-104512134D01*
X172484577Y-104567023D01*
X172484576Y-104567024D01*
X173056431Y-105138878D01*
X172939542Y-105189651D01*
X172822261Y-105285066D01*
X172735072Y-105408585D01*
X172704645Y-105494197D01*
X172131024Y-104920576D01*
X172131023Y-104920577D01*
X172076133Y-104998968D01*
X171978151Y-105209092D01*
X171918145Y-105433038D01*
X171897938Y-105664000D01*
X171918145Y-105894961D01*
X171978151Y-106118907D01*
X172076133Y-106329032D01*
X172131023Y-106407422D01*
X172131024Y-106407423D01*
X172702070Y-105836376D01*
X172704884Y-105849915D01*
X172774442Y-105984156D01*
X172877638Y-106094652D01*
X173006819Y-106173209D01*
X173058002Y-106187549D01*
X172484575Y-106760975D01*
X172484575Y-106760976D01*
X172562967Y-106815866D01*
X172773092Y-106913848D01*
X172997038Y-106973854D01*
X173228000Y-106994061D01*
X173458961Y-106973854D01*
X173682907Y-106913848D01*
X173893028Y-106815867D01*
X173971423Y-106760975D01*
X173399568Y-106189121D01*
X173516458Y-106138349D01*
X173633739Y-106042934D01*
X173720928Y-105919415D01*
X173751354Y-105833802D01*
X174324975Y-106407423D01*
X174379867Y-106329028D01*
X174477848Y-106118907D01*
X174537854Y-105894961D01*
X174558061Y-105664000D01*
X176969405Y-105664000D01*
X176989741Y-105896441D01*
X177050133Y-106121827D01*
X177146753Y-106329028D01*
X177148744Y-106333297D01*
X177282578Y-106524432D01*
X177447568Y-106689422D01*
X177638703Y-106823256D01*
X177850174Y-106921867D01*
X178075556Y-106982258D01*
X178308000Y-107002594D01*
X178540444Y-106982258D01*
X178765826Y-106921867D01*
X178977297Y-106823256D01*
X179168432Y-106689422D01*
X179333422Y-106524432D01*
X179467256Y-106333297D01*
X179565867Y-106121826D01*
X179626258Y-105896444D01*
X179646594Y-105664000D01*
X179626258Y-105431556D01*
X179565867Y-105206174D01*
X179542470Y-105155999D01*
X182577482Y-105155999D01*
X182597513Y-105384955D01*
X182656999Y-105606960D01*
X182683598Y-105664001D01*
X182754131Y-105815259D01*
X182885957Y-106003526D01*
X183048474Y-106166043D01*
X183236741Y-106297869D01*
X183445041Y-106395001D01*
X183667042Y-106454486D01*
X183896000Y-106474517D01*
X184124958Y-106454486D01*
X184346959Y-106395001D01*
X184555259Y-106297869D01*
X184743526Y-106166043D01*
X184906043Y-106003526D01*
X185037869Y-105815259D01*
X185135001Y-105606959D01*
X185194486Y-105384958D01*
X185214517Y-105156000D01*
X185194486Y-104927042D01*
X185135001Y-104705041D01*
X185037869Y-104496742D01*
X184906043Y-104308474D01*
X184743526Y-104145957D01*
X184555259Y-104014131D01*
X184521484Y-103998381D01*
X184469045Y-103952210D01*
X184449893Y-103885017D01*
X184470108Y-103818136D01*
X184521485Y-103773618D01*
X184555259Y-103757869D01*
X184743526Y-103626043D01*
X184906043Y-103463526D01*
X185037869Y-103275259D01*
X185135001Y-103066959D01*
X185194486Y-102844958D01*
X185214517Y-102616000D01*
X185194486Y-102387042D01*
X185135001Y-102165041D01*
X185037869Y-101956742D01*
X184906043Y-101768474D01*
X184743526Y-101605957D01*
X184736413Y-101600976D01*
X184692790Y-101546404D01*
X184685595Y-101476906D01*
X184717116Y-101414550D01*
X184777345Y-101379135D01*
X184794282Y-101376113D01*
X184808375Y-101374597D01*
X184943089Y-101324352D01*
X185058188Y-101238188D01*
X185144352Y-101123089D01*
X185194599Y-100988371D01*
X185200645Y-100932132D01*
X185201000Y-100925518D01*
X185201000Y-100326000D01*
X184374390Y-100326000D01*
X184375485Y-100324449D01*
X184424735Y-100185872D01*
X184434771Y-100039147D01*
X184404849Y-99895155D01*
X184369016Y-99826000D01*
X185201000Y-99826000D01*
X185201000Y-99226481D01*
X185200645Y-99219867D01*
X185194599Y-99163628D01*
X185144352Y-99028910D01*
X185058188Y-98913811D01*
X184943089Y-98827647D01*
X184808371Y-98777400D01*
X184752132Y-98771354D01*
X184745518Y-98771000D01*
X184146000Y-98771000D01*
X184146000Y-99601871D01*
X184111149Y-99580678D01*
X183969534Y-99541000D01*
X183859405Y-99541000D01*
X183750302Y-99555996D01*
X183646000Y-99601300D01*
X183646000Y-98771000D01*
X183046482Y-98771000D01*
X183039867Y-98771354D01*
X182983628Y-98777400D01*
X182848910Y-98827647D01*
X182733811Y-98913811D01*
X182647647Y-99028910D01*
X182597400Y-99163628D01*
X182591354Y-99219867D01*
X182591000Y-99226481D01*
X182591000Y-99826000D01*
X183417610Y-99826000D01*
X183416515Y-99827551D01*
X183367265Y-99966128D01*
X183357229Y-100112853D01*
X183387151Y-100256845D01*
X183422984Y-100326000D01*
X182591000Y-100326000D01*
X182591000Y-100925518D01*
X182591354Y-100932132D01*
X182597400Y-100988371D01*
X182647647Y-101123089D01*
X182733811Y-101238188D01*
X182848910Y-101324352D01*
X182983624Y-101374597D01*
X182997717Y-101376113D01*
X183062268Y-101402852D01*
X183102116Y-101460244D01*
X183104610Y-101530069D01*
X183068958Y-101590158D01*
X183055593Y-101600971D01*
X183048474Y-101605957D01*
X183048470Y-101605960D01*
X182885957Y-101768473D01*
X182754131Y-101956741D01*
X182656999Y-102165039D01*
X182597513Y-102387044D01*
X182577482Y-102616000D01*
X182597513Y-102844955D01*
X182656999Y-103066960D01*
X182683598Y-103124001D01*
X182754131Y-103275259D01*
X182885957Y-103463526D01*
X183048474Y-103626043D01*
X183236741Y-103757869D01*
X183270515Y-103773618D01*
X183322954Y-103819791D01*
X183342106Y-103886984D01*
X183321890Y-103953865D01*
X183270516Y-103998382D01*
X183236739Y-104014132D01*
X183048473Y-104145957D01*
X182885957Y-104308473D01*
X182754131Y-104496741D01*
X182656999Y-104705039D01*
X182597513Y-104927044D01*
X182577482Y-105155999D01*
X179542470Y-105155999D01*
X179467256Y-104994703D01*
X179333422Y-104803568D01*
X179168432Y-104638578D01*
X178977297Y-104504744D01*
X178977296Y-104504743D01*
X178968411Y-104498522D01*
X178969734Y-104496631D01*
X178928371Y-104460211D01*
X178909218Y-104393017D01*
X178929433Y-104326136D01*
X178969667Y-104291272D01*
X178968411Y-104289478D01*
X178979638Y-104281617D01*
X179168432Y-104149422D01*
X179333422Y-103984432D01*
X179467256Y-103793297D01*
X179565867Y-103581826D01*
X179626258Y-103356444D01*
X179646594Y-103124000D01*
X179626258Y-102891556D01*
X179565867Y-102666174D01*
X179467256Y-102454703D01*
X179333422Y-102263568D01*
X179168432Y-102098578D01*
X178977297Y-101964744D01*
X178977296Y-101964743D01*
X178968411Y-101958522D01*
X178969734Y-101956631D01*
X178928371Y-101920211D01*
X178909218Y-101853017D01*
X178929433Y-101786136D01*
X178969667Y-101751272D01*
X178968411Y-101749478D01*
X178977300Y-101743254D01*
X179168432Y-101609422D01*
X179333422Y-101444432D01*
X179467256Y-101253297D01*
X179565867Y-101041826D01*
X179626258Y-100816444D01*
X179646594Y-100584000D01*
X179626258Y-100351556D01*
X179565867Y-100126174D01*
X179467256Y-99914703D01*
X179333422Y-99723568D01*
X179168432Y-99558578D01*
X178977297Y-99424744D01*
X178977296Y-99424743D01*
X178968411Y-99418522D01*
X178969734Y-99416631D01*
X178928371Y-99380211D01*
X178909218Y-99313017D01*
X178929433Y-99246136D01*
X178969667Y-99211272D01*
X178968411Y-99209478D01*
X178977297Y-99203256D01*
X179168432Y-99069422D01*
X179333422Y-98904432D01*
X179467256Y-98713297D01*
X179565867Y-98501826D01*
X179626258Y-98276444D01*
X179646594Y-98044000D01*
X179626258Y-97811556D01*
X179565867Y-97586174D01*
X179467256Y-97374703D01*
X179333422Y-97183568D01*
X179168432Y-97018578D01*
X178977297Y-96884744D01*
X178885903Y-96842126D01*
X178765827Y-96786133D01*
X178540441Y-96725741D01*
X178308000Y-96705405D01*
X178075558Y-96725741D01*
X177850172Y-96786133D01*
X177638702Y-96884744D01*
X177447567Y-97018578D01*
X177282578Y-97183567D01*
X177148744Y-97374702D01*
X177050133Y-97586172D01*
X176989741Y-97811558D01*
X176969405Y-98044000D01*
X176989741Y-98276441D01*
X177050133Y-98501827D01*
X177148744Y-98713297D01*
X177282578Y-98904432D01*
X177447567Y-99069421D01*
X177647589Y-99209478D01*
X177646265Y-99211368D01*
X177687632Y-99247796D01*
X177706781Y-99314990D01*
X177686562Y-99381870D01*
X177646333Y-99416728D01*
X177647589Y-99418522D01*
X177447567Y-99558578D01*
X177282578Y-99723567D01*
X177148744Y-99914702D01*
X177050133Y-100126172D01*
X176989741Y-100351558D01*
X176969405Y-100584000D01*
X176989741Y-100816441D01*
X177050133Y-101041827D01*
X177148744Y-101253297D01*
X177282578Y-101444432D01*
X177447567Y-101609421D01*
X177647589Y-101749478D01*
X177646265Y-101751368D01*
X177687632Y-101787796D01*
X177706781Y-101854990D01*
X177686562Y-101921870D01*
X177646333Y-101956728D01*
X177647589Y-101958522D01*
X177447567Y-102098578D01*
X177282578Y-102263567D01*
X177148744Y-102454702D01*
X177050133Y-102666172D01*
X176989741Y-102891558D01*
X176969405Y-103123999D01*
X176989741Y-103356441D01*
X177050133Y-103581827D01*
X177132224Y-103757870D01*
X177148744Y-103793297D01*
X177282578Y-103984432D01*
X177447568Y-104149422D01*
X177628146Y-104275864D01*
X177647589Y-104289478D01*
X177646265Y-104291368D01*
X177687632Y-104327796D01*
X177706781Y-104394990D01*
X177686562Y-104461870D01*
X177646333Y-104496728D01*
X177647589Y-104498522D01*
X177447567Y-104638578D01*
X177282578Y-104803567D01*
X177148744Y-104994702D01*
X177050133Y-105206172D01*
X176989741Y-105431558D01*
X176969405Y-105664000D01*
X174558061Y-105664000D01*
X174537854Y-105433038D01*
X174477848Y-105209092D01*
X174379867Y-104998972D01*
X174324974Y-104920576D01*
X173753929Y-105491622D01*
X173751116Y-105478085D01*
X173681558Y-105343844D01*
X173578362Y-105233348D01*
X173449181Y-105154791D01*
X173397997Y-105140450D01*
X173971423Y-104567024D01*
X173971422Y-104567023D01*
X173893034Y-104512135D01*
X173880698Y-104506383D01*
X173828258Y-104460210D01*
X173809106Y-104393017D01*
X173829321Y-104326136D01*
X173880698Y-104281617D01*
X173893031Y-104275865D01*
X173971423Y-104220975D01*
X173399568Y-103649121D01*
X173516458Y-103598349D01*
X173633739Y-103502934D01*
X173720928Y-103379415D01*
X173751354Y-103293802D01*
X174324975Y-103867423D01*
X174379867Y-103789028D01*
X174477848Y-103578907D01*
X174537854Y-103354961D01*
X174558061Y-103123999D01*
X174537854Y-102893038D01*
X174477848Y-102669092D01*
X174379867Y-102458972D01*
X174324974Y-102380576D01*
X173753929Y-102951622D01*
X173751116Y-102938085D01*
X173681558Y-102803844D01*
X173578362Y-102693348D01*
X173449181Y-102614791D01*
X173397997Y-102600450D01*
X173971423Y-102027024D01*
X173971422Y-102027023D01*
X173893032Y-101972133D01*
X173890753Y-101971071D01*
X173887796Y-101968467D01*
X173884145Y-101965911D01*
X173884430Y-101965503D01*
X173838314Y-101924899D01*
X173819162Y-101857705D01*
X173839378Y-101790824D01*
X173890753Y-101746307D01*
X173897297Y-101743256D01*
X174088432Y-101609422D01*
X174253422Y-101444432D01*
X174387256Y-101253297D01*
X174485867Y-101041826D01*
X174546258Y-100816444D01*
X174566594Y-100584000D01*
X174546258Y-100351556D01*
X174485867Y-100126174D01*
X174387256Y-99914703D01*
X174253422Y-99723568D01*
X174088432Y-99558578D01*
X173897297Y-99424744D01*
X173897296Y-99424743D01*
X173888411Y-99418522D01*
X173889734Y-99416631D01*
X173848371Y-99380211D01*
X173829218Y-99313017D01*
X173849433Y-99246136D01*
X173889667Y-99211272D01*
X173888411Y-99209478D01*
X173897297Y-99203256D01*
X174088432Y-99069422D01*
X174253422Y-98904432D01*
X174387256Y-98713297D01*
X174485867Y-98501826D01*
X174546258Y-98276444D01*
X174566594Y-98044000D01*
X174546258Y-97811556D01*
X174485867Y-97586174D01*
X174387256Y-97374703D01*
X174253422Y-97183568D01*
X174088432Y-97018578D01*
X173914375Y-96896702D01*
X173870752Y-96842126D01*
X173861500Y-96795128D01*
X173861500Y-94212871D01*
X173881185Y-94145832D01*
X173914375Y-94111297D01*
X174088432Y-93989422D01*
X174253422Y-93824432D01*
X174387256Y-93633297D01*
X174485867Y-93421826D01*
X174546258Y-93196444D01*
X174566594Y-92964000D01*
X176977938Y-92964000D01*
X176998145Y-93194961D01*
X177058151Y-93418907D01*
X177156133Y-93629032D01*
X177211023Y-93707422D01*
X177211024Y-93707423D01*
X177782070Y-93136376D01*
X177784884Y-93149915D01*
X177854442Y-93284156D01*
X177957638Y-93394652D01*
X178086819Y-93473209D01*
X178138002Y-93487549D01*
X177564575Y-94060975D01*
X177564575Y-94060976D01*
X177642967Y-94115866D01*
X177853092Y-94213848D01*
X178077038Y-94273854D01*
X178307999Y-94294061D01*
X178538961Y-94273854D01*
X178762907Y-94213848D01*
X178973028Y-94115867D01*
X179051423Y-94060975D01*
X178479568Y-93489121D01*
X178596458Y-93438349D01*
X178713739Y-93342934D01*
X178800928Y-93219415D01*
X178831354Y-93133802D01*
X179404975Y-93707423D01*
X179459867Y-93629028D01*
X179557848Y-93418907D01*
X179617854Y-93194961D01*
X179638061Y-92964000D01*
X179617854Y-92733038D01*
X179557848Y-92509092D01*
X179459867Y-92298972D01*
X179404974Y-92220576D01*
X178833929Y-92791622D01*
X178831116Y-92778085D01*
X178761558Y-92643844D01*
X178658362Y-92533348D01*
X178529181Y-92454791D01*
X178477997Y-92440450D01*
X179051423Y-91867024D01*
X179051422Y-91867023D01*
X178973032Y-91812133D01*
X178762907Y-91714151D01*
X178538961Y-91654145D01*
X178308000Y-91633938D01*
X178077038Y-91654145D01*
X177853092Y-91714151D01*
X177642968Y-91812133D01*
X177564577Y-91867023D01*
X177564576Y-91867024D01*
X178136431Y-92438878D01*
X178019542Y-92489651D01*
X177902261Y-92585066D01*
X177815072Y-92708585D01*
X177784645Y-92794197D01*
X177211024Y-92220576D01*
X177211023Y-92220577D01*
X177156133Y-92298968D01*
X177058151Y-92509092D01*
X176998145Y-92733038D01*
X176977938Y-92964000D01*
X174566594Y-92964000D01*
X174546258Y-92731556D01*
X174485867Y-92506174D01*
X174387256Y-92294703D01*
X174253422Y-92103568D01*
X174088432Y-91938578D01*
X173897297Y-91804744D01*
X173897297Y-91804743D01*
X173685827Y-91706133D01*
X173460441Y-91645741D01*
X173228000Y-91625405D01*
X172995558Y-91645741D01*
X172770172Y-91706133D01*
X172558702Y-91804744D01*
X172367567Y-91938578D01*
X172202578Y-92103567D01*
X172068744Y-92294702D01*
X171970133Y-92506172D01*
X171909741Y-92731558D01*
X171889405Y-92963999D01*
X171909741Y-93196441D01*
X171970133Y-93421827D01*
X172066753Y-93629028D01*
X172068744Y-93633297D01*
X172202578Y-93824432D01*
X172367568Y-93989422D01*
X172541623Y-94111297D01*
X172585248Y-94165873D01*
X172594500Y-94212871D01*
X172594500Y-96795128D01*
X172574815Y-96862167D01*
X172541624Y-96896703D01*
X172367564Y-97018581D01*
X172202578Y-97183567D01*
X172068744Y-97374702D01*
X171970133Y-97586172D01*
X171909741Y-97811558D01*
X171889405Y-98043999D01*
X171909741Y-98276441D01*
X171970133Y-98501827D01*
X172068744Y-98713297D01*
X172202578Y-98904432D01*
X172367567Y-99069421D01*
X172567589Y-99209478D01*
X172566265Y-99211368D01*
X172607632Y-99247796D01*
X172626781Y-99314990D01*
X172606562Y-99381870D01*
X172566333Y-99416728D01*
X172567589Y-99418522D01*
X172367567Y-99558578D01*
X172202578Y-99723567D01*
X172068744Y-99914702D01*
X171970133Y-100126172D01*
X171909741Y-100351558D01*
X171889405Y-100584000D01*
X158496500Y-100584000D01*
X158496500Y-90931999D01*
X167422806Y-90931999D01*
X167441541Y-91146139D01*
X167485131Y-91308820D01*
X167497178Y-91353777D01*
X167588024Y-91548597D01*
X167711319Y-91724681D01*
X167863319Y-91876681D01*
X168039403Y-91999976D01*
X168234223Y-92090822D01*
X168441858Y-92146458D01*
X168584619Y-92158948D01*
X168655999Y-92165193D01*
X168655999Y-92165192D01*
X168656000Y-92165193D01*
X168870142Y-92146458D01*
X169077777Y-92090822D01*
X169272597Y-91999976D01*
X169448681Y-91876681D01*
X169600681Y-91724681D01*
X169723976Y-91548597D01*
X169814822Y-91353777D01*
X169870458Y-91146142D01*
X169886858Y-90958694D01*
X169912310Y-90893625D01*
X169968901Y-90852646D01*
X170010386Y-90845501D01*
X181274639Y-90845501D01*
X181341678Y-90865186D01*
X181387433Y-90917990D01*
X181397377Y-90987148D01*
X181390821Y-91012834D01*
X181367400Y-91075626D01*
X181361354Y-91131867D01*
X181361000Y-91138481D01*
X181361000Y-91698000D01*
X182180428Y-91698000D01*
X182157318Y-91733960D01*
X182116000Y-91874673D01*
X182116000Y-92021327D01*
X182157318Y-92162040D01*
X182180428Y-92198000D01*
X181361000Y-92198000D01*
X181361000Y-92757518D01*
X181361354Y-92764132D01*
X181367400Y-92820371D01*
X181417647Y-92955089D01*
X181503811Y-93070188D01*
X181618910Y-93156352D01*
X181753628Y-93206599D01*
X181809867Y-93212645D01*
X181816482Y-93213000D01*
X182376000Y-93213000D01*
X182376000Y-92394494D01*
X182480839Y-92442373D01*
X182589527Y-92458000D01*
X182662473Y-92458000D01*
X182771161Y-92442373D01*
X182876000Y-92394494D01*
X182876000Y-93213000D01*
X183435518Y-93213000D01*
X183442132Y-93212645D01*
X183498371Y-93206599D01*
X183633089Y-93156352D01*
X183748188Y-93070188D01*
X183834352Y-92955089D01*
X183884599Y-92820371D01*
X183890645Y-92764132D01*
X183891000Y-92757518D01*
X183891000Y-92740669D01*
X183910685Y-92673630D01*
X183963489Y-92627875D01*
X184032647Y-92617931D01*
X184096203Y-92646956D01*
X184116570Y-92669540D01*
X184186716Y-92769717D01*
X184186718Y-92769719D01*
X184344283Y-92927284D01*
X184526816Y-93055097D01*
X184683484Y-93128151D01*
X184728773Y-93149270D01*
X184944014Y-93206944D01*
X185166000Y-93226365D01*
X185387986Y-93206944D01*
X185603227Y-93149270D01*
X185805183Y-93055097D01*
X185987717Y-92927284D01*
X186145284Y-92769717D01*
X186273097Y-92587183D01*
X186367270Y-92385227D01*
X186424944Y-92169986D01*
X186444365Y-91948000D01*
X186424944Y-91726014D01*
X186367270Y-91510773D01*
X186273097Y-91308818D01*
X186145284Y-91126283D01*
X185987717Y-90968716D01*
X185987716Y-90968715D01*
X185805183Y-90840902D01*
X185603230Y-90746731D01*
X185603227Y-90746730D01*
X185423866Y-90698670D01*
X185387983Y-90689055D01*
X185166000Y-90669634D01*
X184944012Y-90689055D01*
X184901918Y-90700334D01*
X184832068Y-90698670D01*
X184782145Y-90668240D01*
X183937089Y-89823184D01*
X183924045Y-89806903D01*
X183922001Y-89804984D01*
X183922001Y-89804983D01*
X183872316Y-89758326D01*
X183869551Y-89755646D01*
X183852528Y-89738623D01*
X183849771Y-89735866D01*
X183846487Y-89733318D01*
X183837624Y-89725747D01*
X183805322Y-89695415D01*
X183787434Y-89685581D01*
X183771170Y-89674897D01*
X183755041Y-89662386D01*
X183714378Y-89644790D01*
X183703884Y-89639649D01*
X183665063Y-89618306D01*
X183653387Y-89615308D01*
X183645285Y-89613228D01*
X183626880Y-89606927D01*
X183608146Y-89598820D01*
X183608144Y-89598819D01*
X183608143Y-89598819D01*
X183564384Y-89591888D01*
X183552944Y-89589519D01*
X183510032Y-89578501D01*
X183510031Y-89578501D01*
X183489617Y-89578501D01*
X183470218Y-89576974D01*
X183450059Y-89573781D01*
X183450058Y-89573781D01*
X183423410Y-89576300D01*
X183405944Y-89577951D01*
X183394275Y-89578501D01*
X169459627Y-89578501D01*
X169432577Y-89575515D01*
X169420802Y-89572883D01*
X169421715Y-89568794D01*
X169381378Y-89558299D01*
X169334006Y-89506941D01*
X169321619Y-89441146D01*
X169324030Y-89413583D01*
X168762035Y-88851587D01*
X168789776Y-88847599D01*
X168912714Y-88791455D01*
X169014855Y-88702949D01*
X169087923Y-88589253D01*
X169114907Y-88497353D01*
X169677583Y-89060030D01*
X169716589Y-89004325D01*
X169806802Y-88810861D01*
X169862055Y-88604657D01*
X169880660Y-88392000D01*
X169862055Y-88179342D01*
X169806802Y-87973138D01*
X169716587Y-87779670D01*
X169677583Y-87723967D01*
X169114906Y-88286644D01*
X169087923Y-88194747D01*
X169014855Y-88081051D01*
X168912714Y-87992545D01*
X168789776Y-87936401D01*
X168762034Y-87932412D01*
X169324031Y-87370415D01*
X169268325Y-87331409D01*
X169070303Y-87239071D01*
X169017863Y-87192899D01*
X168998711Y-87125706D01*
X169018926Y-87058824D01*
X169070303Y-87014307D01*
X169077777Y-87010822D01*
X169272597Y-86919976D01*
X169448681Y-86796681D01*
X169600681Y-86644681D01*
X169723976Y-86468597D01*
X169814822Y-86273777D01*
X169870458Y-86066142D01*
X169889193Y-85852000D01*
X169870458Y-85637858D01*
X169814822Y-85430223D01*
X169723976Y-85235404D01*
X169723975Y-85235402D01*
X169600683Y-85059321D01*
X169600679Y-85059317D01*
X169448681Y-84907319D01*
X169272597Y-84784024D01*
X169077778Y-84693178D01*
X168870139Y-84637541D01*
X168656000Y-84618806D01*
X168441860Y-84637541D01*
X168234221Y-84693178D01*
X168039402Y-84784024D01*
X167863317Y-84907319D01*
X167711319Y-85059317D01*
X167588024Y-85235402D01*
X167497178Y-85430221D01*
X167441541Y-85637860D01*
X167422806Y-85852000D01*
X167441541Y-86066139D01*
X167441542Y-86066142D01*
X167497178Y-86273777D01*
X167588024Y-86468597D01*
X167711319Y-86644681D01*
X167863319Y-86796681D01*
X168039403Y-86919976D01*
X168234223Y-87010822D01*
X168241697Y-87014307D01*
X168294136Y-87060479D01*
X168313288Y-87127673D01*
X168293072Y-87194554D01*
X168241697Y-87239071D01*
X168043670Y-87331412D01*
X167987968Y-87370414D01*
X167987967Y-87370415D01*
X168549966Y-87932412D01*
X168522224Y-87936401D01*
X168399286Y-87992545D01*
X168297145Y-88081051D01*
X168224077Y-88194747D01*
X168197093Y-88286644D01*
X167634415Y-87723967D01*
X167634414Y-87723967D01*
X167595411Y-87779672D01*
X167505197Y-87973138D01*
X167449944Y-88179342D01*
X167431339Y-88392000D01*
X167449944Y-88604657D01*
X167505197Y-88810861D01*
X167595410Y-89004326D01*
X167634415Y-89060030D01*
X167634415Y-89060031D01*
X168197092Y-88497354D01*
X168224077Y-88589253D01*
X168297145Y-88702949D01*
X168399286Y-88791455D01*
X168522224Y-88847599D01*
X168549965Y-88851587D01*
X167987967Y-89413583D01*
X168043669Y-89452586D01*
X168241697Y-89544928D01*
X168294136Y-89591100D01*
X168313288Y-89658294D01*
X168293072Y-89725175D01*
X168241697Y-89769692D01*
X168039402Y-89864024D01*
X167863317Y-89987319D01*
X167711319Y-90139317D01*
X167588024Y-90315402D01*
X167497178Y-90510221D01*
X167441541Y-90717860D01*
X167422806Y-90931999D01*
X158496500Y-90931999D01*
X158496500Y-77216000D01*
X159500641Y-77216000D01*
X159500823Y-77219356D01*
X159519881Y-77570878D01*
X159519882Y-77570894D01*
X159520064Y-77574237D01*
X159520606Y-77577547D01*
X159520607Y-77577550D01*
X159577561Y-77924960D01*
X159577563Y-77924972D01*
X159578105Y-77928274D01*
X159579001Y-77931503D01*
X159579004Y-77931514D01*
X159654884Y-78204806D01*
X159674085Y-78273961D01*
X159806877Y-78607243D01*
X159808447Y-78610205D01*
X159808452Y-78610215D01*
X159928356Y-78836377D01*
X159974925Y-78924215D01*
X159976812Y-78926998D01*
X159976815Y-78927003D01*
X160005776Y-78969717D01*
X160176258Y-79221159D01*
X160245710Y-79302924D01*
X160404050Y-79489338D01*
X160408516Y-79494595D01*
X160410947Y-79496898D01*
X160410953Y-79496904D01*
X160411269Y-79497203D01*
X160668977Y-79741317D01*
X160954586Y-79958431D01*
X161261995Y-80143393D01*
X161587599Y-80294033D01*
X161927583Y-80408587D01*
X162277958Y-80485711D01*
X162634618Y-80524500D01*
X162637976Y-80524500D01*
X162990024Y-80524500D01*
X162993382Y-80524500D01*
X163350042Y-80485711D01*
X163700417Y-80408587D01*
X164040401Y-80294033D01*
X164366005Y-80143393D01*
X164673414Y-79958431D01*
X164959023Y-79741317D01*
X165219484Y-79494595D01*
X165385082Y-79299638D01*
X168652500Y-79299638D01*
X168652852Y-79302918D01*
X168652853Y-79302924D01*
X168659011Y-79360205D01*
X168710110Y-79497203D01*
X168797738Y-79614261D01*
X168914796Y-79701889D01*
X169051794Y-79752988D01*
X169051797Y-79752988D01*
X169051799Y-79752989D01*
X169112362Y-79759500D01*
X169115672Y-79759500D01*
X170736328Y-79759500D01*
X170739638Y-79759500D01*
X170800201Y-79752989D01*
X170800203Y-79752988D01*
X170800205Y-79752988D01*
X170878124Y-79723924D01*
X170937204Y-79701889D01*
X171054261Y-79614261D01*
X171141889Y-79497204D01*
X171192989Y-79360201D01*
X171199500Y-79299638D01*
X171199500Y-79290808D01*
X171219185Y-79223769D01*
X171271989Y-79178014D01*
X171341147Y-79168070D01*
X171404703Y-79197095D01*
X171425070Y-79219679D01*
X171486716Y-79307717D01*
X171486719Y-79307719D01*
X171486719Y-79307720D01*
X171644283Y-79465284D01*
X171826816Y-79593097D01*
X171983484Y-79666151D01*
X172028773Y-79687270D01*
X172244014Y-79744944D01*
X172466000Y-79764365D01*
X172687986Y-79744944D01*
X172903227Y-79687270D01*
X173105183Y-79593097D01*
X173287717Y-79465284D01*
X173445284Y-79307717D01*
X173573097Y-79125183D01*
X173667270Y-78923227D01*
X173724944Y-78707986D01*
X173744365Y-78486000D01*
X173724944Y-78264014D01*
X173667270Y-78048773D01*
X173573097Y-77846818D01*
X173445284Y-77664283D01*
X173287717Y-77506716D01*
X173287716Y-77506715D01*
X173105183Y-77378902D01*
X172903230Y-77284731D01*
X172903227Y-77284730D01*
X172795606Y-77255892D01*
X172687983Y-77227055D01*
X172466000Y-77207634D01*
X172244016Y-77227055D01*
X172028771Y-77284730D01*
X171872204Y-77357739D01*
X171826818Y-77378903D01*
X171644283Y-77506716D01*
X171644279Y-77506719D01*
X171486719Y-77664279D01*
X171486716Y-77664282D01*
X171486716Y-77664283D01*
X171425073Y-77752317D01*
X171370497Y-77795941D01*
X171300999Y-77803133D01*
X171238644Y-77771611D01*
X171203231Y-77711381D01*
X171199500Y-77681192D01*
X171199500Y-77675671D01*
X171199500Y-77675670D01*
X171199500Y-77672362D01*
X171192989Y-77611799D01*
X171192988Y-77611797D01*
X171192988Y-77611794D01*
X171141889Y-77474796D01*
X171054261Y-77357738D01*
X170937203Y-77270110D01*
X170800205Y-77219011D01*
X170742924Y-77212853D01*
X170742918Y-77212852D01*
X170739638Y-77212500D01*
X169112362Y-77212500D01*
X169109082Y-77212852D01*
X169109075Y-77212853D01*
X169051794Y-77219011D01*
X168914796Y-77270110D01*
X168797738Y-77357738D01*
X168710110Y-77474796D01*
X168659011Y-77611794D01*
X168652853Y-77669075D01*
X168652500Y-77672362D01*
X168652500Y-79299638D01*
X165385082Y-79299638D01*
X165451742Y-79221159D01*
X165653075Y-78924215D01*
X165821123Y-78607243D01*
X165953915Y-78273961D01*
X166049895Y-77928274D01*
X166107936Y-77574237D01*
X166127359Y-77216000D01*
X166113588Y-76962000D01*
X181598641Y-76962000D01*
X181598823Y-76965356D01*
X181617881Y-77316878D01*
X181617882Y-77316894D01*
X181618064Y-77320237D01*
X181618606Y-77323547D01*
X181618607Y-77323550D01*
X181675561Y-77670960D01*
X181675563Y-77670972D01*
X181676105Y-77674274D01*
X181677001Y-77677503D01*
X181677004Y-77677514D01*
X181724012Y-77846818D01*
X181772085Y-78019961D01*
X181773329Y-78023084D01*
X181773330Y-78023086D01*
X181869325Y-78264016D01*
X181904877Y-78353243D01*
X181906447Y-78356205D01*
X181906452Y-78356215D01*
X181975260Y-78486000D01*
X182072925Y-78670215D01*
X182074812Y-78672998D01*
X182074815Y-78673003D01*
X182272371Y-78964376D01*
X182274258Y-78967159D01*
X182276431Y-78969717D01*
X182492179Y-79223717D01*
X182506516Y-79240595D01*
X182508947Y-79242898D01*
X182508953Y-79242904D01*
X182688533Y-79413011D01*
X182766977Y-79487317D01*
X183052586Y-79704431D01*
X183359995Y-79889393D01*
X183685599Y-80040033D01*
X184025583Y-80154587D01*
X184375958Y-80231711D01*
X184732618Y-80270500D01*
X184735976Y-80270500D01*
X185088024Y-80270500D01*
X185091382Y-80270500D01*
X185448042Y-80231711D01*
X185798417Y-80154587D01*
X186138401Y-80040033D01*
X186464005Y-79889393D01*
X186771414Y-79704431D01*
X187057023Y-79487317D01*
X187317484Y-79240595D01*
X187549742Y-78967159D01*
X187751075Y-78670215D01*
X187919123Y-78353243D01*
X188051915Y-78019961D01*
X188147895Y-77674274D01*
X188205936Y-77320237D01*
X188225359Y-76962000D01*
X188205936Y-76603763D01*
X188147895Y-76249726D01*
X188051915Y-75904039D01*
X187919123Y-75570757D01*
X187751075Y-75253785D01*
X187549742Y-74956841D01*
X187404665Y-74786043D01*
X187319657Y-74685963D01*
X187319654Y-74685960D01*
X187317484Y-74683405D01*
X187315051Y-74681100D01*
X187315046Y-74681095D01*
X187059453Y-74438985D01*
X187057023Y-74436683D01*
X186771414Y-74219569D01*
X186768540Y-74217840D01*
X186768536Y-74217837D01*
X186466887Y-74036341D01*
X186466886Y-74036340D01*
X186464005Y-74034607D01*
X186439809Y-74023413D01*
X186247314Y-73934355D01*
X186138401Y-73883967D01*
X186045957Y-73852819D01*
X185801591Y-73770482D01*
X185801583Y-73770479D01*
X185798417Y-73769413D01*
X185795150Y-73768694D01*
X185795147Y-73768693D01*
X185451323Y-73693011D01*
X185451319Y-73693010D01*
X185448042Y-73692289D01*
X185444706Y-73691926D01*
X185444699Y-73691925D01*
X185094720Y-73653863D01*
X185094719Y-73653862D01*
X185091382Y-73653500D01*
X184732618Y-73653500D01*
X184729281Y-73653862D01*
X184729279Y-73653863D01*
X184379300Y-73691925D01*
X184379290Y-73691926D01*
X184375958Y-73692289D01*
X184372683Y-73693009D01*
X184372676Y-73693011D01*
X184028852Y-73768693D01*
X184028844Y-73768695D01*
X184025583Y-73769413D01*
X184022421Y-73770478D01*
X184022408Y-73770482D01*
X183688786Y-73882893D01*
X183688783Y-73882894D01*
X183685599Y-73883967D01*
X183682550Y-73885377D01*
X183682544Y-73885380D01*
X183363050Y-74033193D01*
X183363040Y-74033197D01*
X183359995Y-74034607D01*
X183357121Y-74036336D01*
X183357112Y-74036341D01*
X183055463Y-74217837D01*
X183055450Y-74217845D01*
X183052586Y-74219569D01*
X183049928Y-74221589D01*
X183049917Y-74221597D01*
X182769636Y-74434661D01*
X182769628Y-74434667D01*
X182766977Y-74436683D01*
X182764553Y-74438978D01*
X182764546Y-74438985D01*
X182508953Y-74681095D01*
X182508938Y-74681110D01*
X182506516Y-74683405D01*
X182504353Y-74685950D01*
X182504342Y-74685963D01*
X182276431Y-74954282D01*
X182276425Y-74954289D01*
X182274258Y-74956841D01*
X182272378Y-74959613D01*
X182272371Y-74959623D01*
X182074815Y-75250996D01*
X182074807Y-75251008D01*
X182072925Y-75253785D01*
X182071350Y-75256755D01*
X182071348Y-75256759D01*
X181906452Y-75567784D01*
X181906443Y-75567801D01*
X181904877Y-75570757D01*
X181903636Y-75573869D01*
X181903632Y-75573880D01*
X181773330Y-75900913D01*
X181773327Y-75900921D01*
X181772085Y-75904039D01*
X181771185Y-75907277D01*
X181771185Y-75907280D01*
X181677004Y-76246485D01*
X181677000Y-76246500D01*
X181676105Y-76249726D01*
X181675564Y-76253023D01*
X181675561Y-76253039D01*
X181634995Y-76500485D01*
X181618064Y-76603763D01*
X181617882Y-76607103D01*
X181617881Y-76607121D01*
X181604110Y-76861121D01*
X181598641Y-76962000D01*
X166113588Y-76962000D01*
X166107936Y-76857763D01*
X166049895Y-76503726D01*
X165953915Y-76158039D01*
X165821123Y-75824757D01*
X165653075Y-75507785D01*
X165451742Y-75210841D01*
X165235993Y-74956841D01*
X165221657Y-74939963D01*
X165221654Y-74939960D01*
X165219484Y-74937405D01*
X165217051Y-74935100D01*
X165217046Y-74935095D01*
X164961453Y-74692985D01*
X164959023Y-74690683D01*
X164673414Y-74473569D01*
X164670540Y-74471840D01*
X164670536Y-74471837D01*
X164368887Y-74290341D01*
X164368886Y-74290340D01*
X164366005Y-74288607D01*
X164040401Y-74137967D01*
X163947957Y-74106819D01*
X163703591Y-74024482D01*
X163703583Y-74024479D01*
X163700417Y-74023413D01*
X163697150Y-74022694D01*
X163697147Y-74022693D01*
X163353323Y-73947011D01*
X163353319Y-73947010D01*
X163350042Y-73946289D01*
X163346706Y-73945926D01*
X163346699Y-73945925D01*
X162996720Y-73907863D01*
X162996719Y-73907862D01*
X162993382Y-73907500D01*
X162634618Y-73907500D01*
X162631281Y-73907862D01*
X162631279Y-73907863D01*
X162281300Y-73945925D01*
X162281290Y-73945926D01*
X162277958Y-73946289D01*
X162274683Y-73947009D01*
X162274676Y-73947011D01*
X161930852Y-74022693D01*
X161930844Y-74022695D01*
X161927583Y-74023413D01*
X161924421Y-74024478D01*
X161924408Y-74024482D01*
X161590786Y-74136893D01*
X161590783Y-74136894D01*
X161587599Y-74137967D01*
X161584550Y-74139377D01*
X161584544Y-74139380D01*
X161265050Y-74287193D01*
X161265040Y-74287197D01*
X161261995Y-74288607D01*
X161259121Y-74290336D01*
X161259112Y-74290341D01*
X160957463Y-74471837D01*
X160957450Y-74471845D01*
X160954586Y-74473569D01*
X160951928Y-74475589D01*
X160951917Y-74475597D01*
X160671636Y-74688661D01*
X160671628Y-74688667D01*
X160668977Y-74690683D01*
X160666553Y-74692978D01*
X160666546Y-74692985D01*
X160410953Y-74935095D01*
X160410938Y-74935110D01*
X160408516Y-74937405D01*
X160406353Y-74939950D01*
X160406342Y-74939963D01*
X160178431Y-75208282D01*
X160178425Y-75208289D01*
X160176258Y-75210841D01*
X160174378Y-75213613D01*
X160174371Y-75213623D01*
X159976815Y-75504996D01*
X159976807Y-75505008D01*
X159974925Y-75507785D01*
X159973350Y-75510755D01*
X159973348Y-75510759D01*
X159808452Y-75821784D01*
X159808443Y-75821801D01*
X159806877Y-75824757D01*
X159805636Y-75827869D01*
X159805632Y-75827880D01*
X159675330Y-76154913D01*
X159675327Y-76154921D01*
X159674085Y-76158039D01*
X159673185Y-76161277D01*
X159673185Y-76161280D01*
X159579004Y-76500485D01*
X159579000Y-76500500D01*
X159578105Y-76503726D01*
X159577564Y-76507023D01*
X159577561Y-76507039D01*
X159561154Y-76607121D01*
X159520064Y-76857763D01*
X159519882Y-76861103D01*
X159519881Y-76861121D01*
X159514594Y-76958643D01*
X159500641Y-77216000D01*
X158496500Y-77216000D01*
X158496500Y-73022500D01*
X158516185Y-72955461D01*
X158568989Y-72909706D01*
X158620500Y-72898500D01*
X189359500Y-72898500D01*
X189426539Y-72918185D01*
G37*
%TD.AperFunction*%
%TD*%
M02*
