%TF.GenerationSoftware,KiCad,Pcbnew,7.0.2*%
%TF.CreationDate,2023-05-21T22:41:38+02:00*%
%TF.ProjectId,AMS & IMD Reset,414d5320-2620-4494-9d44-205265736574,rev?*%
%TF.SameCoordinates,Original*%
%TF.FileFunction,Legend,Top*%
%TF.FilePolarity,Positive*%
%FSLAX46Y46*%
G04 Gerber Fmt 4.6, Leading zero omitted, Abs format (unit mm)*
G04 Created by KiCad (PCBNEW 7.0.2) date 2023-05-21 22:41:38*
%MOMM*%
%LPD*%
G01*
G04 APERTURE LIST*
%ADD10C,0.150000*%
%ADD11C,0.254000*%
%ADD12C,0.127000*%
%ADD13C,0.200000*%
%ADD14C,0.100000*%
G04 APERTURE END LIST*
D10*
X161127785Y-81480001D02*
X161127785Y-81980001D01*
X160342071Y-82194287D02*
X160342071Y-81480001D01*
X160342071Y-81480001D02*
X161842071Y-81480001D01*
X161842071Y-81480001D02*
X161842071Y-82194287D01*
X160342071Y-82837144D02*
X161842071Y-82837144D01*
X161842071Y-82837144D02*
X161842071Y-83408573D01*
X161842071Y-83408573D02*
X161770642Y-83551430D01*
X161770642Y-83551430D02*
X161699214Y-83622859D01*
X161699214Y-83622859D02*
X161556357Y-83694287D01*
X161556357Y-83694287D02*
X161342071Y-83694287D01*
X161342071Y-83694287D02*
X161199214Y-83622859D01*
X161199214Y-83622859D02*
X161127785Y-83551430D01*
X161127785Y-83551430D02*
X161056357Y-83408573D01*
X161056357Y-83408573D02*
X161056357Y-82837144D01*
X160413500Y-84265716D02*
X160342071Y-84480002D01*
X160342071Y-84480002D02*
X160342071Y-84837144D01*
X160342071Y-84837144D02*
X160413500Y-84980002D01*
X160413500Y-84980002D02*
X160484928Y-85051430D01*
X160484928Y-85051430D02*
X160627785Y-85122859D01*
X160627785Y-85122859D02*
X160770642Y-85122859D01*
X160770642Y-85122859D02*
X160913500Y-85051430D01*
X160913500Y-85051430D02*
X160984928Y-84980002D01*
X160984928Y-84980002D02*
X161056357Y-84837144D01*
X161056357Y-84837144D02*
X161127785Y-84551430D01*
X161127785Y-84551430D02*
X161199214Y-84408573D01*
X161199214Y-84408573D02*
X161270642Y-84337144D01*
X161270642Y-84337144D02*
X161413500Y-84265716D01*
X161413500Y-84265716D02*
X161556357Y-84265716D01*
X161556357Y-84265716D02*
X161699214Y-84337144D01*
X161699214Y-84337144D02*
X161770642Y-84408573D01*
X161770642Y-84408573D02*
X161842071Y-84551430D01*
X161842071Y-84551430D02*
X161842071Y-84908573D01*
X161842071Y-84908573D02*
X161770642Y-85122859D01*
X160770642Y-85694287D02*
X160770642Y-86408573D01*
X160342071Y-85551430D02*
X161842071Y-86051430D01*
X161842071Y-86051430D02*
X160342071Y-86551430D01*
X161699214Y-88122858D02*
X161770642Y-88194286D01*
X161770642Y-88194286D02*
X161842071Y-88337144D01*
X161842071Y-88337144D02*
X161842071Y-88694286D01*
X161842071Y-88694286D02*
X161770642Y-88837144D01*
X161770642Y-88837144D02*
X161699214Y-88908572D01*
X161699214Y-88908572D02*
X161556357Y-88980001D01*
X161556357Y-88980001D02*
X161413500Y-88980001D01*
X161413500Y-88980001D02*
X161199214Y-88908572D01*
X161199214Y-88908572D02*
X160342071Y-88051429D01*
X160342071Y-88051429D02*
X160342071Y-88980001D01*
X161842071Y-89908572D02*
X161842071Y-90051429D01*
X161842071Y-90051429D02*
X161770642Y-90194286D01*
X161770642Y-90194286D02*
X161699214Y-90265715D01*
X161699214Y-90265715D02*
X161556357Y-90337143D01*
X161556357Y-90337143D02*
X161270642Y-90408572D01*
X161270642Y-90408572D02*
X160913500Y-90408572D01*
X160913500Y-90408572D02*
X160627785Y-90337143D01*
X160627785Y-90337143D02*
X160484928Y-90265715D01*
X160484928Y-90265715D02*
X160413500Y-90194286D01*
X160413500Y-90194286D02*
X160342071Y-90051429D01*
X160342071Y-90051429D02*
X160342071Y-89908572D01*
X160342071Y-89908572D02*
X160413500Y-89765715D01*
X160413500Y-89765715D02*
X160484928Y-89694286D01*
X160484928Y-89694286D02*
X160627785Y-89622857D01*
X160627785Y-89622857D02*
X160913500Y-89551429D01*
X160913500Y-89551429D02*
X161270642Y-89551429D01*
X161270642Y-89551429D02*
X161556357Y-89622857D01*
X161556357Y-89622857D02*
X161699214Y-89694286D01*
X161699214Y-89694286D02*
X161770642Y-89765715D01*
X161770642Y-89765715D02*
X161842071Y-89908572D01*
X161699214Y-90980000D02*
X161770642Y-91051428D01*
X161770642Y-91051428D02*
X161842071Y-91194286D01*
X161842071Y-91194286D02*
X161842071Y-91551428D01*
X161842071Y-91551428D02*
X161770642Y-91694286D01*
X161770642Y-91694286D02*
X161699214Y-91765714D01*
X161699214Y-91765714D02*
X161556357Y-91837143D01*
X161556357Y-91837143D02*
X161413500Y-91837143D01*
X161413500Y-91837143D02*
X161199214Y-91765714D01*
X161199214Y-91765714D02*
X160342071Y-90908571D01*
X160342071Y-90908571D02*
X160342071Y-91837143D01*
X161842071Y-92337142D02*
X161842071Y-93265714D01*
X161842071Y-93265714D02*
X161270642Y-92765714D01*
X161270642Y-92765714D02*
X161270642Y-92979999D01*
X161270642Y-92979999D02*
X161199214Y-93122857D01*
X161199214Y-93122857D02*
X161127785Y-93194285D01*
X161127785Y-93194285D02*
X160984928Y-93265714D01*
X160984928Y-93265714D02*
X160627785Y-93265714D01*
X160627785Y-93265714D02*
X160484928Y-93194285D01*
X160484928Y-93194285D02*
X160413500Y-93122857D01*
X160413500Y-93122857D02*
X160342071Y-92979999D01*
X160342071Y-92979999D02*
X160342071Y-92551428D01*
X160342071Y-92551428D02*
X160413500Y-92408571D01*
X160413500Y-92408571D02*
X160484928Y-92337142D01*
X160342071Y-95908570D02*
X161056357Y-95408570D01*
X160342071Y-95051427D02*
X161842071Y-95051427D01*
X161842071Y-95051427D02*
X161842071Y-95622856D01*
X161842071Y-95622856D02*
X161770642Y-95765713D01*
X161770642Y-95765713D02*
X161699214Y-95837142D01*
X161699214Y-95837142D02*
X161556357Y-95908570D01*
X161556357Y-95908570D02*
X161342071Y-95908570D01*
X161342071Y-95908570D02*
X161199214Y-95837142D01*
X161199214Y-95837142D02*
X161127785Y-95765713D01*
X161127785Y-95765713D02*
X161056357Y-95622856D01*
X161056357Y-95622856D02*
X161056357Y-95051427D01*
X160413500Y-97122856D02*
X160342071Y-96979999D01*
X160342071Y-96979999D02*
X160342071Y-96694285D01*
X160342071Y-96694285D02*
X160413500Y-96551427D01*
X160413500Y-96551427D02*
X160556357Y-96479999D01*
X160556357Y-96479999D02*
X161127785Y-96479999D01*
X161127785Y-96479999D02*
X161270642Y-96551427D01*
X161270642Y-96551427D02*
X161342071Y-96694285D01*
X161342071Y-96694285D02*
X161342071Y-96979999D01*
X161342071Y-96979999D02*
X161270642Y-97122856D01*
X161270642Y-97122856D02*
X161127785Y-97194285D01*
X161127785Y-97194285D02*
X160984928Y-97194285D01*
X160984928Y-97194285D02*
X160842071Y-96479999D01*
X160413500Y-97765713D02*
X160342071Y-97908570D01*
X160342071Y-97908570D02*
X160342071Y-98194284D01*
X160342071Y-98194284D02*
X160413500Y-98337141D01*
X160413500Y-98337141D02*
X160556357Y-98408570D01*
X160556357Y-98408570D02*
X160627785Y-98408570D01*
X160627785Y-98408570D02*
X160770642Y-98337141D01*
X160770642Y-98337141D02*
X160842071Y-98194284D01*
X160842071Y-98194284D02*
X160842071Y-97979999D01*
X160842071Y-97979999D02*
X160913500Y-97837141D01*
X160913500Y-97837141D02*
X161056357Y-97765713D01*
X161056357Y-97765713D02*
X161127785Y-97765713D01*
X161127785Y-97765713D02*
X161270642Y-97837141D01*
X161270642Y-97837141D02*
X161342071Y-97979999D01*
X161342071Y-97979999D02*
X161342071Y-98194284D01*
X161342071Y-98194284D02*
X161270642Y-98337141D01*
X160413500Y-99622856D02*
X160342071Y-99479999D01*
X160342071Y-99479999D02*
X160342071Y-99194285D01*
X160342071Y-99194285D02*
X160413500Y-99051427D01*
X160413500Y-99051427D02*
X160556357Y-98979999D01*
X160556357Y-98979999D02*
X161127785Y-98979999D01*
X161127785Y-98979999D02*
X161270642Y-99051427D01*
X161270642Y-99051427D02*
X161342071Y-99194285D01*
X161342071Y-99194285D02*
X161342071Y-99479999D01*
X161342071Y-99479999D02*
X161270642Y-99622856D01*
X161270642Y-99622856D02*
X161127785Y-99694285D01*
X161127785Y-99694285D02*
X160984928Y-99694285D01*
X160984928Y-99694285D02*
X160842071Y-98979999D01*
X161342071Y-100122856D02*
X161342071Y-100694284D01*
X161842071Y-100337141D02*
X160556357Y-100337141D01*
X160556357Y-100337141D02*
X160413500Y-100408570D01*
X160413500Y-100408570D02*
X160342071Y-100551427D01*
X160342071Y-100551427D02*
X160342071Y-100694284D01*
X161842071Y-102122856D02*
X160342071Y-102622856D01*
X160342071Y-102622856D02*
X161842071Y-103122856D01*
X160342071Y-104408570D02*
X160342071Y-103551427D01*
X160342071Y-103979998D02*
X161842071Y-103979998D01*
X161842071Y-103979998D02*
X161627785Y-103837141D01*
X161627785Y-103837141D02*
X161484928Y-103694284D01*
X161484928Y-103694284D02*
X161413500Y-103551427D01*
X160484928Y-105051426D02*
X160413500Y-105122855D01*
X160413500Y-105122855D02*
X160342071Y-105051426D01*
X160342071Y-105051426D02*
X160413500Y-104979998D01*
X160413500Y-104979998D02*
X160484928Y-105051426D01*
X160484928Y-105051426D02*
X160342071Y-105051426D01*
X161842071Y-106051427D02*
X161842071Y-106194284D01*
X161842071Y-106194284D02*
X161770642Y-106337141D01*
X161770642Y-106337141D02*
X161699214Y-106408570D01*
X161699214Y-106408570D02*
X161556357Y-106479998D01*
X161556357Y-106479998D02*
X161270642Y-106551427D01*
X161270642Y-106551427D02*
X160913500Y-106551427D01*
X160913500Y-106551427D02*
X160627785Y-106479998D01*
X160627785Y-106479998D02*
X160484928Y-106408570D01*
X160484928Y-106408570D02*
X160413500Y-106337141D01*
X160413500Y-106337141D02*
X160342071Y-106194284D01*
X160342071Y-106194284D02*
X160342071Y-106051427D01*
X160342071Y-106051427D02*
X160413500Y-105908570D01*
X160413500Y-105908570D02*
X160484928Y-105837141D01*
X160484928Y-105837141D02*
X160627785Y-105765712D01*
X160627785Y-105765712D02*
X160913500Y-105694284D01*
X160913500Y-105694284D02*
X161270642Y-105694284D01*
X161270642Y-105694284D02*
X161556357Y-105765712D01*
X161556357Y-105765712D02*
X161699214Y-105837141D01*
X161699214Y-105837141D02*
X161770642Y-105908570D01*
X161770642Y-105908570D02*
X161842071Y-106051427D01*
%TO.C,J2*%
X180127333Y-107451666D02*
X180127333Y-108451666D01*
X180127333Y-108451666D02*
X180060666Y-108651666D01*
X180060666Y-108651666D02*
X179927333Y-108785000D01*
X179927333Y-108785000D02*
X179727333Y-108851666D01*
X179727333Y-108851666D02*
X179594000Y-108851666D01*
X180727333Y-107585000D02*
X180794000Y-107518333D01*
X180794000Y-107518333D02*
X180927333Y-107451666D01*
X180927333Y-107451666D02*
X181260667Y-107451666D01*
X181260667Y-107451666D02*
X181394000Y-107518333D01*
X181394000Y-107518333D02*
X181460667Y-107585000D01*
X181460667Y-107585000D02*
X181527333Y-107718333D01*
X181527333Y-107718333D02*
X181527333Y-107851666D01*
X181527333Y-107851666D02*
X181460667Y-108051666D01*
X181460667Y-108051666D02*
X180660667Y-108851666D01*
X180660667Y-108851666D02*
X181527333Y-108851666D01*
%TO.C,J1*%
X166919333Y-107197666D02*
X166919333Y-108197666D01*
X166919333Y-108197666D02*
X166852666Y-108397666D01*
X166852666Y-108397666D02*
X166719333Y-108531000D01*
X166719333Y-108531000D02*
X166519333Y-108597666D01*
X166519333Y-108597666D02*
X166386000Y-108597666D01*
X168319333Y-108597666D02*
X167519333Y-108597666D01*
X167919333Y-108597666D02*
X167919333Y-107197666D01*
X167919333Y-107197666D02*
X167786000Y-107397666D01*
X167786000Y-107397666D02*
X167652667Y-107531000D01*
X167652667Y-107531000D02*
X167519333Y-107597666D01*
%TO.C,*%
D11*
%TO.C,C1*%
X186732333Y-97494573D02*
X186671857Y-97555050D01*
X186671857Y-97555050D02*
X186490428Y-97615526D01*
X186490428Y-97615526D02*
X186369476Y-97615526D01*
X186369476Y-97615526D02*
X186188047Y-97555050D01*
X186188047Y-97555050D02*
X186067095Y-97434097D01*
X186067095Y-97434097D02*
X186006618Y-97313145D01*
X186006618Y-97313145D02*
X185946142Y-97071240D01*
X185946142Y-97071240D02*
X185946142Y-96889811D01*
X185946142Y-96889811D02*
X186006618Y-96647907D01*
X186006618Y-96647907D02*
X186067095Y-96526954D01*
X186067095Y-96526954D02*
X186188047Y-96406002D01*
X186188047Y-96406002D02*
X186369476Y-96345526D01*
X186369476Y-96345526D02*
X186490428Y-96345526D01*
X186490428Y-96345526D02*
X186671857Y-96406002D01*
X186671857Y-96406002D02*
X186732333Y-96466478D01*
X187941857Y-97615526D02*
X187216142Y-97615526D01*
X187578999Y-97615526D02*
X187578999Y-96345526D01*
X187578999Y-96345526D02*
X187458047Y-96526954D01*
X187458047Y-96526954D02*
X187337095Y-96647907D01*
X187337095Y-96647907D02*
X187216142Y-96708383D01*
D10*
%TO.C,J3*%
X174926666Y-74646619D02*
X174926666Y-75360904D01*
X174926666Y-75360904D02*
X174879047Y-75503761D01*
X174879047Y-75503761D02*
X174783809Y-75599000D01*
X174783809Y-75599000D02*
X174640952Y-75646619D01*
X174640952Y-75646619D02*
X174545714Y-75646619D01*
X175307619Y-74646619D02*
X175926666Y-74646619D01*
X175926666Y-74646619D02*
X175593333Y-75027571D01*
X175593333Y-75027571D02*
X175736190Y-75027571D01*
X175736190Y-75027571D02*
X175831428Y-75075190D01*
X175831428Y-75075190D02*
X175879047Y-75122809D01*
X175879047Y-75122809D02*
X175926666Y-75218047D01*
X175926666Y-75218047D02*
X175926666Y-75456142D01*
X175926666Y-75456142D02*
X175879047Y-75551380D01*
X175879047Y-75551380D02*
X175831428Y-75599000D01*
X175831428Y-75599000D02*
X175736190Y-75646619D01*
X175736190Y-75646619D02*
X175450476Y-75646619D01*
X175450476Y-75646619D02*
X175355238Y-75599000D01*
X175355238Y-75599000D02*
X175307619Y-75551380D01*
D11*
%TO.C,G1*%
X163942963Y-97300142D02*
X163882487Y-97421095D01*
X163882487Y-97421095D02*
X163882487Y-97602523D01*
X163882487Y-97602523D02*
X163942963Y-97783952D01*
X163942963Y-97783952D02*
X164063915Y-97904904D01*
X164063915Y-97904904D02*
X164184868Y-97965381D01*
X164184868Y-97965381D02*
X164426772Y-98025857D01*
X164426772Y-98025857D02*
X164608201Y-98025857D01*
X164608201Y-98025857D02*
X164850106Y-97965381D01*
X164850106Y-97965381D02*
X164971058Y-97904904D01*
X164971058Y-97904904D02*
X165092011Y-97783952D01*
X165092011Y-97783952D02*
X165152487Y-97602523D01*
X165152487Y-97602523D02*
X165152487Y-97481571D01*
X165152487Y-97481571D02*
X165092011Y-97300142D01*
X165092011Y-97300142D02*
X165031534Y-97239666D01*
X165031534Y-97239666D02*
X164608201Y-97239666D01*
X164608201Y-97239666D02*
X164608201Y-97481571D01*
X165152487Y-96030142D02*
X165152487Y-96755857D01*
X165152487Y-96393000D02*
X163882487Y-96393000D01*
X163882487Y-96393000D02*
X164063915Y-96513952D01*
X164063915Y-96513952D02*
X164184868Y-96634904D01*
X164184868Y-96634904D02*
X164245344Y-96755857D01*
%TO.C,U1*%
X164132380Y-84153526D02*
X164132380Y-85181621D01*
X164132380Y-85181621D02*
X164192857Y-85302573D01*
X164192857Y-85302573D02*
X164253333Y-85363050D01*
X164253333Y-85363050D02*
X164374285Y-85423526D01*
X164374285Y-85423526D02*
X164616190Y-85423526D01*
X164616190Y-85423526D02*
X164737142Y-85363050D01*
X164737142Y-85363050D02*
X164797619Y-85302573D01*
X164797619Y-85302573D02*
X164858095Y-85181621D01*
X164858095Y-85181621D02*
X164858095Y-84153526D01*
X166128095Y-85423526D02*
X165402380Y-85423526D01*
X165765237Y-85423526D02*
X165765237Y-84153526D01*
X165765237Y-84153526D02*
X165644285Y-84334954D01*
X165644285Y-84334954D02*
X165523333Y-84455907D01*
X165523333Y-84455907D02*
X165402380Y-84516383D01*
D10*
%TO.C,*%
D11*
%TO.C,K2*%
X174830618Y-108791526D02*
X174830618Y-107521526D01*
X175556333Y-108791526D02*
X175012047Y-108065811D01*
X175556333Y-107521526D02*
X174830618Y-108247240D01*
X176040142Y-107642478D02*
X176100618Y-107582002D01*
X176100618Y-107582002D02*
X176221571Y-107521526D01*
X176221571Y-107521526D02*
X176523952Y-107521526D01*
X176523952Y-107521526D02*
X176644904Y-107582002D01*
X176644904Y-107582002D02*
X176705380Y-107642478D01*
X176705380Y-107642478D02*
X176765857Y-107763430D01*
X176765857Y-107763430D02*
X176765857Y-107884383D01*
X176765857Y-107884383D02*
X176705380Y-108065811D01*
X176705380Y-108065811D02*
X175979666Y-108791526D01*
X175979666Y-108791526D02*
X176765857Y-108791526D01*
%TO.C,K1*%
X178386618Y-79835526D02*
X178386618Y-78565526D01*
X179112333Y-79835526D02*
X178568047Y-79109811D01*
X179112333Y-78565526D02*
X178386618Y-79291240D01*
X180321857Y-79835526D02*
X179596142Y-79835526D01*
X179958999Y-79835526D02*
X179958999Y-78565526D01*
X179958999Y-78565526D02*
X179838047Y-78746954D01*
X179838047Y-78746954D02*
X179717095Y-78867907D01*
X179717095Y-78867907D02*
X179596142Y-78928383D01*
D10*
%TO.C,*%
%TO.C,J4*%
X183717666Y-87025619D02*
X183717666Y-87739904D01*
X183717666Y-87739904D02*
X183670047Y-87882761D01*
X183670047Y-87882761D02*
X183574809Y-87978000D01*
X183574809Y-87978000D02*
X183431952Y-88025619D01*
X183431952Y-88025619D02*
X183336714Y-88025619D01*
X184622428Y-87358952D02*
X184622428Y-88025619D01*
X184384333Y-86978000D02*
X184146238Y-87692285D01*
X184146238Y-87692285D02*
X184765285Y-87692285D01*
%TO.C,*%
D11*
%TO.C,R1*%
X172762333Y-88217526D02*
X172338999Y-87612764D01*
X172036618Y-88217526D02*
X172036618Y-86947526D01*
X172036618Y-86947526D02*
X172520428Y-86947526D01*
X172520428Y-86947526D02*
X172641380Y-87008002D01*
X172641380Y-87008002D02*
X172701857Y-87068478D01*
X172701857Y-87068478D02*
X172762333Y-87189430D01*
X172762333Y-87189430D02*
X172762333Y-87370859D01*
X172762333Y-87370859D02*
X172701857Y-87491811D01*
X172701857Y-87491811D02*
X172641380Y-87552288D01*
X172641380Y-87552288D02*
X172520428Y-87612764D01*
X172520428Y-87612764D02*
X172036618Y-87612764D01*
X173971857Y-88217526D02*
X173246142Y-88217526D01*
X173608999Y-88217526D02*
X173608999Y-86947526D01*
X173608999Y-86947526D02*
X173488047Y-87128954D01*
X173488047Y-87128954D02*
X173367095Y-87249907D01*
X173367095Y-87249907D02*
X173246142Y-87310383D01*
D12*
%TO.C,J2*%
X186996000Y-98881000D02*
X180646000Y-98881000D01*
X180646000Y-98881000D02*
X180646000Y-106351000D01*
X186996000Y-106351000D02*
X186996000Y-98881000D01*
X180646000Y-106351000D02*
X186996000Y-106351000D01*
D13*
X184096000Y-98316000D02*
G75*
G03*
X184096000Y-98316000I-100000J0D01*
G01*
D12*
%TO.C,J1*%
X170867000Y-106478000D02*
X170867000Y-100128000D01*
X170867000Y-100128000D02*
X163397000Y-100128000D01*
X163397000Y-106478000D02*
X170867000Y-106478000D01*
X163397000Y-100128000D02*
X163397000Y-106478000D01*
D13*
X171532000Y-103478000D02*
G75*
G03*
X171532000Y-103478000I-100000J0D01*
G01*
D12*
%TO.C,J3*%
X168731000Y-75386000D02*
X173661000Y-75386000D01*
X168731000Y-81736000D02*
X168731000Y-75386000D01*
X173661000Y-75386000D02*
X173661000Y-81736000D01*
X173661000Y-81736000D02*
X168731000Y-81736000D01*
D13*
X168026000Y-78486000D02*
G75*
G03*
X168026000Y-78486000I-100000J0D01*
G01*
%TO.C,G1*%
X165886000Y-98903000D02*
X165886000Y-97753000D01*
X165936000Y-97403000D02*
X165936000Y-96653000D01*
X168836000Y-97403000D02*
X165936000Y-97403000D01*
X165936000Y-96653000D02*
X168836000Y-96653000D01*
X168836000Y-96653000D02*
X168836000Y-97403000D01*
D11*
%TO.C,U1*%
X163106000Y-94142000D02*
X170656000Y-94142000D01*
X170656000Y-94142000D02*
X170656000Y-82642000D01*
X163106000Y-82642000D02*
X163106000Y-94142000D01*
X170656000Y-82642000D02*
X163106000Y-82642000D01*
X171358000Y-91836000D02*
G75*
G03*
X171358000Y-91836000I-89000J0D01*
G01*
%TO.C,K2*%
X179368000Y-92014000D02*
X179368000Y-106514000D01*
X177041000Y-92014000D02*
X174462000Y-92014000D01*
X172168000Y-92014000D02*
X172168000Y-106514000D01*
X177130000Y-106514000D02*
X174373000Y-106514000D01*
X171550810Y-92933000D02*
G75*
G03*
X171550810Y-92933000I-134810J0D01*
G01*
D14*
%TO.C,K1*%
X177419000Y-85852000D02*
X177419000Y-81280000D01*
X183769000Y-85852000D02*
X177419000Y-85852000D01*
X184994000Y-85766000D02*
X184994000Y-85766000D01*
X184994000Y-85666000D02*
X184994000Y-85666000D01*
X177419000Y-81280000D02*
X183769000Y-81280000D01*
X183769000Y-81280000D02*
X183769000Y-85852000D01*
X184994000Y-85666000D02*
G75*
G03*
X184994000Y-85766000I0J-50000D01*
G01*
X184994000Y-85766000D02*
G75*
G03*
X184994000Y-85666000I0J50000D01*
G01*
D12*
%TO.C,J4*%
X181431000Y-88848000D02*
X186361000Y-88848000D01*
X181431000Y-95198000D02*
X181431000Y-88848000D01*
X186361000Y-88848000D02*
X186361000Y-95198000D01*
X186361000Y-95198000D02*
X181431000Y-95198000D01*
D13*
X180726000Y-91948000D02*
G75*
G03*
X180726000Y-91948000I-100000J0D01*
G01*
%TO.C,R1*%
X175768000Y-88962000D02*
X175768000Y-90362000D01*
%TD*%
M02*
