%TF.GenerationSoftware,KiCad,Pcbnew,8.0.0*%
%TF.CreationDate,2024-06-23T14:11:11+02:00*%
%TF.ProjectId,SCS IMD-AMS Indicator,53435320-494d-4442-9d41-4d5320496e64,rev?*%
%TF.SameCoordinates,Original*%
%TF.FileFunction,Legend,Top*%
%TF.FilePolarity,Positive*%
%FSLAX46Y46*%
G04 Gerber Fmt 4.6, Leading zero omitted, Abs format (unit mm)*
G04 Created by KiCad (PCBNEW 8.0.0) date 2024-06-23 14:11:11*
%MOMM*%
%LPD*%
G01*
G04 APERTURE LIST*
%ADD10C,0.150000*%
%ADD11C,0.300000*%
%ADD12C,0.254000*%
%ADD13C,0.120000*%
%ADD14C,0.200000*%
%ADD15C,0.100000*%
%ADD16C,0.127000*%
G04 APERTURE END LIST*
D10*
X68792960Y-54370700D02*
X68935817Y-54413557D01*
X68935817Y-54413557D02*
X69173912Y-54413557D01*
X69173912Y-54413557D02*
X69269150Y-54370700D01*
X69269150Y-54370700D02*
X69316769Y-54327842D01*
X69316769Y-54327842D02*
X69364388Y-54242128D01*
X69364388Y-54242128D02*
X69364388Y-54156414D01*
X69364388Y-54156414D02*
X69316769Y-54070700D01*
X69316769Y-54070700D02*
X69269150Y-54027842D01*
X69269150Y-54027842D02*
X69173912Y-53984985D01*
X69173912Y-53984985D02*
X68983436Y-53942128D01*
X68983436Y-53942128D02*
X68888198Y-53899271D01*
X68888198Y-53899271D02*
X68840579Y-53856414D01*
X68840579Y-53856414D02*
X68792960Y-53770700D01*
X68792960Y-53770700D02*
X68792960Y-53684985D01*
X68792960Y-53684985D02*
X68840579Y-53599271D01*
X68840579Y-53599271D02*
X68888198Y-53556414D01*
X68888198Y-53556414D02*
X68983436Y-53513557D01*
X68983436Y-53513557D02*
X69221531Y-53513557D01*
X69221531Y-53513557D02*
X69364388Y-53556414D01*
X70364388Y-54327842D02*
X70316769Y-54370700D01*
X70316769Y-54370700D02*
X70173912Y-54413557D01*
X70173912Y-54413557D02*
X70078674Y-54413557D01*
X70078674Y-54413557D02*
X69935817Y-54370700D01*
X69935817Y-54370700D02*
X69840579Y-54284985D01*
X69840579Y-54284985D02*
X69792960Y-54199271D01*
X69792960Y-54199271D02*
X69745341Y-54027842D01*
X69745341Y-54027842D02*
X69745341Y-53899271D01*
X69745341Y-53899271D02*
X69792960Y-53727842D01*
X69792960Y-53727842D02*
X69840579Y-53642128D01*
X69840579Y-53642128D02*
X69935817Y-53556414D01*
X69935817Y-53556414D02*
X70078674Y-53513557D01*
X70078674Y-53513557D02*
X70173912Y-53513557D01*
X70173912Y-53513557D02*
X70316769Y-53556414D01*
X70316769Y-53556414D02*
X70364388Y-53599271D01*
X70745341Y-54370700D02*
X70888198Y-54413557D01*
X70888198Y-54413557D02*
X71126293Y-54413557D01*
X71126293Y-54413557D02*
X71221531Y-54370700D01*
X71221531Y-54370700D02*
X71269150Y-54327842D01*
X71269150Y-54327842D02*
X71316769Y-54242128D01*
X71316769Y-54242128D02*
X71316769Y-54156414D01*
X71316769Y-54156414D02*
X71269150Y-54070700D01*
X71269150Y-54070700D02*
X71221531Y-54027842D01*
X71221531Y-54027842D02*
X71126293Y-53984985D01*
X71126293Y-53984985D02*
X70935817Y-53942128D01*
X70935817Y-53942128D02*
X70840579Y-53899271D01*
X70840579Y-53899271D02*
X70792960Y-53856414D01*
X70792960Y-53856414D02*
X70745341Y-53770700D01*
X70745341Y-53770700D02*
X70745341Y-53684985D01*
X70745341Y-53684985D02*
X70792960Y-53599271D01*
X70792960Y-53599271D02*
X70840579Y-53556414D01*
X70840579Y-53556414D02*
X70935817Y-53513557D01*
X70935817Y-53513557D02*
X71173912Y-53513557D01*
X71173912Y-53513557D02*
X71316769Y-53556414D01*
X72459627Y-54156414D02*
X72935817Y-54156414D01*
X72364389Y-54413557D02*
X72697722Y-53513557D01*
X72697722Y-53513557D02*
X73031055Y-54413557D01*
X73364389Y-54413557D02*
X73364389Y-53513557D01*
X73364389Y-53513557D02*
X73697722Y-54156414D01*
X73697722Y-54156414D02*
X74031055Y-53513557D01*
X74031055Y-53513557D02*
X74031055Y-54413557D01*
X74459627Y-54370700D02*
X74602484Y-54413557D01*
X74602484Y-54413557D02*
X74840579Y-54413557D01*
X74840579Y-54413557D02*
X74935817Y-54370700D01*
X74935817Y-54370700D02*
X74983436Y-54327842D01*
X74983436Y-54327842D02*
X75031055Y-54242128D01*
X75031055Y-54242128D02*
X75031055Y-54156414D01*
X75031055Y-54156414D02*
X74983436Y-54070700D01*
X74983436Y-54070700D02*
X74935817Y-54027842D01*
X74935817Y-54027842D02*
X74840579Y-53984985D01*
X74840579Y-53984985D02*
X74650103Y-53942128D01*
X74650103Y-53942128D02*
X74554865Y-53899271D01*
X74554865Y-53899271D02*
X74507246Y-53856414D01*
X74507246Y-53856414D02*
X74459627Y-53770700D01*
X74459627Y-53770700D02*
X74459627Y-53684985D01*
X74459627Y-53684985D02*
X74507246Y-53599271D01*
X74507246Y-53599271D02*
X74554865Y-53556414D01*
X74554865Y-53556414D02*
X74650103Y-53513557D01*
X74650103Y-53513557D02*
X74888198Y-53513557D01*
X74888198Y-53513557D02*
X75031055Y-53556414D01*
X76173912Y-53470700D02*
X75316770Y-54627842D01*
X76507246Y-54413557D02*
X76507246Y-53513557D01*
X76983436Y-54413557D02*
X76983436Y-53513557D01*
X76983436Y-53513557D02*
X77316769Y-54156414D01*
X77316769Y-54156414D02*
X77650102Y-53513557D01*
X77650102Y-53513557D02*
X77650102Y-54413557D01*
X78126293Y-54413557D02*
X78126293Y-53513557D01*
X78126293Y-53513557D02*
X78364388Y-53513557D01*
X78364388Y-53513557D02*
X78507245Y-53556414D01*
X78507245Y-53556414D02*
X78602483Y-53642128D01*
X78602483Y-53642128D02*
X78650102Y-53727842D01*
X78650102Y-53727842D02*
X78697721Y-53899271D01*
X78697721Y-53899271D02*
X78697721Y-54027842D01*
X78697721Y-54027842D02*
X78650102Y-54199271D01*
X78650102Y-54199271D02*
X78602483Y-54284985D01*
X78602483Y-54284985D02*
X78507245Y-54370700D01*
X78507245Y-54370700D02*
X78364388Y-54413557D01*
X78364388Y-54413557D02*
X78126293Y-54413557D01*
X68840579Y-55862507D02*
X68840579Y-54962507D01*
X69316769Y-55262507D02*
X69316769Y-55862507D01*
X69316769Y-55348221D02*
X69364388Y-55305364D01*
X69364388Y-55305364D02*
X69459626Y-55262507D01*
X69459626Y-55262507D02*
X69602483Y-55262507D01*
X69602483Y-55262507D02*
X69697721Y-55305364D01*
X69697721Y-55305364D02*
X69745340Y-55391078D01*
X69745340Y-55391078D02*
X69745340Y-55862507D01*
X70650102Y-55862507D02*
X70650102Y-54962507D01*
X70650102Y-55819650D02*
X70554864Y-55862507D01*
X70554864Y-55862507D02*
X70364388Y-55862507D01*
X70364388Y-55862507D02*
X70269150Y-55819650D01*
X70269150Y-55819650D02*
X70221531Y-55776792D01*
X70221531Y-55776792D02*
X70173912Y-55691078D01*
X70173912Y-55691078D02*
X70173912Y-55433935D01*
X70173912Y-55433935D02*
X70221531Y-55348221D01*
X70221531Y-55348221D02*
X70269150Y-55305364D01*
X70269150Y-55305364D02*
X70364388Y-55262507D01*
X70364388Y-55262507D02*
X70554864Y-55262507D01*
X70554864Y-55262507D02*
X70650102Y-55305364D01*
X71126293Y-55862507D02*
X71126293Y-55262507D01*
X71126293Y-54962507D02*
X71078674Y-55005364D01*
X71078674Y-55005364D02*
X71126293Y-55048221D01*
X71126293Y-55048221D02*
X71173912Y-55005364D01*
X71173912Y-55005364D02*
X71126293Y-54962507D01*
X71126293Y-54962507D02*
X71126293Y-55048221D01*
X72031054Y-55819650D02*
X71935816Y-55862507D01*
X71935816Y-55862507D02*
X71745340Y-55862507D01*
X71745340Y-55862507D02*
X71650102Y-55819650D01*
X71650102Y-55819650D02*
X71602483Y-55776792D01*
X71602483Y-55776792D02*
X71554864Y-55691078D01*
X71554864Y-55691078D02*
X71554864Y-55433935D01*
X71554864Y-55433935D02*
X71602483Y-55348221D01*
X71602483Y-55348221D02*
X71650102Y-55305364D01*
X71650102Y-55305364D02*
X71745340Y-55262507D01*
X71745340Y-55262507D02*
X71935816Y-55262507D01*
X71935816Y-55262507D02*
X72031054Y-55305364D01*
X72888197Y-55862507D02*
X72888197Y-55391078D01*
X72888197Y-55391078D02*
X72840578Y-55305364D01*
X72840578Y-55305364D02*
X72745340Y-55262507D01*
X72745340Y-55262507D02*
X72554864Y-55262507D01*
X72554864Y-55262507D02*
X72459626Y-55305364D01*
X72888197Y-55819650D02*
X72792959Y-55862507D01*
X72792959Y-55862507D02*
X72554864Y-55862507D01*
X72554864Y-55862507D02*
X72459626Y-55819650D01*
X72459626Y-55819650D02*
X72412007Y-55733935D01*
X72412007Y-55733935D02*
X72412007Y-55648221D01*
X72412007Y-55648221D02*
X72459626Y-55562507D01*
X72459626Y-55562507D02*
X72554864Y-55519650D01*
X72554864Y-55519650D02*
X72792959Y-55519650D01*
X72792959Y-55519650D02*
X72888197Y-55476792D01*
X73221531Y-55262507D02*
X73602483Y-55262507D01*
X73364388Y-54962507D02*
X73364388Y-55733935D01*
X73364388Y-55733935D02*
X73412007Y-55819650D01*
X73412007Y-55819650D02*
X73507245Y-55862507D01*
X73507245Y-55862507D02*
X73602483Y-55862507D01*
X74078674Y-55862507D02*
X73983436Y-55819650D01*
X73983436Y-55819650D02*
X73935817Y-55776792D01*
X73935817Y-55776792D02*
X73888198Y-55691078D01*
X73888198Y-55691078D02*
X73888198Y-55433935D01*
X73888198Y-55433935D02*
X73935817Y-55348221D01*
X73935817Y-55348221D02*
X73983436Y-55305364D01*
X73983436Y-55305364D02*
X74078674Y-55262507D01*
X74078674Y-55262507D02*
X74221531Y-55262507D01*
X74221531Y-55262507D02*
X74316769Y-55305364D01*
X74316769Y-55305364D02*
X74364388Y-55348221D01*
X74364388Y-55348221D02*
X74412007Y-55433935D01*
X74412007Y-55433935D02*
X74412007Y-55691078D01*
X74412007Y-55691078D02*
X74364388Y-55776792D01*
X74364388Y-55776792D02*
X74316769Y-55819650D01*
X74316769Y-55819650D02*
X74221531Y-55862507D01*
X74221531Y-55862507D02*
X74078674Y-55862507D01*
X74840579Y-55862507D02*
X74840579Y-55262507D01*
X74840579Y-55433935D02*
X74888198Y-55348221D01*
X74888198Y-55348221D02*
X74935817Y-55305364D01*
X74935817Y-55305364D02*
X75031055Y-55262507D01*
X75031055Y-55262507D02*
X75126293Y-55262507D01*
X68697722Y-56411457D02*
X69031055Y-57311457D01*
X69031055Y-57311457D02*
X69364388Y-56411457D01*
X70221531Y-57311457D02*
X69650103Y-57311457D01*
X69935817Y-57311457D02*
X69935817Y-56411457D01*
X69935817Y-56411457D02*
X69840579Y-56540028D01*
X69840579Y-56540028D02*
X69745341Y-56625742D01*
X69745341Y-56625742D02*
X69650103Y-56668600D01*
X70650103Y-57225742D02*
X70697722Y-57268600D01*
X70697722Y-57268600D02*
X70650103Y-57311457D01*
X70650103Y-57311457D02*
X70602484Y-57268600D01*
X70602484Y-57268600D02*
X70650103Y-57225742D01*
X70650103Y-57225742D02*
X70650103Y-57311457D01*
X71316769Y-56411457D02*
X71412007Y-56411457D01*
X71412007Y-56411457D02*
X71507245Y-56454314D01*
X71507245Y-56454314D02*
X71554864Y-56497171D01*
X71554864Y-56497171D02*
X71602483Y-56582885D01*
X71602483Y-56582885D02*
X71650102Y-56754314D01*
X71650102Y-56754314D02*
X71650102Y-56968600D01*
X71650102Y-56968600D02*
X71602483Y-57140028D01*
X71602483Y-57140028D02*
X71554864Y-57225742D01*
X71554864Y-57225742D02*
X71507245Y-57268600D01*
X71507245Y-57268600D02*
X71412007Y-57311457D01*
X71412007Y-57311457D02*
X71316769Y-57311457D01*
X71316769Y-57311457D02*
X71221531Y-57268600D01*
X71221531Y-57268600D02*
X71173912Y-57225742D01*
X71173912Y-57225742D02*
X71126293Y-57140028D01*
X71126293Y-57140028D02*
X71078674Y-56968600D01*
X71078674Y-56968600D02*
X71078674Y-56754314D01*
X71078674Y-56754314D02*
X71126293Y-56582885D01*
X71126293Y-56582885D02*
X71173912Y-56497171D01*
X71173912Y-56497171D02*
X71221531Y-56454314D01*
X71221531Y-56454314D02*
X71316769Y-56411457D01*
D11*
X74620910Y-49357914D02*
X75120910Y-49357914D01*
X75335196Y-50143628D02*
X74620910Y-50143628D01*
X74620910Y-50143628D02*
X74620910Y-48643628D01*
X74620910Y-48643628D02*
X75335196Y-48643628D01*
X75978053Y-50143628D02*
X75978053Y-48643628D01*
X75978053Y-48643628D02*
X76549482Y-48643628D01*
X76549482Y-48643628D02*
X76692339Y-48715057D01*
X76692339Y-48715057D02*
X76763768Y-48786485D01*
X76763768Y-48786485D02*
X76835196Y-48929342D01*
X76835196Y-48929342D02*
X76835196Y-49143628D01*
X76835196Y-49143628D02*
X76763768Y-49286485D01*
X76763768Y-49286485D02*
X76692339Y-49357914D01*
X76692339Y-49357914D02*
X76549482Y-49429342D01*
X76549482Y-49429342D02*
X75978053Y-49429342D01*
X77406625Y-50072200D02*
X77620911Y-50143628D01*
X77620911Y-50143628D02*
X77978053Y-50143628D01*
X77978053Y-50143628D02*
X78120911Y-50072200D01*
X78120911Y-50072200D02*
X78192339Y-50000771D01*
X78192339Y-50000771D02*
X78263768Y-49857914D01*
X78263768Y-49857914D02*
X78263768Y-49715057D01*
X78263768Y-49715057D02*
X78192339Y-49572200D01*
X78192339Y-49572200D02*
X78120911Y-49500771D01*
X78120911Y-49500771D02*
X77978053Y-49429342D01*
X77978053Y-49429342D02*
X77692339Y-49357914D01*
X77692339Y-49357914D02*
X77549482Y-49286485D01*
X77549482Y-49286485D02*
X77478053Y-49215057D01*
X77478053Y-49215057D02*
X77406625Y-49072200D01*
X77406625Y-49072200D02*
X77406625Y-48929342D01*
X77406625Y-48929342D02*
X77478053Y-48786485D01*
X77478053Y-48786485D02*
X77549482Y-48715057D01*
X77549482Y-48715057D02*
X77692339Y-48643628D01*
X77692339Y-48643628D02*
X78049482Y-48643628D01*
X78049482Y-48643628D02*
X78263768Y-48715057D01*
X78835196Y-49715057D02*
X79549482Y-49715057D01*
X78692339Y-50143628D02*
X79192339Y-48643628D01*
X79192339Y-48643628D02*
X79692339Y-50143628D01*
D10*
X79668019Y-70764304D02*
X80477542Y-70764304D01*
X80477542Y-70764304D02*
X80572780Y-70716685D01*
X80572780Y-70716685D02*
X80620400Y-70669066D01*
X80620400Y-70669066D02*
X80668019Y-70573828D01*
X80668019Y-70573828D02*
X80668019Y-70383352D01*
X80668019Y-70383352D02*
X80620400Y-70288114D01*
X80620400Y-70288114D02*
X80572780Y-70240495D01*
X80572780Y-70240495D02*
X80477542Y-70192876D01*
X80477542Y-70192876D02*
X79668019Y-70192876D01*
X79763257Y-69764304D02*
X79715638Y-69716685D01*
X79715638Y-69716685D02*
X79668019Y-69621447D01*
X79668019Y-69621447D02*
X79668019Y-69383352D01*
X79668019Y-69383352D02*
X79715638Y-69288114D01*
X79715638Y-69288114D02*
X79763257Y-69240495D01*
X79763257Y-69240495D02*
X79858495Y-69192876D01*
X79858495Y-69192876D02*
X79953733Y-69192876D01*
X79953733Y-69192876D02*
X80096590Y-69240495D01*
X80096590Y-69240495D02*
X80668019Y-69811923D01*
X80668019Y-69811923D02*
X80668019Y-69192876D01*
D12*
X80661933Y-84622918D02*
X80238599Y-84018156D01*
X79936218Y-84622918D02*
X79936218Y-83352918D01*
X79936218Y-83352918D02*
X80420028Y-83352918D01*
X80420028Y-83352918D02*
X80540980Y-83413394D01*
X80540980Y-83413394D02*
X80601457Y-83473870D01*
X80601457Y-83473870D02*
X80661933Y-83594822D01*
X80661933Y-83594822D02*
X80661933Y-83776251D01*
X80661933Y-83776251D02*
X80601457Y-83897203D01*
X80601457Y-83897203D02*
X80540980Y-83957680D01*
X80540980Y-83957680D02*
X80420028Y-84018156D01*
X80420028Y-84018156D02*
X79936218Y-84018156D01*
X81266695Y-84622918D02*
X81508599Y-84622918D01*
X81508599Y-84622918D02*
X81629552Y-84562442D01*
X81629552Y-84562442D02*
X81690028Y-84501965D01*
X81690028Y-84501965D02*
X81810980Y-84320537D01*
X81810980Y-84320537D02*
X81871457Y-84078632D01*
X81871457Y-84078632D02*
X81871457Y-83594822D01*
X81871457Y-83594822D02*
X81810980Y-83473870D01*
X81810980Y-83473870D02*
X81750504Y-83413394D01*
X81750504Y-83413394D02*
X81629552Y-83352918D01*
X81629552Y-83352918D02*
X81387647Y-83352918D01*
X81387647Y-83352918D02*
X81266695Y-83413394D01*
X81266695Y-83413394D02*
X81206218Y-83473870D01*
X81206218Y-83473870D02*
X81145742Y-83594822D01*
X81145742Y-83594822D02*
X81145742Y-83897203D01*
X81145742Y-83897203D02*
X81206218Y-84018156D01*
X81206218Y-84018156D02*
X81266695Y-84078632D01*
X81266695Y-84078632D02*
X81387647Y-84139108D01*
X81387647Y-84139108D02*
X81629552Y-84139108D01*
X81629552Y-84139108D02*
X81750504Y-84078632D01*
X81750504Y-84078632D02*
X81810980Y-84018156D01*
X81810980Y-84018156D02*
X81871457Y-83897203D01*
X75531133Y-84451165D02*
X75470657Y-84511642D01*
X75470657Y-84511642D02*
X75289228Y-84572118D01*
X75289228Y-84572118D02*
X75168276Y-84572118D01*
X75168276Y-84572118D02*
X74986847Y-84511642D01*
X74986847Y-84511642D02*
X74865895Y-84390689D01*
X74865895Y-84390689D02*
X74805418Y-84269737D01*
X74805418Y-84269737D02*
X74744942Y-84027832D01*
X74744942Y-84027832D02*
X74744942Y-83846403D01*
X74744942Y-83846403D02*
X74805418Y-83604499D01*
X74805418Y-83604499D02*
X74865895Y-83483546D01*
X74865895Y-83483546D02*
X74986847Y-83362594D01*
X74986847Y-83362594D02*
X75168276Y-83302118D01*
X75168276Y-83302118D02*
X75289228Y-83302118D01*
X75289228Y-83302118D02*
X75470657Y-83362594D01*
X75470657Y-83362594D02*
X75531133Y-83423070D01*
X75954466Y-83302118D02*
X76801133Y-83302118D01*
X76801133Y-83302118D02*
X76256847Y-84572118D01*
X88065234Y-76520318D02*
X87641900Y-75915556D01*
X87339519Y-76520318D02*
X87339519Y-75250318D01*
X87339519Y-75250318D02*
X87823329Y-75250318D01*
X87823329Y-75250318D02*
X87944281Y-75310794D01*
X87944281Y-75310794D02*
X88004758Y-75371270D01*
X88004758Y-75371270D02*
X88065234Y-75492222D01*
X88065234Y-75492222D02*
X88065234Y-75673651D01*
X88065234Y-75673651D02*
X88004758Y-75794603D01*
X88004758Y-75794603D02*
X87944281Y-75855080D01*
X87944281Y-75855080D02*
X87823329Y-75915556D01*
X87823329Y-75915556D02*
X87339519Y-75915556D01*
X89274758Y-76520318D02*
X88549043Y-76520318D01*
X88911900Y-76520318D02*
X88911900Y-75250318D01*
X88911900Y-75250318D02*
X88790948Y-75431746D01*
X88790948Y-75431746D02*
X88669996Y-75552699D01*
X88669996Y-75552699D02*
X88549043Y-75613175D01*
D10*
X99927580Y-64682666D02*
X99975200Y-64730285D01*
X99975200Y-64730285D02*
X100022819Y-64873142D01*
X100022819Y-64873142D02*
X100022819Y-64968380D01*
X100022819Y-64968380D02*
X99975200Y-65111237D01*
X99975200Y-65111237D02*
X99879961Y-65206475D01*
X99879961Y-65206475D02*
X99784723Y-65254094D01*
X99784723Y-65254094D02*
X99594247Y-65301713D01*
X99594247Y-65301713D02*
X99451390Y-65301713D01*
X99451390Y-65301713D02*
X99260914Y-65254094D01*
X99260914Y-65254094D02*
X99165676Y-65206475D01*
X99165676Y-65206475D02*
X99070438Y-65111237D01*
X99070438Y-65111237D02*
X99022819Y-64968380D01*
X99022819Y-64968380D02*
X99022819Y-64873142D01*
X99022819Y-64873142D02*
X99070438Y-64730285D01*
X99070438Y-64730285D02*
X99118057Y-64682666D01*
X100022819Y-63730285D02*
X100022819Y-64301713D01*
X100022819Y-64015999D02*
X99022819Y-64015999D01*
X99022819Y-64015999D02*
X99165676Y-64111237D01*
X99165676Y-64111237D02*
X99260914Y-64206475D01*
X99260914Y-64206475D02*
X99308533Y-64301713D01*
D12*
X72864133Y-60010318D02*
X72440799Y-59405556D01*
X72138418Y-60010318D02*
X72138418Y-58740318D01*
X72138418Y-58740318D02*
X72622228Y-58740318D01*
X72622228Y-58740318D02*
X72743180Y-58800794D01*
X72743180Y-58800794D02*
X72803657Y-58861270D01*
X72803657Y-58861270D02*
X72864133Y-58982222D01*
X72864133Y-58982222D02*
X72864133Y-59163651D01*
X72864133Y-59163651D02*
X72803657Y-59284603D01*
X72803657Y-59284603D02*
X72743180Y-59345080D01*
X72743180Y-59345080D02*
X72622228Y-59405556D01*
X72622228Y-59405556D02*
X72138418Y-59405556D01*
X73287466Y-58740318D02*
X74073657Y-58740318D01*
X74073657Y-58740318D02*
X73650323Y-59224127D01*
X73650323Y-59224127D02*
X73831752Y-59224127D01*
X73831752Y-59224127D02*
X73952704Y-59284603D01*
X73952704Y-59284603D02*
X74013180Y-59345080D01*
X74013180Y-59345080D02*
X74073657Y-59466032D01*
X74073657Y-59466032D02*
X74073657Y-59768413D01*
X74073657Y-59768413D02*
X74013180Y-59889365D01*
X74013180Y-59889365D02*
X73952704Y-59949842D01*
X73952704Y-59949842D02*
X73831752Y-60010318D01*
X73831752Y-60010318D02*
X73468895Y-60010318D01*
X73468895Y-60010318D02*
X73347942Y-59949842D01*
X73347942Y-59949842D02*
X73287466Y-59889365D01*
X88331318Y-63757381D02*
X87061318Y-63757381D01*
X88331318Y-63031666D02*
X87605603Y-63575952D01*
X87061318Y-63031666D02*
X87787032Y-63757381D01*
X88331318Y-61822142D02*
X88331318Y-62547857D01*
X88331318Y-62185000D02*
X87061318Y-62185000D01*
X87061318Y-62185000D02*
X87242746Y-62305952D01*
X87242746Y-62305952D02*
X87363699Y-62426904D01*
X87363699Y-62426904D02*
X87424175Y-62547857D01*
X82247857Y-71793755D02*
X82126904Y-71733279D01*
X82126904Y-71733279D02*
X81945476Y-71733279D01*
X81945476Y-71733279D02*
X81764047Y-71793755D01*
X81764047Y-71793755D02*
X81643095Y-71914707D01*
X81643095Y-71914707D02*
X81582618Y-72035660D01*
X81582618Y-72035660D02*
X81522142Y-72277564D01*
X81522142Y-72277564D02*
X81522142Y-72458993D01*
X81522142Y-72458993D02*
X81582618Y-72700898D01*
X81582618Y-72700898D02*
X81643095Y-72821850D01*
X81643095Y-72821850D02*
X81764047Y-72942803D01*
X81764047Y-72942803D02*
X81945476Y-73003279D01*
X81945476Y-73003279D02*
X82066428Y-73003279D01*
X82066428Y-73003279D02*
X82247857Y-72942803D01*
X82247857Y-72942803D02*
X82308333Y-72882326D01*
X82308333Y-72882326D02*
X82308333Y-72458993D01*
X82308333Y-72458993D02*
X82066428Y-72458993D01*
X83517857Y-73003279D02*
X82792142Y-73003279D01*
X83154999Y-73003279D02*
X83154999Y-71733279D01*
X83154999Y-71733279D02*
X83034047Y-71914707D01*
X83034047Y-71914707D02*
X82913095Y-72035660D01*
X82913095Y-72035660D02*
X82792142Y-72096136D01*
X88856457Y-81635394D02*
X88735504Y-81574918D01*
X88735504Y-81574918D02*
X88554076Y-81574918D01*
X88554076Y-81574918D02*
X88372647Y-81635394D01*
X88372647Y-81635394D02*
X88251695Y-81756346D01*
X88251695Y-81756346D02*
X88191218Y-81877299D01*
X88191218Y-81877299D02*
X88130742Y-82119203D01*
X88130742Y-82119203D02*
X88130742Y-82300632D01*
X88130742Y-82300632D02*
X88191218Y-82542537D01*
X88191218Y-82542537D02*
X88251695Y-82663489D01*
X88251695Y-82663489D02*
X88372647Y-82784442D01*
X88372647Y-82784442D02*
X88554076Y-82844918D01*
X88554076Y-82844918D02*
X88675028Y-82844918D01*
X88675028Y-82844918D02*
X88856457Y-82784442D01*
X88856457Y-82784442D02*
X88916933Y-82723965D01*
X88916933Y-82723965D02*
X88916933Y-82300632D01*
X88916933Y-82300632D02*
X88675028Y-82300632D01*
X89400742Y-81695870D02*
X89461218Y-81635394D01*
X89461218Y-81635394D02*
X89582171Y-81574918D01*
X89582171Y-81574918D02*
X89884552Y-81574918D01*
X89884552Y-81574918D02*
X90005504Y-81635394D01*
X90005504Y-81635394D02*
X90065980Y-81695870D01*
X90065980Y-81695870D02*
X90126457Y-81816822D01*
X90126457Y-81816822D02*
X90126457Y-81937775D01*
X90126457Y-81937775D02*
X90065980Y-82119203D01*
X90065980Y-82119203D02*
X89340266Y-82844918D01*
X89340266Y-82844918D02*
X90126457Y-82844918D01*
X85106933Y-83911718D02*
X84683599Y-83306956D01*
X84381218Y-83911718D02*
X84381218Y-82641718D01*
X84381218Y-82641718D02*
X84865028Y-82641718D01*
X84865028Y-82641718D02*
X84985980Y-82702194D01*
X84985980Y-82702194D02*
X85046457Y-82762670D01*
X85046457Y-82762670D02*
X85106933Y-82883622D01*
X85106933Y-82883622D02*
X85106933Y-83065051D01*
X85106933Y-83065051D02*
X85046457Y-83186003D01*
X85046457Y-83186003D02*
X84985980Y-83246480D01*
X84985980Y-83246480D02*
X84865028Y-83306956D01*
X84865028Y-83306956D02*
X84381218Y-83306956D01*
X85832647Y-83186003D02*
X85711695Y-83125527D01*
X85711695Y-83125527D02*
X85651218Y-83065051D01*
X85651218Y-83065051D02*
X85590742Y-82944099D01*
X85590742Y-82944099D02*
X85590742Y-82883622D01*
X85590742Y-82883622D02*
X85651218Y-82762670D01*
X85651218Y-82762670D02*
X85711695Y-82702194D01*
X85711695Y-82702194D02*
X85832647Y-82641718D01*
X85832647Y-82641718D02*
X86074552Y-82641718D01*
X86074552Y-82641718D02*
X86195504Y-82702194D01*
X86195504Y-82702194D02*
X86255980Y-82762670D01*
X86255980Y-82762670D02*
X86316457Y-82883622D01*
X86316457Y-82883622D02*
X86316457Y-82944099D01*
X86316457Y-82944099D02*
X86255980Y-83065051D01*
X86255980Y-83065051D02*
X86195504Y-83125527D01*
X86195504Y-83125527D02*
X86074552Y-83186003D01*
X86074552Y-83186003D02*
X85832647Y-83186003D01*
X85832647Y-83186003D02*
X85711695Y-83246480D01*
X85711695Y-83246480D02*
X85651218Y-83306956D01*
X85651218Y-83306956D02*
X85590742Y-83427908D01*
X85590742Y-83427908D02*
X85590742Y-83669813D01*
X85590742Y-83669813D02*
X85651218Y-83790765D01*
X85651218Y-83790765D02*
X85711695Y-83851242D01*
X85711695Y-83851242D02*
X85832647Y-83911718D01*
X85832647Y-83911718D02*
X86074552Y-83911718D01*
X86074552Y-83911718D02*
X86195504Y-83851242D01*
X86195504Y-83851242D02*
X86255980Y-83790765D01*
X86255980Y-83790765D02*
X86316457Y-83669813D01*
X86316457Y-83669813D02*
X86316457Y-83427908D01*
X86316457Y-83427908D02*
X86255980Y-83306956D01*
X86255980Y-83306956D02*
X86195504Y-83246480D01*
X86195504Y-83246480D02*
X86074552Y-83186003D01*
D10*
X87296666Y-50051619D02*
X87296666Y-50765904D01*
X87296666Y-50765904D02*
X87249047Y-50908761D01*
X87249047Y-50908761D02*
X87153809Y-51004000D01*
X87153809Y-51004000D02*
X87010952Y-51051619D01*
X87010952Y-51051619D02*
X86915714Y-51051619D01*
X88296666Y-51051619D02*
X87725238Y-51051619D01*
X88010952Y-51051619D02*
X88010952Y-50051619D01*
X88010952Y-50051619D02*
X87915714Y-50194476D01*
X87915714Y-50194476D02*
X87820476Y-50289714D01*
X87820476Y-50289714D02*
X87725238Y-50337333D01*
D12*
X80615765Y-57920466D02*
X80676242Y-57980942D01*
X80676242Y-57980942D02*
X80736718Y-58162371D01*
X80736718Y-58162371D02*
X80736718Y-58283323D01*
X80736718Y-58283323D02*
X80676242Y-58464752D01*
X80676242Y-58464752D02*
X80555289Y-58585704D01*
X80555289Y-58585704D02*
X80434337Y-58646181D01*
X80434337Y-58646181D02*
X80192432Y-58706657D01*
X80192432Y-58706657D02*
X80011003Y-58706657D01*
X80011003Y-58706657D02*
X79769099Y-58646181D01*
X79769099Y-58646181D02*
X79648146Y-58585704D01*
X79648146Y-58585704D02*
X79527194Y-58464752D01*
X79527194Y-58464752D02*
X79466718Y-58283323D01*
X79466718Y-58283323D02*
X79466718Y-58162371D01*
X79466718Y-58162371D02*
X79527194Y-57980942D01*
X79527194Y-57980942D02*
X79587670Y-57920466D01*
X79890051Y-56831895D02*
X80736718Y-56831895D01*
X79406242Y-57134276D02*
X80313384Y-57436657D01*
X80313384Y-57436657D02*
X80313384Y-56650466D01*
X75224918Y-70391866D02*
X74620156Y-70815200D01*
X75224918Y-71117581D02*
X73954918Y-71117581D01*
X73954918Y-71117581D02*
X73954918Y-70633771D01*
X73954918Y-70633771D02*
X74015394Y-70512819D01*
X74015394Y-70512819D02*
X74075870Y-70452342D01*
X74075870Y-70452342D02*
X74196822Y-70391866D01*
X74196822Y-70391866D02*
X74378251Y-70391866D01*
X74378251Y-70391866D02*
X74499203Y-70452342D01*
X74499203Y-70452342D02*
X74559680Y-70512819D01*
X74559680Y-70512819D02*
X74620156Y-70633771D01*
X74620156Y-70633771D02*
X74620156Y-71117581D01*
X73954918Y-69242819D02*
X73954918Y-69847581D01*
X73954918Y-69847581D02*
X74559680Y-69908057D01*
X74559680Y-69908057D02*
X74499203Y-69847581D01*
X74499203Y-69847581D02*
X74438727Y-69726628D01*
X74438727Y-69726628D02*
X74438727Y-69424247D01*
X74438727Y-69424247D02*
X74499203Y-69303295D01*
X74499203Y-69303295D02*
X74559680Y-69242819D01*
X74559680Y-69242819D02*
X74680632Y-69182342D01*
X74680632Y-69182342D02*
X74983013Y-69182342D01*
X74983013Y-69182342D02*
X75103965Y-69242819D01*
X75103965Y-69242819D02*
X75164442Y-69303295D01*
X75164442Y-69303295D02*
X75224918Y-69424247D01*
X75224918Y-69424247D02*
X75224918Y-69726628D01*
X75224918Y-69726628D02*
X75164442Y-69847581D01*
X75164442Y-69847581D02*
X75103965Y-69908057D01*
X69358933Y-78101165D02*
X69298457Y-78161642D01*
X69298457Y-78161642D02*
X69117028Y-78222118D01*
X69117028Y-78222118D02*
X68996076Y-78222118D01*
X68996076Y-78222118D02*
X68814647Y-78161642D01*
X68814647Y-78161642D02*
X68693695Y-78040689D01*
X68693695Y-78040689D02*
X68633218Y-77919737D01*
X68633218Y-77919737D02*
X68572742Y-77677832D01*
X68572742Y-77677832D02*
X68572742Y-77496403D01*
X68572742Y-77496403D02*
X68633218Y-77254499D01*
X68633218Y-77254499D02*
X68693695Y-77133546D01*
X68693695Y-77133546D02*
X68814647Y-77012594D01*
X68814647Y-77012594D02*
X68996076Y-76952118D01*
X68996076Y-76952118D02*
X69117028Y-76952118D01*
X69117028Y-76952118D02*
X69298457Y-77012594D01*
X69298457Y-77012594D02*
X69358933Y-77073070D01*
X70507980Y-76952118D02*
X69903218Y-76952118D01*
X69903218Y-76952118D02*
X69842742Y-77556880D01*
X69842742Y-77556880D02*
X69903218Y-77496403D01*
X69903218Y-77496403D02*
X70024171Y-77435927D01*
X70024171Y-77435927D02*
X70326552Y-77435927D01*
X70326552Y-77435927D02*
X70447504Y-77496403D01*
X70447504Y-77496403D02*
X70507980Y-77556880D01*
X70507980Y-77556880D02*
X70568457Y-77677832D01*
X70568457Y-77677832D02*
X70568457Y-77980213D01*
X70568457Y-77980213D02*
X70507980Y-78101165D01*
X70507980Y-78101165D02*
X70447504Y-78161642D01*
X70447504Y-78161642D02*
X70326552Y-78222118D01*
X70326552Y-78222118D02*
X70024171Y-78222118D01*
X70024171Y-78222118D02*
X69903218Y-78161642D01*
X69903218Y-78161642D02*
X69842742Y-78101165D01*
X75402718Y-67039066D02*
X74797956Y-67462400D01*
X75402718Y-67764781D02*
X74132718Y-67764781D01*
X74132718Y-67764781D02*
X74132718Y-67280971D01*
X74132718Y-67280971D02*
X74193194Y-67160019D01*
X74193194Y-67160019D02*
X74253670Y-67099542D01*
X74253670Y-67099542D02*
X74374622Y-67039066D01*
X74374622Y-67039066D02*
X74556051Y-67039066D01*
X74556051Y-67039066D02*
X74677003Y-67099542D01*
X74677003Y-67099542D02*
X74737480Y-67160019D01*
X74737480Y-67160019D02*
X74797956Y-67280971D01*
X74797956Y-67280971D02*
X74797956Y-67764781D01*
X74556051Y-65950495D02*
X75402718Y-65950495D01*
X74072242Y-66252876D02*
X74979384Y-66555257D01*
X74979384Y-66555257D02*
X74979384Y-65769066D01*
X73905533Y-74214965D02*
X73845057Y-74275442D01*
X73845057Y-74275442D02*
X73663628Y-74335918D01*
X73663628Y-74335918D02*
X73542676Y-74335918D01*
X73542676Y-74335918D02*
X73361247Y-74275442D01*
X73361247Y-74275442D02*
X73240295Y-74154489D01*
X73240295Y-74154489D02*
X73179818Y-74033537D01*
X73179818Y-74033537D02*
X73119342Y-73791632D01*
X73119342Y-73791632D02*
X73119342Y-73610203D01*
X73119342Y-73610203D02*
X73179818Y-73368299D01*
X73179818Y-73368299D02*
X73240295Y-73247346D01*
X73240295Y-73247346D02*
X73361247Y-73126394D01*
X73361247Y-73126394D02*
X73542676Y-73065918D01*
X73542676Y-73065918D02*
X73663628Y-73065918D01*
X73663628Y-73065918D02*
X73845057Y-73126394D01*
X73845057Y-73126394D02*
X73905533Y-73186870D01*
X74328866Y-73065918D02*
X75115057Y-73065918D01*
X75115057Y-73065918D02*
X74691723Y-73549727D01*
X74691723Y-73549727D02*
X74873152Y-73549727D01*
X74873152Y-73549727D02*
X74994104Y-73610203D01*
X74994104Y-73610203D02*
X75054580Y-73670680D01*
X75054580Y-73670680D02*
X75115057Y-73791632D01*
X75115057Y-73791632D02*
X75115057Y-74094013D01*
X75115057Y-74094013D02*
X75054580Y-74214965D01*
X75054580Y-74214965D02*
X74994104Y-74275442D01*
X74994104Y-74275442D02*
X74873152Y-74335918D01*
X74873152Y-74335918D02*
X74510295Y-74335918D01*
X74510295Y-74335918D02*
X74389342Y-74275442D01*
X74389342Y-74275442D02*
X74328866Y-74214965D01*
X75988333Y-62296318D02*
X75564999Y-61691556D01*
X75262618Y-62296318D02*
X75262618Y-61026318D01*
X75262618Y-61026318D02*
X75746428Y-61026318D01*
X75746428Y-61026318D02*
X75867380Y-61086794D01*
X75867380Y-61086794D02*
X75927857Y-61147270D01*
X75927857Y-61147270D02*
X75988333Y-61268222D01*
X75988333Y-61268222D02*
X75988333Y-61449651D01*
X75988333Y-61449651D02*
X75927857Y-61570603D01*
X75927857Y-61570603D02*
X75867380Y-61631080D01*
X75867380Y-61631080D02*
X75746428Y-61691556D01*
X75746428Y-61691556D02*
X75262618Y-61691556D01*
X76411666Y-61026318D02*
X77258333Y-61026318D01*
X77258333Y-61026318D02*
X76714047Y-62296318D01*
X85640333Y-71065365D02*
X85579857Y-71125842D01*
X85579857Y-71125842D02*
X85398428Y-71186318D01*
X85398428Y-71186318D02*
X85277476Y-71186318D01*
X85277476Y-71186318D02*
X85096047Y-71125842D01*
X85096047Y-71125842D02*
X84975095Y-71004889D01*
X84975095Y-71004889D02*
X84914618Y-70883937D01*
X84914618Y-70883937D02*
X84854142Y-70642032D01*
X84854142Y-70642032D02*
X84854142Y-70460603D01*
X84854142Y-70460603D02*
X84914618Y-70218699D01*
X84914618Y-70218699D02*
X84975095Y-70097746D01*
X84975095Y-70097746D02*
X85096047Y-69976794D01*
X85096047Y-69976794D02*
X85277476Y-69916318D01*
X85277476Y-69916318D02*
X85398428Y-69916318D01*
X85398428Y-69916318D02*
X85579857Y-69976794D01*
X85579857Y-69976794D02*
X85640333Y-70037270D01*
X86124142Y-70037270D02*
X86184618Y-69976794D01*
X86184618Y-69976794D02*
X86305571Y-69916318D01*
X86305571Y-69916318D02*
X86607952Y-69916318D01*
X86607952Y-69916318D02*
X86728904Y-69976794D01*
X86728904Y-69976794D02*
X86789380Y-70037270D01*
X86789380Y-70037270D02*
X86849857Y-70158222D01*
X86849857Y-70158222D02*
X86849857Y-70279175D01*
X86849857Y-70279175D02*
X86789380Y-70460603D01*
X86789380Y-70460603D02*
X86063666Y-71186318D01*
X86063666Y-71186318D02*
X86849857Y-71186318D01*
D10*
X98006819Y-58753333D02*
X98721104Y-58753333D01*
X98721104Y-58753333D02*
X98863961Y-58800952D01*
X98863961Y-58800952D02*
X98959200Y-58896190D01*
X98959200Y-58896190D02*
X99006819Y-59039047D01*
X99006819Y-59039047D02*
X99006819Y-59134285D01*
X98102057Y-58324761D02*
X98054438Y-58277142D01*
X98054438Y-58277142D02*
X98006819Y-58181904D01*
X98006819Y-58181904D02*
X98006819Y-57943809D01*
X98006819Y-57943809D02*
X98054438Y-57848571D01*
X98054438Y-57848571D02*
X98102057Y-57800952D01*
X98102057Y-57800952D02*
X98197295Y-57753333D01*
X98197295Y-57753333D02*
X98292533Y-57753333D01*
X98292533Y-57753333D02*
X98435390Y-57800952D01*
X98435390Y-57800952D02*
X99006819Y-58372380D01*
X99006819Y-58372380D02*
X99006819Y-57753333D01*
D12*
X99202518Y-82985428D02*
X98597756Y-83408762D01*
X99202518Y-83711143D02*
X97932518Y-83711143D01*
X97932518Y-83711143D02*
X97932518Y-83227333D01*
X97932518Y-83227333D02*
X97992994Y-83106381D01*
X97992994Y-83106381D02*
X98053470Y-83045904D01*
X98053470Y-83045904D02*
X98174422Y-82985428D01*
X98174422Y-82985428D02*
X98355851Y-82985428D01*
X98355851Y-82985428D02*
X98476803Y-83045904D01*
X98476803Y-83045904D02*
X98537280Y-83106381D01*
X98537280Y-83106381D02*
X98597756Y-83227333D01*
X98597756Y-83227333D02*
X98597756Y-83711143D01*
X99202518Y-81775904D02*
X99202518Y-82501619D01*
X99202518Y-82138762D02*
X97932518Y-82138762D01*
X97932518Y-82138762D02*
X98113946Y-82259714D01*
X98113946Y-82259714D02*
X98234899Y-82380666D01*
X98234899Y-82380666D02*
X98295375Y-82501619D01*
X97932518Y-80989714D02*
X97932518Y-80868761D01*
X97932518Y-80868761D02*
X97992994Y-80747809D01*
X97992994Y-80747809D02*
X98053470Y-80687333D01*
X98053470Y-80687333D02*
X98174422Y-80626857D01*
X98174422Y-80626857D02*
X98416327Y-80566380D01*
X98416327Y-80566380D02*
X98718708Y-80566380D01*
X98718708Y-80566380D02*
X98960613Y-80626857D01*
X98960613Y-80626857D02*
X99081565Y-80687333D01*
X99081565Y-80687333D02*
X99142042Y-80747809D01*
X99142042Y-80747809D02*
X99202518Y-80868761D01*
X99202518Y-80868761D02*
X99202518Y-80989714D01*
X99202518Y-80989714D02*
X99142042Y-81110666D01*
X99142042Y-81110666D02*
X99081565Y-81171142D01*
X99081565Y-81171142D02*
X98960613Y-81231619D01*
X98960613Y-81231619D02*
X98718708Y-81292095D01*
X98718708Y-81292095D02*
X98416327Y-81292095D01*
X98416327Y-81292095D02*
X98174422Y-81231619D01*
X98174422Y-81231619D02*
X98053470Y-81171142D01*
X98053470Y-81171142D02*
X97992994Y-81110666D01*
X97992994Y-81110666D02*
X97932518Y-80989714D01*
X81346318Y-52498365D02*
X80741556Y-52921699D01*
X81346318Y-53224080D02*
X80076318Y-53224080D01*
X80076318Y-53224080D02*
X80076318Y-52740270D01*
X80076318Y-52740270D02*
X80136794Y-52619318D01*
X80136794Y-52619318D02*
X80197270Y-52558841D01*
X80197270Y-52558841D02*
X80318222Y-52498365D01*
X80318222Y-52498365D02*
X80499651Y-52498365D01*
X80499651Y-52498365D02*
X80620603Y-52558841D01*
X80620603Y-52558841D02*
X80681080Y-52619318D01*
X80681080Y-52619318D02*
X80741556Y-52740270D01*
X80741556Y-52740270D02*
X80741556Y-53224080D01*
X80197270Y-52014556D02*
X80136794Y-51954080D01*
X80136794Y-51954080D02*
X80076318Y-51833127D01*
X80076318Y-51833127D02*
X80076318Y-51530746D01*
X80076318Y-51530746D02*
X80136794Y-51409794D01*
X80136794Y-51409794D02*
X80197270Y-51349318D01*
X80197270Y-51349318D02*
X80318222Y-51288841D01*
X80318222Y-51288841D02*
X80439175Y-51288841D01*
X80439175Y-51288841D02*
X80620603Y-51349318D01*
X80620603Y-51349318D02*
X81346318Y-52075032D01*
X81346318Y-52075032D02*
X81346318Y-51288841D01*
X83227333Y-65471318D02*
X82803999Y-64866556D01*
X82501618Y-65471318D02*
X82501618Y-64201318D01*
X82501618Y-64201318D02*
X82985428Y-64201318D01*
X82985428Y-64201318D02*
X83106380Y-64261794D01*
X83106380Y-64261794D02*
X83166857Y-64322270D01*
X83166857Y-64322270D02*
X83227333Y-64443222D01*
X83227333Y-64443222D02*
X83227333Y-64624651D01*
X83227333Y-64624651D02*
X83166857Y-64745603D01*
X83166857Y-64745603D02*
X83106380Y-64806080D01*
X83106380Y-64806080D02*
X82985428Y-64866556D01*
X82985428Y-64866556D02*
X82501618Y-64866556D01*
X84315904Y-64201318D02*
X84073999Y-64201318D01*
X84073999Y-64201318D02*
X83953047Y-64261794D01*
X83953047Y-64261794D02*
X83892571Y-64322270D01*
X83892571Y-64322270D02*
X83771618Y-64503699D01*
X83771618Y-64503699D02*
X83711142Y-64745603D01*
X83711142Y-64745603D02*
X83711142Y-65229413D01*
X83711142Y-65229413D02*
X83771618Y-65350365D01*
X83771618Y-65350365D02*
X83832095Y-65410842D01*
X83832095Y-65410842D02*
X83953047Y-65471318D01*
X83953047Y-65471318D02*
X84194952Y-65471318D01*
X84194952Y-65471318D02*
X84315904Y-65410842D01*
X84315904Y-65410842D02*
X84376380Y-65350365D01*
X84376380Y-65350365D02*
X84436857Y-65229413D01*
X84436857Y-65229413D02*
X84436857Y-64927032D01*
X84436857Y-64927032D02*
X84376380Y-64806080D01*
X84376380Y-64806080D02*
X84315904Y-64745603D01*
X84315904Y-64745603D02*
X84194952Y-64685127D01*
X84194952Y-64685127D02*
X83953047Y-64685127D01*
X83953047Y-64685127D02*
X83832095Y-64745603D01*
X83832095Y-64745603D02*
X83771618Y-64806080D01*
X83771618Y-64806080D02*
X83711142Y-64927032D01*
X80038765Y-79104066D02*
X80099242Y-79164542D01*
X80099242Y-79164542D02*
X80159718Y-79345971D01*
X80159718Y-79345971D02*
X80159718Y-79466923D01*
X80159718Y-79466923D02*
X80099242Y-79648352D01*
X80099242Y-79648352D02*
X79978289Y-79769304D01*
X79978289Y-79769304D02*
X79857337Y-79829781D01*
X79857337Y-79829781D02*
X79615432Y-79890257D01*
X79615432Y-79890257D02*
X79434003Y-79890257D01*
X79434003Y-79890257D02*
X79192099Y-79829781D01*
X79192099Y-79829781D02*
X79071146Y-79769304D01*
X79071146Y-79769304D02*
X78950194Y-79648352D01*
X78950194Y-79648352D02*
X78889718Y-79466923D01*
X78889718Y-79466923D02*
X78889718Y-79345971D01*
X78889718Y-79345971D02*
X78950194Y-79164542D01*
X78950194Y-79164542D02*
X79010670Y-79104066D01*
X78889718Y-78015495D02*
X78889718Y-78257400D01*
X78889718Y-78257400D02*
X78950194Y-78378352D01*
X78950194Y-78378352D02*
X79010670Y-78438828D01*
X79010670Y-78438828D02*
X79192099Y-78559781D01*
X79192099Y-78559781D02*
X79434003Y-78620257D01*
X79434003Y-78620257D02*
X79917813Y-78620257D01*
X79917813Y-78620257D02*
X80038765Y-78559781D01*
X80038765Y-78559781D02*
X80099242Y-78499304D01*
X80099242Y-78499304D02*
X80159718Y-78378352D01*
X80159718Y-78378352D02*
X80159718Y-78136447D01*
X80159718Y-78136447D02*
X80099242Y-78015495D01*
X80099242Y-78015495D02*
X80038765Y-77955019D01*
X80038765Y-77955019D02*
X79917813Y-77894542D01*
X79917813Y-77894542D02*
X79615432Y-77894542D01*
X79615432Y-77894542D02*
X79494480Y-77955019D01*
X79494480Y-77955019D02*
X79434003Y-78015495D01*
X79434003Y-78015495D02*
X79373527Y-78136447D01*
X79373527Y-78136447D02*
X79373527Y-78378352D01*
X79373527Y-78378352D02*
X79434003Y-78499304D01*
X79434003Y-78499304D02*
X79494480Y-78559781D01*
X79494480Y-78559781D02*
X79615432Y-78620257D01*
X97094318Y-74881619D02*
X98122413Y-74881619D01*
X98122413Y-74881619D02*
X98243365Y-74821142D01*
X98243365Y-74821142D02*
X98303842Y-74760666D01*
X98303842Y-74760666D02*
X98364318Y-74639714D01*
X98364318Y-74639714D02*
X98364318Y-74397809D01*
X98364318Y-74397809D02*
X98303842Y-74276857D01*
X98303842Y-74276857D02*
X98243365Y-74216380D01*
X98243365Y-74216380D02*
X98122413Y-74155904D01*
X98122413Y-74155904D02*
X97094318Y-74155904D01*
X97094318Y-73672095D02*
X97094318Y-72885904D01*
X97094318Y-72885904D02*
X97578127Y-73309238D01*
X97578127Y-73309238D02*
X97578127Y-73127809D01*
X97578127Y-73127809D02*
X97638603Y-73006857D01*
X97638603Y-73006857D02*
X97699080Y-72946381D01*
X97699080Y-72946381D02*
X97820032Y-72885904D01*
X97820032Y-72885904D02*
X98122413Y-72885904D01*
X98122413Y-72885904D02*
X98243365Y-72946381D01*
X98243365Y-72946381D02*
X98303842Y-73006857D01*
X98303842Y-73006857D02*
X98364318Y-73127809D01*
X98364318Y-73127809D02*
X98364318Y-73490666D01*
X98364318Y-73490666D02*
X98303842Y-73611619D01*
X98303842Y-73611619D02*
X98243365Y-73672095D01*
D10*
X75391380Y-79813066D02*
X75439000Y-79860685D01*
X75439000Y-79860685D02*
X75486619Y-80003542D01*
X75486619Y-80003542D02*
X75486619Y-80098780D01*
X75486619Y-80098780D02*
X75439000Y-80241637D01*
X75439000Y-80241637D02*
X75343761Y-80336875D01*
X75343761Y-80336875D02*
X75248523Y-80384494D01*
X75248523Y-80384494D02*
X75058047Y-80432113D01*
X75058047Y-80432113D02*
X74915190Y-80432113D01*
X74915190Y-80432113D02*
X74724714Y-80384494D01*
X74724714Y-80384494D02*
X74629476Y-80336875D01*
X74629476Y-80336875D02*
X74534238Y-80241637D01*
X74534238Y-80241637D02*
X74486619Y-80098780D01*
X74486619Y-80098780D02*
X74486619Y-80003542D01*
X74486619Y-80003542D02*
X74534238Y-79860685D01*
X74534238Y-79860685D02*
X74581857Y-79813066D01*
X75486619Y-79384494D02*
X74486619Y-79384494D01*
X74486619Y-79384494D02*
X74486619Y-79003542D01*
X74486619Y-79003542D02*
X74534238Y-78908304D01*
X74534238Y-78908304D02*
X74581857Y-78860685D01*
X74581857Y-78860685D02*
X74677095Y-78813066D01*
X74677095Y-78813066D02*
X74819952Y-78813066D01*
X74819952Y-78813066D02*
X74915190Y-78860685D01*
X74915190Y-78860685D02*
X74962809Y-78908304D01*
X74962809Y-78908304D02*
X75010428Y-79003542D01*
X75010428Y-79003542D02*
X75010428Y-79384494D01*
X75486619Y-77860685D02*
X75486619Y-78432113D01*
X75486619Y-78146399D02*
X74486619Y-78146399D01*
X74486619Y-78146399D02*
X74629476Y-78241637D01*
X74629476Y-78241637D02*
X74724714Y-78336875D01*
X74724714Y-78336875D02*
X74772333Y-78432113D01*
X75641295Y-59094019D02*
X75641295Y-59903542D01*
X75641295Y-59903542D02*
X75688914Y-59998780D01*
X75688914Y-59998780D02*
X75736533Y-60046400D01*
X75736533Y-60046400D02*
X75831771Y-60094019D01*
X75831771Y-60094019D02*
X76022247Y-60094019D01*
X76022247Y-60094019D02*
X76117485Y-60046400D01*
X76117485Y-60046400D02*
X76165104Y-59998780D01*
X76165104Y-59998780D02*
X76212723Y-59903542D01*
X76212723Y-59903542D02*
X76212723Y-59094019D01*
X77212723Y-60094019D02*
X76641295Y-60094019D01*
X76927009Y-60094019D02*
X76927009Y-59094019D01*
X76927009Y-59094019D02*
X76831771Y-59236876D01*
X76831771Y-59236876D02*
X76736533Y-59332114D01*
X76736533Y-59332114D02*
X76641295Y-59379733D01*
D13*
%TO.C,U2*%
X75885000Y-70942600D02*
X75885000Y-68742600D01*
X75885000Y-70942600D02*
X75885000Y-73142600D01*
X79105000Y-70942600D02*
X79105000Y-68742600D01*
X79105000Y-70942600D02*
X79105000Y-73142600D01*
X76060000Y-73842600D02*
X75730000Y-74082600D01*
X75730000Y-73602600D01*
X76060000Y-73842600D01*
G36*
X76060000Y-73842600D02*
G01*
X75730000Y-74082600D01*
X75730000Y-73602600D01*
X76060000Y-73842600D01*
G37*
D14*
%TO.C,R9*%
X80848200Y-81316600D02*
X80848200Y-82716600D01*
%TO.C,R1*%
X88265000Y-74360000D02*
X88265000Y-72960000D01*
D13*
%TO.C,C1*%
X93427000Y-64800000D02*
X93427000Y-64232000D01*
X93467000Y-65034000D02*
X93467000Y-63998000D01*
X93507000Y-65193000D02*
X93507000Y-63839000D01*
X93547000Y-65321000D02*
X93547000Y-63711000D01*
X93587000Y-65431000D02*
X93587000Y-63601000D01*
X93627000Y-65527000D02*
X93627000Y-63505000D01*
X93667000Y-65614000D02*
X93667000Y-63418000D01*
X93707000Y-65694000D02*
X93707000Y-63338000D01*
X93747000Y-65767000D02*
X93747000Y-63265000D01*
X93787000Y-65835000D02*
X93787000Y-63197000D01*
X93827000Y-65899000D02*
X93827000Y-63133000D01*
X93867000Y-65959000D02*
X93867000Y-63073000D01*
X93907000Y-66016000D02*
X93907000Y-63016000D01*
X93947000Y-66070000D02*
X93947000Y-62962000D01*
X93987000Y-66121000D02*
X93987000Y-62911000D01*
X94027000Y-63476000D02*
X94027000Y-62863000D01*
X94027000Y-66169000D02*
X94027000Y-65556000D01*
X94067000Y-63476000D02*
X94067000Y-62817000D01*
X94067000Y-66215000D02*
X94067000Y-65556000D01*
X94107000Y-63476000D02*
X94107000Y-62773000D01*
X94107000Y-66259000D02*
X94107000Y-65556000D01*
X94147000Y-63476000D02*
X94147000Y-62731000D01*
X94147000Y-66301000D02*
X94147000Y-65556000D01*
X94187000Y-63476000D02*
X94187000Y-62690000D01*
X94187000Y-66342000D02*
X94187000Y-65556000D01*
X94227000Y-63476000D02*
X94227000Y-62652000D01*
X94227000Y-66380000D02*
X94227000Y-65556000D01*
X94267000Y-63476000D02*
X94267000Y-62615000D01*
X94267000Y-66417000D02*
X94267000Y-65556000D01*
X94307000Y-63476000D02*
X94307000Y-62579000D01*
X94307000Y-66453000D02*
X94307000Y-65556000D01*
X94347000Y-63476000D02*
X94347000Y-62545000D01*
X94347000Y-66487000D02*
X94347000Y-65556000D01*
X94387000Y-63476000D02*
X94387000Y-62512000D01*
X94387000Y-66520000D02*
X94387000Y-65556000D01*
X94427000Y-63476000D02*
X94427000Y-62481000D01*
X94427000Y-66551000D02*
X94427000Y-65556000D01*
X94467000Y-63476000D02*
X94467000Y-62451000D01*
X94467000Y-66581000D02*
X94467000Y-65556000D01*
X94507000Y-63476000D02*
X94507000Y-62421000D01*
X94507000Y-66611000D02*
X94507000Y-65556000D01*
X94547000Y-63476000D02*
X94547000Y-62394000D01*
X94547000Y-66638000D02*
X94547000Y-65556000D01*
X94587000Y-63476000D02*
X94587000Y-62367000D01*
X94587000Y-66665000D02*
X94587000Y-65556000D01*
X94627000Y-63476000D02*
X94627000Y-62341000D01*
X94627000Y-66691000D02*
X94627000Y-65556000D01*
X94667000Y-63476000D02*
X94667000Y-62316000D01*
X94667000Y-66716000D02*
X94667000Y-65556000D01*
X94707000Y-63476000D02*
X94707000Y-62292000D01*
X94707000Y-66740000D02*
X94707000Y-65556000D01*
X94747000Y-63476000D02*
X94747000Y-62269000D01*
X94747000Y-66763000D02*
X94747000Y-65556000D01*
X94787000Y-63476000D02*
X94787000Y-62248000D01*
X94787000Y-66784000D02*
X94787000Y-65556000D01*
X94827000Y-63476000D02*
X94827000Y-62226000D01*
X94827000Y-66806000D02*
X94827000Y-65556000D01*
X94867000Y-63476000D02*
X94867000Y-62206000D01*
X94867000Y-66826000D02*
X94867000Y-65556000D01*
X94907000Y-63476000D02*
X94907000Y-62187000D01*
X94907000Y-66845000D02*
X94907000Y-65556000D01*
X94947000Y-63476000D02*
X94947000Y-62168000D01*
X94947000Y-66864000D02*
X94947000Y-65556000D01*
X94987000Y-63476000D02*
X94987000Y-62151000D01*
X94987000Y-66881000D02*
X94987000Y-65556000D01*
X95027000Y-63476000D02*
X95027000Y-62134000D01*
X95027000Y-66898000D02*
X95027000Y-65556000D01*
X95067000Y-63476000D02*
X95067000Y-62118000D01*
X95067000Y-66914000D02*
X95067000Y-65556000D01*
X95107000Y-63476000D02*
X95107000Y-62102000D01*
X95107000Y-66930000D02*
X95107000Y-65556000D01*
X95147000Y-63476000D02*
X95147000Y-62088000D01*
X95147000Y-66944000D02*
X95147000Y-65556000D01*
X95187000Y-63476000D02*
X95187000Y-62074000D01*
X95187000Y-66958000D02*
X95187000Y-65556000D01*
X95227000Y-63476000D02*
X95227000Y-62061000D01*
X95227000Y-66971000D02*
X95227000Y-65556000D01*
X95267000Y-63476000D02*
X95267000Y-62048000D01*
X95267000Y-66984000D02*
X95267000Y-65556000D01*
X95307000Y-63476000D02*
X95307000Y-62036000D01*
X95307000Y-66996000D02*
X95307000Y-65556000D01*
X95348000Y-63476000D02*
X95348000Y-62025000D01*
X95348000Y-67007000D02*
X95348000Y-65556000D01*
X95388000Y-63476000D02*
X95388000Y-62015000D01*
X95388000Y-67017000D02*
X95388000Y-65556000D01*
X95428000Y-63476000D02*
X95428000Y-62005000D01*
X95428000Y-67027000D02*
X95428000Y-65556000D01*
X95468000Y-63476000D02*
X95468000Y-61996000D01*
X95468000Y-67036000D02*
X95468000Y-65556000D01*
X95508000Y-63476000D02*
X95508000Y-61988000D01*
X95508000Y-67044000D02*
X95508000Y-65556000D01*
X95548000Y-63476000D02*
X95548000Y-61980000D01*
X95548000Y-67052000D02*
X95548000Y-65556000D01*
X95588000Y-63476000D02*
X95588000Y-61973000D01*
X95588000Y-67059000D02*
X95588000Y-65556000D01*
X95628000Y-63476000D02*
X95628000Y-61966000D01*
X95628000Y-67066000D02*
X95628000Y-65556000D01*
X95668000Y-63476000D02*
X95668000Y-61960000D01*
X95668000Y-67072000D02*
X95668000Y-65556000D01*
X95708000Y-63476000D02*
X95708000Y-61955000D01*
X95708000Y-67077000D02*
X95708000Y-65556000D01*
X95748000Y-63476000D02*
X95748000Y-61951000D01*
X95748000Y-67081000D02*
X95748000Y-65556000D01*
X95788000Y-63476000D02*
X95788000Y-61947000D01*
X95788000Y-67085000D02*
X95788000Y-65556000D01*
X95828000Y-63476000D02*
X95828000Y-61943000D01*
X95828000Y-67089000D02*
X95828000Y-65556000D01*
X95868000Y-63476000D02*
X95868000Y-61940000D01*
X95868000Y-67092000D02*
X95868000Y-65556000D01*
X95908000Y-63476000D02*
X95908000Y-61938000D01*
X95908000Y-67094000D02*
X95908000Y-65556000D01*
X95948000Y-63476000D02*
X95948000Y-61937000D01*
X95948000Y-67095000D02*
X95948000Y-65556000D01*
X95988000Y-63476000D02*
X95988000Y-61936000D01*
X95988000Y-67096000D02*
X95988000Y-65556000D01*
X96028000Y-63476000D02*
X96028000Y-61936000D01*
X96028000Y-67096000D02*
X96028000Y-65556000D01*
X98582775Y-66241000D02*
X98582775Y-65741000D01*
X98832775Y-65991000D02*
X98332775Y-65991000D01*
X98648000Y-64516000D02*
G75*
G02*
X93408000Y-64516000I-2620000J0D01*
G01*
X93408000Y-64516000D02*
G75*
G02*
X98648000Y-64516000I2620000J0D01*
G01*
D14*
%TO.C,R3*%
X73152000Y-60768000D02*
X73152000Y-62168000D01*
D15*
%TO.C,K1*%
X85471000Y-59645000D02*
X90043000Y-59645000D01*
X85471000Y-65995000D02*
X85471000Y-59645000D01*
X85557000Y-67220000D02*
X85557000Y-67220000D01*
X85657000Y-67220000D02*
X85657000Y-67220000D01*
X90043000Y-59645000D02*
X90043000Y-65995000D01*
X90043000Y-65995000D02*
X85471000Y-65995000D01*
X85557000Y-67220000D02*
G75*
G02*
X85657000Y-67220000I50000J0D01*
G01*
X85657000Y-67220000D02*
G75*
G02*
X85557000Y-67220000I-50000J0D01*
G01*
D14*
%TO.C,G1*%
X80645000Y-73750000D02*
X81795000Y-73750000D01*
X82145000Y-73800000D02*
X82895000Y-73800000D01*
X82145000Y-76700000D02*
X82145000Y-73800000D01*
X82895000Y-73800000D02*
X82895000Y-76700000D01*
X82895000Y-76700000D02*
X82145000Y-76700000D01*
%TO.C,G2*%
X87730200Y-80894400D02*
X87730200Y-79744400D01*
X87780200Y-78644400D02*
X90680200Y-78644400D01*
X87780200Y-79394400D02*
X87780200Y-78644400D01*
X90680200Y-78644400D02*
X90680200Y-79394400D01*
X90680200Y-79394400D02*
X87780200Y-79394400D01*
%TO.C,R8*%
X86120200Y-79908400D02*
X84720200Y-79908400D01*
D16*
%TO.C,J1*%
X85165000Y-49455000D02*
X90095000Y-49455000D01*
X85165000Y-55805000D02*
X85165000Y-49455000D01*
X90095000Y-49455000D02*
X90095000Y-55805000D01*
X90095000Y-55805000D02*
X85165000Y-55805000D01*
D14*
X91000000Y-52705000D02*
G75*
G02*
X90800000Y-52705000I-100000J0D01*
G01*
X90800000Y-52705000D02*
G75*
G02*
X91000000Y-52705000I100000J0D01*
G01*
%TO.C,R5*%
X71374000Y-69454800D02*
X71374000Y-70854800D01*
%TO.C,R4*%
X71450200Y-67502000D02*
X71450200Y-66102000D01*
%TO.C,R7*%
X80010000Y-62295000D02*
X80010000Y-60895000D01*
D16*
%TO.C,J2*%
X93270000Y-55955000D02*
X99620000Y-55955000D01*
X93270000Y-60885000D02*
X93270000Y-55955000D01*
X99620000Y-55955000D02*
X99620000Y-60885000D01*
X99620000Y-60885000D02*
X93270000Y-60885000D01*
D14*
X96620000Y-55150000D02*
G75*
G02*
X96420000Y-55150000I-100000J0D01*
G01*
X96420000Y-55150000D02*
G75*
G02*
X96620000Y-55150000I100000J0D01*
G01*
%TO.C,R10*%
X94919800Y-83148400D02*
X94919800Y-81748400D01*
%TO.C,R2*%
X83605600Y-52298600D02*
X82205600Y-52298600D01*
%TO.C,R6*%
X79629000Y-64197000D02*
X79629000Y-65597000D01*
D12*
%TO.C,U3*%
X91948000Y-68225500D02*
X91948000Y-79725500D01*
X91948000Y-79725500D02*
X99498000Y-79725500D01*
X99498000Y-68225500D02*
X91948000Y-68225500D01*
X99498000Y-79725500D02*
X99498000Y-68225500D01*
X91424000Y-70531500D02*
G75*
G02*
X91246000Y-70531500I-89000J0D01*
G01*
X91246000Y-70531500D02*
G75*
G02*
X91424000Y-70531500I89000J0D01*
G01*
D13*
%TO.C,CP1*%
X76121800Y-79333200D02*
X76121800Y-77923200D01*
X78441800Y-79323200D02*
X78441800Y-77923200D01*
X76171800Y-79703200D02*
X75841800Y-79943200D01*
X75841800Y-79463200D01*
X76171800Y-79703200D01*
G36*
X76171800Y-79703200D02*
G01*
X75841800Y-79943200D01*
X75841800Y-79463200D01*
X76171800Y-79703200D01*
G37*
%TO.C,U1*%
X75693200Y-56345600D02*
X77103200Y-56345600D01*
X75703200Y-58665600D02*
X77103200Y-58665600D01*
X75323200Y-56395600D02*
X75083200Y-56065600D01*
X75563200Y-56065600D01*
X75323200Y-56395600D01*
G36*
X75323200Y-56395600D02*
G01*
X75083200Y-56065600D01*
X75563200Y-56065600D01*
X75323200Y-56395600D01*
G37*
%TD*%
M02*
