%TF.GenerationSoftware,KiCad,Pcbnew,8.0.0*%
%TF.CreationDate,2024-06-23T14:11:11+02:00*%
%TF.ProjectId,SCS IMD-AMS Indicator,53435320-494d-4442-9d41-4d5320496e64,rev?*%
%TF.SameCoordinates,Original*%
%TF.FileFunction,Copper,L1,Top*%
%TF.FilePolarity,Positive*%
%FSLAX46Y46*%
G04 Gerber Fmt 4.6, Leading zero omitted, Abs format (unit mm)*
G04 Created by KiCad (PCBNEW 8.0.0) date 2024-06-23 14:11:11*
%MOMM*%
%LPD*%
G01*
G04 APERTURE LIST*
G04 Aperture macros list*
%AMRoundRect*
0 Rectangle with rounded corners*
0 $1 Rounding radius*
0 $2 $3 $4 $5 $6 $7 $8 $9 X,Y pos of 4 corners*
0 Add a 4 corners polygon primitive as box body*
4,1,4,$2,$3,$4,$5,$6,$7,$8,$9,$2,$3,0*
0 Add four circle primitives for the rounded corners*
1,1,$1+$1,$2,$3*
1,1,$1+$1,$4,$5*
1,1,$1+$1,$6,$7*
1,1,$1+$1,$8,$9*
0 Add four rect primitives between the rounded corners*
20,1,$1+$1,$2,$3,$4,$5,0*
20,1,$1+$1,$4,$5,$6,$7,0*
20,1,$1+$1,$6,$7,$8,$9,0*
20,1,$1+$1,$8,$9,$2,$3,0*%
G04 Aperture macros list end*
%TA.AperFunction,SMDPad,CuDef*%
%ADD10RoundRect,0.100000X0.100000X-0.637500X0.100000X0.637500X-0.100000X0.637500X-0.100000X-0.637500X0*%
%TD*%
%TA.AperFunction,SMDPad,CuDef*%
%ADD11R,1.050000X1.800000*%
%TD*%
%TA.AperFunction,SMDPad,CuDef*%
%ADD12R,1.070000X1.470000*%
%TD*%
%TA.AperFunction,ComponentPad*%
%ADD13R,1.600000X1.600000*%
%TD*%
%TA.AperFunction,ComponentPad*%
%ADD14C,1.600000*%
%TD*%
%TA.AperFunction,SMDPad,CuDef*%
%ADD15O,0.950000X1.600000*%
%TD*%
%TA.AperFunction,SMDPad,CuDef*%
%ADD16R,1.150000X0.600000*%
%TD*%
%TA.AperFunction,SMDPad,CuDef*%
%ADD17R,0.600000X1.150000*%
%TD*%
%TA.AperFunction,SMDPad,CuDef*%
%ADD18R,1.800000X1.050000*%
%TD*%
%TA.AperFunction,ComponentPad*%
%ADD19R,1.530000X1.530000*%
%TD*%
%TA.AperFunction,ComponentPad*%
%ADD20C,1.530000*%
%TD*%
%TA.AperFunction,SMDPad,CuDef*%
%ADD21R,1.470000X1.070000*%
%TD*%
%TA.AperFunction,ComponentPad*%
%ADD22C,3.000000*%
%TD*%
%TA.AperFunction,ComponentPad*%
%ADD23C,1.440000*%
%TD*%
%TA.AperFunction,SMDPad,CuDef*%
%ADD24RoundRect,0.100000X0.100000X-0.225000X0.100000X0.225000X-0.100000X0.225000X-0.100000X-0.225000X0*%
%TD*%
%TA.AperFunction,SMDPad,CuDef*%
%ADD25RoundRect,0.100000X-0.650000X-0.100000X0.650000X-0.100000X0.650000X0.100000X-0.650000X0.100000X0*%
%TD*%
%TA.AperFunction,ViaPad*%
%ADD26C,0.800000*%
%TD*%
%TA.AperFunction,Conductor*%
%ADD27C,0.250000*%
%TD*%
G04 APERTURE END LIST*
D10*
%TO.P,U2,1*%
%TO.N,/SCS_Compliance*%
X76520000Y-73805100D03*
%TO.P,U2,2,-*%
%TO.N,/0.75V*%
X77170000Y-73805100D03*
%TO.P,U2,3,+*%
%TO.N,/PCB_State_OK*%
X77820000Y-73805100D03*
%TO.P,U2,4,V-*%
%TO.N,GND*%
X78470000Y-73805100D03*
%TO.P,U2,5,+*%
%TO.N,/4.25V*%
X78470000Y-68080100D03*
%TO.P,U2,6,-*%
%TO.N,/PCB_State_OK*%
X77820000Y-68080100D03*
%TO.P,U2,7*%
%TO.N,/SCS_Compliance*%
X77170000Y-68080100D03*
%TO.P,U2,8,V+*%
%TO.N,+5V*%
X76520000Y-68080100D03*
%TD*%
D11*
%TO.P,R9,1*%
%TO.N,Net-(CP1--)*%
X79298200Y-82016600D03*
%TO.P,R9,2*%
%TO.N,GND*%
X82398200Y-82016600D03*
%TD*%
D12*
%TO.P,C7,1*%
%TO.N,GND*%
X74922800Y-82092800D03*
%TO.P,C7,2*%
%TO.N,Net-(CP1--)*%
X76562800Y-82092800D03*
%TD*%
D11*
%TO.P,R1,1*%
%TO.N,Net-(K1-+_CONTROL)*%
X89815000Y-73660000D03*
%TO.P,R1,2*%
%TO.N,Net-(G2-Pad4)*%
X86715000Y-73660000D03*
%TD*%
D13*
%TO.P,C1,1*%
%TO.N,GND*%
X97028000Y-64516000D03*
D14*
%TO.P,C1,2*%
%TO.N,+12V*%
X95028000Y-64516000D03*
%TD*%
D11*
%TO.P,R3,1*%
%TO.N,+5V*%
X71602000Y-61468000D03*
%TO.P,R3,2*%
%TO.N,/SCS_Compliance*%
X74702000Y-61468000D03*
%TD*%
D15*
%TO.P,K1,1,+_CONTROL*%
%TO.N,Net-(K1-+_CONTROL)*%
X86614000Y-67220000D03*
%TO.P,K1,2,-_CONTROL*%
%TO.N,GND*%
X88900000Y-67220000D03*
%TO.P,K1,3,LOAD_1*%
%TO.N,/LED_Power*%
X88900000Y-58420000D03*
%TO.P,K1,4,LOAD_2*%
%TO.N,+12V*%
X86614000Y-58420000D03*
%TD*%
D16*
%TO.P,G1,1*%
%TO.N,/PCB_State_OK*%
X81220000Y-74300000D03*
%TO.P,G1,2*%
%TO.N,/SCS_Compliance*%
X81220000Y-75250000D03*
%TO.P,G1,3,GND*%
%TO.N,GND*%
X81220000Y-76200000D03*
%TO.P,G1,4*%
%TO.N,Net-(G1-Pad4)*%
X83820000Y-76200000D03*
%TO.P,G1,5,VCC*%
%TO.N,+5V*%
X83820000Y-74300000D03*
%TD*%
D17*
%TO.P,G2,1*%
%TO.N,/Visible_check*%
X88280200Y-80319400D03*
%TO.P,G2,2*%
%TO.N,Net-(G1-Pad4)*%
X89230200Y-80319400D03*
%TO.P,G2,3,GND*%
%TO.N,GND*%
X90180200Y-80319400D03*
%TO.P,G2,4*%
%TO.N,Net-(G2-Pad4)*%
X90180200Y-77719400D03*
%TO.P,G2,5,VCC*%
%TO.N,+5V*%
X88280200Y-77719400D03*
%TD*%
D18*
%TO.P,R8,1*%
%TO.N,+5V*%
X85420200Y-78358400D03*
%TO.P,R8,2*%
%TO.N,/Visible_check*%
X85420200Y-81458400D03*
%TD*%
D19*
%TO.P,J1,1,1*%
%TO.N,/LED_Power*%
X88900000Y-52705000D03*
D20*
%TO.P,J1,2,2*%
%TO.N,/Raw_PCB_State_OK*%
X86360000Y-52705000D03*
%TD*%
D21*
%TO.P,C4,1*%
%TO.N,GND*%
X81889600Y-56736400D03*
%TO.P,C4,2*%
%TO.N,+5V*%
X81889600Y-58376400D03*
%TD*%
D11*
%TO.P,R5,1*%
%TO.N,GND*%
X69824000Y-70154800D03*
%TO.P,R5,2*%
%TO.N,/0.75V*%
X72924000Y-70154800D03*
%TD*%
D12*
%TO.P,C5,1*%
%TO.N,GND*%
X71747800Y-77622400D03*
%TO.P,C5,2*%
%TO.N,+5V*%
X73387800Y-77622400D03*
%TD*%
D11*
%TO.P,R4,1*%
%TO.N,/0.75V*%
X73000200Y-66802000D03*
%TO.P,R4,2*%
%TO.N,+5V*%
X69900200Y-66802000D03*
%TD*%
D12*
%TO.P,C3,1*%
%TO.N,GND*%
X70401600Y-73736200D03*
%TO.P,C3,2*%
%TO.N,+5V*%
X72041600Y-73736200D03*
%TD*%
D11*
%TO.P,R7,1*%
%TO.N,GND*%
X81560000Y-61595000D03*
%TO.P,R7,2*%
%TO.N,/4.25V*%
X78460000Y-61595000D03*
%TD*%
D12*
%TO.P,C2,1*%
%TO.N,GND*%
X88080000Y-70485000D03*
%TO.P,C2,2*%
%TO.N,+5V*%
X89720000Y-70485000D03*
%TD*%
D19*
%TO.P,J2,1,1*%
%TO.N,GND*%
X96520000Y-57150000D03*
D20*
%TO.P,J2,2,2*%
%TO.N,+12V*%
X96520000Y-59690000D03*
%TD*%
D22*
%TO.P,,1*%
%TO.N,N/C*%
X96266000Y-51866800D03*
%TD*%
D11*
%TO.P,R10,1*%
%TO.N,+5V*%
X96469800Y-82448400D03*
%TO.P,R10,2*%
%TO.N,Net-(CP1--)*%
X93369800Y-82448400D03*
%TD*%
D18*
%TO.P,R2,1*%
%TO.N,/Raw_PCB_State_OK*%
X82905600Y-50748600D03*
%TO.P,R2,2*%
%TO.N,GND*%
X82905600Y-53848600D03*
%TD*%
D11*
%TO.P,R6,1*%
%TO.N,/4.25V*%
X78079000Y-64897000D03*
%TO.P,R6,2*%
%TO.N,+5V*%
X81179000Y-64897000D03*
%TD*%
D12*
%TO.P,C6,1*%
%TO.N,GND*%
X80891800Y-78841600D03*
%TO.P,C6,2*%
%TO.N,+5V*%
X82531800Y-78841600D03*
%TD*%
D23*
%TO.P,U3,1,+VIN*%
%TO.N,+12V*%
X93948000Y-71435500D03*
%TO.P,U3,2,GND*%
%TO.N,GND*%
X93948000Y-73975500D03*
%TO.P,U3,3,+VOUT*%
%TO.N,+5V*%
X93948000Y-76515500D03*
%TD*%
D22*
%TO.P,,1*%
%TO.N,N/C*%
X71628000Y-51308000D03*
%TD*%
D24*
%TO.P,CP1,1,+*%
%TO.N,/0.75V*%
X76631800Y-79573200D03*
%TO.P,CP1,2,V-*%
%TO.N,GND*%
X77281800Y-79573200D03*
%TO.P,CP1,3,-*%
%TO.N,Net-(CP1--)*%
X77931800Y-79573200D03*
%TO.P,CP1,4*%
%TO.N,/Visible_check*%
X77931800Y-77673200D03*
%TO.P,CP1,5,V+*%
%TO.N,+5V*%
X76631800Y-77673200D03*
%TD*%
D25*
%TO.P,U1,1,+*%
%TO.N,/Raw_PCB_State_OK*%
X75073200Y-56855600D03*
%TO.P,U1,2,-*%
%TO.N,/PCB_State_OK*%
X75073200Y-57505600D03*
%TO.P,U1,3*%
X75073200Y-58155600D03*
%TO.P,U1,4,V+*%
%TO.N,+5V*%
X77733200Y-58155600D03*
%TO.P,U1,5,V-*%
%TO.N,GND*%
X77733200Y-56855600D03*
%TD*%
D22*
%TO.P,,1*%
%TO.N,N/C*%
X71602600Y-80873600D03*
%TD*%
D26*
%TO.N,+5V*%
X76555600Y-76403200D03*
X82600800Y-75311000D03*
X91363800Y-76504800D03*
%TO.N,GND*%
X75006200Y-79298800D03*
X79603600Y-77241400D03*
%TO.N,/PCB_State_OK*%
X80947898Y-72874502D03*
X77825600Y-71856600D03*
%TD*%
D27*
%TO.N,+5V*%
X78501000Y-58155600D02*
X80290000Y-59944600D01*
X93948000Y-76515500D02*
X93948000Y-79215400D01*
X74708600Y-76403200D02*
X72041600Y-73736200D01*
X85420200Y-78358400D02*
X83015000Y-78358400D01*
X76555600Y-76403200D02*
X74708600Y-76403200D01*
X71374000Y-73068600D02*
X72041600Y-73736200D01*
X71374000Y-68275800D02*
X71374000Y-73068600D01*
X69900200Y-66802000D02*
X71374000Y-68275800D01*
X76631800Y-77673200D02*
X73438600Y-77673200D01*
X71602000Y-62686600D02*
X76495000Y-67579600D01*
X83015000Y-78358400D02*
X82531800Y-78841600D01*
X85420200Y-78358400D02*
X87641200Y-78358400D01*
X80290000Y-59976000D02*
X81889600Y-58376400D01*
X82531800Y-75380000D02*
X82531800Y-78841600D01*
X92252800Y-73017800D02*
X89720000Y-70485000D01*
X69824000Y-63246000D02*
X71602000Y-61468000D01*
X76555600Y-76403200D02*
X76555600Y-77597000D01*
X92252800Y-74726800D02*
X92252800Y-73017800D01*
X69824000Y-66725800D02*
X69824000Y-63246000D01*
X83820000Y-69850000D02*
X83820000Y-74300000D01*
X81179000Y-67209000D02*
X83820000Y-69850000D01*
X81179000Y-64897000D02*
X80290000Y-64008000D01*
X80290000Y-59944600D02*
X80290000Y-59976000D01*
X82600800Y-75311000D02*
X82531800Y-75380000D01*
X91363800Y-76504800D02*
X91374500Y-76515500D01*
X80290000Y-64008000D02*
X80290000Y-59976000D01*
X82600800Y-75311000D02*
X82785800Y-75496000D01*
X82809000Y-75311000D02*
X83820000Y-74300000D01*
X85241800Y-78536800D02*
X85420200Y-78358400D01*
X69900200Y-66802000D02*
X69824000Y-66725800D01*
X81179000Y-64897000D02*
X81179000Y-67209000D01*
X93948000Y-76515500D02*
X93948000Y-76422000D01*
X76495000Y-67579600D02*
X76495000Y-68003500D01*
X73438600Y-77673200D02*
X73387800Y-77622400D01*
X82600800Y-75311000D02*
X82809000Y-75311000D01*
X76555600Y-77597000D02*
X76631800Y-77673200D01*
X77733200Y-58155600D02*
X78501000Y-58155600D01*
X71602000Y-61468000D02*
X71602000Y-62686600D01*
X91374500Y-76515500D02*
X93948000Y-76515500D01*
X87641200Y-78358400D02*
X88280200Y-77719400D01*
X93948000Y-76422000D02*
X92252800Y-74726800D01*
X93948000Y-79215400D02*
X96520600Y-81788000D01*
%TO.N,Net-(CP1--)*%
X92404600Y-83413600D02*
X93369800Y-82448400D01*
X76562800Y-82092800D02*
X77931800Y-80723800D01*
X77931800Y-80723800D02*
X77931800Y-79573200D01*
X79298200Y-82016600D02*
X80695200Y-83413600D01*
X79298200Y-82016600D02*
X79224600Y-82016600D01*
X79224600Y-82016600D02*
X77931800Y-80723800D01*
X80695200Y-83413600D02*
X92404600Y-83413600D01*
%TO.N,GND*%
X75209400Y-81026000D02*
X74922800Y-81312600D01*
X80178600Y-77241400D02*
X81220000Y-76200000D01*
X77281800Y-79898199D02*
X76153999Y-81026000D01*
X77281800Y-79573200D02*
X77281800Y-79898199D01*
X79603600Y-77241400D02*
X79603600Y-76631800D01*
X78470000Y-75498200D02*
X78470000Y-73805100D01*
X74922800Y-81312600D02*
X74922800Y-82092800D01*
X80891800Y-78841600D02*
X80891800Y-78529600D01*
X76153999Y-81026000D02*
X75209400Y-81026000D01*
X81220000Y-78513400D02*
X80891800Y-78841600D01*
X80891800Y-78529600D02*
X79603600Y-77241400D01*
X79603600Y-76631800D02*
X78470000Y-75498200D01*
X79603600Y-77241400D02*
X80178600Y-77241400D01*
%TO.N,/Visible_check*%
X80289400Y-80213200D02*
X84175000Y-80213200D01*
X77931800Y-77673200D02*
X77931800Y-77855600D01*
X87141200Y-81458400D02*
X88280200Y-80319400D01*
X77931800Y-77855600D02*
X80289400Y-80213200D01*
X85420200Y-81458400D02*
X87141200Y-81458400D01*
X84175000Y-80213200D02*
X85420200Y-81458400D01*
%TO.N,+12V*%
X94996000Y-64484000D02*
X94996000Y-61214000D01*
X92710000Y-64516000D02*
X95028000Y-64516000D01*
X94996000Y-64548000D02*
X95028000Y-64516000D01*
X86614000Y-58420000D02*
X92710000Y-64516000D01*
X95028000Y-64516000D02*
X94996000Y-64484000D01*
X94996000Y-61214000D02*
X96520000Y-59690000D01*
X93948000Y-71435500D02*
X94996000Y-70387500D01*
X94996000Y-70387500D02*
X94996000Y-64548000D01*
%TO.N,Net-(G1-Pad4)*%
X88366600Y-76200000D02*
X89230200Y-77063600D01*
X83820000Y-76200000D02*
X88366600Y-76200000D01*
X89230200Y-77063600D02*
X89230200Y-80319400D01*
%TO.N,/LED_Power*%
X88900000Y-52705000D02*
X88900000Y-58420000D01*
%TO.N,Net-(K1-+_CONTROL)*%
X88683300Y-73660000D02*
X86614000Y-71590700D01*
X86614000Y-71590700D02*
X86614000Y-67220000D01*
X89815000Y-73660000D02*
X88683300Y-73660000D01*
%TO.N,/0.75V*%
X77170000Y-74823600D02*
X77170000Y-73805100D01*
X76631800Y-79573200D02*
X76631800Y-78917800D01*
X76098400Y-75057000D02*
X76936600Y-75057000D01*
X77280600Y-78269000D02*
X77280600Y-75401000D01*
X72924000Y-71882600D02*
X76098400Y-75057000D01*
X77280600Y-75401000D02*
X76936600Y-75057000D01*
X72924000Y-70154800D02*
X72924000Y-71882600D01*
X76631800Y-78917800D02*
X77280600Y-78269000D01*
X73000200Y-66802000D02*
X72924000Y-66878200D01*
X76936600Y-75057000D02*
X77170000Y-74823600D01*
X72924000Y-66878200D02*
X72924000Y-70154800D01*
%TO.N,/4.25V*%
X78079000Y-61976000D02*
X78079000Y-64897000D01*
X78079000Y-64897000D02*
X78470000Y-65288000D01*
X78460000Y-61595000D02*
X78079000Y-61976000D01*
X78470000Y-65288000D02*
X78470000Y-68080100D01*
%TO.N,/PCB_State_OK*%
X80947898Y-72874502D02*
X81220000Y-73146604D01*
X81220000Y-73146604D02*
X81220000Y-74300000D01*
X75073200Y-57505600D02*
X75073200Y-58155600D01*
X76454000Y-59537600D02*
X76454000Y-65532000D01*
X77820000Y-69746604D02*
X77820000Y-68080100D01*
X77820000Y-71862200D02*
X77820000Y-73805100D01*
X76454000Y-65532000D02*
X77820000Y-66898000D01*
X77820000Y-66898000D02*
X77820000Y-68080100D01*
X75073200Y-58155600D02*
X75073200Y-58156800D01*
X75073200Y-58156800D02*
X76454000Y-59537600D01*
X77825600Y-71856600D02*
X77820000Y-71862200D01*
X80947898Y-72874502D02*
X77820000Y-69746604D01*
%TO.N,/SCS_Compliance*%
X77145000Y-69728200D02*
X77774800Y-70358000D01*
X76520000Y-71633000D02*
X76520000Y-73805100D01*
X77795000Y-70358000D02*
X79756000Y-72319000D01*
X77774800Y-70358000D02*
X77795000Y-70358000D01*
X74702000Y-61468000D02*
X74702000Y-64823001D01*
X77145000Y-67266001D02*
X77145000Y-69728200D01*
X80628406Y-75250000D02*
X81220000Y-75250000D01*
X77795000Y-70358000D02*
X76520000Y-71633000D01*
X79756000Y-72319000D02*
X79756000Y-74377594D01*
X74702000Y-64823001D02*
X77145000Y-67266001D01*
X79756000Y-74377594D02*
X80628406Y-75250000D01*
%TO.N,Net-(G2-Pad4)*%
X90180200Y-77719400D02*
X90180200Y-76515000D01*
X90180200Y-76515000D02*
X87325200Y-73660000D01*
X87325200Y-73660000D02*
X86715000Y-73660000D01*
%TO.N,/Raw_PCB_State_OK*%
X86360000Y-52705000D02*
X84862000Y-52705000D01*
X84862000Y-52705000D02*
X82905600Y-50748600D01*
X82905600Y-50748600D02*
X81180200Y-50748600D01*
X81180200Y-50748600D02*
X75073200Y-56855600D01*
%TD*%
%TA.AperFunction,Conductor*%
%TO.N,GND*%
G36*
X78634718Y-74730270D02*
G01*
X78667471Y-74791987D01*
X78670000Y-74816902D01*
X78670000Y-75034610D01*
X78670001Y-75034611D01*
X78726627Y-75027157D01*
X78726633Y-75027155D01*
X78872585Y-74966700D01*
X78997926Y-74870523D01*
X79071737Y-74774331D01*
X79128165Y-74733128D01*
X79197911Y-74728973D01*
X79258831Y-74763185D01*
X79265909Y-74771921D01*
X79266278Y-74771619D01*
X79270139Y-74776323D01*
X79270142Y-74776327D01*
X79357267Y-74863452D01*
X79357269Y-74863453D01*
X79364335Y-74870519D01*
X79364334Y-74870519D01*
X79364338Y-74870522D01*
X80131602Y-75637787D01*
X80160065Y-75682032D01*
X80160157Y-75682278D01*
X80165202Y-75751965D01*
X80160196Y-75769044D01*
X80151402Y-75792623D01*
X80151401Y-75792624D01*
X80145000Y-75852155D01*
X80145000Y-75950000D01*
X80302893Y-75950000D01*
X80369932Y-75969685D01*
X80377204Y-75974733D01*
X80402668Y-75993795D01*
X80402671Y-75993797D01*
X80537517Y-76044091D01*
X80537516Y-76044091D01*
X80544444Y-76044835D01*
X80597127Y-76050500D01*
X81346001Y-76050499D01*
X81413039Y-76070183D01*
X81458794Y-76122987D01*
X81470000Y-76174499D01*
X81470000Y-77000000D01*
X81782300Y-77000000D01*
X81849339Y-77019685D01*
X81895094Y-77072489D01*
X81906300Y-77124000D01*
X81906300Y-77520079D01*
X81886615Y-77587118D01*
X81833811Y-77632873D01*
X81825632Y-77636261D01*
X81754417Y-77662822D01*
X81684726Y-77667806D01*
X81667752Y-77662822D01*
X81534180Y-77613003D01*
X81534172Y-77613001D01*
X81474644Y-77606600D01*
X81141800Y-77606600D01*
X81141800Y-78967600D01*
X81122115Y-79034639D01*
X81069311Y-79080394D01*
X81017800Y-79091600D01*
X80765800Y-79091600D01*
X80698761Y-79071915D01*
X80653006Y-79019111D01*
X80641800Y-78967600D01*
X80641800Y-77606600D01*
X80308955Y-77606600D01*
X80249427Y-77613001D01*
X80249420Y-77613003D01*
X80114713Y-77663245D01*
X80114706Y-77663249D01*
X79999612Y-77749409D01*
X79999609Y-77749412D01*
X79913449Y-77864506D01*
X79913445Y-77864513D01*
X79863203Y-77999220D01*
X79863201Y-77999227D01*
X79856800Y-78058755D01*
X79856800Y-78596648D01*
X79837115Y-78663687D01*
X79784311Y-78709442D01*
X79715153Y-78719386D01*
X79651597Y-78690361D01*
X79645119Y-78684329D01*
X78668618Y-77707828D01*
X78635133Y-77646505D01*
X78632299Y-77620147D01*
X78632299Y-77408836D01*
X78616846Y-77291446D01*
X78616844Y-77291441D01*
X78616844Y-77291438D01*
X78556336Y-77145359D01*
X78460082Y-77019918D01*
X78334641Y-76923664D01*
X78188562Y-76863156D01*
X78188560Y-76863155D01*
X78071170Y-76847701D01*
X78071167Y-76847700D01*
X78071161Y-76847700D01*
X78071154Y-76847700D01*
X78030100Y-76847700D01*
X77963061Y-76828015D01*
X77917306Y-76775211D01*
X77906100Y-76723700D01*
X77906100Y-76450000D01*
X80145000Y-76450000D01*
X80145000Y-76547844D01*
X80151401Y-76607372D01*
X80151403Y-76607379D01*
X80201645Y-76742086D01*
X80201649Y-76742093D01*
X80287809Y-76857187D01*
X80287812Y-76857190D01*
X80402906Y-76943350D01*
X80402913Y-76943354D01*
X80537620Y-76993596D01*
X80537627Y-76993598D01*
X80597155Y-76999999D01*
X80597172Y-77000000D01*
X80970000Y-77000000D01*
X80970000Y-76450000D01*
X80145000Y-76450000D01*
X77906100Y-76450000D01*
X77906100Y-75339393D01*
X77900044Y-75308951D01*
X77896342Y-75290338D01*
X77882063Y-75218548D01*
X77878986Y-75211121D01*
X77871517Y-75141655D01*
X77902790Y-75079175D01*
X77962878Y-75043521D01*
X77977363Y-75040729D01*
X78076762Y-75027644D01*
X78098200Y-75018763D01*
X78167668Y-75011294D01*
X78193106Y-75018763D01*
X78213365Y-75027154D01*
X78213377Y-75027158D01*
X78269998Y-75034611D01*
X78270000Y-75034610D01*
X78270000Y-74992099D01*
X78289685Y-74925060D01*
X78318512Y-74893725D01*
X78348282Y-74870882D01*
X78444536Y-74745441D01*
X78444536Y-74745439D01*
X78447624Y-74741416D01*
X78504052Y-74700213D01*
X78573798Y-74696058D01*
X78634718Y-74730270D01*
G37*
%TD.AperFunction*%
%TA.AperFunction,Conductor*%
G36*
X81484572Y-51431331D02*
G01*
X81540505Y-51473203D01*
X81557419Y-51504176D01*
X81561803Y-51515929D01*
X81561806Y-51515935D01*
X81648052Y-51631144D01*
X81648055Y-51631147D01*
X81763264Y-51717393D01*
X81763271Y-51717397D01*
X81898117Y-51767691D01*
X81898116Y-51767691D01*
X81905044Y-51768435D01*
X81957727Y-51774100D01*
X82995147Y-51774099D01*
X83062186Y-51793783D01*
X83082828Y-51810418D01*
X83884328Y-52611919D01*
X83917813Y-52673242D01*
X83912829Y-52742934D01*
X83870957Y-52798867D01*
X83805493Y-52823284D01*
X83796647Y-52823600D01*
X83155600Y-52823600D01*
X83155600Y-53598600D01*
X84305600Y-53598600D01*
X84305600Y-53317495D01*
X84325285Y-53250456D01*
X84378089Y-53204701D01*
X84447247Y-53194757D01*
X84498486Y-53214390D01*
X84525393Y-53232369D01*
X84525394Y-53232370D01*
X84545417Y-53245749D01*
X84565714Y-53259311D01*
X84679548Y-53306463D01*
X84800388Y-53330499D01*
X84800392Y-53330500D01*
X84800393Y-53330500D01*
X84800394Y-53330500D01*
X85188539Y-53330500D01*
X85255578Y-53350185D01*
X85290112Y-53383374D01*
X85386868Y-53521555D01*
X85543445Y-53678132D01*
X85724833Y-53805142D01*
X85825311Y-53851995D01*
X85925513Y-53898720D01*
X85925515Y-53898720D01*
X85925520Y-53898723D01*
X86139409Y-53956035D01*
X86296974Y-53969820D01*
X86359998Y-53975334D01*
X86360000Y-53975334D01*
X86360002Y-53975334D01*
X86415276Y-53970498D01*
X86580591Y-53956035D01*
X86794480Y-53898723D01*
X86995167Y-53805142D01*
X87176555Y-53678132D01*
X87333132Y-53521555D01*
X87408928Y-53413307D01*
X87463501Y-53369685D01*
X87533000Y-53362491D01*
X87595355Y-53394013D01*
X87630769Y-53454243D01*
X87634500Y-53484430D01*
X87634500Y-53517868D01*
X87634501Y-53517876D01*
X87640908Y-53577483D01*
X87691202Y-53712328D01*
X87691206Y-53712335D01*
X87777452Y-53827544D01*
X87777455Y-53827547D01*
X87892664Y-53913793D01*
X87892671Y-53913797D01*
X87937618Y-53930561D01*
X88027517Y-53964091D01*
X88087127Y-53970500D01*
X88150500Y-53970499D01*
X88217538Y-53990183D01*
X88263294Y-54042986D01*
X88274500Y-54094499D01*
X88274500Y-57289572D01*
X88254815Y-57356611D01*
X88238181Y-57377253D01*
X88142282Y-57473151D01*
X88142279Y-57473155D01*
X88035521Y-57632929D01*
X88035520Y-57632931D01*
X87961989Y-57810452D01*
X87961986Y-57810464D01*
X87924500Y-57998917D01*
X87924500Y-58546548D01*
X87904815Y-58613587D01*
X87852011Y-58659342D01*
X87782853Y-58669286D01*
X87719297Y-58640261D01*
X87712819Y-58634229D01*
X87625819Y-58547229D01*
X87592334Y-58485906D01*
X87589500Y-58459548D01*
X87589500Y-57998919D01*
X87589499Y-57998917D01*
X87565457Y-57878050D01*
X87552012Y-57810457D01*
X87540701Y-57783150D01*
X87478479Y-57632931D01*
X87478478Y-57632929D01*
X87474727Y-57627316D01*
X87371720Y-57473155D01*
X87371717Y-57473151D01*
X87235848Y-57337282D01*
X87235844Y-57337279D01*
X87076070Y-57230521D01*
X87076068Y-57230520D01*
X86898547Y-57156989D01*
X86898535Y-57156986D01*
X86710081Y-57119500D01*
X86710078Y-57119500D01*
X86517922Y-57119500D01*
X86517919Y-57119500D01*
X86329464Y-57156986D01*
X86329452Y-57156989D01*
X86151931Y-57230520D01*
X86151929Y-57230521D01*
X85992155Y-57337279D01*
X85992151Y-57337282D01*
X85856282Y-57473151D01*
X85856279Y-57473155D01*
X85749521Y-57632929D01*
X85749520Y-57632931D01*
X85675989Y-57810452D01*
X85675986Y-57810464D01*
X85638500Y-57998917D01*
X85638500Y-58841082D01*
X85675986Y-59029535D01*
X85675989Y-59029547D01*
X85749520Y-59207068D01*
X85749521Y-59207070D01*
X85856279Y-59366844D01*
X85856282Y-59366848D01*
X85992151Y-59502717D01*
X85992155Y-59502720D01*
X86151927Y-59609477D01*
X86151928Y-59609477D01*
X86151929Y-59609478D01*
X86151931Y-59609479D01*
X86263073Y-59655515D01*
X86329457Y-59683012D01*
X86483817Y-59713716D01*
X86517917Y-59720499D01*
X86517920Y-59720500D01*
X86517922Y-59720500D01*
X86710080Y-59720500D01*
X86710081Y-59720499D01*
X86898543Y-59683012D01*
X86898550Y-59683008D01*
X86899439Y-59682740D01*
X86899935Y-59682735D01*
X86904518Y-59681824D01*
X86904690Y-59682692D01*
X86969306Y-59682110D01*
X87023126Y-59713716D01*
X92221016Y-64911606D01*
X92221045Y-64911637D01*
X92311264Y-65001856D01*
X92311267Y-65001858D01*
X92359157Y-65033857D01*
X92413715Y-65070312D01*
X92480396Y-65097931D01*
X92480398Y-65097933D01*
X92520640Y-65114601D01*
X92527548Y-65117463D01*
X92587971Y-65129481D01*
X92648393Y-65141500D01*
X92648394Y-65141500D01*
X93813812Y-65141500D01*
X93880851Y-65161185D01*
X93915387Y-65194377D01*
X94027954Y-65355141D01*
X94188857Y-65516044D01*
X94188860Y-65516046D01*
X94188861Y-65516047D01*
X94317623Y-65606206D01*
X94361248Y-65660781D01*
X94370500Y-65707780D01*
X94370500Y-70077046D01*
X94350815Y-70144085D01*
X94334180Y-70164728D01*
X94297500Y-70201407D01*
X94236176Y-70234892D01*
X94177731Y-70233501D01*
X94160754Y-70228952D01*
X94160741Y-70228950D01*
X93948002Y-70210338D01*
X93947998Y-70210338D01*
X93735258Y-70228950D01*
X93735247Y-70228952D01*
X93528977Y-70284221D01*
X93528968Y-70284225D01*
X93335421Y-70374477D01*
X93160478Y-70496972D01*
X93009472Y-70647978D01*
X92886977Y-70822921D01*
X92796725Y-71016468D01*
X92796721Y-71016477D01*
X92741452Y-71222747D01*
X92741450Y-71222758D01*
X92722838Y-71435498D01*
X92722838Y-71435501D01*
X92741450Y-71648241D01*
X92741452Y-71648252D01*
X92796721Y-71854522D01*
X92796723Y-71854526D01*
X92796724Y-71854530D01*
X92811858Y-71886985D01*
X92886977Y-72048078D01*
X92886978Y-72048080D01*
X92886979Y-72048081D01*
X92898861Y-72065050D01*
X93009472Y-72223021D01*
X93160478Y-72374027D01*
X93165010Y-72377200D01*
X93335419Y-72496521D01*
X93335421Y-72496522D01*
X93335420Y-72496522D01*
X93380775Y-72517671D01*
X93528970Y-72586776D01*
X93528983Y-72586779D01*
X93534064Y-72588630D01*
X93533390Y-72590478D01*
X93585680Y-72622357D01*
X93616204Y-72685207D01*
X93607903Y-72754582D01*
X93563413Y-72808456D01*
X93533904Y-72821932D01*
X93534236Y-72822842D01*
X93529140Y-72824697D01*
X93335671Y-72914912D01*
X93335669Y-72914913D01*
X93279969Y-72953915D01*
X93279968Y-72953915D01*
X93843085Y-73517031D01*
X93766587Y-73537529D01*
X93659413Y-73599406D01*
X93571906Y-73686913D01*
X93510029Y-73794087D01*
X93489531Y-73870584D01*
X92914619Y-73295672D01*
X92881134Y-73234349D01*
X92878300Y-73207991D01*
X92878300Y-72956196D01*
X92878300Y-72956194D01*
X92854263Y-72835348D01*
X92840452Y-72802007D01*
X92807112Y-72721514D01*
X92766451Y-72660662D01*
X92738658Y-72619067D01*
X92738656Y-72619064D01*
X92648437Y-72528845D01*
X92648406Y-72528816D01*
X90791818Y-70672228D01*
X90758333Y-70610905D01*
X90755499Y-70584547D01*
X90755499Y-69702129D01*
X90755498Y-69702123D01*
X90749091Y-69642516D01*
X90698797Y-69507671D01*
X90698793Y-69507664D01*
X90612547Y-69392455D01*
X90612544Y-69392452D01*
X90497335Y-69306206D01*
X90497328Y-69306202D01*
X90362482Y-69255908D01*
X90362483Y-69255908D01*
X90302883Y-69249501D01*
X90302881Y-69249500D01*
X90302873Y-69249500D01*
X90302864Y-69249500D01*
X89137129Y-69249500D01*
X89137123Y-69249501D01*
X89077515Y-69255909D01*
X88942617Y-69306222D01*
X88872926Y-69311206D01*
X88855952Y-69306222D01*
X88722380Y-69256403D01*
X88722372Y-69256401D01*
X88662844Y-69250000D01*
X88330000Y-69250000D01*
X88330000Y-71720000D01*
X88662828Y-71720000D01*
X88662844Y-71719999D01*
X88722372Y-71713598D01*
X88722376Y-71713597D01*
X88855951Y-71663776D01*
X88925642Y-71658792D01*
X88942619Y-71663776D01*
X88942665Y-71663793D01*
X88942669Y-71663796D01*
X89077517Y-71714091D01*
X89137127Y-71720500D01*
X90019547Y-71720499D01*
X90086586Y-71740183D01*
X90107228Y-71756818D01*
X90398229Y-72047819D01*
X90431714Y-72109142D01*
X90426730Y-72178834D01*
X90384858Y-72234767D01*
X90319394Y-72259184D01*
X90310548Y-72259500D01*
X89242129Y-72259500D01*
X89242123Y-72259501D01*
X89182516Y-72265908D01*
X89047671Y-72316202D01*
X89047664Y-72316206D01*
X88932455Y-72402452D01*
X88932452Y-72402455D01*
X88846206Y-72517664D01*
X88846202Y-72517671D01*
X88799361Y-72643260D01*
X88757490Y-72699194D01*
X88692025Y-72723611D01*
X88623752Y-72708759D01*
X88595498Y-72687608D01*
X87816626Y-71908736D01*
X87783141Y-71847413D01*
X87788125Y-71777721D01*
X87816626Y-71733374D01*
X87830000Y-71720000D01*
X87830000Y-69250000D01*
X87497155Y-69250000D01*
X87437627Y-69256401D01*
X87437619Y-69256403D01*
X87406833Y-69267886D01*
X87337141Y-69272870D01*
X87275818Y-69239385D01*
X87242334Y-69178061D01*
X87239500Y-69151704D01*
X87239500Y-68350427D01*
X87259185Y-68283388D01*
X87275814Y-68262750D01*
X87371720Y-68166845D01*
X87478477Y-68007073D01*
X87552012Y-67829543D01*
X87589500Y-67641078D01*
X87589500Y-67470000D01*
X87925000Y-67470000D01*
X87925000Y-67641033D01*
X87962466Y-67829389D01*
X87962468Y-67829397D01*
X88035964Y-68006833D01*
X88035969Y-68006842D01*
X88142667Y-68166526D01*
X88142670Y-68166530D01*
X88278469Y-68302329D01*
X88278473Y-68302332D01*
X88438157Y-68409030D01*
X88438167Y-68409035D01*
X88615599Y-68482530D01*
X88615606Y-68482533D01*
X88650000Y-68489373D01*
X88650000Y-67470000D01*
X89150000Y-67470000D01*
X89150000Y-68489372D01*
X89184393Y-68482533D01*
X89184400Y-68482530D01*
X89361832Y-68409035D01*
X89361842Y-68409030D01*
X89521526Y-68302332D01*
X89521530Y-68302329D01*
X89657329Y-68166530D01*
X89657332Y-68166526D01*
X89764030Y-68006842D01*
X89764035Y-68006833D01*
X89837531Y-67829397D01*
X89837533Y-67829389D01*
X89874999Y-67641033D01*
X89875000Y-67641030D01*
X89875000Y-67470000D01*
X89150000Y-67470000D01*
X88650000Y-67470000D01*
X87925000Y-67470000D01*
X87589500Y-67470000D01*
X87589500Y-66970000D01*
X87925000Y-66970000D01*
X88650000Y-66970000D01*
X88650000Y-65950625D01*
X89150000Y-65950625D01*
X89150000Y-66970000D01*
X89875000Y-66970000D01*
X89875000Y-66798970D01*
X89874999Y-66798966D01*
X89837533Y-66610610D01*
X89837531Y-66610602D01*
X89764035Y-66433166D01*
X89764030Y-66433157D01*
X89657332Y-66273473D01*
X89657329Y-66273469D01*
X89521530Y-66137670D01*
X89521526Y-66137667D01*
X89361842Y-66030969D01*
X89361833Y-66030964D01*
X89184397Y-65957468D01*
X89184389Y-65957466D01*
X89150000Y-65950625D01*
X88650000Y-65950625D01*
X88615610Y-65957466D01*
X88615602Y-65957468D01*
X88438166Y-66030964D01*
X88438157Y-66030969D01*
X88278473Y-66137667D01*
X88278469Y-66137670D01*
X88142670Y-66273469D01*
X88142667Y-66273473D01*
X88035969Y-66433157D01*
X88035964Y-66433166D01*
X87962468Y-66610602D01*
X87962466Y-66610610D01*
X87925000Y-66798966D01*
X87925000Y-66970000D01*
X87589500Y-66970000D01*
X87589500Y-66798922D01*
X87589500Y-66798919D01*
X87589499Y-66798917D01*
X87552042Y-66610610D01*
X87552012Y-66610457D01*
X87478576Y-66433166D01*
X87478479Y-66432931D01*
X87478478Y-66432929D01*
X87437059Y-66370942D01*
X87371720Y-66273155D01*
X87371717Y-66273151D01*
X87235848Y-66137282D01*
X87235844Y-66137279D01*
X87076070Y-66030521D01*
X87076068Y-66030520D01*
X86898547Y-65956989D01*
X86898535Y-65956986D01*
X86710081Y-65919500D01*
X86710078Y-65919500D01*
X86517922Y-65919500D01*
X86517919Y-65919500D01*
X86329464Y-65956986D01*
X86329452Y-65956989D01*
X86151931Y-66030520D01*
X86151929Y-66030521D01*
X85992155Y-66137279D01*
X85992151Y-66137282D01*
X85856282Y-66273151D01*
X85856279Y-66273155D01*
X85749521Y-66432929D01*
X85749520Y-66432931D01*
X85675989Y-66610452D01*
X85675986Y-66610464D01*
X85638500Y-66798917D01*
X85638500Y-67641082D01*
X85675986Y-67829535D01*
X85675989Y-67829547D01*
X85749520Y-68007068D01*
X85749521Y-68007070D01*
X85856278Y-68166843D01*
X85856279Y-68166844D01*
X85856280Y-68166845D01*
X85952182Y-68262747D01*
X85985666Y-68324068D01*
X85988500Y-68350427D01*
X85988500Y-71652311D01*
X86012535Y-71773144D01*
X86012540Y-71773161D01*
X86059685Y-71886981D01*
X86059687Y-71886985D01*
X86082655Y-71921357D01*
X86082656Y-71921359D01*
X86128141Y-71989432D01*
X86128144Y-71989436D01*
X86190083Y-72051375D01*
X86223568Y-72112698D01*
X86218584Y-72182390D01*
X86176712Y-72238323D01*
X86115657Y-72262345D01*
X86082520Y-72265907D01*
X85947671Y-72316202D01*
X85947664Y-72316206D01*
X85832455Y-72402452D01*
X85832452Y-72402455D01*
X85746206Y-72517664D01*
X85746202Y-72517671D01*
X85695908Y-72652517D01*
X85689501Y-72712116D01*
X85689500Y-72712135D01*
X85689500Y-74607870D01*
X85689501Y-74607876D01*
X85695908Y-74667483D01*
X85746202Y-74802328D01*
X85746206Y-74802335D01*
X85832452Y-74917544D01*
X85832455Y-74917547D01*
X85947664Y-75003793D01*
X85947671Y-75003797D01*
X86082517Y-75054091D01*
X86082516Y-75054091D01*
X86089444Y-75054835D01*
X86142127Y-75060500D01*
X87287872Y-75060499D01*
X87347483Y-75054091D01*
X87482331Y-75003796D01*
X87525207Y-74971699D01*
X87569068Y-74938865D01*
X87634532Y-74914447D01*
X87702805Y-74929298D01*
X87731060Y-74950450D01*
X88143428Y-75362819D01*
X88176913Y-75424142D01*
X88171929Y-75493834D01*
X88130057Y-75549767D01*
X88064593Y-75574184D01*
X88055747Y-75574500D01*
X84835954Y-75574500D01*
X84768915Y-75554815D01*
X84759842Y-75547504D01*
X84759645Y-75547768D01*
X84637335Y-75456206D01*
X84637328Y-75456202D01*
X84502482Y-75405908D01*
X84502483Y-75405908D01*
X84442883Y-75399501D01*
X84442881Y-75399500D01*
X84442873Y-75399500D01*
X84442865Y-75399500D01*
X83904451Y-75399500D01*
X83837412Y-75379815D01*
X83791657Y-75327011D01*
X83781713Y-75257853D01*
X83810738Y-75194297D01*
X83816770Y-75187819D01*
X83867771Y-75136818D01*
X83929094Y-75103333D01*
X83955452Y-75100499D01*
X84442871Y-75100499D01*
X84442872Y-75100499D01*
X84502483Y-75094091D01*
X84637331Y-75043796D01*
X84752546Y-74957546D01*
X84838796Y-74842331D01*
X84889091Y-74707483D01*
X84895500Y-74647873D01*
X84895499Y-73952128D01*
X84889091Y-73892517D01*
X84838796Y-73757669D01*
X84838795Y-73757668D01*
X84838793Y-73757664D01*
X84752547Y-73642455D01*
X84752544Y-73642452D01*
X84637335Y-73556206D01*
X84637329Y-73556203D01*
X84526166Y-73514741D01*
X84470233Y-73472869D01*
X84445816Y-73407405D01*
X84445500Y-73398559D01*
X84445500Y-69788395D01*
X84445500Y-69788394D01*
X84439163Y-69756537D01*
X84421463Y-69667549D01*
X84421460Y-69667543D01*
X84421459Y-69667538D01*
X84374314Y-69553718D01*
X84374312Y-69553715D01*
X84374312Y-69553714D01*
X84340084Y-69502490D01*
X84305858Y-69451267D01*
X84305856Y-69451264D01*
X84215637Y-69361045D01*
X84215606Y-69361016D01*
X81840819Y-66986229D01*
X81807334Y-66924906D01*
X81804500Y-66898548D01*
X81804500Y-66379790D01*
X81824185Y-66312751D01*
X81876989Y-66266996D01*
X81885146Y-66263616D01*
X81946331Y-66240796D01*
X82061546Y-66154546D01*
X82147796Y-66039331D01*
X82198091Y-65904483D01*
X82204500Y-65844873D01*
X82204499Y-63949128D01*
X82198091Y-63889517D01*
X82147796Y-63754669D01*
X82147795Y-63754668D01*
X82147793Y-63754664D01*
X82061547Y-63639455D01*
X82061544Y-63639452D01*
X81946335Y-63553206D01*
X81946328Y-63553202D01*
X81811482Y-63502908D01*
X81811483Y-63502908D01*
X81751883Y-63496501D01*
X81751881Y-63496500D01*
X81751873Y-63496500D01*
X81751865Y-63496500D01*
X81039500Y-63496500D01*
X80972461Y-63476815D01*
X80926706Y-63424011D01*
X80915500Y-63372500D01*
X80915500Y-63119000D01*
X80935185Y-63051961D01*
X80987989Y-63006206D01*
X81039500Y-62995000D01*
X81310000Y-62995000D01*
X81310000Y-61845000D01*
X81810000Y-61845000D01*
X81810000Y-62995000D01*
X82132828Y-62995000D01*
X82132844Y-62994999D01*
X82192372Y-62988598D01*
X82192379Y-62988596D01*
X82327086Y-62938354D01*
X82327093Y-62938350D01*
X82442187Y-62852190D01*
X82442190Y-62852187D01*
X82528350Y-62737093D01*
X82528354Y-62737086D01*
X82578596Y-62602379D01*
X82578598Y-62602372D01*
X82584999Y-62542844D01*
X82585000Y-62542827D01*
X82585000Y-61845000D01*
X81810000Y-61845000D01*
X81310000Y-61845000D01*
X81310000Y-60195000D01*
X81810000Y-60195000D01*
X81810000Y-61345000D01*
X82585000Y-61345000D01*
X82585000Y-60647172D01*
X82584999Y-60647155D01*
X82578598Y-60587627D01*
X82578596Y-60587620D01*
X82528354Y-60452913D01*
X82528350Y-60452906D01*
X82442190Y-60337812D01*
X82442187Y-60337809D01*
X82327093Y-60251649D01*
X82327086Y-60251645D01*
X82192379Y-60201403D01*
X82192372Y-60201401D01*
X82132844Y-60195000D01*
X81810000Y-60195000D01*
X81310000Y-60195000D01*
X81254951Y-60195000D01*
X81187912Y-60175315D01*
X81142157Y-60122511D01*
X81132213Y-60053353D01*
X81161238Y-59989797D01*
X81167260Y-59983329D01*
X81702371Y-59448217D01*
X81763694Y-59414733D01*
X81790052Y-59411899D01*
X82672471Y-59411899D01*
X82672472Y-59411899D01*
X82732083Y-59405491D01*
X82866931Y-59355196D01*
X82982146Y-59268946D01*
X83068396Y-59153731D01*
X83118691Y-59018883D01*
X83125100Y-58959273D01*
X83125099Y-57793528D01*
X83118691Y-57733917D01*
X83068396Y-57599069D01*
X83068393Y-57599065D01*
X83068376Y-57599019D01*
X83063392Y-57529327D01*
X83068376Y-57512351D01*
X83118197Y-57378776D01*
X83118198Y-57378772D01*
X83124599Y-57319244D01*
X83124600Y-57319227D01*
X83124600Y-56986400D01*
X80654600Y-56986400D01*
X80654600Y-57319244D01*
X80661001Y-57378772D01*
X80661003Y-57378780D01*
X80710822Y-57512352D01*
X80715806Y-57582044D01*
X80710822Y-57599017D01*
X80660509Y-57733914D01*
X80660508Y-57733916D01*
X80654101Y-57793516D01*
X80654101Y-57793523D01*
X80654100Y-57793535D01*
X80654100Y-58675947D01*
X80634415Y-58742986D01*
X80617781Y-58763628D01*
X80393380Y-58988028D01*
X80332057Y-59021513D01*
X80262365Y-59016529D01*
X80218018Y-58988028D01*
X78991198Y-57761208D01*
X78991178Y-57761186D01*
X78899735Y-57669743D01*
X78878379Y-57655473D01*
X78836241Y-57627318D01*
X78836242Y-57627318D01*
X78836240Y-57627316D01*
X78796863Y-57601005D01*
X78752058Y-57547392D01*
X78743352Y-57478067D01*
X78773508Y-57415040D01*
X78790269Y-57399528D01*
X78811123Y-57383526D01*
X78907300Y-57258186D01*
X78967755Y-57112231D01*
X78975212Y-57055600D01*
X77657200Y-57055600D01*
X77590161Y-57035915D01*
X77544406Y-56983111D01*
X77533200Y-56931600D01*
X77533200Y-56155600D01*
X77933200Y-56155600D01*
X77933200Y-56655600D01*
X78975210Y-56655600D01*
X78975211Y-56655598D01*
X78967757Y-56598972D01*
X78967755Y-56598966D01*
X78921129Y-56486400D01*
X80654600Y-56486400D01*
X81639600Y-56486400D01*
X81639600Y-55701400D01*
X82139600Y-55701400D01*
X82139600Y-56486400D01*
X83124600Y-56486400D01*
X83124600Y-56153572D01*
X83124599Y-56153555D01*
X83118198Y-56094027D01*
X83118196Y-56094020D01*
X83067954Y-55959313D01*
X83067950Y-55959306D01*
X82981790Y-55844212D01*
X82981787Y-55844209D01*
X82866693Y-55758049D01*
X82866686Y-55758045D01*
X82731979Y-55707803D01*
X82731972Y-55707801D01*
X82672444Y-55701400D01*
X82139600Y-55701400D01*
X81639600Y-55701400D01*
X81106755Y-55701400D01*
X81047227Y-55707801D01*
X81047220Y-55707803D01*
X80912513Y-55758045D01*
X80912506Y-55758049D01*
X80797412Y-55844209D01*
X80797409Y-55844212D01*
X80711249Y-55959306D01*
X80711245Y-55959313D01*
X80661003Y-56094020D01*
X80661001Y-56094027D01*
X80654600Y-56153555D01*
X80654600Y-56486400D01*
X78921129Y-56486400D01*
X78907300Y-56453014D01*
X78811124Y-56327675D01*
X78685786Y-56231499D01*
X78539834Y-56171045D01*
X78539830Y-56171044D01*
X78422530Y-56155600D01*
X77933200Y-56155600D01*
X77533200Y-56155600D01*
X77043882Y-56155600D01*
X76961417Y-56166456D01*
X76892382Y-56155688D01*
X76840127Y-56109307D01*
X76821243Y-56042038D01*
X76841725Y-55975238D01*
X76857548Y-55955841D01*
X78714789Y-54098600D01*
X81505600Y-54098600D01*
X81505600Y-54421444D01*
X81512001Y-54480972D01*
X81512003Y-54480979D01*
X81562245Y-54615686D01*
X81562249Y-54615693D01*
X81648409Y-54730787D01*
X81648412Y-54730790D01*
X81763506Y-54816950D01*
X81763513Y-54816954D01*
X81898220Y-54867196D01*
X81898227Y-54867198D01*
X81957755Y-54873599D01*
X81957772Y-54873600D01*
X82655600Y-54873600D01*
X82655600Y-54098600D01*
X83155600Y-54098600D01*
X83155600Y-54873600D01*
X83853428Y-54873600D01*
X83853444Y-54873599D01*
X83912972Y-54867198D01*
X83912979Y-54867196D01*
X84047686Y-54816954D01*
X84047693Y-54816950D01*
X84162787Y-54730790D01*
X84162790Y-54730787D01*
X84248950Y-54615693D01*
X84248954Y-54615686D01*
X84299196Y-54480979D01*
X84299198Y-54480972D01*
X84305599Y-54421444D01*
X84305600Y-54421427D01*
X84305600Y-54098600D01*
X83155600Y-54098600D01*
X82655600Y-54098600D01*
X81505600Y-54098600D01*
X78714789Y-54098600D01*
X79214789Y-53598600D01*
X81505600Y-53598600D01*
X82655600Y-53598600D01*
X82655600Y-52823600D01*
X81957755Y-52823600D01*
X81898227Y-52830001D01*
X81898220Y-52830003D01*
X81763513Y-52880245D01*
X81763506Y-52880249D01*
X81648412Y-52966409D01*
X81648409Y-52966412D01*
X81562249Y-53081506D01*
X81562245Y-53081513D01*
X81512003Y-53216220D01*
X81512001Y-53216227D01*
X81505600Y-53275755D01*
X81505600Y-53598600D01*
X79214789Y-53598600D01*
X81353559Y-51459830D01*
X81414880Y-51426347D01*
X81484572Y-51431331D01*
G37*
%TD.AperFunction*%
%TA.AperFunction,Conductor*%
G36*
X98839121Y-48006020D02*
G01*
X98973109Y-48008409D01*
X98988528Y-48009650D01*
X99254897Y-48047948D01*
X99272184Y-48051708D01*
X99529313Y-48127209D01*
X99545887Y-48133391D01*
X99655159Y-48183293D01*
X99789659Y-48244717D01*
X99805173Y-48253188D01*
X100030628Y-48398080D01*
X100044787Y-48408679D01*
X100247317Y-48584172D01*
X100259827Y-48596682D01*
X100435320Y-48799212D01*
X100445921Y-48813374D01*
X100590808Y-49038821D01*
X100599284Y-49054345D01*
X100710608Y-49298112D01*
X100716791Y-49314688D01*
X100792290Y-49571814D01*
X100796051Y-49589102D01*
X100834348Y-49855463D01*
X100835590Y-49870898D01*
X100837980Y-50004877D01*
X100838000Y-50007089D01*
X100838000Y-82834910D01*
X100837980Y-82837122D01*
X100835590Y-82971101D01*
X100834348Y-82986536D01*
X100796051Y-83252897D01*
X100792290Y-83270185D01*
X100716791Y-83527311D01*
X100710608Y-83543887D01*
X100599284Y-83787654D01*
X100590805Y-83803183D01*
X100445922Y-84028624D01*
X100435320Y-84042787D01*
X100259827Y-84245317D01*
X100247317Y-84257827D01*
X100044787Y-84433320D01*
X100030624Y-84443922D01*
X99805183Y-84588805D01*
X99789654Y-84597284D01*
X99545887Y-84708608D01*
X99529311Y-84714791D01*
X99272185Y-84790290D01*
X99254897Y-84794051D01*
X98988536Y-84832348D01*
X98973101Y-84833590D01*
X98842818Y-84835914D01*
X98839120Y-84835980D01*
X98836910Y-84836000D01*
X69800290Y-84836000D01*
X69798079Y-84835980D01*
X69794215Y-84835911D01*
X69664098Y-84833590D01*
X69648663Y-84832348D01*
X69382302Y-84794051D01*
X69365014Y-84790290D01*
X69107888Y-84714791D01*
X69091312Y-84708608D01*
X68847545Y-84597284D01*
X68832021Y-84588808D01*
X68606574Y-84443921D01*
X68592412Y-84433320D01*
X68389882Y-84257827D01*
X68377372Y-84245317D01*
X68201879Y-84042787D01*
X68191277Y-84028624D01*
X68046388Y-83803173D01*
X68037915Y-83787654D01*
X67926591Y-83543887D01*
X67920408Y-83527311D01*
X67871396Y-83360393D01*
X67844908Y-83270184D01*
X67841148Y-83252897D01*
X67831436Y-83185347D01*
X67802850Y-82986528D01*
X67801609Y-82971109D01*
X67799219Y-82837086D01*
X67799200Y-82834943D01*
X67802328Y-77372400D01*
X70712800Y-77372400D01*
X71497800Y-77372400D01*
X71497800Y-76387400D01*
X71164955Y-76387400D01*
X71105427Y-76393801D01*
X71105420Y-76393803D01*
X70970713Y-76444045D01*
X70970706Y-76444049D01*
X70855612Y-76530209D01*
X70855609Y-76530212D01*
X70769449Y-76645306D01*
X70769445Y-76645313D01*
X70719203Y-76780020D01*
X70719201Y-76780027D01*
X70712800Y-76839555D01*
X70712800Y-77372400D01*
X67802328Y-77372400D01*
X67804267Y-73986200D01*
X69366600Y-73986200D01*
X69366600Y-74519044D01*
X69373001Y-74578572D01*
X69373003Y-74578579D01*
X69423245Y-74713286D01*
X69423249Y-74713293D01*
X69509409Y-74828387D01*
X69509412Y-74828390D01*
X69624506Y-74914550D01*
X69624513Y-74914554D01*
X69759220Y-74964796D01*
X69759227Y-74964798D01*
X69818755Y-74971199D01*
X69818772Y-74971200D01*
X70151600Y-74971200D01*
X70151600Y-73986200D01*
X69366600Y-73986200D01*
X67804267Y-73986200D01*
X67804553Y-73486200D01*
X69366600Y-73486200D01*
X70151600Y-73486200D01*
X70151600Y-72501200D01*
X69818755Y-72501200D01*
X69759227Y-72507601D01*
X69759220Y-72507603D01*
X69624513Y-72557845D01*
X69624506Y-72557849D01*
X69509412Y-72644009D01*
X69509409Y-72644012D01*
X69423249Y-72759106D01*
X69423245Y-72759113D01*
X69373003Y-72893820D01*
X69373001Y-72893827D01*
X69366600Y-72953355D01*
X69366600Y-73486200D01*
X67804553Y-73486200D01*
X67806318Y-70404800D01*
X68799000Y-70404800D01*
X68799000Y-71102644D01*
X68805401Y-71162172D01*
X68805403Y-71162179D01*
X68855645Y-71296886D01*
X68855649Y-71296893D01*
X68941809Y-71411987D01*
X68941812Y-71411990D01*
X69056906Y-71498150D01*
X69056913Y-71498154D01*
X69191620Y-71548396D01*
X69191627Y-71548398D01*
X69251155Y-71554799D01*
X69251172Y-71554800D01*
X69574000Y-71554800D01*
X69574000Y-70404800D01*
X68799000Y-70404800D01*
X67806318Y-70404800D01*
X67806604Y-69904800D01*
X68799000Y-69904800D01*
X69574000Y-69904800D01*
X69574000Y-68754800D01*
X69251155Y-68754800D01*
X69191627Y-68761201D01*
X69191620Y-68761203D01*
X69056913Y-68811445D01*
X69056906Y-68811449D01*
X68941812Y-68897609D01*
X68941809Y-68897612D01*
X68855649Y-69012706D01*
X68855645Y-69012713D01*
X68805403Y-69147420D01*
X68805401Y-69147427D01*
X68799000Y-69206955D01*
X68799000Y-69904800D01*
X67806604Y-69904800D01*
X67807838Y-67749870D01*
X68874700Y-67749870D01*
X68874701Y-67749876D01*
X68881108Y-67809483D01*
X68931402Y-67944328D01*
X68931406Y-67944335D01*
X69017652Y-68059544D01*
X69017655Y-68059547D01*
X69132864Y-68145793D01*
X69132871Y-68145797D01*
X69267717Y-68196091D01*
X69267716Y-68196091D01*
X69274644Y-68196835D01*
X69327327Y-68202500D01*
X70364747Y-68202499D01*
X70431786Y-68222183D01*
X70452428Y-68238818D01*
X70712181Y-68498571D01*
X70745666Y-68559894D01*
X70748500Y-68586252D01*
X70748500Y-68691563D01*
X70728815Y-68758602D01*
X70676011Y-68804357D01*
X70606853Y-68814301D01*
X70581168Y-68807745D01*
X70456382Y-68761203D01*
X70456372Y-68761201D01*
X70396844Y-68754800D01*
X70074000Y-68754800D01*
X70074000Y-71554800D01*
X70396828Y-71554800D01*
X70396844Y-71554799D01*
X70456372Y-71548398D01*
X70456379Y-71548396D01*
X70581167Y-71501854D01*
X70650858Y-71496870D01*
X70712182Y-71530355D01*
X70745666Y-71591678D01*
X70748500Y-71618036D01*
X70748500Y-72377200D01*
X70728815Y-72444239D01*
X70676011Y-72489994D01*
X70659134Y-72493665D01*
X70651600Y-72501200D01*
X70651600Y-74971200D01*
X70984428Y-74971200D01*
X70984444Y-74971199D01*
X71043972Y-74964798D01*
X71043976Y-74964797D01*
X71177551Y-74914976D01*
X71247242Y-74909992D01*
X71264219Y-74914976D01*
X71264265Y-74914993D01*
X71264269Y-74914996D01*
X71399117Y-74965291D01*
X71458727Y-74971700D01*
X72341146Y-74971699D01*
X72408185Y-74991383D01*
X72428827Y-75008018D01*
X73596028Y-76175219D01*
X73629513Y-76236542D01*
X73624529Y-76306234D01*
X73582657Y-76362167D01*
X73517193Y-76386584D01*
X73508347Y-76386900D01*
X72804929Y-76386900D01*
X72804923Y-76386901D01*
X72745315Y-76393309D01*
X72610417Y-76443622D01*
X72540726Y-76448606D01*
X72523752Y-76443622D01*
X72390180Y-76393803D01*
X72390172Y-76393801D01*
X72330644Y-76387400D01*
X71997800Y-76387400D01*
X71997800Y-77748400D01*
X71978115Y-77815439D01*
X71925311Y-77861194D01*
X71873800Y-77872400D01*
X70712800Y-77872400D01*
X70712800Y-78405244D01*
X70719201Y-78464772D01*
X70719203Y-78464779D01*
X70769445Y-78599486D01*
X70769449Y-78599493D01*
X70855609Y-78714587D01*
X70855612Y-78714590D01*
X70943530Y-78780406D01*
X70985401Y-78836340D01*
X70990385Y-78906031D01*
X70956899Y-78967354D01*
X70912553Y-78995854D01*
X70769433Y-79049235D01*
X70518290Y-79186370D01*
X70518282Y-79186375D01*
X70289212Y-79357854D01*
X70289194Y-79357870D01*
X70086870Y-79560194D01*
X70086854Y-79560212D01*
X69915375Y-79789282D01*
X69915370Y-79789290D01*
X69778235Y-80040433D01*
X69678228Y-80308562D01*
X69617404Y-80588166D01*
X69596990Y-80873598D01*
X69596990Y-80873601D01*
X69617404Y-81159033D01*
X69678228Y-81438637D01*
X69678230Y-81438643D01*
X69678231Y-81438646D01*
X69774246Y-81696071D01*
X69778235Y-81706766D01*
X69915370Y-81957909D01*
X69915375Y-81957917D01*
X70086854Y-82186987D01*
X70086870Y-82187005D01*
X70289194Y-82389329D01*
X70289212Y-82389345D01*
X70518282Y-82560824D01*
X70518290Y-82560829D01*
X70769433Y-82697964D01*
X70769432Y-82697964D01*
X70769436Y-82697965D01*
X70769439Y-82697967D01*
X71037554Y-82797969D01*
X71037560Y-82797970D01*
X71037562Y-82797971D01*
X71317166Y-82858795D01*
X71317168Y-82858795D01*
X71317172Y-82858796D01*
X71553020Y-82875664D01*
X71602599Y-82879210D01*
X71602600Y-82879210D01*
X71602601Y-82879210D01*
X71652054Y-82875673D01*
X71888028Y-82858796D01*
X71997831Y-82834910D01*
X72167637Y-82797971D01*
X72167637Y-82797970D01*
X72167646Y-82797969D01*
X72435761Y-82697967D01*
X72686915Y-82560826D01*
X72915995Y-82389339D01*
X72962534Y-82342800D01*
X73887800Y-82342800D01*
X73887800Y-82875644D01*
X73894201Y-82935172D01*
X73894203Y-82935179D01*
X73944445Y-83069886D01*
X73944449Y-83069893D01*
X74030609Y-83184987D01*
X74030612Y-83184990D01*
X74145706Y-83271150D01*
X74145713Y-83271154D01*
X74280420Y-83321396D01*
X74280427Y-83321398D01*
X74339955Y-83327799D01*
X74339972Y-83327800D01*
X74672800Y-83327800D01*
X74672800Y-82342800D01*
X73887800Y-82342800D01*
X72962534Y-82342800D01*
X73118339Y-82186995D01*
X73289826Y-81957915D01*
X73352684Y-81842800D01*
X73887800Y-81842800D01*
X74672800Y-81842800D01*
X74672800Y-80857800D01*
X74339955Y-80857800D01*
X74280427Y-80864201D01*
X74280420Y-80864203D01*
X74145713Y-80914445D01*
X74145706Y-80914449D01*
X74030612Y-81000609D01*
X74030609Y-81000612D01*
X73944449Y-81115706D01*
X73944445Y-81115713D01*
X73894203Y-81250420D01*
X73894201Y-81250427D01*
X73887800Y-81309955D01*
X73887800Y-81842800D01*
X73352684Y-81842800D01*
X73426967Y-81706761D01*
X73526969Y-81438646D01*
X73537987Y-81387996D01*
X73587795Y-81159033D01*
X73587795Y-81159032D01*
X73587796Y-81159028D01*
X73608210Y-80873600D01*
X73587796Y-80588172D01*
X73585116Y-80575854D01*
X73526971Y-80308562D01*
X73526970Y-80308560D01*
X73526969Y-80308554D01*
X73426967Y-80040439D01*
X73316187Y-79837562D01*
X73289829Y-79789290D01*
X73289824Y-79789282D01*
X73118345Y-79560212D01*
X73118329Y-79560194D01*
X72916005Y-79357870D01*
X72915987Y-79357854D01*
X72686917Y-79186375D01*
X72686909Y-79186370D01*
X72439868Y-79051475D01*
X72390463Y-79002070D01*
X72375611Y-78933797D01*
X72400028Y-78868332D01*
X72455960Y-78826462D01*
X72523750Y-78801177D01*
X72593442Y-78796192D01*
X72610419Y-78801176D01*
X72610465Y-78801193D01*
X72610469Y-78801196D01*
X72745317Y-78851491D01*
X72804927Y-78857900D01*
X73970672Y-78857899D01*
X74030283Y-78851491D01*
X74165131Y-78801196D01*
X74280346Y-78714946D01*
X74366596Y-78599731D01*
X74416891Y-78464883D01*
X74420433Y-78431939D01*
X74422852Y-78409444D01*
X74449590Y-78344893D01*
X74506983Y-78305045D01*
X74546141Y-78298700D01*
X76025220Y-78298700D01*
X76092259Y-78318385D01*
X76100707Y-78324325D01*
X76124880Y-78342874D01*
X76166083Y-78399302D01*
X76170237Y-78469048D01*
X76148443Y-78513412D01*
X76149326Y-78514002D01*
X76077490Y-78621508D01*
X76077489Y-78621510D01*
X76058343Y-78667731D01*
X76058344Y-78667732D01*
X76058344Y-78667733D01*
X76038788Y-78714947D01*
X76030337Y-78735349D01*
X76030335Y-78735356D01*
X76006300Y-78856189D01*
X76006300Y-79023020D01*
X75996861Y-79070472D01*
X75946757Y-79191434D01*
X75946755Y-79191439D01*
X75931300Y-79308838D01*
X75931300Y-79837563D01*
X75946753Y-79954953D01*
X75946756Y-79954962D01*
X75996860Y-80075925D01*
X76007264Y-80101041D01*
X76103518Y-80226482D01*
X76228959Y-80322736D01*
X76375038Y-80383244D01*
X76492439Y-80398700D01*
X76771160Y-80398699D01*
X76771161Y-80398699D01*
X76787249Y-80396581D01*
X76888562Y-80383244D01*
X76909998Y-80374364D01*
X76979465Y-80366893D01*
X77004905Y-80374363D01*
X77025167Y-80382755D01*
X77025165Y-80382755D01*
X77096717Y-80392175D01*
X77160613Y-80420441D01*
X77199085Y-80478765D01*
X77199917Y-80548630D01*
X77168213Y-80602795D01*
X76950027Y-80820981D01*
X76888704Y-80854466D01*
X76862346Y-80857300D01*
X75979929Y-80857300D01*
X75979923Y-80857301D01*
X75920315Y-80863709D01*
X75785417Y-80914022D01*
X75715726Y-80919006D01*
X75698752Y-80914022D01*
X75565180Y-80864203D01*
X75565172Y-80864201D01*
X75505644Y-80857800D01*
X75172800Y-80857800D01*
X75172800Y-83327800D01*
X75505628Y-83327800D01*
X75505644Y-83327799D01*
X75565172Y-83321398D01*
X75565176Y-83321397D01*
X75698751Y-83271576D01*
X75768442Y-83266592D01*
X75785419Y-83271576D01*
X75785465Y-83271593D01*
X75785469Y-83271596D01*
X75920317Y-83321891D01*
X75979927Y-83328300D01*
X77145672Y-83328299D01*
X77205283Y-83321891D01*
X77340131Y-83271596D01*
X77455346Y-83185346D01*
X77541596Y-83070131D01*
X77591891Y-82935283D01*
X77598300Y-82875673D01*
X77598299Y-81993251D01*
X77617983Y-81926213D01*
X77634613Y-81905576D01*
X77844119Y-81696071D01*
X77905442Y-81662586D01*
X77975134Y-81667570D01*
X78019481Y-81696071D01*
X78236381Y-81912971D01*
X78269866Y-81974294D01*
X78272700Y-82000652D01*
X78272700Y-82964470D01*
X78272701Y-82964476D01*
X78279108Y-83024083D01*
X78329402Y-83158928D01*
X78329406Y-83158935D01*
X78415652Y-83274144D01*
X78415655Y-83274147D01*
X78530864Y-83360393D01*
X78530871Y-83360397D01*
X78665717Y-83410691D01*
X78665716Y-83410691D01*
X78672644Y-83411435D01*
X78725327Y-83417100D01*
X79762746Y-83417099D01*
X79829785Y-83436783D01*
X79850427Y-83453418D01*
X80209341Y-83812332D01*
X80209342Y-83812333D01*
X80282227Y-83885218D01*
X80296468Y-83899459D01*
X80398907Y-83967907D01*
X80398911Y-83967909D01*
X80398914Y-83967911D01*
X80512748Y-84015063D01*
X80573171Y-84027081D01*
X80633593Y-84039100D01*
X92466207Y-84039100D01*
X92526629Y-84027081D01*
X92587052Y-84015063D01*
X92587055Y-84015061D01*
X92587058Y-84015061D01*
X92620387Y-84001254D01*
X92620386Y-84001254D01*
X92620392Y-84001252D01*
X92700886Y-83967912D01*
X92752109Y-83933684D01*
X92803333Y-83899458D01*
X92817573Y-83885218D01*
X92878896Y-83851733D01*
X92905254Y-83848899D01*
X93942671Y-83848899D01*
X93942672Y-83848899D01*
X94002283Y-83842491D01*
X94137131Y-83792196D01*
X94252346Y-83705946D01*
X94338596Y-83590731D01*
X94388891Y-83455883D01*
X94395300Y-83396273D01*
X94395299Y-81500528D01*
X94388891Y-81440917D01*
X94372784Y-81397733D01*
X94338597Y-81306071D01*
X94338593Y-81306064D01*
X94252347Y-81190855D01*
X94252344Y-81190852D01*
X94137135Y-81104606D01*
X94137128Y-81104602D01*
X94002282Y-81054308D01*
X94002283Y-81054308D01*
X93942683Y-81047901D01*
X93942681Y-81047900D01*
X93942673Y-81047900D01*
X93942664Y-81047900D01*
X92796929Y-81047900D01*
X92796923Y-81047901D01*
X92737316Y-81054308D01*
X92602471Y-81104602D01*
X92602464Y-81104606D01*
X92487255Y-81190852D01*
X92487252Y-81190855D01*
X92401006Y-81306064D01*
X92401002Y-81306071D01*
X92350708Y-81440917D01*
X92344301Y-81500516D01*
X92344301Y-81500523D01*
X92344300Y-81500535D01*
X92344300Y-82537947D01*
X92324615Y-82604986D01*
X92307985Y-82625623D01*
X92181827Y-82751782D01*
X92120507Y-82785266D01*
X92094148Y-82788100D01*
X83547200Y-82788100D01*
X83480161Y-82768415D01*
X83434406Y-82715611D01*
X83423200Y-82664100D01*
X83423200Y-82266600D01*
X81373200Y-82266600D01*
X81373200Y-82664100D01*
X81353515Y-82731139D01*
X81300711Y-82776894D01*
X81249200Y-82788100D01*
X81005653Y-82788100D01*
X80938614Y-82768415D01*
X80917972Y-82751781D01*
X80360018Y-82193827D01*
X80326533Y-82132504D01*
X80323699Y-82106146D01*
X80323699Y-81068729D01*
X80323698Y-81068723D01*
X80317291Y-81009116D01*
X80316141Y-81006033D01*
X80315957Y-81003472D01*
X80315508Y-81001569D01*
X80315816Y-81001496D01*
X80311157Y-80936341D01*
X80344642Y-80875018D01*
X80405966Y-80841534D01*
X80432323Y-80838700D01*
X81264610Y-80838700D01*
X81331649Y-80858385D01*
X81377404Y-80911189D01*
X81387348Y-80980347D01*
X81380792Y-81006034D01*
X81379602Y-81009223D01*
X81379601Y-81009227D01*
X81373200Y-81068755D01*
X81373200Y-81766600D01*
X83423200Y-81766600D01*
X83423200Y-81068772D01*
X83423199Y-81068755D01*
X83416798Y-81009227D01*
X83416797Y-81009223D01*
X83415608Y-81006034D01*
X83415418Y-81003387D01*
X83415013Y-81001670D01*
X83415291Y-81001604D01*
X83410624Y-80936342D01*
X83444109Y-80875019D01*
X83505432Y-80841534D01*
X83531790Y-80838700D01*
X83864548Y-80838700D01*
X83931587Y-80858385D01*
X83952229Y-80875019D01*
X83983381Y-80906171D01*
X84016866Y-80967494D01*
X84019700Y-80993852D01*
X84019700Y-82031270D01*
X84019701Y-82031276D01*
X84026108Y-82090883D01*
X84076402Y-82225728D01*
X84076406Y-82225735D01*
X84162652Y-82340944D01*
X84162655Y-82340947D01*
X84277864Y-82427193D01*
X84277871Y-82427197D01*
X84412717Y-82477491D01*
X84412716Y-82477491D01*
X84419644Y-82478235D01*
X84472327Y-82483900D01*
X86368072Y-82483899D01*
X86427683Y-82477491D01*
X86562531Y-82427196D01*
X86677746Y-82340946D01*
X86763996Y-82225731D01*
X86770086Y-82209402D01*
X86786809Y-82164567D01*
X86828680Y-82108633D01*
X86894144Y-82084216D01*
X86902991Y-82083900D01*
X87202807Y-82083900D01*
X87263229Y-82071881D01*
X87323652Y-82059863D01*
X87323655Y-82059861D01*
X87323658Y-82059861D01*
X87356987Y-82046054D01*
X87356986Y-82046054D01*
X87356992Y-82046052D01*
X87437486Y-82012712D01*
X87500732Y-81970451D01*
X87539933Y-81944258D01*
X87627058Y-81857133D01*
X87627059Y-81857131D01*
X87634125Y-81850065D01*
X87634128Y-81850061D01*
X88052971Y-81431218D01*
X88114294Y-81397733D01*
X88140652Y-81394899D01*
X88628071Y-81394899D01*
X88628072Y-81394899D01*
X88687683Y-81388491D01*
X88711863Y-81379471D01*
X88781553Y-81374485D01*
X88798529Y-81379469D01*
X88822717Y-81388491D01*
X88882327Y-81394900D01*
X89578072Y-81394899D01*
X89637683Y-81388491D01*
X89662580Y-81379204D01*
X89732270Y-81374219D01*
X89749249Y-81379205D01*
X89772819Y-81387996D01*
X89772827Y-81387998D01*
X89832355Y-81394399D01*
X89832372Y-81394400D01*
X89930200Y-81394400D01*
X89930200Y-81236506D01*
X89949885Y-81169467D01*
X89954934Y-81162194D01*
X89973996Y-81136731D01*
X89974088Y-81136486D01*
X90021593Y-81009116D01*
X90024291Y-81001883D01*
X90030700Y-80942273D01*
X90030700Y-80569400D01*
X90430200Y-80569400D01*
X90430200Y-81394400D01*
X90528028Y-81394400D01*
X90528044Y-81394399D01*
X90587572Y-81387998D01*
X90587579Y-81387996D01*
X90722286Y-81337754D01*
X90722293Y-81337750D01*
X90837387Y-81251590D01*
X90837390Y-81251587D01*
X90923550Y-81136493D01*
X90923554Y-81136486D01*
X90973796Y-81001779D01*
X90973798Y-81001772D01*
X90980199Y-80942244D01*
X90980200Y-80942227D01*
X90980200Y-80569400D01*
X90430200Y-80569400D01*
X90030700Y-80569400D01*
X90030699Y-79696528D01*
X90024291Y-79636917D01*
X90017009Y-79617394D01*
X89973997Y-79502071D01*
X89973995Y-79502068D01*
X89954933Y-79476604D01*
X89930516Y-79411139D01*
X89930200Y-79402293D01*
X89930200Y-79244400D01*
X90430200Y-79244400D01*
X90430200Y-80069400D01*
X90980200Y-80069400D01*
X90980200Y-79696572D01*
X90980199Y-79696555D01*
X90973798Y-79637027D01*
X90973796Y-79637020D01*
X90923554Y-79502313D01*
X90923550Y-79502306D01*
X90837390Y-79387212D01*
X90837387Y-79387209D01*
X90722293Y-79301049D01*
X90722286Y-79301045D01*
X90587579Y-79250803D01*
X90587572Y-79250801D01*
X90528044Y-79244400D01*
X90430200Y-79244400D01*
X89930200Y-79244400D01*
X89893881Y-79208081D01*
X89896220Y-79205741D01*
X89866906Y-79171911D01*
X89855700Y-79120400D01*
X89855700Y-78918899D01*
X89875385Y-78851860D01*
X89928189Y-78806105D01*
X89979700Y-78794899D01*
X90528071Y-78794899D01*
X90528072Y-78794899D01*
X90587683Y-78788491D01*
X90722531Y-78738196D01*
X90837746Y-78651946D01*
X90923996Y-78536731D01*
X90974291Y-78401883D01*
X90980700Y-78342273D01*
X90980699Y-77497113D01*
X91000383Y-77430075D01*
X91053187Y-77384320D01*
X91122346Y-77374376D01*
X91130474Y-77375823D01*
X91269154Y-77405300D01*
X91269155Y-77405300D01*
X91458444Y-77405300D01*
X91458446Y-77405300D01*
X91643603Y-77365944D01*
X91816530Y-77288951D01*
X91969671Y-77177688D01*
X91969674Y-77177683D01*
X91974506Y-77173335D01*
X91976424Y-77175465D01*
X92025224Y-77145387D01*
X92057914Y-77141000D01*
X92831474Y-77141000D01*
X92898513Y-77160685D01*
X92933049Y-77193877D01*
X93009471Y-77303020D01*
X93160478Y-77454027D01*
X93160481Y-77454029D01*
X93269623Y-77530450D01*
X93313248Y-77585026D01*
X93322500Y-77632025D01*
X93322500Y-79277006D01*
X93344349Y-79386854D01*
X93344350Y-79386858D01*
X93344349Y-79386858D01*
X93346536Y-79397849D01*
X93346536Y-79397851D01*
X93393685Y-79511680D01*
X93393686Y-79511682D01*
X93393688Y-79511686D01*
X93409952Y-79536027D01*
X93426106Y-79560203D01*
X93426108Y-79560205D01*
X93462141Y-79614132D01*
X93462144Y-79614136D01*
X93553586Y-79705578D01*
X93553608Y-79705598D01*
X95407981Y-81559971D01*
X95441466Y-81621294D01*
X95444300Y-81647652D01*
X95444300Y-83396270D01*
X95444301Y-83396276D01*
X95450708Y-83455883D01*
X95501002Y-83590728D01*
X95501006Y-83590735D01*
X95587252Y-83705944D01*
X95587255Y-83705947D01*
X95702464Y-83792193D01*
X95702471Y-83792197D01*
X95837317Y-83842491D01*
X95837316Y-83842491D01*
X95844244Y-83843235D01*
X95896927Y-83848900D01*
X97042672Y-83848899D01*
X97102283Y-83842491D01*
X97237131Y-83792196D01*
X97352346Y-83705946D01*
X97438596Y-83590731D01*
X97488891Y-83455883D01*
X97495300Y-83396273D01*
X97495299Y-81500528D01*
X97488891Y-81440917D01*
X97472784Y-81397733D01*
X97438597Y-81306071D01*
X97438593Y-81306064D01*
X97352347Y-81190855D01*
X97352344Y-81190852D01*
X97237135Y-81104606D01*
X97237128Y-81104602D01*
X97102282Y-81054308D01*
X97102283Y-81054308D01*
X97042683Y-81047901D01*
X97042681Y-81047900D01*
X97042673Y-81047900D01*
X97042665Y-81047900D01*
X96716452Y-81047900D01*
X96649413Y-81028215D01*
X96628771Y-81011581D01*
X94609819Y-78992629D01*
X94576334Y-78931306D01*
X94573500Y-78904948D01*
X94573500Y-77632025D01*
X94593185Y-77564986D01*
X94626375Y-77530451D01*
X94735519Y-77454029D01*
X94886529Y-77303019D01*
X95009021Y-77128081D01*
X95099276Y-76934530D01*
X95154549Y-76728247D01*
X95173162Y-76515500D01*
X95154549Y-76302753D01*
X95099276Y-76096470D01*
X95009021Y-75902919D01*
X94886529Y-75727981D01*
X94886527Y-75727978D01*
X94735521Y-75576972D01*
X94563047Y-75456206D01*
X94560581Y-75454479D01*
X94560580Y-75454478D01*
X94560578Y-75454477D01*
X94560579Y-75454477D01*
X94431547Y-75394309D01*
X94367030Y-75364224D01*
X94367023Y-75364222D01*
X94361936Y-75362370D01*
X94362606Y-75360528D01*
X94310293Y-75328614D01*
X94279789Y-75265755D01*
X94288111Y-75196383D01*
X94332617Y-75142522D01*
X94362097Y-75129074D01*
X94361764Y-75128158D01*
X94366864Y-75126301D01*
X94560325Y-75036089D01*
X94616030Y-74997083D01*
X94052915Y-74433968D01*
X94129413Y-74413471D01*
X94236587Y-74351594D01*
X94324094Y-74264087D01*
X94385971Y-74156913D01*
X94406468Y-74080415D01*
X94969583Y-74643529D01*
X95008589Y-74587825D01*
X95098801Y-74394364D01*
X95098805Y-74394353D01*
X95154054Y-74188162D01*
X95154055Y-74188154D01*
X95172660Y-73975502D01*
X95172660Y-73975497D01*
X95154055Y-73762845D01*
X95154054Y-73762837D01*
X95098805Y-73556646D01*
X95098802Y-73556640D01*
X95008586Y-73363169D01*
X95008582Y-73363163D01*
X94969584Y-73307468D01*
X94406468Y-73870584D01*
X94385971Y-73794087D01*
X94324094Y-73686913D01*
X94236587Y-73599406D01*
X94129413Y-73537529D01*
X94052914Y-73517031D01*
X94616030Y-72953915D01*
X94560329Y-72914913D01*
X94366859Y-72824697D01*
X94361764Y-72822842D01*
X94362455Y-72820943D01*
X94310325Y-72789167D01*
X94279797Y-72726320D01*
X94288093Y-72656944D01*
X94332579Y-72603067D01*
X94362257Y-72589514D01*
X94361936Y-72588630D01*
X94367013Y-72586780D01*
X94367030Y-72586776D01*
X94560581Y-72496521D01*
X94735519Y-72374029D01*
X94886529Y-72223019D01*
X95009021Y-72048081D01*
X95009022Y-72048078D01*
X95009023Y-72048078D01*
X95057459Y-71944206D01*
X95099276Y-71854530D01*
X95154549Y-71648247D01*
X95170815Y-71462328D01*
X95173162Y-71435501D01*
X95173162Y-71435498D01*
X95164519Y-71336713D01*
X95154549Y-71222753D01*
X95149999Y-71205772D01*
X95151660Y-71135924D01*
X95182090Y-71085998D01*
X95394729Y-70873360D01*
X95394733Y-70873358D01*
X95481858Y-70786233D01*
X95550311Y-70683786D01*
X95550312Y-70683785D01*
X95597463Y-70569951D01*
X95621500Y-70449107D01*
X95621500Y-70325893D01*
X95621500Y-65752357D01*
X95641185Y-65685318D01*
X95677209Y-65650977D01*
X95676297Y-65649674D01*
X95680730Y-65646569D01*
X95680734Y-65646568D01*
X95693967Y-65637301D01*
X95760170Y-65614975D01*
X95827937Y-65631984D01*
X95864356Y-65664567D01*
X95870806Y-65673184D01*
X95870814Y-65673191D01*
X95985906Y-65759350D01*
X95985913Y-65759354D01*
X96120620Y-65809596D01*
X96120627Y-65809598D01*
X96180155Y-65815999D01*
X96180172Y-65816000D01*
X96778000Y-65816000D01*
X96778000Y-64831686D01*
X96782394Y-64836080D01*
X96873606Y-64888741D01*
X96975339Y-64916000D01*
X97080661Y-64916000D01*
X97182394Y-64888741D01*
X97273606Y-64836080D01*
X97278000Y-64831686D01*
X97278000Y-65816000D01*
X97875828Y-65816000D01*
X97875844Y-65815999D01*
X97935372Y-65809598D01*
X97935379Y-65809596D01*
X98070086Y-65759354D01*
X98070093Y-65759350D01*
X98185187Y-65673190D01*
X98185190Y-65673187D01*
X98271350Y-65558093D01*
X98271354Y-65558086D01*
X98321596Y-65423379D01*
X98321598Y-65423372D01*
X98327999Y-65363844D01*
X98328000Y-65363827D01*
X98328000Y-64766000D01*
X97343686Y-64766000D01*
X97348080Y-64761606D01*
X97400741Y-64670394D01*
X97428000Y-64568661D01*
X97428000Y-64463339D01*
X97400741Y-64361606D01*
X97348080Y-64270394D01*
X97343686Y-64266000D01*
X98328000Y-64266000D01*
X98328000Y-63668172D01*
X98327999Y-63668155D01*
X98321598Y-63608627D01*
X98321596Y-63608620D01*
X98271354Y-63473913D01*
X98271350Y-63473906D01*
X98185190Y-63358812D01*
X98185187Y-63358809D01*
X98070093Y-63272649D01*
X98070086Y-63272645D01*
X97935379Y-63222403D01*
X97935372Y-63222401D01*
X97875844Y-63216000D01*
X97278000Y-63216000D01*
X97278000Y-64200314D01*
X97273606Y-64195920D01*
X97182394Y-64143259D01*
X97080661Y-64116000D01*
X96975339Y-64116000D01*
X96873606Y-64143259D01*
X96782394Y-64195920D01*
X96778000Y-64200314D01*
X96778000Y-63216000D01*
X96180155Y-63216000D01*
X96120627Y-63222401D01*
X96120620Y-63222403D01*
X95985913Y-63272645D01*
X95985906Y-63272649D01*
X95870814Y-63358808D01*
X95870806Y-63358816D01*
X95864354Y-63367435D01*
X95808419Y-63409305D01*
X95738728Y-63414288D01*
X95693968Y-63394698D01*
X95676301Y-63382328D01*
X95677449Y-63380688D01*
X95635277Y-63336448D01*
X95621500Y-63279642D01*
X95621500Y-61524452D01*
X95641185Y-61457413D01*
X95657819Y-61436771D01*
X95749590Y-61345000D01*
X96133756Y-60960833D01*
X96195077Y-60927350D01*
X96253527Y-60928740D01*
X96299409Y-60941035D01*
X96456974Y-60954820D01*
X96519998Y-60960334D01*
X96520000Y-60960334D01*
X96520002Y-60960334D01*
X96575147Y-60955509D01*
X96740591Y-60941035D01*
X96954480Y-60883723D01*
X97155167Y-60790142D01*
X97336555Y-60663132D01*
X97493132Y-60506555D01*
X97620142Y-60325167D01*
X97713723Y-60124480D01*
X97771035Y-59910591D01*
X97790334Y-59690000D01*
X97789722Y-59683010D01*
X97771035Y-59469414D01*
X97771035Y-59469409D01*
X97713723Y-59255520D01*
X97620142Y-59054833D01*
X97493132Y-58873445D01*
X97336555Y-58716868D01*
X97227595Y-58640573D01*
X97183973Y-58585998D01*
X97176780Y-58516499D01*
X97208302Y-58454145D01*
X97268532Y-58418731D01*
X97298721Y-58415000D01*
X97332828Y-58415000D01*
X97332844Y-58414999D01*
X97392372Y-58408598D01*
X97392379Y-58408596D01*
X97527086Y-58358354D01*
X97527093Y-58358350D01*
X97642187Y-58272190D01*
X97642190Y-58272187D01*
X97728350Y-58157093D01*
X97728354Y-58157086D01*
X97778596Y-58022379D01*
X97778598Y-58022372D01*
X97784999Y-57962844D01*
X97785000Y-57962827D01*
X97785000Y-57400000D01*
X96964560Y-57400000D01*
X96995245Y-57346853D01*
X97030000Y-57217143D01*
X97030000Y-57082857D01*
X96995245Y-56953147D01*
X96964560Y-56900000D01*
X97785000Y-56900000D01*
X97785000Y-56337172D01*
X97784999Y-56337155D01*
X97778598Y-56277627D01*
X97778596Y-56277620D01*
X97728354Y-56142913D01*
X97728350Y-56142906D01*
X97642190Y-56027812D01*
X97642187Y-56027809D01*
X97527093Y-55941649D01*
X97527086Y-55941645D01*
X97392379Y-55891403D01*
X97392372Y-55891401D01*
X97332844Y-55885000D01*
X96770000Y-55885000D01*
X96770000Y-56705439D01*
X96716853Y-56674755D01*
X96587143Y-56640000D01*
X96452857Y-56640000D01*
X96323147Y-56674755D01*
X96270000Y-56705439D01*
X96270000Y-55885000D01*
X95707155Y-55885000D01*
X95647627Y-55891401D01*
X95647620Y-55891403D01*
X95512913Y-55941645D01*
X95512906Y-55941649D01*
X95397812Y-56027809D01*
X95397809Y-56027812D01*
X95311649Y-56142906D01*
X95311645Y-56142913D01*
X95261403Y-56277620D01*
X95261401Y-56277627D01*
X95255000Y-56337155D01*
X95255000Y-56900000D01*
X96075440Y-56900000D01*
X96044755Y-56953147D01*
X96010000Y-57082857D01*
X96010000Y-57217143D01*
X96044755Y-57346853D01*
X96075440Y-57400000D01*
X95255000Y-57400000D01*
X95255000Y-57962844D01*
X95261401Y-58022372D01*
X95261403Y-58022379D01*
X95311645Y-58157086D01*
X95311649Y-58157093D01*
X95397809Y-58272187D01*
X95397812Y-58272190D01*
X95512906Y-58358350D01*
X95512913Y-58358354D01*
X95647620Y-58408596D01*
X95647627Y-58408598D01*
X95707155Y-58414999D01*
X95707172Y-58415000D01*
X95741279Y-58415000D01*
X95808318Y-58434685D01*
X95854073Y-58487489D01*
X95864017Y-58556647D01*
X95834992Y-58620203D01*
X95812406Y-58640572D01*
X95771399Y-58669286D01*
X95703444Y-58716868D01*
X95546868Y-58873444D01*
X95419857Y-59054834D01*
X95419856Y-59054836D01*
X95326279Y-59255513D01*
X95326275Y-59255524D01*
X95268965Y-59469407D01*
X95268964Y-59469414D01*
X95249666Y-59689998D01*
X95249666Y-59690001D01*
X95268964Y-59910585D01*
X95268966Y-59910596D01*
X95281258Y-59956469D01*
X95279595Y-60026318D01*
X95249164Y-60076243D01*
X94597269Y-60728140D01*
X94510144Y-60815264D01*
X94510138Y-60815272D01*
X94475914Y-60866489D01*
X94475915Y-60866490D01*
X94441691Y-60917708D01*
X94441689Y-60917712D01*
X94441688Y-60917714D01*
X94424035Y-60960334D01*
X94394538Y-61031545D01*
X94394535Y-61031555D01*
X94370500Y-61152389D01*
X94370500Y-63324218D01*
X94350815Y-63391257D01*
X94317623Y-63425793D01*
X94188859Y-63515953D01*
X94027954Y-63676858D01*
X93915387Y-63837623D01*
X93860811Y-63881248D01*
X93813812Y-63890500D01*
X93020452Y-63890500D01*
X92953413Y-63870815D01*
X92932771Y-63854181D01*
X88995812Y-59917222D01*
X88962327Y-59855899D01*
X88967311Y-59786207D01*
X89009183Y-59730274D01*
X89059302Y-59707924D01*
X89065163Y-59706758D01*
X89184543Y-59683012D01*
X89362073Y-59609477D01*
X89521845Y-59502720D01*
X89657720Y-59366845D01*
X89764477Y-59207073D01*
X89838012Y-59029543D01*
X89875500Y-58841078D01*
X89875500Y-57998922D01*
X89875500Y-57998919D01*
X89875499Y-57998917D01*
X89851457Y-57878050D01*
X89838012Y-57810457D01*
X89826701Y-57783150D01*
X89764479Y-57632931D01*
X89764478Y-57632929D01*
X89760727Y-57627316D01*
X89657720Y-57473155D01*
X89657717Y-57473151D01*
X89561819Y-57377253D01*
X89528334Y-57315930D01*
X89525500Y-57289572D01*
X89525500Y-54094499D01*
X89545185Y-54027460D01*
X89597989Y-53981705D01*
X89649500Y-53970499D01*
X89712871Y-53970499D01*
X89712872Y-53970499D01*
X89772483Y-53964091D01*
X89907331Y-53913796D01*
X90022546Y-53827546D01*
X90108796Y-53712331D01*
X90159091Y-53577483D01*
X90165500Y-53517873D01*
X90165499Y-51892128D01*
X90162776Y-51866801D01*
X94260390Y-51866801D01*
X94280804Y-52152233D01*
X94341628Y-52431837D01*
X94341630Y-52431843D01*
X94341631Y-52431846D01*
X94412333Y-52621405D01*
X94441635Y-52699966D01*
X94578770Y-52951109D01*
X94578775Y-52951117D01*
X94750254Y-53180187D01*
X94750270Y-53180205D01*
X94952594Y-53382529D01*
X94952612Y-53382545D01*
X95181682Y-53554024D01*
X95181690Y-53554029D01*
X95432833Y-53691164D01*
X95432832Y-53691164D01*
X95432836Y-53691165D01*
X95432839Y-53691167D01*
X95700954Y-53791169D01*
X95700960Y-53791170D01*
X95700962Y-53791171D01*
X95980566Y-53851995D01*
X95980568Y-53851995D01*
X95980572Y-53851996D01*
X96234220Y-53870137D01*
X96265999Y-53872410D01*
X96266000Y-53872410D01*
X96266001Y-53872410D01*
X96294595Y-53870364D01*
X96551428Y-53851996D01*
X96663833Y-53827544D01*
X96831037Y-53791171D01*
X96831037Y-53791170D01*
X96831046Y-53791169D01*
X97099161Y-53691167D01*
X97350315Y-53554026D01*
X97579395Y-53382539D01*
X97781739Y-53180195D01*
X97953226Y-52951115D01*
X98090367Y-52699961D01*
X98190369Y-52431846D01*
X98251196Y-52152228D01*
X98271610Y-51866800D01*
X98251196Y-51581372D01*
X98236960Y-51515931D01*
X98190371Y-51301762D01*
X98190370Y-51301760D01*
X98190369Y-51301754D01*
X98090367Y-51033639D01*
X97953226Y-50782485D01*
X97953224Y-50782482D01*
X97781745Y-50553412D01*
X97781729Y-50553394D01*
X97579405Y-50351070D01*
X97579387Y-50351054D01*
X97350317Y-50179575D01*
X97350309Y-50179570D01*
X97099166Y-50042435D01*
X97099167Y-50042435D01*
X96970948Y-49994612D01*
X96831046Y-49942431D01*
X96831043Y-49942430D01*
X96831037Y-49942428D01*
X96551433Y-49881604D01*
X96266001Y-49861190D01*
X96265999Y-49861190D01*
X95980566Y-49881604D01*
X95700962Y-49942428D01*
X95432833Y-50042435D01*
X95181690Y-50179570D01*
X95181682Y-50179575D01*
X94952612Y-50351054D01*
X94952594Y-50351070D01*
X94750270Y-50553394D01*
X94750254Y-50553412D01*
X94578775Y-50782482D01*
X94578770Y-50782490D01*
X94441635Y-51033633D01*
X94341628Y-51301762D01*
X94280804Y-51581366D01*
X94260390Y-51866798D01*
X94260390Y-51866801D01*
X90162776Y-51866801D01*
X90159091Y-51832517D01*
X90144644Y-51793783D01*
X90108797Y-51697671D01*
X90108793Y-51697664D01*
X90022547Y-51582455D01*
X90022544Y-51582452D01*
X89907335Y-51496206D01*
X89907328Y-51496202D01*
X89772482Y-51445908D01*
X89772483Y-51445908D01*
X89712883Y-51439501D01*
X89712881Y-51439500D01*
X89712873Y-51439500D01*
X89712864Y-51439500D01*
X88087129Y-51439500D01*
X88087123Y-51439501D01*
X88027516Y-51445908D01*
X87892671Y-51496202D01*
X87892664Y-51496206D01*
X87777455Y-51582452D01*
X87777452Y-51582455D01*
X87691206Y-51697664D01*
X87691202Y-51697671D01*
X87640908Y-51832517D01*
X87634896Y-51888441D01*
X87634501Y-51892123D01*
X87634500Y-51892135D01*
X87634500Y-51925564D01*
X87614815Y-51992603D01*
X87562011Y-52038358D01*
X87492853Y-52048302D01*
X87429297Y-52019277D01*
X87408926Y-51996688D01*
X87333137Y-51888452D01*
X87333136Y-51888451D01*
X87333132Y-51888445D01*
X87176555Y-51731868D01*
X86995167Y-51604858D01*
X86970666Y-51593433D01*
X86794486Y-51511279D01*
X86794475Y-51511275D01*
X86580592Y-51453965D01*
X86580585Y-51453964D01*
X86360002Y-51434666D01*
X86359998Y-51434666D01*
X86139414Y-51453964D01*
X86139407Y-51453965D01*
X85925524Y-51511275D01*
X85925513Y-51511279D01*
X85724836Y-51604856D01*
X85724834Y-51604857D01*
X85543444Y-51731868D01*
X85386868Y-51888444D01*
X85332791Y-51965673D01*
X85290112Y-52026625D01*
X85235537Y-52070249D01*
X85188539Y-52079500D01*
X85172453Y-52079500D01*
X85105414Y-52059815D01*
X85084772Y-52043181D01*
X84342418Y-51300827D01*
X84308933Y-51239504D01*
X84306099Y-51213146D01*
X84306099Y-50175729D01*
X84306098Y-50175723D01*
X84303025Y-50147137D01*
X84299691Y-50116117D01*
X84272209Y-50042435D01*
X84249397Y-49981271D01*
X84249393Y-49981264D01*
X84163147Y-49866055D01*
X84163144Y-49866052D01*
X84047935Y-49779806D01*
X84047928Y-49779802D01*
X83913082Y-49729508D01*
X83913083Y-49729508D01*
X83853483Y-49723101D01*
X83853481Y-49723100D01*
X83853473Y-49723100D01*
X83853464Y-49723100D01*
X81957729Y-49723100D01*
X81957723Y-49723101D01*
X81898116Y-49729508D01*
X81763271Y-49779802D01*
X81763264Y-49779806D01*
X81648055Y-49866052D01*
X81648052Y-49866055D01*
X81561806Y-49981264D01*
X81561802Y-49981271D01*
X81538991Y-50042433D01*
X81497120Y-50098367D01*
X81431656Y-50122784D01*
X81422809Y-50123100D01*
X81118589Y-50123100D01*
X81058171Y-50135118D01*
X81014943Y-50143716D01*
X80997746Y-50147137D01*
X80883916Y-50194287D01*
X80883907Y-50194292D01*
X80781468Y-50262740D01*
X80737905Y-50306303D01*
X80694342Y-50349867D01*
X80694339Y-50349870D01*
X74925427Y-56118781D01*
X74864104Y-56152266D01*
X74837746Y-56155100D01*
X74383836Y-56155100D01*
X74266446Y-56170553D01*
X74266437Y-56170556D01*
X74120360Y-56231063D01*
X73994918Y-56327318D01*
X73898663Y-56452760D01*
X73838156Y-56598837D01*
X73838155Y-56598839D01*
X73822700Y-56716238D01*
X73822700Y-56994963D01*
X73838153Y-57112353D01*
X73838157Y-57112365D01*
X73846766Y-57133150D01*
X73854233Y-57202619D01*
X73846766Y-57228050D01*
X73838157Y-57248834D01*
X73838155Y-57248839D01*
X73822700Y-57366238D01*
X73822700Y-57644963D01*
X73838153Y-57762353D01*
X73838157Y-57762365D01*
X73846766Y-57783150D01*
X73854233Y-57852619D01*
X73846766Y-57878050D01*
X73838157Y-57898834D01*
X73838155Y-57898839D01*
X73822700Y-58016238D01*
X73822700Y-58294963D01*
X73838153Y-58412353D01*
X73838156Y-58412362D01*
X73847402Y-58434685D01*
X73898664Y-58558441D01*
X73994918Y-58683882D01*
X74120359Y-58780136D01*
X74266438Y-58840644D01*
X74383839Y-58856100D01*
X74836547Y-58856099D01*
X74903586Y-58875783D01*
X74924228Y-58892418D01*
X75792181Y-59760371D01*
X75825666Y-59821694D01*
X75828500Y-59848052D01*
X75828500Y-60163777D01*
X75808815Y-60230816D01*
X75756011Y-60276571D01*
X75686853Y-60286515D01*
X75623297Y-60257490D01*
X75605235Y-60238090D01*
X75590140Y-60217927D01*
X75584546Y-60210454D01*
X75584545Y-60210453D01*
X75584544Y-60210452D01*
X75469335Y-60124206D01*
X75469328Y-60124202D01*
X75334482Y-60073908D01*
X75334483Y-60073908D01*
X75274883Y-60067501D01*
X75274881Y-60067500D01*
X75274873Y-60067500D01*
X75274864Y-60067500D01*
X74129129Y-60067500D01*
X74129123Y-60067501D01*
X74069516Y-60073908D01*
X73934671Y-60124202D01*
X73934664Y-60124206D01*
X73819455Y-60210452D01*
X73819452Y-60210455D01*
X73733206Y-60325664D01*
X73733202Y-60325671D01*
X73682908Y-60460517D01*
X73676501Y-60520116D01*
X73676501Y-60520123D01*
X73676500Y-60520135D01*
X73676500Y-62415870D01*
X73676501Y-62415876D01*
X73682908Y-62475483D01*
X73733202Y-62610328D01*
X73733206Y-62610335D01*
X73819452Y-62725544D01*
X73819455Y-62725547D01*
X73934664Y-62811793D01*
X73934669Y-62811796D01*
X73995833Y-62834608D01*
X74051766Y-62876478D01*
X74076184Y-62941942D01*
X74076500Y-62950790D01*
X74076500Y-63977148D01*
X74056815Y-64044187D01*
X74004011Y-64089942D01*
X73934853Y-64099886D01*
X73871297Y-64070861D01*
X73864819Y-64064829D01*
X72578070Y-62778080D01*
X72544585Y-62716757D01*
X72549569Y-62647065D01*
X72566484Y-62616090D01*
X72570796Y-62610331D01*
X72621091Y-62475483D01*
X72627500Y-62415873D01*
X72627499Y-60520128D01*
X72621091Y-60460517D01*
X72618252Y-60452906D01*
X72570797Y-60325671D01*
X72570793Y-60325664D01*
X72484547Y-60210455D01*
X72484544Y-60210452D01*
X72369335Y-60124206D01*
X72369328Y-60124202D01*
X72234482Y-60073908D01*
X72234483Y-60073908D01*
X72174883Y-60067501D01*
X72174881Y-60067500D01*
X72174873Y-60067500D01*
X72174864Y-60067500D01*
X71029129Y-60067500D01*
X71029123Y-60067501D01*
X70969516Y-60073908D01*
X70834671Y-60124202D01*
X70834664Y-60124206D01*
X70719455Y-60210452D01*
X70719452Y-60210455D01*
X70633206Y-60325664D01*
X70633202Y-60325671D01*
X70582908Y-60460517D01*
X70576501Y-60520116D01*
X70576501Y-60520123D01*
X70576500Y-60520135D01*
X70576500Y-61557546D01*
X70556815Y-61624585D01*
X70540180Y-61645227D01*
X69425269Y-62760140D01*
X69425267Y-62760142D01*
X69393910Y-62791499D01*
X69338144Y-62847264D01*
X69338142Y-62847267D01*
X69323586Y-62869052D01*
X69323585Y-62869054D01*
X69323584Y-62869053D01*
X69269686Y-62949717D01*
X69269685Y-62949718D01*
X69242366Y-63015675D01*
X69236347Y-63030207D01*
X69230823Y-63043543D01*
X69222537Y-63063545D01*
X69222535Y-63063553D01*
X69198500Y-63184389D01*
X69198500Y-65348794D01*
X69178815Y-65415833D01*
X69139577Y-65452365D01*
X69139969Y-65452888D01*
X69135105Y-65456528D01*
X69133926Y-65457627D01*
X69132863Y-65458207D01*
X69017655Y-65544452D01*
X69017652Y-65544455D01*
X68931406Y-65659664D01*
X68931402Y-65659671D01*
X68881108Y-65794517D01*
X68875694Y-65844883D01*
X68874701Y-65854123D01*
X68874700Y-65854135D01*
X68874700Y-67749870D01*
X67807838Y-67749870D01*
X67817254Y-51308001D01*
X69622390Y-51308001D01*
X69642804Y-51593433D01*
X69703628Y-51873037D01*
X69703630Y-51873043D01*
X69703631Y-51873046D01*
X69777029Y-52069833D01*
X69803635Y-52141166D01*
X69940770Y-52392309D01*
X69940775Y-52392317D01*
X70112254Y-52621387D01*
X70112270Y-52621405D01*
X70314594Y-52823729D01*
X70314612Y-52823745D01*
X70543682Y-52995224D01*
X70543690Y-52995229D01*
X70794833Y-53132364D01*
X70794832Y-53132364D01*
X70794836Y-53132365D01*
X70794839Y-53132367D01*
X71062954Y-53232369D01*
X71062960Y-53232370D01*
X71062962Y-53232371D01*
X71342566Y-53293195D01*
X71342568Y-53293195D01*
X71342572Y-53293196D01*
X71596220Y-53311337D01*
X71627999Y-53313610D01*
X71628000Y-53313610D01*
X71628001Y-53313610D01*
X71656595Y-53311564D01*
X71913428Y-53293196D01*
X71993604Y-53275755D01*
X72193037Y-53232371D01*
X72193037Y-53232370D01*
X72193046Y-53232369D01*
X72461161Y-53132367D01*
X72712315Y-52995226D01*
X72941395Y-52823739D01*
X73143739Y-52621395D01*
X73315226Y-52392315D01*
X73452367Y-52141161D01*
X73552369Y-51873046D01*
X73586228Y-51717397D01*
X73613195Y-51593433D01*
X73613195Y-51593432D01*
X73613196Y-51593428D01*
X73633610Y-51308000D01*
X73630499Y-51264509D01*
X73626826Y-51213146D01*
X73613196Y-51022572D01*
X73560968Y-50782485D01*
X73552371Y-50742962D01*
X73552370Y-50742960D01*
X73552369Y-50742954D01*
X73452367Y-50474839D01*
X73384128Y-50349870D01*
X73315229Y-50223690D01*
X73315224Y-50223682D01*
X73143745Y-49994612D01*
X73143729Y-49994594D01*
X72941405Y-49792270D01*
X72941387Y-49792254D01*
X72712317Y-49620775D01*
X72712309Y-49620770D01*
X72461166Y-49483635D01*
X72461167Y-49483635D01*
X72353915Y-49443632D01*
X72193046Y-49383631D01*
X72193043Y-49383630D01*
X72193037Y-49383628D01*
X71913433Y-49322804D01*
X71628001Y-49302390D01*
X71627999Y-49302390D01*
X71342566Y-49322804D01*
X71062962Y-49383628D01*
X70794833Y-49483635D01*
X70543690Y-49620770D01*
X70543682Y-49620775D01*
X70314612Y-49792254D01*
X70314594Y-49792270D01*
X70112270Y-49994594D01*
X70112254Y-49994612D01*
X69940775Y-50223682D01*
X69940770Y-50223690D01*
X69803635Y-50474833D01*
X69703628Y-50742962D01*
X69642804Y-51022566D01*
X69622390Y-51307998D01*
X69622390Y-51308001D01*
X67817254Y-51308001D01*
X67817999Y-50007006D01*
X67818019Y-50004912D01*
X67818441Y-49981264D01*
X67820409Y-49870889D01*
X67821650Y-49855472D01*
X67859948Y-49589099D01*
X67863709Y-49571814D01*
X67889601Y-49483635D01*
X67939210Y-49314681D01*
X67945391Y-49298112D01*
X68056720Y-49054334D01*
X68065185Y-49038832D01*
X68210084Y-48813364D01*
X68220670Y-48799222D01*
X68396177Y-48596676D01*
X68408676Y-48584177D01*
X68611222Y-48408670D01*
X68625364Y-48398084D01*
X68850832Y-48253185D01*
X68866334Y-48244720D01*
X69110112Y-48133390D01*
X69126681Y-48127210D01*
X69383818Y-48051707D01*
X69401099Y-48047948D01*
X69667472Y-48009650D01*
X69682889Y-48008409D01*
X69816879Y-48006020D01*
X69819090Y-48006000D01*
X98836910Y-48006000D01*
X98839121Y-48006020D01*
G37*
%TD.AperFunction*%
%TD*%
M02*
