%TF.GenerationSoftware,KiCad,Pcbnew,8.0.0*%
%TF.CreationDate,2024-04-17T18:01:50+02:00*%
%TF.ProjectId,TSAL,5453414c-2e6b-4696-9361-645f70636258,V2.0*%
%TF.SameCoordinates,Original*%
%TF.FileFunction,Drillmap*%
%TF.FilePolarity,Positive*%
%FSLAX45Y45*%
G04 Gerber Fmt 4.5, Leading zero omitted, Abs format (unit mm)*
G04 Created by KiCad (PCBNEW 8.0.0) date 2024-04-17 18:01:50*
%MOMM*%
%LPD*%
G01*
G04 APERTURE LIST*
%ADD10C,0.100000*%
%ADD11C,0.200000*%
%ADD12C,0.102000*%
%ADD13C,0.107000*%
G04 APERTURE END LIST*
D10*
X9875000Y-7458333D02*
G75*
G02*
X9894998Y-7398332I100000J3D01*
G01*
X10767893Y-2625000D02*
G75*
G02*
X11121449Y-2771444I-3J-500020D01*
G01*
X14521447Y-2778553D02*
X14528553Y-2771447D01*
X14882107Y-8425000D02*
G75*
G02*
X14528555Y-8278552I3J500000D01*
G01*
X15655000Y-3651667D02*
X15620000Y-3698333D01*
X11482107Y-2925000D02*
G75*
G02*
X11128551Y-2778556I3J500020D01*
G01*
X9930000Y-3698333D02*
X9895000Y-3651667D01*
X9875000Y-8025000D02*
X9875000Y-7458333D01*
X15620000Y-7351667D02*
X15655000Y-7398333D01*
X10767893Y-8425000D02*
X10275000Y-8425000D01*
X10275000Y-8425000D02*
G75*
G02*
X9875000Y-8025000I0J400000D01*
G01*
X9895000Y-7398333D02*
X9930000Y-7351667D01*
X11121447Y-2771447D02*
X11128553Y-2778553D01*
X15600000Y-3758333D02*
G75*
G02*
X15620002Y-3698334I99980J3D01*
G01*
X10275000Y-2625000D02*
X10767893Y-2625000D01*
X15675000Y-8025000D02*
G75*
G02*
X15275000Y-8425000I-400000J0D01*
G01*
X14528553Y-8278553D02*
X14521447Y-8271447D01*
X11482107Y-2925000D02*
X14167893Y-2925000D01*
X15620000Y-7351667D02*
G75*
G02*
X15600000Y-7291667I80020J60007D01*
G01*
X15600000Y-3758333D02*
X15600000Y-7291667D01*
X9950000Y-7291667D02*
X9950000Y-3758333D01*
X11128553Y-8271447D02*
X11121447Y-8278553D01*
X15675000Y-3591667D02*
G75*
G02*
X15655002Y-3651668I-100000J-3D01*
G01*
X9875000Y-3591667D02*
X9875000Y-3025000D01*
X15675000Y-7458333D02*
X15675000Y-8025000D01*
X14882107Y-2625000D02*
X15275000Y-2625000D01*
X9895000Y-3651667D02*
G75*
G02*
X9875002Y-3591667I80000J59997D01*
G01*
X15675000Y-3025000D02*
X15675000Y-3591667D01*
X15275000Y-8425000D02*
X14882107Y-8425000D01*
X11121447Y-8278553D02*
G75*
G02*
X10767893Y-8424998I-353547J353543D01*
G01*
X14521447Y-2778553D02*
G75*
G02*
X14167893Y-2924998I-353547J353543D01*
G01*
X15655000Y-7398333D02*
G75*
G02*
X15674998Y-7458333I-80000J-59997D01*
G01*
X14167893Y-8125000D02*
G75*
G02*
X14521449Y-8271444I-3J-500020D01*
G01*
X11128553Y-8271447D02*
G75*
G02*
X11482107Y-8125002I353547J-353543D01*
G01*
X14167893Y-8125000D02*
X11482107Y-8125000D01*
X15275000Y-2625000D02*
G75*
G02*
X15675000Y-3025000I0J-400000D01*
G01*
X9950000Y-7291667D02*
G75*
G02*
X9930002Y-7351668I-100000J-3D01*
G01*
X14528553Y-2771447D02*
G75*
G02*
X14882107Y-2625002I353547J-353543D01*
G01*
X9930000Y-3698333D02*
G75*
G02*
X9949998Y-3758333I-80000J-59997D01*
G01*
X9875000Y-3025000D02*
G75*
G02*
X10275000Y-2625000I400000J0D01*
G01*
D11*
D10*
X10114600Y-5517200D02*
X10154600Y-5557200D01*
X10154600Y-5517200D02*
X10114600Y-5557200D01*
X10233710Y-3825695D02*
X10273710Y-3865695D01*
X10273710Y-3825695D02*
X10233710Y-3865695D01*
X10253550Y-4779000D02*
X10293550Y-4819000D01*
X10293550Y-4779000D02*
X10253550Y-4819000D01*
X10597200Y-6838000D02*
X10637200Y-6878000D01*
X10637200Y-6838000D02*
X10597200Y-6878000D01*
X10842250Y-5885500D02*
X10882250Y-5925500D01*
X10882250Y-5885500D02*
X10842250Y-5925500D01*
X10891840Y-6619560D02*
X10931840Y-6659560D01*
X10931840Y-6619560D02*
X10891840Y-6659560D01*
X10922950Y-3790000D02*
X10962950Y-3830000D01*
X10962950Y-3790000D02*
X10922950Y-3830000D01*
X10939468Y-4644943D02*
X10979468Y-4684943D01*
X10979468Y-4644943D02*
X10939468Y-4684943D01*
X10965500Y-4742500D02*
X11005500Y-4782500D01*
X11005500Y-4742500D02*
X10965500Y-4782500D01*
X11067100Y-5174300D02*
X11107100Y-5214300D01*
X11107100Y-5174300D02*
X11067100Y-5214300D01*
X11088736Y-5634618D02*
X11128736Y-5674618D01*
X11128736Y-5634618D02*
X11088736Y-5674618D01*
X11105200Y-6063300D02*
X11145200Y-6103300D01*
X11145200Y-6063300D02*
X11105200Y-6103300D01*
X11186032Y-5611737D02*
X11226032Y-5651737D01*
X11226032Y-5611737D02*
X11186032Y-5651737D01*
X11219500Y-6393500D02*
X11259500Y-6433500D01*
X11259500Y-6393500D02*
X11219500Y-6433500D01*
X11283000Y-7130100D02*
X11323000Y-7170100D01*
X11323000Y-7130100D02*
X11283000Y-7170100D01*
X11333800Y-7409500D02*
X11373800Y-7449500D01*
X11373800Y-7409500D02*
X11333800Y-7449500D01*
X11349595Y-4578945D02*
X11389595Y-4618945D01*
X11389595Y-4578945D02*
X11349595Y-4618945D01*
X11397300Y-7777800D02*
X11437300Y-7817800D01*
X11437300Y-7777800D02*
X11397300Y-7817800D01*
X11421050Y-4806000D02*
X11461050Y-4846000D01*
X11461050Y-4806000D02*
X11421050Y-4846000D01*
X11438100Y-5745284D02*
X11478100Y-5785284D01*
X11478100Y-5745284D02*
X11438100Y-5785284D01*
X11460800Y-5263200D02*
X11500800Y-5303200D01*
X11500800Y-5263200D02*
X11460800Y-5303200D01*
X11462234Y-6159806D02*
X11502234Y-6199806D01*
X11502234Y-6159806D02*
X11462234Y-6199806D01*
X11473500Y-5114550D02*
X11513500Y-5154550D01*
X11513500Y-5114550D02*
X11473500Y-5154550D01*
X11486200Y-6393500D02*
X11526200Y-6433500D01*
X11526200Y-6393500D02*
X11486200Y-6433500D01*
X11524300Y-6812600D02*
X11564300Y-6852600D01*
X11564300Y-6812600D02*
X11524300Y-6852600D01*
X11526960Y-6023704D02*
X11566960Y-6063704D01*
X11566960Y-6023704D02*
X11526960Y-6063704D01*
X11533250Y-5581550D02*
X11573250Y-5621550D01*
X11573250Y-5581550D02*
X11533250Y-5621550D01*
X11537000Y-7981000D02*
X11577000Y-8021000D01*
X11577000Y-7981000D02*
X11537000Y-8021000D01*
X11567670Y-4836500D02*
X11607670Y-4876500D01*
X11607670Y-4836500D02*
X11567670Y-4876500D01*
X11597960Y-7022000D02*
X11637960Y-7062000D01*
X11637960Y-7022000D02*
X11597960Y-7062000D01*
X11613200Y-3993200D02*
X11653200Y-4033200D01*
X11653200Y-3993200D02*
X11613200Y-4033200D01*
X11613200Y-6076000D02*
X11653200Y-6116000D01*
X11653200Y-6076000D02*
X11613200Y-6116000D01*
X11653050Y-5626550D02*
X11693050Y-5666550D01*
X11693050Y-5626550D02*
X11653050Y-5666550D01*
X11738003Y-4665457D02*
X11778003Y-4705457D01*
X11778003Y-4665457D02*
X11738003Y-4705457D01*
X11742165Y-4502948D02*
X11782165Y-4542948D01*
X11782165Y-4502948D02*
X11742165Y-4542948D01*
X11765950Y-5314000D02*
X11805950Y-5354000D01*
X11805950Y-5314000D02*
X11765950Y-5354000D01*
X11765950Y-5719644D02*
X11805950Y-5759644D01*
X11805950Y-5719644D02*
X11765950Y-5759644D01*
X11765950Y-6177600D02*
X11805950Y-6217600D01*
X11805950Y-6177600D02*
X11765950Y-6217600D01*
X11766794Y-7078703D02*
X11806794Y-7118703D01*
X11806794Y-7078703D02*
X11766794Y-7118703D01*
X11803700Y-7549200D02*
X11843700Y-7589200D01*
X11843700Y-7549200D02*
X11803700Y-7589200D01*
X11867200Y-4298000D02*
X11907200Y-4338000D01*
X11907200Y-4298000D02*
X11867200Y-4338000D01*
X11880990Y-4951400D02*
X11920990Y-4991400D01*
X11920990Y-4951400D02*
X11880990Y-4991400D01*
X11968800Y-4044000D02*
X12008800Y-4084000D01*
X12008800Y-4044000D02*
X11968800Y-4084000D01*
X11973287Y-5261319D02*
X12013287Y-5301319D01*
X12013287Y-5261319D02*
X11973287Y-5301319D01*
X12019600Y-5110800D02*
X12059600Y-5150800D01*
X12059600Y-5110800D02*
X12019600Y-5150800D01*
X12019600Y-6076000D02*
X12059600Y-6116000D01*
X12059600Y-6076000D02*
X12019600Y-6116000D01*
X12070400Y-5618800D02*
X12110400Y-5658800D01*
X12110400Y-5618800D02*
X12070400Y-5658800D01*
X12083100Y-6533200D02*
X12123100Y-6573200D01*
X12123100Y-6533200D02*
X12083100Y-6573200D01*
X12086450Y-4717100D02*
X12126450Y-4757100D01*
X12126450Y-4717100D02*
X12086450Y-4757100D01*
X12095800Y-4539300D02*
X12135800Y-4579300D01*
X12135800Y-4539300D02*
X12095800Y-4579300D01*
X12121200Y-4043950D02*
X12161200Y-4083950D01*
X12161200Y-4043950D02*
X12121200Y-4083950D01*
X12121200Y-7688900D02*
X12161200Y-7728900D01*
X12161200Y-7688900D02*
X12121200Y-7728900D01*
X12134330Y-7256670D02*
X12174330Y-7296670D01*
X12174330Y-7256670D02*
X12134330Y-7296670D01*
X12146600Y-4806000D02*
X12186600Y-4846000D01*
X12186600Y-4806000D02*
X12146600Y-4846000D01*
X12146600Y-5110800D02*
X12186600Y-5150800D01*
X12186600Y-5110800D02*
X12146600Y-5150800D01*
X12222800Y-4044000D02*
X12262800Y-4084000D01*
X12262800Y-4044000D02*
X12222800Y-4084000D01*
X12227442Y-7302164D02*
X12267442Y-7342164D01*
X12267442Y-7302164D02*
X12227442Y-7342164D01*
X12375200Y-4552000D02*
X12415200Y-4592000D01*
X12415200Y-4552000D02*
X12375200Y-4592000D01*
X12375200Y-5414550D02*
X12415200Y-5454550D01*
X12415200Y-5414550D02*
X12375200Y-5454550D01*
X12375200Y-5669600D02*
X12415200Y-5709600D01*
X12415200Y-5669600D02*
X12375200Y-5709600D01*
X12375200Y-6126800D02*
X12415200Y-6166800D01*
X12415200Y-6126800D02*
X12375200Y-6166800D01*
X12387900Y-4767900D02*
X12427900Y-4807900D01*
X12427900Y-4767900D02*
X12387900Y-4807900D01*
X12436450Y-3892166D02*
X12476450Y-3932166D01*
X12476450Y-3892166D02*
X12436450Y-3932166D01*
X12436450Y-4145600D02*
X12476450Y-4185600D01*
X12476450Y-4145600D02*
X12436450Y-4185600D01*
X12476800Y-5284850D02*
X12516800Y-5324850D01*
X12516800Y-5284850D02*
X12476800Y-5324850D01*
X12476800Y-6787200D02*
X12516800Y-6827200D01*
X12516800Y-6787200D02*
X12476800Y-6827200D01*
X12476800Y-7600000D02*
X12516800Y-7640000D01*
X12516800Y-7600000D02*
X12476800Y-7640000D01*
X12489500Y-5136200D02*
X12529500Y-5176200D01*
X12529500Y-5136200D02*
X12489500Y-5176200D01*
X12578950Y-5415600D02*
X12618950Y-5455600D01*
X12618950Y-5415600D02*
X12578950Y-5455600D01*
X12609789Y-6758050D02*
X12649789Y-6798050D01*
X12649789Y-6758050D02*
X12609789Y-6798050D01*
X12652873Y-6242916D02*
X12692873Y-6282916D01*
X12692873Y-6242916D02*
X12652873Y-6282916D01*
X12654600Y-4361500D02*
X12694600Y-4401500D01*
X12694600Y-4361500D02*
X12654600Y-4401500D01*
X12680000Y-6685600D02*
X12720000Y-6725600D01*
X12720000Y-6685600D02*
X12680000Y-6725600D01*
X12730800Y-4094800D02*
X12770800Y-4134800D01*
X12770800Y-4094800D02*
X12730800Y-4134800D01*
X12743500Y-5123500D02*
X12783500Y-5163500D01*
X12783500Y-5123500D02*
X12743500Y-5163500D01*
X12781600Y-7371400D02*
X12821600Y-7411400D01*
X12821600Y-7371400D02*
X12781600Y-7411400D01*
X12870500Y-4196400D02*
X12910500Y-4236400D01*
X12910500Y-4196400D02*
X12870500Y-4236400D01*
X12877999Y-5154479D02*
X12917999Y-5194479D01*
X12917999Y-5154479D02*
X12877999Y-5194479D01*
X12955650Y-3891600D02*
X12995650Y-3931600D01*
X12995650Y-3891600D02*
X12955650Y-3931600D01*
X12971220Y-5118425D02*
X13011220Y-5158425D01*
X13011220Y-5118425D02*
X12971220Y-5158425D01*
X13035600Y-4552000D02*
X13075600Y-4592000D01*
X13075600Y-4552000D02*
X13035600Y-4592000D01*
X13035600Y-7600000D02*
X13075600Y-7640000D01*
X13075600Y-7600000D02*
X13035600Y-7640000D01*
X13073700Y-4793300D02*
X13113700Y-4833300D01*
X13113700Y-4793300D02*
X13073700Y-4833300D01*
X13080686Y-7925735D02*
X13120686Y-7965735D01*
X13120686Y-7925735D02*
X13080686Y-7965735D01*
X13098670Y-5139950D02*
X13138670Y-5179950D01*
X13138670Y-5139950D02*
X13098670Y-5179950D01*
X13099100Y-6954750D02*
X13139100Y-6994750D01*
X13139100Y-6954750D02*
X13099100Y-6994750D01*
X13206938Y-4545762D02*
X13246938Y-4585762D01*
X13246938Y-4545762D02*
X13206938Y-4585762D01*
X13219750Y-7092000D02*
X13259750Y-7132000D01*
X13259750Y-7092000D02*
X13219750Y-7132000D01*
X13264200Y-4767900D02*
X13304200Y-4807900D01*
X13304200Y-4767900D02*
X13264200Y-4807900D01*
X13283250Y-6901500D02*
X13323250Y-6941500D01*
X13323250Y-6901500D02*
X13283250Y-6941500D01*
X13299464Y-3996036D02*
X13339464Y-4036036D01*
X13339464Y-3996036D02*
X13299464Y-4036036D01*
X13315000Y-4171000D02*
X13355000Y-4211000D01*
X13355000Y-4171000D02*
X13315000Y-4211000D01*
X13378500Y-4820281D02*
X13418500Y-4860281D01*
X13418500Y-4820281D02*
X13378500Y-4860281D01*
X13391200Y-3739200D02*
X13431200Y-3779200D01*
X13431200Y-3739200D02*
X13391200Y-3779200D01*
X13421050Y-4247200D02*
X13461050Y-4287200D01*
X13461050Y-4247200D02*
X13421050Y-4287200D01*
X13442000Y-7676200D02*
X13482000Y-7716200D01*
X13482000Y-7676200D02*
X13442000Y-7716200D01*
X13543600Y-7600000D02*
X13583600Y-7640000D01*
X13583600Y-7600000D02*
X13543600Y-7640000D01*
X13573450Y-7092000D02*
X13613450Y-7132000D01*
X13613450Y-7092000D02*
X13573450Y-7132000D01*
X13594400Y-4616945D02*
X13634400Y-4656945D01*
X13634400Y-4616945D02*
X13594400Y-4656945D01*
X13623550Y-4806000D02*
X13663550Y-4846000D01*
X13663550Y-4806000D02*
X13623550Y-4846000D01*
X13644770Y-6837570D02*
X13684770Y-6877570D01*
X13684770Y-6837570D02*
X13644770Y-6877570D01*
X13645200Y-4196400D02*
X13685200Y-4236400D01*
X13685200Y-4196400D02*
X13645200Y-4236400D01*
X13645200Y-4399600D02*
X13685200Y-4439600D01*
X13685200Y-4399600D02*
X13645200Y-4439600D01*
X13773592Y-5164919D02*
X13813592Y-5204919D01*
X13813592Y-5164919D02*
X13773592Y-5204919D01*
X13848400Y-4806000D02*
X13888400Y-4846000D01*
X13888400Y-4806000D02*
X13848400Y-4846000D01*
X13851532Y-6941688D02*
X13891532Y-6981688D01*
X13891532Y-6941688D02*
X13851532Y-6981688D01*
X13899200Y-3383600D02*
X13939200Y-3423600D01*
X13939200Y-3383600D02*
X13899200Y-3423600D01*
X13911900Y-7942900D02*
X13951900Y-7982900D01*
X13951900Y-7942900D02*
X13911900Y-7982900D01*
X13937300Y-3942400D02*
X13977300Y-3982400D01*
X13977300Y-3942400D02*
X13937300Y-3982400D01*
X13950430Y-5212830D02*
X13990430Y-5252830D01*
X13990430Y-5212830D02*
X13950430Y-5252830D01*
X13972950Y-4958400D02*
X14012950Y-4998400D01*
X14012950Y-4958400D02*
X13972950Y-4998400D01*
X14051600Y-4552000D02*
X14091600Y-4592000D01*
X14091600Y-4552000D02*
X14051600Y-4592000D01*
X14204000Y-3100450D02*
X14244000Y-3140450D01*
X14244000Y-3100450D02*
X14204000Y-3140450D01*
X14204000Y-7295200D02*
X14244000Y-7335200D01*
X14244000Y-7295200D02*
X14204000Y-7335200D01*
X14267500Y-3651750D02*
X14307500Y-3691750D01*
X14307500Y-3651750D02*
X14267500Y-3691750D01*
X14292900Y-7612700D02*
X14332900Y-7652700D01*
X14332900Y-7612700D02*
X14292900Y-7652700D01*
X14305600Y-6406200D02*
X14345600Y-6446200D01*
X14345600Y-6406200D02*
X14305600Y-6446200D01*
X14458000Y-3461250D02*
X14498000Y-3501250D01*
X14498000Y-3461250D02*
X14458000Y-3501250D01*
X14521500Y-3334250D02*
X14561500Y-3374250D01*
X14561500Y-3334250D02*
X14521500Y-3374250D01*
X14712000Y-3129600D02*
X14752000Y-3169600D01*
X14752000Y-3129600D02*
X14712000Y-3169600D01*
X14780450Y-3715250D02*
X14820450Y-3755250D01*
X14820450Y-3715250D02*
X14780450Y-3755250D01*
X10957000Y-7175500D02*
G75*
G02*
X10886000Y-7175500I-35500J0D01*
G01*
X10886000Y-7175500D02*
G75*
G02*
X10957000Y-7175500I35500J0D01*
G01*
X10957000Y-7683500D02*
G75*
G02*
X10886000Y-7683500I-35500J0D01*
G01*
X10886000Y-7683500D02*
G75*
G02*
X10957000Y-7683500I35500J0D01*
G01*
X11211000Y-7429500D02*
G75*
G02*
X11140000Y-7429500I-35500J0D01*
G01*
X11140000Y-7429500D02*
G75*
G02*
X11211000Y-7429500I35500J0D01*
G01*
X14529512Y-4661220D02*
X14529512Y-4741220D01*
X14489512Y-4701220D02*
X14569512Y-4701220D01*
X14529512Y-4861220D02*
X14529512Y-4941220D01*
X14489512Y-4901220D02*
X14569512Y-4901220D01*
X14456284Y-5681552D02*
X14456284Y-5621448D01*
X14396180Y-5621448D01*
X14396180Y-5681552D01*
X14456284Y-5681552D01*
X14710284Y-5681552D02*
X14710284Y-5621448D01*
X14650180Y-5621448D01*
X14650180Y-5681552D01*
X14710284Y-5681552D01*
X14964284Y-5681552D02*
X14964284Y-5621448D01*
X14904180Y-5621448D01*
X14904180Y-5681552D01*
X14964284Y-5681552D01*
D12*
X10350500Y-4178500D02*
X10401500Y-4127500D01*
X10350500Y-4076500D01*
X10299500Y-4127500D01*
X10350500Y-4178500D01*
X10350500Y-4432500D02*
X10401500Y-4381500D01*
X10350500Y-4330500D01*
X10299500Y-4381500D01*
X10350500Y-4432500D01*
X10350500Y-5131000D02*
X10401500Y-5080000D01*
X10350500Y-5029000D01*
X10299500Y-5080000D01*
X10350500Y-5131000D01*
X10350500Y-5385000D02*
X10401500Y-5334000D01*
X10350500Y-5283000D01*
X10299500Y-5334000D01*
X10350500Y-5385000D01*
X10350500Y-6083500D02*
X10401500Y-6032500D01*
X10350500Y-5981500D01*
X10299500Y-6032500D01*
X10350500Y-6083500D01*
X10350500Y-6337500D02*
X10401500Y-6286500D01*
X10350500Y-6235500D01*
X10299500Y-6286500D01*
X10350500Y-6337500D01*
X12509500Y-3341268D02*
X12560500Y-3290268D01*
X12509500Y-3239268D01*
X12458500Y-3290268D01*
X12509500Y-3341268D01*
X12763500Y-3341268D02*
X12814500Y-3290268D01*
X12763500Y-3239268D01*
X12712500Y-3290268D01*
X12763500Y-3341268D01*
X13017500Y-3341268D02*
X13068500Y-3290268D01*
X13017500Y-3239268D01*
X12966500Y-3290268D01*
X13017500Y-3341268D01*
X13271500Y-3341268D02*
X13322500Y-3290268D01*
X13271500Y-3239268D01*
X13220500Y-3290268D01*
X13271500Y-3341268D01*
X15176500Y-4051500D02*
X15227500Y-4000500D01*
X15176500Y-3949500D01*
X15125500Y-4000500D01*
X15176500Y-4051500D01*
X15176500Y-4305500D02*
X15227500Y-4254500D01*
X15176500Y-4203500D01*
X15125500Y-4254500D01*
X15176500Y-4305500D01*
X15184000Y-4723000D02*
X15235000Y-4672000D01*
X15184000Y-4621000D01*
X15133000Y-4672000D01*
X15184000Y-4723000D01*
X15184000Y-4977000D02*
X15235000Y-4926000D01*
X15184000Y-4875000D01*
X15133000Y-4926000D01*
X15184000Y-4977000D01*
X15184000Y-6945500D02*
X15235000Y-6894500D01*
X15184000Y-6843500D01*
X15133000Y-6894500D01*
X15184000Y-6945500D01*
X15184000Y-7199500D02*
X15235000Y-7148500D01*
X15184000Y-7097500D01*
X15133000Y-7148500D01*
X15184000Y-7199500D01*
D13*
X10289500Y-6614000D02*
X10396500Y-6721000D01*
X10396500Y-6614000D02*
X10289500Y-6721000D01*
X10396500Y-6667500D02*
G75*
G02*
X10289500Y-6667500I-53500J0D01*
G01*
X10289500Y-6667500D02*
G75*
G02*
X10396500Y-6667500I53500J0D01*
G01*
X10289500Y-6868000D02*
X10396500Y-6975000D01*
X10396500Y-6868000D02*
X10289500Y-6975000D01*
X10396500Y-6921500D02*
G75*
G02*
X10289500Y-6921500I-53500J0D01*
G01*
X10289500Y-6921500D02*
G75*
G02*
X10396500Y-6921500I53500J0D01*
G01*
X10289500Y-7122000D02*
X10396500Y-7229000D01*
X10396500Y-7122000D02*
X10289500Y-7229000D01*
X10396500Y-7175500D02*
G75*
G02*
X10289500Y-7175500I-53500J0D01*
G01*
X10289500Y-7175500D02*
G75*
G02*
X10396500Y-7175500I53500J0D01*
G01*
X11528000Y-3229268D02*
X11635000Y-3336268D01*
X11635000Y-3229268D02*
X11528000Y-3336268D01*
X11635000Y-3282768D02*
G75*
G02*
X11528000Y-3282768I-53500J0D01*
G01*
X11528000Y-3282768D02*
G75*
G02*
X11635000Y-3282768I53500J0D01*
G01*
X11782000Y-3229268D02*
X11889000Y-3336268D01*
X11889000Y-3229268D02*
X11782000Y-3336268D01*
X11889000Y-3282768D02*
G75*
G02*
X11782000Y-3282768I-53500J0D01*
G01*
X11782000Y-3282768D02*
G75*
G02*
X11889000Y-3282768I53500J0D01*
G01*
X12036000Y-3229268D02*
X12143000Y-3336268D01*
X12143000Y-3229268D02*
X12036000Y-3336268D01*
X12143000Y-3282768D02*
G75*
G02*
X12036000Y-3282768I-53500J0D01*
G01*
X12036000Y-3282768D02*
G75*
G02*
X12143000Y-3282768I53500J0D01*
G01*
D11*
X10130777Y-8741484D02*
X10130777Y-8541484D01*
X10130777Y-8541484D02*
X10178396Y-8541484D01*
X10178396Y-8541484D02*
X10206967Y-8551008D01*
X10206967Y-8551008D02*
X10226015Y-8570055D01*
X10226015Y-8570055D02*
X10235539Y-8589103D01*
X10235539Y-8589103D02*
X10245063Y-8627198D01*
X10245063Y-8627198D02*
X10245063Y-8655770D01*
X10245063Y-8655770D02*
X10235539Y-8693865D01*
X10235539Y-8693865D02*
X10226015Y-8712912D01*
X10226015Y-8712912D02*
X10206967Y-8731960D01*
X10206967Y-8731960D02*
X10178396Y-8741484D01*
X10178396Y-8741484D02*
X10130777Y-8741484D01*
X10330777Y-8741484D02*
X10330777Y-8608150D01*
X10330777Y-8646246D02*
X10340301Y-8627198D01*
X10340301Y-8627198D02*
X10349824Y-8617674D01*
X10349824Y-8617674D02*
X10368872Y-8608150D01*
X10368872Y-8608150D02*
X10387920Y-8608150D01*
X10454586Y-8741484D02*
X10454586Y-8608150D01*
X10454586Y-8541484D02*
X10445063Y-8551008D01*
X10445063Y-8551008D02*
X10454586Y-8560531D01*
X10454586Y-8560531D02*
X10464110Y-8551008D01*
X10464110Y-8551008D02*
X10454586Y-8541484D01*
X10454586Y-8541484D02*
X10454586Y-8560531D01*
X10578396Y-8741484D02*
X10559348Y-8731960D01*
X10559348Y-8731960D02*
X10549824Y-8712912D01*
X10549824Y-8712912D02*
X10549824Y-8541484D01*
X10683158Y-8741484D02*
X10664110Y-8731960D01*
X10664110Y-8731960D02*
X10654586Y-8712912D01*
X10654586Y-8712912D02*
X10654586Y-8541484D01*
X10911729Y-8741484D02*
X10911729Y-8541484D01*
X10911729Y-8541484D02*
X10978396Y-8684341D01*
X10978396Y-8684341D02*
X11045063Y-8541484D01*
X11045063Y-8541484D02*
X11045063Y-8741484D01*
X11226015Y-8741484D02*
X11226015Y-8636722D01*
X11226015Y-8636722D02*
X11216491Y-8617674D01*
X11216491Y-8617674D02*
X11197443Y-8608150D01*
X11197443Y-8608150D02*
X11159348Y-8608150D01*
X11159348Y-8608150D02*
X11140301Y-8617674D01*
X11226015Y-8731960D02*
X11206967Y-8741484D01*
X11206967Y-8741484D02*
X11159348Y-8741484D01*
X11159348Y-8741484D02*
X11140301Y-8731960D01*
X11140301Y-8731960D02*
X11130777Y-8712912D01*
X11130777Y-8712912D02*
X11130777Y-8693865D01*
X11130777Y-8693865D02*
X11140301Y-8674817D01*
X11140301Y-8674817D02*
X11159348Y-8665293D01*
X11159348Y-8665293D02*
X11206967Y-8665293D01*
X11206967Y-8665293D02*
X11226015Y-8655770D01*
X11321253Y-8608150D02*
X11321253Y-8808150D01*
X11321253Y-8617674D02*
X11340301Y-8608150D01*
X11340301Y-8608150D02*
X11378396Y-8608150D01*
X11378396Y-8608150D02*
X11397443Y-8617674D01*
X11397443Y-8617674D02*
X11406967Y-8627198D01*
X11406967Y-8627198D02*
X11416491Y-8646246D01*
X11416491Y-8646246D02*
X11416491Y-8703389D01*
X11416491Y-8703389D02*
X11406967Y-8722436D01*
X11406967Y-8722436D02*
X11397443Y-8731960D01*
X11397443Y-8731960D02*
X11378396Y-8741484D01*
X11378396Y-8741484D02*
X11340301Y-8741484D01*
X11340301Y-8741484D02*
X11321253Y-8731960D01*
X11502205Y-8722436D02*
X11511729Y-8731960D01*
X11511729Y-8731960D02*
X11502205Y-8741484D01*
X11502205Y-8741484D02*
X11492682Y-8731960D01*
X11492682Y-8731960D02*
X11502205Y-8722436D01*
X11502205Y-8722436D02*
X11502205Y-8741484D01*
X11502205Y-8617674D02*
X11511729Y-8627198D01*
X11511729Y-8627198D02*
X11502205Y-8636722D01*
X11502205Y-8636722D02*
X11492682Y-8627198D01*
X11492682Y-8627198D02*
X11502205Y-8617674D01*
X11502205Y-8617674D02*
X11502205Y-8636722D01*
D10*
X9830000Y-9050000D02*
X9870000Y-9090000D01*
X9870000Y-9050000D02*
X9830000Y-9090000D01*
D11*
X10168872Y-8961484D02*
X10187920Y-8961484D01*
X10187920Y-8961484D02*
X10206967Y-8971008D01*
X10206967Y-8971008D02*
X10216491Y-8980531D01*
X10216491Y-8980531D02*
X10226015Y-8999579D01*
X10226015Y-8999579D02*
X10235539Y-9037674D01*
X10235539Y-9037674D02*
X10235539Y-9085293D01*
X10235539Y-9085293D02*
X10226015Y-9123389D01*
X10226015Y-9123389D02*
X10216491Y-9142436D01*
X10216491Y-9142436D02*
X10206967Y-9151960D01*
X10206967Y-9151960D02*
X10187920Y-9161484D01*
X10187920Y-9161484D02*
X10168872Y-9161484D01*
X10168872Y-9161484D02*
X10149824Y-9151960D01*
X10149824Y-9151960D02*
X10140301Y-9142436D01*
X10140301Y-9142436D02*
X10130777Y-9123389D01*
X10130777Y-9123389D02*
X10121253Y-9085293D01*
X10121253Y-9085293D02*
X10121253Y-9037674D01*
X10121253Y-9037674D02*
X10130777Y-8999579D01*
X10130777Y-8999579D02*
X10140301Y-8980531D01*
X10140301Y-8980531D02*
X10149824Y-8971008D01*
X10149824Y-8971008D02*
X10168872Y-8961484D01*
X10321253Y-9142436D02*
X10330777Y-9151960D01*
X10330777Y-9151960D02*
X10321253Y-9161484D01*
X10321253Y-9161484D02*
X10311729Y-9151960D01*
X10311729Y-9151960D02*
X10321253Y-9142436D01*
X10321253Y-9142436D02*
X10321253Y-9161484D01*
X10502205Y-9028150D02*
X10502205Y-9161484D01*
X10454586Y-8951960D02*
X10406967Y-9094817D01*
X10406967Y-9094817D02*
X10530777Y-9094817D01*
X10645063Y-8961484D02*
X10664110Y-8961484D01*
X10664110Y-8961484D02*
X10683158Y-8971008D01*
X10683158Y-8971008D02*
X10692682Y-8980531D01*
X10692682Y-8980531D02*
X10702205Y-8999579D01*
X10702205Y-8999579D02*
X10711729Y-9037674D01*
X10711729Y-9037674D02*
X10711729Y-9085293D01*
X10711729Y-9085293D02*
X10702205Y-9123389D01*
X10702205Y-9123389D02*
X10692682Y-9142436D01*
X10692682Y-9142436D02*
X10683158Y-9151960D01*
X10683158Y-9151960D02*
X10664110Y-9161484D01*
X10664110Y-9161484D02*
X10645063Y-9161484D01*
X10645063Y-9161484D02*
X10626015Y-9151960D01*
X10626015Y-9151960D02*
X10616491Y-9142436D01*
X10616491Y-9142436D02*
X10606967Y-9123389D01*
X10606967Y-9123389D02*
X10597444Y-9085293D01*
X10597444Y-9085293D02*
X10597444Y-9037674D01*
X10597444Y-9037674D02*
X10606967Y-8999579D01*
X10606967Y-8999579D02*
X10616491Y-8980531D01*
X10616491Y-8980531D02*
X10626015Y-8971008D01*
X10626015Y-8971008D02*
X10645063Y-8961484D01*
X10835539Y-8961484D02*
X10854586Y-8961484D01*
X10854586Y-8961484D02*
X10873634Y-8971008D01*
X10873634Y-8971008D02*
X10883158Y-8980531D01*
X10883158Y-8980531D02*
X10892682Y-8999579D01*
X10892682Y-8999579D02*
X10902205Y-9037674D01*
X10902205Y-9037674D02*
X10902205Y-9085293D01*
X10902205Y-9085293D02*
X10892682Y-9123389D01*
X10892682Y-9123389D02*
X10883158Y-9142436D01*
X10883158Y-9142436D02*
X10873634Y-9151960D01*
X10873634Y-9151960D02*
X10854586Y-9161484D01*
X10854586Y-9161484D02*
X10835539Y-9161484D01*
X10835539Y-9161484D02*
X10816491Y-9151960D01*
X10816491Y-9151960D02*
X10806967Y-9142436D01*
X10806967Y-9142436D02*
X10797444Y-9123389D01*
X10797444Y-9123389D02*
X10787920Y-9085293D01*
X10787920Y-9085293D02*
X10787920Y-9037674D01*
X10787920Y-9037674D02*
X10797444Y-8999579D01*
X10797444Y-8999579D02*
X10806967Y-8980531D01*
X10806967Y-8980531D02*
X10816491Y-8971008D01*
X10816491Y-8971008D02*
X10835539Y-8961484D01*
X10987920Y-9161484D02*
X10987920Y-9028150D01*
X10987920Y-9047198D02*
X10997444Y-9037674D01*
X10997444Y-9037674D02*
X11016491Y-9028150D01*
X11016491Y-9028150D02*
X11045063Y-9028150D01*
X11045063Y-9028150D02*
X11064110Y-9037674D01*
X11064110Y-9037674D02*
X11073634Y-9056722D01*
X11073634Y-9056722D02*
X11073634Y-9161484D01*
X11073634Y-9056722D02*
X11083158Y-9037674D01*
X11083158Y-9037674D02*
X11102205Y-9028150D01*
X11102205Y-9028150D02*
X11130777Y-9028150D01*
X11130777Y-9028150D02*
X11149825Y-9037674D01*
X11149825Y-9037674D02*
X11159348Y-9056722D01*
X11159348Y-9056722D02*
X11159348Y-9161484D01*
X11254586Y-9161484D02*
X11254586Y-9028150D01*
X11254586Y-9047198D02*
X11264110Y-9037674D01*
X11264110Y-9037674D02*
X11283158Y-9028150D01*
X11283158Y-9028150D02*
X11311729Y-9028150D01*
X11311729Y-9028150D02*
X11330777Y-9037674D01*
X11330777Y-9037674D02*
X11340301Y-9056722D01*
X11340301Y-9056722D02*
X11340301Y-9161484D01*
X11340301Y-9056722D02*
X11349824Y-9037674D01*
X11349824Y-9037674D02*
X11368872Y-9028150D01*
X11368872Y-9028150D02*
X11397443Y-9028150D01*
X11397443Y-9028150D02*
X11416491Y-9037674D01*
X11416491Y-9037674D02*
X11426015Y-9056722D01*
X11426015Y-9056722D02*
X11426015Y-9161484D01*
X11816491Y-8951960D02*
X11645063Y-9209103D01*
X12073634Y-8961484D02*
X12092682Y-8961484D01*
X12092682Y-8961484D02*
X12111729Y-8971008D01*
X12111729Y-8971008D02*
X12121253Y-8980531D01*
X12121253Y-8980531D02*
X12130777Y-8999579D01*
X12130777Y-8999579D02*
X12140301Y-9037674D01*
X12140301Y-9037674D02*
X12140301Y-9085293D01*
X12140301Y-9085293D02*
X12130777Y-9123389D01*
X12130777Y-9123389D02*
X12121253Y-9142436D01*
X12121253Y-9142436D02*
X12111729Y-9151960D01*
X12111729Y-9151960D02*
X12092682Y-9161484D01*
X12092682Y-9161484D02*
X12073634Y-9161484D01*
X12073634Y-9161484D02*
X12054586Y-9151960D01*
X12054586Y-9151960D02*
X12045063Y-9142436D01*
X12045063Y-9142436D02*
X12035539Y-9123389D01*
X12035539Y-9123389D02*
X12026015Y-9085293D01*
X12026015Y-9085293D02*
X12026015Y-9037674D01*
X12026015Y-9037674D02*
X12035539Y-8999579D01*
X12035539Y-8999579D02*
X12045063Y-8980531D01*
X12045063Y-8980531D02*
X12054586Y-8971008D01*
X12054586Y-8971008D02*
X12073634Y-8961484D01*
X12226015Y-9142436D02*
X12235539Y-9151960D01*
X12235539Y-9151960D02*
X12226015Y-9161484D01*
X12226015Y-9161484D02*
X12216491Y-9151960D01*
X12216491Y-9151960D02*
X12226015Y-9142436D01*
X12226015Y-9142436D02*
X12226015Y-9161484D01*
X12359348Y-8961484D02*
X12378396Y-8961484D01*
X12378396Y-8961484D02*
X12397444Y-8971008D01*
X12397444Y-8971008D02*
X12406967Y-8980531D01*
X12406967Y-8980531D02*
X12416491Y-8999579D01*
X12416491Y-8999579D02*
X12426015Y-9037674D01*
X12426015Y-9037674D02*
X12426015Y-9085293D01*
X12426015Y-9085293D02*
X12416491Y-9123389D01*
X12416491Y-9123389D02*
X12406967Y-9142436D01*
X12406967Y-9142436D02*
X12397444Y-9151960D01*
X12397444Y-9151960D02*
X12378396Y-9161484D01*
X12378396Y-9161484D02*
X12359348Y-9161484D01*
X12359348Y-9161484D02*
X12340301Y-9151960D01*
X12340301Y-9151960D02*
X12330777Y-9142436D01*
X12330777Y-9142436D02*
X12321253Y-9123389D01*
X12321253Y-9123389D02*
X12311729Y-9085293D01*
X12311729Y-9085293D02*
X12311729Y-9037674D01*
X12311729Y-9037674D02*
X12321253Y-8999579D01*
X12321253Y-8999579D02*
X12330777Y-8980531D01*
X12330777Y-8980531D02*
X12340301Y-8971008D01*
X12340301Y-8971008D02*
X12359348Y-8961484D01*
X12616491Y-9161484D02*
X12502206Y-9161484D01*
X12559348Y-9161484D02*
X12559348Y-8961484D01*
X12559348Y-8961484D02*
X12540301Y-8990055D01*
X12540301Y-8990055D02*
X12521253Y-9009103D01*
X12521253Y-9009103D02*
X12502206Y-9018627D01*
X12797444Y-8961484D02*
X12702206Y-8961484D01*
X12702206Y-8961484D02*
X12692682Y-9056722D01*
X12692682Y-9056722D02*
X12702206Y-9047198D01*
X12702206Y-9047198D02*
X12721253Y-9037674D01*
X12721253Y-9037674D02*
X12768872Y-9037674D01*
X12768872Y-9037674D02*
X12787920Y-9047198D01*
X12787920Y-9047198D02*
X12797444Y-9056722D01*
X12797444Y-9056722D02*
X12806967Y-9075770D01*
X12806967Y-9075770D02*
X12806967Y-9123389D01*
X12806967Y-9123389D02*
X12797444Y-9142436D01*
X12797444Y-9142436D02*
X12787920Y-9151960D01*
X12787920Y-9151960D02*
X12768872Y-9161484D01*
X12768872Y-9161484D02*
X12721253Y-9161484D01*
X12721253Y-9161484D02*
X12702206Y-9151960D01*
X12702206Y-9151960D02*
X12692682Y-9142436D01*
X12873634Y-8961484D02*
X13006967Y-8961484D01*
X13006967Y-8961484D02*
X12921253Y-9161484D01*
X13073634Y-8961484D02*
X13073634Y-8999579D01*
X13149825Y-8961484D02*
X13149825Y-8999579D01*
X13445063Y-9237674D02*
X13435539Y-9228150D01*
X13435539Y-9228150D02*
X13416491Y-9199579D01*
X13416491Y-9199579D02*
X13406968Y-9180531D01*
X13406968Y-9180531D02*
X13397444Y-9151960D01*
X13397444Y-9151960D02*
X13387920Y-9104341D01*
X13387920Y-9104341D02*
X13387920Y-9066246D01*
X13387920Y-9066246D02*
X13397444Y-9018627D01*
X13397444Y-9018627D02*
X13406968Y-8990055D01*
X13406968Y-8990055D02*
X13416491Y-8971008D01*
X13416491Y-8971008D02*
X13435539Y-8942436D01*
X13435539Y-8942436D02*
X13445063Y-8932912D01*
X13626015Y-9161484D02*
X13511729Y-9161484D01*
X13568872Y-9161484D02*
X13568872Y-8961484D01*
X13568872Y-8961484D02*
X13549825Y-8990055D01*
X13549825Y-8990055D02*
X13530777Y-9009103D01*
X13530777Y-9009103D02*
X13511729Y-9018627D01*
X13702206Y-8980531D02*
X13711729Y-8971008D01*
X13711729Y-8971008D02*
X13730777Y-8961484D01*
X13730777Y-8961484D02*
X13778396Y-8961484D01*
X13778396Y-8961484D02*
X13797444Y-8971008D01*
X13797444Y-8971008D02*
X13806968Y-8980531D01*
X13806968Y-8980531D02*
X13816491Y-8999579D01*
X13816491Y-8999579D02*
X13816491Y-9018627D01*
X13816491Y-9018627D02*
X13806968Y-9047198D01*
X13806968Y-9047198D02*
X13692682Y-9161484D01*
X13692682Y-9161484D02*
X13816491Y-9161484D01*
X14006968Y-9161484D02*
X13892682Y-9161484D01*
X13949825Y-9161484D02*
X13949825Y-8961484D01*
X13949825Y-8961484D02*
X13930777Y-8990055D01*
X13930777Y-8990055D02*
X13911729Y-9009103D01*
X13911729Y-9009103D02*
X13892682Y-9018627D01*
X14245063Y-9161484D02*
X14245063Y-8961484D01*
X14330777Y-9161484D02*
X14330777Y-9056722D01*
X14330777Y-9056722D02*
X14321253Y-9037674D01*
X14321253Y-9037674D02*
X14302206Y-9028150D01*
X14302206Y-9028150D02*
X14273634Y-9028150D01*
X14273634Y-9028150D02*
X14254587Y-9037674D01*
X14254587Y-9037674D02*
X14245063Y-9047198D01*
X14454587Y-9161484D02*
X14435539Y-9151960D01*
X14435539Y-9151960D02*
X14426015Y-9142436D01*
X14426015Y-9142436D02*
X14416491Y-9123389D01*
X14416491Y-9123389D02*
X14416491Y-9066246D01*
X14416491Y-9066246D02*
X14426015Y-9047198D01*
X14426015Y-9047198D02*
X14435539Y-9037674D01*
X14435539Y-9037674D02*
X14454587Y-9028150D01*
X14454587Y-9028150D02*
X14483158Y-9028150D01*
X14483158Y-9028150D02*
X14502206Y-9037674D01*
X14502206Y-9037674D02*
X14511730Y-9047198D01*
X14511730Y-9047198D02*
X14521253Y-9066246D01*
X14521253Y-9066246D02*
X14521253Y-9123389D01*
X14521253Y-9123389D02*
X14511730Y-9142436D01*
X14511730Y-9142436D02*
X14502206Y-9151960D01*
X14502206Y-9151960D02*
X14483158Y-9161484D01*
X14483158Y-9161484D02*
X14454587Y-9161484D01*
X14635539Y-9161484D02*
X14616491Y-9151960D01*
X14616491Y-9151960D02*
X14606968Y-9132912D01*
X14606968Y-9132912D02*
X14606968Y-8961484D01*
X14787920Y-9151960D02*
X14768872Y-9161484D01*
X14768872Y-9161484D02*
X14730777Y-9161484D01*
X14730777Y-9161484D02*
X14711730Y-9151960D01*
X14711730Y-9151960D02*
X14702206Y-9132912D01*
X14702206Y-9132912D02*
X14702206Y-9056722D01*
X14702206Y-9056722D02*
X14711730Y-9037674D01*
X14711730Y-9037674D02*
X14730777Y-9028150D01*
X14730777Y-9028150D02*
X14768872Y-9028150D01*
X14768872Y-9028150D02*
X14787920Y-9037674D01*
X14787920Y-9037674D02*
X14797444Y-9056722D01*
X14797444Y-9056722D02*
X14797444Y-9075770D01*
X14797444Y-9075770D02*
X14702206Y-9094817D01*
X14873634Y-9151960D02*
X14892682Y-9161484D01*
X14892682Y-9161484D02*
X14930777Y-9161484D01*
X14930777Y-9161484D02*
X14949825Y-9151960D01*
X14949825Y-9151960D02*
X14959349Y-9132912D01*
X14959349Y-9132912D02*
X14959349Y-9123389D01*
X14959349Y-9123389D02*
X14949825Y-9104341D01*
X14949825Y-9104341D02*
X14930777Y-9094817D01*
X14930777Y-9094817D02*
X14902206Y-9094817D01*
X14902206Y-9094817D02*
X14883158Y-9085293D01*
X14883158Y-9085293D02*
X14873634Y-9066246D01*
X14873634Y-9066246D02*
X14873634Y-9056722D01*
X14873634Y-9056722D02*
X14883158Y-9037674D01*
X14883158Y-9037674D02*
X14902206Y-9028150D01*
X14902206Y-9028150D02*
X14930777Y-9028150D01*
X14930777Y-9028150D02*
X14949825Y-9037674D01*
X15026015Y-9237674D02*
X15035539Y-9228150D01*
X15035539Y-9228150D02*
X15054587Y-9199579D01*
X15054587Y-9199579D02*
X15064111Y-9180531D01*
X15064111Y-9180531D02*
X15073634Y-9151960D01*
X15073634Y-9151960D02*
X15083158Y-9104341D01*
X15083158Y-9104341D02*
X15083158Y-9066246D01*
X15083158Y-9066246D02*
X15073634Y-9018627D01*
X15073634Y-9018627D02*
X15064111Y-8990055D01*
X15064111Y-8990055D02*
X15054587Y-8971008D01*
X15054587Y-8971008D02*
X15035539Y-8942436D01*
X15035539Y-8942436D02*
X15026015Y-8932912D01*
D10*
X9870000Y-9334000D02*
G75*
G02*
X9799000Y-9334000I-35500J0D01*
G01*
X9799000Y-9334000D02*
G75*
G02*
X9870000Y-9334000I35500J0D01*
G01*
D11*
X10168872Y-9225484D02*
X10187920Y-9225484D01*
X10187920Y-9225484D02*
X10206967Y-9235008D01*
X10206967Y-9235008D02*
X10216491Y-9244531D01*
X10216491Y-9244531D02*
X10226015Y-9263579D01*
X10226015Y-9263579D02*
X10235539Y-9301674D01*
X10235539Y-9301674D02*
X10235539Y-9349293D01*
X10235539Y-9349293D02*
X10226015Y-9387389D01*
X10226015Y-9387389D02*
X10216491Y-9406436D01*
X10216491Y-9406436D02*
X10206967Y-9415960D01*
X10206967Y-9415960D02*
X10187920Y-9425484D01*
X10187920Y-9425484D02*
X10168872Y-9425484D01*
X10168872Y-9425484D02*
X10149824Y-9415960D01*
X10149824Y-9415960D02*
X10140301Y-9406436D01*
X10140301Y-9406436D02*
X10130777Y-9387389D01*
X10130777Y-9387389D02*
X10121253Y-9349293D01*
X10121253Y-9349293D02*
X10121253Y-9301674D01*
X10121253Y-9301674D02*
X10130777Y-9263579D01*
X10130777Y-9263579D02*
X10140301Y-9244531D01*
X10140301Y-9244531D02*
X10149824Y-9235008D01*
X10149824Y-9235008D02*
X10168872Y-9225484D01*
X10321253Y-9406436D02*
X10330777Y-9415960D01*
X10330777Y-9415960D02*
X10321253Y-9425484D01*
X10321253Y-9425484D02*
X10311729Y-9415960D01*
X10311729Y-9415960D02*
X10321253Y-9406436D01*
X10321253Y-9406436D02*
X10321253Y-9425484D01*
X10397444Y-9225484D02*
X10530777Y-9225484D01*
X10530777Y-9225484D02*
X10445063Y-9425484D01*
X10711729Y-9425484D02*
X10597444Y-9425484D01*
X10654586Y-9425484D02*
X10654586Y-9225484D01*
X10654586Y-9225484D02*
X10635539Y-9254055D01*
X10635539Y-9254055D02*
X10616491Y-9273103D01*
X10616491Y-9273103D02*
X10597444Y-9282627D01*
X10835539Y-9225484D02*
X10854586Y-9225484D01*
X10854586Y-9225484D02*
X10873634Y-9235008D01*
X10873634Y-9235008D02*
X10883158Y-9244531D01*
X10883158Y-9244531D02*
X10892682Y-9263579D01*
X10892682Y-9263579D02*
X10902205Y-9301674D01*
X10902205Y-9301674D02*
X10902205Y-9349293D01*
X10902205Y-9349293D02*
X10892682Y-9387389D01*
X10892682Y-9387389D02*
X10883158Y-9406436D01*
X10883158Y-9406436D02*
X10873634Y-9415960D01*
X10873634Y-9415960D02*
X10854586Y-9425484D01*
X10854586Y-9425484D02*
X10835539Y-9425484D01*
X10835539Y-9425484D02*
X10816491Y-9415960D01*
X10816491Y-9415960D02*
X10806967Y-9406436D01*
X10806967Y-9406436D02*
X10797444Y-9387389D01*
X10797444Y-9387389D02*
X10787920Y-9349293D01*
X10787920Y-9349293D02*
X10787920Y-9301674D01*
X10787920Y-9301674D02*
X10797444Y-9263579D01*
X10797444Y-9263579D02*
X10806967Y-9244531D01*
X10806967Y-9244531D02*
X10816491Y-9235008D01*
X10816491Y-9235008D02*
X10835539Y-9225484D01*
X10987920Y-9425484D02*
X10987920Y-9292150D01*
X10987920Y-9311198D02*
X10997444Y-9301674D01*
X10997444Y-9301674D02*
X11016491Y-9292150D01*
X11016491Y-9292150D02*
X11045063Y-9292150D01*
X11045063Y-9292150D02*
X11064110Y-9301674D01*
X11064110Y-9301674D02*
X11073634Y-9320722D01*
X11073634Y-9320722D02*
X11073634Y-9425484D01*
X11073634Y-9320722D02*
X11083158Y-9301674D01*
X11083158Y-9301674D02*
X11102205Y-9292150D01*
X11102205Y-9292150D02*
X11130777Y-9292150D01*
X11130777Y-9292150D02*
X11149825Y-9301674D01*
X11149825Y-9301674D02*
X11159348Y-9320722D01*
X11159348Y-9320722D02*
X11159348Y-9425484D01*
X11254586Y-9425484D02*
X11254586Y-9292150D01*
X11254586Y-9311198D02*
X11264110Y-9301674D01*
X11264110Y-9301674D02*
X11283158Y-9292150D01*
X11283158Y-9292150D02*
X11311729Y-9292150D01*
X11311729Y-9292150D02*
X11330777Y-9301674D01*
X11330777Y-9301674D02*
X11340301Y-9320722D01*
X11340301Y-9320722D02*
X11340301Y-9425484D01*
X11340301Y-9320722D02*
X11349824Y-9301674D01*
X11349824Y-9301674D02*
X11368872Y-9292150D01*
X11368872Y-9292150D02*
X11397443Y-9292150D01*
X11397443Y-9292150D02*
X11416491Y-9301674D01*
X11416491Y-9301674D02*
X11426015Y-9320722D01*
X11426015Y-9320722D02*
X11426015Y-9425484D01*
X11816491Y-9215960D02*
X11645063Y-9473103D01*
X12073634Y-9225484D02*
X12092682Y-9225484D01*
X12092682Y-9225484D02*
X12111729Y-9235008D01*
X12111729Y-9235008D02*
X12121253Y-9244531D01*
X12121253Y-9244531D02*
X12130777Y-9263579D01*
X12130777Y-9263579D02*
X12140301Y-9301674D01*
X12140301Y-9301674D02*
X12140301Y-9349293D01*
X12140301Y-9349293D02*
X12130777Y-9387389D01*
X12130777Y-9387389D02*
X12121253Y-9406436D01*
X12121253Y-9406436D02*
X12111729Y-9415960D01*
X12111729Y-9415960D02*
X12092682Y-9425484D01*
X12092682Y-9425484D02*
X12073634Y-9425484D01*
X12073634Y-9425484D02*
X12054586Y-9415960D01*
X12054586Y-9415960D02*
X12045063Y-9406436D01*
X12045063Y-9406436D02*
X12035539Y-9387389D01*
X12035539Y-9387389D02*
X12026015Y-9349293D01*
X12026015Y-9349293D02*
X12026015Y-9301674D01*
X12026015Y-9301674D02*
X12035539Y-9263579D01*
X12035539Y-9263579D02*
X12045063Y-9244531D01*
X12045063Y-9244531D02*
X12054586Y-9235008D01*
X12054586Y-9235008D02*
X12073634Y-9225484D01*
X12226015Y-9406436D02*
X12235539Y-9415960D01*
X12235539Y-9415960D02*
X12226015Y-9425484D01*
X12226015Y-9425484D02*
X12216491Y-9415960D01*
X12216491Y-9415960D02*
X12226015Y-9406436D01*
X12226015Y-9406436D02*
X12226015Y-9425484D01*
X12359348Y-9225484D02*
X12378396Y-9225484D01*
X12378396Y-9225484D02*
X12397444Y-9235008D01*
X12397444Y-9235008D02*
X12406967Y-9244531D01*
X12406967Y-9244531D02*
X12416491Y-9263579D01*
X12416491Y-9263579D02*
X12426015Y-9301674D01*
X12426015Y-9301674D02*
X12426015Y-9349293D01*
X12426015Y-9349293D02*
X12416491Y-9387389D01*
X12416491Y-9387389D02*
X12406967Y-9406436D01*
X12406967Y-9406436D02*
X12397444Y-9415960D01*
X12397444Y-9415960D02*
X12378396Y-9425484D01*
X12378396Y-9425484D02*
X12359348Y-9425484D01*
X12359348Y-9425484D02*
X12340301Y-9415960D01*
X12340301Y-9415960D02*
X12330777Y-9406436D01*
X12330777Y-9406436D02*
X12321253Y-9387389D01*
X12321253Y-9387389D02*
X12311729Y-9349293D01*
X12311729Y-9349293D02*
X12311729Y-9301674D01*
X12311729Y-9301674D02*
X12321253Y-9263579D01*
X12321253Y-9263579D02*
X12330777Y-9244531D01*
X12330777Y-9244531D02*
X12340301Y-9235008D01*
X12340301Y-9235008D02*
X12359348Y-9225484D01*
X12502206Y-9244531D02*
X12511729Y-9235008D01*
X12511729Y-9235008D02*
X12530777Y-9225484D01*
X12530777Y-9225484D02*
X12578396Y-9225484D01*
X12578396Y-9225484D02*
X12597444Y-9235008D01*
X12597444Y-9235008D02*
X12606967Y-9244531D01*
X12606967Y-9244531D02*
X12616491Y-9263579D01*
X12616491Y-9263579D02*
X12616491Y-9282627D01*
X12616491Y-9282627D02*
X12606967Y-9311198D01*
X12606967Y-9311198D02*
X12492682Y-9425484D01*
X12492682Y-9425484D02*
X12616491Y-9425484D01*
X12730777Y-9311198D02*
X12711729Y-9301674D01*
X12711729Y-9301674D02*
X12702206Y-9292150D01*
X12702206Y-9292150D02*
X12692682Y-9273103D01*
X12692682Y-9273103D02*
X12692682Y-9263579D01*
X12692682Y-9263579D02*
X12702206Y-9244531D01*
X12702206Y-9244531D02*
X12711729Y-9235008D01*
X12711729Y-9235008D02*
X12730777Y-9225484D01*
X12730777Y-9225484D02*
X12768872Y-9225484D01*
X12768872Y-9225484D02*
X12787920Y-9235008D01*
X12787920Y-9235008D02*
X12797444Y-9244531D01*
X12797444Y-9244531D02*
X12806967Y-9263579D01*
X12806967Y-9263579D02*
X12806967Y-9273103D01*
X12806967Y-9273103D02*
X12797444Y-9292150D01*
X12797444Y-9292150D02*
X12787920Y-9301674D01*
X12787920Y-9301674D02*
X12768872Y-9311198D01*
X12768872Y-9311198D02*
X12730777Y-9311198D01*
X12730777Y-9311198D02*
X12711729Y-9320722D01*
X12711729Y-9320722D02*
X12702206Y-9330246D01*
X12702206Y-9330246D02*
X12692682Y-9349293D01*
X12692682Y-9349293D02*
X12692682Y-9387389D01*
X12692682Y-9387389D02*
X12702206Y-9406436D01*
X12702206Y-9406436D02*
X12711729Y-9415960D01*
X12711729Y-9415960D02*
X12730777Y-9425484D01*
X12730777Y-9425484D02*
X12768872Y-9425484D01*
X12768872Y-9425484D02*
X12787920Y-9415960D01*
X12787920Y-9415960D02*
X12797444Y-9406436D01*
X12797444Y-9406436D02*
X12806967Y-9387389D01*
X12806967Y-9387389D02*
X12806967Y-9349293D01*
X12806967Y-9349293D02*
X12797444Y-9330246D01*
X12797444Y-9330246D02*
X12787920Y-9320722D01*
X12787920Y-9320722D02*
X12768872Y-9311198D01*
X12930777Y-9225484D02*
X12949825Y-9225484D01*
X12949825Y-9225484D02*
X12968872Y-9235008D01*
X12968872Y-9235008D02*
X12978396Y-9244531D01*
X12978396Y-9244531D02*
X12987920Y-9263579D01*
X12987920Y-9263579D02*
X12997444Y-9301674D01*
X12997444Y-9301674D02*
X12997444Y-9349293D01*
X12997444Y-9349293D02*
X12987920Y-9387389D01*
X12987920Y-9387389D02*
X12978396Y-9406436D01*
X12978396Y-9406436D02*
X12968872Y-9415960D01*
X12968872Y-9415960D02*
X12949825Y-9425484D01*
X12949825Y-9425484D02*
X12930777Y-9425484D01*
X12930777Y-9425484D02*
X12911729Y-9415960D01*
X12911729Y-9415960D02*
X12902206Y-9406436D01*
X12902206Y-9406436D02*
X12892682Y-9387389D01*
X12892682Y-9387389D02*
X12883158Y-9349293D01*
X12883158Y-9349293D02*
X12883158Y-9301674D01*
X12883158Y-9301674D02*
X12892682Y-9263579D01*
X12892682Y-9263579D02*
X12902206Y-9244531D01*
X12902206Y-9244531D02*
X12911729Y-9235008D01*
X12911729Y-9235008D02*
X12930777Y-9225484D01*
X13073634Y-9225484D02*
X13073634Y-9263579D01*
X13149825Y-9225484D02*
X13149825Y-9263579D01*
X13445063Y-9501674D02*
X13435539Y-9492150D01*
X13435539Y-9492150D02*
X13416491Y-9463579D01*
X13416491Y-9463579D02*
X13406968Y-9444531D01*
X13406968Y-9444531D02*
X13397444Y-9415960D01*
X13397444Y-9415960D02*
X13387920Y-9368341D01*
X13387920Y-9368341D02*
X13387920Y-9330246D01*
X13387920Y-9330246D02*
X13397444Y-9282627D01*
X13397444Y-9282627D02*
X13406968Y-9254055D01*
X13406968Y-9254055D02*
X13416491Y-9235008D01*
X13416491Y-9235008D02*
X13435539Y-9206436D01*
X13435539Y-9206436D02*
X13445063Y-9196912D01*
X13502206Y-9225484D02*
X13626015Y-9225484D01*
X13626015Y-9225484D02*
X13559348Y-9301674D01*
X13559348Y-9301674D02*
X13587920Y-9301674D01*
X13587920Y-9301674D02*
X13606968Y-9311198D01*
X13606968Y-9311198D02*
X13616491Y-9320722D01*
X13616491Y-9320722D02*
X13626015Y-9339770D01*
X13626015Y-9339770D02*
X13626015Y-9387389D01*
X13626015Y-9387389D02*
X13616491Y-9406436D01*
X13616491Y-9406436D02*
X13606968Y-9415960D01*
X13606968Y-9415960D02*
X13587920Y-9425484D01*
X13587920Y-9425484D02*
X13530777Y-9425484D01*
X13530777Y-9425484D02*
X13511729Y-9415960D01*
X13511729Y-9415960D02*
X13502206Y-9406436D01*
X13864110Y-9425484D02*
X13864110Y-9225484D01*
X13949825Y-9425484D02*
X13949825Y-9320722D01*
X13949825Y-9320722D02*
X13940301Y-9301674D01*
X13940301Y-9301674D02*
X13921253Y-9292150D01*
X13921253Y-9292150D02*
X13892682Y-9292150D01*
X13892682Y-9292150D02*
X13873634Y-9301674D01*
X13873634Y-9301674D02*
X13864110Y-9311198D01*
X14073634Y-9425484D02*
X14054587Y-9415960D01*
X14054587Y-9415960D02*
X14045063Y-9406436D01*
X14045063Y-9406436D02*
X14035539Y-9387389D01*
X14035539Y-9387389D02*
X14035539Y-9330246D01*
X14035539Y-9330246D02*
X14045063Y-9311198D01*
X14045063Y-9311198D02*
X14054587Y-9301674D01*
X14054587Y-9301674D02*
X14073634Y-9292150D01*
X14073634Y-9292150D02*
X14102206Y-9292150D01*
X14102206Y-9292150D02*
X14121253Y-9301674D01*
X14121253Y-9301674D02*
X14130777Y-9311198D01*
X14130777Y-9311198D02*
X14140301Y-9330246D01*
X14140301Y-9330246D02*
X14140301Y-9387389D01*
X14140301Y-9387389D02*
X14130777Y-9406436D01*
X14130777Y-9406436D02*
X14121253Y-9415960D01*
X14121253Y-9415960D02*
X14102206Y-9425484D01*
X14102206Y-9425484D02*
X14073634Y-9425484D01*
X14254587Y-9425484D02*
X14235539Y-9415960D01*
X14235539Y-9415960D02*
X14226015Y-9396912D01*
X14226015Y-9396912D02*
X14226015Y-9225484D01*
X14406968Y-9415960D02*
X14387920Y-9425484D01*
X14387920Y-9425484D02*
X14349825Y-9425484D01*
X14349825Y-9425484D02*
X14330777Y-9415960D01*
X14330777Y-9415960D02*
X14321253Y-9396912D01*
X14321253Y-9396912D02*
X14321253Y-9320722D01*
X14321253Y-9320722D02*
X14330777Y-9301674D01*
X14330777Y-9301674D02*
X14349825Y-9292150D01*
X14349825Y-9292150D02*
X14387920Y-9292150D01*
X14387920Y-9292150D02*
X14406968Y-9301674D01*
X14406968Y-9301674D02*
X14416491Y-9320722D01*
X14416491Y-9320722D02*
X14416491Y-9339770D01*
X14416491Y-9339770D02*
X14321253Y-9358817D01*
X14492682Y-9415960D02*
X14511730Y-9425484D01*
X14511730Y-9425484D02*
X14549825Y-9425484D01*
X14549825Y-9425484D02*
X14568872Y-9415960D01*
X14568872Y-9415960D02*
X14578396Y-9396912D01*
X14578396Y-9396912D02*
X14578396Y-9387389D01*
X14578396Y-9387389D02*
X14568872Y-9368341D01*
X14568872Y-9368341D02*
X14549825Y-9358817D01*
X14549825Y-9358817D02*
X14521253Y-9358817D01*
X14521253Y-9358817D02*
X14502206Y-9349293D01*
X14502206Y-9349293D02*
X14492682Y-9330246D01*
X14492682Y-9330246D02*
X14492682Y-9320722D01*
X14492682Y-9320722D02*
X14502206Y-9301674D01*
X14502206Y-9301674D02*
X14521253Y-9292150D01*
X14521253Y-9292150D02*
X14549825Y-9292150D01*
X14549825Y-9292150D02*
X14568872Y-9301674D01*
X14645063Y-9501674D02*
X14654587Y-9492150D01*
X14654587Y-9492150D02*
X14673634Y-9463579D01*
X14673634Y-9463579D02*
X14683158Y-9444531D01*
X14683158Y-9444531D02*
X14692682Y-9415960D01*
X14692682Y-9415960D02*
X14702206Y-9368341D01*
X14702206Y-9368341D02*
X14702206Y-9330246D01*
X14702206Y-9330246D02*
X14692682Y-9282627D01*
X14692682Y-9282627D02*
X14683158Y-9254055D01*
X14683158Y-9254055D02*
X14673634Y-9235008D01*
X14673634Y-9235008D02*
X14654587Y-9206436D01*
X14654587Y-9206436D02*
X14645063Y-9196912D01*
D10*
X9830000Y-9558000D02*
X9830000Y-9638000D01*
X9790000Y-9598000D02*
X9870000Y-9598000D01*
D11*
X10168872Y-9489484D02*
X10187920Y-9489484D01*
X10187920Y-9489484D02*
X10206967Y-9499008D01*
X10206967Y-9499008D02*
X10216491Y-9508531D01*
X10216491Y-9508531D02*
X10226015Y-9527579D01*
X10226015Y-9527579D02*
X10235539Y-9565674D01*
X10235539Y-9565674D02*
X10235539Y-9613293D01*
X10235539Y-9613293D02*
X10226015Y-9651389D01*
X10226015Y-9651389D02*
X10216491Y-9670436D01*
X10216491Y-9670436D02*
X10206967Y-9679960D01*
X10206967Y-9679960D02*
X10187920Y-9689484D01*
X10187920Y-9689484D02*
X10168872Y-9689484D01*
X10168872Y-9689484D02*
X10149824Y-9679960D01*
X10149824Y-9679960D02*
X10140301Y-9670436D01*
X10140301Y-9670436D02*
X10130777Y-9651389D01*
X10130777Y-9651389D02*
X10121253Y-9613293D01*
X10121253Y-9613293D02*
X10121253Y-9565674D01*
X10121253Y-9565674D02*
X10130777Y-9527579D01*
X10130777Y-9527579D02*
X10140301Y-9508531D01*
X10140301Y-9508531D02*
X10149824Y-9499008D01*
X10149824Y-9499008D02*
X10168872Y-9489484D01*
X10321253Y-9670436D02*
X10330777Y-9679960D01*
X10330777Y-9679960D02*
X10321253Y-9689484D01*
X10321253Y-9689484D02*
X10311729Y-9679960D01*
X10311729Y-9679960D02*
X10321253Y-9670436D01*
X10321253Y-9670436D02*
X10321253Y-9689484D01*
X10445063Y-9575198D02*
X10426015Y-9565674D01*
X10426015Y-9565674D02*
X10416491Y-9556150D01*
X10416491Y-9556150D02*
X10406967Y-9537103D01*
X10406967Y-9537103D02*
X10406967Y-9527579D01*
X10406967Y-9527579D02*
X10416491Y-9508531D01*
X10416491Y-9508531D02*
X10426015Y-9499008D01*
X10426015Y-9499008D02*
X10445063Y-9489484D01*
X10445063Y-9489484D02*
X10483158Y-9489484D01*
X10483158Y-9489484D02*
X10502205Y-9499008D01*
X10502205Y-9499008D02*
X10511729Y-9508531D01*
X10511729Y-9508531D02*
X10521253Y-9527579D01*
X10521253Y-9527579D02*
X10521253Y-9537103D01*
X10521253Y-9537103D02*
X10511729Y-9556150D01*
X10511729Y-9556150D02*
X10502205Y-9565674D01*
X10502205Y-9565674D02*
X10483158Y-9575198D01*
X10483158Y-9575198D02*
X10445063Y-9575198D01*
X10445063Y-9575198D02*
X10426015Y-9584722D01*
X10426015Y-9584722D02*
X10416491Y-9594246D01*
X10416491Y-9594246D02*
X10406967Y-9613293D01*
X10406967Y-9613293D02*
X10406967Y-9651389D01*
X10406967Y-9651389D02*
X10416491Y-9670436D01*
X10416491Y-9670436D02*
X10426015Y-9679960D01*
X10426015Y-9679960D02*
X10445063Y-9689484D01*
X10445063Y-9689484D02*
X10483158Y-9689484D01*
X10483158Y-9689484D02*
X10502205Y-9679960D01*
X10502205Y-9679960D02*
X10511729Y-9670436D01*
X10511729Y-9670436D02*
X10521253Y-9651389D01*
X10521253Y-9651389D02*
X10521253Y-9613293D01*
X10521253Y-9613293D02*
X10511729Y-9594246D01*
X10511729Y-9594246D02*
X10502205Y-9584722D01*
X10502205Y-9584722D02*
X10483158Y-9575198D01*
X10645063Y-9489484D02*
X10664110Y-9489484D01*
X10664110Y-9489484D02*
X10683158Y-9499008D01*
X10683158Y-9499008D02*
X10692682Y-9508531D01*
X10692682Y-9508531D02*
X10702205Y-9527579D01*
X10702205Y-9527579D02*
X10711729Y-9565674D01*
X10711729Y-9565674D02*
X10711729Y-9613293D01*
X10711729Y-9613293D02*
X10702205Y-9651389D01*
X10702205Y-9651389D02*
X10692682Y-9670436D01*
X10692682Y-9670436D02*
X10683158Y-9679960D01*
X10683158Y-9679960D02*
X10664110Y-9689484D01*
X10664110Y-9689484D02*
X10645063Y-9689484D01*
X10645063Y-9689484D02*
X10626015Y-9679960D01*
X10626015Y-9679960D02*
X10616491Y-9670436D01*
X10616491Y-9670436D02*
X10606967Y-9651389D01*
X10606967Y-9651389D02*
X10597444Y-9613293D01*
X10597444Y-9613293D02*
X10597444Y-9565674D01*
X10597444Y-9565674D02*
X10606967Y-9527579D01*
X10606967Y-9527579D02*
X10616491Y-9508531D01*
X10616491Y-9508531D02*
X10626015Y-9499008D01*
X10626015Y-9499008D02*
X10645063Y-9489484D01*
X10835539Y-9489484D02*
X10854586Y-9489484D01*
X10854586Y-9489484D02*
X10873634Y-9499008D01*
X10873634Y-9499008D02*
X10883158Y-9508531D01*
X10883158Y-9508531D02*
X10892682Y-9527579D01*
X10892682Y-9527579D02*
X10902205Y-9565674D01*
X10902205Y-9565674D02*
X10902205Y-9613293D01*
X10902205Y-9613293D02*
X10892682Y-9651389D01*
X10892682Y-9651389D02*
X10883158Y-9670436D01*
X10883158Y-9670436D02*
X10873634Y-9679960D01*
X10873634Y-9679960D02*
X10854586Y-9689484D01*
X10854586Y-9689484D02*
X10835539Y-9689484D01*
X10835539Y-9689484D02*
X10816491Y-9679960D01*
X10816491Y-9679960D02*
X10806967Y-9670436D01*
X10806967Y-9670436D02*
X10797444Y-9651389D01*
X10797444Y-9651389D02*
X10787920Y-9613293D01*
X10787920Y-9613293D02*
X10787920Y-9565674D01*
X10787920Y-9565674D02*
X10797444Y-9527579D01*
X10797444Y-9527579D02*
X10806967Y-9508531D01*
X10806967Y-9508531D02*
X10816491Y-9499008D01*
X10816491Y-9499008D02*
X10835539Y-9489484D01*
X10987920Y-9689484D02*
X10987920Y-9556150D01*
X10987920Y-9575198D02*
X10997444Y-9565674D01*
X10997444Y-9565674D02*
X11016491Y-9556150D01*
X11016491Y-9556150D02*
X11045063Y-9556150D01*
X11045063Y-9556150D02*
X11064110Y-9565674D01*
X11064110Y-9565674D02*
X11073634Y-9584722D01*
X11073634Y-9584722D02*
X11073634Y-9689484D01*
X11073634Y-9584722D02*
X11083158Y-9565674D01*
X11083158Y-9565674D02*
X11102205Y-9556150D01*
X11102205Y-9556150D02*
X11130777Y-9556150D01*
X11130777Y-9556150D02*
X11149825Y-9565674D01*
X11149825Y-9565674D02*
X11159348Y-9584722D01*
X11159348Y-9584722D02*
X11159348Y-9689484D01*
X11254586Y-9689484D02*
X11254586Y-9556150D01*
X11254586Y-9575198D02*
X11264110Y-9565674D01*
X11264110Y-9565674D02*
X11283158Y-9556150D01*
X11283158Y-9556150D02*
X11311729Y-9556150D01*
X11311729Y-9556150D02*
X11330777Y-9565674D01*
X11330777Y-9565674D02*
X11340301Y-9584722D01*
X11340301Y-9584722D02*
X11340301Y-9689484D01*
X11340301Y-9584722D02*
X11349824Y-9565674D01*
X11349824Y-9565674D02*
X11368872Y-9556150D01*
X11368872Y-9556150D02*
X11397443Y-9556150D01*
X11397443Y-9556150D02*
X11416491Y-9565674D01*
X11416491Y-9565674D02*
X11426015Y-9584722D01*
X11426015Y-9584722D02*
X11426015Y-9689484D01*
X11816491Y-9479960D02*
X11645063Y-9737103D01*
X12073634Y-9489484D02*
X12092682Y-9489484D01*
X12092682Y-9489484D02*
X12111729Y-9499008D01*
X12111729Y-9499008D02*
X12121253Y-9508531D01*
X12121253Y-9508531D02*
X12130777Y-9527579D01*
X12130777Y-9527579D02*
X12140301Y-9565674D01*
X12140301Y-9565674D02*
X12140301Y-9613293D01*
X12140301Y-9613293D02*
X12130777Y-9651389D01*
X12130777Y-9651389D02*
X12121253Y-9670436D01*
X12121253Y-9670436D02*
X12111729Y-9679960D01*
X12111729Y-9679960D02*
X12092682Y-9689484D01*
X12092682Y-9689484D02*
X12073634Y-9689484D01*
X12073634Y-9689484D02*
X12054586Y-9679960D01*
X12054586Y-9679960D02*
X12045063Y-9670436D01*
X12045063Y-9670436D02*
X12035539Y-9651389D01*
X12035539Y-9651389D02*
X12026015Y-9613293D01*
X12026015Y-9613293D02*
X12026015Y-9565674D01*
X12026015Y-9565674D02*
X12035539Y-9527579D01*
X12035539Y-9527579D02*
X12045063Y-9508531D01*
X12045063Y-9508531D02*
X12054586Y-9499008D01*
X12054586Y-9499008D02*
X12073634Y-9489484D01*
X12226015Y-9670436D02*
X12235539Y-9679960D01*
X12235539Y-9679960D02*
X12226015Y-9689484D01*
X12226015Y-9689484D02*
X12216491Y-9679960D01*
X12216491Y-9679960D02*
X12226015Y-9670436D01*
X12226015Y-9670436D02*
X12226015Y-9689484D01*
X12359348Y-9489484D02*
X12378396Y-9489484D01*
X12378396Y-9489484D02*
X12397444Y-9499008D01*
X12397444Y-9499008D02*
X12406967Y-9508531D01*
X12406967Y-9508531D02*
X12416491Y-9527579D01*
X12416491Y-9527579D02*
X12426015Y-9565674D01*
X12426015Y-9565674D02*
X12426015Y-9613293D01*
X12426015Y-9613293D02*
X12416491Y-9651389D01*
X12416491Y-9651389D02*
X12406967Y-9670436D01*
X12406967Y-9670436D02*
X12397444Y-9679960D01*
X12397444Y-9679960D02*
X12378396Y-9689484D01*
X12378396Y-9689484D02*
X12359348Y-9689484D01*
X12359348Y-9689484D02*
X12340301Y-9679960D01*
X12340301Y-9679960D02*
X12330777Y-9670436D01*
X12330777Y-9670436D02*
X12321253Y-9651389D01*
X12321253Y-9651389D02*
X12311729Y-9613293D01*
X12311729Y-9613293D02*
X12311729Y-9565674D01*
X12311729Y-9565674D02*
X12321253Y-9527579D01*
X12321253Y-9527579D02*
X12330777Y-9508531D01*
X12330777Y-9508531D02*
X12340301Y-9499008D01*
X12340301Y-9499008D02*
X12359348Y-9489484D01*
X12492682Y-9489484D02*
X12616491Y-9489484D01*
X12616491Y-9489484D02*
X12549825Y-9565674D01*
X12549825Y-9565674D02*
X12578396Y-9565674D01*
X12578396Y-9565674D02*
X12597444Y-9575198D01*
X12597444Y-9575198D02*
X12606967Y-9584722D01*
X12606967Y-9584722D02*
X12616491Y-9603770D01*
X12616491Y-9603770D02*
X12616491Y-9651389D01*
X12616491Y-9651389D02*
X12606967Y-9670436D01*
X12606967Y-9670436D02*
X12597444Y-9679960D01*
X12597444Y-9679960D02*
X12578396Y-9689484D01*
X12578396Y-9689484D02*
X12521253Y-9689484D01*
X12521253Y-9689484D02*
X12502206Y-9679960D01*
X12502206Y-9679960D02*
X12492682Y-9670436D01*
X12806967Y-9689484D02*
X12692682Y-9689484D01*
X12749825Y-9689484D02*
X12749825Y-9489484D01*
X12749825Y-9489484D02*
X12730777Y-9518055D01*
X12730777Y-9518055D02*
X12711729Y-9537103D01*
X12711729Y-9537103D02*
X12692682Y-9546627D01*
X12987920Y-9489484D02*
X12892682Y-9489484D01*
X12892682Y-9489484D02*
X12883158Y-9584722D01*
X12883158Y-9584722D02*
X12892682Y-9575198D01*
X12892682Y-9575198D02*
X12911729Y-9565674D01*
X12911729Y-9565674D02*
X12959348Y-9565674D01*
X12959348Y-9565674D02*
X12978396Y-9575198D01*
X12978396Y-9575198D02*
X12987920Y-9584722D01*
X12987920Y-9584722D02*
X12997444Y-9603770D01*
X12997444Y-9603770D02*
X12997444Y-9651389D01*
X12997444Y-9651389D02*
X12987920Y-9670436D01*
X12987920Y-9670436D02*
X12978396Y-9679960D01*
X12978396Y-9679960D02*
X12959348Y-9689484D01*
X12959348Y-9689484D02*
X12911729Y-9689484D01*
X12911729Y-9689484D02*
X12892682Y-9679960D01*
X12892682Y-9679960D02*
X12883158Y-9670436D01*
X13073634Y-9489484D02*
X13073634Y-9527579D01*
X13149825Y-9489484D02*
X13149825Y-9527579D01*
X13445063Y-9765674D02*
X13435539Y-9756150D01*
X13435539Y-9756150D02*
X13416491Y-9727579D01*
X13416491Y-9727579D02*
X13406968Y-9708531D01*
X13406968Y-9708531D02*
X13397444Y-9679960D01*
X13397444Y-9679960D02*
X13387920Y-9632341D01*
X13387920Y-9632341D02*
X13387920Y-9594246D01*
X13387920Y-9594246D02*
X13397444Y-9546627D01*
X13397444Y-9546627D02*
X13406968Y-9518055D01*
X13406968Y-9518055D02*
X13416491Y-9499008D01*
X13416491Y-9499008D02*
X13435539Y-9470436D01*
X13435539Y-9470436D02*
X13445063Y-9460912D01*
X13511729Y-9508531D02*
X13521253Y-9499008D01*
X13521253Y-9499008D02*
X13540301Y-9489484D01*
X13540301Y-9489484D02*
X13587920Y-9489484D01*
X13587920Y-9489484D02*
X13606968Y-9499008D01*
X13606968Y-9499008D02*
X13616491Y-9508531D01*
X13616491Y-9508531D02*
X13626015Y-9527579D01*
X13626015Y-9527579D02*
X13626015Y-9546627D01*
X13626015Y-9546627D02*
X13616491Y-9575198D01*
X13616491Y-9575198D02*
X13502206Y-9689484D01*
X13502206Y-9689484D02*
X13626015Y-9689484D01*
X13864110Y-9689484D02*
X13864110Y-9489484D01*
X13949825Y-9689484D02*
X13949825Y-9584722D01*
X13949825Y-9584722D02*
X13940301Y-9565674D01*
X13940301Y-9565674D02*
X13921253Y-9556150D01*
X13921253Y-9556150D02*
X13892682Y-9556150D01*
X13892682Y-9556150D02*
X13873634Y-9565674D01*
X13873634Y-9565674D02*
X13864110Y-9575198D01*
X14073634Y-9689484D02*
X14054587Y-9679960D01*
X14054587Y-9679960D02*
X14045063Y-9670436D01*
X14045063Y-9670436D02*
X14035539Y-9651389D01*
X14035539Y-9651389D02*
X14035539Y-9594246D01*
X14035539Y-9594246D02*
X14045063Y-9575198D01*
X14045063Y-9575198D02*
X14054587Y-9565674D01*
X14054587Y-9565674D02*
X14073634Y-9556150D01*
X14073634Y-9556150D02*
X14102206Y-9556150D01*
X14102206Y-9556150D02*
X14121253Y-9565674D01*
X14121253Y-9565674D02*
X14130777Y-9575198D01*
X14130777Y-9575198D02*
X14140301Y-9594246D01*
X14140301Y-9594246D02*
X14140301Y-9651389D01*
X14140301Y-9651389D02*
X14130777Y-9670436D01*
X14130777Y-9670436D02*
X14121253Y-9679960D01*
X14121253Y-9679960D02*
X14102206Y-9689484D01*
X14102206Y-9689484D02*
X14073634Y-9689484D01*
X14254587Y-9689484D02*
X14235539Y-9679960D01*
X14235539Y-9679960D02*
X14226015Y-9660912D01*
X14226015Y-9660912D02*
X14226015Y-9489484D01*
X14406968Y-9679960D02*
X14387920Y-9689484D01*
X14387920Y-9689484D02*
X14349825Y-9689484D01*
X14349825Y-9689484D02*
X14330777Y-9679960D01*
X14330777Y-9679960D02*
X14321253Y-9660912D01*
X14321253Y-9660912D02*
X14321253Y-9584722D01*
X14321253Y-9584722D02*
X14330777Y-9565674D01*
X14330777Y-9565674D02*
X14349825Y-9556150D01*
X14349825Y-9556150D02*
X14387920Y-9556150D01*
X14387920Y-9556150D02*
X14406968Y-9565674D01*
X14406968Y-9565674D02*
X14416491Y-9584722D01*
X14416491Y-9584722D02*
X14416491Y-9603770D01*
X14416491Y-9603770D02*
X14321253Y-9622817D01*
X14492682Y-9679960D02*
X14511730Y-9689484D01*
X14511730Y-9689484D02*
X14549825Y-9689484D01*
X14549825Y-9689484D02*
X14568872Y-9679960D01*
X14568872Y-9679960D02*
X14578396Y-9660912D01*
X14578396Y-9660912D02*
X14578396Y-9651389D01*
X14578396Y-9651389D02*
X14568872Y-9632341D01*
X14568872Y-9632341D02*
X14549825Y-9622817D01*
X14549825Y-9622817D02*
X14521253Y-9622817D01*
X14521253Y-9622817D02*
X14502206Y-9613293D01*
X14502206Y-9613293D02*
X14492682Y-9594246D01*
X14492682Y-9594246D02*
X14492682Y-9584722D01*
X14492682Y-9584722D02*
X14502206Y-9565674D01*
X14502206Y-9565674D02*
X14521253Y-9556150D01*
X14521253Y-9556150D02*
X14549825Y-9556150D01*
X14549825Y-9556150D02*
X14568872Y-9565674D01*
X14645063Y-9765674D02*
X14654587Y-9756150D01*
X14654587Y-9756150D02*
X14673634Y-9727579D01*
X14673634Y-9727579D02*
X14683158Y-9708531D01*
X14683158Y-9708531D02*
X14692682Y-9679960D01*
X14692682Y-9679960D02*
X14702206Y-9632341D01*
X14702206Y-9632341D02*
X14702206Y-9594246D01*
X14702206Y-9594246D02*
X14692682Y-9546627D01*
X14692682Y-9546627D02*
X14683158Y-9518055D01*
X14683158Y-9518055D02*
X14673634Y-9499008D01*
X14673634Y-9499008D02*
X14654587Y-9470436D01*
X14654587Y-9470436D02*
X14645063Y-9460912D01*
D10*
X9857552Y-9892052D02*
X9857552Y-9831948D01*
X9797448Y-9831948D01*
X9797448Y-9892052D01*
X9857552Y-9892052D01*
D11*
X10168872Y-9753484D02*
X10187920Y-9753484D01*
X10187920Y-9753484D02*
X10206967Y-9763008D01*
X10206967Y-9763008D02*
X10216491Y-9772531D01*
X10216491Y-9772531D02*
X10226015Y-9791579D01*
X10226015Y-9791579D02*
X10235539Y-9829674D01*
X10235539Y-9829674D02*
X10235539Y-9877293D01*
X10235539Y-9877293D02*
X10226015Y-9915389D01*
X10226015Y-9915389D02*
X10216491Y-9934436D01*
X10216491Y-9934436D02*
X10206967Y-9943960D01*
X10206967Y-9943960D02*
X10187920Y-9953484D01*
X10187920Y-9953484D02*
X10168872Y-9953484D01*
X10168872Y-9953484D02*
X10149824Y-9943960D01*
X10149824Y-9943960D02*
X10140301Y-9934436D01*
X10140301Y-9934436D02*
X10130777Y-9915389D01*
X10130777Y-9915389D02*
X10121253Y-9877293D01*
X10121253Y-9877293D02*
X10121253Y-9829674D01*
X10121253Y-9829674D02*
X10130777Y-9791579D01*
X10130777Y-9791579D02*
X10140301Y-9772531D01*
X10140301Y-9772531D02*
X10149824Y-9763008D01*
X10149824Y-9763008D02*
X10168872Y-9753484D01*
X10321253Y-9934436D02*
X10330777Y-9943960D01*
X10330777Y-9943960D02*
X10321253Y-9953484D01*
X10321253Y-9953484D02*
X10311729Y-9943960D01*
X10311729Y-9943960D02*
X10321253Y-9934436D01*
X10321253Y-9934436D02*
X10321253Y-9953484D01*
X10445063Y-9839198D02*
X10426015Y-9829674D01*
X10426015Y-9829674D02*
X10416491Y-9820150D01*
X10416491Y-9820150D02*
X10406967Y-9801103D01*
X10406967Y-9801103D02*
X10406967Y-9791579D01*
X10406967Y-9791579D02*
X10416491Y-9772531D01*
X10416491Y-9772531D02*
X10426015Y-9763008D01*
X10426015Y-9763008D02*
X10445063Y-9753484D01*
X10445063Y-9753484D02*
X10483158Y-9753484D01*
X10483158Y-9753484D02*
X10502205Y-9763008D01*
X10502205Y-9763008D02*
X10511729Y-9772531D01*
X10511729Y-9772531D02*
X10521253Y-9791579D01*
X10521253Y-9791579D02*
X10521253Y-9801103D01*
X10521253Y-9801103D02*
X10511729Y-9820150D01*
X10511729Y-9820150D02*
X10502205Y-9829674D01*
X10502205Y-9829674D02*
X10483158Y-9839198D01*
X10483158Y-9839198D02*
X10445063Y-9839198D01*
X10445063Y-9839198D02*
X10426015Y-9848722D01*
X10426015Y-9848722D02*
X10416491Y-9858246D01*
X10416491Y-9858246D02*
X10406967Y-9877293D01*
X10406967Y-9877293D02*
X10406967Y-9915389D01*
X10406967Y-9915389D02*
X10416491Y-9934436D01*
X10416491Y-9934436D02*
X10426015Y-9943960D01*
X10426015Y-9943960D02*
X10445063Y-9953484D01*
X10445063Y-9953484D02*
X10483158Y-9953484D01*
X10483158Y-9953484D02*
X10502205Y-9943960D01*
X10502205Y-9943960D02*
X10511729Y-9934436D01*
X10511729Y-9934436D02*
X10521253Y-9915389D01*
X10521253Y-9915389D02*
X10521253Y-9877293D01*
X10521253Y-9877293D02*
X10511729Y-9858246D01*
X10511729Y-9858246D02*
X10502205Y-9848722D01*
X10502205Y-9848722D02*
X10483158Y-9839198D01*
X10702205Y-9753484D02*
X10606967Y-9753484D01*
X10606967Y-9753484D02*
X10597444Y-9848722D01*
X10597444Y-9848722D02*
X10606967Y-9839198D01*
X10606967Y-9839198D02*
X10626015Y-9829674D01*
X10626015Y-9829674D02*
X10673634Y-9829674D01*
X10673634Y-9829674D02*
X10692682Y-9839198D01*
X10692682Y-9839198D02*
X10702205Y-9848722D01*
X10702205Y-9848722D02*
X10711729Y-9867770D01*
X10711729Y-9867770D02*
X10711729Y-9915389D01*
X10711729Y-9915389D02*
X10702205Y-9934436D01*
X10702205Y-9934436D02*
X10692682Y-9943960D01*
X10692682Y-9943960D02*
X10673634Y-9953484D01*
X10673634Y-9953484D02*
X10626015Y-9953484D01*
X10626015Y-9953484D02*
X10606967Y-9943960D01*
X10606967Y-9943960D02*
X10597444Y-9934436D01*
X10835539Y-9753484D02*
X10854586Y-9753484D01*
X10854586Y-9753484D02*
X10873634Y-9763008D01*
X10873634Y-9763008D02*
X10883158Y-9772531D01*
X10883158Y-9772531D02*
X10892682Y-9791579D01*
X10892682Y-9791579D02*
X10902205Y-9829674D01*
X10902205Y-9829674D02*
X10902205Y-9877293D01*
X10902205Y-9877293D02*
X10892682Y-9915389D01*
X10892682Y-9915389D02*
X10883158Y-9934436D01*
X10883158Y-9934436D02*
X10873634Y-9943960D01*
X10873634Y-9943960D02*
X10854586Y-9953484D01*
X10854586Y-9953484D02*
X10835539Y-9953484D01*
X10835539Y-9953484D02*
X10816491Y-9943960D01*
X10816491Y-9943960D02*
X10806967Y-9934436D01*
X10806967Y-9934436D02*
X10797444Y-9915389D01*
X10797444Y-9915389D02*
X10787920Y-9877293D01*
X10787920Y-9877293D02*
X10787920Y-9829674D01*
X10787920Y-9829674D02*
X10797444Y-9791579D01*
X10797444Y-9791579D02*
X10806967Y-9772531D01*
X10806967Y-9772531D02*
X10816491Y-9763008D01*
X10816491Y-9763008D02*
X10835539Y-9753484D01*
X10987920Y-9953484D02*
X10987920Y-9820150D01*
X10987920Y-9839198D02*
X10997444Y-9829674D01*
X10997444Y-9829674D02*
X11016491Y-9820150D01*
X11016491Y-9820150D02*
X11045063Y-9820150D01*
X11045063Y-9820150D02*
X11064110Y-9829674D01*
X11064110Y-9829674D02*
X11073634Y-9848722D01*
X11073634Y-9848722D02*
X11073634Y-9953484D01*
X11073634Y-9848722D02*
X11083158Y-9829674D01*
X11083158Y-9829674D02*
X11102205Y-9820150D01*
X11102205Y-9820150D02*
X11130777Y-9820150D01*
X11130777Y-9820150D02*
X11149825Y-9829674D01*
X11149825Y-9829674D02*
X11159348Y-9848722D01*
X11159348Y-9848722D02*
X11159348Y-9953484D01*
X11254586Y-9953484D02*
X11254586Y-9820150D01*
X11254586Y-9839198D02*
X11264110Y-9829674D01*
X11264110Y-9829674D02*
X11283158Y-9820150D01*
X11283158Y-9820150D02*
X11311729Y-9820150D01*
X11311729Y-9820150D02*
X11330777Y-9829674D01*
X11330777Y-9829674D02*
X11340301Y-9848722D01*
X11340301Y-9848722D02*
X11340301Y-9953484D01*
X11340301Y-9848722D02*
X11349824Y-9829674D01*
X11349824Y-9829674D02*
X11368872Y-9820150D01*
X11368872Y-9820150D02*
X11397443Y-9820150D01*
X11397443Y-9820150D02*
X11416491Y-9829674D01*
X11416491Y-9829674D02*
X11426015Y-9848722D01*
X11426015Y-9848722D02*
X11426015Y-9953484D01*
X11816491Y-9743960D02*
X11645063Y-10001103D01*
X12073634Y-9753484D02*
X12092682Y-9753484D01*
X12092682Y-9753484D02*
X12111729Y-9763008D01*
X12111729Y-9763008D02*
X12121253Y-9772531D01*
X12121253Y-9772531D02*
X12130777Y-9791579D01*
X12130777Y-9791579D02*
X12140301Y-9829674D01*
X12140301Y-9829674D02*
X12140301Y-9877293D01*
X12140301Y-9877293D02*
X12130777Y-9915389D01*
X12130777Y-9915389D02*
X12121253Y-9934436D01*
X12121253Y-9934436D02*
X12111729Y-9943960D01*
X12111729Y-9943960D02*
X12092682Y-9953484D01*
X12092682Y-9953484D02*
X12073634Y-9953484D01*
X12073634Y-9953484D02*
X12054586Y-9943960D01*
X12054586Y-9943960D02*
X12045063Y-9934436D01*
X12045063Y-9934436D02*
X12035539Y-9915389D01*
X12035539Y-9915389D02*
X12026015Y-9877293D01*
X12026015Y-9877293D02*
X12026015Y-9829674D01*
X12026015Y-9829674D02*
X12035539Y-9791579D01*
X12035539Y-9791579D02*
X12045063Y-9772531D01*
X12045063Y-9772531D02*
X12054586Y-9763008D01*
X12054586Y-9763008D02*
X12073634Y-9753484D01*
X12226015Y-9934436D02*
X12235539Y-9943960D01*
X12235539Y-9943960D02*
X12226015Y-9953484D01*
X12226015Y-9953484D02*
X12216491Y-9943960D01*
X12216491Y-9943960D02*
X12226015Y-9934436D01*
X12226015Y-9934436D02*
X12226015Y-9953484D01*
X12359348Y-9753484D02*
X12378396Y-9753484D01*
X12378396Y-9753484D02*
X12397444Y-9763008D01*
X12397444Y-9763008D02*
X12406967Y-9772531D01*
X12406967Y-9772531D02*
X12416491Y-9791579D01*
X12416491Y-9791579D02*
X12426015Y-9829674D01*
X12426015Y-9829674D02*
X12426015Y-9877293D01*
X12426015Y-9877293D02*
X12416491Y-9915389D01*
X12416491Y-9915389D02*
X12406967Y-9934436D01*
X12406967Y-9934436D02*
X12397444Y-9943960D01*
X12397444Y-9943960D02*
X12378396Y-9953484D01*
X12378396Y-9953484D02*
X12359348Y-9953484D01*
X12359348Y-9953484D02*
X12340301Y-9943960D01*
X12340301Y-9943960D02*
X12330777Y-9934436D01*
X12330777Y-9934436D02*
X12321253Y-9915389D01*
X12321253Y-9915389D02*
X12311729Y-9877293D01*
X12311729Y-9877293D02*
X12311729Y-9829674D01*
X12311729Y-9829674D02*
X12321253Y-9791579D01*
X12321253Y-9791579D02*
X12330777Y-9772531D01*
X12330777Y-9772531D02*
X12340301Y-9763008D01*
X12340301Y-9763008D02*
X12359348Y-9753484D01*
X12492682Y-9753484D02*
X12616491Y-9753484D01*
X12616491Y-9753484D02*
X12549825Y-9829674D01*
X12549825Y-9829674D02*
X12578396Y-9829674D01*
X12578396Y-9829674D02*
X12597444Y-9839198D01*
X12597444Y-9839198D02*
X12606967Y-9848722D01*
X12606967Y-9848722D02*
X12616491Y-9867770D01*
X12616491Y-9867770D02*
X12616491Y-9915389D01*
X12616491Y-9915389D02*
X12606967Y-9934436D01*
X12606967Y-9934436D02*
X12597444Y-9943960D01*
X12597444Y-9943960D02*
X12578396Y-9953484D01*
X12578396Y-9953484D02*
X12521253Y-9953484D01*
X12521253Y-9953484D02*
X12502206Y-9943960D01*
X12502206Y-9943960D02*
X12492682Y-9934436D01*
X12683158Y-9753484D02*
X12806967Y-9753484D01*
X12806967Y-9753484D02*
X12740301Y-9829674D01*
X12740301Y-9829674D02*
X12768872Y-9829674D01*
X12768872Y-9829674D02*
X12787920Y-9839198D01*
X12787920Y-9839198D02*
X12797444Y-9848722D01*
X12797444Y-9848722D02*
X12806967Y-9867770D01*
X12806967Y-9867770D02*
X12806967Y-9915389D01*
X12806967Y-9915389D02*
X12797444Y-9934436D01*
X12797444Y-9934436D02*
X12787920Y-9943960D01*
X12787920Y-9943960D02*
X12768872Y-9953484D01*
X12768872Y-9953484D02*
X12711729Y-9953484D01*
X12711729Y-9953484D02*
X12692682Y-9943960D01*
X12692682Y-9943960D02*
X12683158Y-9934436D01*
X12987920Y-9753484D02*
X12892682Y-9753484D01*
X12892682Y-9753484D02*
X12883158Y-9848722D01*
X12883158Y-9848722D02*
X12892682Y-9839198D01*
X12892682Y-9839198D02*
X12911729Y-9829674D01*
X12911729Y-9829674D02*
X12959348Y-9829674D01*
X12959348Y-9829674D02*
X12978396Y-9839198D01*
X12978396Y-9839198D02*
X12987920Y-9848722D01*
X12987920Y-9848722D02*
X12997444Y-9867770D01*
X12997444Y-9867770D02*
X12997444Y-9915389D01*
X12997444Y-9915389D02*
X12987920Y-9934436D01*
X12987920Y-9934436D02*
X12978396Y-9943960D01*
X12978396Y-9943960D02*
X12959348Y-9953484D01*
X12959348Y-9953484D02*
X12911729Y-9953484D01*
X12911729Y-9953484D02*
X12892682Y-9943960D01*
X12892682Y-9943960D02*
X12883158Y-9934436D01*
X13073634Y-9753484D02*
X13073634Y-9791579D01*
X13149825Y-9753484D02*
X13149825Y-9791579D01*
X13445063Y-10029674D02*
X13435539Y-10020150D01*
X13435539Y-10020150D02*
X13416491Y-9991579D01*
X13416491Y-9991579D02*
X13406968Y-9972531D01*
X13406968Y-9972531D02*
X13397444Y-9943960D01*
X13397444Y-9943960D02*
X13387920Y-9896341D01*
X13387920Y-9896341D02*
X13387920Y-9858246D01*
X13387920Y-9858246D02*
X13397444Y-9810627D01*
X13397444Y-9810627D02*
X13406968Y-9782055D01*
X13406968Y-9782055D02*
X13416491Y-9763008D01*
X13416491Y-9763008D02*
X13435539Y-9734436D01*
X13435539Y-9734436D02*
X13445063Y-9724912D01*
X13502206Y-9753484D02*
X13626015Y-9753484D01*
X13626015Y-9753484D02*
X13559348Y-9829674D01*
X13559348Y-9829674D02*
X13587920Y-9829674D01*
X13587920Y-9829674D02*
X13606968Y-9839198D01*
X13606968Y-9839198D02*
X13616491Y-9848722D01*
X13616491Y-9848722D02*
X13626015Y-9867770D01*
X13626015Y-9867770D02*
X13626015Y-9915389D01*
X13626015Y-9915389D02*
X13616491Y-9934436D01*
X13616491Y-9934436D02*
X13606968Y-9943960D01*
X13606968Y-9943960D02*
X13587920Y-9953484D01*
X13587920Y-9953484D02*
X13530777Y-9953484D01*
X13530777Y-9953484D02*
X13511729Y-9943960D01*
X13511729Y-9943960D02*
X13502206Y-9934436D01*
X13864110Y-9953484D02*
X13864110Y-9753484D01*
X13949825Y-9953484D02*
X13949825Y-9848722D01*
X13949825Y-9848722D02*
X13940301Y-9829674D01*
X13940301Y-9829674D02*
X13921253Y-9820150D01*
X13921253Y-9820150D02*
X13892682Y-9820150D01*
X13892682Y-9820150D02*
X13873634Y-9829674D01*
X13873634Y-9829674D02*
X13864110Y-9839198D01*
X14073634Y-9953484D02*
X14054587Y-9943960D01*
X14054587Y-9943960D02*
X14045063Y-9934436D01*
X14045063Y-9934436D02*
X14035539Y-9915389D01*
X14035539Y-9915389D02*
X14035539Y-9858246D01*
X14035539Y-9858246D02*
X14045063Y-9839198D01*
X14045063Y-9839198D02*
X14054587Y-9829674D01*
X14054587Y-9829674D02*
X14073634Y-9820150D01*
X14073634Y-9820150D02*
X14102206Y-9820150D01*
X14102206Y-9820150D02*
X14121253Y-9829674D01*
X14121253Y-9829674D02*
X14130777Y-9839198D01*
X14130777Y-9839198D02*
X14140301Y-9858246D01*
X14140301Y-9858246D02*
X14140301Y-9915389D01*
X14140301Y-9915389D02*
X14130777Y-9934436D01*
X14130777Y-9934436D02*
X14121253Y-9943960D01*
X14121253Y-9943960D02*
X14102206Y-9953484D01*
X14102206Y-9953484D02*
X14073634Y-9953484D01*
X14254587Y-9953484D02*
X14235539Y-9943960D01*
X14235539Y-9943960D02*
X14226015Y-9924912D01*
X14226015Y-9924912D02*
X14226015Y-9753484D01*
X14406968Y-9943960D02*
X14387920Y-9953484D01*
X14387920Y-9953484D02*
X14349825Y-9953484D01*
X14349825Y-9953484D02*
X14330777Y-9943960D01*
X14330777Y-9943960D02*
X14321253Y-9924912D01*
X14321253Y-9924912D02*
X14321253Y-9848722D01*
X14321253Y-9848722D02*
X14330777Y-9829674D01*
X14330777Y-9829674D02*
X14349825Y-9820150D01*
X14349825Y-9820150D02*
X14387920Y-9820150D01*
X14387920Y-9820150D02*
X14406968Y-9829674D01*
X14406968Y-9829674D02*
X14416491Y-9848722D01*
X14416491Y-9848722D02*
X14416491Y-9867770D01*
X14416491Y-9867770D02*
X14321253Y-9886817D01*
X14492682Y-9943960D02*
X14511730Y-9953484D01*
X14511730Y-9953484D02*
X14549825Y-9953484D01*
X14549825Y-9953484D02*
X14568872Y-9943960D01*
X14568872Y-9943960D02*
X14578396Y-9924912D01*
X14578396Y-9924912D02*
X14578396Y-9915389D01*
X14578396Y-9915389D02*
X14568872Y-9896341D01*
X14568872Y-9896341D02*
X14549825Y-9886817D01*
X14549825Y-9886817D02*
X14521253Y-9886817D01*
X14521253Y-9886817D02*
X14502206Y-9877293D01*
X14502206Y-9877293D02*
X14492682Y-9858246D01*
X14492682Y-9858246D02*
X14492682Y-9848722D01*
X14492682Y-9848722D02*
X14502206Y-9829674D01*
X14502206Y-9829674D02*
X14521253Y-9820150D01*
X14521253Y-9820150D02*
X14549825Y-9820150D01*
X14549825Y-9820150D02*
X14568872Y-9829674D01*
X14645063Y-10029674D02*
X14654587Y-10020150D01*
X14654587Y-10020150D02*
X14673634Y-9991579D01*
X14673634Y-9991579D02*
X14683158Y-9972531D01*
X14683158Y-9972531D02*
X14692682Y-9943960D01*
X14692682Y-9943960D02*
X14702206Y-9896341D01*
X14702206Y-9896341D02*
X14702206Y-9858246D01*
X14702206Y-9858246D02*
X14692682Y-9810627D01*
X14692682Y-9810627D02*
X14683158Y-9782055D01*
X14683158Y-9782055D02*
X14673634Y-9763008D01*
X14673634Y-9763008D02*
X14654587Y-9734436D01*
X14654587Y-9734436D02*
X14645063Y-9724912D01*
D12*
X9819000Y-10177000D02*
X9870000Y-10126000D01*
X9819000Y-10075000D01*
X9768000Y-10126000D01*
X9819000Y-10177000D01*
D11*
X10235539Y-10217484D02*
X10121253Y-10217484D01*
X10178396Y-10217484D02*
X10178396Y-10017484D01*
X10178396Y-10017484D02*
X10159348Y-10046055D01*
X10159348Y-10046055D02*
X10140301Y-10065103D01*
X10140301Y-10065103D02*
X10121253Y-10074627D01*
X10321253Y-10198436D02*
X10330777Y-10207960D01*
X10330777Y-10207960D02*
X10321253Y-10217484D01*
X10321253Y-10217484D02*
X10311729Y-10207960D01*
X10311729Y-10207960D02*
X10321253Y-10198436D01*
X10321253Y-10198436D02*
X10321253Y-10217484D01*
X10454586Y-10017484D02*
X10473634Y-10017484D01*
X10473634Y-10017484D02*
X10492682Y-10027008D01*
X10492682Y-10027008D02*
X10502205Y-10036531D01*
X10502205Y-10036531D02*
X10511729Y-10055579D01*
X10511729Y-10055579D02*
X10521253Y-10093674D01*
X10521253Y-10093674D02*
X10521253Y-10141293D01*
X10521253Y-10141293D02*
X10511729Y-10179389D01*
X10511729Y-10179389D02*
X10502205Y-10198436D01*
X10502205Y-10198436D02*
X10492682Y-10207960D01*
X10492682Y-10207960D02*
X10473634Y-10217484D01*
X10473634Y-10217484D02*
X10454586Y-10217484D01*
X10454586Y-10217484D02*
X10435539Y-10207960D01*
X10435539Y-10207960D02*
X10426015Y-10198436D01*
X10426015Y-10198436D02*
X10416491Y-10179389D01*
X10416491Y-10179389D02*
X10406967Y-10141293D01*
X10406967Y-10141293D02*
X10406967Y-10093674D01*
X10406967Y-10093674D02*
X10416491Y-10055579D01*
X10416491Y-10055579D02*
X10426015Y-10036531D01*
X10426015Y-10036531D02*
X10435539Y-10027008D01*
X10435539Y-10027008D02*
X10454586Y-10017484D01*
X10597444Y-10036531D02*
X10606967Y-10027008D01*
X10606967Y-10027008D02*
X10626015Y-10017484D01*
X10626015Y-10017484D02*
X10673634Y-10017484D01*
X10673634Y-10017484D02*
X10692682Y-10027008D01*
X10692682Y-10027008D02*
X10702205Y-10036531D01*
X10702205Y-10036531D02*
X10711729Y-10055579D01*
X10711729Y-10055579D02*
X10711729Y-10074627D01*
X10711729Y-10074627D02*
X10702205Y-10103198D01*
X10702205Y-10103198D02*
X10587920Y-10217484D01*
X10587920Y-10217484D02*
X10711729Y-10217484D01*
X10835539Y-10017484D02*
X10854586Y-10017484D01*
X10854586Y-10017484D02*
X10873634Y-10027008D01*
X10873634Y-10027008D02*
X10883158Y-10036531D01*
X10883158Y-10036531D02*
X10892682Y-10055579D01*
X10892682Y-10055579D02*
X10902205Y-10093674D01*
X10902205Y-10093674D02*
X10902205Y-10141293D01*
X10902205Y-10141293D02*
X10892682Y-10179389D01*
X10892682Y-10179389D02*
X10883158Y-10198436D01*
X10883158Y-10198436D02*
X10873634Y-10207960D01*
X10873634Y-10207960D02*
X10854586Y-10217484D01*
X10854586Y-10217484D02*
X10835539Y-10217484D01*
X10835539Y-10217484D02*
X10816491Y-10207960D01*
X10816491Y-10207960D02*
X10806967Y-10198436D01*
X10806967Y-10198436D02*
X10797444Y-10179389D01*
X10797444Y-10179389D02*
X10787920Y-10141293D01*
X10787920Y-10141293D02*
X10787920Y-10093674D01*
X10787920Y-10093674D02*
X10797444Y-10055579D01*
X10797444Y-10055579D02*
X10806967Y-10036531D01*
X10806967Y-10036531D02*
X10816491Y-10027008D01*
X10816491Y-10027008D02*
X10835539Y-10017484D01*
X10987920Y-10217484D02*
X10987920Y-10084150D01*
X10987920Y-10103198D02*
X10997444Y-10093674D01*
X10997444Y-10093674D02*
X11016491Y-10084150D01*
X11016491Y-10084150D02*
X11045063Y-10084150D01*
X11045063Y-10084150D02*
X11064110Y-10093674D01*
X11064110Y-10093674D02*
X11073634Y-10112722D01*
X11073634Y-10112722D02*
X11073634Y-10217484D01*
X11073634Y-10112722D02*
X11083158Y-10093674D01*
X11083158Y-10093674D02*
X11102205Y-10084150D01*
X11102205Y-10084150D02*
X11130777Y-10084150D01*
X11130777Y-10084150D02*
X11149825Y-10093674D01*
X11149825Y-10093674D02*
X11159348Y-10112722D01*
X11159348Y-10112722D02*
X11159348Y-10217484D01*
X11254586Y-10217484D02*
X11254586Y-10084150D01*
X11254586Y-10103198D02*
X11264110Y-10093674D01*
X11264110Y-10093674D02*
X11283158Y-10084150D01*
X11283158Y-10084150D02*
X11311729Y-10084150D01*
X11311729Y-10084150D02*
X11330777Y-10093674D01*
X11330777Y-10093674D02*
X11340301Y-10112722D01*
X11340301Y-10112722D02*
X11340301Y-10217484D01*
X11340301Y-10112722D02*
X11349824Y-10093674D01*
X11349824Y-10093674D02*
X11368872Y-10084150D01*
X11368872Y-10084150D02*
X11397443Y-10084150D01*
X11397443Y-10084150D02*
X11416491Y-10093674D01*
X11416491Y-10093674D02*
X11426015Y-10112722D01*
X11426015Y-10112722D02*
X11426015Y-10217484D01*
X11816491Y-10007960D02*
X11645063Y-10265103D01*
X12073634Y-10017484D02*
X12092682Y-10017484D01*
X12092682Y-10017484D02*
X12111729Y-10027008D01*
X12111729Y-10027008D02*
X12121253Y-10036531D01*
X12121253Y-10036531D02*
X12130777Y-10055579D01*
X12130777Y-10055579D02*
X12140301Y-10093674D01*
X12140301Y-10093674D02*
X12140301Y-10141293D01*
X12140301Y-10141293D02*
X12130777Y-10179389D01*
X12130777Y-10179389D02*
X12121253Y-10198436D01*
X12121253Y-10198436D02*
X12111729Y-10207960D01*
X12111729Y-10207960D02*
X12092682Y-10217484D01*
X12092682Y-10217484D02*
X12073634Y-10217484D01*
X12073634Y-10217484D02*
X12054586Y-10207960D01*
X12054586Y-10207960D02*
X12045063Y-10198436D01*
X12045063Y-10198436D02*
X12035539Y-10179389D01*
X12035539Y-10179389D02*
X12026015Y-10141293D01*
X12026015Y-10141293D02*
X12026015Y-10093674D01*
X12026015Y-10093674D02*
X12035539Y-10055579D01*
X12035539Y-10055579D02*
X12045063Y-10036531D01*
X12045063Y-10036531D02*
X12054586Y-10027008D01*
X12054586Y-10027008D02*
X12073634Y-10017484D01*
X12226015Y-10198436D02*
X12235539Y-10207960D01*
X12235539Y-10207960D02*
X12226015Y-10217484D01*
X12226015Y-10217484D02*
X12216491Y-10207960D01*
X12216491Y-10207960D02*
X12226015Y-10198436D01*
X12226015Y-10198436D02*
X12226015Y-10217484D01*
X12359348Y-10017484D02*
X12378396Y-10017484D01*
X12378396Y-10017484D02*
X12397444Y-10027008D01*
X12397444Y-10027008D02*
X12406967Y-10036531D01*
X12406967Y-10036531D02*
X12416491Y-10055579D01*
X12416491Y-10055579D02*
X12426015Y-10093674D01*
X12426015Y-10093674D02*
X12426015Y-10141293D01*
X12426015Y-10141293D02*
X12416491Y-10179389D01*
X12416491Y-10179389D02*
X12406967Y-10198436D01*
X12406967Y-10198436D02*
X12397444Y-10207960D01*
X12397444Y-10207960D02*
X12378396Y-10217484D01*
X12378396Y-10217484D02*
X12359348Y-10217484D01*
X12359348Y-10217484D02*
X12340301Y-10207960D01*
X12340301Y-10207960D02*
X12330777Y-10198436D01*
X12330777Y-10198436D02*
X12321253Y-10179389D01*
X12321253Y-10179389D02*
X12311729Y-10141293D01*
X12311729Y-10141293D02*
X12311729Y-10093674D01*
X12311729Y-10093674D02*
X12321253Y-10055579D01*
X12321253Y-10055579D02*
X12330777Y-10036531D01*
X12330777Y-10036531D02*
X12340301Y-10027008D01*
X12340301Y-10027008D02*
X12359348Y-10017484D01*
X12597444Y-10084150D02*
X12597444Y-10217484D01*
X12549825Y-10007960D02*
X12502206Y-10150817D01*
X12502206Y-10150817D02*
X12626015Y-10150817D01*
X12740301Y-10017484D02*
X12759348Y-10017484D01*
X12759348Y-10017484D02*
X12778396Y-10027008D01*
X12778396Y-10027008D02*
X12787920Y-10036531D01*
X12787920Y-10036531D02*
X12797444Y-10055579D01*
X12797444Y-10055579D02*
X12806967Y-10093674D01*
X12806967Y-10093674D02*
X12806967Y-10141293D01*
X12806967Y-10141293D02*
X12797444Y-10179389D01*
X12797444Y-10179389D02*
X12787920Y-10198436D01*
X12787920Y-10198436D02*
X12778396Y-10207960D01*
X12778396Y-10207960D02*
X12759348Y-10217484D01*
X12759348Y-10217484D02*
X12740301Y-10217484D01*
X12740301Y-10217484D02*
X12721253Y-10207960D01*
X12721253Y-10207960D02*
X12711729Y-10198436D01*
X12711729Y-10198436D02*
X12702206Y-10179389D01*
X12702206Y-10179389D02*
X12692682Y-10141293D01*
X12692682Y-10141293D02*
X12692682Y-10093674D01*
X12692682Y-10093674D02*
X12702206Y-10055579D01*
X12702206Y-10055579D02*
X12711729Y-10036531D01*
X12711729Y-10036531D02*
X12721253Y-10027008D01*
X12721253Y-10027008D02*
X12740301Y-10017484D01*
X12883158Y-10036531D02*
X12892682Y-10027008D01*
X12892682Y-10027008D02*
X12911729Y-10017484D01*
X12911729Y-10017484D02*
X12959348Y-10017484D01*
X12959348Y-10017484D02*
X12978396Y-10027008D01*
X12978396Y-10027008D02*
X12987920Y-10036531D01*
X12987920Y-10036531D02*
X12997444Y-10055579D01*
X12997444Y-10055579D02*
X12997444Y-10074627D01*
X12997444Y-10074627D02*
X12987920Y-10103198D01*
X12987920Y-10103198D02*
X12873634Y-10217484D01*
X12873634Y-10217484D02*
X12997444Y-10217484D01*
X13073634Y-10017484D02*
X13073634Y-10055579D01*
X13149825Y-10017484D02*
X13149825Y-10055579D01*
X13445063Y-10293674D02*
X13435539Y-10284150D01*
X13435539Y-10284150D02*
X13416491Y-10255579D01*
X13416491Y-10255579D02*
X13406968Y-10236531D01*
X13406968Y-10236531D02*
X13397444Y-10207960D01*
X13397444Y-10207960D02*
X13387920Y-10160341D01*
X13387920Y-10160341D02*
X13387920Y-10122246D01*
X13387920Y-10122246D02*
X13397444Y-10074627D01*
X13397444Y-10074627D02*
X13406968Y-10046055D01*
X13406968Y-10046055D02*
X13416491Y-10027008D01*
X13416491Y-10027008D02*
X13435539Y-9998436D01*
X13435539Y-9998436D02*
X13445063Y-9988912D01*
X13626015Y-10217484D02*
X13511729Y-10217484D01*
X13568872Y-10217484D02*
X13568872Y-10017484D01*
X13568872Y-10017484D02*
X13549825Y-10046055D01*
X13549825Y-10046055D02*
X13530777Y-10065103D01*
X13530777Y-10065103D02*
X13511729Y-10074627D01*
X13797444Y-10017484D02*
X13759348Y-10017484D01*
X13759348Y-10017484D02*
X13740301Y-10027008D01*
X13740301Y-10027008D02*
X13730777Y-10036531D01*
X13730777Y-10036531D02*
X13711729Y-10065103D01*
X13711729Y-10065103D02*
X13702206Y-10103198D01*
X13702206Y-10103198D02*
X13702206Y-10179389D01*
X13702206Y-10179389D02*
X13711729Y-10198436D01*
X13711729Y-10198436D02*
X13721253Y-10207960D01*
X13721253Y-10207960D02*
X13740301Y-10217484D01*
X13740301Y-10217484D02*
X13778396Y-10217484D01*
X13778396Y-10217484D02*
X13797444Y-10207960D01*
X13797444Y-10207960D02*
X13806968Y-10198436D01*
X13806968Y-10198436D02*
X13816491Y-10179389D01*
X13816491Y-10179389D02*
X13816491Y-10131770D01*
X13816491Y-10131770D02*
X13806968Y-10112722D01*
X13806968Y-10112722D02*
X13797444Y-10103198D01*
X13797444Y-10103198D02*
X13778396Y-10093674D01*
X13778396Y-10093674D02*
X13740301Y-10093674D01*
X13740301Y-10093674D02*
X13721253Y-10103198D01*
X13721253Y-10103198D02*
X13711729Y-10112722D01*
X13711729Y-10112722D02*
X13702206Y-10131770D01*
X14054587Y-10217484D02*
X14054587Y-10017484D01*
X14140301Y-10217484D02*
X14140301Y-10112722D01*
X14140301Y-10112722D02*
X14130777Y-10093674D01*
X14130777Y-10093674D02*
X14111730Y-10084150D01*
X14111730Y-10084150D02*
X14083158Y-10084150D01*
X14083158Y-10084150D02*
X14064110Y-10093674D01*
X14064110Y-10093674D02*
X14054587Y-10103198D01*
X14264110Y-10217484D02*
X14245063Y-10207960D01*
X14245063Y-10207960D02*
X14235539Y-10198436D01*
X14235539Y-10198436D02*
X14226015Y-10179389D01*
X14226015Y-10179389D02*
X14226015Y-10122246D01*
X14226015Y-10122246D02*
X14235539Y-10103198D01*
X14235539Y-10103198D02*
X14245063Y-10093674D01*
X14245063Y-10093674D02*
X14264110Y-10084150D01*
X14264110Y-10084150D02*
X14292682Y-10084150D01*
X14292682Y-10084150D02*
X14311730Y-10093674D01*
X14311730Y-10093674D02*
X14321253Y-10103198D01*
X14321253Y-10103198D02*
X14330777Y-10122246D01*
X14330777Y-10122246D02*
X14330777Y-10179389D01*
X14330777Y-10179389D02*
X14321253Y-10198436D01*
X14321253Y-10198436D02*
X14311730Y-10207960D01*
X14311730Y-10207960D02*
X14292682Y-10217484D01*
X14292682Y-10217484D02*
X14264110Y-10217484D01*
X14445063Y-10217484D02*
X14426015Y-10207960D01*
X14426015Y-10207960D02*
X14416491Y-10188912D01*
X14416491Y-10188912D02*
X14416491Y-10017484D01*
X14597444Y-10207960D02*
X14578396Y-10217484D01*
X14578396Y-10217484D02*
X14540301Y-10217484D01*
X14540301Y-10217484D02*
X14521253Y-10207960D01*
X14521253Y-10207960D02*
X14511730Y-10188912D01*
X14511730Y-10188912D02*
X14511730Y-10112722D01*
X14511730Y-10112722D02*
X14521253Y-10093674D01*
X14521253Y-10093674D02*
X14540301Y-10084150D01*
X14540301Y-10084150D02*
X14578396Y-10084150D01*
X14578396Y-10084150D02*
X14597444Y-10093674D01*
X14597444Y-10093674D02*
X14606968Y-10112722D01*
X14606968Y-10112722D02*
X14606968Y-10131770D01*
X14606968Y-10131770D02*
X14511730Y-10150817D01*
X14683158Y-10207960D02*
X14702206Y-10217484D01*
X14702206Y-10217484D02*
X14740301Y-10217484D01*
X14740301Y-10217484D02*
X14759349Y-10207960D01*
X14759349Y-10207960D02*
X14768872Y-10188912D01*
X14768872Y-10188912D02*
X14768872Y-10179389D01*
X14768872Y-10179389D02*
X14759349Y-10160341D01*
X14759349Y-10160341D02*
X14740301Y-10150817D01*
X14740301Y-10150817D02*
X14711730Y-10150817D01*
X14711730Y-10150817D02*
X14692682Y-10141293D01*
X14692682Y-10141293D02*
X14683158Y-10122246D01*
X14683158Y-10122246D02*
X14683158Y-10112722D01*
X14683158Y-10112722D02*
X14692682Y-10093674D01*
X14692682Y-10093674D02*
X14711730Y-10084150D01*
X14711730Y-10084150D02*
X14740301Y-10084150D01*
X14740301Y-10084150D02*
X14759349Y-10093674D01*
X14835539Y-10293674D02*
X14845063Y-10284150D01*
X14845063Y-10284150D02*
X14864111Y-10255579D01*
X14864111Y-10255579D02*
X14873634Y-10236531D01*
X14873634Y-10236531D02*
X14883158Y-10207960D01*
X14883158Y-10207960D02*
X14892682Y-10160341D01*
X14892682Y-10160341D02*
X14892682Y-10122246D01*
X14892682Y-10122246D02*
X14883158Y-10074627D01*
X14883158Y-10074627D02*
X14873634Y-10046055D01*
X14873634Y-10046055D02*
X14864111Y-10027008D01*
X14864111Y-10027008D02*
X14845063Y-9998436D01*
X14845063Y-9998436D02*
X14835539Y-9988912D01*
D13*
X9763000Y-10336500D02*
X9870000Y-10443500D01*
X9870000Y-10336500D02*
X9763000Y-10443500D01*
X9870000Y-10390000D02*
G75*
G02*
X9763000Y-10390000I-53500J0D01*
G01*
X9763000Y-10390000D02*
G75*
G02*
X9870000Y-10390000I53500J0D01*
G01*
D11*
X10235539Y-10481484D02*
X10121253Y-10481484D01*
X10178396Y-10481484D02*
X10178396Y-10281484D01*
X10178396Y-10281484D02*
X10159348Y-10310055D01*
X10159348Y-10310055D02*
X10140301Y-10329103D01*
X10140301Y-10329103D02*
X10121253Y-10338627D01*
X10321253Y-10462436D02*
X10330777Y-10471960D01*
X10330777Y-10471960D02*
X10321253Y-10481484D01*
X10321253Y-10481484D02*
X10311729Y-10471960D01*
X10311729Y-10471960D02*
X10321253Y-10462436D01*
X10321253Y-10462436D02*
X10321253Y-10481484D01*
X10454586Y-10281484D02*
X10473634Y-10281484D01*
X10473634Y-10281484D02*
X10492682Y-10291008D01*
X10492682Y-10291008D02*
X10502205Y-10300531D01*
X10502205Y-10300531D02*
X10511729Y-10319579D01*
X10511729Y-10319579D02*
X10521253Y-10357674D01*
X10521253Y-10357674D02*
X10521253Y-10405293D01*
X10521253Y-10405293D02*
X10511729Y-10443389D01*
X10511729Y-10443389D02*
X10502205Y-10462436D01*
X10502205Y-10462436D02*
X10492682Y-10471960D01*
X10492682Y-10471960D02*
X10473634Y-10481484D01*
X10473634Y-10481484D02*
X10454586Y-10481484D01*
X10454586Y-10481484D02*
X10435539Y-10471960D01*
X10435539Y-10471960D02*
X10426015Y-10462436D01*
X10426015Y-10462436D02*
X10416491Y-10443389D01*
X10416491Y-10443389D02*
X10406967Y-10405293D01*
X10406967Y-10405293D02*
X10406967Y-10357674D01*
X10406967Y-10357674D02*
X10416491Y-10319579D01*
X10416491Y-10319579D02*
X10426015Y-10300531D01*
X10426015Y-10300531D02*
X10435539Y-10291008D01*
X10435539Y-10291008D02*
X10454586Y-10281484D01*
X10587920Y-10281484D02*
X10721253Y-10281484D01*
X10721253Y-10281484D02*
X10635539Y-10481484D01*
X10835539Y-10281484D02*
X10854586Y-10281484D01*
X10854586Y-10281484D02*
X10873634Y-10291008D01*
X10873634Y-10291008D02*
X10883158Y-10300531D01*
X10883158Y-10300531D02*
X10892682Y-10319579D01*
X10892682Y-10319579D02*
X10902205Y-10357674D01*
X10902205Y-10357674D02*
X10902205Y-10405293D01*
X10902205Y-10405293D02*
X10892682Y-10443389D01*
X10892682Y-10443389D02*
X10883158Y-10462436D01*
X10883158Y-10462436D02*
X10873634Y-10471960D01*
X10873634Y-10471960D02*
X10854586Y-10481484D01*
X10854586Y-10481484D02*
X10835539Y-10481484D01*
X10835539Y-10481484D02*
X10816491Y-10471960D01*
X10816491Y-10471960D02*
X10806967Y-10462436D01*
X10806967Y-10462436D02*
X10797444Y-10443389D01*
X10797444Y-10443389D02*
X10787920Y-10405293D01*
X10787920Y-10405293D02*
X10787920Y-10357674D01*
X10787920Y-10357674D02*
X10797444Y-10319579D01*
X10797444Y-10319579D02*
X10806967Y-10300531D01*
X10806967Y-10300531D02*
X10816491Y-10291008D01*
X10816491Y-10291008D02*
X10835539Y-10281484D01*
X10987920Y-10481484D02*
X10987920Y-10348150D01*
X10987920Y-10367198D02*
X10997444Y-10357674D01*
X10997444Y-10357674D02*
X11016491Y-10348150D01*
X11016491Y-10348150D02*
X11045063Y-10348150D01*
X11045063Y-10348150D02*
X11064110Y-10357674D01*
X11064110Y-10357674D02*
X11073634Y-10376722D01*
X11073634Y-10376722D02*
X11073634Y-10481484D01*
X11073634Y-10376722D02*
X11083158Y-10357674D01*
X11083158Y-10357674D02*
X11102205Y-10348150D01*
X11102205Y-10348150D02*
X11130777Y-10348150D01*
X11130777Y-10348150D02*
X11149825Y-10357674D01*
X11149825Y-10357674D02*
X11159348Y-10376722D01*
X11159348Y-10376722D02*
X11159348Y-10481484D01*
X11254586Y-10481484D02*
X11254586Y-10348150D01*
X11254586Y-10367198D02*
X11264110Y-10357674D01*
X11264110Y-10357674D02*
X11283158Y-10348150D01*
X11283158Y-10348150D02*
X11311729Y-10348150D01*
X11311729Y-10348150D02*
X11330777Y-10357674D01*
X11330777Y-10357674D02*
X11340301Y-10376722D01*
X11340301Y-10376722D02*
X11340301Y-10481484D01*
X11340301Y-10376722D02*
X11349824Y-10357674D01*
X11349824Y-10357674D02*
X11368872Y-10348150D01*
X11368872Y-10348150D02*
X11397443Y-10348150D01*
X11397443Y-10348150D02*
X11416491Y-10357674D01*
X11416491Y-10357674D02*
X11426015Y-10376722D01*
X11426015Y-10376722D02*
X11426015Y-10481484D01*
X11816491Y-10271960D02*
X11645063Y-10529103D01*
X12073634Y-10281484D02*
X12092682Y-10281484D01*
X12092682Y-10281484D02*
X12111729Y-10291008D01*
X12111729Y-10291008D02*
X12121253Y-10300531D01*
X12121253Y-10300531D02*
X12130777Y-10319579D01*
X12130777Y-10319579D02*
X12140301Y-10357674D01*
X12140301Y-10357674D02*
X12140301Y-10405293D01*
X12140301Y-10405293D02*
X12130777Y-10443389D01*
X12130777Y-10443389D02*
X12121253Y-10462436D01*
X12121253Y-10462436D02*
X12111729Y-10471960D01*
X12111729Y-10471960D02*
X12092682Y-10481484D01*
X12092682Y-10481484D02*
X12073634Y-10481484D01*
X12073634Y-10481484D02*
X12054586Y-10471960D01*
X12054586Y-10471960D02*
X12045063Y-10462436D01*
X12045063Y-10462436D02*
X12035539Y-10443389D01*
X12035539Y-10443389D02*
X12026015Y-10405293D01*
X12026015Y-10405293D02*
X12026015Y-10357674D01*
X12026015Y-10357674D02*
X12035539Y-10319579D01*
X12035539Y-10319579D02*
X12045063Y-10300531D01*
X12045063Y-10300531D02*
X12054586Y-10291008D01*
X12054586Y-10291008D02*
X12073634Y-10281484D01*
X12226015Y-10462436D02*
X12235539Y-10471960D01*
X12235539Y-10471960D02*
X12226015Y-10481484D01*
X12226015Y-10481484D02*
X12216491Y-10471960D01*
X12216491Y-10471960D02*
X12226015Y-10462436D01*
X12226015Y-10462436D02*
X12226015Y-10481484D01*
X12359348Y-10281484D02*
X12378396Y-10281484D01*
X12378396Y-10281484D02*
X12397444Y-10291008D01*
X12397444Y-10291008D02*
X12406967Y-10300531D01*
X12406967Y-10300531D02*
X12416491Y-10319579D01*
X12416491Y-10319579D02*
X12426015Y-10357674D01*
X12426015Y-10357674D02*
X12426015Y-10405293D01*
X12426015Y-10405293D02*
X12416491Y-10443389D01*
X12416491Y-10443389D02*
X12406967Y-10462436D01*
X12406967Y-10462436D02*
X12397444Y-10471960D01*
X12397444Y-10471960D02*
X12378396Y-10481484D01*
X12378396Y-10481484D02*
X12359348Y-10481484D01*
X12359348Y-10481484D02*
X12340301Y-10471960D01*
X12340301Y-10471960D02*
X12330777Y-10462436D01*
X12330777Y-10462436D02*
X12321253Y-10443389D01*
X12321253Y-10443389D02*
X12311729Y-10405293D01*
X12311729Y-10405293D02*
X12311729Y-10357674D01*
X12311729Y-10357674D02*
X12321253Y-10319579D01*
X12321253Y-10319579D02*
X12330777Y-10300531D01*
X12330777Y-10300531D02*
X12340301Y-10291008D01*
X12340301Y-10291008D02*
X12359348Y-10281484D01*
X12597444Y-10348150D02*
X12597444Y-10481484D01*
X12549825Y-10271960D02*
X12502206Y-10414817D01*
X12502206Y-10414817D02*
X12626015Y-10414817D01*
X12692682Y-10300531D02*
X12702206Y-10291008D01*
X12702206Y-10291008D02*
X12721253Y-10281484D01*
X12721253Y-10281484D02*
X12768872Y-10281484D01*
X12768872Y-10281484D02*
X12787920Y-10291008D01*
X12787920Y-10291008D02*
X12797444Y-10300531D01*
X12797444Y-10300531D02*
X12806967Y-10319579D01*
X12806967Y-10319579D02*
X12806967Y-10338627D01*
X12806967Y-10338627D02*
X12797444Y-10367198D01*
X12797444Y-10367198D02*
X12683158Y-10481484D01*
X12683158Y-10481484D02*
X12806967Y-10481484D01*
X12997444Y-10481484D02*
X12883158Y-10481484D01*
X12940301Y-10481484D02*
X12940301Y-10281484D01*
X12940301Y-10281484D02*
X12921253Y-10310055D01*
X12921253Y-10310055D02*
X12902206Y-10329103D01*
X12902206Y-10329103D02*
X12883158Y-10338627D01*
X13073634Y-10281484D02*
X13073634Y-10319579D01*
X13149825Y-10281484D02*
X13149825Y-10319579D01*
X13445063Y-10557674D02*
X13435539Y-10548150D01*
X13435539Y-10548150D02*
X13416491Y-10519579D01*
X13416491Y-10519579D02*
X13406968Y-10500531D01*
X13406968Y-10500531D02*
X13397444Y-10471960D01*
X13397444Y-10471960D02*
X13387920Y-10424341D01*
X13387920Y-10424341D02*
X13387920Y-10386246D01*
X13387920Y-10386246D02*
X13397444Y-10338627D01*
X13397444Y-10338627D02*
X13406968Y-10310055D01*
X13406968Y-10310055D02*
X13416491Y-10291008D01*
X13416491Y-10291008D02*
X13435539Y-10262436D01*
X13435539Y-10262436D02*
X13445063Y-10252912D01*
X13606968Y-10281484D02*
X13568872Y-10281484D01*
X13568872Y-10281484D02*
X13549825Y-10291008D01*
X13549825Y-10291008D02*
X13540301Y-10300531D01*
X13540301Y-10300531D02*
X13521253Y-10329103D01*
X13521253Y-10329103D02*
X13511729Y-10367198D01*
X13511729Y-10367198D02*
X13511729Y-10443389D01*
X13511729Y-10443389D02*
X13521253Y-10462436D01*
X13521253Y-10462436D02*
X13530777Y-10471960D01*
X13530777Y-10471960D02*
X13549825Y-10481484D01*
X13549825Y-10481484D02*
X13587920Y-10481484D01*
X13587920Y-10481484D02*
X13606968Y-10471960D01*
X13606968Y-10471960D02*
X13616491Y-10462436D01*
X13616491Y-10462436D02*
X13626015Y-10443389D01*
X13626015Y-10443389D02*
X13626015Y-10395770D01*
X13626015Y-10395770D02*
X13616491Y-10376722D01*
X13616491Y-10376722D02*
X13606968Y-10367198D01*
X13606968Y-10367198D02*
X13587920Y-10357674D01*
X13587920Y-10357674D02*
X13549825Y-10357674D01*
X13549825Y-10357674D02*
X13530777Y-10367198D01*
X13530777Y-10367198D02*
X13521253Y-10376722D01*
X13521253Y-10376722D02*
X13511729Y-10395770D01*
X13864110Y-10481484D02*
X13864110Y-10281484D01*
X13949825Y-10481484D02*
X13949825Y-10376722D01*
X13949825Y-10376722D02*
X13940301Y-10357674D01*
X13940301Y-10357674D02*
X13921253Y-10348150D01*
X13921253Y-10348150D02*
X13892682Y-10348150D01*
X13892682Y-10348150D02*
X13873634Y-10357674D01*
X13873634Y-10357674D02*
X13864110Y-10367198D01*
X14073634Y-10481484D02*
X14054587Y-10471960D01*
X14054587Y-10471960D02*
X14045063Y-10462436D01*
X14045063Y-10462436D02*
X14035539Y-10443389D01*
X14035539Y-10443389D02*
X14035539Y-10386246D01*
X14035539Y-10386246D02*
X14045063Y-10367198D01*
X14045063Y-10367198D02*
X14054587Y-10357674D01*
X14054587Y-10357674D02*
X14073634Y-10348150D01*
X14073634Y-10348150D02*
X14102206Y-10348150D01*
X14102206Y-10348150D02*
X14121253Y-10357674D01*
X14121253Y-10357674D02*
X14130777Y-10367198D01*
X14130777Y-10367198D02*
X14140301Y-10386246D01*
X14140301Y-10386246D02*
X14140301Y-10443389D01*
X14140301Y-10443389D02*
X14130777Y-10462436D01*
X14130777Y-10462436D02*
X14121253Y-10471960D01*
X14121253Y-10471960D02*
X14102206Y-10481484D01*
X14102206Y-10481484D02*
X14073634Y-10481484D01*
X14254587Y-10481484D02*
X14235539Y-10471960D01*
X14235539Y-10471960D02*
X14226015Y-10452912D01*
X14226015Y-10452912D02*
X14226015Y-10281484D01*
X14406968Y-10471960D02*
X14387920Y-10481484D01*
X14387920Y-10481484D02*
X14349825Y-10481484D01*
X14349825Y-10481484D02*
X14330777Y-10471960D01*
X14330777Y-10471960D02*
X14321253Y-10452912D01*
X14321253Y-10452912D02*
X14321253Y-10376722D01*
X14321253Y-10376722D02*
X14330777Y-10357674D01*
X14330777Y-10357674D02*
X14349825Y-10348150D01*
X14349825Y-10348150D02*
X14387920Y-10348150D01*
X14387920Y-10348150D02*
X14406968Y-10357674D01*
X14406968Y-10357674D02*
X14416491Y-10376722D01*
X14416491Y-10376722D02*
X14416491Y-10395770D01*
X14416491Y-10395770D02*
X14321253Y-10414817D01*
X14492682Y-10471960D02*
X14511730Y-10481484D01*
X14511730Y-10481484D02*
X14549825Y-10481484D01*
X14549825Y-10481484D02*
X14568872Y-10471960D01*
X14568872Y-10471960D02*
X14578396Y-10452912D01*
X14578396Y-10452912D02*
X14578396Y-10443389D01*
X14578396Y-10443389D02*
X14568872Y-10424341D01*
X14568872Y-10424341D02*
X14549825Y-10414817D01*
X14549825Y-10414817D02*
X14521253Y-10414817D01*
X14521253Y-10414817D02*
X14502206Y-10405293D01*
X14502206Y-10405293D02*
X14492682Y-10386246D01*
X14492682Y-10386246D02*
X14492682Y-10376722D01*
X14492682Y-10376722D02*
X14502206Y-10357674D01*
X14502206Y-10357674D02*
X14521253Y-10348150D01*
X14521253Y-10348150D02*
X14549825Y-10348150D01*
X14549825Y-10348150D02*
X14568872Y-10357674D01*
X14645063Y-10557674D02*
X14654587Y-10548150D01*
X14654587Y-10548150D02*
X14673634Y-10519579D01*
X14673634Y-10519579D02*
X14683158Y-10500531D01*
X14683158Y-10500531D02*
X14692682Y-10471960D01*
X14692682Y-10471960D02*
X14702206Y-10424341D01*
X14702206Y-10424341D02*
X14702206Y-10386246D01*
X14702206Y-10386246D02*
X14692682Y-10338627D01*
X14692682Y-10338627D02*
X14683158Y-10310055D01*
X14683158Y-10310055D02*
X14673634Y-10291008D01*
X14673634Y-10291008D02*
X14654587Y-10262436D01*
X14654587Y-10262436D02*
X14645063Y-10252912D01*
M02*
