<?xml version="1.0" encoding="utf-8" ?><!DOCTYPE svg PUBLIC "-//W3C//DTD SVG 1.1//EN" "http://www.w3.org/Graphics/SVG/1.1/DTD/svg11.dtd" 
[ <!ATTLIST svg 
  xmlns:dsy CDATA #FIXED "http://www.3ds.com/print"  
    dsy:text-version CDATA #IMPLIED > 

  <!ATTLIST text 
  xmlns:dsy CDATA #FIXED "http://www.3ds.com/print" 
    dsy:text-version CDATA #IMPLIED > 
]><svg xmlns="http://www.w3.org/2000/svg" xmlns:dsy="http://www.3ds.com/print" dsy:text-version="18000" width="420" height="297" viewBox="0 0 420 297" version="1.1"><g stroke="rgb(0, 0, 0)" stroke-width="0.35" stroke-linecap="butt" stroke-linejoin="miter" fill="none"><path d="M 375.002 155.547 L 375.002 139.547"/><path d="M 367.002 163.547 A 8 8 0 0 0 375.002 155.547"/><path d="M 35.0018 163.547 L 367.002 163.547"/><path d="M 27.0018 155.547 A 8 8 0 0 0 35.0018 163.547"/><path d="M 27.0018 139.547 L 27.0018 155.547"/><path d="M 35.0018 131.547 A 8 8 0 0 0 27.0018 139.547"/><path d="M 35.0018 131.547 L 100.102 131.547"/><path d="M 100.102 131.547 L 100.102 141.547"/><path d="M 100.102 141.547 L 105.002 141.547"/><path d="M 105.002 141.547 L 105.002 131.547"/><path d="M 105.002 131.547 L 210.102 131.547"/><path d="M 210.102 131.547 L 210.102 141.547"/><path d="M 210.102 141.547 L 215.002 141.547"/><path d="M 215.002 141.547 L 215.002 131.547"/><path d="M 215.002 131.547 L 367.002 131.547"/><path d="M 375.002 139.547 A 8 8 0 0 0 367.002 131.547"/><circle cx="38.8348" cy="142.804" r="3.10001"/><circle cx="367.324" cy="147.569" r="3.10001"/><path d="M 40.7621 152.377 L 37.3713 157.327"/><path d="M 37.3713 157.327 L 38.1964 157.892"/><path d="M 38.1964 157.892 L 41.5872 152.942"/><path d="M 40.7621 152.377 L 41.5872 152.942"/><path d="M 362.216 154.081 L 363.014 153.478"/><path d="M 365.83 158.87 L 362.216 154.081"/><path d="M 366.628 158.267 L 365.83 158.87"/><path d="M 363.014 153.478 L 366.628 158.267"/></g></svg>