<?xml version="1.0" encoding="utf-8" ?><!DOCTYPE svg PUBLIC "-//W3C//DTD SVG 1.1//EN" "http://www.w3.org/Graphics/SVG/1.1/DTD/svg11.dtd" 
[ <!ATTLIST svg 
  xmlns:dsy CDATA #FIXED "http://www.3ds.com/print"  
    dsy:text-version CDATA #IMPLIED > 

  <!ATTLIST text 
  xmlns:dsy CDATA #FIXED "http://www.3ds.com/print" 
    dsy:text-version CDATA #IMPLIED > 
]><svg xmlns="http://www.w3.org/2000/svg" xmlns:dsy="http://www.3ds.com/print" dsy:text-version="18000" width="297" height="210" viewBox="0 0 297 210" version="1.1"><g stroke="rgb(0, 0, 0)" stroke-width="0.35" stroke-linecap="butt" stroke-linejoin="miter" fill="none"><path d="M 129.499 31.0516 L 129.499 186.052"/><path d="M 129.499 186.052 A 8.00002 8.00002 0 0 0 137.499 194.052"/><path d="M 137.499 194.052 L 161.499 194.052"/><path d="M 161.499 194.052 A 8.00002 8.00002 0 0 0 169.499 186.052"/><path d="M 169.499 186.052 L 169.499 181.052"/><path d="M 169.499 181.052 L 159.499 181.052"/><path d="M 159.499 181.052 L 159.499 176.152"/><path d="M 159.499 176.152 L 169.499 176.152"/><path d="M 169.499 176.152 L 169.499 100.952"/><path d="M 169.499 100.952 L 159.499 100.952"/><path d="M 159.499 100.952 L 159.499 96.0516"/><path d="M 159.499 96.0516 L 169.499 96.0516"/><path d="M 169.499 96.0516 L 169.499 71.0516"/><path d="M 177.499 63.0516 A 8.00002 8.00002 0 0 0 169.499 71.0516"/><path d="M 177.499 63.0516 L 188.499 63.0516"/><path d="M 137.499 23.0516 L 188.499 23.0516"/><path d="M 137.499 23.0516 A 8.00002 8.00002 0 0 0 129.499 31.0516"/><path d="M 188.499 29.6924 L 188.499 23.0516"/><path d="M 188.499 63.0516 L 188.499 54.4969"/><path d="M 186.924 54.5966 A 12.5004 12.5004 0 0 0 188.499 54.4969"/><path d="M 186.915 29.5912 A 12.4993 12.4993 0 0 0 177.421 50.2187"/><path d="M 177.421 50.2193 A 12.5061 12.5061 0 0 0 186.924 54.5967"/><path d="M 188.499 29.6924 A 12.502 12.502 0 0 0 186.915 29.5917"/><path d="M 186.838 54.4969 A 12.5003 12.5003 0 0 0 188.499 54.3861"/><path d="M 177.378 50.1696 A 12.5061 12.5061 0 0 0 186.838 54.4969"/><path d="M 188.499 54.3861 L 188.499 54.4969"/></g></svg>