<?xml version="1.0" encoding="utf-8" ?><!DOCTYPE svg PUBLIC "-//W3C//DTD SVG 1.1//EN" "http://www.w3.org/Graphics/SVG/1.1/DTD/svg11.dtd" 
[ <!ATTLIST svg 
  xmlns:dsy CDATA #FIXED "http://www.3ds.com/print"  
    dsy:text-version CDATA #IMPLIED > 

  <!ATTLIST text 
  xmlns:dsy CDATA #FIXED "http://www.3ds.com/print" 
    dsy:text-version CDATA #IMPLIED > 
]><svg xmlns="http://www.w3.org/2000/svg" xmlns:dsy="http://www.3ds.com/print" dsy:text-version="18000" width="297" height="210" viewBox="0 0 297 210" version="1.1"><g stroke="rgb(0, 0, 0)" stroke-width="0.35" stroke-linecap="butt" stroke-linejoin="miter" fill="none"><path d="M 121.195 32.2356 L 121.195 187.236"/><path d="M 121.195 187.236 A 8 8 0 0 0 129.195 195.236"/><path d="M 129.195 195.236 L 153.195 195.236"/><path d="M 153.195 195.236 A 8 8 0 0 0 161.195 187.236"/><path d="M 161.195 187.236 L 161.195 182.236"/><path d="M 161.195 182.236 L 151.195 182.236"/><path d="M 151.195 182.236 L 151.195 177.336"/><path d="M 151.195 177.336 L 161.195 177.336"/><path d="M 161.195 177.336 L 161.195 102.136"/><path d="M 161.195 102.136 L 151.195 102.136"/><path d="M 151.195 102.136 L 151.195 97.2356"/><path d="M 151.195 97.2356 L 161.195 97.2356"/><path d="M 161.195 97.2356 L 161.195 72.2356"/><path d="M 169.195 64.2356 A 8 8 0 0 0 161.195 72.2356"/><path d="M 169.195 64.2356 L 180.195 64.2356"/><path d="M 129.195 24.2356 L 180.195 24.2356"/><path d="M 129.195 24.2356 A 8 8 0 0 0 121.195 32.2356"/><path d="M 180.195 32.9875 L 180.195 24.2356"/><path d="M 180.195 64.2356 L 180.195 57.9848"/><path d="M 180.195 32.987 A 12.4994 12.4994 0 0 0 171.005 53.6108"/><path d="M 171.005 53.6113 A 12.5063 12.5063 0 0 0 180.195 57.9848"/><path d="M 170.963 53.5618 A 12.5062 12.5062 0 0 0 180.195 57.887"/><path d="M 180.195 57.9848 L 180.195 57.8869"/></g></svg>