<?xml version="1.0" encoding="utf-8" ?><!DOCTYPE svg PUBLIC "-//W3C//DTD SVG 1.1//EN" "http://www.w3.org/Graphics/SVG/1.1/DTD/svg11.dtd" 
[ <!ATTLIST svg 
  xmlns:dsy CDATA #FIXED "http://www.3ds.com/print"  
    dsy:text-version CDATA #IMPLIED > 

  <!ATTLIST text 
  xmlns:dsy CDATA #FIXED "http://www.3ds.com/print" 
    dsy:text-version CDATA #IMPLIED > 
]><svg xmlns="http://www.w3.org/2000/svg" xmlns:dsy="http://www.3ds.com/print" dsy:text-version="18000" width="420" height="297" viewBox="0 0 420 297" version="1.1"><g stroke="rgb(0, 0, 0)" stroke-width="0.35" stroke-linecap="butt" stroke-linejoin="miter" fill="none"><path d="M 57.8963 141.096 L 73.1823 153.993"/><path d="M 73.1823 153.993 L 70.0224 157.738"/><path d="M 70.0224 157.738 L 54.7364 144.841"/><path d="M 54.7364 144.841 L 18.8981 187.317"/><path d="M 18.8981 187.317 L 386.904 187.319"/><path d="M 386.904 187.319 L 386.904 147.964"/><path d="M 386.904 147.964 L 366.904 147.964"/><path d="M 366.904 147.964 L 366.904 143.064"/><path d="M 366.904 143.064 L 386.904 143.064"/><path d="M 386.904 143.064 L 386.904 107.086"/><path d="M 386.904 107.086 L 86.5807 107.085"/><path d="M 86.5807 107.085 L 57.8963 141.096"/><circle cx="379.904" cy="114.086" r="1.69999"/><circle cx="379.904" cy="180.319" r="1.69999"/><circle cx="33.9627" cy="180.318" r="1.69999"/><circle cx="89.8341" cy="114.085" r="1.69999"/><path d="M 382.608 120.367 L 372.609 120.425"/><path d="M 382.62 122.367 L 382.608 120.367"/><path d="M 372.62 122.425 L 382.62 122.367"/><path d="M 372.609 120.425 L 372.62 122.425"/><path d="M 382.812 174.288 L 382.812 172.288"/><path d="M 372.812 174.288 L 382.812 174.288"/><path d="M 372.812 172.288 L 372.812 174.288"/><path d="M 382.812 172.288 L 372.812 172.288"/><path d="M 35.2143 173.468 L 42.8336 179.945"/><path d="M 36.5096 171.945 L 35.2143 173.468"/><path d="M 44.1289 178.421 L 36.5096 171.945"/><path d="M 42.8336 179.945 L 44.1289 178.421"/><path d="M 83.9665 116.972 L 82.6713 118.496"/><path d="M 91.586 123.449 L 83.9665 116.972"/><path d="M 90.2906 124.973 L 91.586 123.449"/><path d="M 82.6713 118.496 L 90.2906 124.973"/></g><g stroke="rgb(0, 0, 0)" stroke-width="0.13" stroke-linecap="butt" stroke-linejoin="miter" fill="none"><path d="M 196.171 231.622 L 196.64 231.622 L 196.64 230.013 L 198.112 230.013 L 198.112 229.595 L 196.64 229.595 L 196.64 228.546 L 198.45 228.546 L 198.45 228.122 L 196.171 228.122 L 196.171 231.622 L 196.171 231.622 z M 199.363 231.622 L 199.807 231.622 L 199.807 230.074 L 199.852 229.701 L 199.988 229.433 L 200.21 229.272 L 200.508 229.217 L 200.73 229.252 L 200.896 229.353 L 200.997 229.524 L 201.032 229.756 L 201.481 229.756 L 201.421 229.348 L 201.254 229.055 L 200.977 228.879 L 200.599 228.818 L 200.341 228.858 L 200.12 228.959 L 199.923 229.131 L 199.766 229.363 L 199.766 228.914 L 199.363 228.914 L 199.363 231.622 L 199.363 231.622 z M 202.102 230.271 L 202.182 230.886 L 202.414 231.34 L 202.782 231.622 L 203.277 231.718 L 203.766 231.622 L 204.134 231.345 L 204.366 230.891 L 204.452 230.271 L 204.366 229.655 L 204.134 229.196 L 203.766 228.919 L 203.277 228.818 L 202.782 228.919 L 202.414 229.201 L 202.182 229.655 L 202.102 230.271 L 202.102 230.271 z M 202.555 230.266 L 202.601 229.812 L 202.742 229.484 L 202.969 229.282 L 203.277 229.212 L 203.579 229.282 L 203.806 229.479 L 203.947 229.812 L 203.998 230.266 L 203.947 230.724 L 203.806 231.057 L 203.579 231.259 L 203.277 231.325 L 202.969 231.259 L 202.742 231.057 L 202.601 230.724 L 202.555 230.266 L 202.555 230.266 z M 205.269 231.622 L 205.712 231.622 L 205.712 230.059 L 205.758 229.701 L 205.904 229.438 L 206.131 229.277 L 206.434 229.217 L 206.676 229.267 L 206.827 229.403 L 206.903 229.63 L 206.928 229.933 L 206.928 231.622 L 207.372 231.622 L 207.372 229.842 L 207.352 229.484 L 207.261 229.186 L 206.963 228.914 L 206.499 228.818 L 206.242 228.853 L 206.025 228.949 L 205.839 229.111 L 205.692 229.327 L 205.692 228.914 L 205.269 228.914 L 205.269 231.622 L 205.269 231.622 z M 208.9 229.383 L 208.9 230.74 L 208.93 231.178 L 209.071 231.481 L 209.354 231.657 L 209.833 231.718 L 210.357 231.693 L 210.357 231.309 L 209.974 231.34 L 209.626 231.299 L 209.439 231.173 L 209.359 230.962 L 209.344 230.664 L 209.344 229.383 L 210.357 229.383 L 210.357 229.005 L 209.344 229.005 L 209.344 228.213 L 208.9 228.213 L 208.9 229.005 L 208.133 229.005 L 208.133 229.383 L 208.9 229.383 L 208.9 229.383 z M 215.189 231.622 L 215.658 231.622 L 216.646 228.914 L 216.187 228.914 L 215.426 231.098 L 214.649 228.914 L 214.185 228.914 L 215.189 231.622 L 215.189 231.622 z M 218.769 231.249 L 218.769 229.005 L 217.63 229.005 L 217.63 229.383 L 218.326 229.383 L 218.326 231.249 L 217.418 231.249 L 217.418 231.622 L 219.687 231.622 L 219.687 231.249 L 218.769 231.249 L 218.769 231.249 z M 218.785 228.001 L 218.316 228.001 L 218.316 228.505 L 218.785 228.505 L 218.785 228.001 L 218.785 228.001 z M 220.837 230.397 L 222.612 230.397 L 222.617 230.19 L 222.537 229.61 L 222.315 229.176 L 221.962 228.914 L 221.493 228.818 L 221.034 228.919 L 220.681 229.201 L 220.454 229.66 L 220.373 230.266 L 220.449 230.886 L 220.676 231.34 L 221.024 231.622 L 221.478 231.718 L 221.871 231.652 L 222.194 231.481 L 222.431 231.209 L 222.567 230.846 L 222.128 230.846 L 222.037 231.047 L 221.906 231.199 L 221.533 231.32 L 221.246 231.264 L 221.029 231.088 L 220.888 230.8 L 220.837 230.412 L 220.837 230.397 L 220.837 230.397 z M 220.837 230.023 L 220.893 229.675 L 221.029 229.418 L 221.236 229.262 L 221.508 229.206 L 221.775 229.262 L 221.982 229.418 L 222.108 229.675 L 222.153 230.023 L 220.837 230.023 L 220.837 230.023 z M 224.125 231.622 L 224.529 229.322 L 224.932 231.622 L 225.356 231.622 L 226.022 228.914 L 225.593 228.914 L 225.144 231.214 L 224.746 228.914 L 224.307 228.914 L 223.908 231.214 L 223.46 228.914 L 223.036 228.914 L 223.702 231.622 L 224.125 231.622 L 224.125 231.622 z" stroke="none" fill-rule="evenodd" fill="rgb(0, 0, 0)"/></g><g stroke="rgb(0, 0, 0)" stroke-width="0.13" stroke-linecap="butt" stroke-linejoin="miter" fill="none"><path d="M 196.408 236.514 L 195.949 236.514 L 196.05 237.049 L 196.302 237.442 L 196.69 237.679 L 197.215 237.765 L 197.734 237.684 L 198.122 237.462 L 198.37 237.114 L 198.46 236.655 L 198.385 236.242 L 198.173 235.974 L 197.83 235.798 L 197.371 235.667 L 196.978 235.571 L 196.72 235.46 L 196.574 235.299 L 196.529 235.047 L 196.574 234.82 L 196.705 234.648 L 196.907 234.532 L 197.184 234.492 L 197.467 234.542 L 197.689 234.678 L 197.835 234.905 L 197.906 235.213 L 198.364 235.213 L 198.364 235.203 L 198.284 234.729 L 198.047 234.376 L 197.674 234.154 L 197.169 234.078 L 196.715 234.154 L 196.362 234.366 L 196.135 234.693 L 196.055 235.117 L 196.12 235.495 L 196.312 235.753 L 196.614 235.924 L 197.028 236.055 L 197.437 236.171 L 197.744 236.282 L 197.931 236.443 L 197.996 236.706 L 197.936 236.973 L 197.779 237.175 L 197.542 237.301 L 197.235 237.341 L 196.892 237.286 L 196.63 237.124 L 196.463 236.862 L 196.408 236.514 L 196.408 236.514 z M 200.921 235.858 L 201.36 235.858 L 201.269 235.455 L 201.053 235.137 L 200.715 234.941 L 200.276 234.865 L 199.792 234.966 L 199.424 235.248 L 199.192 235.707 L 199.111 236.322 L 199.187 236.933 L 199.413 237.387 L 199.772 237.669 L 200.261 237.765 L 200.694 237.689 L 201.032 237.477 L 201.264 237.144 L 201.365 236.701 L 200.942 236.701 L 200.866 236.983 L 200.725 237.195 L 200.523 237.326 L 200.276 237.366 L 199.968 237.301 L 199.746 237.099 L 199.61 236.771 L 199.565 236.307 L 199.61 235.853 L 199.751 235.526 L 199.978 235.324 L 200.276 235.253 L 200.538 235.299 L 200.735 235.415 L 200.866 235.606 L 200.921 235.858 L 200.921 235.858 z M 203.841 237.316 L 203.841 237.331 L 203.867 237.503 L 203.942 237.624 L 204.26 237.719 L 204.507 237.679 L 204.507 237.336 L 204.401 237.351 L 204.26 237.286 L 204.235 237.084 L 204.235 235.682 L 204.174 235.324 L 203.998 235.072 L 203.69 234.92 L 203.256 234.865 L 202.833 234.925 L 202.52 235.097 L 202.323 235.364 L 202.258 235.717 L 202.258 235.748 L 202.656 235.748 L 202.692 235.536 L 202.803 235.384 L 202.984 235.294 L 203.241 235.258 L 203.488 235.284 L 203.665 235.359 L 203.771 235.49 L 203.806 235.672 L 203.786 235.884 L 203.705 235.99 L 203.504 236.04 L 203.125 236.08 L 202.692 236.171 L 202.384 236.333 L 202.202 236.585 L 202.147 236.958 L 202.197 237.291 L 202.354 237.538 L 202.606 237.694 L 202.954 237.75 L 203.423 237.644 L 203.841 237.316 L 203.841 237.316 z M 203.791 236.721 L 203.73 236.983 L 203.569 237.185 L 203.327 237.316 L 203.029 237.361 L 202.838 237.336 L 202.702 237.255 L 202.616 237.114 L 202.591 236.918 L 202.611 236.741 L 202.692 236.615 L 203.014 236.474 L 203.423 236.413 L 203.791 236.292 L 203.791 236.721 L 203.791 236.721 z M 206.151 234.421 L 206.151 237.296 L 205.238 237.296 L 205.238 237.669 L 207.503 237.669 L 207.503 237.296 L 206.595 237.296 L 206.595 234.048 L 205.455 234.048 L 205.455 234.421 L 206.151 234.421 L 206.151 234.421 z M 208.693 236.443 L 210.468 236.443 L 210.473 236.237 L 210.393 235.657 L 210.171 235.223 L 209.818 234.961 L 209.349 234.865 L 208.89 234.966 L 208.537 235.248 L 208.31 235.707 L 208.229 236.312 L 208.305 236.933 L 208.532 237.387 L 208.88 237.669 L 209.334 237.765 L 209.727 237.699 L 210.05 237.528 L 210.287 237.255 L 210.423 236.892 L 209.984 236.892 L 209.893 237.094 L 209.762 237.245 L 209.389 237.366 L 209.102 237.311 L 208.885 237.134 L 208.743 236.847 L 208.693 236.459 L 208.693 236.443 L 208.693 236.443 z M 208.693 236.07 L 208.748 235.722 L 208.885 235.465 L 209.091 235.309 L 209.364 235.253 L 209.631 235.309 L 209.838 235.465 L 209.964 235.722 L 210.009 236.07 L 208.693 236.07 L 208.693 236.07 z M 212.037 237.669 L 212.733 237.669 L 212.733 236.918 L 212.037 236.918 L 212.037 237.669 L 212.037 237.669 z M 212.037 235.712 L 212.733 235.712 L 212.733 234.961 L 212.037 234.961 L 212.037 235.712 L 212.037 235.712 z" stroke="none" fill-rule="evenodd" fill="rgb(0, 0, 0)"/></g><g stroke="rgb(0, 0, 0)" stroke-width="0.13" stroke-linecap="butt" stroke-linejoin="miter" fill="none"><path d="M 221.402 237.669 L 221.861 237.669 L 221.861 234.144 L 221.518 234.144 L 221.427 234.451 L 221.246 234.658 L 220.968 234.779 L 220.585 234.82 L 220.585 235.178 L 221.402 235.178 L 221.402 237.669 L 221.402 237.669 z M 224.181 237.669 L 224.877 237.669 L 224.877 236.918 L 224.181 236.918 L 224.181 237.669 L 224.181 237.669 z M 224.181 235.712 L 224.877 235.712 L 224.877 234.961 L 224.181 234.961 L 224.181 235.712 L 224.181 235.712 z M 227.474 237.669 L 227.933 237.669 L 227.933 234.144 L 227.59 234.144 L 227.499 234.451 L 227.318 234.658 L 227.04 234.779 L 226.657 234.82 L 226.657 235.178 L 227.474 235.178 L 227.474 237.669 L 227.474 237.669 z" stroke="none" fill-rule="evenodd" fill="rgb(0, 0, 0)"/></g></svg>