<?xml version="1.0" encoding="utf-8" ?><!DOCTYPE svg PUBLIC "-//W3C//DTD SVG 1.1//EN" "http://www.w3.org/Graphics/SVG/1.1/DTD/svg11.dtd" 
[ <!ATTLIST svg 
  xmlns:dsy CDATA #FIXED "http://www.3ds.com/print"  
    dsy:text-version CDATA #IMPLIED > 

  <!ATTLIST text 
  xmlns:dsy CDATA #FIXED "http://www.3ds.com/print" 
    dsy:text-version CDATA #IMPLIED > 
]><svg xmlns="http://www.w3.org/2000/svg" xmlns:dsy="http://www.3ds.com/print" dsy:text-version="18000" width="297" height="210" viewBox="0 0 297 210" version="1.1"><g stroke="rgb(0, 0, 0)" stroke-width="0.35" stroke-linecap="butt" stroke-linejoin="miter" fill="none"><path d="M 138.5 93.5502 L 138.5 98.4501"/><path d="M 118.5 93.5503 L 138.5 93.5502"/><path d="M 118.5 73.5503 L 118.5 93.5503"/><path d="M 178.5 73.5499 L 118.5 73.5503"/><path d="M 118.5 136.45 L 178.5 136.45"/><path d="M 118.5 98.4503 L 118.5 136.45"/><path d="M 138.5 98.4501 L 118.5 98.4503"/><path d="M 178.5 136.45 L 178.5 118.07"/><path d="M 178.5 90.6474 L 178.5 73.5499"/><path d="M 178.5 90.6468 A 14.014 14.014 0 0 0 167.51 102.577"/><path d="M 167.509 102.577 A 14.0247 14.0247 0 0 0 169.204 111.251"/><path d="M 169.204 111.251 A 13.9963 13.9963 0 0 0 178.5 118.071"/><path d="M 167.524 102.463 A 14.0247 14.0247 0 0 0 169.233 111.023"/><path d="M 169.233 111.023 A 13.9963 13.9963 0 0 0 178.5 117.836"/><path d="M 178.5 117.836 L 178.5 118.07"/></g><g stroke="rgb(0, 0, 0)" stroke-width="0.13" stroke-linecap="butt" stroke-linejoin="miter" fill="none"><path d="M 148.873 148.393 L 149.342 148.393 L 149.342 146.784 L 150.815 146.784 L 150.815 146.366 L 149.342 146.366 L 149.342 145.317 L 151.153 145.317 L 151.153 144.893 L 148.873 144.893 L 148.873 148.393 L 148.873 148.393 z M 152.065 148.393 L 152.509 148.393 L 152.509 146.845 L 152.555 146.472 L 152.691 146.204 L 152.913 146.043 L 153.21 145.987 L 153.432 146.023 L 153.599 146.124 L 153.699 146.295 L 153.735 146.527 L 154.184 146.527 L 154.123 146.119 L 153.957 145.826 L 153.679 145.65 L 153.301 145.589 L 153.044 145.629 L 152.822 145.73 L 152.625 145.902 L 152.469 146.134 L 152.469 145.685 L 152.065 145.685 L 152.065 148.393 L 152.065 148.393 z M 154.804 147.041 L 154.885 147.657 L 155.117 148.111 L 155.485 148.393 L 155.979 148.489 L 156.468 148.393 L 156.836 148.116 L 157.068 147.662 L 157.154 147.041 L 157.068 146.426 L 156.836 145.967 L 156.468 145.69 L 155.979 145.589 L 155.485 145.69 L 155.117 145.972 L 154.885 146.426 L 154.804 147.041 L 154.804 147.041 z M 155.258 147.036 L 155.303 146.583 L 155.444 146.255 L 155.671 146.053 L 155.979 145.982 L 156.282 146.053 L 156.509 146.25 L 156.65 146.583 L 156.7 147.036 L 156.65 147.495 L 156.509 147.828 L 156.282 148.03 L 155.979 148.096 L 155.671 148.03 L 155.444 147.828 L 155.303 147.495 L 155.258 147.036 L 155.258 147.036 z M 157.971 148.393 L 158.415 148.393 L 158.415 146.83 L 158.46 146.472 L 158.607 146.209 L 158.834 146.048 L 159.136 145.987 L 159.378 146.038 L 159.529 146.174 L 159.605 146.401 L 159.63 146.704 L 159.63 148.393 L 160.074 148.393 L 160.074 146.613 L 160.054 146.255 L 159.963 145.957 L 159.666 145.685 L 159.202 145.589 L 158.944 145.624 L 158.728 145.72 L 158.541 145.882 L 158.395 146.098 L 158.395 145.685 L 157.971 145.685 L 157.971 148.393 L 157.971 148.393 z M 161.602 146.154 L 161.602 147.51 L 161.633 147.949 L 161.774 148.252 L 162.056 148.428 L 162.535 148.489 L 163.06 148.464 L 163.06 148.08 L 162.676 148.111 L 162.328 148.07 L 162.142 147.944 L 162.061 147.732 L 162.046 147.435 L 162.046 146.154 L 163.06 146.154 L 163.06 145.776 L 162.046 145.776 L 162.046 144.984 L 161.602 144.984 L 161.602 145.776 L 160.836 145.776 L 160.836 146.154 L 161.602 146.154 L 161.602 146.154 z M 167.891 148.393 L 168.36 148.393 L 169.349 145.685 L 168.89 145.685 L 168.128 147.869 L 167.352 145.685 L 166.888 145.685 L 167.891 148.393 L 167.891 148.393 z M 171.472 148.02 L 171.472 145.776 L 170.332 145.776 L 170.332 146.154 L 171.028 146.154 L 171.028 148.02 L 170.12 148.02 L 170.12 148.393 L 172.39 148.393 L 172.39 148.02 L 171.472 148.02 L 171.472 148.02 z M 171.487 144.772 L 171.018 144.772 L 171.018 145.276 L 171.487 145.276 L 171.487 144.772 L 171.487 144.772 z M 173.54 147.168 L 175.315 147.168 L 175.32 146.961 L 175.239 146.381 L 175.017 145.947 L 174.664 145.685 L 174.195 145.589 L 173.736 145.69 L 173.383 145.972 L 173.156 146.431 L 173.076 147.036 L 173.151 147.657 L 173.378 148.111 L 173.726 148.393 L 174.18 148.489 L 174.573 148.423 L 174.896 148.252 L 175.133 147.98 L 175.269 147.616 L 174.831 147.616 L 174.74 147.818 L 174.609 147.969 L 174.236 148.09 L 173.948 148.035 L 173.731 147.858 L 173.59 147.571 L 173.54 147.183 L 173.54 147.168 L 173.54 147.168 z M 173.54 146.794 L 173.595 146.446 L 173.731 146.189 L 173.938 146.033 L 174.21 145.977 L 174.478 146.033 L 174.684 146.189 L 174.81 146.446 L 174.856 146.794 L 173.54 146.794 L 173.54 146.794 z M 176.828 148.393 L 177.231 146.093 L 177.635 148.393 L 178.058 148.393 L 178.724 145.685 L 178.295 145.685 L 177.846 147.985 L 177.448 145.685 L 177.009 145.685 L 176.611 147.985 L 176.162 145.685 L 175.738 145.685 L 176.404 148.393 L 176.828 148.393 L 176.828 148.393 z" stroke="none" fill-rule="evenodd" fill="rgb(0, 0, 0)"/></g><g stroke="rgb(0, 0, 0)" stroke-width="0.13" stroke-linecap="butt" stroke-linejoin="miter" fill="none"><path d="M 149.11 153.285 L 148.651 153.285 L 148.752 153.82 L 149.004 154.213 L 149.393 154.45 L 149.917 154.536 L 150.437 154.455 L 150.825 154.233 L 151.072 153.885 L 151.163 153.426 L 151.087 153.013 L 150.875 152.745 L 150.532 152.569 L 150.073 152.438 L 149.68 152.342 L 149.423 152.231 L 149.277 152.07 L 149.231 151.817 L 149.277 151.59 L 149.408 151.419 L 149.609 151.303 L 149.887 151.263 L 150.169 151.313 L 150.391 151.449 L 150.537 151.676 L 150.608 151.984 L 151.067 151.984 L 151.067 151.974 L 150.986 151.5 L 150.749 151.147 L 150.376 150.925 L 149.872 150.849 L 149.418 150.925 L 149.065 151.137 L 148.838 151.464 L 148.757 151.888 L 148.823 152.266 L 149.014 152.523 L 149.317 152.695 L 149.73 152.826 L 150.139 152.942 L 150.447 153.053 L 150.633 153.214 L 150.699 153.477 L 150.638 153.744 L 150.482 153.946 L 150.245 154.072 L 149.937 154.112 L 149.594 154.057 L 149.332 153.895 L 149.166 153.633 L 149.11 153.285 L 149.11 153.285 z M 153.624 152.629 L 154.063 152.629 L 153.972 152.226 L 153.755 151.908 L 153.417 151.711 L 152.978 151.636 L 152.494 151.737 L 152.126 152.019 L 151.894 152.478 L 151.813 153.093 L 151.889 153.704 L 152.116 154.157 L 152.474 154.44 L 152.963 154.536 L 153.397 154.46 L 153.735 154.248 L 153.967 153.915 L 154.068 153.472 L 153.644 153.472 L 153.568 153.754 L 153.427 153.966 L 153.225 154.097 L 152.978 154.137 L 152.671 154.072 L 152.449 153.87 L 152.313 153.542 L 152.267 153.078 L 152.313 152.624 L 152.454 152.297 L 152.681 152.095 L 152.978 152.024 L 153.241 152.07 L 153.437 152.186 L 153.568 152.377 L 153.624 152.629 L 153.624 152.629 z M 156.544 154.087 L 156.544 154.102 L 156.569 154.273 L 156.645 154.394 L 156.962 154.49 L 157.21 154.45 L 157.21 154.107 L 157.104 154.122 L 156.962 154.057 L 156.937 153.855 L 156.937 152.453 L 156.877 152.095 L 156.7 151.843 L 156.393 151.691 L 155.959 151.636 L 155.535 151.696 L 155.223 151.868 L 155.026 152.135 L 154.96 152.488 L 154.96 152.518 L 155.359 152.518 L 155.394 152.307 L 155.505 152.155 L 155.687 152.065 L 155.944 152.029 L 156.191 152.054 L 156.367 152.13 L 156.473 152.261 L 156.509 152.443 L 156.488 152.655 L 156.408 152.76 L 156.206 152.811 L 155.828 152.851 L 155.394 152.942 L 155.086 153.103 L 154.905 153.356 L 154.849 153.729 L 154.9 154.062 L 155.056 154.309 L 155.308 154.465 L 155.656 154.521 L 156.125 154.415 L 156.544 154.087 L 156.544 154.087 z M 156.493 153.492 L 156.433 153.754 L 156.272 153.956 L 156.029 154.087 L 155.732 154.132 L 155.54 154.107 L 155.404 154.026 L 155.318 153.885 L 155.293 153.688 L 155.313 153.512 L 155.394 153.386 L 155.717 153.245 L 156.125 153.184 L 156.493 153.063 L 156.493 153.492 L 156.493 153.492 z M 158.854 151.192 L 158.854 154.067 L 157.941 154.067 L 157.941 154.44 L 160.205 154.44 L 160.205 154.067 L 159.297 154.067 L 159.297 150.819 L 158.158 150.819 L 158.158 151.192 L 158.854 151.192 L 158.854 151.192 z M 161.395 153.214 L 163.171 153.214 L 163.176 153.008 L 163.095 152.428 L 162.873 151.994 L 162.52 151.732 L 162.051 151.636 L 161.592 151.737 L 161.239 152.019 L 161.012 152.478 L 160.932 153.083 L 161.007 153.704 L 161.234 154.157 L 161.582 154.44 L 162.036 154.536 L 162.429 154.47 L 162.752 154.299 L 162.989 154.026 L 163.125 153.663 L 162.687 153.663 L 162.596 153.865 L 162.465 154.016 L 162.091 154.137 L 161.804 154.082 L 161.587 153.905 L 161.446 153.618 L 161.395 153.23 L 161.395 153.214 L 161.395 153.214 z M 161.395 152.841 L 161.451 152.493 L 161.587 152.236 L 161.794 152.08 L 162.066 152.024 L 162.334 152.08 L 162.54 152.236 L 162.666 152.493 L 162.712 152.841 L 161.395 152.841 L 161.395 152.841 z M 164.739 154.44 L 165.435 154.44 L 165.435 153.688 L 164.739 153.688 L 164.739 154.44 L 164.739 154.44 z M 164.739 152.483 L 165.435 152.483 L 165.435 151.732 L 164.739 151.732 L 164.739 152.483 L 164.739 152.483 z" stroke="none" fill-rule="evenodd" fill="rgb(0, 0, 0)"/></g><g stroke="rgb(0, 0, 0)" stroke-width="0.13" stroke-linecap="butt" stroke-linejoin="miter" fill="none"><path d="M 174.104 154.44 L 174.563 154.44 L 174.563 150.915 L 174.22 150.915 L 174.13 151.222 L 173.948 151.429 L 173.671 151.55 L 173.287 151.59 L 173.287 151.949 L 174.104 151.949 L 174.104 154.44 L 174.104 154.44 z M 176.883 154.44 L 177.579 154.44 L 177.579 153.688 L 176.883 153.688 L 176.883 154.44 L 176.883 154.44 z M 176.883 152.483 L 177.579 152.483 L 177.579 151.732 L 176.883 151.732 L 176.883 152.483 L 176.883 152.483 z M 180.176 154.44 L 180.635 154.44 L 180.635 150.915 L 180.292 150.915 L 180.202 151.222 L 180.02 151.429 L 179.743 151.55 L 179.359 151.59 L 179.359 151.949 L 180.176 151.949 L 180.176 154.44 L 180.176 154.44 z" stroke="none" fill-rule="evenodd" fill="rgb(0, 0, 0)"/></g></svg>