<?xml version="1.0" encoding="utf-8" ?><!DOCTYPE svg PUBLIC "-//W3C//DTD SVG 1.1//EN" "http://www.w3.org/Graphics/SVG/1.1/DTD/svg11.dtd" 
[ <!ATTLIST svg 
  xmlns:dsy CDATA #FIXED "http://www.3ds.com/print"  
    dsy:text-version CDATA #IMPLIED > 

  <!ATTLIST text 
  xmlns:dsy CDATA #FIXED "http://www.3ds.com/print" 
    dsy:text-version CDATA #IMPLIED > 
]><svg xmlns="http://www.w3.org/2000/svg" xmlns:dsy="http://www.3ds.com/print" dsy:text-version="18000" width="297" height="210" viewBox="0 0 297 210" version="1.1"><g stroke="rgb(0, 0, 0)" stroke-width="0.35" stroke-linecap="butt" stroke-linejoin="miter" fill="none"><path d="M 178.5 98.9453 L 158.5 98.9452"/><path d="M 158.5 98.9452 L 158.5 103.845"/><path d="M 178.5 103.845 L 158.5 103.845"/><path d="M 178.5 135.957 L 178.5 103.845"/><path d="M 118.5 135.957 L 178.5 135.957"/><path d="M 178.5 74.0432 L 118.5 74.0428"/><path d="M 178.5 98.9453 L 178.5 74.0432"/><path d="M 118.5 74.0428 L 118.5 89.3566"/><path d="M 118.5 118.334 L 118.5 135.957"/><path d="M 118.5 118.334 A 15 15 0 0 0 118.5 89.3566"/><path d="M 118.5 118.325 A 15 15 0 0 0 118.5 89.3655"/><path d="M 118.5 118.325 L 118.5 118.334"/><path d="M 118.5 89.3655 L 118.5 89.3566"/></g></svg>