<?xml version="1.0" standalone="no"?>
 <!DOCTYPE svg PUBLIC "-//W3C//DTD SVG 1.1//EN" 
 "http://www.w3.org/Graphics/SVG/1.1/DTD/svg11.dtd"> 
<svg
  xmlns:svg="http://www.w3.org/2000/svg"
  xmlns="http://www.w3.org/2000/svg"
  xmlns:xlink="http://www.w3.org/1999/xlink"
  version="1.1"
  width="9.144000cm" height="5.588000cm" viewBox="0 0 91440000 55880000">
<title>SVG Picture created as TSAL-F_Fab.svg date 2022/12/04 22:52:08 </title>
  <desc>Picture generated by PCBNEW </desc>
<g style="fill:#000000; fill-opacity:1.000000;stroke:#000000; stroke-opacity:1.000000;
stroke-linecap:round; stroke-linejoin:round;"
 transform="translate(0 0) scale(1 1)">
</g>
<g style="fill:#000000; fill-opacity:0.0; 
stroke:#000000; stroke-width:0.000000; stroke-opacity:1; 
stroke-linecap:round; stroke-linejoin:round;">
</g>
<g style="fill:#AFAFAF; fill-opacity:0.0; 
stroke:#AFAFAF; stroke-width:0.000000; stroke-opacity:1; 
stroke-linecap:round; stroke-linejoin:round;">
</g>
<g style="fill:#AFAFAF; fill-opacity:0.0; 
stroke:#AFAFAF; stroke-width:150000.000000; stroke-opacity:1; 
stroke-linecap:round; stroke-linejoin:round;">
<g transform="rotate(-90.000000 10870000.000000 20320000.000000)">
<text x="10870000.000000" y="21020000.000000"
textLength="9130200.000000" font-size="1866666.000000" lengthAdjust="spacingAndGlyphs"
text-anchor="middle" opacity="0">3P Droit</text>
</g>
<g class="stroked-text"><desc>3P Droit</desc>
<path d="M10103333 24520000
L10103333 23653333
L10636666 24120000
L10636666 23920000
L10703333 23786666
L10770000 23720000
L10903333 23653333
L11236666 23653333
L11370000 23720000
L11436666 23786666
L11503333 23920000
L11503333 24320000
L11436666 24453333
L11370000 24520000
" />
<path d="M11503333 23053333
L10103333 23053333
L10103333 22520000
L10170000 22386666
L10236666 22320000
L10370000 22253333
L10570000 22253333
L10703333 22320000
L10770000 22386666
L10836666 22520000
L10836666 23053333
" />
<path d="M11503333 20586666
L10103333 20586666
L10103333 20253333
L10170000 20053333
L10303333 19920000
L10436666 19853333
L10703333 19786666
L10903333 19786666
L11170000 19853333
L11303333 19920000
L11436666 20053333
L11503333 20253333
L11503333 20586666
" />
<path d="M11503333 19186666
L10570000 19186666
" />
<path d="M10836666 19186666
L10703333 19120000
L10636666 19053333
L10570000 18920000
L10570000 18786666
" />
<path d="M11503333 18120000
L11436666 18253333
L11370000 18320000
L11236666 18386666
L10836666 18386666
L10703333 18320000
L10636666 18253333
L10570000 18120000
L10570000 17920000
L10636666 17786666
L10703333 17720000
L10836666 17653333
L11236666 17653333
L11370000 17720000
L11436666 17786666
L11503333 17920000
L11503333 18120000
" />
<path d="M11503333 17053333
L10570000 17053333
" />
<path d="M10103333 17053333
L10170000 17120000
L10236666 17053333
L10170000 16986666
L10103333 17053333
L10236666 17053333
" />
<path d="M10570000 16586666
L10570000 16053333
" />
<path d="M10103333 16386666
L11303333 16386666
L11436666 16320000
L11503333 16186666
L11503333 16053333
" />
</g></g>
<g style="fill:#AFAFAF; fill-opacity:0.0; 
stroke:#AFAFAF; stroke-width:254000.000000; stroke-opacity:1; 
stroke-linecap:round; stroke-linejoin:round;">
<text x="58420000.000000" y="38735000.000000"
textLength="2976905.000000" font-size="1693333.000000" lengthAdjust="spacingAndGlyphs"
text-anchor="middle" opacity="0">TI1</text>
<g class="stroked-text"><desc>TI1</desc>
<path d="M57150000 37404523
L57875714 37404523
" />
<path d="M57512857 38674523
L57512857 37404523
" />
<path d="M58299047 38674523
L58299047 37404523
" />
<path d="M59569047 38674523
L58843333 38674523
" />
<path d="M59206190 38674523
L59206190 37404523
L59085238 37585952
L58964285 37706904
L58843333 37767380
" />
</g><text x="33020000.000000" y="38735000.000000"
textLength="3898295.000000" font-size="1693333.000000" lengthAdjust="spacingAndGlyphs"
text-anchor="middle" opacity="0">RV1</text>
<g class="stroked-text"><desc>RV1</desc>
<path d="M32264047 38674523
L31840714 38069761
" />
<path d="M31538333 38674523
L31538333 37404523
L32022142 37404523
L32143095 37465000
L32203571 37525476
L32264047 37646428
L32264047 37827857
L32203571 37948809
L32143095 38009285
L32022142 38069761
L31538333 38069761
" />
<path d="M32626904 37404523
L33050238 38674523
L33473571 37404523
" />
<path d="M34562142 38674523
L33836428 38674523
" />
<path d="M34199285 38674523
L34199285 37404523
L34078333 37585952
L33957380 37706904
L33836428 37767380
" />
</g><g transform="rotate(-90.000000 66040000.000000 35560000.000000)">
<text x="66040000.000000" y="36195000.000000"
textLength="7224486.000000" font-size="1693333.000000" lengthAdjust="spacingAndGlyphs"
text-anchor="middle" opacity="0">R 200k</text>
</g>
<g class="stroked-text"><desc>R 200k</desc>
<path d="M66614523 37979047
L66009761 38402380
" />
<path d="M66614523 38704761
L65344523 38704761
L65344523 38220952
L65405000 38100000
L65465476 38039523
L65586428 37979047
L65767857 37979047
L65888809 38039523
L65949285 38100000
L66009761 38220952
L66009761 38704761
" />
<path d="M65465476 36527619
L65405000 36467142
L65344523 36346190
L65344523 36043809
L65405000 35922857
L65465476 35862380
L65586428 35801904
L65707380 35801904
L65888809 35862380
L66614523 36588095
L66614523 35801904
" />
<path d="M65344523 35015714
L65344523 34894761
L65405000 34773809
L65465476 34713333
L65586428 34652857
L65828333 34592380
L66130714 34592380
L66372619 34652857
L66493571 34713333
L66554047 34773809
L66614523 34894761
L66614523 35015714
L66554047 35136666
L66493571 35197142
L66372619 35257619
L66130714 35318095
L65828333 35318095
L65586428 35257619
L65465476 35197142
L65405000 35136666
L65344523 35015714
" />
<path d="M65344523 33806190
L65344523 33685238
L65405000 33564285
L65465476 33503809
L65586428 33443333
L65828333 33382857
L66130714 33382857
L66372619 33443333
L66493571 33503809
L66554047 33564285
L66614523 33685238
L66614523 33806190
L66554047 33927142
L66493571 33987619
L66372619 34048095
L66130714 34108571
L65828333 34108571
L65586428 34048095
L65465476 33987619
L65405000 33927142
L65344523 33806190
" />
<path d="M66614523 32838571
L65344523 32838571
" />
<path d="M66130714 32717619
L66614523 32354761
" />
<path d="M65767857 32354761
L66251666 32838571
" />
</g><g transform="rotate(-90.000000 65939385.000000 49481115.000000)">
<text x="65939385.000000" y="50116115.000000"
textLength="4805438.000000" font-size="1693333.000000" lengthAdjust="spacingAndGlyphs"
text-anchor="middle" opacity="0">R 2k</text>
</g>
<g class="stroked-text"><desc>R 2k</desc>
<path d="M66513908 50690638
L65909146 51113972
" />
<path d="M66513908 51416353
L65243908 51416353
L65243908 50932543
L65304385 50811591
L65364861 50751115
L65485813 50690638
L65667242 50690638
L65788194 50751115
L65848670 50811591
L65909146 50932543
L65909146 51416353
" />
<path d="M65364861 49239210
L65304385 49178734
L65243908 49057781
L65243908 48755400
L65304385 48634448
L65364861 48573972
L65485813 48513495
L65606765 48513495
L65788194 48573972
L66513908 49299686
L66513908 48513495
" />
<path d="M66513908 47969210
L65243908 47969210
" />
<path d="M66030099 47848257
L66513908 47485400
" />
<path d="M65667242 47485400
L66151051 47969210
" />
</g><text x="71120000.000000" y="48895000.000000"
textLength="4805438.000000" font-size="1693333.000000" lengthAdjust="spacingAndGlyphs"
text-anchor="middle" opacity="0">R 1k</text>
<g class="stroked-text"><desc>R 1k</desc>
<path d="M69910476 48834523
L69487142 48229761
" />
<path d="M69184761 48834523
L69184761 47564523
L69668571 47564523
L69789523 47625000
L69850000 47685476
L69910476 47806428
L69910476 47987857
L69850000 48108809
L69789523 48169285
L69668571 48229761
L69184761 48229761
" />
<path d="M72087619 48834523
L71361904 48834523
" />
<path d="M71724761 48834523
L71724761 47564523
L71603809 47745952
L71482857 47866904
L71361904 47927380
" />
<path d="M72631904 48834523
L72631904 47564523
" />
<path d="M72752857 48350714
L73115714 48834523
" />
<path d="M73115714 47987857
L72631904 48471666
" />
</g><g transform="rotate(-90.000000 48260000.000000 35560000.000000)">
<text x="48260000.000000" y="36195000.000000"
textLength="7224486.000000" font-size="1693333.000000" lengthAdjust="spacingAndGlyphs"
text-anchor="middle" opacity="0">R 390k</text>
</g>
<g class="stroked-text"><desc>R 390k</desc>
<path d="M48834523 37979047
L48229761 38402380
" />
<path d="M48834523 38704761
L47564523 38704761
L47564523 38220952
L47625000 38100000
L47685476 38039523
L47806428 37979047
L47987857 37979047
L48108809 38039523
L48169285 38100000
L48229761 38220952
L48229761 38704761
" />
<path d="M47564523 36588095
L47564523 35801904
L48048333 36225238
L48048333 36043809
L48108809 35922857
L48169285 35862380
L48290238 35801904
L48592619 35801904
L48713571 35862380
L48774047 35922857
L48834523 36043809
L48834523 36406666
L48774047 36527619
L48713571 36588095
" />
<path d="M48834523 35197142
L48834523 34955238
L48774047 34834285
L48713571 34773809
L48532142 34652857
L48290238 34592380
L47806428 34592380
L47685476 34652857
L47625000 34713333
L47564523 34834285
L47564523 35076190
L47625000 35197142
L47685476 35257619
L47806428 35318095
L48108809 35318095
L48229761 35257619
L48290238 35197142
L48350714 35076190
L48350714 34834285
L48290238 34713333
L48229761 34652857
L48108809 34592380
" />
<path d="M47564523 33806190
L47564523 33685238
L47625000 33564285
L47685476 33503809
L47806428 33443333
L48048333 33382857
L48350714 33382857
L48592619 33443333
L48713571 33503809
L48774047 33564285
L48834523 33685238
L48834523 33806190
L48774047 33927142
L48713571 33987619
L48592619 34048095
L48350714 34108571
L48048333 34108571
L47806428 34048095
L47685476 33987619
L47625000 33927142
L47564523 33806190
" />
<path d="M48834523 32838571
L47564523 32838571
" />
<path d="M48350714 32717619
L48834523 32354761
" />
<path d="M47987857 32354761
L48471666 32838571
" />
</g><text x="40640000.000000" y="31115000.000000"
textLength="7224486.000000" font-size="1693333.000000" lengthAdjust="spacingAndGlyphs"
text-anchor="middle" opacity="0">R 390k</text>
<g class="stroked-text"><desc>R 390k</desc>
<path d="M38220952 31054523
L37797619 30449761
" />
<path d="M37495238 31054523
L37495238 29784523
L37979047 29784523
L38100000 29845000
L38160476 29905476
L38220952 30026428
L38220952 30207857
L38160476 30328809
L38100000 30389285
L37979047 30449761
L37495238 30449761
" />
<path d="M39611904 29784523
L40398095 29784523
L39974761 30268333
L40156190 30268333
L40277142 30328809
L40337619 30389285
L40398095 30510238
L40398095 30812619
L40337619 30933571
L40277142 30994047
L40156190 31054523
L39793333 31054523
L39672380 30994047
L39611904 30933571
" />
<path d="M41002857 31054523
L41244761 31054523
L41365714 30994047
L41426190 30933571
L41547142 30752142
L41607619 30510238
L41607619 30026428
L41547142 29905476
L41486666 29845000
L41365714 29784523
L41123809 29784523
L41002857 29845000
L40942380 29905476
L40881904 30026428
L40881904 30328809
L40942380 30449761
L41002857 30510238
L41123809 30570714
L41365714 30570714
L41486666 30510238
L41547142 30449761
L41607619 30328809
" />
<path d="M42393809 29784523
L42514761 29784523
L42635714 29845000
L42696190 29905476
L42756666 30026428
L42817142 30268333
L42817142 30570714
L42756666 30812619
L42696190 30933571
L42635714 30994047
L42514761 31054523
L42393809 31054523
L42272857 30994047
L42212380 30933571
L42151904 30812619
L42091428 30570714
L42091428 30268333
L42151904 30026428
L42212380 29905476
L42272857 29845000
L42393809 29784523
" />
<path d="M43361428 31054523
L43361428 29784523
" />
<path d="M43482380 30570714
L43845238 31054523
" />
<path d="M43845238 30207857
L43361428 30691666
" />
</g><text x="38100000.000000" y="46355000.000000"
textLength="6014962.000000" font-size="1693333.000000" lengthAdjust="spacingAndGlyphs"
text-anchor="middle" opacity="0">R 10k</text>
<g class="stroked-text"><desc>R 10k</desc>
<path d="M36285714 46294523
L35862380 45689761
" />
<path d="M35560000 46294523
L35560000 45024523
L36043809 45024523
L36164761 45085000
L36225238 45145476
L36285714 45266428
L36285714 45447857
L36225238 45568809
L36164761 45629285
L36043809 45689761
L35560000 45689761
" />
<path d="M38462857 46294523
L37737142 46294523
" />
<path d="M38100000 46294523
L38100000 45024523
L37979047 45205952
L37858095 45326904
L37737142 45387380
" />
<path d="M39249047 45024523
L39370000 45024523
L39490952 45085000
L39551428 45145476
L39611904 45266428
L39672380 45508333
L39672380 45810714
L39611904 46052619
L39551428 46173571
L39490952 46234047
L39370000 46294523
L39249047 46294523
L39128095 46234047
L39067619 46173571
L39007142 46052619
L38946666 45810714
L38946666 45508333
L39007142 45266428
L39067619 45145476
L39128095 45085000
L39249047 45024523
" />
<path d="M40216666 46294523
L40216666 45024523
" />
<path d="M40337619 45810714
L40700476 46294523
" />
<path d="M40700476 45447857
L40216666 45931666
" />
</g><g transform="rotate(-90.000000 33020000.000000 17780000.000000)">
<text x="33020000.000000" y="18415000.000000"
textLength="6014962.000000" font-size="1693333.000000" lengthAdjust="spacingAndGlyphs"
text-anchor="middle" opacity="0">R 10k</text>
</g>
<g class="stroked-text"><desc>R 10k</desc>
<path d="M33594523 19594285
L32989761 20017619
" />
<path d="M33594523 20320000
L32324523 20320000
L32324523 19836190
L32385000 19715238
L32445476 19654761
L32566428 19594285
L32747857 19594285
L32868809 19654761
L32929285 19715238
L32989761 19836190
L32989761 20320000
" />
<path d="M33594523 17417142
L33594523 18142857
" />
<path d="M33594523 17780000
L32324523 17780000
L32505952 17900952
L32626904 18021904
L32687380 18142857
" />
<path d="M32324523 16630952
L32324523 16510000
L32385000 16389047
L32445476 16328571
L32566428 16268095
L32808333 16207619
L33110714 16207619
L33352619 16268095
L33473571 16328571
L33534047 16389047
L33594523 16510000
L33594523 16630952
L33534047 16751904
L33473571 16812380
L33352619 16872857
L33110714 16933333
L32808333 16933333
L32566428 16872857
L32445476 16812380
L32385000 16751904
L32324523 16630952
" />
<path d="M33594523 15663333
L32324523 15663333
" />
<path d="M33110714 15542380
L33594523 15179523
" />
<path d="M32747857 15179523
L33231666 15663333
" />
</g><g transform="rotate(-90.000000 35560000.000000 17780000.000000)">
<text x="35560000.000000" y="18415000.000000"
textLength="6014962.000000" font-size="1693333.000000" lengthAdjust="spacingAndGlyphs"
text-anchor="middle" opacity="0">R 14k</text>
</g>
<g class="stroked-text"><desc>R 14k</desc>
<path d="M36134523 19594285
L35529761 20017619
" />
<path d="M36134523 20320000
L34864523 20320000
L34864523 19836190
L34925000 19715238
L34985476 19654761
L35106428 19594285
L35287857 19594285
L35408809 19654761
L35469285 19715238
L35529761 19836190
L35529761 20320000
" />
<path d="M36134523 17417142
L36134523 18142857
" />
<path d="M36134523 17780000
L34864523 17780000
L35045952 17900952
L35166904 18021904
L35227380 18142857
" />
<path d="M35287857 16328571
L36134523 16328571
" />
<path d="M34804047 16630952
L35711190 16933333
L35711190 16147142
" />
<path d="M36134523 15663333
L34864523 15663333
" />
<path d="M35650714 15542380
L36134523 15179523
" />
<path d="M35287857 15179523
L35771666 15663333
" />
</g><g transform="rotate(-90.000000 25400000.000000 17780000.000000)">
<text x="25400000.000000" y="18415000.000000"
textLength="6014962.000000" font-size="1693333.000000" lengthAdjust="spacingAndGlyphs"
text-anchor="middle" opacity="0">R 10k</text>
</g>
<g class="stroked-text"><desc>R 10k</desc>
<path d="M25974523 19594285
L25369761 20017619
" />
<path d="M25974523 20320000
L24704523 20320000
L24704523 19836190
L24765000 19715238
L24825476 19654761
L24946428 19594285
L25127857 19594285
L25248809 19654761
L25309285 19715238
L25369761 19836190
L25369761 20320000
" />
<path d="M25974523 17417142
L25974523 18142857
" />
<path d="M25974523 17780000
L24704523 17780000
L24885952 17900952
L25006904 18021904
L25067380 18142857
" />
<path d="M24704523 16630952
L24704523 16510000
L24765000 16389047
L24825476 16328571
L24946428 16268095
L25188333 16207619
L25490714 16207619
L25732619 16268095
L25853571 16328571
L25914047 16389047
L25974523 16510000
L25974523 16630952
L25914047 16751904
L25853571 16812380
L25732619 16872857
L25490714 16933333
L25188333 16933333
L24946428 16872857
L24825476 16812380
L24765000 16751904
L24704523 16630952
" />
<path d="M25974523 15663333
L24704523 15663333
" />
<path d="M25490714 15542380
L25974523 15179523
" />
<path d="M25127857 15179523
L25611666 15663333
" />
</g><g transform="rotate(-90.000000 27940000.000000 17780000.000000)">
<text x="27940000.000000" y="18415000.000000"
textLength="6014962.000000" font-size="1693333.000000" lengthAdjust="spacingAndGlyphs"
text-anchor="middle" opacity="0">R 14k</text>
</g>
<g class="stroked-text"><desc>R 14k</desc>
<path d="M28514523 19594285
L27909761 20017619
" />
<path d="M28514523 20320000
L27244523 20320000
L27244523 19836190
L27305000 19715238
L27365476 19654761
L27486428 19594285
L27667857 19594285
L27788809 19654761
L27849285 19715238
L27909761 19836190
L27909761 20320000
" />
<path d="M28514523 17417142
L28514523 18142857
" />
<path d="M28514523 17780000
L27244523 17780000
L27425952 17900952
L27546904 18021904
L27607380 18142857
" />
<path d="M27667857 16328571
L28514523 16328571
" />
<path d="M27184047 16630952
L28091190 16933333
L28091190 16147142
" />
<path d="M28514523 15663333
L27244523 15663333
" />
<path d="M28030714 15542380
L28514523 15179523
" />
<path d="M27667857 15179523
L28151666 15663333
" />
</g><text x="55880000.000000" y="28575000.000000"
textLength="7224486.000000" font-size="1693333.000000" lengthAdjust="spacingAndGlyphs"
text-anchor="middle" opacity="0">R 500k</text>
<g class="stroked-text"><desc>R 500k</desc>
<path d="M53460952 28514523
L53037619 27909761
" />
<path d="M52735238 28514523
L52735238 27244523
L53219047 27244523
L53340000 27305000
L53400476 27365476
L53460952 27486428
L53460952 27667857
L53400476 27788809
L53340000 27849285
L53219047 27909761
L52735238 27909761
" />
<path d="M55577619 27244523
L54972857 27244523
L54912380 27849285
L54972857 27788809
L55093809 27728333
L55396190 27728333
L55517142 27788809
L55577619 27849285
L55638095 27970238
L55638095 28272619
L55577619 28393571
L55517142 28454047
L55396190 28514523
L55093809 28514523
L54972857 28454047
L54912380 28393571
" />
<path d="M56424285 27244523
L56545238 27244523
L56666190 27305000
L56726666 27365476
L56787142 27486428
L56847619 27728333
L56847619 28030714
L56787142 28272619
L56726666 28393571
L56666190 28454047
L56545238 28514523
L56424285 28514523
L56303333 28454047
L56242857 28393571
L56182380 28272619
L56121904 28030714
L56121904 27728333
L56182380 27486428
L56242857 27365476
L56303333 27305000
L56424285 27244523
" />
<path d="M57633809 27244523
L57754761 27244523
L57875714 27305000
L57936190 27365476
L57996666 27486428
L58057142 27728333
L58057142 28030714
L57996666 28272619
L57936190 28393571
L57875714 28454047
L57754761 28514523
L57633809 28514523
L57512857 28454047
L57452380 28393571
L57391904 28272619
L57331428 28030714
L57331428 27728333
L57391904 27486428
L57452380 27365476
L57512857 27305000
L57633809 27244523
" />
<path d="M58601428 28514523
L58601428 27244523
" />
<path d="M58722380 28030714
L59085238 28514523
" />
<path d="M59085238 27667857
L58601428 28151666
" />
</g><g transform="rotate(-90.000000 17780000.000000 17780000.000000)">
<text x="17780000.000000" y="18415000.000000"
textLength="6014962.000000" font-size="1693333.000000" lengthAdjust="spacingAndGlyphs"
text-anchor="middle" opacity="0">R 10k</text>
</g>
<g class="stroked-text"><desc>R 10k</desc>
<path d="M18354523 19594285
L17749761 20017619
" />
<path d="M18354523 20320000
L17084523 20320000
L17084523 19836190
L17145000 19715238
L17205476 19654761
L17326428 19594285
L17507857 19594285
L17628809 19654761
L17689285 19715238
L17749761 19836190
L17749761 20320000
" />
<path d="M18354523 17417142
L18354523 18142857
" />
<path d="M18354523 17780000
L17084523 17780000
L17265952 17900952
L17386904 18021904
L17447380 18142857
" />
<path d="M17084523 16630952
L17084523 16510000
L17145000 16389047
L17205476 16328571
L17326428 16268095
L17568333 16207619
L17870714 16207619
L18112619 16268095
L18233571 16328571
L18294047 16389047
L18354523 16510000
L18354523 16630952
L18294047 16751904
L18233571 16812380
L18112619 16872857
L17870714 16933333
L17568333 16933333
L17326428 16872857
L17205476 16812380
L17145000 16751904
L17084523 16630952
" />
<path d="M18354523 15663333
L17084523 15663333
" />
<path d="M17870714 15542380
L18354523 15179523
" />
<path d="M17507857 15179523
L17991666 15663333
" />
</g><g transform="rotate(-90.000000 55287201.000000 18593128.000000)">
<text x="55287201.000000" y="19228128.000000"
textLength="7224486.000000" font-size="1693333.000000" lengthAdjust="spacingAndGlyphs"
text-anchor="middle" opacity="0">R 600k</text>
</g>
<g class="stroked-text"><desc>R 600k</desc>
<path d="M55861724 21012175
L55256962 21435508
" />
<path d="M55861724 21737889
L54591724 21737889
L54591724 21254080
L54652201 21133128
L54712677 21072651
L54833629 21012175
L55015058 21012175
L55136010 21072651
L55196486 21133128
L55256962 21254080
L55256962 21737889
" />
<path d="M54591724 18955985
L54591724 19197889
L54652201 19318842
L54712677 19379318
L54894105 19500270
L55136010 19560747
L55619820 19560747
L55740772 19500270
L55801248 19439794
L55861724 19318842
L55861724 19076937
L55801248 18955985
L55740772 18895508
L55619820 18835032
L55317439 18835032
L55196486 18895508
L55136010 18955985
L55075534 19076937
L55075534 19318842
L55136010 19439794
L55196486 19500270
L55317439 19560747
" />
<path d="M54591724 18048842
L54591724 17927889
L54652201 17806937
L54712677 17746461
L54833629 17685985
L55075534 17625508
L55377915 17625508
L55619820 17685985
L55740772 17746461
L55801248 17806937
L55861724 17927889
L55861724 18048842
L55801248 18169794
L55740772 18230270
L55619820 18290747
L55377915 18351223
L55075534 18351223
L54833629 18290747
L54712677 18230270
L54652201 18169794
L54591724 18048842
" />
<path d="M54591724 16839318
L54591724 16718366
L54652201 16597413
L54712677 16536937
L54833629 16476461
L55075534 16415985
L55377915 16415985
L55619820 16476461
L55740772 16536937
L55801248 16597413
L55861724 16718366
L55861724 16839318
L55801248 16960270
L55740772 17020747
L55619820 17081223
L55377915 17141699
L55075534 17141699
L54833629 17081223
L54712677 17020747
L54652201 16960270
L54591724 16839318
" />
<path d="M55861724 15871699
L54591724 15871699
" />
<path d="M55377915 15750747
L55861724 15387889
" />
<path d="M55015058 15387889
L55498867 15871699
" />
</g><g transform="rotate(-90.000000 20320000.000000 17780000.000000)">
<text x="20320000.000000" y="18415000.000000"
textLength="6014962.000000" font-size="1693333.000000" lengthAdjust="spacingAndGlyphs"
text-anchor="middle" opacity="0">R 14k</text>
</g>
<g class="stroked-text"><desc>R 14k</desc>
<path d="M20894523 19594285
L20289761 20017619
" />
<path d="M20894523 20320000
L19624523 20320000
L19624523 19836190
L19685000 19715238
L19745476 19654761
L19866428 19594285
L20047857 19594285
L20168809 19654761
L20229285 19715238
L20289761 19836190
L20289761 20320000
" />
<path d="M20894523 17417142
L20894523 18142857
" />
<path d="M20894523 17780000
L19624523 17780000
L19805952 17900952
L19926904 18021904
L19987380 18142857
" />
<path d="M20047857 16328571
L20894523 16328571
" />
<path d="M19564047 16630952
L20471190 16933333
L20471190 16147142
" />
<path d="M20894523 15663333
L19624523 15663333
" />
<path d="M20410714 15542380
L20894523 15179523
" />
<path d="M20047857 15179523
L20531666 15663333
" />
</g><g transform="rotate(-90.000000 60448798.000000 12689109.000000)">
<text x="60448798.000000" y="13324109.000000"
textLength="4805438.000000" font-size="1693333.000000" lengthAdjust="spacingAndGlyphs"
text-anchor="middle" opacity="0">R 5k</text>
</g>
<g class="stroked-text"><desc>R 5k</desc>
<path d="M61023321 13898632
L60418559 14321966
" />
<path d="M61023321 14624347
L59753321 14624347
L59753321 14140537
L59813798 14019585
L59874274 13959109
L59995226 13898632
L60176655 13898632
L60297607 13959109
L60358083 14019585
L60418559 14140537
L60418559 14624347
" />
<path d="M59753321 11781966
L59753321 12386728
L60358083 12447204
L60297607 12386728
L60237131 12265775
L60237131 11963394
L60297607 11842442
L60358083 11781966
L60479036 11721489
L60781417 11721489
L60902369 11781966
L60962845 11842442
L61023321 11963394
L61023321 12265775
L60962845 12386728
L60902369 12447204
" />
<path d="M61023321 11177204
L59753321 11177204
" />
<path d="M60539512 11056251
L61023321 10693394
" />
<path d="M60176655 10693394
L60660464 11177204
" />
</g><text x="15240000.000000" y="31115000.000000"
textLength="4805438.000000" font-size="1693333.000000" lengthAdjust="spacingAndGlyphs"
text-anchor="middle" opacity="0">R 5k</text>
<g class="stroked-text"><desc>R 5k</desc>
<path d="M14030476 31054523
L13607142 30449761
" />
<path d="M13304761 31054523
L13304761 29784523
L13788571 29784523
L13909523 29845000
L13970000 29905476
L14030476 30026428
L14030476 30207857
L13970000 30328809
L13909523 30389285
L13788571 30449761
L13304761 30449761
" />
<path d="M16147142 29784523
L15542380 29784523
L15481904 30389285
L15542380 30328809
L15663333 30268333
L15965714 30268333
L16086666 30328809
L16147142 30389285
L16207619 30510238
L16207619 30812619
L16147142 30933571
L16086666 30994047
L15965714 31054523
L15663333 31054523
L15542380 30994047
L15481904 30933571
" />
<path d="M16751904 31054523
L16751904 29784523
" />
<path d="M16872857 30570714
L17235714 31054523
" />
<path d="M17235714 30207857
L16751904 30691666
" />
</g><text x="71120000.000000" y="31115000.000000"
textLength="4986867.000000" font-size="1693333.000000" lengthAdjust="spacingAndGlyphs"
text-anchor="middle" opacity="0">R 10</text>
<g class="stroked-text"><desc>R 10</desc>
<path d="M69819761 31054523
L69396428 30449761
" />
<path d="M69094047 31054523
L69094047 29784523
L69577857 29784523
L69698809 29845000
L69759285 29905476
L69819761 30026428
L69819761 30207857
L69759285 30328809
L69698809 30389285
L69577857 30449761
L69094047 30449761
" />
<path d="M71996904 31054523
L71271190 31054523
" />
<path d="M71634047 31054523
L71634047 29784523
L71513095 29965952
L71392142 30086904
L71271190 30147380
" />
<path d="M72783095 29784523
L72904047 29784523
L73025000 29845000
L73085476 29905476
L73145952 30026428
L73206428 30268333
L73206428 30570714
L73145952 30812619
L73085476 30933571
L73025000 30994047
L72904047 31054523
L72783095 31054523
L72662142 30994047
L72601666 30933571
L72541190 30812619
L72480714 30570714
L72480714 30268333
L72541190 30026428
L72601666 29905476
L72662142 29845000
L72783095 29784523
" />
</g><text x="50800000.000000" y="12334213.000000"
textLength="4805438.000000" font-size="1693333.000000" lengthAdjust="spacingAndGlyphs"
text-anchor="middle" opacity="0">R 5k</text>
<g class="stroked-text"><desc>R 5k</desc>
<path d="M49590476 12273736
L49167142 11668974
" />
<path d="M48864761 12273736
L48864761 11003736
L49348571 11003736
L49469523 11064213
L49530000 11124689
L49590476 11245641
L49590476 11427070
L49530000 11548022
L49469523 11608498
L49348571 11668974
L48864761 11668974
" />
<path d="M51707142 11003736
L51102380 11003736
L51041904 11608498
L51102380 11548022
L51223333 11487546
L51525714 11487546
L51646666 11548022
L51707142 11608498
L51767619 11729451
L51767619 12031832
L51707142 12152784
L51646666 12213260
L51525714 12273736
L51223333 12273736
L51102380 12213260
L51041904 12152784
" />
<path d="M52311904 12273736
L52311904 11003736
" />
<path d="M52432857 11789927
L52795714 12273736
" />
<path d="M52795714 11427070
L52311904 11910879
" />
</g><text x="15165000.000000" y="46355000.000000"
textLength="4805438.000000" font-size="1693333.000000" lengthAdjust="spacingAndGlyphs"
text-anchor="middle" opacity="0">R 5k</text>
<g class="stroked-text"><desc>R 5k</desc>
<path d="M13955476 46294523
L13532142 45689761
" />
<path d="M13229761 46294523
L13229761 45024523
L13713571 45024523
L13834523 45085000
L13895000 45145476
L13955476 45266428
L13955476 45447857
L13895000 45568809
L13834523 45629285
L13713571 45689761
L13229761 45689761
" />
<path d="M16072142 45024523
L15467380 45024523
L15406904 45629285
L15467380 45568809
L15588333 45508333
L15890714 45508333
L16011666 45568809
L16072142 45629285
L16132619 45750238
L16132619 46052619
L16072142 46173571
L16011666 46234047
L15890714 46294523
L15588333 46294523
L15467380 46234047
L15406904 46173571
" />
<path d="M16676904 46294523
L16676904 45024523
" />
<path d="M16797857 45810714
L17160714 46294523
" />
<path d="M17160714 45447857
L16676904 45931666
" />
</g><g transform="rotate(-90.000000 40640000.000000 15240000.000000)">
<text x="40640000.000000" y="15875000.000000"
textLength="7224486.000000" font-size="1693333.000000" lengthAdjust="spacingAndGlyphs"
text-anchor="middle" opacity="0">R 600k</text>
</g>
<g class="stroked-text"><desc>R 600k</desc>
<path d="M41214523 17659047
L40609761 18082380
" />
<path d="M41214523 18384761
L39944523 18384761
L39944523 17900952
L40005000 17780000
L40065476 17719523
L40186428 17659047
L40367857 17659047
L40488809 17719523
L40549285 17780000
L40609761 17900952
L40609761 18384761
" />
<path d="M39944523 15602857
L39944523 15844761
L40005000 15965714
L40065476 16026190
L40246904 16147142
L40488809 16207619
L40972619 16207619
L41093571 16147142
L41154047 16086666
L41214523 15965714
L41214523 15723809
L41154047 15602857
L41093571 15542380
L40972619 15481904
L40670238 15481904
L40549285 15542380
L40488809 15602857
L40428333 15723809
L40428333 15965714
L40488809 16086666
L40549285 16147142
L40670238 16207619
" />
<path d="M39944523 14695714
L39944523 14574761
L40005000 14453809
L40065476 14393333
L40186428 14332857
L40428333 14272380
L40730714 14272380
L40972619 14332857
L41093571 14393333
L41154047 14453809
L41214523 14574761
L41214523 14695714
L41154047 14816666
L41093571 14877142
L40972619 14937619
L40730714 14998095
L40428333 14998095
L40186428 14937619
L40065476 14877142
L40005000 14816666
L39944523 14695714
" />
<path d="M39944523 13486190
L39944523 13365238
L40005000 13244285
L40065476 13183809
L40186428 13123333
L40428333 13062857
L40730714 13062857
L40972619 13123333
L41093571 13183809
L41154047 13244285
L41214523 13365238
L41214523 13486190
L41154047 13607142
L41093571 13667619
L40972619 13728095
L40730714 13788571
L40428333 13788571
L40186428 13728095
L40065476 13667619
L40005000 13607142
L39944523 13486190
" />
<path d="M41214523 12518571
L39944523 12518571
" />
<path d="M40730714 12397619
L41214523 12034761
" />
<path d="M40367857 12034761
L40851666 12518571
" />
</g><text x="48260000.000000" y="28575000.000000"
textLength="7224486.000000" font-size="1693333.000000" lengthAdjust="spacingAndGlyphs"
text-anchor="middle" opacity="0">R 500k</text>
<g class="stroked-text"><desc>R 500k</desc>
<path d="M45840952 28514523
L45417619 27909761
" />
<path d="M45115238 28514523
L45115238 27244523
L45599047 27244523
L45720000 27305000
L45780476 27365476
L45840952 27486428
L45840952 27667857
L45780476 27788809
L45720000 27849285
L45599047 27909761
L45115238 27909761
" />
<path d="M47957619 27244523
L47352857 27244523
L47292380 27849285
L47352857 27788809
L47473809 27728333
L47776190 27728333
L47897142 27788809
L47957619 27849285
L48018095 27970238
L48018095 28272619
L47957619 28393571
L47897142 28454047
L47776190 28514523
L47473809 28514523
L47352857 28454047
L47292380 28393571
" />
<path d="M48804285 27244523
L48925238 27244523
L49046190 27305000
L49106666 27365476
L49167142 27486428
L49227619 27728333
L49227619 28030714
L49167142 28272619
L49106666 28393571
L49046190 28454047
L48925238 28514523
L48804285 28514523
L48683333 28454047
L48622857 28393571
L48562380 28272619
L48501904 28030714
L48501904 27728333
L48562380 27486428
L48622857 27365476
L48683333 27305000
L48804285 27244523
" />
<path d="M50013809 27244523
L50134761 27244523
L50255714 27305000
L50316190 27365476
L50376666 27486428
L50437142 27728333
L50437142 28030714
L50376666 28272619
L50316190 28393571
L50255714 28454047
L50134761 28514523
L50013809 28514523
L49892857 28454047
L49832380 28393571
L49771904 28272619
L49711428 28030714
L49711428 27728333
L49771904 27486428
L49832380 27365476
L49892857 27305000
L50013809 27244523
" />
<path d="M50981428 28514523
L50981428 27244523
" />
<path d="M51102380 28030714
L51465238 28514523
" />
<path d="M51465238 27667857
L50981428 28151666
" />
</g><text x="15240000.000000" y="38735000.000000"
textLength="4805438.000000" font-size="1693333.000000" lengthAdjust="spacingAndGlyphs"
text-anchor="middle" opacity="0">R 5k</text>
<g class="stroked-text"><desc>R 5k</desc>
<path d="M14030476 38674523
L13607142 38069761
" />
<path d="M13304761 38674523
L13304761 37404523
L13788571 37404523
L13909523 37465000
L13970000 37525476
L14030476 37646428
L14030476 37827857
L13970000 37948809
L13909523 38009285
L13788571 38069761
L13304761 38069761
" />
<path d="M16147142 37404523
L15542380 37404523
L15481904 38009285
L15542380 37948809
L15663333 37888333
L15965714 37888333
L16086666 37948809
L16147142 38009285
L16207619 38130238
L16207619 38432619
L16147142 38553571
L16086666 38614047
L15965714 38674523
L15663333 38674523
L15542380 38614047
L15481904 38553571
" />
<path d="M16751904 38674523
L16751904 37404523
" />
<path d="M16872857 38190714
L17235714 38674523
" />
<path d="M17235714 37827857
L16751904 38311666
" />
</g><text x="50800000.000000" y="5715000.000000"
textLength="6014962.000000" font-size="1693333.000000" lengthAdjust="spacingAndGlyphs"
text-anchor="middle" opacity="0">R 50k</text>
<g class="stroked-text"><desc>R 50k</desc>
<path d="M48985714 5654523
L48562380 5049761
" />
<path d="M48260000 5654523
L48260000 4384523
L48743809 4384523
L48864761 4445000
L48925238 4505476
L48985714 4626428
L48985714 4807857
L48925238 4928809
L48864761 4989285
L48743809 5049761
L48260000 5049761
" />
<path d="M51102380 4384523
L50497619 4384523
L50437142 4989285
L50497619 4928809
L50618571 4868333
L50920952 4868333
L51041904 4928809
L51102380 4989285
L51162857 5110238
L51162857 5412619
L51102380 5533571
L51041904 5594047
L50920952 5654523
L50618571 5654523
L50497619 5594047
L50437142 5533571
" />
<path d="M51949047 4384523
L52070000 4384523
L52190952 4445000
L52251428 4505476
L52311904 4626428
L52372380 4868333
L52372380 5170714
L52311904 5412619
L52251428 5533571
L52190952 5594047
L52070000 5654523
L51949047 5654523
L51828095 5594047
L51767619 5533571
L51707142 5412619
L51646666 5170714
L51646666 4868333
L51707142 4626428
L51767619 4505476
L51828095 4445000
L51949047 4384523
" />
<path d="M52916666 5654523
L52916666 4384523
" />
<path d="M53037619 5170714
L53400476 5654523
" />
<path d="M53400476 4807857
L52916666 5291666
" />
</g><g transform="rotate(-90.000000 43180000.000000 7620000.000000)">
<text x="43180000.000000" y="8255000.000000"
textLength="7224486.000000" font-size="1693333.000000" lengthAdjust="spacingAndGlyphs"
text-anchor="middle" opacity="0">R 100k</text>
</g>
<g class="stroked-text"><desc>R 100k</desc>
<path d="M43754523 10039047
L43149761 10462380
" />
<path d="M43754523 10764761
L42484523 10764761
L42484523 10280952
L42545000 10160000
L42605476 10099523
L42726428 10039047
L42907857 10039047
L43028809 10099523
L43089285 10160000
L43149761 10280952
L43149761 10764761
" />
<path d="M43754523 7861904
L43754523 8587619
" />
<path d="M43754523 8224761
L42484523 8224761
L42665952 8345714
L42786904 8466666
L42847380 8587619
" />
<path d="M42484523 7075714
L42484523 6954761
L42545000 6833809
L42605476 6773333
L42726428 6712857
L42968333 6652380
L43270714 6652380
L43512619 6712857
L43633571 6773333
L43694047 6833809
L43754523 6954761
L43754523 7075714
L43694047 7196666
L43633571 7257142
L43512619 7317619
L43270714 7378095
L42968333 7378095
L42726428 7317619
L42605476 7257142
L42545000 7196666
L42484523 7075714
" />
<path d="M42484523 5866190
L42484523 5745238
L42545000 5624285
L42605476 5563809
L42726428 5503333
L42968333 5442857
L43270714 5442857
L43512619 5503333
L43633571 5563809
L43694047 5624285
L43754523 5745238
L43754523 5866190
L43694047 5987142
L43633571 6047619
L43512619 6108095
L43270714 6168571
L42968333 6168571
L42726428 6108095
L42605476 6047619
L42545000 5987142
L42484523 5866190
" />
<path d="M43754523 4898571
L42484523 4898571
" />
<path d="M43270714 4777619
L43754523 4414761
" />
<path d="M42907857 4414761
L43391666 4898571
" />
</g><text x="76200000.000000" y="46355000.000000"
textLength="2870200.000000" font-size="1693333.000000" lengthAdjust="spacingAndGlyphs"
text-anchor="middle" opacity="0">Q4</text>
<g class="stroked-text"><desc>Q4</desc>
<path d="M76079047 46415476
L75958095 46355000
L75837142 46234047
L75655714 46052619
L75534761 45992142
L75413809 45992142
" />
<path d="M75474285 46294523
L75353333 46234047
L75232380 46113095
L75171904 45871190
L75171904 45447857
L75232380 45205952
L75353333 45085000
L75474285 45024523
L75716190 45024523
L75837142 45085000
L75958095 45205952
L76018571 45447857
L76018571 45871190
L75958095 46113095
L75837142 46234047
L75716190 46294523
L75474285 46294523
" />
<path d="M77107142 45447857
L77107142 46294523
" />
<path d="M76804761 44964047
L76502380 45871190
L77288571 45871190
" />
</g><text x="76200000.000000" y="38735000.000000"
textLength="2870200.000000" font-size="1693333.000000" lengthAdjust="spacingAndGlyphs"
text-anchor="middle" opacity="0">Q3</text>
<g class="stroked-text"><desc>Q3</desc>
<path d="M76079047 38795476
L75958095 38735000
L75837142 38614047
L75655714 38432619
L75534761 38372142
L75413809 38372142
" />
<path d="M75474285 38674523
L75353333 38614047
L75232380 38493095
L75171904 38251190
L75171904 37827857
L75232380 37585952
L75353333 37465000
L75474285 37404523
L75716190 37404523
L75837142 37465000
L75958095 37585952
L76018571 37827857
L76018571 38251190
L75958095 38493095
L75837142 38614047
L75716190 38674523
L75474285 38674523
" />
<path d="M76441904 37404523
L77228095 37404523
L76804761 37888333
L76986190 37888333
L77107142 37948809
L77167619 38009285
L77228095 38130238
L77228095 38432619
L77167619 38553571
L77107142 38614047
L76986190 38674523
L76623333 38674523
L76502380 38614047
L76441904 38553571
" />
</g><text x="76200000.000000" y="28575000.000000"
textLength="2870200.000000" font-size="1693333.000000" lengthAdjust="spacingAndGlyphs"
text-anchor="middle" opacity="0">Q2</text>
<g class="stroked-text"><desc>Q2</desc>
<path d="M76079047 28635476
L75958095 28575000
L75837142 28454047
L75655714 28272619
L75534761 28212142
L75413809 28212142
" />
<path d="M75474285 28514523
L75353333 28454047
L75232380 28333095
L75171904 28091190
L75171904 27667857
L75232380 27425952
L75353333 27305000
L75474285 27244523
L75716190 27244523
L75837142 27305000
L75958095 27425952
L76018571 27667857
L76018571 28091190
L75958095 28333095
L75837142 28454047
L75716190 28514523
L75474285 28514523
" />
<path d="M76502380 27365476
L76562857 27305000
L76683809 27244523
L76986190 27244523
L77107142 27305000
L77167619 27365476
L77228095 27486428
L77228095 27607380
L77167619 27788809
L76441904 28514523
L77228095 28514523
" />
</g><text x="76200000.000000" y="20955000.000000"
textLength="2870200.000000" font-size="1693333.000000" lengthAdjust="spacingAndGlyphs"
text-anchor="middle" opacity="0">Q1</text>
<g class="stroked-text"><desc>Q1</desc>
<path d="M76079047 21015476
L75958095 20955000
L75837142 20834047
L75655714 20652619
L75534761 20592142
L75413809 20592142
" />
<path d="M75474285 20894523
L75353333 20834047
L75232380 20713095
L75171904 20471190
L75171904 20047857
L75232380 19805952
L75353333 19685000
L75474285 19624523
L75716190 19624523
L75837142 19685000
L75958095 19805952
L76018571 20047857
L76018571 20471190
L75958095 20713095
L75837142 20834047
L75716190 20894523
L75474285 20894523
" />
<path d="M77228095 20894523
L76502380 20894523
" />
<path d="M76865238 20894523
L76865238 19624523
L76744285 19805952
L76623333 19926904
L76502380 19987380
" />
</g><text x="76200000.000000" y="10795000.000000"
textLength="4019248.000000" font-size="1693333.000000" lengthAdjust="spacingAndGlyphs"
text-anchor="middle" opacity="0">PS1</text>
<g class="stroked-text"><desc>PS1</desc>
<path d="M74657857 10734523
L74657857 9464523
L75141666 9464523
L75262619 9525000
L75323095 9585476
L75383571 9706428
L75383571 9887857
L75323095 10008809
L75262619 10069285
L75141666 10129761
L74657857 10129761
" />
<path d="M75867380 10674047
L76048809 10734523
L76351190 10734523
L76472142 10674047
L76532619 10613571
L76593095 10492619
L76593095 10371666
L76532619 10250714
L76472142 10190238
L76351190 10129761
L76109285 10069285
L75988333 10008809
L75927857 9948333
L75867380 9827380
L75867380 9706428
L75927857 9585476
L75988333 9525000
L76109285 9464523
L76411666 9464523
L76593095 9525000
" />
<path d="M77802619 10734523
L77076904 10734523
" />
<path d="M77439761 10734523
L77439761 9464523
L77318809 9645952
L77197857 9766904
L77076904 9827380
" />
</g></g>
<g style="fill:#AFAFAF; fill-opacity:0.0; 
stroke:#AFAFAF; stroke-width:150000.000000; stroke-opacity:1; 
stroke-linecap:round; stroke-linejoin:round;">
<text x="64770000.000000" y="13200000.000000"
textLength="6615914.000000" font-size="1333333.000000" lengthAdjust="spacingAndGlyphs"
text-anchor="middle" opacity="0">2P Droit</text>
<g class="stroked-text"><desc>2P Droit</desc>
<path d="M61817619 12247619
L61865238 12200000
L61960476 12152380
L62198571 12152380
L62293809 12200000
L62341428 12247619
L62389047 12342857
L62389047 12438095
L62341428 12580952
L61770000 13152380
L62389047 13152380
" />
<path d="M62817619 13152380
L62817619 12152380
L63198571 12152380
L63293809 12200000
L63341428 12247619
L63389047 12342857
L63389047 12485714
L63341428 12580952
L63293809 12628571
L63198571 12676190
L62817619 12676190
" />
<path d="M64579523 13152380
L64579523 12152380
L64817619 12152380
L64960476 12200000
L65055714 12295238
L65103333 12390476
L65150952 12580952
L65150952 12723809
L65103333 12914285
L65055714 13009523
L64960476 13104761
L64817619 13152380
L64579523 13152380
" />
<path d="M65579523 13152380
L65579523 12485714
" />
<path d="M65579523 12676190
L65627142 12580952
L65674761 12533333
L65770000 12485714
L65865238 12485714
" />
<path d="M66341428 13152380
L66246190 13104761
L66198571 13057142
L66150952 12961904
L66150952 12676190
L66198571 12580952
L66246190 12533333
L66341428 12485714
L66484285 12485714
L66579523 12533333
L66627142 12580952
L66674761 12676190
L66674761 12961904
L66627142 13057142
L66579523 13104761
L66484285 13152380
L66341428 13152380
" />
<path d="M67103333 13152380
L67103333 12485714
" />
<path d="M67103333 12152380
L67055714 12200000
L67103333 12247619
L67150952 12200000
L67103333 12152380
L67103333 12247619
" />
<path d="M67436666 12485714
L67817619 12485714
" />
<path d="M67579523 12152380
L67579523 13009523
L67627142 13104761
L67722380 13152380
L67817619 13152380
" />
</g><g transform="rotate(-90.000000 87070000.000000 39370000.000000)">
<text x="87070000.000000" y="39870000.000000"
textLength="6480714.000000" font-size="1333333.000000" lengthAdjust="spacingAndGlyphs"
text-anchor="middle" opacity="0">2P Droit</text>
</g>
<g class="stroked-text"><desc>2P Droit</desc>
<path d="M86617619 42322380
L86570000 42274761
L86522380 42179523
L86522380 41941428
L86570000 41846190
L86617619 41798571
L86712857 41750952
L86808095 41750952
L86950952 41798571
L87522380 42370000
L87522380 41750952
" />
<path d="M87522380 41322380
L86522380 41322380
L86522380 40941428
L86570000 40846190
L86617619 40798571
L86712857 40750952
L86855714 40750952
L86950952 40798571
L86998571 40846190
L87046190 40941428
L87046190 41322380
" />
<path d="M87522380 39560476
L86522380 39560476
L86522380 39322380
L86570000 39179523
L86665238 39084285
L86760476 39036666
L86950952 38989047
L87093809 38989047
L87284285 39036666
L87379523 39084285
L87474761 39179523
L87522380 39322380
L87522380 39560476
" />
<path d="M87522380 38560476
L86855714 38560476
" />
<path d="M87046190 38560476
L86950952 38512857
L86903333 38465238
L86855714 38370000
L86855714 38274761
" />
<path d="M87522380 37798571
L87474761 37893809
L87427142 37941428
L87331904 37989047
L87046190 37989047
L86950952 37941428
L86903333 37893809
L86855714 37798571
L86855714 37655714
L86903333 37560476
L86950952 37512857
L87046190 37465238
L87331904 37465238
L87427142 37512857
L87474761 37560476
L87522380 37655714
L87522380 37798571
" />
<path d="M87522380 37036666
L86855714 37036666
" />
<path d="M86522380 37036666
L86570000 37084285
L86617619 37036666
L86570000 36989047
L86522380 37036666
L86617619 37036666
" />
<path d="M86855714 36703333
L86855714 36322380
" />
<path d="M86522380 36560476
L87379523 36560476
L87474761 36512857
L87522380 36417619
L87522380 36322380
" />
</g><text x="57150000.000000" y="52010000.000000"
textLength="6480714.000000" font-size="1333333.000000" lengthAdjust="spacingAndGlyphs"
text-anchor="middle" opacity="0">2P Droit</text>
<g class="stroked-text"><desc>2P Droit</desc>
<path d="M54197619 51057619
L54245238 51010000
L54340476 50962380
L54578571 50962380
L54673809 51010000
L54721428 51057619
L54769047 51152857
L54769047 51248095
L54721428 51390952
L54150000 51962380
L54769047 51962380
" />
<path d="M55197619 51962380
L55197619 50962380
L55578571 50962380
L55673809 51010000
L55721428 51057619
L55769047 51152857
L55769047 51295714
L55721428 51390952
L55673809 51438571
L55578571 51486190
L55197619 51486190
" />
<path d="M56959523 51962380
L56959523 50962380
L57197619 50962380
L57340476 51010000
L57435714 51105238
L57483333 51200476
L57530952 51390952
L57530952 51533809
L57483333 51724285
L57435714 51819523
L57340476 51914761
L57197619 51962380
L56959523 51962380
" />
<path d="M57959523 51962380
L57959523 51295714
" />
<path d="M57959523 51486190
L58007142 51390952
L58054761 51343333
L58150000 51295714
L58245238 51295714
" />
<path d="M58721428 51962380
L58626190 51914761
L58578571 51867142
L58530952 51771904
L58530952 51486190
L58578571 51390952
L58626190 51343333
L58721428 51295714
L58864285 51295714
L58959523 51343333
L59007142 51390952
L59054761 51486190
L59054761 51771904
L59007142 51867142
L58959523 51914761
L58864285 51962380
L58721428 51962380
" />
<path d="M59483333 51962380
L59483333 51295714
" />
<path d="M59483333 50962380
L59435714 51010000
L59483333 51057619
L59530952 51010000
L59483333 50962380
L59483333 51057619
" />
<path d="M59816666 51295714
L60197619 51295714
" />
<path d="M59959523 50962380
L59959523 51819523
L60007142 51914761
L60102380 51962380
L60197619 51962380
" />
</g><text x="35560000.000000" y="10660000.000000"
textLength="6480714.000000" font-size="1333333.000000" lengthAdjust="spacingAndGlyphs"
text-anchor="middle" opacity="0">2P Droit</text>
<g class="stroked-text"><desc>2P Droit</desc>
<path d="M32607619 9707619
L32655238 9660000
L32750476 9612380
L32988571 9612380
L33083809 9660000
L33131428 9707619
L33179047 9802857
L33179047 9898095
L33131428 10040952
L32560000 10612380
L33179047 10612380
" />
<path d="M33607619 10612380
L33607619 9612380
L33988571 9612380
L34083809 9660000
L34131428 9707619
L34179047 9802857
L34179047 9945714
L34131428 10040952
L34083809 10088571
L33988571 10136190
L33607619 10136190
" />
<path d="M35369523 10612380
L35369523 9612380
L35607619 9612380
L35750476 9660000
L35845714 9755238
L35893333 9850476
L35940952 10040952
L35940952 10183809
L35893333 10374285
L35845714 10469523
L35750476 10564761
L35607619 10612380
L35369523 10612380
" />
<path d="M36369523 10612380
L36369523 9945714
" />
<path d="M36369523 10136190
L36417142 10040952
L36464761 9993333
L36560000 9945714
L36655238 9945714
" />
<path d="M37131428 10612380
L37036190 10564761
L36988571 10517142
L36940952 10421904
L36940952 10136190
L36988571 10040952
L37036190 9993333
L37131428 9945714
L37274285 9945714
L37369523 9993333
L37417142 10040952
L37464761 10136190
L37464761 10421904
L37417142 10517142
L37369523 10564761
L37274285 10612380
L37131428 10612380
" />
<path d="M37893333 10612380
L37893333 9945714
" />
<path d="M37893333 9612380
L37845714 9660000
L37893333 9707619
L37940952 9660000
L37893333 9612380
L37893333 9707619
" />
<path d="M38226666 9945714
L38607619 9945714
" />
<path d="M38369523 9612380
L38369523 10469523
L38417142 10564761
L38512380 10612380
L38607619 10612380
" />
</g><text x="25400000.000000" y="8120000.000000"
textLength="6480714.000000" font-size="1333333.000000" lengthAdjust="spacingAndGlyphs"
text-anchor="middle" opacity="0">2P Droit</text>
<g class="stroked-text"><desc>2P Droit</desc>
<path d="M22447619 7167619
L22495238 7120000
L22590476 7072380
L22828571 7072380
L22923809 7120000
L22971428 7167619
L23019047 7262857
L23019047 7358095
L22971428 7500952
L22400000 8072380
L23019047 8072380
" />
<path d="M23447619 8072380
L23447619 7072380
L23828571 7072380
L23923809 7120000
L23971428 7167619
L24019047 7262857
L24019047 7405714
L23971428 7500952
L23923809 7548571
L23828571 7596190
L23447619 7596190
" />
<path d="M25209523 8072380
L25209523 7072380
L25447619 7072380
L25590476 7120000
L25685714 7215238
L25733333 7310476
L25780952 7500952
L25780952 7643809
L25733333 7834285
L25685714 7929523
L25590476 8024761
L25447619 8072380
L25209523 8072380
" />
<path d="M26209523 8072380
L26209523 7405714
" />
<path d="M26209523 7596190
L26257142 7500952
L26304761 7453333
L26400000 7405714
L26495238 7405714
" />
<path d="M26971428 8072380
L26876190 8024761
L26828571 7977142
L26780952 7881904
L26780952 7596190
L26828571 7500952
L26876190 7453333
L26971428 7405714
L27114285 7405714
L27209523 7453333
L27257142 7500952
L27304761 7596190
L27304761 7881904
L27257142 7977142
L27209523 8024761
L27114285 8072380
L26971428 8072380
" />
<path d="M27733333 8072380
L27733333 7405714
" />
<path d="M27733333 7072380
L27685714 7120000
L27733333 7167619
L27780952 7120000
L27733333 7072380
L27733333 7167619
" />
<path d="M28066666 7405714
L28447619 7405714
" />
<path d="M28209523 7072380
L28209523 7929523
L28257142 8024761
L28352380 8072380
L28447619 8072380
" />
</g><g transform="rotate(-90.000000 87070000.000000 21590000.000000)">
<text x="87070000.000000" y="22090000.000000"
textLength="6480714.000000" font-size="1333333.000000" lengthAdjust="spacingAndGlyphs"
text-anchor="middle" opacity="0">2P Droit</text>
</g>
<g class="stroked-text"><desc>2P Droit</desc>
<path d="M86617619 24542380
L86570000 24494761
L86522380 24399523
L86522380 24161428
L86570000 24066190
L86617619 24018571
L86712857 23970952
L86808095 23970952
L86950952 24018571
L87522380 24590000
L87522380 23970952
" />
<path d="M87522380 23542380
L86522380 23542380
L86522380 23161428
L86570000 23066190
L86617619 23018571
L86712857 22970952
L86855714 22970952
L86950952 23018571
L86998571 23066190
L87046190 23161428
L87046190 23542380
" />
<path d="M87522380 21780476
L86522380 21780476
L86522380 21542380
L86570000 21399523
L86665238 21304285
L86760476 21256666
L86950952 21209047
L87093809 21209047
L87284285 21256666
L87379523 21304285
L87474761 21399523
L87522380 21542380
L87522380 21780476
" />
<path d="M87522380 20780476
L86855714 20780476
" />
<path d="M87046190 20780476
L86950952 20732857
L86903333 20685238
L86855714 20590000
L86855714 20494761
" />
<path d="M87522380 20018571
L87474761 20113809
L87427142 20161428
L87331904 20209047
L87046190 20209047
L86950952 20161428
L86903333 20113809
L86855714 20018571
L86855714 19875714
L86903333 19780476
L86950952 19732857
L87046190 19685238
L87331904 19685238
L87427142 19732857
L87474761 19780476
L87522380 19875714
L87522380 20018571
" />
<path d="M87522380 19256666
L86855714 19256666
" />
<path d="M86522380 19256666
L86570000 19304285
L86617619 19256666
L86570000 19209047
L86522380 19256666
L86617619 19256666
" />
<path d="M86855714 18923333
L86855714 18542380
" />
<path d="M86522380 18780476
L87379523 18780476
L87474761 18732857
L87522380 18637619
L87522380 18542380
" />
</g><text x="19050000.000000" y="8120000.000000"
textLength="7242619.000000" font-size="1333333.000000" lengthAdjust="spacingAndGlyphs"
text-anchor="middle" opacity="0">2P Droit </text>
<g class="stroked-text"><desc>2P Droit </desc>
<path d="M15716666 7167619
L15764285 7120000
L15859523 7072380
L16097619 7072380
L16192857 7120000
L16240476 7167619
L16288095 7262857
L16288095 7358095
L16240476 7500952
L15669047 8072380
L16288095 8072380
" />
<path d="M16716666 8072380
L16716666 7072380
L17097619 7072380
L17192857 7120000
L17240476 7167619
L17288095 7262857
L17288095 7405714
L17240476 7500952
L17192857 7548571
L17097619 7596190
L16716666 7596190
" />
<path d="M18478571 8072380
L18478571 7072380
L18716666 7072380
L18859523 7120000
L18954761 7215238
L19002380 7310476
L19050000 7500952
L19050000 7643809
L19002380 7834285
L18954761 7929523
L18859523 8024761
L18716666 8072380
L18478571 8072380
" />
<path d="M19478571 8072380
L19478571 7405714
" />
<path d="M19478571 7596190
L19526190 7500952
L19573809 7453333
L19669047 7405714
L19764285 7405714
" />
<path d="M20240476 8072380
L20145238 8024761
L20097619 7977142
L20050000 7881904
L20050000 7596190
L20097619 7500952
L20145238 7453333
L20240476 7405714
L20383333 7405714
L20478571 7453333
L20526190 7500952
L20573809 7596190
L20573809 7881904
L20526190 7977142
L20478571 8024761
L20383333 8072380
L20240476 8072380
" />
<path d="M21002380 8072380
L21002380 7405714
" />
<path d="M21002380 7072380
L20954761 7120000
L21002380 7167619
L21050000 7120000
L21002380 7072380
L21002380 7167619
" />
<path d="M21335714 7405714
L21716666 7405714
" />
<path d="M21478571 7072380
L21478571 7929523
L21526190 8024761
L21621428 8072380
L21716666 8072380
" />
</g><g transform="rotate(-90.000000 10945000.000000 29210000.000000)">
<text x="10945000.000000" y="29710000.000000"
textLength="6480714.000000" font-size="1333333.000000" lengthAdjust="spacingAndGlyphs"
text-anchor="middle" opacity="0">2P Droit</text>
</g>
<g class="stroked-text"><desc>2P Droit</desc>
<path d="M10492619 32162380
L10445000 32114761
L10397380 32019523
L10397380 31781428
L10445000 31686190
L10492619 31638571
L10587857 31590952
L10683095 31590952
L10825952 31638571
L11397380 32210000
L11397380 31590952
" />
<path d="M11397380 31162380
L10397380 31162380
L10397380 30781428
L10445000 30686190
L10492619 30638571
L10587857 30590952
L10730714 30590952
L10825952 30638571
L10873571 30686190
L10921190 30781428
L10921190 31162380
" />
<path d="M11397380 29400476
L10397380 29400476
L10397380 29162380
L10445000 29019523
L10540238 28924285
L10635476 28876666
L10825952 28829047
L10968809 28829047
L11159285 28876666
L11254523 28924285
L11349761 29019523
L11397380 29162380
L11397380 29400476
" />
<path d="M11397380 28400476
L10730714 28400476
" />
<path d="M10921190 28400476
L10825952 28352857
L10778333 28305238
L10730714 28210000
L10730714 28114761
" />
<path d="M11397380 27638571
L11349761 27733809
L11302142 27781428
L11206904 27829047
L10921190 27829047
L10825952 27781428
L10778333 27733809
L10730714 27638571
L10730714 27495714
L10778333 27400476
L10825952 27352857
L10921190 27305238
L11206904 27305238
L11302142 27352857
L11349761 27400476
L11397380 27495714
L11397380 27638571
" />
<path d="M11397380 26876666
L10730714 26876666
" />
<path d="M10397380 26876666
L10445000 26924285
L10492619 26876666
L10445000 26829047
L10397380 26876666
L10492619 26876666
" />
<path d="M10730714 26543333
L10730714 26162380
" />
<path d="M10397380 26400476
L11254523 26400476
L11349761 26352857
L11397380 26257619
L11397380 26162380
" />
</g><g transform="rotate(-90.000000 10870000.000000 44450000.000000)">
<text x="10870000.000000" y="44950000.000000"
textLength="6480714.000000" font-size="1333333.000000" lengthAdjust="spacingAndGlyphs"
text-anchor="middle" opacity="0">2P Droit</text>
</g>
<g class="stroked-text"><desc>2P Droit</desc>
<path d="M10417619 47402380
L10370000 47354761
L10322380 47259523
L10322380 47021428
L10370000 46926190
L10417619 46878571
L10512857 46830952
L10608095 46830952
L10750952 46878571
L11322380 47450000
L11322380 46830952
" />
<path d="M11322380 46402380
L10322380 46402380
L10322380 46021428
L10370000 45926190
L10417619 45878571
L10512857 45830952
L10655714 45830952
L10750952 45878571
L10798571 45926190
L10846190 46021428
L10846190 46402380
" />
<path d="M11322380 44640476
L10322380 44640476
L10322380 44402380
L10370000 44259523
L10465238 44164285
L10560476 44116666
L10750952 44069047
L10893809 44069047
L11084285 44116666
L11179523 44164285
L11274761 44259523
L11322380 44402380
L11322380 44640476
" />
<path d="M11322380 43640476
L10655714 43640476
" />
<path d="M10846190 43640476
L10750952 43592857
L10703333 43545238
L10655714 43450000
L10655714 43354761
" />
<path d="M11322380 42878571
L11274761 42973809
L11227142 43021428
L11131904 43069047
L10846190 43069047
L10750952 43021428
L10703333 42973809
L10655714 42878571
L10655714 42735714
L10703333 42640476
L10750952 42592857
L10846190 42545238
L11131904 42545238
L11227142 42592857
L11274761 42640476
L11322380 42735714
L11322380 42878571
" />
<path d="M11322380 42116666
L10655714 42116666
" />
<path d="M10322380 42116666
L10370000 42164285
L10417619 42116666
L10370000 42069047
L10322380 42116666
L10417619 42116666
" />
<path d="M10655714 41783333
L10655714 41402380
" />
<path d="M10322380 41640476
L11179523 41640476
L11274761 41592857
L11322380 41497619
L11322380 41402380
" />
</g><g transform="rotate(-90.000000 10870000.000000 36830000.000000)">
<text x="10870000.000000" y="37330000.000000"
textLength="6480714.000000" font-size="1333333.000000" lengthAdjust="spacingAndGlyphs"
text-anchor="middle" opacity="0">2P Droit</text>
</g>
<g class="stroked-text"><desc>2P Droit</desc>
<path d="M10417619 39782380
L10370000 39734761
L10322380 39639523
L10322380 39401428
L10370000 39306190
L10417619 39258571
L10512857 39210952
L10608095 39210952
L10750952 39258571
L11322380 39830000
L11322380 39210952
" />
<path d="M11322380 38782380
L10322380 38782380
L10322380 38401428
L10370000 38306190
L10417619 38258571
L10512857 38210952
L10655714 38210952
L10750952 38258571
L10798571 38306190
L10846190 38401428
L10846190 38782380
" />
<path d="M11322380 37020476
L10322380 37020476
L10322380 36782380
L10370000 36639523
L10465238 36544285
L10560476 36496666
L10750952 36449047
L10893809 36449047
L11084285 36496666
L11179523 36544285
L11274761 36639523
L11322380 36782380
L11322380 37020476
" />
<path d="M11322380 36020476
L10655714 36020476
" />
<path d="M10846190 36020476
L10750952 35972857
L10703333 35925238
L10655714 35830000
L10655714 35734761
" />
<path d="M11322380 35258571
L11274761 35353809
L11227142 35401428
L11131904 35449047
L10846190 35449047
L10750952 35401428
L10703333 35353809
L10655714 35258571
L10655714 35115714
L10703333 35020476
L10750952 34972857
L10846190 34925238
L11131904 34925238
L11227142 34972857
L11274761 35020476
L11322380 35115714
L11322380 35258571
" />
<path d="M11322380 34496666
L10655714 34496666
" />
<path d="M10322380 34496666
L10370000 34544285
L10417619 34496666
L10370000 34449047
L10322380 34496666
L10417619 34496666
" />
<path d="M10655714 34163333
L10655714 33782380
" />
<path d="M10322380 34020476
L11179523 34020476
L11274761 33972857
L11322380 33877619
L11322380 33782380
" />
</g></g>
<g style="fill:#AFAFAF; fill-opacity:0.0; 
stroke:#AFAFAF; stroke-width:254000.000000; stroke-opacity:1; 
stroke-linecap:round; stroke-linejoin:round;">
<text x="70308000.000000" y="39988900.000000"
textLength="3884048.000000" font-size="1693333.000000" lengthAdjust="spacingAndGlyphs"
text-anchor="middle" opacity="0">G10</text>
<g class="stroked-text"><desc>G10</desc>
<path d="M69431095 38718900
L69310142 38658423
L69128714 38658423
L68947285 38718900
L68826333 38839852
L68765857 38960804
L68705380 39202709
L68705380 39384138
L68765857 39626042
L68826333 39746995
L68947285 39867947
L69128714 39928423
L69249666 39928423
L69431095 39867947
L69491571 39807471
L69491571 39384138
L69249666 39384138
" />
<path d="M70701095 39928423
L69975380 39928423
" />
<path d="M70338238 39928423
L70338238 38658423
L70217285 38839852
L70096333 38960804
L69975380 39021280
" />
<path d="M71487285 38658423
L71608238 38658423
L71729190 38718900
L71789666 38779376
L71850142 38900328
L71910619 39142233
L71910619 39444614
L71850142 39686519
L71789666 39807471
L71729190 39867947
L71608238 39928423
L71487285 39928423
L71366333 39867947
L71305857 39807471
L71245380 39686519
L71184904 39444614
L71184904 39142233
L71245380 38900328
L71305857 38779376
L71366333 38718900
L71487285 38658423
" />
</g><text x="33020000.000000" y="31115000.000000"
textLength="2809724.000000" font-size="1693333.000000" lengthAdjust="spacingAndGlyphs"
text-anchor="middle" opacity="0">G9</text>
<g class="stroked-text"><desc>G9</desc>
<path d="M32747857 29845000
L32626904 29784523
L32445476 29784523
L32264047 29845000
L32143095 29965952
L32082619 30086904
L32022142 30328809
L32022142 30510238
L32082619 30752142
L32143095 30873095
L32264047 30994047
L32445476 31054523
L32566428 31054523
L32747857 30994047
L32808333 30933571
L32808333 30510238
L32566428 30510238
" />
<path d="M33413095 31054523
L33655000 31054523
L33775952 30994047
L33836428 30933571
L33957380 30752142
L34017857 30510238
L34017857 30026428
L33957380 29905476
L33896904 29845000
L33775952 29784523
L33534047 29784523
L33413095 29845000
L33352619 29905476
L33292142 30026428
L33292142 30328809
L33352619 30449761
L33413095 30510238
L33534047 30570714
L33775952 30570714
L33896904 30510238
L33957380 30449761
L34017857 30328809
" />
</g><text x="33020000.000000" y="23495000.000000"
textLength="2809724.000000" font-size="1693333.000000" lengthAdjust="spacingAndGlyphs"
text-anchor="middle" opacity="0">G8</text>
<g class="stroked-text"><desc>G8</desc>
<path d="M32747857 22225000
L32626904 22164523
L32445476 22164523
L32264047 22225000
L32143095 22345952
L32082619 22466904
L32022142 22708809
L32022142 22890238
L32082619 23132142
L32143095 23253095
L32264047 23374047
L32445476 23434523
L32566428 23434523
L32747857 23374047
L32808333 23313571
L32808333 22890238
L32566428 22890238
" />
<path d="M33534047 22708809
L33413095 22648333
L33352619 22587857
L33292142 22466904
L33292142 22406428
L33352619 22285476
L33413095 22225000
L33534047 22164523
L33775952 22164523
L33896904 22225000
L33957380 22285476
L34017857 22406428
L34017857 22466904
L33957380 22587857
L33896904 22648333
L33775952 22708809
L33534047 22708809
L33413095 22769285
L33352619 22829761
L33292142 22950714
L33292142 23192619
L33352619 23313571
L33413095 23374047
L33534047 23434523
L33775952 23434523
L33896904 23374047
L33957380 23313571
L34017857 23192619
L34017857 22950714
L33957380 22829761
L33896904 22769285
L33775952 22708809
" />
</g><text x="25400000.000000" y="43815000.000000"
textLength="2809724.000000" font-size="1693333.000000" lengthAdjust="spacingAndGlyphs"
text-anchor="middle" opacity="0">G7</text>
<g class="stroked-text"><desc>G7</desc>
<path d="M25127857 42545000
L25006904 42484523
L24825476 42484523
L24644047 42545000
L24523095 42665952
L24462619 42786904
L24402142 43028809
L24402142 43210238
L24462619 43452142
L24523095 43573095
L24644047 43694047
L24825476 43754523
L24946428 43754523
L25127857 43694047
L25188333 43633571
L25188333 43210238
L24946428 43210238
" />
<path d="M25611666 42484523
L26458333 42484523
L25914047 43754523
" />
</g><text x="71353922.000000" y="24627203.000000"
textLength="2809724.000000" font-size="1693333.000000" lengthAdjust="spacingAndGlyphs"
text-anchor="middle" opacity="0">G6</text>
<g class="stroked-text"><desc>G6</desc>
<path d="M71081779 23357203
L70960826 23296726
L70779398 23296726
L70597969 23357203
L70477017 23478155
L70416541 23599107
L70356064 23841012
L70356064 24022441
L70416541 24264345
L70477017 24385298
L70597969 24506250
L70779398 24566726
L70900350 24566726
L71081779 24506250
L71142255 24445774
L71142255 24022441
L70900350 24022441
" />
<path d="M72230826 23296726
L71988922 23296726
L71867969 23357203
L71807493 23417679
L71686541 23599107
L71626064 23841012
L71626064 24324822
L71686541 24445774
L71747017 24506250
L71867969 24566726
L72109874 24566726
L72230826 24506250
L72291302 24445774
L72351779 24324822
L72351779 24022441
L72291302 23901488
L72230826 23841012
L72109874 23780536
L71867969 23780536
L71747017 23841012
L71686541 23901488
L71626064 24022441
" />
</g><text x="20320000.000000" y="31115000.000000"
textLength="2809724.000000" font-size="1693333.000000" lengthAdjust="spacingAndGlyphs"
text-anchor="middle" opacity="0">G5</text>
<g class="stroked-text"><desc>G5</desc>
<path d="M20047857 29845000
L19926904 29784523
L19745476 29784523
L19564047 29845000
L19443095 29965952
L19382619 30086904
L19322142 30328809
L19322142 30510238
L19382619 30752142
L19443095 30873095
L19564047 30994047
L19745476 31054523
L19866428 31054523
L20047857 30994047
L20108333 30933571
L20108333 30510238
L19866428 30510238
" />
<path d="M21257380 29784523
L20652619 29784523
L20592142 30389285
L20652619 30328809
L20773571 30268333
L21075952 30268333
L21196904 30328809
L21257380 30389285
L21317857 30510238
L21317857 30812619
L21257380 30933571
L21196904 30994047
L21075952 31054523
L20773571 31054523
L20652619 30994047
L20592142 30933571
" />
</g><text x="25400000.000000" y="28575000.000000"
textLength="2809724.000000" font-size="1693333.000000" lengthAdjust="spacingAndGlyphs"
text-anchor="middle" opacity="0">G4</text>
<g class="stroked-text"><desc>G4</desc>
<path d="M25127857 27305000
L25006904 27244523
L24825476 27244523
L24644047 27305000
L24523095 27425952
L24462619 27546904
L24402142 27788809
L24402142 27970238
L24462619 28212142
L24523095 28333095
L24644047 28454047
L24825476 28514523
L24946428 28514523
L25127857 28454047
L25188333 28393571
L25188333 27970238
L24946428 27970238
" />
<path d="M26276904 27667857
L26276904 28514523
" />
<path d="M25974523 27184047
L25672142 28091190
L26458333 28091190
" />
</g><text x="25400000.000000" y="23495000.000000"
textLength="2809724.000000" font-size="1693333.000000" lengthAdjust="spacingAndGlyphs"
text-anchor="middle" opacity="0">G3</text>
<g class="stroked-text"><desc>G3</desc>
<path d="M25127857 22225000
L25006904 22164523
L24825476 22164523
L24644047 22225000
L24523095 22345952
L24462619 22466904
L24402142 22708809
L24402142 22890238
L24462619 23132142
L24523095 23253095
L24644047 23374047
L24825476 23434523
L24946428 23434523
L25127857 23374047
L25188333 23313571
L25188333 22890238
L24946428 22890238
" />
<path d="M25611666 22164523
L26397857 22164523
L25974523 22648333
L26155952 22648333
L26276904 22708809
L26337380 22769285
L26397857 22890238
L26397857 23192619
L26337380 23313571
L26276904 23374047
L26155952 23434523
L25793095 23434523
L25672142 23374047
L25611666 23313571
" />
</g><text x="20320000.000000" y="40757567.000000"
textLength="2809724.000000" font-size="1693333.000000" lengthAdjust="spacingAndGlyphs"
text-anchor="middle" opacity="0">G2</text>
<g class="stroked-text"><desc>G2</desc>
<path d="M20047857 39487567
L19926904 39427090
L19745476 39427090
L19564047 39487567
L19443095 39608519
L19382619 39729471
L19322142 39971376
L19322142 40152805
L19382619 40394709
L19443095 40515662
L19564047 40636614
L19745476 40697090
L19866428 40697090
L20047857 40636614
L20108333 40576138
L20108333 40152805
L19866428 40152805
" />
<path d="M20592142 39548043
L20652619 39487567
L20773571 39427090
L21075952 39427090
L21196904 39487567
L21257380 39548043
L21317857 39668995
L21317857 39789947
L21257380 39971376
L20531666 40697090
L21317857 40697090
" />
</g><text x="20320000.000000" y="46355000.000000"
textLength="2809724.000000" font-size="1693333.000000" lengthAdjust="spacingAndGlyphs"
text-anchor="middle" opacity="0">G1</text>
<g class="stroked-text"><desc>G1</desc>
<path d="M20047857 45085000
L19926904 45024523
L19745476 45024523
L19564047 45085000
L19443095 45205952
L19382619 45326904
L19322142 45568809
L19322142 45750238
L19382619 45992142
L19443095 46113095
L19564047 46234047
L19745476 46294523
L19866428 46294523
L20047857 46234047
L20108333 46173571
L20108333 45750238
L19866428 45750238
" />
<path d="M21317857 46294523
L20592142 46294523
" />
<path d="M20955000 46294523
L20955000 45024523
L20834047 45205952
L20713095 45326904
L20592142 45387380
" />
</g><text x="63500000.000000" y="23495000.000000"
textLength="3837819.000000" font-size="1693333.000000" lengthAdjust="spacingAndGlyphs"
text-anchor="middle" opacity="0">DL1</text>
<g class="stroked-text"><desc>DL1</desc>
<path d="M62048571 23434523
L62048571 22164523
L62350952 22164523
L62532380 22225000
L62653333 22345952
L62713809 22466904
L62774285 22708809
L62774285 22890238
L62713809 23132142
L62653333 23253095
L62532380 23374047
L62350952 23434523
L62048571 23434523
" />
<path d="M63923333 23434523
L63318571 23434523
L63318571 22164523
" />
<path d="M65011904 23434523
L64286190 23434523
" />
<path d="M64649047 23434523
L64649047 22164523
L64528095 22345952
L64407142 22466904
L64286190 22527380
" />
</g><text x="37288000.000000" y="36195000.000000"
textLength="4079724.000000" font-size="1693333.000000" lengthAdjust="spacingAndGlyphs"
text-anchor="middle" opacity="0">CP2</text>
<g class="stroked-text"><desc>CP2</desc>
<path d="M36441333 36013571
L36380857 36074047
L36199428 36134523
L36078476 36134523
L35897047 36074047
L35776095 35953095
L35715619 35832142
L35655142 35590238
L35655142 35408809
L35715619 35166904
L35776095 35045952
L35897047 34925000
L36078476 34864523
L36199428 34864523
L36380857 34925000
L36441333 34985476
" />
<path d="M36985619 36134523
L36985619 34864523
L37469428 34864523
L37590380 34925000
L37650857 34985476
L37711333 35106428
L37711333 35287857
L37650857 35408809
L37590380 35469285
L37469428 35529761
L36985619 35529761
" />
<path d="M38195142 34985476
L38255619 34925000
L38376571 34864523
L38678952 34864523
L38799904 34925000
L38860380 34985476
L38920857 35106428
L38920857 35227380
L38860380 35408809
L38134666 36134523
L38920857 36134523
" />
</g><text x="50800000.000000" y="15875000.000000"
textLength="4079724.000000" font-size="1693333.000000" lengthAdjust="spacingAndGlyphs"
text-anchor="middle" opacity="0">CP1</text>
<g class="stroked-text"><desc>CP1</desc>
<path d="M49953333 15693571
L49892857 15754047
L49711428 15814523
L49590476 15814523
L49409047 15754047
L49288095 15633095
L49227619 15512142
L49167142 15270238
L49167142 15088809
L49227619 14846904
L49288095 14725952
L49409047 14605000
L49590476 14544523
L49711428 14544523
L49892857 14605000
L49953333 14665476
" />
<path d="M50497619 15814523
L50497619 14544523
L50981428 14544523
L51102380 14605000
L51162857 14665476
L51223333 14786428
L51223333 14967857
L51162857 15088809
L51102380 15149285
L50981428 15209761
L50497619 15209761
" />
<path d="M52432857 15814523
L51707142 15814523
" />
<path d="M52070000 15814523
L52070000 14544523
L51949047 14725952
L51828095 14846904
L51707142 14907380
" />
</g><text x="60960000.000000" y="34280000.000000"
textLength="6982581.000000" font-size="1693333.000000" lengthAdjust="spacingAndGlyphs"
text-anchor="middle" opacity="0">C0.01u</text>
<g class="stroked-text"><desc>C0.01u</desc>
<path d="M58661904 34098571
L58601428 34159047
L58420000 34219523
L58299047 34219523
L58117619 34159047
L57996666 34038095
L57936190 33917142
L57875714 33675238
L57875714 33493809
L57936190 33251904
L57996666 33130952
L58117619 33010000
L58299047 32949523
L58420000 32949523
L58601428 33010000
L58661904 33070476
" />
<path d="M59448095 32949523
L59569047 32949523
L59690000 33010000
L59750476 33070476
L59810952 33191428
L59871428 33433333
L59871428 33735714
L59810952 33977619
L59750476 34098571
L59690000 34159047
L59569047 34219523
L59448095 34219523
L59327142 34159047
L59266666 34098571
L59206190 33977619
L59145714 33735714
L59145714 33433333
L59206190 33191428
L59266666 33070476
L59327142 33010000
L59448095 32949523
" />
<path d="M60415714 34098571
L60476190 34159047
L60415714 34219523
L60355238 34159047
L60415714 34098571
L60415714 34219523
" />
<path d="M61262380 32949523
L61383333 32949523
L61504285 33010000
L61564761 33070476
L61625238 33191428
L61685714 33433333
L61685714 33735714
L61625238 33977619
L61564761 34098571
L61504285 34159047
L61383333 34219523
L61262380 34219523
L61141428 34159047
L61080952 34098571
L61020476 33977619
L60960000 33735714
L60960000 33433333
L61020476 33191428
L61080952 33070476
L61141428 33010000
L61262380 32949523
" />
<path d="M62895238 34219523
L62169523 34219523
" />
<path d="M62532380 34219523
L62532380 32949523
L62411428 33130952
L62290476 33251904
L62169523 33312380
" />
<path d="M63983809 33372857
L63983809 34219523
" />
<path d="M63439523 33372857
L63439523 34038095
L63500000 34159047
L63620952 34219523
L63802380 34219523
L63923333 34159047
L63983809 34098571
" />
</g><text x="60140000.000000" y="46355000.000000"
textLength="3958771.000000" font-size="1693333.000000" lengthAdjust="spacingAndGlyphs"
text-anchor="middle" opacity="0">C1u</text>
<g class="stroked-text"><desc>C1u</desc>
<path d="M59353809 46173571
L59293333 46234047
L59111904 46294523
L58990952 46294523
L58809523 46234047
L58688571 46113095
L58628095 45992142
L58567619 45750238
L58567619 45568809
L58628095 45326904
L58688571 45205952
L58809523 45085000
L58990952 45024523
L59111904 45024523
L59293333 45085000
L59353809 45145476
" />
<path d="M60563333 46294523
L59837619 46294523
" />
<path d="M60200476 46294523
L60200476 45024523
L60079523 45205952
L59958571 45326904
L59837619 45387380
" />
<path d="M61651904 45447857
L61651904 46294523
" />
<path d="M61107619 45447857
L61107619 46113095
L61168095 46234047
L61289047 46294523
L61470476 46294523
L61591428 46234047
L61651904 46173571
" />
</g><g transform="rotate(-90.000000 42555000.000000 35560000.000000)">
<text x="42555000.000000" y="36195000.000000"
textLength="5773057.000000" font-size="1693333.000000" lengthAdjust="spacingAndGlyphs"
text-anchor="middle" opacity="0">C2.2u</text>
</g>
<g class="stroked-text"><desc>C2.2u</desc>
<path d="M43008571 37253333
L43069047 37313809
L43129523 37495238
L43129523 37616190
L43069047 37797619
L42948095 37918571
L42827142 37979047
L42585238 38039523
L42403809 38039523
L42161904 37979047
L42040952 37918571
L41920000 37797619
L41859523 37616190
L41859523 37495238
L41920000 37313809
L41980476 37253333
" />
<path d="M41980476 36769523
L41920000 36709047
L41859523 36588095
L41859523 36285714
L41920000 36164761
L41980476 36104285
L42101428 36043809
L42222380 36043809
L42403809 36104285
L43129523 36830000
L43129523 36043809
" />
<path d="M43008571 35499523
L43069047 35439047
L43129523 35499523
L43069047 35560000
L43008571 35499523
L43129523 35499523
" />
<path d="M41980476 34955238
L41920000 34894761
L41859523 34773809
L41859523 34471428
L41920000 34350476
L41980476 34290000
L42101428 34229523
L42222380 34229523
L42403809 34290000
L43129523 35015714
L43129523 34229523
" />
<path d="M42282857 33140952
L43129523 33140952
" />
<path d="M42282857 33685238
L42948095 33685238
L43069047 33624761
L43129523 33503809
L43129523 33322380
L43069047 33201428
L43008571 33140952
" />
</g><text x="49980000.000000" y="22904882.000000"
textLength="5773057.000000" font-size="1693333.000000" lengthAdjust="spacingAndGlyphs"
text-anchor="middle" opacity="0">C2.2u</text>
<g class="stroked-text"><desc>C2.2u</desc>
<path d="M48286666 22723453
L48226190 22783929
L48044761 22844405
L47923809 22844405
L47742380 22783929
L47621428 22662977
L47560952 22542024
L47500476 22300120
L47500476 22118691
L47560952 21876786
L47621428 21755834
L47742380 21634882
L47923809 21574405
L48044761 21574405
L48226190 21634882
L48286666 21695358
" />
<path d="M48770476 21695358
L48830952 21634882
L48951904 21574405
L49254285 21574405
L49375238 21634882
L49435714 21695358
L49496190 21816310
L49496190 21937262
L49435714 22118691
L48710000 22844405
L49496190 22844405
" />
<path d="M50040476 22723453
L50100952 22783929
L50040476 22844405
L49980000 22783929
L50040476 22723453
L50040476 22844405
" />
<path d="M50584761 21695358
L50645238 21634882
L50766190 21574405
L51068571 21574405
L51189523 21634882
L51250000 21695358
L51310476 21816310
L51310476 21937262
L51250000 22118691
L50524285 22844405
L51310476 22844405
" />
<path d="M52399047 21997739
L52399047 22844405
" />
<path d="M51854761 21997739
L51854761 22662977
L51915238 22783929
L52036190 22844405
L52217619 22844405
L52338571 22783929
L52399047 22723453
" />
</g><g transform="rotate(-90.000000 55255000.000000 11880000.000000)">
<text x="55255000.000000" y="12515000.000000"
textLength="5773057.000000" font-size="1693333.000000" lengthAdjust="spacingAndGlyphs"
text-anchor="middle" opacity="0">C0.1u</text>
</g>
<g class="stroked-text"><desc>C0.1u</desc>
<path d="M55708571 13573333
L55769047 13633809
L55829523 13815238
L55829523 13936190
L55769047 14117619
L55648095 14238571
L55527142 14299047
L55285238 14359523
L55103809 14359523
L54861904 14299047
L54740952 14238571
L54620000 14117619
L54559523 13936190
L54559523 13815238
L54620000 13633809
L54680476 13573333
" />
<path d="M54559523 12787142
L54559523 12666190
L54620000 12545238
L54680476 12484761
L54801428 12424285
L55043333 12363809
L55345714 12363809
L55587619 12424285
L55708571 12484761
L55769047 12545238
L55829523 12666190
L55829523 12787142
L55769047 12908095
L55708571 12968571
L55587619 13029047
L55345714 13089523
L55043333 13089523
L54801428 13029047
L54680476 12968571
L54620000 12908095
L54559523 12787142
" />
<path d="M55708571 11819523
L55769047 11759047
L55829523 11819523
L55769047 11880000
L55708571 11819523
L55829523 11819523
" />
<path d="M55829523 10549523
L55829523 11275238
" />
<path d="M55829523 10912380
L54559523 10912380
L54740952 11033333
L54861904 11154285
L54922380 11275238
" />
<path d="M54982857 9460952
L55829523 9460952
" />
<path d="M54982857 10005238
L55648095 10005238
L55769047 9944761
L55829523 9823809
L55829523 9642380
L55769047 9521428
L55708571 9460952
" />
</g><text x="43974110.000000" y="22834175.000000"
textLength="3958771.000000" font-size="1693333.000000" lengthAdjust="spacingAndGlyphs"
text-anchor="middle" opacity="0">C1u</text>
<g class="stroked-text"><desc>C1u</desc>
<path d="M43187919 22652746
L43127443 22713222
L42946014 22773698
L42825062 22773698
L42643633 22713222
L42522681 22592270
L42462205 22471317
L42401729 22229413
L42401729 22047984
L42462205 21806079
L42522681 21685127
L42643633 21564175
L42825062 21503698
L42946014 21503698
L43127443 21564175
L43187919 21624651
" />
<path d="M44397443 22773698
L43671729 22773698
" />
<path d="M44034586 22773698
L44034586 21503698
L43913633 21685127
L43792681 21806079
L43671729 21866555
" />
<path d="M45486014 21927032
L45486014 22773698
" />
<path d="M44941729 21927032
L44941729 22592270
L45002205 22713222
L45123157 22773698
L45304586 22773698
L45425538 22713222
L45486014 22652746
" />
</g></g>
<g style="fill:#AFAFAF; fill-opacity:0.0; 
stroke:#AFAFAF; stroke-width:200000.000000; stroke-opacity:1; 
stroke-linecap:round; stroke-linejoin:round;">
<circle cx="7520000.000000" cy="24620000.000000" r="100000.000000" /> 
</g>
<g style="fill:#AFAFAF; fill-opacity:0.0; 
stroke:#AFAFAF; stroke-width:127000.000000; stroke-opacity:1; 
stroke-linecap:round; stroke-linejoin:round;">
<path d="M4520000 16585000
L4520000 24055000
" />
<path d="M10870000 24055000
L10870000 16585000
" />
<path d="M4520000 24055000
L10870000 24055000
" />
<path d="M10870000 16585000
L4520000 16585000
" />
</g>
<g style="fill:#AFAFAF; fill-opacity:0.0; 
stroke:#AFAFAF; stroke-width:100000.000000; stroke-opacity:1; 
stroke-linecap:round; stroke-linejoin:round;">
<path d="M60368000 35648000
L60368000 40552000
" />
<path d="M56472000 35648000
L60368000 35648000
" />
<path d="M60368000 40552000
L56472000 40552000
" />
<path d="M56472000 40552000
L56472000 35648000
" />
<path d="M56472000 36918000
L57742000 35648000
" />
<path d="M34160000 42865000
L34160000 33335000
" />
<path d="M29330000 33335000
L29330000 42865000
" />
<path d="M34160000 33335000
L29330000 33335000
" />
<path d="M29330000 42865000
L34160000 42865000
" />
<path d="M65240000 39040000
L66840000 39040000
" />
<path d="M65240000 42240000
L65240000 39040000
" />
<path d="M66840000 39040000
L66840000 42240000
" />
<path d="M66840000 42240000
L65240000 42240000
" />
<path d="M65240000 44120000
L66840000 44120000
" />
<path d="M65240000 47320000
L65240000 44120000
" />
<path d="M66840000 44120000
L66840000 47320000
" />
<path d="M66840000 47320000
L65240000 47320000
" />
<path d="M69520000 46520000
L69520000 44920000
" />
<path d="M72720000 46520000
L69520000 46520000
" />
<path d="M69520000 44920000
L72720000 44920000
" />
<path d="M72720000 44920000
L72720000 46520000
" />
<path d="M44920000 33960000
L46520000 33960000
" />
<path d="M44920000 37160000
L44920000 33960000
" />
<path d="M46520000 33960000
L46520000 37160000
" />
<path d="M46520000 37160000
L44920000 37160000
" />
<path d="M39040000 28740000
L39040000 27140000
" />
<path d="M42240000 28740000
L39040000 28740000
" />
<path d="M39040000 27140000
L42240000 27140000
" />
<path d="M42240000 27140000
L42240000 28740000
" />
<path d="M36500000 43980000
L36500000 42380000
" />
<path d="M39700000 43980000
L36500000 43980000
" />
<path d="M36500000 42380000
L39700000 42380000
" />
<path d="M39700000 42380000
L39700000 43980000
" />
<path d="M32220000 12090000
L33820000 12090000
" />
<path d="M32220000 15290000
L32220000 12090000
" />
<path d="M33820000 12090000
L33820000 15290000
" />
<path d="M33820000 15290000
L32220000 15290000
" />
<path d="M34760000 12090000
L36360000 12090000
" />
<path d="M34760000 15290000
L34760000 12090000
" />
<path d="M36360000 12090000
L36360000 15290000
" />
<path d="M36360000 15290000
L34760000 15290000
" />
<path d="M24600000 12090000
L26200000 12090000
" />
<path d="M24600000 15290000
L24600000 12090000
" />
<path d="M26200000 12090000
L26200000 15290000
" />
<path d="M26200000 15290000
L24600000 15290000
" />
<path d="M27140000 12090000
L28740000 12090000
" />
<path d="M27140000 15290000
L27140000 12090000
" />
<path d="M28740000 12090000
L28740000 15290000
" />
<path d="M28740000 15290000
L27140000 15290000
" />
<path d="M57480000 24600000
L57480000 26200000
" />
<path d="M54280000 24600000
L57480000 24600000
" />
<path d="M57480000 26200000
L54280000 26200000
" />
<path d="M54280000 26200000
L54280000 24600000
" />
<path d="M16980000 12090000
L18580000 12090000
" />
<path d="M16980000 15290000
L16980000 12090000
" />
<path d="M18580000 12090000
L18580000 15290000
" />
<path d="M18580000 15290000
L16980000 15290000
" />
<path d="M56364000 16976222
L57964000 16976222
" />
<path d="M56364000 20176222
L56364000 16976222
" />
<path d="M57964000 16976222
L57964000 20176222
" />
<path d="M57964000 20176222
L56364000 20176222
" />
<path d="M19520000 12090000
L21120000 12090000
" />
<path d="M19520000 15290000
L19520000 12090000
" />
<path d="M21120000 12090000
L21120000 15290000
" />
<path d="M21120000 15290000
L19520000 15290000
" />
<path d="M59220000 14300000
L57620000 14300000
" />
<path d="M59220000 11100000
L59220000 14300000
" />
<path d="M57620000 14300000
L57620000 11100000
" />
<path d="M57620000 11100000
L59220000 11100000
" />
<path d="M16840000 32220000
L16840000 33820000
" />
<path d="M13640000 32220000
L16840000 32220000
" />
<path d="M16840000 33820000
L13640000 33820000
" />
<path d="M13640000 33820000
L13640000 32220000
" />
<path d="M69520000 28740000
L69520000 27140000
" />
<path d="M72720000 28740000
L69520000 28740000
" />
<path d="M69520000 27140000
L72720000 27140000
" />
<path d="M72720000 27140000
L72720000 28740000
" />
<path d="M49200000 10960000
L49200000 9360000
" />
<path d="M52400000 10960000
L49200000 10960000
" />
<path d="M49200000 9360000
L52400000 9360000
" />
<path d="M52400000 9360000
L52400000 10960000
" />
<path d="M16765000 47460000
L16765000 49060000
" />
<path d="M13565000 47460000
L16765000 47460000
" />
<path d="M16765000 49060000
L13565000 49060000
" />
<path d="M13565000 49060000
L13565000 47460000
" />
<path d="M42380000 13640000
L43980000 13640000
" />
<path d="M42380000 16840000
L42380000 13640000
" />
<path d="M43980000 13640000
L43980000 16840000
" />
<path d="M43980000 16840000
L42380000 16840000
" />
<path d="M46660000 26200000
L46660000 24600000
" />
<path d="M49860000 26200000
L46660000 26200000
" />
<path d="M46660000 24600000
L49860000 24600000
" />
<path d="M49860000 24600000
L49860000 26200000
" />
<path d="M16840000 39840000
L16840000 41440000
" />
<path d="M13640000 39840000
L16840000 39840000
" />
<path d="M16840000 41440000
L13640000 41440000
" />
<path d="M13640000 41440000
L13640000 39840000
" />
<path d="M52400000 6820000
L52400000 8420000
" />
<path d="M49200000 6820000
L52400000 6820000
" />
<path d="M52400000 8420000
L49200000 8420000
" />
<path d="M49200000 8420000
L49200000 6820000
" />
<path d="M46520000 9220000
L44920000 9220000
" />
<path d="M46520000 6020000
L46520000 9220000
" />
<path d="M44920000 9220000
L44920000 6020000
" />
<path d="M44920000 6020000
L46520000 6020000
" />
<path d="M75550000 44640000
L75550000 41720000
" />
<path d="M75550000 42670000
L76500000 41720000
" />
<path d="M75550000 41720000
L76850000 41720000
" />
<path d="M76850000 44640000
L75550000 44640000
" />
<path d="M76850000 41720000
L76850000 44640000
" />
<path d="M75550000 37020000
L75550000 34100000
" />
<path d="M75550000 35050000
L76500000 34100000
" />
<path d="M75550000 34100000
L76850000 34100000
" />
<path d="M76850000 37020000
L75550000 37020000
" />
<path d="M76850000 34100000
L76850000 37020000
" />
<path d="M75550000 26860000
L75550000 23940000
" />
<path d="M75550000 24890000
L76500000 23940000
" />
<path d="M75550000 23940000
L76850000 23940000
" />
<path d="M76850000 26860000
L75550000 26860000
" />
<path d="M76850000 23940000
L76850000 26860000
" />
<path d="M75550000 19240000
L75550000 16320000
" />
<path d="M75550000 17270000
L76500000 16320000
" />
<path d="M75550000 16320000
L76850000 16320000
" />
<path d="M76850000 19240000
L75550000 19240000
" />
<path d="M76850000 16320000
L76850000 19240000
" />
</g>
<g style="fill:#AFAFAF; fill-opacity:0.0; 
stroke:#AFAFAF; stroke-width:254000.000000; stroke-opacity:1; 
stroke-linecap:round; stroke-linejoin:round;">
<path d="M69677680 5203000
L83677680 5203000
" />
<path d="M69677680 12703000
L69677680 5203000
" />
<path d="M83677680 12703000
L69677680 12703000
" />
<path d="M83677680 5203000
L83677680 12703000
" />
</g>
<g style="fill:#AFAFAF; fill-opacity:0.0; 
stroke:#AFAFAF; stroke-width:200000.000000; stroke-opacity:1; 
stroke-linecap:round; stroke-linejoin:round;">
<circle cx="61500000.000000" cy="8891500.000000" r="100000.000000" /> 
</g>
<g style="fill:#AFAFAF; fill-opacity:0.0; 
stroke:#AFAFAF; stroke-width:127000.000000; stroke-opacity:1; 
stroke-linecap:round; stroke-linejoin:round;">
<path d="M62305000 12141500
L62305000 5791500
" />
<path d="M62305000 5791500
L67235000 5791500
" />
<path d="M67235000 5791500
L67235000 12141500
" />
<path d="M67235000 12141500
L62305000 12141500
" />
</g>
<g style="fill:#AFAFAF; fill-opacity:0.0; 
stroke:#AFAFAF; stroke-width:200000.000000; stroke-opacity:1; 
stroke-linecap:round; stroke-linejoin:round;">
<circle cx="83820000.000000" cy="42640000.000000" r="100000.000000" /> 
</g>
<g style="fill:#AFAFAF; fill-opacity:0.0; 
stroke:#AFAFAF; stroke-width:127000.000000; stroke-opacity:1; 
stroke-linecap:round; stroke-linejoin:round;">
<path d="M87070000 41835000
L80720000 41835000
" />
<path d="M80720000 41835000
L80720000 36905000
" />
<path d="M80720000 36905000
L87070000 36905000
" />
<path d="M87070000 36905000
L87070000 41835000
" />
</g>
<g style="fill:#AFAFAF; fill-opacity:0.0; 
stroke:#AFAFAF; stroke-width:200000.000000; stroke-opacity:1; 
stroke-linecap:round; stroke-linejoin:round;">
<circle cx="53880000.000000" cy="48260000.000000" r="100000.000000" /> 
</g>
<g style="fill:#AFAFAF; fill-opacity:0.0; 
stroke:#AFAFAF; stroke-width:127000.000000; stroke-opacity:1; 
stroke-linecap:round; stroke-linejoin:round;">
<path d="M54685000 51510000
L54685000 45160000
" />
<path d="M54685000 45160000
L59615000 45160000
" />
<path d="M59615000 45160000
L59615000 51510000
" />
<path d="M59615000 51510000
L54685000 51510000
" />
</g>
<g style="fill:#AFAFAF; fill-opacity:0.0; 
stroke:#AFAFAF; stroke-width:200000.000000; stroke-opacity:1; 
stroke-linecap:round; stroke-linejoin:round;">
<circle cx="31020000.000000" cy="7620000.000000" r="100000.000000" /> 
</g>
<g style="fill:#AFAFAF; fill-opacity:0.0; 
stroke:#AFAFAF; stroke-width:127000.000000; stroke-opacity:1; 
stroke-linecap:round; stroke-linejoin:round;">
<path d="M31825000 10870000
L31825000 4520000
" />
<path d="M31825000 4520000
L36755000 4520000
" />
<path d="M36755000 4520000
L36755000 10870000
" />
<path d="M36755000 10870000
L31825000 10870000
" />
</g>
<g style="fill:#AFAFAF; fill-opacity:0.0; 
stroke:#AFAFAF; stroke-width:200000.000000; stroke-opacity:1; 
stroke-linecap:round; stroke-linejoin:round;">
<circle cx="23400000.000000" cy="7620000.000000" r="100000.000000" /> 
</g>
<g style="fill:#AFAFAF; fill-opacity:0.0; 
stroke:#AFAFAF; stroke-width:127000.000000; stroke-opacity:1; 
stroke-linecap:round; stroke-linejoin:round;">
<path d="M24205000 10870000
L24205000 4520000
" />
<path d="M24205000 4520000
L29135000 4520000
" />
<path d="M29135000 4520000
L29135000 10870000
" />
<path d="M29135000 10870000
L24205000 10870000
" />
</g>
<g style="fill:#AFAFAF; fill-opacity:0.0; 
stroke:#AFAFAF; stroke-width:200000.000000; stroke-opacity:1; 
stroke-linecap:round; stroke-linejoin:round;">
<circle cx="83820000.000000" cy="24860000.000000" r="100000.000000" /> 
</g>
<g style="fill:#AFAFAF; fill-opacity:0.0; 
stroke:#AFAFAF; stroke-width:127000.000000; stroke-opacity:1; 
stroke-linecap:round; stroke-linejoin:round;">
<path d="M87070000 24055000
L80720000 24055000
" />
<path d="M80720000 24055000
L80720000 19125000
" />
<path d="M80720000 19125000
L87070000 19125000
" />
<path d="M87070000 19125000
L87070000 24055000
" />
</g>
<g style="fill:#AFAFAF; fill-opacity:0.0; 
stroke:#AFAFAF; stroke-width:200000.000000; stroke-opacity:1; 
stroke-linecap:round; stroke-linejoin:round;">
<circle cx="15780000.000000" cy="7620000.000000" r="100000.000000" /> 
</g>
<g style="fill:#AFAFAF; fill-opacity:0.0; 
stroke:#AFAFAF; stroke-width:127000.000000; stroke-opacity:1; 
stroke-linecap:round; stroke-linejoin:round;">
<path d="M16585000 10870000
L16585000 4520000
" />
<path d="M16585000 4520000
L21515000 4520000
" />
<path d="M21515000 4520000
L21515000 10870000
" />
<path d="M21515000 10870000
L16585000 10870000
" />
</g>
<g style="fill:#AFAFAF; fill-opacity:0.0; 
stroke:#AFAFAF; stroke-width:200000.000000; stroke-opacity:1; 
stroke-linecap:round; stroke-linejoin:round;">
<circle cx="7695000.000000" cy="32480000.000000" r="100000.000000" /> 
</g>
<g style="fill:#AFAFAF; fill-opacity:0.0; 
stroke:#AFAFAF; stroke-width:127000.000000; stroke-opacity:1; 
stroke-linecap:round; stroke-linejoin:round;">
<path d="M10945000 31675000
L4595000 31675000
" />
<path d="M4595000 31675000
L4595000 26745000
" />
<path d="M4595000 26745000
L10945000 26745000
" />
<path d="M10945000 26745000
L10945000 31675000
" />
</g>
<g style="fill:#AFAFAF; fill-opacity:0.0; 
stroke:#AFAFAF; stroke-width:200000.000000; stroke-opacity:1; 
stroke-linecap:round; stroke-linejoin:round;">
<circle cx="7620000.000000" cy="47720000.000000" r="100000.000000" /> 
</g>
<g style="fill:#AFAFAF; fill-opacity:0.0; 
stroke:#AFAFAF; stroke-width:127000.000000; stroke-opacity:1; 
stroke-linecap:round; stroke-linejoin:round;">
<path d="M10870000 46915000
L4520000 46915000
" />
<path d="M4520000 46915000
L4520000 41985000
" />
<path d="M4520000 41985000
L10870000 41985000
" />
<path d="M10870000 41985000
L10870000 46915000
" />
</g>
<g style="fill:#AFAFAF; fill-opacity:0.0; 
stroke:#AFAFAF; stroke-width:200000.000000; stroke-opacity:1; 
stroke-linecap:round; stroke-linejoin:round;">
<circle cx="7620000.000000" cy="40100000.000000" r="100000.000000" /> 
</g>
<g style="fill:#AFAFAF; fill-opacity:0.0; 
stroke:#AFAFAF; stroke-width:127000.000000; stroke-opacity:1; 
stroke-linecap:round; stroke-linejoin:round;">
<path d="M10870000 39295000
L4520000 39295000
" />
<path d="M4520000 39295000
L4520000 34365000
" />
<path d="M4520000 34365000
L10870000 34365000
" />
<path d="M10870000 34365000
L10870000 39295000
" />
</g>
<g style="fill:#AFAFAF; fill-opacity:0.0; 
stroke:#AFAFAF; stroke-width:100000.000000; stroke-opacity:1; 
stroke-linecap:round; stroke-linejoin:round;">
<path d="M70308000 40803900
L70308000 37903900
" />
<path d="M71932000 37903900
L71932000 40803900
" />
<path d="M71932000 40803900
L70308000 40803900
" />
<path d="M70308000 37903900
L71932000 37903900
" />
<path d="M70308000 38853900
L71258000 37903900
" />
<path d="M32208000 29390000
L32208000 26490000
" />
<path d="M33832000 26490000
L33832000 29390000
" />
<path d="M33832000 29390000
L32208000 29390000
" />
<path d="M32208000 26490000
L33832000 26490000
" />
<path d="M32208000 27440000
L33158000 26490000
" />
<path d="M32208000 21770000
L32208000 18870000
" />
<path d="M33832000 18870000
L33832000 21770000
" />
<path d="M33832000 21770000
L32208000 21770000
" />
<path d="M32208000 18870000
L33832000 18870000
" />
<path d="M32208000 19820000
L33158000 18870000
" />
<path d="M24588000 42090000
L24588000 39190000
" />
<path d="M26212000 39190000
L26212000 42090000
" />
<path d="M26212000 42090000
L24588000 42090000
" />
<path d="M24588000 39190000
L26212000 39190000
" />
<path d="M24588000 40140000
L25538000 39190000
" />
<path d="M70541922 22902203
L70541922 20002203
" />
<path d="M72165922 20002203
L72165922 22902203
" />
<path d="M72165922 22902203
L70541922 22902203
" />
<path d="M70541922 20002203
L72165922 20002203
" />
<path d="M70541922 20952203
L71491922 20002203
" />
<path d="M19508000 29390000
L19508000 26490000
" />
<path d="M21132000 26490000
L21132000 29390000
" />
<path d="M21132000 29390000
L19508000 29390000
" />
<path d="M19508000 26490000
L21132000 26490000
" />
<path d="M19508000 27440000
L20458000 26490000
" />
<path d="M24588000 26850000
L24588000 23950000
" />
<path d="M26212000 23950000
L26212000 26850000
" />
<path d="M26212000 26850000
L24588000 26850000
" />
<path d="M24588000 23950000
L26212000 23950000
" />
<path d="M24588000 24900000
L25538000 23950000
" />
<path d="M24588000 21770000
L24588000 18870000
" />
<path d="M26212000 18870000
L26212000 21770000
" />
<path d="M26212000 21770000
L24588000 21770000
" />
<path d="M24588000 18870000
L26212000 18870000
" />
<path d="M24588000 19820000
L25538000 18870000
" />
<path d="M19508000 39032567
L19508000 36132567
" />
<path d="M21132000 36132567
L21132000 39032567
" />
<path d="M21132000 39032567
L19508000 39032567
" />
<path d="M19508000 36132567
L21132000 36132567
" />
<path d="M19508000 37082567
L20458000 36132567
" />
<path d="M19508000 44630000
L19508000 41730000
" />
<path d="M21132000 41730000
L21132000 44630000
" />
<path d="M21132000 44630000
L19508000 44630000
" />
<path d="M19508000 41730000
L21132000 41730000
" />
<path d="M19508000 42680000
L20458000 41730000
" />
<path d="M61550000 27185000
L61550000 18535000
" />
<path d="M61550000 18535000
L65450000 18535000
" />
<path d="M65450000 25915000
L64180000 27185000
" />
<path d="M65450000 18535000
L65450000 27185000
" />
<path d="M65450000 27185000
L61550000 27185000
" />
<path d="M38912000 34110000
L38912000 37010000
" />
<path d="M37288000 37010000
L37288000 34110000
" />
<path d="M37288000 34110000
L38912000 34110000
" />
<path d="M38912000 37010000
L37288000 37010000
" />
<path d="M38912000 36060000
L37962000 37010000
" />
<path d="M52748000 12788000
L52748000 17692000
" />
<path d="M48852000 12788000
L52748000 12788000
" />
<path d="M52748000 17692000
L48852000 17692000
" />
<path d="M48852000 17692000
L48852000 12788000
" />
<path d="M48852000 14058000
L50122000 12788000
" />
<path d="M61960000 32395000
L61960000 33645000
" />
<path d="M59960000 33645000
L59960000 32395000
" />
<path d="M59960000 32395000
L61960000 32395000
" />
<path d="M61960000 33645000
L59960000 33645000
" />
<path d="M61140000 42555000
L61140000 43805000
" />
<path d="M59140000 43805000
L59140000 42555000
" />
<path d="M59140000 42555000
L61140000 42555000
" />
<path d="M61140000 43805000
L59140000 43805000
" />
<path d="M43805000 36560000
L42555000 36560000
" />
<path d="M42555000 34560000
L43805000 34560000
" />
<path d="M43805000 34560000
L43805000 36560000
" />
<path d="M42555000 36560000
L42555000 34560000
" />
<path d="M50980000 19695000
L50980000 20945000
" />
<path d="M48980000 20945000
L48980000 19695000
" />
<path d="M48980000 19695000
L50980000 19695000
" />
<path d="M50980000 20945000
L48980000 20945000
" />
<path d="M55255000 10880000
L56505000 10880000
" />
<path d="M56505000 12880000
L55255000 12880000
" />
<path d="M55255000 12880000
L55255000 10880000
" />
<path d="M56505000 10880000
L56505000 12880000
" />
<path d="M45000000 19695000
L45000000 20945000
" />
<path d="M43000000 20945000
L43000000 19695000
" />
<path d="M43000000 19695000
L45000000 19695000
" />
<path d="M45000000 20945000
L43000000 20945000
" />
<g >
</g>
<g >
</g>
<g >
</g>
<g >
</g>
<g >
</g>
<g >
</g>
<g >
</g>
<g >
</g>
<g >
</g>
<g >
</g>
<g >
</g>
<g >
</g>
<g >
</g>
<g >
</g>
<g >
</g>
<g >
</g>
<g >
</g>
<g >
</g>
<g >
</g>
<g >
</g>
<g >
</g>
<g >
</g>
<g >
</g>
<g >
</g>
<g >
</g>
<g >
</g>
<g >
</g>
<g >
</g>
<g >
</g>
<g >
</g>
<g >
</g>
<g >
</g>
<g >
</g>
<g >
</g>
<g >
</g>
<g >
</g>
<g >
</g>
<g >
</g>
<g >
</g>
<g >
</g>
<g >
</g>
<g >
</g>
<g >
</g>
<g >
</g>
<g >
</g>
<g >
</g>
<g >
</g>
<g >
</g>
<g >
</g>
<g >
</g>
<g >
</g>
<g >
</g>
<g >
</g>
<g >
</g>
<g >
</g>
<g >
</g>
<g >
</g>
<g >
</g>
<g >
</g>
<g >
</g>
<g >
</g>
<g >
</g>
<g >
</g>
<g >
</g>
</g>
<g style="fill:#000000; fill-opacity:0.0; 
stroke:#000000; stroke-width:100000.000000; stroke-opacity:1; 
stroke-linecap:round; stroke-linejoin:round;">
</g>
<g style="fill:#D0D2CD; fill-opacity:0.0; 
stroke:#D0D2CD; stroke-width:100000.000000; stroke-opacity:1; 
stroke-linecap:round; stroke-linejoin:round;">
<path d="M2540000 2540000
L88900000 2540000
" />
<path d="M88900000 2540000
L88900000 53340000
" />
<path d="M88900000 53340000
L2540000 53340000
" />
<path d="M2540000 53340000
L2540000 2540000
" />
<g >
</g>
<g >
</g>
<g >
</g>
<g >
</g>
<g >
</g>
<g >
</g>
<g >
</g>
<g >
</g>
<g >
</g>
<g >
</g>
<g >
</g>
<g >
</g>
<g >
</g>
<g >
</g>
<g >
</g>
<g >
</g>
<g >
</g>
<g >
</g>
<g >
</g>
<g >
</g>
<g >
</g>
<g >
</g>
<g >
</g>
<g >
</g>
<g >
</g>
<g >
</g>
<g >
</g>
<g >
</g>
<g >
</g>
<g >
</g>
<g >
</g>
<g >
</g>
<g >
</g>
<g >
</g>
<g >
</g>
<g >
</g>
<g >
</g>
<g >
</g>
<g >
</g>
<g >
</g>
<g >
</g>
<g >
</g>
<g >
</g>
<g >
</g>
<g >
</g>
<g >
</g>
<g >
</g>
<g >
</g>
<g >
</g>
<g >
</g>
<g >
</g>
<g >
</g>
<g >
</g>
<g >
</g>
<g >
</g>
<g >
</g>
<g >
</g>
<g >
</g>
<g >
</g>
<g >
</g>
<g >
</g>
<g >
</g>
<g >
</g>
<g >
</g>
</g> 
</svg>
