<!--version="1.0" standalone="no"--><!DOCTYPE html PUBLIC "-//W3C//DTD SVG 1.0//EN" "http://www.w3.org/TR/2001/REC-SVG-20010904/DTD/svg10.dtd"><svg xmlns="http://www.w3.org/2000/svg" xmlns:xlink="http://www.w3.org/1999/xlink" id="body_-1552936476_10118" width="18986.009765625" height="13943.3203125" preserveAspectRatio="xMidYMid meet" zoomAndPan="magnify" version="1.0" contentScriptType="text/ecmascript" contentStyleType="text/css">

<g transform="matrix(95.500797220359402 0 0 -95.500797220359402 49.363903054560069 13907.067481556442)">
    <g>
            <path d="M131.10482636049318 128.54718943387289L130.8092982564161 127.40085646846201L130.5801077886116 126.23859771284026L130.41837057933711 125.06607574208117L130.32487568486837 123.88900285258381L130.30007714829 122.71311345390814L130.34409822366791 121.5441365974692L130.45672180645278 120.3877676205513L130.63740122679212 119.24963948090999L130.88525435142964 118.13529816379432L131.19907573219768 117.05017107044655L131.57733444964359 115.99954653879671L132.01818906683471 114.98854167011355L132.51949155181697 114.0220830637622L133.07879905285188 113.10487819829928L133.69338679866144 112.24139728599694L134.36026146360416 111.43584530811795L135.07617275956039 110.69214704931801L135.83763362972741 110.01392651880245L136.64093436423749 109.40448758882179L137.48216134611425 108.86679954148143L138.35721626478053 108.40348252190998L139.26183525917207 108.01679203291297L140.19161157011183 107.70861245292335L141.14201588482112 107.48044809833161L142.10841693914799 107.33340548068121L143.08610740421457 107.26820562912286L144.07032384377609 107.28516453153796L145.05627083230146 107.38419803029598L146.03914547287127 107.56482469270981L147.01415883548927 107.82616540781854L147.97656106672591 108.1669461383278L148.92166341509053 108.58550712594828L149.84486156476311 109.07980891685588L150.17751725258847 109.27989455745738" stroke="#000000" stroke-width="0.022378943978413231" stroke-linecap="round" stroke-linejoin="round" fill="none"/>
            <path d="M171.00105300000001 72.937622000000005L150.177536 109.27990699999999" stroke="#000000" stroke-width="0.022378943978413231" stroke-linecap="round" stroke-linejoin="round" fill="none"/>
            <path d="M134.98114226845192 135.80147449124041L134.27162141564528 134.92381877618729L133.61152655518788 133.99360776219521L133.00407501122939 133.01537524264907L132.45222598089393 131.99388580213321L131.95866705486884 130.93411612283955L131.52580339886393 129.84123016383535L131.15574347308771 128.72055163082285L130.85029139415468 127.57754046238125L130.69825536339641 126.88129089325318" stroke="#000000" stroke-width="0.022378943978413231" stroke-linecap="round" stroke-linejoin="round" fill="none"/>
            <path d="M134.181534 137.196899L134.98111 135.801514" stroke="#000000" stroke-width="0.022378943978413231" stroke-linecap="round" stroke-linejoin="round" fill="none"/>
            <path d="M134.181534 137.196899L129.57131999999999 145.24292" stroke="#000000" stroke-width="0.022378943978413231" stroke-linecap="round" stroke-linejoin="round" fill="none"/>
            <path d="M129.57131999999999 145.24292L99.229050000000001 127.8573" stroke="#000000" stroke-width="0.022378943978413231" stroke-linecap="round" stroke-linejoin="round" fill="none"/>
            <path d="M99.229050000000001 127.8573L133.807388 67.509399000000002" stroke="#000000" stroke-width="0.022378943978413231" stroke-linecap="round" stroke-linejoin="round" fill="none"/>
            <path d="M133.807388 67.509399000000002L135.38438400000001 64.757202000000007" stroke="#000000" stroke-width="0.022378943978413231" stroke-linecap="round" stroke-linejoin="round" fill="none"/>
            <path d="M135.38438400000001 64.757202000000007L197.77093500000001 64.757202000000007" stroke="#000000" stroke-width="0.022378943978413231" stroke-linecap="round" stroke-linejoin="round" fill="none"/>
            <path d="M197.77093500000001 64.757202000000007L197.77093500000001 72.937622000000005" stroke="#000000" stroke-width="0.022378943978413231" stroke-linecap="round" stroke-linejoin="round" fill="none"/>
            <path d="M197.77093500000001 72.937622000000005L171.00105300000001 72.937622000000005" stroke="#000000" stroke-width="0.022378943978413231" stroke-linecap="round" stroke-linejoin="round" fill="none"/>
            <path d="M191.36608899999999 65.819580000000002L191.36608899999999 71.719481999999999" stroke="#000000" stroke-width="0.022378943978413231" stroke-linecap="round" stroke-linejoin="round" fill="none"/>
            <path d="M191.36608899999999 65.819580000000002L186.38003499999999 65.819580000000002" stroke="#000000" stroke-width="0.022378943978413231" stroke-linecap="round" stroke-linejoin="round" fill="none"/>
            <path d="M186.366333 71.719481999999999L186.38003499999999 65.819580000000002" stroke="#000000" stroke-width="0.022378943978413231" stroke-linecap="round" stroke-linejoin="round" fill="none"/>
            <path d="M122.59755890463256 105.187866L122.59244339559936 105.33435459202862L122.57712190245056 105.48012950784302L122.55166881178283 105.62448054319954L122.51620857809448 105.76670440799332L122.47091345880889 105.9061082876358L122.41600434873962 106.04201289779282L122.35174887274169 106.17375620967483L122.27845995520019 106.30069640046692L122.19649462793731 106.42221501237488L122.10625224207305 106.53771987325287L122.00817256067657 106.64664855367279L121.90273325537109 106.74847009545898L121.79044799898529 106.84268846875763L121.67186408136749 106.92884483701324L121.54755895231628 107.00651922589874L121.41813837383651 107.07533338433838L121.28423278425598 107.13495197660065L121.14649467562103 107.1850846088562L121.00559495781326 107.22548702127075L120.86222015713119 107.25596216088867L120.71706876550579 107.27636196977234L120.57084793989324 107.28658655053711L120.42427006010675 107.28658655053711L120.2780492344942 107.27636196977234L120.1328978428688 107.25596216088867L119.98952304218673 107.22548702127075L119.84862332437896 107.1850846088562L119.71088521574401 107.13495197660065L119.57697962616348 107.07533338433838L119.44755904768371 107.00651922589874L119.3232539186325 106.92884483701324L119.2046700010147 106.84268846875763L119.0923847446289 106.74847009545898L118.98694543932342 106.64664855367279L118.88886575792694 106.53771987325287L118.79862337206268 106.42221501237488L118.7166580447998 106.30069640046692L118.6433691272583 106.17375620967483L118.57911365126037 106.04201289779282L118.5242045411911 105.9061082876358L118.47890942190551 105.76670440799332L118.44344918821716 105.62448054319954L118.41799609754943 105.48012950784302L118.40267460440063 105.33435459202862L118.39755909536743 105.187866L118.40267460440063 105.04137740797138L118.41799609754943 104.89560249215698L118.44344918821716 104.75125145680046L118.47890942190551 104.60902759200668L118.5242045411911 104.4696237123642L118.57911365126037 104.33371910220718L118.6433691272583 104.20197579032516L118.7166580447998 104.07503559953308L118.79862337206268 103.95351698762512L118.88886575792694 103.83801212674713L118.98694543932342 103.72908344632721L119.0923847446289 103.62726190454102L119.2046700010147 103.53304353124237L119.3232539186325 103.44688716298676L119.44755904768371 103.36921277410126L119.57697962616348 103.30039861566162L119.71088521574401 103.24078002339935L119.84862332437896 103.1906473911438L119.98952304218673 103.15024497872925L120.1328978428688 103.11976983911133L120.2780492344942 103.09937003022766L120.42427006010675 103.08914544946289L120.57084793989324 103.08914544946289L120.71706876550579 103.09937003022766L120.86222015713119 103.11976983911133L121.00559495781326 103.15024497872925L121.14649467562103 103.1906473911438L121.28423278425598 103.24078002339935L121.41813837383651 103.30039861566162L121.54755895231628 103.36921277410126L121.67186408136749 103.44688716298676L121.79044799898529 103.53304353124237L121.90273325537109 103.62726190454102L122.00817256067657 103.72908344632721L122.10625224207305 103.83801212674713L122.19649462793731 103.95351698762512L122.27845995520019 104.07503559953308L122.35174887274169 104.20197579032516L122.41600434873962 104.33371910220718L122.47091345880889 104.4696237123642L122.51620857809448 104.60902759200668L122.55166881178283 104.75125145680046L122.57712190245056 104.89560249215698L122.59755890463256 105.187866" stroke="#000000" stroke-width="0.022378943978413231" stroke-linecap="round" stroke-linejoin="round" fill="none"/>
            <path d="M186.36608899999999 71.719481999999999L191.36608899999999 71.719481999999999" stroke="#000000" stroke-width="0.022378943978413231" stroke-linecap="round" stroke-linejoin="round" fill="none"/>
            <path d="M119.21850864981079 106.85340788728332L119.10544221495056 106.76012876397705L118.99915783499145 106.6591897285614L118.90017347429657 106.55108240014648L118.80897145365142 106.43633368379211L118.72599606607818 106.31550267106628L118.65165155027771 106.18917777902222L118.58630006407165 106.05797460443115L118.5302601346817 105.92253240710831L118.48380463217163 105.7835109508667L118.4471599349823 105.64158758288956L118.42050449942016 105.4974537468586L118.40396850202941 105.3518116152916L118.39763205145263 105.20537075354493L118.40152638052368 105.05884460872745L118.41563217733764 104.91294705635643L118.43988101576232 104.76838886505699L118.47415464018249 104.62587436801529L118.51828615759277 104.48609778052902L118.57206039522552 104.34974017507172L118.63521556948089 104.21746578580475L118.70744388197326 104.08991911775207L118.78839342687988 103.96772160894012L118.87766974066162 103.85146835214233L118.97483818624877 103.74172606832123L119.07942502592468 103.63902917272186L119.19092099760437 103.54387798673248L119.30878262613678 103.45673623448944L119.43243591879272 103.37802830106354L119.56127845142746 103.30813768273926L119.69468240831756 103.24740507966614L119.83199786041641 103.19612601167297L119.97255592440033 103.15455057984924L120.1156716832962 103.12288143998718L120.26064800117874 103.10127237207031L120.40677851830387 103.08982923394775L120.55335130189323 103.08860733872986L120.69965227340126 103.09761288529968L120.84496866558456 103.11680200463867L120.98859252427482 103.14608099824524L121.12982409094238 103.18530753022766L121.26797537897491 103.23429026967621L121.40237324331665 103.2927905595932L121.53236286734008 103.36052348977661L121.77660923097991 103.52232399350738" stroke="#000000" stroke-width="0.022378943978413231" stroke-linecap="round" stroke-linejoin="round" fill="none"/>
    </g>
</g>
</svg>