<!--version="1.0" standalone="no"--><!DOCTYPE html PUBLIC "-//W3C//DTD SVG 1.0//EN" "http://www.w3.org/TR/2001/REC-SVG-20010904/DTD/svg10.dtd"><svg xmlns="http://www.w3.org/2000/svg" xmlns:xlink="http://www.w3.org/1999/xlink" id="body_1030930099_4043" width="19933.1875" height="11382.796875" preserveAspectRatio="xMidYMid meet" zoomAndPan="magnify" version="1.0" contentScriptType="text/ecmascript" contentStyleType="text/css">

<g transform="matrix(95.500794876206101 0 0 -95.500794876206101 51.826570745557547 11353.201309804226)">
    <g>
            <path d="M207.63737499999999 90.570801000000003L207.63737499999999 118.570801" stroke="#000000" stroke-width="0.01969779065146952" stroke-linecap="round" stroke-linejoin="round" fill="none"/>
            <path d="M89.741837000000004 90.570801000000003L207.63737499999999 90.570801000000003" stroke="#000000" stroke-width="0.01969779065146952" stroke-linecap="round" stroke-linejoin="round" fill="none"/>
            <path d="M89.741837000000004 118.570801L207.63737499999999 118.570801" stroke="#000000" stroke-width="0.01969779065146952" stroke-linecap="round" stroke-linejoin="round" fill="none"/>
            <path d="M89.741837000000004 117.070801L89.741837000000004 118.570801" stroke="#000000" stroke-width="0.01969779065146952" stroke-linecap="round" stroke-linejoin="round" fill="none"/>
            <path d="M89.741837000000004 90.570801000000003L89.741837000000004 92.070801000000003" stroke="#000000" stroke-width="0.01969779065146952" stroke-linecap="round" stroke-linejoin="round" fill="none"/>
            <path d="M89.741817651332894 117.07080481469727L90.613773792510983 117.04035494744873L91.481481879478451 116.94915411889649L92.340714424377438 116.79764769494629L93.187285154586789 116.58657286584473L94.017070263153073 116.3169586461792L94.826026409393307 115.9901182454834L95.610212772613522 115.60764334619141L96.365808933502194 115.17139933526612L97.089133232360837 114.68351004541016L97.776662796264645 114.14635203302002L98.425046890502927 113.56254313409424L99.031126945739743 112.93492720544434L99.591950386291501 112.26656268060303L100.1047849352417 111.56070492684937L100.56713291955566 110.82079289376831L100.97673985314941 110.05043147027588L101.33161255670166 109.25337384164429L101.63002011132812 108.43350360810852L101.8705091173706 107.59481428086853L102.05190846276855 106.74139235437012L102.17333504510498 105.87739561021424L102.23419567895507 105.00703320920563L102.23419472528076 104.13454551518059L102.17333218408203 103.2641832631836L102.05190464807129 102.40018675744629L101.8705033953247 101.54676506936646L101.63001248193359 100.70807621896363L101.33160301995849 99.888206223846439L100.97673031640625 99.091149548889163L100.56712147546386 98.320789079071048L100.10477253747558 97.58087799966431L99.591936081176755 96.875021199584964L99.03111168695068 96.206657628417972L98.425029724365231 95.579042653442386L97.776644676452634 94.995234708190921L97.089114635711667 94.458078603149417L96.36578890634155 93.970190266967776L95.61019226861572 93.5339472097168L94.826004951721188 93.151474217773441L94.017048328643796 92.824635724426273L93.187262743240353 92.555022458435062L92.340691536193845 92.343949536682132L91.481458752876279 92.192445020080569L90.613750546699521 92.101246098876956L89.741810993428771 92.070797185302737" stroke="#000000" stroke-width="0.01969779065146952" stroke-linecap="round" stroke-linejoin="round" fill="none"/>
            <path d="M190.09288000000001 104.77404799999999L190.807053 96.624756000000005" stroke="#000000" stroke-width="0.01969779065146952" stroke-linecap="round" stroke-linejoin="round" fill="none"/>
            <path d="M195.07377600000001 105.210571L190.09288000000001 104.77404799999999" stroke="#000000" stroke-width="0.01969779065146952" stroke-linecap="round" stroke-linejoin="round" fill="none"/>
            <path d="M195.07377600000001 105.210571L195.78797900000001 97.061278999999999" stroke="#000000" stroke-width="0.01969779065146952" stroke-linecap="round" stroke-linejoin="round" fill="none"/>
            <path d="M195.78797900000001 97.061278999999999L190.807053 96.624756000000005" stroke="#000000" stroke-width="0.01969779065146952" stroke-linecap="round" stroke-linejoin="round" fill="none"/>
            <path d="M195.07475299999999 105.198975L190.09385700000001 104.762451" stroke="#000000" stroke-width="0.01969779065146952" stroke-linecap="round" stroke-linejoin="round" fill="none"/>
    </g>
</g>
</svg>