<?xml version="1.0" encoding="utf-8" ?><!DOCTYPE svg PUBLIC "-//W3C//DTD SVG 1.1//EN" "http://www.w3.org/Graphics/SVG/1.1/DTD/svg11.dtd" 
[ <!ATTLIST svg 
  xmlns:dsy CDATA #FIXED "http://www.3ds.com/print"  
    dsy:text-version CDATA #IMPLIED > 

  <!ATTLIST text 
  xmlns:dsy CDATA #FIXED "http://www.3ds.com/print" 
    dsy:text-version CDATA #IMPLIED > 
]><svg xmlns="http://www.w3.org/2000/svg" xmlns:dsy="http://www.3ds.com/print" dsy:text-version="18000" width="297" height="210" viewBox="0 0 297 210" version="1.1"><g stroke="rgb(0, 0, 0)" stroke-width="0.35" stroke-linecap="butt" stroke-linejoin="miter" fill="none"><path d="M 101.633 73.776 L 105.475 76.976"/><path d="M 105.475 76.976 L 104.691 77.9173"/><path d="M 104.691 77.9173 L 100.849 74.7173"/><path d="M 100.849 74.7173 L 91.9571 85.3932"/><path d="M 91.9571 85.3932 L 183.957 84.809"/><path d="M 183.957 84.809 L 183.894 74.9706"/><path d="M 183.894 74.9706 L 178.894 75.0023"/><path d="M 178.894 75.0023 L 178.887 73.7773"/><path d="M 178.887 73.7773 L 183.886 73.7456"/><path d="M 183.886 73.7456 L 183.829 64.7512"/><path d="M 183.829 64.7512 L 108.75 65.2279"/><path d="M 108.75 65.2279 L 101.633 73.776"/><circle cx="182.091" cy="66.5123" r="0.425006"/><circle cx="182.196" cy="83.0701" r="0.425006"/><circle cx="95.7121" cy="83.6193" r="0.425006"/><circle cx="109.574" cy="66.9727" r="0.425006"/><path d="M 182.777 68.0782 L 180.277 68.1086"/><path d="M 182.783 68.5782 L 182.777 68.0782"/><path d="M 180.283 68.6086 L 182.783 68.5782"/><path d="M 180.277 68.1086 L 180.283 68.6086"/><path d="M 182.913 81.5578 L 182.91 81.0578"/><path d="M 180.413 81.5737 L 182.913 81.5578"/><path d="M 180.41 81.0737 L 180.413 81.5737"/><path d="M 182.91 81.0578 L 180.41 81.0737"/><path d="M 96.0141 81.905 L 97.9292 83.512"/><path d="M 96.3355 81.522 L 96.0141 81.905"/><path d="M 98.2506 83.129 L 96.3355 81.522"/><path d="M 97.9292 83.512 L 98.2506 83.129"/><path d="M 108.112 67.7038 L 107.791 68.0869"/><path d="M 110.027 69.3108 L 108.112 67.7038"/><path d="M 109.706 69.6938 L 110.027 69.3108"/><path d="M 107.791 68.0869 L 109.706 69.6938"/></g></svg>