<?xml version="1.0" encoding="utf-8" ?><!DOCTYPE svg PUBLIC "-//W3C//DTD SVG 1.1//EN" "http://www.w3.org/Graphics/SVG/1.1/DTD/svg11.dtd" 
[ <!ATTLIST svg 
  xmlns:dsy CDATA #FIXED "http://www.3ds.com/print"  
    dsy:text-version CDATA #IMPLIED > 

  <!ATTLIST text 
  xmlns:dsy CDATA #FIXED "http://www.3ds.com/print" 
    dsy:text-version CDATA #IMPLIED > 
]><svg xmlns="http://www.w3.org/2000/svg" xmlns:dsy="http://www.3ds.com/print" dsy:text-version="18000" width="297" height="210" viewBox="0 0 297 210" version="1.1"><g stroke="rgb(0, 0, 0)" stroke-width="0.35" stroke-linecap="butt" stroke-linejoin="miter" fill="none"><path d="M 137.079 115.033 L 141.979 115.019"/><path d="M 137.137 135.033 L 137.079 115.033"/><path d="M 117.137 135.091 L 137.137 135.033"/><path d="M 116.964 75.091 L 117.137 135.091"/><path d="M 180.036 134.909 L 179.863 74.9094"/><path d="M 142.037 135.019 L 180.036 134.909"/><path d="M 141.979 115.019 L 142.037 135.019"/><path d="M 179.863 74.9094 L 161.484 74.9625"/><path d="M 134.061 75.0416 L 116.964 75.091"/><path d="M 134.06 75.0417 A 14.0139 14.0139 0 0 0 146.022 85.9971"/><path d="M 146.022 85.9976 A 14.0246 14.0246 0 0 0 154.691 84.2782"/><path d="M 154.691 84.278 A 13.9963 13.9963 0 0 0 161.484 74.9624"/><path d="M 145.909 85.9829 A 14.0246 14.0246 0 0 0 154.463 84.2496"/><path d="M 154.463 84.2495 A 13.9963 13.9963 0 0 0 161.25 74.9632"/><path d="M 161.249 74.9631 L 161.484 74.9625"/></g></svg>