%TF.GenerationSoftware,KiCad,Pcbnew,8.0.0*%
%TF.CreationDate,2024-04-17T18:36:48+02:00*%
%TF.ProjectId,Inverter_Voltage Sensor,496e7665-7274-4657-925f-566f6c746167,rev?*%
%TF.SameCoordinates,Original*%
%TF.FileFunction,Drillmap*%
%TF.FilePolarity,Positive*%
%FSLAX45Y45*%
G04 Gerber Fmt 4.5, Leading zero omitted, Abs format (unit mm)*
G04 Created by KiCad (PCBNEW 8.0.0) date 2024-04-17 18:36:48*
%MOMM*%
%LPD*%
G01*
G04 APERTURE LIST*
%ADD10C,0.100000*%
%ADD11C,0.200000*%
%ADD12C,0.107000*%
%ADD13C,0.110000*%
%ADD14C,0.120000*%
%ADD15C,0.150000*%
%ADD16C,0.300000*%
%ADD17C,0.320000*%
G04 APERTURE END LIST*
D10*
X7620000Y-5588000D02*
X13716000Y-5588000D01*
X13716000Y-12446000D01*
X7620000Y-12446000D01*
X7620000Y-5588000D01*
D11*
D10*
X9378000Y-7536500D02*
X9418000Y-7576500D01*
X9418000Y-7536500D02*
X9378000Y-7576500D01*
X9727250Y-7187250D02*
X9767250Y-7227250D01*
X9767250Y-7187250D02*
X9727250Y-7227250D01*
D12*
X13261500Y-8128000D02*
G75*
G02*
X13154500Y-8128000I-53500J0D01*
G01*
X13154500Y-8128000D02*
G75*
G02*
X13261500Y-8128000I53500J0D01*
G01*
X13261500Y-8382000D02*
G75*
G02*
X13154500Y-8382000I-53500J0D01*
G01*
X13154500Y-8382000D02*
G75*
G02*
X13261500Y-8382000I53500J0D01*
G01*
X13261500Y-8636000D02*
G75*
G02*
X13154500Y-8636000I-53500J0D01*
G01*
X13154500Y-8636000D02*
G75*
G02*
X13261500Y-8636000I53500J0D01*
G01*
D13*
X11049000Y-6776500D02*
X11049000Y-6886500D01*
X10994000Y-6831500D02*
X11104000Y-6831500D01*
X11303000Y-6776500D02*
X11303000Y-6886500D01*
X11248000Y-6831500D02*
X11358000Y-6831500D01*
X11557000Y-6776500D02*
X11557000Y-6886500D01*
X11502000Y-6831500D02*
X11612000Y-6831500D01*
X12065000Y-6776500D02*
X12065000Y-6886500D01*
X12010000Y-6831500D02*
X12120000Y-6831500D01*
X12319000Y-6776500D02*
X12319000Y-6886500D01*
X12264000Y-6831500D02*
X12374000Y-6831500D01*
D14*
X9550957Y-10018209D02*
X9550957Y-9933355D01*
X9466104Y-9933355D01*
X9466104Y-10018209D01*
X9550957Y-10018209D01*
X9550957Y-12050209D02*
X9550957Y-11965355D01*
X9466104Y-11965355D01*
X9466104Y-12050209D01*
X9550957Y-12050209D01*
D15*
X8333912Y-7775088D02*
X8408912Y-7700088D01*
X8333912Y-7625088D01*
X8258912Y-7700088D01*
X8333912Y-7775088D01*
X8333912Y-10035089D02*
X8408912Y-9960089D01*
X8333912Y-9885089D01*
X8258912Y-9960089D01*
X8333912Y-10035089D01*
D16*
X8232000Y-6200000D02*
X8532000Y-6500000D01*
X8532000Y-6200000D02*
X8232000Y-6500000D01*
X8532000Y-6350000D02*
G75*
G02*
X8232000Y-6350000I-150000J0D01*
G01*
X8232000Y-6350000D02*
G75*
G02*
X8532000Y-6350000I150000J0D01*
G01*
X8232000Y-11788000D02*
X8532000Y-12088000D01*
X8532000Y-11788000D02*
X8232000Y-12088000D01*
X8532000Y-11938000D02*
G75*
G02*
X8232000Y-11938000I-150000J0D01*
G01*
X8232000Y-11938000D02*
G75*
G02*
X8532000Y-11938000I150000J0D01*
G01*
D17*
X9428500Y-8412500D02*
X9748500Y-8732500D01*
X9748500Y-8412500D02*
X9428500Y-8732500D01*
X9588500Y-8412500D02*
X9588500Y-8732500D01*
X9428500Y-8572500D02*
X9748500Y-8572500D01*
X13048000Y-5936000D02*
X13368000Y-6256000D01*
X13368000Y-5936000D02*
X13048000Y-6256000D01*
X13208000Y-5936000D02*
X13208000Y-6256000D01*
X13048000Y-6096000D02*
X13368000Y-6096000D01*
X13048000Y-11841500D02*
X13368000Y-12161500D01*
X13368000Y-11841500D02*
X13048000Y-12161500D01*
X13208000Y-11841500D02*
X13208000Y-12161500D01*
X13048000Y-12001500D02*
X13368000Y-12001500D01*
D11*
X7875777Y-12762484D02*
X7875777Y-12562484D01*
X7875777Y-12562484D02*
X7923396Y-12562484D01*
X7923396Y-12562484D02*
X7951967Y-12572008D01*
X7951967Y-12572008D02*
X7971015Y-12591055D01*
X7971015Y-12591055D02*
X7980539Y-12610103D01*
X7980539Y-12610103D02*
X7990062Y-12648198D01*
X7990062Y-12648198D02*
X7990062Y-12676769D01*
X7990062Y-12676769D02*
X7980539Y-12714865D01*
X7980539Y-12714865D02*
X7971015Y-12733912D01*
X7971015Y-12733912D02*
X7951967Y-12752960D01*
X7951967Y-12752960D02*
X7923396Y-12762484D01*
X7923396Y-12762484D02*
X7875777Y-12762484D01*
X8075777Y-12762484D02*
X8075777Y-12629150D01*
X8075777Y-12667246D02*
X8085301Y-12648198D01*
X8085301Y-12648198D02*
X8094824Y-12638674D01*
X8094824Y-12638674D02*
X8113872Y-12629150D01*
X8113872Y-12629150D02*
X8132920Y-12629150D01*
X8199586Y-12762484D02*
X8199586Y-12629150D01*
X8199586Y-12562484D02*
X8190062Y-12572008D01*
X8190062Y-12572008D02*
X8199586Y-12581531D01*
X8199586Y-12581531D02*
X8209110Y-12572008D01*
X8209110Y-12572008D02*
X8199586Y-12562484D01*
X8199586Y-12562484D02*
X8199586Y-12581531D01*
X8323396Y-12762484D02*
X8304348Y-12752960D01*
X8304348Y-12752960D02*
X8294824Y-12733912D01*
X8294824Y-12733912D02*
X8294824Y-12562484D01*
X8428158Y-12762484D02*
X8409110Y-12752960D01*
X8409110Y-12752960D02*
X8399586Y-12733912D01*
X8399586Y-12733912D02*
X8399586Y-12562484D01*
X8656729Y-12762484D02*
X8656729Y-12562484D01*
X8656729Y-12562484D02*
X8723396Y-12705341D01*
X8723396Y-12705341D02*
X8790063Y-12562484D01*
X8790063Y-12562484D02*
X8790063Y-12762484D01*
X8971015Y-12762484D02*
X8971015Y-12657722D01*
X8971015Y-12657722D02*
X8961491Y-12638674D01*
X8961491Y-12638674D02*
X8942444Y-12629150D01*
X8942444Y-12629150D02*
X8904348Y-12629150D01*
X8904348Y-12629150D02*
X8885301Y-12638674D01*
X8971015Y-12752960D02*
X8951967Y-12762484D01*
X8951967Y-12762484D02*
X8904348Y-12762484D01*
X8904348Y-12762484D02*
X8885301Y-12752960D01*
X8885301Y-12752960D02*
X8875777Y-12733912D01*
X8875777Y-12733912D02*
X8875777Y-12714865D01*
X8875777Y-12714865D02*
X8885301Y-12695817D01*
X8885301Y-12695817D02*
X8904348Y-12686293D01*
X8904348Y-12686293D02*
X8951967Y-12686293D01*
X8951967Y-12686293D02*
X8971015Y-12676769D01*
X9066253Y-12629150D02*
X9066253Y-12829150D01*
X9066253Y-12638674D02*
X9085301Y-12629150D01*
X9085301Y-12629150D02*
X9123396Y-12629150D01*
X9123396Y-12629150D02*
X9142444Y-12638674D01*
X9142444Y-12638674D02*
X9151967Y-12648198D01*
X9151967Y-12648198D02*
X9161491Y-12667246D01*
X9161491Y-12667246D02*
X9161491Y-12724388D01*
X9161491Y-12724388D02*
X9151967Y-12743436D01*
X9151967Y-12743436D02*
X9142444Y-12752960D01*
X9142444Y-12752960D02*
X9123396Y-12762484D01*
X9123396Y-12762484D02*
X9085301Y-12762484D01*
X9085301Y-12762484D02*
X9066253Y-12752960D01*
X9247205Y-12743436D02*
X9256729Y-12752960D01*
X9256729Y-12752960D02*
X9247205Y-12762484D01*
X9247205Y-12762484D02*
X9237682Y-12752960D01*
X9237682Y-12752960D02*
X9247205Y-12743436D01*
X9247205Y-12743436D02*
X9247205Y-12762484D01*
X9247205Y-12638674D02*
X9256729Y-12648198D01*
X9256729Y-12648198D02*
X9247205Y-12657722D01*
X9247205Y-12657722D02*
X9237682Y-12648198D01*
X9237682Y-12648198D02*
X9247205Y-12638674D01*
X9247205Y-12638674D02*
X9247205Y-12657722D01*
D10*
X7575000Y-13071000D02*
X7615000Y-13111000D01*
X7615000Y-13071000D02*
X7575000Y-13111000D01*
D11*
X7913872Y-12982484D02*
X7932920Y-12982484D01*
X7932920Y-12982484D02*
X7951967Y-12992008D01*
X7951967Y-12992008D02*
X7961491Y-13001531D01*
X7961491Y-13001531D02*
X7971015Y-13020579D01*
X7971015Y-13020579D02*
X7980539Y-13058674D01*
X7980539Y-13058674D02*
X7980539Y-13106293D01*
X7980539Y-13106293D02*
X7971015Y-13144388D01*
X7971015Y-13144388D02*
X7961491Y-13163436D01*
X7961491Y-13163436D02*
X7951967Y-13172960D01*
X7951967Y-13172960D02*
X7932920Y-13182484D01*
X7932920Y-13182484D02*
X7913872Y-13182484D01*
X7913872Y-13182484D02*
X7894824Y-13172960D01*
X7894824Y-13172960D02*
X7885301Y-13163436D01*
X7885301Y-13163436D02*
X7875777Y-13144388D01*
X7875777Y-13144388D02*
X7866253Y-13106293D01*
X7866253Y-13106293D02*
X7866253Y-13058674D01*
X7866253Y-13058674D02*
X7875777Y-13020579D01*
X7875777Y-13020579D02*
X7885301Y-13001531D01*
X7885301Y-13001531D02*
X7894824Y-12992008D01*
X7894824Y-12992008D02*
X7913872Y-12982484D01*
X8066253Y-13163436D02*
X8075777Y-13172960D01*
X8075777Y-13172960D02*
X8066253Y-13182484D01*
X8066253Y-13182484D02*
X8056729Y-13172960D01*
X8056729Y-13172960D02*
X8066253Y-13163436D01*
X8066253Y-13163436D02*
X8066253Y-13182484D01*
X8247205Y-13049150D02*
X8247205Y-13182484D01*
X8199586Y-12972960D02*
X8151967Y-13115817D01*
X8151967Y-13115817D02*
X8275777Y-13115817D01*
X8390063Y-12982484D02*
X8409110Y-12982484D01*
X8409110Y-12982484D02*
X8428158Y-12992008D01*
X8428158Y-12992008D02*
X8437682Y-13001531D01*
X8437682Y-13001531D02*
X8447205Y-13020579D01*
X8447205Y-13020579D02*
X8456729Y-13058674D01*
X8456729Y-13058674D02*
X8456729Y-13106293D01*
X8456729Y-13106293D02*
X8447205Y-13144388D01*
X8447205Y-13144388D02*
X8437682Y-13163436D01*
X8437682Y-13163436D02*
X8428158Y-13172960D01*
X8428158Y-13172960D02*
X8409110Y-13182484D01*
X8409110Y-13182484D02*
X8390063Y-13182484D01*
X8390063Y-13182484D02*
X8371015Y-13172960D01*
X8371015Y-13172960D02*
X8361491Y-13163436D01*
X8361491Y-13163436D02*
X8351967Y-13144388D01*
X8351967Y-13144388D02*
X8342443Y-13106293D01*
X8342443Y-13106293D02*
X8342443Y-13058674D01*
X8342443Y-13058674D02*
X8351967Y-13020579D01*
X8351967Y-13020579D02*
X8361491Y-13001531D01*
X8361491Y-13001531D02*
X8371015Y-12992008D01*
X8371015Y-12992008D02*
X8390063Y-12982484D01*
X8580539Y-12982484D02*
X8599586Y-12982484D01*
X8599586Y-12982484D02*
X8618634Y-12992008D01*
X8618634Y-12992008D02*
X8628158Y-13001531D01*
X8628158Y-13001531D02*
X8637682Y-13020579D01*
X8637682Y-13020579D02*
X8647205Y-13058674D01*
X8647205Y-13058674D02*
X8647205Y-13106293D01*
X8647205Y-13106293D02*
X8637682Y-13144388D01*
X8637682Y-13144388D02*
X8628158Y-13163436D01*
X8628158Y-13163436D02*
X8618634Y-13172960D01*
X8618634Y-13172960D02*
X8599586Y-13182484D01*
X8599586Y-13182484D02*
X8580539Y-13182484D01*
X8580539Y-13182484D02*
X8561491Y-13172960D01*
X8561491Y-13172960D02*
X8551967Y-13163436D01*
X8551967Y-13163436D02*
X8542444Y-13144388D01*
X8542444Y-13144388D02*
X8532920Y-13106293D01*
X8532920Y-13106293D02*
X8532920Y-13058674D01*
X8532920Y-13058674D02*
X8542444Y-13020579D01*
X8542444Y-13020579D02*
X8551967Y-13001531D01*
X8551967Y-13001531D02*
X8561491Y-12992008D01*
X8561491Y-12992008D02*
X8580539Y-12982484D01*
X8732920Y-13182484D02*
X8732920Y-13049150D01*
X8732920Y-13068198D02*
X8742444Y-13058674D01*
X8742444Y-13058674D02*
X8761491Y-13049150D01*
X8761491Y-13049150D02*
X8790063Y-13049150D01*
X8790063Y-13049150D02*
X8809110Y-13058674D01*
X8809110Y-13058674D02*
X8818634Y-13077722D01*
X8818634Y-13077722D02*
X8818634Y-13182484D01*
X8818634Y-13077722D02*
X8828158Y-13058674D01*
X8828158Y-13058674D02*
X8847205Y-13049150D01*
X8847205Y-13049150D02*
X8875777Y-13049150D01*
X8875777Y-13049150D02*
X8894825Y-13058674D01*
X8894825Y-13058674D02*
X8904348Y-13077722D01*
X8904348Y-13077722D02*
X8904348Y-13182484D01*
X8999586Y-13182484D02*
X8999586Y-13049150D01*
X8999586Y-13068198D02*
X9009110Y-13058674D01*
X9009110Y-13058674D02*
X9028158Y-13049150D01*
X9028158Y-13049150D02*
X9056729Y-13049150D01*
X9056729Y-13049150D02*
X9075777Y-13058674D01*
X9075777Y-13058674D02*
X9085301Y-13077722D01*
X9085301Y-13077722D02*
X9085301Y-13182484D01*
X9085301Y-13077722D02*
X9094825Y-13058674D01*
X9094825Y-13058674D02*
X9113872Y-13049150D01*
X9113872Y-13049150D02*
X9142444Y-13049150D01*
X9142444Y-13049150D02*
X9161491Y-13058674D01*
X9161491Y-13058674D02*
X9171015Y-13077722D01*
X9171015Y-13077722D02*
X9171015Y-13182484D01*
X9561491Y-12972960D02*
X9390063Y-13230103D01*
X9818634Y-12982484D02*
X9837682Y-12982484D01*
X9837682Y-12982484D02*
X9856729Y-12992008D01*
X9856729Y-12992008D02*
X9866253Y-13001531D01*
X9866253Y-13001531D02*
X9875777Y-13020579D01*
X9875777Y-13020579D02*
X9885301Y-13058674D01*
X9885301Y-13058674D02*
X9885301Y-13106293D01*
X9885301Y-13106293D02*
X9875777Y-13144388D01*
X9875777Y-13144388D02*
X9866253Y-13163436D01*
X9866253Y-13163436D02*
X9856729Y-13172960D01*
X9856729Y-13172960D02*
X9837682Y-13182484D01*
X9837682Y-13182484D02*
X9818634Y-13182484D01*
X9818634Y-13182484D02*
X9799587Y-13172960D01*
X9799587Y-13172960D02*
X9790063Y-13163436D01*
X9790063Y-13163436D02*
X9780539Y-13144388D01*
X9780539Y-13144388D02*
X9771015Y-13106293D01*
X9771015Y-13106293D02*
X9771015Y-13058674D01*
X9771015Y-13058674D02*
X9780539Y-13020579D01*
X9780539Y-13020579D02*
X9790063Y-13001531D01*
X9790063Y-13001531D02*
X9799587Y-12992008D01*
X9799587Y-12992008D02*
X9818634Y-12982484D01*
X9971015Y-13163436D02*
X9980539Y-13172960D01*
X9980539Y-13172960D02*
X9971015Y-13182484D01*
X9971015Y-13182484D02*
X9961491Y-13172960D01*
X9961491Y-13172960D02*
X9971015Y-13163436D01*
X9971015Y-13163436D02*
X9971015Y-13182484D01*
X10104348Y-12982484D02*
X10123396Y-12982484D01*
X10123396Y-12982484D02*
X10142444Y-12992008D01*
X10142444Y-12992008D02*
X10151968Y-13001531D01*
X10151968Y-13001531D02*
X10161491Y-13020579D01*
X10161491Y-13020579D02*
X10171015Y-13058674D01*
X10171015Y-13058674D02*
X10171015Y-13106293D01*
X10171015Y-13106293D02*
X10161491Y-13144388D01*
X10161491Y-13144388D02*
X10151968Y-13163436D01*
X10151968Y-13163436D02*
X10142444Y-13172960D01*
X10142444Y-13172960D02*
X10123396Y-13182484D01*
X10123396Y-13182484D02*
X10104348Y-13182484D01*
X10104348Y-13182484D02*
X10085301Y-13172960D01*
X10085301Y-13172960D02*
X10075777Y-13163436D01*
X10075777Y-13163436D02*
X10066253Y-13144388D01*
X10066253Y-13144388D02*
X10056729Y-13106293D01*
X10056729Y-13106293D02*
X10056729Y-13058674D01*
X10056729Y-13058674D02*
X10066253Y-13020579D01*
X10066253Y-13020579D02*
X10075777Y-13001531D01*
X10075777Y-13001531D02*
X10085301Y-12992008D01*
X10085301Y-12992008D02*
X10104348Y-12982484D01*
X10361491Y-13182484D02*
X10247206Y-13182484D01*
X10304348Y-13182484D02*
X10304348Y-12982484D01*
X10304348Y-12982484D02*
X10285301Y-13011055D01*
X10285301Y-13011055D02*
X10266253Y-13030103D01*
X10266253Y-13030103D02*
X10247206Y-13039627D01*
X10542444Y-12982484D02*
X10447206Y-12982484D01*
X10447206Y-12982484D02*
X10437682Y-13077722D01*
X10437682Y-13077722D02*
X10447206Y-13068198D01*
X10447206Y-13068198D02*
X10466253Y-13058674D01*
X10466253Y-13058674D02*
X10513872Y-13058674D01*
X10513872Y-13058674D02*
X10532920Y-13068198D01*
X10532920Y-13068198D02*
X10542444Y-13077722D01*
X10542444Y-13077722D02*
X10551968Y-13096769D01*
X10551968Y-13096769D02*
X10551968Y-13144388D01*
X10551968Y-13144388D02*
X10542444Y-13163436D01*
X10542444Y-13163436D02*
X10532920Y-13172960D01*
X10532920Y-13172960D02*
X10513872Y-13182484D01*
X10513872Y-13182484D02*
X10466253Y-13182484D01*
X10466253Y-13182484D02*
X10447206Y-13172960D01*
X10447206Y-13172960D02*
X10437682Y-13163436D01*
X10618634Y-12982484D02*
X10751968Y-12982484D01*
X10751968Y-12982484D02*
X10666253Y-13182484D01*
X10818634Y-12982484D02*
X10818634Y-13020579D01*
X10894825Y-12982484D02*
X10894825Y-13020579D01*
X11190063Y-13258674D02*
X11180539Y-13249150D01*
X11180539Y-13249150D02*
X11161491Y-13220579D01*
X11161491Y-13220579D02*
X11151968Y-13201531D01*
X11151968Y-13201531D02*
X11142444Y-13172960D01*
X11142444Y-13172960D02*
X11132920Y-13125341D01*
X11132920Y-13125341D02*
X11132920Y-13087246D01*
X11132920Y-13087246D02*
X11142444Y-13039627D01*
X11142444Y-13039627D02*
X11151968Y-13011055D01*
X11151968Y-13011055D02*
X11161491Y-12992008D01*
X11161491Y-12992008D02*
X11180539Y-12963436D01*
X11180539Y-12963436D02*
X11190063Y-12953912D01*
X11256729Y-13001531D02*
X11266253Y-12992008D01*
X11266253Y-12992008D02*
X11285301Y-12982484D01*
X11285301Y-12982484D02*
X11332920Y-12982484D01*
X11332920Y-12982484D02*
X11351968Y-12992008D01*
X11351968Y-12992008D02*
X11361491Y-13001531D01*
X11361491Y-13001531D02*
X11371015Y-13020579D01*
X11371015Y-13020579D02*
X11371015Y-13039627D01*
X11371015Y-13039627D02*
X11361491Y-13068198D01*
X11361491Y-13068198D02*
X11247206Y-13182484D01*
X11247206Y-13182484D02*
X11371015Y-13182484D01*
X11609110Y-13182484D02*
X11609110Y-12982484D01*
X11694825Y-13182484D02*
X11694825Y-13077722D01*
X11694825Y-13077722D02*
X11685301Y-13058674D01*
X11685301Y-13058674D02*
X11666253Y-13049150D01*
X11666253Y-13049150D02*
X11637682Y-13049150D01*
X11637682Y-13049150D02*
X11618634Y-13058674D01*
X11618634Y-13058674D02*
X11609110Y-13068198D01*
X11818634Y-13182484D02*
X11799587Y-13172960D01*
X11799587Y-13172960D02*
X11790063Y-13163436D01*
X11790063Y-13163436D02*
X11780539Y-13144388D01*
X11780539Y-13144388D02*
X11780539Y-13087246D01*
X11780539Y-13087246D02*
X11790063Y-13068198D01*
X11790063Y-13068198D02*
X11799587Y-13058674D01*
X11799587Y-13058674D02*
X11818634Y-13049150D01*
X11818634Y-13049150D02*
X11847206Y-13049150D01*
X11847206Y-13049150D02*
X11866253Y-13058674D01*
X11866253Y-13058674D02*
X11875777Y-13068198D01*
X11875777Y-13068198D02*
X11885301Y-13087246D01*
X11885301Y-13087246D02*
X11885301Y-13144388D01*
X11885301Y-13144388D02*
X11875777Y-13163436D01*
X11875777Y-13163436D02*
X11866253Y-13172960D01*
X11866253Y-13172960D02*
X11847206Y-13182484D01*
X11847206Y-13182484D02*
X11818634Y-13182484D01*
X11999587Y-13182484D02*
X11980539Y-13172960D01*
X11980539Y-13172960D02*
X11971015Y-13153912D01*
X11971015Y-13153912D02*
X11971015Y-12982484D01*
X12151968Y-13172960D02*
X12132920Y-13182484D01*
X12132920Y-13182484D02*
X12094825Y-13182484D01*
X12094825Y-13182484D02*
X12075777Y-13172960D01*
X12075777Y-13172960D02*
X12066253Y-13153912D01*
X12066253Y-13153912D02*
X12066253Y-13077722D01*
X12066253Y-13077722D02*
X12075777Y-13058674D01*
X12075777Y-13058674D02*
X12094825Y-13049150D01*
X12094825Y-13049150D02*
X12132920Y-13049150D01*
X12132920Y-13049150D02*
X12151968Y-13058674D01*
X12151968Y-13058674D02*
X12161491Y-13077722D01*
X12161491Y-13077722D02*
X12161491Y-13096769D01*
X12161491Y-13096769D02*
X12066253Y-13115817D01*
X12237682Y-13172960D02*
X12256730Y-13182484D01*
X12256730Y-13182484D02*
X12294825Y-13182484D01*
X12294825Y-13182484D02*
X12313872Y-13172960D01*
X12313872Y-13172960D02*
X12323396Y-13153912D01*
X12323396Y-13153912D02*
X12323396Y-13144388D01*
X12323396Y-13144388D02*
X12313872Y-13125341D01*
X12313872Y-13125341D02*
X12294825Y-13115817D01*
X12294825Y-13115817D02*
X12266253Y-13115817D01*
X12266253Y-13115817D02*
X12247206Y-13106293D01*
X12247206Y-13106293D02*
X12237682Y-13087246D01*
X12237682Y-13087246D02*
X12237682Y-13077722D01*
X12237682Y-13077722D02*
X12247206Y-13058674D01*
X12247206Y-13058674D02*
X12266253Y-13049150D01*
X12266253Y-13049150D02*
X12294825Y-13049150D01*
X12294825Y-13049150D02*
X12313872Y-13058674D01*
X12390063Y-13258674D02*
X12399587Y-13249150D01*
X12399587Y-13249150D02*
X12418634Y-13220579D01*
X12418634Y-13220579D02*
X12428158Y-13201531D01*
X12428158Y-13201531D02*
X12437682Y-13172960D01*
X12437682Y-13172960D02*
X12447206Y-13125341D01*
X12447206Y-13125341D02*
X12447206Y-13087246D01*
X12447206Y-13087246D02*
X12437682Y-13039627D01*
X12437682Y-13039627D02*
X12428158Y-13011055D01*
X12428158Y-13011055D02*
X12418634Y-12992008D01*
X12418634Y-12992008D02*
X12399587Y-12963436D01*
X12399587Y-12963436D02*
X12390063Y-12953912D01*
D12*
X7615000Y-13355000D02*
G75*
G02*
X7508000Y-13355000I-53500J0D01*
G01*
X7508000Y-13355000D02*
G75*
G02*
X7615000Y-13355000I53500J0D01*
G01*
D11*
X7980539Y-13446484D02*
X7866253Y-13446484D01*
X7923396Y-13446484D02*
X7923396Y-13246484D01*
X7923396Y-13246484D02*
X7904348Y-13275055D01*
X7904348Y-13275055D02*
X7885301Y-13294103D01*
X7885301Y-13294103D02*
X7866253Y-13303627D01*
X8066253Y-13427436D02*
X8075777Y-13436960D01*
X8075777Y-13436960D02*
X8066253Y-13446484D01*
X8066253Y-13446484D02*
X8056729Y-13436960D01*
X8056729Y-13436960D02*
X8066253Y-13427436D01*
X8066253Y-13427436D02*
X8066253Y-13446484D01*
X8199586Y-13246484D02*
X8218634Y-13246484D01*
X8218634Y-13246484D02*
X8237682Y-13256008D01*
X8237682Y-13256008D02*
X8247205Y-13265531D01*
X8247205Y-13265531D02*
X8256729Y-13284579D01*
X8256729Y-13284579D02*
X8266253Y-13322674D01*
X8266253Y-13322674D02*
X8266253Y-13370293D01*
X8266253Y-13370293D02*
X8256729Y-13408388D01*
X8256729Y-13408388D02*
X8247205Y-13427436D01*
X8247205Y-13427436D02*
X8237682Y-13436960D01*
X8237682Y-13436960D02*
X8218634Y-13446484D01*
X8218634Y-13446484D02*
X8199586Y-13446484D01*
X8199586Y-13446484D02*
X8180539Y-13436960D01*
X8180539Y-13436960D02*
X8171015Y-13427436D01*
X8171015Y-13427436D02*
X8161491Y-13408388D01*
X8161491Y-13408388D02*
X8151967Y-13370293D01*
X8151967Y-13370293D02*
X8151967Y-13322674D01*
X8151967Y-13322674D02*
X8161491Y-13284579D01*
X8161491Y-13284579D02*
X8171015Y-13265531D01*
X8171015Y-13265531D02*
X8180539Y-13256008D01*
X8180539Y-13256008D02*
X8199586Y-13246484D01*
X8332920Y-13246484D02*
X8466253Y-13246484D01*
X8466253Y-13246484D02*
X8380539Y-13446484D01*
X8580539Y-13246484D02*
X8599586Y-13246484D01*
X8599586Y-13246484D02*
X8618634Y-13256008D01*
X8618634Y-13256008D02*
X8628158Y-13265531D01*
X8628158Y-13265531D02*
X8637682Y-13284579D01*
X8637682Y-13284579D02*
X8647205Y-13322674D01*
X8647205Y-13322674D02*
X8647205Y-13370293D01*
X8647205Y-13370293D02*
X8637682Y-13408388D01*
X8637682Y-13408388D02*
X8628158Y-13427436D01*
X8628158Y-13427436D02*
X8618634Y-13436960D01*
X8618634Y-13436960D02*
X8599586Y-13446484D01*
X8599586Y-13446484D02*
X8580539Y-13446484D01*
X8580539Y-13446484D02*
X8561491Y-13436960D01*
X8561491Y-13436960D02*
X8551967Y-13427436D01*
X8551967Y-13427436D02*
X8542444Y-13408388D01*
X8542444Y-13408388D02*
X8532920Y-13370293D01*
X8532920Y-13370293D02*
X8532920Y-13322674D01*
X8532920Y-13322674D02*
X8542444Y-13284579D01*
X8542444Y-13284579D02*
X8551967Y-13265531D01*
X8551967Y-13265531D02*
X8561491Y-13256008D01*
X8561491Y-13256008D02*
X8580539Y-13246484D01*
X8732920Y-13446484D02*
X8732920Y-13313150D01*
X8732920Y-13332198D02*
X8742444Y-13322674D01*
X8742444Y-13322674D02*
X8761491Y-13313150D01*
X8761491Y-13313150D02*
X8790063Y-13313150D01*
X8790063Y-13313150D02*
X8809110Y-13322674D01*
X8809110Y-13322674D02*
X8818634Y-13341722D01*
X8818634Y-13341722D02*
X8818634Y-13446484D01*
X8818634Y-13341722D02*
X8828158Y-13322674D01*
X8828158Y-13322674D02*
X8847205Y-13313150D01*
X8847205Y-13313150D02*
X8875777Y-13313150D01*
X8875777Y-13313150D02*
X8894825Y-13322674D01*
X8894825Y-13322674D02*
X8904348Y-13341722D01*
X8904348Y-13341722D02*
X8904348Y-13446484D01*
X8999586Y-13446484D02*
X8999586Y-13313150D01*
X8999586Y-13332198D02*
X9009110Y-13322674D01*
X9009110Y-13322674D02*
X9028158Y-13313150D01*
X9028158Y-13313150D02*
X9056729Y-13313150D01*
X9056729Y-13313150D02*
X9075777Y-13322674D01*
X9075777Y-13322674D02*
X9085301Y-13341722D01*
X9085301Y-13341722D02*
X9085301Y-13446484D01*
X9085301Y-13341722D02*
X9094825Y-13322674D01*
X9094825Y-13322674D02*
X9113872Y-13313150D01*
X9113872Y-13313150D02*
X9142444Y-13313150D01*
X9142444Y-13313150D02*
X9161491Y-13322674D01*
X9161491Y-13322674D02*
X9171015Y-13341722D01*
X9171015Y-13341722D02*
X9171015Y-13446484D01*
X9561491Y-13236960D02*
X9390063Y-13494103D01*
X9818634Y-13246484D02*
X9837682Y-13246484D01*
X9837682Y-13246484D02*
X9856729Y-13256008D01*
X9856729Y-13256008D02*
X9866253Y-13265531D01*
X9866253Y-13265531D02*
X9875777Y-13284579D01*
X9875777Y-13284579D02*
X9885301Y-13322674D01*
X9885301Y-13322674D02*
X9885301Y-13370293D01*
X9885301Y-13370293D02*
X9875777Y-13408388D01*
X9875777Y-13408388D02*
X9866253Y-13427436D01*
X9866253Y-13427436D02*
X9856729Y-13436960D01*
X9856729Y-13436960D02*
X9837682Y-13446484D01*
X9837682Y-13446484D02*
X9818634Y-13446484D01*
X9818634Y-13446484D02*
X9799587Y-13436960D01*
X9799587Y-13436960D02*
X9790063Y-13427436D01*
X9790063Y-13427436D02*
X9780539Y-13408388D01*
X9780539Y-13408388D02*
X9771015Y-13370293D01*
X9771015Y-13370293D02*
X9771015Y-13322674D01*
X9771015Y-13322674D02*
X9780539Y-13284579D01*
X9780539Y-13284579D02*
X9790063Y-13265531D01*
X9790063Y-13265531D02*
X9799587Y-13256008D01*
X9799587Y-13256008D02*
X9818634Y-13246484D01*
X9971015Y-13427436D02*
X9980539Y-13436960D01*
X9980539Y-13436960D02*
X9971015Y-13446484D01*
X9971015Y-13446484D02*
X9961491Y-13436960D01*
X9961491Y-13436960D02*
X9971015Y-13427436D01*
X9971015Y-13427436D02*
X9971015Y-13446484D01*
X10104348Y-13246484D02*
X10123396Y-13246484D01*
X10123396Y-13246484D02*
X10142444Y-13256008D01*
X10142444Y-13256008D02*
X10151968Y-13265531D01*
X10151968Y-13265531D02*
X10161491Y-13284579D01*
X10161491Y-13284579D02*
X10171015Y-13322674D01*
X10171015Y-13322674D02*
X10171015Y-13370293D01*
X10171015Y-13370293D02*
X10161491Y-13408388D01*
X10161491Y-13408388D02*
X10151968Y-13427436D01*
X10151968Y-13427436D02*
X10142444Y-13436960D01*
X10142444Y-13436960D02*
X10123396Y-13446484D01*
X10123396Y-13446484D02*
X10104348Y-13446484D01*
X10104348Y-13446484D02*
X10085301Y-13436960D01*
X10085301Y-13436960D02*
X10075777Y-13427436D01*
X10075777Y-13427436D02*
X10066253Y-13408388D01*
X10066253Y-13408388D02*
X10056729Y-13370293D01*
X10056729Y-13370293D02*
X10056729Y-13322674D01*
X10056729Y-13322674D02*
X10066253Y-13284579D01*
X10066253Y-13284579D02*
X10075777Y-13265531D01*
X10075777Y-13265531D02*
X10085301Y-13256008D01*
X10085301Y-13256008D02*
X10104348Y-13246484D01*
X10342444Y-13313150D02*
X10342444Y-13446484D01*
X10294825Y-13236960D02*
X10247206Y-13379817D01*
X10247206Y-13379817D02*
X10371015Y-13379817D01*
X10437682Y-13265531D02*
X10447206Y-13256008D01*
X10447206Y-13256008D02*
X10466253Y-13246484D01*
X10466253Y-13246484D02*
X10513872Y-13246484D01*
X10513872Y-13246484D02*
X10532920Y-13256008D01*
X10532920Y-13256008D02*
X10542444Y-13265531D01*
X10542444Y-13265531D02*
X10551968Y-13284579D01*
X10551968Y-13284579D02*
X10551968Y-13303627D01*
X10551968Y-13303627D02*
X10542444Y-13332198D01*
X10542444Y-13332198D02*
X10428158Y-13446484D01*
X10428158Y-13446484D02*
X10551968Y-13446484D01*
X10742444Y-13446484D02*
X10628158Y-13446484D01*
X10685301Y-13446484D02*
X10685301Y-13246484D01*
X10685301Y-13246484D02*
X10666253Y-13275055D01*
X10666253Y-13275055D02*
X10647206Y-13294103D01*
X10647206Y-13294103D02*
X10628158Y-13303627D01*
X10818634Y-13246484D02*
X10818634Y-13284579D01*
X10894825Y-13246484D02*
X10894825Y-13284579D01*
X11190063Y-13522674D02*
X11180539Y-13513150D01*
X11180539Y-13513150D02*
X11161491Y-13484579D01*
X11161491Y-13484579D02*
X11151968Y-13465531D01*
X11151968Y-13465531D02*
X11142444Y-13436960D01*
X11142444Y-13436960D02*
X11132920Y-13389341D01*
X11132920Y-13389341D02*
X11132920Y-13351246D01*
X11132920Y-13351246D02*
X11142444Y-13303627D01*
X11142444Y-13303627D02*
X11151968Y-13275055D01*
X11151968Y-13275055D02*
X11161491Y-13256008D01*
X11161491Y-13256008D02*
X11180539Y-13227436D01*
X11180539Y-13227436D02*
X11190063Y-13217912D01*
X11247206Y-13246484D02*
X11371015Y-13246484D01*
X11371015Y-13246484D02*
X11304348Y-13322674D01*
X11304348Y-13322674D02*
X11332920Y-13322674D01*
X11332920Y-13322674D02*
X11351968Y-13332198D01*
X11351968Y-13332198D02*
X11361491Y-13341722D01*
X11361491Y-13341722D02*
X11371015Y-13360769D01*
X11371015Y-13360769D02*
X11371015Y-13408388D01*
X11371015Y-13408388D02*
X11361491Y-13427436D01*
X11361491Y-13427436D02*
X11351968Y-13436960D01*
X11351968Y-13436960D02*
X11332920Y-13446484D01*
X11332920Y-13446484D02*
X11275777Y-13446484D01*
X11275777Y-13446484D02*
X11256729Y-13436960D01*
X11256729Y-13436960D02*
X11247206Y-13427436D01*
X11609110Y-13446484D02*
X11609110Y-13246484D01*
X11694825Y-13446484D02*
X11694825Y-13341722D01*
X11694825Y-13341722D02*
X11685301Y-13322674D01*
X11685301Y-13322674D02*
X11666253Y-13313150D01*
X11666253Y-13313150D02*
X11637682Y-13313150D01*
X11637682Y-13313150D02*
X11618634Y-13322674D01*
X11618634Y-13322674D02*
X11609110Y-13332198D01*
X11818634Y-13446484D02*
X11799587Y-13436960D01*
X11799587Y-13436960D02*
X11790063Y-13427436D01*
X11790063Y-13427436D02*
X11780539Y-13408388D01*
X11780539Y-13408388D02*
X11780539Y-13351246D01*
X11780539Y-13351246D02*
X11790063Y-13332198D01*
X11790063Y-13332198D02*
X11799587Y-13322674D01*
X11799587Y-13322674D02*
X11818634Y-13313150D01*
X11818634Y-13313150D02*
X11847206Y-13313150D01*
X11847206Y-13313150D02*
X11866253Y-13322674D01*
X11866253Y-13322674D02*
X11875777Y-13332198D01*
X11875777Y-13332198D02*
X11885301Y-13351246D01*
X11885301Y-13351246D02*
X11885301Y-13408388D01*
X11885301Y-13408388D02*
X11875777Y-13427436D01*
X11875777Y-13427436D02*
X11866253Y-13436960D01*
X11866253Y-13436960D02*
X11847206Y-13446484D01*
X11847206Y-13446484D02*
X11818634Y-13446484D01*
X11999587Y-13446484D02*
X11980539Y-13436960D01*
X11980539Y-13436960D02*
X11971015Y-13417912D01*
X11971015Y-13417912D02*
X11971015Y-13246484D01*
X12151968Y-13436960D02*
X12132920Y-13446484D01*
X12132920Y-13446484D02*
X12094825Y-13446484D01*
X12094825Y-13446484D02*
X12075777Y-13436960D01*
X12075777Y-13436960D02*
X12066253Y-13417912D01*
X12066253Y-13417912D02*
X12066253Y-13341722D01*
X12066253Y-13341722D02*
X12075777Y-13322674D01*
X12075777Y-13322674D02*
X12094825Y-13313150D01*
X12094825Y-13313150D02*
X12132920Y-13313150D01*
X12132920Y-13313150D02*
X12151968Y-13322674D01*
X12151968Y-13322674D02*
X12161491Y-13341722D01*
X12161491Y-13341722D02*
X12161491Y-13360769D01*
X12161491Y-13360769D02*
X12066253Y-13379817D01*
X12237682Y-13436960D02*
X12256730Y-13446484D01*
X12256730Y-13446484D02*
X12294825Y-13446484D01*
X12294825Y-13446484D02*
X12313872Y-13436960D01*
X12313872Y-13436960D02*
X12323396Y-13417912D01*
X12323396Y-13417912D02*
X12323396Y-13408388D01*
X12323396Y-13408388D02*
X12313872Y-13389341D01*
X12313872Y-13389341D02*
X12294825Y-13379817D01*
X12294825Y-13379817D02*
X12266253Y-13379817D01*
X12266253Y-13379817D02*
X12247206Y-13370293D01*
X12247206Y-13370293D02*
X12237682Y-13351246D01*
X12237682Y-13351246D02*
X12237682Y-13341722D01*
X12237682Y-13341722D02*
X12247206Y-13322674D01*
X12247206Y-13322674D02*
X12266253Y-13313150D01*
X12266253Y-13313150D02*
X12294825Y-13313150D01*
X12294825Y-13313150D02*
X12313872Y-13322674D01*
X12390063Y-13522674D02*
X12399587Y-13513150D01*
X12399587Y-13513150D02*
X12418634Y-13484579D01*
X12418634Y-13484579D02*
X12428158Y-13465531D01*
X12428158Y-13465531D02*
X12437682Y-13436960D01*
X12437682Y-13436960D02*
X12447206Y-13389341D01*
X12447206Y-13389341D02*
X12447206Y-13351246D01*
X12447206Y-13351246D02*
X12437682Y-13303627D01*
X12437682Y-13303627D02*
X12428158Y-13275055D01*
X12428158Y-13275055D02*
X12418634Y-13256008D01*
X12418634Y-13256008D02*
X12399587Y-13227436D01*
X12399587Y-13227436D02*
X12390063Y-13217912D01*
D13*
X7560000Y-13564000D02*
X7560000Y-13674000D01*
X7505000Y-13619000D02*
X7615000Y-13619000D01*
D11*
X7980539Y-13710484D02*
X7866253Y-13710484D01*
X7923396Y-13710484D02*
X7923396Y-13510484D01*
X7923396Y-13510484D02*
X7904348Y-13539055D01*
X7904348Y-13539055D02*
X7885301Y-13558103D01*
X7885301Y-13558103D02*
X7866253Y-13567627D01*
X8066253Y-13691436D02*
X8075777Y-13700960D01*
X8075777Y-13700960D02*
X8066253Y-13710484D01*
X8066253Y-13710484D02*
X8056729Y-13700960D01*
X8056729Y-13700960D02*
X8066253Y-13691436D01*
X8066253Y-13691436D02*
X8066253Y-13710484D01*
X8266253Y-13710484D02*
X8151967Y-13710484D01*
X8209110Y-13710484D02*
X8209110Y-13510484D01*
X8209110Y-13510484D02*
X8190062Y-13539055D01*
X8190062Y-13539055D02*
X8171015Y-13558103D01*
X8171015Y-13558103D02*
X8151967Y-13567627D01*
X8390063Y-13510484D02*
X8409110Y-13510484D01*
X8409110Y-13510484D02*
X8428158Y-13520008D01*
X8428158Y-13520008D02*
X8437682Y-13529531D01*
X8437682Y-13529531D02*
X8447205Y-13548579D01*
X8447205Y-13548579D02*
X8456729Y-13586674D01*
X8456729Y-13586674D02*
X8456729Y-13634293D01*
X8456729Y-13634293D02*
X8447205Y-13672388D01*
X8447205Y-13672388D02*
X8437682Y-13691436D01*
X8437682Y-13691436D02*
X8428158Y-13700960D01*
X8428158Y-13700960D02*
X8409110Y-13710484D01*
X8409110Y-13710484D02*
X8390063Y-13710484D01*
X8390063Y-13710484D02*
X8371015Y-13700960D01*
X8371015Y-13700960D02*
X8361491Y-13691436D01*
X8361491Y-13691436D02*
X8351967Y-13672388D01*
X8351967Y-13672388D02*
X8342443Y-13634293D01*
X8342443Y-13634293D02*
X8342443Y-13586674D01*
X8342443Y-13586674D02*
X8351967Y-13548579D01*
X8351967Y-13548579D02*
X8361491Y-13529531D01*
X8361491Y-13529531D02*
X8371015Y-13520008D01*
X8371015Y-13520008D02*
X8390063Y-13510484D01*
X8580539Y-13510484D02*
X8599586Y-13510484D01*
X8599586Y-13510484D02*
X8618634Y-13520008D01*
X8618634Y-13520008D02*
X8628158Y-13529531D01*
X8628158Y-13529531D02*
X8637682Y-13548579D01*
X8637682Y-13548579D02*
X8647205Y-13586674D01*
X8647205Y-13586674D02*
X8647205Y-13634293D01*
X8647205Y-13634293D02*
X8637682Y-13672388D01*
X8637682Y-13672388D02*
X8628158Y-13691436D01*
X8628158Y-13691436D02*
X8618634Y-13700960D01*
X8618634Y-13700960D02*
X8599586Y-13710484D01*
X8599586Y-13710484D02*
X8580539Y-13710484D01*
X8580539Y-13710484D02*
X8561491Y-13700960D01*
X8561491Y-13700960D02*
X8551967Y-13691436D01*
X8551967Y-13691436D02*
X8542444Y-13672388D01*
X8542444Y-13672388D02*
X8532920Y-13634293D01*
X8532920Y-13634293D02*
X8532920Y-13586674D01*
X8532920Y-13586674D02*
X8542444Y-13548579D01*
X8542444Y-13548579D02*
X8551967Y-13529531D01*
X8551967Y-13529531D02*
X8561491Y-13520008D01*
X8561491Y-13520008D02*
X8580539Y-13510484D01*
X8732920Y-13710484D02*
X8732920Y-13577150D01*
X8732920Y-13596198D02*
X8742444Y-13586674D01*
X8742444Y-13586674D02*
X8761491Y-13577150D01*
X8761491Y-13577150D02*
X8790063Y-13577150D01*
X8790063Y-13577150D02*
X8809110Y-13586674D01*
X8809110Y-13586674D02*
X8818634Y-13605722D01*
X8818634Y-13605722D02*
X8818634Y-13710484D01*
X8818634Y-13605722D02*
X8828158Y-13586674D01*
X8828158Y-13586674D02*
X8847205Y-13577150D01*
X8847205Y-13577150D02*
X8875777Y-13577150D01*
X8875777Y-13577150D02*
X8894825Y-13586674D01*
X8894825Y-13586674D02*
X8904348Y-13605722D01*
X8904348Y-13605722D02*
X8904348Y-13710484D01*
X8999586Y-13710484D02*
X8999586Y-13577150D01*
X8999586Y-13596198D02*
X9009110Y-13586674D01*
X9009110Y-13586674D02*
X9028158Y-13577150D01*
X9028158Y-13577150D02*
X9056729Y-13577150D01*
X9056729Y-13577150D02*
X9075777Y-13586674D01*
X9075777Y-13586674D02*
X9085301Y-13605722D01*
X9085301Y-13605722D02*
X9085301Y-13710484D01*
X9085301Y-13605722D02*
X9094825Y-13586674D01*
X9094825Y-13586674D02*
X9113872Y-13577150D01*
X9113872Y-13577150D02*
X9142444Y-13577150D01*
X9142444Y-13577150D02*
X9161491Y-13586674D01*
X9161491Y-13586674D02*
X9171015Y-13605722D01*
X9171015Y-13605722D02*
X9171015Y-13710484D01*
X9561491Y-13500960D02*
X9390063Y-13758103D01*
X9818634Y-13510484D02*
X9837682Y-13510484D01*
X9837682Y-13510484D02*
X9856729Y-13520008D01*
X9856729Y-13520008D02*
X9866253Y-13529531D01*
X9866253Y-13529531D02*
X9875777Y-13548579D01*
X9875777Y-13548579D02*
X9885301Y-13586674D01*
X9885301Y-13586674D02*
X9885301Y-13634293D01*
X9885301Y-13634293D02*
X9875777Y-13672388D01*
X9875777Y-13672388D02*
X9866253Y-13691436D01*
X9866253Y-13691436D02*
X9856729Y-13700960D01*
X9856729Y-13700960D02*
X9837682Y-13710484D01*
X9837682Y-13710484D02*
X9818634Y-13710484D01*
X9818634Y-13710484D02*
X9799587Y-13700960D01*
X9799587Y-13700960D02*
X9790063Y-13691436D01*
X9790063Y-13691436D02*
X9780539Y-13672388D01*
X9780539Y-13672388D02*
X9771015Y-13634293D01*
X9771015Y-13634293D02*
X9771015Y-13586674D01*
X9771015Y-13586674D02*
X9780539Y-13548579D01*
X9780539Y-13548579D02*
X9790063Y-13529531D01*
X9790063Y-13529531D02*
X9799587Y-13520008D01*
X9799587Y-13520008D02*
X9818634Y-13510484D01*
X9971015Y-13691436D02*
X9980539Y-13700960D01*
X9980539Y-13700960D02*
X9971015Y-13710484D01*
X9971015Y-13710484D02*
X9961491Y-13700960D01*
X9961491Y-13700960D02*
X9971015Y-13691436D01*
X9971015Y-13691436D02*
X9971015Y-13710484D01*
X10104348Y-13510484D02*
X10123396Y-13510484D01*
X10123396Y-13510484D02*
X10142444Y-13520008D01*
X10142444Y-13520008D02*
X10151968Y-13529531D01*
X10151968Y-13529531D02*
X10161491Y-13548579D01*
X10161491Y-13548579D02*
X10171015Y-13586674D01*
X10171015Y-13586674D02*
X10171015Y-13634293D01*
X10171015Y-13634293D02*
X10161491Y-13672388D01*
X10161491Y-13672388D02*
X10151968Y-13691436D01*
X10151968Y-13691436D02*
X10142444Y-13700960D01*
X10142444Y-13700960D02*
X10123396Y-13710484D01*
X10123396Y-13710484D02*
X10104348Y-13710484D01*
X10104348Y-13710484D02*
X10085301Y-13700960D01*
X10085301Y-13700960D02*
X10075777Y-13691436D01*
X10075777Y-13691436D02*
X10066253Y-13672388D01*
X10066253Y-13672388D02*
X10056729Y-13634293D01*
X10056729Y-13634293D02*
X10056729Y-13586674D01*
X10056729Y-13586674D02*
X10066253Y-13548579D01*
X10066253Y-13548579D02*
X10075777Y-13529531D01*
X10075777Y-13529531D02*
X10085301Y-13520008D01*
X10085301Y-13520008D02*
X10104348Y-13510484D01*
X10342444Y-13577150D02*
X10342444Y-13710484D01*
X10294825Y-13500960D02*
X10247206Y-13643817D01*
X10247206Y-13643817D02*
X10371015Y-13643817D01*
X10428158Y-13510484D02*
X10551968Y-13510484D01*
X10551968Y-13510484D02*
X10485301Y-13586674D01*
X10485301Y-13586674D02*
X10513872Y-13586674D01*
X10513872Y-13586674D02*
X10532920Y-13596198D01*
X10532920Y-13596198D02*
X10542444Y-13605722D01*
X10542444Y-13605722D02*
X10551968Y-13624769D01*
X10551968Y-13624769D02*
X10551968Y-13672388D01*
X10551968Y-13672388D02*
X10542444Y-13691436D01*
X10542444Y-13691436D02*
X10532920Y-13700960D01*
X10532920Y-13700960D02*
X10513872Y-13710484D01*
X10513872Y-13710484D02*
X10456729Y-13710484D01*
X10456729Y-13710484D02*
X10437682Y-13700960D01*
X10437682Y-13700960D02*
X10428158Y-13691436D01*
X10618634Y-13510484D02*
X10742444Y-13510484D01*
X10742444Y-13510484D02*
X10675777Y-13586674D01*
X10675777Y-13586674D02*
X10704349Y-13586674D01*
X10704349Y-13586674D02*
X10723396Y-13596198D01*
X10723396Y-13596198D02*
X10732920Y-13605722D01*
X10732920Y-13605722D02*
X10742444Y-13624769D01*
X10742444Y-13624769D02*
X10742444Y-13672388D01*
X10742444Y-13672388D02*
X10732920Y-13691436D01*
X10732920Y-13691436D02*
X10723396Y-13700960D01*
X10723396Y-13700960D02*
X10704349Y-13710484D01*
X10704349Y-13710484D02*
X10647206Y-13710484D01*
X10647206Y-13710484D02*
X10628158Y-13700960D01*
X10628158Y-13700960D02*
X10618634Y-13691436D01*
X10818634Y-13510484D02*
X10818634Y-13548579D01*
X10894825Y-13510484D02*
X10894825Y-13548579D01*
X11190063Y-13786674D02*
X11180539Y-13777150D01*
X11180539Y-13777150D02*
X11161491Y-13748579D01*
X11161491Y-13748579D02*
X11151968Y-13729531D01*
X11151968Y-13729531D02*
X11142444Y-13700960D01*
X11142444Y-13700960D02*
X11132920Y-13653341D01*
X11132920Y-13653341D02*
X11132920Y-13615246D01*
X11132920Y-13615246D02*
X11142444Y-13567627D01*
X11142444Y-13567627D02*
X11151968Y-13539055D01*
X11151968Y-13539055D02*
X11161491Y-13520008D01*
X11161491Y-13520008D02*
X11180539Y-13491436D01*
X11180539Y-13491436D02*
X11190063Y-13481912D01*
X11361491Y-13510484D02*
X11266253Y-13510484D01*
X11266253Y-13510484D02*
X11256729Y-13605722D01*
X11256729Y-13605722D02*
X11266253Y-13596198D01*
X11266253Y-13596198D02*
X11285301Y-13586674D01*
X11285301Y-13586674D02*
X11332920Y-13586674D01*
X11332920Y-13586674D02*
X11351968Y-13596198D01*
X11351968Y-13596198D02*
X11361491Y-13605722D01*
X11361491Y-13605722D02*
X11371015Y-13624769D01*
X11371015Y-13624769D02*
X11371015Y-13672388D01*
X11371015Y-13672388D02*
X11361491Y-13691436D01*
X11361491Y-13691436D02*
X11351968Y-13700960D01*
X11351968Y-13700960D02*
X11332920Y-13710484D01*
X11332920Y-13710484D02*
X11285301Y-13710484D01*
X11285301Y-13710484D02*
X11266253Y-13700960D01*
X11266253Y-13700960D02*
X11256729Y-13691436D01*
X11609110Y-13710484D02*
X11609110Y-13510484D01*
X11694825Y-13710484D02*
X11694825Y-13605722D01*
X11694825Y-13605722D02*
X11685301Y-13586674D01*
X11685301Y-13586674D02*
X11666253Y-13577150D01*
X11666253Y-13577150D02*
X11637682Y-13577150D01*
X11637682Y-13577150D02*
X11618634Y-13586674D01*
X11618634Y-13586674D02*
X11609110Y-13596198D01*
X11818634Y-13710484D02*
X11799587Y-13700960D01*
X11799587Y-13700960D02*
X11790063Y-13691436D01*
X11790063Y-13691436D02*
X11780539Y-13672388D01*
X11780539Y-13672388D02*
X11780539Y-13615246D01*
X11780539Y-13615246D02*
X11790063Y-13596198D01*
X11790063Y-13596198D02*
X11799587Y-13586674D01*
X11799587Y-13586674D02*
X11818634Y-13577150D01*
X11818634Y-13577150D02*
X11847206Y-13577150D01*
X11847206Y-13577150D02*
X11866253Y-13586674D01*
X11866253Y-13586674D02*
X11875777Y-13596198D01*
X11875777Y-13596198D02*
X11885301Y-13615246D01*
X11885301Y-13615246D02*
X11885301Y-13672388D01*
X11885301Y-13672388D02*
X11875777Y-13691436D01*
X11875777Y-13691436D02*
X11866253Y-13700960D01*
X11866253Y-13700960D02*
X11847206Y-13710484D01*
X11847206Y-13710484D02*
X11818634Y-13710484D01*
X11999587Y-13710484D02*
X11980539Y-13700960D01*
X11980539Y-13700960D02*
X11971015Y-13681912D01*
X11971015Y-13681912D02*
X11971015Y-13510484D01*
X12151968Y-13700960D02*
X12132920Y-13710484D01*
X12132920Y-13710484D02*
X12094825Y-13710484D01*
X12094825Y-13710484D02*
X12075777Y-13700960D01*
X12075777Y-13700960D02*
X12066253Y-13681912D01*
X12066253Y-13681912D02*
X12066253Y-13605722D01*
X12066253Y-13605722D02*
X12075777Y-13586674D01*
X12075777Y-13586674D02*
X12094825Y-13577150D01*
X12094825Y-13577150D02*
X12132920Y-13577150D01*
X12132920Y-13577150D02*
X12151968Y-13586674D01*
X12151968Y-13586674D02*
X12161491Y-13605722D01*
X12161491Y-13605722D02*
X12161491Y-13624769D01*
X12161491Y-13624769D02*
X12066253Y-13643817D01*
X12237682Y-13700960D02*
X12256730Y-13710484D01*
X12256730Y-13710484D02*
X12294825Y-13710484D01*
X12294825Y-13710484D02*
X12313872Y-13700960D01*
X12313872Y-13700960D02*
X12323396Y-13681912D01*
X12323396Y-13681912D02*
X12323396Y-13672388D01*
X12323396Y-13672388D02*
X12313872Y-13653341D01*
X12313872Y-13653341D02*
X12294825Y-13643817D01*
X12294825Y-13643817D02*
X12266253Y-13643817D01*
X12266253Y-13643817D02*
X12247206Y-13634293D01*
X12247206Y-13634293D02*
X12237682Y-13615246D01*
X12237682Y-13615246D02*
X12237682Y-13605722D01*
X12237682Y-13605722D02*
X12247206Y-13586674D01*
X12247206Y-13586674D02*
X12266253Y-13577150D01*
X12266253Y-13577150D02*
X12294825Y-13577150D01*
X12294825Y-13577150D02*
X12313872Y-13586674D01*
X12390063Y-13786674D02*
X12399587Y-13777150D01*
X12399587Y-13777150D02*
X12418634Y-13748579D01*
X12418634Y-13748579D02*
X12428158Y-13729531D01*
X12428158Y-13729531D02*
X12437682Y-13700960D01*
X12437682Y-13700960D02*
X12447206Y-13653341D01*
X12447206Y-13653341D02*
X12447206Y-13615246D01*
X12447206Y-13615246D02*
X12437682Y-13567627D01*
X12437682Y-13567627D02*
X12428158Y-13539055D01*
X12428158Y-13539055D02*
X12418634Y-13520008D01*
X12418634Y-13520008D02*
X12399587Y-13491436D01*
X12399587Y-13491436D02*
X12390063Y-13481912D01*
D14*
X7597427Y-13925427D02*
X7597427Y-13840573D01*
X7512573Y-13840573D01*
X7512573Y-13925427D01*
X7597427Y-13925427D01*
D11*
X7980539Y-13974484D02*
X7866253Y-13974484D01*
X7923396Y-13974484D02*
X7923396Y-13774484D01*
X7923396Y-13774484D02*
X7904348Y-13803055D01*
X7904348Y-13803055D02*
X7885301Y-13822103D01*
X7885301Y-13822103D02*
X7866253Y-13831627D01*
X8066253Y-13955436D02*
X8075777Y-13964960D01*
X8075777Y-13964960D02*
X8066253Y-13974484D01*
X8066253Y-13974484D02*
X8056729Y-13964960D01*
X8056729Y-13964960D02*
X8066253Y-13955436D01*
X8066253Y-13955436D02*
X8066253Y-13974484D01*
X8151967Y-13793531D02*
X8161491Y-13784008D01*
X8161491Y-13784008D02*
X8180539Y-13774484D01*
X8180539Y-13774484D02*
X8228158Y-13774484D01*
X8228158Y-13774484D02*
X8247205Y-13784008D01*
X8247205Y-13784008D02*
X8256729Y-13793531D01*
X8256729Y-13793531D02*
X8266253Y-13812579D01*
X8266253Y-13812579D02*
X8266253Y-13831627D01*
X8266253Y-13831627D02*
X8256729Y-13860198D01*
X8256729Y-13860198D02*
X8142443Y-13974484D01*
X8142443Y-13974484D02*
X8266253Y-13974484D01*
X8390063Y-13774484D02*
X8409110Y-13774484D01*
X8409110Y-13774484D02*
X8428158Y-13784008D01*
X8428158Y-13784008D02*
X8437682Y-13793531D01*
X8437682Y-13793531D02*
X8447205Y-13812579D01*
X8447205Y-13812579D02*
X8456729Y-13850674D01*
X8456729Y-13850674D02*
X8456729Y-13898293D01*
X8456729Y-13898293D02*
X8447205Y-13936388D01*
X8447205Y-13936388D02*
X8437682Y-13955436D01*
X8437682Y-13955436D02*
X8428158Y-13964960D01*
X8428158Y-13964960D02*
X8409110Y-13974484D01*
X8409110Y-13974484D02*
X8390063Y-13974484D01*
X8390063Y-13974484D02*
X8371015Y-13964960D01*
X8371015Y-13964960D02*
X8361491Y-13955436D01*
X8361491Y-13955436D02*
X8351967Y-13936388D01*
X8351967Y-13936388D02*
X8342443Y-13898293D01*
X8342443Y-13898293D02*
X8342443Y-13850674D01*
X8342443Y-13850674D02*
X8351967Y-13812579D01*
X8351967Y-13812579D02*
X8361491Y-13793531D01*
X8361491Y-13793531D02*
X8371015Y-13784008D01*
X8371015Y-13784008D02*
X8390063Y-13774484D01*
X8580539Y-13774484D02*
X8599586Y-13774484D01*
X8599586Y-13774484D02*
X8618634Y-13784008D01*
X8618634Y-13784008D02*
X8628158Y-13793531D01*
X8628158Y-13793531D02*
X8637682Y-13812579D01*
X8637682Y-13812579D02*
X8647205Y-13850674D01*
X8647205Y-13850674D02*
X8647205Y-13898293D01*
X8647205Y-13898293D02*
X8637682Y-13936388D01*
X8637682Y-13936388D02*
X8628158Y-13955436D01*
X8628158Y-13955436D02*
X8618634Y-13964960D01*
X8618634Y-13964960D02*
X8599586Y-13974484D01*
X8599586Y-13974484D02*
X8580539Y-13974484D01*
X8580539Y-13974484D02*
X8561491Y-13964960D01*
X8561491Y-13964960D02*
X8551967Y-13955436D01*
X8551967Y-13955436D02*
X8542444Y-13936388D01*
X8542444Y-13936388D02*
X8532920Y-13898293D01*
X8532920Y-13898293D02*
X8532920Y-13850674D01*
X8532920Y-13850674D02*
X8542444Y-13812579D01*
X8542444Y-13812579D02*
X8551967Y-13793531D01*
X8551967Y-13793531D02*
X8561491Y-13784008D01*
X8561491Y-13784008D02*
X8580539Y-13774484D01*
X8732920Y-13974484D02*
X8732920Y-13841150D01*
X8732920Y-13860198D02*
X8742444Y-13850674D01*
X8742444Y-13850674D02*
X8761491Y-13841150D01*
X8761491Y-13841150D02*
X8790063Y-13841150D01*
X8790063Y-13841150D02*
X8809110Y-13850674D01*
X8809110Y-13850674D02*
X8818634Y-13869722D01*
X8818634Y-13869722D02*
X8818634Y-13974484D01*
X8818634Y-13869722D02*
X8828158Y-13850674D01*
X8828158Y-13850674D02*
X8847205Y-13841150D01*
X8847205Y-13841150D02*
X8875777Y-13841150D01*
X8875777Y-13841150D02*
X8894825Y-13850674D01*
X8894825Y-13850674D02*
X8904348Y-13869722D01*
X8904348Y-13869722D02*
X8904348Y-13974484D01*
X8999586Y-13974484D02*
X8999586Y-13841150D01*
X8999586Y-13860198D02*
X9009110Y-13850674D01*
X9009110Y-13850674D02*
X9028158Y-13841150D01*
X9028158Y-13841150D02*
X9056729Y-13841150D01*
X9056729Y-13841150D02*
X9075777Y-13850674D01*
X9075777Y-13850674D02*
X9085301Y-13869722D01*
X9085301Y-13869722D02*
X9085301Y-13974484D01*
X9085301Y-13869722D02*
X9094825Y-13850674D01*
X9094825Y-13850674D02*
X9113872Y-13841150D01*
X9113872Y-13841150D02*
X9142444Y-13841150D01*
X9142444Y-13841150D02*
X9161491Y-13850674D01*
X9161491Y-13850674D02*
X9171015Y-13869722D01*
X9171015Y-13869722D02*
X9171015Y-13974484D01*
X9561491Y-13764960D02*
X9390063Y-14022103D01*
X9818634Y-13774484D02*
X9837682Y-13774484D01*
X9837682Y-13774484D02*
X9856729Y-13784008D01*
X9856729Y-13784008D02*
X9866253Y-13793531D01*
X9866253Y-13793531D02*
X9875777Y-13812579D01*
X9875777Y-13812579D02*
X9885301Y-13850674D01*
X9885301Y-13850674D02*
X9885301Y-13898293D01*
X9885301Y-13898293D02*
X9875777Y-13936388D01*
X9875777Y-13936388D02*
X9866253Y-13955436D01*
X9866253Y-13955436D02*
X9856729Y-13964960D01*
X9856729Y-13964960D02*
X9837682Y-13974484D01*
X9837682Y-13974484D02*
X9818634Y-13974484D01*
X9818634Y-13974484D02*
X9799587Y-13964960D01*
X9799587Y-13964960D02*
X9790063Y-13955436D01*
X9790063Y-13955436D02*
X9780539Y-13936388D01*
X9780539Y-13936388D02*
X9771015Y-13898293D01*
X9771015Y-13898293D02*
X9771015Y-13850674D01*
X9771015Y-13850674D02*
X9780539Y-13812579D01*
X9780539Y-13812579D02*
X9790063Y-13793531D01*
X9790063Y-13793531D02*
X9799587Y-13784008D01*
X9799587Y-13784008D02*
X9818634Y-13774484D01*
X9971015Y-13955436D02*
X9980539Y-13964960D01*
X9980539Y-13964960D02*
X9971015Y-13974484D01*
X9971015Y-13974484D02*
X9961491Y-13964960D01*
X9961491Y-13964960D02*
X9971015Y-13955436D01*
X9971015Y-13955436D02*
X9971015Y-13974484D01*
X10104348Y-13774484D02*
X10123396Y-13774484D01*
X10123396Y-13774484D02*
X10142444Y-13784008D01*
X10142444Y-13784008D02*
X10151968Y-13793531D01*
X10151968Y-13793531D02*
X10161491Y-13812579D01*
X10161491Y-13812579D02*
X10171015Y-13850674D01*
X10171015Y-13850674D02*
X10171015Y-13898293D01*
X10171015Y-13898293D02*
X10161491Y-13936388D01*
X10161491Y-13936388D02*
X10151968Y-13955436D01*
X10151968Y-13955436D02*
X10142444Y-13964960D01*
X10142444Y-13964960D02*
X10123396Y-13974484D01*
X10123396Y-13974484D02*
X10104348Y-13974484D01*
X10104348Y-13974484D02*
X10085301Y-13964960D01*
X10085301Y-13964960D02*
X10075777Y-13955436D01*
X10075777Y-13955436D02*
X10066253Y-13936388D01*
X10066253Y-13936388D02*
X10056729Y-13898293D01*
X10056729Y-13898293D02*
X10056729Y-13850674D01*
X10056729Y-13850674D02*
X10066253Y-13812579D01*
X10066253Y-13812579D02*
X10075777Y-13793531D01*
X10075777Y-13793531D02*
X10085301Y-13784008D01*
X10085301Y-13784008D02*
X10104348Y-13774484D01*
X10342444Y-13841150D02*
X10342444Y-13974484D01*
X10294825Y-13764960D02*
X10247206Y-13907817D01*
X10247206Y-13907817D02*
X10371015Y-13907817D01*
X10428158Y-13774484D02*
X10561491Y-13774484D01*
X10561491Y-13774484D02*
X10475777Y-13974484D01*
X10628158Y-13793531D02*
X10637682Y-13784008D01*
X10637682Y-13784008D02*
X10656729Y-13774484D01*
X10656729Y-13774484D02*
X10704349Y-13774484D01*
X10704349Y-13774484D02*
X10723396Y-13784008D01*
X10723396Y-13784008D02*
X10732920Y-13793531D01*
X10732920Y-13793531D02*
X10742444Y-13812579D01*
X10742444Y-13812579D02*
X10742444Y-13831627D01*
X10742444Y-13831627D02*
X10732920Y-13860198D01*
X10732920Y-13860198D02*
X10618634Y-13974484D01*
X10618634Y-13974484D02*
X10742444Y-13974484D01*
X10818634Y-13774484D02*
X10818634Y-13812579D01*
X10894825Y-13774484D02*
X10894825Y-13812579D01*
X11190063Y-14050674D02*
X11180539Y-14041150D01*
X11180539Y-14041150D02*
X11161491Y-14012579D01*
X11161491Y-14012579D02*
X11151968Y-13993531D01*
X11151968Y-13993531D02*
X11142444Y-13964960D01*
X11142444Y-13964960D02*
X11132920Y-13917341D01*
X11132920Y-13917341D02*
X11132920Y-13879246D01*
X11132920Y-13879246D02*
X11142444Y-13831627D01*
X11142444Y-13831627D02*
X11151968Y-13803055D01*
X11151968Y-13803055D02*
X11161491Y-13784008D01*
X11161491Y-13784008D02*
X11180539Y-13755436D01*
X11180539Y-13755436D02*
X11190063Y-13745912D01*
X11256729Y-13793531D02*
X11266253Y-13784008D01*
X11266253Y-13784008D02*
X11285301Y-13774484D01*
X11285301Y-13774484D02*
X11332920Y-13774484D01*
X11332920Y-13774484D02*
X11351968Y-13784008D01*
X11351968Y-13784008D02*
X11361491Y-13793531D01*
X11361491Y-13793531D02*
X11371015Y-13812579D01*
X11371015Y-13812579D02*
X11371015Y-13831627D01*
X11371015Y-13831627D02*
X11361491Y-13860198D01*
X11361491Y-13860198D02*
X11247206Y-13974484D01*
X11247206Y-13974484D02*
X11371015Y-13974484D01*
X11609110Y-13974484D02*
X11609110Y-13774484D01*
X11694825Y-13974484D02*
X11694825Y-13869722D01*
X11694825Y-13869722D02*
X11685301Y-13850674D01*
X11685301Y-13850674D02*
X11666253Y-13841150D01*
X11666253Y-13841150D02*
X11637682Y-13841150D01*
X11637682Y-13841150D02*
X11618634Y-13850674D01*
X11618634Y-13850674D02*
X11609110Y-13860198D01*
X11818634Y-13974484D02*
X11799587Y-13964960D01*
X11799587Y-13964960D02*
X11790063Y-13955436D01*
X11790063Y-13955436D02*
X11780539Y-13936388D01*
X11780539Y-13936388D02*
X11780539Y-13879246D01*
X11780539Y-13879246D02*
X11790063Y-13860198D01*
X11790063Y-13860198D02*
X11799587Y-13850674D01*
X11799587Y-13850674D02*
X11818634Y-13841150D01*
X11818634Y-13841150D02*
X11847206Y-13841150D01*
X11847206Y-13841150D02*
X11866253Y-13850674D01*
X11866253Y-13850674D02*
X11875777Y-13860198D01*
X11875777Y-13860198D02*
X11885301Y-13879246D01*
X11885301Y-13879246D02*
X11885301Y-13936388D01*
X11885301Y-13936388D02*
X11875777Y-13955436D01*
X11875777Y-13955436D02*
X11866253Y-13964960D01*
X11866253Y-13964960D02*
X11847206Y-13974484D01*
X11847206Y-13974484D02*
X11818634Y-13974484D01*
X11999587Y-13974484D02*
X11980539Y-13964960D01*
X11980539Y-13964960D02*
X11971015Y-13945912D01*
X11971015Y-13945912D02*
X11971015Y-13774484D01*
X12151968Y-13964960D02*
X12132920Y-13974484D01*
X12132920Y-13974484D02*
X12094825Y-13974484D01*
X12094825Y-13974484D02*
X12075777Y-13964960D01*
X12075777Y-13964960D02*
X12066253Y-13945912D01*
X12066253Y-13945912D02*
X12066253Y-13869722D01*
X12066253Y-13869722D02*
X12075777Y-13850674D01*
X12075777Y-13850674D02*
X12094825Y-13841150D01*
X12094825Y-13841150D02*
X12132920Y-13841150D01*
X12132920Y-13841150D02*
X12151968Y-13850674D01*
X12151968Y-13850674D02*
X12161491Y-13869722D01*
X12161491Y-13869722D02*
X12161491Y-13888769D01*
X12161491Y-13888769D02*
X12066253Y-13907817D01*
X12237682Y-13964960D02*
X12256730Y-13974484D01*
X12256730Y-13974484D02*
X12294825Y-13974484D01*
X12294825Y-13974484D02*
X12313872Y-13964960D01*
X12313872Y-13964960D02*
X12323396Y-13945912D01*
X12323396Y-13945912D02*
X12323396Y-13936388D01*
X12323396Y-13936388D02*
X12313872Y-13917341D01*
X12313872Y-13917341D02*
X12294825Y-13907817D01*
X12294825Y-13907817D02*
X12266253Y-13907817D01*
X12266253Y-13907817D02*
X12247206Y-13898293D01*
X12247206Y-13898293D02*
X12237682Y-13879246D01*
X12237682Y-13879246D02*
X12237682Y-13869722D01*
X12237682Y-13869722D02*
X12247206Y-13850674D01*
X12247206Y-13850674D02*
X12266253Y-13841150D01*
X12266253Y-13841150D02*
X12294825Y-13841150D01*
X12294825Y-13841150D02*
X12313872Y-13850674D01*
X12390063Y-14050674D02*
X12399587Y-14041150D01*
X12399587Y-14041150D02*
X12418634Y-14012579D01*
X12418634Y-14012579D02*
X12428158Y-13993531D01*
X12428158Y-13993531D02*
X12437682Y-13964960D01*
X12437682Y-13964960D02*
X12447206Y-13917341D01*
X12447206Y-13917341D02*
X12447206Y-13879246D01*
X12447206Y-13879246D02*
X12437682Y-13831627D01*
X12437682Y-13831627D02*
X12428158Y-13803055D01*
X12428158Y-13803055D02*
X12418634Y-13784008D01*
X12418634Y-13784008D02*
X12399587Y-13755436D01*
X12399587Y-13755436D02*
X12390063Y-13745912D01*
D15*
X7540000Y-14222000D02*
X7615000Y-14147000D01*
X7540000Y-14072000D01*
X7465000Y-14147000D01*
X7540000Y-14222000D01*
D11*
X7980539Y-14238484D02*
X7866253Y-14238484D01*
X7923396Y-14238484D02*
X7923396Y-14038484D01*
X7923396Y-14038484D02*
X7904348Y-14067055D01*
X7904348Y-14067055D02*
X7885301Y-14086103D01*
X7885301Y-14086103D02*
X7866253Y-14095627D01*
X8066253Y-14219436D02*
X8075777Y-14228960D01*
X8075777Y-14228960D02*
X8066253Y-14238484D01*
X8066253Y-14238484D02*
X8056729Y-14228960D01*
X8056729Y-14228960D02*
X8066253Y-14219436D01*
X8066253Y-14219436D02*
X8066253Y-14238484D01*
X8256729Y-14038484D02*
X8161491Y-14038484D01*
X8161491Y-14038484D02*
X8151967Y-14133722D01*
X8151967Y-14133722D02*
X8161491Y-14124198D01*
X8161491Y-14124198D02*
X8180539Y-14114674D01*
X8180539Y-14114674D02*
X8228158Y-14114674D01*
X8228158Y-14114674D02*
X8247205Y-14124198D01*
X8247205Y-14124198D02*
X8256729Y-14133722D01*
X8256729Y-14133722D02*
X8266253Y-14152769D01*
X8266253Y-14152769D02*
X8266253Y-14200388D01*
X8266253Y-14200388D02*
X8256729Y-14219436D01*
X8256729Y-14219436D02*
X8247205Y-14228960D01*
X8247205Y-14228960D02*
X8228158Y-14238484D01*
X8228158Y-14238484D02*
X8180539Y-14238484D01*
X8180539Y-14238484D02*
X8161491Y-14228960D01*
X8161491Y-14228960D02*
X8151967Y-14219436D01*
X8390063Y-14038484D02*
X8409110Y-14038484D01*
X8409110Y-14038484D02*
X8428158Y-14048008D01*
X8428158Y-14048008D02*
X8437682Y-14057531D01*
X8437682Y-14057531D02*
X8447205Y-14076579D01*
X8447205Y-14076579D02*
X8456729Y-14114674D01*
X8456729Y-14114674D02*
X8456729Y-14162293D01*
X8456729Y-14162293D02*
X8447205Y-14200388D01*
X8447205Y-14200388D02*
X8437682Y-14219436D01*
X8437682Y-14219436D02*
X8428158Y-14228960D01*
X8428158Y-14228960D02*
X8409110Y-14238484D01*
X8409110Y-14238484D02*
X8390063Y-14238484D01*
X8390063Y-14238484D02*
X8371015Y-14228960D01*
X8371015Y-14228960D02*
X8361491Y-14219436D01*
X8361491Y-14219436D02*
X8351967Y-14200388D01*
X8351967Y-14200388D02*
X8342443Y-14162293D01*
X8342443Y-14162293D02*
X8342443Y-14114674D01*
X8342443Y-14114674D02*
X8351967Y-14076579D01*
X8351967Y-14076579D02*
X8361491Y-14057531D01*
X8361491Y-14057531D02*
X8371015Y-14048008D01*
X8371015Y-14048008D02*
X8390063Y-14038484D01*
X8580539Y-14038484D02*
X8599586Y-14038484D01*
X8599586Y-14038484D02*
X8618634Y-14048008D01*
X8618634Y-14048008D02*
X8628158Y-14057531D01*
X8628158Y-14057531D02*
X8637682Y-14076579D01*
X8637682Y-14076579D02*
X8647205Y-14114674D01*
X8647205Y-14114674D02*
X8647205Y-14162293D01*
X8647205Y-14162293D02*
X8637682Y-14200388D01*
X8637682Y-14200388D02*
X8628158Y-14219436D01*
X8628158Y-14219436D02*
X8618634Y-14228960D01*
X8618634Y-14228960D02*
X8599586Y-14238484D01*
X8599586Y-14238484D02*
X8580539Y-14238484D01*
X8580539Y-14238484D02*
X8561491Y-14228960D01*
X8561491Y-14228960D02*
X8551967Y-14219436D01*
X8551967Y-14219436D02*
X8542444Y-14200388D01*
X8542444Y-14200388D02*
X8532920Y-14162293D01*
X8532920Y-14162293D02*
X8532920Y-14114674D01*
X8532920Y-14114674D02*
X8542444Y-14076579D01*
X8542444Y-14076579D02*
X8551967Y-14057531D01*
X8551967Y-14057531D02*
X8561491Y-14048008D01*
X8561491Y-14048008D02*
X8580539Y-14038484D01*
X8732920Y-14238484D02*
X8732920Y-14105150D01*
X8732920Y-14124198D02*
X8742444Y-14114674D01*
X8742444Y-14114674D02*
X8761491Y-14105150D01*
X8761491Y-14105150D02*
X8790063Y-14105150D01*
X8790063Y-14105150D02*
X8809110Y-14114674D01*
X8809110Y-14114674D02*
X8818634Y-14133722D01*
X8818634Y-14133722D02*
X8818634Y-14238484D01*
X8818634Y-14133722D02*
X8828158Y-14114674D01*
X8828158Y-14114674D02*
X8847205Y-14105150D01*
X8847205Y-14105150D02*
X8875777Y-14105150D01*
X8875777Y-14105150D02*
X8894825Y-14114674D01*
X8894825Y-14114674D02*
X8904348Y-14133722D01*
X8904348Y-14133722D02*
X8904348Y-14238484D01*
X8999586Y-14238484D02*
X8999586Y-14105150D01*
X8999586Y-14124198D02*
X9009110Y-14114674D01*
X9009110Y-14114674D02*
X9028158Y-14105150D01*
X9028158Y-14105150D02*
X9056729Y-14105150D01*
X9056729Y-14105150D02*
X9075777Y-14114674D01*
X9075777Y-14114674D02*
X9085301Y-14133722D01*
X9085301Y-14133722D02*
X9085301Y-14238484D01*
X9085301Y-14133722D02*
X9094825Y-14114674D01*
X9094825Y-14114674D02*
X9113872Y-14105150D01*
X9113872Y-14105150D02*
X9142444Y-14105150D01*
X9142444Y-14105150D02*
X9161491Y-14114674D01*
X9161491Y-14114674D02*
X9171015Y-14133722D01*
X9171015Y-14133722D02*
X9171015Y-14238484D01*
X9561491Y-14028960D02*
X9390063Y-14286103D01*
X9818634Y-14038484D02*
X9837682Y-14038484D01*
X9837682Y-14038484D02*
X9856729Y-14048008D01*
X9856729Y-14048008D02*
X9866253Y-14057531D01*
X9866253Y-14057531D02*
X9875777Y-14076579D01*
X9875777Y-14076579D02*
X9885301Y-14114674D01*
X9885301Y-14114674D02*
X9885301Y-14162293D01*
X9885301Y-14162293D02*
X9875777Y-14200388D01*
X9875777Y-14200388D02*
X9866253Y-14219436D01*
X9866253Y-14219436D02*
X9856729Y-14228960D01*
X9856729Y-14228960D02*
X9837682Y-14238484D01*
X9837682Y-14238484D02*
X9818634Y-14238484D01*
X9818634Y-14238484D02*
X9799587Y-14228960D01*
X9799587Y-14228960D02*
X9790063Y-14219436D01*
X9790063Y-14219436D02*
X9780539Y-14200388D01*
X9780539Y-14200388D02*
X9771015Y-14162293D01*
X9771015Y-14162293D02*
X9771015Y-14114674D01*
X9771015Y-14114674D02*
X9780539Y-14076579D01*
X9780539Y-14076579D02*
X9790063Y-14057531D01*
X9790063Y-14057531D02*
X9799587Y-14048008D01*
X9799587Y-14048008D02*
X9818634Y-14038484D01*
X9971015Y-14219436D02*
X9980539Y-14228960D01*
X9980539Y-14228960D02*
X9971015Y-14238484D01*
X9971015Y-14238484D02*
X9961491Y-14228960D01*
X9961491Y-14228960D02*
X9971015Y-14219436D01*
X9971015Y-14219436D02*
X9971015Y-14238484D01*
X10104348Y-14038484D02*
X10123396Y-14038484D01*
X10123396Y-14038484D02*
X10142444Y-14048008D01*
X10142444Y-14048008D02*
X10151968Y-14057531D01*
X10151968Y-14057531D02*
X10161491Y-14076579D01*
X10161491Y-14076579D02*
X10171015Y-14114674D01*
X10171015Y-14114674D02*
X10171015Y-14162293D01*
X10171015Y-14162293D02*
X10161491Y-14200388D01*
X10161491Y-14200388D02*
X10151968Y-14219436D01*
X10151968Y-14219436D02*
X10142444Y-14228960D01*
X10142444Y-14228960D02*
X10123396Y-14238484D01*
X10123396Y-14238484D02*
X10104348Y-14238484D01*
X10104348Y-14238484D02*
X10085301Y-14228960D01*
X10085301Y-14228960D02*
X10075777Y-14219436D01*
X10075777Y-14219436D02*
X10066253Y-14200388D01*
X10066253Y-14200388D02*
X10056729Y-14162293D01*
X10056729Y-14162293D02*
X10056729Y-14114674D01*
X10056729Y-14114674D02*
X10066253Y-14076579D01*
X10066253Y-14076579D02*
X10075777Y-14057531D01*
X10075777Y-14057531D02*
X10085301Y-14048008D01*
X10085301Y-14048008D02*
X10104348Y-14038484D01*
X10351968Y-14038484D02*
X10256729Y-14038484D01*
X10256729Y-14038484D02*
X10247206Y-14133722D01*
X10247206Y-14133722D02*
X10256729Y-14124198D01*
X10256729Y-14124198D02*
X10275777Y-14114674D01*
X10275777Y-14114674D02*
X10323396Y-14114674D01*
X10323396Y-14114674D02*
X10342444Y-14124198D01*
X10342444Y-14124198D02*
X10351968Y-14133722D01*
X10351968Y-14133722D02*
X10361491Y-14152769D01*
X10361491Y-14152769D02*
X10361491Y-14200388D01*
X10361491Y-14200388D02*
X10351968Y-14219436D01*
X10351968Y-14219436D02*
X10342444Y-14228960D01*
X10342444Y-14228960D02*
X10323396Y-14238484D01*
X10323396Y-14238484D02*
X10275777Y-14238484D01*
X10275777Y-14238484D02*
X10256729Y-14228960D01*
X10256729Y-14228960D02*
X10247206Y-14219436D01*
X10456729Y-14238484D02*
X10494825Y-14238484D01*
X10494825Y-14238484D02*
X10513872Y-14228960D01*
X10513872Y-14228960D02*
X10523396Y-14219436D01*
X10523396Y-14219436D02*
X10542444Y-14190865D01*
X10542444Y-14190865D02*
X10551968Y-14152769D01*
X10551968Y-14152769D02*
X10551968Y-14076579D01*
X10551968Y-14076579D02*
X10542444Y-14057531D01*
X10542444Y-14057531D02*
X10532920Y-14048008D01*
X10532920Y-14048008D02*
X10513872Y-14038484D01*
X10513872Y-14038484D02*
X10475777Y-14038484D01*
X10475777Y-14038484D02*
X10456729Y-14048008D01*
X10456729Y-14048008D02*
X10447206Y-14057531D01*
X10447206Y-14057531D02*
X10437682Y-14076579D01*
X10437682Y-14076579D02*
X10437682Y-14124198D01*
X10437682Y-14124198D02*
X10447206Y-14143246D01*
X10447206Y-14143246D02*
X10456729Y-14152769D01*
X10456729Y-14152769D02*
X10475777Y-14162293D01*
X10475777Y-14162293D02*
X10513872Y-14162293D01*
X10513872Y-14162293D02*
X10532920Y-14152769D01*
X10532920Y-14152769D02*
X10542444Y-14143246D01*
X10542444Y-14143246D02*
X10551968Y-14124198D01*
X10742444Y-14238484D02*
X10628158Y-14238484D01*
X10685301Y-14238484D02*
X10685301Y-14038484D01*
X10685301Y-14038484D02*
X10666253Y-14067055D01*
X10666253Y-14067055D02*
X10647206Y-14086103D01*
X10647206Y-14086103D02*
X10628158Y-14095627D01*
X10818634Y-14038484D02*
X10818634Y-14076579D01*
X10894825Y-14038484D02*
X10894825Y-14076579D01*
X11190063Y-14314674D02*
X11180539Y-14305150D01*
X11180539Y-14305150D02*
X11161491Y-14276579D01*
X11161491Y-14276579D02*
X11151968Y-14257531D01*
X11151968Y-14257531D02*
X11142444Y-14228960D01*
X11142444Y-14228960D02*
X11132920Y-14181341D01*
X11132920Y-14181341D02*
X11132920Y-14143246D01*
X11132920Y-14143246D02*
X11142444Y-14095627D01*
X11142444Y-14095627D02*
X11151968Y-14067055D01*
X11151968Y-14067055D02*
X11161491Y-14048008D01*
X11161491Y-14048008D02*
X11180539Y-14019436D01*
X11180539Y-14019436D02*
X11190063Y-14009912D01*
X11256729Y-14057531D02*
X11266253Y-14048008D01*
X11266253Y-14048008D02*
X11285301Y-14038484D01*
X11285301Y-14038484D02*
X11332920Y-14038484D01*
X11332920Y-14038484D02*
X11351968Y-14048008D01*
X11351968Y-14048008D02*
X11361491Y-14057531D01*
X11361491Y-14057531D02*
X11371015Y-14076579D01*
X11371015Y-14076579D02*
X11371015Y-14095627D01*
X11371015Y-14095627D02*
X11361491Y-14124198D01*
X11361491Y-14124198D02*
X11247206Y-14238484D01*
X11247206Y-14238484D02*
X11371015Y-14238484D01*
X11609110Y-14238484D02*
X11609110Y-14038484D01*
X11694825Y-14238484D02*
X11694825Y-14133722D01*
X11694825Y-14133722D02*
X11685301Y-14114674D01*
X11685301Y-14114674D02*
X11666253Y-14105150D01*
X11666253Y-14105150D02*
X11637682Y-14105150D01*
X11637682Y-14105150D02*
X11618634Y-14114674D01*
X11618634Y-14114674D02*
X11609110Y-14124198D01*
X11818634Y-14238484D02*
X11799587Y-14228960D01*
X11799587Y-14228960D02*
X11790063Y-14219436D01*
X11790063Y-14219436D02*
X11780539Y-14200388D01*
X11780539Y-14200388D02*
X11780539Y-14143246D01*
X11780539Y-14143246D02*
X11790063Y-14124198D01*
X11790063Y-14124198D02*
X11799587Y-14114674D01*
X11799587Y-14114674D02*
X11818634Y-14105150D01*
X11818634Y-14105150D02*
X11847206Y-14105150D01*
X11847206Y-14105150D02*
X11866253Y-14114674D01*
X11866253Y-14114674D02*
X11875777Y-14124198D01*
X11875777Y-14124198D02*
X11885301Y-14143246D01*
X11885301Y-14143246D02*
X11885301Y-14200388D01*
X11885301Y-14200388D02*
X11875777Y-14219436D01*
X11875777Y-14219436D02*
X11866253Y-14228960D01*
X11866253Y-14228960D02*
X11847206Y-14238484D01*
X11847206Y-14238484D02*
X11818634Y-14238484D01*
X11999587Y-14238484D02*
X11980539Y-14228960D01*
X11980539Y-14228960D02*
X11971015Y-14209912D01*
X11971015Y-14209912D02*
X11971015Y-14038484D01*
X12151968Y-14228960D02*
X12132920Y-14238484D01*
X12132920Y-14238484D02*
X12094825Y-14238484D01*
X12094825Y-14238484D02*
X12075777Y-14228960D01*
X12075777Y-14228960D02*
X12066253Y-14209912D01*
X12066253Y-14209912D02*
X12066253Y-14133722D01*
X12066253Y-14133722D02*
X12075777Y-14114674D01*
X12075777Y-14114674D02*
X12094825Y-14105150D01*
X12094825Y-14105150D02*
X12132920Y-14105150D01*
X12132920Y-14105150D02*
X12151968Y-14114674D01*
X12151968Y-14114674D02*
X12161491Y-14133722D01*
X12161491Y-14133722D02*
X12161491Y-14152769D01*
X12161491Y-14152769D02*
X12066253Y-14171817D01*
X12237682Y-14228960D02*
X12256730Y-14238484D01*
X12256730Y-14238484D02*
X12294825Y-14238484D01*
X12294825Y-14238484D02*
X12313872Y-14228960D01*
X12313872Y-14228960D02*
X12323396Y-14209912D01*
X12323396Y-14209912D02*
X12323396Y-14200388D01*
X12323396Y-14200388D02*
X12313872Y-14181341D01*
X12313872Y-14181341D02*
X12294825Y-14171817D01*
X12294825Y-14171817D02*
X12266253Y-14171817D01*
X12266253Y-14171817D02*
X12247206Y-14162293D01*
X12247206Y-14162293D02*
X12237682Y-14143246D01*
X12237682Y-14143246D02*
X12237682Y-14133722D01*
X12237682Y-14133722D02*
X12247206Y-14114674D01*
X12247206Y-14114674D02*
X12266253Y-14105150D01*
X12266253Y-14105150D02*
X12294825Y-14105150D01*
X12294825Y-14105150D02*
X12313872Y-14114674D01*
X12390063Y-14314674D02*
X12399587Y-14305150D01*
X12399587Y-14305150D02*
X12418634Y-14276579D01*
X12418634Y-14276579D02*
X12428158Y-14257531D01*
X12428158Y-14257531D02*
X12437682Y-14228960D01*
X12437682Y-14228960D02*
X12447206Y-14181341D01*
X12447206Y-14181341D02*
X12447206Y-14143246D01*
X12447206Y-14143246D02*
X12437682Y-14095627D01*
X12437682Y-14095627D02*
X12428158Y-14067055D01*
X12428158Y-14067055D02*
X12418634Y-14048008D01*
X12418634Y-14048008D02*
X12399587Y-14019436D01*
X12399587Y-14019436D02*
X12390063Y-14009912D01*
X7415000Y-14317000D02*
X7615000Y-14517000D01*
X7615000Y-14317000D02*
X7415000Y-14517000D01*
X7615000Y-14417000D02*
G75*
G02*
X7415000Y-14417000I-100000J0D01*
G01*
X7415000Y-14417000D02*
G75*
G02*
X7615000Y-14417000I100000J0D01*
G01*
X7856729Y-14308484D02*
X7980539Y-14308484D01*
X7980539Y-14308484D02*
X7913872Y-14384674D01*
X7913872Y-14384674D02*
X7942443Y-14384674D01*
X7942443Y-14384674D02*
X7961491Y-14394198D01*
X7961491Y-14394198D02*
X7971015Y-14403722D01*
X7971015Y-14403722D02*
X7980539Y-14422769D01*
X7980539Y-14422769D02*
X7980539Y-14470388D01*
X7980539Y-14470388D02*
X7971015Y-14489436D01*
X7971015Y-14489436D02*
X7961491Y-14498960D01*
X7961491Y-14498960D02*
X7942443Y-14508484D01*
X7942443Y-14508484D02*
X7885301Y-14508484D01*
X7885301Y-14508484D02*
X7866253Y-14498960D01*
X7866253Y-14498960D02*
X7856729Y-14489436D01*
X8066253Y-14489436D02*
X8075777Y-14498960D01*
X8075777Y-14498960D02*
X8066253Y-14508484D01*
X8066253Y-14508484D02*
X8056729Y-14498960D01*
X8056729Y-14498960D02*
X8066253Y-14489436D01*
X8066253Y-14489436D02*
X8066253Y-14508484D01*
X8199586Y-14308484D02*
X8218634Y-14308484D01*
X8218634Y-14308484D02*
X8237682Y-14318008D01*
X8237682Y-14318008D02*
X8247205Y-14327531D01*
X8247205Y-14327531D02*
X8256729Y-14346579D01*
X8256729Y-14346579D02*
X8266253Y-14384674D01*
X8266253Y-14384674D02*
X8266253Y-14432293D01*
X8266253Y-14432293D02*
X8256729Y-14470388D01*
X8256729Y-14470388D02*
X8247205Y-14489436D01*
X8247205Y-14489436D02*
X8237682Y-14498960D01*
X8237682Y-14498960D02*
X8218634Y-14508484D01*
X8218634Y-14508484D02*
X8199586Y-14508484D01*
X8199586Y-14508484D02*
X8180539Y-14498960D01*
X8180539Y-14498960D02*
X8171015Y-14489436D01*
X8171015Y-14489436D02*
X8161491Y-14470388D01*
X8161491Y-14470388D02*
X8151967Y-14432293D01*
X8151967Y-14432293D02*
X8151967Y-14384674D01*
X8151967Y-14384674D02*
X8161491Y-14346579D01*
X8161491Y-14346579D02*
X8171015Y-14327531D01*
X8171015Y-14327531D02*
X8180539Y-14318008D01*
X8180539Y-14318008D02*
X8199586Y-14308484D01*
X8390063Y-14308484D02*
X8409110Y-14308484D01*
X8409110Y-14308484D02*
X8428158Y-14318008D01*
X8428158Y-14318008D02*
X8437682Y-14327531D01*
X8437682Y-14327531D02*
X8447205Y-14346579D01*
X8447205Y-14346579D02*
X8456729Y-14384674D01*
X8456729Y-14384674D02*
X8456729Y-14432293D01*
X8456729Y-14432293D02*
X8447205Y-14470388D01*
X8447205Y-14470388D02*
X8437682Y-14489436D01*
X8437682Y-14489436D02*
X8428158Y-14498960D01*
X8428158Y-14498960D02*
X8409110Y-14508484D01*
X8409110Y-14508484D02*
X8390063Y-14508484D01*
X8390063Y-14508484D02*
X8371015Y-14498960D01*
X8371015Y-14498960D02*
X8361491Y-14489436D01*
X8361491Y-14489436D02*
X8351967Y-14470388D01*
X8351967Y-14470388D02*
X8342443Y-14432293D01*
X8342443Y-14432293D02*
X8342443Y-14384674D01*
X8342443Y-14384674D02*
X8351967Y-14346579D01*
X8351967Y-14346579D02*
X8361491Y-14327531D01*
X8361491Y-14327531D02*
X8371015Y-14318008D01*
X8371015Y-14318008D02*
X8390063Y-14308484D01*
X8580539Y-14308484D02*
X8599586Y-14308484D01*
X8599586Y-14308484D02*
X8618634Y-14318008D01*
X8618634Y-14318008D02*
X8628158Y-14327531D01*
X8628158Y-14327531D02*
X8637682Y-14346579D01*
X8637682Y-14346579D02*
X8647205Y-14384674D01*
X8647205Y-14384674D02*
X8647205Y-14432293D01*
X8647205Y-14432293D02*
X8637682Y-14470388D01*
X8637682Y-14470388D02*
X8628158Y-14489436D01*
X8628158Y-14489436D02*
X8618634Y-14498960D01*
X8618634Y-14498960D02*
X8599586Y-14508484D01*
X8599586Y-14508484D02*
X8580539Y-14508484D01*
X8580539Y-14508484D02*
X8561491Y-14498960D01*
X8561491Y-14498960D02*
X8551967Y-14489436D01*
X8551967Y-14489436D02*
X8542444Y-14470388D01*
X8542444Y-14470388D02*
X8532920Y-14432293D01*
X8532920Y-14432293D02*
X8532920Y-14384674D01*
X8532920Y-14384674D02*
X8542444Y-14346579D01*
X8542444Y-14346579D02*
X8551967Y-14327531D01*
X8551967Y-14327531D02*
X8561491Y-14318008D01*
X8561491Y-14318008D02*
X8580539Y-14308484D01*
X8732920Y-14508484D02*
X8732920Y-14375150D01*
X8732920Y-14394198D02*
X8742444Y-14384674D01*
X8742444Y-14384674D02*
X8761491Y-14375150D01*
X8761491Y-14375150D02*
X8790063Y-14375150D01*
X8790063Y-14375150D02*
X8809110Y-14384674D01*
X8809110Y-14384674D02*
X8818634Y-14403722D01*
X8818634Y-14403722D02*
X8818634Y-14508484D01*
X8818634Y-14403722D02*
X8828158Y-14384674D01*
X8828158Y-14384674D02*
X8847205Y-14375150D01*
X8847205Y-14375150D02*
X8875777Y-14375150D01*
X8875777Y-14375150D02*
X8894825Y-14384674D01*
X8894825Y-14384674D02*
X8904348Y-14403722D01*
X8904348Y-14403722D02*
X8904348Y-14508484D01*
X8999586Y-14508484D02*
X8999586Y-14375150D01*
X8999586Y-14394198D02*
X9009110Y-14384674D01*
X9009110Y-14384674D02*
X9028158Y-14375150D01*
X9028158Y-14375150D02*
X9056729Y-14375150D01*
X9056729Y-14375150D02*
X9075777Y-14384674D01*
X9075777Y-14384674D02*
X9085301Y-14403722D01*
X9085301Y-14403722D02*
X9085301Y-14508484D01*
X9085301Y-14403722D02*
X9094825Y-14384674D01*
X9094825Y-14384674D02*
X9113872Y-14375150D01*
X9113872Y-14375150D02*
X9142444Y-14375150D01*
X9142444Y-14375150D02*
X9161491Y-14384674D01*
X9161491Y-14384674D02*
X9171015Y-14403722D01*
X9171015Y-14403722D02*
X9171015Y-14508484D01*
X9561491Y-14298960D02*
X9390063Y-14556103D01*
X9818634Y-14308484D02*
X9837682Y-14308484D01*
X9837682Y-14308484D02*
X9856729Y-14318008D01*
X9856729Y-14318008D02*
X9866253Y-14327531D01*
X9866253Y-14327531D02*
X9875777Y-14346579D01*
X9875777Y-14346579D02*
X9885301Y-14384674D01*
X9885301Y-14384674D02*
X9885301Y-14432293D01*
X9885301Y-14432293D02*
X9875777Y-14470388D01*
X9875777Y-14470388D02*
X9866253Y-14489436D01*
X9866253Y-14489436D02*
X9856729Y-14498960D01*
X9856729Y-14498960D02*
X9837682Y-14508484D01*
X9837682Y-14508484D02*
X9818634Y-14508484D01*
X9818634Y-14508484D02*
X9799587Y-14498960D01*
X9799587Y-14498960D02*
X9790063Y-14489436D01*
X9790063Y-14489436D02*
X9780539Y-14470388D01*
X9780539Y-14470388D02*
X9771015Y-14432293D01*
X9771015Y-14432293D02*
X9771015Y-14384674D01*
X9771015Y-14384674D02*
X9780539Y-14346579D01*
X9780539Y-14346579D02*
X9790063Y-14327531D01*
X9790063Y-14327531D02*
X9799587Y-14318008D01*
X9799587Y-14318008D02*
X9818634Y-14308484D01*
X9971015Y-14489436D02*
X9980539Y-14498960D01*
X9980539Y-14498960D02*
X9971015Y-14508484D01*
X9971015Y-14508484D02*
X9961491Y-14498960D01*
X9961491Y-14498960D02*
X9971015Y-14489436D01*
X9971015Y-14489436D02*
X9971015Y-14508484D01*
X10171015Y-14508484D02*
X10056729Y-14508484D01*
X10113872Y-14508484D02*
X10113872Y-14308484D01*
X10113872Y-14308484D02*
X10094825Y-14337055D01*
X10094825Y-14337055D02*
X10075777Y-14356103D01*
X10075777Y-14356103D02*
X10056729Y-14365627D01*
X10361491Y-14508484D02*
X10247206Y-14508484D01*
X10304348Y-14508484D02*
X10304348Y-14308484D01*
X10304348Y-14308484D02*
X10285301Y-14337055D01*
X10285301Y-14337055D02*
X10266253Y-14356103D01*
X10266253Y-14356103D02*
X10247206Y-14365627D01*
X10475777Y-14394198D02*
X10456729Y-14384674D01*
X10456729Y-14384674D02*
X10447206Y-14375150D01*
X10447206Y-14375150D02*
X10437682Y-14356103D01*
X10437682Y-14356103D02*
X10437682Y-14346579D01*
X10437682Y-14346579D02*
X10447206Y-14327531D01*
X10447206Y-14327531D02*
X10456729Y-14318008D01*
X10456729Y-14318008D02*
X10475777Y-14308484D01*
X10475777Y-14308484D02*
X10513872Y-14308484D01*
X10513872Y-14308484D02*
X10532920Y-14318008D01*
X10532920Y-14318008D02*
X10542444Y-14327531D01*
X10542444Y-14327531D02*
X10551968Y-14346579D01*
X10551968Y-14346579D02*
X10551968Y-14356103D01*
X10551968Y-14356103D02*
X10542444Y-14375150D01*
X10542444Y-14375150D02*
X10532920Y-14384674D01*
X10532920Y-14384674D02*
X10513872Y-14394198D01*
X10513872Y-14394198D02*
X10475777Y-14394198D01*
X10475777Y-14394198D02*
X10456729Y-14403722D01*
X10456729Y-14403722D02*
X10447206Y-14413246D01*
X10447206Y-14413246D02*
X10437682Y-14432293D01*
X10437682Y-14432293D02*
X10437682Y-14470388D01*
X10437682Y-14470388D02*
X10447206Y-14489436D01*
X10447206Y-14489436D02*
X10456729Y-14498960D01*
X10456729Y-14498960D02*
X10475777Y-14508484D01*
X10475777Y-14508484D02*
X10513872Y-14508484D01*
X10513872Y-14508484D02*
X10532920Y-14498960D01*
X10532920Y-14498960D02*
X10542444Y-14489436D01*
X10542444Y-14489436D02*
X10551968Y-14470388D01*
X10551968Y-14470388D02*
X10551968Y-14432293D01*
X10551968Y-14432293D02*
X10542444Y-14413246D01*
X10542444Y-14413246D02*
X10532920Y-14403722D01*
X10532920Y-14403722D02*
X10513872Y-14394198D01*
X10742444Y-14508484D02*
X10628158Y-14508484D01*
X10685301Y-14508484D02*
X10685301Y-14308484D01*
X10685301Y-14308484D02*
X10666253Y-14337055D01*
X10666253Y-14337055D02*
X10647206Y-14356103D01*
X10647206Y-14356103D02*
X10628158Y-14365627D01*
X10818634Y-14308484D02*
X10818634Y-14346579D01*
X10894825Y-14308484D02*
X10894825Y-14346579D01*
X11190063Y-14584674D02*
X11180539Y-14575150D01*
X11180539Y-14575150D02*
X11161491Y-14546579D01*
X11161491Y-14546579D02*
X11151968Y-14527531D01*
X11151968Y-14527531D02*
X11142444Y-14498960D01*
X11142444Y-14498960D02*
X11132920Y-14451341D01*
X11132920Y-14451341D02*
X11132920Y-14413246D01*
X11132920Y-14413246D02*
X11142444Y-14365627D01*
X11142444Y-14365627D02*
X11151968Y-14337055D01*
X11151968Y-14337055D02*
X11161491Y-14318008D01*
X11161491Y-14318008D02*
X11180539Y-14289436D01*
X11180539Y-14289436D02*
X11190063Y-14279912D01*
X11256729Y-14327531D02*
X11266253Y-14318008D01*
X11266253Y-14318008D02*
X11285301Y-14308484D01*
X11285301Y-14308484D02*
X11332920Y-14308484D01*
X11332920Y-14308484D02*
X11351968Y-14318008D01*
X11351968Y-14318008D02*
X11361491Y-14327531D01*
X11361491Y-14327531D02*
X11371015Y-14346579D01*
X11371015Y-14346579D02*
X11371015Y-14365627D01*
X11371015Y-14365627D02*
X11361491Y-14394198D01*
X11361491Y-14394198D02*
X11247206Y-14508484D01*
X11247206Y-14508484D02*
X11371015Y-14508484D01*
X11609110Y-14508484D02*
X11609110Y-14308484D01*
X11694825Y-14508484D02*
X11694825Y-14403722D01*
X11694825Y-14403722D02*
X11685301Y-14384674D01*
X11685301Y-14384674D02*
X11666253Y-14375150D01*
X11666253Y-14375150D02*
X11637682Y-14375150D01*
X11637682Y-14375150D02*
X11618634Y-14384674D01*
X11618634Y-14384674D02*
X11609110Y-14394198D01*
X11818634Y-14508484D02*
X11799587Y-14498960D01*
X11799587Y-14498960D02*
X11790063Y-14489436D01*
X11790063Y-14489436D02*
X11780539Y-14470388D01*
X11780539Y-14470388D02*
X11780539Y-14413246D01*
X11780539Y-14413246D02*
X11790063Y-14394198D01*
X11790063Y-14394198D02*
X11799587Y-14384674D01*
X11799587Y-14384674D02*
X11818634Y-14375150D01*
X11818634Y-14375150D02*
X11847206Y-14375150D01*
X11847206Y-14375150D02*
X11866253Y-14384674D01*
X11866253Y-14384674D02*
X11875777Y-14394198D01*
X11875777Y-14394198D02*
X11885301Y-14413246D01*
X11885301Y-14413246D02*
X11885301Y-14470388D01*
X11885301Y-14470388D02*
X11875777Y-14489436D01*
X11875777Y-14489436D02*
X11866253Y-14498960D01*
X11866253Y-14498960D02*
X11847206Y-14508484D01*
X11847206Y-14508484D02*
X11818634Y-14508484D01*
X11999587Y-14508484D02*
X11980539Y-14498960D01*
X11980539Y-14498960D02*
X11971015Y-14479912D01*
X11971015Y-14479912D02*
X11971015Y-14308484D01*
X12151968Y-14498960D02*
X12132920Y-14508484D01*
X12132920Y-14508484D02*
X12094825Y-14508484D01*
X12094825Y-14508484D02*
X12075777Y-14498960D01*
X12075777Y-14498960D02*
X12066253Y-14479912D01*
X12066253Y-14479912D02*
X12066253Y-14403722D01*
X12066253Y-14403722D02*
X12075777Y-14384674D01*
X12075777Y-14384674D02*
X12094825Y-14375150D01*
X12094825Y-14375150D02*
X12132920Y-14375150D01*
X12132920Y-14375150D02*
X12151968Y-14384674D01*
X12151968Y-14384674D02*
X12161491Y-14403722D01*
X12161491Y-14403722D02*
X12161491Y-14422769D01*
X12161491Y-14422769D02*
X12066253Y-14441817D01*
X12237682Y-14498960D02*
X12256730Y-14508484D01*
X12256730Y-14508484D02*
X12294825Y-14508484D01*
X12294825Y-14508484D02*
X12313872Y-14498960D01*
X12313872Y-14498960D02*
X12323396Y-14479912D01*
X12323396Y-14479912D02*
X12323396Y-14470388D01*
X12323396Y-14470388D02*
X12313872Y-14451341D01*
X12313872Y-14451341D02*
X12294825Y-14441817D01*
X12294825Y-14441817D02*
X12266253Y-14441817D01*
X12266253Y-14441817D02*
X12247206Y-14432293D01*
X12247206Y-14432293D02*
X12237682Y-14413246D01*
X12237682Y-14413246D02*
X12237682Y-14403722D01*
X12237682Y-14403722D02*
X12247206Y-14384674D01*
X12247206Y-14384674D02*
X12266253Y-14375150D01*
X12266253Y-14375150D02*
X12294825Y-14375150D01*
X12294825Y-14375150D02*
X12313872Y-14384674D01*
X12390063Y-14584674D02*
X12399587Y-14575150D01*
X12399587Y-14575150D02*
X12418634Y-14546579D01*
X12418634Y-14546579D02*
X12428158Y-14527531D01*
X12428158Y-14527531D02*
X12437682Y-14498960D01*
X12437682Y-14498960D02*
X12447206Y-14451341D01*
X12447206Y-14451341D02*
X12447206Y-14413246D01*
X12447206Y-14413246D02*
X12437682Y-14365627D01*
X12437682Y-14365627D02*
X12428158Y-14337055D01*
X12428158Y-14337055D02*
X12418634Y-14318008D01*
X12418634Y-14318008D02*
X12399587Y-14289436D01*
X12399587Y-14289436D02*
X12390063Y-14279912D01*
X7415000Y-14637000D02*
X7615000Y-14837000D01*
X7615000Y-14637000D02*
X7415000Y-14837000D01*
X7515000Y-14637000D02*
X7515000Y-14837000D01*
X7415000Y-14737000D02*
X7615000Y-14737000D01*
X7856729Y-14628484D02*
X7980539Y-14628484D01*
X7980539Y-14628484D02*
X7913872Y-14704674D01*
X7913872Y-14704674D02*
X7942443Y-14704674D01*
X7942443Y-14704674D02*
X7961491Y-14714198D01*
X7961491Y-14714198D02*
X7971015Y-14723722D01*
X7971015Y-14723722D02*
X7980539Y-14742769D01*
X7980539Y-14742769D02*
X7980539Y-14790388D01*
X7980539Y-14790388D02*
X7971015Y-14809436D01*
X7971015Y-14809436D02*
X7961491Y-14818960D01*
X7961491Y-14818960D02*
X7942443Y-14828484D01*
X7942443Y-14828484D02*
X7885301Y-14828484D01*
X7885301Y-14828484D02*
X7866253Y-14818960D01*
X7866253Y-14818960D02*
X7856729Y-14809436D01*
X8066253Y-14809436D02*
X8075777Y-14818960D01*
X8075777Y-14818960D02*
X8066253Y-14828484D01*
X8066253Y-14828484D02*
X8056729Y-14818960D01*
X8056729Y-14818960D02*
X8066253Y-14809436D01*
X8066253Y-14809436D02*
X8066253Y-14828484D01*
X8151967Y-14647531D02*
X8161491Y-14638008D01*
X8161491Y-14638008D02*
X8180539Y-14628484D01*
X8180539Y-14628484D02*
X8228158Y-14628484D01*
X8228158Y-14628484D02*
X8247205Y-14638008D01*
X8247205Y-14638008D02*
X8256729Y-14647531D01*
X8256729Y-14647531D02*
X8266253Y-14666579D01*
X8266253Y-14666579D02*
X8266253Y-14685627D01*
X8266253Y-14685627D02*
X8256729Y-14714198D01*
X8256729Y-14714198D02*
X8142443Y-14828484D01*
X8142443Y-14828484D02*
X8266253Y-14828484D01*
X8390063Y-14628484D02*
X8409110Y-14628484D01*
X8409110Y-14628484D02*
X8428158Y-14638008D01*
X8428158Y-14638008D02*
X8437682Y-14647531D01*
X8437682Y-14647531D02*
X8447205Y-14666579D01*
X8447205Y-14666579D02*
X8456729Y-14704674D01*
X8456729Y-14704674D02*
X8456729Y-14752293D01*
X8456729Y-14752293D02*
X8447205Y-14790388D01*
X8447205Y-14790388D02*
X8437682Y-14809436D01*
X8437682Y-14809436D02*
X8428158Y-14818960D01*
X8428158Y-14818960D02*
X8409110Y-14828484D01*
X8409110Y-14828484D02*
X8390063Y-14828484D01*
X8390063Y-14828484D02*
X8371015Y-14818960D01*
X8371015Y-14818960D02*
X8361491Y-14809436D01*
X8361491Y-14809436D02*
X8351967Y-14790388D01*
X8351967Y-14790388D02*
X8342443Y-14752293D01*
X8342443Y-14752293D02*
X8342443Y-14704674D01*
X8342443Y-14704674D02*
X8351967Y-14666579D01*
X8351967Y-14666579D02*
X8361491Y-14647531D01*
X8361491Y-14647531D02*
X8371015Y-14638008D01*
X8371015Y-14638008D02*
X8390063Y-14628484D01*
X8580539Y-14628484D02*
X8599586Y-14628484D01*
X8599586Y-14628484D02*
X8618634Y-14638008D01*
X8618634Y-14638008D02*
X8628158Y-14647531D01*
X8628158Y-14647531D02*
X8637682Y-14666579D01*
X8637682Y-14666579D02*
X8647205Y-14704674D01*
X8647205Y-14704674D02*
X8647205Y-14752293D01*
X8647205Y-14752293D02*
X8637682Y-14790388D01*
X8637682Y-14790388D02*
X8628158Y-14809436D01*
X8628158Y-14809436D02*
X8618634Y-14818960D01*
X8618634Y-14818960D02*
X8599586Y-14828484D01*
X8599586Y-14828484D02*
X8580539Y-14828484D01*
X8580539Y-14828484D02*
X8561491Y-14818960D01*
X8561491Y-14818960D02*
X8551967Y-14809436D01*
X8551967Y-14809436D02*
X8542444Y-14790388D01*
X8542444Y-14790388D02*
X8532920Y-14752293D01*
X8532920Y-14752293D02*
X8532920Y-14704674D01*
X8532920Y-14704674D02*
X8542444Y-14666579D01*
X8542444Y-14666579D02*
X8551967Y-14647531D01*
X8551967Y-14647531D02*
X8561491Y-14638008D01*
X8561491Y-14638008D02*
X8580539Y-14628484D01*
X8732920Y-14828484D02*
X8732920Y-14695150D01*
X8732920Y-14714198D02*
X8742444Y-14704674D01*
X8742444Y-14704674D02*
X8761491Y-14695150D01*
X8761491Y-14695150D02*
X8790063Y-14695150D01*
X8790063Y-14695150D02*
X8809110Y-14704674D01*
X8809110Y-14704674D02*
X8818634Y-14723722D01*
X8818634Y-14723722D02*
X8818634Y-14828484D01*
X8818634Y-14723722D02*
X8828158Y-14704674D01*
X8828158Y-14704674D02*
X8847205Y-14695150D01*
X8847205Y-14695150D02*
X8875777Y-14695150D01*
X8875777Y-14695150D02*
X8894825Y-14704674D01*
X8894825Y-14704674D02*
X8904348Y-14723722D01*
X8904348Y-14723722D02*
X8904348Y-14828484D01*
X8999586Y-14828484D02*
X8999586Y-14695150D01*
X8999586Y-14714198D02*
X9009110Y-14704674D01*
X9009110Y-14704674D02*
X9028158Y-14695150D01*
X9028158Y-14695150D02*
X9056729Y-14695150D01*
X9056729Y-14695150D02*
X9075777Y-14704674D01*
X9075777Y-14704674D02*
X9085301Y-14723722D01*
X9085301Y-14723722D02*
X9085301Y-14828484D01*
X9085301Y-14723722D02*
X9094825Y-14704674D01*
X9094825Y-14704674D02*
X9113872Y-14695150D01*
X9113872Y-14695150D02*
X9142444Y-14695150D01*
X9142444Y-14695150D02*
X9161491Y-14704674D01*
X9161491Y-14704674D02*
X9171015Y-14723722D01*
X9171015Y-14723722D02*
X9171015Y-14828484D01*
X9561491Y-14618960D02*
X9390063Y-14876103D01*
X9818634Y-14628484D02*
X9837682Y-14628484D01*
X9837682Y-14628484D02*
X9856729Y-14638008D01*
X9856729Y-14638008D02*
X9866253Y-14647531D01*
X9866253Y-14647531D02*
X9875777Y-14666579D01*
X9875777Y-14666579D02*
X9885301Y-14704674D01*
X9885301Y-14704674D02*
X9885301Y-14752293D01*
X9885301Y-14752293D02*
X9875777Y-14790388D01*
X9875777Y-14790388D02*
X9866253Y-14809436D01*
X9866253Y-14809436D02*
X9856729Y-14818960D01*
X9856729Y-14818960D02*
X9837682Y-14828484D01*
X9837682Y-14828484D02*
X9818634Y-14828484D01*
X9818634Y-14828484D02*
X9799587Y-14818960D01*
X9799587Y-14818960D02*
X9790063Y-14809436D01*
X9790063Y-14809436D02*
X9780539Y-14790388D01*
X9780539Y-14790388D02*
X9771015Y-14752293D01*
X9771015Y-14752293D02*
X9771015Y-14704674D01*
X9771015Y-14704674D02*
X9780539Y-14666579D01*
X9780539Y-14666579D02*
X9790063Y-14647531D01*
X9790063Y-14647531D02*
X9799587Y-14638008D01*
X9799587Y-14638008D02*
X9818634Y-14628484D01*
X9971015Y-14809436D02*
X9980539Y-14818960D01*
X9980539Y-14818960D02*
X9971015Y-14828484D01*
X9971015Y-14828484D02*
X9961491Y-14818960D01*
X9961491Y-14818960D02*
X9971015Y-14809436D01*
X9971015Y-14809436D02*
X9971015Y-14828484D01*
X10171015Y-14828484D02*
X10056729Y-14828484D01*
X10113872Y-14828484D02*
X10113872Y-14628484D01*
X10113872Y-14628484D02*
X10094825Y-14657055D01*
X10094825Y-14657055D02*
X10075777Y-14676103D01*
X10075777Y-14676103D02*
X10056729Y-14685627D01*
X10247206Y-14647531D02*
X10256729Y-14638008D01*
X10256729Y-14638008D02*
X10275777Y-14628484D01*
X10275777Y-14628484D02*
X10323396Y-14628484D01*
X10323396Y-14628484D02*
X10342444Y-14638008D01*
X10342444Y-14638008D02*
X10351968Y-14647531D01*
X10351968Y-14647531D02*
X10361491Y-14666579D01*
X10361491Y-14666579D02*
X10361491Y-14685627D01*
X10361491Y-14685627D02*
X10351968Y-14714198D01*
X10351968Y-14714198D02*
X10237682Y-14828484D01*
X10237682Y-14828484D02*
X10361491Y-14828484D01*
X10532920Y-14628484D02*
X10494825Y-14628484D01*
X10494825Y-14628484D02*
X10475777Y-14638008D01*
X10475777Y-14638008D02*
X10466253Y-14647531D01*
X10466253Y-14647531D02*
X10447206Y-14676103D01*
X10447206Y-14676103D02*
X10437682Y-14714198D01*
X10437682Y-14714198D02*
X10437682Y-14790388D01*
X10437682Y-14790388D02*
X10447206Y-14809436D01*
X10447206Y-14809436D02*
X10456729Y-14818960D01*
X10456729Y-14818960D02*
X10475777Y-14828484D01*
X10475777Y-14828484D02*
X10513872Y-14828484D01*
X10513872Y-14828484D02*
X10532920Y-14818960D01*
X10532920Y-14818960D02*
X10542444Y-14809436D01*
X10542444Y-14809436D02*
X10551968Y-14790388D01*
X10551968Y-14790388D02*
X10551968Y-14742769D01*
X10551968Y-14742769D02*
X10542444Y-14723722D01*
X10542444Y-14723722D02*
X10532920Y-14714198D01*
X10532920Y-14714198D02*
X10513872Y-14704674D01*
X10513872Y-14704674D02*
X10475777Y-14704674D01*
X10475777Y-14704674D02*
X10456729Y-14714198D01*
X10456729Y-14714198D02*
X10447206Y-14723722D01*
X10447206Y-14723722D02*
X10437682Y-14742769D01*
X10675777Y-14628484D02*
X10694825Y-14628484D01*
X10694825Y-14628484D02*
X10713872Y-14638008D01*
X10713872Y-14638008D02*
X10723396Y-14647531D01*
X10723396Y-14647531D02*
X10732920Y-14666579D01*
X10732920Y-14666579D02*
X10742444Y-14704674D01*
X10742444Y-14704674D02*
X10742444Y-14752293D01*
X10742444Y-14752293D02*
X10732920Y-14790388D01*
X10732920Y-14790388D02*
X10723396Y-14809436D01*
X10723396Y-14809436D02*
X10713872Y-14818960D01*
X10713872Y-14818960D02*
X10694825Y-14828484D01*
X10694825Y-14828484D02*
X10675777Y-14828484D01*
X10675777Y-14828484D02*
X10656729Y-14818960D01*
X10656729Y-14818960D02*
X10647206Y-14809436D01*
X10647206Y-14809436D02*
X10637682Y-14790388D01*
X10637682Y-14790388D02*
X10628158Y-14752293D01*
X10628158Y-14752293D02*
X10628158Y-14704674D01*
X10628158Y-14704674D02*
X10637682Y-14666579D01*
X10637682Y-14666579D02*
X10647206Y-14647531D01*
X10647206Y-14647531D02*
X10656729Y-14638008D01*
X10656729Y-14638008D02*
X10675777Y-14628484D01*
X10818634Y-14628484D02*
X10818634Y-14666579D01*
X10894825Y-14628484D02*
X10894825Y-14666579D01*
X11190063Y-14904674D02*
X11180539Y-14895150D01*
X11180539Y-14895150D02*
X11161491Y-14866579D01*
X11161491Y-14866579D02*
X11151968Y-14847531D01*
X11151968Y-14847531D02*
X11142444Y-14818960D01*
X11142444Y-14818960D02*
X11132920Y-14771341D01*
X11132920Y-14771341D02*
X11132920Y-14733246D01*
X11132920Y-14733246D02*
X11142444Y-14685627D01*
X11142444Y-14685627D02*
X11151968Y-14657055D01*
X11151968Y-14657055D02*
X11161491Y-14638008D01*
X11161491Y-14638008D02*
X11180539Y-14609436D01*
X11180539Y-14609436D02*
X11190063Y-14599912D01*
X11247206Y-14628484D02*
X11371015Y-14628484D01*
X11371015Y-14628484D02*
X11304348Y-14704674D01*
X11304348Y-14704674D02*
X11332920Y-14704674D01*
X11332920Y-14704674D02*
X11351968Y-14714198D01*
X11351968Y-14714198D02*
X11361491Y-14723722D01*
X11361491Y-14723722D02*
X11371015Y-14742769D01*
X11371015Y-14742769D02*
X11371015Y-14790388D01*
X11371015Y-14790388D02*
X11361491Y-14809436D01*
X11361491Y-14809436D02*
X11351968Y-14818960D01*
X11351968Y-14818960D02*
X11332920Y-14828484D01*
X11332920Y-14828484D02*
X11275777Y-14828484D01*
X11275777Y-14828484D02*
X11256729Y-14818960D01*
X11256729Y-14818960D02*
X11247206Y-14809436D01*
X11609110Y-14828484D02*
X11609110Y-14628484D01*
X11694825Y-14828484D02*
X11694825Y-14723722D01*
X11694825Y-14723722D02*
X11685301Y-14704674D01*
X11685301Y-14704674D02*
X11666253Y-14695150D01*
X11666253Y-14695150D02*
X11637682Y-14695150D01*
X11637682Y-14695150D02*
X11618634Y-14704674D01*
X11618634Y-14704674D02*
X11609110Y-14714198D01*
X11818634Y-14828484D02*
X11799587Y-14818960D01*
X11799587Y-14818960D02*
X11790063Y-14809436D01*
X11790063Y-14809436D02*
X11780539Y-14790388D01*
X11780539Y-14790388D02*
X11780539Y-14733246D01*
X11780539Y-14733246D02*
X11790063Y-14714198D01*
X11790063Y-14714198D02*
X11799587Y-14704674D01*
X11799587Y-14704674D02*
X11818634Y-14695150D01*
X11818634Y-14695150D02*
X11847206Y-14695150D01*
X11847206Y-14695150D02*
X11866253Y-14704674D01*
X11866253Y-14704674D02*
X11875777Y-14714198D01*
X11875777Y-14714198D02*
X11885301Y-14733246D01*
X11885301Y-14733246D02*
X11885301Y-14790388D01*
X11885301Y-14790388D02*
X11875777Y-14809436D01*
X11875777Y-14809436D02*
X11866253Y-14818960D01*
X11866253Y-14818960D02*
X11847206Y-14828484D01*
X11847206Y-14828484D02*
X11818634Y-14828484D01*
X11999587Y-14828484D02*
X11980539Y-14818960D01*
X11980539Y-14818960D02*
X11971015Y-14799912D01*
X11971015Y-14799912D02*
X11971015Y-14628484D01*
X12151968Y-14818960D02*
X12132920Y-14828484D01*
X12132920Y-14828484D02*
X12094825Y-14828484D01*
X12094825Y-14828484D02*
X12075777Y-14818960D01*
X12075777Y-14818960D02*
X12066253Y-14799912D01*
X12066253Y-14799912D02*
X12066253Y-14723722D01*
X12066253Y-14723722D02*
X12075777Y-14704674D01*
X12075777Y-14704674D02*
X12094825Y-14695150D01*
X12094825Y-14695150D02*
X12132920Y-14695150D01*
X12132920Y-14695150D02*
X12151968Y-14704674D01*
X12151968Y-14704674D02*
X12161491Y-14723722D01*
X12161491Y-14723722D02*
X12161491Y-14742769D01*
X12161491Y-14742769D02*
X12066253Y-14761817D01*
X12237682Y-14818960D02*
X12256730Y-14828484D01*
X12256730Y-14828484D02*
X12294825Y-14828484D01*
X12294825Y-14828484D02*
X12313872Y-14818960D01*
X12313872Y-14818960D02*
X12323396Y-14799912D01*
X12323396Y-14799912D02*
X12323396Y-14790388D01*
X12323396Y-14790388D02*
X12313872Y-14771341D01*
X12313872Y-14771341D02*
X12294825Y-14761817D01*
X12294825Y-14761817D02*
X12266253Y-14761817D01*
X12266253Y-14761817D02*
X12247206Y-14752293D01*
X12247206Y-14752293D02*
X12237682Y-14733246D01*
X12237682Y-14733246D02*
X12237682Y-14723722D01*
X12237682Y-14723722D02*
X12247206Y-14704674D01*
X12247206Y-14704674D02*
X12266253Y-14695150D01*
X12266253Y-14695150D02*
X12294825Y-14695150D01*
X12294825Y-14695150D02*
X12313872Y-14704674D01*
X12390063Y-14904674D02*
X12399587Y-14895150D01*
X12399587Y-14895150D02*
X12418634Y-14866579D01*
X12418634Y-14866579D02*
X12428158Y-14847531D01*
X12428158Y-14847531D02*
X12437682Y-14818960D01*
X12437682Y-14818960D02*
X12447206Y-14771341D01*
X12447206Y-14771341D02*
X12447206Y-14733246D01*
X12447206Y-14733246D02*
X12437682Y-14685627D01*
X12437682Y-14685627D02*
X12428158Y-14657055D01*
X12428158Y-14657055D02*
X12418634Y-14638008D01*
X12418634Y-14638008D02*
X12399587Y-14609436D01*
X12399587Y-14609436D02*
X12390063Y-14599912D01*
M02*
