%TF.GenerationSoftware,KiCad,Pcbnew,8.0.0*%
%TF.CreationDate,2024-04-17T18:36:48+02:00*%
%TF.ProjectId,Inverter_Voltage Sensor,496e7665-7274-4657-925f-566f6c746167,rev?*%
%TF.SameCoordinates,Original*%
%TF.FileFunction,Drillmap*%
%TF.FilePolarity,Positive*%
%FSLAX45Y45*%
G04 Gerber Fmt 4.5, Leading zero omitted, Abs format (unit mm)*
G04 Created by KiCad (PCBNEW 8.0.0) date 2024-04-17 18:36:48*
%MOMM*%
%LPD*%
G01*
G04 APERTURE LIST*
%ADD10C,0.100000*%
%ADD11C,0.200000*%
G04 APERTURE END LIST*
D10*
X7620000Y-5588000D02*
X13716000Y-5588000D01*
X13716000Y-12446000D01*
X7620000Y-12446000D01*
X7620000Y-5588000D01*
D11*
X7875777Y-12762484D02*
X7875777Y-12562484D01*
X7875777Y-12562484D02*
X7923396Y-12562484D01*
X7923396Y-12562484D02*
X7951967Y-12572008D01*
X7951967Y-12572008D02*
X7971015Y-12591055D01*
X7971015Y-12591055D02*
X7980539Y-12610103D01*
X7980539Y-12610103D02*
X7990062Y-12648198D01*
X7990062Y-12648198D02*
X7990062Y-12676769D01*
X7990062Y-12676769D02*
X7980539Y-12714865D01*
X7980539Y-12714865D02*
X7971015Y-12733912D01*
X7971015Y-12733912D02*
X7951967Y-12752960D01*
X7951967Y-12752960D02*
X7923396Y-12762484D01*
X7923396Y-12762484D02*
X7875777Y-12762484D01*
X8075777Y-12762484D02*
X8075777Y-12629150D01*
X8075777Y-12667246D02*
X8085301Y-12648198D01*
X8085301Y-12648198D02*
X8094824Y-12638674D01*
X8094824Y-12638674D02*
X8113872Y-12629150D01*
X8113872Y-12629150D02*
X8132920Y-12629150D01*
X8199586Y-12762484D02*
X8199586Y-12629150D01*
X8199586Y-12562484D02*
X8190062Y-12572008D01*
X8190062Y-12572008D02*
X8199586Y-12581531D01*
X8199586Y-12581531D02*
X8209110Y-12572008D01*
X8209110Y-12572008D02*
X8199586Y-12562484D01*
X8199586Y-12562484D02*
X8199586Y-12581531D01*
X8323396Y-12762484D02*
X8304348Y-12752960D01*
X8304348Y-12752960D02*
X8294824Y-12733912D01*
X8294824Y-12733912D02*
X8294824Y-12562484D01*
X8428158Y-12762484D02*
X8409110Y-12752960D01*
X8409110Y-12752960D02*
X8399586Y-12733912D01*
X8399586Y-12733912D02*
X8399586Y-12562484D01*
X8656729Y-12762484D02*
X8656729Y-12562484D01*
X8656729Y-12562484D02*
X8723396Y-12705341D01*
X8723396Y-12705341D02*
X8790063Y-12562484D01*
X8790063Y-12562484D02*
X8790063Y-12762484D01*
X8971015Y-12762484D02*
X8971015Y-12657722D01*
X8971015Y-12657722D02*
X8961491Y-12638674D01*
X8961491Y-12638674D02*
X8942444Y-12629150D01*
X8942444Y-12629150D02*
X8904348Y-12629150D01*
X8904348Y-12629150D02*
X8885301Y-12638674D01*
X8971015Y-12752960D02*
X8951967Y-12762484D01*
X8951967Y-12762484D02*
X8904348Y-12762484D01*
X8904348Y-12762484D02*
X8885301Y-12752960D01*
X8885301Y-12752960D02*
X8875777Y-12733912D01*
X8875777Y-12733912D02*
X8875777Y-12714865D01*
X8875777Y-12714865D02*
X8885301Y-12695817D01*
X8885301Y-12695817D02*
X8904348Y-12686293D01*
X8904348Y-12686293D02*
X8951967Y-12686293D01*
X8951967Y-12686293D02*
X8971015Y-12676769D01*
X9066253Y-12629150D02*
X9066253Y-12829150D01*
X9066253Y-12638674D02*
X9085301Y-12629150D01*
X9085301Y-12629150D02*
X9123396Y-12629150D01*
X9123396Y-12629150D02*
X9142444Y-12638674D01*
X9142444Y-12638674D02*
X9151967Y-12648198D01*
X9151967Y-12648198D02*
X9161491Y-12667246D01*
X9161491Y-12667246D02*
X9161491Y-12724388D01*
X9161491Y-12724388D02*
X9151967Y-12743436D01*
X9151967Y-12743436D02*
X9142444Y-12752960D01*
X9142444Y-12752960D02*
X9123396Y-12762484D01*
X9123396Y-12762484D02*
X9085301Y-12762484D01*
X9085301Y-12762484D02*
X9066253Y-12752960D01*
X9247205Y-12743436D02*
X9256729Y-12752960D01*
X9256729Y-12752960D02*
X9247205Y-12762484D01*
X9247205Y-12762484D02*
X9237682Y-12752960D01*
X9237682Y-12752960D02*
X9247205Y-12743436D01*
X9247205Y-12743436D02*
X9247205Y-12762484D01*
X9247205Y-12638674D02*
X9256729Y-12648198D01*
X9256729Y-12648198D02*
X9247205Y-12657722D01*
X9247205Y-12657722D02*
X9237682Y-12648198D01*
X9237682Y-12648198D02*
X9247205Y-12638674D01*
X9247205Y-12638674D02*
X9247205Y-12657722D01*
M02*
