%TF.GenerationSoftware,KiCad,Pcbnew,(6.0.8)*%
%TF.CreationDate,2023-01-11T15:29:57+01:00*%
%TF.ProjectId,BSPD,42535044-2e6b-4696-9361-645f70636258,rev?*%
%TF.SameCoordinates,Original*%
%TF.FileFunction,Soldermask,Bot*%
%TF.FilePolarity,Negative*%
%FSLAX46Y46*%
G04 Gerber Fmt 4.6, Leading zero omitted, Abs format (unit mm)*
G04 Created by KiCad (PCBNEW (6.0.8)) date 2023-01-11 15:29:57*
%MOMM*%
%LPD*%
G01*
G04 APERTURE LIST*
%ADD10C,5.600000*%
%ADD11R,1.530000X1.530000*%
%ADD12C,1.530000*%
%ADD13C,1.440000*%
%ADD14R,1.217000X1.217000*%
%ADD15C,1.217000*%
%ADD16R,1.600000X1.600000*%
%ADD17O,1.600000X1.600000*%
%ADD18R,1.800000X1.800000*%
%ADD19C,1.800000*%
%ADD20C,1.600000*%
%ADD21R,1.610000X1.610000*%
%ADD22C,1.610000*%
G04 APERTURE END LIST*
D10*
%TO.C,REF\u002A\u002A*%
X165100000Y-116840000D03*
%TD*%
%TO.C,REF\u002A\u002A*%
X99060000Y-71120000D03*
%TD*%
D11*
%TO.C,J4*%
X152400000Y-116840000D03*
D12*
X149860000Y-116840000D03*
%TD*%
D13*
%TO.C,U1*%
X161136000Y-91501500D03*
X161136000Y-94041500D03*
X161136000Y-96581500D03*
%TD*%
D14*
%TO.C,RV5*%
X116840000Y-99060000D03*
D15*
X119380000Y-96520000D03*
X121920000Y-99060000D03*
%TD*%
D16*
%TO.C,TI1*%
X127008945Y-112718181D03*
D17*
X127008945Y-110178181D03*
X127008945Y-107638181D03*
X127008945Y-105098181D03*
X119388945Y-105098181D03*
X119388945Y-107638181D03*
X119388945Y-110178181D03*
X119388945Y-112718181D03*
%TD*%
D18*
%TO.C,D1*%
X134330177Y-102896180D03*
D19*
X134330177Y-105436180D03*
%TD*%
D10*
%TO.C,REF\u002A\u002A*%
X165100000Y-71120000D03*
%TD*%
D14*
%TO.C,RV1*%
X104140000Y-78740000D03*
D15*
X106680000Y-81280000D03*
X104140000Y-83820000D03*
%TD*%
D14*
%TO.C,RV4*%
X101600000Y-99060000D03*
D15*
X104140000Y-96520000D03*
X106680000Y-99060000D03*
%TD*%
D14*
%TO.C,RV2*%
X116840000Y-78740000D03*
D15*
X119380000Y-81280000D03*
X116840000Y-83820000D03*
%TD*%
D10*
%TO.C,REF\u002A\u002A*%
X99060000Y-116840000D03*
%TD*%
D18*
%TO.C,D2*%
X137160000Y-71120000D03*
D19*
X137160000Y-68580000D03*
%TD*%
D11*
%TO.C,J3*%
X165100000Y-106680000D03*
D12*
X165100000Y-104140000D03*
%TD*%
D18*
%TO.C,D3*%
X129579341Y-71120000D03*
D19*
X129579341Y-68580000D03*
%TD*%
D16*
%TO.C,C5*%
X158103366Y-115370154D03*
D20*
X158103366Y-117370154D03*
%TD*%
D21*
%TO.C,J2*%
X116840000Y-71120000D03*
D22*
X119380000Y-71120000D03*
X121920000Y-71120000D03*
%TD*%
D15*
%TO.C,RV3*%
X132080000Y-78740000D03*
X129540000Y-81280000D03*
D14*
X132080000Y-83820000D03*
%TD*%
D21*
%TO.C,J1*%
X106680000Y-71120000D03*
D22*
X109220000Y-71120000D03*
X111760000Y-71120000D03*
%TD*%
M02*
