%TF.GenerationSoftware,KiCad,Pcbnew,(6.0.8)*%
%TF.CreationDate,2023-01-11T15:03:56+01:00*%
%TF.ProjectId,TSAL,5453414c-2e6b-4696-9361-645f70636258,V1.0*%
%TF.SameCoordinates,Original*%
%TF.FileFunction,Legend,Top*%
%TF.FilePolarity,Positive*%
%FSLAX46Y46*%
G04 Gerber Fmt 4.6, Leading zero omitted, Abs format (unit mm)*
G04 Created by KiCad (PCBNEW (6.0.8)) date 2023-01-11 15:03:56*
%MOMM*%
%LPD*%
G01*
G04 APERTURE LIST*
%ADD10C,0.150000*%
%ADD11C,0.254000*%
%ADD12C,0.200000*%
%ADD13C,0.120000*%
%ADD14C,0.127000*%
%ADD15C,0.100000*%
G04 APERTURE END LIST*
D10*
X105726053Y-59080707D02*
X105868910Y-59128326D01*
X106107005Y-59128326D01*
X106202243Y-59080707D01*
X106249862Y-59033088D01*
X106297481Y-58937850D01*
X106297481Y-58842612D01*
X106249862Y-58747374D01*
X106202243Y-58699755D01*
X106107005Y-58652136D01*
X105916529Y-58604517D01*
X105821291Y-58556898D01*
X105773672Y-58509279D01*
X105726053Y-58414041D01*
X105726053Y-58318803D01*
X105773672Y-58223565D01*
X105821291Y-58175946D01*
X105916529Y-58128326D01*
X106154624Y-58128326D01*
X106297481Y-58175946D01*
X107297481Y-59033088D02*
X107249862Y-59080707D01*
X107107005Y-59128326D01*
X107011767Y-59128326D01*
X106868910Y-59080707D01*
X106773672Y-58985469D01*
X106726053Y-58890231D01*
X106678434Y-58699755D01*
X106678434Y-58556898D01*
X106726053Y-58366422D01*
X106773672Y-58271184D01*
X106868910Y-58175946D01*
X107011767Y-58128326D01*
X107107005Y-58128326D01*
X107249862Y-58175946D01*
X107297481Y-58223565D01*
X107678434Y-59080707D02*
X107821291Y-59128326D01*
X108059386Y-59128326D01*
X108154624Y-59080707D01*
X108202243Y-59033088D01*
X108249862Y-58937850D01*
X108249862Y-58842612D01*
X108202243Y-58747374D01*
X108154624Y-58699755D01*
X108059386Y-58652136D01*
X107868910Y-58604517D01*
X107773672Y-58556898D01*
X107726053Y-58509279D01*
X107678434Y-58414041D01*
X107678434Y-58318803D01*
X107726053Y-58223565D01*
X107773672Y-58175946D01*
X107868910Y-58128326D01*
X108107005Y-58128326D01*
X108249862Y-58175946D01*
X109107005Y-59128326D02*
X109107005Y-58128326D01*
X109107005Y-59080707D02*
X109011767Y-59128326D01*
X108821291Y-59128326D01*
X108726053Y-59080707D01*
X108678434Y-59033088D01*
X108630815Y-58937850D01*
X108630815Y-58652136D01*
X108678434Y-58556898D01*
X108726053Y-58509279D01*
X108821291Y-58461660D01*
X109011767Y-58461660D01*
X109107005Y-58509279D01*
X109964148Y-59080707D02*
X109868910Y-59128326D01*
X109678434Y-59128326D01*
X109583195Y-59080707D01*
X109535576Y-58985469D01*
X109535576Y-58604517D01*
X109583195Y-58509279D01*
X109678434Y-58461660D01*
X109868910Y-58461660D01*
X109964148Y-58509279D01*
X110011767Y-58604517D01*
X110011767Y-58699755D01*
X109535576Y-58794993D01*
X110583195Y-59128326D02*
X110487957Y-59080707D01*
X110440338Y-58985469D01*
X110440338Y-58128326D01*
X71272009Y-27034018D02*
X71272009Y-26034018D01*
X71748199Y-26367352D02*
X71748199Y-27034018D01*
X71748199Y-26462590D02*
X71795818Y-26414971D01*
X71891056Y-26367352D01*
X72033913Y-26367352D01*
X72129152Y-26414971D01*
X72176771Y-26510209D01*
X72176771Y-27034018D01*
X72510104Y-26367352D02*
X72891056Y-26367352D01*
X72652961Y-26034018D02*
X72652961Y-26891161D01*
X72700580Y-26986399D01*
X72795818Y-27034018D01*
X72891056Y-27034018D01*
X73986294Y-27034018D02*
X73986294Y-26034018D01*
X74367247Y-26034018D01*
X74462485Y-26081638D01*
X74510104Y-26129257D01*
X74557723Y-26224495D01*
X74557723Y-26367352D01*
X74510104Y-26462590D01*
X74462485Y-26510209D01*
X74367247Y-26557828D01*
X73986294Y-26557828D01*
X74986294Y-27034018D02*
X74986294Y-26367352D01*
X74986294Y-26557828D02*
X75033913Y-26462590D01*
X75081532Y-26414971D01*
X75176771Y-26367352D01*
X75272009Y-26367352D01*
X75986294Y-26986399D02*
X75891056Y-27034018D01*
X75700580Y-27034018D01*
X75605342Y-26986399D01*
X75557723Y-26891161D01*
X75557723Y-26510209D01*
X75605342Y-26414971D01*
X75700580Y-26367352D01*
X75891056Y-26367352D01*
X75986294Y-26414971D01*
X76033913Y-26510209D01*
X76033913Y-26605447D01*
X75557723Y-26700685D01*
X82640395Y-33091428D02*
X83402300Y-33091428D01*
X110786581Y-53209189D02*
X110929438Y-53256808D01*
X111167533Y-53256808D01*
X111262771Y-53209189D01*
X111310390Y-53161570D01*
X111358009Y-53066332D01*
X111358009Y-52971094D01*
X111310390Y-52875856D01*
X111262771Y-52828237D01*
X111167533Y-52780618D01*
X110977057Y-52732999D01*
X110881819Y-52685380D01*
X110834200Y-52637761D01*
X110786581Y-52542523D01*
X110786581Y-52447285D01*
X110834200Y-52352047D01*
X110881819Y-52304428D01*
X110977057Y-52256808D01*
X111215152Y-52256808D01*
X111358009Y-52304428D01*
X112358009Y-53161570D02*
X112310390Y-53209189D01*
X112167533Y-53256808D01*
X112072295Y-53256808D01*
X111929438Y-53209189D01*
X111834200Y-53113951D01*
X111786581Y-53018713D01*
X111738962Y-52828237D01*
X111738962Y-52685380D01*
X111786581Y-52494904D01*
X111834200Y-52399666D01*
X111929438Y-52304428D01*
X112072295Y-52256808D01*
X112167533Y-52256808D01*
X112310390Y-52304428D01*
X112358009Y-52352047D01*
X112738962Y-53209189D02*
X112881819Y-53256808D01*
X113119914Y-53256808D01*
X113215152Y-53209189D01*
X113262771Y-53161570D01*
X113310390Y-53066332D01*
X113310390Y-52971094D01*
X113262771Y-52875856D01*
X113215152Y-52828237D01*
X113119914Y-52780618D01*
X112929438Y-52732999D01*
X112834200Y-52685380D01*
X112786581Y-52637761D01*
X112738962Y-52542523D01*
X112738962Y-52447285D01*
X112786581Y-52352047D01*
X112834200Y-52304428D01*
X112929438Y-52256808D01*
X113167533Y-52256808D01*
X113310390Y-52304428D01*
X114643724Y-53256808D02*
X114548485Y-53209189D01*
X114500866Y-53113951D01*
X114500866Y-52256808D01*
X115167533Y-53256808D02*
X115072295Y-53209189D01*
X115024676Y-53161570D01*
X114977057Y-53066332D01*
X114977057Y-52780618D01*
X115024676Y-52685380D01*
X115072295Y-52637761D01*
X115167533Y-52590142D01*
X115310390Y-52590142D01*
X115405628Y-52637761D01*
X115453247Y-52685380D01*
X115500866Y-52780618D01*
X115500866Y-53066332D01*
X115453247Y-53161570D01*
X115405628Y-53209189D01*
X115310390Y-53256808D01*
X115167533Y-53256808D01*
X116358009Y-52590142D02*
X116358009Y-53399666D01*
X116310390Y-53494904D01*
X116262771Y-53542523D01*
X116167533Y-53590142D01*
X116024676Y-53590142D01*
X115929438Y-53542523D01*
X116358009Y-53209189D02*
X116262771Y-53256808D01*
X116072295Y-53256808D01*
X115977057Y-53209189D01*
X115929438Y-53161570D01*
X115881819Y-53066332D01*
X115881819Y-52780618D01*
X115929438Y-52685380D01*
X115977057Y-52637761D01*
X116072295Y-52590142D01*
X116262771Y-52590142D01*
X116358009Y-52637761D01*
X88429739Y-63747535D02*
X87953549Y-63747535D01*
X87953549Y-62747535D01*
X88763073Y-63747535D02*
X88763073Y-63080869D01*
X88763073Y-62747535D02*
X88715454Y-62795155D01*
X88763073Y-62842774D01*
X88810692Y-62795155D01*
X88763073Y-62747535D01*
X88763073Y-62842774D01*
X89667834Y-63080869D02*
X89667834Y-63890393D01*
X89620215Y-63985631D01*
X89572596Y-64033250D01*
X89477358Y-64080869D01*
X89334501Y-64080869D01*
X89239263Y-64033250D01*
X89667834Y-63699916D02*
X89572596Y-63747535D01*
X89382120Y-63747535D01*
X89286882Y-63699916D01*
X89239263Y-63652297D01*
X89191644Y-63557059D01*
X89191644Y-63271345D01*
X89239263Y-63176107D01*
X89286882Y-63128488D01*
X89382120Y-63080869D01*
X89572596Y-63080869D01*
X89667834Y-63128488D01*
X90144025Y-63747535D02*
X90144025Y-62747535D01*
X90572596Y-63747535D02*
X90572596Y-63223726D01*
X90524977Y-63128488D01*
X90429739Y-63080869D01*
X90286882Y-63080869D01*
X90191644Y-63128488D01*
X90144025Y-63176107D01*
X90905930Y-63080869D02*
X91286882Y-63080869D01*
X91048787Y-62747535D02*
X91048787Y-63604678D01*
X91096406Y-63699916D01*
X91191644Y-63747535D01*
X91286882Y-63747535D01*
X92810692Y-63699916D02*
X92715454Y-63747535D01*
X92524977Y-63747535D01*
X92429739Y-63699916D01*
X92382120Y-63652297D01*
X92334501Y-63557059D01*
X92334501Y-63271345D01*
X92382120Y-63176107D01*
X92429739Y-63128488D01*
X92524977Y-63080869D01*
X92715454Y-63080869D01*
X92810692Y-63128488D01*
X93382120Y-63747535D02*
X93286882Y-63699916D01*
X93239263Y-63652297D01*
X93191644Y-63557059D01*
X93191644Y-63271345D01*
X93239263Y-63176107D01*
X93286882Y-63128488D01*
X93382120Y-63080869D01*
X93524977Y-63080869D01*
X93620215Y-63128488D01*
X93667834Y-63176107D01*
X93715454Y-63271345D01*
X93715454Y-63557059D01*
X93667834Y-63652297D01*
X93620215Y-63699916D01*
X93524977Y-63747535D01*
X93382120Y-63747535D01*
X94144025Y-63080869D02*
X94144025Y-63747535D01*
X94144025Y-63176107D02*
X94191644Y-63128488D01*
X94286882Y-63080869D01*
X94429739Y-63080869D01*
X94524977Y-63128488D01*
X94572596Y-63223726D01*
X94572596Y-63747535D01*
X95477358Y-63747535D02*
X95477358Y-62747535D01*
X95477358Y-63699916D02*
X95382120Y-63747535D01*
X95191644Y-63747535D01*
X95096406Y-63699916D01*
X95048787Y-63652297D01*
X95001168Y-63557059D01*
X95001168Y-63271345D01*
X95048787Y-63176107D01*
X95096406Y-63128488D01*
X95191644Y-63080869D01*
X95382120Y-63080869D01*
X95477358Y-63128488D01*
X65868324Y-33405477D02*
X66630229Y-33405477D01*
X66249277Y-33786429D02*
X66249277Y-33024525D01*
X81810360Y-88466150D02*
X81810360Y-87466150D01*
X82191312Y-87466150D01*
X82286550Y-87513770D01*
X82334170Y-87561389D01*
X82381789Y-87656627D01*
X82381789Y-87799484D01*
X82334170Y-87894722D01*
X82286550Y-87942341D01*
X82191312Y-87989960D01*
X81810360Y-87989960D01*
X82810360Y-88466150D02*
X82810360Y-87799484D01*
X82810360Y-87989960D02*
X82857979Y-87894722D01*
X82905598Y-87847103D01*
X83000836Y-87799484D01*
X83096074Y-87799484D01*
X83810360Y-88418531D02*
X83715122Y-88466150D01*
X83524646Y-88466150D01*
X83429408Y-88418531D01*
X83381789Y-88323293D01*
X83381789Y-87942341D01*
X83429408Y-87847103D01*
X83524646Y-87799484D01*
X83715122Y-87799484D01*
X83810360Y-87847103D01*
X83857979Y-87942341D01*
X83857979Y-88037579D01*
X83381789Y-88132817D01*
X84715122Y-88418531D02*
X84619884Y-88466150D01*
X84429408Y-88466150D01*
X84334170Y-88418531D01*
X84286550Y-88370912D01*
X84238931Y-88275674D01*
X84238931Y-87989960D01*
X84286550Y-87894722D01*
X84334170Y-87847103D01*
X84429408Y-87799484D01*
X84619884Y-87799484D01*
X84715122Y-87847103D01*
X85143693Y-88466150D02*
X85143693Y-87466150D01*
X85572265Y-88466150D02*
X85572265Y-87942341D01*
X85524646Y-87847103D01*
X85429408Y-87799484D01*
X85286550Y-87799484D01*
X85191312Y-87847103D01*
X85143693Y-87894722D01*
X86477027Y-88466150D02*
X86477027Y-87942341D01*
X86429408Y-87847103D01*
X86334170Y-87799484D01*
X86143693Y-87799484D01*
X86048455Y-87847103D01*
X86477027Y-88418531D02*
X86381789Y-88466150D01*
X86143693Y-88466150D01*
X86048455Y-88418531D01*
X86000836Y-88323293D01*
X86000836Y-88228055D01*
X86048455Y-88132817D01*
X86143693Y-88085198D01*
X86381789Y-88085198D01*
X86477027Y-88037579D01*
X86953217Y-88466150D02*
X86953217Y-87799484D01*
X86953217Y-87989960D02*
X87000836Y-87894722D01*
X87048455Y-87847103D01*
X87143693Y-87799484D01*
X87238931Y-87799484D01*
X88000836Y-87799484D02*
X88000836Y-88609008D01*
X87953217Y-88704246D01*
X87905598Y-88751865D01*
X87810360Y-88799484D01*
X87667503Y-88799484D01*
X87572265Y-88751865D01*
X88000836Y-88418531D02*
X87905598Y-88466150D01*
X87715122Y-88466150D01*
X87619884Y-88418531D01*
X87572265Y-88370912D01*
X87524646Y-88275674D01*
X87524646Y-87989960D01*
X87572265Y-87894722D01*
X87619884Y-87847103D01*
X87715122Y-87799484D01*
X87905598Y-87799484D01*
X88000836Y-87847103D01*
X88857979Y-88418531D02*
X88762741Y-88466150D01*
X88572265Y-88466150D01*
X88477027Y-88418531D01*
X88429408Y-88323293D01*
X88429408Y-87942341D01*
X88477027Y-87847103D01*
X88572265Y-87799484D01*
X88762741Y-87799484D01*
X88857979Y-87847103D01*
X88905598Y-87942341D01*
X88905598Y-88037579D01*
X88429408Y-88132817D01*
X58324691Y-33034352D02*
X59086596Y-33034352D01*
X118255447Y-32888039D02*
X119017352Y-32888039D01*
X118636399Y-33268991D02*
X118636399Y-32507087D01*
X120017352Y-33268991D02*
X119445923Y-33268991D01*
X119731637Y-33268991D02*
X119731637Y-32268991D01*
X119636399Y-32411849D01*
X119541161Y-32507087D01*
X119445923Y-32554706D01*
X120398304Y-32364230D02*
X120445923Y-32316611D01*
X120541161Y-32268991D01*
X120779256Y-32268991D01*
X120874494Y-32316611D01*
X120922113Y-32364230D01*
X120969732Y-32459468D01*
X120969732Y-32554706D01*
X120922113Y-32697563D01*
X120350685Y-33268991D01*
X120969732Y-33268991D01*
X121255447Y-32268991D02*
X121588780Y-33268991D01*
X121922113Y-32268991D01*
X70136353Y-79215760D02*
X70612543Y-79215760D01*
X70041115Y-79501474D02*
X70374448Y-78501474D01*
X70707781Y-79501474D01*
X71041115Y-79501474D02*
X71041115Y-78834808D01*
X71041115Y-78501474D02*
X70993496Y-78549094D01*
X71041115Y-78596713D01*
X71088734Y-78549094D01*
X71041115Y-78501474D01*
X71041115Y-78596713D01*
X71517305Y-79501474D02*
X71517305Y-78834808D01*
X71517305Y-79025284D02*
X71564924Y-78930046D01*
X71612543Y-78882427D01*
X71707781Y-78834808D01*
X71803019Y-78834808D01*
X72088734Y-78596713D02*
X72136353Y-78549094D01*
X72231591Y-78501474D01*
X72469686Y-78501474D01*
X72564924Y-78549094D01*
X72612543Y-78596713D01*
X72660162Y-78691951D01*
X72660162Y-78787189D01*
X72612543Y-78930046D01*
X72041115Y-79501474D01*
X72660162Y-79501474D01*
X145901591Y-65596809D02*
X145806353Y-65549189D01*
X145663496Y-65549189D01*
X145520638Y-65596809D01*
X145425400Y-65692047D01*
X145377781Y-65787285D01*
X145330162Y-65977761D01*
X145330162Y-66120618D01*
X145377781Y-66311094D01*
X145425400Y-66406332D01*
X145520638Y-66501570D01*
X145663496Y-66549189D01*
X145758734Y-66549189D01*
X145901591Y-66501570D01*
X145949210Y-66453951D01*
X145949210Y-66120618D01*
X145758734Y-66120618D01*
X146377781Y-66549189D02*
X146377781Y-65549189D01*
X146949210Y-66549189D01*
X146949210Y-65549189D01*
X147425400Y-66549189D02*
X147425400Y-65549189D01*
X147663496Y-65549189D01*
X147806353Y-65596809D01*
X147901591Y-65692047D01*
X147949210Y-65787285D01*
X147996829Y-65977761D01*
X147996829Y-66120618D01*
X147949210Y-66311094D01*
X147901591Y-66406332D01*
X147806353Y-66501570D01*
X147663496Y-66549189D01*
X147425400Y-66549189D01*
X70103521Y-88055737D02*
X70579711Y-88055737D01*
X70008283Y-88341451D02*
X70341616Y-87341451D01*
X70674949Y-88341451D01*
X71008283Y-88341451D02*
X71008283Y-87674785D01*
X71008283Y-87341451D02*
X70960664Y-87389071D01*
X71008283Y-87436690D01*
X71055902Y-87389071D01*
X71008283Y-87341451D01*
X71008283Y-87436690D01*
X71484473Y-88341451D02*
X71484473Y-87674785D01*
X71484473Y-87865261D02*
X71532092Y-87770023D01*
X71579711Y-87722404D01*
X71674949Y-87674785D01*
X71770187Y-87674785D01*
X72817806Y-87436690D02*
X72865426Y-87389071D01*
X72960664Y-87341451D01*
X73198759Y-87341451D01*
X73293997Y-87389071D01*
X73341616Y-87436690D01*
X73389235Y-87531928D01*
X73389235Y-87627166D01*
X73341616Y-87770023D01*
X72770187Y-88341451D01*
X73389235Y-88341451D01*
X73817806Y-87960499D02*
X74579711Y-87960499D01*
X74198759Y-88341451D02*
X74198759Y-87579547D01*
X61138079Y-88278945D02*
X61614269Y-88278945D01*
X61042841Y-88564659D02*
X61376174Y-87564659D01*
X61709507Y-88564659D01*
X62042841Y-88564659D02*
X62042841Y-87897993D01*
X62042841Y-87564659D02*
X61995222Y-87612279D01*
X62042841Y-87659898D01*
X62090460Y-87612279D01*
X62042841Y-87564659D01*
X62042841Y-87659898D01*
X62519031Y-88564659D02*
X62519031Y-87897993D01*
X62519031Y-88088469D02*
X62566650Y-87993231D01*
X62614269Y-87945612D01*
X62709507Y-87897993D01*
X62804745Y-87897993D01*
X64423793Y-88564659D02*
X63852364Y-88564659D01*
X64138079Y-88564659D02*
X64138079Y-87564659D01*
X64042841Y-87707517D01*
X63947603Y-87802755D01*
X63852364Y-87850374D01*
X64852364Y-88183707D02*
X65614269Y-88183707D01*
X141845601Y-43366026D02*
X141845601Y-42366026D01*
X142083696Y-42366026D01*
X142226553Y-42413646D01*
X142321791Y-42508884D01*
X142369410Y-42604122D01*
X142417029Y-42794598D01*
X142417029Y-42937455D01*
X142369410Y-43127931D01*
X142321791Y-43223169D01*
X142226553Y-43318407D01*
X142083696Y-43366026D01*
X141845601Y-43366026D01*
X143417029Y-43270788D02*
X143369410Y-43318407D01*
X143226553Y-43366026D01*
X143131315Y-43366026D01*
X142988458Y-43318407D01*
X142893220Y-43223169D01*
X142845601Y-43127931D01*
X142797982Y-42937455D01*
X142797982Y-42794598D01*
X142845601Y-42604122D01*
X142893220Y-42508884D01*
X142988458Y-42413646D01*
X143131315Y-42366026D01*
X143226553Y-42366026D01*
X143369410Y-42413646D01*
X143417029Y-42461265D01*
X143845601Y-42985074D02*
X144607505Y-42985074D01*
X145559886Y-43366026D02*
X145083696Y-43366026D01*
X145083696Y-42366026D01*
X145893220Y-43366026D02*
X145893220Y-42699360D01*
X145893220Y-42366026D02*
X145845601Y-42413646D01*
X145893220Y-42461265D01*
X145940839Y-42413646D01*
X145893220Y-42366026D01*
X145893220Y-42461265D01*
X146369410Y-42699360D02*
X146369410Y-43366026D01*
X146369410Y-42794598D02*
X146417029Y-42746979D01*
X146512267Y-42699360D01*
X146655124Y-42699360D01*
X146750362Y-42746979D01*
X146797982Y-42842217D01*
X146797982Y-43366026D01*
X147274172Y-43366026D02*
X147274172Y-42366026D01*
X147369410Y-42985074D02*
X147655124Y-43366026D01*
X147655124Y-42699360D02*
X147274172Y-43080312D01*
X148845601Y-43366026D02*
X148845601Y-42366026D01*
X149321791Y-42699360D02*
X149321791Y-43366026D01*
X149321791Y-42794598D02*
X149369410Y-42746979D01*
X149464648Y-42699360D01*
X149607505Y-42699360D01*
X149702743Y-42746979D01*
X149750362Y-42842217D01*
X149750362Y-43366026D01*
X103543315Y-34236472D02*
X103876648Y-35236472D01*
X104209981Y-34236472D01*
X104495696Y-34950758D02*
X104971886Y-34950758D01*
X104400458Y-35236472D02*
X104733791Y-34236472D01*
X105067124Y-35236472D01*
X110831306Y-32510588D02*
X110736068Y-32462968D01*
X110593211Y-32462968D01*
X110450353Y-32510588D01*
X110355115Y-32605826D01*
X110307496Y-32701064D01*
X110259877Y-32891540D01*
X110259877Y-33034397D01*
X110307496Y-33224873D01*
X110355115Y-33320111D01*
X110450353Y-33415349D01*
X110593211Y-33462968D01*
X110688449Y-33462968D01*
X110831306Y-33415349D01*
X110878925Y-33367730D01*
X110878925Y-33034397D01*
X110688449Y-33034397D01*
X111307496Y-33462968D02*
X111307496Y-32462968D01*
X111878925Y-33462968D01*
X111878925Y-32462968D01*
X112355115Y-33462968D02*
X112355115Y-32462968D01*
X112593211Y-32462968D01*
X112736068Y-32510588D01*
X112831306Y-32605826D01*
X112878925Y-32701064D01*
X112926544Y-32891540D01*
X112926544Y-33034397D01*
X112878925Y-33224873D01*
X112831306Y-33320111D01*
X112736068Y-33415349D01*
X112593211Y-33462968D01*
X112355115Y-33462968D01*
X118779684Y-48179036D02*
X118922541Y-48226655D01*
X119160636Y-48226655D01*
X119255874Y-48179036D01*
X119303493Y-48131417D01*
X119351112Y-48036179D01*
X119351112Y-47940941D01*
X119303493Y-47845703D01*
X119255874Y-47798084D01*
X119160636Y-47750465D01*
X118970160Y-47702846D01*
X118874922Y-47655227D01*
X118827303Y-47607608D01*
X118779684Y-47512370D01*
X118779684Y-47417132D01*
X118827303Y-47321894D01*
X118874922Y-47274275D01*
X118970160Y-47226655D01*
X119208255Y-47226655D01*
X119351112Y-47274275D01*
X120351112Y-48131417D02*
X120303493Y-48179036D01*
X120160636Y-48226655D01*
X120065398Y-48226655D01*
X119922541Y-48179036D01*
X119827303Y-48083798D01*
X119779684Y-47988560D01*
X119732065Y-47798084D01*
X119732065Y-47655227D01*
X119779684Y-47464751D01*
X119827303Y-47369513D01*
X119922541Y-47274275D01*
X120065398Y-47226655D01*
X120160636Y-47226655D01*
X120303493Y-47274275D01*
X120351112Y-47321894D01*
X120732065Y-48179036D02*
X120874922Y-48226655D01*
X121113017Y-48226655D01*
X121208255Y-48179036D01*
X121255874Y-48131417D01*
X121303493Y-48036179D01*
X121303493Y-47940941D01*
X121255874Y-47845703D01*
X121208255Y-47798084D01*
X121113017Y-47750465D01*
X120922541Y-47702846D01*
X120827303Y-47655227D01*
X120779684Y-47607608D01*
X120732065Y-47512370D01*
X120732065Y-47417132D01*
X120779684Y-47321894D01*
X120827303Y-47274275D01*
X120922541Y-47226655D01*
X121160636Y-47226655D01*
X121303493Y-47274275D01*
X122636827Y-48226655D02*
X122541588Y-48179036D01*
X122493969Y-48083798D01*
X122493969Y-47226655D01*
X123160636Y-48226655D02*
X123065398Y-48179036D01*
X123017779Y-48131417D01*
X122970160Y-48036179D01*
X122970160Y-47750465D01*
X123017779Y-47655227D01*
X123065398Y-47607608D01*
X123160636Y-47559989D01*
X123303493Y-47559989D01*
X123398731Y-47607608D01*
X123446350Y-47655227D01*
X123493969Y-47750465D01*
X123493969Y-48036179D01*
X123446350Y-48131417D01*
X123398731Y-48179036D01*
X123303493Y-48226655D01*
X123160636Y-48226655D01*
X124351112Y-47559989D02*
X124351112Y-48369513D01*
X124303493Y-48464751D01*
X124255874Y-48512370D01*
X124160636Y-48559989D01*
X124017779Y-48559989D01*
X123922541Y-48512370D01*
X124351112Y-48179036D02*
X124255874Y-48226655D01*
X124065398Y-48226655D01*
X123970160Y-48179036D01*
X123922541Y-48131417D01*
X123874922Y-48036179D01*
X123874922Y-47750465D01*
X123922541Y-47655227D01*
X123970160Y-47607608D01*
X124065398Y-47559989D01*
X124255874Y-47559989D01*
X124351112Y-47607608D01*
X142076479Y-44526117D02*
X142838384Y-44526117D01*
X142457431Y-44907069D02*
X142457431Y-44145165D01*
X143838384Y-44907069D02*
X143266955Y-44907069D01*
X143552669Y-44907069D02*
X143552669Y-43907069D01*
X143457431Y-44049927D01*
X143362193Y-44145165D01*
X143266955Y-44192784D01*
X144219336Y-44002308D02*
X144266955Y-43954689D01*
X144362193Y-43907069D01*
X144600288Y-43907069D01*
X144695526Y-43954689D01*
X144743145Y-44002308D01*
X144790764Y-44097546D01*
X144790764Y-44192784D01*
X144743145Y-44335641D01*
X144171717Y-44907069D01*
X144790764Y-44907069D01*
X145076479Y-43907069D02*
X145409812Y-44907069D01*
X145743145Y-43907069D01*
X60674722Y-79138272D02*
X61150912Y-79138272D01*
X60579484Y-79423986D02*
X60912817Y-78423986D01*
X61246150Y-79423986D01*
X61579484Y-79423986D02*
X61579484Y-78757320D01*
X61579484Y-78423986D02*
X61531865Y-78471606D01*
X61579484Y-78519225D01*
X61627103Y-78471606D01*
X61579484Y-78423986D01*
X61579484Y-78519225D01*
X62055674Y-79423986D02*
X62055674Y-78757320D01*
X62055674Y-78947796D02*
X62103293Y-78852558D01*
X62150912Y-78804939D01*
X62246150Y-78757320D01*
X62341388Y-78757320D01*
X63198531Y-79423986D02*
X62627103Y-79423986D01*
X62912817Y-79423986D02*
X62912817Y-78423986D01*
X62817579Y-78566844D01*
X62722341Y-78662082D01*
X62627103Y-78709701D01*
X135243599Y-76175673D02*
X135386456Y-76223292D01*
X135624551Y-76223292D01*
X135719789Y-76175673D01*
X135767408Y-76128054D01*
X135815027Y-76032816D01*
X135815027Y-75937578D01*
X135767408Y-75842340D01*
X135719789Y-75794721D01*
X135624551Y-75747102D01*
X135434075Y-75699483D01*
X135338837Y-75651864D01*
X135291218Y-75604245D01*
X135243599Y-75509007D01*
X135243599Y-75413769D01*
X135291218Y-75318531D01*
X135338837Y-75270912D01*
X135434075Y-75223292D01*
X135672170Y-75223292D01*
X135815027Y-75270912D01*
X136815027Y-76128054D02*
X136767408Y-76175673D01*
X136624551Y-76223292D01*
X136529313Y-76223292D01*
X136386456Y-76175673D01*
X136291218Y-76080435D01*
X136243599Y-75985197D01*
X136195980Y-75794721D01*
X136195980Y-75651864D01*
X136243599Y-75461388D01*
X136291218Y-75366150D01*
X136386456Y-75270912D01*
X136529313Y-75223292D01*
X136624551Y-75223292D01*
X136767408Y-75270912D01*
X136815027Y-75318531D01*
X137195980Y-76175673D02*
X137338837Y-76223292D01*
X137576932Y-76223292D01*
X137672170Y-76175673D01*
X137719789Y-76128054D01*
X137767408Y-76032816D01*
X137767408Y-75937578D01*
X137719789Y-75842340D01*
X137672170Y-75794721D01*
X137576932Y-75747102D01*
X137386456Y-75699483D01*
X137291218Y-75651864D01*
X137243599Y-75604245D01*
X137195980Y-75509007D01*
X137195980Y-75413769D01*
X137243599Y-75318531D01*
X137291218Y-75270912D01*
X137386456Y-75223292D01*
X137624551Y-75223292D01*
X137767408Y-75270912D01*
X144621445Y-67266272D02*
X144526207Y-67218652D01*
X144383349Y-67218652D01*
X144240492Y-67266272D01*
X144145254Y-67361510D01*
X144097635Y-67456748D01*
X144050016Y-67647224D01*
X144050016Y-67790081D01*
X144097635Y-67980557D01*
X144145254Y-68075795D01*
X144240492Y-68171033D01*
X144383349Y-68218652D01*
X144478588Y-68218652D01*
X144621445Y-68171033D01*
X144669064Y-68123414D01*
X144669064Y-67790081D01*
X144478588Y-67790081D01*
X145097635Y-68218652D02*
X145097635Y-67551986D01*
X145097635Y-67742462D02*
X145145254Y-67647224D01*
X145192873Y-67599605D01*
X145288111Y-67551986D01*
X145383349Y-67551986D01*
X146097635Y-68171033D02*
X146002397Y-68218652D01*
X145811921Y-68218652D01*
X145716683Y-68171033D01*
X145669064Y-68075795D01*
X145669064Y-67694843D01*
X145716683Y-67599605D01*
X145811921Y-67551986D01*
X146002397Y-67551986D01*
X146097635Y-67599605D01*
X146145254Y-67694843D01*
X146145254Y-67790081D01*
X145669064Y-67885319D01*
X146954778Y-68171033D02*
X146859540Y-68218652D01*
X146669064Y-68218652D01*
X146573826Y-68171033D01*
X146526207Y-68075795D01*
X146526207Y-67694843D01*
X146573826Y-67599605D01*
X146669064Y-67551986D01*
X146859540Y-67551986D01*
X146954778Y-67599605D01*
X147002397Y-67694843D01*
X147002397Y-67790081D01*
X146526207Y-67885319D01*
X147430968Y-67551986D02*
X147430968Y-68218652D01*
X147430968Y-67647224D02*
X147478588Y-67599605D01*
X147573826Y-67551986D01*
X147716683Y-67551986D01*
X147811921Y-67599605D01*
X147859540Y-67694843D01*
X147859540Y-68218652D01*
X107096183Y-65184928D02*
X107048564Y-65232547D01*
X106905707Y-65280166D01*
X106810469Y-65280166D01*
X106667612Y-65232547D01*
X106572374Y-65137309D01*
X106524755Y-65042071D01*
X106477136Y-64851595D01*
X106477136Y-64708738D01*
X106524755Y-64518262D01*
X106572374Y-64423024D01*
X106667612Y-64327786D01*
X106810469Y-64280166D01*
X106905707Y-64280166D01*
X107048564Y-64327786D01*
X107096183Y-64375405D01*
X108000945Y-65280166D02*
X107524755Y-65280166D01*
X107524755Y-64280166D01*
X108905707Y-65280166D02*
X108572374Y-64803976D01*
X108334279Y-65280166D02*
X108334279Y-64280166D01*
X108715231Y-64280166D01*
X108810469Y-64327786D01*
X108858088Y-64375405D01*
X108905707Y-64470643D01*
X108905707Y-64613500D01*
X108858088Y-64708738D01*
X108810469Y-64756357D01*
X108715231Y-64803976D01*
X108334279Y-64803976D01*
X121861991Y-65520328D02*
X121861991Y-64520328D01*
X122242943Y-64520328D01*
X122338181Y-64567948D01*
X122385800Y-64615567D01*
X122433419Y-64710805D01*
X122433419Y-64853662D01*
X122385800Y-64948900D01*
X122338181Y-64996519D01*
X122242943Y-65044138D01*
X121861991Y-65044138D01*
X123433419Y-65520328D02*
X123100086Y-65044138D01*
X122861991Y-65520328D02*
X122861991Y-64520328D01*
X123242943Y-64520328D01*
X123338181Y-64567948D01*
X123385800Y-64615567D01*
X123433419Y-64710805D01*
X123433419Y-64853662D01*
X123385800Y-64948900D01*
X123338181Y-64996519D01*
X123242943Y-65044138D01*
X122861991Y-65044138D01*
X123861991Y-64996519D02*
X124195324Y-64996519D01*
X124338181Y-65520328D02*
X123861991Y-65520328D01*
X123861991Y-64520328D01*
X124338181Y-64520328D01*
X93948571Y-48712380D02*
X93948571Y-47712380D01*
X94424761Y-48045714D02*
X94424761Y-48712380D01*
X94424761Y-48140952D02*
X94472380Y-48093333D01*
X94567619Y-48045714D01*
X94710476Y-48045714D01*
X94805714Y-48093333D01*
X94853333Y-48188571D01*
X94853333Y-48712380D01*
X95186666Y-48045714D02*
X95567619Y-48045714D01*
X95329523Y-47712380D02*
X95329523Y-48569523D01*
X95377142Y-48664761D01*
X95472380Y-48712380D01*
X95567619Y-48712380D01*
X96615238Y-48426666D02*
X97091428Y-48426666D01*
X96520000Y-48712380D02*
X96853333Y-47712380D01*
X97186666Y-48712380D01*
X97520000Y-48712380D02*
X97520000Y-48045714D01*
X97520000Y-47712380D02*
X97472380Y-47760000D01*
X97520000Y-47807619D01*
X97567619Y-47760000D01*
X97520000Y-47712380D01*
X97520000Y-47807619D01*
X97996190Y-48712380D02*
X97996190Y-48045714D01*
X97996190Y-48236190D02*
X98043809Y-48140952D01*
X98091428Y-48093333D01*
X98186666Y-48045714D01*
X98281904Y-48045714D01*
X99139047Y-48712380D02*
X98567619Y-48712380D01*
X98853333Y-48712380D02*
X98853333Y-47712380D01*
X98758095Y-47855238D01*
X98662857Y-47950476D01*
X98567619Y-47998095D01*
X97716393Y-26526616D02*
X98192584Y-26526616D01*
X97621155Y-26812330D02*
X97954488Y-25812330D01*
X98287822Y-26812330D01*
X98621155Y-26812330D02*
X98621155Y-26145664D01*
X98621155Y-25812330D02*
X98573536Y-25859950D01*
X98621155Y-25907569D01*
X98668774Y-25859950D01*
X98621155Y-25812330D01*
X98621155Y-25907569D01*
X99097345Y-26812330D02*
X99097345Y-26145664D01*
X99097345Y-26336140D02*
X99144965Y-26240902D01*
X99192584Y-26193283D01*
X99287822Y-26145664D01*
X99383060Y-26145664D01*
X100335441Y-25812330D02*
X100668774Y-26812330D01*
X101002107Y-25812330D01*
X101478298Y-26812330D02*
X101383060Y-26764711D01*
X101335441Y-26717092D01*
X101287822Y-26621854D01*
X101287822Y-26336140D01*
X101335441Y-26240902D01*
X101383060Y-26193283D01*
X101478298Y-26145664D01*
X101621155Y-26145664D01*
X101716393Y-26193283D01*
X101764012Y-26240902D01*
X101811631Y-26336140D01*
X101811631Y-26621854D01*
X101764012Y-26717092D01*
X101716393Y-26764711D01*
X101621155Y-26812330D01*
X101478298Y-26812330D01*
X102383060Y-26812330D02*
X102287822Y-26764711D01*
X102240203Y-26669473D01*
X102240203Y-25812330D01*
X102621155Y-26145664D02*
X103002107Y-26145664D01*
X102764012Y-25812330D02*
X102764012Y-26669473D01*
X102811631Y-26764711D01*
X102906869Y-26812330D01*
X103002107Y-26812330D01*
X103764012Y-26812330D02*
X103764012Y-26288521D01*
X103716393Y-26193283D01*
X103621155Y-26145664D01*
X103430679Y-26145664D01*
X103335441Y-26193283D01*
X103764012Y-26764711D02*
X103668774Y-26812330D01*
X103430679Y-26812330D01*
X103335441Y-26764711D01*
X103287822Y-26669473D01*
X103287822Y-26574235D01*
X103335441Y-26478997D01*
X103430679Y-26431378D01*
X103668774Y-26431378D01*
X103764012Y-26383759D01*
X104668774Y-26145664D02*
X104668774Y-26955188D01*
X104621155Y-27050426D01*
X104573536Y-27098045D01*
X104478298Y-27145664D01*
X104335441Y-27145664D01*
X104240203Y-27098045D01*
X104668774Y-26764711D02*
X104573536Y-26812330D01*
X104383060Y-26812330D01*
X104287822Y-26764711D01*
X104240203Y-26717092D01*
X104192584Y-26621854D01*
X104192584Y-26336140D01*
X104240203Y-26240902D01*
X104287822Y-26193283D01*
X104383060Y-26145664D01*
X104573536Y-26145664D01*
X104668774Y-26193283D01*
X105525917Y-26764711D02*
X105430679Y-26812330D01*
X105240203Y-26812330D01*
X105144965Y-26764711D01*
X105097345Y-26669473D01*
X105097345Y-26288521D01*
X105144965Y-26193283D01*
X105240203Y-26145664D01*
X105430679Y-26145664D01*
X105525917Y-26193283D01*
X105573536Y-26288521D01*
X105573536Y-26383759D01*
X105097345Y-26478997D01*
X97751718Y-34367225D02*
X97656480Y-34319605D01*
X97513623Y-34319605D01*
X97370765Y-34367225D01*
X97275527Y-34462463D01*
X97227908Y-34557701D01*
X97180289Y-34748177D01*
X97180289Y-34891034D01*
X97227908Y-35081510D01*
X97275527Y-35176748D01*
X97370765Y-35271986D01*
X97513623Y-35319605D01*
X97608861Y-35319605D01*
X97751718Y-35271986D01*
X97799337Y-35224367D01*
X97799337Y-34891034D01*
X97608861Y-34891034D01*
X98227908Y-35319605D02*
X98227908Y-34319605D01*
X98799337Y-35319605D01*
X98799337Y-34319605D01*
X99275527Y-35319605D02*
X99275527Y-34319605D01*
X99513623Y-34319605D01*
X99656480Y-34367225D01*
X99751718Y-34462463D01*
X99799337Y-34557701D01*
X99846956Y-34748177D01*
X99846956Y-34891034D01*
X99799337Y-35081510D01*
X99751718Y-35176748D01*
X99656480Y-35271986D01*
X99513623Y-35319605D01*
X99275527Y-35319605D01*
X86186164Y-72713829D02*
X86186164Y-71713829D01*
X86567116Y-71713829D01*
X86662354Y-71761449D01*
X86709973Y-71809068D01*
X86757592Y-71904306D01*
X86757592Y-72047163D01*
X86709973Y-72142401D01*
X86662354Y-72190020D01*
X86567116Y-72237639D01*
X86186164Y-72237639D01*
X87186164Y-72713829D02*
X87186164Y-72047163D01*
X87186164Y-72237639D02*
X87233783Y-72142401D01*
X87281402Y-72094782D01*
X87376640Y-72047163D01*
X87471878Y-72047163D01*
X88186164Y-72666210D02*
X88090925Y-72713829D01*
X87900449Y-72713829D01*
X87805211Y-72666210D01*
X87757592Y-72570972D01*
X87757592Y-72190020D01*
X87805211Y-72094782D01*
X87900449Y-72047163D01*
X88090925Y-72047163D01*
X88186164Y-72094782D01*
X88233783Y-72190020D01*
X88233783Y-72285258D01*
X87757592Y-72380496D01*
X89166333Y-33008295D02*
X89928238Y-33008295D01*
X89547286Y-33389247D02*
X89547286Y-32627343D01*
X147185927Y-35336265D02*
X147090689Y-35288645D01*
X146947832Y-35288645D01*
X146804974Y-35336265D01*
X146709736Y-35431503D01*
X146662117Y-35526741D01*
X146614498Y-35717217D01*
X146614498Y-35860074D01*
X146662117Y-36050550D01*
X146709736Y-36145788D01*
X146804974Y-36241026D01*
X146947832Y-36288645D01*
X147043070Y-36288645D01*
X147185927Y-36241026D01*
X147233546Y-36193407D01*
X147233546Y-35860074D01*
X147043070Y-35860074D01*
X147662117Y-36288645D02*
X147662117Y-35288645D01*
X148233546Y-36288645D01*
X148233546Y-35288645D01*
X148709736Y-36288645D02*
X148709736Y-35288645D01*
X148947832Y-35288645D01*
X149090689Y-35336265D01*
X149185927Y-35431503D01*
X149233546Y-35526741D01*
X149281165Y-35717217D01*
X149281165Y-35860074D01*
X149233546Y-36050550D01*
X149185927Y-36145788D01*
X149090689Y-36241026D01*
X148947832Y-36288645D01*
X148709736Y-36288645D01*
X81462857Y-48712380D02*
X81462857Y-47712380D01*
X81939047Y-48045714D02*
X81939047Y-48712380D01*
X81939047Y-48140952D02*
X81986666Y-48093333D01*
X82081904Y-48045714D01*
X82224761Y-48045714D01*
X82320000Y-48093333D01*
X82367619Y-48188571D01*
X82367619Y-48712380D01*
X82700952Y-48045714D02*
X83081904Y-48045714D01*
X82843809Y-47712380D02*
X82843809Y-48569523D01*
X82891428Y-48664761D01*
X82986666Y-48712380D01*
X83081904Y-48712380D01*
X84177142Y-48712380D02*
X84177142Y-47712380D01*
X84558095Y-47712380D01*
X84653333Y-47760000D01*
X84700952Y-47807619D01*
X84748571Y-47902857D01*
X84748571Y-48045714D01*
X84700952Y-48140952D01*
X84653333Y-48188571D01*
X84558095Y-48236190D01*
X84177142Y-48236190D01*
X85177142Y-48712380D02*
X85177142Y-48045714D01*
X85177142Y-48236190D02*
X85224761Y-48140952D01*
X85272380Y-48093333D01*
X85367619Y-48045714D01*
X85462857Y-48045714D01*
X86177142Y-48664761D02*
X86081904Y-48712380D01*
X85891428Y-48712380D01*
X85796190Y-48664761D01*
X85748571Y-48569523D01*
X85748571Y-48188571D01*
X85796190Y-48093333D01*
X85891428Y-48045714D01*
X86081904Y-48045714D01*
X86177142Y-48093333D01*
X86224761Y-48188571D01*
X86224761Y-48283809D01*
X85748571Y-48379047D01*
X59015227Y-26880141D02*
X59015227Y-25880141D01*
X59491417Y-26213475D02*
X59491417Y-26880141D01*
X59491417Y-26308713D02*
X59539036Y-26261094D01*
X59634275Y-26213475D01*
X59777132Y-26213475D01*
X59872370Y-26261094D01*
X59919989Y-26356332D01*
X59919989Y-26880141D01*
X60253322Y-26213475D02*
X60634275Y-26213475D01*
X60396179Y-25880141D02*
X60396179Y-26737284D01*
X60443798Y-26832522D01*
X60539036Y-26880141D01*
X60634275Y-26880141D01*
X61681894Y-26594427D02*
X62158084Y-26594427D01*
X61586656Y-26880141D02*
X61919989Y-25880141D01*
X62253322Y-26880141D01*
X62586656Y-26880141D02*
X62586656Y-26213475D01*
X62586656Y-25880141D02*
X62539036Y-25927761D01*
X62586656Y-25975380D01*
X62634275Y-25927761D01*
X62586656Y-25880141D01*
X62586656Y-25975380D01*
X63062846Y-26880141D02*
X63062846Y-26213475D01*
X63062846Y-26403951D02*
X63110465Y-26308713D01*
X63158084Y-26261094D01*
X63253322Y-26213475D01*
X63348560Y-26213475D01*
X64396179Y-25975380D02*
X64443798Y-25927761D01*
X64539036Y-25880141D01*
X64777132Y-25880141D01*
X64872370Y-25927761D01*
X64919989Y-25975380D01*
X64967608Y-26070618D01*
X64967608Y-26165856D01*
X64919989Y-26308713D01*
X64348560Y-26880141D01*
X64967608Y-26880141D01*
X65396179Y-26499189D02*
X66158084Y-26499189D01*
X65777132Y-26880141D02*
X65777132Y-26118237D01*
X144919645Y-52018353D02*
X144586312Y-51542163D01*
X144348216Y-52018353D02*
X144348216Y-51018353D01*
X144729169Y-51018353D01*
X144824407Y-51065973D01*
X144872026Y-51113592D01*
X144919645Y-51208830D01*
X144919645Y-51351687D01*
X144872026Y-51446925D01*
X144824407Y-51494544D01*
X144729169Y-51542163D01*
X144348216Y-51542163D01*
X145729169Y-51970734D02*
X145633931Y-52018353D01*
X145443454Y-52018353D01*
X145348216Y-51970734D01*
X145300597Y-51875496D01*
X145300597Y-51494544D01*
X145348216Y-51399306D01*
X145443454Y-51351687D01*
X145633931Y-51351687D01*
X145729169Y-51399306D01*
X145776788Y-51494544D01*
X145776788Y-51589782D01*
X145300597Y-51685020D01*
X146633931Y-52018353D02*
X146633931Y-51018353D01*
X146633931Y-51970734D02*
X146538693Y-52018353D01*
X146348216Y-52018353D01*
X146252978Y-51970734D01*
X146205359Y-51923115D01*
X146157740Y-51827877D01*
X146157740Y-51542163D01*
X146205359Y-51446925D01*
X146252978Y-51399306D01*
X146348216Y-51351687D01*
X146538693Y-51351687D01*
X146633931Y-51399306D01*
X111391591Y-26620469D02*
X111867781Y-26620469D01*
X111296352Y-26906183D02*
X111629686Y-25906183D01*
X111963019Y-26906183D01*
X112439210Y-26906183D02*
X112343972Y-26858564D01*
X112296352Y-26763326D01*
X112296352Y-25906183D01*
X112820162Y-26906183D02*
X112820162Y-26239517D01*
X112820162Y-25906183D02*
X112772543Y-25953803D01*
X112820162Y-26001422D01*
X112867781Y-25953803D01*
X112820162Y-25906183D01*
X112820162Y-26001422D01*
X113296352Y-26906183D02*
X113296352Y-26239517D01*
X113296352Y-26334755D02*
X113343972Y-26287136D01*
X113439210Y-26239517D01*
X113582067Y-26239517D01*
X113677305Y-26287136D01*
X113724924Y-26382374D01*
X113724924Y-26906183D01*
X113724924Y-26382374D02*
X113772543Y-26287136D01*
X113867781Y-26239517D01*
X114010638Y-26239517D01*
X114105876Y-26287136D01*
X114153495Y-26382374D01*
X114153495Y-26906183D01*
X115010638Y-26858564D02*
X114915400Y-26906183D01*
X114724924Y-26906183D01*
X114629686Y-26858564D01*
X114582067Y-26763326D01*
X114582067Y-26382374D01*
X114629686Y-26287136D01*
X114724924Y-26239517D01*
X114915400Y-26239517D01*
X115010638Y-26287136D01*
X115058257Y-26382374D01*
X115058257Y-26477612D01*
X114582067Y-26572850D01*
X115486829Y-26239517D02*
X115486829Y-26906183D01*
X115486829Y-26334755D02*
X115534448Y-26287136D01*
X115629686Y-26239517D01*
X115772543Y-26239517D01*
X115867781Y-26287136D01*
X115915400Y-26382374D01*
X115915400Y-26906183D01*
X116248733Y-26239517D02*
X116629686Y-26239517D01*
X116391591Y-25906183D02*
X116391591Y-26763326D01*
X116439210Y-26858564D01*
X116534448Y-26906183D01*
X116629686Y-26906183D01*
X117391591Y-26906183D02*
X117391591Y-26382374D01*
X117343972Y-26287136D01*
X117248733Y-26239517D01*
X117058257Y-26239517D01*
X116963019Y-26287136D01*
X117391591Y-26858564D02*
X117296352Y-26906183D01*
X117058257Y-26906183D01*
X116963019Y-26858564D01*
X116915400Y-26763326D01*
X116915400Y-26668088D01*
X116963019Y-26572850D01*
X117058257Y-26525231D01*
X117296352Y-26525231D01*
X117391591Y-26477612D01*
X117724924Y-26239517D02*
X118105876Y-26239517D01*
X117867781Y-25906183D02*
X117867781Y-26763326D01*
X117915400Y-26858564D01*
X118010638Y-26906183D01*
X118105876Y-26906183D01*
X118439210Y-26906183D02*
X118439210Y-26239517D01*
X118439210Y-25906183D02*
X118391591Y-25953803D01*
X118439210Y-26001422D01*
X118486829Y-25953803D01*
X118439210Y-25906183D01*
X118439210Y-26001422D01*
X119058257Y-26906183D02*
X118963019Y-26858564D01*
X118915400Y-26810945D01*
X118867781Y-26715707D01*
X118867781Y-26429993D01*
X118915400Y-26334755D01*
X118963019Y-26287136D01*
X119058257Y-26239517D01*
X119201114Y-26239517D01*
X119296352Y-26287136D01*
X119343972Y-26334755D01*
X119391591Y-26429993D01*
X119391591Y-26715707D01*
X119343972Y-26810945D01*
X119296352Y-26858564D01*
X119201114Y-26906183D01*
X119058257Y-26906183D01*
X119820162Y-26239517D02*
X119820162Y-26906183D01*
X119820162Y-26334755D02*
X119867781Y-26287136D01*
X119963019Y-26239517D01*
X120105876Y-26239517D01*
X120201114Y-26287136D01*
X120248733Y-26382374D01*
X120248733Y-26906183D01*
X100303828Y-34855520D02*
X101065733Y-34855520D01*
X100684781Y-35236472D02*
X100684781Y-34474568D01*
X102018114Y-34236472D02*
X101541923Y-34236472D01*
X101494304Y-34712663D01*
X101541923Y-34665044D01*
X101637162Y-34617425D01*
X101875257Y-34617425D01*
X101970495Y-34665044D01*
X102018114Y-34712663D01*
X102065733Y-34807901D01*
X102065733Y-35045996D01*
X102018114Y-35141234D01*
X101970495Y-35188853D01*
X101875257Y-35236472D01*
X101637162Y-35236472D01*
X101541923Y-35188853D01*
X101494304Y-35141234D01*
X102351447Y-34236472D02*
X102684781Y-35236472D01*
X103018114Y-34236472D01*
X76613254Y-33091428D02*
X77375159Y-33091428D01*
X76994207Y-33472380D02*
X76994207Y-32710476D01*
X131666209Y-36538845D02*
X131666209Y-35538845D01*
X131904304Y-35538845D01*
X132047161Y-35586465D01*
X132142399Y-35681703D01*
X132190018Y-35776941D01*
X132237638Y-35967417D01*
X132237638Y-36110274D01*
X132190018Y-36300750D01*
X132142399Y-36395988D01*
X132047161Y-36491226D01*
X131904304Y-36538845D01*
X131666209Y-36538845D01*
X133237638Y-36443607D02*
X133190018Y-36491226D01*
X133047161Y-36538845D01*
X132951923Y-36538845D01*
X132809066Y-36491226D01*
X132713828Y-36395988D01*
X132666209Y-36300750D01*
X132618590Y-36110274D01*
X132618590Y-35967417D01*
X132666209Y-35776941D01*
X132713828Y-35681703D01*
X132809066Y-35586465D01*
X132951923Y-35538845D01*
X133047161Y-35538845D01*
X133190018Y-35586465D01*
X133237638Y-35634084D01*
X134570971Y-36538845D02*
X134475733Y-36491226D01*
X134428114Y-36395988D01*
X134428114Y-35538845D01*
X134951923Y-36538845D02*
X134951923Y-35872179D01*
X134951923Y-35538845D02*
X134904304Y-35586465D01*
X134951923Y-35634084D01*
X134999542Y-35586465D01*
X134951923Y-35538845D01*
X134951923Y-35634084D01*
X135428114Y-35872179D02*
X135428114Y-36538845D01*
X135428114Y-35967417D02*
X135475733Y-35919798D01*
X135570971Y-35872179D01*
X135713828Y-35872179D01*
X135809066Y-35919798D01*
X135856685Y-36015036D01*
X135856685Y-36538845D01*
X136332876Y-36538845D02*
X136332876Y-35538845D01*
X136428114Y-36157893D02*
X136713828Y-36538845D01*
X136713828Y-35872179D02*
X136332876Y-36253131D01*
X137904304Y-36538845D02*
X137904304Y-35538845D01*
X138380495Y-35872179D02*
X138380495Y-36538845D01*
X138380495Y-35967417D02*
X138428114Y-35919798D01*
X138523352Y-35872179D01*
X138666209Y-35872179D01*
X138761447Y-35919798D01*
X138809066Y-36015036D01*
X138809066Y-36538845D01*
X82804780Y-27006307D02*
X82804780Y-26006307D01*
X83280970Y-26339641D02*
X83280970Y-27006307D01*
X83280970Y-26434879D02*
X83328589Y-26387260D01*
X83423828Y-26339641D01*
X83566685Y-26339641D01*
X83661923Y-26387260D01*
X83709542Y-26482498D01*
X83709542Y-27006307D01*
X84042875Y-26339641D02*
X84423828Y-26339641D01*
X84185732Y-26006307D02*
X84185732Y-26863450D01*
X84233351Y-26958688D01*
X84328589Y-27006307D01*
X84423828Y-27006307D01*
X85471447Y-26720593D02*
X85947637Y-26720593D01*
X85376209Y-27006307D02*
X85709542Y-26006307D01*
X86042875Y-27006307D01*
X86376209Y-27006307D02*
X86376209Y-26339641D01*
X86376209Y-26006307D02*
X86328589Y-26053927D01*
X86376209Y-26101546D01*
X86423828Y-26053927D01*
X86376209Y-26006307D01*
X86376209Y-26101546D01*
X86852399Y-27006307D02*
X86852399Y-26339641D01*
X86852399Y-26530117D02*
X86900018Y-26434879D01*
X86947637Y-26387260D01*
X87042875Y-26339641D01*
X87138113Y-26339641D01*
X88757161Y-27006307D02*
X88185732Y-27006307D01*
X88471447Y-27006307D02*
X88471447Y-26006307D01*
X88376209Y-26149165D01*
X88280970Y-26244403D01*
X88185732Y-26292022D01*
X89185732Y-26625355D02*
X89947637Y-26625355D01*
X144197658Y-58139594D02*
X144959563Y-58139594D01*
X144578610Y-58520546D02*
X144578610Y-57758642D01*
X145959563Y-58520546D02*
X145388134Y-58520546D01*
X145673848Y-58520546D02*
X145673848Y-57520546D01*
X145578610Y-57663404D01*
X145483372Y-57758642D01*
X145388134Y-57806261D01*
X146340515Y-57615785D02*
X146388134Y-57568166D01*
X146483372Y-57520546D01*
X146721467Y-57520546D01*
X146816705Y-57568166D01*
X146864324Y-57615785D01*
X146911943Y-57711023D01*
X146911943Y-57806261D01*
X146864324Y-57949118D01*
X146292896Y-58520546D01*
X146911943Y-58520546D01*
X147197658Y-57520546D02*
X147530991Y-58520546D01*
X147864324Y-57520546D01*
X68548571Y-48712380D02*
X68548571Y-47712380D01*
X69024761Y-48045714D02*
X69024761Y-48712380D01*
X69024761Y-48140952D02*
X69072380Y-48093333D01*
X69167619Y-48045714D01*
X69310476Y-48045714D01*
X69405714Y-48093333D01*
X69453333Y-48188571D01*
X69453333Y-48712380D01*
X69786666Y-48045714D02*
X70167619Y-48045714D01*
X69929523Y-47712380D02*
X69929523Y-48569523D01*
X69977142Y-48664761D01*
X70072380Y-48712380D01*
X70167619Y-48712380D01*
X71215238Y-48426666D02*
X71691428Y-48426666D01*
X71120000Y-48712380D02*
X71453333Y-47712380D01*
X71786666Y-48712380D01*
X72120000Y-48712380D02*
X72120000Y-48045714D01*
X72120000Y-47712380D02*
X72072380Y-47760000D01*
X72120000Y-47807619D01*
X72167619Y-47760000D01*
X72120000Y-47712380D01*
X72120000Y-47807619D01*
X72596190Y-48712380D02*
X72596190Y-48045714D01*
X72596190Y-48236190D02*
X72643809Y-48140952D01*
X72691428Y-48093333D01*
X72786666Y-48045714D01*
X72881904Y-48045714D01*
X73167619Y-47807619D02*
X73215238Y-47760000D01*
X73310476Y-47712380D01*
X73548571Y-47712380D01*
X73643809Y-47760000D01*
X73691428Y-47807619D01*
X73739047Y-47902857D01*
X73739047Y-47998095D01*
X73691428Y-48140952D01*
X73120000Y-48712380D01*
X73739047Y-48712380D01*
X69921050Y-33049861D02*
X70682955Y-33049861D01*
X147870968Y-51155468D02*
X147775730Y-51107848D01*
X147632873Y-51107848D01*
X147490015Y-51155468D01*
X147394777Y-51250706D01*
X147347158Y-51345944D01*
X147299539Y-51536420D01*
X147299539Y-51679277D01*
X147347158Y-51869753D01*
X147394777Y-51964991D01*
X147490015Y-52060229D01*
X147632873Y-52107848D01*
X147728111Y-52107848D01*
X147870968Y-52060229D01*
X147918587Y-52012610D01*
X147918587Y-51679277D01*
X147728111Y-51679277D01*
X148347158Y-52107848D02*
X148347158Y-51107848D01*
X148918587Y-52107848D01*
X148918587Y-51107848D01*
X149394777Y-52107848D02*
X149394777Y-51107848D01*
X149632873Y-51107848D01*
X149775730Y-51155468D01*
X149870968Y-51250706D01*
X149918587Y-51345944D01*
X149966206Y-51536420D01*
X149966206Y-51679277D01*
X149918587Y-51869753D01*
X149870968Y-51964991D01*
X149775730Y-52060229D01*
X149632873Y-52107848D01*
X149394777Y-52107848D01*
X108397293Y-41635311D02*
X108730626Y-42635311D01*
X109063959Y-41635311D01*
X109540150Y-42635311D02*
X109444912Y-42587692D01*
X109397293Y-42540073D01*
X109349674Y-42444835D01*
X109349674Y-42159121D01*
X109397293Y-42063883D01*
X109444912Y-42016264D01*
X109540150Y-41968645D01*
X109683007Y-41968645D01*
X109778245Y-42016264D01*
X109825864Y-42063883D01*
X109873483Y-42159121D01*
X109873483Y-42444835D01*
X109825864Y-42540073D01*
X109778245Y-42587692D01*
X109683007Y-42635311D01*
X109540150Y-42635311D01*
X110444912Y-42635311D02*
X110349674Y-42587692D01*
X110302055Y-42492454D01*
X110302055Y-41635311D01*
X110683007Y-41968645D02*
X111063959Y-41968645D01*
X110825864Y-41635311D02*
X110825864Y-42492454D01*
X110873483Y-42587692D01*
X110968721Y-42635311D01*
X111063959Y-42635311D01*
X111825864Y-42635311D02*
X111825864Y-42111502D01*
X111778245Y-42016264D01*
X111683007Y-41968645D01*
X111492531Y-41968645D01*
X111397293Y-42016264D01*
X111825864Y-42587692D02*
X111730626Y-42635311D01*
X111492531Y-42635311D01*
X111397293Y-42587692D01*
X111349674Y-42492454D01*
X111349674Y-42397216D01*
X111397293Y-42301978D01*
X111492531Y-42254359D01*
X111730626Y-42254359D01*
X111825864Y-42206740D01*
X112730626Y-41968645D02*
X112730626Y-42778169D01*
X112683007Y-42873407D01*
X112635388Y-42921026D01*
X112540150Y-42968645D01*
X112397293Y-42968645D01*
X112302055Y-42921026D01*
X112730626Y-42587692D02*
X112635388Y-42635311D01*
X112444912Y-42635311D01*
X112349674Y-42587692D01*
X112302055Y-42540073D01*
X112254436Y-42444835D01*
X112254436Y-42159121D01*
X112302055Y-42063883D01*
X112349674Y-42016264D01*
X112444912Y-41968645D01*
X112635388Y-41968645D01*
X112730626Y-42016264D01*
X113587769Y-42587692D02*
X113492531Y-42635311D01*
X113302055Y-42635311D01*
X113206817Y-42587692D01*
X113159198Y-42492454D01*
X113159198Y-42111502D01*
X113206817Y-42016264D01*
X113302055Y-41968645D01*
X113492531Y-41968645D01*
X113587769Y-42016264D01*
X113635388Y-42111502D01*
X113635388Y-42206740D01*
X113159198Y-42301978D01*
X114778245Y-42349597D02*
X115254436Y-42349597D01*
X114683007Y-42635311D02*
X115016340Y-41635311D01*
X115349674Y-42635311D01*
X115683007Y-42635311D02*
X115683007Y-41635311D01*
X116730626Y-42635311D02*
X116397293Y-42159121D01*
X116159198Y-42635311D02*
X116159198Y-41635311D01*
X116540150Y-41635311D01*
X116635388Y-41682931D01*
X116683007Y-41730550D01*
X116730626Y-41825788D01*
X116730626Y-41968645D01*
X116683007Y-42063883D01*
X116635388Y-42111502D01*
X116540150Y-42159121D01*
X116159198Y-42159121D01*
D11*
%TO.C,R12*%
X132458989Y-74981774D02*
X131854227Y-75405107D01*
X132458989Y-75707488D02*
X131188989Y-75707488D01*
X131188989Y-75223679D01*
X131249466Y-75102726D01*
X131309942Y-75042250D01*
X131430894Y-74981774D01*
X131612323Y-74981774D01*
X131733275Y-75042250D01*
X131793751Y-75102726D01*
X131854227Y-75223679D01*
X131854227Y-75707488D01*
X132458989Y-73772250D02*
X132458989Y-74497965D01*
X132458989Y-74135107D02*
X131188989Y-74135107D01*
X131370418Y-74256060D01*
X131491370Y-74377012D01*
X131551846Y-74497965D01*
X131309942Y-73288441D02*
X131249466Y-73227965D01*
X131188989Y-73107012D01*
X131188989Y-72804631D01*
X131249466Y-72683679D01*
X131309942Y-72623203D01*
X131430894Y-72562726D01*
X131551846Y-72562726D01*
X131733275Y-72623203D01*
X132458989Y-73348917D01*
X132458989Y-72562726D01*
D10*
%TO.C,D6*%
X88768679Y-70724290D02*
X88768679Y-69724290D01*
X89006775Y-69724290D01*
X89149632Y-69771910D01*
X89244870Y-69867148D01*
X89292489Y-69962386D01*
X89340108Y-70152862D01*
X89340108Y-70295719D01*
X89292489Y-70486195D01*
X89244870Y-70581433D01*
X89149632Y-70676671D01*
X89006775Y-70724290D01*
X88768679Y-70724290D01*
X90197251Y-69724290D02*
X90006775Y-69724290D01*
X89911536Y-69771910D01*
X89863917Y-69819529D01*
X89768679Y-69962386D01*
X89721060Y-70152862D01*
X89721060Y-70533814D01*
X89768679Y-70629052D01*
X89816298Y-70676671D01*
X89911536Y-70724290D01*
X90102013Y-70724290D01*
X90197251Y-70676671D01*
X90244870Y-70629052D01*
X90292489Y-70533814D01*
X90292489Y-70295719D01*
X90244870Y-70200481D01*
X90197251Y-70152862D01*
X90102013Y-70105243D01*
X89911536Y-70105243D01*
X89816298Y-70152862D01*
X89768679Y-70200481D01*
X89721060Y-70295719D01*
%TO.C,TP4*%
X106591800Y-62617507D02*
X107163228Y-62617507D01*
X106877514Y-63617507D02*
X106877514Y-62617507D01*
X107496562Y-63617507D02*
X107496562Y-62617507D01*
X107877514Y-62617507D01*
X107972752Y-62665127D01*
X108020371Y-62712746D01*
X108067990Y-62807984D01*
X108067990Y-62950841D01*
X108020371Y-63046079D01*
X107972752Y-63093698D01*
X107877514Y-63141317D01*
X107496562Y-63141317D01*
X108925133Y-62950841D02*
X108925133Y-63617507D01*
X108687038Y-62569888D02*
X108448943Y-63284174D01*
X109067990Y-63284174D01*
D11*
%TO.C,R2*%
X101302510Y-73387379D02*
X100697748Y-73810713D01*
X101302510Y-74113093D02*
X100032510Y-74113093D01*
X100032510Y-73629284D01*
X100092987Y-73508332D01*
X100153463Y-73447855D01*
X100274415Y-73387379D01*
X100455844Y-73387379D01*
X100576796Y-73447855D01*
X100637272Y-73508332D01*
X100697748Y-73629284D01*
X100697748Y-74113093D01*
X100153463Y-72903570D02*
X100092987Y-72843093D01*
X100032510Y-72722141D01*
X100032510Y-72419760D01*
X100092987Y-72298808D01*
X100153463Y-72238332D01*
X100274415Y-72177855D01*
X100395367Y-72177855D01*
X100576796Y-72238332D01*
X101302510Y-72964046D01*
X101302510Y-72177855D01*
D10*
%TO.C,TP2*%
X124252939Y-67199057D02*
X124824367Y-67199057D01*
X124538653Y-68199057D02*
X124538653Y-67199057D01*
X125157701Y-68199057D02*
X125157701Y-67199057D01*
X125538653Y-67199057D01*
X125633891Y-67246677D01*
X125681510Y-67294296D01*
X125729129Y-67389534D01*
X125729129Y-67532391D01*
X125681510Y-67627629D01*
X125633891Y-67675248D01*
X125538653Y-67722867D01*
X125157701Y-67722867D01*
X126110082Y-67294296D02*
X126157701Y-67246677D01*
X126252939Y-67199057D01*
X126491034Y-67199057D01*
X126586272Y-67246677D01*
X126633891Y-67294296D01*
X126681510Y-67389534D01*
X126681510Y-67484772D01*
X126633891Y-67627629D01*
X126062463Y-68199057D01*
X126681510Y-68199057D01*
D11*
%TO.C,C19*%
X61525110Y-61528796D02*
X61464634Y-61589272D01*
X61283205Y-61649748D01*
X61162253Y-61649748D01*
X60980824Y-61589272D01*
X60859872Y-61468320D01*
X60799396Y-61347367D01*
X60738919Y-61105463D01*
X60738919Y-60924034D01*
X60799396Y-60682129D01*
X60859872Y-60561177D01*
X60980824Y-60440225D01*
X61162253Y-60379748D01*
X61283205Y-60379748D01*
X61464634Y-60440225D01*
X61525110Y-60500701D01*
X62734634Y-61649748D02*
X62008919Y-61649748D01*
X62371777Y-61649748D02*
X62371777Y-60379748D01*
X62250824Y-60561177D01*
X62129872Y-60682129D01*
X62008919Y-60742605D01*
X63339396Y-61649748D02*
X63581300Y-61649748D01*
X63702253Y-61589272D01*
X63762729Y-61528796D01*
X63883681Y-61347367D01*
X63944158Y-61105463D01*
X63944158Y-60621653D01*
X63883681Y-60500701D01*
X63823205Y-60440225D01*
X63702253Y-60379748D01*
X63460348Y-60379748D01*
X63339396Y-60440225D01*
X63278919Y-60500701D01*
X63218443Y-60621653D01*
X63218443Y-60924034D01*
X63278919Y-61044986D01*
X63339396Y-61105463D01*
X63460348Y-61165939D01*
X63702253Y-61165939D01*
X63823205Y-61105463D01*
X63883681Y-61044986D01*
X63944158Y-60924034D01*
%TO.C,C7*%
X74601241Y-67387624D02*
X74661717Y-67448100D01*
X74722193Y-67629529D01*
X74722193Y-67750481D01*
X74661717Y-67931910D01*
X74540765Y-68052862D01*
X74419812Y-68113338D01*
X74177908Y-68173815D01*
X73996479Y-68173815D01*
X73754574Y-68113338D01*
X73633622Y-68052862D01*
X73512670Y-67931910D01*
X73452193Y-67750481D01*
X73452193Y-67629529D01*
X73512670Y-67448100D01*
X73573146Y-67387624D01*
X73452193Y-66964291D02*
X73452193Y-66117624D01*
X74722193Y-66661910D01*
%TO.C,R28*%
X53915808Y-72679116D02*
X53311046Y-73102449D01*
X53915808Y-73404830D02*
X52645808Y-73404830D01*
X52645808Y-72921021D01*
X52706285Y-72800068D01*
X52766761Y-72739592D01*
X52887713Y-72679116D01*
X53069142Y-72679116D01*
X53190094Y-72739592D01*
X53250570Y-72800068D01*
X53311046Y-72921021D01*
X53311046Y-73404830D01*
X52766761Y-72195307D02*
X52706285Y-72134830D01*
X52645808Y-72013878D01*
X52645808Y-71711497D01*
X52706285Y-71590545D01*
X52766761Y-71530068D01*
X52887713Y-71469592D01*
X53008665Y-71469592D01*
X53190094Y-71530068D01*
X53915808Y-72255783D01*
X53915808Y-71469592D01*
X53190094Y-70743878D02*
X53129618Y-70864830D01*
X53069142Y-70925307D01*
X52948189Y-70985783D01*
X52887713Y-70985783D01*
X52766761Y-70925307D01*
X52706285Y-70864830D01*
X52645808Y-70743878D01*
X52645808Y-70501973D01*
X52706285Y-70381021D01*
X52766761Y-70320545D01*
X52887713Y-70260068D01*
X52948189Y-70260068D01*
X53069142Y-70320545D01*
X53129618Y-70381021D01*
X53190094Y-70501973D01*
X53190094Y-70743878D01*
X53250570Y-70864830D01*
X53311046Y-70925307D01*
X53431999Y-70985783D01*
X53673904Y-70985783D01*
X53794856Y-70925307D01*
X53855332Y-70864830D01*
X53915808Y-70743878D01*
X53915808Y-70501973D01*
X53855332Y-70381021D01*
X53794856Y-70320545D01*
X53673904Y-70260068D01*
X53431999Y-70260068D01*
X53311046Y-70320545D01*
X53250570Y-70381021D01*
X53190094Y-70501973D01*
%TO.C,C1*%
X108805695Y-76082284D02*
X108866171Y-76142760D01*
X108926647Y-76324189D01*
X108926647Y-76445141D01*
X108866171Y-76626570D01*
X108745219Y-76747522D01*
X108624266Y-76807998D01*
X108382362Y-76868475D01*
X108200933Y-76868475D01*
X107959028Y-76807998D01*
X107838076Y-76747522D01*
X107717124Y-76626570D01*
X107656647Y-76445141D01*
X107656647Y-76324189D01*
X107717124Y-76142760D01*
X107777600Y-76082284D01*
X108926647Y-74872760D02*
X108926647Y-75598475D01*
X108926647Y-75235618D02*
X107656647Y-75235618D01*
X107838076Y-75356570D01*
X107959028Y-75477522D01*
X108019504Y-75598475D01*
D10*
%TO.C,J10*%
X142548914Y-54148723D02*
X143263200Y-54148723D01*
X143406057Y-54196342D01*
X143501295Y-54291580D01*
X143548914Y-54434438D01*
X143548914Y-54529676D01*
X143548914Y-53148723D02*
X143548914Y-53720152D01*
X143548914Y-53434438D02*
X142548914Y-53434438D01*
X142691772Y-53529676D01*
X142787010Y-53624914D01*
X142834629Y-53720152D01*
X142548914Y-52529676D02*
X142548914Y-52434438D01*
X142596534Y-52339200D01*
X142644153Y-52291580D01*
X142739391Y-52243961D01*
X142929867Y-52196342D01*
X143167962Y-52196342D01*
X143358438Y-52243961D01*
X143453676Y-52291580D01*
X143501295Y-52339200D01*
X143548914Y-52434438D01*
X143548914Y-52529676D01*
X143501295Y-52624914D01*
X143453676Y-52672533D01*
X143358438Y-52720152D01*
X143167962Y-52767771D01*
X142929867Y-52767771D01*
X142739391Y-52720152D01*
X142644153Y-52672533D01*
X142596534Y-52624914D01*
X142548914Y-52529676D01*
%TO.C,*%
D11*
%TO.C,C8*%
X85840845Y-57434680D02*
X85780369Y-57495156D01*
X85598940Y-57555632D01*
X85477988Y-57555632D01*
X85296559Y-57495156D01*
X85175607Y-57374204D01*
X85115131Y-57253251D01*
X85054654Y-57011347D01*
X85054654Y-56829918D01*
X85115131Y-56588013D01*
X85175607Y-56467061D01*
X85296559Y-56346109D01*
X85477988Y-56285632D01*
X85598940Y-56285632D01*
X85780369Y-56346109D01*
X85840845Y-56406585D01*
X86566559Y-56829918D02*
X86445607Y-56769442D01*
X86385131Y-56708966D01*
X86324654Y-56588013D01*
X86324654Y-56527537D01*
X86385131Y-56406585D01*
X86445607Y-56346109D01*
X86566559Y-56285632D01*
X86808464Y-56285632D01*
X86929416Y-56346109D01*
X86989892Y-56406585D01*
X87050369Y-56527537D01*
X87050369Y-56588013D01*
X86989892Y-56708966D01*
X86929416Y-56769442D01*
X86808464Y-56829918D01*
X86566559Y-56829918D01*
X86445607Y-56890394D01*
X86385131Y-56950870D01*
X86324654Y-57071823D01*
X86324654Y-57313728D01*
X86385131Y-57434680D01*
X86445607Y-57495156D01*
X86566559Y-57555632D01*
X86808464Y-57555632D01*
X86929416Y-57495156D01*
X86989892Y-57434680D01*
X87050369Y-57313728D01*
X87050369Y-57071823D01*
X86989892Y-56950870D01*
X86929416Y-56890394D01*
X86808464Y-56829918D01*
D10*
%TO.C,*%
D11*
%TO.C,G12*%
X102989710Y-47064982D02*
X102868757Y-47004505D01*
X102687329Y-47004505D01*
X102505900Y-47064982D01*
X102384948Y-47185934D01*
X102324472Y-47306886D01*
X102263995Y-47548791D01*
X102263995Y-47730220D01*
X102324472Y-47972124D01*
X102384948Y-48093077D01*
X102505900Y-48214029D01*
X102687329Y-48274505D01*
X102808281Y-48274505D01*
X102989710Y-48214029D01*
X103050186Y-48153553D01*
X103050186Y-47730220D01*
X102808281Y-47730220D01*
X104259710Y-48274505D02*
X103533995Y-48274505D01*
X103896853Y-48274505D02*
X103896853Y-47004505D01*
X103775900Y-47185934D01*
X103654948Y-47306886D01*
X103533995Y-47367362D01*
X104743519Y-47125458D02*
X104803995Y-47064982D01*
X104924948Y-47004505D01*
X105227329Y-47004505D01*
X105348281Y-47064982D01*
X105408757Y-47125458D01*
X105469234Y-47246410D01*
X105469234Y-47367362D01*
X105408757Y-47548791D01*
X104683043Y-48274505D01*
X105469234Y-48274505D01*
D10*
%TO.C,J7*%
X65891239Y-27721300D02*
X65891239Y-28435586D01*
X65843620Y-28578443D01*
X65748382Y-28673681D01*
X65605525Y-28721300D01*
X65510287Y-28721300D01*
X66272192Y-27721300D02*
X66938858Y-27721300D01*
X66510287Y-28721300D01*
%TO.C,D4*%
X81907253Y-73226548D02*
X81907253Y-72226548D01*
X82145349Y-72226548D01*
X82288206Y-72274168D01*
X82383444Y-72369406D01*
X82431063Y-72464644D01*
X82478682Y-72655120D01*
X82478682Y-72797977D01*
X82431063Y-72988453D01*
X82383444Y-73083691D01*
X82288206Y-73178929D01*
X82145349Y-73226548D01*
X81907253Y-73226548D01*
X83335825Y-72559882D02*
X83335825Y-73226548D01*
X83097729Y-72178929D02*
X82859634Y-72893215D01*
X83478682Y-72893215D01*
D11*
%TO.C,R23*%
X129307011Y-60571868D02*
X128883678Y-59967106D01*
X128581297Y-60571868D02*
X128581297Y-59301868D01*
X129065106Y-59301868D01*
X129186059Y-59362345D01*
X129246535Y-59422821D01*
X129307011Y-59543773D01*
X129307011Y-59725202D01*
X129246535Y-59846154D01*
X129186059Y-59906630D01*
X129065106Y-59967106D01*
X128581297Y-59967106D01*
X129790820Y-59422821D02*
X129851297Y-59362345D01*
X129972249Y-59301868D01*
X130274630Y-59301868D01*
X130395582Y-59362345D01*
X130456059Y-59422821D01*
X130516535Y-59543773D01*
X130516535Y-59664725D01*
X130456059Y-59846154D01*
X129730344Y-60571868D01*
X130516535Y-60571868D01*
X130939868Y-59301868D02*
X131726059Y-59301868D01*
X131302725Y-59785678D01*
X131484154Y-59785678D01*
X131605106Y-59846154D01*
X131665582Y-59906630D01*
X131726059Y-60027583D01*
X131726059Y-60329964D01*
X131665582Y-60450916D01*
X131605106Y-60511392D01*
X131484154Y-60571868D01*
X131121297Y-60571868D01*
X131000344Y-60511392D01*
X130939868Y-60450916D01*
%TO.C,G2*%
X83289015Y-70545594D02*
X83168062Y-70485117D01*
X82986634Y-70485117D01*
X82805205Y-70545594D01*
X82684253Y-70666546D01*
X82623777Y-70787498D01*
X82563300Y-71029403D01*
X82563300Y-71210832D01*
X82623777Y-71452736D01*
X82684253Y-71573689D01*
X82805205Y-71694641D01*
X82986634Y-71755117D01*
X83107586Y-71755117D01*
X83289015Y-71694641D01*
X83349491Y-71634165D01*
X83349491Y-71210832D01*
X83107586Y-71210832D01*
X83833300Y-70606070D02*
X83893777Y-70545594D01*
X84014729Y-70485117D01*
X84317110Y-70485117D01*
X84438062Y-70545594D01*
X84498538Y-70606070D01*
X84559015Y-70727022D01*
X84559015Y-70847974D01*
X84498538Y-71029403D01*
X83772824Y-71755117D01*
X84559015Y-71755117D01*
%TO.C,C18*%
X69700287Y-54582689D02*
X69639811Y-54643165D01*
X69458382Y-54703641D01*
X69337430Y-54703641D01*
X69156001Y-54643165D01*
X69035049Y-54522213D01*
X68974573Y-54401260D01*
X68914096Y-54159356D01*
X68914096Y-53977927D01*
X68974573Y-53736022D01*
X69035049Y-53615070D01*
X69156001Y-53494118D01*
X69337430Y-53433641D01*
X69458382Y-53433641D01*
X69639811Y-53494118D01*
X69700287Y-53554594D01*
X70909811Y-54703641D02*
X70184096Y-54703641D01*
X70546954Y-54703641D02*
X70546954Y-53433641D01*
X70426001Y-53615070D01*
X70305049Y-53736022D01*
X70184096Y-53796498D01*
X71635525Y-53977927D02*
X71514573Y-53917451D01*
X71454096Y-53856975D01*
X71393620Y-53736022D01*
X71393620Y-53675546D01*
X71454096Y-53554594D01*
X71514573Y-53494118D01*
X71635525Y-53433641D01*
X71877430Y-53433641D01*
X71998382Y-53494118D01*
X72058858Y-53554594D01*
X72119335Y-53675546D01*
X72119335Y-53736022D01*
X72058858Y-53856975D01*
X71998382Y-53917451D01*
X71877430Y-53977927D01*
X71635525Y-53977927D01*
X71514573Y-54038403D01*
X71454096Y-54098879D01*
X71393620Y-54219832D01*
X71393620Y-54461737D01*
X71454096Y-54582689D01*
X71514573Y-54643165D01*
X71635525Y-54703641D01*
X71877430Y-54703641D01*
X71998382Y-54643165D01*
X72058858Y-54582689D01*
X72119335Y-54461737D01*
X72119335Y-54219832D01*
X72058858Y-54098879D01*
X71998382Y-54038403D01*
X71877430Y-53977927D01*
%TO.C,R16*%
X141178620Y-40058207D02*
X140573858Y-40481540D01*
X141178620Y-40783921D02*
X139908620Y-40783921D01*
X139908620Y-40300112D01*
X139969097Y-40179159D01*
X140029573Y-40118683D01*
X140150525Y-40058207D01*
X140331954Y-40058207D01*
X140452906Y-40118683D01*
X140513382Y-40179159D01*
X140573858Y-40300112D01*
X140573858Y-40783921D01*
X141178620Y-38848683D02*
X141178620Y-39574398D01*
X141178620Y-39211540D02*
X139908620Y-39211540D01*
X140090049Y-39332493D01*
X140211001Y-39453445D01*
X140271477Y-39574398D01*
X139908620Y-37760112D02*
X139908620Y-38002017D01*
X139969097Y-38122969D01*
X140029573Y-38183445D01*
X140211001Y-38304398D01*
X140452906Y-38364874D01*
X140936716Y-38364874D01*
X141057668Y-38304398D01*
X141118144Y-38243921D01*
X141178620Y-38122969D01*
X141178620Y-37881064D01*
X141118144Y-37760112D01*
X141057668Y-37699636D01*
X140936716Y-37639159D01*
X140634335Y-37639159D01*
X140513382Y-37699636D01*
X140452906Y-37760112D01*
X140392430Y-37881064D01*
X140392430Y-38122969D01*
X140452906Y-38243921D01*
X140513382Y-38304398D01*
X140634335Y-38364874D01*
%TO.C,G6*%
X134605513Y-60716462D02*
X134484560Y-60655985D01*
X134303132Y-60655985D01*
X134121703Y-60716462D01*
X134000751Y-60837414D01*
X133940275Y-60958366D01*
X133879798Y-61200271D01*
X133879798Y-61381700D01*
X133940275Y-61623604D01*
X134000751Y-61744557D01*
X134121703Y-61865509D01*
X134303132Y-61925985D01*
X134424084Y-61925985D01*
X134605513Y-61865509D01*
X134665989Y-61805033D01*
X134665989Y-61381700D01*
X134424084Y-61381700D01*
X135754560Y-60655985D02*
X135512656Y-60655985D01*
X135391703Y-60716462D01*
X135331227Y-60776938D01*
X135210275Y-60958366D01*
X135149798Y-61200271D01*
X135149798Y-61684081D01*
X135210275Y-61805033D01*
X135270751Y-61865509D01*
X135391703Y-61925985D01*
X135633608Y-61925985D01*
X135754560Y-61865509D01*
X135815036Y-61805033D01*
X135875513Y-61684081D01*
X135875513Y-61381700D01*
X135815036Y-61260747D01*
X135754560Y-61200271D01*
X135633608Y-61139795D01*
X135391703Y-61139795D01*
X135270751Y-61200271D01*
X135210275Y-61260747D01*
X135149798Y-61381700D01*
%TO.C,R11*%
X108426750Y-38981261D02*
X107821988Y-39404594D01*
X108426750Y-39706975D02*
X107156750Y-39706975D01*
X107156750Y-39223166D01*
X107217227Y-39102213D01*
X107277703Y-39041737D01*
X107398655Y-38981261D01*
X107580084Y-38981261D01*
X107701036Y-39041737D01*
X107761512Y-39102213D01*
X107821988Y-39223166D01*
X107821988Y-39706975D01*
X108426750Y-37771737D02*
X108426750Y-38497452D01*
X108426750Y-38134594D02*
X107156750Y-38134594D01*
X107338179Y-38255547D01*
X107459131Y-38376499D01*
X107519607Y-38497452D01*
X108426750Y-36562213D02*
X108426750Y-37287928D01*
X108426750Y-36925071D02*
X107156750Y-36925071D01*
X107338179Y-37046023D01*
X107459131Y-37166975D01*
X107519607Y-37287928D01*
D10*
%TO.C,J1*%
X67590429Y-86830096D02*
X67590429Y-87544382D01*
X67542810Y-87687239D01*
X67447572Y-87782477D01*
X67304715Y-87830096D01*
X67209477Y-87830096D01*
X68590429Y-87830096D02*
X68019001Y-87830096D01*
X68304715Y-87830096D02*
X68304715Y-86830096D01*
X68209477Y-86972954D01*
X68114239Y-87068192D01*
X68019001Y-87115811D01*
%TO.C,D10*%
X62537242Y-52700175D02*
X61537242Y-52700175D01*
X61537242Y-52462080D01*
X61584862Y-52319223D01*
X61680100Y-52223985D01*
X61775338Y-52176366D01*
X61965814Y-52128747D01*
X62108671Y-52128747D01*
X62299147Y-52176366D01*
X62394385Y-52223985D01*
X62489623Y-52319223D01*
X62537242Y-52462080D01*
X62537242Y-52700175D01*
X62537242Y-51176366D02*
X62537242Y-51747794D01*
X62537242Y-51462080D02*
X61537242Y-51462080D01*
X61680100Y-51557318D01*
X61775338Y-51652556D01*
X61822957Y-51747794D01*
X61537242Y-50557318D02*
X61537242Y-50462080D01*
X61584862Y-50366842D01*
X61632481Y-50319223D01*
X61727719Y-50271604D01*
X61918195Y-50223985D01*
X62156290Y-50223985D01*
X62346766Y-50271604D01*
X62442004Y-50319223D01*
X62489623Y-50366842D01*
X62537242Y-50462080D01*
X62537242Y-50557318D01*
X62489623Y-50652556D01*
X62442004Y-50700175D01*
X62346766Y-50747794D01*
X62156290Y-50795413D01*
X61918195Y-50795413D01*
X61727719Y-50747794D01*
X61632481Y-50700175D01*
X61584862Y-50652556D01*
X61537242Y-50557318D01*
D11*
%TO.C,R29*%
X78368050Y-73558823D02*
X77763288Y-73982156D01*
X78368050Y-74284537D02*
X77098050Y-74284537D01*
X77098050Y-73800728D01*
X77158527Y-73679775D01*
X77219003Y-73619299D01*
X77339955Y-73558823D01*
X77521384Y-73558823D01*
X77642336Y-73619299D01*
X77702812Y-73679775D01*
X77763288Y-73800728D01*
X77763288Y-74284537D01*
X77219003Y-73075014D02*
X77158527Y-73014537D01*
X77098050Y-72893585D01*
X77098050Y-72591204D01*
X77158527Y-72470252D01*
X77219003Y-72409775D01*
X77339955Y-72349299D01*
X77460907Y-72349299D01*
X77642336Y-72409775D01*
X78368050Y-73135490D01*
X78368050Y-72349299D01*
X78368050Y-71744537D02*
X78368050Y-71502633D01*
X78307574Y-71381680D01*
X78247098Y-71321204D01*
X78065669Y-71200252D01*
X77823765Y-71139775D01*
X77339955Y-71139775D01*
X77219003Y-71200252D01*
X77158527Y-71260728D01*
X77098050Y-71381680D01*
X77098050Y-71623585D01*
X77158527Y-71744537D01*
X77219003Y-71805014D01*
X77339955Y-71865490D01*
X77642336Y-71865490D01*
X77763288Y-71805014D01*
X77823765Y-71744537D01*
X77884241Y-71623585D01*
X77884241Y-71381680D01*
X77823765Y-71260728D01*
X77763288Y-71200252D01*
X77642336Y-71139775D01*
%TO.C,G1*%
X83628308Y-58382203D02*
X83507355Y-58321726D01*
X83325927Y-58321726D01*
X83144498Y-58382203D01*
X83023546Y-58503155D01*
X82963070Y-58624107D01*
X82902593Y-58866012D01*
X82902593Y-59047441D01*
X82963070Y-59289345D01*
X83023546Y-59410298D01*
X83144498Y-59531250D01*
X83325927Y-59591726D01*
X83446879Y-59591726D01*
X83628308Y-59531250D01*
X83688784Y-59470774D01*
X83688784Y-59047441D01*
X83446879Y-59047441D01*
X84898308Y-59591726D02*
X84172593Y-59591726D01*
X84535451Y-59591726D02*
X84535451Y-58321726D01*
X84414498Y-58503155D01*
X84293546Y-58624107D01*
X84172593Y-58684583D01*
%TO.C,R6*%
X68877903Y-80158622D02*
X68273141Y-80581956D01*
X68877903Y-80884336D02*
X67607903Y-80884336D01*
X67607903Y-80400527D01*
X67668380Y-80279575D01*
X67728856Y-80219098D01*
X67849808Y-80158622D01*
X68031237Y-80158622D01*
X68152189Y-80219098D01*
X68212665Y-80279575D01*
X68273141Y-80400527D01*
X68273141Y-80884336D01*
X67607903Y-79070051D02*
X67607903Y-79311956D01*
X67668380Y-79432908D01*
X67728856Y-79493384D01*
X67910284Y-79614336D01*
X68152189Y-79674813D01*
X68635999Y-79674813D01*
X68756951Y-79614336D01*
X68817427Y-79553860D01*
X68877903Y-79432908D01*
X68877903Y-79191003D01*
X68817427Y-79070051D01*
X68756951Y-79009575D01*
X68635999Y-78949098D01*
X68333618Y-78949098D01*
X68212665Y-79009575D01*
X68152189Y-79070051D01*
X68091713Y-79191003D01*
X68091713Y-79432908D01*
X68152189Y-79553860D01*
X68212665Y-79614336D01*
X68333618Y-79674813D01*
%TO.C,K3*%
X68813882Y-41342550D02*
X68813882Y-40072550D01*
X69539596Y-41342550D02*
X68995310Y-40616836D01*
X69539596Y-40072550D02*
X68813882Y-40798265D01*
X69962929Y-40072550D02*
X70749120Y-40072550D01*
X70325786Y-40556360D01*
X70507215Y-40556360D01*
X70628167Y-40616836D01*
X70688643Y-40677312D01*
X70749120Y-40798265D01*
X70749120Y-41100646D01*
X70688643Y-41221598D01*
X70628167Y-41282074D01*
X70507215Y-41342550D01*
X70144358Y-41342550D01*
X70023405Y-41282074D01*
X69962929Y-41221598D01*
D10*
%TO.C,D8*%
X130728532Y-41189757D02*
X130728532Y-40189757D01*
X130966628Y-40189757D01*
X131109485Y-40237377D01*
X131204723Y-40332615D01*
X131252342Y-40427853D01*
X131299961Y-40618329D01*
X131299961Y-40761186D01*
X131252342Y-40951662D01*
X131204723Y-41046900D01*
X131109485Y-41142138D01*
X130966628Y-41189757D01*
X130728532Y-41189757D01*
X131871389Y-40618329D02*
X131776151Y-40570710D01*
X131728532Y-40523091D01*
X131680913Y-40427853D01*
X131680913Y-40380234D01*
X131728532Y-40284996D01*
X131776151Y-40237377D01*
X131871389Y-40189757D01*
X132061866Y-40189757D01*
X132157104Y-40237377D01*
X132204723Y-40284996D01*
X132252342Y-40380234D01*
X132252342Y-40427853D01*
X132204723Y-40523091D01*
X132157104Y-40570710D01*
X132061866Y-40618329D01*
X131871389Y-40618329D01*
X131776151Y-40665948D01*
X131728532Y-40713567D01*
X131680913Y-40808805D01*
X131680913Y-40999281D01*
X131728532Y-41094519D01*
X131776151Y-41142138D01*
X131871389Y-41189757D01*
X132061866Y-41189757D01*
X132157104Y-41142138D01*
X132204723Y-41094519D01*
X132252342Y-40999281D01*
X132252342Y-40808805D01*
X132204723Y-40713567D01*
X132157104Y-40665948D01*
X132061866Y-40618329D01*
D11*
%TO.C,R27*%
X81527081Y-46444868D02*
X80922319Y-46868201D01*
X81527081Y-47170582D02*
X80257081Y-47170582D01*
X80257081Y-46686773D01*
X80317558Y-46565820D01*
X80378034Y-46505344D01*
X80498986Y-46444868D01*
X80680415Y-46444868D01*
X80801367Y-46505344D01*
X80861843Y-46565820D01*
X80922319Y-46686773D01*
X80922319Y-47170582D01*
X80378034Y-45961059D02*
X80317558Y-45900582D01*
X80257081Y-45779630D01*
X80257081Y-45477249D01*
X80317558Y-45356297D01*
X80378034Y-45295820D01*
X80498986Y-45235344D01*
X80619938Y-45235344D01*
X80801367Y-45295820D01*
X81527081Y-46021535D01*
X81527081Y-45235344D01*
X80257081Y-44812011D02*
X80257081Y-43965344D01*
X81527081Y-44509630D01*
%TO.C,G11*%
X73658631Y-56775398D02*
X73537678Y-56714921D01*
X73356250Y-56714921D01*
X73174821Y-56775398D01*
X73053869Y-56896350D01*
X72993393Y-57017302D01*
X72932916Y-57259207D01*
X72932916Y-57440636D01*
X72993393Y-57682540D01*
X73053869Y-57803493D01*
X73174821Y-57924445D01*
X73356250Y-57984921D01*
X73477202Y-57984921D01*
X73658631Y-57924445D01*
X73719107Y-57863969D01*
X73719107Y-57440636D01*
X73477202Y-57440636D01*
X74928631Y-57984921D02*
X74202916Y-57984921D01*
X74565774Y-57984921D02*
X74565774Y-56714921D01*
X74444821Y-56896350D01*
X74323869Y-57017302D01*
X74202916Y-57077778D01*
X76138155Y-57984921D02*
X75412440Y-57984921D01*
X75775297Y-57984921D02*
X75775297Y-56714921D01*
X75654345Y-56896350D01*
X75533393Y-57017302D01*
X75412440Y-57077778D01*
%TO.C,R19*%
X100567474Y-66998219D02*
X100144141Y-66393457D01*
X99841760Y-66998219D02*
X99841760Y-65728219D01*
X100325569Y-65728219D01*
X100446522Y-65788696D01*
X100506998Y-65849172D01*
X100567474Y-65970124D01*
X100567474Y-66151553D01*
X100506998Y-66272505D01*
X100446522Y-66332981D01*
X100325569Y-66393457D01*
X99841760Y-66393457D01*
X101776998Y-66998219D02*
X101051283Y-66998219D01*
X101414141Y-66998219D02*
X101414141Y-65728219D01*
X101293188Y-65909648D01*
X101172236Y-66030600D01*
X101051283Y-66091076D01*
X102381760Y-66998219D02*
X102623664Y-66998219D01*
X102744617Y-66937743D01*
X102805093Y-66877267D01*
X102926045Y-66695838D01*
X102986522Y-66453934D01*
X102986522Y-65970124D01*
X102926045Y-65849172D01*
X102865569Y-65788696D01*
X102744617Y-65728219D01*
X102502712Y-65728219D01*
X102381760Y-65788696D01*
X102321283Y-65849172D01*
X102260807Y-65970124D01*
X102260807Y-66272505D01*
X102321283Y-66393457D01*
X102381760Y-66453934D01*
X102502712Y-66514410D01*
X102744617Y-66514410D01*
X102865569Y-66453934D01*
X102926045Y-66393457D01*
X102986522Y-66272505D01*
%TO.C,C12*%
X71236570Y-70147132D02*
X71297046Y-70207608D01*
X71357522Y-70389037D01*
X71357522Y-70509989D01*
X71297046Y-70691418D01*
X71176094Y-70812370D01*
X71055141Y-70872846D01*
X70813237Y-70933323D01*
X70631808Y-70933323D01*
X70389903Y-70872846D01*
X70268951Y-70812370D01*
X70147999Y-70691418D01*
X70087522Y-70509989D01*
X70087522Y-70389037D01*
X70147999Y-70207608D01*
X70208475Y-70147132D01*
X71357522Y-68937608D02*
X71357522Y-69663323D01*
X71357522Y-69300465D02*
X70087522Y-69300465D01*
X70268951Y-69421418D01*
X70389903Y-69542370D01*
X70450379Y-69663323D01*
X70208475Y-68453799D02*
X70147999Y-68393323D01*
X70087522Y-68272370D01*
X70087522Y-67969989D01*
X70147999Y-67849037D01*
X70208475Y-67788561D01*
X70329427Y-67728084D01*
X70450379Y-67728084D01*
X70631808Y-67788561D01*
X71357522Y-68514275D01*
X71357522Y-67728084D01*
%TO.C,G9*%
X101343299Y-40580735D02*
X101222346Y-40520258D01*
X101040918Y-40520258D01*
X100859489Y-40580735D01*
X100738537Y-40701687D01*
X100678061Y-40822639D01*
X100617584Y-41064544D01*
X100617584Y-41245973D01*
X100678061Y-41487877D01*
X100738537Y-41608830D01*
X100859489Y-41729782D01*
X101040918Y-41790258D01*
X101161870Y-41790258D01*
X101343299Y-41729782D01*
X101403775Y-41669306D01*
X101403775Y-41245973D01*
X101161870Y-41245973D01*
X102008537Y-41790258D02*
X102250442Y-41790258D01*
X102371394Y-41729782D01*
X102431870Y-41669306D01*
X102552822Y-41487877D01*
X102613299Y-41245973D01*
X102613299Y-40762163D01*
X102552822Y-40641211D01*
X102492346Y-40580735D01*
X102371394Y-40520258D01*
X102129489Y-40520258D01*
X102008537Y-40580735D01*
X101948061Y-40641211D01*
X101887584Y-40762163D01*
X101887584Y-41064544D01*
X101948061Y-41185496D01*
X102008537Y-41245973D01*
X102129489Y-41306449D01*
X102371394Y-41306449D01*
X102492346Y-41245973D01*
X102552822Y-41185496D01*
X102613299Y-41064544D01*
%TO.C,R17*%
X94208847Y-34126236D02*
X93604085Y-34549569D01*
X94208847Y-34851950D02*
X92938847Y-34851950D01*
X92938847Y-34368141D01*
X92999324Y-34247188D01*
X93059800Y-34186712D01*
X93180752Y-34126236D01*
X93362181Y-34126236D01*
X93483133Y-34186712D01*
X93543609Y-34247188D01*
X93604085Y-34368141D01*
X93604085Y-34851950D01*
X94208847Y-32916712D02*
X94208847Y-33642427D01*
X94208847Y-33279569D02*
X92938847Y-33279569D01*
X93120276Y-33400522D01*
X93241228Y-33521474D01*
X93301704Y-33642427D01*
X92938847Y-32493379D02*
X92938847Y-31646712D01*
X94208847Y-32190998D01*
%TO.C,R25*%
X94292648Y-46556601D02*
X93687886Y-46979934D01*
X94292648Y-47282315D02*
X93022648Y-47282315D01*
X93022648Y-46798506D01*
X93083125Y-46677553D01*
X93143601Y-46617077D01*
X93264553Y-46556601D01*
X93445982Y-46556601D01*
X93566934Y-46617077D01*
X93627410Y-46677553D01*
X93687886Y-46798506D01*
X93687886Y-47282315D01*
X93143601Y-46072792D02*
X93083125Y-46012315D01*
X93022648Y-45891363D01*
X93022648Y-45588982D01*
X93083125Y-45468030D01*
X93143601Y-45407553D01*
X93264553Y-45347077D01*
X93385505Y-45347077D01*
X93566934Y-45407553D01*
X94292648Y-46133268D01*
X94292648Y-45347077D01*
X93022648Y-44198030D02*
X93022648Y-44802792D01*
X93627410Y-44863268D01*
X93566934Y-44802792D01*
X93506458Y-44681839D01*
X93506458Y-44379458D01*
X93566934Y-44258506D01*
X93627410Y-44198030D01*
X93748363Y-44137553D01*
X94050744Y-44137553D01*
X94171696Y-44198030D01*
X94232172Y-44258506D01*
X94292648Y-44379458D01*
X94292648Y-44681839D01*
X94232172Y-44802792D01*
X94171696Y-44863268D01*
D10*
%TO.C,J5*%
X89756147Y-27835233D02*
X89756147Y-28549519D01*
X89708528Y-28692376D01*
X89613290Y-28787614D01*
X89470433Y-28835233D01*
X89375195Y-28835233D01*
X90708528Y-27835233D02*
X90232338Y-27835233D01*
X90184719Y-28311424D01*
X90232338Y-28263805D01*
X90327576Y-28216186D01*
X90565671Y-28216186D01*
X90660909Y-28263805D01*
X90708528Y-28311424D01*
X90756147Y-28406662D01*
X90756147Y-28644757D01*
X90708528Y-28739995D01*
X90660909Y-28787614D01*
X90565671Y-28835233D01*
X90327576Y-28835233D01*
X90232338Y-28787614D01*
X90184719Y-28739995D01*
D11*
%TO.C,R5*%
X113995008Y-75218289D02*
X113390246Y-75641623D01*
X113995008Y-75944003D02*
X112725008Y-75944003D01*
X112725008Y-75460194D01*
X112785485Y-75339242D01*
X112845961Y-75278765D01*
X112966913Y-75218289D01*
X113148342Y-75218289D01*
X113269294Y-75278765D01*
X113329770Y-75339242D01*
X113390246Y-75460194D01*
X113390246Y-75944003D01*
X112725008Y-74069242D02*
X112725008Y-74674003D01*
X113329770Y-74734480D01*
X113269294Y-74674003D01*
X113208818Y-74553051D01*
X113208818Y-74250670D01*
X113269294Y-74129718D01*
X113329770Y-74069242D01*
X113450723Y-74008765D01*
X113753104Y-74008765D01*
X113874056Y-74069242D01*
X113934532Y-74129718D01*
X113995008Y-74250670D01*
X113995008Y-74553051D01*
X113934532Y-74674003D01*
X113874056Y-74734480D01*
%TO.C,G8*%
X70566447Y-60833571D02*
X70445494Y-60773094D01*
X70264066Y-60773094D01*
X70082637Y-60833571D01*
X69961685Y-60954523D01*
X69901209Y-61075475D01*
X69840732Y-61317380D01*
X69840732Y-61498809D01*
X69901209Y-61740713D01*
X69961685Y-61861666D01*
X70082637Y-61982618D01*
X70264066Y-62043094D01*
X70385018Y-62043094D01*
X70566447Y-61982618D01*
X70626923Y-61922142D01*
X70626923Y-61498809D01*
X70385018Y-61498809D01*
X71352637Y-61317380D02*
X71231685Y-61256904D01*
X71171209Y-61196428D01*
X71110732Y-61075475D01*
X71110732Y-61014999D01*
X71171209Y-60894047D01*
X71231685Y-60833571D01*
X71352637Y-60773094D01*
X71594542Y-60773094D01*
X71715494Y-60833571D01*
X71775970Y-60894047D01*
X71836447Y-61014999D01*
X71836447Y-61075475D01*
X71775970Y-61196428D01*
X71715494Y-61256904D01*
X71594542Y-61317380D01*
X71352637Y-61317380D01*
X71231685Y-61377856D01*
X71171209Y-61438332D01*
X71110732Y-61559285D01*
X71110732Y-61801190D01*
X71171209Y-61922142D01*
X71231685Y-61982618D01*
X71352637Y-62043094D01*
X71594542Y-62043094D01*
X71715494Y-61982618D01*
X71775970Y-61922142D01*
X71836447Y-61801190D01*
X71836447Y-61559285D01*
X71775970Y-61438332D01*
X71715494Y-61377856D01*
X71594542Y-61317380D01*
%TO.C,C9*%
X99094715Y-63212939D02*
X99155191Y-63273415D01*
X99215667Y-63454844D01*
X99215667Y-63575796D01*
X99155191Y-63757225D01*
X99034239Y-63878177D01*
X98913286Y-63938653D01*
X98671382Y-63999130D01*
X98489953Y-63999130D01*
X98248048Y-63938653D01*
X98127096Y-63878177D01*
X98006144Y-63757225D01*
X97945667Y-63575796D01*
X97945667Y-63454844D01*
X98006144Y-63273415D01*
X98066620Y-63212939D01*
X99215667Y-62608177D02*
X99215667Y-62366273D01*
X99155191Y-62245320D01*
X99094715Y-62184844D01*
X98913286Y-62063892D01*
X98671382Y-62003415D01*
X98187572Y-62003415D01*
X98066620Y-62063892D01*
X98006144Y-62124368D01*
X97945667Y-62245320D01*
X97945667Y-62487225D01*
X98006144Y-62608177D01*
X98066620Y-62668653D01*
X98187572Y-62729130D01*
X98489953Y-62729130D01*
X98610905Y-62668653D01*
X98671382Y-62608177D01*
X98731858Y-62487225D01*
X98731858Y-62245320D01*
X98671382Y-62124368D01*
X98610905Y-62063892D01*
X98489953Y-62003415D01*
D10*
%TO.C,J9*%
X140931637Y-36150573D02*
X141645923Y-36150573D01*
X141788780Y-36198192D01*
X141884018Y-36293430D01*
X141931637Y-36436287D01*
X141931637Y-36531525D01*
X141931637Y-35626763D02*
X141931637Y-35436287D01*
X141884018Y-35341049D01*
X141836399Y-35293430D01*
X141693542Y-35198192D01*
X141503066Y-35150573D01*
X141122114Y-35150573D01*
X141026876Y-35198192D01*
X140979257Y-35245811D01*
X140931637Y-35341049D01*
X140931637Y-35531525D01*
X140979257Y-35626763D01*
X141026876Y-35674382D01*
X141122114Y-35722001D01*
X141360209Y-35722001D01*
X141455447Y-35674382D01*
X141503066Y-35626763D01*
X141550685Y-35531525D01*
X141550685Y-35341049D01*
X141503066Y-35245811D01*
X141455447Y-35198192D01*
X141360209Y-35150573D01*
D11*
%TO.C,PS1*%
X121311386Y-29376982D02*
X121311386Y-28106982D01*
X121795195Y-28106982D01*
X121916148Y-28167459D01*
X121976624Y-28227935D01*
X122037100Y-28348887D01*
X122037100Y-28530316D01*
X121976624Y-28651268D01*
X121916148Y-28711744D01*
X121795195Y-28772220D01*
X121311386Y-28772220D01*
X122520909Y-29316506D02*
X122702338Y-29376982D01*
X123004719Y-29376982D01*
X123125671Y-29316506D01*
X123186148Y-29256030D01*
X123246624Y-29135078D01*
X123246624Y-29014125D01*
X123186148Y-28893173D01*
X123125671Y-28832697D01*
X123004719Y-28772220D01*
X122762814Y-28711744D01*
X122641862Y-28651268D01*
X122581386Y-28590792D01*
X122520909Y-28469839D01*
X122520909Y-28348887D01*
X122581386Y-28227935D01*
X122641862Y-28167459D01*
X122762814Y-28106982D01*
X123065195Y-28106982D01*
X123246624Y-28167459D01*
X124456148Y-29376982D02*
X123730433Y-29376982D01*
X124093290Y-29376982D02*
X124093290Y-28106982D01*
X123972338Y-28288411D01*
X123851386Y-28409363D01*
X123730433Y-28469839D01*
%TO.C,R24*%
X140411344Y-58509523D02*
X139988011Y-57904761D01*
X139685630Y-58509523D02*
X139685630Y-57239523D01*
X140169439Y-57239523D01*
X140290392Y-57300000D01*
X140350868Y-57360476D01*
X140411344Y-57481428D01*
X140411344Y-57662857D01*
X140350868Y-57783809D01*
X140290392Y-57844285D01*
X140169439Y-57904761D01*
X139685630Y-57904761D01*
X140895153Y-57360476D02*
X140955630Y-57300000D01*
X141076582Y-57239523D01*
X141378963Y-57239523D01*
X141499915Y-57300000D01*
X141560392Y-57360476D01*
X141620868Y-57481428D01*
X141620868Y-57602380D01*
X141560392Y-57783809D01*
X140834677Y-58509523D01*
X141620868Y-58509523D01*
X142709439Y-57662857D02*
X142709439Y-58509523D01*
X142407058Y-57179047D02*
X142104677Y-58086190D01*
X142890868Y-58086190D01*
%TO.C,R3*%
X57025679Y-81320305D02*
X56420917Y-81743639D01*
X57025679Y-82046019D02*
X55755679Y-82046019D01*
X55755679Y-81562210D01*
X55816156Y-81441258D01*
X55876632Y-81380781D01*
X55997584Y-81320305D01*
X56179013Y-81320305D01*
X56299965Y-81380781D01*
X56360441Y-81441258D01*
X56420917Y-81562210D01*
X56420917Y-82046019D01*
X55755679Y-80896972D02*
X55755679Y-80110781D01*
X56239489Y-80534115D01*
X56239489Y-80352686D01*
X56299965Y-80231734D01*
X56360441Y-80171258D01*
X56481394Y-80110781D01*
X56783775Y-80110781D01*
X56904727Y-80171258D01*
X56965203Y-80231734D01*
X57025679Y-80352686D01*
X57025679Y-80715543D01*
X56965203Y-80836496D01*
X56904727Y-80896972D01*
%TO.C,Q4*%
X140314363Y-47979799D02*
X140193411Y-47919323D01*
X140072458Y-47798370D01*
X139891030Y-47616942D01*
X139770077Y-47556465D01*
X139649125Y-47556465D01*
X139709601Y-47858846D02*
X139588649Y-47798370D01*
X139467696Y-47677418D01*
X139407220Y-47435513D01*
X139407220Y-47012180D01*
X139467696Y-46770275D01*
X139588649Y-46649323D01*
X139709601Y-46588846D01*
X139951506Y-46588846D01*
X140072458Y-46649323D01*
X140193411Y-46770275D01*
X140253887Y-47012180D01*
X140253887Y-47435513D01*
X140193411Y-47677418D01*
X140072458Y-47798370D01*
X139951506Y-47858846D01*
X139709601Y-47858846D01*
X141342458Y-47012180D02*
X141342458Y-47858846D01*
X141040077Y-46528370D02*
X140737696Y-47435513D01*
X141523887Y-47435513D01*
D10*
%TO.C,J3*%
X88617121Y-85512526D02*
X88617121Y-86226812D01*
X88569502Y-86369669D01*
X88474264Y-86464907D01*
X88331407Y-86512526D01*
X88236169Y-86512526D01*
X88998074Y-85512526D02*
X89617121Y-85512526D01*
X89283788Y-85893479D01*
X89426645Y-85893479D01*
X89521883Y-85941098D01*
X89569502Y-85988717D01*
X89617121Y-86083955D01*
X89617121Y-86322050D01*
X89569502Y-86417288D01*
X89521883Y-86464907D01*
X89426645Y-86512526D01*
X89140931Y-86512526D01*
X89045693Y-86464907D01*
X88998074Y-86417288D01*
D11*
%TO.C,R1*%
X103507629Y-68414592D02*
X102902867Y-68837926D01*
X103507629Y-69140306D02*
X102237629Y-69140306D01*
X102237629Y-68656497D01*
X102298106Y-68535545D01*
X102358582Y-68475068D01*
X102479534Y-68414592D01*
X102660963Y-68414592D01*
X102781915Y-68475068D01*
X102842391Y-68535545D01*
X102902867Y-68656497D01*
X102902867Y-69140306D01*
X103507629Y-67205068D02*
X103507629Y-67930783D01*
X103507629Y-67567926D02*
X102237629Y-67567926D01*
X102419058Y-67688878D01*
X102540010Y-67809830D01*
X102600486Y-67930783D01*
%TO.C,G10*%
X93383849Y-37941135D02*
X93262896Y-37880658D01*
X93081468Y-37880658D01*
X92900039Y-37941135D01*
X92779087Y-38062087D01*
X92718611Y-38183039D01*
X92658134Y-38424944D01*
X92658134Y-38606373D01*
X92718611Y-38848277D01*
X92779087Y-38969230D01*
X92900039Y-39090182D01*
X93081468Y-39150658D01*
X93202420Y-39150658D01*
X93383849Y-39090182D01*
X93444325Y-39029706D01*
X93444325Y-38606373D01*
X93202420Y-38606373D01*
X94653849Y-39150658D02*
X93928134Y-39150658D01*
X94290992Y-39150658D02*
X94290992Y-37880658D01*
X94170039Y-38062087D01*
X94049087Y-38183039D01*
X93928134Y-38243515D01*
X95440039Y-37880658D02*
X95560992Y-37880658D01*
X95681944Y-37941135D01*
X95742420Y-38001611D01*
X95802896Y-38122563D01*
X95863373Y-38364468D01*
X95863373Y-38666849D01*
X95802896Y-38908754D01*
X95742420Y-39029706D01*
X95681944Y-39090182D01*
X95560992Y-39150658D01*
X95440039Y-39150658D01*
X95319087Y-39090182D01*
X95258611Y-39029706D01*
X95198134Y-38908754D01*
X95137658Y-38666849D01*
X95137658Y-38364468D01*
X95198134Y-38122563D01*
X95258611Y-38001611D01*
X95319087Y-37941135D01*
X95440039Y-37880658D01*
%TO.C,C5*%
X126274138Y-45537723D02*
X126334614Y-45598199D01*
X126395090Y-45779628D01*
X126395090Y-45900580D01*
X126334614Y-46082009D01*
X126213662Y-46202961D01*
X126092709Y-46263437D01*
X125850805Y-46323914D01*
X125669376Y-46323914D01*
X125427471Y-46263437D01*
X125306519Y-46202961D01*
X125185567Y-46082009D01*
X125125090Y-45900580D01*
X125125090Y-45779628D01*
X125185567Y-45598199D01*
X125246043Y-45537723D01*
X125125090Y-44388676D02*
X125125090Y-44993437D01*
X125729852Y-45053914D01*
X125669376Y-44993437D01*
X125608900Y-44872485D01*
X125608900Y-44570104D01*
X125669376Y-44449152D01*
X125729852Y-44388676D01*
X125850805Y-44328199D01*
X126153186Y-44328199D01*
X126274138Y-44388676D01*
X126334614Y-44449152D01*
X126395090Y-44570104D01*
X126395090Y-44872485D01*
X126334614Y-44993437D01*
X126274138Y-45053914D01*
%TO.C,DL1*%
X121604922Y-61035925D02*
X120334922Y-61035925D01*
X120334922Y-60733544D01*
X120395399Y-60552116D01*
X120516351Y-60431163D01*
X120637303Y-60370687D01*
X120879208Y-60310211D01*
X121060637Y-60310211D01*
X121302541Y-60370687D01*
X121423494Y-60431163D01*
X121544446Y-60552116D01*
X121604922Y-60733544D01*
X121604922Y-61035925D01*
X121604922Y-59161163D02*
X121604922Y-59765925D01*
X120334922Y-59765925D01*
X121604922Y-58072592D02*
X121604922Y-58798306D01*
X121604922Y-58435449D02*
X120334922Y-58435449D01*
X120516351Y-58556401D01*
X120637303Y-58677354D01*
X120697779Y-58798306D01*
%TO.C,R13*%
X94045817Y-60413674D02*
X93622484Y-59808912D01*
X93320103Y-60413674D02*
X93320103Y-59143674D01*
X93803912Y-59143674D01*
X93924865Y-59204151D01*
X93985341Y-59264627D01*
X94045817Y-59385579D01*
X94045817Y-59567008D01*
X93985341Y-59687960D01*
X93924865Y-59748436D01*
X93803912Y-59808912D01*
X93320103Y-59808912D01*
X95255341Y-60413674D02*
X94529626Y-60413674D01*
X94892484Y-60413674D02*
X94892484Y-59143674D01*
X94771531Y-59325103D01*
X94650579Y-59446055D01*
X94529626Y-59506531D01*
X95678674Y-59143674D02*
X96464865Y-59143674D01*
X96041531Y-59627484D01*
X96222960Y-59627484D01*
X96343912Y-59687960D01*
X96404388Y-59748436D01*
X96464865Y-59869389D01*
X96464865Y-60171770D01*
X96404388Y-60292722D01*
X96343912Y-60353198D01*
X96222960Y-60413674D01*
X95860103Y-60413674D01*
X95739150Y-60353198D01*
X95678674Y-60292722D01*
%TO.C,G13*%
X109299332Y-45469600D02*
X109178379Y-45409123D01*
X108996951Y-45409123D01*
X108815522Y-45469600D01*
X108694570Y-45590552D01*
X108634094Y-45711504D01*
X108573617Y-45953409D01*
X108573617Y-46134838D01*
X108634094Y-46376742D01*
X108694570Y-46497695D01*
X108815522Y-46618647D01*
X108996951Y-46679123D01*
X109117903Y-46679123D01*
X109299332Y-46618647D01*
X109359808Y-46558171D01*
X109359808Y-46134838D01*
X109117903Y-46134838D01*
X110569332Y-46679123D02*
X109843617Y-46679123D01*
X110206475Y-46679123D02*
X110206475Y-45409123D01*
X110085522Y-45590552D01*
X109964570Y-45711504D01*
X109843617Y-45771980D01*
X110992665Y-45409123D02*
X111778856Y-45409123D01*
X111355522Y-45892933D01*
X111536951Y-45892933D01*
X111657903Y-45953409D01*
X111718379Y-46013885D01*
X111778856Y-46134838D01*
X111778856Y-46437219D01*
X111718379Y-46558171D01*
X111657903Y-46618647D01*
X111536951Y-46679123D01*
X111174094Y-46679123D01*
X111053141Y-46618647D01*
X110992665Y-46558171D01*
D10*
%TO.C,J11*%
X118941698Y-28358606D02*
X118941698Y-29072892D01*
X118894079Y-29215749D01*
X118798841Y-29310987D01*
X118655983Y-29358606D01*
X118560745Y-29358606D01*
X119941698Y-29358606D02*
X119370269Y-29358606D01*
X119655983Y-29358606D02*
X119655983Y-28358606D01*
X119560745Y-28501464D01*
X119465507Y-28596702D01*
X119370269Y-28644321D01*
X120894079Y-29358606D02*
X120322650Y-29358606D01*
X120608364Y-29358606D02*
X120608364Y-28358606D01*
X120513126Y-28501464D01*
X120417888Y-28596702D01*
X120322650Y-28644321D01*
%TO.C,J6*%
X141264445Y-61407484D02*
X141978731Y-61407484D01*
X142121588Y-61455103D01*
X142216826Y-61550341D01*
X142264445Y-61693198D01*
X142264445Y-61788436D01*
X141264445Y-60502722D02*
X141264445Y-60693198D01*
X141312065Y-60788436D01*
X141359684Y-60836055D01*
X141502541Y-60931293D01*
X141693017Y-60978912D01*
X142073969Y-60978912D01*
X142169207Y-60931293D01*
X142216826Y-60883674D01*
X142264445Y-60788436D01*
X142264445Y-60597960D01*
X142216826Y-60502722D01*
X142169207Y-60455103D01*
X142073969Y-60407484D01*
X141835874Y-60407484D01*
X141740636Y-60455103D01*
X141693017Y-60502722D01*
X141645398Y-60597960D01*
X141645398Y-60788436D01*
X141693017Y-60883674D01*
X141740636Y-60931293D01*
X141835874Y-60978912D01*
D11*
%TO.C,R18*%
X67832137Y-39211185D02*
X67227375Y-39634518D01*
X67832137Y-39936899D02*
X66562137Y-39936899D01*
X66562137Y-39453090D01*
X66622614Y-39332137D01*
X66683090Y-39271661D01*
X66804042Y-39211185D01*
X66985471Y-39211185D01*
X67106423Y-39271661D01*
X67166899Y-39332137D01*
X67227375Y-39453090D01*
X67227375Y-39936899D01*
X67832137Y-38001661D02*
X67832137Y-38727376D01*
X67832137Y-38364518D02*
X66562137Y-38364518D01*
X66743566Y-38485471D01*
X66864518Y-38606423D01*
X66924994Y-38727376D01*
X67106423Y-37275947D02*
X67045947Y-37396899D01*
X66985471Y-37457376D01*
X66864518Y-37517852D01*
X66804042Y-37517852D01*
X66683090Y-37457376D01*
X66622614Y-37396899D01*
X66562137Y-37275947D01*
X66562137Y-37034042D01*
X66622614Y-36913090D01*
X66683090Y-36852614D01*
X66804042Y-36792137D01*
X66864518Y-36792137D01*
X66985471Y-36852614D01*
X67045947Y-36913090D01*
X67106423Y-37034042D01*
X67106423Y-37275947D01*
X67166899Y-37396899D01*
X67227375Y-37457376D01*
X67348328Y-37517852D01*
X67590233Y-37517852D01*
X67711185Y-37457376D01*
X67771661Y-37396899D01*
X67832137Y-37275947D01*
X67832137Y-37034042D01*
X67771661Y-36913090D01*
X67711185Y-36852614D01*
X67590233Y-36792137D01*
X67348328Y-36792137D01*
X67227375Y-36852614D01*
X67166899Y-36913090D01*
X67106423Y-37034042D01*
%TO.C,C13*%
X100453392Y-38832467D02*
X100513868Y-38892943D01*
X100574344Y-39074372D01*
X100574344Y-39195324D01*
X100513868Y-39376753D01*
X100392916Y-39497705D01*
X100271963Y-39558181D01*
X100030059Y-39618658D01*
X99848630Y-39618658D01*
X99606725Y-39558181D01*
X99485773Y-39497705D01*
X99364821Y-39376753D01*
X99304344Y-39195324D01*
X99304344Y-39074372D01*
X99364821Y-38892943D01*
X99425297Y-38832467D01*
X100574344Y-37622943D02*
X100574344Y-38348658D01*
X100574344Y-37985800D02*
X99304344Y-37985800D01*
X99485773Y-38106753D01*
X99606725Y-38227705D01*
X99667201Y-38348658D01*
X99304344Y-37199610D02*
X99304344Y-36413419D01*
X99788154Y-36836753D01*
X99788154Y-36655324D01*
X99848630Y-36534372D01*
X99909106Y-36473896D01*
X100030059Y-36413419D01*
X100332440Y-36413419D01*
X100453392Y-36473896D01*
X100513868Y-36534372D01*
X100574344Y-36655324D01*
X100574344Y-37018181D01*
X100513868Y-37139134D01*
X100453392Y-37199610D01*
%TO.C,K2*%
X56076249Y-41761551D02*
X56076249Y-40491551D01*
X56801963Y-41761551D02*
X56257677Y-41035837D01*
X56801963Y-40491551D02*
X56076249Y-41217266D01*
X57285772Y-40612504D02*
X57346249Y-40552028D01*
X57467201Y-40491551D01*
X57769582Y-40491551D01*
X57890534Y-40552028D01*
X57951010Y-40612504D01*
X58011487Y-40733456D01*
X58011487Y-40854408D01*
X57951010Y-41035837D01*
X57225296Y-41761551D01*
X58011487Y-41761551D01*
%TO.C,R7*%
X113520140Y-67424869D02*
X112915378Y-67848203D01*
X113520140Y-68150583D02*
X112250140Y-68150583D01*
X112250140Y-67666774D01*
X112310617Y-67545822D01*
X112371093Y-67485345D01*
X112492045Y-67424869D01*
X112673474Y-67424869D01*
X112794426Y-67485345D01*
X112854902Y-67545822D01*
X112915378Y-67666774D01*
X112915378Y-68150583D01*
X112250140Y-67001536D02*
X112250140Y-66154869D01*
X113520140Y-66699155D01*
D10*
%TO.C,TP1*%
X105852841Y-68436815D02*
X106424269Y-68436815D01*
X106138555Y-69436815D02*
X106138555Y-68436815D01*
X106757603Y-69436815D02*
X106757603Y-68436815D01*
X107138555Y-68436815D01*
X107233793Y-68484435D01*
X107281412Y-68532054D01*
X107329031Y-68627292D01*
X107329031Y-68770149D01*
X107281412Y-68865387D01*
X107233793Y-68913006D01*
X107138555Y-68960625D01*
X106757603Y-68960625D01*
X108281412Y-69436815D02*
X107709984Y-69436815D01*
X107995698Y-69436815D02*
X107995698Y-68436815D01*
X107900460Y-68579673D01*
X107805222Y-68674911D01*
X107709984Y-68722530D01*
D11*
%TO.C,R22*%
X81694682Y-34210036D02*
X81089920Y-34633369D01*
X81694682Y-34935750D02*
X80424682Y-34935750D01*
X80424682Y-34451941D01*
X80485159Y-34330988D01*
X80545635Y-34270512D01*
X80666587Y-34210036D01*
X80848016Y-34210036D01*
X80968968Y-34270512D01*
X81029444Y-34330988D01*
X81089920Y-34451941D01*
X81089920Y-34935750D01*
X80545635Y-33726227D02*
X80485159Y-33665750D01*
X80424682Y-33544798D01*
X80424682Y-33242417D01*
X80485159Y-33121465D01*
X80545635Y-33060988D01*
X80666587Y-33000512D01*
X80787539Y-33000512D01*
X80968968Y-33060988D01*
X81694682Y-33786703D01*
X81694682Y-33000512D01*
X80545635Y-32516703D02*
X80485159Y-32456227D01*
X80424682Y-32335274D01*
X80424682Y-32032893D01*
X80485159Y-31911941D01*
X80545635Y-31851465D01*
X80666587Y-31790988D01*
X80787539Y-31790988D01*
X80968968Y-31851465D01*
X81694682Y-32577179D01*
X81694682Y-31790988D01*
%TO.C,G5*%
X60755242Y-64658988D02*
X60634289Y-64598511D01*
X60452861Y-64598511D01*
X60271432Y-64658988D01*
X60150480Y-64779940D01*
X60090004Y-64900892D01*
X60029527Y-65142797D01*
X60029527Y-65324226D01*
X60090004Y-65566130D01*
X60150480Y-65687083D01*
X60271432Y-65808035D01*
X60452861Y-65868511D01*
X60573813Y-65868511D01*
X60755242Y-65808035D01*
X60815718Y-65747559D01*
X60815718Y-65324226D01*
X60573813Y-65324226D01*
X61964765Y-64598511D02*
X61360004Y-64598511D01*
X61299527Y-65203273D01*
X61360004Y-65142797D01*
X61480956Y-65082321D01*
X61783337Y-65082321D01*
X61904289Y-65142797D01*
X61964765Y-65203273D01*
X62025242Y-65324226D01*
X62025242Y-65626607D01*
X61964765Y-65747559D01*
X61904289Y-65808035D01*
X61783337Y-65868511D01*
X61480956Y-65868511D01*
X61360004Y-65808035D01*
X61299527Y-65747559D01*
%TO.C,R14*%
X120559358Y-76521386D02*
X119954596Y-76944719D01*
X120559358Y-77247100D02*
X119289358Y-77247100D01*
X119289358Y-76763291D01*
X119349835Y-76642338D01*
X119410311Y-76581862D01*
X119531263Y-76521386D01*
X119712692Y-76521386D01*
X119833644Y-76581862D01*
X119894120Y-76642338D01*
X119954596Y-76763291D01*
X119954596Y-77247100D01*
X120559358Y-75311862D02*
X120559358Y-76037577D01*
X120559358Y-75674719D02*
X119289358Y-75674719D01*
X119470787Y-75795672D01*
X119591739Y-75916624D01*
X119652215Y-76037577D01*
X119712692Y-74223291D02*
X120559358Y-74223291D01*
X119228882Y-74525672D02*
X120136025Y-74828053D01*
X120136025Y-74041862D01*
%TO.C,C15*%
X80497116Y-66042785D02*
X80436640Y-66103261D01*
X80255211Y-66163737D01*
X80134259Y-66163737D01*
X79952830Y-66103261D01*
X79831878Y-65982309D01*
X79771402Y-65861356D01*
X79710925Y-65619452D01*
X79710925Y-65438023D01*
X79771402Y-65196118D01*
X79831878Y-65075166D01*
X79952830Y-64954214D01*
X80134259Y-64893737D01*
X80255211Y-64893737D01*
X80436640Y-64954214D01*
X80497116Y-65014690D01*
X81706640Y-66163737D02*
X80980925Y-66163737D01*
X81343783Y-66163737D02*
X81343783Y-64893737D01*
X81222830Y-65075166D01*
X81101878Y-65196118D01*
X80980925Y-65256594D01*
X82855687Y-64893737D02*
X82250925Y-64893737D01*
X82190449Y-65498499D01*
X82250925Y-65438023D01*
X82371878Y-65377547D01*
X82674259Y-65377547D01*
X82795211Y-65438023D01*
X82855687Y-65498499D01*
X82916164Y-65619452D01*
X82916164Y-65921833D01*
X82855687Y-66042785D01*
X82795211Y-66103261D01*
X82674259Y-66163737D01*
X82371878Y-66163737D01*
X82250925Y-66103261D01*
X82190449Y-66042785D01*
D10*
%TO.C,D2*%
X135978849Y-68220371D02*
X135978849Y-67220371D01*
X136216945Y-67220371D01*
X136359802Y-67267991D01*
X136455040Y-67363229D01*
X136502659Y-67458467D01*
X136550278Y-67648943D01*
X136550278Y-67791800D01*
X136502659Y-67982276D01*
X136455040Y-68077514D01*
X136359802Y-68172752D01*
X136216945Y-68220371D01*
X135978849Y-68220371D01*
X136931230Y-67315610D02*
X136978849Y-67267991D01*
X137074087Y-67220371D01*
X137312183Y-67220371D01*
X137407421Y-67267991D01*
X137455040Y-67315610D01*
X137502659Y-67410848D01*
X137502659Y-67506086D01*
X137455040Y-67648943D01*
X136883611Y-68220371D01*
X137502659Y-68220371D01*
D11*
%TO.C,K1*%
X81663248Y-41230816D02*
X81663248Y-39960816D01*
X82388962Y-41230816D02*
X81844676Y-40505102D01*
X82388962Y-39960816D02*
X81663248Y-40686531D01*
X83598486Y-41230816D02*
X82872771Y-41230816D01*
X83235629Y-41230816D02*
X83235629Y-39960816D01*
X83114676Y-40142245D01*
X82993724Y-40263197D01*
X82872771Y-40323673D01*
%TO.C,C10*%
X140351044Y-61355487D02*
X140411520Y-61415963D01*
X140471996Y-61597392D01*
X140471996Y-61718344D01*
X140411520Y-61899773D01*
X140290568Y-62020725D01*
X140169615Y-62081201D01*
X139927711Y-62141678D01*
X139746282Y-62141678D01*
X139504377Y-62081201D01*
X139383425Y-62020725D01*
X139262473Y-61899773D01*
X139201996Y-61718344D01*
X139201996Y-61597392D01*
X139262473Y-61415963D01*
X139322949Y-61355487D01*
X140471996Y-60145963D02*
X140471996Y-60871678D01*
X140471996Y-60508820D02*
X139201996Y-60508820D01*
X139383425Y-60629773D01*
X139504377Y-60750725D01*
X139564853Y-60871678D01*
X139201996Y-59359773D02*
X139201996Y-59238820D01*
X139262473Y-59117868D01*
X139322949Y-59057392D01*
X139443901Y-58996916D01*
X139685806Y-58936439D01*
X139988187Y-58936439D01*
X140230092Y-58996916D01*
X140351044Y-59057392D01*
X140411520Y-59117868D01*
X140471996Y-59238820D01*
X140471996Y-59359773D01*
X140411520Y-59480725D01*
X140351044Y-59541201D01*
X140230092Y-59601678D01*
X139988187Y-59662154D01*
X139685806Y-59662154D01*
X139443901Y-59601678D01*
X139322949Y-59541201D01*
X139262473Y-59480725D01*
X139201996Y-59359773D01*
%TO.C,R26*%
X64599437Y-46668335D02*
X63994675Y-47091668D01*
X64599437Y-47394049D02*
X63329437Y-47394049D01*
X63329437Y-46910240D01*
X63389914Y-46789287D01*
X63450390Y-46728811D01*
X63571342Y-46668335D01*
X63752771Y-46668335D01*
X63873723Y-46728811D01*
X63934199Y-46789287D01*
X63994675Y-46910240D01*
X63994675Y-47394049D01*
X63450390Y-46184526D02*
X63389914Y-46124049D01*
X63329437Y-46003097D01*
X63329437Y-45700716D01*
X63389914Y-45579764D01*
X63450390Y-45519287D01*
X63571342Y-45458811D01*
X63692294Y-45458811D01*
X63873723Y-45519287D01*
X64599437Y-46245002D01*
X64599437Y-45458811D01*
X63329437Y-44370240D02*
X63329437Y-44612145D01*
X63389914Y-44733097D01*
X63450390Y-44793573D01*
X63631818Y-44914526D01*
X63873723Y-44975002D01*
X64357533Y-44975002D01*
X64478485Y-44914526D01*
X64538961Y-44854049D01*
X64599437Y-44733097D01*
X64599437Y-44491192D01*
X64538961Y-44370240D01*
X64478485Y-44309764D01*
X64357533Y-44249287D01*
X64055152Y-44249287D01*
X63934199Y-44309764D01*
X63873723Y-44370240D01*
X63813247Y-44491192D01*
X63813247Y-44733097D01*
X63873723Y-44854049D01*
X63934199Y-44914526D01*
X64055152Y-44975002D01*
%TO.C,C14*%
X104216897Y-38944978D02*
X104277373Y-39005454D01*
X104337849Y-39186883D01*
X104337849Y-39307835D01*
X104277373Y-39489264D01*
X104156421Y-39610216D01*
X104035468Y-39670692D01*
X103793564Y-39731169D01*
X103612135Y-39731169D01*
X103370230Y-39670692D01*
X103249278Y-39610216D01*
X103128326Y-39489264D01*
X103067849Y-39307835D01*
X103067849Y-39186883D01*
X103128326Y-39005454D01*
X103188802Y-38944978D01*
X104337849Y-37735454D02*
X104337849Y-38461169D01*
X104337849Y-38098311D02*
X103067849Y-38098311D01*
X103249278Y-38219264D01*
X103370230Y-38340216D01*
X103430706Y-38461169D01*
X103491183Y-36646883D02*
X104337849Y-36646883D01*
X103007373Y-36949264D02*
X103914516Y-37251645D01*
X103914516Y-36465454D01*
%TO.C,CP1*%
X115993333Y-75488127D02*
X115932857Y-75548603D01*
X115751428Y-75609079D01*
X115630476Y-75609079D01*
X115449047Y-75548603D01*
X115328095Y-75427651D01*
X115267619Y-75306698D01*
X115207142Y-75064794D01*
X115207142Y-74883365D01*
X115267619Y-74641460D01*
X115328095Y-74520508D01*
X115449047Y-74399556D01*
X115630476Y-74339079D01*
X115751428Y-74339079D01*
X115932857Y-74399556D01*
X115993333Y-74460032D01*
X116537619Y-75609079D02*
X116537619Y-74339079D01*
X117021428Y-74339079D01*
X117142380Y-74399556D01*
X117202857Y-74460032D01*
X117263333Y-74580984D01*
X117263333Y-74762413D01*
X117202857Y-74883365D01*
X117142380Y-74943841D01*
X117021428Y-75004317D01*
X116537619Y-75004317D01*
X118472857Y-75609079D02*
X117747142Y-75609079D01*
X118110000Y-75609079D02*
X118110000Y-74339079D01*
X117989047Y-74520508D01*
X117868095Y-74641460D01*
X117747142Y-74701936D01*
D10*
%TO.C,TI1*%
X132399081Y-56261578D02*
X132970509Y-56261578D01*
X132684795Y-57261578D02*
X132684795Y-56261578D01*
X133303842Y-57261578D02*
X133303842Y-56261578D01*
X134303842Y-57261578D02*
X133732414Y-57261578D01*
X134018128Y-57261578D02*
X134018128Y-56261578D01*
X133922890Y-56404436D01*
X133827652Y-56499674D01*
X133732414Y-56547293D01*
D11*
%TO.C,R9*%
X79135283Y-83823718D02*
X78530521Y-84247052D01*
X79135283Y-84549432D02*
X77865283Y-84549432D01*
X77865283Y-84065623D01*
X77925760Y-83944671D01*
X77986236Y-83884194D01*
X78107188Y-83823718D01*
X78288617Y-83823718D01*
X78409569Y-83884194D01*
X78470045Y-83944671D01*
X78530521Y-84065623D01*
X78530521Y-84549432D01*
X79135283Y-83218956D02*
X79135283Y-82977052D01*
X79074807Y-82856099D01*
X79014331Y-82795623D01*
X78832902Y-82674671D01*
X78590998Y-82614194D01*
X78107188Y-82614194D01*
X77986236Y-82674671D01*
X77925760Y-82735147D01*
X77865283Y-82856099D01*
X77865283Y-83098004D01*
X77925760Y-83218956D01*
X77986236Y-83279432D01*
X78107188Y-83339909D01*
X78409569Y-83339909D01*
X78530521Y-83279432D01*
X78590998Y-83218956D01*
X78651474Y-83098004D01*
X78651474Y-82856099D01*
X78590998Y-82735147D01*
X78530521Y-82674671D01*
X78409569Y-82614194D01*
%TO.C,CP2*%
X99132387Y-59806812D02*
X99071911Y-59867288D01*
X98890482Y-59927764D01*
X98769530Y-59927764D01*
X98588101Y-59867288D01*
X98467149Y-59746336D01*
X98406673Y-59625383D01*
X98346196Y-59383479D01*
X98346196Y-59202050D01*
X98406673Y-58960145D01*
X98467149Y-58839193D01*
X98588101Y-58718241D01*
X98769530Y-58657764D01*
X98890482Y-58657764D01*
X99071911Y-58718241D01*
X99132387Y-58778717D01*
X99676673Y-59927764D02*
X99676673Y-58657764D01*
X100160482Y-58657764D01*
X100281434Y-58718241D01*
X100341911Y-58778717D01*
X100402387Y-58899669D01*
X100402387Y-59081098D01*
X100341911Y-59202050D01*
X100281434Y-59262526D01*
X100160482Y-59323002D01*
X99676673Y-59323002D01*
X100886196Y-58778717D02*
X100946673Y-58718241D01*
X101067625Y-58657764D01*
X101370006Y-58657764D01*
X101490958Y-58718241D01*
X101551434Y-58778717D01*
X101611911Y-58899669D01*
X101611911Y-59020621D01*
X101551434Y-59202050D01*
X100825720Y-59927764D01*
X101611911Y-59927764D01*
%TO.C,Q2*%
X140294454Y-63986021D02*
X140173502Y-63925545D01*
X140052549Y-63804592D01*
X139871121Y-63623164D01*
X139750168Y-63562687D01*
X139629216Y-63562687D01*
X139689692Y-63865068D02*
X139568740Y-63804592D01*
X139447787Y-63683640D01*
X139387311Y-63441735D01*
X139387311Y-63018402D01*
X139447787Y-62776497D01*
X139568740Y-62655545D01*
X139689692Y-62595068D01*
X139931597Y-62595068D01*
X140052549Y-62655545D01*
X140173502Y-62776497D01*
X140233978Y-63018402D01*
X140233978Y-63441735D01*
X140173502Y-63683640D01*
X140052549Y-63804592D01*
X139931597Y-63865068D01*
X139689692Y-63865068D01*
X140717787Y-62716021D02*
X140778264Y-62655545D01*
X140899216Y-62595068D01*
X141201597Y-62595068D01*
X141322549Y-62655545D01*
X141383026Y-62716021D01*
X141443502Y-62836973D01*
X141443502Y-62957925D01*
X141383026Y-63139354D01*
X140657311Y-63865068D01*
X141443502Y-63865068D01*
%TO.C,G7*%
X89918341Y-57517805D02*
X89797388Y-57457328D01*
X89615960Y-57457328D01*
X89434531Y-57517805D01*
X89313579Y-57638757D01*
X89253103Y-57759709D01*
X89192626Y-58001614D01*
X89192626Y-58183043D01*
X89253103Y-58424947D01*
X89313579Y-58545900D01*
X89434531Y-58666852D01*
X89615960Y-58727328D01*
X89736912Y-58727328D01*
X89918341Y-58666852D01*
X89978817Y-58606376D01*
X89978817Y-58183043D01*
X89736912Y-58183043D01*
X90402150Y-57457328D02*
X91248817Y-57457328D01*
X90704531Y-58727328D01*
%TO.C,R4*%
X104096108Y-77093318D02*
X103491346Y-77516652D01*
X104096108Y-77819032D02*
X102826108Y-77819032D01*
X102826108Y-77335223D01*
X102886585Y-77214271D01*
X102947061Y-77153794D01*
X103068013Y-77093318D01*
X103249442Y-77093318D01*
X103370394Y-77153794D01*
X103430870Y-77214271D01*
X103491346Y-77335223D01*
X103491346Y-77819032D01*
X103249442Y-76004747D02*
X104096108Y-76004747D01*
X102765632Y-76307128D02*
X103672775Y-76609509D01*
X103672775Y-75823318D01*
D10*
%TO.C,TP3*%
X110666277Y-50956134D02*
X111237705Y-50956134D01*
X110951991Y-51956134D02*
X110951991Y-50956134D01*
X111571039Y-51956134D02*
X111571039Y-50956134D01*
X111951991Y-50956134D01*
X112047229Y-51003754D01*
X112094848Y-51051373D01*
X112142467Y-51146611D01*
X112142467Y-51289468D01*
X112094848Y-51384706D01*
X112047229Y-51432325D01*
X111951991Y-51479944D01*
X111571039Y-51479944D01*
X112475801Y-50956134D02*
X113094848Y-50956134D01*
X112761515Y-51337087D01*
X112904372Y-51337087D01*
X112999610Y-51384706D01*
X113047229Y-51432325D01*
X113094848Y-51527563D01*
X113094848Y-51765658D01*
X113047229Y-51860896D01*
X112999610Y-51908515D01*
X112904372Y-51956134D01*
X112618658Y-51956134D01*
X112523420Y-51908515D01*
X112475801Y-51860896D01*
%TO.C,C16*%
X124765234Y-39494790D02*
X124717615Y-39542409D01*
X124574758Y-39590028D01*
X124479520Y-39590028D01*
X124336663Y-39542409D01*
X124241425Y-39447171D01*
X124193806Y-39351933D01*
X124146187Y-39161457D01*
X124146187Y-39018600D01*
X124193806Y-38828124D01*
X124241425Y-38732886D01*
X124336663Y-38637648D01*
X124479520Y-38590028D01*
X124574758Y-38590028D01*
X124717615Y-38637648D01*
X124765234Y-38685267D01*
X125717615Y-39590028D02*
X125146187Y-39590028D01*
X125431901Y-39590028D02*
X125431901Y-38590028D01*
X125336663Y-38732886D01*
X125241425Y-38828124D01*
X125146187Y-38875743D01*
X126574758Y-38590028D02*
X126384282Y-38590028D01*
X126289044Y-38637648D01*
X126241425Y-38685267D01*
X126146187Y-38828124D01*
X126098568Y-39018600D01*
X126098568Y-39399552D01*
X126146187Y-39494790D01*
X126193806Y-39542409D01*
X126289044Y-39590028D01*
X126479520Y-39590028D01*
X126574758Y-39542409D01*
X126622377Y-39494790D01*
X126669996Y-39399552D01*
X126669996Y-39161457D01*
X126622377Y-39066219D01*
X126574758Y-39018600D01*
X126479520Y-38970981D01*
X126289044Y-38970981D01*
X126193806Y-39018600D01*
X126146187Y-39066219D01*
X126098568Y-39161457D01*
%TO.C,*%
D11*
%TO.C,R30*%
X92791112Y-77016427D02*
X92186350Y-77439760D01*
X92791112Y-77742141D02*
X91521112Y-77742141D01*
X91521112Y-77258332D01*
X91581589Y-77137379D01*
X91642065Y-77076903D01*
X91763017Y-77016427D01*
X91944446Y-77016427D01*
X92065398Y-77076903D01*
X92125874Y-77137379D01*
X92186350Y-77258332D01*
X92186350Y-77742141D01*
X91521112Y-76593094D02*
X91521112Y-75806903D01*
X92004922Y-76230237D01*
X92004922Y-76048808D01*
X92065398Y-75927856D01*
X92125874Y-75867379D01*
X92246827Y-75806903D01*
X92549208Y-75806903D01*
X92670160Y-75867379D01*
X92730636Y-75927856D01*
X92791112Y-76048808D01*
X92791112Y-76411665D01*
X92730636Y-76532618D01*
X92670160Y-76593094D01*
X91521112Y-75020713D02*
X91521112Y-74899760D01*
X91581589Y-74778808D01*
X91642065Y-74718332D01*
X91763017Y-74657856D01*
X92004922Y-74597379D01*
X92307303Y-74597379D01*
X92549208Y-74657856D01*
X92670160Y-74718332D01*
X92730636Y-74778808D01*
X92791112Y-74899760D01*
X92791112Y-75020713D01*
X92730636Y-75141665D01*
X92670160Y-75202141D01*
X92549208Y-75262618D01*
X92307303Y-75323094D01*
X92004922Y-75323094D01*
X91763017Y-75262618D01*
X91642065Y-75202141D01*
X91581589Y-75141665D01*
X91521112Y-75020713D01*
%TO.C,R20*%
X98577322Y-57207825D02*
X98153989Y-56603063D01*
X97851608Y-57207825D02*
X97851608Y-55937825D01*
X98335417Y-55937825D01*
X98456370Y-55998302D01*
X98516846Y-56058778D01*
X98577322Y-56179730D01*
X98577322Y-56361159D01*
X98516846Y-56482111D01*
X98456370Y-56542587D01*
X98335417Y-56603063D01*
X97851608Y-56603063D01*
X99061131Y-56058778D02*
X99121608Y-55998302D01*
X99242560Y-55937825D01*
X99544941Y-55937825D01*
X99665893Y-55998302D01*
X99726370Y-56058778D01*
X99786846Y-56179730D01*
X99786846Y-56300682D01*
X99726370Y-56482111D01*
X99000655Y-57207825D01*
X99786846Y-57207825D01*
X100573036Y-55937825D02*
X100693989Y-55937825D01*
X100814941Y-55998302D01*
X100875417Y-56058778D01*
X100935893Y-56179730D01*
X100996370Y-56421635D01*
X100996370Y-56724016D01*
X100935893Y-56965921D01*
X100875417Y-57086873D01*
X100814941Y-57147349D01*
X100693989Y-57207825D01*
X100573036Y-57207825D01*
X100452084Y-57147349D01*
X100391608Y-57086873D01*
X100331131Y-56965921D01*
X100270655Y-56724016D01*
X100270655Y-56421635D01*
X100331131Y-56179730D01*
X100391608Y-56058778D01*
X100452084Y-55998302D01*
X100573036Y-55937825D01*
D10*
%TO.C,D1*%
X62861053Y-76069866D02*
X62861053Y-75069866D01*
X63099149Y-75069866D01*
X63242006Y-75117486D01*
X63337244Y-75212724D01*
X63384863Y-75307962D01*
X63432482Y-75498438D01*
X63432482Y-75641295D01*
X63384863Y-75831771D01*
X63337244Y-75927009D01*
X63242006Y-76022247D01*
X63099149Y-76069866D01*
X62861053Y-76069866D01*
X64384863Y-76069866D02*
X63813434Y-76069866D01*
X64099149Y-76069866D02*
X64099149Y-75069866D01*
X64003910Y-75212724D01*
X63908672Y-75307962D01*
X63813434Y-75355581D01*
D11*
%TO.C,C3*%
X127952492Y-74324420D02*
X128012968Y-74384896D01*
X128073444Y-74566325D01*
X128073444Y-74687277D01*
X128012968Y-74868706D01*
X127892016Y-74989658D01*
X127771063Y-75050134D01*
X127529159Y-75110611D01*
X127347730Y-75110611D01*
X127105825Y-75050134D01*
X126984873Y-74989658D01*
X126863921Y-74868706D01*
X126803444Y-74687277D01*
X126803444Y-74566325D01*
X126863921Y-74384896D01*
X126924397Y-74324420D01*
X126803444Y-73901087D02*
X126803444Y-73114896D01*
X127287254Y-73538230D01*
X127287254Y-73356801D01*
X127347730Y-73235849D01*
X127408206Y-73175373D01*
X127529159Y-73114896D01*
X127831540Y-73114896D01*
X127952492Y-73175373D01*
X128012968Y-73235849D01*
X128073444Y-73356801D01*
X128073444Y-73719658D01*
X128012968Y-73840611D01*
X127952492Y-73901087D01*
D10*
%TO.C,D9*%
X87932380Y-52808095D02*
X86932380Y-52808095D01*
X86932380Y-52570000D01*
X86980000Y-52427142D01*
X87075238Y-52331904D01*
X87170476Y-52284285D01*
X87360952Y-52236666D01*
X87503809Y-52236666D01*
X87694285Y-52284285D01*
X87789523Y-52331904D01*
X87884761Y-52427142D01*
X87932380Y-52570000D01*
X87932380Y-52808095D01*
X87932380Y-51760476D02*
X87932380Y-51570000D01*
X87884761Y-51474761D01*
X87837142Y-51427142D01*
X87694285Y-51331904D01*
X87503809Y-51284285D01*
X87122857Y-51284285D01*
X87027619Y-51331904D01*
X86980000Y-51379523D01*
X86932380Y-51474761D01*
X86932380Y-51665238D01*
X86980000Y-51760476D01*
X87027619Y-51808095D01*
X87122857Y-51855714D01*
X87360952Y-51855714D01*
X87456190Y-51808095D01*
X87503809Y-51760476D01*
X87551428Y-51665238D01*
X87551428Y-51474761D01*
X87503809Y-51379523D01*
X87456190Y-51331904D01*
X87360952Y-51284285D01*
D11*
%TO.C,C4*%
X103425531Y-50069116D02*
X103365055Y-50129592D01*
X103183626Y-50190068D01*
X103062674Y-50190068D01*
X102881245Y-50129592D01*
X102760293Y-50008640D01*
X102699817Y-49887687D01*
X102639340Y-49645783D01*
X102639340Y-49464354D01*
X102699817Y-49222449D01*
X102760293Y-49101497D01*
X102881245Y-48980545D01*
X103062674Y-48920068D01*
X103183626Y-48920068D01*
X103365055Y-48980545D01*
X103425531Y-49041021D01*
X104514102Y-49343402D02*
X104514102Y-50190068D01*
X104211721Y-48859592D02*
X103909340Y-49766735D01*
X104695531Y-49766735D01*
D10*
%TO.C,D5*%
X116535868Y-38922034D02*
X116535868Y-37922034D01*
X116773964Y-37922034D01*
X116916821Y-37969654D01*
X117012059Y-38064892D01*
X117059678Y-38160130D01*
X117107297Y-38350606D01*
X117107297Y-38493463D01*
X117059678Y-38683939D01*
X117012059Y-38779177D01*
X116916821Y-38874415D01*
X116773964Y-38922034D01*
X116535868Y-38922034D01*
X118012059Y-37922034D02*
X117535868Y-37922034D01*
X117488249Y-38398225D01*
X117535868Y-38350606D01*
X117631106Y-38302987D01*
X117869202Y-38302987D01*
X117964440Y-38350606D01*
X118012059Y-38398225D01*
X118059678Y-38493463D01*
X118059678Y-38731558D01*
X118012059Y-38826796D01*
X117964440Y-38874415D01*
X117869202Y-38922034D01*
X117631106Y-38922034D01*
X117535868Y-38874415D01*
X117488249Y-38826796D01*
%TO.C,J2*%
X75814642Y-85554092D02*
X75814642Y-86268378D01*
X75767023Y-86411235D01*
X75671785Y-86506473D01*
X75528928Y-86554092D01*
X75433690Y-86554092D01*
X76243214Y-85649331D02*
X76290833Y-85601712D01*
X76386071Y-85554092D01*
X76624166Y-85554092D01*
X76719404Y-85601712D01*
X76767023Y-85649331D01*
X76814642Y-85744569D01*
X76814642Y-85839807D01*
X76767023Y-85982664D01*
X76195595Y-86554092D01*
X76814642Y-86554092D01*
D11*
%TO.C,R8*%
X128847329Y-66365817D02*
X128242567Y-66789151D01*
X128847329Y-67091531D02*
X127577329Y-67091531D01*
X127577329Y-66607722D01*
X127637806Y-66486770D01*
X127698282Y-66426293D01*
X127819234Y-66365817D01*
X128000663Y-66365817D01*
X128121615Y-66426293D01*
X128182091Y-66486770D01*
X128242567Y-66607722D01*
X128242567Y-67091531D01*
X128121615Y-65640103D02*
X128061139Y-65761055D01*
X128000663Y-65821531D01*
X127879710Y-65882008D01*
X127819234Y-65882008D01*
X127698282Y-65821531D01*
X127637806Y-65761055D01*
X127577329Y-65640103D01*
X127577329Y-65398198D01*
X127637806Y-65277246D01*
X127698282Y-65216770D01*
X127819234Y-65156293D01*
X127879710Y-65156293D01*
X128000663Y-65216770D01*
X128061139Y-65277246D01*
X128121615Y-65398198D01*
X128121615Y-65640103D01*
X128182091Y-65761055D01*
X128242567Y-65821531D01*
X128363520Y-65882008D01*
X128605425Y-65882008D01*
X128726377Y-65821531D01*
X128786853Y-65761055D01*
X128847329Y-65640103D01*
X128847329Y-65398198D01*
X128786853Y-65277246D01*
X128726377Y-65216770D01*
X128605425Y-65156293D01*
X128363520Y-65156293D01*
X128242567Y-65216770D01*
X128182091Y-65277246D01*
X128121615Y-65398198D01*
%TO.C,C2*%
X118903127Y-64693388D02*
X118842651Y-64753864D01*
X118661222Y-64814340D01*
X118540270Y-64814340D01*
X118358841Y-64753864D01*
X118237889Y-64632912D01*
X118177413Y-64511959D01*
X118116936Y-64270055D01*
X118116936Y-64088626D01*
X118177413Y-63846721D01*
X118237889Y-63725769D01*
X118358841Y-63604817D01*
X118540270Y-63544340D01*
X118661222Y-63544340D01*
X118842651Y-63604817D01*
X118903127Y-63665293D01*
X119386936Y-63665293D02*
X119447413Y-63604817D01*
X119568365Y-63544340D01*
X119870746Y-63544340D01*
X119991698Y-63604817D01*
X120052174Y-63665293D01*
X120112651Y-63786245D01*
X120112651Y-63907197D01*
X120052174Y-64088626D01*
X119326460Y-64814340D01*
X120112651Y-64814340D01*
D10*
%TO.C,D7*%
X124104711Y-41293464D02*
X124104711Y-40293464D01*
X124342807Y-40293464D01*
X124485664Y-40341084D01*
X124580902Y-40436322D01*
X124628521Y-40531560D01*
X124676140Y-40722036D01*
X124676140Y-40864893D01*
X124628521Y-41055369D01*
X124580902Y-41150607D01*
X124485664Y-41245845D01*
X124342807Y-41293464D01*
X124104711Y-41293464D01*
X125009473Y-40293464D02*
X125676140Y-40293464D01*
X125247568Y-41293464D01*
D11*
%TO.C,G3*%
X65007340Y-54622621D02*
X64886387Y-54562144D01*
X64704959Y-54562144D01*
X64523530Y-54622621D01*
X64402578Y-54743573D01*
X64342102Y-54864525D01*
X64281625Y-55106430D01*
X64281625Y-55287859D01*
X64342102Y-55529763D01*
X64402578Y-55650716D01*
X64523530Y-55771668D01*
X64704959Y-55832144D01*
X64825911Y-55832144D01*
X65007340Y-55771668D01*
X65067816Y-55711192D01*
X65067816Y-55287859D01*
X64825911Y-55287859D01*
X65491149Y-54562144D02*
X66277340Y-54562144D01*
X65854006Y-55045954D01*
X66035435Y-55045954D01*
X66156387Y-55106430D01*
X66216863Y-55166906D01*
X66277340Y-55287859D01*
X66277340Y-55590240D01*
X66216863Y-55711192D01*
X66156387Y-55771668D01*
X66035435Y-55832144D01*
X65672578Y-55832144D01*
X65551625Y-55771668D01*
X65491149Y-55711192D01*
%TO.C,C6*%
X128478915Y-41874575D02*
X128418439Y-41935051D01*
X128237010Y-41995527D01*
X128116058Y-41995527D01*
X127934629Y-41935051D01*
X127813677Y-41814099D01*
X127753201Y-41693146D01*
X127692724Y-41451242D01*
X127692724Y-41269813D01*
X127753201Y-41027908D01*
X127813677Y-40906956D01*
X127934629Y-40786004D01*
X128116058Y-40725527D01*
X128237010Y-40725527D01*
X128418439Y-40786004D01*
X128478915Y-40846480D01*
X129567486Y-40725527D02*
X129325582Y-40725527D01*
X129204629Y-40786004D01*
X129144153Y-40846480D01*
X129023201Y-41027908D01*
X128962724Y-41269813D01*
X128962724Y-41753623D01*
X129023201Y-41874575D01*
X129083677Y-41935051D01*
X129204629Y-41995527D01*
X129446534Y-41995527D01*
X129567486Y-41935051D01*
X129627962Y-41874575D01*
X129688439Y-41753623D01*
X129688439Y-41451242D01*
X129627962Y-41330289D01*
X129567486Y-41269813D01*
X129446534Y-41209337D01*
X129204629Y-41209337D01*
X129083677Y-41269813D01*
X129023201Y-41330289D01*
X128962724Y-41451242D01*
%TO.C,R21*%
X107102616Y-55628352D02*
X106679283Y-55023590D01*
X106376902Y-55628352D02*
X106376902Y-54358352D01*
X106860711Y-54358352D01*
X106981664Y-54418829D01*
X107042140Y-54479305D01*
X107102616Y-54600257D01*
X107102616Y-54781686D01*
X107042140Y-54902638D01*
X106981664Y-54963114D01*
X106860711Y-55023590D01*
X106376902Y-55023590D01*
X107586425Y-54479305D02*
X107646902Y-54418829D01*
X107767854Y-54358352D01*
X108070235Y-54358352D01*
X108191187Y-54418829D01*
X108251664Y-54479305D01*
X108312140Y-54600257D01*
X108312140Y-54721209D01*
X108251664Y-54902638D01*
X107525949Y-55628352D01*
X108312140Y-55628352D01*
X109521664Y-55628352D02*
X108795949Y-55628352D01*
X109158806Y-55628352D02*
X109158806Y-54358352D01*
X109037854Y-54539781D01*
X108916902Y-54660733D01*
X108795949Y-54721209D01*
%TO.C,G4*%
X64778525Y-71091075D02*
X64657572Y-71030598D01*
X64476144Y-71030598D01*
X64294715Y-71091075D01*
X64173763Y-71212027D01*
X64113287Y-71332979D01*
X64052810Y-71574884D01*
X64052810Y-71756313D01*
X64113287Y-71998217D01*
X64173763Y-72119170D01*
X64294715Y-72240122D01*
X64476144Y-72300598D01*
X64597096Y-72300598D01*
X64778525Y-72240122D01*
X64839001Y-72179646D01*
X64839001Y-71756313D01*
X64597096Y-71756313D01*
X65927572Y-71453932D02*
X65927572Y-72300598D01*
X65625191Y-70970122D02*
X65322810Y-71877265D01*
X66109001Y-71877265D01*
D10*
%TO.C,D11*%
X75232380Y-53284285D02*
X74232380Y-53284285D01*
X74232380Y-53046190D01*
X74280000Y-52903333D01*
X74375238Y-52808095D01*
X74470476Y-52760476D01*
X74660952Y-52712857D01*
X74803809Y-52712857D01*
X74994285Y-52760476D01*
X75089523Y-52808095D01*
X75184761Y-52903333D01*
X75232380Y-53046190D01*
X75232380Y-53284285D01*
X75232380Y-51760476D02*
X75232380Y-52331904D01*
X75232380Y-52046190D02*
X74232380Y-52046190D01*
X74375238Y-52141428D01*
X74470476Y-52236666D01*
X74518095Y-52331904D01*
X75232380Y-50808095D02*
X75232380Y-51379523D01*
X75232380Y-51093809D02*
X74232380Y-51093809D01*
X74375238Y-51189047D01*
X74470476Y-51284285D01*
X74518095Y-51379523D01*
D11*
%TO.C,R15*%
X114749238Y-47011103D02*
X114325905Y-46406341D01*
X114023524Y-47011103D02*
X114023524Y-45741103D01*
X114507333Y-45741103D01*
X114628286Y-45801580D01*
X114688762Y-45862056D01*
X114749238Y-45983008D01*
X114749238Y-46164437D01*
X114688762Y-46285389D01*
X114628286Y-46345865D01*
X114507333Y-46406341D01*
X114023524Y-46406341D01*
X115958762Y-47011103D02*
X115233047Y-47011103D01*
X115595905Y-47011103D02*
X115595905Y-45741103D01*
X115474952Y-45922532D01*
X115354000Y-46043484D01*
X115233047Y-46103960D01*
X117107809Y-45741103D02*
X116503047Y-45741103D01*
X116442571Y-46345865D01*
X116503047Y-46285389D01*
X116624000Y-46224913D01*
X116926381Y-46224913D01*
X117047333Y-46285389D01*
X117107809Y-46345865D01*
X117168286Y-46466818D01*
X117168286Y-46769199D01*
X117107809Y-46890151D01*
X117047333Y-46950627D01*
X116926381Y-47011103D01*
X116624000Y-47011103D01*
X116503047Y-46950627D01*
X116442571Y-46890151D01*
%TO.C,R10*%
X127827762Y-70748667D02*
X127404429Y-70143905D01*
X127102048Y-70748667D02*
X127102048Y-69478667D01*
X127585857Y-69478667D01*
X127706810Y-69539144D01*
X127767286Y-69599620D01*
X127827762Y-69720572D01*
X127827762Y-69902001D01*
X127767286Y-70022953D01*
X127706810Y-70083429D01*
X127585857Y-70143905D01*
X127102048Y-70143905D01*
X129037286Y-70748667D02*
X128311571Y-70748667D01*
X128674429Y-70748667D02*
X128674429Y-69478667D01*
X128553476Y-69660096D01*
X128432524Y-69781048D01*
X128311571Y-69841524D01*
X129823476Y-69478667D02*
X129944429Y-69478667D01*
X130065381Y-69539144D01*
X130125857Y-69599620D01*
X130186333Y-69720572D01*
X130246810Y-69962477D01*
X130246810Y-70264858D01*
X130186333Y-70506763D01*
X130125857Y-70627715D01*
X130065381Y-70688191D01*
X129944429Y-70748667D01*
X129823476Y-70748667D01*
X129702524Y-70688191D01*
X129642048Y-70627715D01*
X129581571Y-70506763D01*
X129521095Y-70264858D01*
X129521095Y-69962477D01*
X129581571Y-69720572D01*
X129642048Y-69599620D01*
X129702524Y-69539144D01*
X129823476Y-69478667D01*
D10*
%TO.C,J4*%
X106355031Y-28749695D02*
X106355031Y-29463981D01*
X106307412Y-29606838D01*
X106212174Y-29702076D01*
X106069317Y-29749695D01*
X105974079Y-29749695D01*
X107259793Y-29083029D02*
X107259793Y-29749695D01*
X107021698Y-28702076D02*
X106783603Y-29416362D01*
X107402650Y-29416362D01*
D11*
%TO.C,C17*%
X114906623Y-55014881D02*
X114846147Y-55075357D01*
X114664718Y-55135833D01*
X114543766Y-55135833D01*
X114362337Y-55075357D01*
X114241385Y-54954405D01*
X114180909Y-54833452D01*
X114120432Y-54591548D01*
X114120432Y-54410119D01*
X114180909Y-54168214D01*
X114241385Y-54047262D01*
X114362337Y-53926310D01*
X114543766Y-53865833D01*
X114664718Y-53865833D01*
X114846147Y-53926310D01*
X114906623Y-53986786D01*
X116116147Y-55135833D02*
X115390432Y-55135833D01*
X115753290Y-55135833D02*
X115753290Y-53865833D01*
X115632337Y-54047262D01*
X115511385Y-54168214D01*
X115390432Y-54228690D01*
X116539480Y-53865833D02*
X117386147Y-53865833D01*
X116841861Y-55135833D01*
D10*
%TO.C,J8*%
X77175357Y-27807522D02*
X77175357Y-28521808D01*
X77127738Y-28664665D01*
X77032500Y-28759903D01*
X76889643Y-28807522D01*
X76794405Y-28807522D01*
X77794405Y-28236094D02*
X77699167Y-28188475D01*
X77651548Y-28140856D01*
X77603929Y-28045618D01*
X77603929Y-27997999D01*
X77651548Y-27902761D01*
X77699167Y-27855142D01*
X77794405Y-27807522D01*
X77984881Y-27807522D01*
X78080119Y-27855142D01*
X78127738Y-27902761D01*
X78175357Y-27997999D01*
X78175357Y-28045618D01*
X78127738Y-28140856D01*
X78080119Y-28188475D01*
X77984881Y-28236094D01*
X77794405Y-28236094D01*
X77699167Y-28283713D01*
X77651548Y-28331332D01*
X77603929Y-28426570D01*
X77603929Y-28617046D01*
X77651548Y-28712284D01*
X77699167Y-28759903D01*
X77794405Y-28807522D01*
X77984881Y-28807522D01*
X78080119Y-28759903D01*
X78127738Y-28712284D01*
X78175357Y-28617046D01*
X78175357Y-28426570D01*
X78127738Y-28331332D01*
X78080119Y-28283713D01*
X77984881Y-28236094D01*
%TO.C,D3*%
X71934016Y-71468391D02*
X71934016Y-70468391D01*
X72172112Y-70468391D01*
X72314969Y-70516011D01*
X72410207Y-70611249D01*
X72457826Y-70706487D01*
X72505445Y-70896963D01*
X72505445Y-71039820D01*
X72457826Y-71230296D01*
X72410207Y-71325534D01*
X72314969Y-71420772D01*
X72172112Y-71468391D01*
X71934016Y-71468391D01*
X72838778Y-70468391D02*
X73457826Y-70468391D01*
X73124492Y-70849344D01*
X73267350Y-70849344D01*
X73362588Y-70896963D01*
X73410207Y-70944582D01*
X73457826Y-71039820D01*
X73457826Y-71277915D01*
X73410207Y-71373153D01*
X73362588Y-71420772D01*
X73267350Y-71468391D01*
X72981635Y-71468391D01*
X72886397Y-71420772D01*
X72838778Y-71373153D01*
D11*
%TO.C,RV1*%
X90564553Y-81331547D02*
X90141220Y-80726785D01*
X89838839Y-81331547D02*
X89838839Y-80061547D01*
X90322648Y-80061547D01*
X90443601Y-80122024D01*
X90504077Y-80182500D01*
X90564553Y-80303452D01*
X90564553Y-80484881D01*
X90504077Y-80605833D01*
X90443601Y-80666309D01*
X90322648Y-80726785D01*
X89838839Y-80726785D01*
X90927410Y-80061547D02*
X91350744Y-81331547D01*
X91774077Y-80061547D01*
X92862648Y-81331547D02*
X92136934Y-81331547D01*
X92499791Y-81331547D02*
X92499791Y-80061547D01*
X92378839Y-80242976D01*
X92257886Y-80363928D01*
X92136934Y-80424404D01*
%TO.C,C11*%
X121075882Y-55076287D02*
X121015406Y-55136763D01*
X120833977Y-55197239D01*
X120713025Y-55197239D01*
X120531596Y-55136763D01*
X120410644Y-55015811D01*
X120350168Y-54894858D01*
X120289691Y-54652954D01*
X120289691Y-54471525D01*
X120350168Y-54229620D01*
X120410644Y-54108668D01*
X120531596Y-53987716D01*
X120713025Y-53927239D01*
X120833977Y-53927239D01*
X121015406Y-53987716D01*
X121075882Y-54048192D01*
X122285406Y-55197239D02*
X121559691Y-55197239D01*
X121922549Y-55197239D02*
X121922549Y-53927239D01*
X121801596Y-54108668D01*
X121680644Y-54229620D01*
X121559691Y-54290096D01*
X123494930Y-55197239D02*
X122769215Y-55197239D01*
X123132072Y-55197239D02*
X123132072Y-53927239D01*
X123011120Y-54108668D01*
X122890168Y-54229620D01*
X122769215Y-54290096D01*
D12*
%TO.C,R12*%
X128840000Y-74165346D02*
X130240000Y-74165346D01*
D13*
%TO.C,D6*%
X89116399Y-65398603D02*
X89116399Y-68488603D01*
X89116399Y-68488433D02*
G75*
G03*
X94666399Y-66943141I2560000J1544830D01*
G01*
X94666399Y-66944065D02*
G75*
G03*
X89116399Y-65398773I-2990000J462D01*
G01*
X94176399Y-66943603D02*
G75*
G03*
X94176399Y-66943603I-2500000J0D01*
G01*
%TO.C,TP4*%
X110399826Y-61195494D02*
G75*
G03*
X110399826Y-61195494I-1200000J0D01*
G01*
D12*
%TO.C,R2*%
X101729958Y-73163812D02*
X103129958Y-73163812D01*
D13*
%TO.C,TP2*%
X124046804Y-67166801D02*
G75*
G03*
X124046804Y-67166801I-1200000J0D01*
G01*
D12*
%TO.C,R28*%
X54343256Y-71850787D02*
X55743256Y-71850787D01*
D14*
%TO.C,J10*%
X143013833Y-45524090D02*
X149363833Y-45524090D01*
X149363833Y-45524090D02*
X149363833Y-50454090D01*
X143013833Y-50454090D02*
X143013833Y-45524090D01*
X149363833Y-50454090D02*
X143013833Y-50454090D01*
D12*
X146363833Y-44719090D02*
G75*
G03*
X146363833Y-44719090I-100000J0D01*
G01*
%TO.C,G12*%
X104529703Y-43715032D02*
X105679703Y-43715032D01*
X106029703Y-46665032D02*
X106029703Y-43765032D01*
X106029703Y-43765032D02*
X106779703Y-43765032D01*
X106779703Y-46665032D02*
X106029703Y-46665032D01*
X106779703Y-43765032D02*
X106779703Y-46665032D01*
D14*
%TO.C,J7*%
X65293894Y-33601579D02*
X60363894Y-33601579D01*
X60363894Y-27251579D02*
X65293894Y-27251579D01*
X65293894Y-27251579D02*
X65293894Y-33601579D01*
X60363894Y-33601579D02*
X60363894Y-27251579D01*
D12*
X59658894Y-30351579D02*
G75*
G03*
X59658894Y-30351579I-100000J0D01*
G01*
D13*
%TO.C,D4*%
X82740846Y-74693995D02*
X82740846Y-77783995D01*
X88290846Y-76239457D02*
G75*
G03*
X82740846Y-74694165I-2990000J462D01*
G01*
X82740846Y-77783825D02*
G75*
G03*
X88290846Y-76238533I2560000J1544830D01*
G01*
X87800846Y-76238995D02*
G75*
G03*
X87800846Y-76238995I-2500000J0D01*
G01*
D12*
%TO.C,R23*%
X130123440Y-57085826D02*
X130123440Y-58485826D01*
%TO.C,G2*%
X83531656Y-66937441D02*
X84281656Y-66937441D01*
X82031656Y-66887441D02*
X83181656Y-66887441D01*
X84281656Y-69837441D02*
X83531656Y-69837441D01*
X83531656Y-69837441D02*
X83531656Y-66937441D01*
X84281656Y-66937441D02*
X84281656Y-69837441D01*
%TO.C,R16*%
X141192983Y-43560504D02*
X139792983Y-43560504D01*
%TO.C,G6*%
X135643753Y-62563947D02*
X136393753Y-62563947D01*
X134143753Y-62513947D02*
X135293753Y-62513947D01*
X136393753Y-65463947D02*
X135643753Y-65463947D01*
X136393753Y-62563947D02*
X136393753Y-65463947D01*
X135643753Y-65463947D02*
X135643753Y-62563947D01*
%TO.C,R11*%
X107201251Y-34026853D02*
X108601251Y-34026853D01*
D14*
%TO.C,J1*%
X60811653Y-86910620D02*
X60811653Y-80560620D01*
X65741653Y-80560620D02*
X65741653Y-86910620D01*
X60811653Y-80560620D02*
X65741653Y-80560620D01*
X65741653Y-86910620D02*
X60811653Y-86910620D01*
D12*
X66646653Y-83810620D02*
G75*
G03*
X66646653Y-83810620I-100000J0D01*
G01*
D13*
%TO.C,D10*%
X64499862Y-54045890D02*
X67589862Y-54045890D01*
X66045324Y-48495890D02*
G75*
G03*
X64500032Y-54045890I-462J-2990000D01*
G01*
X67589692Y-54045890D02*
G75*
G03*
X66044400Y-48495890I-1544830J2560000D01*
G01*
X68544862Y-51485890D02*
G75*
G03*
X68544862Y-51485890I-2500000J0D01*
G01*
D12*
%TO.C,R29*%
X74857783Y-72742395D02*
X76257783Y-72742395D01*
%TO.C,G1*%
X83525451Y-60388242D02*
X84275451Y-60388242D01*
X84275451Y-63288242D02*
X83525451Y-63288242D01*
X84275451Y-60388242D02*
X84275451Y-63288242D01*
X82025451Y-60338242D02*
X83175451Y-60338242D01*
X83525451Y-63288242D02*
X83525451Y-60388242D01*
%TO.C,R6*%
X68771700Y-83820000D02*
X67371700Y-83820000D01*
D15*
%TO.C,K3*%
X75760000Y-36240000D02*
X75760000Y-36240000D01*
X71374000Y-37465000D02*
X75946000Y-37465000D01*
X71374000Y-43815000D02*
X71374000Y-37465000D01*
X75946000Y-37465000D02*
X75946000Y-43815000D01*
X75946000Y-43815000D02*
X71374000Y-43815000D01*
X75860000Y-36240000D02*
X75860000Y-36240000D01*
X75760000Y-36240000D02*
G75*
G03*
X75860000Y-36240000I50000J0D01*
G01*
X75860000Y-36240000D02*
G75*
G03*
X75760000Y-36240000I-50000J0D01*
G01*
D13*
%TO.C,D8*%
X133330000Y-39095000D02*
X133330000Y-42185000D01*
X133330000Y-42184830D02*
G75*
G03*
X138880000Y-40639538I2560000J1544830D01*
G01*
X138880000Y-40640462D02*
G75*
G03*
X133330000Y-39095170I-2990000J462D01*
G01*
X138390000Y-40640000D02*
G75*
G03*
X138390000Y-40640000I-2500000J0D01*
G01*
D12*
%TO.C,R27*%
X79440000Y-45720000D02*
X78040000Y-45720000D01*
%TO.C,G11*%
X70011769Y-57352609D02*
X70761769Y-57352609D01*
X70761769Y-60252609D02*
X70011769Y-60252609D01*
X70011769Y-60252609D02*
X70011769Y-57352609D01*
X70761769Y-57352609D02*
X70761769Y-60252609D01*
X68511769Y-57302609D02*
X69661769Y-57302609D01*
%TO.C,R19*%
X103900997Y-63342618D02*
X103900997Y-64742618D01*
%TO.C,G9*%
X101990442Y-42586774D02*
X101990442Y-45486774D01*
X101240442Y-42586774D02*
X101990442Y-42586774D01*
X99740442Y-42536774D02*
X100890442Y-42536774D01*
X101990442Y-45486774D02*
X101240442Y-45486774D01*
X101240442Y-45486774D02*
X101240442Y-42586774D01*
%TO.C,R17*%
X92150664Y-33343333D02*
X90750664Y-33343333D01*
%TO.C,R25*%
X92140000Y-45720000D02*
X90740000Y-45720000D01*
D14*
%TO.C,J5*%
X83889997Y-27387668D02*
X88819997Y-27387668D01*
X83889997Y-33737668D02*
X83889997Y-27387668D01*
X88819997Y-33737668D02*
X83889997Y-33737668D01*
X88819997Y-27387668D02*
X88819997Y-33737668D01*
D12*
X83184997Y-30487668D02*
G75*
G03*
X83184997Y-30487668I-100000J0D01*
G01*
%TO.C,R5*%
X110444182Y-73562693D02*
X111844182Y-73562693D01*
%TO.C,G8*%
X70955707Y-62389806D02*
X70955707Y-65289806D01*
X70955707Y-65289806D02*
X70205707Y-65289806D01*
X68705707Y-62339806D02*
X69855707Y-62339806D01*
X70205707Y-65289806D02*
X70205707Y-62389806D01*
X70205707Y-62389806D02*
X70955707Y-62389806D01*
D14*
%TO.C,J9*%
X142538070Y-36905266D02*
X148888070Y-36905266D01*
X142538070Y-41835266D02*
X142538070Y-36905266D01*
X148888070Y-36905266D02*
X148888070Y-41835266D01*
X148888070Y-41835266D02*
X142538070Y-41835266D01*
D12*
X145888070Y-36100266D02*
G75*
G03*
X145888070Y-36100266I-100000J0D01*
G01*
D11*
%TO.C,PS1*%
X125557680Y-26791500D02*
X139557680Y-26791500D01*
X139557680Y-34291500D02*
X125557680Y-34291500D01*
X139557680Y-26791500D02*
X139557680Y-34291500D01*
X125557680Y-34291500D02*
X125557680Y-26791500D01*
X124829040Y-30687500D02*
G75*
G03*
X124829040Y-30687500I-113360J0D01*
G01*
D12*
%TO.C,R24*%
X136846350Y-58406687D02*
X136846350Y-57006687D01*
%TO.C,R3*%
X59605009Y-81023292D02*
X58205009Y-81023292D01*
%TO.C,Q4*%
X140398900Y-48554885D02*
X140498900Y-48554885D01*
X140498900Y-48554885D02*
X140498900Y-51474885D01*
X140398900Y-51474885D02*
X140398900Y-48554885D01*
X138748900Y-48514885D02*
X140048900Y-48514885D01*
X140498900Y-51474885D02*
X140398900Y-51474885D01*
D14*
%TO.C,J3*%
X82625000Y-86920000D02*
X82625000Y-80570000D01*
X87555000Y-86920000D02*
X82625000Y-86920000D01*
X82625000Y-80570000D02*
X87555000Y-80570000D01*
X87555000Y-80570000D02*
X87555000Y-86920000D01*
D12*
X88460000Y-83820000D02*
G75*
G03*
X88460000Y-83820000I-100000J0D01*
G01*
%TO.C,R1*%
X103935077Y-68191025D02*
X105335077Y-68191025D01*
%TO.C,G10*%
X96366739Y-42954425D02*
X96366739Y-40054425D01*
X94866739Y-40004425D02*
X96016739Y-40004425D01*
X96366739Y-40054425D02*
X97116739Y-40054425D01*
X97116739Y-40054425D02*
X97116739Y-42954425D01*
X97116739Y-42954425D02*
X96366739Y-42954425D01*
%TO.C,DL1*%
X111029878Y-57984497D02*
X119679878Y-57984497D01*
X119679878Y-61184497D02*
X111029878Y-61184497D01*
X110869878Y-63059497D02*
X110869878Y-61534497D01*
X119679878Y-57984497D02*
X119679878Y-61184497D01*
X111029878Y-61184497D02*
X111029878Y-57984497D01*
%TO.C,R13*%
X94881230Y-61057242D02*
X94881230Y-62457242D01*
%TO.C,G13*%
X108301237Y-47425639D02*
X109451237Y-47425639D01*
X109801237Y-47475639D02*
X110551237Y-47475639D01*
X109801237Y-50375639D02*
X109801237Y-47475639D01*
X110551237Y-50375639D02*
X109801237Y-50375639D01*
X110551237Y-47475639D02*
X110551237Y-50375639D01*
D14*
%TO.C,J11*%
X113105000Y-33730000D02*
X113105000Y-27380000D01*
X113105000Y-27380000D02*
X118035000Y-27380000D01*
X118035000Y-27380000D02*
X118035000Y-33730000D01*
X118035000Y-33730000D02*
X113105000Y-33730000D01*
D12*
X112400000Y-30480000D02*
G75*
G03*
X112400000Y-30480000I-100000J0D01*
G01*
D14*
%TO.C,J6*%
X149278220Y-60012727D02*
X149278220Y-64942727D01*
X142928220Y-60012727D02*
X149278220Y-60012727D01*
X149278220Y-64942727D02*
X142928220Y-64942727D01*
X142928220Y-64942727D02*
X142928220Y-60012727D01*
D12*
X146278220Y-59207727D02*
G75*
G03*
X146278220Y-59207727I-100000J0D01*
G01*
%TO.C,R18*%
X69042051Y-33809679D02*
X67642051Y-33809679D01*
D15*
%TO.C,K2*%
X63246000Y-43815000D02*
X58674000Y-43815000D01*
X63060000Y-36240000D02*
X63060000Y-36240000D01*
X63246000Y-37465000D02*
X63246000Y-43815000D01*
X63160000Y-36240000D02*
X63160000Y-36240000D01*
X58674000Y-43815000D02*
X58674000Y-37465000D01*
X58674000Y-37465000D02*
X63246000Y-37465000D01*
X63160000Y-36240000D02*
G75*
G03*
X63060000Y-36240000I-50000J0D01*
G01*
X63060000Y-36240000D02*
G75*
G03*
X63160000Y-36240000I50000J0D01*
G01*
D12*
%TO.C,R7*%
X111576888Y-67516000D02*
X110176888Y-67516000D01*
D13*
%TO.C,TP1*%
X108891422Y-66893908D02*
G75*
G03*
X108891422Y-66893908I-1200000J0D01*
G01*
D12*
%TO.C,R22*%
X79556444Y-33432000D02*
X78156444Y-33432000D01*
%TO.C,G5*%
X64811071Y-62549141D02*
X65561071Y-62549141D01*
X64811071Y-65449141D02*
X64811071Y-62549141D01*
X65561071Y-62549141D02*
X65561071Y-65449141D01*
X65561071Y-65449141D02*
X64811071Y-65449141D01*
X63311071Y-62499141D02*
X64461071Y-62499141D01*
%TO.C,R14*%
X123101448Y-74868622D02*
X121701448Y-74868622D01*
D13*
%TO.C,D2*%
X138871681Y-73177042D02*
X138871681Y-70087042D01*
X138871681Y-70087212D02*
G75*
G03*
X133321681Y-71632504I-2560000J-1544830D01*
G01*
X133321681Y-71631580D02*
G75*
G03*
X138871681Y-73176872I2990000J-462D01*
G01*
X138811681Y-71632042D02*
G75*
G03*
X138811681Y-71632042I-2500000J0D01*
G01*
D15*
%TO.C,K1*%
X84074000Y-43815000D02*
X84074000Y-37465000D01*
X88646000Y-37465000D02*
X88646000Y-43815000D01*
X88646000Y-43815000D02*
X84074000Y-43815000D01*
X84074000Y-37465000D02*
X88646000Y-37465000D01*
X88460000Y-36240000D02*
X88460000Y-36240000D01*
X88560000Y-36240000D02*
X88560000Y-36240000D01*
X88460000Y-36240000D02*
G75*
G03*
X88560000Y-36240000I50000J0D01*
G01*
X88560000Y-36240000D02*
G75*
G03*
X88460000Y-36240000I-50000J0D01*
G01*
D12*
%TO.C,R26*%
X66740000Y-45720000D02*
X65340000Y-45720000D01*
%TO.C,CP1*%
X113365000Y-68540000D02*
X114892000Y-68540000D01*
X118438000Y-73572000D02*
X115242000Y-73572000D01*
X115242000Y-68668000D02*
X118438000Y-68668000D01*
X118438000Y-68668000D02*
X118438000Y-73572000D01*
X115242000Y-73572000D02*
X115242000Y-68668000D01*
D13*
%TO.C,TI1*%
X127675790Y-55790453D02*
X137955790Y-55790453D01*
X133815790Y-55730453D02*
X135465790Y-55730453D01*
X130165790Y-45450453D02*
X130165790Y-55730453D01*
X135465790Y-45450453D02*
X130165790Y-45450453D01*
X130165790Y-55730453D02*
X131815790Y-55730453D01*
X127675790Y-45390453D02*
X127675790Y-55790453D01*
X135465790Y-55730453D02*
X135465790Y-45450453D01*
X137955790Y-45390453D02*
X127675790Y-45390453D01*
X137955790Y-55790453D02*
X137955790Y-45390453D01*
X133815790Y-55730453D02*
G75*
G03*
X131815790Y-55730453I-1000000J0D01*
G01*
D12*
%TO.C,R9*%
X81337656Y-83820000D02*
X79937656Y-83820000D01*
%TO.C,CP2*%
X106049143Y-62367294D02*
X104899143Y-62367294D01*
X103799143Y-59417294D02*
X104549143Y-59417294D01*
X104549143Y-59417294D02*
X104549143Y-62317294D01*
X104549143Y-62317294D02*
X103799143Y-62317294D01*
X103799143Y-62317294D02*
X103799143Y-59417294D01*
%TO.C,Q2*%
X138728991Y-64521107D02*
X140028991Y-64521107D01*
X140478991Y-67481107D02*
X140378991Y-67481107D01*
X140378991Y-67481107D02*
X140378991Y-64561107D01*
X140478991Y-64561107D02*
X140478991Y-67481107D01*
X140378991Y-64561107D02*
X140478991Y-64561107D01*
%TO.C,G7*%
X89815484Y-62423844D02*
X89815484Y-59523844D01*
X88315484Y-59473844D02*
X89465484Y-59473844D01*
X90565484Y-59523844D02*
X90565484Y-62423844D01*
X89815484Y-59523844D02*
X90565484Y-59523844D01*
X90565484Y-62423844D02*
X89815484Y-62423844D01*
%TO.C,R4*%
X106327868Y-73765502D02*
X104927868Y-73765502D01*
D13*
%TO.C,TP3*%
X110045380Y-52681731D02*
G75*
G03*
X110045380Y-52681731I-1200000J0D01*
G01*
%TO.C,C16*%
X121446657Y-38864142D02*
X121446657Y-37384142D01*
X121766657Y-35304142D02*
X121766657Y-33775142D01*
X120885657Y-35304142D02*
X120885657Y-34015142D01*
X120805657Y-38634142D02*
X120805657Y-37384142D01*
X124561432Y-38069142D02*
X124561432Y-37569142D01*
X120845657Y-38654142D02*
X120845657Y-37384142D01*
X121886657Y-35304142D02*
X121886657Y-33766142D01*
X120485657Y-35304142D02*
X120485657Y-34249142D01*
X119925657Y-37898142D02*
X119925657Y-34790142D01*
X120325657Y-38315142D02*
X120325657Y-37384142D01*
X121646657Y-38900142D02*
X121646657Y-37384142D01*
X119445657Y-36862142D02*
X119445657Y-35826142D01*
X119605657Y-37355142D02*
X119605657Y-35333142D01*
X122006657Y-38924142D02*
X122006657Y-37384142D01*
X120845657Y-35304142D02*
X120845657Y-34034142D01*
X121285657Y-38824142D02*
X121285657Y-37384142D01*
X121926657Y-35304142D02*
X121926657Y-33765142D01*
X121366657Y-38845142D02*
X121366657Y-37384142D01*
X121966657Y-38924142D02*
X121966657Y-37384142D01*
X120645657Y-35304142D02*
X120645657Y-34144142D01*
X120245657Y-35304142D02*
X120245657Y-34443142D01*
X120045657Y-35304142D02*
X120045657Y-34645142D01*
X120925657Y-38692142D02*
X120925657Y-37384142D01*
X119685657Y-37522142D02*
X119685657Y-35166142D01*
X119565657Y-37259142D02*
X119565657Y-35429142D01*
X121606657Y-38894142D02*
X121606657Y-37384142D01*
X120285657Y-38281142D02*
X120285657Y-37384142D01*
X120725657Y-35304142D02*
X120725657Y-34097142D01*
X120445657Y-35304142D02*
X120445657Y-34279142D01*
X121085657Y-35304142D02*
X121085657Y-33930142D01*
X120965657Y-35304142D02*
X120965657Y-33979142D01*
X121846657Y-35304142D02*
X121846657Y-33768142D01*
X120005657Y-35304142D02*
X120005657Y-34691142D01*
X120365657Y-38348142D02*
X120365657Y-37384142D01*
X120805657Y-35304142D02*
X120805657Y-34054142D01*
X120685657Y-35304142D02*
X120685657Y-34120142D01*
X121726657Y-35304142D02*
X121726657Y-33779142D01*
X121726657Y-38909142D02*
X121726657Y-37384142D01*
X120085657Y-35304142D02*
X120085657Y-34601142D01*
X122006657Y-35304142D02*
X122006657Y-33764142D01*
X121245657Y-38812142D02*
X121245657Y-37384142D01*
X121766657Y-38913142D02*
X121766657Y-37384142D01*
X120485657Y-38439142D02*
X120485657Y-37384142D01*
X119765657Y-37663142D02*
X119765657Y-35025142D01*
X121406657Y-35304142D02*
X121406657Y-33833142D01*
X120325657Y-35304142D02*
X120325657Y-34373142D01*
X121326657Y-35304142D02*
X121326657Y-33853142D01*
X121045657Y-35304142D02*
X121045657Y-33946142D01*
X121165657Y-38786142D02*
X121165657Y-37384142D01*
X121526657Y-38880142D02*
X121526657Y-37384142D01*
X120925657Y-35304142D02*
X120925657Y-33996142D01*
X120205657Y-38208142D02*
X120205657Y-37384142D01*
X120725657Y-38591142D02*
X120725657Y-37384142D01*
X121566657Y-35304142D02*
X121566657Y-33801142D01*
X120525657Y-38466142D02*
X120525657Y-37384142D01*
X121486657Y-38872142D02*
X121486657Y-37384142D01*
X120885657Y-38673142D02*
X120885657Y-37384142D01*
X121205657Y-38799142D02*
X121205657Y-37384142D01*
X120765657Y-35304142D02*
X120765657Y-34076142D01*
X121326657Y-38835142D02*
X121326657Y-37384142D01*
X120605657Y-35304142D02*
X120605657Y-34169142D01*
X119525657Y-37149142D02*
X119525657Y-35539142D01*
X121646657Y-35304142D02*
X121646657Y-33788142D01*
X120965657Y-38709142D02*
X120965657Y-37384142D01*
X121125657Y-38772142D02*
X121125657Y-37384142D01*
X121085657Y-38758142D02*
X121085657Y-37384142D01*
X119405657Y-36628142D02*
X119405657Y-36060142D01*
X120565657Y-35304142D02*
X120565657Y-34195142D01*
X120405657Y-38379142D02*
X120405657Y-37384142D01*
X120605657Y-38519142D02*
X120605657Y-37384142D01*
X124811432Y-37819142D02*
X124311432Y-37819142D01*
X121446657Y-35304142D02*
X121446657Y-33824142D01*
X120125657Y-35304142D02*
X120125657Y-34559142D01*
X119645657Y-37442142D02*
X119645657Y-35246142D01*
X121406657Y-38855142D02*
X121406657Y-37384142D01*
X121806657Y-35304142D02*
X121806657Y-33771142D01*
X121806657Y-38917142D02*
X121806657Y-37384142D01*
X120045657Y-38043142D02*
X120045657Y-37384142D01*
X120405657Y-35304142D02*
X120405657Y-34309142D01*
X119965657Y-37949142D02*
X119965657Y-34739142D01*
X120245657Y-38245142D02*
X120245657Y-37384142D01*
X120565657Y-38493142D02*
X120565657Y-37384142D01*
X121686657Y-35304142D02*
X121686657Y-33783142D01*
X119725657Y-37595142D02*
X119725657Y-35093142D01*
X121205657Y-35304142D02*
X121205657Y-33889142D01*
X121366657Y-35304142D02*
X121366657Y-33843142D01*
X120685657Y-38568142D02*
X120685657Y-37384142D01*
X121486657Y-35304142D02*
X121486657Y-33816142D01*
X121566657Y-38887142D02*
X121566657Y-37384142D01*
X120085657Y-38087142D02*
X120085657Y-37384142D01*
X121165657Y-35304142D02*
X121165657Y-33902142D01*
X121966657Y-35304142D02*
X121966657Y-33764142D01*
X120365657Y-35304142D02*
X120365657Y-34340142D01*
X121886657Y-38922142D02*
X121886657Y-37384142D01*
X121125657Y-35304142D02*
X121125657Y-33916142D01*
X119885657Y-37844142D02*
X119885657Y-34844142D01*
X121005657Y-35304142D02*
X121005657Y-33962142D01*
X120445657Y-38409142D02*
X120445657Y-37384142D01*
X120165657Y-35304142D02*
X120165657Y-34518142D01*
X120645657Y-38544142D02*
X120645657Y-37384142D01*
X120525657Y-35304142D02*
X120525657Y-34222142D01*
X121005657Y-38726142D02*
X121005657Y-37384142D01*
X119485657Y-37021142D02*
X119485657Y-35667142D01*
X121245657Y-35304142D02*
X121245657Y-33876142D01*
X120005657Y-37997142D02*
X120005657Y-37384142D01*
X121526657Y-35304142D02*
X121526657Y-33808142D01*
X120125657Y-38129142D02*
X120125657Y-37384142D01*
X120285657Y-35304142D02*
X120285657Y-34407142D01*
X121686657Y-38905142D02*
X121686657Y-37384142D01*
X121846657Y-38920142D02*
X121846657Y-37384142D01*
X119845657Y-37787142D02*
X119845657Y-34901142D01*
X119805657Y-37727142D02*
X119805657Y-34961142D01*
X121606657Y-35304142D02*
X121606657Y-33794142D01*
X121926657Y-38923142D02*
X121926657Y-37384142D01*
X120205657Y-35304142D02*
X120205657Y-34480142D01*
X121045657Y-38742142D02*
X121045657Y-37384142D01*
X120765657Y-38612142D02*
X120765657Y-37384142D01*
X120165657Y-38170142D02*
X120165657Y-37384142D01*
X121285657Y-35304142D02*
X121285657Y-33864142D01*
X124626657Y-36344142D02*
G75*
G03*
X124626657Y-36344142I-2620000J0D01*
G01*
D12*
%TO.C,R30*%
X90853147Y-76199999D02*
X89453147Y-76199999D01*
%TO.C,R20*%
X103818656Y-57260801D02*
X103818656Y-55860801D01*
D13*
%TO.C,D1*%
X62338570Y-76489433D02*
X62338570Y-73399433D01*
X56788570Y-74943971D02*
G75*
G03*
X62338570Y-76489263I2990000J-462D01*
G01*
X62338570Y-73399603D02*
G75*
G03*
X56788570Y-74944895I-2560000J-1544830D01*
G01*
X62278570Y-74944433D02*
G75*
G03*
X62278570Y-74944433I-2500000J0D01*
G01*
%TO.C,D9*%
X89895000Y-54630000D02*
X92985000Y-54630000D01*
X92984830Y-54630000D02*
G75*
G03*
X91439538Y-49080000I-1544830J2560000D01*
G01*
X91440462Y-49080000D02*
G75*
G03*
X89895170Y-54630000I-462J-2990000D01*
G01*
X93940000Y-52070000D02*
G75*
G03*
X93940000Y-52070000I-2500000J0D01*
G01*
%TO.C,D5*%
X115419188Y-39574457D02*
X115419188Y-36484457D01*
X109869188Y-38028995D02*
G75*
G03*
X115419188Y-39574287I2990000J-462D01*
G01*
X115419188Y-36484627D02*
G75*
G03*
X109869188Y-38029919I-2560000J-1544830D01*
G01*
X115359188Y-38029457D02*
G75*
G03*
X115359188Y-38029457I-2500000J0D01*
G01*
D14*
%TO.C,J2*%
X74855000Y-80570000D02*
X74855000Y-86920000D01*
X69925000Y-80570000D02*
X74855000Y-80570000D01*
X69925000Y-86920000D02*
X69925000Y-80570000D01*
X74855000Y-86920000D02*
X69925000Y-86920000D01*
D12*
X75760000Y-83820000D02*
G75*
G03*
X75760000Y-83820000I-100000J0D01*
G01*
%TO.C,R8*%
X131248603Y-66154151D02*
X129848603Y-66154151D01*
D13*
%TO.C,D7*%
X122023110Y-40841084D02*
X118933110Y-40841084D01*
X120477648Y-46391084D02*
G75*
G03*
X122022940Y-40841084I462J2990000D01*
G01*
X118933280Y-40841084D02*
G75*
G03*
X120478572Y-46391084I1544830J-2560000D01*
G01*
X122978110Y-43401084D02*
G75*
G03*
X122978110Y-43401084I-2500000J0D01*
G01*
D12*
%TO.C,G3*%
X65654483Y-56628660D02*
X65654483Y-59528660D01*
X64904483Y-56628660D02*
X65654483Y-56628660D01*
X63404483Y-56578660D02*
X64554483Y-56578660D01*
X65654483Y-59528660D02*
X64904483Y-59528660D01*
X64904483Y-59528660D02*
X64904483Y-56628660D01*
%TO.C,R21*%
X103756325Y-53201202D02*
X103756325Y-54601202D01*
%TO.C,G4*%
X65696166Y-70426712D02*
X64946166Y-70426712D01*
X64946166Y-70426712D02*
X64946166Y-67526712D01*
X65696166Y-67526712D02*
X65696166Y-70426712D01*
X63446166Y-67476712D02*
X64596166Y-67476712D01*
X64946166Y-67526712D02*
X65696166Y-67526712D01*
D13*
%TO.C,D11*%
X77195000Y-54630000D02*
X80285000Y-54630000D01*
X80284830Y-54630000D02*
G75*
G03*
X78739538Y-49080000I-1544830J2560000D01*
G01*
X78740462Y-49080000D02*
G75*
G03*
X77195170Y-54630000I-462J-2990000D01*
G01*
X81240000Y-52070000D02*
G75*
G03*
X81240000Y-52070000I-2500000J0D01*
G01*
D12*
%TO.C,R15*%
X115600534Y-47766577D02*
X115600534Y-49166577D01*
%TO.C,R10*%
X124310596Y-69265901D02*
X124310596Y-70665901D01*
D14*
%TO.C,J4*%
X105335000Y-27380000D02*
X97865000Y-27380000D01*
X97865000Y-33730000D02*
X105335000Y-33730000D01*
X105335000Y-33730000D02*
X105335000Y-27380000D01*
X97865000Y-27380000D02*
X97865000Y-33730000D01*
D12*
X97400000Y-30380000D02*
G75*
G03*
X97400000Y-30380000I-100000J0D01*
G01*
D14*
%TO.C,J8*%
X71148000Y-33693334D02*
X71148000Y-27343334D01*
X76078000Y-27343334D02*
X76078000Y-33693334D01*
X71148000Y-27343334D02*
X76078000Y-27343334D01*
X76078000Y-33693334D02*
X71148000Y-33693334D01*
D12*
X70443000Y-30443334D02*
G75*
G03*
X70443000Y-30443334I-100000J0D01*
G01*
D13*
%TO.C,D3*%
X68498861Y-73435558D02*
X68498861Y-76525558D01*
X68498861Y-76525388D02*
G75*
G03*
X74048861Y-74980096I2560000J1544830D01*
G01*
X74048861Y-74981020D02*
G75*
G03*
X68498861Y-73435728I-2990000J462D01*
G01*
X73558861Y-74980558D02*
G75*
G03*
X73558861Y-74980558I-2500000J0D01*
G01*
D12*
%TO.C,RV1*%
X93242464Y-81577704D02*
X98072464Y-81577704D01*
D15*
X94382464Y-71472704D02*
X94382464Y-71472704D01*
D12*
X98072464Y-72047704D02*
X93242464Y-72047704D01*
D15*
X94382464Y-71572704D02*
X94382464Y-71572704D01*
D12*
X93242464Y-72047704D02*
X93242464Y-81577704D01*
X98072464Y-81577704D02*
X98072464Y-72047704D01*
D15*
X94382464Y-71572704D02*
G75*
G03*
X94382464Y-71472704I0J50000D01*
G01*
X94382464Y-71472704D02*
G75*
G03*
X94382464Y-71572704I0J-50000D01*
G01*
%TD*%
M02*
