<?xml version="1.0" standalone="no"?>
 <!DOCTYPE svg PUBLIC "-//W3C//DTD SVG 1.1//EN" 
 "http://www.w3.org/Graphics/SVG/1.1/DTD/svg11.dtd"> 
<svg
  xmlns:svg="http://www.w3.org/2000/svg"
  xmlns="http://www.w3.org/2000/svg"
  xmlns:xlink="http://www.w3.org/1999/xlink"
  version="1.1"
  width="9.144000cm" height="5.588000cm" viewBox="0 0 91440000 55880000">
<title>SVG Picture created as TSAL-F_Silkscreen.svg date 2022/12/04 22:52:08 </title>
  <desc>Picture generated by PCBNEW </desc>
<g style="fill:#000000; fill-opacity:1.000000;stroke:#000000; stroke-opacity:1.000000;
stroke-linecap:round; stroke-linejoin:round;"
 transform="translate(0 0) scale(1 1)">
</g>
<g style="fill:#000000; fill-opacity:0.0; 
stroke:#000000; stroke-width:0.000000; stroke-opacity:1; 
stroke-linecap:round; stroke-linejoin:round;">
</g>
<g style="fill:#F2EDA1; fill-opacity:0.0; 
stroke:#F2EDA1; stroke-width:0.000000; stroke-opacity:1; 
stroke-linecap:round; stroke-linejoin:round;">
</g>
<g style="fill:#F2EDA1; fill-opacity:0.0; 
stroke:#F2EDA1; stroke-width:150000.000000; stroke-opacity:1; 
stroke-linecap:round; stroke-linejoin:round;">
<g transform="rotate(-90.000000 3131000.000000 20275000.000000)">
<text x="3131000.000000" y="20975000.000000"
textLength="2730200.000000" font-size="1866666.000000" lengthAdjust="spacingAndGlyphs"
text-anchor="middle" opacity="0">J4</text>
</g>
<g class="stroked-text"><desc>J4</desc>
<path d="M2364333 20741666
L3364333 20741666
L3564333 20808333
L3697666 20941666
L3764333 21141666
L3764333 21275000
" />
<path d="M2831000 19475000
L3764333 19475000
" />
<path d="M2297666 19808333
L3297666 20141666
L3297666 19275000
" />
</g></g>
<g style="fill:#F2EDA1; fill-opacity:0.0; 
stroke:#F2EDA1; stroke-width:254000.000000; stroke-opacity:1; 
stroke-linecap:round; stroke-linejoin:round;">
<text x="58398999.000000" y="35038700.000000"
textLength="2976905.000000" font-size="1693333.000000" lengthAdjust="spacingAndGlyphs"
text-anchor="middle" opacity="0">TI1</text>
<g class="stroked-text"><desc>TI1</desc>
<path d="M57128999 33708223
L57854713 33708223
" />
<path d="M57491856 34978223
L57491856 33708223
" />
<path d="M58278046 34978223
L58278046 33708223
" />
<path d="M59548046 34978223
L58822332 34978223
" />
<path d="M59185189 34978223
L59185189 33708223
L59064237 33889652
L58943284 34010604
L58822332 34071080
" />
</g><text x="35881528.000000" y="34792806.000000"
textLength="3898295.000000" font-size="1693333.000000" lengthAdjust="spacingAndGlyphs"
text-anchor="middle" opacity="0">RV1</text>
<g class="stroked-text"><desc>RV1</desc>
<path d="M35125575 34732329
L34702242 34127567
" />
<path d="M34399861 34732329
L34399861 33462329
L34883670 33462329
L35004623 33522806
L35065099 33583282
L35125575 33704234
L35125575 33885663
L35065099 34006615
L35004623 34067091
L34883670 34127567
L34399861 34127567
" />
<path d="M35488432 33462329
L35911766 34732329
L36335099 33462329
" />
<path d="M37423670 34732329
L36697956 34732329
" />
<path d="M37060813 34732329
L37060813 33462329
L36939861 33643758
L36818908 33764710
L36697956 33825186
" />
</g><g transform="rotate(-90.000000 67741971.000000 40628099.000000)">
<text x="67741971.000000" y="41263099.000000"
textLength="4019248.000000" font-size="1693333.000000" lengthAdjust="spacingAndGlyphs"
text-anchor="middle" opacity="0">R24</text>
</g>
<g class="stroked-text"><desc>R24</desc>
<path d="M68316494 41444527
L67711732 41867860
" />
<path d="M68316494 42170241
L67046494 42170241
L67046494 41686432
L67106971 41565479
L67167447 41505003
L67288399 41444527
L67469828 41444527
L67590780 41505003
L67651256 41565479
L67711732 41686432
L67711732 42170241
" />
<path d="M67167447 40960718
L67106971 40900241
L67046494 40779289
L67046494 40476908
L67106971 40355956
L67167447 40295479
L67288399 40235003
L67409351 40235003
L67590780 40295479
L68316494 41021194
L68316494 40235003
" />
<path d="M67469828 39146432
L68316494 39146432
" />
<path d="M66986018 39448813
L67893161 39751194
L67893161 38965003
" />
</g><g transform="rotate(-90.000000 67741971.000000 45708099.000000)">
<text x="67741971.000000" y="46343099.000000"
textLength="4019248.000000" font-size="1693333.000000" lengthAdjust="spacingAndGlyphs"
text-anchor="middle" opacity="0">R23</text>
</g>
<g class="stroked-text"><desc>R23</desc>
<path d="M68316494 46524527
L67711732 46947860
" />
<path d="M68316494 47250241
L67046494 47250241
L67046494 46766432
L67106971 46645479
L67167447 46585003
L67288399 46524527
L67469828 46524527
L67590780 46585003
L67651256 46645479
L67711732 46766432
L67711732 47250241
" />
<path d="M67167447 46040718
L67106971 45980241
L67046494 45859289
L67046494 45556908
L67106971 45435956
L67167447 45375479
L67288399 45315003
L67409351 45315003
L67590780 45375479
L68316494 46101194
L68316494 45315003
" />
<path d="M67046494 44891670
L67046494 44105479
L67530304 44528813
L67530304 44347384
L67590780 44226432
L67651256 44165956
L67772209 44105479
L68074590 44105479
L68195542 44165956
L68256018 44226432
L68316494 44347384
L68316494 44710241
L68256018 44831194
L68195542 44891670
" />
</g><text x="71108099.000000" y="44653029.000000"
textLength="4019248.000000" font-size="1693333.000000" lengthAdjust="spacingAndGlyphs"
text-anchor="middle" opacity="0">R22</text>
<g class="stroked-text"><desc>R22</desc>
<path d="M70291670 44592552
L69868337 43987790
" />
<path d="M69565956 44592552
L69565956 43322552
L70049765 43322552
L70170718 43383029
L70231194 43443505
L70291670 43564457
L70291670 43745886
L70231194 43866838
L70170718 43927314
L70049765 43987790
L69565956 43987790
" />
<path d="M70775479 43443505
L70835956 43383029
L70956908 43322552
L71259289 43322552
L71380241 43383029
L71440718 43443505
L71501194 43564457
L71501194 43685409
L71440718 43866838
L70715003 44592552
L71501194 44592552
" />
<path d="M71985003 43443505
L72045479 43383029
L72166432 43322552
L72468813 43322552
L72589765 43383029
L72650241 43443505
L72710718 43564457
L72710718 43685409
L72650241 43866838
L71924527 44592552
L72710718 44592552
" />
</g><g transform="rotate(-90.000000 47421971.000000 35548099.000000)">
<text x="47421971.000000" y="36183099.000000"
textLength="4019248.000000" font-size="1693333.000000" lengthAdjust="spacingAndGlyphs"
text-anchor="middle" opacity="0">R21</text>
</g>
<g class="stroked-text"><desc>R21</desc>
<path d="M47996494 36364527
L47391732 36787860
" />
<path d="M47996494 37090241
L46726494 37090241
L46726494 36606432
L46786971 36485479
L46847447 36425003
L46968399 36364527
L47149828 36364527
L47270780 36425003
L47331256 36485479
L47391732 36606432
L47391732 37090241
" />
<path d="M46847447 35880718
L46786971 35820241
L46726494 35699289
L46726494 35396908
L46786971 35275956
L46847447 35215479
L46968399 35155003
L47089351 35155003
L47270780 35215479
L47996494 35941194
L47996494 35155003
" />
<path d="M47996494 33945479
L47996494 34671194
" />
<path d="M47996494 34308337
L46726494 34308337
L46907923 34429289
L47028875 34550241
L47089351 34671194
" />
</g><text x="40628099.000000" y="26873029.000000"
textLength="4019248.000000" font-size="1693333.000000" lengthAdjust="spacingAndGlyphs"
text-anchor="middle" opacity="0">R20</text>
<g class="stroked-text"><desc>R20</desc>
<path d="M39811670 26812552
L39388337 26207790
" />
<path d="M39085956 26812552
L39085956 25542552
L39569765 25542552
L39690718 25603029
L39751194 25663505
L39811670 25784457
L39811670 25965886
L39751194 26086838
L39690718 26147314
L39569765 26207790
L39085956 26207790
" />
<path d="M40295479 25663505
L40355956 25603029
L40476908 25542552
L40779289 25542552
L40900241 25603029
L40960718 25663505
L41021194 25784457
L41021194 25905409
L40960718 26086838
L40235003 26812552
L41021194 26812552
" />
<path d="M41807384 25542552
L41928337 25542552
L42049289 25603029
L42109765 25663505
L42170241 25784457
L42230718 26026362
L42230718 26328743
L42170241 26570648
L42109765 26691600
L42049289 26752076
L41928337 26812552
L41807384 26812552
L41686432 26752076
L41625956 26691600
L41565479 26570648
L41505003 26328743
L41505003 26026362
L41565479 25784457
L41625956 25663505
L41686432 25603029
L41807384 25542552
" />
</g><text x="38088099.000000" y="42113029.000000"
textLength="4019248.000000" font-size="1693333.000000" lengthAdjust="spacingAndGlyphs"
text-anchor="middle" opacity="0">R19</text>
<g class="stroked-text"><desc>R19</desc>
<path d="M37271670 42052552
L36848337 41447790
" />
<path d="M36545956 42052552
L36545956 40782552
L37029765 40782552
L37150718 40843029
L37211194 40903505
L37271670 41024457
L37271670 41205886
L37211194 41326838
L37150718 41387314
L37029765 41447790
L36545956 41447790
" />
<path d="M38481194 42052552
L37755479 42052552
" />
<path d="M38118337 42052552
L38118337 40782552
L37997384 40963981
L37876432 41084933
L37755479 41145409
" />
<path d="M39085956 42052552
L39327860 42052552
L39448813 41992076
L39509289 41931600
L39630241 41750171
L39690718 41508267
L39690718 41024457
L39630241 40903505
L39569765 40843029
L39448813 40782552
L39206908 40782552
L39085956 40843029
L39025479 40903505
L38965003 41024457
L38965003 41326838
L39025479 41447790
L39085956 41508267
L39206908 41568743
L39448813 41568743
L39569765 41508267
L39630241 41447790
L39690718 41326838
" />
</g><g transform="rotate(-90.000000 34721971.000000 13678099.000000)">
<text x="34721971.000000" y="14313099.000000"
textLength="4019248.000000" font-size="1693333.000000" lengthAdjust="spacingAndGlyphs"
text-anchor="middle" opacity="0">R18</text>
</g>
<g class="stroked-text"><desc>R18</desc>
<path d="M35296494 14494527
L34691732 14917860
" />
<path d="M35296494 15220241
L34026494 15220241
L34026494 14736432
L34086971 14615479
L34147447 14555003
L34268399 14494527
L34449828 14494527
L34570780 14555003
L34631256 14615479
L34691732 14736432
L34691732 15220241
" />
<path d="M35296494 13285003
L35296494 14010718
" />
<path d="M35296494 13647860
L34026494 13647860
L34207923 13768813
L34328875 13889765
L34389351 14010718
" />
<path d="M34570780 12559289
L34510304 12680241
L34449828 12740718
L34328875 12801194
L34268399 12801194
L34147447 12740718
L34086971 12680241
L34026494 12559289
L34026494 12317384
L34086971 12196432
L34147447 12135956
L34268399 12075479
L34328875 12075479
L34449828 12135956
L34510304 12196432
L34570780 12317384
L34570780 12559289
L34631256 12680241
L34691732 12740718
L34812685 12801194
L35054590 12801194
L35175542 12740718
L35236018 12680241
L35296494 12559289
L35296494 12317384
L35236018 12196432
L35175542 12135956
L35054590 12075479
L34812685 12075479
L34691732 12135956
L34631256 12196432
L34570780 12317384
" />
</g><g transform="rotate(-90.000000 37261971.000000 13678099.000000)">
<text x="37261971.000000" y="14313099.000000"
textLength="4019248.000000" font-size="1693333.000000" lengthAdjust="spacingAndGlyphs"
text-anchor="middle" opacity="0">R17</text>
</g>
<g class="stroked-text"><desc>R17</desc>
<path d="M37836494 14494527
L37231732 14917860
" />
<path d="M37836494 15220241
L36566494 15220241
L36566494 14736432
L36626971 14615479
L36687447 14555003
L36808399 14494527
L36989828 14494527
L37110780 14555003
L37171256 14615479
L37231732 14736432
L37231732 15220241
" />
<path d="M37836494 13285003
L37836494 14010718
" />
<path d="M37836494 13647860
L36566494 13647860
L36747923 13768813
L36868875 13889765
L36929351 14010718
" />
<path d="M36566494 12861670
L36566494 12015003
L37836494 12559289
" />
</g><g transform="rotate(-90.000000 27101971.000000 13678099.000000)">
<text x="27101971.000000" y="14313099.000000"
textLength="4019248.000000" font-size="1693333.000000" lengthAdjust="spacingAndGlyphs"
text-anchor="middle" opacity="0">R16</text>
</g>
<g class="stroked-text"><desc>R16</desc>
<path d="M27676494 14494527
L27071732 14917860
" />
<path d="M27676494 15220241
L26406494 15220241
L26406494 14736432
L26466971 14615479
L26527447 14555003
L26648399 14494527
L26829828 14494527
L26950780 14555003
L27011256 14615479
L27071732 14736432
L27071732 15220241
" />
<path d="M27676494 13285003
L27676494 14010718
" />
<path d="M27676494 13647860
L26406494 13647860
L26587923 13768813
L26708875 13889765
L26769351 14010718
" />
<path d="M26406494 12196432
L26406494 12438337
L26466971 12559289
L26527447 12619765
L26708875 12740718
L26950780 12801194
L27434590 12801194
L27555542 12740718
L27616018 12680241
L27676494 12559289
L27676494 12317384
L27616018 12196432
L27555542 12135956
L27434590 12075479
L27132209 12075479
L27011256 12135956
L26950780 12196432
L26890304 12317384
L26890304 12559289
L26950780 12680241
L27011256 12740718
L27132209 12801194
" />
</g><g transform="rotate(-90.000000 29641971.000000 13678099.000000)">
<text x="29641971.000000" y="14313099.000000"
textLength="4019248.000000" font-size="1693333.000000" lengthAdjust="spacingAndGlyphs"
text-anchor="middle" opacity="0">R15</text>
</g>
<g class="stroked-text"><desc>R15</desc>
<path d="M30216494 14494527
L29611732 14917860
" />
<path d="M30216494 15220241
L28946494 15220241
L28946494 14736432
L29006971 14615479
L29067447 14555003
L29188399 14494527
L29369828 14494527
L29490780 14555003
L29551256 14615479
L29611732 14736432
L29611732 15220241
" />
<path d="M30216494 13285003
L30216494 14010718
" />
<path d="M30216494 13647860
L28946494 13647860
L29127923 13768813
L29248875 13889765
L29309351 14010718
" />
<path d="M28946494 12135956
L28946494 12740718
L29551256 12801194
L29490780 12740718
L29430304 12619765
L29430304 12317384
L29490780 12196432
L29551256 12135956
L29672209 12075479
L29974590 12075479
L30095542 12135956
L30156018 12196432
L30216494 12317384
L30216494 12619765
L30156018 12740718
L30095542 12801194
" />
</g><text x="55891901.000000" y="27736971.000000"
textLength="4019248.000000" font-size="1693333.000000" lengthAdjust="spacingAndGlyphs"
text-anchor="middle" opacity="0">R14</text>
<g class="stroked-text"><desc>R14</desc>
<path d="M55075472 27676494
L54652139 27071732
" />
<path d="M54349758 27676494
L54349758 26406494
L54833567 26406494
L54954520 26466971
L55014996 26527447
L55075472 26648399
L55075472 26829828
L55014996 26950780
L54954520 27011256
L54833567 27071732
L54349758 27071732
" />
<path d="M56284996 27676494
L55559281 27676494
" />
<path d="M55922139 27676494
L55922139 26406494
L55801186 26587923
L55680234 26708875
L55559281 26769351
" />
<path d="M57373567 26829828
L57373567 27676494
" />
<path d="M57071186 26346018
L56768805 27253161
L57554996 27253161
" />
</g><g transform="rotate(-90.000000 19481971.000000 13678099.000000)">
<text x="19481971.000000" y="14313099.000000"
textLength="4019248.000000" font-size="1693333.000000" lengthAdjust="spacingAndGlyphs"
text-anchor="middle" opacity="0">R13</text>
</g>
<g class="stroked-text"><desc>R13</desc>
<path d="M20056494 14494527
L19451732 14917860
" />
<path d="M20056494 15220241
L18786494 15220241
L18786494 14736432
L18846971 14615479
L18907447 14555003
L19028399 14494527
L19209828 14494527
L19330780 14555003
L19391256 14615479
L19451732 14736432
L19451732 15220241
" />
<path d="M20056494 13285003
L20056494 14010718
" />
<path d="M20056494 13647860
L18786494 13647860
L18967923 13768813
L19088875 13889765
L19149351 14010718
" />
<path d="M18786494 12861670
L18786494 12075479
L19270304 12498813
L19270304 12317384
L19330780 12196432
L19391256 12135956
L19512209 12075479
L19814590 12075479
L19935542 12135956
L19996018 12196432
L20056494 12317384
L20056494 12680241
L19996018 12801194
L19935542 12861670
" />
</g><g transform="rotate(-90.000000 58865971.000000 18564321.000000)">
<text x="58865971.000000" y="19199321.000000"
textLength="4019248.000000" font-size="1693333.000000" lengthAdjust="spacingAndGlyphs"
text-anchor="middle" opacity="0">R12</text>
</g>
<g class="stroked-text"><desc>R12</desc>
<path d="M59440494 19380749
L58835732 19804082
" />
<path d="M59440494 20106463
L58170494 20106463
L58170494 19622654
L58230971 19501701
L58291447 19441225
L58412399 19380749
L58593828 19380749
L58714780 19441225
L58775256 19501701
L58835732 19622654
L58835732 20106463
" />
<path d="M59440494 18171225
L59440494 18896940
" />
<path d="M59440494 18534082
L58170494 18534082
L58351923 18655035
L58472875 18775987
L58533351 18896940
" />
<path d="M58291447 17687416
L58230971 17626940
L58170494 17505987
L58170494 17203606
L58230971 17082654
L58291447 17022178
L58412399 16961701
L58533351 16961701
L58714780 17022178
L59440494 17747892
L59440494 16961701
" />
</g><g transform="rotate(-90.000000 22021971.000000 13678099.000000)">
<text x="22021971.000000" y="14313099.000000"
textLength="4019248.000000" font-size="1693333.000000" lengthAdjust="spacingAndGlyphs"
text-anchor="middle" opacity="0">R11</text>
</g>
<g class="stroked-text"><desc>R11</desc>
<path d="M22596494 14494527
L21991732 14917860
" />
<path d="M22596494 15220241
L21326494 15220241
L21326494 14736432
L21386971 14615479
L21447447 14555003
L21568399 14494527
L21749828 14494527
L21870780 14555003
L21931256 14615479
L21991732 14736432
L21991732 15220241
" />
<path d="M22596494 13285003
L22596494 14010718
" />
<path d="M22596494 13647860
L21326494 13647860
L21507923 13768813
L21628875 13889765
L21689351 14010718
" />
<path d="M22596494 12075479
L22596494 12801194
" />
<path d="M22596494 12438337
L21326494 12438337
L21507923 12559289
L21628875 12680241
L21689351 12801194
" />
</g><g transform="rotate(-90.000000 56718029.000000 12711901.000000)">
<text x="56718029.000000" y="13346901.000000"
textLength="4019248.000000" font-size="1693333.000000" lengthAdjust="spacingAndGlyphs"
text-anchor="middle" opacity="0">R10</text>
</g>
<g class="stroked-text"><desc>R10</desc>
<path d="M57292552 13528329
L56687790 13951662
" />
<path d="M57292552 14254043
L56022552 14254043
L56022552 13770234
L56083029 13649281
L56143505 13588805
L56264457 13528329
L56445886 13528329
L56566838 13588805
L56627314 13649281
L56687790 13770234
L56687790 14254043
" />
<path d="M57292552 12318805
L57292552 13044520
" />
<path d="M57292552 12681662
L56022552 12681662
L56203981 12802615
L56324933 12923567
L56385409 13044520
" />
<path d="M56022552 11532615
L56022552 11411662
L56083029 11290710
L56143505 11230234
L56264457 11169758
L56506362 11109281
L56808743 11109281
L57050648 11169758
L57171600 11230234
L57232076 11290710
L57292552 11411662
L57292552 11532615
L57232076 11653567
L57171600 11714043
L57050648 11774520
L56808743 11834996
L56506362 11834996
L56264457 11774520
L56143505 11714043
L56083029 11653567
L56022552 11532615
" />
</g><text x="15251901.000000" y="35356971.000000"
textLength="2809724.000000" font-size="1693333.000000" lengthAdjust="spacingAndGlyphs"
text-anchor="middle" opacity="0">R9</text>
<g class="stroked-text"><desc>R9</desc>
<path d="M15040234 35296494
L14616901 34691732
" />
<path d="M14314520 35296494
L14314520 34026494
L14798329 34026494
L14919281 34086971
L14979758 34147447
L15040234 34268399
L15040234 34449828
L14979758 34570780
L14919281 34631256
L14798329 34691732
L14314520 34691732
" />
<path d="M15644996 35296494
L15886901 35296494
L16007853 35236018
L16068329 35175542
L16189281 34994113
L16249758 34752209
L16249758 34268399
L16189281 34147447
L16128805 34086971
L16007853 34026494
L15765948 34026494
L15644996 34086971
L15584520 34147447
L15524043 34268399
L15524043 34570780
L15584520 34691732
L15644996 34752209
L15765948 34812685
L16007853 34812685
L16128805 34752209
L16189281 34691732
L16249758 34570780
" />
</g><text x="71108099.000000" y="26873029.000000"
textLength="2809724.000000" font-size="1693333.000000" lengthAdjust="spacingAndGlyphs"
text-anchor="middle" opacity="0">R8</text>
<g class="stroked-text"><desc>R8</desc>
<path d="M70896432 26812552
L70473099 26207790
" />
<path d="M70170718 26812552
L70170718 25542552
L70654527 25542552
L70775479 25603029
L70835956 25663505
L70896432 25784457
L70896432 25965886
L70835956 26086838
L70775479 26147314
L70654527 26207790
L70170718 26207790
" />
<path d="M71622146 26086838
L71501194 26026362
L71440718 25965886
L71380241 25844933
L71380241 25784457
L71440718 25663505
L71501194 25603029
L71622146 25542552
L71864051 25542552
L71985003 25603029
L72045479 25663505
L72105956 25784457
L72105956 25844933
L72045479 25965886
L71985003 26026362
L71864051 26086838
L71622146 26086838
L71501194 26147314
L71440718 26207790
L71380241 26328743
L71380241 26570648
L71440718 26691600
L71501194 26752076
L71622146 26812552
L71864051 26812552
L71985003 26752076
L72045479 26691600
L72105956 26570648
L72105956 26328743
L72045479 26207790
L71985003 26147314
L71864051 26086838
" />
</g><text x="50788099.000000" y="9093029.000000"
textLength="2809724.000000" font-size="1693333.000000" lengthAdjust="spacingAndGlyphs"
text-anchor="middle" opacity="0">R7</text>
<g class="stroked-text"><desc>R7</desc>
<path d="M50576432 9032552
L50153099 8427790
" />
<path d="M49850718 9032552
L49850718 7762552
L50334527 7762552
L50455479 7823029
L50515956 7883505
L50576432 8004457
L50576432 8185886
L50515956 8306838
L50455479 8367314
L50334527 8427790
L49850718 8427790
" />
<path d="M50999765 7762552
L51846432 7762552
L51302146 9032552
" />
</g><text x="15176901.000000" y="50596971.000000"
textLength="2809724.000000" font-size="1693333.000000" lengthAdjust="spacingAndGlyphs"
text-anchor="middle" opacity="0">R6</text>
<g class="stroked-text"><desc>R6</desc>
<path d="M14965234 50536494
L14541901 49931732
" />
<path d="M14239520 50536494
L14239520 49266494
L14723329 49266494
L14844281 49326971
L14904758 49387447
L14965234 49508399
L14965234 49689828
L14904758 49810780
L14844281 49871256
L14723329 49931732
L14239520 49931732
" />
<path d="M16053805 49266494
L15811901 49266494
L15690948 49326971
L15630472 49387447
L15509520 49568875
L15449043 49810780
L15449043 50294590
L15509520 50415542
L15569996 50476018
L15690948 50536494
L15932853 50536494
L16053805 50476018
L16114281 50415542
L16174758 50294590
L16174758 49992209
L16114281 49871256
L16053805 49810780
L15932853 49750304
L15690948 49750304
L15569996 49810780
L15509520 49871256
L15449043 49992209
" />
</g><g transform="rotate(-90.000000 44881971.000000 15228099.000000)">
<text x="44881971.000000" y="15863099.000000"
textLength="2809724.000000" font-size="1693333.000000" lengthAdjust="spacingAndGlyphs"
text-anchor="middle" opacity="0">R5</text>
</g>
<g class="stroked-text"><desc>R5</desc>
<path d="M45456494 15439765
L44851732 15863099
" />
<path d="M45456494 16165479
L44186494 16165479
L44186494 15681670
L44246971 15560718
L44307447 15500241
L44428399 15439765
L44609828 15439765
L44730780 15500241
L44791256 15560718
L44851732 15681670
L44851732 16165479
" />
<path d="M44186494 14290718
L44186494 14895479
L44791256 14955956
L44730780 14895479
L44670304 14774527
L44670304 14472146
L44730780 14351194
L44791256 14290718
L44912209 14230241
L45214590 14230241
L45335542 14290718
L45396018 14351194
L45456494 14472146
L45456494 14774527
L45396018 14895479
L45335542 14955956
" />
</g><text x="48248099.000000" y="24333029.000000"
textLength="2809724.000000" font-size="1693333.000000" lengthAdjust="spacingAndGlyphs"
text-anchor="middle" opacity="0">R4</text>
<g class="stroked-text"><desc>R4</desc>
<path d="M48036432 24272552
L47613099 23667790
" />
<path d="M47310718 24272552
L47310718 23002552
L47794527 23002552
L47915479 23063029
L47975956 23123505
L48036432 23244457
L48036432 23425886
L47975956 23546838
L47915479 23607314
L47794527 23667790
L47310718 23667790
" />
<path d="M49125003 23425886
L49125003 24272552
" />
<path d="M48822622 22942076
L48520241 23849219
L49306432 23849219
" />
</g><text x="15251901.000000" y="42976971.000000"
textLength="2809724.000000" font-size="1693333.000000" lengthAdjust="spacingAndGlyphs"
text-anchor="middle" opacity="0">R3</text>
<g class="stroked-text"><desc>R3</desc>
<path d="M15040234 42916494
L14616901 42311732
" />
<path d="M14314520 42916494
L14314520 41646494
L14798329 41646494
L14919281 41706971
L14979758 41767447
L15040234 41888399
L15040234 42069828
L14979758 42190780
L14919281 42251256
L14798329 42311732
L14314520 42311732
" />
<path d="M15463567 41646494
L16249758 41646494
L15826424 42130304
L16007853 42130304
L16128805 42190780
L16189281 42251256
L16249758 42372209
L16249758 42674590
L16189281 42795542
L16128805 42856018
L16007853 42916494
L15644996 42916494
L15524043 42856018
L15463567 42795542
" />
</g><text x="50811901.000000" y="9956971.000000"
textLength="2809724.000000" font-size="1693333.000000" lengthAdjust="spacingAndGlyphs"
text-anchor="middle" opacity="0">R2</text>
<g class="stroked-text"><desc>R2</desc>
<path d="M50600234 9896494
L50176901 9291732
" />
<path d="M49874520 9896494
L49874520 8626494
L50358329 8626494
L50479281 8686971
L50539758 8747447
L50600234 8868399
L50600234 9049828
L50539758 9170780
L50479281 9231256
L50358329 9291732
L49874520 9291732
" />
<path d="M51084043 8747447
L51144520 8686971
L51265472 8626494
L51567853 8626494
L51688805 8686971
L51749281 8747447
L51809758 8868399
L51809758 8989351
L51749281 9170780
L51023567 9896494
L51809758 9896494
" />
</g><g transform="rotate(-90.000000 44018029.000000 7631901.000000)">
<text x="44018029.000000" y="8266901.000000"
textLength="2809724.000000" font-size="1693333.000000" lengthAdjust="spacingAndGlyphs"
text-anchor="middle" opacity="0">R1</text>
</g>
<g class="stroked-text"><desc>R1</desc>
<path d="M44592552 7843567
L43987790 8266901
" />
<path d="M44592552 8569281
L43322552 8569281
L43322552 8085472
L43383029 7964520
L43443505 7904043
L43564457 7843567
L43745886 7843567
L43866838 7904043
L43927314 7964520
L43987790 8085472
L43987790 8569281
" />
<path d="M44592552 6634043
L44592552 7359758
" />
<path d="M44592552 6996901
L43322552 6996901
L43503981 7117853
L43624933 7238805
L43685409 7359758
" />
</g><text x="76186416.000000" y="41084438.000000"
textLength="2870200.000000" font-size="1693333.000000" lengthAdjust="spacingAndGlyphs"
text-anchor="middle" opacity="0">Q4</text>
<g class="stroked-text"><desc>Q4</desc>
<path d="M76065463 41144914
L75944511 41084438
L75823558 40963485
L75642130 40782057
L75521177 40721580
L75400225 40721580
" />
<path d="M75460701 41023961
L75339749 40963485
L75218796 40842533
L75158320 40600628
L75158320 40177295
L75218796 39935390
L75339749 39814438
L75460701 39753961
L75702606 39753961
L75823558 39814438
L75944511 39935390
L76004987 40177295
L76004987 40600628
L75944511 40842533
L75823558 40963485
L75702606 41023961
L75460701 41023961
" />
<path d="M77093558 40177295
L77093558 41023961
" />
<path d="M76791177 39693485
L76488796 40600628
L77274987 40600628
" />
</g><text x="76186416.000000" y="33464438.000000"
textLength="2870200.000000" font-size="1693333.000000" lengthAdjust="spacingAndGlyphs"
text-anchor="middle" opacity="0">Q3</text>
<g class="stroked-text"><desc>Q3</desc>
<path d="M76065463 33524914
L75944511 33464438
L75823558 33343485
L75642130 33162057
L75521177 33101580
L75400225 33101580
" />
<path d="M75460701 33403961
L75339749 33343485
L75218796 33222533
L75158320 32980628
L75158320 32557295
L75218796 32315390
L75339749 32194438
L75460701 32133961
L75702606 32133961
L75823558 32194438
L75944511 32315390
L76004987 32557295
L76004987 32980628
L75944511 33222533
L75823558 33343485
L75702606 33403961
L75460701 33403961
" />
<path d="M76428320 32133961
L77214511 32133961
L76791177 32617771
L76972606 32617771
L77093558 32678247
L77154035 32738723
L77214511 32859676
L77214511 33162057
L77154035 33283009
L77093558 33343485
L76972606 33403961
L76609749 33403961
L76488796 33343485
L76428320 33283009
" />
</g><text x="76186416.000000" y="23304438.000000"
textLength="2870200.000000" font-size="1693333.000000" lengthAdjust="spacingAndGlyphs"
text-anchor="middle" opacity="0">Q2</text>
<g class="stroked-text"><desc>Q2</desc>
<path d="M76065463 23364914
L75944511 23304438
L75823558 23183485
L75642130 23002057
L75521177 22941580
L75400225 22941580
" />
<path d="M75460701 23243961
L75339749 23183485
L75218796 23062533
L75158320 22820628
L75158320 22397295
L75218796 22155390
L75339749 22034438
L75460701 21973961
L75702606 21973961
L75823558 22034438
L75944511 22155390
L76004987 22397295
L76004987 22820628
L75944511 23062533
L75823558 23183485
L75702606 23243961
L75460701 23243961
" />
<path d="M76488796 22094914
L76549273 22034438
L76670225 21973961
L76972606 21973961
L77093558 22034438
L77154035 22094914
L77214511 22215866
L77214511 22336818
L77154035 22518247
L76428320 23243961
L77214511 23243961
" />
</g><text x="76186416.000000" y="15684438.000000"
textLength="2870200.000000" font-size="1693333.000000" lengthAdjust="spacingAndGlyphs"
text-anchor="middle" opacity="0">Q1</text>
<g class="stroked-text"><desc>Q1</desc>
<path d="M76065463 15744914
L75944511 15684438
L75823558 15563485
L75642130 15382057
L75521177 15321580
L75400225 15321580
" />
<path d="M75460701 15623961
L75339749 15563485
L75218796 15442533
L75158320 15200628
L75158320 14777295
L75218796 14535390
L75339749 14414438
L75460701 14353961
L75702606 14353961
L75823558 14414438
L75944511 14535390
L76004987 14777295
L76004987 15200628
L75944511 15442533
L75823558 15563485
L75702606 15623961
L75460701 15623961
" />
<path d="M77214511 15623961
L76488796 15623961
" />
<path d="M76851654 15623961
L76851654 14353961
L76730701 14535390
L76609749 14656342
L76488796 14716818
" />
</g><text x="66973529.000000" y="7848959.000000"
textLength="4019248.000000" font-size="1693333.000000" lengthAdjust="spacingAndGlyphs"
text-anchor="middle" opacity="0">PS1</text>
<g class="stroked-text"><desc>PS1</desc>
<path d="M65431386 7788482
L65431386 6518482
L65915195 6518482
L66036148 6578959
L66096624 6639435
L66157100 6760387
L66157100 6941816
L66096624 7062768
L66036148 7123244
L65915195 7183720
L65431386 7183720
" />
<path d="M66640909 7728006
L66822338 7788482
L67124719 7788482
L67245671 7728006
L67306148 7667530
L67366624 7546578
L67366624 7425625
L67306148 7304673
L67245671 7244197
L67124719 7183720
L66882814 7123244
L66761862 7062768
L66701386 7002292
L66640909 6881339
L66640909 6760387
L66701386 6639435
L66761862 6578959
L66882814 6518482
L67185195 6518482
L67366624 6578959
" />
<path d="M68576148 7788482
L67850433 7788482
" />
<path d="M68213290 7788482
L68213290 6518482
L68092338 6699911
L67971386 6820863
L67850433 6881339
" />
</g></g>
<g style="fill:#F2EDA1; fill-opacity:0.0; 
stroke:#F2EDA1; stroke-width:150000.000000; stroke-opacity:1; 
stroke-linecap:round; stroke-linejoin:round;">
<text x="64925000.000000" y="5006500.000000"
textLength="2996867.000000" font-size="1333333.000000" lengthAdjust="spacingAndGlyphs"
text-anchor="middle" opacity="0">J11</text>
<g class="stroked-text"><desc>J11</desc>
<path d="M64115476 3958880
L64115476 4673166
L64067857 4816023
L63972619 4911261
L63829761 4958880
L63734523 4958880
" />
<path d="M65115476 4958880
L64544047 4958880
" />
<path d="M64829761 4958880
L64829761 3958880
L64734523 4101738
L64639285 4196976
L64544047 4244595
" />
<path d="M66067857 4958880
L65496428 4958880
" />
<path d="M65782142 4958880
L65782142 3958880
L65686904 4101738
L65591666 4196976
L65496428 4244595
" />
</g><g transform="rotate(-90.000000 79435000.000000 39215000.000000)">
<text x="79435000.000000" y="39715000.000000"
textLength="2861667.000000" font-size="1333333.000000" lengthAdjust="spacingAndGlyphs"
text-anchor="middle" opacity="0">J10</text>
</g>
<g class="stroked-text"><desc>J10</desc>
<path d="M78887380 40024523
L79601666 40024523
L79744523 40072142
L79839761 40167380
L79887380 40310238
L79887380 40405476
" />
<path d="M79887380 39024523
L79887380 39595952
" />
<path d="M79887380 39310238
L78887380 39310238
L79030238 39405476
L79125476 39500714
L79173095 39595952
" />
<path d="M78887380 38405476
L78887380 38310238
L78935000 38215000
L78982619 38167380
L79077857 38119761
L79268333 38072142
L79506428 38072142
L79696904 38119761
L79792142 38167380
L79839761 38215000
L79887380 38310238
L79887380 38405476
L79839761 38500714
L79792142 38548333
L79696904 38595952
L79506428 38643571
L79268333 38643571
L79077857 38595952
L78982619 38548333
L78935000 38500714
L78887380 38405476
" />
</g><text x="57305000.000000" y="44375000.000000"
textLength="1909286.000000" font-size="1333333.000000" lengthAdjust="spacingAndGlyphs"
text-anchor="middle" opacity="0">J9</text>
<g class="stroked-text"><desc>J9</desc>
<path d="M56971666 43327380
L56971666 44041666
L56924047 44184523
L56828809 44279761
L56685952 44327380
L56590714 44327380
" />
<path d="M57495476 44327380
L57685952 44327380
L57781190 44279761
L57828809 44232142
L57924047 44089285
L57971666 43898809
L57971666 43517857
L57924047 43422619
L57876428 43375000
L57781190 43327380
L57590714 43327380
L57495476 43375000
L57447857 43422619
L57400238 43517857
L57400238 43755952
L57447857 43851190
L57495476 43898809
L57590714 43946428
L57781190 43946428
L57876428 43898809
L57924047 43851190
L57971666 43755952
" />
</g><text x="34445000.000000" y="3735000.000000"
textLength="1909286.000000" font-size="1333333.000000" lengthAdjust="spacingAndGlyphs"
text-anchor="middle" opacity="0">J8</text>
<g class="stroked-text"><desc>J8</desc>
<path d="M34111666 2687380
L34111666 3401666
L34064047 3544523
L33968809 3639761
L33825952 3687380
L33730714 3687380
" />
<path d="M34730714 3115952
L34635476 3068333
L34587857 3020714
L34540238 2925476
L34540238 2877857
L34587857 2782619
L34635476 2735000
L34730714 2687380
L34921190 2687380
L35016428 2735000
L35064047 2782619
L35111666 2877857
L35111666 2925476
L35064047 3020714
L35016428 3068333
L34921190 3115952
L34730714 3115952
L34635476 3163571
L34587857 3211190
L34540238 3306428
L34540238 3496904
L34587857 3592142
L34635476 3639761
L34730714 3687380
L34921190 3687380
L35016428 3639761
L35064047 3592142
L35111666 3496904
L35111666 3306428
L35064047 3211190
L35016428 3163571
L34921190 3115952
" />
</g><text x="26825000.000000" y="3735000.000000"
textLength="1909286.000000" font-size="1333333.000000" lengthAdjust="spacingAndGlyphs"
text-anchor="middle" opacity="0">J7</text>
<g class="stroked-text"><desc>J7</desc>
<path d="M26491666 2687380
L26491666 3401666
L26444047 3544523
L26348809 3639761
L26205952 3687380
L26110714 3687380
" />
<path d="M26872619 2687380
L27539285 2687380
L27110714 3687380
" />
</g><g transform="rotate(-90.000000 79435000.000000 21435000.000000)">
<text x="79435000.000000" y="21935000.000000"
textLength="1909286.000000" font-size="1333333.000000" lengthAdjust="spacingAndGlyphs"
text-anchor="middle" opacity="0">J6</text>
</g>
<g class="stroked-text"><desc>J6</desc>
<path d="M78887380 21768333
L79601666 21768333
L79744523 21815952
L79839761 21911190
L79887380 22054047
L79887380 22149285
" />
<path d="M78887380 20863571
L78887380 21054047
L78935000 21149285
L78982619 21196904
L79125476 21292142
L79315952 21339761
L79696904 21339761
L79792142 21292142
L79839761 21244523
L79887380 21149285
L79887380 20958809
L79839761 20863571
L79792142 20815952
L79696904 20768333
L79458809 20768333
L79363571 20815952
L79315952 20863571
L79268333 20958809
L79268333 21149285
L79315952 21244523
L79363571 21292142
L79458809 21339761
" />
</g><text x="19205000.000000" y="3735000.000000"
textLength="1909286.000000" font-size="1333333.000000" lengthAdjust="spacingAndGlyphs"
text-anchor="middle" opacity="0">J5</text>
<g class="stroked-text"><desc>J5</desc>
<path d="M18871666 2687380
L18871666 3401666
L18824047 3544523
L18728809 3639761
L18585952 3687380
L18490714 3687380
" />
<path d="M19824047 2687380
L19347857 2687380
L19300238 3163571
L19347857 3115952
L19443095 3068333
L19681190 3068333
L19776428 3115952
L19824047 3163571
L19871666 3258809
L19871666 3496904
L19824047 3592142
L19776428 3639761
L19681190 3687380
L19443095 3687380
L19347857 3639761
L19300238 3592142
" />
</g><g transform="rotate(-90.000000 3310000.000000 29055000.000000)">
<text x="3310000.000000" y="29555000.000000"
textLength="1909286.000000" font-size="1333333.000000" lengthAdjust="spacingAndGlyphs"
text-anchor="middle" opacity="0">J3</text>
</g>
<g class="stroked-text"><desc>J3</desc>
<path d="M2762380 29388333
L3476666 29388333
L3619523 29435952
L3714761 29531190
L3762380 29674047
L3762380 29769285
" />
<path d="M2762380 29007380
L2762380 28388333
L3143333 28721666
L3143333 28578809
L3190952 28483571
L3238571 28435952
L3333809 28388333
L3571904 28388333
L3667142 28435952
L3714761 28483571
L3762380 28578809
L3762380 28864523
L3714761 28959761
L3667142 29007380
" />
</g><g transform="rotate(-90.000000 3235000.000000 44295000.000000)">
<text x="3235000.000000" y="44795000.000000"
textLength="1909286.000000" font-size="1333333.000000" lengthAdjust="spacingAndGlyphs"
text-anchor="middle" opacity="0">J2</text>
</g>
<g class="stroked-text"><desc>J2</desc>
<path d="M2687380 44628333
L3401666 44628333
L3544523 44675952
L3639761 44771190
L3687380 44914047
L3687380 45009285
" />
<path d="M2782619 44199761
L2735000 44152142
L2687380 44056904
L2687380 43818809
L2735000 43723571
L2782619 43675952
L2877857 43628333
L2973095 43628333
L3115952 43675952
L3687380 44247380
L3687380 43628333
" />
</g><g transform="rotate(-90.000000 3235000.000000 36675000.000000)">
<text x="3235000.000000" y="37175000.000000"
textLength="1909286.000000" font-size="1333333.000000" lengthAdjust="spacingAndGlyphs"
text-anchor="middle" opacity="0">J1</text>
</g>
<g class="stroked-text"><desc>J1</desc>
<path d="M2687380 37008333
L3401666 37008333
L3544523 37055952
L3639761 37151190
L3687380 37294047
L3687380 37389285
" />
<path d="M3687380 36008333
L3687380 36579761
" />
<path d="M3687380 36294047
L2687380 36294047
L2830238 36389285
L2925476 36484523
L2973095 36579761
" />
</g></g>
<g style="fill:#F2EDA1; fill-opacity:0.0; 
stroke:#F2EDA1; stroke-width:254000.000000; stroke-opacity:1; 
stroke-linecap:round; stroke-linejoin:round;">
<text x="71120000.000000" y="37167861.000000"
textLength="3884048.000000" font-size="1693333.000000" lengthAdjust="spacingAndGlyphs"
text-anchor="middle" opacity="0">G10</text>
<g class="stroked-text"><desc>G10</desc>
<path d="M70243095 35897861
L70122142 35837384
L69940714 35837384
L69759285 35897861
L69638333 36018813
L69577857 36139765
L69517380 36381670
L69517380 36563099
L69577857 36805003
L69638333 36925956
L69759285 37046908
L69940714 37107384
L70061666 37107384
L70243095 37046908
L70303571 36986432
L70303571 36563099
L70061666 36563099
" />
<path d="M71513095 37107384
L70787380 37107384
" />
<path d="M71150238 37107384
L71150238 35837384
L71029285 36018813
L70908333 36139765
L70787380 36200241
" />
<path d="M72299285 35837384
L72420238 35837384
L72541190 35897861
L72601666 35958337
L72662142 36079289
L72722619 36321194
L72722619 36623575
L72662142 36865480
L72601666 36986432
L72541190 37046908
L72420238 37107384
L72299285 37107384
L72178333 37046908
L72117857 36986432
L72057380 36865480
L71996904 36623575
L71996904 36321194
L72057380 36079289
L72117857 35958337
L72178333 35897861
L72299285 35837384
" />
</g><text x="33020000.000000" y="25753961.000000"
textLength="2809724.000000" font-size="1693333.000000" lengthAdjust="spacingAndGlyphs"
text-anchor="middle" opacity="0">G9</text>
<g class="stroked-text"><desc>G9</desc>
<path d="M32747857 24483961
L32626904 24423484
L32445476 24423484
L32264047 24483961
L32143095 24604913
L32082619 24725865
L32022142 24967770
L32022142 25149199
L32082619 25391103
L32143095 25512056
L32264047 25633008
L32445476 25693484
L32566428 25693484
L32747857 25633008
L32808333 25572532
L32808333 25149199
L32566428 25149199
" />
<path d="M33413095 25693484
L33655000 25693484
L33775952 25633008
L33836428 25572532
L33957380 25391103
L34017857 25149199
L34017857 24665389
L33957380 24544437
L33896904 24483961
L33775952 24423484
L33534047 24423484
L33413095 24483961
L33352619 24544437
L33292142 24665389
L33292142 24967770
L33352619 25088722
L33413095 25149199
L33534047 25209675
L33775952 25209675
L33896904 25149199
L33957380 25088722
L34017857 24967770
" />
</g><text x="33020000.000000" y="18133961.000000"
textLength="2809724.000000" font-size="1693333.000000" lengthAdjust="spacingAndGlyphs"
text-anchor="middle" opacity="0">G8</text>
<g class="stroked-text"><desc>G8</desc>
<path d="M32747857 16863961
L32626904 16803484
L32445476 16803484
L32264047 16863961
L32143095 16984913
L32082619 17105865
L32022142 17347770
L32022142 17529199
L32082619 17771103
L32143095 17892056
L32264047 18013008
L32445476 18073484
L32566428 18073484
L32747857 18013008
L32808333 17952532
L32808333 17529199
L32566428 17529199
" />
<path d="M33534047 17347770
L33413095 17287294
L33352619 17226818
L33292142 17105865
L33292142 17045389
L33352619 16924437
L33413095 16863961
L33534047 16803484
L33775952 16803484
L33896904 16863961
L33957380 16924437
L34017857 17045389
L34017857 17105865
L33957380 17226818
L33896904 17287294
L33775952 17347770
L33534047 17347770
L33413095 17408246
L33352619 17468722
L33292142 17589675
L33292142 17831580
L33352619 17952532
L33413095 18013008
L33534047 18073484
L33775952 18073484
L33896904 18013008
L33957380 17952532
L34017857 17831580
L34017857 17589675
L33957380 17468722
L33896904 17408246
L33775952 17347770
" />
</g><text x="25400000.000000" y="38453961.000000"
textLength="2809724.000000" font-size="1693333.000000" lengthAdjust="spacingAndGlyphs"
text-anchor="middle" opacity="0">G7</text>
<g class="stroked-text"><desc>G7</desc>
<path d="M25127857 37183961
L25006904 37123484
L24825476 37123484
L24644047 37183961
L24523095 37304913
L24462619 37425865
L24402142 37667770
L24402142 37849199
L24462619 38091103
L24523095 38212056
L24644047 38333008
L24825476 38393484
L24946428 38393484
L25127857 38333008
L25188333 38272532
L25188333 37849199
L24946428 37849199
" />
<path d="M25611666 37123484
L26458333 37123484
L25914047 38393484
" />
</g><text x="71353922.000000" y="19266164.000000"
textLength="2809724.000000" font-size="1693333.000000" lengthAdjust="spacingAndGlyphs"
text-anchor="middle" opacity="0">G6</text>
<g class="stroked-text"><desc>G6</desc>
<path d="M71081779 17996164
L70960826 17935687
L70779398 17935687
L70597969 17996164
L70477017 18117116
L70416541 18238068
L70356064 18479973
L70356064 18661402
L70416541 18903306
L70477017 19024259
L70597969 19145211
L70779398 19205687
L70900350 19205687
L71081779 19145211
L71142255 19084735
L71142255 18661402
L70900350 18661402
" />
<path d="M72230826 17935687
L71988922 17935687
L71867969 17996164
L71807493 18056640
L71686541 18238068
L71626064 18479973
L71626064 18963783
L71686541 19084735
L71747017 19145211
L71867969 19205687
L72109874 19205687
L72230826 19145211
L72291302 19084735
L72351779 18963783
L72351779 18661402
L72291302 18540449
L72230826 18479973
L72109874 18419497
L71867969 18419497
L71747017 18479973
L71686541 18540449
L71626064 18661402
" />
</g><text x="20320000.000000" y="25753961.000000"
textLength="2809724.000000" font-size="1693333.000000" lengthAdjust="spacingAndGlyphs"
text-anchor="middle" opacity="0">G5</text>
<g class="stroked-text"><desc>G5</desc>
<path d="M20047857 24483961
L19926904 24423484
L19745476 24423484
L19564047 24483961
L19443095 24604913
L19382619 24725865
L19322142 24967770
L19322142 25149199
L19382619 25391103
L19443095 25512056
L19564047 25633008
L19745476 25693484
L19866428 25693484
L20047857 25633008
L20108333 25572532
L20108333 25149199
L19866428 25149199
" />
<path d="M21257380 24423484
L20652619 24423484
L20592142 25028246
L20652619 24967770
L20773571 24907294
L21075952 24907294
L21196904 24967770
L21257380 25028246
L21317857 25149199
L21317857 25451580
L21257380 25572532
L21196904 25633008
L21075952 25693484
L20773571 25693484
L20652619 25633008
L20592142 25572532
" />
</g><text x="25400000.000000" y="23213961.000000"
textLength="2809724.000000" font-size="1693333.000000" lengthAdjust="spacingAndGlyphs"
text-anchor="middle" opacity="0">G4</text>
<g class="stroked-text"><desc>G4</desc>
<path d="M25127857 21943961
L25006904 21883484
L24825476 21883484
L24644047 21943961
L24523095 22064913
L24462619 22185865
L24402142 22427770
L24402142 22609199
L24462619 22851103
L24523095 22972056
L24644047 23093008
L24825476 23153484
L24946428 23153484
L25127857 23093008
L25188333 23032532
L25188333 22609199
L24946428 22609199
" />
<path d="M26276904 22306818
L26276904 23153484
" />
<path d="M25974523 21823008
L25672142 22730151
L26458333 22730151
" />
</g><text x="25400000.000000" y="18133961.000000"
textLength="2809724.000000" font-size="1693333.000000" lengthAdjust="spacingAndGlyphs"
text-anchor="middle" opacity="0">G3</text>
<g class="stroked-text"><desc>G3</desc>
<path d="M25127857 16863961
L25006904 16803484
L24825476 16803484
L24644047 16863961
L24523095 16984913
L24462619 17105865
L24402142 17347770
L24402142 17529199
L24462619 17771103
L24523095 17892056
L24644047 18013008
L24825476 18073484
L24946428 18073484
L25127857 18013008
L25188333 17952532
L25188333 17529199
L24946428 17529199
" />
<path d="M25611666 16803484
L26397857 16803484
L25974523 17287294
L26155952 17287294
L26276904 17347770
L26337380 17408246
L26397857 17529199
L26397857 17831580
L26337380 17952532
L26276904 18013008
L26155952 18073484
L25793095 18073484
L25672142 18013008
L25611666 17952532
" />
</g><text x="20320000.000000" y="35396528.000000"
textLength="2809724.000000" font-size="1693333.000000" lengthAdjust="spacingAndGlyphs"
text-anchor="middle" opacity="0">G2</text>
<g class="stroked-text"><desc>G2</desc>
<path d="M20047857 34126528
L19926904 34066051
L19745476 34066051
L19564047 34126528
L19443095 34247480
L19382619 34368432
L19322142 34610337
L19322142 34791766
L19382619 35033670
L19443095 35154623
L19564047 35275575
L19745476 35336051
L19866428 35336051
L20047857 35275575
L20108333 35215099
L20108333 34791766
L19866428 34791766
" />
<path d="M20592142 34187004
L20652619 34126528
L20773571 34066051
L21075952 34066051
L21196904 34126528
L21257380 34187004
L21317857 34307956
L21317857 34428908
L21257380 34610337
L20531666 35336051
L21317857 35336051
" />
</g><text x="20320000.000000" y="40993961.000000"
textLength="2809724.000000" font-size="1693333.000000" lengthAdjust="spacingAndGlyphs"
text-anchor="middle" opacity="0">G1</text>
<g class="stroked-text"><desc>G1</desc>
<path d="M20047857 39723961
L19926904 39663484
L19745476 39663484
L19564047 39723961
L19443095 39844913
L19382619 39965865
L19322142 40207770
L19322142 40389199
L19382619 40631103
L19443095 40752056
L19564047 40873008
L19745476 40933484
L19866428 40933484
L20047857 40873008
L20108333 40812532
L20108333 40389199
L19866428 40389199
" />
<path d="M21317857 40933484
L20592142 40933484
" />
<path d="M20955000 40933484
L20955000 39663484
L20834047 39844913
L20713095 39965865
L20592142 40026341
" />
</g><text x="63515640.000000" y="29016240.000000"
textLength="3837819.000000" font-size="1693333.000000" lengthAdjust="spacingAndGlyphs"
text-anchor="middle" opacity="0">DL1</text>
<g class="stroked-text"><desc>DL1</desc>
<path d="M62064211 28955763
L62064211 27685763
L62366592 27685763
L62548020 27746240
L62668973 27867192
L62729449 27988144
L62789925 28230049
L62789925 28411478
L62729449 28653382
L62668973 28774335
L62548020 28895287
L62366592 28955763
L62064211 28955763
" />
<path d="M63938973 28955763
L63334211 28955763
L63334211 27685763
" />
<path d="M65027544 28955763
L64301830 28955763
" />
<path d="M64664687 28955763
L64664687 27685763
L64543735 27867192
L64422782 27988144
L64301830 28048620
" />
</g><text x="38100000.000000" y="39016039.000000"
textLength="4079724.000000" font-size="1693333.000000" lengthAdjust="spacingAndGlyphs"
text-anchor="middle" opacity="0">CP2</text>
<g class="stroked-text"><desc>CP2</desc>
<path d="M37253333 38834610
L37192857 38895086
L37011428 38955562
L36890476 38955562
L36709047 38895086
L36588095 38774134
L36527619 38653181
L36467142 38411277
L36467142 38229848
L36527619 37987943
L36588095 37866991
L36709047 37746039
L36890476 37685562
L37011428 37685562
L37192857 37746039
L37253333 37806515
" />
<path d="M37797619 38955562
L37797619 37685562
L38281428 37685562
L38402380 37746039
L38462857 37806515
L38523333 37927467
L38523333 38108896
L38462857 38229848
L38402380 38290324
L38281428 38350800
L37797619 38350800
" />
<path d="M39007142 37806515
L39067619 37746039
L39188571 37685562
L39490952 37685562
L39611904 37746039
L39672380 37806515
L39732857 37927467
L39732857 38048419
L39672380 38229848
L38946666 38955562
L39732857 38955562
" />
</g><text x="50778999.000000" y="12178700.000000"
textLength="4079724.000000" font-size="1693333.000000" lengthAdjust="spacingAndGlyphs"
text-anchor="middle" opacity="0">CP1</text>
<g class="stroked-text"><desc>CP1</desc>
<path d="M49932332 11997271
L49871856 12057747
L49690427 12118223
L49569475 12118223
L49388046 12057747
L49267094 11936795
L49206618 11815842
L49146141 11573938
L49146141 11392509
L49206618 11150604
L49267094 11029652
L49388046 10908700
L49569475 10848223
L49690427 10848223
L49871856 10908700
L49932332 10969176
" />
<path d="M50476618 12118223
L50476618 10848223
L50960427 10848223
L51081379 10908700
L51141856 10969176
L51202332 11090128
L51202332 11271557
L51141856 11392509
L51081379 11452985
L50960427 11513461
L50476618 11513461
" />
<path d="M52411856 12118223
L51686141 12118223
" />
<path d="M52048999 12118223
L52048999 10848223
L51928046 11029652
L51807094 11150604
L51686141 11211080
" />
</g><text x="60971623.000000" y="32027732.000000"
textLength="2809724.000000" font-size="1693333.000000" lengthAdjust="spacingAndGlyphs"
text-anchor="middle" opacity="0">C6</text>
<g class="stroked-text"><desc>C6</desc>
<path d="M60759956 31846303
L60699480 31906779
L60518051 31967255
L60397099 31967255
L60215670 31906779
L60094718 31785827
L60034242 31664874
L59973765 31422970
L59973765 31241541
L60034242 30999636
L60094718 30878684
L60215670 30757732
L60397099 30697255
L60518051 30697255
L60699480 30757732
L60759956 30818208
" />
<path d="M61848527 30697255
L61606623 30697255
L61485670 30757732
L61425194 30818208
L61304242 30999636
L61243765 31241541
L61243765 31725351
L61304242 31846303
L61364718 31906779
L61485670 31967255
L61727575 31967255
L61848527 31906779
L61909003 31846303
L61969480 31725351
L61969480 31422970
L61909003 31302017
L61848527 31241541
L61727575 31181065
L61485670 31181065
L61364718 31241541
L61304242 31302017
L61243765 31422970
" />
</g><text x="60151623.000000" y="42187732.000000"
textLength="2809724.000000" font-size="1693333.000000" lengthAdjust="spacingAndGlyphs"
text-anchor="middle" opacity="0">C5</text>
<g class="stroked-text"><desc>C5</desc>
<path d="M59939956 42006303
L59879480 42066779
L59698051 42127255
L59577099 42127255
L59395670 42066779
L59274718 41945827
L59214242 41824874
L59153765 41582970
L59153765 41401541
L59214242 41159636
L59274718 41038684
L59395670 40917732
L59577099 40857255
L59698051 40857255
L59879480 40917732
L59939956 40978208
" />
<path d="M61089003 40857255
L60484242 40857255
L60423765 41462017
L60484242 41401541
L60605194 41341065
L60907575 41341065
L61028527 41401541
L61089003 41462017
L61149480 41582970
L61149480 41885351
L61089003 42006303
L61028527 42066779
L60907575 42127255
L60605194 42127255
L60484242 42066779
L60423765 42006303
" />
</g><g transform="rotate(-90.000000 44807268.000000 35571623.000000)">
<text x="44807268.000000" y="36206623.000000"
textLength="2809724.000000" font-size="1693333.000000" lengthAdjust="spacingAndGlyphs"
text-anchor="middle" opacity="0">C4</text>
</g>
<g class="stroked-text"><desc>C4</desc>
<path d="M45260839 35783289
L45321315 35843765
L45381791 36025194
L45381791 36146146
L45321315 36327575
L45200363 36448527
L45079410 36509003
L44837506 36569480
L44656077 36569480
L44414172 36509003
L44293220 36448527
L44172268 36327575
L44111791 36146146
L44111791 36025194
L44172268 35843765
L44232744 35783289
" />
<path d="M44535125 34694718
L45381791 34694718
" />
<path d="M44051315 34997099
L44958458 35299480
L44958458 34513289
" />
</g><text x="49991623.000000" y="19327732.000000"
textLength="2809724.000000" font-size="1693333.000000" lengthAdjust="spacingAndGlyphs"
text-anchor="middle" opacity="0">C3</text>
<g class="stroked-text"><desc>C3</desc>
<path d="M49779956 19146303
L49719480 19206779
L49538051 19267255
L49417099 19267255
L49235670 19206779
L49114718 19085827
L49054242 18964874
L48993765 18722970
L48993765 18541541
L49054242 18299636
L49114718 18178684
L49235670 18057732
L49417099 17997255
L49538051 17997255
L49719480 18057732
L49779956 18118208
" />
<path d="M50203289 17997255
L50989480 17997255
L50566146 18481065
L50747575 18481065
L50868527 18541541
L50929003 18602017
L50989480 18722970
L50989480 19025351
L50929003 19146303
L50868527 19206779
L50747575 19267255
L50384718 19267255
L50263765 19206779
L50203289 19146303
" />
</g><g transform="rotate(-90.000000 54252732.000000 11868377.000000)">
<text x="54252732.000000" y="12503377.000000"
textLength="2809724.000000" font-size="1693333.000000" lengthAdjust="spacingAndGlyphs"
text-anchor="middle" opacity="0">C2</text>
</g>
<g class="stroked-text"><desc>C2</desc>
<path d="M54706303 12080043
L54766779 12140519
L54827255 12321948
L54827255 12442900
L54766779 12624329
L54645827 12745281
L54524874 12805757
L54282970 12866234
L54101541 12866234
L53859636 12805757
L53738684 12745281
L53617732 12624329
L53557255 12442900
L53557255 12321948
L53617732 12140519
L53678208 12080043
" />
<path d="M53678208 11596234
L53617732 11535757
L53557255 11414805
L53557255 11112424
L53617732 10991472
L53678208 10930996
L53799160 10870519
L53920112 10870519
L54101541 10930996
L54827255 11656710
L54827255 10870519
" />
</g><text x="44011623.000000" y="19327732.000000"
textLength="2809724.000000" font-size="1693333.000000" lengthAdjust="spacingAndGlyphs"
text-anchor="middle" opacity="0">C1</text>
<g class="stroked-text"><desc>C1</desc>
<path d="M43799956 19146303
L43739480 19206779
L43558051 19267255
L43437099 19267255
L43255670 19206779
L43134718 19085827
L43074242 18964874
L43013765 18722970
L43013765 18541541
L43074242 18299636
L43134718 18178684
L43255670 18057732
L43437099 17997255
L43558051 17997255
L43739480 18057732
L43799956 18118208
" />
<path d="M45009480 19267255
L44283765 19267255
" />
<path d="M44646623 19267255
L44646623 17997255
L44525670 18178684
L44404718 18299636
L44283765 18360112
" />
</g></g>
<g style="fill:#F2EDA1; fill-opacity:0.0; 
stroke:#F2EDA1; stroke-width:200000.000000; stroke-opacity:1; 
stroke-linecap:round; stroke-linejoin:round;">
<circle cx="7520000.000000" cy="24620000.000000" r="100000.000000" /> 
</g>
<g style="fill:#F2EDA1; fill-opacity:0.0; 
stroke:#F2EDA1; stroke-width:127000.000000; stroke-opacity:1; 
stroke-linecap:round; stroke-linejoin:round;">
<path d="M10870000 24055000
L10870000 16585000
" />
<path d="M4520000 24055000
L10870000 24055000
" />
<path d="M10870000 16585000
L4520000 16585000
" />
<path d="M4520000 16585000
L4520000 24055000
" />
</g>
<g style="fill:#F2EDA1; fill-opacity:0.0; 
stroke:#F2EDA1; stroke-width:200000.000000; stroke-opacity:1; 
stroke-linecap:round; stroke-linejoin:round;">
<path d="M56822000 40552000
L56822000 35648000
" />
<path d="M60018000 40552000
L56822000 40552000
" />
<path d="M54945000 35520000
L56472000 35520000
" />
<path d="M60018000 35648000
L60018000 40552000
" />
<path d="M56822000 35648000
L60018000 35648000
" />
</g>
<g style="fill:#F2EDA1; fill-opacity:0.0; 
stroke:#F2EDA1; stroke-width:100000.000000; stroke-opacity:1; 
stroke-linecap:round; stroke-linejoin:round;">
<path d="M33020000.000000 43340000.000000 A50000.000000 50000.000000 0.0 0 0 33020000.000000 43440000.000000" />
<path d="M33020000.000000 43440000.000000 A50000.000000 50000.000000 0.0 0 0 33020000.000000 43340000.000000" />
</g>
<g style="fill:#F2EDA1; fill-opacity:0.0; 
stroke:#F2EDA1; stroke-width:200000.000000; stroke-opacity:1; 
stroke-linecap:round; stroke-linejoin:round;">
<path d="M29330000 33335000
L29330000 42865000
" />
<path d="M29330000 42865000
L34160000 42865000
" />
<path d="M34160000 33335000
L29330000 33335000
" />
<path d="M34160000 42865000
L34160000 33335000
" />
</g>
<g style="fill:#F2EDA1; fill-opacity:1.0; 
stroke:#F2EDA1; stroke-width:1.000000; stroke-opacity:1; 
stroke-linecap:round; stroke-linejoin:round;">
<circle cx="33020000.000000" cy="43340000.000000" r="50000.000000" /> 
<circle cx="33020000.000000" cy="43440000.000000" r="50000.000000" /> 
</g>
<g style="fill:#F2EDA1; fill-opacity:1.0; 
stroke:#F2EDA1; stroke-width:200000.000000; stroke-opacity:1; 
stroke-linecap:round; stroke-linejoin:round;">
</g>
<g style="fill:#F2EDA1; fill-opacity:0.0; 
stroke:#F2EDA1; stroke-width:200000.000000; stroke-opacity:1; 
stroke-linecap:round; stroke-linejoin:round;">
<path d="M66740000 40640000
L65340000 40640000
" />
<path d="M66740000 45720000
L65340000 45720000
" />
<path d="M71120000 45020000
L71120000 46420000
" />
<path d="M46420000 35560000
L45020000 35560000
" />
<path d="M40640000 27240000
L40640000 28640000
" />
<path d="M38100000 42480000
L38100000 43880000
" />
<path d="M33720000 13690000
L32320000 13690000
" />
<path d="M36260000 13690000
L34860000 13690000
" />
<path d="M26100000 13690000
L24700000 13690000
" />
<path d="M28640000 13690000
L27240000 13690000
" />
<path d="M55880000 26100000
L55880000 24700000
" />
<path d="M18480000 13690000
L17080000 13690000
" />
<path d="M57864000 18576222
L56464000 18576222
" />
<path d="M21020000 13690000
L19620000 13690000
" />
<path d="M57720000 12700000
L59120000 12700000
" />
<path d="M15240000 33720000
L15240000 32320000
" />
<path d="M71120000 27240000
L71120000 28640000
" />
<path d="M50800000 9460000
L50800000 10860000
" />
<path d="M15165000 48960000
L15165000 47560000
" />
<path d="M43880000 15240000
L42480000 15240000
" />
<path d="M48260000 24700000
L48260000 26100000
" />
<path d="M15240000 41340000
L15240000 39940000
" />
<path d="M50800000 8320000
L50800000 6920000
" />
<path d="M45020000 7620000
L46420000 7620000
" />
<path d="M76250000 44640000
L76150000 44640000
" />
<path d="M76250000 41720000
L76250000 44640000
" />
<path d="M74500000 41680000
L75800000 41680000
" />
<path d="M76150000 41720000
L76250000 41720000
" />
<path d="M76150000 44640000
L76150000 41720000
" />
<path d="M76250000 37020000
L76150000 37020000
" />
<path d="M76250000 34100000
L76250000 37020000
" />
<path d="M74500000 34060000
L75800000 34060000
" />
<path d="M76150000 34100000
L76250000 34100000
" />
<path d="M76150000 37020000
L76150000 34100000
" />
<path d="M76250000 26860000
L76150000 26860000
" />
<path d="M76250000 23940000
L76250000 26860000
" />
<path d="M74500000 23900000
L75800000 23900000
" />
<path d="M76150000 23940000
L76250000 23940000
" />
<path d="M76150000 26860000
L76150000 23940000
" />
<path d="M76250000 19240000
L76150000 19240000
" />
<path d="M76250000 16320000
L76250000 19240000
" />
<path d="M74500000 16280000
L75800000 16280000
" />
<path d="M76150000 16320000
L76250000 16320000
" />
<path d="M76150000 19240000
L76150000 16320000
" />
</g>
<g style="fill:#F2EDA1; fill-opacity:0.0; 
stroke:#F2EDA1; stroke-width:254000.000000; stroke-opacity:1; 
stroke-linecap:round; stroke-linejoin:round;">
</g>
<g style="fill:#F2EDA1; fill-opacity:1.0; 
stroke:#F2EDA1; stroke-width:1.000000; stroke-opacity:1; 
stroke-linecap:round; stroke-linejoin:round;">
<circle cx="68835680.000000" cy="9099000.000000" r="240360.000000" /> 
</g>
<g style="fill:#F2EDA1; fill-opacity:1.0; 
stroke:#F2EDA1; stroke-width:254000.000000; stroke-opacity:1; 
stroke-linecap:round; stroke-linejoin:round;">
</g>
<g style="fill:#F2EDA1; fill-opacity:0.0; 
stroke:#F2EDA1; stroke-width:254000.000000; stroke-opacity:1; 
stroke-linecap:round; stroke-linejoin:round;">
<path d="M69677680 5203000
L83677680 5203000
" />
<path d="M69677680 12703000
L69677680 5203000
" />
<path d="M83677680 12703000
L69677680 12703000
" />
<path d="M83677680 5203000
L83677680 12703000
" />
</g>
<g style="fill:#F2EDA1; fill-opacity:0.0; 
stroke:#F2EDA1; stroke-width:200000.000000; stroke-opacity:1; 
stroke-linecap:round; stroke-linejoin:round;">
<circle cx="61500000.000000" cy="8891500.000000" r="100000.000000" /> 
</g>
<g style="fill:#F2EDA1; fill-opacity:0.0; 
stroke:#F2EDA1; stroke-width:127000.000000; stroke-opacity:1; 
stroke-linecap:round; stroke-linejoin:round;">
<path d="M62305000 5791500
L67235000 5791500
" />
<path d="M67235000 12141500
L62305000 12141500
" />
<path d="M67235000 5791500
L67235000 12141500
" />
<path d="M62305000 12141500
L62305000 5791500
" />
</g>
<g style="fill:#F2EDA1; fill-opacity:0.0; 
stroke:#F2EDA1; stroke-width:200000.000000; stroke-opacity:1; 
stroke-linecap:round; stroke-linejoin:round;">
<circle cx="83820000.000000" cy="42640000.000000" r="100000.000000" /> 
</g>
<g style="fill:#F2EDA1; fill-opacity:0.0; 
stroke:#F2EDA1; stroke-width:127000.000000; stroke-opacity:1; 
stroke-linecap:round; stroke-linejoin:round;">
<path d="M80720000 41835000
L80720000 36905000
" />
<path d="M87070000 36905000
L87070000 41835000
" />
<path d="M80720000 36905000
L87070000 36905000
" />
<path d="M87070000 41835000
L80720000 41835000
" />
</g>
<g style="fill:#F2EDA1; fill-opacity:0.0; 
stroke:#F2EDA1; stroke-width:200000.000000; stroke-opacity:1; 
stroke-linecap:round; stroke-linejoin:round;">
<circle cx="53880000.000000" cy="48260000.000000" r="100000.000000" /> 
</g>
<g style="fill:#F2EDA1; fill-opacity:0.0; 
stroke:#F2EDA1; stroke-width:127000.000000; stroke-opacity:1; 
stroke-linecap:round; stroke-linejoin:round;">
<path d="M54685000 45160000
L59615000 45160000
" />
<path d="M59615000 51510000
L54685000 51510000
" />
<path d="M59615000 45160000
L59615000 51510000
" />
<path d="M54685000 51510000
L54685000 45160000
" />
</g>
<g style="fill:#F2EDA1; fill-opacity:0.0; 
stroke:#F2EDA1; stroke-width:200000.000000; stroke-opacity:1; 
stroke-linecap:round; stroke-linejoin:round;">
<circle cx="31020000.000000" cy="7620000.000000" r="100000.000000" /> 
</g>
<g style="fill:#F2EDA1; fill-opacity:0.0; 
stroke:#F2EDA1; stroke-width:127000.000000; stroke-opacity:1; 
stroke-linecap:round; stroke-linejoin:round;">
<path d="M31825000 4520000
L36755000 4520000
" />
<path d="M36755000 10870000
L31825000 10870000
" />
<path d="M36755000 4520000
L36755000 10870000
" />
<path d="M31825000 10870000
L31825000 4520000
" />
</g>
<g style="fill:#F2EDA1; fill-opacity:0.0; 
stroke:#F2EDA1; stroke-width:200000.000000; stroke-opacity:1; 
stroke-linecap:round; stroke-linejoin:round;">
<circle cx="23400000.000000" cy="7620000.000000" r="100000.000000" /> 
</g>
<g style="fill:#F2EDA1; fill-opacity:0.0; 
stroke:#F2EDA1; stroke-width:127000.000000; stroke-opacity:1; 
stroke-linecap:round; stroke-linejoin:round;">
<path d="M24205000 4520000
L29135000 4520000
" />
<path d="M29135000 10870000
L24205000 10870000
" />
<path d="M29135000 4520000
L29135000 10870000
" />
<path d="M24205000 10870000
L24205000 4520000
" />
</g>
<g style="fill:#F2EDA1; fill-opacity:0.0; 
stroke:#F2EDA1; stroke-width:200000.000000; stroke-opacity:1; 
stroke-linecap:round; stroke-linejoin:round;">
<circle cx="83820000.000000" cy="24860000.000000" r="100000.000000" /> 
</g>
<g style="fill:#F2EDA1; fill-opacity:0.0; 
stroke:#F2EDA1; stroke-width:127000.000000; stroke-opacity:1; 
stroke-linecap:round; stroke-linejoin:round;">
<path d="M80720000 24055000
L80720000 19125000
" />
<path d="M87070000 19125000
L87070000 24055000
" />
<path d="M80720000 19125000
L87070000 19125000
" />
<path d="M87070000 24055000
L80720000 24055000
" />
</g>
<g style="fill:#F2EDA1; fill-opacity:0.0; 
stroke:#F2EDA1; stroke-width:200000.000000; stroke-opacity:1; 
stroke-linecap:round; stroke-linejoin:round;">
<circle cx="15780000.000000" cy="7620000.000000" r="100000.000000" /> 
</g>
<g style="fill:#F2EDA1; fill-opacity:0.0; 
stroke:#F2EDA1; stroke-width:127000.000000; stroke-opacity:1; 
stroke-linecap:round; stroke-linejoin:round;">
<path d="M16585000 4520000
L21515000 4520000
" />
<path d="M21515000 10870000
L16585000 10870000
" />
<path d="M21515000 4520000
L21515000 10870000
" />
<path d="M16585000 10870000
L16585000 4520000
" />
</g>
<g style="fill:#F2EDA1; fill-opacity:0.0; 
stroke:#F2EDA1; stroke-width:200000.000000; stroke-opacity:1; 
stroke-linecap:round; stroke-linejoin:round;">
<circle cx="7695000.000000" cy="32480000.000000" r="100000.000000" /> 
</g>
<g style="fill:#F2EDA1; fill-opacity:0.0; 
stroke:#F2EDA1; stroke-width:127000.000000; stroke-opacity:1; 
stroke-linecap:round; stroke-linejoin:round;">
<path d="M4595000 31675000
L4595000 26745000
" />
<path d="M10945000 26745000
L10945000 31675000
" />
<path d="M4595000 26745000
L10945000 26745000
" />
<path d="M10945000 31675000
L4595000 31675000
" />
</g>
<g style="fill:#F2EDA1; fill-opacity:0.0; 
stroke:#F2EDA1; stroke-width:200000.000000; stroke-opacity:1; 
stroke-linecap:round; stroke-linejoin:round;">
<circle cx="7620000.000000" cy="47720000.000000" r="100000.000000" /> 
</g>
<g style="fill:#F2EDA1; fill-opacity:0.0; 
stroke:#F2EDA1; stroke-width:127000.000000; stroke-opacity:1; 
stroke-linecap:round; stroke-linejoin:round;">
<path d="M4520000 46915000
L4520000 41985000
" />
<path d="M10870000 41985000
L10870000 46915000
" />
<path d="M4520000 41985000
L10870000 41985000
" />
<path d="M10870000 46915000
L4520000 46915000
" />
</g>
<g style="fill:#F2EDA1; fill-opacity:0.0; 
stroke:#F2EDA1; stroke-width:200000.000000; stroke-opacity:1; 
stroke-linecap:round; stroke-linejoin:round;">
<circle cx="7620000.000000" cy="40100000.000000" r="100000.000000" /> 
</g>
<g style="fill:#F2EDA1; fill-opacity:0.0; 
stroke:#F2EDA1; stroke-width:127000.000000; stroke-opacity:1; 
stroke-linecap:round; stroke-linejoin:round;">
<path d="M4520000 39295000
L4520000 34365000
" />
<path d="M10870000 34365000
L10870000 39295000
" />
<path d="M4520000 34365000
L10870000 34365000
" />
<path d="M10870000 39295000
L4520000 39295000
" />
</g>
<g style="fill:#F2EDA1; fill-opacity:0.0; 
stroke:#F2EDA1; stroke-width:200000.000000; stroke-opacity:1; 
stroke-linecap:round; stroke-linejoin:round;">
<path d="M69245000 37853900
L70395000 37853900
" />
<path d="M70745000 40803900
L70745000 37903900
" />
<path d="M71495000 37903900
L71495000 40803900
" />
<path d="M70745000 37903900
L71495000 37903900
" />
<path d="M71495000 40803900
L70745000 40803900
" />
<path d="M31145000 26440000
L32295000 26440000
" />
<path d="M32645000 29390000
L32645000 26490000
" />
<path d="M33395000 26490000
L33395000 29390000
" />
<path d="M32645000 26490000
L33395000 26490000
" />
<path d="M33395000 29390000
L32645000 29390000
" />
<path d="M31145000 18820000
L32295000 18820000
" />
<path d="M32645000 21770000
L32645000 18870000
" />
<path d="M33395000 18870000
L33395000 21770000
" />
<path d="M32645000 18870000
L33395000 18870000
" />
<path d="M33395000 21770000
L32645000 21770000
" />
<path d="M23525000 39140000
L24675000 39140000
" />
<path d="M25025000 42090000
L25025000 39190000
" />
<path d="M25775000 39190000
L25775000 42090000
" />
<path d="M25025000 39190000
L25775000 39190000
" />
<path d="M25775000 42090000
L25025000 42090000
" />
<path d="M69478922 19952203
L70628922 19952203
" />
<path d="M70978922 22902203
L70978922 20002203
" />
<path d="M71728922 20002203
L71728922 22902203
" />
<path d="M70978922 20002203
L71728922 20002203
" />
<path d="M71728922 22902203
L70978922 22902203
" />
<path d="M18445000 26440000
L19595000 26440000
" />
<path d="M19945000 29390000
L19945000 26490000
" />
<path d="M20695000 26490000
L20695000 29390000
" />
<path d="M19945000 26490000
L20695000 26490000
" />
<path d="M20695000 29390000
L19945000 29390000
" />
<path d="M23525000 23900000
L24675000 23900000
" />
<path d="M25025000 26850000
L25025000 23950000
" />
<path d="M25775000 23950000
L25775000 26850000
" />
<path d="M25025000 23950000
L25775000 23950000
" />
<path d="M25775000 26850000
L25025000 26850000
" />
<path d="M23525000 18820000
L24675000 18820000
" />
<path d="M25025000 21770000
L25025000 18870000
" />
<path d="M25775000 18870000
L25775000 21770000
" />
<path d="M25025000 18870000
L25775000 18870000
" />
<path d="M25775000 21770000
L25025000 21770000
" />
<path d="M18445000 36082567
L19595000 36082567
" />
<path d="M19945000 39032567
L19945000 36132567
" />
<path d="M20695000 36132567
L20695000 39032567
" />
<path d="M19945000 36132567
L20695000 36132567
" />
<path d="M20695000 39032567
L19945000 39032567
" />
<path d="M18445000 41680000
L19595000 41680000
" />
<path d="M19945000 44630000
L19945000 41730000
" />
<path d="M20695000 41730000
L20695000 44630000
" />
<path d="M19945000 41730000
L20695000 41730000
" />
<path d="M20695000 44630000
L19945000 44630000
" />
<path d="M65100000 18535000
L65100000 27185000
" />
<path d="M61900000 18535000
L65100000 18535000
" />
<path d="M61900000 27185000
L61900000 18535000
" />
<path d="M66975000 27345000
L65450000 27345000
" />
<path d="M65100000 27185000
L61900000 27185000
" />
<path d="M39975000 37060000
L38825000 37060000
" />
<path d="M38475000 34110000
L38475000 37010000
" />
<path d="M37725000 37010000
L37725000 34110000
" />
<path d="M38475000 37010000
L37725000 37010000
" />
<path d="M37725000 34110000
L38475000 34110000
" />
<path d="M49202000 17692000
L49202000 12788000
" />
<path d="M52398000 17692000
L49202000 17692000
" />
<path d="M47325000 12660000
L48852000 12660000
" />
<path d="M52398000 12788000
L52398000 17692000
" />
<path d="M49202000 12788000
L52398000 12788000
" />
<g >
</g>
<g >
</g>
<g >
</g>
<g >
</g>
<g >
</g>
<g >
</g>
<g >
</g>
<g >
</g>
<g >
</g>
<g >
</g>
<g >
</g>
<g >
</g>
<g >
</g>
<g >
</g>
<g >
</g>
<g >
</g>
<g >
</g>
<g >
</g>
<g >
</g>
<g >
</g>
<g >
</g>
<g >
</g>
<g >
</g>
<g >
</g>
<g >
</g>
<g >
</g>
<g >
</g>
<g >
</g>
<g >
</g>
<g >
</g>
<g >
</g>
<g >
</g>
<g >
</g>
<g >
</g>
<g >
</g>
<g >
</g>
<g >
</g>
<g >
</g>
<g >
</g>
<g >
</g>
<g >
</g>
<g >
</g>
<g >
</g>
<g >
</g>
<g >
</g>
<g >
</g>
<g >
</g>
<g >
</g>
<g >
</g>
<g >
</g>
<g >
</g>
<g >
</g>
<g >
</g>
<g >
</g>
<g >
</g>
<g >
</g>
<g >
</g>
<g >
</g>
<g >
</g>
<g >
</g>
<g >
</g>
<g >
</g>
<g >
</g>
<g >
</g>
</g>
<g style="fill:#000000; fill-opacity:0.0; 
stroke:#000000; stroke-width:200000.000000; stroke-opacity:1; 
stroke-linecap:round; stroke-linejoin:round;">
</g>
<g style="fill:#D0D2CD; fill-opacity:0.0; 
stroke:#D0D2CD; stroke-width:200000.000000; stroke-opacity:1; 
stroke-linecap:round; stroke-linejoin:round;">
</g>
<g style="fill:#D0D2CD; fill-opacity:0.0; 
stroke:#D0D2CD; stroke-width:100000.000000; stroke-opacity:1; 
stroke-linecap:round; stroke-linejoin:round;">
<path d="M2540000 2540000
L88900000 2540000
" />
<path d="M88900000 2540000
L88900000 53340000
" />
<path d="M88900000 53340000
L2540000 53340000
" />
<path d="M2540000 53340000
L2540000 2540000
" />
<g >
</g>
<g >
</g>
<g >
</g>
<g >
</g>
<g >
</g>
<g >
</g>
<g >
</g>
<g >
</g>
<g >
</g>
<g >
</g>
<g >
</g>
<g >
</g>
<g >
</g>
<g >
</g>
<g >
</g>
<g >
</g>
<g >
</g>
<g >
</g>
<g >
</g>
<g >
</g>
<g >
</g>
<g >
</g>
<g >
</g>
<g >
</g>
<g >
</g>
<g >
</g>
<g >
</g>
<g >
</g>
<g >
</g>
<g >
</g>
<g >
</g>
<g >
</g>
<g >
</g>
<g >
</g>
<g >
</g>
<g >
</g>
<g >
</g>
<g >
</g>
<g >
</g>
<g >
</g>
<g >
</g>
<g >
</g>
<g >
</g>
<g >
</g>
<g >
</g>
<g >
</g>
<g >
</g>
<g >
</g>
<g >
</g>
<g >
</g>
<g >
</g>
<g >
</g>
<g >
</g>
<g >
</g>
<g >
</g>
<g >
</g>
<g >
</g>
<g >
</g>
<g >
</g>
<g >
</g>
<g >
</g>
<g >
</g>
<g >
</g>
<g >
</g>
</g> 
</svg>
