<?xml version="1.0" encoding="utf-8" ?><!DOCTYPE svg PUBLIC "-//W3C//DTD SVG 1.1//EN" "http://www.w3.org/Graphics/SVG/1.1/DTD/svg11.dtd" 
[ <!ATTLIST svg 
  xmlns:dsy CDATA #FIXED "http://www.3ds.com/print"  
    dsy:text-version CDATA #IMPLIED > 

  <!ATTLIST text 
  xmlns:dsy CDATA #FIXED "http://www.3ds.com/print" 
    dsy:text-version CDATA #IMPLIED > 
]><svg xmlns="http://www.w3.org/2000/svg" xmlns:dsy="http://www.3ds.com/print" dsy:text-version="18000" width="297" height="210" viewBox="0 0 297 210" version="1.1"><g stroke="rgb(0, 0, 0)" stroke-width="0.35" stroke-linecap="butt" stroke-linejoin="miter" fill="none"><path d="M 28.0935 30.5 L 28.0935 179.5"/><path d="M 28.0935 179.5 A 8 8 0 0 0 36.0935 187.5"/><path d="M 36.0935 187.5 L 60.0935 187.5"/><path d="M 60.0935 187.5 A 8 8 0 0 0 68.0935 179.5"/><path d="M 68.0935 179.5 L 68.0935 174.5"/><path d="M 68.0935 174.5 L 58.0935 174.5"/><path d="M 58.0935 174.5 L 58.0935 169.6"/><path d="M 58.0935 169.6 L 68.0935 169.6"/><path d="M 68.0935 169.6 L 68.0935 87.4"/><path d="M 68.0935 87.4 L 58.0935 87.4"/><path d="M 58.0935 87.4 L 58.0935 82.5"/><path d="M 58.0935 82.5 L 68.0935 82.5"/><path d="M 68.0935 82.5 L 68.0935 64.5"/><path d="M 76.0935 56.5 A 8 8 0 0 0 68.0935 64.5"/><path d="M 76.0935 56.5 L 87.0935 56.5"/><path d="M 36.0935 22.5 L 87.0935 22.5"/><path d="M 36.0935 22.5 A 8 8 0 0 0 28.0935 30.5"/><path d="M 87.0935 28.0892 L 87.0935 22.5"/><path d="M 87.0935 56.5 L 87.0935 53.0936"/><path d="M 87.0935 28.0887 A 12.4993 12.4993 0 0 0 77.6804 48.716"/><path d="M 77.6798 48.7165 A 12.5062 12.5062 0 0 0 87.0935 53.0936"/><path d="M 77.6376 48.6669 A 12.5061 12.5061 0 0 0 87.0935 52.9942"/><path d="M 87.0935 53.0936 L 87.0935 52.9941"/></g></svg>