<?xml version="1.0" encoding="utf-8" ?><!DOCTYPE svg PUBLIC "-//W3C//DTD SVG 1.1//EN" "http://www.w3.org/Graphics/SVG/1.1/DTD/svg11.dtd" 
[ <!ATTLIST svg 
  xmlns:dsy CDATA #FIXED "http://www.3ds.com/print"  
    dsy:text-version CDATA #IMPLIED > 

  <!ATTLIST text 
  xmlns:dsy CDATA #FIXED "http://www.3ds.com/print" 
    dsy:text-version CDATA #IMPLIED > 
]><svg xmlns="http://www.w3.org/2000/svg" xmlns:dsy="http://www.3ds.com/print" dsy:text-version="18000" width="420" height="297" viewBox="0 0 420 297" version="1.1"><g stroke="rgb(0, 0, 0)" stroke-width="0.35" stroke-linecap="butt" stroke-linejoin="miter" fill="none"><path d="M 105.238 125.24 L 105.238 115.24"/><path d="M 105.238 115.24 L 110.038 115.24"/><path d="M 110.038 115.24 L 110.038 125.24"/><path d="M 110.038 125.24 L 225.238 125.24"/><path d="M 225.238 125.24 L 225.238 115.24"/><path d="M 225.238 115.24 L 230.038 115.24"/><path d="M 230.038 115.24 L 230.038 125.24"/><circle cx="36.7137" cy="109.24" r="3.20001"/><circle cx="355.238" cy="109.24" r="3.20001"/><path d="M 356.212 95.8212 L 352.728 100.706"/><path d="M 352.728 100.706 L 351.913 100.125"/><path d="M 351.913 100.125 L 355.398 95.2405"/><path d="M 355.398 95.2405 L 356.212 95.8212"/><path d="M 370.238 108.367 L 365.353 111.851"/><path d="M 365.353 111.851 L 364.772 111.037"/><path d="M 364.772 111.037 L 369.657 107.553"/><path d="M 369.657 107.553 L 370.238 108.367"/><path d="M 329.307 108.24 L 325.266 108.24"/><path d="M 331.328 111.74 L 329.307 108.24"/><path d="M 329.307 115.24 L 331.328 111.74"/><path d="M 325.266 115.24 L 329.307 115.24"/><path d="M 323.245 111.74 L 325.266 115.24"/><path d="M 325.266 108.24 L 323.245 111.74"/><path d="M 30.657 113.171 L 29.9772 113.904"/><path d="M 29.9772 113.904 L 25.577 109.825"/><path d="M 25.577 109.825 L 26.2569 109.092"/><path d="M 30.657 113.171 L 26.2569 109.092"/><path d="M 40.7437 103.098 L 36.963 98.4387"/><path d="M 36.963 98.4387 L 37.7395 97.8086"/><path d="M 37.7395 97.8086 L 41.5202 102.468"/><path d="M 41.5202 102.468 L 40.7437 103.098"/><path d="M 230.038 125.24 L 364.774 125.24"/><path d="M 364.774 125.24 A 6 6 0 0 0 370.748 119.801"/><path d="M 366.649 93.2405 L 82.504 93.2405"/><path d="M 370.748 119.801 L 372.623 99.8005"/><path d="M 372.623 99.8005 A 6 6 0 0 0 366.649 93.2405"/><path d="M 82.504 93.2405 L 26.4672 93.2405"/><path d="M 26.4672 93.2405 A 6 6 0 0 0 20.57 100.346"/><path d="M 30.2172 125.24 L 105.238 125.24"/><path d="M 20.57 100.346 L 24.32 120.346"/><path d="M 24.32 120.346 A 6 6 0 0 0 30.2172 125.24"/></g></svg>