M48
; DRILL file {KiCad (6.0.8)} date Wed Jan 11 14:24:03 2023
; FORMAT={-:-/ absolute / inch / decimal}
; #@! TF.CreationDate,2023-01-11T14:24:03+01:00
; #@! TF.GenerationSoftware,Kicad,Pcbnew,(6.0.8)
; #@! TF.FileFunction,Plated,1,2,PTH
FMAT,2
INCH
; #@! TA.AperFunction,Plated,PTH,ViaDrill
T1C0.0157
; #@! TA.AperFunction,Plated,PTH,ComponentDrill
T2C0.0280
; #@! TA.AperFunction,Plated,PTH,ComponentDrill
T3C0.0315
; #@! TA.AperFunction,Plated,PTH,ComponentDrill
T4C0.0354
; #@! TA.AperFunction,Plated,PTH,ComponentDrill
T5C0.0370
; #@! TA.AperFunction,Plated,PTH,ComponentDrill
T6C0.0402
; #@! TA.AperFunction,Plated,PTH,ComponentDrill
T7C0.0421
; #@! TA.AperFunction,Plated,PTH,ComponentDrill
T8C0.1260
%
G90
G05
T1
X4.6949Y-3.7019
X4.9374Y-3.5626
X4.9659Y-3.6005
X5.5Y-3.8
X5.5902Y-4.0966
X5.7715Y-4.0036
X5.8Y-3.1
X5.8Y-3.9
T2
X4.0Y-3.9
X4.1Y-3.1
X4.1Y-3.3
X4.1Y-3.8
X4.2Y-3.2
X4.2Y-3.9
X4.6Y-3.1
X4.6Y-3.3
X4.6Y-3.9
X4.7Y-3.2
X4.7Y-3.8
X4.8Y-3.9
X5.1Y-3.2
X5.2Y-3.1
X5.2Y-3.3
T3
X4.7004Y-4.1377
X4.7004Y-4.2377
X4.7004Y-4.3377
X4.7004Y-4.4377
X5.0004Y-4.1377
X5.0004Y-4.2377
X5.0004Y-4.3377
X5.0004Y-4.4377
X6.2245Y-4.5421
X6.2245Y-4.6209
T4
X5.1015Y-2.7
X5.1015Y-2.8
X5.2886Y-4.051
X5.2886Y-4.151
X5.4Y-2.7
X5.4Y-2.8
T5
X6.3439Y-3.6024
X6.3439Y-3.7024
X6.3439Y-3.8024
T6
X5.9Y-4.6
X6.0Y-4.6
X6.5Y-4.1
X6.5Y-4.2
T7
X4.2Y-2.8
X4.3Y-2.8
X4.4Y-2.8
X4.6Y-2.8
X4.7Y-2.8
X4.8Y-2.8
T8
X3.9Y-2.8
X3.9Y-4.6
X6.5Y-2.8
X6.5Y-4.6
T0
M30
