%TF.GenerationSoftware,KiCad,Pcbnew,9.0.1*%
%TF.CreationDate,2025-04-28T22:48:43+02:00*%
%TF.ProjectId,SCS Red Led,53435320-5265-4642-904c-65642e6b6963,rev?*%
%TF.SameCoordinates,Original*%
%TF.FileFunction,Legend,Top*%
%TF.FilePolarity,Positive*%
%FSLAX46Y46*%
G04 Gerber Fmt 4.6, Leading zero omitted, Abs format (unit mm)*
G04 Created by KiCad (PCBNEW 9.0.1) date 2025-04-28 22:48:43*
%MOMM*%
%LPD*%
G01*
G04 APERTURE LIST*
G04 Aperture macros list*
%AMRoundRect*
0 Rectangle with rounded corners*
0 $1 Rounding radius*
0 $2 $3 $4 $5 $6 $7 $8 $9 X,Y pos of 4 corners*
0 Add a 4 corners polygon primitive as box body*
4,1,4,$2,$3,$4,$5,$6,$7,$8,$9,$2,$3,0*
0 Add four circle primitives for the rounded corners*
1,1,$1+$1,$2,$3*
1,1,$1+$1,$4,$5*
1,1,$1+$1,$6,$7*
1,1,$1+$1,$8,$9*
0 Add four rect primitives between the rounded corners*
20,1,$1+$1,$2,$3,$4,$5,0*
20,1,$1+$1,$4,$5,$6,$7,0*
20,1,$1+$1,$6,$7,$8,$9,0*
20,1,$1+$1,$8,$9,$2,$3,0*%
%AMFreePoly0*
4,1,123,0.971755,0.948895,1.016180,0.945771,1.060427,0.940564,1.104369,0.933299,1.147930,0.923952,1.190983,0.912598,1.233477,0.899238,1.275286,0.883896,1.316332,0.866599,1.356541,0.847422,1.395784,0.826365,1.434011,0.803480,1.471120,0.778842,1.507036,0.752502,1.541656,0.724511,1.574956,0.694895,1.606807,0.663780,1.637186,0.631191,1.665989,0.597231,1.693167,0.561951,
1.718669,0.525425,1.742418,0.487757,1.764389,0.448997,1.784531,0.409271,1.802769,0.329972,2.700102,0.329972,2.700102,-0.330023,1.802769,-0.330023,1.784531,-0.409373,1.764389,-0.449098,1.742418,-0.487859,1.718669,-0.525527,1.693167,-0.562052,1.665989,-0.597333,1.637186,-0.631293,1.606807,-0.663881,1.574956,-0.694996,1.541656,-0.724613,1.507036,-0.752604,1.471120,-0.778943,
1.434011,-0.803581,1.395784,-0.826467,1.356541,-0.847523,1.316332,-0.866701,1.275286,-0.883998,1.233477,-0.899340,1.190983,-0.912700,1.147930,-0.924054,1.104369,-0.933401,1.060427,-0.940665,1.016180,-0.945872,0.971755,-0.948997,0.927229,-0.950064,-0.926975,-0.950064,-0.971501,-0.948997,-1.015926,-0.945872,-1.060173,-0.940665,-1.104115,-0.933401,-1.147676,-0.924054,-1.190729,-0.912700,
-1.233223,-0.899340,-1.275032,-0.883998,-1.316078,-0.866701,-1.356287,-0.847523,-1.395530,-0.826467,-1.433757,-0.803581,-1.470866,-0.778943,-1.506782,-0.752604,-1.541402,-0.724613,-1.574702,-0.694996,-1.606553,-0.663881,-1.636932,-0.631293,-1.665735,-0.597333,-1.692913,-0.562052,-1.718415,-0.525527,-1.742164,-0.487859,-1.764135,-0.449098,-1.784277,-0.409373,-1.802515,-0.368733,-1.818847,-0.327305,
-1.833198,-0.285141,-1.845568,-0.242342,-1.855906,-0.199009,-1.864211,-0.155271,-1.870460,-0.111151,-1.874625,-0.066802,-1.876708,-0.022327,-1.876708,0.022225,-1.874625,0.066701,-1.870460,0.111049,-1.864211,0.155169,-1.855906,0.198908,-1.845568,0.242240,-1.833198,0.285039,-1.818847,0.327203,-1.802515,0.368631,-1.784277,0.409271,-1.764135,0.448997,-1.742164,0.487757,-1.718415,0.525425,
-1.692913,0.561951,-1.665735,0.597231,-1.636932,0.631191,-1.606553,0.663780,-1.574702,0.694895,-1.541402,0.724511,-1.506782,0.752502,-1.470866,0.778842,-1.433757,0.803480,-1.395530,0.826365,-1.356287,0.847422,-1.316078,0.866599,-1.275032,0.883896,-1.233223,0.899238,-1.190729,0.912598,-1.147676,0.923952,-1.104115,0.933299,-1.060173,0.940564,-1.015926,0.945771,-0.971501,0.948895,
-0.926975,0.950000,0.927229,0.950000,0.971755,0.948895,0.971755,0.948895,$1*%
G04 Aperture macros list end*
%ADD10C,0.150000*%
%ADD11C,0.120000*%
%ADD12RoundRect,0.269000X-0.269000X-0.494000X0.269000X-0.494000X0.269000X0.494000X-0.269000X0.494000X0*%
%ADD13RoundRect,0.267317X-0.280683X-0.470683X0.280683X-0.470683X0.280683X0.470683X-0.280683X0.470683X0*%
%ADD14RoundRect,0.150000X-0.150000X0.512500X-0.150000X-0.512500X0.150000X-0.512500X0.150000X0.512500X0*%
%ADD15RoundRect,0.250000X-0.620000X-0.845000X0.620000X-0.845000X0.620000X0.845000X-0.620000X0.845000X0*%
%ADD16O,1.740000X2.190000*%
%ADD17RoundRect,0.137500X-0.587500X-0.137500X0.587500X-0.137500X0.587500X0.137500X-0.587500X0.137500X0*%
%ADD18RoundRect,0.150000X0.150000X-0.400000X0.150000X0.400000X-0.150000X0.400000X-0.150000X-0.400000X0*%
%ADD19RoundRect,0.150000X-0.400000X-0.150000X0.400000X-0.150000X0.400000X0.150000X-0.400000X0.150000X0*%
%ADD20RoundRect,0.167500X0.622500X0.167500X-0.622500X0.167500X-0.622500X-0.167500X0.622500X-0.167500X0*%
%ADD21FreePoly0,180.000000*%
%ADD22C,0.500000*%
%ADD23RoundRect,0.150000X0.400000X0.150000X-0.400000X0.150000X-0.400000X-0.150000X0.400000X-0.150000X0*%
G04 APERTURE END LIST*
D10*
X77546819Y-77723904D02*
X78356342Y-77723904D01*
X78356342Y-77723904D02*
X78451580Y-77676285D01*
X78451580Y-77676285D02*
X78499200Y-77628666D01*
X78499200Y-77628666D02*
X78546819Y-77533428D01*
X78546819Y-77533428D02*
X78546819Y-77342952D01*
X78546819Y-77342952D02*
X78499200Y-77247714D01*
X78499200Y-77247714D02*
X78451580Y-77200095D01*
X78451580Y-77200095D02*
X78356342Y-77152476D01*
X78356342Y-77152476D02*
X77546819Y-77152476D01*
X78546819Y-76152476D02*
X78546819Y-76723904D01*
X78546819Y-76438190D02*
X77546819Y-76438190D01*
X77546819Y-76438190D02*
X77689676Y-76533428D01*
X77689676Y-76533428D02*
X77784914Y-76628666D01*
X77784914Y-76628666D02*
X77832533Y-76723904D01*
X90344666Y-64422819D02*
X90344666Y-65137104D01*
X90344666Y-65137104D02*
X90297047Y-65279961D01*
X90297047Y-65279961D02*
X90201809Y-65375200D01*
X90201809Y-65375200D02*
X90058952Y-65422819D01*
X90058952Y-65422819D02*
X89963714Y-65422819D01*
X90773238Y-64518057D02*
X90820857Y-64470438D01*
X90820857Y-64470438D02*
X90916095Y-64422819D01*
X90916095Y-64422819D02*
X91154190Y-64422819D01*
X91154190Y-64422819D02*
X91249428Y-64470438D01*
X91249428Y-64470438D02*
X91297047Y-64518057D01*
X91297047Y-64518057D02*
X91344666Y-64613295D01*
X91344666Y-64613295D02*
X91344666Y-64708533D01*
X91344666Y-64708533D02*
X91297047Y-64851390D01*
X91297047Y-64851390D02*
X90725619Y-65422819D01*
X90725619Y-65422819D02*
X91344666Y-65422819D01*
X87630095Y-82814819D02*
X87630095Y-83624342D01*
X87630095Y-83624342D02*
X87677714Y-83719580D01*
X87677714Y-83719580D02*
X87725333Y-83767200D01*
X87725333Y-83767200D02*
X87820571Y-83814819D01*
X87820571Y-83814819D02*
X88011047Y-83814819D01*
X88011047Y-83814819D02*
X88106285Y-83767200D01*
X88106285Y-83767200D02*
X88153904Y-83719580D01*
X88153904Y-83719580D02*
X88201523Y-83624342D01*
X88201523Y-83624342D02*
X88201523Y-82814819D01*
X89106285Y-83148152D02*
X89106285Y-83814819D01*
X88868190Y-82767200D02*
X88630095Y-83481485D01*
X88630095Y-83481485D02*
X89249142Y-83481485D01*
X82724666Y-64422819D02*
X82724666Y-65137104D01*
X82724666Y-65137104D02*
X82677047Y-65279961D01*
X82677047Y-65279961D02*
X82581809Y-65375200D01*
X82581809Y-65375200D02*
X82438952Y-65422819D01*
X82438952Y-65422819D02*
X82343714Y-65422819D01*
X83724666Y-65422819D02*
X83153238Y-65422819D01*
X83438952Y-65422819D02*
X83438952Y-64422819D01*
X83438952Y-64422819D02*
X83343714Y-64565676D01*
X83343714Y-64565676D02*
X83248476Y-64660914D01*
X83248476Y-64660914D02*
X83153238Y-64708533D01*
D11*
%TO.C,U1*%
X74132000Y-76962000D02*
X74132000Y-76162000D01*
X74132000Y-76962000D02*
X74132000Y-77762000D01*
X77252000Y-76962000D02*
X77252000Y-76162000D01*
X77252000Y-76962000D02*
X77252000Y-77762000D01*
X77532000Y-75902000D02*
X77202000Y-75662000D01*
X77532000Y-75422000D01*
X77532000Y-75902000D01*
G36*
X77532000Y-75902000D02*
G01*
X77202000Y-75662000D01*
X77532000Y-75422000D01*
X77532000Y-75902000D01*
G37*
%TO.C,J2*%
X87738000Y-67088000D02*
X87738000Y-71088000D01*
X88028000Y-66058000D02*
X88028000Y-72078000D01*
X88028000Y-72078000D02*
X93328000Y-72078000D01*
X88608000Y-66058000D02*
X88608000Y-66658000D01*
X88608000Y-66658000D02*
X90208000Y-66658000D01*
X89408000Y-71078000D02*
X89658000Y-70548000D01*
X89408000Y-71078000D02*
X91948000Y-71078000D01*
X89408000Y-72078000D02*
X89408000Y-71078000D01*
X89658000Y-70548000D02*
X91698000Y-70548000D01*
X89658000Y-72078000D02*
X89658000Y-71078000D01*
X90208000Y-66658000D02*
X90208000Y-66058000D01*
X91148000Y-66058000D02*
X91148000Y-66658000D01*
X91148000Y-66658000D02*
X92748000Y-66658000D01*
X91698000Y-70548000D02*
X91948000Y-71078000D01*
X91698000Y-72078000D02*
X91698000Y-71078000D01*
X91948000Y-71078000D02*
X91948000Y-72078000D01*
X92748000Y-66658000D02*
X92748000Y-66058000D01*
X93328000Y-66058000D02*
X88028000Y-66058000D01*
X93328000Y-72078000D02*
X93328000Y-66058000D01*
%TO.C,U4*%
X86382000Y-84200000D02*
X86382000Y-84555000D01*
X86382000Y-88520000D02*
X86382000Y-88165000D01*
X88392000Y-84200000D02*
X86382000Y-84200000D01*
X88392000Y-84200000D02*
X90402000Y-84200000D01*
X88392000Y-88520000D02*
X86382000Y-88520000D01*
X88392000Y-88520000D02*
X90402000Y-88520000D01*
X90402000Y-84200000D02*
X90402000Y-84555000D01*
X90402000Y-88520000D02*
X90402000Y-88165000D01*
X85704500Y-84555000D02*
X85464500Y-84225000D01*
X85944500Y-84225000D01*
X85704500Y-84555000D01*
G36*
X85704500Y-84555000D02*
G01*
X85464500Y-84225000D01*
X85944500Y-84225000D01*
X85704500Y-84555000D01*
G37*
%TO.C,J1*%
X80118000Y-67088000D02*
X80118000Y-71088000D01*
X80408000Y-66058000D02*
X80408000Y-72078000D01*
X80408000Y-72078000D02*
X85708000Y-72078000D01*
X80988000Y-66058000D02*
X80988000Y-66658000D01*
X80988000Y-66658000D02*
X82588000Y-66658000D01*
X81788000Y-71078000D02*
X82038000Y-70548000D01*
X81788000Y-71078000D02*
X84328000Y-71078000D01*
X81788000Y-72078000D02*
X81788000Y-71078000D01*
X82038000Y-70548000D02*
X84078000Y-70548000D01*
X82038000Y-72078000D02*
X82038000Y-71078000D01*
X82588000Y-66658000D02*
X82588000Y-66058000D01*
X83528000Y-66058000D02*
X83528000Y-66658000D01*
X83528000Y-66658000D02*
X85128000Y-66658000D01*
X84078000Y-70548000D02*
X84328000Y-71078000D01*
X84078000Y-72078000D02*
X84078000Y-71078000D01*
X84328000Y-71078000D02*
X84328000Y-72078000D01*
X85128000Y-66658000D02*
X85128000Y-66058000D01*
X85708000Y-66058000D02*
X80408000Y-66058000D01*
X85708000Y-72078000D02*
X85708000Y-66058000D01*
D10*
%TO.C,U7*%
X73888000Y-82412000D02*
X74038000Y-82412000D01*
X73888000Y-84212000D02*
X73888000Y-82412000D01*
X73888000Y-84212000D02*
X74038000Y-84212000D01*
X74938000Y-82412000D02*
X74988000Y-82412000D01*
X74938000Y-84212000D02*
X75938000Y-84212000D01*
X75888000Y-82412000D02*
X75938000Y-82412000D01*
X76838000Y-82412000D02*
X76988000Y-82412000D01*
X76838000Y-84212000D02*
X76988000Y-84212000D01*
X76988000Y-84212000D02*
X76988000Y-82412000D01*
X76968000Y-82092000D02*
G75*
G02*
X76908000Y-82092000I-30000J0D01*
G01*
X76908000Y-82092000D02*
G75*
G02*
X76968000Y-82092000I30000J0D01*
G01*
%TO.C,U8*%
X79080000Y-87416000D02*
X79080000Y-87566000D01*
X79080000Y-87416000D02*
X80880000Y-87416000D01*
X79080000Y-88466000D02*
X79080000Y-89466000D01*
X79080000Y-90366000D02*
X79080000Y-90516000D01*
X79080000Y-90516000D02*
X80880000Y-90516000D01*
X80880000Y-87416000D02*
X80880000Y-87566000D01*
X80880000Y-88466000D02*
X80880000Y-88516000D01*
X80880000Y-89416000D02*
X80880000Y-89466000D01*
X80880000Y-90366000D02*
X80880000Y-90516000D01*
X81230000Y-90466000D02*
G75*
G02*
X81170000Y-90466000I-30000J0D01*
G01*
X81170000Y-90466000D02*
G75*
G02*
X81230000Y-90466000I30000J0D01*
G01*
%TO.C,U6*%
X89740000Y-75140000D02*
X92390000Y-75140000D01*
X89740000Y-79800000D02*
X92390000Y-79800000D01*
X92390000Y-75140000D02*
X92390000Y-76290000D01*
X92390000Y-79800000D02*
X92390000Y-78650000D01*
X89470000Y-75470000D02*
G75*
G02*
X89410000Y-75470000I-30000J0D01*
G01*
X89410000Y-75470000D02*
G75*
G02*
X89470000Y-75470000I30000J0D01*
G01*
%TO.C,U5*%
X74762000Y-67114000D02*
X74762000Y-66964000D01*
X74762000Y-68064000D02*
X74762000Y-68014000D01*
X74762000Y-69014000D02*
X74762000Y-68964000D01*
X74762000Y-70064000D02*
X74762000Y-69914000D01*
X76562000Y-66964000D02*
X74762000Y-66964000D01*
X76562000Y-67114000D02*
X76562000Y-66964000D01*
X76562000Y-69014000D02*
X76562000Y-68014000D01*
X76562000Y-70064000D02*
X74762000Y-70064000D01*
X76562000Y-70064000D02*
X76562000Y-69914000D01*
X74472000Y-67014000D02*
G75*
G02*
X74412000Y-67014000I-30000J0D01*
G01*
X74412000Y-67014000D02*
G75*
G02*
X74472000Y-67014000I30000J0D01*
G01*
%TD*%
%LPC*%
D12*
%TO.C,C2*%
X82362000Y-75184000D03*
X84262000Y-75184000D03*
%TD*%
D13*
%TO.C,R9*%
X67818000Y-86262000D03*
X69638000Y-86262000D03*
%TD*%
D12*
%TO.C,C3*%
X82362000Y-79248000D03*
X84262000Y-79248000D03*
%TD*%
D14*
%TO.C,U1*%
X76642000Y-75824500D03*
X75692000Y-75824500D03*
X74742000Y-75824500D03*
X74742000Y-78099500D03*
X76642000Y-78099500D03*
%TD*%
D13*
%TO.C,R8*%
X67670000Y-82550000D03*
X69490000Y-82550000D03*
%TD*%
D15*
%TO.C,J2*%
X89408000Y-69088000D03*
D16*
X91948000Y-69088000D03*
%TD*%
D13*
%TO.C,R10*%
X69194000Y-90424000D03*
X71014000Y-90424000D03*
%TD*%
%TO.C,R6*%
X67818000Y-75438000D03*
X69638000Y-75438000D03*
%TD*%
D17*
%TO.C,U4*%
X85642000Y-85090000D03*
X85642000Y-87630000D03*
X91142000Y-87630000D03*
X91142000Y-85090000D03*
%TD*%
D15*
%TO.C,J1*%
X81788000Y-69088000D03*
D16*
X84328000Y-69088000D03*
%TD*%
D18*
%TO.C,U7*%
X76388000Y-82012000D03*
X75438000Y-82012000D03*
X74488000Y-82012000D03*
X74488000Y-84612000D03*
X76388000Y-84612000D03*
%TD*%
D19*
%TO.C,U8*%
X81280000Y-89916000D03*
X81280000Y-88966000D03*
X81280000Y-88016000D03*
X78680000Y-88016000D03*
X78680000Y-89916000D03*
%TD*%
D20*
%TO.C,U6*%
X89080000Y-75970000D03*
D21*
X91800000Y-77470000D03*
D22*
X91440000Y-77470000D03*
X90440000Y-77470000D03*
D20*
X89080000Y-77470000D03*
X89080000Y-78970000D03*
%TD*%
D13*
%TO.C,R4*%
X67818000Y-70866000D03*
X69638000Y-70866000D03*
%TD*%
%TO.C,R3*%
X67657000Y-66886000D03*
X69477000Y-66886000D03*
%TD*%
%TO.C,R7*%
X67818000Y-79248000D03*
X69638000Y-79248000D03*
%TD*%
D23*
%TO.C,U5*%
X74362000Y-67564000D03*
X74362000Y-68514000D03*
X74362000Y-69464000D03*
X76962000Y-69464000D03*
X76962000Y-67564000D03*
%TD*%
%LPD*%
M02*
