M48
; DRILL file {KiCad 9.0.2} date 2025-09-01T16:12:15+0200
; FORMAT={-:-/ absolute / inch / decimal}
; #@! TF.CreationDate,2025-09-01T16:12:15+02:00
; #@! TF.GenerationSoftware,Kicad,Pcbnew,9.0.2
; #@! TF.FileFunction,Plated,1,2,PTH
FMAT,2
INCH
; #@! TA.AperFunction,Plated,PTH,ComponentDrill
T1C0.0315
; #@! TA.AperFunction,Plated,PTH,ComponentDrill
T2C0.0370
; #@! TA.AperFunction,Plated,PTH,ComponentDrill
T3C0.0402
; #@! TA.AperFunction,Plated,PTH,ComponentDrill
T4C0.0551
; #@! TA.AperFunction,Plated,PTH,ComponentDrill
T5C0.0917
%
G90
G05
T1
X7.3504Y-2.8103
X7.3504Y-2.889
T2
X6.7943Y-2.8103
X6.8943Y-2.8103
X6.9943Y-2.8103
T3
X6.0939Y-2.9045
X6.1732Y-3.4055
X6.1732Y-3.5055
X6.1732Y-4.4567
X6.1732Y-4.5567
X6.1939Y-2.9045
X6.2939Y-2.9045
X6.3939Y-2.9045
X7.6909Y-2.8103
X7.6909Y-2.9103
X7.6909Y-3.4094
X7.6909Y-3.5094
X7.6969Y-3.9358
X7.6969Y-4.0358
T4
X7.1162Y-3.2323
X7.1162Y-3.8586
X7.3524Y-3.2323
X7.3524Y-3.8586
T5
X7.0099Y-3.4094
X7.0099Y-4.0358
X7.4311Y-3.4094
X7.4311Y-4.0358
M30
