%TF.GenerationSoftware,KiCad,Pcbnew,8.0.2*%
%TF.CreationDate,2024-07-09T10:43:52+02:00*%
%TF.ProjectId,Indicator_voltage,496e6469-6361-4746-9f72-5f766f6c7461,rev?*%
%TF.SameCoordinates,Original*%
%TF.FileFunction,Copper,L2,Bot*%
%TF.FilePolarity,Positive*%
%FSLAX46Y46*%
G04 Gerber Fmt 4.6, Leading zero omitted, Abs format (unit mm)*
G04 Created by KiCad (PCBNEW 8.0.2) date 2024-07-09 10:43:52*
%MOMM*%
%LPD*%
G01*
G04 APERTURE LIST*
%TA.AperFunction,ComponentPad*%
%ADD10C,5.600000*%
%TD*%
%TA.AperFunction,ComponentPad*%
%ADD11C,2.775000*%
%TD*%
%TA.AperFunction,ComponentPad*%
%ADD12R,1.530000X1.530000*%
%TD*%
%TA.AperFunction,ComponentPad*%
%ADD13C,1.530000*%
%TD*%
%TA.AperFunction,ComponentPad*%
%ADD14C,1.440000*%
%TD*%
%TA.AperFunction,ComponentPad*%
%ADD15C,1.515000*%
%TD*%
%TA.AperFunction,ViaPad*%
%ADD16C,0.800000*%
%TD*%
%TA.AperFunction,Conductor*%
%ADD17C,0.600000*%
%TD*%
G04 APERTURE END LIST*
D10*
%TO.P,,1*%
%TO.N,N/C*%
X118000000Y-103000000D03*
%TD*%
D11*
%TO.P,J1,1,1*%
%TO.N,Net-(F1-Pad1)*%
X108500000Y-75000000D03*
%TO.P,J1,2,2*%
%TO.N,0*%
X108500000Y-80700000D03*
%TD*%
D12*
%TO.P,J7,1,1*%
%TO.N,+12V*%
X94100000Y-104500000D03*
D13*
%TO.P,J7,2,2*%
%TO.N,LED-*%
X91560000Y-104500000D03*
%TD*%
D14*
%TO.P,U1,1,+VIN*%
%TO.N,+12V*%
X95078500Y-93976000D03*
%TO.P,U1,2,GND*%
%TO.N,0*%
X92538500Y-93976000D03*
%TO.P,U1,3,+VOUT*%
%TO.N,+5V*%
X89998500Y-93976000D03*
%TD*%
D10*
%TO.P,,1*%
%TO.N,N/C*%
X42000000Y-52000000D03*
%TD*%
%TO.P,,1*%
%TO.N,N/C*%
X42000000Y-103000000D03*
%TD*%
D15*
%TO.P,F1,1,1*%
%TO.N,Net-(F1-Pad1)*%
X110000000Y-50500000D03*
%TO.P,F1,2,2*%
%TO.N,HV+*%
X50160000Y-50500000D03*
%TD*%
D10*
%TO.P,,1*%
%TO.N,N/C*%
X118000000Y-52000000D03*
%TD*%
D16*
%TO.N,Net-(IC1-EN{slash}UVLO)*%
X68800000Y-72800000D03*
X62800000Y-83800000D03*
%TO.N,+5V*%
X79400000Y-99000000D03*
X58800000Y-103800000D03*
%TD*%
D17*
%TO.N,Net-(IC1-EN{slash}UVLO)*%
X68800000Y-80800000D02*
X65800000Y-83800000D01*
X65800000Y-83800000D02*
X62800000Y-83800000D01*
X68800000Y-72800000D02*
X68800000Y-80800000D01*
%TO.N,+5V*%
X58800000Y-103800000D02*
X58800000Y-100300000D01*
X60600000Y-98500000D02*
X70600000Y-98500000D01*
X58800000Y-100300000D02*
X60600000Y-98500000D01*
X70600000Y-98500000D02*
X71100000Y-99000000D01*
X71100000Y-99000000D02*
X79400000Y-99000000D01*
%TD*%
%TA.AperFunction,Conductor*%
%TO.N,0*%
G36*
X41817695Y-55300431D02*
G01*
X41817702Y-55300318D01*
X41821047Y-55300499D01*
X41821052Y-55300500D01*
X41821057Y-55300500D01*
X42178943Y-55300500D01*
X42178948Y-55300500D01*
X42178952Y-55300499D01*
X42182298Y-55300318D01*
X42182304Y-55300431D01*
X42190267Y-55300000D01*
X117809733Y-55300000D01*
X117817695Y-55300431D01*
X117817702Y-55300318D01*
X117821047Y-55300499D01*
X117821052Y-55300500D01*
X117821057Y-55300500D01*
X118178943Y-55300500D01*
X118178948Y-55300500D01*
X118178952Y-55300499D01*
X118182298Y-55300318D01*
X118182304Y-55300431D01*
X118190267Y-55300000D01*
X123876000Y-55300000D01*
X123943039Y-55319685D01*
X123988794Y-55372489D01*
X124000000Y-55424000D01*
X124000000Y-108876000D01*
X123980315Y-108943039D01*
X123927511Y-108988794D01*
X123876000Y-109000000D01*
X36124000Y-109000000D01*
X36056961Y-108980315D01*
X36011206Y-108927511D01*
X36000000Y-108876000D01*
X36000000Y-103000000D01*
X38694652Y-103000000D01*
X38710440Y-103291202D01*
X38714028Y-103357368D01*
X38714029Y-103357385D01*
X38771926Y-103710539D01*
X38771932Y-103710565D01*
X38867672Y-104055392D01*
X38867674Y-104055399D01*
X39000142Y-104387870D01*
X39000151Y-104387888D01*
X39167784Y-104704077D01*
X39167787Y-104704082D01*
X39167789Y-104704085D01*
X39178980Y-104720591D01*
X39368634Y-105000309D01*
X39368641Y-105000319D01*
X39600331Y-105273085D01*
X39600332Y-105273086D01*
X39860163Y-105519211D01*
X40145081Y-105735800D01*
X40451747Y-105920315D01*
X40451749Y-105920316D01*
X40451751Y-105920317D01*
X40451755Y-105920319D01*
X40776552Y-106070585D01*
X40776565Y-106070591D01*
X41115726Y-106184868D01*
X41465254Y-106261805D01*
X41821052Y-106300500D01*
X41821058Y-106300500D01*
X42178942Y-106300500D01*
X42178948Y-106300500D01*
X42534746Y-106261805D01*
X42884274Y-106184868D01*
X43223435Y-106070591D01*
X43548253Y-105920315D01*
X43854919Y-105735800D01*
X44139837Y-105519211D01*
X44399668Y-105273086D01*
X44631365Y-105000311D01*
X44832211Y-104704085D01*
X44999853Y-104387880D01*
X45132324Y-104055403D01*
X45203236Y-103800000D01*
X57894540Y-103800000D01*
X57914326Y-103988256D01*
X57914327Y-103988259D01*
X57972818Y-104168277D01*
X57972821Y-104168284D01*
X58067467Y-104332216D01*
X58194129Y-104472888D01*
X58347265Y-104584148D01*
X58347270Y-104584151D01*
X58520192Y-104661142D01*
X58520197Y-104661144D01*
X58705354Y-104700500D01*
X58705355Y-104700500D01*
X58894644Y-104700500D01*
X58894646Y-104700500D01*
X59079803Y-104661144D01*
X59252730Y-104584151D01*
X59368557Y-104499998D01*
X90289666Y-104499998D01*
X90289666Y-104500001D01*
X90308964Y-104720585D01*
X90308965Y-104720592D01*
X90366275Y-104934475D01*
X90366279Y-104934486D01*
X90459856Y-105135163D01*
X90459858Y-105135167D01*
X90586868Y-105316555D01*
X90743445Y-105473132D01*
X90924833Y-105600142D01*
X91045572Y-105656443D01*
X91125513Y-105693720D01*
X91125515Y-105693720D01*
X91125520Y-105693723D01*
X91339409Y-105751035D01*
X91496974Y-105764820D01*
X91559998Y-105770334D01*
X91560000Y-105770334D01*
X91560002Y-105770334D01*
X91615276Y-105765498D01*
X91780591Y-105751035D01*
X91994480Y-105693723D01*
X92195167Y-105600142D01*
X92376555Y-105473132D01*
X92533132Y-105316555D01*
X92608928Y-105208307D01*
X92663501Y-105164685D01*
X92733000Y-105157491D01*
X92795355Y-105189013D01*
X92830769Y-105249243D01*
X92834500Y-105279430D01*
X92834500Y-105312868D01*
X92834501Y-105312876D01*
X92840908Y-105372483D01*
X92891202Y-105507328D01*
X92891206Y-105507335D01*
X92977452Y-105622544D01*
X92977455Y-105622547D01*
X93092664Y-105708793D01*
X93092671Y-105708797D01*
X93227517Y-105759091D01*
X93227516Y-105759091D01*
X93234444Y-105759835D01*
X93287127Y-105765500D01*
X94912872Y-105765499D01*
X94972483Y-105759091D01*
X95107331Y-105708796D01*
X95222546Y-105622546D01*
X95308796Y-105507331D01*
X95359091Y-105372483D01*
X95365500Y-105312873D01*
X95365499Y-103687128D01*
X95359091Y-103627517D01*
X95321551Y-103526868D01*
X95308797Y-103492671D01*
X95308793Y-103492664D01*
X95222547Y-103377455D01*
X95222544Y-103377452D01*
X95107335Y-103291206D01*
X95107328Y-103291202D01*
X94972482Y-103240908D01*
X94972483Y-103240908D01*
X94912883Y-103234501D01*
X94912881Y-103234500D01*
X94912873Y-103234500D01*
X94912864Y-103234500D01*
X93287129Y-103234500D01*
X93287123Y-103234501D01*
X93227516Y-103240908D01*
X93092671Y-103291202D01*
X93092664Y-103291206D01*
X92977455Y-103377452D01*
X92977452Y-103377455D01*
X92891206Y-103492664D01*
X92891202Y-103492671D01*
X92840908Y-103627517D01*
X92834896Y-103683441D01*
X92834501Y-103687123D01*
X92834500Y-103687135D01*
X92834500Y-103720564D01*
X92814815Y-103787603D01*
X92762011Y-103833358D01*
X92692853Y-103843302D01*
X92629297Y-103814277D01*
X92608926Y-103791688D01*
X92533137Y-103683452D01*
X92533136Y-103683451D01*
X92533132Y-103683445D01*
X92376555Y-103526868D01*
X92195167Y-103399858D01*
X92164389Y-103385506D01*
X91994486Y-103306279D01*
X91994475Y-103306275D01*
X91780592Y-103248965D01*
X91780585Y-103248964D01*
X91560002Y-103229666D01*
X91559998Y-103229666D01*
X91339414Y-103248964D01*
X91339407Y-103248965D01*
X91125524Y-103306275D01*
X91125513Y-103306279D01*
X90924836Y-103399856D01*
X90924834Y-103399857D01*
X90743444Y-103526868D01*
X90586868Y-103683444D01*
X90459857Y-103864834D01*
X90459856Y-103864836D01*
X90366279Y-104065513D01*
X90366275Y-104065524D01*
X90308965Y-104279407D01*
X90308964Y-104279414D01*
X90289666Y-104499998D01*
X59368557Y-104499998D01*
X59405871Y-104472888D01*
X59532533Y-104332216D01*
X59627179Y-104168284D01*
X59685674Y-103988256D01*
X59705460Y-103800000D01*
X59685674Y-103611744D01*
X59627179Y-103431716D01*
X59627178Y-103431715D01*
X59627178Y-103431713D01*
X59617112Y-103414277D01*
X59600500Y-103352279D01*
X59600500Y-103000000D01*
X114694652Y-103000000D01*
X114710440Y-103291202D01*
X114714028Y-103357368D01*
X114714029Y-103357385D01*
X114771926Y-103710539D01*
X114771932Y-103710565D01*
X114867672Y-104055392D01*
X114867674Y-104055399D01*
X115000142Y-104387870D01*
X115000151Y-104387888D01*
X115167784Y-104704077D01*
X115167787Y-104704082D01*
X115167789Y-104704085D01*
X115178980Y-104720591D01*
X115368634Y-105000309D01*
X115368641Y-105000319D01*
X115600331Y-105273085D01*
X115600332Y-105273086D01*
X115860163Y-105519211D01*
X116145081Y-105735800D01*
X116451747Y-105920315D01*
X116451749Y-105920316D01*
X116451751Y-105920317D01*
X116451755Y-105920319D01*
X116776552Y-106070585D01*
X116776565Y-106070591D01*
X117115726Y-106184868D01*
X117465254Y-106261805D01*
X117821052Y-106300500D01*
X117821058Y-106300500D01*
X118178942Y-106300500D01*
X118178948Y-106300500D01*
X118534746Y-106261805D01*
X118884274Y-106184868D01*
X119223435Y-106070591D01*
X119548253Y-105920315D01*
X119854919Y-105735800D01*
X120139837Y-105519211D01*
X120399668Y-105273086D01*
X120631365Y-105000311D01*
X120832211Y-104704085D01*
X120999853Y-104387880D01*
X121132324Y-104055403D01*
X121228071Y-103710552D01*
X121245891Y-103601848D01*
X121285970Y-103357385D01*
X121285970Y-103357382D01*
X121285972Y-103357371D01*
X121305348Y-103000000D01*
X121285972Y-102642629D01*
X121228071Y-102289448D01*
X121132324Y-101944597D01*
X120999853Y-101612120D01*
X120832211Y-101295915D01*
X120631365Y-100999689D01*
X120631361Y-100999684D01*
X120631358Y-100999680D01*
X120399668Y-100726914D01*
X120282473Y-100615901D01*
X120139837Y-100480789D01*
X120139830Y-100480783D01*
X120139827Y-100480781D01*
X120072245Y-100429407D01*
X119854919Y-100264200D01*
X119548253Y-100079685D01*
X119548252Y-100079684D01*
X119548248Y-100079682D01*
X119548244Y-100079680D01*
X119223447Y-99929414D01*
X119223441Y-99929411D01*
X119223435Y-99929409D01*
X119053854Y-99872270D01*
X118884273Y-99815131D01*
X118534744Y-99738194D01*
X118178949Y-99699500D01*
X118178948Y-99699500D01*
X117821052Y-99699500D01*
X117821050Y-99699500D01*
X117465255Y-99738194D01*
X117115726Y-99815131D01*
X116862364Y-99900500D01*
X116776565Y-99929409D01*
X116776563Y-99929410D01*
X116776552Y-99929414D01*
X116451755Y-100079680D01*
X116451751Y-100079682D01*
X116223367Y-100217096D01*
X116145081Y-100264200D01*
X116056768Y-100331333D01*
X115860172Y-100480781D01*
X115860163Y-100480789D01*
X115600331Y-100726914D01*
X115368641Y-100999680D01*
X115368634Y-100999690D01*
X115167790Y-101295913D01*
X115167784Y-101295922D01*
X115000151Y-101612111D01*
X115000142Y-101612129D01*
X114867674Y-101944600D01*
X114867672Y-101944607D01*
X114771932Y-102289434D01*
X114771926Y-102289460D01*
X114714029Y-102642614D01*
X114714028Y-102642627D01*
X114714028Y-102642629D01*
X114694652Y-103000000D01*
X59600500Y-103000000D01*
X59600500Y-100682940D01*
X59620185Y-100615901D01*
X59636819Y-100595259D01*
X60895259Y-99336819D01*
X60956582Y-99303334D01*
X60982940Y-99300500D01*
X70217060Y-99300500D01*
X70284099Y-99320185D01*
X70304741Y-99336819D01*
X70589707Y-99621786D01*
X70589711Y-99621789D01*
X70720814Y-99709390D01*
X70720818Y-99709392D01*
X70720821Y-99709394D01*
X70866503Y-99769738D01*
X70966917Y-99789711D01*
X71021153Y-99800499D01*
X71021157Y-99800500D01*
X71021158Y-99800500D01*
X78957633Y-99800500D01*
X79008069Y-99811221D01*
X79120192Y-99861142D01*
X79120197Y-99861144D01*
X79305354Y-99900500D01*
X79305355Y-99900500D01*
X79494644Y-99900500D01*
X79494646Y-99900500D01*
X79679803Y-99861144D01*
X79852730Y-99784151D01*
X80005871Y-99672888D01*
X80132533Y-99532216D01*
X80227179Y-99368284D01*
X80285674Y-99188256D01*
X80305460Y-99000000D01*
X80285674Y-98811744D01*
X80227179Y-98631716D01*
X80132533Y-98467784D01*
X80005871Y-98327112D01*
X80005870Y-98327111D01*
X79852734Y-98215851D01*
X79852729Y-98215848D01*
X79679807Y-98138857D01*
X79679802Y-98138855D01*
X79534001Y-98107865D01*
X79494646Y-98099500D01*
X79305354Y-98099500D01*
X79272897Y-98106398D01*
X79120197Y-98138855D01*
X79120192Y-98138857D01*
X79008069Y-98188779D01*
X78957633Y-98199500D01*
X71482940Y-98199500D01*
X71415901Y-98179815D01*
X71395259Y-98163181D01*
X71110291Y-97878212D01*
X71110288Y-97878210D01*
X70979185Y-97790609D01*
X70979172Y-97790602D01*
X70833501Y-97730264D01*
X70833489Y-97730261D01*
X70678845Y-97699500D01*
X70678842Y-97699500D01*
X60678842Y-97699500D01*
X60521157Y-97699500D01*
X60521154Y-97699500D01*
X60366509Y-97730261D01*
X60366497Y-97730264D01*
X60323832Y-97747936D01*
X60323833Y-97747937D01*
X60220823Y-97790604D01*
X60220814Y-97790609D01*
X60089712Y-97878209D01*
X60089711Y-97878211D01*
X60089710Y-97878212D01*
X58289711Y-99678211D01*
X58258532Y-99709390D01*
X58178209Y-99789712D01*
X58090609Y-99920814D01*
X58090602Y-99920827D01*
X58030264Y-100066498D01*
X58030261Y-100066510D01*
X57999500Y-100221153D01*
X57999500Y-103352279D01*
X57982888Y-103414277D01*
X57972821Y-103431713D01*
X57914327Y-103611740D01*
X57914326Y-103611744D01*
X57894540Y-103800000D01*
X45203236Y-103800000D01*
X45228071Y-103710552D01*
X45245891Y-103601848D01*
X45285970Y-103357385D01*
X45285970Y-103357382D01*
X45285972Y-103357371D01*
X45305348Y-103000000D01*
X45285972Y-102642629D01*
X45228071Y-102289448D01*
X45132324Y-101944597D01*
X44999853Y-101612120D01*
X44832211Y-101295915D01*
X44631365Y-100999689D01*
X44631361Y-100999684D01*
X44631358Y-100999680D01*
X44399668Y-100726914D01*
X44282473Y-100615901D01*
X44139837Y-100480789D01*
X44139830Y-100480783D01*
X44139827Y-100480781D01*
X44072245Y-100429407D01*
X43854919Y-100264200D01*
X43548253Y-100079685D01*
X43548252Y-100079684D01*
X43548248Y-100079682D01*
X43548244Y-100079680D01*
X43223447Y-99929414D01*
X43223441Y-99929411D01*
X43223435Y-99929409D01*
X43053854Y-99872270D01*
X42884273Y-99815131D01*
X42534744Y-99738194D01*
X42178949Y-99699500D01*
X42178948Y-99699500D01*
X41821052Y-99699500D01*
X41821050Y-99699500D01*
X41465255Y-99738194D01*
X41115726Y-99815131D01*
X40862364Y-99900500D01*
X40776565Y-99929409D01*
X40776563Y-99929410D01*
X40776552Y-99929414D01*
X40451755Y-100079680D01*
X40451751Y-100079682D01*
X40223367Y-100217096D01*
X40145081Y-100264200D01*
X40056768Y-100331333D01*
X39860172Y-100480781D01*
X39860163Y-100480789D01*
X39600331Y-100726914D01*
X39368641Y-100999680D01*
X39368634Y-100999690D01*
X39167790Y-101295913D01*
X39167784Y-101295922D01*
X39000151Y-101612111D01*
X39000142Y-101612129D01*
X38867674Y-101944600D01*
X38867672Y-101944607D01*
X38771932Y-102289434D01*
X38771926Y-102289460D01*
X38714029Y-102642614D01*
X38714028Y-102642627D01*
X38714028Y-102642629D01*
X38694652Y-103000000D01*
X36000000Y-103000000D01*
X36000000Y-93975998D01*
X88773338Y-93975998D01*
X88773338Y-93976001D01*
X88791950Y-94188741D01*
X88791952Y-94188752D01*
X88847221Y-94395022D01*
X88847223Y-94395026D01*
X88847224Y-94395030D01*
X88870992Y-94446000D01*
X88937477Y-94588578D01*
X89059972Y-94763521D01*
X89210978Y-94914527D01*
X89210981Y-94914529D01*
X89385919Y-95037021D01*
X89385921Y-95037022D01*
X89385920Y-95037022D01*
X89450436Y-95067106D01*
X89579470Y-95127276D01*
X89785753Y-95182549D01*
X89937715Y-95195844D01*
X89998498Y-95201162D01*
X89998500Y-95201162D01*
X89998502Y-95201162D01*
X90051686Y-95196508D01*
X90211247Y-95182549D01*
X90417530Y-95127276D01*
X90611081Y-95037021D01*
X90786019Y-94914529D01*
X90937029Y-94763519D01*
X91059521Y-94588581D01*
X91149776Y-94395030D01*
X91149780Y-94395013D01*
X91151630Y-94389936D01*
X91153481Y-94390609D01*
X91185347Y-94338328D01*
X91248194Y-94307797D01*
X91317569Y-94316091D01*
X91371448Y-94360575D01*
X91384930Y-94390095D01*
X91385842Y-94389764D01*
X91387697Y-94394859D01*
X91477913Y-94588329D01*
X91516915Y-94644030D01*
X92080031Y-94080914D01*
X92100529Y-94157413D01*
X92162406Y-94264587D01*
X92249913Y-94352094D01*
X92357087Y-94413971D01*
X92433584Y-94434468D01*
X91870468Y-94997584D01*
X91926163Y-95036582D01*
X91926169Y-95036586D01*
X92119640Y-95126802D01*
X92119646Y-95126805D01*
X92325837Y-95182054D01*
X92325845Y-95182055D01*
X92538498Y-95200660D01*
X92538502Y-95200660D01*
X92751154Y-95182055D01*
X92751162Y-95182054D01*
X92957353Y-95126805D01*
X92957364Y-95126801D01*
X93150825Y-95036589D01*
X93206530Y-94997583D01*
X92643415Y-94434467D01*
X92719913Y-94413971D01*
X92827087Y-94352094D01*
X92914594Y-94264587D01*
X92976471Y-94157413D01*
X92996968Y-94080915D01*
X93560083Y-94644029D01*
X93599089Y-94588325D01*
X93689301Y-94394864D01*
X93691158Y-94389764D01*
X93693067Y-94390458D01*
X93724791Y-94338362D01*
X93787625Y-94307806D01*
X93857004Y-94316071D01*
X93910901Y-94360533D01*
X93924489Y-94390256D01*
X93925370Y-94389936D01*
X93927222Y-94395022D01*
X93927224Y-94395030D01*
X93950992Y-94446000D01*
X94017477Y-94588578D01*
X94139972Y-94763521D01*
X94290978Y-94914527D01*
X94290981Y-94914529D01*
X94465919Y-95037021D01*
X94465921Y-95037022D01*
X94465920Y-95037022D01*
X94530436Y-95067106D01*
X94659470Y-95127276D01*
X94865753Y-95182549D01*
X95017715Y-95195844D01*
X95078498Y-95201162D01*
X95078500Y-95201162D01*
X95078502Y-95201162D01*
X95131686Y-95196508D01*
X95291247Y-95182549D01*
X95497530Y-95127276D01*
X95691081Y-95037021D01*
X95866019Y-94914529D01*
X96017029Y-94763519D01*
X96139521Y-94588581D01*
X96229776Y-94395030D01*
X96285049Y-94188747D01*
X96303662Y-93976000D01*
X96285049Y-93763253D01*
X96231002Y-93561545D01*
X96229778Y-93556977D01*
X96229777Y-93556976D01*
X96229776Y-93556970D01*
X96139521Y-93363419D01*
X96017029Y-93188481D01*
X96017027Y-93188478D01*
X95866021Y-93037472D01*
X95691078Y-92914977D01*
X95691079Y-92914977D01*
X95562047Y-92854809D01*
X95497530Y-92824724D01*
X95497526Y-92824723D01*
X95497522Y-92824721D01*
X95291252Y-92769452D01*
X95291248Y-92769451D01*
X95291247Y-92769451D01*
X95291246Y-92769450D01*
X95291241Y-92769450D01*
X95078502Y-92750838D01*
X95078498Y-92750838D01*
X94865758Y-92769450D01*
X94865747Y-92769452D01*
X94659477Y-92824721D01*
X94659468Y-92824725D01*
X94465921Y-92914977D01*
X94290978Y-93037472D01*
X94139972Y-93188478D01*
X94017477Y-93363421D01*
X93927225Y-93556968D01*
X93925370Y-93562064D01*
X93923531Y-93561394D01*
X93891604Y-93613715D01*
X93828742Y-93644212D01*
X93759370Y-93635883D01*
X93705515Y-93591371D01*
X93692071Y-93561903D01*
X93691158Y-93562236D01*
X93689302Y-93557140D01*
X93599086Y-93363669D01*
X93599082Y-93363663D01*
X93560084Y-93307968D01*
X92996968Y-93871084D01*
X92976471Y-93794587D01*
X92914594Y-93687413D01*
X92827087Y-93599906D01*
X92719913Y-93538029D01*
X92643414Y-93517531D01*
X93206530Y-92954415D01*
X93150829Y-92915413D01*
X92957359Y-92825197D01*
X92957353Y-92825194D01*
X92751162Y-92769945D01*
X92751154Y-92769944D01*
X92538502Y-92751340D01*
X92538498Y-92751340D01*
X92325845Y-92769944D01*
X92325837Y-92769945D01*
X92119646Y-92825194D01*
X92119640Y-92825197D01*
X91926171Y-92915412D01*
X91926169Y-92915413D01*
X91870469Y-92954415D01*
X91870468Y-92954415D01*
X92433585Y-93517531D01*
X92357087Y-93538029D01*
X92249913Y-93599906D01*
X92162406Y-93687413D01*
X92100529Y-93794587D01*
X92080031Y-93871084D01*
X91516915Y-93307968D01*
X91516915Y-93307969D01*
X91477913Y-93363669D01*
X91477912Y-93363671D01*
X91387697Y-93557140D01*
X91385842Y-93562236D01*
X91383945Y-93561545D01*
X91352156Y-93613684D01*
X91289305Y-93644205D01*
X91219931Y-93635901D01*
X91166059Y-93591408D01*
X91152512Y-93561742D01*
X91151630Y-93562064D01*
X91149779Y-93556983D01*
X91149776Y-93556970D01*
X91059521Y-93363419D01*
X90937029Y-93188481D01*
X90937027Y-93188478D01*
X90786021Y-93037472D01*
X90611078Y-92914977D01*
X90611079Y-92914977D01*
X90482047Y-92854809D01*
X90417530Y-92824724D01*
X90417526Y-92824723D01*
X90417522Y-92824721D01*
X90211252Y-92769452D01*
X90211248Y-92769451D01*
X90211247Y-92769451D01*
X90211246Y-92769450D01*
X90211241Y-92769450D01*
X89998502Y-92750838D01*
X89998498Y-92750838D01*
X89785758Y-92769450D01*
X89785747Y-92769452D01*
X89579477Y-92824721D01*
X89579468Y-92824725D01*
X89385921Y-92914977D01*
X89210978Y-93037472D01*
X89059972Y-93188478D01*
X88937477Y-93363421D01*
X88847225Y-93556968D01*
X88847221Y-93556977D01*
X88791952Y-93763247D01*
X88791950Y-93763258D01*
X88773338Y-93975998D01*
X36000000Y-93975998D01*
X36000000Y-83800000D01*
X61894540Y-83800000D01*
X61914326Y-83988256D01*
X61914327Y-83988259D01*
X61972818Y-84168277D01*
X61972821Y-84168284D01*
X62067467Y-84332216D01*
X62148119Y-84421789D01*
X62194129Y-84472888D01*
X62347265Y-84584148D01*
X62347270Y-84584151D01*
X62520192Y-84661142D01*
X62520197Y-84661144D01*
X62705354Y-84700500D01*
X62705355Y-84700500D01*
X62894644Y-84700500D01*
X62894646Y-84700500D01*
X63079803Y-84661144D01*
X63191931Y-84611221D01*
X63242367Y-84600500D01*
X65878844Y-84600500D01*
X65878845Y-84600499D01*
X66033497Y-84569737D01*
X66179179Y-84509394D01*
X66310289Y-84421789D01*
X69421789Y-81310289D01*
X69509394Y-81179179D01*
X69569738Y-81033497D01*
X69600500Y-80878842D01*
X69600500Y-80721157D01*
X69600500Y-74999998D01*
X106607177Y-74999998D01*
X106607177Y-75000001D01*
X106626443Y-75269382D01*
X106683848Y-75533263D01*
X106683850Y-75533270D01*
X106742448Y-75690377D01*
X106778228Y-75786308D01*
X106778230Y-75786312D01*
X106907652Y-76023331D01*
X106907657Y-76023339D01*
X107069493Y-76239527D01*
X107069509Y-76239545D01*
X107260454Y-76430490D01*
X107260472Y-76430506D01*
X107476660Y-76592342D01*
X107476668Y-76592347D01*
X107713687Y-76721769D01*
X107713691Y-76721771D01*
X107713693Y-76721772D01*
X107966730Y-76816150D01*
X108066713Y-76837900D01*
X108173919Y-76861222D01*
X108235242Y-76894707D01*
X108268727Y-76956030D01*
X108263743Y-77025722D01*
X108254949Y-77044386D01*
X108244188Y-77063025D01*
X108244179Y-77063042D01*
X108155120Y-77278052D01*
X108094878Y-77502877D01*
X108064501Y-77733617D01*
X108064500Y-77733634D01*
X108064500Y-77966365D01*
X108064501Y-77966382D01*
X108094878Y-78197122D01*
X108155120Y-78421947D01*
X108244179Y-78636957D01*
X108244188Y-78636976D01*
X108255210Y-78656065D01*
X108271684Y-78723965D01*
X108248832Y-78789992D01*
X108193912Y-78833183D01*
X108174183Y-78839232D01*
X107966875Y-78884330D01*
X107713899Y-78978684D01*
X107713895Y-78978686D01*
X107476939Y-79108074D01*
X107476931Y-79108079D01*
X107353803Y-79200250D01*
X108045051Y-79891498D01*
X107910347Y-79981505D01*
X107781505Y-80110347D01*
X107691498Y-80245050D01*
X107000250Y-79553803D01*
X106908079Y-79676931D01*
X106908074Y-79676939D01*
X106778686Y-79913895D01*
X106778684Y-79913899D01*
X106684329Y-80166876D01*
X106626940Y-80430689D01*
X106607679Y-80699998D01*
X106607679Y-80700001D01*
X106626940Y-80969310D01*
X106684329Y-81233123D01*
X106778684Y-81486100D01*
X106778686Y-81486104D01*
X106908074Y-81723060D01*
X106908079Y-81723068D01*
X107000250Y-81846195D01*
X107000251Y-81846195D01*
X107691498Y-81154948D01*
X107781505Y-81289653D01*
X107910347Y-81418495D01*
X108045050Y-81508501D01*
X107353803Y-82199747D01*
X107353804Y-82199748D01*
X107476931Y-82291920D01*
X107476939Y-82291925D01*
X107713895Y-82421313D01*
X107713899Y-82421315D01*
X107966876Y-82515670D01*
X108230689Y-82573059D01*
X108499999Y-82592321D01*
X108500001Y-82592321D01*
X108769310Y-82573059D01*
X109033123Y-82515670D01*
X109286100Y-82421315D01*
X109286104Y-82421313D01*
X109523060Y-82291925D01*
X109523061Y-82291924D01*
X109646195Y-82199747D01*
X108954948Y-81508501D01*
X109089653Y-81418495D01*
X109218495Y-81289653D01*
X109308501Y-81154949D01*
X109999747Y-81846195D01*
X110091924Y-81723061D01*
X110091925Y-81723060D01*
X110221313Y-81486104D01*
X110221315Y-81486100D01*
X110315670Y-81233123D01*
X110373059Y-80969310D01*
X110392321Y-80700001D01*
X110392321Y-80699998D01*
X110373059Y-80430689D01*
X110315670Y-80166876D01*
X110221315Y-79913899D01*
X110221313Y-79913895D01*
X110140669Y-79766208D01*
X110125817Y-79697936D01*
X110150233Y-79632471D01*
X110206167Y-79590599D01*
X110217390Y-79587011D01*
X110411940Y-79534882D01*
X110411945Y-79534880D01*
X110626960Y-79445819D01*
X110626963Y-79445817D01*
X110626969Y-79445815D01*
X110828532Y-79329442D01*
X111013181Y-79187756D01*
X111177756Y-79023181D01*
X111319442Y-78838532D01*
X111435815Y-78636969D01*
X111524882Y-78421940D01*
X111585121Y-78197126D01*
X111615500Y-77966372D01*
X111615500Y-77733628D01*
X111585121Y-77502874D01*
X111524882Y-77278060D01*
X111435820Y-77063042D01*
X111435819Y-77063039D01*
X111435811Y-77063023D01*
X111319446Y-76861475D01*
X111319442Y-76861468D01*
X111177756Y-76676819D01*
X111177751Y-76676813D01*
X111013186Y-76512248D01*
X111013179Y-76512242D01*
X110828540Y-76370564D01*
X110828538Y-76370562D01*
X110828532Y-76370558D01*
X110828527Y-76370555D01*
X110828524Y-76370553D01*
X110626976Y-76254188D01*
X110626960Y-76254180D01*
X110411947Y-76165120D01*
X110217905Y-76113126D01*
X110158245Y-76076761D01*
X110127716Y-76013913D01*
X110136011Y-75944538D01*
X110141167Y-75933924D01*
X110221769Y-75786312D01*
X110221771Y-75786308D01*
X110221772Y-75786307D01*
X110316150Y-75533270D01*
X110373557Y-75269377D01*
X110392823Y-75000000D01*
X110373557Y-74730623D01*
X110316150Y-74466730D01*
X110221772Y-74213693D01*
X110092344Y-73976663D01*
X110092342Y-73976660D01*
X109930506Y-73760472D01*
X109930490Y-73760454D01*
X109739545Y-73569509D01*
X109739527Y-73569493D01*
X109523339Y-73407657D01*
X109523331Y-73407652D01*
X109286312Y-73278230D01*
X109286308Y-73278228D01*
X109190377Y-73242448D01*
X109033270Y-73183850D01*
X109033266Y-73183849D01*
X109033263Y-73183848D01*
X108769382Y-73126443D01*
X108500001Y-73107177D01*
X108499999Y-73107177D01*
X108230617Y-73126443D01*
X107966736Y-73183848D01*
X107966731Y-73183849D01*
X107966730Y-73183850D01*
X107905551Y-73206668D01*
X107713691Y-73278228D01*
X107713687Y-73278230D01*
X107476668Y-73407652D01*
X107476660Y-73407657D01*
X107260472Y-73569493D01*
X107260454Y-73569509D01*
X107069509Y-73760454D01*
X107069493Y-73760472D01*
X106907657Y-73976660D01*
X106907652Y-73976668D01*
X106778230Y-74213687D01*
X106778228Y-74213691D01*
X106683848Y-74466736D01*
X106626443Y-74730617D01*
X106607177Y-74999998D01*
X69600500Y-74999998D01*
X69600500Y-73247718D01*
X69617112Y-73185720D01*
X69627179Y-73168284D01*
X69685674Y-72988256D01*
X69705460Y-72800000D01*
X69685674Y-72611744D01*
X69627179Y-72431716D01*
X69532533Y-72267784D01*
X69405871Y-72127112D01*
X69405870Y-72127111D01*
X69252734Y-72015851D01*
X69252729Y-72015848D01*
X69079807Y-71938857D01*
X69079802Y-71938855D01*
X68934001Y-71907865D01*
X68894646Y-71899500D01*
X68705354Y-71899500D01*
X68672897Y-71906398D01*
X68520197Y-71938855D01*
X68520192Y-71938857D01*
X68347270Y-72015848D01*
X68347265Y-72015851D01*
X68194129Y-72127111D01*
X68067466Y-72267785D01*
X67972821Y-72431715D01*
X67972818Y-72431722D01*
X67914327Y-72611740D01*
X67914326Y-72611744D01*
X67894540Y-72800000D01*
X67914326Y-72988256D01*
X67914327Y-72988259D01*
X67972818Y-73168277D01*
X67972819Y-73168279D01*
X67972821Y-73168284D01*
X67982887Y-73185720D01*
X67999500Y-73247718D01*
X67999500Y-80417060D01*
X67979815Y-80484099D01*
X67963181Y-80504741D01*
X65504741Y-82963181D01*
X65443418Y-82996666D01*
X65417060Y-82999500D01*
X63242367Y-82999500D01*
X63191931Y-82988779D01*
X63079807Y-82938857D01*
X63079802Y-82938855D01*
X62934001Y-82907865D01*
X62894646Y-82899500D01*
X62705354Y-82899500D01*
X62672897Y-82906398D01*
X62520197Y-82938855D01*
X62520192Y-82938857D01*
X62347270Y-83015848D01*
X62347265Y-83015851D01*
X62194129Y-83127111D01*
X62067466Y-83267785D01*
X61972821Y-83431715D01*
X61972818Y-83431722D01*
X61914327Y-83611740D01*
X61914326Y-83611744D01*
X61894540Y-83800000D01*
X36000000Y-83800000D01*
X36000000Y-55424000D01*
X36019685Y-55356961D01*
X36072489Y-55311206D01*
X36124000Y-55300000D01*
X41809733Y-55300000D01*
X41817695Y-55300431D01*
G37*
%TD.AperFunction*%
%TD*%
M02*
