M48
; DRILL file {KiCad 7.0.2} date Thu Jun  1 11:44:25 2023
; FORMAT={-:-/ absolute / inch / decimal}
; #@! TF.CreationDate,2023-06-01T11:44:25+02:00
; #@! TF.GenerationSoftware,Kicad,Pcbnew,7.0.2
; #@! TF.FileFunction,Plated,1,2,PTH
FMAT,2
INCH
; #@! TA.AperFunction,Plated,PTH,ViaDrill
T1C0.0157
; #@! TA.AperFunction,Plated,PTH,ComponentDrill
T2C0.0315
; #@! TA.AperFunction,Plated,PTH,ComponentDrill
T3C0.0370
; #@! TA.AperFunction,Plated,PTH,ComponentDrill
T4C0.0402
; #@! TA.AperFunction,Plated,PTH,ComponentDrill
T5C0.0421
; #@! TA.AperFunction,Plated,PTH,ComponentDrill
T6C0.0433
; #@! TA.AperFunction,Plated,PTH,ComponentDrill
T7C0.1260
%
G90
G05
T1
X6.2394Y-4.164
X6.25Y-3.789
X6.2707Y-3.528
X6.35Y-4.139
X6.5Y-4.489
X6.55Y-4.239
T2
X4.9713Y-3.589
X5.05Y-3.589
T3
X4.85Y-3.8413
X4.85Y-3.9413
X4.85Y-4.0413
T4
X5.0Y-3.289
X5.1Y-3.289
X6.55Y-3.489
X6.55Y-3.589
X6.85Y-3.339
X6.95Y-3.339
X6.95Y-4.539
X7.05Y-4.539
T5
X5.25Y-4.189
X5.25Y-4.289
X5.25Y-4.389
X6.1Y-3.939
X6.2Y-3.939
X6.3Y-3.939
T6
X5.3044Y-3.839
X5.3044Y-4.039
X5.5044Y-3.839
X5.5044Y-4.039
X5.6044Y-3.839
X5.6044Y-4.039
X5.7044Y-3.839
X5.7044Y-4.039
X5.8044Y-3.839
X5.8044Y-4.039
X6.6Y-3.854
X6.6Y-4.054
X6.7Y-3.854
X6.7Y-4.054
X6.8Y-3.854
X6.8Y-4.054
X6.9Y-3.854
X6.9Y-4.054
X7.1Y-3.854
X7.1Y-4.054
T7
X5.0Y-4.539
X5.35Y-3.139
X7.0Y-3.639
T0
M30
