%TF.GenerationSoftware,KiCad,Pcbnew,7.0.2*%
%TF.CreationDate,2023-06-01T11:44:41+02:00*%
%TF.ProjectId,AMS & IMD Reset,414d5320-2620-4494-9d44-205265736574,rev?*%
%TF.SameCoordinates,Original*%
%TF.FileFunction,Soldermask,Bot*%
%TF.FilePolarity,Negative*%
%FSLAX46Y46*%
G04 Gerber Fmt 4.6, Leading zero omitted, Abs format (unit mm)*
G04 Created by KiCad (PCBNEW 7.0.2) date 2023-06-01 11:44:41*
%MOMM*%
%LPD*%
G01*
G04 APERTURE LIST*
%ADD10C,5.600000*%
%ADD11R,1.530000X1.530000*%
%ADD12C,1.530000*%
%ADD13R,1.610000X1.610000*%
%ADD14C,1.610000*%
%ADD15C,1.650000*%
%ADD16R,1.600000X1.600000*%
%ADD17C,1.600000*%
%ADD18C,1.440000*%
G04 APERTURE END LIST*
D10*
%TO.C,*%
X127000000Y-115290000D03*
%TD*%
%TO.C,*%
X177800000Y-92430000D03*
%TD*%
%TO.C,*%
X135890000Y-79730000D03*
%TD*%
D11*
%TO.C,J3*%
X173990000Y-84810000D03*
D12*
X176530000Y-84810000D03*
%TD*%
D13*
%TO.C,J1*%
X133350000Y-106400000D03*
D14*
X133350000Y-108940000D03*
X133350000Y-111480000D03*
%TD*%
D15*
%TO.C,K3*%
X180340000Y-97891905D03*
X175260000Y-97891905D03*
X172720000Y-97891905D03*
X170180000Y-97891905D03*
X167640000Y-97891905D03*
X167640000Y-102971905D03*
X170180000Y-102971905D03*
X172720000Y-102971905D03*
X175260000Y-102971905D03*
X180340000Y-102971905D03*
%TD*%
D11*
%TO.C,J5*%
X179070000Y-115290000D03*
D12*
X176530000Y-115290000D03*
%TD*%
D16*
%TO.C,C1*%
X126270000Y-91160000D03*
D17*
X128270000Y-91160000D03*
%TD*%
D11*
%TO.C,J6*%
X166370000Y-88620000D03*
D12*
X166370000Y-91160000D03*
%TD*%
D15*
%TO.C,K2*%
X134731500Y-102590000D03*
X139811500Y-102590000D03*
X142351500Y-102590000D03*
X144891500Y-102590000D03*
X147431500Y-102590000D03*
X147431500Y-97510000D03*
X144891500Y-97510000D03*
X142351500Y-97510000D03*
X139811500Y-97510000D03*
X134731500Y-97510000D03*
%TD*%
D13*
%TO.C,J2*%
X154940000Y-100050000D03*
D14*
X157480000Y-100050000D03*
X160020000Y-100050000D03*
%TD*%
D11*
%TO.C,J4*%
X127000000Y-83540000D03*
D12*
X129540000Y-83540000D03*
%TD*%
D18*
%TO.C,U1*%
X123190000Y-97570000D03*
X123190000Y-100110000D03*
X123190000Y-102650000D03*
%TD*%
M02*
