%TF.GenerationSoftware,KiCad,Pcbnew,7.0.2*%
%TF.CreationDate,2023-06-01T11:44:41+02:00*%
%TF.ProjectId,AMS & IMD Reset,414d5320-2620-4494-9d44-205265736574,rev?*%
%TF.SameCoordinates,Original*%
%TF.FileFunction,Copper,L1,Top*%
%TF.FilePolarity,Positive*%
%FSLAX46Y46*%
G04 Gerber Fmt 4.6, Leading zero omitted, Abs format (unit mm)*
G04 Created by KiCad (PCBNEW 7.0.2) date 2023-06-01 11:44:41*
%MOMM*%
%LPD*%
G01*
G04 APERTURE LIST*
%TA.AperFunction,ComponentPad*%
%ADD10C,5.600000*%
%TD*%
%TA.AperFunction,SMDPad,CuDef*%
%ADD11R,1.050000X1.800000*%
%TD*%
%TA.AperFunction,SMDPad,CuDef*%
%ADD12O,1.600000X0.950000*%
%TD*%
%TA.AperFunction,SMDPad,CuDef*%
%ADD13R,1.800000X1.050000*%
%TD*%
%TA.AperFunction,SMDPad,CuDef*%
%ADD14R,1.070000X1.470000*%
%TD*%
%TA.AperFunction,ComponentPad*%
%ADD15R,1.530000X1.530000*%
%TD*%
%TA.AperFunction,ComponentPad*%
%ADD16C,1.530000*%
%TD*%
%TA.AperFunction,SMDPad,CuDef*%
%ADD17R,1.528000X0.650000*%
%TD*%
%TA.AperFunction,ComponentPad*%
%ADD18R,1.610000X1.610000*%
%TD*%
%TA.AperFunction,ComponentPad*%
%ADD19C,1.610000*%
%TD*%
%TA.AperFunction,ComponentPad*%
%ADD20C,1.650000*%
%TD*%
%TA.AperFunction,ComponentPad*%
%ADD21R,1.600000X1.600000*%
%TD*%
%TA.AperFunction,ComponentPad*%
%ADD22C,1.600000*%
%TD*%
%TA.AperFunction,SMDPad,CuDef*%
%ADD23R,0.600000X1.300000*%
%TD*%
%TA.AperFunction,SMDPad,CuDef*%
%ADD24O,0.950000X1.600000*%
%TD*%
%TA.AperFunction,ComponentPad*%
%ADD25C,1.440000*%
%TD*%
%TA.AperFunction,ViaPad*%
%ADD26C,0.800000*%
%TD*%
%TA.AperFunction,Conductor*%
%ADD27C,0.400000*%
%TD*%
G04 APERTURE END LIST*
D10*
%TO.P,,1*%
%TO.N,N/C*%
X127000000Y-115290000D03*
%TD*%
%TO.P,,1*%
%TO.N,N/C*%
X177800000Y-92430000D03*
%TD*%
%TO.P,,1*%
%TO.N,N/C*%
X135890000Y-79730000D03*
%TD*%
D11*
%TO.P,R15,1*%
%TO.N,AMS Status*%
X168630000Y-94970000D03*
%TO.P,R15,2*%
%TO.N,GND*%
X171730000Y-94970000D03*
%TD*%
D12*
%TO.P,K6,1,+_CONTROL*%
%TO.N,/Opto AMS*%
X158070000Y-85953000D03*
%TO.P,K6,2,-_CONTROL*%
%TO.N,GND*%
X158070000Y-83667000D03*
%TO.P,K6,3,LOAD_1*%
%TO.N,/SC out dongle 2*%
X149270000Y-83667000D03*
%TO.P,K6,4,LOAD_2*%
%TO.N,/SC in*%
X149270000Y-85953000D03*
%TD*%
D13*
%TO.P,R3,1*%
%TO.N,OK_HS_IMD*%
X138430000Y-109220000D03*
%TO.P,R3,2*%
%TO.N,GND*%
X138430000Y-106120000D03*
%TD*%
%TO.P,R7,1*%
%TO.N,/11V*%
X151130000Y-99060000D03*
%TO.P,R7,2*%
%TO.N,+12V*%
X151130000Y-95960000D03*
%TD*%
D12*
%TO.P,K5,1,+_CONTROL*%
%TO.N,/Opto IMD*%
X160610000Y-116433000D03*
%TO.P,K5,2,-_CONTROL*%
%TO.N,GND*%
X160610000Y-114147000D03*
%TO.P,K5,3,LOAD_1*%
%TO.N,/SC out dongle 1*%
X151810000Y-114147000D03*
%TO.P,K5,4,LOAD_2*%
%TO.N,/SC out IMD*%
X151810000Y-116433000D03*
%TD*%
D14*
%TO.P,C2,1*%
%TO.N,+5V*%
X122370000Y-110210000D03*
%TO.P,C2,2*%
%TO.N,GND*%
X124010000Y-110210000D03*
%TD*%
D15*
%TO.P,J3,1,1*%
%TO.N,GND*%
X173990000Y-84810000D03*
D16*
%TO.P,J3,2,2*%
%TO.N,/SC in*%
X176530000Y-84810000D03*
%TD*%
D17*
%TO.P,CP1,1,OUT1*%
%TO.N,/Opto IMD*%
X154769000Y-105765000D03*
%TO.P,CP1,2,IN1-*%
%TO.N,OK_HS_IMD*%
X154769000Y-107035000D03*
%TO.P,CP1,3,IN1+*%
%TO.N,/11V*%
X154769000Y-108305000D03*
%TO.P,CP1,4,GND*%
%TO.N,GND*%
X154769000Y-109575000D03*
%TO.P,CP1,5,IN2+*%
%TO.N,OK_HS_IMD*%
X160191000Y-109575000D03*
%TO.P,CP1,6,IN2-*%
%TO.N,/1V*%
X160191000Y-108305000D03*
%TO.P,CP1,7,OUT2*%
%TO.N,/Opto IMD*%
X160191000Y-107035000D03*
%TO.P,CP1,8,V+*%
%TO.N,+5V*%
X160191000Y-105765000D03*
%TD*%
D18*
%TO.P,J1,1,1*%
%TO.N,IMD Indicator*%
X133350000Y-106400000D03*
D19*
%TO.P,J1,2,2*%
%TO.N,OK_HS_IMD*%
X133350000Y-108940000D03*
%TO.P,J1,3,3*%
%TO.N,GND*%
X133350000Y-111480000D03*
%TD*%
D13*
%TO.P,R9,1*%
%TO.N,+5V*%
X165100000Y-112040000D03*
%TO.P,R9,2*%
%TO.N,/Opto IMD*%
X165100000Y-108940000D03*
%TD*%
D20*
%TO.P,K3,1,1*%
%TO.N,Net-(K3-Pad1)*%
X180340000Y-97891905D03*
%TO.P,K3,2,2*%
X175260000Y-97891905D03*
%TO.P,K3,3,3*%
%TO.N,AMS Status*%
X172720000Y-97891905D03*
%TO.P,K3,4,4*%
%TO.N,GND*%
X170180000Y-97891905D03*
%TO.P,K3,5,5*%
X167640000Y-97891905D03*
%TO.P,K3,6,6*%
%TO.N,/NO Button*%
X167640000Y-102971905D03*
%TO.P,K3,7,7*%
%TO.N,/C Button + LED*%
X170180000Y-102971905D03*
%TO.P,K3,8,8*%
%TO.N,+12V*%
X172720000Y-102971905D03*
%TO.P,K3,9,9*%
%TO.N,Net-(K3-Pad9)*%
X175260000Y-102971905D03*
%TO.P,K3,10,10*%
%TO.N,GND*%
X180340000Y-102971905D03*
%TD*%
D15*
%TO.P,J5,1,1*%
%TO.N,GND*%
X179070000Y-115290000D03*
D16*
%TO.P,J5,2,2*%
%TO.N,/SC out*%
X176530000Y-115290000D03*
%TD*%
D17*
%TO.P,CP2,1,OUT1*%
%TO.N,/Opto AMS*%
X154769000Y-90525000D03*
%TO.P,CP2,2,IN1-*%
%TO.N,AMS Status*%
X154769000Y-91795000D03*
%TO.P,CP2,3,IN1+*%
%TO.N,/11V*%
X154769000Y-93065000D03*
%TO.P,CP2,4,GND*%
%TO.N,GND*%
X154769000Y-94335000D03*
%TO.P,CP2,5,IN2+*%
%TO.N,AMS Status*%
X160191000Y-94335000D03*
%TO.P,CP2,6,IN2-*%
%TO.N,/1V*%
X160191000Y-93065000D03*
%TO.P,CP2,7,OUT2*%
%TO.N,/Opto AMS*%
X160191000Y-91795000D03*
%TO.P,CP2,8,V+*%
%TO.N,+5V*%
X160191000Y-90525000D03*
%TD*%
D13*
%TO.P,R6,1*%
%TO.N,GND*%
X163830000Y-105410000D03*
%TO.P,R6,2*%
%TO.N,/1V*%
X163830000Y-102310000D03*
%TD*%
%TO.P,R14,1*%
%TO.N,+5V*%
X149860000Y-89610000D03*
%TO.P,R14,2*%
%TO.N,/Opto AMS*%
X149860000Y-92710000D03*
%TD*%
%TO.P,R8,1*%
%TO.N,GND*%
X151130000Y-104140000D03*
%TO.P,R8,2*%
%TO.N,/11V*%
X151130000Y-101040000D03*
%TD*%
D21*
%TO.P,C1,1*%
%TO.N,GND*%
X126270000Y-91160000D03*
D22*
%TO.P,C1,2*%
%TO.N,+12V*%
X128270000Y-91160000D03*
%TD*%
D15*
%TO.P,J6,1,1*%
%TO.N,GND*%
X166370000Y-88620000D03*
D16*
%TO.P,J6,2,2*%
%TO.N,AMS Status*%
X166370000Y-91160000D03*
%TD*%
D20*
%TO.P,K2,1,1*%
%TO.N,Net-(K2-Pad1)*%
X134731500Y-102590000D03*
%TO.P,K2,2,2*%
X139811500Y-102590000D03*
%TO.P,K2,3,3*%
%TO.N,IMD Indicator*%
X142351500Y-102590000D03*
%TO.P,K2,4,4*%
%TO.N,GND*%
X144891500Y-102590000D03*
%TO.P,K2,5,5*%
X147431500Y-102590000D03*
%TO.P,K2,6,6*%
%TO.N,/NO Button*%
X147431500Y-97510000D03*
%TO.P,K2,7,7*%
%TO.N,/C Button + LED*%
X144891500Y-97510000D03*
%TO.P,K2,8,8*%
%TO.N,+12V*%
X142351500Y-97510000D03*
%TO.P,K2,9,9*%
%TO.N,Net-(K2-Pad9)*%
X139811500Y-97510000D03*
%TO.P,K2,10,10*%
%TO.N,GND*%
X134731500Y-97510000D03*
%TD*%
D11*
%TO.P,R4,1*%
%TO.N,+12V*%
X141960000Y-106400000D03*
%TO.P,R4,2*%
%TO.N,IMD Indicator*%
X145060000Y-106400000D03*
%TD*%
D12*
%TO.P,K1,1,+_CONTROL*%
%TO.N,Net-(K1-+_CONTROL)*%
X144780000Y-89890000D03*
%TO.P,K1,2,-_CONTROL*%
%TO.N,GND*%
X144780000Y-87604000D03*
%TO.P,K1,3,LOAD_1*%
%TO.N,/SC out IMD*%
X135980000Y-87604000D03*
%TO.P,K1,4,LOAD_2*%
%TO.N,/SC out dongle 2*%
X135980000Y-89890000D03*
%TD*%
D18*
%TO.P,J2,1,1*%
%TO.N,/NO Button*%
X154940000Y-100050000D03*
D19*
%TO.P,J2,2,2*%
%TO.N,/C Button + LED*%
X157480000Y-100050000D03*
%TO.P,J2,3,3*%
%TO.N,GND*%
X160020000Y-100050000D03*
%TD*%
D15*
%TO.P,J4,1,1*%
%TO.N,GND*%
X127000000Y-83540000D03*
D16*
%TO.P,J4,2,2*%
%TO.N,+12V*%
X129540000Y-83540000D03*
%TD*%
D13*
%TO.P,R2,1*%
%TO.N,Net-(K3-Pad9)*%
X176530000Y-106120000D03*
%TO.P,R2,2*%
%TO.N,Net-(K4-+_CONTROL)*%
X176530000Y-109220000D03*
%TD*%
D23*
%TO.P,Q1,1*%
%TO.N,OK_HS_IMD*%
X142560000Y-112310000D03*
%TO.P,Q1,2*%
%TO.N,GND*%
X144460000Y-112310000D03*
%TO.P,Q1,3*%
%TO.N,IMD Indicator*%
X143510000Y-110210000D03*
%TD*%
D13*
%TO.P,R5,1*%
%TO.N,/1V*%
X163830000Y-99340000D03*
%TO.P,R5,2*%
%TO.N,+12V*%
X163830000Y-96240000D03*
%TD*%
D11*
%TO.P,R1,1*%
%TO.N,Net-(K2-Pad9)*%
X139420000Y-93700000D03*
%TO.P,R1,2*%
%TO.N,Net-(K1-+_CONTROL)*%
X142520000Y-93700000D03*
%TD*%
D24*
%TO.P,K4,1,+_CONTROL*%
%TO.N,Net-(K4-+_CONTROL)*%
X171323000Y-107080000D03*
%TO.P,K4,2,-_CONTROL*%
%TO.N,GND*%
X169037000Y-107080000D03*
%TO.P,K4,3,LOAD_1*%
%TO.N,/SC out dongle 1*%
X169037000Y-115880000D03*
%TO.P,K4,4,LOAD_2*%
%TO.N,/SC out*%
X171323000Y-115880000D03*
%TD*%
D25*
%TO.P,U1,1,+VIN*%
%TO.N,+12V*%
X123190000Y-97570000D03*
%TO.P,U1,2,GND*%
%TO.N,GND*%
X123190000Y-100110000D03*
%TO.P,U1,3,+VOUT*%
%TO.N,+5V*%
X123190000Y-102650000D03*
%TD*%
D26*
%TO.N,+5V*%
X161290000Y-105130000D03*
X165100000Y-114020000D03*
X159276000Y-89610000D03*
%TO.N,AMS Status*%
X158750000Y-96240000D03*
%TO.N,/Opto IMD*%
X166370000Y-107670000D03*
X158482000Y-105765000D03*
%TD*%
D27*
%TO.N,/Opto IMD*%
X162560000Y-114483000D02*
X160610000Y-116433000D01*
X165100000Y-108940000D02*
X162560000Y-111480000D01*
X162560000Y-111480000D02*
X162560000Y-114483000D01*
%TO.N,AMS Status*%
X172476905Y-97891905D02*
X172720000Y-97891905D01*
X169555000Y-94970000D02*
X172476905Y-97891905D01*
X168630000Y-94970000D02*
X169555000Y-94970000D01*
%TO.N,+12V*%
X163830000Y-97195817D02*
X168381088Y-101746905D01*
X168381088Y-101746905D02*
X171495000Y-101746905D01*
X171495000Y-101746905D02*
X172720000Y-102971905D01*
X163830000Y-96240000D02*
X163830000Y-97195817D01*
%TO.N,Net-(K3-Pad1)*%
X175260000Y-97891905D02*
X180340000Y-97891905D01*
%TO.N,Net-(K3-Pad9)*%
X176530000Y-104241905D02*
X175260000Y-102971905D01*
X176530000Y-106120000D02*
X176530000Y-104241905D01*
%TO.N,OK_HS_IMD*%
X147320000Y-114020000D02*
X144270000Y-114020000D01*
X150080000Y-111260000D02*
X147320000Y-114020000D01*
X158506000Y-111260000D02*
X150080000Y-111260000D01*
X160191000Y-109575000D02*
X158506000Y-111260000D01*
X144270000Y-114020000D02*
X142560000Y-112310000D01*
%TO.N,/SC out IMD*%
X130810000Y-92774000D02*
X135980000Y-87604000D01*
X135763000Y-116433000D02*
X130810000Y-111480000D01*
X130810000Y-111480000D02*
X130810000Y-92774000D01*
X151810000Y-116433000D02*
X135763000Y-116433000D01*
%TO.N,+5V*%
X161290000Y-105130000D02*
X160826000Y-105130000D01*
X160826000Y-105130000D02*
X160191000Y-105765000D01*
X165100000Y-114020000D02*
X165100000Y-112040000D01*
%TO.N,/1V*%
X162560000Y-106400000D02*
X160655000Y-108305000D01*
X162530000Y-106370000D02*
X162560000Y-106400000D01*
X162530000Y-103610000D02*
X162530000Y-106370000D01*
X163830000Y-102310000D02*
X162530000Y-103610000D01*
X160655000Y-108305000D02*
X160191000Y-108305000D01*
%TO.N,+5V*%
X159276000Y-89610000D02*
X160191000Y-90525000D01*
X149860000Y-89610000D02*
X159276000Y-89610000D01*
%TO.N,IMD Indicator*%
X145060000Y-108660000D02*
X143510000Y-110210000D01*
X145060000Y-106400000D02*
X145060000Y-108660000D01*
X145060000Y-105298500D02*
X145060000Y-106400000D01*
X142351500Y-102590000D02*
X145060000Y-105298500D01*
%TO.N,AMS Status*%
X158750000Y-95776000D02*
X160191000Y-94335000D01*
X158750000Y-96240000D02*
X158750000Y-95776000D01*
%TO.N,/Opto IMD*%
X166370000Y-107670000D02*
X165100000Y-108940000D01*
%TO.N,+5V*%
X122370000Y-103470000D02*
X123190000Y-102650000D01*
X122370000Y-110210000D02*
X122370000Y-103470000D01*
%TO.N,/Opto IMD*%
X158482000Y-105765000D02*
X154769000Y-105765000D01*
X159752000Y-107035000D02*
X158482000Y-105765000D01*
X160191000Y-107035000D02*
X159752000Y-107035000D01*
%TO.N,Net-(K2-Pad9)*%
X139420000Y-97118500D02*
X139811500Y-97510000D01*
X139420000Y-93700000D02*
X139420000Y-97118500D01*
%TO.N,Net-(K1-+_CONTROL)*%
X142520000Y-93700000D02*
X142520000Y-92150000D01*
X142520000Y-92150000D02*
X144780000Y-89890000D01*
%TO.N,/Opto AMS*%
X152045000Y-90525000D02*
X149860000Y-92710000D01*
X154769000Y-90525000D02*
X152045000Y-90525000D01*
%TO.N,+12V*%
X137160000Y-103860000D02*
X139420000Y-103860000D01*
X137160000Y-102701500D02*
X137160000Y-103860000D01*
X139420000Y-103860000D02*
X141960000Y-106400000D01*
X142351500Y-97510000D02*
X137160000Y-102701500D01*
X143901500Y-95960000D02*
X142351500Y-97510000D01*
X151130000Y-95960000D02*
X143901500Y-95960000D01*
%TO.N,Net-(K4-+_CONTROL)*%
X173463000Y-109220000D02*
X171323000Y-107080000D01*
X176530000Y-109220000D02*
X173463000Y-109220000D01*
%TO.N,/SC out*%
X175940000Y-115880000D02*
X176530000Y-115290000D01*
X171323000Y-115880000D02*
X175940000Y-115880000D01*
%TO.N,/SC out dongle 1*%
X167609000Y-117308000D02*
X169037000Y-115880000D01*
X151810000Y-114147000D02*
X154971000Y-117308000D01*
X154971000Y-117308000D02*
X167609000Y-117308000D01*
%TO.N,/Opto AMS*%
X161355000Y-91070000D02*
X160630000Y-91795000D01*
X161355000Y-89238000D02*
X161355000Y-91070000D01*
X160630000Y-91795000D02*
X160191000Y-91795000D01*
X158070000Y-85953000D02*
X161355000Y-89238000D01*
X155208000Y-90525000D02*
X156478000Y-91795000D01*
X154769000Y-90525000D02*
X155208000Y-90525000D01*
X156478000Y-91795000D02*
X160191000Y-91795000D01*
%TO.N,OK_HS_IMD*%
X133630000Y-109220000D02*
X133350000Y-108940000D01*
X138430000Y-109220000D02*
X133630000Y-109220000D01*
X141520000Y-112310000D02*
X138430000Y-109220000D01*
X142560000Y-112310000D02*
X141520000Y-112310000D01*
X157748000Y-109575000D02*
X160191000Y-109575000D01*
X155208000Y-107035000D02*
X157748000Y-109575000D01*
X154769000Y-107035000D02*
X155208000Y-107035000D01*
%TO.N,AMS Status*%
X157748000Y-94335000D02*
X160191000Y-94335000D01*
X154769000Y-91795000D02*
X155208000Y-91795000D01*
X155208000Y-91795000D02*
X157748000Y-94335000D01*
%TO.N,/11V*%
X153605000Y-97885000D02*
X153605000Y-93790000D01*
X154330000Y-93065000D02*
X154769000Y-93065000D01*
X152430000Y-99060000D02*
X153605000Y-97885000D01*
X151130000Y-99060000D02*
X152430000Y-99060000D01*
X153605000Y-93790000D02*
X154330000Y-93065000D01*
%TO.N,/1V*%
X161355000Y-96865000D02*
X163830000Y-99340000D01*
X160630000Y-93065000D02*
X161355000Y-93790000D01*
X160191000Y-93065000D02*
X160630000Y-93065000D01*
X161355000Y-93790000D02*
X161355000Y-96865000D01*
%TO.N,/11V*%
X152430000Y-106405000D02*
X154330000Y-108305000D01*
X151130000Y-101040000D02*
X152430000Y-102340000D01*
X152430000Y-102340000D02*
X152430000Y-106405000D01*
X154330000Y-108305000D02*
X154769000Y-108305000D01*
X151130000Y-99060000D02*
X151130000Y-101040000D01*
%TO.N,/1V*%
X163830000Y-99340000D02*
X163830000Y-102310000D01*
%TO.N,/SC out dongle 2*%
X142203000Y-83667000D02*
X135980000Y-89890000D01*
X149270000Y-83667000D02*
X142203000Y-83667000D01*
%TO.N,/SC in*%
X156210000Y-81000000D02*
X151257000Y-85953000D01*
X151257000Y-85953000D02*
X149270000Y-85953000D01*
X172720000Y-81000000D02*
X156210000Y-81000000D01*
X176530000Y-84810000D02*
X172720000Y-81000000D01*
%TD*%
%TA.AperFunction,Conductor*%
%TO.N,GND*%
G36*
X156223600Y-93815356D02*
G01*
X156240560Y-93829531D01*
X156749075Y-94338046D01*
X157229231Y-94818202D01*
X157234365Y-94823656D01*
X157274727Y-94869215D01*
X157304986Y-94890101D01*
X157324838Y-94903805D01*
X157330857Y-94908234D01*
X157378774Y-94945774D01*
X157388230Y-94950029D01*
X157407780Y-94961056D01*
X157416325Y-94966954D01*
X157473248Y-94988542D01*
X157480169Y-94991409D01*
X157535665Y-95016386D01*
X157535670Y-95016388D01*
X157545882Y-95018259D01*
X157567490Y-95024282D01*
X157577199Y-95027965D01*
X157637633Y-95035302D01*
X157645025Y-95036426D01*
X157704907Y-95047401D01*
X157760964Y-95044010D01*
X157765666Y-95043726D01*
X157773152Y-95043500D01*
X158181167Y-95043500D01*
X158248206Y-95063185D01*
X158293961Y-95115989D01*
X158303905Y-95185147D01*
X158274880Y-95248703D01*
X158268840Y-95255188D01*
X158266808Y-95257220D01*
X158266783Y-95257246D01*
X158261352Y-95262357D01*
X158215783Y-95302728D01*
X158181201Y-95352827D01*
X158176765Y-95358856D01*
X158139225Y-95406773D01*
X158134964Y-95416240D01*
X158123946Y-95435775D01*
X158118045Y-95444325D01*
X158096457Y-95501245D01*
X158093593Y-95508161D01*
X158068610Y-95563671D01*
X158066738Y-95573889D01*
X158060714Y-95595496D01*
X158057034Y-95605200D01*
X158055205Y-95620262D01*
X158027582Y-95684439D01*
X158024262Y-95688282D01*
X158010959Y-95703056D01*
X157915472Y-95868443D01*
X157856458Y-96050070D01*
X157836496Y-96240000D01*
X157856458Y-96429929D01*
X157915472Y-96611556D01*
X158010957Y-96776941D01*
X158011299Y-96777321D01*
X158138747Y-96918866D01*
X158265839Y-97011204D01*
X158293248Y-97031118D01*
X158467714Y-97108795D01*
X158654511Y-97148500D01*
X158654513Y-97148500D01*
X158845489Y-97148500D01*
X159032285Y-97108795D01*
X159032286Y-97108794D01*
X159032288Y-97108794D01*
X159206752Y-97031118D01*
X159361253Y-96918866D01*
X159489040Y-96776944D01*
X159489685Y-96775828D01*
X159584527Y-96611556D01*
X159597532Y-96571530D01*
X159643542Y-96429928D01*
X159663504Y-96240000D01*
X159643542Y-96050072D01*
X159626399Y-95997315D01*
X159624405Y-95927477D01*
X159656648Y-95871320D01*
X160323150Y-95204819D01*
X160384474Y-95171334D01*
X160410832Y-95168500D01*
X160522500Y-95168500D01*
X160589539Y-95188185D01*
X160635294Y-95240989D01*
X160646500Y-95292500D01*
X160646500Y-96839837D01*
X160646274Y-96847324D01*
X160642597Y-96908095D01*
X160653569Y-96967970D01*
X160654696Y-96975369D01*
X160662035Y-97035802D01*
X160665713Y-97045500D01*
X160671738Y-97067111D01*
X160673611Y-97077329D01*
X160698597Y-97132848D01*
X160701463Y-97139766D01*
X160720455Y-97189844D01*
X160723047Y-97196677D01*
X160728941Y-97205216D01*
X160739964Y-97224760D01*
X160744224Y-97234225D01*
X160781761Y-97282137D01*
X160786200Y-97288170D01*
X160820782Y-97338270D01*
X160820784Y-97338272D01*
X160820785Y-97338273D01*
X160866370Y-97378658D01*
X160871805Y-97383775D01*
X162385181Y-98897151D01*
X162418666Y-98958474D01*
X162421500Y-98984832D01*
X162421500Y-99913638D01*
X162421852Y-99916918D01*
X162421853Y-99916924D01*
X162428011Y-99974205D01*
X162479110Y-100111203D01*
X162566738Y-100228261D01*
X162683796Y-100315889D01*
X162820794Y-100366988D01*
X162820797Y-100366988D01*
X162820799Y-100366989D01*
X162881362Y-100373500D01*
X162997500Y-100373500D01*
X163064539Y-100393185D01*
X163110294Y-100445989D01*
X163121500Y-100497500D01*
X163121500Y-101152500D01*
X163101815Y-101219539D01*
X163049011Y-101265294D01*
X162997500Y-101276500D01*
X162881362Y-101276500D01*
X162878082Y-101276852D01*
X162878075Y-101276853D01*
X162820794Y-101283011D01*
X162683796Y-101334110D01*
X162566738Y-101421738D01*
X162479110Y-101538796D01*
X162428011Y-101675794D01*
X162422230Y-101729568D01*
X162421500Y-101736362D01*
X162421500Y-101739671D01*
X162421500Y-102665167D01*
X162401815Y-102732206D01*
X162385181Y-102752848D01*
X162046804Y-103091224D01*
X162041352Y-103096357D01*
X161995783Y-103136728D01*
X161961201Y-103186827D01*
X161956765Y-103192856D01*
X161919225Y-103240773D01*
X161914964Y-103250240D01*
X161903946Y-103269775D01*
X161898045Y-103278325D01*
X161876457Y-103335245D01*
X161873593Y-103342161D01*
X161848610Y-103397671D01*
X161846738Y-103407889D01*
X161840714Y-103429496D01*
X161837035Y-103439196D01*
X161829696Y-103499632D01*
X161828569Y-103507031D01*
X161817597Y-103566905D01*
X161821274Y-103627674D01*
X161821500Y-103635161D01*
X161821500Y-104181218D01*
X161801815Y-104248257D01*
X161749011Y-104294012D01*
X161679853Y-104303956D01*
X161647065Y-104294498D01*
X161572286Y-104261204D01*
X161385489Y-104221500D01*
X161385487Y-104221500D01*
X161194513Y-104221500D01*
X161194511Y-104221500D01*
X161007714Y-104261204D01*
X160833246Y-104338882D01*
X160732785Y-104411871D01*
X160674853Y-104434647D01*
X160655200Y-104437034D01*
X160645496Y-104440714D01*
X160623889Y-104446738D01*
X160613668Y-104448611D01*
X160558157Y-104473594D01*
X160551242Y-104476459D01*
X160494324Y-104498046D01*
X160485775Y-104503947D01*
X160466239Y-104514965D01*
X160456776Y-104519224D01*
X160408857Y-104556765D01*
X160402829Y-104561200D01*
X160352727Y-104595784D01*
X160312357Y-104641352D01*
X160307224Y-104646804D01*
X160058847Y-104895182D01*
X159997527Y-104928666D01*
X159971168Y-104931500D01*
X159378362Y-104931500D01*
X159375082Y-104931852D01*
X159375075Y-104931853D01*
X159317794Y-104938011D01*
X159180796Y-104989110D01*
X159145114Y-105015821D01*
X159079650Y-105040236D01*
X159011377Y-105025383D01*
X158997921Y-105016870D01*
X158938753Y-104973882D01*
X158764285Y-104896204D01*
X158577489Y-104856500D01*
X158577487Y-104856500D01*
X158386513Y-104856500D01*
X158386511Y-104856500D01*
X158199714Y-104896204D01*
X158025248Y-104973881D01*
X157944130Y-105032818D01*
X157878324Y-105056298D01*
X157871244Y-105056500D01*
X155910496Y-105056500D01*
X155843457Y-105036815D01*
X155836186Y-105031767D01*
X155779203Y-104989110D01*
X155642205Y-104938011D01*
X155584924Y-104931853D01*
X155584918Y-104931852D01*
X155581638Y-104931500D01*
X153956362Y-104931500D01*
X153953082Y-104931852D01*
X153953075Y-104931853D01*
X153895794Y-104938011D01*
X153758796Y-104989110D01*
X153641738Y-105076738D01*
X153554110Y-105193796D01*
X153503011Y-105330794D01*
X153497720Y-105380014D01*
X153496500Y-105391362D01*
X153496500Y-106138638D01*
X153496853Y-106141925D01*
X153496854Y-106141936D01*
X153498786Y-106159914D01*
X153486378Y-106228673D01*
X153438765Y-106279808D01*
X153371065Y-106297085D01*
X153304772Y-106275017D01*
X153287815Y-106260845D01*
X153174819Y-106147849D01*
X153141334Y-106086526D01*
X153138500Y-106060168D01*
X153138500Y-102365168D01*
X153138726Y-102357681D01*
X153140123Y-102334585D01*
X153142402Y-102296908D01*
X153131425Y-102237011D01*
X153130301Y-102229621D01*
X153130132Y-102228227D01*
X153122965Y-102169199D01*
X153119288Y-102159503D01*
X153113260Y-102137880D01*
X153111389Y-102127670D01*
X153087008Y-102073500D01*
X153086398Y-102072146D01*
X153083549Y-102065269D01*
X153061954Y-102008325D01*
X153056060Y-101999786D01*
X153045034Y-101980240D01*
X153040775Y-101970775D01*
X153003234Y-101922857D01*
X152998801Y-101916832D01*
X152964215Y-101866726D01*
X152918647Y-101826357D01*
X152913193Y-101821223D01*
X152574819Y-101482848D01*
X152541334Y-101421525D01*
X152538500Y-101395167D01*
X152538500Y-100469671D01*
X152538500Y-100466362D01*
X152531989Y-100405799D01*
X152531988Y-100405797D01*
X152531988Y-100405794D01*
X152480889Y-100268796D01*
X152393262Y-100151740D01*
X152389960Y-100149268D01*
X152348088Y-100093336D01*
X152343102Y-100023644D01*
X152376586Y-99962320D01*
X152389960Y-99950732D01*
X152393261Y-99948261D01*
X152480889Y-99831204D01*
X152480888Y-99831204D01*
X152491573Y-99816932D01*
X152492528Y-99817647D01*
X152521275Y-99779244D01*
X152580643Y-99755412D01*
X152600801Y-99752965D01*
X152610498Y-99749287D01*
X152632124Y-99743259D01*
X152642329Y-99741389D01*
X152697850Y-99716400D01*
X152704752Y-99713542D01*
X152745189Y-99698205D01*
X152761675Y-99691954D01*
X152770219Y-99686055D01*
X152789754Y-99675037D01*
X152799226Y-99670775D01*
X152847162Y-99633217D01*
X152853143Y-99628816D01*
X152903273Y-99594215D01*
X152943673Y-99548611D01*
X152948760Y-99543208D01*
X153417818Y-99074150D01*
X153479139Y-99040667D01*
X153548831Y-99045651D01*
X153604764Y-99087523D01*
X153629181Y-99152987D01*
X153628787Y-99175087D01*
X153626853Y-99193072D01*
X153626852Y-99193084D01*
X153626500Y-99196362D01*
X153626500Y-100903638D01*
X153626852Y-100906918D01*
X153626853Y-100906924D01*
X153633011Y-100964205D01*
X153684110Y-101101203D01*
X153771738Y-101218261D01*
X153888796Y-101305889D01*
X154025794Y-101356988D01*
X154025797Y-101356988D01*
X154025799Y-101356989D01*
X154086362Y-101363500D01*
X154089672Y-101363500D01*
X155790328Y-101363500D01*
X155793638Y-101363500D01*
X155854201Y-101356989D01*
X155854203Y-101356988D01*
X155854205Y-101356988D01*
X155932124Y-101327924D01*
X155991204Y-101305889D01*
X156108261Y-101218261D01*
X156195889Y-101101204D01*
X156226654Y-101018720D01*
X156246988Y-100964205D01*
X156246988Y-100964203D01*
X156246989Y-100964201D01*
X156247557Y-100958915D01*
X156274294Y-100894364D01*
X156331686Y-100854515D01*
X156401511Y-100852020D01*
X156461601Y-100887672D01*
X156467950Y-100895519D01*
X156469957Y-100897526D01*
X156632474Y-101060043D01*
X156820741Y-101191869D01*
X157029041Y-101289001D01*
X157251042Y-101348486D01*
X157382478Y-101359985D01*
X157479999Y-101368517D01*
X157479999Y-101368516D01*
X157480000Y-101368517D01*
X157708958Y-101348486D01*
X157930959Y-101289001D01*
X158139259Y-101191869D01*
X158327526Y-101060043D01*
X158490043Y-100897526D01*
X158621869Y-100709259D01*
X158642308Y-100665425D01*
X158688478Y-100612989D01*
X158755672Y-100593837D01*
X158822553Y-100614052D01*
X158867071Y-100665429D01*
X158885517Y-100704989D01*
X158937384Y-100779062D01*
X159506755Y-100209691D01*
X159511151Y-100230845D01*
X159578812Y-100361425D01*
X159679194Y-100468907D01*
X159804851Y-100545322D01*
X159862170Y-100561381D01*
X159290936Y-101132614D01*
X159365009Y-101184480D01*
X159571957Y-101280982D01*
X159792525Y-101340083D01*
X160019999Y-101359985D01*
X160247474Y-101340083D01*
X160468042Y-101280982D01*
X160674991Y-101184480D01*
X160749061Y-101132614D01*
X160180166Y-100563719D01*
X160300591Y-100511412D01*
X160414673Y-100418599D01*
X160499485Y-100298449D01*
X160531610Y-100208056D01*
X161102614Y-100779061D01*
X161154480Y-100704991D01*
X161250982Y-100498042D01*
X161310083Y-100277474D01*
X161329985Y-100050000D01*
X161310083Y-99822525D01*
X161250982Y-99601957D01*
X161154479Y-99395007D01*
X161102614Y-99320936D01*
X160533244Y-99890306D01*
X160528849Y-99869155D01*
X160461188Y-99738575D01*
X160360806Y-99631093D01*
X160235149Y-99554678D01*
X160177829Y-99538618D01*
X160749062Y-98967384D01*
X160674990Y-98915519D01*
X160468042Y-98819017D01*
X160247474Y-98759916D01*
X160019999Y-98740014D01*
X159792525Y-98759916D01*
X159571956Y-98819017D01*
X159365007Y-98915519D01*
X159290937Y-98967384D01*
X159290936Y-98967384D01*
X159859833Y-99536280D01*
X159739409Y-99588588D01*
X159625327Y-99681401D01*
X159540515Y-99801551D01*
X159508390Y-99891941D01*
X158937384Y-99320936D01*
X158937384Y-99320937D01*
X158885518Y-99395009D01*
X158867069Y-99434573D01*
X158820896Y-99487011D01*
X158753702Y-99506162D01*
X158686821Y-99485945D01*
X158642308Y-99434573D01*
X158621869Y-99390742D01*
X158490043Y-99202474D01*
X158327526Y-99039957D01*
X158139259Y-98908131D01*
X158005318Y-98845673D01*
X157930960Y-98810999D01*
X157708955Y-98751513D01*
X157479999Y-98731482D01*
X157251044Y-98751513D01*
X157029039Y-98810999D01*
X156820741Y-98908131D01*
X156632473Y-99039957D01*
X156462286Y-99210145D01*
X156460570Y-99208429D01*
X156417835Y-99242582D01*
X156348336Y-99249770D01*
X156285984Y-99218242D01*
X156250575Y-99158009D01*
X156247557Y-99141084D01*
X156246988Y-99135794D01*
X156195889Y-98998796D01*
X156108261Y-98881738D01*
X155991203Y-98794110D01*
X155854205Y-98743011D01*
X155796924Y-98736853D01*
X155796918Y-98736852D01*
X155793638Y-98736500D01*
X154086362Y-98736500D01*
X154083084Y-98736852D01*
X154083072Y-98736853D01*
X154065087Y-98738787D01*
X153996327Y-98726380D01*
X153945191Y-98678770D01*
X153927912Y-98611070D01*
X153949977Y-98544776D01*
X153964146Y-98527822D01*
X154088208Y-98403760D01*
X154093611Y-98398673D01*
X154139215Y-98358273D01*
X154173816Y-98308143D01*
X154178222Y-98302157D01*
X154188690Y-98288796D01*
X154215775Y-98254226D01*
X154220037Y-98244754D01*
X154231055Y-98225219D01*
X154236954Y-98216675D01*
X154252747Y-98175032D01*
X154258542Y-98159752D01*
X154261400Y-98152850D01*
X154286389Y-98097329D01*
X154288260Y-98087113D01*
X154294287Y-98065498D01*
X154297965Y-98055801D01*
X154305304Y-97995354D01*
X154306420Y-97988014D01*
X154317402Y-97928092D01*
X154313726Y-97867316D01*
X154313500Y-97859830D01*
X154313500Y-95284000D01*
X154333185Y-95216961D01*
X154385989Y-95171206D01*
X154437500Y-95160000D01*
X154519000Y-95160000D01*
X154519000Y-94585000D01*
X155019000Y-94585000D01*
X155019000Y-95160000D01*
X155577518Y-95160000D01*
X155584132Y-95159645D01*
X155640371Y-95153599D01*
X155775089Y-95103352D01*
X155890188Y-95017188D01*
X155976352Y-94902089D01*
X156026599Y-94767371D01*
X156032645Y-94711132D01*
X156033000Y-94704518D01*
X156033000Y-94585000D01*
X155019000Y-94585000D01*
X154519000Y-94585000D01*
X154519000Y-94209000D01*
X154538685Y-94141961D01*
X154591489Y-94096206D01*
X154643000Y-94085000D01*
X156033000Y-94085000D01*
X156033000Y-93965481D01*
X156032645Y-93958871D01*
X156029592Y-93930470D01*
X156041996Y-93861710D01*
X156089606Y-93810572D01*
X156157305Y-93793292D01*
X156223600Y-93815356D01*
G37*
%TD.AperFunction*%
%TA.AperFunction,Conductor*%
G36*
X182822539Y-75940185D02*
G01*
X182868294Y-75992989D01*
X182879500Y-76044500D01*
X182879500Y-121515500D01*
X182859815Y-121582539D01*
X182807011Y-121628294D01*
X182755500Y-121639500D01*
X118234500Y-121639500D01*
X118167461Y-121619815D01*
X118121706Y-121567011D01*
X118110500Y-121515500D01*
X118110500Y-115290000D01*
X123686641Y-115290000D01*
X123686822Y-115293338D01*
X123686822Y-115293356D01*
X123705881Y-115644878D01*
X123705882Y-115644894D01*
X123706064Y-115648237D01*
X123706606Y-115651547D01*
X123706607Y-115651550D01*
X123763561Y-115998960D01*
X123763563Y-115998972D01*
X123764105Y-116002274D01*
X123765001Y-116005503D01*
X123765004Y-116005514D01*
X123833368Y-116251735D01*
X123860085Y-116347961D01*
X123861329Y-116351084D01*
X123861330Y-116351086D01*
X123973080Y-116631558D01*
X123992877Y-116681243D01*
X123994447Y-116684205D01*
X123994452Y-116684215D01*
X124081779Y-116848930D01*
X124160925Y-116998215D01*
X124162812Y-117000998D01*
X124162815Y-117001003D01*
X124327832Y-117244384D01*
X124362258Y-117295159D01*
X124594516Y-117568595D01*
X124596947Y-117570898D01*
X124596953Y-117570904D01*
X124776533Y-117741011D01*
X124854977Y-117815317D01*
X125140586Y-118032431D01*
X125447995Y-118217393D01*
X125773599Y-118368033D01*
X126113583Y-118482587D01*
X126463958Y-118559711D01*
X126820618Y-118598500D01*
X126823976Y-118598500D01*
X127176024Y-118598500D01*
X127179382Y-118598500D01*
X127536042Y-118559711D01*
X127886417Y-118482587D01*
X128226401Y-118368033D01*
X128552005Y-118217393D01*
X128859414Y-118032431D01*
X129145023Y-117815317D01*
X129405484Y-117568595D01*
X129637742Y-117295159D01*
X129839075Y-116998215D01*
X130007123Y-116681243D01*
X130139915Y-116347961D01*
X130235895Y-116002274D01*
X130293936Y-115648237D01*
X130313359Y-115290000D01*
X130293936Y-114931763D01*
X130235895Y-114577726D01*
X130139915Y-114232039D01*
X130007123Y-113898757D01*
X129839075Y-113581785D01*
X129637742Y-113284841D01*
X129452697Y-113066989D01*
X129407657Y-113013963D01*
X129407654Y-113013960D01*
X129405484Y-113011405D01*
X129403051Y-113009100D01*
X129403046Y-113009095D01*
X129194135Y-112811204D01*
X129145023Y-112764683D01*
X128947434Y-112614480D01*
X128862082Y-112549597D01*
X128862080Y-112549595D01*
X128859414Y-112547569D01*
X128856540Y-112545840D01*
X128856536Y-112545837D01*
X128554887Y-112364341D01*
X128554886Y-112364340D01*
X128552005Y-112362607D01*
X128226401Y-112211967D01*
X128118782Y-112175706D01*
X127889591Y-112098482D01*
X127889583Y-112098479D01*
X127886417Y-112097413D01*
X127883150Y-112096694D01*
X127883147Y-112096693D01*
X127539323Y-112021011D01*
X127539319Y-112021010D01*
X127536042Y-112020289D01*
X127532706Y-112019926D01*
X127532699Y-112019925D01*
X127182720Y-111981863D01*
X127182719Y-111981862D01*
X127179382Y-111981500D01*
X126820618Y-111981500D01*
X126817281Y-111981862D01*
X126817279Y-111981863D01*
X126467300Y-112019925D01*
X126467290Y-112019926D01*
X126463958Y-112020289D01*
X126460683Y-112021009D01*
X126460676Y-112021011D01*
X126116852Y-112096693D01*
X126116844Y-112096695D01*
X126113583Y-112097413D01*
X126110421Y-112098478D01*
X126110408Y-112098482D01*
X125776786Y-112210893D01*
X125776783Y-112210894D01*
X125773599Y-112211967D01*
X125770550Y-112213377D01*
X125770544Y-112213380D01*
X125451050Y-112361193D01*
X125451040Y-112361197D01*
X125447995Y-112362607D01*
X125445121Y-112364336D01*
X125445112Y-112364341D01*
X125143463Y-112545837D01*
X125143450Y-112545845D01*
X125140586Y-112547569D01*
X125137928Y-112549589D01*
X125137917Y-112549597D01*
X124857636Y-112762661D01*
X124857628Y-112762667D01*
X124854977Y-112764683D01*
X124852553Y-112766978D01*
X124852546Y-112766985D01*
X124596953Y-113009095D01*
X124596938Y-113009110D01*
X124594516Y-113011405D01*
X124592353Y-113013950D01*
X124592342Y-113013963D01*
X124364431Y-113282282D01*
X124364425Y-113282289D01*
X124362258Y-113284841D01*
X124360378Y-113287613D01*
X124360371Y-113287623D01*
X124162815Y-113578996D01*
X124162807Y-113579008D01*
X124160925Y-113581785D01*
X124159350Y-113584755D01*
X124159348Y-113584759D01*
X123994452Y-113895784D01*
X123994443Y-113895801D01*
X123992877Y-113898757D01*
X123991636Y-113901869D01*
X123991632Y-113901880D01*
X123861330Y-114228913D01*
X123861327Y-114228921D01*
X123860085Y-114232039D01*
X123859185Y-114235277D01*
X123859185Y-114235280D01*
X123765004Y-114574485D01*
X123765000Y-114574500D01*
X123764105Y-114577726D01*
X123763564Y-114581023D01*
X123763561Y-114581039D01*
X123709456Y-114911071D01*
X123706064Y-114931763D01*
X123705882Y-114935103D01*
X123705881Y-114935121D01*
X123686822Y-115286643D01*
X123686822Y-115286661D01*
X123686641Y-115290000D01*
X118110500Y-115290000D01*
X118110500Y-111523095D01*
X130097597Y-111523095D01*
X130108569Y-111582970D01*
X130109696Y-111590369D01*
X130117035Y-111650802D01*
X130120713Y-111660500D01*
X130126738Y-111682111D01*
X130128611Y-111692329D01*
X130153597Y-111747848D01*
X130156463Y-111754766D01*
X130178047Y-111811677D01*
X130183941Y-111820216D01*
X130194964Y-111839760D01*
X130199224Y-111849225D01*
X130236761Y-111897137D01*
X130241200Y-111903170D01*
X130275782Y-111953270D01*
X130275784Y-111953272D01*
X130275785Y-111953273D01*
X130321370Y-111993658D01*
X130326805Y-111998775D01*
X135244223Y-116916193D01*
X135249357Y-116921647D01*
X135289725Y-116967214D01*
X135339822Y-117001793D01*
X135345856Y-117006233D01*
X135393774Y-117043775D01*
X135403236Y-117048034D01*
X135422781Y-117059057D01*
X135427801Y-117062522D01*
X135431325Y-117064954D01*
X135487581Y-117086289D01*
X135488233Y-117086536D01*
X135495155Y-117089403D01*
X135550671Y-117114389D01*
X135560881Y-117116260D01*
X135582500Y-117122286D01*
X135592199Y-117125965D01*
X135652631Y-117133302D01*
X135660011Y-117134425D01*
X135719908Y-117145402D01*
X135780681Y-117141726D01*
X135788169Y-117141500D01*
X150748327Y-117141500D01*
X150815366Y-117161185D01*
X150838201Y-117180068D01*
X150841069Y-117183086D01*
X150854312Y-117192303D01*
X151005244Y-117297355D01*
X151189058Y-117376235D01*
X151384988Y-117416500D01*
X151384990Y-117416500D01*
X152181735Y-117416500D01*
X152184877Y-117416500D01*
X152333998Y-117401336D01*
X152524849Y-117341456D01*
X152699740Y-117244384D01*
X152851510Y-117114093D01*
X152939048Y-117001003D01*
X152973945Y-116955921D01*
X152992133Y-116918842D01*
X153062036Y-116776336D01*
X153084866Y-116688156D01*
X153120724Y-116628194D01*
X153183310Y-116597134D01*
X153252754Y-116604842D01*
X153292588Y-116631558D01*
X154452223Y-117791193D01*
X154457357Y-117796647D01*
X154497725Y-117842214D01*
X154547822Y-117876793D01*
X154553856Y-117881233D01*
X154601774Y-117918775D01*
X154611236Y-117923034D01*
X154630781Y-117934057D01*
X154635801Y-117937522D01*
X154639325Y-117939954D01*
X154695581Y-117961289D01*
X154696233Y-117961536D01*
X154703155Y-117964403D01*
X154758671Y-117989389D01*
X154768881Y-117991260D01*
X154790500Y-117997286D01*
X154800199Y-118000965D01*
X154860638Y-118008303D01*
X154868000Y-118009423D01*
X154927907Y-118020402D01*
X154988675Y-118016726D01*
X154996163Y-118016500D01*
X167583837Y-118016500D01*
X167591324Y-118016726D01*
X167652093Y-118020402D01*
X167711994Y-118009424D01*
X167719364Y-118008303D01*
X167779801Y-118000965D01*
X167789498Y-117997287D01*
X167811124Y-117991259D01*
X167821329Y-117989389D01*
X167876850Y-117964400D01*
X167883752Y-117961542D01*
X167924189Y-117946205D01*
X167940675Y-117939954D01*
X167949219Y-117934055D01*
X167968754Y-117923037D01*
X167978226Y-117918775D01*
X168026162Y-117881217D01*
X168032143Y-117876816D01*
X168082273Y-117842215D01*
X168122673Y-117796611D01*
X168127760Y-117791208D01*
X168717622Y-117201346D01*
X168778943Y-117167863D01*
X168836379Y-117168986D01*
X168887303Y-117182172D01*
X169087070Y-117192303D01*
X169087070Y-117192302D01*
X169087071Y-117192303D01*
X169284788Y-117162014D01*
X169329644Y-117145401D01*
X169472361Y-117092544D01*
X169642111Y-116986739D01*
X169787087Y-116848929D01*
X169901355Y-116684756D01*
X169980235Y-116500942D01*
X170020500Y-116305012D01*
X170020500Y-116254877D01*
X170339500Y-116254877D01*
X170339816Y-116257988D01*
X170339817Y-116258000D01*
X170354664Y-116404000D01*
X170375127Y-116469219D01*
X170414544Y-116594849D01*
X170417126Y-116599500D01*
X170511615Y-116769740D01*
X170641907Y-116921510D01*
X170800078Y-117043945D01*
X170857627Y-117072173D01*
X170979664Y-117132036D01*
X171173303Y-117182172D01*
X171373070Y-117192303D01*
X171373070Y-117192302D01*
X171373071Y-117192303D01*
X171570788Y-117162014D01*
X171615644Y-117145401D01*
X171758361Y-117092544D01*
X171928111Y-116986739D01*
X172073087Y-116848929D01*
X172187355Y-116684756D01*
X172196432Y-116663602D01*
X172240958Y-116609757D01*
X172307526Y-116588533D01*
X172310384Y-116588500D01*
X175914837Y-116588500D01*
X175922324Y-116588726D01*
X175983093Y-116592402D01*
X176042994Y-116581424D01*
X176050364Y-116580303D01*
X176110801Y-116572965D01*
X176120498Y-116569287D01*
X176142124Y-116563259D01*
X176142550Y-116563181D01*
X176152329Y-116561389D01*
X176187459Y-116545577D01*
X176256669Y-116536012D01*
X176270446Y-116538878D01*
X176308012Y-116548944D01*
X176530000Y-116568365D01*
X176751986Y-116548944D01*
X176967227Y-116491270D01*
X177169183Y-116397097D01*
X177351717Y-116269284D01*
X177509284Y-116111717D01*
X177579427Y-116011543D01*
X177634003Y-115967920D01*
X177703501Y-115960728D01*
X177765856Y-115992250D01*
X177801269Y-116052480D01*
X177805000Y-116082669D01*
X177805000Y-116099518D01*
X177805354Y-116106132D01*
X177811400Y-116162371D01*
X177861647Y-116297089D01*
X177947811Y-116412188D01*
X178062910Y-116498352D01*
X178197628Y-116548599D01*
X178253867Y-116554645D01*
X178260482Y-116555000D01*
X178820000Y-116555000D01*
X178820000Y-115736494D01*
X178924839Y-115784373D01*
X179033527Y-115800000D01*
X179106473Y-115800000D01*
X179215161Y-115784373D01*
X179320000Y-115736494D01*
X179320000Y-116555000D01*
X179879518Y-116555000D01*
X179886132Y-116554645D01*
X179942371Y-116548599D01*
X180077089Y-116498352D01*
X180192188Y-116412188D01*
X180278352Y-116297089D01*
X180328599Y-116162371D01*
X180334645Y-116106132D01*
X180335000Y-116099518D01*
X180335000Y-115540000D01*
X179515572Y-115540000D01*
X179538682Y-115504040D01*
X179580000Y-115363327D01*
X179580000Y-115216673D01*
X179538682Y-115075960D01*
X179515572Y-115040000D01*
X180335000Y-115040000D01*
X180335000Y-114480481D01*
X180334645Y-114473867D01*
X180328599Y-114417628D01*
X180278352Y-114282910D01*
X180192188Y-114167811D01*
X180077089Y-114081647D01*
X179942371Y-114031400D01*
X179886132Y-114025354D01*
X179879518Y-114025000D01*
X179320000Y-114025000D01*
X179320000Y-114843505D01*
X179215161Y-114795627D01*
X179106473Y-114780000D01*
X179033527Y-114780000D01*
X178924839Y-114795627D01*
X178820000Y-114843505D01*
X178820000Y-114025000D01*
X178260482Y-114025000D01*
X178253867Y-114025354D01*
X178197628Y-114031400D01*
X178062910Y-114081647D01*
X177947811Y-114167811D01*
X177861647Y-114282910D01*
X177811400Y-114417628D01*
X177805354Y-114473867D01*
X177805000Y-114480481D01*
X177805000Y-114497331D01*
X177785315Y-114564370D01*
X177732511Y-114610125D01*
X177663353Y-114620069D01*
X177599797Y-114591044D01*
X177579427Y-114568457D01*
X177509284Y-114468283D01*
X177351717Y-114310716D01*
X177351716Y-114310715D01*
X177169183Y-114182902D01*
X176967230Y-114088731D01*
X176967227Y-114088730D01*
X176859606Y-114059893D01*
X176751983Y-114031055D01*
X176530000Y-114011634D01*
X176308016Y-114031055D01*
X176092771Y-114088730D01*
X175923183Y-114167811D01*
X175890818Y-114182903D01*
X175708283Y-114310716D01*
X175708279Y-114310719D01*
X175550719Y-114468279D01*
X175550716Y-114468282D01*
X175550716Y-114468283D01*
X175430718Y-114639658D01*
X175422902Y-114650820D01*
X175328730Y-114852771D01*
X175268248Y-115078493D01*
X175264407Y-115077463D01*
X175246475Y-115123347D01*
X175189896Y-115164343D01*
X175148377Y-115171500D01*
X172307975Y-115171500D01*
X172240936Y-115151815D01*
X172199556Y-115107677D01*
X172134384Y-114990259D01*
X172004092Y-114838489D01*
X171845921Y-114716054D01*
X171703229Y-114646061D01*
X171666336Y-114627964D01*
X171472697Y-114577828D01*
X171470686Y-114577726D01*
X171272928Y-114567696D01*
X171075211Y-114597985D01*
X170887639Y-114667455D01*
X170717889Y-114773260D01*
X170572914Y-114911069D01*
X170458644Y-115075245D01*
X170388879Y-115237819D01*
X170379765Y-115259058D01*
X170339500Y-115454988D01*
X170339500Y-116254877D01*
X170020500Y-116254877D01*
X170020500Y-115505123D01*
X170005336Y-115356002D01*
X169945456Y-115165151D01*
X169860093Y-115011355D01*
X169848384Y-114990259D01*
X169718092Y-114838489D01*
X169559921Y-114716054D01*
X169417229Y-114646061D01*
X169380336Y-114627964D01*
X169186697Y-114577828D01*
X169184686Y-114577726D01*
X168986928Y-114567696D01*
X168789211Y-114597985D01*
X168601639Y-114667455D01*
X168431889Y-114773260D01*
X168286914Y-114911069D01*
X168172644Y-115075245D01*
X168102879Y-115237819D01*
X168093765Y-115259058D01*
X168055211Y-115446666D01*
X168053500Y-115454990D01*
X168053500Y-115810168D01*
X168033815Y-115877207D01*
X168017181Y-115897849D01*
X167351849Y-116563181D01*
X167290526Y-116596666D01*
X167264168Y-116599500D01*
X162041768Y-116599500D01*
X161974729Y-116579815D01*
X161928974Y-116527011D01*
X161917927Y-116469219D01*
X161921234Y-116404000D01*
X161922303Y-116382930D01*
X161916449Y-116344719D01*
X161897236Y-116219301D01*
X161906542Y-116150054D01*
X161932122Y-116112846D01*
X163043217Y-115001752D01*
X163048637Y-114996650D01*
X163094215Y-114956273D01*
X163128806Y-114906158D01*
X163133233Y-114900143D01*
X163170774Y-114852226D01*
X163175033Y-114842761D01*
X163186058Y-114823216D01*
X163191954Y-114814675D01*
X163213550Y-114757727D01*
X163216408Y-114750831D01*
X163224704Y-114732400D01*
X163241388Y-114695330D01*
X163243257Y-114685128D01*
X163249287Y-114663497D01*
X163252965Y-114653801D01*
X163260302Y-114593365D01*
X163261428Y-114585965D01*
X163272401Y-114526093D01*
X163268725Y-114465333D01*
X163268499Y-114457845D01*
X163268499Y-113130461D01*
X163268499Y-111824827D01*
X163288184Y-111757792D01*
X163304810Y-111737159D01*
X163479820Y-111562149D01*
X163541142Y-111528665D01*
X163610834Y-111533649D01*
X163666767Y-111575521D01*
X163691184Y-111640985D01*
X163691500Y-111649831D01*
X163691500Y-112613638D01*
X163691852Y-112616918D01*
X163691853Y-112616924D01*
X163698011Y-112674205D01*
X163749110Y-112811203D01*
X163836738Y-112928261D01*
X163953796Y-113015889D01*
X164090794Y-113066988D01*
X164090797Y-113066988D01*
X164090799Y-113066989D01*
X164151362Y-113073500D01*
X164267500Y-113073500D01*
X164334539Y-113093185D01*
X164380294Y-113145989D01*
X164391500Y-113197500D01*
X164391500Y-113401538D01*
X164371815Y-113468577D01*
X164361578Y-113481985D01*
X164265472Y-113648443D01*
X164206458Y-113830070D01*
X164186496Y-114019999D01*
X164206458Y-114209929D01*
X164265472Y-114391556D01*
X164360957Y-114556941D01*
X164387091Y-114585965D01*
X164488747Y-114698866D01*
X164564975Y-114754249D01*
X164643248Y-114811118D01*
X164817714Y-114888795D01*
X165004511Y-114928500D01*
X165004513Y-114928500D01*
X165195489Y-114928500D01*
X165382285Y-114888795D01*
X165382286Y-114888794D01*
X165382288Y-114888794D01*
X165556752Y-114811118D01*
X165711253Y-114698866D01*
X165839040Y-114556944D01*
X165856853Y-114526092D01*
X165934527Y-114391556D01*
X165948804Y-114347615D01*
X165993542Y-114209928D01*
X166013504Y-114020000D01*
X165993542Y-113830072D01*
X165962931Y-113735862D01*
X165934527Y-113648443D01*
X165832524Y-113471770D01*
X165833863Y-113470996D01*
X165810119Y-113421509D01*
X165808500Y-113401538D01*
X165808500Y-113197500D01*
X165828185Y-113130461D01*
X165880989Y-113084706D01*
X165932500Y-113073500D01*
X166045328Y-113073500D01*
X166048638Y-113073500D01*
X166109201Y-113066989D01*
X166109203Y-113066988D01*
X166109205Y-113066988D01*
X166187124Y-113037924D01*
X166246204Y-113015889D01*
X166363261Y-112928261D01*
X166450889Y-112811204D01*
X166472924Y-112752124D01*
X166501988Y-112674205D01*
X166501988Y-112674203D01*
X166501989Y-112674201D01*
X166508500Y-112613638D01*
X166508500Y-111466362D01*
X166501989Y-111405799D01*
X166501988Y-111405797D01*
X166501988Y-111405794D01*
X166450889Y-111268796D01*
X166363261Y-111151738D01*
X166246203Y-111064110D01*
X166109205Y-111013011D01*
X166051924Y-111006853D01*
X166051918Y-111006852D01*
X166048638Y-111006500D01*
X164334831Y-111006500D01*
X164267792Y-110986815D01*
X164222037Y-110934011D01*
X164212093Y-110864853D01*
X164241118Y-110801297D01*
X164247150Y-110794819D01*
X164265175Y-110776795D01*
X165032151Y-110009819D01*
X165093475Y-109976334D01*
X165119833Y-109973500D01*
X166045328Y-109973500D01*
X166048638Y-109973500D01*
X166109201Y-109966989D01*
X166109203Y-109966988D01*
X166109205Y-109966988D01*
X166212393Y-109928500D01*
X166246204Y-109915889D01*
X166363261Y-109828261D01*
X166450889Y-109711204D01*
X166472924Y-109652124D01*
X166501988Y-109574205D01*
X166501988Y-109574203D01*
X166501989Y-109574201D01*
X166508500Y-109513638D01*
X166508500Y-108669770D01*
X166528185Y-108602731D01*
X166580989Y-108556976D01*
X166606713Y-108548481D01*
X166652288Y-108538794D01*
X166826752Y-108461118D01*
X166981253Y-108348866D01*
X167109040Y-108206944D01*
X167120844Y-108186500D01*
X167204527Y-108041556D01*
X167204527Y-108041555D01*
X167263542Y-107859928D01*
X167283504Y-107670000D01*
X167263542Y-107480072D01*
X167214780Y-107330000D01*
X168062000Y-107330000D01*
X168062000Y-107451303D01*
X168062317Y-107457568D01*
X168077033Y-107602278D01*
X168136396Y-107791480D01*
X168232628Y-107964859D01*
X168361792Y-108115317D01*
X168518597Y-108236693D01*
X168696630Y-108324022D01*
X168786999Y-108347420D01*
X168787000Y-108347420D01*
X168787000Y-107330000D01*
X169287000Y-107330000D01*
X169287000Y-108352130D01*
X169468595Y-108284876D01*
X169636883Y-108179980D01*
X169780602Y-108043364D01*
X169893883Y-107880610D01*
X169972082Y-107698384D01*
X170012000Y-107504146D01*
X170012000Y-107454877D01*
X170339500Y-107454877D01*
X170339816Y-107457988D01*
X170339817Y-107458000D01*
X170354664Y-107604000D01*
X170393880Y-107728987D01*
X170414544Y-107794849D01*
X170422036Y-107808347D01*
X170511615Y-107969740D01*
X170641907Y-108121510D01*
X170800078Y-108243945D01*
X170857627Y-108272173D01*
X170979664Y-108332036D01*
X171173303Y-108382172D01*
X171373070Y-108392303D01*
X171536698Y-108367236D01*
X171605944Y-108376542D01*
X171643155Y-108402125D01*
X172944223Y-109703193D01*
X172949357Y-109708647D01*
X172989725Y-109754214D01*
X173019594Y-109774831D01*
X173037990Y-109787529D01*
X173039822Y-109788793D01*
X173045856Y-109793233D01*
X173093774Y-109830775D01*
X173103236Y-109835034D01*
X173122781Y-109846057D01*
X173127801Y-109849522D01*
X173131325Y-109851954D01*
X173187581Y-109873289D01*
X173188233Y-109873536D01*
X173195155Y-109876403D01*
X173250671Y-109901389D01*
X173260881Y-109903260D01*
X173282500Y-109909286D01*
X173292199Y-109912965D01*
X173352638Y-109920303D01*
X173360000Y-109921423D01*
X173419907Y-109932402D01*
X173480675Y-109928726D01*
X173488163Y-109928500D01*
X175070102Y-109928500D01*
X175137141Y-109948185D01*
X175169369Y-109978190D01*
X175266738Y-110108261D01*
X175383796Y-110195889D01*
X175520794Y-110246988D01*
X175520797Y-110246988D01*
X175520799Y-110246989D01*
X175581362Y-110253500D01*
X175584672Y-110253500D01*
X177475328Y-110253500D01*
X177478638Y-110253500D01*
X177539201Y-110246989D01*
X177539203Y-110246988D01*
X177539205Y-110246988D01*
X177617124Y-110217924D01*
X177676204Y-110195889D01*
X177793261Y-110108261D01*
X177880889Y-109991204D01*
X177923708Y-109876403D01*
X177931988Y-109854205D01*
X177931988Y-109854203D01*
X177931989Y-109854201D01*
X177938500Y-109793638D01*
X177938500Y-108646362D01*
X177931989Y-108585799D01*
X177931988Y-108585797D01*
X177931988Y-108585794D01*
X177880889Y-108448796D01*
X177793261Y-108331738D01*
X177676203Y-108244110D01*
X177539205Y-108193011D01*
X177481924Y-108186853D01*
X177481918Y-108186852D01*
X177478638Y-108186500D01*
X175581362Y-108186500D01*
X175578082Y-108186852D01*
X175578075Y-108186853D01*
X175520794Y-108193011D01*
X175383796Y-108244110D01*
X175266738Y-108331738D01*
X175169369Y-108461810D01*
X175113436Y-108503682D01*
X175070102Y-108511500D01*
X173807832Y-108511500D01*
X173740793Y-108491815D01*
X173720151Y-108475181D01*
X172342819Y-107097849D01*
X172309334Y-107036526D01*
X172306500Y-107010168D01*
X172306500Y-106708264D01*
X172306500Y-106708263D01*
X172306500Y-106705123D01*
X172291336Y-106556002D01*
X172231456Y-106365151D01*
X172137093Y-106195140D01*
X172134384Y-106190259D01*
X172004092Y-106038489D01*
X171845921Y-105916054D01*
X171682667Y-105835975D01*
X171666336Y-105827964D01*
X171472697Y-105777828D01*
X171472697Y-105777827D01*
X171272928Y-105767696D01*
X171075211Y-105797985D01*
X170887639Y-105867455D01*
X170717889Y-105973260D01*
X170572914Y-106111069D01*
X170458644Y-106275245D01*
X170379766Y-106459055D01*
X170379765Y-106459058D01*
X170339500Y-106654988D01*
X170339500Y-107454877D01*
X170012000Y-107454877D01*
X170012000Y-107330000D01*
X169287000Y-107330000D01*
X168787000Y-107330000D01*
X168062000Y-107330000D01*
X167214780Y-107330000D01*
X167204527Y-107298444D01*
X167204527Y-107298443D01*
X167109042Y-107133058D01*
X167089442Y-107111291D01*
X166981253Y-106991134D01*
X166843712Y-106891204D01*
X166826751Y-106878881D01*
X166716962Y-106830000D01*
X168062000Y-106830000D01*
X168787000Y-106830000D01*
X168787000Y-105812577D01*
X169287000Y-105812577D01*
X169287000Y-106830000D01*
X170012000Y-106830000D01*
X170012000Y-106708696D01*
X170011682Y-106702431D01*
X169996966Y-106557721D01*
X169937603Y-106368519D01*
X169841371Y-106195140D01*
X169712207Y-106044682D01*
X169555402Y-105923306D01*
X169377366Y-105835975D01*
X169287000Y-105812577D01*
X168787000Y-105812577D01*
X168787000Y-105807869D01*
X168786999Y-105807868D01*
X168605403Y-105875124D01*
X168437116Y-105980019D01*
X168293397Y-106116635D01*
X168180116Y-106279389D01*
X168101917Y-106461615D01*
X168062000Y-106655853D01*
X168062000Y-106830000D01*
X166716962Y-106830000D01*
X166652285Y-106801204D01*
X166465489Y-106761500D01*
X166465487Y-106761500D01*
X166274513Y-106761500D01*
X166274511Y-106761500D01*
X166087714Y-106801204D01*
X165913248Y-106878881D01*
X165758748Y-106991133D01*
X165630957Y-107133058D01*
X165535472Y-107298443D01*
X165476458Y-107480070D01*
X165471476Y-107527474D01*
X165444891Y-107592088D01*
X165435836Y-107602192D01*
X165167847Y-107870182D01*
X165106527Y-107903666D01*
X165080168Y-107906500D01*
X164151362Y-107906500D01*
X164148082Y-107906852D01*
X164148075Y-107906853D01*
X164090794Y-107913011D01*
X163953796Y-107964110D01*
X163836738Y-108051738D01*
X163749110Y-108168796D01*
X163698011Y-108305794D01*
X163691967Y-108362014D01*
X163691500Y-108366362D01*
X163691500Y-108369670D01*
X163691500Y-108369671D01*
X163691500Y-109295166D01*
X163671815Y-109362205D01*
X163655181Y-109382847D01*
X162076804Y-110961224D01*
X162071352Y-110966357D01*
X162025783Y-111006728D01*
X161991201Y-111056827D01*
X161986765Y-111062856D01*
X161949225Y-111110773D01*
X161944964Y-111120240D01*
X161933946Y-111139775D01*
X161928045Y-111148325D01*
X161906457Y-111205245D01*
X161903593Y-111212161D01*
X161878610Y-111267671D01*
X161876738Y-111277889D01*
X161870714Y-111299496D01*
X161867035Y-111309196D01*
X161859696Y-111369632D01*
X161858569Y-111377031D01*
X161847597Y-111436905D01*
X161851274Y-111497674D01*
X161851500Y-111505161D01*
X161851500Y-113385568D01*
X161831815Y-113452607D01*
X161779011Y-113498362D01*
X161709853Y-113508306D01*
X161646297Y-113479281D01*
X161637626Y-113471000D01*
X161573364Y-113403397D01*
X161410610Y-113290116D01*
X161228384Y-113211917D01*
X161034147Y-113172000D01*
X160860000Y-113172000D01*
X160860000Y-115129668D01*
X160840315Y-115196707D01*
X160823681Y-115217349D01*
X160627849Y-115413181D01*
X160566526Y-115446666D01*
X160540168Y-115449500D01*
X160235123Y-115449500D01*
X160232012Y-115449816D01*
X160231999Y-115449817D01*
X160085999Y-115464664D01*
X159895151Y-115524544D01*
X159720259Y-115621615D01*
X159568489Y-115751907D01*
X159446054Y-115910078D01*
X159357964Y-116089664D01*
X159311458Y-116269284D01*
X159307828Y-116283303D01*
X159297762Y-116481781D01*
X159274708Y-116547737D01*
X159219655Y-116590759D01*
X159173922Y-116599500D01*
X155315832Y-116599500D01*
X155248793Y-116579815D01*
X155228151Y-116563181D01*
X153131348Y-114466378D01*
X153097863Y-114405055D01*
X153098021Y-114397000D01*
X159337869Y-114397000D01*
X159405123Y-114578595D01*
X159510019Y-114746883D01*
X159646635Y-114890602D01*
X159809389Y-115003883D01*
X159991615Y-115082082D01*
X160185853Y-115122000D01*
X160360000Y-115122000D01*
X160360000Y-114397000D01*
X159337869Y-114397000D01*
X153098021Y-114397000D01*
X153098988Y-114347615D01*
X153108542Y-114310715D01*
X153112172Y-114296697D01*
X153122303Y-114096930D01*
X153112264Y-114031400D01*
X153092014Y-113899211D01*
X153091195Y-113896999D01*
X159342579Y-113896999D01*
X159342580Y-113897000D01*
X160360000Y-113897000D01*
X160360000Y-113172000D01*
X160238697Y-113172000D01*
X160232431Y-113172317D01*
X160087721Y-113187033D01*
X159898519Y-113246396D01*
X159725140Y-113342628D01*
X159574682Y-113471792D01*
X159453306Y-113628597D01*
X159365977Y-113806630D01*
X159342579Y-113896999D01*
X153091195Y-113896999D01*
X153022544Y-113711639D01*
X152916739Y-113541889D01*
X152778930Y-113396914D01*
X152762629Y-113385568D01*
X152614756Y-113282645D01*
X152430942Y-113203765D01*
X152235012Y-113163500D01*
X151435123Y-113163500D01*
X151432012Y-113163816D01*
X151431999Y-113163817D01*
X151285999Y-113178664D01*
X151095151Y-113238544D01*
X150920259Y-113335615D01*
X150768489Y-113465907D01*
X150646054Y-113624078D01*
X150557964Y-113803664D01*
X150507828Y-113997302D01*
X150497696Y-114197071D01*
X150527985Y-114394788D01*
X150597455Y-114582360D01*
X150703260Y-114752110D01*
X150834906Y-114890602D01*
X150841071Y-114897087D01*
X151005244Y-115011355D01*
X151189058Y-115090235D01*
X151384988Y-115130500D01*
X151740168Y-115130500D01*
X151807207Y-115150185D01*
X151827849Y-115166819D01*
X151898849Y-115237819D01*
X151932334Y-115299142D01*
X151927350Y-115368834D01*
X151885478Y-115424767D01*
X151820014Y-115449184D01*
X151811168Y-115449500D01*
X151435123Y-115449500D01*
X151432012Y-115449816D01*
X151431999Y-115449817D01*
X151285999Y-115464664D01*
X151095151Y-115524544D01*
X150920262Y-115621613D01*
X150889250Y-115648237D01*
X150835259Y-115694586D01*
X150771572Y-115723318D01*
X150754490Y-115724500D01*
X136107832Y-115724500D01*
X136040793Y-115704815D01*
X136020151Y-115688181D01*
X133328334Y-112996364D01*
X133294849Y-112935041D01*
X133299833Y-112865349D01*
X133341705Y-112809416D01*
X133405208Y-112785155D01*
X133577474Y-112770083D01*
X133798042Y-112710982D01*
X134004991Y-112614480D01*
X134079061Y-112562614D01*
X133510166Y-111993719D01*
X133630591Y-111941412D01*
X133744673Y-111848599D01*
X133829485Y-111728449D01*
X133861610Y-111638057D01*
X134432614Y-112209061D01*
X134484480Y-112134991D01*
X134580982Y-111928042D01*
X134640083Y-111707474D01*
X134659985Y-111480000D01*
X134640083Y-111252525D01*
X134580982Y-111031957D01*
X134484479Y-110825007D01*
X134432614Y-110750936D01*
X133863244Y-111320307D01*
X133858849Y-111299155D01*
X133791188Y-111168575D01*
X133690806Y-111061093D01*
X133565149Y-110984678D01*
X133507829Y-110968618D01*
X134079062Y-110397384D01*
X134004989Y-110345517D01*
X133965429Y-110327071D01*
X133912989Y-110280899D01*
X133893837Y-110213706D01*
X133914052Y-110146824D01*
X133965425Y-110102308D01*
X134009259Y-110081869D01*
X134196267Y-109950924D01*
X134262472Y-109928598D01*
X134267389Y-109928500D01*
X136970102Y-109928500D01*
X137037141Y-109948185D01*
X137069369Y-109978190D01*
X137166738Y-110108261D01*
X137283796Y-110195889D01*
X137420794Y-110246988D01*
X137420797Y-110246988D01*
X137420799Y-110246989D01*
X137481362Y-110253500D01*
X138410168Y-110253500D01*
X138477207Y-110273185D01*
X138497849Y-110289819D01*
X141001223Y-112793193D01*
X141006357Y-112798647D01*
X141046725Y-112844214D01*
X141096822Y-112878793D01*
X141102856Y-112883233D01*
X141150774Y-112920775D01*
X141160236Y-112925034D01*
X141179781Y-112936057D01*
X141184801Y-112939522D01*
X141188325Y-112941954D01*
X141244581Y-112963289D01*
X141245233Y-112963536D01*
X141252155Y-112966403D01*
X141307671Y-112991389D01*
X141317881Y-112993260D01*
X141339500Y-112999286D01*
X141349199Y-113002965D01*
X141409631Y-113010302D01*
X141417011Y-113011425D01*
X141476908Y-113022402D01*
X141537681Y-113018726D01*
X141545169Y-113018500D01*
X141653006Y-113018500D01*
X141720045Y-113038185D01*
X141765800Y-113090989D01*
X141769182Y-113099153D01*
X141808202Y-113203766D01*
X141809112Y-113206206D01*
X141896738Y-113323261D01*
X142013796Y-113410889D01*
X142150794Y-113461988D01*
X142150797Y-113461988D01*
X142150799Y-113461989D01*
X142211362Y-113468500D01*
X142665168Y-113468500D01*
X142732207Y-113488185D01*
X142752849Y-113504819D01*
X143751223Y-114503193D01*
X143756357Y-114508647D01*
X143796725Y-114554214D01*
X143816259Y-114567697D01*
X143837503Y-114582361D01*
X143846822Y-114588793D01*
X143852851Y-114593229D01*
X143874417Y-114610125D01*
X143900775Y-114630776D01*
X143910232Y-114635032D01*
X143929784Y-114646058D01*
X143938325Y-114651954D01*
X143995265Y-114673547D01*
X144002169Y-114676408D01*
X144057671Y-114701388D01*
X144067882Y-114703259D01*
X144089488Y-114709282D01*
X144099199Y-114712965D01*
X144159654Y-114720305D01*
X144167016Y-114721425D01*
X144226907Y-114732401D01*
X144282964Y-114729010D01*
X144287666Y-114728726D01*
X144295152Y-114728500D01*
X147294837Y-114728500D01*
X147302324Y-114728726D01*
X147363093Y-114732402D01*
X147422994Y-114721424D01*
X147430364Y-114720303D01*
X147490801Y-114712965D01*
X147500498Y-114709287D01*
X147522124Y-114703259D01*
X147522140Y-114703256D01*
X147532329Y-114701389D01*
X147587850Y-114676400D01*
X147594752Y-114673542D01*
X147635189Y-114658205D01*
X147651675Y-114651954D01*
X147660219Y-114646055D01*
X147679754Y-114635037D01*
X147689226Y-114630775D01*
X147737162Y-114593217D01*
X147743143Y-114588816D01*
X147793273Y-114554215D01*
X147833673Y-114508611D01*
X147838760Y-114503208D01*
X150337151Y-112004819D01*
X150398475Y-111971334D01*
X150424833Y-111968500D01*
X158480837Y-111968500D01*
X158488324Y-111968726D01*
X158549093Y-111972402D01*
X158608994Y-111961424D01*
X158616364Y-111960303D01*
X158676801Y-111952965D01*
X158686498Y-111949287D01*
X158708124Y-111943259D01*
X158718329Y-111941389D01*
X158773850Y-111916400D01*
X158780752Y-111913542D01*
X158824008Y-111897137D01*
X158837675Y-111891954D01*
X158846219Y-111886055D01*
X158865754Y-111875037D01*
X158875226Y-111870775D01*
X158923162Y-111833217D01*
X158929143Y-111828816D01*
X158979273Y-111794215D01*
X159019673Y-111748611D01*
X159024760Y-111743208D01*
X160323150Y-110444819D01*
X160384474Y-110411334D01*
X160410832Y-110408500D01*
X161000328Y-110408500D01*
X161003638Y-110408500D01*
X161064201Y-110401989D01*
X161064203Y-110401988D01*
X161064205Y-110401988D01*
X161157607Y-110367150D01*
X161201204Y-110350889D01*
X161318261Y-110263261D01*
X161405889Y-110146204D01*
X161436678Y-110063656D01*
X161456988Y-110009205D01*
X161456988Y-110009203D01*
X161456989Y-110009201D01*
X161463500Y-109948638D01*
X161463500Y-109201362D01*
X161456989Y-109140799D01*
X161405889Y-109003796D01*
X161405888Y-109003795D01*
X161399658Y-108987091D01*
X161403125Y-108985797D01*
X161389344Y-108948858D01*
X161401370Y-108893547D01*
X161399658Y-108892909D01*
X161404096Y-108881010D01*
X161404189Y-108880583D01*
X161404347Y-108880336D01*
X161405887Y-108876206D01*
X161405889Y-108876204D01*
X161456989Y-108739201D01*
X161463500Y-108678638D01*
X161463500Y-108549831D01*
X161483185Y-108482793D01*
X161499819Y-108462151D01*
X162306081Y-107655889D01*
X163091291Y-106870679D01*
X163091290Y-106870678D01*
X163106666Y-106855302D01*
X163121816Y-106840154D01*
X163140268Y-106809628D01*
X163148764Y-106797319D01*
X163170775Y-106769226D01*
X163185424Y-106736675D01*
X163192368Y-106723443D01*
X163210826Y-106692913D01*
X163221437Y-106658859D01*
X163226740Y-106644876D01*
X163241389Y-106612329D01*
X163247823Y-106577213D01*
X163251401Y-106562702D01*
X163262013Y-106528649D01*
X163262013Y-106528648D01*
X163264052Y-106522106D01*
X163302791Y-106463960D01*
X163366817Y-106435988D01*
X163382436Y-106435000D01*
X163580000Y-106435000D01*
X163580000Y-105660000D01*
X164080000Y-105660000D01*
X164080000Y-106435000D01*
X164774518Y-106435000D01*
X164781132Y-106434645D01*
X164837371Y-106428599D01*
X164972089Y-106378352D01*
X165087188Y-106292188D01*
X165173352Y-106177089D01*
X165223599Y-106042371D01*
X165229645Y-105986132D01*
X165230000Y-105979518D01*
X165230000Y-105660000D01*
X164080000Y-105660000D01*
X163580000Y-105660000D01*
X163580000Y-104385000D01*
X164080000Y-104385000D01*
X164080000Y-105160000D01*
X165230000Y-105160000D01*
X165230000Y-104840481D01*
X165229645Y-104833867D01*
X165223599Y-104777628D01*
X165173352Y-104642910D01*
X165087188Y-104527811D01*
X164972089Y-104441647D01*
X164837371Y-104391400D01*
X164781132Y-104385354D01*
X164774518Y-104385000D01*
X164080000Y-104385000D01*
X163580000Y-104385000D01*
X163362500Y-104385000D01*
X163295461Y-104365315D01*
X163249706Y-104312511D01*
X163238500Y-104261000D01*
X163238500Y-103954831D01*
X163258185Y-103887792D01*
X163274814Y-103867155D01*
X163762151Y-103379818D01*
X163823474Y-103346334D01*
X163849832Y-103343500D01*
X164775328Y-103343500D01*
X164778638Y-103343500D01*
X164839201Y-103336989D01*
X164839203Y-103336988D01*
X164839205Y-103336988D01*
X164917124Y-103307924D01*
X164976204Y-103285889D01*
X165093261Y-103198261D01*
X165180889Y-103081204D01*
X165214534Y-102991000D01*
X165231988Y-102944205D01*
X165231988Y-102944203D01*
X165231989Y-102944201D01*
X165238500Y-102883638D01*
X165238500Y-101736362D01*
X165231989Y-101675799D01*
X165231988Y-101675797D01*
X165231988Y-101675794D01*
X165180889Y-101538796D01*
X165093261Y-101421738D01*
X164976203Y-101334110D01*
X164839205Y-101283011D01*
X164781924Y-101276853D01*
X164781918Y-101276852D01*
X164778638Y-101276500D01*
X164775328Y-101276500D01*
X164662500Y-101276500D01*
X164595461Y-101256815D01*
X164549706Y-101204011D01*
X164538500Y-101152500D01*
X164538500Y-100497500D01*
X164558185Y-100430461D01*
X164610989Y-100384706D01*
X164662500Y-100373500D01*
X164775328Y-100373500D01*
X164778638Y-100373500D01*
X164839201Y-100366989D01*
X164839203Y-100366988D01*
X164839205Y-100366988D01*
X164958058Y-100322657D01*
X164976204Y-100315889D01*
X165093261Y-100228261D01*
X165180889Y-100111204D01*
X165217463Y-100013147D01*
X165231988Y-99974205D01*
X165231988Y-99974203D01*
X165231989Y-99974201D01*
X165238500Y-99913638D01*
X165238500Y-99905649D01*
X165258185Y-99838610D01*
X165310989Y-99792855D01*
X165380147Y-99782911D01*
X165443703Y-99811936D01*
X165450179Y-99817966D01*
X166337201Y-100704989D01*
X167168849Y-101536637D01*
X167202334Y-101597960D01*
X167197350Y-101667652D01*
X167155478Y-101723585D01*
X167133574Y-101736700D01*
X166970700Y-101812650D01*
X166779567Y-101946483D01*
X166614578Y-102111472D01*
X166480744Y-102302607D01*
X166382133Y-102514077D01*
X166321741Y-102739463D01*
X166301405Y-102971904D01*
X166321741Y-103204346D01*
X166382133Y-103429732D01*
X166474436Y-103627674D01*
X166480744Y-103641202D01*
X166614578Y-103832337D01*
X166779568Y-103997327D01*
X166970703Y-104131161D01*
X167182174Y-104229772D01*
X167407556Y-104290163D01*
X167640000Y-104310499D01*
X167872444Y-104290163D01*
X168097826Y-104229772D01*
X168309297Y-104131161D01*
X168500432Y-103997327D01*
X168665422Y-103832337D01*
X168799256Y-103641202D01*
X168799256Y-103641201D01*
X168805478Y-103632316D01*
X168807370Y-103633641D01*
X168843775Y-103592284D01*
X168910966Y-103573123D01*
X168977850Y-103593329D01*
X169012728Y-103633571D01*
X169014522Y-103632316D01*
X169020743Y-103641201D01*
X169020744Y-103641202D01*
X169154578Y-103832337D01*
X169319568Y-103997327D01*
X169510703Y-104131161D01*
X169722174Y-104229772D01*
X169947556Y-104290163D01*
X170180000Y-104310499D01*
X170412444Y-104290163D01*
X170637826Y-104229772D01*
X170849297Y-104131161D01*
X171040432Y-103997327D01*
X171205422Y-103832337D01*
X171339256Y-103641202D01*
X171339256Y-103641201D01*
X171345478Y-103632316D01*
X171347368Y-103633639D01*
X171383789Y-103592276D01*
X171450983Y-103573123D01*
X171517864Y-103593338D01*
X171552727Y-103633572D01*
X171554522Y-103632316D01*
X171560743Y-103641201D01*
X171560744Y-103641202D01*
X171694578Y-103832337D01*
X171859568Y-103997327D01*
X172050703Y-104131161D01*
X172262174Y-104229772D01*
X172487556Y-104290163D01*
X172720000Y-104310499D01*
X172952444Y-104290163D01*
X173177826Y-104229772D01*
X173389297Y-104131161D01*
X173580432Y-103997327D01*
X173745422Y-103832337D01*
X173879256Y-103641202D01*
X173879256Y-103641201D01*
X173885478Y-103632316D01*
X173887368Y-103633639D01*
X173923789Y-103592276D01*
X173990983Y-103573123D01*
X174057864Y-103593338D01*
X174092727Y-103633572D01*
X174094522Y-103632316D01*
X174100743Y-103641201D01*
X174100744Y-103641202D01*
X174234578Y-103832337D01*
X174399568Y-103997327D01*
X174590703Y-104131161D01*
X174802174Y-104229772D01*
X175027556Y-104290163D01*
X175260000Y-104310499D01*
X175503252Y-104289218D01*
X175503435Y-104291309D01*
X175559249Y-104292630D01*
X175609192Y-104323067D01*
X175785181Y-104499056D01*
X175818666Y-104560379D01*
X175821500Y-104586737D01*
X175821500Y-104962500D01*
X175801815Y-105029539D01*
X175749011Y-105075294D01*
X175697500Y-105086500D01*
X175581362Y-105086500D01*
X175578082Y-105086852D01*
X175578075Y-105086853D01*
X175520794Y-105093011D01*
X175383796Y-105144110D01*
X175266738Y-105231738D01*
X175179110Y-105348796D01*
X175128011Y-105485794D01*
X175121853Y-105543075D01*
X175121500Y-105546362D01*
X175121500Y-106693638D01*
X175121852Y-106696918D01*
X175121853Y-106696924D01*
X175128011Y-106754205D01*
X175179110Y-106891203D01*
X175266738Y-107008261D01*
X175383796Y-107095889D01*
X175520794Y-107146988D01*
X175520797Y-107146988D01*
X175520799Y-107146989D01*
X175581362Y-107153500D01*
X175584672Y-107153500D01*
X177475328Y-107153500D01*
X177478638Y-107153500D01*
X177539201Y-107146989D01*
X177539203Y-107146988D01*
X177539205Y-107146988D01*
X177617124Y-107117924D01*
X177676204Y-107095889D01*
X177793261Y-107008261D01*
X177880889Y-106891204D01*
X177924520Y-106774226D01*
X177931988Y-106754205D01*
X177931988Y-106754203D01*
X177931989Y-106754201D01*
X177938500Y-106693638D01*
X177938500Y-105546362D01*
X177931989Y-105485799D01*
X177931988Y-105485797D01*
X177931988Y-105485794D01*
X177880889Y-105348796D01*
X177793261Y-105231738D01*
X177676203Y-105144110D01*
X177539205Y-105093011D01*
X177481924Y-105086853D01*
X177481918Y-105086852D01*
X177478638Y-105086500D01*
X177475328Y-105086500D01*
X177362500Y-105086500D01*
X177295461Y-105066815D01*
X177249706Y-105014011D01*
X177238500Y-104962500D01*
X177238500Y-104267056D01*
X177238726Y-104259569D01*
X177240528Y-104229771D01*
X177242401Y-104198812D01*
X177231425Y-104138921D01*
X177230305Y-104131559D01*
X177222965Y-104071104D01*
X177219282Y-104061393D01*
X177213259Y-104039787D01*
X177211388Y-104029576D01*
X177186408Y-103974074D01*
X177183544Y-103967161D01*
X177178868Y-103954831D01*
X177161954Y-103910230D01*
X177156058Y-103901689D01*
X177145032Y-103882137D01*
X177140776Y-103872680D01*
X177103233Y-103824761D01*
X177098793Y-103818727D01*
X177091955Y-103808821D01*
X177064215Y-103768632D01*
X177064214Y-103768630D01*
X177018647Y-103728262D01*
X177013193Y-103723128D01*
X176611162Y-103321097D01*
X176577677Y-103259774D01*
X176578739Y-103215281D01*
X176577313Y-103215157D01*
X176598594Y-102971905D01*
X179009938Y-102971905D01*
X179030145Y-103202866D01*
X179090151Y-103426812D01*
X179188133Y-103636937D01*
X179243023Y-103715327D01*
X179243024Y-103715328D01*
X179814070Y-103144281D01*
X179816884Y-103157820D01*
X179886442Y-103292061D01*
X179989638Y-103402557D01*
X180118819Y-103481114D01*
X180170002Y-103495454D01*
X179596575Y-104068880D01*
X179596575Y-104068881D01*
X179674967Y-104123771D01*
X179885092Y-104221753D01*
X180109038Y-104281759D01*
X180340000Y-104301966D01*
X180570961Y-104281759D01*
X180794907Y-104221753D01*
X181005028Y-104123772D01*
X181083423Y-104068880D01*
X180511568Y-103497026D01*
X180628458Y-103446254D01*
X180745739Y-103350839D01*
X180832928Y-103227320D01*
X180863354Y-103141707D01*
X181436975Y-103715328D01*
X181491867Y-103636933D01*
X181589848Y-103426812D01*
X181649854Y-103202866D01*
X181670061Y-102971905D01*
X181649854Y-102740943D01*
X181589848Y-102516997D01*
X181491867Y-102306877D01*
X181436974Y-102228481D01*
X180865929Y-102799527D01*
X180863116Y-102785990D01*
X180793558Y-102651749D01*
X180690362Y-102541253D01*
X180561181Y-102462696D01*
X180509997Y-102448355D01*
X181083423Y-101874929D01*
X181083422Y-101874928D01*
X181005032Y-101820038D01*
X180794907Y-101722056D01*
X180570961Y-101662050D01*
X180340000Y-101641843D01*
X180109038Y-101662050D01*
X179885092Y-101722056D01*
X179674968Y-101820038D01*
X179596577Y-101874928D01*
X179596576Y-101874929D01*
X180168431Y-102446783D01*
X180051542Y-102497556D01*
X179934261Y-102592971D01*
X179847072Y-102716490D01*
X179816645Y-102802102D01*
X179243024Y-102228481D01*
X179243023Y-102228482D01*
X179188133Y-102306873D01*
X179090151Y-102516997D01*
X179030145Y-102740943D01*
X179009938Y-102971905D01*
X176598594Y-102971905D01*
X176598594Y-102971904D01*
X176585388Y-102820961D01*
X176578258Y-102739461D01*
X176517867Y-102514079D01*
X176419256Y-102302608D01*
X176285422Y-102111473D01*
X176120432Y-101946483D01*
X175929297Y-101812649D01*
X175926196Y-101811203D01*
X175717827Y-101714038D01*
X175492441Y-101653646D01*
X175259999Y-101633310D01*
X175027558Y-101653646D01*
X174802172Y-101714038D01*
X174590702Y-101812649D01*
X174399567Y-101946483D01*
X174234578Y-102111472D01*
X174094522Y-102311494D01*
X174092631Y-102310170D01*
X174056204Y-102351537D01*
X173989010Y-102370686D01*
X173922130Y-102350467D01*
X173887271Y-102310238D01*
X173885478Y-102311494D01*
X173833336Y-102237027D01*
X173745422Y-102111473D01*
X173580432Y-101946483D01*
X173389297Y-101812649D01*
X173386196Y-101811203D01*
X173177827Y-101714038D01*
X172952441Y-101653646D01*
X172720000Y-101633310D01*
X172476749Y-101654592D01*
X172476566Y-101652503D01*
X172420727Y-101651172D01*
X172370807Y-101620742D01*
X172013775Y-101263710D01*
X172008658Y-101258275D01*
X171968273Y-101212690D01*
X171968272Y-101212689D01*
X171968270Y-101212687D01*
X171918170Y-101178105D01*
X171912137Y-101173666D01*
X171864225Y-101136129D01*
X171854760Y-101131869D01*
X171835216Y-101120846D01*
X171826677Y-101114952D01*
X171826675Y-101114951D01*
X171769767Y-101093368D01*
X171762848Y-101090502D01*
X171707329Y-101065516D01*
X171697111Y-101063643D01*
X171675500Y-101057618D01*
X171665802Y-101053940D01*
X171605369Y-101046601D01*
X171597970Y-101045474D01*
X171538095Y-101034502D01*
X171477324Y-101038179D01*
X171469837Y-101038405D01*
X168725921Y-101038405D01*
X168658882Y-101018720D01*
X168638240Y-101002086D01*
X167785420Y-100149266D01*
X166919397Y-99283243D01*
X166885913Y-99221922D01*
X166890897Y-99152230D01*
X166932769Y-99096297D01*
X166998233Y-99071880D01*
X167059484Y-99083182D01*
X167185092Y-99141753D01*
X167409038Y-99201759D01*
X167640000Y-99221966D01*
X167870961Y-99201759D01*
X168094907Y-99141753D01*
X168305028Y-99043772D01*
X168383423Y-98988880D01*
X167811568Y-98417026D01*
X167928458Y-98366254D01*
X168045739Y-98270839D01*
X168132928Y-98147320D01*
X168163354Y-98061707D01*
X168736975Y-98635328D01*
X168791867Y-98556934D01*
X168797615Y-98544607D01*
X168843785Y-98492166D01*
X168910977Y-98473011D01*
X168977859Y-98493224D01*
X169022380Y-98544599D01*
X169028133Y-98556937D01*
X169083023Y-98635327D01*
X169083024Y-98635328D01*
X169654070Y-98064281D01*
X169656884Y-98077820D01*
X169726442Y-98212061D01*
X169829638Y-98322557D01*
X169958819Y-98401114D01*
X170010002Y-98415454D01*
X169436575Y-98988880D01*
X169436575Y-98988881D01*
X169514967Y-99043771D01*
X169725092Y-99141753D01*
X169949038Y-99201759D01*
X170180000Y-99221966D01*
X170410961Y-99201759D01*
X170634907Y-99141753D01*
X170845028Y-99043772D01*
X170923423Y-98988880D01*
X170351568Y-98417026D01*
X170468458Y-98366254D01*
X170585739Y-98270839D01*
X170672928Y-98147320D01*
X170703354Y-98061707D01*
X171276975Y-98635328D01*
X171331864Y-98556938D01*
X171332924Y-98554666D01*
X171335522Y-98551714D01*
X171338089Y-98548049D01*
X171338497Y-98548335D01*
X171379093Y-98502223D01*
X171446285Y-98483067D01*
X171513168Y-98503278D01*
X171557690Y-98554654D01*
X171560742Y-98561200D01*
X171631230Y-98661867D01*
X171694578Y-98752337D01*
X171859568Y-98917327D01*
X172050703Y-99051161D01*
X172262174Y-99149772D01*
X172487556Y-99210163D01*
X172720000Y-99230499D01*
X172952444Y-99210163D01*
X173177826Y-99149772D01*
X173389297Y-99051161D01*
X173580432Y-98917327D01*
X173745422Y-98752337D01*
X173879256Y-98561202D01*
X173879257Y-98561200D01*
X173885478Y-98552316D01*
X173887368Y-98553639D01*
X173923789Y-98512276D01*
X173990983Y-98493123D01*
X174057864Y-98513338D01*
X174092727Y-98553572D01*
X174094522Y-98552316D01*
X174100743Y-98561200D01*
X174100744Y-98561202D01*
X174234578Y-98752337D01*
X174399568Y-98917327D01*
X174590703Y-99051161D01*
X174802174Y-99149772D01*
X175027556Y-99210163D01*
X175182518Y-99223720D01*
X175259999Y-99230499D01*
X175259999Y-99230498D01*
X175260000Y-99230499D01*
X175492444Y-99210163D01*
X175717826Y-99149772D01*
X175929297Y-99051161D01*
X176120432Y-98917327D01*
X176285422Y-98752337D01*
X176354782Y-98653279D01*
X176409358Y-98609657D01*
X176456356Y-98600405D01*
X179143644Y-98600405D01*
X179210683Y-98620090D01*
X179245216Y-98653278D01*
X179314578Y-98752337D01*
X179479568Y-98917327D01*
X179670703Y-99051161D01*
X179882174Y-99149772D01*
X180107556Y-99210163D01*
X180262518Y-99223720D01*
X180339999Y-99230499D01*
X180339999Y-99230498D01*
X180340000Y-99230499D01*
X180572444Y-99210163D01*
X180797826Y-99149772D01*
X181009297Y-99051161D01*
X181200432Y-98917327D01*
X181365422Y-98752337D01*
X181499256Y-98561202D01*
X181597867Y-98349731D01*
X181658258Y-98124349D01*
X181678594Y-97891905D01*
X181658258Y-97659461D01*
X181597867Y-97434079D01*
X181499256Y-97222608D01*
X181365422Y-97031473D01*
X181200432Y-96866483D01*
X181009297Y-96732649D01*
X180978290Y-96718190D01*
X180797827Y-96634038D01*
X180572441Y-96573646D01*
X180340000Y-96553310D01*
X180107558Y-96573646D01*
X179882172Y-96634038D01*
X179670702Y-96732649D01*
X179479567Y-96866483D01*
X179314581Y-97031469D01*
X179314578Y-97031472D01*
X179314578Y-97031473D01*
X179245217Y-97130530D01*
X179190642Y-97174153D01*
X179143644Y-97183405D01*
X176456356Y-97183405D01*
X176389317Y-97163720D01*
X176354783Y-97130531D01*
X176285422Y-97031473D01*
X176120432Y-96866483D01*
X175929297Y-96732649D01*
X175898290Y-96718190D01*
X175717827Y-96634038D01*
X175492441Y-96573646D01*
X175260000Y-96553310D01*
X175027558Y-96573646D01*
X174802172Y-96634038D01*
X174590702Y-96732649D01*
X174399567Y-96866483D01*
X174234578Y-97031472D01*
X174094522Y-97231494D01*
X174092631Y-97230170D01*
X174056204Y-97271537D01*
X173989010Y-97290686D01*
X173922130Y-97270467D01*
X173887271Y-97230238D01*
X173885478Y-97231494D01*
X173861099Y-97196677D01*
X173745422Y-97031473D01*
X173580432Y-96866483D01*
X173389297Y-96732649D01*
X173358290Y-96718190D01*
X173177827Y-96634038D01*
X172952441Y-96573646D01*
X172719999Y-96553310D01*
X172498642Y-96572676D01*
X172430142Y-96558909D01*
X172379959Y-96510294D01*
X172364026Y-96442265D01*
X172387402Y-96376422D01*
X172442664Y-96333668D01*
X172444502Y-96332966D01*
X172497088Y-96313352D01*
X172612188Y-96227188D01*
X172698352Y-96112089D01*
X172748599Y-95977371D01*
X172754645Y-95921132D01*
X172755000Y-95914518D01*
X172755000Y-95220000D01*
X171604000Y-95220000D01*
X171536961Y-95200315D01*
X171491206Y-95147511D01*
X171480000Y-95096000D01*
X171480000Y-93570000D01*
X171980000Y-93570000D01*
X171980000Y-94720000D01*
X172755000Y-94720000D01*
X172755000Y-94025481D01*
X172754645Y-94018867D01*
X172748599Y-93962628D01*
X172698352Y-93827910D01*
X172612188Y-93712811D01*
X172497089Y-93626647D01*
X172362371Y-93576400D01*
X172306132Y-93570354D01*
X172299518Y-93570000D01*
X171980000Y-93570000D01*
X171480000Y-93570000D01*
X171160482Y-93570000D01*
X171153867Y-93570354D01*
X171097628Y-93576400D01*
X170962910Y-93626647D01*
X170847811Y-93712811D01*
X170761647Y-93827910D01*
X170711400Y-93962628D01*
X170705354Y-94018867D01*
X170705000Y-94025481D01*
X170705000Y-94818668D01*
X170685315Y-94885707D01*
X170632511Y-94931462D01*
X170563353Y-94941406D01*
X170499797Y-94912381D01*
X170493319Y-94906349D01*
X170073775Y-94486805D01*
X170068658Y-94481370D01*
X170028273Y-94435785D01*
X170028272Y-94435784D01*
X170028270Y-94435782D01*
X169978170Y-94401200D01*
X169972137Y-94396761D01*
X169924225Y-94359224D01*
X169914760Y-94354964D01*
X169895216Y-94343941D01*
X169886677Y-94338047D01*
X169886675Y-94338046D01*
X169829767Y-94316463D01*
X169822848Y-94313597D01*
X169767326Y-94288609D01*
X169765141Y-94288209D01*
X169754352Y-94282770D01*
X169753602Y-94282433D01*
X169753616Y-94282399D01*
X169702750Y-94256759D01*
X169667266Y-94196570D01*
X169663500Y-94166242D01*
X169663500Y-94024671D01*
X169663500Y-94024670D01*
X169663500Y-94021362D01*
X169656989Y-93960799D01*
X169656988Y-93960797D01*
X169656988Y-93960794D01*
X169605889Y-93823796D01*
X169518261Y-93706738D01*
X169401203Y-93619110D01*
X169264205Y-93568011D01*
X169206924Y-93561853D01*
X169206918Y-93561852D01*
X169203638Y-93561500D01*
X168056362Y-93561500D01*
X168053082Y-93561852D01*
X168053075Y-93561853D01*
X167995794Y-93568011D01*
X167858796Y-93619110D01*
X167741738Y-93706738D01*
X167654110Y-93823796D01*
X167603011Y-93960794D01*
X167596853Y-94018075D01*
X167596500Y-94021362D01*
X167596500Y-95918638D01*
X167596852Y-95921918D01*
X167596853Y-95921924D01*
X167603011Y-95979205D01*
X167654110Y-96116203D01*
X167741738Y-96233261D01*
X167858793Y-96320887D01*
X167858796Y-96320889D01*
X167913616Y-96341336D01*
X167969548Y-96383207D01*
X167977905Y-96405614D01*
X167982876Y-96399595D01*
X168049428Y-96378321D01*
X168055550Y-96378412D01*
X168056362Y-96378500D01*
X168059683Y-96378500D01*
X169200328Y-96378500D01*
X169203638Y-96378500D01*
X169264201Y-96371989D01*
X169264203Y-96371988D01*
X169264205Y-96371988D01*
X169346387Y-96341335D01*
X169401204Y-96320889D01*
X169518261Y-96233261D01*
X169560094Y-96177378D01*
X169616025Y-96135510D01*
X169685716Y-96130525D01*
X169747037Y-96164007D01*
X169747040Y-96164010D01*
X169967556Y-96384526D01*
X170001041Y-96445849D01*
X169996057Y-96515541D01*
X169954185Y-96571474D01*
X169911969Y-96591982D01*
X169725091Y-96642056D01*
X169514968Y-96740038D01*
X169436577Y-96794928D01*
X169436576Y-96794929D01*
X170008431Y-97366783D01*
X169891542Y-97417556D01*
X169774261Y-97512971D01*
X169687072Y-97636490D01*
X169656645Y-97722102D01*
X169083024Y-97148481D01*
X169083023Y-97148482D01*
X169028134Y-97226872D01*
X169022382Y-97239209D01*
X168976209Y-97291648D01*
X168909015Y-97310799D01*
X168842134Y-97290583D01*
X168797618Y-97239209D01*
X168791866Y-97226875D01*
X168736974Y-97148481D01*
X168165929Y-97719527D01*
X168163116Y-97705990D01*
X168093558Y-97571749D01*
X167990362Y-97461253D01*
X167861181Y-97382696D01*
X167809995Y-97368354D01*
X168383423Y-96794928D01*
X168305032Y-96740038D01*
X168094908Y-96642056D01*
X168020285Y-96622061D01*
X167960625Y-96585696D01*
X167944191Y-96551865D01*
X167929707Y-96566349D01*
X167861434Y-96581201D01*
X167859474Y-96581045D01*
X167640000Y-96561843D01*
X167409038Y-96582050D01*
X167185092Y-96642056D01*
X166974968Y-96740038D01*
X166896576Y-96794928D01*
X166896576Y-96794929D01*
X167468431Y-97366783D01*
X167351542Y-97417556D01*
X167234261Y-97512971D01*
X167147072Y-97636490D01*
X167116645Y-97722102D01*
X166543024Y-97148481D01*
X166543023Y-97148482D01*
X166488133Y-97226873D01*
X166390151Y-97436997D01*
X166330145Y-97660943D01*
X166309938Y-97891904D01*
X166330145Y-98122866D01*
X166390151Y-98346812D01*
X166448723Y-98472420D01*
X166459215Y-98541498D01*
X166430695Y-98605282D01*
X166372219Y-98643521D01*
X166302351Y-98644076D01*
X166248660Y-98612506D01*
X165006386Y-97370233D01*
X164972901Y-97308910D01*
X164977885Y-97239218D01*
X165019756Y-97183286D01*
X165093261Y-97128261D01*
X165180889Y-97011204D01*
X165219348Y-96908093D01*
X165231988Y-96874205D01*
X165231988Y-96874203D01*
X165231989Y-96874201D01*
X165238500Y-96813638D01*
X165238500Y-95666362D01*
X165231989Y-95605799D01*
X165231988Y-95605797D01*
X165231988Y-95605794D01*
X165180889Y-95468796D01*
X165093261Y-95351738D01*
X164976203Y-95264110D01*
X164839205Y-95213011D01*
X164781924Y-95206853D01*
X164781918Y-95206852D01*
X164778638Y-95206500D01*
X162881362Y-95206500D01*
X162878082Y-95206852D01*
X162878075Y-95206853D01*
X162820794Y-95213011D01*
X162683796Y-95264110D01*
X162566738Y-95351738D01*
X162479110Y-95468796D01*
X162428011Y-95605794D01*
X162422274Y-95659161D01*
X162421500Y-95666362D01*
X162421500Y-95669671D01*
X162421500Y-96630168D01*
X162401815Y-96697207D01*
X162349011Y-96742962D01*
X162279853Y-96752906D01*
X162216297Y-96723881D01*
X162209819Y-96717849D01*
X162099819Y-96607849D01*
X162066334Y-96546526D01*
X162063500Y-96520168D01*
X162063500Y-93815168D01*
X162063726Y-93807681D01*
X162064596Y-93793292D01*
X162067402Y-93746908D01*
X162056425Y-93687011D01*
X162055301Y-93679621D01*
X162047965Y-93619199D01*
X162044286Y-93609500D01*
X162038260Y-93587881D01*
X162036389Y-93577671D01*
X162011403Y-93522155D01*
X162008536Y-93515233D01*
X161998193Y-93487961D01*
X161986954Y-93458325D01*
X161981057Y-93449781D01*
X161970034Y-93430236D01*
X161965775Y-93420774D01*
X161928233Y-93372856D01*
X161923793Y-93366822D01*
X161889214Y-93316725D01*
X161843647Y-93276357D01*
X161838193Y-93271223D01*
X161499819Y-92932849D01*
X161466334Y-92871526D01*
X161463500Y-92845168D01*
X161463500Y-92694671D01*
X161463500Y-92691362D01*
X161456989Y-92630799D01*
X161405889Y-92493796D01*
X161405888Y-92493795D01*
X161399658Y-92477091D01*
X161403125Y-92475797D01*
X161389343Y-92438841D01*
X161401372Y-92383548D01*
X161399658Y-92382909D01*
X161404107Y-92370979D01*
X161404197Y-92370568D01*
X161404349Y-92370330D01*
X161405886Y-92366206D01*
X161405889Y-92366204D01*
X161456989Y-92229201D01*
X161463500Y-92168638D01*
X161463499Y-92014830D01*
X161483185Y-91947792D01*
X161499815Y-91927154D01*
X161838208Y-91588760D01*
X161843611Y-91583673D01*
X161889215Y-91543273D01*
X161923816Y-91493143D01*
X161928222Y-91487157D01*
X161965775Y-91439226D01*
X161970037Y-91429754D01*
X161981055Y-91410219D01*
X161986954Y-91401675D01*
X162002456Y-91360799D01*
X162008542Y-91344752D01*
X162011400Y-91337850D01*
X162036389Y-91282329D01*
X162038260Y-91272113D01*
X162044287Y-91250498D01*
X162047965Y-91240801D01*
X162055304Y-91180354D01*
X162056420Y-91173014D01*
X162058805Y-91160000D01*
X165091634Y-91160000D01*
X165111055Y-91381983D01*
X165168731Y-91597230D01*
X165262902Y-91799183D01*
X165390715Y-91981716D01*
X165548283Y-92139284D01*
X165730816Y-92267097D01*
X165856542Y-92325723D01*
X165932773Y-92361270D01*
X166148014Y-92418944D01*
X166370000Y-92438365D01*
X166465614Y-92430000D01*
X174486641Y-92430000D01*
X174486823Y-92433356D01*
X174505881Y-92784878D01*
X174505882Y-92784894D01*
X174506064Y-92788237D01*
X174506606Y-92791547D01*
X174506607Y-92791550D01*
X174563561Y-93138960D01*
X174563563Y-93138972D01*
X174564105Y-93142274D01*
X174565001Y-93145503D01*
X174565004Y-93145514D01*
X174604267Y-93286924D01*
X174660085Y-93487961D01*
X174661329Y-93491084D01*
X174661330Y-93491086D01*
X174790453Y-93815161D01*
X174792877Y-93821243D01*
X174794447Y-93824205D01*
X174794452Y-93824215D01*
X174869347Y-93965481D01*
X174960925Y-94138215D01*
X174962812Y-94140998D01*
X174962815Y-94141003D01*
X175137794Y-94399077D01*
X175162258Y-94435159D01*
X175249439Y-94537797D01*
X175340776Y-94645328D01*
X175394516Y-94708595D01*
X175396947Y-94710898D01*
X175396953Y-94710904D01*
X175513023Y-94820851D01*
X175654977Y-94955317D01*
X175940586Y-95172431D01*
X176247995Y-95357393D01*
X176573599Y-95508033D01*
X176913583Y-95622587D01*
X177263958Y-95699711D01*
X177620618Y-95738500D01*
X177623976Y-95738500D01*
X177976024Y-95738500D01*
X177979382Y-95738500D01*
X178336042Y-95699711D01*
X178686417Y-95622587D01*
X179026401Y-95508033D01*
X179352005Y-95357393D01*
X179659414Y-95172431D01*
X179945023Y-94955317D01*
X180205484Y-94708595D01*
X180437742Y-94435159D01*
X180639075Y-94138215D01*
X180807123Y-93821243D01*
X180939915Y-93487961D01*
X181035895Y-93142274D01*
X181093936Y-92788237D01*
X181113359Y-92430000D01*
X181093936Y-92071763D01*
X181035895Y-91717726D01*
X180939915Y-91372039D01*
X180807123Y-91038757D01*
X180796120Y-91018004D01*
X180734588Y-90901942D01*
X180639075Y-90721785D01*
X180437742Y-90424841D01*
X180230381Y-90180716D01*
X180207657Y-90153963D01*
X180207654Y-90153960D01*
X180205484Y-90151405D01*
X180203051Y-90149100D01*
X180203046Y-90149095D01*
X179982382Y-89940071D01*
X179945023Y-89904683D01*
X179731264Y-89742188D01*
X179662082Y-89689597D01*
X179662080Y-89689595D01*
X179659414Y-89687569D01*
X179656540Y-89685840D01*
X179656536Y-89685837D01*
X179354887Y-89504341D01*
X179354886Y-89504340D01*
X179352005Y-89502607D01*
X179305023Y-89480871D01*
X179029455Y-89353380D01*
X179029456Y-89353380D01*
X179026401Y-89351967D01*
X178933957Y-89320819D01*
X178689591Y-89238482D01*
X178689583Y-89238479D01*
X178686417Y-89237413D01*
X178683150Y-89236694D01*
X178683147Y-89236693D01*
X178339323Y-89161011D01*
X178339319Y-89161010D01*
X178336042Y-89160289D01*
X178332706Y-89159926D01*
X178332699Y-89159925D01*
X177982720Y-89121863D01*
X177982719Y-89121862D01*
X177979382Y-89121500D01*
X177620618Y-89121500D01*
X177617281Y-89121862D01*
X177617279Y-89121863D01*
X177267300Y-89159925D01*
X177267290Y-89159926D01*
X177263958Y-89160289D01*
X177260683Y-89161009D01*
X177260676Y-89161011D01*
X176916852Y-89236693D01*
X176916844Y-89236695D01*
X176913583Y-89237413D01*
X176910421Y-89238478D01*
X176910408Y-89238482D01*
X176576786Y-89350893D01*
X176576783Y-89350894D01*
X176573599Y-89351967D01*
X176570550Y-89353377D01*
X176570544Y-89353380D01*
X176251050Y-89501193D01*
X176251040Y-89501197D01*
X176247995Y-89502607D01*
X176245121Y-89504336D01*
X176245112Y-89504341D01*
X175943463Y-89685837D01*
X175943450Y-89685845D01*
X175940586Y-89687569D01*
X175937928Y-89689589D01*
X175937917Y-89689597D01*
X175657636Y-89902661D01*
X175657628Y-89902667D01*
X175654977Y-89904683D01*
X175652553Y-89906978D01*
X175652546Y-89906985D01*
X175396953Y-90149095D01*
X175396938Y-90149110D01*
X175394516Y-90151405D01*
X175392353Y-90153950D01*
X175392342Y-90153963D01*
X175164431Y-90422282D01*
X175164425Y-90422289D01*
X175162258Y-90424841D01*
X175160378Y-90427613D01*
X175160371Y-90427623D01*
X174962815Y-90718996D01*
X174962807Y-90719008D01*
X174960925Y-90721785D01*
X174959350Y-90724755D01*
X174959348Y-90724759D01*
X174794452Y-91035784D01*
X174794443Y-91035801D01*
X174792877Y-91038757D01*
X174791636Y-91041869D01*
X174791632Y-91041880D01*
X174661330Y-91368913D01*
X174661327Y-91368921D01*
X174660085Y-91372039D01*
X174659185Y-91375277D01*
X174659185Y-91375280D01*
X174565004Y-91714485D01*
X174565000Y-91714500D01*
X174564105Y-91717726D01*
X174563564Y-91721023D01*
X174563561Y-91721039D01*
X174506784Y-92067371D01*
X174506064Y-92071763D01*
X174505882Y-92075103D01*
X174505881Y-92075121D01*
X174488577Y-92394284D01*
X174486641Y-92430000D01*
X166465614Y-92430000D01*
X166591986Y-92418944D01*
X166807227Y-92361270D01*
X167009183Y-92267097D01*
X167191717Y-92139284D01*
X167349284Y-91981717D01*
X167477097Y-91799183D01*
X167571270Y-91597227D01*
X167628944Y-91381986D01*
X167648365Y-91160000D01*
X167628944Y-90938014D01*
X167571270Y-90722773D01*
X167477097Y-90520818D01*
X167349284Y-90338283D01*
X167191717Y-90180716D01*
X167091543Y-90110572D01*
X167047920Y-90055997D01*
X167040728Y-89986499D01*
X167072250Y-89924144D01*
X167132480Y-89888731D01*
X167162669Y-89885000D01*
X167179518Y-89885000D01*
X167186132Y-89884645D01*
X167242371Y-89878599D01*
X167377089Y-89828352D01*
X167492188Y-89742188D01*
X167578352Y-89627089D01*
X167628599Y-89492371D01*
X167634645Y-89436132D01*
X167635000Y-89429518D01*
X167635000Y-88870000D01*
X166815572Y-88870000D01*
X166838682Y-88834040D01*
X166880000Y-88693327D01*
X166880000Y-88546673D01*
X166838682Y-88405960D01*
X166815572Y-88370000D01*
X167635000Y-88370000D01*
X167635000Y-87810481D01*
X167634645Y-87803867D01*
X167628599Y-87747628D01*
X167578352Y-87612910D01*
X167492188Y-87497811D01*
X167377089Y-87411647D01*
X167242371Y-87361400D01*
X167186132Y-87355354D01*
X167179518Y-87355000D01*
X166620000Y-87355000D01*
X166620000Y-88173505D01*
X166515161Y-88125627D01*
X166406473Y-88110000D01*
X166333527Y-88110000D01*
X166224839Y-88125627D01*
X166120000Y-88173505D01*
X166120000Y-87355000D01*
X165560482Y-87355000D01*
X165553867Y-87355354D01*
X165497628Y-87361400D01*
X165362910Y-87411647D01*
X165247811Y-87497811D01*
X165161647Y-87612910D01*
X165111400Y-87747628D01*
X165105354Y-87803867D01*
X165105000Y-87810481D01*
X165105000Y-88370000D01*
X165924428Y-88370000D01*
X165901318Y-88405960D01*
X165860000Y-88546673D01*
X165860000Y-88693327D01*
X165901318Y-88834040D01*
X165924428Y-88870000D01*
X165105000Y-88870000D01*
X165105000Y-89429518D01*
X165105354Y-89436132D01*
X165111400Y-89492371D01*
X165161647Y-89627089D01*
X165247811Y-89742188D01*
X165362910Y-89828352D01*
X165497628Y-89878599D01*
X165553867Y-89884645D01*
X165560482Y-89885000D01*
X165577331Y-89885000D01*
X165644370Y-89904685D01*
X165690125Y-89957489D01*
X165700069Y-90026647D01*
X165671044Y-90090203D01*
X165648457Y-90110572D01*
X165590143Y-90151405D01*
X165548280Y-90180718D01*
X165390719Y-90338279D01*
X165390716Y-90338282D01*
X165390716Y-90338283D01*
X165280904Y-90495111D01*
X165262902Y-90520820D01*
X165168730Y-90722771D01*
X165111055Y-90938016D01*
X165091634Y-91160000D01*
X162058805Y-91160000D01*
X162067402Y-91113092D01*
X162063726Y-91052316D01*
X162063500Y-91044830D01*
X162063500Y-89263168D01*
X162063726Y-89255681D01*
X162067402Y-89194908D01*
X162056425Y-89135011D01*
X162055301Y-89127621D01*
X162054558Y-89121500D01*
X162047965Y-89067199D01*
X162044288Y-89057503D01*
X162038260Y-89035880D01*
X162036389Y-89025670D01*
X162023965Y-88998067D01*
X162011398Y-88970146D01*
X162008549Y-88963269D01*
X161986954Y-88906325D01*
X161986952Y-88906322D01*
X161981060Y-88897786D01*
X161970034Y-88878240D01*
X161965775Y-88868775D01*
X161928234Y-88820857D01*
X161923801Y-88814832D01*
X161889215Y-88764726D01*
X161843647Y-88724357D01*
X161838193Y-88719223D01*
X159391348Y-86272378D01*
X159357863Y-86211055D01*
X159358988Y-86153615D01*
X159372172Y-86102697D01*
X159382303Y-85902930D01*
X159352014Y-85705212D01*
X159282544Y-85517639D01*
X159176739Y-85347889D01*
X159077463Y-85243451D01*
X159038930Y-85202914D01*
X158950861Y-85141616D01*
X158874756Y-85088645D01*
X158690942Y-85009765D01*
X158495012Y-84969500D01*
X157695123Y-84969500D01*
X157692012Y-84969816D01*
X157691999Y-84969817D01*
X157545999Y-84984664D01*
X157355151Y-85044544D01*
X157180259Y-85141615D01*
X157028489Y-85271907D01*
X156906054Y-85430078D01*
X156817964Y-85609664D01*
X156767828Y-85803302D01*
X156757696Y-86003071D01*
X156787985Y-86200788D01*
X156857455Y-86388360D01*
X156963260Y-86558110D01*
X157054175Y-86653753D01*
X157101071Y-86703087D01*
X157265244Y-86817355D01*
X157449058Y-86896235D01*
X157644988Y-86936500D01*
X158000168Y-86936500D01*
X158067207Y-86956185D01*
X158087849Y-86972819D01*
X159640654Y-88525624D01*
X159674139Y-88586947D01*
X159669155Y-88656639D01*
X159627283Y-88712572D01*
X159561819Y-88736989D01*
X159527192Y-88734595D01*
X159371489Y-88701500D01*
X159371487Y-88701500D01*
X159180513Y-88701500D01*
X159180511Y-88701500D01*
X158993714Y-88741204D01*
X158819248Y-88818881D01*
X158738130Y-88877818D01*
X158672324Y-88901298D01*
X158665244Y-88901500D01*
X151319898Y-88901500D01*
X151252859Y-88881815D01*
X151220631Y-88851810D01*
X151123261Y-88721738D01*
X151006203Y-88634110D01*
X150869205Y-88583011D01*
X150811924Y-88576853D01*
X150811918Y-88576852D01*
X150808638Y-88576500D01*
X148911362Y-88576500D01*
X148908082Y-88576852D01*
X148908075Y-88576853D01*
X148850794Y-88583011D01*
X148713796Y-88634110D01*
X148596738Y-88721738D01*
X148509110Y-88838796D01*
X148458011Y-88975794D01*
X148457393Y-88981544D01*
X148451500Y-89036362D01*
X148451500Y-90183638D01*
X148451852Y-90186918D01*
X148451853Y-90186924D01*
X148458011Y-90244205D01*
X148509110Y-90381203D01*
X148596738Y-90498261D01*
X148713796Y-90585889D01*
X148850794Y-90636988D01*
X148850797Y-90636988D01*
X148850799Y-90636989D01*
X148911362Y-90643500D01*
X148914672Y-90643500D01*
X150625167Y-90643500D01*
X150692206Y-90663185D01*
X150737961Y-90715989D01*
X150747905Y-90785147D01*
X150718880Y-90848703D01*
X150712848Y-90855181D01*
X149927849Y-91640181D01*
X149866526Y-91673666D01*
X149840168Y-91676500D01*
X148911362Y-91676500D01*
X148908082Y-91676852D01*
X148908075Y-91676853D01*
X148850794Y-91683011D01*
X148713796Y-91734110D01*
X148596738Y-91821738D01*
X148509110Y-91938796D01*
X148458011Y-92075794D01*
X148451853Y-92133075D01*
X148451500Y-92136362D01*
X148451500Y-93283638D01*
X148451852Y-93286918D01*
X148451853Y-93286924D01*
X148458011Y-93344205D01*
X148509110Y-93481203D01*
X148596738Y-93598261D01*
X148713796Y-93685889D01*
X148850794Y-93736988D01*
X148850797Y-93736988D01*
X148850799Y-93736989D01*
X148911362Y-93743500D01*
X148914672Y-93743500D01*
X150805328Y-93743500D01*
X150808638Y-93743500D01*
X150869201Y-93736989D01*
X150869203Y-93736988D01*
X150869205Y-93736988D01*
X150950306Y-93706738D01*
X151006204Y-93685889D01*
X151123261Y-93598261D01*
X151210889Y-93481204D01*
X151251301Y-93372856D01*
X151261988Y-93344205D01*
X151261988Y-93344203D01*
X151261989Y-93344201D01*
X151268500Y-93283638D01*
X151268500Y-92354831D01*
X151288185Y-92287792D01*
X151304819Y-92267150D01*
X152302151Y-91269819D01*
X152363474Y-91236334D01*
X152389832Y-91233500D01*
X153378651Y-91233500D01*
X153445690Y-91253185D01*
X153491445Y-91305989D01*
X153501940Y-91370755D01*
X153496854Y-91418057D01*
X153496852Y-91418081D01*
X153496500Y-91421362D01*
X153496500Y-92168638D01*
X153496852Y-92171918D01*
X153496853Y-92171924D01*
X153503011Y-92229205D01*
X153560341Y-92382908D01*
X153556874Y-92384201D01*
X153570656Y-92421141D01*
X153558629Y-92476453D01*
X153560341Y-92477092D01*
X153555904Y-92488987D01*
X153555811Y-92489416D01*
X153555651Y-92489663D01*
X153503011Y-92630794D01*
X153496855Y-92688057D01*
X153496500Y-92691362D01*
X153496500Y-92694670D01*
X153496500Y-92694671D01*
X153496500Y-92845167D01*
X153476815Y-92912206D01*
X153460181Y-92932848D01*
X153121804Y-93271224D01*
X153116352Y-93276357D01*
X153070783Y-93316728D01*
X153036201Y-93366827D01*
X153031765Y-93372856D01*
X152994225Y-93420773D01*
X152989964Y-93430240D01*
X152978946Y-93449775D01*
X152973045Y-93458325D01*
X152951457Y-93515245D01*
X152948593Y-93522161D01*
X152923610Y-93577671D01*
X152921738Y-93587889D01*
X152915714Y-93609496D01*
X152912035Y-93619196D01*
X152904696Y-93679632D01*
X152903569Y-93687031D01*
X152892597Y-93746905D01*
X152896274Y-93807674D01*
X152896500Y-93815161D01*
X152896500Y-97540167D01*
X152876815Y-97607206D01*
X152860181Y-97627848D01*
X152425218Y-98062810D01*
X152363895Y-98096295D01*
X152294203Y-98091311D01*
X152291386Y-98089773D01*
X152139205Y-98033011D01*
X152081924Y-98026853D01*
X152081918Y-98026852D01*
X152078638Y-98026500D01*
X150181362Y-98026500D01*
X150178082Y-98026852D01*
X150178075Y-98026853D01*
X150120794Y-98033011D01*
X149983796Y-98084110D01*
X149866738Y-98171738D01*
X149779110Y-98288796D01*
X149728011Y-98425794D01*
X149726279Y-98441905D01*
X149721500Y-98486362D01*
X149721500Y-99633638D01*
X149721852Y-99636918D01*
X149721853Y-99636924D01*
X149728011Y-99694205D01*
X149779110Y-99831203D01*
X149866739Y-99948262D01*
X149870041Y-99950734D01*
X149911912Y-100006668D01*
X149916896Y-100076359D01*
X149883410Y-100137682D01*
X149870041Y-100149266D01*
X149866739Y-100151737D01*
X149779110Y-100268796D01*
X149728011Y-100405794D01*
X149723690Y-100445989D01*
X149721500Y-100466362D01*
X149721500Y-101613638D01*
X149721852Y-101616918D01*
X149721853Y-101616924D01*
X149728011Y-101674205D01*
X149779110Y-101811203D01*
X149866738Y-101928261D01*
X149983796Y-102015889D01*
X150120794Y-102066988D01*
X150120797Y-102066988D01*
X150120799Y-102066989D01*
X150181362Y-102073500D01*
X151110168Y-102073500D01*
X151177207Y-102093185D01*
X151197849Y-102109819D01*
X151685181Y-102597150D01*
X151718666Y-102658473D01*
X151721500Y-102684831D01*
X151721500Y-102991000D01*
X151701815Y-103058039D01*
X151649011Y-103103794D01*
X151597500Y-103115000D01*
X151380000Y-103115000D01*
X151380000Y-105165000D01*
X151597500Y-105165000D01*
X151664539Y-105184685D01*
X151710294Y-105237489D01*
X151721500Y-105289000D01*
X151721500Y-106379837D01*
X151721274Y-106387324D01*
X151717597Y-106448095D01*
X151728569Y-106507970D01*
X151729696Y-106515369D01*
X151737035Y-106575802D01*
X151740713Y-106585500D01*
X151746738Y-106607111D01*
X151748611Y-106617329D01*
X151773597Y-106672848D01*
X151776463Y-106679766D01*
X151798047Y-106736677D01*
X151803941Y-106745216D01*
X151814964Y-106764760D01*
X151819224Y-106774225D01*
X151856761Y-106822137D01*
X151861200Y-106828170D01*
X151895782Y-106878270D01*
X151895784Y-106878272D01*
X151895785Y-106878273D01*
X151941370Y-106918658D01*
X151946805Y-106923775D01*
X153460181Y-108437151D01*
X153493666Y-108498474D01*
X153496500Y-108524832D01*
X153496500Y-108678638D01*
X153496852Y-108681918D01*
X153496853Y-108681924D01*
X153503011Y-108739205D01*
X153560341Y-108892908D01*
X153559212Y-108893328D01*
X153575965Y-108938242D01*
X153564701Y-108990022D01*
X153567878Y-108991207D01*
X153511400Y-109142628D01*
X153505354Y-109198867D01*
X153505000Y-109205481D01*
X153505000Y-109325000D01*
X156033000Y-109325000D01*
X156033000Y-109205481D01*
X156032645Y-109198871D01*
X156029592Y-109170470D01*
X156041996Y-109101710D01*
X156089606Y-109050572D01*
X156157305Y-109033292D01*
X156223600Y-109055356D01*
X156240560Y-109069531D01*
X156745230Y-109574201D01*
X157229231Y-110058202D01*
X157234365Y-110063656D01*
X157274727Y-110109215D01*
X157304986Y-110130101D01*
X157324838Y-110143805D01*
X157330857Y-110148234D01*
X157378774Y-110185774D01*
X157388230Y-110190029D01*
X157407780Y-110201056D01*
X157416325Y-110206954D01*
X157473248Y-110228542D01*
X157480169Y-110231409D01*
X157535665Y-110256386D01*
X157535670Y-110256388D01*
X157545882Y-110258259D01*
X157567490Y-110264282D01*
X157577199Y-110267965D01*
X157637633Y-110275302D01*
X157645025Y-110276426D01*
X157704907Y-110287401D01*
X157760964Y-110284010D01*
X157765666Y-110283726D01*
X157773152Y-110283500D01*
X158181168Y-110283500D01*
X158248207Y-110303185D01*
X158293962Y-110355989D01*
X158303906Y-110425147D01*
X158274881Y-110488703D01*
X158268849Y-110495181D01*
X158248849Y-110515181D01*
X158187526Y-110548666D01*
X158161168Y-110551500D01*
X155869597Y-110551500D01*
X155802558Y-110531815D01*
X155756803Y-110479011D01*
X155746859Y-110409853D01*
X155775884Y-110346297D01*
X155795286Y-110328233D01*
X155890188Y-110257189D01*
X155976352Y-110142089D01*
X156026599Y-110007371D01*
X156032645Y-109951132D01*
X156033000Y-109944518D01*
X156033000Y-109825000D01*
X153505000Y-109825000D01*
X153505000Y-109944518D01*
X153505354Y-109951132D01*
X153511400Y-110007371D01*
X153561647Y-110142089D01*
X153647811Y-110257189D01*
X153742714Y-110328233D01*
X153784585Y-110384167D01*
X153789569Y-110453859D01*
X153756084Y-110515182D01*
X153694761Y-110548666D01*
X153668403Y-110551500D01*
X150105152Y-110551500D01*
X150097666Y-110551274D01*
X150036905Y-110547598D01*
X149977039Y-110558569D01*
X149969637Y-110559696D01*
X149909197Y-110567035D01*
X149899489Y-110570717D01*
X149877879Y-110576741D01*
X149867669Y-110578612D01*
X149812156Y-110603595D01*
X149805241Y-110606459D01*
X149748323Y-110628046D01*
X149739774Y-110633947D01*
X149720239Y-110644965D01*
X149710774Y-110649225D01*
X149662861Y-110686761D01*
X149656834Y-110691196D01*
X149606728Y-110725783D01*
X149566365Y-110771343D01*
X149561232Y-110776795D01*
X147062849Y-113275181D01*
X147001526Y-113308666D01*
X146975168Y-113311500D01*
X145341138Y-113311500D01*
X145274099Y-113291815D01*
X145228344Y-113239011D01*
X145218400Y-113169853D01*
X145224956Y-113144166D01*
X145253599Y-113067371D01*
X145259645Y-113011132D01*
X145260000Y-113004518D01*
X145260000Y-112560000D01*
X144334000Y-112560000D01*
X144266961Y-112540315D01*
X144221206Y-112487511D01*
X144210000Y-112436000D01*
X144210000Y-111215454D01*
X144226283Y-111160000D01*
X144710000Y-111160000D01*
X144710000Y-112060000D01*
X145260000Y-112060000D01*
X145260000Y-111615481D01*
X145259645Y-111608867D01*
X145253599Y-111552628D01*
X145203352Y-111417910D01*
X145117188Y-111302811D01*
X145002089Y-111216647D01*
X144867371Y-111166400D01*
X144811132Y-111160354D01*
X144804518Y-111160000D01*
X144710000Y-111160000D01*
X144226283Y-111160000D01*
X144229685Y-111148415D01*
X144234721Y-111141159D01*
X144260889Y-111106204D01*
X144288582Y-111031956D01*
X144311988Y-110969205D01*
X144311988Y-110969203D01*
X144311989Y-110969201D01*
X144318500Y-110908638D01*
X144318500Y-110454831D01*
X144338185Y-110387792D01*
X144354814Y-110367154D01*
X145543208Y-109178760D01*
X145548611Y-109173673D01*
X145594215Y-109133273D01*
X145628816Y-109083143D01*
X145633222Y-109077157D01*
X145639196Y-109069532D01*
X145670775Y-109029226D01*
X145675037Y-109019754D01*
X145686055Y-109000219D01*
X145691954Y-108991675D01*
X145708192Y-108948858D01*
X145713542Y-108934752D01*
X145716400Y-108927850D01*
X145741389Y-108872329D01*
X145743259Y-108862123D01*
X145749287Y-108840499D01*
X145749747Y-108839283D01*
X145752965Y-108830801D01*
X145760303Y-108770364D01*
X145761424Y-108762994D01*
X145772402Y-108703093D01*
X145768726Y-108642324D01*
X145768500Y-108634837D01*
X145768500Y-107859899D01*
X145788185Y-107792860D01*
X145818189Y-107760632D01*
X145831204Y-107750889D01*
X145948261Y-107663261D01*
X146035889Y-107546204D01*
X146060556Y-107480070D01*
X146086988Y-107409205D01*
X146086988Y-107409203D01*
X146086989Y-107409201D01*
X146093500Y-107348638D01*
X146093500Y-105451362D01*
X146086989Y-105390799D01*
X146086988Y-105390797D01*
X146086988Y-105390794D01*
X146035889Y-105253796D01*
X145948261Y-105136738D01*
X145831204Y-105049111D01*
X145756717Y-105021328D01*
X145700784Y-104979457D01*
X145698002Y-104975588D01*
X145691954Y-104966827D01*
X145691954Y-104966825D01*
X145686051Y-104958274D01*
X145675028Y-104938727D01*
X145674706Y-104938011D01*
X145670774Y-104929274D01*
X145633234Y-104881357D01*
X145628805Y-104875338D01*
X145604744Y-104840481D01*
X145594215Y-104825227D01*
X145548656Y-104784865D01*
X145543202Y-104779731D01*
X145227412Y-104463941D01*
X145153471Y-104390000D01*
X149730000Y-104390000D01*
X149730000Y-104709518D01*
X149730354Y-104716132D01*
X149736400Y-104772371D01*
X149786647Y-104907089D01*
X149872811Y-105022188D01*
X149987910Y-105108352D01*
X150122628Y-105158599D01*
X150178867Y-105164645D01*
X150185482Y-105165000D01*
X150880000Y-105165000D01*
X150880000Y-104390000D01*
X149730000Y-104390000D01*
X145153471Y-104390000D01*
X144888294Y-104124823D01*
X144854810Y-104063502D01*
X144859794Y-103993811D01*
X144901665Y-103937877D01*
X144965169Y-103913616D01*
X145122461Y-103899854D01*
X145346407Y-103839848D01*
X145556528Y-103741867D01*
X145634923Y-103686975D01*
X145063068Y-103115121D01*
X145179958Y-103064349D01*
X145297239Y-102968934D01*
X145384428Y-102845415D01*
X145414854Y-102759802D01*
X145988475Y-103333423D01*
X146043365Y-103255031D01*
X146049117Y-103242698D01*
X146095290Y-103190258D01*
X146162483Y-103171106D01*
X146229364Y-103191321D01*
X146273883Y-103242698D01*
X146279635Y-103255034D01*
X146334523Y-103333422D01*
X146334523Y-103333423D01*
X146905570Y-102762374D01*
X146908384Y-102775915D01*
X146977942Y-102910156D01*
X147081138Y-103020652D01*
X147210319Y-103099209D01*
X147261502Y-103113549D01*
X146688075Y-103686975D01*
X146688075Y-103686976D01*
X146766467Y-103741866D01*
X146976592Y-103839848D01*
X147200538Y-103899854D01*
X147431499Y-103920061D01*
X147662461Y-103899854D01*
X147699237Y-103890000D01*
X149730000Y-103890000D01*
X150880000Y-103890000D01*
X150880000Y-103115000D01*
X150185482Y-103115000D01*
X150178867Y-103115354D01*
X150122628Y-103121400D01*
X149987910Y-103171647D01*
X149872811Y-103257811D01*
X149786647Y-103372910D01*
X149736400Y-103507628D01*
X149730354Y-103563867D01*
X149730000Y-103570481D01*
X149730000Y-103890000D01*
X147699237Y-103890000D01*
X147886407Y-103839848D01*
X148096528Y-103741867D01*
X148174923Y-103686975D01*
X147603068Y-103115121D01*
X147719958Y-103064349D01*
X147837239Y-102968934D01*
X147924428Y-102845415D01*
X147954854Y-102759802D01*
X148528475Y-103333423D01*
X148583367Y-103255028D01*
X148681348Y-103044907D01*
X148741354Y-102820961D01*
X148761561Y-102590000D01*
X148741354Y-102359038D01*
X148681348Y-102135092D01*
X148583367Y-101924972D01*
X148528474Y-101846576D01*
X147957429Y-102417622D01*
X147954616Y-102404085D01*
X147885058Y-102269844D01*
X147781862Y-102159348D01*
X147652681Y-102080791D01*
X147601496Y-102066449D01*
X148174923Y-101493023D01*
X148096532Y-101438133D01*
X147886407Y-101340151D01*
X147662461Y-101280145D01*
X147431499Y-101259938D01*
X147200538Y-101280145D01*
X146976592Y-101340151D01*
X146766468Y-101438133D01*
X146688077Y-101493023D01*
X146688076Y-101493025D01*
X147259930Y-102064879D01*
X147143042Y-102115651D01*
X147025761Y-102211066D01*
X146938572Y-102334585D01*
X146908145Y-102420197D01*
X146334524Y-101846576D01*
X146334523Y-101846577D01*
X146279634Y-101924967D01*
X146273882Y-101937304D01*
X146227709Y-101989743D01*
X146160515Y-102008894D01*
X146093634Y-101988678D01*
X146049118Y-101937304D01*
X146043366Y-101924970D01*
X145988474Y-101846576D01*
X145417429Y-102417622D01*
X145414616Y-102404085D01*
X145345058Y-102269844D01*
X145241862Y-102159348D01*
X145112681Y-102080791D01*
X145061497Y-102066450D01*
X145634923Y-101493024D01*
X145634922Y-101493023D01*
X145556532Y-101438133D01*
X145346407Y-101340151D01*
X145122461Y-101280145D01*
X144891500Y-101259938D01*
X144660538Y-101280145D01*
X144436592Y-101340151D01*
X144226468Y-101438133D01*
X144148077Y-101493023D01*
X144148076Y-101493024D01*
X144719931Y-102064878D01*
X144603042Y-102115651D01*
X144485761Y-102211066D01*
X144398572Y-102334585D01*
X144368145Y-102420197D01*
X143794524Y-101846576D01*
X143794523Y-101846577D01*
X143739630Y-101924973D01*
X143738569Y-101927250D01*
X143735969Y-101930202D01*
X143733411Y-101933856D01*
X143733003Y-101933570D01*
X143692395Y-101979688D01*
X143625201Y-101998838D01*
X143558321Y-101978620D01*
X143513807Y-101927246D01*
X143510756Y-101920703D01*
X143376922Y-101729568D01*
X143211932Y-101564578D01*
X143020797Y-101430744D01*
X142990909Y-101416807D01*
X142809327Y-101332133D01*
X142583941Y-101271741D01*
X142351500Y-101251405D01*
X142119058Y-101271741D01*
X141893672Y-101332133D01*
X141682202Y-101430744D01*
X141491067Y-101564578D01*
X141326078Y-101729567D01*
X141186022Y-101929589D01*
X141184131Y-101928265D01*
X141147704Y-101969632D01*
X141080510Y-101988781D01*
X141013630Y-101968562D01*
X140978771Y-101928333D01*
X140976978Y-101929589D01*
X140970201Y-101919910D01*
X140836922Y-101729568D01*
X140671932Y-101564578D01*
X140480797Y-101430744D01*
X140450909Y-101416807D01*
X140269327Y-101332133D01*
X140043941Y-101271741D01*
X139893014Y-101258537D01*
X139827945Y-101233085D01*
X139786966Y-101176494D01*
X139783088Y-101106732D01*
X139816138Y-101047330D01*
X142002308Y-98861160D01*
X142063629Y-98827677D01*
X142108123Y-98828737D01*
X142108248Y-98827313D01*
X142351500Y-98848594D01*
X142583944Y-98828258D01*
X142809326Y-98767867D01*
X143020797Y-98669256D01*
X143211932Y-98535422D01*
X143376922Y-98370432D01*
X143510756Y-98179297D01*
X143510756Y-98179296D01*
X143516978Y-98170411D01*
X143518868Y-98171734D01*
X143555289Y-98130371D01*
X143622483Y-98111218D01*
X143689364Y-98131433D01*
X143724227Y-98171667D01*
X143726022Y-98170411D01*
X143732243Y-98179296D01*
X143732244Y-98179297D01*
X143866078Y-98370432D01*
X144031068Y-98535422D01*
X144222203Y-98669256D01*
X144433674Y-98767867D01*
X144659056Y-98828258D01*
X144891500Y-98848594D01*
X145123944Y-98828258D01*
X145349326Y-98767867D01*
X145560797Y-98669256D01*
X145751932Y-98535422D01*
X145916922Y-98370432D01*
X146050756Y-98179297D01*
X146050756Y-98179296D01*
X146056978Y-98170411D01*
X146058868Y-98171734D01*
X146095289Y-98130371D01*
X146162483Y-98111218D01*
X146229364Y-98131433D01*
X146264227Y-98171667D01*
X146266022Y-98170411D01*
X146272243Y-98179296D01*
X146272244Y-98179297D01*
X146406078Y-98370432D01*
X146571068Y-98535422D01*
X146762203Y-98669256D01*
X146973674Y-98767867D01*
X147199056Y-98828258D01*
X147349980Y-98841462D01*
X147431499Y-98848594D01*
X147431499Y-98848593D01*
X147431500Y-98848594D01*
X147663944Y-98828258D01*
X147889326Y-98767867D01*
X148100797Y-98669256D01*
X148291932Y-98535422D01*
X148456922Y-98370432D01*
X148590756Y-98179297D01*
X148689367Y-97967826D01*
X148749758Y-97742444D01*
X148770094Y-97510000D01*
X148749758Y-97277556D01*
X148689367Y-97052174D01*
X148592714Y-96844903D01*
X148582223Y-96775828D01*
X148610742Y-96712044D01*
X148669219Y-96673804D01*
X148705097Y-96668500D01*
X149670102Y-96668500D01*
X149737141Y-96688185D01*
X149769369Y-96718190D01*
X149866738Y-96848261D01*
X149983796Y-96935889D01*
X150120794Y-96986988D01*
X150120797Y-96986988D01*
X150120799Y-96986989D01*
X150181362Y-96993500D01*
X150184672Y-96993500D01*
X152075328Y-96993500D01*
X152078638Y-96993500D01*
X152139201Y-96986989D01*
X152139203Y-96986988D01*
X152139205Y-96986988D01*
X152229250Y-96953402D01*
X152276204Y-96935889D01*
X152393261Y-96848261D01*
X152480889Y-96731204D01*
X152514140Y-96642056D01*
X152531988Y-96594205D01*
X152531988Y-96594203D01*
X152531989Y-96594201D01*
X152538500Y-96533638D01*
X152538500Y-95386362D01*
X152531989Y-95325799D01*
X152531988Y-95325797D01*
X152531988Y-95325794D01*
X152480889Y-95188796D01*
X152393261Y-95071738D01*
X152276203Y-94984110D01*
X152139205Y-94933011D01*
X152081924Y-94926853D01*
X152081918Y-94926852D01*
X152078638Y-94926500D01*
X150181362Y-94926500D01*
X150178082Y-94926852D01*
X150178075Y-94926853D01*
X150120794Y-94933011D01*
X149983796Y-94984110D01*
X149866738Y-95071738D01*
X149769369Y-95201810D01*
X149713436Y-95243682D01*
X149670102Y-95251500D01*
X143926663Y-95251500D01*
X143919176Y-95251274D01*
X143858404Y-95247597D01*
X143798531Y-95258569D01*
X143791132Y-95259696D01*
X143730696Y-95267035D01*
X143720996Y-95270714D01*
X143699389Y-95276738D01*
X143689171Y-95278610D01*
X143633661Y-95303593D01*
X143626745Y-95306457D01*
X143569825Y-95328045D01*
X143561275Y-95333946D01*
X143541740Y-95344964D01*
X143532273Y-95349225D01*
X143484356Y-95386765D01*
X143478327Y-95391201D01*
X143428228Y-95425783D01*
X143387857Y-95471352D01*
X143382724Y-95476804D01*
X142700691Y-96158837D01*
X142639368Y-96192322D01*
X142594875Y-96191262D01*
X142594751Y-96192687D01*
X142351499Y-96171405D01*
X142119058Y-96191741D01*
X141893672Y-96252133D01*
X141682202Y-96350744D01*
X141491067Y-96484578D01*
X141326078Y-96649567D01*
X141186022Y-96849589D01*
X141184131Y-96848265D01*
X141147704Y-96889632D01*
X141080510Y-96908781D01*
X141013630Y-96888562D01*
X140978771Y-96848333D01*
X140976978Y-96849589D01*
X140931065Y-96784018D01*
X140836922Y-96649568D01*
X140671932Y-96484578D01*
X140480797Y-96350744D01*
X140269326Y-96252133D01*
X140269324Y-96252132D01*
X140220404Y-96239023D01*
X140160745Y-96202657D01*
X140130217Y-96139810D01*
X140128500Y-96119249D01*
X140128500Y-95159899D01*
X140148185Y-95092860D01*
X140178189Y-95060632D01*
X140195865Y-95047400D01*
X140308261Y-94963261D01*
X140395889Y-94846204D01*
X140417924Y-94787124D01*
X140446988Y-94709205D01*
X140446988Y-94709203D01*
X140446989Y-94709201D01*
X140453500Y-94648638D01*
X141486500Y-94648638D01*
X141486852Y-94651918D01*
X141486853Y-94651924D01*
X141493011Y-94709205D01*
X141544110Y-94846203D01*
X141631738Y-94963261D01*
X141748796Y-95050889D01*
X141885794Y-95101988D01*
X141885797Y-95101988D01*
X141885799Y-95101989D01*
X141946362Y-95108500D01*
X141949672Y-95108500D01*
X143090328Y-95108500D01*
X143093638Y-95108500D01*
X143154201Y-95101989D01*
X143154203Y-95101988D01*
X143154205Y-95101988D01*
X143265082Y-95060632D01*
X143291204Y-95050889D01*
X143408261Y-94963261D01*
X143495889Y-94846204D01*
X143517924Y-94787124D01*
X143546988Y-94709205D01*
X143546988Y-94709203D01*
X143546989Y-94709201D01*
X143553500Y-94648638D01*
X143553500Y-92751362D01*
X143546989Y-92690799D01*
X143546988Y-92690797D01*
X143546988Y-92690794D01*
X143495890Y-92553798D01*
X143495889Y-92553796D01*
X143408261Y-92436739D01*
X143408258Y-92436737D01*
X143398574Y-92423800D01*
X143374157Y-92358335D01*
X143389009Y-92290062D01*
X143410156Y-92261812D01*
X144762150Y-90909819D01*
X144823474Y-90876334D01*
X144849832Y-90873500D01*
X145151735Y-90873500D01*
X145154877Y-90873500D01*
X145303998Y-90858336D01*
X145494849Y-90798456D01*
X145669740Y-90701384D01*
X145821510Y-90571093D01*
X145918876Y-90445307D01*
X145943945Y-90412921D01*
X145959503Y-90381203D01*
X146032036Y-90233336D01*
X146082172Y-90039697D01*
X146092303Y-89839930D01*
X146090529Y-89828352D01*
X146062014Y-89642211D01*
X145992544Y-89454639D01*
X145886739Y-89284889D01*
X145748930Y-89139914D01*
X145736613Y-89131341D01*
X145584756Y-89025645D01*
X145400942Y-88946765D01*
X145205012Y-88906500D01*
X144405123Y-88906500D01*
X144402012Y-88906816D01*
X144401999Y-88906817D01*
X144255999Y-88921664D01*
X144065151Y-88981544D01*
X143890259Y-89078615D01*
X143738489Y-89208907D01*
X143616054Y-89367078D01*
X143527964Y-89546664D01*
X143477828Y-89740302D01*
X143467696Y-89940071D01*
X143492763Y-90103696D01*
X143483457Y-90172943D01*
X143457874Y-90210154D01*
X142036804Y-91631224D01*
X142031352Y-91636357D01*
X141985783Y-91676728D01*
X141951201Y-91726827D01*
X141946765Y-91732856D01*
X141909225Y-91780773D01*
X141904964Y-91790240D01*
X141893946Y-91809775D01*
X141888045Y-91818325D01*
X141866457Y-91875245D01*
X141863593Y-91882161D01*
X141838610Y-91937671D01*
X141836738Y-91947889D01*
X141830714Y-91969496D01*
X141827035Y-91979196D01*
X141819696Y-92039632D01*
X141818569Y-92047031D01*
X141807597Y-92106905D01*
X141811274Y-92167674D01*
X141811500Y-92175161D01*
X141811500Y-92240101D01*
X141791815Y-92307140D01*
X141761811Y-92339368D01*
X141631737Y-92436740D01*
X141544110Y-92553796D01*
X141493011Y-92690794D01*
X141488699Y-92730905D01*
X141486500Y-92751362D01*
X141486500Y-94648638D01*
X140453500Y-94648638D01*
X140453500Y-92751362D01*
X140446989Y-92690799D01*
X140446988Y-92690797D01*
X140446988Y-92690794D01*
X140395889Y-92553796D01*
X140308261Y-92436738D01*
X140191203Y-92349110D01*
X140054205Y-92298011D01*
X139996924Y-92291853D01*
X139996918Y-92291852D01*
X139993638Y-92291500D01*
X138846362Y-92291500D01*
X138843082Y-92291852D01*
X138843075Y-92291853D01*
X138785794Y-92298011D01*
X138648796Y-92349110D01*
X138531738Y-92436738D01*
X138444110Y-92553796D01*
X138393011Y-92690794D01*
X138388699Y-92730905D01*
X138386500Y-92751362D01*
X138386500Y-94648638D01*
X138386852Y-94651918D01*
X138386853Y-94651924D01*
X138393011Y-94709205D01*
X138444110Y-94846203D01*
X138531737Y-94963259D01*
X138531738Y-94963259D01*
X138531739Y-94963261D01*
X138639227Y-95043726D01*
X138661811Y-95060632D01*
X138703682Y-95116566D01*
X138711500Y-95159899D01*
X138711500Y-96716979D01*
X138691815Y-96784018D01*
X138689075Y-96788102D01*
X138652244Y-96840701D01*
X138553633Y-97052172D01*
X138493241Y-97277558D01*
X138472905Y-97510000D01*
X138493241Y-97742441D01*
X138553633Y-97967827D01*
X138633354Y-98138787D01*
X138652244Y-98179297D01*
X138786078Y-98370432D01*
X138951068Y-98535422D01*
X139142203Y-98669256D01*
X139353674Y-98767867D01*
X139579056Y-98828258D01*
X139729983Y-98841462D01*
X139795051Y-98866914D01*
X139836030Y-98923505D01*
X139839909Y-98993266D01*
X139806857Y-99052671D01*
X136676804Y-102182724D01*
X136671352Y-102187857D01*
X136625783Y-102228228D01*
X136591201Y-102278327D01*
X136586765Y-102284356D01*
X136549225Y-102332273D01*
X136544964Y-102341740D01*
X136533946Y-102361275D01*
X136528045Y-102369825D01*
X136506457Y-102426745D01*
X136503593Y-102433661D01*
X136478610Y-102489171D01*
X136476738Y-102499389D01*
X136470714Y-102520996D01*
X136467035Y-102530696D01*
X136459696Y-102591132D01*
X136458569Y-102598531D01*
X136447597Y-102658405D01*
X136451274Y-102719174D01*
X136451500Y-102726661D01*
X136451500Y-103946028D01*
X136460036Y-103980661D01*
X136462734Y-103995385D01*
X136463786Y-104004051D01*
X136467035Y-104030804D01*
X136479685Y-104064161D01*
X136484138Y-104078450D01*
X136492675Y-104113083D01*
X136509250Y-104144666D01*
X136515392Y-104158314D01*
X136528044Y-104191673D01*
X136548306Y-104221026D01*
X136556053Y-104233840D01*
X136572632Y-104265429D01*
X136596288Y-104292131D01*
X136605522Y-104303918D01*
X136625784Y-104333273D01*
X136652482Y-104356924D01*
X136663074Y-104367516D01*
X136686725Y-104394214D01*
X136716079Y-104414475D01*
X136727867Y-104423710D01*
X136754570Y-104447367D01*
X136786158Y-104463945D01*
X136798954Y-104471680D01*
X136828325Y-104491954D01*
X136828326Y-104491954D01*
X136828327Y-104491955D01*
X136836906Y-104495208D01*
X136861681Y-104504604D01*
X136875325Y-104510744D01*
X136906917Y-104527325D01*
X136933265Y-104533819D01*
X136941549Y-104535861D01*
X136955840Y-104540314D01*
X136989199Y-104552965D01*
X137024617Y-104557264D01*
X137039324Y-104559959D01*
X137073972Y-104568500D01*
X137117141Y-104568500D01*
X139075168Y-104568500D01*
X139142207Y-104588185D01*
X139162849Y-104604819D01*
X139441349Y-104883319D01*
X139474834Y-104944642D01*
X139469850Y-105014334D01*
X139427978Y-105070267D01*
X139362514Y-105094684D01*
X139353668Y-105095000D01*
X138680000Y-105095000D01*
X138680000Y-105870000D01*
X139830000Y-105870000D01*
X139830000Y-105571332D01*
X139849685Y-105504293D01*
X139902489Y-105458538D01*
X139971647Y-105448594D01*
X140035203Y-105477619D01*
X140041681Y-105483651D01*
X140890181Y-106332151D01*
X140923666Y-106393474D01*
X140926500Y-106419831D01*
X140926500Y-107348638D01*
X140926852Y-107351918D01*
X140926853Y-107351924D01*
X140933011Y-107409205D01*
X140984110Y-107546203D01*
X141071738Y-107663261D01*
X141188796Y-107750889D01*
X141325794Y-107801988D01*
X141325797Y-107801988D01*
X141325799Y-107801989D01*
X141386362Y-107808500D01*
X141389672Y-107808500D01*
X142530328Y-107808500D01*
X142533638Y-107808500D01*
X142594201Y-107801989D01*
X142594203Y-107801988D01*
X142594205Y-107801988D01*
X142705082Y-107760632D01*
X142731204Y-107750889D01*
X142848261Y-107663261D01*
X142935889Y-107546204D01*
X142960556Y-107480070D01*
X142986988Y-107409205D01*
X142986988Y-107409203D01*
X142986989Y-107409201D01*
X142993500Y-107348638D01*
X142993500Y-105451362D01*
X142986989Y-105390799D01*
X142986988Y-105390797D01*
X142986988Y-105390794D01*
X142935889Y-105253796D01*
X142848261Y-105136738D01*
X142731203Y-105049110D01*
X142594205Y-104998011D01*
X142536924Y-104991853D01*
X142536918Y-104991852D01*
X142533638Y-104991500D01*
X142530328Y-104991500D01*
X141604833Y-104991500D01*
X141537794Y-104971815D01*
X141517152Y-104955181D01*
X141002685Y-104440714D01*
X140485554Y-103923584D01*
X140452070Y-103862262D01*
X140457054Y-103792570D01*
X140498926Y-103736637D01*
X140502054Y-103734371D01*
X140671932Y-103615422D01*
X140836922Y-103450432D01*
X140970756Y-103259297D01*
X140970756Y-103259296D01*
X140976978Y-103250411D01*
X140978868Y-103251734D01*
X141015289Y-103210371D01*
X141082483Y-103191218D01*
X141149364Y-103211433D01*
X141184227Y-103251667D01*
X141186022Y-103250411D01*
X141192243Y-103259296D01*
X141192244Y-103259297D01*
X141326078Y-103450432D01*
X141491068Y-103615422D01*
X141682203Y-103749256D01*
X141893674Y-103847867D01*
X142119056Y-103908258D01*
X142274018Y-103921815D01*
X142351499Y-103928594D01*
X142351499Y-103928593D01*
X142351500Y-103928594D01*
X142408754Y-103923585D01*
X142594752Y-103907313D01*
X142594935Y-103909404D01*
X142650749Y-103910725D01*
X142700692Y-103941162D01*
X144008531Y-105249002D01*
X144042016Y-105310325D01*
X144037033Y-105380014D01*
X144033011Y-105390797D01*
X144033010Y-105390799D01*
X144033011Y-105390799D01*
X144026500Y-105451362D01*
X144026500Y-107348638D01*
X144026852Y-107351918D01*
X144026853Y-107351924D01*
X144033011Y-107409205D01*
X144084110Y-107546203D01*
X144171737Y-107663259D01*
X144171738Y-107663259D01*
X144171739Y-107663261D01*
X144266629Y-107734295D01*
X144301811Y-107760632D01*
X144343682Y-107816566D01*
X144351500Y-107859899D01*
X144351500Y-108315167D01*
X144331815Y-108382206D01*
X144315181Y-108402848D01*
X143702849Y-109015181D01*
X143641526Y-109048666D01*
X143615168Y-109051500D01*
X143161362Y-109051500D01*
X143158082Y-109051852D01*
X143158075Y-109051853D01*
X143100794Y-109058011D01*
X142963796Y-109109110D01*
X142846738Y-109196738D01*
X142759110Y-109313796D01*
X142708011Y-109450794D01*
X142701853Y-109508075D01*
X142701500Y-109511362D01*
X142701500Y-110908638D01*
X142701852Y-110911918D01*
X142701853Y-110911924D01*
X142708011Y-110969203D01*
X142713592Y-110984165D01*
X142718578Y-111053857D01*
X142685093Y-111115180D01*
X142623771Y-111148666D01*
X142597411Y-111151500D01*
X142211362Y-111151500D01*
X142208082Y-111151852D01*
X142208075Y-111151853D01*
X142150794Y-111158011D01*
X142013796Y-111209110D01*
X141896740Y-111296737D01*
X141816377Y-111404089D01*
X141760443Y-111445960D01*
X141690751Y-111450944D01*
X141629429Y-111417459D01*
X140790582Y-110578612D01*
X139874819Y-109662848D01*
X139841334Y-109601525D01*
X139838500Y-109575167D01*
X139838500Y-108649671D01*
X139838500Y-108646362D01*
X139831989Y-108585799D01*
X139831988Y-108585797D01*
X139831988Y-108585794D01*
X139780889Y-108448796D01*
X139693261Y-108331738D01*
X139576203Y-108244110D01*
X139439205Y-108193011D01*
X139381924Y-108186853D01*
X139381918Y-108186852D01*
X139378638Y-108186500D01*
X137481362Y-108186500D01*
X137478082Y-108186852D01*
X137478075Y-108186853D01*
X137420794Y-108193011D01*
X137283796Y-108244110D01*
X137166738Y-108331738D01*
X137069369Y-108461810D01*
X137013436Y-108503682D01*
X136970102Y-108511500D01*
X134678470Y-108511500D01*
X134611431Y-108491815D01*
X134566088Y-108439905D01*
X134543891Y-108392303D01*
X134491869Y-108280742D01*
X134360043Y-108092474D01*
X134197526Y-107929957D01*
X134189855Y-107922286D01*
X134191571Y-107920569D01*
X134157421Y-107877845D01*
X134150227Y-107808347D01*
X134181750Y-107745992D01*
X134241980Y-107710578D01*
X134258913Y-107707557D01*
X134264201Y-107706989D01*
X134264203Y-107706988D01*
X134264205Y-107706988D01*
X134363371Y-107670000D01*
X134401204Y-107655889D01*
X134518261Y-107568261D01*
X134605889Y-107451204D01*
X134645379Y-107345328D01*
X134656988Y-107314205D01*
X134656988Y-107314203D01*
X134656989Y-107314201D01*
X134663500Y-107253638D01*
X134663500Y-106370000D01*
X137030000Y-106370000D01*
X137030000Y-106689518D01*
X137030354Y-106696132D01*
X137036400Y-106752371D01*
X137086647Y-106887089D01*
X137172811Y-107002188D01*
X137287910Y-107088352D01*
X137422628Y-107138599D01*
X137478867Y-107144645D01*
X137485482Y-107145000D01*
X138180000Y-107145000D01*
X138180000Y-106370000D01*
X138680000Y-106370000D01*
X138680000Y-107145000D01*
X139374518Y-107145000D01*
X139381132Y-107144645D01*
X139437371Y-107138599D01*
X139572089Y-107088352D01*
X139687188Y-107002188D01*
X139773352Y-106887089D01*
X139823599Y-106752371D01*
X139829645Y-106696132D01*
X139830000Y-106689518D01*
X139830000Y-106370000D01*
X138680000Y-106370000D01*
X138180000Y-106370000D01*
X137030000Y-106370000D01*
X134663500Y-106370000D01*
X134663500Y-105870000D01*
X137030000Y-105870000D01*
X138180000Y-105870000D01*
X138180000Y-105095000D01*
X137485482Y-105095000D01*
X137478867Y-105095354D01*
X137422628Y-105101400D01*
X137287910Y-105151647D01*
X137172811Y-105237811D01*
X137086647Y-105352910D01*
X137036400Y-105487628D01*
X137030354Y-105543867D01*
X137030000Y-105550481D01*
X137030000Y-105870000D01*
X134663500Y-105870000D01*
X134663500Y-105546362D01*
X134656989Y-105485799D01*
X134656988Y-105485797D01*
X134656988Y-105485794D01*
X134605889Y-105348796D01*
X134518261Y-105231738D01*
X134401203Y-105144110D01*
X134264205Y-105093011D01*
X134206924Y-105086853D01*
X134206918Y-105086852D01*
X134203638Y-105086500D01*
X132496362Y-105086500D01*
X132493082Y-105086852D01*
X132493075Y-105086853D01*
X132435794Y-105093011D01*
X132298796Y-105144110D01*
X132181738Y-105231738D01*
X132094110Y-105348796D01*
X132043011Y-105485794D01*
X132036853Y-105543075D01*
X132036500Y-105546362D01*
X132036500Y-107253638D01*
X132036852Y-107256918D01*
X132036853Y-107256924D01*
X132043011Y-107314205D01*
X132094110Y-107451203D01*
X132181738Y-107568261D01*
X132298796Y-107655889D01*
X132435794Y-107706988D01*
X132435797Y-107706988D01*
X132435799Y-107706989D01*
X132441084Y-107707557D01*
X132505635Y-107734295D01*
X132545484Y-107791687D01*
X132547979Y-107861512D01*
X132512327Y-107921601D01*
X132504480Y-107927950D01*
X132339957Y-108092473D01*
X132208131Y-108280741D01*
X132110999Y-108489039D01*
X132051513Y-108711044D01*
X132031482Y-108939999D01*
X132051513Y-109168955D01*
X132110999Y-109390960D01*
X132138903Y-109450799D01*
X132208131Y-109599259D01*
X132339957Y-109787526D01*
X132502474Y-109950043D01*
X132690741Y-110081869D01*
X132734571Y-110102307D01*
X132787010Y-110148479D01*
X132806162Y-110215673D01*
X132785946Y-110282554D01*
X132734571Y-110327071D01*
X132695007Y-110345519D01*
X132620937Y-110397384D01*
X132620936Y-110397384D01*
X133189833Y-110966280D01*
X133069409Y-111018588D01*
X132955327Y-111111401D01*
X132870515Y-111231551D01*
X132838390Y-111321942D01*
X132267384Y-110750936D01*
X132267384Y-110750937D01*
X132215519Y-110825007D01*
X132119017Y-111031956D01*
X132059916Y-111252525D01*
X132044844Y-111424792D01*
X132019391Y-111489861D01*
X131962800Y-111530839D01*
X131893038Y-111534717D01*
X131833635Y-111501665D01*
X131554818Y-111222848D01*
X131521333Y-111161525D01*
X131518499Y-111135176D01*
X131518499Y-102590000D01*
X133392905Y-102590000D01*
X133413241Y-102822441D01*
X133473633Y-103047827D01*
X133551661Y-103215157D01*
X133572244Y-103259297D01*
X133706078Y-103450432D01*
X133871068Y-103615422D01*
X134062203Y-103749256D01*
X134273674Y-103847867D01*
X134499056Y-103908258D01*
X134731500Y-103928594D01*
X134963944Y-103908258D01*
X135189326Y-103847867D01*
X135400797Y-103749256D01*
X135591932Y-103615422D01*
X135756922Y-103450432D01*
X135890756Y-103259297D01*
X135989367Y-103047826D01*
X136049758Y-102822444D01*
X136070094Y-102590000D01*
X136049758Y-102357556D01*
X135989367Y-102132174D01*
X135890756Y-101920703D01*
X135756922Y-101729568D01*
X135591932Y-101564578D01*
X135400797Y-101430744D01*
X135370909Y-101416807D01*
X135189327Y-101332133D01*
X134963941Y-101271741D01*
X134731500Y-101251405D01*
X134499058Y-101271741D01*
X134273672Y-101332133D01*
X134062202Y-101430744D01*
X133871067Y-101564578D01*
X133706078Y-101729567D01*
X133572244Y-101920702D01*
X133473633Y-102132172D01*
X133413241Y-102357558D01*
X133392905Y-102590000D01*
X131518499Y-102590000D01*
X131518499Y-97510000D01*
X133401438Y-97510000D01*
X133421645Y-97740961D01*
X133481651Y-97964907D01*
X133579633Y-98175032D01*
X133634523Y-98253422D01*
X133634524Y-98253423D01*
X134205570Y-97682376D01*
X134208384Y-97695915D01*
X134277942Y-97830156D01*
X134381138Y-97940652D01*
X134510319Y-98019209D01*
X134561502Y-98033549D01*
X133988075Y-98606975D01*
X133988075Y-98606976D01*
X134066467Y-98661866D01*
X134276592Y-98759848D01*
X134500538Y-98819854D01*
X134731499Y-98840061D01*
X134962461Y-98819854D01*
X135186407Y-98759848D01*
X135396528Y-98661867D01*
X135474923Y-98606975D01*
X134903068Y-98035121D01*
X135019958Y-97984349D01*
X135137239Y-97888934D01*
X135224428Y-97765415D01*
X135254854Y-97679802D01*
X135828475Y-98253423D01*
X135883367Y-98175028D01*
X135981348Y-97964907D01*
X136041354Y-97740961D01*
X136061561Y-97510000D01*
X136041354Y-97279038D01*
X135981348Y-97055092D01*
X135883367Y-96844972D01*
X135828474Y-96766576D01*
X135257429Y-97337622D01*
X135254616Y-97324085D01*
X135185058Y-97189844D01*
X135081862Y-97079348D01*
X134952681Y-97000791D01*
X134901497Y-96986450D01*
X135474923Y-96413024D01*
X135474922Y-96413023D01*
X135396532Y-96358133D01*
X135186407Y-96260151D01*
X134962461Y-96200145D01*
X134731499Y-96179938D01*
X134500538Y-96200145D01*
X134276592Y-96260151D01*
X134066468Y-96358133D01*
X133988077Y-96413023D01*
X133988076Y-96413024D01*
X134559931Y-96984878D01*
X134443042Y-97035651D01*
X134325761Y-97131066D01*
X134238572Y-97254585D01*
X134208145Y-97340197D01*
X133634524Y-96766576D01*
X133634523Y-96766577D01*
X133579633Y-96844968D01*
X133481651Y-97055092D01*
X133421645Y-97279038D01*
X133401438Y-97510000D01*
X131518499Y-97510000D01*
X131518499Y-93118830D01*
X131538184Y-93051792D01*
X131554813Y-93031155D01*
X134493693Y-90092275D01*
X134555014Y-90058792D01*
X134624706Y-90063776D01*
X134680639Y-90105648D01*
X134697653Y-90136891D01*
X134767456Y-90325361D01*
X134873260Y-90495110D01*
X134906597Y-90530181D01*
X135011071Y-90640087D01*
X135175244Y-90754355D01*
X135359058Y-90833235D01*
X135554988Y-90873500D01*
X135554990Y-90873500D01*
X136351735Y-90873500D01*
X136354877Y-90873500D01*
X136503998Y-90858336D01*
X136694849Y-90798456D01*
X136869740Y-90701384D01*
X137021510Y-90571093D01*
X137118876Y-90445307D01*
X137143945Y-90412921D01*
X137159503Y-90381203D01*
X137232036Y-90233336D01*
X137282172Y-90039697D01*
X137292303Y-89839930D01*
X137290529Y-89828352D01*
X137276949Y-89739706D01*
X137267236Y-89676300D01*
X137276542Y-89607054D01*
X137302122Y-89569846D01*
X139017968Y-87854000D01*
X143507869Y-87854000D01*
X143575123Y-88035595D01*
X143680019Y-88203883D01*
X143816635Y-88347602D01*
X143979389Y-88460883D01*
X144161615Y-88539082D01*
X144355853Y-88579000D01*
X144530000Y-88579000D01*
X144530000Y-87854000D01*
X145030000Y-87854000D01*
X145030000Y-88579000D01*
X145151303Y-88579000D01*
X145157568Y-88578682D01*
X145302278Y-88563966D01*
X145491480Y-88504603D01*
X145664859Y-88408371D01*
X145815317Y-88279207D01*
X145936693Y-88122402D01*
X146024022Y-87944369D01*
X146047420Y-87854000D01*
X145030000Y-87854000D01*
X144530000Y-87854000D01*
X143507869Y-87854000D01*
X139017968Y-87854000D01*
X139517969Y-87353999D01*
X143512579Y-87353999D01*
X143512580Y-87354000D01*
X144530000Y-87354000D01*
X144530000Y-86629000D01*
X145030000Y-86629000D01*
X145030000Y-87354000D01*
X146052130Y-87354000D01*
X146052130Y-87353999D01*
X145984876Y-87172404D01*
X145879980Y-87004116D01*
X145743364Y-86860397D01*
X145580610Y-86747116D01*
X145398384Y-86668917D01*
X145204147Y-86629000D01*
X145030000Y-86629000D01*
X144530000Y-86629000D01*
X144408697Y-86629000D01*
X144402431Y-86629317D01*
X144257721Y-86644033D01*
X144068519Y-86703396D01*
X143895140Y-86799628D01*
X143744682Y-86928792D01*
X143623306Y-87085597D01*
X143535977Y-87263630D01*
X143512579Y-87353999D01*
X139517969Y-87353999D01*
X140868897Y-86003071D01*
X147957696Y-86003071D01*
X147987985Y-86200788D01*
X148057455Y-86388360D01*
X148163260Y-86558110D01*
X148254175Y-86653753D01*
X148301071Y-86703087D01*
X148465244Y-86817355D01*
X148649058Y-86896235D01*
X148844988Y-86936500D01*
X148844990Y-86936500D01*
X149641735Y-86936500D01*
X149644877Y-86936500D01*
X149793998Y-86921336D01*
X149984849Y-86861456D01*
X150128748Y-86781585D01*
X150159737Y-86764386D01*
X150159738Y-86764385D01*
X150159740Y-86764384D01*
X150244740Y-86691413D01*
X150308428Y-86662682D01*
X150325510Y-86661500D01*
X151231837Y-86661500D01*
X151239324Y-86661726D01*
X151300093Y-86665402D01*
X151359994Y-86654424D01*
X151367364Y-86653303D01*
X151427801Y-86645965D01*
X151437498Y-86642287D01*
X151459124Y-86636259D01*
X151469329Y-86634389D01*
X151524850Y-86609400D01*
X151531752Y-86606542D01*
X151572189Y-86591205D01*
X151588675Y-86584954D01*
X151597219Y-86579055D01*
X151616754Y-86568037D01*
X151626226Y-86563775D01*
X151674162Y-86526217D01*
X151680143Y-86521816D01*
X151730273Y-86487215D01*
X151770673Y-86441611D01*
X151775760Y-86436208D01*
X154294969Y-83917000D01*
X156797869Y-83917000D01*
X156865123Y-84098595D01*
X156970019Y-84266883D01*
X157106635Y-84410602D01*
X157269389Y-84523883D01*
X157451615Y-84602082D01*
X157645853Y-84642000D01*
X157820000Y-84642000D01*
X157820000Y-83917000D01*
X158320000Y-83917000D01*
X158320000Y-84642000D01*
X158441303Y-84642000D01*
X158447568Y-84641682D01*
X158592278Y-84626966D01*
X158781480Y-84567603D01*
X158954859Y-84471371D01*
X159105317Y-84342207D01*
X159226693Y-84185402D01*
X159314022Y-84007369D01*
X159337420Y-83917000D01*
X158320000Y-83917000D01*
X157820000Y-83917000D01*
X156797869Y-83917000D01*
X154294969Y-83917000D01*
X154794970Y-83416999D01*
X156802579Y-83416999D01*
X156802580Y-83417000D01*
X157820000Y-83417000D01*
X157820000Y-82692000D01*
X158320000Y-82692000D01*
X158320000Y-83417000D01*
X159342130Y-83417000D01*
X159342130Y-83416999D01*
X159274876Y-83235404D01*
X159169980Y-83067116D01*
X159033364Y-82923397D01*
X158870610Y-82810116D01*
X158688384Y-82731917D01*
X158494147Y-82692000D01*
X158320000Y-82692000D01*
X157820000Y-82692000D01*
X157698697Y-82692000D01*
X157692431Y-82692317D01*
X157547721Y-82707033D01*
X157358519Y-82766396D01*
X157185140Y-82862628D01*
X157034682Y-82991792D01*
X156913306Y-83148597D01*
X156825977Y-83326630D01*
X156802579Y-83416999D01*
X154794970Y-83416999D01*
X156467150Y-81744819D01*
X156528474Y-81711334D01*
X156554832Y-81708500D01*
X172375168Y-81708500D01*
X172442207Y-81728185D01*
X172462848Y-81744819D01*
X174203682Y-83485652D01*
X174237166Y-83546973D01*
X174240000Y-83573331D01*
X174240000Y-84363505D01*
X174135161Y-84315627D01*
X174026473Y-84300000D01*
X173953527Y-84300000D01*
X173844839Y-84315627D01*
X173740000Y-84363505D01*
X173740000Y-83545000D01*
X173180482Y-83545000D01*
X173173867Y-83545354D01*
X173117628Y-83551400D01*
X172982910Y-83601647D01*
X172867811Y-83687811D01*
X172781647Y-83802910D01*
X172731400Y-83937628D01*
X172725354Y-83993867D01*
X172725000Y-84000481D01*
X172725000Y-84560000D01*
X173544428Y-84560000D01*
X173521318Y-84595960D01*
X173480000Y-84736673D01*
X173480000Y-84883327D01*
X173521318Y-85024040D01*
X173544428Y-85060000D01*
X172725000Y-85060000D01*
X172725000Y-85619518D01*
X172725354Y-85626132D01*
X172731400Y-85682371D01*
X172781647Y-85817089D01*
X172867811Y-85932188D01*
X172982910Y-86018352D01*
X173117628Y-86068599D01*
X173173867Y-86074645D01*
X173180482Y-86075000D01*
X173740000Y-86075000D01*
X173740000Y-85256494D01*
X173844839Y-85304373D01*
X173953527Y-85320000D01*
X174026473Y-85320000D01*
X174135161Y-85304373D01*
X174240000Y-85256494D01*
X174240000Y-86075000D01*
X174799518Y-86075000D01*
X174806132Y-86074645D01*
X174862371Y-86068599D01*
X174997089Y-86018352D01*
X175112188Y-85932188D01*
X175198352Y-85817089D01*
X175248599Y-85682371D01*
X175254645Y-85626132D01*
X175255000Y-85619518D01*
X175255000Y-85602669D01*
X175274685Y-85535630D01*
X175327489Y-85489875D01*
X175396647Y-85479931D01*
X175460203Y-85508956D01*
X175480570Y-85531540D01*
X175550716Y-85631717D01*
X175550718Y-85631718D01*
X175550718Y-85631719D01*
X175708283Y-85789284D01*
X175890816Y-85917097D01*
X176047484Y-85990151D01*
X176092773Y-86011270D01*
X176308014Y-86068944D01*
X176530000Y-86088365D01*
X176751986Y-86068944D01*
X176967227Y-86011270D01*
X177169183Y-85917097D01*
X177351717Y-85789284D01*
X177509284Y-85631717D01*
X177637097Y-85449183D01*
X177731270Y-85247227D01*
X177788944Y-85031986D01*
X177808365Y-84810000D01*
X177788944Y-84588014D01*
X177731270Y-84372773D01*
X177637097Y-84170818D01*
X177509284Y-83988283D01*
X177351717Y-83830716D01*
X177351716Y-83830715D01*
X177169183Y-83702902D01*
X176967230Y-83608731D01*
X176967227Y-83608730D01*
X176779577Y-83558449D01*
X176751983Y-83551055D01*
X176530000Y-83531634D01*
X176333442Y-83548831D01*
X176264942Y-83535064D01*
X176234954Y-83512984D01*
X173238775Y-80516805D01*
X173233658Y-80511370D01*
X173193273Y-80465785D01*
X173193272Y-80465784D01*
X173193270Y-80465782D01*
X173143170Y-80431200D01*
X173137137Y-80426761D01*
X173089225Y-80389224D01*
X173079760Y-80384964D01*
X173060216Y-80373941D01*
X173051677Y-80368047D01*
X173051675Y-80368046D01*
X172994767Y-80346463D01*
X172987848Y-80343597D01*
X172932329Y-80318611D01*
X172922111Y-80316738D01*
X172900500Y-80310713D01*
X172890802Y-80307035D01*
X172830369Y-80299696D01*
X172822970Y-80298569D01*
X172763095Y-80287597D01*
X172702324Y-80291274D01*
X172694837Y-80291500D01*
X156235169Y-80291500D01*
X156227682Y-80291274D01*
X156166905Y-80287597D01*
X156107030Y-80298569D01*
X156099631Y-80299695D01*
X156039200Y-80307034D01*
X156029496Y-80310714D01*
X156007889Y-80316738D01*
X155997671Y-80318610D01*
X155942161Y-80343593D01*
X155935245Y-80346457D01*
X155878325Y-80368045D01*
X155869775Y-80373946D01*
X155850240Y-80384964D01*
X155840773Y-80389225D01*
X155792856Y-80426765D01*
X155786827Y-80431201D01*
X155736728Y-80465783D01*
X155696357Y-80511352D01*
X155691224Y-80516804D01*
X150999849Y-85208181D01*
X150938526Y-85241666D01*
X150912168Y-85244500D01*
X150331673Y-85244500D01*
X150264634Y-85224815D01*
X150241799Y-85205932D01*
X150238930Y-85202913D01*
X150133908Y-85129816D01*
X150074756Y-85088645D01*
X149890942Y-85009765D01*
X149695012Y-84969500D01*
X148895123Y-84969500D01*
X148892012Y-84969816D01*
X148891999Y-84969817D01*
X148745999Y-84984664D01*
X148555151Y-85044544D01*
X148380259Y-85141615D01*
X148228489Y-85271907D01*
X148106054Y-85430078D01*
X148017964Y-85609664D01*
X147967828Y-85803302D01*
X147957696Y-86003071D01*
X140868897Y-86003071D01*
X142460150Y-84411819D01*
X142521474Y-84378334D01*
X142547832Y-84375500D01*
X148208327Y-84375500D01*
X148275366Y-84395185D01*
X148298201Y-84414068D01*
X148301069Y-84417086D01*
X148360223Y-84458258D01*
X148465244Y-84531355D01*
X148649058Y-84610235D01*
X148844988Y-84650500D01*
X148844990Y-84650500D01*
X149641735Y-84650500D01*
X149644877Y-84650500D01*
X149793998Y-84635336D01*
X149984849Y-84575456D01*
X150159740Y-84478384D01*
X150311510Y-84348093D01*
X150383188Y-84255491D01*
X150433945Y-84189921D01*
X150439212Y-84179183D01*
X150522036Y-84010336D01*
X150572172Y-83816697D01*
X150582303Y-83616930D01*
X150572264Y-83551400D01*
X150552014Y-83419211D01*
X150482544Y-83231639D01*
X150376739Y-83061889D01*
X150238930Y-82916914D01*
X150238929Y-82916913D01*
X150074756Y-82802645D01*
X149890942Y-82723765D01*
X149695012Y-82683500D01*
X148895123Y-82683500D01*
X148892012Y-82683816D01*
X148891999Y-82683817D01*
X148745999Y-82698664D01*
X148555151Y-82758544D01*
X148380262Y-82855613D01*
X148327606Y-82900818D01*
X148295259Y-82928586D01*
X148231572Y-82957318D01*
X148214490Y-82958500D01*
X142228163Y-82958500D01*
X142220676Y-82958274D01*
X142159904Y-82954597D01*
X142100031Y-82965569D01*
X142092632Y-82966696D01*
X142032196Y-82974035D01*
X142022496Y-82977714D01*
X142000889Y-82983738D01*
X141990671Y-82985610D01*
X141935161Y-83010593D01*
X141928245Y-83013457D01*
X141871325Y-83035045D01*
X141862775Y-83040946D01*
X141843240Y-83051964D01*
X141833773Y-83056225D01*
X141785856Y-83093765D01*
X141779827Y-83098201D01*
X141729728Y-83132783D01*
X141689357Y-83178352D01*
X141684224Y-83183804D01*
X137466307Y-87401721D01*
X137404984Y-87435206D01*
X137335292Y-87430222D01*
X137279359Y-87388350D01*
X137262345Y-87357106D01*
X137192544Y-87168639D01*
X137086739Y-86998889D01*
X136948930Y-86853914D01*
X136948929Y-86853913D01*
X136784756Y-86739645D01*
X136600942Y-86660765D01*
X136405012Y-86620500D01*
X135605123Y-86620500D01*
X135602012Y-86620816D01*
X135601999Y-86620817D01*
X135455999Y-86635664D01*
X135265151Y-86695544D01*
X135090259Y-86792615D01*
X134938489Y-86922907D01*
X134816054Y-87081078D01*
X134727964Y-87260664D01*
X134677828Y-87454302D01*
X134667696Y-87654071D01*
X134692763Y-87817696D01*
X134683457Y-87886943D01*
X134657874Y-87924154D01*
X130326804Y-92255224D01*
X130321352Y-92260357D01*
X130275783Y-92300728D01*
X130241201Y-92350827D01*
X130236765Y-92356856D01*
X130199225Y-92404773D01*
X130194964Y-92414240D01*
X130183946Y-92433775D01*
X130178045Y-92442325D01*
X130156457Y-92499245D01*
X130153593Y-92506161D01*
X130128610Y-92561671D01*
X130126738Y-92571889D01*
X130120714Y-92593496D01*
X130117035Y-92603196D01*
X130109696Y-92663632D01*
X130108569Y-92671031D01*
X130097597Y-92730905D01*
X130101274Y-92791674D01*
X130101500Y-92799161D01*
X130101500Y-111454837D01*
X130101274Y-111462324D01*
X130097597Y-111523095D01*
X118110500Y-111523095D01*
X118110500Y-110993638D01*
X121326500Y-110993638D01*
X121326852Y-110996918D01*
X121326853Y-110996924D01*
X121333011Y-111054205D01*
X121384110Y-111191203D01*
X121471738Y-111308261D01*
X121588796Y-111395889D01*
X121725794Y-111446988D01*
X121725797Y-111446988D01*
X121725799Y-111446989D01*
X121786362Y-111453500D01*
X121789672Y-111453500D01*
X122950328Y-111453500D01*
X122953638Y-111453500D01*
X123014201Y-111446989D01*
X123151204Y-111395889D01*
X123151206Y-111395887D01*
X123158824Y-111393046D01*
X123228516Y-111388060D01*
X123245493Y-111393045D01*
X123367628Y-111438599D01*
X123423867Y-111444645D01*
X123430482Y-111445000D01*
X123760000Y-111445000D01*
X123760000Y-110460000D01*
X124260000Y-110460000D01*
X124260000Y-111445000D01*
X124589518Y-111445000D01*
X124596132Y-111444645D01*
X124652371Y-111438599D01*
X124787089Y-111388352D01*
X124902188Y-111302188D01*
X124988352Y-111187089D01*
X125038599Y-111052371D01*
X125044645Y-110996132D01*
X125045000Y-110989518D01*
X125045000Y-110460000D01*
X124260000Y-110460000D01*
X123760000Y-110460000D01*
X123760000Y-108975000D01*
X124260000Y-108975000D01*
X124260000Y-109960000D01*
X125045000Y-109960000D01*
X125045000Y-109430481D01*
X125044645Y-109423867D01*
X125038599Y-109367628D01*
X124988352Y-109232910D01*
X124902188Y-109117811D01*
X124787089Y-109031647D01*
X124652371Y-108981400D01*
X124596132Y-108975354D01*
X124589518Y-108975000D01*
X124260000Y-108975000D01*
X123760000Y-108975000D01*
X123430482Y-108975000D01*
X123423867Y-108975354D01*
X123367626Y-108981400D01*
X123245833Y-109026827D01*
X123176141Y-109031811D01*
X123114818Y-108998326D01*
X123081334Y-108937003D01*
X123078500Y-108910645D01*
X123078500Y-106459055D01*
X123078500Y-104006569D01*
X123098184Y-103939534D01*
X123150988Y-103893779D01*
X123191692Y-103883045D01*
X123214029Y-103881090D01*
X123404142Y-103864458D01*
X123611777Y-103808822D01*
X123806597Y-103717976D01*
X123982681Y-103594681D01*
X124134681Y-103442681D01*
X124257976Y-103266597D01*
X124348822Y-103071777D01*
X124404458Y-102864142D01*
X124423193Y-102650000D01*
X124404458Y-102435858D01*
X124348822Y-102228223D01*
X124257976Y-102033404D01*
X124227942Y-101990510D01*
X124134683Y-101857321D01*
X124088565Y-101811203D01*
X123982681Y-101705319D01*
X123806597Y-101582024D01*
X123769184Y-101564578D01*
X123604302Y-101487692D01*
X123551863Y-101441520D01*
X123532711Y-101374326D01*
X123552927Y-101307445D01*
X123604303Y-101262928D01*
X123802325Y-101170589D01*
X123858030Y-101131583D01*
X123296035Y-100569587D01*
X123323776Y-100565599D01*
X123446714Y-100509455D01*
X123548855Y-100420949D01*
X123621923Y-100307253D01*
X123648907Y-100215354D01*
X124211583Y-100778030D01*
X124250589Y-100722325D01*
X124340802Y-100528861D01*
X124396055Y-100322657D01*
X124414660Y-100110000D01*
X124396055Y-99897342D01*
X124340802Y-99691138D01*
X124250587Y-99497670D01*
X124211583Y-99441967D01*
X123648906Y-100004644D01*
X123621923Y-99912747D01*
X123548855Y-99799051D01*
X123446714Y-99710545D01*
X123323776Y-99654401D01*
X123296035Y-99650412D01*
X123858031Y-99088416D01*
X123858030Y-99088415D01*
X123802325Y-99049409D01*
X123604303Y-98957071D01*
X123551863Y-98910899D01*
X123532711Y-98843706D01*
X123552926Y-98776824D01*
X123604303Y-98732307D01*
X123611777Y-98728822D01*
X123806597Y-98637976D01*
X123982681Y-98514681D01*
X124134681Y-98362681D01*
X124257976Y-98186597D01*
X124348822Y-97991777D01*
X124404458Y-97784142D01*
X124423193Y-97570000D01*
X124404458Y-97355858D01*
X124348822Y-97148223D01*
X124257976Y-96953404D01*
X124245712Y-96935889D01*
X124134683Y-96777321D01*
X124069406Y-96712044D01*
X123982681Y-96625319D01*
X123806597Y-96502024D01*
X123769184Y-96484578D01*
X123611778Y-96411178D01*
X123404139Y-96355541D01*
X123190000Y-96336806D01*
X122975860Y-96355541D01*
X122768221Y-96411178D01*
X122573402Y-96502024D01*
X122397317Y-96625319D01*
X122245319Y-96777317D01*
X122122024Y-96953402D01*
X122031178Y-97148221D01*
X121975541Y-97355860D01*
X121956806Y-97570000D01*
X121975541Y-97784139D01*
X122031178Y-97991778D01*
X122099730Y-98138787D01*
X122122024Y-98186597D01*
X122245319Y-98362681D01*
X122397319Y-98514681D01*
X122573403Y-98637976D01*
X122768223Y-98728822D01*
X122775697Y-98732307D01*
X122828136Y-98778479D01*
X122847288Y-98845673D01*
X122827072Y-98912554D01*
X122775697Y-98957071D01*
X122577670Y-99049412D01*
X122521967Y-99088414D01*
X123083965Y-99650412D01*
X123056224Y-99654401D01*
X122933286Y-99710545D01*
X122831145Y-99799051D01*
X122758077Y-99912747D01*
X122731093Y-100004645D01*
X122168415Y-99441967D01*
X122168414Y-99441967D01*
X122129411Y-99497672D01*
X122039197Y-99691138D01*
X121983944Y-99897342D01*
X121965339Y-100110000D01*
X121983944Y-100322657D01*
X122039197Y-100528861D01*
X122129410Y-100722326D01*
X122168415Y-100778030D01*
X122168416Y-100778031D01*
X122731092Y-100215354D01*
X122758077Y-100307253D01*
X122831145Y-100420949D01*
X122933286Y-100509455D01*
X123056224Y-100565599D01*
X123083965Y-100569587D01*
X122521967Y-101131583D01*
X122577669Y-101170586D01*
X122775697Y-101262928D01*
X122828136Y-101309100D01*
X122847288Y-101376294D01*
X122827072Y-101443175D01*
X122775697Y-101487692D01*
X122573402Y-101582024D01*
X122397317Y-101705319D01*
X122245319Y-101857317D01*
X122122024Y-102033402D01*
X122031178Y-102228221D01*
X121975541Y-102435860D01*
X121956806Y-102650000D01*
X121970368Y-102805019D01*
X121956601Y-102873519D01*
X121934521Y-102903507D01*
X121886804Y-102951224D01*
X121881352Y-102956357D01*
X121835783Y-102996728D01*
X121801201Y-103046827D01*
X121796765Y-103052856D01*
X121759225Y-103100773D01*
X121754964Y-103110240D01*
X121743946Y-103129775D01*
X121738045Y-103138325D01*
X121716457Y-103195245D01*
X121713593Y-103202161D01*
X121688610Y-103257671D01*
X121686738Y-103267889D01*
X121680714Y-103289496D01*
X121677035Y-103299196D01*
X121669696Y-103359632D01*
X121668569Y-103367031D01*
X121657597Y-103426906D01*
X121661273Y-103487675D01*
X121661499Y-103495161D01*
X121661500Y-108910898D01*
X121641815Y-108977937D01*
X121602198Y-109012265D01*
X121603068Y-109013427D01*
X121471737Y-109111740D01*
X121384110Y-109228796D01*
X121333011Y-109365794D01*
X121332814Y-109367628D01*
X121326500Y-109426362D01*
X121326500Y-110993638D01*
X118110500Y-110993638D01*
X118110500Y-92004518D01*
X124970000Y-92004518D01*
X124970354Y-92011132D01*
X124976400Y-92067371D01*
X125026647Y-92202089D01*
X125112811Y-92317188D01*
X125227910Y-92403352D01*
X125362628Y-92453599D01*
X125418867Y-92459645D01*
X125425482Y-92460000D01*
X126020000Y-92460000D01*
X126020000Y-91475686D01*
X126031955Y-91487641D01*
X126144852Y-91545165D01*
X126238519Y-91560000D01*
X126301481Y-91560000D01*
X126395148Y-91545165D01*
X126508045Y-91487641D01*
X126520000Y-91475686D01*
X126520000Y-92460000D01*
X127114518Y-92460000D01*
X127121132Y-92459645D01*
X127177371Y-92453599D01*
X127312089Y-92403352D01*
X127427186Y-92317190D01*
X127428843Y-92314978D01*
X127484775Y-92273105D01*
X127554466Y-92268118D01*
X127599235Y-92287709D01*
X127613251Y-92297523D01*
X127820757Y-92394284D01*
X128041913Y-92453543D01*
X128270000Y-92473498D01*
X128498087Y-92453543D01*
X128719243Y-92394284D01*
X128926749Y-92297523D01*
X129114300Y-92166198D01*
X129276198Y-92004300D01*
X129407523Y-91816749D01*
X129504284Y-91609243D01*
X129563543Y-91388087D01*
X129583498Y-91160000D01*
X129563543Y-90931913D01*
X129504284Y-90710757D01*
X129452732Y-90600203D01*
X129407525Y-90503255D01*
X129407524Y-90503254D01*
X129407523Y-90503251D01*
X129276198Y-90315700D01*
X129114300Y-90153802D01*
X128926749Y-90022477D01*
X128926746Y-90022476D01*
X128926744Y-90022474D01*
X128719246Y-89925717D01*
X128719243Y-89925716D01*
X128554732Y-89881635D01*
X128498084Y-89866456D01*
X128269999Y-89846501D01*
X128041915Y-89866456D01*
X127820753Y-89925717D01*
X127613250Y-90022476D01*
X127599233Y-90032291D01*
X127533026Y-90054617D01*
X127465259Y-90037604D01*
X127428845Y-90005023D01*
X127427189Y-90002811D01*
X127312089Y-89916647D01*
X127177371Y-89866400D01*
X127121132Y-89860354D01*
X127114518Y-89860000D01*
X126520000Y-89860000D01*
X126520000Y-90844314D01*
X126508045Y-90832359D01*
X126395148Y-90774835D01*
X126301481Y-90760000D01*
X126238519Y-90760000D01*
X126144852Y-90774835D01*
X126031955Y-90832359D01*
X126020000Y-90844313D01*
X126020000Y-89860000D01*
X125425482Y-89860000D01*
X125418867Y-89860354D01*
X125362628Y-89866400D01*
X125227910Y-89916647D01*
X125112811Y-90002811D01*
X125026647Y-90117910D01*
X124976400Y-90252628D01*
X124970354Y-90308867D01*
X124970000Y-90315481D01*
X124970000Y-90910000D01*
X125954314Y-90910000D01*
X125942359Y-90921955D01*
X125884835Y-91034852D01*
X125865014Y-91160000D01*
X125884835Y-91285148D01*
X125942359Y-91398045D01*
X125954314Y-91410000D01*
X124970000Y-91410000D01*
X124970000Y-92004518D01*
X118110500Y-92004518D01*
X118110500Y-84349518D01*
X125735000Y-84349518D01*
X125735354Y-84356132D01*
X125741400Y-84412371D01*
X125791647Y-84547089D01*
X125877811Y-84662188D01*
X125992910Y-84748352D01*
X126127628Y-84798599D01*
X126183867Y-84804645D01*
X126190482Y-84805000D01*
X126750000Y-84805000D01*
X126750000Y-83986494D01*
X126854839Y-84034373D01*
X126963527Y-84050000D01*
X127036473Y-84050000D01*
X127145161Y-84034373D01*
X127250000Y-83986494D01*
X127250000Y-84805000D01*
X127809518Y-84805000D01*
X127816132Y-84804645D01*
X127872371Y-84798599D01*
X128007089Y-84748352D01*
X128122188Y-84662188D01*
X128208352Y-84547089D01*
X128258599Y-84412371D01*
X128264645Y-84356132D01*
X128265000Y-84349518D01*
X128265000Y-84332669D01*
X128284685Y-84265630D01*
X128337489Y-84219875D01*
X128406647Y-84209931D01*
X128470203Y-84238956D01*
X128490570Y-84261540D01*
X128560716Y-84361717D01*
X128560718Y-84361719D01*
X128718283Y-84519284D01*
X128900816Y-84647097D01*
X129057484Y-84720151D01*
X129102773Y-84741270D01*
X129318014Y-84798944D01*
X129540000Y-84818365D01*
X129761986Y-84798944D01*
X129977227Y-84741270D01*
X130179183Y-84647097D01*
X130361717Y-84519284D01*
X130519284Y-84361717D01*
X130647097Y-84179183D01*
X130741270Y-83977227D01*
X130798944Y-83761986D01*
X130818365Y-83540000D01*
X130798944Y-83318014D01*
X130741270Y-83102773D01*
X130647097Y-82900818D01*
X130519284Y-82718283D01*
X130361717Y-82560716D01*
X130361716Y-82560715D01*
X130179183Y-82432902D01*
X129977230Y-82338731D01*
X129977227Y-82338730D01*
X129869606Y-82309892D01*
X129761983Y-82281055D01*
X129540000Y-82261634D01*
X129318016Y-82281055D01*
X129102771Y-82338730D01*
X128933183Y-82417811D01*
X128900818Y-82432903D01*
X128718283Y-82560716D01*
X128718279Y-82560719D01*
X128560718Y-82718280D01*
X128560715Y-82718283D01*
X128560716Y-82718283D01*
X128490573Y-82818455D01*
X128435997Y-82862080D01*
X128366499Y-82869272D01*
X128304144Y-82837750D01*
X128268731Y-82777520D01*
X128265000Y-82747331D01*
X128265000Y-82730481D01*
X128264645Y-82723867D01*
X128258599Y-82667628D01*
X128208352Y-82532910D01*
X128122188Y-82417811D01*
X128007089Y-82331647D01*
X127872371Y-82281400D01*
X127816132Y-82275354D01*
X127809518Y-82275000D01*
X127250000Y-82275000D01*
X127250000Y-83093505D01*
X127145161Y-83045627D01*
X127036473Y-83030000D01*
X126963527Y-83030000D01*
X126854839Y-83045627D01*
X126750000Y-83093505D01*
X126750000Y-82275000D01*
X126190482Y-82275000D01*
X126183867Y-82275354D01*
X126127628Y-82281400D01*
X125992910Y-82331647D01*
X125877811Y-82417811D01*
X125791647Y-82532910D01*
X125741400Y-82667628D01*
X125735354Y-82723867D01*
X125735000Y-82730481D01*
X125735000Y-83290000D01*
X126554428Y-83290000D01*
X126531318Y-83325960D01*
X126490000Y-83466673D01*
X126490000Y-83613327D01*
X126531318Y-83754040D01*
X126554428Y-83790000D01*
X125735000Y-83790000D01*
X125735000Y-84349518D01*
X118110500Y-84349518D01*
X118110500Y-79730000D01*
X132576641Y-79730000D01*
X132576822Y-79733338D01*
X132576822Y-79733356D01*
X132595881Y-80084878D01*
X132595882Y-80084894D01*
X132596064Y-80088237D01*
X132596606Y-80091547D01*
X132596607Y-80091550D01*
X132653561Y-80438960D01*
X132653563Y-80438972D01*
X132654105Y-80442274D01*
X132655001Y-80445503D01*
X132655004Y-80445514D01*
X132730884Y-80718806D01*
X132750085Y-80787961D01*
X132882877Y-81121243D01*
X132884447Y-81124205D01*
X132884452Y-81124215D01*
X133004356Y-81350377D01*
X133050925Y-81438215D01*
X133052812Y-81440998D01*
X133052815Y-81441003D01*
X133250371Y-81732376D01*
X133252258Y-81735159D01*
X133484516Y-82008595D01*
X133486947Y-82010898D01*
X133486953Y-82010904D01*
X133666533Y-82181011D01*
X133744977Y-82255317D01*
X134030586Y-82472431D01*
X134337995Y-82657393D01*
X134663599Y-82808033D01*
X135003583Y-82922587D01*
X135353958Y-82999711D01*
X135710618Y-83038500D01*
X135713976Y-83038500D01*
X136066024Y-83038500D01*
X136069382Y-83038500D01*
X136426042Y-82999711D01*
X136776417Y-82922587D01*
X137116401Y-82808033D01*
X137442005Y-82657393D01*
X137749414Y-82472431D01*
X138035023Y-82255317D01*
X138295484Y-82008595D01*
X138527742Y-81735159D01*
X138729075Y-81438215D01*
X138897123Y-81121243D01*
X139029915Y-80787961D01*
X139125895Y-80442274D01*
X139183936Y-80088237D01*
X139203359Y-79730000D01*
X139183936Y-79371763D01*
X139125895Y-79017726D01*
X139029915Y-78672039D01*
X138897123Y-78338757D01*
X138729075Y-78021785D01*
X138527742Y-77724841D01*
X138295484Y-77451405D01*
X138293051Y-77449100D01*
X138293046Y-77449095D01*
X138037453Y-77206985D01*
X138035023Y-77204683D01*
X137749414Y-76987569D01*
X137746540Y-76985840D01*
X137746536Y-76985837D01*
X137444887Y-76804341D01*
X137444886Y-76804340D01*
X137442005Y-76802607D01*
X137116401Y-76651967D01*
X137023957Y-76620819D01*
X136779591Y-76538482D01*
X136779583Y-76538479D01*
X136776417Y-76537413D01*
X136773150Y-76536694D01*
X136773147Y-76536693D01*
X136429323Y-76461011D01*
X136429319Y-76461010D01*
X136426042Y-76460289D01*
X136422706Y-76459926D01*
X136422699Y-76459925D01*
X136072720Y-76421863D01*
X136072719Y-76421862D01*
X136069382Y-76421500D01*
X135710618Y-76421500D01*
X135707281Y-76421862D01*
X135707279Y-76421863D01*
X135357300Y-76459925D01*
X135357290Y-76459926D01*
X135353958Y-76460289D01*
X135350683Y-76461009D01*
X135350676Y-76461011D01*
X135006852Y-76536693D01*
X135006844Y-76536695D01*
X135003583Y-76537413D01*
X135000421Y-76538478D01*
X135000408Y-76538482D01*
X134666786Y-76650893D01*
X134666783Y-76650894D01*
X134663599Y-76651967D01*
X134660550Y-76653377D01*
X134660544Y-76653380D01*
X134341050Y-76801193D01*
X134341040Y-76801197D01*
X134337995Y-76802607D01*
X134335121Y-76804336D01*
X134335112Y-76804341D01*
X134033463Y-76985837D01*
X134033450Y-76985845D01*
X134030586Y-76987569D01*
X134027928Y-76989589D01*
X134027917Y-76989597D01*
X133747636Y-77202661D01*
X133747628Y-77202667D01*
X133744977Y-77204683D01*
X133742553Y-77206978D01*
X133742546Y-77206985D01*
X133486953Y-77449095D01*
X133486938Y-77449110D01*
X133484516Y-77451405D01*
X133482353Y-77453950D01*
X133482342Y-77453963D01*
X133254431Y-77722282D01*
X133254425Y-77722289D01*
X133252258Y-77724841D01*
X133250378Y-77727613D01*
X133250371Y-77727623D01*
X133052815Y-78018996D01*
X133052807Y-78019008D01*
X133050925Y-78021785D01*
X133049350Y-78024755D01*
X133049348Y-78024759D01*
X132884452Y-78335784D01*
X132884443Y-78335801D01*
X132882877Y-78338757D01*
X132881636Y-78341869D01*
X132881632Y-78341880D01*
X132751330Y-78668913D01*
X132751327Y-78668921D01*
X132750085Y-78672039D01*
X132749185Y-78675277D01*
X132749185Y-78675280D01*
X132655004Y-79014485D01*
X132655000Y-79014500D01*
X132654105Y-79017726D01*
X132653564Y-79021023D01*
X132653561Y-79021039D01*
X132596607Y-79368449D01*
X132596064Y-79371763D01*
X132595882Y-79375103D01*
X132595881Y-79375121D01*
X132576822Y-79726643D01*
X132576822Y-79726661D01*
X132576641Y-79730000D01*
X118110500Y-79730000D01*
X118110500Y-76044500D01*
X118130185Y-75977461D01*
X118182989Y-75931706D01*
X118234500Y-75920500D01*
X182755500Y-75920500D01*
X182822539Y-75940185D01*
G37*
%TD.AperFunction*%
%TD*%
M02*
