%TF.GenerationSoftware,KiCad,Pcbnew,8.0.2*%
%TF.CreationDate,2024-10-10T15:26:08+02:00*%
%TF.ProjectId,BMS,424d532e-6b69-4636-9164-5f7063625858,rev?*%
%TF.SameCoordinates,Original*%
%TF.FileFunction,Drillmap*%
%TF.FilePolarity,Positive*%
%FSLAX45Y45*%
G04 Gerber Fmt 4.5, Leading zero omitted, Abs format (unit mm)*
G04 Created by KiCad (PCBNEW 8.0.2) date 2024-10-10 15:26:08*
%MOMM*%
%LPD*%
G01*
G04 APERTURE LIST*
%ADD10C,0.100000*%
%ADD11C,0.200000*%
%ADD12C,0.120000*%
%ADD13C,0.130000*%
%ADD14C,0.155000*%
%ADD15C,0.320000*%
G04 APERTURE END LIST*
D10*
X20762132Y-7337868D02*
X20537868Y-7562132D01*
X20850000Y-6750000D02*
X20850000Y-7125736D01*
X20537868Y-10587868D02*
G75*
G02*
X20450003Y-10375736I212132J212128D01*
G01*
X6800000Y-10375736D02*
X6800000Y-7774264D01*
X20450000Y-11800000D02*
X6800000Y-11800000D01*
X6487868Y-7337868D02*
X6712132Y-7562132D01*
X6800000Y-6350000D02*
X20450000Y-6350000D01*
X6800000Y-10375736D02*
G75*
G02*
X6712130Y-10587866I-299980J-4D01*
G01*
X20850000Y-7125736D02*
G75*
G02*
X20762130Y-7337866I-299980J-4D01*
G01*
X6400000Y-11400000D02*
X6400000Y-11024264D01*
X6487868Y-7337868D02*
G75*
G02*
X6400003Y-7125736I212132J212128D01*
G01*
X20450000Y-6350000D02*
G75*
G02*
X20850000Y-6750000I0J-400000D01*
G01*
X20450000Y-7774264D02*
G75*
G02*
X20537870Y-7562134I299980J4D01*
G01*
X6712132Y-7562132D02*
G75*
G02*
X6799997Y-7774264I-212132J-212128D01*
G01*
X20850000Y-11024264D02*
X20850000Y-11400000D01*
X6800000Y-11800000D02*
G75*
G02*
X6400000Y-11400000I0J400000D01*
G01*
X20762132Y-10812132D02*
G75*
G02*
X20849997Y-11024264I-212132J-212128D01*
G01*
X20850000Y-11400000D02*
G75*
G02*
X20450000Y-11800000I-400000J0D01*
G01*
X20450000Y-10375736D02*
X20450000Y-7774264D01*
X6487868Y-10812132D02*
X6712132Y-10587868D01*
X6400000Y-6750000D02*
X6400000Y-7125736D01*
X6400000Y-11024264D02*
G75*
G02*
X6487870Y-10812134I299980J4D01*
G01*
X20762132Y-10812132D02*
X20537868Y-10587868D01*
X6400000Y-6750000D02*
G75*
G02*
X6800000Y-6350000I400000J0D01*
G01*
D11*
D10*
X9180000Y-6730000D02*
X9220000Y-6770000D01*
X9220000Y-6730000D02*
X9180000Y-6770000D01*
X10035000Y-9080000D02*
X10075000Y-9120000D01*
X10075000Y-9080000D02*
X10035000Y-9120000D01*
X10035000Y-10080000D02*
X10075000Y-10120000D01*
X10075000Y-10080000D02*
X10035000Y-10120000D01*
X10035000Y-10880000D02*
X10075000Y-10920000D01*
X10075000Y-10880000D02*
X10035000Y-10920000D01*
X10085000Y-7280000D02*
X10125000Y-7320000D01*
X10125000Y-7280000D02*
X10085000Y-7320000D01*
X10085000Y-8180000D02*
X10125000Y-8220000D01*
X10125000Y-8180000D02*
X10085000Y-8220000D01*
X10230000Y-11180000D02*
X10270000Y-11220000D01*
X10270000Y-11180000D02*
X10230000Y-11220000D01*
X10230000Y-11630000D02*
X10270000Y-11670000D01*
X10270000Y-11630000D02*
X10230000Y-11670000D01*
X10280000Y-6680000D02*
X10320000Y-6720000D01*
X10320000Y-6680000D02*
X10280000Y-6720000D01*
X10280000Y-7130000D02*
X10320000Y-7170000D01*
X10320000Y-7130000D02*
X10280000Y-7170000D01*
X10280000Y-7580000D02*
X10320000Y-7620000D01*
X10320000Y-7580000D02*
X10280000Y-7620000D01*
X10280000Y-8030000D02*
X10320000Y-8070000D01*
X10320000Y-8030000D02*
X10280000Y-8070000D01*
X10280000Y-8480000D02*
X10320000Y-8520000D01*
X10320000Y-8480000D02*
X10280000Y-8520000D01*
X10280000Y-8930000D02*
X10320000Y-8970000D01*
X10320000Y-8930000D02*
X10280000Y-8970000D01*
X10280000Y-9380000D02*
X10320000Y-9420000D01*
X10320000Y-9380000D02*
X10280000Y-9420000D01*
X10280000Y-9830000D02*
X10320000Y-9870000D01*
X10320000Y-9830000D02*
X10280000Y-9870000D01*
X10280000Y-10280000D02*
X10320000Y-10320000D01*
X10320000Y-10280000D02*
X10280000Y-10320000D01*
X10280000Y-10730000D02*
X10320000Y-10770000D01*
X10320000Y-10730000D02*
X10280000Y-10770000D01*
X11680000Y-6630000D02*
X11720000Y-6670000D01*
X11720000Y-6630000D02*
X11680000Y-6670000D01*
X11680000Y-7830000D02*
X11720000Y-7870000D01*
X11720000Y-7830000D02*
X11680000Y-7870000D01*
X11680000Y-9030000D02*
X11720000Y-9070000D01*
X11720000Y-9030000D02*
X11680000Y-9070000D01*
X11680000Y-10230000D02*
X11720000Y-10270000D01*
X11720000Y-10230000D02*
X11680000Y-10270000D01*
X11680000Y-11430000D02*
X11720000Y-11470000D01*
X11720000Y-11430000D02*
X11680000Y-11470000D01*
X11930000Y-6830000D02*
X11970000Y-6870000D01*
X11970000Y-6830000D02*
X11930000Y-6870000D01*
X11930000Y-7230000D02*
X11970000Y-7270000D01*
X11970000Y-7230000D02*
X11930000Y-7270000D01*
X11930000Y-7630000D02*
X11970000Y-7670000D01*
X11970000Y-7630000D02*
X11930000Y-7670000D01*
X11930000Y-8030000D02*
X11970000Y-8070000D01*
X11970000Y-8030000D02*
X11930000Y-8070000D01*
X11930000Y-8430000D02*
X11970000Y-8470000D01*
X11970000Y-8430000D02*
X11930000Y-8470000D01*
X11930000Y-8830000D02*
X11970000Y-8870000D01*
X11970000Y-8830000D02*
X11930000Y-8870000D01*
X11930000Y-9230000D02*
X11970000Y-9270000D01*
X11970000Y-9230000D02*
X11930000Y-9270000D01*
X11930000Y-9630000D02*
X11970000Y-9670000D01*
X11970000Y-9630000D02*
X11930000Y-9670000D01*
X11930000Y-10030000D02*
X11970000Y-10070000D01*
X11970000Y-10030000D02*
X11930000Y-10070000D01*
X11930000Y-10430000D02*
X11970000Y-10470000D01*
X11970000Y-10430000D02*
X11930000Y-10470000D01*
X11930000Y-10830000D02*
X11970000Y-10870000D01*
X11970000Y-10830000D02*
X11930000Y-10870000D01*
X11930000Y-11230000D02*
X11970000Y-11270000D01*
X11970000Y-11230000D02*
X11930000Y-11270000D01*
X13080000Y-6930000D02*
X13120000Y-6970000D01*
X13120000Y-6930000D02*
X13080000Y-6970000D01*
X13355000Y-6480000D02*
X13395000Y-6520000D01*
X13395000Y-6480000D02*
X13355000Y-6520000D01*
X13780000Y-10780000D02*
X13820000Y-10820000D01*
X13820000Y-10780000D02*
X13780000Y-10820000D01*
X13980000Y-7630000D02*
X14020000Y-7670000D01*
X14020000Y-7630000D02*
X13980000Y-7670000D01*
X14330000Y-8955000D02*
X14370000Y-8995000D01*
X14370000Y-8955000D02*
X14330000Y-8995000D01*
X14330000Y-10880000D02*
X14370000Y-10920000D01*
X14370000Y-10880000D02*
X14330000Y-10920000D01*
X14730000Y-10130000D02*
X14770000Y-10170000D01*
X14770000Y-10130000D02*
X14730000Y-10170000D01*
X14930000Y-8230000D02*
X14970000Y-8270000D01*
X14970000Y-8230000D02*
X14930000Y-8270000D01*
X15680000Y-9530000D02*
X15720000Y-9570000D01*
X15720000Y-9530000D02*
X15680000Y-9570000D01*
X15930000Y-9930000D02*
X15970000Y-9970000D01*
X15970000Y-9930000D02*
X15930000Y-9970000D01*
X16730000Y-10580000D02*
X16770000Y-10620000D01*
X16770000Y-10580000D02*
X16730000Y-10620000D01*
X17230000Y-9380000D02*
X17270000Y-9420000D01*
X17270000Y-9380000D02*
X17230000Y-9420000D01*
X17330000Y-10630000D02*
X17370000Y-10670000D01*
X17370000Y-10630000D02*
X17330000Y-10670000D01*
X17630000Y-9930000D02*
X17670000Y-9970000D01*
X17670000Y-9930000D02*
X17630000Y-9970000D01*
X17680000Y-8280000D02*
X17720000Y-8320000D01*
X17720000Y-8280000D02*
X17680000Y-8320000D01*
X17780000Y-7430000D02*
X17820000Y-7470000D01*
X17820000Y-7430000D02*
X17780000Y-7470000D01*
X17980000Y-8580000D02*
X18020000Y-8620000D01*
X18020000Y-8580000D02*
X17980000Y-8620000D01*
X18130000Y-8230000D02*
X18170000Y-8270000D01*
X18170000Y-8230000D02*
X18130000Y-8270000D01*
X18180000Y-8130000D02*
X18220000Y-8170000D01*
X18220000Y-8130000D02*
X18180000Y-8170000D01*
X18180000Y-8330000D02*
X18220000Y-8370000D01*
X18220000Y-8330000D02*
X18180000Y-8370000D01*
X18430000Y-9030000D02*
X18470000Y-9070000D01*
X18470000Y-9030000D02*
X18430000Y-9070000D01*
X18530000Y-9980000D02*
X18570000Y-10020000D01*
X18570000Y-9980000D02*
X18530000Y-10020000D01*
X18764443Y-8111281D02*
X18804443Y-8151281D01*
X18804443Y-8111281D02*
X18764443Y-8151281D01*
X18830000Y-9080000D02*
X18870000Y-9120000D01*
X18870000Y-9080000D02*
X18830000Y-9120000D01*
X18943563Y-9043563D02*
X18983563Y-9083563D01*
X18983563Y-9043563D02*
X18943563Y-9083563D01*
X19240201Y-9085701D02*
X19280201Y-9125701D01*
X19280201Y-9085701D02*
X19240201Y-9125701D01*
X19430000Y-8980000D02*
X19470000Y-9020000D01*
X19470000Y-8980000D02*
X19430000Y-9020000D01*
X19480000Y-8830000D02*
X19520000Y-8870000D01*
X19520000Y-8830000D02*
X19480000Y-8870000D01*
D12*
X17644000Y-10400000D02*
G75*
G02*
X17524000Y-10400000I-60000J0D01*
G01*
X17524000Y-10400000D02*
G75*
G02*
X17644000Y-10400000I60000J0D01*
G01*
X17648000Y-7777500D02*
G75*
G02*
X17528000Y-7777500I-60000J0D01*
G01*
X17528000Y-7777500D02*
G75*
G02*
X17648000Y-7777500I60000J0D01*
G01*
X17898000Y-10400000D02*
G75*
G02*
X17778000Y-10400000I-60000J0D01*
G01*
X17778000Y-10400000D02*
G75*
G02*
X17898000Y-10400000I60000J0D01*
G01*
X17902000Y-7777500D02*
G75*
G02*
X17782000Y-7777500I-60000J0D01*
G01*
X17782000Y-7777500D02*
G75*
G02*
X17902000Y-7777500I60000J0D01*
G01*
X18152000Y-10400000D02*
G75*
G02*
X18032000Y-10400000I-60000J0D01*
G01*
X18032000Y-10400000D02*
G75*
G02*
X18152000Y-10400000I60000J0D01*
G01*
X18156000Y-7777500D02*
G75*
G02*
X18036000Y-7777500I-60000J0D01*
G01*
X18036000Y-7777500D02*
G75*
G02*
X18156000Y-7777500I60000J0D01*
G01*
X18406000Y-10400000D02*
G75*
G02*
X18286000Y-10400000I-60000J0D01*
G01*
X18286000Y-10400000D02*
G75*
G02*
X18406000Y-10400000I60000J0D01*
G01*
X18410000Y-7777500D02*
G75*
G02*
X18290000Y-7777500I-60000J0D01*
G01*
X18290000Y-7777500D02*
G75*
G02*
X18410000Y-7777500I60000J0D01*
G01*
X18660000Y-10400000D02*
G75*
G02*
X18540000Y-10400000I-60000J0D01*
G01*
X18540000Y-10400000D02*
G75*
G02*
X18660000Y-10400000I60000J0D01*
G01*
X18664000Y-7777500D02*
G75*
G02*
X18544000Y-7777500I-60000J0D01*
G01*
X18544000Y-7777500D02*
G75*
G02*
X18664000Y-7777500I60000J0D01*
G01*
X18914000Y-10400000D02*
G75*
G02*
X18794000Y-10400000I-60000J0D01*
G01*
X18794000Y-10400000D02*
G75*
G02*
X18914000Y-10400000I60000J0D01*
G01*
X18918000Y-7777500D02*
G75*
G02*
X18798000Y-7777500I-60000J0D01*
G01*
X18798000Y-7777500D02*
G75*
G02*
X18918000Y-7777500I60000J0D01*
G01*
X19168000Y-10400000D02*
G75*
G02*
X19048000Y-10400000I-60000J0D01*
G01*
X19048000Y-10400000D02*
G75*
G02*
X19168000Y-10400000I60000J0D01*
G01*
X19172000Y-7777500D02*
G75*
G02*
X19052000Y-7777500I-60000J0D01*
G01*
X19052000Y-7777500D02*
G75*
G02*
X19172000Y-7777500I60000J0D01*
G01*
X19422000Y-10400000D02*
G75*
G02*
X19302000Y-10400000I-60000J0D01*
G01*
X19302000Y-10400000D02*
G75*
G02*
X19422000Y-10400000I60000J0D01*
G01*
X19426000Y-7777500D02*
G75*
G02*
X19306000Y-7777500I-60000J0D01*
G01*
X19306000Y-7777500D02*
G75*
G02*
X19426000Y-7777500I60000J0D01*
G01*
X19676000Y-10400000D02*
G75*
G02*
X19556000Y-10400000I-60000J0D01*
G01*
X19556000Y-10400000D02*
G75*
G02*
X19676000Y-10400000I60000J0D01*
G01*
X19680000Y-7777500D02*
G75*
G02*
X19560000Y-7777500I-60000J0D01*
G01*
X19560000Y-7777500D02*
G75*
G02*
X19680000Y-7777500I60000J0D01*
G01*
D13*
X7681000Y-10335000D02*
X7681000Y-10465000D01*
X7616000Y-10400000D02*
X7746000Y-10400000D01*
X7693000Y-7685000D02*
X7693000Y-7815000D01*
X7628000Y-7750000D02*
X7758000Y-7750000D01*
X7935000Y-10335000D02*
X7935000Y-10465000D01*
X7870000Y-10400000D02*
X8000000Y-10400000D01*
X7947000Y-7685000D02*
X7947000Y-7815000D01*
X7882000Y-7750000D02*
X8012000Y-7750000D01*
X8189000Y-10335000D02*
X8189000Y-10465000D01*
X8124000Y-10400000D02*
X8254000Y-10400000D01*
X8201000Y-7685000D02*
X8201000Y-7815000D01*
X8136000Y-7750000D02*
X8266000Y-7750000D01*
X8443000Y-10335000D02*
X8443000Y-10465000D01*
X8378000Y-10400000D02*
X8508000Y-10400000D01*
X8455000Y-7685000D02*
X8455000Y-7815000D01*
X8390000Y-7750000D02*
X8520000Y-7750000D01*
X8697000Y-10335000D02*
X8697000Y-10465000D01*
X8632000Y-10400000D02*
X8762000Y-10400000D01*
X8709000Y-7685000D02*
X8709000Y-7815000D01*
X8644000Y-7750000D02*
X8774000Y-7750000D01*
X8951000Y-10335000D02*
X8951000Y-10465000D01*
X8886000Y-10400000D02*
X9016000Y-10400000D01*
X8963000Y-7685000D02*
X8963000Y-7815000D01*
X8898000Y-7750000D02*
X9028000Y-7750000D01*
X9205000Y-10335000D02*
X9205000Y-10465000D01*
X9140000Y-10400000D02*
X9270000Y-10400000D01*
X9217000Y-7685000D02*
X9217000Y-7815000D01*
X9152000Y-7750000D02*
X9282000Y-7750000D01*
D14*
X15400801Y-6870301D02*
X15400801Y-6760699D01*
X15291199Y-6760699D01*
X15291199Y-6870301D01*
X15400801Y-6870301D01*
X15654801Y-6870301D02*
X15654801Y-6760699D01*
X15545199Y-6760699D01*
X15545199Y-6870301D01*
X15654801Y-6870301D01*
X16354801Y-6870301D02*
X16354801Y-6760699D01*
X16245199Y-6760699D01*
X16245199Y-6870301D01*
X16354801Y-6870301D01*
X16608801Y-6870301D02*
X16608801Y-6760699D01*
X16499199Y-6760699D01*
X16499199Y-6870301D01*
X16608801Y-6870301D01*
D15*
X6950000Y-6985000D02*
X7110000Y-6825000D01*
X6950000Y-6665000D01*
X6790000Y-6825000D01*
X6950000Y-6985000D01*
X6950000Y-11485000D02*
X7110000Y-11325000D01*
X6950000Y-11165000D01*
X6790000Y-11325000D01*
X6950000Y-11485000D01*
X20375000Y-6985000D02*
X20535000Y-6825000D01*
X20375000Y-6665000D01*
X20215000Y-6825000D01*
X20375000Y-6985000D01*
X20375000Y-11485000D02*
X20535000Y-11325000D01*
X20375000Y-11165000D01*
X20215000Y-11325000D01*
X20375000Y-11485000D01*
D11*
X6655777Y-12116484D02*
X6655777Y-11916484D01*
X6655777Y-11916484D02*
X6703396Y-11916484D01*
X6703396Y-11916484D02*
X6731967Y-11926008D01*
X6731967Y-11926008D02*
X6751015Y-11945055D01*
X6751015Y-11945055D02*
X6760539Y-11964103D01*
X6760539Y-11964103D02*
X6770062Y-12002198D01*
X6770062Y-12002198D02*
X6770062Y-12030769D01*
X6770062Y-12030769D02*
X6760539Y-12068865D01*
X6760539Y-12068865D02*
X6751015Y-12087912D01*
X6751015Y-12087912D02*
X6731967Y-12106960D01*
X6731967Y-12106960D02*
X6703396Y-12116484D01*
X6703396Y-12116484D02*
X6655777Y-12116484D01*
X6855777Y-12116484D02*
X6855777Y-11983150D01*
X6855777Y-12021246D02*
X6865301Y-12002198D01*
X6865301Y-12002198D02*
X6874824Y-11992674D01*
X6874824Y-11992674D02*
X6893872Y-11983150D01*
X6893872Y-11983150D02*
X6912920Y-11983150D01*
X6979586Y-12116484D02*
X6979586Y-11983150D01*
X6979586Y-11916484D02*
X6970062Y-11926008D01*
X6970062Y-11926008D02*
X6979586Y-11935531D01*
X6979586Y-11935531D02*
X6989110Y-11926008D01*
X6989110Y-11926008D02*
X6979586Y-11916484D01*
X6979586Y-11916484D02*
X6979586Y-11935531D01*
X7103396Y-12116484D02*
X7084348Y-12106960D01*
X7084348Y-12106960D02*
X7074824Y-12087912D01*
X7074824Y-12087912D02*
X7074824Y-11916484D01*
X7208158Y-12116484D02*
X7189110Y-12106960D01*
X7189110Y-12106960D02*
X7179586Y-12087912D01*
X7179586Y-12087912D02*
X7179586Y-11916484D01*
X7436729Y-12116484D02*
X7436729Y-11916484D01*
X7436729Y-11916484D02*
X7503396Y-12059341D01*
X7503396Y-12059341D02*
X7570062Y-11916484D01*
X7570062Y-11916484D02*
X7570062Y-12116484D01*
X7751015Y-12116484D02*
X7751015Y-12011722D01*
X7751015Y-12011722D02*
X7741491Y-11992674D01*
X7741491Y-11992674D02*
X7722443Y-11983150D01*
X7722443Y-11983150D02*
X7684348Y-11983150D01*
X7684348Y-11983150D02*
X7665301Y-11992674D01*
X7751015Y-12106960D02*
X7731967Y-12116484D01*
X7731967Y-12116484D02*
X7684348Y-12116484D01*
X7684348Y-12116484D02*
X7665301Y-12106960D01*
X7665301Y-12106960D02*
X7655777Y-12087912D01*
X7655777Y-12087912D02*
X7655777Y-12068865D01*
X7655777Y-12068865D02*
X7665301Y-12049817D01*
X7665301Y-12049817D02*
X7684348Y-12040293D01*
X7684348Y-12040293D02*
X7731967Y-12040293D01*
X7731967Y-12040293D02*
X7751015Y-12030769D01*
X7846253Y-11983150D02*
X7846253Y-12183150D01*
X7846253Y-11992674D02*
X7865301Y-11983150D01*
X7865301Y-11983150D02*
X7903396Y-11983150D01*
X7903396Y-11983150D02*
X7922443Y-11992674D01*
X7922443Y-11992674D02*
X7931967Y-12002198D01*
X7931967Y-12002198D02*
X7941491Y-12021246D01*
X7941491Y-12021246D02*
X7941491Y-12078388D01*
X7941491Y-12078388D02*
X7931967Y-12097436D01*
X7931967Y-12097436D02*
X7922443Y-12106960D01*
X7922443Y-12106960D02*
X7903396Y-12116484D01*
X7903396Y-12116484D02*
X7865301Y-12116484D01*
X7865301Y-12116484D02*
X7846253Y-12106960D01*
X8027205Y-12097436D02*
X8036729Y-12106960D01*
X8036729Y-12106960D02*
X8027205Y-12116484D01*
X8027205Y-12116484D02*
X8017682Y-12106960D01*
X8017682Y-12106960D02*
X8027205Y-12097436D01*
X8027205Y-12097436D02*
X8027205Y-12116484D01*
X8027205Y-11992674D02*
X8036729Y-12002198D01*
X8036729Y-12002198D02*
X8027205Y-12011722D01*
X8027205Y-12011722D02*
X8017682Y-12002198D01*
X8017682Y-12002198D02*
X8027205Y-11992674D01*
X8027205Y-11992674D02*
X8027205Y-12011722D01*
D10*
X6355000Y-12425000D02*
X6395000Y-12465000D01*
X6395000Y-12425000D02*
X6355000Y-12465000D01*
D11*
X6693872Y-12336484D02*
X6712920Y-12336484D01*
X6712920Y-12336484D02*
X6731967Y-12346008D01*
X6731967Y-12346008D02*
X6741491Y-12355531D01*
X6741491Y-12355531D02*
X6751015Y-12374579D01*
X6751015Y-12374579D02*
X6760539Y-12412674D01*
X6760539Y-12412674D02*
X6760539Y-12460293D01*
X6760539Y-12460293D02*
X6751015Y-12498388D01*
X6751015Y-12498388D02*
X6741491Y-12517436D01*
X6741491Y-12517436D02*
X6731967Y-12526960D01*
X6731967Y-12526960D02*
X6712920Y-12536484D01*
X6712920Y-12536484D02*
X6693872Y-12536484D01*
X6693872Y-12536484D02*
X6674824Y-12526960D01*
X6674824Y-12526960D02*
X6665301Y-12517436D01*
X6665301Y-12517436D02*
X6655777Y-12498388D01*
X6655777Y-12498388D02*
X6646253Y-12460293D01*
X6646253Y-12460293D02*
X6646253Y-12412674D01*
X6646253Y-12412674D02*
X6655777Y-12374579D01*
X6655777Y-12374579D02*
X6665301Y-12355531D01*
X6665301Y-12355531D02*
X6674824Y-12346008D01*
X6674824Y-12346008D02*
X6693872Y-12336484D01*
X6846253Y-12517436D02*
X6855777Y-12526960D01*
X6855777Y-12526960D02*
X6846253Y-12536484D01*
X6846253Y-12536484D02*
X6836729Y-12526960D01*
X6836729Y-12526960D02*
X6846253Y-12517436D01*
X6846253Y-12517436D02*
X6846253Y-12536484D01*
X7027205Y-12403150D02*
X7027205Y-12536484D01*
X6979586Y-12326960D02*
X6931967Y-12469817D01*
X6931967Y-12469817D02*
X7055777Y-12469817D01*
X7170062Y-12336484D02*
X7189110Y-12336484D01*
X7189110Y-12336484D02*
X7208158Y-12346008D01*
X7208158Y-12346008D02*
X7217682Y-12355531D01*
X7217682Y-12355531D02*
X7227205Y-12374579D01*
X7227205Y-12374579D02*
X7236729Y-12412674D01*
X7236729Y-12412674D02*
X7236729Y-12460293D01*
X7236729Y-12460293D02*
X7227205Y-12498388D01*
X7227205Y-12498388D02*
X7217682Y-12517436D01*
X7217682Y-12517436D02*
X7208158Y-12526960D01*
X7208158Y-12526960D02*
X7189110Y-12536484D01*
X7189110Y-12536484D02*
X7170062Y-12536484D01*
X7170062Y-12536484D02*
X7151015Y-12526960D01*
X7151015Y-12526960D02*
X7141491Y-12517436D01*
X7141491Y-12517436D02*
X7131967Y-12498388D01*
X7131967Y-12498388D02*
X7122443Y-12460293D01*
X7122443Y-12460293D02*
X7122443Y-12412674D01*
X7122443Y-12412674D02*
X7131967Y-12374579D01*
X7131967Y-12374579D02*
X7141491Y-12355531D01*
X7141491Y-12355531D02*
X7151015Y-12346008D01*
X7151015Y-12346008D02*
X7170062Y-12336484D01*
X7360539Y-12336484D02*
X7379586Y-12336484D01*
X7379586Y-12336484D02*
X7398634Y-12346008D01*
X7398634Y-12346008D02*
X7408158Y-12355531D01*
X7408158Y-12355531D02*
X7417682Y-12374579D01*
X7417682Y-12374579D02*
X7427205Y-12412674D01*
X7427205Y-12412674D02*
X7427205Y-12460293D01*
X7427205Y-12460293D02*
X7417682Y-12498388D01*
X7417682Y-12498388D02*
X7408158Y-12517436D01*
X7408158Y-12517436D02*
X7398634Y-12526960D01*
X7398634Y-12526960D02*
X7379586Y-12536484D01*
X7379586Y-12536484D02*
X7360539Y-12536484D01*
X7360539Y-12536484D02*
X7341491Y-12526960D01*
X7341491Y-12526960D02*
X7331967Y-12517436D01*
X7331967Y-12517436D02*
X7322443Y-12498388D01*
X7322443Y-12498388D02*
X7312920Y-12460293D01*
X7312920Y-12460293D02*
X7312920Y-12412674D01*
X7312920Y-12412674D02*
X7322443Y-12374579D01*
X7322443Y-12374579D02*
X7331967Y-12355531D01*
X7331967Y-12355531D02*
X7341491Y-12346008D01*
X7341491Y-12346008D02*
X7360539Y-12336484D01*
X7512920Y-12536484D02*
X7512920Y-12403150D01*
X7512920Y-12422198D02*
X7522443Y-12412674D01*
X7522443Y-12412674D02*
X7541491Y-12403150D01*
X7541491Y-12403150D02*
X7570063Y-12403150D01*
X7570063Y-12403150D02*
X7589110Y-12412674D01*
X7589110Y-12412674D02*
X7598634Y-12431722D01*
X7598634Y-12431722D02*
X7598634Y-12536484D01*
X7598634Y-12431722D02*
X7608158Y-12412674D01*
X7608158Y-12412674D02*
X7627205Y-12403150D01*
X7627205Y-12403150D02*
X7655777Y-12403150D01*
X7655777Y-12403150D02*
X7674824Y-12412674D01*
X7674824Y-12412674D02*
X7684348Y-12431722D01*
X7684348Y-12431722D02*
X7684348Y-12536484D01*
X7779586Y-12536484D02*
X7779586Y-12403150D01*
X7779586Y-12422198D02*
X7789110Y-12412674D01*
X7789110Y-12412674D02*
X7808158Y-12403150D01*
X7808158Y-12403150D02*
X7836729Y-12403150D01*
X7836729Y-12403150D02*
X7855777Y-12412674D01*
X7855777Y-12412674D02*
X7865301Y-12431722D01*
X7865301Y-12431722D02*
X7865301Y-12536484D01*
X7865301Y-12431722D02*
X7874824Y-12412674D01*
X7874824Y-12412674D02*
X7893872Y-12403150D01*
X7893872Y-12403150D02*
X7922443Y-12403150D01*
X7922443Y-12403150D02*
X7941491Y-12412674D01*
X7941491Y-12412674D02*
X7951015Y-12431722D01*
X7951015Y-12431722D02*
X7951015Y-12536484D01*
X8341491Y-12326960D02*
X8170063Y-12584103D01*
X8598634Y-12336484D02*
X8617682Y-12336484D01*
X8617682Y-12336484D02*
X8636729Y-12346008D01*
X8636729Y-12346008D02*
X8646253Y-12355531D01*
X8646253Y-12355531D02*
X8655777Y-12374579D01*
X8655777Y-12374579D02*
X8665301Y-12412674D01*
X8665301Y-12412674D02*
X8665301Y-12460293D01*
X8665301Y-12460293D02*
X8655777Y-12498388D01*
X8655777Y-12498388D02*
X8646253Y-12517436D01*
X8646253Y-12517436D02*
X8636729Y-12526960D01*
X8636729Y-12526960D02*
X8617682Y-12536484D01*
X8617682Y-12536484D02*
X8598634Y-12536484D01*
X8598634Y-12536484D02*
X8579587Y-12526960D01*
X8579587Y-12526960D02*
X8570063Y-12517436D01*
X8570063Y-12517436D02*
X8560539Y-12498388D01*
X8560539Y-12498388D02*
X8551015Y-12460293D01*
X8551015Y-12460293D02*
X8551015Y-12412674D01*
X8551015Y-12412674D02*
X8560539Y-12374579D01*
X8560539Y-12374579D02*
X8570063Y-12355531D01*
X8570063Y-12355531D02*
X8579587Y-12346008D01*
X8579587Y-12346008D02*
X8598634Y-12336484D01*
X8751015Y-12517436D02*
X8760539Y-12526960D01*
X8760539Y-12526960D02*
X8751015Y-12536484D01*
X8751015Y-12536484D02*
X8741491Y-12526960D01*
X8741491Y-12526960D02*
X8751015Y-12517436D01*
X8751015Y-12517436D02*
X8751015Y-12536484D01*
X8884348Y-12336484D02*
X8903396Y-12336484D01*
X8903396Y-12336484D02*
X8922444Y-12346008D01*
X8922444Y-12346008D02*
X8931968Y-12355531D01*
X8931968Y-12355531D02*
X8941491Y-12374579D01*
X8941491Y-12374579D02*
X8951015Y-12412674D01*
X8951015Y-12412674D02*
X8951015Y-12460293D01*
X8951015Y-12460293D02*
X8941491Y-12498388D01*
X8941491Y-12498388D02*
X8931968Y-12517436D01*
X8931968Y-12517436D02*
X8922444Y-12526960D01*
X8922444Y-12526960D02*
X8903396Y-12536484D01*
X8903396Y-12536484D02*
X8884348Y-12536484D01*
X8884348Y-12536484D02*
X8865301Y-12526960D01*
X8865301Y-12526960D02*
X8855777Y-12517436D01*
X8855777Y-12517436D02*
X8846253Y-12498388D01*
X8846253Y-12498388D02*
X8836729Y-12460293D01*
X8836729Y-12460293D02*
X8836729Y-12412674D01*
X8836729Y-12412674D02*
X8846253Y-12374579D01*
X8846253Y-12374579D02*
X8855777Y-12355531D01*
X8855777Y-12355531D02*
X8865301Y-12346008D01*
X8865301Y-12346008D02*
X8884348Y-12336484D01*
X9141491Y-12536484D02*
X9027206Y-12536484D01*
X9084348Y-12536484D02*
X9084348Y-12336484D01*
X9084348Y-12336484D02*
X9065301Y-12365055D01*
X9065301Y-12365055D02*
X9046253Y-12384103D01*
X9046253Y-12384103D02*
X9027206Y-12393627D01*
X9322444Y-12336484D02*
X9227206Y-12336484D01*
X9227206Y-12336484D02*
X9217682Y-12431722D01*
X9217682Y-12431722D02*
X9227206Y-12422198D01*
X9227206Y-12422198D02*
X9246253Y-12412674D01*
X9246253Y-12412674D02*
X9293872Y-12412674D01*
X9293872Y-12412674D02*
X9312920Y-12422198D01*
X9312920Y-12422198D02*
X9322444Y-12431722D01*
X9322444Y-12431722D02*
X9331968Y-12450769D01*
X9331968Y-12450769D02*
X9331968Y-12498388D01*
X9331968Y-12498388D02*
X9322444Y-12517436D01*
X9322444Y-12517436D02*
X9312920Y-12526960D01*
X9312920Y-12526960D02*
X9293872Y-12536484D01*
X9293872Y-12536484D02*
X9246253Y-12536484D01*
X9246253Y-12536484D02*
X9227206Y-12526960D01*
X9227206Y-12526960D02*
X9217682Y-12517436D01*
X9398634Y-12336484D02*
X9531968Y-12336484D01*
X9531968Y-12336484D02*
X9446253Y-12536484D01*
X9598634Y-12336484D02*
X9598634Y-12374579D01*
X9674825Y-12336484D02*
X9674825Y-12374579D01*
X9970063Y-12612674D02*
X9960539Y-12603150D01*
X9960539Y-12603150D02*
X9941491Y-12574579D01*
X9941491Y-12574579D02*
X9931968Y-12555531D01*
X9931968Y-12555531D02*
X9922444Y-12526960D01*
X9922444Y-12526960D02*
X9912920Y-12479341D01*
X9912920Y-12479341D02*
X9912920Y-12441246D01*
X9912920Y-12441246D02*
X9922444Y-12393627D01*
X9922444Y-12393627D02*
X9931968Y-12365055D01*
X9931968Y-12365055D02*
X9941491Y-12346008D01*
X9941491Y-12346008D02*
X9960539Y-12317436D01*
X9960539Y-12317436D02*
X9970063Y-12307912D01*
X10131968Y-12336484D02*
X10093872Y-12336484D01*
X10093872Y-12336484D02*
X10074825Y-12346008D01*
X10074825Y-12346008D02*
X10065301Y-12355531D01*
X10065301Y-12355531D02*
X10046253Y-12384103D01*
X10046253Y-12384103D02*
X10036730Y-12422198D01*
X10036730Y-12422198D02*
X10036730Y-12498388D01*
X10036730Y-12498388D02*
X10046253Y-12517436D01*
X10046253Y-12517436D02*
X10055777Y-12526960D01*
X10055777Y-12526960D02*
X10074825Y-12536484D01*
X10074825Y-12536484D02*
X10112920Y-12536484D01*
X10112920Y-12536484D02*
X10131968Y-12526960D01*
X10131968Y-12526960D02*
X10141491Y-12517436D01*
X10141491Y-12517436D02*
X10151015Y-12498388D01*
X10151015Y-12498388D02*
X10151015Y-12450769D01*
X10151015Y-12450769D02*
X10141491Y-12431722D01*
X10141491Y-12431722D02*
X10131968Y-12422198D01*
X10131968Y-12422198D02*
X10112920Y-12412674D01*
X10112920Y-12412674D02*
X10074825Y-12412674D01*
X10074825Y-12412674D02*
X10055777Y-12422198D01*
X10055777Y-12422198D02*
X10046253Y-12431722D01*
X10046253Y-12431722D02*
X10036730Y-12450769D01*
X10217682Y-12336484D02*
X10341491Y-12336484D01*
X10341491Y-12336484D02*
X10274825Y-12412674D01*
X10274825Y-12412674D02*
X10303396Y-12412674D01*
X10303396Y-12412674D02*
X10322444Y-12422198D01*
X10322444Y-12422198D02*
X10331968Y-12431722D01*
X10331968Y-12431722D02*
X10341491Y-12450769D01*
X10341491Y-12450769D02*
X10341491Y-12498388D01*
X10341491Y-12498388D02*
X10331968Y-12517436D01*
X10331968Y-12517436D02*
X10322444Y-12526960D01*
X10322444Y-12526960D02*
X10303396Y-12536484D01*
X10303396Y-12536484D02*
X10246253Y-12536484D01*
X10246253Y-12536484D02*
X10227206Y-12526960D01*
X10227206Y-12526960D02*
X10217682Y-12517436D01*
X10579587Y-12536484D02*
X10579587Y-12336484D01*
X10665301Y-12536484D02*
X10665301Y-12431722D01*
X10665301Y-12431722D02*
X10655777Y-12412674D01*
X10655777Y-12412674D02*
X10636730Y-12403150D01*
X10636730Y-12403150D02*
X10608158Y-12403150D01*
X10608158Y-12403150D02*
X10589111Y-12412674D01*
X10589111Y-12412674D02*
X10579587Y-12422198D01*
X10789111Y-12536484D02*
X10770063Y-12526960D01*
X10770063Y-12526960D02*
X10760539Y-12517436D01*
X10760539Y-12517436D02*
X10751015Y-12498388D01*
X10751015Y-12498388D02*
X10751015Y-12441246D01*
X10751015Y-12441246D02*
X10760539Y-12422198D01*
X10760539Y-12422198D02*
X10770063Y-12412674D01*
X10770063Y-12412674D02*
X10789111Y-12403150D01*
X10789111Y-12403150D02*
X10817682Y-12403150D01*
X10817682Y-12403150D02*
X10836730Y-12412674D01*
X10836730Y-12412674D02*
X10846253Y-12422198D01*
X10846253Y-12422198D02*
X10855777Y-12441246D01*
X10855777Y-12441246D02*
X10855777Y-12498388D01*
X10855777Y-12498388D02*
X10846253Y-12517436D01*
X10846253Y-12517436D02*
X10836730Y-12526960D01*
X10836730Y-12526960D02*
X10817682Y-12536484D01*
X10817682Y-12536484D02*
X10789111Y-12536484D01*
X10970063Y-12536484D02*
X10951015Y-12526960D01*
X10951015Y-12526960D02*
X10941492Y-12507912D01*
X10941492Y-12507912D02*
X10941492Y-12336484D01*
X11122444Y-12526960D02*
X11103396Y-12536484D01*
X11103396Y-12536484D02*
X11065301Y-12536484D01*
X11065301Y-12536484D02*
X11046253Y-12526960D01*
X11046253Y-12526960D02*
X11036730Y-12507912D01*
X11036730Y-12507912D02*
X11036730Y-12431722D01*
X11036730Y-12431722D02*
X11046253Y-12412674D01*
X11046253Y-12412674D02*
X11065301Y-12403150D01*
X11065301Y-12403150D02*
X11103396Y-12403150D01*
X11103396Y-12403150D02*
X11122444Y-12412674D01*
X11122444Y-12412674D02*
X11131968Y-12431722D01*
X11131968Y-12431722D02*
X11131968Y-12450769D01*
X11131968Y-12450769D02*
X11036730Y-12469817D01*
X11208158Y-12526960D02*
X11227206Y-12536484D01*
X11227206Y-12536484D02*
X11265301Y-12536484D01*
X11265301Y-12536484D02*
X11284349Y-12526960D01*
X11284349Y-12526960D02*
X11293872Y-12507912D01*
X11293872Y-12507912D02*
X11293872Y-12498388D01*
X11293872Y-12498388D02*
X11284349Y-12479341D01*
X11284349Y-12479341D02*
X11265301Y-12469817D01*
X11265301Y-12469817D02*
X11236730Y-12469817D01*
X11236730Y-12469817D02*
X11217682Y-12460293D01*
X11217682Y-12460293D02*
X11208158Y-12441246D01*
X11208158Y-12441246D02*
X11208158Y-12431722D01*
X11208158Y-12431722D02*
X11217682Y-12412674D01*
X11217682Y-12412674D02*
X11236730Y-12403150D01*
X11236730Y-12403150D02*
X11265301Y-12403150D01*
X11265301Y-12403150D02*
X11284349Y-12412674D01*
X11360539Y-12612674D02*
X11370063Y-12603150D01*
X11370063Y-12603150D02*
X11389111Y-12574579D01*
X11389111Y-12574579D02*
X11398634Y-12555531D01*
X11398634Y-12555531D02*
X11408158Y-12526960D01*
X11408158Y-12526960D02*
X11417682Y-12479341D01*
X11417682Y-12479341D02*
X11417682Y-12441246D01*
X11417682Y-12441246D02*
X11408158Y-12393627D01*
X11408158Y-12393627D02*
X11398634Y-12365055D01*
X11398634Y-12365055D02*
X11389111Y-12346008D01*
X11389111Y-12346008D02*
X11370063Y-12317436D01*
X11370063Y-12317436D02*
X11360539Y-12307912D01*
D12*
X6395000Y-12709000D02*
G75*
G02*
X6275000Y-12709000I-60000J0D01*
G01*
X6275000Y-12709000D02*
G75*
G02*
X6395000Y-12709000I60000J0D01*
G01*
D11*
X6760539Y-12800484D02*
X6646253Y-12800484D01*
X6703396Y-12800484D02*
X6703396Y-12600484D01*
X6703396Y-12600484D02*
X6684348Y-12629055D01*
X6684348Y-12629055D02*
X6665301Y-12648103D01*
X6665301Y-12648103D02*
X6646253Y-12657627D01*
X6846253Y-12781436D02*
X6855777Y-12790960D01*
X6855777Y-12790960D02*
X6846253Y-12800484D01*
X6846253Y-12800484D02*
X6836729Y-12790960D01*
X6836729Y-12790960D02*
X6846253Y-12781436D01*
X6846253Y-12781436D02*
X6846253Y-12800484D01*
X6931967Y-12619531D02*
X6941491Y-12610008D01*
X6941491Y-12610008D02*
X6960539Y-12600484D01*
X6960539Y-12600484D02*
X7008158Y-12600484D01*
X7008158Y-12600484D02*
X7027205Y-12610008D01*
X7027205Y-12610008D02*
X7036729Y-12619531D01*
X7036729Y-12619531D02*
X7046253Y-12638579D01*
X7046253Y-12638579D02*
X7046253Y-12657627D01*
X7046253Y-12657627D02*
X7036729Y-12686198D01*
X7036729Y-12686198D02*
X6922443Y-12800484D01*
X6922443Y-12800484D02*
X7046253Y-12800484D01*
X7170062Y-12600484D02*
X7189110Y-12600484D01*
X7189110Y-12600484D02*
X7208158Y-12610008D01*
X7208158Y-12610008D02*
X7217682Y-12619531D01*
X7217682Y-12619531D02*
X7227205Y-12638579D01*
X7227205Y-12638579D02*
X7236729Y-12676674D01*
X7236729Y-12676674D02*
X7236729Y-12724293D01*
X7236729Y-12724293D02*
X7227205Y-12762388D01*
X7227205Y-12762388D02*
X7217682Y-12781436D01*
X7217682Y-12781436D02*
X7208158Y-12790960D01*
X7208158Y-12790960D02*
X7189110Y-12800484D01*
X7189110Y-12800484D02*
X7170062Y-12800484D01*
X7170062Y-12800484D02*
X7151015Y-12790960D01*
X7151015Y-12790960D02*
X7141491Y-12781436D01*
X7141491Y-12781436D02*
X7131967Y-12762388D01*
X7131967Y-12762388D02*
X7122443Y-12724293D01*
X7122443Y-12724293D02*
X7122443Y-12676674D01*
X7122443Y-12676674D02*
X7131967Y-12638579D01*
X7131967Y-12638579D02*
X7141491Y-12619531D01*
X7141491Y-12619531D02*
X7151015Y-12610008D01*
X7151015Y-12610008D02*
X7170062Y-12600484D01*
X7360539Y-12600484D02*
X7379586Y-12600484D01*
X7379586Y-12600484D02*
X7398634Y-12610008D01*
X7398634Y-12610008D02*
X7408158Y-12619531D01*
X7408158Y-12619531D02*
X7417682Y-12638579D01*
X7417682Y-12638579D02*
X7427205Y-12676674D01*
X7427205Y-12676674D02*
X7427205Y-12724293D01*
X7427205Y-12724293D02*
X7417682Y-12762388D01*
X7417682Y-12762388D02*
X7408158Y-12781436D01*
X7408158Y-12781436D02*
X7398634Y-12790960D01*
X7398634Y-12790960D02*
X7379586Y-12800484D01*
X7379586Y-12800484D02*
X7360539Y-12800484D01*
X7360539Y-12800484D02*
X7341491Y-12790960D01*
X7341491Y-12790960D02*
X7331967Y-12781436D01*
X7331967Y-12781436D02*
X7322443Y-12762388D01*
X7322443Y-12762388D02*
X7312920Y-12724293D01*
X7312920Y-12724293D02*
X7312920Y-12676674D01*
X7312920Y-12676674D02*
X7322443Y-12638579D01*
X7322443Y-12638579D02*
X7331967Y-12619531D01*
X7331967Y-12619531D02*
X7341491Y-12610008D01*
X7341491Y-12610008D02*
X7360539Y-12600484D01*
X7512920Y-12800484D02*
X7512920Y-12667150D01*
X7512920Y-12686198D02*
X7522443Y-12676674D01*
X7522443Y-12676674D02*
X7541491Y-12667150D01*
X7541491Y-12667150D02*
X7570063Y-12667150D01*
X7570063Y-12667150D02*
X7589110Y-12676674D01*
X7589110Y-12676674D02*
X7598634Y-12695722D01*
X7598634Y-12695722D02*
X7598634Y-12800484D01*
X7598634Y-12695722D02*
X7608158Y-12676674D01*
X7608158Y-12676674D02*
X7627205Y-12667150D01*
X7627205Y-12667150D02*
X7655777Y-12667150D01*
X7655777Y-12667150D02*
X7674824Y-12676674D01*
X7674824Y-12676674D02*
X7684348Y-12695722D01*
X7684348Y-12695722D02*
X7684348Y-12800484D01*
X7779586Y-12800484D02*
X7779586Y-12667150D01*
X7779586Y-12686198D02*
X7789110Y-12676674D01*
X7789110Y-12676674D02*
X7808158Y-12667150D01*
X7808158Y-12667150D02*
X7836729Y-12667150D01*
X7836729Y-12667150D02*
X7855777Y-12676674D01*
X7855777Y-12676674D02*
X7865301Y-12695722D01*
X7865301Y-12695722D02*
X7865301Y-12800484D01*
X7865301Y-12695722D02*
X7874824Y-12676674D01*
X7874824Y-12676674D02*
X7893872Y-12667150D01*
X7893872Y-12667150D02*
X7922443Y-12667150D01*
X7922443Y-12667150D02*
X7941491Y-12676674D01*
X7941491Y-12676674D02*
X7951015Y-12695722D01*
X7951015Y-12695722D02*
X7951015Y-12800484D01*
X8341491Y-12590960D02*
X8170063Y-12848103D01*
X8598634Y-12600484D02*
X8617682Y-12600484D01*
X8617682Y-12600484D02*
X8636729Y-12610008D01*
X8636729Y-12610008D02*
X8646253Y-12619531D01*
X8646253Y-12619531D02*
X8655777Y-12638579D01*
X8655777Y-12638579D02*
X8665301Y-12676674D01*
X8665301Y-12676674D02*
X8665301Y-12724293D01*
X8665301Y-12724293D02*
X8655777Y-12762388D01*
X8655777Y-12762388D02*
X8646253Y-12781436D01*
X8646253Y-12781436D02*
X8636729Y-12790960D01*
X8636729Y-12790960D02*
X8617682Y-12800484D01*
X8617682Y-12800484D02*
X8598634Y-12800484D01*
X8598634Y-12800484D02*
X8579587Y-12790960D01*
X8579587Y-12790960D02*
X8570063Y-12781436D01*
X8570063Y-12781436D02*
X8560539Y-12762388D01*
X8560539Y-12762388D02*
X8551015Y-12724293D01*
X8551015Y-12724293D02*
X8551015Y-12676674D01*
X8551015Y-12676674D02*
X8560539Y-12638579D01*
X8560539Y-12638579D02*
X8570063Y-12619531D01*
X8570063Y-12619531D02*
X8579587Y-12610008D01*
X8579587Y-12610008D02*
X8598634Y-12600484D01*
X8751015Y-12781436D02*
X8760539Y-12790960D01*
X8760539Y-12790960D02*
X8751015Y-12800484D01*
X8751015Y-12800484D02*
X8741491Y-12790960D01*
X8741491Y-12790960D02*
X8751015Y-12781436D01*
X8751015Y-12781436D02*
X8751015Y-12800484D01*
X8884348Y-12600484D02*
X8903396Y-12600484D01*
X8903396Y-12600484D02*
X8922444Y-12610008D01*
X8922444Y-12610008D02*
X8931968Y-12619531D01*
X8931968Y-12619531D02*
X8941491Y-12638579D01*
X8941491Y-12638579D02*
X8951015Y-12676674D01*
X8951015Y-12676674D02*
X8951015Y-12724293D01*
X8951015Y-12724293D02*
X8941491Y-12762388D01*
X8941491Y-12762388D02*
X8931968Y-12781436D01*
X8931968Y-12781436D02*
X8922444Y-12790960D01*
X8922444Y-12790960D02*
X8903396Y-12800484D01*
X8903396Y-12800484D02*
X8884348Y-12800484D01*
X8884348Y-12800484D02*
X8865301Y-12790960D01*
X8865301Y-12790960D02*
X8855777Y-12781436D01*
X8855777Y-12781436D02*
X8846253Y-12762388D01*
X8846253Y-12762388D02*
X8836729Y-12724293D01*
X8836729Y-12724293D02*
X8836729Y-12676674D01*
X8836729Y-12676674D02*
X8846253Y-12638579D01*
X8846253Y-12638579D02*
X8855777Y-12619531D01*
X8855777Y-12619531D02*
X8865301Y-12610008D01*
X8865301Y-12610008D02*
X8884348Y-12600484D01*
X9122444Y-12667150D02*
X9122444Y-12800484D01*
X9074825Y-12590960D02*
X9027206Y-12733817D01*
X9027206Y-12733817D02*
X9151015Y-12733817D01*
X9208158Y-12600484D02*
X9341491Y-12600484D01*
X9341491Y-12600484D02*
X9255777Y-12800484D01*
X9408158Y-12619531D02*
X9417682Y-12610008D01*
X9417682Y-12610008D02*
X9436729Y-12600484D01*
X9436729Y-12600484D02*
X9484349Y-12600484D01*
X9484349Y-12600484D02*
X9503396Y-12610008D01*
X9503396Y-12610008D02*
X9512920Y-12619531D01*
X9512920Y-12619531D02*
X9522444Y-12638579D01*
X9522444Y-12638579D02*
X9522444Y-12657627D01*
X9522444Y-12657627D02*
X9512920Y-12686198D01*
X9512920Y-12686198D02*
X9398634Y-12800484D01*
X9398634Y-12800484D02*
X9522444Y-12800484D01*
X9598634Y-12600484D02*
X9598634Y-12638579D01*
X9674825Y-12600484D02*
X9674825Y-12638579D01*
X9970063Y-12876674D02*
X9960539Y-12867150D01*
X9960539Y-12867150D02*
X9941491Y-12838579D01*
X9941491Y-12838579D02*
X9931968Y-12819531D01*
X9931968Y-12819531D02*
X9922444Y-12790960D01*
X9922444Y-12790960D02*
X9912920Y-12743341D01*
X9912920Y-12743341D02*
X9912920Y-12705246D01*
X9912920Y-12705246D02*
X9922444Y-12657627D01*
X9922444Y-12657627D02*
X9931968Y-12629055D01*
X9931968Y-12629055D02*
X9941491Y-12610008D01*
X9941491Y-12610008D02*
X9960539Y-12581436D01*
X9960539Y-12581436D02*
X9970063Y-12571912D01*
X10151015Y-12800484D02*
X10036730Y-12800484D01*
X10093872Y-12800484D02*
X10093872Y-12600484D01*
X10093872Y-12600484D02*
X10074825Y-12629055D01*
X10074825Y-12629055D02*
X10055777Y-12648103D01*
X10055777Y-12648103D02*
X10036730Y-12657627D01*
X10265301Y-12686198D02*
X10246253Y-12676674D01*
X10246253Y-12676674D02*
X10236730Y-12667150D01*
X10236730Y-12667150D02*
X10227206Y-12648103D01*
X10227206Y-12648103D02*
X10227206Y-12638579D01*
X10227206Y-12638579D02*
X10236730Y-12619531D01*
X10236730Y-12619531D02*
X10246253Y-12610008D01*
X10246253Y-12610008D02*
X10265301Y-12600484D01*
X10265301Y-12600484D02*
X10303396Y-12600484D01*
X10303396Y-12600484D02*
X10322444Y-12610008D01*
X10322444Y-12610008D02*
X10331968Y-12619531D01*
X10331968Y-12619531D02*
X10341491Y-12638579D01*
X10341491Y-12638579D02*
X10341491Y-12648103D01*
X10341491Y-12648103D02*
X10331968Y-12667150D01*
X10331968Y-12667150D02*
X10322444Y-12676674D01*
X10322444Y-12676674D02*
X10303396Y-12686198D01*
X10303396Y-12686198D02*
X10265301Y-12686198D01*
X10265301Y-12686198D02*
X10246253Y-12695722D01*
X10246253Y-12695722D02*
X10236730Y-12705246D01*
X10236730Y-12705246D02*
X10227206Y-12724293D01*
X10227206Y-12724293D02*
X10227206Y-12762388D01*
X10227206Y-12762388D02*
X10236730Y-12781436D01*
X10236730Y-12781436D02*
X10246253Y-12790960D01*
X10246253Y-12790960D02*
X10265301Y-12800484D01*
X10265301Y-12800484D02*
X10303396Y-12800484D01*
X10303396Y-12800484D02*
X10322444Y-12790960D01*
X10322444Y-12790960D02*
X10331968Y-12781436D01*
X10331968Y-12781436D02*
X10341491Y-12762388D01*
X10341491Y-12762388D02*
X10341491Y-12724293D01*
X10341491Y-12724293D02*
X10331968Y-12705246D01*
X10331968Y-12705246D02*
X10322444Y-12695722D01*
X10322444Y-12695722D02*
X10303396Y-12686198D01*
X10579587Y-12800484D02*
X10579587Y-12600484D01*
X10665301Y-12800484D02*
X10665301Y-12695722D01*
X10665301Y-12695722D02*
X10655777Y-12676674D01*
X10655777Y-12676674D02*
X10636730Y-12667150D01*
X10636730Y-12667150D02*
X10608158Y-12667150D01*
X10608158Y-12667150D02*
X10589111Y-12676674D01*
X10589111Y-12676674D02*
X10579587Y-12686198D01*
X10789111Y-12800484D02*
X10770063Y-12790960D01*
X10770063Y-12790960D02*
X10760539Y-12781436D01*
X10760539Y-12781436D02*
X10751015Y-12762388D01*
X10751015Y-12762388D02*
X10751015Y-12705246D01*
X10751015Y-12705246D02*
X10760539Y-12686198D01*
X10760539Y-12686198D02*
X10770063Y-12676674D01*
X10770063Y-12676674D02*
X10789111Y-12667150D01*
X10789111Y-12667150D02*
X10817682Y-12667150D01*
X10817682Y-12667150D02*
X10836730Y-12676674D01*
X10836730Y-12676674D02*
X10846253Y-12686198D01*
X10846253Y-12686198D02*
X10855777Y-12705246D01*
X10855777Y-12705246D02*
X10855777Y-12762388D01*
X10855777Y-12762388D02*
X10846253Y-12781436D01*
X10846253Y-12781436D02*
X10836730Y-12790960D01*
X10836730Y-12790960D02*
X10817682Y-12800484D01*
X10817682Y-12800484D02*
X10789111Y-12800484D01*
X10970063Y-12800484D02*
X10951015Y-12790960D01*
X10951015Y-12790960D02*
X10941492Y-12771912D01*
X10941492Y-12771912D02*
X10941492Y-12600484D01*
X11122444Y-12790960D02*
X11103396Y-12800484D01*
X11103396Y-12800484D02*
X11065301Y-12800484D01*
X11065301Y-12800484D02*
X11046253Y-12790960D01*
X11046253Y-12790960D02*
X11036730Y-12771912D01*
X11036730Y-12771912D02*
X11036730Y-12695722D01*
X11036730Y-12695722D02*
X11046253Y-12676674D01*
X11046253Y-12676674D02*
X11065301Y-12667150D01*
X11065301Y-12667150D02*
X11103396Y-12667150D01*
X11103396Y-12667150D02*
X11122444Y-12676674D01*
X11122444Y-12676674D02*
X11131968Y-12695722D01*
X11131968Y-12695722D02*
X11131968Y-12714769D01*
X11131968Y-12714769D02*
X11036730Y-12733817D01*
X11208158Y-12790960D02*
X11227206Y-12800484D01*
X11227206Y-12800484D02*
X11265301Y-12800484D01*
X11265301Y-12800484D02*
X11284349Y-12790960D01*
X11284349Y-12790960D02*
X11293872Y-12771912D01*
X11293872Y-12771912D02*
X11293872Y-12762388D01*
X11293872Y-12762388D02*
X11284349Y-12743341D01*
X11284349Y-12743341D02*
X11265301Y-12733817D01*
X11265301Y-12733817D02*
X11236730Y-12733817D01*
X11236730Y-12733817D02*
X11217682Y-12724293D01*
X11217682Y-12724293D02*
X11208158Y-12705246D01*
X11208158Y-12705246D02*
X11208158Y-12695722D01*
X11208158Y-12695722D02*
X11217682Y-12676674D01*
X11217682Y-12676674D02*
X11236730Y-12667150D01*
X11236730Y-12667150D02*
X11265301Y-12667150D01*
X11265301Y-12667150D02*
X11284349Y-12676674D01*
X11360539Y-12876674D02*
X11370063Y-12867150D01*
X11370063Y-12867150D02*
X11389111Y-12838579D01*
X11389111Y-12838579D02*
X11398634Y-12819531D01*
X11398634Y-12819531D02*
X11408158Y-12790960D01*
X11408158Y-12790960D02*
X11417682Y-12743341D01*
X11417682Y-12743341D02*
X11417682Y-12705246D01*
X11417682Y-12705246D02*
X11408158Y-12657627D01*
X11408158Y-12657627D02*
X11398634Y-12629055D01*
X11398634Y-12629055D02*
X11389111Y-12610008D01*
X11389111Y-12610008D02*
X11370063Y-12581436D01*
X11370063Y-12581436D02*
X11360539Y-12571912D01*
D13*
X6330000Y-12908000D02*
X6330000Y-13038000D01*
X6265000Y-12973000D02*
X6395000Y-12973000D01*
D11*
X6760539Y-13064484D02*
X6646253Y-13064484D01*
X6703396Y-13064484D02*
X6703396Y-12864484D01*
X6703396Y-12864484D02*
X6684348Y-12893055D01*
X6684348Y-12893055D02*
X6665301Y-12912103D01*
X6665301Y-12912103D02*
X6646253Y-12921627D01*
X6846253Y-13045436D02*
X6855777Y-13054960D01*
X6855777Y-13054960D02*
X6846253Y-13064484D01*
X6846253Y-13064484D02*
X6836729Y-13054960D01*
X6836729Y-13054960D02*
X6846253Y-13045436D01*
X6846253Y-13045436D02*
X6846253Y-13064484D01*
X6922443Y-12864484D02*
X7046253Y-12864484D01*
X7046253Y-12864484D02*
X6979586Y-12940674D01*
X6979586Y-12940674D02*
X7008158Y-12940674D01*
X7008158Y-12940674D02*
X7027205Y-12950198D01*
X7027205Y-12950198D02*
X7036729Y-12959722D01*
X7036729Y-12959722D02*
X7046253Y-12978769D01*
X7046253Y-12978769D02*
X7046253Y-13026388D01*
X7046253Y-13026388D02*
X7036729Y-13045436D01*
X7036729Y-13045436D02*
X7027205Y-13054960D01*
X7027205Y-13054960D02*
X7008158Y-13064484D01*
X7008158Y-13064484D02*
X6951015Y-13064484D01*
X6951015Y-13064484D02*
X6931967Y-13054960D01*
X6931967Y-13054960D02*
X6922443Y-13045436D01*
X7170062Y-12864484D02*
X7189110Y-12864484D01*
X7189110Y-12864484D02*
X7208158Y-12874008D01*
X7208158Y-12874008D02*
X7217682Y-12883531D01*
X7217682Y-12883531D02*
X7227205Y-12902579D01*
X7227205Y-12902579D02*
X7236729Y-12940674D01*
X7236729Y-12940674D02*
X7236729Y-12988293D01*
X7236729Y-12988293D02*
X7227205Y-13026388D01*
X7227205Y-13026388D02*
X7217682Y-13045436D01*
X7217682Y-13045436D02*
X7208158Y-13054960D01*
X7208158Y-13054960D02*
X7189110Y-13064484D01*
X7189110Y-13064484D02*
X7170062Y-13064484D01*
X7170062Y-13064484D02*
X7151015Y-13054960D01*
X7151015Y-13054960D02*
X7141491Y-13045436D01*
X7141491Y-13045436D02*
X7131967Y-13026388D01*
X7131967Y-13026388D02*
X7122443Y-12988293D01*
X7122443Y-12988293D02*
X7122443Y-12940674D01*
X7122443Y-12940674D02*
X7131967Y-12902579D01*
X7131967Y-12902579D02*
X7141491Y-12883531D01*
X7141491Y-12883531D02*
X7151015Y-12874008D01*
X7151015Y-12874008D02*
X7170062Y-12864484D01*
X7360539Y-12864484D02*
X7379586Y-12864484D01*
X7379586Y-12864484D02*
X7398634Y-12874008D01*
X7398634Y-12874008D02*
X7408158Y-12883531D01*
X7408158Y-12883531D02*
X7417682Y-12902579D01*
X7417682Y-12902579D02*
X7427205Y-12940674D01*
X7427205Y-12940674D02*
X7427205Y-12988293D01*
X7427205Y-12988293D02*
X7417682Y-13026388D01*
X7417682Y-13026388D02*
X7408158Y-13045436D01*
X7408158Y-13045436D02*
X7398634Y-13054960D01*
X7398634Y-13054960D02*
X7379586Y-13064484D01*
X7379586Y-13064484D02*
X7360539Y-13064484D01*
X7360539Y-13064484D02*
X7341491Y-13054960D01*
X7341491Y-13054960D02*
X7331967Y-13045436D01*
X7331967Y-13045436D02*
X7322443Y-13026388D01*
X7322443Y-13026388D02*
X7312920Y-12988293D01*
X7312920Y-12988293D02*
X7312920Y-12940674D01*
X7312920Y-12940674D02*
X7322443Y-12902579D01*
X7322443Y-12902579D02*
X7331967Y-12883531D01*
X7331967Y-12883531D02*
X7341491Y-12874008D01*
X7341491Y-12874008D02*
X7360539Y-12864484D01*
X7512920Y-13064484D02*
X7512920Y-12931150D01*
X7512920Y-12950198D02*
X7522443Y-12940674D01*
X7522443Y-12940674D02*
X7541491Y-12931150D01*
X7541491Y-12931150D02*
X7570063Y-12931150D01*
X7570063Y-12931150D02*
X7589110Y-12940674D01*
X7589110Y-12940674D02*
X7598634Y-12959722D01*
X7598634Y-12959722D02*
X7598634Y-13064484D01*
X7598634Y-12959722D02*
X7608158Y-12940674D01*
X7608158Y-12940674D02*
X7627205Y-12931150D01*
X7627205Y-12931150D02*
X7655777Y-12931150D01*
X7655777Y-12931150D02*
X7674824Y-12940674D01*
X7674824Y-12940674D02*
X7684348Y-12959722D01*
X7684348Y-12959722D02*
X7684348Y-13064484D01*
X7779586Y-13064484D02*
X7779586Y-12931150D01*
X7779586Y-12950198D02*
X7789110Y-12940674D01*
X7789110Y-12940674D02*
X7808158Y-12931150D01*
X7808158Y-12931150D02*
X7836729Y-12931150D01*
X7836729Y-12931150D02*
X7855777Y-12940674D01*
X7855777Y-12940674D02*
X7865301Y-12959722D01*
X7865301Y-12959722D02*
X7865301Y-13064484D01*
X7865301Y-12959722D02*
X7874824Y-12940674D01*
X7874824Y-12940674D02*
X7893872Y-12931150D01*
X7893872Y-12931150D02*
X7922443Y-12931150D01*
X7922443Y-12931150D02*
X7941491Y-12940674D01*
X7941491Y-12940674D02*
X7951015Y-12959722D01*
X7951015Y-12959722D02*
X7951015Y-13064484D01*
X8341491Y-12854960D02*
X8170063Y-13112103D01*
X8598634Y-12864484D02*
X8617682Y-12864484D01*
X8617682Y-12864484D02*
X8636729Y-12874008D01*
X8636729Y-12874008D02*
X8646253Y-12883531D01*
X8646253Y-12883531D02*
X8655777Y-12902579D01*
X8655777Y-12902579D02*
X8665301Y-12940674D01*
X8665301Y-12940674D02*
X8665301Y-12988293D01*
X8665301Y-12988293D02*
X8655777Y-13026388D01*
X8655777Y-13026388D02*
X8646253Y-13045436D01*
X8646253Y-13045436D02*
X8636729Y-13054960D01*
X8636729Y-13054960D02*
X8617682Y-13064484D01*
X8617682Y-13064484D02*
X8598634Y-13064484D01*
X8598634Y-13064484D02*
X8579587Y-13054960D01*
X8579587Y-13054960D02*
X8570063Y-13045436D01*
X8570063Y-13045436D02*
X8560539Y-13026388D01*
X8560539Y-13026388D02*
X8551015Y-12988293D01*
X8551015Y-12988293D02*
X8551015Y-12940674D01*
X8551015Y-12940674D02*
X8560539Y-12902579D01*
X8560539Y-12902579D02*
X8570063Y-12883531D01*
X8570063Y-12883531D02*
X8579587Y-12874008D01*
X8579587Y-12874008D02*
X8598634Y-12864484D01*
X8751015Y-13045436D02*
X8760539Y-13054960D01*
X8760539Y-13054960D02*
X8751015Y-13064484D01*
X8751015Y-13064484D02*
X8741491Y-13054960D01*
X8741491Y-13054960D02*
X8751015Y-13045436D01*
X8751015Y-13045436D02*
X8751015Y-13064484D01*
X8884348Y-12864484D02*
X8903396Y-12864484D01*
X8903396Y-12864484D02*
X8922444Y-12874008D01*
X8922444Y-12874008D02*
X8931968Y-12883531D01*
X8931968Y-12883531D02*
X8941491Y-12902579D01*
X8941491Y-12902579D02*
X8951015Y-12940674D01*
X8951015Y-12940674D02*
X8951015Y-12988293D01*
X8951015Y-12988293D02*
X8941491Y-13026388D01*
X8941491Y-13026388D02*
X8931968Y-13045436D01*
X8931968Y-13045436D02*
X8922444Y-13054960D01*
X8922444Y-13054960D02*
X8903396Y-13064484D01*
X8903396Y-13064484D02*
X8884348Y-13064484D01*
X8884348Y-13064484D02*
X8865301Y-13054960D01*
X8865301Y-13054960D02*
X8855777Y-13045436D01*
X8855777Y-13045436D02*
X8846253Y-13026388D01*
X8846253Y-13026388D02*
X8836729Y-12988293D01*
X8836729Y-12988293D02*
X8836729Y-12940674D01*
X8836729Y-12940674D02*
X8846253Y-12902579D01*
X8846253Y-12902579D02*
X8855777Y-12883531D01*
X8855777Y-12883531D02*
X8865301Y-12874008D01*
X8865301Y-12874008D02*
X8884348Y-12864484D01*
X9131968Y-12864484D02*
X9036729Y-12864484D01*
X9036729Y-12864484D02*
X9027206Y-12959722D01*
X9027206Y-12959722D02*
X9036729Y-12950198D01*
X9036729Y-12950198D02*
X9055777Y-12940674D01*
X9055777Y-12940674D02*
X9103396Y-12940674D01*
X9103396Y-12940674D02*
X9122444Y-12950198D01*
X9122444Y-12950198D02*
X9131968Y-12959722D01*
X9131968Y-12959722D02*
X9141491Y-12978769D01*
X9141491Y-12978769D02*
X9141491Y-13026388D01*
X9141491Y-13026388D02*
X9131968Y-13045436D01*
X9131968Y-13045436D02*
X9122444Y-13054960D01*
X9122444Y-13054960D02*
X9103396Y-13064484D01*
X9103396Y-13064484D02*
X9055777Y-13064484D01*
X9055777Y-13064484D02*
X9036729Y-13054960D01*
X9036729Y-13054960D02*
X9027206Y-13045436D01*
X9331968Y-13064484D02*
X9217682Y-13064484D01*
X9274825Y-13064484D02*
X9274825Y-12864484D01*
X9274825Y-12864484D02*
X9255777Y-12893055D01*
X9255777Y-12893055D02*
X9236729Y-12912103D01*
X9236729Y-12912103D02*
X9217682Y-12921627D01*
X9408158Y-12883531D02*
X9417682Y-12874008D01*
X9417682Y-12874008D02*
X9436729Y-12864484D01*
X9436729Y-12864484D02*
X9484349Y-12864484D01*
X9484349Y-12864484D02*
X9503396Y-12874008D01*
X9503396Y-12874008D02*
X9512920Y-12883531D01*
X9512920Y-12883531D02*
X9522444Y-12902579D01*
X9522444Y-12902579D02*
X9522444Y-12921627D01*
X9522444Y-12921627D02*
X9512920Y-12950198D01*
X9512920Y-12950198D02*
X9398634Y-13064484D01*
X9398634Y-13064484D02*
X9522444Y-13064484D01*
X9598634Y-12864484D02*
X9598634Y-12902579D01*
X9674825Y-12864484D02*
X9674825Y-12902579D01*
X9970063Y-13140674D02*
X9960539Y-13131150D01*
X9960539Y-13131150D02*
X9941491Y-13102579D01*
X9941491Y-13102579D02*
X9931968Y-13083531D01*
X9931968Y-13083531D02*
X9922444Y-13054960D01*
X9922444Y-13054960D02*
X9912920Y-13007341D01*
X9912920Y-13007341D02*
X9912920Y-12969246D01*
X9912920Y-12969246D02*
X9922444Y-12921627D01*
X9922444Y-12921627D02*
X9931968Y-12893055D01*
X9931968Y-12893055D02*
X9941491Y-12874008D01*
X9941491Y-12874008D02*
X9960539Y-12845436D01*
X9960539Y-12845436D02*
X9970063Y-12835912D01*
X10151015Y-13064484D02*
X10036730Y-13064484D01*
X10093872Y-13064484D02*
X10093872Y-12864484D01*
X10093872Y-12864484D02*
X10074825Y-12893055D01*
X10074825Y-12893055D02*
X10055777Y-12912103D01*
X10055777Y-12912103D02*
X10036730Y-12921627D01*
X10322444Y-12931150D02*
X10322444Y-13064484D01*
X10274825Y-12854960D02*
X10227206Y-12997817D01*
X10227206Y-12997817D02*
X10351015Y-12997817D01*
X10579587Y-13064484D02*
X10579587Y-12864484D01*
X10665301Y-13064484D02*
X10665301Y-12959722D01*
X10665301Y-12959722D02*
X10655777Y-12940674D01*
X10655777Y-12940674D02*
X10636730Y-12931150D01*
X10636730Y-12931150D02*
X10608158Y-12931150D01*
X10608158Y-12931150D02*
X10589111Y-12940674D01*
X10589111Y-12940674D02*
X10579587Y-12950198D01*
X10789111Y-13064484D02*
X10770063Y-13054960D01*
X10770063Y-13054960D02*
X10760539Y-13045436D01*
X10760539Y-13045436D02*
X10751015Y-13026388D01*
X10751015Y-13026388D02*
X10751015Y-12969246D01*
X10751015Y-12969246D02*
X10760539Y-12950198D01*
X10760539Y-12950198D02*
X10770063Y-12940674D01*
X10770063Y-12940674D02*
X10789111Y-12931150D01*
X10789111Y-12931150D02*
X10817682Y-12931150D01*
X10817682Y-12931150D02*
X10836730Y-12940674D01*
X10836730Y-12940674D02*
X10846253Y-12950198D01*
X10846253Y-12950198D02*
X10855777Y-12969246D01*
X10855777Y-12969246D02*
X10855777Y-13026388D01*
X10855777Y-13026388D02*
X10846253Y-13045436D01*
X10846253Y-13045436D02*
X10836730Y-13054960D01*
X10836730Y-13054960D02*
X10817682Y-13064484D01*
X10817682Y-13064484D02*
X10789111Y-13064484D01*
X10970063Y-13064484D02*
X10951015Y-13054960D01*
X10951015Y-13054960D02*
X10941492Y-13035912D01*
X10941492Y-13035912D02*
X10941492Y-12864484D01*
X11122444Y-13054960D02*
X11103396Y-13064484D01*
X11103396Y-13064484D02*
X11065301Y-13064484D01*
X11065301Y-13064484D02*
X11046253Y-13054960D01*
X11046253Y-13054960D02*
X11036730Y-13035912D01*
X11036730Y-13035912D02*
X11036730Y-12959722D01*
X11036730Y-12959722D02*
X11046253Y-12940674D01*
X11046253Y-12940674D02*
X11065301Y-12931150D01*
X11065301Y-12931150D02*
X11103396Y-12931150D01*
X11103396Y-12931150D02*
X11122444Y-12940674D01*
X11122444Y-12940674D02*
X11131968Y-12959722D01*
X11131968Y-12959722D02*
X11131968Y-12978769D01*
X11131968Y-12978769D02*
X11036730Y-12997817D01*
X11208158Y-13054960D02*
X11227206Y-13064484D01*
X11227206Y-13064484D02*
X11265301Y-13064484D01*
X11265301Y-13064484D02*
X11284349Y-13054960D01*
X11284349Y-13054960D02*
X11293872Y-13035912D01*
X11293872Y-13035912D02*
X11293872Y-13026388D01*
X11293872Y-13026388D02*
X11284349Y-13007341D01*
X11284349Y-13007341D02*
X11265301Y-12997817D01*
X11265301Y-12997817D02*
X11236730Y-12997817D01*
X11236730Y-12997817D02*
X11217682Y-12988293D01*
X11217682Y-12988293D02*
X11208158Y-12969246D01*
X11208158Y-12969246D02*
X11208158Y-12959722D01*
X11208158Y-12959722D02*
X11217682Y-12940674D01*
X11217682Y-12940674D02*
X11236730Y-12931150D01*
X11236730Y-12931150D02*
X11265301Y-12931150D01*
X11265301Y-12931150D02*
X11284349Y-12940674D01*
X11360539Y-13140674D02*
X11370063Y-13131150D01*
X11370063Y-13131150D02*
X11389111Y-13102579D01*
X11389111Y-13102579D02*
X11398634Y-13083531D01*
X11398634Y-13083531D02*
X11408158Y-13054960D01*
X11408158Y-13054960D02*
X11417682Y-13007341D01*
X11417682Y-13007341D02*
X11417682Y-12969246D01*
X11417682Y-12969246D02*
X11408158Y-12921627D01*
X11408158Y-12921627D02*
X11398634Y-12893055D01*
X11398634Y-12893055D02*
X11389111Y-12874008D01*
X11389111Y-12874008D02*
X11370063Y-12845436D01*
X11370063Y-12845436D02*
X11360539Y-12835912D01*
D14*
X6372301Y-13291801D02*
X6372301Y-13182199D01*
X6262699Y-13182199D01*
X6262699Y-13291801D01*
X6372301Y-13291801D01*
D11*
X6760539Y-13328484D02*
X6646253Y-13328484D01*
X6703396Y-13328484D02*
X6703396Y-13128484D01*
X6703396Y-13128484D02*
X6684348Y-13157055D01*
X6684348Y-13157055D02*
X6665301Y-13176103D01*
X6665301Y-13176103D02*
X6646253Y-13185627D01*
X6846253Y-13309436D02*
X6855777Y-13318960D01*
X6855777Y-13318960D02*
X6846253Y-13328484D01*
X6846253Y-13328484D02*
X6836729Y-13318960D01*
X6836729Y-13318960D02*
X6846253Y-13309436D01*
X6846253Y-13309436D02*
X6846253Y-13328484D01*
X7036729Y-13128484D02*
X6941491Y-13128484D01*
X6941491Y-13128484D02*
X6931967Y-13223722D01*
X6931967Y-13223722D02*
X6941491Y-13214198D01*
X6941491Y-13214198D02*
X6960539Y-13204674D01*
X6960539Y-13204674D02*
X7008158Y-13204674D01*
X7008158Y-13204674D02*
X7027205Y-13214198D01*
X7027205Y-13214198D02*
X7036729Y-13223722D01*
X7036729Y-13223722D02*
X7046253Y-13242769D01*
X7046253Y-13242769D02*
X7046253Y-13290388D01*
X7046253Y-13290388D02*
X7036729Y-13309436D01*
X7036729Y-13309436D02*
X7027205Y-13318960D01*
X7027205Y-13318960D02*
X7008158Y-13328484D01*
X7008158Y-13328484D02*
X6960539Y-13328484D01*
X6960539Y-13328484D02*
X6941491Y-13318960D01*
X6941491Y-13318960D02*
X6931967Y-13309436D01*
X7227205Y-13128484D02*
X7131967Y-13128484D01*
X7131967Y-13128484D02*
X7122443Y-13223722D01*
X7122443Y-13223722D02*
X7131967Y-13214198D01*
X7131967Y-13214198D02*
X7151015Y-13204674D01*
X7151015Y-13204674D02*
X7198634Y-13204674D01*
X7198634Y-13204674D02*
X7217682Y-13214198D01*
X7217682Y-13214198D02*
X7227205Y-13223722D01*
X7227205Y-13223722D02*
X7236729Y-13242769D01*
X7236729Y-13242769D02*
X7236729Y-13290388D01*
X7236729Y-13290388D02*
X7227205Y-13309436D01*
X7227205Y-13309436D02*
X7217682Y-13318960D01*
X7217682Y-13318960D02*
X7198634Y-13328484D01*
X7198634Y-13328484D02*
X7151015Y-13328484D01*
X7151015Y-13328484D02*
X7131967Y-13318960D01*
X7131967Y-13318960D02*
X7122443Y-13309436D01*
X7360539Y-13128484D02*
X7379586Y-13128484D01*
X7379586Y-13128484D02*
X7398634Y-13138008D01*
X7398634Y-13138008D02*
X7408158Y-13147531D01*
X7408158Y-13147531D02*
X7417682Y-13166579D01*
X7417682Y-13166579D02*
X7427205Y-13204674D01*
X7427205Y-13204674D02*
X7427205Y-13252293D01*
X7427205Y-13252293D02*
X7417682Y-13290388D01*
X7417682Y-13290388D02*
X7408158Y-13309436D01*
X7408158Y-13309436D02*
X7398634Y-13318960D01*
X7398634Y-13318960D02*
X7379586Y-13328484D01*
X7379586Y-13328484D02*
X7360539Y-13328484D01*
X7360539Y-13328484D02*
X7341491Y-13318960D01*
X7341491Y-13318960D02*
X7331967Y-13309436D01*
X7331967Y-13309436D02*
X7322443Y-13290388D01*
X7322443Y-13290388D02*
X7312920Y-13252293D01*
X7312920Y-13252293D02*
X7312920Y-13204674D01*
X7312920Y-13204674D02*
X7322443Y-13166579D01*
X7322443Y-13166579D02*
X7331967Y-13147531D01*
X7331967Y-13147531D02*
X7341491Y-13138008D01*
X7341491Y-13138008D02*
X7360539Y-13128484D01*
X7512920Y-13328484D02*
X7512920Y-13195150D01*
X7512920Y-13214198D02*
X7522443Y-13204674D01*
X7522443Y-13204674D02*
X7541491Y-13195150D01*
X7541491Y-13195150D02*
X7570063Y-13195150D01*
X7570063Y-13195150D02*
X7589110Y-13204674D01*
X7589110Y-13204674D02*
X7598634Y-13223722D01*
X7598634Y-13223722D02*
X7598634Y-13328484D01*
X7598634Y-13223722D02*
X7608158Y-13204674D01*
X7608158Y-13204674D02*
X7627205Y-13195150D01*
X7627205Y-13195150D02*
X7655777Y-13195150D01*
X7655777Y-13195150D02*
X7674824Y-13204674D01*
X7674824Y-13204674D02*
X7684348Y-13223722D01*
X7684348Y-13223722D02*
X7684348Y-13328484D01*
X7779586Y-13328484D02*
X7779586Y-13195150D01*
X7779586Y-13214198D02*
X7789110Y-13204674D01*
X7789110Y-13204674D02*
X7808158Y-13195150D01*
X7808158Y-13195150D02*
X7836729Y-13195150D01*
X7836729Y-13195150D02*
X7855777Y-13204674D01*
X7855777Y-13204674D02*
X7865301Y-13223722D01*
X7865301Y-13223722D02*
X7865301Y-13328484D01*
X7865301Y-13223722D02*
X7874824Y-13204674D01*
X7874824Y-13204674D02*
X7893872Y-13195150D01*
X7893872Y-13195150D02*
X7922443Y-13195150D01*
X7922443Y-13195150D02*
X7941491Y-13204674D01*
X7941491Y-13204674D02*
X7951015Y-13223722D01*
X7951015Y-13223722D02*
X7951015Y-13328484D01*
X8341491Y-13118960D02*
X8170063Y-13376103D01*
X8598634Y-13128484D02*
X8617682Y-13128484D01*
X8617682Y-13128484D02*
X8636729Y-13138008D01*
X8636729Y-13138008D02*
X8646253Y-13147531D01*
X8646253Y-13147531D02*
X8655777Y-13166579D01*
X8655777Y-13166579D02*
X8665301Y-13204674D01*
X8665301Y-13204674D02*
X8665301Y-13252293D01*
X8665301Y-13252293D02*
X8655777Y-13290388D01*
X8655777Y-13290388D02*
X8646253Y-13309436D01*
X8646253Y-13309436D02*
X8636729Y-13318960D01*
X8636729Y-13318960D02*
X8617682Y-13328484D01*
X8617682Y-13328484D02*
X8598634Y-13328484D01*
X8598634Y-13328484D02*
X8579587Y-13318960D01*
X8579587Y-13318960D02*
X8570063Y-13309436D01*
X8570063Y-13309436D02*
X8560539Y-13290388D01*
X8560539Y-13290388D02*
X8551015Y-13252293D01*
X8551015Y-13252293D02*
X8551015Y-13204674D01*
X8551015Y-13204674D02*
X8560539Y-13166579D01*
X8560539Y-13166579D02*
X8570063Y-13147531D01*
X8570063Y-13147531D02*
X8579587Y-13138008D01*
X8579587Y-13138008D02*
X8598634Y-13128484D01*
X8751015Y-13309436D02*
X8760539Y-13318960D01*
X8760539Y-13318960D02*
X8751015Y-13328484D01*
X8751015Y-13328484D02*
X8741491Y-13318960D01*
X8741491Y-13318960D02*
X8751015Y-13309436D01*
X8751015Y-13309436D02*
X8751015Y-13328484D01*
X8884348Y-13128484D02*
X8903396Y-13128484D01*
X8903396Y-13128484D02*
X8922444Y-13138008D01*
X8922444Y-13138008D02*
X8931968Y-13147531D01*
X8931968Y-13147531D02*
X8941491Y-13166579D01*
X8941491Y-13166579D02*
X8951015Y-13204674D01*
X8951015Y-13204674D02*
X8951015Y-13252293D01*
X8951015Y-13252293D02*
X8941491Y-13290388D01*
X8941491Y-13290388D02*
X8931968Y-13309436D01*
X8931968Y-13309436D02*
X8922444Y-13318960D01*
X8922444Y-13318960D02*
X8903396Y-13328484D01*
X8903396Y-13328484D02*
X8884348Y-13328484D01*
X8884348Y-13328484D02*
X8865301Y-13318960D01*
X8865301Y-13318960D02*
X8855777Y-13309436D01*
X8855777Y-13309436D02*
X8846253Y-13290388D01*
X8846253Y-13290388D02*
X8836729Y-13252293D01*
X8836729Y-13252293D02*
X8836729Y-13204674D01*
X8836729Y-13204674D02*
X8846253Y-13166579D01*
X8846253Y-13166579D02*
X8855777Y-13147531D01*
X8855777Y-13147531D02*
X8865301Y-13138008D01*
X8865301Y-13138008D02*
X8884348Y-13128484D01*
X9122444Y-13128484D02*
X9084348Y-13128484D01*
X9084348Y-13128484D02*
X9065301Y-13138008D01*
X9065301Y-13138008D02*
X9055777Y-13147531D01*
X9055777Y-13147531D02*
X9036729Y-13176103D01*
X9036729Y-13176103D02*
X9027206Y-13214198D01*
X9027206Y-13214198D02*
X9027206Y-13290388D01*
X9027206Y-13290388D02*
X9036729Y-13309436D01*
X9036729Y-13309436D02*
X9046253Y-13318960D01*
X9046253Y-13318960D02*
X9065301Y-13328484D01*
X9065301Y-13328484D02*
X9103396Y-13328484D01*
X9103396Y-13328484D02*
X9122444Y-13318960D01*
X9122444Y-13318960D02*
X9131968Y-13309436D01*
X9131968Y-13309436D02*
X9141491Y-13290388D01*
X9141491Y-13290388D02*
X9141491Y-13242769D01*
X9141491Y-13242769D02*
X9131968Y-13223722D01*
X9131968Y-13223722D02*
X9122444Y-13214198D01*
X9122444Y-13214198D02*
X9103396Y-13204674D01*
X9103396Y-13204674D02*
X9065301Y-13204674D01*
X9065301Y-13204674D02*
X9046253Y-13214198D01*
X9046253Y-13214198D02*
X9036729Y-13223722D01*
X9036729Y-13223722D02*
X9027206Y-13242769D01*
X9331968Y-13328484D02*
X9217682Y-13328484D01*
X9274825Y-13328484D02*
X9274825Y-13128484D01*
X9274825Y-13128484D02*
X9255777Y-13157055D01*
X9255777Y-13157055D02*
X9236729Y-13176103D01*
X9236729Y-13176103D02*
X9217682Y-13185627D01*
X9455777Y-13128484D02*
X9474825Y-13128484D01*
X9474825Y-13128484D02*
X9493872Y-13138008D01*
X9493872Y-13138008D02*
X9503396Y-13147531D01*
X9503396Y-13147531D02*
X9512920Y-13166579D01*
X9512920Y-13166579D02*
X9522444Y-13204674D01*
X9522444Y-13204674D02*
X9522444Y-13252293D01*
X9522444Y-13252293D02*
X9512920Y-13290388D01*
X9512920Y-13290388D02*
X9503396Y-13309436D01*
X9503396Y-13309436D02*
X9493872Y-13318960D01*
X9493872Y-13318960D02*
X9474825Y-13328484D01*
X9474825Y-13328484D02*
X9455777Y-13328484D01*
X9455777Y-13328484D02*
X9436729Y-13318960D01*
X9436729Y-13318960D02*
X9427206Y-13309436D01*
X9427206Y-13309436D02*
X9417682Y-13290388D01*
X9417682Y-13290388D02*
X9408158Y-13252293D01*
X9408158Y-13252293D02*
X9408158Y-13204674D01*
X9408158Y-13204674D02*
X9417682Y-13166579D01*
X9417682Y-13166579D02*
X9427206Y-13147531D01*
X9427206Y-13147531D02*
X9436729Y-13138008D01*
X9436729Y-13138008D02*
X9455777Y-13128484D01*
X9598634Y-13128484D02*
X9598634Y-13166579D01*
X9674825Y-13128484D02*
X9674825Y-13166579D01*
X9970063Y-13404674D02*
X9960539Y-13395150D01*
X9960539Y-13395150D02*
X9941491Y-13366579D01*
X9941491Y-13366579D02*
X9931968Y-13347531D01*
X9931968Y-13347531D02*
X9922444Y-13318960D01*
X9922444Y-13318960D02*
X9912920Y-13271341D01*
X9912920Y-13271341D02*
X9912920Y-13233246D01*
X9912920Y-13233246D02*
X9922444Y-13185627D01*
X9922444Y-13185627D02*
X9931968Y-13157055D01*
X9931968Y-13157055D02*
X9941491Y-13138008D01*
X9941491Y-13138008D02*
X9960539Y-13109436D01*
X9960539Y-13109436D02*
X9970063Y-13099912D01*
X10131968Y-13195150D02*
X10131968Y-13328484D01*
X10084349Y-13118960D02*
X10036730Y-13261817D01*
X10036730Y-13261817D02*
X10160539Y-13261817D01*
X10389111Y-13328484D02*
X10389111Y-13128484D01*
X10474825Y-13328484D02*
X10474825Y-13223722D01*
X10474825Y-13223722D02*
X10465301Y-13204674D01*
X10465301Y-13204674D02*
X10446253Y-13195150D01*
X10446253Y-13195150D02*
X10417682Y-13195150D01*
X10417682Y-13195150D02*
X10398634Y-13204674D01*
X10398634Y-13204674D02*
X10389111Y-13214198D01*
X10598634Y-13328484D02*
X10579587Y-13318960D01*
X10579587Y-13318960D02*
X10570063Y-13309436D01*
X10570063Y-13309436D02*
X10560539Y-13290388D01*
X10560539Y-13290388D02*
X10560539Y-13233246D01*
X10560539Y-13233246D02*
X10570063Y-13214198D01*
X10570063Y-13214198D02*
X10579587Y-13204674D01*
X10579587Y-13204674D02*
X10598634Y-13195150D01*
X10598634Y-13195150D02*
X10627206Y-13195150D01*
X10627206Y-13195150D02*
X10646253Y-13204674D01*
X10646253Y-13204674D02*
X10655777Y-13214198D01*
X10655777Y-13214198D02*
X10665301Y-13233246D01*
X10665301Y-13233246D02*
X10665301Y-13290388D01*
X10665301Y-13290388D02*
X10655777Y-13309436D01*
X10655777Y-13309436D02*
X10646253Y-13318960D01*
X10646253Y-13318960D02*
X10627206Y-13328484D01*
X10627206Y-13328484D02*
X10598634Y-13328484D01*
X10779587Y-13328484D02*
X10760539Y-13318960D01*
X10760539Y-13318960D02*
X10751015Y-13299912D01*
X10751015Y-13299912D02*
X10751015Y-13128484D01*
X10931968Y-13318960D02*
X10912920Y-13328484D01*
X10912920Y-13328484D02*
X10874825Y-13328484D01*
X10874825Y-13328484D02*
X10855777Y-13318960D01*
X10855777Y-13318960D02*
X10846253Y-13299912D01*
X10846253Y-13299912D02*
X10846253Y-13223722D01*
X10846253Y-13223722D02*
X10855777Y-13204674D01*
X10855777Y-13204674D02*
X10874825Y-13195150D01*
X10874825Y-13195150D02*
X10912920Y-13195150D01*
X10912920Y-13195150D02*
X10931968Y-13204674D01*
X10931968Y-13204674D02*
X10941492Y-13223722D01*
X10941492Y-13223722D02*
X10941492Y-13242769D01*
X10941492Y-13242769D02*
X10846253Y-13261817D01*
X11017682Y-13318960D02*
X11036730Y-13328484D01*
X11036730Y-13328484D02*
X11074825Y-13328484D01*
X11074825Y-13328484D02*
X11093873Y-13318960D01*
X11093873Y-13318960D02*
X11103396Y-13299912D01*
X11103396Y-13299912D02*
X11103396Y-13290388D01*
X11103396Y-13290388D02*
X11093873Y-13271341D01*
X11093873Y-13271341D02*
X11074825Y-13261817D01*
X11074825Y-13261817D02*
X11046253Y-13261817D01*
X11046253Y-13261817D02*
X11027206Y-13252293D01*
X11027206Y-13252293D02*
X11017682Y-13233246D01*
X11017682Y-13233246D02*
X11017682Y-13223722D01*
X11017682Y-13223722D02*
X11027206Y-13204674D01*
X11027206Y-13204674D02*
X11046253Y-13195150D01*
X11046253Y-13195150D02*
X11074825Y-13195150D01*
X11074825Y-13195150D02*
X11093873Y-13204674D01*
X11170063Y-13404674D02*
X11179587Y-13395150D01*
X11179587Y-13395150D02*
X11198634Y-13366579D01*
X11198634Y-13366579D02*
X11208158Y-13347531D01*
X11208158Y-13347531D02*
X11217682Y-13318960D01*
X11217682Y-13318960D02*
X11227206Y-13271341D01*
X11227206Y-13271341D02*
X11227206Y-13233246D01*
X11227206Y-13233246D02*
X11217682Y-13185627D01*
X11217682Y-13185627D02*
X11208158Y-13157055D01*
X11208158Y-13157055D02*
X11198634Y-13138008D01*
X11198634Y-13138008D02*
X11179587Y-13109436D01*
X11179587Y-13109436D02*
X11170063Y-13099912D01*
X6295000Y-13612000D02*
X6395000Y-13512000D01*
X6295000Y-13412000D01*
X6195000Y-13512000D01*
X6295000Y-13612000D01*
X6636729Y-13403484D02*
X6760539Y-13403484D01*
X6760539Y-13403484D02*
X6693872Y-13479674D01*
X6693872Y-13479674D02*
X6722443Y-13479674D01*
X6722443Y-13479674D02*
X6741491Y-13489198D01*
X6741491Y-13489198D02*
X6751015Y-13498722D01*
X6751015Y-13498722D02*
X6760539Y-13517769D01*
X6760539Y-13517769D02*
X6760539Y-13565388D01*
X6760539Y-13565388D02*
X6751015Y-13584436D01*
X6751015Y-13584436D02*
X6741491Y-13593960D01*
X6741491Y-13593960D02*
X6722443Y-13603484D01*
X6722443Y-13603484D02*
X6665301Y-13603484D01*
X6665301Y-13603484D02*
X6646253Y-13593960D01*
X6646253Y-13593960D02*
X6636729Y-13584436D01*
X6846253Y-13584436D02*
X6855777Y-13593960D01*
X6855777Y-13593960D02*
X6846253Y-13603484D01*
X6846253Y-13603484D02*
X6836729Y-13593960D01*
X6836729Y-13593960D02*
X6846253Y-13584436D01*
X6846253Y-13584436D02*
X6846253Y-13603484D01*
X6931967Y-13422531D02*
X6941491Y-13413008D01*
X6941491Y-13413008D02*
X6960539Y-13403484D01*
X6960539Y-13403484D02*
X7008158Y-13403484D01*
X7008158Y-13403484D02*
X7027205Y-13413008D01*
X7027205Y-13413008D02*
X7036729Y-13422531D01*
X7036729Y-13422531D02*
X7046253Y-13441579D01*
X7046253Y-13441579D02*
X7046253Y-13460627D01*
X7046253Y-13460627D02*
X7036729Y-13489198D01*
X7036729Y-13489198D02*
X6922443Y-13603484D01*
X6922443Y-13603484D02*
X7046253Y-13603484D01*
X7170062Y-13403484D02*
X7189110Y-13403484D01*
X7189110Y-13403484D02*
X7208158Y-13413008D01*
X7208158Y-13413008D02*
X7217682Y-13422531D01*
X7217682Y-13422531D02*
X7227205Y-13441579D01*
X7227205Y-13441579D02*
X7236729Y-13479674D01*
X7236729Y-13479674D02*
X7236729Y-13527293D01*
X7236729Y-13527293D02*
X7227205Y-13565388D01*
X7227205Y-13565388D02*
X7217682Y-13584436D01*
X7217682Y-13584436D02*
X7208158Y-13593960D01*
X7208158Y-13593960D02*
X7189110Y-13603484D01*
X7189110Y-13603484D02*
X7170062Y-13603484D01*
X7170062Y-13603484D02*
X7151015Y-13593960D01*
X7151015Y-13593960D02*
X7141491Y-13584436D01*
X7141491Y-13584436D02*
X7131967Y-13565388D01*
X7131967Y-13565388D02*
X7122443Y-13527293D01*
X7122443Y-13527293D02*
X7122443Y-13479674D01*
X7122443Y-13479674D02*
X7131967Y-13441579D01*
X7131967Y-13441579D02*
X7141491Y-13422531D01*
X7141491Y-13422531D02*
X7151015Y-13413008D01*
X7151015Y-13413008D02*
X7170062Y-13403484D01*
X7360539Y-13403484D02*
X7379586Y-13403484D01*
X7379586Y-13403484D02*
X7398634Y-13413008D01*
X7398634Y-13413008D02*
X7408158Y-13422531D01*
X7408158Y-13422531D02*
X7417682Y-13441579D01*
X7417682Y-13441579D02*
X7427205Y-13479674D01*
X7427205Y-13479674D02*
X7427205Y-13527293D01*
X7427205Y-13527293D02*
X7417682Y-13565388D01*
X7417682Y-13565388D02*
X7408158Y-13584436D01*
X7408158Y-13584436D02*
X7398634Y-13593960D01*
X7398634Y-13593960D02*
X7379586Y-13603484D01*
X7379586Y-13603484D02*
X7360539Y-13603484D01*
X7360539Y-13603484D02*
X7341491Y-13593960D01*
X7341491Y-13593960D02*
X7331967Y-13584436D01*
X7331967Y-13584436D02*
X7322443Y-13565388D01*
X7322443Y-13565388D02*
X7312920Y-13527293D01*
X7312920Y-13527293D02*
X7312920Y-13479674D01*
X7312920Y-13479674D02*
X7322443Y-13441579D01*
X7322443Y-13441579D02*
X7331967Y-13422531D01*
X7331967Y-13422531D02*
X7341491Y-13413008D01*
X7341491Y-13413008D02*
X7360539Y-13403484D01*
X7512920Y-13603484D02*
X7512920Y-13470150D01*
X7512920Y-13489198D02*
X7522443Y-13479674D01*
X7522443Y-13479674D02*
X7541491Y-13470150D01*
X7541491Y-13470150D02*
X7570063Y-13470150D01*
X7570063Y-13470150D02*
X7589110Y-13479674D01*
X7589110Y-13479674D02*
X7598634Y-13498722D01*
X7598634Y-13498722D02*
X7598634Y-13603484D01*
X7598634Y-13498722D02*
X7608158Y-13479674D01*
X7608158Y-13479674D02*
X7627205Y-13470150D01*
X7627205Y-13470150D02*
X7655777Y-13470150D01*
X7655777Y-13470150D02*
X7674824Y-13479674D01*
X7674824Y-13479674D02*
X7684348Y-13498722D01*
X7684348Y-13498722D02*
X7684348Y-13603484D01*
X7779586Y-13603484D02*
X7779586Y-13470150D01*
X7779586Y-13489198D02*
X7789110Y-13479674D01*
X7789110Y-13479674D02*
X7808158Y-13470150D01*
X7808158Y-13470150D02*
X7836729Y-13470150D01*
X7836729Y-13470150D02*
X7855777Y-13479674D01*
X7855777Y-13479674D02*
X7865301Y-13498722D01*
X7865301Y-13498722D02*
X7865301Y-13603484D01*
X7865301Y-13498722D02*
X7874824Y-13479674D01*
X7874824Y-13479674D02*
X7893872Y-13470150D01*
X7893872Y-13470150D02*
X7922443Y-13470150D01*
X7922443Y-13470150D02*
X7941491Y-13479674D01*
X7941491Y-13479674D02*
X7951015Y-13498722D01*
X7951015Y-13498722D02*
X7951015Y-13603484D01*
X8341491Y-13393960D02*
X8170063Y-13651103D01*
X8598634Y-13403484D02*
X8617682Y-13403484D01*
X8617682Y-13403484D02*
X8636729Y-13413008D01*
X8636729Y-13413008D02*
X8646253Y-13422531D01*
X8646253Y-13422531D02*
X8655777Y-13441579D01*
X8655777Y-13441579D02*
X8665301Y-13479674D01*
X8665301Y-13479674D02*
X8665301Y-13527293D01*
X8665301Y-13527293D02*
X8655777Y-13565388D01*
X8655777Y-13565388D02*
X8646253Y-13584436D01*
X8646253Y-13584436D02*
X8636729Y-13593960D01*
X8636729Y-13593960D02*
X8617682Y-13603484D01*
X8617682Y-13603484D02*
X8598634Y-13603484D01*
X8598634Y-13603484D02*
X8579587Y-13593960D01*
X8579587Y-13593960D02*
X8570063Y-13584436D01*
X8570063Y-13584436D02*
X8560539Y-13565388D01*
X8560539Y-13565388D02*
X8551015Y-13527293D01*
X8551015Y-13527293D02*
X8551015Y-13479674D01*
X8551015Y-13479674D02*
X8560539Y-13441579D01*
X8560539Y-13441579D02*
X8570063Y-13422531D01*
X8570063Y-13422531D02*
X8579587Y-13413008D01*
X8579587Y-13413008D02*
X8598634Y-13403484D01*
X8751015Y-13584436D02*
X8760539Y-13593960D01*
X8760539Y-13593960D02*
X8751015Y-13603484D01*
X8751015Y-13603484D02*
X8741491Y-13593960D01*
X8741491Y-13593960D02*
X8751015Y-13584436D01*
X8751015Y-13584436D02*
X8751015Y-13603484D01*
X8951015Y-13603484D02*
X8836729Y-13603484D01*
X8893872Y-13603484D02*
X8893872Y-13403484D01*
X8893872Y-13403484D02*
X8874825Y-13432055D01*
X8874825Y-13432055D02*
X8855777Y-13451103D01*
X8855777Y-13451103D02*
X8836729Y-13460627D01*
X9027206Y-13422531D02*
X9036729Y-13413008D01*
X9036729Y-13413008D02*
X9055777Y-13403484D01*
X9055777Y-13403484D02*
X9103396Y-13403484D01*
X9103396Y-13403484D02*
X9122444Y-13413008D01*
X9122444Y-13413008D02*
X9131968Y-13422531D01*
X9131968Y-13422531D02*
X9141491Y-13441579D01*
X9141491Y-13441579D02*
X9141491Y-13460627D01*
X9141491Y-13460627D02*
X9131968Y-13489198D01*
X9131968Y-13489198D02*
X9017682Y-13603484D01*
X9017682Y-13603484D02*
X9141491Y-13603484D01*
X9312920Y-13403484D02*
X9274825Y-13403484D01*
X9274825Y-13403484D02*
X9255777Y-13413008D01*
X9255777Y-13413008D02*
X9246253Y-13422531D01*
X9246253Y-13422531D02*
X9227206Y-13451103D01*
X9227206Y-13451103D02*
X9217682Y-13489198D01*
X9217682Y-13489198D02*
X9217682Y-13565388D01*
X9217682Y-13565388D02*
X9227206Y-13584436D01*
X9227206Y-13584436D02*
X9236729Y-13593960D01*
X9236729Y-13593960D02*
X9255777Y-13603484D01*
X9255777Y-13603484D02*
X9293872Y-13603484D01*
X9293872Y-13603484D02*
X9312920Y-13593960D01*
X9312920Y-13593960D02*
X9322444Y-13584436D01*
X9322444Y-13584436D02*
X9331968Y-13565388D01*
X9331968Y-13565388D02*
X9331968Y-13517769D01*
X9331968Y-13517769D02*
X9322444Y-13498722D01*
X9322444Y-13498722D02*
X9312920Y-13489198D01*
X9312920Y-13489198D02*
X9293872Y-13479674D01*
X9293872Y-13479674D02*
X9255777Y-13479674D01*
X9255777Y-13479674D02*
X9236729Y-13489198D01*
X9236729Y-13489198D02*
X9227206Y-13498722D01*
X9227206Y-13498722D02*
X9217682Y-13517769D01*
X9455777Y-13403484D02*
X9474825Y-13403484D01*
X9474825Y-13403484D02*
X9493872Y-13413008D01*
X9493872Y-13413008D02*
X9503396Y-13422531D01*
X9503396Y-13422531D02*
X9512920Y-13441579D01*
X9512920Y-13441579D02*
X9522444Y-13479674D01*
X9522444Y-13479674D02*
X9522444Y-13527293D01*
X9522444Y-13527293D02*
X9512920Y-13565388D01*
X9512920Y-13565388D02*
X9503396Y-13584436D01*
X9503396Y-13584436D02*
X9493872Y-13593960D01*
X9493872Y-13593960D02*
X9474825Y-13603484D01*
X9474825Y-13603484D02*
X9455777Y-13603484D01*
X9455777Y-13603484D02*
X9436729Y-13593960D01*
X9436729Y-13593960D02*
X9427206Y-13584436D01*
X9427206Y-13584436D02*
X9417682Y-13565388D01*
X9417682Y-13565388D02*
X9408158Y-13527293D01*
X9408158Y-13527293D02*
X9408158Y-13479674D01*
X9408158Y-13479674D02*
X9417682Y-13441579D01*
X9417682Y-13441579D02*
X9427206Y-13422531D01*
X9427206Y-13422531D02*
X9436729Y-13413008D01*
X9436729Y-13413008D02*
X9455777Y-13403484D01*
X9598634Y-13403484D02*
X9598634Y-13441579D01*
X9674825Y-13403484D02*
X9674825Y-13441579D01*
X9970063Y-13679674D02*
X9960539Y-13670150D01*
X9960539Y-13670150D02*
X9941491Y-13641579D01*
X9941491Y-13641579D02*
X9931968Y-13622531D01*
X9931968Y-13622531D02*
X9922444Y-13593960D01*
X9922444Y-13593960D02*
X9912920Y-13546341D01*
X9912920Y-13546341D02*
X9912920Y-13508246D01*
X9912920Y-13508246D02*
X9922444Y-13460627D01*
X9922444Y-13460627D02*
X9931968Y-13432055D01*
X9931968Y-13432055D02*
X9941491Y-13413008D01*
X9941491Y-13413008D02*
X9960539Y-13384436D01*
X9960539Y-13384436D02*
X9970063Y-13374912D01*
X10131968Y-13470150D02*
X10131968Y-13603484D01*
X10084349Y-13393960D02*
X10036730Y-13536817D01*
X10036730Y-13536817D02*
X10160539Y-13536817D01*
X10389111Y-13603484D02*
X10389111Y-13403484D01*
X10474825Y-13603484D02*
X10474825Y-13498722D01*
X10474825Y-13498722D02*
X10465301Y-13479674D01*
X10465301Y-13479674D02*
X10446253Y-13470150D01*
X10446253Y-13470150D02*
X10417682Y-13470150D01*
X10417682Y-13470150D02*
X10398634Y-13479674D01*
X10398634Y-13479674D02*
X10389111Y-13489198D01*
X10598634Y-13603484D02*
X10579587Y-13593960D01*
X10579587Y-13593960D02*
X10570063Y-13584436D01*
X10570063Y-13584436D02*
X10560539Y-13565388D01*
X10560539Y-13565388D02*
X10560539Y-13508246D01*
X10560539Y-13508246D02*
X10570063Y-13489198D01*
X10570063Y-13489198D02*
X10579587Y-13479674D01*
X10579587Y-13479674D02*
X10598634Y-13470150D01*
X10598634Y-13470150D02*
X10627206Y-13470150D01*
X10627206Y-13470150D02*
X10646253Y-13479674D01*
X10646253Y-13479674D02*
X10655777Y-13489198D01*
X10655777Y-13489198D02*
X10665301Y-13508246D01*
X10665301Y-13508246D02*
X10665301Y-13565388D01*
X10665301Y-13565388D02*
X10655777Y-13584436D01*
X10655777Y-13584436D02*
X10646253Y-13593960D01*
X10646253Y-13593960D02*
X10627206Y-13603484D01*
X10627206Y-13603484D02*
X10598634Y-13603484D01*
X10779587Y-13603484D02*
X10760539Y-13593960D01*
X10760539Y-13593960D02*
X10751015Y-13574912D01*
X10751015Y-13574912D02*
X10751015Y-13403484D01*
X10931968Y-13593960D02*
X10912920Y-13603484D01*
X10912920Y-13603484D02*
X10874825Y-13603484D01*
X10874825Y-13603484D02*
X10855777Y-13593960D01*
X10855777Y-13593960D02*
X10846253Y-13574912D01*
X10846253Y-13574912D02*
X10846253Y-13498722D01*
X10846253Y-13498722D02*
X10855777Y-13479674D01*
X10855777Y-13479674D02*
X10874825Y-13470150D01*
X10874825Y-13470150D02*
X10912920Y-13470150D01*
X10912920Y-13470150D02*
X10931968Y-13479674D01*
X10931968Y-13479674D02*
X10941492Y-13498722D01*
X10941492Y-13498722D02*
X10941492Y-13517769D01*
X10941492Y-13517769D02*
X10846253Y-13536817D01*
X11017682Y-13593960D02*
X11036730Y-13603484D01*
X11036730Y-13603484D02*
X11074825Y-13603484D01*
X11074825Y-13603484D02*
X11093873Y-13593960D01*
X11093873Y-13593960D02*
X11103396Y-13574912D01*
X11103396Y-13574912D02*
X11103396Y-13565388D01*
X11103396Y-13565388D02*
X11093873Y-13546341D01*
X11093873Y-13546341D02*
X11074825Y-13536817D01*
X11074825Y-13536817D02*
X11046253Y-13536817D01*
X11046253Y-13536817D02*
X11027206Y-13527293D01*
X11027206Y-13527293D02*
X11017682Y-13508246D01*
X11017682Y-13508246D02*
X11017682Y-13498722D01*
X11017682Y-13498722D02*
X11027206Y-13479674D01*
X11027206Y-13479674D02*
X11046253Y-13470150D01*
X11046253Y-13470150D02*
X11074825Y-13470150D01*
X11074825Y-13470150D02*
X11093873Y-13479674D01*
X11170063Y-13679674D02*
X11179587Y-13670150D01*
X11179587Y-13670150D02*
X11198634Y-13641579D01*
X11198634Y-13641579D02*
X11208158Y-13622531D01*
X11208158Y-13622531D02*
X11217682Y-13593960D01*
X11217682Y-13593960D02*
X11227206Y-13546341D01*
X11227206Y-13546341D02*
X11227206Y-13508246D01*
X11227206Y-13508246D02*
X11217682Y-13460627D01*
X11217682Y-13460627D02*
X11208158Y-13432055D01*
X11208158Y-13432055D02*
X11198634Y-13413008D01*
X11198634Y-13413008D02*
X11179587Y-13384436D01*
X11179587Y-13384436D02*
X11170063Y-13374912D01*
M02*
