%TF.GenerationSoftware,KiCad,Pcbnew,8.0.0*%
%TF.CreationDate,2024-04-17T16:33:58+02:00*%
%TF.ProjectId,bspdv3,62737064-7633-42e6-9b69-6361645f7063,rev?*%
%TF.SameCoordinates,Original*%
%TF.FileFunction,Drillmap*%
%TF.FilePolarity,Positive*%
%FSLAX45Y45*%
G04 Gerber Fmt 4.5, Leading zero omitted, Abs format (unit mm)*
G04 Created by KiCad (PCBNEW 8.0.0) date 2024-04-17 16:33:58*
%MOMM*%
%LPD*%
G01*
G04 APERTURE LIST*
%ADD10C,0.100000*%
%ADD11C,0.200000*%
G04 APERTURE END LIST*
D10*
X1778000Y-1524000D02*
X9398000Y-1524000D01*
X9398000Y-7112000D01*
X1778000Y-7112000D01*
X1778000Y-1524000D01*
D11*
X2033777Y-7428484D02*
X2033777Y-7228484D01*
X2033777Y-7228484D02*
X2081396Y-7228484D01*
X2081396Y-7228484D02*
X2109967Y-7238008D01*
X2109967Y-7238008D02*
X2129015Y-7257055D01*
X2129015Y-7257055D02*
X2138539Y-7276103D01*
X2138539Y-7276103D02*
X2148063Y-7314198D01*
X2148063Y-7314198D02*
X2148063Y-7342769D01*
X2148063Y-7342769D02*
X2138539Y-7380865D01*
X2138539Y-7380865D02*
X2129015Y-7399912D01*
X2129015Y-7399912D02*
X2109967Y-7418960D01*
X2109967Y-7418960D02*
X2081396Y-7428484D01*
X2081396Y-7428484D02*
X2033777Y-7428484D01*
X2233777Y-7428484D02*
X2233777Y-7295150D01*
X2233777Y-7333246D02*
X2243301Y-7314198D01*
X2243301Y-7314198D02*
X2252824Y-7304674D01*
X2252824Y-7304674D02*
X2271872Y-7295150D01*
X2271872Y-7295150D02*
X2290920Y-7295150D01*
X2357586Y-7428484D02*
X2357586Y-7295150D01*
X2357586Y-7228484D02*
X2348063Y-7238008D01*
X2348063Y-7238008D02*
X2357586Y-7247531D01*
X2357586Y-7247531D02*
X2367110Y-7238008D01*
X2367110Y-7238008D02*
X2357586Y-7228484D01*
X2357586Y-7228484D02*
X2357586Y-7247531D01*
X2481396Y-7428484D02*
X2462348Y-7418960D01*
X2462348Y-7418960D02*
X2452824Y-7399912D01*
X2452824Y-7399912D02*
X2452824Y-7228484D01*
X2586158Y-7428484D02*
X2567110Y-7418960D01*
X2567110Y-7418960D02*
X2557586Y-7399912D01*
X2557586Y-7399912D02*
X2557586Y-7228484D01*
X2814729Y-7428484D02*
X2814729Y-7228484D01*
X2814729Y-7228484D02*
X2881396Y-7371341D01*
X2881396Y-7371341D02*
X2948062Y-7228484D01*
X2948062Y-7228484D02*
X2948062Y-7428484D01*
X3129015Y-7428484D02*
X3129015Y-7323722D01*
X3129015Y-7323722D02*
X3119491Y-7304674D01*
X3119491Y-7304674D02*
X3100443Y-7295150D01*
X3100443Y-7295150D02*
X3062348Y-7295150D01*
X3062348Y-7295150D02*
X3043301Y-7304674D01*
X3129015Y-7418960D02*
X3109967Y-7428484D01*
X3109967Y-7428484D02*
X3062348Y-7428484D01*
X3062348Y-7428484D02*
X3043301Y-7418960D01*
X3043301Y-7418960D02*
X3033777Y-7399912D01*
X3033777Y-7399912D02*
X3033777Y-7380865D01*
X3033777Y-7380865D02*
X3043301Y-7361817D01*
X3043301Y-7361817D02*
X3062348Y-7352293D01*
X3062348Y-7352293D02*
X3109967Y-7352293D01*
X3109967Y-7352293D02*
X3129015Y-7342769D01*
X3224253Y-7295150D02*
X3224253Y-7495150D01*
X3224253Y-7304674D02*
X3243301Y-7295150D01*
X3243301Y-7295150D02*
X3281396Y-7295150D01*
X3281396Y-7295150D02*
X3300443Y-7304674D01*
X3300443Y-7304674D02*
X3309967Y-7314198D01*
X3309967Y-7314198D02*
X3319491Y-7333246D01*
X3319491Y-7333246D02*
X3319491Y-7390388D01*
X3319491Y-7390388D02*
X3309967Y-7409436D01*
X3309967Y-7409436D02*
X3300443Y-7418960D01*
X3300443Y-7418960D02*
X3281396Y-7428484D01*
X3281396Y-7428484D02*
X3243301Y-7428484D01*
X3243301Y-7428484D02*
X3224253Y-7418960D01*
X3405205Y-7409436D02*
X3414729Y-7418960D01*
X3414729Y-7418960D02*
X3405205Y-7428484D01*
X3405205Y-7428484D02*
X3395682Y-7418960D01*
X3395682Y-7418960D02*
X3405205Y-7409436D01*
X3405205Y-7409436D02*
X3405205Y-7428484D01*
X3405205Y-7304674D02*
X3414729Y-7314198D01*
X3414729Y-7314198D02*
X3405205Y-7323722D01*
X3405205Y-7323722D02*
X3395682Y-7314198D01*
X3395682Y-7314198D02*
X3405205Y-7304674D01*
X3405205Y-7304674D02*
X3405205Y-7323722D01*
M02*
