%TF.GenerationSoftware,KiCad,Pcbnew,8.0.0*%
%TF.CreationDate,2024-04-17T16:33:47+02:00*%
%TF.ProjectId,bspdv3,62737064-7633-42e6-9b69-6361645f7063,rev?*%
%TF.SameCoordinates,Original*%
%TF.FileFunction,Legend,Top*%
%TF.FilePolarity,Positive*%
%FSLAX46Y46*%
G04 Gerber Fmt 4.6, Leading zero omitted, Abs format (unit mm)*
G04 Created by KiCad (PCBNEW 8.0.0) date 2024-04-17 16:33:47*
%MOMM*%
%LPD*%
G01*
G04 APERTURE LIST*
%ADD10C,0.200000*%
%ADD11C,0.254000*%
%ADD12C,0.150000*%
%ADD13C,0.120000*%
%ADD14C,0.100000*%
%ADD15C,0.127000*%
G04 APERTURE END LIST*
D10*
X27531768Y-69309219D02*
X28198435Y-69309219D01*
X28484149Y-70356838D02*
X27531768Y-70356838D01*
X27531768Y-70356838D02*
X27531768Y-68356838D01*
X27531768Y-68356838D02*
X28484149Y-68356838D01*
X29341292Y-70356838D02*
X29341292Y-68356838D01*
X29341292Y-68356838D02*
X30103197Y-68356838D01*
X30103197Y-68356838D02*
X30293673Y-68452076D01*
X30293673Y-68452076D02*
X30388911Y-68547314D01*
X30388911Y-68547314D02*
X30484149Y-68737790D01*
X30484149Y-68737790D02*
X30484149Y-69023504D01*
X30484149Y-69023504D02*
X30388911Y-69213980D01*
X30388911Y-69213980D02*
X30293673Y-69309219D01*
X30293673Y-69309219D02*
X30103197Y-69404457D01*
X30103197Y-69404457D02*
X29341292Y-69404457D01*
X31246054Y-70261600D02*
X31531768Y-70356838D01*
X31531768Y-70356838D02*
X32007959Y-70356838D01*
X32007959Y-70356838D02*
X32198435Y-70261600D01*
X32198435Y-70261600D02*
X32293673Y-70166361D01*
X32293673Y-70166361D02*
X32388911Y-69975885D01*
X32388911Y-69975885D02*
X32388911Y-69785409D01*
X32388911Y-69785409D02*
X32293673Y-69594933D01*
X32293673Y-69594933D02*
X32198435Y-69499695D01*
X32198435Y-69499695D02*
X32007959Y-69404457D01*
X32007959Y-69404457D02*
X31627006Y-69309219D01*
X31627006Y-69309219D02*
X31436530Y-69213980D01*
X31436530Y-69213980D02*
X31341292Y-69118742D01*
X31341292Y-69118742D02*
X31246054Y-68928266D01*
X31246054Y-68928266D02*
X31246054Y-68737790D01*
X31246054Y-68737790D02*
X31341292Y-68547314D01*
X31341292Y-68547314D02*
X31436530Y-68452076D01*
X31436530Y-68452076D02*
X31627006Y-68356838D01*
X31627006Y-68356838D02*
X32103197Y-68356838D01*
X32103197Y-68356838D02*
X32388911Y-68452076D01*
X33150816Y-69785409D02*
X34103197Y-69785409D01*
X32960340Y-70356838D02*
X33627006Y-68356838D01*
X33627006Y-68356838D02*
X34293673Y-70356838D01*
X36388912Y-68547314D02*
X36484150Y-68452076D01*
X36484150Y-68452076D02*
X36674626Y-68356838D01*
X36674626Y-68356838D02*
X37150817Y-68356838D01*
X37150817Y-68356838D02*
X37341293Y-68452076D01*
X37341293Y-68452076D02*
X37436531Y-68547314D01*
X37436531Y-68547314D02*
X37531769Y-68737790D01*
X37531769Y-68737790D02*
X37531769Y-68928266D01*
X37531769Y-68928266D02*
X37436531Y-69213980D01*
X37436531Y-69213980D02*
X36293674Y-70356838D01*
X36293674Y-70356838D02*
X37531769Y-70356838D01*
X38769864Y-68356838D02*
X38960341Y-68356838D01*
X38960341Y-68356838D02*
X39150817Y-68452076D01*
X39150817Y-68452076D02*
X39246055Y-68547314D01*
X39246055Y-68547314D02*
X39341293Y-68737790D01*
X39341293Y-68737790D02*
X39436531Y-69118742D01*
X39436531Y-69118742D02*
X39436531Y-69594933D01*
X39436531Y-69594933D02*
X39341293Y-69975885D01*
X39341293Y-69975885D02*
X39246055Y-70166361D01*
X39246055Y-70166361D02*
X39150817Y-70261600D01*
X39150817Y-70261600D02*
X38960341Y-70356838D01*
X38960341Y-70356838D02*
X38769864Y-70356838D01*
X38769864Y-70356838D02*
X38579388Y-70261600D01*
X38579388Y-70261600D02*
X38484150Y-70166361D01*
X38484150Y-70166361D02*
X38388912Y-69975885D01*
X38388912Y-69975885D02*
X38293674Y-69594933D01*
X38293674Y-69594933D02*
X38293674Y-69118742D01*
X38293674Y-69118742D02*
X38388912Y-68737790D01*
X38388912Y-68737790D02*
X38484150Y-68547314D01*
X38484150Y-68547314D02*
X38579388Y-68452076D01*
X38579388Y-68452076D02*
X38769864Y-68356838D01*
X40198436Y-68547314D02*
X40293674Y-68452076D01*
X40293674Y-68452076D02*
X40484150Y-68356838D01*
X40484150Y-68356838D02*
X40960341Y-68356838D01*
X40960341Y-68356838D02*
X41150817Y-68452076D01*
X41150817Y-68452076D02*
X41246055Y-68547314D01*
X41246055Y-68547314D02*
X41341293Y-68737790D01*
X41341293Y-68737790D02*
X41341293Y-68928266D01*
X41341293Y-68928266D02*
X41246055Y-69213980D01*
X41246055Y-69213980D02*
X40103198Y-70356838D01*
X40103198Y-70356838D02*
X41341293Y-70356838D01*
X43055579Y-69023504D02*
X43055579Y-70356838D01*
X42579388Y-68261600D02*
X42103198Y-69690171D01*
X42103198Y-69690171D02*
X43341293Y-69690171D01*
X46293675Y-69309219D02*
X46579389Y-69404457D01*
X46579389Y-69404457D02*
X46674627Y-69499695D01*
X46674627Y-69499695D02*
X46769865Y-69690171D01*
X46769865Y-69690171D02*
X46769865Y-69975885D01*
X46769865Y-69975885D02*
X46674627Y-70166361D01*
X46674627Y-70166361D02*
X46579389Y-70261600D01*
X46579389Y-70261600D02*
X46388913Y-70356838D01*
X46388913Y-70356838D02*
X45627008Y-70356838D01*
X45627008Y-70356838D02*
X45627008Y-68356838D01*
X45627008Y-68356838D02*
X46293675Y-68356838D01*
X46293675Y-68356838D02*
X46484151Y-68452076D01*
X46484151Y-68452076D02*
X46579389Y-68547314D01*
X46579389Y-68547314D02*
X46674627Y-68737790D01*
X46674627Y-68737790D02*
X46674627Y-68928266D01*
X46674627Y-68928266D02*
X46579389Y-69118742D01*
X46579389Y-69118742D02*
X46484151Y-69213980D01*
X46484151Y-69213980D02*
X46293675Y-69309219D01*
X46293675Y-69309219D02*
X45627008Y-69309219D01*
X47531770Y-70261600D02*
X47817484Y-70356838D01*
X47817484Y-70356838D02*
X48293675Y-70356838D01*
X48293675Y-70356838D02*
X48484151Y-70261600D01*
X48484151Y-70261600D02*
X48579389Y-70166361D01*
X48579389Y-70166361D02*
X48674627Y-69975885D01*
X48674627Y-69975885D02*
X48674627Y-69785409D01*
X48674627Y-69785409D02*
X48579389Y-69594933D01*
X48579389Y-69594933D02*
X48484151Y-69499695D01*
X48484151Y-69499695D02*
X48293675Y-69404457D01*
X48293675Y-69404457D02*
X47912722Y-69309219D01*
X47912722Y-69309219D02*
X47722246Y-69213980D01*
X47722246Y-69213980D02*
X47627008Y-69118742D01*
X47627008Y-69118742D02*
X47531770Y-68928266D01*
X47531770Y-68928266D02*
X47531770Y-68737790D01*
X47531770Y-68737790D02*
X47627008Y-68547314D01*
X47627008Y-68547314D02*
X47722246Y-68452076D01*
X47722246Y-68452076D02*
X47912722Y-68356838D01*
X47912722Y-68356838D02*
X48388913Y-68356838D01*
X48388913Y-68356838D02*
X48674627Y-68452076D01*
X49531770Y-70356838D02*
X49531770Y-68356838D01*
X49531770Y-68356838D02*
X50293675Y-68356838D01*
X50293675Y-68356838D02*
X50484151Y-68452076D01*
X50484151Y-68452076D02*
X50579389Y-68547314D01*
X50579389Y-68547314D02*
X50674627Y-68737790D01*
X50674627Y-68737790D02*
X50674627Y-69023504D01*
X50674627Y-69023504D02*
X50579389Y-69213980D01*
X50579389Y-69213980D02*
X50484151Y-69309219D01*
X50484151Y-69309219D02*
X50293675Y-69404457D01*
X50293675Y-69404457D02*
X49531770Y-69404457D01*
X51531770Y-70356838D02*
X51531770Y-68356838D01*
X51531770Y-68356838D02*
X52007960Y-68356838D01*
X52007960Y-68356838D02*
X52293675Y-68452076D01*
X52293675Y-68452076D02*
X52484151Y-68642552D01*
X52484151Y-68642552D02*
X52579389Y-68833028D01*
X52579389Y-68833028D02*
X52674627Y-69213980D01*
X52674627Y-69213980D02*
X52674627Y-69499695D01*
X52674627Y-69499695D02*
X52579389Y-69880647D01*
X52579389Y-69880647D02*
X52484151Y-70071123D01*
X52484151Y-70071123D02*
X52293675Y-70261600D01*
X52293675Y-70261600D02*
X52007960Y-70356838D01*
X52007960Y-70356838D02*
X51531770Y-70356838D01*
X54769866Y-68356838D02*
X55436532Y-70356838D01*
X55436532Y-70356838D02*
X56103199Y-68356838D01*
X56579390Y-68356838D02*
X57817485Y-68356838D01*
X57817485Y-68356838D02*
X57150818Y-69118742D01*
X57150818Y-69118742D02*
X57436533Y-69118742D01*
X57436533Y-69118742D02*
X57627009Y-69213980D01*
X57627009Y-69213980D02*
X57722247Y-69309219D01*
X57722247Y-69309219D02*
X57817485Y-69499695D01*
X57817485Y-69499695D02*
X57817485Y-69975885D01*
X57817485Y-69975885D02*
X57722247Y-70166361D01*
X57722247Y-70166361D02*
X57627009Y-70261600D01*
X57627009Y-70261600D02*
X57436533Y-70356838D01*
X57436533Y-70356838D02*
X56865104Y-70356838D01*
X56865104Y-70356838D02*
X56674628Y-70261600D01*
X56674628Y-70261600D02*
X56579390Y-70166361D01*
X58674628Y-70166361D02*
X58769866Y-70261600D01*
X58769866Y-70261600D02*
X58674628Y-70356838D01*
X58674628Y-70356838D02*
X58579390Y-70261600D01*
X58579390Y-70261600D02*
X58674628Y-70166361D01*
X58674628Y-70166361D02*
X58674628Y-70356838D01*
X60007961Y-68356838D02*
X60198438Y-68356838D01*
X60198438Y-68356838D02*
X60388914Y-68452076D01*
X60388914Y-68452076D02*
X60484152Y-68547314D01*
X60484152Y-68547314D02*
X60579390Y-68737790D01*
X60579390Y-68737790D02*
X60674628Y-69118742D01*
X60674628Y-69118742D02*
X60674628Y-69594933D01*
X60674628Y-69594933D02*
X60579390Y-69975885D01*
X60579390Y-69975885D02*
X60484152Y-70166361D01*
X60484152Y-70166361D02*
X60388914Y-70261600D01*
X60388914Y-70261600D02*
X60198438Y-70356838D01*
X60198438Y-70356838D02*
X60007961Y-70356838D01*
X60007961Y-70356838D02*
X59817485Y-70261600D01*
X59817485Y-70261600D02*
X59722247Y-70166361D01*
X59722247Y-70166361D02*
X59627009Y-69975885D01*
X59627009Y-69975885D02*
X59531771Y-69594933D01*
X59531771Y-69594933D02*
X59531771Y-69118742D01*
X59531771Y-69118742D02*
X59627009Y-68737790D01*
X59627009Y-68737790D02*
X59722247Y-68547314D01*
X59722247Y-68547314D02*
X59817485Y-68452076D01*
X59817485Y-68452076D02*
X60007961Y-68356838D01*
D11*
X34852234Y-67300289D02*
X34428900Y-66695527D01*
X34126519Y-67300289D02*
X34126519Y-66030289D01*
X34126519Y-66030289D02*
X34610329Y-66030289D01*
X34610329Y-66030289D02*
X34731281Y-66090765D01*
X34731281Y-66090765D02*
X34791758Y-66151241D01*
X34791758Y-66151241D02*
X34852234Y-66272193D01*
X34852234Y-66272193D02*
X34852234Y-66453622D01*
X34852234Y-66453622D02*
X34791758Y-66574574D01*
X34791758Y-66574574D02*
X34731281Y-66635051D01*
X34731281Y-66635051D02*
X34610329Y-66695527D01*
X34610329Y-66695527D02*
X34126519Y-66695527D01*
X36001281Y-66030289D02*
X35396519Y-66030289D01*
X35396519Y-66030289D02*
X35336043Y-66635051D01*
X35336043Y-66635051D02*
X35396519Y-66574574D01*
X35396519Y-66574574D02*
X35517472Y-66514098D01*
X35517472Y-66514098D02*
X35819853Y-66514098D01*
X35819853Y-66514098D02*
X35940805Y-66574574D01*
X35940805Y-66574574D02*
X36001281Y-66635051D01*
X36001281Y-66635051D02*
X36061758Y-66756003D01*
X36061758Y-66756003D02*
X36061758Y-67058384D01*
X36061758Y-67058384D02*
X36001281Y-67179336D01*
X36001281Y-67179336D02*
X35940805Y-67239813D01*
X35940805Y-67239813D02*
X35819853Y-67300289D01*
X35819853Y-67300289D02*
X35517472Y-67300289D01*
X35517472Y-67300289D02*
X35396519Y-67239813D01*
X35396519Y-67239813D02*
X35336043Y-67179336D01*
X40367857Y-27023755D02*
X40246904Y-26963279D01*
X40246904Y-26963279D02*
X40065476Y-26963279D01*
X40065476Y-26963279D02*
X39884047Y-27023755D01*
X39884047Y-27023755D02*
X39763095Y-27144707D01*
X39763095Y-27144707D02*
X39702618Y-27265660D01*
X39702618Y-27265660D02*
X39642142Y-27507564D01*
X39642142Y-27507564D02*
X39642142Y-27688993D01*
X39642142Y-27688993D02*
X39702618Y-27930898D01*
X39702618Y-27930898D02*
X39763095Y-28051850D01*
X39763095Y-28051850D02*
X39884047Y-28172803D01*
X39884047Y-28172803D02*
X40065476Y-28233279D01*
X40065476Y-28233279D02*
X40186428Y-28233279D01*
X40186428Y-28233279D02*
X40367857Y-28172803D01*
X40367857Y-28172803D02*
X40428333Y-28112326D01*
X40428333Y-28112326D02*
X40428333Y-27688993D01*
X40428333Y-27688993D02*
X40186428Y-27688993D01*
X41516904Y-26963279D02*
X41274999Y-26963279D01*
X41274999Y-26963279D02*
X41154047Y-27023755D01*
X41154047Y-27023755D02*
X41093571Y-27084231D01*
X41093571Y-27084231D02*
X40972618Y-27265660D01*
X40972618Y-27265660D02*
X40912142Y-27507564D01*
X40912142Y-27507564D02*
X40912142Y-27991374D01*
X40912142Y-27991374D02*
X40972618Y-28112326D01*
X40972618Y-28112326D02*
X41033095Y-28172803D01*
X41033095Y-28172803D02*
X41154047Y-28233279D01*
X41154047Y-28233279D02*
X41395952Y-28233279D01*
X41395952Y-28233279D02*
X41516904Y-28172803D01*
X41516904Y-28172803D02*
X41577380Y-28112326D01*
X41577380Y-28112326D02*
X41637857Y-27991374D01*
X41637857Y-27991374D02*
X41637857Y-27688993D01*
X41637857Y-27688993D02*
X41577380Y-27568041D01*
X41577380Y-27568041D02*
X41516904Y-27507564D01*
X41516904Y-27507564D02*
X41395952Y-27447088D01*
X41395952Y-27447088D02*
X41154047Y-27447088D01*
X41154047Y-27447088D02*
X41033095Y-27507564D01*
X41033095Y-27507564D02*
X40972618Y-27568041D01*
X40972618Y-27568041D02*
X40912142Y-27688993D01*
X82991670Y-47132347D02*
X82568336Y-46527585D01*
X82265955Y-47132347D02*
X82265955Y-45862347D01*
X82265955Y-45862347D02*
X82749765Y-45862347D01*
X82749765Y-45862347D02*
X82870717Y-45922823D01*
X82870717Y-45922823D02*
X82931194Y-45983299D01*
X82931194Y-45983299D02*
X82991670Y-46104251D01*
X82991670Y-46104251D02*
X82991670Y-46285680D01*
X82991670Y-46285680D02*
X82931194Y-46406632D01*
X82931194Y-46406632D02*
X82870717Y-46467109D01*
X82870717Y-46467109D02*
X82749765Y-46527585D01*
X82749765Y-46527585D02*
X82265955Y-46527585D01*
X84201194Y-47132347D02*
X83475479Y-47132347D01*
X83838336Y-47132347D02*
X83838336Y-45862347D01*
X83838336Y-45862347D02*
X83717384Y-46043775D01*
X83717384Y-46043775D02*
X83596432Y-46164728D01*
X83596432Y-46164728D02*
X83475479Y-46225204D01*
X85289765Y-46285680D02*
X85289765Y-47132347D01*
X84987384Y-45801871D02*
X84685003Y-46709013D01*
X84685003Y-46709013D02*
X85471194Y-46709013D01*
D12*
X34298095Y-25396819D02*
X34869523Y-25396819D01*
X34583809Y-26396819D02*
X34583809Y-25396819D01*
X35202857Y-26396819D02*
X35202857Y-25396819D01*
X35202857Y-25396819D02*
X35583809Y-25396819D01*
X35583809Y-25396819D02*
X35679047Y-25444438D01*
X35679047Y-25444438D02*
X35726666Y-25492057D01*
X35726666Y-25492057D02*
X35774285Y-25587295D01*
X35774285Y-25587295D02*
X35774285Y-25730152D01*
X35774285Y-25730152D02*
X35726666Y-25825390D01*
X35726666Y-25825390D02*
X35679047Y-25873009D01*
X35679047Y-25873009D02*
X35583809Y-25920628D01*
X35583809Y-25920628D02*
X35202857Y-25920628D01*
X36726666Y-26396819D02*
X36155238Y-26396819D01*
X36440952Y-26396819D02*
X36440952Y-25396819D01*
X36440952Y-25396819D02*
X36345714Y-25539676D01*
X36345714Y-25539676D02*
X36250476Y-25634914D01*
X36250476Y-25634914D02*
X36155238Y-25682533D01*
D11*
X22013333Y-59154404D02*
X21952857Y-59214881D01*
X21952857Y-59214881D02*
X21771428Y-59275357D01*
X21771428Y-59275357D02*
X21650476Y-59275357D01*
X21650476Y-59275357D02*
X21469047Y-59214881D01*
X21469047Y-59214881D02*
X21348095Y-59093928D01*
X21348095Y-59093928D02*
X21287618Y-58972976D01*
X21287618Y-58972976D02*
X21227142Y-58731071D01*
X21227142Y-58731071D02*
X21227142Y-58549642D01*
X21227142Y-58549642D02*
X21287618Y-58307738D01*
X21287618Y-58307738D02*
X21348095Y-58186785D01*
X21348095Y-58186785D02*
X21469047Y-58065833D01*
X21469047Y-58065833D02*
X21650476Y-58005357D01*
X21650476Y-58005357D02*
X21771428Y-58005357D01*
X21771428Y-58005357D02*
X21952857Y-58065833D01*
X21952857Y-58065833D02*
X22013333Y-58126309D01*
X22557618Y-59275357D02*
X22557618Y-58005357D01*
X22557618Y-58005357D02*
X23041428Y-58005357D01*
X23041428Y-58005357D02*
X23162380Y-58065833D01*
X23162380Y-58065833D02*
X23222857Y-58126309D01*
X23222857Y-58126309D02*
X23283333Y-58247261D01*
X23283333Y-58247261D02*
X23283333Y-58428690D01*
X23283333Y-58428690D02*
X23222857Y-58549642D01*
X23222857Y-58549642D02*
X23162380Y-58610119D01*
X23162380Y-58610119D02*
X23041428Y-58670595D01*
X23041428Y-58670595D02*
X22557618Y-58670595D01*
X23706666Y-58005357D02*
X24492857Y-58005357D01*
X24492857Y-58005357D02*
X24069523Y-58489166D01*
X24069523Y-58489166D02*
X24250952Y-58489166D01*
X24250952Y-58489166D02*
X24371904Y-58549642D01*
X24371904Y-58549642D02*
X24432380Y-58610119D01*
X24432380Y-58610119D02*
X24492857Y-58731071D01*
X24492857Y-58731071D02*
X24492857Y-59033452D01*
X24492857Y-59033452D02*
X24432380Y-59154404D01*
X24432380Y-59154404D02*
X24371904Y-59214881D01*
X24371904Y-59214881D02*
X24250952Y-59275357D01*
X24250952Y-59275357D02*
X23888095Y-59275357D01*
X23888095Y-59275357D02*
X23767142Y-59214881D01*
X23767142Y-59214881D02*
X23706666Y-59154404D01*
X74113333Y-35732326D02*
X74052857Y-35792803D01*
X74052857Y-35792803D02*
X73871428Y-35853279D01*
X73871428Y-35853279D02*
X73750476Y-35853279D01*
X73750476Y-35853279D02*
X73569047Y-35792803D01*
X73569047Y-35792803D02*
X73448095Y-35671850D01*
X73448095Y-35671850D02*
X73387618Y-35550898D01*
X73387618Y-35550898D02*
X73327142Y-35308993D01*
X73327142Y-35308993D02*
X73327142Y-35127564D01*
X73327142Y-35127564D02*
X73387618Y-34885660D01*
X73387618Y-34885660D02*
X73448095Y-34764707D01*
X73448095Y-34764707D02*
X73569047Y-34643755D01*
X73569047Y-34643755D02*
X73750476Y-34583279D01*
X73750476Y-34583279D02*
X73871428Y-34583279D01*
X73871428Y-34583279D02*
X74052857Y-34643755D01*
X74052857Y-34643755D02*
X74113333Y-34704231D01*
X74657618Y-35853279D02*
X74657618Y-34583279D01*
X74657618Y-34583279D02*
X75141428Y-34583279D01*
X75141428Y-34583279D02*
X75262380Y-34643755D01*
X75262380Y-34643755D02*
X75322857Y-34704231D01*
X75322857Y-34704231D02*
X75383333Y-34825183D01*
X75383333Y-34825183D02*
X75383333Y-35006612D01*
X75383333Y-35006612D02*
X75322857Y-35127564D01*
X75322857Y-35127564D02*
X75262380Y-35188041D01*
X75262380Y-35188041D02*
X75141428Y-35248517D01*
X75141428Y-35248517D02*
X74657618Y-35248517D01*
X76471904Y-35006612D02*
X76471904Y-35853279D01*
X76169523Y-34522803D02*
X75867142Y-35429945D01*
X75867142Y-35429945D02*
X76653333Y-35429945D01*
X24160432Y-50688347D02*
X23737098Y-50083585D01*
X23434717Y-50688347D02*
X23434717Y-49418347D01*
X23434717Y-49418347D02*
X23918527Y-49418347D01*
X23918527Y-49418347D02*
X24039479Y-49478823D01*
X24039479Y-49478823D02*
X24099956Y-49539299D01*
X24099956Y-49539299D02*
X24160432Y-49660251D01*
X24160432Y-49660251D02*
X24160432Y-49841680D01*
X24160432Y-49841680D02*
X24099956Y-49962632D01*
X24099956Y-49962632D02*
X24039479Y-50023109D01*
X24039479Y-50023109D02*
X23918527Y-50083585D01*
X23918527Y-50083585D02*
X23434717Y-50083585D01*
X24583765Y-49418347D02*
X25369956Y-49418347D01*
X25369956Y-49418347D02*
X24946622Y-49902156D01*
X24946622Y-49902156D02*
X25128051Y-49902156D01*
X25128051Y-49902156D02*
X25249003Y-49962632D01*
X25249003Y-49962632D02*
X25309479Y-50023109D01*
X25309479Y-50023109D02*
X25369956Y-50144061D01*
X25369956Y-50144061D02*
X25369956Y-50446442D01*
X25369956Y-50446442D02*
X25309479Y-50567394D01*
X25309479Y-50567394D02*
X25249003Y-50627871D01*
X25249003Y-50627871D02*
X25128051Y-50688347D01*
X25128051Y-50688347D02*
X24765194Y-50688347D01*
X24765194Y-50688347D02*
X24644241Y-50627871D01*
X24644241Y-50627871D02*
X24583765Y-50567394D01*
X29633333Y-38272326D02*
X29572857Y-38332803D01*
X29572857Y-38332803D02*
X29391428Y-38393279D01*
X29391428Y-38393279D02*
X29270476Y-38393279D01*
X29270476Y-38393279D02*
X29089047Y-38332803D01*
X29089047Y-38332803D02*
X28968095Y-38211850D01*
X28968095Y-38211850D02*
X28907618Y-38090898D01*
X28907618Y-38090898D02*
X28847142Y-37848993D01*
X28847142Y-37848993D02*
X28847142Y-37667564D01*
X28847142Y-37667564D02*
X28907618Y-37425660D01*
X28907618Y-37425660D02*
X28968095Y-37304707D01*
X28968095Y-37304707D02*
X29089047Y-37183755D01*
X29089047Y-37183755D02*
X29270476Y-37123279D01*
X29270476Y-37123279D02*
X29391428Y-37123279D01*
X29391428Y-37123279D02*
X29572857Y-37183755D01*
X29572857Y-37183755D02*
X29633333Y-37244231D01*
X30177618Y-38393279D02*
X30177618Y-37123279D01*
X30177618Y-37123279D02*
X30661428Y-37123279D01*
X30661428Y-37123279D02*
X30782380Y-37183755D01*
X30782380Y-37183755D02*
X30842857Y-37244231D01*
X30842857Y-37244231D02*
X30903333Y-37365183D01*
X30903333Y-37365183D02*
X30903333Y-37546612D01*
X30903333Y-37546612D02*
X30842857Y-37667564D01*
X30842857Y-37667564D02*
X30782380Y-37728041D01*
X30782380Y-37728041D02*
X30661428Y-37788517D01*
X30661428Y-37788517D02*
X30177618Y-37788517D01*
X31387142Y-37244231D02*
X31447618Y-37183755D01*
X31447618Y-37183755D02*
X31568571Y-37123279D01*
X31568571Y-37123279D02*
X31870952Y-37123279D01*
X31870952Y-37123279D02*
X31991904Y-37183755D01*
X31991904Y-37183755D02*
X32052380Y-37244231D01*
X32052380Y-37244231D02*
X32112857Y-37365183D01*
X32112857Y-37365183D02*
X32112857Y-37486136D01*
X32112857Y-37486136D02*
X32052380Y-37667564D01*
X32052380Y-37667564D02*
X31326666Y-38393279D01*
X31326666Y-38393279D02*
X32112857Y-38393279D01*
X36729833Y-61232142D02*
X36669357Y-61353095D01*
X36669357Y-61353095D02*
X36669357Y-61534523D01*
X36669357Y-61534523D02*
X36729833Y-61715952D01*
X36729833Y-61715952D02*
X36850785Y-61836904D01*
X36850785Y-61836904D02*
X36971738Y-61897381D01*
X36971738Y-61897381D02*
X37213642Y-61957857D01*
X37213642Y-61957857D02*
X37395071Y-61957857D01*
X37395071Y-61957857D02*
X37636976Y-61897381D01*
X37636976Y-61897381D02*
X37757928Y-61836904D01*
X37757928Y-61836904D02*
X37878881Y-61715952D01*
X37878881Y-61715952D02*
X37939357Y-61534523D01*
X37939357Y-61534523D02*
X37939357Y-61413571D01*
X37939357Y-61413571D02*
X37878881Y-61232142D01*
X37878881Y-61232142D02*
X37818404Y-61171666D01*
X37818404Y-61171666D02*
X37395071Y-61171666D01*
X37395071Y-61171666D02*
X37395071Y-61413571D01*
X36790309Y-60687857D02*
X36729833Y-60627381D01*
X36729833Y-60627381D02*
X36669357Y-60506428D01*
X36669357Y-60506428D02*
X36669357Y-60204047D01*
X36669357Y-60204047D02*
X36729833Y-60083095D01*
X36729833Y-60083095D02*
X36790309Y-60022619D01*
X36790309Y-60022619D02*
X36911261Y-59962142D01*
X36911261Y-59962142D02*
X37032214Y-59962142D01*
X37032214Y-59962142D02*
X37213642Y-60022619D01*
X37213642Y-60022619D02*
X37939357Y-60748333D01*
X37939357Y-60748333D02*
X37939357Y-59962142D01*
X30903333Y-25572326D02*
X30842857Y-25632803D01*
X30842857Y-25632803D02*
X30661428Y-25693279D01*
X30661428Y-25693279D02*
X30540476Y-25693279D01*
X30540476Y-25693279D02*
X30359047Y-25632803D01*
X30359047Y-25632803D02*
X30238095Y-25511850D01*
X30238095Y-25511850D02*
X30177618Y-25390898D01*
X30177618Y-25390898D02*
X30117142Y-25148993D01*
X30117142Y-25148993D02*
X30117142Y-24967564D01*
X30117142Y-24967564D02*
X30177618Y-24725660D01*
X30177618Y-24725660D02*
X30238095Y-24604707D01*
X30238095Y-24604707D02*
X30359047Y-24483755D01*
X30359047Y-24483755D02*
X30540476Y-24423279D01*
X30540476Y-24423279D02*
X30661428Y-24423279D01*
X30661428Y-24423279D02*
X30842857Y-24483755D01*
X30842857Y-24483755D02*
X30903333Y-24544231D01*
X31447618Y-25693279D02*
X31447618Y-24423279D01*
X31447618Y-24423279D02*
X31931428Y-24423279D01*
X31931428Y-24423279D02*
X32052380Y-24483755D01*
X32052380Y-24483755D02*
X32112857Y-24544231D01*
X32112857Y-24544231D02*
X32173333Y-24665183D01*
X32173333Y-24665183D02*
X32173333Y-24846612D01*
X32173333Y-24846612D02*
X32112857Y-24967564D01*
X32112857Y-24967564D02*
X32052380Y-25028041D01*
X32052380Y-25028041D02*
X31931428Y-25088517D01*
X31931428Y-25088517D02*
X31447618Y-25088517D01*
X33382857Y-25693279D02*
X32657142Y-25693279D01*
X33019999Y-25693279D02*
X33019999Y-24423279D01*
X33019999Y-24423279D02*
X32899047Y-24604707D01*
X32899047Y-24604707D02*
X32778095Y-24725660D01*
X32778095Y-24725660D02*
X32657142Y-24786136D01*
D12*
X40428433Y-48813580D02*
X40380814Y-48861200D01*
X40380814Y-48861200D02*
X40237957Y-48908819D01*
X40237957Y-48908819D02*
X40142719Y-48908819D01*
X40142719Y-48908819D02*
X39999862Y-48861200D01*
X39999862Y-48861200D02*
X39904624Y-48765961D01*
X39904624Y-48765961D02*
X39857005Y-48670723D01*
X39857005Y-48670723D02*
X39809386Y-48480247D01*
X39809386Y-48480247D02*
X39809386Y-48337390D01*
X39809386Y-48337390D02*
X39857005Y-48146914D01*
X39857005Y-48146914D02*
X39904624Y-48051676D01*
X39904624Y-48051676D02*
X39999862Y-47956438D01*
X39999862Y-47956438D02*
X40142719Y-47908819D01*
X40142719Y-47908819D02*
X40237957Y-47908819D01*
X40237957Y-47908819D02*
X40380814Y-47956438D01*
X40380814Y-47956438D02*
X40428433Y-48004057D01*
X41380814Y-48908819D02*
X40809386Y-48908819D01*
X41095100Y-48908819D02*
X41095100Y-47908819D01*
X41095100Y-47908819D02*
X40999862Y-48051676D01*
X40999862Y-48051676D02*
X40904624Y-48146914D01*
X40904624Y-48146914D02*
X40809386Y-48194533D01*
D11*
X28937857Y-30833755D02*
X28816904Y-30773279D01*
X28816904Y-30773279D02*
X28635476Y-30773279D01*
X28635476Y-30773279D02*
X28454047Y-30833755D01*
X28454047Y-30833755D02*
X28333095Y-30954707D01*
X28333095Y-30954707D02*
X28272618Y-31075660D01*
X28272618Y-31075660D02*
X28212142Y-31317564D01*
X28212142Y-31317564D02*
X28212142Y-31498993D01*
X28212142Y-31498993D02*
X28272618Y-31740898D01*
X28272618Y-31740898D02*
X28333095Y-31861850D01*
X28333095Y-31861850D02*
X28454047Y-31982803D01*
X28454047Y-31982803D02*
X28635476Y-32043279D01*
X28635476Y-32043279D02*
X28756428Y-32043279D01*
X28756428Y-32043279D02*
X28937857Y-31982803D01*
X28937857Y-31982803D02*
X28998333Y-31922326D01*
X28998333Y-31922326D02*
X28998333Y-31498993D01*
X28998333Y-31498993D02*
X28756428Y-31498993D01*
X29421666Y-30773279D02*
X30207857Y-30773279D01*
X30207857Y-30773279D02*
X29784523Y-31257088D01*
X29784523Y-31257088D02*
X29965952Y-31257088D01*
X29965952Y-31257088D02*
X30086904Y-31317564D01*
X30086904Y-31317564D02*
X30147380Y-31378041D01*
X30147380Y-31378041D02*
X30207857Y-31498993D01*
X30207857Y-31498993D02*
X30207857Y-31801374D01*
X30207857Y-31801374D02*
X30147380Y-31922326D01*
X30147380Y-31922326D02*
X30086904Y-31982803D01*
X30086904Y-31982803D02*
X29965952Y-32043279D01*
X29965952Y-32043279D02*
X29603095Y-32043279D01*
X29603095Y-32043279D02*
X29482142Y-31982803D01*
X29482142Y-31982803D02*
X29421666Y-31922326D01*
X40103809Y-20894318D02*
X39499047Y-20894318D01*
X39499047Y-20894318D02*
X39499047Y-19624318D01*
X40527142Y-20229080D02*
X40950476Y-20229080D01*
X41131904Y-20894318D02*
X40527142Y-20894318D01*
X40527142Y-20894318D02*
X40527142Y-19624318D01*
X40527142Y-19624318D02*
X41131904Y-19624318D01*
X41676190Y-20894318D02*
X41676190Y-19624318D01*
X41676190Y-19624318D02*
X41978571Y-19624318D01*
X41978571Y-19624318D02*
X42160000Y-19684794D01*
X42160000Y-19684794D02*
X42280952Y-19805746D01*
X42280952Y-19805746D02*
X42341429Y-19926699D01*
X42341429Y-19926699D02*
X42401905Y-20168603D01*
X42401905Y-20168603D02*
X42401905Y-20350032D01*
X42401905Y-20350032D02*
X42341429Y-20591937D01*
X42341429Y-20591937D02*
X42280952Y-20712889D01*
X42280952Y-20712889D02*
X42160000Y-20833842D01*
X42160000Y-20833842D02*
X41978571Y-20894318D01*
X41978571Y-20894318D02*
X41676190Y-20894318D01*
X42885714Y-19745270D02*
X42946190Y-19684794D01*
X42946190Y-19684794D02*
X43067143Y-19624318D01*
X43067143Y-19624318D02*
X43369524Y-19624318D01*
X43369524Y-19624318D02*
X43490476Y-19684794D01*
X43490476Y-19684794D02*
X43550952Y-19745270D01*
X43550952Y-19745270D02*
X43611429Y-19866222D01*
X43611429Y-19866222D02*
X43611429Y-19987175D01*
X43611429Y-19987175D02*
X43550952Y-20168603D01*
X43550952Y-20168603D02*
X42825238Y-20894318D01*
X42825238Y-20894318D02*
X43611429Y-20894318D01*
X35336432Y-34432347D02*
X34913098Y-33827585D01*
X34610717Y-34432347D02*
X34610717Y-33162347D01*
X34610717Y-33162347D02*
X35094527Y-33162347D01*
X35094527Y-33162347D02*
X35215479Y-33222823D01*
X35215479Y-33222823D02*
X35275956Y-33283299D01*
X35275956Y-33283299D02*
X35336432Y-33404251D01*
X35336432Y-33404251D02*
X35336432Y-33585680D01*
X35336432Y-33585680D02*
X35275956Y-33706632D01*
X35275956Y-33706632D02*
X35215479Y-33767109D01*
X35215479Y-33767109D02*
X35094527Y-33827585D01*
X35094527Y-33827585D02*
X34610717Y-33827585D01*
X36425003Y-33162347D02*
X36183098Y-33162347D01*
X36183098Y-33162347D02*
X36062146Y-33222823D01*
X36062146Y-33222823D02*
X36001670Y-33283299D01*
X36001670Y-33283299D02*
X35880717Y-33464728D01*
X35880717Y-33464728D02*
X35820241Y-33706632D01*
X35820241Y-33706632D02*
X35820241Y-34190442D01*
X35820241Y-34190442D02*
X35880717Y-34311394D01*
X35880717Y-34311394D02*
X35941194Y-34371871D01*
X35941194Y-34371871D02*
X36062146Y-34432347D01*
X36062146Y-34432347D02*
X36304051Y-34432347D01*
X36304051Y-34432347D02*
X36425003Y-34371871D01*
X36425003Y-34371871D02*
X36485479Y-34311394D01*
X36485479Y-34311394D02*
X36545956Y-34190442D01*
X36545956Y-34190442D02*
X36545956Y-33888061D01*
X36545956Y-33888061D02*
X36485479Y-33767109D01*
X36485479Y-33767109D02*
X36425003Y-33706632D01*
X36425003Y-33706632D02*
X36304051Y-33646156D01*
X36304051Y-33646156D02*
X36062146Y-33646156D01*
X36062146Y-33646156D02*
X35941194Y-33706632D01*
X35941194Y-33706632D02*
X35880717Y-33767109D01*
X35880717Y-33767109D02*
X35820241Y-33888061D01*
X47996289Y-31284527D02*
X47391527Y-31707861D01*
X47996289Y-32010242D02*
X46726289Y-32010242D01*
X46726289Y-32010242D02*
X46726289Y-31526432D01*
X46726289Y-31526432D02*
X46786765Y-31405480D01*
X46786765Y-31405480D02*
X46847241Y-31345003D01*
X46847241Y-31345003D02*
X46968193Y-31284527D01*
X46968193Y-31284527D02*
X47149622Y-31284527D01*
X47149622Y-31284527D02*
X47270574Y-31345003D01*
X47270574Y-31345003D02*
X47331051Y-31405480D01*
X47331051Y-31405480D02*
X47391527Y-31526432D01*
X47391527Y-31526432D02*
X47391527Y-32010242D01*
X47996289Y-30075003D02*
X47996289Y-30800718D01*
X47996289Y-30437861D02*
X46726289Y-30437861D01*
X46726289Y-30437861D02*
X46907717Y-30558813D01*
X46907717Y-30558813D02*
X47028670Y-30679765D01*
X47028670Y-30679765D02*
X47089146Y-30800718D01*
X46726289Y-29288813D02*
X46726289Y-29167860D01*
X46726289Y-29167860D02*
X46786765Y-29046908D01*
X46786765Y-29046908D02*
X46847241Y-28986432D01*
X46847241Y-28986432D02*
X46968193Y-28925956D01*
X46968193Y-28925956D02*
X47210098Y-28865479D01*
X47210098Y-28865479D02*
X47512479Y-28865479D01*
X47512479Y-28865479D02*
X47754384Y-28925956D01*
X47754384Y-28925956D02*
X47875336Y-28986432D01*
X47875336Y-28986432D02*
X47935813Y-29046908D01*
X47935813Y-29046908D02*
X47996289Y-29167860D01*
X47996289Y-29167860D02*
X47996289Y-29288813D01*
X47996289Y-29288813D02*
X47935813Y-29409765D01*
X47935813Y-29409765D02*
X47875336Y-29470241D01*
X47875336Y-29470241D02*
X47754384Y-29530718D01*
X47754384Y-29530718D02*
X47512479Y-29591194D01*
X47512479Y-29591194D02*
X47210098Y-29591194D01*
X47210098Y-29591194D02*
X46968193Y-29530718D01*
X46968193Y-29530718D02*
X46847241Y-29470241D01*
X46847241Y-29470241D02*
X46786765Y-29409765D01*
X46786765Y-29409765D02*
X46726289Y-29288813D01*
X63561668Y-27997690D02*
X63561668Y-29025785D01*
X63561668Y-29025785D02*
X63622145Y-29146737D01*
X63622145Y-29146737D02*
X63682621Y-29207214D01*
X63682621Y-29207214D02*
X63803573Y-29267690D01*
X63803573Y-29267690D02*
X64045478Y-29267690D01*
X64045478Y-29267690D02*
X64166430Y-29207214D01*
X64166430Y-29207214D02*
X64226907Y-29146737D01*
X64226907Y-29146737D02*
X64287383Y-29025785D01*
X64287383Y-29025785D02*
X64287383Y-27997690D01*
X64831668Y-28118642D02*
X64892144Y-28058166D01*
X64892144Y-28058166D02*
X65013097Y-27997690D01*
X65013097Y-27997690D02*
X65315478Y-27997690D01*
X65315478Y-27997690D02*
X65436430Y-28058166D01*
X65436430Y-28058166D02*
X65496906Y-28118642D01*
X65496906Y-28118642D02*
X65557383Y-28239594D01*
X65557383Y-28239594D02*
X65557383Y-28360547D01*
X65557383Y-28360547D02*
X65496906Y-28541975D01*
X65496906Y-28541975D02*
X64771192Y-29267690D01*
X64771192Y-29267690D02*
X65557383Y-29267690D01*
X40367857Y-34643755D02*
X40246904Y-34583279D01*
X40246904Y-34583279D02*
X40065476Y-34583279D01*
X40065476Y-34583279D02*
X39884047Y-34643755D01*
X39884047Y-34643755D02*
X39763095Y-34764707D01*
X39763095Y-34764707D02*
X39702618Y-34885660D01*
X39702618Y-34885660D02*
X39642142Y-35127564D01*
X39642142Y-35127564D02*
X39642142Y-35308993D01*
X39642142Y-35308993D02*
X39702618Y-35550898D01*
X39702618Y-35550898D02*
X39763095Y-35671850D01*
X39763095Y-35671850D02*
X39884047Y-35792803D01*
X39884047Y-35792803D02*
X40065476Y-35853279D01*
X40065476Y-35853279D02*
X40186428Y-35853279D01*
X40186428Y-35853279D02*
X40367857Y-35792803D01*
X40367857Y-35792803D02*
X40428333Y-35732326D01*
X40428333Y-35732326D02*
X40428333Y-35308993D01*
X40428333Y-35308993D02*
X40186428Y-35308993D01*
X41577380Y-34583279D02*
X40972618Y-34583279D01*
X40972618Y-34583279D02*
X40912142Y-35188041D01*
X40912142Y-35188041D02*
X40972618Y-35127564D01*
X40972618Y-35127564D02*
X41093571Y-35067088D01*
X41093571Y-35067088D02*
X41395952Y-35067088D01*
X41395952Y-35067088D02*
X41516904Y-35127564D01*
X41516904Y-35127564D02*
X41577380Y-35188041D01*
X41577380Y-35188041D02*
X41637857Y-35308993D01*
X41637857Y-35308993D02*
X41637857Y-35611374D01*
X41637857Y-35611374D02*
X41577380Y-35732326D01*
X41577380Y-35732326D02*
X41516904Y-35792803D01*
X41516904Y-35792803D02*
X41395952Y-35853279D01*
X41395952Y-35853279D02*
X41093571Y-35853279D01*
X41093571Y-35853279D02*
X40972618Y-35792803D01*
X40972618Y-35792803D02*
X40912142Y-35732326D01*
X25974318Y-29965951D02*
X25369556Y-30389285D01*
X25974318Y-30691666D02*
X24704318Y-30691666D01*
X24704318Y-30691666D02*
X24704318Y-30207856D01*
X24704318Y-30207856D02*
X24764794Y-30086904D01*
X24764794Y-30086904D02*
X24825270Y-30026427D01*
X24825270Y-30026427D02*
X24946222Y-29965951D01*
X24946222Y-29965951D02*
X25127651Y-29965951D01*
X25127651Y-29965951D02*
X25248603Y-30026427D01*
X25248603Y-30026427D02*
X25309080Y-30086904D01*
X25309080Y-30086904D02*
X25369556Y-30207856D01*
X25369556Y-30207856D02*
X25369556Y-30691666D01*
X24704318Y-29603094D02*
X25974318Y-29179761D01*
X25974318Y-29179761D02*
X24704318Y-28756427D01*
X24825270Y-28393571D02*
X24764794Y-28333095D01*
X24764794Y-28333095D02*
X24704318Y-28212142D01*
X24704318Y-28212142D02*
X24704318Y-27909761D01*
X24704318Y-27909761D02*
X24764794Y-27788809D01*
X24764794Y-27788809D02*
X24825270Y-27728333D01*
X24825270Y-27728333D02*
X24946222Y-27667856D01*
X24946222Y-27667856D02*
X25067175Y-27667856D01*
X25067175Y-27667856D02*
X25248603Y-27728333D01*
X25248603Y-27728333D02*
X25974318Y-28454047D01*
X25974318Y-28454047D02*
X25974318Y-27667856D01*
D12*
X61793333Y-34709580D02*
X61745714Y-34757200D01*
X61745714Y-34757200D02*
X61602857Y-34804819D01*
X61602857Y-34804819D02*
X61507619Y-34804819D01*
X61507619Y-34804819D02*
X61364762Y-34757200D01*
X61364762Y-34757200D02*
X61269524Y-34661961D01*
X61269524Y-34661961D02*
X61221905Y-34566723D01*
X61221905Y-34566723D02*
X61174286Y-34376247D01*
X61174286Y-34376247D02*
X61174286Y-34233390D01*
X61174286Y-34233390D02*
X61221905Y-34042914D01*
X61221905Y-34042914D02*
X61269524Y-33947676D01*
X61269524Y-33947676D02*
X61364762Y-33852438D01*
X61364762Y-33852438D02*
X61507619Y-33804819D01*
X61507619Y-33804819D02*
X61602857Y-33804819D01*
X61602857Y-33804819D02*
X61745714Y-33852438D01*
X61745714Y-33852438D02*
X61793333Y-33900057D01*
X62698095Y-33804819D02*
X62221905Y-33804819D01*
X62221905Y-33804819D02*
X62174286Y-34281009D01*
X62174286Y-34281009D02*
X62221905Y-34233390D01*
X62221905Y-34233390D02*
X62317143Y-34185771D01*
X62317143Y-34185771D02*
X62555238Y-34185771D01*
X62555238Y-34185771D02*
X62650476Y-34233390D01*
X62650476Y-34233390D02*
X62698095Y-34281009D01*
X62698095Y-34281009D02*
X62745714Y-34376247D01*
X62745714Y-34376247D02*
X62745714Y-34614342D01*
X62745714Y-34614342D02*
X62698095Y-34709580D01*
X62698095Y-34709580D02*
X62650476Y-34757200D01*
X62650476Y-34757200D02*
X62555238Y-34804819D01*
X62555238Y-34804819D02*
X62317143Y-34804819D01*
X62317143Y-34804819D02*
X62221905Y-34757200D01*
X62221905Y-34757200D02*
X62174286Y-34709580D01*
D11*
X50263809Y-20894318D02*
X49659047Y-20894318D01*
X49659047Y-20894318D02*
X49659047Y-19624318D01*
X50687142Y-20229080D02*
X51110476Y-20229080D01*
X51291904Y-20894318D02*
X50687142Y-20894318D01*
X50687142Y-20894318D02*
X50687142Y-19624318D01*
X50687142Y-19624318D02*
X51291904Y-19624318D01*
X51836190Y-20894318D02*
X51836190Y-19624318D01*
X51836190Y-19624318D02*
X52138571Y-19624318D01*
X52138571Y-19624318D02*
X52320000Y-19684794D01*
X52320000Y-19684794D02*
X52440952Y-19805746D01*
X52440952Y-19805746D02*
X52501429Y-19926699D01*
X52501429Y-19926699D02*
X52561905Y-20168603D01*
X52561905Y-20168603D02*
X52561905Y-20350032D01*
X52561905Y-20350032D02*
X52501429Y-20591937D01*
X52501429Y-20591937D02*
X52440952Y-20712889D01*
X52440952Y-20712889D02*
X52320000Y-20833842D01*
X52320000Y-20833842D02*
X52138571Y-20894318D01*
X52138571Y-20894318D02*
X51836190Y-20894318D01*
X53771429Y-20894318D02*
X53045714Y-20894318D01*
X53408571Y-20894318D02*
X53408571Y-19624318D01*
X53408571Y-19624318D02*
X53287619Y-19805746D01*
X53287619Y-19805746D02*
X53166667Y-19926699D01*
X53166667Y-19926699D02*
X53045714Y-19987175D01*
X29264234Y-58156289D02*
X28840900Y-57551527D01*
X28538519Y-58156289D02*
X28538519Y-56886289D01*
X28538519Y-56886289D02*
X29022329Y-56886289D01*
X29022329Y-56886289D02*
X29143281Y-56946765D01*
X29143281Y-56946765D02*
X29203758Y-57007241D01*
X29203758Y-57007241D02*
X29264234Y-57128193D01*
X29264234Y-57128193D02*
X29264234Y-57309622D01*
X29264234Y-57309622D02*
X29203758Y-57430574D01*
X29203758Y-57430574D02*
X29143281Y-57491051D01*
X29143281Y-57491051D02*
X29022329Y-57551527D01*
X29022329Y-57551527D02*
X28538519Y-57551527D01*
X30352805Y-57309622D02*
X30352805Y-58156289D01*
X30050424Y-56825813D02*
X29748043Y-57732955D01*
X29748043Y-57732955D02*
X30534234Y-57732955D01*
X77911670Y-49672347D02*
X77488336Y-49067585D01*
X77185955Y-49672347D02*
X77185955Y-48402347D01*
X77185955Y-48402347D02*
X77669765Y-48402347D01*
X77669765Y-48402347D02*
X77790717Y-48462823D01*
X77790717Y-48462823D02*
X77851194Y-48523299D01*
X77851194Y-48523299D02*
X77911670Y-48644251D01*
X77911670Y-48644251D02*
X77911670Y-48825680D01*
X77911670Y-48825680D02*
X77851194Y-48946632D01*
X77851194Y-48946632D02*
X77790717Y-49007109D01*
X77790717Y-49007109D02*
X77669765Y-49067585D01*
X77669765Y-49067585D02*
X77185955Y-49067585D01*
X79121194Y-49672347D02*
X78395479Y-49672347D01*
X78758336Y-49672347D02*
X78758336Y-48402347D01*
X78758336Y-48402347D02*
X78637384Y-48583775D01*
X78637384Y-48583775D02*
X78516432Y-48704728D01*
X78516432Y-48704728D02*
X78395479Y-48765204D01*
X79544527Y-48402347D02*
X80391194Y-48402347D01*
X80391194Y-48402347D02*
X79846908Y-49672347D01*
D12*
X84911666Y-25549819D02*
X84911666Y-26264104D01*
X84911666Y-26264104D02*
X84864047Y-26406961D01*
X84864047Y-26406961D02*
X84768809Y-26502200D01*
X84768809Y-26502200D02*
X84625952Y-26549819D01*
X84625952Y-26549819D02*
X84530714Y-26549819D01*
X85816428Y-25883152D02*
X85816428Y-26549819D01*
X85578333Y-25502200D02*
X85340238Y-26216485D01*
X85340238Y-26216485D02*
X85959285Y-26216485D01*
D11*
X78467857Y-57503755D02*
X78346904Y-57443279D01*
X78346904Y-57443279D02*
X78165476Y-57443279D01*
X78165476Y-57443279D02*
X77984047Y-57503755D01*
X77984047Y-57503755D02*
X77863095Y-57624707D01*
X77863095Y-57624707D02*
X77802618Y-57745660D01*
X77802618Y-57745660D02*
X77742142Y-57987564D01*
X77742142Y-57987564D02*
X77742142Y-58168993D01*
X77742142Y-58168993D02*
X77802618Y-58410898D01*
X77802618Y-58410898D02*
X77863095Y-58531850D01*
X77863095Y-58531850D02*
X77984047Y-58652803D01*
X77984047Y-58652803D02*
X78165476Y-58713279D01*
X78165476Y-58713279D02*
X78286428Y-58713279D01*
X78286428Y-58713279D02*
X78467857Y-58652803D01*
X78467857Y-58652803D02*
X78528333Y-58592326D01*
X78528333Y-58592326D02*
X78528333Y-58168993D01*
X78528333Y-58168993D02*
X78286428Y-58168993D01*
X78951666Y-57443279D02*
X79798333Y-57443279D01*
X79798333Y-57443279D02*
X79254047Y-58713279D01*
D12*
X79842333Y-15578866D02*
X79842333Y-16578866D01*
X79842333Y-16578866D02*
X79775666Y-16778866D01*
X79775666Y-16778866D02*
X79642333Y-16912200D01*
X79642333Y-16912200D02*
X79442333Y-16978866D01*
X79442333Y-16978866D02*
X79309000Y-16978866D01*
X80442333Y-15712200D02*
X80509000Y-15645533D01*
X80509000Y-15645533D02*
X80642333Y-15578866D01*
X80642333Y-15578866D02*
X80975667Y-15578866D01*
X80975667Y-15578866D02*
X81109000Y-15645533D01*
X81109000Y-15645533D02*
X81175667Y-15712200D01*
X81175667Y-15712200D02*
X81242333Y-15845533D01*
X81242333Y-15845533D02*
X81242333Y-15978866D01*
X81242333Y-15978866D02*
X81175667Y-16178866D01*
X81175667Y-16178866D02*
X80375667Y-16978866D01*
X80375667Y-16978866D02*
X81242333Y-16978866D01*
X82558095Y-53336819D02*
X83129523Y-53336819D01*
X82843809Y-54336819D02*
X82843809Y-53336819D01*
X83462857Y-54336819D02*
X83462857Y-53336819D01*
X83462857Y-53336819D02*
X83843809Y-53336819D01*
X83843809Y-53336819D02*
X83939047Y-53384438D01*
X83939047Y-53384438D02*
X83986666Y-53432057D01*
X83986666Y-53432057D02*
X84034285Y-53527295D01*
X84034285Y-53527295D02*
X84034285Y-53670152D01*
X84034285Y-53670152D02*
X83986666Y-53765390D01*
X83986666Y-53765390D02*
X83939047Y-53813009D01*
X83939047Y-53813009D02*
X83843809Y-53860628D01*
X83843809Y-53860628D02*
X83462857Y-53860628D01*
X84510476Y-54336819D02*
X84700952Y-54336819D01*
X84700952Y-54336819D02*
X84796190Y-54289200D01*
X84796190Y-54289200D02*
X84843809Y-54241580D01*
X84843809Y-54241580D02*
X84939047Y-54098723D01*
X84939047Y-54098723D02*
X84986666Y-53908247D01*
X84986666Y-53908247D02*
X84986666Y-53527295D01*
X84986666Y-53527295D02*
X84939047Y-53432057D01*
X84939047Y-53432057D02*
X84891428Y-53384438D01*
X84891428Y-53384438D02*
X84796190Y-53336819D01*
X84796190Y-53336819D02*
X84605714Y-53336819D01*
X84605714Y-53336819D02*
X84510476Y-53384438D01*
X84510476Y-53384438D02*
X84462857Y-53432057D01*
X84462857Y-53432057D02*
X84415238Y-53527295D01*
X84415238Y-53527295D02*
X84415238Y-53765390D01*
X84415238Y-53765390D02*
X84462857Y-53860628D01*
X84462857Y-53860628D02*
X84510476Y-53908247D01*
X84510476Y-53908247D02*
X84605714Y-53955866D01*
X84605714Y-53955866D02*
X84796190Y-53955866D01*
X84796190Y-53955866D02*
X84891428Y-53908247D01*
X84891428Y-53908247D02*
X84939047Y-53860628D01*
X84939047Y-53860628D02*
X84986666Y-53765390D01*
D11*
X34320432Y-54752347D02*
X33897098Y-54147585D01*
X33594717Y-54752347D02*
X33594717Y-53482347D01*
X33594717Y-53482347D02*
X34078527Y-53482347D01*
X34078527Y-53482347D02*
X34199479Y-53542823D01*
X34199479Y-53542823D02*
X34259956Y-53603299D01*
X34259956Y-53603299D02*
X34320432Y-53724251D01*
X34320432Y-53724251D02*
X34320432Y-53905680D01*
X34320432Y-53905680D02*
X34259956Y-54026632D01*
X34259956Y-54026632D02*
X34199479Y-54087109D01*
X34199479Y-54087109D02*
X34078527Y-54147585D01*
X34078527Y-54147585D02*
X33594717Y-54147585D01*
X35529956Y-54752347D02*
X34804241Y-54752347D01*
X35167098Y-54752347D02*
X35167098Y-53482347D01*
X35167098Y-53482347D02*
X35046146Y-53663775D01*
X35046146Y-53663775D02*
X34925194Y-53784728D01*
X34925194Y-53784728D02*
X34804241Y-53845204D01*
X67751670Y-45227347D02*
X67328336Y-44622585D01*
X67025955Y-45227347D02*
X67025955Y-43957347D01*
X67025955Y-43957347D02*
X67509765Y-43957347D01*
X67509765Y-43957347D02*
X67630717Y-44017823D01*
X67630717Y-44017823D02*
X67691194Y-44078299D01*
X67691194Y-44078299D02*
X67751670Y-44199251D01*
X67751670Y-44199251D02*
X67751670Y-44380680D01*
X67751670Y-44380680D02*
X67691194Y-44501632D01*
X67691194Y-44501632D02*
X67630717Y-44562109D01*
X67630717Y-44562109D02*
X67509765Y-44622585D01*
X67509765Y-44622585D02*
X67025955Y-44622585D01*
X68961194Y-45227347D02*
X68235479Y-45227347D01*
X68598336Y-45227347D02*
X68598336Y-43957347D01*
X68598336Y-43957347D02*
X68477384Y-44138775D01*
X68477384Y-44138775D02*
X68356432Y-44259728D01*
X68356432Y-44259728D02*
X68235479Y-44320204D01*
X70049765Y-43957347D02*
X69807860Y-43957347D01*
X69807860Y-43957347D02*
X69686908Y-44017823D01*
X69686908Y-44017823D02*
X69626432Y-44078299D01*
X69626432Y-44078299D02*
X69505479Y-44259728D01*
X69505479Y-44259728D02*
X69445003Y-44501632D01*
X69445003Y-44501632D02*
X69445003Y-44985442D01*
X69445003Y-44985442D02*
X69505479Y-45106394D01*
X69505479Y-45106394D02*
X69565956Y-45166871D01*
X69565956Y-45166871D02*
X69686908Y-45227347D01*
X69686908Y-45227347D02*
X69928813Y-45227347D01*
X69928813Y-45227347D02*
X70049765Y-45166871D01*
X70049765Y-45166871D02*
X70110241Y-45106394D01*
X70110241Y-45106394D02*
X70170718Y-44985442D01*
X70170718Y-44985442D02*
X70170718Y-44683061D01*
X70170718Y-44683061D02*
X70110241Y-44562109D01*
X70110241Y-44562109D02*
X70049765Y-44501632D01*
X70049765Y-44501632D02*
X69928813Y-44441156D01*
X69928813Y-44441156D02*
X69686908Y-44441156D01*
X69686908Y-44441156D02*
X69565956Y-44501632D01*
X69565956Y-44501632D02*
X69505479Y-44562109D01*
X69505479Y-44562109D02*
X69445003Y-44683061D01*
X83620234Y-42916289D02*
X83196900Y-42311527D01*
X82894519Y-42916289D02*
X82894519Y-41646289D01*
X82894519Y-41646289D02*
X83378329Y-41646289D01*
X83378329Y-41646289D02*
X83499281Y-41706765D01*
X83499281Y-41706765D02*
X83559758Y-41767241D01*
X83559758Y-41767241D02*
X83620234Y-41888193D01*
X83620234Y-41888193D02*
X83620234Y-42069622D01*
X83620234Y-42069622D02*
X83559758Y-42190574D01*
X83559758Y-42190574D02*
X83499281Y-42251051D01*
X83499281Y-42251051D02*
X83378329Y-42311527D01*
X83378329Y-42311527D02*
X82894519Y-42311527D01*
X84224996Y-42916289D02*
X84466900Y-42916289D01*
X84466900Y-42916289D02*
X84587853Y-42855813D01*
X84587853Y-42855813D02*
X84648329Y-42795336D01*
X84648329Y-42795336D02*
X84769281Y-42613908D01*
X84769281Y-42613908D02*
X84829758Y-42372003D01*
X84829758Y-42372003D02*
X84829758Y-41888193D01*
X84829758Y-41888193D02*
X84769281Y-41767241D01*
X84769281Y-41767241D02*
X84708805Y-41706765D01*
X84708805Y-41706765D02*
X84587853Y-41646289D01*
X84587853Y-41646289D02*
X84345948Y-41646289D01*
X84345948Y-41646289D02*
X84224996Y-41706765D01*
X84224996Y-41706765D02*
X84164519Y-41767241D01*
X84164519Y-41767241D02*
X84104043Y-41888193D01*
X84104043Y-41888193D02*
X84104043Y-42190574D01*
X84104043Y-42190574D02*
X84164519Y-42311527D01*
X84164519Y-42311527D02*
X84224996Y-42372003D01*
X84224996Y-42372003D02*
X84345948Y-42432479D01*
X84345948Y-42432479D02*
X84587853Y-42432479D01*
X84587853Y-42432479D02*
X84708805Y-42372003D01*
X84708805Y-42372003D02*
X84769281Y-42311527D01*
X84769281Y-42311527D02*
X84829758Y-42190574D01*
D12*
X44458095Y-35556819D02*
X45029523Y-35556819D01*
X44743809Y-36556819D02*
X44743809Y-35556819D01*
X45362857Y-36556819D02*
X45362857Y-35556819D01*
X45362857Y-35556819D02*
X45743809Y-35556819D01*
X45743809Y-35556819D02*
X45839047Y-35604438D01*
X45839047Y-35604438D02*
X45886666Y-35652057D01*
X45886666Y-35652057D02*
X45934285Y-35747295D01*
X45934285Y-35747295D02*
X45934285Y-35890152D01*
X45934285Y-35890152D02*
X45886666Y-35985390D01*
X45886666Y-35985390D02*
X45839047Y-36033009D01*
X45839047Y-36033009D02*
X45743809Y-36080628D01*
X45743809Y-36080628D02*
X45362857Y-36080628D01*
X46791428Y-35556819D02*
X46600952Y-35556819D01*
X46600952Y-35556819D02*
X46505714Y-35604438D01*
X46505714Y-35604438D02*
X46458095Y-35652057D01*
X46458095Y-35652057D02*
X46362857Y-35794914D01*
X46362857Y-35794914D02*
X46315238Y-35985390D01*
X46315238Y-35985390D02*
X46315238Y-36366342D01*
X46315238Y-36366342D02*
X46362857Y-36461580D01*
X46362857Y-36461580D02*
X46410476Y-36509200D01*
X46410476Y-36509200D02*
X46505714Y-36556819D01*
X46505714Y-36556819D02*
X46696190Y-36556819D01*
X46696190Y-36556819D02*
X46791428Y-36509200D01*
X46791428Y-36509200D02*
X46839047Y-36461580D01*
X46839047Y-36461580D02*
X46886666Y-36366342D01*
X46886666Y-36366342D02*
X46886666Y-36128247D01*
X46886666Y-36128247D02*
X46839047Y-36033009D01*
X46839047Y-36033009D02*
X46791428Y-35985390D01*
X46791428Y-35985390D02*
X46696190Y-35937771D01*
X46696190Y-35937771D02*
X46505714Y-35937771D01*
X46505714Y-35937771D02*
X46410476Y-35985390D01*
X46410476Y-35985390D02*
X46362857Y-36033009D01*
X46362857Y-36033009D02*
X46315238Y-36128247D01*
D11*
X72831670Y-44592347D02*
X72408336Y-43987585D01*
X72105955Y-44592347D02*
X72105955Y-43322347D01*
X72105955Y-43322347D02*
X72589765Y-43322347D01*
X72589765Y-43322347D02*
X72710717Y-43382823D01*
X72710717Y-43382823D02*
X72771194Y-43443299D01*
X72771194Y-43443299D02*
X72831670Y-43564251D01*
X72831670Y-43564251D02*
X72831670Y-43745680D01*
X72831670Y-43745680D02*
X72771194Y-43866632D01*
X72771194Y-43866632D02*
X72710717Y-43927109D01*
X72710717Y-43927109D02*
X72589765Y-43987585D01*
X72589765Y-43987585D02*
X72105955Y-43987585D01*
X74041194Y-44592347D02*
X73315479Y-44592347D01*
X73678336Y-44592347D02*
X73678336Y-43322347D01*
X73678336Y-43322347D02*
X73557384Y-43503775D01*
X73557384Y-43503775D02*
X73436432Y-43624728D01*
X73436432Y-43624728D02*
X73315479Y-43685204D01*
X74464527Y-43322347D02*
X75250718Y-43322347D01*
X75250718Y-43322347D02*
X74827384Y-43806156D01*
X74827384Y-43806156D02*
X75008813Y-43806156D01*
X75008813Y-43806156D02*
X75129765Y-43866632D01*
X75129765Y-43866632D02*
X75190241Y-43927109D01*
X75190241Y-43927109D02*
X75250718Y-44048061D01*
X75250718Y-44048061D02*
X75250718Y-44350442D01*
X75250718Y-44350442D02*
X75190241Y-44471394D01*
X75190241Y-44471394D02*
X75129765Y-44531871D01*
X75129765Y-44531871D02*
X75008813Y-44592347D01*
X75008813Y-44592347D02*
X74645956Y-44592347D01*
X74645956Y-44592347D02*
X74525003Y-44531871D01*
X74525003Y-44531871D02*
X74464527Y-44471394D01*
D12*
X29218095Y-43176819D02*
X29789523Y-43176819D01*
X29503809Y-44176819D02*
X29503809Y-43176819D01*
X30122857Y-44176819D02*
X30122857Y-43176819D01*
X30122857Y-43176819D02*
X30503809Y-43176819D01*
X30503809Y-43176819D02*
X30599047Y-43224438D01*
X30599047Y-43224438D02*
X30646666Y-43272057D01*
X30646666Y-43272057D02*
X30694285Y-43367295D01*
X30694285Y-43367295D02*
X30694285Y-43510152D01*
X30694285Y-43510152D02*
X30646666Y-43605390D01*
X30646666Y-43605390D02*
X30599047Y-43653009D01*
X30599047Y-43653009D02*
X30503809Y-43700628D01*
X30503809Y-43700628D02*
X30122857Y-43700628D01*
X31075238Y-43272057D02*
X31122857Y-43224438D01*
X31122857Y-43224438D02*
X31218095Y-43176819D01*
X31218095Y-43176819D02*
X31456190Y-43176819D01*
X31456190Y-43176819D02*
X31551428Y-43224438D01*
X31551428Y-43224438D02*
X31599047Y-43272057D01*
X31599047Y-43272057D02*
X31646666Y-43367295D01*
X31646666Y-43367295D02*
X31646666Y-43462533D01*
X31646666Y-43462533D02*
X31599047Y-43605390D01*
X31599047Y-43605390D02*
X31027619Y-44176819D01*
X31027619Y-44176819D02*
X31646666Y-44176819D01*
D11*
X88071670Y-57292347D02*
X87648336Y-56687585D01*
X87345955Y-57292347D02*
X87345955Y-56022347D01*
X87345955Y-56022347D02*
X87829765Y-56022347D01*
X87829765Y-56022347D02*
X87950717Y-56082823D01*
X87950717Y-56082823D02*
X88011194Y-56143299D01*
X88011194Y-56143299D02*
X88071670Y-56264251D01*
X88071670Y-56264251D02*
X88071670Y-56445680D01*
X88071670Y-56445680D02*
X88011194Y-56566632D01*
X88011194Y-56566632D02*
X87950717Y-56627109D01*
X87950717Y-56627109D02*
X87829765Y-56687585D01*
X87829765Y-56687585D02*
X87345955Y-56687585D01*
X89281194Y-57292347D02*
X88555479Y-57292347D01*
X88918336Y-57292347D02*
X88918336Y-56022347D01*
X88918336Y-56022347D02*
X88797384Y-56203775D01*
X88797384Y-56203775D02*
X88676432Y-56324728D01*
X88676432Y-56324728D02*
X88555479Y-56385204D01*
X90490718Y-57292347D02*
X89765003Y-57292347D01*
X90127860Y-57292347D02*
X90127860Y-56022347D01*
X90127860Y-56022347D02*
X90006908Y-56203775D01*
X90006908Y-56203775D02*
X89885956Y-56324728D01*
X89885956Y-56324728D02*
X89765003Y-56385204D01*
X27716710Y-63040633D02*
X27656234Y-63101110D01*
X27656234Y-63101110D02*
X27474805Y-63161586D01*
X27474805Y-63161586D02*
X27353853Y-63161586D01*
X27353853Y-63161586D02*
X27172424Y-63101110D01*
X27172424Y-63101110D02*
X27051472Y-62980157D01*
X27051472Y-62980157D02*
X26990995Y-62859205D01*
X26990995Y-62859205D02*
X26930519Y-62617300D01*
X26930519Y-62617300D02*
X26930519Y-62435871D01*
X26930519Y-62435871D02*
X26990995Y-62193967D01*
X26990995Y-62193967D02*
X27051472Y-62073014D01*
X27051472Y-62073014D02*
X27172424Y-61952062D01*
X27172424Y-61952062D02*
X27353853Y-61891586D01*
X27353853Y-61891586D02*
X27474805Y-61891586D01*
X27474805Y-61891586D02*
X27656234Y-61952062D01*
X27656234Y-61952062D02*
X27716710Y-62012538D01*
X28200519Y-62012538D02*
X28260995Y-61952062D01*
X28260995Y-61952062D02*
X28381948Y-61891586D01*
X28381948Y-61891586D02*
X28684329Y-61891586D01*
X28684329Y-61891586D02*
X28805281Y-61952062D01*
X28805281Y-61952062D02*
X28865757Y-62012538D01*
X28865757Y-62012538D02*
X28926234Y-62133490D01*
X28926234Y-62133490D02*
X28926234Y-62254443D01*
X28926234Y-62254443D02*
X28865757Y-62435871D01*
X28865757Y-62435871D02*
X28140043Y-63161586D01*
X28140043Y-63161586D02*
X28926234Y-63161586D01*
X75371670Y-67452347D02*
X74948336Y-66847585D01*
X74645955Y-67452347D02*
X74645955Y-66182347D01*
X74645955Y-66182347D02*
X75129765Y-66182347D01*
X75129765Y-66182347D02*
X75250717Y-66242823D01*
X75250717Y-66242823D02*
X75311194Y-66303299D01*
X75311194Y-66303299D02*
X75371670Y-66424251D01*
X75371670Y-66424251D02*
X75371670Y-66605680D01*
X75371670Y-66605680D02*
X75311194Y-66726632D01*
X75311194Y-66726632D02*
X75250717Y-66787109D01*
X75250717Y-66787109D02*
X75129765Y-66847585D01*
X75129765Y-66847585D02*
X74645955Y-66847585D01*
X76581194Y-67452347D02*
X75855479Y-67452347D01*
X76218336Y-67452347D02*
X76218336Y-66182347D01*
X76218336Y-66182347D02*
X76097384Y-66363775D01*
X76097384Y-66363775D02*
X75976432Y-66484728D01*
X75976432Y-66484728D02*
X75855479Y-66545204D01*
X77730241Y-66182347D02*
X77125479Y-66182347D01*
X77125479Y-66182347D02*
X77065003Y-66787109D01*
X77065003Y-66787109D02*
X77125479Y-66726632D01*
X77125479Y-66726632D02*
X77246432Y-66666156D01*
X77246432Y-66666156D02*
X77548813Y-66666156D01*
X77548813Y-66666156D02*
X77669765Y-66726632D01*
X77669765Y-66726632D02*
X77730241Y-66787109D01*
X77730241Y-66787109D02*
X77790718Y-66908061D01*
X77790718Y-66908061D02*
X77790718Y-67210442D01*
X77790718Y-67210442D02*
X77730241Y-67331394D01*
X77730241Y-67331394D02*
X77669765Y-67391871D01*
X77669765Y-67391871D02*
X77548813Y-67452347D01*
X77548813Y-67452347D02*
X77246432Y-67452347D01*
X77246432Y-67452347D02*
X77125479Y-67391871D01*
X77125479Y-67391871D02*
X77065003Y-67331394D01*
X60511670Y-47132347D02*
X60088336Y-46527585D01*
X59785955Y-47132347D02*
X59785955Y-45862347D01*
X59785955Y-45862347D02*
X60269765Y-45862347D01*
X60269765Y-45862347D02*
X60390717Y-45922823D01*
X60390717Y-45922823D02*
X60451194Y-45983299D01*
X60451194Y-45983299D02*
X60511670Y-46104251D01*
X60511670Y-46104251D02*
X60511670Y-46285680D01*
X60511670Y-46285680D02*
X60451194Y-46406632D01*
X60451194Y-46406632D02*
X60390717Y-46467109D01*
X60390717Y-46467109D02*
X60269765Y-46527585D01*
X60269765Y-46527585D02*
X59785955Y-46527585D01*
X61721194Y-47132347D02*
X60995479Y-47132347D01*
X61358336Y-47132347D02*
X61358336Y-45862347D01*
X61358336Y-45862347D02*
X61237384Y-46043775D01*
X61237384Y-46043775D02*
X61116432Y-46164728D01*
X61116432Y-46164728D02*
X60995479Y-46225204D01*
X62205003Y-45983299D02*
X62265479Y-45922823D01*
X62265479Y-45922823D02*
X62386432Y-45862347D01*
X62386432Y-45862347D02*
X62688813Y-45862347D01*
X62688813Y-45862347D02*
X62809765Y-45922823D01*
X62809765Y-45922823D02*
X62870241Y-45983299D01*
X62870241Y-45983299D02*
X62930718Y-46104251D01*
X62930718Y-46104251D02*
X62930718Y-46225204D01*
X62930718Y-46225204D02*
X62870241Y-46406632D01*
X62870241Y-46406632D02*
X62144527Y-47132347D01*
X62144527Y-47132347D02*
X62930718Y-47132347D01*
X29943809Y-20894318D02*
X29339047Y-20894318D01*
X29339047Y-20894318D02*
X29339047Y-19624318D01*
X30367142Y-20229080D02*
X30790476Y-20229080D01*
X30971904Y-20894318D02*
X30367142Y-20894318D01*
X30367142Y-20894318D02*
X30367142Y-19624318D01*
X30367142Y-19624318D02*
X30971904Y-19624318D01*
X31516190Y-20894318D02*
X31516190Y-19624318D01*
X31516190Y-19624318D02*
X31818571Y-19624318D01*
X31818571Y-19624318D02*
X32000000Y-19684794D01*
X32000000Y-19684794D02*
X32120952Y-19805746D01*
X32120952Y-19805746D02*
X32181429Y-19926699D01*
X32181429Y-19926699D02*
X32241905Y-20168603D01*
X32241905Y-20168603D02*
X32241905Y-20350032D01*
X32241905Y-20350032D02*
X32181429Y-20591937D01*
X32181429Y-20591937D02*
X32120952Y-20712889D01*
X32120952Y-20712889D02*
X32000000Y-20833842D01*
X32000000Y-20833842D02*
X31818571Y-20894318D01*
X31818571Y-20894318D02*
X31516190Y-20894318D01*
X32665238Y-19624318D02*
X33451429Y-19624318D01*
X33451429Y-19624318D02*
X33028095Y-20108127D01*
X33028095Y-20108127D02*
X33209524Y-20108127D01*
X33209524Y-20108127D02*
X33330476Y-20168603D01*
X33330476Y-20168603D02*
X33390952Y-20229080D01*
X33390952Y-20229080D02*
X33451429Y-20350032D01*
X33451429Y-20350032D02*
X33451429Y-20652413D01*
X33451429Y-20652413D02*
X33390952Y-20773365D01*
X33390952Y-20773365D02*
X33330476Y-20833842D01*
X33330476Y-20833842D02*
X33209524Y-20894318D01*
X33209524Y-20894318D02*
X32846667Y-20894318D01*
X32846667Y-20894318D02*
X32725714Y-20833842D01*
X32725714Y-20833842D02*
X32665238Y-20773365D01*
X77911670Y-54752347D02*
X77488336Y-54147585D01*
X77185955Y-54752347D02*
X77185955Y-53482347D01*
X77185955Y-53482347D02*
X77669765Y-53482347D01*
X77669765Y-53482347D02*
X77790717Y-53542823D01*
X77790717Y-53542823D02*
X77851194Y-53603299D01*
X77851194Y-53603299D02*
X77911670Y-53724251D01*
X77911670Y-53724251D02*
X77911670Y-53905680D01*
X77911670Y-53905680D02*
X77851194Y-54026632D01*
X77851194Y-54026632D02*
X77790717Y-54087109D01*
X77790717Y-54087109D02*
X77669765Y-54147585D01*
X77669765Y-54147585D02*
X77185955Y-54147585D01*
X79121194Y-54752347D02*
X78395479Y-54752347D01*
X78758336Y-54752347D02*
X78758336Y-53482347D01*
X78758336Y-53482347D02*
X78637384Y-53663775D01*
X78637384Y-53663775D02*
X78516432Y-53784728D01*
X78516432Y-53784728D02*
X78395479Y-53845204D01*
X79846908Y-54026632D02*
X79725956Y-53966156D01*
X79725956Y-53966156D02*
X79665479Y-53905680D01*
X79665479Y-53905680D02*
X79605003Y-53784728D01*
X79605003Y-53784728D02*
X79605003Y-53724251D01*
X79605003Y-53724251D02*
X79665479Y-53603299D01*
X79665479Y-53603299D02*
X79725956Y-53542823D01*
X79725956Y-53542823D02*
X79846908Y-53482347D01*
X79846908Y-53482347D02*
X80088813Y-53482347D01*
X80088813Y-53482347D02*
X80209765Y-53542823D01*
X80209765Y-53542823D02*
X80270241Y-53603299D01*
X80270241Y-53603299D02*
X80330718Y-53724251D01*
X80330718Y-53724251D02*
X80330718Y-53784728D01*
X80330718Y-53784728D02*
X80270241Y-53905680D01*
X80270241Y-53905680D02*
X80209765Y-53966156D01*
X80209765Y-53966156D02*
X80088813Y-54026632D01*
X80088813Y-54026632D02*
X79846908Y-54026632D01*
X79846908Y-54026632D02*
X79725956Y-54087109D01*
X79725956Y-54087109D02*
X79665479Y-54147585D01*
X79665479Y-54147585D02*
X79605003Y-54268537D01*
X79605003Y-54268537D02*
X79605003Y-54510442D01*
X79605003Y-54510442D02*
X79665479Y-54631394D01*
X79665479Y-54631394D02*
X79725956Y-54691871D01*
X79725956Y-54691871D02*
X79846908Y-54752347D01*
X79846908Y-54752347D02*
X80088813Y-54752347D01*
X80088813Y-54752347D02*
X80209765Y-54691871D01*
X80209765Y-54691871D02*
X80270241Y-54631394D01*
X80270241Y-54631394D02*
X80330718Y-54510442D01*
X80330718Y-54510442D02*
X80330718Y-54268537D01*
X80330718Y-54268537D02*
X80270241Y-54147585D01*
X80270241Y-54147585D02*
X80209765Y-54087109D01*
X80209765Y-54087109D02*
X80088813Y-54026632D01*
D12*
X40902095Y-63496819D02*
X41473523Y-63496819D01*
X41187809Y-64496819D02*
X41187809Y-63496819D01*
X41806857Y-64496819D02*
X41806857Y-63496819D01*
X41806857Y-63496819D02*
X42187809Y-63496819D01*
X42187809Y-63496819D02*
X42283047Y-63544438D01*
X42283047Y-63544438D02*
X42330666Y-63592057D01*
X42330666Y-63592057D02*
X42378285Y-63687295D01*
X42378285Y-63687295D02*
X42378285Y-63830152D01*
X42378285Y-63830152D02*
X42330666Y-63925390D01*
X42330666Y-63925390D02*
X42283047Y-63973009D01*
X42283047Y-63973009D02*
X42187809Y-64020628D01*
X42187809Y-64020628D02*
X41806857Y-64020628D01*
X43235428Y-63830152D02*
X43235428Y-64496819D01*
X42997333Y-63449200D02*
X42759238Y-64163485D01*
X42759238Y-64163485D02*
X43378285Y-64163485D01*
D11*
X39620708Y-56014536D02*
X39560232Y-56135488D01*
X39560232Y-56135488D02*
X39439280Y-56256441D01*
X39439280Y-56256441D02*
X39257851Y-56437869D01*
X39257851Y-56437869D02*
X39197375Y-56558822D01*
X39197375Y-56558822D02*
X39197375Y-56679774D01*
X39499756Y-56619298D02*
X39439280Y-56740250D01*
X39439280Y-56740250D02*
X39318327Y-56861203D01*
X39318327Y-56861203D02*
X39076422Y-56921679D01*
X39076422Y-56921679D02*
X38653089Y-56921679D01*
X38653089Y-56921679D02*
X38411184Y-56861203D01*
X38411184Y-56861203D02*
X38290232Y-56740250D01*
X38290232Y-56740250D02*
X38229756Y-56619298D01*
X38229756Y-56619298D02*
X38229756Y-56377393D01*
X38229756Y-56377393D02*
X38290232Y-56256441D01*
X38290232Y-56256441D02*
X38411184Y-56135488D01*
X38411184Y-56135488D02*
X38653089Y-56075012D01*
X38653089Y-56075012D02*
X39076422Y-56075012D01*
X39076422Y-56075012D02*
X39318327Y-56135488D01*
X39318327Y-56135488D02*
X39439280Y-56256441D01*
X39439280Y-56256441D02*
X39499756Y-56377393D01*
X39499756Y-56377393D02*
X39499756Y-56619298D01*
X39499756Y-54865488D02*
X39499756Y-55591203D01*
X39499756Y-55228346D02*
X38229756Y-55228346D01*
X38229756Y-55228346D02*
X38411184Y-55349298D01*
X38411184Y-55349298D02*
X38532137Y-55470250D01*
X38532137Y-55470250D02*
X38592613Y-55591203D01*
X51085686Y-54642614D02*
X51085686Y-53372614D01*
X51811401Y-54642614D02*
X51267115Y-53916899D01*
X51811401Y-53372614D02*
X51085686Y-54098328D01*
X53020925Y-54642614D02*
X52295210Y-54642614D01*
X52658067Y-54642614D02*
X52658067Y-53372614D01*
X52658067Y-53372614D02*
X52537115Y-53554042D01*
X52537115Y-53554042D02*
X52416163Y-53674995D01*
X52416163Y-53674995D02*
X52295210Y-53735471D01*
X30207857Y-47343755D02*
X30086904Y-47283279D01*
X30086904Y-47283279D02*
X29905476Y-47283279D01*
X29905476Y-47283279D02*
X29724047Y-47343755D01*
X29724047Y-47343755D02*
X29603095Y-47464707D01*
X29603095Y-47464707D02*
X29542618Y-47585660D01*
X29542618Y-47585660D02*
X29482142Y-47827564D01*
X29482142Y-47827564D02*
X29482142Y-48008993D01*
X29482142Y-48008993D02*
X29542618Y-48250898D01*
X29542618Y-48250898D02*
X29603095Y-48371850D01*
X29603095Y-48371850D02*
X29724047Y-48492803D01*
X29724047Y-48492803D02*
X29905476Y-48553279D01*
X29905476Y-48553279D02*
X30026428Y-48553279D01*
X30026428Y-48553279D02*
X30207857Y-48492803D01*
X30207857Y-48492803D02*
X30268333Y-48432326D01*
X30268333Y-48432326D02*
X30268333Y-48008993D01*
X30268333Y-48008993D02*
X30026428Y-48008993D01*
X31477857Y-48553279D02*
X30752142Y-48553279D01*
X31114999Y-48553279D02*
X31114999Y-47283279D01*
X31114999Y-47283279D02*
X30994047Y-47464707D01*
X30994047Y-47464707D02*
X30873095Y-47585660D01*
X30873095Y-47585660D02*
X30752142Y-47646136D01*
X82247857Y-63218755D02*
X82126904Y-63158279D01*
X82126904Y-63158279D02*
X81945476Y-63158279D01*
X81945476Y-63158279D02*
X81764047Y-63218755D01*
X81764047Y-63218755D02*
X81643095Y-63339707D01*
X81643095Y-63339707D02*
X81582618Y-63460660D01*
X81582618Y-63460660D02*
X81522142Y-63702564D01*
X81522142Y-63702564D02*
X81522142Y-63883993D01*
X81522142Y-63883993D02*
X81582618Y-64125898D01*
X81582618Y-64125898D02*
X81643095Y-64246850D01*
X81643095Y-64246850D02*
X81764047Y-64367803D01*
X81764047Y-64367803D02*
X81945476Y-64428279D01*
X81945476Y-64428279D02*
X82066428Y-64428279D01*
X82066428Y-64428279D02*
X82247857Y-64367803D01*
X82247857Y-64367803D02*
X82308333Y-64307326D01*
X82308333Y-64307326D02*
X82308333Y-63883993D01*
X82308333Y-63883993D02*
X82066428Y-63883993D01*
X83396904Y-63581612D02*
X83396904Y-64428279D01*
X83094523Y-63097803D02*
X82792142Y-64004945D01*
X82792142Y-64004945D02*
X83578333Y-64004945D01*
X35359956Y-39466097D02*
X35299480Y-39526574D01*
X35299480Y-39526574D02*
X35118051Y-39587050D01*
X35118051Y-39587050D02*
X34997099Y-39587050D01*
X34997099Y-39587050D02*
X34815670Y-39526574D01*
X34815670Y-39526574D02*
X34694718Y-39405621D01*
X34694718Y-39405621D02*
X34634241Y-39284669D01*
X34634241Y-39284669D02*
X34573765Y-39042764D01*
X34573765Y-39042764D02*
X34573765Y-38861335D01*
X34573765Y-38861335D02*
X34634241Y-38619431D01*
X34634241Y-38619431D02*
X34694718Y-38498478D01*
X34694718Y-38498478D02*
X34815670Y-38377526D01*
X34815670Y-38377526D02*
X34997099Y-38317050D01*
X34997099Y-38317050D02*
X35118051Y-38317050D01*
X35118051Y-38317050D02*
X35299480Y-38377526D01*
X35299480Y-38377526D02*
X35359956Y-38438002D01*
X35783289Y-38317050D02*
X36569480Y-38317050D01*
X36569480Y-38317050D02*
X36146146Y-38800859D01*
X36146146Y-38800859D02*
X36327575Y-38800859D01*
X36327575Y-38800859D02*
X36448527Y-38861335D01*
X36448527Y-38861335D02*
X36509003Y-38921812D01*
X36509003Y-38921812D02*
X36569480Y-39042764D01*
X36569480Y-39042764D02*
X36569480Y-39345145D01*
X36569480Y-39345145D02*
X36509003Y-39466097D01*
X36509003Y-39466097D02*
X36448527Y-39526574D01*
X36448527Y-39526574D02*
X36327575Y-39587050D01*
X36327575Y-39587050D02*
X35964718Y-39587050D01*
X35964718Y-39587050D02*
X35843765Y-39526574D01*
X35843765Y-39526574D02*
X35783289Y-39466097D01*
D12*
X89733333Y-34709580D02*
X89685714Y-34757200D01*
X89685714Y-34757200D02*
X89542857Y-34804819D01*
X89542857Y-34804819D02*
X89447619Y-34804819D01*
X89447619Y-34804819D02*
X89304762Y-34757200D01*
X89304762Y-34757200D02*
X89209524Y-34661961D01*
X89209524Y-34661961D02*
X89161905Y-34566723D01*
X89161905Y-34566723D02*
X89114286Y-34376247D01*
X89114286Y-34376247D02*
X89114286Y-34233390D01*
X89114286Y-34233390D02*
X89161905Y-34042914D01*
X89161905Y-34042914D02*
X89209524Y-33947676D01*
X89209524Y-33947676D02*
X89304762Y-33852438D01*
X89304762Y-33852438D02*
X89447619Y-33804819D01*
X89447619Y-33804819D02*
X89542857Y-33804819D01*
X89542857Y-33804819D02*
X89685714Y-33852438D01*
X89685714Y-33852438D02*
X89733333Y-33900057D01*
X90590476Y-34138152D02*
X90590476Y-34804819D01*
X90352381Y-33757200D02*
X90114286Y-34471485D01*
X90114286Y-34471485D02*
X90733333Y-34471485D01*
D11*
X68379956Y-29306097D02*
X68319480Y-29366574D01*
X68319480Y-29366574D02*
X68138051Y-29427050D01*
X68138051Y-29427050D02*
X68017099Y-29427050D01*
X68017099Y-29427050D02*
X67835670Y-29366574D01*
X67835670Y-29366574D02*
X67714718Y-29245621D01*
X67714718Y-29245621D02*
X67654241Y-29124669D01*
X67654241Y-29124669D02*
X67593765Y-28882764D01*
X67593765Y-28882764D02*
X67593765Y-28701335D01*
X67593765Y-28701335D02*
X67654241Y-28459431D01*
X67654241Y-28459431D02*
X67714718Y-28338478D01*
X67714718Y-28338478D02*
X67835670Y-28217526D01*
X67835670Y-28217526D02*
X68017099Y-28157050D01*
X68017099Y-28157050D02*
X68138051Y-28157050D01*
X68138051Y-28157050D02*
X68319480Y-28217526D01*
X68319480Y-28217526D02*
X68379956Y-28278002D01*
X69468527Y-28157050D02*
X69226622Y-28157050D01*
X69226622Y-28157050D02*
X69105670Y-28217526D01*
X69105670Y-28217526D02*
X69045194Y-28278002D01*
X69045194Y-28278002D02*
X68924241Y-28459431D01*
X68924241Y-28459431D02*
X68863765Y-28701335D01*
X68863765Y-28701335D02*
X68863765Y-29185145D01*
X68863765Y-29185145D02*
X68924241Y-29306097D01*
X68924241Y-29306097D02*
X68984718Y-29366574D01*
X68984718Y-29366574D02*
X69105670Y-29427050D01*
X69105670Y-29427050D02*
X69347575Y-29427050D01*
X69347575Y-29427050D02*
X69468527Y-29366574D01*
X69468527Y-29366574D02*
X69529003Y-29306097D01*
X69529003Y-29306097D02*
X69589480Y-29185145D01*
X69589480Y-29185145D02*
X69589480Y-28882764D01*
X69589480Y-28882764D02*
X69529003Y-28761812D01*
X69529003Y-28761812D02*
X69468527Y-28701335D01*
X69468527Y-28701335D02*
X69347575Y-28640859D01*
X69347575Y-28640859D02*
X69105670Y-28640859D01*
X69105670Y-28640859D02*
X68984718Y-28701335D01*
X68984718Y-28701335D02*
X68924241Y-28761812D01*
X68924241Y-28761812D02*
X68863765Y-28882764D01*
D12*
X70435333Y-15503866D02*
X70435333Y-16503866D01*
X70435333Y-16503866D02*
X70368666Y-16703866D01*
X70368666Y-16703866D02*
X70235333Y-16837200D01*
X70235333Y-16837200D02*
X70035333Y-16903866D01*
X70035333Y-16903866D02*
X69902000Y-16903866D01*
X71835333Y-16903866D02*
X71035333Y-16903866D01*
X71435333Y-16903866D02*
X71435333Y-15503866D01*
X71435333Y-15503866D02*
X71302000Y-15703866D01*
X71302000Y-15703866D02*
X71168667Y-15837200D01*
X71168667Y-15837200D02*
X71035333Y-15903866D01*
D11*
X67712332Y-50097065D02*
X67651856Y-50157542D01*
X67651856Y-50157542D02*
X67470427Y-50218018D01*
X67470427Y-50218018D02*
X67349475Y-50218018D01*
X67349475Y-50218018D02*
X67168046Y-50157542D01*
X67168046Y-50157542D02*
X67047094Y-50036589D01*
X67047094Y-50036589D02*
X66986617Y-49915637D01*
X66986617Y-49915637D02*
X66926141Y-49673732D01*
X66926141Y-49673732D02*
X66926141Y-49492303D01*
X66926141Y-49492303D02*
X66986617Y-49250399D01*
X66986617Y-49250399D02*
X67047094Y-49129446D01*
X67047094Y-49129446D02*
X67168046Y-49008494D01*
X67168046Y-49008494D02*
X67349475Y-48948018D01*
X67349475Y-48948018D02*
X67470427Y-48948018D01*
X67470427Y-48948018D02*
X67651856Y-49008494D01*
X67651856Y-49008494D02*
X67712332Y-49068970D01*
X68256617Y-50218018D02*
X68256617Y-48948018D01*
X68256617Y-48948018D02*
X68740427Y-48948018D01*
X68740427Y-48948018D02*
X68861379Y-49008494D01*
X68861379Y-49008494D02*
X68921856Y-49068970D01*
X68921856Y-49068970D02*
X68982332Y-49189922D01*
X68982332Y-49189922D02*
X68982332Y-49371351D01*
X68982332Y-49371351D02*
X68921856Y-49492303D01*
X68921856Y-49492303D02*
X68861379Y-49552780D01*
X68861379Y-49552780D02*
X68740427Y-49613256D01*
X68740427Y-49613256D02*
X68256617Y-49613256D01*
X70131379Y-48948018D02*
X69526617Y-48948018D01*
X69526617Y-48948018D02*
X69466141Y-49552780D01*
X69466141Y-49552780D02*
X69526617Y-49492303D01*
X69526617Y-49492303D02*
X69647570Y-49431827D01*
X69647570Y-49431827D02*
X69949951Y-49431827D01*
X69949951Y-49431827D02*
X70070903Y-49492303D01*
X70070903Y-49492303D02*
X70131379Y-49552780D01*
X70131379Y-49552780D02*
X70191856Y-49673732D01*
X70191856Y-49673732D02*
X70191856Y-49976113D01*
X70191856Y-49976113D02*
X70131379Y-50097065D01*
X70131379Y-50097065D02*
X70070903Y-50157542D01*
X70070903Y-50157542D02*
X69949951Y-50218018D01*
X69949951Y-50218018D02*
X69647570Y-50218018D01*
X69647570Y-50218018D02*
X69526617Y-50157542D01*
X69526617Y-50157542D02*
X69466141Y-50097065D01*
D12*
X44458095Y-40636819D02*
X45029523Y-40636819D01*
X44743809Y-41636819D02*
X44743809Y-40636819D01*
X45362857Y-41636819D02*
X45362857Y-40636819D01*
X45362857Y-40636819D02*
X45743809Y-40636819D01*
X45743809Y-40636819D02*
X45839047Y-40684438D01*
X45839047Y-40684438D02*
X45886666Y-40732057D01*
X45886666Y-40732057D02*
X45934285Y-40827295D01*
X45934285Y-40827295D02*
X45934285Y-40970152D01*
X45934285Y-40970152D02*
X45886666Y-41065390D01*
X45886666Y-41065390D02*
X45839047Y-41113009D01*
X45839047Y-41113009D02*
X45743809Y-41160628D01*
X45743809Y-41160628D02*
X45362857Y-41160628D01*
X46267619Y-40636819D02*
X46886666Y-40636819D01*
X46886666Y-40636819D02*
X46553333Y-41017771D01*
X46553333Y-41017771D02*
X46696190Y-41017771D01*
X46696190Y-41017771D02*
X46791428Y-41065390D01*
X46791428Y-41065390D02*
X46839047Y-41113009D01*
X46839047Y-41113009D02*
X46886666Y-41208247D01*
X46886666Y-41208247D02*
X46886666Y-41446342D01*
X46886666Y-41446342D02*
X46839047Y-41541580D01*
X46839047Y-41541580D02*
X46791428Y-41589200D01*
X46791428Y-41589200D02*
X46696190Y-41636819D01*
X46696190Y-41636819D02*
X46410476Y-41636819D01*
X46410476Y-41636819D02*
X46315238Y-41589200D01*
X46315238Y-41589200D02*
X46267619Y-41541580D01*
X64778095Y-66036819D02*
X65349523Y-66036819D01*
X65063809Y-67036819D02*
X65063809Y-66036819D01*
X65682857Y-67036819D02*
X65682857Y-66036819D01*
X65682857Y-66036819D02*
X66063809Y-66036819D01*
X66063809Y-66036819D02*
X66159047Y-66084438D01*
X66159047Y-66084438D02*
X66206666Y-66132057D01*
X66206666Y-66132057D02*
X66254285Y-66227295D01*
X66254285Y-66227295D02*
X66254285Y-66370152D01*
X66254285Y-66370152D02*
X66206666Y-66465390D01*
X66206666Y-66465390D02*
X66159047Y-66513009D01*
X66159047Y-66513009D02*
X66063809Y-66560628D01*
X66063809Y-66560628D02*
X65682857Y-66560628D01*
X66825714Y-66465390D02*
X66730476Y-66417771D01*
X66730476Y-66417771D02*
X66682857Y-66370152D01*
X66682857Y-66370152D02*
X66635238Y-66274914D01*
X66635238Y-66274914D02*
X66635238Y-66227295D01*
X66635238Y-66227295D02*
X66682857Y-66132057D01*
X66682857Y-66132057D02*
X66730476Y-66084438D01*
X66730476Y-66084438D02*
X66825714Y-66036819D01*
X66825714Y-66036819D02*
X67016190Y-66036819D01*
X67016190Y-66036819D02*
X67111428Y-66084438D01*
X67111428Y-66084438D02*
X67159047Y-66132057D01*
X67159047Y-66132057D02*
X67206666Y-66227295D01*
X67206666Y-66227295D02*
X67206666Y-66274914D01*
X67206666Y-66274914D02*
X67159047Y-66370152D01*
X67159047Y-66370152D02*
X67111428Y-66417771D01*
X67111428Y-66417771D02*
X67016190Y-66465390D01*
X67016190Y-66465390D02*
X66825714Y-66465390D01*
X66825714Y-66465390D02*
X66730476Y-66513009D01*
X66730476Y-66513009D02*
X66682857Y-66560628D01*
X66682857Y-66560628D02*
X66635238Y-66655866D01*
X66635238Y-66655866D02*
X66635238Y-66846342D01*
X66635238Y-66846342D02*
X66682857Y-66941580D01*
X66682857Y-66941580D02*
X66730476Y-66989200D01*
X66730476Y-66989200D02*
X66825714Y-67036819D01*
X66825714Y-67036819D02*
X67016190Y-67036819D01*
X67016190Y-67036819D02*
X67111428Y-66989200D01*
X67111428Y-66989200D02*
X67159047Y-66941580D01*
X67159047Y-66941580D02*
X67206666Y-66846342D01*
X67206666Y-66846342D02*
X67206666Y-66655866D01*
X67206666Y-66655866D02*
X67159047Y-66560628D01*
X67159047Y-66560628D02*
X67111428Y-66513009D01*
X67111428Y-66513009D02*
X67016190Y-66465390D01*
X67318095Y-33016819D02*
X67889523Y-33016819D01*
X67603809Y-34016819D02*
X67603809Y-33016819D01*
X68222857Y-34016819D02*
X68222857Y-33016819D01*
X68222857Y-33016819D02*
X68603809Y-33016819D01*
X68603809Y-33016819D02*
X68699047Y-33064438D01*
X68699047Y-33064438D02*
X68746666Y-33112057D01*
X68746666Y-33112057D02*
X68794285Y-33207295D01*
X68794285Y-33207295D02*
X68794285Y-33350152D01*
X68794285Y-33350152D02*
X68746666Y-33445390D01*
X68746666Y-33445390D02*
X68699047Y-33493009D01*
X68699047Y-33493009D02*
X68603809Y-33540628D01*
X68603809Y-33540628D02*
X68222857Y-33540628D01*
X69699047Y-33016819D02*
X69222857Y-33016819D01*
X69222857Y-33016819D02*
X69175238Y-33493009D01*
X69175238Y-33493009D02*
X69222857Y-33445390D01*
X69222857Y-33445390D02*
X69318095Y-33397771D01*
X69318095Y-33397771D02*
X69556190Y-33397771D01*
X69556190Y-33397771D02*
X69651428Y-33445390D01*
X69651428Y-33445390D02*
X69699047Y-33493009D01*
X69699047Y-33493009D02*
X69746666Y-33588247D01*
X69746666Y-33588247D02*
X69746666Y-33826342D01*
X69746666Y-33826342D02*
X69699047Y-33921580D01*
X69699047Y-33921580D02*
X69651428Y-33969200D01*
X69651428Y-33969200D02*
X69556190Y-34016819D01*
X69556190Y-34016819D02*
X69318095Y-34016819D01*
X69318095Y-34016819D02*
X69222857Y-33969200D01*
X69222857Y-33969200D02*
X69175238Y-33921580D01*
D11*
X78540234Y-45456289D02*
X78116900Y-44851527D01*
X77814519Y-45456289D02*
X77814519Y-44186289D01*
X77814519Y-44186289D02*
X78298329Y-44186289D01*
X78298329Y-44186289D02*
X78419281Y-44246765D01*
X78419281Y-44246765D02*
X78479758Y-44307241D01*
X78479758Y-44307241D02*
X78540234Y-44428193D01*
X78540234Y-44428193D02*
X78540234Y-44609622D01*
X78540234Y-44609622D02*
X78479758Y-44730574D01*
X78479758Y-44730574D02*
X78419281Y-44791051D01*
X78419281Y-44791051D02*
X78298329Y-44851527D01*
X78298329Y-44851527D02*
X77814519Y-44851527D01*
X79265948Y-44730574D02*
X79144996Y-44670098D01*
X79144996Y-44670098D02*
X79084519Y-44609622D01*
X79084519Y-44609622D02*
X79024043Y-44488670D01*
X79024043Y-44488670D02*
X79024043Y-44428193D01*
X79024043Y-44428193D02*
X79084519Y-44307241D01*
X79084519Y-44307241D02*
X79144996Y-44246765D01*
X79144996Y-44246765D02*
X79265948Y-44186289D01*
X79265948Y-44186289D02*
X79507853Y-44186289D01*
X79507853Y-44186289D02*
X79628805Y-44246765D01*
X79628805Y-44246765D02*
X79689281Y-44307241D01*
X79689281Y-44307241D02*
X79749758Y-44428193D01*
X79749758Y-44428193D02*
X79749758Y-44488670D01*
X79749758Y-44488670D02*
X79689281Y-44609622D01*
X79689281Y-44609622D02*
X79628805Y-44670098D01*
X79628805Y-44670098D02*
X79507853Y-44730574D01*
X79507853Y-44730574D02*
X79265948Y-44730574D01*
X79265948Y-44730574D02*
X79144996Y-44791051D01*
X79144996Y-44791051D02*
X79084519Y-44851527D01*
X79084519Y-44851527D02*
X79024043Y-44972479D01*
X79024043Y-44972479D02*
X79024043Y-45214384D01*
X79024043Y-45214384D02*
X79084519Y-45335336D01*
X79084519Y-45335336D02*
X79144996Y-45395813D01*
X79144996Y-45395813D02*
X79265948Y-45456289D01*
X79265948Y-45456289D02*
X79507853Y-45456289D01*
X79507853Y-45456289D02*
X79628805Y-45395813D01*
X79628805Y-45395813D02*
X79689281Y-45335336D01*
X79689281Y-45335336D02*
X79749758Y-45214384D01*
X79749758Y-45214384D02*
X79749758Y-44972479D01*
X79749758Y-44972479D02*
X79689281Y-44851527D01*
X79689281Y-44851527D02*
X79628805Y-44791051D01*
X79628805Y-44791051D02*
X79507853Y-44730574D01*
D12*
X49538095Y-33016819D02*
X50109523Y-33016819D01*
X49823809Y-34016819D02*
X49823809Y-33016819D01*
X50442857Y-34016819D02*
X50442857Y-33016819D01*
X50442857Y-33016819D02*
X50823809Y-33016819D01*
X50823809Y-33016819D02*
X50919047Y-33064438D01*
X50919047Y-33064438D02*
X50966666Y-33112057D01*
X50966666Y-33112057D02*
X51014285Y-33207295D01*
X51014285Y-33207295D02*
X51014285Y-33350152D01*
X51014285Y-33350152D02*
X50966666Y-33445390D01*
X50966666Y-33445390D02*
X50919047Y-33493009D01*
X50919047Y-33493009D02*
X50823809Y-33540628D01*
X50823809Y-33540628D02*
X50442857Y-33540628D01*
X51347619Y-33016819D02*
X52014285Y-33016819D01*
X52014285Y-33016819D02*
X51585714Y-34016819D01*
D11*
X25974318Y-42665951D02*
X25369556Y-43089285D01*
X25974318Y-43391666D02*
X24704318Y-43391666D01*
X24704318Y-43391666D02*
X24704318Y-42907856D01*
X24704318Y-42907856D02*
X24764794Y-42786904D01*
X24764794Y-42786904D02*
X24825270Y-42726427D01*
X24825270Y-42726427D02*
X24946222Y-42665951D01*
X24946222Y-42665951D02*
X25127651Y-42665951D01*
X25127651Y-42665951D02*
X25248603Y-42726427D01*
X25248603Y-42726427D02*
X25309080Y-42786904D01*
X25309080Y-42786904D02*
X25369556Y-42907856D01*
X25369556Y-42907856D02*
X25369556Y-43391666D01*
X24704318Y-42303094D02*
X25974318Y-41879761D01*
X25974318Y-41879761D02*
X24704318Y-41456427D01*
X25974318Y-40367856D02*
X25974318Y-41093571D01*
X25974318Y-40730714D02*
X24704318Y-40730714D01*
X24704318Y-40730714D02*
X24885746Y-40851666D01*
X24885746Y-40851666D02*
X25006699Y-40972618D01*
X25006699Y-40972618D02*
X25067175Y-41093571D01*
X34432347Y-48483567D02*
X33827585Y-48906901D01*
X34432347Y-49209282D02*
X33162347Y-49209282D01*
X33162347Y-49209282D02*
X33162347Y-48725472D01*
X33162347Y-48725472D02*
X33222823Y-48604520D01*
X33222823Y-48604520D02*
X33283299Y-48544043D01*
X33283299Y-48544043D02*
X33404251Y-48483567D01*
X33404251Y-48483567D02*
X33585680Y-48483567D01*
X33585680Y-48483567D02*
X33706632Y-48544043D01*
X33706632Y-48544043D02*
X33767109Y-48604520D01*
X33767109Y-48604520D02*
X33827585Y-48725472D01*
X33827585Y-48725472D02*
X33827585Y-49209282D01*
X33283299Y-47999758D02*
X33222823Y-47939282D01*
X33222823Y-47939282D02*
X33162347Y-47818329D01*
X33162347Y-47818329D02*
X33162347Y-47515948D01*
X33162347Y-47515948D02*
X33222823Y-47394996D01*
X33222823Y-47394996D02*
X33283299Y-47334520D01*
X33283299Y-47334520D02*
X33404251Y-47274043D01*
X33404251Y-47274043D02*
X33525204Y-47274043D01*
X33525204Y-47274043D02*
X33706632Y-47334520D01*
X33706632Y-47334520D02*
X34432347Y-48060234D01*
X34432347Y-48060234D02*
X34432347Y-47274043D01*
X67712332Y-57717065D02*
X67651856Y-57777542D01*
X67651856Y-57777542D02*
X67470427Y-57838018D01*
X67470427Y-57838018D02*
X67349475Y-57838018D01*
X67349475Y-57838018D02*
X67168046Y-57777542D01*
X67168046Y-57777542D02*
X67047094Y-57656589D01*
X67047094Y-57656589D02*
X66986617Y-57535637D01*
X66986617Y-57535637D02*
X66926141Y-57293732D01*
X66926141Y-57293732D02*
X66926141Y-57112303D01*
X66926141Y-57112303D02*
X66986617Y-56870399D01*
X66986617Y-56870399D02*
X67047094Y-56749446D01*
X67047094Y-56749446D02*
X67168046Y-56628494D01*
X67168046Y-56628494D02*
X67349475Y-56568018D01*
X67349475Y-56568018D02*
X67470427Y-56568018D01*
X67470427Y-56568018D02*
X67651856Y-56628494D01*
X67651856Y-56628494D02*
X67712332Y-56688970D01*
X68256617Y-57838018D02*
X68256617Y-56568018D01*
X68256617Y-56568018D02*
X68740427Y-56568018D01*
X68740427Y-56568018D02*
X68861379Y-56628494D01*
X68861379Y-56628494D02*
X68921856Y-56688970D01*
X68921856Y-56688970D02*
X68982332Y-56809922D01*
X68982332Y-56809922D02*
X68982332Y-56991351D01*
X68982332Y-56991351D02*
X68921856Y-57112303D01*
X68921856Y-57112303D02*
X68861379Y-57172780D01*
X68861379Y-57172780D02*
X68740427Y-57233256D01*
X68740427Y-57233256D02*
X68256617Y-57233256D01*
X70070903Y-56568018D02*
X69828998Y-56568018D01*
X69828998Y-56568018D02*
X69708046Y-56628494D01*
X69708046Y-56628494D02*
X69647570Y-56688970D01*
X69647570Y-56688970D02*
X69526617Y-56870399D01*
X69526617Y-56870399D02*
X69466141Y-57112303D01*
X69466141Y-57112303D02*
X69466141Y-57596113D01*
X69466141Y-57596113D02*
X69526617Y-57717065D01*
X69526617Y-57717065D02*
X69587094Y-57777542D01*
X69587094Y-57777542D02*
X69708046Y-57838018D01*
X69708046Y-57838018D02*
X69949951Y-57838018D01*
X69949951Y-57838018D02*
X70070903Y-57777542D01*
X70070903Y-57777542D02*
X70131379Y-57717065D01*
X70131379Y-57717065D02*
X70191856Y-57596113D01*
X70191856Y-57596113D02*
X70191856Y-57293732D01*
X70191856Y-57293732D02*
X70131379Y-57172780D01*
X70131379Y-57172780D02*
X70070903Y-57112303D01*
X70070903Y-57112303D02*
X69949951Y-57051827D01*
X69949951Y-57051827D02*
X69708046Y-57051827D01*
X69708046Y-57051827D02*
X69587094Y-57112303D01*
X69587094Y-57112303D02*
X69526617Y-57172780D01*
X69526617Y-57172780D02*
X69466141Y-57293732D01*
D12*
X77291666Y-25549819D02*
X77291666Y-26264104D01*
X77291666Y-26264104D02*
X77244047Y-26406961D01*
X77244047Y-26406961D02*
X77148809Y-26502200D01*
X77148809Y-26502200D02*
X77005952Y-26549819D01*
X77005952Y-26549819D02*
X76910714Y-26549819D01*
X77672619Y-25549819D02*
X78291666Y-25549819D01*
X78291666Y-25549819D02*
X77958333Y-25930771D01*
X77958333Y-25930771D02*
X78101190Y-25930771D01*
X78101190Y-25930771D02*
X78196428Y-25978390D01*
X78196428Y-25978390D02*
X78244047Y-26026009D01*
X78244047Y-26026009D02*
X78291666Y-26121247D01*
X78291666Y-26121247D02*
X78291666Y-26359342D01*
X78291666Y-26359342D02*
X78244047Y-26454580D01*
X78244047Y-26454580D02*
X78196428Y-26502200D01*
X78196428Y-26502200D02*
X78101190Y-26549819D01*
X78101190Y-26549819D02*
X77815476Y-26549819D01*
X77815476Y-26549819D02*
X77720238Y-26502200D01*
X77720238Y-26502200D02*
X77672619Y-26454580D01*
D11*
X59848686Y-55322614D02*
X59848686Y-54052614D01*
X60574401Y-55322614D02*
X60030115Y-54596899D01*
X60574401Y-54052614D02*
X59848686Y-54778328D01*
X61058210Y-54173566D02*
X61118686Y-54113090D01*
X61118686Y-54113090D02*
X61239639Y-54052614D01*
X61239639Y-54052614D02*
X61542020Y-54052614D01*
X61542020Y-54052614D02*
X61662972Y-54113090D01*
X61662972Y-54113090D02*
X61723448Y-54173566D01*
X61723448Y-54173566D02*
X61783925Y-54294518D01*
X61783925Y-54294518D02*
X61783925Y-54415471D01*
X61783925Y-54415471D02*
X61723448Y-54596899D01*
X61723448Y-54596899D02*
X60997734Y-55322614D01*
X60997734Y-55322614D02*
X61783925Y-55322614D01*
X40440234Y-53076289D02*
X40016900Y-52471527D01*
X39714519Y-53076289D02*
X39714519Y-51806289D01*
X39714519Y-51806289D02*
X40198329Y-51806289D01*
X40198329Y-51806289D02*
X40319281Y-51866765D01*
X40319281Y-51866765D02*
X40379758Y-51927241D01*
X40379758Y-51927241D02*
X40440234Y-52048193D01*
X40440234Y-52048193D02*
X40440234Y-52229622D01*
X40440234Y-52229622D02*
X40379758Y-52350574D01*
X40379758Y-52350574D02*
X40319281Y-52411051D01*
X40319281Y-52411051D02*
X40198329Y-52471527D01*
X40198329Y-52471527D02*
X39714519Y-52471527D01*
X40863567Y-51806289D02*
X41710234Y-51806289D01*
X41710234Y-51806289D02*
X41165948Y-53076289D01*
X60423809Y-20894318D02*
X59819047Y-20894318D01*
X59819047Y-20894318D02*
X59819047Y-19624318D01*
X60847142Y-20229080D02*
X61270476Y-20229080D01*
X61451904Y-20894318D02*
X60847142Y-20894318D01*
X60847142Y-20894318D02*
X60847142Y-19624318D01*
X60847142Y-19624318D02*
X61451904Y-19624318D01*
X61996190Y-20894318D02*
X61996190Y-19624318D01*
X61996190Y-19624318D02*
X62298571Y-19624318D01*
X62298571Y-19624318D02*
X62480000Y-19684794D01*
X62480000Y-19684794D02*
X62600952Y-19805746D01*
X62600952Y-19805746D02*
X62661429Y-19926699D01*
X62661429Y-19926699D02*
X62721905Y-20168603D01*
X62721905Y-20168603D02*
X62721905Y-20350032D01*
X62721905Y-20350032D02*
X62661429Y-20591937D01*
X62661429Y-20591937D02*
X62600952Y-20712889D01*
X62600952Y-20712889D02*
X62480000Y-20833842D01*
X62480000Y-20833842D02*
X62298571Y-20894318D01*
X62298571Y-20894318D02*
X61996190Y-20894318D01*
X63810476Y-20047651D02*
X63810476Y-20894318D01*
X63508095Y-19563842D02*
X63205714Y-20470984D01*
X63205714Y-20470984D02*
X63991905Y-20470984D01*
D10*
%TO.C,R5*%
X35052000Y-65724000D02*
X35052000Y-64324000D01*
%TO.C,G6*%
X38765000Y-28980000D02*
X39915000Y-28980000D01*
X40265000Y-29030000D02*
X41015000Y-29030000D01*
X40265000Y-31930000D02*
X40265000Y-29030000D01*
X41015000Y-29030000D02*
X41015000Y-31930000D01*
X41015000Y-31930000D02*
X40265000Y-31930000D01*
%TO.C,R14*%
X83820000Y-47560000D02*
X83820000Y-48960000D01*
D13*
%TO.C,TP1*%
X36760000Y-27940000D02*
G75*
G02*
X34360000Y-27940000I-1200000J0D01*
G01*
X34360000Y-27940000D02*
G75*
G02*
X36760000Y-27940000I1200000J0D01*
G01*
D10*
%TO.C,CP3*%
X22485000Y-54430000D02*
X23235000Y-54430000D01*
X22485000Y-57330000D02*
X22485000Y-54430000D01*
X23235000Y-54430000D02*
X23235000Y-57330000D01*
X23235000Y-57330000D02*
X22485000Y-57330000D01*
X24735000Y-57380000D02*
X23585000Y-57380000D01*
%TO.C,CP4*%
X73085000Y-36600000D02*
X74235000Y-36600000D01*
X74585000Y-36650000D02*
X75335000Y-36650000D01*
X74585000Y-39550000D02*
X74585000Y-36650000D01*
X75335000Y-36650000D02*
X75335000Y-39550000D01*
X75335000Y-39550000D02*
X74585000Y-39550000D01*
%TO.C,R3*%
X24384000Y-51116000D02*
X24384000Y-52516000D01*
%TO.C,CP2*%
X28605000Y-39140000D02*
X29755000Y-39140000D01*
X30105000Y-39190000D02*
X30855000Y-39190000D01*
X30105000Y-42090000D02*
X30105000Y-39190000D01*
X30855000Y-39190000D02*
X30855000Y-42090000D01*
X30855000Y-42090000D02*
X30105000Y-42090000D01*
%TO.C,G2*%
X33094000Y-60585000D02*
X35994000Y-60585000D01*
X33094000Y-61335000D02*
X33094000Y-60585000D01*
X35994000Y-60585000D02*
X35994000Y-61335000D01*
X35994000Y-61335000D02*
X33094000Y-61335000D01*
X36044000Y-59085000D02*
X36044000Y-60235000D01*
%TO.C,CP1*%
X28605000Y-26440000D02*
X29755000Y-26440000D01*
X30105000Y-26490000D02*
X30855000Y-26490000D01*
X30105000Y-29390000D02*
X30105000Y-26490000D01*
X30855000Y-26490000D02*
X30855000Y-29390000D01*
X30855000Y-29390000D02*
X30105000Y-29390000D01*
D13*
%TO.C,C1*%
X37994100Y-44988000D02*
X37994100Y-44420000D01*
X38034100Y-45222000D02*
X38034100Y-44186000D01*
X38074100Y-45381000D02*
X38074100Y-44027000D01*
X38114100Y-45509000D02*
X38114100Y-43899000D01*
X38154100Y-45619000D02*
X38154100Y-43789000D01*
X38194100Y-45715000D02*
X38194100Y-43693000D01*
X38234100Y-45802000D02*
X38234100Y-43606000D01*
X38274100Y-45882000D02*
X38274100Y-43526000D01*
X38314100Y-45955000D02*
X38314100Y-43453000D01*
X38354100Y-46023000D02*
X38354100Y-43385000D01*
X38394100Y-46087000D02*
X38394100Y-43321000D01*
X38434100Y-46147000D02*
X38434100Y-43261000D01*
X38474100Y-46204000D02*
X38474100Y-43204000D01*
X38514100Y-46258000D02*
X38514100Y-43150000D01*
X38554100Y-46309000D02*
X38554100Y-43099000D01*
X38594100Y-43664000D02*
X38594100Y-43051000D01*
X38594100Y-46357000D02*
X38594100Y-45744000D01*
X38634100Y-43664000D02*
X38634100Y-43005000D01*
X38634100Y-46403000D02*
X38634100Y-45744000D01*
X38674100Y-43664000D02*
X38674100Y-42961000D01*
X38674100Y-46447000D02*
X38674100Y-45744000D01*
X38714100Y-43664000D02*
X38714100Y-42919000D01*
X38714100Y-46489000D02*
X38714100Y-45744000D01*
X38754100Y-43664000D02*
X38754100Y-42878000D01*
X38754100Y-46530000D02*
X38754100Y-45744000D01*
X38794100Y-43664000D02*
X38794100Y-42840000D01*
X38794100Y-46568000D02*
X38794100Y-45744000D01*
X38834100Y-43664000D02*
X38834100Y-42803000D01*
X38834100Y-46605000D02*
X38834100Y-45744000D01*
X38874100Y-43664000D02*
X38874100Y-42767000D01*
X38874100Y-46641000D02*
X38874100Y-45744000D01*
X38914100Y-43664000D02*
X38914100Y-42733000D01*
X38914100Y-46675000D02*
X38914100Y-45744000D01*
X38954100Y-43664000D02*
X38954100Y-42700000D01*
X38954100Y-46708000D02*
X38954100Y-45744000D01*
X38994100Y-43664000D02*
X38994100Y-42669000D01*
X38994100Y-46739000D02*
X38994100Y-45744000D01*
X39034100Y-43664000D02*
X39034100Y-42639000D01*
X39034100Y-46769000D02*
X39034100Y-45744000D01*
X39074100Y-43664000D02*
X39074100Y-42609000D01*
X39074100Y-46799000D02*
X39074100Y-45744000D01*
X39114100Y-43664000D02*
X39114100Y-42582000D01*
X39114100Y-46826000D02*
X39114100Y-45744000D01*
X39154100Y-43664000D02*
X39154100Y-42555000D01*
X39154100Y-46853000D02*
X39154100Y-45744000D01*
X39194100Y-43664000D02*
X39194100Y-42529000D01*
X39194100Y-46879000D02*
X39194100Y-45744000D01*
X39234100Y-43664000D02*
X39234100Y-42504000D01*
X39234100Y-46904000D02*
X39234100Y-45744000D01*
X39274100Y-43664000D02*
X39274100Y-42480000D01*
X39274100Y-46928000D02*
X39274100Y-45744000D01*
X39314100Y-43664000D02*
X39314100Y-42457000D01*
X39314100Y-46951000D02*
X39314100Y-45744000D01*
X39354100Y-43664000D02*
X39354100Y-42436000D01*
X39354100Y-46972000D02*
X39354100Y-45744000D01*
X39394100Y-43664000D02*
X39394100Y-42414000D01*
X39394100Y-46994000D02*
X39394100Y-45744000D01*
X39434100Y-43664000D02*
X39434100Y-42394000D01*
X39434100Y-47014000D02*
X39434100Y-45744000D01*
X39474100Y-43664000D02*
X39474100Y-42375000D01*
X39474100Y-47033000D02*
X39474100Y-45744000D01*
X39514100Y-43664000D02*
X39514100Y-42356000D01*
X39514100Y-47052000D02*
X39514100Y-45744000D01*
X39554100Y-43664000D02*
X39554100Y-42339000D01*
X39554100Y-47069000D02*
X39554100Y-45744000D01*
X39594100Y-43664000D02*
X39594100Y-42322000D01*
X39594100Y-47086000D02*
X39594100Y-45744000D01*
X39634100Y-43664000D02*
X39634100Y-42306000D01*
X39634100Y-47102000D02*
X39634100Y-45744000D01*
X39674100Y-43664000D02*
X39674100Y-42290000D01*
X39674100Y-47118000D02*
X39674100Y-45744000D01*
X39714100Y-43664000D02*
X39714100Y-42276000D01*
X39714100Y-47132000D02*
X39714100Y-45744000D01*
X39754100Y-43664000D02*
X39754100Y-42262000D01*
X39754100Y-47146000D02*
X39754100Y-45744000D01*
X39794100Y-43664000D02*
X39794100Y-42249000D01*
X39794100Y-47159000D02*
X39794100Y-45744000D01*
X39834100Y-43664000D02*
X39834100Y-42236000D01*
X39834100Y-47172000D02*
X39834100Y-45744000D01*
X39874100Y-43664000D02*
X39874100Y-42224000D01*
X39874100Y-47184000D02*
X39874100Y-45744000D01*
X39915100Y-43664000D02*
X39915100Y-42213000D01*
X39915100Y-47195000D02*
X39915100Y-45744000D01*
X39955100Y-43664000D02*
X39955100Y-42203000D01*
X39955100Y-47205000D02*
X39955100Y-45744000D01*
X39995100Y-43664000D02*
X39995100Y-42193000D01*
X39995100Y-47215000D02*
X39995100Y-45744000D01*
X40035100Y-43664000D02*
X40035100Y-42184000D01*
X40035100Y-47224000D02*
X40035100Y-45744000D01*
X40075100Y-43664000D02*
X40075100Y-42176000D01*
X40075100Y-47232000D02*
X40075100Y-45744000D01*
X40115100Y-43664000D02*
X40115100Y-42168000D01*
X40115100Y-47240000D02*
X40115100Y-45744000D01*
X40155100Y-43664000D02*
X40155100Y-42161000D01*
X40155100Y-47247000D02*
X40155100Y-45744000D01*
X40195100Y-43664000D02*
X40195100Y-42154000D01*
X40195100Y-47254000D02*
X40195100Y-45744000D01*
X40235100Y-43664000D02*
X40235100Y-42148000D01*
X40235100Y-47260000D02*
X40235100Y-45744000D01*
X40275100Y-43664000D02*
X40275100Y-42143000D01*
X40275100Y-47265000D02*
X40275100Y-45744000D01*
X40315100Y-43664000D02*
X40315100Y-42139000D01*
X40315100Y-47269000D02*
X40315100Y-45744000D01*
X40355100Y-43664000D02*
X40355100Y-42135000D01*
X40355100Y-47273000D02*
X40355100Y-45744000D01*
X40395100Y-43664000D02*
X40395100Y-42131000D01*
X40395100Y-47277000D02*
X40395100Y-45744000D01*
X40435100Y-43664000D02*
X40435100Y-42128000D01*
X40435100Y-47280000D02*
X40435100Y-45744000D01*
X40475100Y-43664000D02*
X40475100Y-42126000D01*
X40475100Y-47282000D02*
X40475100Y-45744000D01*
X40515100Y-43664000D02*
X40515100Y-42125000D01*
X40515100Y-47283000D02*
X40515100Y-45744000D01*
X40555100Y-43664000D02*
X40555100Y-42124000D01*
X40555100Y-47284000D02*
X40555100Y-45744000D01*
X40595100Y-43664000D02*
X40595100Y-42124000D01*
X40595100Y-47284000D02*
X40595100Y-45744000D01*
X43149875Y-46429000D02*
X43149875Y-45929000D01*
X43399875Y-46179000D02*
X42899875Y-46179000D01*
X43215100Y-44704000D02*
G75*
G02*
X37975100Y-44704000I-2620000J0D01*
G01*
X37975100Y-44704000D02*
G75*
G02*
X43215100Y-44704000I2620000J0D01*
G01*
D10*
%TO.C,G3*%
X27335000Y-32790000D02*
X28485000Y-32790000D01*
X28835000Y-32840000D02*
X29585000Y-32840000D01*
X28835000Y-35740000D02*
X28835000Y-32840000D01*
X29585000Y-32840000D02*
X29585000Y-35740000D01*
X29585000Y-35740000D02*
X28835000Y-35740000D01*
%TO.C,LED2*%
X38640000Y-20320000D02*
X38640000Y-20320000D01*
X38640000Y-20320000D02*
X38640000Y-20320000D01*
X38740000Y-20320000D02*
X38740000Y-20320000D01*
D14*
X39445000Y-20320000D02*
X39445000Y-20320000D01*
X44375000Y-20320000D02*
X44375000Y-20320000D01*
D10*
X38640000Y-20320000D02*
G75*
G02*
X38740000Y-20320000I50000J0D01*
G01*
X38740000Y-20320000D02*
G75*
G02*
X38640000Y-20320000I-50000J0D01*
G01*
X38740000Y-20320000D02*
G75*
G02*
X38640000Y-20320000I-50000J0D01*
G01*
D14*
X39445000Y-20320000D02*
G75*
G02*
X44375000Y-20320000I2465000J0D01*
G01*
X44375000Y-20320000D02*
G75*
G02*
X39445000Y-20320000I-2465000J0D01*
G01*
D10*
%TO.C,R6*%
X35560000Y-34860000D02*
X35560000Y-36260000D01*
%TO.C,R10*%
X46420000Y-30480000D02*
X45020000Y-30480000D01*
D11*
%TO.C,U2*%
X51084500Y-25024000D02*
X51084500Y-32574000D01*
X51084500Y-32574000D02*
X62584500Y-32574000D01*
X62584500Y-25024000D02*
X51084500Y-25024000D01*
X62584500Y-32574000D02*
X62584500Y-25024000D01*
X60367500Y-24411000D02*
G75*
G02*
X60189500Y-24411000I-89000J0D01*
G01*
X60189500Y-24411000D02*
G75*
G02*
X60367500Y-24411000I89000J0D01*
G01*
D10*
%TO.C,G5*%
X38765000Y-36600000D02*
X39915000Y-36600000D01*
X40265000Y-36650000D02*
X41015000Y-36650000D01*
X40265000Y-39550000D02*
X40265000Y-36650000D01*
X41015000Y-36650000D02*
X41015000Y-39550000D01*
X41015000Y-39550000D02*
X40265000Y-39550000D01*
%TO.C,RV2*%
X19170000Y-25715000D02*
X19170000Y-35245000D01*
X19170000Y-35245000D02*
X24000000Y-35245000D01*
D14*
X22860000Y-35720000D02*
X22860000Y-35720000D01*
X22860000Y-35820000D02*
X22860000Y-35820000D01*
D10*
X24000000Y-25715000D02*
X19170000Y-25715000D01*
X24000000Y-35245000D02*
X24000000Y-25715000D01*
D14*
X22860000Y-35720000D02*
G75*
G02*
X22860000Y-35820000I0J-50000D01*
G01*
X22860000Y-35820000D02*
G75*
G02*
X22860000Y-35720000I0J50000D01*
G01*
D13*
%TO.C,C5*%
X59155225Y-36625000D02*
X59655225Y-36625000D01*
X59405225Y-36375000D02*
X59405225Y-36875000D01*
X61960000Y-35520000D02*
X61960000Y-37060000D01*
X61960000Y-39140000D02*
X61960000Y-40680000D01*
X62000000Y-35520000D02*
X62000000Y-37060000D01*
X62000000Y-39140000D02*
X62000000Y-40680000D01*
X62040000Y-35521000D02*
X62040000Y-37060000D01*
X62040000Y-39140000D02*
X62040000Y-40679000D01*
X62080000Y-35522000D02*
X62080000Y-37060000D01*
X62080000Y-39140000D02*
X62080000Y-40678000D01*
X62120000Y-35524000D02*
X62120000Y-37060000D01*
X62120000Y-39140000D02*
X62120000Y-40676000D01*
X62160000Y-35527000D02*
X62160000Y-37060000D01*
X62160000Y-39140000D02*
X62160000Y-40673000D01*
X62200000Y-35531000D02*
X62200000Y-37060000D01*
X62200000Y-39140000D02*
X62200000Y-40669000D01*
X62240000Y-35535000D02*
X62240000Y-37060000D01*
X62240000Y-39140000D02*
X62240000Y-40665000D01*
X62280000Y-35539000D02*
X62280000Y-37060000D01*
X62280000Y-39140000D02*
X62280000Y-40661000D01*
X62320000Y-35544000D02*
X62320000Y-37060000D01*
X62320000Y-39140000D02*
X62320000Y-40656000D01*
X62360000Y-35550000D02*
X62360000Y-37060000D01*
X62360000Y-39140000D02*
X62360000Y-40650000D01*
X62400000Y-35557000D02*
X62400000Y-37060000D01*
X62400000Y-39140000D02*
X62400000Y-40643000D01*
X62440000Y-35564000D02*
X62440000Y-37060000D01*
X62440000Y-39140000D02*
X62440000Y-40636000D01*
X62480000Y-35572000D02*
X62480000Y-37060000D01*
X62480000Y-39140000D02*
X62480000Y-40628000D01*
X62520000Y-35580000D02*
X62520000Y-37060000D01*
X62520000Y-39140000D02*
X62520000Y-40620000D01*
X62560000Y-35589000D02*
X62560000Y-37060000D01*
X62560000Y-39140000D02*
X62560000Y-40611000D01*
X62600000Y-35599000D02*
X62600000Y-37060000D01*
X62600000Y-39140000D02*
X62600000Y-40601000D01*
X62640000Y-35609000D02*
X62640000Y-37060000D01*
X62640000Y-39140000D02*
X62640000Y-40591000D01*
X62681000Y-35620000D02*
X62681000Y-37060000D01*
X62681000Y-39140000D02*
X62681000Y-40580000D01*
X62721000Y-35632000D02*
X62721000Y-37060000D01*
X62721000Y-39140000D02*
X62721000Y-40568000D01*
X62761000Y-35645000D02*
X62761000Y-37060000D01*
X62761000Y-39140000D02*
X62761000Y-40555000D01*
X62801000Y-35658000D02*
X62801000Y-37060000D01*
X62801000Y-39140000D02*
X62801000Y-40542000D01*
X62841000Y-35672000D02*
X62841000Y-37060000D01*
X62841000Y-39140000D02*
X62841000Y-40528000D01*
X62881000Y-35686000D02*
X62881000Y-37060000D01*
X62881000Y-39140000D02*
X62881000Y-40514000D01*
X62921000Y-35702000D02*
X62921000Y-37060000D01*
X62921000Y-39140000D02*
X62921000Y-40498000D01*
X62961000Y-35718000D02*
X62961000Y-37060000D01*
X62961000Y-39140000D02*
X62961000Y-40482000D01*
X63001000Y-35735000D02*
X63001000Y-37060000D01*
X63001000Y-39140000D02*
X63001000Y-40465000D01*
X63041000Y-35752000D02*
X63041000Y-37060000D01*
X63041000Y-39140000D02*
X63041000Y-40448000D01*
X63081000Y-35771000D02*
X63081000Y-37060000D01*
X63081000Y-39140000D02*
X63081000Y-40429000D01*
X63121000Y-35790000D02*
X63121000Y-37060000D01*
X63121000Y-39140000D02*
X63121000Y-40410000D01*
X63161000Y-35810000D02*
X63161000Y-37060000D01*
X63161000Y-39140000D02*
X63161000Y-40390000D01*
X63201000Y-35832000D02*
X63201000Y-37060000D01*
X63201000Y-39140000D02*
X63201000Y-40368000D01*
X63241000Y-35853000D02*
X63241000Y-37060000D01*
X63241000Y-39140000D02*
X63241000Y-40347000D01*
X63281000Y-35876000D02*
X63281000Y-37060000D01*
X63281000Y-39140000D02*
X63281000Y-40324000D01*
X63321000Y-35900000D02*
X63321000Y-37060000D01*
X63321000Y-39140000D02*
X63321000Y-40300000D01*
X63361000Y-35925000D02*
X63361000Y-37060000D01*
X63361000Y-39140000D02*
X63361000Y-40275000D01*
X63401000Y-35951000D02*
X63401000Y-37060000D01*
X63401000Y-39140000D02*
X63401000Y-40249000D01*
X63441000Y-35978000D02*
X63441000Y-37060000D01*
X63441000Y-39140000D02*
X63441000Y-40222000D01*
X63481000Y-36005000D02*
X63481000Y-37060000D01*
X63481000Y-39140000D02*
X63481000Y-40195000D01*
X63521000Y-36035000D02*
X63521000Y-37060000D01*
X63521000Y-39140000D02*
X63521000Y-40165000D01*
X63561000Y-36065000D02*
X63561000Y-37060000D01*
X63561000Y-39140000D02*
X63561000Y-40135000D01*
X63601000Y-36096000D02*
X63601000Y-37060000D01*
X63601000Y-39140000D02*
X63601000Y-40104000D01*
X63641000Y-36129000D02*
X63641000Y-37060000D01*
X63641000Y-39140000D02*
X63641000Y-40071000D01*
X63681000Y-36163000D02*
X63681000Y-37060000D01*
X63681000Y-39140000D02*
X63681000Y-40037000D01*
X63721000Y-36199000D02*
X63721000Y-37060000D01*
X63721000Y-39140000D02*
X63721000Y-40001000D01*
X63761000Y-36236000D02*
X63761000Y-37060000D01*
X63761000Y-39140000D02*
X63761000Y-39964000D01*
X63801000Y-36274000D02*
X63801000Y-37060000D01*
X63801000Y-39140000D02*
X63801000Y-39926000D01*
X63841000Y-36315000D02*
X63841000Y-37060000D01*
X63841000Y-39140000D02*
X63841000Y-39885000D01*
X63881000Y-36357000D02*
X63881000Y-37060000D01*
X63881000Y-39140000D02*
X63881000Y-39843000D01*
X63921000Y-36401000D02*
X63921000Y-37060000D01*
X63921000Y-39140000D02*
X63921000Y-39799000D01*
X63961000Y-36447000D02*
X63961000Y-37060000D01*
X63961000Y-39140000D02*
X63961000Y-39753000D01*
X64001000Y-36495000D02*
X64001000Y-39705000D01*
X64041000Y-36546000D02*
X64041000Y-39654000D01*
X64081000Y-36600000D02*
X64081000Y-39600000D01*
X64121000Y-36657000D02*
X64121000Y-39543000D01*
X64161000Y-36717000D02*
X64161000Y-39483000D01*
X64201000Y-36781000D02*
X64201000Y-39419000D01*
X64241000Y-36849000D02*
X64241000Y-39351000D01*
X64281000Y-36922000D02*
X64281000Y-39278000D01*
X64321000Y-37002000D02*
X64321000Y-39198000D01*
X64361000Y-37089000D02*
X64361000Y-39111000D01*
X64401000Y-37185000D02*
X64401000Y-39015000D01*
X64441000Y-37295000D02*
X64441000Y-38905000D01*
X64481000Y-37423000D02*
X64481000Y-38777000D01*
X64521000Y-37582000D02*
X64521000Y-38618000D01*
X64561000Y-37816000D02*
X64561000Y-38384000D01*
X64580000Y-38100000D02*
G75*
G02*
X59340000Y-38100000I-2620000J0D01*
G01*
X59340000Y-38100000D02*
G75*
G02*
X64580000Y-38100000I2620000J0D01*
G01*
D10*
%TO.C,LED1*%
X48800000Y-20320000D02*
X48800000Y-20320000D01*
X48800000Y-20320000D02*
X48800000Y-20320000D01*
X48900000Y-20320000D02*
X48900000Y-20320000D01*
D14*
X49605000Y-20320000D02*
X49605000Y-20320000D01*
X54535000Y-20320000D02*
X54535000Y-20320000D01*
D10*
X48800000Y-20320000D02*
G75*
G02*
X48900000Y-20320000I50000J0D01*
G01*
X48900000Y-20320000D02*
G75*
G02*
X48800000Y-20320000I-50000J0D01*
G01*
X48900000Y-20320000D02*
G75*
G02*
X48800000Y-20320000I-50000J0D01*
G01*
D14*
X49605000Y-20320000D02*
G75*
G02*
X54535000Y-20320000I2465000J0D01*
G01*
X54535000Y-20320000D02*
G75*
G02*
X49605000Y-20320000I-2465000J0D01*
G01*
D10*
%TO.C,R4*%
X29464000Y-56580000D02*
X29464000Y-55180000D01*
%TO.C,R17*%
X78740000Y-50100000D02*
X78740000Y-51500000D01*
D15*
%TO.C,J4*%
X82625000Y-27380000D02*
X87555000Y-27380000D01*
X82625000Y-33730000D02*
X82625000Y-27380000D01*
X87555000Y-27380000D02*
X87555000Y-33730000D01*
X87555000Y-33730000D02*
X82625000Y-33730000D01*
D10*
X81920000Y-30480000D02*
G75*
G02*
X81720000Y-30480000I-100000J0D01*
G01*
X81720000Y-30480000D02*
G75*
G02*
X81920000Y-30480000I100000J0D01*
G01*
%TO.C,G7*%
X76865000Y-59460000D02*
X78015000Y-59460000D01*
X78365000Y-59510000D02*
X79115000Y-59510000D01*
X78365000Y-62410000D02*
X78365000Y-59510000D01*
X79115000Y-59510000D02*
X79115000Y-62410000D01*
X79115000Y-62410000D02*
X78365000Y-62410000D01*
D15*
%TO.C,J2*%
X76529000Y-17728000D02*
X76529000Y-24078000D01*
X76529000Y-24078000D02*
X83999000Y-24078000D01*
X83999000Y-17728000D02*
X76529000Y-17728000D01*
X83999000Y-24078000D02*
X83999000Y-17728000D01*
D10*
X76064000Y-20728000D02*
G75*
G02*
X75864000Y-20728000I-100000J0D01*
G01*
X75864000Y-20728000D02*
G75*
G02*
X76064000Y-20728000I100000J0D01*
G01*
D13*
%TO.C,TP9*%
X85020000Y-55880000D02*
G75*
G02*
X82620000Y-55880000I-1200000J0D01*
G01*
X82620000Y-55880000D02*
G75*
G02*
X85020000Y-55880000I1200000J0D01*
G01*
D10*
%TO.C,R1*%
X34544000Y-55180000D02*
X34544000Y-56580000D01*
%TO.C,R16*%
X68580000Y-45655000D02*
X68580000Y-47055000D01*
%TO.C,R9*%
X83820000Y-41340000D02*
X83820000Y-39940000D01*
D13*
%TO.C,TP6*%
X46920000Y-38100000D02*
G75*
G02*
X44520000Y-38100000I-1200000J0D01*
G01*
X44520000Y-38100000D02*
G75*
G02*
X46920000Y-38100000I1200000J0D01*
G01*
D10*
%TO.C,R13*%
X73660000Y-45020000D02*
X73660000Y-46420000D01*
D13*
%TO.C,TP2*%
X31680000Y-45720000D02*
G75*
G02*
X29280000Y-45720000I-1200000J0D01*
G01*
X29280000Y-45720000D02*
G75*
G02*
X31680000Y-45720000I1200000J0D01*
G01*
D10*
%TO.C,R11*%
X88900000Y-57720000D02*
X88900000Y-59120000D01*
%TO.C,R15*%
X76200000Y-67880000D02*
X76200000Y-69280000D01*
%TO.C,R12*%
X61340000Y-47560000D02*
X61340000Y-48960000D01*
%TO.C,LED3*%
X28480000Y-20320000D02*
X28480000Y-20320000D01*
X28480000Y-20320000D02*
X28480000Y-20320000D01*
X28580000Y-20320000D02*
X28580000Y-20320000D01*
D14*
X29285000Y-20320000D02*
X29285000Y-20320000D01*
X34215000Y-20320000D02*
X34215000Y-20320000D01*
D10*
X28480000Y-20320000D02*
G75*
G02*
X28580000Y-20320000I50000J0D01*
G01*
X28580000Y-20320000D02*
G75*
G02*
X28480000Y-20320000I-50000J0D01*
G01*
X28580000Y-20320000D02*
G75*
G02*
X28480000Y-20320000I-50000J0D01*
G01*
D14*
X29285000Y-20320000D02*
G75*
G02*
X34215000Y-20320000I2465000J0D01*
G01*
X34215000Y-20320000D02*
G75*
G02*
X29285000Y-20320000I-2465000J0D01*
G01*
D10*
%TO.C,R18*%
X78740000Y-55180000D02*
X78740000Y-56580000D01*
D13*
%TO.C,TP4*%
X43364000Y-66040000D02*
G75*
G02*
X40964000Y-66040000I-1200000J0D01*
G01*
X40964000Y-66040000D02*
G75*
G02*
X43364000Y-66040000I1200000J0D01*
G01*
D10*
%TO.C,Q1*%
X40156000Y-57580000D02*
X40156000Y-56280000D01*
X40196000Y-55830000D02*
X43116000Y-55830000D01*
X40196000Y-55930000D02*
X40196000Y-55830000D01*
X43116000Y-55830000D02*
X43116000Y-55930000D01*
X43116000Y-55930000D02*
X40196000Y-55930000D01*
D14*
%TO.C,K1*%
X45974000Y-55245000D02*
X50546000Y-55245000D01*
X45974000Y-61595000D02*
X45974000Y-55245000D01*
X46060000Y-62820000D02*
X46060000Y-62820000D01*
X46160000Y-62820000D02*
X46160000Y-62820000D01*
X50546000Y-55245000D02*
X50546000Y-61595000D01*
X50546000Y-61595000D02*
X45974000Y-61595000D01*
X46060000Y-62820000D02*
G75*
G02*
X46160000Y-62820000I50000J0D01*
G01*
X46160000Y-62820000D02*
G75*
G02*
X46060000Y-62820000I-50000J0D01*
G01*
D10*
%TO.C,G1*%
X28605000Y-49300000D02*
X29755000Y-49300000D01*
X30105000Y-49350000D02*
X30855000Y-49350000D01*
X30105000Y-52250000D02*
X30105000Y-49350000D01*
X30855000Y-49350000D02*
X30855000Y-52250000D01*
X30855000Y-52250000D02*
X30105000Y-52250000D01*
%TO.C,G4*%
X80645000Y-65175000D02*
X81795000Y-65175000D01*
X82145000Y-65225000D02*
X82895000Y-65225000D01*
X82145000Y-68125000D02*
X82145000Y-65225000D01*
X82895000Y-65225000D02*
X82895000Y-68125000D01*
X82895000Y-68125000D02*
X82145000Y-68125000D01*
D13*
%TO.C,C4*%
X87095225Y-36625000D02*
X87595225Y-36625000D01*
X87345225Y-36375000D02*
X87345225Y-36875000D01*
X89900000Y-35520000D02*
X89900000Y-37060000D01*
X89900000Y-39140000D02*
X89900000Y-40680000D01*
X89940000Y-35520000D02*
X89940000Y-37060000D01*
X89940000Y-39140000D02*
X89940000Y-40680000D01*
X89980000Y-35521000D02*
X89980000Y-37060000D01*
X89980000Y-39140000D02*
X89980000Y-40679000D01*
X90020000Y-35522000D02*
X90020000Y-37060000D01*
X90020000Y-39140000D02*
X90020000Y-40678000D01*
X90060000Y-35524000D02*
X90060000Y-37060000D01*
X90060000Y-39140000D02*
X90060000Y-40676000D01*
X90100000Y-35527000D02*
X90100000Y-37060000D01*
X90100000Y-39140000D02*
X90100000Y-40673000D01*
X90140000Y-35531000D02*
X90140000Y-37060000D01*
X90140000Y-39140000D02*
X90140000Y-40669000D01*
X90180000Y-35535000D02*
X90180000Y-37060000D01*
X90180000Y-39140000D02*
X90180000Y-40665000D01*
X90220000Y-35539000D02*
X90220000Y-37060000D01*
X90220000Y-39140000D02*
X90220000Y-40661000D01*
X90260000Y-35544000D02*
X90260000Y-37060000D01*
X90260000Y-39140000D02*
X90260000Y-40656000D01*
X90300000Y-35550000D02*
X90300000Y-37060000D01*
X90300000Y-39140000D02*
X90300000Y-40650000D01*
X90340000Y-35557000D02*
X90340000Y-37060000D01*
X90340000Y-39140000D02*
X90340000Y-40643000D01*
X90380000Y-35564000D02*
X90380000Y-37060000D01*
X90380000Y-39140000D02*
X90380000Y-40636000D01*
X90420000Y-35572000D02*
X90420000Y-37060000D01*
X90420000Y-39140000D02*
X90420000Y-40628000D01*
X90460000Y-35580000D02*
X90460000Y-37060000D01*
X90460000Y-39140000D02*
X90460000Y-40620000D01*
X90500000Y-35589000D02*
X90500000Y-37060000D01*
X90500000Y-39140000D02*
X90500000Y-40611000D01*
X90540000Y-35599000D02*
X90540000Y-37060000D01*
X90540000Y-39140000D02*
X90540000Y-40601000D01*
X90580000Y-35609000D02*
X90580000Y-37060000D01*
X90580000Y-39140000D02*
X90580000Y-40591000D01*
X90621000Y-35620000D02*
X90621000Y-37060000D01*
X90621000Y-39140000D02*
X90621000Y-40580000D01*
X90661000Y-35632000D02*
X90661000Y-37060000D01*
X90661000Y-39140000D02*
X90661000Y-40568000D01*
X90701000Y-35645000D02*
X90701000Y-37060000D01*
X90701000Y-39140000D02*
X90701000Y-40555000D01*
X90741000Y-35658000D02*
X90741000Y-37060000D01*
X90741000Y-39140000D02*
X90741000Y-40542000D01*
X90781000Y-35672000D02*
X90781000Y-37060000D01*
X90781000Y-39140000D02*
X90781000Y-40528000D01*
X90821000Y-35686000D02*
X90821000Y-37060000D01*
X90821000Y-39140000D02*
X90821000Y-40514000D01*
X90861000Y-35702000D02*
X90861000Y-37060000D01*
X90861000Y-39140000D02*
X90861000Y-40498000D01*
X90901000Y-35718000D02*
X90901000Y-37060000D01*
X90901000Y-39140000D02*
X90901000Y-40482000D01*
X90941000Y-35735000D02*
X90941000Y-37060000D01*
X90941000Y-39140000D02*
X90941000Y-40465000D01*
X90981000Y-35752000D02*
X90981000Y-37060000D01*
X90981000Y-39140000D02*
X90981000Y-40448000D01*
X91021000Y-35771000D02*
X91021000Y-37060000D01*
X91021000Y-39140000D02*
X91021000Y-40429000D01*
X91061000Y-35790000D02*
X91061000Y-37060000D01*
X91061000Y-39140000D02*
X91061000Y-40410000D01*
X91101000Y-35810000D02*
X91101000Y-37060000D01*
X91101000Y-39140000D02*
X91101000Y-40390000D01*
X91141000Y-35832000D02*
X91141000Y-37060000D01*
X91141000Y-39140000D02*
X91141000Y-40368000D01*
X91181000Y-35853000D02*
X91181000Y-37060000D01*
X91181000Y-39140000D02*
X91181000Y-40347000D01*
X91221000Y-35876000D02*
X91221000Y-37060000D01*
X91221000Y-39140000D02*
X91221000Y-40324000D01*
X91261000Y-35900000D02*
X91261000Y-37060000D01*
X91261000Y-39140000D02*
X91261000Y-40300000D01*
X91301000Y-35925000D02*
X91301000Y-37060000D01*
X91301000Y-39140000D02*
X91301000Y-40275000D01*
X91341000Y-35951000D02*
X91341000Y-37060000D01*
X91341000Y-39140000D02*
X91341000Y-40249000D01*
X91381000Y-35978000D02*
X91381000Y-37060000D01*
X91381000Y-39140000D02*
X91381000Y-40222000D01*
X91421000Y-36005000D02*
X91421000Y-37060000D01*
X91421000Y-39140000D02*
X91421000Y-40195000D01*
X91461000Y-36035000D02*
X91461000Y-37060000D01*
X91461000Y-39140000D02*
X91461000Y-40165000D01*
X91501000Y-36065000D02*
X91501000Y-37060000D01*
X91501000Y-39140000D02*
X91501000Y-40135000D01*
X91541000Y-36096000D02*
X91541000Y-37060000D01*
X91541000Y-39140000D02*
X91541000Y-40104000D01*
X91581000Y-36129000D02*
X91581000Y-37060000D01*
X91581000Y-39140000D02*
X91581000Y-40071000D01*
X91621000Y-36163000D02*
X91621000Y-37060000D01*
X91621000Y-39140000D02*
X91621000Y-40037000D01*
X91661000Y-36199000D02*
X91661000Y-37060000D01*
X91661000Y-39140000D02*
X91661000Y-40001000D01*
X91701000Y-36236000D02*
X91701000Y-37060000D01*
X91701000Y-39140000D02*
X91701000Y-39964000D01*
X91741000Y-36274000D02*
X91741000Y-37060000D01*
X91741000Y-39140000D02*
X91741000Y-39926000D01*
X91781000Y-36315000D02*
X91781000Y-37060000D01*
X91781000Y-39140000D02*
X91781000Y-39885000D01*
X91821000Y-36357000D02*
X91821000Y-37060000D01*
X91821000Y-39140000D02*
X91821000Y-39843000D01*
X91861000Y-36401000D02*
X91861000Y-37060000D01*
X91861000Y-39140000D02*
X91861000Y-39799000D01*
X91901000Y-36447000D02*
X91901000Y-37060000D01*
X91901000Y-39140000D02*
X91901000Y-39753000D01*
X91941000Y-36495000D02*
X91941000Y-39705000D01*
X91981000Y-36546000D02*
X91981000Y-39654000D01*
X92021000Y-36600000D02*
X92021000Y-39600000D01*
X92061000Y-36657000D02*
X92061000Y-39543000D01*
X92101000Y-36717000D02*
X92101000Y-39483000D01*
X92141000Y-36781000D02*
X92141000Y-39419000D01*
X92181000Y-36849000D02*
X92181000Y-39351000D01*
X92221000Y-36922000D02*
X92221000Y-39278000D01*
X92261000Y-37002000D02*
X92261000Y-39198000D01*
X92301000Y-37089000D02*
X92301000Y-39111000D01*
X92341000Y-37185000D02*
X92341000Y-39015000D01*
X92381000Y-37295000D02*
X92381000Y-38905000D01*
X92421000Y-37423000D02*
X92421000Y-38777000D01*
X92461000Y-37582000D02*
X92461000Y-38618000D01*
X92501000Y-37816000D02*
X92501000Y-38384000D01*
X92520000Y-38100000D02*
G75*
G02*
X87280000Y-38100000I-2620000J0D01*
G01*
X87280000Y-38100000D02*
G75*
G02*
X92520000Y-38100000I2620000J0D01*
G01*
D15*
%TO.C,J1*%
X67122000Y-17653000D02*
X67122000Y-24003000D01*
X67122000Y-24003000D02*
X74592000Y-24003000D01*
X74592000Y-17653000D02*
X67122000Y-17653000D01*
X74592000Y-24003000D02*
X74592000Y-17653000D01*
D10*
X66657000Y-20653000D02*
G75*
G02*
X66457000Y-20653000I-100000J0D01*
G01*
X66457000Y-20653000D02*
G75*
G02*
X66657000Y-20653000I100000J0D01*
G01*
%TO.C,CP5*%
X65105000Y-50760000D02*
X66632000Y-50760000D01*
X66982000Y-50888000D02*
X70178000Y-50888000D01*
X66982000Y-55792000D02*
X66982000Y-50888000D01*
X70178000Y-50888000D02*
X70178000Y-55792000D01*
X70178000Y-55792000D02*
X66982000Y-55792000D01*
D13*
%TO.C,TP3*%
X46920000Y-43180000D02*
G75*
G02*
X44520000Y-43180000I-1200000J0D01*
G01*
X44520000Y-43180000D02*
G75*
G02*
X46920000Y-43180000I1200000J0D01*
G01*
%TO.C,TP8*%
X67240000Y-68580000D02*
G75*
G02*
X64840000Y-68580000I-1200000J0D01*
G01*
X64840000Y-68580000D02*
G75*
G02*
X67240000Y-68580000I1200000J0D01*
G01*
%TO.C,TP5*%
X69780000Y-35560000D02*
G75*
G02*
X67380000Y-35560000I-1200000J0D01*
G01*
X67380000Y-35560000D02*
G75*
G02*
X69780000Y-35560000I1200000J0D01*
G01*
D10*
%TO.C,R8*%
X78740000Y-43880000D02*
X78740000Y-42480000D01*
D13*
%TO.C,TP7*%
X52000000Y-35560000D02*
G75*
G02*
X49600000Y-35560000I-1200000J0D01*
G01*
X49600000Y-35560000D02*
G75*
G02*
X52000000Y-35560000I1200000J0D01*
G01*
D10*
%TO.C,RV1*%
X19170000Y-38415000D02*
X19170000Y-47945000D01*
X19170000Y-47945000D02*
X24000000Y-47945000D01*
D14*
X22860000Y-48420000D02*
X22860000Y-48420000D01*
X22860000Y-48520000D02*
X22860000Y-48520000D01*
D10*
X24000000Y-38415000D02*
X19170000Y-38415000D01*
X24000000Y-47945000D02*
X24000000Y-38415000D01*
D14*
X22860000Y-48420000D02*
G75*
G02*
X22860000Y-48520000I0J-50000D01*
G01*
X22860000Y-48520000D02*
G75*
G02*
X22860000Y-48420000I0J50000D01*
G01*
D10*
%TO.C,R2*%
X34860000Y-48260000D02*
X36260000Y-48260000D01*
%TO.C,CP6*%
X65105000Y-58380000D02*
X66632000Y-58380000D01*
X66982000Y-58508000D02*
X70178000Y-58508000D01*
X66982000Y-63412000D02*
X66982000Y-58508000D01*
X70178000Y-58508000D02*
X70178000Y-63412000D01*
X70178000Y-63412000D02*
X66982000Y-63412000D01*
D15*
%TO.C,J3*%
X75005000Y-27380000D02*
X79935000Y-27380000D01*
X75005000Y-33730000D02*
X75005000Y-27380000D01*
X79935000Y-27380000D02*
X79935000Y-33730000D01*
X79935000Y-33730000D02*
X75005000Y-33730000D01*
D10*
X74300000Y-30480000D02*
G75*
G02*
X74100000Y-30480000I-100000J0D01*
G01*
X74100000Y-30480000D02*
G75*
G02*
X74300000Y-30480000I100000J0D01*
G01*
D14*
%TO.C,K2*%
X54737000Y-55925000D02*
X59309000Y-55925000D01*
X54737000Y-62275000D02*
X54737000Y-55925000D01*
X54823000Y-63500000D02*
X54823000Y-63500000D01*
X54923000Y-63500000D02*
X54923000Y-63500000D01*
X59309000Y-55925000D02*
X59309000Y-62275000D01*
X59309000Y-62275000D02*
X54737000Y-62275000D01*
X54823000Y-63500000D02*
G75*
G02*
X54923000Y-63500000I50000J0D01*
G01*
X54923000Y-63500000D02*
G75*
G02*
X54823000Y-63500000I-50000J0D01*
G01*
D10*
%TO.C,R7*%
X40640000Y-51500000D02*
X40640000Y-50100000D01*
%TO.C,LED4*%
X58960000Y-20320000D02*
X58960000Y-20320000D01*
X58960000Y-20320000D02*
X58960000Y-20320000D01*
X59060000Y-20320000D02*
X59060000Y-20320000D01*
D14*
X59765000Y-20320000D02*
X59765000Y-20320000D01*
X64695000Y-20320000D02*
X64695000Y-20320000D01*
D10*
X58960000Y-20320000D02*
G75*
G02*
X59060000Y-20320000I50000J0D01*
G01*
X59060000Y-20320000D02*
G75*
G02*
X58960000Y-20320000I-50000J0D01*
G01*
X59060000Y-20320000D02*
G75*
G02*
X58960000Y-20320000I-50000J0D01*
G01*
D14*
X59765000Y-20320000D02*
G75*
G02*
X64695000Y-20320000I2465000J0D01*
G01*
X64695000Y-20320000D02*
G75*
G02*
X59765000Y-20320000I-2465000J0D01*
G01*
%TD*%
M02*
