G04 #@! TF.GenerationSoftware,KiCad,Pcbnew,8.0.2*
G04 #@! TF.CreationDate,2024-09-30T17:16:08+02:00*
G04 #@! TF.ProjectId,AMS Dongle,414d5320-446f-46e6-976c-652e6b696361,rev?*
G04 #@! TF.SameCoordinates,Original*
G04 #@! TF.FileFunction,Soldermask,Bot*
G04 #@! TF.FilePolarity,Negative*
%FSLAX46Y46*%
G04 Gerber Fmt 4.6, Leading zero omitted, Abs format (unit mm)*
G04 Created by KiCad (PCBNEW 8.0.2) date 2024-09-30 17:16:08*
%MOMM*%
%LPD*%
G01*
G04 APERTURE LIST*
%ADD10C,2.700000*%
%ADD11R,1.530000X1.530000*%
%ADD12C,1.530000*%
%ADD13C,0.520000*%
%ADD14C,0.770000*%
%ADD15C,1.560000*%
%ADD16C,1.800000*%
%ADD17R,1.700000X1.700000*%
%ADD18O,1.700000X1.700000*%
G04 APERTURE END LIST*
D10*
X161500000Y-47500000D03*
D11*
X111730000Y-94856500D03*
D12*
X114270000Y-94856500D03*
D11*
X111000000Y-71120000D03*
D12*
X111000000Y-68580000D03*
X111000000Y-66040000D03*
X111000000Y-63500000D03*
D10*
X103500000Y-96500000D03*
X103500000Y-47500000D03*
D13*
X144700000Y-95940000D03*
D14*
X152200000Y-95940000D03*
D15*
X146050000Y-93790000D03*
X150850000Y-93790000D03*
X146050000Y-98090000D03*
X150850000Y-98090000D03*
D11*
X133040000Y-92000000D03*
D12*
X130500000Y-92000000D03*
X127960000Y-92000000D03*
X125420000Y-92000000D03*
D16*
X152000000Y-87560000D03*
X146920000Y-87560000D03*
X159620000Y-67240000D03*
X149460000Y-67240000D03*
X139300000Y-67240000D03*
X139300000Y-87560000D03*
D11*
X108500000Y-54500000D03*
D12*
X108500000Y-57040000D03*
D10*
X161500000Y-96500000D03*
D17*
X108370000Y-48770000D03*
D18*
X108370000Y-46230000D03*
X110910000Y-48770000D03*
X110910000Y-46230000D03*
X113450000Y-48770000D03*
X113450000Y-46230000D03*
X115990000Y-48770000D03*
X115990000Y-46230000D03*
X118530000Y-48770000D03*
X118530000Y-46230000D03*
X121070000Y-48770000D03*
X121070000Y-46230000D03*
X123610000Y-48770000D03*
X123610000Y-46230000D03*
X126150000Y-48770000D03*
X126150000Y-46230000D03*
X128690000Y-48770000D03*
X128690000Y-46230000D03*
X131230000Y-48770000D03*
X131230000Y-46230000D03*
X133770000Y-48770000D03*
X133770000Y-46230000D03*
X136310000Y-48770000D03*
X136310000Y-46230000D03*
X138850000Y-48770000D03*
X138850000Y-46230000D03*
X141390000Y-48770000D03*
X141390000Y-46230000D03*
X143930000Y-48770000D03*
X143930000Y-46230000D03*
X146470000Y-48770000D03*
X146470000Y-46230000D03*
X149010000Y-48770000D03*
X149010000Y-46230000D03*
X151550000Y-48770000D03*
X151550000Y-46230000D03*
X154090000Y-48770000D03*
X154090000Y-46230000D03*
X156630000Y-48770000D03*
X156630000Y-46230000D03*
M02*
