%TF.GenerationSoftware,KiCad,Pcbnew,8.0.2*%
%TF.CreationDate,2024-09-03T17:08:05+02:00*%
%TF.ProjectId,AMS Dongle,414d5320-446f-46e6-976c-652e6b696361,rev?*%
%TF.SameCoordinates,Original*%
%TF.FileFunction,Drillmap*%
%TF.FilePolarity,Positive*%
%FSLAX45Y45*%
G04 Gerber Fmt 4.5, Leading zero omitted, Abs format (unit mm)*
G04 Created by KiCad (PCBNEW 8.0.2) date 2024-09-03 17:08:05*
%MOMM*%
%LPD*%
G01*
G04 APERTURE LIST*
%ADD10C,0.100000*%
%ADD11C,0.200000*%
%ADD12C,0.102000*%
%ADD13C,0.120000*%
G04 APERTURE END LIST*
D10*
X16200000Y-4400000D02*
G75*
G02*
X16500000Y-4700000I0J-300000D01*
G01*
X16500000Y-9700000D02*
X16500000Y-4700000D01*
X14425000Y-9700000D02*
X15305000Y-9700000D01*
X10000000Y-4700000D02*
X10000000Y-6300000D01*
X10000000Y-6300000D02*
X10000000Y-8100000D01*
X14387500Y-9737500D02*
G75*
G02*
X14425000Y-9700000I37500J0D01*
G01*
X14387500Y-9965000D02*
X14387500Y-9737500D01*
X10300000Y-10000000D02*
G75*
G02*
X10000000Y-9700000I0J300000D01*
G01*
X14387500Y-9965000D02*
G75*
G02*
X14352500Y-10000000I-35000J0D01*
G01*
X16050000Y-10000000D02*
X15592500Y-10000000D01*
X13650000Y-10000000D02*
X14137500Y-10000000D01*
X13650000Y-10000000D02*
X10550000Y-10000000D01*
X10300000Y-10000000D02*
X10550000Y-10000000D01*
X14352500Y-10000000D02*
X14137500Y-10000000D01*
X15592500Y-10000000D02*
X15377500Y-10000000D01*
X16050000Y-10000000D02*
X16200000Y-10000000D01*
X15342500Y-9965000D02*
X15342500Y-9737500D01*
X16500000Y-9700000D02*
G75*
G02*
X16200000Y-10000000I-300000J0D01*
G01*
X10000000Y-4700000D02*
G75*
G02*
X10300000Y-4400000I300000J0D01*
G01*
X15377500Y-10000000D02*
G75*
G02*
X15342500Y-9965000I0J35000D01*
G01*
X10000000Y-8100000D02*
X10000000Y-9700000D01*
X15305000Y-9700000D02*
G75*
G02*
X15342500Y-9737500I0J-37500D01*
G01*
X16200000Y-4400000D02*
X10300000Y-4400000D01*
D11*
D10*
X14428000Y-9455000D02*
X14478000Y-9505000D01*
X14478000Y-9455000D02*
X14428000Y-9505000D01*
X15252000Y-9455000D02*
X15302000Y-9505000D01*
X15302000Y-9455000D02*
X15252000Y-9505000D01*
X10330000Y-8850000D02*
G75*
G02*
X10270000Y-8850000I-30000J0D01*
G01*
X10270000Y-8850000D02*
G75*
G02*
X10330000Y-8850000I30000J0D01*
G01*
X10530000Y-8300000D02*
G75*
G02*
X10470000Y-8300000I-30000J0D01*
G01*
X10470000Y-8300000D02*
G75*
G02*
X10530000Y-8300000I30000J0D01*
G01*
X10530000Y-8750000D02*
G75*
G02*
X10470000Y-8750000I-30000J0D01*
G01*
X10470000Y-8750000D02*
G75*
G02*
X10530000Y-8750000I30000J0D01*
G01*
X10580000Y-9200000D02*
G75*
G02*
X10520000Y-9200000I-30000J0D01*
G01*
X10520000Y-9200000D02*
G75*
G02*
X10580000Y-9200000I30000J0D01*
G01*
X10980000Y-8300000D02*
G75*
G02*
X10920000Y-8300000I-30000J0D01*
G01*
X10920000Y-8300000D02*
G75*
G02*
X10980000Y-8300000I30000J0D01*
G01*
X11080000Y-9200000D02*
G75*
G02*
X11020000Y-9200000I-30000J0D01*
G01*
X11020000Y-9200000D02*
G75*
G02*
X11080000Y-9200000I30000J0D01*
G01*
X11130000Y-8050000D02*
G75*
G02*
X11070000Y-8050000I-30000J0D01*
G01*
X11070000Y-8050000D02*
G75*
G02*
X11130000Y-8050000I30000J0D01*
G01*
X11180000Y-9050000D02*
G75*
G02*
X11120000Y-9050000I-30000J0D01*
G01*
X11120000Y-9050000D02*
G75*
G02*
X11180000Y-9050000I30000J0D01*
G01*
X11230000Y-5200000D02*
G75*
G02*
X11170000Y-5200000I-30000J0D01*
G01*
X11170000Y-5200000D02*
G75*
G02*
X11230000Y-5200000I30000J0D01*
G01*
X11280000Y-8550000D02*
G75*
G02*
X11220000Y-8550000I-30000J0D01*
G01*
X11220000Y-8550000D02*
G75*
G02*
X11280000Y-8550000I30000J0D01*
G01*
X11330000Y-8350000D02*
G75*
G02*
X11270000Y-8350000I-30000J0D01*
G01*
X11270000Y-8350000D02*
G75*
G02*
X11330000Y-8350000I30000J0D01*
G01*
X11680000Y-7850000D02*
G75*
G02*
X11620000Y-7850000I-30000J0D01*
G01*
X11620000Y-7850000D02*
G75*
G02*
X11680000Y-7850000I30000J0D01*
G01*
X11730000Y-8250000D02*
G75*
G02*
X11670000Y-8250000I-30000J0D01*
G01*
X11670000Y-8250000D02*
G75*
G02*
X11730000Y-8250000I30000J0D01*
G01*
X11780000Y-7950000D02*
G75*
G02*
X11720000Y-7950000I-30000J0D01*
G01*
X11720000Y-7950000D02*
G75*
G02*
X11780000Y-7950000I30000J0D01*
G01*
X11780000Y-8100000D02*
G75*
G02*
X11720000Y-8100000I-30000J0D01*
G01*
X11720000Y-8100000D02*
G75*
G02*
X11780000Y-8100000I30000J0D01*
G01*
X12080000Y-8650000D02*
G75*
G02*
X12020000Y-8650000I-30000J0D01*
G01*
X12020000Y-8650000D02*
G75*
G02*
X12080000Y-8650000I30000J0D01*
G01*
X12280000Y-8450000D02*
G75*
G02*
X12220000Y-8450000I-30000J0D01*
G01*
X12220000Y-8450000D02*
G75*
G02*
X12280000Y-8450000I30000J0D01*
G01*
X12330000Y-8250000D02*
G75*
G02*
X12270000Y-8250000I-30000J0D01*
G01*
X12270000Y-8250000D02*
G75*
G02*
X12330000Y-8250000I30000J0D01*
G01*
X12426967Y-6303033D02*
G75*
G02*
X12366967Y-6303033I-30000J0D01*
G01*
X12366967Y-6303033D02*
G75*
G02*
X12426967Y-6303033I30000J0D01*
G01*
X12430000Y-6150000D02*
G75*
G02*
X12370000Y-6150000I-30000J0D01*
G01*
X12370000Y-6150000D02*
G75*
G02*
X12430000Y-6150000I30000J0D01*
G01*
X12430000Y-6650000D02*
G75*
G02*
X12370000Y-6650000I-30000J0D01*
G01*
X12370000Y-6650000D02*
G75*
G02*
X12430000Y-6650000I30000J0D01*
G01*
X12430000Y-8100000D02*
G75*
G02*
X12370000Y-8100000I-30000J0D01*
G01*
X12370000Y-8100000D02*
G75*
G02*
X12430000Y-8100000I30000J0D01*
G01*
X12480000Y-7000000D02*
G75*
G02*
X12420000Y-7000000I-30000J0D01*
G01*
X12420000Y-7000000D02*
G75*
G02*
X12480000Y-7000000I30000J0D01*
G01*
X12730000Y-7650000D02*
G75*
G02*
X12670000Y-7650000I-30000J0D01*
G01*
X12670000Y-7650000D02*
G75*
G02*
X12730000Y-7650000I30000J0D01*
G01*
X12930000Y-5950000D02*
G75*
G02*
X12870000Y-5950000I-30000J0D01*
G01*
X12870000Y-5950000D02*
G75*
G02*
X12930000Y-5950000I30000J0D01*
G01*
X12930000Y-8400000D02*
G75*
G02*
X12870000Y-8400000I-30000J0D01*
G01*
X12870000Y-8400000D02*
G75*
G02*
X12930000Y-8400000I30000J0D01*
G01*
X12980000Y-6650000D02*
G75*
G02*
X12920000Y-6650000I-30000J0D01*
G01*
X12920000Y-6650000D02*
G75*
G02*
X12980000Y-6650000I30000J0D01*
G01*
X13180000Y-6700000D02*
G75*
G02*
X13120000Y-6700000I-30000J0D01*
G01*
X13120000Y-6700000D02*
G75*
G02*
X13180000Y-6700000I30000J0D01*
G01*
X13580000Y-7150000D02*
G75*
G02*
X13520000Y-7150000I-30000J0D01*
G01*
X13520000Y-7150000D02*
G75*
G02*
X13580000Y-7150000I30000J0D01*
G01*
X13930000Y-5500000D02*
G75*
G02*
X13870000Y-5500000I-30000J0D01*
G01*
X13870000Y-5500000D02*
G75*
G02*
X13930000Y-5500000I30000J0D01*
G01*
X13930000Y-5645000D02*
G75*
G02*
X13870000Y-5645000I-30000J0D01*
G01*
X13870000Y-5645000D02*
G75*
G02*
X13930000Y-5645000I30000J0D01*
G01*
X13930000Y-5850000D02*
G75*
G02*
X13870000Y-5850000I-30000J0D01*
G01*
X13870000Y-5850000D02*
G75*
G02*
X13930000Y-5850000I30000J0D01*
G01*
X14188720Y-5795105D02*
G75*
G02*
X14128720Y-5795105I-30000J0D01*
G01*
X14128720Y-5795105D02*
G75*
G02*
X14188720Y-5795105I30000J0D01*
G01*
X14430000Y-5750000D02*
G75*
G02*
X14370000Y-5750000I-30000J0D01*
G01*
X14370000Y-5750000D02*
G75*
G02*
X14430000Y-5750000I30000J0D01*
G01*
X14580000Y-9300000D02*
G75*
G02*
X14520000Y-9300000I-30000J0D01*
G01*
X14520000Y-9300000D02*
G75*
G02*
X14580000Y-9300000I30000J0D01*
G01*
X14680000Y-6100000D02*
G75*
G02*
X14620000Y-6100000I-30000J0D01*
G01*
X14620000Y-6100000D02*
G75*
G02*
X14680000Y-6100000I30000J0D01*
G01*
X15230000Y-9300000D02*
G75*
G02*
X15170000Y-9300000I-30000J0D01*
G01*
X15170000Y-9300000D02*
G75*
G02*
X15230000Y-9300000I30000J0D01*
G01*
X15680000Y-6180000D02*
G75*
G02*
X15620000Y-6180000I-30000J0D01*
G01*
X15620000Y-6180000D02*
G75*
G02*
X15680000Y-6180000I30000J0D01*
G01*
X10837000Y-4573000D02*
X10837000Y-4673000D01*
X10787000Y-4623000D02*
X10887000Y-4623000D01*
X10837000Y-4827000D02*
X10837000Y-4927000D01*
X10787000Y-4877000D02*
X10887000Y-4877000D01*
X11091000Y-4573000D02*
X11091000Y-4673000D01*
X11041000Y-4623000D02*
X11141000Y-4623000D01*
X11091000Y-4827000D02*
X11091000Y-4927000D01*
X11041000Y-4877000D02*
X11141000Y-4877000D01*
X11345000Y-4573000D02*
X11345000Y-4673000D01*
X11295000Y-4623000D02*
X11395000Y-4623000D01*
X11345000Y-4827000D02*
X11345000Y-4927000D01*
X11295000Y-4877000D02*
X11395000Y-4877000D01*
X11599000Y-4573000D02*
X11599000Y-4673000D01*
X11549000Y-4623000D02*
X11649000Y-4623000D01*
X11599000Y-4827000D02*
X11599000Y-4927000D01*
X11549000Y-4877000D02*
X11649000Y-4877000D01*
X11853000Y-4573000D02*
X11853000Y-4673000D01*
X11803000Y-4623000D02*
X11903000Y-4623000D01*
X11853000Y-4827000D02*
X11853000Y-4927000D01*
X11803000Y-4877000D02*
X11903000Y-4877000D01*
X12107000Y-4573000D02*
X12107000Y-4673000D01*
X12057000Y-4623000D02*
X12157000Y-4623000D01*
X12107000Y-4827000D02*
X12107000Y-4927000D01*
X12057000Y-4877000D02*
X12157000Y-4877000D01*
X12361000Y-4573000D02*
X12361000Y-4673000D01*
X12311000Y-4623000D02*
X12411000Y-4623000D01*
X12361000Y-4827000D02*
X12361000Y-4927000D01*
X12311000Y-4877000D02*
X12411000Y-4877000D01*
X12615000Y-4573000D02*
X12615000Y-4673000D01*
X12565000Y-4623000D02*
X12665000Y-4623000D01*
X12615000Y-4827000D02*
X12615000Y-4927000D01*
X12565000Y-4877000D02*
X12665000Y-4877000D01*
X12869000Y-4573000D02*
X12869000Y-4673000D01*
X12819000Y-4623000D02*
X12919000Y-4623000D01*
X12869000Y-4827000D02*
X12869000Y-4927000D01*
X12819000Y-4877000D02*
X12919000Y-4877000D01*
X13123000Y-4573000D02*
X13123000Y-4673000D01*
X13073000Y-4623000D02*
X13173000Y-4623000D01*
X13123000Y-4827000D02*
X13123000Y-4927000D01*
X13073000Y-4877000D02*
X13173000Y-4877000D01*
X13377000Y-4573000D02*
X13377000Y-4673000D01*
X13327000Y-4623000D02*
X13427000Y-4623000D01*
X13377000Y-4827000D02*
X13377000Y-4927000D01*
X13327000Y-4877000D02*
X13427000Y-4877000D01*
X13631000Y-4573000D02*
X13631000Y-4673000D01*
X13581000Y-4623000D02*
X13681000Y-4623000D01*
X13631000Y-4827000D02*
X13631000Y-4927000D01*
X13581000Y-4877000D02*
X13681000Y-4877000D01*
X13885000Y-4573000D02*
X13885000Y-4673000D01*
X13835000Y-4623000D02*
X13935000Y-4623000D01*
X13885000Y-4827000D02*
X13885000Y-4927000D01*
X13835000Y-4877000D02*
X13935000Y-4877000D01*
X14139000Y-4573000D02*
X14139000Y-4673000D01*
X14089000Y-4623000D02*
X14189000Y-4623000D01*
X14139000Y-4827000D02*
X14139000Y-4927000D01*
X14089000Y-4877000D02*
X14189000Y-4877000D01*
X14393000Y-4573000D02*
X14393000Y-4673000D01*
X14343000Y-4623000D02*
X14443000Y-4623000D01*
X14393000Y-4827000D02*
X14393000Y-4927000D01*
X14343000Y-4877000D02*
X14443000Y-4877000D01*
X14647000Y-4573000D02*
X14647000Y-4673000D01*
X14597000Y-4623000D02*
X14697000Y-4623000D01*
X14647000Y-4827000D02*
X14647000Y-4927000D01*
X14597000Y-4877000D02*
X14697000Y-4877000D01*
X14901000Y-4573000D02*
X14901000Y-4673000D01*
X14851000Y-4623000D02*
X14951000Y-4623000D01*
X14901000Y-4827000D02*
X14901000Y-4927000D01*
X14851000Y-4877000D02*
X14951000Y-4877000D01*
X15155000Y-4573000D02*
X15155000Y-4673000D01*
X15105000Y-4623000D02*
X15205000Y-4623000D01*
X15155000Y-4827000D02*
X15155000Y-4927000D01*
X15105000Y-4877000D02*
X15205000Y-4877000D01*
X15409000Y-4573000D02*
X15409000Y-4673000D01*
X15359000Y-4623000D02*
X15459000Y-4623000D01*
X15409000Y-4827000D02*
X15409000Y-4927000D01*
X15359000Y-4877000D02*
X15459000Y-4877000D01*
X15663000Y-4573000D02*
X15663000Y-4673000D01*
X15613000Y-4623000D02*
X15713000Y-4623000D01*
X15663000Y-4827000D02*
X15663000Y-4927000D01*
X15613000Y-4877000D02*
X15713000Y-4877000D01*
D12*
X10886063Y-5486063D02*
X10886063Y-5413937D01*
X10813937Y-5413937D01*
X10813937Y-5486063D01*
X10886063Y-5486063D01*
X10886063Y-5740063D02*
X10886063Y-5667937D01*
X10813937Y-5667937D01*
X10813937Y-5740063D01*
X10886063Y-5740063D01*
X11136063Y-6386063D02*
X11136063Y-6313937D01*
X11063937Y-6313937D01*
X11063937Y-6386063D01*
X11136063Y-6386063D01*
X11136063Y-6640063D02*
X11136063Y-6567937D01*
X11063937Y-6567937D01*
X11063937Y-6640063D01*
X11136063Y-6640063D01*
X11136063Y-6894063D02*
X11136063Y-6821937D01*
X11063937Y-6821937D01*
X11063937Y-6894063D01*
X11136063Y-6894063D01*
X11136063Y-7148063D02*
X11136063Y-7075937D01*
X11063937Y-7075937D01*
X11063937Y-7148063D01*
X11136063Y-7148063D01*
X11209063Y-9521713D02*
X11209063Y-9449587D01*
X11136937Y-9449587D01*
X11136937Y-9521713D01*
X11209063Y-9521713D01*
X11463063Y-9521713D02*
X11463063Y-9449587D01*
X11390937Y-9449587D01*
X11390937Y-9521713D01*
X11463063Y-9521713D01*
X12578063Y-9236063D02*
X12578063Y-9163937D01*
X12505937Y-9163937D01*
X12505937Y-9236063D01*
X12578063Y-9236063D01*
X12832063Y-9236063D02*
X12832063Y-9163937D01*
X12759937Y-9163937D01*
X12759937Y-9236063D01*
X12832063Y-9236063D01*
X13086063Y-9236063D02*
X13086063Y-9163937D01*
X13013937Y-9163937D01*
X13013937Y-9236063D01*
X13086063Y-9236063D01*
X13340063Y-9236063D02*
X13340063Y-9163937D01*
X13267937Y-9163937D01*
X13267937Y-9236063D01*
X13340063Y-9236063D01*
D13*
X13930000Y-6784000D02*
X13990000Y-6724000D01*
X13930000Y-6664000D01*
X13870000Y-6724000D01*
X13930000Y-6784000D01*
X13930000Y-8816000D02*
X13990000Y-8756000D01*
X13930000Y-8696000D01*
X13870000Y-8756000D01*
X13930000Y-8816000D01*
X14300000Y-9570000D02*
X14360000Y-9510000D01*
X14300000Y-9450000D01*
X14240000Y-9510000D01*
X14300000Y-9570000D01*
X14300000Y-9970000D02*
X14360000Y-9910000D01*
X14300000Y-9850000D01*
X14240000Y-9910000D01*
X14300000Y-9970000D01*
X14692000Y-8816000D02*
X14752000Y-8756000D01*
X14692000Y-8696000D01*
X14632000Y-8756000D01*
X14692000Y-8816000D01*
X14946000Y-6784000D02*
X15006000Y-6724000D01*
X14946000Y-6664000D01*
X14886000Y-6724000D01*
X14946000Y-6784000D01*
X15200000Y-8816000D02*
X15260000Y-8756000D01*
X15200000Y-8696000D01*
X15140000Y-8756000D01*
X15200000Y-8816000D01*
X15430000Y-9570000D02*
X15490000Y-9510000D01*
X15430000Y-9450000D01*
X15370000Y-9510000D01*
X15430000Y-9570000D01*
X15430000Y-9970000D02*
X15490000Y-9910000D01*
X15430000Y-9850000D01*
X15370000Y-9910000D01*
X15430000Y-9970000D01*
X15962000Y-6784000D02*
X16022000Y-6724000D01*
X15962000Y-6664000D01*
X15902000Y-6724000D01*
X15962000Y-6784000D01*
D11*
X10255777Y-10316484D02*
X10255777Y-10116484D01*
X10255777Y-10116484D02*
X10303396Y-10116484D01*
X10303396Y-10116484D02*
X10331967Y-10126008D01*
X10331967Y-10126008D02*
X10351015Y-10145055D01*
X10351015Y-10145055D02*
X10360539Y-10164103D01*
X10360539Y-10164103D02*
X10370063Y-10202198D01*
X10370063Y-10202198D02*
X10370063Y-10230770D01*
X10370063Y-10230770D02*
X10360539Y-10268865D01*
X10360539Y-10268865D02*
X10351015Y-10287912D01*
X10351015Y-10287912D02*
X10331967Y-10306960D01*
X10331967Y-10306960D02*
X10303396Y-10316484D01*
X10303396Y-10316484D02*
X10255777Y-10316484D01*
X10455777Y-10316484D02*
X10455777Y-10183150D01*
X10455777Y-10221246D02*
X10465301Y-10202198D01*
X10465301Y-10202198D02*
X10474824Y-10192674D01*
X10474824Y-10192674D02*
X10493872Y-10183150D01*
X10493872Y-10183150D02*
X10512920Y-10183150D01*
X10579586Y-10316484D02*
X10579586Y-10183150D01*
X10579586Y-10116484D02*
X10570063Y-10126008D01*
X10570063Y-10126008D02*
X10579586Y-10135531D01*
X10579586Y-10135531D02*
X10589110Y-10126008D01*
X10589110Y-10126008D02*
X10579586Y-10116484D01*
X10579586Y-10116484D02*
X10579586Y-10135531D01*
X10703396Y-10316484D02*
X10684348Y-10306960D01*
X10684348Y-10306960D02*
X10674824Y-10287912D01*
X10674824Y-10287912D02*
X10674824Y-10116484D01*
X10808158Y-10316484D02*
X10789110Y-10306960D01*
X10789110Y-10306960D02*
X10779586Y-10287912D01*
X10779586Y-10287912D02*
X10779586Y-10116484D01*
X11036729Y-10316484D02*
X11036729Y-10116484D01*
X11036729Y-10116484D02*
X11103396Y-10259341D01*
X11103396Y-10259341D02*
X11170063Y-10116484D01*
X11170063Y-10116484D02*
X11170063Y-10316484D01*
X11351015Y-10316484D02*
X11351015Y-10211722D01*
X11351015Y-10211722D02*
X11341491Y-10192674D01*
X11341491Y-10192674D02*
X11322443Y-10183150D01*
X11322443Y-10183150D02*
X11284348Y-10183150D01*
X11284348Y-10183150D02*
X11265301Y-10192674D01*
X11351015Y-10306960D02*
X11331967Y-10316484D01*
X11331967Y-10316484D02*
X11284348Y-10316484D01*
X11284348Y-10316484D02*
X11265301Y-10306960D01*
X11265301Y-10306960D02*
X11255777Y-10287912D01*
X11255777Y-10287912D02*
X11255777Y-10268865D01*
X11255777Y-10268865D02*
X11265301Y-10249817D01*
X11265301Y-10249817D02*
X11284348Y-10240293D01*
X11284348Y-10240293D02*
X11331967Y-10240293D01*
X11331967Y-10240293D02*
X11351015Y-10230770D01*
X11446253Y-10183150D02*
X11446253Y-10383150D01*
X11446253Y-10192674D02*
X11465301Y-10183150D01*
X11465301Y-10183150D02*
X11503396Y-10183150D01*
X11503396Y-10183150D02*
X11522443Y-10192674D01*
X11522443Y-10192674D02*
X11531967Y-10202198D01*
X11531967Y-10202198D02*
X11541491Y-10221246D01*
X11541491Y-10221246D02*
X11541491Y-10278389D01*
X11541491Y-10278389D02*
X11531967Y-10297436D01*
X11531967Y-10297436D02*
X11522443Y-10306960D01*
X11522443Y-10306960D02*
X11503396Y-10316484D01*
X11503396Y-10316484D02*
X11465301Y-10316484D01*
X11465301Y-10316484D02*
X11446253Y-10306960D01*
X11627205Y-10297436D02*
X11636729Y-10306960D01*
X11636729Y-10306960D02*
X11627205Y-10316484D01*
X11627205Y-10316484D02*
X11617682Y-10306960D01*
X11617682Y-10306960D02*
X11627205Y-10297436D01*
X11627205Y-10297436D02*
X11627205Y-10316484D01*
X11627205Y-10192674D02*
X11636729Y-10202198D01*
X11636729Y-10202198D02*
X11627205Y-10211722D01*
X11627205Y-10211722D02*
X11617682Y-10202198D01*
X11617682Y-10202198D02*
X11627205Y-10192674D01*
X11627205Y-10192674D02*
X11627205Y-10211722D01*
D10*
X9945000Y-10620000D02*
X9995000Y-10670000D01*
X9995000Y-10620000D02*
X9945000Y-10670000D01*
D11*
X10293872Y-10536484D02*
X10312920Y-10536484D01*
X10312920Y-10536484D02*
X10331967Y-10546008D01*
X10331967Y-10546008D02*
X10341491Y-10555531D01*
X10341491Y-10555531D02*
X10351015Y-10574579D01*
X10351015Y-10574579D02*
X10360539Y-10612674D01*
X10360539Y-10612674D02*
X10360539Y-10660293D01*
X10360539Y-10660293D02*
X10351015Y-10698389D01*
X10351015Y-10698389D02*
X10341491Y-10717436D01*
X10341491Y-10717436D02*
X10331967Y-10726960D01*
X10331967Y-10726960D02*
X10312920Y-10736484D01*
X10312920Y-10736484D02*
X10293872Y-10736484D01*
X10293872Y-10736484D02*
X10274824Y-10726960D01*
X10274824Y-10726960D02*
X10265301Y-10717436D01*
X10265301Y-10717436D02*
X10255777Y-10698389D01*
X10255777Y-10698389D02*
X10246253Y-10660293D01*
X10246253Y-10660293D02*
X10246253Y-10612674D01*
X10246253Y-10612674D02*
X10255777Y-10574579D01*
X10255777Y-10574579D02*
X10265301Y-10555531D01*
X10265301Y-10555531D02*
X10274824Y-10546008D01*
X10274824Y-10546008D02*
X10293872Y-10536484D01*
X10446253Y-10717436D02*
X10455777Y-10726960D01*
X10455777Y-10726960D02*
X10446253Y-10736484D01*
X10446253Y-10736484D02*
X10436729Y-10726960D01*
X10436729Y-10726960D02*
X10446253Y-10717436D01*
X10446253Y-10717436D02*
X10446253Y-10736484D01*
X10636729Y-10536484D02*
X10541491Y-10536484D01*
X10541491Y-10536484D02*
X10531967Y-10631722D01*
X10531967Y-10631722D02*
X10541491Y-10622198D01*
X10541491Y-10622198D02*
X10560539Y-10612674D01*
X10560539Y-10612674D02*
X10608158Y-10612674D01*
X10608158Y-10612674D02*
X10627205Y-10622198D01*
X10627205Y-10622198D02*
X10636729Y-10631722D01*
X10636729Y-10631722D02*
X10646253Y-10650770D01*
X10646253Y-10650770D02*
X10646253Y-10698389D01*
X10646253Y-10698389D02*
X10636729Y-10717436D01*
X10636729Y-10717436D02*
X10627205Y-10726960D01*
X10627205Y-10726960D02*
X10608158Y-10736484D01*
X10608158Y-10736484D02*
X10560539Y-10736484D01*
X10560539Y-10736484D02*
X10541491Y-10726960D01*
X10541491Y-10726960D02*
X10531967Y-10717436D01*
X10770063Y-10536484D02*
X10789110Y-10536484D01*
X10789110Y-10536484D02*
X10808158Y-10546008D01*
X10808158Y-10546008D02*
X10817682Y-10555531D01*
X10817682Y-10555531D02*
X10827205Y-10574579D01*
X10827205Y-10574579D02*
X10836729Y-10612674D01*
X10836729Y-10612674D02*
X10836729Y-10660293D01*
X10836729Y-10660293D02*
X10827205Y-10698389D01*
X10827205Y-10698389D02*
X10817682Y-10717436D01*
X10817682Y-10717436D02*
X10808158Y-10726960D01*
X10808158Y-10726960D02*
X10789110Y-10736484D01*
X10789110Y-10736484D02*
X10770063Y-10736484D01*
X10770063Y-10736484D02*
X10751015Y-10726960D01*
X10751015Y-10726960D02*
X10741491Y-10717436D01*
X10741491Y-10717436D02*
X10731967Y-10698389D01*
X10731967Y-10698389D02*
X10722444Y-10660293D01*
X10722444Y-10660293D02*
X10722444Y-10612674D01*
X10722444Y-10612674D02*
X10731967Y-10574579D01*
X10731967Y-10574579D02*
X10741491Y-10555531D01*
X10741491Y-10555531D02*
X10751015Y-10546008D01*
X10751015Y-10546008D02*
X10770063Y-10536484D01*
X10960539Y-10536484D02*
X10979586Y-10536484D01*
X10979586Y-10536484D02*
X10998634Y-10546008D01*
X10998634Y-10546008D02*
X11008158Y-10555531D01*
X11008158Y-10555531D02*
X11017682Y-10574579D01*
X11017682Y-10574579D02*
X11027205Y-10612674D01*
X11027205Y-10612674D02*
X11027205Y-10660293D01*
X11027205Y-10660293D02*
X11017682Y-10698389D01*
X11017682Y-10698389D02*
X11008158Y-10717436D01*
X11008158Y-10717436D02*
X10998634Y-10726960D01*
X10998634Y-10726960D02*
X10979586Y-10736484D01*
X10979586Y-10736484D02*
X10960539Y-10736484D01*
X10960539Y-10736484D02*
X10941491Y-10726960D01*
X10941491Y-10726960D02*
X10931967Y-10717436D01*
X10931967Y-10717436D02*
X10922444Y-10698389D01*
X10922444Y-10698389D02*
X10912920Y-10660293D01*
X10912920Y-10660293D02*
X10912920Y-10612674D01*
X10912920Y-10612674D02*
X10922444Y-10574579D01*
X10922444Y-10574579D02*
X10931967Y-10555531D01*
X10931967Y-10555531D02*
X10941491Y-10546008D01*
X10941491Y-10546008D02*
X10960539Y-10536484D01*
X11112920Y-10736484D02*
X11112920Y-10603150D01*
X11112920Y-10622198D02*
X11122444Y-10612674D01*
X11122444Y-10612674D02*
X11141491Y-10603150D01*
X11141491Y-10603150D02*
X11170063Y-10603150D01*
X11170063Y-10603150D02*
X11189110Y-10612674D01*
X11189110Y-10612674D02*
X11198634Y-10631722D01*
X11198634Y-10631722D02*
X11198634Y-10736484D01*
X11198634Y-10631722D02*
X11208158Y-10612674D01*
X11208158Y-10612674D02*
X11227205Y-10603150D01*
X11227205Y-10603150D02*
X11255777Y-10603150D01*
X11255777Y-10603150D02*
X11274824Y-10612674D01*
X11274824Y-10612674D02*
X11284348Y-10631722D01*
X11284348Y-10631722D02*
X11284348Y-10736484D01*
X11379586Y-10736484D02*
X11379586Y-10603150D01*
X11379586Y-10622198D02*
X11389110Y-10612674D01*
X11389110Y-10612674D02*
X11408158Y-10603150D01*
X11408158Y-10603150D02*
X11436729Y-10603150D01*
X11436729Y-10603150D02*
X11455777Y-10612674D01*
X11455777Y-10612674D02*
X11465301Y-10631722D01*
X11465301Y-10631722D02*
X11465301Y-10736484D01*
X11465301Y-10631722D02*
X11474824Y-10612674D01*
X11474824Y-10612674D02*
X11493872Y-10603150D01*
X11493872Y-10603150D02*
X11522443Y-10603150D01*
X11522443Y-10603150D02*
X11541491Y-10612674D01*
X11541491Y-10612674D02*
X11551015Y-10631722D01*
X11551015Y-10631722D02*
X11551015Y-10736484D01*
X11941491Y-10526960D02*
X11770063Y-10784103D01*
X12198634Y-10536484D02*
X12217682Y-10536484D01*
X12217682Y-10536484D02*
X12236729Y-10546008D01*
X12236729Y-10546008D02*
X12246253Y-10555531D01*
X12246253Y-10555531D02*
X12255777Y-10574579D01*
X12255777Y-10574579D02*
X12265301Y-10612674D01*
X12265301Y-10612674D02*
X12265301Y-10660293D01*
X12265301Y-10660293D02*
X12255777Y-10698389D01*
X12255777Y-10698389D02*
X12246253Y-10717436D01*
X12246253Y-10717436D02*
X12236729Y-10726960D01*
X12236729Y-10726960D02*
X12217682Y-10736484D01*
X12217682Y-10736484D02*
X12198634Y-10736484D01*
X12198634Y-10736484D02*
X12179586Y-10726960D01*
X12179586Y-10726960D02*
X12170063Y-10717436D01*
X12170063Y-10717436D02*
X12160539Y-10698389D01*
X12160539Y-10698389D02*
X12151015Y-10660293D01*
X12151015Y-10660293D02*
X12151015Y-10612674D01*
X12151015Y-10612674D02*
X12160539Y-10574579D01*
X12160539Y-10574579D02*
X12170063Y-10555531D01*
X12170063Y-10555531D02*
X12179586Y-10546008D01*
X12179586Y-10546008D02*
X12198634Y-10536484D01*
X12351015Y-10717436D02*
X12360539Y-10726960D01*
X12360539Y-10726960D02*
X12351015Y-10736484D01*
X12351015Y-10736484D02*
X12341491Y-10726960D01*
X12341491Y-10726960D02*
X12351015Y-10717436D01*
X12351015Y-10717436D02*
X12351015Y-10736484D01*
X12484348Y-10536484D02*
X12503396Y-10536484D01*
X12503396Y-10536484D02*
X12522444Y-10546008D01*
X12522444Y-10546008D02*
X12531967Y-10555531D01*
X12531967Y-10555531D02*
X12541491Y-10574579D01*
X12541491Y-10574579D02*
X12551015Y-10612674D01*
X12551015Y-10612674D02*
X12551015Y-10660293D01*
X12551015Y-10660293D02*
X12541491Y-10698389D01*
X12541491Y-10698389D02*
X12531967Y-10717436D01*
X12531967Y-10717436D02*
X12522444Y-10726960D01*
X12522444Y-10726960D02*
X12503396Y-10736484D01*
X12503396Y-10736484D02*
X12484348Y-10736484D01*
X12484348Y-10736484D02*
X12465301Y-10726960D01*
X12465301Y-10726960D02*
X12455777Y-10717436D01*
X12455777Y-10717436D02*
X12446253Y-10698389D01*
X12446253Y-10698389D02*
X12436729Y-10660293D01*
X12436729Y-10660293D02*
X12436729Y-10612674D01*
X12436729Y-10612674D02*
X12446253Y-10574579D01*
X12446253Y-10574579D02*
X12455777Y-10555531D01*
X12455777Y-10555531D02*
X12465301Y-10546008D01*
X12465301Y-10546008D02*
X12484348Y-10536484D01*
X12741491Y-10736484D02*
X12627206Y-10736484D01*
X12684348Y-10736484D02*
X12684348Y-10536484D01*
X12684348Y-10536484D02*
X12665301Y-10565055D01*
X12665301Y-10565055D02*
X12646253Y-10584103D01*
X12646253Y-10584103D02*
X12627206Y-10593627D01*
X12836729Y-10736484D02*
X12874825Y-10736484D01*
X12874825Y-10736484D02*
X12893872Y-10726960D01*
X12893872Y-10726960D02*
X12903396Y-10717436D01*
X12903396Y-10717436D02*
X12922444Y-10688865D01*
X12922444Y-10688865D02*
X12931967Y-10650770D01*
X12931967Y-10650770D02*
X12931967Y-10574579D01*
X12931967Y-10574579D02*
X12922444Y-10555531D01*
X12922444Y-10555531D02*
X12912920Y-10546008D01*
X12912920Y-10546008D02*
X12893872Y-10536484D01*
X12893872Y-10536484D02*
X12855777Y-10536484D01*
X12855777Y-10536484D02*
X12836729Y-10546008D01*
X12836729Y-10546008D02*
X12827206Y-10555531D01*
X12827206Y-10555531D02*
X12817682Y-10574579D01*
X12817682Y-10574579D02*
X12817682Y-10622198D01*
X12817682Y-10622198D02*
X12827206Y-10641246D01*
X12827206Y-10641246D02*
X12836729Y-10650770D01*
X12836729Y-10650770D02*
X12855777Y-10660293D01*
X12855777Y-10660293D02*
X12893872Y-10660293D01*
X12893872Y-10660293D02*
X12912920Y-10650770D01*
X12912920Y-10650770D02*
X12922444Y-10641246D01*
X12922444Y-10641246D02*
X12931967Y-10622198D01*
X12998634Y-10536484D02*
X13131967Y-10536484D01*
X13131967Y-10536484D02*
X13046253Y-10736484D01*
X13198634Y-10536484D02*
X13198634Y-10574579D01*
X13274825Y-10536484D02*
X13274825Y-10574579D01*
X13570063Y-10812674D02*
X13560539Y-10803150D01*
X13560539Y-10803150D02*
X13541491Y-10774579D01*
X13541491Y-10774579D02*
X13531968Y-10755531D01*
X13531968Y-10755531D02*
X13522444Y-10726960D01*
X13522444Y-10726960D02*
X13512920Y-10679341D01*
X13512920Y-10679341D02*
X13512920Y-10641246D01*
X13512920Y-10641246D02*
X13522444Y-10593627D01*
X13522444Y-10593627D02*
X13531968Y-10565055D01*
X13531968Y-10565055D02*
X13541491Y-10546008D01*
X13541491Y-10546008D02*
X13560539Y-10517436D01*
X13560539Y-10517436D02*
X13570063Y-10507912D01*
X13636729Y-10555531D02*
X13646253Y-10546008D01*
X13646253Y-10546008D02*
X13665301Y-10536484D01*
X13665301Y-10536484D02*
X13712920Y-10536484D01*
X13712920Y-10536484D02*
X13731968Y-10546008D01*
X13731968Y-10546008D02*
X13741491Y-10555531D01*
X13741491Y-10555531D02*
X13751015Y-10574579D01*
X13751015Y-10574579D02*
X13751015Y-10593627D01*
X13751015Y-10593627D02*
X13741491Y-10622198D01*
X13741491Y-10622198D02*
X13627206Y-10736484D01*
X13627206Y-10736484D02*
X13751015Y-10736484D01*
X13989110Y-10736484D02*
X13989110Y-10536484D01*
X14074825Y-10736484D02*
X14074825Y-10631722D01*
X14074825Y-10631722D02*
X14065301Y-10612674D01*
X14065301Y-10612674D02*
X14046253Y-10603150D01*
X14046253Y-10603150D02*
X14017682Y-10603150D01*
X14017682Y-10603150D02*
X13998634Y-10612674D01*
X13998634Y-10612674D02*
X13989110Y-10622198D01*
X14198634Y-10736484D02*
X14179587Y-10726960D01*
X14179587Y-10726960D02*
X14170063Y-10717436D01*
X14170063Y-10717436D02*
X14160539Y-10698389D01*
X14160539Y-10698389D02*
X14160539Y-10641246D01*
X14160539Y-10641246D02*
X14170063Y-10622198D01*
X14170063Y-10622198D02*
X14179587Y-10612674D01*
X14179587Y-10612674D02*
X14198634Y-10603150D01*
X14198634Y-10603150D02*
X14227206Y-10603150D01*
X14227206Y-10603150D02*
X14246253Y-10612674D01*
X14246253Y-10612674D02*
X14255777Y-10622198D01*
X14255777Y-10622198D02*
X14265301Y-10641246D01*
X14265301Y-10641246D02*
X14265301Y-10698389D01*
X14265301Y-10698389D02*
X14255777Y-10717436D01*
X14255777Y-10717436D02*
X14246253Y-10726960D01*
X14246253Y-10726960D02*
X14227206Y-10736484D01*
X14227206Y-10736484D02*
X14198634Y-10736484D01*
X14379587Y-10736484D02*
X14360539Y-10726960D01*
X14360539Y-10726960D02*
X14351015Y-10707912D01*
X14351015Y-10707912D02*
X14351015Y-10536484D01*
X14531968Y-10726960D02*
X14512920Y-10736484D01*
X14512920Y-10736484D02*
X14474825Y-10736484D01*
X14474825Y-10736484D02*
X14455777Y-10726960D01*
X14455777Y-10726960D02*
X14446253Y-10707912D01*
X14446253Y-10707912D02*
X14446253Y-10631722D01*
X14446253Y-10631722D02*
X14455777Y-10612674D01*
X14455777Y-10612674D02*
X14474825Y-10603150D01*
X14474825Y-10603150D02*
X14512920Y-10603150D01*
X14512920Y-10603150D02*
X14531968Y-10612674D01*
X14531968Y-10612674D02*
X14541491Y-10631722D01*
X14541491Y-10631722D02*
X14541491Y-10650770D01*
X14541491Y-10650770D02*
X14446253Y-10669817D01*
X14617682Y-10726960D02*
X14636730Y-10736484D01*
X14636730Y-10736484D02*
X14674825Y-10736484D01*
X14674825Y-10736484D02*
X14693872Y-10726960D01*
X14693872Y-10726960D02*
X14703396Y-10707912D01*
X14703396Y-10707912D02*
X14703396Y-10698389D01*
X14703396Y-10698389D02*
X14693872Y-10679341D01*
X14693872Y-10679341D02*
X14674825Y-10669817D01*
X14674825Y-10669817D02*
X14646253Y-10669817D01*
X14646253Y-10669817D02*
X14627206Y-10660293D01*
X14627206Y-10660293D02*
X14617682Y-10641246D01*
X14617682Y-10641246D02*
X14617682Y-10631722D01*
X14617682Y-10631722D02*
X14627206Y-10612674D01*
X14627206Y-10612674D02*
X14646253Y-10603150D01*
X14646253Y-10603150D02*
X14674825Y-10603150D01*
X14674825Y-10603150D02*
X14693872Y-10612674D01*
X14770063Y-10812674D02*
X14779587Y-10803150D01*
X14779587Y-10803150D02*
X14798634Y-10774579D01*
X14798634Y-10774579D02*
X14808158Y-10755531D01*
X14808158Y-10755531D02*
X14817682Y-10726960D01*
X14817682Y-10726960D02*
X14827206Y-10679341D01*
X14827206Y-10679341D02*
X14827206Y-10641246D01*
X14827206Y-10641246D02*
X14817682Y-10593627D01*
X14817682Y-10593627D02*
X14808158Y-10565055D01*
X14808158Y-10565055D02*
X14798634Y-10546008D01*
X14798634Y-10546008D02*
X14779587Y-10517436D01*
X14779587Y-10517436D02*
X14770063Y-10507912D01*
D10*
X9995000Y-10909000D02*
G75*
G02*
X9935000Y-10909000I-30000J0D01*
G01*
X9935000Y-10909000D02*
G75*
G02*
X9995000Y-10909000I30000J0D01*
G01*
D11*
X10293872Y-10800484D02*
X10312920Y-10800484D01*
X10312920Y-10800484D02*
X10331967Y-10810008D01*
X10331967Y-10810008D02*
X10341491Y-10819531D01*
X10341491Y-10819531D02*
X10351015Y-10838579D01*
X10351015Y-10838579D02*
X10360539Y-10876674D01*
X10360539Y-10876674D02*
X10360539Y-10924293D01*
X10360539Y-10924293D02*
X10351015Y-10962389D01*
X10351015Y-10962389D02*
X10341491Y-10981436D01*
X10341491Y-10981436D02*
X10331967Y-10990960D01*
X10331967Y-10990960D02*
X10312920Y-11000484D01*
X10312920Y-11000484D02*
X10293872Y-11000484D01*
X10293872Y-11000484D02*
X10274824Y-10990960D01*
X10274824Y-10990960D02*
X10265301Y-10981436D01*
X10265301Y-10981436D02*
X10255777Y-10962389D01*
X10255777Y-10962389D02*
X10246253Y-10924293D01*
X10246253Y-10924293D02*
X10246253Y-10876674D01*
X10246253Y-10876674D02*
X10255777Y-10838579D01*
X10255777Y-10838579D02*
X10265301Y-10819531D01*
X10265301Y-10819531D02*
X10274824Y-10810008D01*
X10274824Y-10810008D02*
X10293872Y-10800484D01*
X10446253Y-10981436D02*
X10455777Y-10990960D01*
X10455777Y-10990960D02*
X10446253Y-11000484D01*
X10446253Y-11000484D02*
X10436729Y-10990960D01*
X10436729Y-10990960D02*
X10446253Y-10981436D01*
X10446253Y-10981436D02*
X10446253Y-11000484D01*
X10627205Y-10800484D02*
X10589110Y-10800484D01*
X10589110Y-10800484D02*
X10570063Y-10810008D01*
X10570063Y-10810008D02*
X10560539Y-10819531D01*
X10560539Y-10819531D02*
X10541491Y-10848103D01*
X10541491Y-10848103D02*
X10531967Y-10886198D01*
X10531967Y-10886198D02*
X10531967Y-10962389D01*
X10531967Y-10962389D02*
X10541491Y-10981436D01*
X10541491Y-10981436D02*
X10551015Y-10990960D01*
X10551015Y-10990960D02*
X10570063Y-11000484D01*
X10570063Y-11000484D02*
X10608158Y-11000484D01*
X10608158Y-11000484D02*
X10627205Y-10990960D01*
X10627205Y-10990960D02*
X10636729Y-10981436D01*
X10636729Y-10981436D02*
X10646253Y-10962389D01*
X10646253Y-10962389D02*
X10646253Y-10914770D01*
X10646253Y-10914770D02*
X10636729Y-10895722D01*
X10636729Y-10895722D02*
X10627205Y-10886198D01*
X10627205Y-10886198D02*
X10608158Y-10876674D01*
X10608158Y-10876674D02*
X10570063Y-10876674D01*
X10570063Y-10876674D02*
X10551015Y-10886198D01*
X10551015Y-10886198D02*
X10541491Y-10895722D01*
X10541491Y-10895722D02*
X10531967Y-10914770D01*
X10770063Y-10800484D02*
X10789110Y-10800484D01*
X10789110Y-10800484D02*
X10808158Y-10810008D01*
X10808158Y-10810008D02*
X10817682Y-10819531D01*
X10817682Y-10819531D02*
X10827205Y-10838579D01*
X10827205Y-10838579D02*
X10836729Y-10876674D01*
X10836729Y-10876674D02*
X10836729Y-10924293D01*
X10836729Y-10924293D02*
X10827205Y-10962389D01*
X10827205Y-10962389D02*
X10817682Y-10981436D01*
X10817682Y-10981436D02*
X10808158Y-10990960D01*
X10808158Y-10990960D02*
X10789110Y-11000484D01*
X10789110Y-11000484D02*
X10770063Y-11000484D01*
X10770063Y-11000484D02*
X10751015Y-10990960D01*
X10751015Y-10990960D02*
X10741491Y-10981436D01*
X10741491Y-10981436D02*
X10731967Y-10962389D01*
X10731967Y-10962389D02*
X10722444Y-10924293D01*
X10722444Y-10924293D02*
X10722444Y-10876674D01*
X10722444Y-10876674D02*
X10731967Y-10838579D01*
X10731967Y-10838579D02*
X10741491Y-10819531D01*
X10741491Y-10819531D02*
X10751015Y-10810008D01*
X10751015Y-10810008D02*
X10770063Y-10800484D01*
X10960539Y-10800484D02*
X10979586Y-10800484D01*
X10979586Y-10800484D02*
X10998634Y-10810008D01*
X10998634Y-10810008D02*
X11008158Y-10819531D01*
X11008158Y-10819531D02*
X11017682Y-10838579D01*
X11017682Y-10838579D02*
X11027205Y-10876674D01*
X11027205Y-10876674D02*
X11027205Y-10924293D01*
X11027205Y-10924293D02*
X11017682Y-10962389D01*
X11017682Y-10962389D02*
X11008158Y-10981436D01*
X11008158Y-10981436D02*
X10998634Y-10990960D01*
X10998634Y-10990960D02*
X10979586Y-11000484D01*
X10979586Y-11000484D02*
X10960539Y-11000484D01*
X10960539Y-11000484D02*
X10941491Y-10990960D01*
X10941491Y-10990960D02*
X10931967Y-10981436D01*
X10931967Y-10981436D02*
X10922444Y-10962389D01*
X10922444Y-10962389D02*
X10912920Y-10924293D01*
X10912920Y-10924293D02*
X10912920Y-10876674D01*
X10912920Y-10876674D02*
X10922444Y-10838579D01*
X10922444Y-10838579D02*
X10931967Y-10819531D01*
X10931967Y-10819531D02*
X10941491Y-10810008D01*
X10941491Y-10810008D02*
X10960539Y-10800484D01*
X11112920Y-11000484D02*
X11112920Y-10867150D01*
X11112920Y-10886198D02*
X11122444Y-10876674D01*
X11122444Y-10876674D02*
X11141491Y-10867150D01*
X11141491Y-10867150D02*
X11170063Y-10867150D01*
X11170063Y-10867150D02*
X11189110Y-10876674D01*
X11189110Y-10876674D02*
X11198634Y-10895722D01*
X11198634Y-10895722D02*
X11198634Y-11000484D01*
X11198634Y-10895722D02*
X11208158Y-10876674D01*
X11208158Y-10876674D02*
X11227205Y-10867150D01*
X11227205Y-10867150D02*
X11255777Y-10867150D01*
X11255777Y-10867150D02*
X11274824Y-10876674D01*
X11274824Y-10876674D02*
X11284348Y-10895722D01*
X11284348Y-10895722D02*
X11284348Y-11000484D01*
X11379586Y-11000484D02*
X11379586Y-10867150D01*
X11379586Y-10886198D02*
X11389110Y-10876674D01*
X11389110Y-10876674D02*
X11408158Y-10867150D01*
X11408158Y-10867150D02*
X11436729Y-10867150D01*
X11436729Y-10867150D02*
X11455777Y-10876674D01*
X11455777Y-10876674D02*
X11465301Y-10895722D01*
X11465301Y-10895722D02*
X11465301Y-11000484D01*
X11465301Y-10895722D02*
X11474824Y-10876674D01*
X11474824Y-10876674D02*
X11493872Y-10867150D01*
X11493872Y-10867150D02*
X11522443Y-10867150D01*
X11522443Y-10867150D02*
X11541491Y-10876674D01*
X11541491Y-10876674D02*
X11551015Y-10895722D01*
X11551015Y-10895722D02*
X11551015Y-11000484D01*
X11941491Y-10790960D02*
X11770063Y-11048103D01*
X12198634Y-10800484D02*
X12217682Y-10800484D01*
X12217682Y-10800484D02*
X12236729Y-10810008D01*
X12236729Y-10810008D02*
X12246253Y-10819531D01*
X12246253Y-10819531D02*
X12255777Y-10838579D01*
X12255777Y-10838579D02*
X12265301Y-10876674D01*
X12265301Y-10876674D02*
X12265301Y-10924293D01*
X12265301Y-10924293D02*
X12255777Y-10962389D01*
X12255777Y-10962389D02*
X12246253Y-10981436D01*
X12246253Y-10981436D02*
X12236729Y-10990960D01*
X12236729Y-10990960D02*
X12217682Y-11000484D01*
X12217682Y-11000484D02*
X12198634Y-11000484D01*
X12198634Y-11000484D02*
X12179586Y-10990960D01*
X12179586Y-10990960D02*
X12170063Y-10981436D01*
X12170063Y-10981436D02*
X12160539Y-10962389D01*
X12160539Y-10962389D02*
X12151015Y-10924293D01*
X12151015Y-10924293D02*
X12151015Y-10876674D01*
X12151015Y-10876674D02*
X12160539Y-10838579D01*
X12160539Y-10838579D02*
X12170063Y-10819531D01*
X12170063Y-10819531D02*
X12179586Y-10810008D01*
X12179586Y-10810008D02*
X12198634Y-10800484D01*
X12351015Y-10981436D02*
X12360539Y-10990960D01*
X12360539Y-10990960D02*
X12351015Y-11000484D01*
X12351015Y-11000484D02*
X12341491Y-10990960D01*
X12341491Y-10990960D02*
X12351015Y-10981436D01*
X12351015Y-10981436D02*
X12351015Y-11000484D01*
X12484348Y-10800484D02*
X12503396Y-10800484D01*
X12503396Y-10800484D02*
X12522444Y-10810008D01*
X12522444Y-10810008D02*
X12531967Y-10819531D01*
X12531967Y-10819531D02*
X12541491Y-10838579D01*
X12541491Y-10838579D02*
X12551015Y-10876674D01*
X12551015Y-10876674D02*
X12551015Y-10924293D01*
X12551015Y-10924293D02*
X12541491Y-10962389D01*
X12541491Y-10962389D02*
X12531967Y-10981436D01*
X12531967Y-10981436D02*
X12522444Y-10990960D01*
X12522444Y-10990960D02*
X12503396Y-11000484D01*
X12503396Y-11000484D02*
X12484348Y-11000484D01*
X12484348Y-11000484D02*
X12465301Y-10990960D01*
X12465301Y-10990960D02*
X12455777Y-10981436D01*
X12455777Y-10981436D02*
X12446253Y-10962389D01*
X12446253Y-10962389D02*
X12436729Y-10924293D01*
X12436729Y-10924293D02*
X12436729Y-10876674D01*
X12436729Y-10876674D02*
X12446253Y-10838579D01*
X12446253Y-10838579D02*
X12455777Y-10819531D01*
X12455777Y-10819531D02*
X12465301Y-10810008D01*
X12465301Y-10810008D02*
X12484348Y-10800484D01*
X12627206Y-10819531D02*
X12636729Y-10810008D01*
X12636729Y-10810008D02*
X12655777Y-10800484D01*
X12655777Y-10800484D02*
X12703396Y-10800484D01*
X12703396Y-10800484D02*
X12722444Y-10810008D01*
X12722444Y-10810008D02*
X12731967Y-10819531D01*
X12731967Y-10819531D02*
X12741491Y-10838579D01*
X12741491Y-10838579D02*
X12741491Y-10857627D01*
X12741491Y-10857627D02*
X12731967Y-10886198D01*
X12731967Y-10886198D02*
X12617682Y-11000484D01*
X12617682Y-11000484D02*
X12741491Y-11000484D01*
X12808158Y-10800484D02*
X12931967Y-10800484D01*
X12931967Y-10800484D02*
X12865301Y-10876674D01*
X12865301Y-10876674D02*
X12893872Y-10876674D01*
X12893872Y-10876674D02*
X12912920Y-10886198D01*
X12912920Y-10886198D02*
X12922444Y-10895722D01*
X12922444Y-10895722D02*
X12931967Y-10914770D01*
X12931967Y-10914770D02*
X12931967Y-10962389D01*
X12931967Y-10962389D02*
X12922444Y-10981436D01*
X12922444Y-10981436D02*
X12912920Y-10990960D01*
X12912920Y-10990960D02*
X12893872Y-11000484D01*
X12893872Y-11000484D02*
X12836729Y-11000484D01*
X12836729Y-11000484D02*
X12817682Y-10990960D01*
X12817682Y-10990960D02*
X12808158Y-10981436D01*
X13103396Y-10800484D02*
X13065301Y-10800484D01*
X13065301Y-10800484D02*
X13046253Y-10810008D01*
X13046253Y-10810008D02*
X13036729Y-10819531D01*
X13036729Y-10819531D02*
X13017682Y-10848103D01*
X13017682Y-10848103D02*
X13008158Y-10886198D01*
X13008158Y-10886198D02*
X13008158Y-10962389D01*
X13008158Y-10962389D02*
X13017682Y-10981436D01*
X13017682Y-10981436D02*
X13027206Y-10990960D01*
X13027206Y-10990960D02*
X13046253Y-11000484D01*
X13046253Y-11000484D02*
X13084348Y-11000484D01*
X13084348Y-11000484D02*
X13103396Y-10990960D01*
X13103396Y-10990960D02*
X13112920Y-10981436D01*
X13112920Y-10981436D02*
X13122444Y-10962389D01*
X13122444Y-10962389D02*
X13122444Y-10914770D01*
X13122444Y-10914770D02*
X13112920Y-10895722D01*
X13112920Y-10895722D02*
X13103396Y-10886198D01*
X13103396Y-10886198D02*
X13084348Y-10876674D01*
X13084348Y-10876674D02*
X13046253Y-10876674D01*
X13046253Y-10876674D02*
X13027206Y-10886198D01*
X13027206Y-10886198D02*
X13017682Y-10895722D01*
X13017682Y-10895722D02*
X13008158Y-10914770D01*
X13198634Y-10800484D02*
X13198634Y-10838579D01*
X13274825Y-10800484D02*
X13274825Y-10838579D01*
X13570063Y-11076674D02*
X13560539Y-11067150D01*
X13560539Y-11067150D02*
X13541491Y-11038579D01*
X13541491Y-11038579D02*
X13531968Y-11019531D01*
X13531968Y-11019531D02*
X13522444Y-10990960D01*
X13522444Y-10990960D02*
X13512920Y-10943341D01*
X13512920Y-10943341D02*
X13512920Y-10905246D01*
X13512920Y-10905246D02*
X13522444Y-10857627D01*
X13522444Y-10857627D02*
X13531968Y-10829055D01*
X13531968Y-10829055D02*
X13541491Y-10810008D01*
X13541491Y-10810008D02*
X13560539Y-10781436D01*
X13560539Y-10781436D02*
X13570063Y-10771912D01*
X13627206Y-10800484D02*
X13751015Y-10800484D01*
X13751015Y-10800484D02*
X13684348Y-10876674D01*
X13684348Y-10876674D02*
X13712920Y-10876674D01*
X13712920Y-10876674D02*
X13731968Y-10886198D01*
X13731968Y-10886198D02*
X13741491Y-10895722D01*
X13741491Y-10895722D02*
X13751015Y-10914770D01*
X13751015Y-10914770D02*
X13751015Y-10962389D01*
X13751015Y-10962389D02*
X13741491Y-10981436D01*
X13741491Y-10981436D02*
X13731968Y-10990960D01*
X13731968Y-10990960D02*
X13712920Y-11000484D01*
X13712920Y-11000484D02*
X13655777Y-11000484D01*
X13655777Y-11000484D02*
X13636729Y-10990960D01*
X13636729Y-10990960D02*
X13627206Y-10981436D01*
X13865301Y-10886198D02*
X13846253Y-10876674D01*
X13846253Y-10876674D02*
X13836729Y-10867150D01*
X13836729Y-10867150D02*
X13827206Y-10848103D01*
X13827206Y-10848103D02*
X13827206Y-10838579D01*
X13827206Y-10838579D02*
X13836729Y-10819531D01*
X13836729Y-10819531D02*
X13846253Y-10810008D01*
X13846253Y-10810008D02*
X13865301Y-10800484D01*
X13865301Y-10800484D02*
X13903396Y-10800484D01*
X13903396Y-10800484D02*
X13922444Y-10810008D01*
X13922444Y-10810008D02*
X13931968Y-10819531D01*
X13931968Y-10819531D02*
X13941491Y-10838579D01*
X13941491Y-10838579D02*
X13941491Y-10848103D01*
X13941491Y-10848103D02*
X13931968Y-10867150D01*
X13931968Y-10867150D02*
X13922444Y-10876674D01*
X13922444Y-10876674D02*
X13903396Y-10886198D01*
X13903396Y-10886198D02*
X13865301Y-10886198D01*
X13865301Y-10886198D02*
X13846253Y-10895722D01*
X13846253Y-10895722D02*
X13836729Y-10905246D01*
X13836729Y-10905246D02*
X13827206Y-10924293D01*
X13827206Y-10924293D02*
X13827206Y-10962389D01*
X13827206Y-10962389D02*
X13836729Y-10981436D01*
X13836729Y-10981436D02*
X13846253Y-10990960D01*
X13846253Y-10990960D02*
X13865301Y-11000484D01*
X13865301Y-11000484D02*
X13903396Y-11000484D01*
X13903396Y-11000484D02*
X13922444Y-10990960D01*
X13922444Y-10990960D02*
X13931968Y-10981436D01*
X13931968Y-10981436D02*
X13941491Y-10962389D01*
X13941491Y-10962389D02*
X13941491Y-10924293D01*
X13941491Y-10924293D02*
X13931968Y-10905246D01*
X13931968Y-10905246D02*
X13922444Y-10895722D01*
X13922444Y-10895722D02*
X13903396Y-10886198D01*
X14179587Y-11000484D02*
X14179587Y-10800484D01*
X14265301Y-11000484D02*
X14265301Y-10895722D01*
X14265301Y-10895722D02*
X14255777Y-10876674D01*
X14255777Y-10876674D02*
X14236730Y-10867150D01*
X14236730Y-10867150D02*
X14208158Y-10867150D01*
X14208158Y-10867150D02*
X14189110Y-10876674D01*
X14189110Y-10876674D02*
X14179587Y-10886198D01*
X14389110Y-11000484D02*
X14370063Y-10990960D01*
X14370063Y-10990960D02*
X14360539Y-10981436D01*
X14360539Y-10981436D02*
X14351015Y-10962389D01*
X14351015Y-10962389D02*
X14351015Y-10905246D01*
X14351015Y-10905246D02*
X14360539Y-10886198D01*
X14360539Y-10886198D02*
X14370063Y-10876674D01*
X14370063Y-10876674D02*
X14389110Y-10867150D01*
X14389110Y-10867150D02*
X14417682Y-10867150D01*
X14417682Y-10867150D02*
X14436730Y-10876674D01*
X14436730Y-10876674D02*
X14446253Y-10886198D01*
X14446253Y-10886198D02*
X14455777Y-10905246D01*
X14455777Y-10905246D02*
X14455777Y-10962389D01*
X14455777Y-10962389D02*
X14446253Y-10981436D01*
X14446253Y-10981436D02*
X14436730Y-10990960D01*
X14436730Y-10990960D02*
X14417682Y-11000484D01*
X14417682Y-11000484D02*
X14389110Y-11000484D01*
X14570063Y-11000484D02*
X14551015Y-10990960D01*
X14551015Y-10990960D02*
X14541491Y-10971912D01*
X14541491Y-10971912D02*
X14541491Y-10800484D01*
X14722444Y-10990960D02*
X14703396Y-11000484D01*
X14703396Y-11000484D02*
X14665301Y-11000484D01*
X14665301Y-11000484D02*
X14646253Y-10990960D01*
X14646253Y-10990960D02*
X14636730Y-10971912D01*
X14636730Y-10971912D02*
X14636730Y-10895722D01*
X14636730Y-10895722D02*
X14646253Y-10876674D01*
X14646253Y-10876674D02*
X14665301Y-10867150D01*
X14665301Y-10867150D02*
X14703396Y-10867150D01*
X14703396Y-10867150D02*
X14722444Y-10876674D01*
X14722444Y-10876674D02*
X14731968Y-10895722D01*
X14731968Y-10895722D02*
X14731968Y-10914770D01*
X14731968Y-10914770D02*
X14636730Y-10933817D01*
X14808158Y-10990960D02*
X14827206Y-11000484D01*
X14827206Y-11000484D02*
X14865301Y-11000484D01*
X14865301Y-11000484D02*
X14884349Y-10990960D01*
X14884349Y-10990960D02*
X14893872Y-10971912D01*
X14893872Y-10971912D02*
X14893872Y-10962389D01*
X14893872Y-10962389D02*
X14884349Y-10943341D01*
X14884349Y-10943341D02*
X14865301Y-10933817D01*
X14865301Y-10933817D02*
X14836730Y-10933817D01*
X14836730Y-10933817D02*
X14817682Y-10924293D01*
X14817682Y-10924293D02*
X14808158Y-10905246D01*
X14808158Y-10905246D02*
X14808158Y-10895722D01*
X14808158Y-10895722D02*
X14817682Y-10876674D01*
X14817682Y-10876674D02*
X14836730Y-10867150D01*
X14836730Y-10867150D02*
X14865301Y-10867150D01*
X14865301Y-10867150D02*
X14884349Y-10876674D01*
X14960539Y-11076674D02*
X14970063Y-11067150D01*
X14970063Y-11067150D02*
X14989111Y-11038579D01*
X14989111Y-11038579D02*
X14998634Y-11019531D01*
X14998634Y-11019531D02*
X15008158Y-10990960D01*
X15008158Y-10990960D02*
X15017682Y-10943341D01*
X15017682Y-10943341D02*
X15017682Y-10905246D01*
X15017682Y-10905246D02*
X15008158Y-10857627D01*
X15008158Y-10857627D02*
X14998634Y-10829055D01*
X14998634Y-10829055D02*
X14989111Y-10810008D01*
X14989111Y-10810008D02*
X14970063Y-10781436D01*
X14970063Y-10781436D02*
X14960539Y-10771912D01*
D10*
X9945000Y-11123000D02*
X9945000Y-11223000D01*
X9895000Y-11173000D02*
X9995000Y-11173000D01*
D11*
X10360539Y-11264484D02*
X10246253Y-11264484D01*
X10303396Y-11264484D02*
X10303396Y-11064484D01*
X10303396Y-11064484D02*
X10284348Y-11093055D01*
X10284348Y-11093055D02*
X10265301Y-11112103D01*
X10265301Y-11112103D02*
X10246253Y-11121627D01*
X10446253Y-11245436D02*
X10455777Y-11254960D01*
X10455777Y-11254960D02*
X10446253Y-11264484D01*
X10446253Y-11264484D02*
X10436729Y-11254960D01*
X10436729Y-11254960D02*
X10446253Y-11245436D01*
X10446253Y-11245436D02*
X10446253Y-11264484D01*
X10579586Y-11064484D02*
X10598634Y-11064484D01*
X10598634Y-11064484D02*
X10617682Y-11074008D01*
X10617682Y-11074008D02*
X10627205Y-11083531D01*
X10627205Y-11083531D02*
X10636729Y-11102579D01*
X10636729Y-11102579D02*
X10646253Y-11140674D01*
X10646253Y-11140674D02*
X10646253Y-11188293D01*
X10646253Y-11188293D02*
X10636729Y-11226388D01*
X10636729Y-11226388D02*
X10627205Y-11245436D01*
X10627205Y-11245436D02*
X10617682Y-11254960D01*
X10617682Y-11254960D02*
X10598634Y-11264484D01*
X10598634Y-11264484D02*
X10579586Y-11264484D01*
X10579586Y-11264484D02*
X10560539Y-11254960D01*
X10560539Y-11254960D02*
X10551015Y-11245436D01*
X10551015Y-11245436D02*
X10541491Y-11226388D01*
X10541491Y-11226388D02*
X10531967Y-11188293D01*
X10531967Y-11188293D02*
X10531967Y-11140674D01*
X10531967Y-11140674D02*
X10541491Y-11102579D01*
X10541491Y-11102579D02*
X10551015Y-11083531D01*
X10551015Y-11083531D02*
X10560539Y-11074008D01*
X10560539Y-11074008D02*
X10579586Y-11064484D01*
X10770063Y-11064484D02*
X10789110Y-11064484D01*
X10789110Y-11064484D02*
X10808158Y-11074008D01*
X10808158Y-11074008D02*
X10817682Y-11083531D01*
X10817682Y-11083531D02*
X10827205Y-11102579D01*
X10827205Y-11102579D02*
X10836729Y-11140674D01*
X10836729Y-11140674D02*
X10836729Y-11188293D01*
X10836729Y-11188293D02*
X10827205Y-11226388D01*
X10827205Y-11226388D02*
X10817682Y-11245436D01*
X10817682Y-11245436D02*
X10808158Y-11254960D01*
X10808158Y-11254960D02*
X10789110Y-11264484D01*
X10789110Y-11264484D02*
X10770063Y-11264484D01*
X10770063Y-11264484D02*
X10751015Y-11254960D01*
X10751015Y-11254960D02*
X10741491Y-11245436D01*
X10741491Y-11245436D02*
X10731967Y-11226388D01*
X10731967Y-11226388D02*
X10722444Y-11188293D01*
X10722444Y-11188293D02*
X10722444Y-11140674D01*
X10722444Y-11140674D02*
X10731967Y-11102579D01*
X10731967Y-11102579D02*
X10741491Y-11083531D01*
X10741491Y-11083531D02*
X10751015Y-11074008D01*
X10751015Y-11074008D02*
X10770063Y-11064484D01*
X10960539Y-11064484D02*
X10979586Y-11064484D01*
X10979586Y-11064484D02*
X10998634Y-11074008D01*
X10998634Y-11074008D02*
X11008158Y-11083531D01*
X11008158Y-11083531D02*
X11017682Y-11102579D01*
X11017682Y-11102579D02*
X11027205Y-11140674D01*
X11027205Y-11140674D02*
X11027205Y-11188293D01*
X11027205Y-11188293D02*
X11017682Y-11226388D01*
X11017682Y-11226388D02*
X11008158Y-11245436D01*
X11008158Y-11245436D02*
X10998634Y-11254960D01*
X10998634Y-11254960D02*
X10979586Y-11264484D01*
X10979586Y-11264484D02*
X10960539Y-11264484D01*
X10960539Y-11264484D02*
X10941491Y-11254960D01*
X10941491Y-11254960D02*
X10931967Y-11245436D01*
X10931967Y-11245436D02*
X10922444Y-11226388D01*
X10922444Y-11226388D02*
X10912920Y-11188293D01*
X10912920Y-11188293D02*
X10912920Y-11140674D01*
X10912920Y-11140674D02*
X10922444Y-11102579D01*
X10922444Y-11102579D02*
X10931967Y-11083531D01*
X10931967Y-11083531D02*
X10941491Y-11074008D01*
X10941491Y-11074008D02*
X10960539Y-11064484D01*
X11112920Y-11264484D02*
X11112920Y-11131150D01*
X11112920Y-11150198D02*
X11122444Y-11140674D01*
X11122444Y-11140674D02*
X11141491Y-11131150D01*
X11141491Y-11131150D02*
X11170063Y-11131150D01*
X11170063Y-11131150D02*
X11189110Y-11140674D01*
X11189110Y-11140674D02*
X11198634Y-11159722D01*
X11198634Y-11159722D02*
X11198634Y-11264484D01*
X11198634Y-11159722D02*
X11208158Y-11140674D01*
X11208158Y-11140674D02*
X11227205Y-11131150D01*
X11227205Y-11131150D02*
X11255777Y-11131150D01*
X11255777Y-11131150D02*
X11274824Y-11140674D01*
X11274824Y-11140674D02*
X11284348Y-11159722D01*
X11284348Y-11159722D02*
X11284348Y-11264484D01*
X11379586Y-11264484D02*
X11379586Y-11131150D01*
X11379586Y-11150198D02*
X11389110Y-11140674D01*
X11389110Y-11140674D02*
X11408158Y-11131150D01*
X11408158Y-11131150D02*
X11436729Y-11131150D01*
X11436729Y-11131150D02*
X11455777Y-11140674D01*
X11455777Y-11140674D02*
X11465301Y-11159722D01*
X11465301Y-11159722D02*
X11465301Y-11264484D01*
X11465301Y-11159722D02*
X11474824Y-11140674D01*
X11474824Y-11140674D02*
X11493872Y-11131150D01*
X11493872Y-11131150D02*
X11522443Y-11131150D01*
X11522443Y-11131150D02*
X11541491Y-11140674D01*
X11541491Y-11140674D02*
X11551015Y-11159722D01*
X11551015Y-11159722D02*
X11551015Y-11264484D01*
X11941491Y-11054960D02*
X11770063Y-11312103D01*
X12198634Y-11064484D02*
X12217682Y-11064484D01*
X12217682Y-11064484D02*
X12236729Y-11074008D01*
X12236729Y-11074008D02*
X12246253Y-11083531D01*
X12246253Y-11083531D02*
X12255777Y-11102579D01*
X12255777Y-11102579D02*
X12265301Y-11140674D01*
X12265301Y-11140674D02*
X12265301Y-11188293D01*
X12265301Y-11188293D02*
X12255777Y-11226388D01*
X12255777Y-11226388D02*
X12246253Y-11245436D01*
X12246253Y-11245436D02*
X12236729Y-11254960D01*
X12236729Y-11254960D02*
X12217682Y-11264484D01*
X12217682Y-11264484D02*
X12198634Y-11264484D01*
X12198634Y-11264484D02*
X12179586Y-11254960D01*
X12179586Y-11254960D02*
X12170063Y-11245436D01*
X12170063Y-11245436D02*
X12160539Y-11226388D01*
X12160539Y-11226388D02*
X12151015Y-11188293D01*
X12151015Y-11188293D02*
X12151015Y-11140674D01*
X12151015Y-11140674D02*
X12160539Y-11102579D01*
X12160539Y-11102579D02*
X12170063Y-11083531D01*
X12170063Y-11083531D02*
X12179586Y-11074008D01*
X12179586Y-11074008D02*
X12198634Y-11064484D01*
X12351015Y-11245436D02*
X12360539Y-11254960D01*
X12360539Y-11254960D02*
X12351015Y-11264484D01*
X12351015Y-11264484D02*
X12341491Y-11254960D01*
X12341491Y-11254960D02*
X12351015Y-11245436D01*
X12351015Y-11245436D02*
X12351015Y-11264484D01*
X12484348Y-11064484D02*
X12503396Y-11064484D01*
X12503396Y-11064484D02*
X12522444Y-11074008D01*
X12522444Y-11074008D02*
X12531967Y-11083531D01*
X12531967Y-11083531D02*
X12541491Y-11102579D01*
X12541491Y-11102579D02*
X12551015Y-11140674D01*
X12551015Y-11140674D02*
X12551015Y-11188293D01*
X12551015Y-11188293D02*
X12541491Y-11226388D01*
X12541491Y-11226388D02*
X12531967Y-11245436D01*
X12531967Y-11245436D02*
X12522444Y-11254960D01*
X12522444Y-11254960D02*
X12503396Y-11264484D01*
X12503396Y-11264484D02*
X12484348Y-11264484D01*
X12484348Y-11264484D02*
X12465301Y-11254960D01*
X12465301Y-11254960D02*
X12455777Y-11245436D01*
X12455777Y-11245436D02*
X12446253Y-11226388D01*
X12446253Y-11226388D02*
X12436729Y-11188293D01*
X12436729Y-11188293D02*
X12436729Y-11140674D01*
X12436729Y-11140674D02*
X12446253Y-11102579D01*
X12446253Y-11102579D02*
X12455777Y-11083531D01*
X12455777Y-11083531D02*
X12465301Y-11074008D01*
X12465301Y-11074008D02*
X12484348Y-11064484D01*
X12617682Y-11064484D02*
X12741491Y-11064484D01*
X12741491Y-11064484D02*
X12674825Y-11140674D01*
X12674825Y-11140674D02*
X12703396Y-11140674D01*
X12703396Y-11140674D02*
X12722444Y-11150198D01*
X12722444Y-11150198D02*
X12731967Y-11159722D01*
X12731967Y-11159722D02*
X12741491Y-11178770D01*
X12741491Y-11178770D02*
X12741491Y-11226388D01*
X12741491Y-11226388D02*
X12731967Y-11245436D01*
X12731967Y-11245436D02*
X12722444Y-11254960D01*
X12722444Y-11254960D02*
X12703396Y-11264484D01*
X12703396Y-11264484D02*
X12646253Y-11264484D01*
X12646253Y-11264484D02*
X12627206Y-11254960D01*
X12627206Y-11254960D02*
X12617682Y-11245436D01*
X12836729Y-11264484D02*
X12874825Y-11264484D01*
X12874825Y-11264484D02*
X12893872Y-11254960D01*
X12893872Y-11254960D02*
X12903396Y-11245436D01*
X12903396Y-11245436D02*
X12922444Y-11216865D01*
X12922444Y-11216865D02*
X12931967Y-11178770D01*
X12931967Y-11178770D02*
X12931967Y-11102579D01*
X12931967Y-11102579D02*
X12922444Y-11083531D01*
X12922444Y-11083531D02*
X12912920Y-11074008D01*
X12912920Y-11074008D02*
X12893872Y-11064484D01*
X12893872Y-11064484D02*
X12855777Y-11064484D01*
X12855777Y-11064484D02*
X12836729Y-11074008D01*
X12836729Y-11074008D02*
X12827206Y-11083531D01*
X12827206Y-11083531D02*
X12817682Y-11102579D01*
X12817682Y-11102579D02*
X12817682Y-11150198D01*
X12817682Y-11150198D02*
X12827206Y-11169246D01*
X12827206Y-11169246D02*
X12836729Y-11178770D01*
X12836729Y-11178770D02*
X12855777Y-11188293D01*
X12855777Y-11188293D02*
X12893872Y-11188293D01*
X12893872Y-11188293D02*
X12912920Y-11178770D01*
X12912920Y-11178770D02*
X12922444Y-11169246D01*
X12922444Y-11169246D02*
X12931967Y-11150198D01*
X13103396Y-11131150D02*
X13103396Y-11264484D01*
X13055777Y-11054960D02*
X13008158Y-11197817D01*
X13008158Y-11197817D02*
X13131967Y-11197817D01*
X13198634Y-11064484D02*
X13198634Y-11102579D01*
X13274825Y-11064484D02*
X13274825Y-11102579D01*
X13570063Y-11340674D02*
X13560539Y-11331150D01*
X13560539Y-11331150D02*
X13541491Y-11302579D01*
X13541491Y-11302579D02*
X13531968Y-11283531D01*
X13531968Y-11283531D02*
X13522444Y-11254960D01*
X13522444Y-11254960D02*
X13512920Y-11207341D01*
X13512920Y-11207341D02*
X13512920Y-11169246D01*
X13512920Y-11169246D02*
X13522444Y-11121627D01*
X13522444Y-11121627D02*
X13531968Y-11093055D01*
X13531968Y-11093055D02*
X13541491Y-11074008D01*
X13541491Y-11074008D02*
X13560539Y-11045436D01*
X13560539Y-11045436D02*
X13570063Y-11035912D01*
X13731968Y-11131150D02*
X13731968Y-11264484D01*
X13684348Y-11054960D02*
X13636729Y-11197817D01*
X13636729Y-11197817D02*
X13760539Y-11197817D01*
X13874825Y-11064484D02*
X13893872Y-11064484D01*
X13893872Y-11064484D02*
X13912920Y-11074008D01*
X13912920Y-11074008D02*
X13922444Y-11083531D01*
X13922444Y-11083531D02*
X13931968Y-11102579D01*
X13931968Y-11102579D02*
X13941491Y-11140674D01*
X13941491Y-11140674D02*
X13941491Y-11188293D01*
X13941491Y-11188293D02*
X13931968Y-11226388D01*
X13931968Y-11226388D02*
X13922444Y-11245436D01*
X13922444Y-11245436D02*
X13912920Y-11254960D01*
X13912920Y-11254960D02*
X13893872Y-11264484D01*
X13893872Y-11264484D02*
X13874825Y-11264484D01*
X13874825Y-11264484D02*
X13855777Y-11254960D01*
X13855777Y-11254960D02*
X13846253Y-11245436D01*
X13846253Y-11245436D02*
X13836729Y-11226388D01*
X13836729Y-11226388D02*
X13827206Y-11188293D01*
X13827206Y-11188293D02*
X13827206Y-11140674D01*
X13827206Y-11140674D02*
X13836729Y-11102579D01*
X13836729Y-11102579D02*
X13846253Y-11083531D01*
X13846253Y-11083531D02*
X13855777Y-11074008D01*
X13855777Y-11074008D02*
X13874825Y-11064484D01*
X14179587Y-11264484D02*
X14179587Y-11064484D01*
X14265301Y-11264484D02*
X14265301Y-11159722D01*
X14265301Y-11159722D02*
X14255777Y-11140674D01*
X14255777Y-11140674D02*
X14236730Y-11131150D01*
X14236730Y-11131150D02*
X14208158Y-11131150D01*
X14208158Y-11131150D02*
X14189110Y-11140674D01*
X14189110Y-11140674D02*
X14179587Y-11150198D01*
X14389110Y-11264484D02*
X14370063Y-11254960D01*
X14370063Y-11254960D02*
X14360539Y-11245436D01*
X14360539Y-11245436D02*
X14351015Y-11226388D01*
X14351015Y-11226388D02*
X14351015Y-11169246D01*
X14351015Y-11169246D02*
X14360539Y-11150198D01*
X14360539Y-11150198D02*
X14370063Y-11140674D01*
X14370063Y-11140674D02*
X14389110Y-11131150D01*
X14389110Y-11131150D02*
X14417682Y-11131150D01*
X14417682Y-11131150D02*
X14436730Y-11140674D01*
X14436730Y-11140674D02*
X14446253Y-11150198D01*
X14446253Y-11150198D02*
X14455777Y-11169246D01*
X14455777Y-11169246D02*
X14455777Y-11226388D01*
X14455777Y-11226388D02*
X14446253Y-11245436D01*
X14446253Y-11245436D02*
X14436730Y-11254960D01*
X14436730Y-11254960D02*
X14417682Y-11264484D01*
X14417682Y-11264484D02*
X14389110Y-11264484D01*
X14570063Y-11264484D02*
X14551015Y-11254960D01*
X14551015Y-11254960D02*
X14541491Y-11235912D01*
X14541491Y-11235912D02*
X14541491Y-11064484D01*
X14722444Y-11254960D02*
X14703396Y-11264484D01*
X14703396Y-11264484D02*
X14665301Y-11264484D01*
X14665301Y-11264484D02*
X14646253Y-11254960D01*
X14646253Y-11254960D02*
X14636730Y-11235912D01*
X14636730Y-11235912D02*
X14636730Y-11159722D01*
X14636730Y-11159722D02*
X14646253Y-11140674D01*
X14646253Y-11140674D02*
X14665301Y-11131150D01*
X14665301Y-11131150D02*
X14703396Y-11131150D01*
X14703396Y-11131150D02*
X14722444Y-11140674D01*
X14722444Y-11140674D02*
X14731968Y-11159722D01*
X14731968Y-11159722D02*
X14731968Y-11178770D01*
X14731968Y-11178770D02*
X14636730Y-11197817D01*
X14808158Y-11254960D02*
X14827206Y-11264484D01*
X14827206Y-11264484D02*
X14865301Y-11264484D01*
X14865301Y-11264484D02*
X14884349Y-11254960D01*
X14884349Y-11254960D02*
X14893872Y-11235912D01*
X14893872Y-11235912D02*
X14893872Y-11226388D01*
X14893872Y-11226388D02*
X14884349Y-11207341D01*
X14884349Y-11207341D02*
X14865301Y-11197817D01*
X14865301Y-11197817D02*
X14836730Y-11197817D01*
X14836730Y-11197817D02*
X14817682Y-11188293D01*
X14817682Y-11188293D02*
X14808158Y-11169246D01*
X14808158Y-11169246D02*
X14808158Y-11159722D01*
X14808158Y-11159722D02*
X14817682Y-11140674D01*
X14817682Y-11140674D02*
X14836730Y-11131150D01*
X14836730Y-11131150D02*
X14865301Y-11131150D01*
X14865301Y-11131150D02*
X14884349Y-11140674D01*
X14960539Y-11340674D02*
X14970063Y-11331150D01*
X14970063Y-11331150D02*
X14989111Y-11302579D01*
X14989111Y-11302579D02*
X14998634Y-11283531D01*
X14998634Y-11283531D02*
X15008158Y-11254960D01*
X15008158Y-11254960D02*
X15017682Y-11207341D01*
X15017682Y-11207341D02*
X15017682Y-11169246D01*
X15017682Y-11169246D02*
X15008158Y-11121627D01*
X15008158Y-11121627D02*
X14998634Y-11093055D01*
X14998634Y-11093055D02*
X14989111Y-11074008D01*
X14989111Y-11074008D02*
X14970063Y-11045436D01*
X14970063Y-11045436D02*
X14960539Y-11035912D01*
D12*
X9980063Y-11473063D02*
X9980063Y-11400937D01*
X9907937Y-11400937D01*
X9907937Y-11473063D01*
X9980063Y-11473063D01*
D11*
X10360539Y-11528484D02*
X10246253Y-11528484D01*
X10303396Y-11528484D02*
X10303396Y-11328484D01*
X10303396Y-11328484D02*
X10284348Y-11357055D01*
X10284348Y-11357055D02*
X10265301Y-11376103D01*
X10265301Y-11376103D02*
X10246253Y-11385627D01*
X10446253Y-11509436D02*
X10455777Y-11518960D01*
X10455777Y-11518960D02*
X10446253Y-11528484D01*
X10446253Y-11528484D02*
X10436729Y-11518960D01*
X10436729Y-11518960D02*
X10446253Y-11509436D01*
X10446253Y-11509436D02*
X10446253Y-11528484D01*
X10579586Y-11328484D02*
X10598634Y-11328484D01*
X10598634Y-11328484D02*
X10617682Y-11338008D01*
X10617682Y-11338008D02*
X10627205Y-11347531D01*
X10627205Y-11347531D02*
X10636729Y-11366579D01*
X10636729Y-11366579D02*
X10646253Y-11404674D01*
X10646253Y-11404674D02*
X10646253Y-11452293D01*
X10646253Y-11452293D02*
X10636729Y-11490388D01*
X10636729Y-11490388D02*
X10627205Y-11509436D01*
X10627205Y-11509436D02*
X10617682Y-11518960D01*
X10617682Y-11518960D02*
X10598634Y-11528484D01*
X10598634Y-11528484D02*
X10579586Y-11528484D01*
X10579586Y-11528484D02*
X10560539Y-11518960D01*
X10560539Y-11518960D02*
X10551015Y-11509436D01*
X10551015Y-11509436D02*
X10541491Y-11490388D01*
X10541491Y-11490388D02*
X10531967Y-11452293D01*
X10531967Y-11452293D02*
X10531967Y-11404674D01*
X10531967Y-11404674D02*
X10541491Y-11366579D01*
X10541491Y-11366579D02*
X10551015Y-11347531D01*
X10551015Y-11347531D02*
X10560539Y-11338008D01*
X10560539Y-11338008D02*
X10579586Y-11328484D01*
X10722444Y-11347531D02*
X10731967Y-11338008D01*
X10731967Y-11338008D02*
X10751015Y-11328484D01*
X10751015Y-11328484D02*
X10798634Y-11328484D01*
X10798634Y-11328484D02*
X10817682Y-11338008D01*
X10817682Y-11338008D02*
X10827205Y-11347531D01*
X10827205Y-11347531D02*
X10836729Y-11366579D01*
X10836729Y-11366579D02*
X10836729Y-11385627D01*
X10836729Y-11385627D02*
X10827205Y-11414198D01*
X10827205Y-11414198D02*
X10712920Y-11528484D01*
X10712920Y-11528484D02*
X10836729Y-11528484D01*
X10960539Y-11328484D02*
X10979586Y-11328484D01*
X10979586Y-11328484D02*
X10998634Y-11338008D01*
X10998634Y-11338008D02*
X11008158Y-11347531D01*
X11008158Y-11347531D02*
X11017682Y-11366579D01*
X11017682Y-11366579D02*
X11027205Y-11404674D01*
X11027205Y-11404674D02*
X11027205Y-11452293D01*
X11027205Y-11452293D02*
X11017682Y-11490388D01*
X11017682Y-11490388D02*
X11008158Y-11509436D01*
X11008158Y-11509436D02*
X10998634Y-11518960D01*
X10998634Y-11518960D02*
X10979586Y-11528484D01*
X10979586Y-11528484D02*
X10960539Y-11528484D01*
X10960539Y-11528484D02*
X10941491Y-11518960D01*
X10941491Y-11518960D02*
X10931967Y-11509436D01*
X10931967Y-11509436D02*
X10922444Y-11490388D01*
X10922444Y-11490388D02*
X10912920Y-11452293D01*
X10912920Y-11452293D02*
X10912920Y-11404674D01*
X10912920Y-11404674D02*
X10922444Y-11366579D01*
X10922444Y-11366579D02*
X10931967Y-11347531D01*
X10931967Y-11347531D02*
X10941491Y-11338008D01*
X10941491Y-11338008D02*
X10960539Y-11328484D01*
X11112920Y-11528484D02*
X11112920Y-11395150D01*
X11112920Y-11414198D02*
X11122444Y-11404674D01*
X11122444Y-11404674D02*
X11141491Y-11395150D01*
X11141491Y-11395150D02*
X11170063Y-11395150D01*
X11170063Y-11395150D02*
X11189110Y-11404674D01*
X11189110Y-11404674D02*
X11198634Y-11423722D01*
X11198634Y-11423722D02*
X11198634Y-11528484D01*
X11198634Y-11423722D02*
X11208158Y-11404674D01*
X11208158Y-11404674D02*
X11227205Y-11395150D01*
X11227205Y-11395150D02*
X11255777Y-11395150D01*
X11255777Y-11395150D02*
X11274824Y-11404674D01*
X11274824Y-11404674D02*
X11284348Y-11423722D01*
X11284348Y-11423722D02*
X11284348Y-11528484D01*
X11379586Y-11528484D02*
X11379586Y-11395150D01*
X11379586Y-11414198D02*
X11389110Y-11404674D01*
X11389110Y-11404674D02*
X11408158Y-11395150D01*
X11408158Y-11395150D02*
X11436729Y-11395150D01*
X11436729Y-11395150D02*
X11455777Y-11404674D01*
X11455777Y-11404674D02*
X11465301Y-11423722D01*
X11465301Y-11423722D02*
X11465301Y-11528484D01*
X11465301Y-11423722D02*
X11474824Y-11404674D01*
X11474824Y-11404674D02*
X11493872Y-11395150D01*
X11493872Y-11395150D02*
X11522443Y-11395150D01*
X11522443Y-11395150D02*
X11541491Y-11404674D01*
X11541491Y-11404674D02*
X11551015Y-11423722D01*
X11551015Y-11423722D02*
X11551015Y-11528484D01*
X11941491Y-11318960D02*
X11770063Y-11576103D01*
X12198634Y-11328484D02*
X12217682Y-11328484D01*
X12217682Y-11328484D02*
X12236729Y-11338008D01*
X12236729Y-11338008D02*
X12246253Y-11347531D01*
X12246253Y-11347531D02*
X12255777Y-11366579D01*
X12255777Y-11366579D02*
X12265301Y-11404674D01*
X12265301Y-11404674D02*
X12265301Y-11452293D01*
X12265301Y-11452293D02*
X12255777Y-11490388D01*
X12255777Y-11490388D02*
X12246253Y-11509436D01*
X12246253Y-11509436D02*
X12236729Y-11518960D01*
X12236729Y-11518960D02*
X12217682Y-11528484D01*
X12217682Y-11528484D02*
X12198634Y-11528484D01*
X12198634Y-11528484D02*
X12179586Y-11518960D01*
X12179586Y-11518960D02*
X12170063Y-11509436D01*
X12170063Y-11509436D02*
X12160539Y-11490388D01*
X12160539Y-11490388D02*
X12151015Y-11452293D01*
X12151015Y-11452293D02*
X12151015Y-11404674D01*
X12151015Y-11404674D02*
X12160539Y-11366579D01*
X12160539Y-11366579D02*
X12170063Y-11347531D01*
X12170063Y-11347531D02*
X12179586Y-11338008D01*
X12179586Y-11338008D02*
X12198634Y-11328484D01*
X12351015Y-11509436D02*
X12360539Y-11518960D01*
X12360539Y-11518960D02*
X12351015Y-11528484D01*
X12351015Y-11528484D02*
X12341491Y-11518960D01*
X12341491Y-11518960D02*
X12351015Y-11509436D01*
X12351015Y-11509436D02*
X12351015Y-11528484D01*
X12484348Y-11328484D02*
X12503396Y-11328484D01*
X12503396Y-11328484D02*
X12522444Y-11338008D01*
X12522444Y-11338008D02*
X12531967Y-11347531D01*
X12531967Y-11347531D02*
X12541491Y-11366579D01*
X12541491Y-11366579D02*
X12551015Y-11404674D01*
X12551015Y-11404674D02*
X12551015Y-11452293D01*
X12551015Y-11452293D02*
X12541491Y-11490388D01*
X12541491Y-11490388D02*
X12531967Y-11509436D01*
X12531967Y-11509436D02*
X12522444Y-11518960D01*
X12522444Y-11518960D02*
X12503396Y-11528484D01*
X12503396Y-11528484D02*
X12484348Y-11528484D01*
X12484348Y-11528484D02*
X12465301Y-11518960D01*
X12465301Y-11518960D02*
X12455777Y-11509436D01*
X12455777Y-11509436D02*
X12446253Y-11490388D01*
X12446253Y-11490388D02*
X12436729Y-11452293D01*
X12436729Y-11452293D02*
X12436729Y-11404674D01*
X12436729Y-11404674D02*
X12446253Y-11366579D01*
X12446253Y-11366579D02*
X12455777Y-11347531D01*
X12455777Y-11347531D02*
X12465301Y-11338008D01*
X12465301Y-11338008D02*
X12484348Y-11328484D01*
X12722444Y-11395150D02*
X12722444Y-11528484D01*
X12674825Y-11318960D02*
X12627206Y-11461817D01*
X12627206Y-11461817D02*
X12751015Y-11461817D01*
X12865301Y-11328484D02*
X12884348Y-11328484D01*
X12884348Y-11328484D02*
X12903396Y-11338008D01*
X12903396Y-11338008D02*
X12912920Y-11347531D01*
X12912920Y-11347531D02*
X12922444Y-11366579D01*
X12922444Y-11366579D02*
X12931967Y-11404674D01*
X12931967Y-11404674D02*
X12931967Y-11452293D01*
X12931967Y-11452293D02*
X12922444Y-11490388D01*
X12922444Y-11490388D02*
X12912920Y-11509436D01*
X12912920Y-11509436D02*
X12903396Y-11518960D01*
X12903396Y-11518960D02*
X12884348Y-11528484D01*
X12884348Y-11528484D02*
X12865301Y-11528484D01*
X12865301Y-11528484D02*
X12846253Y-11518960D01*
X12846253Y-11518960D02*
X12836729Y-11509436D01*
X12836729Y-11509436D02*
X12827206Y-11490388D01*
X12827206Y-11490388D02*
X12817682Y-11452293D01*
X12817682Y-11452293D02*
X12817682Y-11404674D01*
X12817682Y-11404674D02*
X12827206Y-11366579D01*
X12827206Y-11366579D02*
X12836729Y-11347531D01*
X12836729Y-11347531D02*
X12846253Y-11338008D01*
X12846253Y-11338008D02*
X12865301Y-11328484D01*
X13008158Y-11347531D02*
X13017682Y-11338008D01*
X13017682Y-11338008D02*
X13036729Y-11328484D01*
X13036729Y-11328484D02*
X13084348Y-11328484D01*
X13084348Y-11328484D02*
X13103396Y-11338008D01*
X13103396Y-11338008D02*
X13112920Y-11347531D01*
X13112920Y-11347531D02*
X13122444Y-11366579D01*
X13122444Y-11366579D02*
X13122444Y-11385627D01*
X13122444Y-11385627D02*
X13112920Y-11414198D01*
X13112920Y-11414198D02*
X12998634Y-11528484D01*
X12998634Y-11528484D02*
X13122444Y-11528484D01*
X13198634Y-11328484D02*
X13198634Y-11366579D01*
X13274825Y-11328484D02*
X13274825Y-11366579D01*
X13570063Y-11604674D02*
X13560539Y-11595150D01*
X13560539Y-11595150D02*
X13541491Y-11566579D01*
X13541491Y-11566579D02*
X13531968Y-11547531D01*
X13531968Y-11547531D02*
X13522444Y-11518960D01*
X13522444Y-11518960D02*
X13512920Y-11471341D01*
X13512920Y-11471341D02*
X13512920Y-11433246D01*
X13512920Y-11433246D02*
X13522444Y-11385627D01*
X13522444Y-11385627D02*
X13531968Y-11357055D01*
X13531968Y-11357055D02*
X13541491Y-11338008D01*
X13541491Y-11338008D02*
X13560539Y-11309436D01*
X13560539Y-11309436D02*
X13570063Y-11299912D01*
X13751015Y-11528484D02*
X13636729Y-11528484D01*
X13693872Y-11528484D02*
X13693872Y-11328484D01*
X13693872Y-11328484D02*
X13674825Y-11357055D01*
X13674825Y-11357055D02*
X13655777Y-11376103D01*
X13655777Y-11376103D02*
X13636729Y-11385627D01*
X13827206Y-11347531D02*
X13836729Y-11338008D01*
X13836729Y-11338008D02*
X13855777Y-11328484D01*
X13855777Y-11328484D02*
X13903396Y-11328484D01*
X13903396Y-11328484D02*
X13922444Y-11338008D01*
X13922444Y-11338008D02*
X13931968Y-11347531D01*
X13931968Y-11347531D02*
X13941491Y-11366579D01*
X13941491Y-11366579D02*
X13941491Y-11385627D01*
X13941491Y-11385627D02*
X13931968Y-11414198D01*
X13931968Y-11414198D02*
X13817682Y-11528484D01*
X13817682Y-11528484D02*
X13941491Y-11528484D01*
X14179587Y-11528484D02*
X14179587Y-11328484D01*
X14265301Y-11528484D02*
X14265301Y-11423722D01*
X14265301Y-11423722D02*
X14255777Y-11404674D01*
X14255777Y-11404674D02*
X14236730Y-11395150D01*
X14236730Y-11395150D02*
X14208158Y-11395150D01*
X14208158Y-11395150D02*
X14189110Y-11404674D01*
X14189110Y-11404674D02*
X14179587Y-11414198D01*
X14389110Y-11528484D02*
X14370063Y-11518960D01*
X14370063Y-11518960D02*
X14360539Y-11509436D01*
X14360539Y-11509436D02*
X14351015Y-11490388D01*
X14351015Y-11490388D02*
X14351015Y-11433246D01*
X14351015Y-11433246D02*
X14360539Y-11414198D01*
X14360539Y-11414198D02*
X14370063Y-11404674D01*
X14370063Y-11404674D02*
X14389110Y-11395150D01*
X14389110Y-11395150D02*
X14417682Y-11395150D01*
X14417682Y-11395150D02*
X14436730Y-11404674D01*
X14436730Y-11404674D02*
X14446253Y-11414198D01*
X14446253Y-11414198D02*
X14455777Y-11433246D01*
X14455777Y-11433246D02*
X14455777Y-11490388D01*
X14455777Y-11490388D02*
X14446253Y-11509436D01*
X14446253Y-11509436D02*
X14436730Y-11518960D01*
X14436730Y-11518960D02*
X14417682Y-11528484D01*
X14417682Y-11528484D02*
X14389110Y-11528484D01*
X14570063Y-11528484D02*
X14551015Y-11518960D01*
X14551015Y-11518960D02*
X14541491Y-11499912D01*
X14541491Y-11499912D02*
X14541491Y-11328484D01*
X14722444Y-11518960D02*
X14703396Y-11528484D01*
X14703396Y-11528484D02*
X14665301Y-11528484D01*
X14665301Y-11528484D02*
X14646253Y-11518960D01*
X14646253Y-11518960D02*
X14636730Y-11499912D01*
X14636730Y-11499912D02*
X14636730Y-11423722D01*
X14636730Y-11423722D02*
X14646253Y-11404674D01*
X14646253Y-11404674D02*
X14665301Y-11395150D01*
X14665301Y-11395150D02*
X14703396Y-11395150D01*
X14703396Y-11395150D02*
X14722444Y-11404674D01*
X14722444Y-11404674D02*
X14731968Y-11423722D01*
X14731968Y-11423722D02*
X14731968Y-11442769D01*
X14731968Y-11442769D02*
X14636730Y-11461817D01*
X14808158Y-11518960D02*
X14827206Y-11528484D01*
X14827206Y-11528484D02*
X14865301Y-11528484D01*
X14865301Y-11528484D02*
X14884349Y-11518960D01*
X14884349Y-11518960D02*
X14893872Y-11499912D01*
X14893872Y-11499912D02*
X14893872Y-11490388D01*
X14893872Y-11490388D02*
X14884349Y-11471341D01*
X14884349Y-11471341D02*
X14865301Y-11461817D01*
X14865301Y-11461817D02*
X14836730Y-11461817D01*
X14836730Y-11461817D02*
X14817682Y-11452293D01*
X14817682Y-11452293D02*
X14808158Y-11433246D01*
X14808158Y-11433246D02*
X14808158Y-11423722D01*
X14808158Y-11423722D02*
X14817682Y-11404674D01*
X14817682Y-11404674D02*
X14836730Y-11395150D01*
X14836730Y-11395150D02*
X14865301Y-11395150D01*
X14865301Y-11395150D02*
X14884349Y-11404674D01*
X14960539Y-11604674D02*
X14970063Y-11595150D01*
X14970063Y-11595150D02*
X14989111Y-11566579D01*
X14989111Y-11566579D02*
X14998634Y-11547531D01*
X14998634Y-11547531D02*
X15008158Y-11518960D01*
X15008158Y-11518960D02*
X15017682Y-11471341D01*
X15017682Y-11471341D02*
X15017682Y-11433246D01*
X15017682Y-11433246D02*
X15008158Y-11385627D01*
X15008158Y-11385627D02*
X14998634Y-11357055D01*
X14998634Y-11357055D02*
X14989111Y-11338008D01*
X14989111Y-11338008D02*
X14970063Y-11309436D01*
X14970063Y-11309436D02*
X14960539Y-11299912D01*
D13*
X9935000Y-11761000D02*
X9995000Y-11701000D01*
X9935000Y-11641000D01*
X9875000Y-11701000D01*
X9935000Y-11761000D01*
D11*
X10360539Y-11792484D02*
X10246253Y-11792484D01*
X10303396Y-11792484D02*
X10303396Y-11592484D01*
X10303396Y-11592484D02*
X10284348Y-11621055D01*
X10284348Y-11621055D02*
X10265301Y-11640103D01*
X10265301Y-11640103D02*
X10246253Y-11649627D01*
X10446253Y-11773436D02*
X10455777Y-11782960D01*
X10455777Y-11782960D02*
X10446253Y-11792484D01*
X10446253Y-11792484D02*
X10436729Y-11782960D01*
X10436729Y-11782960D02*
X10446253Y-11773436D01*
X10446253Y-11773436D02*
X10446253Y-11792484D01*
X10531967Y-11611531D02*
X10541491Y-11602008D01*
X10541491Y-11602008D02*
X10560539Y-11592484D01*
X10560539Y-11592484D02*
X10608158Y-11592484D01*
X10608158Y-11592484D02*
X10627205Y-11602008D01*
X10627205Y-11602008D02*
X10636729Y-11611531D01*
X10636729Y-11611531D02*
X10646253Y-11630579D01*
X10646253Y-11630579D02*
X10646253Y-11649627D01*
X10646253Y-11649627D02*
X10636729Y-11678198D01*
X10636729Y-11678198D02*
X10522444Y-11792484D01*
X10522444Y-11792484D02*
X10646253Y-11792484D01*
X10770063Y-11592484D02*
X10789110Y-11592484D01*
X10789110Y-11592484D02*
X10808158Y-11602008D01*
X10808158Y-11602008D02*
X10817682Y-11611531D01*
X10817682Y-11611531D02*
X10827205Y-11630579D01*
X10827205Y-11630579D02*
X10836729Y-11668674D01*
X10836729Y-11668674D02*
X10836729Y-11716293D01*
X10836729Y-11716293D02*
X10827205Y-11754388D01*
X10827205Y-11754388D02*
X10817682Y-11773436D01*
X10817682Y-11773436D02*
X10808158Y-11782960D01*
X10808158Y-11782960D02*
X10789110Y-11792484D01*
X10789110Y-11792484D02*
X10770063Y-11792484D01*
X10770063Y-11792484D02*
X10751015Y-11782960D01*
X10751015Y-11782960D02*
X10741491Y-11773436D01*
X10741491Y-11773436D02*
X10731967Y-11754388D01*
X10731967Y-11754388D02*
X10722444Y-11716293D01*
X10722444Y-11716293D02*
X10722444Y-11668674D01*
X10722444Y-11668674D02*
X10731967Y-11630579D01*
X10731967Y-11630579D02*
X10741491Y-11611531D01*
X10741491Y-11611531D02*
X10751015Y-11602008D01*
X10751015Y-11602008D02*
X10770063Y-11592484D01*
X10960539Y-11592484D02*
X10979586Y-11592484D01*
X10979586Y-11592484D02*
X10998634Y-11602008D01*
X10998634Y-11602008D02*
X11008158Y-11611531D01*
X11008158Y-11611531D02*
X11017682Y-11630579D01*
X11017682Y-11630579D02*
X11027205Y-11668674D01*
X11027205Y-11668674D02*
X11027205Y-11716293D01*
X11027205Y-11716293D02*
X11017682Y-11754388D01*
X11017682Y-11754388D02*
X11008158Y-11773436D01*
X11008158Y-11773436D02*
X10998634Y-11782960D01*
X10998634Y-11782960D02*
X10979586Y-11792484D01*
X10979586Y-11792484D02*
X10960539Y-11792484D01*
X10960539Y-11792484D02*
X10941491Y-11782960D01*
X10941491Y-11782960D02*
X10931967Y-11773436D01*
X10931967Y-11773436D02*
X10922444Y-11754388D01*
X10922444Y-11754388D02*
X10912920Y-11716293D01*
X10912920Y-11716293D02*
X10912920Y-11668674D01*
X10912920Y-11668674D02*
X10922444Y-11630579D01*
X10922444Y-11630579D02*
X10931967Y-11611531D01*
X10931967Y-11611531D02*
X10941491Y-11602008D01*
X10941491Y-11602008D02*
X10960539Y-11592484D01*
X11112920Y-11792484D02*
X11112920Y-11659150D01*
X11112920Y-11678198D02*
X11122444Y-11668674D01*
X11122444Y-11668674D02*
X11141491Y-11659150D01*
X11141491Y-11659150D02*
X11170063Y-11659150D01*
X11170063Y-11659150D02*
X11189110Y-11668674D01*
X11189110Y-11668674D02*
X11198634Y-11687722D01*
X11198634Y-11687722D02*
X11198634Y-11792484D01*
X11198634Y-11687722D02*
X11208158Y-11668674D01*
X11208158Y-11668674D02*
X11227205Y-11659150D01*
X11227205Y-11659150D02*
X11255777Y-11659150D01*
X11255777Y-11659150D02*
X11274824Y-11668674D01*
X11274824Y-11668674D02*
X11284348Y-11687722D01*
X11284348Y-11687722D02*
X11284348Y-11792484D01*
X11379586Y-11792484D02*
X11379586Y-11659150D01*
X11379586Y-11678198D02*
X11389110Y-11668674D01*
X11389110Y-11668674D02*
X11408158Y-11659150D01*
X11408158Y-11659150D02*
X11436729Y-11659150D01*
X11436729Y-11659150D02*
X11455777Y-11668674D01*
X11455777Y-11668674D02*
X11465301Y-11687722D01*
X11465301Y-11687722D02*
X11465301Y-11792484D01*
X11465301Y-11687722D02*
X11474824Y-11668674D01*
X11474824Y-11668674D02*
X11493872Y-11659150D01*
X11493872Y-11659150D02*
X11522443Y-11659150D01*
X11522443Y-11659150D02*
X11541491Y-11668674D01*
X11541491Y-11668674D02*
X11551015Y-11687722D01*
X11551015Y-11687722D02*
X11551015Y-11792484D01*
X11941491Y-11582960D02*
X11770063Y-11840103D01*
X12198634Y-11592484D02*
X12217682Y-11592484D01*
X12217682Y-11592484D02*
X12236729Y-11602008D01*
X12236729Y-11602008D02*
X12246253Y-11611531D01*
X12246253Y-11611531D02*
X12255777Y-11630579D01*
X12255777Y-11630579D02*
X12265301Y-11668674D01*
X12265301Y-11668674D02*
X12265301Y-11716293D01*
X12265301Y-11716293D02*
X12255777Y-11754388D01*
X12255777Y-11754388D02*
X12246253Y-11773436D01*
X12246253Y-11773436D02*
X12236729Y-11782960D01*
X12236729Y-11782960D02*
X12217682Y-11792484D01*
X12217682Y-11792484D02*
X12198634Y-11792484D01*
X12198634Y-11792484D02*
X12179586Y-11782960D01*
X12179586Y-11782960D02*
X12170063Y-11773436D01*
X12170063Y-11773436D02*
X12160539Y-11754388D01*
X12160539Y-11754388D02*
X12151015Y-11716293D01*
X12151015Y-11716293D02*
X12151015Y-11668674D01*
X12151015Y-11668674D02*
X12160539Y-11630579D01*
X12160539Y-11630579D02*
X12170063Y-11611531D01*
X12170063Y-11611531D02*
X12179586Y-11602008D01*
X12179586Y-11602008D02*
X12198634Y-11592484D01*
X12351015Y-11773436D02*
X12360539Y-11782960D01*
X12360539Y-11782960D02*
X12351015Y-11792484D01*
X12351015Y-11792484D02*
X12341491Y-11782960D01*
X12341491Y-11782960D02*
X12351015Y-11773436D01*
X12351015Y-11773436D02*
X12351015Y-11792484D01*
X12484348Y-11592484D02*
X12503396Y-11592484D01*
X12503396Y-11592484D02*
X12522444Y-11602008D01*
X12522444Y-11602008D02*
X12531967Y-11611531D01*
X12531967Y-11611531D02*
X12541491Y-11630579D01*
X12541491Y-11630579D02*
X12551015Y-11668674D01*
X12551015Y-11668674D02*
X12551015Y-11716293D01*
X12551015Y-11716293D02*
X12541491Y-11754388D01*
X12541491Y-11754388D02*
X12531967Y-11773436D01*
X12531967Y-11773436D02*
X12522444Y-11782960D01*
X12522444Y-11782960D02*
X12503396Y-11792484D01*
X12503396Y-11792484D02*
X12484348Y-11792484D01*
X12484348Y-11792484D02*
X12465301Y-11782960D01*
X12465301Y-11782960D02*
X12455777Y-11773436D01*
X12455777Y-11773436D02*
X12446253Y-11754388D01*
X12446253Y-11754388D02*
X12436729Y-11716293D01*
X12436729Y-11716293D02*
X12436729Y-11668674D01*
X12436729Y-11668674D02*
X12446253Y-11630579D01*
X12446253Y-11630579D02*
X12455777Y-11611531D01*
X12455777Y-11611531D02*
X12465301Y-11602008D01*
X12465301Y-11602008D02*
X12484348Y-11592484D01*
X12722444Y-11659150D02*
X12722444Y-11792484D01*
X12674825Y-11582960D02*
X12627206Y-11725817D01*
X12627206Y-11725817D02*
X12751015Y-11725817D01*
X12808158Y-11592484D02*
X12941491Y-11592484D01*
X12941491Y-11592484D02*
X12855777Y-11792484D01*
X13008158Y-11611531D02*
X13017682Y-11602008D01*
X13017682Y-11602008D02*
X13036729Y-11592484D01*
X13036729Y-11592484D02*
X13084348Y-11592484D01*
X13084348Y-11592484D02*
X13103396Y-11602008D01*
X13103396Y-11602008D02*
X13112920Y-11611531D01*
X13112920Y-11611531D02*
X13122444Y-11630579D01*
X13122444Y-11630579D02*
X13122444Y-11649627D01*
X13122444Y-11649627D02*
X13112920Y-11678198D01*
X13112920Y-11678198D02*
X12998634Y-11792484D01*
X12998634Y-11792484D02*
X13122444Y-11792484D01*
X13198634Y-11592484D02*
X13198634Y-11630579D01*
X13274825Y-11592484D02*
X13274825Y-11630579D01*
X13570063Y-11868674D02*
X13560539Y-11859150D01*
X13560539Y-11859150D02*
X13541491Y-11830579D01*
X13541491Y-11830579D02*
X13531968Y-11811531D01*
X13531968Y-11811531D02*
X13522444Y-11782960D01*
X13522444Y-11782960D02*
X13512920Y-11735341D01*
X13512920Y-11735341D02*
X13512920Y-11697246D01*
X13512920Y-11697246D02*
X13522444Y-11649627D01*
X13522444Y-11649627D02*
X13531968Y-11621055D01*
X13531968Y-11621055D02*
X13541491Y-11602008D01*
X13541491Y-11602008D02*
X13560539Y-11573436D01*
X13560539Y-11573436D02*
X13570063Y-11563912D01*
X13751015Y-11792484D02*
X13636729Y-11792484D01*
X13693872Y-11792484D02*
X13693872Y-11592484D01*
X13693872Y-11592484D02*
X13674825Y-11621055D01*
X13674825Y-11621055D02*
X13655777Y-11640103D01*
X13655777Y-11640103D02*
X13636729Y-11649627D01*
X13874825Y-11592484D02*
X13893872Y-11592484D01*
X13893872Y-11592484D02*
X13912920Y-11602008D01*
X13912920Y-11602008D02*
X13922444Y-11611531D01*
X13922444Y-11611531D02*
X13931968Y-11630579D01*
X13931968Y-11630579D02*
X13941491Y-11668674D01*
X13941491Y-11668674D02*
X13941491Y-11716293D01*
X13941491Y-11716293D02*
X13931968Y-11754388D01*
X13931968Y-11754388D02*
X13922444Y-11773436D01*
X13922444Y-11773436D02*
X13912920Y-11782960D01*
X13912920Y-11782960D02*
X13893872Y-11792484D01*
X13893872Y-11792484D02*
X13874825Y-11792484D01*
X13874825Y-11792484D02*
X13855777Y-11782960D01*
X13855777Y-11782960D02*
X13846253Y-11773436D01*
X13846253Y-11773436D02*
X13836729Y-11754388D01*
X13836729Y-11754388D02*
X13827206Y-11716293D01*
X13827206Y-11716293D02*
X13827206Y-11668674D01*
X13827206Y-11668674D02*
X13836729Y-11630579D01*
X13836729Y-11630579D02*
X13846253Y-11611531D01*
X13846253Y-11611531D02*
X13855777Y-11602008D01*
X13855777Y-11602008D02*
X13874825Y-11592484D01*
X14179587Y-11792484D02*
X14179587Y-11592484D01*
X14265301Y-11792484D02*
X14265301Y-11687722D01*
X14265301Y-11687722D02*
X14255777Y-11668674D01*
X14255777Y-11668674D02*
X14236730Y-11659150D01*
X14236730Y-11659150D02*
X14208158Y-11659150D01*
X14208158Y-11659150D02*
X14189110Y-11668674D01*
X14189110Y-11668674D02*
X14179587Y-11678198D01*
X14389110Y-11792484D02*
X14370063Y-11782960D01*
X14370063Y-11782960D02*
X14360539Y-11773436D01*
X14360539Y-11773436D02*
X14351015Y-11754388D01*
X14351015Y-11754388D02*
X14351015Y-11697246D01*
X14351015Y-11697246D02*
X14360539Y-11678198D01*
X14360539Y-11678198D02*
X14370063Y-11668674D01*
X14370063Y-11668674D02*
X14389110Y-11659150D01*
X14389110Y-11659150D02*
X14417682Y-11659150D01*
X14417682Y-11659150D02*
X14436730Y-11668674D01*
X14436730Y-11668674D02*
X14446253Y-11678198D01*
X14446253Y-11678198D02*
X14455777Y-11697246D01*
X14455777Y-11697246D02*
X14455777Y-11754388D01*
X14455777Y-11754388D02*
X14446253Y-11773436D01*
X14446253Y-11773436D02*
X14436730Y-11782960D01*
X14436730Y-11782960D02*
X14417682Y-11792484D01*
X14417682Y-11792484D02*
X14389110Y-11792484D01*
X14570063Y-11792484D02*
X14551015Y-11782960D01*
X14551015Y-11782960D02*
X14541491Y-11763912D01*
X14541491Y-11763912D02*
X14541491Y-11592484D01*
X14722444Y-11782960D02*
X14703396Y-11792484D01*
X14703396Y-11792484D02*
X14665301Y-11792484D01*
X14665301Y-11792484D02*
X14646253Y-11782960D01*
X14646253Y-11782960D02*
X14636730Y-11763912D01*
X14636730Y-11763912D02*
X14636730Y-11687722D01*
X14636730Y-11687722D02*
X14646253Y-11668674D01*
X14646253Y-11668674D02*
X14665301Y-11659150D01*
X14665301Y-11659150D02*
X14703396Y-11659150D01*
X14703396Y-11659150D02*
X14722444Y-11668674D01*
X14722444Y-11668674D02*
X14731968Y-11687722D01*
X14731968Y-11687722D02*
X14731968Y-11706769D01*
X14731968Y-11706769D02*
X14636730Y-11725817D01*
X14808158Y-11782960D02*
X14827206Y-11792484D01*
X14827206Y-11792484D02*
X14865301Y-11792484D01*
X14865301Y-11792484D02*
X14884349Y-11782960D01*
X14884349Y-11782960D02*
X14893872Y-11763912D01*
X14893872Y-11763912D02*
X14893872Y-11754388D01*
X14893872Y-11754388D02*
X14884349Y-11735341D01*
X14884349Y-11735341D02*
X14865301Y-11725817D01*
X14865301Y-11725817D02*
X14836730Y-11725817D01*
X14836730Y-11725817D02*
X14817682Y-11716293D01*
X14817682Y-11716293D02*
X14808158Y-11697246D01*
X14808158Y-11697246D02*
X14808158Y-11687722D01*
X14808158Y-11687722D02*
X14817682Y-11668674D01*
X14817682Y-11668674D02*
X14836730Y-11659150D01*
X14836730Y-11659150D02*
X14865301Y-11659150D01*
X14865301Y-11659150D02*
X14884349Y-11668674D01*
X14960539Y-11868674D02*
X14970063Y-11859150D01*
X14970063Y-11859150D02*
X14989111Y-11830579D01*
X14989111Y-11830579D02*
X14998634Y-11811531D01*
X14998634Y-11811531D02*
X15008158Y-11782960D01*
X15008158Y-11782960D02*
X15017682Y-11735341D01*
X15017682Y-11735341D02*
X15017682Y-11697246D01*
X15017682Y-11697246D02*
X15008158Y-11649627D01*
X15008158Y-11649627D02*
X14998634Y-11621055D01*
X14998634Y-11621055D02*
X14989111Y-11602008D01*
X14989111Y-11602008D02*
X14970063Y-11573436D01*
X14970063Y-11573436D02*
X14960539Y-11563912D01*
M02*
