%TF.GenerationSoftware,KiCad,Pcbnew,8.0.2*%
%TF.CreationDate,2024-09-26T14:01:00+02:00*%
%TF.ProjectId,AMS Dongle,414d5320-446f-46e6-976c-652e6b696361,rev?*%
%TF.SameCoordinates,Original*%
%TF.FileFunction,Drillmap*%
%TF.FilePolarity,Positive*%
%FSLAX45Y45*%
G04 Gerber Fmt 4.5, Leading zero omitted, Abs format (unit mm)*
G04 Created by KiCad (PCBNEW 8.0.2) date 2024-09-26 14:01:00*
%MOMM*%
%LPD*%
G01*
G04 APERTURE LIST*
%ADD10C,0.100000*%
%ADD11C,0.200000*%
%ADD12C,0.270000*%
G04 APERTURE END LIST*
D10*
X16200000Y-4400000D02*
G75*
G02*
X16500000Y-4700000I0J-300000D01*
G01*
X16500000Y-9700000D02*
X16500000Y-4700000D01*
X10000000Y-4700000D02*
X10000000Y-6300000D01*
X10000000Y-6300000D02*
X10000000Y-8100000D01*
X10300000Y-10000000D02*
G75*
G02*
X10000000Y-9700000I0J300000D01*
G01*
X16050000Y-10000000D02*
X15592500Y-10000000D01*
X15592500Y-10000000D02*
X10550000Y-10000000D01*
X10300000Y-10000000D02*
X10550000Y-10000000D01*
X16050000Y-10000000D02*
X16200000Y-10000000D01*
X16500000Y-9700000D02*
G75*
G02*
X16200000Y-10000000I-300000J0D01*
G01*
X10000000Y-4700000D02*
G75*
G02*
X10300000Y-4400000I300000J0D01*
G01*
X10000000Y-8100000D02*
X10000000Y-9700000D01*
X16200000Y-4400000D02*
X10300000Y-4400000D01*
D11*
D10*
X14444000Y-9568000D02*
X14496000Y-9620000D01*
X14496000Y-9568000D02*
X14444000Y-9620000D01*
X15258500Y-9594000D02*
G75*
G02*
X15181500Y-9594000I-38500J0D01*
G01*
X15181500Y-9594000D02*
G75*
G02*
X15258500Y-9594000I38500J0D01*
G01*
D12*
X10350000Y-4615000D02*
X10350000Y-4885000D01*
X10215000Y-4750000D02*
X10485000Y-4750000D01*
X10350000Y-9515000D02*
X10350000Y-9785000D01*
X10215000Y-9650000D02*
X10485000Y-9650000D01*
X16150000Y-4615000D02*
X16150000Y-4885000D01*
X16015000Y-4750000D02*
X16285000Y-4750000D01*
X16150000Y-9515000D02*
X16150000Y-9785000D01*
X16015000Y-9650000D02*
X16285000Y-9650000D01*
D11*
X10255777Y-10316484D02*
X10255777Y-10116484D01*
X10255777Y-10116484D02*
X10303396Y-10116484D01*
X10303396Y-10116484D02*
X10331967Y-10126008D01*
X10331967Y-10126008D02*
X10351015Y-10145055D01*
X10351015Y-10145055D02*
X10360539Y-10164103D01*
X10360539Y-10164103D02*
X10370063Y-10202198D01*
X10370063Y-10202198D02*
X10370063Y-10230770D01*
X10370063Y-10230770D02*
X10360539Y-10268865D01*
X10360539Y-10268865D02*
X10351015Y-10287912D01*
X10351015Y-10287912D02*
X10331967Y-10306960D01*
X10331967Y-10306960D02*
X10303396Y-10316484D01*
X10303396Y-10316484D02*
X10255777Y-10316484D01*
X10455777Y-10316484D02*
X10455777Y-10183150D01*
X10455777Y-10221246D02*
X10465301Y-10202198D01*
X10465301Y-10202198D02*
X10474824Y-10192674D01*
X10474824Y-10192674D02*
X10493872Y-10183150D01*
X10493872Y-10183150D02*
X10512920Y-10183150D01*
X10579586Y-10316484D02*
X10579586Y-10183150D01*
X10579586Y-10116484D02*
X10570063Y-10126008D01*
X10570063Y-10126008D02*
X10579586Y-10135531D01*
X10579586Y-10135531D02*
X10589110Y-10126008D01*
X10589110Y-10126008D02*
X10579586Y-10116484D01*
X10579586Y-10116484D02*
X10579586Y-10135531D01*
X10703396Y-10316484D02*
X10684348Y-10306960D01*
X10684348Y-10306960D02*
X10674824Y-10287912D01*
X10674824Y-10287912D02*
X10674824Y-10116484D01*
X10808158Y-10316484D02*
X10789110Y-10306960D01*
X10789110Y-10306960D02*
X10779586Y-10287912D01*
X10779586Y-10287912D02*
X10779586Y-10116484D01*
X11036729Y-10316484D02*
X11036729Y-10116484D01*
X11036729Y-10116484D02*
X11103396Y-10259341D01*
X11103396Y-10259341D02*
X11170063Y-10116484D01*
X11170063Y-10116484D02*
X11170063Y-10316484D01*
X11351015Y-10316484D02*
X11351015Y-10211722D01*
X11351015Y-10211722D02*
X11341491Y-10192674D01*
X11341491Y-10192674D02*
X11322443Y-10183150D01*
X11322443Y-10183150D02*
X11284348Y-10183150D01*
X11284348Y-10183150D02*
X11265301Y-10192674D01*
X11351015Y-10306960D02*
X11331967Y-10316484D01*
X11331967Y-10316484D02*
X11284348Y-10316484D01*
X11284348Y-10316484D02*
X11265301Y-10306960D01*
X11265301Y-10306960D02*
X11255777Y-10287912D01*
X11255777Y-10287912D02*
X11255777Y-10268865D01*
X11255777Y-10268865D02*
X11265301Y-10249817D01*
X11265301Y-10249817D02*
X11284348Y-10240293D01*
X11284348Y-10240293D02*
X11331967Y-10240293D01*
X11331967Y-10240293D02*
X11351015Y-10230770D01*
X11446253Y-10183150D02*
X11446253Y-10383150D01*
X11446253Y-10192674D02*
X11465301Y-10183150D01*
X11465301Y-10183150D02*
X11503396Y-10183150D01*
X11503396Y-10183150D02*
X11522443Y-10192674D01*
X11522443Y-10192674D02*
X11531967Y-10202198D01*
X11531967Y-10202198D02*
X11541491Y-10221246D01*
X11541491Y-10221246D02*
X11541491Y-10278389D01*
X11541491Y-10278389D02*
X11531967Y-10297436D01*
X11531967Y-10297436D02*
X11522443Y-10306960D01*
X11522443Y-10306960D02*
X11503396Y-10316484D01*
X11503396Y-10316484D02*
X11465301Y-10316484D01*
X11465301Y-10316484D02*
X11446253Y-10306960D01*
X11627205Y-10297436D02*
X11636729Y-10306960D01*
X11636729Y-10306960D02*
X11627205Y-10316484D01*
X11627205Y-10316484D02*
X11617682Y-10306960D01*
X11617682Y-10306960D02*
X11627205Y-10297436D01*
X11627205Y-10297436D02*
X11627205Y-10316484D01*
X11627205Y-10192674D02*
X11636729Y-10202198D01*
X11636729Y-10202198D02*
X11627205Y-10211722D01*
X11627205Y-10211722D02*
X11617682Y-10202198D01*
X11617682Y-10202198D02*
X11627205Y-10192674D01*
X11627205Y-10192674D02*
X11627205Y-10211722D01*
D10*
X9943000Y-10619000D02*
X9995000Y-10671000D01*
X9995000Y-10619000D02*
X9943000Y-10671000D01*
D11*
X10293872Y-10536484D02*
X10312920Y-10536484D01*
X10312920Y-10536484D02*
X10331967Y-10546008D01*
X10331967Y-10546008D02*
X10341491Y-10555531D01*
X10341491Y-10555531D02*
X10351015Y-10574579D01*
X10351015Y-10574579D02*
X10360539Y-10612674D01*
X10360539Y-10612674D02*
X10360539Y-10660293D01*
X10360539Y-10660293D02*
X10351015Y-10698389D01*
X10351015Y-10698389D02*
X10341491Y-10717436D01*
X10341491Y-10717436D02*
X10331967Y-10726960D01*
X10331967Y-10726960D02*
X10312920Y-10736484D01*
X10312920Y-10736484D02*
X10293872Y-10736484D01*
X10293872Y-10736484D02*
X10274824Y-10726960D01*
X10274824Y-10726960D02*
X10265301Y-10717436D01*
X10265301Y-10717436D02*
X10255777Y-10698389D01*
X10255777Y-10698389D02*
X10246253Y-10660293D01*
X10246253Y-10660293D02*
X10246253Y-10612674D01*
X10246253Y-10612674D02*
X10255777Y-10574579D01*
X10255777Y-10574579D02*
X10265301Y-10555531D01*
X10265301Y-10555531D02*
X10274824Y-10546008D01*
X10274824Y-10546008D02*
X10293872Y-10536484D01*
X10446253Y-10717436D02*
X10455777Y-10726960D01*
X10455777Y-10726960D02*
X10446253Y-10736484D01*
X10446253Y-10736484D02*
X10436729Y-10726960D01*
X10436729Y-10726960D02*
X10446253Y-10717436D01*
X10446253Y-10717436D02*
X10446253Y-10736484D01*
X10636729Y-10536484D02*
X10541491Y-10536484D01*
X10541491Y-10536484D02*
X10531967Y-10631722D01*
X10531967Y-10631722D02*
X10541491Y-10622198D01*
X10541491Y-10622198D02*
X10560539Y-10612674D01*
X10560539Y-10612674D02*
X10608158Y-10612674D01*
X10608158Y-10612674D02*
X10627205Y-10622198D01*
X10627205Y-10622198D02*
X10636729Y-10631722D01*
X10636729Y-10631722D02*
X10646253Y-10650770D01*
X10646253Y-10650770D02*
X10646253Y-10698389D01*
X10646253Y-10698389D02*
X10636729Y-10717436D01*
X10636729Y-10717436D02*
X10627205Y-10726960D01*
X10627205Y-10726960D02*
X10608158Y-10736484D01*
X10608158Y-10736484D02*
X10560539Y-10736484D01*
X10560539Y-10736484D02*
X10541491Y-10726960D01*
X10541491Y-10726960D02*
X10531967Y-10717436D01*
X10722444Y-10555531D02*
X10731967Y-10546008D01*
X10731967Y-10546008D02*
X10751015Y-10536484D01*
X10751015Y-10536484D02*
X10798634Y-10536484D01*
X10798634Y-10536484D02*
X10817682Y-10546008D01*
X10817682Y-10546008D02*
X10827205Y-10555531D01*
X10827205Y-10555531D02*
X10836729Y-10574579D01*
X10836729Y-10574579D02*
X10836729Y-10593627D01*
X10836729Y-10593627D02*
X10827205Y-10622198D01*
X10827205Y-10622198D02*
X10712920Y-10736484D01*
X10712920Y-10736484D02*
X10836729Y-10736484D01*
X10960539Y-10536484D02*
X10979586Y-10536484D01*
X10979586Y-10536484D02*
X10998634Y-10546008D01*
X10998634Y-10546008D02*
X11008158Y-10555531D01*
X11008158Y-10555531D02*
X11017682Y-10574579D01*
X11017682Y-10574579D02*
X11027205Y-10612674D01*
X11027205Y-10612674D02*
X11027205Y-10660293D01*
X11027205Y-10660293D02*
X11017682Y-10698389D01*
X11017682Y-10698389D02*
X11008158Y-10717436D01*
X11008158Y-10717436D02*
X10998634Y-10726960D01*
X10998634Y-10726960D02*
X10979586Y-10736484D01*
X10979586Y-10736484D02*
X10960539Y-10736484D01*
X10960539Y-10736484D02*
X10941491Y-10726960D01*
X10941491Y-10726960D02*
X10931967Y-10717436D01*
X10931967Y-10717436D02*
X10922444Y-10698389D01*
X10922444Y-10698389D02*
X10912920Y-10660293D01*
X10912920Y-10660293D02*
X10912920Y-10612674D01*
X10912920Y-10612674D02*
X10922444Y-10574579D01*
X10922444Y-10574579D02*
X10931967Y-10555531D01*
X10931967Y-10555531D02*
X10941491Y-10546008D01*
X10941491Y-10546008D02*
X10960539Y-10536484D01*
X11112920Y-10736484D02*
X11112920Y-10603150D01*
X11112920Y-10622198D02*
X11122444Y-10612674D01*
X11122444Y-10612674D02*
X11141491Y-10603150D01*
X11141491Y-10603150D02*
X11170063Y-10603150D01*
X11170063Y-10603150D02*
X11189110Y-10612674D01*
X11189110Y-10612674D02*
X11198634Y-10631722D01*
X11198634Y-10631722D02*
X11198634Y-10736484D01*
X11198634Y-10631722D02*
X11208158Y-10612674D01*
X11208158Y-10612674D02*
X11227205Y-10603150D01*
X11227205Y-10603150D02*
X11255777Y-10603150D01*
X11255777Y-10603150D02*
X11274824Y-10612674D01*
X11274824Y-10612674D02*
X11284348Y-10631722D01*
X11284348Y-10631722D02*
X11284348Y-10736484D01*
X11379586Y-10736484D02*
X11379586Y-10603150D01*
X11379586Y-10622198D02*
X11389110Y-10612674D01*
X11389110Y-10612674D02*
X11408158Y-10603150D01*
X11408158Y-10603150D02*
X11436729Y-10603150D01*
X11436729Y-10603150D02*
X11455777Y-10612674D01*
X11455777Y-10612674D02*
X11465301Y-10631722D01*
X11465301Y-10631722D02*
X11465301Y-10736484D01*
X11465301Y-10631722D02*
X11474824Y-10612674D01*
X11474824Y-10612674D02*
X11493872Y-10603150D01*
X11493872Y-10603150D02*
X11522443Y-10603150D01*
X11522443Y-10603150D02*
X11541491Y-10612674D01*
X11541491Y-10612674D02*
X11551015Y-10631722D01*
X11551015Y-10631722D02*
X11551015Y-10736484D01*
X11941491Y-10526960D02*
X11770063Y-10784103D01*
X12198634Y-10536484D02*
X12217682Y-10536484D01*
X12217682Y-10536484D02*
X12236729Y-10546008D01*
X12236729Y-10546008D02*
X12246253Y-10555531D01*
X12246253Y-10555531D02*
X12255777Y-10574579D01*
X12255777Y-10574579D02*
X12265301Y-10612674D01*
X12265301Y-10612674D02*
X12265301Y-10660293D01*
X12265301Y-10660293D02*
X12255777Y-10698389D01*
X12255777Y-10698389D02*
X12246253Y-10717436D01*
X12246253Y-10717436D02*
X12236729Y-10726960D01*
X12236729Y-10726960D02*
X12217682Y-10736484D01*
X12217682Y-10736484D02*
X12198634Y-10736484D01*
X12198634Y-10736484D02*
X12179586Y-10726960D01*
X12179586Y-10726960D02*
X12170063Y-10717436D01*
X12170063Y-10717436D02*
X12160539Y-10698389D01*
X12160539Y-10698389D02*
X12151015Y-10660293D01*
X12151015Y-10660293D02*
X12151015Y-10612674D01*
X12151015Y-10612674D02*
X12160539Y-10574579D01*
X12160539Y-10574579D02*
X12170063Y-10555531D01*
X12170063Y-10555531D02*
X12179586Y-10546008D01*
X12179586Y-10546008D02*
X12198634Y-10536484D01*
X12351015Y-10717436D02*
X12360539Y-10726960D01*
X12360539Y-10726960D02*
X12351015Y-10736484D01*
X12351015Y-10736484D02*
X12341491Y-10726960D01*
X12341491Y-10726960D02*
X12351015Y-10717436D01*
X12351015Y-10717436D02*
X12351015Y-10736484D01*
X12484348Y-10536484D02*
X12503396Y-10536484D01*
X12503396Y-10536484D02*
X12522444Y-10546008D01*
X12522444Y-10546008D02*
X12531967Y-10555531D01*
X12531967Y-10555531D02*
X12541491Y-10574579D01*
X12541491Y-10574579D02*
X12551015Y-10612674D01*
X12551015Y-10612674D02*
X12551015Y-10660293D01*
X12551015Y-10660293D02*
X12541491Y-10698389D01*
X12541491Y-10698389D02*
X12531967Y-10717436D01*
X12531967Y-10717436D02*
X12522444Y-10726960D01*
X12522444Y-10726960D02*
X12503396Y-10736484D01*
X12503396Y-10736484D02*
X12484348Y-10736484D01*
X12484348Y-10736484D02*
X12465301Y-10726960D01*
X12465301Y-10726960D02*
X12455777Y-10717436D01*
X12455777Y-10717436D02*
X12446253Y-10698389D01*
X12446253Y-10698389D02*
X12436729Y-10660293D01*
X12436729Y-10660293D02*
X12436729Y-10612674D01*
X12436729Y-10612674D02*
X12446253Y-10574579D01*
X12446253Y-10574579D02*
X12455777Y-10555531D01*
X12455777Y-10555531D02*
X12465301Y-10546008D01*
X12465301Y-10546008D02*
X12484348Y-10536484D01*
X12627206Y-10555531D02*
X12636729Y-10546008D01*
X12636729Y-10546008D02*
X12655777Y-10536484D01*
X12655777Y-10536484D02*
X12703396Y-10536484D01*
X12703396Y-10536484D02*
X12722444Y-10546008D01*
X12722444Y-10546008D02*
X12731967Y-10555531D01*
X12731967Y-10555531D02*
X12741491Y-10574579D01*
X12741491Y-10574579D02*
X12741491Y-10593627D01*
X12741491Y-10593627D02*
X12731967Y-10622198D01*
X12731967Y-10622198D02*
X12617682Y-10736484D01*
X12617682Y-10736484D02*
X12741491Y-10736484D01*
X12865301Y-10536484D02*
X12884348Y-10536484D01*
X12884348Y-10536484D02*
X12903396Y-10546008D01*
X12903396Y-10546008D02*
X12912920Y-10555531D01*
X12912920Y-10555531D02*
X12922444Y-10574579D01*
X12922444Y-10574579D02*
X12931967Y-10612674D01*
X12931967Y-10612674D02*
X12931967Y-10660293D01*
X12931967Y-10660293D02*
X12922444Y-10698389D01*
X12922444Y-10698389D02*
X12912920Y-10717436D01*
X12912920Y-10717436D02*
X12903396Y-10726960D01*
X12903396Y-10726960D02*
X12884348Y-10736484D01*
X12884348Y-10736484D02*
X12865301Y-10736484D01*
X12865301Y-10736484D02*
X12846253Y-10726960D01*
X12846253Y-10726960D02*
X12836729Y-10717436D01*
X12836729Y-10717436D02*
X12827206Y-10698389D01*
X12827206Y-10698389D02*
X12817682Y-10660293D01*
X12817682Y-10660293D02*
X12817682Y-10612674D01*
X12817682Y-10612674D02*
X12827206Y-10574579D01*
X12827206Y-10574579D02*
X12836729Y-10555531D01*
X12836729Y-10555531D02*
X12846253Y-10546008D01*
X12846253Y-10546008D02*
X12865301Y-10536484D01*
X13112920Y-10536484D02*
X13017682Y-10536484D01*
X13017682Y-10536484D02*
X13008158Y-10631722D01*
X13008158Y-10631722D02*
X13017682Y-10622198D01*
X13017682Y-10622198D02*
X13036729Y-10612674D01*
X13036729Y-10612674D02*
X13084348Y-10612674D01*
X13084348Y-10612674D02*
X13103396Y-10622198D01*
X13103396Y-10622198D02*
X13112920Y-10631722D01*
X13112920Y-10631722D02*
X13122444Y-10650770D01*
X13122444Y-10650770D02*
X13122444Y-10698389D01*
X13122444Y-10698389D02*
X13112920Y-10717436D01*
X13112920Y-10717436D02*
X13103396Y-10726960D01*
X13103396Y-10726960D02*
X13084348Y-10736484D01*
X13084348Y-10736484D02*
X13036729Y-10736484D01*
X13036729Y-10736484D02*
X13017682Y-10726960D01*
X13017682Y-10726960D02*
X13008158Y-10717436D01*
X13198634Y-10536484D02*
X13198634Y-10574579D01*
X13274825Y-10536484D02*
X13274825Y-10574579D01*
X13570063Y-10812674D02*
X13560539Y-10803150D01*
X13560539Y-10803150D02*
X13541491Y-10774579D01*
X13541491Y-10774579D02*
X13531968Y-10755531D01*
X13531968Y-10755531D02*
X13522444Y-10726960D01*
X13522444Y-10726960D02*
X13512920Y-10679341D01*
X13512920Y-10679341D02*
X13512920Y-10641246D01*
X13512920Y-10641246D02*
X13522444Y-10593627D01*
X13522444Y-10593627D02*
X13531968Y-10565055D01*
X13531968Y-10565055D02*
X13541491Y-10546008D01*
X13541491Y-10546008D02*
X13560539Y-10517436D01*
X13560539Y-10517436D02*
X13570063Y-10507912D01*
X13751015Y-10736484D02*
X13636729Y-10736484D01*
X13693872Y-10736484D02*
X13693872Y-10536484D01*
X13693872Y-10536484D02*
X13674825Y-10565055D01*
X13674825Y-10565055D02*
X13655777Y-10584103D01*
X13655777Y-10584103D02*
X13636729Y-10593627D01*
X13989110Y-10736484D02*
X13989110Y-10536484D01*
X14074825Y-10736484D02*
X14074825Y-10631722D01*
X14074825Y-10631722D02*
X14065301Y-10612674D01*
X14065301Y-10612674D02*
X14046253Y-10603150D01*
X14046253Y-10603150D02*
X14017682Y-10603150D01*
X14017682Y-10603150D02*
X13998634Y-10612674D01*
X13998634Y-10612674D02*
X13989110Y-10622198D01*
X14198634Y-10736484D02*
X14179587Y-10726960D01*
X14179587Y-10726960D02*
X14170063Y-10717436D01*
X14170063Y-10717436D02*
X14160539Y-10698389D01*
X14160539Y-10698389D02*
X14160539Y-10641246D01*
X14160539Y-10641246D02*
X14170063Y-10622198D01*
X14170063Y-10622198D02*
X14179587Y-10612674D01*
X14179587Y-10612674D02*
X14198634Y-10603150D01*
X14198634Y-10603150D02*
X14227206Y-10603150D01*
X14227206Y-10603150D02*
X14246253Y-10612674D01*
X14246253Y-10612674D02*
X14255777Y-10622198D01*
X14255777Y-10622198D02*
X14265301Y-10641246D01*
X14265301Y-10641246D02*
X14265301Y-10698389D01*
X14265301Y-10698389D02*
X14255777Y-10717436D01*
X14255777Y-10717436D02*
X14246253Y-10726960D01*
X14246253Y-10726960D02*
X14227206Y-10736484D01*
X14227206Y-10736484D02*
X14198634Y-10736484D01*
X14379587Y-10736484D02*
X14360539Y-10726960D01*
X14360539Y-10726960D02*
X14351015Y-10707912D01*
X14351015Y-10707912D02*
X14351015Y-10536484D01*
X14531968Y-10726960D02*
X14512920Y-10736484D01*
X14512920Y-10736484D02*
X14474825Y-10736484D01*
X14474825Y-10736484D02*
X14455777Y-10726960D01*
X14455777Y-10726960D02*
X14446253Y-10707912D01*
X14446253Y-10707912D02*
X14446253Y-10631722D01*
X14446253Y-10631722D02*
X14455777Y-10612674D01*
X14455777Y-10612674D02*
X14474825Y-10603150D01*
X14474825Y-10603150D02*
X14512920Y-10603150D01*
X14512920Y-10603150D02*
X14531968Y-10612674D01*
X14531968Y-10612674D02*
X14541491Y-10631722D01*
X14541491Y-10631722D02*
X14541491Y-10650770D01*
X14541491Y-10650770D02*
X14446253Y-10669817D01*
X14608158Y-10812674D02*
X14617682Y-10803150D01*
X14617682Y-10803150D02*
X14636730Y-10774579D01*
X14636730Y-10774579D02*
X14646253Y-10755531D01*
X14646253Y-10755531D02*
X14655777Y-10726960D01*
X14655777Y-10726960D02*
X14665301Y-10679341D01*
X14665301Y-10679341D02*
X14665301Y-10641246D01*
X14665301Y-10641246D02*
X14655777Y-10593627D01*
X14655777Y-10593627D02*
X14646253Y-10565055D01*
X14646253Y-10565055D02*
X14636730Y-10546008D01*
X14636730Y-10546008D02*
X14617682Y-10517436D01*
X14617682Y-10517436D02*
X14608158Y-10507912D01*
X14970063Y-10812674D02*
X14960539Y-10803150D01*
X14960539Y-10803150D02*
X14941491Y-10774579D01*
X14941491Y-10774579D02*
X14931968Y-10755531D01*
X14931968Y-10755531D02*
X14922444Y-10726960D01*
X14922444Y-10726960D02*
X14912920Y-10679341D01*
X14912920Y-10679341D02*
X14912920Y-10641246D01*
X14912920Y-10641246D02*
X14922444Y-10593627D01*
X14922444Y-10593627D02*
X14931968Y-10565055D01*
X14931968Y-10565055D02*
X14941491Y-10546008D01*
X14941491Y-10546008D02*
X14960539Y-10517436D01*
X14960539Y-10517436D02*
X14970063Y-10507912D01*
X15046253Y-10603150D02*
X15046253Y-10736484D01*
X15046253Y-10622198D02*
X15055777Y-10612674D01*
X15055777Y-10612674D02*
X15074825Y-10603150D01*
X15074825Y-10603150D02*
X15103396Y-10603150D01*
X15103396Y-10603150D02*
X15122444Y-10612674D01*
X15122444Y-10612674D02*
X15131968Y-10631722D01*
X15131968Y-10631722D02*
X15131968Y-10736484D01*
X15255777Y-10736484D02*
X15236730Y-10726960D01*
X15236730Y-10726960D02*
X15227206Y-10717436D01*
X15227206Y-10717436D02*
X15217682Y-10698389D01*
X15217682Y-10698389D02*
X15217682Y-10641246D01*
X15217682Y-10641246D02*
X15227206Y-10622198D01*
X15227206Y-10622198D02*
X15236730Y-10612674D01*
X15236730Y-10612674D02*
X15255777Y-10603150D01*
X15255777Y-10603150D02*
X15284349Y-10603150D01*
X15284349Y-10603150D02*
X15303396Y-10612674D01*
X15303396Y-10612674D02*
X15312920Y-10622198D01*
X15312920Y-10622198D02*
X15322444Y-10641246D01*
X15322444Y-10641246D02*
X15322444Y-10698389D01*
X15322444Y-10698389D02*
X15312920Y-10717436D01*
X15312920Y-10717436D02*
X15303396Y-10726960D01*
X15303396Y-10726960D02*
X15284349Y-10736484D01*
X15284349Y-10736484D02*
X15255777Y-10736484D01*
X15379587Y-10603150D02*
X15455777Y-10603150D01*
X15408158Y-10536484D02*
X15408158Y-10707912D01*
X15408158Y-10707912D02*
X15417682Y-10726960D01*
X15417682Y-10726960D02*
X15436730Y-10736484D01*
X15436730Y-10736484D02*
X15455777Y-10736484D01*
X15674825Y-10603150D02*
X15674825Y-10803150D01*
X15674825Y-10612674D02*
X15693872Y-10603150D01*
X15693872Y-10603150D02*
X15731968Y-10603150D01*
X15731968Y-10603150D02*
X15751015Y-10612674D01*
X15751015Y-10612674D02*
X15760539Y-10622198D01*
X15760539Y-10622198D02*
X15770063Y-10641246D01*
X15770063Y-10641246D02*
X15770063Y-10698389D01*
X15770063Y-10698389D02*
X15760539Y-10717436D01*
X15760539Y-10717436D02*
X15751015Y-10726960D01*
X15751015Y-10726960D02*
X15731968Y-10736484D01*
X15731968Y-10736484D02*
X15693872Y-10736484D01*
X15693872Y-10736484D02*
X15674825Y-10726960D01*
X15884349Y-10736484D02*
X15865301Y-10726960D01*
X15865301Y-10726960D02*
X15855777Y-10707912D01*
X15855777Y-10707912D02*
X15855777Y-10536484D01*
X16046253Y-10736484D02*
X16046253Y-10631722D01*
X16046253Y-10631722D02*
X16036730Y-10612674D01*
X16036730Y-10612674D02*
X16017682Y-10603150D01*
X16017682Y-10603150D02*
X15979587Y-10603150D01*
X15979587Y-10603150D02*
X15960539Y-10612674D01*
X16046253Y-10726960D02*
X16027206Y-10736484D01*
X16027206Y-10736484D02*
X15979587Y-10736484D01*
X15979587Y-10736484D02*
X15960539Y-10726960D01*
X15960539Y-10726960D02*
X15951015Y-10707912D01*
X15951015Y-10707912D02*
X15951015Y-10688865D01*
X15951015Y-10688865D02*
X15960539Y-10669817D01*
X15960539Y-10669817D02*
X15979587Y-10660293D01*
X15979587Y-10660293D02*
X16027206Y-10660293D01*
X16027206Y-10660293D02*
X16046253Y-10650770D01*
X16112920Y-10603150D02*
X16189111Y-10603150D01*
X16141492Y-10536484D02*
X16141492Y-10707912D01*
X16141492Y-10707912D02*
X16151015Y-10726960D01*
X16151015Y-10726960D02*
X16170063Y-10736484D01*
X16170063Y-10736484D02*
X16189111Y-10736484D01*
X16331968Y-10726960D02*
X16312920Y-10736484D01*
X16312920Y-10736484D02*
X16274825Y-10736484D01*
X16274825Y-10736484D02*
X16255777Y-10726960D01*
X16255777Y-10726960D02*
X16246253Y-10707912D01*
X16246253Y-10707912D02*
X16246253Y-10631722D01*
X16246253Y-10631722D02*
X16255777Y-10612674D01*
X16255777Y-10612674D02*
X16274825Y-10603150D01*
X16274825Y-10603150D02*
X16312920Y-10603150D01*
X16312920Y-10603150D02*
X16331968Y-10612674D01*
X16331968Y-10612674D02*
X16341492Y-10631722D01*
X16341492Y-10631722D02*
X16341492Y-10650770D01*
X16341492Y-10650770D02*
X16246253Y-10669817D01*
X16512920Y-10736484D02*
X16512920Y-10536484D01*
X16512920Y-10726960D02*
X16493873Y-10736484D01*
X16493873Y-10736484D02*
X16455777Y-10736484D01*
X16455777Y-10736484D02*
X16436730Y-10726960D01*
X16436730Y-10726960D02*
X16427206Y-10717436D01*
X16427206Y-10717436D02*
X16417682Y-10698389D01*
X16417682Y-10698389D02*
X16417682Y-10641246D01*
X16417682Y-10641246D02*
X16427206Y-10622198D01*
X16427206Y-10622198D02*
X16436730Y-10612674D01*
X16436730Y-10612674D02*
X16455777Y-10603150D01*
X16455777Y-10603150D02*
X16493873Y-10603150D01*
X16493873Y-10603150D02*
X16512920Y-10612674D01*
X16589111Y-10812674D02*
X16598634Y-10803150D01*
X16598634Y-10803150D02*
X16617682Y-10774579D01*
X16617682Y-10774579D02*
X16627206Y-10755531D01*
X16627206Y-10755531D02*
X16636730Y-10726960D01*
X16636730Y-10726960D02*
X16646253Y-10679341D01*
X16646253Y-10679341D02*
X16646253Y-10641246D01*
X16646253Y-10641246D02*
X16636730Y-10593627D01*
X16636730Y-10593627D02*
X16627206Y-10565055D01*
X16627206Y-10565055D02*
X16617682Y-10546008D01*
X16617682Y-10546008D02*
X16598634Y-10517436D01*
X16598634Y-10517436D02*
X16589111Y-10507912D01*
D10*
X9995000Y-10909000D02*
G75*
G02*
X9918000Y-10909000I-38500J0D01*
G01*
X9918000Y-10909000D02*
G75*
G02*
X9995000Y-10909000I38500J0D01*
G01*
D11*
X10293872Y-10800484D02*
X10312920Y-10800484D01*
X10312920Y-10800484D02*
X10331967Y-10810008D01*
X10331967Y-10810008D02*
X10341491Y-10819531D01*
X10341491Y-10819531D02*
X10351015Y-10838579D01*
X10351015Y-10838579D02*
X10360539Y-10876674D01*
X10360539Y-10876674D02*
X10360539Y-10924293D01*
X10360539Y-10924293D02*
X10351015Y-10962389D01*
X10351015Y-10962389D02*
X10341491Y-10981436D01*
X10341491Y-10981436D02*
X10331967Y-10990960D01*
X10331967Y-10990960D02*
X10312920Y-11000484D01*
X10312920Y-11000484D02*
X10293872Y-11000484D01*
X10293872Y-11000484D02*
X10274824Y-10990960D01*
X10274824Y-10990960D02*
X10265301Y-10981436D01*
X10265301Y-10981436D02*
X10255777Y-10962389D01*
X10255777Y-10962389D02*
X10246253Y-10924293D01*
X10246253Y-10924293D02*
X10246253Y-10876674D01*
X10246253Y-10876674D02*
X10255777Y-10838579D01*
X10255777Y-10838579D02*
X10265301Y-10819531D01*
X10265301Y-10819531D02*
X10274824Y-10810008D01*
X10274824Y-10810008D02*
X10293872Y-10800484D01*
X10446253Y-10981436D02*
X10455777Y-10990960D01*
X10455777Y-10990960D02*
X10446253Y-11000484D01*
X10446253Y-11000484D02*
X10436729Y-10990960D01*
X10436729Y-10990960D02*
X10446253Y-10981436D01*
X10446253Y-10981436D02*
X10446253Y-11000484D01*
X10522444Y-10800484D02*
X10655777Y-10800484D01*
X10655777Y-10800484D02*
X10570063Y-11000484D01*
X10712920Y-10800484D02*
X10846253Y-10800484D01*
X10846253Y-10800484D02*
X10760539Y-11000484D01*
X10960539Y-10800484D02*
X10979586Y-10800484D01*
X10979586Y-10800484D02*
X10998634Y-10810008D01*
X10998634Y-10810008D02*
X11008158Y-10819531D01*
X11008158Y-10819531D02*
X11017682Y-10838579D01*
X11017682Y-10838579D02*
X11027205Y-10876674D01*
X11027205Y-10876674D02*
X11027205Y-10924293D01*
X11027205Y-10924293D02*
X11017682Y-10962389D01*
X11017682Y-10962389D02*
X11008158Y-10981436D01*
X11008158Y-10981436D02*
X10998634Y-10990960D01*
X10998634Y-10990960D02*
X10979586Y-11000484D01*
X10979586Y-11000484D02*
X10960539Y-11000484D01*
X10960539Y-11000484D02*
X10941491Y-10990960D01*
X10941491Y-10990960D02*
X10931967Y-10981436D01*
X10931967Y-10981436D02*
X10922444Y-10962389D01*
X10922444Y-10962389D02*
X10912920Y-10924293D01*
X10912920Y-10924293D02*
X10912920Y-10876674D01*
X10912920Y-10876674D02*
X10922444Y-10838579D01*
X10922444Y-10838579D02*
X10931967Y-10819531D01*
X10931967Y-10819531D02*
X10941491Y-10810008D01*
X10941491Y-10810008D02*
X10960539Y-10800484D01*
X11112920Y-11000484D02*
X11112920Y-10867150D01*
X11112920Y-10886198D02*
X11122444Y-10876674D01*
X11122444Y-10876674D02*
X11141491Y-10867150D01*
X11141491Y-10867150D02*
X11170063Y-10867150D01*
X11170063Y-10867150D02*
X11189110Y-10876674D01*
X11189110Y-10876674D02*
X11198634Y-10895722D01*
X11198634Y-10895722D02*
X11198634Y-11000484D01*
X11198634Y-10895722D02*
X11208158Y-10876674D01*
X11208158Y-10876674D02*
X11227205Y-10867150D01*
X11227205Y-10867150D02*
X11255777Y-10867150D01*
X11255777Y-10867150D02*
X11274824Y-10876674D01*
X11274824Y-10876674D02*
X11284348Y-10895722D01*
X11284348Y-10895722D02*
X11284348Y-11000484D01*
X11379586Y-11000484D02*
X11379586Y-10867150D01*
X11379586Y-10886198D02*
X11389110Y-10876674D01*
X11389110Y-10876674D02*
X11408158Y-10867150D01*
X11408158Y-10867150D02*
X11436729Y-10867150D01*
X11436729Y-10867150D02*
X11455777Y-10876674D01*
X11455777Y-10876674D02*
X11465301Y-10895722D01*
X11465301Y-10895722D02*
X11465301Y-11000484D01*
X11465301Y-10895722D02*
X11474824Y-10876674D01*
X11474824Y-10876674D02*
X11493872Y-10867150D01*
X11493872Y-10867150D02*
X11522443Y-10867150D01*
X11522443Y-10867150D02*
X11541491Y-10876674D01*
X11541491Y-10876674D02*
X11551015Y-10895722D01*
X11551015Y-10895722D02*
X11551015Y-11000484D01*
X11941491Y-10790960D02*
X11770063Y-11048103D01*
X12198634Y-10800484D02*
X12217682Y-10800484D01*
X12217682Y-10800484D02*
X12236729Y-10810008D01*
X12236729Y-10810008D02*
X12246253Y-10819531D01*
X12246253Y-10819531D02*
X12255777Y-10838579D01*
X12255777Y-10838579D02*
X12265301Y-10876674D01*
X12265301Y-10876674D02*
X12265301Y-10924293D01*
X12265301Y-10924293D02*
X12255777Y-10962389D01*
X12255777Y-10962389D02*
X12246253Y-10981436D01*
X12246253Y-10981436D02*
X12236729Y-10990960D01*
X12236729Y-10990960D02*
X12217682Y-11000484D01*
X12217682Y-11000484D02*
X12198634Y-11000484D01*
X12198634Y-11000484D02*
X12179586Y-10990960D01*
X12179586Y-10990960D02*
X12170063Y-10981436D01*
X12170063Y-10981436D02*
X12160539Y-10962389D01*
X12160539Y-10962389D02*
X12151015Y-10924293D01*
X12151015Y-10924293D02*
X12151015Y-10876674D01*
X12151015Y-10876674D02*
X12160539Y-10838579D01*
X12160539Y-10838579D02*
X12170063Y-10819531D01*
X12170063Y-10819531D02*
X12179586Y-10810008D01*
X12179586Y-10810008D02*
X12198634Y-10800484D01*
X12351015Y-10981436D02*
X12360539Y-10990960D01*
X12360539Y-10990960D02*
X12351015Y-11000484D01*
X12351015Y-11000484D02*
X12341491Y-10990960D01*
X12341491Y-10990960D02*
X12351015Y-10981436D01*
X12351015Y-10981436D02*
X12351015Y-11000484D01*
X12484348Y-10800484D02*
X12503396Y-10800484D01*
X12503396Y-10800484D02*
X12522444Y-10810008D01*
X12522444Y-10810008D02*
X12531967Y-10819531D01*
X12531967Y-10819531D02*
X12541491Y-10838579D01*
X12541491Y-10838579D02*
X12551015Y-10876674D01*
X12551015Y-10876674D02*
X12551015Y-10924293D01*
X12551015Y-10924293D02*
X12541491Y-10962389D01*
X12541491Y-10962389D02*
X12531967Y-10981436D01*
X12531967Y-10981436D02*
X12522444Y-10990960D01*
X12522444Y-10990960D02*
X12503396Y-11000484D01*
X12503396Y-11000484D02*
X12484348Y-11000484D01*
X12484348Y-11000484D02*
X12465301Y-10990960D01*
X12465301Y-10990960D02*
X12455777Y-10981436D01*
X12455777Y-10981436D02*
X12446253Y-10962389D01*
X12446253Y-10962389D02*
X12436729Y-10924293D01*
X12436729Y-10924293D02*
X12436729Y-10876674D01*
X12436729Y-10876674D02*
X12446253Y-10838579D01*
X12446253Y-10838579D02*
X12455777Y-10819531D01*
X12455777Y-10819531D02*
X12465301Y-10810008D01*
X12465301Y-10810008D02*
X12484348Y-10800484D01*
X12617682Y-10800484D02*
X12741491Y-10800484D01*
X12741491Y-10800484D02*
X12674825Y-10876674D01*
X12674825Y-10876674D02*
X12703396Y-10876674D01*
X12703396Y-10876674D02*
X12722444Y-10886198D01*
X12722444Y-10886198D02*
X12731967Y-10895722D01*
X12731967Y-10895722D02*
X12741491Y-10914770D01*
X12741491Y-10914770D02*
X12741491Y-10962389D01*
X12741491Y-10962389D02*
X12731967Y-10981436D01*
X12731967Y-10981436D02*
X12722444Y-10990960D01*
X12722444Y-10990960D02*
X12703396Y-11000484D01*
X12703396Y-11000484D02*
X12646253Y-11000484D01*
X12646253Y-11000484D02*
X12627206Y-10990960D01*
X12627206Y-10990960D02*
X12617682Y-10981436D01*
X12865301Y-10800484D02*
X12884348Y-10800484D01*
X12884348Y-10800484D02*
X12903396Y-10810008D01*
X12903396Y-10810008D02*
X12912920Y-10819531D01*
X12912920Y-10819531D02*
X12922444Y-10838579D01*
X12922444Y-10838579D02*
X12931967Y-10876674D01*
X12931967Y-10876674D02*
X12931967Y-10924293D01*
X12931967Y-10924293D02*
X12922444Y-10962389D01*
X12922444Y-10962389D02*
X12912920Y-10981436D01*
X12912920Y-10981436D02*
X12903396Y-10990960D01*
X12903396Y-10990960D02*
X12884348Y-11000484D01*
X12884348Y-11000484D02*
X12865301Y-11000484D01*
X12865301Y-11000484D02*
X12846253Y-10990960D01*
X12846253Y-10990960D02*
X12836729Y-10981436D01*
X12836729Y-10981436D02*
X12827206Y-10962389D01*
X12827206Y-10962389D02*
X12817682Y-10924293D01*
X12817682Y-10924293D02*
X12817682Y-10876674D01*
X12817682Y-10876674D02*
X12827206Y-10838579D01*
X12827206Y-10838579D02*
X12836729Y-10819531D01*
X12836729Y-10819531D02*
X12846253Y-10810008D01*
X12846253Y-10810008D02*
X12865301Y-10800484D01*
X12998634Y-10800484D02*
X13122444Y-10800484D01*
X13122444Y-10800484D02*
X13055777Y-10876674D01*
X13055777Y-10876674D02*
X13084348Y-10876674D01*
X13084348Y-10876674D02*
X13103396Y-10886198D01*
X13103396Y-10886198D02*
X13112920Y-10895722D01*
X13112920Y-10895722D02*
X13122444Y-10914770D01*
X13122444Y-10914770D02*
X13122444Y-10962389D01*
X13122444Y-10962389D02*
X13112920Y-10981436D01*
X13112920Y-10981436D02*
X13103396Y-10990960D01*
X13103396Y-10990960D02*
X13084348Y-11000484D01*
X13084348Y-11000484D02*
X13027206Y-11000484D01*
X13027206Y-11000484D02*
X13008158Y-10990960D01*
X13008158Y-10990960D02*
X12998634Y-10981436D01*
X13198634Y-10800484D02*
X13198634Y-10838579D01*
X13274825Y-10800484D02*
X13274825Y-10838579D01*
X13570063Y-11076674D02*
X13560539Y-11067150D01*
X13560539Y-11067150D02*
X13541491Y-11038579D01*
X13541491Y-11038579D02*
X13531968Y-11019531D01*
X13531968Y-11019531D02*
X13522444Y-10990960D01*
X13522444Y-10990960D02*
X13512920Y-10943341D01*
X13512920Y-10943341D02*
X13512920Y-10905246D01*
X13512920Y-10905246D02*
X13522444Y-10857627D01*
X13522444Y-10857627D02*
X13531968Y-10829055D01*
X13531968Y-10829055D02*
X13541491Y-10810008D01*
X13541491Y-10810008D02*
X13560539Y-10781436D01*
X13560539Y-10781436D02*
X13570063Y-10771912D01*
X13751015Y-11000484D02*
X13636729Y-11000484D01*
X13693872Y-11000484D02*
X13693872Y-10800484D01*
X13693872Y-10800484D02*
X13674825Y-10829055D01*
X13674825Y-10829055D02*
X13655777Y-10848103D01*
X13655777Y-10848103D02*
X13636729Y-10857627D01*
X13989110Y-11000484D02*
X13989110Y-10800484D01*
X14074825Y-11000484D02*
X14074825Y-10895722D01*
X14074825Y-10895722D02*
X14065301Y-10876674D01*
X14065301Y-10876674D02*
X14046253Y-10867150D01*
X14046253Y-10867150D02*
X14017682Y-10867150D01*
X14017682Y-10867150D02*
X13998634Y-10876674D01*
X13998634Y-10876674D02*
X13989110Y-10886198D01*
X14198634Y-11000484D02*
X14179587Y-10990960D01*
X14179587Y-10990960D02*
X14170063Y-10981436D01*
X14170063Y-10981436D02*
X14160539Y-10962389D01*
X14160539Y-10962389D02*
X14160539Y-10905246D01*
X14160539Y-10905246D02*
X14170063Y-10886198D01*
X14170063Y-10886198D02*
X14179587Y-10876674D01*
X14179587Y-10876674D02*
X14198634Y-10867150D01*
X14198634Y-10867150D02*
X14227206Y-10867150D01*
X14227206Y-10867150D02*
X14246253Y-10876674D01*
X14246253Y-10876674D02*
X14255777Y-10886198D01*
X14255777Y-10886198D02*
X14265301Y-10905246D01*
X14265301Y-10905246D02*
X14265301Y-10962389D01*
X14265301Y-10962389D02*
X14255777Y-10981436D01*
X14255777Y-10981436D02*
X14246253Y-10990960D01*
X14246253Y-10990960D02*
X14227206Y-11000484D01*
X14227206Y-11000484D02*
X14198634Y-11000484D01*
X14379587Y-11000484D02*
X14360539Y-10990960D01*
X14360539Y-10990960D02*
X14351015Y-10971912D01*
X14351015Y-10971912D02*
X14351015Y-10800484D01*
X14531968Y-10990960D02*
X14512920Y-11000484D01*
X14512920Y-11000484D02*
X14474825Y-11000484D01*
X14474825Y-11000484D02*
X14455777Y-10990960D01*
X14455777Y-10990960D02*
X14446253Y-10971912D01*
X14446253Y-10971912D02*
X14446253Y-10895722D01*
X14446253Y-10895722D02*
X14455777Y-10876674D01*
X14455777Y-10876674D02*
X14474825Y-10867150D01*
X14474825Y-10867150D02*
X14512920Y-10867150D01*
X14512920Y-10867150D02*
X14531968Y-10876674D01*
X14531968Y-10876674D02*
X14541491Y-10895722D01*
X14541491Y-10895722D02*
X14541491Y-10914770D01*
X14541491Y-10914770D02*
X14446253Y-10933817D01*
X14608158Y-11076674D02*
X14617682Y-11067150D01*
X14617682Y-11067150D02*
X14636730Y-11038579D01*
X14636730Y-11038579D02*
X14646253Y-11019531D01*
X14646253Y-11019531D02*
X14655777Y-10990960D01*
X14655777Y-10990960D02*
X14665301Y-10943341D01*
X14665301Y-10943341D02*
X14665301Y-10905246D01*
X14665301Y-10905246D02*
X14655777Y-10857627D01*
X14655777Y-10857627D02*
X14646253Y-10829055D01*
X14646253Y-10829055D02*
X14636730Y-10810008D01*
X14636730Y-10810008D02*
X14617682Y-10781436D01*
X14617682Y-10781436D02*
X14608158Y-10771912D01*
X14970063Y-11076674D02*
X14960539Y-11067150D01*
X14960539Y-11067150D02*
X14941491Y-11038579D01*
X14941491Y-11038579D02*
X14931968Y-11019531D01*
X14931968Y-11019531D02*
X14922444Y-10990960D01*
X14922444Y-10990960D02*
X14912920Y-10943341D01*
X14912920Y-10943341D02*
X14912920Y-10905246D01*
X14912920Y-10905246D02*
X14922444Y-10857627D01*
X14922444Y-10857627D02*
X14931968Y-10829055D01*
X14931968Y-10829055D02*
X14941491Y-10810008D01*
X14941491Y-10810008D02*
X14960539Y-10781436D01*
X14960539Y-10781436D02*
X14970063Y-10771912D01*
X15046253Y-10867150D02*
X15046253Y-11000484D01*
X15046253Y-10886198D02*
X15055777Y-10876674D01*
X15055777Y-10876674D02*
X15074825Y-10867150D01*
X15074825Y-10867150D02*
X15103396Y-10867150D01*
X15103396Y-10867150D02*
X15122444Y-10876674D01*
X15122444Y-10876674D02*
X15131968Y-10895722D01*
X15131968Y-10895722D02*
X15131968Y-11000484D01*
X15255777Y-11000484D02*
X15236730Y-10990960D01*
X15236730Y-10990960D02*
X15227206Y-10981436D01*
X15227206Y-10981436D02*
X15217682Y-10962389D01*
X15217682Y-10962389D02*
X15217682Y-10905246D01*
X15217682Y-10905246D02*
X15227206Y-10886198D01*
X15227206Y-10886198D02*
X15236730Y-10876674D01*
X15236730Y-10876674D02*
X15255777Y-10867150D01*
X15255777Y-10867150D02*
X15284349Y-10867150D01*
X15284349Y-10867150D02*
X15303396Y-10876674D01*
X15303396Y-10876674D02*
X15312920Y-10886198D01*
X15312920Y-10886198D02*
X15322444Y-10905246D01*
X15322444Y-10905246D02*
X15322444Y-10962389D01*
X15322444Y-10962389D02*
X15312920Y-10981436D01*
X15312920Y-10981436D02*
X15303396Y-10990960D01*
X15303396Y-10990960D02*
X15284349Y-11000484D01*
X15284349Y-11000484D02*
X15255777Y-11000484D01*
X15379587Y-10867150D02*
X15455777Y-10867150D01*
X15408158Y-10800484D02*
X15408158Y-10971912D01*
X15408158Y-10971912D02*
X15417682Y-10990960D01*
X15417682Y-10990960D02*
X15436730Y-11000484D01*
X15436730Y-11000484D02*
X15455777Y-11000484D01*
X15674825Y-10867150D02*
X15674825Y-11067150D01*
X15674825Y-10876674D02*
X15693872Y-10867150D01*
X15693872Y-10867150D02*
X15731968Y-10867150D01*
X15731968Y-10867150D02*
X15751015Y-10876674D01*
X15751015Y-10876674D02*
X15760539Y-10886198D01*
X15760539Y-10886198D02*
X15770063Y-10905246D01*
X15770063Y-10905246D02*
X15770063Y-10962389D01*
X15770063Y-10962389D02*
X15760539Y-10981436D01*
X15760539Y-10981436D02*
X15751015Y-10990960D01*
X15751015Y-10990960D02*
X15731968Y-11000484D01*
X15731968Y-11000484D02*
X15693872Y-11000484D01*
X15693872Y-11000484D02*
X15674825Y-10990960D01*
X15884349Y-11000484D02*
X15865301Y-10990960D01*
X15865301Y-10990960D02*
X15855777Y-10971912D01*
X15855777Y-10971912D02*
X15855777Y-10800484D01*
X16046253Y-11000484D02*
X16046253Y-10895722D01*
X16046253Y-10895722D02*
X16036730Y-10876674D01*
X16036730Y-10876674D02*
X16017682Y-10867150D01*
X16017682Y-10867150D02*
X15979587Y-10867150D01*
X15979587Y-10867150D02*
X15960539Y-10876674D01*
X16046253Y-10990960D02*
X16027206Y-11000484D01*
X16027206Y-11000484D02*
X15979587Y-11000484D01*
X15979587Y-11000484D02*
X15960539Y-10990960D01*
X15960539Y-10990960D02*
X15951015Y-10971912D01*
X15951015Y-10971912D02*
X15951015Y-10952865D01*
X15951015Y-10952865D02*
X15960539Y-10933817D01*
X15960539Y-10933817D02*
X15979587Y-10924293D01*
X15979587Y-10924293D02*
X16027206Y-10924293D01*
X16027206Y-10924293D02*
X16046253Y-10914770D01*
X16112920Y-10867150D02*
X16189111Y-10867150D01*
X16141492Y-10800484D02*
X16141492Y-10971912D01*
X16141492Y-10971912D02*
X16151015Y-10990960D01*
X16151015Y-10990960D02*
X16170063Y-11000484D01*
X16170063Y-11000484D02*
X16189111Y-11000484D01*
X16331968Y-10990960D02*
X16312920Y-11000484D01*
X16312920Y-11000484D02*
X16274825Y-11000484D01*
X16274825Y-11000484D02*
X16255777Y-10990960D01*
X16255777Y-10990960D02*
X16246253Y-10971912D01*
X16246253Y-10971912D02*
X16246253Y-10895722D01*
X16246253Y-10895722D02*
X16255777Y-10876674D01*
X16255777Y-10876674D02*
X16274825Y-10867150D01*
X16274825Y-10867150D02*
X16312920Y-10867150D01*
X16312920Y-10867150D02*
X16331968Y-10876674D01*
X16331968Y-10876674D02*
X16341492Y-10895722D01*
X16341492Y-10895722D02*
X16341492Y-10914770D01*
X16341492Y-10914770D02*
X16246253Y-10933817D01*
X16512920Y-11000484D02*
X16512920Y-10800484D01*
X16512920Y-10990960D02*
X16493873Y-11000484D01*
X16493873Y-11000484D02*
X16455777Y-11000484D01*
X16455777Y-11000484D02*
X16436730Y-10990960D01*
X16436730Y-10990960D02*
X16427206Y-10981436D01*
X16427206Y-10981436D02*
X16417682Y-10962389D01*
X16417682Y-10962389D02*
X16417682Y-10905246D01*
X16417682Y-10905246D02*
X16427206Y-10886198D01*
X16427206Y-10886198D02*
X16436730Y-10876674D01*
X16436730Y-10876674D02*
X16455777Y-10867150D01*
X16455777Y-10867150D02*
X16493873Y-10867150D01*
X16493873Y-10867150D02*
X16512920Y-10876674D01*
X16589111Y-11076674D02*
X16598634Y-11067150D01*
X16598634Y-11067150D02*
X16617682Y-11038579D01*
X16617682Y-11038579D02*
X16627206Y-11019531D01*
X16627206Y-11019531D02*
X16636730Y-10990960D01*
X16636730Y-10990960D02*
X16646253Y-10943341D01*
X16646253Y-10943341D02*
X16646253Y-10905246D01*
X16646253Y-10905246D02*
X16636730Y-10857627D01*
X16636730Y-10857627D02*
X16627206Y-10829055D01*
X16627206Y-10829055D02*
X16617682Y-10810008D01*
X16617682Y-10810008D02*
X16598634Y-10781436D01*
X16598634Y-10781436D02*
X16589111Y-10771912D01*
X9895000Y-11073000D02*
X9895000Y-11273000D01*
X9795000Y-11173000D02*
X9995000Y-11173000D01*
X10246253Y-11083531D02*
X10255777Y-11074008D01*
X10255777Y-11074008D02*
X10274824Y-11064484D01*
X10274824Y-11064484D02*
X10322444Y-11064484D01*
X10322444Y-11064484D02*
X10341491Y-11074008D01*
X10341491Y-11074008D02*
X10351015Y-11083531D01*
X10351015Y-11083531D02*
X10360539Y-11102579D01*
X10360539Y-11102579D02*
X10360539Y-11121627D01*
X10360539Y-11121627D02*
X10351015Y-11150198D01*
X10351015Y-11150198D02*
X10236729Y-11264484D01*
X10236729Y-11264484D02*
X10360539Y-11264484D01*
X10446253Y-11245436D02*
X10455777Y-11254960D01*
X10455777Y-11254960D02*
X10446253Y-11264484D01*
X10446253Y-11264484D02*
X10436729Y-11254960D01*
X10436729Y-11254960D02*
X10446253Y-11245436D01*
X10446253Y-11245436D02*
X10446253Y-11264484D01*
X10522444Y-11064484D02*
X10655777Y-11064484D01*
X10655777Y-11064484D02*
X10570063Y-11264484D01*
X10770063Y-11064484D02*
X10789110Y-11064484D01*
X10789110Y-11064484D02*
X10808158Y-11074008D01*
X10808158Y-11074008D02*
X10817682Y-11083531D01*
X10817682Y-11083531D02*
X10827205Y-11102579D01*
X10827205Y-11102579D02*
X10836729Y-11140674D01*
X10836729Y-11140674D02*
X10836729Y-11188293D01*
X10836729Y-11188293D02*
X10827205Y-11226388D01*
X10827205Y-11226388D02*
X10817682Y-11245436D01*
X10817682Y-11245436D02*
X10808158Y-11254960D01*
X10808158Y-11254960D02*
X10789110Y-11264484D01*
X10789110Y-11264484D02*
X10770063Y-11264484D01*
X10770063Y-11264484D02*
X10751015Y-11254960D01*
X10751015Y-11254960D02*
X10741491Y-11245436D01*
X10741491Y-11245436D02*
X10731967Y-11226388D01*
X10731967Y-11226388D02*
X10722444Y-11188293D01*
X10722444Y-11188293D02*
X10722444Y-11140674D01*
X10722444Y-11140674D02*
X10731967Y-11102579D01*
X10731967Y-11102579D02*
X10741491Y-11083531D01*
X10741491Y-11083531D02*
X10751015Y-11074008D01*
X10751015Y-11074008D02*
X10770063Y-11064484D01*
X10960539Y-11064484D02*
X10979586Y-11064484D01*
X10979586Y-11064484D02*
X10998634Y-11074008D01*
X10998634Y-11074008D02*
X11008158Y-11083531D01*
X11008158Y-11083531D02*
X11017682Y-11102579D01*
X11017682Y-11102579D02*
X11027205Y-11140674D01*
X11027205Y-11140674D02*
X11027205Y-11188293D01*
X11027205Y-11188293D02*
X11017682Y-11226388D01*
X11017682Y-11226388D02*
X11008158Y-11245436D01*
X11008158Y-11245436D02*
X10998634Y-11254960D01*
X10998634Y-11254960D02*
X10979586Y-11264484D01*
X10979586Y-11264484D02*
X10960539Y-11264484D01*
X10960539Y-11264484D02*
X10941491Y-11254960D01*
X10941491Y-11254960D02*
X10931967Y-11245436D01*
X10931967Y-11245436D02*
X10922444Y-11226388D01*
X10922444Y-11226388D02*
X10912920Y-11188293D01*
X10912920Y-11188293D02*
X10912920Y-11140674D01*
X10912920Y-11140674D02*
X10922444Y-11102579D01*
X10922444Y-11102579D02*
X10931967Y-11083531D01*
X10931967Y-11083531D02*
X10941491Y-11074008D01*
X10941491Y-11074008D02*
X10960539Y-11064484D01*
X11112920Y-11264484D02*
X11112920Y-11131150D01*
X11112920Y-11150198D02*
X11122444Y-11140674D01*
X11122444Y-11140674D02*
X11141491Y-11131150D01*
X11141491Y-11131150D02*
X11170063Y-11131150D01*
X11170063Y-11131150D02*
X11189110Y-11140674D01*
X11189110Y-11140674D02*
X11198634Y-11159722D01*
X11198634Y-11159722D02*
X11198634Y-11264484D01*
X11198634Y-11159722D02*
X11208158Y-11140674D01*
X11208158Y-11140674D02*
X11227205Y-11131150D01*
X11227205Y-11131150D02*
X11255777Y-11131150D01*
X11255777Y-11131150D02*
X11274824Y-11140674D01*
X11274824Y-11140674D02*
X11284348Y-11159722D01*
X11284348Y-11159722D02*
X11284348Y-11264484D01*
X11379586Y-11264484D02*
X11379586Y-11131150D01*
X11379586Y-11150198D02*
X11389110Y-11140674D01*
X11389110Y-11140674D02*
X11408158Y-11131150D01*
X11408158Y-11131150D02*
X11436729Y-11131150D01*
X11436729Y-11131150D02*
X11455777Y-11140674D01*
X11455777Y-11140674D02*
X11465301Y-11159722D01*
X11465301Y-11159722D02*
X11465301Y-11264484D01*
X11465301Y-11159722D02*
X11474824Y-11140674D01*
X11474824Y-11140674D02*
X11493872Y-11131150D01*
X11493872Y-11131150D02*
X11522443Y-11131150D01*
X11522443Y-11131150D02*
X11541491Y-11140674D01*
X11541491Y-11140674D02*
X11551015Y-11159722D01*
X11551015Y-11159722D02*
X11551015Y-11264484D01*
X11941491Y-11054960D02*
X11770063Y-11312103D01*
X12198634Y-11064484D02*
X12217682Y-11064484D01*
X12217682Y-11064484D02*
X12236729Y-11074008D01*
X12236729Y-11074008D02*
X12246253Y-11083531D01*
X12246253Y-11083531D02*
X12255777Y-11102579D01*
X12255777Y-11102579D02*
X12265301Y-11140674D01*
X12265301Y-11140674D02*
X12265301Y-11188293D01*
X12265301Y-11188293D02*
X12255777Y-11226388D01*
X12255777Y-11226388D02*
X12246253Y-11245436D01*
X12246253Y-11245436D02*
X12236729Y-11254960D01*
X12236729Y-11254960D02*
X12217682Y-11264484D01*
X12217682Y-11264484D02*
X12198634Y-11264484D01*
X12198634Y-11264484D02*
X12179586Y-11254960D01*
X12179586Y-11254960D02*
X12170063Y-11245436D01*
X12170063Y-11245436D02*
X12160539Y-11226388D01*
X12160539Y-11226388D02*
X12151015Y-11188293D01*
X12151015Y-11188293D02*
X12151015Y-11140674D01*
X12151015Y-11140674D02*
X12160539Y-11102579D01*
X12160539Y-11102579D02*
X12170063Y-11083531D01*
X12170063Y-11083531D02*
X12179586Y-11074008D01*
X12179586Y-11074008D02*
X12198634Y-11064484D01*
X12351015Y-11245436D02*
X12360539Y-11254960D01*
X12360539Y-11254960D02*
X12351015Y-11264484D01*
X12351015Y-11264484D02*
X12341491Y-11254960D01*
X12341491Y-11254960D02*
X12351015Y-11245436D01*
X12351015Y-11245436D02*
X12351015Y-11264484D01*
X12551015Y-11264484D02*
X12436729Y-11264484D01*
X12493872Y-11264484D02*
X12493872Y-11064484D01*
X12493872Y-11064484D02*
X12474825Y-11093055D01*
X12474825Y-11093055D02*
X12455777Y-11112103D01*
X12455777Y-11112103D02*
X12436729Y-11121627D01*
X12674825Y-11064484D02*
X12693872Y-11064484D01*
X12693872Y-11064484D02*
X12712920Y-11074008D01*
X12712920Y-11074008D02*
X12722444Y-11083531D01*
X12722444Y-11083531D02*
X12731967Y-11102579D01*
X12731967Y-11102579D02*
X12741491Y-11140674D01*
X12741491Y-11140674D02*
X12741491Y-11188293D01*
X12741491Y-11188293D02*
X12731967Y-11226388D01*
X12731967Y-11226388D02*
X12722444Y-11245436D01*
X12722444Y-11245436D02*
X12712920Y-11254960D01*
X12712920Y-11254960D02*
X12693872Y-11264484D01*
X12693872Y-11264484D02*
X12674825Y-11264484D01*
X12674825Y-11264484D02*
X12655777Y-11254960D01*
X12655777Y-11254960D02*
X12646253Y-11245436D01*
X12646253Y-11245436D02*
X12636729Y-11226388D01*
X12636729Y-11226388D02*
X12627206Y-11188293D01*
X12627206Y-11188293D02*
X12627206Y-11140674D01*
X12627206Y-11140674D02*
X12636729Y-11102579D01*
X12636729Y-11102579D02*
X12646253Y-11083531D01*
X12646253Y-11083531D02*
X12655777Y-11074008D01*
X12655777Y-11074008D02*
X12674825Y-11064484D01*
X12912920Y-11064484D02*
X12874825Y-11064484D01*
X12874825Y-11064484D02*
X12855777Y-11074008D01*
X12855777Y-11074008D02*
X12846253Y-11083531D01*
X12846253Y-11083531D02*
X12827206Y-11112103D01*
X12827206Y-11112103D02*
X12817682Y-11150198D01*
X12817682Y-11150198D02*
X12817682Y-11226388D01*
X12817682Y-11226388D02*
X12827206Y-11245436D01*
X12827206Y-11245436D02*
X12836729Y-11254960D01*
X12836729Y-11254960D02*
X12855777Y-11264484D01*
X12855777Y-11264484D02*
X12893872Y-11264484D01*
X12893872Y-11264484D02*
X12912920Y-11254960D01*
X12912920Y-11254960D02*
X12922444Y-11245436D01*
X12922444Y-11245436D02*
X12931967Y-11226388D01*
X12931967Y-11226388D02*
X12931967Y-11178770D01*
X12931967Y-11178770D02*
X12922444Y-11159722D01*
X12922444Y-11159722D02*
X12912920Y-11150198D01*
X12912920Y-11150198D02*
X12893872Y-11140674D01*
X12893872Y-11140674D02*
X12855777Y-11140674D01*
X12855777Y-11140674D02*
X12836729Y-11150198D01*
X12836729Y-11150198D02*
X12827206Y-11159722D01*
X12827206Y-11159722D02*
X12817682Y-11178770D01*
X12998634Y-11064484D02*
X13122444Y-11064484D01*
X13122444Y-11064484D02*
X13055777Y-11140674D01*
X13055777Y-11140674D02*
X13084348Y-11140674D01*
X13084348Y-11140674D02*
X13103396Y-11150198D01*
X13103396Y-11150198D02*
X13112920Y-11159722D01*
X13112920Y-11159722D02*
X13122444Y-11178770D01*
X13122444Y-11178770D02*
X13122444Y-11226388D01*
X13122444Y-11226388D02*
X13112920Y-11245436D01*
X13112920Y-11245436D02*
X13103396Y-11254960D01*
X13103396Y-11254960D02*
X13084348Y-11264484D01*
X13084348Y-11264484D02*
X13027206Y-11264484D01*
X13027206Y-11264484D02*
X13008158Y-11254960D01*
X13008158Y-11254960D02*
X12998634Y-11245436D01*
X13198634Y-11064484D02*
X13198634Y-11102579D01*
X13274825Y-11064484D02*
X13274825Y-11102579D01*
X13570063Y-11340674D02*
X13560539Y-11331150D01*
X13560539Y-11331150D02*
X13541491Y-11302579D01*
X13541491Y-11302579D02*
X13531968Y-11283531D01*
X13531968Y-11283531D02*
X13522444Y-11254960D01*
X13522444Y-11254960D02*
X13512920Y-11207341D01*
X13512920Y-11207341D02*
X13512920Y-11169246D01*
X13512920Y-11169246D02*
X13522444Y-11121627D01*
X13522444Y-11121627D02*
X13531968Y-11093055D01*
X13531968Y-11093055D02*
X13541491Y-11074008D01*
X13541491Y-11074008D02*
X13560539Y-11045436D01*
X13560539Y-11045436D02*
X13570063Y-11035912D01*
X13731968Y-11131150D02*
X13731968Y-11264484D01*
X13684348Y-11054960D02*
X13636729Y-11197817D01*
X13636729Y-11197817D02*
X13760539Y-11197817D01*
X13989110Y-11264484D02*
X13989110Y-11064484D01*
X14074825Y-11264484D02*
X14074825Y-11159722D01*
X14074825Y-11159722D02*
X14065301Y-11140674D01*
X14065301Y-11140674D02*
X14046253Y-11131150D01*
X14046253Y-11131150D02*
X14017682Y-11131150D01*
X14017682Y-11131150D02*
X13998634Y-11140674D01*
X13998634Y-11140674D02*
X13989110Y-11150198D01*
X14198634Y-11264484D02*
X14179587Y-11254960D01*
X14179587Y-11254960D02*
X14170063Y-11245436D01*
X14170063Y-11245436D02*
X14160539Y-11226388D01*
X14160539Y-11226388D02*
X14160539Y-11169246D01*
X14160539Y-11169246D02*
X14170063Y-11150198D01*
X14170063Y-11150198D02*
X14179587Y-11140674D01*
X14179587Y-11140674D02*
X14198634Y-11131150D01*
X14198634Y-11131150D02*
X14227206Y-11131150D01*
X14227206Y-11131150D02*
X14246253Y-11140674D01*
X14246253Y-11140674D02*
X14255777Y-11150198D01*
X14255777Y-11150198D02*
X14265301Y-11169246D01*
X14265301Y-11169246D02*
X14265301Y-11226388D01*
X14265301Y-11226388D02*
X14255777Y-11245436D01*
X14255777Y-11245436D02*
X14246253Y-11254960D01*
X14246253Y-11254960D02*
X14227206Y-11264484D01*
X14227206Y-11264484D02*
X14198634Y-11264484D01*
X14379587Y-11264484D02*
X14360539Y-11254960D01*
X14360539Y-11254960D02*
X14351015Y-11235912D01*
X14351015Y-11235912D02*
X14351015Y-11064484D01*
X14531968Y-11254960D02*
X14512920Y-11264484D01*
X14512920Y-11264484D02*
X14474825Y-11264484D01*
X14474825Y-11264484D02*
X14455777Y-11254960D01*
X14455777Y-11254960D02*
X14446253Y-11235912D01*
X14446253Y-11235912D02*
X14446253Y-11159722D01*
X14446253Y-11159722D02*
X14455777Y-11140674D01*
X14455777Y-11140674D02*
X14474825Y-11131150D01*
X14474825Y-11131150D02*
X14512920Y-11131150D01*
X14512920Y-11131150D02*
X14531968Y-11140674D01*
X14531968Y-11140674D02*
X14541491Y-11159722D01*
X14541491Y-11159722D02*
X14541491Y-11178770D01*
X14541491Y-11178770D02*
X14446253Y-11197817D01*
X14617682Y-11254960D02*
X14636730Y-11264484D01*
X14636730Y-11264484D02*
X14674825Y-11264484D01*
X14674825Y-11264484D02*
X14693872Y-11254960D01*
X14693872Y-11254960D02*
X14703396Y-11235912D01*
X14703396Y-11235912D02*
X14703396Y-11226388D01*
X14703396Y-11226388D02*
X14693872Y-11207341D01*
X14693872Y-11207341D02*
X14674825Y-11197817D01*
X14674825Y-11197817D02*
X14646253Y-11197817D01*
X14646253Y-11197817D02*
X14627206Y-11188293D01*
X14627206Y-11188293D02*
X14617682Y-11169246D01*
X14617682Y-11169246D02*
X14617682Y-11159722D01*
X14617682Y-11159722D02*
X14627206Y-11140674D01*
X14627206Y-11140674D02*
X14646253Y-11131150D01*
X14646253Y-11131150D02*
X14674825Y-11131150D01*
X14674825Y-11131150D02*
X14693872Y-11140674D01*
X14770063Y-11340674D02*
X14779587Y-11331150D01*
X14779587Y-11331150D02*
X14798634Y-11302579D01*
X14798634Y-11302579D02*
X14808158Y-11283531D01*
X14808158Y-11283531D02*
X14817682Y-11254960D01*
X14817682Y-11254960D02*
X14827206Y-11207341D01*
X14827206Y-11207341D02*
X14827206Y-11169246D01*
X14827206Y-11169246D02*
X14817682Y-11121627D01*
X14817682Y-11121627D02*
X14808158Y-11093055D01*
X14808158Y-11093055D02*
X14798634Y-11074008D01*
X14798634Y-11074008D02*
X14779587Y-11045436D01*
X14779587Y-11045436D02*
X14770063Y-11035912D01*
X15131968Y-11340674D02*
X15122444Y-11331150D01*
X15122444Y-11331150D02*
X15103396Y-11302579D01*
X15103396Y-11302579D02*
X15093872Y-11283531D01*
X15093872Y-11283531D02*
X15084349Y-11254960D01*
X15084349Y-11254960D02*
X15074825Y-11207341D01*
X15074825Y-11207341D02*
X15074825Y-11169246D01*
X15074825Y-11169246D02*
X15084349Y-11121627D01*
X15084349Y-11121627D02*
X15093872Y-11093055D01*
X15093872Y-11093055D02*
X15103396Y-11074008D01*
X15103396Y-11074008D02*
X15122444Y-11045436D01*
X15122444Y-11045436D02*
X15131968Y-11035912D01*
X15208158Y-11131150D02*
X15208158Y-11264484D01*
X15208158Y-11150198D02*
X15217682Y-11140674D01*
X15217682Y-11140674D02*
X15236730Y-11131150D01*
X15236730Y-11131150D02*
X15265301Y-11131150D01*
X15265301Y-11131150D02*
X15284349Y-11140674D01*
X15284349Y-11140674D02*
X15293872Y-11159722D01*
X15293872Y-11159722D02*
X15293872Y-11264484D01*
X15417682Y-11264484D02*
X15398634Y-11254960D01*
X15398634Y-11254960D02*
X15389111Y-11245436D01*
X15389111Y-11245436D02*
X15379587Y-11226388D01*
X15379587Y-11226388D02*
X15379587Y-11169246D01*
X15379587Y-11169246D02*
X15389111Y-11150198D01*
X15389111Y-11150198D02*
X15398634Y-11140674D01*
X15398634Y-11140674D02*
X15417682Y-11131150D01*
X15417682Y-11131150D02*
X15446253Y-11131150D01*
X15446253Y-11131150D02*
X15465301Y-11140674D01*
X15465301Y-11140674D02*
X15474825Y-11150198D01*
X15474825Y-11150198D02*
X15484349Y-11169246D01*
X15484349Y-11169246D02*
X15484349Y-11226388D01*
X15484349Y-11226388D02*
X15474825Y-11245436D01*
X15474825Y-11245436D02*
X15465301Y-11254960D01*
X15465301Y-11254960D02*
X15446253Y-11264484D01*
X15446253Y-11264484D02*
X15417682Y-11264484D01*
X15541492Y-11131150D02*
X15617682Y-11131150D01*
X15570063Y-11064484D02*
X15570063Y-11235912D01*
X15570063Y-11235912D02*
X15579587Y-11254960D01*
X15579587Y-11254960D02*
X15598634Y-11264484D01*
X15598634Y-11264484D02*
X15617682Y-11264484D01*
X15836730Y-11131150D02*
X15836730Y-11331150D01*
X15836730Y-11140674D02*
X15855777Y-11131150D01*
X15855777Y-11131150D02*
X15893873Y-11131150D01*
X15893873Y-11131150D02*
X15912920Y-11140674D01*
X15912920Y-11140674D02*
X15922444Y-11150198D01*
X15922444Y-11150198D02*
X15931968Y-11169246D01*
X15931968Y-11169246D02*
X15931968Y-11226388D01*
X15931968Y-11226388D02*
X15922444Y-11245436D01*
X15922444Y-11245436D02*
X15912920Y-11254960D01*
X15912920Y-11254960D02*
X15893873Y-11264484D01*
X15893873Y-11264484D02*
X15855777Y-11264484D01*
X15855777Y-11264484D02*
X15836730Y-11254960D01*
X16046253Y-11264484D02*
X16027206Y-11254960D01*
X16027206Y-11254960D02*
X16017682Y-11235912D01*
X16017682Y-11235912D02*
X16017682Y-11064484D01*
X16208158Y-11264484D02*
X16208158Y-11159722D01*
X16208158Y-11159722D02*
X16198634Y-11140674D01*
X16198634Y-11140674D02*
X16179587Y-11131150D01*
X16179587Y-11131150D02*
X16141492Y-11131150D01*
X16141492Y-11131150D02*
X16122444Y-11140674D01*
X16208158Y-11254960D02*
X16189111Y-11264484D01*
X16189111Y-11264484D02*
X16141492Y-11264484D01*
X16141492Y-11264484D02*
X16122444Y-11254960D01*
X16122444Y-11254960D02*
X16112920Y-11235912D01*
X16112920Y-11235912D02*
X16112920Y-11216865D01*
X16112920Y-11216865D02*
X16122444Y-11197817D01*
X16122444Y-11197817D02*
X16141492Y-11188293D01*
X16141492Y-11188293D02*
X16189111Y-11188293D01*
X16189111Y-11188293D02*
X16208158Y-11178770D01*
X16274825Y-11131150D02*
X16351015Y-11131150D01*
X16303396Y-11064484D02*
X16303396Y-11235912D01*
X16303396Y-11235912D02*
X16312920Y-11254960D01*
X16312920Y-11254960D02*
X16331968Y-11264484D01*
X16331968Y-11264484D02*
X16351015Y-11264484D01*
X16493873Y-11254960D02*
X16474825Y-11264484D01*
X16474825Y-11264484D02*
X16436730Y-11264484D01*
X16436730Y-11264484D02*
X16417682Y-11254960D01*
X16417682Y-11254960D02*
X16408158Y-11235912D01*
X16408158Y-11235912D02*
X16408158Y-11159722D01*
X16408158Y-11159722D02*
X16417682Y-11140674D01*
X16417682Y-11140674D02*
X16436730Y-11131150D01*
X16436730Y-11131150D02*
X16474825Y-11131150D01*
X16474825Y-11131150D02*
X16493873Y-11140674D01*
X16493873Y-11140674D02*
X16503396Y-11159722D01*
X16503396Y-11159722D02*
X16503396Y-11178770D01*
X16503396Y-11178770D02*
X16408158Y-11197817D01*
X16674825Y-11264484D02*
X16674825Y-11064484D01*
X16674825Y-11254960D02*
X16655777Y-11264484D01*
X16655777Y-11264484D02*
X16617682Y-11264484D01*
X16617682Y-11264484D02*
X16598634Y-11254960D01*
X16598634Y-11254960D02*
X16589111Y-11245436D01*
X16589111Y-11245436D02*
X16579587Y-11226388D01*
X16579587Y-11226388D02*
X16579587Y-11169246D01*
X16579587Y-11169246D02*
X16589111Y-11150198D01*
X16589111Y-11150198D02*
X16598634Y-11140674D01*
X16598634Y-11140674D02*
X16617682Y-11131150D01*
X16617682Y-11131150D02*
X16655777Y-11131150D01*
X16655777Y-11131150D02*
X16674825Y-11140674D01*
X16751015Y-11340674D02*
X16760539Y-11331150D01*
X16760539Y-11331150D02*
X16779587Y-11302579D01*
X16779587Y-11302579D02*
X16789111Y-11283531D01*
X16789111Y-11283531D02*
X16798635Y-11254960D01*
X16798635Y-11254960D02*
X16808158Y-11207341D01*
X16808158Y-11207341D02*
X16808158Y-11169246D01*
X16808158Y-11169246D02*
X16798635Y-11121627D01*
X16798635Y-11121627D02*
X16789111Y-11093055D01*
X16789111Y-11093055D02*
X16779587Y-11074008D01*
X16779587Y-11074008D02*
X16760539Y-11045436D01*
X16760539Y-11045436D02*
X16751015Y-11035912D01*
M02*
