%TF.GenerationSoftware,KiCad,Pcbnew,8.0.0*%
%TF.CreationDate,2024-04-17T17:54:24+02:00*%
%TF.ProjectId,SCS LEDs,53435320-4c45-4447-932e-6b696361645f,rev?*%
%TF.SameCoordinates,Original*%
%TF.FileFunction,Soldermask,Top*%
%TF.FilePolarity,Negative*%
%FSLAX46Y46*%
G04 Gerber Fmt 4.6, Leading zero omitted, Abs format (unit mm)*
G04 Created by KiCad (PCBNEW 8.0.0) date 2024-04-17 17:54:24*
%MOMM*%
%LPD*%
G01*
G04 APERTURE LIST*
G04 Aperture macros list*
%AMRoundRect*
0 Rectangle with rounded corners*
0 $1 Rounding radius*
0 $2 $3 $4 $5 $6 $7 $8 $9 X,Y pos of 4 corners*
0 Add a 4 corners polygon primitive as box body*
4,1,4,$2,$3,$4,$5,$6,$7,$8,$9,$2,$3,0*
0 Add four circle primitives for the rounded corners*
1,1,$1+$1,$2,$3*
1,1,$1+$1,$4,$5*
1,1,$1+$1,$6,$7*
1,1,$1+$1,$8,$9*
0 Add four rect primitives between the rounded corners*
20,1,$1+$1,$2,$3,$4,$5,0*
20,1,$1+$1,$4,$5,$6,$7,0*
20,1,$1+$1,$6,$7,$8,$9,0*
20,1,$1+$1,$8,$9,$2,$3,0*%
G04 Aperture macros list end*
%ADD10C,3.000000*%
%ADD11RoundRect,0.100000X0.100000X-0.637500X0.100000X0.637500X-0.100000X0.637500X-0.100000X-0.637500X0*%
%ADD12R,1.050000X1.800000*%
%ADD13R,1.600000X1.600000*%
%ADD14C,1.600000*%
%ADD15O,0.950000X1.600000*%
%ADD16R,1.150000X0.600000*%
%ADD17R,1.530000X1.530000*%
%ADD18C,1.530000*%
%ADD19R,1.470000X1.070000*%
%ADD20R,1.070000X1.470000*%
%ADD21R,1.800000X1.050000*%
%ADD22C,1.440000*%
%ADD23RoundRect,0.100000X-0.650000X-0.100000X0.650000X-0.100000X0.650000X0.100000X-0.650000X0.100000X0*%
G04 APERTURE END LIST*
D10*
%TO.C,*%
X71628000Y-51308000D03*
%TD*%
%TO.C,*%
X96266000Y-51816000D03*
%TD*%
%TO.C,*%
X71272400Y-78536800D03*
%TD*%
D11*
%TO.C,U2*%
X76520000Y-73805100D03*
X77170000Y-73805100D03*
X77820000Y-73805100D03*
X78470000Y-73805100D03*
X78470000Y-68080100D03*
X77820000Y-68080100D03*
X77170000Y-68080100D03*
X76520000Y-68080100D03*
%TD*%
D12*
%TO.C,R1*%
X89815000Y-73660000D03*
X86715000Y-73660000D03*
%TD*%
D13*
%TO.C,C1*%
X97028000Y-64516000D03*
D14*
X95028000Y-64516000D03*
%TD*%
D12*
%TO.C,R3*%
X71602000Y-64770000D03*
X74702000Y-64770000D03*
%TD*%
D15*
%TO.C,K1*%
X86614000Y-67220000D03*
X88900000Y-67220000D03*
X88900000Y-58420000D03*
X86614000Y-58420000D03*
%TD*%
D16*
%TO.C,G1*%
X81220000Y-74300000D03*
X81220000Y-75250000D03*
X81220000Y-76200000D03*
X83820000Y-76200000D03*
X83820000Y-74300000D03*
%TD*%
D17*
%TO.C,J1*%
X88900000Y-52705000D03*
D18*
X86360000Y-52705000D03*
%TD*%
D19*
%TO.C,C4*%
X81889600Y-56736400D03*
X81889600Y-58376400D03*
%TD*%
D12*
%TO.C,R5*%
X69824000Y-73152000D03*
X72924000Y-73152000D03*
%TD*%
%TO.C,R4*%
X72924000Y-69977000D03*
X69824000Y-69977000D03*
%TD*%
D19*
%TO.C,C3*%
X76708000Y-79306000D03*
X76708000Y-77666000D03*
%TD*%
D12*
%TO.C,R7*%
X81560000Y-61595000D03*
X78460000Y-61595000D03*
%TD*%
D20*
%TO.C,C2*%
X88080000Y-70485000D03*
X89720000Y-70485000D03*
%TD*%
D17*
%TO.C,J2*%
X96520000Y-57150000D03*
D18*
X96520000Y-59690000D03*
%TD*%
D21*
%TO.C,R2*%
X82905600Y-50748600D03*
X82905600Y-53848600D03*
%TD*%
D12*
%TO.C,R6*%
X78079000Y-64897000D03*
X81179000Y-64897000D03*
%TD*%
D22*
%TO.C,U3*%
X93948000Y-71435500D03*
X93948000Y-73975500D03*
X93948000Y-76515500D03*
%TD*%
D23*
%TO.C,U1*%
X75073200Y-56855600D03*
X75073200Y-57505600D03*
X75073200Y-58155600D03*
X77733200Y-58155600D03*
X77733200Y-56855600D03*
%TD*%
M02*
