M48
; DRILL file {KiCad (6.0.8)} date Wed Mar  8 14:03:38 2023
; FORMAT={-:-/ absolute / metric / decimal}
; #@! TF.CreationDate,2023-03-08T14:03:38+01:00
; #@! TF.GenerationSoftware,Kicad,Pcbnew,(6.0.8)
; #@! TF.FileFunction,Plated,1,2,PTH
FMAT,2
METRIC
; #@! TA.AperFunction,Plated,PTH,ComponentDrill
T1C0.810
; #@! TA.AperFunction,Plated,PTH,ComponentDrill
T2C0.900
; #@! TA.AperFunction,Plated,PTH,ComponentDrill
T3C1.000
; #@! TA.AperFunction,Plated,PTH,ComponentDrill
T4C1.200
; #@! TA.AperFunction,Plated,PTH,ComponentDrill
T5C1.520
; #@! TA.AperFunction,Plated,PTH,ComponentDrill
T6C3.200
%
G90
G05
T1
X65.34Y-76.0
X85.66Y-76.0
T2
X64.0Y-44.46
X64.0Y-47.0
X87.0Y-44.46
X87.0Y-47.0
T3
X63.0Y-52.0
X63.0Y-54.54
X70.0Y-38.93
X71.385Y-36.09
X72.77Y-38.93
X74.155Y-36.09
X75.54Y-38.93
X76.925Y-36.09
X78.31Y-38.93
X79.695Y-36.09
X81.08Y-38.93
X88.0Y-52.0
X88.0Y-54.54
T4
X67.88Y-65.0
X71.0Y-44.38
X71.0Y-59.62
X80.0Y-44.38
X80.0Y-59.62
X83.12Y-65.0
T5
X56.0Y-45.92
X56.0Y-51.0
X56.0Y-56.08
X56.0Y-62.92
X56.0Y-68.0
X56.0Y-73.08
X95.0Y-45.92
X95.0Y-51.0
X95.0Y-56.08
X95.0Y-63.0
X95.0Y-68.08
X95.0Y-73.16
T6
X55.0Y-32.0
X55.0Y-80.0
X63.04Y-37.51
X88.04Y-37.51
X96.0Y-32.0
X96.0Y-80.0
T0
M30
