%TF.GenerationSoftware,KiCad,Pcbnew,8.0.0*%
%TF.CreationDate,2024-04-17T18:34:43+02:00*%
%TF.ProjectId,TSAC_Voltage_Sensor,54534143-5f56-46f6-9c74-6167655f5365,rev?*%
%TF.SameCoordinates,Original*%
%TF.FileFunction,Soldermask,Top*%
%TF.FilePolarity,Negative*%
%FSLAX46Y46*%
G04 Gerber Fmt 4.6, Leading zero omitted, Abs format (unit mm)*
G04 Created by KiCad (PCBNEW 8.0.0) date 2024-04-17 18:34:43*
%MOMM*%
%LPD*%
G01*
G04 APERTURE LIST*
G04 Aperture macros list*
%AMRoundRect*
0 Rectangle with rounded corners*
0 $1 Rounding radius*
0 $2 $3 $4 $5 $6 $7 $8 $9 X,Y pos of 4 corners*
0 Add a 4 corners polygon primitive as box body*
4,1,4,$2,$3,$4,$5,$6,$7,$8,$9,$2,$3,0*
0 Add four circle primitives for the rounded corners*
1,1,$1+$1,$2,$3*
1,1,$1+$1,$4,$5*
1,1,$1+$1,$6,$7*
1,1,$1+$1,$8,$9*
0 Add four rect primitives between the rounded corners*
20,1,$1+$1,$2,$3,$4,$5,0*
20,1,$1+$1,$4,$5,$6,$7,0*
20,1,$1+$1,$6,$7,$8,$9,0*
20,1,$1+$1,$8,$9,$2,$3,0*%
G04 Aperture macros list end*
%ADD10C,5.600000*%
%ADD11R,1.700000X1.300000*%
%ADD12R,1.800000X1.050000*%
%ADD13O,1.600000X0.950000*%
%ADD14R,1.150000X0.600000*%
%ADD15R,1.610000X1.610000*%
%ADD16C,1.610000*%
%ADD17RoundRect,0.250000X-1.750000X-1.750000X1.750000X-1.750000X1.750000X1.750000X-1.750000X1.750000X0*%
%ADD18R,1.050000X1.800000*%
%ADD19C,2.250000*%
%ADD20R,1.070000X1.470000*%
%ADD21C,2.400000*%
%ADD22O,2.400000X2.400000*%
%ADD23C,1.500000*%
G04 APERTURE END LIST*
D10*
%TO.C,*%
X132080000Y-60960000D03*
%TD*%
D11*
%TO.C,Z1*%
X88900000Y-72870000D03*
X88900000Y-69370000D03*
%TD*%
D12*
%TO.C,R8*%
X127000000Y-87910000D03*
X127000000Y-84810000D03*
%TD*%
D13*
%TO.C,K1*%
X112440000Y-77597000D03*
X112440000Y-79883000D03*
X121240000Y-79883000D03*
X121240000Y-77597000D03*
%TD*%
D10*
%TO.C,*%
X95250000Y-86995000D03*
%TD*%
D14*
%TO.C,CP1*%
X92680000Y-72710000D03*
X92680000Y-73660000D03*
X92680000Y-74610000D03*
X95280000Y-74610000D03*
X95280000Y-72710000D03*
%TD*%
D12*
%TO.C,R7*%
X123190000Y-84810000D03*
X123190000Y-87910000D03*
%TD*%
D10*
%TO.C,*%
X131445000Y-119380000D03*
%TD*%
D15*
%TO.C,J1*%
X132080000Y-86360000D03*
D16*
X132080000Y-83820000D03*
X132080000Y-81280000D03*
%TD*%
D17*
%TO.C,TP2*%
X83820000Y-63500000D03*
%TD*%
D18*
%TO.C,R4*%
X125450000Y-91440000D03*
X128550000Y-91440000D03*
%TD*%
D17*
%TO.C,TP1*%
X83820000Y-119380000D03*
%TD*%
D12*
%TO.C,R5*%
X81280000Y-69570000D03*
X81280000Y-72670000D03*
%TD*%
D19*
%TO.C,F1*%
X83339117Y-99600885D03*
X83339117Y-77000885D03*
%TD*%
D12*
%TO.C,R3*%
X100965000Y-66955000D03*
X100965000Y-63855000D03*
%TD*%
D18*
%TO.C,R6*%
X100585212Y-69799441D03*
X97485212Y-69799441D03*
%TD*%
D20*
%TO.C,C1*%
X92507966Y-71013855D03*
X94147966Y-71013855D03*
%TD*%
D12*
%TO.C,R2*%
X96520000Y-66320000D03*
X96520000Y-63220000D03*
%TD*%
D18*
%TO.C,R9*%
X125450000Y-95250000D03*
X128550000Y-95250000D03*
%TD*%
D21*
%TO.C,R1*%
X95085306Y-99757822D03*
D22*
X95085306Y-120077822D03*
%TD*%
D23*
%TO.C,PS1*%
X123190000Y-68315000D03*
X120650000Y-68315000D03*
X115570000Y-68315000D03*
X113030000Y-68315000D03*
X110490000Y-68315000D03*
%TD*%
M02*
