%TF.GenerationSoftware,KiCad,Pcbnew,8.0.2*%
%TF.CreationDate,2024-07-08T11:13:27+02:00*%
%TF.ProjectId,TSAC_Voltage_Sensor,54534143-5f56-46f6-9c74-6167655f5365,rev?*%
%TF.SameCoordinates,Original*%
%TF.FileFunction,Drillmap*%
%TF.FilePolarity,Positive*%
%FSLAX45Y45*%
G04 Gerber Fmt 4.5, Leading zero omitted, Abs format (unit mm)*
G04 Created by KiCad (PCBNEW 8.0.2) date 2024-07-08 11:13:27*
%MOMM*%
%LPD*%
G01*
G04 APERTURE LIST*
%ADD10C,0.100000*%
%ADD11C,0.200000*%
%ADD12C,0.305000*%
G04 APERTURE END LIST*
D10*
X7600000Y-5650000D02*
X13700000Y-5650000D01*
X13700000Y-10546000D01*
X7600000Y-10546000D01*
X7600000Y-5650000D01*
D11*
D12*
X8568750Y-10067500D02*
X8873750Y-10372500D01*
X8873750Y-10067500D02*
X8568750Y-10372500D01*
D11*
X7855777Y-10862484D02*
X7855777Y-10662484D01*
X7855777Y-10662484D02*
X7903396Y-10662484D01*
X7903396Y-10662484D02*
X7931967Y-10672008D01*
X7931967Y-10672008D02*
X7951015Y-10691055D01*
X7951015Y-10691055D02*
X7960539Y-10710103D01*
X7960539Y-10710103D02*
X7970062Y-10748198D01*
X7970062Y-10748198D02*
X7970062Y-10776770D01*
X7970062Y-10776770D02*
X7960539Y-10814865D01*
X7960539Y-10814865D02*
X7951015Y-10833912D01*
X7951015Y-10833912D02*
X7931967Y-10852960D01*
X7931967Y-10852960D02*
X7903396Y-10862484D01*
X7903396Y-10862484D02*
X7855777Y-10862484D01*
X8055777Y-10862484D02*
X8055777Y-10729150D01*
X8055777Y-10767246D02*
X8065301Y-10748198D01*
X8065301Y-10748198D02*
X8074824Y-10738674D01*
X8074824Y-10738674D02*
X8093872Y-10729150D01*
X8093872Y-10729150D02*
X8112920Y-10729150D01*
X8179586Y-10862484D02*
X8179586Y-10729150D01*
X8179586Y-10662484D02*
X8170062Y-10672008D01*
X8170062Y-10672008D02*
X8179586Y-10681531D01*
X8179586Y-10681531D02*
X8189110Y-10672008D01*
X8189110Y-10672008D02*
X8179586Y-10662484D01*
X8179586Y-10662484D02*
X8179586Y-10681531D01*
X8303396Y-10862484D02*
X8284348Y-10852960D01*
X8284348Y-10852960D02*
X8274824Y-10833912D01*
X8274824Y-10833912D02*
X8274824Y-10662484D01*
X8408158Y-10862484D02*
X8389110Y-10852960D01*
X8389110Y-10852960D02*
X8379586Y-10833912D01*
X8379586Y-10833912D02*
X8379586Y-10662484D01*
X8636729Y-10862484D02*
X8636729Y-10662484D01*
X8636729Y-10662484D02*
X8703396Y-10805341D01*
X8703396Y-10805341D02*
X8770063Y-10662484D01*
X8770063Y-10662484D02*
X8770063Y-10862484D01*
X8951015Y-10862484D02*
X8951015Y-10757722D01*
X8951015Y-10757722D02*
X8941491Y-10738674D01*
X8941491Y-10738674D02*
X8922444Y-10729150D01*
X8922444Y-10729150D02*
X8884348Y-10729150D01*
X8884348Y-10729150D02*
X8865301Y-10738674D01*
X8951015Y-10852960D02*
X8931967Y-10862484D01*
X8931967Y-10862484D02*
X8884348Y-10862484D01*
X8884348Y-10862484D02*
X8865301Y-10852960D01*
X8865301Y-10852960D02*
X8855777Y-10833912D01*
X8855777Y-10833912D02*
X8855777Y-10814865D01*
X8855777Y-10814865D02*
X8865301Y-10795817D01*
X8865301Y-10795817D02*
X8884348Y-10786293D01*
X8884348Y-10786293D02*
X8931967Y-10786293D01*
X8931967Y-10786293D02*
X8951015Y-10776770D01*
X9046253Y-10729150D02*
X9046253Y-10929150D01*
X9046253Y-10738674D02*
X9065301Y-10729150D01*
X9065301Y-10729150D02*
X9103396Y-10729150D01*
X9103396Y-10729150D02*
X9122444Y-10738674D01*
X9122444Y-10738674D02*
X9131967Y-10748198D01*
X9131967Y-10748198D02*
X9141491Y-10767246D01*
X9141491Y-10767246D02*
X9141491Y-10824389D01*
X9141491Y-10824389D02*
X9131967Y-10843436D01*
X9131967Y-10843436D02*
X9122444Y-10852960D01*
X9122444Y-10852960D02*
X9103396Y-10862484D01*
X9103396Y-10862484D02*
X9065301Y-10862484D01*
X9065301Y-10862484D02*
X9046253Y-10852960D01*
X9227205Y-10843436D02*
X9236729Y-10852960D01*
X9236729Y-10852960D02*
X9227205Y-10862484D01*
X9227205Y-10862484D02*
X9217682Y-10852960D01*
X9217682Y-10852960D02*
X9227205Y-10843436D01*
X9227205Y-10843436D02*
X9227205Y-10862484D01*
X9227205Y-10738674D02*
X9236729Y-10748198D01*
X9236729Y-10748198D02*
X9227205Y-10757722D01*
X9227205Y-10757722D02*
X9217682Y-10748198D01*
X9217682Y-10748198D02*
X9227205Y-10738674D01*
X9227205Y-10738674D02*
X9227205Y-10757722D01*
X7395000Y-11091000D02*
X7595000Y-11291000D01*
X7595000Y-11091000D02*
X7395000Y-11291000D01*
X7836729Y-11082484D02*
X7960539Y-11082484D01*
X7960539Y-11082484D02*
X7893872Y-11158674D01*
X7893872Y-11158674D02*
X7922443Y-11158674D01*
X7922443Y-11158674D02*
X7941491Y-11168198D01*
X7941491Y-11168198D02*
X7951015Y-11177722D01*
X7951015Y-11177722D02*
X7960539Y-11196769D01*
X7960539Y-11196769D02*
X7960539Y-11244388D01*
X7960539Y-11244388D02*
X7951015Y-11263436D01*
X7951015Y-11263436D02*
X7941491Y-11272960D01*
X7941491Y-11272960D02*
X7922443Y-11282484D01*
X7922443Y-11282484D02*
X7865301Y-11282484D01*
X7865301Y-11282484D02*
X7846253Y-11272960D01*
X7846253Y-11272960D02*
X7836729Y-11263436D01*
X8046253Y-11263436D02*
X8055777Y-11272960D01*
X8055777Y-11272960D02*
X8046253Y-11282484D01*
X8046253Y-11282484D02*
X8036729Y-11272960D01*
X8036729Y-11272960D02*
X8046253Y-11263436D01*
X8046253Y-11263436D02*
X8046253Y-11282484D01*
X8179586Y-11082484D02*
X8198634Y-11082484D01*
X8198634Y-11082484D02*
X8217682Y-11092008D01*
X8217682Y-11092008D02*
X8227205Y-11101531D01*
X8227205Y-11101531D02*
X8236729Y-11120579D01*
X8236729Y-11120579D02*
X8246253Y-11158674D01*
X8246253Y-11158674D02*
X8246253Y-11206293D01*
X8246253Y-11206293D02*
X8236729Y-11244388D01*
X8236729Y-11244388D02*
X8227205Y-11263436D01*
X8227205Y-11263436D02*
X8217682Y-11272960D01*
X8217682Y-11272960D02*
X8198634Y-11282484D01*
X8198634Y-11282484D02*
X8179586Y-11282484D01*
X8179586Y-11282484D02*
X8160539Y-11272960D01*
X8160539Y-11272960D02*
X8151015Y-11263436D01*
X8151015Y-11263436D02*
X8141491Y-11244388D01*
X8141491Y-11244388D02*
X8131967Y-11206293D01*
X8131967Y-11206293D02*
X8131967Y-11158674D01*
X8131967Y-11158674D02*
X8141491Y-11120579D01*
X8141491Y-11120579D02*
X8151015Y-11101531D01*
X8151015Y-11101531D02*
X8160539Y-11092008D01*
X8160539Y-11092008D02*
X8179586Y-11082484D01*
X8427205Y-11082484D02*
X8331967Y-11082484D01*
X8331967Y-11082484D02*
X8322443Y-11177722D01*
X8322443Y-11177722D02*
X8331967Y-11168198D01*
X8331967Y-11168198D02*
X8351015Y-11158674D01*
X8351015Y-11158674D02*
X8398634Y-11158674D01*
X8398634Y-11158674D02*
X8417682Y-11168198D01*
X8417682Y-11168198D02*
X8427205Y-11177722D01*
X8427205Y-11177722D02*
X8436729Y-11196769D01*
X8436729Y-11196769D02*
X8436729Y-11244388D01*
X8436729Y-11244388D02*
X8427205Y-11263436D01*
X8427205Y-11263436D02*
X8417682Y-11272960D01*
X8417682Y-11272960D02*
X8398634Y-11282484D01*
X8398634Y-11282484D02*
X8351015Y-11282484D01*
X8351015Y-11282484D02*
X8331967Y-11272960D01*
X8331967Y-11272960D02*
X8322443Y-11263436D01*
X8560539Y-11082484D02*
X8579586Y-11082484D01*
X8579586Y-11082484D02*
X8598634Y-11092008D01*
X8598634Y-11092008D02*
X8608158Y-11101531D01*
X8608158Y-11101531D02*
X8617682Y-11120579D01*
X8617682Y-11120579D02*
X8627205Y-11158674D01*
X8627205Y-11158674D02*
X8627205Y-11206293D01*
X8627205Y-11206293D02*
X8617682Y-11244388D01*
X8617682Y-11244388D02*
X8608158Y-11263436D01*
X8608158Y-11263436D02*
X8598634Y-11272960D01*
X8598634Y-11272960D02*
X8579586Y-11282484D01*
X8579586Y-11282484D02*
X8560539Y-11282484D01*
X8560539Y-11282484D02*
X8541491Y-11272960D01*
X8541491Y-11272960D02*
X8531967Y-11263436D01*
X8531967Y-11263436D02*
X8522444Y-11244388D01*
X8522444Y-11244388D02*
X8512920Y-11206293D01*
X8512920Y-11206293D02*
X8512920Y-11158674D01*
X8512920Y-11158674D02*
X8522444Y-11120579D01*
X8522444Y-11120579D02*
X8531967Y-11101531D01*
X8531967Y-11101531D02*
X8541491Y-11092008D01*
X8541491Y-11092008D02*
X8560539Y-11082484D01*
X8712920Y-11282484D02*
X8712920Y-11149150D01*
X8712920Y-11168198D02*
X8722444Y-11158674D01*
X8722444Y-11158674D02*
X8741491Y-11149150D01*
X8741491Y-11149150D02*
X8770063Y-11149150D01*
X8770063Y-11149150D02*
X8789110Y-11158674D01*
X8789110Y-11158674D02*
X8798634Y-11177722D01*
X8798634Y-11177722D02*
X8798634Y-11282484D01*
X8798634Y-11177722D02*
X8808158Y-11158674D01*
X8808158Y-11158674D02*
X8827205Y-11149150D01*
X8827205Y-11149150D02*
X8855777Y-11149150D01*
X8855777Y-11149150D02*
X8874825Y-11158674D01*
X8874825Y-11158674D02*
X8884348Y-11177722D01*
X8884348Y-11177722D02*
X8884348Y-11282484D01*
X8979586Y-11282484D02*
X8979586Y-11149150D01*
X8979586Y-11168198D02*
X8989110Y-11158674D01*
X8989110Y-11158674D02*
X9008158Y-11149150D01*
X9008158Y-11149150D02*
X9036729Y-11149150D01*
X9036729Y-11149150D02*
X9055777Y-11158674D01*
X9055777Y-11158674D02*
X9065301Y-11177722D01*
X9065301Y-11177722D02*
X9065301Y-11282484D01*
X9065301Y-11177722D02*
X9074825Y-11158674D01*
X9074825Y-11158674D02*
X9093872Y-11149150D01*
X9093872Y-11149150D02*
X9122444Y-11149150D01*
X9122444Y-11149150D02*
X9141491Y-11158674D01*
X9141491Y-11158674D02*
X9151015Y-11177722D01*
X9151015Y-11177722D02*
X9151015Y-11282484D01*
X9541491Y-11072960D02*
X9370063Y-11330103D01*
X9798634Y-11082484D02*
X9817682Y-11082484D01*
X9817682Y-11082484D02*
X9836729Y-11092008D01*
X9836729Y-11092008D02*
X9846253Y-11101531D01*
X9846253Y-11101531D02*
X9855777Y-11120579D01*
X9855777Y-11120579D02*
X9865301Y-11158674D01*
X9865301Y-11158674D02*
X9865301Y-11206293D01*
X9865301Y-11206293D02*
X9855777Y-11244388D01*
X9855777Y-11244388D02*
X9846253Y-11263436D01*
X9846253Y-11263436D02*
X9836729Y-11272960D01*
X9836729Y-11272960D02*
X9817682Y-11282484D01*
X9817682Y-11282484D02*
X9798634Y-11282484D01*
X9798634Y-11282484D02*
X9779587Y-11272960D01*
X9779587Y-11272960D02*
X9770063Y-11263436D01*
X9770063Y-11263436D02*
X9760539Y-11244388D01*
X9760539Y-11244388D02*
X9751015Y-11206293D01*
X9751015Y-11206293D02*
X9751015Y-11158674D01*
X9751015Y-11158674D02*
X9760539Y-11120579D01*
X9760539Y-11120579D02*
X9770063Y-11101531D01*
X9770063Y-11101531D02*
X9779587Y-11092008D01*
X9779587Y-11092008D02*
X9798634Y-11082484D01*
X9951015Y-11263436D02*
X9960539Y-11272960D01*
X9960539Y-11272960D02*
X9951015Y-11282484D01*
X9951015Y-11282484D02*
X9941491Y-11272960D01*
X9941491Y-11272960D02*
X9951015Y-11263436D01*
X9951015Y-11263436D02*
X9951015Y-11282484D01*
X10151015Y-11282484D02*
X10036729Y-11282484D01*
X10093872Y-11282484D02*
X10093872Y-11082484D01*
X10093872Y-11082484D02*
X10074825Y-11111055D01*
X10074825Y-11111055D02*
X10055777Y-11130103D01*
X10055777Y-11130103D02*
X10036729Y-11139627D01*
X10227206Y-11101531D02*
X10236729Y-11092008D01*
X10236729Y-11092008D02*
X10255777Y-11082484D01*
X10255777Y-11082484D02*
X10303396Y-11082484D01*
X10303396Y-11082484D02*
X10322444Y-11092008D01*
X10322444Y-11092008D02*
X10331968Y-11101531D01*
X10331968Y-11101531D02*
X10341491Y-11120579D01*
X10341491Y-11120579D02*
X10341491Y-11139627D01*
X10341491Y-11139627D02*
X10331968Y-11168198D01*
X10331968Y-11168198D02*
X10217682Y-11282484D01*
X10217682Y-11282484D02*
X10341491Y-11282484D01*
X10465301Y-11082484D02*
X10484349Y-11082484D01*
X10484349Y-11082484D02*
X10503396Y-11092008D01*
X10503396Y-11092008D02*
X10512920Y-11101531D01*
X10512920Y-11101531D02*
X10522444Y-11120579D01*
X10522444Y-11120579D02*
X10531968Y-11158674D01*
X10531968Y-11158674D02*
X10531968Y-11206293D01*
X10531968Y-11206293D02*
X10522444Y-11244388D01*
X10522444Y-11244388D02*
X10512920Y-11263436D01*
X10512920Y-11263436D02*
X10503396Y-11272960D01*
X10503396Y-11272960D02*
X10484349Y-11282484D01*
X10484349Y-11282484D02*
X10465301Y-11282484D01*
X10465301Y-11282484D02*
X10446253Y-11272960D01*
X10446253Y-11272960D02*
X10436729Y-11263436D01*
X10436729Y-11263436D02*
X10427206Y-11244388D01*
X10427206Y-11244388D02*
X10417682Y-11206293D01*
X10417682Y-11206293D02*
X10417682Y-11158674D01*
X10417682Y-11158674D02*
X10427206Y-11120579D01*
X10427206Y-11120579D02*
X10436729Y-11101531D01*
X10436729Y-11101531D02*
X10446253Y-11092008D01*
X10446253Y-11092008D02*
X10465301Y-11082484D01*
X10722444Y-11282484D02*
X10608158Y-11282484D01*
X10665301Y-11282484D02*
X10665301Y-11082484D01*
X10665301Y-11082484D02*
X10646253Y-11111055D01*
X10646253Y-11111055D02*
X10627206Y-11130103D01*
X10627206Y-11130103D02*
X10608158Y-11139627D01*
X10798634Y-11082484D02*
X10798634Y-11120579D01*
X10874825Y-11082484D02*
X10874825Y-11120579D01*
X11170063Y-11358674D02*
X11160539Y-11349150D01*
X11160539Y-11349150D02*
X11141491Y-11320579D01*
X11141491Y-11320579D02*
X11131968Y-11301531D01*
X11131968Y-11301531D02*
X11122444Y-11272960D01*
X11122444Y-11272960D02*
X11112920Y-11225341D01*
X11112920Y-11225341D02*
X11112920Y-11187246D01*
X11112920Y-11187246D02*
X11122444Y-11139627D01*
X11122444Y-11139627D02*
X11131968Y-11111055D01*
X11131968Y-11111055D02*
X11141491Y-11092008D01*
X11141491Y-11092008D02*
X11160539Y-11063436D01*
X11160539Y-11063436D02*
X11170063Y-11053912D01*
X11351015Y-11282484D02*
X11236729Y-11282484D01*
X11293872Y-11282484D02*
X11293872Y-11082484D01*
X11293872Y-11082484D02*
X11274825Y-11111055D01*
X11274825Y-11111055D02*
X11255777Y-11130103D01*
X11255777Y-11130103D02*
X11236729Y-11139627D01*
X11589110Y-11282484D02*
X11589110Y-11082484D01*
X11674825Y-11282484D02*
X11674825Y-11177722D01*
X11674825Y-11177722D02*
X11665301Y-11158674D01*
X11665301Y-11158674D02*
X11646253Y-11149150D01*
X11646253Y-11149150D02*
X11617682Y-11149150D01*
X11617682Y-11149150D02*
X11598634Y-11158674D01*
X11598634Y-11158674D02*
X11589110Y-11168198D01*
X11798634Y-11282484D02*
X11779587Y-11272960D01*
X11779587Y-11272960D02*
X11770063Y-11263436D01*
X11770063Y-11263436D02*
X11760539Y-11244388D01*
X11760539Y-11244388D02*
X11760539Y-11187246D01*
X11760539Y-11187246D02*
X11770063Y-11168198D01*
X11770063Y-11168198D02*
X11779587Y-11158674D01*
X11779587Y-11158674D02*
X11798634Y-11149150D01*
X11798634Y-11149150D02*
X11827206Y-11149150D01*
X11827206Y-11149150D02*
X11846253Y-11158674D01*
X11846253Y-11158674D02*
X11855777Y-11168198D01*
X11855777Y-11168198D02*
X11865301Y-11187246D01*
X11865301Y-11187246D02*
X11865301Y-11244388D01*
X11865301Y-11244388D02*
X11855777Y-11263436D01*
X11855777Y-11263436D02*
X11846253Y-11272960D01*
X11846253Y-11272960D02*
X11827206Y-11282484D01*
X11827206Y-11282484D02*
X11798634Y-11282484D01*
X11979587Y-11282484D02*
X11960539Y-11272960D01*
X11960539Y-11272960D02*
X11951015Y-11253912D01*
X11951015Y-11253912D02*
X11951015Y-11082484D01*
X12131968Y-11272960D02*
X12112920Y-11282484D01*
X12112920Y-11282484D02*
X12074825Y-11282484D01*
X12074825Y-11282484D02*
X12055777Y-11272960D01*
X12055777Y-11272960D02*
X12046253Y-11253912D01*
X12046253Y-11253912D02*
X12046253Y-11177722D01*
X12046253Y-11177722D02*
X12055777Y-11158674D01*
X12055777Y-11158674D02*
X12074825Y-11149150D01*
X12074825Y-11149150D02*
X12112920Y-11149150D01*
X12112920Y-11149150D02*
X12131968Y-11158674D01*
X12131968Y-11158674D02*
X12141491Y-11177722D01*
X12141491Y-11177722D02*
X12141491Y-11196769D01*
X12141491Y-11196769D02*
X12046253Y-11215817D01*
X12208158Y-11358674D02*
X12217682Y-11349150D01*
X12217682Y-11349150D02*
X12236730Y-11320579D01*
X12236730Y-11320579D02*
X12246253Y-11301531D01*
X12246253Y-11301531D02*
X12255777Y-11272960D01*
X12255777Y-11272960D02*
X12265301Y-11225341D01*
X12265301Y-11225341D02*
X12265301Y-11187246D01*
X12265301Y-11187246D02*
X12255777Y-11139627D01*
X12255777Y-11139627D02*
X12246253Y-11111055D01*
X12246253Y-11111055D02*
X12236730Y-11092008D01*
X12236730Y-11092008D02*
X12217682Y-11063436D01*
X12217682Y-11063436D02*
X12208158Y-11053912D01*
X12570063Y-11358674D02*
X12560539Y-11349150D01*
X12560539Y-11349150D02*
X12541491Y-11320579D01*
X12541491Y-11320579D02*
X12531968Y-11301531D01*
X12531968Y-11301531D02*
X12522444Y-11272960D01*
X12522444Y-11272960D02*
X12512920Y-11225341D01*
X12512920Y-11225341D02*
X12512920Y-11187246D01*
X12512920Y-11187246D02*
X12522444Y-11139627D01*
X12522444Y-11139627D02*
X12531968Y-11111055D01*
X12531968Y-11111055D02*
X12541491Y-11092008D01*
X12541491Y-11092008D02*
X12560539Y-11063436D01*
X12560539Y-11063436D02*
X12570063Y-11053912D01*
X12646253Y-11149150D02*
X12646253Y-11282484D01*
X12646253Y-11168198D02*
X12655777Y-11158674D01*
X12655777Y-11158674D02*
X12674825Y-11149150D01*
X12674825Y-11149150D02*
X12703396Y-11149150D01*
X12703396Y-11149150D02*
X12722444Y-11158674D01*
X12722444Y-11158674D02*
X12731968Y-11177722D01*
X12731968Y-11177722D02*
X12731968Y-11282484D01*
X12855777Y-11282484D02*
X12836730Y-11272960D01*
X12836730Y-11272960D02*
X12827206Y-11263436D01*
X12827206Y-11263436D02*
X12817682Y-11244388D01*
X12817682Y-11244388D02*
X12817682Y-11187246D01*
X12817682Y-11187246D02*
X12827206Y-11168198D01*
X12827206Y-11168198D02*
X12836730Y-11158674D01*
X12836730Y-11158674D02*
X12855777Y-11149150D01*
X12855777Y-11149150D02*
X12884349Y-11149150D01*
X12884349Y-11149150D02*
X12903396Y-11158674D01*
X12903396Y-11158674D02*
X12912920Y-11168198D01*
X12912920Y-11168198D02*
X12922444Y-11187246D01*
X12922444Y-11187246D02*
X12922444Y-11244388D01*
X12922444Y-11244388D02*
X12912920Y-11263436D01*
X12912920Y-11263436D02*
X12903396Y-11272960D01*
X12903396Y-11272960D02*
X12884349Y-11282484D01*
X12884349Y-11282484D02*
X12855777Y-11282484D01*
X12979587Y-11149150D02*
X13055777Y-11149150D01*
X13008158Y-11082484D02*
X13008158Y-11253912D01*
X13008158Y-11253912D02*
X13017682Y-11272960D01*
X13017682Y-11272960D02*
X13036730Y-11282484D01*
X13036730Y-11282484D02*
X13055777Y-11282484D01*
X13274825Y-11149150D02*
X13274825Y-11349150D01*
X13274825Y-11158674D02*
X13293872Y-11149150D01*
X13293872Y-11149150D02*
X13331968Y-11149150D01*
X13331968Y-11149150D02*
X13351015Y-11158674D01*
X13351015Y-11158674D02*
X13360539Y-11168198D01*
X13360539Y-11168198D02*
X13370063Y-11187246D01*
X13370063Y-11187246D02*
X13370063Y-11244388D01*
X13370063Y-11244388D02*
X13360539Y-11263436D01*
X13360539Y-11263436D02*
X13351015Y-11272960D01*
X13351015Y-11272960D02*
X13331968Y-11282484D01*
X13331968Y-11282484D02*
X13293872Y-11282484D01*
X13293872Y-11282484D02*
X13274825Y-11272960D01*
X13484349Y-11282484D02*
X13465301Y-11272960D01*
X13465301Y-11272960D02*
X13455777Y-11253912D01*
X13455777Y-11253912D02*
X13455777Y-11082484D01*
X13646253Y-11282484D02*
X13646253Y-11177722D01*
X13646253Y-11177722D02*
X13636730Y-11158674D01*
X13636730Y-11158674D02*
X13617682Y-11149150D01*
X13617682Y-11149150D02*
X13579587Y-11149150D01*
X13579587Y-11149150D02*
X13560539Y-11158674D01*
X13646253Y-11272960D02*
X13627206Y-11282484D01*
X13627206Y-11282484D02*
X13579587Y-11282484D01*
X13579587Y-11282484D02*
X13560539Y-11272960D01*
X13560539Y-11272960D02*
X13551015Y-11253912D01*
X13551015Y-11253912D02*
X13551015Y-11234865D01*
X13551015Y-11234865D02*
X13560539Y-11215817D01*
X13560539Y-11215817D02*
X13579587Y-11206293D01*
X13579587Y-11206293D02*
X13627206Y-11206293D01*
X13627206Y-11206293D02*
X13646253Y-11196769D01*
X13712920Y-11149150D02*
X13789111Y-11149150D01*
X13741492Y-11082484D02*
X13741492Y-11253912D01*
X13741492Y-11253912D02*
X13751015Y-11272960D01*
X13751015Y-11272960D02*
X13770063Y-11282484D01*
X13770063Y-11282484D02*
X13789111Y-11282484D01*
X13931968Y-11272960D02*
X13912920Y-11282484D01*
X13912920Y-11282484D02*
X13874825Y-11282484D01*
X13874825Y-11282484D02*
X13855777Y-11272960D01*
X13855777Y-11272960D02*
X13846253Y-11253912D01*
X13846253Y-11253912D02*
X13846253Y-11177722D01*
X13846253Y-11177722D02*
X13855777Y-11158674D01*
X13855777Y-11158674D02*
X13874825Y-11149150D01*
X13874825Y-11149150D02*
X13912920Y-11149150D01*
X13912920Y-11149150D02*
X13931968Y-11158674D01*
X13931968Y-11158674D02*
X13941492Y-11177722D01*
X13941492Y-11177722D02*
X13941492Y-11196769D01*
X13941492Y-11196769D02*
X13846253Y-11215817D01*
X14112920Y-11282484D02*
X14112920Y-11082484D01*
X14112920Y-11272960D02*
X14093873Y-11282484D01*
X14093873Y-11282484D02*
X14055777Y-11282484D01*
X14055777Y-11282484D02*
X14036730Y-11272960D01*
X14036730Y-11272960D02*
X14027206Y-11263436D01*
X14027206Y-11263436D02*
X14017682Y-11244388D01*
X14017682Y-11244388D02*
X14017682Y-11187246D01*
X14017682Y-11187246D02*
X14027206Y-11168198D01*
X14027206Y-11168198D02*
X14036730Y-11158674D01*
X14036730Y-11158674D02*
X14055777Y-11149150D01*
X14055777Y-11149150D02*
X14093873Y-11149150D01*
X14093873Y-11149150D02*
X14112920Y-11158674D01*
X14189111Y-11358674D02*
X14198634Y-11349150D01*
X14198634Y-11349150D02*
X14217682Y-11320579D01*
X14217682Y-11320579D02*
X14227206Y-11301531D01*
X14227206Y-11301531D02*
X14236730Y-11272960D01*
X14236730Y-11272960D02*
X14246253Y-11225341D01*
X14246253Y-11225341D02*
X14246253Y-11187246D01*
X14246253Y-11187246D02*
X14236730Y-11139627D01*
X14236730Y-11139627D02*
X14227206Y-11111055D01*
X14227206Y-11111055D02*
X14217682Y-11092008D01*
X14217682Y-11092008D02*
X14198634Y-11063436D01*
X14198634Y-11063436D02*
X14189111Y-11053912D01*
M02*
