%TF.GenerationSoftware,KiCad,Pcbnew,(6.0.8)*%
%TF.CreationDate,2023-01-11T15:10:28+01:00*%
%TF.ProjectId,TSAL_Voltage_Sensor,5453414c-5f56-46f6-9c74-6167655f5365,rev?*%
%TF.SameCoordinates,Original*%
%TF.FileFunction,Copper,L2,Bot*%
%TF.FilePolarity,Positive*%
%FSLAX46Y46*%
G04 Gerber Fmt 4.6, Leading zero omitted, Abs format (unit mm)*
G04 Created by KiCad (PCBNEW (6.0.8)) date 2023-01-11 15:10:28*
%MOMM*%
%LPD*%
G01*
G04 APERTURE LIST*
G04 Aperture macros list*
%AMRoundRect*
0 Rectangle with rounded corners*
0 $1 Rounding radius*
0 $2 $3 $4 $5 $6 $7 $8 $9 X,Y pos of 4 corners*
0 Add a 4 corners polygon primitive as box body*
4,1,4,$2,$3,$4,$5,$6,$7,$8,$9,$2,$3,0*
0 Add four circle primitives for the rounded corners*
1,1,$1+$1,$2,$3*
1,1,$1+$1,$4,$5*
1,1,$1+$1,$6,$7*
1,1,$1+$1,$8,$9*
0 Add four rect primitives between the rounded corners*
20,1,$1+$1,$2,$3,$4,$5,0*
20,1,$1+$1,$4,$5,$6,$7,0*
20,1,$1+$1,$6,$7,$8,$9,0*
20,1,$1+$1,$8,$9,$2,$3,0*%
G04 Aperture macros list end*
%TA.AperFunction,ComponentPad*%
%ADD10R,1.217000X1.217000*%
%TD*%
%TA.AperFunction,ComponentPad*%
%ADD11C,1.217000*%
%TD*%
%TA.AperFunction,ComponentPad*%
%ADD12C,5.600000*%
%TD*%
%TA.AperFunction,ComponentPad*%
%ADD13R,1.610000X1.610000*%
%TD*%
%TA.AperFunction,ComponentPad*%
%ADD14C,1.610000*%
%TD*%
%TA.AperFunction,ComponentPad*%
%ADD15RoundRect,0.250000X-1.750000X-1.750000X1.750000X-1.750000X1.750000X1.750000X-1.750000X1.750000X0*%
%TD*%
%TA.AperFunction,ComponentPad*%
%ADD16C,2.250000*%
%TD*%
%TA.AperFunction,ComponentPad*%
%ADD17C,2.400000*%
%TD*%
%TA.AperFunction,ComponentPad*%
%ADD18O,2.400000X2.400000*%
%TD*%
%TA.AperFunction,ComponentPad*%
%ADD19C,1.500000*%
%TD*%
G04 APERTURE END LIST*
D10*
%TO.P,RV1,1,CCW*%
%TO.N,0*%
X101600000Y-63500000D03*
D11*
%TO.P,RV1,2,WIPER*%
%TO.N,Net-(CP1-Pad4)*%
X99060000Y-66040000D03*
%TO.P,RV1,3,CW*%
%TO.N,+5V*%
X96520000Y-63500000D03*
%TD*%
D12*
%TO.P,REF\u002A\u002A,1*%
%TO.N,N/C*%
X93980000Y-86360000D03*
%TD*%
%TO.P,,1*%
%TO.N,N/C*%
X132080000Y-119380000D03*
%TD*%
D13*
%TO.P,J1,1,1*%
%TO.N,Exit*%
X132080000Y-86360000D03*
D14*
%TO.P,J1,2,2*%
%TO.N,+5VA*%
X132080000Y-83820000D03*
%TO.P,J1,3,3*%
%TO.N,GND*%
X132080000Y-81280000D03*
%TD*%
D15*
%TO.P,TP2,1,1*%
%TO.N,0*%
X83820000Y-63500000D03*
%TD*%
%TO.P,TP1,1,1*%
%TO.N,+BATT*%
X83820000Y-119380000D03*
%TD*%
D16*
%TO.P,F1,1*%
%TO.N,Net-(F1-Pad1)*%
X83339117Y-99600885D03*
%TO.P,F1,2*%
%TO.N,Net-(CP1-Pad3)*%
X83339117Y-77000885D03*
%TD*%
D12*
%TO.P,,1*%
%TO.N,N/C*%
X132080000Y-60960000D03*
%TD*%
D17*
%TO.P,R1,1*%
%TO.N,Net-(F1-Pad1)*%
X95085306Y-99757822D03*
D18*
%TO.P,R1,2*%
%TO.N,+BATT*%
X95085306Y-120077822D03*
%TD*%
D19*
%TO.P,PS1,1,VIN*%
%TO.N,+5VA*%
X123190000Y-68315000D03*
%TO.P,PS1,2,GND*%
%TO.N,GND*%
X120650000Y-68315000D03*
%TO.P,PS1,4,0V*%
%TO.N,0*%
X115570000Y-68315000D03*
%TO.P,PS1,5,NO_PIN*%
%TO.N,unconnected-(PS1-Pad5)*%
X113030000Y-68315000D03*
%TO.P,PS1,6,+VO*%
%TO.N,+5V*%
X110490000Y-68315000D03*
%TD*%
%TA.AperFunction,Conductor*%
%TO.N,GND*%
G36*
X136593621Y-56408502D02*
G01*
X136640114Y-56462158D01*
X136651500Y-56514500D01*
X136651500Y-93854000D01*
X136631498Y-93922121D01*
X136577842Y-93968614D01*
X136525500Y-93980000D01*
X119506000Y-93980000D01*
X119437879Y-93959998D01*
X119391386Y-93906342D01*
X119380000Y-93854000D01*
X119380000Y-83820000D01*
X130761483Y-83820000D01*
X130781514Y-84048958D01*
X130840999Y-84270959D01*
X130938131Y-84479258D01*
X131069957Y-84667526D01*
X131232474Y-84830043D01*
X131235007Y-84831817D01*
X131273921Y-84890305D01*
X131275047Y-84961293D01*
X131237616Y-85021621D01*
X131179494Y-85047515D01*
X131180222Y-85050575D01*
X131172540Y-85052402D01*
X131164684Y-85053255D01*
X131028295Y-85104385D01*
X130911739Y-85191739D01*
X130824385Y-85308295D01*
X130773255Y-85444684D01*
X130766500Y-85506866D01*
X130766500Y-87213134D01*
X130773255Y-87275316D01*
X130824385Y-87411705D01*
X130911739Y-87528261D01*
X131028295Y-87615615D01*
X131164684Y-87666745D01*
X131226866Y-87673500D01*
X132933134Y-87673500D01*
X132995316Y-87666745D01*
X133131705Y-87615615D01*
X133248261Y-87528261D01*
X133335615Y-87411705D01*
X133386745Y-87275316D01*
X133393500Y-87213134D01*
X133393500Y-85506866D01*
X133386745Y-85444684D01*
X133335615Y-85308295D01*
X133248261Y-85191739D01*
X133131705Y-85104385D01*
X132995316Y-85053255D01*
X132987460Y-85052402D01*
X132979778Y-85050575D01*
X132980427Y-85047847D01*
X132927209Y-85025723D01*
X132886793Y-84967352D01*
X132884351Y-84896398D01*
X132925033Y-84831789D01*
X132927526Y-84830043D01*
X133090043Y-84667526D01*
X133221869Y-84479258D01*
X133319001Y-84270959D01*
X133378486Y-84048958D01*
X133398517Y-83820000D01*
X133378486Y-83591042D01*
X133319001Y-83369041D01*
X133221869Y-83160742D01*
X133090043Y-82972474D01*
X132927526Y-82809957D01*
X132923018Y-82806800D01*
X132923015Y-82806798D01*
X132743768Y-82681288D01*
X132743765Y-82681286D01*
X132739259Y-82678131D01*
X132708781Y-82663919D01*
X132655496Y-82617002D01*
X132636035Y-82548725D01*
X132656577Y-82480765D01*
X132708781Y-82435529D01*
X132734023Y-82423758D01*
X132743513Y-82418280D01*
X132796640Y-82381080D01*
X132805014Y-82370604D01*
X132797948Y-82357159D01*
X132092811Y-81652021D01*
X132078868Y-81644408D01*
X132077034Y-81644539D01*
X132070420Y-81648790D01*
X131361329Y-82357882D01*
X131354902Y-82369652D01*
X131364198Y-82381667D01*
X131416487Y-82418280D01*
X131425977Y-82423758D01*
X131451219Y-82435529D01*
X131504504Y-82482446D01*
X131523965Y-82550723D01*
X131503423Y-82618683D01*
X131451220Y-82663918D01*
X131425728Y-82675805D01*
X131425719Y-82675810D01*
X131420742Y-82678131D01*
X131232474Y-82809957D01*
X131069957Y-82972474D01*
X130938131Y-83160742D01*
X130840999Y-83369041D01*
X130781514Y-83591042D01*
X130761483Y-83820000D01*
X119380000Y-83820000D01*
X119380000Y-81285475D01*
X130762464Y-81285475D01*
X130781530Y-81503391D01*
X130783433Y-81514186D01*
X130840048Y-81725478D01*
X130843794Y-81735770D01*
X130936240Y-81934020D01*
X130941723Y-81943515D01*
X130978920Y-81996638D01*
X130989397Y-82005013D01*
X131002843Y-81997946D01*
X131707979Y-81292811D01*
X131714356Y-81281132D01*
X132444408Y-81281132D01*
X132444539Y-81282966D01*
X132448790Y-81289580D01*
X133157881Y-81998670D01*
X133169651Y-82005097D01*
X133181665Y-81995803D01*
X133218277Y-81943515D01*
X133223760Y-81934020D01*
X133316206Y-81735770D01*
X133319952Y-81725478D01*
X133376567Y-81514186D01*
X133378470Y-81503391D01*
X133397536Y-81285475D01*
X133397536Y-81274525D01*
X133378470Y-81056609D01*
X133376567Y-81045814D01*
X133319952Y-80834522D01*
X133316206Y-80824230D01*
X133223760Y-80625980D01*
X133218277Y-80616485D01*
X133181080Y-80563362D01*
X133170603Y-80554987D01*
X133157157Y-80562054D01*
X132452021Y-81267189D01*
X132444408Y-81281132D01*
X131714356Y-81281132D01*
X131715592Y-81278868D01*
X131715461Y-81277034D01*
X131711210Y-81270420D01*
X131002119Y-80561330D01*
X130990349Y-80554903D01*
X130978335Y-80564197D01*
X130941723Y-80616485D01*
X130936240Y-80625980D01*
X130843794Y-80824230D01*
X130840048Y-80834522D01*
X130783433Y-81045814D01*
X130781530Y-81056609D01*
X130762464Y-81274525D01*
X130762464Y-81285475D01*
X119380000Y-81285475D01*
X119380000Y-80189397D01*
X131354987Y-80189397D01*
X131362054Y-80202843D01*
X132067189Y-80907979D01*
X132081132Y-80915592D01*
X132082966Y-80915461D01*
X132089580Y-80911210D01*
X132798671Y-80202118D01*
X132805098Y-80190348D01*
X132795802Y-80178333D01*
X132743513Y-80141720D01*
X132734023Y-80136241D01*
X132535770Y-80043794D01*
X132525478Y-80040048D01*
X132314186Y-79983433D01*
X132303391Y-79981530D01*
X132085475Y-79962464D01*
X132074525Y-79962464D01*
X131856609Y-79981530D01*
X131845814Y-79983433D01*
X131634522Y-80040048D01*
X131624230Y-80043794D01*
X131425980Y-80136240D01*
X131416485Y-80141723D01*
X131363362Y-80178920D01*
X131354987Y-80189397D01*
X119380000Y-80189397D01*
X119380000Y-69365161D01*
X119964393Y-69365161D01*
X119973687Y-69377175D01*
X120014088Y-69405464D01*
X120023584Y-69410947D01*
X120213113Y-69499326D01*
X120223405Y-69503072D01*
X120425401Y-69557196D01*
X120436196Y-69559099D01*
X120644525Y-69577326D01*
X120655475Y-69577326D01*
X120863804Y-69559099D01*
X120874599Y-69557196D01*
X121076595Y-69503072D01*
X121086887Y-69499326D01*
X121276416Y-69410947D01*
X121285912Y-69405464D01*
X121327148Y-69376590D01*
X121335523Y-69366112D01*
X121328457Y-69352668D01*
X120662811Y-68687021D01*
X120648868Y-68679408D01*
X120647034Y-68679539D01*
X120640420Y-68683790D01*
X119970820Y-69353391D01*
X119964393Y-69365161D01*
X119380000Y-69365161D01*
X119380000Y-69087582D01*
X119400002Y-69019461D01*
X119453658Y-68972968D01*
X119523932Y-68962864D01*
X119584671Y-68989160D01*
X119598887Y-69000523D01*
X119612334Y-68993455D01*
X120277979Y-68327811D01*
X120284356Y-68316132D01*
X121014408Y-68316132D01*
X121014539Y-68317966D01*
X121018790Y-68324580D01*
X121688391Y-68994180D01*
X121700161Y-69000607D01*
X121712176Y-68991311D01*
X121740466Y-68950907D01*
X121745946Y-68941417D01*
X121805529Y-68813640D01*
X121852446Y-68760355D01*
X121920724Y-68740894D01*
X121988684Y-68761436D01*
X122033919Y-68813640D01*
X122093618Y-68941666D01*
X122093621Y-68941671D01*
X122095944Y-68946653D01*
X122099100Y-68951160D01*
X122099101Y-68951162D01*
X122194624Y-69087582D01*
X122222251Y-69127038D01*
X122377962Y-69282749D01*
X122558346Y-69409056D01*
X122757924Y-69502120D01*
X122970629Y-69559115D01*
X123190000Y-69578307D01*
X123409371Y-69559115D01*
X123622076Y-69502120D01*
X123821654Y-69409056D01*
X124002038Y-69282749D01*
X124157749Y-69127038D01*
X124185377Y-69087582D01*
X124280899Y-68951162D01*
X124280900Y-68951160D01*
X124284056Y-68946653D01*
X124286379Y-68941671D01*
X124286382Y-68941666D01*
X124346081Y-68813640D01*
X124377120Y-68747076D01*
X124434115Y-68534371D01*
X124453307Y-68315000D01*
X124434115Y-68095629D01*
X124377120Y-67882924D01*
X124286498Y-67688583D01*
X124286382Y-67688334D01*
X124286379Y-67688329D01*
X124284056Y-67683347D01*
X124255345Y-67642343D01*
X124160908Y-67507473D01*
X124160906Y-67507470D01*
X124157749Y-67502962D01*
X124002038Y-67347251D01*
X123821654Y-67220944D01*
X123622076Y-67127880D01*
X123409371Y-67070885D01*
X123190000Y-67051693D01*
X122970629Y-67070885D01*
X122757924Y-67127880D01*
X122664562Y-67171415D01*
X122563334Y-67218618D01*
X122563329Y-67218621D01*
X122558347Y-67220944D01*
X122553840Y-67224100D01*
X122553838Y-67224101D01*
X122382473Y-67344092D01*
X122382470Y-67344094D01*
X122377962Y-67347251D01*
X122222251Y-67502962D01*
X122219094Y-67507470D01*
X122219092Y-67507473D01*
X122124655Y-67642343D01*
X122095944Y-67683347D01*
X122093621Y-67688329D01*
X122093618Y-67688334D01*
X122033919Y-67816360D01*
X121987002Y-67869645D01*
X121918724Y-67889106D01*
X121850764Y-67868564D01*
X121805529Y-67816360D01*
X121745946Y-67688583D01*
X121740466Y-67679093D01*
X121711589Y-67637851D01*
X121701113Y-67629477D01*
X121687666Y-67636545D01*
X121022021Y-68302189D01*
X121014408Y-68316132D01*
X120284356Y-68316132D01*
X120285592Y-68313868D01*
X120285461Y-68312034D01*
X120281210Y-68305420D01*
X119611609Y-67635820D01*
X119599839Y-67629393D01*
X119583101Y-67642343D01*
X119516983Y-67668206D01*
X119447378Y-67654218D01*
X119396385Y-67604819D01*
X119380000Y-67542686D01*
X119380000Y-67263887D01*
X119964477Y-67263887D01*
X119971545Y-67277334D01*
X120637189Y-67942979D01*
X120651132Y-67950592D01*
X120652966Y-67950461D01*
X120659580Y-67946210D01*
X121329180Y-67276609D01*
X121335607Y-67264839D01*
X121326313Y-67252825D01*
X121285912Y-67224536D01*
X121276416Y-67219053D01*
X121086887Y-67130674D01*
X121076595Y-67126928D01*
X120874599Y-67072804D01*
X120863804Y-67070901D01*
X120655475Y-67052674D01*
X120644525Y-67052674D01*
X120436196Y-67070901D01*
X120425401Y-67072804D01*
X120223405Y-67126928D01*
X120213113Y-67130674D01*
X120023583Y-67219054D01*
X120014093Y-67224534D01*
X119972851Y-67253411D01*
X119964477Y-67263887D01*
X119380000Y-67263887D01*
X119380000Y-60948434D01*
X128766661Y-60948434D01*
X128784792Y-61306340D01*
X128785329Y-61309695D01*
X128785330Y-61309701D01*
X128790316Y-61340828D01*
X128841470Y-61660195D01*
X128936033Y-62005859D01*
X129067374Y-62339288D01*
X129233957Y-62656582D01*
X129235858Y-62659411D01*
X129235864Y-62659421D01*
X129419569Y-62932800D01*
X129433834Y-62954029D01*
X129664665Y-63228150D01*
X129923751Y-63475738D01*
X130208061Y-63693897D01*
X130240056Y-63713350D01*
X130511355Y-63878303D01*
X130511360Y-63878306D01*
X130514270Y-63880075D01*
X130517358Y-63881521D01*
X130517357Y-63881521D01*
X130835710Y-64030649D01*
X130835720Y-64030653D01*
X130838794Y-64032093D01*
X130842012Y-64033195D01*
X130842015Y-64033196D01*
X131174615Y-64147071D01*
X131174623Y-64147073D01*
X131177838Y-64148174D01*
X131527435Y-64226959D01*
X131579728Y-64232917D01*
X131880114Y-64267142D01*
X131880122Y-64267142D01*
X131883497Y-64267527D01*
X131886901Y-64267545D01*
X131886904Y-64267545D01*
X132081227Y-64268562D01*
X132241857Y-64269403D01*
X132245243Y-64269053D01*
X132245245Y-64269053D01*
X132594932Y-64232917D01*
X132594941Y-64232916D01*
X132598324Y-64232566D01*
X132601657Y-64231852D01*
X132601660Y-64231851D01*
X132774186Y-64194864D01*
X132948727Y-64157446D01*
X133288968Y-64044922D01*
X133615066Y-63896311D01*
X133709052Y-63840506D01*
X133920262Y-63715099D01*
X133920267Y-63715096D01*
X133923207Y-63713350D01*
X134209786Y-63498180D01*
X134471451Y-63253319D01*
X134705140Y-62981630D01*
X134811750Y-62826512D01*
X134906190Y-62689101D01*
X134906195Y-62689094D01*
X134908120Y-62686292D01*
X134909732Y-62683298D01*
X134909737Y-62683290D01*
X135076395Y-62373772D01*
X135078017Y-62370760D01*
X135212842Y-62038724D01*
X135223142Y-62002568D01*
X135243527Y-61931006D01*
X135311020Y-61694070D01*
X135371401Y-61340828D01*
X135373511Y-61306340D01*
X135393168Y-60984928D01*
X135393278Y-60983131D01*
X135393359Y-60960000D01*
X135373979Y-60602159D01*
X135316066Y-60248505D01*
X135220297Y-59903173D01*
X135217243Y-59895497D01*
X135089052Y-59573369D01*
X135087793Y-59570205D01*
X135057768Y-59513498D01*
X134921702Y-59256513D01*
X134921698Y-59256506D01*
X134920103Y-59253494D01*
X134719190Y-58956746D01*
X134487403Y-58683432D01*
X134227454Y-58436750D01*
X133942384Y-58219585D01*
X133939472Y-58217828D01*
X133939467Y-58217825D01*
X133638443Y-58036236D01*
X133638437Y-58036233D01*
X133635528Y-58034478D01*
X133310475Y-57883593D01*
X133140751Y-57826145D01*
X132974255Y-57769789D01*
X132974250Y-57769788D01*
X132971028Y-57768697D01*
X132772681Y-57724724D01*
X132624493Y-57691871D01*
X132624487Y-57691870D01*
X132621158Y-57691132D01*
X132617769Y-57690758D01*
X132617764Y-57690757D01*
X132268338Y-57652180D01*
X132268333Y-57652180D01*
X132264957Y-57651807D01*
X132261558Y-57651801D01*
X132261557Y-57651801D01*
X132092080Y-57651505D01*
X131906592Y-57651182D01*
X131793413Y-57663277D01*
X131553639Y-57688901D01*
X131553631Y-57688902D01*
X131550256Y-57689263D01*
X131200117Y-57765606D01*
X130860271Y-57879317D01*
X130857178Y-57880739D01*
X130857177Y-57880740D01*
X130850974Y-57883593D01*
X130534694Y-58029066D01*
X130227193Y-58213101D01*
X130224467Y-58215163D01*
X130224465Y-58215164D01*
X130218620Y-58219585D01*
X129941367Y-58429270D01*
X129680559Y-58675043D01*
X129447819Y-58947546D01*
X129445900Y-58950358D01*
X129445897Y-58950363D01*
X129352624Y-59087097D01*
X129245871Y-59243591D01*
X129077077Y-59559714D01*
X128943411Y-59892218D01*
X128942491Y-59895492D01*
X128942489Y-59895497D01*
X128940332Y-59903173D01*
X128846437Y-60237213D01*
X128787290Y-60590663D01*
X128766661Y-60948434D01*
X119380000Y-60948434D01*
X119380000Y-56514500D01*
X119400002Y-56446379D01*
X119453658Y-56399886D01*
X119506000Y-56388500D01*
X136525500Y-56388500D01*
X136593621Y-56408502D01*
G37*
%TD.AperFunction*%
%TD*%
M02*
